<?xml version="1.0" encoding="UTF-8" standalone="no"?>
<svg xmlns:ffdec="https://www.free-decompiler.com/flash" xmlns:xlink="http://www.w3.org/1999/xlink" ffdec:objectType="shape" height="61.9px" width="61.85px" xmlns="http://www.w3.org/2000/svg">
  <g transform="matrix(1.0, 0.0, 0.0, 1.0, 32.95, 29.9)">
    <path d="M22.15 -23.1 Q20.75 -24.5 18.8 -24.5 L-22.85 -24.5 Q-24.8 -24.5 -26.2 -23.1 -27.6 -21.75 -27.6 -19.75 L-27.6 21.85 Q-27.6 23.8 -26.2 25.2 -24.8 26.6 -22.85 26.6 L18.8 26.6 Q20.75 26.6 22.15 25.2 23.5 23.8 23.5 21.85 L23.5 -19.75 Q23.5 -21.75 22.15 -23.1 M25.95 -26.95 Q28.9 -23.95 28.9 -19.75 L28.9 21.85 Q28.9 26.05 25.95 29.0 22.95 32.0 18.8 32.0 L-22.85 32.0 Q-27.05 32.0 -30.0 29.0 -32.95 26.05 -32.95 21.85 L-32.95 -19.75 Q-32.95 -23.95 -30.0 -26.95 -27.05 -29.9 -22.85 -29.9 L18.8 -29.9 Q22.95 -29.9 25.95 -26.95 M8.45 1.2 L4.6 3.55 Q1.75 4.95 0.45 6.25 -0.1 6.75 -0.15 8.3 -0.35 9.05 -1.3 9.65 -2.25 10.2 -3.05 10.2 L-5.95 9.5 Q-6.9 9.15 -6.8 7.25 -6.75 5.15 -4.6 3.4 -3.75 2.6 -0.75 0.9 2.1 -0.7 2.4 -3.05 2.0 -6.5 -1.75 -8.2 L-8.6 -10.45 Q-9.25 -14.0 -9.1 -15.65 -8.55 -16.3 -6.8 -16.2 -0.45 -15.7 4.35 -12.65 9.85 -9.15 10.55 -3.3 10.25 -0.45 8.45 1.2 M0.1 14.85 Q0.1 16.0 -0.5 16.95 -1.7 18.3 -3.65 18.3 -6.2 18.3 -7.0 16.25 -7.25 14.35 -5.95 13.1 -4.8 11.25 -2.7 11.25 -0.9 11.25 -0.3 12.85 0.1 14.0 0.1 14.85" fill="#ffe069" fill-rule="evenodd" stroke="none"/>
  </g>
</svg>
