<?xml version="1.0" encoding="UTF-8" standalone="no"?>
<svg xmlns:ffdec="https://www.free-decompiler.com/flash" xmlns:xlink="http://www.w3.org/1999/xlink" ffdec:objectType="shape" height="67.75px" width="67.75px" xmlns="http://www.w3.org/2000/svg">
  <g transform="matrix(1.0, 0.0, 0.0, 1.0, 36.05, 31.9)">
    <path d="M22.6 -22.8 Q31.7 -13.7 31.7 -0.85 31.7 12.0 22.6 21.1 L19.65 23.8 16.95 26.75 Q7.85 35.85 -5.0 35.85 -17.85 35.85 -26.95 26.75 -36.05 17.65 -36.05 4.8 -36.05 -8.0 -26.95 -17.1 L-24.05 -19.65 -21.3 -22.8 Q-12.2 -31.9 0.65 -31.9 13.5 -31.9 22.6 -22.8 M0.65 -27.65 Q-10.45 -27.65 -18.3 -19.8 -26.15 -11.95 -26.15 -0.85 -26.15 10.25 -18.3 18.1 -10.45 25.95 0.65 25.95 11.75 25.95 19.6 18.1 27.45 10.25 27.45 -0.85 27.45 -11.95 19.6 -19.8 11.75 -27.65 0.65 -27.65" fill="#ec1c24" fill-rule="evenodd" stroke="none"/>
    <path d="M0.65 -27.65 Q11.75 -27.65 19.6 -19.8 27.45 -11.95 27.45 -0.85 27.45 10.25 19.6 18.1 11.75 25.95 0.65 25.95 -10.45 25.95 -18.3 18.1 -26.15 10.25 -26.15 -0.85 -26.15 -11.95 -18.3 -19.8 -10.45 -27.65 0.65 -27.65" fill="#ffffff" fill-rule="evenodd" stroke="none"/>
    <path d="M7.15 -22.6 L6.25 -6.4 16.7 -6.8 Q22.8 -7.05 22.8 -4.05 22.8 -3.15 22.05 -1.0 L20.95 2.2 5.55 3.15 4.0 20.4 Q1.3 21.6 -0.95 21.6 -2.3 21.6 -4.75 20.7 L-5.9 19.75 Q-6.3 14.5 -6.3 9.6 L-6.15 3.25 -21.35 2.65 -23.85 1.0 Q-23.85 -1.1 -23.5 -1.65 L-21.4 -3.65 -5.2 -5.45 -2.85 -21.25 Q-1.1 -23.05 1.8 -23.05 L4.45 -22.85 7.15 -22.6" fill="#ec1c24" fill-rule="evenodd" stroke="none"/>
  </g>
</svg>
