<?xml version="1.0" encoding="UTF-8" standalone="no"?>
<svg xmlns:ffdec="https://www.free-decompiler.com/flash" xmlns:xlink="http://www.w3.org/1999/xlink" ffdec:objectType="shape" height="67.75px" width="67.75px" xmlns="http://www.w3.org/2000/svg">
  <g transform="matrix(1.0, 0.0, 0.0, 1.0, 36.05, 31.9)">
    <path d="M0.65 -27.65 Q11.75 -27.65 19.6 -19.8 27.45 -11.95 27.45 -0.85 27.45 10.25 19.6 18.1 11.75 25.95 0.65 25.95 -10.45 25.95 -18.3 18.1 -26.15 10.25 -26.15 -0.85 -26.15 -11.95 -18.3 -19.8 -10.45 -27.65 0.65 -27.65" fill="#ffffff" fill-rule="evenodd" stroke="none"/>
    <path d="M0.65 -27.65 Q-10.45 -27.65 -18.3 -19.8 -26.15 -11.95 -26.15 -0.85 -26.15 10.25 -18.3 18.1 -10.45 25.95 0.65 25.95 11.75 25.95 19.6 18.1 27.45 10.25 27.45 -0.85 27.45 -11.95 19.6 -19.8 11.75 -27.65 0.65 -27.65 M22.6 -22.8 Q31.7 -13.7 31.7 -0.85 31.7 12.0 22.6 21.1 L19.65 23.8 16.95 26.75 Q7.85 35.85 -5.0 35.85 -17.85 35.85 -26.95 26.75 -36.05 17.65 -36.05 4.8 -36.05 -8.0 -26.95 -17.1 L-24.05 -19.65 -21.3 -22.8 Q-12.2 -31.9 0.65 -31.9 13.5 -31.9 22.6 -22.8" fill="#3db44a" fill-rule="evenodd" stroke="none"/>
    <path d="M12.6 -20.15 Q14.5 -20.15 19.1 -17.9 7.75 -3.55 -11.0 17.25 -15.0 17.15 -17.85 15.0 -18.3 14.65 -18.3 14.15 -14.7 7.85 -4.55 -3.4 L10.9 -19.95 12.6 -20.15" fill="#3db44a" fill-rule="evenodd" stroke="none"/>
  </g>
</svg>
