<?xml version="1.0" encoding="UTF-8" standalone="no"?>
<svg xmlns:ffdec="https://www.free-decompiler.com/flash" xmlns:xlink="http://www.w3.org/1999/xlink" ffdec:objectType="shape" height="480.0px" width="640.0px" xmlns="http://www.w3.org/2000/svg">
  <g transform="matrix(1.0, 0.0, 0.0, 1.0, 320.0, 240.0)">
    <path d="M102.65 82.25 L278.95 -139.5 110.5 97.3 -228.65 146.8 -260.5 7.65 -223.9 137.05 102.65 82.25" fill="url(#gradient0)" fill-rule="evenodd" stroke="none"/>
    <path d="M320.0 240.0 L209.15 240.0 320.0 35.45 320.0 240.0" fill="url(#gradient1)" fill-rule="evenodd" stroke="none"/>
    <path d="M91.5 -240.0 L93.25 -240.0 -128.0 -176.65 -224.7 -74.05 -132.95 -181.8 91.5 -240.0" fill="url(#gradient2)" fill-rule="evenodd" stroke="none"/>
    <path d="M320.0 -240.0 L320.0 -163.45 165.2 -240.0 320.0 -240.0" fill="url(#gradient3)" fill-rule="evenodd" stroke="none"/>
    <path d="M320.0 -150.35 L320.0 -142.55 137.45 127.45 188.8 215.4 130.6 132.05 -244.05 177.75 -172.6 240.0 -320.0 240.0 -320.0 -240.0 48.45 -240.0 -141.45 -191.6 -288.05 -24.8 -248.15 174.4 129.3 123.7 320.0 -150.35" fill="url(#gradient4)" fill-rule="evenodd" stroke="none"/>
    <path d="M110.5 97.3 L278.95 -139.5 102.65 82.25 -223.9 137.05 -260.5 7.65 -228.65 146.8 110.5 97.3 M320.0 -163.45 L320.0 -150.35 129.3 123.7 -248.15 174.4 -288.05 -24.8 -141.45 -191.6 48.45 -240.0 91.5 -240.0 -132.95 -181.8 -224.7 -74.05 -128.0 -176.65 93.25 -240.0 165.2 -240.0 320.0 -163.45" fill="url(#gradient5)" fill-rule="evenodd" stroke="none"/>
  </g>
  <defs>
    <linearGradient gradientTransform="matrix(0.0, -0.2929, -0.2929, 0.0, 9.25, 0.0)" gradientUnits="userSpaceOnUse" id="gradient0" spreadMethod="pad" x1="-819.2" x2="819.2">
      <stop offset="0.0" stop-color="#ffffff"/>
      <stop offset="1.0" stop-color="#7fcdff"/>
    </linearGradient>
    <linearGradient gradientTransform="matrix(0.0, -0.2929, -0.2929, 0.0, 264.6, 0.0)" gradientUnits="userSpaceOnUse" id="gradient1" spreadMethod="pad" x1="-819.2" x2="819.2">
      <stop offset="0.0" stop-color="#ffffff"/>
      <stop offset="1.0" stop-color="#7fcdff"/>
    </linearGradient>
    <linearGradient gradientTransform="matrix(0.0, -0.293, -0.293, 0.0, -65.75, 0.0)" gradientUnits="userSpaceOnUse" id="gradient2" spreadMethod="pad" x1="-819.2" x2="819.2">
      <stop offset="0.0" stop-color="#ffffff"/>
      <stop offset="1.0" stop-color="#7fcdff"/>
    </linearGradient>
    <linearGradient gradientTransform="matrix(0.0, -0.293, -0.293, 0.0, 242.6, 0.0)" gradientUnits="userSpaceOnUse" id="gradient3" spreadMethod="pad" x1="-819.2" x2="819.2">
      <stop offset="0.0" stop-color="#ffffff"/>
      <stop offset="1.0" stop-color="#7fcdff"/>
    </linearGradient>
    <linearGradient gradientTransform="matrix(0.0, -0.293, -0.293, 0.0, 0.0, 0.0)" gradientUnits="userSpaceOnUse" id="gradient4" spreadMethod="pad" x1="-819.2" x2="819.2">
      <stop offset="0.0" stop-color="#ffffff"/>
      <stop offset="1.0" stop-color="#7fcdff"/>
    </linearGradient>
    <linearGradient gradientTransform="matrix(0.0, -0.2929, -0.2929, 0.0, 15.95, 0.0)" gradientUnits="userSpaceOnUse" id="gradient5" spreadMethod="pad" x1="-819.2" x2="819.2">
      <stop offset="0.0" stop-color="#ffffff"/>
      <stop offset="1.0" stop-color="#7fcdff"/>
    </linearGradient>
  </defs>
</svg>
