<?xml version="1.0" encoding="UTF-8" standalone="no"?>
<svg xmlns:ffdec="https://www.free-decompiler.com/flash" xmlns:xlink="http://www.w3.org/1999/xlink" ffdec:objectType="shape" height="480.05px" width="640.0px" xmlns="http://www.w3.org/2000/svg">
  <g transform="matrix(1.0, 0.0, 0.0, 1.0, 320.0, 240.05)">
    <path d="M320.0 240.0 L-320.0 240.0 -320.0 -240.0 320.0 -240.0 320.0 240.0" fill="url(#gradient0)" fill-rule="evenodd" stroke="none"/>
    <path d="M289.9 -156.25 Q291.2 -166.15 292.3 -176.8 291.6 -167.05 289.9 -156.25 284.85 -115.45 277.5 -77.3 274.65 -62.35 266.0 -22.95 237.15 48.95 192.85 96.4 179.05 111.2 165.3 121.8 L154.35 129.45 195.3 43.45 Q230.75 13.35 258.0 -48.65 281.7 -102.5 289.9 -156.25 M33.15 -78.0 L70.7 -181.05 85.35 -85.6 41.6 7.45 33.15 -78.0 M90.45 -85.3 L74.3 -186.75 -53.7 -180.7 -59.95 -240.05 278.75 -240.05 Q286.85 -214.2 284.75 -177.5 282.75 -141.75 271.55 -102.65 260.15 -62.8 241.5 -27.55 221.7 9.9 197.0 35.9 L177.1 -73.1 90.45 -85.3 M66.3 -181.95 L30.2 -81.95 -67.35 -84.0 -53.45 -174.45 66.3 -181.95 M-177.45 -48.9 L-164.75 -12.0 -54.75 -15.05 -160.25 -20.75 -187.55 -108.45 Q-219.55 -86.7 -241.1 -53.15 -263.1 -18.9 -269.85 21.0 -276.95 63.35 -265.65 105.4 -253.4 151.05 -220.6 191.45 -196.05 221.75 -186.1 230.7 -177.8 238.2 -180.9 230.05 -183.55 222.95 -192.8 208.45 -201.95 194.05 -209.6 185.0 -226.3 165.15 -238.6 137.1 -253.35 103.4 -256.5 68.35 -260.2 26.55 -246.6 -12.15 -230.8 -57.1 -192.35 -95.35 -190.55 -87.4 -177.45 -48.9 M-65.25 -240.05 L-64.1 -240.05 -57.05 -177.8 -71.15 -84.2 -75.55 -144.0 -65.25 -240.05 M70.2 228.65 Q63.05 234.55 55.5 239.95 L-191.6 239.95 Q-231.9 211.6 -258.05 169.55 -284.7 126.8 -290.65 79.6 -296.95 29.45 -278.45 -16.4 -258.2 -66.45 -210.55 -105.1 -197.4 -115.8 -181.1 -125.65 L-153.6 -31.15 -32.25 -27.2 -24.75 88.3 81.5 96.45 70.2 228.65 M151.5 128.2 L137.45 10.15 174.4 -67.0 192.1 40.35 151.5 128.2 M88.85 -80.35 L171.4 -69.75 135.7 8.1 44.95 7.85 88.85 -80.35 M238.2 -69.55 Q223.2 -40.4 209.8 -19.05 L196.95 -91.7 110.65 -104.9 89.4 -212.8 -38.3 -194.15 85.05 -203.5 102.0 -95.9 189.4 -84.55 205.65 2.6 Q222.7 -23.65 240.0 -57.95 274.65 -126.6 276.15 -167.0 268.2 -127.9 238.2 -69.55" fill="#ffffff" fill-opacity="0.5019608" fill-rule="evenodd" stroke="none"/>
  </g>
  <defs>
    <linearGradient gradientTransform="matrix(0.0, -0.293, -0.293, 0.0, 0.0, 0.0)" gradientUnits="userSpaceOnUse" id="gradient0" spreadMethod="pad" x1="-819.2" x2="819.2">
      <stop offset="0.0" stop-color="#ffffff"/>
      <stop offset="1.0" stop-color="#6bf29d"/>
    </linearGradient>
  </defs>
</svg>
