<?xml version="1.0" encoding="UTF-8" standalone="no"?>
<svg xmlns:ffdec="https://www.free-decompiler.com/flash" xmlns:xlink="http://www.w3.org/1999/xlink" ffdec:objectType="shape" height="90.0px" width="69.8px" xmlns="http://www.w3.org/2000/svg">
  <g transform="matrix(1.0, 0.0, 0.0, 1.0, 34.9, 45.0)">
    <path d="M21.65 14.25 L16.45 13.95 17.5 8.5 22.75 9.85 Q28.35 11.75 30.15 14.35 31.55 16.4 33.1 23.45 34.25 28.75 34.9 33.7 35.05 34.75 34.1 35.5 33.25 36.15 31.95 36.15 28.7 36.05 28.7 32.25 L28.7 23.2 Q28.6 17.4 28.05 15.35 26.5 14.6 21.65 14.25 M27.05 1.65 Q26.05 -1.55 25.5 -5.0 24.75 -5.2 20.15 -2.55 L15.1 0.5 13.3 -3.1 18.15 -5.85 Q23.55 -8.5 26.2 -8.1 28.05 -7.75 30.25 -2.85 33.0 3.3 33.55 3.95 35.15 5.95 33.9 7.75 32.65 9.5 30.35 7.7 28.55 6.3 27.05 1.65 M-17.45 8.5 L-16.45 13.95 -21.65 14.25 Q-26.4 14.6 -28.0 15.35 -28.6 17.4 -28.7 23.2 L-28.7 32.25 Q-28.7 36.05 -31.9 36.15 -33.2 36.15 -34.1 35.5 -35.0 34.75 -34.9 33.7 L-33.05 23.45 Q-31.5 16.4 -30.15 14.35 -28.35 11.75 -22.75 9.85 -19.9 8.95 -17.45 8.5 M-18.1 -5.85 L-13.25 -3.1 -15.1 0.5 -20.1 -2.55 Q-24.7 -5.2 -25.45 -5.0 -26.05 -1.5 -27.05 1.65 -28.5 6.3 -30.25 7.7 -32.6 9.5 -33.9 7.75 -35.1 5.95 -33.5 3.95 -33.0 3.3 -30.2 -2.85 -27.95 -7.75 -26.15 -8.1 -23.5 -8.5 -18.1 -5.85 M-13.55 -14.45 Q-10.95 -13.35 -8.75 -12.6 L-11.6 -9.0 -16.6 -12.5 -22.7 -16.8 Q-23.75 -17.6 -24.95 -22.45 -26.15 -27.55 -27.5 -29.0 -29.25 -30.85 -29.25 -32.4 -29.25 -33.75 -28.05 -34.2 L-25.3 -33.95 Q-23.65 -33.1 -22.7 -31.05 -21.5 -28.6 -20.95 -24.6 L-20.4 -18.65 Q-18.65 -16.7 -13.55 -14.45 M29.35 -32.4 Q29.35 -30.9 27.6 -29.0 26.2 -27.55 24.95 -22.45 23.8 -17.6 22.75 -16.8 L16.65 -12.5 11.65 -9.0 8.8 -12.6 13.55 -14.45 Q18.7 -16.7 20.45 -18.65 L21.0 -24.6 Q21.6 -28.6 22.75 -31.05 23.7 -33.1 25.4 -33.95 26.85 -34.7 28.1 -34.2 29.35 -33.75 29.35 -32.4" fill="#231f20" fill-rule="evenodd" stroke="none"/>
    <path d="M14.5 13.25 L21.55 15.7 Q22.2 28.75 18.0 36.35 12.95 45.45 1.4 45.0 -9.9 44.75 -15.3 35.8 -19.85 28.35 -20.0 15.7 -13.15 11.4 -3.25 10.95 5.5 10.6 14.5 13.25" fill="#eaaa00" fill-rule="evenodd" stroke="none"/>
    <path d="M-11.65 12.45 Q-1.75 9.4 4.25 12.05 9.4 14.35 10.55 20.0 11.55 25.25 8.8 30.3 5.9 35.55 0.7 36.9 -4.25 38.2 -8.0 34.9 -11.25 32.05 -12.95 26.7 -14.5 21.9 -14.15 17.5 -13.75 13.1 -11.65 12.45" fill="#ffe712" fill-rule="evenodd" stroke="none"/>
    <path d="M-8.9 14.9 Q-6.5 13.8 -4.9 14.35 -3.45 14.9 -3.05 16.5 -2.7 18.0 -3.5 19.35 -4.35 20.9 -6.15 21.15 -9.85 21.8 -10.9 19.05 -11.9 16.35 -8.9 14.9" fill="#fdfdfd" fill-rule="evenodd" stroke="none"/>
    <path d="M-13.05 -17.8 Q-10.1 -20.45 -0.85 -20.45 9.05 -20.45 12.45 -16.55 15.3 -13.25 18.1 -4.05 21.05 5.9 21.55 15.7 L14.5 13.25 Q5.5 10.6 -3.25 10.95 -13.15 11.4 -20.0 15.7 -20.2 5.2 -17.55 -6.0 -15.2 -15.9 -13.05 -17.8" fill="#402c1d" fill-rule="evenodd" stroke="none"/>
    <path d="M2.95 7.35 L-10.3 7.05 Q-14.85 7.05 -13.8 4.2 -12.8 1.4 -9.25 0.55 3.1 -2.55 11.2 1.2 14.2 2.6 15.0 4.3 15.75 6.05 13.8 6.75 L2.95 7.35" fill="#77513a" fill-rule="evenodd" stroke="none"/>
    <path d="M-8.55 -9.6 Q0.3 -12.25 6.1 -9.05 8.25 -7.85 8.85 -6.4 9.4 -4.95 8.0 -4.35 L0.2 -3.85 -9.3 -4.1 Q-12.55 -4.1 -11.8 -6.55 -11.05 -8.85 -8.55 -9.6" fill="#77513a" fill-rule="evenodd" stroke="none"/>
    <path d="M8.35 -29.55 Q9.65 -26.7 10.1 -23.2 10.35 -21.2 6.8 -20.0 3.65 -18.85 -0.9 -18.9 -5.6 -18.95 -8.55 -20.25 -12.0 -21.7 -11.65 -24.2 -11.15 -27.65 -9.75 -30.2 L-10.1 -30.9 Q-10.75 -32.4 -10.55 -37.4 -10.35 -42.55 -9.4 -43.9 -8.35 -45.4 -6.75 -44.85 -5.15 -44.3 -6.35 -42.7 -7.7 -41.05 -7.75 -32.95 -4.6 -36.3 -0.4 -36.15 3.8 -36.05 6.75 -32.25 6.1 -40.9 4.6 -42.65 3.25 -44.1 4.8 -44.8 6.35 -45.45 7.5 -44.0 8.55 -42.7 9.15 -37.55 9.7 -32.6 9.15 -31.1 8.85 -30.1 8.35 -29.55" fill="#231f20" fill-rule="evenodd" stroke="none"/>
    <path d="M-4.45 -35.2 L-0.3 -35.35 Q1.1 -34.8 1.2 -33.45 1.3 -32.15 0.05 -31.05 -1.35 -29.85 -3.75 -29.65 -8.35 -29.2 -7.7 -31.9 -7.05 -34.45 -4.45 -35.2" fill="#7b6366" fill-rule="evenodd" stroke="none"/>
    <path d="M8.75 -23.8 Q12.45 -21.0 11.75 -17.6 7.7 -18.8 -0.45 -18.9 L-12.35 -18.25 Q-12.6 -23.5 -8.6 -25.8 -5.15 -27.85 0.2 -27.1 5.3 -26.45 8.75 -23.8" fill="#53020f" fill-rule="evenodd" stroke="none"/>
    <path d="M-4.8 -26.65 Q-1.9 -27.7 0.1 -27.1 1.9 -26.55 2.15 -25.1 2.4 -23.6 0.9 -22.3 -0.85 -20.85 -4.1 -20.4 L-7.45 -20.7 Q-9.0 -21.15 -9.6 -22.1 -11.0 -24.45 -4.8 -26.65" fill="#ab0015" fill-rule="evenodd" stroke="none"/>
  </g>
</svg>
