<?xml version="1.0" encoding="UTF-8" standalone="no"?>
<svg xmlns:ffdec="https://www.free-decompiler.com/flash" xmlns:xlink="http://www.w3.org/1999/xlink" ffdec:objectType="shape" height="75.4px" width="27.1px" xmlns="http://www.w3.org/2000/svg">
  <g transform="matrix(1.0, 0.0, 0.0, 1.0, 13.55, 37.7)">
    <path d="M-13.45 -36.0 Q-12.9 -37.8 -7.0 -37.7 -1.3 -37.65 0.1 -36.5 5.4 -32.15 9.65 -19.2 14.5 -4.2 13.35 11.25 12.2 26.2 2.15 34.15 -1.6 37.15 -4.9 37.65 -8.1 38.05 -8.5 35.85 -9.25 30.95 -11.6 -1.25 -14.0 -34.25 -13.45 -36.0 M-9.25 -23.45 L-9.0 -6.0 Q-7.9 16.25 -0.75 10.95 3.4 7.9 4.2 -0.4 4.95 -7.75 2.95 -16.6 1.05 -25.2 -2.4 -30.55 -6.05 -36.25 -9.7 -35.0 -9.25 -33.0 -9.25 -23.45" fill="#2c273b" fill-rule="evenodd" stroke="none"/>
    <path d="M-9.25 -23.45 Q-9.25 -33.0 -9.7 -35.0 -6.05 -36.25 -2.4 -30.55 1.05 -25.2 2.95 -16.6 4.95 -7.75 4.2 -0.4 3.4 7.9 -0.75 10.95 -7.9 16.25 -9.0 -6.0 L-9.25 -23.45" fill="#5d4d7b" fill-rule="evenodd" stroke="none"/>
  </g>
</svg>
