<?xml version="1.0" encoding="UTF-8" standalone="no"?>
<svg xmlns:ffdec="https://www.free-decompiler.com/flash" xmlns:xlink="http://www.w3.org/1999/xlink" ffdec:objectType="shape" height="41.35px" width="71.65px" xmlns="http://www.w3.org/2000/svg">
  <g transform="matrix(1.0, 0.0, 0.0, 1.0, 35.85, 20.7)">
    <path d="M21.55 -10.0 Q31.65 1.15 35.8 17.35 L20.2 10.6 13.6 18.9 -0.6 11.25 -12.2 20.6 -19.5 10.6 -35.85 20.65 Q-32.1 3.7 -19.55 -8.95 -7.8 -20.85 2.7 -20.7 11.95 -20.55 21.55 -10.0" fill="#e3efc8" fill-rule="evenodd" stroke="none"/>
    <path d="M27.0 -2.25 Q29.05 0.5 31.3 5.45 34.0 11.45 35.55 17.65 34.05 16.75 32.0 15.8 L28.4 14.25 Q29.1 7.65 27.0 -2.25" fill="#bac698" fill-rule="evenodd" stroke="none"/>
    <path d="M7.3 -16.05 Q9.9 -15.2 12.0 -13.0 14.15 -10.75 14.45 -8.45 14.8 -5.85 12.5 -4.25 7.95 -1.1 3.6 -7.35 1.9 -9.85 1.5 -12.25 1.1 -14.85 2.5 -15.75 4.45 -17.0 7.3 -16.05" fill="#fdfdfd" fill-rule="evenodd" stroke="none"/>
    <path d="M13.6 18.9 L-0.6 11.25 -12.2 20.6 -19.5 10.6 -33.7 19.25 -19.35 8.25 -12.0 18.25 -1.0 9.25 12.65 15.95 19.0 7.95 35.8 17.35 20.2 10.6 13.6 18.9" fill="#bac698" fill-rule="evenodd" stroke="none"/>
  </g>
</svg>
