<?xml version="1.0" encoding="UTF-8" standalone="no"?>
<svg xmlns:ffdec="https://www.free-decompiler.com/flash" xmlns:xlink="http://www.w3.org/1999/xlink" ffdec:objectType="shape" height="18.55px" width="37.15px" xmlns="http://www.w3.org/2000/svg">
  <g transform="matrix(1.0, 0.0, 0.0, 1.0, 18.6, 9.3)">
    <path d="M16.15 8.25 L10.0 7.5 2.1 6.3 Q-1.75 6.05 -6.3 7.05 L-12.8 8.85 -17.0 8.95 Q-18.55 8.15 -18.6 4.75 -18.65 2.3 -14.65 -1.35 -10.5 -5.15 -5.1 -7.35 9.35 -13.2 15.75 -1.7 21.1 7.9 16.15 8.25" fill="#e4ae2b" fill-rule="evenodd" stroke="none"/>
    <path d="M-9.1 -3.7 Q-6.85 -5.0 -5.1 -4.4 -3.5 -3.85 -3.1 -2.15 -2.05 2.25 -8.1 4.65 -13.8 6.95 -13.3 2.65 -12.85 -1.5 -9.1 -3.7" fill="#ffcc40" fill-rule="evenodd" stroke="none"/>
  </g>
</svg>
