<?xml version="1.0" encoding="UTF-8" standalone="no"?>
<svg xmlns:ffdec="https://www.free-decompiler.com/flash" xmlns:xlink="http://www.w3.org/1999/xlink" ffdec:objectType="shape" height="19.2px" width="36.8px" xmlns="http://www.w3.org/2000/svg">
  <g transform="matrix(1.0, 0.0, 0.0, 1.0, 18.4, 9.6)">
    <path d="M3.45 -8.6 Q9.1 -7.1 13.65 -3.85 18.1 -0.7 18.35 1.75 18.7 5.1 17.3 6.1 16.2 6.9 13.1 6.55 L6.45 5.6 -1.95 5.9 Q-4.5 6.4 -9.65 8.05 -14.05 9.5 -15.7 9.6 -20.6 9.9 -16.55 -0.3 -11.6 -12.6 3.45 -8.6" fill="#e4ae2b" fill-rule="evenodd" stroke="none"/>
    <path d="M9.75 -4.9 Q16.9 -1.3 15.05 1.6 13.2 4.5 7.1 2.1 1.5 -0.1 3.3 -3.65 4.0 -5.05 5.75 -5.45 7.65 -5.95 9.75 -4.9" fill="#ffcc40" fill-rule="evenodd" stroke="none"/>
  </g>
</svg>
