<?xml version="1.0" encoding="UTF-8" standalone="no"?>
<svg xmlns:ffdec="https://www.free-decompiler.com/flash" xmlns:xlink="http://www.w3.org/1999/xlink" ffdec:objectType="shape" height="108.65px" width="58.95px" xmlns="http://www.w3.org/2000/svg">
  <g transform="matrix(1.0, 0.0, 0.0, 1.0, 29.45, 54.35)">
    <path d="M-19.9 44.0 Q-25.3 34.65 -24.25 20.15 -23.25 6.35 -17.25 -3.95 -10.8 -14.95 -2.2 -15.05 7.6 -15.15 15.55 -4.5 23.05 5.5 24.9 19.05 26.9 33.3 21.1 42.85 14.4 53.85 -0.8 54.3 -13.7 54.7 -19.9 44.0" fill="#e4ae2b" fill-rule="evenodd" stroke="none"/>
    <path d="M-18.5 6.1 Q-18.55 1.55 -15.0 -2.15 -11.25 -6.0 -5.4 -6.8 4.85 -8.2 11.35 -4.3 17.05 -0.85 17.75 5.05 18.45 10.8 13.9 14.8 8.8 19.25 -0.25 18.65 -9.3 18.05 -14.15 14.25 -18.4 10.95 -18.5 6.1" fill="#ffcc40" fill-rule="evenodd" stroke="none"/>
    <path d="M29.4 -21.4 Q28.55 -13.5 22.1 -8.5 13.4 -1.8 -0.1 -1.25 -15.15 -0.65 -23.9 -9.4 -28.95 -14.45 -29.4 -22.45 -29.8 -29.95 -26.1 -37.5 -22.4 -45.15 -15.9 -49.7 -8.85 -54.7 -0.6 -54.35 7.7 -54.0 15.2 -48.75 22.15 -43.85 26.15 -36.3 30.15 -28.7 29.4 -21.4" fill="#e4ae2b" fill-rule="evenodd" stroke="none"/>
    <path d="M23.8 -15.55 Q20.9 -9.05 13.35 -4.3 6.6 -0.05 -0.45 -0.1 -8.45 -0.2 -15.65 -5.8 -21.8 -10.6 -24.3 -16.6 -26.75 -22.4 -25.05 -27.75 -23.35 -33.25 -17.65 -36.6 -11.5 -40.25 -1.9 -40.55 8.5 -40.85 15.65 -37.05 22.2 -33.55 24.4 -27.6 26.55 -21.75 23.8 -15.55" fill="#ffcc40" fill-rule="evenodd" stroke="none"/>
    <path d="M-22.1 -26.2 Q-18.55 -28.15 -16.3 -24.8 -14.1 -21.4 -17.4 -19.8 -21.9 -17.75 -23.6 -21.1 -24.25 -22.45 -23.9 -23.9 -23.5 -25.45 -22.1 -26.2" fill="#231f20" fill-rule="evenodd" stroke="none"/>
    <path d="M-19.95 -25.8 Q-18.45 -26.45 -17.95 -25.1 -17.45 -23.75 -19.3 -23.45 -21.15 -23.15 -21.25 -24.15 -21.35 -25.15 -19.95 -25.8" fill="#fdfdfd" fill-rule="evenodd" stroke="none"/>
    <path d="M16.85 -26.2 Q20.45 -28.15 22.65 -24.8 23.55 -23.4 23.35 -22.05 23.1 -20.55 21.55 -19.8 17.05 -17.75 15.4 -21.1 14.7 -22.45 15.1 -23.9 15.5 -25.45 16.85 -26.2" fill="#231f20" fill-rule="evenodd" stroke="none"/>
    <path d="M19.0 -25.8 Q20.5 -26.45 21.0 -25.1 21.5 -23.75 19.65 -23.45 17.85 -23.15 17.7 -24.15 17.6 -25.15 19.0 -25.8" fill="#fdfdfd" fill-rule="evenodd" stroke="none"/>
    <path d="M-12.15 -15.9 L-7.45 -21.75 Q-2.3 -27.6 -0.1 -27.6 2.6 -27.6 6.45 -22.05 L9.8 -16.5 5.95 -11.4 Q1.65 -6.25 -0.8 -6.05 -2.75 -6.25 -7.65 -11.1 L-12.15 -15.9" fill="#f59122" fill-rule="evenodd" stroke="none"/>
    <path d="M-8.25 -15.95 L-5.35 -17.65 Q-2.15 -19.35 -0.8 -19.35 1.3 -19.35 5.55 -16.25 L3.3 -14.1 Q0.75 -12.0 -0.8 -12.0 -2.35 -12.0 -5.45 -13.95 L-8.25 -15.95" fill="#ef5c27" fill-rule="evenodd" stroke="none"/>
    <path d="M-0.4 -24.65 Q1.3 -25.05 1.85 -23.5 2.35 -21.9 1.1 -21.45 -0.8 -20.8 -1.55 -22.5 -2.3 -24.2 -0.4 -24.65" fill="#fdfdfd" fill-rule="evenodd" stroke="none"/>
  </g>
</svg>
