<?xml version="1.0" encoding="UTF-8" standalone="no"?>
<svg xmlns:ffdec="https://www.free-decompiler.com/flash" xmlns:xlink="http://www.w3.org/1999/xlink" ffdec:objectType="shape" height="115.65px" width="115.65px" xmlns="http://www.w3.org/2000/svg">
  <g transform="matrix(1.0, 0.0, 0.0, 1.0, 57.8, 87.8)">
    <path d="M22.5 -83.25 Q32.9 -78.85 40.9 -70.85 48.9 -62.85 53.3 -52.45 57.85 -41.7 57.85 -29.95 57.85 -18.2 53.3 -7.45 48.9 2.9 40.9 10.9 32.9 18.9 22.5 23.3 11.75 27.85 0.0 27.85 -11.75 27.85 -22.5 23.3 -32.85 18.9 -40.85 10.9 -48.85 2.9 -53.25 -7.45 -57.8 -18.2 -57.8 -29.95 -57.8 -41.7 -53.25 -52.45 -48.85 -62.85 -40.85 -70.85 -32.85 -78.85 -22.5 -83.25 -11.7 -87.8 0.0 -87.8 11.75 -87.8 22.5 -83.25 M18.5 -73.75 Q9.65 -77.5 0.0 -77.5 -9.65 -77.5 -18.45 -73.75 -27.0 -70.15 -33.55 -63.55 -40.15 -57.0 -43.75 -48.45 -47.5 -39.6 -47.5 -29.95 -47.5 -20.3 -43.75 -11.5 -40.15 -2.95 -33.55 3.6 -27.0 10.2 -18.45 13.8 -9.65 17.55 0.0 17.55 9.65 17.55 18.5 13.8 27.05 10.2 33.6 3.6 40.2 -2.95 43.8 -11.5 47.55 -20.3 47.55 -29.95 47.55 -39.6 43.8 -48.45 40.2 -57.0 33.6 -63.55 27.05 -70.15 18.5 -73.75" fill="#3db44a" fill-rule="evenodd" stroke="none"/>
    <path d="M18.5 -73.75 Q27.05 -70.15 33.6 -63.55 40.2 -57.0 43.8 -48.45 47.55 -39.6 47.55 -29.95 47.55 -20.3 43.8 -11.5 40.2 -2.95 33.6 3.6 27.05 10.2 18.5 13.8 9.65 17.55 0.0 17.55 -9.65 17.55 -18.45 13.8 -27.0 10.2 -33.55 3.6 -40.15 -2.95 -43.75 -11.5 -47.5 -20.3 -47.5 -29.95 -47.5 -39.6 -43.75 -48.45 -40.15 -57.0 -33.55 -63.55 -27.0 -70.15 -18.45 -73.75 -9.65 -77.5 0.0 -77.5 9.65 -77.5 18.5 -73.75" fill="#ffffff" fill-rule="evenodd" stroke="none"/>
  </g>
</svg>
