<?xml version="1.0" encoding="UTF-8" standalone="no"?>
<svg xmlns:ffdec="https://www.free-decompiler.com/flash" xmlns:xlink="http://www.w3.org/1999/xlink" ffdec:objectType="shape" height="127.25px" width="127.25px" xmlns="http://www.w3.org/2000/svg">
  <g transform="matrix(1.0, 0.0, 0.0, 1.0, 63.6, 93.6)">
    <path d="M20.35 -78.1 Q29.75 -74.15 36.95 -66.9 44.2 -59.7 48.2 -50.3 52.3 -40.55 52.3 -29.95 52.3 -19.35 48.2 -9.65 44.2 -0.25 36.95 6.95 29.75 14.2 20.35 18.2 10.6 22.3 0.0 22.3 -10.6 22.3 -20.3 18.2 -29.7 14.2 -36.9 6.95 -44.15 -0.25 -48.1 -9.65 -52.25 -19.35 -52.25 -29.95 -52.25 -40.55 -48.1 -50.3 -44.15 -59.7 -36.9 -66.9 -29.7 -74.15 -20.3 -78.1 -10.6 -82.25 0.0 -82.25 10.6 -82.25 20.35 -78.1" fill="#ffffff" fill-rule="evenodd" stroke="none"/>
    <path d="M58.65 -54.7 Q63.65 -42.85 63.65 -29.95 63.65 -17.0 58.65 -5.2 53.8 6.2 45.0 15.0 36.2 23.8 24.75 28.65 12.9 33.65 0.0 33.65 -12.9 33.65 -24.75 28.65 -36.15 23.8 -44.95 15.0 -53.75 6.2 -58.55 -5.2 -63.6 -17.0 -63.6 -29.95 -63.6 -42.85 -58.55 -54.7 -53.75 -66.15 -44.95 -74.95 -36.15 -83.75 -24.75 -88.55 -12.85 -93.6 0.0 -93.6 12.9 -93.6 24.75 -88.55 36.2 -83.75 45.0 -74.95 53.8 -66.15 58.65 -54.7 M20.35 -78.1 Q10.6 -82.25 0.0 -82.25 -10.6 -82.25 -20.3 -78.1 -29.7 -74.15 -36.9 -66.9 -44.15 -59.7 -48.1 -50.3 -52.25 -40.55 -52.25 -29.95 -52.25 -19.35 -48.1 -9.65 -44.15 -0.25 -36.9 6.95 -29.7 14.2 -20.3 18.2 -10.6 22.3 0.0 22.3 10.6 22.3 20.35 18.2 29.75 14.2 36.95 6.95 44.2 -0.25 48.2 -9.65 52.3 -19.35 52.3 -29.95 52.3 -40.55 48.2 -50.3 44.2 -59.7 36.95 -66.9 29.75 -74.15 20.35 -78.1" fill="#94da9a" fill-rule="evenodd" stroke="none"/>
  </g>
</svg>
