<?xml version="1.0" encoding="UTF-8" standalone="no"?>
<svg xmlns:ffdec="https://www.free-decompiler.com/flash" xmlns:xlink="http://www.w3.org/1999/xlink" ffdec:objectType="shape" height="15.0px" width="50.0px" xmlns="http://www.w3.org/2000/svg">
  <g transform="matrix(1.0, 0.0, 0.0, 1.0, 22.3, -60.9)">
    <path d="M27.7 75.9 L-22.3 75.9 -22.3 60.9 27.7 60.9 27.7 75.9" fill="#000000" fill-rule="evenodd" stroke="none"/>
    <path d="M17.0 63.45 L18.05 63.7 18.6 64.6 17.65 64.75 17.45 64.35 17.0 64.2 Q16.65 64.2 16.45 64.45 16.2 64.7 16.2 65.25 16.2 65.95 16.45 66.15 L17.0 66.45 17.45 66.3 17.7 65.75 18.65 65.95 18.1 66.9 Q17.65 67.2 16.95 67.2 16.15 67.2 15.7 66.75 15.2 66.25 15.2 65.35 15.2 64.45 15.7 63.95 16.15 63.45 17.0 63.45 M26.05 61.7 Q26.5 61.7 26.75 61.95 L26.95 62.45 26.5 63.1 Q26.8 63.15 26.95 63.35 L27.1 63.8 26.8 64.45 26.1 64.75 25.4 64.55 25.1 63.9 25.65 63.85 25.8 64.2 26.1 64.3 26.35 64.15 26.5 63.8 26.35 63.45 26.1 63.3 25.85 63.35 25.9 62.9 26.25 62.8 26.35 62.5 26.3 62.25 26.05 62.15 25.8 62.25 25.65 62.55 25.15 62.45 25.3 62.05 25.6 61.75 26.05 61.7 M24.05 63.6 L24.5 64.05 24.6 64.85 24.6 67.15 23.6 67.15 23.6 65.1 23.55 64.4 23.1 64.2 22.75 64.3 Q22.55 64.4 22.5 64.65 L22.4 65.4 22.4 67.15 21.45 67.15 21.45 65.15 21.4 64.5 21.25 64.25 20.95 64.2 20.55 64.3 Q20.35 64.4 20.3 64.65 L20.2 65.4 20.2 67.15 19.25 67.15 19.25 63.5 20.15 63.5 20.15 64.0 Q20.6 63.45 21.25 63.45 L21.85 63.6 22.3 64.0 Q22.5 63.7 22.8 63.6 L23.4 63.45 24.05 63.6" fill="#ffffff" fill-rule="evenodd" stroke="none"/>
  </g>
</svg>
