<?xml version="1.0" encoding="UTF-8" standalone="no"?>
<svg xmlns:ffdec="https://www.free-decompiler.com/flash" xmlns:xlink="http://www.w3.org/1999/xlink" ffdec:objectType="shape" height="242.05px" width="243.8px" xmlns="http://www.w3.org/2000/svg">
  <g transform="matrix(1.0, 0.0, 0.0, 1.0, 121.9, 121.05)">
    <path d="M115.55 -95.6 Q118.8 -86.25 120.4 -69.3 121.45 -58.55 121.8 -39.1 122.1 -20.35 121.65 -4.1 120.8 26.9 118.45 56.9 115.3 97.4 111.2 105.6 108.7 110.6 101.45 113.6 94.3 116.65 80.75 118.45 L53.0 120.35 Q36.3 121.0 20.05 121.0 -15.6 121.0 -50.9 118.05 -91.05 114.65 -101.6 109.4 -106.8 106.8 -110.45 100.15 -114.15 93.5 -116.65 82.2 -119.85 67.5 -121.25 32.95 -122.5 0.1 -121.35 -27.5 -120.25 -52.7 -118.25 -70.55 -115.1 -98.85 -110.1 -105.15 -107.0 -109.0 -100.2 -111.7 -90.65 -115.45 -72.3 -117.8 L-38.75 -120.2 Q-18.95 -121.05 -0.9 -121.05 31.85 -121.05 58.7 -118.6 100.7 -114.75 109.6 -105.85 113.2 -102.25 115.55 -95.6" fill="#000000" fill-rule="evenodd" stroke="none"/>
    <path d="M111.95 -65.75 Q114.05 -39.65 113.15 -1.25 112.35 33.7 109.6 63.25 106.75 93.25 103.6 99.55 100.6 105.55 71.75 108.3 46.35 110.75 8.25 110.2 -27.85 109.65 -57.95 106.75 -89.55 103.7 -97.8 99.55 -105.75 95.6 -109.85 65.25 -113.35 39.05 -113.35 -0.2 -113.35 -36.3 -110.55 -66.2 -107.65 -96.85 -103.45 -102.05 -98.65 -108.05 -67.8 -111.55 -39.75 -114.75 -1.25 -114.75 37.25 -114.75 65.95 -111.6 97.55 -108.1 103.6 -102.05 109.55 -96.1 111.95 -65.75" fill="#ffffff" fill-rule="evenodd" stroke="none"/>
  </g>
</svg>
