<?xml version="1.0" encoding="UTF-8" standalone="no"?>
<svg xmlns:ffdec="https://www.free-decompiler.com/flash" xmlns:xlink="http://www.w3.org/1999/xlink" ffdec:objectType="shape" height="27.6px" width="30.0px" xmlns="http://www.w3.org/2000/svg">
  <g transform="matrix(1.0, 0.0, 0.0, 1.0, 15.0, 13.8)">
    <path d="M-12.5 -7.55 L-12.7 -0.95 Q-12.7 3.15 -12.35 6.15 L-11.6 9.5 -5.75 10.4 4.0 10.85 10.15 10.45 Q10.65 9.6 11.15 7.1 L12.2 -0.2 12.55 -6.85 12.4 -10.75 6.55 -11.65 -3.2 -12.1 -11.95 -11.4 -12.5 -7.55 M0.25 -13.75 L9.5 -13.05 Q13.8 -12.5 14.3 -11.75 15.55 -10.15 14.5 0.85 13.45 12.05 11.4 13.05 L-0.75 13.65 Q-10.65 13.2 -12.9 12.1 -14.9 11.05 -15.0 0.3 -15.15 -10.1 -13.85 -12.25 -12.75 -14.15 0.25 -13.75" fill="#9d1e3d" fill-rule="evenodd" stroke="none"/>
    <path d="M-12.5 -7.55 L-11.95 -11.4 -3.2 -12.1 6.55 -11.65 12.4 -10.75 12.55 -6.85 12.2 -0.2 11.15 7.1 Q10.65 9.6 10.15 10.45 L4.0 10.85 -5.75 10.4 -11.6 9.5 -12.35 6.15 Q-12.7 3.15 -12.7 -0.95 L-12.5 -7.55" fill="#ff4a66" fill-rule="evenodd" stroke="none"/>
    <path d="M-4.8 -2.9 Q-5.9 -1.2 -5.85 -0.05 -5.8 1.8 -4.75 3.15 -3.35 4.95 -0.4 5.35 2.05 5.7 4.15 3.8 6.0 2.15 6.2 0.45 6.35 -0.85 5.6 -2.35 L4.35 -4.5 Q3.8 -5.35 4.35 -6.85 4.9 -8.35 5.9 -8.4 7.15 -8.45 8.85 -5.8 10.7 -2.75 10.3 0.5 9.8 4.1 6.5 6.85 3.25 9.5 -0.2 9.4 -4.0 9.25 -7.35 6.05 -10.6 2.95 -10.5 -0.15 -10.35 -2.95 -9.0 -5.6 -7.75 -8.0 -6.4 -8.65 -5.25 -9.15 -3.95 -7.5 -2.7 -5.9 -3.2 -5.1 L-4.8 -2.9 M-1.2 -10.8 L0.45 -11.05 2.15 -10.75 Q3.4 -10.15 3.2 -6.6 2.95 -3.1 1.65 -2.5 0.9 -2.15 0.1 -2.15 L-1.7 -2.55 Q-2.35 -2.9 -2.1 -6.65 -1.9 -10.5 -1.2 -10.8" fill="#ffffff" fill-rule="evenodd" stroke="none"/>
  </g>
</svg>
