<?xml version="1.0" encoding="UTF-8" standalone="no"?>
<svg xmlns:ffdec="https://www.free-decompiler.com/flash" xmlns:xlink="http://www.w3.org/1999/xlink" ffdec:objectType="shape" height="32.2px" width="35.0px" xmlns="http://www.w3.org/2000/svg">
  <g transform="matrix(1.0, 0.0, 0.0, 1.0, 17.5, 16.1)">
    <path d="M-14.55 -8.8 Q-14.85 -5.2 -14.8 -1.15 -14.8 3.7 -14.35 7.2 -14.0 10.05 -13.5 11.1 L-6.65 12.15 4.65 12.7 11.9 12.2 Q12.45 11.2 13.05 8.3 L14.3 -0.25 14.7 -7.95 14.5 -12.55 7.7 -13.6 -3.7 -14.1 -13.95 -13.25 -14.55 -8.8 M0.35 -16.0 L11.1 -15.2 Q16.1 -14.55 16.7 -13.75 18.15 -11.8 16.95 1.0 15.7 14.05 13.35 15.2 10.85 16.5 -0.85 15.95 -12.4 15.4 -15.0 14.1 -17.35 12.9 -17.5 0.35 -17.65 -11.8 -16.15 -14.3 -14.85 -16.5 0.35 -16.0" fill="#9d1e3d" fill-rule="evenodd" stroke="none"/>
    <path d="M-14.55 -8.8 L-13.95 -13.25 -3.7 -14.1 7.7 -13.6 14.5 -12.55 14.7 -7.95 14.3 -0.25 13.05 8.3 Q12.45 11.2 11.9 12.2 L4.65 12.7 -6.65 12.15 -13.5 11.1 Q-14.0 10.05 -14.35 7.2 -14.8 3.7 -14.8 -1.15 -14.85 -5.2 -14.55 -8.8" fill="#ff4a66" fill-rule="evenodd" stroke="none"/>
    <path d="M-7.45 -10.05 Q-6.1 -10.7 -4.6 -8.75 -3.15 -6.85 -3.75 -5.95 L-5.55 -3.4 Q-6.85 -1.4 -6.8 -0.05 -6.75 2.1 -5.5 3.7 -3.85 5.8 -0.45 6.25 2.4 6.65 4.9 4.45 7.0 2.55 7.25 0.5 7.45 -0.95 6.6 -2.75 L5.1 -5.25 Q4.45 -6.2 5.1 -7.95 5.75 -9.75 6.9 -9.8 8.4 -9.85 10.35 -6.75 12.5 -3.2 12.0 0.6 11.45 4.8 7.6 8.0 3.85 11.1 -0.2 11.0 -4.65 10.8 -8.55 7.05 -12.35 3.45 -12.2 -0.15 -12.05 -3.4 -10.5 -6.5 -9.0 -9.35 -7.45 -10.05 M-1.4 -12.6 L0.55 -12.9 2.5 -12.55 Q4.0 -11.8 3.75 -7.7 3.45 -3.6 1.95 -2.9 1.1 -2.5 0.1 -2.5 -1.05 -2.5 -2.0 -3.0 -2.7 -3.35 -2.4 -7.75 -2.2 -12.25 -1.4 -12.6" fill="#ffffff" fill-rule="evenodd" stroke="none"/>
  </g>
</svg>
