<?xml version="1.0" encoding="UTF-8" standalone="no"?>
<svg xmlns:ffdec="https://www.free-decompiler.com/flash" xmlns:xlink="http://www.w3.org/1999/xlink" ffdec:objectType="shape" height="24.8px" width="27.0px" xmlns="http://www.w3.org/2000/svg">
  <g transform="matrix(1.0, 0.0, 0.0, 1.0, 13.5, 12.4)">
    <path d="M-11.2 -6.8 L-11.45 -0.85 -11.1 5.55 Q-10.8 7.75 -10.4 8.55 L-5.15 9.35 3.6 9.8 9.15 9.4 Q9.6 8.65 10.05 6.4 L11.0 -0.2 11.35 -6.15 11.2 -9.7 5.9 -10.5 -2.85 -10.9 -10.75 -10.25 -11.2 -6.8 M0.25 -12.35 L8.55 -11.75 Q12.45 -11.2 12.9 -10.6 14.0 -9.1 13.05 0.75 12.1 10.85 10.3 11.75 L-0.65 12.3 Q-9.55 11.9 -11.6 10.85 -13.4 9.95 -13.5 0.25 -13.6 -9.1 -12.45 -11.0 -11.45 -12.7 0.25 -12.35" fill="#9d1e3d" fill-rule="evenodd" stroke="none"/>
    <path d="M-11.2 -6.8 L-10.75 -10.25 -2.85 -10.9 5.9 -10.5 11.2 -9.7 11.35 -6.15 11.0 -0.2 10.05 6.4 Q9.6 8.65 9.15 9.4 L3.6 9.8 -5.15 9.35 -10.4 8.55 Q-10.8 7.75 -11.1 5.55 L-11.45 -0.85 -11.2 -6.8" fill="#ff4a66" fill-rule="evenodd" stroke="none"/>
    <path d="M-5.75 -7.75 Q-4.7 -8.25 -3.55 -6.75 -2.4 -5.3 -2.9 -4.6 L-4.3 -2.6 Q-5.3 -1.1 -5.25 -0.05 -5.2 1.6 -4.25 2.85 -3.0 4.45 -0.35 4.8 1.85 5.1 3.75 3.45 5.4 1.95 5.6 0.4 5.75 -0.75 5.1 -2.1 L3.9 -4.05 Q3.45 -4.8 3.95 -6.15 4.45 -7.5 5.35 -7.55 6.45 -7.6 7.95 -5.2 9.65 -2.45 9.25 0.45 8.85 3.7 5.9 6.15 2.95 8.6 -0.15 8.45 -3.6 8.35 -6.6 5.45 -9.5 2.65 -9.4 -0.1 -9.3 -2.65 -8.1 -5.05 -6.95 -7.2 -5.75 -7.75 M-1.05 -9.7 L0.4 -9.95 1.95 -9.65 Q3.1 -9.1 2.9 -5.95 2.7 -2.8 1.5 -2.25 L0.1 -1.95 -1.55 -2.3 Q-2.1 -2.6 -1.85 -6.0 -1.7 -9.45 -1.05 -9.7" fill="#ffffff" fill-rule="evenodd" stroke="none"/>
  </g>
</svg>
