<?xml version="1.0" encoding="UTF-8" standalone="no"?>
<svg xmlns:ffdec="https://www.free-decompiler.com/flash" xmlns:xlink="http://www.w3.org/1999/xlink" ffdec:objectType="shape" height="480.0px" width="640.0px" xmlns="http://www.w3.org/2000/svg">
  <g transform="matrix(1.0, 0.0, 0.0, 1.0, 320.0, 240.0)">
    <path d="M320.0 -240.0 L320.0 240.0 -320.0 240.0 -320.0 -240.0 320.0 -240.0" fill="url(#gradient0)" fill-rule="evenodd" stroke="none"/>
    <path d="M-47.6 2.15 L-290.65 150.75 -20.6 7.0 -269.55 -203.4 -47.6 2.15 M-320.0 -186.75 L-320.0 -233.1 -80.05 -2.45 -142.05 34.95 -320.0 -186.75 M171.25 240.0 L125.1 240.0 -11.05 221.9 61.95 138.05 171.25 240.0 M124.95 -108.55 L85.95 -133.85 233.55 -240.0 265.45 -240.0 124.95 -108.55 M105.1 -240.0 L230.8 -240.0 80.0 -134.3 320.0 24.55 320.0 44.8 57.45 -135.25 174.45 -207.95 48.45 -135.25 320.0 46.15 320.0 240.0 268.05 240.0 64.9 77.0 -35.55 189.15 64.9 98.2 225.95 240.0 177.15 240.0 61.9 132.8 -10.1 214.7 -320.0 200.7 -320.0 142.35 -74.95 -1.55 -320.0 -236.3 -320.0 -240.0 -79.85 -240.0 -8.6 -192.85 105.1 -240.0" fill="#ffffff" fill-opacity="0.5019608" fill-rule="evenodd" stroke="none"/>
  </g>
  <defs>
    <linearGradient gradientTransform="matrix(0.0, -0.2929, -4.8067, 0.0, 4931.3, 0.05)" gradientUnits="userSpaceOnUse" id="gradient0" spreadMethod="pad" x1="-819.2" x2="819.2">
      <stop offset="0.0" stop-color="#ffffff"/>
      <stop offset="1.0" stop-color="#f0ada2"/>
    </linearGradient>
  </defs>
</svg>
