<?xml version="1.0" encoding="UTF-8" standalone="no"?>
<svg xmlns:ffdec="https://www.free-decompiler.com/flash" xmlns:xlink="http://www.w3.org/1999/xlink" ffdec:objectType="shape" height="67.85px" width="80.0px" xmlns="http://www.w3.org/2000/svg">
  <g transform="matrix(1.0, 0.0, 0.0, 1.0, 40.0, 67.85)">
    <path d="M-37.8 -21.05 Q-37.75 -25.6 -36.25 -30.85 L-34.25 -36.3 Q-35.5 -32.9 -35.95 -30.6 -38.1 -19.45 -35.1 -13.0 -34.05 -10.85 -32.4 -9.8 -30.7 -8.75 -28.65 -9.0 L-27.25 -7.4 Q-29.8 -6.8 -32.0 -7.8 -34.25 -8.85 -35.65 -11.4 -37.8 -15.5 -37.8 -21.05 M29.2 -64.5 Q31.75 -60.75 32.8 -53.4 33.35 -49.85 32.6 -46.7 31.95 -43.75 30.0 -40.75 29.2 -39.6 26.1 -36.9 23.55 -34.65 22.85 -32.6 22.55 -31.75 22.95 -29.9 L23.65 -27.05 23.7 -26.9 Q22.8 -26.65 22.95 -26.15 23.15 -25.65 24.2 -25.65 L31.25 -25.85 Q35.45 -25.65 36.8 -23.05 L32.75 -23.9 28.45 -23.55 20.3 -20.8 Q19.65 -20.5 17.7 -25.25 L15.75 -30.35 Q15.1 -29.15 16.2 -25.65 9.8 -22.65 6.35 -19.45 L2.6 -15.9 Q0.45 -14.1 -1.75 -13.6 L-1.9 -16.2 -2.1 -18.85 Q-2.15 -19.75 -2.55 -19.75 -2.95 -19.75 -2.9 -18.85 -2.6 -12.8 -4.45 -8.6 L-5.85 -5.7 Q-7.3 -5.1 -8.4 -5.0 -9.2 -4.95 -9.2 -4.1 -9.2 -3.25 -8.4 -3.3 -7.25 -3.4 -3.3 -4.65 L3.65 -6.6 Q12.35 -8.45 12.75 -3.15 L7.7 -3.8 2.8 -3.4 Q-3.1 -1.75 -10.2 -2.15 L-9.95 -2.45 -14.8 -3.0 -19.85 -4.55 Q-24.55 -5.8 -27.45 -9.05 -30.4 -12.3 -31.4 -17.5 -32.3 -21.9 -31.45 -26.85 -30.6 -31.45 -28.45 -35.6 -25.85 -40.55 -21.1 -43.4 -16.95 -45.9 -11.3 -46.7 L-2.6 -47.35 Q2.75 -47.7 5.95 -48.9 L6.0 -48.9 Q7.8 -47.95 10.3 -48.15 L13.0 -48.55 14.9 -49.2 16.75 -50.0 Q17.25 -50.35 16.5 -51.05 14.35 -49.6 10.75 -49.65 5.6 -49.75 4.4 -54.75 3.7 -57.6 5.35 -60.35 7.05 -63.15 9.65 -63.25 12.15 -63.3 14.95 -61.5 17.55 -59.8 18.95 -57.55 19.6 -56.5 20.25 -56.8 20.9 -57.15 20.2 -58.2 L20.05 -58.5 27.85 -64.85 28.6 -65.3 29.2 -64.5" fill="#ffffff" fill-rule="evenodd" stroke="none"/>
    <path d="M-34.25 -36.3 L-36.25 -30.85 Q-37.75 -25.6 -37.8 -21.05 -37.8 -15.5 -35.65 -11.4 -34.25 -8.85 -32.0 -7.8 -29.8 -6.8 -27.25 -7.4 L-28.65 -9.0 Q-30.7 -8.75 -32.4 -9.8 -34.05 -10.85 -35.1 -13.0 -38.1 -19.45 -35.95 -30.6 -35.5 -32.9 -34.25 -36.3 M25.15 -58.65 Q26.0 -58.65 26.55 -58.05 27.15 -57.45 27.15 -56.65 27.15 -55.85 26.55 -55.25 26.0 -54.7 25.15 -54.7 24.35 -54.7 23.75 -55.25 23.2 -55.85 23.2 -56.65 23.2 -57.5 23.75 -58.05 24.35 -58.65 25.15 -58.65 M32.6 -46.7 Q33.35 -49.85 32.8 -53.4 31.75 -60.75 29.2 -64.5 L28.6 -65.3 27.85 -64.85 20.05 -58.5 20.2 -58.2 Q20.9 -57.15 20.25 -56.8 19.6 -56.5 18.95 -57.55 17.55 -59.8 14.95 -61.5 12.15 -63.3 9.65 -63.25 7.05 -63.15 5.35 -60.35 3.7 -57.6 4.4 -54.75 5.6 -49.75 10.75 -49.65 14.35 -49.6 16.5 -51.05 17.25 -50.35 16.75 -50.0 L14.9 -49.2 13.0 -48.55 10.3 -48.15 Q7.8 -47.95 6.0 -48.9 L5.95 -48.9 Q2.75 -47.7 -2.6 -47.35 L-11.3 -46.7 Q-16.95 -45.9 -21.1 -43.4 -25.85 -40.55 -28.45 -35.6 -30.6 -31.45 -31.45 -26.85 -32.3 -21.9 -31.4 -17.5 -30.4 -12.3 -27.45 -9.05 -24.55 -5.8 -19.85 -4.55 L-14.8 -3.0 -9.95 -2.45 -10.2 -2.15 Q-3.1 -1.75 2.8 -3.4 L7.7 -3.8 12.75 -3.15 Q12.35 -8.45 3.65 -6.6 L-3.3 -4.65 Q-7.25 -3.4 -8.4 -3.3 -9.2 -3.25 -9.2 -4.1 -9.2 -4.95 -8.4 -5.0 -7.3 -5.1 -5.85 -5.7 L-4.45 -8.6 Q-2.6 -12.8 -2.9 -18.85 -2.95 -19.75 -2.55 -19.75 -2.15 -19.75 -2.1 -18.85 L-1.9 -16.2 -1.75 -13.6 Q0.45 -14.1 2.6 -15.9 L6.35 -19.45 Q9.8 -22.65 16.2 -25.65 15.1 -29.15 15.75 -30.35 L17.7 -25.25 Q19.65 -20.5 20.3 -20.8 L28.45 -23.55 32.75 -23.9 36.8 -23.05 Q35.45 -25.65 31.25 -25.85 L24.2 -25.65 Q23.15 -25.65 22.95 -26.15 22.8 -26.65 23.7 -26.9 L23.65 -27.05 22.95 -29.9 Q22.55 -31.75 22.85 -32.6 23.55 -34.65 26.1 -36.9 29.2 -39.6 30.0 -40.75 31.95 -43.75 32.6 -46.7 M34.8 -56.3 L34.8 -56.25 37.1 -56.5 Q38.4 -56.4 39.2 -55.75 40.15 -55.0 39.95 -54.6 39.75 -54.3 38.8 -55.0 38.15 -55.55 37.05 -55.3 35.7 -55.05 35.2 -53.6 L35.25 -53.35 Q35.75 -49.05 34.75 -45.3 33.8 -41.9 31.25 -38.2 30.55 -37.2 28.6 -35.75 L25.9 -33.4 27.25 -32.8 30.2 -34.5 Q33.45 -36.2 35.2 -36.0 37.1 -35.75 36.85 -35.3 36.7 -35.1 35.0 -34.3 33.6 -33.6 30.75 -30.95 L28.2 -28.45 26.3 -27.85 26.3 -27.45 26.25 -27.2 26.35 -27.05 30.2 -27.6 33.95 -27.35 Q35.8 -26.7 36.55 -26.0 37.4 -25.2 38.6 -22.75 38.95 -21.95 38.45 -21.4 37.95 -20.75 37.3 -21.2 33.45 -23.8 29.2 -22.5 26.55 -21.75 19.75 -17.5 18.3 -20.15 17.15 -23.1 L12.35 -20.9 Q9.75 -19.6 7.9 -18.25 8.3 -15.85 6.95 -12.75 5.7 -9.85 3.9 -8.4 L5.1 -8.5 Q9.7 -9.05 12.2 -7.35 L15.65 -7.4 Q17.9 -7.15 18.9 -6.05 20.25 -4.65 19.95 -3.4 L19.5 -2.45 14.45 -2.25 14.45 -2.15 Q14.45 -1.7 14.1 -1.45 L13.4 -1.35 10.3 -1.65 7.2 -2.0 3.85 -1.8 0.55 -1.15 -5.25 -0.5 -12.45 -0.1 -18.75 -0.6 Q-22.85 -1.5 -24.5 -2.25 -26.55 -3.2 -27.8 -5.05 -31.6 -4.5 -34.75 -6.8 -39.95 -10.75 -40.0 -21.0 -40.05 -25.95 -38.25 -32.2 -37.55 -34.65 -35.45 -39.15 -33.1 -44.25 -32.45 -46.05 -30.25 -52.2 -31.4 -56.9 -32.7 -62.15 -38.1 -65.4 -39.0 -65.9 -39.1 -66.65 -39.2 -67.4 -38.25 -67.15 -30.15 -64.95 -28.7 -56.2 -27.55 -48.95 -30.95 -41.1 -33.25 -35.75 -34.3 -31.4 -35.55 -26.15 -35.3 -21.2 -35.15 -18.6 -33.95 -15.65 -32.5 -12.15 -30.55 -11.35 L-31.85 -15.25 Q-33.6 -20.55 -33.7 -24.5 -33.9 -29.85 -31.45 -35.1 -29.45 -39.45 -26.3 -42.6 -23.05 -45.95 -19.0 -47.5 -15.45 -48.9 -9.7 -49.15 L-0.25 -49.55 Q2.1 -49.8 3.6 -51.0 2.25 -52.7 1.9 -54.9 1.5 -57.1 2.25 -59.3 3.3 -62.45 5.4 -64.3 7.8 -66.35 10.6 -65.8 14.9 -65.05 18.5 -60.6 L22.0 -62.8 25.5 -64.95 27.85 -67.4 Q29.1 -68.5 30.4 -67.0 32.75 -64.3 34.05 -59.5 35.0 -60.4 36.3 -60.8 L38.8 -60.9 Q39.9 -60.6 39.85 -59.95 39.8 -59.3 38.65 -59.6 37.6 -59.95 36.5 -59.25 35.15 -58.45 35.1 -56.7 L34.8 -56.3" fill="#030303" fill-rule="evenodd" stroke="none"/>
  </g>
</svg>
