<?xml version="1.0" encoding="UTF-8" standalone="no"?>
<svg xmlns:ffdec="https://www.free-decompiler.com/flash" xmlns:xlink="http://www.w3.org/1999/xlink" ffdec:objectType="shape" height="57.95px" width="50.05px" xmlns="http://www.w3.org/2000/svg">
  <g transform="matrix(1.0, 0.0, 0.0, 1.0, 25.05, 29.0)">
    <path d="M24.95 -25.8 L-7.65 -25.8 -25.05 -25.8 -25.05 -29.0 24.95 -29.0 24.95 -25.8 M-7.65 -0.1 L24.95 -0.1 24.95 1.05 -7.65 1.05 -25.05 1.05 -25.05 -0.1 -7.65 -0.1 M24.95 26.7 L24.95 26.95 25.0 26.95 25.0 28.95 -25.0 28.95 -25.0 27.05 -25.05 27.05 -25.05 26.7 -7.65 26.7 24.95 26.7" fill="#ffffff" fill-rule="evenodd" stroke="none"/>
    <path d="M24.95 -25.8 L24.95 -0.1 -7.65 -0.1 -7.65 -25.8 24.95 -25.8 M24.95 1.05 L24.95 26.7 -7.65 26.7 -7.65 1.05 24.95 1.05" fill="#cccccc" fill-rule="evenodd" stroke="none"/>
    <path d="M-7.65 -25.8 L-7.65 -0.1 -25.05 -0.1 -25.05 -25.8 -7.65 -25.8 M-25.05 26.7 L-25.05 1.05 -7.65 1.05 -7.65 26.7 -25.05 26.7" fill="#969696" fill-rule="evenodd" stroke="none"/>
  </g>
</svg>
