<?xml version="1.0" encoding="UTF-8" standalone="no"?>
<svg xmlns:ffdec="https://www.free-decompiler.com/flash" xmlns:xlink="http://www.w3.org/1999/xlink" ffdec:objectType="shape" height="79.2px" width="80.0px" xmlns="http://www.w3.org/2000/svg">
  <g transform="matrix(1.0, 0.0, 0.0, 1.0, 40.0, 76.2)">
    <path d="M3.65 -52.25 Q3.7 -53.35 2.9 -54.1 2.2 -54.7 1.05 -54.95 L0.7 -54.85 0.55 -54.55 Q0.5 -54.15 0.75 -53.75 L1.25 -53.1 Q1.45 -52.7 1.8 -52.9 2.15 -53.1 1.95 -53.5 L2.6 -53.2 3.25 -52.15 Q3.2 -51.75 3.45 -51.8 3.65 -51.85 3.65 -52.25 M-2.55 -57.5 Q-1.95 -57.45 -1.5 -57.8 -1.0 -58.15 -1.0 -58.7 -0.9 -59.25 -1.3 -59.7 -1.7 -60.15 -2.3 -60.2 L-3.4 -59.9 Q-3.85 -59.55 -3.9 -58.95 L-3.55 -57.95 Q-3.15 -57.5 -2.55 -57.5 M9.4 -43.65 L8.7 -44.6 7.6 -44.9 6.5 -45.25 6.05 -45.2 6.4 -45.0 7.15 -44.45 7.9 -43.95 Q6.95 -42.75 3.9 -43.0 0.15 -43.35 -0.6 -43.05 L-0.9 -42.7 Q-0.8 -42.5 -0.4 -42.55 L5.0 -41.9 Q8.4 -41.6 9.4 -43.65 M6.45 -54.5 Q5.95 -54.05 5.8 -53.25 L5.75 -51.9 Q5.8 -51.5 6.0 -51.65 L6.15 -52.15 Q6.05 -52.6 6.7 -53.1 7.4 -53.6 7.35 -53.35 7.35 -52.95 7.75 -52.95 8.15 -53.0 8.2 -53.35 8.3 -54.2 7.8 -54.65 L7.15 -54.85 6.45 -54.5 M11.15 -56.7 Q11.6 -57.05 11.65 -57.6 11.7 -58.2 11.3 -58.6 10.9 -59.05 10.3 -59.1 9.7 -59.15 9.25 -58.75 8.8 -58.45 8.75 -57.9 8.7 -57.3 9.05 -56.85 9.45 -56.4 10.1 -56.35 10.7 -56.3 11.15 -56.7 M7.75 -64.25 L10.45 -63.7 10.35 -62.6 10.6 -62.2 11.0 -62.2 11.9 -62.8 13.15 -61.4 Q14.9 -58.85 14.0 -55.95 13.15 -53.3 10.4 -51.8 L10.2 -51.45 10.35 -51.1 Q11.4 -49.7 11.4 -47.3 L10.85 -43.35 10.15 -40.4 Q9.55 -38.5 8.7 -37.85 6.7 -36.45 2.75 -36.45 -1.3 -36.5 -3.05 -38.1 -5.1 -40.55 -5.45 -44.65 -5.75 -48.5 -4.55 -51.7 L-4.55 -51.95 -4.75 -52.15 Q-7.95 -53.55 -9.0 -56.15 -10.1 -58.9 -8.15 -61.75 -6.0 -65.05 -2.0 -65.05 1.65 -65.0 4.45 -62.4 6.25 -64.1 7.75 -64.25" fill="#ffffff" fill-rule="evenodd" stroke="none"/>
    <path d="M-19.55 -21.35 Q-16.25 -22.75 -12.6 -21.75 -9.2 -20.8 -6.7 -18.05 -4.75 -15.9 -4.6 -12.1 -4.4 -8.0 -6.7 -6.25 L-6.75 -6.2 Q-10.65 -4.65 -13.25 -4.75 L-16.0 -5.35 Q-17.1 -5.8 -18.65 -6.95 L-21.4 -8.95 Q-25.2 -11.45 -24.45 -15.6 -23.75 -19.65 -19.55 -21.35" fill="#ffffff" fill-rule="evenodd" stroke="none"/>
    <path d="M21.0 -59.85 Q21.3 -58.75 20.8 -57.9 20.35 -57.05 19.4 -56.6 19.05 -59.5 18.1 -61.85 20.45 -62.0 21.0 -59.85" fill="#ffffff" fill-rule="evenodd" stroke="none"/>
    <path d="M-7.8 -4.4 Q-7.0 -3.9 -6.45 -3.4 -5.75 -2.7 -5.25 -1.25 -4.75 0.2 -6.2 -1.1 L-7.9 -2.6 Q-8.85 -3.3 -9.95 -3.5 L-10.4 -3.35 -10.5 -2.95 Q-10.0 -1.55 -10.95 -0.2 L-13.0 1.85 Q-13.5 1.65 -13.15 0.2 -12.6 -1.5 -12.55 -2.15 -12.5 -2.5 -12.9 -2.35 L-13.3 -1.9 Q-13.45 -0.1 -14.05 1.0 -14.8 2.4 -15.35 0.5 L-15.8 -1.35 Q-15.75 -1.7 -16.0 -2.0 -16.25 -2.25 -16.45 -2.0 L-16.7 -1.15 -16.8 -0.3 -16.85 0.55 -16.8 1.45 Q-17.65 1.25 -18.15 0.5 -18.7 -0.25 -18.6 -1.15 L-18.45 -1.85 Q-18.4 -2.25 -18.75 -2.35 -19.15 -2.5 -19.25 -2.1 L-19.55 -0.05 Q-19.75 1.65 -19.45 1.55 -20.05 1.7 -20.4 1.0 L-20.8 -0.25 Q-21.2 -1.85 -20.8 -3.65 -20.3 -5.65 -19.05 -6.4 L-16.0 -5.35 Q-14.65 -4.8 -13.25 -4.75 L-7.8 -4.4" fill="#ffffff" fill-rule="evenodd" stroke="none"/>
    <path d="M31.25 -59.6 L32.45 -58.35 33.8 -57.1 Q35.2 -55.15 36.2 -52.3 L37.7 -47.15 Q39.0 -41.7 38.9 -36.2 38.8 -33.85 38.3 -31.9 37.95 -30.5 37.15 -29.85 36.45 -29.35 34.9 -29.05 30.0 -28.0 22.4 -30.5 20.0 -31.25 16.4 -33.2 L11.65 -35.95 8.75 -28.45 Q6.25 -20.3 8.15 -16.8 8.35 -16.35 8.7 -16.45 L9.3 -17.0 Q10.45 -18.3 12.25 -19.1 14.1 -19.95 15.75 -19.7 17.75 -19.4 19.0 -16.9 20.2 -14.6 19.8 -12.55 19.3 -9.9 16.8 -8.45 14.7 -7.2 11.6 -6.95 L7.0 -7.2 Q6.0 -7.25 5.9 -6.9 5.8 -6.55 6.8 -6.35 L11.75 -5.25 Q14.35 -5.05 16.05 -4.35 L17.8 -3.0 18.3 -2.2 18.65 -1.15 Q18.85 -0.8 18.4 0.2 17.95 1.15 17.9 0.0 17.7 -3.0 14.6 -3.8 L10.6 -4.35 12.55 -2.75 13.75 -1.45 Q14.15 -0.6 14.15 0.45 L14.3 0.8 14.1 0.8 Q13.4 -1.85 12.05 -2.55 9.9 -3.2 7.9 -4.15 L5.75 -4.5 3.1 -4.85 1.3 -5.35 Q0.6 -5.7 0.65 -6.0 L0.7 -6.25 Q3.9 -7.15 6.1 -10.1 6.6 -10.75 6.25 -10.95 5.95 -11.15 5.5 -10.5 4.0 -8.45 1.35 -7.85 L-3.65 -7.55 Q-2.65 -10.0 -3.1 -13.3 -3.5 -16.35 -4.95 -18.45 -7.55 -22.3 -12.35 -23.4 -11.85 -31.0 -13.3 -37.4 L-12.75 -37.6 Q-12.35 -37.7 -12.45 -38.1 -12.55 -38.5 -12.95 -38.4 L-13.0 -38.4 Q-16.15 -37.6 -23.35 -33.85 -29.8 -30.45 -31.45 -29.1 -32.0 -27.0 -31.0 -23.5 L-29.05 -18.1 Q-28.3 -16.0 -28.3 -13.0 -28.3 -12.75 -28.6 -12.25 L-28.65 -11.7 -25.2 -8.4 Q-23.3 -6.5 -22.85 -4.5 -22.45 -2.55 -22.65 -1.75 -22.9 -0.75 -24.3 0.15 L-26.6 1.3 Q-27.65 1.75 -27.45 1.1 -27.25 0.45 -26.25 -0.2 -24.65 -1.2 -24.4 -2.5 -24.2 -3.7 -25.1 -5.35 L-25.35 -5.6 -25.45 -5.35 Q-25.4 -3.3 -26.8 -1.75 -28.2 -0.15 -30.2 0.0 L-28.0 -3.3 Q-27.0 -5.3 -27.65 -7.05 -27.75 -7.35 -27.9 -7.2 L-28.0 -6.65 Q-27.9 -4.6 -28.95 -2.8 -32.45 -0.1 -31.7 -2.25 L-31.55 -2.7 Q-30.6 -3.6 -30.25 -5.15 -29.95 -6.5 -30.05 -7.95 L-30.25 -8.25 -30.35 -7.75 Q-30.15 -5.35 -32.0 -3.45 L-32.25 -3.15 Q-33.05 -2.15 -33.8 -2.3 -34.6 -2.45 -33.95 -3.55 L-32.1 -6.5 Q-31.3 -7.5 -33.25 -8.3 -35.3 -9.15 -35.1 -9.8 L-35.2 -10.45 -35.4 -11.05 Q-37.35 -13.15 -37.95 -21.35 -38.45 -28.4 -37.8 -30.9 -33.6 -34.2 -24.5 -37.75 -17.05 -40.7 -14.4 -41.1 -17.0 -43.9 -18.45 -47.35 -20.1 -51.1 -20.05 -54.85 L-18.0 -55.5 Q-16.95 -55.95 -17.35 -56.45 -17.65 -56.9 -18.65 -56.45 -20.7 -55.5 -23.35 -57.05 -26.1 -58.55 -26.3 -61.0 -26.4 -62.3 -25.3 -63.3 -24.4 -64.15 -23.0 -64.5 L-19.95 -64.55 Q-18.15 -64.25 -17.45 -63.25 -16.85 -62.3 -16.25 -62.55 -15.7 -62.8 -16.3 -63.75 L-17.65 -65.2 Q-15.85 -68.5 -12.9 -70.65 -9.9 -72.9 -6.0 -73.65 2.25 -75.15 8.95 -69.8 L8.15 -68.8 7.45 -67.65 Q7.35 -67.45 7.9 -67.15 8.45 -66.85 8.7 -66.95 10.05 -67.5 11.7 -67.5 L12.5 -66.6 Q11.2 -66.0 10.65 -64.6 L8.75 -65.0 6.9 -64.55 4.65 -62.85 Q4.55 -62.75 3.0 -63.75 L1.3 -64.85 Q-1.25 -66.15 -4.0 -65.5 -6.7 -64.85 -8.55 -62.65 -10.2 -60.75 -10.25 -58.3 -10.3 -55.85 -8.75 -53.85 L-6.4 -52.0 Q-5.65 -51.5 -5.75 -50.7 L-6.15 -49.0 Q-6.6 -44.75 -5.35 -40.75 L-5.1 -40.05 Q-4.6 -38.6 -3.65 -37.5 -1.8 -35.85 1.85 -35.7 4.8 -35.65 7.75 -36.55 10.25 -37.3 11.3 -40.85 11.9 -42.9 12.2 -46.75 12.3 -48.4 11.8 -50.1 L11.4 -51.05 12.0 -51.7 Q14.45 -53.3 15.05 -56.4 15.4 -58.2 14.75 -60.1 14.1 -61.9 12.75 -63.25 13.55 -63.65 14.45 -63.9 L15.35 -62.3 Q17.95 -57.1 17.6 -51.8 17.2 -45.75 12.85 -40.4 12.9 -40.05 16.05 -39.0 19.15 -38.0 21.35 -37.6 L30.85 -37.35 Q31.15 -37.45 29.75 -42.2 L27.55 -49.65 Q26.55 -53.5 26.55 -56.1 L26.4 -56.4 Q25.65 -57.0 25.15 -57.9 L24.3 -59.65 Q23.75 -61.05 21.85 -62.6 20.15 -63.95 18.55 -64.55 L14.75 -64.85 Q13.15 -64.55 11.25 -63.35 11.55 -66.0 14.4 -66.5 16.75 -66.95 19.4 -65.95 L19.8 -65.9 19.6 -66.1 Q13.6 -69.1 9.55 -68.1 L10.05 -68.45 13.15 -68.95 19.55 -68.1 20.05 -68.1 19.75 -68.35 Q16.45 -69.7 13.45 -69.75 L12.05 -69.75 Q14.9 -70.55 20.25 -68.65 23.05 -67.65 24.95 -66.5 27.1 -65.15 28.9 -63.15 L30.15 -61.4 31.25 -59.6" fill="#ffffff" fill-rule="evenodd" stroke="none"/>
    <path d="M11.65 -57.6 Q11.6 -57.05 11.15 -56.7 10.7 -56.3 10.1 -56.35 9.45 -56.4 9.05 -56.85 8.7 -57.3 8.75 -57.9 8.8 -58.45 9.25 -58.75 9.7 -59.15 10.3 -59.1 10.9 -59.05 11.3 -58.6 11.7 -58.2 11.65 -57.6" fill="#030303" fill-rule="evenodd" stroke="none"/>
    <path d="M-2.3 -60.2 Q-1.7 -60.15 -1.3 -59.7 -0.9 -59.25 -1.0 -58.7 -1.0 -58.15 -1.5 -57.8 -1.95 -57.45 -2.55 -57.5 -3.15 -57.5 -3.55 -57.95 L-3.9 -58.95 Q-3.85 -59.55 -3.4 -59.9 L-2.3 -60.2" fill="#030303" fill-rule="evenodd" stroke="none"/>
    <path d="M6.7 -53.1 Q6.05 -52.6 6.15 -52.15 L6.0 -51.65 Q5.8 -51.5 5.75 -51.9 L5.8 -53.25 Q5.95 -54.05 6.45 -54.5 L7.15 -54.85 7.8 -54.65 Q8.3 -54.2 8.2 -53.35 8.15 -53.0 7.75 -52.95 7.35 -52.95 7.35 -53.35 7.4 -53.6 6.7 -53.1" fill="#030303" fill-rule="evenodd" stroke="none"/>
    <path d="M3.25 -52.15 L2.6 -53.2 1.95 -53.5 Q2.15 -53.1 1.8 -52.9 1.45 -52.7 1.25 -53.1 L0.75 -53.75 Q0.5 -54.15 0.55 -54.55 L0.7 -54.85 1.05 -54.95 Q2.2 -54.7 2.9 -54.1 3.7 -53.35 3.65 -52.25 3.65 -51.85 3.45 -51.8 3.2 -51.75 3.25 -52.15" fill="#030303" fill-rule="evenodd" stroke="none"/>
    <path d="M8.7 -44.6 L9.4 -43.65 Q8.4 -41.6 5.0 -41.9 L-0.4 -42.55 Q-0.8 -42.5 -0.9 -42.7 L-0.6 -43.05 Q0.15 -43.35 3.9 -43.0 6.95 -42.75 7.9 -43.95 L7.15 -44.45 6.4 -45.0 6.05 -45.2 6.5 -45.25 7.6 -44.9 8.7 -44.6" fill="#030303" fill-rule="evenodd" stroke="none"/>
    <path d="M-12.6 -21.75 Q-16.25 -22.75 -19.55 -21.35 -23.75 -19.65 -24.45 -15.6 -25.2 -11.45 -21.4 -8.95 L-18.65 -6.95 Q-17.1 -5.8 -16.0 -5.35 L-19.05 -6.4 Q-20.3 -5.65 -20.8 -3.65 -21.2 -1.85 -20.8 -0.25 L-20.4 1.0 Q-20.05 1.7 -19.45 1.55 -19.75 1.65 -19.55 -0.05 L-19.25 -2.1 Q-19.15 -2.5 -18.75 -2.35 -18.4 -2.25 -18.45 -1.85 L-18.6 -1.15 Q-18.7 -0.25 -18.15 0.5 -17.65 1.25 -16.8 1.45 L-16.85 0.55 -16.8 -0.3 -16.7 -1.15 -16.45 -2.0 Q-16.25 -2.25 -16.0 -2.0 -15.75 -1.7 -15.8 -1.35 L-15.35 0.5 Q-14.8 2.4 -14.05 1.0 -13.45 -0.1 -13.3 -1.9 L-12.9 -2.35 Q-12.5 -2.5 -12.55 -2.15 -12.6 -1.5 -13.15 0.2 -13.5 1.65 -13.0 1.85 L-10.95 -0.2 Q-10.0 -1.55 -10.5 -2.95 L-10.4 -3.35 -9.95 -3.5 Q-8.85 -3.3 -7.9 -2.6 L-6.2 -1.1 Q-4.75 0.2 -5.25 -1.25 -5.75 -2.7 -6.45 -3.4 -7.0 -3.9 -7.8 -4.4 L-13.25 -4.75 Q-10.65 -4.65 -6.75 -6.2 L-6.7 -6.25 Q-4.4 -8.0 -4.6 -12.1 -4.75 -15.9 -6.7 -18.05 -9.2 -20.8 -12.6 -21.75 M-29.65 -24.3 L-28.75 -21.4 -27.75 -18.6 Q-26.95 -15.95 -27.2 -14.6 L-27.35 -13.55 -26.85 -12.65 -25.35 -11.1 Q-24.0 -9.65 -22.65 -7.3 L-21.6 -5.25 -21.2 -6.35 -20.45 -7.15 Q-21.95 -7.9 -23.0 -8.8 -23.95 -9.65 -24.9 -11.05 -27.0 -14.3 -25.6 -17.8 -24.3 -21.2 -20.7 -22.7 -17.5 -24.0 -14.0 -23.65 -13.6 -30.9 -14.9 -36.85 L-17.75 -35.4 -20.5 -33.8 -28.5 -29.0 Q-29.75 -28.2 -29.9 -27.0 -30.1 -26.05 -29.65 -24.3 M18.1 -61.85 Q19.05 -59.5 19.4 -56.6 20.35 -57.05 20.8 -57.9 21.3 -58.75 21.0 -59.85 20.45 -62.0 18.1 -61.85 M24.25 -56.15 L23.4 -58.3 Q22.8 -56.45 22.1 -55.65 21.25 -54.7 19.55 -54.2 19.6 -50.3 18.4 -46.95 17.15 -43.3 14.65 -40.9 16.8 -40.1 22.25 -39.35 L28.8 -38.9 26.8 -46.05 Q25.25 -51.8 25.1 -53.3 L24.25 -56.15 M10.45 -63.7 L7.75 -64.25 Q6.25 -64.1 4.45 -62.4 1.65 -65.0 -2.0 -65.05 -6.0 -65.05 -8.15 -61.75 -10.1 -58.9 -9.0 -56.15 -7.95 -53.55 -4.75 -52.15 L-4.55 -51.95 -4.55 -51.7 Q-5.75 -48.5 -5.45 -44.65 -5.1 -40.55 -3.05 -38.1 -1.3 -36.5 2.75 -36.45 6.7 -36.45 8.7 -37.85 9.55 -38.5 10.15 -40.4 L10.85 -43.35 11.4 -47.3 Q11.4 -49.7 10.35 -51.1 L10.2 -51.45 10.4 -51.8 Q13.15 -53.3 14.0 -55.95 14.9 -58.85 13.15 -61.4 L11.9 -62.8 11.0 -62.2 10.6 -62.2 10.35 -62.6 10.45 -63.7 M32.45 -61.0 L33.6 -59.8 34.8 -58.5 Q37.6 -54.25 39.05 -47.7 41.2 -37.95 38.5 -28.1 34.95 -25.6 26.1 -27.4 17.15 -29.25 12.0 -33.8 8.1 -24.75 9.6 -19.4 13.45 -22.3 18.0 -20.45 22.75 -18.55 22.25 -13.35 22.05 -10.7 20.5 -8.75 19.1 -6.95 16.75 -5.9 17.95 -5.45 19.15 -4.35 20.45 -3.2 20.7 -2.25 L20.9 -0.9 20.8 -0.3 20.7 0.05 20.35 0.2 Q20.05 0.2 19.5 -0.15 L19.6 0.6 Q19.6 1.6 18.55 2.15 L17.8 2.4 Q17.05 2.35 16.75 0.95 L16.6 -0.15 16.35 -0.95 Q15.75 -1.95 14.2 -2.7 L15.25 -1.15 15.7 0.6 Q15.7 1.35 15.25 1.75 14.85 2.25 13.95 2.25 L13.7 2.25 13.7 2.15 Q12.45 0.2 11.25 -0.6 L7.15 -2.55 2.9 -3.55 Q2.0 -3.75 0.35 -4.8 L-1.15 -5.8 -2.75 -5.65 -4.6 -5.9 Q-6.25 -4.5 -6.5 -4.5 L-4.45 -2.5 Q-3.5 -1.3 -3.45 0.05 L-3.95 0.9 -4.6 1.45 Q-5.95 1.1 -6.75 0.45 L-8.85 -1.6 Q-8.65 0.0 -10.05 1.4 -11.3 2.6 -12.95 2.95 L-13.4 3.0 -13.65 2.8 -13.75 2.05 Q-14.2 2.4 -14.8 2.4 L-15.95 2.0 Q-16.45 1.75 -16.5 2.0 L-16.7 2.25 -17.05 2.3 Q-17.95 1.95 -18.2 1.9 L-18.75 1.95 Q-18.75 2.25 -19.05 2.35 L-21.1 2.25 Q-21.9 1.85 -22.05 0.45 L-22.65 1.0 -23.7 1.55 Q-24.7 2.15 -26.05 2.45 -27.85 2.85 -28.4 1.95 L-28.65 0.8 Q-29.0 1.05 -30.95 0.8 L-31.3 0.6 -31.3 0.2 Q-31.2 -0.1 -31.55 0.0 L-32.45 0.25 -32.8 0.2 -33.0 -0.15 Q-32.95 -0.45 -33.6 -0.65 L-34.7 -1.0 Q-35.7 -1.6 -35.25 -3.35 L-34.25 -5.75 Q-33.8 -6.55 -34.1 -6.6 L-35.45 -6.95 Q-36.0 -7.2 -36.6 -8.0 -37.25 -8.9 -37.25 -9.55 L-37.7 -11.3 -38.4 -13.2 Q-39.35 -16.0 -39.6 -19.05 L-40.0 -25.15 Q-40.1 -28.8 -39.4 -31.15 -39.2 -31.85 -38.05 -32.8 L-36.3 -34.1 Q-33.65 -36.0 -30.7 -37.35 -24.75 -40.1 -18.85 -41.4 L-17.55 -41.7 Q-20.05 -44.75 -21.25 -47.9 -22.5 -51.1 -22.5 -54.75 -24.25 -55.0 -25.65 -56.0 -27.2 -57.2 -28.0 -58.6 -28.9 -60.3 -28.6 -62.0 -28.0 -65.05 -25.15 -66.25 -22.5 -67.4 -19.65 -66.3 -17.45 -70.4 -13.9 -72.9 -10.2 -75.55 -5.6 -76.05 -0.65 -76.55 3.4 -75.4 7.55 -74.25 11.0 -71.3 14.8 -72.35 20.8 -70.5 26.5 -68.75 28.9 -66.15 30.25 -64.7 32.45 -61.0 M36.2 -52.3 Q35.2 -55.15 33.8 -57.1 L32.45 -58.35 31.25 -59.6 30.15 -61.4 28.9 -63.15 Q27.1 -65.15 24.95 -66.5 23.05 -67.65 20.25 -68.65 14.9 -70.55 12.05 -69.75 L13.45 -69.75 Q16.45 -69.7 19.75 -68.35 L20.05 -68.1 19.55 -68.1 13.15 -68.95 10.05 -68.45 9.55 -68.1 Q13.6 -69.1 19.6 -66.1 L19.8 -65.9 19.4 -65.95 Q16.75 -66.95 14.4 -66.5 11.55 -66.0 11.25 -63.35 13.15 -64.55 14.75 -64.85 L18.55 -64.55 Q20.15 -63.95 21.85 -62.6 23.75 -61.05 24.3 -59.65 L25.15 -57.9 Q25.65 -57.0 26.4 -56.4 L26.55 -56.1 Q26.55 -53.5 27.55 -49.65 L29.75 -42.2 Q31.15 -37.45 30.85 -37.35 L21.35 -37.6 Q19.15 -38.0 16.05 -39.0 12.9 -40.05 12.85 -40.4 17.2 -45.75 17.6 -51.8 17.95 -57.1 15.35 -62.3 L14.45 -63.9 Q13.55 -63.65 12.75 -63.25 14.1 -61.9 14.75 -60.1 15.4 -58.2 15.05 -56.4 14.45 -53.3 12.0 -51.7 L11.4 -51.05 11.8 -50.1 Q12.3 -48.4 12.2 -46.75 11.9 -42.9 11.3 -40.85 10.25 -37.3 7.75 -36.55 4.8 -35.65 1.85 -35.7 -1.8 -35.85 -3.65 -37.5 -4.6 -38.6 -5.1 -40.05 L-5.35 -40.75 Q-6.6 -44.75 -6.15 -49.0 L-5.75 -50.7 Q-5.65 -51.5 -6.4 -52.0 L-8.75 -53.85 Q-10.3 -55.85 -10.25 -58.3 -10.2 -60.75 -8.55 -62.65 -6.7 -64.85 -4.0 -65.5 -1.25 -66.15 1.3 -64.85 L3.0 -63.75 Q4.55 -62.75 4.65 -62.85 L6.9 -64.55 8.75 -65.0 10.65 -64.6 Q11.2 -66.0 12.5 -66.6 L11.7 -67.5 Q10.05 -67.5 8.7 -66.95 8.45 -66.85 7.9 -67.15 7.35 -67.45 7.45 -67.65 L8.15 -68.8 8.95 -69.8 Q2.25 -75.15 -6.0 -73.65 -9.9 -72.9 -12.9 -70.65 -15.85 -68.5 -17.65 -65.2 L-16.3 -63.75 Q-15.7 -62.8 -16.25 -62.55 -16.85 -62.3 -17.45 -63.25 -18.15 -64.25 -19.95 -64.55 L-23.0 -64.5 Q-24.4 -64.15 -25.3 -63.3 -26.4 -62.3 -26.3 -61.0 -26.1 -58.55 -23.35 -57.05 -20.7 -55.5 -18.65 -56.45 -17.65 -56.9 -17.35 -56.45 -16.95 -55.95 -18.0 -55.5 L-20.05 -54.85 Q-20.1 -51.1 -18.45 -47.35 -17.0 -43.9 -14.4 -41.1 -17.05 -40.7 -24.5 -37.75 -33.6 -34.2 -37.8 -30.9 -38.45 -28.4 -37.95 -21.35 -37.35 -13.15 -35.4 -11.05 L-35.2 -10.45 -35.1 -9.8 Q-35.3 -9.15 -33.25 -8.3 -31.3 -7.5 -32.1 -6.5 L-33.95 -3.55 Q-34.6 -2.45 -33.8 -2.3 -33.05 -2.15 -32.25 -3.15 L-32.0 -3.45 Q-30.15 -5.35 -30.35 -7.75 L-30.25 -8.25 -30.05 -7.95 Q-29.95 -6.5 -30.25 -5.15 -30.6 -3.6 -31.55 -2.7 L-31.7 -2.25 Q-32.45 -0.1 -28.95 -2.8 -27.9 -4.6 -28.0 -6.65 L-27.9 -7.2 Q-27.75 -7.35 -27.65 -7.05 -27.0 -5.3 -28.0 -3.3 L-30.2 0.0 Q-28.2 -0.15 -26.8 -1.75 -25.4 -3.3 -25.45 -5.35 L-25.35 -5.6 -25.1 -5.35 Q-24.2 -3.7 -24.4 -2.5 -24.65 -1.2 -26.25 -0.2 -27.25 0.45 -27.45 1.1 -27.65 1.75 -26.6 1.3 L-24.3 0.15 Q-22.9 -0.75 -22.65 -1.75 -22.45 -2.55 -22.85 -4.5 -23.3 -6.5 -25.2 -8.4 L-28.65 -11.7 -28.6 -12.25 Q-28.3 -12.75 -28.3 -13.0 -28.3 -16.0 -29.05 -18.1 L-31.0 -23.5 Q-32.0 -27.0 -31.45 -29.1 -29.8 -30.45 -23.35 -33.85 -16.15 -37.6 -13.0 -38.4 L-12.95 -38.4 Q-12.55 -38.5 -12.45 -38.1 -12.35 -37.7 -12.75 -37.6 L-13.3 -37.4 Q-11.85 -31.0 -12.35 -23.4 -7.55 -22.3 -4.95 -18.45 -3.5 -16.35 -3.1 -13.3 -2.65 -10.0 -3.65 -7.55 L1.35 -7.85 Q4.0 -8.45 5.5 -10.5 5.95 -11.15 6.25 -10.95 6.6 -10.75 6.1 -10.1 3.9 -7.15 0.7 -6.25 L0.65 -6.0 Q0.6 -5.7 1.3 -5.35 L3.1 -4.85 5.75 -4.5 7.9 -4.15 Q9.9 -3.2 12.05 -2.55 13.4 -1.85 14.1 0.8 L14.3 0.8 14.15 0.45 Q14.15 -0.6 13.75 -1.45 L12.55 -2.75 10.6 -4.35 14.6 -3.8 Q17.7 -3.0 17.9 0.0 17.95 1.15 18.4 0.2 18.85 -0.8 18.65 -1.15 L18.3 -2.2 17.8 -3.0 16.05 -4.35 Q14.35 -5.05 11.75 -5.25 L6.8 -6.35 Q5.8 -6.55 5.9 -6.9 6.0 -7.25 7.0 -7.2 L11.6 -6.95 Q14.7 -7.2 16.8 -8.45 19.3 -9.9 19.8 -12.55 20.2 -14.6 19.0 -16.9 17.75 -19.4 15.75 -19.7 14.1 -19.95 12.25 -19.1 10.45 -18.3 9.3 -17.0 L8.7 -16.45 Q8.35 -16.35 8.15 -16.8 6.25 -20.3 8.75 -28.45 L11.65 -35.95 16.4 -33.2 Q20.0 -31.25 22.4 -30.5 30.0 -28.0 34.9 -29.05 36.45 -29.35 37.15 -29.85 37.95 -30.5 38.3 -31.9 38.8 -33.85 38.9 -36.2 39.0 -41.7 37.7 -47.15 L36.2 -52.3" fill="#030303" fill-rule="evenodd" stroke="none"/>
  </g>
</svg>
