<?xml version="1.0" encoding="UTF-8" standalone="no"?>
<svg xmlns:ffdec="https://www.free-decompiler.com/flash" xmlns:xlink="http://www.w3.org/1999/xlink" ffdec:objectType="shape" height="85.0px" width="76.5px" xmlns="http://www.w3.org/2000/svg">
  <g transform="matrix(1.0, 0.0, 0.0, 1.0, 38.25, 85.0)">
    <path d="M14.0 -4.6 Q14.5 -3.75 15.0 -3.7 13.1 -3.95 13.1 -5.3 L14.0 -4.6 M10.35 -29.5 L14.1 -29.25 17.35 -29.7 17.15 -22.4 Q14.15 -20.7 11.05 -20.65 L10.45 -28.7 10.35 -29.5 M19.05 -41.05 Q17.75 -40.7 15.25 -38.6 13.1 -36.75 11.2 -36.8 10.8 -36.8 10.75 -36.6 10.7 -36.4 11.1 -36.35 12.95 -36.3 14.3 -37.0 15.3 -37.5 16.9 -38.95 18.9 -40.8 22.2 -40.0 L27.65 -39.65 28.0 -40.05 27.5 -40.15 Q26.05 -39.6 23.3 -40.5 20.45 -41.4 19.05 -41.05 M20.9 -38.75 Q20.35 -39.2 19.65 -39.05 18.9 -38.85 18.5 -38.05 L18.45 -37.4 18.95 -37.3 Q20.25 -37.85 20.9 -37.85 21.25 -37.9 21.25 -38.15 L20.9 -38.75 M14.25 -44.75 Q14.55 -44.45 14.8 -45.1 15.1 -45.7 15.0 -46.1 16.35 -46.1 17.0 -45.55 17.55 -45.0 17.9 -43.6 18.0 -43.2 18.15 -43.35 L18.25 -43.9 Q17.85 -45.7 16.75 -46.65 15.55 -47.7 13.8 -47.5 13.4 -47.45 13.4 -47.1 13.5 -45.55 14.25 -44.75 M9.6 -53.1 Q11.95 -52.35 13.5 -53.5 14.15 -54.0 14.1 -54.3 14.0 -54.55 13.3 -54.05 12.25 -53.25 9.9 -54.5 L6.7 -56.6 Q6.05 -57.1 5.6 -56.35 5.15 -55.6 5.85 -55.1 L7.2 -54.2 7.0 -53.45 Q7.0 -52.9 7.4 -52.5 7.8 -52.15 8.35 -52.15 L9.15 -52.4 9.6 -53.1 M24.3 -48.45 Q24.2 -48.1 24.35 -47.95 L24.7 -48.3 Q25.55 -51.35 22.8 -51.55 L17.65 -50.95 13.05 -50.2 Q10.4 -49.35 11.2 -46.95 11.3 -46.55 11.55 -46.65 11.8 -46.8 11.7 -47.2 11.2 -48.8 13.8 -49.55 L17.8 -50.25 22.15 -51.0 Q25.0 -51.0 24.3 -48.45 M23.15 -48.85 L22.55 -48.85 22.0 -48.65 Q21.4 -48.25 20.95 -47.5 20.7 -47.05 20.7 -45.9 L20.8 -44.2 Q20.8 -43.75 21.05 -43.8 21.25 -43.85 21.25 -44.25 21.25 -45.75 21.55 -46.65 L22.05 -47.1 22.65 -47.3 Q22.8 -46.8 23.4 -46.25 23.95 -45.7 23.95 -46.1 L23.6 -48.5 Q23.5 -48.85 23.15 -48.85 M23.95 -56.8 L23.15 -56.55 Q24.3 -58.05 24.6 -59.45 24.75 -60.25 23.85 -60.5 23.0 -60.7 22.9 -59.9 22.3 -57.1 21.3 -55.2 L20.8 -55.5 Q20.1 -56.05 19.95 -55.8 19.85 -55.65 20.5 -55.1 L21.25 -54.6 Q21.65 -54.45 21.85 -54.75 L22.75 -56.0 22.65 -55.5 Q22.65 -54.95 23.0 -54.55 23.4 -54.2 23.95 -54.2 24.5 -54.2 24.9 -54.55 25.3 -54.95 25.3 -55.5 25.3 -56.05 24.9 -56.45 24.5 -56.8 23.95 -56.8 M9.7 -62.1 Q12.3 -63.4 15.05 -63.7 19.25 -64.15 24.15 -61.2 29.7 -57.95 28.6 -53.75 28.45 -53.0 27.3 -50.95 26.35 -49.4 26.5 -48.0 L28.35 -45.15 Q29.9 -42.75 29.35 -41.0 30.35 -41.6 30.0 -42.85 L29.05 -44.9 Q27.8 -47.05 27.65 -48.15 27.35 -49.85 28.5 -51.65 29.6 -53.35 29.7 -55.0 29.85 -57.6 25.7 -61.1 L22.0 -63.25 Q19.95 -64.2 17.85 -64.45 13.6 -65.0 9.15 -62.85 4.25 -60.55 2.95 -56.65 2.2 -54.4 2.95 -52.25 3.5 -50.65 5.25 -48.35 L6.55 -46.55 7.8 -44.65 Q8.4 -43.5 8.2 -42.15 L7.45 -38.85 Q9.05 -40.65 8.55 -43.35 8.15 -45.9 6.0 -48.8 3.9 -51.5 3.6 -53.65 3.25 -56.25 5.25 -58.75 6.85 -60.7 9.7 -62.1 M9.75 -83.5 Q11.15 -83.25 13.1 -82.1 L16.2 -80.1 Q23.1 -75.55 27.6 -66.85 31.75 -58.9 32.6 -50.15 33.1 -45.3 32.45 -41.4 31.5 -35.9 28.5 -33.9 26.45 -32.55 22.35 -31.75 L15.8 -30.8 Q9.6 -29.65 5.85 -34.1 3.55 -36.8 1.95 -41.15 0.6 -44.8 -0.1 -49.15 L-0.3 -46.95 Q-1.2 -46.95 -1.95 -47.6 -3.3 -48.9 -2.35 -52.3 -1.85 -51.9 0.15 -51.5 L-1.95 -53.7 Q-2.3 -54.0 -2.7 -53.95 -3.2 -53.9 -3.35 -53.55 -4.2 -51.6 -3.85 -48.9 -3.45 -45.8 -1.6 -45.25 0.25 -38.85 4.0 -33.75 L5.9 -31.65 Q6.95 -30.75 7.9 -30.35 8.85 -27.45 9.65 -21.55 10.55 -15.05 10.05 -12.7 9.1 -12.35 8.05 -11.6 7.05 -10.9 7.85 -11.15 L11.0 -11.05 Q13.05 -10.55 14.75 -9.55 19.05 -6.95 15.7 -4.15 L14.0 -6.75 Q13.05 -8.15 12.3 -8.35 10.9 -8.7 10.25 -7.25 9.55 -5.85 10.0 -4.3 L10.35 -3.05 Q10.6 -2.15 9.2 -1.85 7.75 -1.55 7.0 -2.45 6.35 -4.3 6.3 -5.15 6.15 -6.0 5.7 -5.9 5.25 -5.8 5.15 -4.95 5.0 -3.3 5.7 -2.1 L4.55 -1.9 3.15 -2.05 Q2.3 -2.8 2.2 -3.9 2.1 -4.85 2.6 -5.45 2.55 -6.1 2.05 -5.95 1.55 -5.8 1.35 -5.2 0.65 -3.2 1.25 -1.95 L0.95 -1.85 -0.7 -1.95 Q-1.4 -2.25 -1.7 -3.2 -2.25 -4.95 -1.25 -6.8 -0.3 -8.55 1.35 -9.45 2.0 -9.8 1.9 -10.05 L1.1 -10.15 Q1.0 -13.45 -3.3 -19.9 L-7.55 -25.75 Q-6.95 -27.15 -8.6 -34.75 -10.25 -42.65 -11.9 -43.4 -10.75 -40.9 -10.0 -37.6 -9.0 -33.45 -9.35 -30.5 L-9.85 -27.2 Q-10.05 -25.25 -9.25 -24.1 L-8.15 -22.55 Q-9.75 -22.95 -11.05 -24.8 L-12.9 -27.6 Q-14.65 -29.6 -19.25 -31.65 L-23.5 -33.3 -20.4 -31.5 -15.95 -28.45 Q-16.35 -27.45 -17.1 -26.15 L-18.6 -24.1 -21.8 -21.05 Q-23.55 -19.15 -24.05 -17.25 -24.25 -16.55 -23.8 -15.0 L-22.95 -12.25 -23.8 -12.15 -24.35 -12.05 Q-21.8 -11.85 -19.6 -10.85 -16.7 -9.5 -16.0 -7.3 -15.7 -6.5 -16.05 -5.75 -16.4 -5.0 -16.95 -5.1 -17.75 -5.25 -19.85 -6.75 L-21.85 -8.15 -20.9 -6.6 Q-19.95 -4.9 -20.05 -4.0 -20.15 -2.9 -23.15 -3.35 L-23.85 -3.95 -24.85 -6.1 -26.1 -8.05 Q-26.55 -8.65 -26.7 -8.45 -26.85 -8.25 -26.4 -7.65 -24.7 -5.15 -25.3 -3.25 L-27.1 -3.25 -28.4 -3.95 -29.8 -7.5 -30.2 -8.1 -30.15 -7.3 -29.65 -6.05 -29.3 -4.6 -29.3 -4.05 Q-29.35 -3.6 -29.5 -3.4 L-31.65 -3.3 Q-32.4 -3.75 -32.6 -5.65 L-32.65 -7.55 -33.15 -6.0 Q-33.55 -4.25 -33.2 -3.15 L-34.1 -3.2 Q-35.1 -3.3 -35.3 -3.8 -35.75 -4.8 -35.5 -5.95 L-34.65 -8.65 Q-33.85 -10.4 -33.0 -10.85 -32.45 -11.15 -32.6 -11.75 L-33.05 -12.35 -34.05 -15.6 Q-34.75 -17.75 -34.7 -19.45 L-33.95 -23.05 Q-34.5 -23.9 -35.5 -26.45 -36.75 -29.75 -35.1 -35.3 -33.65 -40.1 -26.7 -44.9 -22.15 -48.05 -21.3 -48.7 -18.45 -50.95 -17.05 -53.25 -16.75 -52.15 -14.9 -48.95 -15.75 -51.85 -15.85 -55.55 -15.95 -62.95 -11.95 -66.85 -10.35 -68.4 -8.5 -69.3 -6.2 -70.45 -3.85 -70.35 -4.45 -69.4 -4.85 -66.1 L-5.1 -63.05 Q-4.25 -65.55 -2.55 -68.85 0.75 -75.5 4.65 -79.65 L6.95 -82.0 Q8.75 -83.65 9.75 -83.5 M27.8 -72.4 L29.0 -72.05 Q31.1 -71.3 32.9 -68.45 34.25 -66.2 34.95 -63.55 37.35 -54.6 34.25 -39.15 33.85 -37.05 33.3 -35.85 32.95 -35.1 33.3 -33.9 L34.0 -31.9 34.25 -31.3 34.15 -31.05 33.1 -28.65 Q31.65 -25.45 29.4 -22.0 26.9 -18.2 23.8 -15.6 23.3 -15.15 22.25 -14.6 21.5 -14.05 21.7 -13.1 22.45 -13.25 22.75 -12.25 L22.95 -11.05 20.7 -11.7 22.4 -10.45 25.3 -7.5 Q25.75 -6.85 25.6 -6.35 L25.05 -5.15 Q24.95 -4.9 23.95 -5.5 L21.65 -7.2 20.95 -7.25 Q20.95 -7.0 21.55 -6.5 L22.45 -5.4 22.9 -3.95 22.85 -3.25 22.45 -2.9 Q21.55 -2.2 19.75 -2.4 19.5 -4.05 18.5 -4.9 19.35 -6.75 16.85 -9.25 L15.2 -10.6 Q16.2 -11.7 17.0 -13.55 L18.3 -17.5 Q20.0 -23.05 19.75 -28.3 L19.7 -30.2 22.1 -30.7 Q26.85 -31.65 29.25 -33.05 32.6 -34.95 33.6 -39.75 34.15 -42.55 34.0 -48.0 33.8 -54.0 31.8 -60.55 29.85 -67.05 26.55 -72.35 L27.8 -72.4" fill="#ffffff" fill-rule="evenodd" stroke="none"/>
    <path d="M15.0 -3.7 Q14.5 -3.75 14.0 -4.6 L13.1 -5.3 Q13.1 -3.95 15.0 -3.7 M16.65 -20.0 L16.8 -20.75 14.85 -20.05 Q13.75 -16.3 11.7 -14.95 L11.65 -14.9 12.0 -12.45 12.0 -12.35 13.25 -11.75 13.45 -12.05 Q14.6 -13.2 15.35 -15.4 L16.1 -17.8 16.65 -20.0 M10.35 -29.5 L10.45 -28.7 11.05 -20.65 Q14.15 -20.7 17.15 -22.4 L17.35 -29.7 14.1 -29.25 10.35 -29.5 M18.45 -37.4 L18.5 -38.05 Q18.9 -38.85 19.65 -39.05 20.35 -39.2 20.9 -38.75 L21.25 -38.15 Q21.25 -37.9 20.9 -37.85 20.25 -37.85 18.95 -37.3 L18.45 -37.4 M15.25 -38.6 Q17.75 -40.7 19.05 -41.05 20.45 -41.4 23.3 -40.5 26.05 -39.6 27.5 -40.15 L28.0 -40.05 27.65 -39.65 22.2 -40.0 Q18.9 -40.8 16.9 -38.95 15.3 -37.5 14.3 -37.0 12.95 -36.3 11.1 -36.35 10.7 -36.4 10.75 -36.6 10.8 -36.8 11.2 -36.8 13.1 -36.75 15.25 -38.6 M15.0 -46.1 Q15.1 -45.7 14.8 -45.1 14.55 -44.45 14.25 -44.75 13.5 -45.55 13.4 -47.1 13.4 -47.45 13.8 -47.5 15.55 -47.7 16.75 -46.65 17.85 -45.7 18.25 -43.9 L18.15 -43.35 Q18.0 -43.2 17.9 -43.6 17.55 -45.0 17.0 -45.55 16.35 -46.1 15.0 -46.1 M13.5 -53.5 Q11.95 -52.35 9.6 -53.1 L9.15 -52.4 8.35 -52.15 Q7.8 -52.15 7.4 -52.5 7.0 -52.9 7.0 -53.45 L7.2 -54.2 5.85 -55.1 Q5.15 -55.6 5.6 -56.35 6.05 -57.1 6.7 -56.6 L9.9 -54.5 Q12.25 -53.25 13.3 -54.05 14.0 -54.55 14.1 -54.3 14.15 -54.0 13.5 -53.5 M24.7 -48.3 L24.35 -47.95 Q24.2 -48.1 24.3 -48.45 25.0 -51.0 22.15 -51.0 L17.8 -50.25 13.8 -49.55 Q11.2 -48.8 11.7 -47.2 11.8 -46.8 11.55 -46.65 11.3 -46.55 11.2 -46.95 10.4 -49.35 13.05 -50.2 L17.65 -50.95 22.8 -51.55 Q25.55 -51.35 24.7 -48.3 M22.55 -48.85 L23.15 -48.85 Q23.5 -48.85 23.6 -48.5 L23.95 -46.1 Q23.95 -45.7 23.4 -46.25 22.8 -46.8 22.65 -47.3 L22.05 -47.1 21.55 -46.65 Q21.25 -45.75 21.25 -44.25 21.25 -43.85 21.05 -43.8 20.8 -43.75 20.8 -44.2 L20.7 -45.9 Q20.7 -47.05 20.95 -47.5 21.4 -48.25 22.0 -48.65 L22.55 -48.85 M23.95 -56.8 Q24.5 -56.8 24.9 -56.45 25.3 -56.05 25.3 -55.5 25.3 -54.95 24.9 -54.55 24.5 -54.2 23.95 -54.2 23.4 -54.2 23.0 -54.55 22.65 -54.95 22.65 -55.5 L22.75 -56.0 21.85 -54.75 Q21.65 -54.45 21.25 -54.6 L20.5 -55.1 Q19.85 -55.65 19.95 -55.8 20.1 -56.05 20.8 -55.5 L21.3 -55.2 Q22.3 -57.1 22.9 -59.9 23.0 -60.7 23.85 -60.5 24.75 -60.25 24.6 -59.45 24.3 -58.05 23.15 -56.55 L23.95 -56.8 M15.05 -63.7 Q12.3 -63.4 9.7 -62.1 6.85 -60.7 5.25 -58.75 3.25 -56.25 3.6 -53.65 3.9 -51.5 6.0 -48.8 8.15 -45.9 8.55 -43.35 9.05 -40.65 7.45 -38.85 L8.2 -42.15 Q8.4 -43.5 7.8 -44.65 L6.55 -46.55 5.25 -48.35 Q3.5 -50.65 2.95 -52.25 2.2 -54.4 2.95 -56.65 4.25 -60.55 9.15 -62.85 13.6 -65.0 17.85 -64.45 19.95 -64.2 22.0 -63.25 L25.7 -61.1 Q29.85 -57.6 29.7 -55.0 29.6 -53.35 28.5 -51.65 27.35 -49.85 27.65 -48.15 27.8 -47.05 29.05 -44.9 L30.0 -42.85 Q30.35 -41.6 29.35 -41.0 29.9 -42.75 28.35 -45.15 L26.5 -48.0 Q26.35 -49.4 27.3 -50.95 28.45 -53.0 28.6 -53.75 29.7 -57.95 24.15 -61.2 19.25 -64.15 15.05 -63.7 M16.2 -80.1 L13.1 -82.1 Q11.15 -83.25 9.75 -83.5 8.75 -83.65 6.95 -82.0 L4.65 -79.65 Q0.75 -75.5 -2.55 -68.85 -4.25 -65.55 -5.1 -63.05 L-4.85 -66.1 Q-4.45 -69.4 -3.85 -70.35 -6.2 -70.45 -8.5 -69.3 -10.35 -68.4 -11.95 -66.85 -15.95 -62.95 -15.85 -55.55 -15.75 -51.85 -14.9 -48.95 -16.75 -52.15 -17.05 -53.25 -18.45 -50.95 -21.3 -48.7 -22.15 -48.05 -26.7 -44.9 -33.65 -40.1 -35.1 -35.3 -36.75 -29.75 -35.5 -26.45 -34.5 -23.9 -33.95 -23.05 L-34.7 -19.45 Q-34.75 -17.75 -34.05 -15.6 L-33.05 -12.35 -32.6 -11.75 Q-32.45 -11.15 -33.0 -10.85 -33.85 -10.4 -34.65 -8.65 L-35.5 -5.95 Q-35.75 -4.8 -35.3 -3.8 -35.1 -3.3 -34.1 -3.2 L-33.2 -3.15 Q-33.55 -4.25 -33.15 -6.0 L-32.65 -7.55 -32.6 -5.65 Q-32.4 -3.75 -31.65 -3.3 L-29.5 -3.4 Q-29.35 -3.6 -29.3 -4.05 L-29.3 -4.6 -29.65 -6.05 -30.15 -7.3 -30.2 -8.1 -29.8 -7.5 -28.4 -3.95 -27.1 -3.25 -25.3 -3.25 Q-24.7 -5.15 -26.4 -7.65 -26.85 -8.25 -26.7 -8.45 -26.55 -8.65 -26.1 -8.05 L-24.85 -6.1 -23.85 -3.95 -23.15 -3.35 Q-20.15 -2.9 -20.05 -4.0 -19.95 -4.9 -20.9 -6.6 L-21.85 -8.15 -19.85 -6.75 Q-17.75 -5.25 -16.95 -5.1 -16.4 -5.0 -16.05 -5.75 -15.7 -6.5 -16.0 -7.3 -16.7 -9.5 -19.6 -10.85 -21.8 -11.85 -24.35 -12.05 L-23.8 -12.15 -22.95 -12.25 -23.8 -15.0 Q-24.25 -16.55 -24.05 -17.25 -23.55 -19.15 -21.8 -21.05 L-18.6 -24.1 -17.1 -26.15 Q-16.35 -27.45 -15.95 -28.45 L-20.4 -31.5 -23.5 -33.3 -19.25 -31.65 Q-14.65 -29.6 -12.9 -27.6 L-11.05 -24.8 Q-9.75 -22.95 -8.15 -22.55 L-9.25 -24.1 Q-10.05 -25.25 -9.85 -27.2 L-9.35 -30.5 Q-9.0 -33.45 -10.0 -37.6 -10.75 -40.9 -11.9 -43.4 -10.25 -42.65 -8.6 -34.75 -6.95 -27.15 -7.55 -25.75 L-3.3 -19.9 Q1.0 -13.45 1.1 -10.15 L1.9 -10.05 Q2.0 -9.8 1.35 -9.45 -0.3 -8.55 -1.25 -6.8 -2.25 -4.95 -1.7 -3.2 -1.4 -2.25 -0.7 -1.95 L0.95 -1.85 1.25 -1.95 Q0.65 -3.2 1.35 -5.2 1.55 -5.8 2.05 -5.95 2.55 -6.1 2.6 -5.45 2.1 -4.85 2.2 -3.9 2.3 -2.8 3.15 -2.05 L4.55 -1.9 5.7 -2.1 Q5.0 -3.3 5.15 -4.95 5.25 -5.8 5.7 -5.9 6.15 -6.0 6.3 -5.15 6.35 -4.3 7.0 -2.45 7.75 -1.55 9.2 -1.85 10.6 -2.15 10.35 -3.05 L10.0 -4.3 Q9.55 -5.85 10.25 -7.25 10.9 -8.7 12.3 -8.35 13.05 -8.15 14.0 -6.75 L15.7 -4.15 Q19.05 -6.95 14.75 -9.55 13.05 -10.55 11.0 -11.05 L7.85 -11.15 Q7.05 -10.9 8.05 -11.6 9.1 -12.35 10.05 -12.7 10.55 -15.05 9.65 -21.55 8.85 -27.45 7.9 -30.35 6.95 -30.75 5.9 -31.65 L4.0 -33.75 Q0.25 -38.85 -1.6 -45.25 -3.45 -45.8 -3.85 -48.9 -4.2 -51.6 -3.35 -53.55 -3.2 -53.9 -2.7 -53.95 -2.3 -54.0 -1.95 -53.7 L0.15 -51.5 Q-1.85 -51.9 -2.35 -52.3 -3.3 -48.9 -1.95 -47.6 -1.2 -46.95 -0.3 -46.95 L-0.1 -49.15 Q0.6 -44.8 1.95 -41.15 3.55 -36.8 5.85 -34.1 9.6 -29.65 15.8 -30.8 L22.35 -31.75 Q26.45 -32.55 28.5 -33.9 31.5 -35.9 32.45 -41.4 33.1 -45.3 32.6 -50.15 31.75 -58.9 27.6 -66.85 23.1 -75.55 16.2 -80.1 M29.0 -72.05 L27.8 -72.4 26.55 -72.35 Q29.85 -67.05 31.8 -60.55 33.8 -54.0 34.0 -48.0 34.15 -42.55 33.6 -39.75 32.6 -34.95 29.25 -33.05 26.85 -31.65 22.1 -30.7 L19.7 -30.2 19.75 -28.3 Q20.0 -23.05 18.3 -17.5 L17.0 -13.55 Q16.2 -11.7 15.2 -10.6 L16.85 -9.25 Q19.35 -6.75 18.5 -4.9 19.5 -4.05 19.75 -2.4 21.55 -2.2 22.45 -2.9 L22.85 -3.25 22.9 -3.95 22.45 -5.4 21.55 -6.5 Q20.95 -7.0 20.95 -7.25 L21.65 -7.2 23.95 -5.5 Q24.95 -4.9 25.05 -5.15 L25.6 -6.35 Q25.75 -6.85 25.3 -7.5 L22.4 -10.45 20.7 -11.7 22.95 -11.05 22.75 -12.25 Q22.45 -13.25 21.7 -13.1 21.5 -14.05 22.25 -14.6 23.3 -15.15 23.8 -15.6 26.9 -18.2 29.4 -22.0 31.65 -25.45 33.1 -28.65 L34.15 -31.05 34.25 -31.3 34.0 -31.9 33.3 -33.9 Q32.95 -35.1 33.3 -35.85 33.85 -37.05 34.25 -39.15 37.35 -54.6 34.95 -63.55 34.25 -66.2 32.9 -68.45 31.1 -71.3 29.0 -72.05 M25.15 -74.55 Q26.8 -75.05 29.3 -73.95 31.55 -73.0 32.8 -71.65 36.15 -68.0 37.45 -61.35 38.4 -56.6 38.25 -49.95 38.2 -47.5 37.65 -44.2 L36.45 -38.55 Q35.95 -36.25 35.45 -35.1 L35.4 -35.0 35.7 -34.15 36.1 -32.95 36.4 -31.7 Q36.5 -30.95 36.2 -30.0 L35.5 -28.45 Q33.95 -24.85 32.2 -22.1 L30.1 -19.05 Q28.85 -17.35 27.6 -16.4 L25.7 -15.05 24.0 -13.6 23.55 -13.15 24.6 -11.9 24.5 -10.05 25.5 -8.75 Q26.0 -8.05 26.7 -7.65 27.2 -7.4 27.15 -6.9 L26.8 -4.75 Q26.35 -3.6 25.3 -3.3 L24.65 -3.25 24.3 -2.3 Q23.6 -1.05 21.75 -0.75 20.4 -0.5 18.7 -0.75 18.15 -0.85 18.05 -1.6 18.0 -2.9 17.2 -3.55 L17.15 -3.55 17.25 -3.0 Q17.35 -2.55 17.1 -2.25 16.85 -1.95 16.45 -1.9 15.0 -1.75 13.5 -3.1 12.45 -4.15 11.65 -5.6 L11.7 -4.75 11.9 -3.95 12.15 -3.15 Q12.45 -1.15 11.3 -0.7 10.2 -0.2 9.0 -0.3 7.85 -0.4 6.95 -1.05 6.2 -0.6 5.0 -0.5 L2.7 -0.7 2.35 -0.45 Q1.3 0.05 -0.1 0.0 -1.7 0.0 -2.35 -0.85 -3.2 -1.9 -3.4 -3.7 -3.6 -5.1 -3.4 -5.6 -3.65 -5.0 -5.2 -6.55 -6.7 -8.15 -6.35 -9.2 L-4.35 -13.2 Q-3.15 -15.55 -3.9 -17.35 L-6.35 -20.5 Q-10.05 -21.1 -12.55 -23.75 L-13.65 -25.3 -14.7 -26.75 Q-15.0 -25.35 -16.6 -23.75 L-18.85 -21.9 Q-20.65 -20.45 -21.45 -19.2 -22.45 -17.5 -22.05 -15.5 L-21.35 -12.7 Q-18.5 -12.4 -16.35 -10.4 -14.1 -8.35 -13.85 -5.55 -13.8 -5.25 -14.65 -4.65 L-15.75 -3.95 Q-16.9 -3.4 -17.85 -4.4 -19.15 -5.8 -19.9 -5.95 L-19.15 -3.7 Q-18.95 -2.35 -19.95 -2.2 L-22.15 -2.1 -24.15 -2.1 -27.8 -2.2 -28.25 -1.9 -31.65 -1.4 -32.4 -1.85 -32.45 -1.9 Q-33.15 -1.15 -34.45 -1.4 -35.15 -1.55 -36.55 -2.2 -37.35 -2.55 -37.4 -4.4 L-37.1 -6.8 -36.3 -9.05 -35.25 -11.2 Q-35.35 -12.05 -36.2 -14.75 -36.9 -16.95 -36.9 -18.5 L-36.65 -21.25 Q-36.4 -23.2 -36.2 -22.85 -37.8 -25.55 -38.15 -28.8 -38.45 -32.0 -37.55 -35.1 -35.15 -43.0 -28.4 -46.7 -23.85 -49.25 -21.7 -51.05 -18.1 -54.1 -17.45 -57.55 L-17.45 -58.15 Q-17.6 -60.05 -17.15 -61.3 L-15.5 -64.3 Q-13.45 -67.6 -10.1 -70.0 -6.3 -72.7 -3.05 -72.35 -1.6 -75.25 0.95 -78.4 3.45 -81.5 6.0 -83.55 7.3 -84.6 8.5 -84.85 L11.4 -84.75 Q14.6 -84.05 17.35 -82.1 L21.6 -78.65 Q23.55 -76.85 25.15 -74.55" fill="#000000" fill-rule="evenodd" stroke="none"/>
  </g>
</svg>
