<?xml version="1.0" encoding="UTF-8" standalone="no"?>
<svg xmlns:ffdec="https://www.free-decompiler.com/flash" xmlns:xlink="http://www.w3.org/1999/xlink" ffdec:objectType="shape" height="13.3px" width="13.35px" xmlns="http://www.w3.org/2000/svg">
  <g transform="matrix(1.0, 0.0, 0.0, 1.0, 6.55, 6.55)">
    <path d="M3.9 -3.45 L4.05 -3.95 2.75 -4.4 Q2.6 -4.45 2.6 -4.65 L2.8 -4.95 4.2 -4.6 4.25 -5.15 3.1 -5.55 1.75 -5.75 0.55 -5.8 -2.0 -5.75 -2.5 -5.65 -2.65 -5.65 -2.55 -4.85 -1.8 -4.95 -1.65 -5.0 Q-1.25 -5.05 -1.15 -4.75 L-1.25 -4.45 -1.5 -4.4 -2.45 -4.2 -2.25 -3.1 -4.5 -1.85 Q-5.6 -0.85 -5.7 0.3 L-5.7 0.35 Q-5.8 1.3 -5.25 2.05 -4.65 2.85 -3.55 2.95 -1.75 2.95 -1.2 1.6 -0.6 0.35 -0.9 -1.45 -0.6 -1.45 -0.3 -0.15 L1.5 -0.7 Q2.95 -0.9 4.0 0.15 4.45 0.55 4.25 0.95 2.4 -1.2 -0.2 1.2 L-0.45 1.85 Q-0.8 2.55 -1.45 3.05 -1.95 3.4 -2.75 3.55 L-3.3 3.6 Q-3.15 4.9 -2.05 5.5 -0.3 6.55 2.3 5.75 4.65 5.1 5.65 3.05 6.4 1.6 5.55 -0.45 L5.5 -0.6 Q4.9 -1.9 3.7 -2.75 L3.9 -3.45 M-0.2 -5.05 L1.55 -5.1 1.85 -4.75 Q1.8 -4.45 1.45 -4.5 L-0.15 -4.5 -0.35 -4.75 -0.2 -5.05 M5.35 -5.35 L4.45 -3.0 Q5.8 -1.9 6.4 -0.35 7.0 1.2 6.65 2.65 6.4 3.85 5.4 4.85 4.4 5.8 2.9 6.3 -0.35 7.35 -2.65 6.0 -4.1 5.15 -4.3 3.55 L-4.35 3.5 -4.35 3.45 Q-5.5 3.15 -6.05 2.35 -6.9 1.0 -6.35 -0.6 -6.1 -1.4 -5.2 -2.25 -4.25 -3.05 -3.05 -3.45 L-3.15 -4.0 -3.25 -4.2 -3.3 -4.4 -3.45 -4.8 -3.85 -6.1 0.55 -6.55 Q4.45 -6.45 5.35 -5.35" fill="#333333" fill-rule="evenodd" stroke="none"/>
    <path d="M0.55 -5.8 L1.75 -5.75 3.1 -5.55 4.25 -5.15 4.2 -4.6 2.8 -4.95 2.6 -4.65 Q2.6 -4.45 2.75 -4.4 L4.05 -3.95 3.9 -3.45 2.0 -3.15 Q0.45 -3.3 -0.7 -4.0 L-1.25 -4.45 -1.15 -4.75 Q-1.25 -5.05 -1.65 -5.0 L-1.8 -4.95 -1.85 -5.05 -2.3 -5.7 -1.3 -5.75 0.55 -5.8 M5.65 3.05 Q4.65 5.1 2.3 5.75 -0.3 6.55 -2.05 5.5 -2.65 4.55 -1.45 3.5 -0.8 2.95 0.55 2.3 1.85 1.75 2.55 1.65 L4.65 1.85 Q5.7 2.25 5.65 3.05 M-1.2 1.6 Q-1.75 2.95 -3.55 2.95 -4.65 2.85 -5.25 2.05 -5.5 1.15 -4.85 0.5 -4.35 0.0 -3.45 -0.15 -2.55 -0.25 -1.85 0.2 -1.05 0.75 -1.2 1.6 M-0.2 -5.05 L-0.35 -4.75 -0.15 -4.5 1.45 -4.5 Q1.8 -4.45 1.85 -4.75 L1.55 -5.1 -0.2 -5.05 M4.5 3.45 L4.15 3.4 3.75 3.6 Q2.7 4.85 0.55 4.85 -0.25 4.9 -0.15 5.3 -0.05 5.7 0.6 5.65 3.2 5.55 4.35 4.0 L4.5 3.45 M-1.8 1.35 L-2.25 1.3 Q-2.95 2.1 -4.05 1.75 -4.35 1.65 -4.45 1.95 -4.55 2.3 -4.2 2.45 L-2.9 2.55 Q-2.15 2.35 -1.75 1.8 -1.55 1.5 -1.8 1.35 M-0.6 5.0 Q-0.8 4.7 -1.25 4.8 L-1.55 5.0 -1.45 5.35 -0.85 5.55 -0.55 5.35 -0.6 5.0" fill="#646464" fill-rule="evenodd" stroke="none"/>
    <path d="M-1.3 -5.75 L-2.3 -5.7 -1.85 -5.05 -1.8 -4.95 -2.55 -4.85 -2.65 -5.65 -2.5 -5.65 -2.0 -5.75 -1.3 -5.75 M-1.25 -4.45 L-0.7 -4.0 Q0.45 -3.3 2.0 -3.15 L3.9 -3.45 3.7 -2.75 3.05 -2.3 Q4.3 -1.65 5.05 -0.65 5.65 0.25 5.9 1.45 5.9 0.45 5.55 -0.45 6.4 1.6 5.65 3.05 5.7 2.25 4.65 1.85 L2.55 1.65 Q1.85 1.75 0.55 2.3 -0.8 2.95 -1.45 3.5 -2.65 4.55 -2.05 5.5 -3.15 4.9 -3.3 3.6 L-3.2 4.05 -2.75 3.55 Q-1.95 3.4 -1.45 3.05 -0.8 2.55 -0.45 1.85 0.0 1.35 0.75 0.95 L2.05 0.5 Q3.3 0.35 4.25 0.95 4.45 0.55 4.0 0.15 2.95 -0.9 1.5 -0.7 L-0.3 -0.15 Q-0.6 -1.45 -0.9 -1.45 -0.6 0.35 -1.2 1.6 -1.05 0.75 -1.85 0.2 -2.55 -0.25 -3.45 -0.15 -4.35 0.0 -4.85 0.5 -5.5 1.15 -5.25 2.05 -5.8 1.3 -5.7 0.35 L-5.7 0.3 Q-5.3 -0.95 -3.65 -1.6 L-1.85 -2.0 -2.25 -3.1 -2.45 -4.2 -1.5 -4.4 -1.25 -4.45" fill="#545453" fill-rule="evenodd" stroke="none"/>
    <path d="M3.7 -2.75 Q4.9 -1.9 5.5 -0.6 L5.55 -0.45 Q5.9 0.45 5.9 1.45 5.65 0.25 5.05 -0.65 4.3 -1.65 3.05 -2.3 L3.7 -2.75 M-0.45 1.85 L-0.2 1.2 Q2.4 -1.2 4.25 0.95 3.3 0.35 2.05 0.5 L0.75 0.95 Q0.0 1.35 -0.45 1.85 M-5.7 0.3 Q-5.6 -0.85 -4.5 -1.85 L-2.25 -3.1 -1.85 -2.0 -3.65 -1.6 Q-5.3 -0.95 -5.7 0.3" fill="#636465" fill-rule="evenodd" stroke="none"/>
    <path d="M4.5 3.45 L4.35 4.0 Q3.2 5.55 0.6 5.65 -0.05 5.7 -0.15 5.3 -0.25 4.9 0.55 4.85 2.7 4.85 3.75 3.6 L4.15 3.4 4.5 3.45 M-1.8 1.35 Q-1.55 1.5 -1.75 1.8 -2.15 2.35 -2.9 2.55 L-4.2 2.45 Q-4.55 2.3 -4.45 1.95 -4.35 1.65 -4.05 1.75 -2.95 2.1 -2.25 1.3 L-1.8 1.35 M-0.6 5.0 L-0.55 5.35 -0.85 5.55 -1.45 5.35 -1.55 5.0 -1.25 4.8 Q-0.8 4.7 -0.6 5.0" fill="#9c9c9c" fill-rule="evenodd" stroke="none"/>
    <path d="M-3.3 3.6 L-2.75 3.55 -3.2 4.05 -3.3 3.6" fill="#5d5e5e" fill-rule="evenodd" stroke="none"/>
  </g>
</svg>
