<?xml version="1.0" encoding="UTF-8" standalone="no"?>
<svg xmlns:ffdec="https://www.free-decompiler.com/flash" xmlns:xlink="http://www.w3.org/1999/xlink" ffdec:objectType="shape" height="85.0px" width="64.4px" xmlns="http://www.w3.org/2000/svg">
  <g transform="matrix(1.0, 0.0, 0.0, 1.0, 40.0, 85.0)">
    <path d="M12.3 -17.8 L12.5 -17.3 12.8 -16.85 13.35 -16.2 13.85 -15.5 10.45 -14.9 Q10.1 -15.7 9.9 -17.4 L9.45 -20.0 Q9.8 -19.6 10.9 -18.9 L12.3 -17.8 M-17.1 -10.3 Q-18.0 -8.7 -17.7 -6.55 L-17.35 -5.15 -17.0 -3.75 -18.75 -3.55 -20.1 -3.45 Q-19.95 -3.95 -20.2 -4.65 L-20.7 -5.8 -21.95 -8.4 -23.15 -11.1 -17.1 -10.3 M6.55 -12.15 L6.8 -11.15 6.95 -9.8 5.5 -8.0 4.2 -6.05 3.6 -5.1 3.4 -3.95 Q3.4 -3.7 2.05 -3.65 L0.3 -3.65 0.6 -5.65 0.9 -7.7 0.1 -9.25 -1.05 -10.6 -0.4 -11.1 6.55 -12.15 M-1.35 -32.15 L5.15 -32.9 Q6.15 -29.9 7.4 -22.45 L8.7 -14.15 3.7 -13.15 -1.45 -12.7 Q-1.5 -15.7 -2.15 -22.35 L-2.85 -31.95 -2.1 -32.05 -1.35 -32.15 M-10.9 -32.35 L-5.75 -32.0 -3.95 -32.05 -3.7 -32.05 -3.5 -32.0 -3.1 -22.2 Q-2.75 -15.65 -2.75 -12.45 L-3.4 -11.75 -4.1 -11.1 -15.5 -11.85 -26.05 -13.65 -25.0 -19.05 -21.85 -18.85 -21.0 -18.75 -20.25 -18.8 -14.3 -17.85 -13.75 -17.7 -13.1 -18.1 -11.5 -17.85 -9.95 -17.7 Q-9.6 -17.9 -10.0 -18.9 L-10.45 -20.7 -10.35 -21.2 -10.25 -21.65 -9.9 -22.15 Q-9.5 -22.65 -9.75 -23.2 L-10.85 -25.3 -9.2 -26.95 -8.9 -27.55 Q-8.9 -28.0 -9.2 -28.2 L-11.25 -29.75 -10.9 -32.35 M-3.2 -53.6 L-3.65 -51.7 -5.65 -51.65 Q-8.95 -53.25 -10.4 -54.55 L-5.75 -53.85 -3.2 -53.6 M-18.7 -27.05 L-18.95 -29.2 -18.4 -33.9 -12.5 -32.4 -12.7 -29.6 -18.7 -27.05 M-21.95 -29.6 L-20.4 -30.1 Q-20.3 -29.45 -20.35 -27.95 L-20.3 -25.8 Q-20.25 -25.35 -19.75 -25.5 -19.55 -25.5 -18.75 -25.85 L-15.2 -27.35 -11.6 -28.85 -10.35 -27.7 -11.45 -26.9 -12.5 -26.1 Q-12.7 -25.95 -12.3 -25.65 L-11.7 -25.2 -11.4 -24.15 -11.1 -23.1 -12.0 -21.9 -12.9 -20.7 -14.25 -19.15 Q-17.25 -18.45 -21.3 -20.3 L-22.15 -22.85 -22.75 -25.0 -21.95 -29.6 M-21.2 -34.8 L-20.8 -34.6 -20.1 -34.25 -20.8 -30.9 -22.65 -30.6 -22.5 -33.65 -26.2 -30.4 -29.8 -26.95 -30.35 -26.4 -29.7 -26.15 Q-28.55 -25.7 -26.6 -25.2 L-23.4 -24.25 -22.35 -20.5 Q-26.55 -20.5 -30.5 -21.6 -34.9 -22.85 -38.35 -25.3 -34.0 -31.2 -27.35 -37.3 L-21.2 -34.8 M-17.75 -61.35 Q-18.3 -61.85 -19.1 -61.85 -19.85 -61.85 -20.4 -61.35 -20.95 -60.9 -20.95 -60.2 -20.95 -59.5 -20.4 -59.0 -19.85 -58.5 -19.1 -58.5 -18.3 -58.5 -17.75 -59.0 -17.2 -59.5 -17.2 -60.2 -17.2 -60.9 -17.75 -61.35 M-30.5 -59.05 Q-29.1 -59.35 -28.8 -59.05 L-30.75 -53.35 Q-33.55 -54.0 -32.4 -57.5 -32.05 -58.7 -30.5 -59.05 M0.2 -57.1 Q-0.2 -57.15 -0.5 -56.6 -0.8 -56.0 -0.4 -56.0 1.1 -55.75 -1.05 -54.9 -2.7 -54.7 -6.25 -54.85 L-11.75 -55.55 Q-12.0 -55.7 -12.1 -55.35 -12.25 -55.0 -12.05 -54.85 L-8.15 -51.65 -6.35 -50.7 -4.4 -49.9 Q-3.65 -49.85 -3.1 -50.3 -2.6 -50.7 -2.5 -51.4 L-2.5 -52.45 -2.3 -53.4 -2.2 -53.6 0.4 -53.95 Q2.05 -54.65 2.15 -55.7 2.25 -56.85 0.2 -57.1 M-6.5 -57.85 Q-6.85 -57.6 -6.5 -57.25 -6.25 -56.95 -5.9 -57.25 -5.15 -57.95 -4.3 -58.05 L-3.8 -58.05 -3.8 -57.7 Q-4.0 -57.3 -3.55 -57.2 -3.15 -57.05 -3.0 -57.45 -2.75 -58.0 -3.0 -58.45 -3.25 -58.9 -3.85 -58.95 -5.15 -59.1 -6.5 -57.85 M10.5 -40.85 L12.7 -38.55 Q9.1 -35.6 3.2 -34.5 L-6.85 -33.85 Q-12.4 -34.15 -17.35 -35.45 -23.25 -37.05 -26.85 -39.9 L-25.3 -41.5 Q-24.05 -42.5 -23.15 -42.4 L-9.05 -41.75 7.9 -42.5 Q9.05 -42.05 10.5 -40.85 M12.7 -34.95 L13.65 -34.7 18.4 -31.1 Q21.4 -28.7 22.65 -26.95 21.0 -24.95 17.9 -22.4 15.15 -20.05 12.6 -18.45 L11.15 -19.8 9.75 -21.15 15.4 -27.2 Q14.15 -28.7 11.8 -30.4 L7.4 -33.25 7.15 -33.35 Q9.65 -34.05 11.75 -35.2 12.0 -35.0 12.7 -34.95 M9.3 -60.2 Q9.3 -60.9 8.75 -61.35 8.2 -61.85 7.4 -61.85 6.65 -61.85 6.1 -61.35 5.55 -60.9 5.55 -60.2 5.55 -59.5 6.1 -59.0 6.65 -58.5 7.4 -58.5 8.2 -58.5 8.75 -59.0 9.3 -59.5 9.3 -60.2 M15.85 -57.8 Q16.75 -58.1 17.7 -57.3 18.65 -56.55 18.95 -55.5 19.15 -54.65 18.6 -53.6 18.05 -52.65 17.4 -52.3 L15.85 -57.8 M11.5 -65.0 Q12.5 -63.2 13.95 -58.9 15.5 -54.0 15.7 -51.45 11.95 -46.2 7.45 -43.45 L-6.1 -42.85 Q-15.3 -42.85 -21.0 -43.25 L-22.75 -43.25 -25.55 -46.95 Q-27.95 -50.25 -28.9 -52.3 -27.65 -58.55 -25.1 -62.7 -21.85 -63.05 -18.65 -63.9 -15.1 -64.85 -12.55 -66.15 L-5.35 -69.9 Q-0.25 -71.95 2.0 -70.0 2.25 -69.75 2.6 -69.65 L3.6 -69.75 Q5.95 -71.0 8.7 -68.7 10.9 -66.9 11.5 -65.0 M9.1 -76.75 Q14.4 -77.75 15.7 -72.4 16.2 -70.25 15.75 -67.75 15.35 -65.3 14.15 -63.65 11.5 -68.2 9.75 -69.75 6.7 -72.4 2.8 -70.75 0.35 -73.25 -4.05 -72.25 -6.35 -71.65 -10.85 -69.35 -16.95 -66.15 -21.25 -65.05 -27.6 -63.4 -32.8 -65.0 L-31.6 -66.0 -30.45 -67.0 Q-29.5 -68.3 -28.75 -70.25 L-27.65 -73.65 Q-26.8 -76.15 -23.85 -78.55 -21.35 -80.6 -18.35 -81.85 -13.1 -84.0 -5.5 -83.3 2.65 -82.55 5.0 -78.8 5.3 -81.35 8.9 -81.2 L12.4 -80.5 Q10.35 -77.8 9.1 -76.75" fill="#ffffff" fill-rule="evenodd" stroke="none"/>
    <path d="M13.35 -16.2 L12.8 -16.85 12.5 -17.3 12.3 -17.8 10.9 -18.9 Q9.8 -19.6 9.45 -20.0 L9.9 -17.4 Q10.1 -15.7 10.45 -14.9 L13.85 -15.5 13.35 -16.2 M-21.95 -8.4 L-20.7 -5.8 -20.2 -4.65 Q-19.95 -3.95 -20.1 -3.45 L-18.75 -3.55 -17.0 -3.75 -17.35 -5.15 -17.7 -6.55 Q-18.0 -8.7 -17.1 -10.3 L-23.15 -11.1 -21.95 -8.4 M-27.35 -26.9 L-25.1 -26.35 -24.6 -29.2 -27.35 -26.9 M6.95 -9.8 L6.8 -11.15 6.55 -12.15 -0.4 -11.1 -1.05 -10.6 0.1 -9.25 0.9 -7.7 0.6 -5.65 0.3 -3.65 2.05 -3.65 Q3.4 -3.7 3.4 -3.95 L3.6 -5.1 4.2 -6.05 5.5 -8.0 6.95 -9.8 M5.15 -32.9 L-1.35 -32.15 -2.1 -32.05 -2.85 -31.95 -2.15 -22.35 Q-1.5 -15.7 -1.45 -12.7 L3.7 -13.15 8.7 -14.15 7.4 -22.45 Q6.15 -29.9 5.15 -32.9 M-5.75 -32.0 L-10.9 -32.35 -11.25 -29.75 -9.2 -28.2 Q-8.9 -28.0 -8.9 -27.55 L-9.2 -26.95 -10.85 -25.3 -9.75 -23.2 Q-9.5 -22.65 -9.9 -22.15 L-10.25 -21.65 -10.35 -21.2 -10.45 -20.7 -10.0 -18.9 Q-9.6 -17.9 -9.95 -17.7 L-11.5 -17.85 -13.1 -18.1 -13.75 -17.7 -14.3 -17.85 -20.25 -18.8 -21.0 -18.75 -21.85 -18.85 -25.0 -19.05 -26.05 -13.65 -15.5 -11.85 -4.1 -11.1 -3.4 -11.75 -2.75 -12.45 Q-2.75 -15.65 -3.1 -22.2 L-3.5 -32.0 -3.7 -32.05 -3.95 -32.05 -5.75 -32.0 M-3.65 -51.7 L-3.2 -53.6 -5.75 -53.85 -10.4 -54.55 Q-8.95 -53.25 -5.65 -51.65 L-3.65 -51.7 M-18.95 -29.2 L-18.7 -27.05 -12.7 -29.6 -12.5 -32.4 -18.4 -33.9 -18.95 -29.2 M-20.35 -27.95 Q-20.3 -29.45 -20.4 -30.1 L-21.95 -29.6 -22.75 -25.0 -22.15 -22.85 -21.3 -20.3 Q-17.25 -18.45 -14.25 -19.15 L-12.9 -20.7 -12.0 -21.9 -11.1 -23.1 -11.4 -24.15 -11.7 -25.2 -12.3 -25.65 Q-12.7 -25.95 -12.5 -26.1 L-11.45 -26.9 -10.35 -27.7 -11.6 -28.85 -15.2 -27.35 -18.75 -25.85 Q-19.55 -25.5 -19.75 -25.5 -20.25 -25.35 -20.3 -25.8 L-20.35 -27.95 M-20.8 -34.6 L-21.2 -34.8 -27.35 -37.3 Q-34.0 -31.2 -38.35 -25.3 -34.9 -22.85 -30.5 -21.6 -26.55 -20.5 -22.35 -20.5 L-23.4 -24.25 -26.6 -25.2 Q-28.55 -25.7 -29.7 -26.15 L-30.35 -26.4 -29.8 -26.95 -26.2 -30.4 -22.5 -33.65 -22.65 -30.6 -20.8 -30.9 -20.1 -34.25 -20.8 -34.6 M-19.1 -61.85 Q-18.3 -61.85 -17.75 -61.35 -17.2 -60.9 -17.2 -60.2 -17.2 -59.5 -17.75 -59.0 -18.3 -58.5 -19.1 -58.5 -19.85 -58.5 -20.4 -59.0 -20.95 -59.5 -20.95 -60.2 -20.95 -60.9 -20.4 -61.35 -19.85 -61.85 -19.1 -61.85 M-30.5 -59.05 Q-32.05 -58.7 -32.4 -57.5 -33.55 -54.0 -30.75 -53.35 L-28.8 -59.05 Q-29.1 -59.35 -30.5 -59.05 M-0.5 -56.6 Q-0.2 -57.15 0.2 -57.1 2.25 -56.85 2.15 -55.7 2.05 -54.65 0.4 -53.95 L-2.2 -53.6 -2.3 -53.4 -2.5 -52.45 -2.5 -51.4 Q-2.6 -50.7 -3.1 -50.3 -3.65 -49.85 -4.4 -49.9 L-6.35 -50.7 -8.15 -51.65 -12.05 -54.85 Q-12.25 -55.0 -12.1 -55.35 -12.0 -55.7 -11.75 -55.55 L-6.25 -54.85 Q-2.7 -54.7 -1.05 -54.9 1.1 -55.75 -0.4 -56.0 -0.8 -56.0 -0.5 -56.6 M-5.9 -57.25 Q-6.25 -56.95 -6.5 -57.25 -6.85 -57.6 -6.5 -57.85 -5.15 -59.1 -3.85 -58.95 -3.25 -58.9 -3.0 -58.45 -2.75 -58.0 -3.0 -57.45 -3.15 -57.05 -3.55 -57.2 -4.0 -57.3 -3.8 -57.7 L-3.8 -58.05 -4.3 -58.05 Q-5.15 -57.95 -5.9 -57.25 M13.05 -27.1 L8.1 -29.85 9.0 -22.8 13.05 -27.1 M12.7 -34.95 Q12.0 -35.0 11.75 -35.2 9.65 -34.05 7.15 -33.35 L7.4 -33.25 11.8 -30.4 Q14.15 -28.7 15.4 -27.2 L9.75 -21.15 11.15 -19.8 12.6 -18.45 Q15.15 -20.05 17.9 -22.4 21.0 -24.95 22.65 -26.95 21.4 -28.7 18.4 -31.1 L13.65 -34.7 12.7 -34.95 M12.7 -38.55 L10.5 -40.85 Q9.05 -42.05 7.9 -42.5 L-9.05 -41.75 -23.15 -42.4 Q-24.05 -42.5 -25.3 -41.5 L-26.85 -39.9 Q-23.25 -37.05 -17.35 -35.45 -12.4 -34.15 -6.85 -33.85 L3.2 -34.5 Q9.1 -35.6 12.7 -38.55 M17.7 -57.3 Q16.75 -58.1 15.85 -57.8 L17.4 -52.3 Q18.05 -52.65 18.6 -53.6 19.15 -54.65 18.95 -55.5 18.65 -56.55 17.7 -57.3 M8.75 -61.35 Q9.3 -60.9 9.3 -60.2 9.3 -59.5 8.75 -59.0 8.2 -58.5 7.4 -58.5 6.65 -58.5 6.1 -59.0 5.55 -59.5 5.55 -60.2 5.55 -60.9 6.1 -61.35 6.65 -61.85 7.4 -61.85 8.2 -61.85 8.75 -61.35 M11.5 -65.0 Q10.9 -66.9 8.7 -68.7 5.95 -71.0 3.6 -69.75 L2.6 -69.65 Q2.25 -69.75 2.0 -70.0 -0.25 -71.95 -5.35 -69.9 L-12.55 -66.15 Q-15.1 -64.85 -18.65 -63.9 -21.85 -63.05 -25.1 -62.7 -27.65 -58.55 -28.9 -52.3 -27.95 -50.25 -25.55 -46.95 L-22.75 -43.25 -21.0 -43.25 Q-15.3 -42.85 -6.1 -42.85 L7.45 -43.45 Q11.95 -46.2 15.7 -51.45 15.5 -54.0 13.95 -58.9 12.5 -63.2 11.5 -65.0 M12.4 -80.5 L8.9 -81.2 Q5.3 -81.35 5.0 -78.8 2.65 -82.55 -5.5 -83.3 -13.1 -84.0 -18.35 -81.85 -21.35 -80.6 -23.85 -78.55 -26.8 -76.15 -27.65 -73.65 L-28.75 -70.25 Q-29.5 -68.3 -30.45 -67.0 L-31.6 -66.0 -32.8 -65.0 Q-27.6 -63.4 -21.25 -65.05 -16.95 -66.15 -10.85 -69.35 -6.35 -71.65 -4.05 -72.25 0.35 -73.25 2.8 -70.75 6.7 -72.4 9.75 -69.75 11.5 -68.2 14.15 -63.65 15.35 -65.3 15.75 -67.75 16.2 -70.25 15.7 -72.4 14.4 -77.75 9.1 -76.75 10.35 -77.8 12.4 -80.5 M8.85 -82.35 Q10.5 -82.15 13.85 -81.0 14.75 -80.7 15.0 -80.3 15.25 -79.85 14.25 -79.7 L13.7 -79.05 13.1 -78.4 Q17.15 -76.15 17.6 -70.3 18.05 -64.55 14.7 -61.15 L14.65 -61.1 15.3 -59.25 Q16.8 -59.4 18.2 -58.55 19.6 -57.7 20.3 -56.25 21.35 -54.15 20.35 -52.4 19.35 -50.65 17.15 -50.1 L15.65 -47.9 13.9 -46.0 10.25 -42.4 Q11.1 -41.75 12.35 -40.5 L14.2 -38.6 14.6 -37.65 Q14.6 -37.25 14.2 -36.85 L14.05 -36.65 15.55 -35.4 20.2 -31.65 Q23.0 -29.3 24.2 -27.3 L24.4 -26.6 24.2 -25.95 Q22.5 -23.65 19.8 -21.4 L14.55 -17.65 14.9 -16.4 15.25 -15.1 Q15.4 -14.65 15.15 -14.1 L14.3 -13.5 10.65 -12.8 10.35 -12.7 8.25 -12.35 8.45 -10.55 Q8.4 -9.7 7.9 -8.85 L6.25 -5.85 Q5.25 -3.75 5.0 -2.55 L7.15 0.0 -0.3 0.0 Q-0.8 0.0 -1.2 -0.35 -1.65 -0.75 -1.6 -1.25 L-0.95 -8.05 -2.3 -9.25 -2.9 -9.1 -14.85 -10.15 -16.2 -7.35 -15.2 -1.6 Q-15.05 -1.0 -15.4 -0.5 -15.8 0.0 -16.5 0.0 L-23.65 0.0 -22.05 -2.55 -22.9 -5.3 -23.8 -8.0 -24.5 -9.8 Q-24.7 -10.65 -24.5 -11.45 L-26.7 -11.85 Q-27.25 -11.95 -27.5 -12.45 -27.75 -12.9 -27.65 -13.4 L-26.55 -18.95 Q-34.85 -20.15 -39.6 -24.05 L-39.95 -24.8 Q-40.05 -25.3 -39.8 -25.6 -35.85 -31.25 -28.5 -38.0 L-28.9 -38.75 -28.75 -39.6 Q-27.85 -41.5 -25.4 -43.1 L-27.45 -46.1 -29.05 -48.15 -30.7 -50.75 Q-33.3 -51.05 -34.5 -52.75 -35.15 -53.65 -35.1 -54.9 -35.1 -56.0 -34.6 -57.1 -34.0 -58.5 -32.75 -59.35 -31.55 -60.25 -30.2 -60.3 L-31.95 -62.25 Q-33.75 -64.05 -34.25 -64.15 -35.1 -64.35 -35.1 -64.75 L-34.35 -65.6 Q-32.8 -66.5 -31.6 -67.95 -30.4 -69.4 -29.85 -71.05 L-29.0 -73.85 Q-28.55 -75.5 -27.8 -76.6 -25.1 -80.8 -18.3 -83.25 -12.8 -85.25 -6.85 -84.95 -0.2 -84.6 4.05 -81.45 5.85 -82.75 8.85 -82.35" fill="#030303" fill-rule="evenodd" stroke="none"/>
  </g>
</svg>
