<?xml version="1.0" encoding="UTF-8" standalone="no"?>
<svg xmlns:ffdec="https://www.free-decompiler.com/flash" xmlns:xlink="http://www.w3.org/1999/xlink" ffdec:objectType="shape" height="85.0px" width="75.1px" xmlns="http://www.w3.org/2000/svg">
  <g transform="matrix(1.0, 0.0, 0.0, 1.0, 37.55, 85.0)">
    <path d="M21.0 -79.55 L22.65 -77.3 Q23.85 -75.4 24.55 -74.6 25.45 -73.35 27.1 -72.0 L29.8 -69.8 Q32.8 -67.2 32.45 -64.2 L32.35 -62.25 Q32.25 -61.0 32.45 -59.95 L33.85 -58.45 Q35.1 -57.4 35.25 -56.75 35.45 -56.0 35.05 -55.35 L34.7 -54.85 Q35.05 -52.6 34.5 -51.15 34.0 -49.7 32.65 -49.25 L31.25 -51.2 29.65 -52.25 Q32.6 -49.1 31.8 -44.45 31.5 -42.65 30.65 -41.8 L28.95 -41.75 Q27.65 -39.9 26.6 -40.25 25.7 -40.55 25.45 -41.75 24.9 -41.95 23.8 -43.0 22.85 -43.95 22.1 -44.05 21.6 -44.35 20.9 -45.35 22.55 -47.05 25.45 -51.5 27.9 -51.35 29.25 -53.05 30.45 -54.6 30.25 -56.85 30.05 -59.15 28.55 -60.7 26.85 -62.4 24.25 -62.25 L21.5 -68.7 21.15 -69.5 20.6 -70.6 Q18.4 -74.5 16.8 -76.5 13.35 -80.75 8.85 -82.85 L9.0 -82.85 12.8 -83.0 Q15.3 -83.05 17.05 -82.35 L19.0 -81.15 21.0 -79.55 M-7.8 -4.05 Q-7.7 -1.75 -7.25 -0.9 L-10.45 -0.9 -8.65 -2.15 -10.6 -5.9 -7.7 -6.8 Q-7.95 -6.25 -7.8 -4.05 M-15.35 -13.95 Q-14.1 -14.0 -13.0 -14.5 L-11.65 -15.15 Q-11.4 -13.9 -10.05 -11.5 -8.65 -9.0 -7.85 -8.45 -13.2 -6.4 -14.95 -6.05 -15.35 -7.9 -15.4 -10.7 L-15.35 -13.95 M-26.05 -25.15 L-22.7 -28.55 Q-19.7 -27.05 -17.75 -25.6 L-19.15 -24.35 -21.3 -22.2 Q-20.55 -21.7 -16.65 -20.25 L-15.4 -21.7 Q-14.25 -23.0 -12.95 -23.85 -11.55 -23.2 -11.05 -22.75 -10.35 -22.15 -10.0 -21.05 -10.25 -19.45 -11.35 -17.85 -12.75 -15.8 -14.5 -15.5 -19.05 -16.35 -24.25 -18.25 -28.85 -19.95 -29.85 -20.85 L-26.05 -25.15 M-12.0 -25.75 L-13.95 -29.7 -16.5 -33.75 Q-16.65 -31.2 -15.2 -28.35 L-13.65 -25.8 -14.85 -24.8 -17.75 -27.0 -23.4 -30.6 Q-22.3 -32.4 -19.05 -35.1 -15.8 -37.8 -15.0 -37.65 L-13.9 -37.0 -11.0 -24.95 -12.0 -25.75 M-2.95 -55.3 Q-2.45 -54.5 -1.25 -54.55 0.05 -54.6 0.65 -55.55 1.2 -56.55 -1.05 -56.25 -3.35 -56.0 -2.95 -55.3 M-4.0 -63.2 Q-3.85 -63.7 -3.0 -63.8 -0.75 -64.1 0.05 -62.45 0.15 -63.95 -1.15 -64.65 L-3.7 -65.0 Q-5.05 -64.75 -5.1 -63.9 -5.2 -62.85 -3.2 -61.65 -4.15 -62.55 -4.0 -63.2 M-26.8 -52.25 Q-28.3 -52.4 -28.95 -53.95 -29.55 -55.35 -29.3 -57.15 -29.0 -59.0 -28.0 -60.1 -26.9 -61.3 -25.35 -60.9 L-27.5 -53.5 -26.8 -52.25 M-22.7 -68.6 L-22.3 -68.95 -21.55 -69.1 -21.2 -69.05 -20.15 -68.8 -19.8 -69.8 Q-19.35 -71.0 -18.0 -71.0 -17.0 -71.0 -15.8 -70.4 -14.65 -69.8 -13.8 -68.85 -13.05 -68.0 -12.75 -67.0 L-14.85 -67.05 Q-19.0 -67.05 -21.95 -65.95 L-22.7 -65.8 -22.95 -65.8 -22.45 -66.3 -20.45 -67.2 -22.7 -68.6 M-12.65 -82.75 L-8.85 -83.1 Q-10.9 -82.2 -12.75 -80.95 -17.8 -77.5 -21.55 -70.25 -23.0 -70.25 -23.65 -69.25 -24.35 -68.2 -22.95 -67.35 -23.7 -67.0 -23.95 -66.3 -24.2 -65.6 -23.85 -65.1 L-24.9 -62.25 Q-27.45 -62.85 -29.15 -61.0 -30.65 -59.4 -30.9 -56.75 -31.1 -54.15 -29.9 -52.45 -28.6 -50.55 -26.2 -51.0 L-24.2 -48.1 -20.8 -43.35 Q-21.25 -42.3 -22.2 -41.9 -22.35 -41.75 -23.2 -41.55 L-24.9 -41.1 Q-27.65 -39.85 -28.4 -42.8 L-28.55 -42.8 -30.75 -42.4 Q-32.65 -42.95 -33.6 -45.15 -34.45 -47.1 -33.95 -48.35 -33.3 -49.75 -31.25 -52.05 L-32.75 -51.5 -34.6 -50.2 Q-35.85 -52.3 -34.35 -57.4 -32.75 -62.85 -29.55 -65.9 -30.4 -65.45 -32.6 -62.8 L-34.6 -60.45 -34.85 -60.95 Q-35.0 -61.65 -34.3 -62.4 L-32.5 -64.25 Q-31.55 -65.4 -31.6 -66.3 L-31.25 -68.0 -30.8 -69.7 Q-30.5 -71.25 -29.45 -71.95 L-27.05 -73.05 Q-24.35 -73.9 -21.9 -76.1 L-19.0 -78.85 Q-17.3 -80.7 -15.9 -81.55 -14.5 -82.45 -12.65 -82.75 M8.15 -20.55 L10.95 -6.0 7.05 -5.85 Q2.05 -5.55 -2.95 -7.25 -7.5 -8.85 -8.45 -10.75 -10.25 -13.15 -10.9 -15.8 -10.0 -16.7 -9.6 -17.6 -8.2 -14.0 -5.85 -11.7 -2.6 -8.45 2.3 -7.95 -1.15 -9.15 -4.7 -13.1 -7.0 -15.75 -9.15 -19.35 L-9.15 -19.45 Q-7.1 -17.5 -4.7 -16.15 -1.2 -14.15 2.3 -13.9 -2.15 -15.2 -8.85 -19.95 L-8.75 -20.4 -8.65 -20.85 -2.15 -20.3 Q3.5 -20.05 8.15 -20.55 M9.5 -0.95 L9.9 -4.65 11.25 -4.7 11.35 -4.15 12.15 -4.3 11.15 -2.1 13.0 -0.85 9.5 -0.95 M10.95 -27.5 Q13.05 -28.6 13.85 -28.05 14.8 -26.35 15.65 -16.15 L16.35 -6.25 14.75 -6.25 11.1 -26.15 14.05 -6.2 13.6 -6.2 9.7 -24.85 12.8 -6.2 12.4 -6.2 8.6 -25.5 Q8.9 -26.4 10.95 -27.5 M0.45 -29.25 L1.3 -33.05 Q4.55 -33.1 9.7 -35.65 L14.8 -38.5 Q16.05 -38.2 19.55 -35.85 L23.3 -33.35 Q22.1 -31.5 19.75 -29.6 L17.7 -28.05 14.9 -29.7 12.65 -33.1 13.4 -30.25 Q12.0 -29.8 10.5 -29.05 7.45 -27.5 7.05 -26.0 L7.9 -21.7 -9.15 -22.4 -10.05 -24.15 Q-10.0 -25.15 -10.7 -30.75 L-11.45 -36.1 Q-7.45 -34.0 -1.9 -33.15 L0.45 -29.25 M22.8 -30.75 L26.6 -27.45 29.7 -24.55 28.7 -18.35 27.3 -11.4 Q27.9 -10.1 27.65 -8.75 27.5 -7.75 26.95 -7.0 L26.0 -5.95 Q25.1 -5.25 23.8 -5.4 22.1 -5.55 22.35 -6.25 L23.3 -8.6 Q22.9 -7.65 22.25 -7.7 21.6 -7.75 21.6 -8.6 21.6 -9.5 22.35 -10.6 23.15 -11.7 24.4 -12.4 L24.45 -17.0 24.45 -22.4 19.05 -27.3 22.8 -30.75 M28.5 -54.9 Q28.0 -53.5 26.35 -53.1 26.05 -56.65 24.9 -60.35 26.0 -60.8 27.05 -59.9 28.05 -59.1 28.5 -57.6 29.0 -56.1 28.5 -54.9 M0.1 -57.6 L4.1 -58.0 Q3.25 -58.8 0.45 -58.75 L-3.35 -58.35 Q-4.35 -58.15 -4.6 -58.7 -4.9 -59.2 -4.4 -59.75 -6.95 -58.65 -6.25 -57.2 -5.6 -55.8 -3.9 -56.35 L0.1 -57.6 M18.85 -69.05 L19.2 -69.1 19.95 -68.95 20.35 -68.6 20.0 -68.35 18.15 -67.2 20.1 -66.3 20.6 -65.8 20.35 -65.8 19.6 -65.95 Q16.65 -67.05 12.5 -67.05 L10.45 -67.0 Q10.65 -67.9 11.45 -68.85 12.3 -69.8 13.5 -70.4 14.7 -71.0 15.7 -71.0 17.05 -71.0 17.45 -69.8 L17.8 -68.8 18.85 -69.05 M19.25 -70.25 L18.55 -70.2 Q18.0 -71.85 16.3 -72.1 14.8 -72.35 13.05 -71.45 11.25 -70.6 10.15 -69.1 8.95 -67.4 9.2 -65.75 L12.5 -65.85 Q12.05 -65.35 12.05 -64.65 12.05 -63.8 12.55 -63.25 13.15 -62.65 13.9 -62.65 14.65 -62.65 15.2 -63.25 15.75 -63.8 15.75 -64.65 L15.45 -65.75 19.2 -64.85 20.85 -64.65 Q21.45 -64.85 21.65 -65.35 24.2 -59.5 24.95 -53.6 23.75 -50.7 18.9 -44.95 L14.25 -39.75 Q11.9 -37.35 7.6 -35.5 3.75 -33.85 1.65 -33.85 2.4 -38.25 3.1 -38.7 4.1 -38.9 5.25 -39.75 L7.0 -41.65 Q10.15 -45.55 9.45 -50.2 L8.95 -52.5 Q8.55 -53.9 8.6 -54.3 L9.25 -55.85 9.7 -57.25 Q9.7 -60.65 6.1 -61.8 3.6 -62.5 1.1 -61.15 3.75 -61.9 6.05 -61.05 8.6 -60.05 8.9 -57.55 8.15 -56.95 8.1 -55.25 L8.3 -51.6 Q8.65 -46.1 6.15 -43.35 4.6 -41.4 2.35 -40.8 1.3 -40.0 0.5 -36.65 L-0.1 -33.25 -1.95 -35.75 Q-3.9 -38.6 -4.95 -41.0 L-7.65 -44.4 Q-8.7 -46.1 -8.85 -48.15 L-9.6 -50.1 Q-9.85 -51.0 -9.55 -51.75 -9.25 -52.6 -9.6 -54.0 L-10.05 -55.55 Q-11.5 -57.75 -9.1 -59.4 -7.3 -60.6 -4.4 -61.05 -7.0 -62.45 -9.8 -60.0 -12.65 -57.45 -10.8 -54.35 L-10.45 -53.35 Q-10.2 -52.75 -10.45 -52.25 -10.95 -51.6 -10.9 -50.3 -10.85 -48.85 -10.05 -48.3 L-9.7 -46.05 Q-9.5 -44.55 -8.95 -43.7 L-7.45 -41.6 -5.95 -39.7 -2.65 -34.05 Q-6.0 -34.4 -10.25 -36.35 L-13.8 -38.3 Q-17.25 -41.4 -21.9 -47.8 L-25.85 -53.6 -22.5 -64.6 -21.55 -64.85 -18.0 -65.7 -18.3 -64.65 Q-18.3 -63.8 -17.75 -63.25 -17.2 -62.65 -16.4 -62.65 -15.65 -62.65 -15.1 -63.25 -14.55 -63.8 -14.55 -64.65 -14.55 -65.35 -15.0 -65.85 L-11.55 -65.75 Q-11.2 -68.5 -14.05 -70.65 -16.9 -72.8 -19.2 -71.95 -16.2 -76.9 -11.95 -79.75 -8.8 -81.95 -4.6 -82.95 L3.05 -83.35 Q12.65 -81.9 19.25 -70.25" fill="#ffffff" fill-rule="evenodd" stroke="none"/>
    <path d="M21.0 -79.55 L19.0 -81.15 17.05 -82.35 Q15.3 -83.05 12.8 -83.0 L9.0 -82.85 8.85 -82.85 Q13.35 -80.75 16.8 -76.5 18.4 -74.5 20.6 -70.6 L21.15 -69.5 21.5 -68.7 24.25 -62.25 Q26.85 -62.4 28.55 -60.7 30.05 -59.15 30.25 -56.85 30.45 -54.6 29.25 -53.05 27.9 -51.35 25.45 -51.5 22.55 -47.05 20.9 -45.35 21.6 -44.35 22.1 -44.05 22.85 -43.95 23.8 -43.0 24.9 -41.95 25.45 -41.75 25.7 -40.55 26.6 -40.25 27.65 -39.9 28.95 -41.75 L30.65 -41.8 Q31.5 -42.65 31.8 -44.45 32.6 -49.1 29.65 -52.25 L31.25 -51.2 32.65 -49.25 Q34.0 -49.7 34.5 -51.15 35.05 -52.6 34.7 -54.85 L35.05 -55.35 Q35.45 -56.0 35.25 -56.75 35.1 -57.4 33.85 -58.45 L32.45 -59.95 Q32.25 -61.0 32.35 -62.25 L32.45 -64.2 Q32.8 -67.2 29.8 -69.8 L27.1 -72.0 Q25.45 -73.35 24.55 -74.6 23.85 -75.4 22.65 -77.3 L21.0 -79.55 M22.2 -81.2 L26.5 -75.95 Q27.35 -74.7 28.6 -73.55 L31.3 -71.15 Q32.85 -70.05 33.7 -67.7 34.5 -65.55 34.4 -63.45 34.35 -61.0 34.6 -60.45 34.9 -59.65 36.45 -58.75 L36.95 -58.1 37.45 -56.9 Q37.7 -56.05 37.3 -55.5 L36.45 -54.5 Q37.35 -52.1 36.05 -49.8 34.9 -47.8 33.35 -47.45 33.85 -45.6 33.4 -43.1 33.0 -40.75 32.15 -39.95 31.8 -39.65 30.45 -39.5 L29.15 -39.45 27.9 -38.45 25.7 -38.5 24.7 -39.2 23.1 -40.45 22.4 -41.45 21.15 -42.55 Q20.55 -42.95 19.85 -43.7 18.1 -41.1 16.95 -39.85 19.5 -38.7 26.15 -33.6 L24.45 -31.35 27.55 -28.6 31.7 -24.7 30.65 -20.25 29.65 -17.05 30.6 -11.55 28.55 -10.2 Q28.95 -8.95 28.3 -7.45 27.7 -6.1 26.65 -5.1 25.6 -4.1 23.5 -4.25 21.2 -4.45 21.35 -6.4 L17.95 -4.5 16.1 -4.5 16.1 -5.15 14.05 -4.85 13.55 -3.9 Q13.1 -3.1 13.05 -2.3 13.65 -1.4 15.45 0.0 L8.15 0.0 8.4 -4.85 Q6.2 -4.3 1.45 -4.9 -3.55 -5.55 -6.05 -6.9 -6.45 -5.95 -6.45 -4.05 -6.5 -1.75 -5.75 0.0 L-13.3 0.0 -11.6 -1.1 -10.25 -2.25 -12.0 -5.4 -16.25 -4.15 Q-16.6 -4.7 -16.8 -9.1 L-16.95 -14.2 Q-20.65 -15.1 -24.35 -16.45 -29.85 -18.45 -31.9 -20.45 -31.15 -21.8 -27.75 -25.5 L-24.45 -28.9 -26.4 -30.0 -22.95 -34.0 Q-19.15 -38.15 -17.25 -38.6 L-20.05 -41.6 -20.35 -40.45 Q-20.45 -39.75 -20.95 -39.45 -21.95 -39.05 -23.05 -38.85 L-24.35 -38.5 -25.4 -38.55 -26.9 -38.7 Q-28.0 -38.85 -28.7 -40.45 L-28.8 -40.4 -30.0 -40.2 -31.1 -40.15 Q-33.7 -40.9 -34.95 -42.6 L-35.55 -43.95 -35.75 -46.9 -36.15 -48.3 -36.75 -49.7 Q-37.45 -51.25 -37.15 -53.55 L-36.45 -57.2 Q-38.0 -59.75 -37.4 -61.95 -36.9 -63.7 -35.7 -64.15 -34.0 -64.8 -33.7 -66.35 L-33.3 -68.2 -32.75 -70.0 Q-32.5 -71.8 -31.1 -73.2 -29.85 -74.55 -28.05 -75.15 -25.5 -75.95 -23.35 -77.85 L-20.6 -80.5 Q-19.0 -82.3 -16.9 -83.4 -14.8 -84.45 -12.9 -84.4 L-10.05 -84.5 Q-8.3 -84.5 -7.3 -83.95 -4.6 -84.9 0.1 -85.0 4.85 -85.05 6.45 -84.15 L7.7 -84.4 8.9 -84.5 13.15 -84.7 Q15.65 -84.6 17.85 -83.75 L19.75 -82.85 22.2 -81.2 M19.25 -70.25 Q12.65 -81.9 3.05 -83.35 L-4.6 -82.95 Q-8.8 -81.95 -11.95 -79.75 -16.2 -76.9 -19.2 -71.95 -16.9 -72.8 -14.05 -70.65 -11.2 -68.5 -11.55 -65.75 L-15.0 -65.85 Q-14.55 -65.35 -14.55 -64.65 -14.55 -63.8 -15.1 -63.25 -15.65 -62.65 -16.4 -62.65 -17.2 -62.65 -17.75 -63.25 -18.3 -63.8 -18.3 -64.65 L-18.0 -65.7 -21.55 -64.85 -22.5 -64.6 -25.85 -53.6 -21.9 -47.8 Q-17.25 -41.4 -13.8 -38.3 L-10.25 -36.35 Q-6.0 -34.4 -2.65 -34.05 L-5.95 -39.7 -7.45 -41.6 -8.95 -43.7 Q-9.5 -44.55 -9.7 -46.05 L-10.05 -48.3 Q-10.85 -48.85 -10.9 -50.3 -10.95 -51.6 -10.45 -52.25 -10.2 -52.75 -10.45 -53.35 L-10.8 -54.35 Q-12.65 -57.45 -9.8 -60.0 -7.0 -62.45 -4.4 -61.05 -7.3 -60.6 -9.1 -59.4 -11.5 -57.75 -10.05 -55.55 L-9.6 -54.0 Q-9.25 -52.6 -9.55 -51.75 -9.85 -51.0 -9.6 -50.1 L-8.85 -48.15 Q-8.7 -46.1 -7.65 -44.4 L-4.95 -41.0 Q-3.9 -38.6 -1.95 -35.75 L-0.1 -33.25 0.5 -36.65 Q1.3 -40.0 2.35 -40.8 4.6 -41.4 6.15 -43.35 8.65 -46.1 8.3 -51.6 L8.1 -55.25 Q8.15 -56.95 8.9 -57.55 8.6 -60.05 6.05 -61.05 3.75 -61.9 1.1 -61.15 3.6 -62.5 6.1 -61.8 9.7 -60.65 9.7 -57.25 L9.25 -55.85 8.6 -54.3 Q8.55 -53.9 8.95 -52.5 L9.45 -50.2 Q10.15 -45.55 7.0 -41.65 L5.25 -39.75 Q4.1 -38.9 3.1 -38.7 2.4 -38.25 1.65 -33.85 3.75 -33.85 7.6 -35.5 11.9 -37.35 14.25 -39.75 L18.9 -44.95 Q23.75 -50.7 24.95 -53.6 24.2 -59.5 21.65 -65.35 21.45 -64.85 20.85 -64.65 L19.2 -64.85 15.45 -65.75 15.75 -64.65 Q15.75 -63.8 15.2 -63.25 14.65 -62.65 13.9 -62.65 13.15 -62.65 12.55 -63.25 12.05 -63.8 12.05 -64.65 12.05 -65.35 12.5 -65.85 L9.2 -65.75 Q8.95 -67.4 10.15 -69.1 11.25 -70.6 13.05 -71.45 14.8 -72.35 16.3 -72.1 18.0 -71.85 18.55 -70.2 L19.25 -70.25 M18.85 -69.05 L17.8 -68.8 17.45 -69.8 Q17.05 -71.0 15.7 -71.0 14.7 -71.0 13.5 -70.4 12.3 -69.8 11.45 -68.85 10.65 -67.9 10.45 -67.0 L12.5 -67.05 Q16.65 -67.05 19.6 -65.95 L20.35 -65.8 20.6 -65.8 20.1 -66.3 18.15 -67.2 20.0 -68.35 20.35 -68.6 19.95 -68.95 19.2 -69.1 18.85 -69.05 M0.1 -57.6 L-3.9 -56.35 Q-5.6 -55.8 -6.25 -57.2 -6.95 -58.65 -4.4 -59.75 -4.9 -59.2 -4.6 -58.7 -4.35 -58.15 -3.35 -58.35 L0.45 -58.75 Q3.25 -58.8 4.1 -58.0 L0.1 -57.6 M28.5 -54.9 Q29.0 -56.1 28.5 -57.6 28.05 -59.1 27.05 -59.9 26.0 -60.8 24.9 -60.35 26.05 -56.65 26.35 -53.1 28.0 -53.5 28.5 -54.9 M22.8 -30.75 L19.05 -27.3 24.45 -22.4 24.45 -17.0 24.4 -12.4 Q23.15 -11.7 22.35 -10.6 21.6 -9.5 21.6 -8.6 21.6 -7.75 22.25 -7.7 22.9 -7.65 23.3 -8.6 L22.35 -6.25 Q22.1 -5.55 23.8 -5.4 25.1 -5.25 26.0 -5.95 L26.95 -7.0 Q27.5 -7.75 27.65 -8.75 27.9 -10.1 27.3 -11.4 L28.7 -18.35 29.7 -24.55 26.6 -27.45 22.8 -30.75 M0.45 -29.25 L-1.9 -33.15 Q-7.45 -34.0 -11.45 -36.1 L-10.7 -30.75 Q-10.0 -25.15 -10.05 -24.15 L-9.15 -22.4 7.9 -21.7 7.05 -26.0 Q7.45 -27.5 10.5 -29.05 12.0 -29.8 13.4 -30.25 L12.65 -33.1 14.9 -29.7 17.7 -28.05 19.75 -29.6 Q22.1 -31.5 23.3 -33.35 L19.55 -35.85 Q16.05 -38.2 14.8 -38.5 L9.7 -35.65 Q4.55 -33.1 1.3 -33.05 L0.45 -29.25 M10.95 -27.5 Q8.9 -26.4 8.6 -25.5 L12.4 -6.2 12.8 -6.2 9.7 -24.85 13.6 -6.2 14.05 -6.2 11.1 -26.15 14.75 -6.25 16.35 -6.25 15.65 -16.15 Q14.8 -26.35 13.85 -28.05 13.05 -28.6 10.95 -27.5 M9.5 -0.95 L13.0 -0.85 11.15 -2.1 12.15 -4.3 11.35 -4.15 11.25 -4.7 9.9 -4.65 9.5 -0.95 M8.15 -20.55 Q3.5 -20.05 -2.15 -20.3 L-8.65 -20.85 -8.75 -20.4 -8.85 -19.95 Q-2.15 -15.2 2.3 -13.9 -1.2 -14.15 -4.7 -16.15 -7.1 -17.5 -9.15 -19.45 L-9.15 -19.35 Q-7.0 -15.75 -4.7 -13.1 -1.15 -9.15 2.3 -7.95 -2.6 -8.45 -5.85 -11.7 -8.2 -14.0 -9.6 -17.6 -10.0 -16.7 -10.9 -15.8 -10.25 -13.15 -8.45 -10.75 -7.5 -8.85 -2.95 -7.25 2.05 -5.55 7.05 -5.85 L10.95 -6.0 8.15 -20.55 M-12.65 -82.75 Q-14.5 -82.45 -15.9 -81.55 -17.3 -80.7 -19.0 -78.85 L-21.9 -76.1 Q-24.35 -73.9 -27.05 -73.05 L-29.45 -71.95 Q-30.5 -71.25 -30.8 -69.7 L-31.25 -68.0 -31.6 -66.3 Q-31.55 -65.4 -32.5 -64.25 L-34.3 -62.4 Q-35.0 -61.65 -34.85 -60.95 L-34.6 -60.45 -32.6 -62.8 Q-30.4 -65.45 -29.55 -65.9 -32.75 -62.85 -34.35 -57.4 -35.85 -52.3 -34.6 -50.2 L-32.75 -51.5 -31.25 -52.05 Q-33.3 -49.75 -33.95 -48.35 -34.45 -47.1 -33.6 -45.15 -32.65 -42.95 -30.75 -42.4 L-28.55 -42.8 -28.4 -42.8 Q-27.65 -39.85 -24.9 -41.1 L-23.2 -41.55 Q-22.35 -41.75 -22.2 -41.9 -21.25 -42.3 -20.8 -43.35 L-24.2 -48.1 -26.2 -51.0 Q-28.6 -50.55 -29.9 -52.45 -31.1 -54.15 -30.9 -56.75 -30.65 -59.4 -29.15 -61.0 -27.45 -62.85 -24.9 -62.25 L-23.85 -65.1 Q-24.2 -65.6 -23.95 -66.3 -23.7 -67.0 -22.95 -67.35 -24.35 -68.2 -23.65 -69.25 -23.0 -70.25 -21.55 -70.25 -17.8 -77.5 -12.75 -80.95 -10.9 -82.2 -8.85 -83.1 L-12.65 -82.75 M-22.7 -68.6 L-20.45 -67.2 -22.45 -66.3 -22.95 -65.8 -22.7 -65.8 -21.95 -65.95 Q-19.0 -67.05 -14.85 -67.05 L-12.75 -67.0 Q-13.05 -68.0 -13.8 -68.85 -14.65 -69.8 -15.8 -70.4 -17.0 -71.0 -18.0 -71.0 -19.35 -71.0 -19.8 -69.8 L-20.15 -68.8 -21.2 -69.05 -21.55 -69.1 -22.3 -68.95 -22.7 -68.6 M-26.8 -52.25 L-27.5 -53.5 -25.35 -60.9 Q-26.9 -61.3 -28.0 -60.1 -29.0 -59.0 -29.3 -57.15 -29.55 -55.35 -28.95 -53.95 -28.3 -52.4 -26.8 -52.25 M-4.0 -63.2 Q-4.15 -62.55 -3.2 -61.65 -5.2 -62.85 -5.1 -63.9 -5.05 -64.75 -3.7 -65.0 L-1.15 -64.65 Q0.15 -63.95 0.05 -62.45 -0.75 -64.1 -3.0 -63.8 -3.85 -63.7 -4.0 -63.2 M-2.95 -55.3 Q-3.35 -56.0 -1.05 -56.25 1.2 -56.55 0.65 -55.55 0.05 -54.6 -1.25 -54.55 -2.45 -54.5 -2.95 -55.3 M-12.0 -25.75 L-11.0 -24.95 -13.9 -37.0 -15.0 -37.65 Q-15.8 -37.8 -19.05 -35.1 -22.3 -32.4 -23.4 -30.6 L-17.75 -27.0 -14.85 -24.8 -13.65 -25.8 -15.2 -28.35 Q-16.65 -31.2 -16.5 -33.75 L-13.95 -29.7 -12.0 -25.75 M-26.05 -25.15 L-29.85 -20.85 Q-28.85 -19.95 -24.25 -18.25 -19.05 -16.35 -14.5 -15.5 -12.75 -15.8 -11.35 -17.85 -10.25 -19.45 -10.0 -21.05 -10.35 -22.15 -11.05 -22.75 -11.55 -23.2 -12.95 -23.85 -14.25 -23.0 -15.4 -21.7 L-16.65 -20.25 Q-20.55 -21.7 -21.3 -22.2 L-19.15 -24.35 -17.75 -25.6 Q-19.7 -27.05 -22.7 -28.55 L-26.05 -25.15 M-15.35 -13.95 L-15.4 -10.7 Q-15.35 -7.9 -14.95 -6.05 -13.2 -6.4 -7.85 -8.45 -8.65 -9.0 -10.05 -11.5 -11.4 -13.9 -11.65 -15.15 L-13.0 -14.5 Q-14.1 -14.0 -15.35 -13.95 M-7.8 -4.05 Q-7.95 -6.25 -7.7 -6.8 L-10.6 -5.9 -8.65 -2.15 -10.45 -0.9 -7.25 -0.9 Q-7.7 -1.75 -7.8 -4.05" fill="#000000" fill-rule="evenodd" stroke="none"/>
  </g>
</svg>
