<?xml version="1.0" encoding="UTF-8" standalone="no"?>
<svg xmlns:ffdec="https://www.free-decompiler.com/flash" xmlns:xlink="http://www.w3.org/1999/xlink" ffdec:objectType="shape" height="82.45px" width="80.0px" xmlns="http://www.w3.org/2000/svg">
  <g transform="matrix(1.0, 0.0, 0.0, 1.0, 40.0, 82.45)">
    <path d="M-24.7 -70.5 Q-25.3 -68.35 -29.75 -62.95 L-34.1 -57.95 -32.2 -58.3 -29.55 -58.6 -31.65 -47.3 -31.55 -47.35 Q-30.9 -47.75 -30.15 -47.15 L-29.55 -46.45 -30.0 -44.05 Q-28.7 -46.0 -28.1 -46.25 -26.6 -42.75 -25.9 -40.15 L-24.9 -35.75 Q-23.3 -36.65 -22.0 -38.2 L-20.65 -39.95 -19.4 -39.3 -22.5 -44.05 -24.85 -48.05 Q-26.5 -48.25 -27.55 -49.75 -28.6 -51.3 -28.5 -53.2 -28.4 -55.25 -27.1 -56.8 -25.55 -58.5 -22.75 -58.95 -21.05 -62.35 -18.6 -65.6 L-19.6 -65.15 Q-20.7 -64.6 -20.85 -65.3 -21.05 -65.95 -20.45 -66.75 L-18.85 -67.75 -16.15 -68.65 -16.0 -68.85 -15.9 -73.55 -15.2 -73.2 Q-14.5 -72.75 -13.75 -72.6 L-13.3 -74.25 -0.25 -74.85 10.65 -73.95 11.55 -74.9 12.25 -75.75 Q13.35 -75.6 14.05 -74.45 14.7 -73.4 14.85 -72.0 L16.8 -71.1 Q18.15 -70.1 16.2 -68.6 L17.35 -67.1 19.2 -65.7 19.55 -64.75 19.4 -64.05 21.75 -60.15 22.3 -59.05 Q25.45 -58.75 27.2 -56.95 28.7 -55.4 28.8 -53.2 28.9 -51.1 27.75 -49.55 26.5 -47.95 24.65 -48.0 22.55 -44.05 18.1 -37.6 L17.35 -36.6 21.55 -39.9 Q23.15 -39.5 24.15 -38.75 L27.25 -35.85 Q27.85 -36.85 28.1 -38.4 L28.6 -42.95 30.5 -41.5 29.5 -46.45 30.15 -47.15 Q30.9 -47.75 31.5 -47.35 L31.95 -47.05 Q30.1 -55.7 29.15 -57.15 31.4 -55.6 32.0 -55.35 33.35 -54.75 35.25 -54.95 33.5 -56.6 28.95 -64.0 L24.75 -71.05 26.4 -70.15 Q28.3 -69.25 29.5 -69.4 L21.2 -74.65 Q14.9 -78.7 11.2 -79.7 L2.45 -80.65 -8.05 -80.25 Q-12.55 -79.7 -17.4 -77.3 L-29.45 -70.25 Q-27.3 -69.4 -24.7 -70.5 M-30.0 -68.7 L-32.6 -69.7 -22.65 -76.1 Q-14.2 -81.2 -8.6 -82.05 L1.75 -82.4 11.25 -81.5 Q15.55 -80.5 19.95 -77.7 L25.5 -73.8 30.1 -70.3 Q33.0 -68.2 34.4 -68.65 33.1 -67.45 31.4 -67.3 L28.25 -67.75 32.95 -60.65 Q36.25 -55.75 38.45 -53.65 L35.6 -53.15 32.35 -53.55 33.5 -47.05 34.7 -48.4 Q35.6 -49.05 37.85 -48.4 L40.0 -47.65 37.8 -36.75 31.65 -20.3 16.95 -21.95 17.15 -20.25 17.35 -15.15 17.05 -12.6 16.85 -11.95 16.25 -10.9 15.4 -10.4 Q15.85 -8.2 15.45 -6.4 14.8 -3.85 12.45 -2.55 14.0 -2.4 15.3 -1.2 L16.3 0.0 7.0 0.0 9.2 -3.4 Q10.05 -4.9 10.1 -6.05 6.0 -7.25 1.75 -7.55 L-0.4 -7.55 -1.65 -7.6 Q-5.55 -7.4 -9.5 -6.05 -9.45 -4.9 -8.65 -3.4 L-6.4 0.0 -15.7 0.0 -14.7 -1.2 Q-13.4 -2.4 -11.9 -2.55 -14.3 -3.85 -14.9 -6.5 -15.3 -8.35 -14.8 -10.6 L-15.9 -11.25 Q-17.55 -13.4 -17.7 -16.35 L-17.45 -21.45 -17.4 -21.95 -31.7 -20.3 -37.85 -36.75 -40.0 -47.65 -37.9 -48.4 Q-35.65 -49.05 -34.75 -48.4 -33.85 -47.75 -33.4 -46.8 L-33.1 -45.95 -32.9 -46.2 -32.5 -51.9 -32.0 -56.15 -33.85 -56.1 -37.65 -56.65 Q-35.35 -58.6 -32.05 -62.3 -28.7 -66.2 -27.45 -68.45 L-30.0 -68.7 M-26.95 -54.55 Q-27.35 -52.45 -25.7 -50.6 -24.75 -54.2 -23.45 -57.4 -26.45 -56.9 -26.95 -54.55 M-32.1 -45.05 L-33.4 -43.25 -33.65 -44.5 Q-34.1 -45.9 -34.9 -46.7 -35.7 -47.55 -37.15 -47.2 L-38.5 -46.7 -36.3 -36.95 -32.4 -38.4 -30.75 -45.8 Q-30.85 -45.75 -31.1 -45.65 L-32.1 -45.05 M-28.15 -42.6 L-28.95 -41.55 -31.0 -39.1 -31.3 -37.7 -27.5 -29.45 -15.35 -32.85 -15.25 -33.25 -15.2 -33.25 -17.5 -36.5 -20.05 -37.7 -22.1 -36.1 Q-24.25 -34.45 -25.85 -32.75 L-26.95 -38.3 -28.15 -42.6 M-10.9 -27.4 L-13.85 -29.75 -13.9 -29.65 -13.9 -29.75 -15.15 -30.85 -28.0 -27.6 -32.25 -37.15 -35.4 -35.45 -30.75 -22.4 -14.9 -24.25 -15.35 -21.15 Q-16.0 -14.6 -14.5 -12.9 -12.1 -11.45 -7.6 -10.5 L-0.35 -9.75 1.65 -9.75 6.95 -10.2 Q11.3 -10.85 14.15 -12.2 L14.75 -12.55 14.95 -13.15 15.2 -15.25 15.05 -20.0 14.5 -24.3 30.7 -22.4 35.35 -35.45 32.2 -37.15 27.95 -27.6 15.75 -30.7 11.35 -26.9 10.7 -28.3 13.0 -30.6 9.85 -29.65 8.35 -31.4 12.8 -33.1 12.8 -33.25 13.0 -34.15 13.0 -34.2 13.05 -34.25 16.35 -38.9 Q21.25 -46.0 23.15 -49.8 L23.35 -50.25 23.3 -50.55 22.95 -52.0 22.1 -54.65 20.3 -59.45 18.3 -64.2 18.25 -64.2 16.05 -65.4 Q13.6 -66.55 12.3 -66.4 10.7 -66.25 10.35 -67.55 9.95 -68.85 11.8 -68.85 13.9 -68.8 16.85 -67.35 L16.2 -68.6 15.85 -68.35 Q16.35 -69.15 15.95 -70.1 15.45 -71.2 13.9 -71.25 13.95 -72.25 13.45 -73.3 L12.65 -74.65 11.9 -73.7 11.25 -73.25 -0.3 -73.9 Q-10.65 -74.4 -12.35 -73.7 L-13.25 -71.65 -15.25 -72.3 Q-15.1 -71.4 -15.9 -69.0 L-15.55 -69.4 -15.9 -68.7 -12.75 -69.05 Q-10.9 -68.85 -11.4 -67.6 -11.9 -66.35 -13.5 -66.7 L-17.4 -66.1 -20.85 -58.85 Q-22.4 -54.95 -23.65 -50.1 L-21.4 -46.4 -17.15 -39.85 -13.2 -34.15 -13.2 -34.25 -13.1 -33.45 -12.95 -33.5 -7.9 -31.6 -9.25 -30.2 -13.4 -31.6 -13.5 -31.25 -10.35 -28.55 -10.9 -27.4 M24.9 -52.6 L25.35 -51.05 25.45 -50.75 25.45 -50.15 Q27.7 -51.95 27.25 -54.45 26.8 -57.2 23.05 -57.5 L23.95 -55.4 24.9 -52.6 M18.0 -57.2 Q17.7 -55.65 17.05 -55.2 15.75 -53.75 13.9 -54.3 12.1 -53.75 10.8 -55.2 10.15 -55.65 9.85 -57.2 9.5 -59.0 10.4 -60.35 11.2 -61.65 12.65 -62.1 L13.9 -62.35 15.15 -62.1 Q16.7 -61.65 17.45 -60.35 18.35 -59.0 18.0 -57.2 M-15.6 -62.1 L-14.35 -62.35 -13.1 -62.1 Q-11.6 -61.65 -10.85 -60.35 -9.9 -59.0 -10.25 -57.2 -10.55 -55.65 -11.25 -55.2 -12.55 -53.75 -14.35 -54.3 -16.15 -53.75 -17.45 -55.2 -18.15 -55.65 -18.4 -57.2 -18.8 -59.0 -17.85 -60.35 -17.1 -61.65 -15.6 -62.1 M-14.35 -59.9 Q-13.6 -59.9 -13.05 -59.35 -12.5 -58.8 -12.5 -58.05 -12.5 -57.25 -13.05 -56.7 -13.6 -56.15 -14.35 -56.15 -15.1 -56.15 -15.6 -56.7 -16.15 -57.25 -16.15 -58.05 -16.15 -58.8 -15.6 -59.35 -15.1 -59.9 -14.35 -59.9 M-14.55 -61.5 L-15.5 -61.35 Q-16.7 -61.05 -17.25 -60.1 -17.95 -59.1 -17.65 -57.35 -17.4 -55.85 -16.9 -55.5 L-15.75 -54.75 -14.35 -54.3 -12.95 -54.8 -11.8 -55.6 Q-11.3 -56.0 -11.05 -57.3 -10.75 -58.9 -11.45 -59.9 -12.0 -60.85 -13.35 -61.3 L-14.55 -61.5 M-1.75 -57.95 Q0.3 -58.75 1.9 -55.4 -0.05 -57.05 -1.0 -57.05 -2.05 -57.0 -2.3 -55.05 -2.95 -55.95 -2.75 -56.8 -2.55 -57.65 -1.75 -57.95 M15.1 -61.35 L14.1 -61.5 12.9 -61.3 Q11.6 -60.85 11.0 -59.9 10.35 -58.9 10.65 -57.3 10.9 -56.0 11.4 -55.6 11.85 -55.1 12.55 -54.8 12.95 -54.6 13.9 -54.3 L15.3 -54.75 16.5 -55.5 Q16.95 -55.85 17.2 -57.35 17.55 -59.1 16.85 -60.1 16.3 -61.05 15.1 -61.35 M15.25 -59.35 Q15.75 -58.8 15.75 -58.05 15.75 -57.25 15.25 -56.7 14.7 -56.15 13.9 -56.15 13.2 -56.15 12.65 -56.7 12.1 -57.25 12.1 -58.05 12.1 -58.8 12.65 -59.35 13.2 -59.9 13.9 -59.9 14.7 -59.9 15.25 -59.35 M10.8 -53.15 Q14.75 -51.7 13.75 -50.3 12.8 -48.95 11.1 -49.1 9.85 -49.25 7.7 -50.45 7.9 -49.65 6.7 -49.15 6.5 -44.7 5.1 -42.05 3.25 -38.55 -0.55 -38.8 -4.35 -39.1 -5.85 -43.4 -7.3 -47.55 -5.05 -49.85 L-5.35 -50.1 -5.6 -50.45 Q-5.8 -50.05 -8.3 -49.45 -10.95 -48.8 -11.6 -49.7 -12.45 -50.9 -9.35 -52.75 -6.1 -54.65 -2.95 -54.2 -5.05 -53.55 -7.3 -52.35 -10.05 -51.0 -9.85 -50.35 L-7.8 -50.55 -4.75 -51.4 Q-4.75 -50.55 -3.25 -50.3 L-0.8 -50.4 1.65 -50.95 2.35 -50.95 4.15 -50.6 Q5.5 -50.15 6.4 -50.2 L6.7 -50.45 Q6.9 -50.8 6.45 -51.5 L10.05 -50.55 12.6 -50.45 Q12.7 -51.5 9.05 -52.6 L3.7 -53.85 Q6.75 -54.6 10.8 -53.15 M3.85 -49.55 L2.25 -49.85 1.7 -49.85 0.55 -49.65 Q-0.4 -45.25 -0.2 -41.2 -1.1 -42.9 -1.05 -45.75 L-0.65 -49.3 Q-2.95 -48.7 -4.2 -49.25 -6.2 -46.45 -4.45 -43.15 -2.9 -40.0 -0.4 -39.9 2.2 -39.75 3.9 -42.85 5.4 -45.5 5.6 -49.15 L3.85 -49.55 M3.65 -27.9 L3.7 -27.95 Q5.9 -29.8 6.6 -29.4 L6.9 -28.85 Q6.85 -28.15 6.1 -26.65 L5.4 -25.4 5.0 -24.75 6.0 -25.1 6.05 -25.1 6.8 -25.3 9.45 -25.55 9.5 -25.45 Q9.55 -24.95 6.95 -23.55 L3.7 -21.9 6.15 -18.55 Q7.85 -15.8 7.4 -14.9 7.0 -14.0 4.7 -15.5 2.75 -16.75 0.5 -19.0 L-2.25 -16.35 Q-4.45 -14.45 -5.2 -14.8 -5.95 -15.2 -4.7 -17.6 L-3.9 -19.0 -5.65 -18.5 -8.3 -18.35 Q-8.35 -18.85 -5.8 -20.25 L-2.25 -21.95 -3.1 -23.0 -5.0 -25.7 -5.05 -25.8 Q-6.65 -28.35 -6.4 -29.3 L-6.35 -29.45 Q-5.95 -30.35 -3.6 -28.85 L-2.35 -27.95 -1.65 -27.4 0.8 -25.1 2.7 -27.05 3.65 -27.9 M15.05 -33.0 L15.05 -32.9 27.45 -29.45 31.2 -37.7 31.2 -37.8 29.7 -39.0 Q29.4 -37.3 28.75 -35.7 27.85 -33.6 26.65 -32.75 25.8 -34.3 24.2 -35.85 22.7 -37.35 21.85 -37.6 20.5 -37.0 18.45 -35.5 L15.05 -33.0 M2.3 -23.55 L3.05 -22.7 3.9 -24.05 2.3 -23.55 M3.55 -22.65 L3.35 -22.35 3.5 -22.15 4.8 -22.85 5.8 -23.5 Q6.45 -23.95 6.4 -24.25 6.4 -24.6 4.65 -24.25 L3.55 -22.65 M2.75 -22.25 L2.65 -22.45 1.8 -23.35 1.45 -23.25 1.55 -22.65 1.5 -22.3 1.1 -21.65 Q0.7 -21.25 0.1 -21.25 -0.5 -21.25 -0.9 -21.65 L-1.2 -22.1 -1.45 -21.75 -0.35 -20.5 0.7 -20.9 2.15 -21.55 2.75 -22.25 M3.05 -21.9 L3.0 -21.95 2.95 -21.9 3.05 -21.9 M4.7 -25.85 Q4.95 -26.7 4.55 -26.9 4.2 -27.1 3.45 -26.65 L2.45 -26.0 Q1.8 -25.5 1.1 -24.8 L1.55 -24.35 2.1 -23.75 2.7 -24.0 4.15 -24.5 4.4 -25.0 4.7 -25.85 M-5.25 -19.6 L-3.55 -19.5 -2.0 -21.7 -2.05 -21.75 -3.6 -20.95 -5.25 -19.6 M-4.0 -26.2 L-3.45 -24.8 -3.25 -24.4 -3.2 -24.35 -2.15 -22.7 -1.75 -22.2 -1.6 -22.25 -1.4 -22.5 -1.35 -22.6 -1.35 -22.65 Q-1.35 -23.25 -0.9 -23.7 L-0.1 -24.1 0.5 -24.75 -2.1 -26.75 -2.5 -26.95 Q-3.7 -27.55 -3.95 -26.95 L-4.0 -26.2 M1.3 -23.45 L1.65 -23.55 1.35 -23.9 0.75 -24.45 0.4 -24.1 1.1 -23.7 1.3 -23.45 M3.15 -17.6 Q4.7 -16.7 5.05 -17.4 5.35 -18.1 4.3 -20.05 L3.2 -21.7 2.6 -21.45 2.45 -21.25 0.85 -19.35 Q2.05 -18.2 3.15 -17.6 M-0.8 -20.35 L-1.75 -21.35 -2.75 -19.7 -0.8 -20.35 M0.2 -19.3 L-0.5 -20.0 -0.6 -20.15 -2.95 -19.3 -3.0 -19.25 Q-3.7 -17.65 -3.15 -17.35 -2.6 -17.05 -1.05 -18.25 L0.2 -19.3 M1.85 -21.1 L0.7 -20.65 -0.15 -20.3 0.5 -19.65 1.85 -21.1 M34.85 -46.7 Q34.05 -45.9 33.6 -44.5 L33.35 -43.25 32.05 -45.05 31.05 -45.65 30.7 -45.8 32.35 -38.4 36.25 -36.95 38.45 -46.7 37.15 -47.2 Q35.65 -47.55 34.85 -46.7" fill="#000000" fill-rule="evenodd" stroke="none"/>
    <path d="M-24.7 -70.5 Q-27.3 -69.4 -29.45 -70.25 L-17.4 -77.3 Q-12.55 -79.7 -8.05 -80.25 L2.45 -80.65 11.2 -79.7 Q14.9 -78.7 21.2 -74.65 L29.5 -69.4 Q28.3 -69.25 26.4 -70.15 L24.75 -71.05 28.95 -64.0 Q33.5 -56.6 35.25 -54.95 33.35 -54.75 32.0 -55.35 31.4 -55.6 29.15 -57.15 30.1 -55.7 31.95 -47.05 L31.5 -47.35 Q30.9 -47.75 30.15 -47.15 L29.5 -46.45 30.5 -41.5 28.6 -42.95 28.1 -38.4 Q27.85 -36.85 27.25 -35.85 L24.15 -38.75 Q23.15 -39.5 21.55 -39.9 L17.35 -36.6 18.1 -37.6 Q22.55 -44.05 24.65 -48.0 26.5 -47.95 27.75 -49.55 28.9 -51.1 28.8 -53.2 28.7 -55.4 27.2 -56.95 25.45 -58.75 22.3 -59.05 L21.75 -60.15 19.4 -64.05 19.55 -64.75 19.2 -65.7 17.35 -67.1 16.2 -68.6 Q18.15 -70.1 16.8 -71.1 L14.85 -72.0 Q14.7 -73.4 14.05 -74.45 13.35 -75.6 12.25 -75.75 L11.55 -74.9 10.65 -73.95 -0.25 -74.85 -13.3 -74.25 -13.75 -72.6 Q-14.5 -72.75 -15.2 -73.2 L-15.9 -73.55 -16.0 -68.85 -16.15 -68.65 -18.85 -67.75 -20.45 -66.75 Q-21.05 -65.95 -20.85 -65.3 -20.7 -64.6 -19.6 -65.15 L-18.6 -65.6 Q-21.05 -62.35 -22.75 -58.95 -25.55 -58.5 -27.1 -56.8 -28.4 -55.25 -28.5 -53.2 -28.6 -51.3 -27.55 -49.75 -26.5 -48.25 -24.85 -48.05 L-22.5 -44.05 -19.4 -39.3 -20.65 -39.95 -22.0 -38.2 Q-23.3 -36.65 -24.9 -35.75 L-25.9 -40.15 Q-26.6 -42.75 -28.1 -46.25 -28.7 -46.0 -30.0 -44.05 L-29.55 -46.45 -30.15 -47.15 Q-30.9 -47.75 -31.55 -47.35 L-31.65 -47.3 -29.55 -58.6 -32.2 -58.3 -34.1 -57.95 -29.75 -62.95 Q-25.3 -68.35 -24.7 -70.5 M-32.1 -45.05 L-31.1 -45.65 Q-30.85 -45.75 -30.75 -45.8 L-32.4 -38.4 -36.3 -36.95 -38.5 -46.7 -37.15 -47.2 Q-35.7 -47.55 -34.9 -46.7 -34.1 -45.9 -33.65 -44.5 L-33.4 -43.25 -32.1 -45.05 M-26.95 -54.55 Q-26.45 -56.9 -23.45 -57.4 -24.75 -54.2 -25.7 -50.6 -27.35 -52.45 -26.95 -54.55 M11.35 -26.9 L15.75 -30.7 27.95 -27.6 32.2 -37.15 35.35 -35.45 30.7 -22.4 14.5 -24.3 15.05 -20.0 15.2 -15.25 14.95 -13.15 14.75 -12.55 14.15 -12.2 Q11.3 -10.85 6.95 -10.2 L1.65 -9.75 -0.35 -9.75 -7.6 -10.5 Q-12.1 -11.45 -14.5 -12.9 -16.0 -14.6 -15.35 -21.15 L-14.9 -24.25 -30.75 -22.4 -35.4 -35.45 -32.25 -37.15 -28.0 -27.6 -15.15 -30.85 -13.9 -29.75 -13.9 -29.65 -13.85 -29.75 -10.9 -27.4 -11.75 -24.55 Q-12.1 -22.15 -11.65 -20.05 -10.85 -16.85 -8.8 -14.6 -6.7 -12.45 -4.4 -11.65 L0.25 -11.2 Q2.95 -11.05 4.9 -11.75 7.15 -12.6 9.2 -14.85 11.25 -17.2 11.9 -20.4 12.3 -22.5 11.9 -24.85 L11.35 -26.9 M-10.35 -28.55 L-13.5 -31.25 -13.4 -31.6 -9.25 -30.2 -10.1 -29.0 -10.35 -28.55 M-7.9 -31.6 L-12.95 -33.5 -13.1 -33.45 -13.2 -34.25 -13.2 -34.15 -17.15 -39.85 -21.4 -46.4 -23.65 -50.1 Q-22.4 -54.95 -20.85 -58.85 L-17.4 -66.1 -13.5 -66.7 Q-11.9 -66.35 -11.4 -67.6 -10.9 -68.85 -12.75 -69.05 L-15.9 -68.7 -15.55 -69.4 -15.9 -69.0 Q-15.1 -71.4 -15.25 -72.3 L-13.25 -71.65 -12.35 -73.7 Q-10.65 -74.4 -0.3 -73.9 L11.25 -73.25 11.9 -73.7 12.65 -74.65 13.45 -73.3 Q13.95 -72.25 13.9 -71.25 15.45 -71.2 15.95 -70.1 16.35 -69.15 15.85 -68.35 L16.2 -68.6 16.85 -67.35 Q13.9 -68.8 11.8 -68.85 9.95 -68.85 10.35 -67.55 10.7 -66.25 12.3 -66.4 13.6 -66.55 16.05 -65.4 L18.25 -64.2 18.3 -64.2 20.3 -59.45 22.1 -54.65 22.95 -52.0 23.3 -50.55 23.35 -50.25 23.15 -49.8 Q21.25 -46.0 16.35 -38.9 L13.05 -34.25 13.0 -34.2 13.0 -34.15 12.8 -33.25 12.8 -33.1 8.35 -31.4 Q6.45 -33.2 3.8 -34.05 L1.1 -34.6 -0.05 -34.7 Q-1.8 -34.65 -3.9 -33.9 -6.25 -33.1 -7.9 -31.6 M9.85 -29.65 L13.0 -30.6 10.7 -28.3 10.15 -29.25 9.85 -29.65 M3.85 -49.55 L5.6 -49.15 Q5.4 -45.5 3.9 -42.85 2.2 -39.75 -0.4 -39.9 -2.9 -40.0 -4.45 -43.15 -6.2 -46.45 -4.2 -49.25 -2.95 -48.7 -0.65 -49.3 L-1.05 -45.75 Q-1.1 -42.9 -0.2 -41.2 -0.4 -45.25 0.55 -49.65 L1.7 -49.85 2.25 -49.85 3.85 -49.55 M10.8 -53.15 Q6.75 -54.6 3.7 -53.85 L9.05 -52.6 Q12.7 -51.5 12.6 -50.45 L10.05 -50.55 6.45 -51.5 Q6.9 -50.8 6.7 -50.45 L6.4 -50.2 Q5.5 -50.15 4.15 -50.6 L2.35 -50.95 1.65 -50.95 -0.8 -50.4 -3.25 -50.3 Q-4.75 -50.55 -4.75 -51.4 L-7.8 -50.55 -9.85 -50.35 Q-10.05 -51.0 -7.3 -52.35 -5.05 -53.55 -2.95 -54.2 -6.1 -54.65 -9.35 -52.75 -12.45 -50.9 -11.6 -49.7 -10.95 -48.8 -8.3 -49.45 -5.8 -50.05 -5.6 -50.45 L-5.35 -50.1 -5.05 -49.85 Q-7.3 -47.55 -5.85 -43.4 -4.35 -39.1 -0.55 -38.8 3.25 -38.55 5.1 -42.05 6.5 -44.7 6.7 -49.15 7.9 -49.65 7.7 -50.45 9.85 -49.25 11.1 -49.1 12.8 -48.95 13.75 -50.3 14.75 -51.7 10.8 -53.15 M15.25 -59.35 Q14.7 -59.9 13.9 -59.9 13.2 -59.9 12.65 -59.35 12.1 -58.8 12.1 -58.05 12.1 -57.25 12.65 -56.7 13.2 -56.15 13.9 -56.15 14.7 -56.15 15.25 -56.7 15.75 -57.25 15.75 -58.05 15.75 -58.8 15.25 -59.35 M15.1 -61.35 Q16.3 -61.05 16.85 -60.1 17.55 -59.1 17.2 -57.35 16.95 -55.85 16.5 -55.5 L15.3 -54.75 13.9 -54.3 Q12.95 -54.6 12.55 -54.8 11.85 -55.1 11.4 -55.6 10.9 -56.0 10.65 -57.3 10.35 -58.9 11.0 -59.9 11.6 -60.85 12.9 -61.3 L14.1 -61.5 15.1 -61.35 M-1.75 -57.95 Q-2.55 -57.65 -2.75 -56.8 -2.95 -55.95 -2.3 -55.05 -2.05 -57.0 -1.0 -57.05 -0.05 -57.05 1.9 -55.4 0.3 -58.75 -1.75 -57.95 M-14.55 -61.5 L-13.35 -61.3 Q-12.0 -60.85 -11.45 -59.9 -10.75 -58.9 -11.05 -57.3 -11.3 -56.0 -11.8 -55.6 L-12.95 -54.8 -14.35 -54.3 -15.75 -54.75 -16.9 -55.5 Q-17.4 -55.85 -17.65 -57.35 -17.95 -59.1 -17.25 -60.1 -16.7 -61.05 -15.5 -61.35 L-14.55 -61.5 M-14.35 -59.9 Q-15.1 -59.9 -15.6 -59.35 -16.15 -58.8 -16.15 -58.05 -16.15 -57.25 -15.6 -56.7 -15.1 -56.15 -14.35 -56.15 -13.6 -56.15 -13.05 -56.7 -12.5 -57.25 -12.5 -58.05 -12.5 -58.8 -13.05 -59.35 -13.6 -59.9 -14.35 -59.9 M-15.6 -62.1 Q-17.1 -61.65 -17.85 -60.35 -18.8 -59.0 -18.4 -57.2 -18.15 -55.65 -17.45 -55.2 -16.15 -53.75 -14.35 -54.3 -12.55 -53.75 -11.25 -55.2 -10.55 -55.65 -10.25 -57.2 -9.9 -59.0 -10.85 -60.35 -11.6 -61.65 -13.1 -62.1 L-14.35 -62.35 -15.6 -62.1 M18.0 -57.2 Q18.35 -59.0 17.45 -60.35 16.7 -61.65 15.15 -62.1 L13.9 -62.35 12.65 -62.1 Q11.2 -61.65 10.4 -60.35 9.5 -59.0 9.85 -57.2 10.15 -55.65 10.8 -55.2 12.1 -53.75 13.9 -54.3 15.75 -53.75 17.05 -55.2 17.7 -55.65 18.0 -57.2 M24.9 -52.6 L23.95 -55.4 23.05 -57.5 Q26.8 -57.2 27.25 -54.45 27.7 -51.95 25.45 -50.15 L25.45 -50.75 25.35 -51.05 24.9 -52.6 M0.25 -11.2 Q-2.35 -11.55 -4.1 -12.4 -6.05 -13.35 -7.95 -15.35 -9.85 -17.55 -10.55 -20.3 -10.95 -22.25 -10.65 -24.35 L-9.95 -26.75 -9.45 -27.85 -9.15 -28.4 -8.1 -29.85 -6.7 -31.1 Q-5.35 -32.25 -3.55 -32.85 L-0.05 -33.6 3.45 -33.0 Q5.6 -32.3 7.15 -31.0 L8.7 -29.35 9.2 -28.6 9.85 -27.55 10.4 -26.2 10.8 -24.65 Q11.2 -22.55 10.8 -20.6 10.2 -17.65 8.35 -15.6 6.5 -13.55 4.55 -12.55 2.85 -11.6 0.25 -11.2 M3.65 -27.9 L2.7 -27.05 0.8 -25.1 -1.65 -27.4 -2.35 -27.95 -3.6 -28.85 Q-5.95 -30.35 -6.35 -29.45 L-6.4 -29.3 Q-6.65 -28.35 -5.05 -25.8 L-5.0 -25.7 -3.1 -23.0 -2.25 -21.95 -5.8 -20.25 Q-8.35 -18.85 -8.3 -18.35 L-5.65 -18.5 -3.9 -19.0 -4.7 -17.6 Q-5.95 -15.2 -5.2 -14.8 -4.45 -14.45 -2.25 -16.35 L0.5 -19.0 Q2.75 -16.75 4.7 -15.5 7.0 -14.0 7.4 -14.9 7.85 -15.8 6.15 -18.55 L3.7 -21.9 6.95 -23.55 Q9.55 -24.95 9.5 -25.45 L9.45 -25.55 6.8 -25.3 6.05 -25.1 6.0 -25.1 5.0 -24.75 5.4 -25.4 6.1 -26.65 Q6.85 -28.15 6.9 -28.85 L6.6 -29.4 Q5.9 -29.8 3.7 -27.95 L3.65 -27.9 M-4.0 -26.2 L-3.95 -26.95 Q-3.7 -27.55 -2.5 -26.95 L-2.1 -26.75 0.5 -24.75 -0.1 -24.1 -0.9 -23.7 Q-1.35 -23.25 -1.35 -22.65 L-1.35 -22.6 -1.4 -22.5 -1.6 -22.25 -1.75 -22.2 -2.15 -22.7 -3.2 -24.35 -3.25 -24.4 -3.45 -24.8 -4.0 -26.2 M-5.25 -19.6 L-3.6 -20.95 -2.05 -21.75 -2.0 -21.7 -3.55 -19.5 -5.25 -19.6 M4.7 -25.85 L4.4 -25.0 4.15 -24.5 2.7 -24.0 2.1 -23.75 1.55 -24.35 1.1 -24.8 Q1.8 -25.5 2.45 -26.0 L3.45 -26.65 Q4.2 -27.1 4.55 -26.9 4.95 -26.7 4.7 -25.85 M3.05 -21.9 L2.95 -21.9 3.0 -21.95 3.05 -21.9 M2.75 -22.25 L2.15 -21.55 0.7 -20.9 -0.35 -20.5 -1.45 -21.75 -1.2 -22.1 -0.9 -21.65 Q-0.5 -21.25 0.1 -21.25 0.7 -21.25 1.1 -21.65 L1.5 -22.3 1.55 -22.65 1.45 -23.25 1.8 -23.35 2.65 -22.45 2.75 -22.25 M3.55 -22.65 L4.65 -24.25 Q6.4 -24.6 6.4 -24.25 6.45 -23.95 5.8 -23.5 L4.8 -22.85 3.5 -22.15 3.35 -22.35 3.55 -22.65 M2.3 -23.55 L3.9 -24.05 3.05 -22.7 2.3 -23.55 M1.3 -23.45 L1.1 -23.7 0.4 -24.1 0.75 -24.45 1.35 -23.9 1.65 -23.55 1.3 -23.45 M1.85 -21.1 L0.5 -19.65 -0.15 -20.3 0.7 -20.65 1.85 -21.1 M0.2 -19.3 L-1.05 -18.25 Q-2.6 -17.05 -3.15 -17.35 -3.7 -17.65 -3.0 -19.25 L-2.95 -19.3 -0.6 -20.15 -0.5 -20.0 0.2 -19.3 M-0.8 -20.35 L-2.75 -19.7 -1.75 -21.35 -0.8 -20.35 M3.15 -17.6 Q2.05 -18.2 0.85 -19.35 L2.45 -21.25 2.6 -21.45 3.2 -21.7 4.3 -20.05 Q5.35 -18.1 5.05 -17.4 4.7 -16.7 3.15 -17.6 M34.85 -46.7 Q35.65 -47.55 37.15 -47.2 L38.45 -46.7 36.25 -36.95 32.35 -38.4 30.7 -45.8 31.05 -45.65 32.05 -45.05 33.35 -43.25 33.6 -44.5 Q34.05 -45.9 34.85 -46.7" fill="#ffffff" fill-rule="evenodd" stroke="none"/>
    <path d="M-10.9 -27.4 L-10.35 -28.55 -10.1 -29.0 -9.25 -30.2 -7.9 -31.6 Q-6.25 -33.1 -3.9 -33.9 -1.8 -34.65 -0.05 -34.7 L1.1 -34.6 3.8 -34.05 Q6.45 -33.2 8.35 -31.4 L9.85 -29.65 10.15 -29.25 10.7 -28.3 11.35 -26.9 11.9 -24.85 Q12.3 -22.5 11.9 -20.4 11.25 -17.2 9.2 -14.85 7.15 -12.6 4.9 -11.75 2.95 -11.05 0.25 -11.2 L-4.4 -11.65 Q-6.7 -12.45 -8.8 -14.6 -10.85 -16.85 -11.65 -20.05 -12.1 -22.15 -11.75 -24.55 L-10.9 -27.4 M0.25 -11.2 Q2.85 -11.6 4.55 -12.55 6.5 -13.55 8.35 -15.6 10.2 -17.65 10.8 -20.6 11.2 -22.55 10.8 -24.65 L10.4 -26.2 9.85 -27.55 9.2 -28.6 8.7 -29.35 7.15 -31.0 Q5.6 -32.3 3.45 -33.0 L-0.05 -33.6 -3.55 -32.85 Q-5.35 -32.25 -6.7 -31.1 L-8.1 -29.85 -9.15 -28.4 -9.45 -27.85 -9.95 -26.75 -10.65 -24.35 Q-10.95 -22.25 -10.55 -20.3 -9.85 -17.55 -7.95 -15.35 -6.05 -13.35 -4.1 -12.4 -2.35 -11.55 0.25 -11.2" fill="#262626" fill-rule="evenodd" stroke="none"/>
  </g>
</svg>
