<?xml version="1.0" encoding="UTF-8" standalone="no"?>
<svg xmlns:ffdec="https://www.free-decompiler.com/flash" xmlns:xlink="http://www.w3.org/1999/xlink" ffdec:objectType="shape" height="85.0px" width="79.05px" xmlns="http://www.w3.org/2000/svg">
  <g transform="matrix(1.0, 0.0, 0.0, 1.0, 39.5, 85.0)">
    <path d="M-19.75 -61.7 Q-19.75 -64.55 -19.55 -65.25 -19.25 -66.05 -16.05 -68.55 L-12.05 -71.35 -8.3 -69.75 Q-5.1 -68.3 -4.05 -67.45 -3.45 -58.35 -3.75 -58.0 -10.35 -53.35 -11.9 -53.75 -13.05 -54.05 -19.75 -57.05 L-19.75 -61.7 M-21.0 -66.55 Q-21.4 -65.6 -20.9 -61.55 -20.4 -57.8 -19.95 -56.95 L-18.35 -55.65 -15.3 -53.85 Q-19.2 -54.5 -22.8 -57.15 -23.2 -64.25 -20.5 -69.85 -18.05 -74.95 -13.35 -78.25 -15.1 -76.4 -15.9 -74.5 -16.85 -72.45 -16.4 -70.8 L-19.4 -68.45 Q-20.75 -67.2 -21.0 -66.55 M19.95 -7.6 L16.9 -8.1 16.55 -8.9 18.85 -11.15 Q20.1 -9.4 19.95 -7.6 M19.05 -5.25 L17.65 -4.95 16.4 -5.1 16.75 -6.2 19.95 -7.5 Q19.8 -6.3 19.05 -5.25 M15.85 -9.95 L15.55 -10.35 Q16.7 -12.3 17.3 -12.85 L18.8 -11.25 15.85 -9.95 M-12.8 -7.7 L-15.8 -7.5 Q-15.95 -9.25 -14.7 -11.0 L-12.5 -8.5 -12.8 -7.7 M-14.85 -5.1 Q-15.6 -6.05 -15.75 -7.25 L-12.65 -6.1 -12.2 -4.95 -13.5 -4.8 -14.85 -5.1 M-14.6 -11.15 L-13.1 -12.7 -11.35 -10.25 -11.95 -9.4 -14.6 -11.15 M-13.35 -15.95 L-13.0 -16.35 -12.55 -16.75 Q-8.7 -14.35 2.5 -14.45 13.2 -14.55 16.1 -16.35 L17.1 -15.55 13.5 -10.2 Q8.4 -12.5 2.1 -12.3 -3.45 -12.1 -8.65 -10.1 -12.3 -13.95 -13.35 -15.95 M2.75 -21.0 L3.25 -19.6 15.7 -20.0 15.8 -18.25 1.25 -17.7 Q-5.15 -17.65 -12.0 -18.85 L-11.8 -21.0 2.75 -21.0 M-11.75 -24.1 L-12.0 -29.95 2.55 -29.45 2.1 -24.1 -11.75 -24.1 M4.3 -22.35 L3.6 -24.2 4.35 -32.75 6.0 -34.1 15.75 -34.25 17.6 -31.45 17.25 -23.7 15.75 -22.75 4.3 -22.35 M10.75 -33.45 Q7.5 -33.4 6.0 -30.85 4.9 -29.1 5.45 -26.95 6.05 -24.75 7.75 -24.45 6.65 -25.4 6.2 -27.1 5.75 -28.9 6.45 -30.15 7.95 -33.0 11.0 -32.6 13.7 -32.25 14.7 -30.3 15.35 -29.1 14.75 -27.35 14.1 -25.3 12.2 -24.45 14.55 -24.35 15.45 -26.7 16.3 -28.9 15.25 -31.0 13.95 -33.45 10.75 -33.45 M16.25 -44.15 Q17.45 -44.0 22.85 -40.75 L18.45 -33.6 18.45 -33.35 18.15 -33.3 16.9 -35.25 5.6 -35.05 2.85 -32.85 2.8 -32.3 -15.75 -32.85 -15.75 -34.15 -20.9 -41.65 -15.0 -44.3 Q-13.4 -40.55 -8.7 -38.5 -4.4 -36.55 1.1 -36.55 6.55 -36.55 10.7 -38.5 15.15 -40.55 16.25 -44.15 M25.55 -26.55 L30.4 -23.5 34.9 -10.3 Q36.9 -9.5 37.85 -6.65 38.75 -3.9 37.25 -3.8 37.55 -5.1 36.95 -5.8 L36.5 -4.1 Q36.1 -3.2 35.5 -3.3 36.05 -3.9 35.6 -5.4 35.15 -6.95 34.05 -8.0 L34.15 -7.15 Q34.25 -6.15 33.9 -5.3 33.55 -4.3 33.2 -4.35 32.8 -4.45 33.35 -5.3 33.75 -5.95 33.25 -7.2 32.85 -8.45 32.05 -8.75 29.7 -9.55 28.9 -8.0 L28.5 -7.0 Q28.4 -6.6 28.25 -6.85 27.4 -8.3 28.7 -9.15 29.85 -9.9 31.1 -9.7 L32.45 -10.85 27.35 -20.95 22.8 -23.25 25.55 -26.55 M30.65 -62.65 Q33.1 -62.2 33.45 -59.7 33.85 -57.3 31.9 -56.15 L29.9 -55.45 28.3 -62.65 30.65 -62.65 M18.95 -63.75 Q18.25 -64.4 17.3 -64.4 16.3 -64.4 15.6 -63.75 14.95 -63.05 14.95 -62.05 14.95 -61.1 15.6 -60.4 16.3 -59.7 17.3 -59.7 18.25 -59.7 18.95 -60.4 19.65 -61.1 19.65 -62.05 19.65 -63.05 18.95 -63.75 M-1.05 -56.95 Q-0.55 -58.55 1.0 -58.55 2.4 -58.6 3.85 -57.35 2.15 -60.55 0.3 -59.85 -1.45 -59.15 -1.05 -56.95 M0.3 -51.2 Q-0.35 -50.95 -0.35 -50.6 -0.35 -50.3 0.3 -50.0 L1.9 -49.8 3.45 -50.0 4.1 -50.6 3.45 -51.2 1.9 -51.45 0.3 -51.2 M-2.0 -54.3 L-4.4 -54.0 Q-5.65 -53.65 -5.0 -52.0 -4.1 -54.3 2.2 -53.95 8.45 -53.6 8.7 -51.6 9.55 -53.2 8.35 -53.85 L5.85 -54.35 2.05 -54.45 -2.0 -54.3 M-9.55 -59.85 L-9.3 -60.45 -8.75 -60.7 Q-8.45 -60.7 -8.2 -60.45 -7.95 -60.2 -7.95 -59.85 -7.95 -59.45 -8.2 -59.2 -8.45 -58.95 -8.75 -58.95 -9.1 -58.95 -9.3 -59.2 L-9.55 -59.85 M-11.9 -68.75 Q-14.5 -68.75 -16.35 -66.9 -18.15 -65.05 -18.15 -62.5 -18.15 -59.85 -16.35 -58.05 -14.5 -56.2 -11.9 -56.2 -9.3 -56.2 -7.45 -58.05 -5.65 -59.85 -5.65 -62.5 -5.65 -65.05 -7.45 -66.9 -9.3 -68.75 -11.9 -68.75 M-10.3 -67.05 Q-9.15 -67.05 -8.3 -66.3 -7.5 -65.5 -7.5 -64.4 -7.5 -63.35 -8.3 -62.55 -9.15 -61.75 -10.3 -61.75 -11.5 -61.75 -12.35 -62.55 -13.15 -63.35 -13.15 -64.4 -13.15 -65.5 -12.35 -66.3 -11.5 -67.05 -10.3 -67.05 M-8.25 -71.95 Q-8.7 -73.6 -7.3 -76.7 -5.75 -80.15 -2.95 -82.45 5.15 -83.8 12.3 -80.65 19.95 -77.25 23.15 -70.0 18.7 -72.4 12.6 -72.4 3.65 -72.4 0.25 -65.0 -0.9 -62.6 -2.0 -60.9 -1.95 -63.7 -2.05 -65.15 -2.2 -67.45 -2.75 -68.25 -3.3 -69.0 -4.95 -70.1 L-8.25 -71.95 M-11.5 -73.1 L-12.0 -73.1 -13.7 -72.5 Q-14.15 -73.8 -13.05 -76.0 -11.9 -78.4 -9.5 -80.5 L-5.6 -81.85 Q-7.9 -80.0 -9.5 -77.75 -11.2 -75.3 -11.5 -73.1 M-30.5 -29.45 L-28.35 -30.65 -23.4 -25.05 -17.15 -30.05 -14.85 -26.4 -16.1 -25.45 -18.4 -27.95 -17.05 -24.75 -18.2 -23.95 -20.4 -26.6 -19.3 -23.05 -20.45 -22.25 -22.3 -25.2 -21.75 -21.5 -23.65 -19.9 -23.65 -24.2 -25.65 -20.75 -26.7 -22.7 -25.3 -25.95 -27.65 -24.1 -28.35 -25.65 -27.35 -28.0 -29.4 -27.2 -30.5 -29.45 M-34.1 -34.15 Q-34.1 -35.15 -33.4 -35.85 -32.75 -36.5 -31.75 -36.5 -30.8 -36.5 -30.05 -35.85 -29.4 -35.15 -29.4 -34.15 -29.4 -33.2 -30.05 -32.5 -30.8 -31.8 -31.75 -31.8 -32.75 -31.8 -33.4 -32.5 -34.1 -33.2 -34.1 -34.15 M-23.6 -52.1 L-23.25 -54.4 Q-17.9 -51.75 -12.65 -52.65 L-11.5 -52.35 Q-10.05 -52.25 -6.0 -54.6 -1.9 -56.95 -1.95 -58.15 L-2.0 -58.65 Q-0.05 -60.9 1.45 -64.4 3.6 -69.65 10.75 -70.55 17.9 -71.45 23.6 -67.1 27.35 -59.4 27.85 -51.7 26.8 -49.05 23.0 -43.15 16.3 -45.8 15.55 -45.6 14.7 -41.9 10.6 -39.6 6.8 -37.5 1.6 -37.35 -3.65 -37.25 -7.95 -39.25 -12.65 -41.5 -14.5 -45.6 L-19.25 -44.4 Q-22.55 -49.45 -23.6 -52.1" fill="#ffffff" fill-rule="evenodd" stroke="none"/>
    <path d="M-21.0 -66.55 Q-20.75 -67.2 -19.4 -68.45 L-16.4 -70.8 Q-16.85 -72.45 -15.9 -74.5 -15.1 -76.4 -13.35 -78.25 -18.05 -74.95 -20.5 -69.85 -23.2 -64.25 -22.8 -57.15 -19.2 -54.5 -15.3 -53.85 L-18.35 -55.65 -19.95 -56.95 Q-20.4 -57.8 -20.9 -61.55 -21.4 -65.6 -21.0 -66.55 M-19.75 -61.7 L-19.75 -57.05 Q-13.05 -54.05 -11.9 -53.75 -10.35 -53.35 -3.75 -58.0 -3.45 -58.35 -4.05 -67.45 -5.1 -68.3 -8.3 -69.75 L-12.05 -71.35 -16.05 -68.55 Q-19.25 -66.05 -19.55 -65.25 -19.75 -64.55 -19.75 -61.7 M-32.05 -60.3 Q-32.0 -63.25 -31.2 -65.35 -30.35 -67.65 -29.1 -67.65 L-23.15 -67.45 Q-19.85 -76.6 -12.2 -81.25 -5.25 -85.55 3.3 -84.9 11.7 -84.25 18.2 -79.15 25.15 -73.6 27.35 -64.65 L32.05 -64.35 Q35.1 -63.25 35.7 -59.7 36.3 -55.95 34.0 -54.15 32.55 -53.05 30.25 -52.9 L30.5 -51.8 24.95 -42.4 26.3 -41.85 20.3 -33.5 20.3 -33.3 Q22.55 -33.1 24.2 -32.2 26.5 -31.0 27.4 -28.75 L26.8 -28.0 31.75 -24.9 36.15 -11.25 Q37.9 -10.15 38.85 -8.45 40.0 -6.35 39.25 -4.2 38.75 -2.9 37.5 -2.35 36.3 -1.75 36.45 -2.85 L35.85 -2.25 Q35.3 -1.9 34.6 -1.8 L33.6 -2.0 Q33.1 -2.3 33.3 -2.7 34.05 -2.95 34.2 -3.1 L34.4 -3.95 Q34.35 -3.2 33.85 -3.05 L32.65 -2.95 Q32.05 -2.85 31.15 -3.45 30.2 -4.1 30.4 -4.65 31.6 -5.15 31.85 -5.95 32.1 -6.65 31.4 -7.25 L30.35 -7.4 Q29.65 -7.25 29.9 -6.25 30.15 -5.3 28.7 -5.25 27.3 -5.25 26.9 -6.05 26.05 -7.75 27.05 -9.3 27.9 -10.75 29.05 -10.5 L29.55 -10.95 30.3 -11.45 26.1 -20.35 21.85 -22.1 21.4 -21.55 19.25 -22.55 19.2 -21.75 17.8 -20.85 Q18.1 -18.15 18.95 -16.25 L18.1 -14.85 Q19.95 -13.0 20.8 -10.7 22.25 -6.7 19.8 -2.95 L25.9 0.0 20.0 -0.1 13.0 0.0 Q15.65 -3.45 15.6 -6.2 15.55 -8.15 14.15 -9.5 L13.25 -8.9 9.35 -10.1 2.95 -10.95 -3.8 -10.15 -8.35 -9.0 -9.1 -9.15 -9.6 -9.65 Q-11.05 -8.35 -11.15 -6.4 -11.35 -3.6 -8.55 0.0 L-15.6 -0.1 -21.45 0.0 -15.4 -2.95 Q-17.75 -6.55 -16.5 -10.4 -15.7 -12.75 -13.85 -14.7 L-14.95 -16.25 Q-13.5 -19.75 -13.55 -24.4 L-25.0 -16.25 -32.55 -30.0 Q-34.4 -30.4 -35.25 -32.15 -38.8 -33.45 -39.4 -37.9 -40.0 -42.45 -36.45 -44.75 L-34.55 -42.4 Q-36.2 -40.7 -36.1 -38.8 -36.05 -37.15 -34.75 -36.1 -33.65 -37.55 -31.75 -37.55 -30.35 -37.55 -29.35 -36.7 -28.35 -38.05 -28.7 -39.7 -29.15 -41.6 -31.25 -42.8 L-30.05 -45.6 Q-25.95 -44.35 -25.3 -39.65 -24.7 -35.05 -28.0 -32.95 L-28.15 -32.45 -23.05 -27.05 -17.8 -31.8 -17.8 -33.5 -24.25 -43.1 -21.75 -43.75 Q-24.8 -48.6 -26.45 -51.8 L-26.15 -52.95 -29.1 -52.95 Q-30.65 -52.95 -31.45 -55.25 -32.15 -57.3 -32.05 -60.3 M-23.6 -52.1 Q-22.55 -49.45 -19.25 -44.4 L-14.5 -45.6 Q-12.65 -41.5 -7.95 -39.25 -3.65 -37.25 1.6 -37.35 6.8 -37.5 10.6 -39.6 14.7 -41.9 15.55 -45.6 16.3 -45.8 23.0 -43.15 26.8 -49.05 27.85 -51.7 27.35 -59.4 23.6 -67.1 17.9 -71.45 10.75 -70.55 3.6 -69.65 1.45 -64.4 -0.05 -60.9 -2.0 -58.65 L-1.95 -58.15 Q-1.9 -56.95 -6.0 -54.6 -10.05 -52.25 -11.5 -52.35 L-12.65 -52.65 Q-17.9 -51.75 -23.25 -54.4 L-23.6 -52.1 M-34.1 -34.15 Q-34.1 -33.2 -33.4 -32.5 -32.75 -31.8 -31.75 -31.8 -30.8 -31.8 -30.05 -32.5 -29.4 -33.2 -29.4 -34.15 -29.4 -35.15 -30.05 -35.85 -30.8 -36.5 -31.75 -36.5 -32.75 -36.5 -33.4 -35.85 -34.1 -35.15 -34.1 -34.15 M-30.5 -29.45 L-29.4 -27.2 -27.35 -28.0 -28.35 -25.65 -27.65 -24.1 -25.3 -25.95 -26.7 -22.7 -25.65 -20.75 -23.65 -24.2 -23.65 -19.9 -21.75 -21.5 -22.3 -25.2 -20.45 -22.25 -19.3 -23.05 -20.4 -26.6 -18.2 -23.95 -17.05 -24.75 -18.4 -27.95 -16.1 -25.45 -14.85 -26.4 -17.15 -30.05 -23.4 -25.05 -28.35 -30.65 -30.5 -29.45 M-11.5 -73.1 Q-11.2 -75.3 -9.5 -77.75 -7.9 -80.0 -5.6 -81.85 L-9.5 -80.5 Q-11.9 -78.4 -13.05 -76.0 -14.15 -73.8 -13.7 -72.5 L-12.0 -73.1 -11.5 -73.1 M-8.25 -71.95 L-4.95 -70.1 Q-3.3 -69.0 -2.75 -68.25 -2.2 -67.45 -2.05 -65.15 -1.95 -63.7 -2.0 -60.9 -0.9 -62.6 0.25 -65.0 3.65 -72.4 12.6 -72.4 18.7 -72.4 23.15 -70.0 19.95 -77.25 12.3 -80.65 5.15 -83.8 -2.95 -82.45 -5.75 -80.15 -7.3 -76.7 -8.7 -73.6 -8.25 -71.95 M-10.3 -67.05 Q-11.5 -67.05 -12.35 -66.3 -13.15 -65.5 -13.15 -64.4 -13.15 -63.35 -12.35 -62.55 -11.5 -61.75 -10.3 -61.75 -9.15 -61.75 -8.3 -62.55 -7.5 -63.35 -7.5 -64.4 -7.5 -65.5 -8.3 -66.3 -9.15 -67.05 -10.3 -67.05 M-11.9 -68.75 Q-9.3 -68.75 -7.45 -66.9 -5.65 -65.05 -5.65 -62.5 -5.65 -59.85 -7.45 -58.05 -9.3 -56.2 -11.9 -56.2 -14.5 -56.2 -16.35 -58.05 -18.15 -59.85 -18.15 -62.5 -18.15 -65.05 -16.35 -66.9 -14.5 -68.75 -11.9 -68.75 M-9.55 -59.85 L-9.3 -59.2 Q-9.1 -58.95 -8.75 -58.95 -8.45 -58.95 -8.2 -59.2 -7.95 -59.45 -7.95 -59.85 -7.95 -60.2 -8.2 -60.45 -8.45 -60.7 -8.75 -60.7 L-9.3 -60.45 -9.55 -59.85 M-2.0 -54.3 L2.05 -54.45 5.85 -54.35 8.35 -53.85 Q9.55 -53.2 8.7 -51.6 8.45 -53.6 2.2 -53.95 -4.1 -54.3 -5.0 -52.0 -5.65 -53.65 -4.4 -54.0 L-2.0 -54.3 M0.3 -51.2 L1.9 -51.45 3.45 -51.2 4.1 -50.6 3.45 -50.0 1.9 -49.8 0.3 -50.0 Q-0.35 -50.3 -0.35 -50.6 -0.35 -50.95 0.3 -51.2 M-1.05 -56.95 Q-1.45 -59.15 0.3 -59.85 2.15 -60.55 3.85 -57.35 2.4 -58.6 1.0 -58.55 -0.55 -58.55 -1.05 -56.95 M18.95 -63.75 Q19.65 -63.05 19.65 -62.05 19.65 -61.1 18.95 -60.4 18.25 -59.7 17.3 -59.7 16.3 -59.7 15.6 -60.4 14.95 -61.1 14.95 -62.05 14.95 -63.05 15.6 -63.75 16.3 -64.4 17.3 -64.4 18.25 -64.4 18.95 -63.75 M30.65 -62.65 L28.3 -62.65 29.9 -55.45 31.9 -56.15 Q33.85 -57.3 33.45 -59.7 33.1 -62.2 30.65 -62.65 M25.55 -26.55 L22.8 -23.25 27.35 -20.95 32.45 -10.85 31.1 -9.7 Q29.85 -9.9 28.7 -9.15 27.4 -8.3 28.25 -6.85 28.4 -6.6 28.5 -7.0 L28.9 -8.0 Q29.7 -9.55 32.05 -8.75 32.85 -8.45 33.25 -7.2 33.75 -5.95 33.35 -5.3 32.8 -4.45 33.2 -4.35 33.55 -4.3 33.9 -5.3 34.25 -6.15 34.15 -7.15 L34.05 -8.0 Q35.15 -6.95 35.6 -5.4 36.05 -3.9 35.5 -3.3 36.1 -3.2 36.5 -4.1 L36.95 -5.8 Q37.55 -5.1 37.25 -3.8 38.75 -3.9 37.85 -6.65 36.9 -9.5 34.9 -10.3 L30.4 -23.5 25.55 -26.55 M16.25 -44.15 Q15.15 -40.55 10.7 -38.5 6.55 -36.55 1.1 -36.55 -4.4 -36.55 -8.7 -38.5 -13.4 -40.55 -15.0 -44.3 L-20.9 -41.65 -15.75 -34.15 -15.75 -32.85 2.8 -32.3 2.85 -32.85 5.6 -35.05 16.9 -35.25 18.15 -33.3 18.45 -33.35 18.45 -33.6 22.85 -40.75 Q17.45 -44.0 16.25 -44.15 M10.75 -33.45 Q13.95 -33.45 15.25 -31.0 16.3 -28.9 15.45 -26.7 14.55 -24.35 12.2 -24.45 14.1 -25.3 14.75 -27.35 15.35 -29.1 14.7 -30.3 13.7 -32.25 11.0 -32.6 7.95 -33.0 6.45 -30.15 5.75 -28.9 6.2 -27.1 6.65 -25.4 7.75 -24.45 6.05 -24.75 5.45 -26.95 4.9 -29.1 6.0 -30.85 7.5 -33.4 10.75 -33.45 M4.3 -22.35 L15.75 -22.75 17.25 -23.7 17.6 -31.45 15.75 -34.25 6.0 -34.1 4.35 -32.75 3.6 -24.2 4.3 -22.35 M-11.75 -24.1 L2.1 -24.1 2.55 -29.45 -12.0 -29.95 -11.75 -24.1 M2.75 -21.0 L-11.8 -21.0 -12.0 -18.85 Q-5.15 -17.65 1.25 -17.7 L15.8 -18.25 15.7 -20.0 3.25 -19.6 2.75 -21.0 M-13.35 -15.95 Q-12.3 -13.95 -8.65 -10.1 -3.45 -12.1 2.1 -12.3 8.4 -12.5 13.5 -10.2 L17.1 -15.55 16.1 -16.35 Q13.2 -14.55 2.5 -14.45 -8.7 -14.35 -12.55 -16.75 L-13.0 -16.35 -13.35 -15.95 M-14.6 -11.15 L-11.95 -9.4 -11.35 -10.25 -13.1 -12.7 -14.6 -11.15 M-14.85 -5.1 L-13.5 -4.8 -12.2 -4.95 -12.65 -6.1 -15.75 -7.25 Q-15.6 -6.05 -14.85 -5.1 M-12.8 -7.7 L-12.5 -8.5 -14.7 -11.0 Q-15.95 -9.25 -15.8 -7.5 L-12.8 -7.7 M15.85 -9.95 L18.8 -11.25 17.3 -12.85 Q16.7 -12.3 15.55 -10.35 L15.85 -9.95 M19.05 -5.25 Q19.8 -6.3 19.95 -7.5 L16.75 -6.2 16.4 -5.1 17.65 -4.95 19.05 -5.25 M19.95 -7.6 Q20.1 -9.4 18.85 -11.15 L16.55 -8.9 16.9 -8.1 19.95 -7.6" fill="#000000" fill-rule="evenodd" stroke="none"/>
  </g>
</svg>
