<?xml version="1.0" encoding="UTF-8" standalone="no"?>
<svg xmlns:ffdec="https://www.free-decompiler.com/flash" xmlns:xlink="http://www.w3.org/1999/xlink" ffdec:objectType="shape" height="13.35px" width="13.35px" xmlns="http://www.w3.org/2000/svg">
  <g transform="matrix(1.0, 0.0, 0.0, 1.0, 6.55, 6.55)">
    <path d="M2.3 -5.3 Q3.2 -4.8 3.45 -3.85 L3.0 -3.3 2.35 -3.15 1.8 -2.85 1.7 -2.8 0.7 -1.65 -0.5 -0.7 -1.8 -0.25 Q-2.9 -0.1 -4.0 -0.7 L-4.05 -0.45 -3.75 0.1 Q-2.7 1.1 -1.2 0.95 L0.55 0.4 Q0.85 1.65 1.15 1.65 0.85 -0.15 1.45 -1.4 1.3 -0.5 2.1 0.0 2.8 0.45 3.7 0.35 4.6 0.25 5.15 -0.3 5.75 -0.9 5.5 -1.8 6.05 -1.1 5.95 -0.1 5.6 1.1 3.9 1.8 L2.1 2.25 2.5 3.3 2.55 3.4 2.65 3.9 2.75 4.5 1.75 4.6 1.5 4.7 0.95 4.25 Q-0.2 3.5 -1.75 3.4 L-3.65 3.7 -3.45 3.0 -2.8 2.5 Q-4.0 1.95 -4.8 0.85 -5.45 -0.1 -5.65 -1.25 L-5.6 -0.55 -5.6 -0.65 -5.65 -0.85 Q-5.75 -2.0 -5.4 -2.8 -5.45 -2.0 -4.35 -1.6 L-2.3 -1.4 Q-1.6 -1.5 -0.3 -2.1 L1.7 -3.3 Q2.9 -4.25 2.3 -5.3 M0.95 6.05 L2.55 5.9 2.1 5.25 2.1 5.2 2.8 5.05 2.9 5.85 0.95 6.05" fill="#c29734" fill-rule="evenodd" stroke="none"/>
    <path d="M3.45 -3.85 Q3.2 -4.8 2.3 -5.3 L-2.05 -5.55 Q-4.45 -4.8 -5.4 -2.8 -5.75 -2.0 -5.65 -0.85 L-5.6 -0.65 -5.5 0.05 -5.3 0.65 -5.25 0.8 Q-4.65 2.15 -3.45 3.0 L-3.65 3.7 -3.7 3.9 -3.75 4.25 -2.5 4.6 -2.35 4.9 -2.55 5.15 -3.9 4.85 -4.0 5.4 -3.9 5.45 -3.55 5.6 -3.45 5.65 -3.0 5.8 -2.85 5.8 -2.35 5.9 -1.25 6.05 -1.15 6.05 -1.0 6.05 -0.3 6.05 0.95 6.05 2.9 5.85 2.8 5.05 2.1 5.2 1.9 5.25 Q1.5 5.3 1.4 4.95 L1.5 4.7 1.75 4.6 2.75 4.5 2.65 3.9 2.55 3.4 2.5 3.3 4.75 2.1 Q5.85 1.1 5.95 -0.1 6.05 -1.1 5.5 -1.8 4.85 -2.7 3.8 -2.7 2.05 -2.8 1.45 -1.4 0.85 -0.15 1.15 1.65 0.85 1.65 0.55 0.4 L-1.2 0.95 Q-2.7 1.1 -3.75 0.1 L-4.05 -0.45 -4.0 -0.7 Q-2.15 1.45 0.45 -1.0 L0.7 -1.65 1.7 -2.8 1.8 -2.85 2.35 -3.15 3.0 -3.3 3.55 -3.35 3.45 -3.85 M4.55 -3.3 L4.6 -3.25 Q5.85 -2.85 6.3 -2.15 7.1 -0.75 6.6 0.85 6.4 1.65 5.45 2.45 4.5 3.25 3.3 3.65 L3.45 4.25 3.5 4.45 3.55 4.6 3.7 5.05 4.1 6.3 Q3.3 6.85 -0.3 6.8 -4.2 6.7 -5.1 5.6 L-4.25 3.2 Q-5.55 2.15 -6.15 0.6 -6.75 -0.95 -6.4 -2.4 -6.15 -3.6 -5.15 -4.6 -4.15 -5.55 -2.65 -6.05 0.55 -7.15 2.9 -5.75 4.35 -4.9 4.55 -3.3 M0.4 4.75 Q0.7 5.15 0.45 5.3 L-1.3 5.35 -1.6 5.0 -1.25 4.7 0.4 4.75" fill="#7d5925" fill-rule="evenodd" stroke="none"/>
    <path d="M2.3 -5.3 Q2.9 -4.25 1.7 -3.3 L-0.3 -2.1 Q-1.6 -1.5 -2.3 -1.4 L-4.35 -1.6 Q-5.45 -2.0 -5.4 -2.8 -4.45 -4.8 -2.05 -5.55 L2.3 -5.3 M-3.65 3.7 L-1.75 3.4 Q-0.2 3.5 0.95 4.25 L1.5 4.7 1.4 4.95 Q1.5 5.3 1.9 5.25 L2.1 5.2 2.1 5.25 2.55 5.9 0.95 6.05 -0.3 6.05 -1.0 6.05 -1.15 6.05 -1.25 6.05 -2.35 5.9 -2.85 5.8 -3.0 5.8 -3.45 5.65 -3.55 5.6 -3.9 5.45 -4.0 5.4 -3.9 4.85 -2.55 5.15 -2.35 4.9 -2.5 4.6 -3.75 4.25 -3.7 3.9 -3.65 3.7 M5.5 -1.8 Q5.75 -0.9 5.15 -0.3 4.6 0.25 3.7 0.35 2.8 0.45 2.1 0.0 1.3 -0.5 1.45 -1.4 2.05 -2.8 3.8 -2.7 4.85 -2.7 5.5 -1.8 M2.0 -1.55 Q1.8 -1.25 2.05 -1.1 2.35 -0.9 2.5 -1.1 3.2 -1.85 4.3 -1.5 4.6 -1.4 4.7 -1.7 L4.45 -2.25 3.15 -2.35 Q2.4 -2.15 2.0 -1.55 M0.85 -4.75 Q1.15 -4.45 1.5 -4.55 L1.8 -4.75 1.7 -5.1 Q1.5 -5.4 1.1 -5.3 0.85 -5.3 0.8 -5.1 0.75 -4.9 0.85 -4.75 M0.4 4.75 L-1.25 4.7 -1.6 5.0 -1.3 5.35 0.45 5.3 Q0.7 5.15 0.4 4.75 M-3.9 -3.1 L-3.5 -3.35 Q-2.5 -4.55 -0.3 -4.65 0.5 -4.65 0.4 -5.05 0.3 -5.45 -0.35 -5.45 -2.9 -5.35 -4.1 -3.75 L-4.25 -3.2 -3.9 -3.1" fill="#f3d929" fill-rule="evenodd" stroke="none"/>
    <path d="M0.85 -4.75 Q0.75 -4.9 0.8 -5.1 0.85 -5.3 1.1 -5.3 1.5 -5.4 1.7 -5.1 L1.8 -4.75 1.5 -4.55 Q1.15 -4.45 0.85 -4.75 M2.0 -1.55 Q2.4 -2.15 3.15 -2.35 L4.45 -2.25 4.7 -1.7 Q4.6 -1.4 4.3 -1.5 3.2 -1.85 2.5 -1.1 2.35 -0.9 2.05 -1.1 1.8 -1.25 2.0 -1.55 M-3.9 -3.1 L-4.25 -3.2 -4.1 -3.75 Q-2.9 -5.35 -0.35 -5.45 0.3 -5.45 0.4 -5.05 0.5 -4.65 -0.3 -4.65 -2.5 -4.55 -3.5 -3.35 L-3.9 -3.1" fill="#fdfdfd" fill-rule="evenodd" stroke="none"/>
    <path d="M-5.6 -0.55 L-5.65 -1.25 Q-5.45 -0.1 -4.8 0.85 -4.0 1.95 -2.8 2.5 L-3.45 3.0 Q-4.65 2.15 -5.25 0.8 L-5.3 0.65 -5.5 0.05 -5.6 -0.55 M2.5 3.3 L2.1 2.25 3.9 1.8 Q5.6 1.1 5.95 -0.1 5.85 1.1 4.75 2.1 L2.5 3.3 M-4.0 -0.7 Q-2.9 -0.1 -1.8 -0.25 L-0.5 -0.7 0.7 -1.65 0.45 -1.0 Q-2.15 1.45 -4.0 -0.7 M3.0 -3.3 L3.45 -3.85 3.55 -3.35 3.0 -3.3" fill="#dfb76e" fill-rule="evenodd" stroke="none"/>
  </g>
</svg>
