<?xml version="1.0" encoding="UTF-8" standalone="no"?>
<svg xmlns:ffdec="https://www.free-decompiler.com/flash" xmlns:xlink="http://www.w3.org/1999/xlink" ffdec:objectType="shape" height="85.0px" width="72.8px" xmlns="http://www.w3.org/2000/svg">
  <g transform="matrix(1.0, 0.0, 0.0, 1.0, 36.4, 85.0)">
    <path d="M29.7 -66.25 Q32.4 -59.15 29.65 -51.65 26.8 -43.75 18.5 -37.7 15.95 -35.85 14.0 -33.2 L12.3 -30.55 Q12.35 -31.85 12.9 -33.65 L13.45 -35.25 11.35 -31.75 Q9.85 -28.0 12.6 -26.65 15.15 -25.45 18.9 -27.3 23.5 -29.6 24.95 -29.6 L26.7 -29.45 27.9 -28.75 26.0 -28.85 24.35 -28.4 18.15 -25.15 Q13.75 -23.05 11.8 -23.3 9.65 -23.6 8.35 -24.5 L8.65 -25.75 Q9.25 -28.0 8.15 -30.3 L6.9 -32.15 7.55 -29.85 Q8.0 -26.9 7.05 -23.8 6.05 -20.8 7.75 -19.45 9.25 -18.3 12.25 -17.65 L15.0 -17.3 12.7 -16.8 Q9.95 -16.5 7.75 -17.3 2.35 -19.15 1.95 -24.5 2.7 -27.2 2.0 -31.1 1.75 -27.7 1.0 -25.7 -0.05 -23.1 -2.3 -21.65 -3.35 -21.0 -6.05 -20.9 L-12.65 -20.1 Q-14.15 -19.75 -15.65 -18.95 L-16.85 -18.25 -16.3 -19.35 -14.55 -21.2 Q-13.3 -22.0 -11.8 -22.45 L-7.3 -23.85 Q-5.55 -24.55 -6.15 -27.7 L-7.05 -30.7 -6.55 -28.35 Q-6.5 -25.75 -8.45 -24.7 -9.4 -24.15 -10.65 -23.85 L-12.9 -23.55 Q-15.75 -23.95 -19.3 -26.65 -22.85 -29.8 -24.25 -30.75 L-25.95 -31.45 -28.05 -31.65 Q-27.45 -32.1 -26.55 -32.15 L-24.7 -32.0 Q-23.1 -31.75 -18.6 -28.75 -14.85 -26.3 -11.95 -27.1 -8.75 -27.9 -10.15 -31.75 L-11.45 -34.3 -12.2 -35.45 -11.65 -33.75 Q-11.15 -31.8 -11.25 -30.6 -13.45 -34.2 -16.6 -37.4 -24.25 -45.25 -26.15 -53.9 -27.8 -61.7 -24.55 -68.65 -21.35 -75.35 -14.65 -79.2 -7.7 -83.2 0.75 -82.95 11.9 -82.65 19.75 -77.85 27.05 -73.4 29.7 -66.25 M6.85 -53.1 Q6.85 -55.5 5.15 -57.2 3.45 -58.9 1.05 -58.9 -1.4 -58.9 -3.1 -57.2 -4.8 -55.5 -4.8 -53.1 -4.8 -50.7 -3.1 -48.95 -1.4 -47.3 1.05 -47.3 3.45 -47.3 5.15 -48.95 6.85 -50.7 6.85 -53.1 M4.75 -57.05 Q6.05 -55.7 6.05 -53.85 6.05 -52.0 4.75 -50.7 3.45 -49.4 1.6 -49.4 -0.25 -49.4 -1.55 -50.7 -2.85 -52.0 -2.85 -53.85 -2.85 -55.7 -1.55 -57.05 -0.25 -58.35 1.6 -58.35 3.45 -58.35 4.75 -57.05 M4.4 -52.6 Q5.3 -53.5 5.3 -54.75 5.3 -55.95 4.45 -56.85 L4.55 -56.4 Q4.55 -55.8 4.1 -55.45 3.75 -55.0 3.15 -55.0 2.6 -55.0 2.2 -55.45 1.8 -55.8 1.8 -56.4 1.8 -56.85 2.1 -57.25 L2.8 -57.7 2.3 -57.75 Q1.05 -57.75 0.15 -56.9 -0.7 -56.0 -0.7 -54.75 -0.7 -53.5 0.15 -52.6 1.05 -51.75 2.3 -51.75 3.55 -51.75 4.4 -52.6 M18.0 -45.45 Q18.5 -44.95 18.5 -44.2 18.5 -43.45 18.0 -42.9 17.45 -42.35 16.65 -42.35 15.9 -42.35 15.4 -42.9 14.85 -43.45 14.85 -44.2 14.85 -44.95 15.4 -45.45 15.9 -46.0 16.65 -46.0 17.45 -46.0 18.0 -45.45 M20.8 -44.9 Q21.2 -47.05 19.6 -48.35 17.8 -48.65 15.55 -47.5 13.3 -46.4 11.5 -44.4 7.1 -39.6 8.6 -35.0 14.5 -35.7 18.65 -40.7 20.5 -42.9 20.8 -44.9 M-7.9 -3.2 Q-9.1 -2.45 -10.65 -2.65 -8.6 -4.0 -8.15 -6.2 L-5.35 -5.95 Q-6.7 -4.0 -7.9 -3.2 M-30.6 -14.05 L-33.0 -16.3 -30.25 -14.85 Q-27.0 -13.5 -24.35 -13.75 L-22.8 -12.0 -25.25 -11.8 Q-27.7 -11.75 -30.6 -14.05 M-10.05 -44.4 Q-11.85 -46.4 -14.1 -47.5 -16.35 -48.65 -18.15 -48.35 -19.75 -47.05 -19.35 -44.9 -19.05 -42.9 -17.2 -40.7 -13.05 -35.7 -7.1 -35.0 -5.65 -39.6 -10.05 -44.4 M-16.1 -44.2 Q-16.1 -44.95 -15.55 -45.45 -15.0 -46.0 -14.25 -46.0 -13.5 -46.0 -12.95 -45.45 -12.45 -44.95 -12.45 -44.2 -12.45 -43.45 -12.95 -42.9 -13.5 -42.35 -14.25 -42.35 -15.0 -42.35 -15.55 -42.9 -16.1 -43.45 -16.1 -44.2 M24.0 -13.55 Q26.6 -13.15 29.95 -14.35 31.65 -14.95 32.75 -15.6 L30.2 -13.5 Q27.2 -11.4 24.75 -11.6 L22.35 -11.9 24.0 -13.55 M8.85 -6.2 Q9.25 -4.0 11.3 -2.65 9.75 -2.45 8.55 -3.25 7.35 -4.0 6.0 -6.05 L8.85 -6.2" fill="#ffffff" fill-rule="evenodd" stroke="none"/>
    <path d="M4.4 -52.6 Q3.55 -51.75 2.3 -51.75 1.05 -51.75 0.15 -52.6 -0.7 -53.5 -0.7 -54.75 -0.7 -56.0 0.15 -56.9 1.05 -57.75 2.3 -57.75 L2.8 -57.7 2.1 -57.25 Q1.8 -56.85 1.8 -56.4 1.8 -55.8 2.2 -55.45 2.6 -55.0 3.15 -55.0 3.75 -55.0 4.1 -55.45 4.55 -55.8 4.55 -56.4 L4.45 -56.85 Q5.3 -55.95 5.3 -54.75 5.3 -53.5 4.4 -52.6 M4.75 -57.05 Q3.45 -58.35 1.6 -58.35 -0.25 -58.35 -1.55 -57.05 -2.85 -55.7 -2.85 -53.85 -2.85 -52.0 -1.55 -50.7 -0.25 -49.4 1.6 -49.4 3.45 -49.4 4.75 -50.7 6.05 -52.0 6.05 -53.85 6.05 -55.7 4.75 -57.05 M6.85 -53.1 Q6.85 -50.7 5.15 -48.95 3.45 -47.3 1.05 -47.3 -1.4 -47.3 -3.1 -48.95 -4.8 -50.7 -4.8 -53.1 -4.8 -55.5 -3.1 -57.2 -1.4 -58.9 1.05 -58.9 3.45 -58.9 5.15 -57.2 6.85 -55.5 6.85 -53.1 M29.7 -66.25 Q27.05 -73.4 19.75 -77.85 11.9 -82.65 0.75 -82.95 -7.7 -83.2 -14.65 -79.2 -21.35 -75.35 -24.55 -68.65 -27.8 -61.7 -26.15 -53.9 -24.25 -45.25 -16.6 -37.4 -13.45 -34.2 -11.25 -30.6 -11.15 -31.8 -11.65 -33.75 L-12.2 -35.45 -11.45 -34.3 -10.15 -31.75 Q-8.75 -27.9 -11.95 -27.1 -14.85 -26.3 -18.6 -28.75 -23.1 -31.75 -24.7 -32.0 L-26.55 -32.15 Q-27.45 -32.1 -28.05 -31.65 L-25.95 -31.45 -24.25 -30.75 Q-22.85 -29.8 -19.3 -26.65 -15.75 -23.95 -12.9 -23.55 L-10.65 -23.85 Q-9.4 -24.15 -8.45 -24.7 -6.5 -25.75 -6.55 -28.35 L-7.05 -30.7 -6.15 -27.7 Q-5.55 -24.55 -7.3 -23.85 L-11.8 -22.45 Q-13.3 -22.0 -14.55 -21.2 L-16.3 -19.35 -16.85 -18.25 -15.65 -18.95 Q-14.15 -19.75 -12.65 -20.1 L-6.05 -20.9 Q-3.35 -21.0 -2.3 -21.65 -0.05 -23.1 1.0 -25.7 1.75 -27.7 2.0 -31.1 2.7 -27.2 1.95 -24.5 2.35 -19.15 7.75 -17.3 9.95 -16.5 12.7 -16.8 L15.0 -17.3 12.25 -17.65 Q9.25 -18.3 7.75 -19.45 6.05 -20.8 7.05 -23.8 8.0 -26.9 7.55 -29.85 L6.9 -32.15 8.15 -30.3 Q9.25 -28.0 8.65 -25.75 L8.35 -24.5 Q9.65 -23.6 11.8 -23.3 13.75 -23.05 18.15 -25.15 L24.35 -28.4 26.0 -28.85 27.9 -28.75 26.7 -29.45 24.95 -29.6 Q23.5 -29.6 18.9 -27.3 15.15 -25.45 12.6 -26.65 9.85 -28.0 11.35 -31.75 L13.45 -35.25 12.9 -33.65 Q12.35 -31.85 12.3 -30.55 L14.0 -33.2 Q15.95 -35.85 18.5 -37.7 26.8 -43.75 29.65 -51.65 32.4 -59.15 29.7 -66.25 M31.85 -67.45 Q34.6 -59.7 31.6 -51.45 28.5 -42.75 19.95 -36.25 14.8 -32.35 12.65 -28.8 13.05 -28.2 13.8 -28.2 15.2 -28.1 18.95 -29.95 22.8 -31.85 25.55 -31.8 29.0 -31.7 29.85 -28.8 30.45 -26.6 29.55 -22.9 29.45 -25.9 28.25 -26.65 27.25 -27.35 25.3 -26.3 L21.6 -24.35 Q18.7 -22.9 16.25 -22.2 20.6 -17.1 24.1 -16.2 L25.8 -16.0 25.4 -15.35 Q28.1 -15.1 31.5 -16.75 34.6 -18.3 36.4 -20.4 35.9 -15.5 32.45 -12.2 29.15 -9.05 25.25 -8.95 22.2 -8.9 20.1 -10.25 L18.75 -8.95 17.8 -7.85 14.3 -15.3 11.2 -14.95 Q12.5 -9.25 14.0 -6.85 L11.7 -6.5 Q13.2 -3.4 18.15 -0.65 11.6 0.7 7.7 -0.65 4.1 -1.95 2.35 -5.9 L-1.7 -5.85 Q-3.4 -1.95 -7.05 -0.65 -10.9 0.7 -17.5 -0.65 -12.35 -3.5 -10.95 -6.65 -12.2 -6.85 -13.35 -7.35 -11.3 -9.05 -9.75 -18.55 L-12.65 -17.95 -12.85 -17.9 -18.6 -7.3 -20.65 -10.2 Q-22.75 -8.95 -25.85 -9.25 -29.75 -9.55 -32.85 -12.85 -36.1 -16.4 -36.4 -21.25 -34.75 -19.05 -31.7 -17.35 -28.4 -15.5 -25.65 -15.6 L-26.0 -16.25 -24.3 -16.35 Q-21.8 -16.9 -18.85 -19.35 -18.15 -20.95 -17.1 -22.05 L-16.3 -22.7 Q-18.75 -23.4 -21.75 -25.7 L-25.65 -28.8 Q-27.4 -30.05 -29.25 -29.4 -31.05 -28.8 -33.15 -26.4 -33.4 -29.7 -31.25 -32.1 -28.8 -34.75 -24.95 -34.25 -21.95 -33.9 -18.2 -31.4 -14.5 -28.95 -13.0 -28.8 L-12.25 -28.9 Q-12.95 -30.5 -14.2 -31.95 L-18.2 -36.1 Q-26.8 -44.4 -29.1 -53.5 -31.2 -61.75 -27.75 -69.15 -24.4 -76.25 -16.85 -80.5 -9.15 -84.9 0.75 -85.0 12.95 -85.1 21.35 -80.0 29.1 -75.35 31.85 -67.45 M-16.1 -44.2 Q-16.1 -43.45 -15.55 -42.9 -15.0 -42.35 -14.25 -42.35 -13.5 -42.35 -12.95 -42.9 -12.45 -43.45 -12.45 -44.2 -12.45 -44.95 -12.95 -45.45 -13.5 -46.0 -14.25 -46.0 -15.0 -46.0 -15.55 -45.45 -16.1 -44.95 -16.1 -44.2 M-10.05 -44.4 Q-5.65 -39.6 -7.1 -35.0 -13.05 -35.7 -17.2 -40.7 -19.05 -42.9 -19.35 -44.9 -19.75 -47.05 -18.15 -48.35 -16.35 -48.65 -14.1 -47.5 -11.85 -46.4 -10.05 -44.4 M-30.6 -14.05 Q-27.7 -11.75 -25.25 -11.8 L-22.8 -12.0 -24.35 -13.75 Q-27.0 -13.5 -30.25 -14.85 L-33.0 -16.3 -30.6 -14.05 M-7.9 -3.2 Q-6.7 -4.0 -5.35 -5.95 L-8.15 -6.2 Q-8.6 -4.0 -10.65 -2.65 -9.1 -2.45 -7.9 -3.2 M20.8 -44.9 Q20.5 -42.9 18.65 -40.7 14.5 -35.7 8.6 -35.0 7.1 -39.6 11.5 -44.4 13.3 -46.4 15.55 -47.5 17.8 -48.65 19.6 -48.35 21.2 -47.05 20.8 -44.9 M18.0 -45.45 Q17.45 -46.0 16.65 -46.0 15.9 -46.0 15.4 -45.45 14.85 -44.95 14.85 -44.2 14.85 -43.45 15.4 -42.9 15.9 -42.35 16.65 -42.35 17.45 -42.35 18.0 -42.9 18.5 -43.45 18.5 -44.2 18.5 -44.95 18.0 -45.45 M10.2 -19.95 Q10.8 -19.65 12.05 -19.3 L10.25 -21.65 9.9 -21.7 10.2 -19.95 M8.85 -6.2 L6.0 -6.05 Q7.35 -4.0 8.55 -3.25 9.75 -2.45 11.3 -2.65 9.25 -4.0 8.85 -6.2 M24.0 -13.55 L22.35 -11.9 24.75 -11.6 Q27.2 -11.4 30.2 -13.5 L32.75 -15.6 Q31.65 -14.95 29.95 -14.35 26.6 -13.15 24.0 -13.55" fill="#000000" fill-rule="evenodd" stroke="none"/>
  </g>
</svg>
