<?xml version="1.0" encoding="UTF-8" standalone="no"?>
<svg xmlns:ffdec="https://www.free-decompiler.com/flash" xmlns:xlink="http://www.w3.org/1999/xlink" ffdec:objectType="shape" height="80.6px" width="80.0px" xmlns="http://www.w3.org/2000/svg">
  <g transform="matrix(1.0, 0.0, 0.0, 1.0, 40.0, 80.6)">
    <path d="M15.05 -59.2 Q14.9 -61.0 11.8 -60.85 8.7 -60.7 8.4 -58.6 L8.3 -57.9 Q7.2 -60.75 2.8 -61.4 -2.1 -62.15 -7.15 -59.05 -7.85 -60.85 -10.7 -60.85 -13.5 -60.85 -13.65 -59.2 L-13.65 -49.35 -13.5 -38.25 -14.25 -38.25 Q-17.9 -41.0 -19.35 -45.45 -20.65 -49.7 -19.55 -54.25 -18.35 -58.95 -14.9 -62.45 -11.05 -66.3 -5.3 -67.75 -3.05 -68.25 -2.35 -73.0 L-1.7 -76.2 Q-1.15 -77.6 -0.05 -77.6 1.65 -77.6 2.65 -73.4 3.7 -68.95 5.2 -68.55 10.85 -67.15 15.0 -63.05 18.75 -59.3 20.3 -54.25 21.8 -49.3 20.6 -45.0 19.3 -40.45 15.35 -38.25 L14.85 -38.25 Q15.25 -56.8 15.05 -59.2 M9.35 -53.65 Q9.35 -58.65 11.55 -58.85 14.0 -59.05 13.4 -53.25 13.15 -51.0 12.45 -49.45 11.8 -47.75 11.0 -48.05 9.3 -48.7 9.35 -53.65 M8.65 -21.9 Q8.4 -19.25 6.5 -17.6 4.4 -15.75 0.8 -15.7 -2.85 -15.6 -5.1 -17.6 -7.05 -19.35 -7.35 -22.15 -7.65 -24.85 -6.25 -27.1 -4.7 -29.55 -1.85 -30.3 -5.45 -29.65 -7.45 -26.95 -9.3 -24.5 -9.0 -21.4 -8.75 -18.25 -6.35 -16.25 -3.65 -13.95 0.8 -14.05 5.25 -14.1 7.8 -16.25 10.05 -18.15 10.25 -21.1 10.45 -23.9 8.7 -26.4 6.8 -29.0 3.55 -30.0 6.1 -29.0 7.55 -26.6 8.9 -24.4 8.65 -21.9 M3.2 -22.5 Q4.2 -23.2 6.0 -25.25 4.4 -28.75 0.5 -28.75 -3.45 -28.75 -5.15 -25.15 -4.35 -24.0 -2.05 -22.45 -1.85 -24.65 0.5 -24.6 2.85 -24.6 3.2 -22.5 M19.5 -7.4 Q19.45 -5.7 18.35 -3.85 17.4 -2.1 16.5 -1.65 L13.25 -1.4 14.2 -3.3 Q15.15 -5.55 15.15 -7.3 L19.5 -7.4 M27.65 -6.25 Q27.25 -6.3 26.95 -7.15 26.6 -8.05 26.65 -9.1 26.8 -12.05 30.15 -13.2 30.25 -15.85 32.45 -22.55 34.05 -22.7 34.45 -23.65 34.75 -24.4 34.4 -25.3 35.7 -25.25 35.5 -20.15 L34.8 -12.85 Q37.5 -12.6 37.2 -9.35 37.1 -8.15 36.6 -7.1 36.15 -6.05 35.75 -6.0 35.45 -5.95 35.5 -6.75 L35.4 -8.4 Q35.0 -10.85 31.4 -10.55 28.5 -10.25 28.05 -8.2 L27.95 -6.8 Q27.9 -6.2 27.65 -6.25 M-17.55 -3.85 Q-18.55 -5.7 -18.65 -7.4 L-14.3 -7.3 Q-14.3 -5.55 -13.35 -3.3 L-12.4 -1.4 -15.65 -1.65 Q-16.55 -2.1 -17.55 -3.85 M-27.1 -7.15 Q-27.45 -6.3 -27.8 -6.25 -28.1 -6.2 -28.1 -6.8 L-28.2 -8.2 Q-28.65 -10.25 -31.55 -10.55 -35.15 -10.85 -35.6 -8.35 L-35.65 -6.65 Q-35.65 -5.95 -35.9 -6.0 -37.6 -6.6 -37.65 -9.4 -37.7 -12.4 -34.85 -12.65 L-35.6 -20.05 Q-35.9 -25.25 -34.55 -25.3 -34.9 -24.4 -34.65 -23.65 -34.2 -22.7 -32.65 -22.55 -30.4 -15.85 -30.35 -13.2 -27.0 -12.05 -26.8 -9.1 -26.75 -8.05 -27.1 -7.15 M-25.1 -30.85 Q-24.4 -32.35 -23.0 -33.0 L-19.55 -32.9 Q-19.8 -31.9 -20.9 -29.8 L-22.65 -26.55 Q-24.5 -26.75 -25.15 -28.1 -25.7 -29.35 -25.1 -30.85 M0.7 -32.8 Q16.7 -33.0 17.95 -32.75 18.75 -29.85 19.8 -22.1 20.85 -14.6 20.85 -12.2 18.1 -11.75 0.6 -11.75 L-20.3 -12.75 Q-20.1 -15.9 -19.15 -22.1 -17.95 -29.55 -16.9 -32.3 -15.55 -32.65 0.7 -32.8 M20.05 -33.1 L23.3 -32.95 Q24.55 -32.25 25.1 -30.7 25.65 -29.2 25.15 -28.0 24.55 -26.65 22.95 -26.55 21.7 -28.6 20.05 -33.1 M7.0 -38.25 L-1.85 -38.25 Q1.25 -38.75 3.7 -39.9 6.45 -41.15 7.25 -42.7 L7.0 -38.25 M-1.6 -44.75 Q-4.75 -43.95 -4.8 -45.45 -4.8 -47.0 -1.75 -47.05 L2.65 -46.4 Q0.8 -45.35 -1.6 -44.75 M4.25 -44.15 Q4.1 -43.35 3.2 -42.55 0.7 -40.5 -5.75 -39.85 L-5.9 -43.1 -2.25 -42.85 Q0.35 -43.35 3.8 -45.15 4.35 -44.85 4.25 -44.15 M5.95 -46.6 L7.55 -47.75 7.35 -44.75 Q7.0 -45.7 5.95 -46.6 M6.1 -50.35 Q6.4 -49.1 4.3 -48.05 0.75 -49.45 -2.2 -49.15 -4.7 -48.9 -6.15 -47.45 L-6.45 -51.95 Q-5.2 -51.1 -2.6 -51.0 0.35 -50.9 4.45 -51.95 5.9 -51.45 6.1 -50.35 M-4.4 -53.3 Q-3.95 -54.35 -1.15 -53.9 L2.6 -52.9 Q1.2 -52.25 -1.75 -52.25 -4.9 -52.2 -4.4 -53.3 M6.55 -53.5 Q7.6 -54.3 8.05 -55.2 L7.85 -52.45 Q7.3 -53.15 6.55 -53.5 M-6.9 -57.55 L-6.85 -57.55 Q-5.75 -58.35 -3.05 -58.9 L2.1 -59.2 Q4.8 -59.0 5.65 -57.9 6.65 -56.65 4.75 -54.4 0.65 -55.85 -2.6 -55.75 -5.3 -55.6 -6.65 -54.55 L-6.9 -57.55 M-10.35 -59.25 Q-7.8 -59.45 -8.35 -54.15 -8.5 -52.15 -9.15 -50.55 -9.7 -48.85 -10.3 -48.85 -11.05 -48.85 -11.75 -50.45 -12.35 -51.95 -12.45 -53.95 -12.8 -59.05 -10.35 -59.25" fill="#ffffff" fill-rule="evenodd" stroke="none"/>
    <path d="M9.35 -53.65 Q9.3 -48.7 11.0 -48.05 11.8 -47.75 12.45 -49.45 13.15 -51.0 13.4 -53.25 14.0 -59.05 11.55 -58.85 9.35 -58.65 9.35 -53.65 M15.05 -59.2 Q15.25 -56.8 14.85 -38.25 L15.35 -38.25 Q19.3 -40.45 20.6 -45.0 21.8 -49.3 20.3 -54.25 18.75 -59.3 15.0 -63.05 10.85 -67.15 5.2 -68.55 3.7 -68.95 2.65 -73.4 1.65 -77.6 -0.05 -77.6 -1.15 -77.6 -1.7 -76.2 L-2.35 -73.0 Q-3.05 -68.25 -5.3 -67.75 -11.05 -66.3 -14.9 -62.45 -18.35 -58.95 -19.55 -54.25 -20.65 -49.7 -19.35 -45.45 -17.9 -41.0 -14.25 -38.25 L-13.5 -38.25 -13.65 -49.35 -13.65 -59.2 Q-13.5 -60.85 -10.7 -60.85 -7.85 -60.85 -7.15 -59.05 -2.1 -62.15 2.8 -61.4 7.2 -60.75 8.3 -57.9 L8.4 -58.6 Q8.7 -60.7 11.8 -60.85 14.9 -61.0 15.05 -59.2 M16.95 -64.0 Q20.95 -59.7 22.45 -54.0 23.95 -48.4 22.55 -43.75 21.0 -38.8 16.65 -36.95 L16.75 -35.8 16.75 -34.55 17.8 -34.5 Q19.1 -35.25 20.85 -35.2 23.9 -35.05 25.9 -33.25 27.7 -31.65 27.75 -29.65 L33.55 -26.6 35.95 -26.35 Q37.15 -25.7 37.4 -24.5 L38.05 -24.15 Q38.95 -23.55 38.55 -22.2 38.15 -20.85 37.35 -21.0 L37.25 -17.2 37.05 -13.8 Q41.0 -12.9 39.65 -8.25 39.1 -6.45 37.9 -5.05 36.65 -3.6 35.5 -3.55 33.75 -3.45 33.75 -5.75 33.7 -8.1 32.1 -8.1 30.35 -8.1 30.1 -6.0 29.85 -3.8 28.8 -3.55 27.55 -3.3 26.35 -4.7 25.2 -6.0 24.8 -8.05 24.35 -10.25 25.15 -12.05 26.05 -14.15 28.4 -15.05 29.35 -19.15 30.8 -23.4 L26.4 -25.6 Q25.75 -24.9 24.35 -24.15 22.85 -23.35 21.55 -23.2 23.55 -11.6 22.9 -10.7 L21.6 -10.4 Q22.1 -6.5 20.2 -3.2 18.6 -0.45 17.05 -0.15 L13.55 -0.05 11.6 -0.15 Q9.45 -0.15 8.3 -3.25 7.3 -6.0 7.45 -9.7 0.5 -9.55 -6.6 -9.65 -6.45 -5.9 -7.45 -3.25 -8.6 -0.15 -10.75 -0.15 -14.15 0.15 -16.2 -0.15 -17.75 -0.45 -19.35 -3.15 -21.2 -6.45 -20.8 -10.3 L-22.5 -10.7 Q-22.85 -10.95 -22.3 -14.75 L-20.85 -22.85 -21.25 -22.85 Q-22.6 -22.95 -24.25 -23.9 L-26.45 -25.6 Q-29.15 -24.25 -30.8 -23.4 -29.35 -19.15 -28.45 -15.05 -23.8 -13.3 -24.85 -8.05 -25.2 -6.0 -26.4 -4.7 -27.55 -3.3 -28.8 -3.55 -29.85 -3.8 -30.1 -6.0 -30.35 -8.1 -32.1 -8.1 -33.7 -8.1 -33.75 -5.75 -33.8 -3.45 -35.55 -3.55 -36.7 -3.6 -37.9 -5.05 -39.1 -6.45 -39.65 -8.25 -41.05 -12.9 -37.1 -13.8 L-37.35 -21.0 Q-38.2 -20.85 -38.55 -22.2 -39.0 -23.55 -38.05 -24.15 L-37.45 -24.5 Q-37.15 -25.7 -35.95 -26.35 L-33.55 -26.6 -27.8 -29.65 Q-27.75 -31.55 -26.0 -33.3 -24.1 -35.25 -21.55 -35.3 -18.9 -35.4 -17.15 -34.15 L-16.2 -34.3 -16.15 -35.65 -16.2 -36.95 Q-20.05 -39.65 -21.5 -44.55 -22.9 -49.3 -21.65 -54.45 -20.3 -59.8 -16.5 -63.85 -12.25 -68.3 -6.0 -70.05 -4.95 -71.2 -4.4 -73.2 L-3.7 -76.65 Q-2.95 -80.6 -0.3 -80.6 2.45 -80.6 4.0 -76.2 L5.05 -72.75 Q5.7 -70.9 6.4 -70.2 12.55 -68.7 16.95 -64.0 M-10.35 -59.25 Q-12.8 -59.05 -12.45 -53.95 -12.35 -51.95 -11.75 -50.45 -11.05 -48.85 -10.3 -48.85 -9.7 -48.85 -9.15 -50.55 -8.5 -52.15 -8.35 -54.15 -7.8 -59.45 -10.35 -59.25 M-6.9 -57.55 L-6.65 -54.55 Q-5.3 -55.6 -2.6 -55.75 0.65 -55.85 4.75 -54.4 6.65 -56.65 5.65 -57.9 4.8 -59.0 2.1 -59.2 L-3.05 -58.9 Q-5.75 -58.35 -6.85 -57.55 L-6.9 -57.55 M6.55 -53.5 Q7.3 -53.15 7.85 -52.45 L8.05 -55.2 Q7.6 -54.3 6.55 -53.5 M-4.4 -53.3 Q-4.9 -52.2 -1.75 -52.25 1.2 -52.25 2.6 -52.9 L-1.15 -53.9 Q-3.95 -54.35 -4.4 -53.3 M6.1 -50.35 Q5.9 -51.45 4.45 -51.95 0.35 -50.9 -2.6 -51.0 -5.2 -51.1 -6.45 -51.95 L-6.15 -47.45 Q-4.7 -48.9 -2.2 -49.15 0.75 -49.45 4.3 -48.05 6.4 -49.1 6.1 -50.35 M5.95 -46.6 Q7.0 -45.7 7.35 -44.75 L7.55 -47.75 5.95 -46.6 M4.25 -44.15 Q4.35 -44.85 3.8 -45.15 0.35 -43.35 -2.25 -42.85 L-5.9 -43.1 -5.75 -39.85 Q0.7 -40.5 3.2 -42.55 4.1 -43.35 4.25 -44.15 M-1.6 -44.75 Q0.8 -45.35 2.65 -46.4 L-1.75 -47.05 Q-4.8 -47.0 -4.8 -45.45 -4.75 -43.95 -1.6 -44.75 M7.0 -38.25 L7.25 -42.7 Q6.45 -41.15 3.7 -39.9 1.25 -38.75 -1.85 -38.25 L7.0 -38.25 M20.05 -33.1 Q21.7 -28.6 22.95 -26.55 24.55 -26.65 25.15 -28.0 25.65 -29.2 25.1 -30.7 24.55 -32.25 23.3 -32.95 L20.05 -33.1 M0.7 -32.8 Q-15.55 -32.65 -16.9 -32.3 -17.95 -29.55 -19.15 -22.1 -20.1 -15.9 -20.3 -12.75 L0.6 -11.75 Q18.1 -11.75 20.85 -12.2 20.85 -14.6 19.8 -22.1 18.75 -29.85 17.95 -32.75 16.7 -33.0 0.7 -32.8 M-25.1 -30.85 Q-25.7 -29.35 -25.15 -28.1 -24.5 -26.75 -22.65 -26.55 L-20.9 -29.8 Q-19.8 -31.9 -19.55 -32.9 L-23.0 -33.0 Q-24.4 -32.35 -25.1 -30.85 M-27.1 -7.15 Q-26.75 -8.05 -26.8 -9.1 -27.0 -12.05 -30.35 -13.2 -30.4 -15.85 -32.65 -22.55 -34.2 -22.7 -34.65 -23.65 -34.9 -24.4 -34.55 -25.3 -35.9 -25.25 -35.6 -20.05 L-34.85 -12.65 Q-37.7 -12.4 -37.65 -9.4 -37.6 -6.6 -35.9 -6.0 -35.65 -5.95 -35.65 -6.65 L-35.6 -8.35 Q-35.15 -10.85 -31.55 -10.55 -28.65 -10.25 -28.2 -8.2 L-28.1 -6.8 Q-28.1 -6.2 -27.8 -6.25 -27.45 -6.3 -27.1 -7.15 M-17.55 -3.85 Q-16.55 -2.1 -15.65 -1.65 L-12.4 -1.4 -13.35 -3.3 Q-14.3 -5.55 -14.3 -7.3 L-18.65 -7.4 Q-18.55 -5.7 -17.55 -3.85 M27.65 -6.25 Q27.9 -6.2 27.95 -6.8 L28.05 -8.2 Q28.5 -10.25 31.4 -10.55 35.0 -10.85 35.4 -8.4 L35.5 -6.75 Q35.45 -5.95 35.75 -6.0 36.15 -6.05 36.6 -7.1 37.1 -8.15 37.2 -9.35 37.5 -12.6 34.8 -12.85 L35.5 -20.15 Q35.7 -25.25 34.4 -25.3 34.75 -24.4 34.45 -23.65 34.05 -22.7 32.45 -22.55 30.25 -15.85 30.15 -13.2 26.8 -12.05 26.65 -9.1 26.6 -8.05 26.95 -7.15 27.25 -6.3 27.65 -6.25 M19.5 -7.4 L15.15 -7.3 Q15.15 -5.55 14.2 -3.3 L13.25 -1.4 16.5 -1.65 Q17.4 -2.1 18.35 -3.85 19.45 -5.7 19.5 -7.4 M3.2 -22.5 Q2.85 -24.6 0.5 -24.6 -1.85 -24.65 -2.05 -22.45 -4.35 -24.0 -5.15 -25.15 -3.45 -28.75 0.5 -28.75 4.4 -28.75 6.0 -25.25 4.2 -23.2 3.2 -22.5 M8.65 -21.9 Q8.9 -24.4 7.55 -26.6 6.1 -29.0 3.55 -30.0 6.8 -29.0 8.7 -26.4 10.45 -23.9 10.25 -21.1 10.05 -18.15 7.8 -16.25 5.25 -14.1 0.8 -14.05 -3.65 -13.95 -6.35 -16.25 -8.75 -18.25 -9.0 -21.4 -9.3 -24.5 -7.45 -26.95 -5.45 -29.65 -1.85 -30.3 -4.7 -29.55 -6.25 -27.1 -7.65 -24.85 -7.35 -22.15 -7.05 -19.35 -5.1 -17.6 -2.85 -15.6 0.8 -15.7 4.4 -15.75 6.5 -17.6 8.4 -19.25 8.65 -21.9" fill="#000000" fill-rule="evenodd" stroke="none"/>
  </g>
</svg>
