<?xml version="1.0" encoding="UTF-8" standalone="no"?>
<svg xmlns:ffdec="https://www.free-decompiler.com/flash" xmlns:xlink="http://www.w3.org/1999/xlink" ffdec:objectType="shape" height="79.5px" width="79.95px" xmlns="http://www.w3.org/2000/svg">
  <g transform="matrix(1.0, 0.0, 0.0, 1.0, 40.0, 79.5)">
    <path d="M21.25 -1.55 L27.05 -1.6 Q27.35 -3.0 25.8 -4.0 24.45 -4.85 22.65 -5.0 21.85 -4.25 19.9 -4.3 18.0 -4.35 17.55 -5.05 16.4 -3.75 16.55 -1.55 L21.25 -1.55 M-27.1 -18.7 L-27.75 -15.9 Q-20.75 -14.15 0.75 -13.65 22.9 -13.2 29.65 -15.0 L29.3 -17.2 28.5 -19.85 Q20.0 -24.55 2.9 -25.25 -14.15 -25.95 -26.25 -22.2 L-27.1 -18.7 M-14.85 -1.75 Q-14.7 -3.95 -15.85 -5.25 -16.3 -4.55 -18.2 -4.45 -20.15 -4.4 -20.95 -5.2 -22.8 -5.05 -24.1 -4.2 -25.7 -3.2 -25.35 -1.8 -23.9 -1.7 -14.85 -1.75 M0.8 -41.55 Q3.5 -41.6 4.95 -39.95 6.15 -38.5 6.05 -36.35 5.95 -34.25 4.7 -32.8 3.35 -31.25 1.45 -31.4 2.3 -31.65 3.15 -32.95 4.0 -34.2 4.2 -35.65 4.75 -39.45 0.75 -39.45 -0.45 -39.45 -1.4 -38.55 -2.25 -37.7 -2.45 -36.35 -2.95 -33.1 0.5 -31.4 -1.6 -31.3 -3.0 -32.85 -4.35 -34.3 -4.45 -36.35 -4.6 -38.45 -3.35 -39.9 -1.95 -41.55 0.8 -41.55 M-4.65 -45.55 L-5.4 -50.75 -8.55 -50.45 -11.3 -50.1 -13.1 -44.25 -4.65 -45.55 M-18.65 -41.25 L-19.0 -39.15 Q-17.9 -39.15 -16.8 -38.1 -15.25 -36.5 -16.45 -33.75 -16.3 -35.15 -16.95 -36.2 -17.55 -37.15 -18.45 -37.4 -19.4 -37.65 -20.15 -36.95 -20.95 -36.2 -21.15 -34.5 -21.45 -31.2 -19.45 -31.25 -17.5 -31.25 -16.45 -33.75 -16.3 -30.95 -18.25 -29.85 -19.65 -29.1 -20.65 -29.4 L-21.35 -25.05 -17.5 -25.85 -11.25 -26.85 -10.1 -35.9 -8.9 -43.9 -14.2 -42.7 -18.65 -41.25 M-17.65 -47.85 L-18.0 -45.45 Q-17.15 -44.3 -17.9 -43.1 -18.05 -42.3 -18.55 -41.8 L-18.55 -41.75 Q-16.95 -43.0 -14.5 -43.75 L-13.2 -44.15 -13.2 -49.25 Q-16.45 -48.45 -17.65 -47.85 M-33.45 -54.2 Q-32.2 -54.0 -31.35 -53.45 -29.15 -52.0 -29.2 -49.5 -29.2 -47.1 -31.1 -45.4 -32.1 -44.75 -33.25 -44.6 -34.65 -44.5 -35.85 -45.15 L-36.95 -46.1 -37.65 -47.4 -37.75 -47.8 -38.45 -48.15 Q-38.9 -45.7 -37.65 -44.05 -36.6 -42.6 -34.55 -42.15 L-30.75 -42.4 Q-28.8 -43.1 -27.95 -44.7 L-24.6 -44.0 -20.5 -43.1 Q-19.05 -43.1 -18.9 -43.9 -18.75 -44.7 -19.95 -45.05 L-23.75 -46.05 -27.0 -46.7 -27.0 -46.75 -27.05 -46.75 Q-25.65 -51.5 -28.55 -53.9 -30.95 -55.9 -33.45 -55.1 L-34.7 -54.6 -34.3 -54.25 -33.45 -54.2 M-22.25 -76.0 Q-21.55 -75.3 -21.55 -74.3 -21.55 -73.3 -22.25 -72.6 -22.95 -71.9 -23.95 -71.9 -24.95 -71.9 -25.65 -72.6 -26.35 -73.3 -26.35 -74.3 -26.35 -75.3 -25.65 -76.0 -24.95 -76.7 -23.95 -76.7 -22.95 -76.7 -22.25 -76.0 M-20.25 -74.3 Q-20.25 -75.8 -21.35 -76.95 -22.4 -78.0 -23.95 -78.0 -25.5 -78.0 -26.6 -76.95 -27.65 -75.8 -27.65 -74.3 -27.65 -72.75 -26.6 -71.65 -25.5 -70.6 -23.95 -70.6 -22.45 -70.6 -21.35 -71.65 -20.25 -72.75 -20.25 -74.3 M-7.85 -63.55 L-8.4 -59.8 -5.6 -60.55 -5.2 -64.45 -7.85 -63.55 M-8.75 -55.75 L-9.1 -52.6 -6.55 -53.15 -6.35 -56.3 -8.75 -55.75 M12.6 -26.35 L11.95 -35.85 Q11.5 -43.65 11.6 -44.35 L4.55 -44.85 0.95 -44.85 -2.2 -44.7 -8.55 -43.9 Q-8.45 -43.3 -9.2 -35.9 L-10.1 -26.95 -9.9 -26.95 -0.95 -27.2 12.6 -26.35 M20.7 -39.95 L20.35 -42.2 Q19.0 -42.75 16.1 -43.5 L11.8 -44.35 Q12.25 -43.2 13.75 -26.2 L17.35 -25.65 22.9 -24.45 22.1 -30.15 Q21.2 -29.85 19.85 -30.75 18.0 -31.9 18.15 -34.65 18.35 -33.45 19.2 -32.7 20.0 -32.0 20.95 -32.05 23.35 -32.1 22.9 -35.25 22.4 -38.5 20.35 -38.15 18.3 -37.75 18.15 -34.65 17.65 -35.95 18.05 -37.5 18.55 -39.55 20.7 -39.95 M19.85 -45.55 L19.4 -48.55 18.05 -48.9 16.5 -49.25 16.25 -44.65 15.5 -50.1 12.5 -50.55 8.3 -50.75 7.2 -46.2 6.7 -51.45 2.8 -51.65 1.15 -51.6 -3.4 -51.3 -4.6 -45.55 0.9 -45.95 Q0.9 -46.2 7.7 -45.8 14.75 -45.35 16.4 -44.55 18.3 -44.05 19.6 -43.25 18.95 -44.4 19.85 -45.55 M20.0 -53.95 L19.95 -54.85 19.65 -55.55 Q13.15 -59.85 1.2 -59.8 -10.75 -59.8 -17.3 -55.45 L-17.55 -54.65 -17.4 -54.15 Q-9.05 -59.35 3.9 -58.45 9.05 -58.1 13.6 -56.8 17.9 -55.55 20.0 -53.95 M9.25 -56.3 L9.45 -53.15 12.05 -52.6 11.65 -55.75 9.25 -56.3 M11.3 -59.8 L10.75 -63.55 8.15 -64.45 8.5 -60.55 11.3 -59.8 M14.9 -66.25 L12.75 -69.3 Q10.65 -71.6 8.35 -72.6 6.2 -73.75 3.6 -74.1 L1.4 -74.25 -0.8 -74.1 Q-3.5 -73.75 -5.65 -72.7 -8.0 -71.7 -10.2 -69.55 -11.85 -67.95 -12.55 -66.7 L-13.75 -64.75 -14.9 -61.95 Q-10.25 -65.15 -5.25 -66.2 L6.7 -66.7 Q9.7 -66.35 12.55 -65.35 L14.35 -64.6 16.4 -63.55 14.9 -66.25 M23.15 -74.3 Q23.15 -75.3 23.85 -76.0 24.6 -76.7 25.55 -76.7 26.55 -76.7 27.3 -76.0 28.0 -75.3 28.0 -74.3 28.0 -73.3 27.3 -72.6 26.55 -71.9 25.55 -71.9 24.6 -71.9 23.85 -72.6 23.15 -73.3 23.15 -74.3 M34.3 -54.25 L34.65 -54.6 33.45 -55.1 Q30.95 -55.85 28.55 -53.9 25.65 -51.5 27.0 -46.75 L26.95 -46.7 21.05 -44.5 Q20.25 -44.1 20.3 -43.6 20.35 -43.05 21.65 -43.05 L25.2 -43.95 27.9 -44.7 Q28.8 -43.1 30.75 -42.4 L34.5 -42.15 Q36.55 -42.6 37.65 -44.05 38.85 -45.7 38.45 -48.15 L37.75 -47.8 37.6 -47.4 36.95 -46.1 35.85 -45.15 Q34.6 -44.5 33.25 -44.6 32.05 -44.75 31.1 -45.4 29.2 -47.1 29.2 -49.5 29.15 -52.0 31.3 -53.45 32.2 -54.0 33.4 -54.2 L34.3 -54.25 M29.3 -74.3 Q29.3 -75.8 28.2 -76.95 27.1 -78.0 25.55 -78.0 24.05 -78.0 22.95 -76.95 21.85 -75.8 21.85 -74.3 21.85 -72.75 22.95 -71.65 24.05 -70.6 25.55 -70.6 27.1 -70.6 28.2 -71.65 29.3 -72.75 29.3 -74.3 M28.9 -78.45 L30.1 -77.3 30.8 -75.9 Q31.5 -74.0 30.75 -72.25 30.1 -70.3 28.0 -69.35 26.25 -68.55 25.3 -68.9 24.25 -69.0 23.55 -69.4 L19.0 -67.55 18.45 -67.3 17.15 -66.6 18.55 -62.65 19.6 -59.4 20.25 -56.25 20.75 -55.9 20.95 -55.8 21.0 -55.75 21.2 -55.5 21.25 -55.4 21.4 -54.95 21.6 -54.15 21.65 -53.55 21.7 -53.1 21.75 -53.0 21.75 -52.95 20.95 -52.35 21.85 -47.0 25.2 -48.4 Q24.55 -50.8 25.6 -52.85 26.55 -54.7 28.6 -55.85 30.6 -56.9 32.9 -56.9 35.25 -56.9 37.05 -55.65 L37.05 -55.6 37.15 -54.65 37.1 -53.95 34.6 -52.8 Q32.35 -53.35 31.4 -51.5 30.45 -49.7 31.5 -47.55 32.4 -45.85 34.6 -46.3 36.9 -46.75 36.5 -49.65 L38.8 -50.55 39.1 -50.65 Q40.65 -46.25 39.45 -43.5 38.4 -41.1 35.65 -40.35 33.2 -39.65 30.6 -40.4 28.05 -41.15 27.3 -42.85 L22.5 -41.75 23.05 -39.0 Q24.1 -38.0 24.55 -36.6 L24.8 -35.4 24.8 -34.3 Q24.75 -32.95 24.1 -31.8 L25.2 -23.75 25.25 -23.7 Q28.2 -22.6 30.85 -20.65 31.6 -18.8 32.25 -13.4 29.5 -12.45 23.3 -11.95 23.9 -9.75 23.45 -6.45 25.9 -6.15 27.6 -4.95 30.2 -3.2 29.7 0.0 L14.75 0.0 Q14.35 -1.05 14.8 -3.2 15.3 -5.25 16.1 -6.2 L16.65 -9.45 Q16.7 -10.85 16.4 -11.6 L8.5 -11.45 Q-3.05 -11.15 -14.7 -11.85 L-14.95 -9.7 -14.45 -6.4 Q-13.6 -5.5 -13.1 -3.3 -12.65 -1.05 -13.05 0.0 L-28.0 0.0 Q-28.5 -3.2 -25.9 -5.05 -24.1 -6.4 -21.75 -6.6 L-21.95 -8.7 Q-22.0 -11.1 -21.5 -12.5 -26.85 -13.3 -30.0 -14.75 L-29.0 -18.75 Q-28.05 -22.25 -27.45 -23.2 L-23.65 -24.45 -22.6 -31.0 Q-23.3 -32.25 -23.35 -33.7 L-23.3 -34.9 -22.95 -36.0 Q-22.45 -37.4 -21.35 -38.35 L-21.35 -38.4 -20.8 -41.3 -20.85 -41.3 -24.55 -42.3 -27.35 -42.85 Q-28.1 -41.15 -30.65 -40.4 -33.25 -39.65 -35.7 -40.35 -38.45 -41.1 -39.5 -43.5 -40.7 -46.25 -39.1 -50.65 L-38.85 -50.55 -36.5 -49.65 Q-36.9 -46.75 -34.6 -46.3 -32.4 -45.85 -31.55 -47.55 -30.5 -49.7 -31.4 -51.5 -32.4 -53.35 -34.65 -52.8 -35.9 -53.55 -37.1 -53.95 L-37.15 -54.65 -37.1 -55.6 -37.05 -55.65 Q-35.3 -56.9 -32.9 -56.9 -30.6 -56.9 -28.6 -55.85 -26.55 -54.7 -25.6 -52.85 -24.55 -50.8 -25.2 -48.4 L-19.7 -46.8 -18.4 -52.5 -18.95 -52.55 -19.25 -52.5 -18.7 -55.55 -17.75 -56.2 -17.05 -60.05 -15.6 -65.6 -15.2 -66.5 -16.65 -67.3 -17.2 -67.55 -21.75 -69.4 Q-22.45 -69.0 -23.45 -68.9 -24.4 -68.55 -26.15 -69.35 -28.3 -70.3 -28.95 -72.25 -29.65 -74.0 -29.05 -75.9 L-28.3 -77.3 -27.15 -78.45 Q-25.55 -79.65 -23.65 -79.5 -21.6 -79.5 -20.05 -77.75 -18.75 -76.35 -18.75 -75.35 -18.65 -74.75 -18.7 -74.0 L-12.5 -70.35 Q-9.7 -73.35 -6.6 -74.7 -4.1 -75.9 -1.1 -76.25 L1.4 -76.45 3.9 -76.25 Q6.9 -75.85 9.35 -74.6 12.1 -73.35 14.55 -70.5 L20.5 -74.0 Q20.4 -74.6 20.6 -75.35 20.55 -76.35 21.85 -77.75 23.4 -79.5 25.45 -79.5 27.3 -79.65 28.9 -78.45" fill="#000000" fill-rule="evenodd" stroke="none"/>
    <path d="M22.65 -5.0 Q24.45 -4.85 25.8 -4.0 27.35 -3.0 27.05 -1.6 L21.25 -1.55 16.55 -1.55 Q16.4 -3.75 17.55 -5.05 18.0 -4.35 19.9 -4.3 21.85 -4.25 22.65 -5.0 M-27.75 -15.9 L-27.1 -18.7 -26.25 -22.2 Q-14.15 -25.95 2.9 -25.25 20.0 -24.55 28.5 -19.85 L29.3 -17.2 29.65 -15.0 Q22.9 -13.2 0.75 -13.65 -20.75 -14.15 -27.75 -15.9 M-15.85 -5.25 Q-14.7 -3.95 -14.85 -1.75 -23.9 -1.7 -25.35 -1.8 -25.7 -3.2 -24.1 -4.2 -22.8 -5.05 -20.95 -5.2 -20.15 -4.4 -18.2 -4.45 -16.3 -4.55 -15.85 -5.25 M4.95 -39.95 Q3.5 -41.6 0.8 -41.55 -1.95 -41.55 -3.35 -39.9 -4.6 -38.45 -4.45 -36.35 -4.35 -34.3 -3.0 -32.85 -1.6 -31.3 0.5 -31.4 -2.95 -33.1 -2.45 -36.35 -2.25 -37.7 -1.4 -38.55 -0.45 -39.45 0.75 -39.45 4.75 -39.45 4.2 -35.65 4.0 -34.2 3.15 -32.95 2.3 -31.65 1.45 -31.4 3.35 -31.25 4.7 -32.8 5.95 -34.25 6.05 -36.35 6.15 -38.5 4.95 -39.95 M-5.4 -50.75 L-4.65 -45.55 -13.1 -44.25 -11.3 -50.1 -8.55 -50.45 -5.4 -50.75 M-19.45 -31.25 Q-21.45 -31.2 -21.15 -34.5 -20.95 -36.2 -20.15 -36.95 -19.4 -37.65 -18.45 -37.4 -17.55 -37.15 -16.95 -36.2 -16.3 -35.15 -16.45 -33.75 -17.5 -31.25 -19.45 -31.25 M-19.0 -39.15 L-18.65 -41.25 -14.2 -42.7 -8.9 -43.9 -10.1 -35.9 -11.25 -26.85 -17.5 -25.85 -21.35 -25.05 -20.65 -29.4 Q-19.65 -29.1 -18.25 -29.85 -16.3 -30.95 -16.45 -33.75 -15.25 -36.5 -16.8 -38.1 -17.9 -39.15 -19.0 -39.15 M-18.0 -45.45 L-17.65 -47.85 Q-16.45 -48.45 -13.2 -49.25 L-13.2 -44.15 -14.5 -43.75 Q-16.95 -43.0 -18.55 -41.75 L-18.55 -41.8 Q-18.05 -42.3 -17.9 -43.1 -17.15 -44.3 -18.0 -45.45 M-34.3 -54.25 L-34.7 -54.6 -33.45 -55.1 Q-30.95 -55.9 -28.55 -53.9 -25.65 -51.5 -27.05 -46.75 L-27.0 -46.75 -27.0 -46.7 -23.75 -46.05 -19.95 -45.05 Q-18.75 -44.7 -18.9 -43.9 -19.05 -43.1 -20.5 -43.1 L-24.6 -44.0 -27.95 -44.7 Q-28.8 -43.1 -30.75 -42.4 L-34.55 -42.15 Q-36.6 -42.6 -37.65 -44.05 -38.9 -45.7 -38.45 -48.15 L-37.75 -47.8 -37.65 -47.4 -36.95 -46.1 -35.85 -45.15 Q-34.65 -44.5 -33.25 -44.6 -32.1 -44.75 -31.1 -45.4 -29.2 -47.1 -29.2 -49.5 -29.15 -52.0 -31.35 -53.45 -32.2 -54.0 -33.45 -54.2 L-34.3 -54.25 M-21.55 -74.3 Q-21.55 -75.3 -22.25 -76.0 -22.95 -76.7 -23.95 -76.7 -24.95 -76.7 -25.65 -76.0 -26.35 -75.3 -26.35 -74.3 -26.35 -73.3 -25.65 -72.6 -24.95 -71.9 -23.95 -71.9 -22.95 -71.9 -22.25 -72.6 -21.55 -73.3 -21.55 -74.3 M-21.35 -76.95 Q-20.25 -75.8 -20.25 -74.3 -20.25 -72.75 -21.35 -71.65 -22.45 -70.6 -23.95 -70.6 -25.5 -70.6 -26.6 -71.65 -27.65 -72.75 -27.65 -74.3 -27.65 -75.8 -26.6 -76.95 -25.5 -78.0 -23.95 -78.0 -22.4 -78.0 -21.35 -76.95 M-9.1 -52.6 L-8.75 -55.75 -6.35 -56.3 -6.55 -53.15 -9.1 -52.6 M-8.4 -59.8 L-7.85 -63.55 -5.2 -64.45 -5.6 -60.55 -8.4 -59.8 M18.15 -34.65 Q18.3 -37.75 20.35 -38.15 22.4 -38.5 22.9 -35.25 23.35 -32.1 20.95 -32.05 20.0 -32.0 19.2 -32.7 18.35 -33.45 18.15 -34.65 18.0 -31.9 19.85 -30.75 21.2 -29.85 22.1 -30.15 L22.9 -24.45 17.35 -25.65 13.75 -26.2 Q12.25 -43.2 11.8 -44.35 L16.1 -43.5 Q19.0 -42.75 20.35 -42.2 L20.7 -39.95 Q18.55 -39.55 18.05 -37.5 17.65 -35.95 18.15 -34.65 M11.95 -35.85 L12.6 -26.35 -0.95 -27.2 -9.9 -26.95 -10.1 -26.95 -9.2 -35.9 Q-8.45 -43.3 -8.55 -43.9 L-2.2 -44.7 0.95 -44.85 4.55 -44.85 11.6 -44.35 Q11.5 -43.65 11.95 -35.85 M16.5 -49.25 L18.05 -48.9 19.4 -48.55 19.85 -45.55 Q18.95 -44.4 19.6 -43.25 18.3 -44.05 16.4 -44.55 14.75 -45.35 7.7 -45.8 0.9 -46.2 0.9 -45.95 L-4.6 -45.55 -3.4 -51.3 1.15 -51.6 2.8 -51.65 6.7 -51.45 7.2 -46.2 8.3 -50.75 12.5 -50.55 15.5 -50.1 16.25 -44.65 16.5 -49.25 M19.65 -55.55 L19.95 -54.85 20.0 -53.95 Q17.9 -55.55 13.6 -56.8 9.05 -58.1 3.9 -58.45 -9.05 -59.35 -17.4 -54.15 L-17.55 -54.65 -17.3 -55.45 Q-10.75 -59.8 1.2 -59.8 13.15 -59.85 19.65 -55.55 M9.45 -53.15 L9.25 -56.3 11.65 -55.75 12.05 -52.6 9.45 -53.15 M10.75 -63.55 L11.3 -59.8 8.5 -60.55 8.15 -64.45 10.75 -63.55 M8.35 -72.6 Q10.65 -71.6 12.75 -69.3 L14.9 -66.25 16.4 -63.55 14.35 -64.6 12.55 -65.35 Q9.7 -66.35 6.7 -66.7 L-5.25 -66.2 Q-10.25 -65.15 -14.9 -61.95 L-13.75 -64.75 -12.55 -66.7 Q-11.85 -67.95 -10.2 -69.55 -8.0 -71.7 -5.65 -72.7 -3.5 -73.75 -0.8 -74.1 L1.4 -74.25 3.6 -74.1 Q6.2 -73.75 8.35 -72.6 M27.3 -76.0 Q26.55 -76.7 25.55 -76.7 24.6 -76.7 23.85 -76.0 23.15 -75.3 23.15 -74.3 23.15 -73.3 23.85 -72.6 24.6 -71.9 25.55 -71.9 26.55 -71.9 27.3 -72.6 28.0 -73.3 28.0 -74.3 28.0 -75.3 27.3 -76.0 M28.2 -76.95 Q29.3 -75.8 29.3 -74.3 29.3 -72.75 28.2 -71.65 27.1 -70.6 25.55 -70.6 24.05 -70.6 22.95 -71.65 21.85 -72.75 21.85 -74.3 21.85 -75.8 22.95 -76.95 24.05 -78.0 25.55 -78.0 27.1 -78.0 28.2 -76.95 M34.65 -54.6 L34.3 -54.25 33.4 -54.2 Q32.2 -54.0 31.3 -53.45 29.15 -52.0 29.2 -49.5 29.2 -47.1 31.1 -45.4 32.05 -44.75 33.25 -44.6 34.6 -44.5 35.85 -45.15 L36.95 -46.1 37.6 -47.4 37.75 -47.8 38.45 -48.15 Q38.85 -45.7 37.65 -44.05 36.55 -42.6 34.5 -42.15 L30.75 -42.4 Q28.8 -43.1 27.9 -44.7 L25.2 -43.95 21.65 -43.05 Q20.35 -43.05 20.3 -43.6 20.25 -44.1 21.05 -44.5 L26.95 -46.7 27.0 -46.75 Q25.65 -51.5 28.55 -53.9 30.95 -55.85 33.45 -55.1 L34.65 -54.6" fill="#ffffff" fill-rule="evenodd" stroke="none"/>
  </g>
</svg>
