<?xml version="1.0" encoding="UTF-8" standalone="no"?>
<svg xmlns:ffdec="https://www.free-decompiler.com/flash" xmlns:xlink="http://www.w3.org/1999/xlink" ffdec:objectType="shape" height="85.0px" width="80.0px" xmlns="http://www.w3.org/2000/svg">
  <g transform="matrix(1.0, 0.0, 0.0, 1.0, 40.0, 85.0)">
    <path d="M13.85 -3.0 L12.4 -3.2 11.0 -3.0 10.4 -2.5 Q10.4 -2.25 11.0 -2.05 L12.4 -1.85 13.85 -2.05 14.45 -2.5 13.85 -3.0 M11.75 -16.0 L13.35 -17.2 12.85 -18.15 11.75 -16.0 M13.9 -13.35 L15.25 -15.5 14.45 -16.4 13.9 -13.35 M23.0 -13.55 L22.1 -17.1 20.8 -16.1 23.0 -13.55 M17.1 -12.45 L17.1 -15.1 16.15 -15.3 17.1 -12.45 M18.45 -15.4 L20.2 -12.75 19.7 -15.5 18.45 -15.4 M-23.1 -13.55 L-20.9 -16.1 -22.15 -17.1 -23.1 -13.55 M-20.25 -12.75 L-18.5 -15.4 -19.8 -15.5 -20.25 -12.75 M-13.9 -2.05 L-12.45 -1.85 -11.05 -2.05 Q-10.45 -2.25 -10.45 -2.5 -10.45 -2.8 -11.05 -3.0 L-12.45 -3.2 -13.9 -3.0 -14.45 -2.5 Q-14.45 -2.25 -13.9 -2.05 M-17.15 -12.45 L-16.25 -15.3 -17.15 -15.1 -17.15 -12.45 M-15.3 -15.5 L-13.9 -13.35 -14.45 -16.4 -15.3 -15.5 M-12.95 -18.15 L-13.35 -17.2 -11.85 -16.0 -12.95 -18.15 M-3.15 -24.75 L-2.6 -19.75 3.35 -19.25 3.65 -24.85 8.1 -25.5 4.0 -23.95 3.9 -18.55 -3.15 -18.95 -3.9 -23.75 -8.2 -25.1 -7.5 -14.55 -7.45 -13.3 -6.2 -12.75 -2.35 -12.1 Q-0.15 -11.95 2.3 -12.15 5.35 -12.4 7.05 -13.0 L7.6 -13.3 8.2 -23.55 8.6 -27.65 Q4.5 -26.55 0.1 -26.55 -4.3 -26.55 -8.4 -27.65 L-8.2 -25.15 -3.15 -24.75 M-4.6 -42.5 L-6.05 -45.25 Q-7.15 -46.75 -8.3 -47.2 L-9.0 -42.0 Q-9.05 -41.05 -7.85 -38.75 L-6.65 -36.6 -9.8 -39.8 -11.5 -38.15 Q-13.05 -36.35 -12.85 -35.6 -12.55 -34.85 -8.75 -35.15 -5.3 -35.4 -4.3 -35.8 -3.8 -36.0 -4.05 -38.5 L-4.6 -42.5 M-1.15 -45.0 L-1.8 -44.4 Q-2.7 -43.85 -3.65 -44.15 L-3.1 -37.1 -2.65 -36.6 Q-2.1 -36.1 -1.45 -36.3 -0.65 -36.5 -0.65 -39.35 -0.65 -41.65 -1.15 -45.0 M-1.15 -55.1 Q-3.75 -55.9 -4.35 -54.0 -4.65 -53.05 -4.45 -51.9 L-5.1 -53.25 Q-6.05 -54.8 -7.35 -55.75 -8.65 -56.7 -9.9 -54.7 L-10.9 -52.55 Q-9.25 -51.6 -7.4 -49.05 L-5.15 -45.65 Q-4.5 -44.75 -3.0 -45.9 -1.65 -46.9 -1.3 -48.2 -0.85 -49.8 -0.7 -52.1 -0.5 -54.85 -1.15 -55.1 M-28.85 -27.0 L-28.9 -26.8 Q-28.7 -25.65 -30.2 -25.05 L-31.75 -24.7 -32.0 -25.2 -32.25 -24.9 -30.65 -23.4 -33.45 -24.35 -36.65 -25.65 Q-38.2 -26.3 -38.55 -25.05 -38.95 -23.85 -37.75 -23.35 L-32.35 -21.25 -31.15 -21.65 Q-30.6 -22.1 -30.55 -23.1 -29.75 -21.8 -31.15 -20.8 -31.85 -20.3 -32.7 -20.05 L-32.35 -19.35 -28.85 -19.55 Q-26.45 -20.2 -25.15 -22.1 -25.55 -20.25 -27.5 -19.2 -28.9 -18.45 -30.9 -18.15 -29.6 -17.5 -28.2 -17.45 -26.7 -17.4 -25.65 -18.2 -22.85 -20.5 -24.45 -26.0 L-24.5 -26.2 -24.55 -26.0 Q-24.8 -24.7 -26.45 -25.0 L-28.05 -25.5 -28.3 -27.65 -28.9 -27.45 -28.85 -27.0 M-25.1 -28.75 Q-24.75 -31.2 -24.75 -32.3 -24.7 -33.9 -25.85 -33.9 -27.05 -33.9 -27.1 -32.2 L-27.05 -25.7 Q-26.5 -25.35 -26.4 -25.35 -26.15 -25.3 -25.5 -25.75 L-25.1 -28.75 M-19.4 -37.6 L-18.6 -36.9 Q-17.7 -36.0 -17.1 -35.6 L-13.8 -35.45 -13.8 -37.45 -19.4 -37.6 M-32.5 -32.35 Q-33.4 -33.85 -34.45 -33.0 -35.5 -32.1 -34.85 -31.05 L-32.95 -28.0 -31.4 -25.65 -30.35 -25.65 Q-29.85 -25.75 -29.6 -26.65 -31.3 -30.35 -32.5 -32.35 M-22.2 -46.1 Q-21.7 -44.85 -20.9 -44.85 L-14.2 -44.85 -14.35 -44.15 -17.25 -43.8 Q-20.2 -43.1 -20.45 -41.7 -20.7 -40.1 -19.45 -39.45 -18.35 -38.95 -14.75 -38.6 -11.75 -38.3 -10.65 -42.05 -9.9 -44.6 -10.1 -48.7 -10.2 -51.1 -14.95 -52.05 L-19.7 -52.55 Q-22.5 -52.85 -22.65 -48.85 -22.7 -47.35 -22.2 -46.1 M-15.7 -58.3 L-11.45 -56.6 -13.9 -63.8 Q-15.8 -63.8 -18.3 -60.5 -21.0 -57.0 -19.8 -54.9 -17.75 -54.8 -14.9 -53.75 L-12.4 -52.75 -11.85 -54.9 -15.7 -58.3 M-9.25 -68.45 Q-9.95 -68.95 -11.15 -67.8 -12.2 -66.75 -12.5 -65.75 -12.9 -64.65 -11.45 -60.85 -10.05 -57.15 -9.35 -56.75 -8.75 -56.35 -7.85 -57.25 -6.9 -58.2 -6.8 -59.7 -6.7 -61.3 -7.6 -64.6 -8.5 -67.9 -9.25 -68.45 M-2.8 -71.0 Q-3.55 -72.0 -5.7 -71.3 -7.85 -70.6 -8.3 -69.35 L-6.4 -64.3 Q-5.35 -60.75 -5.3 -56.4 -4.5 -55.65 -3.3 -56.2 -1.95 -56.9 -1.45 -59.1 -0.8 -62.1 -1.0 -65.3 -1.25 -69.1 -2.8 -71.0 M20.45 -36.05 Q28.9 -43.95 28.9 -55.2 28.9 -66.35 20.45 -74.3 12.0 -82.2 0.1 -82.2 -11.85 -82.2 -20.25 -74.3 -28.7 -66.35 -28.7 -55.2 -28.7 -43.95 -20.25 -36.05 -11.85 -28.1 0.1 -28.1 12.0 -28.1 20.45 -36.05 M32.9 -28.0 L34.8 -31.05 Q35.5 -32.1 34.4 -33.0 33.35 -33.85 32.4 -32.35 L29.5 -26.65 Q29.8 -25.75 30.3 -25.65 L31.35 -25.65 32.9 -28.0 M28.85 -26.8 L28.8 -27.0 28.8 -27.45 28.2 -27.65 28.0 -25.5 Q27.2 -25.1 26.4 -25.0 24.75 -24.7 24.5 -26.0 L24.45 -26.2 24.4 -26.0 Q23.65 -23.55 23.85 -21.6 24.15 -19.45 25.6 -18.2 26.65 -17.4 28.2 -17.45 29.6 -17.5 30.85 -18.15 28.8 -18.45 27.4 -19.2 25.5 -20.25 25.1 -22.1 26.35 -20.2 28.8 -19.55 L32.3 -19.35 32.7 -20.05 Q31.8 -20.3 31.1 -20.8 29.65 -21.8 30.5 -23.1 30.5 -22.1 31.1 -21.65 L32.25 -21.25 34.7 -22.15 37.7 -23.35 Q38.9 -23.85 38.5 -25.05 38.15 -26.3 36.6 -25.65 L33.4 -24.35 30.6 -23.4 32.2 -24.9 31.95 -25.2 31.65 -24.7 30.15 -25.05 Q28.65 -25.65 28.85 -26.8 M25.8 -33.9 Q24.65 -33.9 24.65 -32.3 L25.05 -28.75 25.4 -25.75 Q26.05 -25.3 26.35 -25.35 L27.0 -25.7 27.0 -32.2 Q27.0 -33.9 25.8 -33.9 M10.5 -28.2 L10.5 -27.45 Q11.9 -21.75 13.05 -19.4 14.4 -16.55 16.25 -16.3 17.4 -16.15 19.25 -16.75 21.0 -17.35 22.3 -18.35 L22.5 -18.45 Q22.05 -20.2 22.0 -22.1 22.0 -25.35 23.45 -27.8 L23.9 -28.25 23.35 -32.45 Q23.4 -34.1 24.65 -34.85 L25.75 -35.2 26.95 -35.0 Q28.35 -34.45 28.25 -32.75 L28.25 -29.4 29.35 -29.1 29.5 -29.45 31.6 -33.2 Q32.3 -34.6 33.65 -34.55 L35.0 -34.1 35.9 -33.15 Q36.7 -31.9 35.95 -30.4 L33.05 -26.4 33.65 -25.7 36.45 -27.05 38.8 -26.95 39.7 -25.75 40.0 -24.4 Q39.95 -22.9 38.55 -22.1 L35.15 -20.9 Q35.0 -19.7 34.4 -18.8 32.7 -16.4 30.8 -15.7 L26.6 -15.45 26.0 -14.95 Q23.75 -13.25 21.25 -12.2 17.8 -10.75 15.45 -11.35 11.85 -12.35 9.95 -17.5 L9.75 -12.7 9.45 -11.85 9.4 -11.8 9.2 -11.65 8.45 -11.15 Q9.25 -9.8 9.5 -8.1 9.95 -5.25 8.4 -2.75 10.7 -4.7 13.4 -4.0 16.15 -3.2 17.05 0.0 L3.7 0.0 Q4.85 -2.0 5.55 -4.25 6.95 -8.75 4.85 -10.15 L2.5 -9.85 -4.95 -10.1 Q-7.05 -8.75 -5.6 -4.2 -4.9 -2.0 -3.75 0.0 L-17.1 0.0 Q-16.15 -3.2 -13.45 -4.0 -10.75 -4.7 -8.45 -2.75 -10.1 -5.35 -9.5 -8.4 -9.2 -10.15 -8.45 -11.3 L-9.15 -11.8 -9.2 -11.8 -9.6 -12.7 -9.65 -14.45 -9.85 -18.0 Q-11.6 -12.45 -15.5 -11.35 -17.85 -10.75 -21.3 -12.2 -23.85 -13.25 -26.05 -14.95 L-26.65 -15.45 -30.85 -15.7 Q-32.75 -16.4 -34.5 -18.8 -35.1 -19.7 -35.2 -20.9 L-38.6 -22.1 Q-40.0 -22.9 -40.0 -24.4 L-39.8 -25.75 -38.85 -26.95 -36.5 -27.05 -33.7 -25.7 -33.15 -26.4 -36.0 -30.4 Q-36.75 -31.9 -36.0 -33.15 L-35.05 -34.1 -33.7 -34.55 Q-32.35 -34.6 -31.7 -33.2 L-29.6 -29.45 -29.45 -29.1 -28.35 -29.4 -28.3 -32.75 Q-28.45 -34.45 -27.0 -35.0 L-25.85 -35.2 -24.7 -34.85 Q-23.45 -34.1 -23.45 -32.45 L-23.95 -28.25 -23.5 -27.8 Q-22.05 -25.35 -22.05 -22.1 -22.1 -20.2 -22.55 -18.45 L-22.4 -18.35 Q-21.1 -17.35 -19.3 -16.75 -17.5 -16.15 -16.3 -16.3 -14.45 -16.55 -13.05 -19.4 -11.9 -21.8 -10.55 -27.45 L-10.65 -28.2 -10.65 -28.3 Q-19.65 -31.45 -25.3 -38.85 -31.0 -46.45 -31.0 -55.75 -31.0 -67.9 -21.9 -76.45 -12.8 -85.0 0.1 -85.0 13.0 -85.0 22.1 -76.45 31.2 -67.9 31.2 -55.75 31.2 -46.35 25.4 -38.75 19.65 -31.25 10.5 -28.2 M5.85 -47.7 Q7.9 -46.75 8.3 -46.05 8.85 -45.1 10.65 -48.1 12.5 -51.1 11.45 -52.55 10.5 -53.95 7.25 -55.65 L2.8 -57.6 1.1 -57.8 Q0.05 -57.55 0.2 -56.25 L0.45 -53.65 Q0.6 -52.55 1.45 -52.55 L4.2 -52.15 Q5.95 -51.65 6.5 -50.85 L3.55 -51.4 1.3 -51.55 Q0.7 -51.25 0.3 -50.2 -0.1 -49.05 0.5 -48.35 0.9 -47.85 1.2 -48.2 1.7 -48.75 2.55 -48.7 3.85 -48.55 5.85 -47.7 M7.3 -45.25 L4.95 -47.05 Q1.7 -48.6 1.45 -44.35 L1.15 -40.25 Q1.05 -36.1 1.7 -35.8 3.15 -35.15 3.55 -35.0 4.55 -34.7 5.0 -35.3 5.4 -35.75 5.2 -37.35 L4.9 -40.65 Q5.55 -40.0 6.1 -35.45 L7.8 -34.95 10.1 -35.1 Q10.65 -35.65 10.05 -38.35 L8.7 -43.0 Q8.4 -44.0 7.3 -45.25 M15.4 -49.65 L14.5 -51.4 12.85 -51.2 12.9 -50.45 Q12.9 -49.35 12.3 -47.85 11.7 -46.4 10.5 -45.25 L9.4 -44.35 9.8 -42.4 Q10.45 -40.5 11.75 -40.5 13.1 -40.5 14.8 -43.3 16.25 -45.85 16.25 -47.05 L15.4 -49.65 M20.05 -41.55 L20.4 -43.35 19.1 -45.25 Q17.8 -47.05 17.35 -46.55 L16.7 -44.0 Q16.15 -41.75 14.5 -40.15 13.85 -39.55 12.75 -39.05 12.25 -38.8 11.75 -38.65 L12.0 -35.6 13.9 -35.2 Q16.15 -35.2 17.8 -37.3 19.4 -39.4 20.05 -41.55 M21.05 -52.55 Q18.2 -49.85 17.35 -49.7 16.85 -49.6 17.05 -49.2 L17.35 -48.85 19.05 -46.95 Q20.9 -45.15 21.75 -45.35 22.75 -45.6 22.35 -48.9 21.95 -52.15 21.05 -52.55 M18.9 -69.3 Q18.95 -68.45 18.65 -67.65 18.1 -66.2 16.6 -65.35 18.0 -64.05 19.6 -61.5 L20.25 -60.4 21.2 -58.45 Q22.0 -56.3 21.5 -54.55 22.6 -53.75 23.2 -52.1 23.85 -50.45 23.85 -48.35 23.85 -44.85 22.3 -42.9 L22.0 -42.55 22.05 -42.3 Q22.2 -40.35 20.55 -37.7 19.35 -35.8 18.6 -35.15 16.9 -33.75 14.15 -33.75 L10.15 -33.75 10.8 -33.05 Q10.8 -32.1 7.6 -31.5 L-0.05 -30.85 -7.65 -31.5 Q-10.8 -32.1 -10.8 -33.05 L-10.2 -33.75 -14.45 -33.75 Q-17.25 -33.75 -18.95 -35.15 L-20.9 -37.7 Q-22.55 -40.4 -22.4 -42.3 L-22.35 -42.55 -22.6 -42.9 Q-24.05 -44.65 -24.2 -47.7 -26.2 -51.55 -26.15 -55.6 -26.05 -60.75 -22.85 -66.45 -25.6 -58.85 -23.55 -52.05 -22.95 -53.65 -21.85 -54.55 -22.3 -56.35 -21.55 -58.45 L-20.55 -60.4 -19.95 -61.5 -17.5 -64.85 Q-15.65 -66.8 -13.85 -66.8 L-13.7 -66.8 Q-12.75 -71.1 -6.25 -73.15 L-4.3 -73.5 Q-1.65 -73.5 -0.15 -70.95 1.3 -73.5 4.0 -73.5 L4.25 -73.45 4.35 -73.8 Q5.0 -75.5 6.85 -76.35 -2.5 -78.85 -14.3 -75.05 -10.45 -78.6 -3.7 -79.75 3.2 -80.95 9.8 -78.85 17.15 -76.55 21.55 -70.75 26.6 -64.15 26.85 -54.05 25.5 -62.6 18.9 -69.3 M19.5 -58.2 Q18.2 -61.0 18.3 -59.6 18.5 -57.7 16.7 -54.9 L14.9 -52.4 15.7 -50.7 17.6 -52.0 Q19.6 -53.55 20.1 -54.6 20.65 -55.7 19.5 -58.2 M9.5 -65.35 Q8.35 -65.8 7.15 -66.7 L6.35 -62.7 Q5.8 -60.75 5.25 -61.0 4.7 -61.25 5.25 -63.4 L6.4 -67.35 Q4.75 -68.9 4.25 -70.9 2.15 -70.75 1.0 -68.7 L0.2 -61.1 0.65 -60.15 Q1.45 -59.1 3.1 -58.45 5.8 -57.35 6.45 -57.3 8.0 -57.05 9.2 -58.4 11.45 -60.9 11.8 -64.65 10.6 -64.85 9.5 -65.35 M13.45 -64.55 L13.4 -64.5 Q12.7 -61.45 11.5 -59.0 10.4 -56.75 9.4 -56.1 L12.65 -53.25 Q13.05 -52.75 13.4 -52.9 L14.6 -54.05 Q18.1 -58.6 17.35 -61.1 L16.3 -63.2 Q15.5 -64.3 14.75 -64.65 L13.45 -64.55 M15.15 -74.9 Q13.8 -75.65 12.5 -75.45 11.15 -75.15 10.6 -74.05 10.05 -72.9 10.55 -71.6 11.1 -70.25 12.4 -69.5 13.75 -68.75 15.1 -68.95 16.45 -69.25 17.0 -70.35 17.55 -71.5 17.0 -72.8 16.45 -74.15 15.15 -74.9" fill="#000000" fill-rule="evenodd" stroke="none"/>
    <path d="M12.4 -3.2 L13.85 -3.0 14.45 -2.5 13.85 -2.05 12.4 -1.85 11.0 -2.05 Q10.4 -2.25 10.4 -2.5 L11.0 -3.0 12.4 -3.2 M13.9 -13.35 L14.45 -16.4 15.25 -15.5 13.9 -13.35 M13.35 -17.2 L11.75 -16.0 12.85 -18.15 13.35 -17.2 M22.1 -17.1 L23.0 -13.55 20.8 -16.1 22.1 -17.1 M17.1 -12.45 L16.15 -15.3 17.1 -15.1 17.1 -12.45 M18.45 -15.4 L19.7 -15.5 20.2 -12.75 18.45 -15.4 M-23.1 -13.55 L-22.15 -17.1 -20.9 -16.1 -23.1 -13.55 M-20.25 -12.75 L-19.8 -15.5 -18.5 -15.4 -20.25 -12.75 M-12.45 -3.2 L-11.05 -3.0 Q-10.45 -2.8 -10.45 -2.5 -10.45 -2.25 -11.05 -2.05 L-12.45 -1.85 -13.9 -2.05 Q-14.45 -2.25 -14.45 -2.5 L-13.9 -3.0 -12.45 -3.2 M-16.25 -15.3 L-17.15 -12.45 -17.15 -15.1 -16.25 -15.3 M-13.35 -17.2 L-12.95 -18.15 -11.85 -16.0 -13.35 -17.2 M-14.45 -16.4 L-13.9 -13.35 -15.3 -15.5 -14.45 -16.4 M2.3 -12.15 Q-0.15 -11.95 -2.35 -12.1 L-6.2 -12.75 -7.45 -13.3 -7.5 -14.55 -8.2 -25.1 -3.9 -23.75 -3.15 -18.95 3.9 -18.55 4.0 -23.95 8.1 -25.5 3.65 -24.85 3.35 -19.25 -2.6 -19.75 -3.15 -24.75 -8.2 -25.15 -8.4 -27.65 Q-4.3 -26.55 0.1 -26.55 4.5 -26.55 8.6 -27.65 L8.2 -23.55 7.6 -13.3 7.05 -13.0 Q5.35 -12.4 2.3 -12.15 M-6.05 -45.25 L-4.6 -42.5 -4.05 -38.5 Q-3.8 -36.0 -4.3 -35.8 -5.3 -35.4 -8.75 -35.15 -12.55 -34.85 -12.85 -35.6 -13.05 -36.35 -11.5 -38.15 L-9.8 -39.8 -6.65 -36.6 -7.85 -38.75 Q-9.05 -41.05 -9.0 -42.0 L-8.3 -47.2 Q-7.15 -46.75 -6.05 -45.25 M-1.8 -44.4 L-1.15 -45.0 Q-0.65 -41.65 -0.65 -39.35 -0.65 -36.5 -1.45 -36.3 -2.1 -36.1 -2.65 -36.6 L-3.1 -37.1 -3.65 -44.15 Q-2.7 -43.85 -1.8 -44.4 M-5.1 -53.25 L-4.45 -51.9 Q-4.65 -53.05 -4.35 -54.0 -3.75 -55.9 -1.15 -55.1 -0.5 -54.85 -0.7 -52.1 -0.85 -49.8 -1.3 -48.2 -1.65 -46.9 -3.0 -45.9 -4.5 -44.75 -5.15 -45.65 L-7.4 -49.05 Q-9.25 -51.6 -10.9 -52.55 L-9.9 -54.7 Q-8.65 -56.7 -7.35 -55.75 -6.05 -54.8 -5.1 -53.25 M-28.9 -26.8 L-28.85 -27.0 -28.9 -27.45 -28.3 -27.65 -28.05 -25.5 -26.45 -25.0 Q-24.8 -24.7 -24.55 -26.0 L-24.5 -26.2 -24.45 -26.0 Q-22.85 -20.5 -25.65 -18.2 -26.7 -17.4 -28.2 -17.45 -29.6 -17.5 -30.9 -18.15 -28.9 -18.45 -27.5 -19.2 -25.55 -20.25 -25.15 -22.1 -26.45 -20.2 -28.85 -19.55 L-32.35 -19.35 -32.7 -20.05 Q-31.85 -20.3 -31.15 -20.8 -29.75 -21.8 -30.55 -23.1 -30.6 -22.1 -31.15 -21.65 L-32.35 -21.25 -37.75 -23.35 Q-38.95 -23.85 -38.55 -25.05 -38.2 -26.3 -36.65 -25.65 L-33.45 -24.35 -30.65 -23.4 -32.25 -24.9 -32.0 -25.2 -31.75 -24.7 -30.2 -25.05 Q-28.7 -25.65 -28.9 -26.8 M-18.6 -36.9 L-19.4 -37.6 -13.8 -37.45 -13.8 -35.45 -17.1 -35.6 Q-17.7 -36.0 -18.6 -36.9 M-24.75 -32.3 Q-24.75 -31.2 -25.1 -28.75 L-25.5 -25.75 Q-26.15 -25.3 -26.4 -25.35 -26.5 -25.35 -27.05 -25.7 L-27.1 -32.2 Q-27.05 -33.9 -25.85 -33.9 -24.7 -33.9 -24.75 -32.3 M-32.95 -28.0 L-34.85 -31.05 Q-35.5 -32.1 -34.45 -33.0 -33.4 -33.85 -32.5 -32.35 -31.3 -30.35 -29.6 -26.65 -29.85 -25.75 -30.35 -25.65 L-31.4 -25.65 -32.95 -28.0 M-22.65 -48.85 Q-22.5 -52.85 -19.7 -52.55 L-14.95 -52.05 Q-10.2 -51.1 -10.1 -48.7 -9.9 -44.6 -10.65 -42.05 -11.75 -38.3 -14.75 -38.6 -18.35 -38.95 -19.45 -39.45 -20.7 -40.1 -20.45 -41.7 -20.2 -43.1 -17.25 -43.8 L-14.35 -44.15 -14.2 -44.85 -20.9 -44.85 Q-21.7 -44.85 -22.2 -46.1 -22.7 -47.35 -22.65 -48.85 M-13.9 -63.8 L-11.45 -56.6 -15.7 -58.3 -11.85 -54.9 -12.4 -52.75 -14.9 -53.75 Q-17.75 -54.8 -19.8 -54.9 -21.0 -57.0 -18.3 -60.5 -15.8 -63.8 -13.9 -63.8 M-9.25 -68.45 Q-8.5 -67.9 -7.6 -64.6 -6.7 -61.3 -6.8 -59.7 -6.9 -58.2 -7.85 -57.25 -8.75 -56.35 -9.35 -56.75 -10.05 -57.15 -11.45 -60.85 -12.9 -64.65 -12.5 -65.75 -12.2 -66.75 -11.15 -67.8 -9.95 -68.95 -9.25 -68.45 M-5.7 -71.3 Q-3.55 -72.0 -2.8 -71.0 -1.25 -69.1 -1.0 -65.3 -0.8 -62.1 -1.45 -59.1 -1.95 -56.9 -3.3 -56.2 -4.5 -55.65 -5.3 -56.4 -5.35 -60.75 -6.4 -64.3 L-8.3 -69.35 Q-7.85 -70.6 -5.7 -71.3 M20.45 -74.3 Q28.9 -66.35 28.9 -55.2 28.9 -43.95 20.45 -36.05 12.0 -28.1 0.1 -28.1 -11.85 -28.1 -20.25 -36.05 -28.7 -43.95 -28.7 -55.2 -28.7 -66.35 -20.25 -74.3 -11.85 -82.2 0.1 -82.2 12.0 -82.2 20.45 -74.3 M29.5 -26.65 L32.4 -32.35 Q33.35 -33.85 34.4 -33.0 35.5 -32.1 34.8 -31.05 L32.9 -28.0 31.35 -25.65 30.3 -25.65 Q29.8 -25.75 29.5 -26.65 M28.2 -27.65 L28.8 -27.45 28.8 -27.0 28.85 -26.8 Q28.65 -25.65 30.15 -25.05 L31.65 -24.7 31.95 -25.2 32.2 -24.9 30.6 -23.4 33.4 -24.35 36.6 -25.65 Q38.15 -26.3 38.5 -25.05 38.9 -23.85 37.7 -23.35 L34.7 -22.15 32.25 -21.25 31.1 -21.65 Q30.5 -22.1 30.5 -23.1 29.65 -21.8 31.1 -20.8 31.8 -20.3 32.7 -20.05 L32.3 -19.35 28.8 -19.55 Q26.35 -20.2 25.1 -22.1 25.5 -20.25 27.4 -19.2 28.8 -18.45 30.85 -18.15 29.6 -17.5 28.2 -17.45 26.65 -17.4 25.6 -18.2 24.15 -19.45 23.85 -21.6 23.65 -23.55 24.4 -26.0 L24.45 -26.2 24.5 -26.0 Q24.75 -24.7 26.4 -25.0 27.2 -25.1 28.0 -25.5 L28.2 -27.65 M24.65 -32.3 Q24.65 -33.9 25.8 -33.9 27.0 -33.9 27.0 -32.2 L27.0 -25.7 26.35 -25.35 Q26.05 -25.3 25.4 -25.75 L25.05 -28.75 24.65 -32.3 M4.95 -47.05 L7.3 -45.25 Q8.4 -44.0 8.7 -43.0 L10.05 -38.35 Q10.65 -35.65 10.1 -35.1 L7.8 -34.95 6.1 -35.45 Q5.55 -40.0 4.9 -40.65 L5.2 -37.35 Q5.4 -35.75 5.0 -35.3 4.55 -34.7 3.55 -35.0 3.15 -35.15 1.7 -35.8 1.05 -36.1 1.15 -40.25 L1.45 -44.35 Q1.7 -48.6 4.95 -47.05 M8.3 -46.05 Q7.9 -46.75 5.85 -47.7 3.85 -48.55 2.55 -48.7 1.7 -48.75 1.2 -48.2 0.9 -47.85 0.5 -48.35 -0.1 -49.05 0.3 -50.2 0.7 -51.25 1.3 -51.55 L3.55 -51.4 6.5 -50.85 Q5.95 -51.65 4.2 -52.15 L1.45 -52.55 Q0.6 -52.55 0.45 -53.65 L0.2 -56.25 Q0.05 -57.55 1.1 -57.8 L2.8 -57.6 7.25 -55.65 Q10.5 -53.95 11.45 -52.55 12.5 -51.1 10.65 -48.1 8.85 -45.1 8.3 -46.05 M12.9 -50.45 L12.85 -51.2 14.5 -51.4 15.4 -49.65 16.25 -47.05 Q16.25 -45.85 14.8 -43.3 13.1 -40.5 11.75 -40.5 10.45 -40.5 9.8 -42.4 L9.4 -44.35 10.5 -45.25 Q11.7 -46.4 12.3 -47.85 12.9 -49.35 12.9 -50.45 M17.35 -46.55 Q17.8 -47.05 19.1 -45.25 L20.4 -43.35 20.05 -41.55 Q19.4 -39.4 17.8 -37.3 16.15 -35.2 13.9 -35.2 L12.0 -35.6 11.75 -38.65 Q12.25 -38.8 12.75 -39.05 13.85 -39.55 14.5 -40.15 16.15 -41.75 16.7 -44.0 L17.35 -46.55 M17.35 -49.7 Q18.2 -49.85 21.05 -52.55 21.95 -52.15 22.35 -48.9 22.75 -45.6 21.75 -45.35 20.9 -45.15 19.05 -46.95 L17.35 -48.85 17.05 -49.2 Q16.85 -49.6 17.35 -49.7 M21.2 -58.45 L20.25 -60.4 19.6 -61.5 Q18.0 -64.05 16.6 -65.35 18.1 -66.2 18.65 -67.65 18.95 -68.45 18.9 -69.3 25.5 -62.6 26.85 -54.05 26.6 -64.15 21.55 -70.75 17.15 -76.55 9.8 -78.85 3.2 -80.95 -3.7 -79.75 -10.45 -78.6 -14.3 -75.05 -2.5 -78.85 6.85 -76.35 5.0 -75.5 4.35 -73.8 L4.25 -73.45 4.0 -73.5 Q1.3 -73.5 -0.15 -70.95 -1.65 -73.5 -4.3 -73.5 L-6.25 -73.15 Q-12.75 -71.1 -13.7 -66.8 L-13.85 -66.8 Q-15.65 -66.8 -17.5 -64.85 L-19.95 -61.5 -20.55 -60.4 -21.55 -58.45 Q-22.3 -56.35 -21.85 -54.55 -22.95 -53.65 -23.55 -52.05 -25.6 -58.85 -22.85 -66.45 -26.05 -60.75 -26.15 -55.6 -26.2 -51.55 -24.2 -47.7 -24.05 -44.65 -22.6 -42.9 L-22.35 -42.55 -22.4 -42.3 Q-22.55 -40.4 -20.9 -37.7 L-18.95 -35.15 Q-17.25 -33.75 -14.45 -33.75 L-10.2 -33.75 -10.8 -33.05 Q-10.8 -32.1 -7.65 -31.5 L-0.05 -30.85 7.6 -31.5 Q10.8 -32.1 10.8 -33.05 L10.15 -33.75 14.15 -33.75 Q16.9 -33.75 18.6 -35.15 19.35 -35.8 20.55 -37.7 22.2 -40.35 22.05 -42.3 L22.0 -42.55 22.3 -42.9 Q23.85 -44.85 23.85 -48.35 23.85 -50.45 23.2 -52.1 22.6 -53.75 21.5 -54.55 22.0 -56.3 21.2 -58.45 M18.3 -59.6 Q18.2 -61.0 19.5 -58.2 20.65 -55.7 20.1 -54.6 19.6 -53.55 17.6 -52.0 L15.7 -50.7 14.9 -52.4 16.7 -54.9 Q18.5 -57.7 18.3 -59.6 M7.15 -66.7 Q8.35 -65.8 9.5 -65.35 10.6 -64.85 11.8 -64.65 11.45 -60.9 9.2 -58.4 8.0 -57.05 6.45 -57.3 5.8 -57.35 3.1 -58.45 1.45 -59.1 0.65 -60.15 L0.2 -61.1 1.0 -68.7 Q2.15 -70.75 4.25 -70.9 4.75 -68.9 6.4 -67.35 L5.25 -63.4 Q4.7 -61.25 5.25 -61.0 5.8 -60.75 6.35 -62.7 L7.15 -66.7 M13.45 -64.55 L14.75 -64.65 Q15.5 -64.3 16.3 -63.2 L17.35 -61.1 Q18.1 -58.6 14.6 -54.05 L13.4 -52.9 Q13.05 -52.75 12.65 -53.25 L9.4 -56.1 Q10.4 -56.75 11.5 -59.0 12.7 -61.45 13.4 -64.5 L13.45 -64.55 M10.55 -71.6 Q10.05 -72.9 10.6 -74.05 11.15 -75.15 12.5 -75.45 13.8 -75.65 15.15 -74.9 16.45 -74.15 17.0 -72.8 17.55 -71.5 17.0 -70.35 16.45 -69.25 15.1 -68.95 13.75 -68.75 12.4 -69.5 11.1 -70.25 10.55 -71.6" fill="#ffffff" fill-rule="evenodd" stroke="none"/>
  </g>
</svg>
