<?xml version="1.0" encoding="UTF-8" standalone="no"?>
<svg xmlns:ffdec="https://www.free-decompiler.com/flash" xmlns:xlink="http://www.w3.org/1999/xlink" ffdec:objectType="shape" height="82.5px" width="80.0px" xmlns="http://www.w3.org/2000/svg">
  <g transform="matrix(1.0, 0.0, 0.0, 1.0, 40.0, 82.5)">
    <path d="M-11.4 -73.95 L0.0 -75.1 11.1 -74.35 14.8 -73.45 Q10.25 -80.8 -0.7 -80.8 -12.9 -80.8 -17.25 -72.15 -15.2 -73.2 -11.4 -73.95 M-36.0 -41.35 Q-38.35 -36.8 -38.15 -31.95 -38.0 -26.7 -34.95 -22.9 -35.3 -30.7 -30.95 -39.6 -27.05 -47.6 -23.6 -49.2 -26.75 -46.25 -30.15 -38.55 -34.2 -29.5 -34.2 -22.25 L-34.25 -22.1 Q-33.35 -21.15 -32.5 -20.5 -32.05 -25.95 -27.85 -36.25 -23.5 -47.05 -20.05 -50.25 -25.15 -51.1 -29.55 -48.45 -33.6 -45.95 -36.0 -41.35 M-38.55 -40.25 Q-36.15 -46.25 -31.0 -49.5 -25.35 -53.05 -18.1 -52.05 L-18.05 -51.95 -12.85 -52.25 -12.9 -53.35 Q-18.95 -53.75 -19.65 -54.6 -21.15 -58.8 -21.3 -63.25 -21.5 -68.35 -19.75 -72.35 -15.3 -82.5 -0.45 -82.5 13.55 -82.5 17.9 -71.7 19.55 -67.7 19.55 -62.65 19.6 -58.55 18.65 -55.0 17.6 -54.2 12.0 -53.65 L11.95 -52.55 17.55 -52.0 Q24.6 -53.75 30.55 -50.1 35.95 -46.75 38.5 -40.3 41.0 -33.85 39.3 -27.6 37.5 -20.75 31.1 -17.15 28.85 -18.55 25.7 -23.75 22.8 -28.65 20.35 -34.8 20.5 -28.5 19.9 -23.9 19.2 -18.75 17.75 -17.35 17.35 -17.0 16.1 -16.75 L15.5 -13.0 Q14.95 -9.7 14.6 -9.25 13.35 -7.65 7.85 -7.75 2.45 -7.85 1.9 -9.25 L1.1 -12.8 0.6 -15.7 -0.3 -15.7 -1.6 -15.7 -2.1 -13.05 -3.0 -9.25 Q-3.5 -7.85 -8.95 -7.75 -14.4 -7.65 -15.65 -9.25 -16.0 -9.7 -16.55 -12.9 L-17.15 -16.7 Q-18.0 -17.0 -18.25 -17.35 -19.8 -19.55 -20.7 -24.7 -21.5 -29.4 -21.55 -35.15 -24.35 -28.05 -27.25 -23.25 -30.55 -17.8 -32.65 -17.75 -38.0 -21.9 -39.5 -28.35 -40.85 -34.35 -38.55 -40.25 M-18.25 -56.6 Q-15.0 -57.85 -0.25 -57.85 14.45 -57.9 17.25 -56.75 L17.65 -59.3 Q13.55 -61.8 0.15 -61.75 -13.4 -61.7 -18.9 -59.2 L-18.25 -56.6 M-19.3 -45.3 Q-20.05 -41.3 -20.05 -35.8 -20.05 -23.0 -17.0 -18.55 -16.7 -18.1 -15.5 -17.8 L-9.8 -18.25 Q-4.05 -18.3 -1.45 -17.05 L-1.45 -17.0 -0.3 -17.05 0.4 -17.05 Q2.45 -18.1 8.25 -18.2 L14.15 -17.85 Q15.95 -18.15 16.45 -18.55 19.1 -21.1 18.85 -33.95 18.65 -46.45 16.45 -50.65 L4.2 -51.45 4.6 -48.75 Q4.75 -47.0 4.4 -46.7 3.95 -46.25 -0.4 -46.15 L-5.3 -46.5 Q-5.8 -46.8 -5.8 -48.7 L-5.6 -51.4 -17.0 -50.65 Q-18.45 -49.65 -19.3 -45.3 M-3.55 -48.95 Q-3.4 -48.1 -0.5 -48.1 2.35 -48.1 2.5 -48.85 L2.45 -49.85 2.2 -50.5 -3.55 -50.4 -3.6 -50.05 -3.55 -48.95 M-12.6 -39.6 Q-10.8 -39.6 -9.55 -38.35 -8.25 -37.1 -8.25 -35.3 -8.25 -33.5 -9.55 -32.25 -10.8 -30.95 -12.6 -30.95 -14.4 -30.95 -15.65 -32.25 -16.9 -33.5 -16.9 -35.3 -16.9 -37.1 -15.65 -38.35 -14.4 -39.6 -12.6 -39.6 M-9.55 -37.45 Q-9.55 -38.05 -10.0 -38.45 -10.4 -38.9 -11.0 -38.9 -11.6 -38.9 -12.05 -38.45 -12.45 -38.05 -12.45 -37.45 -12.45 -36.8 -12.05 -36.4 -11.6 -35.95 -11.0 -35.95 -10.4 -35.95 -10.0 -36.4 -9.55 -36.8 -9.55 -37.45 M-5.75 -35.2 Q-5.75 -32.4 -7.7 -30.45 -9.65 -28.5 -12.45 -28.5 -15.2 -28.5 -17.2 -30.45 -19.15 -32.4 -19.15 -35.2 -19.15 -37.25 -18.0 -38.95 -16.8 -40.6 -14.95 -41.35 -16.45 -40.65 -17.35 -39.25 -18.3 -37.85 -18.3 -36.1 -18.3 -33.7 -16.6 -31.95 -14.85 -30.25 -12.45 -30.25 -10.0 -30.25 -8.3 -31.95 -6.6 -33.7 -6.6 -36.1 -6.6 -37.85 -7.55 -39.25 -8.45 -40.65 -9.95 -41.35 -8.1 -40.6 -6.95 -38.95 -5.75 -37.25 -5.75 -35.2 M-7.9 -42.6 L-8.6 -46.25 -17.8 -46.1 -8.05 -46.7 -7.05 -43.45 6.1 -43.7 6.95 -46.8 16.4 -46.7 7.75 -46.25 6.65 -42.6 -7.9 -42.6 M-9.1 -10.7 L-12.3 -10.45 Q-13.65 -10.2 -13.65 -9.8 -13.65 -9.45 -12.3 -9.2 L-9.1 -8.95 -5.9 -9.2 Q-4.6 -9.45 -4.6 -9.8 -4.6 -10.2 -5.9 -10.45 L-9.1 -10.7 M-6.4 -11.7 L-7.3 -16.3 -7.65 -12.05 -6.4 -11.7 M-11.3 -12.05 L-11.6 -16.8 -12.55 -11.8 -11.3 -12.05 M-13.3 -11.6 L-13.65 -16.15 -14.7 -11.1 -13.3 -11.6 M-10.45 -0.55 Q-14.65 -1.1 -14.65 -1.85 -14.65 -2.65 -10.45 -3.2 L-0.35 -3.75 9.7 -3.2 Q13.9 -2.65 13.9 -1.85 13.9 -1.1 9.7 -0.55 L-0.35 0.0 -10.45 -0.55 M-8.5 -12.2 L-9.75 -17.15 -10.45 -12.2 -8.5 -12.2 M3.6 -66.65 Q3.0 -66.05 3.0 -65.2 3.0 -64.35 3.6 -63.7 4.2 -63.1 5.1 -63.1 5.95 -63.1 6.55 -63.7 7.15 -64.35 7.15 -65.2 7.15 -66.05 6.55 -66.65 5.95 -67.3 5.1 -67.3 4.2 -67.3 3.6 -66.65 M8.9 -67.0 Q9.85 -66.1 11.15 -66.1 12.45 -66.1 13.45 -67.0 14.35 -67.95 14.35 -69.3 14.35 -70.6 13.45 -71.55 12.45 -72.5 11.15 -72.5 9.8 -72.5 8.9 -71.55 7.95 -70.6 7.95 -69.3 7.95 -67.95 8.9 -67.0 M29.25 -49.05 Q24.6 -51.65 19.35 -50.25 23.4 -46.65 27.65 -36.15 31.95 -25.4 31.4 -19.75 L33.7 -21.65 33.7 -21.7 Q33.7 -28.95 29.7 -38.0 26.25 -45.7 23.1 -48.65 26.55 -47.0 30.45 -39.05 34.75 -30.2 34.45 -22.4 37.8 -26.3 38.1 -31.8 38.35 -37.0 35.95 -41.8 33.45 -46.65 29.25 -49.05 M13.55 -11.05 L12.45 -15.85 12.3 -11.5 13.55 -11.05 M11.7 -10.45 L8.45 -10.7 5.25 -10.45 Q3.9 -10.2 3.9 -9.8 3.9 -9.45 5.25 -9.2 L8.45 -8.95 11.7 -9.2 Q13.05 -9.45 13.05 -9.8 13.05 -10.2 11.7 -10.45 M6.25 -11.95 L5.55 -16.3 4.95 -11.65 6.25 -11.95 M9.75 -12.05 L8.25 -17.0 7.35 -11.95 9.75 -12.05 M11.6 -11.7 L10.75 -16.7 10.45 -12.0 11.6 -11.7" fill="#000000" fill-rule="evenodd" stroke="none"/>
    <path d="M-11.4 -73.95 Q-15.2 -73.2 -17.25 -72.15 -12.9 -80.8 -0.7 -80.8 10.25 -80.8 14.8 -73.45 L11.1 -74.35 0.0 -75.1 -11.4 -73.95 M-36.0 -41.35 Q-33.6 -45.95 -29.55 -48.45 -25.15 -51.1 -20.05 -50.25 -23.5 -47.05 -27.85 -36.25 -32.05 -25.95 -32.5 -20.5 -33.35 -21.15 -34.25 -22.1 L-34.2 -22.25 Q-34.2 -29.5 -30.15 -38.55 -26.75 -46.25 -23.6 -49.2 -27.05 -47.6 -30.95 -39.6 -35.3 -30.7 -34.95 -22.9 -38.0 -26.7 -38.15 -31.95 -38.35 -36.8 -36.0 -41.35 M-3.55 -48.95 L-3.6 -50.05 -3.55 -50.4 2.2 -50.5 2.45 -49.85 2.5 -48.85 Q2.35 -48.1 -0.5 -48.1 -3.4 -48.1 -3.55 -48.95 M-19.3 -45.3 Q-18.45 -49.65 -17.0 -50.65 L-5.6 -51.4 -5.8 -48.7 Q-5.8 -46.8 -5.3 -46.5 L-0.4 -46.15 Q3.95 -46.25 4.4 -46.7 4.75 -47.0 4.6 -48.75 L4.2 -51.45 16.45 -50.65 Q18.65 -46.45 18.85 -33.95 19.1 -21.1 16.45 -18.55 15.95 -18.15 14.15 -17.85 L8.25 -18.2 Q2.45 -18.1 0.4 -17.05 L-0.3 -17.05 -1.45 -17.0 -1.45 -17.05 Q-4.05 -18.3 -9.8 -18.25 L-15.5 -17.8 Q-16.7 -18.1 -17.0 -18.55 -20.05 -23.0 -20.05 -35.8 -20.05 -41.3 -19.3 -45.3 M-18.25 -56.6 L-18.9 -59.2 Q-13.4 -61.7 0.15 -61.75 13.55 -61.8 17.65 -59.3 L17.25 -56.75 Q14.45 -57.9 -0.25 -57.85 -15.0 -57.85 -18.25 -56.6 M-7.9 -42.6 L6.65 -42.6 7.75 -46.25 16.4 -46.7 6.95 -46.8 6.1 -43.7 -7.05 -43.45 -8.05 -46.7 -17.8 -46.1 -8.6 -46.25 -7.9 -42.6 M-5.75 -35.2 Q-5.75 -37.25 -6.95 -38.95 -8.1 -40.6 -9.95 -41.35 -8.45 -40.65 -7.55 -39.25 -6.6 -37.85 -6.6 -36.1 -6.6 -33.7 -8.3 -31.95 -10.0 -30.25 -12.45 -30.25 -14.85 -30.25 -16.6 -31.95 -18.3 -33.7 -18.3 -36.1 -18.3 -37.85 -17.35 -39.25 -16.45 -40.65 -14.95 -41.35 -16.8 -40.6 -18.0 -38.95 -19.15 -37.25 -19.15 -35.2 -19.15 -32.4 -17.2 -30.45 -15.2 -28.5 -12.45 -28.5 -9.65 -28.5 -7.7 -30.45 -5.75 -32.4 -5.75 -35.2 M-9.55 -37.45 Q-9.55 -36.8 -10.0 -36.4 -10.4 -35.95 -11.0 -35.95 -11.6 -35.95 -12.05 -36.4 -12.45 -36.8 -12.45 -37.45 -12.45 -38.05 -12.05 -38.45 -11.6 -38.9 -11.0 -38.9 -10.4 -38.9 -10.0 -38.45 -9.55 -38.05 -9.55 -37.45 M-12.6 -39.6 Q-14.4 -39.6 -15.65 -38.35 -16.9 -37.1 -16.9 -35.3 -16.9 -33.5 -15.65 -32.25 -14.4 -30.95 -12.6 -30.95 -10.8 -30.95 -9.55 -32.25 -8.25 -33.5 -8.25 -35.3 -8.25 -37.1 -9.55 -38.35 -10.8 -39.6 -12.6 -39.6 M-13.3 -11.6 L-14.7 -11.1 -13.65 -16.15 -13.3 -11.6 M-11.3 -12.05 L-12.55 -11.8 -11.6 -16.8 -11.3 -12.05 M-6.4 -11.7 L-7.65 -12.05 -7.3 -16.3 -6.4 -11.7 M-9.1 -10.7 L-5.9 -10.45 Q-4.6 -10.2 -4.6 -9.8 -4.6 -9.45 -5.9 -9.2 L-9.1 -8.95 -12.3 -9.2 Q-13.65 -9.45 -13.65 -9.8 -13.65 -10.2 -12.3 -10.45 L-9.1 -10.7 M11.6 -11.7 L10.45 -12.0 10.75 -16.7 11.6 -11.7 M9.75 -12.05 L7.35 -11.95 8.25 -17.0 9.75 -12.05 M6.25 -11.95 L4.95 -11.65 5.55 -16.3 6.25 -11.95 M11.7 -10.45 Q13.05 -10.2 13.05 -9.8 13.05 -9.45 11.7 -9.2 L8.45 -8.95 5.25 -9.2 Q3.9 -9.45 3.9 -9.8 3.9 -10.2 5.25 -10.45 L8.45 -10.7 11.7 -10.45 M13.55 -11.05 L12.3 -11.5 12.45 -15.85 13.55 -11.05 M29.25 -49.05 Q33.45 -46.65 35.95 -41.8 38.35 -37.0 38.1 -31.8 37.8 -26.3 34.45 -22.4 34.75 -30.2 30.45 -39.05 26.55 -47.0 23.1 -48.65 26.25 -45.7 29.7 -38.0 33.7 -28.95 33.7 -21.7 L33.7 -21.65 31.4 -19.75 Q31.95 -25.4 27.65 -36.15 23.4 -46.65 19.35 -50.25 24.6 -51.65 29.25 -49.05 M8.9 -67.0 Q7.95 -67.95 7.95 -69.3 7.95 -70.6 8.9 -71.55 9.8 -72.5 11.15 -72.5 12.45 -72.5 13.45 -71.55 14.35 -70.6 14.35 -69.3 14.35 -67.95 13.45 -67.0 12.45 -66.1 11.15 -66.1 9.85 -66.1 8.9 -67.0 M3.6 -66.65 Q4.2 -67.3 5.1 -67.3 5.95 -67.3 6.55 -66.65 7.15 -66.05 7.15 -65.2 7.15 -64.35 6.55 -63.7 5.95 -63.1 5.1 -63.1 4.2 -63.1 3.6 -63.7 3.0 -64.35 3.0 -65.2 3.0 -66.05 3.6 -66.65 M-8.5 -12.2 L-10.45 -12.2 -9.75 -17.15 -8.5 -12.2" fill="#ffffff" fill-rule="evenodd" stroke="none"/>
  </g>
</svg>
