<?xml version="1.0" encoding="UTF-8" standalone="no"?>
<svg xmlns:ffdec="https://www.free-decompiler.com/flash" xmlns:xlink="http://www.w3.org/1999/xlink" ffdec:objectType="shape" height="83.7px" width="80.05px" xmlns="http://www.w3.org/2000/svg">
  <g transform="matrix(1.0, 0.0, 0.0, 1.0, 40.05, 83.7)">
    <path d="M35.35 -63.15 Q34.05 -64.6 17.75 -66.75 2.45 -68.8 3.1 -70.35 3.5 -71.25 6.2 -71.55 L12.25 -71.9 Q21.7 -72.25 25.1 -74.55 21.5 -73.05 16.6 -73.6 L8.65 -74.85 Q-6.95 -76.4 -18.5 -73.45 -22.85 -72.4 -24.75 -71.1 -26.55 -69.85 -24.95 -69.3 L-19.25 -67.05 Q-16.8 -65.65 -19.0 -63.85 -19.45 -63.5 -23.8 -61.25 -28.55 -58.9 -31.25 -56.9 -40.45 -50.3 -34.75 -44.0 -32.05 -40.75 -26.55 -38.8 L-22.15 -37.35 Q-19.65 -36.5 -18.15 -35.55 L-16.3 -34.25 -14.75 -35.2 Q-12.1 -29.8 1.0 -32.1 6.05 -32.95 10.5 -34.75 14.95 -36.45 16.2 -38.0 L18.9 -36.4 Q21.85 -38.4 23.45 -40.9 25.35 -43.9 26.1 -48.65 26.4 -50.65 28.4 -52.95 L32.3 -56.65 Q34.75 -58.85 35.45 -60.05 36.45 -61.75 35.35 -63.15 M39.4 -60.75 Q38.55 -59.5 35.8 -57.2 L31.45 -53.25 Q29.25 -50.85 29.1 -48.65 28.65 -43.05 23.95 -38.45 27.55 -36.8 29.8 -37.3 26.25 -35.95 23.25 -34.2 L30.1 -24.55 25.55 -21.15 25.5 -8.6 20.0 -20.65 24.05 -25.75 17.95 -30.25 Q13.35 -25.6 12.35 -20.05 11.45 -15.3 13.3 -11.75 11.9 -12.95 9.9 -13.4 L11.4 -11.2 8.75 -8.5 11.95 -3.8 6.75 -9.05 7.65 -10.85 3.6 -13.25 -1.35 -12.05 -5.75 -11.2 -8.9 -11.1 -6.75 -9.15 -17.4 -4.0 -11.3 -7.95 -14.05 -10.0 -12.45 -12.05 -16.05 -13.35 Q-10.25 -16.75 -11.8 -20.35 -13.0 -23.15 -18.25 -25.75 L-22.65 -23.75 -20.5 -19.65 -29.25 -11.0 -26.95 -21.15 -31.0 -24.9 -26.3 -28.65 -34.55 -30.4 Q-31.75 -30.35 -27.65 -32.25 -25.6 -33.25 -24.1 -34.25 -23.7 -32.05 -21.5 -32.2 L-19.15 -33.85 -23.15 -35.4 -27.65 -36.85 Q-33.4 -39.0 -37.8 -43.8 -43.6 -49.7 -34.35 -57.1 -31.9 -59.0 -27.05 -62.0 -23.15 -64.35 -22.85 -64.95 -22.25 -66.4 -22.95 -66.7 -23.4 -66.9 -24.95 -66.7 -28.75 -66.2 -29.35 -68.0 -30.25 -70.45 -27.35 -72.55 -24.4 -74.6 -18.35 -75.85 -4.5 -78.65 17.3 -76.05 26.25 -74.95 29.25 -76.7 31.75 -78.2 32.3 -83.7 35.8 -77.15 27.75 -73.0 23.05 -70.6 15.55 -69.45 14.25 -69.25 17.15 -68.8 L24.9 -67.8 Q37.75 -66.05 39.4 -64.1 40.6 -62.6 39.4 -60.75 M-14.2 -45.4 Q-13.6 -42.9 -14.5 -42.25 -19.35 -41.4 -23.3 -44.55 -25.05 -45.95 -25.6 -47.55 -26.15 -49.35 -25.0 -50.9 -22.8 -53.6 -20.35 -53.05 -18.3 -52.6 -16.45 -50.15 -14.85 -47.95 -14.2 -45.4 M-20.35 -51.45 Q-20.75 -50.95 -20.65 -50.25 -20.55 -49.5 -20.0 -49.0 -19.45 -48.5 -18.8 -48.5 -18.15 -48.5 -17.75 -49.0 -17.35 -49.5 -17.45 -50.25 -17.5 -50.95 -18.05 -51.45 -18.6 -51.95 -19.3 -51.95 -19.95 -51.95 -20.35 -51.45 M-23.6 -27.9 L-24.35 -28.15 -28.55 -24.8 -24.05 -20.9 -28.1 -13.55 -22.75 -20.9 -25.85 -24.8 -21.05 -26.95 -23.6 -27.9 M17.65 -51.95 Q17.0 -51.95 16.45 -51.45 15.9 -50.95 15.85 -50.25 15.75 -49.5 16.15 -49.0 16.55 -48.5 17.2 -48.5 17.9 -48.5 18.4 -49.0 L19.05 -50.25 Q19.15 -50.95 18.75 -51.45 18.35 -51.95 17.65 -51.95 M19.95 -50.9 Q22.35 -47.7 18.45 -44.55 14.6 -41.4 9.75 -42.25 8.8 -42.9 9.35 -45.4 9.9 -47.95 11.45 -50.15 13.2 -52.6 15.25 -53.05 17.7 -53.6 19.95 -50.9 M19.4 -31.55 L26.35 -25.55 22.2 -20.9 24.95 -13.05 23.6 -21.4 28.15 -24.55 21.65 -33.2 19.4 -31.55 M3.3 -39.4 Q-1.9 -35.05 -5.45 -36.1 -6.9 -36.5 -7.05 -37.7 -7.2 -38.95 -5.8 -40.35 -6.5 -35.65 3.3 -39.4 M7.4 -0.55 L-1.0 0.0 -9.45 -0.55 Q-13.05 -1.1 -13.15 -1.85 -13.3 -2.6 -9.75 -3.2 L-1.1 -3.75 7.6 -3.2 Q11.15 -2.6 11.05 -1.85 10.95 -1.1 7.4 -0.55" fill="#000000" fill-rule="evenodd" stroke="none"/>
    <path d="M35.35 -63.15 Q36.45 -61.75 35.45 -60.05 34.75 -58.85 32.3 -56.65 L28.4 -52.95 Q26.4 -50.65 26.1 -48.65 25.35 -43.9 23.45 -40.9 21.85 -38.4 18.9 -36.4 L16.2 -38.0 Q14.95 -36.45 10.5 -34.75 6.05 -32.95 1.0 -32.1 -12.1 -29.8 -14.75 -35.2 L-16.3 -34.25 -18.15 -35.55 Q-19.65 -36.5 -22.15 -37.35 L-26.55 -38.8 Q-32.05 -40.75 -34.75 -44.0 -40.45 -50.3 -31.25 -56.9 -28.55 -58.9 -23.8 -61.25 -19.45 -63.5 -19.0 -63.85 -16.8 -65.65 -19.25 -67.05 L-24.95 -69.3 Q-26.55 -69.85 -24.75 -71.1 -22.85 -72.4 -18.5 -73.45 -6.95 -76.4 8.65 -74.85 L16.6 -73.6 Q21.5 -73.05 25.1 -74.55 21.7 -72.25 12.25 -71.9 L6.2 -71.55 Q3.5 -71.25 3.1 -70.35 2.45 -68.8 17.75 -66.75 34.05 -64.6 35.35 -63.15 M3.3 -39.4 Q-6.5 -35.65 -5.8 -40.35 -7.2 -38.95 -7.05 -37.7 -6.9 -36.5 -5.45 -36.1 -1.9 -35.05 3.3 -39.4 M19.4 -31.55 L21.65 -33.2 28.15 -24.55 23.6 -21.4 24.95 -13.05 22.2 -20.9 26.35 -25.55 19.4 -31.55 M19.95 -50.9 Q17.7 -53.6 15.25 -53.05 13.2 -52.6 11.45 -50.15 9.9 -47.95 9.35 -45.4 8.8 -42.9 9.75 -42.25 14.6 -41.4 18.45 -44.55 22.35 -47.7 19.95 -50.9 M17.65 -51.95 Q18.35 -51.95 18.75 -51.45 19.15 -50.95 19.05 -50.25 L18.4 -49.0 Q17.9 -48.5 17.2 -48.5 16.55 -48.5 16.15 -49.0 15.75 -49.5 15.85 -50.25 15.9 -50.95 16.45 -51.45 17.0 -51.95 17.65 -51.95 M-23.6 -27.9 L-21.05 -26.95 -25.85 -24.8 -22.75 -20.9 -28.1 -13.55 -24.05 -20.9 -28.55 -24.8 -24.35 -28.15 -23.6 -27.9 M-20.35 -51.45 Q-19.95 -51.95 -19.3 -51.95 -18.6 -51.95 -18.05 -51.45 -17.5 -50.95 -17.45 -50.25 -17.35 -49.5 -17.75 -49.0 -18.15 -48.5 -18.8 -48.5 -19.45 -48.5 -20.0 -49.0 -20.55 -49.5 -20.65 -50.25 -20.75 -50.95 -20.35 -51.45 M-14.2 -45.4 Q-14.85 -47.95 -16.45 -50.15 -18.3 -52.6 -20.35 -53.05 -22.8 -53.6 -25.0 -50.9 -26.15 -49.35 -25.6 -47.55 -25.05 -45.95 -23.3 -44.55 -19.35 -41.4 -14.5 -42.25 -13.6 -42.9 -14.2 -45.4" fill="#ffffff" fill-rule="evenodd" stroke="none"/>
  </g>
</svg>
