<?xml version="1.0" encoding="UTF-8" standalone="no"?>
<svg xmlns:ffdec="https://www.free-decompiler.com/flash" xmlns:xlink="http://www.w3.org/1999/xlink" ffdec:objectType="shape" height="339.9px" width="279.35px" xmlns="http://www.w3.org/2000/svg">
  <g transform="matrix(1.0, 0.0, 0.0, 1.0, -20.6, 129.5)">
    <path d="M30.25 167.9 L31.45 168.3 31.0 169.85 Q30.5 169.55 29.75 169.4 L28.15 169.25 Q26.45 169.25 25.2 169.95 23.95 170.6 23.25 171.95 22.55 173.25 22.55 175.1 22.55 176.9 23.2 178.15 23.85 179.45 25.1 180.15 26.3 180.85 28.05 180.85 L29.7 180.7 31.05 180.25 31.45 181.7 29.95 182.2 27.7 182.45 Q25.65 182.4 24.05 181.6 22.45 180.75 21.55 179.15 20.65 177.55 20.6 175.2 20.65 172.95 21.55 171.25 22.5 169.55 24.15 168.65 25.85 167.7 28.05 167.7 L30.25 167.9 M45.6 169.75 L45.5 169.75 44.7 172.35 43.7 175.2 41.2 182.1 39.8 182.1 37.5 175.3 36.55 172.4 35.85 169.75 35.8 169.75 35.75 171.7 35.65 173.9 35.5 176.05 35.15 182.2 33.4 182.2 34.4 167.9 36.75 167.9 39.15 174.8 40.0 177.35 40.6 179.65 40.7 179.65 41.3 177.35 42.2 174.8 44.75 167.9 47.1 167.9 47.95 182.2 46.15 182.2 45.8 175.95 45.7 173.85 45.6 171.7 45.6 169.75 M52.55 163.6 L51.5 163.8 50.65 164.2 50.35 163.3 Q50.7 163.0 51.35 162.8 L52.8 162.55 Q53.75 162.55 54.35 162.9 L55.25 163.7 55.5 164.8 Q55.5 165.55 55.1 166.15 L53.75 167.05 54.85 167.5 55.6 168.35 55.9 169.5 Q55.9 170.3 55.5 170.9 L54.35 171.95 52.45 172.35 51.0 172.15 49.95 171.7 50.3 170.7 51.15 171.1 52.4 171.3 53.7 171.0 54.4 170.3 54.55 169.5 Q54.55 168.8 54.2 168.4 53.85 168.0 53.3 167.8 L52.1 167.6 51.4 167.6 51.4 166.65 52.1 166.65 53.05 166.45 Q53.55 166.3 53.9 165.95 L54.25 165.0 54.05 164.3 53.5 163.8 52.55 163.6" fill="#ffffff" fill-rule="evenodd" stroke="none"/>
    <path d="M248.4 210.4 L95.35 210.4 Q90.15 210.4 86.5 206.9 82.85 203.4 82.85 198.4 L82.85 -117.5 Q82.85 -122.5 86.5 -126.0 90.15 -129.5 95.35 -129.5 L248.4 -129.5 287.45 -129.5 Q292.65 -129.5 296.3 -126.0 299.95 -122.5 299.95 -117.5 L299.95 198.4 Q299.95 203.4 296.3 206.9 292.65 210.4 287.45 210.4 L248.4 210.4 248.4 -129.5 248.4 210.4" fill="#ffffff" fill-opacity="0.2" fill-rule="evenodd" stroke="none"/>
  </g>
</svg>
