<?xml version="1.0" encoding="UTF-8" standalone="no"?>
<svg xmlns:ffdec="https://www.free-decompiler.com/flash" xmlns:xlink="http://www.w3.org/1999/xlink" ffdec:objectType="shape" height="72.5px" width="66.9px" xmlns="http://www.w3.org/2000/svg">
  <g transform="matrix(1.0, 0.0, 0.0, 1.0, 33.45, 36.25)">
    <path d="M9.5 -32.45 L9.75 -32.65 Q5.45 -34.0 1.2 -34.2 L1.6 -33.7 1.0 -33.75 1.25 -33.9 -0.4 -33.75 -4.0 -33.5 -4.15 -33.65 -3.65 -34.1 -4.5 -33.95 -9.1 -33.05 -9.1 -33.0 -9.25 -32.55 -9.25 -32.5 -9.3 -32.35 -9.45 -31.8 Q-9.7 -31.0 -10.25 -30.6 L-10.85 -30.5 -11.05 -31.85 -11.05 -31.95 -11.05 -32.4 -11.05 -32.5 Q-18.9 -29.85 -24.45 -23.7 L-24.45 -23.1 Q-24.6 -21.9 -25.15 -21.1 L-26.3 -19.25 Q-26.7 -18.65 -26.9 -17.55 L-26.9 -18.7 Q-26.8 -19.8 -26.3 -20.7 L-25.85 -21.35 -25.3 -22.15 -25.15 -22.55 Q-24.85 -22.9 -24.7 -23.35 L-25.45 -22.6 -25.8 -22.25 -25.8 -21.6 Q-33.0 -13.05 -33.45 -1.5 L-33.45 -2.8 Q-33.45 -16.6 -23.65 -26.45 -13.85 -36.25 0.0 -36.25 13.85 -36.25 23.65 -26.45 33.45 -16.6 33.45 -2.8 L33.45 -1.5 Q33.1 -10.8 28.4 -18.2 L29.95 -14.65 Q30.9 -12.05 31.4 -9.25 L30.95 -9.95 Q29.0 -17.45 24.05 -23.15 L21.1 -26.1 20.95 -26.4 20.5 -26.75 20.4 -26.7 18.7 -28.0 18.8 -28.05 Q14.45 -31.05 9.5 -32.45 M15.35 -25.05 Q14.65 -26.1 14.4 -26.85 15.75 -26.45 16.05 -25.8 L15.6 -25.5 16.5 -24.5 16.55 -24.45 17.2 -23.3 16.4 -23.1 15.6 -24.05 16.05 -24.35 15.35 -25.05 M21.45 -23.8 L21.95 -23.05 21.35 -23.0 Q21.85 -21.8 20.75 -21.8 19.65 -21.8 18.95 -22.55 L16.7 -20.8 16.3 -21.6 17.2 -21.85 16.95 -22.4 18.95 -24.0 19.7 -23.55 Q19.85 -22.9 20.3 -22.5 20.7 -22.85 20.5 -23.25 21.45 -23.25 21.45 -23.8 M16.45 -19.95 Q17.0 -19.05 16.35 -18.4 15.8 -17.85 14.0 -18.8 L13.85 -20.35 15.1 -19.75 16.35 -19.85 16.45 -19.95 M27.1 -12.6 Q27.7 -11.25 26.65 -10.9 26.0 -10.65 25.3 -11.4 L24.1 -12.45 23.8 -12.15 23.2 -11.5 22.8 -11.1 22.75 -11.15 Q21.45 -11.95 21.1 -12.45 20.6 -13.1 20.65 -14.45 L17.7 -14.35 14.85 -13.65 Q14.3 -13.2 14.3 -12.6 L14.05 -11.4 12.95 -10.6 12.9 -10.55 11.85 -10.05 11.7 -9.95 Q11.3 -10.25 11.25 -10.5 11.2 -10.9 11.85 -11.5 L12.95 -12.05 13.6 -12.35 14.05 -12.85 14.3 -14.05 Q14.3 -14.65 14.85 -15.1 L17.7 -15.85 18.0 -15.9 20.65 -15.95 Q20.6 -14.6 21.1 -13.9 21.45 -13.35 22.8 -12.55 L24.1 -13.9 25.3 -12.85 Q26.0 -12.1 26.65 -12.35 L27.1 -12.6 M11.85 -8.3 L12.15 -7.7 Q12.2 -7.25 11.75 -6.75 L11.1 -5.85 10.95 -6.75 11.85 -8.3 M22.9 4.9 L23.55 6.2 23.05 6.2 Q22.25 7.15 22.05 8.8 21.75 6.45 22.9 4.9 M30.75 -3.0 Q30.45 -3.1 30.05 -4.05 L29.55 -5.3 28.4 -7.6 Q27.7 -8.85 27.65 -9.85 L28.1 -9.65 29.55 -6.8 30.05 -5.45 30.2 -5.15 Q30.95 -3.85 31.4 -5.0 L30.75 -3.0 M13.35 -23.6 L12.85 -23.65 13.0 -24.1 13.45 -24.5 13.15 -25.0 13.2 -25.0 Q14.15 -25.55 14.55 -24.85 L14.65 -24.65 Q14.8 -24.1 14.1 -23.7 L13.35 -23.6 M-2.45 -26.15 L-3.05 -25.6 -4.1 -26.2 Q-4.55 -26.75 -4.35 -28.15 L-4.1 -27.65 Q-3.9 -27.4 -3.05 -27.1 L-2.8 -26.95 Q-2.45 -26.65 -2.4 -26.2 L-2.45 -26.15 M-22.35 -10.55 L-22.25 -10.05 -20.25 -10.0 Q-19.25 -10.5 -19.15 -11.65 L-18.05 -11.15 -18.55 -9.95 -19.15 -10.2 Q-19.25 -9.05 -20.25 -8.55 L-20.55 -8.4 -21.5 -8.35 -22.05 -8.45 -22.15 -8.5 -22.25 -8.55 Q-22.55 -9.8 -22.35 -10.55 M-19.0 -7.6 L-18.9 -7.4 -18.4 -7.3 Q-18.0 -7.3 -17.85 -7.1 L-17.85 -5.65 Q-18.0 -5.85 -18.4 -5.85 L-18.9 -5.95 -19.45 -6.7 -19.0 -7.6 M-17.85 -4.15 L-17.5 -3.95 -16.9 -4.55 -16.65 -4.9 Q-15.5 -4.25 -14.75 -5.1 L-13.25 -6.6 -13.65 -4.85 -14.6 -3.8 -14.75 -3.55 -14.9 -3.45 -15.0 -3.35 -15.1 -3.3 -15.2 -3.2 -15.25 -3.2 -15.45 -3.1 -15.55 -3.1 -15.95 -3.1 -16.1 -3.2 -16.15 -3.85 -16.5 -3.95 -17.35 -3.8 Q-17.8 -3.45 -17.95 -2.75 -18.2 -2.95 -18.05 -3.35 L-17.85 -4.15 M-11.65 -4.8 Q-11.15 -4.85 -10.55 -5.6 L-7.75 -3.75 -7.0 -3.1 -6.3 -2.7 -5.3 -2.85 -4.35 -2.75 Q-3.9 -2.35 -3.55 -1.1 -3.25 0.05 -2.65 0.5 L-0.75 1.15 Q0.3 1.5 -0.25 2.55 L2.35 3.0 Q3.45 3.25 3.0 4.8 2.75 4.45 1.7 4.4 L1.0 4.35 0.3 4.25 0.15 4.25 -0.2 4.05 -0.25 4.05 -0.2 3.95 -0.1 3.75 -0.05 3.5 -0.1 3.2 Q-0.25 2.8 -0.7 2.6 L-0.85 2.6 -0.95 2.6 -1.5 2.45 -2.0 2.35 -2.15 2.3 -2.65 2.0 Q-3.25 1.55 -3.55 0.35 L-3.85 -0.45 -4.35 -1.25 -5.3 -1.4 Q-5.85 -1.05 -6.3 -1.15 L-7.0 -1.65 -7.75 -2.25 -10.55 -4.15 -10.8 -3.8 -11.05 -3.65 Q-11.5 -3.3 -11.85 -3.35 L-12.75 -3.95 -13.6 -2.6 -13.5 -4.3 -13.3 -4.5 -12.75 -5.4 -12.35 -4.95 -11.65 -4.8 M-17.95 2.45 L-18.2 1.8 Q-18.3 1.25 -17.6 0.65 L-16.5 -0.45 Q-16.2 -0.95 -16.1 -1.9 -15.9 -0.1 -16.5 1.0 -16.85 1.65 -17.95 2.45 M-10.8 -31.95 L-10.7 -31.8 -10.05 -32.25 -10.0 -32.25 -10.85 -32.0 -10.8 -31.95 M-12.75 -28.0 Q-12.1 -27.55 -11.05 -27.65 -11.5 -27.0 -11.6 -26.2 L-12.95 -26.6 -12.4 -27.2 -12.75 -28.0 M-11.5 -25.3 L-11.1 -24.7 Q-10.9 -25.05 -10.8 -25.9 L-10.45 -27.05 -9.4 -28.05 -8.75 -27.45 Q-8.95 -26.95 -9.6 -26.45 L-10.45 -25.55 -10.8 -24.35 -11.1 -23.25 Q-11.8 -24.0 -11.5 -25.3 M-9.2 -28.3 L-8.75 -28.9 -9.25 -29.35 -7.95 -29.6 -6.75 -29.55 Q-6.35 -28.9 -6.55 -28.05 -6.1 -28.2 -5.4 -29.05 L-5.1 -29.0 -5.3 -29.2 -4.25 -30.05 -4.4 -28.5 -5.45 -27.55 -6.55 -26.6 Q-6.4 -27.4 -6.65 -27.9 L-7.5 -28.95 -9.2 -28.3" fill="#ffd8af" fill-rule="evenodd" stroke="none"/>
    <path d="M30.95 -9.95 L31.4 -9.25 Q30.9 -12.05 29.95 -14.65 31.95 -10.55 32.75 -5.95 L32.05 -5.7 Q32.75 -3.9 32.1 -2.8 31.9 -2.3 31.5 -2.1 L31.55 -2.0 31.5 -2.05 31.05 -1.85 32.8 -1.35 32.1 0.75 31.3 3.4 31.0 4.3 30.65 5.75 30.8 6.6 Q31.05 8.2 30.75 9.0 30.55 9.6 29.5 10.6 L28.95 11.15 28.45 12.5 28.2 13.35 Q27.75 14.6 26.8 15.6 L25.05 17.25 23.3 18.7 22.45 17.45 Q20.95 15.25 20.7 12.6 20.35 9.7 21.75 7.7 L21.1 5.9 20.85 5.6 Q20.35 4.95 20.25 4.2 20.2 3.75 20.65 2.55 L20.7 2.45 19.4 2.3 16.7 2.45 16.5 2.55 15.8 4.2 14.35 2.8 Q12.65 2.3 11.05 0.3 9.45 -1.8 9.55 -3.35 9.65 -4.4 10.55 -5.3 L10.65 -5.5 Q9.95 -6.1 9.9 -6.95 9.9 -8.05 10.9 -8.9 11.2 -9.3 12.0 -9.6 L12.15 -9.3 12.15 -9.2 11.85 -8.3 10.95 -6.75 11.1 -5.85 Q11.55 -4.65 12.85 -3.35 14.1 -2.05 15.0 -2.0 L15.35 -1.6 Q15.95 -2.0 15.75 -2.45 L19.35 -2.55 Q21.85 -2.6 22.15 -1.3 L21.85 -0.35 21.65 0.55 21.85 1.1 22.3 1.8 22.85 3.35 23.55 4.75 23.05 4.75 22.9 4.9 Q21.75 6.45 22.05 8.8 22.2 11.1 23.6 13.15 L25.55 11.5 Q26.55 10.55 26.9 9.35 L27.25 8.1 27.85 6.85 Q29.2 5.65 29.45 4.95 L29.35 3.55 29.4 3.05 29.35 2.1 29.95 -0.45 30.75 -3.0 31.4 -5.0 Q30.95 -3.85 30.2 -5.15 L30.05 -5.45 29.55 -6.8 28.1 -9.65 Q27.7 -10.6 27.65 -11.3 28.5 -11.1 29.3 -9.3 L30.2 -6.65 Q30.75 -6.65 30.9 -6.9 L29.35 -10.05 30.85 -8.6 29.35 -11.5 30.95 -9.95 M-25.8 -21.6 L-25.8 -22.25 -25.45 -22.6 -24.7 -23.35 Q-24.85 -22.9 -25.15 -22.55 L-25.3 -22.15 -25.85 -21.35 -25.8 -21.6 M-26.9 -18.7 L-26.9 -17.55 -26.7 -14.45 -26.6 -12.2 -26.25 -9.95 -26.35 -12.1 -26.4 -13.95 Q-26.55 -15.3 -26.35 -15.8 -25.35 -15.75 -25.1 -14.65 -24.9 -14.0 -24.95 -12.25 L-24.95 -10.95 Q-24.9 -9.35 -24.35 -8.65 -23.55 -7.7 -21.8 -7.9 -21.95 -7.05 -21.0 -6.6 L-19.55 -5.6 -18.85 -4.15 -18.0 -2.55 -17.95 -2.75 Q-17.8 -3.45 -17.35 -3.8 L-16.5 -3.95 Q-16.4 -3.5 -16.45 -2.8 L-16.05 -2.55 -16.1 -1.9 Q-16.2 -0.95 -16.5 -0.45 L-17.6 0.65 Q-18.3 1.25 -18.2 1.8 L-17.95 2.45 -16.4 4.7 -15.65 6.25 -14.95 7.7 -13.65 8.7 -12.4 9.5 Q-12.05 10.0 -11.85 11.15 L-11.7 13.0 -11.4 17.0 Q-11.1 20.0 -10.2 20.35 -10.35 22.05 -9.45 23.05 -8.75 23.8 -6.85 24.5 L-7.3 23.65 Q-7.4 23.2 -6.95 22.85 L-7.05 22.65 Q-7.5 21.8 -6.95 21.35 L-7.05 21.15 Q-7.7 20.2 -7.0 19.6 -6.7 19.25 -5.45 18.75 L-5.9 18.25 Q-5.75 17.0 -4.05 17.25 -3.8 15.45 -1.25 13.45 1.35 11.3 1.75 9.95 2.35 6.85 2.9 5.3 3.8 5.5 4.2 6.15 4.85 7.1 4.25 9.0 L3.65 11.5 3.05 13.85 Q2.7 15.05 1.7 16.15 L-0.2 17.9 -1.85 19.35 Q-2.55 20.2 -2.7 21.05 L-3.0 22.3 -3.4 22.25 -2.85 22.7 -4.95 23.55 -5.05 23.6 -5.9 24.0 -5.85 24.1 -5.05 25.15 -5.75 25.7 Q-5.35 26.4 -5.3 26.9 L-5.05 27.0 -5.3 29.65 -6.0 29.65 Q-7.3 29.65 -8.2 29.1 L-8.15 29.0 Q-11.6 27.5 -11.6 24.5 -12.7 23.15 -13.0 17.75 L-13.15 16.0 Q-13.15 14.35 -13.5 13.85 L-14.15 13.5 Q-15.5 12.85 -16.05 12.05 L-17.0 10.1 -17.55 8.85 -18.1 8.1 Q-19.5 6.35 -19.6 5.45 -19.75 4.15 -18.3 2.95 L-19.1 1.75 -20.1 -0.15 -20.7 -1.3 -21.3 -1.6 Q-22.5 -2.25 -22.95 -3.0 -24.35 -3.2 -25.2 -4.0 -26.25 -5.1 -26.35 -7.65 L-27.55 -7.55 -28.0 -10.95 -28.15 -13.05 Q-28.6 -16.0 -27.5 -17.85 L-26.9 -18.7 M-10.85 -30.5 L-10.25 -30.6 -7.95 -31.05 -6.55 -30.95 -5.4 -30.55 -5.1 -30.45 -5.3 -30.65 Q-5.9 -31.45 -5.6 -31.85 -5.4 -32.1 -4.45 -32.45 L-3.4 -32.85 -3.85 -33.4 -2.4 -33.5 -2.45 -33.55 -2.0 -33.55 -0.4 -33.75 1.25 -33.9 1.0 -33.75 0.75 -33.5 1.85 -33.45 Q3.0 -32.0 2.4 -31.25 2.15 -30.75 0.9 -30.25 L2.05 -29.4 2.75 -29.05 2.8 -29.15 2.85 -29.1 4.35 -30.1 Q5.1 -30.6 6.15 -30.6 L8.95 -30.35 10.6 -30.3 Q9.65 -30.75 9.45 -30.95 8.95 -31.35 8.95 -31.7 8.85 -31.95 9.15 -32.2 L10.3 -31.85 11.0 -31.55 11.3 -30.5 12.45 -29.5 10.9 -28.1 11.0 -28.1 10.65 -25.45 10.1 -25.4 6.25 -25.7 Q5.55 -25.7 4.9 -25.25 L3.75 -24.5 3.4 -23.75 2.2 -24.3 Q0.75 -24.95 -0.1 -25.75 L-1.45 -27.25 0.4 -28.0 Q1.05 -28.2 1.3 -28.45 L0.15 -29.8 -1.25 -31.5 -1.5 -31.95 -2.9 -30.95 -2.95 -30.9 -2.2 -30.05 -1.45 -28.8 -2.55 -28.2 -2.8 -26.95 -3.05 -27.1 Q-3.9 -27.4 -4.1 -27.65 L-4.35 -28.15 -4.4 -28.5 -4.25 -30.05 -5.3 -29.2 -5.4 -29.05 Q-6.1 -28.2 -6.55 -28.05 -6.35 -28.9 -6.75 -29.55 L-7.95 -29.6 -9.25 -29.35 -8.75 -28.9 -9.2 -28.3 -9.4 -28.05 -10.45 -27.05 -10.8 -25.9 Q-10.9 -25.05 -11.1 -24.7 L-11.5 -25.3 -11.05 -26.2 -11.6 -26.2 Q-11.5 -27.0 -11.05 -27.65 -12.1 -27.55 -12.75 -28.0 L-12.95 -28.05 -12.4 -28.65 Q-13.05 -29.35 -12.6 -29.75 L-11.4 -29.8 -11.35 -30.4 -10.85 -30.5 M16.5 -24.5 L17.0 -24.95 16.95 -26.5 17.3 -28.65 18.3 -27.95 18.3 -27.65 17.25 -26.85 17.8 -25.8 18.4 -25.15 18.45 -26.4 18.65 -26.85 Q19.15 -26.5 19.5 -25.45 L20.3 -23.95 Q19.95 -24.75 20.35 -25.2 L20.75 -25.55 21.45 -23.8 Q21.45 -23.25 20.5 -23.25 19.95 -23.35 19.7 -23.55 L18.95 -24.0 16.95 -22.4 16.4 -23.1 17.2 -23.3 16.55 -24.45 16.5 -24.5 M14.0 -18.8 L14.0 -17.2 16.6 -16.6 Q18.15 -16.55 18.15 -18.15 18.85 -18.8 19.75 -18.85 L19.8 -19.35 20.4 -19.35 Q21.75 -17.5 22.05 -16.0 L22.55 -16.05 Q23.0 -16.25 22.7 -17.1 L22.05 -18.35 21.55 -19.35 Q21.85 -19.05 22.6 -18.7 L23.4 -17.85 23.75 -16.6 Q23.9 -15.85 24.2 -15.45 L24.25 -15.55 Q23.85 -16.7 24.35 -17.2 L24.85 -16.25 25.45 -15.15 26.4 -15.6 27.15 -14.0 Q27.6 -13.05 27.1 -12.6 L26.65 -12.35 Q26.0 -12.1 25.3 -12.85 L24.1 -13.9 22.8 -12.55 Q21.45 -13.35 21.1 -13.9 20.6 -14.6 20.65 -15.95 L18.0 -15.9 17.7 -15.85 14.85 -15.1 Q14.3 -14.65 14.3 -14.05 L14.05 -12.85 13.6 -12.35 12.7 -12.6 12.65 -14.7 12.5 -16.5 12.25 -17.5 11.4 -17.35 12.1 -18.15 11.95 -18.85 10.45 -19.0 11.7 -20.9 11.75 -21.1 11.2 -21.95 13.05 -22.9 12.05 -25.25 13.15 -25.0 13.45 -24.5 13.0 -24.1 12.85 -23.65 13.35 -23.6 13.85 -23.65 13.15 -23.5 13.2 -23.5 13.45 -23.0 13.0 -22.6 12.85 -22.2 13.85 -22.15 13.15 -21.95 Q14.35 -22.05 14.6 -22.8 14.85 -23.55 14.1 -23.7 14.8 -24.1 14.65 -24.65 L14.8 -24.6 15.3 -23.7 14.85 -23.2 15.45 -23.25 15.5 -23.1 15.5 -23.0 Q15.5 -22.35 14.85 -21.7 L15.65 -21.8 15.35 -21.45 16.3 -21.6 16.7 -20.8 15.6 -20.4 16.45 -19.95 16.35 -19.85 15.1 -19.75 13.85 -20.35 14.0 -18.8 M-3.05 -25.6 L-2.45 -26.15 -0.85 -24.5 -3.05 -25.05 -3.0 -25.0 -2.85 -24.95 Q-1.9 -24.6 -1.5 -24.05 L-1.05 -24.45 -1.15 -23.4 -1.0 -22.75 -0.95 -21.75 -1.35 -21.6 -1.4 -21.1 -0.95 -20.3 0.25 -18.8 -1.6 -18.2 -3.1 -17.85 -3.55 -17.9 -4.1 -17.85 -4.3 -17.85 Q-5.2 -16.95 -6.8 -16.95 L-7.8 -16.9 -9.2 -15.85 Q-10.25 -14.9 -10.9 -14.55 L-11.35 -14.3 -11.65 -13.85 Q-12.5 -12.25 -13.25 -11.65 -13.7 -11.2 -14.45 -11.0 L-14.65 -10.9 -14.65 -10.6 Q-14.4 -9.3 -14.75 -8.5 L-16.1 -5.7 -16.7 -7.25 -17.4 -5.7 -17.7 -5.1 -16.9 -4.55 -17.5 -3.95 -17.85 -4.15 -17.85 -5.45 -17.85 -5.5 -17.85 -5.65 -17.85 -7.1 Q-18.0 -7.3 -18.4 -7.3 L-18.9 -7.4 -19.0 -7.6 -19.4 -8.15 -19.0 -9.1 -18.55 -9.95 -18.05 -11.15 -19.15 -11.65 Q-19.25 -10.5 -20.25 -10.0 L-22.25 -10.05 -22.35 -10.55 Q-22.55 -11.7 -22.15 -12.75 L-20.9 -14.7 Q-20.1 -14.45 -19.05 -13.6 -18.55 -15.6 -17.55 -14.9 -16.7 -14.35 -16.05 -12.7 L-16.0 -12.6 Q-15.85 -12.95 -15.95 -13.6 L-15.95 -15.05 -15.1 -15.65 -14.15 -16.15 Q-13.6 -16.7 -12.95 -17.8 L-11.85 -19.5 -11.55 -19.25 Q-11.05 -19.5 -9.9 -20.5 L-8.3 -21.7 -6.35 -21.85 -6.3 -21.95 -7.4 -22.05 Q-7.85 -22.7 -7.4 -23.5 -7.85 -24.25 -7.4 -24.95 -6.45 -25.15 -5.35 -23.8 -5.1 -24.3 -4.5 -24.45 -3.8 -24.5 -3.55 -24.7 L-3.05 -25.6 M-7.4 -23.5 L-6.35 -23.25 -6.3 -23.5 -7.4 -23.5 M33.45 -1.5 L33.45 2.8 Q33.45 16.6 23.65 26.45 13.85 36.25 0.0 36.25 -13.85 36.25 -23.65 26.45 -33.45 16.6 -33.45 2.8 L-33.45 -1.5 Q-32.95 11.95 -23.25 21.3 -13.55 30.75 0.0 30.75 13.55 30.75 23.25 21.3 32.95 11.95 33.45 -1.5 M-11.65 -4.8 L-12.35 -4.95 -11.6 -5.35 -11.65 -4.8 M-13.3 -4.5 L-13.5 -4.3 -13.45 -4.45 -13.3 -4.5 M-10.8 -31.95 L-10.05 -32.25 -10.7 -31.8 -10.8 -31.95 M-5.35 -22.35 L-5.2 -22.65 -5.5 -22.55 -5.35 -22.35 M-17.9 -9.1 L-17.35 -8.8 -17.8 -9.65 -17.9 -9.1 M-15.2 -3.2 L-15.1 -3.3 -15.05 -3.3 -15.2 -3.2" fill="#843a00" fill-rule="evenodd" stroke="none"/>
    <path d="M9.5 -32.45 Q14.45 -31.05 18.8 -28.05 L18.7 -28.0 18.3 -28.35 18.3 -27.95 17.3 -28.65 16.95 -26.5 17.0 -24.95 16.5 -24.5 15.6 -25.5 16.05 -25.8 Q15.75 -26.45 14.4 -26.85 14.65 -26.1 15.35 -25.05 L14.4 -25.4 14.8 -24.6 14.65 -24.65 14.55 -24.85 Q14.15 -25.55 13.2 -25.0 L13.15 -25.0 12.05 -25.25 13.05 -22.9 11.2 -21.95 11.75 -21.1 11.7 -20.9 10.45 -19.0 11.95 -18.85 12.1 -18.15 11.4 -17.35 12.25 -17.5 12.5 -16.5 12.65 -14.7 12.7 -12.6 13.6 -12.35 12.95 -12.05 11.85 -11.5 Q11.2 -10.9 11.25 -10.5 11.3 -10.25 11.7 -9.95 L11.85 -9.8 12.0 -9.6 Q11.2 -9.3 10.9 -8.9 9.9 -8.05 9.9 -6.95 9.95 -6.1 10.65 -5.5 L10.55 -5.3 Q9.65 -4.4 9.55 -3.35 9.45 -1.8 11.05 0.3 12.65 2.3 14.35 2.8 L15.8 4.2 16.5 2.55 16.7 2.45 19.4 2.3 20.7 2.45 20.65 2.55 Q20.2 3.75 20.25 4.2 20.35 4.95 20.85 5.6 L21.1 5.9 21.75 7.7 Q20.35 9.7 20.7 12.6 20.95 15.25 22.45 17.45 L23.3 18.7 25.05 17.25 26.8 15.6 Q27.75 14.6 28.2 13.35 L28.45 12.5 28.95 11.15 29.5 10.6 Q30.55 9.6 30.75 9.0 31.05 8.2 30.8 6.6 L30.65 5.75 31.0 4.3 31.3 3.4 32.1 0.75 32.8 -1.35 31.05 -1.85 31.5 -2.05 31.55 -2.0 31.5 -2.1 Q31.9 -2.3 32.1 -2.8 32.75 -3.9 32.05 -5.7 L32.75 -5.95 Q31.95 -10.55 29.95 -14.65 L28.4 -18.2 Q33.1 -10.8 33.45 -1.5 32.95 11.95 23.25 21.3 13.55 30.75 0.0 30.75 -13.55 30.75 -23.25 21.3 -32.95 11.95 -33.45 -1.5 -33.0 -13.05 -25.8 -21.6 L-25.85 -21.35 -26.3 -20.7 Q-26.8 -19.8 -26.9 -18.7 L-27.5 -17.85 Q-28.6 -16.0 -28.15 -13.05 L-28.0 -10.95 -27.55 -7.55 -26.35 -7.65 Q-26.25 -5.1 -25.2 -4.0 -24.35 -3.2 -22.95 -3.0 -22.5 -2.25 -21.3 -1.6 L-20.7 -1.3 -20.1 -0.15 -19.1 1.75 -18.3 2.95 Q-19.75 4.15 -19.6 5.45 -19.5 6.35 -18.1 8.1 L-17.55 8.85 -17.0 10.1 -16.05 12.05 Q-15.5 12.85 -14.15 13.5 L-13.5 13.85 Q-13.15 14.35 -13.15 16.0 L-13.0 17.75 Q-12.7 23.15 -11.6 24.5 -11.6 27.5 -8.15 29.0 L-8.2 29.1 Q-7.3 29.65 -6.0 29.65 L-5.3 29.65 -5.05 27.0 -5.3 26.9 Q-5.35 26.4 -5.75 25.7 L-5.05 25.15 -5.85 24.1 -5.9 24.0 -5.05 23.6 -4.95 23.55 -2.85 22.7 -3.4 22.25 -3.0 22.3 -2.7 21.05 Q-2.55 20.2 -1.85 19.35 L-0.2 17.9 1.7 16.15 Q2.7 15.05 3.05 13.85 L3.65 11.5 4.25 9.0 Q4.85 7.1 4.2 6.15 3.8 5.5 2.9 5.3 L2.95 5.0 3.0 4.8 Q3.45 3.25 2.35 3.0 L-0.25 2.55 Q0.3 1.5 -0.75 1.15 L-2.65 0.5 Q-3.25 0.05 -3.55 -1.1 -3.9 -2.35 -4.35 -2.75 L-5.3 -2.85 -6.3 -2.7 -7.0 -3.1 -7.75 -3.75 -10.55 -5.6 Q-11.15 -4.85 -11.65 -4.8 L-11.6 -5.35 -12.35 -4.95 -12.75 -5.4 -13.3 -4.5 -13.45 -4.45 -13.25 -5.1 -13.65 -4.85 -13.25 -6.6 -14.75 -5.1 Q-15.5 -4.25 -16.65 -4.9 L-16.9 -4.55 -17.7 -5.1 -17.4 -5.7 -16.7 -7.25 -16.1 -5.7 -14.75 -8.5 Q-14.4 -9.3 -14.65 -10.6 L-14.65 -10.9 -14.45 -11.0 Q-13.7 -11.2 -13.25 -11.65 -12.5 -12.25 -11.65 -13.85 L-11.35 -14.3 -10.9 -14.55 Q-10.25 -14.9 -9.2 -15.85 L-7.8 -16.9 -6.8 -16.95 Q-5.2 -16.95 -4.3 -17.85 L-4.1 -17.85 -3.55 -17.9 -3.1 -17.85 -1.6 -18.2 0.25 -18.8 -0.95 -20.3 -1.4 -21.1 -1.35 -21.6 -0.95 -21.75 -1.0 -22.75 -1.15 -23.4 -1.05 -24.45 -1.5 -24.05 Q-1.9 -24.6 -2.85 -24.95 L-3.0 -25.0 -3.05 -25.05 -0.85 -24.5 -2.45 -26.15 -2.4 -26.2 Q-2.45 -26.65 -2.8 -26.95 L-2.55 -28.2 -1.45 -28.8 -2.2 -30.05 -2.95 -30.9 -2.9 -30.95 -1.5 -31.95 -1.25 -31.5 0.15 -29.8 1.3 -28.45 Q1.05 -28.2 0.4 -28.0 L-1.45 -27.25 -0.1 -25.75 Q0.75 -24.95 2.2 -24.3 L3.4 -23.75 3.75 -24.5 4.9 -25.25 Q5.55 -25.7 6.25 -25.7 L10.1 -25.4 10.65 -25.45 11.0 -28.1 10.9 -28.1 12.45 -29.5 11.3 -30.5 11.0 -31.55 10.3 -31.85 9.15 -32.2 9.5 -32.45 M20.4 -26.7 L20.5 -26.75 20.95 -26.4 21.1 -26.1 20.4 -26.7 M-4.0 -33.5 L-0.4 -33.75 -2.0 -33.55 -2.45 -33.55 -2.4 -33.5 -3.85 -33.4 -4.0 -33.5 M1.0 -33.75 L1.6 -33.7 1.85 -33.45 0.75 -33.5 1.0 -33.75 M-16.05 -2.55 L-16.45 -2.8 Q-16.4 -3.5 -16.5 -3.95 L-16.15 -3.85 -16.1 -3.2 -16.05 -2.55 M-10.05 -32.25 L-10.8 -31.95 -10.85 -32.0 -10.0 -32.25 -10.05 -32.25 M-17.9 -9.1 L-17.8 -9.65 -17.35 -8.8 -17.9 -9.1 M-15.1 -3.3 L-15.0 -3.35 -15.05 -3.3 -15.1 -3.3" fill="url(#gradient0)" fill-rule="evenodd" stroke="none"/>
    <path d="M1.6 -33.7 L1.2 -34.2 Q5.45 -34.0 9.75 -32.65 L9.5 -32.45 9.15 -32.2 Q8.85 -31.95 8.95 -31.7 8.95 -31.35 9.45 -30.95 9.0 -30.75 8.95 -30.35 L6.15 -30.6 Q5.1 -30.6 4.35 -30.1 L2.85 -29.1 2.8 -29.15 2.75 -29.05 2.05 -29.4 Q3.0 -30.1 2.4 -31.25 3.0 -32.0 1.85 -33.45 L1.6 -33.7" fill="url(#gradient1)" fill-rule="evenodd" stroke="none"/>
    <path d="M2.4 -31.25 Q3.0 -30.1 2.05 -29.4 L0.9 -30.25 Q2.15 -30.75 2.4 -31.25" fill="url(#gradient2)" fill-rule="evenodd" stroke="none"/>
    <path d="M8.95 -30.35 Q9.0 -30.75 9.45 -30.95 9.65 -30.75 10.6 -30.3 L8.95 -30.35" fill="url(#gradient3)" fill-rule="evenodd" stroke="none"/>
    <path d="M13.35 -23.6 L14.1 -23.7 13.2 -23.5 13.15 -23.5 13.85 -23.65 13.35 -23.6" fill="url(#gradient4)" fill-rule="evenodd" stroke="none"/>
    <path d="M14.1 -23.7 Q14.85 -23.55 14.6 -22.8 14.35 -22.05 13.15 -21.95 L13.85 -22.15 12.85 -22.2 13.0 -22.6 13.45 -23.0 13.2 -23.5 14.1 -23.7" fill="url(#gradient5)" fill-rule="evenodd" stroke="none"/>
    <path d="M15.35 -25.05 L16.05 -24.35 15.6 -24.05 16.4 -23.1 15.5 -23.0 15.5 -23.1 15.65 -23.25 15.45 -23.25 15.3 -23.7 15.4 -23.85 Q15.6 -24.45 15.4 -24.95 L15.35 -25.05" fill="url(#gradient6)" fill-rule="evenodd" stroke="none"/>
    <path d="M15.35 -25.05 L15.4 -24.95 Q15.6 -24.45 15.4 -23.85 L15.3 -23.7 14.8 -24.6 14.4 -25.4 15.35 -25.05" fill="url(#gradient7)" fill-rule="evenodd" stroke="none"/>
    <path d="M15.3 -23.7 L15.45 -23.25 14.85 -23.2 15.3 -23.7" fill="url(#gradient8)" fill-rule="evenodd" stroke="none"/>
    <path d="M15.45 -23.25 L15.65 -23.25 15.5 -23.1 15.45 -23.25" fill="url(#gradient9)" fill-rule="evenodd" stroke="none"/>
    <path d="M16.4 -23.1 L16.95 -22.4 15.6 -21.9 16.3 -21.6 15.35 -21.45 15.65 -21.8 14.85 -21.7 Q15.5 -22.35 15.5 -23.0 L16.4 -23.1" fill="url(#gradient10)" fill-rule="evenodd" stroke="none"/>
    <path d="M16.3 -21.6 L15.6 -21.9 16.95 -22.4 17.2 -21.85 16.3 -21.6" fill="url(#gradient11)" fill-rule="evenodd" stroke="none"/>
    <path d="M16.7 -20.8 L16.45 -19.95 15.6 -20.4 16.7 -20.8" fill="url(#gradient12)" fill-rule="evenodd" stroke="none"/>
    <path d="M21.1 -26.1 L24.05 -23.15 Q29.0 -17.45 30.95 -9.95 L29.35 -11.5 30.85 -8.6 29.35 -10.05 30.9 -6.9 Q30.75 -6.65 30.2 -6.65 L29.3 -9.3 Q28.5 -11.1 27.65 -11.3 27.7 -10.6 28.1 -9.65 L27.65 -9.85 Q27.7 -8.85 28.4 -7.6 L29.55 -5.3 30.05 -4.05 Q30.45 -3.1 30.75 -3.0 L29.95 -0.45 29.35 2.1 29.4 3.05 29.35 3.55 29.45 4.95 Q29.2 5.65 27.85 6.85 L27.25 8.1 26.9 9.35 Q26.55 10.55 25.55 11.5 L23.6 13.15 Q22.2 11.1 22.05 8.8 22.25 7.15 23.05 6.2 L23.55 6.2 22.9 4.9 23.05 4.75 23.55 4.75 22.85 3.35 22.3 1.8 21.85 1.1 22.15 0.15 21.85 -0.35 22.15 -1.3 Q21.85 -2.6 19.35 -2.55 L15.75 -2.45 Q15.95 -2.0 15.35 -1.6 L15.0 -2.0 Q14.1 -2.05 12.85 -3.35 11.55 -4.65 11.1 -5.85 L11.75 -6.75 Q12.2 -7.25 12.15 -7.7 L11.85 -8.3 12.15 -9.2 12.15 -9.3 11.85 -9.8 11.7 -9.95 11.85 -10.05 12.9 -10.55 12.95 -10.6 14.05 -11.4 14.3 -12.6 Q14.3 -13.2 14.85 -13.65 L17.7 -14.35 20.65 -14.45 Q20.6 -13.1 21.1 -12.45 21.45 -11.95 22.75 -11.15 L22.8 -11.1 23.2 -11.5 23.8 -12.15 24.1 -12.45 25.3 -11.4 Q26.0 -10.65 26.65 -10.9 27.7 -11.25 27.1 -12.6 27.6 -13.05 27.15 -14.0 L26.4 -15.6 25.45 -15.15 24.85 -16.25 24.35 -17.2 Q23.85 -16.7 24.25 -15.55 L24.2 -15.45 Q23.9 -15.85 23.75 -16.6 L23.4 -17.85 22.6 -18.7 Q21.85 -19.05 21.55 -19.35 L22.05 -18.35 22.7 -17.1 21.55 -17.85 22.55 -16.05 22.05 -16.0 Q21.75 -17.5 20.4 -19.35 L19.8 -19.35 19.75 -18.85 Q18.85 -18.8 18.15 -18.15 18.15 -16.55 16.6 -16.6 L14.0 -17.2 14.0 -18.8 Q15.8 -17.85 16.35 -18.4 17.0 -19.05 16.45 -19.95 L16.7 -20.8 18.95 -22.55 Q19.65 -21.8 20.75 -21.8 21.85 -21.8 21.35 -23.0 L21.95 -23.05 21.45 -23.8 21.35 -24.45 21.95 -24.5 21.25 -25.7 21.1 -26.1" fill="url(#gradient13)" fill-rule="evenodd" stroke="none"/>
    <path d="M11.85 -9.8 L12.15 -9.3 12.0 -9.6 11.85 -9.8" fill="url(#gradient14)" fill-rule="evenodd" stroke="none"/>
    <path d="M20.35 -25.2 L20.15 -25.95 20.3 -26.5 20.4 -26.7 21.1 -26.1 21.25 -25.7 21.95 -24.5 21.35 -24.45 21.45 -23.8 20.75 -25.55 20.35 -25.2" fill="url(#gradient15)" fill-rule="evenodd" stroke="none"/>
    <path d="M18.7 -28.0 L20.4 -26.7 20.3 -26.5 20.15 -25.95 20.35 -25.2 Q19.95 -24.75 20.3 -23.95 L19.5 -25.45 Q19.15 -26.5 18.65 -26.85 18.3 -27.25 18.3 -27.65 L18.7 -28.0" fill="url(#gradient16)" fill-rule="evenodd" stroke="none"/>
    <path d="M18.3 -27.95 L18.3 -28.35 18.7 -28.0 18.3 -27.65 18.3 -27.95" fill="url(#gradient17)" fill-rule="evenodd" stroke="none"/>
    <path d="M18.3 -27.65 Q18.3 -27.25 18.65 -26.85 L18.45 -26.4 17.8 -25.8 17.25 -26.85 18.3 -27.65" fill="url(#gradient18)" fill-rule="evenodd" stroke="none"/>
    <path d="M18.45 -26.4 L18.4 -25.15 17.8 -25.8 18.45 -26.4" fill="url(#gradient19)" fill-rule="evenodd" stroke="none"/>
    <path d="M19.7 -23.55 Q19.95 -23.35 20.5 -23.25 20.7 -22.85 20.3 -22.5 19.85 -22.9 19.7 -23.55" fill="url(#gradient20)" fill-rule="evenodd" stroke="none"/>
    <path d="M22.55 -16.05 L21.55 -17.85 22.7 -17.1 Q23.0 -16.25 22.55 -16.05" fill="url(#gradient21)" fill-rule="evenodd" stroke="none"/>
    <path d="M21.85 -0.35 L22.15 0.15 21.85 1.1 21.65 0.55 21.85 -0.35" fill="url(#gradient22)" fill-rule="evenodd" stroke="none"/>
    <path d="M-13.5 -4.3 L-13.6 -2.6 -12.75 -3.95 -11.85 -3.35 Q-11.5 -3.3 -11.05 -3.65 L-10.8 -3.8 -10.55 -4.15 -7.75 -2.25 -7.0 -1.65 -6.3 -1.15 Q-5.85 -1.05 -5.3 -1.4 L-4.35 -1.25 -3.85 -0.45 -3.55 0.35 Q-3.25 1.55 -2.65 2.0 L-2.15 2.3 -2.0 2.35 -1.5 2.45 -0.95 2.6 -0.85 2.6 -0.7 2.6 Q-0.25 2.8 -0.1 3.2 L-0.1 3.75 -0.2 3.95 -0.25 4.05 -0.2 4.05 0.15 4.25 0.3 4.25 1.0 4.35 1.7 4.4 Q2.75 4.45 3.0 4.8 L2.95 5.0 2.9 5.3 Q2.35 6.85 1.75 9.95 1.35 11.3 -1.25 13.45 -3.8 15.45 -4.05 17.25 -5.75 17.0 -5.9 18.25 L-5.45 18.75 Q-6.7 19.25 -7.0 19.6 -7.7 20.2 -7.05 21.15 -7.65 21.7 -7.05 22.65 L-6.95 22.85 Q-7.4 23.2 -7.3 23.65 L-6.85 24.5 Q-8.75 23.8 -9.45 23.05 -10.35 22.05 -10.2 20.35 -11.1 20.0 -11.4 17.0 L-11.7 13.0 -11.85 11.15 Q-12.05 10.0 -12.4 9.5 L-13.65 8.7 -14.95 7.7 -15.65 6.25 -16.4 4.7 -17.95 2.45 Q-16.85 1.65 -16.5 1.0 -15.9 -0.1 -16.1 -1.9 L-16.05 -2.55 -16.1 -3.2 -15.95 -3.1 -15.55 -3.1 -15.45 -3.1 -15.4 -3.1 -15.25 -3.2 -15.2 -3.2 -15.05 -3.3 -15.0 -3.35 -14.9 -3.45 -14.75 -3.55 -14.6 -3.8 -13.65 -4.85 -13.65 -4.4 -13.6 -4.15 -13.5 -4.3" fill="url(#gradient23)" fill-rule="evenodd" stroke="none"/>
    <path d="M-0.1 3.2 L-0.05 3.5 -0.1 3.75 -0.1 3.2 M-15.45 -3.1 L-15.25 -3.2 -15.4 -3.1 -15.45 -3.1" fill="url(#gradient24)" fill-rule="evenodd" stroke="none"/>
    <path d="M-10.25 -30.6 Q-9.7 -31.0 -9.45 -31.8 L-9.3 -32.35 -9.25 -32.5 -9.25 -32.55 -9.1 -33.0 -9.1 -33.05 -4.5 -33.95 -4.15 -33.65 -4.35 -33.35 Q-4.6 -32.75 -4.45 -32.45 -5.4 -32.1 -5.6 -31.85 -5.9 -31.45 -5.3 -30.65 L-5.4 -30.55 -6.55 -30.95 -7.95 -31.05 -10.25 -30.6" fill="url(#gradient25)" fill-rule="evenodd" stroke="none"/>
    <path d="M-26.9 -17.55 Q-26.7 -18.65 -26.3 -19.25 L-25.15 -21.1 Q-24.6 -21.9 -24.45 -23.1 L-24.45 -23.7 Q-18.9 -29.85 -11.05 -32.5 L-11.05 -32.4 -11.05 -31.95 -11.05 -31.85 -10.85 -30.5 -11.35 -30.4 -11.4 -29.8 -12.6 -29.75 Q-13.05 -29.35 -12.4 -28.65 L-12.95 -28.05 -12.75 -28.0 -12.4 -27.2 -12.95 -26.6 -11.6 -26.2 -11.5 -25.3 Q-11.8 -24.0 -11.1 -23.25 L-10.8 -24.35 -10.45 -25.55 -9.6 -26.45 Q-8.95 -26.95 -8.75 -27.45 L-9.4 -28.05 -9.2 -28.3 -7.5 -28.95 -6.65 -27.9 Q-6.4 -27.4 -6.55 -26.6 L-5.45 -27.55 -4.4 -28.5 -4.35 -28.15 Q-4.55 -26.75 -4.1 -26.2 L-3.05 -25.6 -3.55 -24.7 Q-3.8 -24.5 -4.5 -24.45 -5.1 -24.3 -5.35 -23.8 -6.45 -25.15 -7.4 -24.95 -7.85 -24.25 -7.4 -23.5 -7.85 -22.7 -7.4 -22.05 L-6.3 -21.95 -6.35 -21.85 -8.3 -21.7 -9.9 -20.5 Q-11.05 -19.5 -11.55 -19.25 L-11.85 -19.5 -12.95 -17.8 Q-13.6 -16.7 -14.15 -16.15 L-15.1 -15.65 -15.95 -15.05 -15.95 -13.6 -16.05 -12.7 Q-16.7 -14.35 -17.55 -14.9 -18.55 -15.6 -19.05 -13.6 -20.1 -14.45 -20.9 -14.7 L-22.15 -12.75 Q-22.55 -11.7 -22.35 -10.55 -22.55 -9.8 -22.25 -8.55 L-22.15 -8.5 -22.05 -8.45 -21.5 -8.35 -20.55 -8.4 -20.25 -8.55 Q-19.25 -9.05 -19.15 -10.2 L-18.55 -9.95 -19.0 -9.1 -19.4 -8.15 -19.0 -7.6 -19.45 -6.7 -18.9 -5.95 -18.4 -5.85 Q-18.0 -5.85 -17.85 -5.65 L-17.85 -5.5 -17.85 -5.45 -18.0 -4.85 -18.05 -4.8 Q-18.2 -4.35 -17.85 -4.15 L-18.05 -3.35 Q-18.2 -2.95 -17.95 -2.75 L-18.0 -2.55 -18.85 -4.15 -19.55 -5.6 -21.0 -6.6 Q-21.95 -7.05 -21.8 -7.9 -23.55 -7.7 -24.35 -8.65 -24.9 -9.35 -24.95 -10.95 L-24.95 -12.25 Q-24.9 -14.0 -25.1 -14.65 -25.35 -15.75 -26.35 -15.8 -26.55 -15.3 -26.4 -13.95 L-26.35 -12.1 -26.6 -14.05 -26.7 -15.95 -26.9 -17.55" fill="url(#gradient26)" fill-rule="evenodd" stroke="none"/>
    <path d="M-4.15 -33.65 L-4.0 -33.5 -3.85 -33.4 -3.4 -32.85 -4.45 -32.45 Q-4.6 -32.75 -4.35 -33.35 L-4.15 -33.65" fill="url(#gradient27)" fill-rule="evenodd" stroke="none"/>
    <path d="M-4.5 -33.95 L-3.65 -34.1 -4.15 -33.65 -4.5 -33.95" fill="url(#gradient28)" fill-rule="evenodd" stroke="none"/>
    <path d="M-5.3 -30.65 L-5.1 -30.45 -5.4 -30.55 -5.3 -30.65" fill="url(#gradient29)" fill-rule="evenodd" stroke="none"/>
    <path d="M-5.4 -29.05 L-5.3 -29.2 -5.1 -29.0 -5.4 -29.05" fill="url(#gradient30)" fill-rule="evenodd" stroke="none"/>
    <path d="M-26.35 -12.1 L-26.25 -9.95 -26.6 -12.2 -26.7 -14.45 -26.9 -17.55 -26.7 -15.95 -26.6 -14.05 -26.35 -12.1" fill="url(#gradient31)" fill-rule="evenodd" stroke="none"/>
    <path d="M-7.4 -23.5 L-6.3 -23.5 -6.35 -23.25 -7.4 -23.5" fill="url(#gradient32)" fill-rule="evenodd" stroke="none"/>
    <path d="M-5.35 -22.35 L-5.5 -22.55 -5.2 -22.65 -5.35 -22.35" fill="url(#gradient33)" fill-rule="evenodd" stroke="none"/>
    <path d="M-11.6 -26.2 L-11.05 -26.2 -11.5 -25.3 -11.6 -26.2" fill="url(#gradient34)" fill-rule="evenodd" stroke="none"/>
    <path d="M-15.95 -13.6 Q-15.85 -12.95 -16.0 -12.6 L-16.05 -12.7 -15.95 -13.6" fill="url(#gradient35)" fill-rule="evenodd" stroke="none"/>
    <path d="M-17.85 -5.45 L-17.85 -4.15 Q-18.2 -4.35 -18.05 -4.8 L-18.0 -4.85 -17.85 -5.45" fill="url(#gradient36)" fill-rule="evenodd" stroke="none"/>
    <path d="M-13.65 -4.85 L-13.25 -5.1 -13.45 -4.45 -13.5 -4.3 -13.6 -4.15 -13.65 -4.4 -13.65 -4.85" fill="url(#gradient37)" fill-rule="evenodd" stroke="none"/>
    <path d="M-7.05 21.15 L-6.95 21.35 Q-7.5 21.8 -7.05 22.65 -7.65 21.7 -7.05 21.15" fill="url(#gradient38)" fill-rule="evenodd" stroke="none"/>
  </g>
  <defs>
    <linearGradient gradientTransform="matrix(0.0292, -0.0292, -0.0292, -0.0292, 0.9, -2.4)" gradientUnits="userSpaceOnUse" id="gradient0" spreadMethod="pad" x1="-819.2" x2="819.2">
      <stop offset="0.2549019607843137" stop-color="#af5016"/>
      <stop offset="0.611764705882353" stop-color="#ffc13e"/>
      <stop offset="1.0" stop-color="#de7f12"/>
    </linearGradient>
    <linearGradient gradientTransform="matrix(0.0282, -0.0163, -0.0163, -0.0282, -6.7, -25.5)" gradientUnits="userSpaceOnUse" id="gradient1" spreadMethod="pad" x1="-819.2" x2="819.2">
      <stop offset="0.00392156862745098" stop-color="#d2751e"/>
      <stop offset="0.611764705882353" stop-color="#ffa741"/>
      <stop offset="1.0" stop-color="#de7f12"/>
    </linearGradient>
    <linearGradient gradientTransform="matrix(0.0282, -0.0163, -0.0163, -0.0282, -6.5, -25.2)" gradientUnits="userSpaceOnUse" id="gradient2" spreadMethod="pad" x1="-819.2" x2="819.2">
      <stop offset="0.00392156862745098" stop-color="#d2751e"/>
      <stop offset="0.611764705882353" stop-color="#ffa741"/>
      <stop offset="1.0" stop-color="#de7f12"/>
    </linearGradient>
    <linearGradient gradientTransform="matrix(0.0282, -0.0163, -0.0163, -0.0282, -4.75, -22.15)" gradientUnits="userSpaceOnUse" id="gradient3" spreadMethod="pad" x1="-819.2" x2="819.2">
      <stop offset="0.00392156862745098" stop-color="#d2751e"/>
      <stop offset="0.611764705882353" stop-color="#ffa741"/>
      <stop offset="1.0" stop-color="#de7f12"/>
    </linearGradient>
    <linearGradient gradientTransform="matrix(0.0282, -0.0163, -0.0163, -0.0282, -0.75, -15.3)" gradientUnits="userSpaceOnUse" id="gradient4" spreadMethod="pad" x1="-819.2" x2="819.2">
      <stop offset="0.00392156862745098" stop-color="#d2751e"/>
      <stop offset="0.611764705882353" stop-color="#ffa741"/>
      <stop offset="1.0" stop-color="#de7f12"/>
    </linearGradient>
    <linearGradient gradientTransform="matrix(0.0282, -0.0163, -0.0163, -0.0282, -1.1, -14.35)" gradientUnits="userSpaceOnUse" id="gradient5" spreadMethod="pad" x1="-819.2" x2="819.2">
      <stop offset="0.00392156862745098" stop-color="#d2751e"/>
      <stop offset="0.611764705882353" stop-color="#ffa741"/>
      <stop offset="1.0" stop-color="#de7f12"/>
    </linearGradient>
    <linearGradient gradientTransform="matrix(0.0283, -0.0163, -0.0163, -0.0283, -0.45, -14.65)" gradientUnits="userSpaceOnUse" id="gradient6" spreadMethod="pad" x1="-819.2" x2="819.2">
      <stop offset="0.00392156862745098" stop-color="#d2751e"/>
      <stop offset="0.611764705882353" stop-color="#ffa741"/>
      <stop offset="1.0" stop-color="#de7f12"/>
    </linearGradient>
    <linearGradient gradientTransform="matrix(0.0282, -0.0163, -0.0163, -0.0282, -1.5, -15.1)" gradientUnits="userSpaceOnUse" id="gradient7" spreadMethod="pad" x1="-819.2" x2="819.2">
      <stop offset="0.00392156862745098" stop-color="#d2751e"/>
      <stop offset="0.611764705882353" stop-color="#ffa741"/>
      <stop offset="1.0" stop-color="#de7f12"/>
    </linearGradient>
    <linearGradient gradientTransform="matrix(0.0282, -0.0163, -0.0163, -0.0282, -0.25, -14.45)" gradientUnits="userSpaceOnUse" id="gradient8" spreadMethod="pad" x1="-819.2" x2="819.2">
      <stop offset="0.00392156862745098" stop-color="#d2751e"/>
      <stop offset="0.611764705882353" stop-color="#ffa741"/>
      <stop offset="1.0" stop-color="#de7f12"/>
    </linearGradient>
    <linearGradient gradientTransform="matrix(0.0282, -0.0163, -0.0163, -0.0282, -0.75, -13.8)" gradientUnits="userSpaceOnUse" id="gradient9" spreadMethod="pad" x1="-819.2" x2="819.2">
      <stop offset="0.00392156862745098" stop-color="#d2751e"/>
      <stop offset="0.611764705882353" stop-color="#ffa741"/>
      <stop offset="1.0" stop-color="#de7f12"/>
    </linearGradient>
    <linearGradient gradientTransform="matrix(0.0282, -0.0163, -0.0163, -0.0282, -0.25, -12.95)" gradientUnits="userSpaceOnUse" id="gradient10" spreadMethod="pad" x1="-819.2" x2="819.2">
      <stop offset="0.00392156862745098" stop-color="#d2751e"/>
      <stop offset="0.611764705882353" stop-color="#ffa741"/>
      <stop offset="1.0" stop-color="#de7f12"/>
    </linearGradient>
    <linearGradient gradientTransform="matrix(0.0282, -0.0163, -0.0163, -0.0282, 0.7, -12.75)" gradientUnits="userSpaceOnUse" id="gradient11" spreadMethod="pad" x1="-819.2" x2="819.2">
      <stop offset="0.00392156862745098" stop-color="#d2751e"/>
      <stop offset="0.611764705882353" stop-color="#ffa741"/>
      <stop offset="1.0" stop-color="#de7f12"/>
    </linearGradient>
    <linearGradient gradientTransform="matrix(0.0283, -0.0163, -0.0163, -0.0283, 0.6, -11.3)" gradientUnits="userSpaceOnUse" id="gradient12" spreadMethod="pad" x1="-819.2" x2="819.2">
      <stop offset="0.00392156862745098" stop-color="#d2751e"/>
      <stop offset="0.611764705882353" stop-color="#ffa741"/>
      <stop offset="1.0" stop-color="#de7f12"/>
    </linearGradient>
    <linearGradient gradientTransform="matrix(0.0282, -0.0163, -0.0163, -0.0282, 8.8, 1.35)" gradientUnits="userSpaceOnUse" id="gradient13" spreadMethod="pad" x1="-819.2" x2="819.2">
      <stop offset="0.00392156862745098" stop-color="#d2751e"/>
      <stop offset="0.611764705882353" stop-color="#ffa741"/>
      <stop offset="1.0" stop-color="#de7f12"/>
    </linearGradient>
    <linearGradient gradientTransform="matrix(0.0282, -0.0163, -0.0163, -0.0282, 8.15, 1.75)" gradientUnits="userSpaceOnUse" id="gradient14" spreadMethod="pad" x1="-819.2" x2="819.2">
      <stop offset="0.00392156862745098" stop-color="#d2751e"/>
      <stop offset="0.611764705882353" stop-color="#ffa741"/>
      <stop offset="1.0" stop-color="#de7f12"/>
    </linearGradient>
    <linearGradient gradientTransform="matrix(0.0282, -0.0163, -0.0163, -0.0282, -0.35, -13.0)" gradientUnits="userSpaceOnUse" id="gradient15" spreadMethod="pad" x1="-819.2" x2="819.2">
      <stop offset="0.00392156862745098" stop-color="#d2751e"/>
      <stop offset="0.611764705882353" stop-color="#ffa741"/>
      <stop offset="1.0" stop-color="#de7f12"/>
    </linearGradient>
    <linearGradient gradientTransform="matrix(0.0282, -0.0163, -0.0163, -0.0282, -0.35, -14.5)" gradientUnits="userSpaceOnUse" id="gradient16" spreadMethod="pad" x1="-819.2" x2="819.2">
      <stop offset="0.00392156862745098" stop-color="#d2751e"/>
      <stop offset="0.611764705882353" stop-color="#ffa741"/>
      <stop offset="1.0" stop-color="#de7f12"/>
    </linearGradient>
    <linearGradient gradientTransform="matrix(0.0282, -0.0163, -0.0163, -0.0282, -2.1, -16.25)" gradientUnits="userSpaceOnUse" id="gradient17" spreadMethod="pad" x1="-819.2" x2="819.2">
      <stop offset="0.00392156862745098" stop-color="#d2751e"/>
      <stop offset="0.611764705882353" stop-color="#ffa741"/>
      <stop offset="1.0" stop-color="#de7f12"/>
    </linearGradient>
    <linearGradient gradientTransform="matrix(0.0282, -0.0163, -0.0163, -0.0282, -1.05, -15.75)" gradientUnits="userSpaceOnUse" id="gradient18" spreadMethod="pad" x1="-819.2" x2="819.2">
      <stop offset="0.00392156862745098" stop-color="#d2751e"/>
      <stop offset="0.611764705882353" stop-color="#ffa741"/>
      <stop offset="1.0" stop-color="#de7f12"/>
    </linearGradient>
    <linearGradient gradientTransform="matrix(0.0282, -0.0163, -0.0163, -0.0282, -0.5, -14.85)" gradientUnits="userSpaceOnUse" id="gradient19" spreadMethod="pad" x1="-819.2" x2="819.2">
      <stop offset="0.00392156862745098" stop-color="#d2751e"/>
      <stop offset="0.611764705882353" stop-color="#ffa741"/>
      <stop offset="1.0" stop-color="#de7f12"/>
    </linearGradient>
    <linearGradient gradientTransform="matrix(0.0283, -0.0163, -0.0163, -0.0283, 1.0, -12.05)" gradientUnits="userSpaceOnUse" id="gradient20" spreadMethod="pad" x1="-819.2" x2="819.2">
      <stop offset="0.00392156862745098" stop-color="#d2751e"/>
      <stop offset="0.611764705882353" stop-color="#ffa741"/>
      <stop offset="1.0" stop-color="#de7f12"/>
    </linearGradient>
    <linearGradient gradientTransform="matrix(0.0282, -0.0163, -0.0163, -0.0282, 4.25, -6.7)" gradientUnits="userSpaceOnUse" id="gradient21" spreadMethod="pad" x1="-819.2" x2="819.2">
      <stop offset="0.00392156862745098" stop-color="#d2751e"/>
      <stop offset="0.611764705882353" stop-color="#ffa741"/>
      <stop offset="1.0" stop-color="#de7f12"/>
    </linearGradient>
    <linearGradient gradientTransform="matrix(0.0282, -0.0163, -0.0163, -0.0282, 11.65, 6.3)" gradientUnits="userSpaceOnUse" id="gradient22" spreadMethod="pad" x1="-819.2" x2="819.2">
      <stop offset="0.00392156862745098" stop-color="#d2751e"/>
      <stop offset="0.611764705882353" stop-color="#ffa741"/>
      <stop offset="1.0" stop-color="#de7f12"/>
    </linearGradient>
    <linearGradient gradientTransform="matrix(0.0282, -0.0163, -0.0163, -0.0282, 7.7, -0.55)" gradientUnits="userSpaceOnUse" id="gradient23" spreadMethod="pad" x1="-819.2" x2="819.2">
      <stop offset="0.00392156862745098" stop-color="#d2751e"/>
      <stop offset="0.611764705882353" stop-color="#ffa741"/>
      <stop offset="1.0" stop-color="#de7f12"/>
    </linearGradient>
    <linearGradient gradientTransform="matrix(0.0282, -0.0163, -0.0163, -0.0282, 7.1, -0.15)" gradientUnits="userSpaceOnUse" id="gradient24" spreadMethod="pad" x1="-819.2" x2="819.2">
      <stop offset="0.00392156862745098" stop-color="#d2751e"/>
      <stop offset="0.611764705882353" stop-color="#ffa741"/>
      <stop offset="1.0" stop-color="#de7f12"/>
    </linearGradient>
    <linearGradient gradientTransform="matrix(0.0282, -0.0163, -0.0163, -0.0282, -9.6, -30.5)" gradientUnits="userSpaceOnUse" id="gradient25" spreadMethod="pad" x1="-819.2" x2="819.2">
      <stop offset="0.00392156862745098" stop-color="#d2751e"/>
      <stop offset="0.611764705882353" stop-color="#ffa741"/>
      <stop offset="1.0" stop-color="#de7f12"/>
    </linearGradient>
    <linearGradient gradientTransform="matrix(0.0282, -0.0163, -0.0163, -0.0282, -5.35, -23.2)" gradientUnits="userSpaceOnUse" id="gradient26" spreadMethod="pad" x1="-819.2" x2="819.2">
      <stop offset="0.00392156862745098" stop-color="#d2751e"/>
      <stop offset="0.611764705882353" stop-color="#ffa741"/>
      <stop offset="1.0" stop-color="#de7f12"/>
    </linearGradient>
    <linearGradient gradientTransform="matrix(0.0283, -0.0163, -0.0163, -0.0283, -9.3, -30.05)" gradientUnits="userSpaceOnUse" id="gradient27" spreadMethod="pad" x1="-819.2" x2="819.2">
      <stop offset="0.00392156862745098" stop-color="#d2751e"/>
      <stop offset="0.611764705882353" stop-color="#ffa741"/>
      <stop offset="1.0" stop-color="#de7f12"/>
    </linearGradient>
    <linearGradient gradientTransform="matrix(0.0283, -0.0163, -0.0163, -0.0283, -10.35, -30.35)" gradientUnits="userSpaceOnUse" id="gradient28" spreadMethod="pad" x1="-819.2" x2="819.2">
      <stop offset="0.00392156862745098" stop-color="#d2751e"/>
      <stop offset="0.611764705882353" stop-color="#ffa741"/>
      <stop offset="1.0" stop-color="#de7f12"/>
    </linearGradient>
    <linearGradient gradientTransform="matrix(0.0284, -0.0164, -0.0164, -0.0284, -8.5, -28.65)" gradientUnits="userSpaceOnUse" id="gradient29" spreadMethod="pad" x1="-819.2" x2="819.2">
      <stop offset="0.00392156862745098" stop-color="#d2751e"/>
      <stop offset="0.611764705882353" stop-color="#ffa741"/>
      <stop offset="1.0" stop-color="#de7f12"/>
    </linearGradient>
    <linearGradient gradientTransform="matrix(0.0283, -0.0163, -0.0163, -0.0283, -7.85, -27.55)" gradientUnits="userSpaceOnUse" id="gradient30" spreadMethod="pad" x1="-819.2" x2="819.2">
      <stop offset="0.00392156862745098" stop-color="#d2751e"/>
      <stop offset="0.611764705882353" stop-color="#ffa741"/>
      <stop offset="1.0" stop-color="#de7f12"/>
    </linearGradient>
    <linearGradient gradientTransform="matrix(0.0283, -0.0163, -0.0163, -0.0283, -7.2, -24.95)" gradientUnits="userSpaceOnUse" id="gradient31" spreadMethod="pad" x1="-819.2" x2="819.2">
      <stop offset="0.00392156862745098" stop-color="#d2751e"/>
      <stop offset="0.611764705882353" stop-color="#ffa741"/>
      <stop offset="1.0" stop-color="#de7f12"/>
    </linearGradient>
    <linearGradient gradientTransform="matrix(0.0283, -0.0163, -0.0163, -0.0283, -5.85, -24.0)" gradientUnits="userSpaceOnUse" id="gradient32" spreadMethod="pad" x1="-819.2" x2="819.2">
      <stop offset="0.00392156862745098" stop-color="#d2751e"/>
      <stop offset="0.611764705882353" stop-color="#ffa741"/>
      <stop offset="1.0" stop-color="#de7f12"/>
    </linearGradient>
    <linearGradient gradientTransform="matrix(0.0282, -0.0163, -0.0163, -0.0282, -5.05, -22.65)" gradientUnits="userSpaceOnUse" id="gradient33" spreadMethod="pad" x1="-819.2" x2="819.2">
      <stop offset="0.00392156862745098" stop-color="#d2751e"/>
      <stop offset="0.611764705882353" stop-color="#ffa741"/>
      <stop offset="1.0" stop-color="#de7f12"/>
    </linearGradient>
    <linearGradient gradientTransform="matrix(0.0282, -0.0163, -0.0163, -0.0282, -8.65, -27.45)" gradientUnits="userSpaceOnUse" id="gradient34" spreadMethod="pad" x1="-819.2" x2="819.2">
      <stop offset="0.00392156862745098" stop-color="#d2751e"/>
      <stop offset="0.611764705882353" stop-color="#ffa741"/>
      <stop offset="1.0" stop-color="#de7f12"/>
    </linearGradient>
    <linearGradient gradientTransform="matrix(0.0283, -0.0163, -0.0163, -0.0283, -3.6, -20.25)" gradientUnits="userSpaceOnUse" id="gradient35" spreadMethod="pad" x1="-819.2" x2="819.2">
      <stop offset="0.00392156862745098" stop-color="#d2751e"/>
      <stop offset="0.611764705882353" stop-color="#ffa741"/>
      <stop offset="1.0" stop-color="#de7f12"/>
    </linearGradient>
    <linearGradient gradientTransform="matrix(0.0282, -0.0163, -0.0163, -0.0282, -1.15, -14.5)" gradientUnits="userSpaceOnUse" id="gradient36" spreadMethod="pad" x1="-819.2" x2="819.2">
      <stop offset="0.00392156862745098" stop-color="#d2751e"/>
      <stop offset="0.611764705882353" stop-color="#ffa741"/>
      <stop offset="1.0" stop-color="#de7f12"/>
    </linearGradient>
    <linearGradient gradientTransform="matrix(0.0282, -0.0163, -0.0163, -0.0282, 0.0, -12.4)" gradientUnits="userSpaceOnUse" id="gradient37" spreadMethod="pad" x1="-819.2" x2="819.2">
      <stop offset="0.00392156862745098" stop-color="#d2751e"/>
      <stop offset="0.611764705882353" stop-color="#ffa741"/>
      <stop offset="1.0" stop-color="#de7f12"/>
    </linearGradient>
    <linearGradient gradientTransform="matrix(0.0283, -0.0163, -0.0163, -0.0283, 13.7, 9.85)" gradientUnits="userSpaceOnUse" id="gradient38" spreadMethod="pad" x1="-819.2" x2="819.2">
      <stop offset="0.00392156862745098" stop-color="#d2751e"/>
      <stop offset="0.611764705882353" stop-color="#ffa741"/>
      <stop offset="1.0" stop-color="#de7f12"/>
    </linearGradient>
  </defs>
</svg>
