<?xml version="1.0" encoding="UTF-8" standalone="no"?>
<svg xmlns:ffdec="https://www.free-decompiler.com/flash" xmlns:xlink="http://www.w3.org/1999/xlink" ffdec:objectType="shape" height="59.2px" width="67.0px" xmlns="http://www.w3.org/2000/svg">
  <g transform="matrix(1.0, 0.0, 0.0, 1.0, 33.5, 29.6)">
    <path d="M-31.05 -19.9 Q-30.85 -21.45 -29.85 -22.45 -28.8 -23.45 -27.5 -23.35 -26.15 -23.25 -25.25 -22.1 -24.5 -21.0 -24.5 -19.6 L-24.5 -19.5 -24.5 -19.35 -24.5 -19.25 Q-24.65 -17.85 -25.6 -16.9 -26.55 -15.95 -27.8 -15.95 L-27.8 -15.3 -27.7 -14.65 -27.55 -13.25 -27.0 -11.1 -26.8 -10.7 -26.7 -10.45 Q-25.8 -8.8 -24.15 -8.6 -22.05 -8.4 -18.5 -14.85 L-16.4 -18.7 -16.0 -19.5 Q-17.5 -20.2 -18.15 -21.9 -18.85 -23.6 -18.3 -25.45 -17.6 -27.5 -15.95 -28.5 -14.25 -29.55 -12.5 -29.0 -10.75 -28.5 -9.9 -26.65 -9.1 -24.85 -9.7 -22.8 -10.3 -20.95 -11.8 -19.9 -13.3 -18.85 -14.95 -19.15 L-15.0 -18.25 Q-15.2 -15.75 -14.95 -13.5 L-14.85 -12.65 -14.8 -12.1 -14.55 -10.85 Q-13.4 -6.05 -9.95 -4.8 L-9.85 -4.75 -2.9 -7.0 -1.6 -7.95 Q1.9 -10.65 6.2 -15.15 L6.85 -15.9 Q5.4 -17.25 5.1 -19.25 4.8 -21.25 5.8 -22.9 L5.8 -23.05 Q7.15 -24.95 9.45 -25.4 11.75 -25.85 13.7 -24.6 15.7 -23.35 16.25 -21.05 16.75 -18.8 15.6 -16.8 14.4 -15.05 12.4 -14.5 10.4 -13.95 8.5 -14.8 L8.2 -13.85 7.0 -9.3 6.7 -7.95 5.95 -3.5 Q5.2 3.3 7.5 5.25 L8.35 5.85 13.15 6.65 15.1 6.15 Q18.25 5.25 21.85 2.8 L22.55 2.3 Q21.75 1.0 21.95 -0.7 22.15 -2.35 23.3 -3.7 L23.35 -3.75 23.5 -3.9 Q24.95 -5.25 26.85 -5.5 28.8 -5.65 30.15 -4.45 31.45 -3.2 31.4 -1.2 31.4 0.8 30.0 2.35 28.6 3.8 26.7 4.1 24.9 4.35 23.5 3.3 L23.05 4.05 22.5 5.0 Q20.85 7.85 19.9 9.95 L19.7 11.0 Q19.2 12.25 19.2 13.15 L18.7 15.55 18.75 15.6 18.8 15.7 18.85 15.8 19.65 16.35 21.0 16.6 24.15 15.85 Q24.9 15.5 25.7 15.2 L26.25 14.9 Q25.9 13.85 26.35 12.7 26.7 11.5 27.8 10.75 L27.9 10.7 Q29.15 9.95 30.55 10.1 31.95 10.25 32.7 11.4 33.45 12.5 33.1 13.9 32.8 15.3 31.55 16.2 30.2 17.05 28.75 16.9 27.35 16.7 26.6 15.6 L26.4 15.25 25.9 15.7 Q21.65 19.25 18.2 23.45 16.35 25.65 15.4 27.15 17.45 23.6 11.8 17.0 6.2 10.4 -3.85 4.65 -13.85 -1.1 -22.35 -2.7 -30.55 -4.25 -32.75 -1.05 L-31.35 -4.15 Q-29.6 -8.7 -28.4 -15.3 L-28.3 -15.95 Q-29.55 -16.15 -30.35 -17.3 -31.1 -18.4 -31.05 -19.9" fill="url(#gradient0)" fill-rule="evenodd" stroke="none"/>
    <path d="M-24.5 -19.6 Q-24.5 -21.0 -25.25 -22.1 -26.15 -23.25 -27.5 -23.35 -28.8 -23.45 -29.85 -22.45 -30.85 -21.45 -31.05 -19.9 L-31.05 -20.05 Q-30.9 -21.65 -29.85 -22.7 -28.8 -23.75 -27.45 -23.65 -26.1 -23.55 -25.2 -22.3 -24.5 -21.25 -24.45 -20.0 L-24.45 -19.85 -24.5 -19.6 M31.55 16.2 Q32.8 15.3 33.1 13.9 33.45 12.5 32.7 11.4 31.95 10.25 30.55 10.1 29.15 9.95 27.9 10.7 29.25 9.8 30.7 9.95 32.2 10.1 32.95 11.25 33.75 12.35 33.35 13.8 32.95 15.2 31.65 16.15 L31.55 16.2 M25.7 15.2 Q24.9 15.5 24.15 15.85 L21.0 16.6 19.65 16.35 18.85 15.8 18.8 15.7 18.75 15.6 18.7 15.55 19.2 13.15 Q19.2 14.05 19.6 14.55 21.0 16.25 25.55 14.3 L25.7 15.2 M19.7 11.0 L19.9 9.95 21.5 6.85 Q20.2 9.3 19.7 11.0 M30.0 2.35 Q31.4 0.8 31.4 -1.2 31.45 -3.2 30.15 -4.45 28.8 -5.65 26.85 -5.5 24.95 -5.25 23.5 -3.9 24.95 -5.5 27.0 -5.75 29.0 -6.0 30.4 -4.75 31.8 -3.45 31.7 -1.4 31.6 0.6 30.15 2.25 L30.0 2.35 M21.85 2.8 Q18.25 5.25 15.1 6.15 L13.15 6.65 8.35 5.85 7.5 5.25 Q5.2 3.3 5.95 -3.5 L6.7 -7.95 6.85 -8.65 7.0 -9.3 8.2 -13.85 8.55 -13.75 7.6 -9.9 Q5.1 1.4 8.2 4.0 12.2 7.3 19.8 3.25 L21.6 2.25 21.85 2.8 M15.6 -16.8 Q16.75 -18.8 16.25 -21.05 15.7 -23.35 13.7 -24.6 11.75 -25.85 9.45 -25.4 7.15 -24.95 5.8 -23.05 L5.95 -23.2 Q7.2 -25.2 9.55 -25.75 11.95 -26.25 13.95 -24.95 16.0 -23.7 16.5 -21.35 17.05 -19.0 15.75 -16.95 L15.6 -16.8 M6.2 -15.15 Q1.9 -10.65 -1.6 -7.95 L-2.9 -7.0 -9.85 -4.75 -9.95 -4.8 Q-13.4 -6.05 -14.55 -10.85 L-14.8 -12.1 -14.85 -12.65 -14.95 -13.5 Q-15.2 -15.75 -15.0 -18.25 L-14.35 -18.2 -14.35 -16.45 Q-14.1 -7.8 -9.2 -6.05 -5.4 -4.65 3.0 -12.5 L6.0 -15.4 6.2 -15.15 M-9.7 -22.8 Q-9.1 -24.85 -9.9 -26.65 -10.75 -28.5 -12.5 -29.0 -14.25 -29.55 -15.95 -28.5 -17.6 -27.5 -18.3 -25.45 L-18.25 -25.7 Q-17.6 -27.75 -15.9 -28.9 -14.15 -29.95 -12.35 -29.4 -10.6 -28.85 -9.75 -27.0 -8.95 -25.1 -9.6 -23.0 L-9.7 -22.8 M-18.5 -14.85 Q-22.05 -8.4 -24.15 -8.6 -25.8 -8.8 -26.7 -10.45 L-26.8 -10.7 -27.0 -11.1 -27.55 -13.25 -27.7 -14.65 -27.8 -15.3 -26.95 -15.4 Q-26.4 -10.25 -23.45 -9.85 -21.6 -9.6 -18.5 -14.85" fill="#fffdad" fill-rule="evenodd" stroke="none"/>
    <path d="M-31.05 -20.05 L-31.05 -19.9 Q-31.1 -18.4 -30.35 -17.3 -29.55 -16.15 -28.3 -15.95 L-28.4 -15.3 Q-29.6 -15.55 -30.35 -16.6 -31.25 -17.85 -31.1 -19.4 L-31.05 -20.05 M25.9 15.7 L26.4 15.25 26.6 15.6 Q27.35 16.7 28.75 16.9 30.2 17.05 31.55 16.2 L31.15 16.5 Q29.8 17.45 28.35 17.25 26.85 17.1 26.05 15.95 L25.9 15.7 M27.8 10.75 Q26.7 11.5 26.35 12.7 25.9 13.85 26.25 14.9 L25.7 15.2 25.55 14.3 25.7 13.4 Q26.05 12.0 27.35 11.05 L27.8 10.75 M23.05 4.05 L23.5 3.3 Q24.9 4.35 26.7 4.1 28.6 3.8 30.0 2.35 L30.15 2.25 29.5 2.85 Q28.05 4.5 26.05 4.75 24.3 4.9 23.05 4.05 M23.3 -3.7 Q22.15 -2.35 21.95 -0.7 21.75 1.0 22.55 2.3 L21.85 2.8 21.6 2.25 Q21.25 1.4 21.3 0.4 21.4 -1.65 22.9 -3.25 L23.3 -3.7 M8.2 -13.85 L8.5 -14.8 Q10.4 -13.95 12.4 -14.5 14.4 -15.05 15.6 -16.8 L15.75 -16.95 15.2 -16.2 Q13.9 -14.15 11.55 -13.6 L8.55 -13.75 8.2 -13.85 M5.8 -22.9 Q4.8 -21.25 5.1 -19.25 5.4 -17.25 6.85 -15.9 L6.2 -15.15 6.0 -15.4 Q5.0 -16.45 4.65 -18.0 4.15 -20.4 5.45 -22.4 L5.8 -22.9 M-15.0 -18.25 L-14.95 -19.15 Q-13.3 -18.85 -11.8 -19.9 -10.3 -20.95 -9.7 -22.8 L-9.6 -23.0 -9.85 -22.15 Q-10.5 -20.05 -12.25 -19.0 -13.3 -18.3 -14.35 -18.2 L-15.0 -18.25 M-18.3 -25.45 Q-18.85 -23.6 -18.15 -21.9 -17.5 -20.2 -16.0 -19.5 L-16.4 -18.7 -16.45 -18.75 Q-17.75 -19.4 -18.4 -20.9 -19.15 -22.75 -18.5 -24.8 L-18.25 -25.7 -18.3 -25.45 M-27.8 -15.3 L-27.8 -15.95 Q-26.55 -15.95 -25.6 -16.9 -24.65 -17.85 -24.5 -19.25 L-24.5 -18.85 Q-24.65 -17.3 -25.7 -16.2 L-26.95 -15.4 -27.8 -15.3" fill="#843a00" fill-rule="evenodd" stroke="none"/>
    <path d="M-16.4 -18.7 L-18.5 -14.85 -16.45 -18.75 -16.4 -18.7" fill="url(#gradient1)" fill-rule="evenodd" stroke="none"/>
    <path d="M-32.75 -1.05 Q-30.55 -4.25 -22.35 -2.7 -13.85 -1.1 -3.85 4.65 6.2 10.4 11.8 17.0 17.45 23.6 15.4 27.15 13.35 30.7 4.85 29.1 -3.7 27.5 -13.7 21.75 -23.75 15.95 -29.35 9.35 -35.0 2.75 -32.95 -0.75 L-32.75 -1.05 M4.95 26.95 Q12.2 28.35 13.55 26.05 14.85 23.8 10.0 18.25 4.55 12.0 -4.9 6.5 -14.4 1.0 -22.5 -0.55 -29.75 -1.95 -31.1 0.35 -32.4 2.6 -27.55 8.2 -22.15 14.4 -12.65 19.9 -3.15 25.35 4.95 26.95" fill="url(#gradient2)" fill-rule="evenodd" stroke="none"/>
    <path d="M4.95 26.95 Q-3.15 25.35 -12.65 19.9 -22.15 14.4 -27.55 8.2 -32.4 2.6 -31.1 0.35 -29.75 -1.95 -22.5 -0.55 -14.4 1.0 -4.9 6.5 4.55 12.0 10.0 18.25 14.85 23.8 13.55 26.05 12.2 28.35 4.95 26.95" fill="url(#gradient3)" fill-rule="evenodd" stroke="none"/>
    <path d="M-1.95 6.35 L-2.25 6.1 -8.85 6.1 Q-9.1 6.1 -9.2 6.3 L-10.15 7.55 Q-10.8 8.2 -11.6 8.2 L-19.75 8.2 Q-19.95 8.2 -19.95 8.65 L-19.95 7.15 Q-19.95 6.7 -19.75 6.7 L-11.6 6.7 Q-10.8 6.7 -10.15 6.0 L-9.2 4.8 -8.85 4.55 -2.25 4.55 -1.95 4.8 -1.95 6.35 M-14.2 18.3 L-14.2 19.9 -19.65 19.9 Q-19.95 19.9 -19.95 20.1 L-19.95 18.55 Q-19.95 18.3 -19.65 18.3 L-14.2 18.3 M3.65 20.15 L3.4 19.9 -1.95 19.9 -1.95 18.3 3.4 18.3 3.65 18.6 3.65 20.15 M-29.9 12.55 L-29.9 12.45 -32.65 12.45 -32.65 11.0 -29.6 11.0 -28.7 6.7 -27.2 6.7 -27.55 8.2 -28.7 8.2 -29.6 12.55 -29.9 12.55 M-27.55 11.0 L-24.95 11.0 -24.1 6.7 -22.6 6.7 -22.85 8.2 -24.1 8.2 -24.95 12.55 -25.25 12.55 -25.25 12.45 -27.8 12.45 -27.55 11.0 M-22.85 11.0 L-21.7 11.0 -21.7 12.45 -23.2 12.45 -22.85 11.0 M-23.9 16.1 L-21.7 16.1 -21.7 17.55 -24.2 17.55 -23.9 16.1 M-26.8 21.8 L-27.15 21.8 -26.85 20.3 -26.55 20.3 -26.8 21.8 M-31.5 21.8 L-31.8 21.8 -31.5 20.3 -31.15 20.3 -31.5 21.8 M-30.95 17.6 L-30.95 17.55 -32.65 17.55 -32.65 16.1 -30.6 16.1 -30.45 15.2 -30.1 15.2 -30.6 17.6 -30.95 17.6 M-26.3 17.6 L-26.3 17.55 -28.85 17.55 -28.55 16.1 -26.0 16.1 -25.8 15.2 -25.5 15.2 -26.0 17.6 -26.3 17.6" fill="#fffdad" fill-rule="evenodd" stroke="none"/>
    <path d="M-19.95 8.65 Q-19.95 8.2 -19.75 8.2 L-11.6 8.2 Q-10.8 8.2 -10.15 7.55 L-9.2 6.3 Q-9.1 6.1 -8.85 6.1 L-2.25 6.1 -1.95 6.35 -1.95 18.3 -1.95 19.9 3.4 19.9 3.65 20.15 3.65 22.5 3.4 22.75 -19.7 22.75 -19.95 22.45 -19.95 20.1 Q-19.95 19.9 -19.65 19.9 L-14.2 19.9 -14.2 18.3 -14.2 12.15 -14.2 10.95 -19.55 10.95 -19.95 10.7 -19.95 8.65" fill="url(#gradient4)" fill-rule="evenodd" stroke="none"/>
    <path d="M-19.95 10.7 L-19.55 10.95 -14.2 10.95 -14.2 12.15 -19.55 12.15 -19.95 11.9 -19.95 10.7 M-19.95 22.45 L-19.7 22.75 3.4 22.75 3.65 22.5 3.65 23.7 3.4 23.95 -19.7 23.95 -19.95 23.6 -19.95 22.45 M-27.45 9.45 L-27.2 9.45 -27.55 11.0 -27.8 12.45 -27.85 12.55 -28.1 12.55 -27.45 9.45 M-22.85 9.45 L-22.6 9.45 -22.85 11.0 -23.2 12.45 -23.2 12.55 -23.45 12.55 -22.85 9.45 M-21.7 14.0 L-21.7 15.2 -23.75 15.2 -23.9 16.1 -24.2 17.55 -24.25 17.6 -24.5 17.6 -23.75 14.0 -21.7 14.0 M-21.7 19.15 L-21.7 20.3 -24.8 20.3 -25.65 24.6 -27.15 24.6 -26.9 23.35 -25.65 23.35 -24.8 19.15 -21.7 19.15 M-26.85 20.3 L-29.45 20.3 -30.3 24.6 -31.8 24.6 -31.55 23.35 -30.3 23.35 -29.45 19.15 -26.3 19.15 -26.55 20.3 -26.85 20.3 M-31.5 20.3 L-32.65 20.3 -32.65 19.15 -30.95 19.15 -31.15 20.3 -31.5 20.3 M-30.45 15.2 L-32.65 15.2 -32.65 14.0 -29.9 14.0 -30.1 15.2 -30.45 15.2 M-28.85 17.55 L-28.9 17.6 -29.15 17.6 -28.4 14.0 -25.25 14.0 -25.5 15.2 -25.8 15.2 -28.4 15.2 -28.55 16.1 -28.85 17.55" fill="#843a00" fill-rule="evenodd" stroke="none"/>
    <path d="M-29.9 12.55 L-29.6 12.55 -28.7 8.2 -27.55 8.2 -27.2 8.2 -27.45 9.45 -28.1 12.55 -27.85 12.55 -25.25 12.55 -24.95 12.55 -24.1 8.2 -22.85 8.2 -22.6 8.2 -22.85 9.45 -23.45 12.55 -23.2 12.55 -21.7 12.55 -21.7 14.0 -23.75 14.0 -24.5 17.6 -24.25 17.6 -21.7 17.6 -21.7 19.15 -24.8 19.15 -25.65 23.35 -26.9 23.35 -27.15 23.35 -26.8 21.8 -26.55 20.3 -26.3 19.15 -29.45 19.15 -30.3 23.35 -31.55 23.35 -31.8 23.35 -31.5 21.8 -31.15 20.3 -30.95 19.15 -32.65 19.15 -32.65 17.6 -30.95 17.6 -30.6 17.6 -30.1 15.2 -29.9 14.0 -32.65 14.0 -32.65 12.55 -29.9 12.55 M-28.9 17.6 L-26.3 17.6 -26.0 17.6 -25.5 15.2 -25.25 14.0 -28.4 14.0 -29.15 17.6 -28.9 17.6" fill="url(#gradient5)" fill-rule="evenodd" stroke="none"/>
  </g>
  <defs>
    <linearGradient gradientTransform="matrix(0.041, 0.0213, 0.0214, -0.041, 1.35, -0.7)" gradientUnits="userSpaceOnUse" id="gradient0" spreadMethod="pad" x1="-819.2" x2="819.2">
      <stop offset="0.2549019607843137" stop-color="#f18c00"/>
      <stop offset="0.611764705882353" stop-color="#fffb34"/>
      <stop offset="1.0" stop-color="#ffba00"/>
    </linearGradient>
    <linearGradient gradientTransform="matrix(0.0504, 0.0291, 0.0291, -0.0504, 8.65, -4.7)" gradientUnits="userSpaceOnUse" id="gradient1" spreadMethod="pad" x1="-819.2" x2="819.2">
      <stop offset="0.0196078431372549" stop-color="#d2751e"/>
      <stop offset="0.38823529411764707" stop-color="#ffa741"/>
      <stop offset="0.4627450980392157" stop-color="#ffd8af"/>
      <stop offset="0.5607843137254902" stop-color="#ffa741"/>
      <stop offset="0.8431372549019608" stop-color="#843a00"/>
    </linearGradient>
    <linearGradient gradientTransform="matrix(0.0084, -0.0145, -0.0145, -0.0084, -7.9, 11.7)" gradientUnits="userSpaceOnUse" id="gradient2" spreadMethod="pad" x1="-819.2" x2="819.2">
      <stop offset="0.00392156862745098" stop-color="#ab5706"/>
      <stop offset="1.0" stop-color="#843a00"/>
    </linearGradient>
    <linearGradient gradientTransform="matrix(0.0272, 0.0157, 0.0157, -0.0272, -8.75, 13.2)" gradientUnits="userSpaceOnUse" id="gradient3" spreadMethod="pad" x1="-819.2" x2="819.2">
      <stop offset="0.0" stop-color="#ffb53f"/>
      <stop offset="0.13333333333333333" stop-color="#ac5800"/>
      <stop offset="0.4823529411764706" stop-color="#fda500"/>
      <stop offset="0.8941176470588236" stop-color="#ffd300"/>
    </linearGradient>
    <linearGradient gradientTransform="matrix(0.0, -0.011, -0.011, 0.0, -8.15, 15.15)" gradientUnits="userSpaceOnUse" id="gradient4" spreadMethod="pad" x1="-819.2" x2="819.2">
      <stop offset="0.2549019607843137" stop-color="#f18c00"/>
      <stop offset="0.611764705882353" stop-color="#fffb34"/>
      <stop offset="1.0" stop-color="#ffba00"/>
    </linearGradient>
    <linearGradient gradientTransform="matrix(0.0, -0.0054, -0.0054, 0.0, -27.15, 13.4)" gradientUnits="userSpaceOnUse" id="gradient5" spreadMethod="pad" x1="-819.2" x2="819.2">
      <stop offset="0.2549019607843137" stop-color="#f18c00"/>
      <stop offset="0.611764705882353" stop-color="#fffb34"/>
      <stop offset="1.0" stop-color="#ffba00"/>
    </linearGradient>
  </defs>
</svg>
