<?xml version="1.0" encoding="UTF-8" standalone="no"?>
<svg xmlns:ffdec="https://www.free-decompiler.com/flash" xmlns:xlink="http://www.w3.org/1999/xlink" ffdec:objectType="shape" height="59.25px" width="74.15px" xmlns="http://www.w3.org/2000/svg">
  <g transform="matrix(1.0, 0.0, 0.0, 1.0, 40.65, 29.6)">
    <path d="M31.65 16.2 L31.1 16.55 Q29.8 17.45 28.3 17.3 26.85 17.15 26.05 16.0 L25.9 15.75 26.4 15.3 26.6 15.65 Q27.35 16.75 28.8 16.95 30.2 17.1 31.55 16.25 L31.65 16.2 M15.4 27.2 Q13.35 30.75 4.85 29.15 -3.7 27.6 -13.7 21.8 -23.75 16.0 -29.4 9.4 -35.0 2.8 -32.95 -0.75 L-32.8 -0.95 Q-30.65 -4.25 -22.35 -2.7 -13.85 -1.1 -3.85 4.7 6.2 10.45 11.85 17.05 17.45 23.65 15.4 27.2 M-28.4 -15.3 Q-29.6 -15.55 -30.4 -16.65 -31.0 -17.5 -31.15 -18.5 L-30.9 -18.5 -30.35 -17.3 Q-29.55 -16.15 -28.3 -16.0 L-28.4 -15.3 M-24.5 -19.15 L-24.55 -18.9 Q-24.65 -17.45 -25.5 -16.45 L-25.7 -16.25 -27.0 -15.45 -27.75 -15.3 -27.8 -15.3 -27.85 -15.95 Q-26.6 -15.95 -25.65 -16.9 L-25.5 -17.05 Q-24.7 -17.95 -24.5 -19.15 M-16.4 -18.7 Q-17.75 -19.4 -18.4 -20.9 -19.2 -22.75 -18.55 -24.85 L-18.3 -25.7 -18.35 -25.5 Q-18.85 -23.65 -18.2 -21.9 -17.5 -20.2 -16.05 -19.5 L-16.4 -18.7 M-9.6 -23.0 L-9.85 -22.2 Q-10.55 -20.1 -12.3 -19.0 -13.35 -18.35 -14.4 -18.25 L-15.0 -18.3 -14.95 -19.2 Q-13.3 -18.9 -11.85 -19.95 -10.35 -20.95 -9.7 -22.85 L-9.6 -23.0 M6.0 -15.45 Q5.0 -16.55 4.65 -18.05 4.15 -20.4 5.4 -22.4 L5.95 -23.25 5.85 -23.05 Q4.8 -21.3 5.05 -19.25 5.35 -17.25 6.85 -15.9 L6.2 -15.2 6.0 -15.45 M15.45 -16.55 L15.2 -16.2 Q13.9 -14.15 11.6 -13.6 L8.5 -13.75 8.2 -13.85 8.45 -14.85 Q10.35 -13.95 12.4 -14.5 14.25 -15.05 15.45 -16.55 M21.6 2.25 Q21.3 1.4 21.3 0.4 21.4 -1.65 22.9 -3.25 L23.45 -3.9 23.35 -3.75 Q22.15 -2.35 21.95 -0.65 21.75 1.0 22.55 2.3 L21.9 2.8 21.6 2.25 M30.15 2.25 L29.55 2.9 Q28.05 4.5 26.0 4.75 24.3 4.9 23.05 4.1 L23.5 3.3 Q24.85 4.35 26.7 4.1 28.6 3.8 30.0 2.4 L30.15 2.25 M25.55 14.35 L25.65 13.45 Q26.05 12.0 27.4 11.1 L27.9 10.7 27.8 10.8 Q26.75 11.6 26.3 12.75 25.85 13.9 26.25 14.95 L25.65 15.25 25.55 14.35 M-22.5 -0.55 Q-29.75 -1.95 -31.1 0.35 -32.45 2.65 -27.6 8.2 -22.15 14.45 -12.65 19.9 -3.15 25.4 4.95 27.0 12.2 28.4 13.55 26.1 14.9 23.85 10.05 18.25 4.55 12.0 -4.9 6.5 -14.45 1.0 -22.5 -0.55" fill="#3e5153" fill-rule="evenodd" stroke="none"/>
    <path d="M31.65 16.2 L31.55 16.25 Q32.8 15.3 33.15 13.9 33.5 12.5 32.75 11.4 32.0 10.3 30.55 10.15 29.1 9.95 27.8 10.8 L27.9 10.7 Q29.2 9.85 30.7 9.95 32.2 10.1 32.95 11.25 33.75 12.4 33.35 13.85 33.0 15.3 31.65 16.2 M-31.15 -18.5 L-31.15 -19.45 -31.1 -20.1 -30.65 -21.65 -30.65 -21.7 -29.9 -22.75 -29.3 -23.2 -29.1 -23.35 -27.45 -23.65 -27.35 -23.65 Q-26.05 -23.5 -25.25 -22.35 L-24.75 -21.4 Q-24.45 -20.65 -24.5 -19.8 -24.5 -20.65 -24.85 -21.4 L-25.3 -22.1 Q-26.15 -23.2 -27.35 -23.35 L-27.5 -23.4 -28.35 -23.35 -29.3 -22.95 -29.9 -22.5 -30.5 -21.7 -30.55 -21.65 Q-31.0 -20.9 -31.1 -19.95 L-30.9 -18.5 -31.15 -18.5 M-27.0 -15.45 L-26.75 -13.95 Q-25.95 -10.2 -23.45 -9.85 -21.7 -9.6 -18.9 -14.2 -22.25 -8.4 -24.15 -8.6 L-26.5 -10.1 -27.35 -12.2 -27.65 -13.95 -27.75 -15.3 -27.0 -15.45 M-18.3 -25.7 Q-17.65 -27.8 -15.9 -28.9 -14.2 -30.0 -12.4 -29.4 -10.6 -28.9 -9.75 -27.0 -8.95 -25.15 -9.6 -23.0 L-9.7 -22.85 Q-9.1 -24.9 -9.95 -26.7 -10.75 -28.5 -12.5 -29.05 -14.25 -29.6 -15.95 -28.55 -17.65 -27.5 -18.35 -25.5 L-18.3 -25.7 M-14.4 -18.25 L-14.4 -16.5 Q-14.15 -7.8 -9.2 -6.05 -5.4 -4.65 3.0 -12.55 L6.0 -15.45 6.2 -15.2 4.95 -13.85 2.65 -11.6 2.25 -11.25 1.75 -10.75 -1.45 -8.0 -1.6 -7.95 Q-7.1 -3.75 -9.95 -4.8 L-14.35 -9.95 -15.0 -13.55 -15.05 -14.4 -15.1 -16.7 -15.0 -18.3 -14.4 -18.25 M5.95 -23.25 Q7.25 -25.25 9.55 -25.8 11.95 -26.3 13.95 -25.0 15.95 -23.7 16.5 -21.35 17.0 -19.1 15.8 -17.15 16.3 -18.1 16.4 -19.05 L16.25 -21.1 Q15.7 -23.4 13.75 -24.65 11.75 -25.9 9.45 -25.45 7.15 -24.95 5.85 -23.05 L5.95 -23.25 M8.5 -13.75 L7.55 -9.9 Q5.05 1.4 8.2 4.0 12.2 7.35 19.8 3.25 L21.6 2.25 21.9 2.8 Q18.25 5.25 15.15 6.2 L11.25 6.75 8.15 5.75 7.5 5.25 Q5.15 3.3 5.95 -3.5 L6.1 -4.65 6.85 -8.65 6.9 -8.85 7.7 -12.05 8.2 -13.85 8.5 -13.75 M23.45 -3.9 Q25.0 -5.5 27.0 -5.75 29.05 -6.0 30.4 -4.75 31.75 -3.45 31.7 -1.4 31.6 0.6 30.15 2.25 L30.0 2.4 Q31.4 0.8 31.45 -1.15 31.5 -3.2 30.15 -4.45 28.8 -5.65 26.8 -5.5 24.85 -5.25 23.35 -3.75 L23.45 -3.9 M22.5 5.0 Q18.1 12.85 19.6 14.55 21.05 16.25 25.55 14.35 L25.65 15.25 24.1 15.9 Q22.0 16.65 20.7 16.65 L20.1 16.55 Q19.35 16.35 18.85 15.85 17.25 13.9 22.5 5.0" fill="#d9efff" fill-rule="evenodd" stroke="none"/>
    <path d="M31.55 16.25 Q30.2 17.1 28.8 16.95 27.35 16.75 26.6 15.65 L26.4 15.3 25.9 15.75 Q21.7 19.3 18.2 23.5 16.35 25.7 15.4 27.2 17.45 23.65 11.85 17.05 6.2 10.45 -3.85 4.7 -13.85 -1.1 -22.35 -2.7 -30.65 -4.25 -32.8 -0.95 -32.2 -2.0 -31.35 -4.15 -29.75 -8.25 -28.65 -13.95 L-28.4 -15.3 -28.3 -16.0 Q-29.55 -16.15 -30.35 -17.3 L-30.9 -18.5 -31.1 -19.95 Q-31.0 -20.9 -30.55 -21.65 L-30.5 -21.7 -29.9 -22.5 -29.3 -22.95 -28.35 -23.35 -27.5 -23.4 -27.35 -23.35 Q-26.15 -23.2 -25.3 -22.1 L-24.85 -21.4 Q-24.5 -20.65 -24.5 -19.8 L-24.5 -19.6 -24.5 -19.55 -24.5 -19.4 -24.5 -19.15 Q-24.7 -17.95 -25.5 -17.05 L-25.65 -16.9 Q-26.6 -15.95 -27.85 -15.95 L-27.8 -15.3 -27.65 -13.95 Q-27.45 -12.25 -27.05 -11.15 L-26.5 -10.1 -24.15 -8.6 Q-22.25 -8.4 -18.9 -14.2 L-18.55 -14.85 -16.4 -18.7 -16.05 -19.5 Q-17.5 -20.2 -18.2 -21.9 -18.85 -23.65 -18.35 -25.5 -17.65 -27.5 -15.95 -28.55 -14.25 -29.6 -12.5 -29.05 -10.75 -28.5 -9.95 -26.7 -9.1 -24.9 -9.7 -22.85 -10.35 -20.95 -11.85 -19.95 -13.3 -18.9 -14.95 -19.2 L-15.0 -18.3 -15.1 -16.7 -15.05 -14.4 -14.6 -10.85 -14.35 -9.95 -9.95 -4.8 Q-7.1 -3.75 -1.6 -7.95 L-1.45 -8.0 1.75 -10.75 2.65 -11.6 4.95 -13.85 6.2 -15.2 6.85 -15.9 Q5.35 -17.25 5.05 -19.25 4.8 -21.3 5.85 -23.05 7.15 -24.95 9.45 -25.45 11.75 -25.9 13.75 -24.65 15.7 -23.4 16.25 -21.1 L16.4 -19.05 Q16.3 -18.1 15.8 -17.15 L15.6 -16.8 15.45 -16.55 Q14.25 -15.05 12.4 -14.5 10.35 -13.95 8.45 -14.85 L8.2 -13.85 7.7 -12.05 6.9 -8.85 6.85 -8.65 6.1 -4.65 5.95 -3.5 Q5.15 3.3 7.5 5.25 L8.15 5.75 11.25 6.75 15.15 6.2 Q18.25 5.25 21.9 2.8 L22.55 2.3 Q21.75 1.0 21.95 -0.65 22.15 -2.35 23.35 -3.75 24.85 -5.25 26.8 -5.5 28.8 -5.65 30.15 -4.45 31.5 -3.2 31.45 -1.15 31.4 0.8 30.0 2.4 28.6 3.8 26.7 4.1 24.85 4.35 23.5 3.3 L23.05 4.1 22.5 5.0 Q17.25 13.9 18.85 15.85 19.35 16.35 20.1 16.55 L20.7 16.65 Q22.0 16.65 24.1 15.9 L25.65 15.25 26.25 14.95 Q25.85 13.9 26.3 12.75 26.75 11.6 27.8 10.8 29.1 9.95 30.55 10.15 32.0 10.3 32.75 11.4 33.5 12.5 33.15 13.9 32.8 15.3 31.55 16.25" fill="url(#gradient0)" fill-rule="evenodd" stroke="none"/>
    <path d="M-22.5 -0.55 Q-14.45 1.0 -4.9 6.5 4.55 12.0 10.05 18.25 14.9 23.85 13.55 26.1 12.2 28.4 4.95 27.0 -3.15 25.4 -12.65 19.9 -22.15 14.45 -27.6 8.2 -32.45 2.65 -31.1 0.35 -29.75 -1.95 -22.5 -0.55" fill="url(#gradient1)" fill-rule="evenodd" stroke="none"/>
    <path d="M-25.9 11.5 L-26.05 11.05 Q-25.25 4.95 -11.95 4.95 L-7.05 4.95 Q-2.45 4.95 0.75 5.9 4.7 7.1 5.25 9.45 L5.1 10.0 Q4.25 8.0 0.75 7.0 -2.45 6.05 -7.05 6.05 L-11.95 6.05 Q-24.5 6.05 -25.9 11.5 M-4.3 19.05 L-4.3 18.0 Q-4.3 17.65 -4.05 17.65 L4.7 17.65 Q5.0 17.65 5.0 17.9 L5.0 19.0 Q5.0 18.75 4.7 18.75 L-4.05 18.75 -4.3 19.05 M-26.3 20.95 L-26.3 19.85 -26.0 19.45 Q-24.15 17.8 -19.8 15.6 -18.4 14.8 -12.55 13.25 -9.2 12.35 -8.45 11.45 L-8.25 12.0 -8.25 12.05 Q-8.35 13.15 -12.55 14.3 -18.4 15.9 -19.8 16.65 -24.15 18.9 -26.0 20.55 L-26.3 20.95 M-35.55 7.25 L-36.75 7.25 -37.65 11.5 -37.9 11.5 -37.9 11.45 -40.65 11.45 -40.65 9.95 -37.65 9.95 -36.75 5.65 -35.25 5.65 -35.55 7.25 M-38.15 14.2 L-38.65 16.6 -38.95 16.6 -38.95 16.55 -40.65 16.55 -40.65 15.05 -38.65 15.05 -38.45 14.2 -38.15 14.2 M-39.15 19.3 L-39.45 20.8 -39.8 20.8 -39.5 19.3 -39.15 19.3 M-34.55 19.3 L-34.85 20.8 -35.2 20.8 -34.9 19.3 -34.55 19.3 M-30.9 7.25 L-32.1 7.25 -33.0 11.5 -33.3 11.5 -33.3 11.45 -35.85 11.45 -35.55 9.95 -33.0 9.95 -32.1 5.65 -30.6 5.65 -30.9 7.25 M-30.9 9.95 L-29.75 9.95 -29.75 11.45 -31.25 11.45 -30.9 9.95 M-31.95 15.05 L-29.75 15.05 -29.75 16.55 -32.25 16.55 -31.95 15.05 M-36.6 15.05 L-34.05 15.05 -33.85 14.2 -33.55 14.2 -34.05 16.6 -34.35 16.6 -34.35 16.55 -36.9 16.55 -36.6 15.05" fill="#d9efff" fill-rule="evenodd" stroke="none"/>
    <path d="M-25.9 11.5 Q-24.5 6.05 -11.95 6.05 L-7.05 6.05 Q-2.45 6.05 0.75 7.0 4.25 8.0 5.1 10.0 L5.25 10.5 5.0 11.25 Q3.8 13.45 -1.0 15.1 -4.5 16.25 -8.1 16.7 L-13.75 17.55 Q-15.55 18.0 -16.35 18.95 L-17.0 19.8 Q-17.05 20.2 -16.35 20.4 L-16.3 20.4 -4.3 20.4 -4.3 19.05 -4.05 18.75 4.7 18.75 Q5.0 18.75 5.0 19.0 L5.0 22.35 4.9 22.6 4.65 22.75 -25.9 22.75 -26.3 22.45 -26.3 22.3 -26.3 20.95 -26.0 20.55 Q-24.15 18.9 -19.8 16.65 -18.4 15.9 -12.55 14.3 -8.35 13.15 -8.25 12.05 L-8.25 12.0 -8.25 10.55 Q-8.25 9.7 -9.3 9.3 L-11.25 9.05 -13.5 9.05 Q-15.85 9.05 -17.1 10.7 -18.0 11.85 -19.4 12.75 -21.05 13.95 -22.5 13.95 -25.1 13.95 -25.85 12.7 L-26.05 12.15 -25.9 11.5" fill="url(#gradient2)" fill-rule="evenodd" stroke="none"/>
    <path d="M5.0 11.25 L5.25 12.0 Q4.6 14.7 -1.0 16.6 -4.5 17.75 -8.1 18.2 L-13.75 19.05 -14.5 19.3 Q-15.7 19.75 -16.3 20.4 L-16.35 20.4 Q-17.05 20.2 -17.0 19.8 L-16.35 18.95 Q-15.55 18.0 -13.75 17.55 L-8.1 16.7 Q-4.5 16.25 -1.0 15.1 3.8 13.45 5.0 11.25 M5.0 22.35 L5.0 23.85 4.9 24.1 4.65 24.25 -25.9 24.25 Q-26.3 24.25 -26.3 23.8 L-26.3 22.45 -25.9 22.75 4.65 22.75 4.9 22.6 5.0 22.35 M-8.45 11.45 L-9.3 10.85 -11.25 10.55 -13.5 10.55 Q-15.85 10.55 -17.1 12.25 -18.0 13.4 -19.4 14.3 -21.05 15.45 -22.5 15.45 -25.65 15.45 -26.05 13.65 L-25.85 12.7 Q-25.1 13.95 -22.5 13.95 -21.05 13.95 -19.4 12.75 -18.0 11.85 -17.1 10.7 -15.85 9.05 -13.5 9.05 L-11.25 9.05 -9.3 9.3 Q-8.25 9.7 -8.25 10.55 L-8.25 12.0 -8.45 11.45 M-40.65 13.0 L-37.9 13.0 -38.15 14.2 -38.45 14.2 -40.65 14.2 -40.65 13.0 M-40.65 18.15 L-38.95 18.15 -39.15 19.3 -39.5 19.3 -40.65 19.3 -40.65 18.15 M-39.55 22.35 L-38.35 22.35 -37.5 18.15 -34.35 18.15 -34.55 19.3 -34.9 19.3 -37.5 19.3 -38.35 23.6 -39.8 23.6 -39.55 22.35 M-34.95 22.35 L-33.7 22.35 -32.8 18.15 -29.75 18.15 -29.75 19.3 -32.8 19.3 -33.7 23.6 -35.2 23.6 -34.95 22.35 M-32.25 16.6 L-32.55 16.6 -31.8 13.0 -29.75 13.0 -29.75 14.2 -31.8 14.2 -31.95 15.05 -32.25 16.55 -32.25 16.6 M-31.25 11.5 L-31.5 11.5 -30.85 8.4 -30.6 8.4 -30.9 9.95 -31.25 11.45 -31.25 11.5 M-35.85 11.5 L-36.1 11.5 -35.45 8.4 -35.25 8.4 -35.55 9.95 -35.85 11.45 -35.85 11.5 M-33.85 14.2 L-36.45 14.2 -36.6 15.05 -36.9 16.55 -36.9 16.6 -37.15 16.6 -36.45 13.0 -33.3 13.0 -33.55 14.2 -33.85 14.2" fill="#3e5153" fill-rule="evenodd" stroke="none"/>
    <path d="M-37.9 11.5 L-37.65 11.5 -36.75 7.25 -35.55 7.25 -35.25 7.25 -35.45 8.4 -36.1 11.5 -35.85 11.5 -33.3 11.5 -33.0 11.5 -32.1 7.25 -30.9 7.25 -30.6 7.25 -30.85 8.4 -31.5 11.5 -31.25 11.5 -29.75 11.5 -29.75 13.0 -31.8 13.0 -32.55 16.6 -32.25 16.6 -29.75 16.6 -29.75 18.15 -32.8 18.15 -33.7 22.35 -34.95 22.35 -35.2 22.35 -34.85 20.8 -34.55 19.3 -34.35 18.15 -37.5 18.15 -38.35 22.35 -39.55 22.35 -39.8 22.35 -39.45 20.8 -39.15 19.3 -38.95 18.15 -40.65 18.15 -40.65 16.6 -38.95 16.6 -38.65 16.6 -38.15 14.2 -37.9 13.0 -40.65 13.0 -40.65 11.5 -37.9 11.5 M-33.55 14.2 L-33.3 13.0 -36.45 13.0 -37.15 16.6 -36.9 16.6 -34.35 16.6 -34.05 16.6 -33.55 14.2" fill="url(#gradient3)" fill-rule="evenodd" stroke="none"/>
  </g>
  <defs>
    <linearGradient gradientTransform="matrix(0.041, 0.0214, 0.0214, -0.041, 1.3, -0.7)" gradientUnits="userSpaceOnUse" id="gradient0" spreadMethod="pad" x1="-819.2" x2="819.2">
      <stop offset="0.2549019607843137" stop-color="#749286"/>
      <stop offset="0.611764705882353" stop-color="#d3e7da"/>
      <stop offset="1.0" stop-color="#a2c1c1"/>
    </linearGradient>
    <linearGradient gradientTransform="matrix(0.0272, 0.0157, 0.0157, -0.0272, -8.8, 13.25)" gradientUnits="userSpaceOnUse" id="gradient1" spreadMethod="pad" x1="-819.2" x2="819.2">
      <stop offset="0.0" stop-color="#c3dccd"/>
      <stop offset="0.19215686274509805" stop-color="#596c71"/>
      <stop offset="0.4666666666666667" stop-color="#5a7674"/>
      <stop offset="0.8941176470588236" stop-color="#9db9a2"/>
    </linearGradient>
    <linearGradient gradientTransform="matrix(0.0, -0.011, -0.011, 0.0, -10.5, 15.1)" gradientUnits="userSpaceOnUse" id="gradient2" spreadMethod="pad" x1="-819.2" x2="819.2">
      <stop offset="0.2549019607843137" stop-color="#749286"/>
      <stop offset="0.611764705882353" stop-color="#d3e7da"/>
      <stop offset="1.0" stop-color="#a2c1c1"/>
    </linearGradient>
    <linearGradient gradientTransform="matrix(0.0, -0.0054, -0.0054, 0.0, -35.2, 12.4)" gradientUnits="userSpaceOnUse" id="gradient3" spreadMethod="pad" x1="-819.2" x2="819.2">
      <stop offset="0.2549019607843137" stop-color="#749286"/>
      <stop offset="0.611764705882353" stop-color="#d3e7da"/>
      <stop offset="1.0" stop-color="#a2c1c1"/>
    </linearGradient>
  </defs>
</svg>
