<?xml version="1.0" encoding="UTF-8" standalone="no"?>
<svg xmlns:ffdec="https://www.free-decompiler.com/flash" xmlns:xlink="http://www.w3.org/1999/xlink" ffdec:objectType="shape" height="74.7px" width="74.0px" xmlns="http://www.w3.org/2000/svg">
  <g transform="matrix(1.0, 0.0, 0.0, 1.0, 37.0, 38.55)">
    <path d="M19.75 -22.1 L22.3 -19.15 22.9 -19.65 25.5 -21.15 27.0 -21.35 28.2 -20.4 29.7 -17.8 Q30.2 -17.05 29.85 -16.1 L29.7 -16.45 28.2 -19.05 Q27.8 -19.75 27.0 -19.95 L25.5 -19.75 22.9 -18.25 22.3 -17.75 Q20.0 -20.9 16.75 -23.35 L17.25 -23.9 17.4 -24.2 19.75 -22.1 M27.25 -8.55 L27.6 -6.7 27.6 -6.65 27.7 -5.7 28.45 -5.85 31.45 -5.85 Q32.3 -5.85 32.85 -5.25 33.45 -4.65 33.45 -3.85 L33.45 -2.8 Q33.35 -3.4 32.85 -3.9 32.3 -4.5 31.45 -4.5 L28.9 -4.5 27.65 -4.95 Q27.1 -8.5 25.7 -11.95 L26.15 -12.1 27.25 -8.55 M27.1 9.25 L29.0 10.35 29.9 11.45 29.85 12.8 Q29.65 12.15 29.0 11.75 L26.4 10.25 25.7 10.0 26.15 8.75 26.4 8.85 27.1 9.25 M18.8 23.3 L18.85 23.4 19.0 24.45 18.9 24.85 17.25 21.95 16.75 21.4 17.4 20.85 18.75 23.2 18.8 23.3 M-19.1 24.15 L-18.85 23.3 -18.8 23.2 -17.5 20.85 -17.45 20.9 -16.85 21.4 -17.3 21.95 -18.95 24.85 -19.1 24.15 M-30.05 12.4 L-30.0 11.6 -29.95 11.45 -29.35 10.55 -27.2 9.3 -26.5 8.85 -26.25 8.75 -26.25 8.8 -25.75 10.0 -26.5 10.25 -29.05 11.75 Q-29.7 12.15 -29.95 12.8 L-30.05 12.4 M-33.55 -2.75 L-33.55 -3.85 Q-33.55 -4.65 -32.95 -5.25 -32.35 -5.85 -31.55 -5.85 L-28.55 -5.85 -27.8 -5.7 -27.2 -9.0 -27.15 -9.05 -26.25 -12.1 -25.75 -11.95 Q-27.25 -8.55 -27.7 -4.9 L-28.9 -4.5 -31.55 -4.5 Q-32.35 -4.5 -32.95 -3.9 L-33.5 -2.75 -33.55 -2.75 M-30.05 -16.5 L-30.0 -17.3 -29.95 -17.35 -29.95 -17.45 -29.8 -17.8 -28.3 -20.4 Q-27.9 -21.1 -27.1 -21.35 L-25.55 -21.15 -23.0 -19.65 -22.4 -19.15 -21.75 -19.95 -21.5 -20.25 -19.9 -22.0 -17.5 -24.2 -17.3 -23.9 -16.85 -23.35 Q-19.9 -21.0 -22.4 -17.75 L-23.0 -18.25 -25.55 -19.75 -27.1 -19.95 Q-27.9 -19.75 -28.3 -19.05 L-29.8 -16.45 -29.95 -16.1 -30.0 -16.25 -30.0 -16.3 -30.05 -16.5 M-18.1 -30.6 L-15.5 -32.1 -13.95 -32.3 Q-13.15 -32.1 -12.75 -31.4 L-11.25 -28.8 -11.0 -28.05 Q-7.95 -29.4 -4.25 -30.0 L-3.85 -30.05 -3.55 -30.1 -3.55 -30.85 -3.4 -30.1 -3.55 -30.1 -3.55 -30.05 -3.55 -29.5 -3.5 -29.05 -3.6 -28.7 Q-7.55 -28.15 -11.0 -26.7 L-11.25 -27.4 -12.75 -30.0 Q-13.15 -30.7 -13.95 -30.95 L-15.5 -30.75 -18.1 -29.25 Q-18.7 -28.9 -18.95 -28.2 -19.2 -28.85 -18.95 -29.55 L-18.1 -30.6 M-3.55 -32.6 L-3.55 -33.85 Q-3.55 -34.65 -2.95 -35.25 -2.35 -35.85 -1.55 -35.85 L-1.0 -35.85 -1.5 -34.5 -1.55 -34.5 Q-2.35 -34.5 -2.95 -33.9 -3.55 -33.3 -3.55 -32.6 M1.0 -35.85 L1.45 -35.85 Q2.3 -35.85 2.85 -35.25 3.45 -34.65 3.45 -33.85 L3.45 -32.6 Q3.45 -33.3 2.85 -33.9 2.3 -34.5 1.5 -34.5 L1.0 -35.85 M3.45 -30.1 L4.5 -29.95 10.95 -28.05 11.2 -28.8 12.7 -31.4 13.9 -32.3 15.4 -32.1 18.0 -30.6 Q18.65 -30.25 18.9 -29.55 L18.95 -29.4 19.0 -29.2 19.0 -29.15 19.05 -28.95 18.95 -28.25 18.9 -28.2 Q18.65 -28.9 18.0 -29.25 L15.4 -30.75 13.9 -30.95 Q13.1 -30.7 12.7 -30.0 L11.2 -27.4 10.95 -26.7 Q7.4 -28.2 3.65 -28.7 L3.45 -29.25 3.45 -29.5 3.45 -30.05 3.45 -30.1 M-8.2 -10.8 L-8.35 -11.5 Q-8.15 -12.5 -6.55 -13.3 L-4.15 -14.15 Q-2.25 -14.65 -1.5 -13.45 -1.0 -12.6 -0.85 -9.6 -0.75 -7.1 -0.2 -7.1 0.35 -7.1 0.45 -9.6 0.6 -12.6 1.15 -13.45 1.85 -14.65 3.8 -14.15 L6.2 -13.3 Q7.75 -12.5 7.95 -11.5 L7.85 -10.8 7.8 -10.8 Q7.05 -12.25 3.8 -13.05 1.85 -13.55 1.15 -12.3 0.6 -11.45 0.45 -8.5 0.35 -5.95 -0.2 -5.95 -0.75 -5.95 -0.85 -8.5 -1.0 -11.45 -1.5 -12.3 -2.25 -13.55 -4.15 -13.05 -7.45 -12.25 -8.2 -10.8 M6.75 -8.5 Q6.95 -8.2 7.45 -8.3 L8.25 -9.1 8.95 -10.1 Q9.85 -10.75 11.15 -9.7 L12.85 -7.8 Q14.2 -5.95 13.8 -5.15 L12.85 -6.65 11.15 -8.55 Q9.85 -9.6 8.95 -8.95 L8.25 -8.0 7.45 -7.2 Q6.85 -7.05 6.65 -7.55 6.45 -8.05 6.75 -8.5 M10.95 -2.8 L12.4 -2.85 13.85 -3.5 14.05 -3.5 Q14.75 -3.6 15.2 -2.65 15.65 -1.65 15.5 -0.5 15.4 -1.4 14.95 -1.9 14.5 -2.5 13.85 -2.35 L12.4 -1.7 10.95 -1.65 Q10.3 -2.25 10.95 -2.8 M12.15 2.3 L13.4 2.4 14.0 2.4 14.05 2.45 14.2 2.55 14.15 3.1 13.9 3.5 12.65 3.55 Q11.9 3.55 11.85 2.95 11.8 2.5 12.1 2.3 L12.15 2.3 M-14.4 2.4 L-14.05 2.35 -13.75 2.4 -13.6 2.35 -12.5 2.3 Q-12.2 2.45 -12.25 2.95 -12.25 3.55 -13.05 3.55 L-14.3 3.5 Q-14.85 2.7 -14.45 2.45 L-14.4 2.4 M-14.4 -3.5 L-14.25 -3.5 -12.75 -2.85 -11.3 -2.8 Q-10.65 -2.25 -11.3 -1.65 L-12.75 -1.7 -14.25 -2.35 Q-14.9 -2.5 -15.35 -1.9 L-15.85 -0.5 Q-16.0 -1.7 -15.55 -2.65 -15.15 -3.6 -14.4 -3.5 M-14.2 -5.15 Q-14.6 -5.95 -13.25 -7.8 L-11.5 -9.7 Q-10.2 -10.75 -9.35 -10.1 L-8.65 -9.1 -7.8 -8.3 -7.7 -8.25 Q-7.3 -8.25 -7.15 -8.5 L-7.1 -8.45 Q-6.85 -8.05 -7.0 -7.55 -7.25 -7.05 -7.8 -7.2 L-8.65 -8.0 -9.35 -8.95 Q-10.2 -9.6 -11.5 -8.55 L-13.25 -6.65 -14.2 -5.15 M19.05 5.15 L19.55 4.95 Q17.9 9.35 14.25 12.8 10.85 16.05 6.7 17.45 L7.1 16.3 Q10.9 14.9 14.05 12.0 17.35 8.95 19.05 5.15 M-7.05 16.35 L-6.65 17.5 Q-10.85 16.1 -14.35 12.8 -18.0 9.3 -19.6 4.9 L-19.1 5.1 Q-17.45 8.95 -14.15 12.0 -10.95 14.95 -7.05 16.35" fill="#ffd8af" fill-rule="evenodd" stroke="none"/>
    <path d="M19.75 -22.1 L17.4 -24.2 17.25 -23.9 16.75 -23.35 Q20.0 -20.9 22.3 -17.75 L22.9 -18.25 25.5 -19.75 27.0 -19.95 Q27.8 -19.75 28.2 -19.05 L29.7 -16.45 29.85 -16.1 Q30.2 -17.05 29.7 -17.8 L29.9 -17.4 30.0 -16.5 29.95 -16.3 Q29.7 -15.5 29.0 -15.05 L26.4 -13.55 25.7 -13.35 27.15 -9.0 27.25 -8.55 26.15 -12.1 25.7 -11.95 Q27.1 -8.5 27.65 -4.95 L20.15 -7.75 Q18.8 -13.0 14.7 -17.1 10.85 -20.95 6.0 -22.35 L3.65 -28.7 Q7.4 -28.2 10.95 -26.7 L11.2 -27.4 12.7 -30.0 Q13.1 -30.7 13.9 -30.95 L15.4 -30.75 18.0 -29.25 Q18.65 -28.9 18.9 -28.2 L18.75 -27.9 17.25 -25.3 16.75 -24.7 17.4 -24.2 18.8 -23.0 19.75 -22.1 M29.9 11.45 L29.95 11.6 30.0 11.85 30.0 11.9 30.0 12.3 29.7 13.1 28.2 15.7 27.0 16.65 25.5 16.45 22.9 14.95 22.3 14.45 Q19.95 17.65 16.75 20.0 L17.25 20.6 17.4 20.85 16.75 21.4 17.25 21.95 18.9 24.85 19.0 24.45 18.95 24.7 18.9 24.85 Q18.65 25.55 18.0 25.9 L15.4 27.4 13.9 27.6 Q13.1 27.4 12.7 26.7 L11.2 24.1 10.95 23.35 Q7.45 24.85 3.75 25.35 L6.7 17.45 Q10.85 16.05 14.25 12.8 17.9 9.35 19.55 4.95 L27.6 2.0 Q27.05 5.4 25.7 8.6 L26.15 8.75 25.7 10.0 26.4 10.25 29.0 11.75 Q29.65 12.15 29.85 12.8 L29.9 11.45 M-19.05 24.7 L-19.05 24.55 -19.1 24.35 -19.1 24.15 -18.95 24.85 -17.3 21.95 -16.85 21.4 -17.45 20.9 -17.3 20.6 -16.85 20.0 Q-20.0 17.6 -22.4 14.45 L-23.0 14.95 -25.55 16.45 -27.1 16.65 Q-27.9 16.4 -28.3 15.7 L-29.8 13.1 -29.95 12.8 Q-29.7 12.15 -29.05 11.75 L-26.5 10.25 -25.75 10.0 -26.25 8.8 -25.75 8.6 Q-27.15 5.4 -27.65 1.95 L-19.6 4.9 Q-18.0 9.3 -14.35 12.8 -10.85 16.1 -6.65 17.5 L-3.75 25.35 Q-7.6 24.9 -11.0 23.35 L-11.25 24.1 -12.75 26.7 Q-13.15 27.4 -13.95 27.6 L-15.5 27.4 -18.1 25.9 Q-18.8 25.5 -19.05 24.7 M-30.0 11.6 Q-29.85 10.95 -29.35 10.55 L-29.95 11.45 -30.0 11.6 M-19.9 -22.0 L-18.85 -23.05 -17.5 -24.2 -19.9 -22.0 M-19.1 -28.6 L-19.05 -29.4 -19.0 -29.45 Q-18.85 -30.2 -18.1 -30.6 L-18.95 -29.55 Q-19.2 -28.85 -18.95 -28.2 -18.7 -28.9 -18.1 -29.25 L-15.5 -30.75 -13.95 -30.95 Q-13.15 -30.7 -12.75 -30.0 L-11.25 -27.4 -11.0 -26.7 Q-7.55 -28.15 -3.6 -28.7 L-5.95 -22.4 Q-10.9 -21.0 -14.8 -17.1 -18.9 -12.95 -20.25 -7.7 L-27.7 -4.9 Q-27.25 -8.55 -25.75 -11.95 L-26.25 -12.1 -25.75 -13.35 -26.5 -13.55 -29.05 -15.05 Q-29.8 -15.45 -30.0 -16.25 L-29.95 -16.1 -29.8 -16.45 -28.3 -19.05 Q-27.9 -19.75 -27.1 -19.95 L-25.55 -19.75 -23.0 -18.25 -22.4 -17.75 Q-19.9 -21.0 -16.85 -23.35 L-17.3 -23.9 -17.5 -24.2 -16.85 -24.7 -17.3 -25.3 -18.8 -27.9 -19.1 -28.6 M-3.55 -30.85 L-3.55 -32.6 Q-3.55 -33.3 -2.95 -33.9 -2.35 -34.5 -1.55 -34.5 L-1.5 -34.5 -3.5 -29.05 -3.55 -29.5 -3.55 -30.05 -3.4 -30.1 -3.55 -30.85 M3.45 -32.6 L3.45 -30.85 3.45 -30.7 3.3 -30.1 3.45 -30.05 3.45 -29.5 3.45 -29.25 1.5 -34.5 Q2.3 -34.5 2.85 -33.9 3.45 -33.3 3.45 -32.6 M29.85 1.15 L33.35 -0.15 32.85 0.55 Q32.3 1.15 31.45 1.15 L29.85 1.15 M-3.5 26.0 L-1.6 31.15 Q-2.35 31.15 -2.95 30.55 -3.55 30.0 -3.55 29.15 L-3.55 26.15 -3.5 26.0 M3.45 26.2 L3.45 29.15 Q3.45 30.0 2.85 30.55 2.35 31.1 1.6 31.15 L3.45 26.2 M28.9 -4.5 L31.45 -4.5 Q32.3 -4.5 32.85 -3.9 33.35 -3.4 33.45 -2.8 L28.9 -4.5 M-33.5 -2.75 L-32.95 -3.9 Q-32.35 -4.5 -31.55 -4.5 L-28.9 -4.5 -33.5 -2.75 M-29.8 1.15 L-31.55 1.15 Q-32.35 1.15 -32.95 0.55 L-33.45 -0.2 -29.8 1.15" fill="url(#gradient0)" fill-rule="evenodd" stroke="none"/>
    <path d="M30.0 -16.5 L30.0 -11.7 Q29.9 -10.65 29.0 -10.05 L27.15 -9.0 25.7 -13.35 26.4 -13.55 29.0 -15.05 Q29.7 -15.5 29.95 -16.3 L30.0 -16.5 M33.45 -0.2 L33.45 4.15 Q33.45 5.0 32.85 5.55 32.3 6.15 31.45 6.15 L28.45 6.15 27.7 6.0 27.1 9.25 26.4 8.85 26.15 8.75 25.7 8.6 Q27.05 5.4 27.6 2.0 L29.85 1.15 31.45 1.15 Q32.3 1.15 32.85 0.55 L33.35 -0.15 33.45 -0.2 M30.0 12.3 Q30.0 17.65 29.7 18.1 L28.2 20.7 27.0 21.65 25.5 21.45 22.9 19.95 22.3 19.45 18.8 23.3 18.75 23.2 17.4 20.85 17.25 20.6 16.75 20.0 Q19.95 17.65 22.3 14.45 L22.9 14.95 25.5 16.45 27.0 16.65 28.2 15.7 29.7 13.1 30.0 12.3 M19.0 24.45 L19.0 29.1 Q19.1 30.3 18.0 30.9 L15.4 32.4 13.9 32.6 Q13.1 32.4 12.7 31.7 L11.2 29.1 10.95 28.35 Q7.35 29.9 3.6 30.35 L3.45 34.15 Q3.45 35.0 2.85 35.55 2.3 36.15 1.45 36.15 L-1.55 36.15 Q-2.35 36.15 -2.95 35.55 -3.55 35.0 -3.55 34.15 L-3.65 30.35 Q-7.4 29.9 -11.0 28.35 L-11.25 29.1 -12.75 31.7 Q-13.15 32.4 -13.95 32.6 L-15.5 32.4 -18.1 30.9 Q-19.2 30.3 -19.1 28.95 L-19.05 26.8 -19.05 24.7 Q-18.8 25.5 -18.1 25.9 L-15.5 27.4 -13.95 27.6 Q-13.15 27.4 -12.75 26.7 L-11.25 24.1 -11.0 23.35 Q-7.6 24.9 -3.75 25.35 L-3.5 26.0 -3.55 26.15 -3.55 29.15 Q-3.55 30.0 -2.95 30.55 -2.35 31.15 -1.6 31.15 L0.0 35.5 1.6 31.15 Q2.35 31.1 2.85 30.55 3.45 30.0 3.45 29.15 L3.45 26.2 3.75 25.35 Q7.45 24.85 10.95 23.35 L11.2 24.1 12.7 26.7 Q13.1 27.4 13.9 27.6 L15.4 27.4 18.0 25.9 Q18.65 25.55 18.9 24.85 L18.95 24.7 19.0 24.45 M-18.85 23.3 L-22.4 19.45 -23.0 19.95 -25.55 21.45 -27.1 21.65 Q-27.9 21.4 -28.3 20.7 L-29.8 18.1 Q-30.15 17.55 -30.05 16.8 L-30.05 12.4 -29.95 12.8 -29.8 13.1 -28.3 15.7 Q-27.9 16.4 -27.1 16.65 L-25.55 16.45 -23.0 14.95 -22.4 14.45 Q-20.0 17.6 -16.85 20.0 L-17.3 20.6 -17.45 20.9 -17.5 20.85 -18.8 23.2 -18.85 23.3 M-27.2 9.3 L-27.8 6.0 -28.55 6.15 -31.55 6.15 Q-32.35 6.15 -32.95 5.55 -33.55 5.0 -33.55 4.15 L-33.55 -0.2 -33.45 -0.2 -32.95 0.55 Q-32.35 1.15 -31.55 1.15 L-29.8 1.15 -27.65 1.95 Q-27.15 5.4 -25.75 8.6 L-26.25 8.8 -26.25 8.75 -26.5 8.85 -27.2 9.3 M-27.2 -9.0 L-29.05 -10.05 Q-30.2 -10.75 -30.05 -12.05 L-30.05 -16.5 -30.0 -16.3 -30.0 -16.25 Q-29.8 -15.45 -29.05 -15.05 L-26.5 -13.55 -25.75 -13.35 -26.25 -12.1 -27.15 -9.05 -27.2 -9.0 M-18.85 -23.05 L-19.1 -28.6 -18.8 -27.9 -17.3 -25.3 -16.85 -24.7 -17.5 -24.2 -18.85 -23.05 M3.45 -30.7 L3.45 -30.1 3.45 -30.05 3.3 -30.1 3.45 -30.7 M18.0 -30.6 Q18.85 -30.15 19.0 -29.2 L18.95 -29.4 18.9 -29.55 Q18.65 -30.25 18.0 -30.6 M19.05 -28.95 L18.95 -24.25 18.8 -23.0 17.4 -24.2 16.75 -24.7 17.25 -25.3 18.75 -27.9 18.9 -28.2 18.95 -28.25 19.05 -28.95 M-5.95 -22.4 L-10.0 -11.5 -20.25 -7.7 Q-18.9 -12.95 -14.8 -17.1 -10.9 -21.0 -5.95 -22.4 M-9.85 -11.35 Q-9.0 -13.7 -4.6 -14.8 L-3.2 -15.0 Q-1.2 -15.0 -0.2 -13.5 L0.0 -13.75 Q1.05 -15.0 2.8 -15.0 L4.2 -14.8 Q8.85 -13.6 9.55 -11.05 L9.55 -11.0 9.7 -11.05 Q11.65 -11.05 14.1 -7.9 L14.55 -7.25 15.25 -6.1 Q15.8 -4.8 15.45 -3.8 16.6 -3.05 17.0 -1.5 L17.2 -0.1 Q17.2 1.95 16.05 3.1 L15.85 3.3 15.85 3.45 Q16.0 4.65 14.8 6.2 L14.2 6.9 19.05 5.15 Q17.35 8.95 14.05 12.0 10.9 14.9 7.1 16.3 L10.0 8.5 3.4 8.5 0.4 8.35 0.0 8.15 -0.2 8.0 -0.75 8.35 -3.8 8.5 -9.95 8.5 -7.05 16.35 Q-10.95 14.95 -14.15 12.0 -17.45 8.95 -19.1 5.1 L-14.75 6.7 -15.2 6.2 Q-16.4 4.55 -16.25 3.45 L-16.25 3.3 -16.45 3.1 Q-17.6 1.95 -17.6 -0.1 L-17.4 -1.5 Q-17.0 -3.05 -15.85 -3.8 -16.2 -4.8 -15.65 -6.1 L-14.5 -7.9 Q-12.05 -11.05 -10.1 -11.05 L-9.95 -11.0 -9.85 -11.35 M-3.4 -30.1 L-3.55 -30.05 -3.55 -30.1 -3.4 -30.1 M7.85 -10.8 L7.95 -11.5 Q7.75 -12.5 6.2 -13.3 L3.8 -14.15 Q1.85 -14.65 1.15 -13.45 0.6 -12.6 0.45 -9.6 0.35 -7.1 -0.2 -7.1 -0.75 -7.1 -0.85 -9.6 -1.0 -12.6 -1.5 -13.45 -2.25 -14.65 -4.15 -14.15 L-6.55 -13.3 Q-8.15 -12.5 -8.35 -11.5 L-8.2 -10.8 -8.0 -10.5 -7.25 -9.75 Q-6.8 -9.35 -7.0 -8.75 L-7.1 -8.45 -7.15 -8.5 Q-7.3 -8.25 -7.7 -8.25 L-7.8 -8.3 -8.65 -9.1 -9.35 -10.1 Q-10.2 -10.75 -11.5 -9.7 L-13.25 -7.8 Q-14.6 -5.95 -14.2 -5.15 L-14.05 -4.95 Q-13.7 -4.6 -12.95 -4.4 L-11.75 -4.15 -11.05 -3.6 Q-10.8 -3.2 -11.3 -2.8 L-12.75 -2.85 -14.25 -3.5 -14.4 -3.5 Q-15.9 -3.7 -15.9 -1.0 -15.9 1.8 -13.85 1.25 L-12.8 1.05 Q-12.2 1.1 -12.25 1.8 -12.25 2.15 -12.5 2.3 L-13.6 2.35 -14.05 2.35 -14.4 2.4 Q-14.95 2.65 -14.05 3.9 L-12.8 5.3 Q-12.2 5.75 -11.2 5.85 L-9.5 5.85 -4.85 5.9 -1.4 5.8 Q-1.0 5.65 -0.85 3.75 -0.75 2.0 -0.2 2.0 0.4 2.0 0.5 3.75 0.65 5.65 1.0 5.8 L4.45 5.9 9.1 5.85 10.8 5.85 Q11.8 5.75 12.4 5.3 L13.65 3.9 14.15 3.1 14.2 2.55 14.0 2.4 13.4 2.4 12.15 2.3 11.85 1.8 Q11.8 1.1 12.4 1.05 L13.45 1.25 Q15.5 1.8 15.55 -1.0 15.55 -3.7 14.05 -3.5 L13.85 -3.5 12.4 -2.85 10.95 -2.8 Q10.45 -3.2 10.7 -3.6 L11.4 -4.15 12.6 -4.4 Q13.3 -4.6 13.65 -4.95 L13.8 -5.15 Q14.2 -5.95 12.85 -7.8 L11.15 -9.7 Q9.85 -10.75 8.95 -10.1 L8.25 -9.1 7.45 -8.3 Q6.95 -8.2 6.75 -8.5 L6.65 -8.75 Q6.45 -9.35 6.85 -9.75 L7.6 -10.5 7.85 -10.8 M10.0 -11.5 L6.0 -22.35 Q10.85 -20.95 14.7 -17.1 18.8 -13.0 20.15 -7.75 L10.0 -11.5" fill="#843a00" fill-rule="evenodd" stroke="none"/>
    <path d="M-1.0 -35.85 L0.0 -38.55 0.0 -13.75 -0.2 -13.5 Q-1.2 -15.0 -3.2 -15.0 L-4.6 -14.8 Q-9.0 -13.7 -9.85 -11.35 L-10.0 -11.5 -5.95 -22.4 -3.6 -28.7 -3.5 -29.05 -1.5 -34.5 -1.0 -35.85" fill="url(#gradient1)" fill-rule="evenodd" stroke="none"/>
    <path d="M0.0 -38.55 L1.0 -35.85 1.5 -34.5 3.45 -29.25 3.65 -28.7 6.0 -22.35 10.0 -11.5 9.55 -11.05 Q8.85 -13.6 4.2 -14.8 L2.8 -15.0 Q1.05 -15.0 0.0 -13.75 L0.0 -38.55" fill="url(#gradient2)" fill-rule="evenodd" stroke="none"/>
    <path d="M33.45 -2.8 L37.0 -1.5 17.0 -1.5 Q16.6 -3.05 15.45 -3.8 15.8 -4.8 15.25 -6.1 L14.55 -7.25 14.1 -7.9 Q11.65 -11.05 9.7 -11.05 L9.55 -11.0 9.55 -11.05 10.0 -11.5 20.15 -7.75 27.65 -4.95 28.9 -4.5 33.45 -2.8" fill="url(#gradient3)" fill-rule="evenodd" stroke="none"/>
    <path d="M-8.2 -10.8 Q-7.45 -12.25 -4.15 -13.05 -2.25 -13.55 -1.5 -12.3 -1.0 -11.45 -0.85 -8.5 -0.75 -5.95 -0.2 -5.95 0.35 -5.95 0.45 -8.5 0.6 -11.45 1.15 -12.3 1.85 -13.55 3.8 -13.05 7.05 -12.25 7.8 -10.8 L7.85 -10.8 7.6 -10.5 6.85 -9.75 Q6.45 -9.35 6.65 -8.75 L6.75 -8.5 Q6.45 -8.05 6.65 -7.55 6.85 -7.05 7.45 -7.2 L8.25 -8.0 8.95 -8.95 Q9.85 -9.6 11.15 -8.55 L12.85 -6.65 13.8 -5.15 13.65 -4.95 Q13.3 -4.6 12.6 -4.4 L11.4 -4.15 10.7 -3.6 Q10.45 -3.2 10.95 -2.8 10.3 -2.25 10.95 -1.65 L12.4 -1.7 13.85 -2.35 Q14.5 -2.5 14.95 -1.9 15.4 -1.4 15.5 -0.5 15.65 -1.65 15.2 -2.65 14.75 -3.6 14.05 -3.5 15.55 -3.7 15.55 -1.0 15.5 1.8 13.45 1.25 L12.4 1.05 Q11.8 1.1 11.85 1.8 L12.15 2.3 12.1 2.3 Q11.8 2.5 11.85 2.95 11.9 3.55 12.65 3.55 L13.9 3.5 14.15 3.1 13.65 3.9 12.4 5.3 Q11.8 5.75 10.8 5.85 L9.1 5.85 4.45 5.9 1.0 5.8 Q0.65 5.65 0.5 3.75 0.4 2.0 -0.2 2.0 -0.75 2.0 -0.85 3.75 -1.0 5.65 -1.4 5.8 L-4.85 5.9 -9.5 5.85 -11.2 5.85 Q-12.2 5.75 -12.8 5.3 L-14.05 3.9 Q-14.95 2.65 -14.4 2.4 L-14.45 2.45 Q-14.85 2.7 -14.3 3.5 L-13.05 3.55 Q-12.25 3.55 -12.25 2.95 -12.2 2.45 -12.5 2.3 -12.25 2.15 -12.25 1.8 -12.2 1.1 -12.8 1.05 L-13.85 1.25 Q-15.9 1.8 -15.9 -1.0 -15.9 -3.7 -14.4 -3.5 -15.15 -3.6 -15.55 -2.65 -16.0 -1.7 -15.85 -0.5 L-15.35 -1.9 Q-14.9 -2.5 -14.25 -2.35 L-12.75 -1.7 -11.3 -1.65 Q-10.65 -2.25 -11.3 -2.8 -10.8 -3.2 -11.05 -3.6 L-11.75 -4.15 -12.95 -4.4 Q-13.7 -4.6 -14.05 -4.95 L-14.2 -5.15 -13.25 -6.65 -11.5 -8.55 Q-10.2 -9.6 -9.35 -8.95 L-8.65 -8.0 -7.8 -7.2 Q-7.25 -7.05 -7.0 -7.55 -6.85 -8.05 -7.1 -8.45 L-7.0 -8.75 Q-6.8 -9.35 -7.25 -9.75 L-8.0 -10.5 -8.2 -10.8 M14.0 2.4 L14.2 2.55 14.05 2.45 14.0 2.4 M-14.05 2.35 L-13.6 2.35 -13.75 2.4 -14.05 2.35" fill="url(#gradient4)" fill-rule="evenodd" stroke="none"/>
    <path d="M37.0 -1.5 L33.45 -0.2 33.35 -0.15 29.85 1.15 27.6 2.0 19.55 4.95 19.05 5.15 14.2 6.9 14.8 6.2 Q16.0 4.65 15.85 3.45 L15.85 3.3 16.05 3.1 Q17.2 1.95 17.2 -0.1 L17.0 -1.5 37.0 -1.5" fill="url(#gradient5)" fill-rule="evenodd" stroke="none"/>
    <path d="M-37.0 -1.5 L-33.55 -2.75 -33.5 -2.75 -28.9 -4.5 -27.7 -4.9 -20.25 -7.7 -10.0 -11.5 -9.85 -11.35 -9.95 -11.0 -10.1 -11.05 Q-12.05 -11.05 -14.5 -7.9 L-15.65 -6.1 Q-16.2 -4.8 -15.85 -3.8 -17.0 -3.05 -17.4 -1.5 L-37.0 -1.5" fill="url(#gradient6)" fill-rule="evenodd" stroke="none"/>
    <path d="M-7.05 16.35 L-9.95 8.5 -3.8 8.5 -0.75 8.35 -0.2 8.0 0.0 8.15 0.0 35.5 -1.6 31.15 -3.5 26.0 -3.75 25.35 -6.65 17.5 -7.05 16.35" fill="url(#gradient7)" fill-rule="evenodd" stroke="none"/>
    <path d="M0.0 35.5 L0.0 8.15 0.4 8.35 3.4 8.5 10.0 8.5 7.1 16.3 6.7 17.45 3.75 25.35 3.45 26.2 1.6 31.15 0.0 35.5" fill="url(#gradient8)" fill-rule="evenodd" stroke="none"/>
    <path d="M-33.55 -0.2 L-37.0 -1.5 -17.4 -1.5 -17.6 -0.1 Q-17.6 1.95 -16.45 3.1 L-16.25 3.3 -16.25 3.45 Q-16.4 4.55 -15.2 6.2 L-14.75 6.7 -19.1 5.1 -19.6 4.9 -27.65 1.95 -29.8 1.15 -33.45 -0.2 -33.55 -0.2" fill="url(#gradient9)" fill-rule="evenodd" stroke="none"/>
  </g>
  <defs>
    <linearGradient gradientTransform="matrix(0.0, -0.0409, -0.0409, 0.0, -0.05, -2.35)" gradientUnits="userSpaceOnUse" id="gradient0" spreadMethod="pad" x1="-819.2" x2="819.2">
      <stop offset="0.2549019607843137" stop-color="#af5016"/>
      <stop offset="0.611764705882353" stop-color="#ffc13e"/>
      <stop offset="1.0" stop-color="#de7f12"/>
    </linearGradient>
    <linearGradient gradientTransform="matrix(0.0, -0.0226, -0.0226, 0.0, -5.0, -20.05)" gradientUnits="userSpaceOnUse" id="gradient1" spreadMethod="pad" x1="-819.2" x2="819.2">
      <stop offset="0.0" stop-color="#d2751e"/>
      <stop offset="0.611764705882353" stop-color="#ffa741"/>
      <stop offset="1.0" stop-color="#de7f12"/>
    </linearGradient>
    <linearGradient gradientTransform="matrix(0.006, 0.0, 0.0, -0.006, 5.0, -20.05)" gradientUnits="userSpaceOnUse" id="gradient2" spreadMethod="pad" x1="-819.2" x2="819.2">
      <stop offset="0.00392156862745098" stop-color="#7f4126"/>
      <stop offset="1.0" stop-color="#de7f12"/>
    </linearGradient>
    <linearGradient gradientTransform="matrix(0.0226, 0.0, 0.0, -0.0226, 18.5, -6.5)" gradientUnits="userSpaceOnUse" id="gradient3" spreadMethod="pad" x1="-819.2" x2="819.2">
      <stop offset="0.2549019607843137" stop-color="#d2751e"/>
      <stop offset="0.611764705882353" stop-color="#ffa741"/>
      <stop offset="1.0" stop-color="#de7f12"/>
    </linearGradient>
    <linearGradient gradientTransform="matrix(0.0, -0.0123, -0.0123, 0.0, -0.2, -4.2)" gradientUnits="userSpaceOnUse" id="gradient4" spreadMethod="pad" x1="-819.2" x2="819.2">
      <stop offset="0.00392156862745098" stop-color="#ffa741"/>
      <stop offset="0.06274509803921569" stop-color="#ab5706"/>
      <stop offset="0.8117647058823529" stop-color="#e68a23"/>
    </linearGradient>
    <linearGradient gradientTransform="matrix(0.0226, 0.0, 0.0, -0.0226, 18.5, 3.45)" gradientUnits="userSpaceOnUse" id="gradient5" spreadMethod="pad" x1="-819.2" x2="819.2">
      <stop offset="0.00392156862745098" stop-color="#7f4126"/>
      <stop offset="1.0" stop-color="#de7f12"/>
    </linearGradient>
    <linearGradient gradientTransform="matrix(0.0226, 0.0, 0.0, -0.0226, -18.5, -6.5)" gradientUnits="userSpaceOnUse" id="gradient6" spreadMethod="pad" x1="-819.2" x2="819.2">
      <stop offset="0.2549019607843137" stop-color="#d2751e"/>
      <stop offset="0.611764705882353" stop-color="#ffa741"/>
      <stop offset="1.0" stop-color="#de7f12"/>
    </linearGradient>
    <linearGradient gradientTransform="matrix(0.0, -0.0226, -0.0226, 0.0, -5.0, 17.0)" gradientUnits="userSpaceOnUse" id="gradient7" spreadMethod="pad" x1="-819.2" x2="819.2">
      <stop offset="0.2549019607843137" stop-color="#d2751e"/>
      <stop offset="0.611764705882353" stop-color="#ffa741"/>
      <stop offset="1.0" stop-color="#de7f12"/>
    </linearGradient>
    <linearGradient gradientTransform="matrix(0.006, 0.0, 0.0, -0.006, 5.0, 17.0)" gradientUnits="userSpaceOnUse" id="gradient8" spreadMethod="pad" x1="-819.2" x2="819.2">
      <stop offset="0.00392156862745098" stop-color="#7f4126"/>
      <stop offset="1.0" stop-color="#de7f12"/>
    </linearGradient>
    <linearGradient gradientTransform="matrix(0.0226, 0.0, 0.0, -0.0226, -18.5, 3.45)" gradientUnits="userSpaceOnUse" id="gradient9" spreadMethod="pad" x1="-819.2" x2="819.2">
      <stop offset="0.00392156862745098" stop-color="#7f4126"/>
      <stop offset="1.0" stop-color="#de7f12"/>
    </linearGradient>
  </defs>
</svg>
