<?xml version="1.0" encoding="UTF-8" standalone="no"?>
<svg xmlns:ffdec="https://www.free-decompiler.com/flash" xmlns:xlink="http://www.w3.org/1999/xlink" ffdec:objectType="shape" height="72.05px" width="67.05px" xmlns="http://www.w3.org/2000/svg">
  <g transform="matrix(1.0, 0.0, 0.0, 1.0, 33.5, 36.0)">
    <path d="M20.9 -21.05 L22.4 -19.25 22.95 -19.75 25.55 -21.25 27.1 -21.45 Q27.9 -21.25 28.3 -20.55 L29.8 -17.95 29.95 -17.6 Q30.15 -17.0 29.95 -16.25 L28.3 -19.15 Q27.9 -19.85 27.1 -20.1 L25.55 -19.9 22.95 -18.4 22.4 -17.9 Q19.95 -21.15 16.8 -23.45 L17.3 -24.05 17.45 -24.3 20.9 -21.05 M27.2 -9.1 L27.45 -7.9 27.8 -5.85 28.55 -6.0 31.55 -6.0 Q32.4 -6.0 32.95 -5.4 33.55 -4.8 33.55 -4.0 L33.55 -2.7 Q33.55 -3.4 32.95 -4.0 32.4 -4.6 31.55 -4.6 L28.55 -4.6 27.8 -4.45 Q27.3 -8.4 25.75 -12.1 L26.2 -12.2 26.75 -10.7 27.2 -9.1 M27.15 9.15 L29.05 10.25 29.95 11.25 29.95 11.3 30.0 11.4 30.0 11.45 30.05 12.25 29.95 12.65 29.05 11.6 26.45 10.1 25.75 9.85 26.2 8.65 26.45 8.75 27.15 9.15 M18.85 23.15 L18.9 23.25 19.05 24.35 19.0 24.6 18.95 24.75 17.3 21.85 16.8 21.25 17.45 20.75 17.85 21.4 18.8 23.05 18.85 23.15 M-19.0 24.4 L-19.0 24.15 -18.8 23.15 -18.75 23.05 -17.75 21.4 -17.4 20.75 -16.75 21.25 -17.25 21.85 -18.9 24.75 -18.95 24.6 -19.0 24.4 M-30.0 12.25 L-29.95 11.45 -29.9 11.3 Q-29.65 10.6 -29.0 10.25 L-27.1 9.15 -26.75 8.95 -26.2 8.65 -25.7 9.85 -26.4 10.1 -29.0 11.6 -29.9 12.65 -30.0 12.25 M-33.5 -2.7 L-33.5 -4.0 Q-33.5 -4.8 -32.9 -5.4 -32.3 -6.0 -31.5 -6.0 L-28.5 -6.0 -27.75 -5.85 -27.35 -8.0 -27.1 -9.1 -26.2 -12.2 -25.7 -12.1 Q-27.25 -8.4 -27.75 -4.45 L-28.5 -4.6 -31.5 -4.6 Q-32.3 -4.6 -32.9 -4.0 -33.5 -3.4 -33.5 -2.7 M-29.9 -17.6 L-29.75 -17.95 -28.25 -20.55 Q-27.85 -21.25 -27.0 -21.45 L-25.5 -21.25 -22.9 -19.75 -22.35 -19.25 -20.8 -21.1 -17.4 -24.3 -17.25 -24.05 -16.75 -23.45 Q-19.9 -21.15 -22.35 -17.9 L-22.9 -18.4 -25.5 -19.9 -27.0 -20.1 -28.25 -19.15 -29.9 -16.25 Q-30.1 -17.0 -29.9 -17.6 M-18.8 -29.9 L-18.75 -30.0 -18.05 -30.75 -15.45 -32.25 -13.9 -32.45 Q-13.1 -32.2 -12.7 -31.5 L-11.2 -28.9 -10.95 -28.2 -6.45 -29.65 -3.5 -30.2 -3.5 -29.6 -3.35 -28.85 Q-7.2 -28.4 -10.95 -26.85 L-11.2 -27.55 -12.7 -30.15 -13.9 -31.05 -15.45 -30.85 -18.05 -29.35 -18.9 -28.3 -18.95 -29.5 -18.9 -29.65 -18.8 -29.9 M-3.5 -32.7 L-3.5 -34.0 Q-3.5 -34.8 -2.9 -35.4 -2.3 -36.0 -1.5 -36.0 L1.5 -36.0 Q2.35 -36.0 2.95 -35.4 3.5 -34.85 3.5 -34.0 L3.5 -32.7 Q3.5 -33.45 2.95 -34.0 2.35 -34.6 1.5 -34.6 L-1.5 -34.6 Q-2.3 -34.6 -2.9 -34.0 -3.5 -33.4 -3.5 -32.7 M5.2 -29.95 L11.0 -28.2 11.25 -28.9 12.75 -31.5 Q13.15 -32.2 13.95 -32.45 L15.5 -32.25 18.1 -30.75 18.45 -30.5 18.7 -30.2 18.8 -30.1 19.0 -29.65 19.05 -28.65 18.95 -28.3 18.1 -29.35 15.5 -30.85 13.95 -31.05 Q13.15 -30.85 12.75 -30.15 L11.25 -27.55 11.0 -26.85 Q7.25 -28.4 3.4 -28.85 L3.5 -29.6 3.5 -30.2 5.2 -29.95 M7.9 -10.9 Q7.25 -12.2 3.85 -13.2 1.95 -13.6 1.2 -12.45 0.65 -11.6 0.5 -8.6 0.4 -6.1 -0.15 -6.1 -0.65 -6.1 -0.8 -8.6 -0.95 -11.6 -1.45 -12.45 -2.2 -13.6 -4.1 -13.2 -7.45 -12.25 -8.15 -10.9 L-8.15 -10.95 -8.3 -11.65 Q-7.95 -13.3 -4.1 -14.3 -2.2 -14.8 -1.45 -13.55 -0.95 -12.7 -0.8 -9.75 -0.65 -7.2 -0.15 -7.2 0.4 -7.2 0.5 -9.75 0.65 -12.7 1.2 -13.55 1.95 -14.8 3.85 -14.3 7.7 -13.3 8.05 -11.65 L7.95 -10.95 7.9 -10.9 M-7.0 -8.6 Q-6.75 -8.15 -6.95 -7.65 -7.15 -7.15 -7.75 -7.3 L-8.6 -8.1 -9.3 -9.1 Q-10.65 -10.15 -13.15 -6.8 L-14.1 -5.25 Q-14.6 -6.1 -13.15 -7.9 -10.65 -11.25 -9.3 -10.2 L-8.6 -9.25 -7.75 -8.45 -7.55 -8.4 Q-7.25 -8.35 -7.05 -8.65 L-7.0 -8.6 M-11.25 -2.9 Q-10.5 -2.4 -11.25 -1.8 L-12.7 -1.85 -14.15 -2.5 Q-14.8 -2.65 -15.25 -2.05 -15.65 -1.55 -15.75 -0.7 L-15.8 -0.6 -15.75 -1.85 -15.5 -2.75 Q-15.05 -3.75 -14.15 -3.6 L-12.7 -2.95 -11.25 -2.9 M-12.4 2.2 Q-12.15 2.3 -12.15 2.8 -12.2 3.4 -12.95 3.4 L-14.25 3.4 -14.3 3.3 Q-14.8 2.45 -14.35 2.3 L-13.7 2.25 -12.45 2.15 -12.4 2.2 M14.25 2.45 Q14.4 2.7 13.95 3.4 L12.7 3.4 Q11.95 3.4 11.9 2.8 11.9 2.3 12.15 2.15 L13.45 2.25 14.1 2.3 14.25 2.45 M14.1 -3.6 Q14.8 -3.7 15.25 -2.75 15.7 -1.75 15.55 -0.6 15.45 -1.5 15.0 -2.05 14.55 -2.65 13.9 -2.5 L12.45 -1.85 11.0 -1.8 Q10.3 -2.4 11.0 -2.9 L12.45 -2.95 13.9 -3.6 14.1 -3.6 M13.85 -5.25 L12.9 -6.8 Q10.4 -10.15 9.05 -9.1 L8.3 -8.1 7.5 -7.3 Q6.9 -7.15 6.7 -7.65 6.5 -8.15 6.8 -8.6 L6.8 -8.65 Q7.0 -8.35 7.35 -8.4 L7.5 -8.45 8.3 -9.25 9.05 -10.2 Q10.4 -11.25 12.9 -7.9 14.35 -6.1 13.85 -5.25 M-20.75 -1.15 L-20.7 -1.65 Q-20.0 6.4 -14.05 11.85 -8.1 17.35 0.05 17.35 8.15 17.35 14.1 11.85 20.05 6.35 20.75 -1.65 L20.8 -1.15 Q20.25 7.05 14.3 12.7 8.3 18.35 0.05 18.35 -8.25 18.35 -14.25 12.7 -20.2 7.05 -20.75 -1.15" fill="#ffd8af" fill-rule="evenodd" stroke="none"/>
    <path d="M30.05 -16.6 L30.05 -11.85 Q30.05 -10.8 29.05 -10.2 L27.2 -9.1 26.75 -10.7 25.75 -13.45 26.45 -13.7 29.05 -15.2 Q29.7 -15.55 29.95 -16.25 L30.0 -16.4 30.05 -16.6 M33.55 -0.95 L33.55 4.0 Q33.55 4.85 32.95 5.45 32.4 6.0 31.55 6.0 L28.55 6.0 27.8 5.85 27.15 9.15 26.45 8.75 25.75 8.5 Q27.3 4.8 27.8 0.85 L28.55 1.0 31.55 1.0 Q32.4 1.0 32.95 0.45 33.55 -0.15 33.55 -0.95 M30.05 12.25 Q30.05 17.55 29.8 17.95 L28.3 20.55 Q27.9 21.3 27.1 21.5 L25.55 21.3 22.95 19.8 22.4 19.3 18.85 23.15 18.8 23.05 17.85 21.4 17.3 20.45 16.8 19.9 Q20.0 17.5 22.4 14.3 L22.95 14.8 25.55 16.3 27.1 16.5 Q27.9 16.3 28.3 15.55 L29.8 12.95 29.95 12.65 30.05 12.25 M19.05 24.35 L19.05 29.0 Q19.15 30.2 18.05 30.8 L15.5 32.3 13.95 32.5 Q13.15 32.25 12.75 31.55 L11.25 28.95 11.0 28.25 Q7.4 29.75 3.7 30.25 L3.5 34.05 Q3.5 34.9 2.95 35.45 2.35 36.05 1.5 36.05 L-1.5 36.05 Q-2.3 36.05 -2.9 35.45 -3.5 34.9 -3.5 34.05 L-3.6 30.25 Q-7.6 29.7 -10.95 28.25 L-11.2 28.95 -12.7 31.55 Q-13.1 32.25 -13.9 32.5 L-15.45 32.3 -18.05 30.8 Q-19.15 30.1 -19.0 28.8 L-19.0 24.4 -18.95 24.6 Q-18.75 25.4 -18.05 25.8 L-15.45 27.3 -13.9 27.5 Q-13.1 27.25 -12.7 26.55 L-11.2 23.95 -10.95 23.25 Q-7.25 24.8 -3.35 25.3 L-3.5 26.05 -3.5 29.05 Q-3.5 29.9 -2.9 30.45 -2.3 31.05 -1.5 31.05 L1.5 31.05 Q2.35 31.05 2.95 30.45 3.5 29.9 3.5 29.05 L3.5 26.05 3.4 25.3 Q7.35 24.8 11.0 23.25 L11.25 23.95 12.75 26.55 Q13.15 27.25 13.95 27.5 L15.5 27.3 18.05 25.8 Q18.8 25.4 19.0 24.6 L19.05 24.35 M-18.8 23.15 L-22.35 19.3 -22.9 19.8 -25.5 21.3 -27.0 21.5 Q-27.85 21.3 -28.25 20.55 L-29.75 17.95 Q-30.1 17.4 -30.0 16.65 L-30.0 12.25 -29.9 12.65 -29.75 12.95 -28.25 15.55 Q-27.85 16.3 -27.0 16.5 L-25.5 16.3 -22.9 14.8 -22.35 14.3 Q-19.95 17.5 -16.75 19.9 L-17.25 20.45 -17.75 21.4 -18.75 23.05 -18.8 23.15 M-27.1 9.15 L-27.75 5.85 -28.5 6.0 -31.5 6.0 Q-32.35 6.0 -32.9 5.45 -33.5 4.85 -33.5 4.0 L-33.5 -0.95 Q-33.5 -0.15 -32.9 0.45 -32.35 1.0 -31.5 1.0 L-28.5 1.0 -27.75 0.85 Q-27.25 4.8 -25.7 8.5 L-26.4 8.75 -26.75 8.95 -27.1 9.15 M-27.1 -9.1 L-29.0 -10.2 Q-30.15 -10.8 -30.0 -12.2 L-30.0 -16.65 -29.95 -16.4 -29.9 -16.25 Q-29.65 -15.55 -29.0 -15.2 L-26.4 -13.7 -25.7 -13.45 -26.2 -12.2 -27.1 -9.1 M-18.8 -23.15 L-19.05 -29.0 -18.8 -29.9 -18.95 -29.5 -18.9 -28.3 -18.75 -28.0 -17.25 -25.4 -16.75 -24.85 -18.8 -23.15 M-3.45 -30.25 L-3.45 -30.6 -3.35 -30.25 -3.45 -30.25 M3.5 -31.35 L3.55 -30.2 3.4 -30.25 3.5 -31.0 3.5 -31.35 M19.05 -28.65 L19.05 -24.4 18.9 -23.1 16.8 -24.85 17.3 -25.4 18.8 -28.0 18.95 -28.3 19.05 -28.65 M-3.15 -15.1 Q-1.1 -15.1 -0.15 -13.6 0.9 -15.1 2.9 -15.1 L4.25 -14.9 Q9.0 -13.7 9.65 -11.15 L9.75 -11.15 Q11.8 -11.15 14.15 -8.05 L15.35 -6.2 Q15.85 -5.05 15.55 -3.9 17.25 -2.8 17.25 -0.25 17.25 1.85 16.1 3.0 L15.9 3.2 15.95 3.35 Q16.1 4.45 14.85 6.05 L13.45 7.55 Q12.25 8.4 10.2 8.4 L3.45 8.4 0.45 8.2 -0.15 7.85 -0.7 8.2 -3.75 8.4 -10.5 8.4 Q-12.5 8.4 -13.7 7.55 L-15.1 6.05 Q-16.35 4.45 -16.2 3.35 L-16.15 3.2 -16.4 3.0 Q-17.5 1.8 -17.5 -0.25 -17.5 -2.8 -15.8 -3.9 -16.15 -4.9 -15.6 -6.2 L-14.45 -8.05 Q-11.95 -11.15 -10.0 -11.15 L-9.9 -11.15 Q-9.25 -13.7 -4.5 -14.9 L-3.15 -15.1 M7.9 -10.9 L7.95 -10.95 8.05 -11.65 Q7.7 -13.3 3.85 -14.3 1.95 -14.8 1.2 -13.55 0.65 -12.7 0.5 -9.75 0.4 -7.2 -0.15 -7.2 -0.65 -7.2 -0.8 -9.75 -0.95 -12.7 -1.45 -13.55 -2.2 -14.8 -4.1 -14.3 -7.95 -13.3 -8.3 -11.65 L-8.15 -10.95 -8.15 -10.9 -7.95 -10.65 -7.15 -9.9 Q-6.75 -9.45 -6.9 -8.85 L-7.0 -8.6 -7.05 -8.65 Q-7.25 -8.35 -7.55 -8.4 L-7.75 -8.45 -8.6 -9.25 -9.3 -10.2 Q-10.65 -11.25 -13.15 -7.9 -14.85 -5.9 -14.0 -5.05 -13.65 -4.7 -12.9 -4.55 L-11.7 -4.3 Q-11.15 -4.1 -11.0 -3.75 -10.75 -3.3 -11.25 -2.9 L-12.7 -2.95 -14.15 -3.6 Q-15.6 -3.9 -15.75 -1.85 L-15.8 -0.6 -15.75 -0.7 Q-15.6 1.6 -13.75 1.15 L-12.7 0.95 Q-12.1 1.0 -12.15 1.7 L-12.4 2.2 -12.45 2.15 -13.7 2.25 -14.35 2.3 Q-14.8 2.45 -14.3 3.3 L-14.25 3.4 -14.0 3.75 -12.75 5.2 -11.15 5.7 -9.4 5.7 -4.75 5.75 -1.35 5.65 Q-0.95 5.5 -0.8 3.6 -0.7 1.85 -0.15 1.85 0.45 1.85 0.55 3.6 0.7 5.5 1.1 5.65 L4.55 5.75 9.15 5.7 10.9 5.7 Q11.9 5.6 12.5 5.2 L13.75 3.75 Q14.45 2.75 14.25 2.45 L14.1 2.3 13.45 2.25 12.15 2.15 11.9 1.7 Q11.85 1.0 12.45 0.95 L13.5 1.15 Q15.55 1.65 15.6 -1.15 15.6 -3.8 14.1 -3.6 L13.9 -3.6 12.45 -2.95 11.0 -2.9 Q10.5 -3.3 10.75 -3.75 L11.45 -4.3 12.65 -4.55 Q13.35 -4.7 13.7 -5.05 L13.85 -5.25 Q14.35 -6.1 12.9 -7.9 10.4 -11.25 9.05 -10.2 L8.3 -9.25 7.5 -8.45 7.35 -8.4 Q7.0 -8.35 6.8 -8.65 L6.8 -8.6 6.7 -8.85 Q6.5 -9.45 6.9 -9.9 L7.7 -10.65 7.9 -10.9" fill="#46382b" fill-rule="evenodd" stroke="none"/>
    <path d="M20.9 -21.05 L17.45 -24.3 17.3 -24.05 16.8 -23.45 Q19.95 -21.15 22.4 -17.9 L22.95 -18.4 25.55 -19.9 27.1 -20.1 Q27.9 -19.85 28.3 -19.15 L29.95 -16.25 Q30.15 -17.0 29.95 -17.6 L30.05 -16.6 30.0 -16.4 29.95 -16.25 Q29.7 -15.55 29.05 -15.2 L26.45 -13.7 25.75 -13.45 26.75 -10.7 26.2 -12.2 25.75 -12.1 Q27.3 -8.4 27.8 -4.45 L28.55 -4.6 31.55 -4.6 Q32.4 -4.6 32.95 -4.0 33.55 -3.4 33.55 -2.7 L33.55 -0.95 Q33.55 -0.15 32.95 0.45 32.4 1.0 31.55 1.0 L28.55 1.0 27.8 0.85 Q27.3 4.8 25.75 8.5 L26.45 8.75 26.2 8.65 25.75 9.85 26.45 10.1 29.05 11.6 29.95 12.65 29.8 12.95 28.3 15.55 Q27.9 16.3 27.1 16.5 L25.55 16.3 22.95 14.8 22.4 14.3 Q20.0 17.5 16.8 19.9 L17.3 20.45 17.85 21.4 17.45 20.75 16.8 21.25 17.3 21.85 18.95 24.75 19.0 24.6 Q18.8 25.4 18.05 25.8 L15.5 27.3 13.95 27.5 Q13.15 27.25 12.75 26.55 L11.25 23.95 11.0 23.25 Q7.35 24.8 3.4 25.3 L3.5 26.05 3.5 29.05 Q3.5 29.9 2.95 30.45 2.35 31.05 1.5 31.05 L-1.5 31.05 Q-2.3 31.05 -2.9 30.45 -3.5 29.9 -3.5 29.05 L-3.5 26.05 -3.35 25.3 Q-7.25 24.8 -10.95 23.25 L-11.2 23.95 -12.7 26.55 Q-13.1 27.25 -13.9 27.5 L-15.45 27.3 -18.05 25.8 Q-18.75 25.4 -18.95 24.6 L-18.9 24.75 -17.25 21.85 -16.75 21.25 -17.4 20.75 -17.75 21.4 -17.25 20.45 -16.75 19.9 Q-19.95 17.5 -22.35 14.3 L-22.9 14.8 -25.5 16.3 -27.0 16.5 Q-27.85 16.3 -28.25 15.55 L-29.75 12.95 -29.9 12.65 -29.0 11.6 -26.4 10.1 -25.7 9.85 -26.2 8.65 -26.75 8.95 -26.4 8.75 -25.7 8.5 Q-27.25 4.8 -27.75 0.85 L-28.5 1.0 -31.5 1.0 Q-32.35 1.0 -32.9 0.45 -33.5 -0.15 -33.5 -0.95 L-33.5 -2.7 Q-33.5 -3.4 -32.9 -4.0 -32.3 -4.6 -31.5 -4.6 L-28.5 -4.6 -27.75 -4.45 Q-27.25 -8.4 -25.7 -12.1 L-26.2 -12.2 -25.7 -13.45 -26.4 -13.7 -29.0 -15.2 Q-29.65 -15.55 -29.9 -16.25 L-29.95 -16.4 -30.0 -16.65 -29.9 -17.6 Q-30.1 -17.0 -29.9 -16.25 L-28.25 -19.15 -27.0 -20.1 -25.5 -19.9 -22.9 -18.4 -22.35 -17.9 Q-19.9 -21.15 -16.75 -23.45 L-17.25 -24.05 -17.4 -24.3 -20.8 -21.1 -20.65 -21.25 -18.8 -23.15 -16.75 -24.85 -17.25 -25.4 -18.75 -28.0 -18.9 -28.3 -18.05 -29.35 -15.45 -30.85 -13.9 -31.05 -12.7 -30.15 -11.2 -27.55 -10.95 -26.85 Q-7.2 -28.4 -3.35 -28.85 L-3.5 -29.6 -3.5 -30.2 -6.45 -29.65 -6.3 -29.7 -3.45 -30.25 -3.35 -30.25 -3.45 -30.6 -3.5 -31.0 -3.5 -32.7 Q-3.5 -33.4 -2.9 -34.0 -2.3 -34.6 -1.5 -34.6 L1.5 -34.6 Q2.35 -34.6 2.95 -34.0 3.5 -33.45 3.5 -32.7 L3.5 -31.35 3.5 -31.0 3.4 -30.25 3.55 -30.2 5.0 -30.0 5.2 -29.95 3.5 -30.2 3.5 -29.6 3.4 -28.85 Q7.25 -28.4 11.0 -26.85 L11.25 -27.55 12.75 -30.15 Q13.15 -30.85 13.95 -31.05 L15.5 -30.85 18.1 -29.35 18.95 -28.3 18.8 -28.0 17.3 -25.4 16.8 -24.85 18.9 -23.1 20.75 -21.25 20.9 -21.05 M29.95 11.25 L29.95 11.3 29.95 11.25 M20.8 -1.15 L20.9 -2.5 Q20.9 -11.1 14.8 -17.25 8.7 -23.35 0.05 -23.35 -8.6 -23.35 -14.75 -17.25 -20.85 -11.15 -20.85 -2.5 L-20.75 -1.15 Q-20.2 7.05 -14.25 12.7 -8.25 18.35 0.05 18.35 8.3 18.35 14.3 12.7 20.25 7.05 20.8 -1.15 M-18.95 -29.5 L-18.8 -29.9 -18.9 -29.65 -18.95 -29.5" fill="url(#gradient0)" fill-rule="evenodd" stroke="none"/>
    <path d="M-3.15 -15.1 L-4.5 -14.9 Q-9.25 -13.7 -9.9 -11.15 L-10.0 -11.15 Q-11.95 -11.15 -14.45 -8.05 L-15.6 -6.2 Q-16.15 -4.9 -15.8 -3.9 -17.5 -2.8 -17.5 -0.25 -17.5 1.8 -16.4 3.0 L-16.15 3.2 -16.2 3.35 Q-16.35 4.45 -15.1 6.05 L-13.7 7.55 Q-12.5 8.4 -10.5 8.4 L-3.75 8.4 -0.7 8.2 -0.15 7.85 0.45 8.2 3.45 8.4 10.2 8.4 Q12.25 8.4 13.45 7.55 L14.85 6.05 Q16.1 4.45 15.95 3.35 L15.9 3.2 16.1 3.0 Q17.25 1.85 17.25 -0.25 17.25 -2.8 15.55 -3.9 15.85 -5.05 15.35 -6.2 L14.15 -8.05 Q11.8 -11.15 9.75 -11.15 L9.65 -11.15 Q9.0 -13.7 4.25 -14.9 L2.9 -15.1 Q0.9 -15.1 -0.15 -13.6 -1.1 -15.1 -3.15 -15.1 M-20.7 -1.65 L-20.7 -1.7 -20.75 -2.15 Q-20.2 -10.35 -14.25 -16.0 -8.25 -21.65 0.05 -21.65 8.3 -21.65 14.3 -16.0 20.25 -10.35 20.8 -2.15 L20.75 -1.7 20.75 -1.65 Q20.05 6.35 14.1 11.85 8.15 17.35 0.05 17.35 -8.1 17.35 -14.05 11.85 -20.0 6.4 -20.7 -1.65" fill="url(#gradient1)" fill-rule="evenodd" stroke="none"/>
    <path d="M-8.15 -10.9 Q-7.45 -12.25 -4.1 -13.2 -2.2 -13.6 -1.45 -12.45 -0.95 -11.6 -0.8 -8.6 -0.65 -6.1 -0.15 -6.1 0.4 -6.1 0.5 -8.6 0.65 -11.6 1.2 -12.45 1.95 -13.6 3.85 -13.2 7.25 -12.2 7.9 -10.9 L7.7 -10.65 6.9 -9.9 Q6.5 -9.45 6.7 -8.85 L6.8 -8.6 Q6.5 -8.15 6.7 -7.65 6.9 -7.15 7.5 -7.3 L8.3 -8.1 9.05 -9.1 Q10.4 -10.15 12.9 -6.8 L13.85 -5.25 13.7 -5.05 Q13.35 -4.7 12.65 -4.55 L11.45 -4.3 10.75 -3.75 Q10.5 -3.3 11.0 -2.9 10.3 -2.4 11.0 -1.8 L12.45 -1.85 13.9 -2.5 Q14.55 -2.65 15.0 -2.05 15.45 -1.5 15.55 -0.6 15.7 -1.75 15.25 -2.75 14.8 -3.7 14.1 -3.6 15.6 -3.8 15.6 -1.15 15.55 1.65 13.5 1.15 L12.45 0.95 Q11.85 1.0 11.9 1.7 L12.15 2.15 Q11.9 2.3 11.9 2.8 11.95 3.4 12.7 3.4 L13.95 3.4 Q14.4 2.7 14.25 2.45 14.45 2.75 13.75 3.75 L12.5 5.2 Q11.9 5.6 10.9 5.7 L9.15 5.7 4.55 5.75 1.1 5.65 Q0.7 5.5 0.55 3.6 0.45 1.85 -0.15 1.85 -0.7 1.85 -0.8 3.6 -0.95 5.5 -1.35 5.65 L-4.75 5.75 -9.4 5.7 -11.15 5.7 -12.75 5.2 -14.0 3.75 -14.25 3.4 -12.95 3.4 Q-12.2 3.4 -12.15 2.8 -12.15 2.3 -12.4 2.2 L-12.15 1.7 Q-12.1 1.0 -12.7 0.95 L-13.75 1.15 Q-15.6 1.6 -15.75 -0.7 -15.65 -1.55 -15.25 -2.05 -14.8 -2.65 -14.15 -2.5 L-12.7 -1.85 -11.25 -1.8 Q-10.5 -2.4 -11.25 -2.9 -10.75 -3.3 -11.0 -3.75 -11.15 -4.1 -11.7 -4.3 L-12.9 -4.55 Q-13.65 -4.7 -14.0 -5.05 -14.85 -5.9 -13.15 -7.9 -14.6 -6.1 -14.1 -5.25 L-13.15 -6.8 Q-10.65 -10.15 -9.3 -9.1 L-8.6 -8.1 -7.75 -7.3 Q-7.15 -7.15 -6.95 -7.65 -6.75 -8.15 -7.0 -8.6 L-6.9 -8.85 Q-6.75 -9.45 -7.15 -9.9 L-7.95 -10.65 -8.15 -10.9 M-14.15 -3.6 Q-15.05 -3.75 -15.5 -2.75 L-15.75 -1.85 Q-15.6 -3.9 -14.15 -3.6" fill="url(#gradient2)" fill-rule="evenodd" stroke="none"/>
    <path d="M-20.75 -1.15 L-20.85 -2.5 Q-20.85 -11.15 -14.75 -17.25 -8.6 -23.35 0.05 -23.35 8.7 -23.35 14.8 -17.25 20.9 -11.1 20.9 -2.5 L20.8 -1.15 20.75 -1.65 20.75 -1.7 20.8 -2.15 Q20.25 -10.35 14.3 -16.0 8.3 -21.65 0.05 -21.65 -8.25 -21.65 -14.25 -16.0 -20.2 -10.35 -20.75 -2.15 L-20.7 -1.7 -20.7 -1.65 -20.75 -1.15" fill="#482e0c" fill-rule="evenodd" stroke="none"/>
  </g>
  <defs>
    <linearGradient gradientTransform="matrix(0.0, -0.0409, -0.0409, 0.0, 0.05, -2.5)" gradientUnits="userSpaceOnUse" id="gradient0" spreadMethod="pad" x1="-819.2" x2="819.2">
      <stop offset="0.2549019607843137" stop-color="#7e5429"/>
      <stop offset="0.611764705882353" stop-color="#e1a761"/>
      <stop offset="1.0" stop-color="#b48153"/>
    </linearGradient>
    <linearGradient gradientTransform="matrix(0.0, 0.0539, 0.0539, 0.0, 0.05, 21.9)" gradientUnits="userSpaceOnUse" id="gradient1" spreadMethod="pad" x1="-819.2" x2="819.2">
      <stop offset="0.2549019607843137" stop-color="#7e5429"/>
      <stop offset="0.611764705882353" stop-color="#e1a761"/>
      <stop offset="1.0" stop-color="#b48153"/>
    </linearGradient>
    <linearGradient gradientTransform="matrix(0.0, -0.0123, -0.0123, 0.0, -0.15, -4.35)" gradientUnits="userSpaceOnUse" id="gradient2" spreadMethod="pad" x1="-819.2" x2="819.2">
      <stop offset="0.00392156862745098" stop-color="#84785a"/>
      <stop offset="0.11372549019607843" stop-color="#5b4728"/>
      <stop offset="0.8117647058823529" stop-color="#a17245"/>
    </linearGradient>
  </defs>
</svg>
