<?xml version="1.0" encoding="UTF-8" standalone="no"?>
<svg xmlns:ffdec="https://www.free-decompiler.com/flash" xmlns:xlink="http://www.w3.org/1999/xlink" ffdec:objectType="shape" height="72.5px" width="67.0px" xmlns="http://www.w3.org/2000/svg">
  <g transform="matrix(1.0, 0.0, 0.0, 1.0, 33.5, 36.25)">
    <path d="M-12.8 -27.05 L-13.45 -27.8 -13.5 -27.9 -6.25 -30.6 -6.25 -30.4 -5.7 -24.7 -4.7 -24.95 -3.05 -24.95 Q-1.65 -24.7 -0.55 -24.0 L-0.35 -23.9 -0.3 -23.9 0.45 -23.95 0.5 -23.95 0.75 -24.1 Q1.8 -24.75 3.2 -25.05 L5.05 -25.05 5.95 -24.9 6.5 -30.55 6.5 -30.7 13.75 -28.05 13.7 -27.9 13.15 -27.2 6.5 -29.6 5.95 -23.75 5.9 -23.75 5.9 -23.85 4.0 -24.0 3.8 -24.0 3.5 -23.95 Q1.8 -23.75 0.5 -22.85 L0.45 -22.85 -0.35 -22.8 Q-1.7 -23.65 -3.2 -23.85 L-5.65 -23.65 -5.55 -23.65 -5.7 -23.6 -6.25 -29.45 -12.8 -27.05 M-14.75 -18.25 L-14.35 -18.3 -13.75 -18.9 -13.7 -18.9 Q-13.1 -21.45 -10.7 -22.85 L-10.1 -22.0 Q-11.35 -21.5 -12.3 -20.4 -13.35 -19.2 -13.7 -17.8 L-13.75 -17.8 -14.3 -17.3 -15.15 -17.1 Q-17.7 -16.45 -18.95 -14.4 L-23.1 -18.55 -26.45 -12.8 Q-26.7 -12.85 -27.0 -13.0 L-23.1 -19.7 -18.95 -15.55 Q-18.3 -16.5 -17.15 -17.3 L-17.1 -17.35 Q-15.9 -18.05 -14.75 -18.25 M-4.35 -20.8 L-3.95 -20.45 Q-3.55 -20.05 -3.3 -19.35 -3.05 -18.7 -3.2 -17.85 L-3.3 -18.25 Q-3.7 -19.35 -4.75 -19.8 L-6.85 -19.9 Q-8.35 -19.35 -8.6 -17.85 -8.8 -18.8 -8.45 -19.55 -7.9 -20.65 -6.85 -21.0 L-5.45 -21.15 -4.35 -20.8 M-16.2 -13.05 L-15.4 -13.3 -13.65 -13.0 -13.3 -12.75 -12.5 -11.7 Q-12.15 -10.9 -12.3 -10.0 -12.6 -11.2 -13.65 -11.85 -14.65 -12.45 -15.75 -12.15 -16.85 -11.8 -17.45 -10.8 L-17.75 -10.0 Q-17.95 -10.7 -17.6 -11.7 L-16.85 -12.3 -17.05 -12.5 -16.2 -13.05 M-19.65 -6.25 L-19.5 -6.1 -19.25 -5.55 -19.4 -4.85 Q-19.8 -5.4 -20.45 -5.35 -20.95 -6.55 -20.85 -8.05 -20.75 -7.1 -20.45 -6.45 L-19.7 -6.3 -19.65 -6.25 M-21.0 0.25 L-20.25 0.3 -20.3 0.45 -20.4 1.4 -22.15 1.25 -22.15 0.15 -21.0 0.25 M-18.65 -0.9 L-17.5 -1.4 Q-16.35 -1.6 -15.4 -0.9 -14.5 -0.25 -14.25 0.85 L-14.3 1.9 Q-14.55 0.8 -15.5 0.15 -16.4 -0.45 -17.5 -0.3 -19.35 0.0 -19.75 1.9 L-19.8 1.85 Q-19.95 0.7 -19.3 -0.25 L-18.65 -0.9 M-18.4 7.95 L-17.8 7.6 Q-17.35 7.6 -17.05 7.9 L-16.95 7.95 Q-16.4 8.45 -16.8 9.2 L-17.05 9.0 Q-17.35 8.7 -17.8 8.7 -18.25 8.75 -18.5 9.1 -19.55 8.55 -20.4 7.45 -21.2 6.4 -21.45 5.35 L-21.1 5.15 Q-20.2 7.1 -18.5 8.0 L-18.4 7.95 M-12.6 9.55 Q-12.0 9.05 -11.1 8.95 -10.05 8.9 -9.2 9.5 L-9.1 9.6 Q-7.8 10.65 -8.15 12.3 -8.35 11.35 -9.1 10.7 -10.0 10.0 -11.1 10.05 -12.25 10.15 -13.0 11.05 L-13.6 12.3 Q-13.85 11.0 -13.0 9.95 L-12.6 9.55 M-10.95 17.55 L-8.5 17.9 -7.8 17.8 Q-7.8 17.35 -7.45 17.0 L-6.7 16.75 Q-6.15 16.75 -5.85 17.05 L-5.65 17.75 Q-5.55 18.0 -5.75 18.4 -5.95 17.85 -6.7 17.85 -7.7 17.85 -7.8 18.85 L-9.85 18.9 Q-11.5 18.6 -12.4 17.9 L-12.0 17.05 -10.95 17.55 M-3.9 19.9 L-3.8 19.95 -2.35 20.5 -1.6 20.6 -1.2 19.05 Q-0.35 19.6 0.5 19.6 1.45 19.6 2.15 19.05 L2.55 20.6 3.4 20.5 4.65 20.0 5.1 19.8 Q6.0 19.3 6.55 18.6 6.45 19.1 6.75 19.5 5.65 20.95 3.65 21.5 L2.85 21.6 2.9 21.65 2.55 21.7 2.1 19.85 Q1.4 20.25 0.5 20.25 -0.35 20.25 -1.1 19.85 L-1.6 21.7 -1.85 21.65 -1.85 21.6 -2.7 21.5 Q-4.6 20.95 -5.75 19.5 -5.55 19.1 -5.65 18.85 L-5.75 18.4 Q-5.1 19.3 -3.9 19.9 M-1.1 13.55 Q-0.45 12.95 0.5 12.95 1.45 12.95 2.15 13.55 L2.5 13.8 Q3.3 14.6 3.3 15.75 L3.2 16.3 Q3.0 15.35 2.3 14.7 1.5 14.1 0.5 14.1 -0.55 14.1 -1.25 14.7 -2.05 15.35 -2.25 16.3 L-2.3 15.75 Q-2.3 14.6 -1.5 13.8 L-1.1 13.55 M6.8 16.95 L6.9 16.9 8.35 16.95 8.7 17.55 9.3 17.7 11.85 17.35 12.9 16.8 13.3 17.7 Q12.25 18.45 10.8 18.7 L8.7 18.55 8.35 18.05 6.9 18.0 6.7 18.25 Q6.25 17.5 6.8 16.95 M10.3 9.2 Q11.1 8.65 12.1 8.7 12.8 8.75 13.4 9.2 L13.9 9.7 Q14.8 10.7 14.5 12.05 L13.9 10.8 Q13.2 9.95 12.1 9.8 10.9 9.75 10.05 10.5 9.3 11.0 9.1 12.05 8.7 10.45 10.05 9.4 L10.3 9.2 M17.7 7.7 L17.85 7.6 18.6 7.4 19.2 7.6 19.25 7.6 Q20.85 6.65 21.75 4.85 L22.15 5.0 21.1 7.05 Q20.25 8.15 19.25 8.7 L18.6 8.5 Q17.95 8.4 17.55 9.0 L17.45 8.25 Q17.5 7.9 17.7 7.7 M16.0 -1.2 L16.1 -1.3 Q17.05 -1.95 18.2 -1.75 L19.25 -1.3 20.0 -0.6 Q20.65 0.35 20.45 1.45 L20.45 1.5 Q20.25 0.7 19.65 0.15 19.05 -0.55 18.2 -0.65 17.1 -0.85 16.15 -0.2 15.25 0.4 15.0 1.5 14.85 1.1 14.95 0.5 15.15 -0.6 16.0 -1.2 M21.0 0.15 L20.95 -0.1 21.75 -0.15 22.85 -0.25 22.85 0.85 21.1 1.0 21.0 0.15 M13.8 -13.1 L14.1 -13.3 Q14.95 -13.75 15.9 -13.65 L16.65 -13.35 17.45 -12.8 17.3 -12.65 18.0 -12.05 Q18.4 -11.2 18.2 -10.3 L17.9 -11.15 Q17.3 -12.15 16.25 -12.5 L14.1 -12.2 Q12.95 -11.5 12.8 -10.3 12.55 -11.2 12.95 -12.05 L13.8 -13.1 M4.2 -20.6 L4.6 -20.9 5.7 -21.3 7.1 -21.15 Q8.15 -20.8 8.7 -19.75 9.05 -18.9 8.85 -18.0 8.6 -19.5 7.1 -20.05 L5.0 -19.95 Q3.95 -19.45 3.55 -18.4 L3.45 -17.95 Q3.3 -18.7 3.55 -19.5 3.8 -20.2 4.2 -20.6 M14.6 -17.55 L13.9 -18.05 Q13.5 -19.4 12.5 -20.55 11.5 -21.65 10.35 -22.15 L10.95 -23.0 Q13.25 -21.6 13.9 -19.2 L14.6 -18.7 14.6 -18.65 15.0 -18.55 Q16.25 -18.45 17.45 -17.75 18.7 -16.9 19.4 -15.85 L23.55 -19.95 27.4 -13.3 26.85 -13.15 23.55 -18.85 19.4 -14.75 Q18.15 -16.7 15.55 -17.4 L14.6 -17.65 14.6 -17.55 M25.0 -0.35 L29.7 -0.8 29.7 -0.65 29.55 0.3 23.9 0.8 23.9 -0.3 25.0 -0.35 M-29.0 -0.25 L-29.05 -0.4 -24.35 0.0 -23.2 0.1 -23.2 1.2 -28.85 0.7 -29.0 -0.25 M21.25 -8.4 Q21.35 -6.9 20.95 -5.75 20.55 -5.7 20.25 -5.45 L20.0 -5.1 19.95 -5.1 Q19.5 -5.95 20.25 -6.55 20.55 -6.8 20.95 -6.85 L21.25 -8.4 M18.2 10.55 L18.25 10.6 Q18.35 11.75 17.75 13.05 17.3 14.3 16.5 14.95 L14.95 13.85 13.95 15.2 12.95 15.8 12.5 14.8 Q13.35 14.65 13.95 14.1 L14.35 13.7 14.95 12.75 16.5 13.85 Q17.75 12.7 18.2 10.55 M-17.75 -14.3 L-16.85 -13.4 -17.45 -12.95 -18.2 -13.65 -17.75 -14.3 M-12.05 16.0 L-13.05 15.45 -14.05 14.15 -15.6 15.25 -16.85 13.3 Q-17.4 12.05 -17.35 10.85 L-17.3 10.8 Q-16.8 12.95 -15.6 14.15 L-14.05 13.05 -13.45 13.95 -12.65 14.95 -11.75 15.45 -12.05 16.0 M-2.15 22.7 L-1.85 22.7 -3.05 27.25 -3.35 27.25 -2.15 22.7 M4.05 27.25 L2.85 22.7 3.1 22.7 4.35 27.25 4.05 27.25" fill="#fffdad" fill-rule="evenodd" stroke="none"/>
    <path d="M13.7 -27.9 L13.75 -28.05 6.5 -30.7 6.5 -30.55 5.5 -30.9 5.05 -25.05 3.2 -25.05 Q1.8 -24.75 0.75 -24.1 L0.45 -23.95 -0.3 -23.9 -0.55 -24.0 Q-1.65 -24.7 -3.05 -24.95 L-4.7 -24.95 -5.25 -30.8 -6.25 -30.4 -6.25 -30.6 -13.5 -27.9 -13.45 -27.8 -15.2 -27.2 -11.7 -22.2 Q-13.85 -20.65 -14.65 -18.35 L-14.75 -18.25 Q-15.9 -18.05 -17.1 -17.35 L-17.15 -17.3 Q-18.25 -16.75 -19.05 -15.9 L-23.35 -20.2 -28.65 -11.0 -22.8 -9.45 Q-23.5 -7.0 -22.55 -4.6 L-22.6 -4.15 Q-24.1 -2.4 -24.35 0.0 L-29.05 -0.4 -29.0 -0.25 -30.4 -0.35 -28.55 10.05 -23.05 7.5 Q-22.0 9.8 -19.8 11.05 L-19.5 11.45 Q-19.5 13.8 -18.1 15.8 L-23.05 19.35 -15.0 26.1 -12.4 20.6 Q-10.85 21.4 -9.05 21.4 L-7.6 21.2 -7.1 21.4 Q-5.55 23.2 -3.25 23.8 L-4.8 29.7 5.75 29.7 4.2 23.8 Q6.7 23.2 8.25 21.2 L8.75 21.0 9.95 21.1 Q11.7 21.1 13.3 20.4 L15.9 25.85 23.95 19.05 19.0 15.6 Q20.55 13.55 20.45 11.0 L20.65 10.55 Q22.65 9.4 23.75 7.1 L29.25 9.65 31.05 -0.75 29.7 -0.65 29.7 -0.8 25.0 -0.35 Q24.8 -2.85 23.15 -4.7 L23.05 -5.2 Q23.9 -7.4 23.2 -9.7 L29.05 -11.3 23.8 -20.5 19.5 -16.2 17.45 -17.75 Q16.25 -18.45 15.0 -18.55 L14.8 -18.75 Q14.0 -21.0 11.95 -22.35 L15.45 -27.3 13.7 -27.9 M-4.35 -20.8 L-4.4 -21.5 -4.15 -21.5 -2.0 -21.05 -1.8 -20.55 Q-1.15 -19.35 0.2 -19.35 L0.9 -19.45 Q2.15 -19.9 2.35 -21.25 L4.4 -21.6 4.65 -21.6 4.6 -20.9 4.2 -20.6 Q3.05 -19.95 2.5 -18.55 2.0 -17.15 2.6 -15.6 3.35 -14.1 4.85 -13.6 L6.15 -13.35 Q7.45 -13.35 8.4 -14.05 9.4 -14.75 9.8 -15.9 10.35 -17.45 9.65 -18.95 L10.1 -19.6 Q11.15 -18.85 11.7 -17.75 L11.5 -17.25 Q11.3 -16.45 11.75 -15.7 12.15 -14.9 12.9 -14.65 L13.65 -14.55 Q14.4 -14.55 15.1 -15.1 16.1 -14.8 17.15 -13.85 L16.65 -13.35 15.9 -13.65 Q14.95 -13.75 14.1 -13.3 L13.8 -13.1 13.55 -13.0 Q12.2 -12.15 11.75 -10.6 11.3 -9.0 12.15 -7.65 13.25 -5.7 15.5 -5.7 16.45 -5.7 17.45 -6.25 18.85 -7.0 19.25 -8.6 L19.25 -8.65 20.05 -8.9 Q20.35 -7.55 20.05 -6.4 L19.6 -6.15 Q18.95 -5.7 18.75 -4.85 18.6 -4.0 19.0 -3.3 19.65 -2.2 20.85 -2.2 L20.95 -2.2 Q21.55 -1.3 21.75 -0.15 L20.95 -0.1 21.0 0.15 20.95 0.15 20.85 0.0 Q20.25 -0.9 19.25 -1.3 L18.2 -1.75 Q17.05 -1.95 16.1 -1.3 L16.0 -1.2 15.25 -0.7 Q14.2 0.2 13.9 1.55 13.65 3.2 14.5 4.5 15.45 5.85 17.05 6.1 L17.7 6.15 Q19.05 6.15 20.0 5.4 L20.75 5.7 19.2 7.6 18.6 7.4 17.85 7.6 17.7 7.7 17.1 8.05 Q16.45 8.6 16.35 9.3 16.05 10.65 17.15 11.45 17.0 12.65 16.35 13.7 L15.65 13.2 15.65 13.15 Q15.8 11.5 14.8 10.25 14.2 9.55 13.4 9.2 12.8 8.75 12.1 8.7 11.1 8.65 10.3 9.2 9.75 9.45 9.3 9.8 8.1 10.85 7.95 12.5 7.75 14.1 8.8 15.3 9.75 16.5 11.5 16.7 L11.85 17.35 9.3 17.7 9.15 17.45 Q8.75 17.15 8.35 16.95 L6.9 16.9 6.8 16.95 6.2 17.35 Q5.2 18.1 5.5 19.45 L5.1 19.8 4.65 20.0 3.4 20.5 3.15 19.85 Q4.4 18.75 4.4 17.0 4.4 15.4 3.3 14.3 2.75 13.75 2.15 13.55 1.45 12.95 0.5 12.95 -0.45 12.95 -1.1 13.55 -1.7 13.75 -2.25 14.3 -3.4 15.4 -3.4 17.0 -3.4 18.6 -2.2 19.85 L-2.35 20.5 -3.8 19.95 -3.9 19.9 -4.5 19.4 -4.5 18.9 Q-4.6 18.05 -5.25 17.5 L-5.85 17.05 Q-6.15 16.75 -6.7 16.75 L-7.45 17.0 -8.5 17.9 -10.95 17.55 -10.6 16.9 Q-8.95 16.8 -7.9 15.5 -6.85 14.3 -7.0 12.7 -7.2 11.0 -8.4 10.05 L-9.2 9.5 Q-10.05 8.9 -11.1 8.95 -12.0 9.05 -12.6 9.55 L-13.85 10.55 Q-14.9 11.75 -14.75 13.35 L-14.75 13.45 -15.4 13.9 Q-16.1 12.85 -16.25 11.6 L-15.9 11.2 Q-15.5 10.5 -15.6 9.65 -15.7 8.8 -16.3 8.25 L-16.95 7.95 -17.05 7.9 Q-17.35 7.6 -17.8 7.6 L-18.4 7.95 -18.5 7.95 -20.05 6.1 -19.35 5.8 Q-18.3 6.55 -17.05 6.55 L-16.35 6.5 Q-14.7 6.15 -13.85 4.9 -12.95 3.55 -13.2 1.95 -13.45 0.6 -14.55 -0.35 L-15.4 -0.9 Q-16.35 -1.6 -17.5 -1.4 L-18.65 -0.9 Q-19.55 -0.55 -20.25 0.4 L-20.25 0.45 -20.3 0.45 -20.25 0.3 -21.0 0.25 Q-20.8 -0.9 -20.25 -1.9 L-19.7 -2.0 Q-18.9 -2.25 -18.45 -2.95 -18.0 -3.7 -18.15 -4.45 -18.4 -5.8 -19.5 -6.1 L-19.65 -6.25 Q-19.9 -7.45 -19.65 -8.55 L-18.85 -8.35 -18.8 -8.3 Q-18.35 -6.65 -17.05 -5.9 -16.1 -5.4 -15.1 -5.4 -12.75 -5.4 -11.7 -7.35 -10.9 -8.65 -11.35 -10.25 -11.65 -11.75 -13.1 -12.65 L-13.3 -12.75 -13.65 -13.0 -15.4 -13.3 -16.2 -13.05 -16.7 -13.55 Q-15.95 -14.35 -14.6 -14.8 L-14.1 -14.55 -13.2 -14.35 Q-11.95 -14.35 -11.35 -15.4 -10.7 -16.5 -11.4 -17.7 L-9.85 -19.5 -9.4 -18.85 -9.45 -18.75 Q-10.1 -17.35 -9.55 -15.8 -9.1 -14.65 -8.1 -13.9 -7.1 -13.2 -5.9 -13.2 L-4.6 -13.5 Q-3.05 -14.05 -2.35 -15.45 -1.7 -16.9 -2.25 -18.45 -2.8 -19.8 -3.95 -20.45 L-4.35 -20.8 M-0.05 -33.75 Q13.5 -33.75 23.25 -24.35 32.95 -14.95 33.45 -1.55 32.95 11.9 23.25 21.35 13.5 30.75 -0.05 30.75 -13.55 30.75 -23.3 21.35 -32.95 11.9 -33.45 -1.55 -32.95 -14.95 -23.3 -24.35 -13.55 -33.75 -0.05 -33.75" fill="url(#gradient0)" fill-rule="evenodd" stroke="none"/>
    <path d="M-13.45 -27.8 L-12.8 -27.05 -10.1 -23.1 -10.7 -22.85 Q-13.1 -21.45 -13.7 -18.9 L-13.75 -18.9 -14.35 -18.3 -14.75 -18.25 -14.65 -18.35 Q-13.85 -20.65 -11.7 -22.2 L-15.2 -27.2 -13.45 -27.8 M-5.55 -23.65 L-5.65 -23.65 -3.2 -23.85 Q-1.9 -23.65 -0.95 -23.05 -1.05 -22.65 -0.8 -22.4 L-0.25 -21.85 0.5 -21.8 Q0.95 -21.95 1.1 -22.35 1.35 -22.8 1.2 -23.15 2.25 -23.75 3.5 -23.95 L3.8 -24.0 4.0 -24.0 5.9 -23.85 5.9 -23.75 5.75 -22.7 5.9 -22.7 5.75 -21.9 7.3 -21.75 Q8.05 -21.5 8.7 -20.85 L9.75 -22.4 11.65 -21.05 Q12.55 -20.05 12.95 -18.9 L12.7 -18.45 12.65 -18.3 Q12.5 -17.95 12.7 -17.45 12.95 -17.1 13.3 -17.0 13.7 -16.85 14.05 -17.0 L14.6 -17.55 14.6 -17.65 15.55 -17.4 Q17.6 -16.7 18.65 -15.1 L18.15 -14.65 17.3 -13.75 17.9 -13.25 18.45 -12.6 Q18.9 -11.8 18.9 -11.0 L20.7 -11.5 Q21.45 -10.2 21.25 -8.4 L20.95 -6.85 Q20.55 -6.8 20.25 -6.55 19.5 -5.95 19.95 -5.1 L20.0 -5.1 Q20.5 -4.25 21.35 -4.75 22.2 -3.85 22.6 -2.5 23.0 -1.3 22.85 -0.25 L21.75 -0.15 Q21.55 -1.3 20.95 -2.2 L20.85 -2.2 Q19.65 -2.2 19.0 -3.3 18.6 -4.0 18.75 -4.85 18.95 -5.7 19.6 -6.15 L20.05 -6.4 Q20.35 -7.55 20.05 -8.9 L19.25 -8.65 19.25 -8.6 Q18.85 -7.0 17.45 -6.25 16.45 -5.7 15.5 -5.7 13.25 -5.7 12.15 -7.65 11.3 -9.0 11.75 -10.6 12.2 -12.15 13.55 -13.0 L13.8 -13.1 12.95 -12.05 Q12.55 -11.2 12.8 -10.3 L13.05 -9.5 Q13.7 -8.5 14.8 -8.2 15.9 -7.9 16.9 -8.5 17.95 -9.05 18.2 -10.3 18.4 -11.2 18.0 -12.05 L17.9 -12.25 17.45 -12.8 16.65 -13.35 17.15 -13.85 Q16.1 -14.8 15.1 -15.1 14.4 -14.55 13.65 -14.55 L12.9 -14.65 Q12.15 -14.9 11.75 -15.7 11.3 -16.45 11.5 -17.25 L11.7 -17.75 Q11.15 -18.85 10.1 -19.6 L9.65 -18.95 Q10.35 -17.45 9.8 -15.9 9.4 -14.75 8.4 -14.05 7.45 -13.35 6.15 -13.35 L4.85 -13.6 Q3.35 -14.1 2.6 -15.6 2.0 -17.15 2.5 -18.55 3.05 -19.95 4.2 -20.6 3.8 -20.2 3.55 -19.5 3.3 -18.7 3.45 -17.95 3.7 -16.4 5.2 -15.9 L7.3 -16.05 Q8.35 -16.5 8.75 -17.55 L8.85 -18.0 Q9.05 -18.9 8.7 -19.75 8.15 -20.8 7.1 -21.15 L5.7 -21.3 4.6 -20.9 4.65 -21.6 4.4 -21.6 2.35 -21.25 Q2.15 -19.9 0.9 -19.45 L0.2 -19.35 Q-1.15 -19.35 -1.8 -20.55 L-2.0 -21.05 -4.15 -21.5 -4.4 -21.5 -4.35 -20.8 -5.45 -21.15 -6.85 -21.0 Q-7.9 -20.65 -8.45 -19.55 -8.8 -18.8 -8.6 -17.85 L-8.5 -17.45 Q-8.1 -16.35 -7.05 -15.85 L-4.95 -15.8 Q-3.45 -16.35 -3.2 -17.85 -3.05 -18.7 -3.3 -19.35 -3.55 -20.05 -3.95 -20.45 -2.8 -19.8 -2.25 -18.45 -1.7 -16.9 -2.35 -15.45 -3.05 -14.05 -4.6 -13.5 L-5.9 -13.2 Q-7.1 -13.2 -8.1 -13.9 -9.1 -14.65 -9.55 -15.8 -10.1 -17.35 -9.45 -18.75 L-9.4 -18.85 -9.85 -19.5 -11.4 -17.7 Q-10.7 -16.5 -11.35 -15.4 -11.95 -14.35 -13.2 -14.35 L-14.1 -14.55 -14.6 -14.8 Q-15.95 -14.35 -16.7 -13.55 L-16.2 -13.05 -17.05 -12.5 -17.45 -11.95 -17.6 -11.7 Q-17.95 -10.7 -17.75 -10.0 -17.6 -8.7 -16.45 -8.15 -15.5 -7.55 -14.35 -7.9 -13.2 -8.15 -12.65 -9.15 L-12.3 -10.0 Q-12.15 -10.9 -12.5 -11.7 L-13.3 -12.75 -13.1 -12.65 Q-11.65 -11.75 -11.35 -10.25 -10.9 -8.65 -11.7 -7.35 -12.75 -5.4 -15.1 -5.4 -16.1 -5.4 -17.05 -5.9 -18.35 -6.65 -18.8 -8.3 L-18.85 -8.35 -19.65 -8.55 Q-19.9 -7.45 -19.65 -6.25 L-19.7 -6.3 -20.45 -6.45 Q-20.75 -7.1 -20.85 -8.05 -20.95 -10.0 -20.3 -11.15 L-18.45 -10.65 -18.0 -12.25 -17.45 -12.95 -16.85 -13.4 -17.75 -14.3 -18.2 -14.75 Q-17.25 -16.35 -15.15 -17.1 L-14.3 -17.3 -14.25 -17.3 -13.7 -16.85 Q-12.8 -16.45 -12.3 -17.25 L-12.3 -17.3 Q-12.0 -17.8 -12.3 -18.4 L-12.7 -18.75 Q-12.3 -19.9 -11.4 -20.9 -10.5 -21.85 -9.5 -22.2 L-8.45 -20.65 -7.05 -21.6 -5.5 -21.8 -5.4 -21.8 -5.5 -22.6 -5.55 -23.65 M13.15 -27.2 L13.7 -27.9 15.45 -27.3 11.95 -22.35 Q14.0 -21.0 14.8 -18.75 L15.0 -18.55 14.6 -18.65 14.6 -18.7 13.9 -19.2 Q13.25 -21.6 10.95 -23.0 10.7 -23.1 10.35 -23.3 L13.15 -27.2 M6.5 -30.55 L5.95 -24.9 5.05 -25.05 5.5 -30.9 6.5 -30.55 M0.75 -24.1 L0.5 -23.95 0.45 -23.95 0.75 -24.1 M-0.3 -23.9 L-0.35 -23.9 -0.55 -24.0 -0.3 -23.9 M-4.7 -24.95 L-5.7 -24.7 -6.25 -30.4 -5.25 -30.8 -4.7 -24.95 M-19.5 -6.1 Q-18.4 -5.8 -18.15 -4.45 -18.0 -3.7 -18.45 -2.95 -18.9 -2.25 -19.7 -2.0 L-20.25 -1.9 Q-20.8 -0.9 -21.0 0.25 L-22.15 0.15 Q-22.3 -0.85 -21.9 -2.15 -21.5 -3.45 -20.75 -4.35 L-20.05 -4.35 -19.4 -4.85 -19.25 -5.55 -19.5 -6.1 M-20.3 0.45 L-20.25 0.45 -20.25 0.4 Q-19.55 -0.55 -18.65 -0.9 L-19.3 -0.25 Q-19.95 0.7 -19.8 1.85 L-19.75 1.9 Q-19.5 3.0 -18.55 3.7 -17.65 4.3 -16.55 4.1 -14.7 3.8 -14.3 1.9 L-14.25 0.85 Q-14.5 -0.25 -15.4 -0.9 L-14.55 -0.35 Q-13.45 0.6 -13.2 1.95 -12.95 3.55 -13.85 4.9 -14.7 6.15 -16.35 6.5 L-17.05 6.55 Q-18.3 6.55 -19.35 5.8 L-20.05 6.1 -18.5 7.95 -18.4 7.95 -18.5 8.0 Q-20.2 7.1 -21.1 5.15 L-21.45 4.25 -20.2 3.7 -20.35 3.05 -20.35 1.95 -20.4 1.4 -20.3 0.45 M-16.95 7.95 L-16.3 8.25 Q-15.7 8.8 -15.6 9.65 -15.5 10.5 -15.9 11.2 L-16.25 11.6 Q-16.1 12.85 -15.4 13.9 L-14.75 13.45 -14.75 13.35 Q-14.9 11.75 -13.85 10.55 L-12.6 9.55 -13.0 9.95 Q-13.85 11.0 -13.6 12.3 -13.35 13.3 -12.65 13.85 -11.75 14.6 -10.6 14.5 -9.5 14.4 -8.75 13.55 L-8.15 12.3 Q-7.8 10.65 -9.1 9.6 L-9.2 9.5 -8.4 10.05 Q-7.2 11.0 -7.0 12.7 -6.85 14.3 -7.9 15.5 -8.95 16.8 -10.6 16.9 L-10.95 17.55 -12.0 17.05 -12.4 16.8 -12.05 16.0 -11.75 15.45 -11.6 15.1 -13.05 14.35 -13.45 13.95 -14.05 13.05 -15.6 14.15 Q-16.8 12.95 -17.3 10.8 L-16.85 10.45 Q-16.4 9.8 -16.8 9.2 -16.4 8.45 -16.95 7.95 M-8.5 17.9 L-7.45 17.0 Q-7.8 17.35 -7.8 17.8 L-8.5 17.9 M-5.85 17.05 L-5.25 17.5 Q-4.6 18.05 -4.5 18.9 L-4.5 19.4 -3.9 19.9 Q-5.1 19.3 -5.75 18.4 -5.55 18.0 -5.65 17.75 L-5.85 17.05 M-2.35 20.5 L-2.2 19.85 Q-3.4 18.6 -3.4 17.0 -3.4 15.4 -2.25 14.3 -1.7 13.75 -1.1 13.55 L-1.5 13.8 Q-2.3 14.6 -2.3 15.75 L-2.25 16.3 Q-2.05 17.25 -1.25 17.9 -0.55 18.5 0.5 18.5 1.5 18.5 2.3 17.9 3.0 17.25 3.2 16.3 L3.3 15.75 Q3.3 14.6 2.5 13.8 L2.15 13.55 Q2.75 13.75 3.3 14.3 4.4 15.4 4.4 17.0 4.4 18.75 3.15 19.85 L3.4 20.5 2.55 20.6 2.15 19.05 2.1 18.75 0.5 19.1 -1.1 18.75 -1.2 19.05 -1.6 20.6 -2.35 20.5 M5.1 19.8 L5.5 19.45 Q5.2 18.1 6.2 17.35 L6.8 16.95 Q6.25 17.5 6.7 18.25 L6.75 18.4 6.55 18.6 Q6.0 19.3 5.1 19.8 M8.35 16.95 Q8.75 17.15 9.15 17.45 L9.3 17.7 8.7 17.55 8.35 16.95 M11.85 17.35 L11.5 16.7 Q9.75 16.5 8.8 15.3 7.75 14.1 7.95 12.5 8.1 10.85 9.3 9.8 9.75 9.45 10.3 9.2 L10.05 9.4 Q8.7 10.45 9.1 12.05 9.15 12.65 9.65 13.3 10.4 14.2 11.5 14.3 12.7 14.35 13.55 13.65 14.35 12.95 14.5 12.05 14.8 10.7 13.9 9.7 L13.4 9.2 Q14.2 9.55 14.8 10.25 15.8 11.5 15.65 13.15 L15.65 13.2 16.35 13.7 Q17.0 12.65 17.15 11.45 16.05 10.65 16.35 9.3 16.45 8.6 17.1 8.05 L17.7 7.7 Q17.5 7.9 17.45 8.25 L17.55 9.0 Q17.9 9.45 18.25 9.5 L18.2 10.55 Q17.75 12.7 16.5 13.85 L14.95 12.75 14.35 13.7 13.95 14.1 Q13.35 14.65 12.5 14.8 L12.95 15.8 13.3 16.55 12.9 16.8 11.85 17.35 M19.2 7.6 L20.75 5.7 20.0 5.4 Q19.05 6.15 17.7 6.15 L17.05 6.1 Q15.45 5.85 14.5 4.5 13.65 3.2 13.9 1.55 14.2 0.2 15.25 -0.7 L16.0 -1.2 Q15.15 -0.6 14.95 0.5 14.85 1.1 15.0 1.5 15.4 3.4 17.2 3.75 18.35 3.95 19.25 3.3 20.2 2.65 20.45 1.5 L20.45 1.45 Q20.65 0.35 20.0 -0.6 L19.25 -1.3 Q20.25 -0.9 20.85 0.0 L20.95 0.15 21.0 0.15 21.1 1.0 20.95 1.0 21.05 1.55 21.05 2.7 20.85 3.3 22.15 3.9 21.75 4.85 Q20.85 6.65 19.25 7.6 L19.2 7.6 M17.45 -17.75 L19.5 -16.2 23.8 -20.5 29.05 -11.3 23.2 -9.7 Q23.9 -7.4 23.05 -5.2 L23.15 -4.7 Q24.8 -2.85 25.0 -0.35 L23.9 -0.3 23.9 -0.45 Q24.05 -1.75 23.6 -3.15 23.05 -4.55 22.05 -5.5 L22.05 -5.8 Q22.5 -7.05 22.35 -8.4 22.5 -9.75 22.15 -10.75 L21.75 -11.75 26.85 -13.15 27.4 -13.3 23.55 -19.95 19.4 -15.85 Q18.7 -16.9 17.45 -17.75 M29.7 -0.65 L31.05 -0.75 29.25 9.65 23.75 7.1 Q22.65 9.4 20.65 10.55 L20.45 11.0 Q20.55 13.55 19.0 15.6 L23.95 19.05 15.9 25.85 13.3 20.4 Q11.7 21.1 9.95 21.1 L8.75 21.0 8.25 21.2 Q6.7 23.2 4.2 23.8 L5.75 29.7 -4.8 29.7 -3.25 23.8 Q-5.55 23.2 -7.1 21.4 L-7.6 21.2 -9.05 21.4 Q-10.85 21.4 -12.4 20.6 L-15.0 26.1 -23.05 19.35 -18.1 15.8 Q-19.5 13.8 -19.5 11.45 L-19.8 11.05 Q-22.0 9.8 -23.05 7.5 L-28.55 10.05 -30.4 -0.35 -29.0 -0.25 -28.85 0.7 -27.7 7.15 -22.4 4.65 Q-22.1 5.95 -21.2 7.15 -20.1 8.45 -18.85 8.95 L-18.85 9.0 Q-18.8 9.45 -18.4 9.7 -18.45 11.1 -17.9 12.55 -17.35 13.9 -16.45 14.75 L-17.1 15.15 -21.25 18.1 -20.5 18.7 -15.35 23.05 -12.9 17.75 Q-11.6 18.75 -9.85 18.9 L-7.8 18.85 -7.4 18.75 -7.4 18.8 -6.55 19.0 Q-5.1 21.0 -2.7 21.5 L-1.85 21.6 -1.85 21.65 -2.15 22.7 -3.35 27.25 -3.05 27.25 4.05 27.25 4.35 27.25 3.1 22.7 2.9 21.65 2.85 21.6 3.65 21.5 Q6.2 21.0 7.65 18.9 L7.7 18.9 Q8.2 18.9 8.5 18.5 L8.7 18.55 10.8 18.7 Q12.55 18.45 13.75 17.5 L16.3 22.85 21.45 18.45 17.4 15.6 18.0 14.9 Q19.6 12.8 19.25 10.45 L19.25 10.35 19.25 9.25 19.3 9.25 19.7 8.5 Q21.0 7.95 21.9 6.7 22.8 5.55 23.1 4.35 L28.4 6.8 29.55 0.3 29.7 -0.65 M-24.35 0.0 Q-24.1 -2.4 -22.6 -4.15 L-22.55 -4.6 Q-23.5 -7.0 -22.8 -9.45 L-28.65 -11.0 -23.35 -20.2 -19.05 -15.9 Q-18.25 -16.75 -17.15 -17.3 -18.3 -16.5 -18.95 -15.55 L-23.1 -19.7 -27.0 -13.0 Q-26.7 -12.85 -26.45 -12.8 L-21.35 -11.45 -21.75 -10.45 -21.95 -8.05 Q-22.05 -6.45 -21.45 -5.1 L-21.45 -5.0 Q-22.4 -4.05 -22.9 -2.7 -23.35 -1.35 -23.2 -0.15 L-23.2 0.1 -24.35 0.0 M-0.05 -33.75 Q-13.55 -33.75 -23.3 -24.35 -32.95 -14.95 -33.45 -1.55 -32.95 11.9 -23.3 21.35 -13.55 30.75 -0.05 30.75 13.5 30.75 23.25 21.35 32.95 11.9 33.45 -1.55 32.95 -14.95 23.25 -24.35 13.5 -33.75 -0.05 -33.75 M0.15 -36.25 Q13.95 -36.15 23.75 -26.3 33.55 -16.5 33.5 -2.65 L33.45 2.9 Q33.4 16.75 23.55 26.55 13.75 36.35 -0.15 36.25 -14.0 36.2 -23.8 26.35 -33.55 16.55 -33.5 2.7 L-33.45 -2.85 Q-33.4 -16.75 -23.55 -26.5 -13.75 -36.3 0.15 -36.25" fill="#784300" fill-rule="evenodd" stroke="none"/>
    <path d="M-12.8 -27.05 L-6.25 -29.45 -5.7 -23.6 -5.55 -23.65 -5.5 -22.6 -5.65 -22.55 -5.5 -21.8 -7.05 -21.6 -8.45 -20.65 -9.5 -22.2 Q-10.5 -21.85 -11.4 -20.9 -12.3 -19.9 -12.7 -18.75 L-12.3 -18.4 -12.7 -17.65 -12.3 -17.25 Q-12.8 -16.45 -13.7 -16.85 L-14.25 -17.3 -14.3 -17.3 -13.75 -17.8 -13.7 -17.8 Q-13.35 -19.2 -12.3 -20.4 -11.35 -21.5 -10.1 -22.0 L-10.7 -22.85 -10.1 -23.1 -12.8 -27.05" fill="url(#gradient1)" fill-rule="evenodd" stroke="none"/>
    <path d="M-5.5 -21.8 L-5.65 -22.55 -5.5 -22.6 -5.4 -21.8 -5.5 -21.8" fill="url(#gradient2)" fill-rule="evenodd" stroke="none"/>
    <path d="M-3.2 -23.85 Q-1.7 -23.65 -0.35 -22.8 L0.45 -22.85 0.5 -22.85 Q1.8 -23.75 3.5 -23.95 2.25 -23.75 1.2 -23.15 1.35 -22.8 1.1 -22.35 0.95 -21.95 0.5 -21.8 L-0.25 -21.85 -0.8 -22.4 Q-1.05 -22.65 -0.95 -23.05 -1.9 -23.65 -3.2 -23.85" fill="url(#gradient3)" fill-rule="evenodd" stroke="none"/>
    <path d="M5.9 -23.75 L5.95 -23.75 6.5 -29.6 13.15 -27.2 10.35 -23.3 Q10.7 -23.1 10.95 -23.0 L10.35 -22.15 Q11.5 -21.65 12.5 -20.55 13.5 -19.4 13.9 -18.05 L14.6 -17.55 14.05 -17.0 Q13.7 -16.85 13.3 -17.0 12.95 -17.1 12.7 -17.45 L12.95 -17.8 12.7 -18.45 12.95 -18.9 Q12.55 -20.05 11.65 -21.05 L9.75 -22.4 8.7 -20.85 Q8.05 -21.5 7.3 -21.75 L5.75 -21.9 5.9 -22.7 5.75 -22.7 5.9 -23.75" fill="url(#gradient4)" fill-rule="evenodd" stroke="none"/>
    <path d="M15.55 -17.4 Q18.15 -16.7 19.4 -14.75 L23.55 -18.85 26.85 -13.15 21.75 -11.75 22.15 -10.75 21.75 -10.65 Q22.3 -9.65 22.35 -8.4 L21.85 -6.4 22.05 -5.8 21.85 -5.3 Q22.15 -4.95 22.05 -4.45 L22.05 -4.4 Q23.65 -2.9 23.9 -0.45 L23.9 -0.3 23.9 0.8 29.55 0.3 28.4 6.8 23.1 4.35 Q22.8 5.55 21.9 6.7 21.0 7.95 19.7 8.5 L19.3 9.25 19.25 9.25 19.25 10.35 19.25 10.45 Q19.1 12.95 17.4 14.45 L18.0 14.9 17.4 15.6 21.45 18.45 16.3 22.85 13.75 17.5 Q12.55 18.45 10.8 18.7 12.25 18.45 13.3 17.7 L12.9 16.8 13.3 16.55 12.95 15.8 13.95 15.2 14.95 13.85 16.5 14.95 Q17.3 14.3 17.75 13.05 18.35 11.75 18.25 10.6 L18.2 10.55 18.25 9.5 Q17.9 9.45 17.55 9.0 17.95 8.4 18.6 8.5 L19.25 8.7 Q20.25 8.15 21.1 7.05 L22.15 5.0 21.75 4.85 22.15 3.9 20.85 3.3 21.05 2.7 21.05 1.55 21.1 1.0 22.85 0.85 22.85 -0.25 Q23.0 -1.3 22.6 -2.5 22.2 -3.85 21.35 -4.75 20.5 -4.25 20.0 -5.1 L20.25 -5.45 Q20.55 -5.7 20.95 -5.75 21.35 -6.9 21.25 -8.4 21.45 -10.2 20.7 -11.5 L18.9 -11.0 Q18.9 -11.8 18.45 -12.6 L17.9 -13.25 18.65 -14.0 18.15 -14.65 18.65 -15.1 Q17.6 -16.7 15.55 -17.4" fill="url(#gradient5)" fill-rule="evenodd" stroke="none"/>
    <path d="M18.15 -14.65 L18.65 -14.0 17.9 -13.25 17.3 -13.75 18.15 -14.65" fill="url(#gradient6)" fill-rule="evenodd" stroke="none"/>
    <path d="M18.0 -12.05 L17.3 -12.65 17.45 -12.8 17.9 -12.25 18.0 -12.05 M-17.6 -11.7 L-17.45 -11.95 -17.05 -12.5 -16.85 -12.3 -17.6 -11.7 M-1.2 19.05 L-1.1 18.75 0.5 19.1 2.1 18.75 2.15 19.05 Q1.45 19.6 0.5 19.6 -0.35 19.6 -1.2 19.05 M-13.45 13.95 L-13.05 14.35 -11.6 15.1 -11.75 15.45 -12.65 14.95 -13.45 13.95" fill="#ffd8af" fill-rule="evenodd" stroke="none"/>
    <path d="M12.8 -10.3 Q12.95 -11.5 14.1 -12.2 L16.25 -12.5 Q17.3 -12.15 17.9 -11.15 L18.2 -10.3 Q17.95 -9.05 16.9 -8.5 15.9 -7.9 14.8 -8.2 13.7 -8.5 13.05 -9.5 L12.8 -10.3" fill="url(#gradient7)" fill-rule="evenodd" stroke="none"/>
    <path d="M22.35 -8.4 Q22.3 -9.65 21.75 -10.65 L22.15 -10.75 Q22.5 -9.75 22.35 -8.4" fill="url(#gradient8)" fill-rule="evenodd" stroke="none"/>
    <path d="M22.05 -5.8 L21.85 -6.4 22.35 -8.4 Q22.5 -7.05 22.05 -5.8" fill="url(#gradient9)" fill-rule="evenodd" stroke="none"/>
    <path d="M12.7 -18.45 L12.95 -17.8 12.7 -17.45 Q12.5 -17.95 12.65 -18.3 L12.7 -18.45" fill="url(#gradient10)" fill-rule="evenodd" stroke="none"/>
    <path d="M8.85 -18.0 L8.75 -17.55 Q8.35 -16.5 7.3 -16.05 L5.2 -15.9 Q3.7 -16.4 3.45 -17.95 L3.55 -18.4 Q3.95 -19.45 5.0 -19.95 L7.1 -20.05 Q8.6 -19.5 8.85 -18.0" fill="url(#gradient11)" fill-rule="evenodd" stroke="none"/>
    <path d="M23.9 -0.45 Q23.65 -2.9 22.05 -4.4 L22.05 -4.45 Q22.15 -4.95 21.85 -5.3 L22.05 -5.8 22.05 -5.5 Q23.05 -4.55 23.6 -3.15 24.05 -1.75 23.9 -0.45" fill="url(#gradient12)" fill-rule="evenodd" stroke="none"/>
    <path d="M15.0 1.5 Q15.25 0.4 16.15 -0.2 17.1 -0.85 18.2 -0.65 19.05 -0.55 19.65 0.15 20.25 0.7 20.45 1.5 20.2 2.65 19.25 3.3 18.35 3.95 17.2 3.75 15.4 3.4 15.0 1.5" fill="url(#gradient13)" fill-rule="evenodd" stroke="none"/>
    <path d="M21.1 1.0 L21.05 1.55 20.95 1.0 21.1 1.0" fill="url(#gradient14)" fill-rule="evenodd" stroke="none"/>
    <path d="M-8.6 -17.85 Q-8.35 -19.35 -6.85 -19.9 L-4.75 -19.8 Q-3.7 -19.35 -3.3 -18.25 L-3.2 -17.85 Q-3.45 -16.35 -4.95 -15.8 L-7.05 -15.85 Q-8.1 -16.35 -8.5 -17.45 L-8.6 -17.85" fill="url(#gradient15)" fill-rule="evenodd" stroke="none"/>
    <path d="M-12.3 -17.25 L-12.7 -17.65 -12.3 -18.4 Q-12.0 -17.8 -12.3 -17.3 L-12.3 -17.25" fill="url(#gradient16)" fill-rule="evenodd" stroke="none"/>
    <path d="M-17.75 -14.3 L-18.2 -13.65 -17.45 -12.95 -18.0 -12.25 -18.45 -10.65 -20.3 -11.15 Q-20.95 -10.0 -20.85 -8.05 -20.95 -6.55 -20.45 -5.35 -19.8 -5.4 -19.4 -4.85 L-20.05 -4.35 -20.75 -4.35 Q-21.5 -3.45 -21.9 -2.15 -22.3 -0.85 -22.15 0.15 L-22.15 1.25 -20.4 1.4 -20.35 1.95 -20.35 3.05 -20.2 3.7 -21.45 4.25 -21.1 5.15 -21.45 5.35 Q-21.2 6.4 -20.4 7.45 -19.55 8.55 -18.5 9.1 -18.25 8.75 -17.8 8.7 -17.35 8.7 -17.05 9.0 L-16.8 9.2 -16.85 9.3 -17.35 9.75 -17.3 10.8 -17.35 10.85 Q-17.4 12.05 -16.85 13.3 L-15.6 15.25 -14.05 14.15 -13.05 15.45 -12.05 16.0 -12.4 16.8 -12.0 17.05 -12.4 17.9 Q-11.5 18.6 -9.85 18.9 -11.6 18.75 -12.9 17.75 L-15.35 23.05 -20.5 18.7 -16.45 15.85 -17.1 15.15 -16.45 14.75 Q-17.35 13.9 -17.9 12.55 -18.45 11.1 -18.4 9.7 -18.8 9.45 -18.85 9.0 L-18.85 8.95 Q-20.1 8.45 -21.2 7.15 -22.1 5.95 -22.4 4.65 L-27.7 7.15 -28.85 0.7 -23.2 1.2 -23.2 0.1 -23.2 -0.15 Q-22.95 -2.4 -21.45 -3.9 L-21.4 -4.8 -21.35 -4.8 -21.45 -5.1 -21.4 -5.9 -21.35 -5.9 Q-21.8 -6.75 -21.95 -8.05 -21.85 -9.4 -21.35 -10.3 L-21.75 -10.45 -21.35 -11.45 -26.45 -12.8 -23.1 -18.55 -18.95 -14.4 Q-17.7 -16.45 -15.15 -17.1 -17.25 -16.35 -18.2 -14.75 L-17.75 -14.3" fill="url(#gradient17)" fill-rule="evenodd" stroke="none"/>
    <path d="M-17.75 -10.0 L-17.45 -10.8 Q-16.85 -11.8 -15.75 -12.15 -14.65 -12.45 -13.65 -11.85 -12.6 -11.2 -12.3 -10.0 L-12.65 -9.15 Q-13.2 -8.15 -14.35 -7.9 -15.5 -7.55 -16.45 -8.15 -17.6 -8.7 -17.75 -10.0" fill="url(#gradient18)" fill-rule="evenodd" stroke="none"/>
    <path d="M-19.75 1.9 Q-19.35 0.0 -17.5 -0.3 -16.4 -0.45 -15.5 0.15 -14.55 0.8 -14.3 1.9 -14.7 3.8 -16.55 4.1 -17.65 4.3 -18.55 3.7 -19.5 3.0 -19.75 1.9" fill="url(#gradient19)" fill-rule="evenodd" stroke="none"/>
    <path d="M-8.15 12.3 L-8.75 13.55 Q-9.5 14.4 -10.6 14.5 -11.75 14.6 -12.65 13.85 -13.35 13.3 -13.6 12.3 L-13.0 11.05 Q-12.25 10.15 -11.1 10.05 -10.0 10.0 -9.1 10.7 -8.35 11.35 -8.15 12.3" fill="url(#gradient20)" fill-rule="evenodd" stroke="none"/>
    <path d="M-2.7 21.5 Q-5.1 21.0 -6.55 19.0 L-7.4 18.8 -7.4 18.75 -7.8 18.85 Q-7.7 17.85 -6.7 17.85 -5.95 17.85 -5.75 18.4 L-5.65 18.85 Q-5.55 19.1 -5.75 19.5 -4.6 20.95 -2.7 21.5" fill="url(#gradient21)" fill-rule="evenodd" stroke="none"/>
    <path d="M-2.25 16.3 Q-2.05 15.35 -1.25 14.7 -0.55 14.1 0.5 14.1 1.5 14.1 2.3 14.7 3.0 15.35 3.2 16.3 3.0 17.25 2.3 17.9 1.5 18.5 0.5 18.5 -0.55 18.5 -1.25 17.9 -2.05 17.25 -2.25 16.3 M-1.85 21.65 L-1.6 21.7 -1.1 19.85 Q-0.35 20.25 0.5 20.25 1.4 20.25 2.1 19.85 L2.55 21.7 2.9 21.65 3.1 22.7 2.85 22.7 4.05 27.25 -3.05 27.25 -1.85 22.7 -2.15 22.7 -1.85 21.65" fill="url(#gradient22)" fill-rule="evenodd" stroke="none"/>
    <path d="M-17.3 10.8 L-17.35 9.75 -16.85 9.3 -16.8 9.2 Q-16.4 9.8 -16.85 10.45 L-17.3 10.8" fill="url(#gradient23)" fill-rule="evenodd" stroke="none"/>
    <path d="M-17.1 15.15 L-16.45 15.85 -20.5 18.7 -21.25 18.1 -17.1 15.15" fill="url(#gradient24)" fill-rule="evenodd" stroke="none"/>
    <path d="M14.5 12.05 Q14.35 12.95 13.55 13.65 12.7 14.35 11.5 14.3 10.4 14.2 9.65 13.3 9.15 12.65 9.1 12.05 9.3 11.0 10.05 10.5 10.9 9.75 12.1 9.8 13.2 9.95 13.9 10.8 L14.5 12.05" fill="url(#gradient25)" fill-rule="evenodd" stroke="none"/>
    <path d="M18.0 14.9 L17.4 14.45 Q19.1 12.95 19.25 10.45 19.6 12.8 18.0 14.9" fill="url(#gradient26)" fill-rule="evenodd" stroke="none"/>
    <path d="M3.65 21.5 Q5.65 20.95 6.75 19.5 6.45 19.1 6.55 18.6 L6.75 18.4 6.7 18.25 6.9 18.0 8.35 18.05 8.7 18.55 8.5 18.5 Q8.2 18.9 7.7 18.9 L7.65 18.9 Q6.2 21.0 3.65 21.5" fill="url(#gradient27)" fill-rule="evenodd" stroke="none"/>
    <path d="M-21.75 -10.45 L-21.35 -10.3 Q-21.85 -9.4 -21.95 -8.05 L-21.75 -10.45" fill="url(#gradient28)" fill-rule="evenodd" stroke="none"/>
    <path d="M-21.45 -5.1 L-21.35 -4.8 -21.4 -4.8 -21.45 -3.9 Q-22.95 -2.4 -23.2 -0.15 -23.35 -1.35 -22.9 -2.7 -22.4 -4.05 -21.45 -5.0 L-21.45 -5.1" fill="url(#gradient29)" fill-rule="evenodd" stroke="none"/>
    <path d="M-21.95 -8.05 Q-21.8 -6.75 -21.35 -5.9 L-21.4 -5.9 -21.45 -5.1 Q-22.05 -6.45 -21.95 -8.05" fill="url(#gradient30)" fill-rule="evenodd" stroke="none"/>
    <path d="M23.65 -26.45 Q33.45 -16.6 33.45 -2.75 L33.45 -1.55 Q32.95 -15.0 23.25 -24.35 13.55 -33.75 -0.05 -33.75 -13.55 -33.75 -23.25 -24.35 -32.95 -15.0 -33.45 -1.55 L-33.5 -2.75 Q-33.5 -16.6 -23.7 -26.45 -13.85 -36.25 -0.05 -36.25 13.85 -36.25 23.65 -26.45" fill="#fffdad" fill-rule="evenodd" stroke="none"/>
  </g>
  <defs>
    <linearGradient gradientTransform="matrix(0.0, -0.0409, -0.0409, 0.0, -0.05, -2.75)" gradientUnits="userSpaceOnUse" id="gradient0" spreadMethod="pad" x1="-819.2" x2="819.2">
      <stop offset="0.2549019607843137" stop-color="#f18c00"/>
      <stop offset="0.611764705882353" stop-color="#fffb34"/>
      <stop offset="1.0" stop-color="#ffba00"/>
    </linearGradient>
    <linearGradient gradientTransform="matrix(0.0, -0.0353, -0.0353, 0.0, -9.9, -1.7)" gradientUnits="userSpaceOnUse" id="gradient1" spreadMethod="pad" x1="-819.2" x2="819.2">
      <stop offset="0.0" stop-color="#ffb53f"/>
      <stop offset="0.13333333333333333" stop-color="#ac5800"/>
      <stop offset="0.4823529411764706" stop-color="#fda500"/>
      <stop offset="0.8941176470588236" stop-color="#ffd300"/>
    </linearGradient>
    <linearGradient gradientTransform="matrix(0.0, -0.0353, -0.0353, 0.0, -5.5, -1.7)" gradientUnits="userSpaceOnUse" id="gradient2" spreadMethod="pad" x1="-819.2" x2="819.2">
      <stop offset="0.00392156862745098" stop-color="#ffa741"/>
      <stop offset="0.06274509803921569" stop-color="#ab5706"/>
      <stop offset="0.8117647058823529" stop-color="#de7f12"/>
    </linearGradient>
    <linearGradient gradientTransform="matrix(0.0, -0.0353, -0.0353, 0.0, 0.15, -1.7)" gradientUnits="userSpaceOnUse" id="gradient3" spreadMethod="pad" x1="-819.2" x2="819.2">
      <stop offset="0.0" stop-color="#ffb53f"/>
      <stop offset="0.13333333333333333" stop-color="#ac5800"/>
      <stop offset="0.4823529411764706" stop-color="#fda500"/>
      <stop offset="0.8941176470588236" stop-color="#ffd300"/>
    </linearGradient>
    <linearGradient gradientTransform="matrix(0.0, -0.0353, -0.0353, 0.0, 10.2, -1.7)" gradientUnits="userSpaceOnUse" id="gradient4" spreadMethod="pad" x1="-819.2" x2="819.2">
      <stop offset="0.0" stop-color="#ffb53f"/>
      <stop offset="0.13333333333333333" stop-color="#ac5800"/>
      <stop offset="0.4823529411764706" stop-color="#fda500"/>
      <stop offset="0.8941176470588236" stop-color="#ffd300"/>
    </linearGradient>
    <linearGradient gradientTransform="matrix(0.0, -0.0353, -0.0353, 0.0, 20.15, -1.7)" gradientUnits="userSpaceOnUse" id="gradient5" spreadMethod="pad" x1="-819.2" x2="819.2">
      <stop offset="0.0" stop-color="#ffb53f"/>
      <stop offset="0.13333333333333333" stop-color="#ac5800"/>
      <stop offset="0.4823529411764706" stop-color="#fda500"/>
      <stop offset="0.8941176470588236" stop-color="#ffd300"/>
    </linearGradient>
    <linearGradient gradientTransform="matrix(0.0, -0.0353, -0.0353, 0.0, 17.95, -1.7)" gradientUnits="userSpaceOnUse" id="gradient6" spreadMethod="pad" x1="-819.2" x2="819.2">
      <stop offset="0.0" stop-color="#ffb53f"/>
      <stop offset="0.13333333333333333" stop-color="#ac5800"/>
      <stop offset="0.4823529411764706" stop-color="#fda500"/>
      <stop offset="0.8941176470588236" stop-color="#ffd300"/>
    </linearGradient>
    <linearGradient gradientTransform="matrix(0.0, -0.0353, -0.0353, 0.0, 15.5, -1.7)" gradientUnits="userSpaceOnUse" id="gradient7" spreadMethod="pad" x1="-819.2" x2="819.2">
      <stop offset="0.0" stop-color="#ffb53f"/>
      <stop offset="0.13333333333333333" stop-color="#ac5800"/>
      <stop offset="0.4823529411764706" stop-color="#fda500"/>
      <stop offset="0.8941176470588236" stop-color="#ffd300"/>
    </linearGradient>
    <linearGradient gradientTransform="matrix(0.0, -0.0353, -0.0353, 0.0, 22.05, -1.7)" gradientUnits="userSpaceOnUse" id="gradient8" spreadMethod="pad" x1="-819.2" x2="819.2">
      <stop offset="0.0" stop-color="#ffb53f"/>
      <stop offset="0.13333333333333333" stop-color="#ac5800"/>
      <stop offset="0.4823529411764706" stop-color="#fda500"/>
      <stop offset="0.8941176470588236" stop-color="#ffd300"/>
    </linearGradient>
    <linearGradient gradientTransform="matrix(0.0, -0.0353, -0.0353, 0.0, 22.1, -0.6)" gradientUnits="userSpaceOnUse" id="gradient9" spreadMethod="pad" x1="-819.2" x2="819.2">
      <stop offset="0.0" stop-color="#ffb53f"/>
      <stop offset="0.13333333333333333" stop-color="#ac5800"/>
      <stop offset="0.4823529411764706" stop-color="#fda500"/>
      <stop offset="0.8941176470588236" stop-color="#ffd300"/>
    </linearGradient>
    <linearGradient gradientTransform="matrix(0.0, -0.0353, -0.0353, 0.0, 12.75, -1.7)" gradientUnits="userSpaceOnUse" id="gradient10" spreadMethod="pad" x1="-819.2" x2="819.2">
      <stop offset="0.00392156862745098" stop-color="#ffa741"/>
      <stop offset="0.06274509803921569" stop-color="#ab5706"/>
      <stop offset="0.8117647058823529" stop-color="#de7f12"/>
    </linearGradient>
    <linearGradient gradientTransform="matrix(0.0, -0.0353, -0.0353, 0.0, 6.15, -1.7)" gradientUnits="userSpaceOnUse" id="gradient11" spreadMethod="pad" x1="-819.2" x2="819.2">
      <stop offset="0.0" stop-color="#ffb53f"/>
      <stop offset="0.13333333333333333" stop-color="#ac5800"/>
      <stop offset="0.4823529411764706" stop-color="#fda500"/>
      <stop offset="0.8941176470588236" stop-color="#ffd300"/>
    </linearGradient>
    <linearGradient gradientTransform="matrix(0.0, -0.0353, -0.0353, 0.0, 22.85, -1.7)" gradientUnits="userSpaceOnUse" id="gradient12" spreadMethod="pad" x1="-819.2" x2="819.2">
      <stop offset="0.0" stop-color="#ffb53f"/>
      <stop offset="0.13333333333333333" stop-color="#ac5800"/>
      <stop offset="0.4823529411764706" stop-color="#fda500"/>
      <stop offset="0.8941176470588236" stop-color="#ffd300"/>
    </linearGradient>
    <linearGradient gradientTransform="matrix(0.0, -0.0353, -0.0353, 0.0, 17.7, -1.7)" gradientUnits="userSpaceOnUse" id="gradient13" spreadMethod="pad" x1="-819.2" x2="819.2">
      <stop offset="0.0" stop-color="#ffb53f"/>
      <stop offset="0.13333333333333333" stop-color="#ac5800"/>
      <stop offset="0.4823529411764706" stop-color="#fda500"/>
      <stop offset="0.8941176470588236" stop-color="#ffd300"/>
    </linearGradient>
    <linearGradient gradientTransform="matrix(0.0, -0.0353, -0.0353, 0.0, 21.05, -0.6)" gradientUnits="userSpaceOnUse" id="gradient14" spreadMethod="pad" x1="-819.2" x2="819.2">
      <stop offset="0.00392156862745098" stop-color="#ffa741"/>
      <stop offset="0.06274509803921569" stop-color="#ab5706"/>
      <stop offset="0.8117647058823529" stop-color="#de7f12"/>
    </linearGradient>
    <linearGradient gradientTransform="matrix(0.0, -0.0353, -0.0353, 0.0, -5.9, -1.7)" gradientUnits="userSpaceOnUse" id="gradient15" spreadMethod="pad" x1="-819.2" x2="819.2">
      <stop offset="0.0" stop-color="#ffb53f"/>
      <stop offset="0.13333333333333333" stop-color="#ac5800"/>
      <stop offset="0.4823529411764706" stop-color="#fda500"/>
      <stop offset="0.8941176470588236" stop-color="#ffd300"/>
    </linearGradient>
    <linearGradient gradientTransform="matrix(0.0, -0.0353, -0.0353, 0.0, -12.45, -1.7)" gradientUnits="userSpaceOnUse" id="gradient16" spreadMethod="pad" x1="-819.2" x2="819.2">
      <stop offset="0.0" stop-color="#ffb53f"/>
      <stop offset="0.13333333333333333" stop-color="#ac5800"/>
      <stop offset="0.4823529411764706" stop-color="#fda500"/>
      <stop offset="0.8941176470588236" stop-color="#ffd300"/>
    </linearGradient>
    <linearGradient gradientTransform="matrix(0.0, -0.0353, -0.0353, 0.0, -19.35, -1.7)" gradientUnits="userSpaceOnUse" id="gradient17" spreadMethod="pad" x1="-819.2" x2="819.2">
      <stop offset="0.0" stop-color="#ffb53f"/>
      <stop offset="0.13333333333333333" stop-color="#ac5800"/>
      <stop offset="0.4823529411764706" stop-color="#fda500"/>
      <stop offset="0.8941176470588236" stop-color="#ffd300"/>
    </linearGradient>
    <linearGradient gradientTransform="matrix(0.0, -0.0353, -0.0353, 0.0, -15.05, -1.7)" gradientUnits="userSpaceOnUse" id="gradient18" spreadMethod="pad" x1="-819.2" x2="819.2">
      <stop offset="0.0" stop-color="#ffb53f"/>
      <stop offset="0.13333333333333333" stop-color="#ac5800"/>
      <stop offset="0.4823529411764706" stop-color="#fda500"/>
      <stop offset="0.8941176470588236" stop-color="#ffd300"/>
    </linearGradient>
    <linearGradient gradientTransform="matrix(0.0, -0.0353, -0.0353, 0.0, -17.05, -1.7)" gradientUnits="userSpaceOnUse" id="gradient19" spreadMethod="pad" x1="-819.2" x2="819.2">
      <stop offset="0.0" stop-color="#ffb53f"/>
      <stop offset="0.13333333333333333" stop-color="#ac5800"/>
      <stop offset="0.4823529411764706" stop-color="#fda500"/>
      <stop offset="0.8941176470588236" stop-color="#ffd300"/>
    </linearGradient>
    <linearGradient gradientTransform="matrix(0.0, -0.0353, -0.0353, 0.0, -10.9, -1.7)" gradientUnits="userSpaceOnUse" id="gradient20" spreadMethod="pad" x1="-819.2" x2="819.2">
      <stop offset="0.0" stop-color="#ffb53f"/>
      <stop offset="0.13333333333333333" stop-color="#ac5800"/>
      <stop offset="0.4823529411764706" stop-color="#fda500"/>
      <stop offset="0.8941176470588236" stop-color="#ffd300"/>
    </linearGradient>
    <linearGradient gradientTransform="matrix(0.0, -0.0353, -0.0353, 0.0, -5.25, -1.7)" gradientUnits="userSpaceOnUse" id="gradient21" spreadMethod="pad" x1="-819.2" x2="819.2">
      <stop offset="0.00392156862745098" stop-color="#ffa741"/>
      <stop offset="0.06274509803921569" stop-color="#ab5706"/>
      <stop offset="0.8117647058823529" stop-color="#de7f12"/>
    </linearGradient>
    <linearGradient gradientTransform="matrix(0.0, -0.0353, -0.0353, 0.0, 0.5, -1.7)" gradientUnits="userSpaceOnUse" id="gradient22" spreadMethod="pad" x1="-819.2" x2="819.2">
      <stop offset="0.0" stop-color="#ffb53f"/>
      <stop offset="0.13333333333333333" stop-color="#ac5800"/>
      <stop offset="0.4823529411764706" stop-color="#fda500"/>
      <stop offset="0.8941176470588236" stop-color="#ffd300"/>
    </linearGradient>
    <linearGradient gradientTransform="matrix(0.0, -0.0353, -0.0353, 0.0, -17.05, -0.6)" gradientUnits="userSpaceOnUse" id="gradient23" spreadMethod="pad" x1="-819.2" x2="819.2">
      <stop offset="0.0" stop-color="#ffb53f"/>
      <stop offset="0.13333333333333333" stop-color="#ac5800"/>
      <stop offset="0.4823529411764706" stop-color="#fda500"/>
      <stop offset="0.8941176470588236" stop-color="#ffd300"/>
    </linearGradient>
    <linearGradient gradientTransform="matrix(0.0, -0.0353, -0.0353, 0.0, -18.85, -1.7)" gradientUnits="userSpaceOnUse" id="gradient24" spreadMethod="pad" x1="-819.2" x2="819.2">
      <stop offset="0.00392156862745098" stop-color="#ffa741"/>
      <stop offset="0.06274509803921569" stop-color="#ab5706"/>
      <stop offset="0.8117647058823529" stop-color="#de7f12"/>
    </linearGradient>
    <linearGradient gradientTransform="matrix(0.0, -0.0353, -0.0353, 0.0, 11.8, -1.7)" gradientUnits="userSpaceOnUse" id="gradient25" spreadMethod="pad" x1="-819.2" x2="819.2">
      <stop offset="0.0" stop-color="#ffb53f"/>
      <stop offset="0.13333333333333333" stop-color="#ac5800"/>
      <stop offset="0.4823529411764706" stop-color="#fda500"/>
      <stop offset="0.8941176470588236" stop-color="#ffd300"/>
    </linearGradient>
    <linearGradient gradientTransform="matrix(0.0, -0.0353, -0.0353, 0.0, 18.35, -0.6)" gradientUnits="userSpaceOnUse" id="gradient26" spreadMethod="pad" x1="-819.2" x2="819.2">
      <stop offset="0.00392156862745098" stop-color="#ffa741"/>
      <stop offset="0.06274509803921569" stop-color="#ab5706"/>
      <stop offset="0.8117647058823529" stop-color="#de7f12"/>
    </linearGradient>
    <linearGradient gradientTransform="matrix(0.0, -0.0353, -0.0353, 0.0, 6.2, -1.7)" gradientUnits="userSpaceOnUse" id="gradient27" spreadMethod="pad" x1="-819.2" x2="819.2">
      <stop offset="0.00392156862745098" stop-color="#ffa741"/>
      <stop offset="0.06274509803921569" stop-color="#ab5706"/>
      <stop offset="0.8117647058823529" stop-color="#de7f12"/>
    </linearGradient>
    <linearGradient gradientTransform="matrix(0.0, -0.0353, -0.0353, 0.0, -21.6, -1.7)" gradientUnits="userSpaceOnUse" id="gradient28" spreadMethod="pad" x1="-819.2" x2="819.2">
      <stop offset="0.00392156862745098" stop-color="#ffa741"/>
      <stop offset="0.06274509803921569" stop-color="#ab5706"/>
      <stop offset="0.8117647058823529" stop-color="#de7f12"/>
    </linearGradient>
    <linearGradient gradientTransform="matrix(0.0, -0.0353, -0.0353, 0.0, -22.3, -1.7)" gradientUnits="userSpaceOnUse" id="gradient29" spreadMethod="pad" x1="-819.2" x2="819.2">
      <stop offset="0.0" stop-color="#ffb53f"/>
      <stop offset="0.13333333333333333" stop-color="#ac5800"/>
      <stop offset="0.4823529411764706" stop-color="#fda500"/>
      <stop offset="0.8941176470588236" stop-color="#ffd300"/>
    </linearGradient>
    <linearGradient gradientTransform="matrix(0.0, -0.0353, -0.0353, 0.0, -21.6, -0.6)" gradientUnits="userSpaceOnUse" id="gradient30" spreadMethod="pad" x1="-819.2" x2="819.2">
      <stop offset="0.00392156862745098" stop-color="#ffa741"/>
      <stop offset="0.06274509803921569" stop-color="#ab5706"/>
      <stop offset="0.8117647058823529" stop-color="#de7f12"/>
    </linearGradient>
  </defs>
</svg>
