<?xml version="1.0" encoding="UTF-8" standalone="no"?>
<svg xmlns:ffdec="https://www.free-decompiler.com/flash" xmlns:xlink="http://www.w3.org/1999/xlink" ffdec:objectType="shape" height="72.5px" width="67.0px" xmlns="http://www.w3.org/2000/svg">
  <g transform="matrix(1.0, 0.0, 0.0, 1.0, 33.5, 36.25)">
    <path d="M2.85 -4.8 L2.8 -5.35 Q2.8 -7.95 4.6 -9.75 6.1 -11.25 8.1 -11.55 L10.0 -11.55 Q12.0 -11.25 13.4 -9.75 15.25 -7.95 15.25 -5.35 L15.25 -4.8 Q15.05 -7.25 13.25 -8.85 11.45 -10.5 9.05 -10.5 6.6 -10.5 4.85 -8.85 3.05 -7.25 2.85 -4.8 M-3.35 -21.15 Q-1.1 -20.75 0.7 -18.95 3.05 -16.65 3.05 -13.25 L3.05 -12.7 Q2.85 -15.85 0.5 -18.0 -1.85 -20.25 -5.05 -20.25 -8.3 -20.25 -10.6 -18.0 -12.95 -15.85 -13.15 -12.7 L-13.15 -13.25 Q-13.15 -16.65 -10.8 -18.95 -9.05 -20.75 -6.75 -21.15 L-5.2 -21.35 -5.05 -21.35 -4.95 -21.35 -3.35 -21.15 M-12.0 0.85 L-11.1 0.9 -9.7 -4.45 Q-7.5 -3.3 -5.05 -3.3 -2.7 -3.3 -0.35 -4.45 L6.15 20.45 5.9 20.45 -0.35 -3.35 Q-2.7 -2.2 -5.05 -2.2 -7.5 -2.2 -9.7 -3.35 L-11.1 2.0 Q-14.2 1.9 -17.7 0.1 -21.3 -1.8 -23.4 -4.5 L-23.35 -4.55 -23.3 -4.6 -23.05 -5.25 Q-20.9 -2.65 -17.5 -0.9 -15.3 0.2 -13.25 0.65 L-12.0 0.85 M-29.15 -6.65 L-29.2 -7.25 Q-29.2 -8.5 -28.35 -9.45 -27.5 -10.25 -26.4 -10.4 L-25.8 -10.4 Q-24.65 -10.25 -23.85 -9.45 -22.95 -8.5 -22.95 -7.25 L-23.0 -6.65 Q-23.25 -7.8 -24.05 -8.55 -24.95 -9.25 -26.1 -9.25 -27.2 -9.25 -28.1 -8.55 -29.0 -7.8 -29.15 -6.65 M25.4 -3.2 Q26.2 -3.15 26.9 -2.45 27.55 -1.75 27.55 -0.75 L27.5 -0.2 26.65 -1.55 Q26.0 -2.1 25.15 -2.1 24.35 -2.1 23.65 -1.6 23.05 -1.1 22.85 -0.25 L22.7 -0.75 Q22.7 -1.75 23.45 -2.45 24.1 -3.15 25.0 -3.2 L25.4 -3.2 M4.25 7.15 L4.05 6.65 5.45 1.35 Q7.1 2.25 9.05 2.25 10.95 2.25 12.6 1.35 L13.7 5.45 14.55 5.4 15.55 5.25 18.5 4.05 Q21.15 2.75 22.85 0.8 L23.1 1.55 Q21.5 3.7 18.75 5.05 16.1 6.5 13.7 6.55 L12.6 2.45 Q10.95 3.35 9.05 3.35 7.1 3.35 5.45 2.45 L4.25 7.15 M33.5 -2.75 L33.45 -1.55 Q33.0 -14.95 23.35 -24.35 13.6 -33.75 0.0 -33.75 -13.55 -33.75 -23.25 -24.35 -33.0 -14.95 -33.4 -1.55 L-33.5 -2.75 Q-33.5 -16.65 -23.7 -26.45 -13.9 -36.25 0.0 -36.25 13.9 -36.25 23.7 -26.45 33.5 -16.65 33.5 -2.75" fill="#d9efff" fill-rule="evenodd" stroke="none"/>
    <path d="M10.0 -11.55 L8.1 -11.55 Q5.55 -11.25 3.75 -9.35 4.15 -10.75 4.15 -12.15 4.15 -15.9 1.45 -18.65 -0.65 -20.75 -3.35 -21.15 L-4.95 -21.35 -5.05 -21.35 -5.2 -21.35 -6.75 -21.15 Q-9.5 -20.75 -11.55 -18.65 -14.25 -15.9 -14.25 -12.15 -14.25 -7.5 -10.5 -4.7 L-12.0 0.85 -13.25 0.65 Q-15.3 0.15 -17.4 -1.05 -20.25 -2.6 -22.15 -4.7 -21.85 -5.4 -21.85 -6.1 -21.85 -7.9 -23.05 -9.1 -24.25 -10.25 -25.8 -10.4 L-26.4 -10.4 Q-27.95 -10.25 -29.1 -9.1 -30.3 -7.9 -30.3 -6.1 -30.3 -4.5 -29.2 -3.3 -28.15 -2.1 -26.55 -1.9 -24.3 1.2 -20.7 3.4 -17.05 5.55 -13.3 6.0 L-17.15 20.45 -17.05 22.65 18.45 22.65 18.5 20.45 15.7 9.8 Q18.5 9.45 21.25 7.85 23.95 6.15 25.65 3.8 26.95 3.6 27.8 2.65 28.65 1.65 28.65 0.35 28.65 -1.1 27.65 -2.15 26.65 -3.15 25.4 -3.2 L25.0 -3.2 Q23.65 -3.15 22.65 -2.15 21.6 -1.1 21.6 0.35 L21.8 1.4 Q20.45 2.9 18.45 4.0 16.95 4.85 15.55 5.25 L14.55 5.4 13.5 1.5 Q16.35 -0.65 16.35 -4.25 16.35 -7.3 14.2 -9.45 12.4 -11.25 10.0 -11.55 M0.4 -4.7 L1.9 -6.1 1.7 -4.25 Q1.7 -0.65 4.55 1.5 L3.3 6.3 0.4 -4.7 M33.45 -1.55 Q33.0 11.9 23.35 21.35 13.6 30.75 0.0 30.75 -13.55 30.75 -23.25 21.35 -33.0 11.9 -33.4 -1.55 -33.0 -14.95 -23.25 -24.35 -13.55 -33.75 0.0 -33.75 13.6 -33.75 23.35 -24.35 33.0 -14.95 33.45 -1.55" fill="url(#gradient0)" fill-rule="evenodd" stroke="none"/>
    <path d="M8.1 -11.55 Q6.1 -11.25 4.6 -9.75 2.8 -7.95 2.8 -5.35 L2.85 -4.8 Q3.05 -2.4 4.85 -0.8 6.6 0.85 9.05 0.85 11.45 0.85 13.25 -0.8 15.05 -2.4 15.25 -4.8 L15.25 -5.35 Q15.25 -7.95 13.4 -9.75 12.0 -11.25 10.0 -11.55 12.4 -11.25 14.2 -9.45 16.35 -7.3 16.35 -4.25 16.35 -0.65 13.5 1.5 L14.55 5.4 13.7 5.45 12.6 1.35 Q10.95 2.25 9.05 2.25 7.1 2.25 5.45 1.35 L4.05 6.65 4.25 7.15 8.1 20.45 17.65 20.45 14.3 7.75 Q17.15 7.65 20.2 6.0 23.35 4.3 25.05 1.65 L25.15 1.65 Q26.0 1.65 26.65 1.15 L27.5 -0.2 27.55 -0.75 Q27.55 -1.75 26.9 -2.45 26.2 -3.15 25.4 -3.2 26.65 -3.15 27.65 -2.15 28.65 -1.1 28.65 0.35 28.65 1.65 27.8 2.65 26.95 3.6 25.65 3.8 23.95 6.15 21.25 7.85 18.5 9.45 15.7 9.8 L18.5 20.45 18.45 22.65 -17.05 22.65 -17.15 20.45 -13.3 6.0 Q-17.05 5.55 -20.7 3.4 -24.3 1.2 -26.55 -1.9 -28.15 -2.1 -29.2 -3.3 -30.3 -4.5 -30.3 -6.1 -30.3 -7.9 -29.1 -9.1 -27.95 -10.25 -26.4 -10.4 -27.5 -10.25 -28.35 -9.45 -29.2 -8.5 -29.2 -7.25 L-29.15 -6.65 Q-29.0 -5.55 -28.1 -4.85 -27.2 -4.15 -26.1 -4.15 L-25.95 -4.15 Q-23.7 -0.65 -19.6 1.65 -15.65 3.8 -11.95 3.9 L-16.25 20.45 5.9 20.45 6.15 20.45 -0.35 -4.45 Q-2.7 -3.3 -5.05 -3.3 -7.5 -3.3 -9.7 -4.45 L-11.1 0.9 -12.0 0.85 -10.5 -4.7 Q-14.25 -7.5 -14.25 -12.15 -14.25 -15.9 -11.55 -18.65 -9.5 -20.75 -6.75 -21.15 -9.05 -20.75 -10.8 -18.95 -13.15 -16.65 -13.15 -13.25 L-13.15 -12.7 Q-12.95 -9.5 -10.6 -7.35 -8.3 -5.1 -5.05 -5.1 -1.85 -5.1 0.5 -7.35 2.85 -9.5 3.05 -12.7 L3.05 -13.25 Q3.05 -16.65 0.7 -18.95 -1.1 -20.75 -3.35 -21.15 -0.65 -20.75 1.45 -18.65 4.15 -15.9 4.15 -12.15 4.15 -10.75 3.75 -9.35 5.55 -11.25 8.1 -11.55 M15.55 5.25 Q16.95 4.85 18.45 4.0 20.45 2.9 21.8 1.4 L21.6 0.35 Q21.6 -1.1 22.65 -2.15 23.65 -3.15 25.0 -3.2 24.1 -3.15 23.45 -2.45 22.7 -1.75 22.7 -0.75 L22.85 -0.25 22.7 0.35 22.85 0.8 Q21.15 2.75 18.5 4.05 L15.55 5.25 M-13.25 0.65 Q-15.3 0.2 -17.5 -0.9 -20.9 -2.65 -23.05 -5.25 L-23.3 -4.6 Q-22.95 -5.55 -23.0 -6.65 L-22.95 -7.25 Q-22.95 -8.5 -23.85 -9.45 -24.65 -10.25 -25.8 -10.4 -24.25 -10.25 -23.05 -9.1 -21.85 -7.9 -21.85 -6.1 -21.85 -5.4 -22.15 -4.7 -20.25 -2.6 -17.4 -1.05 -15.3 0.15 -13.25 0.65 M0.4 -4.7 L3.3 6.3 4.55 1.5 Q1.7 -0.65 1.7 -4.25 L1.9 -6.1 0.4 -4.7 M33.5 -2.75 L33.5 2.8 Q33.5 16.7 23.7 26.5 13.9 36.25 0.0 36.25 -13.8 36.25 -23.7 26.5 -33.5 16.7 -33.5 2.8 L-33.5 -2.75 -33.4 -1.55 Q-33.0 11.9 -23.25 21.35 -13.55 30.75 0.0 30.75 13.6 30.75 23.35 21.35 33.0 11.9 33.45 -1.55 L33.5 -2.75" fill="#3e5153" fill-rule="evenodd" stroke="none"/>
    <path d="M2.85 -4.8 Q3.05 -7.25 4.85 -8.85 6.6 -10.5 9.05 -10.5 11.45 -10.5 13.25 -8.85 15.05 -7.25 15.25 -4.8 15.05 -2.4 13.25 -0.8 11.45 0.85 9.05 0.85 6.6 0.85 4.85 -0.8 3.05 -2.4 2.85 -4.8" fill="url(#gradient1)" fill-rule="evenodd" stroke="none"/>
    <path d="M3.05 -12.7 Q2.85 -9.5 0.5 -7.35 -1.85 -5.1 -5.05 -5.1 -8.3 -5.1 -10.6 -7.35 -12.95 -9.5 -13.15 -12.7 -12.95 -15.85 -10.6 -18.0 -8.3 -20.25 -5.05 -20.25 -1.85 -20.25 0.5 -18.0 2.85 -15.85 3.05 -12.7" fill="url(#gradient2)" fill-rule="evenodd" stroke="none"/>
    <path d="M5.9 20.45 L-16.25 20.45 -11.95 3.9 Q-15.65 3.8 -19.6 1.65 -23.7 -0.65 -25.95 -4.15 L-26.1 -4.15 Q-27.2 -4.15 -28.1 -4.85 -29.0 -5.55 -29.15 -6.65 -29.0 -7.8 -28.1 -8.55 -27.2 -9.25 -26.1 -9.25 -24.95 -9.25 -24.05 -8.55 -23.25 -7.8 -23.0 -6.65 -22.95 -5.55 -23.3 -4.6 L-23.35 -4.55 -23.4 -4.5 Q-21.3 -1.8 -17.7 0.1 -14.2 1.9 -11.1 2.0 L-9.7 -3.35 Q-7.5 -2.2 -5.05 -2.2 -2.7 -2.2 -0.35 -3.35 L5.9 20.45" fill="url(#gradient3)" fill-rule="evenodd" stroke="none"/>
    <path d="M27.5 -0.2 L26.65 1.15 Q26.0 1.65 25.15 1.65 L25.05 1.65 Q23.35 4.3 20.2 6.0 17.15 7.65 14.3 7.75 L17.65 20.45 8.1 20.45 4.25 7.15 5.45 2.45 Q7.1 3.35 9.05 3.35 10.95 3.35 12.6 2.45 L13.7 6.55 Q16.1 6.5 18.75 5.05 21.5 3.7 23.1 1.55 L23.0 0.65 22.85 -0.25 Q23.05 -1.1 23.65 -1.6 24.35 -2.1 25.15 -2.1 26.0 -2.1 26.65 -1.55 L27.5 -0.2" fill="url(#gradient4)" fill-rule="evenodd" stroke="none"/>
    <path d="M22.85 0.8 L22.7 0.35 22.85 -0.25 23.0 0.65 23.1 1.55 22.85 0.8" fill="#ffd8af" fill-rule="evenodd" stroke="none"/>
  </g>
  <defs>
    <linearGradient gradientTransform="matrix(0.0, -0.0409, -0.0409, 0.0, 0.0, -2.75)" gradientUnits="userSpaceOnUse" id="gradient0" spreadMethod="pad" x1="-819.2" x2="819.2">
      <stop offset="0.2549019607843137" stop-color="#749286"/>
      <stop offset="0.611764705882353" stop-color="#d3e7da"/>
      <stop offset="1.0" stop-color="#a2c1c1"/>
    </linearGradient>
    <linearGradient gradientTransform="matrix(0.0, -0.0255, -0.0255, 0.0, 9.05, -0.45)" gradientUnits="userSpaceOnUse" id="gradient1" spreadMethod="pad" x1="-819.2" x2="819.2">
      <stop offset="0.0" stop-color="#c3dccd"/>
      <stop offset="0.13333333333333333" stop-color="#596c71"/>
      <stop offset="0.4666666666666667" stop-color="#5a7674"/>
      <stop offset="0.8941176470588236" stop-color="#9db9a2"/>
    </linearGradient>
    <linearGradient gradientTransform="matrix(0.0, -0.0255, -0.0255, 0.0, -5.05, -0.45)" gradientUnits="userSpaceOnUse" id="gradient2" spreadMethod="pad" x1="-819.2" x2="819.2">
      <stop offset="0.0" stop-color="#c3dccd"/>
      <stop offset="0.13333333333333333" stop-color="#596c71"/>
      <stop offset="0.4666666666666667" stop-color="#5a7674"/>
      <stop offset="0.8941176470588236" stop-color="#9db9a2"/>
    </linearGradient>
    <linearGradient gradientTransform="matrix(0.0, -0.0255, -0.0255, 0.0, -11.65, -0.45)" gradientUnits="userSpaceOnUse" id="gradient3" spreadMethod="pad" x1="-819.2" x2="819.2">
      <stop offset="0.0" stop-color="#c3dccd"/>
      <stop offset="0.13333333333333333" stop-color="#596c71"/>
      <stop offset="0.4666666666666667" stop-color="#5a7674"/>
      <stop offset="0.8941176470588236" stop-color="#9db9a2"/>
    </linearGradient>
    <linearGradient gradientTransform="matrix(0.0, -0.0255, -0.0255, 0.0, 15.85, -0.45)" gradientUnits="userSpaceOnUse" id="gradient4" spreadMethod="pad" x1="-819.2" x2="819.2">
      <stop offset="0.0" stop-color="#c3dccd"/>
      <stop offset="0.13333333333333333" stop-color="#596c71"/>
      <stop offset="0.4666666666666667" stop-color="#5a7674"/>
      <stop offset="0.8941176470588236" stop-color="#9db9a2"/>
    </linearGradient>
  </defs>
</svg>
