<?xml version="1.0" encoding="UTF-8" standalone="no"?>
<svg xmlns:ffdec="https://www.free-decompiler.com/flash" xmlns:xlink="http://www.w3.org/1999/xlink" ffdec:objectType="shape" height="72.5px" width="67.0px" xmlns="http://www.w3.org/2000/svg">
  <g transform="matrix(1.0, 0.0, 0.0, 1.0, 33.5, 36.25)">
    <path d="M-6.45 -21.85 L-6.4 -21.95 Q-3.75 -24.6 0.0 -24.6 3.8 -24.6 6.4 -21.95 9.05 -19.3 9.05 -15.6 L9.0 -14.75 Q8.7 -18.2 6.1 -20.55 3.55 -22.95 0.0 -22.95 -3.5 -22.95 -6.15 -20.55 -8.65 -18.25 -9.0 -14.75 L-9.05 -15.6 Q-9.05 -19.3 -6.45 -21.85 M7.5 0.15 Q10.5 -0.15 13.8 -1.8 15.95 -2.85 17.65 -4.25 L20.0 -6.55 20.45 -5.4 Q18.05 -2.35 14.1 -0.25 10.2 1.75 6.8 1.85 L5.15 -4.15 Q2.8 -2.85 0.0 -2.85 -2.8 -2.85 -5.2 -4.15 L-6.8 1.85 Q-10.2 1.75 -14.1 -0.25 -18.1 -2.35 -20.45 -5.4 L-20.0 -6.55 Q-19.05 -5.35 -17.7 -4.3 -16.0 -2.9 -13.75 -1.8 -10.45 -0.15 -7.5 0.15 L-6.8 0.2 -5.2 -5.8 Q-2.8 -4.5 0.0 -4.5 2.8 -4.5 5.15 -5.8 L6.8 0.2 7.5 0.15 M20.75 -11.1 L20.95 -11.4 Q22.0 -12.35 23.45 -12.35 24.9 -12.35 25.95 -11.4 L26.15 -11.15 Q26.95 -10.15 26.95 -8.9 L26.8 -8.05 Q26.55 -9.2 25.65 -9.95 24.65 -10.7 23.45 -10.7 22.3 -10.7 21.3 -9.95 20.35 -9.2 20.05 -8.05 L19.95 -8.9 Q19.95 -10.15 20.75 -11.1 M-26.15 -11.1 L-25.95 -11.4 Q-24.9 -12.35 -23.45 -12.35 -22.0 -12.35 -20.95 -11.4 L-20.75 -11.15 Q-19.95 -10.15 -19.95 -8.9 -19.95 -8.35 -20.1 -8.05 -20.35 -9.2 -21.25 -9.95 -22.25 -10.7 -23.45 -10.7 -24.65 -10.7 -25.6 -9.95 -26.55 -9.2 -26.85 -8.05 L-26.95 -8.9 Q-26.95 -10.15 -26.15 -11.1 M33.5 -2.75 L33.45 -1.45 Q32.95 -14.9 23.3 -24.35 13.55 -33.75 0.0 -33.75 -13.55 -33.75 -23.3 -24.35 -33.0 -14.9 -33.5 -1.45 L-33.5 -2.75 Q-33.5 -16.6 -23.7 -26.45 -13.8 -36.25 0.0 -36.25 13.9 -36.25 23.7 -26.45 33.5 -16.6 33.5 -2.75" fill="#ffd8af" fill-rule="evenodd" stroke="none"/>
    <path d="M6.4 -21.95 Q3.8 -24.6 0.0 -24.6 -3.75 -24.6 -6.4 -21.95 L-6.45 -21.85 -7.2 -21.25 Q-10.15 -18.3 -10.15 -14.1 -10.15 -11.6 -9.0 -9.4 -7.9 -7.3 -5.95 -5.85 L-7.5 0.15 Q-10.45 -0.15 -13.75 -1.8 -16.0 -2.9 -17.7 -4.3 L-19.15 -5.8 Q-18.85 -6.6 -18.85 -7.4 -18.85 -9.25 -20.2 -10.65 L-20.75 -11.15 -20.95 -11.4 Q-22.0 -12.35 -23.45 -12.35 -24.9 -12.35 -25.95 -11.4 L-26.15 -11.1 -26.7 -10.65 Q-28.05 -9.25 -28.05 -7.4 -28.05 -5.6 -26.85 -4.3 -25.65 -2.95 -23.9 -2.8 -21.4 0.7 -17.3 3.1 -13.2 5.55 -9.05 6.0 L-13.25 22.0 -13.15 24.55 13.3 24.55 13.3 21.7 9.05 6.0 Q13.25 5.55 17.35 3.1 21.45 0.7 23.9 -2.8 25.65 -2.95 26.8 -4.3 28.05 -5.6 28.05 -7.4 28.05 -9.25 26.7 -10.65 L26.15 -11.15 25.95 -11.4 Q24.9 -12.35 23.45 -12.35 22.0 -12.35 20.95 -11.4 L20.75 -11.1 20.2 -10.65 Q18.85 -9.25 18.85 -7.4 18.85 -6.5 19.2 -5.8 L17.65 -4.25 Q15.95 -2.85 13.8 -1.8 10.5 -0.15 7.5 0.15 L5.95 -5.85 Q7.9 -7.3 9.0 -9.4 10.15 -11.6 10.15 -14.1 10.15 -18.3 7.15 -21.25 L6.4 -21.95 M33.45 -1.45 Q32.95 12.0 23.3 21.4 13.55 30.75 0.0 30.75 -13.55 30.75 -23.3 21.4 -33.0 12.0 -33.5 -1.45 -33.0 -14.9 -23.3 -24.35 -13.55 -33.75 0.0 -33.75 13.55 -33.75 23.3 -24.35 32.95 -14.9 33.45 -1.45" fill="url(#gradient0)" fill-rule="evenodd" stroke="none"/>
    <path d="M-6.45 -21.85 Q-9.05 -19.3 -9.05 -15.6 L-9.0 -14.75 Q-8.65 -11.25 -6.15 -8.9 -3.5 -6.5 0.0 -6.5 3.55 -6.5 6.1 -8.9 8.7 -11.25 9.0 -14.75 L9.05 -15.6 Q9.05 -19.3 6.4 -21.95 L7.15 -21.25 Q10.15 -18.3 10.15 -14.1 10.15 -11.6 9.0 -9.4 7.9 -7.3 5.95 -5.85 L7.5 0.15 6.8 0.2 5.15 -5.8 Q2.8 -4.5 0.0 -4.5 -2.8 -4.5 -5.2 -5.8 L-6.8 0.2 -7.5 0.15 -5.95 -5.85 Q-7.9 -7.3 -9.0 -9.4 -10.15 -11.6 -10.15 -14.1 -10.15 -18.3 -7.2 -21.25 L-6.45 -21.85 M17.65 -4.25 L19.2 -5.8 Q18.85 -6.5 18.85 -7.4 18.85 -9.25 20.2 -10.65 L20.75 -11.1 Q19.95 -10.15 19.95 -8.9 L20.05 -8.05 19.95 -7.25 20.0 -6.55 17.65 -4.25 M26.15 -11.15 L26.7 -10.65 Q28.05 -9.25 28.05 -7.4 28.05 -5.6 26.8 -4.3 25.65 -2.95 23.9 -2.8 21.45 0.7 17.35 3.1 13.25 5.55 9.05 6.0 L13.3 21.7 13.3 24.55 -13.15 24.55 -13.25 22.0 -9.05 6.0 Q-13.2 5.55 -17.3 3.1 -21.4 0.7 -23.9 -2.8 -25.65 -2.95 -26.85 -4.3 -28.05 -5.6 -28.05 -7.4 -28.05 -9.25 -26.7 -10.65 L-26.15 -11.1 Q-26.95 -10.15 -26.95 -8.9 L-26.85 -8.05 Q-26.55 -6.9 -25.6 -6.1 -24.65 -5.4 -23.45 -5.4 L-23.3 -5.4 Q-20.8 -1.6 -16.2 0.95 -11.75 3.4 -7.7 3.5 L-8.05 5.15 -12.5 21.95 -12.05 21.95 12.1 21.95 12.55 21.95 8.1 5.15 7.65 3.5 Q11.8 3.4 16.2 0.95 20.8 -1.55 23.35 -5.4 L23.45 -5.4 Q24.65 -5.4 25.65 -6.1 26.6 -6.9 26.8 -8.05 L26.95 -8.9 Q26.95 -10.15 26.15 -11.15 M-20.75 -11.15 L-20.2 -10.65 Q-18.85 -9.25 -18.85 -7.4 -18.85 -6.6 -19.15 -5.8 L-17.7 -4.3 Q-19.05 -5.35 -20.0 -6.55 L-19.95 -7.25 -20.1 -8.05 Q-19.95 -8.35 -19.95 -8.9 -19.95 -10.15 -20.75 -11.15 M33.45 -1.45 L33.5 -2.75 33.5 2.8 Q33.5 16.7 23.7 26.5 13.9 36.25 0.0 36.25 -13.9 36.25 -23.7 26.5 -33.5 16.7 -33.5 2.8 L-33.5 -1.45 Q-33.0 12.0 -23.3 21.4 -13.55 30.75 0.0 30.75 13.55 30.75 23.3 21.4 32.95 12.0 33.45 -1.45" fill="#843a00" fill-rule="evenodd" stroke="none"/>
    <path d="M-9.0 -14.75 Q-8.65 -18.25 -6.15 -20.55 -3.5 -22.95 0.0 -22.95 3.55 -22.95 6.1 -20.55 8.7 -18.2 9.0 -14.75 8.7 -11.25 6.1 -8.9 3.55 -6.5 0.0 -6.5 -3.5 -6.5 -6.15 -8.9 -8.65 -11.25 -9.0 -14.75" fill="url(#gradient1)" fill-rule="evenodd" stroke="none"/>
    <path d="M-20.0 -6.55 L-20.45 -5.4 Q-18.1 -2.35 -14.1 -0.25 -10.2 1.75 -6.8 1.85 L-5.2 -4.15 Q-2.8 -2.85 0.0 -2.85 2.8 -2.85 5.15 -4.15 L6.8 1.85 Q10.2 1.75 14.1 -0.25 18.05 -2.35 20.45 -5.4 L20.0 -6.55 20.45 -7.05 20.05 -8.05 Q20.35 -9.2 21.3 -9.95 22.3 -10.7 23.45 -10.7 24.65 -10.7 25.65 -9.95 26.55 -9.2 26.8 -8.05 26.6 -6.9 25.65 -6.1 24.65 -5.4 23.45 -5.4 L23.35 -5.4 Q20.8 -1.55 16.2 0.95 11.8 3.4 7.65 3.5 L8.1 5.15 7.65 5.15 12.1 21.95 -12.05 21.95 -7.7 5.15 -8.05 5.15 -7.7 3.5 Q-11.75 3.4 -16.2 0.95 -20.8 -1.6 -23.3 -5.4 L-23.45 -5.4 Q-24.65 -5.4 -25.6 -6.1 -26.55 -6.9 -26.85 -8.05 -26.55 -9.2 -25.6 -9.95 -24.65 -10.7 -23.45 -10.7 -22.25 -10.7 -21.25 -9.95 -20.35 -9.2 -20.1 -8.05 L-20.45 -7.05 -20.0 -6.55" fill="url(#gradient2)" fill-rule="evenodd" stroke="none"/>
    <path d="M20.0 -6.55 L19.95 -7.25 20.05 -8.05 20.45 -7.05 20.0 -6.55" fill="url(#gradient3)" fill-rule="evenodd" stroke="none"/>
    <path d="M-8.05 5.15 L-7.7 5.15 -12.05 21.95 -12.5 21.95 -8.05 5.15" fill="url(#gradient4)" fill-rule="evenodd" stroke="none"/>
    <path d="M12.1 21.95 L7.65 5.15 8.1 5.15 12.55 21.95 12.1 21.95" fill="url(#gradient5)" fill-rule="evenodd" stroke="none"/>
    <path d="M-20.1 -8.05 L-19.95 -7.25 -20.0 -6.55 -20.45 -7.05 -20.1 -8.05" fill="url(#gradient6)" fill-rule="evenodd" stroke="none"/>
  </g>
  <defs>
    <linearGradient gradientTransform="matrix(0.0, -0.0408, -0.0408, 0.0, 0.0, -2.75)" gradientUnits="userSpaceOnUse" id="gradient0" spreadMethod="pad" x1="-819.2" x2="819.2">
      <stop offset="0.2549019607843137" stop-color="#af5016"/>
      <stop offset="0.611764705882353" stop-color="#ffc13e"/>
      <stop offset="1.0" stop-color="#de7f12"/>
    </linearGradient>
    <linearGradient gradientTransform="matrix(0.0, -0.0284, -0.0284, 0.0, 0.0, -1.35)" gradientUnits="userSpaceOnUse" id="gradient1" spreadMethod="pad" x1="-819.2" x2="819.2">
      <stop offset="0.00392156862745098" stop-color="#ffa741"/>
      <stop offset="0.06274509803921569" stop-color="#ab5706"/>
      <stop offset="0.8117647058823529" stop-color="#de7f12"/>
    </linearGradient>
    <linearGradient gradientTransform="matrix(0.0, -0.0284, -0.0284, 0.0, 0.0, -1.35)" gradientUnits="userSpaceOnUse" id="gradient2" spreadMethod="pad" x1="-819.2" x2="819.2">
      <stop offset="0.00392156862745098" stop-color="#ffa741"/>
      <stop offset="0.06274509803921569" stop-color="#af5016"/>
      <stop offset="0.8117647058823529" stop-color="#de7f12"/>
    </linearGradient>
    <linearGradient gradientTransform="matrix(0.0, -0.0284, -0.0284, 0.0, 20.25, 0.35)" gradientUnits="userSpaceOnUse" id="gradient3" spreadMethod="pad" x1="-819.2" x2="819.2">
      <stop offset="0.00392156862745098" stop-color="#ffa741"/>
      <stop offset="0.06274509803921569" stop-color="#ab5706"/>
      <stop offset="0.8117647058823529" stop-color="#de7f12"/>
    </linearGradient>
    <linearGradient gradientTransform="matrix(0.0, -0.0284, -0.0284, 0.0, -10.05, -1.35)" gradientUnits="userSpaceOnUse" id="gradient4" spreadMethod="pad" x1="-819.2" x2="819.2">
      <stop offset="0.00392156862745098" stop-color="#ffa741"/>
      <stop offset="0.06274509803921569" stop-color="#ab5706"/>
      <stop offset="0.8117647058823529" stop-color="#de7f12"/>
    </linearGradient>
    <linearGradient gradientTransform="matrix(0.0, -0.0284, -0.0284, 0.0, 10.1, -1.35)" gradientUnits="userSpaceOnUse" id="gradient5" spreadMethod="pad" x1="-819.2" x2="819.2">
      <stop offset="0.00392156862745098" stop-color="#ffa741"/>
      <stop offset="0.06274509803921569" stop-color="#ab5706"/>
      <stop offset="0.8117647058823529" stop-color="#de7f12"/>
    </linearGradient>
    <linearGradient gradientTransform="matrix(0.0, -0.0284, -0.0284, 0.0, -20.2, 0.3)" gradientUnits="userSpaceOnUse" id="gradient6" spreadMethod="pad" x1="-819.2" x2="819.2">
      <stop offset="0.00392156862745098" stop-color="#ffa741"/>
      <stop offset="0.06274509803921569" stop-color="#ab5706"/>
      <stop offset="0.8117647058823529" stop-color="#de7f12"/>
    </linearGradient>
  </defs>
</svg>
