<?xml version="1.0" encoding="UTF-8" standalone="no"?>
<svg xmlns:ffdec="https://www.free-decompiler.com/flash" xmlns:xlink="http://www.w3.org/1999/xlink" ffdec:objectType="shape" height="72.0px" width="67.0px" xmlns="http://www.w3.org/2000/svg">
  <g transform="matrix(1.0, 0.0, 0.0, 1.0, 33.5, 36.0)">
    <path d="M-17.45 -24.35 L-17.3 -24.05 -16.8 -23.5 Q-20.05 -21.05 -22.35 -17.9 L-22.95 -18.4 -25.55 -19.9 -27.05 -20.1 Q-27.85 -19.9 -28.25 -19.15 L-29.9 -16.25 -29.95 -16.4 -30.0 -17.35 -29.9 -17.65 -29.75 -17.9 -29.75 -17.95 -28.25 -20.55 Q-27.85 -21.25 -27.05 -21.5 L-25.55 -21.3 -22.95 -19.8 -22.35 -19.3 -21.9 -19.85 -19.1 -22.9 -18.85 -23.15 -18.15 -23.75 -17.45 -24.35 M-27.3 -8.45 L-26.2 -12.25 -25.75 -12.1 Q-27.3 -8.35 -27.75 -4.45 L-28.5 -4.6 -31.5 -4.6 Q-32.3 -4.6 -32.9 -4.0 -33.5 -3.4 -33.5 -2.7 L-33.5 -4.0 Q-33.5 -4.8 -32.9 -5.4 -32.3 -6.0 -31.5 -6.0 L-28.5 -6.0 -27.75 -5.85 -27.65 -6.65 -27.3 -8.45 M-26.2 8.6 L-25.75 9.85 -26.45 10.1 -29.05 11.6 Q-29.7 12.0 -29.9 12.65 L-29.95 11.45 -29.9 11.3 -29.8 11.15 Q-29.6 10.55 -29.05 10.25 L-27.15 9.15 -26.45 8.75 -26.35 8.7 -26.2 8.6 M-17.45 20.7 L-16.8 21.25 -17.3 21.8 -18.95 24.7 -19.0 24.5 -19.0 24.4 -19.05 24.2 -18.85 23.15 -18.8 23.05 -17.45 20.7 M19.05 23.65 L18.9 24.7 18.8 24.4 17.3 21.8 16.8 21.25 17.45 20.7 18.8 23.05 18.85 23.15 19.05 23.65 M29.9 12.65 Q29.65 11.95 29.05 11.6 L26.45 10.1 25.7 9.85 26.2 8.6 26.4 8.7 26.45 8.75 27.15 9.15 29.05 10.25 Q29.7 10.6 29.95 11.3 L30.0 12.3 29.9 12.65 M33.5 -2.7 Q33.5 -3.4 32.9 -4.0 32.35 -4.6 31.5 -4.6 L28.5 -4.6 27.75 -4.45 Q27.3 -8.4 25.7 -12.1 L26.2 -12.25 27.45 -7.9 27.5 -7.5 27.75 -5.85 28.5 -6.0 31.5 -6.0 Q32.35 -6.0 32.9 -5.4 33.5 -4.8 33.5 -4.0 L33.5 -2.7 M29.95 -16.4 L29.9 -16.25 28.25 -19.15 Q27.85 -19.9 27.05 -20.1 L25.55 -19.9 22.95 -18.4 22.35 -17.9 Q19.85 -21.15 16.8 -23.5 L17.3 -24.05 17.45 -24.35 18.85 -23.15 19.35 -22.7 21.7 -20.15 21.95 -19.8 22.35 -19.3 22.95 -19.8 25.55 -21.3 27.05 -21.5 Q27.85 -21.25 28.25 -20.55 L29.75 -17.95 Q30.1 -17.35 30.0 -16.6 L29.95 -16.4 M18.95 -29.65 L18.9 -28.35 Q18.65 -29.05 18.05 -29.4 L15.45 -30.9 13.95 -31.1 Q13.1 -30.85 12.7 -30.15 L11.2 -27.55 10.95 -26.85 Q7.3 -28.4 3.35 -28.85 L3.5 -29.6 3.5 -30.2 3.5 -30.25 3.35 -30.25 3.5 -31.0 3.5 -30.25 4.35 -30.1 Q7.8 -29.55 10.95 -28.2 L11.2 -28.95 12.7 -31.55 Q13.1 -32.25 13.95 -32.45 L15.45 -32.25 18.05 -30.75 18.5 -30.4 18.95 -29.7 18.95 -29.65 M3.5 -32.7 Q3.5 -33.45 2.9 -34.05 2.35 -34.6 1.5 -34.6 L-1.5 -34.6 Q-2.35 -34.6 -2.9 -34.05 -3.5 -33.45 -3.5 -32.7 L-3.5 -34.0 Q-3.5 -34.8 -2.9 -35.4 -2.3 -36.0 -1.5 -36.0 L1.5 -36.0 Q2.35 -36.0 2.9 -35.4 3.5 -34.8 3.5 -34.0 L3.5 -32.7 M-3.5 -31.0 L-3.35 -30.25 -3.5 -30.25 -3.5 -30.2 -3.5 -29.6 -3.35 -28.85 Q-7.25 -28.4 -11.0 -26.85 L-11.25 -27.55 -12.75 -30.15 Q-13.15 -30.85 -13.95 -31.1 L-15.45 -30.9 -18.05 -29.4 -18.95 -28.35 -19.05 -28.7 -19.0 -29.55 -18.95 -29.7 -18.05 -30.75 -15.45 -32.25 -13.95 -32.45 Q-13.15 -32.25 -12.75 -31.55 L-11.25 -28.95 -11.0 -28.2 -6.1 -29.75 -4.0 -30.15 -3.5 -30.25 -3.5 -31.0 M-20.8 -1.15 L-20.75 -1.65 Q-20.05 6.4 -14.1 11.85 -8.15 17.35 0.0 17.35 8.15 17.35 14.1 11.85 20.0 6.35 20.7 -1.65 L20.8 -1.15 Q20.3 7.05 14.3 12.7 8.25 18.35 0.0 18.35 -8.25 18.35 -14.3 12.7 -20.25 7.05 -20.8 -1.15" fill="#d9efff" fill-rule="evenodd" stroke="none"/>
    <path d="M-29.95 -16.4 L-29.9 -16.25 -28.25 -19.15 Q-27.85 -19.9 -27.05 -20.1 L-25.55 -19.9 -22.95 -18.4 -22.35 -17.9 Q-20.05 -21.05 -16.8 -23.5 L-17.3 -24.05 -17.45 -24.35 -16.8 -24.85 -17.3 -25.45 -18.8 -28.05 -18.95 -28.35 -18.05 -29.4 -15.45 -30.9 -13.95 -31.1 Q-13.15 -30.85 -12.75 -30.15 L-11.25 -27.55 -11.0 -26.85 Q-7.25 -28.4 -3.35 -28.85 L-3.5 -29.6 -3.5 -30.2 -3.35 -30.25 -3.5 -31.0 -3.5 -32.7 Q-3.5 -33.45 -2.9 -34.05 -2.35 -34.6 -1.5 -34.6 L1.5 -34.6 Q2.35 -34.6 2.9 -34.05 3.5 -33.45 3.5 -32.7 L3.5 -31.0 3.35 -30.25 3.5 -30.2 3.5 -29.6 3.35 -28.85 Q7.3 -28.4 10.95 -26.85 L11.2 -27.55 12.7 -30.15 Q13.1 -30.85 13.95 -31.1 L15.45 -30.9 18.05 -29.4 Q18.65 -29.05 18.9 -28.35 L18.95 -29.65 19.0 -29.55 19.0 -28.5 18.8 -28.05 17.3 -25.45 16.8 -24.85 17.45 -24.35 17.3 -24.05 16.8 -23.5 Q19.85 -21.15 22.35 -17.9 L22.95 -18.4 25.55 -19.9 27.05 -20.1 Q27.85 -19.9 28.25 -19.15 L29.9 -16.25 29.95 -16.4 Q29.75 -15.6 29.05 -15.2 L26.45 -13.7 25.7 -13.45 26.2 -12.25 25.7 -12.1 Q27.3 -8.4 27.75 -4.45 L28.5 -4.6 31.5 -4.6 Q32.35 -4.6 32.9 -4.0 33.5 -3.4 33.5 -2.7 L33.5 -0.95 Q33.5 -0.15 32.9 0.4 32.35 1.0 31.5 1.0 L28.5 1.0 27.75 0.85 Q27.3 4.8 25.7 8.5 L26.2 8.6 25.7 9.85 26.45 10.1 29.05 11.6 Q29.65 11.95 29.9 12.65 L29.75 12.95 28.25 15.55 Q27.85 16.25 27.05 16.5 L25.55 16.3 22.95 14.8 22.35 14.3 Q19.8 17.6 16.8 19.85 L17.3 20.45 17.45 20.7 16.8 21.25 17.3 21.8 18.8 24.4 18.9 24.7 19.05 23.65 19.05 24.3 19.0 24.55 Q18.75 25.35 18.05 25.75 L15.45 27.25 13.95 27.45 Q13.1 27.25 12.7 26.55 L11.2 23.95 10.95 23.25 Q7.3 24.8 3.35 25.25 L3.5 26.0 3.5 29.0 Q3.5 29.85 2.9 30.4 2.35 31.0 1.5 31.0 L-1.5 31.0 Q-2.3 31.0 -2.9 30.4 -3.5 29.85 -3.5 29.0 L-3.5 26.0 -3.35 25.25 Q-7.25 24.8 -11.0 23.25 L-11.25 23.95 -12.75 26.55 Q-13.15 27.25 -13.95 27.45 L-15.45 27.25 -18.05 25.75 Q-18.7 25.4 -18.95 24.7 L-17.3 21.8 -16.8 21.25 -17.45 20.7 -17.3 20.45 -16.8 19.85 Q-20.0 17.5 -22.35 14.3 L-22.95 14.8 -25.55 16.3 -27.05 16.5 Q-27.85 16.25 -28.25 15.55 L-29.75 12.95 -29.9 12.65 Q-29.7 12.0 -29.05 11.6 L-26.45 10.1 -25.75 9.85 -26.2 8.6 -25.75 8.5 Q-27.3 4.75 -27.75 0.85 L-28.5 1.0 -31.5 1.0 Q-32.3 1.0 -32.9 0.4 -33.5 -0.15 -33.5 -0.95 L-33.5 -2.7 Q-33.5 -3.4 -32.9 -4.0 -32.3 -4.6 -31.5 -4.6 L-28.5 -4.6 -27.75 -4.45 Q-27.3 -8.35 -25.75 -12.1 L-26.2 -12.25 -27.3 -8.45 -27.15 -9.15 Q-26.65 -11.35 -25.75 -13.45 L-26.45 -13.7 -29.05 -15.2 Q-29.75 -15.6 -29.95 -16.4 M20.8 -1.15 L20.85 -2.5 Q20.85 -11.1 14.75 -17.25 8.65 -23.35 0.0 -23.35 -8.6 -23.35 -14.75 -17.25 -20.85 -11.1 -20.85 -2.5 L-20.8 -1.15 Q-20.25 7.05 -14.3 12.7 -8.25 18.35 0.0 18.35 8.25 18.35 14.3 12.7 20.3 7.05 20.8 -1.15 M27.2 -9.15 L27.45 -7.9 26.2 -12.25 27.2 -9.15 M-19.0 24.55 L-19.0 24.5 -18.95 24.7 -19.0 24.55" fill="url(#gradient0)" fill-rule="evenodd" stroke="none"/>
    <path d="M-17.45 -24.35 L-18.15 -23.75 -18.85 -23.15 -19.05 -28.7 -18.95 -28.35 -18.8 -28.05 -17.3 -25.45 -16.8 -24.85 -17.45 -24.35 M-30.0 -17.35 L-29.95 -16.4 Q-29.75 -15.6 -29.05 -15.2 L-26.45 -13.7 -25.75 -13.45 Q-26.65 -11.35 -27.15 -9.15 L-29.05 -10.2 Q-30.15 -10.9 -30.05 -12.2 L-30.05 -16.95 -30.0 -17.35 M-33.5 -0.95 Q-33.5 -0.15 -32.9 0.4 -32.3 1.0 -31.5 1.0 L-28.5 1.0 -27.75 0.85 Q-27.3 4.75 -25.75 8.5 L-26.2 8.6 -26.35 8.7 -26.45 8.75 -27.15 9.15 -27.75 5.85 -28.5 6.0 -31.5 6.0 Q-32.3 6.0 -32.9 5.4 -33.5 4.85 -33.5 4.0 L-33.5 -0.95 M-29.9 12.65 L-29.75 12.95 -28.25 15.55 Q-27.85 16.25 -27.05 16.5 L-25.55 16.3 -22.95 14.8 -22.35 14.3 Q-20.0 17.5 -16.8 19.85 L-17.3 20.45 -17.45 20.7 -18.8 23.05 -18.85 23.15 -22.35 19.3 -22.95 19.8 -25.55 21.3 -27.05 21.5 Q-27.85 21.25 -28.25 20.55 L-29.75 17.95 Q-30.15 17.3 -30.0 16.65 -29.85 15.85 -30.05 11.8 -29.95 10.7 -29.05 10.25 -29.6 10.55 -29.8 11.15 L-29.9 11.3 -29.95 11.45 -29.9 12.65 M-18.95 24.7 Q-18.7 25.4 -18.05 25.75 L-15.45 27.25 -13.95 27.45 Q-13.15 27.25 -12.75 26.55 L-11.25 23.95 -11.0 23.25 Q-7.25 24.8 -3.35 25.25 L-3.5 26.0 -3.5 29.0 Q-3.5 29.85 -2.9 30.4 -2.3 31.0 -1.5 31.0 L1.5 31.0 Q2.35 31.0 2.9 30.4 3.5 29.85 3.5 29.0 L3.5 26.0 3.35 25.25 Q7.3 24.8 10.95 23.25 L11.2 23.95 12.7 26.55 Q13.1 27.25 13.95 27.45 L15.45 27.25 18.05 25.75 Q18.75 25.35 19.0 24.55 L19.05 24.3 19.05 28.95 Q19.05 30.2 18.05 30.75 L15.45 32.25 13.95 32.45 Q13.1 32.25 12.7 31.55 L11.2 28.95 10.95 28.25 Q7.35 29.75 3.65 30.2 L3.5 34.0 Q3.5 34.85 2.9 35.4 2.35 36.0 1.5 36.0 L-1.5 36.0 Q-2.3 36.0 -2.9 35.4 -3.5 34.85 -3.5 34.0 L-3.6 30.25 Q-7.3 29.75 -11.0 28.25 L-11.25 28.95 -12.75 31.55 Q-13.15 32.25 -13.95 32.45 L-15.45 32.25 -18.05 30.75 Q-19.2 30.1 -19.05 28.8 L-19.0 26.65 -19.0 24.55 -18.95 24.7 M17.45 20.7 L17.3 20.45 16.8 19.85 Q19.8 17.6 22.35 14.3 L22.95 14.8 25.55 16.3 27.05 16.5 Q27.85 16.25 28.25 15.55 L29.75 12.95 29.9 12.65 30.0 12.3 Q30.0 17.5 29.75 17.95 L28.25 20.55 Q27.85 21.25 27.05 21.5 L25.55 21.3 22.95 19.8 22.35 19.3 18.85 23.15 18.8 23.05 17.45 20.7 M26.2 8.6 L25.7 8.5 Q27.3 4.8 27.75 0.85 L28.5 1.0 31.5 1.0 Q32.35 1.0 32.9 0.4 33.5 -0.15 33.5 -0.95 L33.5 4.0 Q33.5 4.85 32.9 5.4 32.35 6.0 31.5 6.0 L28.5 6.0 27.75 5.85 27.15 9.15 26.45 8.75 26.4 8.7 26.2 8.6 M26.2 -12.25 L25.7 -13.45 26.45 -13.7 29.05 -15.2 Q29.75 -15.6 29.95 -16.4 L30.0 -16.6 30.05 -11.85 Q29.95 -10.75 29.05 -10.2 L27.2 -9.15 26.2 -12.25 M17.45 -24.35 L16.8 -24.85 17.3 -25.45 18.8 -28.05 19.0 -28.5 19.0 -24.4 18.85 -23.15 17.45 -24.35 M3.5 -30.2 L3.35 -30.25 3.5 -30.25 3.5 -30.2 M-3.35 -30.25 L-3.5 -30.2 -3.5 -30.25 -3.35 -30.25 M8.9 -18.75 Q5.15 -20.8 0.2 -20.8 -3.0 -20.8 -5.7 -19.95 -10.45 -18.65 -14.3 -15.0 -20.25 -9.35 -20.8 -1.15 L-20.85 -2.5 Q-20.85 -11.1 -14.75 -17.25 -8.6 -23.35 0.0 -23.35 8.65 -23.35 14.75 -17.25 20.85 -11.1 20.85 -2.5 L20.8 -1.15 Q20.25 -9.35 14.3 -15.0 11.8 -17.35 8.9 -18.75" fill="#3e5153" fill-rule="evenodd" stroke="none"/>
    <path d="M-5.7 -19.95 Q-3.0 -20.8 0.2 -20.8 5.15 -20.8 8.9 -18.75 L10.55 -17.7 Q14.85 -14.55 14.85 -10.15 14.85 -8.55 14.3 -7.1 L13.65 -7.7 Q7.85 -13.05 0.05 -13.05 -7.75 -13.05 -13.5 -7.7 L-13.95 -7.25 Q-14.5 -8.6 -14.5 -10.15 -14.5 -14.55 -10.2 -17.7 -8.15 -19.2 -5.7 -19.95 M-6.85 -0.75 L-6.95 -1.15 Q-7.45 -4.05 -5.75 -6.45 -4.05 -8.9 -1.15 -9.4 1.75 -9.9 4.15 -8.2 6.6 -6.5 7.1 -3.6 7.35 -2.05 7.05 -0.65 3.95 0.5 0.2 0.5 -3.7 0.5 -6.85 -0.75" fill="url(#gradient1)" fill-rule="evenodd" stroke="none"/>
    <path d="M-13.95 -7.25 L-13.5 -7.7 Q-7.75 -13.05 0.05 -13.05 7.85 -13.05 13.65 -7.7 L14.3 -7.1 Q16.7 -4.75 17.85 -2.4 16.55 0.3 13.65 2.95 7.85 8.3 0.05 8.3 -7.75 8.3 -13.5 2.95 -15.35 1.3 -16.7 -0.75 L-17.75 -2.4 -16.7 -4.05 -13.95 -7.25 M7.05 -0.65 Q7.35 -2.05 7.1 -3.6 6.6 -6.5 4.15 -8.2 1.75 -9.9 -1.15 -9.4 -4.05 -8.9 -5.75 -6.45 -7.45 -4.05 -6.95 -1.15 L-6.85 -0.75 Q-6.3 1.85 -4.0 3.45 -1.6 5.15 1.3 4.65 4.2 4.15 5.9 1.7 L7.05 -0.65" fill="#ffffff" fill-rule="evenodd" stroke="none"/>
    <path d="M8.9 -18.75 Q11.8 -17.35 14.3 -15.0 20.25 -9.35 20.8 -1.15 L20.7 -1.65 Q20.0 6.35 14.1 11.85 8.15 17.35 0.0 17.35 -8.15 17.35 -14.1 11.85 -20.05 6.4 -20.75 -1.65 L-20.8 -1.15 Q-20.25 -9.35 -14.3 -15.0 -10.45 -18.65 -5.7 -19.95 -8.15 -19.2 -10.2 -17.7 -14.5 -14.55 -14.5 -10.15 -14.5 -8.6 -13.95 -7.25 L-16.7 -4.05 -17.75 -2.4 -16.7 -0.75 Q-15.35 1.3 -13.5 2.95 -7.75 8.3 0.05 8.3 7.85 8.3 13.65 2.95 16.55 0.3 17.85 -2.4 16.7 -4.75 14.3 -7.1 14.85 -8.55 14.85 -10.15 14.85 -14.55 10.55 -17.7 L8.9 -18.75 M7.05 -0.65 L5.9 1.7 Q4.2 4.15 1.3 4.65 -1.6 5.15 -4.0 3.45 -6.3 1.85 -6.85 -0.75 -3.7 0.5 0.2 0.5 3.95 0.5 7.05 -0.65" fill="#009def" fill-rule="evenodd" stroke="none"/>
  </g>
  <defs>
    <linearGradient gradientTransform="matrix(0.0, -0.0409, -0.0409, 0.0, 0.0, -2.5)" gradientUnits="userSpaceOnUse" id="gradient0" spreadMethod="pad" x1="-819.2" x2="819.2">
      <stop offset="0.2549019607843137" stop-color="#749286"/>
      <stop offset="0.611764705882353" stop-color="#d3e7da"/>
      <stop offset="1.0" stop-color="#a2c1c1"/>
    </linearGradient>
    <linearGradient gradientTransform="matrix(0.0, 0.013, 0.013, 0.0, 0.2, -10.15)" gradientUnits="userSpaceOnUse" id="gradient1" spreadMethod="pad" x1="-819.2" x2="819.2">
      <stop offset="0.0" stop-color="#ffffff"/>
      <stop offset="0.8941176470588236" stop-color="#009def"/>
    </linearGradient>
  </defs>
</svg>
