<?xml version="1.0" encoding="UTF-8" standalone="no"?>
<svg xmlns:ffdec="https://www.free-decompiler.com/flash" xmlns:xlink="http://www.w3.org/1999/xlink" ffdec:objectType="shape" height="50.0px" width="50.0px" xmlns="http://www.w3.org/2000/svg">
  <g transform="matrix(1.0, 0.0, 0.0, 1.0, 25.0, 25.0)">
    <path d="M17.7 -17.7 Q25.0 -10.35 25.0 0.0 25.0 10.35 17.7 17.65 10.35 25.0 0.0 25.0 -10.35 25.0 -17.7 17.65 -25.0 10.35 -25.0 0.0 -25.0 -10.35 -17.7 -17.7 -10.35 -25.0 0.0 -25.0 10.35 -25.0 17.7 -17.7" fill="#231f20" fill-rule="evenodd" stroke="none"/>
    <path d="M0.0 -23.05 Q9.1 -23.05 15.55 -16.6 22.0 -10.15 22.0 -1.05 22.0 8.05 15.55 14.5 9.1 20.95 0.0 20.95 -9.1 20.95 -15.55 14.5 -22.0 8.05 -22.0 -1.05 -22.0 -10.15 -15.55 -16.6 -9.1 -23.05 0.0 -23.05" fill="#787878" fill-rule="evenodd" stroke="none"/>
    <path d="M13.4 -14.5 Q19.0 -8.95 19.0 -1.05 19.0 6.8 13.4 12.35 7.85 17.95 0.0 17.95 -7.9 17.95 -13.45 12.35 -19.0 6.8 -19.0 -1.05 -19.0 -8.95 -13.45 -14.5 -7.9 -20.05 0.0 -20.05 7.85 -20.05 13.4 -14.5" fill="url(#gradient0)" fill-rule="evenodd" stroke="none"/>
    <path d="M13.5 3.45 L-13.5 3.45 -13.5 -4.65 13.5 -4.65 13.5 3.45" fill="#ffffff" fill-rule="evenodd" stroke="none"/>
    <path d="M4.05 -14.1 L4.05 12.9 -4.05 12.9 -4.05 -14.1 4.05 -14.1" fill="#ffffff" fill-rule="evenodd" stroke="none"/>
  </g>
  <defs>
    <linearGradient gradientTransform="matrix(0.0, -0.011, -0.011, 0.0, 0.0, 7.95)" gradientUnits="userSpaceOnUse" id="gradient0" spreadMethod="pad" x1="-819.2" x2="819.2">
      <stop offset="0.0" stop-color="#d9d9d9"/>
      <stop offset="1.0" stop-color="#5a5a5a"/>
    </linearGradient>
  </defs>
</svg>
