<?xml version="1.0" encoding="UTF-8" standalone="no"?>
<svg xmlns:ffdec="https://www.free-decompiler.com/flash" xmlns:xlink="http://www.w3.org/1999/xlink" ffdec:objectType="shape" height="95.5px" width="97.65px" xmlns="http://www.w3.org/2000/svg">
  <g transform="matrix(1.0, 0.0, 0.0, 1.0, 48.85, 47.8)">
    <path d="M14.7 -41.7 Q20.8 -35.6 20.8 -27.0 20.8 -18.35 14.7 -12.25 8.6 -6.15 -0.05 -6.15 -8.65 -6.15 -14.75 -12.25 -20.85 -18.35 -20.85 -27.0 -20.85 -35.6 -14.75 -41.7 -8.65 -47.8 -0.05 -47.8 8.55 -47.8 14.7 -41.7" fill="#c27a2d" fill-rule="evenodd" stroke="none"/>
    <path d="M-42.75 -14.75 Q-36.65 -20.9 -28.05 -20.9 -19.4 -20.9 -13.3 -14.75 -7.2 -8.65 -7.2 -0.05 -7.2 8.6 -13.3 14.7 -19.4 20.8 -28.05 20.8 -36.65 20.8 -42.75 14.7 -48.85 8.55 -48.85 -0.05 -48.85 -8.65 -42.75 -14.75" fill="#9d1e60" fill-rule="evenodd" stroke="none"/>
    <path d="M48.8 -0.05 Q48.8 8.6 42.7 14.7 36.6 20.8 27.95 20.8 19.35 20.8 13.25 14.7 7.15 8.55 7.15 -0.05 7.15 -8.65 13.25 -14.75 19.35 -20.9 27.95 -20.9 36.55 -20.9 42.7 -14.75 48.8 -8.65 48.8 -0.05" fill="#4a4eb0" fill-rule="evenodd" stroke="none"/>
    <path d="M-14.75 12.15 Q-8.65 6.05 -0.05 6.05 8.55 6.05 14.7 12.15 20.8 18.25 20.8 26.85 20.8 35.5 14.7 41.6 8.6 47.7 -0.05 47.7 -8.65 47.7 -14.75 41.6 -20.85 35.45 -20.85 26.85 -20.85 18.25 -14.75 12.15" fill="#008546" fill-rule="evenodd" stroke="none"/>
    <path d="M-28.05 -18.6 Q-20.7 -18.6 -15.5 -13.4 -10.3 -8.25 -10.3 -0.9 -10.3 6.4 -15.5 11.6 -20.7 16.75 -28.05 16.75 -35.35 16.75 -40.55 11.6 -45.75 6.4 -45.75 -0.9 -45.75 -8.25 -40.55 -13.4 -35.35 -18.6 -28.05 -18.6" fill="#f5697d" fill-rule="evenodd" stroke="none"/>
    <path d="M-30.35 1.4 Q-29.4 2.35 -28.05 2.35 -26.65 2.35 -25.7 1.4 -24.75 0.45 -24.75 -0.9 -24.75 -2.3 -25.7 -3.25 -26.7 -4.2 -28.05 -4.2 -29.4 -4.2 -30.35 -3.25 -31.3 -2.3 -31.3 -0.9 -31.3 0.45 -30.35 1.4 M-36.9 -7.7 L-34.8 -9.75 -35.8 -12.1 -33.85 -13.2 -32.3 -11.2 -29.5 -11.95 -29.15 -14.45 -26.9 -14.45 -26.55 -11.95 -23.75 -11.2 -22.2 -13.2 -20.25 -12.1 -21.2 -9.75 -19.1 -7.7 -16.85 -8.65 -15.7 -6.65 -17.65 -5.15 -16.9 -2.35 -14.45 -2.05 -14.45 0.25 -16.9 0.55 -17.65 3.4 -15.75 4.85 -16.9 6.85 -19.1 5.95 -21.2 8.0 -20.25 10.25 -22.25 11.4 -23.7 9.45 -26.5 10.25 -26.85 12.6 -29.15 12.6 -29.45 10.25 -32.25 9.5 -33.75 11.4 -35.75 10.3 -34.8 8.05 -36.9 5.95 -39.15 6.9 -40.3 4.9 -38.35 3.45 -39.1 0.6 -41.55 0.25 -41.6 -2.0 -39.1 -2.3 -38.35 -5.15 -40.35 -6.65 -39.2 -8.65 -36.9 -7.7" fill="#ffffff" fill-rule="evenodd" stroke="none"/>
    <path d="M45.65 -0.9 Q45.65 6.4 40.5 11.6 35.3 16.75 27.95 16.75 20.65 16.75 15.45 11.6 10.3 6.4 10.3 -0.9 10.3 -8.25 15.45 -13.4 20.65 -18.6 27.95 -18.6 35.3 -18.6 40.5 -13.4 45.65 -8.25 45.65 -0.9" fill="#59b6f2" fill-rule="evenodd" stroke="none"/>
    <path d="M23.1 -4.35 Q21.65 -2.3 22.1 0.1 22.55 2.55 24.55 3.95 26.6 5.4 29.0 4.95 31.45 4.5 32.85 2.5 34.3 0.45 33.85 -1.95 33.4 -4.4 31.4 -5.8 29.35 -7.25 26.95 -6.8 24.5 -6.35 23.1 -4.35 M16.6 3.55 L13.95 0.5 13.1 -0.9 Q14.2 -3.15 16.6 -5.35 21.45 -9.85 27.95 -9.85 34.5 -9.85 39.35 -5.35 41.75 -3.15 42.85 -0.9 41.75 1.3 39.35 3.55 34.5 8.05 27.95 8.05 21.45 8.05 16.6 3.55" fill="#ffffff" fill-rule="evenodd" stroke="none"/>
    <path d="M17.65 -27.85 Q17.65 -20.5 12.5 -15.3 7.3 -10.15 -0.05 -10.15 -7.35 -10.15 -12.55 -15.3 -17.7 -20.5 -17.7 -27.85 -17.7 -35.2 -12.55 -40.35 -7.35 -45.55 -0.05 -45.55 7.3 -45.55 12.5 -40.35 17.65 -35.2 17.65 -27.85" fill="#ffe86e" fill-rule="evenodd" stroke="none"/>
    <path d="M-10.75 -33.6 L-8.2 -33.6 -8.2 -22.3 -11.35 -22.3 -11.35 -29.7 -12.8 -28.75 Q-13.45 -28.4 -14.55 -28.1 L-14.55 -30.6 Q-13.0 -31.1 -12.1 -31.8 -11.25 -32.5 -10.75 -33.6" fill="#ffffff" fill-rule="evenodd" stroke="none"/>
    <path d="M3.45 -28.4 Q2.85 -27.5 1.3 -26.4 L0.05 -25.5 -0.65 -24.8 4.15 -24.8 4.15 -22.3 -5.1 -22.3 Q-4.95 -23.7 -4.15 -24.9 -3.4 -26.05 -1.1 -27.7 L0.6 -29.25 Q1.0 -29.75 1.0 -30.25 1.0 -30.75 0.6 -31.1 0.25 -31.45 -0.3 -31.45 -0.9 -31.45 -1.25 -31.1 -1.65 -30.75 -1.8 -29.8 L-4.9 -30.05 Q-4.7 -31.35 -4.2 -32.05 -3.7 -32.8 -2.85 -33.15 L-0.4 -33.6 2.1 -33.2 Q3.0 -32.85 3.55 -32.05 4.05 -31.3 4.05 -30.35 4.05 -29.3 3.45 -28.4" fill="#ffffff" fill-rule="evenodd" stroke="none"/>
    <path d="M5.35 -25.2 L8.45 -25.65 Q8.6 -24.75 9.0 -24.35 9.4 -24.0 9.95 -24.0 10.6 -24.0 11.0 -24.45 11.4 -24.9 11.4 -25.65 11.4 -26.4 11.0 -26.85 10.6 -27.3 9.9 -27.3 L8.95 -27.1 9.1 -29.3 9.5 -29.25 Q10.05 -29.25 10.5 -29.6 10.9 -30.05 10.9 -30.55 L10.6 -31.35 9.8 -31.65 8.9 -31.35 Q8.55 -31.0 8.45 -30.15 L5.5 -30.7 Q5.9 -32.1 6.9 -32.85 7.95 -33.6 9.85 -33.6 12.0 -33.6 12.95 -32.75 13.95 -31.95 13.95 -30.7 13.95 -30.05 13.55 -29.45 13.15 -28.85 12.35 -28.4 L13.35 -28.05 14.2 -27.15 14.5 -25.85 Q14.5 -24.9 14.0 -23.95 13.45 -23.05 12.55 -22.6 11.6 -22.1 10.05 -22.1 L7.65 -22.45 Q6.75 -22.9 6.25 -23.5 5.65 -24.2 5.35 -25.2" fill="#ffffff" fill-rule="evenodd" stroke="none"/>
    <path d="M-12.55 13.5 Q-7.35 8.3 -0.05 8.3 7.3 8.3 12.5 13.5 17.65 18.65 17.65 26.0 17.65 33.35 12.5 38.55 7.3 43.7 -0.05 43.7 -7.35 43.7 -12.55 38.55 -17.7 33.35 -17.7 26.0 -17.7 18.65 -12.55 13.5" fill="#6ee087" fill-rule="evenodd" stroke="none"/>
    <path d="M-8.5 34.25 L-10.6 17.2 5.2 15.25 7.35 32.3 -8.5 34.25" fill="#ffffff" fill-rule="evenodd" stroke="none"/>
    <path d="M-5.25 36.75 L-8.5 34.25 -6.4 34.0 -4.55 35.4 9.2 33.7 7.2 17.95 8.45 17.75 10.5 34.8 -5.25 36.75" fill="#ffffff" fill-rule="evenodd" stroke="none"/>
  </g>
</svg>
