<?xml version="1.0" encoding="UTF-8" standalone="no"?>
<svg xmlns:ffdec="https://www.free-decompiler.com/flash" xmlns:xlink="http://www.w3.org/1999/xlink" ffdec:objectType="shape" height="78.15px" width="79.9px" xmlns="http://www.w3.org/2000/svg">
  <g transform="matrix(1.0, 0.0, 0.0, 1.0, 39.95, 39.1)">
    <path d="M12.05 -34.1 Q17.05 -29.1 17.05 -22.05 17.05 -15.0 12.05 -10.05 7.05 -5.05 0.0 -5.05 -7.05 -5.05 -12.05 -10.05 -17.05 -15.0 -17.05 -22.05 -17.05 -29.1 -12.05 -34.1 -7.05 -39.1 0.0 -39.1 7.05 -39.1 12.05 -34.1" fill="#c27a2d" fill-rule="evenodd" stroke="none"/>
    <path d="M-34.95 -12.1 Q-29.95 -17.05 -22.9 -17.05 -15.85 -17.05 -10.9 -12.1 -5.9 -7.1 -5.9 -0.05 -5.9 7.05 -10.9 12.0 -15.85 17.0 -22.9 17.0 -29.95 17.0 -34.95 12.0 -39.95 7.0 -39.95 -0.05 -39.95 -7.1 -34.95 -12.1" fill="#9d1e60" fill-rule="evenodd" stroke="none"/>
    <path d="M39.95 -0.05 Q39.95 7.05 34.95 12.0 29.95 17.0 22.9 17.0 15.85 17.0 10.85 12.0 5.85 7.0 5.85 -0.05 5.85 -7.1 10.85 -12.1 15.85 -17.05 22.9 -17.05 29.95 -17.05 34.95 -12.1 39.95 -7.1 39.95 -0.05" fill="#4a4eb0" fill-rule="evenodd" stroke="none"/>
    <path d="M-12.05 9.95 Q-7.05 4.95 0.0 4.95 7.05 4.95 12.05 9.95 17.05 14.95 17.05 22.0 17.05 29.05 12.05 34.05 7.05 39.05 0.0 39.05 -7.05 39.05 -12.05 34.05 -17.05 29.05 -17.05 22.0 -17.05 14.95 -12.05 9.95" fill="#008546" fill-rule="evenodd" stroke="none"/>
    <path d="M-22.9 -15.2 Q-16.9 -15.2 -12.65 -11.0 -8.4 -6.75 -8.4 -0.7 -8.4 5.25 -12.65 9.5 -16.9 13.7 -22.9 13.7 -28.9 13.7 -33.15 9.5 -37.4 5.25 -37.4 -0.7 -37.4 -6.75 -33.15 -11.0 -28.9 -15.2 -22.9 -15.2" fill="#f5697d" fill-rule="evenodd" stroke="none"/>
    <path d="M-24.8 1.15 Q-24.0 1.95 -22.9 1.95 -21.8 1.95 -21.05 1.15 -20.25 0.4 -20.25 -0.75 -20.25 -1.85 -21.05 -2.65 -21.8 -3.45 -22.9 -3.45 -24.0 -3.45 -24.8 -2.65 -25.6 -1.85 -25.6 -0.75 -25.6 0.4 -24.8 1.15 M-30.15 -6.25 L-28.45 -7.95 -29.3 -9.85 -27.65 -10.8 -26.4 -9.15 -24.1 -9.8 -23.85 -11.85 -21.95 -11.85 -21.7 -9.8 -19.4 -9.15 -18.15 -10.8 -16.55 -9.85 -17.3 -8.0 -15.65 -6.3 -13.75 -7.05 -12.85 -5.45 -14.45 -4.2 -13.8 -1.9 -11.8 -1.65 -11.8 0.25 -13.8 0.5 -14.45 2.8 -12.85 4.0 -13.8 5.65 -15.65 4.85 -17.3 6.55 -16.55 8.4 Q-17.35 8.95 -18.2 9.3 L-19.4 7.75 -21.7 8.4 -21.95 10.35 -23.8 10.35 -24.1 8.4 -26.4 7.75 -27.6 9.35 -29.25 8.4 -28.45 6.6 -30.15 4.9 -32.0 5.65 -32.95 4.05 -31.35 2.8 -32.0 0.5 -34.0 0.25 -34.0 -1.65 -32.0 -1.9 -31.35 -4.2 -33.0 -5.45 -32.05 -7.05 -30.15 -6.25" fill="#ffffff" fill-rule="evenodd" stroke="none"/>
    <path d="M37.4 -0.75 Q37.4 5.25 33.15 9.5 28.9 13.75 22.9 13.75 16.9 13.75 12.65 9.5 8.45 5.25 8.45 -0.75 8.45 -6.75 12.65 -10.95 16.9 -15.25 22.9 -15.25 28.9 -15.25 33.15 -10.95 37.4 -6.75 37.4 -0.75" fill="#59b6f2" fill-rule="evenodd" stroke="none"/>
    <path d="M18.9 -3.55 Q17.75 -1.9 18.1 0.1 18.45 2.1 20.1 3.25 21.75 4.4 23.75 4.05 25.75 3.7 26.9 2.05 28.05 0.4 27.7 -1.6 27.35 -3.6 25.7 -4.75 24.05 -5.9 22.05 -5.55 20.05 -5.2 18.9 -3.55 M13.6 2.95 L11.4 0.4 10.7 -0.75 Q11.65 -2.55 13.6 -4.4 17.55 -8.05 22.9 -8.05 28.25 -8.05 32.2 -4.4 34.2 -2.55 35.1 -0.75 34.2 1.1 32.2 2.95 28.25 6.6 22.9 6.6 17.55 6.6 13.6 2.95" fill="#ffffff" fill-rule="evenodd" stroke="none"/>
    <path d="M14.5 -22.75 Q14.5 -16.8 10.25 -12.55 6.0 -8.3 0.0 -8.3 -6.0 -8.3 -10.25 -12.55 -14.5 -16.8 -14.5 -22.75 -14.5 -28.75 -10.25 -33.0 -6.0 -37.25 0.0 -37.25 6.0 -37.25 10.25 -33.0 14.5 -28.75 14.5 -22.75" fill="#ffe86e" fill-rule="evenodd" stroke="none"/>
    <path d="M-8.8 -27.45 L-6.7 -27.45 -6.7 -18.25 -9.25 -18.25 -9.25 -24.25 -10.45 -23.55 -11.9 -22.95 -11.9 -25.05 Q-10.6 -25.45 -9.9 -26.05 -9.2 -26.6 -8.8 -27.45" fill="#ffffff" fill-rule="evenodd" stroke="none"/>
    <path d="M2.85 -23.25 Q2.35 -22.45 1.1 -21.55 L0.1 -20.85 -0.55 -20.3 3.4 -20.3 3.4 -18.25 -4.15 -18.25 Q-4.0 -19.4 -3.35 -20.35 -2.75 -21.3 -0.9 -22.65 L0.55 -23.9 0.8 -24.7 0.55 -25.45 -0.25 -25.75 Q-0.7 -25.75 -1.0 -25.4 L-1.45 -24.35 -3.95 -24.55 -3.45 -26.25 -2.3 -27.15 -0.3 -27.45 1.75 -27.15 2.9 -26.25 3.35 -24.8 Q3.35 -23.95 2.85 -23.25" fill="#ffffff" fill-rule="evenodd" stroke="none"/>
    <path d="M4.4 -20.65 L6.9 -20.95 Q7.05 -20.2 7.35 -19.9 7.75 -19.6 8.2 -19.6 8.65 -19.6 9.0 -20.0 9.35 -20.35 9.35 -21.0 L9.05 -21.95 Q8.65 -22.3 8.15 -22.3 L7.3 -22.15 7.45 -23.95 7.8 -23.9 Q8.25 -23.9 8.6 -24.25 L8.95 -25.0 8.7 -25.65 8.0 -25.9 Q7.55 -25.9 7.3 -25.6 7.05 -25.35 6.9 -24.7 L4.55 -25.1 Q4.85 -26.25 5.7 -26.85 6.55 -27.45 8.05 -27.45 9.8 -27.45 10.65 -26.8 11.4 -26.15 11.4 -25.15 L11.1 -24.05 10.15 -23.25 10.9 -22.95 11.6 -22.2 11.9 -21.1 11.45 -19.6 Q11.05 -18.85 10.25 -18.5 9.5 -18.1 8.2 -18.1 L6.3 -18.4 Q5.5 -18.7 5.1 -19.25 4.65 -19.8 4.4 -20.65" fill="#ffffff" fill-rule="evenodd" stroke="none"/>
    <path d="M-10.25 11.05 Q-6.0 6.8 0.0 6.8 6.0 6.8 10.25 11.05 14.5 15.3 14.5 21.3 14.5 27.3 10.25 31.55 6.0 35.75 0.0 35.75 -6.0 35.75 -10.25 31.55 -14.5 27.3 -14.5 21.3 -14.5 15.3 -10.25 11.05" fill="#6ee087" fill-rule="evenodd" stroke="none"/>
    <path d="M-6.9 28.0 L-8.65 14.1 4.3 12.5 6.0 26.4 -6.9 28.0" fill="#ffffff" fill-rule="evenodd" stroke="none"/>
    <path d="M-4.3 30.05 L-6.9 28.0 -5.25 27.8 -3.7 29.0 7.55 27.6 5.9 14.7 6.9 14.55 8.65 28.45 -4.3 30.05" fill="#ffffff" fill-rule="evenodd" stroke="none"/>
  </g>
</svg>
