<?xml version="1.0" encoding="UTF-8" standalone="no"?>
<svg xmlns:ffdec="https://www.free-decompiler.com/flash" xmlns:xlink="http://www.w3.org/1999/xlink" ffdec:objectType="shape" height="72.0px" width="82.65px" xmlns="http://www.w3.org/2000/svg">
  <g transform="matrix(1.0, 0.0, 0.0, 1.0, 41.3, 36.0)">
    <path d="M27.4 -31.4 Q25.95 -30.4 24.65 -28.55 23.1 -26.3 22.9 -23.15 22.75 -20.15 24.0 -19.8 26.55 -23.25 28.6 -24.85 31.5 -27.0 32.15 -24.6 32.75 -22.25 31.1 -17.9 29.95 -14.9 25.85 -10.3 22.15 -6.05 20.85 -5.6 18.35 -4.05 16.8 -0.95 15.15 2.15 17.35 1.4 25.6 -1.55 31.85 -9.3 38.05 -17.05 38.45 -24.6 L38.45 -26.35 Q38.05 -32.1 34.25 -33.05 31.05 -33.9 27.4 -31.4 M22.8 -30.25 Q25.45 -33.95 29.0 -35.3 L35.3 -35.5 Q38.4 -34.45 40.0 -31.5 41.7 -28.35 41.25 -23.95 40.25 -15.05 33.65 -6.75 25.65 3.25 13.4 5.6 10.8 8.1 7.85 9.45 L5.6 18.9 10.05 20.4 Q14.8 22.1 16.4 23.45 19.85 26.3 19.55 29.25 19.3 31.7 16.7 33.05 10.5 36.2 -0.25 36.0 -11.25 35.75 -15.7 32.15 -18.1 30.3 -18.4 28.2 -18.8 25.55 -15.4 23.45 -12.55 21.55 -5.55 19.5 L-8.45 9.35 -11.55 7.4 -13.2 6.2 Q-25.65 3.8 -33.85 -5.25 -40.55 -12.8 -41.25 -20.35 -42.0 -27.85 -35.25 -30.8 -28.5 -33.8 -23.15 -28.2 -15.9 -32.55 1.75 -32.9 18.65 -33.3 22.8 -30.25 M3.05 -25.4 L3.0 -25.5 Q-2.7 -25.8 -18.55 -25.8 L-18.55 -25.75 -22.35 -26.1 Q-22.1 -15.55 -16.5 -4.5 -13.0 2.4 -8.85 5.6 L-9.0 5.6 Q-5.0 9.55 0.35 9.2 5.45 8.8 10.2 4.75 15.05 0.65 18.0 -5.85 21.15 -12.9 21.15 -20.95 L21.05 -20.5 Q21.35 -23.9 21.2 -27.5 16.8 -25.8 3.05 -25.4 M28.5 -21.4 Q27.0 -21.25 23.7 -17.05 21.8 -10.7 20.85 -8.7 23.8 -10.05 26.25 -13.35 28.35 -16.2 29.1 -18.85 29.75 -21.55 28.5 -21.4 M0.15 21.0 Q3.2 19.75 0.5 15.95 -2.3 12.15 -3.95 12.8 -5.85 13.65 -4.4 17.95 -2.9 22.25 0.15 21.0 M-3.5 32.75 L-1.8 32.95 Q8.55 33.95 13.8 31.25 15.6 30.35 14.95 28.1 14.25 25.8 11.3 24.0 9.15 26.05 2.9 25.85 -3.85 25.7 -8.05 22.55 -11.75 23.6 -13.7 25.4 -15.55 27.1 -14.75 28.25 L-13.6 29.45 -12.8 30.05 -12.25 30.35 -8.9 31.7 -6.95 32.2 -3.5 32.75 M-29.5 -10.55 Q-33.1 -16.1 -31.3 -19.6 -29.5 -23.25 -24.3 -17.65 L-26.2 -26.1 Q-26.8 -27.85 -28.6 -28.75 -30.35 -29.6 -32.4 -29.3 -37.5 -28.4 -38.3 -21.85 -38.65 -18.65 -36.25 -13.95 -33.95 -9.5 -30.0 -5.35 -27.1 -2.35 -23.95 -0.25 -20.6 1.95 -17.6 2.6 L-20.95 -2.95 Q-23.5 -4.3 -25.85 -6.5 -28.25 -8.5 -29.5 -10.55 M-28.9 -14.75 Q-27.85 -11.6 -25.45 -8.85 -22.7 -5.65 -19.7 -5.15 -22.55 -11.45 -23.55 -14.55 -27.2 -18.6 -28.65 -18.2 -29.9 -17.85 -28.9 -14.75" fill="#815903" fill-rule="evenodd" stroke="none"/>
    <path d="M28.6 -24.85 Q26.55 -23.25 24.0 -19.8 22.75 -20.15 22.9 -23.15 23.1 -26.3 24.65 -28.55 25.95 -30.4 27.4 -31.4 27.25 -29.95 27.65 -28.1 L28.6 -24.85 M38.45 -24.6 Q38.05 -17.05 31.85 -9.3 25.6 -1.55 17.35 1.4 15.15 2.15 16.8 -0.95 18.35 -4.05 20.85 -5.6 22.15 -6.05 25.85 -10.3 29.95 -14.9 31.1 -17.9 35.75 -20.05 38.45 -24.6 M3.05 -25.4 Q16.8 -25.8 21.2 -27.5 21.35 -23.9 21.05 -20.5 19.25 -12.1 10.2 -3.2 0.15 6.8 -8.85 5.6 -13.0 2.4 -16.5 -4.5 -22.1 -15.55 -22.35 -26.1 L-18.55 -25.75 Q-19.05 -17.85 -15.75 -11.0 -12.45 -4.15 -7.4 -2.55 -2.4 -0.95 1.55 -9.4 5.6 -17.85 3.05 -25.4 M0.15 21.0 Q-2.9 22.25 -4.4 17.95 -5.85 13.65 -3.95 12.8 -2.3 12.15 0.5 15.95 3.2 19.75 0.15 21.0 M-13.6 29.45 L-14.75 28.25 Q-15.55 27.1 -13.7 25.4 -11.75 23.6 -8.05 22.55 -3.85 25.7 2.9 25.85 9.15 26.05 11.3 24.0 14.25 25.8 14.95 28.1 15.6 30.35 13.8 31.25 8.55 33.95 -1.8 32.95 L-3.5 32.75 -0.5 32.5 Q1.9 31.9 0.65 28.85 L-1.1 25.85 -6.15 24.0 Q-8.5 23.75 -11.8 26.3 -14.3 28.4 -13.6 29.45 M-30.0 -5.35 Q-29.3 -7.55 -29.5 -10.55 -28.25 -8.5 -25.85 -6.5 -23.5 -4.3 -20.95 -2.95 L-17.6 2.6 Q-20.6 1.95 -23.95 -0.25 -27.1 -2.35 -30.0 -5.35" fill="#c99c32" fill-rule="evenodd" stroke="none"/>
    <path d="M31.2 -31.9 Q33.65 -33.5 34.05 -31.4 34.4 -29.4 31.8 -28.55 29.35 -27.7 29.3 -29.15 29.3 -30.6 31.2 -31.9 M-31.9 -28.3 Q-30.4 -27.3 -31.7 -24.95 -32.75 -22.75 -34.3 -24.0 -35.8 -25.15 -34.9 -26.7 -33.4 -29.3 -31.9 -28.3 M-9.7 -13.6 Q-13.05 -13.25 -14.25 -18.45 -14.5 -19.5 -13.3 -20.65 -12.15 -21.7 -10.55 -22.05 -6.4 -23.1 -6.4 -18.7 -6.4 -13.9 -9.7 -13.6" fill="#fdfdfd" fill-rule="evenodd" stroke="none"/>
    <path d="M28.6 -24.85 L27.65 -28.1 Q27.25 -29.95 27.4 -31.4 31.05 -33.9 34.25 -33.05 38.05 -32.1 38.45 -26.35 L38.45 -24.6 Q35.75 -20.05 31.1 -17.9 32.75 -22.25 32.15 -24.6 31.5 -27.0 28.6 -24.85 M31.2 -31.9 Q29.3 -30.6 29.3 -29.15 29.35 -27.7 31.8 -28.55 34.4 -29.4 34.05 -31.4 33.65 -33.5 31.2 -31.9 M-18.55 -25.75 L-18.55 -25.8 Q-2.7 -25.8 3.0 -25.5 L3.05 -25.4 Q5.6 -17.85 1.55 -9.4 -2.4 -0.95 -7.4 -2.55 -12.45 -4.15 -15.75 -11.0 -19.05 -17.85 -18.55 -25.75 M-13.6 29.45 Q-14.3 28.4 -11.8 26.3 -8.5 23.75 -6.15 24.0 L-1.1 25.85 0.65 28.85 Q1.9 31.9 -0.5 32.5 L-3.5 32.75 -6.95 32.2 -8.9 31.7 -12.25 30.35 -12.8 30.05 -13.6 29.45 M-30.0 -5.35 Q-33.95 -9.5 -36.25 -13.95 -38.65 -18.65 -38.3 -21.85 -37.5 -28.4 -32.4 -29.3 -30.35 -29.6 -28.6 -28.75 -26.8 -27.85 -26.2 -26.1 L-24.3 -17.65 Q-29.5 -23.25 -31.3 -19.6 -33.1 -16.1 -29.5 -10.55 -29.3 -7.55 -30.0 -5.35 M-31.9 -28.3 Q-33.4 -29.3 -34.9 -26.7 -35.8 -25.15 -34.3 -24.0 -32.75 -22.75 -31.7 -24.95 -30.4 -27.3 -31.9 -28.3 M-9.7 -13.6 Q-6.4 -13.9 -6.4 -18.7 -6.4 -23.1 -10.55 -22.05 -12.15 -21.7 -13.3 -20.65 -14.5 -19.5 -14.25 -18.45 -13.05 -13.25 -9.7 -13.6" fill="#ffe211" fill-rule="evenodd" stroke="none"/>
    <path d="M21.05 -20.5 L21.15 -20.95 Q21.15 -12.9 18.0 -5.85 15.05 0.65 10.2 4.75 5.45 8.8 0.35 9.2 -5.0 9.55 -9.0 5.6 L-8.85 5.6 Q0.15 6.8 10.2 -3.2 19.25 -12.1 21.05 -20.5" fill="#e7bc6e" fill-rule="evenodd" stroke="none"/>
  </g>
</svg>
