<?xml version="1.0" encoding="UTF-8" standalone="no"?>
<svg xmlns:ffdec="https://www.free-decompiler.com/flash" xmlns:xlink="http://www.w3.org/1999/xlink" ffdec:objectType="shape" height="88.0px" width="101.1px" xmlns="http://www.w3.org/2000/svg">
  <g transform="matrix(1.0, 0.0, 0.0, 1.0, 50.55, 44.0)">
    <path d="M33.5 -38.4 Q31.75 -37.2 30.15 -34.85 28.2 -32.1 28.0 -28.3 27.85 -24.65 29.3 -24.2 32.45 -28.45 35.0 -30.35 38.5 -33.0 39.25 -30.1 40.05 -27.2 38.0 -21.9 36.65 -18.2 31.55 -12.6 27.05 -7.35 25.45 -6.8 22.45 -4.95 20.5 -1.15 18.55 2.65 21.25 1.7 31.3 -1.9 38.95 -11.4 46.55 -20.85 46.95 -30.1 L46.95 -32.25 Q46.55 -39.2 41.85 -40.4 37.95 -41.4 33.5 -38.4 M25.75 -25.1 Q26.05 -29.2 25.9 -33.6 20.5 -31.5 3.75 -31.05 L3.7 -31.2 Q-3.3 -31.5 -22.65 -31.5 L-22.65 -31.45 -27.35 -31.9 Q-27.0 -19.05 -20.2 -5.5 -15.9 2.9 -10.85 6.85 L-11.0 6.8 Q-6.1 11.65 0.45 11.2 6.65 10.8 12.5 5.85 18.4 0.8 22.0 -7.15 25.85 -15.8 25.85 -25.65 L25.75 -25.1 M32.05 -16.35 Q34.65 -19.8 35.6 -23.05 36.35 -26.35 34.8 -26.2 33.0 -25.95 29.0 -20.85 26.6 -13.1 25.45 -10.6 29.1 -12.25 32.05 -16.35 M27.9 -36.95 Q31.15 -41.45 35.4 -43.15 L43.15 -43.4 Q46.9 -42.15 48.9 -38.5 51.0 -34.65 50.45 -29.25 49.2 -18.35 41.15 -8.25 31.35 3.95 16.4 6.85 13.2 9.9 9.55 11.55 L6.8 23.1 12.25 24.9 Q18.1 27.0 20.0 28.65 24.25 32.1 23.9 35.75 23.6 38.75 20.4 40.4 12.8 44.25 -0.35 44.0 -13.75 43.65 -19.2 39.3 -22.1 37.0 -22.5 34.5 -23.0 31.25 -18.8 28.65 -15.35 26.35 -6.75 23.8 L-10.35 11.45 -14.15 9.05 -16.1 7.6 Q-31.35 4.65 -41.35 -6.45 -49.55 -15.6 -50.45 -24.85 -51.3 -34.05 -43.05 -37.6 -34.8 -41.3 -28.25 -34.5 -19.4 -39.75 2.15 -40.2 22.8 -40.7 27.9 -36.95 M-4.3 40.05 L-2.2 40.25 Q10.45 41.5 16.9 38.2 19.1 37.05 18.25 34.35 17.45 31.5 13.8 29.3 11.15 31.85 3.55 31.6 -4.75 31.4 -9.85 27.55 -14.35 28.8 -16.7 31.0 -19.05 33.1 -18.05 34.55 L-16.6 36.0 -15.65 36.75 -14.95 37.05 Q-13.3 38.0 -10.9 38.7 L-8.45 39.4 -4.3 40.05 M0.15 25.7 Q3.9 24.15 0.6 19.45 -2.8 14.85 -4.85 15.65 -7.15 16.65 -5.4 21.95 -3.55 27.15 0.15 25.7 M-36.1 -12.85 Q-40.5 -19.7 -38.3 -24.0 -36.1 -28.45 -29.7 -21.55 L-32.0 -31.9 Q-32.8 -34.05 -35.0 -35.15 -37.1 -36.2 -39.6 -35.8 -45.8 -34.7 -46.8 -26.75 -47.25 -22.8 -44.35 -17.05 -41.45 -11.6 -36.7 -6.55 -33.1 -2.85 -29.25 -0.35 -25.2 2.35 -21.5 3.2 L-25.65 -3.65 Q-28.7 -5.3 -31.6 -7.9 -34.55 -10.4 -36.1 -12.85 M-35.3 -18.05 Q-34.05 -14.2 -31.15 -10.85 -27.75 -6.95 -24.1 -6.25 -27.55 -13.95 -28.75 -17.75 -33.25 -22.7 -35.05 -22.25 -36.55 -21.85 -35.3 -18.05" fill="#815903" fill-rule="evenodd" stroke="none"/>
    <path d="M35.0 -30.35 Q32.45 -28.45 29.3 -24.2 27.85 -24.65 28.0 -28.3 28.2 -32.1 30.15 -34.85 31.75 -37.2 33.5 -38.4 33.35 -36.65 33.8 -34.35 L35.0 -30.35 M46.95 -30.1 Q46.55 -20.85 38.95 -11.4 31.3 -1.9 21.25 1.7 18.55 2.65 20.5 -1.15 22.45 -4.95 25.45 -6.8 27.05 -7.35 31.55 -12.6 36.65 -18.2 38.0 -21.9 43.7 -24.55 46.95 -30.1 M3.75 -31.05 Q20.5 -31.5 25.9 -33.6 26.05 -29.2 25.75 -25.1 23.55 -14.8 12.5 -3.9 0.15 8.3 -10.85 6.85 -15.9 2.9 -20.2 -5.5 -27.0 -19.05 -27.35 -31.9 L-22.65 -31.45 Q-23.25 -21.85 -19.25 -13.45 -15.25 -5.05 -9.05 -3.15 -2.9 -1.15 1.9 -11.5 6.85 -21.85 3.75 -31.05 M-16.6 36.0 L-18.05 34.55 Q-19.05 33.1 -16.7 31.0 -14.35 28.8 -9.85 27.55 -4.75 31.4 3.55 31.6 11.15 31.85 13.8 29.3 17.45 31.5 18.25 34.35 19.1 37.05 16.9 38.2 10.45 41.5 -2.2 40.25 L-4.3 40.05 -0.6 39.7 Q2.3 39.0 0.8 35.25 L-1.3 31.55 -7.55 29.3 Q-10.4 29.05 -14.4 32.15 -17.5 34.7 -16.6 36.0 M0.15 25.7 Q-3.55 27.15 -5.4 21.95 -7.15 16.65 -4.85 15.65 -2.8 14.85 0.6 19.45 3.9 24.15 0.15 25.7 M-36.7 -6.55 Q-35.8 -9.25 -36.1 -12.85 -34.55 -10.4 -31.6 -7.9 -28.7 -5.3 -25.65 -3.65 L-21.5 3.2 Q-25.2 2.35 -29.25 -0.35 -33.1 -2.85 -36.7 -6.55" fill="#c99c32" fill-rule="evenodd" stroke="none"/>
    <path d="M38.9 -34.85 Q35.85 -33.9 35.8 -35.65 35.8 -37.4 38.1 -39.0 41.15 -40.95 41.65 -38.4 42.05 -35.9 38.9 -34.85 M-16.3 -25.25 Q-14.85 -26.5 -12.9 -26.95 -7.8 -28.2 -7.8 -22.9 -7.8 -17.0 -11.9 -16.6 -15.95 -16.15 -17.45 -22.55 -17.7 -23.8 -16.3 -25.25 M-41.9 -29.3 Q-43.8 -30.75 -42.7 -32.6 -40.8 -35.8 -39.0 -34.6 -37.2 -33.4 -38.7 -30.45 -40.05 -27.85 -41.9 -29.3" fill="#fdfdfd" fill-rule="evenodd" stroke="none"/>
    <path d="M35.0 -30.35 L33.8 -34.35 Q33.35 -36.65 33.5 -38.4 37.95 -41.4 41.85 -40.4 46.55 -39.2 46.95 -32.25 L46.95 -30.1 Q43.7 -24.55 38.0 -21.9 40.05 -27.2 39.25 -30.1 38.5 -33.0 35.0 -30.35 M-22.65 -31.45 L-22.65 -31.5 Q-3.3 -31.5 3.7 -31.2 L3.75 -31.05 Q6.85 -21.85 1.9 -11.5 -2.9 -1.15 -9.05 -3.15 -15.25 -5.05 -19.25 -13.45 -23.25 -21.85 -22.65 -31.45 M38.9 -34.85 Q42.05 -35.9 41.65 -38.4 41.15 -40.95 38.1 -39.0 35.8 -37.4 35.8 -35.65 35.85 -33.9 38.9 -34.85 M-16.6 36.0 Q-17.5 34.7 -14.4 32.15 -10.4 29.05 -7.55 29.3 L-1.3 31.55 0.8 35.25 Q2.3 39.0 -0.6 39.7 L-4.3 40.05 -8.45 39.4 -10.9 38.7 Q-13.3 38.0 -14.95 37.05 L-15.65 36.75 -16.6 36.0 M-36.7 -6.55 Q-41.45 -11.6 -44.35 -17.05 -47.25 -22.8 -46.8 -26.75 -45.8 -34.7 -39.6 -35.8 -37.1 -36.2 -35.0 -35.15 -32.8 -34.05 -32.0 -31.9 L-29.7 -21.55 Q-36.1 -28.45 -38.3 -24.0 -40.5 -19.7 -36.1 -12.85 -35.8 -9.25 -36.7 -6.55 M-41.9 -29.3 Q-40.05 -27.85 -38.7 -30.45 -37.2 -33.4 -39.0 -34.6 -40.8 -35.8 -42.7 -32.6 -43.8 -30.75 -41.9 -29.3 M-16.3 -25.25 Q-17.7 -23.8 -17.45 -22.55 -15.95 -16.15 -11.9 -16.6 -7.8 -17.0 -7.8 -22.9 -7.8 -28.2 -12.9 -26.95 -14.85 -26.5 -16.3 -25.25" fill="#ffe211" fill-rule="evenodd" stroke="none"/>
    <path d="M25.75 -25.1 L25.85 -25.65 Q25.85 -15.8 22.0 -7.15 18.4 0.8 12.5 5.85 6.65 10.8 0.45 11.2 -6.1 11.65 -11.0 6.8 L-10.85 6.85 Q0.15 8.3 12.5 -3.9 23.55 -14.8 25.75 -25.1" fill="#e7bc6e" fill-rule="evenodd" stroke="none"/>
  </g>
</svg>
