<?xml version="1.0" encoding="UTF-8" standalone="no"?>
<svg xmlns:ffdec="https://www.free-decompiler.com/flash" xmlns:xlink="http://www.w3.org/1999/xlink" ffdec:objectType="shape" height="25.0px" width="60.95px" xmlns="http://www.w3.org/2000/svg">
  <g transform="matrix(1.0, 0.0, 0.0, 1.0, 30.75, 8.55)">
    <path d="M10.5 -1.0 Q9.85 -3.7 6.3 -5.75 2.7 -7.85 -2.15 -8.25 -7.55 -8.65 -12.6 -6.65 -16.7 -5.05 -15.2 -1.4 L-14.9 -0.85 -15.0 -0.8 Q-16.75 -0.3 -17.3 0.55 -17.9 1.4 -16.95 2.1 -15.85 2.9 -13.2 3.15 L-11.2 3.3 -8.95 4.85 -6.2 6.2 Q-6.9 6.65 -5.25 7.8 -3.35 9.05 -1.5 9.15 0.25 9.3 2.4 7.9 L3.5 7.0 Q5.8 6.3 7.85 4.7 L9.35 3.25 11.35 3.0 Q13.6 2.5 14.15 1.55 14.7 0.6 13.2 -0.15 12.2 -0.7 10.5 -1.0 M-21.25 4.9 Q-19.95 1.8 -18.9 -1.75 -17.1 -5.1 -12.4 -6.9 -8.1 -8.6 -2.5 -8.55 3.0 -8.5 7.65 -6.85 12.6 -5.1 14.85 -2.05 16.3 -0.15 18.85 4.9 L17.65 4.9 Q11.5 4.75 7.95 6.05 L15.85 7.25 20.25 7.75 Q21.3 9.55 22.5 11.0 25.8 15.0 30.2 16.45 L-30.75 16.35 Q-27.25 15.05 -24.45 11.0 L-22.5 7.65 -18.95 7.25 -11.0 6.05 Q-14.55 4.75 -20.7 4.9 L-21.25 4.9 M19.0 5.15 L19.35 5.9 Q15.55 5.5 12.0 5.75 L18.7 5.15 19.0 5.15 M19.65 6.55 L20.15 7.55 18.55 7.25 11.85 6.2 19.2 6.5 19.65 6.55 M-22.4 7.45 L-22.1 6.8 -21.95 6.5 -14.95 6.2 -21.55 7.3 -22.4 7.45 M-21.7 5.9 L-21.4 5.15 -14.8 5.75 Q-18.15 5.55 -21.7 5.9" fill="#5d5e95" fill-rule="evenodd" stroke="none"/>
    <path d="M-14.9 -0.85 L-15.2 -1.4 Q-16.7 -5.05 -12.6 -6.65 -7.55 -8.65 -2.15 -8.25 2.7 -7.85 6.3 -5.75 9.85 -3.7 10.5 -1.0 L8.1 -1.2 3.6 -0.8 Q1.8 -0.3 1.25 0.55 L1.15 0.7 -4.4 0.7 Q-4.6 0.25 -5.4 -0.15 -7.0 -1.05 -10.5 -1.2 L-14.9 -0.85 M9.35 3.25 L7.85 4.7 Q5.8 6.3 3.5 7.0 4.05 6.35 3.4 6.15 L-1.2 5.7 -6.05 6.15 -6.2 6.2 -8.95 4.85 -11.2 3.3 -7.25 3.0 Q-5.0 2.5 -4.45 1.55 L-4.35 1.4 1.1 1.4 Q1.2 1.75 1.65 2.1 2.7 2.9 5.35 3.15 L9.35 3.25" fill="#787fe3" fill-rule="evenodd" stroke="none"/>
    <path d="M-14.9 -0.85 L-10.5 -1.2 Q-7.0 -1.05 -5.4 -0.15 -4.6 0.25 -4.4 0.7 L1.15 0.7 1.25 0.55 Q1.8 -0.3 3.6 -0.8 L8.1 -1.2 10.5 -1.0 Q12.2 -0.7 13.2 -0.15 14.7 0.6 14.15 1.55 13.6 2.5 11.35 3.0 L9.35 3.25 5.35 3.15 Q2.7 2.9 1.65 2.1 1.2 1.75 1.1 1.4 L-4.35 1.4 -4.45 1.55 Q-5.0 2.5 -7.25 3.0 L-11.2 3.3 -13.2 3.15 Q-15.85 2.9 -16.95 2.1 -17.9 1.4 -17.3 0.55 -16.75 -0.3 -15.0 -0.8 L-14.9 -0.85 M2.85 0.25 Q2.95 0.9 5.3 0.65 7.9 0.3 7.25 -0.4 L4.15 -0.65 Q2.8 -0.45 2.85 0.25 M-16.1 0.25 Q-16.0 0.9 -13.65 0.65 -11.1 0.3 -11.7 -0.4 L-14.8 -0.65 Q-16.2 -0.45 -16.1 0.25" fill="#241917" fill-rule="evenodd" stroke="none"/>
    <path d="M-16.1 0.25 Q-16.2 -0.45 -14.8 -0.65 L-11.7 -0.4 Q-11.1 0.3 -13.65 0.65 -16.0 0.9 -16.1 0.25 M2.85 0.25 Q2.8 -0.45 4.15 -0.65 L7.25 -0.4 Q7.9 0.3 5.3 0.65 2.95 0.9 2.85 0.25" fill="#fdfdfd" fill-rule="evenodd" stroke="none"/>
    <path d="M18.85 4.9 L23.1 5.25 19.0 5.15 18.7 5.15 12.0 5.75 Q15.55 5.5 19.35 5.9 L21.6 6.2 25.75 7.1 19.65 6.55 19.2 6.5 11.85 6.2 18.55 7.25 20.15 7.55 22.0 7.95 20.25 7.75 15.85 7.25 7.95 6.05 Q11.5 4.75 17.65 4.9 L18.85 4.9 M-22.5 7.65 L-25.05 7.95 -22.4 7.45 -21.55 7.3 -14.95 6.2 -21.95 6.5 -22.25 6.5 -28.85 7.1 -24.65 6.25 -21.7 5.9 Q-18.15 5.55 -14.8 5.75 L-21.4 5.15 -21.6 5.15 -26.15 5.25 -24.6 5.1 -21.25 4.9 -20.7 4.9 Q-14.55 4.75 -11.0 6.05 L-18.95 7.25 -22.5 7.65" fill="#171660" fill-rule="evenodd" stroke="none"/>
    <path d="M3.5 7.0 L2.4 7.9 Q0.25 9.3 -1.5 9.15 -3.35 9.05 -5.25 7.8 -6.9 6.65 -6.2 6.2 L-6.05 6.15 -1.2 5.7 3.4 6.15 Q4.05 6.35 3.5 7.0 M-4.55 7.5 Q-3.35 8.2 -1.85 7.85 -0.8 7.6 -0.65 7.15 -0.5 6.75 -1.05 6.45 -1.65 6.1 -2.6 6.05 L-4.65 6.4 Q-5.75 6.8 -4.55 7.5" fill="#b7678d" fill-rule="evenodd" stroke="none"/>
    <path d="M-4.55 7.5 Q-5.75 6.8 -4.65 6.4 L-2.6 6.05 Q-1.65 6.1 -1.05 6.45 -0.5 6.75 -0.65 7.15 -0.8 7.6 -1.85 7.85 -3.35 8.2 -4.55 7.5" fill="#fec6e0" fill-rule="evenodd" stroke="none"/>
  </g>
</svg>
