<?xml version="1.0" encoding="UTF-8" standalone="no"?>
<svg xmlns:ffdec="https://www.free-decompiler.com/flash" xmlns:xlink="http://www.w3.org/1999/xlink" ffdec:objectType="shape" height="25.0px" width="20.6px" xmlns="http://www.w3.org/2000/svg">
  <g transform="matrix(1.0, 0.0, 0.0, 1.0, 10.3, 12.5)">
    <path d="M3.8 -4.25 L3.6 -4.95 9.6 -4.55 9.95 -4.4 10.1 -4.05 9.5 4.85 9.35 5.2 9.0 5.35 4.2 5.05 4.55 4.35 8.8 4.6 9.4 -3.9 3.8 -4.25 M2.15 1.55 L1.8 1.4 2.05 -2.05 2.75 -2.2 2.5 1.7 2.15 1.55 M-3.8 -4.2 L-4.55 -4.2 -5.9 -10.15 -5.85 -10.5 -5.55 -10.75 1.2 -12.25 1.55 -12.2 1.8 -11.9 3.8 -3.2 3.75 -2.8 3.4 -2.6 -1.9 -1.4 -1.9 -2.1 3.05 -3.25 1.15 -11.55 -5.15 -10.1 -3.8 -4.2 M4.65 3.55 L0.85 11.6 0.6 11.85 0.2 11.85 -6.05 8.9 -6.3 8.6 -6.3 8.25 -2.45 0.15 -2.2 -0.1 -1.8 -0.1 4.4 2.85 4.7 3.15 4.65 3.55 M-5.1 5.25 L-5.45 5.95 -9.5 5.95 -9.85 5.8 -10.0 5.45 -10.0 -3.45 -9.85 -3.85 -9.5 -3.95 -2.6 -3.95 -2.25 -3.85 -2.1 -3.45 -2.1 -0.35 -2.65 0.05 -2.8 0.35 -2.8 -3.25 -9.3 -3.25 -9.3 5.25 -5.1 5.25 M-5.55 8.35 L0.3 11.15 3.95 3.4 -1.9 0.65 -5.55 8.35" fill="#ffffff" fill-rule="evenodd" stroke="none"/>
    <path d="M10.15 -4.55 L10.3 -4.0 9.7 4.9 9.65 5.2 9.6 5.3 9.4 5.75 Q9.15 5.95 8.85 5.95 L4.0 5.65 0.95 12.1 0.55 12.45 0.0 12.45 -6.2 9.5 -6.6 9.1 -6.55 8.55 -6.55 8.45 -6.45 8.15 -5.75 6.55 -9.6 6.55 -10.1 6.35 -10.3 5.85 -10.3 -3.1 -10.2 -3.45 -10.0 -4.0 -9.5 -4.2 -4.95 -4.2 -6.2 -9.7 -6.15 -10.2 -6.0 -10.65 Q-5.85 -10.9 -5.55 -10.95 L1.15 -12.5 1.7 -12.4 2.0 -11.95 3.55 -5.2 9.65 -4.8 10.15 -4.55 M4.55 4.35 L4.2 5.05 9.0 5.35 9.35 5.2 9.5 4.85 10.1 -4.05 9.95 -4.4 9.6 -4.55 3.6 -4.95 3.8 -4.25 3.75 -4.25 4.0 -3.25 3.9 -2.7 3.45 -2.4 2.05 -2.05 1.8 1.4 2.15 1.55 2.95 1.95 3.05 1.95 4.15 2.5 4.5 2.65 4.85 2.95 4.85 3.6 4.5 4.35 4.55 4.35 M-1.9 -2.1 L-1.9 -1.4 3.4 -2.6 3.75 -2.8 3.8 -3.2 1.8 -11.9 1.55 -12.2 1.2 -12.25 -5.55 -10.75 -5.85 -10.5 -5.9 -10.15 -4.55 -4.2 -3.8 -4.2 -2.6 -4.2 -2.4 -4.15 Q-2.0 -4.05 -1.9 -3.6 L-1.9 -2.1 M4.65 3.55 L4.7 3.15 4.4 2.85 -1.8 -0.1 -2.2 -0.1 -2.45 0.15 -6.3 8.25 -6.3 8.6 -6.05 8.9 0.2 11.85 0.6 11.85 0.85 11.6 4.65 3.55 M-2.8 0.35 L-2.65 0.05 -2.1 -0.35 -2.1 -3.45 -2.25 -3.85 -2.6 -3.95 -9.5 -3.95 -9.85 -3.85 -10.0 -3.45 -10.0 5.45 -9.85 5.8 -9.5 5.95 -5.45 5.95 -5.1 5.25 -2.8 0.35 M-1.9 -0.35 L1.55 1.25 1.75 -1.6 -1.9 -0.8 -1.9 -0.35" fill="#000000" fill-rule="evenodd" stroke="none"/>
    <path d="M3.8 -4.25 L9.4 -3.9 8.8 4.6 4.55 4.35 4.5 4.35 4.85 3.6 4.85 2.95 5.65 3.15 Q6.6 3.25 7.25 2.7 7.95 2.15 8.0 1.3 8.05 0.6 7.05 -1.2 L6.05 -2.85 4.85 -1.35 Q3.65 0.35 3.6 1.0 3.55 1.85 4.15 2.5 L3.05 1.95 2.95 1.95 2.5 1.7 2.75 -2.2 3.45 -2.4 3.9 -2.7 4.0 -3.25 3.75 -4.25 3.8 -4.25" fill="#aedae6" fill-rule="evenodd" stroke="none"/>
    <path d="M4.85 2.95 L4.5 2.65 4.15 2.5 Q3.55 1.85 3.6 1.0 3.65 0.35 4.85 -1.35 L6.05 -2.85 7.05 -1.2 Q8.05 0.6 8.0 1.3 7.95 2.15 7.25 2.7 6.6 3.25 5.65 3.15 L4.85 2.95" fill="#26a9e0" fill-rule="evenodd" stroke="none"/>
    <path d="M-1.9 -2.1 L-1.9 -3.6 -0.55 -4.45 1.45 -4.25 0.95 -6.2 1.8 -8.0 -0.25 -8.15 -1.7 -9.5 -2.45 -7.65 -4.2 -6.65 -2.65 -5.35 -2.4 -4.15 -2.6 -4.2 -3.8 -4.2 -5.15 -10.1 1.15 -11.55 3.05 -3.25 -1.9 -2.1" fill="#fff79e" fill-rule="evenodd" stroke="none"/>
    <path d="M-9.1 -0.05 Q-9.1 0.65 -8.45 1.35 L-7.3 2.3 -6.45 3.1 Q-6.1 3.5 -6.05 3.75 L-5.6 3.1 -4.8 2.3 Q-3.0 1.15 -3.0 -0.05 -3.0 -1.5 -4.25 -1.7 -5.45 -1.95 -6.05 -0.7 -6.65 -2.0 -7.85 -1.75 -9.1 -1.5 -9.1 -0.05 M-2.8 0.35 L-5.1 5.25 -9.3 5.25 -9.3 -3.25 -2.8 -3.25 -2.8 0.35" fill="#f59ca8" fill-rule="evenodd" stroke="none"/>
    <path d="M-9.1 -0.05 Q-9.1 -1.5 -7.85 -1.75 -6.65 -2.0 -6.05 -0.7 -5.45 -1.95 -4.25 -1.7 -3.0 -1.5 -3.0 -0.05 -3.0 1.15 -4.8 2.3 L-5.6 3.1 -6.05 3.75 Q-6.1 3.5 -6.45 3.1 L-7.3 2.3 -8.45 1.35 Q-9.1 0.65 -9.1 -0.05" fill="#e33e54" fill-rule="evenodd" stroke="none"/>
    <path d="M-1.9 -3.6 Q-2.0 -4.05 -2.4 -4.15 L-2.65 -5.35 -4.2 -6.65 -2.45 -7.65 -1.7 -9.5 -0.25 -8.15 1.8 -8.0 0.95 -6.2 1.45 -4.25 -0.55 -4.45 -1.9 -3.6" fill="#ffe134" fill-rule="evenodd" stroke="none"/>
    <path d="M1.95 4.9 Q1.4 3.35 0.55 3.9 0.0 4.25 -0.55 5.35 0.05 3.95 -0.2 3.3 -0.4 2.8 -1.15 2.95 L-1.8 3.1 -2.4 3.4 Q-3.05 3.75 -2.9 4.3 -2.7 4.9 -1.3 5.65 -2.5 5.15 -3.15 5.2 -4.1 5.35 -3.55 6.85 -3.0 8.4 -2.15 7.85 -1.6 7.55 -1.05 6.4 -1.55 7.55 -1.45 8.2 -1.35 9.2 0.2 8.65 1.7 8.1 1.2 7.25 0.85 6.7 -0.3 6.1 0.9 6.65 1.55 6.55 2.5 6.4 1.95 4.9 M-5.55 8.35 L-1.9 0.65 3.95 3.4 0.3 11.15 -5.55 8.35" fill="#bfd241" fill-rule="evenodd" stroke="none"/>
    <path d="M1.95 4.9 Q2.5 6.4 1.55 6.55 0.9 6.65 -0.3 6.1 0.85 6.7 1.2 7.25 1.7 8.1 0.2 8.65 -1.35 9.2 -1.45 8.2 -1.55 7.55 -1.05 6.4 -1.6 7.55 -2.15 7.85 -3.0 8.4 -3.55 6.85 -4.1 5.35 -3.15 5.2 -2.5 5.15 -1.3 5.65 -2.7 4.9 -2.9 4.3 -3.05 3.75 -2.4 3.4 L-1.8 3.1 -1.15 2.95 Q-0.4 2.8 -0.2 3.3 0.05 3.95 -0.55 5.35 0.0 4.25 0.55 3.9 1.4 3.35 1.95 4.9" fill="#22b473" fill-rule="evenodd" stroke="none"/>
  </g>
</svg>
