<?xml version="1.0" encoding="UTF-8" standalone="no"?>
<svg xmlns:ffdec="https://www.free-decompiler.com/flash" xmlns:xlink="http://www.w3.org/1999/xlink" ffdec:objectType="shape" height="20.9px" width="25.0px" xmlns="http://www.w3.org/2000/svg">
  <g transform="matrix(1.0, 0.0, 0.0, 1.0, 12.5, 10.45)">
    <path d="M11.6 -0.05 L11.4 0.25 Q10.45 1.7 8.75 2.1 L7.85 2.2 7.4 2.2 8.15 5.5 8.05 5.95 7.7 6.25 7.6 6.7 7.2 6.95 -8.25 10.45 -8.4 10.45 -8.75 10.35 -9.0 9.95 -12.5 -5.45 -12.4 -5.95 -12.05 -6.2 -11.95 -6.65 -11.55 -6.9 -6.1 -8.15 -5.95 -8.15 -5.4 -7.9 Q-5.2 -7.5 -5.4 -7.15 -6.2 -6.1 -5.9 -4.85 -5.7 -3.85 -4.9 -3.25 -4.1 -2.6 -3.1 -2.6 L-2.5 -2.65 Q-1.55 -2.9 -0.95 -3.55 -0.55 -4.45 -0.8 -5.4 -1.05 -6.65 -2.2 -7.25 -2.6 -7.5 -2.55 -7.9 L-2.35 -8.3 -2.1 -8.45 -2.1 -8.65 Q-2.05 -9.1 -1.6 -9.15 L3.85 -10.4 4.0 -10.45 4.35 -10.3 4.65 -9.9 5.55 -5.8 Q6.35 -6.45 7.4 -6.7 L8.35 -6.8 Q9.8 -6.8 10.95 -5.9 12.05 -5.0 12.4 -3.6 12.75 -1.85 11.85 -0.45 L11.6 -0.05 M10.2 -5.65 Q8.95 -6.4 7.55 -6.05 6.0 -5.75 5.25 -4.35 L4.0 -9.75 -1.45 -8.55 Q-0.05 -7.8 0.3 -6.25 0.65 -4.8 -0.15 -3.6 -0.9 -2.35 -2.35 -2.05 -3.75 -1.7 -5.0 -2.5 -6.2 -3.25 -6.55 -4.7 -6.9 -6.25 -5.95 -7.5 L-11.4 -6.3 -7.9 9.1 7.5 5.65 6.25 0.2 Q7.55 1.15 9.1 0.8 10.5 0.45 11.3 -0.8 12.05 -2.0 11.75 -3.45 11.45 -4.85 10.2 -5.65" fill="#000000" fill-rule="evenodd" stroke="none"/>
    <path d="M10.2 -5.65 Q11.45 -4.85 11.75 -3.45 12.05 -2.0 11.3 -0.8 10.5 0.45 9.1 0.8 7.55 1.15 6.25 0.2 L7.5 5.65 -7.9 9.1 -11.4 -6.3 -5.95 -7.5 Q-6.9 -6.25 -6.55 -4.7 -6.2 -3.25 -5.0 -2.5 -3.75 -1.7 -2.35 -2.05 -0.9 -2.35 -0.15 -3.6 0.65 -4.8 0.3 -6.25 -0.05 -7.8 -1.45 -8.55 L4.0 -9.75 5.25 -4.35 Q6.0 -5.75 7.55 -6.05 8.95 -6.4 10.2 -5.65" fill="#ffffff" fill-rule="evenodd" stroke="none"/>
  </g>
</svg>
