<?xml version="1.0" encoding="UTF-8" standalone="no"?>
<svg xmlns:ffdec="https://www.free-decompiler.com/flash" xmlns:xlink="http://www.w3.org/1999/xlink" ffdec:objectType="shape" height="22.8px" width="25.0px" xmlns="http://www.w3.org/2000/svg">
  <g transform="matrix(1.0, 0.0, 0.0, 1.0, 12.5, 11.4)">
    <path d="M9.45 -0.95 L9.65 -1.2 9.7 -1.2 9.75 -1.3 10.1 -1.55 9.4 -1.5 9.15 -1.4 8.75 -0.85 8.3 -0.4 8.0 -0.05 7.65 0.1 7.45 0.15 5.5 0.35 3.8 0.7 Q3.15 1.0 2.75 1.6 L2.45 2.5 Q2.3 3.45 2.65 4.5 L2.75 4.85 2.8 4.95 2.85 5.1 2.85 5.15 3.6 6.15 3.9 6.35 4.65 6.7 5.65 6.95 6.5 7.05 7.45 7.05 Q8.75 7.05 9.75 6.35 10.45 5.9 10.7 5.05 11.0 4.1 10.65 3.25 L9.75 1.8 8.75 0.5 9.15 -0.65 9.45 -0.95 M8.45 -1.1 L8.6 -1.3 8.85 -1.65 9.15 -1.8 9.3 -1.85 10.1 -1.9 10.55 -1.7 10.6 -1.55 10.5 -1.35 10.5 -1.3 10.45 -1.3 10.35 -1.25 10.0 -1.0 9.75 -0.75 9.55 -0.5 9.25 0.0 9.1 0.35 10.0 1.55 11.0 3.15 Q11.4 4.05 11.05 5.15 10.7 6.15 9.95 6.65 8.85 7.4 7.45 7.4 L5.8 7.3 5.95 7.75 6.0 7.8 6.0 7.85 5.75 8.05 5.45 7.75 5.0 7.65 4.9 7.65 4.9 7.9 4.85 7.95 4.75 8.0 4.65 8.0 4.6 7.9 4.55 7.85 4.4 7.6 3.7 6.85 3.6 6.75 3.3 6.7 2.85 6.35 2.65 6.15 2.55 5.8 2.65 5.8 2.95 5.75 3.1 5.7 2.4 4.6 Q1.95 3.55 2.05 2.4 L2.45 1.4 Q2.9 0.7 3.65 0.35 L5.45 -0.05 7.35 -0.2 7.7 -0.35 8.05 -0.65 8.45 -1.1" fill="#784810" fill-rule="evenodd" stroke="none"/>
    <path d="M9.15 -1.4 L9.4 -1.5 10.1 -1.55 9.75 -1.3 9.7 -1.2 9.65 -1.2 8.95 -1.1 9.15 -1.4 M5.65 2.45 L4.85 2.7 4.1 2.45 Q3.8 2.2 3.8 1.85 3.8 1.5 4.1 1.2 L4.85 0.95 Q5.35 0.95 5.65 1.2 L6.0 1.85 5.65 2.45" fill="#ffe9cc" fill-rule="evenodd" stroke="none"/>
    <path d="M9.45 -0.95 L9.15 -0.65 8.75 0.5 9.75 1.8 10.65 3.25 Q11.0 4.1 10.7 5.05 10.45 5.9 9.75 6.35 8.75 7.05 7.45 7.05 L6.5 7.05 5.65 6.95 4.65 6.7 3.9 6.35 3.6 6.15 2.85 5.15 2.85 5.1 2.8 4.95 Q3.4 5.55 4.25 5.85 4.65 5.0 5.55 4.05 L7.2 2.35 4.85 5.9 5.2 5.85 5.55 5.75 5.65 5.75 5.95 5.6 6.0 5.6 6.7 5.15 6.8 5.1 7.1 4.8 7.75 3.95 7.9 3.7 8.1 3.35 8.4 2.0 8.4 1.45 8.35 1.15 8.45 1.7 Q8.85 3.0 8.3 4.2 L8.3 4.25 8.0 4.8 7.85 4.95 7.8 5.05 7.65 5.2 7.65 5.3 6.95 5.9 6.9 5.9 6.65 6.05 6.6 6.1 8.0 5.55 Q9.2 4.9 9.15 3.45 L9.0 2.25 8.75 0.95 8.7 0.8 8.25 0.6 7.9 0.25 7.9 0.2 8.6 0.3 8.6 -0.45 9.6 -1.15 9.45 -0.95" fill="#b0701b" fill-rule="evenodd" stroke="none"/>
    <path d="M2.8 4.95 L2.75 4.85 2.65 4.5 Q2.3 3.45 2.45 2.5 L2.75 1.6 Q3.15 1.0 3.8 0.7 L5.5 0.35 7.45 0.15 7.65 0.1 8.0 -0.05 8.3 -0.4 8.75 -0.85 8.95 -1.1 9.65 -1.2 9.6 -1.15 8.6 -0.45 8.6 0.3 7.9 0.2 7.9 0.25 8.25 0.6 8.7 0.8 8.75 0.95 9.0 2.25 9.15 3.45 Q9.2 4.9 8.0 5.55 L6.6 6.1 6.65 6.05 6.9 5.9 6.95 5.9 7.65 5.3 7.65 5.2 7.8 5.05 7.85 4.95 8.0 4.8 8.3 4.25 8.3 4.2 Q8.85 3.0 8.45 1.7 L8.35 1.15 8.4 1.45 8.4 2.0 8.1 3.35 7.9 3.7 7.75 3.9 7.75 3.95 7.1 4.8 6.7 5.15 6.0 5.6 5.95 5.6 5.65 5.75 5.55 5.75 5.2 5.85 4.85 5.9 7.2 2.35 5.55 4.05 Q4.65 5.0 4.25 5.85 3.4 5.55 2.8 4.95 M5.65 2.45 L6.0 1.85 5.65 1.2 Q5.35 0.95 4.85 0.95 L4.1 1.2 Q3.8 1.5 3.8 1.85 3.8 2.2 4.1 2.45 L4.85 2.7 5.65 2.45" fill="#e99337" fill-rule="evenodd" stroke="none"/>
    <path d="M8.45 -1.1 L8.05 -0.65 6.25 -1.65 0.65 1.5 0.65 6.35 6.25 9.4 11.85 6.35 11.85 1.5 9.25 0.0 9.55 -0.5 12.5 1.1 12.5 6.7 6.25 10.15 0.0 6.7 -6.25 10.15 -12.5 6.7 -12.5 1.1 -6.25 -2.35 -6.25 -7.95 -4.55 -8.85 -4.55 -8.8 -4.5 -8.25 -4.5 -8.2 -5.65 -7.6 -5.65 -2.7 0.0 0.4 5.6 -2.7 5.6 -7.6 4.6 -8.15 4.6 -8.8 6.15 -7.95 6.15 -2.35 3.85 -1.05 6.25 -2.35 8.45 -1.1 M-3.2 -9.65 L0.0 -11.4 2.8 -9.8 2.3 -9.9 1.1 -10.05 0.0 -10.65 -1.25 -10.0 -2.05 -9.9 -2.0 -9.55 -2.5 -9.3 -2.9 -9.4 -3.2 -9.65 M-8.5 8.2 L-6.25 9.4 -0.65 6.35 -0.65 1.5 -1.25 1.1 -2.0 0.0 -2.75 -0.8 -3.1 -0.85 -3.55 -0.85 -3.7 -0.85 -3.75 -0.95 -3.9 -1.5 -4.5 -1.4 -4.85 -0.85 -6.25 -1.65 -11.85 1.5 -11.85 6.35 -8.95 7.95 -8.5 8.2" fill="#ffffff" fill-rule="evenodd" stroke="none"/>
    <path d="M8.05 -0.65 L7.7 -0.35 7.35 -0.2 5.45 -0.05 3.65 0.35 Q2.9 0.7 2.45 1.4 L2.05 2.4 Q1.95 3.55 2.4 4.6 L3.1 5.7 2.95 5.75 2.65 5.8 2.55 5.8 2.65 6.15 2.85 6.35 3.3 6.7 3.6 6.75 3.7 6.85 4.4 7.6 4.55 7.85 4.6 7.9 4.65 8.0 4.75 8.0 4.85 7.95 4.9 7.9 4.9 7.65 5.0 7.65 5.45 7.75 5.75 8.05 6.0 7.85 6.0 7.8 5.95 7.75 5.8 7.3 7.45 7.4 Q8.85 7.4 9.95 6.65 10.7 6.15 11.05 5.15 11.4 4.05 11.0 3.15 L10.0 1.55 9.1 0.35 9.25 0.0 11.85 1.5 11.85 6.35 6.25 9.4 0.65 6.35 0.65 1.5 6.25 -1.65 8.05 -0.65" fill="#80cfff" fill-rule="evenodd" stroke="none"/>
    <path d="M12.5 6.7 L12.5 8.0 6.25 11.4 0.0 8.0 -6.25 11.4 -12.5 8.0 -12.5 6.7 -6.25 10.15 0.0 6.7 6.25 10.15 12.5 6.7" fill="#231f20" fill-rule="evenodd" stroke="none"/>
    <path d="M-4.55 -8.85 L-4.5 -9.05 -4.45 -9.05 -4.25 -9.2 -3.45 -9.55 -3.2 -9.7 -3.2 -9.65 -2.9 -9.4 -2.5 -9.3 -2.35 -9.35 -2.0 -9.55 -2.05 -9.9 -1.25 -10.0 0.3 -10.05 1.1 -10.05 2.3 -9.9 2.8 -9.8 3.7 -9.55 4.45 -9.1 4.55 -9.0 4.6 -8.8 4.6 -8.15 4.6 -8.1 4.55 -6.65 4.05 -6.5 3.95 -6.3 4.05 -6.2 4.55 -6.35 4.55 -5.5 4.15 -5.1 3.8 -4.9 2.05 -3.5 -1.0 -1.35 1.8 -3.75 3.6 -5.15 3.9 -5.4 4.15 -5.5 4.15 -5.9 3.8 -5.65 3.5 -5.85 3.65 -6.7 Q3.9 -7.15 4.2 -6.9 L4.25 -8.75 4.2 -8.8 4.2 -8.85 3.55 -9.2 2.3 -9.55 1.3 -9.7 0.9 -9.7 -1.6 -9.6 -1.6 -9.55 Q-1.6 -9.3 -1.9 -9.1 -2.15 -8.9 -2.5 -8.9 -3.0 -8.9 -3.3 -9.2 L-4.05 -8.85 -4.1 -8.85 -4.15 -8.8 -4.15 -8.75 -3.9 -6.65 -3.85 -5.9 -3.7 -5.4 -3.55 -5.15 -3.55 -5.1 -3.4 -4.9 -2.75 -4.8 Q-2.4 -4.5 -2.5 -4.05 L-2.7 -3.85 -1.55 -1.85 -1.5 -1.8 -1.3 -1.4 -3.1 -3.9 -2.9 -4.0 -2.85 -4.2 -2.95 -4.55 -3.2 -4.65 -3.55 -4.45 -4.05 -5.15 -4.2 -5.85 -4.25 -6.6 -4.5 -8.2 -4.5 -8.25 -4.55 -8.8 -4.55 -8.85 M-1.15 -2.25 L-1.5 -3.05 Q-1.55 -3.7 -1.1 -3.65 L-0.25 -3.6 Q-0.1 -3.5 -0.1 -3.15 -0.3 -3.4 -0.6 -3.35 L-1.05 -3.05 -1.15 -2.25 M2.9 -6.6 L2.4 -6.55 Q2.1 -6.6 2.2 -7.0 L2.4 -7.35 2.8 -7.45 3.1 -7.15 3.05 -7.15 2.75 -7.1 2.6 -6.85 Q2.6 -6.65 2.9 -6.6 M1.85 -5.25 L1.45 -4.9 1.55 -4.45 1.7 -4.55 1.85 -4.55 1.45 -4.3 1.2 -4.2 Q0.75 -4.1 0.8 -4.55 L1.15 -5.15 1.45 -5.3 1.85 -5.25" fill="#a08211" fill-rule="evenodd" stroke="none"/>
    <path d="M-4.1 -8.85 L-4.05 -8.8 -3.35 -7.95 -3.2 -7.35 -2.9 -6.85 -3.0 -7.85 -2.7 -7.8 -2.4 -7.8 -2.3 -7.45 Q-2.35 -7.2 -2.55 -7.05 L-1.15 -5.45 -1.1 -5.45 -1.1 -3.65 Q-1.55 -3.7 -1.5 -3.05 L-1.15 -2.25 -1.15 -1.25 -1.2 -1.2 -1.3 -1.4 -1.5 -1.8 -1.55 -1.85 -2.7 -3.85 -2.5 -4.05 Q-2.4 -4.5 -2.75 -4.8 L-3.4 -4.9 -3.55 -5.1 -3.55 -5.15 -3.7 -5.4 -3.85 -5.9 -3.9 -6.65 -4.15 -8.75 -4.15 -8.8 -4.1 -8.85 M1.85 -8.5 Q1.45 -8.05 0.85 -8.2 0.6 -8.2 0.4 -8.35 0.15 -8.55 0.3 -8.85 L0.85 -9.1 1.5 -9.1 1.9 -8.65 1.85 -8.5 M2.9 -6.6 Q2.6 -6.65 2.6 -6.85 L2.75 -7.1 3.05 -7.15 3.1 -7.15 3.1 -6.85 2.9 -6.6 M0.95 -6.55 Q0.85 -5.5 0.15 -5.25 -0.5 -5.05 -0.7 -5.5 -0.15 -5.3 0.55 -5.8 L0.95 -6.55 M1.85 -5.25 L2.05 -4.9 2.05 -4.8 1.85 -4.55 1.7 -4.55 1.55 -4.45 1.45 -4.9 1.85 -5.25 M-0.1 -3.15 Q-0.15 -2.75 -0.35 -2.6 -0.85 -2.15 -1.15 -2.25 L-1.05 -3.05 -0.6 -3.35 Q-0.3 -3.4 -0.1 -3.15" fill="#dfc140" fill-rule="evenodd" stroke="none"/>
    <path d="M-3.35 -7.95 L-4.05 -8.8 -4.1 -8.85 -4.05 -8.85 -3.3 -9.2 Q-3.0 -8.9 -2.5 -8.9 -2.15 -8.9 -1.9 -9.1 -1.6 -9.3 -1.6 -9.55 L-1.6 -9.6 0.9 -9.7 1.3 -9.7 2.3 -9.55 3.55 -9.2 4.2 -8.85 4.2 -8.8 0.95 -6.8 0.25 -7.05 -0.65 -6.85 -0.95 -6.3 Q-0.95 -5.85 -0.75 -5.75 L-1.15 -5.45 -2.55 -7.05 Q-2.35 -7.2 -2.3 -7.45 L-2.4 -7.8 -2.8 -8.05 -3.35 -8.0 -3.35 -7.95 M1.5 -9.1 L0.75 -9.35 -0.05 -9.1 -0.4 -8.65 Q-0.4 -8.35 -0.05 -8.15 L0.75 -7.95 1.45 -8.15 1.85 -8.5 1.9 -8.65 1.5 -9.1" fill="#ffe45a" fill-rule="evenodd" stroke="none"/>
    <path d="M-1.3 -1.4 L-1.2 -1.2 -1.15 -1.25 -1.0 -1.35 2.05 -3.5 3.8 -4.9 4.15 -5.1 4.55 -5.5 4.55 -6.35 4.05 -6.2 3.95 -6.3 4.05 -6.5 4.55 -6.65 4.6 -8.1 4.6 -8.15 5.6 -7.6 5.6 -2.7 0.0 0.4 -5.65 -2.7 -5.65 -7.6 -4.5 -8.2 -4.25 -6.6 -4.2 -5.85 -4.05 -5.15 -3.55 -4.45 -3.2 -4.65 -2.95 -4.55 -2.85 -4.2 -2.9 -4.0 -3.1 -3.9 -1.3 -1.4 M-2.0 -9.55 L-2.35 -9.35 -2.5 -9.3 -2.0 -9.55 M-1.25 -10.0 L0.0 -10.65 1.1 -10.05 0.3 -10.05 -1.25 -10.0" fill="#ff91d1" fill-rule="evenodd" stroke="none"/>
    <path d="M-3.35 -7.95 L-3.35 -8.0 -2.8 -8.05 -2.4 -7.8 -2.7 -7.8 -3.0 -7.85 -2.9 -6.85 -3.2 -7.35 -3.35 -7.95 M-0.75 -5.75 Q-0.95 -5.85 -0.95 -6.3 L-0.65 -6.85 0.25 -7.05 0.95 -6.8 4.2 -8.8 4.25 -8.75 4.2 -6.9 Q3.9 -7.15 3.65 -6.7 L3.5 -5.85 3.8 -5.65 4.15 -5.9 4.15 -5.5 3.9 -5.4 3.6 -5.15 1.8 -3.75 -1.0 -1.35 -1.15 -1.25 -1.15 -2.25 Q-0.85 -2.15 -0.35 -2.6 -0.15 -2.75 -0.1 -3.15 -0.1 -3.5 -0.25 -3.6 L-1.1 -3.65 -1.1 -5.45 -0.75 -5.75 M1.85 -8.5 L1.45 -8.15 0.75 -7.95 -0.05 -8.15 Q-0.4 -8.35 -0.4 -8.65 L-0.05 -9.1 0.75 -9.35 1.5 -9.1 0.85 -9.1 0.3 -8.85 Q0.15 -8.55 0.4 -8.35 0.6 -8.2 0.85 -8.2 1.45 -8.05 1.85 -8.5 M3.1 -7.15 L2.8 -7.45 2.4 -7.35 2.2 -7.0 Q2.1 -6.6 2.4 -6.55 L2.9 -6.6 3.1 -6.85 3.1 -7.15 M0.95 -6.55 L0.55 -5.8 Q-0.15 -5.3 -0.7 -5.5 -0.5 -5.05 0.15 -5.25 0.85 -5.5 0.95 -6.55 M1.85 -4.55 L2.05 -4.8 2.05 -4.9 1.85 -5.25 1.45 -5.3 1.15 -5.15 0.8 -4.55 Q0.75 -4.1 1.2 -4.2 L1.45 -4.3 1.85 -4.55" fill="#c8a41b" fill-rule="evenodd" stroke="none"/>
    <path d="M-8.5 8.2 L-7.8 8.1 Q-7.6 8.0 -7.65 7.2 L-7.9 6.15 Q-6.95 6.75 -5.9 6.6 -4.85 6.4 -4.1 5.65 -3.3 4.95 -3.0 3.95 -2.75 2.9 -3.25 1.9 L-2.05 1.95 Q-1.3 1.9 -1.05 1.5 L-1.1 1.3 -1.2 1.25 -1.25 1.1 -0.65 1.5 -0.65 6.35 -6.25 9.4 -8.5 8.2 M-4.85 -0.85 L-4.95 0.1 -7.05 -0.15 Q-8.05 0.1 -8.8 0.85 -9.55 1.65 -9.7 2.65 -9.85 3.7 -9.15 4.6 -9.85 4.4 -11.1 4.6 L-11.15 4.95 -10.45 5.35 Q-10.8 5.8 -10.2 6.5 L-9.25 7.6 -8.95 7.95 -11.85 6.35 -11.85 1.5 -6.25 -1.65 -4.85 -0.85" fill="#fff100" fill-rule="evenodd" stroke="none"/>
    <path d="M-1.25 1.1 L-1.2 1.25 -1.1 1.3 -1.05 1.5 Q-1.3 1.9 -2.05 1.95 L-3.25 1.9 Q-2.75 2.9 -3.0 3.95 -3.3 4.95 -4.1 5.65 -4.85 6.4 -5.9 6.6 -6.95 6.75 -7.9 6.15 L-7.65 7.2 Q-7.6 8.0 -7.8 8.1 L-8.5 8.2 -8.95 7.95 -9.25 7.6 -10.2 6.5 Q-10.8 5.8 -10.45 5.35 L-11.15 4.95 -11.1 4.6 Q-9.85 4.4 -9.15 4.6 -9.85 3.7 -9.7 2.65 -9.55 1.65 -8.8 0.85 -8.05 0.1 -7.05 -0.15 L-4.95 0.1 -4.85 -0.85 -4.5 -1.4 -3.9 -1.5 -3.75 -0.95 -3.7 -0.85 -3.55 -0.85 -3.1 -0.85 -2.75 -0.8 -2.0 0.0 -1.25 1.1 M-9.15 7.1 L-9.0 7.3 -8.9 7.4 -8.9 7.45 -8.7 7.65 -8.45 7.8 -8.3 7.85 -8.15 7.85 -8.05 6.7 -8.35 5.55 Q-7.4 6.25 -6.15 6.1 -5.0 5.9 -4.15 5.1 -3.3 4.3 -3.2 3.35 -3.2 2.25 -4.2 1.5 L-2.05 1.55 -1.5 1.4 -1.7 1.15 -1.75 1.1 -1.8 1.0 -1.8 0.95 -2.3 0.25 -2.5 -0.15 -2.65 -0.2 -2.65 -0.25 -2.8 -0.4 -2.85 -0.4 -2.9 -0.45 -3.7 -0.55 Q-4.1 -0.55 -4.25 -1.1 L-4.6 -0.4 -4.6 0.2 -4.6 0.4 -4.6 0.45 -4.55 0.7 -4.45 1.05 -4.7 0.85 -5.35 0.45 -5.45 0.4 -5.55 0.4 -5.6 0.3 -6.1 0.2 -6.65 0.2 -7.5 0.45 -7.75 0.6 -8.35 1.05 -8.6 1.3 -9.05 1.95 -9.4 2.7 -9.5 3.25 -9.5 3.45 -9.35 4.1 -9.1 4.5 -9.0 4.6 -8.85 4.75 -8.65 4.85 -9.2 4.85 -9.75 4.85 -10.45 4.9 -10.15 5.1 -10.05 5.45 -10.2 5.85 -9.9 6.25 -9.65 6.45 -9.5 6.6 -9.15 7.1" fill="#2f85ab" fill-rule="evenodd" stroke="none"/>
    <path d="M-2.3 0.25 L-1.8 0.95 -1.8 1.0 -1.75 1.1 -1.7 1.15 -1.5 1.4 -2.05 1.55 -4.2 1.5 Q-3.2 2.25 -3.2 3.35 -3.3 4.3 -4.15 5.1 -5.0 5.9 -6.15 6.1 -7.4 6.25 -8.35 5.55 L-8.05 6.7 -8.15 7.85 -8.3 7.85 -8.45 7.8 -8.7 7.65 -8.9 7.45 -8.9 7.4 -9.0 7.3 -9.15 7.1 -9.45 6.65 -8.95 6.45 -8.65 5.95 -8.7 5.25 -9.1 5.55 -9.65 5.6 -9.15 5.3 Q-8.95 5.1 -9.2 4.85 L-8.65 4.85 -8.85 4.75 -9.0 4.6 Q-9.15 4.15 -8.95 3.75 L-8.6 3.0 -8.7 3.9 -8.45 4.65 -8.3 4.3 -8.0 3.95 -8.25 4.8 Q-6.5 5.1 -5.3 4.3 -3.95 3.45 -4.3 1.7 -4.4 1.3 -4.75 1.5 L-5.1 2.05 Q-5.3 1.7 -5.05 1.5 -4.8 1.25 -4.4 1.25 -4.95 0.7 -5.7 0.55 L-5.45 0.4 -5.35 0.45 -4.7 0.85 -4.45 1.05 -4.6 0.45 -4.6 0.4 -4.4 0.9 -4.4 0.25 -4.05 -0.3 -4.1 0.3 -3.9 0.75 Q-3.65 1.15 -3.1 1.15 L-2.4 0.75 -2.3 0.25" fill="#4aafe5" fill-rule="evenodd" stroke="none"/>
    <path d="M-2.3 0.25 L-2.4 0.75 -3.1 1.15 Q-3.65 1.15 -3.9 0.75 L-4.1 0.3 -4.05 -0.3 -4.4 0.25 -4.4 0.9 -4.6 0.4 -4.6 0.2 -4.6 -0.4 -4.25 -1.1 Q-4.1 -0.55 -3.7 -0.55 L-2.9 -0.45 -2.85 -0.4 -2.8 -0.4 -2.65 -0.25 -2.65 -0.2 -2.5 -0.15 -2.3 0.25 M-5.45 0.4 L-5.7 0.55 Q-4.95 0.7 -4.4 1.25 -4.8 1.25 -5.05 1.5 -5.3 1.7 -5.1 2.05 L-4.75 1.5 Q-4.4 1.3 -4.3 1.7 -3.95 3.45 -5.3 4.3 -6.5 5.1 -8.25 4.8 L-8.0 3.95 -8.3 4.3 -8.45 4.65 -8.7 3.9 -8.6 3.0 -8.95 3.75 Q-9.15 4.15 -9.0 4.6 L-9.1 4.5 -9.35 4.1 -9.5 3.45 -9.4 2.7 -9.05 1.95 -8.6 1.3 -8.35 1.05 -7.75 0.6 -7.5 0.45 -6.65 0.2 -6.1 0.2 -5.6 0.3 -5.55 0.4 -5.45 0.4 M-9.2 4.85 Q-8.95 5.1 -9.15 5.3 L-9.65 5.6 -9.1 5.55 -8.7 5.25 -8.65 5.95 -8.95 6.45 -9.45 6.65 -9.5 6.6 -9.65 6.45 -9.9 6.25 -10.2 5.85 -10.05 5.45 -10.15 5.1 -10.45 4.9 -9.2 4.85 M-8.8 2.6 L-8.75 2.85 -8.55 3.0 -8.25 2.9 -8.1 2.7 -8.15 2.4 -8.35 2.3 -8.65 2.35 -8.8 2.6 M-8.3 1.5 Q-8.45 1.85 -8.25 2.05 -8.1 2.3 -7.75 2.3 L-7.05 2.05 -6.5 1.5 Q-6.35 1.15 -6.55 0.9 -6.7 0.65 -7.05 0.65 -7.4 0.65 -7.75 0.9 L-8.3 1.5" fill="#78caff" fill-rule="evenodd" stroke="none"/>
    <path d="M-8.3 1.5 L-7.75 0.9 Q-7.4 0.65 -7.05 0.65 -6.7 0.65 -6.55 0.9 -6.35 1.15 -6.5 1.5 L-7.05 2.05 -7.75 2.3 Q-8.1 2.3 -8.25 2.05 -8.45 1.85 -8.3 1.5 M-8.8 2.6 L-8.65 2.35 -8.35 2.3 -8.15 2.4 -8.1 2.7 -8.25 2.9 -8.55 3.0 -8.75 2.85 -8.8 2.6" fill="#edf9ff" fill-rule="evenodd" stroke="none"/>
  </g>
</svg>
