<?xml version="1.0" encoding="UTF-8" standalone="no"?>
<svg xmlns:ffdec="https://www.free-decompiler.com/flash" xmlns:xlink="http://www.w3.org/1999/xlink" ffdec:objectType="shape" height="25.0px" width="18.3px" xmlns="http://www.w3.org/2000/svg">
  <g transform="matrix(1.0, 0.0, 0.0, 1.0, 9.15, 12.5)">
    <path d="M-5.7 -5.75 L-6.05 -5.5 Q-5.4 -8.4 -3.3 -10.5 -1.35 -12.5 0.45 -12.5 2.0 -12.45 3.6 -10.7 5.35 -8.8 6.05 -6.1 L5.95 -6.1 5.3 -8.1 4.55 -9.35 Q4.9 -7.8 4.85 -6.75 L3.2 -7.65 2.15 -6.3 -0.15 -7.45 -2.05 -5.9 -3.25 -7.6 -5.7 -5.75 M4.4 2.9 L6.05 3.6 5.05 3.25 3.9 2.7 4.4 2.9 M6.4 7.55 L6.35 7.95 Q6.15 10.0 4.3 11.3 2.65 12.5 0.35 12.5 2.05 12.4 3.65 11.65 5.8 10.55 6.25 8.35 L6.4 7.55 M-1.25 12.4 Q-2.6 12.15 -3.75 11.4 -5.7 10.1 -6.15 7.75 -6.45 6.0 -6.05 4.2 L-4.55 3.3 -5.2 3.7 -3.4 2.9 -2.1 4.4 -0.05 3.05 2.4 4.2 3.6 3.05 4.9 3.25 Q4.65 5.35 3.35 7.15 2.15 8.8 0.4 9.55 L-3.05 9.8 Q-4.9 9.2 -6.15 7.1 -6.0 8.75 -5.1 10.05 -4.2 11.25 -2.75 11.9 L-1.25 12.4 M-4.4 -6.5 L-4.6 -6.4 -4.3 -6.6 -4.4 -6.5 M2.45 -10.4 L2.0 -11.2 1.25 -11.7 0.4 -11.65 Q0.2 -11.5 0.25 -11.05 L0.6 -10.25 Q1.35 -9.15 2.1 -9.7 2.5 -10.0 2.45 -10.4" fill="#e3efc8" fill-rule="evenodd" stroke="none"/>
    <path d="M-2.6 -4.8 Q-2.25 -4.2 -2.8 -3.95 -3.55 -3.6 -3.85 -4.15 L-3.9 -4.6 -3.6 -5.0 Q-3.0 -5.35 -2.6 -4.8 M-3.1 -4.55 Q-2.8 -4.6 -2.85 -4.85 L-3.2 -4.95 -3.45 -4.65 -3.1 -4.55 M2.75 -4.15 Q2.65 -4.4 2.7 -4.6 L3.0 -5.0 Q3.6 -5.35 4.0 -4.8 L4.1 -4.3 3.8 -3.95 Q3.05 -3.6 2.75 -4.15 M3.7 -4.85 L3.35 -4.95 3.15 -4.65 Q3.15 -4.5 3.45 -4.55 L3.7 -4.85" fill="#231f20" fill-rule="evenodd" stroke="none"/>
    <path d="M-2.6 -4.8 Q-3.0 -5.35 -3.6 -5.0 L-3.9 -4.6 -3.85 -4.15 Q-3.55 -3.6 -2.8 -3.95 -2.25 -4.2 -2.6 -4.8 M-2.95 -6.7 L-2.05 -5.5 -0.1 -7.1 2.3 -5.8 3.0 -6.7 Q3.95 -6.15 4.25 -5.25 4.65 -4.25 4.15 -3.2 3.7 -2.1 2.4 -1.35 L2.05 -1.1 2.3 -1.2 Q3.05 -0.6 3.15 0.25 L3.15 0.7 3.0 1.25 2.5 1.9 Q1.6 2.65 0.1 2.55 -1.4 2.45 -2.25 1.8 -2.95 1.25 -2.95 0.45 -3.0 -0.3 -2.35 -0.95 L-2.2 -1.15 -1.35 -0.9 -2.5 -1.6 Q-3.5 -2.35 -3.95 -3.4 -4.35 -4.35 -4.1 -5.25 -3.85 -6.15 -2.95 -6.7 M-1.9 -3.25 L-1.15 -2.5 0.0 -1.6 1.15 -2.5 1.8 -3.4 1.25 -4.3 Q0.6 -5.25 0.15 -5.25 L-1.1 -4.3 -1.9 -3.25 M2.75 -4.15 Q3.05 -3.6 3.8 -3.95 L4.1 -4.3 4.0 -4.8 Q3.6 -5.35 3.0 -5.0 L2.7 -4.6 Q2.65 -4.4 2.75 -4.15 M7.7 -0.45 Q8.9 0.2 8.6 0.65 L7.25 0.75 Q6.3 0.4 6.6 -0.25 L7.0 -0.55 7.7 -0.45 M-7.55 -0.35 L-6.85 -0.5 -6.55 -0.1 Q-6.35 0.6 -7.35 1.05 -8.35 1.45 -8.25 0.7 -8.2 0.0 -7.55 -0.35" fill="#ffcc40" fill-rule="evenodd" stroke="none"/>
    <path d="M-5.7 -5.75 L-3.25 -7.6 -2.05 -5.9 -0.15 -7.45 2.15 -6.3 3.2 -7.65 4.85 -6.75 Q4.9 -7.8 4.55 -9.35 L5.3 -8.1 5.95 -6.1 6.0 -6.0 4.8 -6.6 4.6 -6.7 3.4 -7.2 3.0 -6.7 2.3 -5.8 -0.1 -7.1 -2.05 -5.5 -2.95 -6.7 -3.3 -7.2 -4.3 -6.6 -4.6 -6.4 -5.7 -5.75 M6.05 3.6 Q6.5 5.85 6.4 7.4 L6.4 7.55 6.25 8.35 Q5.8 10.55 3.65 11.65 2.05 12.4 0.35 12.5 L-1.25 12.4 -2.75 11.9 Q-4.2 11.25 -5.1 10.05 -6.0 8.75 -6.15 7.1 -4.9 9.2 -3.05 9.8 L0.4 9.55 Q2.15 8.8 3.35 7.15 4.65 5.35 4.9 3.25 L5.05 3.25 6.05 3.6" fill="#bac698" fill-rule="evenodd" stroke="none"/>
    <path d="M4.6 -6.7 Q5.2 -5.45 5.1 -4.2 4.95 -2.85 3.85 -2.05 L2.8 -1.35 3.55 -0.15 Q4.4 -1.65 6.65 -1.05 L8.35 -0.25 Q9.1 0.3 9.15 0.7 L9.0 1.45 8.25 1.5 7.15 1.35 5.75 1.35 4.45 1.75 4.2 1.8 4.35 2.6 4.4 2.9 3.9 2.7 3.4 2.5 2.3 3.9 -0.1 2.6 -2.05 4.2 -3.3 2.5 -3.95 2.9 -3.95 2.8 -3.75 1.6 -4.3 1.5 -5.65 1.3 -7.05 1.45 -8.15 1.75 -8.85 1.75 -9.15 1.05 Q-9.15 0.65 -8.45 0.0 L-6.85 -1.0 Q-4.4 -1.95 -3.35 -0.05 L-3.35 0.0 -2.75 -1.25 -2.7 -1.35 -3.9 -2.15 Q-4.75 -3.05 -4.8 -4.4 -4.85 -5.45 -4.4 -6.5 L-4.3 -6.6 -3.3 -7.2 -2.95 -6.7 Q-3.85 -6.15 -4.1 -5.25 -4.35 -4.35 -3.95 -3.4 -3.5 -2.35 -2.5 -1.6 L-1.35 -0.9 -2.2 -1.15 -2.35 -0.95 Q-3.0 -0.3 -2.95 0.45 -2.95 1.25 -2.25 1.8 -1.4 2.45 0.1 2.55 1.6 2.65 2.5 1.9 L3.0 1.25 3.15 0.7 3.15 0.25 Q3.05 -0.6 2.3 -1.2 L2.05 -1.1 2.4 -1.35 Q3.7 -2.1 4.15 -3.2 4.65 -4.25 4.25 -5.25 3.95 -6.15 3.0 -6.7 L3.4 -7.2 4.6 -6.7 M7.7 -0.45 L7.0 -0.55 6.6 -0.25 Q6.3 0.4 7.25 0.75 L8.6 0.65 Q8.9 0.2 7.7 -0.45 M-7.55 -0.35 Q-8.2 0.0 -8.25 0.7 -8.35 1.45 -7.35 1.05 -6.35 0.6 -6.55 -0.1 L-6.85 -0.5 -7.55 -0.35" fill="#e4ae2b" fill-rule="evenodd" stroke="none"/>
    <path d="M-4.55 3.3 L-3.95 2.9 -3.3 2.5 -2.05 4.2 -0.1 2.6 2.3 3.9 3.4 2.5 3.9 2.7 5.05 3.25 4.9 3.25 3.6 3.05 2.4 4.2 -0.05 3.05 -2.1 4.4 -3.4 2.9 -5.2 3.7 -4.55 3.3 M-3.1 -4.55 L-3.45 -4.65 -3.2 -4.95 -2.85 -4.85 Q-2.8 -4.6 -3.1 -4.55 M2.45 -10.4 Q2.5 -10.0 2.1 -9.7 1.35 -9.15 0.6 -10.25 L0.25 -11.05 Q0.2 -11.5 0.4 -11.65 L1.25 -11.7 2.0 -11.2 2.45 -10.4 M3.7 -4.85 L3.45 -4.55 Q3.15 -4.5 3.15 -4.65 L3.35 -4.95 3.7 -4.85 M0.35 -4.2 Q0.0 -4.1 -0.1 -4.4 -0.25 -4.65 0.1 -4.75 L0.45 -4.55 0.35 -4.2" fill="#fdfdfd" fill-rule="evenodd" stroke="none"/>
    <path d="M-1.9 -3.25 L-1.1 -4.3 0.15 -5.25 Q0.6 -5.25 1.25 -4.3 L1.8 -3.4 1.15 -2.5 0.0 -1.6 -1.15 -2.5 -1.9 -3.25 M-0.75 -3.6 L-1.25 -3.3 -0.75 -2.95 Q-0.25 -2.6 0.0 -2.6 L0.7 -3.0 1.1 -3.35 0.0 -3.85 -0.75 -3.6 M0.35 -4.2 L0.45 -4.55 0.1 -4.75 Q-0.25 -4.65 -0.1 -4.4 0.0 -4.1 0.35 -4.2" fill="#f59122" fill-rule="evenodd" stroke="none"/>
    <path d="M-0.75 -3.6 L0.0 -3.85 1.1 -3.35 0.7 -3.0 0.0 -2.6 Q-0.25 -2.6 -0.75 -2.95 L-1.25 -3.3 -0.75 -3.6" fill="#ef5c27" fill-rule="evenodd" stroke="none"/>
  </g>
</svg>
