<?xml version="1.0" encoding="UTF-8" standalone="no"?>
<svg xmlns:ffdec="https://www.free-decompiler.com/flash" xmlns:xlink="http://www.w3.org/1999/xlink" ffdec:objectType="shape" height="24.0px" width="25.0px" xmlns="http://www.w3.org/2000/svg">
  <g transform="matrix(1.0, 0.0, 0.0, 1.0, 12.5, 12.0)">
    <path d="M8.8 -8.35 Q12.5 -4.95 12.5 -1.35 12.5 1.6 11.0 3.1 9.8 4.25 8.2 4.25 L-6.9 4.3 Q-9.1 4.3 -10.55 3.15 -12.5 1.7 -12.5 -1.5 -12.5 -5.0 -8.75 -8.45 -4.85 -12.0 -0.25 -12.0 4.85 -12.0 8.8 -8.35" fill="#868686" fill-rule="evenodd" stroke="none"/>
    <path d="M9.3 -6.45 L9.8 -5.8 Q5.35 -3.0 -0.35 -2.05 -5.8 -1.1 -11.45 -2.0 -11.35 -3.65 -9.9 -3.1 L-8.75 -2.7 Q-8.2 -2.6 -8.0 -3.05 -7.8 -3.5 -8.4 -3.65 L-9.65 -3.95 Q-11.2 -4.4 -9.35 -6.45 L-8.75 -7.05 Q-7.3 -8.4 -6.45 -7.45 L-5.9 -6.7 -5.3 -6.6 Q-4.75 -6.95 -5.05 -7.35 L-5.8 -8.1 Q-6.7 -9.1 -3.8 -10.2 -0.7 -11.35 -0.5 -9.85 L-0.5 -8.7 Q-0.5 -8.05 -0.05 -8.05 0.4 -8.05 0.4 -8.65 L0.35 -9.9 Q0.5 -11.4 3.75 -10.2 6.65 -9.1 5.75 -8.1 L4.95 -7.35 Q4.7 -6.95 5.2 -6.6 L5.85 -6.7 6.4 -7.45 Q7.2 -8.4 8.65 -7.1 L9.3 -6.45" fill="#d7d7d7" fill-rule="evenodd" stroke="none"/>
    <path d="M11.15 -2.95 L11.4 -1.95 Q11.55 0.2 10.25 0.0 L9.35 -0.2 Q8.85 -0.25 8.8 0.15 8.7 0.75 9.9 0.7 L10.5 0.8 10.15 1.7 9.05 2.8 7.25 3.05 -0.7 3.05 Q5.55 1.05 11.15 -2.95" fill="#c0c2df" fill-rule="evenodd" stroke="none"/>
    <path d="M7.95 -3.05 L9.5 -3.0 11.15 -2.95 Q5.55 1.05 -0.7 3.05 L-7.35 3.05 -9.1 2.8 -10.2 1.7 -10.55 0.8 -10.0 0.7 Q-8.75 0.75 -8.85 0.15 -8.95 -0.25 -9.4 -0.2 L-10.35 0.0 Q-11.6 0.2 -11.45 -1.95 L-11.45 -2.0 Q-5.8 -1.1 -0.35 -2.05 5.35 -3.0 9.8 -5.8 10.95 -4.3 9.4 -3.9 L8.25 -3.65 Q7.75 -3.45 7.95 -3.05" fill="#9fa0b5" fill-rule="evenodd" stroke="none"/>
    <path d="M-4.3 -9.55 Q-3.4 -10.0 -2.8 -9.35 -2.25 -8.75 -3.35 -8.1 -4.4 -7.45 -4.7 -8.35 -5.0 -9.25 -4.3 -9.55" fill="#fdfdfd" fill-rule="evenodd" stroke="none"/>
    <path d="M-8.9 -6.45 Q-8.05 -7.55 -7.3 -7.0 -6.55 -6.45 -7.55 -5.35 -8.4 -4.4 -9.0 -5.0 -9.55 -5.6 -8.9 -6.45" fill="#fdfdfd" fill-rule="evenodd" stroke="none"/>
    <path d="M0.35 3.9 Q0.2 5.65 -0.7 6.55 L-0.6 6.55 Q-0.15 6.55 0.1 6.9 0.45 7.25 0.35 7.7 L-0.1 10.95 -0.45 11.5 Q-0.7 11.7 -1.05 11.75 L-8.2 12.0 Q-8.65 12.0 -8.9 11.7 L-9.15 10.95 -8.95 7.3 Q-9.0 6.1 -8.25 5.3 L-8.0 5.1 -8.25 4.55 -8.55 1.05 -8.3 0.35 Q-8.0 0.0 -7.6 0.0 L-3.5 0.05 Q-1.65 0.1 -0.65 1.05 0.35 2.0 0.35 3.7 L0.35 3.9" fill="#65014b" fill-rule="evenodd" stroke="none"/>
    <path d="M-0.6 3.8 Q-0.85 6.5 -3.3 6.55 L-5.9 6.5 Q-6.75 6.6 -6.75 7.75 L-0.6 7.55 -1.05 9.75 -8.2 10.0 -8.0 7.35 Q-8.05 5.3 -5.3 5.3 L-2.25 5.35 Q-1.75 5.4 -1.75 4.75 -1.7 4.15 -2.25 4.15 L-7.25 4.5 -7.6 1.0 -3.5 1.0 Q-0.65 1.1 -0.6 3.7 L-0.6 3.8" fill="#fe5e8b" fill-rule="evenodd" stroke="none"/>
    <path d="M6.35 0.1 Q7.75 0.2 8.55 1.05 9.4 2.0 9.3 3.85 L9.05 7.15 Q8.75 9.8 8.35 10.55 7.75 11.6 5.95 11.75 L2.5 11.9 Q0.5 11.9 -0.1 10.75 L-0.75 7.25 -0.75 3.8 Q-0.6 1.65 0.55 0.7 1.3 0.0 2.55 -0.05 L6.35 0.1" fill="#65014b" fill-rule="evenodd" stroke="none"/>
    <path d="M6.85 4.25 L2.65 4.1 2.6 7.65 6.75 7.85 6.85 4.25 6.85 4.2 6.85 4.25 M8.35 3.8 L8.1 7.1 Q7.75 9.75 5.95 9.75 L2.5 9.85 Q0.5 9.8 0.2 7.15 L0.2 3.85 Q0.4 1.0 2.55 0.95 L6.3 1.05 Q8.5 1.2 8.35 3.8" fill="#fe5e8b" fill-rule="evenodd" stroke="none"/>
  </g>
</svg>
