<?xml version="1.0" encoding="UTF-8" standalone="no"?>
<svg xmlns:ffdec="https://www.free-decompiler.com/flash" xmlns:xlink="http://www.w3.org/1999/xlink" ffdec:objectType="shape" height="24.4px" width="25.0px" xmlns="http://www.w3.org/2000/svg">
  <g transform="matrix(1.0, 0.0, 0.0, 1.0, 12.5, 12.2)">
    <path d="M8.8 -8.55 Q12.5 -5.15 12.5 -1.5 12.5 1.4 11.0 2.9 9.8 4.05 8.25 4.05 L-6.9 4.1 Q-9.1 4.1 -10.55 3.0 -12.5 1.5 -12.5 -1.7 -12.5 -5.2 -8.75 -8.6 -4.85 -12.2 -0.25 -12.2 4.85 -12.2 8.8 -8.55" fill="#b28314" fill-rule="evenodd" stroke="none"/>
    <path d="M8.65 -7.3 L9.85 -6.0 Q5.35 -3.2 -0.35 -2.2 -5.8 -1.3 -11.45 -2.2 -11.35 -3.85 -9.9 -3.3 L-8.8 -2.9 Q-8.2 -2.75 -8.05 -3.2 -7.8 -3.65 -8.4 -3.85 L-9.65 -4.15 Q-11.2 -4.6 -9.35 -6.65 L-8.75 -7.25 Q-7.3 -8.6 -6.5 -7.65 L-5.95 -6.9 -5.3 -6.8 Q-4.75 -7.1 -5.05 -7.5 L-5.8 -8.3 Q-6.7 -9.3 -3.8 -10.4 -0.7 -11.55 -0.45 -10.05 L-0.45 -8.9 Q-0.45 -8.25 -0.05 -8.25 0.4 -8.25 0.4 -8.85 L0.35 -10.1 Q0.5 -11.6 3.75 -10.4 6.65 -9.3 5.75 -8.3 L5.0 -7.5 Q4.7 -7.1 5.2 -6.8 L5.85 -6.9 6.4 -7.65 Q7.2 -8.6 8.65 -7.3" fill="#ffe211" fill-rule="evenodd" stroke="none"/>
    <path d="M11.2 -3.1 L11.4 -2.15 Q11.55 0.0 10.3 -0.15 L9.35 -0.35 Q8.9 -0.45 8.8 -0.05 8.7 0.6 9.95 0.5 10.45 0.5 10.5 0.65 L10.15 1.5 9.05 2.6 7.3 2.85 -0.7 2.85 Q5.55 0.9 11.2 -3.1" fill="#e7bc6e" fill-rule="evenodd" stroke="none"/>
    <path d="M7.95 -3.2 Q8.2 -2.65 9.5 -3.2 L11.2 -3.1 Q5.55 0.9 -0.7 2.85 L-7.35 2.85 -9.1 2.6 -10.25 1.5 Q-11.0 0.45 -10.0 0.5 -8.8 0.6 -8.9 -0.05 -8.95 -0.45 -9.4 -0.35 L-10.35 -0.15 Q-11.6 0.0 -11.45 -2.15 L-11.45 -2.2 Q-5.8 -1.3 -0.35 -2.2 5.35 -3.2 9.85 -6.0 10.95 -4.45 9.4 -4.1 L8.3 -3.85 Q7.75 -3.65 7.95 -3.2" fill="#c99c32" fill-rule="evenodd" stroke="none"/>
    <path d="M-4.3 -9.75 Q-3.4 -10.2 -2.8 -9.55 -2.25 -8.95 -3.35 -8.3 -4.4 -7.65 -4.7 -8.55 -5.0 -9.45 -4.3 -9.75" fill="#fdfdfd" fill-rule="evenodd" stroke="none"/>
    <path d="M-8.9 -6.6 Q-8.05 -7.75 -7.3 -7.2 -6.55 -6.6 -7.55 -5.55 -8.4 -4.6 -9.0 -5.2 -9.55 -5.8 -8.9 -6.6" fill="#fdfdfd" fill-rule="evenodd" stroke="none"/>
    <path d="M7.75 0.2 Q8.8 0.25 9.55 0.9 10.65 1.9 10.55 4.05 L10.3 7.35 Q10.1 9.5 9.1 10.9 8.25 12.05 7.4 12.1 L4.4 12.2 Q2.75 12.15 1.9 10.55 1.15 12.05 -0.4 12.1 L-3.45 12.2 Q-4.6 12.15 -5.4 11.35 L-5.75 11.8 -6.3 12.05 -8.0 12.1 -8.75 11.8 -9.1 11.05 -9.0 5.65 -9.6 5.0 -10.4 2.95 Q-10.6 2.35 -10.25 1.9 L-8.95 0.35 Q-8.65 -0.05 -8.15 -0.05 L-8.0 -0.05 -6.0 0.15 Q-5.45 0.25 -5.15 0.75 -4.45 0.1 -3.4 0.1 L-0.1 0.2 Q1.35 0.3 2.1 1.4 2.9 0.15 4.45 0.1 L7.75 0.2" fill="#65014b" fill-rule="evenodd" stroke="none"/>
    <path d="M-9.4 2.55 L-8.15 1.0 -6.1 1.25 -6.35 9.85 -8.0 9.95 -7.9 4.1 -8.6 4.65 -9.4 2.55 M-5.35 4.1 Q-5.2 1.25 -3.35 1.15 L-0.15 1.3 Q1.75 1.4 1.65 4.0 L1.4 7.3 Q1.15 9.9 -0.45 9.9 L-3.4 10.0 Q-5.1 10.0 -5.35 7.35 L-5.35 4.1 M0.3 4.45 L-3.25 4.3 -3.3 7.8 0.25 8.0 0.3 4.45 M7.7 1.3 Q9.6 1.4 9.45 4.0 L9.25 7.3 Q9.0 9.9 7.4 9.9 L4.45 10.0 Q2.75 10.0 2.5 7.35 L2.45 4.1 Q2.6 1.25 4.5 1.15 L7.7 1.3 M8.15 4.45 L4.6 4.3 4.55 7.8 8.1 8.0 8.15 4.45" fill="#fe5e8b" fill-rule="evenodd" stroke="none"/>
  </g>
</svg>
