<?xml version="1.0" encoding="UTF-8" standalone="no"?>
<svg xmlns:ffdec="https://www.free-decompiler.com/flash" xmlns:xlink="http://www.w3.org/1999/xlink" ffdec:objectType="shape" height="24.3px" width="25.0px" xmlns="http://www.w3.org/2000/svg">
  <g transform="matrix(1.0, 0.0, 0.0, 1.0, 12.4, 12.05)">
    <path d="M9.1 -8.25 Q10.9 -6.45 11.75 -4.4 12.55 -2.5 12.6 0.0 12.7 5.95 8.25 9.75 6.3 11.4 3.2 12.0 0.5 12.45 -2.1 12.05 -4.35 11.65 -6.0 10.9 -7.95 9.95 -9.4 8.2 -10.9 6.45 -11.6 4.65 -12.25 2.95 -12.4 0.75 -12.5 -1.9 -11.9 -3.95 -11.25 -6.1 -9.7 -7.95 -8.0 -10.0 -5.75 -11.0 -3.4 -12.05 -0.15 -12.05 5.4 -12.0 9.1 -8.25" fill="#7e5a25" fill-rule="evenodd" stroke="none"/>
    <path d="M6.45 -8.85 Q8.2 -7.65 9.35 -5.8 10.5 -3.95 10.8 -1.9 11.1 0.25 10.4 2.55 9.7 4.9 8.15 6.5 6.4 8.2 4.4 8.95 L0.2 9.55 -3.6 9.05 Q-5.65 8.5 -7.1 7.35 -8.5 6.25 -9.3 4.75 -10.05 3.45 -10.5 1.6 -10.9 -0.2 -10.5 -2.4 -10.15 -4.65 -9.1 -6.25 -6.45 -10.3 -1.2 -10.75 L2.85 -10.5 Q4.7 -10.05 6.45 -8.85" fill="#fff347" fill-rule="evenodd" stroke="none"/>
    <path d="M6.45 -8.0 Q8.2 -6.8 9.35 -4.95 10.5 -3.1 10.8 -1.05 11.1 1.15 10.4 3.4 9.7 5.75 8.15 7.35 6.4 9.05 4.4 9.8 L0.2 10.45 -3.6 9.9 Q-5.65 9.35 -7.1 8.2 -8.5 7.1 -9.3 5.6 -10.05 4.3 -10.5 2.45 -10.9 0.65 -10.5 -1.55 -10.15 -3.8 -9.1 -5.35 -6.45 -9.45 -1.2 -9.9 L2.85 -9.65 Q4.7 -9.2 6.45 -8.0" fill="#e0b86e" fill-rule="evenodd" stroke="none"/>
    <path d="M6.45 -8.5 Q8.2 -7.25 9.35 -5.45 10.5 -3.6 10.8 -1.5 11.1 0.65 10.4 2.95 9.7 5.3 8.15 6.85 6.4 8.6 4.4 9.35 L0.2 9.95 -3.6 9.45 Q-5.65 8.9 -7.1 7.75 -8.5 6.65 -9.3 5.15 -10.05 3.85 -10.5 2.0 -10.9 0.15 -10.5 -2.05 -10.15 -4.3 -9.1 -5.85 -6.45 -9.95 -1.2 -10.4 L2.85 -10.15 Q4.7 -9.7 6.45 -8.5" fill="#f4da2b" fill-rule="evenodd" stroke="none"/>
    <path d="M6.55 2.6 Q9.5 1.8 10.9 0.35 10.75 2.15 10.1 3.85 9.35 5.65 8.15 6.85 6.4 8.6 4.4 9.35 L0.2 9.95 -3.6 9.45 Q-5.65 8.9 -7.1 7.75 -8.5 6.65 -9.3 5.15 -10.05 3.85 -10.5 2.0 L-10.7 -0.3 Q-10.0 1.45 -5.8 2.5 L0.8 3.35 6.55 2.6" fill="#c39835" fill-rule="evenodd" stroke="none"/>
    <path d="M8.25 -3.8 Q9.3 -2.25 8.65 -0.1 8.4 0.95 7.35 1.9 6.3 2.85 4.85 3.35 L5.25 5.1 5.55 6.7 5.55 7.15 -0.1 7.7 Q-4.85 7.65 -6.25 6.45 L-6.25 6.0 -5.6 4.3 -5.05 3.0 Q-6.65 1.7 -7.3 -0.35 -7.95 -2.25 -7.5 -4.15 -7.15 -5.65 -5.9 -6.9 -4.7 -8.1 -2.85 -8.75 L1.25 -9.2 Q2.9 -9.05 4.1 -8.35 5.85 -7.25 6.15 -5.2 7.6 -4.8 8.25 -3.8" fill="#fff347" fill-rule="evenodd" stroke="none"/>
    <path d="M8.25 -2.95 Q9.3 -1.35 8.65 0.75 8.4 1.8 7.35 2.75 6.3 3.7 4.85 4.2 L5.2 5.75 5.55 7.15 5.55 7.55 Q4.55 8.25 -0.05 8.25 -5.05 8.25 -6.25 6.85 L-6.25 6.45 -5.55 5.0 -5.05 3.85 Q-6.65 2.55 -7.3 0.5 -7.95 -1.4 -7.5 -3.3 -7.15 -4.8 -5.9 -6.0 -4.7 -7.25 -2.85 -7.85 L1.25 -8.35 Q2.9 -8.2 4.1 -7.5 5.85 -6.4 6.15 -4.35 7.6 -3.95 8.25 -2.95" fill="#e0b86e" fill-rule="evenodd" stroke="none"/>
    <path d="M8.0 0.7 L6.5 2.2 4.65 3.55 Q4.5 4.15 4.65 5.2 L4.95 6.8 2.45 7.25 0.15 7.5 -2.35 7.2 -4.8 6.65 Q-4.95 6.6 -4.7 5.0 -4.45 3.4 -4.6 3.3 -5.25 2.9 -6.05 1.2 L-6.95 -1.2 Q-7.2 -2.05 -7.1 -3.45 -6.9 -5.0 -6.4 -5.6 L-4.0 -7.4 Q-2.55 -8.2 -1.3 -8.35 L1.55 -8.1 Q3.35 -7.7 4.25 -7.15 L5.35 -6.05 6.3 -4.6 7.3 -3.7 8.25 -2.9 8.45 -1.2 8.0 0.7" fill="#f4da2b" fill-rule="evenodd" stroke="none"/>
    <path d="M0.05 -7.5 Q0.85 -7.5 0.95 -7.0 1.05 -6.5 0.1 -6.5 -2.65 -6.4 -3.85 -4.9 -4.05 -4.7 -4.35 -4.65 L-4.8 -4.75 -4.9 -4.95 -4.65 -5.4 Q-3.9 -6.4 -2.45 -7.0 L0.05 -7.5" fill="#f7fafa" fill-rule="evenodd" stroke="none"/>
    <path d="M5.8 -2.6 L4.7 -2.75 Q4.1 -2.7 3.55 -2.1 3.35 -1.85 3.0 -2.1 2.65 -2.3 2.9 -2.65 3.45 -3.4 4.4 -3.6 L6.0 -3.55 Q6.4 -3.3 6.3 -2.9 6.2 -2.45 5.8 -2.6" fill="#f7fafa" fill-rule="evenodd" stroke="none"/>
    <path d="M1.5 -6.65 Q1.35 -6.8 1.45 -7.1 1.5 -7.35 1.8 -7.35 2.3 -7.4 2.6 -7.1 L2.7 -6.65 Q2.6 -6.45 2.3 -6.4 1.8 -6.3 1.5 -6.65" fill="#f7fafa" fill-rule="evenodd" stroke="none"/>
    <path d="M3.0 -10.2 Q3.85 -10.0 3.85 -9.6 L2.85 -9.55 -1.95 -9.85 -4.3 -9.2 -6.1 -8.15 -6.35 -8.0 -6.65 -8.05 -6.75 -8.3 -6.6 -8.55 Q-5.0 -9.9 -2.05 -10.4 L3.0 -10.2" fill="#f7fafa" fill-rule="evenodd" stroke="none"/>
    <path d="M5.4 -8.85 Q5.3 -8.7 5.1 -8.7 4.7 -8.65 4.55 -9.0 L4.55 -9.3 Q4.6 -9.5 4.85 -9.5 5.2 -9.45 5.35 -9.2 L5.4 -8.85" fill="#f7fafa" fill-rule="evenodd" stroke="none"/>
    <path d="M0.95 5.15 L1.15 5.45 Q1.25 5.75 1.0 5.85 L-1.15 5.95 Q-1.6 5.9 -1.55 5.5 -1.45 5.15 -1.05 5.15 L0.95 5.15" fill="#7e5a25" fill-rule="evenodd" stroke="none"/>
    <path d="M-2.6 5.05 Q-2.45 5.1 -2.45 5.4 L-2.75 5.7 Q-3.3 5.8 -4.85 5.15 -5.25 5.0 -5.05 4.65 -4.9 4.3 -4.5 4.45 L-2.6 5.05" fill="#7e5a25" fill-rule="evenodd" stroke="none"/>
    <path d="M4.55 4.55 L4.8 4.8 4.7 5.3 2.85 5.8 Q2.3 5.9 2.2 5.5 2.1 5.05 2.6 5.0 L3.55 4.9 4.55 4.55" fill="#7e5a25" fill-rule="evenodd" stroke="none"/>
    <path d="M6.35 1.9 Q7.7 0.65 7.85 -0.85 7.95 -2.1 7.3 -3.0 L6.3 -3.8 5.15 -4.1 3.45 -3.75 Q2.6 -3.25 2.25 -2.45 L1.8 -0.95 Q1.7 -0.05 1.9 1.35 L1.5 0.75 1.15 -0.25 -1.1 0.45 Q-2.9 0.65 -4.2 -0.6 L-4.55 -1.25 -4.5 -1.6 Q-3.05 0.1 -0.95 -0.65 0.75 -1.25 1.0 -1.95 1.4 -3.35 2.55 -4.25 3.35 -4.85 4.9 -4.95 L4.35 -6.3 3.35 -7.3 Q2.25 -7.95 0.6 -7.95 L-2.05 -7.65 Q-5.05 -6.75 -6.25 -4.25 -6.7 -3.25 -6.55 -1.8 L-6.05 0.25 Q-5.3 1.95 -3.85 3.0 L-4.5 6.0 Q-3.35 6.75 0.1 6.8 L4.05 6.6 3.5 3.4 6.35 1.9 M8.25 -3.4 Q9.3 -1.8 8.65 0.35 8.4 1.35 7.35 2.3 6.3 3.3 4.85 3.8 L5.25 5.55 5.55 7.15 Q4.55 7.8 -0.05 7.8 -5.05 7.8 -6.25 6.45 L-5.6 4.75 -5.05 3.45 Q-6.65 2.15 -7.3 0.1 -7.95 -1.85 -7.5 -3.7 -7.15 -5.25 -5.9 -6.45 -4.7 -7.65 -2.85 -8.3 L1.25 -8.8 Q2.9 -8.65 4.1 -7.9 5.85 -6.8 6.15 -4.8 7.6 -4.4 8.25 -3.4" fill="#7e5a25" fill-rule="evenodd" stroke="none"/>
  </g>
</svg>
