<?xml version="1.0" encoding="UTF-8" standalone="no"?>
<svg xmlns:ffdec="https://www.free-decompiler.com/flash" xmlns:xlink="http://www.w3.org/1999/xlink" ffdec:objectType="shape" height="24.55px" width="17.4px" xmlns="http://www.w3.org/2000/svg">
  <g transform="matrix(1.0, 0.0, 0.0, 1.0, -25.1, 40.4)">
    <path d="M42.45 -35.0 L42.35 -34.1 39.5 -27.5 38.85 -26.85 38.05 -26.8 30.5 -30.1 Q30.1 -30.25 29.95 -30.7 29.85 -31.2 30.05 -31.65 L32.9 -38.2 Q33.1 -38.7 33.55 -38.9 L34.35 -38.95 41.9 -35.65 42.45 -35.0" fill="#ffffff" fill-rule="evenodd" stroke="none"/>
    <path d="M31.3 -27.1 L30.5 -25.3 30.35 -25.1 30.15 -25.1 28.05 -26.0 27.9 -26.15 27.95 -26.45 28.7 -28.25 28.9 -28.4 29.1 -28.45 31.2 -27.5 31.35 -27.35 31.3 -27.1" fill="#ffffff" fill-rule="evenodd" stroke="none"/>
    <path d="M31.2 -25.0 L32.0 -26.8 32.15 -27.0 32.4 -27.0 34.45 -26.1 34.6 -25.9 34.6 -25.65 33.8 -23.85 33.6 -23.7 33.4 -23.65 31.3 -24.6 31.2 -24.75 31.2 -25.0" fill="#ffffff" fill-rule="evenodd" stroke="none"/>
    <path d="M35.4 -25.6 L35.6 -25.6 37.7 -24.7 37.8 -24.25 37.0 -22.45 36.85 -22.25 36.6 -22.25 34.55 -23.15 34.4 -23.35 34.4 -23.6 35.2 -25.4 35.4 -25.6" fill="#ffffff" fill-rule="evenodd" stroke="none"/>
    <path d="M29.9 -23.9 L29.15 -22.1 28.95 -21.9 28.7 -21.9 26.65 -22.8 26.5 -22.95 26.5 -23.25 27.3 -25.05 27.5 -25.2 27.7 -25.2 29.8 -24.3 29.95 -24.15 29.9 -23.9" fill="#ffffff" fill-rule="evenodd" stroke="none"/>
    <path d="M31.0 -23.8 L33.05 -22.9 33.2 -22.7 33.2 -22.45 32.4 -20.65 32.2 -20.5 32.0 -20.45 29.95 -21.35 29.8 -21.55 29.8 -21.8 30.6 -23.6 Q30.75 -23.9 31.0 -23.8" fill="#ffffff" fill-rule="evenodd" stroke="none"/>
    <path d="M36.4 -21.05 L35.6 -19.25 35.45 -19.05 35.2 -19.05 33.15 -19.95 33.0 -20.15 33.0 -20.4 33.8 -22.2 34.0 -22.4 34.2 -22.4 36.25 -21.5 36.4 -21.3 36.4 -21.05" fill="#ffffff" fill-rule="evenodd" stroke="none"/>
    <path d="M28.5 -20.7 L27.7 -18.9 27.55 -18.7 27.3 -18.7 25.25 -19.6 25.1 -19.75 Q25.05 -19.9 25.15 -20.05 L25.9 -21.8 26.1 -22.0 26.3 -22.0 28.4 -21.1 28.55 -20.95 28.5 -20.7" fill="#ffffff" fill-rule="evenodd" stroke="none"/>
    <path d="M29.6 -20.6 L31.65 -19.7 Q31.9 -19.55 31.75 -19.25 L31.0 -17.45 30.8 -17.25 30.6 -17.25 28.5 -18.15 28.4 -18.35 28.4 -18.6 29.2 -20.4 29.35 -20.6 29.6 -20.6" fill="#ffffff" fill-rule="evenodd" stroke="none"/>
    <path d="M34.2 -16.05 L34.05 -15.85 33.8 -15.85 31.75 -16.75 31.6 -16.95 31.6 -17.2 32.4 -19.0 32.55 -19.15 32.8 -19.2 34.85 -18.3 35.0 -18.1 35.0 -17.85 34.2 -16.05" fill="#ffffff" fill-rule="evenodd" stroke="none"/>
    <path d="M41.7 -37.8 Q41.6 -37.55 41.4 -37.65 L36.15 -39.95 36.05 -40.05 36.05 -40.25 36.2 -40.35 36.35 -40.4 41.6 -38.05 41.7 -37.8" fill="#ffffff" fill-rule="evenodd" stroke="none"/>
  </g>
</svg>
