<?xml version="1.0" encoding="UTF-8" standalone="no"?>
<svg xmlns:ffdec="https://www.free-decompiler.com/flash" xmlns:xlink="http://www.w3.org/1999/xlink" ffdec:objectType="shape" height="1.45px" width="2.8px" xmlns="http://www.w3.org/2000/svg">
  <g transform="matrix(1.0, 0.0, 0.0, 1.0, -19.15, 31.5)">
    <path d="M20.25 -31.2 L19.95 -31.2 19.95 -30.2 19.8 -30.05 Q19.65 -30.05 19.65 -30.2 L19.65 -31.2 19.35 -31.2 19.15 -31.35 19.35 -31.45 20.25 -31.45 20.45 -31.35 20.25 -31.2" fill="#313e98" fill-rule="evenodd" stroke="none"/>
    <path d="M21.95 -31.35 L21.95 -30.2 21.85 -30.05 Q21.7 -30.05 21.7 -30.2 L21.7 -31.05 21.4 -30.1 21.25 -30.05 21.1 -30.1 20.8 -31.05 20.8 -30.2 20.65 -30.05 Q20.5 -30.05 20.5 -30.2 L20.5 -31.35 20.7 -31.5 20.8 -31.5 20.95 -31.35 21.25 -30.45 21.5 -31.35 21.7 -31.5 21.8 -31.5 21.95 -31.35" fill="#313e98" fill-rule="evenodd" stroke="none"/>
  </g>
</svg>
