<?xml version="1.0" encoding="UTF-8" standalone="no"?>
<svg xmlns:ffdec="https://www.free-decompiler.com/flash" xmlns:xlink="http://www.w3.org/1999/xlink" ffdec:objectType="shape" height="55.25px" width="173.55px" xmlns="http://www.w3.org/2000/svg">
  <g transform="matrix(1.0, 0.0, 0.0, 1.0, 87.5, 27.65)">
    <path d="M80.0 -27.25 L82.25 -25.9 Q86.75 -23.1 85.9 -0.4 85.55 9.4 84.45 16.05 82.85 25.55 80.05 26.4 76.2 27.6 -21.3 27.6 L-61.05 27.45 -79.15 26.5 Q-83.25 25.55 -85.5 15.65 -87.35 7.4 -87.5 -4.1 -87.55 -12.9 -87.2 -16.35 -86.3 -24.25 -83.0 -26.1 -80.5 -27.55 -46.0 -27.65 L16.9 -27.6 Q62.85 -27.6 80.0 -27.25 M83.4 -1.0 Q84.35 -21.2 81.55 -22.9 78.9 -24.5 -0.15 -24.3 -78.7 -24.15 -82.65 -22.9 -84.0 -22.5 -84.65 -15.95 -85.3 -9.7 -84.95 -1.65 -84.05 18.85 -78.9 20.1 -73.6 21.3 1.8 21.2 76.7 21.05 79.7 20.1 82.5 19.2 83.4 -1.0" fill="#000000" fill-rule="evenodd" stroke="none"/>
    <path d="M83.4 -1.0 Q82.5 19.2 79.7 20.1 76.7 21.05 1.8 21.2 -73.6 21.3 -78.9 20.1 -84.05 18.85 -84.95 -1.65 -85.3 -9.7 -84.65 -15.95 -84.0 -22.5 -82.65 -22.9 -78.7 -24.15 -0.15 -24.3 78.9 -24.5 81.55 -22.9 84.35 -21.2 83.4 -1.0" fill="#ffffff" fill-rule="evenodd" stroke="none"/>
  </g>
</svg>
