<?xml version="1.0" encoding="UTF-8" standalone="no"?>
<svg xmlns:ffdec="https://www.free-decompiler.com/flash" xmlns:xlink="http://www.w3.org/1999/xlink" ffdec:objectType="shape" height="22.95px" width="25.0px" xmlns="http://www.w3.org/2000/svg">
  <g transform="matrix(1.0, 0.0, 0.0, 1.0, 203.75, 11.45)">
    <path d="M-185.8 -9.65 L-193.85 -10.05 -201.2 -9.45 -201.65 -6.25 -201.85 -0.75 Q-201.85 2.65 -201.5 5.2 L-200.9 7.95 -196.0 8.7 -187.9 9.1 -182.8 8.75 Q-182.35 8.0 -181.9 5.95 -181.35 3.4 -181.05 -0.1 L-180.75 -5.65 Q-180.75 -7.9 -180.9 -8.95 L-185.8 -9.65 M-179.3 -9.75 Q-178.3 -8.4 -179.15 0.7 -180.05 10.05 -181.75 10.9 L-191.85 11.4 Q-200.1 11.05 -202.0 10.1 -203.65 9.25 -203.75 0.25 -203.85 -8.4 -202.8 -10.15 -201.85 -11.75 -191.0 -11.4 L-183.3 -10.8 Q-179.75 -10.35 -179.3 -9.75" fill="#9d1e3d" fill-rule="evenodd" stroke="none"/>
    <path d="M-185.8 -9.65 L-180.9 -8.95 Q-180.75 -7.9 -180.75 -5.65 L-181.05 -0.1 Q-181.35 3.4 -181.9 5.95 -182.35 8.0 -182.8 8.75 L-187.9 9.1 -196.0 8.7 -200.9 7.95 -201.5 5.2 Q-201.85 2.65 -201.85 -0.75 L-201.65 -6.25 -201.2 -9.45 -193.85 -10.05 -185.8 -9.65 M-191.3 -3.0 L-195.65 -7.4 -198.1 -4.95 -193.7 -0.55 -198.1 3.85 -195.65 6.25 -191.3 1.85 -186.85 6.25 -184.45 3.85 -188.8 -0.55 -184.45 -4.95 -186.85 -7.4 -191.3 -3.0" fill="#ff4a66" fill-rule="evenodd" stroke="none"/>
    <path d="M-191.3 -3.0 L-186.85 -7.4 -184.45 -4.95 -188.8 -0.55 -184.45 3.85 -186.85 6.25 -191.3 1.85 -195.65 6.25 -198.1 3.85 -193.7 -0.55 -198.1 -4.95 -195.65 -7.4 -191.3 -3.0" fill="#ffffff" fill-rule="evenodd" stroke="none"/>
  </g>
</svg>
