<?xml version="1.0" encoding="UTF-8" standalone="no"?>
<svg xmlns:ffdec="https://www.free-decompiler.com/flash" xmlns:xlink="http://www.w3.org/1999/xlink" ffdec:objectType="shape" height="27.9px" width="30.0px" xmlns="http://www.w3.org/2000/svg">
  <g transform="matrix(1.0, 0.0, 0.0, 1.0, 205.65, 13.95)">
    <path d="M-186.0 -13.6 Q-185.7 -13.75 -185.4 -13.3 -185.1 -12.85 -185.45 -12.7 -185.8 -12.5 -186.05 -13.0 -186.25 -13.5 -186.0 -13.6 M-186.5 -10.7 L-186.5 -10.65 -186.6 -10.6 -186.75 -10.7 -186.65 -10.8 Q-186.5 -10.85 -186.5 -10.7 M-185.4 -10.55 L-185.3 -10.65 -185.15 -10.6 -185.3 -10.5 -185.4 -10.55 M-187.95 -10.95 L-188.05 -11.05 -187.95 -11.15 -187.85 -11.05 -187.95 -10.95 M-188.65 -8.05 L-188.55 -8.1 -188.15 -7.35 -187.25 -7.85 -186.35 -7.15 -185.8 -7.65 -185.7 -7.6 -185.2 -7.2 -185.25 -7.25 -185.8 -7.4 -186.35 -7.05 -187.25 -7.65 -188.2 -7.25 -188.6 -7.95 -189.4 -7.8 -188.65 -8.05 M-180.95 -4.55 L-180.85 -4.5 -180.8 -4.4 -180.9 -4.25 -181.35 -4.2 Q-181.6 -4.4 -181.45 -4.45 L-180.95 -4.55 M-179.05 -3.4 L-180.1 -3.35 -180.15 -3.3 -181.0 -2.7 Q-182.1 -1.45 -181.75 -0.6 L-181.95 -0.55 -182.75 -2.05 -181.15 -3.15 -180.4 -3.8 -180.0 -4.2 -179.05 -3.4 M-179.4 0.25 Q-179.2 0.2 -179.3 0.4 L-179.6 0.5 -179.8 0.45 -179.4 0.25 M-177.55 -2.35 L-177.25 -2.45 -177.05 -2.35 Q-177.0 -2.1 -177.35 -2.15 L-177.55 -2.35 M-176.9 -1.75 L-176.65 -1.9 -176.65 -1.7 -176.9 -1.55 -176.9 -1.75" fill="#fcfcfc" fill-rule="evenodd" stroke="none"/>
    <path d="M-186.0 -13.6 Q-186.25 -13.5 -186.05 -13.0 -185.8 -12.5 -185.45 -12.7 -185.1 -12.85 -185.4 -13.3 -185.7 -13.75 -186.0 -13.6 M-188.35 -11.85 L-189.05 -11.6 Q-188.6 -12.7 -187.6 -13.4 -186.65 -14.05 -185.95 -13.95 -185.3 -13.8 -184.75 -12.95 -184.2 -12.1 -184.15 -10.9 L-184.15 -10.95 -184.3 -11.8 -184.5 -12.35 -184.6 -11.3 -185.15 -11.8 -185.7 -11.3 -186.55 -11.95 -187.4 -11.45 -187.8 -12.2 -188.9 -11.65 -188.3 -11.9 -188.35 -11.85 M-188.8 -8.0 L-188.65 -8.05 -189.4 -7.8 -188.6 -7.95 -188.2 -7.25 -187.25 -7.65 -186.35 -7.05 -185.8 -7.4 -185.25 -7.25 Q-185.55 -6.4 -186.15 -5.75 -186.8 -5.15 -187.55 -5.0 L-188.95 -5.15 -189.1 -5.2 Q-189.7 -5.6 -190.0 -6.45 -190.15 -5.25 -189.25 -4.5 L-189.0 -4.3 -188.2 -3.9 -189.25 -4.45 -189.35 -4.55 Q-190.05 -5.2 -190.05 -6.2 L-189.75 -7.65 -188.8 -8.0 M-185.7 -7.6 L-185.45 -7.4 -184.85 -7.0 Q-184.75 -6.1 -185.0 -5.2 -185.25 -4.4 -186.1 -4.0 L-187.6 -3.75 -186.4 -3.9 Q-185.45 -4.2 -185.1 -5.05 -184.8 -5.75 -184.85 -7.0 L-185.2 -7.2 -185.7 -7.6" fill="#e2eec7" fill-rule="evenodd" stroke="none"/>
    <path d="M-188.3 -11.9 L-188.9 -11.65 -187.8 -12.2 -187.4 -11.45 -186.55 -11.95 -185.7 -11.3 -185.15 -11.8 -184.6 -11.3 -184.5 -12.35 -184.3 -11.8 -184.15 -10.95 -184.15 -10.9 -184.15 -10.95 -184.15 -10.9 -184.6 -11.25 -184.7 -11.3 -185.1 -11.6 -185.3 -11.4 -185.65 -11.1 -186.55 -11.8 -187.45 -11.3 -187.75 -11.85 -187.85 -12.05 -188.3 -11.9 M-187.6 -3.75 L-187.8 -3.8 -187.95 -3.8 -188.2 -3.9 -189.0 -4.3 -189.25 -4.5 Q-190.15 -5.25 -190.0 -6.45 -189.7 -5.6 -189.1 -5.2 L-188.95 -5.15 -187.55 -5.0 Q-186.8 -5.15 -186.15 -5.75 -185.55 -6.4 -185.25 -7.25 L-185.2 -7.2 -184.85 -7.0 Q-184.8 -5.75 -185.1 -5.05 -185.45 -4.2 -186.4 -3.9 L-187.6 -3.75" fill="#b9c597" fill-rule="evenodd" stroke="none"/>
    <path d="M-188.35 -11.85 L-188.3 -11.9 -187.85 -12.05 -187.75 -11.85 -188.3 -11.35 Q-188.7 -10.6 -187.9 -9.75 L-187.9 -9.7 -187.5 -9.35 -187.8 -9.5 -187.9 -9.45 -188.05 -9.35 -188.25 -8.95 -188.2 -8.55 Q-188.05 -8.1 -187.15 -7.85 L-186.15 -7.95 -185.9 -8.15 -185.8 -8.4 -185.75 -8.55 -186.0 -9.2 -186.15 -9.2 -185.95 -9.25 Q-185.35 -9.5 -185.1 -9.9 L-184.95 -10.2 Q-184.85 -10.45 -184.9 -10.7 L-185.3 -11.4 -185.1 -11.6 -184.7 -11.3 Q-184.5 -10.7 -184.65 -10.25 L-184.65 -10.15 -185.3 -9.45 -185.8 -9.25 -185.6 -8.7 Q-185.1 -9.25 -184.25 -8.85 L-183.6 -8.4 -183.35 -7.95 Q-183.4 -7.55 -183.8 -7.7 L-184.8 -7.9 -185.45 -7.85 -185.45 -7.5 -185.45 -7.4 -185.7 -7.6 -185.8 -7.65 -186.35 -7.15 -187.25 -7.85 -188.15 -7.35 -188.55 -8.1 -188.65 -8.05 -188.8 -8.0 -188.8 -8.05 -188.8 -8.15 -188.65 -8.55 -189.4 -8.8 -190.45 -8.8 Q-190.85 -8.75 -190.8 -9.15 L-190.45 -9.5 -189.75 -9.8 Q-188.65 -10.0 -188.35 -9.15 L-188.05 -9.6 -188.0 -9.65 -188.45 -10.05 -188.65 -11.05 -188.35 -11.85 M-183.85 -8.5 Q-184.15 -8.75 -184.3 -8.5 -184.5 -8.3 -184.15 -8.05 L-183.6 -8.0 Q-183.4 -8.2 -183.85 -8.5 M-190.05 -9.6 L-190.4 -9.2 Q-190.5 -8.95 -190.1 -9.0 -189.65 -9.1 -189.65 -9.4 -189.65 -9.75 -190.05 -9.6" fill="#e3ad2b" fill-rule="evenodd" stroke="none"/>
    <path d="M-183.85 -8.5 Q-183.4 -8.2 -183.6 -8.0 L-184.15 -8.05 Q-184.5 -8.3 -184.3 -8.5 -184.15 -8.75 -183.85 -8.5 M-187.75 -11.85 L-187.45 -11.3 -186.55 -11.8 -185.65 -11.1 -185.3 -11.4 -184.9 -10.7 Q-184.85 -10.45 -184.95 -10.2 L-185.1 -9.9 Q-185.35 -9.5 -185.95 -9.25 L-186.15 -9.2 -186.0 -9.2 -185.75 -8.55 -185.8 -8.4 -185.9 -8.15 -186.15 -7.95 -187.15 -7.85 Q-188.05 -8.1 -188.2 -8.55 L-188.25 -8.95 -188.05 -9.35 -187.9 -9.45 -187.8 -9.5 -187.5 -9.35 -187.9 -9.7 -187.9 -9.75 Q-188.7 -10.6 -188.3 -11.35 L-187.75 -11.85 M-186.6 -11.0 L-187.05 -10.8 -187.15 -10.7 -187.55 -10.35 -187.3 -10.0 -186.9 -9.55 Q-186.6 -9.55 -186.05 -10.15 L-186.2 -10.55 -186.6 -11.0 M-185.1 -10.25 Q-184.95 -10.35 -185.05 -10.55 -185.15 -10.8 -185.45 -10.7 L-185.6 -10.4 Q-185.55 -10.15 -185.2 -10.2 L-185.1 -10.25 M-188.25 -10.85 Q-188.2 -10.6 -187.85 -10.7 -187.6 -10.75 -187.7 -11.05 -187.85 -11.3 -188.1 -11.2 L-188.25 -10.85 M-190.05 -9.6 Q-189.65 -9.75 -189.65 -9.4 -189.65 -9.1 -190.1 -9.0 -190.5 -8.95 -190.4 -9.2 L-190.05 -9.6" fill="#ffcb40" fill-rule="evenodd" stroke="none"/>
    <path d="M-184.65 -10.15 L-180.4 -8.95 -182.45 -6.95 -190.5 0.85 -190.65 0.95 -189.25 -4.45 -188.2 -3.9 -187.95 -3.8 -187.8 -3.8 -187.6 -3.75 -186.1 -4.0 Q-185.25 -4.4 -185.0 -5.2 -184.75 -6.1 -184.85 -7.0 L-185.45 -7.4 -185.45 -7.5 -185.45 -7.85 -184.8 -7.9 -183.8 -7.7 Q-183.4 -7.55 -183.35 -7.95 L-183.6 -8.4 -184.25 -8.85 Q-185.1 -9.25 -185.6 -8.7 L-185.8 -9.25 -185.3 -9.45 -184.65 -10.15 M-177.6 1.2 L-176.95 4.9 -178.85 4.35 -190.45 1.05 -190.6 1.0 -190.65 0.95 -186.7 0.5 -186.4 1.0 -185.75 1.4 -185.55 1.4 -185.1 1.1 -184.8 0.9 -182.55 1.6 -182.4 1.6 -182.35 1.6 -182.05 2.25 -181.45 2.65 -181.2 2.65 -180.7 2.35 -180.4 2.1 -180.35 2.25 -180.05 2.35 -179.6 2.45 Q-179.1 2.35 -177.6 1.2 M-183.05 9.3 L-181.5 11.0 -188.9 13.95 -189.1 12.55 -189.35 10.85 -189.1 11.1 -188.4 11.3 -184.1 10.65 -183.55 10.35 -183.3 9.75 -183.05 9.3 M-194.5 11.9 L-195.2 13.85 -199.95 10.7 -198.65 9.35 -190.65 1.0 -190.65 0.95 -190.65 1.0 -190.65 0.95 -190.7 0.95 -193.75 -2.15 -193.2 -2.15 Q-192.1 -2.25 -192.05 -2.95 -191.55 -2.8 -191.2 -3.1 L-190.65 0.95 -190.65 1.0 -190.6 1.0 -187.6 4.3 -189.05 4.5 Q-189.4 4.55 -189.6 4.8 L-189.75 5.0 -190.0 4.6 -190.15 4.5 -190.65 1.0 -190.7 1.1 -192.0 4.75 -193.3 4.95 -193.7 5.15 -193.85 5.55 -194.0 6.05 -193.55 8.95 -193.5 9.1 -194.5 11.9 M-203.6 1.15 L-204.35 -2.95 -203.1 -2.6 -197.65 -1.05 -199.3 -1.15 -199.5 -1.1 -199.65 -0.85 -199.65 -0.8 -199.7 -0.7 -199.75 0.75 -202.35 -0.5 -202.7 -0.5 -203.0 -0.25 -203.6 1.15 M-197.0 -9.85 L-192.4 -11.8 -191.85 -7.9 -191.55 -5.55 -191.95 -5.45 -192.05 -5.85 -193.3 -6.35 -194.65 -6.2 -194.8 -6.1 -194.85 -6.3 -195.05 -7.85 -195.05 -8.8 Q-195.05 -9.6 -195.2 -9.7 -195.6 -9.95 -196.95 -9.7 L-197.0 -9.85 M-197.95 -8.85 L-198.5 -8.7 -198.6 -8.7 -197.95 -8.85 M-195.35 -7.8 L-195.35 -8.55 -195.35 -8.35 -195.35 -7.2 -195.35 -7.8 M-193.95 -6.2 L-193.5 -6.2 -193.65 -6.25 -193.95 -6.2 M-192.3 -5.75 L-192.1 -5.3 -192.2 -5.65 -192.3 -5.75 M-195.15 -3.55 L-195.15 -3.6 -195.15 -3.55 M-195.25 -4.15 L-195.25 -3.65 -195.65 -4.0 -195.6 -4.05 -195.25 -4.15 M-199.95 2.8 L-199.9 2.9 -199.95 2.8 M-200.0 1.3 L-199.8 1.4 -200.0 1.3 M-196.05 2.7 L-195.85 -0.55 -190.65 0.95 -190.7 1.0 -190.75 1.0 -196.05 2.7 M-191.3 -4.05 L-191.45 -3.7 Q-191.65 -3.35 -192.0 -3.45 L-191.95 -4.75 -191.95 -4.95 -191.55 -4.9 -191.4 -4.8 -191.3 -4.05" fill="#ffbe43" fill-rule="evenodd" stroke="none"/>
    <path d="M-186.6 -11.0 L-186.2 -10.55 -186.05 -10.15 Q-186.6 -9.55 -186.9 -9.55 L-187.3 -10.0 -187.55 -10.35 -187.15 -10.7 -187.05 -10.8 -186.6 -11.0 M-186.8 -9.95 L-186.35 -10.15 -186.75 -10.45 -187.05 -10.4 -187.3 -10.35 -187.1 -10.15 -186.8 -9.95 M-186.5 -10.7 Q-186.5 -10.85 -186.65 -10.8 L-186.75 -10.7 -186.6 -10.6 -186.5 -10.65 -186.5 -10.7" fill="#f49022" fill-rule="evenodd" stroke="none"/>
    <path d="M-186.8 -9.95 L-187.1 -10.15 -187.3 -10.35 -187.05 -10.4 -186.75 -10.45 -186.35 -10.15 -186.8 -9.95" fill="#ee5c27" fill-rule="evenodd" stroke="none"/>
    <path d="M-183.05 8.95 L-183.05 9.3 -183.3 9.75 -183.55 10.35 -184.1 10.65 -188.4 11.3 -189.1 11.1 -189.35 10.85 -189.45 10.5 -189.7 8.9 -189.6 8.8 -189.45 8.4 -189.3 7.9 -189.75 5.0 -189.6 4.8 Q-189.4 4.55 -189.05 4.5 L-187.6 4.3 -184.75 3.85 Q-184.35 3.8 -184.05 4.05 L-183.7 4.65 -183.05 8.95 M-185.4 -10.55 L-185.3 -10.5 -185.15 -10.6 -185.3 -10.65 -185.4 -10.55 M-185.1 -10.25 L-185.2 -10.2 Q-185.55 -10.15 -185.6 -10.4 L-185.45 -10.7 Q-185.15 -10.8 -185.05 -10.55 -184.95 -10.35 -185.1 -10.25 M-187.95 -10.95 L-187.85 -11.05 -187.95 -11.15 -188.05 -11.05 -187.95 -10.95 M-188.25 -10.85 L-188.1 -11.2 Q-187.85 -11.3 -187.7 -11.05 -187.6 -10.75 -187.85 -10.7 -188.2 -10.6 -188.25 -10.85 M-184.1 4.7 L-184.3 4.35 -184.7 4.25 -189.0 4.9 -189.35 5.1 -189.4 5.5 -188.75 9.8 -188.55 10.15 -188.2 10.25 -183.85 9.6 -183.55 9.4 -183.45 9.0 -184.1 4.7 M-186.55 5.15 L-185.75 5.25 Q-185.5 5.35 -185.45 5.75 L-185.55 6.55 -186.05 7.35 -185.55 7.35 -185.1 7.55 -185.0 7.85 Q-184.95 8.45 -185.6 9.05 -186.1 9.5 -186.8 9.65 L-187.1 9.55 -187.3 9.3 Q-187.3 9.15 -186.95 9.1 L-186.55 8.95 -185.9 8.35 -185.9 8.05 -186.0 8.0 -186.4 7.95 -186.95 8.15 -187.2 7.75 -187.15 7.45 -186.6 6.95 -186.3 6.25 -186.35 6.05 Q-186.4 5.95 -186.5 5.95 L-186.65 5.95 -187.2 6.2 -187.6 6.5 -187.75 6.3 -187.85 6.05 -187.8 5.8 -186.8 5.2 -186.55 5.15" fill="#231f20" fill-rule="evenodd" stroke="none"/>
    <path d="M-182.45 -6.95 L-181.1 -4.9 -182.85 -5.25 -184.35 -4.3 -185.7 -3.15 -185.75 -3.05 -187.4 -1.6 -187.4 -1.25 -187.4 -0.95 -187.4 -0.9 -187.45 -0.8 -187.55 -0.65 -187.55 -0.3 -187.4 0.05 -186.9 0.2 -186.8 0.35 -186.7 0.3 -186.7 0.5 -190.65 0.95 -191.2 -3.1 -190.9 -3.45 Q-190.55 -4.1 -190.65 -4.85 -190.75 -5.25 -191.15 -5.45 L-191.55 -5.55 -191.85 -7.9 -188.8 -8.15 -188.8 -8.05 -188.8 -8.0 -189.75 -7.65 -190.05 -6.2 Q-190.05 -5.2 -189.35 -4.55 L-189.25 -4.45 -190.65 0.95 -190.65 1.0 -190.65 0.95 -190.6 1.0 -190.65 1.0 -190.65 0.95 -190.5 0.85 -182.45 -6.95 M-178.85 4.35 L-183.05 8.95 -183.7 4.65 -184.05 4.05 Q-184.35 3.8 -184.75 3.85 L-187.6 4.3 -190.6 1.0 -190.45 1.05 -178.85 4.35 M-189.1 12.55 L-194.5 11.9 -193.5 9.1 -193.3 9.35 -192.85 9.45 -190.0 9.0 -189.7 8.9 -189.45 10.5 -189.35 10.85 -189.1 12.55 M-198.65 9.35 L-200.05 6.8 -198.6 3.8 -196.5 3.9 -196.3 3.85 -196.15 3.6 -196.15 3.55 -196.1 3.45 -196.05 2.7 -190.75 1.0 -190.65 1.0 -190.15 4.5 -190.45 4.5 -192.0 4.75 -190.7 1.1 -190.65 1.0 -198.65 9.35 M-203.1 -2.6 L-201.05 -4.8 Q-200.85 -3.9 -200.4 -3.55 -200.0 -3.2 -199.05 -3.25 L-197.2 -3.6 -195.65 -4.0 -195.25 -3.65 -195.3 -3.55 Q-195.25 -2.65 -194.75 -2.4 L-193.75 -2.15 -190.7 0.95 -190.65 0.95 -190.65 1.0 -190.7 1.0 -190.65 0.95 -195.85 -0.55 -195.85 -0.6 -195.95 -0.85 -196.15 -0.95 -197.65 -1.05 -203.1 -2.6 M-198.9 3.9 L-198.85 3.75 -198.9 3.9 M-200.6 -4.2 L-200.7 -4.4 -200.75 -4.65 -200.6 -4.2 M-195.0 -2.8 L-195.15 -3.55 -195.1 -3.25 -195.0 -2.8 M-191.4 -4.8 L-191.35 -4.75 -191.25 -4.4 -191.3 -4.05 -191.4 -4.8 M-198.7 3.8 L-198.75 3.9 -198.7 3.8" fill="#ef8b00" fill-rule="evenodd" stroke="none"/>
    <path d="M-181.1 -4.9 L-180.15 -4.6 -179.1 -3.7 -178.45 -3.05 -176.65 -2.5 -176.15 -1.7 -176.05 -1.5 -176.1 -1.35 -176.15 -1.35 -176.35 -1.05 -176.2 -1.35 -176.25 -1.5 -176.45 -1.85 -176.8 -2.4 -177.65 -2.65 -178.55 -2.9 Q-178.5 -2.65 -179.2 -2.0 L-179.8 -1.55 Q-181.05 -0.55 -181.8 -0.35 L-181.2 -0.15 -181.0 -0.1 -180.4 0.25 -180.4 0.3 -179.95 1.0 -179.65 1.5 -179.75 1.5 -180.35 1.4 -180.55 1.4 -180.6 1.55 -180.5 1.85 -180.45 2.0 -180.9 1.9 Q-181.0 1.25 -181.3 0.95 -181.6 0.7 -181.85 0.75 L-181.9 0.75 Q-182.2 0.8 -182.3 1.1 L-182.35 1.15 -182.4 1.45 -182.4 1.6 -182.55 1.6 -182.5 0.95 -182.15 0.55 -182.65 0.7 -183.7 0.5 -184.25 0.35 -184.3 0.2 -184.35 -0.65 -184.35 -0.9 -184.3 -2.35 -184.3 -2.4 -184.3 -2.35 -184.5 -1.0 -184.45 -0.7 -184.4 0.2 -184.35 0.3 -184.6 0.25 -184.9 0.15 -184.95 0.2 -185.0 0.25 -185.0 0.3 -184.95 0.6 -184.9 0.65 -185.0 0.65 -185.3 0.75 -185.35 0.5 -185.4 0.35 -185.7 -0.1 Q-186.05 -0.45 -186.35 -0.4 L-186.7 -0.15 -186.75 -0.05 -186.8 0.35 -186.9 0.2 -186.9 0.0 -186.75 -0.25 -186.45 -0.55 -186.85 -0.45 -187.2 -0.6 -187.35 -0.65 -187.35 -0.75 -187.35 -0.95 -187.4 -1.25 -187.4 -1.6 -185.75 -3.05 -185.7 -3.15 -184.35 -4.3 -182.85 -5.25 -181.1 -4.9 M-186.05 -2.1 L-185.85 -2.8 -187.15 -1.65 -186.3 -1.35 -186.05 -2.1 M-185.25 -0.2 Q-185.45 -0.5 -185.75 -0.6 L-186.3 -0.55 -185.75 -0.4 -185.4 -0.05 -185.15 0.1 -185.25 -0.2 M-185.95 -1.7 L-186.05 -1.4 Q-185.75 -1.15 -184.75 -0.85 L-184.7 -1.55 -184.65 -1.95 -184.6 -2.25 Q-185.3 -2.4 -185.5 -2.65 L-185.95 -1.7 M-180.95 -4.7 L-181.55 -4.85 -182.75 -5.05 -184.2 -4.15 -185.35 -3.0 Q-185.4 -2.85 -184.6 -2.7 L-183.0 -2.75 -181.35 -3.65 -180.65 -4.2 -180.5 -4.45 -180.95 -4.7 M-181.75 -0.6 Q-180.9 -0.9 -179.9 -1.7 L-179.3 -2.15 -178.75 -3.0 -179.05 -3.4 -180.0 -4.2 -180.4 -3.8 -181.15 -3.15 -182.75 -2.05 -181.95 -0.55 -181.75 -0.6 M-182.55 -0.65 L-183.15 -2.0 -184.15 -2.1 -184.15 -1.85 -184.15 -1.5 -184.15 -0.7 -182.5 -0.45 -182.55 -0.65 M-180.8 1.15 L-180.85 0.9 Q-181.1 0.6 -181.45 0.45 L-182.0 0.5 -181.45 0.7 -181.05 1.0 -180.8 1.15 M-176.9 -0.5 L-176.7 -0.75 Q-176.65 -0.75 -176.5 -0.9 L-176.9 -0.5" fill="#892c34" fill-rule="evenodd" stroke="none"/>
    <path d="M-186.05 -2.1 L-186.3 -1.35 -187.15 -1.65 -185.85 -2.8 -186.05 -2.1 M-179.65 1.5 L-179.95 1.0 -180.4 0.3 -180.4 0.25 -179.6 0.05 -180.5 -0.8 -179.2 -0.1 -178.5 -0.5 -178.3 -0.6 -178.3 -0.65 -177.25 -1.65 -178.65 -2.25 -177.1 -1.85 -177.15 -1.75 -176.8 -2.4 -176.45 -1.85 -176.5 -1.95 -176.8 -2.1 -177.05 -1.8 -177.2 -1.35 -177.15 -1.15 -177.0 -0.9 Q-176.85 -0.7 -176.75 -0.75 L-176.7 -0.75 -176.9 -0.5 -177.15 -0.9 -177.3 -1.1 -178.05 -0.55 -178.05 -0.5 -178.8 0.1 -178.7 0.5 -178.5 0.8 -178.45 0.8 -179.4 1.4 -179.65 1.5 M-185.25 -0.2 L-185.15 0.1 -185.4 -0.05 -185.75 -0.4 -186.3 -0.55 -185.75 -0.6 Q-185.45 -0.5 -185.25 -0.2 M-180.8 1.15 L-181.05 1.0 -181.45 0.7 -182.0 0.5 -181.45 0.45 Q-181.1 0.6 -180.85 0.9 L-180.8 1.15 M-178.8 0.65 L-179.05 0.35 Q-179.2 0.15 -179.25 0.2 L-179.7 0.3 -180.1 0.45 -180.05 0.8 -179.75 1.25 -179.55 1.4 -179.1 1.15 -178.75 0.9 Q-178.7 0.8 -178.8 0.65" fill="#b5414f" fill-rule="evenodd" stroke="none"/>
    <path d="M-184.65 -1.95 L-184.7 -1.55 -184.75 -0.85 Q-185.75 -1.15 -186.05 -1.4 L-185.95 -1.7 -184.65 -1.95 M-182.55 -0.65 L-182.5 -0.45 -184.15 -0.7 -184.15 -1.5 -184.15 -1.85 -184.1 -1.85 Q-183.25 -1.5 -182.55 -0.65" fill="#6cc3e5" fill-rule="evenodd" stroke="none"/>
    <path d="M-187.4 -1.25 L-187.35 -0.95 -187.35 -0.75 -187.4 -0.9 -187.4 -0.95 -187.4 -1.25" fill="#c6411a" fill-rule="evenodd" stroke="none"/>
    <path d="M-176.05 -1.5 L-176.05 -1.55 -175.85 -1.5 -175.75 -1.2 -175.65 -0.75 Q-175.7 -0.25 -177.4 1.05 L-177.6 1.2 Q-179.1 2.35 -179.6 2.45 L-180.05 2.35 -180.35 2.25 -180.4 2.1 -180.45 2.0 -180.5 1.85 -180.6 1.55 -180.55 1.4 -180.35 1.4 -179.75 1.5 -179.65 1.5 -179.15 1.65 Q-178.6 1.6 -177.65 0.95 L-177.6 0.95 Q-176.3 0.05 -175.8 -0.8 L-176.0 -1.35 -176.1 -1.35 -176.05 -1.5 M-187.35 -0.75 L-187.35 -0.65 -187.2 -0.6 -186.85 -0.45 -186.8 -0.45 -186.9 0.0 -186.9 0.2 -187.4 0.05 -187.55 -0.3 -187.55 -0.65 -187.45 -0.8 -187.4 -0.9 -187.35 -0.75 M-184.9 0.65 L-184.95 0.6 -185.0 0.3 -185.0 0.25 -184.95 0.2 -184.9 0.15 -184.6 0.25 -184.35 0.3 -184.2 0.7 -184.25 0.35 -183.7 0.5 -182.65 0.7 -182.55 0.7 -182.7 1.15 -183.8 0.95 -184.9 0.65 M-179.4 1.4 L-179.65 1.5 -179.4 1.4 M-178.45 0.8 L-178.5 0.8 -178.7 0.5 -178.8 0.1 -178.05 -0.5 -178.05 -0.55 -177.3 -1.1 -177.15 -0.9 -176.9 -0.5 -177.6 0.2 -177.75 0.3 -178.4 0.75 -178.45 0.8 M-177.85 -0.25 L-177.3 -0.8 -177.85 -0.45 -177.95 -0.4 -178.55 0.2 -177.85 -0.25 M-177.8 -0.1 L-178.4 0.45 -177.8 0.1 -177.7 0.05 -177.2 -0.5 -177.8 -0.1" fill="#222227" fill-rule="evenodd" stroke="none"/>
    <path d="M-186.35 -0.4 Q-186.05 -0.45 -185.7 -0.1 L-185.4 0.35 -185.35 0.5 Q-185.25 0.85 -185.45 1.1 L-185.9 1.25 -186.4 0.9 -186.65 0.5 -186.7 0.3 -186.7 0.25 -186.35 -0.4 M-181.9 0.75 L-181.85 0.75 Q-181.5 0.85 -181.25 1.1 -181.05 1.3 -181.0 1.7 -180.9 2.1 -181.1 2.35 L-181.55 2.5 -182.05 2.15 -182.35 1.6 -182.3 1.5 -182.2 1.0 -181.9 0.75 M-186.4 0.35 L-186.35 0.45 -186.25 0.65 -186.0 0.8 -185.75 0.75 -185.7 0.45 -185.75 0.4 Q-185.85 0.05 -186.15 0.0 L-186.35 0.1 -186.4 0.35 M-181.8 1.2 L-182.0 1.3 -182.05 1.6 -181.65 2.05 -181.4 2.0 -181.35 1.7 Q-181.45 1.3 -181.8 1.2" fill="#383d3d" fill-rule="evenodd" stroke="none"/>
    <path d="M-186.85 -0.45 L-186.45 -0.55 -186.75 -0.25 -186.9 0.0 -186.8 -0.45 -186.85 -0.45 M-186.8 0.35 L-186.75 -0.05 -186.7 -0.15 -186.35 -0.4 -186.7 0.25 -186.7 0.3 -186.8 0.35 M-185.3 0.75 L-185.0 0.65 -184.9 0.65 -183.8 0.95 -182.7 1.15 -182.55 0.7 -182.65 0.7 -182.15 0.55 -182.5 0.95 -182.55 1.6 -184.8 0.9 -185.05 0.8 -185.3 0.75 M-184.35 0.3 L-184.4 0.2 -184.45 -0.7 -184.5 -1.0 -184.3 -2.35 -184.3 -2.4 -184.3 -2.35 -184.35 -0.9 -184.35 -0.65 -184.3 0.2 -184.25 0.35 -184.2 0.7 -184.35 0.3 M-182.4 1.6 L-182.4 1.45 -182.35 1.15 -182.3 1.1 Q-182.2 0.8 -181.9 0.75 L-182.2 1.0 -182.3 1.5 -182.35 1.6 -182.4 1.6" fill="#590c15" fill-rule="evenodd" stroke="none"/>
    <path d="M-186.4 0.35 L-186.35 0.1 -186.15 0.0 Q-185.85 0.05 -185.75 0.4 L-185.7 0.45 -185.75 0.75 -186.0 0.8 -186.25 0.65 -186.35 0.45 -186.4 0.35 M-186.15 0.25 L-186.15 0.4 -186.15 0.45 -186.0 0.6 -185.85 0.55 -185.85 0.4 -186.05 0.2 -186.15 0.25 M-181.8 1.2 Q-181.45 1.3 -181.35 1.7 L-181.4 2.0 -181.65 2.05 -182.05 1.6 -182.0 1.3 -181.8 1.2 M-181.8 1.5 L-181.8 1.6 -181.65 1.85 -181.5 1.8 -181.5 1.65 -181.7 1.45 Q-181.8 1.4 -181.8 1.5" fill="#909b92" fill-rule="evenodd" stroke="none"/>
    <path d="M-185.35 0.5 L-185.3 0.75 -185.05 0.8 -184.8 0.9 -185.1 1.1 -185.55 1.4 -185.75 1.4 -186.4 1.0 -186.7 0.5 -186.7 0.3 -186.65 0.5 -186.4 0.9 -185.9 1.25 -185.45 1.1 Q-185.25 0.85 -185.35 0.5 M-181.85 0.75 Q-181.6 0.7 -181.3 0.95 -181.0 1.25 -180.9 1.9 L-180.45 2.0 -180.4 2.1 -180.7 2.35 -181.2 2.65 -181.45 2.65 -182.05 2.25 -182.35 1.6 -182.05 2.15 -181.55 2.5 -181.1 2.35 Q-180.9 2.1 -181.0 1.7 -181.05 1.3 -181.25 1.1 -181.5 0.85 -181.85 0.75" fill="#181c1c" fill-rule="evenodd" stroke="none"/>
    <path d="M-186.15 0.25 L-186.05 0.2 -185.85 0.4 -185.85 0.55 -186.0 0.6 -186.15 0.45 -186.15 0.4 -186.15 0.25 M-181.8 1.5 Q-181.8 1.4 -181.7 1.45 L-181.5 1.65 -181.5 1.8 -181.65 1.85 -181.8 1.6 -181.8 1.5" fill="#555b56" fill-rule="evenodd" stroke="none"/>
    <path d="M-184.65 -1.95 L-185.95 -1.7 -185.5 -2.65 Q-185.3 -2.4 -184.6 -2.25 L-184.65 -1.95 M-181.75 -0.6 Q-182.1 -1.45 -181.0 -2.7 L-180.15 -3.3 -180.1 -3.35 -179.05 -3.4 -178.75 -3.0 -179.3 -2.15 -179.9 -1.7 Q-180.9 -0.9 -181.75 -0.6 M-184.15 -1.85 L-184.15 -2.1 -183.15 -2.0 -182.55 -0.65 Q-183.25 -1.5 -184.1 -1.85 L-184.15 -1.85" fill="#9ee7ff" fill-rule="evenodd" stroke="none"/>
    <path d="M-180.4 0.25 L-181.0 -0.1 -181.2 -0.15 -181.8 -0.35 Q-181.05 -0.55 -179.8 -1.55 L-179.2 -2.0 Q-178.5 -2.65 -178.55 -2.9 L-177.65 -2.65 -176.8 -2.4 -177.15 -1.75 -177.1 -1.85 -178.65 -2.25 -177.25 -1.65 -178.3 -0.65 -178.3 -0.6 -178.5 -0.5 -179.2 -0.1 -180.5 -0.8 -179.6 0.05 -180.4 0.25 M-180.95 -4.7 L-180.5 -4.45 -180.65 -4.2 -181.35 -3.65 -183.0 -2.75 -184.6 -2.7 Q-185.4 -2.85 -185.35 -3.0 L-184.2 -4.15 -182.75 -5.05 -181.55 -4.85 -180.95 -4.7 M-180.95 -4.55 L-181.45 -4.45 Q-181.6 -4.4 -181.35 -4.2 L-180.9 -4.25 -180.8 -4.4 -180.85 -4.5 -180.95 -4.55 M-177.55 -2.35 L-177.35 -2.15 Q-177.0 -2.1 -177.05 -2.35 L-177.25 -2.45 -177.55 -2.35" fill="#cc4f62" fill-rule="evenodd" stroke="none"/>
    <path d="M-176.45 -1.85 L-176.25 -1.5 -176.3 -1.55 Q-176.6 -1.65 -176.75 -1.4 L-176.9 -1.15 -177.0 -0.9 -177.15 -1.15 -177.2 -1.35 -177.05 -1.8 -176.8 -2.1 -176.5 -1.95 -176.45 -1.85 M-179.4 0.25 L-179.8 0.45 -179.6 0.5 -179.3 0.4 Q-179.2 0.2 -179.4 0.25 M-179.75 1.25 L-180.05 0.8 -180.1 0.45 -179.7 0.3 -179.25 0.2 Q-179.2 0.15 -179.05 0.35 L-178.8 0.65 -179.35 0.65 -179.65 0.9 -179.75 1.25 M-176.9 -1.75 L-176.9 -1.55 -176.65 -1.7 -176.65 -1.9 -176.9 -1.75" fill="#abbcbf" fill-rule="evenodd" stroke="none"/>
    <path d="M-176.35 -1.05 L-176.15 -1.35 -176.1 -1.35 -176.0 -1.35 -175.8 -0.8 Q-176.3 0.05 -177.6 0.95 L-177.65 0.95 Q-178.6 1.6 -179.15 1.65 L-179.65 1.5 -179.4 1.4 -178.45 0.8 -178.4 0.75 -177.75 0.3 -177.6 0.2 -176.9 -0.5 -176.5 -0.9 -176.45 -0.95 -176.35 -1.05 M-177.8 -0.1 L-177.2 -0.5 -177.7 0.05 -177.8 0.1 -178.4 0.45 -177.8 -0.1 M-177.85 -0.25 L-178.55 0.2 -177.95 -0.4 -177.85 -0.45 -177.3 -0.8 -177.85 -0.25" fill="#595863" fill-rule="evenodd" stroke="none"/>
    <path d="M-176.25 -1.5 L-176.2 -1.35 -176.35 -1.05 -176.45 -0.95 -176.5 -0.9 Q-176.65 -0.75 -176.7 -0.75 L-176.75 -0.75 Q-176.85 -0.7 -177.0 -0.9 L-176.9 -1.15 -176.75 -1.4 Q-176.6 -1.65 -176.3 -1.55 L-176.25 -1.5 M-179.75 1.25 L-179.65 0.9 -179.35 0.65 -178.8 0.65 Q-178.7 0.8 -178.75 0.9 L-179.1 1.15 -179.55 1.4 -179.75 1.25" fill="#d0dee2" fill-rule="evenodd" stroke="none"/>
    <path d="M-184.1 4.7 L-183.45 9.0 -183.55 9.4 -183.85 9.6 -188.2 10.25 -188.55 10.15 -188.75 9.8 -189.4 5.5 -189.35 5.1 -189.0 4.9 -184.7 4.25 -184.3 4.35 -184.1 4.7 M-186.55 5.15 L-186.8 5.2 -187.8 5.8 -187.85 6.05 -187.75 6.3 -187.6 6.5 -187.2 6.2 -186.65 5.95 -186.5 5.95 Q-186.4 5.95 -186.35 6.05 L-186.3 6.25 -186.6 6.95 -187.15 7.45 -187.2 7.75 -186.95 8.15 -186.4 7.95 -186.0 8.0 -185.9 8.05 -185.9 8.35 -186.55 8.95 -186.95 9.1 Q-187.3 9.15 -187.3 9.3 L-187.1 9.55 -186.8 9.65 Q-186.1 9.5 -185.6 9.05 -184.95 8.45 -185.0 7.85 L-185.1 7.55 -185.55 7.35 -186.05 7.35 -185.55 6.55 -185.45 5.75 Q-185.5 5.35 -185.75 5.25 L-186.55 5.15 M-190.15 4.85 L-190.0 5.05 -189.55 7.95 -189.65 8.2 -189.75 8.3 -189.8 8.3 -189.85 8.3 -192.75 8.75 -192.95 8.7 -193.1 8.5 -193.55 5.6 -193.5 5.35 -193.25 5.2 -190.4 4.8 -190.15 4.85 M-190.05 6.3 Q-190.05 6.1 -190.45 6.2 L-191.15 6.3 -191.25 5.25 -191.4 5.25 -191.6 5.25 -191.9 5.45 -191.9 6.5 -192.95 6.8 -193.05 6.95 -193.05 7.1 -192.85 7.2 -191.85 7.05 -191.8 7.5 -191.65 8.15 -191.6 8.2 -191.35 8.25 -191.0 8.1 -191.1 6.95 -190.1 6.75 -190.05 6.5 -190.05 6.3 M-198.9 3.9 L-200.6 7.5 -200.8 7.7 -201.05 7.65 -205.25 5.7 -205.4 5.5 -205.4 5.25 -202.85 -0.2 -202.65 -0.35 -202.4 -0.35 -198.2 1.65 -198.05 1.85 -198.05 2.1 -198.2 2.45 -198.3 2.6 -198.55 3.2 -198.7 3.5 -198.75 3.6 -198.85 3.75 -198.9 3.9 M-199.7 1.45 L-199.8 1.4 -200.0 1.3 -202.5 0.15 -204.9 5.35 -204.85 5.35 -200.95 7.2 -198.55 2.0 -199.7 1.45 M-199.35 0.95 L-199.65 0.8 -199.55 -0.85 -199.45 -1.0 -199.3 -1.05 -196.2 -0.85 -196.0 -0.8 -195.95 -0.6 -196.25 3.45 -196.3 3.6 -196.45 3.65 -198.5 3.5 -198.35 3.2 -196.55 3.3 -196.3 -0.55 -199.2 -0.75 -199.35 0.95 M-198.4 3.2 L-198.55 3.5 -198.4 3.2" fill="#ffffff" fill-rule="evenodd" stroke="none"/>
    <path d="M-192.0 4.75 L-190.45 4.5 -190.15 4.5 -190.0 4.6 -189.75 5.0 -189.3 7.9 -189.45 8.4 -189.6 8.8 -189.7 8.9 -190.0 9.0 -192.85 9.45 -193.3 9.35 -193.5 9.1 -193.55 8.95 -194.0 6.05 -193.85 5.55 -193.7 5.15 -193.3 4.95 -192.0 4.75 M-190.15 4.85 L-190.4 4.8 -193.25 5.2 -193.5 5.35 -193.55 5.6 -193.1 8.5 -192.95 8.7 -192.75 8.75 -189.85 8.3 -189.8 8.3 -189.75 8.3 -189.65 8.2 -189.55 7.95 -190.0 5.05 -190.15 4.85 M-190.05 6.3 L-190.05 6.5 -190.1 6.75 -191.1 6.95 -191.0 8.1 -191.35 8.25 -191.6 8.2 -191.65 8.15 -191.8 7.5 -191.85 7.05 -192.85 7.2 -193.05 7.1 -193.05 6.95 -192.95 6.8 -191.9 6.5 -191.9 5.45 -191.6 5.25 -191.4 5.25 -191.25 5.25 -191.15 6.3 -190.45 6.2 Q-190.05 6.1 -190.05 6.3" fill="#ec1c24" fill-rule="evenodd" stroke="none"/>
    <path d="M-205.6 5.4 L-205.55 5.2 -203.6 1.15 -203.0 -0.25 -202.7 -0.5 -202.35 -0.5 -199.75 0.75 -199.65 -0.8 -199.65 -0.85 -199.5 -1.1 -199.3 -1.15 -197.65 -1.05 -196.15 -0.95 -195.95 -0.85 -195.85 -0.6 -195.85 -0.55 -196.05 2.7 -196.1 3.45 -196.15 3.55 -196.45 3.75 -198.55 3.6 -198.5 3.5 -196.45 3.65 -196.3 3.6 -196.25 3.45 -195.95 -0.6 -196.0 -0.8 -196.2 -0.85 -199.3 -1.05 -199.45 -1.0 -199.55 -0.85 -199.65 0.8 -199.35 0.95 -198.75 1.25 -198.15 1.5 Q-197.95 1.6 -197.9 1.8 L-197.9 2.15 -198.15 2.65 -198.4 3.2 -198.55 3.5 -198.6 3.6 -198.7 3.8 -198.75 3.9 -200.45 7.6 -200.75 7.85 -201.1 7.8 -205.3 5.85 -205.6 5.4 M-198.2 2.45 L-198.05 2.1 -198.05 1.85 -198.2 1.65 -202.4 -0.35 -202.65 -0.35 -202.85 -0.2 -205.4 5.25 -205.4 5.5 -205.25 5.7 -201.05 7.65 -200.8 7.7 -200.6 7.5 -198.9 3.9 -198.85 3.75 -198.75 3.6 -198.7 3.5 -198.55 3.2 -198.3 2.6 -198.2 2.45 M-199.7 1.45 L-199.8 1.4 -199.7 1.45" fill="#333333" fill-rule="evenodd" stroke="none"/>
    <path d="M-197.95 -8.85 L-197.8 -8.85 -197.55 -7.95 -196.65 -8.15 -196.9 -8.95 -196.9 -9.1 -195.85 -9.4 -195.45 -9.45 -195.4 -9.25 -195.35 -8.65 -195.35 -8.55 -195.35 -7.8 -198.25 -6.7 -198.3 -6.7 -199.4 -6.55 Q-200.4 -6.5 -201.25 -7.0 L-201.35 -7.3 -201.4 -7.4 -201.45 -7.6 -201.85 -8.45 -200.4 -8.45 -200.4 -8.0 -200.4 -7.95 -200.4 -7.65 -200.4 -7.6 -200.35 -7.45 -200.3 -7.45 -200.15 -7.35 -199.6 -7.35 -199.5 -7.9 -199.6 -8.55 -198.6 -8.7 -198.5 -8.7 -197.95 -8.85 M-195.15 -6.1 L-195.15 -6.05 -195.1 -5.95 -195.1 -5.9 -194.7 -4.7 -195.05 -4.5 -195.15 -4.45 -195.25 -4.45 -195.85 -4.25 -197.0 -3.95 -199.4 -3.55 -200.1 -3.7 -200.6 -4.2 -200.75 -4.65 -200.85 -5.05 -200.9 -5.25 -200.9 -5.35 -200.65 -5.2 Q-199.65 -4.55 -198.1 -5.0 L-197.05 -5.4 -196.65 -5.6 -195.15 -6.1 M-200.35 -7.95 L-200.4 -8.0 -200.3 -8.45 -200.15 -8.95 -199.7 -9.9 -199.25 -10.4 -198.15 -10.75 Q-197.65 -10.8 -197.4 -10.45 L-197.15 -9.8 -197.15 -9.65 -197.05 -9.05 -197.05 -8.9 -197.55 -8.75 -197.55 -8.95 -197.55 -9.55 -197.55 -9.65 Q-197.6 -10.15 -198.0 -10.35 L-198.8 -10.2 -199.25 -9.85 -199.3 -9.75 -199.7 -9.05 -199.8 -8.7 -199.85 -8.5 -199.85 -8.25 -199.85 -8.2 -199.85 -8.15 -200.35 -7.95" fill="#ffdf34" fill-rule="evenodd" stroke="none"/>
    <path d="M-201.05 -4.8 L-201.45 -6.55 -202.05 -8.25 -202.15 -8.4 -202.2 -8.5 Q-202.0 -8.9 -200.85 -8.85 L-200.7 -8.85 -200.8 -9.0 -200.9 -9.2 -200.9 -9.6 Q-200.85 -10.0 -200.4 -10.25 L-199.8 -10.45 -199.45 -10.4 Q-199.0 -10.75 -198.5 -10.9 L-197.55 -10.8 -197.2 -10.35 -197.0 -9.85 -196.95 -9.7 Q-195.6 -9.95 -195.2 -9.7 -195.05 -9.6 -195.05 -8.8 L-195.05 -7.85 -194.85 -6.3 -194.8 -6.1 -194.75 -6.0 -194.75 -5.85 -194.6 -5.4 -194.45 -4.75 Q-194.35 -4.5 -195.15 -4.2 L-195.25 -4.15 -195.6 -4.05 -195.65 -4.0 -197.2 -3.6 -199.05 -3.25 Q-200.0 -3.2 -200.4 -3.55 -200.85 -3.9 -201.05 -4.8 M-195.35 -8.55 L-195.35 -8.65 -195.4 -9.25 -195.45 -9.45 -195.85 -9.4 -196.9 -9.1 -196.9 -8.95 -196.65 -8.15 -197.55 -7.95 -197.8 -8.85 -197.95 -8.85 -198.6 -8.7 -199.6 -8.55 -199.5 -7.9 -199.6 -7.35 -200.15 -7.35 -200.3 -7.45 -200.35 -7.45 -200.4 -7.6 -200.4 -7.65 -200.4 -7.95 -200.4 -8.0 -200.4 -8.45 -201.85 -8.45 -201.45 -7.6 -201.4 -7.4 -201.35 -7.3 -201.05 -6.1 -200.95 -5.5 -200.9 -5.35 -200.9 -5.25 -200.85 -5.05 -200.75 -4.65 -200.7 -4.4 -200.6 -4.2 -200.1 -3.7 -199.4 -3.55 -197.0 -3.95 -195.85 -4.25 -195.25 -4.45 -195.15 -4.45 -195.05 -4.5 -194.7 -4.7 -195.1 -5.9 -195.1 -5.95 -195.15 -6.05 -195.15 -6.1 -195.35 -7.2 -195.35 -8.35 -195.35 -8.55 M-198.1 -10.05 L-198.5 -10.05 -197.85 -9.55 Q-197.9 -9.95 -198.1 -10.05 M-197.05 -8.9 L-197.05 -9.05 -197.15 -9.65 -197.15 -9.8 -197.4 -10.45 Q-197.65 -10.8 -198.15 -10.75 L-199.25 -10.4 -199.7 -9.9 -200.15 -8.95 -200.3 -8.45 -200.4 -8.0 -200.35 -7.95 -200.3 -7.75 -200.25 -7.45 -199.7 -7.55 -199.85 -8.15 -199.85 -8.2 -199.85 -8.25 -199.85 -8.5 -199.8 -8.7 -199.7 -9.05 -199.3 -9.75 -199.25 -9.85 -198.8 -10.2 -198.0 -10.35 Q-197.6 -10.15 -197.55 -9.65 L-197.55 -9.55 -197.55 -8.95 -197.55 -8.75 -197.35 -8.25 -196.9 -8.4 -196.95 -8.45 -197.0 -8.65 -197.05 -8.9 M-200.3 -9.25 L-200.3 -9.2 -200.0 -9.85 -200.15 -9.8 -200.4 -9.5 -200.3 -9.25 M-198.85 -9.65 L-198.95 -9.7 -199.35 -9.1 -198.45 -9.35 -198.85 -9.65" fill="#957d23" fill-rule="evenodd" stroke="none"/>
    <path d="M-201.25 -7.0 Q-200.4 -6.5 -199.4 -6.55 L-198.3 -6.7 -198.25 -6.7 -195.35 -7.8 -195.35 -7.2 -195.15 -6.1 -196.65 -5.6 -197.05 -5.4 -198.1 -5.0 Q-199.65 -4.55 -200.65 -5.2 L-200.9 -5.35 -200.95 -5.5 -201.05 -6.1 -201.25 -7.0 M-200.35 -7.95 L-199.85 -8.15 -199.7 -7.55 -200.25 -7.45 -200.3 -7.75 -200.35 -7.95 M-197.55 -8.75 L-197.05 -8.9 -197.0 -8.65 -196.95 -8.45 -196.9 -8.4 -197.35 -8.25 -197.55 -8.75" fill="#ffb238" fill-rule="evenodd" stroke="none"/>
    <path d="M-191.2 -3.1 Q-191.55 -2.8 -192.05 -2.95 -192.1 -2.25 -193.2 -2.15 L-193.75 -2.15 -194.75 -2.4 Q-195.25 -2.65 -195.3 -3.55 L-195.25 -3.65 -195.25 -4.15 -195.15 -4.2 -195.15 -4.15 -195.15 -4.0 -195.15 -3.6 -195.15 -3.55 -195.0 -2.8 -194.95 -2.75 Q-194.6 -2.4 -193.9 -2.3 L-193.4 -2.3 Q-192.25 -2.3 -192.05 -2.95 L-192.3 -3.1 -192.35 -3.4 -192.25 -3.5 -192.05 -3.45 -192.1 -4.85 -192.25 -4.75 -192.3 -4.8 -192.2 -5.1 -192.1 -5.3 -192.3 -5.75 Q-192.55 -6.1 -193.15 -6.2 L-193.5 -6.2 -193.95 -6.2 -194.75 -6.0 -194.8 -6.1 -194.65 -6.2 -193.3 -6.35 -192.05 -5.85 -191.95 -5.45 -191.55 -5.55 -191.15 -5.45 Q-190.75 -5.25 -190.65 -4.85 -190.55 -4.1 -190.9 -3.45 L-191.2 -3.1 M-191.05 -5.15 L-191.25 -5.3 -191.5 -5.4 -191.75 -5.4 -192.2 -5.1 -192.2 -4.95 -191.9 -5.1 -191.5 -5.05 -191.45 -5.0 -191.25 -4.85 -191.1 -4.35 -191.2 -3.85 -191.25 -3.65 -191.55 -3.35 -191.85 -3.3 -192.15 -3.25 -192.15 -3.2 -191.45 -3.15 -191.35 -3.25 -191.25 -3.35 -190.95 -3.8 -190.85 -4.8 -191.05 -5.15 M-191.4 -4.8 L-191.55 -4.9 -191.95 -4.95 -191.95 -4.75 -192.0 -3.45 Q-191.65 -3.35 -191.45 -3.7 L-191.3 -4.05 -191.25 -4.4 -191.35 -4.75 -191.4 -4.8" fill="#1b597b" fill-rule="evenodd" stroke="none"/>
    <path d="M-194.75 -6.0 L-193.95 -6.2 -193.65 -6.25 -193.5 -6.2 -193.15 -6.2 Q-192.55 -6.1 -192.3 -5.75 L-192.2 -5.65 -192.2 -5.55 -192.65 -5.3 -193.0 -5.1 -193.05 -4.1 Q-192.95 -3.35 -193.2 -3.05 -193.5 -2.55 -194.15 -2.65 L-194.3 -2.7 Q-194.8 -2.8 -195.1 -3.25 L-195.15 -3.55 -195.15 -3.6 -195.15 -4.0 -195.15 -4.15 -195.15 -4.2 Q-194.35 -4.5 -194.45 -4.75 L-194.6 -5.4 -194.5 -5.35 -193.6 -5.25 -193.45 -5.25 -192.7 -5.35 Q-192.35 -5.5 -192.35 -5.65 L-192.75 -6.0 -193.6 -6.1 -194.0 -6.1 -194.6 -5.95 -194.75 -5.85 -194.75 -6.0 M-192.2 -5.1 L-191.75 -5.4 -191.5 -5.4 -191.25 -5.3 -191.05 -5.15 -191.05 -5.05 -191.3 -5.05 Q-191.0 -4.85 -191.0 -4.4 -190.95 -4.05 -191.15 -3.65 L-191.25 -3.45 -191.55 -3.2 -192.15 -3.2 -192.15 -3.25 -191.85 -3.3 -191.55 -3.35 -191.25 -3.65 -191.2 -3.85 -191.1 -4.35 -191.25 -4.85 -191.45 -5.0 -191.5 -5.05 -191.9 -5.1 -192.2 -4.95 -192.2 -5.1" fill="#5ca7ff" fill-rule="evenodd" stroke="none"/>
    <path d="M-193.45 -5.25 L-193.6 -5.25 -194.5 -5.35 -194.6 -5.4 -194.75 -5.85 -194.6 -5.95 -194.0 -6.1 -194.05 -5.85 -193.95 -5.6 -193.45 -5.25" fill="#d4d1b8" fill-rule="evenodd" stroke="none"/>
    <path d="M-194.0 -6.1 L-193.6 -6.1 -192.75 -6.0 -192.35 -5.65 Q-192.35 -5.5 -192.7 -5.35 L-193.45 -5.25 -193.95 -5.6 -194.05 -5.85 -194.0 -6.1" fill="#efeddc" fill-rule="evenodd" stroke="none"/>
    <path d="M-192.1 -5.3 L-192.2 -5.1 -192.3 -4.8 -192.25 -4.75 -192.1 -4.85 -192.05 -3.45 -192.25 -3.5 -192.35 -3.4 -192.3 -3.1 -192.05 -2.95 Q-192.25 -2.3 -193.4 -2.3 L-193.9 -2.3 Q-194.6 -2.4 -194.95 -2.75 L-195.0 -2.8 -195.1 -3.25 Q-194.8 -2.8 -194.3 -2.7 L-194.15 -2.65 Q-193.5 -2.55 -193.2 -3.05 -192.95 -3.35 -193.05 -4.1 L-193.0 -5.1 -192.65 -5.3 -192.2 -5.55 -192.2 -5.65 -192.1 -5.3 M-191.05 -5.15 L-190.85 -4.8 -190.95 -3.8 -191.25 -3.35 -191.35 -3.25 -191.45 -3.15 -192.15 -3.2 -191.55 -3.2 -191.25 -3.45 -191.15 -3.65 Q-190.95 -4.05 -191.0 -4.4 -191.0 -4.85 -191.3 -5.05 L-191.05 -5.05 -191.05 -5.15" fill="#498ec7" fill-rule="evenodd" stroke="none"/>
    <path d="M-200.05 6.8 L-200.55 7.85 -200.8 8.1 -201.2 8.05 -205.35 6.1 -205.6 5.8 -205.6 5.45 -205.6 5.4 -205.3 5.85 -201.1 7.8 -200.75 7.85 -200.45 7.6 -198.75 3.9 -198.7 3.8 -198.6 3.6 -198.55 3.5 -198.4 3.2 -198.15 2.65 -197.95 2.2 Q-197.9 2.3 -198.0 2.4 L-198.1 2.65 -198.35 3.2 -198.5 3.5 -198.55 3.6 -196.45 3.75 -196.15 3.55 -196.15 3.6 -196.3 3.85 -196.5 3.9 -198.6 3.8 -200.05 6.8 M-198.85 3.75 L-198.75 3.6 -198.85 3.75 M-199.65 -0.8 L-199.75 0.75 -199.7 -0.7 -199.65 -0.8 M-199.9 2.9 L-199.9 2.95 -199.9 2.9" fill="#000000" fill-rule="evenodd" stroke="none"/>
    <path d="M-199.95 2.8 L-200.5 2.25 -200.8 2.3 -201.55 3.35 Q-201.15 2.35 -201.3 1.95 -201.45 1.6 -201.95 1.7 L-202.4 1.8 -202.8 2.0 Q-203.25 2.25 -203.15 2.6 -203.0 3.05 -202.05 3.5 L-203.25 3.2 -203.3 3.2 Q-203.95 3.3 -203.6 4.35 -203.2 5.35 -202.65 5.0 L-202.25 4.65 -201.9 4.0 -202.1 4.6 -202.15 5.25 Q-202.1 5.9 -201.05 5.55 L-200.8 5.45 Q-200.05 5.1 -200.4 4.6 L-200.8 4.2 -201.4 3.8 -200.55 4.1 -200.15 4.1 -199.75 3.85 -199.75 3.7 -199.75 3.5 -199.75 3.4 -199.75 3.35 -199.8 3.2 -199.85 3.0 -199.9 2.95 -199.9 2.9 -199.95 2.8 M-199.8 1.4 L-199.7 1.45 -198.55 2.0 -200.95 7.2 -204.85 5.35 -204.9 5.35 -202.5 0.15 -200.0 1.3 -199.8 1.4" fill="#bfd241" fill-rule="evenodd" stroke="none"/>
    <path d="M-199.9 2.95 L-199.85 3.0 -199.8 3.2 -199.75 3.35 -199.75 3.4 -199.75 3.5 -199.75 3.7 -199.75 3.85 -200.15 4.1 -200.55 4.1 -201.4 3.8 -200.8 4.2 -200.4 4.6 Q-200.05 5.1 -200.8 5.45 L-201.05 5.55 Q-202.1 5.9 -202.15 5.25 L-202.1 4.6 -201.9 4.0 -202.25 4.65 -202.65 5.0 Q-203.2 5.35 -203.6 4.35 -203.95 3.3 -203.3 3.2 L-203.25 3.2 -202.05 3.5 Q-203.0 3.05 -203.15 2.6 -203.25 2.25 -202.8 2.0 L-202.4 1.8 -201.95 1.7 Q-201.45 1.6 -201.3 1.95 -201.15 2.35 -201.55 3.35 L-200.8 2.3 -200.5 2.25 -199.95 2.8 -199.9 2.9 -199.9 2.95" fill="#22b473" fill-rule="evenodd" stroke="none"/>
    <path d="M-198.3 2.6 L-198.2 2.45 -198.3 2.6 M-198.15 2.65 L-197.9 2.15 -197.9 1.8 Q-197.95 1.6 -198.15 1.5 L-198.75 1.25 -198.35 0.6 -197.8 -0.1 -197.35 0.7 -196.9 1.8 -197.25 2.45 -197.95 2.65 -198.1 2.65 -198.0 2.4 Q-197.9 2.3 -197.95 2.2 L-198.15 2.65" fill="#26a9e0" fill-rule="evenodd" stroke="none"/>
    <path d="M-198.55 3.2 L-198.3 2.6 -198.55 3.2 M-199.35 0.95 L-199.2 -0.75 -196.3 -0.55 -196.55 3.3 -198.35 3.2 -198.1 2.65 -197.95 2.65 -197.25 2.45 -196.9 1.8 -197.35 0.7 -197.8 -0.1 -198.35 0.6 -198.75 1.25 -199.35 0.95 M-198.15 2.65 L-198.4 3.2 -198.15 2.65" fill="#aedae6" fill-rule="evenodd" stroke="none"/>
  </g>
</svg>
