<?xml version="1.0" encoding="UTF-8" standalone="no"?>
<svg xmlns:ffdec="https://www.free-decompiler.com/flash" xmlns:xlink="http://www.w3.org/1999/xlink" ffdec:objectType="shape" height="28.1px" width="30.0px" xmlns="http://www.w3.org/2000/svg">
  <g transform="matrix(1.0, 0.0, 0.0, 1.0, 205.65, 14.05)">
    <path d="M-186.2 -10.15 L-185.9 -10.3 -186.45 -10.0 Q-186.05 -11.65 -184.85 -12.9 -183.65 -14.1 -182.65 -14.05 -181.75 -14.05 -180.8 -13.0 -180.05 -12.15 -179.6 -11.0 L-179.85 -11.5 -180.25 -12.25 -180.1 -10.7 -181.05 -11.25 -181.65 -10.45 -183.0 -11.1 -184.1 -10.25 -184.8 -11.2 -186.2 -10.15 M-179.4 -4.65 Q-179.05 -3.45 -179.2 -2.15 -179.3 -1.2 -179.95 -0.55 -179.45 -1.1 -179.25 -1.9 -179.05 -2.9 -179.4 -4.65 M-180.4 -0.2 Q-181.35 0.5 -182.7 0.55 -184.05 0.55 -185.1 -0.1 -186.2 -0.85 -186.5 -2.25 L-186.45 -4.35 -185.8 -4.7 -185.95 -4.65 -185.7 -4.75 -184.9 -5.1 -184.1 -4.2 -182.95 -5.0 -181.5 -4.35 -180.8 -5.0 -180.2 -4.9 -180.05 -4.9 Q-180.2 -3.65 -180.95 -2.6 -181.65 -1.6 -182.65 -1.2 L-184.7 -1.05 Q-185.75 -1.4 -186.5 -2.65 -186.4 -1.65 -185.9 -0.9 -185.35 -0.2 -184.5 0.15 L-182.7 0.5 Q-181.7 0.45 -180.75 0.0 L-180.4 -0.2 M-182.65 -13.55 L-182.75 -13.25 -182.55 -12.75 Q-182.1 -12.15 -181.65 -12.45 -181.2 -12.75 -181.75 -13.3 L-182.2 -13.6 -182.65 -13.55" fill="#e2eec7" fill-rule="evenodd" stroke="none"/>
    <path d="M-180.35 -5.05 L-179.95 -4.9 -180.0 -4.9 -180.05 -4.9 -180.2 -4.9 -180.8 -5.0 -181.5 -4.35 -182.95 -5.0 -184.1 -4.2 -184.9 -5.1 -185.7 -4.75 -185.05 -5.15 -184.85 -5.3 -184.1 -4.35 -182.95 -5.25 -181.55 -4.5 -180.9 -5.3 -180.6 -5.2 -180.35 -5.05 M-182.65 -13.55 L-182.2 -13.6 -181.75 -13.3 Q-181.2 -12.75 -181.65 -12.45 -182.1 -12.15 -182.55 -12.75 L-182.75 -13.25 -182.65 -13.55 M-184.7 -9.45 Q-184.9 -9.4 -184.9 -9.5 L-184.8 -9.65 -184.6 -9.6 -184.7 -9.45 M-182.85 -9.55 L-182.65 -9.45 Q-182.6 -9.3 -182.7 -9.25 -182.9 -9.15 -182.95 -9.35 L-182.85 -9.55 M-180.9 -9.45 L-181.05 -9.5 -180.95 -9.65 -180.75 -9.6 Q-180.7 -9.45 -180.9 -9.45 M-191.35 8.3 Q-191.35 8.65 -191.75 8.5 L-192.0 8.2 -191.6 8.15 Q-191.35 8.2 -191.35 8.3 M-190.9 8.95 L-190.95 9.25 -191.3 9.4 -191.25 9.1 Q-191.05 8.85 -190.9 8.95 M-196.0 4.5 Q-195.6 4.65 -195.95 4.9 L-196.6 4.85 -196.75 4.65 -196.65 4.5 -196.0 4.5 M-197.9 9.55 L-198.25 9.6 -198.55 8.5 -198.9 7.4 Q-198.1 7.15 -196.55 6.3 -195.0 5.45 -194.8 5.2 L-194.3 5.7 -193.75 6.45 -195.15 6.35 Q-195.9 6.5 -196.5 6.95 L-197.6 8.1 Q-198.1 8.85 -197.9 9.55 M-195.55 11.35 L-195.0 11.2 Q-194.75 11.2 -194.9 11.45 L-195.35 11.5 -195.55 11.35" fill="#fcfcfc" fill-rule="evenodd" stroke="none"/>
    <path d="M-180.25 -10.7 Q-179.85 -9.95 -179.9 -9.25 -180.0 -8.45 -180.65 -7.95 L-181.3 -7.6 -180.85 -6.85 Q-180.25 -7.8 -178.9 -7.35 L-178.0 -6.9 -177.55 -6.4 -177.65 -5.95 -178.05 -5.9 -179.55 -5.95 -180.45 -5.7 -180.35 -5.05 -180.6 -5.2 -180.9 -5.3 -181.55 -4.5 -182.95 -5.25 -184.1 -4.35 -184.85 -5.3 -185.05 -5.15 -185.2 -5.1 -185.1 -5.85 -186.2 -6.0 -187.65 -5.75 -188.1 -5.75 -188.25 -6.15 -187.85 -6.75 -186.9 -7.35 Q-185.5 -7.95 -184.85 -6.8 L-184.5 -7.55 -185.15 -8.05 Q-185.65 -8.5 -185.7 -9.2 L-185.5 -10.55 -185.45 -10.6 -184.85 -11.0 -184.6 -10.7 Q-185.4 -10.15 -185.35 -9.3 -185.25 -8.4 -184.35 -7.7 L-183.7 -7.3 -184.15 -7.45 Q-184.85 -6.85 -184.55 -6.15 -184.25 -5.4 -182.85 -5.3 -181.55 -5.2 -181.15 -6.05 -181.0 -6.4 -181.1 -6.8 L-181.6 -7.45 -181.65 -7.45 -181.5 -7.55 Q-180.4 -8.2 -180.35 -9.2 -180.25 -10.15 -181.15 -10.7 L-180.9 -11.0 -180.25 -10.7 M-187.3 -7.0 L-187.75 -6.35 Q-187.75 -5.95 -187.2 -6.2 -186.6 -6.4 -186.7 -6.85 L-186.9 -7.05 -187.3 -7.0 M-178.4 -7.05 Q-178.85 -7.25 -179.05 -6.9 -179.2 -6.55 -178.65 -6.35 L-177.9 -6.4 Q-177.7 -6.65 -178.4 -7.05" fill="#e3ad2b" fill-rule="evenodd" stroke="none"/>
    <path d="M-184.6 -10.7 L-184.1 -10.0 -182.95 -10.9 -181.55 -10.15 -181.15 -10.7 Q-180.25 -10.15 -180.35 -9.2 -180.4 -8.2 -181.5 -7.55 L-181.65 -7.45 -181.6 -7.45 -181.1 -6.8 Q-181.0 -6.4 -181.15 -6.05 -181.55 -5.2 -182.85 -5.3 -184.25 -5.4 -184.55 -6.15 -184.85 -6.85 -184.15 -7.45 L-183.7 -7.3 -184.35 -7.7 Q-185.25 -8.4 -185.35 -9.3 -185.4 -10.15 -184.6 -10.7 M-187.3 -7.0 L-186.9 -7.05 -186.7 -6.85 Q-186.6 -6.4 -187.2 -6.2 -187.75 -5.95 -187.75 -6.35 L-187.3 -7.0 M-183.55 -9.25 L-184.0 -8.7 -183.55 -8.2 -182.9 -7.7 -182.2 -8.25 -181.85 -8.75 -182.2 -9.3 -182.8 -9.85 Q-183.05 -9.85 -183.55 -9.25 M-184.4 -9.55 Q-184.65 -9.9 -185.0 -9.7 -185.3 -9.55 -185.15 -9.2 -184.95 -8.85 -184.55 -9.1 -184.2 -9.25 -184.4 -9.55 M-180.6 -9.55 Q-180.8 -9.9 -181.15 -9.7 -181.45 -9.55 -181.3 -9.2 -181.15 -8.85 -180.7 -9.1 -180.35 -9.25 -180.6 -9.55 M-178.4 -7.05 Q-177.7 -6.65 -177.9 -6.4 L-178.65 -6.35 Q-179.2 -6.55 -179.05 -6.9 -178.85 -7.25 -178.4 -7.05" fill="#ffcb40" fill-rule="evenodd" stroke="none"/>
    <path d="M-186.2 -10.15 L-184.8 -11.2 -184.1 -10.25 -183.0 -11.1 -181.65 -10.45 -181.05 -11.25 -180.1 -10.7 -180.25 -12.25 -179.85 -11.5 -179.6 -11.0 -179.4 -10.35 -179.4 -10.3 -180.1 -10.6 -180.1 -10.65 -180.25 -10.7 -180.9 -11.0 -181.15 -10.7 -181.55 -10.15 -182.95 -10.9 -184.1 -10.0 -184.6 -10.7 -184.85 -11.0 -185.45 -10.6 -186.2 -10.15 M-180.0 -4.9 L-179.4 -4.65 Q-179.05 -2.9 -179.25 -1.9 -179.45 -1.1 -179.95 -0.55 L-180.2 -0.35 -180.25 -0.3 -180.4 -0.2 -180.75 0.0 Q-181.7 0.45 -182.7 0.5 L-184.5 0.15 Q-185.35 -0.2 -185.9 -0.9 -186.4 -1.65 -186.5 -2.65 -185.75 -1.4 -184.7 -1.05 L-182.65 -1.2 Q-181.65 -1.6 -180.95 -2.6 -180.2 -3.65 -180.05 -4.9 L-180.0 -4.9" fill="#b9c597" fill-rule="evenodd" stroke="none"/>
    <path d="M-188.4 -1.0 L-188.4 -0.15 -192.55 2.15 -196.7 -0.15 -200.9 2.15 -205.05 -0.15 -205.05 -1.0 -200.9 1.3 -196.7 -1.0 -192.55 1.3 -188.4 -1.0 M-195.65 -5.3 L-196.7 -4.75 -196.75 -4.75 -195.65 -5.3 M-184.7 -9.45 L-184.6 -9.6 -184.8 -9.65 -184.9 -9.5 Q-184.9 -9.4 -184.7 -9.45 M-184.4 -9.55 Q-184.2 -9.25 -184.55 -9.1 -184.95 -8.85 -185.15 -9.2 -185.3 -9.55 -185.0 -9.7 -184.65 -9.9 -184.4 -9.55 M-180.9 -9.45 Q-180.7 -9.45 -180.75 -9.6 L-180.95 -9.65 -181.05 -9.5 -180.9 -9.45 M-180.6 -9.55 Q-180.35 -9.25 -180.7 -9.1 -181.15 -8.85 -181.3 -9.2 -181.45 -9.55 -181.15 -9.7 -180.8 -9.9 -180.6 -9.55 M-179.95 5.85 L-177.4 5.45 Q-177.0 5.4 -176.7 5.65 L-176.3 6.25 -175.65 10.7 Q-175.6 11.2 -175.9 11.55 L-176.15 12.15 Q-176.4 12.4 -176.7 12.45 L-181.2 13.1 -181.9 12.95 -182.25 12.3 -182.5 10.8 -182.4 10.2 -182.7 8.0 -182.75 7.85 -182.1 7.9 -181.55 11.6 -181.35 11.95 -181.0 12.05 -176.5 11.35 -176.15 11.15 -176.05 10.8 -176.75 6.3 -176.95 6.0 -177.35 5.9 -180.0 6.3 -179.95 5.85 M-180.5 7.4 Q-179.8 6.85 -179.25 6.75 L-178.45 6.85 Q-178.2 7.0 -178.15 7.4 -178.0 8.1 -178.75 9.05 L-178.25 9.05 Q-177.95 9.1 -177.8 9.25 L-177.7 9.55 Q-177.6 10.2 -178.3 10.8 -178.8 11.25 -179.55 11.4 L-179.85 11.3 -180.05 11.05 Q-180.05 10.9 -179.7 10.85 L-179.3 10.7 -178.6 10.05 Q-178.55 9.9 -178.65 9.8 L-178.7 9.7 -179.1 9.65 -179.45 9.8 -179.7 9.9 -179.95 9.45 -179.9 9.15 -179.3 8.65 -179.05 7.9 -179.1 7.7 -179.25 7.6 -179.35 7.6 -179.95 7.85 -180.35 8.2 -180.5 8.0 -180.6 7.7 -180.6 7.6 -180.5 7.4" fill="#231f20" fill-rule="evenodd" stroke="none"/>
    <path d="M-182.85 -9.55 L-182.95 -9.35 Q-182.9 -9.15 -182.7 -9.25 -182.6 -9.3 -182.65 -9.45 L-182.85 -9.55 M-182.9 -8.3 L-182.5 -8.5 -182.25 -8.7 Q-182.7 -9.05 -182.9 -9.05 L-183.35 -8.85 -183.65 -8.7 -183.35 -8.5 -182.9 -8.3 M-183.55 -9.25 Q-183.05 -9.85 -182.8 -9.85 L-182.2 -9.3 -181.85 -8.75 -182.2 -8.25 -182.9 -7.7 -183.55 -8.2 -184.0 -8.7 -183.55 -9.25" fill="#f49022" fill-rule="evenodd" stroke="none"/>
    <path d="M-182.9 -8.3 L-183.35 -8.5 -183.65 -8.7 -183.35 -8.85 -182.9 -9.05 Q-182.7 -9.05 -182.25 -8.7 L-182.5 -8.5 -182.9 -8.3" fill="#ee5c27" fill-rule="evenodd" stroke="none"/>
    <path d="M-202.8 -0.25 L-202.7 -0.2 -202.45 0.0 -202.35 0.0 -200.9 0.8 -197.15 -1.25 -197.15 -4.5 -197.55 -4.7 -198.0 -5.35 -198.55 -6.0 -198.85 -6.0 -199.2 -6.05 -199.3 -6.45 Q-199.65 -6.6 -199.9 -6.2 L-199.95 -6.05 -200.9 -6.55 -204.65 -4.5 -204.65 -1.25 -202.8 -0.25 M-205.05 -1.0 L-205.05 -4.75 -200.9 -7.0 -200.9 -10.75 -199.75 -11.4 -199.75 -11.35 -199.7 -10.95 -200.45 -10.55 -200.45 -7.25 -196.7 -5.2 Q-194.8 -6.2 -192.95 -7.25 L-192.95 -10.55 -193.65 -10.9 -193.65 -11.35 -192.6 -10.75 -192.6 -7.0 -192.95 -6.8 -192.55 -7.0 -191.05 -6.2 -191.35 -5.9 -192.55 -6.55 -196.3 -4.5 -196.3 -1.25 -192.55 0.8 -188.8 -1.25 -188.8 -4.5 -190.55 -5.45 -190.4 -5.75 -190.35 -5.8 -188.4 -4.75 -188.4 -1.0 -192.55 1.3 -196.7 -1.0 -200.9 1.3 -205.05 -1.0 M-198.85 -11.9 L-196.75 -13.05 -194.85 -12.0 -195.2 -12.1 -195.85 -12.15 -195.95 -12.15 -196.7 -12.6 -197.55 -12.15 -198.05 -12.1 -198.05 -11.85 -198.4 -11.65 -198.65 -11.7 -198.85 -11.9 M-198.05 -5.0 L-198.1 -5.1 -198.0 -5.0 -198.05 -5.0 M-198.1 -5.15 L-198.25 -5.3 -198.4 -5.55 -198.15 -5.2 -198.1 -5.15 M-199.5 -11.35 L-199.45 -11.4 -199.45 -11.35 -199.5 -11.35 M-195.65 -5.3 L-196.75 -4.75 -196.7 -4.75 -195.65 -5.3 M-180.0 6.3 L-177.35 5.9 -176.95 6.0 -176.75 6.3 -176.05 10.8 -176.15 11.15 -176.5 11.35 -181.0 12.05 -181.35 11.95 -181.55 11.6 -182.1 7.9 -181.45 7.95 -180.8 7.8 -180.6 7.6 -180.6 7.7 -180.5 8.0 -180.35 8.2 -179.95 7.85 -179.35 7.6 -179.25 7.6 -179.1 7.7 -179.05 7.9 -179.3 8.65 -179.9 9.15 -179.95 9.45 -179.7 9.9 -179.45 9.8 -179.1 9.65 -178.7 9.7 -178.65 9.8 Q-178.55 9.9 -178.6 10.05 L-179.3 10.7 -179.7 10.85 Q-180.05 10.9 -180.05 11.05 L-179.85 11.3 -179.55 11.4 Q-178.8 11.25 -178.3 10.8 -177.6 10.2 -177.7 9.55 L-177.8 9.25 Q-177.95 9.1 -178.25 9.05 L-178.75 9.05 Q-178.0 8.1 -178.15 7.4 -178.2 7.0 -178.45 6.85 L-179.25 6.75 Q-179.8 6.85 -180.5 7.4 L-180.45 7.25 Q-180.05 7.0 -180.0 6.55 L-180.0 6.3 M-183.5 5.1 L-180.65 2.45 -181.4 2.15 -181.6 2.15 -183.55 3.75 -184.9 5.05 -185.9 5.2 -185.55 1.5 -185.35 1.15 -185.0 1.05 -180.5 1.45 -180.15 1.65 Q-180.0 1.8 -180.0 2.0 L-180.4 6.5 -180.6 6.85 -181.0 7.0 -182.9 6.8 -183.1 5.75 Q-183.15 5.35 -183.45 5.1 L-183.5 5.1 M-185.4 6.1 L-185.7 6.1 -185.95 6.1 Q-186.25 6.15 -186.4 6.4 L-186.4 7.4 -186.4 8.05 -188.05 8.45 -188.2 8.7 -188.2 9.0 -187.9 9.1 -186.35 8.95 -186.3 9.6 -186.1 10.6 -185.95 10.7 -185.55 10.7 -185.05 10.5 -185.15 8.75 -183.6 8.4 -183.55 8.05 -183.5 7.8 -183.5 7.75 Q-183.55 7.4 -184.2 7.55 L-184.8 7.65 -185.25 7.75 -185.25 7.6 -185.35 6.6 -185.4 6.1 M-183.7 5.45 L-183.5 5.8 -182.8 10.25 -182.9 10.65 -183.25 10.85 -187.7 11.55 -188.1 11.45 -188.3 11.1 -189.0 6.65 -188.9 6.25 -188.55 6.05 -184.1 5.35 -183.85 5.4 -183.7 5.45" fill="#ffffff" fill-rule="evenodd" stroke="none"/>
    <path d="M-179.95 5.85 L-180.0 6.3 -180.0 6.55 Q-180.05 7.0 -180.45 7.25 L-180.5 7.4 -180.6 7.6 -180.8 7.8 -181.45 7.95 -182.1 7.9 -182.75 7.85 -182.9 6.8 -181.0 7.0 -180.6 6.85 -180.4 6.5 -180.0 2.0 Q-180.0 1.8 -180.15 1.65 L-180.5 1.45 -185.0 1.05 -185.35 1.15 -185.55 1.5 -185.9 5.2 -186.7 5.35 -186.4 2.05 -186.25 1.6 -185.95 1.3 -185.6 0.8 -184.95 0.6 -180.45 1.0 -179.8 1.35 Q-179.55 1.65 -179.6 2.05 L-179.95 5.85 M-184.9 5.05 L-183.55 3.75 -181.6 2.15 -181.4 2.15 -180.65 2.45 -183.5 5.1 -184.15 4.95 -184.9 5.05" fill="#3db44a" fill-rule="evenodd" stroke="none"/>
    <path d="M-182.75 7.85 L-182.7 8.0 -182.4 10.2 -182.5 10.8 -182.65 11.0 -182.9 11.6 -183.45 11.9 -187.9 12.6 -188.6 12.45 -189.0 11.8 -189.7 7.35 -189.65 6.9 -189.4 6.55 -189.2 5.95 -188.6 5.65 -186.7 5.35 -185.9 5.2 -184.9 5.05 -184.15 4.95 -183.5 5.1 -183.45 5.1 Q-183.15 5.35 -183.1 5.75 L-182.9 6.8 -182.75 7.85 M-185.4 6.1 L-185.35 6.6 -185.25 7.6 -185.25 7.75 -184.8 7.65 -184.2 7.55 Q-183.55 7.4 -183.5 7.75 L-183.5 7.8 -183.55 8.05 -183.6 8.4 -185.15 8.75 -185.05 10.5 -185.55 10.7 -185.95 10.7 -186.1 10.6 -186.3 9.6 -186.35 8.95 -187.9 9.1 -188.2 9.0 -188.2 8.7 -188.05 8.45 -186.4 8.05 -186.4 7.4 -186.4 6.4 Q-186.25 6.15 -185.95 6.1 L-185.7 6.1 -185.4 6.1 M-183.7 5.45 L-183.85 5.4 -184.1 5.35 -188.55 6.05 -188.9 6.25 -189.0 6.65 -188.3 11.1 -188.1 11.45 -187.7 11.55 -183.25 10.85 -182.9 10.65 -182.8 10.25 -183.5 5.8 -183.7 5.45" fill="#ec1c24" fill-rule="evenodd" stroke="none"/>
    <path d="M-199.75 -11.4 L-199.7 -11.5 -199.55 -11.6 -199.0 -11.85 -198.85 -11.9 -198.65 -11.7 -198.4 -11.65 -198.3 -11.7 Q-198.1 -11.75 -198.05 -11.85 L-198.05 -12.1 -197.55 -12.15 -196.7 -12.2 -196.1 -12.2 -195.95 -12.15 -195.85 -12.15 -195.2 -12.1 -194.85 -12.0 -194.25 -11.85 -193.75 -11.5 -193.7 -11.45 -193.65 -11.35 -193.65 -10.9 -193.7 -9.9 -194.05 -9.8 -194.1 -9.65 Q-194.1 -9.55 -194.0 -9.6 L-193.7 -9.7 -193.7 -9.15 -193.95 -8.85 -194.15 -8.7 -195.35 -7.8 -197.4 -6.35 -195.5 -8.0 -194.3 -8.9 -194.1 -9.1 -193.95 -9.15 -193.95 -9.4 -194.2 -9.25 -194.35 -9.35 -194.3 -9.95 Q-194.1 -10.25 -193.9 -10.1 L-193.9 -11.35 -194.35 -11.6 -195.2 -11.85 -195.4 -11.85 -195.85 -11.9 -196.1 -11.95 -197.8 -11.85 -198.0 -11.55 Q-198.15 -11.4 -198.4 -11.4 L-198.75 -11.5 -198.9 -11.6 -198.95 -11.6 -199.45 -11.4 -199.5 -11.35 -199.5 -11.3 -199.35 -9.9 -199.3 -9.4 -199.2 -9.05 -199.1 -8.9 -199.0 -8.7 -198.55 -8.65 Q-198.3 -8.45 -198.4 -8.15 L-198.5 -8.0 -197.9 -7.0 -197.75 -6.75 -197.6 -6.4 -198.8 -8.05 -198.65 -8.15 -198.6 -8.25 -198.7 -8.5 -198.85 -8.55 -199.05 -8.45 -199.4 -8.9 -199.55 -9.4 -199.6 -9.85 -199.7 -10.95 -199.75 -11.35 -199.75 -11.4 M-194.65 -10.25 L-194.7 -10.25 -194.9 -10.2 -195.0 -10.0 Q-195.0 -9.9 -194.8 -9.9 L-195.1 -9.85 -195.25 -10.15 -195.1 -10.35 -194.85 -10.4 -194.65 -10.25 M-197.45 -7.9 Q-197.05 -8.1 -196.9 -7.9 L-196.8 -7.6 -197.1 -7.7 -197.45 -7.5 -197.5 -7.3 -197.5 -7.0 Q-197.7 -7.1 -197.7 -7.5 -197.75 -7.95 -197.45 -7.9 M-195.5 -9.0 L-195.75 -8.75 -195.7 -8.45 -195.55 -8.5 -195.5 -8.5 -195.75 -8.35 -195.95 -8.25 Q-196.25 -8.2 -196.15 -8.5 L-195.95 -8.9 -195.75 -9.0 -195.5 -9.0" fill="#a08211" fill-rule="evenodd" stroke="none"/>
    <path d="M-193.65 -10.9 L-192.95 -10.55 -192.95 -7.25 Q-194.8 -6.2 -196.7 -5.2 L-200.45 -7.25 -200.45 -10.55 -199.7 -10.95 -199.6 -9.85 -199.55 -9.4 -199.4 -8.9 -199.05 -8.45 -198.85 -8.55 -198.7 -8.5 -198.6 -8.25 -198.65 -8.15 -198.8 -8.05 -197.6 -6.4 -197.75 -6.75 -197.5 -6.3 -197.4 -6.35 -195.35 -7.8 -194.15 -8.7 -193.95 -8.85 -193.7 -9.15 -193.7 -9.7 -194.0 -9.6 Q-194.1 -9.55 -194.1 -9.65 L-194.05 -9.8 -193.7 -9.9 -193.65 -10.9 M-195.95 -12.15 L-196.1 -12.2 -196.7 -12.2 -197.55 -12.15 -196.7 -12.6 -195.95 -12.15 M-198.05 -11.85 Q-198.1 -11.75 -198.3 -11.7 L-198.4 -11.65 -198.05 -11.85 M-197.35 -9.15 L-197.45 -9.1 -197.5 -9.1 -197.35 -9.15" fill="#ff91d1" fill-rule="evenodd" stroke="none"/>
    <path d="M-191.05 -6.2 L-190.95 -6.35 -190.8 -6.55 -190.65 -6.65 -190.5 -6.7 -189.95 -6.75 -189.7 -6.6 -189.65 -6.5 -189.7 -6.35 -189.75 -6.35 -189.8 -6.3 -190.05 -6.1 -190.25 -5.95 -190.35 -5.8 -190.55 -5.95 -190.6 -5.9 -190.75 -5.55 -190.9 -5.15 -190.25 -4.3 -189.6 -3.3 Q-189.4 -2.7 -189.55 -2.1 -189.75 -1.5 -190.25 -1.2 -190.9 -0.75 -191.75 -0.75 L-192.7 -0.8 -192.95 -0.8 -193.05 -0.85 -193.15 -0.85 -194.3 -1.35 -194.5 -1.6 -194.55 -1.65 -194.65 -1.8 -194.75 -2.0 -194.85 -2.2 -193.9 -1.55 -193.0 -2.75 -191.95 -3.9 -193.5 -1.5 Q-192.9 -1.55 -192.35 -1.95 L-191.8 -2.45 -191.75 -2.55 -191.65 -2.65 -191.6 -2.7 Q-191.0 -3.65 -191.15 -4.7 L-191.1 -4.45 -191.05 -4.35 Q-190.8 -3.45 -191.2 -2.65 L-191.2 -2.55 -191.25 -2.5 -192.1 -1.5 -192.3 -1.4 -192.2 -1.4 -192.1 -1.45 Q-191.7 -1.55 -191.4 -1.75 -190.6 -2.2 -190.6 -3.15 L-190.7 -4.0 -190.9 -4.95 Q-191.05 -4.9 -191.2 -5.1 L-191.45 -5.3 -190.95 -5.25 -191.0 -5.55 -191.0 -5.7 -191.0 -5.75 -190.75 -6.05 -190.3 -6.2 -190.25 -6.25 -190.2 -6.3 -189.95 -6.5 -190.0 -6.5 -190.45 -6.45 -190.55 -6.45 -190.6 -6.4 -190.7 -6.3 -190.75 -6.2 -190.85 -6.1 -191.05 -6.2" fill="#b0701b" fill-rule="evenodd" stroke="none"/>
    <path d="M-193.45 -4.85 L-192.95 -4.65 -192.75 -4.25 -192.95 -3.85 Q-193.15 -3.65 -193.45 -3.65 L-194.0 -3.85 -194.2 -4.25 -194.0 -4.65 -193.45 -4.85 M-190.25 -6.25 L-190.75 -6.2 -190.7 -6.3 -190.6 -6.4 -190.55 -6.45 -190.45 -6.45 -190.0 -6.5 -189.95 -6.5 -190.2 -6.3 -190.25 -6.25" fill="#ffe9cc" fill-rule="evenodd" stroke="none"/>
    <path d="M-190.85 -6.1 L-191.0 -5.9 -191.2 -5.7 -191.4 -5.5 -191.6 -5.4 -191.75 -5.35 -193.05 -5.25 -194.2 -5.0 -194.85 -4.4 -195.1 -3.8 -194.95 -2.45 -194.9 -2.25 -194.85 -2.2 -194.75 -2.0 -194.65 -1.8 -194.55 -1.65 -194.5 -1.6 -194.3 -1.35 -193.15 -0.85 -193.05 -0.85 -192.95 -0.8 -192.9 -0.8 -192.7 -0.8 -191.75 -0.75 Q-190.9 -0.75 -190.25 -1.2 -189.75 -1.5 -189.55 -2.1 -189.4 -2.7 -189.6 -3.3 L-190.25 -4.3 -190.9 -5.15 -190.75 -5.55 -190.6 -5.9 -190.55 -5.95 -190.35 -5.8 -190.4 -5.75 -190.55 -5.45 -190.65 -5.25 -190.05 -4.45 -189.4 -3.35 Q-189.1 -2.75 -189.35 -2.05 -189.55 -1.35 -190.1 -1.0 -190.8 -0.5 -191.75 -0.5 L-192.85 -0.6 -192.8 -0.4 -192.75 -0.35 -192.75 -0.3 -192.7 -0.25 -192.9 -0.1 -193.1 -0.25 -193.35 -0.35 -193.45 -0.35 -193.45 -0.2 -193.5 -0.15 -193.55 -0.1 -193.6 -0.15 -193.65 -0.2 -193.7 -0.25 -193.8 -0.4 -194.25 -0.9 -194.3 -0.95 -194.5 -1.0 -194.8 -1.25 -194.95 -1.35 -195.0 -1.6 -194.95 -1.6 -194.75 -1.65 -194.65 -1.65 -195.15 -2.4 Q-195.45 -3.1 -195.35 -3.85 L-195.1 -4.5 -194.3 -5.2 -193.05 -5.5 -191.8 -5.6 -191.65 -5.65 -191.55 -5.7 -191.35 -5.9 -191.05 -6.2 -190.85 -6.1" fill="#784810" fill-rule="evenodd" stroke="none"/>
    <path d="M-193.45 -4.85 L-194.0 -4.65 -194.2 -4.25 -194.0 -3.85 -193.45 -3.65 Q-193.15 -3.65 -192.95 -3.85 L-192.75 -4.25 -192.95 -4.65 -193.45 -4.85 M-194.85 -2.2 L-194.9 -2.25 -194.95 -2.45 -195.1 -3.8 -194.85 -4.4 -194.2 -5.0 -193.05 -5.25 -191.75 -5.35 -191.6 -5.4 -191.4 -5.5 -191.2 -5.7 -191.0 -5.9 -190.85 -6.1 -190.75 -6.2 -190.25 -6.25 -190.3 -6.2 -190.75 -6.05 -191.0 -5.75 -191.0 -5.7 -191.0 -5.55 -190.95 -5.25 -191.45 -5.3 -191.2 -5.1 Q-191.05 -4.9 -190.9 -4.95 L-190.7 -4.0 -190.6 -3.15 Q-190.6 -2.2 -191.4 -1.75 -191.7 -1.55 -192.1 -1.45 L-192.2 -1.4 -192.3 -1.4 -192.1 -1.5 -191.25 -2.5 -191.2 -2.55 -191.2 -2.65 Q-190.8 -3.45 -191.05 -4.35 L-191.1 -4.45 -191.15 -4.7 Q-191.0 -3.65 -191.6 -2.7 L-191.65 -2.65 -191.75 -2.55 -191.8 -2.45 -192.35 -1.95 Q-192.9 -1.55 -193.5 -1.5 L-191.95 -3.9 -193.0 -2.75 -193.9 -1.55 -194.85 -2.2" fill="#e99337" fill-rule="evenodd" stroke="none"/>
    <path d="M-191.35 -5.9 L-191.55 -5.7 -191.65 -5.65 -191.8 -5.6 -193.05 -5.5 -194.3 -5.2 -195.1 -4.5 -195.35 -3.85 Q-195.45 -3.1 -195.15 -2.4 L-194.65 -1.65 -194.75 -1.65 -194.95 -1.6 -195.0 -1.6 -194.95 -1.35 -194.8 -1.25 -194.5 -1.0 -194.3 -0.95 -194.25 -0.9 -193.8 -0.4 -193.7 -0.25 -193.65 -0.2 -193.6 -0.15 -193.55 -0.1 -193.5 -0.15 -193.45 -0.2 -193.45 -0.35 -193.35 -0.35 -193.1 -0.25 -192.9 -0.1 -192.7 -0.25 -192.75 -0.3 -192.75 -0.35 -192.8 -0.4 -192.85 -0.6 -191.75 -0.5 Q-190.8 -0.5 -190.1 -1.0 -189.55 -1.35 -189.35 -2.05 -189.1 -2.75 -189.4 -3.35 L-190.05 -4.45 -190.65 -5.25 -190.55 -5.45 -188.8 -4.5 -188.8 -1.25 -192.55 0.8 -196.3 -1.25 -196.3 -4.5 -192.55 -6.55 -191.35 -5.9 M-192.7 -0.8 L-192.9 -0.8 -192.95 -0.8 -192.7 -0.8" fill="#80cfff" fill-rule="evenodd" stroke="none"/>
    <path d="M-199.45 -11.4 L-198.95 -11.6 -198.9 -11.6 -198.75 -11.5 -198.4 -11.4 Q-198.15 -11.4 -198.0 -11.55 L-197.8 -11.85 -196.1 -11.95 -195.85 -11.9 -195.4 -11.85 -195.2 -11.85 -194.35 -11.6 -193.9 -11.35 -196.1 -10.0 -196.55 -10.15 -197.15 -10.0 -197.35 -9.7 -197.2 -9.25 -197.35 -9.15 -197.5 -9.1 -198.4 -10.15 -198.25 -10.4 -198.35 -10.7 -198.6 -10.85 -198.95 -10.8 -199.45 -11.35 -199.45 -11.4 M-195.5 -11.15 L-195.45 -11.25 -195.7 -11.55 -196.25 -11.7 -196.8 -11.55 -197.0 -11.25 -196.8 -10.9 -196.25 -10.8 -195.75 -10.9 -195.5 -11.15" fill="#ffe45a" fill-rule="evenodd" stroke="none"/>
    <path d="M-194.8 -9.9 Q-195.0 -9.9 -195.0 -10.0 L-194.9 -10.2 -194.7 -10.25 -194.65 -10.25 -194.65 -10.05 -194.8 -9.9 M-195.5 -11.15 Q-195.75 -10.85 -196.15 -10.95 L-196.45 -11.05 -196.5 -11.4 -196.15 -11.55 -195.7 -11.55 -195.45 -11.25 -195.5 -11.15 M-197.45 -9.1 L-197.45 -7.9 Q-197.75 -7.95 -197.7 -7.5 -197.7 -7.1 -197.5 -7.0 L-197.5 -7.3 -197.45 -7.5 -197.1 -7.7 -196.8 -7.6 Q-196.8 -7.3 -196.95 -7.2 L-197.2 -7.0 -197.5 -6.95 -197.5 -6.3 -197.75 -6.75 -197.9 -7.0 -198.5 -8.0 -198.4 -8.15 Q-198.3 -8.45 -198.55 -8.65 L-199.0 -8.7 -199.1 -8.9 -199.2 -9.05 -199.3 -9.4 -199.35 -9.9 -199.5 -11.3 -199.5 -11.35 -199.45 -11.35 -198.95 -10.8 -198.85 -10.35 -198.65 -10.05 -198.7 -10.5 -198.7 -10.7 -198.5 -10.7 -198.35 -10.7 -198.25 -10.4 -198.4 -10.15 -197.5 -9.1 -197.45 -9.1 M-195.5 -9.0 L-195.35 -8.75 -195.35 -8.65 -195.5 -8.5 -195.55 -8.5 -195.7 -8.45 -195.75 -8.75 -195.5 -9.0 M-196.35 -9.35 L-196.1 -9.8 Q-196.15 -9.15 -196.6 -8.95 -197.05 -8.8 -197.15 -9.15 L-196.75 -9.15 Q-196.55 -9.2 -196.35 -9.35" fill="#dfc140" fill-rule="evenodd" stroke="none"/>
    <path d="M-193.9 -11.35 L-193.9 -10.1 Q-194.1 -10.25 -194.3 -9.95 L-194.35 -9.35 -194.2 -9.25 -193.95 -9.4 -193.95 -9.15 -194.1 -9.1 -194.3 -8.9 -195.5 -8.0 -197.4 -6.35 -197.5 -6.3 -197.5 -6.95 -197.2 -7.0 -196.95 -7.2 Q-196.8 -7.3 -196.8 -7.6 L-196.9 -7.9 Q-197.05 -8.1 -197.45 -7.9 L-197.45 -9.1 -197.35 -9.15 -197.2 -9.25 -197.35 -9.7 -197.15 -10.0 -196.55 -10.15 -196.1 -10.0 -193.9 -11.35 M-194.65 -10.25 L-194.85 -10.4 -195.1 -10.35 -195.25 -10.15 -195.1 -9.85 -194.8 -9.9 -194.65 -10.05 -194.65 -10.25 M-195.7 -11.55 L-196.15 -11.55 -196.5 -11.4 -196.45 -11.05 -196.15 -10.95 Q-195.75 -10.85 -195.5 -11.15 L-195.75 -10.9 -196.25 -10.8 -196.8 -10.9 -197.0 -11.25 -196.8 -11.55 -196.25 -11.7 -195.7 -11.55 M-196.35 -9.35 Q-196.55 -9.2 -196.75 -9.15 L-197.15 -9.15 Q-197.05 -8.8 -196.6 -8.95 -196.15 -9.15 -196.1 -9.8 L-196.35 -9.35 M-195.5 -8.5 L-195.35 -8.65 -195.35 -8.75 -195.5 -9.0 -195.75 -9.0 -195.95 -8.9 -196.15 -8.5 Q-196.25 -8.2 -195.95 -8.25 L-195.75 -8.35 -195.5 -8.5 M-198.95 -10.8 L-198.6 -10.85 -198.35 -10.7 -198.5 -10.7 -198.7 -10.7 -198.7 -10.5 -198.65 -10.05 -198.85 -10.35 -198.95 -10.8" fill="#c8a41b" fill-rule="evenodd" stroke="none"/>
    <path d="M-202.8 -0.25 L-202.9 -0.4 -203.55 -1.1 Q-203.95 -1.6 -203.7 -1.9 L-204.15 -2.15 -204.1 -2.4 -202.85 -2.4 Q-203.3 -3.0 -203.2 -3.7 -203.1 -4.35 -202.6 -4.9 -202.1 -5.4 -201.4 -5.55 L-200.05 -5.4 -199.95 -6.05 -199.9 -6.2 Q-199.65 -6.6 -199.3 -6.45 L-199.2 -6.05 -198.85 -6.0 -198.55 -6.0 -198.0 -5.35 -197.55 -4.7 -197.5 -4.65 -197.45 -4.6 -197.45 -4.45 Q-197.6 -4.2 -198.1 -4.15 L-198.9 -4.2 Q-198.55 -3.55 -198.75 -2.85 -198.9 -2.15 -199.45 -1.7 -200.0 -1.2 -200.65 -1.1 -201.35 -0.95 -202.0 -1.35 -201.85 -1.15 -201.85 -0.7 L-201.95 -0.05 -202.35 0.0 -202.45 0.0 -202.7 -0.2 -202.8 -0.25 M-202.65 -4.35 L-203.05 -3.4 -203.05 -3.3 -203.05 -2.95 -202.9 -2.65 -202.75 -2.4 -202.65 -2.35 -202.6 -2.3 -202.5 -2.2 -202.85 -2.25 -203.7 -2.2 -203.5 -2.05 -203.45 -1.85 -203.55 -1.55 -203.3 -1.3 -203.3 -1.25 -203.05 -1.05 -203.05 -1.0 -202.95 -0.9 -202.8 -0.65 -202.7 -0.6 -202.65 -0.5 Q-202.45 -0.2 -202.15 -0.2 -202.05 -0.6 -202.1 -1.0 L-202.3 -1.75 Q-201.65 -1.25 -200.8 -1.4 -200.05 -1.5 -199.5 -2.05 -198.9 -2.6 -198.85 -3.25 -198.85 -3.95 -199.55 -4.5 L-198.05 -4.45 -197.75 -4.5 -198.0 -5.0 -198.1 -5.1 -198.1 -5.15 -198.15 -5.2 -198.4 -5.55 -198.55 -5.7 -198.65 -5.75 -199.2 -5.85 -199.55 -6.2 -199.65 -6.05 -199.8 -5.2 -199.8 -5.15 -199.75 -5.0 -199.7 -4.85 -199.7 -4.75 -200.0 -5.0 -200.35 -5.2 -200.75 -5.3 -201.05 -5.3 -201.2 -5.3 -201.7 -5.15 -202.45 -4.6 -202.55 -4.5 -202.65 -4.35" fill="#2f85ab" fill-rule="evenodd" stroke="none"/>
    <path d="M-202.55 -3.55 L-202.4 -3.5 -202.25 -3.5 -202.15 -3.65 -202.15 -3.85 -202.3 -3.95 -202.5 -3.9 -202.6 -3.75 -202.55 -3.55 M-202.65 -4.35 L-202.55 -4.45 -202.55 -4.5 -202.45 -4.6 -201.7 -5.15 -201.2 -5.3 -201.05 -5.3 -200.75 -5.3 -200.35 -5.2 -200.55 -5.1 -199.65 -4.65 -200.1 -4.5 -200.15 -4.1 -199.9 -4.45 Q-199.65 -4.6 -199.6 -4.35 -199.35 -3.15 -200.25 -2.6 -201.05 -2.05 -202.2 -2.25 L-202.05 -2.8 -202.25 -2.6 -202.35 -2.35 -202.5 -2.85 -202.45 -3.45 -202.7 -2.95 -202.75 -2.45 -202.75 -2.4 -202.9 -2.65 -203.05 -2.95 -203.05 -3.3 -203.05 -3.4 -202.65 -4.35 M-203.05 -1.0 L-203.05 -1.05 -203.3 -1.25 -203.3 -1.3 -203.55 -1.55 -203.45 -1.85 -203.5 -2.05 -203.7 -2.2 -202.85 -2.25 Q-202.7 -2.1 -202.85 -1.95 L-203.15 -1.7 -202.8 -1.75 -202.5 -1.95 -202.5 -1.5 -202.65 -1.15 -203.0 -1.0 -203.05 -1.0 M-198.25 -5.3 L-198.25 -5.2 -198.25 -5.1 -198.25 -5.05 -198.3 -5.0 -198.3 -4.95 Q-198.45 -4.65 -198.8 -4.7 -199.15 -4.7 -199.35 -4.95 L-199.45 -5.25 -199.45 -5.65 -199.65 -5.3 -199.65 -4.9 -199.8 -5.2 -199.65 -6.05 -199.55 -6.2 -199.2 -5.85 -198.65 -5.75 -198.55 -5.7 -198.4 -5.55 -198.25 -5.3 M-201.9 -4.85 L-202.25 -4.45 -202.25 -4.1 Q-202.15 -3.95 -201.9 -3.95 L-201.4 -4.1 -201.05 -4.5 -201.1 -4.85 -201.45 -5.0 -201.9 -4.85" fill="#78caff" fill-rule="evenodd" stroke="none"/>
    <path d="M-202.75 -2.4 L-202.75 -2.45 -202.7 -2.95 -202.45 -3.45 -202.5 -2.85 -202.35 -2.35 -202.25 -2.6 -202.05 -2.8 -202.2 -2.25 Q-201.05 -2.05 -200.25 -2.6 -199.35 -3.15 -199.6 -4.35 -199.65 -4.6 -199.9 -4.45 L-200.15 -4.1 -200.1 -4.5 -199.65 -4.65 -200.55 -5.1 -200.35 -5.2 -200.0 -5.0 -199.7 -4.75 -199.7 -4.85 -199.75 -5.0 -199.8 -5.15 -199.8 -5.2 -199.65 -4.9 -199.65 -5.3 -199.45 -5.65 -199.45 -5.25 -199.35 -4.95 Q-199.15 -4.7 -198.8 -4.7 -198.45 -4.65 -198.3 -4.95 L-198.3 -5.0 -198.25 -5.05 -198.25 -5.1 -198.25 -5.2 -198.25 -5.3 -198.1 -5.15 -198.1 -5.1 -198.05 -5.0 -197.95 -4.85 -197.75 -4.5 -198.05 -4.45 -199.55 -4.5 Q-198.85 -3.95 -198.85 -3.25 -198.9 -2.6 -199.5 -2.05 -200.05 -1.5 -200.8 -1.4 -201.65 -1.25 -202.3 -1.75 L-202.1 -1.0 Q-202.05 -0.6 -202.15 -0.2 -202.45 -0.2 -202.65 -0.5 L-202.7 -0.6 -202.95 -0.9 -203.05 -1.0 -203.0 -1.0 -202.65 -1.15 -202.5 -1.5 -202.5 -1.95 -202.8 -1.75 -203.15 -1.7 -202.85 -1.95 Q-202.7 -2.1 -202.85 -2.25 L-202.5 -2.2 -202.6 -2.3 -202.65 -2.35 -202.75 -2.4" fill="#4aafe5" fill-rule="evenodd" stroke="none"/>
    <path d="M-199.95 -6.05 L-200.05 -5.4 -201.4 -5.55 Q-202.1 -5.4 -202.6 -4.9 -203.1 -4.35 -203.2 -3.7 -203.3 -3.0 -202.85 -2.4 L-204.1 -2.4 -204.15 -2.15 -203.7 -1.9 Q-203.95 -1.6 -203.55 -1.1 L-202.9 -0.4 -202.8 -0.25 -204.65 -1.25 -204.65 -4.5 -200.9 -6.55 -199.95 -6.05 M-202.35 0.0 L-201.95 -0.05 -201.85 -0.7 Q-201.85 -1.15 -202.0 -1.35 -201.35 -0.95 -200.65 -1.1 -200.0 -1.2 -199.45 -1.7 -198.9 -2.15 -198.75 -2.85 -198.55 -3.55 -198.9 -4.2 L-198.1 -4.15 Q-197.6 -4.2 -197.45 -4.45 L-197.45 -4.6 -197.5 -4.65 -197.55 -4.7 -197.15 -4.5 -197.15 -1.25 -200.9 0.8 -202.35 0.0 M-202.55 -4.5 L-202.55 -4.45 -202.65 -4.35 -202.55 -4.5 M-202.95 -0.9 L-202.7 -0.6 -202.8 -0.65 -202.95 -0.9 M-197.75 -4.5 L-197.95 -4.85 -198.05 -5.0 -198.0 -5.0 -197.75 -4.5" fill="#f9ec23" fill-rule="evenodd" stroke="none"/>
    <path d="M-202.55 -3.55 L-202.6 -3.75 -202.5 -3.9 -202.3 -3.95 -202.15 -3.85 -202.15 -3.65 -202.25 -3.5 -202.4 -3.5 -202.55 -3.55 M-201.9 -4.85 L-201.45 -5.0 -201.1 -4.85 -201.05 -4.5 -201.4 -4.1 -201.9 -3.95 Q-202.15 -3.95 -202.25 -4.1 L-202.25 -4.45 -201.9 -4.85" fill="#edf9ff" fill-rule="evenodd" stroke="none"/>
    <path d="M-191.35 8.3 Q-191.35 8.2 -191.6 8.15 L-192.0 8.2 -191.75 8.5 Q-191.35 8.65 -191.35 8.3 M-191.0 8.3 L-191.5 8.95 -193.45 8.1 -191.75 9.2 -193.35 10.25 -194.65 10.75 -196.25 9.55 -195.25 10.9 -196.35 11.0 Q-197.0 10.45 -197.1 10.4 -197.6 10.0 -198.0 9.85 -197.0 9.75 -195.1 8.7 -193.2 7.7 -193.2 7.25 L-192.05 7.75 -191.0 8.3 M-196.7 4.0 L-195.4 4.7 Q-195.3 4.95 -196.7 5.6 L-199.1 6.45 -201.25 6.1 -202.15 5.55 -200.35 4.3 Q-198.75 3.45 -198.25 3.45 -198.0 3.45 -196.7 4.0 M-196.0 4.5 L-196.65 4.5 -196.75 4.65 -196.6 4.85 -195.95 4.9 Q-195.6 4.65 -196.0 4.5" fill="#cc4f62" fill-rule="evenodd" stroke="none"/>
    <path d="M-190.45 9.6 L-190.65 9.05 -190.65 9.0 -191.0 8.3 -192.05 7.75 -193.2 7.25 Q-193.2 7.7 -195.1 8.7 -197.0 9.75 -198.0 9.85 -197.6 10.0 -197.1 10.4 -197.0 10.45 -196.35 11.0 L-196.05 11.6 -196.0 11.8 -195.9 12.05 -195.6 12.75 -195.8 12.8 -196.5 12.45 -196.8 12.5 -196.85 12.65 -196.85 13.1 -196.8 13.25 -197.35 13.05 Q-197.4 12.2 -197.7 11.7 -198.0 11.3 -198.4 11.3 L-198.45 11.3 Q-198.85 11.3 -199.05 11.65 L-199.15 11.85 -199.2 11.95 -199.2 12.0 -199.3 12.3 -199.45 12.25 -199.25 11.4 -198.7 10.95 -199.4 11.05 -200.7 10.55 -201.45 10.2 -201.35 8.9 -201.3 8.55 -200.9 6.7 -200.85 6.6 -200.9 6.65 Q-201.15 6.85 -201.45 8.4 L-201.5 8.8 -201.6 10.15 -202.25 9.8 -202.35 9.85 -202.4 9.9 -202.4 10.45 -202.5 10.5 -202.9 10.5 -202.9 10.3 -202.9 10.25 Q-202.95 9.75 -203.25 9.3 -203.65 8.8 -204.0 8.8 L-204.05 8.8 -204.3 8.9 -204.45 8.95 -204.55 9.05 -204.6 9.05 -204.6 9.1 -204.65 9.15 -204.8 9.65 -204.95 9.45 -204.85 9.15 -204.6 8.9 -204.15 8.55 -204.7 8.6 -205.1 8.35 -205.3 8.2 -205.3 8.0 -205.25 7.8 -205.2 7.4 -205.15 6.95 -202.6 5.45 -202.55 5.35 Q-202.2 4.95 -200.5 4.1 L-198.35 3.2 Q-197.9 3.1 -194.9 4.65 -194.55 4.9 -193.7 6.05 L-193.05 7.05 -190.75 8.2 Q-190.5 8.45 -190.25 9.35 L-190.2 9.65 -190.3 9.8 -190.35 9.85 -191.55 10.8 -191.55 10.75 -191.25 10.5 -190.85 10.25 -190.4 9.8 -190.45 9.6 M-196.7 4.0 Q-198.0 3.45 -198.25 3.45 -198.75 3.45 -200.35 4.3 L-202.15 5.55 -201.25 6.1 -199.1 6.45 -196.7 5.6 Q-195.3 4.95 -195.4 4.7 L-196.7 4.0 M-193.75 6.45 L-194.3 5.7 -194.8 5.2 Q-195.0 5.45 -196.55 6.3 -198.1 7.15 -198.9 7.4 L-198.55 8.5 -198.25 9.6 -197.9 9.55 -195.25 8.55 Q-193.65 7.7 -193.4 7.1 L-193.75 6.45 M-198.95 9.25 L-199.45 7.4 -200.75 7.0 -200.85 7.35 -200.95 7.85 -201.1 8.85 -198.9 9.55 -198.95 9.25 M-203.2 7.15 L-203.45 7.55 -201.8 8.55 -201.6 7.6 -201.45 7.1 -201.35 6.75 -202.4 6.0 -202.7 6.4 -203.2 7.15 M-202.1 10.95 L-202.3 10.85 -202.6 10.65 -202.1 10.95 M-197.75 11.0 L-198.5 10.95 Q-198.15 11.0 -197.8 11.3 L-197.4 11.85 -197.1 12.1 Q-196.95 12.05 -197.1 11.7 L-197.75 11.0 M-203.75 7.5 L-203.3 6.6 -202.85 5.75 -204.8 6.95 -203.75 7.5 M-203.95 8.6 L-203.3 8.95 -202.9 9.5 -202.6 9.7 Q-202.45 9.65 -202.65 9.3 L-203.25 8.6 Q-203.65 8.4 -203.95 8.6" fill="#892c34" fill-rule="evenodd" stroke="none"/>
    <path d="M-204.7 8.6 L-204.15 8.55 -204.6 8.9 -204.85 9.15 -204.65 8.6 -204.7 8.6 M-204.8 9.65 L-204.65 9.15 -204.6 9.1 -204.6 9.05 -204.55 9.05 -204.45 8.95 -204.3 8.9 Q-204.55 9.05 -204.65 9.55 L-204.65 9.6 -204.7 9.65 -204.8 9.65 M-202.9 10.5 L-202.5 10.5 -202.4 10.45 -201.0 11.1 -199.55 11.65 -199.3 11.1 -199.4 11.05 -198.7 10.95 -199.25 11.4 -199.45 12.25 -201.35 11.35 -202.1 10.95 -202.6 10.65 -202.9 10.5 M-201.6 10.15 L-201.5 8.8 -201.45 8.4 Q-201.15 6.85 -200.9 6.65 L-200.85 6.6 -200.9 6.7 -201.3 8.55 -201.35 8.9 -201.45 10.2 -201.45 10.75 -201.6 10.15 M-199.3 12.3 L-199.2 12.0 -199.2 11.95 -199.15 11.85 -199.05 11.65 Q-198.85 11.3 -198.45 11.3 L-198.85 11.55 -199.1 12.2 -199.2 12.3 -199.25 12.3 -199.3 12.3" fill="#590c15" fill-rule="evenodd" stroke="none"/>
    <path d="M-197.9 9.55 Q-198.1 8.85 -197.6 8.1 L-196.5 6.95 Q-195.9 6.5 -195.15 6.35 L-193.75 6.45 -193.4 7.1 Q-193.65 7.7 -195.25 8.55 L-197.9 9.55 M-200.85 7.35 L-200.75 7.0 -199.45 7.4 -198.95 9.25 Q-199.7 8.0 -200.75 7.4 L-200.85 7.35 M-201.45 7.1 L-203.2 7.15 -202.7 6.4 -202.4 6.0 -201.35 6.75 -201.45 7.1" fill="#9ee7ff" fill-rule="evenodd" stroke="none"/>
    <path d="M-198.95 9.25 L-198.9 9.55 -201.1 8.85 -200.95 7.85 -200.85 7.35 -200.75 7.4 Q-199.7 8.0 -198.95 9.25 M-201.45 7.1 L-201.6 7.6 -201.8 8.55 -203.45 7.55 -203.2 7.15 -201.45 7.1" fill="#6cc3e5" fill-rule="evenodd" stroke="none"/>
    <path d="M-190.65 9.0 L-190.7 9.0 Q-190.85 8.65 -191.0 8.65 L-191.4 9.05 -191.75 9.55 -191.75 9.85 -191.55 10.2 -191.3 10.5 -191.25 10.5 -191.55 10.75 -191.75 10.15 -191.95 9.9 Q-192.0 9.85 -193.05 10.5 L-194.2 11.15 -194.1 11.65 -194.0 12.15 -195.25 12.7 -195.3 12.7 -195.6 12.75 -195.9 12.05 -195.7 12.45 -195.5 12.7 -194.8 12.5 -194.25 12.2 -194.3 11.85 -194.55 11.4 -194.8 11.15 -195.45 11.15 -196.0 11.3 -196.05 11.6 -196.35 11.0 -195.25 10.9 -196.25 9.55 -194.65 10.75 -193.35 10.25 -191.75 9.2 -193.45 8.1 -191.5 8.95 -191.0 8.3 -190.65 9.0 M-197.75 11.0 L-197.1 11.7 Q-196.95 12.05 -197.1 12.1 L-197.4 11.85 -197.8 11.3 Q-198.15 11.0 -198.5 10.95 L-197.75 11.0 M-203.75 7.5 L-204.8 6.95 -202.85 5.75 -203.3 6.6 -203.75 7.5 M-203.95 8.6 Q-203.65 8.4 -203.25 8.6 L-202.65 9.3 Q-202.45 9.65 -202.6 9.7 L-202.9 9.5 -203.3 8.95 -203.95 8.6" fill="#b5414f" fill-rule="evenodd" stroke="none"/>
    <path d="M-195.6 12.75 L-195.3 12.7 -195.6 12.8 Q-195.4 13.05 -195.0 13.1 -194.3 13.2 -192.85 12.55 -190.9 11.65 -190.05 10.65 L-190.15 9.85 -190.3 9.8 -190.2 9.65 -190.15 9.6 -189.95 9.7 -189.85 10.1 -189.85 10.75 Q-190.05 11.35 -192.55 12.7 -195.05 14.05 -195.75 14.05 L-196.3 13.85 -196.7 13.65 -196.8 13.45 -196.8 13.25 -196.85 13.1 -196.85 12.65 -196.8 12.5 -196.5 12.45 -195.8 12.8 -195.6 12.75 M-194.0 12.15 L-194.1 11.65 -194.2 11.15 -193.05 10.5 Q-192.0 9.85 -191.95 9.9 L-191.75 10.15 -191.55 10.75 -191.55 10.8 -191.6 10.8 -192.65 11.55 -193.8 12.1 -193.9 12.1 -194.0 12.15 M-205.3 8.0 L-205.3 8.2 -205.1 8.35 -204.7 8.6 -204.65 8.6 -204.85 9.15 -204.95 9.45 -205.25 9.35 -205.55 9.15 -205.65 8.65 -205.6 8.15 -205.4 7.95 -205.3 7.9 -205.3 8.0 M-202.4 10.45 L-202.4 9.9 -202.35 9.85 -202.25 9.8 -201.6 10.15 -201.45 10.75 -201.45 10.2 -200.7 10.55 -199.4 11.05 -199.3 11.1 -199.55 11.65 -201.0 11.1 -202.4 10.45 M-192.95 10.7 L-193.9 11.35 -192.8 10.9 -192.0 10.25 -192.95 10.7 M-192.85 11.1 L-193.7 11.7 Q-193.45 11.75 -192.7 11.3 L-191.95 10.7 -192.85 11.1" fill="#222227" fill-rule="evenodd" stroke="none"/>
    <path d="M-204.3 8.9 L-204.05 8.8 -204.0 8.8 Q-203.65 8.8 -203.25 9.3 -202.95 9.75 -202.9 10.25 L-202.9 10.3 -203.15 10.95 -203.8 11.05 -204.45 10.5 -204.65 9.6 -204.65 9.55 Q-204.55 9.05 -204.3 8.9 M-198.45 11.3 L-198.4 11.3 -197.65 11.9 -197.45 12.75 Q-197.4 13.3 -197.7 13.55 L-198.3 13.65 -198.95 13.1 -199.2 12.3 -199.1 12.2 -198.85 11.55 -198.45 11.3 M-198.4 11.95 L-198.7 12.0 -198.8 12.4 -198.65 12.8 -198.35 13.1 -198.05 13.0 -197.95 12.65 -198.05 12.2 Q-198.15 12.05 -198.4 11.95 M-203.4 10.05 L-203.5 9.6 -203.85 9.3 -204.15 9.4 -204.25 9.75 -204.15 10.2 -203.85 10.45 -203.55 10.4 -203.4 10.05" fill="#383d3d" fill-rule="evenodd" stroke="none"/>
    <path d="M-198.35 12.25 L-198.45 12.3 -198.5 12.45 -198.3 12.8 -198.15 12.8 -198.1 12.6 Q-198.1 12.3 -198.35 12.25 M-198.4 11.95 Q-198.15 12.05 -198.05 12.2 L-197.95 12.65 -198.05 13.0 -198.35 13.1 -198.65 12.8 -198.8 12.4 -198.7 12.0 -198.4 11.95 M-203.4 10.05 L-203.55 10.4 -203.85 10.45 -204.15 10.2 -204.25 9.75 -204.15 9.4 -203.85 9.3 -203.5 9.6 -203.4 10.05 M-203.65 10.15 L-203.55 9.95 Q-203.6 9.7 -203.8 9.6 L-203.95 9.65 -204.0 9.85 -203.8 10.2 -203.65 10.15" fill="#909b92" fill-rule="evenodd" stroke="none"/>
    <path d="M-202.9 10.3 L-202.9 10.5 -202.6 10.65 -202.3 10.85 -202.7 11.05 -203.4 11.3 -203.7 11.25 -204.4 10.65 -204.7 9.65 -204.65 9.6 -204.45 10.5 -203.8 11.05 -203.15 10.95 -202.9 10.3 M-198.4 11.3 Q-198.0 11.3 -197.7 11.7 -197.4 12.2 -197.35 13.05 L-196.8 13.25 -196.8 13.45 -197.2 13.7 -197.95 13.95 -198.25 13.9 -198.95 13.25 -199.25 12.3 -199.2 12.3 -198.95 13.1 -198.3 13.65 -197.7 13.55 Q-197.4 13.3 -197.45 12.75 L-197.65 11.9 -198.4 11.3" fill="#181c1c" fill-rule="evenodd" stroke="none"/>
    <path d="M-198.35 12.25 Q-198.1 12.3 -198.1 12.6 L-198.15 12.8 -198.3 12.8 -198.5 12.45 -198.45 12.3 -198.35 12.25 M-203.65 10.15 L-203.8 10.2 -204.0 9.85 -203.95 9.65 -203.8 9.6 Q-203.6 9.7 -203.55 9.95 L-203.65 10.15" fill="#555b56" fill-rule="evenodd" stroke="none"/>
    <path d="M-191.55 10.2 L-191.75 9.85 -191.75 9.55 -191.4 9.05 -191.0 8.65 Q-190.85 8.65 -190.7 9.0 L-190.65 9.0 -190.65 9.05 -190.45 9.6 -190.5 9.55 -191.15 9.65 -191.4 9.9 -191.55 10.2 M-196.05 11.6 L-196.0 11.3 -195.45 11.15 -194.8 11.15 -194.55 11.4 -194.3 11.85 -195.05 11.75 -195.5 12.05 -195.7 12.45 -195.9 12.05 -196.0 11.8 -196.05 11.6 M-190.9 8.95 Q-191.05 8.85 -191.25 9.1 L-191.3 9.4 -190.95 9.25 -190.9 8.95 M-195.55 11.35 L-195.35 11.5 -194.9 11.45 Q-194.75 11.2 -195.0 11.2 L-195.55 11.35" fill="#abbcbf" fill-rule="evenodd" stroke="none"/>
    <path d="M-195.3 12.7 L-195.25 12.7 -194.0 12.15 -193.9 12.1 -193.8 12.1 -192.65 11.55 -191.6 10.8 -191.55 10.8 -190.35 9.85 -190.3 9.8 -190.15 9.85 -190.05 10.65 Q-190.9 11.65 -192.85 12.55 -194.3 13.2 -195.0 13.1 -195.4 13.05 -195.6 12.8 L-195.3 12.7 M-192.85 11.1 L-191.95 10.7 -192.7 11.3 Q-193.45 11.75 -193.7 11.7 L-192.85 11.1 M-192.95 10.7 L-192.0 10.25 -192.8 10.9 -193.9 11.35 -192.95 10.7" fill="#595863" fill-rule="evenodd" stroke="none"/>
    <path d="M-191.55 10.2 L-191.4 9.9 -191.15 9.65 -190.5 9.55 -190.45 9.6 -190.4 9.8 -190.85 10.25 -191.25 10.5 -191.3 10.5 -191.55 10.2 M-194.3 11.85 L-194.25 12.2 -194.8 12.5 -195.5 12.7 -195.7 12.45 -195.5 12.05 -195.05 11.75 -194.3 11.85" fill="#d0dee2" fill-rule="evenodd" stroke="none"/>
    <path d="M-205.2 7.4 L-205.25 7.8 -205.3 8.0 -205.3 7.9 -205.2 7.4" fill="#c6411a" fill-rule="evenodd" stroke="none"/>
  </g>
</svg>
