<?xml version="1.0" encoding="UTF-8" standalone="no"?>
<svg xmlns:ffdec="https://www.free-decompiler.com/flash" xmlns:xlink="http://www.w3.org/1999/xlink" ffdec:objectType="shape" height="39.5px" width="57.05px" xmlns="http://www.w3.org/2000/svg">
  <g transform="matrix(1.0, 0.0, 0.0, 1.0, 28.5, 19.75)">
    <path d="M-27.2 -3.05 L-27.15 -3.6 -26.9 -5.1 -26.6 -6.85 Q-26.35 -7.6 -17.35 -12.0 L-17.05 -12.4 Q-15.75 -13.7 -9.6 -16.6 -3.5 -19.5 -1.6 -19.75 0.05 -20.0 10.6 -14.15 11.95 -13.2 14.8 -9.0 L17.2 -5.3 Q24.75 -1.6 25.4 -0.85 26.25 0.1 27.0 3.25 L27.25 4.45 26.85 5.0 26.7 5.05 Q24.95 6.7 22.15 8.45 L22.25 8.35 22.25 8.2 23.4 7.4 24.9 6.55 Q26.05 5.65 26.4 4.95 L26.35 4.15 25.75 2.35 25.7 2.3 25.65 2.15 Q25.05 0.2 24.45 -0.5 24.1 -0.95 20.65 -2.65 L16.65 -4.55 Q16.45 -2.9 9.55 0.6 2.65 4.1 -1.05 4.45 0.35 4.95 2.25 6.45 L4.85 8.7 4.85 8.75 Q5.4 9.25 6.05 11.5 L6.1 11.7 6.35 12.55 Q6.85 14.7 7.3 15.2 L6.7 15.2 Q5.85 15.2 4.1 14.05 3.45 13.65 3.05 14.05 L2.8 14.55 2.9 16.25 2.95 16.85 1.0 16.05 Q1.0 12.9 -0.1 11.15 -1.15 9.5 -2.7 9.65 -4.15 9.65 -5.05 10.9 -5.75 11.85 -5.9 13.15 L-6.0 13.15 -6.55 12.9 Q-6.45 11.2 -5.65 9.95 -4.9 8.65 -3.7 8.3 L-6.3 8.65 -10.95 6.6 -13.6 5.35 -13.0 0.6 -12.8 -0.6 -11.15 -7.35 -11.1 -7.55 -11.3 -7.45 Q-12.2 -6.75 -13.3 -1.25 L-13.6 0.35 Q-14.15 3.3 -14.05 5.15 L-16.45 3.9 -16.8 4.05 -17.0 4.25 -17.05 6.05 -16.9 6.15 -17.4 6.3 Q-18.2 6.5 -18.8 6.3 -18.7 3.9 -20.0 1.95 -21.25 0.05 -22.75 0.0 L-22.85 0.0 Q-24.2 0.0 -24.9 1.05 -25.4 1.8 -25.55 3.05 L-26.05 2.3 -25.7 1.25 -24.9 0.25 Q-24.1 -0.7 -23.05 -0.85 L-25.1 -0.75 -26.6 -1.75 -27.25 -2.25 -27.2 -3.05 M-19.85 -0.55 L-22.4 -0.65 Q-21.2 -0.5 -20.05 0.6 -19.05 1.55 -18.65 2.6 -18.15 3.7 -17.65 3.45 -17.15 3.2 -17.75 1.95 -18.5 0.25 -19.85 -0.55 M-21.65 -4.6 L-18.2 -10.85 Q-25.6 -7.1 -25.45 -6.7 -25.2 -6.15 -21.65 -4.6 M-8.95 -15.95 Q-15.05 -13.05 -15.7 -11.55 -16.0 -10.85 -12.35 -9.45 -8.35 -7.85 -4.7 -8.05 -1.15 -8.25 4.15 -10.8 9.1 -13.15 8.95 -13.95 8.8 -14.55 4.15 -16.7 -0.4 -18.8 -1.3 -18.8 -3.1 -18.75 -8.95 -15.95 M-13.2 -5.9 L-12.8 -7.1 Q-15.95 -8.7 -16.65 -9.85 L-17.75 -8.45 -19.6 -5.8 -20.4 -4.45 Q-19.3 -3.1 -14.65 -0.7 L-13.75 -4.05 -13.2 -5.9 M-11.0 -4.9 L-11.4 -3.15 -12.15 0.5 Q-6.95 2.95 -4.35 3.25 L-4.5 2.2 Q-5.2 -1.85 -6.05 -4.6 -7.65 -4.85 -10.7 -6.15 L-11.0 -4.9 M14.65 -7.5 L12.7 -10.25 11.0 -12.1 Q10.2 -11.2 4.55 -8.3 -1.2 -5.4 -4.0 -4.55 L-2.9 -0.55 -1.85 3.45 -0.7 3.3 Q3.6 2.6 9.15 -0.1 14.95 -2.95 15.9 -5.2 L14.65 -7.5 M1.05 11.65 Q1.5 12.75 2.1 12.6 2.65 12.4 2.05 11.15 1.3 9.55 -0.25 8.65 -1.85 7.7 -2.9 8.35 -1.7 8.5 -0.45 9.65 0.6 10.65 1.05 11.65" fill="#8a2c34" fill-rule="evenodd" stroke="none"/>
    <path d="M-26.9 -5.1 L-27.15 -3.6 -27.2 -3.05 -27.2 -3.45 -27.3 -3.35 -26.9 -5.1" fill="#c7411a" fill-rule="evenodd" stroke="none"/>
    <path d="M-27.2 -3.05 L-27.25 -2.25 -26.6 -1.75 -25.1 -0.75 -25.0 -0.7 -25.7 1.25 -26.05 2.3 Q-26.8 2.3 -28.25 1.05 -28.55 0.8 -28.5 -0.7 -28.5 -2.1 -28.3 -2.5 L-27.7 -3.15 -27.3 -3.35 -27.2 -3.45 -27.2 -3.05 M-16.9 6.15 L-17.05 6.05 -17.0 4.25 -16.8 4.05 -16.45 3.9 -14.05 5.15 Q-14.0 6.5 -13.6 7.25 L-13.6 5.35 -10.95 6.6 -6.3 8.65 -5.8 8.8 Q-6.7 9.4 -6.9 10.8 L-12.0 8.6 -16.9 6.15 M2.95 16.85 L2.9 16.25 2.8 14.55 3.05 14.05 Q3.45 13.65 4.1 14.05 5.85 15.2 6.7 15.2 L7.3 15.2 8.6 15.0 7.4 15.25 Q9.4 18.0 17.35 14.6 24.5 11.55 27.7 8.05 L27.7 6.0 Q27.5 4.85 26.85 5.0 L27.25 4.45 27.35 4.25 28.1 4.65 Q28.8 7.25 28.4 8.4 27.65 10.6 18.4 15.3 9.35 19.95 6.7 19.75 6.1 19.7 4.65 18.95 L3.35 18.25 Q3.1 18.0 2.95 16.85 M22.25 8.2 L22.25 8.35 22.15 8.45 Q21.2 9.4 18.2 11.0 15.35 12.5 13.6 13.0 L13.3 13.1 12.9 11.3 12.7 9.55 Q12.8 9.25 16.75 7.15 20.7 5.0 20.9 5.05 L21.5 6.15 22.25 8.2 M20.7 6.5 Q20.3 6.4 17.2 7.95 14.05 9.5 13.65 10.15 14.65 10.25 17.6 8.7 20.55 7.15 20.7 6.5 M14.3 11.55 Q15.3 11.65 17.95 10.2 20.6 8.8 20.8 8.15 20.35 8.0 17.55 9.45 14.7 10.9 14.3 11.55" fill="#222227" fill-rule="evenodd" stroke="none"/>
    <path d="M-25.1 -0.75 L-23.05 -0.85 Q-24.1 -0.7 -24.9 0.25 L-25.7 1.25 -25.0 -0.7 -25.1 -0.75 M-25.55 3.05 Q-25.4 1.8 -24.9 1.05 -24.2 0.0 -22.85 0.0 -24.5 0.05 -25.05 2.75 L-25.55 3.05 M-18.8 6.3 Q-18.2 6.5 -17.4 6.3 L-16.9 6.15 -12.0 8.6 -6.9 10.8 Q-6.7 9.4 -5.8 8.8 L-6.3 8.65 -3.7 8.3 Q-4.9 8.65 -5.65 9.95 -6.45 11.2 -6.55 12.9 -7.8 12.75 -15.15 8.45 L-17.3 7.2 -18.8 6.3 M-14.05 5.15 Q-14.15 3.3 -13.6 0.35 L-13.3 -1.25 Q-12.2 -6.75 -11.3 -7.45 L-11.1 -7.55 -11.15 -7.35 -12.8 -0.6 -13.0 0.6 -13.6 5.35 -13.6 7.25 Q-14.0 6.5 -14.05 5.15 M-5.9 13.15 Q-5.75 11.85 -5.05 10.9 -4.15 9.65 -2.7 9.65 -3.7 9.75 -4.35 10.55 -5.1 11.4 -5.3 12.9 L-5.9 13.15" fill="#590c15" fill-rule="evenodd" stroke="none"/>
    <path d="M7.3 15.2 Q6.85 14.7 6.35 12.55 L7.05 14.1 7.8 14.95 10.3 14.2 Q12.05 13.55 12.3 13.15 L12.1 12.0 11.3 10.3 10.4 9.35 8.1 9.35 Q6.3 9.5 6.0 9.85 5.75 10.15 6.05 11.5 5.4 9.25 4.85 8.75 L4.85 8.7 8.8 8.45 5.45 3.45 11.0 8.0 Q13.45 7.45 15.8 6.4 19.05 4.9 21.55 2.65 L15.55 -1.55 22.55 1.7 24.45 -0.5 Q25.05 0.2 25.65 2.15 L25.55 1.95 Q24.85 0.75 24.35 0.8 23.9 0.85 22.85 2.15 21.85 3.3 21.55 3.95 21.45 4.25 21.65 5.0 L22.25 6.35 Q22.85 7.4 23.2 7.4 L23.4 7.4 22.25 8.2 21.5 6.15 20.9 5.05 Q20.7 5.0 16.75 7.15 12.8 9.25 12.7 9.55 L12.9 11.3 13.3 13.1 13.6 13.0 Q10.65 14.4 8.75 14.95 L8.6 15.0 7.3 15.2 M-19.85 -0.55 Q-18.5 0.25 -17.75 1.95 -17.15 3.2 -17.65 3.45 -18.15 3.7 -18.65 2.6 -19.05 1.55 -20.05 0.6 -21.2 -0.5 -22.4 -0.65 L-19.85 -0.55 M-21.65 -4.6 Q-25.2 -6.15 -25.45 -6.7 -25.6 -7.1 -18.2 -10.85 L-21.65 -4.6 M1.05 11.65 Q0.6 10.65 -0.45 9.65 -1.7 8.5 -2.9 8.35 -1.85 7.7 -0.25 8.65 1.3 9.55 2.05 11.15 2.65 12.4 2.1 12.6 1.5 12.75 1.05 11.65" fill="#b6414f" fill-rule="evenodd" stroke="none"/>
    <path d="M4.85 8.7 L2.25 6.45 Q0.35 4.95 -1.05 4.45 2.65 4.1 9.55 0.6 16.45 -2.9 16.65 -4.55 L20.65 -2.65 Q24.1 -0.95 24.45 -0.5 L22.55 1.7 15.55 -1.55 21.55 2.65 Q19.05 4.9 15.8 6.4 13.45 7.45 11.0 8.0 L5.45 3.45 8.8 8.45 4.85 8.7 M-8.95 -15.95 Q-3.1 -18.75 -1.3 -18.8 -0.4 -18.8 4.15 -16.7 8.8 -14.55 8.95 -13.95 9.1 -13.15 4.15 -10.8 -1.15 -8.25 -4.7 -8.05 -8.35 -7.85 -12.35 -9.45 -16.0 -10.85 -15.7 -11.55 -15.05 -13.05 -8.95 -15.95 M4.05 -14.25 Q4.15 -13.85 4.55 -13.5 5.55 -12.5 6.8 -13.3 8.2 -14.25 6.7 -14.7 L4.3 -14.8 Q4.0 -14.7 4.05 -14.25 M23.2 -0.55 Q23.2 -0.9 22.3 -1.2 L20.8 -1.05 Q20.1 -0.45 21.7 0.1 23.2 0.65 23.2 -0.55" fill="#cd4f62" fill-rule="evenodd" stroke="none"/>
    <path d="M-19.6 -5.8 L-17.75 -8.45 -16.65 -9.85 Q-15.95 -8.7 -12.8 -7.1 L-13.2 -5.9 Q-16.35 -6.95 -19.6 -5.8 M-11.0 -4.9 L-10.7 -6.15 Q-7.65 -4.85 -6.05 -4.6 -5.2 -1.85 -4.5 2.2 -7.0 -2.5 -10.8 -4.8 L-11.0 -4.9 M-0.7 3.3 Q-1.2 0.75 0.65 -1.95 2.0 -3.8 4.7 -5.9 6.85 -7.6 9.55 -8.05 12.35 -8.55 14.65 -7.5 L15.9 -5.2 Q14.95 -2.95 9.15 -0.1 3.6 2.6 -0.7 3.3" fill="#9fe8ff" fill-rule="evenodd" stroke="none"/>
    <path d="M-19.6 -5.8 Q-16.35 -6.95 -13.2 -5.9 L-13.75 -4.05 -14.65 -0.7 Q-19.3 -3.1 -20.4 -4.45 L-19.6 -5.8 M-4.5 2.2 L-4.35 3.25 Q-6.95 2.95 -12.15 0.5 L-11.4 -3.15 -11.0 -4.9 -10.8 -4.8 Q-7.0 -2.5 -4.5 2.2" fill="#6cc4e6" fill-rule="evenodd" stroke="none"/>
    <path d="M-0.7 3.3 L-1.85 3.45 -2.9 -0.55 -4.0 -4.55 Q-1.2 -5.4 4.55 -8.3 10.2 -11.2 11.0 -12.1 L12.7 -10.25 14.65 -7.5 Q12.35 -8.55 9.55 -8.05 6.85 -7.6 4.7 -5.9 2.0 -3.8 0.65 -1.95 -1.2 0.75 -0.7 3.3 M4.05 -14.25 Q4.0 -14.7 4.3 -14.8 L6.7 -14.7 Q8.2 -14.25 6.8 -13.3 5.55 -12.5 4.55 -13.5 4.15 -13.85 4.05 -14.25 M23.2 -0.55 Q23.2 0.65 21.7 0.1 20.1 -0.45 20.8 -1.05 L22.3 -1.2 Q23.2 -0.9 23.2 -0.55 M23.55 2.35 Q24.15 1.35 24.7 1.85 25.1 2.2 24.5 2.85 23.9 3.45 23.3 3.4 22.95 3.35 23.55 2.35 M9.7 9.55 Q10.65 9.55 10.1 10.4 9.75 11.0 8.45 10.65 7.15 10.3 7.65 10.05 8.85 9.55 9.7 9.55" fill="#fdfdfd" fill-rule="evenodd" stroke="none"/>
    <path d="M26.35 4.15 L26.4 4.95 Q26.05 5.65 24.9 6.55 L23.4 7.4 23.2 7.4 Q22.85 7.4 22.25 6.35 22.35 5.8 22.8 5.2 L23.75 4.25 Q24.3 3.7 25.05 3.7 L26.15 4.0 26.35 4.15 M7.05 14.1 Q7.0 13.25 7.8 12.5 8.5 11.9 9.45 11.6 10.8 11.35 12.1 12.0 L12.3 13.15 Q12.05 13.55 10.3 14.2 L7.8 14.95 7.05 14.1" fill="#d1dfe3" fill-rule="evenodd" stroke="none"/>
    <path d="M6.35 12.55 L6.1 11.7 6.05 11.5 Q5.75 10.15 6.0 9.85 6.3 9.5 8.1 9.35 L10.4 9.35 11.3 10.3 12.1 12.0 Q10.8 11.35 9.45 11.6 8.5 11.9 7.8 12.5 7.0 13.25 7.05 14.1 L6.35 12.55 M25.65 2.15 L25.7 2.3 25.75 2.35 26.35 4.15 26.15 4.0 25.05 3.7 Q24.3 3.7 23.75 4.25 L22.8 5.2 Q22.35 5.8 22.25 6.35 L21.65 5.0 Q21.45 4.25 21.55 3.95 21.85 3.3 22.85 2.15 23.9 0.85 24.35 0.8 24.85 0.75 25.55 1.95 L25.65 2.15 M23.55 2.35 Q22.95 3.35 23.3 3.4 23.9 3.45 24.5 2.85 25.1 2.2 24.7 1.85 24.15 1.35 23.55 2.35 M9.7 9.55 Q8.85 9.55 7.65 10.05 7.15 10.3 8.45 10.65 9.75 11.0 10.1 10.4 10.65 9.55 9.7 9.55" fill="#acbdc0" fill-rule="evenodd" stroke="none"/>
    <path d="M22.15 8.45 Q24.95 6.7 26.7 5.05 L26.85 5.0 Q27.5 4.85 27.7 6.0 L27.7 8.05 Q24.5 11.55 17.35 14.6 9.4 18.0 7.4 15.25 L8.6 15.0 8.75 14.95 Q10.65 14.4 13.6 13.0 15.35 12.5 18.2 11.0 21.2 9.4 22.15 8.45 M20.7 6.5 Q20.55 7.15 17.6 8.7 14.65 10.25 13.65 10.15 14.05 9.5 17.2 7.95 20.3 6.4 20.7 6.5 M14.3 11.55 Q14.7 10.9 17.55 9.45 20.35 8.0 20.8 8.15 20.6 8.8 17.95 10.2 15.3 11.65 14.3 11.55" fill="#595863" fill-rule="evenodd" stroke="none"/>
  </g>
</svg>
