<?xml version="1.0" encoding="UTF-8" standalone="no"?>
<svg xmlns:ffdec="https://www.free-decompiler.com/flash" xmlns:xlink="http://www.w3.org/1999/xlink" ffdec:objectType="shape" height="40.0px" width="40.0px" xmlns="http://www.w3.org/2000/svg">
  <g transform="matrix(1.0, 0.0, 0.0, 1.0, 20.0, 20.0)">
    <path d="M-4.75 -15.9 L-3.2 -17.65 Q-1.2 -20.0 0.0 -20.0 1.25 -20.0 3.25 -17.65 L4.75 -15.9 Q5.6 -15.0 6.25 -14.75 L8.05 -14.5 10.3 -14.6 Q13.2 -14.8 14.0 -14.0 14.8 -13.2 14.6 -10.3 14.4 -7.0 14.75 -6.2 15.0 -5.6 15.9 -4.75 L17.7 -3.2 Q20.0 -1.2 20.0 0.0 20.0 1.25 17.7 3.25 L15.9 4.75 Q15.0 5.6 14.75 6.25 14.4 7.05 14.6 10.3 14.8 13.2 14.0 14.0 13.2 14.8 10.3 14.6 L6.25 14.75 Q5.6 15.0 4.75 15.9 L3.25 17.7 Q1.25 20.0 0.0 20.0 -1.2 20.0 -3.2 17.7 L-4.75 15.9 -6.2 14.75 -10.3 14.6 Q-13.2 14.8 -14.0 14.0 -14.8 13.2 -14.6 10.3 L-14.5 8.05 Q-14.45 6.85 -14.75 6.25 -15.0 5.6 -15.9 4.75 L-17.65 3.25 Q-20.0 1.25 -20.0 0.0 -20.0 -1.2 -17.65 -3.2 L-15.9 -4.75 Q-15.0 -5.6 -14.75 -6.2 -14.45 -6.85 -14.5 -8.05 L-14.6 -10.3 Q-14.8 -13.2 -14.0 -14.0 -13.2 -14.8 -10.3 -14.6 L-8.05 -14.5 -6.2 -14.75 -4.75 -15.9" fill="#f9ec24" fill-rule="evenodd" stroke="none"/>
  </g>
</svg>
