<?xml version="1.0" encoding="UTF-8" standalone="no"?>
<svg xmlns:ffdec="https://www.free-decompiler.com/flash" xmlns:xlink="http://www.w3.org/1999/xlink" ffdec:objectType="shape" height="30.3px" width="114.5px" xmlns="http://www.w3.org/2000/svg">
  <g transform="matrix(1.0, 0.0, 0.0, 1.0, 57.6, 15.2)">
    <path d="M9.7 -15.05 L13.0 -15.0 16.3 -14.95 25.6 -14.85 26.6 -14.8 29.5 -14.8 36.1 -14.65 39.3 -14.6 43.25 -14.45 45.1 -14.4 45.2 -14.4 46.7 -14.3 Q54.45 -13.7 55.45 -13.0 L56.35 -11.85 Q57.65 -8.75 55.85 0.8 L54.65 6.0 54.0 8.05 53.2 10.05 Q51.5 13.65 49.25 14.2 L46.7 14.65 45.1 14.8 43.25 14.85 39.3 15.05 36.1 15.05 29.5 15.1 26.6 15.1 25.6 15.1 16.3 15.1 13.0 15.05 9.7 15.05 3.95 14.95 -6.25 14.9 -8.95 14.85 -9.15 14.85 -12.65 14.85 -16.0 14.8 -19.0 14.75 -26.85 14.65 -37.3 14.45 -41.2 14.35 -44.5 14.2 -53.05 13.15 Q-54.95 12.65 -56.05 10.05 L-56.7 8.05 -57.15 6.0 Q-57.55 3.55 -57.6 0.25 -57.8 -8.4 -56.25 -11.85 -55.8 -12.95 -55.15 -13.5 -53.8 -14.65 -44.5 -15.0 L-41.2 -15.1 -37.3 -15.15 -26.85 -15.2 -19.0 -15.2 -16.0 -15.2 -12.65 -15.2 -8.95 -15.15 -6.25 -15.15 -3.0 -15.15 3.95 -15.1 9.7 -15.05 M9.7 -13.2 L3.95 -13.25 -6.25 -13.3 -8.95 -13.3 -12.65 -13.3 -16.0 -13.35 -19.0 -13.35 -21.8 -13.35 -26.85 -13.35 -37.3 -13.25 -41.2 -13.2 -44.5 -13.1 -51.1 -12.55 -51.4 -11.85 -52.2 -8.35 Q-52.75 -5.0 -52.7 -1.15 -52.65 2.95 -52.0 6.0 L-51.85 6.7 -51.4 8.05 -50.5 10.05 -50.3 10.35 -44.5 10.95 -41.2 11.1 -37.3 11.2 -32.65 11.3 -26.85 11.45 -19.0 11.6 -16.0 11.65 -12.65 11.7 -8.95 11.7 -6.25 11.7 3.95 11.75 9.7 11.8 13.0 11.8 16.3 11.8 19.35 11.8 25.6 11.8 26.6 11.8 29.5 11.8 36.1 11.75 39.3 11.75 43.25 11.6 45.1 11.5 46.6 11.35 46.7 11.25 47.65 10.05 48.6 8.05 48.75 7.7 49.4 6.0 Q50.35 3.25 51.0 -0.3 51.7 -4.2 51.75 -7.55 51.8 -10.45 51.45 -11.85 L51.4 -11.9 46.7 -12.4 45.1 -12.5 43.25 -12.6 39.3 -12.75 36.1 -12.8 33.3 -12.85 29.5 -12.9 26.6 -12.95 25.6 -12.95 16.3 -13.1 13.0 -13.15 9.7 -13.2" fill="#999999" fill-rule="evenodd" stroke="none"/>
    <path d="M9.7 -13.2 L13.0 -13.15 16.3 -13.1 25.6 -12.95 26.6 -12.95 29.5 -12.9 33.3 -12.85 36.1 -12.8 39.3 -12.75 43.25 -12.6 45.1 -12.5 46.7 -12.4 51.4 -11.9 51.45 -11.85 Q51.8 -10.45 51.75 -7.55 51.7 -4.2 51.0 -0.3 50.35 3.25 49.4 6.0 L48.75 7.7 48.6 8.05 47.65 10.05 46.7 11.25 46.6 11.35 45.1 11.5 43.25 11.6 39.3 11.75 36.1 11.75 29.5 11.8 26.6 11.8 25.6 11.8 19.35 11.8 16.3 11.8 13.0 11.8 9.7 11.8 3.95 11.75 -6.25 11.7 -8.95 11.7 -12.65 11.7 -16.0 11.65 -19.0 11.6 -26.85 11.45 -32.65 11.3 -37.3 11.2 -41.2 11.1 -44.5 10.95 -50.3 10.35 -50.5 10.05 -51.4 8.05 -51.85 6.7 -52.0 6.0 Q-52.65 2.95 -52.7 -1.15 -52.75 -5.0 -52.2 -8.35 L-51.4 -11.85 -51.1 -12.55 -44.5 -13.1 -41.2 -13.2 -37.3 -13.25 -26.85 -13.35 -21.8 -13.35 -19.0 -13.35 -16.0 -13.35 -12.65 -13.3 -8.95 -13.3 -6.25 -13.3 3.95 -13.25 9.7 -13.2" fill="#cccccc" fill-rule="evenodd" stroke="none"/>
  </g>
</svg>
