<?xml version="1.0" encoding="UTF-8" standalone="no"?>
<svg xmlns:ffdec="https://www.free-decompiler.com/flash" xmlns:xlink="http://www.w3.org/1999/xlink" ffdec:objectType="shape" height="40.0px" width="167.05px" xmlns="http://www.w3.org/2000/svg">
  <g transform="matrix(1.0, 0.0, 0.0, 1.0, 101.5, 20.0)">
    <path d="M41.45 -20.0 Q52.55 -20.0 52.55 -11.3 L52.45 -10.95 51.25 -3.1 64.0 3.1 Q65.15 3.65 65.45 4.6 65.8 5.5 65.15 6.45 64.5 7.3 63.3 7.6 L49.05 11.3 Q48.95 20.0 37.9 20.0 L-86.85 20.0 Q-97.85 20.0 -97.9 11.45 L-101.5 -10.95 -101.5 -11.3 Q-101.5 -20.0 -90.35 -20.0 L41.45 -20.0 M49.35 -11.3 Q49.35 -17.5 41.45 -17.5 L-90.35 -17.5 Q-98.25 -17.5 -98.25 -11.3 L-94.75 11.25 Q-94.75 17.5 -86.85 17.5 L37.9 17.5 Q45.8 17.5 45.8 11.25 L46.1 9.4 62.35 5.2 47.8 -1.8 49.35 -11.3" fill="#000000" fill-rule="evenodd" stroke="none"/>
    <path d="M49.35 -11.3 L47.8 -1.8 62.35 5.2 46.1 9.4 45.8 11.25 Q45.8 17.5 37.9 17.5 L-86.85 17.5 Q-94.75 17.5 -94.75 11.25 L-98.25 -11.3 Q-98.25 -17.5 -90.35 -17.5 L41.45 -17.5 Q49.35 -17.5 49.35 -11.3" fill="#ffffff" fill-rule="evenodd" stroke="none"/>
  </g>
</svg>
