<?xml version="1.0" encoding="UTF-8" standalone="no"?>
<svg xmlns:ffdec="https://www.free-decompiler.com/flash" xmlns:xlink="http://www.w3.org/1999/xlink" ffdec:objectType="shape" height="400.0px" width="640.05px" xmlns="http://www.w3.org/2000/svg">
  <g transform="matrix(1.0, 0.0, 0.0, 1.0, 320.05, 200.0)">
    <path d="M69.3 -29.0 L68.2 -28.9 Q64.1 -28.45 60.9 -26.35 57.95 -24.45 55.05 -20.6 51.7 -16.15 54.45 -11.6 57.0 -7.35 61.45 -7.35 L61.7 -7.35 Q65.7 -7.5 69.55 -10.2 73.3 -12.85 75.5 -16.85 77.7 -20.9 75.95 -24.85 74.1 -29.0 69.3 -29.0 M46.35 -4.6 Q42.95 -4.6 39.25 -2.45 35.2 -0.1 31.85 4.25 16.7 24.0 9.3 47.65 0.65 75.35 6.55 98.35 8.15 104.65 9.75 107.0 11.0 108.85 12.9 108.85 L14.45 108.7 Q18.35 108.2 21.25 103.25 24.3 98.05 23.2 92.7 19.25 72.95 27.2 50.85 33.6 33.0 47.1 15.15 53.8 6.35 52.9 0.55 52.05 -4.6 46.35 -4.6 M247.1 200.0 Q272.8 170.0 293.5 137.75 313.25 107.05 314.05 97.3 305.0 90.65 286.4 82.95 266.75 74.8 256.1 67.6 266.2 40.45 264.4 12.7 262.7 -13.8 251.1 -30.35 239.55 -46.75 223.9 -56.8 208.25 -66.8 191.35 -68.55 L186.25 -68.8 Q175.75 -68.8 164.55 -64.5 154.95 -60.85 145.95 -54.6 L145.2 -54.1 143.95 -54.85 Q123.85 -66.25 103.2 -66.25 88.95 -66.25 74.35 -60.85 49.5 -51.75 27.25 -29.3 0.3 -2.2 -14.5 37.3 -27.55 72.05 -24.3 105.05 -21.1 137.45 -2.9 161.1 6.45 173.25 19.0 183.15 31.6 193.1 46.35 200.0 L-320.05 200.0 -320.05 -2.2 Q-312.65 -1.7 -302.4 -1.7 L-285.9 -1.95 -271.7 -2.2 -264.7 -2.05 Q-253.65 35.8 -222.6 62.25 -193.05 87.4 -156.8 93.0 L-141.55 94.15 Q-115.35 94.15 -89.85 81.25 -63.75 68.1 -42.7 43.6 -15.15 11.6 -4.35 -25.0 4.6 -55.25 0.65 -81.45 -4.95 -119.2 -38.1 -139.6 L-39.35 -140.4 -39.25 -141.25 Q-37.95 -153.55 -39.85 -164.7 -42.15 -178.05 -48.85 -187.7 -53.4 -194.3 -59.8 -200.0 L320.0 -200.0 320.0 200.0 247.1 200.0 M149.7 200.0 Q144.15 192.6 140.45 186.9 123.35 191.9 106.7 191.9 90.45 191.9 73.6 187.1 55.1 182.1 36.55 169.7 13.7 154.5 4.65 135.9 -7.55 110.8 -6.45 82.25 -5.55 57.9 4.75 33.6 14.4 10.95 31.55 -9.55 52.15 -34.2 74.05 -42.65 83.2 -46.2 94.1 -46.2 102.85 -46.2 111.65 -43.9 120.45 -41.55 128.05 -37.25 120.75 -27.1 116.25 -17.0 110.75 -4.55 110.35 5.9 109.85 19.35 113.55 31.75 117.35 44.7 125.55 55.9 127.4 59.2 126.85 71.65 126.2 86.85 121.3 100.4 106.75 140.5 64.0 142.1 64.55 142.15 67.85 145.95 72.4 149.75 79.1 149.75 L82.25 149.55 Q117.0 145.35 135.8 115.5 142.1 105.4 146.85 91.9 L152.3 74.3 Q158.45 77.05 167.65 79.75 177.8 82.75 182.4 82.75 184.5 82.75 185.0 82.05 161.4 68.5 149.25 56.05 139.95 46.5 132.5 31.6 124.9 16.3 128.55 -1.5 131.9 -17.95 143.35 -31.05 150.45 -39.2 161.1 -44.25 172.2 -49.55 183.4 -49.55 L185.35 -49.5 Q207.05 -48.45 223.7 -32.15 244.05 -12.2 245.95 23.0 246.45 32.95 243.2 49.6 240.2 64.95 234.75 82.55 245.8 87.6 259.6 95.25 257.4 100.1 253.75 105.9 L247.35 115.55 Q244.1 120.45 246.2 124.2 248.1 127.6 252.6 127.6 255.15 127.6 257.45 126.25 260.05 124.7 261.7 121.8 268.0 111.25 271.9 102.3 282.05 108.3 288.15 112.85 282.5 123.75 264.0 148.55 241.5 178.75 220.65 200.0 L194.35 200.0 Q194.05 197.2 191.55 194.9 189.15 192.6 186.75 192.6 185.65 192.6 184.9 193.15 L175.35 200.0 149.7 200.0 M162.0 -36.8 Q148.65 -30.75 141.25 -14.3 133.6 2.65 137.7 19.15 138.45 22.2 140.45 23.75 142.25 25.1 144.7 25.1 148.4 25.1 151.4 22.5 154.45 19.8 154.0 16.5 151.75 0.85 157.5 -8.65 161.7 -15.5 173.3 -22.85 178.6 -26.2 175.9 -32.05 173.25 -37.9 166.8 -37.9 164.4 -37.9 162.0 -36.8 M232.55 140.85 Q230.45 140.85 229.55 142.1 226.05 147.1 218.35 156.5 L205.5 171.65 Q201.8 175.75 203.6 180.55 205.35 185.15 209.75 185.15 212.7 185.15 215.55 182.3 223.7 173.95 229.85 166.5 239.3 155.0 240.8 149.2 241.6 146.0 238.55 143.3 235.75 140.8 232.55 140.85 M-130.35 -200.0 L-101.9 -200.0 Q-88.7 -197.25 -77.95 -189.55 -68.4 -182.65 -62.7 -173.3 -56.65 -163.45 -55.7 -150.55 -54.75 -138.3 -58.65 -127.65 -64.65 -111.3 -77.45 -100.5 -91.35 -88.75 -108.4 -88.05 L-114.45 -87.9 Q-128.55 -87.9 -141.35 -92.0 -156.75 -96.9 -177.95 -109.75 -178.85 -107.4 -170.05 -98.2 -162.15 -90.0 -155.35 -84.85 L-168.15 -71.6 Q-177.8 -60.95 -183.55 -50.55 -200.75 -19.75 -187.7 12.75 -184.6 20.5 -178.4 23.35 -175.25 24.75 -172.4 25.2 -182.8 4.4 -178.95 -15.1 -175.8 -31.0 -163.35 -45.1 -153.9 -55.9 -140.85 -63.8 -130.2 -70.25 -126.35 -70.25 L-115.9 -69.55 Q-94.25 -69.55 -75.2 -80.95 -66.2 -86.35 -58.0 -97.1 -51.25 -105.95 -45.9 -117.2 -33.8 -109.8 -25.45 -97.75 -16.9 -85.5 -15.15 -72.45 -12.05 -49.2 -23.75 -19.3 -33.5 5.65 -48.7 24.95 -65.0 45.65 -85.95 58.2 -110.45 72.85 -138.35 74.2 L-141.3 74.3 Q-161.45 74.3 -184.75 61.85 -203.75 51.65 -216.45 38.45 -227.4 27.25 -234.7 15.0 -244.2 -1.05 -248.4 -20.3 -259.65 -21.1 -278.5 -24.45 -277.65 -37.25 -275.25 -56.2 -275.0 -58.35 -277.55 -60.1 -280.0 -61.75 -283.0 -61.75 -286.6 -61.75 -288.2 -59.1 -292.4 -51.95 -293.3 -27.2 L-305.8 -29.7 Q-311.05 -55.5 -287.05 -116.75 -278.45 -138.6 -268.0 -160.2 -259.1 -178.5 -254.55 -185.35 -247.2 -182.0 -237.45 -176.2 -243.25 -168.6 -249.65 -157.9 -252.85 -152.5 -250.65 -147.65 -248.55 -143.1 -244.2 -143.1 -242.3 -143.1 -240.55 -144.35 -238.65 -145.7 -237.25 -148.3 L-231.85 -158.55 Q-228.55 -164.5 -225.35 -168.8 -211.55 -160.0 -202.25 -153.1 -189.5 -166.35 -177.45 -176.4 -164.3 -187.25 -155.35 -191.55 -142.5 -197.75 -130.35 -200.0 M-320.05 -81.5 L-320.05 -200.0 -266.0 -200.0 Q-279.2 -179.8 -294.0 -148.1 -310.35 -113.0 -320.05 -81.5 M-229.7 -200.0 L-176.65 -200.0 Q-189.4 -190.65 -199.4 -179.0 -207.7 -183.25 -216.0 -189.3 L-229.7 -200.0 M-263.6 -126.35 Q-267.95 -122.25 -273.5 -108.45 -277.15 -99.35 -280.5 -88.3 -281.85 -83.9 -279.7 -81.1 -277.8 -78.6 -274.35 -78.6 -271.8 -78.6 -269.65 -80.1 -267.35 -81.7 -266.3 -84.6 L-259.2 -103.2 Q-254.65 -114.5 -252.0 -119.9 -250.9 -122.25 -253.75 -125.0 -256.6 -127.75 -260.0 -127.75 -262.15 -127.75 -263.6 -126.35 M-72.75 -156.65 Q-75.8 -156.65 -77.85 -155.0 -80.05 -153.15 -80.25 -149.95 -81.15 -136.2 -85.15 -129.25 -90.75 -119.65 -105.5 -114.1 -107.8 -113.25 -108.95 -110.6 -110.05 -108.15 -109.65 -105.25 -108.75 -98.2 -102.55 -98.2 L-100.0 -98.55 Q-83.55 -102.9 -72.35 -117.75 -61.5 -132.15 -62.6 -146.75 -62.9 -151.4 -66.1 -154.15 -69.0 -156.65 -72.75 -156.65 M-35.2 -64.45 Q-37.25 -63.3 -38.5 -61.35 -40.95 -57.5 -41.45 -52.95 -42.0 -48.2 -40.2 -44.65 -39.25 -42.7 -37.1 -41.5 -35.05 -40.35 -32.65 -40.35 -27.6 -40.35 -25.35 -45.2 -23.4 -49.6 -23.1 -53.1 -22.8 -56.9 -24.4 -60.75 -25.4 -63.2 -27.25 -64.45 -28.95 -65.6 -31.1 -65.6 -33.2 -65.6 -35.2 -64.45 M-46.65 -30.65 Q-50.05 -27.4 -52.9 -21.05 -62.05 -0.6 -74.6 13.55 -90.15 31.2 -109.4 37.2 -114.6 38.85 -117.7 44.0 -120.65 48.95 -119.2 52.6 -118.55 54.35 -117.85 54.95 -116.8 55.9 -114.5 55.9 -111.7 55.9 -106.35 54.55 -83.35 48.65 -63.2 27.7 -46.05 9.85 -36.0 -12.95 -32.45 -21.0 -34.25 -27.45 -35.95 -33.55 -40.7 -33.55 -43.65 -33.55 -46.65 -30.65" fill="url(#gradient0)" fill-rule="evenodd" stroke="none"/>
    <path d="M69.3 -29.0 Q74.1 -29.0 75.95 -24.85 77.7 -20.9 75.5 -16.85 73.3 -12.85 69.55 -10.2 65.7 -7.5 61.7 -7.35 L61.45 -7.35 Q57.0 -7.35 54.45 -11.6 51.7 -16.15 55.05 -20.6 57.95 -24.45 60.9 -26.35 64.1 -28.45 68.2 -28.9 L69.3 -29.0" fill="url(#gradient1)" fill-rule="evenodd" stroke="none"/>
    <path d="M46.35 -4.6 Q52.05 -4.6 52.9 0.55 53.8 6.35 47.1 15.15 33.6 33.0 27.2 50.85 19.25 72.95 23.2 92.7 24.3 98.05 21.25 103.25 18.35 108.2 14.45 108.7 L12.9 108.85 Q11.0 108.85 9.75 107.0 8.15 104.65 6.55 98.35 0.65 75.35 9.3 47.65 16.7 24.0 31.85 4.25 35.2 -0.1 39.25 -2.45 42.95 -4.6 46.35 -4.6" fill="url(#gradient2)" fill-rule="evenodd" stroke="none"/>
    <path d="M46.35 200.0 Q31.6 193.1 19.0 183.15 6.45 173.25 -2.9 161.1 -21.1 137.45 -24.3 105.05 -27.55 72.05 -14.5 37.3 0.3 -2.2 27.25 -29.3 49.5 -51.75 74.35 -60.85 88.95 -66.25 103.2 -66.25 123.85 -66.25 143.95 -54.85 L145.2 -54.1 145.95 -54.6 Q154.95 -60.85 164.55 -64.5 175.75 -68.8 186.25 -68.8 L191.35 -68.55 Q208.25 -66.8 223.9 -56.8 239.55 -46.75 251.1 -30.35 262.7 -13.8 264.4 12.7 266.2 40.45 256.1 67.6 266.75 74.8 286.4 82.95 305.0 90.65 314.05 97.3 313.25 107.05 293.5 137.75 272.8 170.0 247.1 200.0 L220.65 200.0 Q241.5 178.75 264.0 148.55 282.5 123.75 288.15 112.85 282.05 108.3 271.9 102.3 265.25 98.35 259.6 95.25 245.8 87.6 234.75 82.55 240.2 64.95 243.2 49.6 246.45 32.95 245.95 23.0 244.05 -12.2 223.7 -32.15 207.05 -48.45 185.35 -49.5 L183.4 -49.55 Q172.2 -49.55 161.1 -44.25 150.45 -39.2 143.35 -31.05 131.9 -17.95 128.55 -1.5 124.9 16.3 132.5 31.6 139.95 46.5 149.25 56.05 161.4 68.5 185.0 82.05 184.5 82.75 182.4 82.75 177.8 82.75 167.65 79.75 158.45 77.05 152.3 74.3 L146.85 91.9 Q142.1 105.4 135.8 115.5 117.0 145.35 82.25 149.55 L79.1 149.75 Q72.4 149.75 67.85 145.95 64.55 142.15 64.0 142.1 106.75 140.5 121.3 100.4 126.2 86.85 126.85 71.65 127.4 59.2 125.55 55.9 117.35 44.7 113.55 31.75 109.85 19.35 110.35 5.9 110.75 -4.55 116.25 -17.0 120.75 -27.1 128.05 -37.25 120.45 -41.55 111.65 -43.9 102.85 -46.2 94.1 -46.2 83.2 -46.2 74.05 -42.65 52.15 -34.2 31.55 -9.55 14.4 10.95 4.75 33.6 -5.55 57.9 -6.45 82.25 -7.55 110.8 4.65 135.9 13.7 154.5 36.55 169.7 55.1 182.1 73.6 187.1 90.45 191.9 106.7 191.9 123.35 191.9 140.45 186.9 144.15 192.6 149.7 200.0 L46.35 200.0" fill="url(#gradient3)" fill-rule="evenodd" stroke="none"/>
    <path d="M162.0 -36.8 Q164.4 -37.9 166.8 -37.9 173.25 -37.9 175.9 -32.05 178.6 -26.2 173.3 -22.85 161.7 -15.5 157.5 -8.65 151.75 0.85 154.0 16.5 154.45 19.8 151.4 22.5 148.4 25.1 144.7 25.1 142.25 25.1 140.45 23.75 138.45 22.2 137.7 19.15 133.6 2.65 141.25 -14.3 148.65 -30.75 162.0 -36.8" fill="url(#gradient4)" fill-rule="evenodd" stroke="none"/>
    <path d="M232.55 140.85 Q235.75 140.8 238.55 143.3 241.6 146.0 240.8 149.2 239.3 155.0 229.85 166.5 223.7 173.95 215.55 182.3 212.7 185.15 209.75 185.15 205.35 185.15 203.6 180.55 201.8 175.75 205.5 171.65 L218.35 156.5 Q226.05 147.1 229.55 142.1 230.45 140.85 232.55 140.85" fill="url(#gradient5)" fill-rule="evenodd" stroke="none"/>
    <path d="M175.35 200.0 L184.9 193.15 Q185.65 192.6 186.75 192.6 189.15 192.6 191.55 194.9 194.05 197.2 194.35 200.0 L175.35 200.0" fill="url(#gradient6)" fill-rule="evenodd" stroke="none"/>
    <path d="M259.6 95.25 Q265.25 98.35 271.9 102.3 268.0 111.25 261.7 121.8 260.05 124.7 257.45 126.25 255.15 127.6 252.6 127.6 248.1 127.6 246.2 124.2 244.1 120.45 247.35 115.55 L253.75 105.9 Q257.4 100.1 259.6 95.25" fill="url(#gradient7)" fill-rule="evenodd" stroke="none"/>
    <path d="M-59.8 -200.0 Q-53.4 -194.3 -48.85 -187.7 -42.15 -178.05 -39.85 -164.7 -37.95 -153.55 -39.25 -141.25 L-39.35 -140.4 -38.1 -139.6 Q-4.95 -119.2 0.65 -81.45 4.6 -55.25 -4.35 -25.0 -15.15 11.6 -42.7 43.6 -63.75 68.1 -89.85 81.25 -115.35 94.15 -141.55 94.15 L-156.8 93.0 Q-193.05 87.4 -222.6 62.25 -253.65 35.8 -264.7 -2.05 L-271.7 -2.2 -285.9 -1.95 -302.4 -1.7 Q-312.65 -1.7 -320.05 -2.2 L-320.05 -81.5 Q-310.35 -113.0 -294.0 -148.1 -279.2 -179.8 -266.0 -200.0 L-229.7 -200.0 -216.0 -189.3 Q-207.7 -183.25 -199.4 -179.0 -189.4 -190.65 -176.65 -200.0 L-130.35 -200.0 Q-142.5 -197.75 -155.35 -191.55 -164.3 -187.25 -177.45 -176.4 -189.5 -166.35 -202.25 -153.1 -211.55 -160.0 -225.35 -168.8 -233.45 -173.9 -237.45 -176.2 -247.2 -182.0 -254.55 -185.35 -259.1 -178.5 -268.0 -160.2 -278.45 -138.6 -287.05 -116.75 -311.05 -55.5 -305.8 -29.7 L-293.3 -27.2 -278.5 -24.45 Q-259.65 -21.1 -248.4 -20.3 -244.2 -1.05 -234.7 15.0 -227.4 27.25 -216.45 38.45 -203.75 51.65 -184.75 61.85 -161.45 74.3 -141.3 74.3 L-138.35 74.2 Q-110.45 72.85 -85.95 58.2 -65.0 45.65 -48.7 24.95 -33.5 5.65 -23.75 -19.3 -12.05 -49.2 -15.15 -72.45 -16.9 -85.5 -25.45 -97.75 -33.8 -109.8 -45.9 -117.2 -51.25 -105.95 -58.0 -97.1 -66.2 -86.35 -75.2 -80.95 -94.25 -69.55 -115.9 -69.55 L-126.35 -70.25 Q-130.2 -70.25 -140.85 -63.8 -153.9 -55.9 -163.35 -45.1 -175.8 -31.0 -178.95 -15.1 -182.8 4.4 -172.4 25.2 -175.25 24.75 -178.4 23.35 -184.6 20.5 -187.7 12.75 -200.75 -19.75 -183.55 -50.55 -177.8 -60.95 -168.15 -71.6 L-155.35 -84.85 Q-162.15 -90.0 -170.05 -98.2 -178.85 -107.4 -177.95 -109.75 -156.75 -96.9 -141.35 -92.0 -128.55 -87.9 -114.45 -87.9 L-108.4 -88.05 Q-91.35 -88.75 -77.45 -100.5 -64.65 -111.3 -58.65 -127.65 -54.75 -138.3 -55.7 -150.55 -56.65 -163.45 -62.7 -173.3 -68.4 -182.65 -77.95 -189.55 -88.7 -197.25 -101.9 -200.0 L-59.8 -200.0" fill="url(#gradient8)" fill-rule="evenodd" stroke="none"/>
    <path d="M-225.35 -168.8 Q-228.55 -164.5 -231.85 -158.55 L-237.25 -148.3 Q-238.65 -145.7 -240.55 -144.35 -242.3 -143.1 -244.2 -143.1 -248.55 -143.1 -250.65 -147.65 -252.85 -152.5 -249.65 -157.9 -243.25 -168.6 -237.45 -176.2 -233.45 -173.9 -225.35 -168.8" fill="url(#gradient9)" fill-rule="evenodd" stroke="none"/>
    <path d="M-263.6 -126.35 Q-262.15 -127.75 -260.0 -127.75 -256.6 -127.75 -253.75 -125.0 -250.9 -122.25 -252.0 -119.9 -254.65 -114.5 -259.2 -103.2 L-266.3 -84.6 Q-267.35 -81.7 -269.65 -80.1 -271.8 -78.6 -274.35 -78.6 -277.8 -78.6 -279.7 -81.1 -281.85 -83.9 -280.5 -88.3 -277.15 -99.35 -273.5 -108.45 -267.95 -122.25 -263.6 -126.35" fill="url(#gradient10)" fill-rule="evenodd" stroke="none"/>
    <path d="M-293.3 -27.2 Q-292.4 -51.95 -288.2 -59.1 -286.6 -61.75 -283.0 -61.75 -280.0 -61.75 -277.55 -60.1 -275.0 -58.35 -275.25 -56.2 -277.65 -37.25 -278.5 -24.45 L-293.3 -27.2" fill="url(#gradient11)" fill-rule="evenodd" stroke="none"/>
    <path d="M-72.75 -156.65 Q-69.0 -156.65 -66.1 -154.15 -62.9 -151.4 -62.6 -146.75 -61.5 -132.15 -72.35 -117.75 -83.55 -102.9 -100.0 -98.55 L-102.55 -98.2 Q-108.75 -98.2 -109.65 -105.25 -110.05 -108.15 -108.95 -110.6 -107.8 -113.25 -105.5 -114.1 -90.75 -119.65 -85.15 -129.25 -81.15 -136.2 -80.25 -149.95 -80.05 -153.15 -77.85 -155.0 -75.8 -156.65 -72.75 -156.65" fill="url(#gradient12)" fill-rule="evenodd" stroke="none"/>
    <path d="M-35.2 -64.45 Q-33.2 -65.6 -31.1 -65.6 -28.95 -65.6 -27.25 -64.45 -25.4 -63.2 -24.4 -60.75 -22.8 -56.9 -23.1 -53.1 -23.4 -49.6 -25.35 -45.2 -27.6 -40.35 -32.65 -40.35 -35.05 -40.35 -37.1 -41.5 -39.25 -42.7 -40.2 -44.65 -42.0 -48.2 -41.45 -52.95 -40.95 -57.5 -38.5 -61.35 -37.25 -63.3 -35.2 -64.45" fill="url(#gradient13)" fill-rule="evenodd" stroke="none"/>
    <path d="M-46.65 -30.65 Q-43.65 -33.55 -40.7 -33.55 -35.95 -33.55 -34.25 -27.45 -32.45 -21.0 -36.0 -12.95 -46.05 9.85 -63.2 27.7 -83.35 48.65 -106.35 54.55 -111.7 55.9 -114.5 55.9 -116.8 55.9 -117.85 54.95 -118.55 54.35 -119.2 52.6 -120.65 48.95 -117.7 44.0 -114.6 38.85 -109.4 37.2 -90.15 31.2 -74.6 13.55 -62.05 -0.6 -52.9 -21.05 -50.05 -27.4 -46.65 -30.65" fill="url(#gradient14)" fill-rule="evenodd" stroke="none"/>
  </g>
  <defs>
    <linearGradient gradientTransform="matrix(0.0, -0.2441, 0.2442, 0.0, -0.1, 0.05)" gradientUnits="userSpaceOnUse" id="gradient0" spreadMethod="pad" x1="-819.2" x2="819.2">
      <stop offset="0.0" stop-color="#ffffff"/>
      <stop offset="0.14901960784313725" stop-color="#d9dada"/>
      <stop offset="0.3058823529411765" stop-color="#b0b1b1"/>
      <stop offset="0.4666666666666667" stop-color="#8b8b8b"/>
      <stop offset="0.615686274509804" stop-color="#6c6b6b"/>
      <stop offset="0.7607843137254902" stop-color="#535151"/>
      <stop offset="0.8901960784313725" stop-color="#454140"/>
      <stop offset="1.0" stop-color="#3e3a39"/>
    </linearGradient>
    <linearGradient gradientTransform="matrix(0.0, -0.2441, 0.2442, 0.0, 65.15, -0.35)" gradientUnits="userSpaceOnUse" id="gradient1" spreadMethod="pad" x1="-819.2" x2="819.2">
      <stop offset="0.0" stop-color="#ffffff"/>
      <stop offset="0.0784313725490196" stop-color="#eeeeee"/>
      <stop offset="0.2549019607843137" stop-color="#c6c6c7"/>
      <stop offset="0.42745098039215684" stop-color="#a2a2a3"/>
      <stop offset="0.592156862745098" stop-color="#838283"/>
      <stop offset="0.7450980392156863" stop-color="#6c6b6b"/>
      <stop offset="0.8862745098039215" stop-color="#5d5c5c"/>
      <stop offset="1.0" stop-color="#585656"/>
    </linearGradient>
    <linearGradient gradientTransform="matrix(0.0, -0.2441, 0.2442, 0.0, 28.8, -0.35)" gradientUnits="userSpaceOnUse" id="gradient2" spreadMethod="pad" x1="-819.2" x2="819.2">
      <stop offset="0.0" stop-color="#ffffff"/>
      <stop offset="0.0784313725490196" stop-color="#eeeeee"/>
      <stop offset="0.2549019607843137" stop-color="#c6c6c7"/>
      <stop offset="0.42745098039215684" stop-color="#a2a2a3"/>
      <stop offset="0.592156862745098" stop-color="#838283"/>
      <stop offset="0.7450980392156863" stop-color="#6c6b6b"/>
      <stop offset="0.8862745098039215" stop-color="#5d5c5c"/>
      <stop offset="1.0" stop-color="#585656"/>
    </linearGradient>
    <linearGradient gradientTransform="matrix(0.0, -0.2197, 0.2197, 0.0, 144.45, 0.05)" gradientUnits="userSpaceOnUse" id="gradient3" spreadMethod="pad" x1="-819.2" x2="819.2">
      <stop offset="0.0" stop-color="#ffffff"/>
      <stop offset="0.08627450980392157" stop-color="#ececec"/>
      <stop offset="0.25882352941176473" stop-color="#c4c5c5"/>
      <stop offset="0.42745098039215684" stop-color="#a0a0a1"/>
      <stop offset="0.592156862745098" stop-color="#828182"/>
      <stop offset="0.7450980392156863" stop-color="#6b6a6a"/>
      <stop offset="0.8862745098039215" stop-color="#5c5b5a"/>
      <stop offset="1.0" stop-color="#575555"/>
    </linearGradient>
    <linearGradient gradientTransform="matrix(0.0, -0.2197, 0.2197, 0.0, 156.55, -0.35)" gradientUnits="userSpaceOnUse" id="gradient4" spreadMethod="pad" x1="-819.2" x2="819.2">
      <stop offset="0.0" stop-color="#ffffff"/>
      <stop offset="0.0784313725490196" stop-color="#eeeeee"/>
      <stop offset="0.2549019607843137" stop-color="#c6c6c7"/>
      <stop offset="0.42745098039215684" stop-color="#a2a2a3"/>
      <stop offset="0.592156862745098" stop-color="#838283"/>
      <stop offset="0.7450980392156863" stop-color="#6c6b6b"/>
      <stop offset="0.8862745098039215" stop-color="#5d5c5c"/>
      <stop offset="1.0" stop-color="#585656"/>
    </linearGradient>
    <linearGradient gradientTransform="matrix(0.0, -0.2441, 0.2442, 0.0, 221.85, -0.15)" gradientUnits="userSpaceOnUse" id="gradient5" spreadMethod="pad" x1="-819.2" x2="819.2">
      <stop offset="0.0" stop-color="#ffffff"/>
      <stop offset="0.08627450980392157" stop-color="#ececec"/>
      <stop offset="0.25882352941176473" stop-color="#c4c5c5"/>
      <stop offset="0.42745098039215684" stop-color="#a0a0a1"/>
      <stop offset="0.592156862745098" stop-color="#828182"/>
      <stop offset="0.7450980392156863" stop-color="#6b6a6a"/>
      <stop offset="0.8862745098039215" stop-color="#5c5b5a"/>
      <stop offset="1.0" stop-color="#575555"/>
    </linearGradient>
    <linearGradient gradientTransform="matrix(0.0, -0.2197, 0.2197, 0.0, 185.1, -0.15)" gradientUnits="userSpaceOnUse" id="gradient6" spreadMethod="pad" x1="-819.2" x2="819.2">
      <stop offset="0.0" stop-color="#ffffff"/>
      <stop offset="0.08627450980392157" stop-color="#ececec"/>
      <stop offset="0.25882352941176473" stop-color="#c4c5c5"/>
      <stop offset="0.42745098039215684" stop-color="#a0a0a1"/>
      <stop offset="0.592156862745098" stop-color="#828182"/>
      <stop offset="0.7450980392156863" stop-color="#6b6a6a"/>
      <stop offset="0.8862745098039215" stop-color="#5c5b5a"/>
      <stop offset="1.0" stop-color="#575555"/>
    </linearGradient>
    <linearGradient gradientTransform="matrix(0.0, -0.2197, 0.2197, 0.0, 258.55, 0.45)" gradientUnits="userSpaceOnUse" id="gradient7" spreadMethod="pad" x1="-819.2" x2="819.2">
      <stop offset="0.0" stop-color="#ffffff"/>
      <stop offset="0.08627450980392157" stop-color="#ececec"/>
      <stop offset="0.25882352941176473" stop-color="#c4c5c5"/>
      <stop offset="0.42745098039215684" stop-color="#a0a0a1"/>
      <stop offset="0.592156862745098" stop-color="#828182"/>
      <stop offset="0.7450980392156863" stop-color="#6b6a6a"/>
      <stop offset="0.8862745098039215" stop-color="#5c5b5a"/>
      <stop offset="1.0" stop-color="#575555"/>
    </linearGradient>
    <linearGradient gradientTransform="matrix(0.0, -0.2197, 0.2197, 0.0, -159.1, -0.15)" gradientUnits="userSpaceOnUse" id="gradient8" spreadMethod="pad" x1="-819.2" x2="819.2">
      <stop offset="0.0" stop-color="#ffffff"/>
      <stop offset="0.08627450980392157" stop-color="#ececec"/>
      <stop offset="0.25882352941176473" stop-color="#c4c5c5"/>
      <stop offset="0.42745098039215684" stop-color="#a0a0a1"/>
      <stop offset="0.592156862745098" stop-color="#828182"/>
      <stop offset="0.7450980392156863" stop-color="#6b6a6a"/>
      <stop offset="0.8862745098039215" stop-color="#5c5b5a"/>
      <stop offset="1.0" stop-color="#575555"/>
    </linearGradient>
    <linearGradient gradientTransform="matrix(0.0, -0.2197, 0.2197, 0.0, -238.4, -1.15)" gradientUnits="userSpaceOnUse" id="gradient9" spreadMethod="pad" x1="-819.2" x2="819.2">
      <stop offset="0.0" stop-color="#ffffff"/>
      <stop offset="0.08627450980392157" stop-color="#ececec"/>
      <stop offset="0.25882352941176473" stop-color="#c4c5c5"/>
      <stop offset="0.42745098039215684" stop-color="#a0a0a1"/>
      <stop offset="0.592156862745098" stop-color="#828182"/>
      <stop offset="0.7450980392156863" stop-color="#6b6a6a"/>
      <stop offset="0.8862745098039215" stop-color="#5c5b5a"/>
      <stop offset="1.0" stop-color="#575555"/>
    </linearGradient>
    <linearGradient gradientTransform="matrix(0.0, -0.2197, 0.2197, 0.0, -266.55, -0.75)" gradientUnits="userSpaceOnUse" id="gradient10" spreadMethod="pad" x1="-819.2" x2="819.2">
      <stop offset="0.0" stop-color="#ffffff"/>
      <stop offset="0.08627450980392157" stop-color="#ececec"/>
      <stop offset="0.25882352941176473" stop-color="#c4c5c5"/>
      <stop offset="0.42745098039215684" stop-color="#a0a0a1"/>
      <stop offset="0.592156862745098" stop-color="#828182"/>
      <stop offset="0.7450980392156863" stop-color="#6b6a6a"/>
      <stop offset="0.8862745098039215" stop-color="#5c5b5a"/>
      <stop offset="1.0" stop-color="#575555"/>
    </linearGradient>
    <linearGradient gradientTransform="matrix(0.0, -0.2197, 0.2197, 0.0, -284.15, -0.15)" gradientUnits="userSpaceOnUse" id="gradient11" spreadMethod="pad" x1="-819.2" x2="819.2">
      <stop offset="0.0" stop-color="#ffffff"/>
      <stop offset="0.08627450980392157" stop-color="#ececec"/>
      <stop offset="0.25882352941176473" stop-color="#c4c5c5"/>
      <stop offset="0.42745098039215684" stop-color="#a0a0a1"/>
      <stop offset="0.592156862745098" stop-color="#828182"/>
      <stop offset="0.7450980392156863" stop-color="#6b6a6a"/>
      <stop offset="0.8862745098039215" stop-color="#5c5b5a"/>
      <stop offset="1.0" stop-color="#575555"/>
    </linearGradient>
    <linearGradient gradientTransform="matrix(0.0, -0.2197, 0.2197, 0.0, -86.05, -0.65)" gradientUnits="userSpaceOnUse" id="gradient12" spreadMethod="pad" x1="-819.2" x2="819.2">
      <stop offset="0.0" stop-color="#ffffff"/>
      <stop offset="0.0784313725490196" stop-color="#eeeeee"/>
      <stop offset="0.2549019607843137" stop-color="#c6c6c7"/>
      <stop offset="0.42745098039215684" stop-color="#a2a2a3"/>
      <stop offset="0.592156862745098" stop-color="#838283"/>
      <stop offset="0.7450980392156863" stop-color="#6c6b6b"/>
      <stop offset="0.8862745098039215" stop-color="#5d5c5c"/>
      <stop offset="1.0" stop-color="#585656"/>
    </linearGradient>
    <linearGradient gradientTransform="matrix(0.0, -0.2441, 0.2442, 0.0, -32.1, -0.35)" gradientUnits="userSpaceOnUse" id="gradient13" spreadMethod="pad" x1="-819.2" x2="819.2">
      <stop offset="0.0" stop-color="#ffffff"/>
      <stop offset="0.0784313725490196" stop-color="#eeeeee"/>
      <stop offset="0.2549019607843137" stop-color="#c6c6c7"/>
      <stop offset="0.42745098039215684" stop-color="#a2a2a3"/>
      <stop offset="0.592156862745098" stop-color="#838283"/>
      <stop offset="0.7450980392156863" stop-color="#6c6b6b"/>
      <stop offset="0.8862745098039215" stop-color="#5d5c5c"/>
      <stop offset="1.0" stop-color="#585656"/>
    </linearGradient>
    <linearGradient gradientTransform="matrix(0.0, -0.2441, 0.2442, 0.0, -76.65, -0.35)" gradientUnits="userSpaceOnUse" id="gradient14" spreadMethod="pad" x1="-819.2" x2="819.2">
      <stop offset="0.0" stop-color="#ffffff"/>
      <stop offset="0.0784313725490196" stop-color="#eeeeee"/>
      <stop offset="0.2549019607843137" stop-color="#c6c6c7"/>
      <stop offset="0.42745098039215684" stop-color="#a2a2a3"/>
      <stop offset="0.592156862745098" stop-color="#838283"/>
      <stop offset="0.7450980392156863" stop-color="#6c6b6b"/>
      <stop offset="0.8862745098039215" stop-color="#5d5c5c"/>
      <stop offset="1.0" stop-color="#585656"/>
    </linearGradient>
  </defs>
</svg>
