<?xml version="1.0" encoding="UTF-8" standalone="no"?>
<svg xmlns:ffdec="https://www.free-decompiler.com/flash" xmlns:xlink="http://www.w3.org/1999/xlink" ffdec:objectType="shape" height="174.9px" width="183.9px" xmlns="http://www.w3.org/2000/svg">
  <g transform="matrix(1.0, 0.0, 0.0, 1.0, 92.45, 87.5)">
    <path d="M15.45 -70.6 L19.5 -87.5 63.45 -63.5 54.5 -54.8 35.8 -36.65 32.55 -39.1 Q22.0 -46.45 10.25 -48.95 L15.45 -70.6 M74.55 -24.15 L85.45 -27.55 91.45 32.45 73.9 26.2 48.85 17.3 Q54.85 5.8 53.0 -8.1 52.45 -12.65 50.9 -16.8 L74.55 -24.15 M43.2 54.95 L56.45 71.45 16.5 86.4 13.75 73.0 7.5 42.7 Q13.1 42.25 18.2 41.0 24.05 39.6 28.9 37.2 L43.2 54.95 M-26.65 70.7 L-32.6 87.4 -67.5 58.45 -57.2 49.25 -36.1 30.45 -35.75 30.75 Q-28.6 36.9 -20.3 39.75 L-16.1 41.0 -26.65 70.7 M-74.15 22.45 L-85.65 26.05 -92.45 -21.55 -81.0 -18.9 -54.1 -12.7 Q-55.1 -5.8 -53.2 2.0 -51.4 8.85 -48.6 14.4 L-74.15 22.45 M-55.35 -54.45 L-66.5 -65.6 -24.5 -81.5 -15.35 -50.05 -15.05 -48.95 Q-28.0 -46.15 -38.35 -37.45 L-55.35 -54.45" fill="#fccd45" fill-rule="evenodd" stroke="none"/>
    <path d="M10.25 -48.95 Q22.0 -46.45 32.55 -39.1 L35.8 -36.65 Q46.8 -28.0 50.9 -16.8 52.45 -12.65 53.0 -8.1 54.85 5.8 48.85 17.3 45.0 24.65 38.0 31.05 34.0 34.65 28.9 37.2 24.05 39.6 18.2 41.0 13.1 42.25 7.5 42.7 2.25 43.05 -3.4 42.75 -10.4 42.4 -16.1 41.0 L-20.3 39.75 Q-28.6 36.9 -35.75 30.75 L-36.1 30.45 Q-42.8 24.6 -47.05 17.3 L-48.6 14.4 Q-51.4 8.85 -53.2 2.0 -55.1 -5.8 -54.1 -12.7 -52.9 -21.3 -47.15 -28.45 -43.0 -33.55 -38.35 -37.45 -28.0 -46.15 -15.05 -48.95 L-7.1 -50.1 Q1.85 -50.75 10.25 -48.95 M22.95 -38.25 Q8.8 -46.75 -7.75 -44.3 -27.25 -41.4 -40.1 -25.55 -48.8 -14.9 -45.2 -1.8 -42.15 9.9 -30.55 17.55 -24.85 21.25 -17.8 22.9 -11.65 24.35 -3.75 24.4 6.1 24.5 14.65 21.85 24.15 18.9 30.95 12.85 37.5 7.0 39.5 -0.7 41.1 -6.95 39.8 -15.25 38.7 -21.85 34.3 -27.95 29.8 -34.1 22.95 -38.25 M5.45 -35.35 Q9.2 -34.45 11.65 -33.0 14.9 -31.1 15.65 -28.5 L15.85 -28.5 Q18.35 -28.5 20.85 -26.45 22.3 -25.3 24.2 -22.85 L25.1 -21.7 26.4 -19.55 Q27.45 -17.35 26.8 -15.4 L28.05 -14.4 28.75 -13.5 29.15 -12.8 Q30.05 -11.0 30.05 -8.7 30.05 -6.75 29.5 -5.4 L28.75 -3.85 27.9 -2.85 27.5 -2.5 27.55 -2.25 Q27.7 -1.15 27.2 0.0 26.65 1.25 25.5 2.7 L24.3 4.1 22.85 5.4 Q21.45 6.35 19.75 6.7 L16.75 6.95 3.95 6.95 -0.2 6.85 -1.8 6.6 -2.85 5.95 -3.95 6.6 -5.5 6.85 -9.7 6.95 -22.45 6.95 -25.45 6.7 Q-27.1 6.35 -28.55 5.4 L-30.0 4.1 -31.25 2.7 Q-32.45 1.2 -32.9 0.0 -33.4 -1.15 -33.25 -2.25 L-33.2 -2.5 -33.65 -2.85 Q-34.65 -3.95 -35.25 -5.4 L-35.6 -6.75 -35.75 -8.7 -35.6 -10.45 -34.85 -12.8 -33.75 -14.4 Q-33.25 -15.0 -32.5 -15.4 -33.2 -17.3 -32.15 -19.55 L-30.8 -21.7 -29.95 -22.85 -26.6 -26.45 Q-24.0 -28.5 -21.6 -28.5 L-21.35 -28.5 Q-20.6 -31.15 -17.4 -33.0 -14.85 -34.45 -11.15 -35.35 L-8.55 -35.7 Q-6.8 -35.7 -5.3 -35.0 -3.85 -34.35 -2.85 -32.95 -1.85 -34.35 -0.45 -35.0 1.1 -35.7 2.85 -35.7 L5.45 -35.35 M11.65 -27.75 Q11.25 -29.45 8.45 -30.8 6.7 -31.65 4.2 -32.3 L1.6 -32.45 Q0.15 -32.15 -0.5 -31.05 -1.5 -29.55 -1.7 -24.5 L-2.0 -21.5 Q-2.25 -20.2 -2.85 -20.2 -3.45 -20.2 -3.75 -21.5 L-4.0 -24.5 Q-4.3 -29.55 -5.2 -31.05 -5.95 -32.15 -7.35 -32.45 L-9.9 -32.3 -14.2 -30.8 Q-16.95 -29.45 -17.35 -27.75 -17.5 -26.95 -16.75 -26.05 L-15.35 -24.75 Q-14.65 -24.0 -14.95 -23.05 -15.25 -22.0 -16.4 -22.3 -17.1 -22.45 -17.85 -23.65 L-19.15 -25.35 Q-20.65 -26.45 -23.0 -24.65 L-26.0 -21.45 -27.6 -19.15 Q-28.35 -17.4 -27.45 -16.6 -26.8 -15.95 -25.5 -15.65 L-23.4 -15.2 Q-22.55 -15.0 -22.15 -14.35 -21.75 -13.6 -22.6 -12.9 L-25.2 -13.0 -27.8 -14.1 Q-29.1 -14.3 -30.0 -13.0 -30.75 -11.7 -30.75 -9.9 -30.75 -7.95 -29.85 -6.85 -28.85 -5.55 -27.05 -6.0 L-25.2 -6.35 Q-24.2 -6.3 -24.25 -5.05 -24.25 -4.05 -25.8 -4.05 L-27.05 -4.1 -28.05 -4.05 Q-29.1 -3.75 -27.5 -1.55 -26.15 0.25 -25.25 0.85 -24.2 1.6 -22.4 1.75 L-11.15 1.85 -5.05 1.7 Q-4.5 1.45 -4.35 0.45 L-4.1 -1.75 Q-3.9 -4.8 -2.85 -4.8 -2.15 -4.8 -1.95 -3.85 L-1.6 -1.75 -1.4 0.45 Q-1.15 1.5 -0.7 1.7 L5.4 1.85 16.7 1.75 Q18.45 1.6 19.55 0.85 20.45 0.2 21.75 -1.55 23.35 -3.75 22.35 -4.05 L21.35 -4.1 20.1 -4.05 Q18.6 -4.05 18.5 -5.05 18.45 -6.25 19.5 -6.35 L21.35 -6.0 Q23.1 -5.55 24.15 -6.85 25.0 -7.95 25.05 -9.9 25.05 -11.75 24.25 -13.0 23.45 -14.35 22.05 -14.1 L19.45 -13.0 16.9 -12.9 Q16.0 -13.55 16.4 -14.35 L17.7 -15.2 18.25 -15.35 19.8 -15.65 Q21.0 -15.95 21.75 -16.6 22.65 -17.45 21.85 -19.15 L20.3 -21.45 17.3 -24.65 Q14.95 -26.45 13.4 -25.35 L12.15 -23.65 Q11.35 -22.45 10.65 -22.3 9.55 -22.0 9.2 -23.05 8.9 -24.0 9.6 -24.75 L11.0 -26.05 Q11.8 -26.9 11.65 -27.75" fill="#bc7830" fill-rule="evenodd" stroke="none"/>
    <path d="M22.95 -38.25 Q29.8 -34.1 34.3 -27.95 38.7 -21.85 39.8 -15.25 41.1 -6.95 39.5 -0.7 37.5 7.0 30.95 12.85 24.15 18.9 14.65 21.85 6.1 24.5 -3.75 24.4 -11.65 24.35 -17.8 22.9 -24.85 21.25 -30.55 17.55 -42.15 9.9 -45.2 -1.8 -48.8 -14.9 -40.1 -25.55 -27.25 -41.4 -7.75 -44.3 8.8 -46.75 22.95 -38.25 M5.45 -35.35 L2.85 -35.7 Q1.1 -35.7 -0.45 -35.0 -1.85 -34.35 -2.85 -32.95 -3.85 -34.35 -5.3 -35.0 -6.8 -35.7 -8.55 -35.7 L-11.15 -35.35 Q-14.85 -34.45 -17.4 -33.0 -20.6 -31.15 -21.35 -28.5 L-21.6 -28.5 Q-24.0 -28.5 -26.6 -26.45 L-29.95 -22.85 -30.8 -21.7 -32.15 -19.55 Q-33.2 -17.3 -32.5 -15.4 -33.25 -15.0 -33.75 -14.4 L-34.85 -12.8 -35.6 -10.45 -35.75 -8.7 -35.6 -6.75 -35.25 -5.4 Q-34.65 -3.95 -33.65 -2.85 L-33.2 -2.5 -33.25 -2.25 Q-33.4 -1.15 -32.9 0.0 -32.45 1.2 -31.25 2.7 L-30.0 4.1 -28.55 5.4 Q-27.1 6.35 -25.45 6.7 L-22.45 6.95 -9.7 6.95 -5.5 6.85 -3.95 6.6 -2.85 5.95 -1.8 6.6 -0.2 6.85 3.95 6.95 16.75 6.95 19.75 6.7 Q21.45 6.35 22.85 5.4 L24.3 4.1 25.5 2.7 Q26.65 1.25 27.2 0.0 27.7 -1.15 27.55 -2.25 L27.5 -2.5 27.9 -2.85 28.75 -3.85 29.5 -5.4 Q30.05 -6.75 30.05 -8.7 30.05 -11.0 29.15 -12.8 L28.75 -13.5 28.05 -14.4 26.8 -15.4 Q27.45 -17.35 26.4 -19.55 L25.1 -21.7 24.2 -22.85 Q22.3 -25.3 20.85 -26.45 18.35 -28.5 15.85 -28.5 L15.65 -28.5 Q14.9 -31.1 11.65 -33.0 9.2 -34.45 5.45 -35.35" fill="#f0b851" fill-rule="evenodd" stroke="none"/>
    <path d="M11.65 -27.75 Q11.8 -26.9 11.0 -26.05 L9.6 -24.75 Q8.9 -24.0 9.2 -23.05 9.55 -22.0 10.65 -22.3 11.35 -22.45 12.15 -23.65 L13.4 -25.35 Q14.95 -26.45 17.3 -24.65 L20.3 -21.45 21.85 -19.15 Q22.65 -17.45 21.75 -16.6 21.0 -15.95 19.8 -15.65 L18.25 -15.35 17.7 -15.2 16.4 -14.35 Q16.0 -13.55 16.9 -12.9 L19.45 -13.0 22.05 -14.1 Q23.45 -14.35 24.25 -13.0 25.05 -11.75 25.05 -9.9 25.0 -7.95 24.15 -6.85 23.1 -5.55 21.35 -6.0 L19.5 -6.35 Q18.45 -6.25 18.5 -5.05 18.6 -4.05 20.1 -4.05 L21.35 -4.1 22.35 -4.05 Q23.35 -3.75 21.75 -1.55 20.45 0.2 19.55 0.85 18.45 1.6 16.7 1.75 L5.4 1.85 -0.7 1.7 Q-1.15 1.5 -1.4 0.45 L-1.6 -1.75 -1.95 -3.85 Q-2.15 -4.8 -2.85 -4.8 -3.9 -4.8 -4.1 -1.75 L-4.35 0.45 Q-4.5 1.45 -5.05 1.7 L-11.15 1.85 -22.4 1.75 Q-24.2 1.6 -25.25 0.85 -26.15 0.25 -27.5 -1.55 -29.1 -3.75 -28.05 -4.05 L-27.05 -4.1 -25.8 -4.05 Q-24.25 -4.05 -24.25 -5.05 -24.2 -6.3 -25.2 -6.35 L-27.05 -6.0 Q-28.85 -5.55 -29.85 -6.85 -30.75 -7.95 -30.75 -9.9 -30.75 -11.7 -30.0 -13.0 -29.1 -14.3 -27.8 -14.1 L-25.2 -13.0 -22.6 -12.9 Q-21.75 -13.6 -22.15 -14.35 -22.55 -15.0 -23.4 -15.2 L-25.5 -15.65 Q-26.8 -15.95 -27.45 -16.6 -28.35 -17.4 -27.6 -19.15 L-26.0 -21.45 -23.0 -24.65 Q-20.65 -26.45 -19.15 -25.35 L-17.85 -23.65 Q-17.1 -22.45 -16.4 -22.3 -15.25 -22.0 -14.95 -23.05 -14.65 -24.0 -15.35 -24.75 L-16.75 -26.05 Q-17.5 -26.95 -17.35 -27.75 -16.95 -29.45 -14.2 -30.8 L-9.9 -32.3 -7.35 -32.45 Q-5.95 -32.15 -5.2 -31.05 -4.3 -29.55 -4.0 -24.5 L-3.75 -21.5 Q-3.45 -20.2 -2.85 -20.2 -2.25 -20.2 -2.0 -21.5 L-1.7 -24.5 Q-1.5 -29.55 -0.5 -31.05 0.15 -32.15 1.6 -32.45 L4.2 -32.3 Q6.7 -31.65 8.45 -30.8 11.25 -29.45 11.65 -27.75" fill="#f6e171" fill-rule="evenodd" stroke="none"/>
    <path d="M15.45 -70.6 L10.25 -48.95 Q1.85 -50.75 -7.1 -50.1 L-15.05 -48.95 -15.35 -50.05 -19.5 -65.5 15.45 -70.6 M35.8 -36.65 L54.5 -54.8 74.55 -24.15 50.9 -16.8 Q46.8 -28.0 35.8 -36.65 M73.9 26.2 L43.2 54.95 28.9 37.2 Q34.0 34.65 38.0 31.05 45.0 24.65 48.85 17.3 L73.9 26.2 M13.75 73.0 L14.9 79.35 -26.65 70.7 -16.1 41.0 Q-10.4 42.4 -3.4 42.75 2.25 43.05 7.5 42.7 L13.75 73.0 M-57.2 49.25 L-74.15 22.45 -48.6 14.4 -47.05 17.3 Q-42.8 24.6 -36.1 30.45 L-57.2 49.25 M-81.0 -18.9 L-55.35 -54.45 -38.35 -37.45 Q-43.0 -33.55 -47.15 -28.45 -52.9 -21.3 -54.1 -12.7 L-81.0 -18.9" fill="#f6a800" fill-rule="evenodd" stroke="none"/>
  </g>
</svg>
