<?xml version="1.0" encoding="UTF-8" standalone="no"?>
<svg xmlns:ffdec="https://www.free-decompiler.com/flash" xmlns:xlink="http://www.w3.org/1999/xlink" ffdec:objectType="shape" height="326.05px" width="305.05px" xmlns="http://www.w3.org/2000/svg">
  <g transform="matrix(1.0, 0.0, 0.0, 1.0, 162.0, 162.55)">
    <path d="M124.55 -151.0 L124.95 -151.0 Q132.3 -150.85 137.55 -145.6 142.95 -140.2 142.95 -132.6 142.95 -124.95 137.55 -119.55 132.3 -114.3 124.95 -114.15 L124.55 -114.15 -107.7 -114.15 Q-111.0 -109.85 -115.8 -106.95 -122.95 -102.55 -131.4 -102.55 -143.8 -102.55 -152.6 -111.35 -161.4 -120.15 -161.4 -132.55 -161.4 -145.0 -152.6 -153.8 -143.8 -162.55 -131.4 -162.55 -122.95 -162.55 -115.8 -158.2 -111.0 -155.3 -107.7 -151.0 L124.55 -151.0 M-132.85 -150.25 L-133.3 -147.0 -136.95 -146.0 -138.95 -148.6 -141.55 -147.15 -140.25 -144.1 -142.95 -141.4 -146.0 -142.65 -147.5 -140.1 -144.85 -138.1 -145.85 -134.4 -149.1 -134.0 -149.05 -131.0 -145.85 -130.6 -144.85 -126.9 -147.4 -124.95 -145.9 -122.35 -142.95 -123.6 -140.25 -120.9 -141.45 -117.95 -138.85 -116.45 -136.95 -119.0 -133.25 -118.0 -132.85 -114.9 Q-131.55 -114.75 -129.85 -114.9 L-129.45 -118.0 -125.75 -119.0 -123.85 -116.5 -121.25 -118.0 -122.45 -120.9 -119.75 -123.6 -116.85 -122.4 -115.35 -125.0 -117.85 -126.95 -116.85 -130.6 -113.7 -131.05 Q-113.55 -132.55 -113.7 -134.05 L-116.85 -134.45 -117.85 -138.1 -115.3 -140.05 -116.8 -142.65 -119.75 -141.4 -122.45 -144.1 -121.2 -147.1 -123.8 -148.6 -125.8 -146.0 -129.45 -147.0 -129.9 -150.25 -132.85 -150.25 M-135.7 -132.55 Q-135.7 -134.35 -134.45 -135.6 -133.15 -136.85 -131.4 -136.85 -129.6 -136.85 -128.35 -135.6 -127.1 -134.35 -127.1 -132.55 -127.1 -130.8 -128.35 -129.55 -129.6 -128.3 -131.4 -128.3 -133.15 -128.3 -134.45 -129.55 -135.7 -130.8 -135.7 -132.55" fill="#f5807d" fill-rule="evenodd" stroke="none"/>
    <path d="M124.55 -63.65 Q132.15 -63.65 137.55 -58.25 142.95 -52.85 142.95 -45.25 142.95 -37.6 137.55 -32.2 132.15 -26.8 124.55 -26.8 L-108.0 -26.8 Q-111.3 -22.65 -116.05 -19.8 -123.1 -15.55 -131.4 -15.55 -143.85 -15.55 -152.6 -24.35 -161.4 -33.15 -161.4 -45.55 -161.4 -58.0 -152.6 -66.8 -143.85 -75.55 -131.4 -75.55 -122.8 -75.55 -115.55 -71.05 -110.75 -68.05 -107.45 -63.65 L124.55 -63.65 M-133.3 -50.5 Q-132.7 -51.05 -131.85 -51.05 -131.0 -51.05 -130.45 -50.5 -129.85 -49.95 -129.85 -49.2 -129.85 -48.5 -130.45 -47.7 -131.0 -46.85 -133.05 -45.4 -136.4 -42.9 -137.6 -41.1 -138.85 -39.25 -139.05 -37.2 L-125.1 -37.2 -125.1 -41.0 -132.4 -41.0 -131.25 -42.0 Q-130.3 -42.65 -129.4 -43.35 -127.0 -45.0 -126.1 -46.4 -125.25 -47.85 -125.25 -49.35 -125.25 -50.8 -126.0 -51.95 -126.8 -53.1 -128.15 -53.65 L-132.0 -54.2 -135.65 -53.65 Q-137.05 -53.0 -137.7 -51.95 -138.45 -50.9 -138.75 -48.9 L-134.05 -48.5 Q-133.85 -49.95 -133.3 -50.5 M-147.65 -54.2 Q-148.4 -52.65 -149.7 -51.55 -151.05 -50.5 -153.4 -49.75 L-153.4 -45.9 Q-151.8 -46.4 -150.7 -46.95 -149.55 -47.55 -148.5 -48.35 L-148.5 -37.2 -143.8 -37.2 -143.8 -54.2 -147.65 -54.2 M-110.3 -49.95 Q-110.3 -51.8 -111.75 -53.0 -113.2 -54.2 -116.5 -54.2 -118.55 -54.2 -119.9 -53.65 L-120.9 -53.1 Q-122.45 -52.0 -123.0 -49.9 L-118.6 -49.1 Q-118.4 -50.35 -117.9 -50.85 -117.35 -51.35 -116.6 -51.35 -115.8 -51.35 -115.3 -50.9 -114.85 -50.4 -114.85 -49.65 -114.85 -48.85 -115.5 -48.25 -116.1 -47.7 -117.0 -47.7 L-117.6 -47.75 -117.85 -44.4 -116.35 -44.7 Q-115.3 -44.7 -114.7 -44.05 -114.1 -43.4 -114.1 -42.25 -114.1 -41.1 -114.75 -40.4 -115.35 -39.75 -116.3 -39.75 -117.2 -39.75 -117.75 -40.3 -118.35 -40.85 -118.6 -42.25 L-123.25 -41.6 Q-122.85 -40.15 -121.95 -39.0 -121.2 -38.05 -119.9 -37.5 L-119.8 -37.45 Q-118.45 -36.9 -116.2 -36.9 -113.8 -36.9 -112.4 -37.65 -111.0 -38.35 -110.2 -39.7 -109.45 -41.05 -109.45 -42.5 -109.45 -43.65 -109.9 -44.5 -110.3 -45.3 -111.2 -45.85 -111.8 -46.2 -112.65 -46.4 -111.45 -47.1 -110.9 -47.95 -110.3 -48.8 -110.3 -49.95" fill="#ffe86e" fill-rule="evenodd" stroke="none"/>
    <path d="M-115.6 20.5 Q-110.4 23.9 -107.05 28.9 L124.65 28.9 Q132.25 28.9 137.65 34.3 143.05 39.7 143.05 47.3 143.05 54.95 137.65 60.35 132.25 65.75 124.65 65.75 L-109.5 65.75 Q-112.7 69.3 -116.95 71.75 -123.9 75.7 -131.9 75.7 -144.3 75.7 -153.1 66.9 -161.9 58.1 -161.9 45.7 -161.9 33.25 -153.1 24.5 -144.3 15.7 -131.9 15.7 -123.0 15.7 -115.6 20.5 M-119.2 33.35 L-121.05 33.6 -118.1 57.25 -138.65 59.8 -141.4 57.65 -120.85 55.1 -124.05 29.6 -147.7 32.55 -144.55 58.05 -139.75 61.8 -116.05 58.85 -119.2 33.35" fill="#6edb87" fill-rule="evenodd" stroke="none"/>
    <path d="M-115.7 108.3 Q-110.5 111.7 -107.15 116.7 L124.55 116.7 Q132.15 116.7 137.55 122.1 142.95 127.5 142.95 135.1 142.95 142.75 137.55 148.15 132.15 153.55 124.55 153.55 L-109.6 153.55 Q-112.8 157.1 -117.05 159.55 -124.0 163.5 -132.0 163.5 -144.4 163.5 -153.2 154.7 -162.0 145.9 -162.0 133.5 -162.0 121.05 -153.2 112.3 -144.4 103.5 -132.0 103.5 -123.1 103.5 -115.7 108.3 M-112.2 135.45 L-111.0 133.5 Q-112.55 130.35 -115.95 127.25 -122.7 121.0 -131.8 121.0 -140.9 121.0 -147.7 127.25 -151.05 130.35 -152.65 133.5 L-151.45 135.45 Q-149.8 137.8 -147.7 139.75 -140.9 146.0 -131.8 146.0 -122.7 146.0 -115.95 139.75 -113.8 137.8 -112.2 135.45 M-127.05 126.65 Q-124.2 128.65 -123.6 132.05 -123.0 135.45 -125.0 138.25 -126.95 141.1 -130.35 141.7 -133.75 142.3 -136.6 140.3 -139.4 138.35 -140.0 134.95 -140.6 131.55 -138.65 128.7 -136.65 125.9 -133.25 125.3 -129.85 124.7 -127.05 126.65" fill="#82b6e2" fill-rule="evenodd" stroke="none"/>
    <path d="M-135.7 -132.55 Q-135.7 -130.8 -134.45 -129.55 -133.15 -128.3 -131.4 -128.3 -129.6 -128.3 -128.35 -129.55 -127.1 -130.8 -127.1 -132.55 -127.1 -134.35 -128.35 -135.6 -129.6 -136.85 -131.4 -136.85 -133.15 -136.85 -134.45 -135.6 -135.7 -134.35 -135.7 -132.55 M-132.85 -150.25 L-129.9 -150.25 -129.45 -147.0 -125.8 -146.0 -123.8 -148.6 -121.2 -147.1 -122.45 -144.1 -119.75 -141.4 -116.8 -142.65 -115.3 -140.05 -117.85 -138.1 -116.85 -134.45 -113.7 -134.05 Q-113.55 -132.55 -113.7 -131.05 L-116.85 -130.6 -117.85 -126.95 -115.35 -125.0 -116.85 -122.4 -119.75 -123.6 -122.45 -120.9 -121.25 -118.0 -123.85 -116.5 -125.75 -119.0 -129.45 -118.0 -129.85 -114.9 Q-131.55 -114.75 -132.85 -114.9 L-133.25 -118.0 -136.95 -119.0 -138.85 -116.45 -141.45 -117.95 -140.25 -120.9 -142.95 -123.6 -145.9 -122.35 -147.4 -124.95 -144.85 -126.9 -145.85 -130.6 -149.05 -131.0 -149.1 -134.0 -145.85 -134.4 -144.85 -138.1 -147.5 -140.1 -146.0 -142.65 -142.95 -141.4 -140.25 -144.1 -141.55 -147.15 -138.95 -148.6 -136.95 -146.0 -133.3 -147.0 -132.85 -150.25 M-110.3 -49.95 Q-110.3 -48.8 -110.9 -47.95 -111.45 -47.1 -112.65 -46.4 -111.8 -46.2 -111.2 -45.85 -110.3 -45.3 -109.9 -44.5 -109.45 -43.65 -109.45 -42.5 -109.45 -41.05 -110.2 -39.7 -111.0 -38.35 -112.4 -37.65 -113.8 -36.9 -116.2 -36.9 -118.45 -36.9 -119.8 -37.45 L-119.9 -37.5 Q-121.2 -38.05 -121.95 -39.0 -122.85 -40.15 -123.25 -41.6 L-118.6 -42.25 Q-118.35 -40.85 -117.75 -40.3 -117.2 -39.75 -116.3 -39.75 -115.35 -39.75 -114.75 -40.4 -114.1 -41.1 -114.1 -42.25 -114.1 -43.4 -114.7 -44.05 -115.3 -44.7 -116.35 -44.7 L-117.85 -44.4 -117.6 -47.75 -117.0 -47.7 Q-116.1 -47.7 -115.5 -48.25 -114.85 -48.85 -114.85 -49.65 -114.85 -50.4 -115.3 -50.9 -115.8 -51.35 -116.6 -51.35 -117.35 -51.35 -117.9 -50.85 -118.4 -50.35 -118.6 -49.1 L-123.0 -49.9 Q-122.45 -52.0 -120.9 -53.1 L-119.9 -53.65 Q-118.55 -54.2 -116.5 -54.2 -113.2 -54.2 -111.75 -53.0 -110.3 -51.8 -110.3 -49.95 M-147.65 -54.2 L-143.8 -54.2 -143.8 -37.2 -148.5 -37.2 -148.5 -48.35 Q-149.55 -47.55 -150.7 -46.95 -151.8 -46.4 -153.4 -45.9 L-153.4 -49.75 Q-151.05 -50.5 -149.7 -51.55 -148.4 -52.65 -147.65 -54.2 M-133.3 -50.5 Q-133.85 -49.95 -134.05 -48.5 L-138.75 -48.9 Q-138.45 -50.9 -137.7 -51.95 -137.05 -53.0 -135.65 -53.65 L-132.0 -54.2 -128.15 -53.65 Q-126.8 -53.1 -126.0 -51.95 -125.25 -50.8 -125.25 -49.35 -125.25 -47.85 -126.1 -46.4 -127.0 -45.0 -129.4 -43.35 -130.3 -42.65 -131.25 -42.0 L-132.4 -41.0 -125.1 -41.0 -125.1 -37.2 -139.05 -37.2 Q-138.85 -39.25 -137.6 -41.1 -136.4 -42.9 -133.05 -45.4 -131.0 -46.85 -130.45 -47.7 -129.85 -48.5 -129.85 -49.2 -129.85 -49.95 -130.45 -50.5 -131.0 -51.05 -131.85 -51.05 -132.7 -51.05 -133.3 -50.5 M-119.2 33.35 L-116.05 58.85 -139.75 61.8 -144.55 58.05 -147.7 32.55 -124.05 29.6 -120.85 55.1 -141.4 57.65 -138.65 59.8 -118.1 57.25 -121.05 33.6 -119.2 33.35 M-127.05 126.65 Q-129.85 124.7 -133.25 125.3 -136.65 125.9 -138.65 128.7 -140.6 131.55 -140.0 134.95 -139.4 138.35 -136.6 140.3 -133.75 142.3 -130.35 141.7 -126.95 141.1 -125.0 138.25 -123.0 135.45 -123.6 132.05 -124.2 128.65 -127.05 126.65 M-112.2 135.45 Q-113.8 137.8 -115.95 139.75 -122.7 146.0 -131.8 146.0 -140.9 146.0 -147.7 139.75 -149.8 137.8 -151.45 135.45 L-152.65 133.5 Q-151.05 130.35 -147.7 127.25 -140.9 121.0 -131.8 121.0 -122.7 121.0 -115.95 127.25 -112.55 130.35 -111.0 133.5 L-112.2 135.45" fill="#ffffff" fill-rule="evenodd" stroke="none"/>
  </g>
</svg>
