<?xml version="1.0" encoding="UTF-8" standalone="no"?>
<svg xmlns:ffdec="https://www.free-decompiler.com/flash" xmlns:xlink="http://www.w3.org/1999/xlink" ffdec:objectType="shape" height="391.15px" width="342.55px" xmlns="http://www.w3.org/2000/svg">
  <g transform="matrix(1.0, 0.0, 0.0, 1.0, 171.25, 195.65)">
    <path d="M63.15 -194.85 Q110.1 -193.9 138.0 -192.7 167.6 -191.5 168.9 -190.2 171.15 -187.9 171.3 -106.5 171.4 -64.2 171.0 -6.35 L170.85 92.0 Q170.2 188.3 167.9 191.15 167.6 191.5 166.0 191.95 160.65 193.25 138.0 194.15 110.6 195.2 65.75 195.45 26.7 195.65 13.8 195.2 L-82.65 193.85 -168.9 191.15 Q-171.2 189.7 -171.25 101.05 -171.25 41.15 -170.6 -6.35 L-170.15 -104.15 Q-169.65 -184.85 -168.1 -188.8 -166.55 -192.6 -85.4 -194.45 -34.3 -195.65 10.35 -195.65 24.1 -195.65 63.15 -194.85 M10.25 -191.05 Q-33.05 -191.05 -82.85 -189.9 -161.75 -188.05 -163.25 -184.35 -164.75 -180.55 -165.3 -101.75 L-165.7 -6.25 Q-166.3 45.1 -166.3 98.6 -166.3 185.2 -164.1 186.65 L-80.25 189.3 13.6 190.6 Q26.45 191.05 66.45 190.85 111.95 190.55 138.0 189.4 161.8 188.25 163.1 186.65 165.35 183.8 165.95 97.9 L166.1 -6.25 Q166.5 -62.75 166.4 -104.05 166.3 -183.45 164.05 -185.7 162.95 -186.8 138.0 -188.05 111.9 -189.25 64.1 -190.25 24.7 -191.05 10.25 -191.05" fill="#ffffff" fill-rule="evenodd" stroke="none"/>
  </g>
</svg>
