<?xml version="1.0" encoding="UTF-8" standalone="no"?>
<svg xmlns:ffdec="https://www.free-decompiler.com/flash" xmlns:xlink="http://www.w3.org/1999/xlink" ffdec:objectType="shape" height="30.85px" width="33.7px" xmlns="http://www.w3.org/2000/svg">
  <g transform="matrix(1.0, 0.0, 0.0, 1.0, 16.75, 15.4)">
    <path d="M10.5 -15.0 Q15.35 -14.55 15.95 -13.8 17.4 -12.0 16.7 0.35 15.95 13.05 13.75 14.2 11.25 15.55 0.1 15.45 -10.95 15.4 -13.65 14.15 -15.95 13.1 -16.55 1.0 -17.15 -10.55 -15.8 -13.1 -14.55 -15.3 0.05 -15.4 L10.5 -15.0 M13.35 -7.65 L13.0 -11.8 6.8 -12.5 Q2.1 -12.8 -3.5 -12.55 -10.25 -12.35 -12.75 -11.45 L-13.1 -7.4 -13.1 -0.45 Q-12.85 4.45 -12.4 7.05 -11.95 9.7 -11.5 10.55 L-5.25 11.25 Q-0.35 11.55 5.0 11.3 L11.5 10.65 Q12.05 9.5 12.45 7.05 13.0 3.8 13.2 -0.65 L13.35 -7.65" fill="#95203c" fill-rule="evenodd" stroke="none"/>
    <path d="M7.45 -1.15 Q6.65 -1.15 4.1 -2.25 1.4 -3.3 0.3 -3.3 -0.45 -3.35 -3.15 -2.2 -5.7 -1.05 -6.7 -0.95 -7.65 -0.9 -8.7 -1.4 -9.65 -1.9 -9.95 -2.6 -10.25 -3.55 -5.95 -7.3 -1.6 -11.1 -0.15 -11.05 1.4 -11.0 5.4 -7.8 9.0 -4.95 9.7 -3.85 10.15 -3.25 9.35 -2.25 8.6 -1.15 7.45 -1.15 M7.7 8.8 Q7.1 8.8 4.35 7.7 1.6 6.6 0.55 6.6 -0.2 6.6 -2.9 7.75 -5.65 8.95 -6.45 9.0 L-8.45 8.55 Q-9.4 8.05 -9.7 7.35 -10.0 6.4 -5.7 2.6 -1.3 -1.15 0.15 -1.1 1.75 -1.0 5.65 2.15 9.25 5.0 9.95 6.1 10.4 6.75 9.6 7.7 8.8 8.8 7.7 8.8" fill="#ffffff" fill-rule="evenodd" stroke="none"/>
    <path d="M7.45 -1.15 Q8.6 -1.15 9.35 -2.25 10.15 -3.25 9.7 -3.85 9.0 -4.95 5.4 -7.8 1.4 -11.0 -0.15 -11.05 -1.6 -11.1 -5.95 -7.3 -10.25 -3.55 -9.95 -2.6 -9.65 -1.9 -8.7 -1.4 -7.65 -0.9 -6.7 -0.95 -5.7 -1.05 -3.15 -2.2 -0.45 -3.35 0.3 -3.3 1.4 -3.3 4.1 -2.25 6.65 -1.15 7.45 -1.15 M13.35 -7.65 L13.2 -0.65 Q13.0 3.8 12.45 7.05 12.05 9.5 11.5 10.65 L5.0 11.3 Q-0.35 11.55 -5.25 11.25 L-11.5 10.55 Q-11.95 9.7 -12.4 7.05 -12.85 4.45 -13.1 -0.45 L-13.1 -7.4 -12.75 -11.45 Q-10.25 -12.35 -3.5 -12.55 2.1 -12.8 6.8 -12.5 L13.0 -11.8 13.35 -7.65 M7.7 8.8 Q8.8 8.8 9.6 7.7 10.4 6.75 9.95 6.1 9.25 5.0 5.65 2.15 1.75 -1.0 0.15 -1.1 -1.3 -1.15 -5.7 2.6 -10.0 6.4 -9.7 7.35 -9.4 8.05 -8.45 8.55 L-6.45 9.0 Q-5.65 8.95 -2.9 7.75 -0.2 6.6 0.55 6.6 1.6 6.6 4.35 7.7 7.1 8.8 7.7 8.8" fill="#e94d63" fill-rule="evenodd" stroke="none"/>
  </g>
</svg>
