<?xml version="1.0" encoding="UTF-8" standalone="no"?>
<svg xmlns:ffdec="https://www.free-decompiler.com/flash" xmlns:xlink="http://www.w3.org/1999/xlink" ffdec:objectType="shape" height="32.45px" width="102.0px" xmlns="http://www.w3.org/2000/svg">
  <g transform="matrix(1.0, 0.0, 0.0, 1.0, 57.0, 16.25)">
    <path d="M18.2 -13.45 Q37.2 -12.7 38.1 -11.9 39.1 -11.05 39.55 -8.65 L40.0 -2.95 Q40.1 0.1 39.4 3.6 38.8 6.75 38.1 7.9 37.65 8.8 18.4 9.5 0.9 10.15 -6.75 10.0 L-30.35 9.5 -49.9 8.35 Q-51.25 7.7 -51.65 5.55 -52.05 3.6 -52.05 -1.75 -52.05 -10.05 -50.35 -11.9 -49.6 -12.7 -31.1 -13.45 -15.4 -14.1 -6.75 -14.1 2.05 -14.1 18.2 -13.45" fill="#f7ae00" fill-rule="evenodd" stroke="none"/>
    <path d="M18.2 -13.45 Q2.05 -14.1 -6.75 -14.1 -15.4 -14.1 -31.1 -13.45 -49.6 -12.7 -50.35 -11.9 -52.05 -10.05 -52.05 -1.75 -52.05 3.6 -51.65 5.55 -51.25 7.7 -49.9 8.35 L-30.35 9.5 -6.75 10.0 Q0.9 10.15 18.4 9.5 37.65 8.8 38.1 7.9 38.8 6.75 39.4 3.6 40.1 0.1 40.0 -2.95 L39.55 -8.65 Q39.1 -11.05 38.1 -11.9 37.2 -12.7 18.2 -13.45 M42.8 -13.75 Q45.3 -11.5 44.95 -0.85 44.75 4.1 44.1 8.5 43.5 12.55 42.8 13.8 42.3 14.75 21.15 15.6 2.25 16.3 -6.6 16.15 L-32.95 15.55 -54.6 14.3 Q-56.05 13.65 -56.6 10.0 -57.0 7.1 -57.0 0.5 -57.0 -4.9 -56.45 -8.85 -55.95 -12.8 -55.05 -13.75 -54.2 -14.65 -33.8 -15.5 -16.35 -16.25 -6.6 -16.25 3.35 -16.25 20.9 -15.55 41.75 -14.7 42.8 -13.75" fill="#bd7300" fill-rule="evenodd" stroke="none"/>
  </g>
</svg>
