<?xml version="1.0" encoding="UTF-8" standalone="no"?>
<svg xmlns:ffdec="https://www.free-decompiler.com/flash" xmlns:xlink="http://www.w3.org/1999/xlink" ffdec:objectType="shape" height="32.4px" width="102.0px" xmlns="http://www.w3.org/2000/svg">
  <g transform="matrix(1.0, 0.0, 0.0, 1.0, 49.0, 16.2)">
    <path d="M1.25 -14.05 Q10.05 -14.05 26.2 -13.4 L46.15 -11.85 Q47.1 -11.0 47.55 -8.55 L48.0 -2.9 Q48.1 0.1 47.45 3.65 46.8 6.75 46.15 7.9 45.65 8.75 26.4 9.45 9.2 10.1 1.25 10.0 L-22.35 9.45 -41.95 8.35 Q-43.3 7.75 -43.7 5.55 -44.0 3.65 -44.0 -1.75 -44.0 -10.0 -42.35 -11.85 -41.6 -12.65 -23.1 -13.4 -7.4 -14.05 1.25 -14.05" fill="#56afe3" fill-rule="evenodd" stroke="none"/>
    <path d="M1.25 -14.05 Q-7.4 -14.05 -23.1 -13.4 -41.6 -12.65 -42.35 -11.85 -44.0 -10.0 -44.0 -1.75 -44.0 3.65 -43.7 5.55 -43.3 7.75 -41.95 8.35 L-22.35 9.45 1.25 10.0 Q9.2 10.1 26.4 9.45 45.65 8.75 46.15 7.9 46.8 6.75 47.45 3.65 48.1 0.1 48.0 -2.9 L47.55 -8.55 Q47.1 -11.0 46.15 -11.85 L26.2 -13.4 Q10.05 -14.05 1.25 -14.05 M1.35 -16.2 Q11.25 -16.2 28.9 -15.45 49.75 -14.6 50.8 -13.65 53.3 -11.45 52.95 -0.85 52.8 4.1 52.1 8.5 51.5 12.55 50.8 13.75 50.25 14.7 29.15 15.55 10.55 16.3 1.35 16.15 L-46.55 14.25 Q-48.0 13.6 -48.6 9.95 -49.0 7.1 -49.0 0.5 -49.0 -4.85 -48.4 -8.8 -47.9 -12.7 -47.05 -13.65 -46.2 -14.6 -25.75 -15.45 -8.45 -16.2 1.35 -16.2" fill="#255d78" fill-rule="evenodd" stroke="none"/>
  </g>
</svg>
