<?xml version="1.0" encoding="UTF-8" standalone="no"?>
<svg xmlns:ffdec="https://www.free-decompiler.com/flash" xmlns:xlink="http://www.w3.org/1999/xlink" ffdec:objectType="shape" height="32.4px" width="102.0px" xmlns="http://www.w3.org/2000/svg">
  <g transform="matrix(1.0, 0.0, 0.0, 1.0, 49.0, 16.2)">
    <path d="M46.1 -11.8 Q47.1 -10.95 47.55 -8.55 L48.0 -2.9 Q48.1 0.15 47.4 3.7 46.8 6.8 46.1 8.0 45.6 8.85 26.4 9.55 9.3 10.15 1.25 10.05 L-22.4 9.5 -41.95 8.4 Q-43.3 7.8 -43.7 5.6 -44.05 3.75 -44.05 -1.7 -44.05 -10.05 -42.35 -11.8 -41.6 -12.65 -23.1 -13.4 -7.55 -14.05 1.25 -14.05 10.15 -14.05 26.15 -13.4 45.15 -12.65 46.1 -11.8" fill="#a2daf7" fill-rule="evenodd" stroke="none"/>
    <path d="M46.1 -11.8 Q45.15 -12.65 26.15 -13.4 10.15 -14.05 1.25 -14.05 -7.55 -14.05 -23.1 -13.4 -41.6 -12.65 -42.35 -11.8 -44.05 -10.05 -44.05 -1.7 -44.05 3.75 -43.7 5.6 -43.3 7.8 -41.95 8.4 L-22.4 9.5 1.25 10.05 Q9.3 10.15 26.4 9.55 45.6 8.85 46.1 8.0 46.8 6.8 47.4 3.7 48.1 0.15 48.0 -2.9 L47.55 -8.55 Q47.1 -10.95 46.1 -11.8 M50.8 -13.65 Q53.3 -11.45 52.95 -0.85 52.75 4.15 52.1 8.55 51.5 12.6 50.8 13.85 50.25 14.8 29.15 15.6 10.5 16.3 1.35 16.2 L-46.6 14.3 Q-48.05 13.65 -48.6 10.0 -49.0 7.15 -49.0 0.55 -49.0 -4.85 -48.45 -8.8 -47.95 -12.7 -47.1 -13.65 -46.25 -14.6 -25.75 -15.45 -8.45 -16.2 1.35 -16.2 11.2 -16.2 28.85 -15.45 49.75 -14.6 50.8 -13.65" fill="#0097d6" fill-rule="evenodd" stroke="none"/>
  </g>
</svg>
