<?xml version="1.0" encoding="UTF-8" standalone="no"?>
<svg xmlns:ffdec="https://www.free-decompiler.com/flash" xmlns:xlink="http://www.w3.org/1999/xlink" ffdec:objectType="shape" height="42.0px" width="112.0px" xmlns="http://www.w3.org/2000/svg">
  <g transform="matrix(1.0, 0.0, 0.0, 1.0, 54.0, 20.5)">
    <path d="M1.25 -14.15 Q9.95 -14.15 25.9 -13.5 L45.7 -11.95 Q46.65 -11.1 47.1 -8.65 L47.55 -3.0 Q47.7 0.0 47.0 3.55 46.4 6.65 45.7 7.8 45.2 8.65 26.15 9.35 9.15 10.0 1.25 9.9 L-22.15 9.35 -41.55 8.25 Q-42.9 7.65 -43.25 5.45 -43.6 3.55 -43.6 -1.85 -43.6 -10.1 -41.95 -11.95 -41.2 -12.75 -22.9 -13.5 -7.35 -14.15 1.25 -14.15" fill="#56afe3" fill-rule="evenodd" stroke="none"/>
    <path d="M1.25 -14.15 Q-7.35 -14.15 -22.9 -13.5 -41.2 -12.75 -41.95 -11.95 -43.6 -10.1 -43.6 -1.85 -43.6 3.55 -43.25 5.45 -42.9 7.65 -41.55 8.25 L-22.15 9.35 1.25 9.9 Q9.15 10.0 26.15 9.35 45.2 8.65 45.7 7.8 46.4 6.65 47.0 3.55 47.7 0.0 47.55 -3.0 L47.1 -8.65 Q46.65 -11.1 45.7 -11.95 L25.9 -13.5 Q9.95 -14.15 1.25 -14.15 M1.35 -16.3 Q11.1 -16.3 28.65 -15.55 49.3 -14.7 50.35 -13.75 52.8 -11.55 52.5 -0.95 52.3 4.0 51.65 8.4 51.05 12.45 50.35 13.65 49.8 14.6 28.85 15.45 10.45 16.15 1.35 16.05 L-46.1 14.15 Q-47.55 13.5 -48.15 9.85 -48.5 7.0 -48.5 0.4 -48.5 -4.95 -47.95 -8.9 -47.45 -12.8 -46.6 -13.75 -45.8 -14.7 -25.5 -15.55 -8.4 -16.3 1.35 -16.3" fill="#255d78" fill-rule="evenodd" stroke="none"/>
    <path d="M1.35 -16.3 Q-8.4 -16.3 -25.5 -15.55 -45.8 -14.7 -46.6 -13.75 -47.45 -12.8 -47.95 -8.9 -48.5 -4.95 -48.5 0.4 -48.5 7.0 -48.15 9.85 -47.55 13.5 -46.1 14.15 L1.35 16.05 Q10.45 16.15 28.85 15.45 49.8 14.6 50.35 13.65 51.05 12.45 51.65 8.4 52.3 4.0 52.5 -0.95 52.8 -11.55 50.35 -13.75 49.3 -14.7 28.65 -15.55 11.1 -16.3 1.35 -16.3 M1.3 -20.5 Q12.15 -20.5 31.55 -19.7 54.4 -18.75 55.6 -17.7 56.9 -16.55 57.55 -11.1 58.2 -5.9 57.95 0.6 57.75 6.4 57.05 12.0 56.35 17.7 55.6 18.9 55.0 19.95 31.8 20.85 11.05 21.65 1.3 21.5 L-27.6 20.8 -51.3 19.45 Q-52.95 18.75 -53.55 13.65 -54.0 9.8 -54.0 2.1 -54.0 -4.3 -53.45 -10.25 -52.75 -16.7 -51.85 -17.7 -50.9 -18.7 -28.55 -19.7 -9.35 -20.5 1.3 -20.5" fill="#ffffff" fill-rule="evenodd" stroke="none"/>
  </g>
</svg>
