<?xml version="1.0" encoding="UTF-8" standalone="no"?>
<svg xmlns:ffdec="https://www.free-decompiler.com/flash" xmlns:xlink="http://www.w3.org/1999/xlink" ffdec:objectType="shape" height="42.0px" width="112.0px" xmlns="http://www.w3.org/2000/svg">
  <g transform="matrix(1.0, 0.0, 0.0, 1.0, 48.6, 20.1)">
    <path d="M6.7 -13.75 Q15.4 -13.75 31.4 -13.1 50.25 -12.35 51.15 -11.55 52.1 -10.7 52.55 -8.25 L53.0 -2.6 Q53.1 0.45 52.45 3.95 51.8 7.1 51.15 8.2 50.7 9.05 31.6 9.75 14.55 10.4 6.7 10.3 L-16.75 9.75 -36.05 8.65 Q-37.4 8.05 -37.8 5.85 -38.2 3.9 -38.2 -1.45 -38.2 -9.7 -36.5 -11.55 -35.8 -12.35 -17.4 -13.1 -1.9 -13.75 6.7 -13.75" fill="#b28147" fill-rule="evenodd" stroke="none"/>
    <path d="M6.7 -13.75 Q-1.9 -13.75 -17.4 -13.1 -35.8 -12.35 -36.5 -11.55 -38.2 -9.7 -38.2 -1.45 -38.2 3.9 -37.8 5.85 -37.4 8.05 -36.05 8.65 L-16.75 9.75 6.7 10.3 Q14.55 10.4 31.6 9.75 50.7 9.05 51.15 8.2 51.8 7.1 52.45 3.95 53.1 0.45 53.0 -2.6 L52.55 -8.25 Q52.1 -10.7 51.15 -11.55 50.25 -12.35 31.4 -13.1 15.4 -13.75 6.7 -13.75 M6.8 -15.9 Q16.6 -15.9 34.05 -15.15 54.7 -14.3 55.8 -13.35 58.25 -11.15 57.9 -0.55 57.75 4.4 57.05 8.8 56.45 12.85 55.8 14.05 55.25 15.0 34.35 15.85 15.9 16.55 6.8 16.45 L-40.7 14.55 Q-42.15 13.9 -42.7 10.25 -43.1 7.4 -43.1 0.8 -43.1 -4.6 -42.55 -8.5 -42.05 -12.4 -41.15 -13.35 -40.3 -14.3 -20.1 -15.15 -2.95 -15.9 6.8 -15.9" fill="#74480f" fill-rule="evenodd" stroke="none"/>
    <path d="M6.8 -15.9 Q-2.95 -15.9 -20.1 -15.15 -40.3 -14.3 -41.15 -13.35 -42.05 -12.4 -42.55 -8.5 -43.1 -4.6 -43.1 0.8 -43.1 7.4 -42.7 10.25 -42.15 13.9 -40.7 14.55 L6.8 16.45 Q15.9 16.55 34.35 15.85 55.25 15.0 55.8 14.05 56.45 12.85 57.05 8.8 57.75 4.4 57.9 -0.55 58.25 -11.15 55.8 -13.35 54.7 -14.3 34.05 -15.15 16.6 -15.9 6.8 -15.9 M6.7 -20.1 Q17.6 -20.1 36.95 -19.3 58.75 -18.4 60.85 -17.4 L61.0 -17.3 Q62.3 -16.15 63.0 -10.7 L63.2 -8.55 Q63.55 -4.2 63.35 1.0 63.2 6.7 62.5 12.4 61.75 18.05 61.0 19.3 60.4 20.35 37.25 21.25 16.45 22.05 6.7 21.9 L-22.15 21.2 -45.9 19.85 Q-47.5 19.15 -48.15 14.05 -48.6 10.2 -48.6 2.5 -48.6 -3.8 -47.95 -9.85 -47.35 -16.3 -46.45 -17.3 -45.5 -18.3 -23.05 -19.3 -3.9 -20.1 6.7 -20.1" fill="#ffffff" fill-rule="evenodd" stroke="none"/>
  </g>
</svg>
