<?xml version="1.0" encoding="UTF-8" standalone="no"?>
<svg xmlns:ffdec="https://www.free-decompiler.com/flash" xmlns:xlink="http://www.w3.org/1999/xlink" ffdec:objectType="shape" height="153.55px" width="126.6px" xmlns="http://www.w3.org/2000/svg">
  <g transform="matrix(1.0, 0.0, 0.0, 1.0, 63.35, 76.75)">
    <path d="M60.9 -73.6 Q62.4 -72.45 63.25 -53.45 L63.25 48.05 Q62.2 71.1 60.55 72.75 58.6 74.55 34.9 75.85 13.75 77.05 0.2 76.7 L-34.0 75.25 Q-58.25 74.1 -60.25 73.1 -62.05 72.2 -62.9 42.75 -63.55 19.2 -63.25 1.75 L-62.7 -39.35 Q-62.0 -69.9 -60.75 -72.35 -59.6 -74.8 -37.0 -75.95 -21.6 -76.75 -3.0 -76.75 10.85 -76.9 33.25 -75.95 59.25 -74.95 60.9 -73.6 M30.25 -70.8 Q10.8 -71.65 -2.65 -71.65 -19.2 -71.65 -33.35 -70.9 -53.75 -69.8 -54.85 -67.65 -56.05 -65.35 -56.6 -37.7 L-57.1 -0.5 Q-57.3 16.7 -56.9 36.85 -56.15 63.55 -54.5 64.35 -52.65 65.35 -30.7 66.45 L0.2 67.6 Q12.5 67.95 31.6 66.95 53.05 65.8 54.65 64.05 56.45 62.4 57.45 36.05 58.15 16.55 58.15 -0.8 57.65 -66.7 55.15 -68.7 53.65 -69.9 30.25 -70.8" fill="#383332" fill-rule="evenodd" stroke="none"/>
    <path d="M29.1 -65.25 Q47.85 -64.05 49.25 -62.6 50.75 -61.1 51.65 -42.95 52.55 -26.75 52.3 -16.4 52.05 -5.4 51.2 9.0 50.25 26.9 49.55 28.4 48.85 29.85 29.6 31.05 L1.65 32.05 -26.45 31.2 Q-46.35 30.35 -48.25 29.4 -50.15 28.45 -51.0 11.45 -51.65 -0.4 -51.65 -14.15 -51.65 -25.35 -51.0 -41.45 -50.2 -61.05 -49.2 -62.3 -48.05 -63.7 -27.8 -65.05 L1.4 -66.25 29.1 -65.25 M25.45 -59.1 L1.25 -60.0 -24.25 -59.0 Q-41.95 -57.8 -42.95 -56.65 -43.8 -55.55 -44.55 -38.45 -45.2 -23.3 -45.05 -14.5 -45.05 -2.4 -44.55 7.8 -43.8 22.75 -42.15 23.5 -40.4 24.35 -23.0 25.1 -9.1 25.75 1.45 25.8 L25.95 25.0 Q42.7 23.9 43.3 22.65 43.95 21.3 44.8 5.7 45.55 -7.5 45.75 -16.5 45.95 -25.35 45.25 -39.65 44.45 -55.55 43.15 -56.8 41.85 -58.1 25.45 -59.1" fill="#231916" fill-rule="evenodd" stroke="none"/>
    <path d="M29.1 -65.25 L1.4 -66.25 -27.8 -65.05 Q-48.05 -63.7 -49.2 -62.3 -50.2 -61.05 -51.0 -41.45 -51.65 -25.35 -51.65 -14.15 -51.65 -0.4 -51.0 11.45 -50.15 28.45 -48.25 29.4 -46.35 30.35 -26.45 31.2 L1.65 32.05 29.6 31.05 Q48.85 29.85 49.55 28.4 50.25 26.9 51.2 9.0 52.05 -5.4 52.3 -16.4 52.55 -26.75 51.65 -42.95 50.75 -61.1 49.25 -62.6 47.85 -64.05 29.1 -65.25 M30.25 -70.8 Q53.65 -69.9 55.15 -68.7 57.65 -66.7 58.15 -0.8 58.15 16.55 57.45 36.05 56.45 62.4 54.65 64.05 53.05 65.8 31.6 66.95 12.5 67.95 0.2 67.6 L-30.7 66.45 Q-52.65 65.35 -54.5 64.35 -56.15 63.55 -56.9 36.85 -57.3 16.7 -57.1 -0.5 L-56.6 -37.7 Q-56.05 -65.35 -54.85 -67.65 -53.75 -69.8 -33.35 -70.9 -19.2 -71.65 -2.65 -71.65 10.8 -71.65 30.25 -70.8" fill="#4c4948" fill-rule="evenodd" stroke="none"/>
  </g>
</svg>
