<?xml version="1.0" encoding="UTF-8" standalone="no"?>
<svg xmlns:ffdec="https://www.free-decompiler.com/flash" xmlns:xlink="http://www.w3.org/1999/xlink" ffdec:objectType="shape" height="29.45px" width="29.45px" xmlns="http://www.w3.org/2000/svg">
  <g transform="matrix(1.0, 0.0, 0.0, 1.0, 14.7, 14.65)">
    <path d="M-0.7 -4.7 Q-2.45 -4.4 -3.4 -3.0 -4.4 -1.6 -4.1 0.15 -3.8 1.85 -2.4 2.9 -0.95 3.9 0.75 3.6 2.45 3.3 3.5 1.85 4.45 0.5 4.2 -1.3 3.9 -3.0 2.45 -4.0 1.1 -5.0 -0.7 -4.7 M10.55 -0.55 Q9.8 1.0 8.05 2.6 4.7 5.75 0.05 5.75 -4.55 5.75 -8.0 2.6 L-9.9 0.45 -10.5 -0.55 Q-9.65 -2.2 -8.0 -3.7 -4.55 -6.85 0.05 -6.85 4.7 -6.85 8.05 -3.7 9.8 -2.1 10.55 -0.55" fill="#ffffff" fill-rule="evenodd" stroke="none"/>
    <path d="M12.55 -0.55 Q12.55 4.65 8.9 8.3 5.25 11.95 0.05 11.95 -5.2 11.95 -8.8 8.3 -12.45 4.65 -12.45 -0.55 -12.45 -5.75 -8.8 -9.4 -5.2 -13.05 0.05 -13.05 5.25 -13.05 8.9 -9.4 12.55 -5.75 12.55 -0.55 M10.55 -0.55 Q9.8 -2.1 8.05 -3.7 4.7 -6.85 0.05 -6.85 -4.55 -6.85 -8.0 -3.7 -9.65 -2.2 -10.5 -0.55 L-9.9 0.45 -8.0 2.6 Q-4.55 5.75 0.05 5.75 4.7 5.75 8.05 2.6 9.8 1.0 10.55 -0.55 M-0.7 -4.7 Q1.1 -5.0 2.45 -4.0 3.9 -3.0 4.2 -1.3 4.45 0.5 3.5 1.85 2.45 3.3 0.75 3.6 -0.95 3.9 -2.4 2.9 -3.8 1.85 -4.1 0.15 -4.4 -1.6 -3.4 -3.0 -2.45 -4.4 -0.7 -4.7" fill="#5dace0" fill-rule="evenodd" stroke="none"/>
    <path d="M10.45 -10.35 Q14.75 -5.95 14.75 0.05 14.75 6.15 10.45 10.45 6.1 14.8 0.05 14.8 -6.05 14.8 -10.4 10.45 -14.7 6.15 -14.7 0.05 -14.7 -5.95 -10.4 -10.35 -6.0 -14.65 0.05 -14.65 6.1 -14.65 10.45 -10.35 M12.55 -0.55 Q12.55 -5.75 8.9 -9.4 5.25 -13.05 0.05 -13.05 -5.2 -13.05 -8.8 -9.4 -12.45 -5.75 -12.45 -0.55 -12.45 4.65 -8.8 8.3 -5.2 11.95 0.05 11.95 5.25 11.95 8.9 8.3 12.55 4.65 12.55 -0.55" fill="#454d9e" fill-rule="evenodd" stroke="none"/>
  </g>
</svg>
