<?xml version="1.0" encoding="UTF-8" standalone="no"?>
<svg xmlns:ffdec="https://www.free-decompiler.com/flash" xmlns:xlink="http://www.w3.org/1999/xlink" ffdec:objectType="shape" height="38.05px" width="37.4px" xmlns="http://www.w3.org/2000/svg">
  <g transform="matrix(1.0, 0.0, 0.0, 1.0, 18.6, 19.0)">
    <path d="M-2.9 -14.55 L-0.4 -14.15 Q0.7 -13.95 0.65 -13.0 0.6 -12.1 -0.5 -12.35 L-3.2 -12.85 -2.9 -14.55 M3.05 -11.45 Q2.65 -11.55 2.8 -12.25 2.9 -12.9 3.4 -12.95 4.7 -13.05 7.95 -11.45 8.85 -11.05 8.4 -10.3 8.0 -9.6 7.2 -9.95 4.8 -11.0 3.05 -11.45 M13.3 -6.35 L10.3 -8.55 Q10.0 -8.8 10.25 -9.35 10.55 -9.95 11.05 -9.9 12.2 -9.6 14.2 -7.85 L13.3 -6.35" fill="#8f2c29" fill-rule="evenodd" stroke="none"/>
    <path d="M3.05 -11.45 Q4.8 -11.0 7.2 -9.95 8.0 -9.6 8.4 -10.3 8.85 -11.05 7.95 -11.45 4.7 -13.05 3.4 -12.95 2.9 -12.9 2.8 -12.25 2.65 -11.55 3.05 -11.45 M-3.2 -12.85 L-0.5 -12.35 Q0.6 -12.1 0.65 -13.0 0.7 -13.95 -0.4 -14.15 L-2.9 -14.55 -2.35 -16.7 Q0.45 -16.3 6.05 -14.2 13.15 -11.6 14.95 -9.15 L14.2 -7.85 Q12.2 -9.6 11.05 -9.9 10.55 -9.95 10.25 -9.35 10.0 -8.8 10.3 -8.55 L13.3 -6.35 11.35 -3.5 Q13.7 -0.15 13.9 3.75 14.1 5.95 13.45 8.45 12.65 11.5 10.95 13.2 6.7 17.55 -0.15 17.1 -2.95 16.95 -5.85 15.85 -9.3 14.55 -11.05 12.5 -12.05 11.35 -12.45 9.7 -12.85 8.05 -12.55 6.45 L-7.2 6.7 Q-4.05 5.75 -2.35 3.15 -1.25 1.85 2.65 1.9 7.6 1.95 9.4 6.55 L9.7 5.85 Q9.95 5.1 9.5 4.25 7.7 0.65 3.75 -0.25 L-1.35 -0.45 -1.35 -2.75 Q-1.45 -4.2 -1.75 -4.3 -2.35 -1.2 -3.2 0.55 -3.9 1.95 -5.25 3.3 -6.6 4.7 -8.7 5.0 -10.6 5.25 -12.45 4.55 -13.7 4.05 -14.65 3.05 -15.7 1.95 -16.05 0.65 -16.75 -1.75 -15.65 -4.15 -14.25 -7.15 -10.5 -8.7 -8.4 -9.55 -3.6 -9.75 L-3.2 -12.85 M-15.1 5.15 L-15.05 5.2 -15.05 5.35 -15.1 5.15 M-3.75 13.2 Q-5.75 12.55 -5.9 13.65 -6.05 14.75 -4.35 15.3 -1.65 16.2 1.2 16.1 4.55 16.0 6.85 14.45 L7.7 13.65 7.65 13.2 Q7.45 12.8 6.8 12.65 6.1 12.5 5.6 12.85 1.9 15.0 -3.75 13.2 M-9.35 12.6 Q-8.95 13.4 -7.95 13.7 -7.3 13.9 -6.95 13.45 -6.6 13.0 -6.75 12.5 -7.15 11.5 -8.35 11.35 -8.9 11.25 -9.25 11.65 -9.65 12.05 -9.35 12.6 M-6.55 1.95 Q-7.1 1.2 -7.7 1.55 -9.3 2.4 -10.55 2.15 -11.45 1.95 -12.7 0.95 -13.4 0.4 -13.95 1.2 -14.5 1.95 -13.8 2.7 -12.65 3.95 -10.55 4.1 -8.4 4.3 -6.8 3.2 -6.0 2.7 -6.55 1.95" fill="#de3e53" fill-rule="evenodd" stroke="none"/>
    <path d="M-2.9 -14.55 L-3.2 -12.85 -3.6 -9.75 Q-8.4 -9.55 -10.5 -8.7 -14.25 -7.15 -15.65 -4.15 -16.75 -1.75 -16.05 0.65 -15.7 1.95 -14.65 3.05 -13.7 4.05 -12.45 4.55 -10.6 5.25 -8.7 5.0 -6.6 4.7 -5.25 3.3 -3.9 1.95 -3.2 0.55 -2.35 -1.2 -1.75 -4.3 -1.45 -4.2 -1.35 -2.75 L-1.35 -0.45 3.75 -0.25 Q7.7 0.65 9.5 4.25 9.95 5.1 9.7 5.85 L9.4 6.55 Q7.6 1.95 2.65 1.9 -1.25 1.85 -2.35 3.15 -4.05 5.75 -7.2 6.7 L-12.55 6.45 Q-12.85 8.05 -12.45 9.7 -12.05 11.35 -11.05 12.5 -9.3 14.55 -5.85 15.85 -2.95 16.95 -0.15 17.1 6.7 17.55 10.95 13.2 12.65 11.5 13.45 8.45 14.1 5.95 13.9 3.75 13.7 -0.15 11.35 -3.5 L13.3 -6.35 14.2 -7.85 14.95 -9.15 Q13.15 -11.6 6.05 -14.2 0.45 -16.3 -2.35 -16.7 L-2.9 -14.55 M-15.1 5.15 Q-17.75 3.25 -18.35 0.75 -19.3 -3.3 -16.5 -7.2 -15.15 -9.1 -12.3 -10.3 -9.4 -11.55 -6.05 -11.5 -5.7 -12.95 -5.55 -15.35 -5.45 -17.65 -5.05 -18.9 -2.5 -19.55 7.05 -16.15 17.45 -12.45 18.8 -8.8 L16.25 -5.75 14.15 -3.5 Q16.55 0.35 16.4 5.05 16.3 9.5 14.0 13.1 12.15 15.95 8.75 17.55 5.25 19.15 1.0 19.05 -3.85 18.95 -7.8 17.05 -11.1 15.5 -13.05 13.15 -15.9 9.75 -15.05 5.35 L-15.05 5.2 -15.1 5.15" fill="#7f092c" fill-rule="evenodd" stroke="none"/>
    <path d="M-6.55 1.95 Q-6.0 2.7 -6.8 3.2 -8.4 4.3 -10.55 4.1 -12.65 3.95 -13.8 2.7 -14.5 1.95 -13.95 1.2 -13.4 0.4 -12.7 0.95 -11.45 1.95 -10.55 2.15 -9.3 2.4 -7.7 1.55 -7.1 1.2 -6.55 1.95 M-9.35 12.6 Q-9.65 12.05 -9.25 11.65 -8.9 11.25 -8.35 11.35 -7.15 11.5 -6.75 12.5 -6.6 13.0 -6.95 13.45 -7.3 13.9 -7.95 13.7 -8.95 13.4 -9.35 12.6 M-3.75 13.2 Q1.9 15.0 5.6 12.85 6.1 12.5 6.8 12.65 7.45 12.8 7.65 13.2 L7.7 13.65 6.85 14.45 Q4.55 16.0 1.2 16.1 -1.65 16.2 -4.35 15.3 -6.05 14.75 -5.9 13.65 -5.75 12.55 -3.75 13.2" fill="#ed7c88" fill-rule="evenodd" stroke="none"/>
  </g>
</svg>
