<?xml version="1.0" encoding="UTF-8" standalone="no"?>
<svg xmlns:ffdec="https://www.free-decompiler.com/flash" xmlns:xlink="http://www.w3.org/1999/xlink" ffdec:objectType="shape" height="52.35px" width="163.25px" xmlns="http://www.w3.org/2000/svg">
  <g transform="matrix(1.0, 0.0, 0.0, 1.0, 81.6, 26.2)">
    <path d="M-81.4 -10.45 L-81.45 -2.95 Q-81.25 16.0 -78.75 17.25 L-42.35 18.95 1.95 19.35 Q19.9 19.55 46.2 18.75 79.2 17.75 80.1 15.95 81.35 13.45 81.5 -4.1 L81.5 -10.6 81.65 1.25 Q81.5 20.2 80.2 22.7 79.3 24.45 46.25 25.45 19.7 26.3 1.95 26.1 L-42.45 25.65 -78.9 23.95 Q-81.4 22.7 -81.55 2.35 -81.65 -5.4 -81.4 -10.45" fill="#231916" fill-rule="evenodd" stroke="none"/>
    <path d="M-81.4 -10.45 Q-81.25 -22.0 -79.95 -23.6 -78.55 -25.35 -44.1 -25.9 L1.6 -26.15 45.4 -26.1 Q78.0 -25.7 79.75 -23.95 81.25 -22.45 81.5 -10.6 L81.5 -4.1 Q81.35 13.45 80.1 15.95 79.2 17.75 46.2 18.75 19.9 19.55 1.95 19.35 L-42.35 18.95 -78.75 17.25 Q-81.25 16.0 -81.45 -2.95 L-81.4 -10.45" fill="#383332" fill-rule="evenodd" stroke="none"/>
  </g>
</svg>
