<?xml version="1.0" encoding="UTF-8" standalone="no"?>
<svg xmlns:ffdec="https://www.free-decompiler.com/flash" xmlns:xlink="http://www.w3.org/1999/xlink" ffdec:objectType="shape" height="52.35px" width="163.2px" xmlns="http://www.w3.org/2000/svg">
  <g transform="matrix(1.0, 0.0, 0.0, 1.0, 81.1, 26.15)">
    <path d="M-80.85 -11.5 Q-80.65 -22.05 -79.45 -23.55 -78.05 -25.3 -43.6 -25.85 L2.1 -26.1 45.9 -26.05 Q78.45 -25.65 80.2 -23.9 81.7 -22.4 81.95 -10.55 L81.95 -4.05 Q81.8 13.5 80.55 16.05 79.65 17.8 46.7 18.8 20.3 19.6 2.45 19.4 L-41.85 19.0 -78.25 17.3 Q-80.75 16.05 -80.9 -2.9 L-80.85 -11.5" fill="#956134" fill-rule="evenodd" stroke="none"/>
    <path d="M-80.85 -11.5 L-80.9 -2.9 Q-80.75 16.05 -78.25 17.3 L-41.85 19.0 2.45 19.4 Q20.3 19.6 46.7 18.8 79.65 17.8 80.55 16.05 81.8 13.5 81.95 -4.05 L81.95 -10.55 82.1 1.3 Q81.95 20.25 80.7 22.75 79.8 24.55 46.75 25.55 20.45 26.35 2.45 26.15 L-41.95 25.7 Q-76.0 25.2 -78.4 24.0 -80.9 22.75 -81.05 2.4 -81.15 -6.25 -80.85 -11.5" fill="#412311" fill-rule="evenodd" stroke="none"/>
  </g>
</svg>
