<?xml version="1.0" encoding="UTF-8" standalone="no"?>
<svg xmlns:ffdec="https://www.free-decompiler.com/flash" xmlns:xlink="http://www.w3.org/1999/xlink" ffdec:objectType="shape" height="37.55px" width="45.75px" xmlns="http://www.w3.org/2000/svg">
  <g transform="matrix(1.0, 0.0, 0.0, 1.0, 22.9, 37.5)">
    <path d="M22.15 -28.8 Q23.05 -27.6 22.8 -26.25 22.65 -25.45 22.2 -24.9 L20.8 -23.9 Q18.35 -10.5 16.7 -3.1 L15.95 -1.75 14.95 -0.6 -0.05 0.05 -15.05 -0.6 -16.0 -1.75 -16.75 -3.1 Q-18.4 -10.5 -20.85 -23.9 L-22.25 -24.9 -22.85 -26.25 Q-23.1 -27.6 -22.2 -28.8 -21.25 -30.0 -19.75 -30.15 -18.2 -30.3 -17.2 -29.3 -16.4 -28.45 -16.35 -27.45 -16.25 -26.2 -17.35 -25.1 L-11.75 -20.1 -7.2 -16.5 -1.9 -31.85 Q-3.35 -33.25 -3.4 -34.2 -3.5 -35.5 -2.6 -36.45 -1.65 -37.5 -0.05 -37.5 1.6 -37.55 2.55 -36.45 3.45 -35.5 3.35 -34.2 3.25 -33.25 1.85 -31.85 L7.15 -16.5 11.7 -20.1 17.3 -25.1 Q16.2 -26.2 16.3 -27.45 16.35 -28.45 17.15 -29.3 18.15 -30.3 19.7 -30.15 21.2 -30.0 22.15 -28.8" fill="#383332" fill-rule="evenodd" stroke="none"/>
  </g>
</svg>
