<?xml version="1.0" encoding="UTF-8" standalone="no"?>
<svg xmlns:ffdec="https://www.free-decompiler.com/flash" xmlns:xlink="http://www.w3.org/1999/xlink" ffdec:objectType="shape" height="60.55px" width="60.6px" xmlns="http://www.w3.org/2000/svg">
  <g transform="matrix(1.0, 0.0, 0.0, 1.0, 30.3, 30.25)">
    <path d="M18.85 -20.1 Q26.65 -12.3 26.65 -1.25 26.65 9.8 18.85 17.6 11.05 25.4 0.0 25.4 -11.0 25.4 -18.85 17.6 -26.65 9.8 -26.65 -1.25 -26.65 -12.3 -18.85 -20.1 -11.05 -27.9 0.0 -27.9 11.05 -27.9 18.85 -20.1 M23.0 -1.25 Q23.0 -10.8 16.25 -17.55 9.5 -24.3 0.0 -24.3 -9.5 -24.3 -16.3 -17.55 -23.05 -10.75 -23.05 -1.25 -23.05 8.25 -16.3 15.0 -9.55 21.75 0.0 21.75 9.55 21.75 16.25 15.0 23.0 8.3 23.0 -1.25" fill="#787878" fill-rule="evenodd" stroke="none"/>
    <path d="M23.0 -1.25 Q23.0 8.3 16.25 15.0 9.55 21.75 0.0 21.75 -9.55 21.75 -16.3 15.0 -23.05 8.25 -23.05 -1.25 -23.05 -10.75 -16.3 -17.55 -9.5 -24.3 0.0 -24.3 9.5 -24.3 16.25 -17.55 23.0 -10.8 23.0 -1.25 M-2.85 -1.05 L-2.85 -15.2 -17.0 -1.05 -2.85 13.15 -2.85 -1.05 11.35 13.15 11.35 -15.2 -2.85 -1.05" fill="url(#gradient0)" fill-rule="evenodd" stroke="none"/>
    <path d="M30.3 0.0 Q30.3 12.55 21.4 21.4 12.55 30.3 0.0 30.3 -12.5 30.3 -21.4 21.4 -30.3 12.55 -30.3 0.0 -30.3 -12.5 -21.4 -21.4 -12.55 -30.25 0.0 -30.25 12.55 -30.25 21.4 -21.4 30.3 -12.5 30.3 0.0 M18.85 -20.1 Q11.05 -27.9 0.0 -27.9 -11.05 -27.9 -18.85 -20.1 -26.65 -12.3 -26.65 -1.25 -26.65 9.8 -18.85 17.6 -11.0 25.4 0.0 25.4 11.05 25.4 18.85 17.6 26.65 9.8 26.65 -1.25 26.65 -12.3 18.85 -20.1" fill="#231f20" fill-rule="evenodd" stroke="none"/>
    <path d="M-2.85 -1.05 L11.35 -15.2 11.35 13.15 -2.85 -1.05 -2.85 13.15 -17.0 -1.05 -2.85 -15.2 -2.85 -1.05" fill="#ffffff" fill-rule="evenodd" stroke="none"/>
  </g>
  <defs>
    <linearGradient gradientTransform="matrix(0.0, -0.0132, -0.0132, 0.0, 0.0, 9.65)" gradientUnits="userSpaceOnUse" id="gradient0" spreadMethod="pad" x1="-819.2" x2="819.2">
      <stop offset="0.0" stop-color="#d9d9d9"/>
      <stop offset="1.0" stop-color="#5a5a5a"/>
    </linearGradient>
  </defs>
</svg>
