<?xml version="1.0" encoding="UTF-8" standalone="no"?>
<svg xmlns:ffdec="https://www.free-decompiler.com/flash" xmlns:xlink="http://www.w3.org/1999/xlink" ffdec:objectType="shape" height="54.45px" width="54.55px" xmlns="http://www.w3.org/2000/svg">
  <g transform="matrix(1.0, 0.0, 0.0, 1.0, 27.25, 27.2)">
    <path d="M17.0 -18.1 Q24.0 -11.05 24.0 -1.1 24.0 8.8 17.0 15.85 9.95 22.85 0.0 22.85 -9.9 22.85 -16.95 15.85 -23.95 8.8 -23.95 -1.1 -23.95 -11.05 -16.95 -18.1 -9.9 -25.1 0.0 -25.1 9.95 -25.1 17.0 -18.1 M20.7 -1.1 Q20.7 -9.7 14.65 -15.8 8.55 -21.85 0.0 -21.85 -8.55 -21.85 -14.65 -15.8 -20.7 -9.65 -20.7 -1.1 -20.7 7.45 -14.65 13.5 -8.55 19.6 0.0 19.6 8.6 19.6 14.65 13.5 20.7 7.45 20.7 -1.1" fill="#787878" fill-rule="evenodd" stroke="none"/>
    <path d="M20.7 -1.1 Q20.7 7.45 14.65 13.5 8.6 19.6 0.0 19.6 -8.55 19.6 -14.65 13.5 -20.7 7.45 -20.7 -1.1 -20.7 -9.65 -14.65 -15.8 -8.55 -21.85 0.0 -21.85 8.55 -21.85 14.65 -15.8 20.7 -9.7 20.7 -1.1 M-2.55 -0.95 L-2.55 -13.7 -15.3 -0.95 -2.55 11.85 -2.55 -0.95 10.25 11.85 10.25 -13.7 -2.55 -0.95" fill="url(#gradient0)" fill-rule="evenodd" stroke="none"/>
    <path d="M27.3 0.0 Q27.3 11.3 19.3 19.25 11.3 27.25 0.0 27.25 -11.25 27.25 -19.25 19.25 -27.25 11.3 -27.25 0.0 -27.25 -11.25 -19.25 -19.25 -11.25 -27.2 0.0 -27.2 11.3 -27.2 19.3 -19.25 27.3 -11.25 27.3 0.0 M17.0 -18.1 Q9.95 -25.1 0.0 -25.1 -9.9 -25.1 -16.95 -18.1 -23.95 -11.05 -23.95 -1.1 -23.95 8.8 -16.95 15.85 -9.9 22.85 0.0 22.85 9.95 22.85 17.0 15.85 24.0 8.8 24.0 -1.1 24.0 -11.05 17.0 -18.1" fill="#231f20" fill-rule="evenodd" stroke="none"/>
    <path d="M-2.55 -0.95 L10.25 -13.7 10.25 11.85 -2.55 -0.95 -2.55 11.85 -15.3 -0.95 -2.55 -13.7 -2.55 -0.95" fill="#ffffff" fill-rule="evenodd" stroke="none"/>
  </g>
  <defs>
    <linearGradient gradientTransform="matrix(0.0, -0.0119, -0.0119, 0.0, 0.0, 8.7)" gradientUnits="userSpaceOnUse" id="gradient0" spreadMethod="pad" x1="-819.2" x2="819.2">
      <stop offset="0.0" stop-color="#d9d9d9"/>
      <stop offset="1.0" stop-color="#5a5a5a"/>
    </linearGradient>
  </defs>
</svg>
