<?xml version="1.0" encoding="UTF-8" standalone="no"?>
<svg xmlns:ffdec="https://www.free-decompiler.com/flash" xmlns:xlink="http://www.w3.org/1999/xlink" ffdec:objectType="shape" height="66.6px" width="66.65px" xmlns="http://www.w3.org/2000/svg">
  <g transform="matrix(1.0, 0.0, 0.0, 1.0, 33.3, 33.35)">
    <path d="M-23.55 -23.6 Q-13.8 -33.35 0.0 -33.35 13.8 -33.35 23.55 -23.6 33.35 -13.8 33.35 -0.05 33.35 13.75 23.55 23.45 13.8 33.25 0.0 33.25 -13.75 33.25 -23.55 23.45 -33.3 13.75 -33.3 -0.05 -33.3 -13.8 -23.55 -23.6 M0.0 -30.75 Q-12.15 -30.75 -20.75 -22.2 -29.3 -13.6 -29.3 -1.45 -29.3 10.7 -20.75 19.3 -12.1 27.85 0.0 27.85 12.15 27.85 20.75 19.3 29.3 10.7 29.3 -1.45 29.3 -13.6 20.75 -22.2 12.15 -30.75 0.0 -30.75" fill="#231f20" fill-rule="evenodd" stroke="none"/>
    <path d="M0.0 -30.75 Q12.15 -30.75 20.75 -22.2 29.3 -13.6 29.3 -1.45 29.3 10.7 20.75 19.3 12.15 27.85 0.0 27.85 -12.1 27.85 -20.75 19.3 -29.3 10.7 -29.3 -1.45 -29.3 -13.6 -20.75 -22.2 -12.15 -30.75 0.0 -30.75 M17.9 -19.35 Q10.45 -26.8 0.0 -26.8 -10.45 -26.8 -17.85 -19.35 -25.3 -11.95 -25.3 -1.45 -25.3 9.05 -17.85 16.45 -10.45 23.85 0.0 23.85 10.5 23.85 17.9 16.45 25.3 9.05 25.3 -1.45 25.3 -11.95 17.9 -19.35" fill="#787878" fill-rule="evenodd" stroke="none"/>
    <path d="M15.35 -8.45 L6.0 -8.45 6.0 -17.8 -6.9 -4.8 -6.9 -17.8 -15.35 -17.8 -15.35 13.4 -6.9 13.4 -6.9 0.5 6.0 13.4 6.0 4.05 15.35 4.05 15.35 -8.45 M17.9 -19.35 Q25.3 -11.95 25.3 -1.45 25.3 9.05 17.9 16.45 10.5 23.85 0.0 23.85 -10.45 23.85 -17.85 16.45 -25.3 9.05 -25.3 -1.45 -25.3 -11.95 -17.85 -19.35 -10.45 -26.8 0.0 -26.8 10.45 -26.8 17.9 -19.35" fill="url(#gradient0)" fill-rule="evenodd" stroke="none"/>
    <path d="M15.35 -8.45 L15.35 4.05 6.0 4.05 6.0 13.4 -6.9 0.5 -6.9 13.4 -15.35 13.4 -15.35 -17.8 -6.9 -17.8 -6.9 -4.8 6.0 -17.8 6.0 -8.45 15.35 -8.45" fill="#ffffff" fill-rule="evenodd" stroke="none"/>
  </g>
  <defs>
    <linearGradient gradientTransform="matrix(0.0, -0.0146, -0.0146, 0.0, 0.0, 10.55)" gradientUnits="userSpaceOnUse" id="gradient0" spreadMethod="pad" x1="-819.2" x2="819.2">
      <stop offset="0.0" stop-color="#d9d9d9"/>
      <stop offset="1.0" stop-color="#5a5a5a"/>
    </linearGradient>
  </defs>
</svg>
