<?xml version="1.0" encoding="UTF-8" standalone="no"?>
<svg xmlns:ffdec="https://www.free-decompiler.com/flash" xmlns:xlink="http://www.w3.org/1999/xlink" ffdec:objectType="shape" height="54.5px" width="54.55px" xmlns="http://www.w3.org/2000/svg">
  <g transform="matrix(1.0, 0.0, 0.0, 1.0, 27.25, 27.3)">
    <path d="M-19.25 -19.35 Q-11.25 -27.3 0.05 -27.3 11.35 -27.3 19.3 -19.35 27.3 -11.35 27.3 -0.1 27.3 11.2 19.3 19.2 11.35 27.2 0.05 27.2 -11.2 27.2 -19.25 19.2 -27.25 11.2 -27.25 -0.1 -27.25 -11.35 -19.25 -19.35 M0.05 -25.2 Q-9.9 -25.2 -16.95 -18.15 -23.95 -11.15 -23.95 -1.2 -23.95 8.75 -16.95 15.75 -9.85 22.8 0.05 22.8 10.0 22.8 17.0 15.75 24.0 8.75 24.0 -1.2 24.0 -11.15 17.0 -18.15 10.0 -25.2 0.05 -25.2" fill="#231f20" fill-rule="evenodd" stroke="none"/>
    <path d="M14.65 -15.85 Q8.6 -21.95 0.05 -21.95 -8.5 -21.95 -14.6 -15.85 -20.65 -9.8 -20.65 -1.2 -20.65 7.4 -14.6 13.4 -8.5 19.5 0.05 19.5 8.65 19.5 14.65 13.4 20.75 7.4 20.75 -1.2 20.75 -9.8 14.65 -15.85 M0.05 -25.2 Q10.0 -25.2 17.0 -18.15 24.0 -11.15 24.0 -1.2 24.0 8.75 17.0 15.75 10.0 22.8 0.05 22.8 -9.85 22.8 -16.95 15.75 -23.95 8.75 -23.95 -1.2 -23.95 -11.15 -16.95 -18.15 -9.9 -25.2 0.05 -25.2" fill="#787878" fill-rule="evenodd" stroke="none"/>
    <path d="M14.65 -15.85 Q20.75 -9.8 20.75 -1.2 20.75 7.4 14.65 13.4 8.65 19.5 0.05 19.5 -8.5 19.5 -14.6 13.4 -20.65 7.4 -20.65 -1.2 -20.65 -9.8 -14.6 -15.85 -8.5 -21.95 0.05 -21.95 8.6 -21.95 14.65 -15.85 M12.6 -6.9 L4.95 -6.9 4.95 -14.55 -5.65 -3.95 -5.65 -14.55 -12.5 -14.55 -12.5 10.95 -5.65 10.95 -5.65 0.35 4.95 10.95 4.95 3.3 12.6 3.3 12.6 -6.9" fill="url(#gradient0)" fill-rule="evenodd" stroke="none"/>
    <path d="M12.6 -6.9 L12.6 3.3 4.95 3.3 4.95 10.95 -5.65 0.35 -5.65 10.95 -12.5 10.95 -12.5 -14.55 -5.65 -14.55 -5.65 -3.95 4.95 -14.55 4.95 -6.9 12.6 -6.9" fill="#ffffff" fill-rule="evenodd" stroke="none"/>
  </g>
  <defs>
    <linearGradient gradientTransform="matrix(0.0, -0.0119, -0.0119, 0.0, 0.05, 8.6)" gradientUnits="userSpaceOnUse" id="gradient0" spreadMethod="pad" x1="-819.2" x2="819.2">
      <stop offset="0.0" stop-color="#d9d9d9"/>
      <stop offset="1.0" stop-color="#5a5a5a"/>
    </linearGradient>
  </defs>
</svg>
