<?xml version="1.0" encoding="UTF-8" standalone="no"?>
<svg xmlns:ffdec="https://www.free-decompiler.com/flash" xmlns:xlink="http://www.w3.org/1999/xlink" ffdec:objectType="shape" height="36.15px" width="58.25px" xmlns="http://www.w3.org/2000/svg">
  <g transform="matrix(1.0, 0.0, 0.0, 1.0, 30.15, 16.9)">
    <path d="M-26.95 -5.45 L-26.8 -5.55 -28.4 -2.65 -28.55 -2.45 -28.5 -2.4 -28.1 -1.9 -27.15 -1.0 -26.8 -0.45 Q-26.65 -0.05 -26.65 0.35 L-26.6 1.4 Q-26.55 2.45 -26.65 3.0 L-26.7 3.25 -26.95 3.65 -27.3 3.7 -28.65 2.85 -29.8 1.7 -30.15 -0.6 -30.0 -3.0 -28.25 -4.55 -26.95 -5.45 M-17.0 6.85 L-17.1 6.75 Q-16.8 5.7 -17.05 4.95 L-16.85 4.75 -16.5 4.6 Q-14.85 5.55 -10.85 7.3 L-9.75 7.8 -9.35 9.8 -9.3 8.0 -6.3 9.25 -5.55 9.5 Q-6.4 10.05 -6.6 11.65 -7.65 11.3 -11.9 9.35 L-17.0 6.85 M3.25 17.75 Q3.0 17.45 3.05 16.6 L3.15 15.05 3.5 14.7 4.35 14.55 5.6 15.25 7.25 15.8 7.7 15.8 8.55 15.7 7.7 15.85 7.65 15.85 7.7 15.95 Q8.2 16.45 9.05 16.65 L9.7 16.7 Q12.3 16.85 17.3 14.5 24.15 11.3 27.2 7.95 L27.2 6.45 26.95 6.0 26.5 5.9 26.9 5.4 26.95 5.2 Q27.25 5.25 27.75 5.65 L28.0 6.55 Q28.2 7.6 27.95 8.3 27.15 10.5 18.25 15.0 9.45 19.45 6.85 19.25 6.25 19.2 4.7 18.55 L3.35 17.85 3.25 17.75" fill="#222227" fill-rule="evenodd" stroke="none"/>
    <path d="M-28.4 -2.65 L-26.8 -5.55 -26.95 -5.45 -26.5 -6.2 Q-24.35 -9.7 -19.25 -12.55 -14.05 -15.45 -9.85 -15.4 -8.05 -15.45 -4.0 -14.1 1.7 -16.75 3.65 -16.9 4.8 -16.95 10.25 -14.3 15.5 -11.8 16.1 -11.15 17.2 -9.9 19.1 -6.2 L20.75 -2.95 24.95 -0.3 Q25.8 0.7 26.5 3.55 L26.9 5.4 26.5 5.9 26.3 6.0 26.15 6.15 25.85 4.45 25.4 2.6 Q24.8 0.5 23.9 0.0 L23.85 0.0 22.75 -0.75 20.4 -2.05 Q19.8 -1.2 12.85 2.45 5.55 6.3 2.75 6.85 3.9 7.75 5.6 8.6 L7.6 9.45 7.85 11.65 7.75 11.7 5.65 11.15 Q4.65 10.85 4.65 11.45 L4.65 13.45 Q4.7 14.75 4.9 14.85 L6.0 15.3 7.75 15.65 7.7 15.8 7.25 15.8 5.6 15.25 4.35 14.55 3.5 14.7 3.15 15.05 3.05 16.6 Q3.0 17.45 3.25 17.75 L0.9 17.2 Q0.9 14.0 -0.2 12.05 -1.25 10.25 -2.75 10.35 -4.2 10.35 -5.1 11.6 -5.8 12.55 -5.95 13.85 L-6.05 13.9 -6.7 13.6 -6.6 13.6 Q-6.55 11.95 -5.75 10.65 -4.95 9.35 -3.75 9.05 L-6.3 9.25 -9.3 8.0 Q-9.2 5.95 -8.7 3.15 L-8.55 2.25 -8.5 1.95 -7.5 -2.75 -7.0 -4.5 -6.9 -4.85 -6.85 -5.0 -7.0 -4.9 -7.25 -4.65 -8.0 -2.95 -9.05 1.3 -9.15 1.95 -9.35 2.85 Q-9.85 5.9 -9.75 7.8 L-10.85 7.3 Q-14.85 5.55 -16.5 4.6 L-16.85 4.75 -17.05 4.95 Q-16.8 5.7 -17.1 6.75 L-17.0 6.85 Q-17.3 7.15 -17.7 7.3 L-18.9 7.55 Q-18.85 5.1 -20.1 2.9 -21.35 0.75 -22.8 0.7 L-22.9 0.7 Q-24.25 0.75 -24.95 2.0 -25.45 2.9 -25.6 4.25 L-26.7 3.25 -26.65 3.0 Q-26.55 2.45 -26.6 1.4 L-26.65 0.35 Q-26.65 -0.05 -26.8 -0.45 L-27.15 -1.0 -28.1 -1.9 -28.5 -2.4 -28.4 -2.65 M-22.35 -6.45 L-20.2 -4.9 -18.25 -3.55 -16.4 -5.4 -21.65 -8.55 -21.85 -8.35 Q-23.0 -6.9 -22.35 -6.45 M-15.65 -3.8 L-16.85 -2.55 Q-15.2 -1.0 -10.3 1.4 L-9.5 -1.5 -8.9 -3.3 -8.35 -5.05 -8.25 -5.15 Q-11.05 -6.65 -11.65 -7.7 L-13.15 -6.3 -15.65 -3.8 M-19.9 0.15 L-22.45 0.05 Q-21.25 0.2 -20.1 1.35 -19.1 2.25 -18.7 3.3 -18.2 4.4 -17.7 4.15 -17.2 3.9 -17.8 2.65 -18.55 0.95 -19.9 0.15 M-20.6 -9.65 L-16.25 -5.55 -14.65 -7.05 -11.85 -9.55 Q-10.85 -10.5 -8.45 -11.85 L-14.05 -13.8 Q-16.2 -12.95 -18.7 -11.2 L-20.6 -9.65 M-2.75 -13.5 Q-8.0 -10.75 -7.9 -9.15 -7.85 -7.9 -5.45 -6.55 -2.95 -5.1 0.75 -4.3 3.3 -4.3 9.0 -7.5 14.45 -10.55 14.3 -11.3 14.15 -11.9 9.5 -14.05 4.95 -16.2 4.05 -16.2 2.15 -16.15 -2.75 -13.5 M-9.65 -14.45 L-12.2 -14.35 -8.35 -11.9 -4.95 -13.65 -5.45 -13.75 -9.65 -14.45 M-0.4 3.1 L-0.9 -2.25 Q-2.6 -2.45 -6.2 -4.15 L-6.25 -4.1 -6.7 -2.35 -7.15 -0.6 -7.8 2.6 Q-2.75 4.9 -0.25 5.2 L-0.4 3.1 M17.75 -6.45 L15.9 -9.2 Q15.1 -8.3 9.8 -5.65 4.45 -2.9 1.65 -2.05 L2.0 2.0 2.35 6.1 3.75 5.75 Q7.25 4.7 12.8 1.9 18.4 -0.95 19.85 -2.45 L17.75 -6.45 M19.85 10.1 L17.5 11.3 14.1 12.85 Q13.6 12.9 13.15 11.05 12.75 9.1 13.35 8.75 L20.2 5.25 Q20.75 4.95 20.95 7.0 21.15 9.0 20.85 9.45 L20.65 9.6 20.6 7.9 Q20.35 6.25 19.95 6.45 L13.7 9.65 Q13.45 9.8 13.65 11.4 13.85 12.85 14.1 12.85 L19.85 10.1 M-2.95 9.05 Q-1.75 9.2 -0.5 10.4 0.55 11.35 1.0 12.35 1.45 13.45 2.0 13.3 2.6 13.15 2.0 11.85 1.25 10.25 -0.3 9.35 -1.9 8.4 -2.95 9.05" fill="#8a2c34" fill-rule="evenodd" stroke="none"/>
    <path d="M7.7 15.8 L7.75 15.65 7.85 15.6 10.75 14.75 12.5 13.85 Q12.6 13.65 11.9 12.1 L11.0 10.45 Q10.9 10.35 7.85 11.65 L7.6 9.45 Q8.0 9.55 16.1 5.25 L24.2 0.5 23.85 0.0 23.9 0.0 Q24.8 0.5 25.4 2.6 L23.95 3.6 Q22.75 4.5 22.6 4.8 22.35 5.2 22.45 6.95 22.5 8.7 22.85 8.45 L26.1 6.1 25.85 4.45 26.15 6.15 Q22.9 9.1 16.25 12.45 11.15 15.0 8.55 15.7 L7.7 15.8 M-22.35 -6.45 Q-23.0 -6.9 -21.85 -8.35 L-21.65 -8.55 -16.4 -5.4 -18.25 -3.55 -20.2 -4.9 -22.35 -6.45 M-19.9 0.15 Q-18.55 0.95 -17.8 2.65 -17.2 3.9 -17.7 4.15 -18.2 4.4 -18.7 3.3 -19.1 2.25 -20.1 1.35 -21.25 0.2 -22.45 0.05 L-19.9 0.15 M-20.6 -9.65 L-18.7 -11.2 Q-16.2 -12.95 -14.05 -13.8 L-8.45 -11.85 Q-10.85 -10.5 -11.85 -9.55 L-14.65 -7.05 -16.25 -5.55 -20.6 -9.65 M-9.65 -14.45 L-5.45 -13.75 -4.95 -13.65 -8.35 -11.9 -12.2 -14.35 -9.65 -14.45 M20.65 9.6 L20.85 9.45 Q21.15 9.0 20.95 7.0 20.75 4.95 20.2 5.25 L13.35 8.75 Q12.75 9.1 13.15 11.05 13.6 12.9 14.1 12.85 L17.5 11.3 19.85 10.1 20.5 9.75 20.65 9.6 M-2.95 9.05 Q-1.9 8.4 -0.3 9.35 1.25 10.25 2.0 11.85 2.6 13.15 2.0 13.3 1.45 13.45 1.0 12.35 0.55 11.35 -0.5 10.4 -1.75 9.2 -2.95 9.05" fill="#b6414f" fill-rule="evenodd" stroke="none"/>
    <path d="M-8.9 -3.3 L-9.5 -1.5 -10.3 1.4 Q-15.2 -1.0 -16.85 -2.55 L-15.65 -3.8 Q-12.35 -4.5 -8.9 -3.3 M-0.4 3.1 L-0.25 5.2 Q-2.75 4.9 -7.8 2.6 L-7.15 -0.6 -6.7 -2.35 Q-3.0 -0.45 -0.4 3.1" fill="#6cc4e6" fill-rule="evenodd" stroke="none"/>
    <path d="M7.6 9.45 L5.6 8.6 Q3.9 7.75 2.75 6.85 5.55 6.3 12.85 2.45 19.8 -1.2 20.4 -2.05 L22.75 -0.75 23.85 0.0 24.2 0.5 16.1 5.25 Q8.0 9.55 7.6 9.45 M-2.75 -13.5 Q2.15 -16.15 4.05 -16.2 4.95 -16.2 9.5 -14.05 14.15 -11.9 14.3 -11.3 14.45 -10.55 9.0 -7.5 3.3 -4.3 0.75 -4.3 -2.95 -5.1 -5.45 -6.55 -7.85 -7.9 -7.9 -9.15 -8.0 -10.75 -2.75 -13.5 M8.85 -11.65 L9.3 -10.85 Q10.35 -9.9 11.55 -10.7 13.0 -11.6 11.45 -12.05 L9.1 -12.2 Q8.75 -12.05 8.85 -11.65 M22.45 -0.4 Q21.5 -0.95 21.15 -0.65 20.05 0.35 21.1 0.7 L22.85 0.55 Q23.35 0.1 22.45 -0.4" fill="#cd4f62" fill-rule="evenodd" stroke="none"/>
    <path d="M-8.9 -3.3 Q-12.35 -4.5 -15.65 -3.8 L-13.15 -6.3 -11.65 -7.7 Q-11.05 -6.65 -8.25 -5.15 L-8.35 -5.05 -8.9 -3.3 M-6.7 -2.35 L-6.25 -4.1 -6.2 -4.15 Q-2.6 -2.45 -0.9 -2.25 L-0.4 3.1 Q-3.0 -0.45 -6.7 -2.35 M3.75 5.75 Q3.15 0.3 7.75 -3.65 12.35 -7.55 17.75 -6.45 L19.85 -2.45 Q18.4 -0.95 12.8 1.9 7.25 4.7 3.75 5.75" fill="#9fe8ff" fill-rule="evenodd" stroke="none"/>
    <path d="M-25.6 4.25 Q-25.45 2.9 -24.95 2.0 -24.25 0.75 -22.9 0.7 -23.6 0.75 -24.2 1.65 -24.8 2.5 -25.1 3.95 L-25.6 4.25 M-18.9 7.55 L-17.7 7.3 Q-17.3 7.15 -17.0 6.85 L-11.9 9.35 Q-7.65 11.3 -6.6 11.65 -6.4 10.05 -5.55 9.5 L-6.3 9.25 -3.75 9.05 Q-4.95 9.35 -5.75 10.65 -6.55 11.95 -6.6 13.6 L-6.7 13.6 Q-8.05 13.35 -14.4 10.0 L-18.9 7.55 M-9.75 7.8 Q-9.85 5.9 -9.35 2.85 L-9.15 1.95 -9.05 1.3 -8.0 -2.95 -7.25 -4.65 -7.0 -4.9 -6.85 -5.0 -6.9 -4.85 -7.0 -4.5 -7.5 -2.75 -8.5 1.95 -8.55 2.25 -8.7 3.15 Q-9.2 5.95 -9.3 8.0 L-9.35 9.8 -9.75 7.8 M-5.95 13.85 Q-5.8 12.55 -5.1 11.6 -4.2 10.35 -2.75 10.35 -3.75 10.45 -4.4 11.25 -5.15 12.15 -5.35 13.6 L-5.95 13.85" fill="#590c15" fill-rule="evenodd" stroke="none"/>
    <path d="M8.85 -11.65 Q8.75 -12.05 9.1 -12.2 L11.45 -12.05 Q13.0 -11.6 11.55 -10.7 10.35 -9.9 9.3 -10.85 L8.85 -11.65 M3.75 5.75 L2.35 6.1 2.0 2.0 1.65 -2.05 Q4.45 -2.9 9.8 -5.65 15.1 -8.3 15.9 -9.2 L17.75 -6.45 Q12.35 -7.55 7.75 -3.65 3.15 0.3 3.75 5.75 M22.45 -0.4 Q23.35 0.1 22.85 0.55 L21.1 0.7 Q20.05 0.35 21.15 -0.65 21.5 -0.95 22.45 -0.4" fill="#fdfdfd" fill-rule="evenodd" stroke="none"/>
    <path d="M26.15 6.15 L26.3 6.0 26.5 5.9 26.95 6.0 27.2 6.45 27.2 7.95 Q24.15 11.3 17.3 14.5 12.3 16.85 9.7 16.7 L9.05 16.65 Q8.2 16.45 7.7 15.95 L7.65 15.85 7.7 15.85 8.55 15.7 Q11.15 15.0 16.25 12.45 22.9 9.1 26.15 6.15" fill="#595863" fill-rule="evenodd" stroke="none"/>
    <path d="M7.75 15.65 L6.0 15.3 4.9 14.85 Q4.7 14.75 4.65 13.45 L4.65 11.45 Q4.65 10.85 5.65 11.15 L7.75 11.7 7.85 11.65 Q10.9 10.35 11.0 10.45 L11.9 12.1 Q12.6 13.65 12.5 13.85 L10.75 14.75 7.85 15.6 7.75 15.65 M25.4 2.6 L25.85 4.45 26.1 6.1 22.85 8.45 Q22.5 8.7 22.45 6.95 22.35 5.2 22.6 4.8 22.75 4.5 23.95 3.6 L25.4 2.6 M25.75 4.6 Q25.55 3.5 25.35 3.35 25.15 3.25 24.3 3.85 L23.25 4.85 23.05 6.2 Q23.0 7.3 23.4 7.35 L24.7 6.75 25.75 5.85 25.75 4.6 M8.1 12.2 Q7.85 12.5 8.05 13.45 8.2 14.45 8.65 14.7 L10.3 14.55 11.75 13.95 Q12.0 13.75 11.7 12.75 L11.0 11.35 9.5 11.4 Q8.4 11.8 8.1 12.2" fill="#c7411a" fill-rule="evenodd" stroke="none"/>
    <path d="M25.75 4.6 L25.75 5.85 24.7 6.75 23.4 7.35 Q23.0 7.3 23.05 6.2 L23.25 4.85 24.3 3.85 Q25.15 3.25 25.35 3.35 25.55 3.5 25.75 4.6 M8.1 12.2 Q8.4 11.8 9.5 11.4 L11.0 11.35 11.7 12.75 Q12.0 13.75 11.75 13.95 L10.3 14.55 8.65 14.7 Q8.2 14.45 8.05 13.45 7.85 12.5 8.1 12.2" fill="#f7603b" fill-rule="evenodd" stroke="none"/>
    <path d="M20.65 9.6 L20.5 9.75 19.85 10.1 14.1 12.85 Q13.85 12.85 13.65 11.4 13.45 9.8 13.7 9.65 L19.95 6.45 Q20.35 6.25 20.6 7.9 L20.65 9.6" fill="#d1dfe3" fill-rule="evenodd" stroke="none"/>
  </g>
</svg>
