<?xml version="1.0" encoding="UTF-8" standalone="no"?>
<svg xmlns:ffdec="https://www.free-decompiler.com/flash" xmlns:xlink="http://www.w3.org/1999/xlink" ffdec:objectType="shape" height="47.85px" width="47.65px" xmlns="http://www.w3.org/2000/svg">
  <g transform="matrix(1.0, 0.0, 0.0, 1.0, 16.15, 16.3)">
    <path d="M-15.55 -9.5 Q-15.3 -8.9 -14.75 -8.6 L-14.75 -7.7 Q-15.6 -8.25 -15.6 -9.25 L-15.55 -9.5" fill="#000000" fill-rule="evenodd" stroke="none"/>
    <path d="M16.0 -10.0 L16.15 -9.25 Q16.15 -8.2 15.25 -7.65 L15.25 -5.2 15.15 -5.3 15.15 -8.65 Q15.9 -9.1 16.0 -10.0" fill="#000000" fill-rule="evenodd" stroke="none"/>
    <path d="M15.8 11.45 L14.9 12.1 Q14.0 14.3 11.9 15.1 L11.25 16.05 Q10.75 16.4 10.1 16.4 9.0 16.4 8.45 15.45 L5.2 15.45 Q4.65 16.4 3.55 16.4 2.45 16.4 1.95 15.45 L-1.35 15.45 Q-1.85 16.4 -2.95 16.4 -4.1 16.4 -4.6 15.45 L-7.85 15.45 Q-8.4 16.4 -9.5 16.4 L-10.6 16.05 -11.3 15.1 Q-13.4 14.25 -14.25 12.15 L-15.2 11.5 Q-15.6 11.0 -15.6 10.35 L-15.55 10.1 Q-15.15 10.9 -14.4 11.15 -13.5 13.25 -11.45 14.05 L-10.75 15.05 Q-10.25 15.45 -9.65 15.45 -8.5 15.45 -8.0 14.45 L-4.75 14.45 Q-4.2 15.45 -3.1 15.45 -2.0 15.45 -1.5 14.45 L1.8 14.45 Q2.35 15.45 3.4 15.45 4.55 15.45 5.05 14.45 L8.3 14.45 Q8.9 15.45 9.95 15.45 10.6 15.45 11.1 15.05 L11.75 14.1 Q13.95 13.25 14.75 11.15 15.85 10.75 16.0 9.6 L16.15 10.35 Q16.15 11.0 15.8 11.45" fill="#000000" fill-rule="evenodd" stroke="none"/>
    <path d="M16.0 3.1 L16.15 3.85 Q16.15 4.85 15.25 5.4 L15.25 7.85 15.15 7.8 15.15 4.4 Q15.9 3.95 16.0 3.1" fill="#000000" fill-rule="evenodd" stroke="none"/>
    <path d="M16.0 -3.45 L16.15 -2.7 Q16.15 -1.65 15.25 -1.15 L15.25 1.35 15.15 1.25 15.15 -2.1 Q15.9 -2.6 16.0 -3.45" fill="#000000" fill-rule="evenodd" stroke="none"/>
    <path d="M-16.0 3.55 Q-15.65 4.4 -14.75 4.65 L-14.75 5.6 -15.65 4.95 Q-16.05 4.45 -16.05 3.85 L-16.0 3.55" fill="#000000" fill-rule="evenodd" stroke="none"/>
    <path d="M-16.0 -2.95 Q-15.65 -2.15 -14.75 -1.9 L-14.75 -0.9 -15.65 -1.6 Q-16.05 -2.1 -16.05 -2.7 L-16.0 -2.95" fill="#000000" fill-rule="evenodd" stroke="none"/>
    <path d="M11.85 -10.2 Q11.85 -11.0 11.3 -11.6 10.7 -12.2 9.9 -12.2 L-9.5 -12.2 Q-10.35 -12.2 -10.9 -11.6 -11.5 -11.0 -11.5 -10.2 L-11.5 9.15 Q-11.5 10.0 -10.9 10.55 -10.35 11.15 -9.5 11.15 L9.9 11.15 Q10.7 11.15 11.3 10.55 11.85 10.0 11.85 9.15 L11.85 -10.2 M4.75 -13.1 Q5.3 -13.65 5.3 -14.45 L5.0 -15.5 8.4 -15.5 Q8.1 -15.05 8.1 -14.45 8.1 -13.65 8.65 -13.1 9.2 -12.55 9.95 -12.55 10.75 -12.55 11.3 -13.1 11.85 -13.65 11.85 -14.45 L11.7 -15.15 13.65 -13.9 14.85 -11.95 14.15 -12.1 Q13.4 -12.1 12.85 -11.55 12.3 -11.0 12.3 -10.25 12.3 -9.5 12.85 -8.9 13.4 -8.4 14.15 -8.4 L15.15 -8.65 15.15 -5.3 14.15 -5.55 Q13.4 -5.55 12.85 -5.0 12.3 -4.5 12.3 -3.7 12.3 -2.95 12.85 -2.4 13.4 -1.85 14.15 -1.85 L15.15 -2.1 15.15 1.25 14.15 1.0 Q13.4 1.0 12.85 1.5 12.3 2.05 12.3 2.8 12.3 3.6 12.85 4.15 13.4 4.7 14.15 4.7 L15.15 4.4 15.15 7.8 14.15 7.5 Q13.4 7.5 12.85 8.05 12.3 8.6 12.3 9.35 12.3 10.1 12.85 10.7 13.4 11.2 14.15 11.2 L14.75 11.15 Q13.95 13.25 11.75 14.1 L11.85 13.55 Q11.85 12.8 11.3 12.25 10.75 11.7 9.95 11.7 9.2 11.7 8.65 12.25 8.1 12.8 8.1 13.55 L8.3 14.45 5.05 14.45 5.3 13.55 Q5.3 12.8 4.75 12.25 4.2 11.7 3.4 11.7 2.65 11.7 2.1 12.25 1.6 12.8 1.6 13.55 L1.8 14.45 -1.5 14.45 -1.25 13.55 Q-1.25 12.8 -1.8 12.25 -2.35 11.7 -3.1 11.7 -3.9 11.7 -4.4 12.25 -4.95 12.8 -4.95 13.55 L-4.75 14.45 -8.0 14.45 -7.75 13.55 Q-7.75 12.8 -8.3 12.25 -8.85 11.7 -9.65 11.7 -10.4 11.7 -10.95 12.25 -11.5 12.8 -11.5 13.55 L-11.45 14.05 Q-13.5 13.25 -14.4 11.15 L-13.85 11.2 Q-13.05 11.2 -12.5 10.7 -11.95 10.1 -11.95 9.35 -11.95 8.6 -12.5 8.05 -13.05 7.5 -13.85 7.5 L-14.75 7.75 -14.75 4.65 -14.3 4.7 Q-13.55 4.7 -12.95 4.15 -12.45 3.6 -12.45 2.8 -12.45 2.05 -12.95 1.5 -13.55 1.0 -14.3 1.0 L-14.75 1.05 -14.75 -1.9 -14.3 -1.85 Q-13.55 -1.85 -12.95 -2.4 -12.45 -2.95 -12.45 -3.7 -12.45 -4.5 -12.95 -5.0 -13.55 -5.55 -14.3 -5.55 L-14.75 -5.5 -14.75 -8.6 -13.85 -8.4 Q-13.05 -8.4 -12.5 -8.9 -11.95 -9.5 -11.95 -10.25 -11.95 -11.0 -12.5 -11.55 -13.05 -12.1 -13.85 -12.1 L-14.45 -12.0 Q-14.05 -13.05 -13.25 -13.9 -12.45 -14.75 -11.35 -15.1 L-11.5 -14.45 Q-11.5 -13.65 -10.95 -13.1 -10.4 -12.55 -9.65 -12.55 -8.85 -12.55 -8.3 -13.1 -7.75 -13.65 -7.75 -14.45 -7.75 -14.95 -8.05 -15.5 L-4.65 -15.5 -4.95 -14.45 Q-4.95 -13.65 -4.4 -13.1 -3.9 -12.55 -3.1 -12.55 -2.35 -12.55 -1.8 -13.1 -1.25 -13.65 -1.25 -14.45 L-1.55 -15.5 1.9 -15.5 Q1.6 -14.95 1.6 -14.45 1.6 -13.65 2.1 -13.1 2.65 -12.55 3.4 -12.55 4.2 -12.55 4.75 -13.1" fill="#825428" fill-rule="evenodd" stroke="none"/>
    <path d="M9.9 -12.2 Q10.7 -12.2 11.3 -11.6 11.85 -11.0 11.85 -10.2 L11.85 9.15 Q11.85 10.0 11.3 10.55 10.7 11.15 9.9 11.15 L-9.5 11.15 Q-10.35 11.15 -10.9 10.55 -11.5 10.0 -11.5 9.15 L-11.5 -10.2 Q-11.5 -11.0 -10.9 -11.6 -10.35 -12.2 -9.5 -12.2 L9.9 -12.2 M11.55 -10.2 Q11.55 -10.85 11.05 -11.4 10.6 -11.85 9.9 -11.85 L-9.5 -11.85 Q-10.2 -11.85 -10.65 -11.4 -11.15 -10.85 -11.15 -10.2 L-11.15 9.15 Q-11.15 9.85 -10.65 10.35 -10.2 10.85 -9.5 10.85 L9.9 10.85 Q10.6 10.85 11.05 10.35 11.55 9.85 11.55 9.15 L11.55 -10.2" fill="#000000" fill-rule="evenodd" stroke="none"/>
    <path d="M9.9 -11.85 Q10.6 -11.85 11.05 -11.4 11.55 -10.85 11.55 -10.2 L11.55 9.15 Q11.55 9.85 11.05 10.35 10.6 10.85 9.9 10.85 L-9.5 10.85 Q-10.2 10.85 -10.65 10.35 -11.15 9.85 -11.15 9.15 L-11.15 -10.2 Q-11.15 -10.85 -10.65 -11.4 -10.2 -11.85 -9.5 -11.85 L9.9 -11.85 M10.25 -9.85 L9.95 -10.85 9.35 -10.8 6.05 -10.0 Q4.15 -9.25 3.65 -7.85 L2.05 -4.05 0.15 -5.0 -1.1 -4.85 -2.35 -4.3 -2.65 -4.65 -3.65 -6.1 -5.15 -8.1 Q-7.05 -10.25 -8.7 -10.5 L-9.15 -10.35 -9.45 -9.85 -9.8 -8.8 Q-10.0 -7.95 -9.8 -7.15 -9.45 -6.1 -8.0 -5.25 L-6.85 -4.75 -5.75 -4.2 -5.2 -3.7 -4.95 -3.35 -4.85 -3.1 Q-4.75 -3.0 -5.0 -2.75 L-6.95 -0.5 -7.75 0.6 -8.0 1.1 -7.8 1.55 -5.65 3.3 -2.85 5.2 -2.55 5.45 Q-1.9 6.4 -2.1 7.25 -2.3 8.3 -3.05 9.2 L-3.55 9.75 -3.3 10.1 0.85 10.1 1.1 10.15 1.3 10.1 1.8 8.9 Q1.8 8.75 2.25 8.7 L2.75 8.7 3.95 9.0 2.5 9.45 2.0 9.6 2.1 10.0 2.75 10.1 6.65 10.1 6.95 10.0 7.4 9.3 Q7.45 9.2 7.6 9.2 L7.9 9.25 8.65 9.2 Q9.7 9.1 10.05 8.2 10.3 7.6 10.0 6.9 L9.1 5.8 Q8.3 5.2 7.4 5.45 6.55 5.6 5.9 6.4 4.8 5.5 4.55 4.45 4.35 3.65 4.55 3.25 L5.9 0.85 6.1 0.45 6.1 0.1 4.9 -1.85 5.85 -2.75 7.9 -4.15 Q9.45 -5.4 10.05 -7.75 10.35 -8.95 10.25 -9.85" fill="#f2f2f2" fill-rule="evenodd" stroke="none"/>
    <path d="M-4.15 1.2 L-4.5 1.1 -4.35 1.15 -4.15 1.2" fill="#f2f2f2" fill-rule="evenodd" stroke="none"/>
    <path d="M-12.5 -11.55 Q-11.95 -11.0 -11.95 -10.25 -11.95 -9.5 -12.5 -8.9 -13.05 -8.4 -13.85 -8.4 L-14.75 -8.6 Q-15.3 -8.9 -15.55 -9.5 L-15.7 -10.25 -15.35 -11.3 -14.45 -12.0 -13.85 -12.1 Q-13.05 -12.1 -12.5 -11.55" fill="#ffdb00" fill-rule="evenodd" stroke="none"/>
    <path d="M8.1 -14.45 Q8.1 -15.05 8.4 -15.5 8.95 -16.3 9.95 -16.3 11.2 -16.3 11.7 -15.15 L11.85 -14.45 Q11.85 -13.65 11.3 -13.1 10.75 -12.55 9.95 -12.55 9.2 -12.55 8.65 -13.1 8.1 -13.65 8.1 -14.45" fill="#ffdb00" fill-rule="evenodd" stroke="none"/>
    <path d="M-4.95 -14.45 L-4.65 -15.5 Q-4.1 -16.3 -3.1 -16.3 -2.05 -16.3 -1.55 -15.5 L-1.25 -14.45 Q-1.25 -13.65 -1.8 -13.1 -2.35 -12.55 -3.1 -12.55 -3.9 -12.55 -4.4 -13.1 -4.95 -13.65 -4.95 -14.45" fill="#ffdb00" fill-rule="evenodd" stroke="none"/>
    <path d="M-8.05 -15.5 Q-7.75 -14.95 -7.75 -14.45 -7.75 -13.65 -8.3 -13.1 -8.85 -12.55 -9.65 -12.55 -10.4 -12.55 -10.95 -13.1 -11.5 -13.65 -11.5 -14.45 L-11.35 -15.1 -10.7 -16.0 -9.65 -16.3 Q-8.6 -16.3 -8.05 -15.5" fill="#ffffff" fill-rule="evenodd" stroke="none"/>
    <path d="M1.6 -14.45 Q1.6 -14.95 1.9 -15.5 2.4 -16.3 3.4 -16.3 4.4 -16.3 5.0 -15.5 L5.3 -14.45 Q5.3 -13.65 4.75 -13.1 4.2 -12.55 3.4 -12.55 2.65 -12.55 2.1 -13.1 1.6 -13.65 1.6 -14.45" fill="#ffffff" fill-rule="evenodd" stroke="none"/>
    <path d="M16.05 -10.25 L16.0 -10.0 Q15.9 -9.1 15.15 -8.65 L14.15 -8.4 Q13.4 -8.4 12.85 -8.9 12.3 -9.5 12.3 -10.25 12.3 -11.0 12.85 -11.55 13.4 -12.1 14.15 -12.1 L14.85 -11.95 15.7 -11.3 16.05 -10.25" fill="#ffffff" fill-rule="evenodd" stroke="none"/>
    <path d="M14.15 7.5 L15.15 7.8 15.25 7.85 Q16.05 8.45 16.05 9.35 L16.0 9.6 Q15.85 10.75 14.75 11.15 L14.15 11.2 Q13.4 11.2 12.85 10.7 12.3 10.1 12.3 9.35 12.3 8.6 12.85 8.05 13.4 7.5 14.15 7.5" fill="#ffdb00" fill-rule="evenodd" stroke="none"/>
    <path d="M-7.75 13.55 L-8.0 14.45 Q-8.5 15.45 -9.65 15.45 -10.25 15.45 -10.75 15.05 L-11.45 14.05 -11.5 13.55 Q-11.5 12.8 -10.95 12.25 -10.4 11.7 -9.65 11.7 -8.85 11.7 -8.3 12.25 -7.75 12.8 -7.75 13.55" fill="#ffdb00" fill-rule="evenodd" stroke="none"/>
    <path d="M5.3 13.55 L5.05 14.45 Q4.55 15.45 3.4 15.45 2.35 15.45 1.8 14.45 L1.6 13.55 Q1.6 12.8 2.1 12.25 2.65 11.7 3.4 11.7 4.2 11.7 4.75 12.25 5.3 12.8 5.3 13.55" fill="#ffdb00" fill-rule="evenodd" stroke="none"/>
    <path d="M9.95 11.7 Q10.75 11.7 11.3 12.25 11.85 12.8 11.85 13.55 L11.75 14.1 11.1 15.05 Q10.6 15.45 9.95 15.45 8.9 15.45 8.3 14.45 L8.1 13.55 Q8.1 12.8 8.65 12.25 9.2 11.7 9.95 11.7" fill="#ffffff" fill-rule="evenodd" stroke="none"/>
    <path d="M-1.25 13.55 L-1.5 14.45 Q-2.0 15.45 -3.1 15.45 -4.2 15.45 -4.75 14.45 L-4.95 13.55 Q-4.95 12.8 -4.4 12.25 -3.9 11.7 -3.1 11.7 -2.35 11.7 -1.8 12.25 -1.25 12.8 -1.25 13.55" fill="#ffffff" fill-rule="evenodd" stroke="none"/>
    <path d="M16.05 2.8 L16.0 3.1 Q15.9 3.95 15.15 4.4 L14.15 4.7 Q13.4 4.7 12.85 4.15 12.3 3.6 12.3 2.8 12.3 2.05 12.85 1.5 13.4 1.0 14.15 1.0 L15.15 1.25 15.25 1.35 Q16.05 1.95 16.05 2.8" fill="#ffffff" fill-rule="evenodd" stroke="none"/>
    <path d="M16.05 -3.7 L16.0 -3.45 Q15.9 -2.6 15.15 -2.1 L14.15 -1.85 Q13.4 -1.85 12.85 -2.4 12.3 -2.95 12.3 -3.7 12.3 -4.5 12.85 -5.0 13.4 -5.55 14.15 -5.55 L15.15 -5.3 15.25 -5.2 Q16.05 -4.6 16.05 -3.7" fill="#ffdb00" fill-rule="evenodd" stroke="none"/>
    <path d="M-14.75 4.65 Q-15.65 4.4 -16.0 3.55 L-16.15 2.8 Q-16.15 2.2 -15.75 1.7 -15.35 1.2 -14.75 1.05 L-14.3 1.0 Q-13.55 1.0 -12.95 1.5 -12.45 2.05 -12.45 2.8 -12.45 3.6 -12.95 4.15 -13.55 4.7 -14.3 4.7 L-14.75 4.65" fill="#ffdb00" fill-rule="evenodd" stroke="none"/>
    <path d="M-12.95 -5.0 Q-12.45 -4.5 -12.45 -3.7 -12.45 -2.95 -12.95 -2.4 -13.55 -1.85 -14.3 -1.85 L-14.75 -1.9 Q-15.65 -2.15 -16.0 -2.95 L-16.15 -3.7 Q-16.15 -4.35 -15.75 -4.85 -15.35 -5.35 -14.75 -5.5 L-14.3 -5.55 Q-13.55 -5.55 -12.95 -5.0" fill="#ffffff" fill-rule="evenodd" stroke="none"/>
    <path d="M-13.85 7.5 Q-13.05 7.5 -12.5 8.05 -11.95 8.6 -11.95 9.35 -11.95 10.1 -12.5 10.7 -13.05 11.2 -13.85 11.2 L-14.4 11.15 Q-15.15 10.9 -15.55 10.1 L-15.7 9.35 Q-15.7 8.3 -14.75 7.75 L-13.85 7.5" fill="#ffffff" fill-rule="evenodd" stroke="none"/>
    <path d="M9.65 8.05 L9.65 8.1 9.6 8.2 9.5 8.3 9.45 8.35 9.35 8.45 9.25 8.5 9.2 8.6 9.1 8.65 8.6 8.85 8.2 8.9 7.05 8.95 6.4 8.6 6.8 9.4 6.8 9.55 6.5 9.75 6.0 9.8 5.7 9.75 5.0 9.75 Q5.75 9.1 5.9 8.2 L6.25 8.4 6.0 7.5 6.5 7.95 Q7.0 8.15 7.6 7.95 8.2 7.8 8.45 7.25 L8.45 6.55 8.05 5.75 Q8.85 5.95 9.4 6.6 9.85 7.3 9.65 8.05" fill="#d9cea9" fill-rule="evenodd" stroke="none"/>
    <path d="M0.55 4.65 Q2.25 3.9 3.45 2.35 4.8 0.6 4.7 -1.2 L5.55 0.15 5.55 0.25 3.65 3.95 3.25 4.5 4.15 4.65 4.4 5.15 Q1.5 4.4 -1.1 5.95 -1.9 6.5 -1.2 7.55 L-1.8 7.3 -1.3 7.95 Q-1.15 8.3 -1.5 8.8 L-2.2 9.6 -2.75 9.75 Q-2.05 8.5 -1.85 7.25 L-1.8 7.05 -1.8 7.0 -1.8 6.4 -1.8 6.3 -1.8 6.15 -1.7 6.05 -0.95 5.8 Q-2.25 5.3 -3.15 4.7 -1.0 5.6 0.55 4.65" fill="#d9cea9" fill-rule="evenodd" stroke="none"/>
    <path d="M1.6 8.65 L1.5 8.75 1.45 8.75 0.85 9.75 0.4 9.8 -0.1 9.75 -0.15 9.75 Q1.05 9.05 1.55 7.75 L1.65 7.95 2.3 8.5 1.8 8.6 1.6 8.65" fill="#d9cea9" fill-rule="evenodd" stroke="none"/>
    <path d="M-3.7 1.4 L-3.55 1.4 -3.4 1.35 -3.3 1.45 -3.3 1.55 -3.25 1.65 -3.2 1.7 -3.2 1.75 -3.1 1.85 Q-3.8 1.8 -4.2 1.35 L-4.1 1.4 -4.0 1.4 -3.7 1.4" fill="#d9cea9" fill-rule="evenodd" stroke="none"/>
    <path d="M-2.2 3.1 L-2.15 3.1 0.0 2.7 0.2 2.5 Q0.4 2.8 0.2 3.0 -1.1 3.65 -2.1 3.65 -1.9 3.45 -2.2 3.1" fill="#d9cea9" fill-rule="evenodd" stroke="none"/>
    <path d="M8.65 -10.3 L8.75 -10.3 8.85 -10.3 9.55 -10.45 9.65 -10.35 9.7 -10.3 9.7 -10.2 9.75 -9.95 9.8 -8.65 9.7 -8.1 9.65 -7.9 9.65 -7.7 9.35 -7.0 Q8.85 -5.75 7.9 -4.8 L7.5 -4.45 6.25 -3.65 6.2 -3.65 5.75 -3.35 5.7 -3.3 4.95 -2.7 4.85 -2.6 4.5 -2.25 4.45 -2.2 4.45 -2.15 4.3 -2.0 4.25 -1.95 4.15 -1.95 5.6 -4.05 6.6 -4.75 6.65 -4.8 7.2 -5.1 7.25 -5.15 Q7.6 -5.3 7.8 -5.6 L8.05 -5.85 Q8.85 -6.8 9.2 -8.45 L9.25 -8.7 8.5 -8.5 Q9.45 -9.3 8.65 -10.3" fill="#d9cea9" fill-rule="evenodd" stroke="none"/>
    <path d="M1.8 0.2 Q2.25 -0.2 2.25 -0.8 L1.8 -1.8 Q1.45 -2.2 0.85 -2.2 0.25 -2.2 -0.15 -1.8 L-0.55 -0.8 Q-0.55 -0.2 -0.15 0.2 0.25 0.6 0.85 0.6 1.45 0.6 1.8 0.2 M-4.5 1.2 L-4.5 1.25 -4.25 1.35 -4.2 1.35 Q-3.8 1.8 -3.1 1.85 L-2.95 2.15 -2.65 2.65 -2.6 2.75 -2.5 2.95 -2.2 3.1 Q-1.9 3.45 -2.1 3.65 -1.1 3.65 0.2 3.0 0.4 2.8 0.2 2.5 L-0.25 1.4 -0.35 1.25 -0.6 0.6 -0.65 0.45 -0.7 0.45 Q-0.75 0.3 -0.95 0.3 L-1.2 0.35 -1.95 0.6 -3.1 1.0 -4.35 1.15 -4.5 1.1 -4.6 1.0 -4.55 1.1 -4.5 1.2 M7.5 -10.0 L8.65 -10.3 Q9.45 -9.3 8.5 -8.5 L7.05 -7.75 7.0 -7.7 6.05 -6.85 Q5.05 -5.7 4.3 -3.25 L4.2 -3.1 5.3 -3.9 5.4 -3.9 5.6 -4.05 4.15 -1.95 4.25 -1.95 4.2 -1.9 4.3 -1.8 4.7 -1.2 Q4.8 0.6 3.45 2.35 2.25 3.9 0.55 4.65 -1.05 5.6 -3.25 4.65 L-5.55 2.9 -6.95 1.7 -7.35 1.25 -7.35 1.2 -7.5 1.0 -6.4 -0.55 -5.6 -1.5 -4.25 -2.7 -2.15 -4.0 -0.6 -4.55 -0.25 -4.6 -0.05 -4.6 Q1.05 -4.05 2.1 -3.55 L2.25 -3.65 2.35 -3.85 2.4 -3.9 2.65 -4.3 3.7 -6.7 4.3 -8.0 4.3 -8.05 4.6 -8.4 4.65 -8.45 5.2 -8.9 5.35 -9.0 5.85 -9.25 6.3 -9.55 7.5 -10.0" fill="#fff4cf" fill-rule="evenodd" stroke="none"/>
    <path d="M5.5 6.55 L5.5 6.6 5.55 6.6 5.7 6.75 5.7 6.85 5.6 7.0 5.55 7.35 5.55 7.4 5.55 7.7 5.7 7.95 5.7 8.0 5.9 8.2 Q5.75 9.1 5.0 9.75 L3.05 9.75 4.75 8.95 4.5 8.75 4.4 8.75 4.25 8.7 4.0 8.6 3.7 8.55 2.9 8.25 2.45 8.0 2.35 7.95 2.25 7.85 2.05 7.65 1.95 7.55 1.8 7.25 1.8 7.1 1.8 7.0 1.9 6.7 1.85 6.75 1.5 7.2 1.5 7.5 1.55 7.75 Q1.05 9.05 -0.15 9.75 L-1.2 9.75 -0.95 9.4 -1.0 9.55 0.15 8.0 -0.7 7.8 -0.75 7.8 -0.8 7.75 -1.2 7.55 Q-1.9 6.5 -1.1 5.95 1.5 4.4 4.4 5.15 L4.45 5.25 4.45 5.3 4.5 5.35 4.95 6.0 5.5 6.55" fill="#fff4cf" fill-rule="evenodd" stroke="none"/>
    <path d="M8.05 5.75 L8.45 6.55 8.45 7.25 Q8.2 7.8 7.6 7.95 7.0 8.15 6.5 7.95 L6.0 7.5 Q6.0 6.95 6.3 6.45 6.85 5.8 7.5 5.75 L7.8 5.75 8.05 5.75" fill="#fff4cf" fill-rule="evenodd" stroke="none"/>
    <path d="M9.75 -9.95 L9.7 -10.2 9.7 -10.3 9.65 -10.35 9.55 -10.45 8.85 -10.3 8.75 -10.3 7.0 -9.8 6.3 -9.55 5.85 -9.25 5.7 -9.25 5.2 -8.9 4.65 -8.45 4.6 -8.4 4.3 -8.05 4.3 -8.0 3.6 -6.45 2.35 -3.85 2.25 -3.65 2.1 -3.55 1.5 -3.9 -0.05 -4.6 -0.25 -4.6 -0.6 -4.55 -1.15 -4.35 -1.35 -4.35 -2.15 -4.0 -3.05 -3.5 -4.7 -2.3 -6.6 -0.4 -7.5 1.0 -7.35 1.2 -7.35 1.25 -6.95 1.7 -5.55 2.9 -3.25 4.65 -3.2 4.65 -2.75 4.95 -0.95 5.8 -1.7 6.05 -1.8 6.15 -1.8 6.3 -1.8 6.4 -1.8 7.0 -1.8 7.05 -1.85 7.25 Q-2.0 8.4 -2.75 9.75 L-2.2 9.6 -1.5 8.8 Q-1.15 8.3 -1.3 7.95 L-1.8 7.3 -0.7 7.8 0.15 8.0 -1.0 9.55 -0.95 9.4 -1.2 9.75 -0.1 9.75 0.4 9.8 0.85 9.75 1.5 8.75 1.6 8.65 1.8 8.6 2.3 8.5 1.65 7.95 1.55 7.75 1.5 7.5 1.5 7.2 1.85 6.75 1.9 6.7 1.8 7.0 1.8 7.1 1.8 7.25 1.95 7.55 2.05 7.65 2.25 7.85 2.35 7.95 2.45 8.0 2.9 8.25 3.1 8.35 3.15 8.35 3.7 8.55 4.0 8.6 4.25 8.7 4.3 8.7 4.5 8.75 4.75 8.95 3.05 9.75 5.7 9.75 6.0 9.8 6.5 9.75 6.8 9.55 6.8 9.4 6.4 8.6 7.05 8.95 8.25 8.9 8.4 8.9 8.6 8.85 8.8 8.8 9.0 8.7 9.05 8.7 9.1 8.65 9.2 8.6 9.25 8.5 9.35 8.45 9.45 8.35 9.5 8.3 9.6 8.2 9.65 8.1 9.65 8.05 Q9.85 7.3 9.4 6.6 8.7 5.75 7.8 5.75 L7.5 5.75 Q6.8 5.8 6.3 6.45 6.0 6.95 6.0 7.5 L6.25 8.4 5.9 8.2 5.7 8.0 5.7 7.95 5.55 7.7 5.55 7.4 5.55 7.35 5.6 7.0 5.7 6.85 5.7 6.75 5.5 6.6 5.5 6.55 4.95 6.0 4.5 5.35 4.45 5.3 4.45 5.25 4.4 5.15 4.15 4.65 3.25 4.5 3.65 3.95 5.25 0.9 5.35 0.75 5.55 0.25 5.55 0.15 5.05 -0.7 4.6 -1.45 4.55 -1.45 4.35 -1.8 4.3 -2.0 5.25 -2.95 5.7 -3.3 5.75 -3.35 6.2 -3.65 6.25 -3.65 7.5 -4.45 7.75 -4.65 7.9 -4.8 Q8.85 -5.75 9.35 -7.0 L9.65 -7.7 9.65 -7.9 9.7 -8.1 9.75 -9.95 M6.05 -10.0 L9.35 -10.8 9.95 -10.85 10.25 -9.85 Q10.35 -8.95 10.05 -7.75 9.45 -5.4 7.9 -4.15 L5.85 -2.75 4.9 -1.85 6.1 0.1 6.1 0.45 5.9 0.85 4.55 3.25 Q4.35 3.65 4.55 4.45 4.8 5.5 5.9 6.4 6.55 5.6 7.4 5.45 8.3 5.2 9.1 5.8 L10.0 6.9 Q10.3 7.6 10.05 8.2 9.7 9.1 8.65 9.2 L7.9 9.25 7.6 9.2 Q7.45 9.2 7.4 9.3 L6.95 10.0 6.65 10.1 2.75 10.1 2.1 10.0 2.0 9.6 2.5 9.45 3.95 9.0 2.75 8.7 2.25 8.7 Q1.8 8.75 1.8 8.9 L1.3 10.1 1.1 10.15 0.85 10.1 -3.3 10.1 -3.55 9.75 -3.05 9.2 Q-2.3 8.3 -2.1 7.25 -1.9 6.4 -2.55 5.45 L-2.85 5.2 -5.65 3.3 -7.8 1.55 -8.0 1.1 -7.75 0.6 -6.95 -0.5 -5.0 -2.75 Q-4.75 -3.0 -4.85 -3.1 L-4.95 -3.35 -5.2 -3.7 -5.75 -4.2 -6.85 -4.75 -8.0 -5.25 Q-9.45 -6.1 -9.8 -7.15 -10.0 -7.95 -9.8 -8.8 L-9.45 -9.85 -9.15 -10.35 -8.7 -10.5 Q-7.05 -10.25 -5.15 -8.1 L-3.65 -6.1 -2.65 -4.65 -2.35 -4.3 -1.1 -4.85 0.15 -5.0 2.05 -4.05 3.65 -7.85 Q4.15 -9.25 6.05 -10.0" fill="#8b7d4c" fill-rule="evenodd" stroke="none"/>
    <path d="M-1.9 0.95 L-1.85 1.0 -1.45 1.65 -1.45 1.7 -1.4 1.7 -1.05 2.45 -1.05 2.6 -0.3 2.45 -0.45 2.05 -0.9 1.1 -1.05 0.7 -1.2 0.7 -1.9 0.95 M-2.3 1.1 L-2.35 1.1 -3.0 1.3 -2.75 1.7 -2.1 2.7 -2.05 2.8 -1.4 2.65 -1.5 2.5 -1.85 1.8 -1.9 1.7 -1.95 1.7 -1.95 1.65 -2.25 1.15 -2.3 1.1 M-4.5 1.25 L-4.5 1.2 -4.55 1.1 -4.6 1.0 -4.5 1.1 -3.1 1.0 -1.95 0.6 -1.2 0.35 -0.95 0.3 Q-0.75 0.3 -0.7 0.45 L-0.65 0.45 -0.6 0.7 -0.5 0.85 -0.35 1.25 -0.3 1.3 0.2 2.5 0.0 2.7 -2.15 3.1 -2.5 2.95 -2.65 2.65 -3.25 1.65 -3.3 1.55 -3.4 1.35 -3.55 1.4 -3.7 1.4 -4.0 1.4 -4.1 1.4 -4.25 1.35 -4.5 1.25" fill="#8b7d4c" fill-rule="evenodd" stroke="none"/>
    <path d="M-1.2 0.7 L-1.05 0.7 -1.05 0.75 -1.0 0.85 -0.9 1.1 -1.55 1.45 -1.85 1.0 -1.9 0.95 -1.2 0.7" fill="#cfdae5" fill-rule="evenodd" stroke="none"/>
    <path d="M-3.0 1.3 L-2.3 1.1 -2.25 1.15 -1.95 1.65 -2.75 1.7 -3.0 1.3" fill="#cfdae5" fill-rule="evenodd" stroke="none"/>
    <path d="M-1.95 1.65 L-1.95 1.7 -1.9 1.7 -1.85 1.8 -1.5 2.5 -1.4 2.65 -2.05 2.8 -2.1 2.75 -2.1 2.7 -2.75 1.7 -1.95 1.65" fill="#f4f8fb" fill-rule="evenodd" stroke="none"/>
    <path d="M-0.3 2.45 L-1.05 2.6 -1.05 2.45 -1.4 1.7 -1.45 1.7 -1.45 1.65 -1.55 1.45 -0.9 1.1 -0.45 2.05 -0.3 2.45" fill="#f4f8fb" fill-rule="evenodd" stroke="none"/>
    <path d="M5.3 -3.9 L4.25 -3.1 Q6.05 -6.7 8.45 -7.85 L7.0 -5.75 5.3 -3.9" fill="#ffb6b7" fill-rule="evenodd" stroke="none"/>
    <path d="M7.0 -7.7 L7.05 -7.75 Q8.1 -8.45 9.0 -8.6 L9.25 -8.7 9.2 -8.45 Q8.8 -6.85 8.05 -5.85 L7.8 -5.6 Q7.6 -5.3 7.25 -5.15 L7.2 -5.1 6.65 -4.8 6.6 -4.75 5.4 -3.9 5.3 -3.9 7.0 -5.75 8.45 -7.85 Q6.05 -6.7 4.25 -3.1 L4.2 -3.1 4.3 -3.25 Q5.0 -5.6 6.2 -6.95 L7.0 -7.7" fill="#db8e90" fill-rule="evenodd" stroke="none"/>
    <path d="M1.35 -1.6 Q1.05 -1.6 1.05 -1.2 1.05 -0.9 1.35 -0.9 1.7 -0.9 1.7 -1.2 1.7 -1.6 1.35 -1.6 M1.8 -1.8 L2.25 -0.8 Q2.25 -0.2 1.8 0.2 1.45 0.6 0.85 0.6 0.25 0.6 -0.15 0.2 -0.55 -0.2 -0.55 -0.8 L-0.15 -1.8 Q0.25 -2.2 0.85 -2.2 1.45 -2.2 1.8 -1.8" fill="#aa192c" fill-rule="evenodd" stroke="none"/>
    <path d="M1.35 -0.9 Q1.05 -0.9 1.05 -1.2 1.05 -1.6 1.35 -1.6 1.7 -1.6 1.7 -1.2 1.7 -0.9 1.35 -0.9" fill="#ffffff" fill-rule="evenodd" stroke="none"/>
    <path d="M29.15 15.1 Q29.15 9.55 25.25 5.65 21.3 1.7 15.75 1.7 10.2 1.7 6.3 5.65 2.4 9.55 2.4 15.1 2.4 20.65 6.3 24.6 10.2 28.5 15.75 28.5 21.3 28.5 25.25 24.6 29.15 20.65 29.15 15.1 M31.5 15.75 Q31.5 22.3 26.9 26.9 22.3 31.55 15.75 31.55 9.25 31.55 4.65 26.9 0.0 22.3 0.0 15.75 0.0 9.25 4.65 4.65 9.25 0.0 15.75 0.0 22.3 0.0 26.9 4.65 31.5 9.25 31.5 15.75" fill="#008546" fill-rule="evenodd" stroke="none"/>
    <path d="M29.15 15.1 Q29.15 20.65 25.25 24.6 21.3 28.5 15.75 28.5 10.2 28.5 6.3 24.6 2.4 20.65 2.4 15.1 2.4 9.55 6.3 5.65 10.2 1.7 15.75 1.7 21.3 1.7 25.25 5.65 29.15 9.55 29.15 15.1 M23.2 7.6 L13.8 17.0 7.8 11.0 3.55 15.25 13.8 25.55 27.45 11.85 23.2 7.6" fill="#6ee087" fill-rule="evenodd" stroke="none"/>
    <path d="M23.2 7.6 L27.45 11.85 13.8 25.55 3.55 15.25 7.8 11.0 13.8 17.0 23.2 7.6" fill="#ffffff" fill-rule="evenodd" stroke="none"/>
  </g>
</svg>
