<?xml version="1.0" encoding="UTF-8" standalone="no"?>
<svg xmlns:ffdec="https://www.free-decompiler.com/flash" xmlns:xlink="http://www.w3.org/1999/xlink" ffdec:objectType="shape" height="38.5px" width="38.5px" xmlns="http://www.w3.org/2000/svg">
  <g transform="matrix(1.0, 0.0, 0.0, 1.0, 19.25, 19.25)">
    <path d="M13.6 -13.6 Q19.25 -7.9 19.25 0.05 19.25 8.0 13.6 13.65 7.95 19.25 0.0 19.25 -7.95 19.25 -13.65 13.65 -19.25 8.0 -19.25 0.05 -19.25 -7.9 -13.65 -13.6 -7.95 -19.25 0.0 -19.25 7.95 -19.25 13.6 -13.6" fill="#6edb87" fill-rule="evenodd" stroke="none"/>
    <path d="M12.3 7.65 Q12.95 7.7 13.25 7.15 L13.25 7.25 12.9 7.95 Q12.6 8.25 12.2 8.15 L5.5 7.75 1.3 16.6 0.75 17.15 0.0 17.1 -8.6 13.05 -9.1 12.5 Q-9.25 12.1 -9.05 11.75 L-9.0 11.65 Q-9.0 12.25 -8.5 12.5 L0.15 16.55 0.9 16.6 1.45 16.1 5.6 7.2 12.3 7.65" fill="#000000" fill-rule="evenodd" stroke="none"/>
    <path d="M2.1 1.75 L2.35 -2.2 -2.6 -1.1 -2.6 -1.55 2.5 -2.75 2.2 1.75 2.1 1.75" fill="#000000" fill-rule="evenodd" stroke="none"/>
    <path d="M-8.45 -13.85 L-6.6 -5.75 -6.85 -5.75 -8.6 -13.3 -8.45 -14.05 -8.45 -13.85" fill="#000000" fill-rule="evenodd" stroke="none"/>
    <path d="M-14.2 8.05 L-14.2 -4.25 -14.05 -4.75 -14.05 7.5 -13.75 8.25 -13.1 8.5 -7.65 8.5 -7.9 9.05 -13.25 9.05 Q-13.65 9.05 -13.9 8.75 L-14.2 8.05" fill="#000000" fill-rule="evenodd" stroke="none"/>
    <path d="M13.25 -6.3 L13.7 -6.05 13.9 -5.55 13.05 6.7 12.85 7.15 12.35 7.35 5.75 6.95 6.2 6.0 12.0 6.35 12.15 6.35 12.9 -5.35 5.15 -5.85 4.95 -6.85 13.25 -6.3" fill="#ffffff" fill-rule="evenodd" stroke="none"/>
    <path d="M3.8 -3.05 L3.45 2.35 2.5 1.9 2.8 -2.8 3.8 -3.05" fill="#ffffff" fill-rule="evenodd" stroke="none"/>
    <path d="M-2.5 -0.1 L-3.05 -0.15 -3.45 0.2 -8.65 11.35 -8.7 11.85 -8.35 12.25 0.25 16.3 0.8 16.35 1.15 15.95 6.4 4.85 6.45 4.3 6.1 3.95 Q1.8 1.9 -2.5 -0.1 M2.1 1.75 L2.2 1.75 2.5 -2.75 -2.6 -1.55 -2.6 -0.45 -2.35 -0.4 2.1 1.75 M-3.1 -5.25 Q-3.3 -5.45 -3.6 -5.45 L-13.1 -5.45 -13.6 -5.25 -13.8 -4.75 -13.8 7.5 -13.6 8.0 -13.1 8.2 -7.55 8.2 -3.7 0.1 -2.9 -0.45 -2.9 -4.75 -3.1 -5.25 M2.45 -16.35 L2.15 -16.8 1.6 -16.9 -7.65 -14.75 -8.05 -14.45 -8.15 -13.95 -6.3 -5.75 -3.6 -5.75 -3.3 -5.7 Q-2.7 -5.55 -2.65 -5.0 L-2.6 -4.75 -2.6 -1.9 4.65 -3.55 5.1 -3.85 5.2 -4.4 2.45 -16.35 M13.7 -6.05 L13.25 -6.3 4.95 -6.85 5.5 -4.45 5.35 -3.7 4.75 -3.3 2.8 -2.8 2.5 1.9 6.2 3.65 6.65 4.1 Q6.85 4.55 6.65 5.0 L5.75 6.95 12.35 7.35 12.85 7.15 13.05 6.7 13.9 -5.55 13.7 -6.05 M13.25 -6.6 L13.95 -6.25 14.2 -5.55 13.35 6.7 13.25 7.15 Q12.95 7.7 12.3 7.65 L5.6 7.2 1.45 16.1 0.9 16.6 0.15 16.55 -8.5 12.5 Q-9.0 12.25 -9.0 11.65 L-8.95 11.2 -7.65 8.5 -13.1 8.5 -13.75 8.25 -14.05 7.5 -14.05 -4.75 -13.75 -5.45 -13.1 -5.75 -6.6 -5.75 -8.45 -13.85 -8.45 -14.05 -8.25 -14.65 -7.7 -15.05 1.55 -17.2 2.3 -17.05 2.75 -16.4 4.85 -7.15 13.25 -6.6" fill="#333333" fill-rule="evenodd" stroke="none"/>
    <path d="M8.3 -3.9 L6.65 -1.8 Q5.0 0.45 4.9 1.4 4.85 2.6 5.7 3.4 L3.45 2.35 3.8 -3.05 4.75 -3.3 5.35 -3.7 5.5 -4.45 5.15 -5.85 12.9 -5.35 12.15 6.35 6.2 6.0 6.65 5.0 Q6.85 4.55 6.65 4.1 L7.8 4.35 Q9.05 4.45 9.95 3.7 10.9 2.95 11.0 1.8 11.05 0.85 9.7 -1.65 L8.3 -3.9" fill="#aedae6" fill-rule="evenodd" stroke="none"/>
    <path d="M11.0 1.8 Q10.9 2.95 9.95 3.7 9.05 4.45 7.8 4.35 L6.65 4.1 6.2 3.65 5.7 3.4 Q4.85 2.6 4.9 1.4 5.0 0.45 6.65 -1.8 L8.3 -3.9 9.7 -1.65 Q11.05 0.85 11.0 1.8" fill="#26a9e0" fill-rule="evenodd" stroke="none"/>
    <path d="M1.6 -16.9 L2.15 -16.8 2.45 -16.35 5.2 -4.4 5.1 -3.85 4.65 -3.55 -2.6 -1.9 -2.6 -2.9 -2.35 -2.9 4.2 -4.45 1.55 -15.9 -7.15 -13.9 -5.3 -5.75 -6.3 -5.75 -8.15 -13.95 -8.05 -14.45 -7.65 -14.75 1.6 -16.9" fill="#ffffff" fill-rule="evenodd" stroke="none"/>
    <path d="M-2.6 -4.75 L-2.65 -5.0 -0.8 -6.15 1.95 -5.85 1.25 -8.5 2.45 -11.0 -0.35 -11.2 -2.35 -13.1 -3.4 -10.5 -5.8 -9.15 -3.65 -7.4 -3.3 -5.7 -3.6 -5.75 -5.3 -5.75 -7.15 -13.9 1.55 -15.9 4.2 -4.45 -2.35 -2.9 -2.6 -2.9 -2.6 -4.75" fill="#fff79e" fill-rule="evenodd" stroke="none"/>
    <path d="M-0.8 -6.15 L-2.65 -5.0 Q-2.7 -5.55 -3.3 -5.7 L-3.65 -7.4 -5.8 -9.15 -3.4 -10.5 -2.35 -13.1 -0.35 -11.2 2.45 -11.0 1.25 -8.5 1.95 -5.85 -0.8 -6.15" fill="#ffe134" fill-rule="evenodd" stroke="none"/>
    <path d="M-3.6 -5.45 Q-3.3 -5.45 -3.1 -5.25 L-2.9 -4.75 -2.9 -0.45 -3.7 0.1 -3.9 0.5 -3.9 -4.5 -12.8 -4.5 -12.8 7.25 -7.05 7.25 -7.55 8.2 -13.1 8.2 -13.6 8.0 -13.8 7.5 -13.8 -4.75 -13.6 -5.25 -13.1 -5.45 -3.6 -5.45" fill="#ffffff" fill-rule="evenodd" stroke="none"/>
    <path d="M-7.05 7.25 L-12.8 7.25 -12.8 -4.5 -3.9 -4.5 -3.9 0.5 -7.05 7.25 M-5.85 -2.35 Q-7.55 -2.7 -8.35 -1.0 -9.15 -2.7 -10.85 -2.4 -12.55 -2.05 -12.55 -0.05 -12.55 1.65 -10.1 3.2 -9.45 3.55 -8.9 4.25 L-8.35 5.2 -7.75 4.25 Q-7.2 3.55 -6.6 3.15 -4.15 1.55 -4.15 -0.05 -4.15 -2.05 -5.85 -2.35" fill="#f59ca8" fill-rule="evenodd" stroke="none"/>
    <path d="M-8.35 -1.0 Q-7.55 -2.7 -5.85 -2.35 -4.15 -2.05 -4.15 -0.05 -4.15 1.55 -6.6 3.15 -7.2 3.55 -7.75 4.25 L-8.35 5.2 -8.9 4.25 Q-9.45 3.55 -10.1 3.2 -12.55 1.65 -12.55 -0.05 -12.55 -2.05 -10.85 -2.4 -9.15 -2.7 -8.35 -1.0" fill="#e33e54" fill-rule="evenodd" stroke="none"/>
    <path d="M-3.45 0.2 L-3.05 -0.15 -2.5 -0.1 Q1.8 1.9 6.1 3.95 L6.45 4.3 6.4 4.85 1.15 15.95 0.8 16.35 0.25 16.3 -8.35 12.25 -8.7 11.85 -8.65 11.35 -3.45 0.2 M5.4 4.7 L-2.65 0.9 -7.65 11.5 0.4 15.3 5.4 4.7" fill="#ffffff" fill-rule="evenodd" stroke="none"/>
    <path d="M-2.65 0.9 L5.4 4.7 0.4 15.3 -7.65 11.5 -2.65 0.9 M0.75 5.35 Q0.0 5.8 -0.8 7.4 0.05 5.45 -0.3 4.6 -0.55 3.9 -1.65 4.05 L-2.5 4.3 -3.3 4.65 Q-4.25 5.25 -4.0 5.95 -3.75 6.75 -1.85 7.75 -3.45 7.05 -4.35 7.2 -5.7 7.35 -4.95 9.45 -4.2 11.55 -3.0 10.85 -2.25 10.35 -1.45 8.8 -2.15 10.45 -2.05 11.3 -1.85 12.65 0.25 11.9 2.35 11.15 1.6 10.0 1.15 9.2 -0.45 8.4 1.15 9.15 2.1 9.0 3.45 8.85 2.7 6.7 1.9 4.6 0.75 5.35" fill="#bfd241" fill-rule="evenodd" stroke="none"/>
    <path d="M-4.35 7.2 Q-3.45 7.05 -1.85 7.75 -3.75 6.75 -4.0 5.95 -4.25 5.25 -3.3 4.65 L-2.5 4.3 -1.65 4.05 Q-0.55 3.9 -0.3 4.6 0.05 5.45 -0.8 7.4 0.0 5.8 0.75 5.35 1.9 4.6 2.7 6.7 3.45 8.85 2.1 9.0 1.15 9.15 -0.45 8.4 1.15 9.2 1.6 10.0 2.35 11.15 0.25 11.9 -1.85 12.65 -2.05 11.3 -2.15 10.45 -1.45 8.8 -2.25 10.35 -3.0 10.85 -4.2 11.55 -4.95 9.45 -5.7 7.35 -4.35 7.2" fill="#22b473" fill-rule="evenodd" stroke="none"/>
  </g>
</svg>
