<?xml version="1.0" encoding="UTF-8" standalone="no"?>
<svg xmlns:ffdec="https://www.free-decompiler.com/flash" xmlns:xlink="http://www.w3.org/1999/xlink" ffdec:objectType="shape" height="42.8px" width="46.75px" xmlns="http://www.w3.org/2000/svg">
  <g transform="matrix(1.0, 0.0, 0.0, 1.0, 23.35, 21.4)">
    <path d="M15.1 -15.15 Q21.4 -8.85 21.4 0.0 21.4 8.85 15.1 15.15 8.85 21.4 0.0 21.4 -8.85 21.4 -15.15 15.15 -21.4 8.85 -21.4 0.0 -21.4 -8.85 -15.15 -15.15 -8.85 -21.4 0.0 -21.4 8.85 -21.4 15.1 -15.15" fill="#ffe86e" fill-rule="evenodd" stroke="none"/>
    <path d="M8.9 1.45 L9.15 1.95 11.2 2.05 12.75 1.9 15.0 1.6 15.3 0.9 15.2 0.1 12.1 0.25 9.05 0.5 8.85 1.1 8.9 1.45 M16.4 -1.7 L16.45 -1.3 16.25 -0.35 16.25 -0.3 16.3 -0.15 16.9 -0.8 18.05 -1.6 16.45 -2.1 16.4 -1.7 M14.55 -2.7 L14.2 -2.7 11.7 -2.4 9.15 -2.0 8.8 -1.65 8.75 -1.15 9.2 -0.85 12.0 -0.85 15.05 -1.1 15.2 -1.65 15.35 -2.2 Q15.35 -2.7 14.55 -2.7 M18.95 2.95 Q18.75 2.45 18.2 2.45 17.55 2.45 17.2 3.05 16.8 3.45 16.85 4.0 17.1 4.65 17.9 4.65 18.55 4.65 18.9 4.2 L19.05 3.6 18.95 2.95 M18.5 -3.55 Q19.65 -3.0 19.75 -1.95 19.7 -1.2 18.8 -0.75 L17.6 0.05 Q16.95 0.6 16.9 1.25 16.9 1.8 17.2 1.9 L18.1 2.15 18.6 1.95 18.95 1.55 19.15 0.9 20.45 0.1 21.65 -0.65 Q22.15 -1.15 22.3 -2.0 22.05 -3.8 20.35 -4.9 18.9 -5.85 16.95 -6.0 L16.2 -5.85 16.35 -4.25 18.5 -3.55 M23.35 -1.55 L23.4 -1.25 23.4 -0.95 Q23.25 0.35 22.4 1.1 L20.95 2.0 20.1 2.5 20.1 2.55 20.05 2.8 20.2 3.6 20.15 4.05 20.2 4.5 Q20.2 5.2 19.8 5.75 L19.7 5.9 Q19.05 6.7 17.9 6.7 L16.6 6.35 Q16.05 5.95 15.8 5.35 L15.75 5.05 15.8 4.3 15.75 4.15 15.8 3.3 15.75 3.35 15.1 3.65 12.95 3.95 11.2 4.1 9.05 4.0 8.65 3.85 Q8.1 3.6 7.85 2.75 7.7 2.4 7.7 2.05 L7.8 1.6 7.7 1.1 7.85 0.45 7.65 -0.1 7.7 -0.8 7.65 -1.05 Q7.6 -1.8 7.9 -2.25 L8.0 -2.4 8.35 -2.75 8.95 -3.1 11.5 -3.5 14.1 -3.8 14.55 -3.8 15.15 -3.75 Q15.05 -4.4 15.1 -5.0 L15.1 -5.05 15.1 -5.9 15.35 -6.55 Q15.85 -7.15 16.75 -7.15 L17.0 -7.1 Q19.25 -6.95 20.95 -5.85 23.15 -4.45 23.4 -2.15 L23.4 -1.9 23.35 -1.55" fill="#231f20" fill-rule="evenodd" stroke="none"/>
    <path d="M-15.75 -2.8 Q-15.75 -2.3 -15.9 -1.9 -16.7 0.25 -19.0 1.7 L-16.7 2.5 -14.4 2.95 Q-14.4 3.4 -15.0 4.25 -15.5 5.05 -15.75 5.1 -18.4 4.55 -21.45 2.55 L-21.5 2.15 -21.45 1.3 -21.2 0.5 Q-20.0 0.2 -19.15 -0.45 -18.0 -1.3 -18.0 -2.25 -18.0 -2.55 -18.5 -2.75 L-19.25 -2.9 -20.3 -2.5 -21.05 -2.2 -21.75 -2.75 -22.25 -3.55 -22.2 -3.6 Q-20.8 -4.65 -18.95 -4.75 L-18.45 -4.75 Q-15.75 -4.75 -15.75 -2.8" fill="#ffffff" fill-rule="evenodd" stroke="none"/>
    <path d="M-10.35 -1.2 L-9.95 -4.05 -9.1 -4.35 -8.15 -4.3 -8.3 -1.35 -6.4 -1.45 Q-5.3 -1.45 -5.3 -0.95 L-5.45 -0.4 -5.65 0.2 -8.4 0.35 -8.7 3.45 -9.6 3.7 -10.25 3.5 -10.5 3.35 -10.55 1.5 -10.5 0.35 -13.25 0.25 -13.7 -0.05 -13.65 -0.5 -13.25 -0.9 -10.35 -1.2" fill="#ffffff" fill-rule="evenodd" stroke="none"/>
    <path d="M-15.9 -1.9 Q-15.75 -2.3 -15.75 -2.8 -15.75 -4.75 -18.45 -4.75 L-18.95 -4.75 Q-20.8 -4.65 -22.2 -3.6 L-22.25 -3.55 -21.75 -2.75 -21.05 -2.2 -20.3 -2.5 -19.25 -2.9 -18.5 -2.75 Q-18.0 -2.55 -18.0 -2.25 -18.0 -1.3 -19.15 -0.45 -20.0 0.2 -21.2 0.5 L-21.45 1.3 -21.5 2.15 -21.45 2.55 Q-18.4 4.55 -15.75 5.1 -15.5 5.05 -15.0 4.25 -14.4 3.4 -14.4 2.95 L-16.7 2.5 -19.0 1.7 Q-16.7 0.25 -15.9 -1.9 M-9.1 -4.35 L-9.95 -4.05 -10.35 -1.2 -13.25 -0.9 -13.65 -0.5 -13.7 -0.05 -13.25 0.25 -10.5 0.35 -10.55 1.5 -10.5 3.35 -10.25 3.5 -9.6 3.7 -8.7 3.45 -8.4 0.35 -5.65 0.2 -5.45 -0.4 -5.3 -0.95 Q-5.3 -1.45 -6.4 -1.45 L-8.3 -1.35 -8.15 -4.3 -9.1 -4.35 M-0.85 -4.75 L-1.35 -4.75 Q-3.25 -4.6 -4.6 -3.6 L-4.65 -3.55 -4.15 -2.75 -3.45 -2.2 Q-3.2 -2.2 -2.7 -2.5 L-1.65 -2.9 -0.9 -2.75 Q-0.4 -2.6 -0.4 -2.25 -0.4 -1.3 -1.55 -0.45 -2.45 0.2 -3.6 0.5 L-3.85 1.3 -3.95 2.15 -3.85 2.55 Q-0.8 4.55 1.8 5.1 L2.6 4.25 Q3.2 3.45 3.2 2.95 L0.9 2.5 Q-0.95 2.0 -1.4 1.7 0.9 0.25 1.7 -1.9 L1.85 -2.8 Q1.85 -4.75 -0.85 -4.75 M2.95 -2.8 L2.95 -1.85 2.75 -0.6 Q2.35 0.55 1.55 1.5 L3.25 1.85 Q3.65 1.85 3.95 2.15 L4.3 2.9 4.25 3.5 4.3 3.8 Q4.35 4.6 3.55 5.8 L2.25 7.1 1.8 7.15 1.6 7.15 Q-1.35 6.5 -4.45 4.4 L-4.55 4.35 Q-5.05 4.0 -5.05 3.1 L-5.05 2.05 -5.55 2.2 -7.4 2.35 -7.6 4.5 Q-7.65 5.1 -8.2 5.4 L-9.6 5.7 -10.65 5.5 -11.45 4.8 -11.6 4.35 -11.65 2.45 -11.65 2.35 -13.3 2.3 -13.55 2.25 Q-13.3 2.55 -13.3 2.9 L-13.35 3.5 -13.3 3.8 Q-13.25 4.6 -14.05 5.8 -14.8 6.85 -15.35 7.1 L-15.8 7.15 -16.0 7.15 Q-18.95 6.5 -22.05 4.4 L-22.15 4.35 Q-22.65 3.95 -22.65 3.1 L-22.65 2.15 -22.55 1.1 Q-22.4 -0.05 -21.8 -0.4 L-22.6 -1.1 Q-23.35 -1.95 -23.35 -2.6 L-23.25 -3.05 -23.35 -3.55 Q-23.35 -4.05 -23.0 -4.4 L-22.85 -4.55 Q-21.2 -5.7 -19.0 -5.85 L-18.45 -5.85 Q-16.2 -5.85 -15.25 -4.65 -14.65 -3.9 -14.65 -2.8 L-14.65 -1.85 -14.85 -0.6 Q-15.25 0.55 -16.05 1.5 L-14.35 1.85 -14.3 1.85 -14.45 1.7 -14.8 0.9 -14.75 0.3 -14.8 -0.05 -14.6 -1.05 -14.4 -1.35 -14.05 -1.65 -13.4 -2.0 -11.35 -2.2 -11.05 -4.2 -10.75 -4.8 Q-10.1 -5.5 -9.1 -5.5 L-8.15 -5.4 Q-7.65 -5.4 -7.35 -5.05 -7.0 -4.75 -7.0 -4.25 L-7.05 -3.6 -7.0 -3.3 -7.05 -2.55 -5.75 -2.55 -5.75 -2.6 -5.65 -3.05 -5.75 -3.55 -5.4 -4.4 -5.25 -4.55 Q-3.6 -5.7 -1.4 -5.85 L-0.85 -5.85 Q1.4 -5.85 2.35 -4.65 2.95 -3.9 2.95 -2.8" fill="#231f20" fill-rule="evenodd" stroke="none"/>
    <path d="M-1.35 -4.75 L-0.85 -4.75 Q1.85 -4.75 1.85 -2.8 L1.7 -1.9 Q0.9 0.25 -1.4 1.7 -0.95 2.0 0.9 2.5 L3.2 2.95 Q3.2 3.45 2.6 4.25 L1.8 5.1 Q-0.8 4.55 -3.85 2.55 L-3.95 2.15 -3.85 1.3 -3.6 0.5 Q-2.45 0.2 -1.55 -0.45 -0.4 -1.3 -0.4 -2.25 -0.4 -2.6 -0.9 -2.75 L-1.65 -2.9 -2.7 -2.5 Q-3.2 -2.2 -3.45 -2.2 L-4.15 -2.75 -4.65 -3.55 -4.6 -3.6 Q-3.25 -4.6 -1.35 -4.75" fill="#ffffff" fill-rule="evenodd" stroke="none"/>
    <path d="M11.2 2.05 L9.15 1.95 8.9 1.45 8.85 1.1 9.05 0.5 12.1 0.25 15.2 0.1 15.3 0.9 15.0 1.6 12.75 1.9 11.2 2.05" fill="#ffffff" fill-rule="evenodd" stroke="none"/>
    <path d="M14.2 -2.7 L14.55 -2.7 Q15.35 -2.7 15.35 -2.2 L15.2 -1.65 15.05 -1.1 12.0 -0.85 9.2 -0.85 8.75 -1.15 8.8 -1.65 9.15 -2.0 11.7 -2.4 14.2 -2.7" fill="#ffffff" fill-rule="evenodd" stroke="none"/>
    <path d="M19.75 -1.95 Q19.65 -3.0 18.5 -3.55 L16.35 -4.25 16.2 -5.85 16.95 -6.0 Q18.9 -5.85 20.35 -4.9 22.05 -3.8 22.3 -2.0 22.15 -1.15 21.65 -0.65 L20.45 0.1 19.15 0.9 18.95 1.55 18.6 1.95 18.1 2.15 17.2 1.9 Q16.9 1.8 16.9 1.25 16.95 0.6 17.6 0.05 L18.8 -0.75 Q19.7 -1.2 19.75 -1.95" fill="#ffffff" fill-rule="evenodd" stroke="none"/>
    <path d="M17.2 3.05 Q17.55 2.45 18.2 2.45 18.75 2.45 18.95 2.95 L19.05 3.6 18.9 4.2 Q18.55 4.65 17.9 4.65 17.1 4.65 16.85 4.0 16.8 3.45 17.2 3.05" fill="#ffffff" fill-rule="evenodd" stroke="none"/>
  </g>
</svg>
