<?xml version="1.0" encoding="UTF-8" standalone="no"?>
<svg xmlns:ffdec="https://www.free-decompiler.com/flash" xmlns:xlink="http://www.w3.org/1999/xlink" ffdec:objectType="shape" height="39.0px" width="39.75px" xmlns="http://www.w3.org/2000/svg">
  <g transform="matrix(1.0, 0.0, 0.0, 1.0, 19.85, 19.5)">
    <path d="M7.05 9.0 L7.05 15.9 Q7.05 17.4 6.0 18.45 4.95 19.5 3.45 19.5 L-3.45 19.5 Q-4.9 19.5 -5.95 18.45 -7.0 17.4 -7.0 15.9 L-7.0 9.0 Q-7.0 7.55 -5.95 6.5 -4.9 5.45 -3.45 5.45 L3.45 5.45 Q4.95 5.45 6.0 6.5 7.05 7.55 7.05 9.0" fill="#006837" fill-rule="evenodd" stroke="none"/>
    <path d="M5.3 6.85 Q6.0 7.55 6.0 8.65 L6.0 15.55 Q6.0 16.6 5.3 17.35 4.55 18.1 3.45 18.1 L-3.45 18.1 Q-4.45 18.1 -5.2 17.35 -5.95 16.6 -5.95 15.55 L-5.95 8.65 Q-5.95 7.6 -5.2 6.85 -4.5 6.1 -3.45 6.1 L3.45 6.1 Q4.55 6.1 5.3 6.85" fill="#82d980" fill-rule="evenodd" stroke="none"/>
    <path d="M4.15 10.1 L-1.95 16.2 -4.05 14.1 2.05 8.0 4.15 10.1" fill="#ffffff" fill-rule="evenodd" stroke="none"/>
    <path d="M6.0 -6.45 Q4.95 -5.4 3.45 -5.4 L-3.45 -5.4 Q-4.9 -5.4 -5.95 -6.45 -7.0 -7.5 -7.0 -9.0 L-7.0 -15.9 Q-7.0 -17.4 -5.95 -18.45 -4.9 -19.5 -3.45 -19.5 L3.45 -19.5 Q4.95 -19.5 6.0 -18.45 7.05 -17.4 7.05 -15.9 L7.05 -9.0 Q7.05 -7.5 6.0 -6.45" fill="#9d1e60" fill-rule="evenodd" stroke="none"/>
    <path d="M6.0 -9.35 Q6.0 -8.3 5.3 -7.55 4.55 -6.85 3.45 -6.85 L-3.45 -6.85 Q-4.5 -6.85 -5.2 -7.55 -5.95 -8.3 -5.95 -9.35 L-5.95 -16.25 Q-5.95 -17.3 -5.2 -18.1 -4.5 -18.8 -3.45 -18.8 L3.45 -18.8 Q4.55 -18.8 5.3 -18.1 6.0 -17.3 6.0 -16.25 L6.0 -9.35" fill="#ff8c7d" fill-rule="evenodd" stroke="none"/>
    <path d="M0.95 -17.0 L0.95 -13.75 4.1 -13.75 4.1 -11.95 0.95 -11.95 0.95 -8.65 -0.9 -8.65 -0.9 -11.95 -4.0 -11.95 -4.0 -13.75 -0.9 -13.75 -0.9 -17.0 0.95 -17.0" fill="#ffffff" fill-rule="evenodd" stroke="none"/>
    <path d="M-16.25 -7.05 L-9.35 -7.05 Q-7.85 -7.05 -6.8 -6.0 -5.75 -4.9 -5.75 -3.45 L-5.75 3.45 Q-5.75 4.95 -6.8 6.0 -7.85 7.05 -9.35 7.05 L-16.25 7.05 Q-17.75 7.05 -18.8 6.0 -19.85 4.95 -19.85 3.45 L-19.85 -3.45 Q-19.85 -4.9 -18.8 -6.0 -17.75 -7.05 -16.25 -7.05" fill="#1072b9" fill-rule="evenodd" stroke="none"/>
    <path d="M-7.55 -5.6 Q-6.8 -4.85 -6.8 -3.8 L-6.8 3.1 Q-6.8 4.15 -7.55 4.9 -8.3 5.65 -9.35 5.65 L-16.25 5.65 Q-17.3 5.65 -18.05 4.9 -18.8 4.15 -18.8 3.1 L-18.8 -3.8 Q-18.8 -4.85 -18.05 -5.6 -17.3 -6.35 -16.25 -6.35 L-9.35 -6.35 Q-8.3 -6.35 -7.55 -5.6" fill="#82b6e2" fill-rule="evenodd" stroke="none"/>
    <path d="M-16.2 0.65 L-16.2 -1.35 -9.45 -1.35 -9.45 0.65 -16.2 0.65" fill="#ffffff" fill-rule="evenodd" stroke="none"/>
    <path d="M9.4 -7.05 L16.35 -7.05 Q17.8 -7.05 18.85 -6.0 19.9 -4.9 19.9 -3.45 L19.9 3.45 Q19.9 4.95 18.85 6.0 17.8 7.05 16.35 7.05 L9.4 7.05 Q7.9 7.05 6.9 6.0 5.85 4.95 5.85 3.45 L5.85 -3.45 Q5.85 -4.9 6.9 -6.0 7.9 -7.05 9.4 -7.05" fill="#d6af1c" fill-rule="evenodd" stroke="none"/>
    <path d="M18.1 -5.6 Q18.85 -4.85 18.85 -3.8 L18.85 3.1 Q18.85 4.15 18.1 4.9 17.35 5.65 16.35 5.65 L9.4 5.65 Q8.4 5.65 7.6 4.9 6.85 4.15 6.85 3.1 L6.85 -3.8 Q6.85 -4.85 7.6 -5.6 8.35 -6.35 9.4 -6.35 L16.35 -6.35 Q17.4 -6.35 18.1 -5.6" fill="#ffe07d" fill-rule="evenodd" stroke="none"/>
    <path d="M12.85 1.05 L11.1 2.85 9.65 1.4 11.45 -0.35 9.65 -2.15 11.1 -3.55 12.85 -1.8 14.65 -3.55 16.05 -2.1 14.3 -0.35 16.05 1.4 14.65 2.85 12.85 1.05" fill="#ffffff" fill-rule="evenodd" stroke="none"/>
  </g>
</svg>
