<?xml version="1.0" encoding="UTF-8" standalone="no"?>
<svg xmlns:ffdec="https://www.free-decompiler.com/flash" xmlns:xlink="http://www.w3.org/1999/xlink" ffdec:objectType="shape" height="38.5px" width="38.5px" xmlns="http://www.w3.org/2000/svg">
  <g transform="matrix(1.0, 0.0, 0.0, 1.0, 19.25, 19.25)">
    <path d="M13.6 -13.6 Q19.25 -7.95 19.25 0.0 19.25 8.0 13.6 13.65 7.95 19.25 0.0 19.25 -7.95 19.25 -13.6 13.65 -19.25 8.0 -19.25 0.0 -19.25 -7.95 -13.6 -13.6 -7.95 -19.25 0.0 -19.25 7.95 -19.25 13.6 -13.6" fill="#ffe86e" fill-rule="evenodd" stroke="none"/>
    <path d="M5.8 7.35 L5.8 13.0 Q5.8 14.25 4.95 15.1 4.05 15.95 2.85 15.95 L-2.8 15.95 Q-4.0 15.95 -4.85 15.1 -5.75 14.25 -5.75 13.0 L-5.75 7.35 Q-5.75 6.15 -4.85 5.3 -4.0 4.45 -2.8 4.45 L2.85 4.45 Q4.05 4.45 4.95 5.3 5.8 6.15 5.8 7.35" fill="#006837" fill-rule="evenodd" stroke="none"/>
    <path d="M4.35 5.6 Q4.95 6.2 4.95 7.05 L4.95 12.7 Q4.95 13.6 4.35 14.2 3.7 14.8 2.85 14.8 L-2.8 14.8 Q-3.65 14.8 -4.25 14.2 -4.85 13.6 -4.85 12.7 L-4.85 7.05 Q-4.85 6.2 -4.25 5.6 -3.65 5.0 -2.8 5.0 L2.85 5.0 Q3.7 5.0 4.35 5.6" fill="#82d980" fill-rule="evenodd" stroke="none"/>
    <path d="M3.4 8.25 L-1.6 13.25 -3.3 11.55 1.7 6.55 3.4 8.25" fill="#ffffff" fill-rule="evenodd" stroke="none"/>
    <path d="M4.95 -5.3 Q4.05 -4.4 2.85 -4.4 L-2.8 -4.4 Q-4.0 -4.4 -4.85 -5.3 -5.75 -6.15 -5.75 -7.35 L-5.75 -13.0 Q-5.75 -14.2 -4.85 -15.1 -4.0 -15.95 -2.8 -15.95 L2.85 -15.95 Q4.05 -15.95 4.95 -15.1 5.8 -14.2 5.8 -13.0 L5.8 -7.35 Q5.8 -6.15 4.95 -5.3" fill="#9d1e60" fill-rule="evenodd" stroke="none"/>
    <path d="M4.95 -7.65 Q4.95 -6.8 4.35 -6.2 3.7 -5.6 2.85 -5.6 L-2.8 -5.6 Q-3.65 -5.6 -4.25 -6.2 -4.85 -6.8 -4.85 -7.65 L-4.85 -13.3 Q-4.85 -14.15 -4.25 -14.8 -3.65 -15.4 -2.8 -15.4 L2.85 -15.4 Q3.7 -15.4 4.35 -14.8 4.95 -14.15 4.95 -13.3 L4.95 -7.65" fill="#ff8c7d" fill-rule="evenodd" stroke="none"/>
    <path d="M0.75 -13.9 L0.75 -11.25 3.35 -11.25 3.35 -9.75 0.75 -9.75 0.75 -7.05 -0.7 -7.05 -0.7 -9.75 -3.3 -9.75 -3.3 -11.25 -0.7 -11.25 -0.7 -13.9 0.75 -13.9" fill="#ffffff" fill-rule="evenodd" stroke="none"/>
    <path d="M-13.3 -5.8 L-7.65 -5.8 Q-6.45 -5.8 -5.6 -4.9 -4.7 -4.05 -4.7 -2.85 L-4.7 2.8 Q-4.7 4.0 -5.6 4.9 -6.45 5.75 -7.65 5.75 L-13.3 5.75 Q-14.5 5.75 -15.4 4.9 -16.25 4.0 -16.25 2.8 L-16.25 -2.85 Q-16.25 -4.05 -15.4 -4.9 -14.5 -5.8 -13.3 -5.8" fill="#1072b9" fill-rule="evenodd" stroke="none"/>
    <path d="M-6.2 -4.6 Q-5.6 -4.0 -5.6 -3.15 L-5.6 2.5 Q-5.6 3.35 -6.2 3.95 -6.8 4.6 -7.65 4.6 L-13.3 4.6 Q-14.15 4.6 -14.8 3.95 -15.4 3.35 -15.4 2.5 L-15.4 -3.15 Q-15.4 -4.0 -14.8 -4.6 -14.15 -5.2 -13.3 -5.2 L-7.65 -5.2 Q-6.8 -5.2 -6.2 -4.6" fill="#82b6e2" fill-rule="evenodd" stroke="none"/>
    <path d="M-13.3 0.5 L-13.3 -1.1 -7.75 -1.1 -7.75 0.5 -13.3 0.5" fill="#ffffff" fill-rule="evenodd" stroke="none"/>
    <path d="M7.7 -5.8 L13.4 -5.8 Q14.6 -5.8 15.45 -4.9 16.3 -4.05 16.3 -2.85 L16.3 2.8 Q16.3 4.0 15.45 4.9 14.6 5.75 13.4 5.75 L7.7 5.75 Q6.5 5.75 5.65 4.9 4.8 4.0 4.8 2.8 L4.8 -2.85 Q4.8 -4.05 5.65 -4.9 6.5 -5.8 7.7 -5.8" fill="#d6af1c" fill-rule="evenodd" stroke="none"/>
    <path d="M14.85 -4.6 Q15.45 -4.0 15.45 -3.15 L15.45 2.5 Q15.45 3.35 14.85 3.95 14.25 4.6 13.4 4.6 L7.7 4.6 Q6.9 4.6 6.25 3.95 5.65 3.35 5.65 2.5 L5.65 -3.15 Q5.65 -4.0 6.25 -4.6 6.85 -5.2 7.7 -5.2 L13.4 -5.2 Q14.25 -5.2 14.85 -4.6" fill="#ffe07d" fill-rule="evenodd" stroke="none"/>
    <path d="M10.55 0.85 L9.1 2.3 7.95 1.15 9.4 -0.35 7.95 -1.8 9.1 -2.95 10.55 -1.5 12.0 -2.9 13.15 -1.75 11.7 -0.35 13.15 1.15 12.0 2.3 10.55 0.85" fill="#ffffff" fill-rule="evenodd" stroke="none"/>
  </g>
</svg>
