<?xml version="1.0" encoding="UTF-8" standalone="no"?>
<svg xmlns:ffdec="https://www.free-decompiler.com/flash" xmlns:xlink="http://www.w3.org/1999/xlink" ffdec:objectType="shape" height="42.8px" width="42.8px" xmlns="http://www.w3.org/2000/svg">
  <g transform="matrix(1.0, 0.0, 0.0, 1.0, 21.4, 21.4)">
    <path d="M15.1 -15.1 Q21.4 -8.8 21.4 0.05 21.4 8.9 15.1 15.15 8.85 21.4 0.0 21.4 -8.85 21.4 -15.15 15.15 -21.4 8.9 -21.4 0.05 -21.4 -8.8 -15.15 -15.1 -8.85 -21.4 0.0 -21.4 8.85 -21.4 15.1 -15.1" fill="#f5807d" fill-rule="evenodd" stroke="none"/>
    <path d="M-5.7 -2.8 Q-5.7 -2.15 -6.6 -1.65 -7.55 -1.2 -8.9 -1.2 L-17.6 -1.2 Q-18.9 -1.2 -19.85 -1.65 -20.8 -2.15 -20.8 -2.8 L-5.7 -2.8" fill="#231f20" fill-rule="evenodd" stroke="none"/>
    <path d="M18.55 -1.65 L16.25 -1.2 7.6 -1.2 Q6.25 -1.2 5.3 -1.65 4.35 -2.15 4.35 -2.8 L19.5 -2.8 Q19.5 -2.15 18.55 -1.65" fill="#231f20" fill-rule="evenodd" stroke="none"/>
    <path d="M11.55 -1.35 L12.6 -1.35 12.6 3.9 12.3 4.65 Q12.0 4.95 11.55 4.95 L-12.65 4.95 -13.45 4.65 -13.7 3.9 -13.7 -1.35 -12.65 -1.35 -12.65 3.9 11.55 3.9 11.55 -1.35" fill="#231f20" fill-rule="evenodd" stroke="none"/>
    <path d="M-3.5 12.9 L-4.0 12.65 -4.1 12.0 -3.0 4.35 Q-2.9 3.5 -2.2 2.95 -1.5 2.4 -0.65 2.4 0.2 2.4 0.9 2.95 1.6 3.5 1.7 4.35 L2.8 12.0 2.7 12.65 2.2 12.9 -3.5 12.9" fill="#231f20" fill-rule="evenodd" stroke="none"/>
    <path d="M0.8 4.6 Q0.8 5.2 0.4 5.65 -0.05 6.05 -0.65 6.05 -1.25 6.05 -1.7 5.65 -2.15 5.2 -2.15 4.6 -2.15 4.0 -1.7 3.55 -1.25 3.1 -0.65 3.1 -0.05 3.1 0.4 3.55 0.8 4.0 0.8 4.6" fill="#ffffff" fill-rule="evenodd" stroke="none"/>
    <path d="M18.4 -8.55 Q19.05 -8.95 19.8 -8.55 20.55 -8.15 20.75 -7.4 20.95 -6.05 20.3 -4.85 19.55 -3.5 18.2 -3.9 18.05 -2.6 16.05 -2.45 14.35 -2.3 13.2 -2.85 12.25 -3.35 12.2 -5.05 L12.3 -7.7 12.4 -9.0 Q12.6 -9.65 13.35 -9.9 L15.9 -10.2 Q17.45 -10.05 18.2 -9.25 L18.4 -8.55 M19.05 -7.5 L18.4 -7.6 18.3 -4.8 Q19.35 -4.6 19.65 -6.55 L19.45 -7.2 19.05 -7.5 M19.2 -7.75 L19.7 -7.4 19.95 -6.55 19.75 -5.55 Q19.55 -4.95 19.15 -4.65 L18.55 -4.6 Q17.9 -4.5 17.95 -4.4 18.35 -3.7 19.25 -4.3 20.0 -4.85 20.2 -5.45 20.5 -6.8 20.4 -7.35 20.25 -8.0 19.7 -8.25 18.5 -8.8 17.85 -7.95 L18.05 -8.3 Q18.1 -9.7 15.65 -9.95 13.2 -10.25 12.65 -9.0 12.35 -8.3 12.4 -6.15 12.45 -3.95 12.85 -3.55 13.6 -2.65 15.65 -2.7 17.8 -2.7 18.15 -3.95 L17.7 -4.2 17.6 -4.8 17.85 -4.95 18.15 -4.85 18.05 -7.45 17.85 -7.25 17.7 -7.3 17.85 -7.95 17.85 -7.55 18.5 -7.9 19.2 -7.75" fill="#1b597b" fill-rule="evenodd" stroke="none"/>
    <path d="M17.85 -8.7 Q17.65 -8.45 17.05 -8.25 16.5 -8.05 16.45 -7.9 16.1 -7.35 16.3 -6.0 16.45 -4.7 16.05 -4.05 15.45 -3.15 14.3 -3.35 13.2 -3.55 12.5 -4.45 L12.4 -7.0 Q12.45 -8.5 12.65 -9.0 13.15 -10.05 15.2 -10.0 17.3 -9.9 17.9 -8.9 L17.85 -8.7 M17.6 -8.95 L16.9 -9.55 15.3 -9.75 14.55 -9.75 Q13.0 -9.5 13.0 -8.95 13.0 -8.6 13.65 -8.35 L15.3 -8.15 15.55 -8.15 17.0 -8.4 17.6 -8.95 M19.95 -6.55 L19.7 -7.4 19.2 -7.75 18.5 -7.9 17.85 -7.55 17.85 -7.95 Q18.5 -8.8 19.7 -8.25 L20.05 -8.0 20.0 -7.8 19.6 -7.8 Q20.55 -7.05 19.9 -5.15 19.35 -4.1 18.0 -4.35 L17.95 -4.4 Q17.9 -4.5 18.55 -4.6 L19.15 -4.65 Q19.55 -4.95 19.75 -5.55 L19.95 -6.55" fill="#5ca7ff" fill-rule="evenodd" stroke="none"/>
    <path d="M18.05 -7.45 L18.15 -4.85 17.85 -4.95 17.6 -4.8 17.7 -4.2 18.15 -3.95 Q17.8 -2.7 15.65 -2.7 13.6 -2.65 12.85 -3.55 L12.5 -4.45 Q13.2 -3.55 14.3 -3.35 15.45 -3.15 16.05 -4.05 16.45 -4.7 16.3 -6.0 16.1 -7.35 16.45 -7.9 16.5 -8.05 17.05 -8.25 17.65 -8.45 17.85 -8.7 L17.9 -8.9 18.05 -8.3 17.85 -7.95 17.7 -7.3 17.85 -7.25 18.05 -7.45 M19.6 -7.8 L20.0 -7.8 20.05 -8.0 20.4 -7.35 Q20.5 -6.8 20.2 -5.45 20.0 -4.85 19.25 -4.3 L18.0 -4.35 Q19.35 -4.1 19.9 -5.15 20.55 -7.05 19.6 -7.8" fill="#498ec7" fill-rule="evenodd" stroke="none"/>
    <path d="M14.55 -9.75 Q14.25 -9.3 14.65 -8.8 L15.55 -8.15 15.3 -8.15 13.65 -8.35 Q13.0 -8.6 13.0 -8.95 13.0 -9.5 14.55 -9.75" fill="#d4d1b8" fill-rule="evenodd" stroke="none"/>
    <path d="M15.3 -9.75 L16.9 -9.55 17.6 -8.95 17.0 -8.4 15.55 -8.15 14.65 -8.8 Q14.25 -9.3 14.55 -9.75 L15.3 -9.75" fill="#efeddc" fill-rule="evenodd" stroke="none"/>
    <path d="M-18.95 -5.9 L-18.9 -8.1 Q-17.4 -6.7 -15.1 -6.8 L-10.95 -7.35 -11.15 -6.55 -11.25 -5.1 -15.4 -4.55 Q-17.8 -4.4 -18.95 -5.9 M-17.45 -9.1 L-16.7 -9.15 -16.7 -8.4 -17.45 -8.4 -17.45 -9.1 M-13.5 -9.25 L-12.85 -9.3 -12.8 -8.6 -13.45 -8.55 -13.5 -9.25" fill="#ffb238" fill-rule="evenodd" stroke="none"/>
    <path d="M-17.55 -3.05 Q-18.55 -3.25 -18.85 -4.1 L-18.95 -5.9 Q-17.8 -4.4 -15.4 -4.55 L-11.25 -5.1 -11.1 -3.1 -12.65 -2.85 -14.25 -2.8 -17.55 -3.05 M-12.75 -10.3 L-12.85 -9.3 -13.5 -9.25 -13.45 -9.45 -13.25 -10.3 Q-13.15 -11.1 -13.65 -11.45 L-14.7 -11.55 -15.4 -11.15 -15.55 -11.05 -16.25 -10.25 -16.55 -9.6 -16.7 -9.15 -17.45 -9.1 -17.55 -8.4 -17.35 -8.2 -16.6 -8.05 Q-16.35 -8.3 -16.35 -8.8 L-16.25 -9.6 -13.8 -9.45 -13.8 -8.25 -12.55 -8.2 -12.6 -9.3 -12.55 -9.5 -10.55 -9.5 -10.95 -7.35 -15.1 -6.8 Q-17.4 -6.7 -18.9 -8.1 L-19.2 -10.2 -17.35 -9.75 -17.45 -9.15 -16.85 -10.3 -15.95 -11.4 -15.25 -11.9 -13.75 -12.05 Q-13.05 -11.95 -12.85 -11.4 -12.65 -11.05 -12.75 -10.3" fill="#ffdf34" fill-rule="evenodd" stroke="none"/>
    <path d="M-16.6 -11.4 L-17.0 -11.1 -17.0 -10.75 -16.95 -10.65 -16.4 -11.4 -16.6 -11.4 M-14.95 -10.8 L-15.05 -10.9 -15.75 -10.3 -14.55 -10.3 -14.95 -10.8 M-12.55 -9.5 L-12.6 -9.3 -12.55 -8.2 -13.8 -8.25 -13.8 -9.45 -16.25 -9.6 -16.35 -8.8 Q-16.35 -8.3 -16.6 -8.05 L-17.35 -8.2 -17.55 -8.4 -17.6 -8.65 -17.45 -9.15 -17.4 -8.8 -17.45 -8.4 -16.7 -8.4 -16.55 -9.6 -16.25 -10.25 -15.55 -11.05 -15.4 -11.15 -14.7 -11.55 -13.65 -11.45 Q-13.15 -11.1 -13.25 -10.3 L-13.5 -9.25 -13.45 -8.55 -12.8 -8.6 -12.8 -9.5 -12.75 -10.3 Q-12.65 -11.05 -12.85 -11.4 -13.05 -11.95 -13.75 -12.05 L-15.25 -11.9 -15.95 -11.4 -16.85 -10.3 -17.45 -9.15 -17.35 -9.75 -19.2 -10.2 Q-18.9 -9.0 -18.9 -6.9 L-18.95 -4.55 Q-18.75 -3.3 -17.55 -3.05 L-14.25 -2.8 -12.65 -2.85 -11.1 -3.1 -11.25 -4.85 -11.15 -6.55 -10.8 -8.05 -10.55 -9.5 -12.55 -9.5 M-14.4 -11.25 L-13.7 -10.35 Q-13.6 -11.4 -14.4 -11.25 M-16.8 -12.05 L-15.5 -12.0 -14.1 -12.35 Q-13.35 -12.35 -12.9 -11.95 -12.45 -11.45 -12.5 -10.3 -10.6 -10.25 -10.2 -9.75 -9.95 -9.45 -10.6 -7.35 L-10.8 -5.2 -10.7 -3.1 Q-10.6 -2.7 -12.45 -2.5 L-14.65 -2.4 -17.15 -2.55 Q-18.4 -2.8 -18.85 -3.35 -19.3 -3.95 -19.3 -5.2 L-19.25 -7.6 -19.55 -9.95 -19.7 -10.35 -17.75 -10.4 -17.6 -10.35 -17.7 -10.6 -17.75 -10.85 -17.65 -11.35 -16.8 -12.05" fill="#957d23" fill-rule="evenodd" stroke="none"/>
    <path d="M-7.15 -9.75 Q-6.75 -10.4 -7.0 -10.45 L-7.7 -9.9 -8.95 -8.4 -10.05 -6.4 -10.9 -5.2 -11.8 -4.95 -12.3 -4.7 -11.15 -4.55 -9.8 -4.8 -8.85 -6.3 -8.0 -8.3 -7.15 -9.75 M-13.25 -2.3 L-14.2 -2.5 Q-15.05 -2.7 -15.05 -2.85 L-14.5 -3.55 -13.65 -4.2 -12.75 -4.8 -11.85 -5.15 -10.95 -5.45 -10.65 -5.85 -9.85 -7.15 -8.5 -9.2 -7.85 -10.05 -6.9 -10.75 -6.55 -10.55 -6.15 -9.75 -6.1 -8.75 Q-6.15 -8.2 -6.8 -7.6 L-7.8 -6.6 -8.25 -4.4 -8.65 -3.3 Q-8.9 -2.7 -9.4 -2.5 L-9.8 -2.4 -11.45 -2.25 -13.25 -2.3" fill="#d63795" fill-rule="evenodd" stroke="none"/>
    <path d="M-9.4 -6.05 L-8.4 -7.45 Q-9.3 -5.2 -9.8 -4.8 L-10.4 -4.65 -9.4 -6.05 M-14.7 -3.8 L-13.8 -4.45 -12.9 -5.05 -11.9 -5.4 -11.1 -5.7 -10.7 -6.3 -10.1 -7.3 -8.65 -9.35 -8.0 -10.05 -7.15 -10.65 -6.95 -10.7 -7.85 -10.05 -8.5 -9.2 -9.85 -7.15 -10.65 -5.85 -10.95 -5.45 -11.85 -5.15 -12.75 -4.8 -13.65 -4.2 -14.5 -3.55 -15.05 -2.85 Q-15.05 -2.7 -14.2 -2.5 L-13.25 -2.3 -11.45 -2.25 -9.8 -2.4 -9.4 -2.5 Q-8.9 -2.7 -8.65 -3.3 L-8.35 -4.05 -8.05 -4.95 -7.8 -5.45 Q-7.4 -6.4 -5.85 -7.2 L-5.95 -7.05 -7.05 -6.0 -6.95 -5.8 -6.9 -5.2 -6.85 -3.35 -6.5 -3.4 -6.45 -4.2 -5.95 -7.05 Q-5.05 -8.2 -5.4 -9.3 -5.75 -10.25 -6.9 -10.75 L-6.55 -10.65 Q-5.75 -10.4 -5.25 -9.35 -4.95 -8.75 -5.1 -8.15 L-5.4 -7.55 -5.65 -6.95 Q-6.1 -5.9 -6.2 -4.15 L-6.2 -3.15 -6.25 -2.85 Q-6.35 -2.7 -6.6 -2.65 -7.15 -2.55 -7.15 -3.0 L-7.15 -5.2 -7.25 -5.7 Q-7.35 -6.05 -7.3 -5.7 L-7.75 -4.85 -8.1 -4.0 -8.35 -3.2 Q-8.7 -2.45 -9.3 -2.25 L-9.75 -2.1 -11.45 -1.95 -13.25 -2.05 -14.3 -2.2 -14.8 -2.35 -15.3 -2.75 -15.1 -3.4 -14.7 -3.8" fill="#5f0b49" fill-rule="evenodd" stroke="none"/>
    <path d="M-7.05 -6.0 L-5.95 -7.05 -6.45 -4.2 -6.5 -3.4 -6.85 -3.35 -6.9 -5.2 -6.95 -5.8 -7.05 -6.0 M-6.55 -10.55 Q-5.6 -10.05 -5.4 -9.15 -5.1 -8.2 -5.85 -7.2 -7.4 -6.4 -7.8 -5.45 L-8.25 -4.4 -7.8 -6.6 -6.8 -7.6 Q-6.15 -8.2 -6.1 -8.75 L-6.15 -9.75 -6.55 -10.55 M-7.0 -10.45 Q-6.75 -10.4 -7.15 -9.75 L-8.0 -8.3 -8.4 -7.45 -9.4 -6.05 -10.4 -4.65 -11.6 -4.55 -12.3 -4.7 -11.8 -4.95 -10.9 -5.2 -10.05 -6.4 -8.95 -8.4 -7.7 -9.9 -7.0 -10.45" fill="#9f2e7d" fill-rule="evenodd" stroke="none"/>
    <path d="M-12.2 -3.3 L-12.45 -2.9 -13.05 -2.75 -13.65 -2.9 -13.9 -3.3 -13.65 -3.7 -13.05 -3.85 -12.45 -3.7 -12.2 -3.3" fill="#fde1f0" fill-rule="evenodd" stroke="none"/>
    <path d="M7.25 -2.9 Q6.05 -3.1 6.1 -3.65 L5.95 -4.45 5.8 -4.55 6.25 -4.9 6.3 -4.9 6.3 -4.85 Q6.55 -4.1 6.95 -4.4 L7.7 -4.25 Q8.15 -4.15 8.35 -4.5 L8.9 -4.15 6.25 -4.25 9.65 -4.0 9.8 -3.55 Q9.8 -3.05 9.45 -3.0 L7.25 -2.9" fill="#cd7141" fill-rule="evenodd" stroke="none"/>
    <path d="M5.55 -5.35 L5.65 -5.4 6.75 -4.95 Q7.6 -4.8 8.8 -4.95 L9.9 -5.2 10.4 -5.6 10.75 -5.45 10.6 -4.6 10.45 -4.45 10.2 -3.0 9.8 -2.75 9.55 -2.65 7.2 -2.55 6.6 -2.7 5.95 -3.1 5.8 -4.25 5.55 -4.45 5.4 -5.2 5.55 -5.35 M7.7 -4.25 L6.95 -4.4 Q6.55 -4.1 6.3 -4.85 L6.3 -4.9 6.25 -4.9 5.8 -4.55 5.95 -4.45 6.1 -3.65 Q6.05 -3.1 7.25 -2.9 L9.45 -3.0 Q9.8 -3.05 9.8 -3.55 L9.65 -4.0 6.25 -4.25 8.9 -4.15 8.35 -4.5 Q8.15 -4.15 7.7 -4.25" fill="#893e1a" fill-rule="evenodd" stroke="none"/>
    <path d="M7.05 -11.4 L6.55 -11.75 6.5 -11.45 6.6 -11.15 6.15 -11.1 5.55 -11.25 4.75 -10.7 4.4 -9.85 4.0 -9.3 Q3.8 -8.9 3.95 -8.4 4.35 -7.5 4.4 -7.75 L4.3 -7.4 3.9 -7.3 4.65 -7.05 4.75 -6.7 4.25 -6.4 Q3.9 -6.1 4.4 -5.95 L4.6 -6.25 5.0 -6.55 5.0 -6.25 4.95 -5.9 Q5.05 -4.85 6.0 -5.25 L7.35 -6.0 7.15 -5.8 Q7.25 -5.4 8.55 -5.5 L10.1 -5.35 Q10.65 -5.55 10.8 -6.0 L10.9 -6.25 11.1 -6.25 11.3 -6.0 Q11.65 -6.3 11.5 -6.45 L11.25 -6.7 Q11.75 -6.8 12.15 -7.25 L12.55 -8.2 Q12.6 -8.65 12.1 -9.0 11.55 -9.4 11.5 -9.7 L11.65 -9.8 Q11.9 -10.15 11.4 -10.5 10.8 -10.75 10.75 -10.85 10.4 -11.85 9.15 -11.85 L7.05 -11.4 M8.85 -12.05 L10.1 -12.05 Q10.65 -11.9 11.05 -11.0 L11.9 -10.35 11.95 -9.6 Q12.95 -9.15 12.85 -7.95 12.75 -6.8 11.7 -6.65 12.1 -6.3 11.75 -5.85 11.4 -5.35 11.0 -5.85 10.7 -5.1 9.55 -5.1 L8.8 -4.95 Q7.6 -4.8 6.75 -4.95 L6.25 -5.15 Q5.4 -4.55 4.8 -5.35 L4.0 -5.85 Q3.45 -6.2 4.05 -6.7 3.6 -6.7 3.45 -7.15 3.3 -7.65 3.75 -7.8 3.4 -8.5 3.6 -9.1 L4.2 -10.15 Q4.05 -10.85 4.75 -11.3 L6.15 -11.5 Q6.1 -11.8 6.45 -11.95 6.8 -12.1 7.25 -11.6 L8.85 -12.05" fill="#57721e" fill-rule="evenodd" stroke="none"/>
    <path d="M9.8 -10.6 L10.25 -10.95 10.2 -11.6 10.75 -10.9 Q10.35 -10.5 9.8 -10.6 M7.15 -5.8 L7.35 -6.0 6.0 -5.2 Q5.05 -4.9 4.95 -5.9 5.95 -5.2 7.1 -6.7 L7.15 -6.5 7.25 -6.4 8.15 -6.5 Q8.25 -6.2 8.55 -6.15 L9.1 -6.3 9.15 -6.55 9.1 -6.95 Q9.2 -6.55 9.65 -6.4 L10.25 -6.5 Q10.55 -6.9 10.2 -7.25 L9.55 -7.9 10.4 -7.45 Q10.9 -7.25 11.15 -7.65 L11.1 -8.05 10.7 -8.3 11.1 -8.3 11.4 -8.4 Q11.55 -8.75 11.35 -9.1 L10.85 -9.6 10.45 -9.6 11.2 -9.95 Q11.4 -10.15 11.2 -10.35 L10.85 -10.75 11.5 -10.4 Q11.85 -10.15 11.65 -9.8 L11.5 -9.7 Q11.55 -9.4 12.1 -9.0 12.6 -8.65 12.55 -8.2 L12.15 -7.25 Q11.75 -6.8 11.25 -6.7 L11.5 -6.45 Q11.65 -6.3 11.3 -6.0 L11.1 -6.25 10.9 -6.25 10.8 -6.0 10.35 -5.5 Q9.7 -5.05 8.55 -5.5 7.25 -5.4 7.15 -5.8 M4.75 -6.7 L4.65 -7.05 4.45 -7.1 Q4.9 -7.05 5.3 -7.4 5.2 -6.9 4.75 -6.7 M5.1 -8.15 L4.85 -7.6 4.35 -7.45 4.4 -7.75 4.1 -8.15 Q4.35 -7.95 4.6 -7.9 4.9 -7.9 5.1 -8.15 M5.7 -11.25 L6.15 -11.15 6.45 -11.1 6.25 -10.75 6.05 -11.05 5.7 -11.25 M7.05 -11.05 L7.05 -11.5 7.1 -11.4 7.85 -11.65 7.05 -11.05" fill="#80a42f" fill-rule="evenodd" stroke="none"/>
    <path d="M8.35 -7.4 L8.6 -7.5 Q8.85 -7.8 8.5 -8.1 L7.85 -8.15 7.75 -7.85 7.95 -7.55 Q8.15 -7.4 8.35 -7.4 M9.2 -9.15 Q9.65 -8.85 9.9 -8.85 L10.05 -9.1 10.05 -9.4 8.45 -9.55 9.2 -9.15 M5.55 -6.2 Q5.8 -6.0 6.15 -6.4 6.5 -6.8 6.25 -7.0 5.95 -7.25 5.6 -6.85 5.25 -6.4 5.55 -6.2 M6.25 -10.75 L6.25 -10.55 6.05 -10.3 Q6.15 -10.6 5.7 -11.05 L5.1 -11.1 5.55 -11.25 5.7 -11.25 6.05 -11.05 6.25 -10.75 6.45 -11.1 6.6 -11.15 6.5 -11.45 6.55 -11.75 7.05 -11.5 7.05 -11.05 7.85 -11.65 10.2 -11.6 10.25 -10.95 9.8 -10.6 Q10.35 -10.5 10.75 -10.9 L10.75 -10.85 10.85 -10.75 11.2 -10.35 Q11.4 -10.15 11.2 -9.95 L10.45 -9.6 10.85 -9.6 11.35 -9.1 Q11.55 -8.75 11.4 -8.4 L11.1 -8.3 10.7 -8.3 11.1 -8.05 11.15 -7.65 Q10.9 -7.25 10.4 -7.45 L9.55 -7.9 10.2 -7.25 Q10.55 -6.9 10.25 -6.5 L9.65 -6.4 Q9.2 -6.55 9.1 -6.95 L9.15 -6.55 9.1 -6.3 8.55 -6.15 Q8.25 -6.2 8.15 -6.5 L7.25 -6.4 7.15 -6.5 7.1 -6.7 Q5.95 -5.2 4.95 -5.9 L5.0 -6.25 5.0 -6.55 4.6 -6.25 4.4 -5.95 Q3.9 -6.1 4.25 -6.4 L4.75 -6.7 Q5.2 -6.9 5.3 -7.4 4.9 -7.05 4.45 -7.1 L3.9 -7.3 4.3 -7.4 4.35 -7.45 4.85 -7.6 5.1 -8.15 Q4.9 -7.9 4.6 -7.9 4.35 -7.95 4.1 -8.15 L3.95 -8.4 Q3.8 -8.95 4.05 -9.35 3.95 -9.05 4.1 -8.8 4.25 -8.55 4.5 -8.6 L5.1 -9.05 Q5.0 -8.7 5.25 -8.6 L5.8 -8.7 5.75 -8.2 5.75 -7.85 6.05 -7.8 6.35 -8.05 6.45 -7.5 Q6.95 -7.4 7.1 -7.9 7.3 -8.35 6.95 -8.7 L7.55 -8.6 8.1 -8.8 Q8.25 -9.1 8.0 -9.35 L7.3 -9.65 8.15 -9.75 Q8.65 -9.95 8.45 -10.3 L8.2 -10.45 7.8 -10.4 8.25 -10.7 Q8.5 -10.9 8.2 -11.05 L7.4 -11.0 6.7 -10.45 6.7 -10.65 6.7 -10.85 6.25 -10.6 6.25 -10.75" fill="#a3cb56" fill-rule="evenodd" stroke="none"/>
    <path d="M8.5 -8.1 Q8.85 -7.8 8.6 -7.5 L8.35 -7.4 Q8.15 -7.4 7.95 -7.55 L7.75 -7.85 7.85 -8.15 8.5 -8.1 M8.45 -9.55 L10.05 -9.4 10.05 -9.1 9.9 -8.85 Q9.65 -8.85 9.2 -9.15 L8.45 -9.55 M5.55 -6.2 Q5.25 -6.4 5.6 -6.85 5.95 -7.25 6.25 -7.0 6.5 -6.8 6.15 -6.4 5.8 -6.0 5.55 -6.2 M6.7 -10.45 L7.4 -11.0 8.2 -11.05 Q8.5 -10.9 8.25 -10.7 L7.8 -10.4 8.2 -10.45 8.45 -10.3 Q8.65 -9.95 8.15 -9.75 L7.3 -9.65 8.0 -9.35 Q8.25 -9.1 8.1 -8.8 L7.55 -8.6 6.95 -8.7 Q7.3 -8.35 7.1 -7.9 6.95 -7.4 6.45 -7.5 L6.35 -8.05 6.05 -7.8 5.75 -7.85 5.75 -8.2 5.8 -8.7 5.25 -8.6 Q5.0 -8.7 5.1 -9.05 L4.5 -8.6 Q4.25 -8.55 4.1 -8.8 3.95 -9.05 4.05 -9.35 L4.4 -9.85 4.7 -10.55 5.1 -11.1 5.7 -11.05 Q6.15 -10.6 6.05 -10.3 L6.25 -10.55 6.25 -10.75 6.25 -10.6 6.7 -10.85 6.7 -10.65 6.7 -10.45" fill="#d4f689" fill-rule="evenodd" stroke="none"/>
  </g>
</svg>
