<?xml version="1.0" encoding="UTF-8" standalone="no"?>
<svg xmlns:ffdec="https://www.free-decompiler.com/flash" xmlns:xlink="http://www.w3.org/1999/xlink" ffdec:objectType="shape" height="55.05px" width="55.1px" xmlns="http://www.w3.org/2000/svg">
  <g transform="matrix(1.0, 0.0, 0.0, 1.0, 23.55, 23.55)">
    <path d="M16.6 -16.6 Q23.55 -9.7 23.55 0.05 23.55 9.8 16.6 16.65 9.75 23.55 0.0 23.55 -9.75 23.55 -16.65 16.65 -23.55 9.8 -23.55 0.05 -23.55 -9.7 -16.65 -16.6 -9.75 -23.55 0.0 -23.55 9.75 -23.55 16.6 -16.6" fill="#f5807d" fill-rule="evenodd" stroke="none"/>
    <path d="M19.8 0.05 Q19.8 8.2 14.0 14.0 8.2 19.8 0.0 19.8 -8.2 19.8 -14.0 14.0 -19.8 8.2 -19.8 0.05 -19.8 -8.2 -14.0 -14.0 -8.2 -19.8 0.0 -19.8 8.2 -19.8 14.0 -14.0 19.8 -8.2 19.8 0.05" fill="#ffffff" fill-rule="evenodd" stroke="none"/>
    <path d="M-6.2 -3.1 Q-6.2 -2.4 -7.25 -1.85 -8.3 -1.35 -9.75 -1.35 L-19.3 -1.35 Q-20.75 -1.35 -21.8 -1.85 -22.85 -2.4 -22.85 -3.1 L-6.2 -3.1" fill="#231f20" fill-rule="evenodd" stroke="none"/>
    <path d="M20.45 -1.85 Q19.4 -1.35 17.95 -1.35 L8.4 -1.35 Q6.95 -1.35 5.9 -1.85 4.85 -2.4 4.85 -3.1 L21.5 -3.1 Q21.5 -2.4 20.45 -1.85" fill="#231f20" fill-rule="evenodd" stroke="none"/>
    <path d="M12.75 -1.55 L13.9 -1.55 13.9 4.25 13.6 5.05 Q13.25 5.4 12.75 5.4 L-13.9 5.4 Q-14.4 5.4 -14.75 5.05 L-15.05 4.25 -15.05 -1.55 -13.9 -1.55 -13.9 4.25 12.75 4.25 12.75 -1.55" fill="#231f20" fill-rule="evenodd" stroke="none"/>
    <path d="M-3.8 14.15 Q-4.15 14.15 -4.35 13.85 L-4.45 13.2 -3.25 4.75 Q-3.15 3.8 -2.35 3.2 -1.6 2.6 -0.7 2.6 0.25 2.6 1.0 3.2 1.8 3.8 1.9 4.75 L3.1 13.2 3.0 13.85 2.45 14.15 -3.8 14.15" fill="#231f20" fill-rule="evenodd" stroke="none"/>
    <path d="M0.95 5.0 Q0.95 5.7 0.45 6.15 0.0 6.65 -0.7 6.65 -1.35 6.65 -1.8 6.15 -2.3 5.7 -2.3 5.0 -2.3 4.35 -1.8 3.9 -1.35 3.4 -0.7 3.4 0.0 3.4 0.45 3.9 0.95 4.35 0.95 5.0" fill="#ffffff" fill-rule="evenodd" stroke="none"/>
    <path d="M20.25 -9.45 Q21.0 -9.9 21.85 -9.45 22.65 -9.0 22.85 -8.2 23.1 -6.7 22.4 -5.4 21.55 -3.9 20.05 -4.35 19.9 -2.9 17.7 -2.7 15.8 -2.55 14.55 -3.2 13.55 -3.75 13.45 -5.6 L13.55 -8.5 Q13.55 -9.6 13.7 -9.95 13.9 -10.65 14.75 -10.95 L17.5 -11.25 Q19.2 -11.1 20.05 -10.2 L20.25 -9.45 M21.65 -7.25 L21.4 -7.95 21.0 -8.25 20.25 -8.4 20.15 -5.35 Q21.35 -5.1 21.65 -7.25 M22.5 -8.1 Q22.35 -8.8 21.7 -9.1 20.4 -9.75 19.7 -8.75 L19.9 -9.15 Q19.95 -10.7 17.25 -11.0 14.55 -11.3 13.95 -9.95 13.6 -9.15 13.65 -6.8 13.7 -4.4 14.15 -3.95 15.0 -2.95 17.25 -3.0 19.6 -3.0 20.0 -4.35 L19.5 -4.65 19.4 -5.3 19.65 -5.5 20.0 -5.35 19.9 -8.25 19.65 -8.0 19.5 -8.1 19.7 -8.75 19.7 -8.35 20.4 -8.7 21.15 -8.55 21.7 -8.2 Q22.05 -7.8 22.0 -7.25 L21.8 -6.15 Q21.55 -5.5 21.1 -5.15 L20.45 -5.1 19.75 -4.9 Q20.25 -4.1 21.2 -4.75 22.05 -5.35 22.25 -6.05 L22.5 -8.1" fill="#1b597b" fill-rule="evenodd" stroke="none"/>
    <path d="M19.7 -9.6 Q19.45 -9.3 18.8 -9.1 L18.1 -8.75 Q17.75 -8.15 17.95 -6.65 18.15 -5.2 17.7 -4.5 17.05 -3.5 15.75 -3.7 14.55 -3.95 13.8 -4.9 13.6 -6.05 13.65 -7.7 13.7 -9.35 13.95 -9.95 14.5 -11.1 16.75 -11.0 19.05 -10.95 19.75 -9.8 L19.7 -9.6 M19.4 -9.9 L18.65 -10.55 16.85 -10.75 16.05 -10.75 Q14.35 -10.5 14.35 -9.9 14.35 -9.5 15.05 -9.25 L16.85 -9.0 17.15 -9.0 18.75 -9.3 Q19.4 -9.55 19.4 -9.9 M22.0 -7.25 Q22.05 -7.8 21.7 -8.2 L21.15 -8.55 20.4 -8.7 19.7 -8.35 19.7 -8.75 Q20.4 -9.75 21.7 -9.1 L22.1 -8.85 22.05 -8.65 21.6 -8.65 Q22.65 -7.8 21.9 -5.7 21.3 -4.55 19.85 -4.85 L19.75 -4.9 20.45 -5.1 21.1 -5.15 Q21.55 -5.5 21.8 -6.15 L22.0 -7.25" fill="#5ca7ff" fill-rule="evenodd" stroke="none"/>
    <path d="M19.9 -8.25 L20.0 -5.35 19.65 -5.5 19.4 -5.3 19.5 -4.65 20.0 -4.35 Q19.6 -3.0 17.25 -3.0 15.0 -2.95 14.15 -3.95 L13.8 -4.9 Q14.55 -3.95 15.75 -3.7 17.05 -3.5 17.7 -4.5 18.15 -5.2 17.95 -6.65 17.75 -8.15 18.1 -8.75 L18.8 -9.1 Q19.45 -9.3 19.7 -9.6 L19.75 -9.8 19.9 -9.15 19.7 -8.75 19.5 -8.1 19.65 -8.0 19.9 -8.25 M21.6 -8.65 L22.05 -8.65 22.1 -8.85 22.5 -8.1 22.25 -6.05 Q22.05 -5.35 21.25 -4.8 L19.85 -4.85 Q21.3 -4.55 21.9 -5.7 22.65 -7.8 21.6 -8.65" fill="#498ec7" fill-rule="evenodd" stroke="none"/>
    <path d="M16.05 -10.75 Q15.75 -10.25 16.15 -9.75 L17.15 -9.0 16.85 -9.0 15.05 -9.25 Q14.35 -9.5 14.35 -9.9 14.35 -10.5 16.05 -10.75" fill="#d4d1b8" fill-rule="evenodd" stroke="none"/>
    <path d="M16.85 -10.75 L18.65 -10.55 19.4 -9.9 Q19.4 -9.55 18.75 -9.3 L17.15 -9.0 16.15 -9.75 Q15.75 -10.25 16.05 -10.75 L16.85 -10.75" fill="#efeddc" fill-rule="evenodd" stroke="none"/>
    <path d="M-20.8 -6.5 L-20.75 -8.95 Q-19.1 -7.4 -16.55 -7.55 L-12.0 -8.15 -12.25 -7.25 -12.3 -5.65 -16.9 -5.05 Q-19.55 -4.85 -20.8 -6.5 M-19.15 -10.05 L-18.3 -10.1 -18.35 -9.25 -19.15 -9.3 -19.15 -10.05 M-14.8 -10.2 L-14.1 -10.25 -14.05 -9.5 -14.75 -9.45 -14.8 -10.2" fill="#ffb238" fill-rule="evenodd" stroke="none"/>
    <path d="M-19.25 -3.4 Q-20.4 -3.6 -20.7 -4.55 L-20.8 -6.5 Q-19.55 -4.85 -16.9 -5.05 L-12.3 -5.65 -12.15 -3.45 -13.9 -3.2 -15.65 -3.15 -19.25 -3.4 M-13.95 -11.4 L-14.1 -10.25 -14.8 -10.2 -14.75 -10.45 -14.55 -11.4 Q-14.45 -12.25 -14.95 -12.6 L-16.15 -12.75 -16.9 -12.3 -17.05 -12.2 -17.85 -11.3 -18.2 -10.6 -18.3 -10.1 -19.15 -10.05 -19.25 -9.25 -19.05 -9.05 -18.2 -8.9 Q-17.95 -9.15 -17.95 -9.7 L-17.8 -10.6 -15.15 -10.45 -15.15 -9.1 -13.8 -9.05 -13.85 -10.3 -13.8 -10.45 -11.6 -10.5 -12.0 -8.15 -16.55 -7.55 Q-19.1 -7.4 -20.75 -8.95 -20.85 -10.35 -21.1 -11.25 L-19.05 -10.75 -19.15 -10.1 -18.5 -11.35 -17.5 -12.55 -16.7 -13.1 -15.05 -13.3 Q-14.35 -13.15 -14.1 -12.6 -13.9 -12.2 -13.95 -11.4" fill="#ffdf34" fill-rule="evenodd" stroke="none"/>
    <path d="M-18.2 -12.55 L-18.65 -12.25 -18.65 -11.85 -18.6 -11.75 -18.0 -12.6 -18.2 -12.55 M-16.4 -11.9 L-16.55 -12.0 -17.3 -11.35 -15.95 -11.4 -16.4 -11.9 M-15.8 -12.4 L-15.0 -11.45 Q-14.9 -12.6 -15.8 -12.4 M-16.15 -12.75 L-14.95 -12.6 Q-14.45 -12.25 -14.55 -11.4 L-14.8 -10.2 -14.75 -9.45 -14.05 -9.5 -14.05 -10.45 -13.95 -11.4 Q-13.9 -12.2 -14.1 -12.6 -14.35 -13.15 -15.05 -13.3 L-16.7 -13.1 -17.5 -12.55 -18.5 -11.35 -19.15 -10.1 -19.05 -10.75 -21.1 -11.25 Q-20.75 -9.95 -20.75 -7.6 L-20.8 -5.05 Q-20.6 -3.7 -19.25 -3.4 L-15.65 -3.15 -13.9 -3.2 -12.15 -3.45 -12.3 -5.35 -12.25 -7.25 -11.85 -8.9 -11.6 -10.5 -13.8 -10.45 -13.85 -10.3 -13.8 -9.05 -15.15 -9.1 -15.15 -10.45 -17.8 -10.6 -17.95 -9.7 Q-17.95 -9.15 -18.2 -8.9 L-19.05 -9.05 -19.25 -9.25 -19.3 -9.55 -19.15 -10.1 -19.1 -9.7 -19.15 -9.3 -18.35 -9.25 Q-18.45 -10.0 -18.2 -10.6 L-17.85 -11.3 -17.05 -12.2 -16.9 -12.3 -16.15 -12.75 M-18.45 -13.3 L-17.0 -13.2 -15.5 -13.6 Q-14.65 -13.65 -14.15 -13.15 -13.65 -12.65 -13.7 -11.35 -11.6 -11.3 -11.15 -10.75 -10.9 -10.45 -11.6 -8.1 -11.9 -7.1 -11.85 -5.75 L-11.7 -3.45 Q-11.65 -3.0 -13.65 -2.8 L-16.1 -2.7 -18.85 -2.85 Q-20.2 -3.1 -20.7 -3.75 -21.2 -4.35 -21.2 -5.75 L-21.15 -8.4 -21.45 -11.0 -21.6 -11.45 Q-21.2 -11.85 -19.5 -11.45 L-19.35 -11.45 -19.4 -11.7 -19.45 -12.0 -19.4 -12.55 Q-19.15 -13.1 -18.45 -13.3" fill="#957d23" fill-rule="evenodd" stroke="none"/>
    <path d="M-7.8 -10.75 Q-7.35 -11.45 -7.65 -11.55 L-8.45 -10.95 -9.8 -9.3 -11.05 -7.1 Q-11.65 -5.85 -11.95 -5.75 L-12.95 -5.45 -13.5 -5.2 -12.25 -5.05 -10.75 -5.3 Q-10.3 -5.65 -9.7 -7.0 L-8.75 -9.15 -7.8 -10.75 M-14.5 -2.6 L-15.6 -2.75 Q-16.5 -3.0 -16.5 -3.15 L-15.9 -3.95 -14.95 -4.65 -13.95 -5.3 -13.0 -5.7 Q-12.2 -5.9 -12.0 -6.05 L-11.65 -6.45 -10.8 -7.9 -9.3 -10.15 -8.6 -11.1 -7.55 -11.85 -7.2 -11.65 Q-6.85 -11.3 -6.75 -10.75 L-6.7 -9.65 Q-6.75 -9.05 -7.45 -8.4 L-8.55 -7.3 -9.0 -4.85 -9.45 -3.65 Q-9.75 -3.0 -10.3 -2.75 L-10.75 -2.65 -12.55 -2.5 -14.5 -2.6" fill="#d63795" fill-rule="evenodd" stroke="none"/>
    <path d="M-10.3 -6.7 L-9.2 -8.2 Q-10.2 -5.75 -10.75 -5.3 L-11.4 -5.15 -10.3 -6.7 M-16.1 -4.2 L-15.15 -4.95 -14.15 -5.6 -13.05 -6.0 -12.2 -6.3 -11.7 -7.0 -11.05 -8.1 -9.5 -10.35 -8.75 -11.1 -7.85 -11.75 -7.6 -11.8 -8.6 -11.1 -9.3 -10.15 -10.8 -7.9 -11.65 -6.45 -12.0 -6.05 Q-12.2 -5.9 -13.0 -5.7 L-13.95 -5.3 -14.95 -4.65 -15.9 -3.95 -16.5 -3.15 Q-16.5 -3.0 -15.6 -2.75 L-14.5 -2.6 -12.55 -2.5 -10.75 -2.65 -10.3 -2.75 Q-9.75 -3.0 -9.45 -3.65 L-9.15 -4.5 -8.8 -5.5 -8.55 -6.0 Q-8.1 -7.05 -6.4 -7.95 L-6.5 -7.8 -7.7 -6.6 -7.6 -6.4 -7.55 -5.75 -7.5 -3.75 -7.1 -3.8 -7.05 -4.65 Q-6.95 -6.55 -6.5 -7.8 -5.5 -9.05 -5.9 -10.25 -6.25 -11.3 -7.55 -11.85 L-7.15 -11.75 Q-6.3 -11.45 -5.7 -10.35 -5.4 -9.65 -5.6 -9.0 L-5.9 -8.35 -6.2 -7.7 Q-6.65 -6.55 -6.75 -4.6 L-6.8 -3.5 -6.85 -3.15 Q-6.95 -3.0 -7.2 -2.95 -7.8 -2.85 -7.85 -3.35 L-7.85 -5.75 -7.9 -6.3 Q-8.05 -6.7 -8.0 -6.3 L-8.5 -5.4 -8.85 -4.4 -9.15 -3.55 Q-9.55 -2.7 -10.2 -2.5 L-10.65 -2.35 -12.55 -2.15 -14.55 -2.3 -15.7 -2.45 -16.25 -2.65 -16.8 -3.05 -16.6 -3.75 -16.1 -4.2" fill="#5f0b49" fill-rule="evenodd" stroke="none"/>
    <path d="M-7.65 -11.55 Q-7.35 -11.45 -7.8 -10.75 L-8.75 -9.15 -9.2 -8.2 -10.3 -6.7 -11.4 -5.15 -12.75 -5.05 -13.5 -5.2 -12.95 -5.45 -11.95 -5.75 Q-11.65 -5.85 -11.05 -7.1 L-9.8 -9.3 -8.45 -10.95 -7.65 -11.55 M-7.2 -11.65 Q-6.15 -11.1 -5.9 -10.1 -5.6 -9.05 -6.4 -7.95 -8.1 -7.05 -8.55 -6.0 L-9.0 -4.85 -8.55 -7.3 -7.45 -8.4 Q-6.75 -9.05 -6.7 -9.65 L-6.75 -10.75 Q-6.85 -11.3 -7.2 -11.65 M-7.7 -6.6 L-6.5 -7.8 Q-6.95 -6.55 -7.05 -4.65 L-7.1 -3.8 -7.5 -3.75 -7.55 -5.75 -7.6 -6.4 -7.7 -6.6" fill="#9f2e7d" fill-rule="evenodd" stroke="none"/>
    <path d="M-13.4 -3.65 L-13.65 -3.2 -14.35 -3.05 -15.0 -3.2 -15.25 -3.65 -15.0 -4.1 -14.35 -4.3 -13.65 -4.1 -13.4 -3.65" fill="#fde1f0" fill-rule="evenodd" stroke="none"/>
    <path d="M8.05 -3.2 Q6.7 -3.45 6.75 -4.05 L6.6 -4.95 6.4 -5.05 6.9 -5.4 6.95 -5.4 Q7.25 -4.55 7.7 -4.85 L8.5 -4.7 Q9.0 -4.6 9.2 -4.95 9.45 -4.7 9.8 -4.6 L6.95 -4.7 10.65 -4.45 Q10.85 -4.45 10.85 -3.95 10.8 -3.4 10.4 -3.3 L8.05 -3.2" fill="#cd7141" fill-rule="evenodd" stroke="none"/>
    <path d="M6.15 -5.9 L6.25 -5.95 7.5 -5.5 9.75 -5.45 10.9 -5.75 11.5 -6.2 Q11.7 -6.15 11.85 -6.05 L11.7 -5.1 11.5 -4.95 11.25 -3.3 10.8 -3.05 10.55 -2.95 7.95 -2.85 7.3 -3.0 Q6.8 -3.2 6.6 -3.45 L6.4 -4.7 6.15 -4.9 5.95 -5.75 6.15 -5.9 M8.5 -4.7 L7.7 -4.85 Q7.25 -4.55 6.95 -5.4 L6.9 -5.4 6.4 -5.05 6.6 -4.95 6.75 -4.05 Q6.7 -3.45 8.05 -3.2 L10.4 -3.3 Q10.8 -3.4 10.85 -3.95 10.85 -4.45 10.65 -4.45 L6.95 -4.7 9.8 -4.6 Q9.45 -4.7 9.2 -4.95 9.0 -4.6 8.5 -4.7" fill="#893e1a" fill-rule="evenodd" stroke="none"/>
    <path d="M7.8 -12.6 L7.25 -12.95 7.2 -12.6 7.3 -12.3 6.8 -12.25 6.15 -12.4 Q5.45 -12.3 5.25 -11.8 L4.9 -10.85 4.45 -10.25 Q4.25 -9.85 4.35 -9.3 4.8 -8.25 4.9 -8.55 L4.8 -8.15 Q4.1 -8.2 4.35 -8.05 L5.15 -7.8 5.3 -7.4 4.75 -7.05 Q4.3 -6.75 4.85 -6.55 L5.1 -6.9 5.55 -7.25 5.55 -6.9 5.5 -6.5 Q5.6 -5.4 6.65 -5.8 L8.1 -6.6 7.9 -6.45 Q8.05 -5.95 9.45 -6.1 L11.15 -5.95 11.9 -6.6 12.0 -6.9 12.25 -6.9 12.5 -6.65 12.7 -7.15 12.4 -7.4 Q13.0 -7.5 13.4 -8.0 13.8 -8.5 13.85 -9.05 13.9 -9.55 13.35 -9.95 12.75 -10.4 12.7 -10.7 L12.85 -10.85 Q13.15 -11.2 12.55 -11.55 11.95 -11.85 11.9 -12.0 11.45 -13.05 10.1 -13.05 L7.8 -12.6 M9.8 -13.3 L11.15 -13.3 Q11.75 -13.1 12.2 -12.1 L13.15 -11.4 Q13.4 -10.95 13.15 -10.6 14.25 -10.1 14.15 -8.8 14.05 -7.5 12.9 -7.35 13.35 -7.0 13.0 -6.45 12.6 -5.95 12.15 -6.45 11.8 -5.65 10.55 -5.65 L9.75 -5.45 7.5 -5.5 6.95 -5.7 Q5.95 -5.05 5.35 -5.95 L4.45 -6.45 Q3.85 -6.85 4.5 -7.4 4.0 -7.4 3.8 -7.9 3.65 -8.45 4.2 -8.65 3.75 -9.4 4.0 -10.05 L4.65 -11.2 Q4.5 -11.95 5.3 -12.5 L6.8 -12.7 7.1 -13.15 Q7.55 -13.35 8.0 -12.8 L9.8 -13.3" fill="#57721e" fill-rule="evenodd" stroke="none"/>
    <path d="M10.85 -11.7 L11.35 -12.1 11.25 -12.8 11.85 -12.05 Q11.4 -11.6 10.85 -11.7 M7.9 -6.45 L8.1 -6.6 6.65 -5.75 Q5.6 -5.4 5.5 -6.5 6.6 -5.75 7.85 -7.4 L7.9 -7.2 8.0 -7.1 9.0 -7.2 Q9.15 -6.85 9.45 -6.8 L10.05 -6.95 10.1 -7.25 10.05 -7.65 Q10.15 -7.25 10.65 -7.05 L11.3 -7.15 Q11.65 -7.6 11.25 -8.0 L10.55 -8.7 11.5 -8.25 Q12.0 -8.0 12.3 -8.45 L12.25 -8.9 11.8 -9.2 12.25 -9.15 Q12.5 -9.15 12.6 -9.3 12.75 -9.65 12.5 -10.05 L11.95 -10.6 11.55 -10.6 Q12.1 -10.65 12.35 -10.95 12.55 -11.2 12.35 -11.45 L12.0 -11.85 12.7 -11.5 Q13.1 -11.2 12.85 -10.85 L12.7 -10.7 Q12.75 -10.4 13.35 -9.95 13.9 -9.55 13.85 -9.05 13.8 -8.5 13.4 -8.0 13.0 -7.5 12.4 -7.4 L12.7 -7.15 12.5 -6.65 12.25 -6.9 12.0 -6.9 11.9 -6.6 11.4 -6.05 9.45 -6.1 Q8.05 -5.95 7.9 -6.45 M5.65 -9.0 L5.4 -8.4 4.8 -8.2 4.9 -8.55 Q4.85 -8.4 4.55 -9.0 L5.1 -8.75 Q5.45 -8.7 5.65 -9.0 M5.3 -7.4 L5.15 -7.8 4.95 -7.85 Q5.45 -7.8 5.9 -8.2 5.75 -7.65 5.3 -7.4 M7.1 -12.25 L6.95 -11.85 6.7 -12.2 6.3 -12.4 6.8 -12.3 7.1 -12.25 M7.8 -12.65 L7.85 -12.6 8.7 -12.85 7.8 -12.2 7.8 -12.65" fill="#80a42f" fill-rule="evenodd" stroke="none"/>
    <path d="M8.2 -12.1 L7.4 -11.55 7.4 -11.75 7.4 -11.95 6.95 -11.7 6.95 -11.85 7.1 -12.25 7.3 -12.3 7.2 -12.6 7.25 -12.95 7.8 -12.65 7.8 -12.2 8.7 -12.85 11.25 -12.8 11.35 -12.1 10.85 -11.7 Q11.4 -11.6 11.85 -12.05 L11.9 -12.0 12.0 -11.85 12.35 -11.45 Q12.55 -11.2 12.35 -10.95 12.1 -10.65 11.55 -10.6 L11.95 -10.6 12.5 -10.05 Q12.75 -9.65 12.6 -9.3 12.5 -9.15 12.25 -9.15 L11.8 -9.2 12.25 -8.9 12.3 -8.45 Q12.0 -8.0 11.5 -8.25 L10.55 -8.7 11.25 -8.0 Q11.65 -7.6 11.3 -7.15 L10.65 -7.05 Q10.15 -7.25 10.05 -7.65 L10.1 -7.25 10.05 -6.95 9.45 -6.8 Q9.15 -6.85 9.0 -7.2 L8.0 -7.1 7.9 -7.2 7.85 -7.4 Q6.6 -5.75 5.5 -6.5 L5.55 -6.9 5.55 -7.25 5.1 -6.9 4.85 -6.55 Q4.3 -6.75 4.75 -7.05 L5.3 -7.4 Q5.75 -7.65 5.9 -8.2 5.45 -7.8 4.95 -7.85 L4.3 -8.1 4.8 -8.15 4.8 -8.2 5.4 -8.4 5.65 -9.0 Q5.45 -8.7 5.1 -8.75 L4.55 -9.0 4.35 -9.3 Q4.25 -9.85 4.5 -10.3 L4.55 -9.7 Q4.7 -9.45 5.0 -9.5 L5.65 -10.0 Q5.55 -9.6 5.85 -9.5 L6.4 -9.6 6.35 -9.05 Q6.25 -8.8 6.4 -8.65 L6.7 -8.65 Q6.95 -8.65 7.0 -8.9 7.0 -8.4 7.15 -8.3 7.7 -8.2 7.85 -8.7 8.05 -9.2 7.65 -9.6 L8.35 -9.5 8.95 -9.7 Q9.15 -10.05 8.85 -10.35 L8.1 -10.65 9.0 -10.75 Q9.55 -10.95 9.3 -11.35 L9.05 -11.5 8.65 -11.45 9.1 -11.8 Q9.4 -12.05 9.05 -12.2 L8.2 -12.1 M6.95 -11.85 L6.9 -11.65 6.7 -11.4 Q6.8 -11.7 6.3 -12.2 L5.65 -12.25 6.15 -12.4 6.3 -12.4 6.7 -12.2 6.95 -11.85 M9.2 -8.2 L9.5 -8.3 Q9.8 -8.65 9.4 -8.95 L8.65 -9.0 8.6 -8.65 8.8 -8.35 9.2 -8.2 M10.15 -10.1 L10.95 -9.8 11.1 -10.05 11.1 -10.35 9.3 -10.55 10.15 -10.1 M6.15 -6.85 Q6.45 -6.6 6.8 -7.05 7.2 -7.5 6.95 -7.75 6.6 -8.0 6.2 -7.55 5.8 -7.1 6.15 -6.85" fill="#a3cb56" fill-rule="evenodd" stroke="none"/>
    <path d="M9.4 -8.95 Q9.8 -8.65 9.5 -8.3 L9.2 -8.2 8.8 -8.35 8.6 -8.65 8.65 -9.0 9.4 -8.95 M9.3 -10.55 L11.1 -10.35 11.1 -10.05 10.95 -9.8 10.15 -10.1 9.3 -10.55 M6.15 -6.85 Q5.8 -7.1 6.2 -7.55 6.6 -8.0 6.95 -7.75 7.2 -7.5 6.8 -7.05 6.45 -6.6 6.15 -6.85 M7.4 -11.55 L8.2 -12.1 9.05 -12.2 Q9.4 -12.05 9.1 -11.8 L8.65 -11.45 9.05 -11.5 9.3 -11.35 Q9.55 -10.95 9.0 -10.75 L8.1 -10.65 8.85 -10.35 Q9.15 -10.05 8.95 -9.7 L8.35 -9.5 7.65 -9.6 Q8.05 -9.2 7.85 -8.7 7.7 -8.2 7.15 -8.3 7.0 -8.4 7.0 -8.9 6.95 -8.65 6.7 -8.65 L6.4 -8.65 Q6.25 -8.8 6.35 -9.05 L6.4 -9.6 5.85 -9.5 Q5.55 -9.6 5.65 -10.0 L5.0 -9.5 Q4.7 -9.45 4.55 -9.7 L4.5 -10.3 4.9 -10.85 5.2 -11.65 5.65 -12.25 6.3 -12.2 Q6.8 -11.7 6.7 -11.4 L6.9 -11.65 6.95 -11.85 6.95 -11.7 7.4 -11.95 7.4 -11.75 7.4 -11.55" fill="#d4f689" fill-rule="evenodd" stroke="none"/>
    <path d="M25.25 5.6 Q21.35 1.7 15.8 1.7 10.25 1.7 6.3 5.6 2.4 9.55 2.4 15.1 2.4 20.65 6.3 24.55 10.25 28.5 15.8 28.5 21.35 28.5 25.25 24.55 29.15 20.65 29.15 15.1 29.15 9.55 25.25 5.6 M26.9 4.6 Q31.55 9.25 31.55 15.75 31.55 22.25 26.9 26.9 22.3 31.5 15.8 31.5 9.25 31.5 4.65 26.9 0.0 22.25 0.0 15.75 0.0 9.25 4.65 4.6 9.25 0.0 15.8 0.0 22.3 0.0 26.9 4.6" fill="#9d1e60" fill-rule="evenodd" stroke="none"/>
    <path d="M25.25 5.6 Q29.15 9.55 29.15 15.1 29.15 20.65 25.25 24.55 21.35 28.5 15.8 28.5 10.25 28.5 6.3 24.55 2.4 20.65 2.4 15.1 2.4 9.55 6.3 5.6 10.25 1.7 15.8 1.7 21.35 1.7 25.25 5.6 M27.45 11.85 L23.2 7.55 13.8 16.95 7.8 10.95 3.55 15.25 13.8 25.5 27.45 11.85" fill="#f5697d" fill-rule="evenodd" stroke="none"/>
    <path d="M27.45 11.85 L13.8 25.5 3.55 15.25 7.8 10.95 13.8 16.95 23.2 7.55 27.45 11.85" fill="#ffffff" fill-rule="evenodd" stroke="none"/>
  </g>
</svg>
