<?xml version="1.0" encoding="UTF-8" standalone="no"?>
<svg xmlns:ffdec="https://www.free-decompiler.com/flash" xmlns:xlink="http://www.w3.org/1999/xlink" ffdec:objectType="shape" height="42.8px" width="42.8px" xmlns="http://www.w3.org/2000/svg">
  <g transform="matrix(1.0, 0.0, 0.0, 1.0, 21.4, 21.4)">
    <path d="M8.3 -19.7 Q12.15 -18.1 15.1 -15.15 18.1 -12.15 19.7 -8.3 21.4 -4.35 21.4 0.0 21.4 4.35 19.7 8.35 18.1 12.15 15.1 15.15 12.15 18.1 8.3 19.75 4.35 21.4 0.0 21.4 -4.35 21.4 -8.3 19.75 -12.15 18.1 -15.15 15.15 -18.1 12.15 -19.7 8.35 -21.4 4.35 -21.4 0.0 -21.4 -4.35 -19.7 -8.3 -18.1 -12.15 -15.15 -15.15 -12.15 -18.1 -8.3 -19.7 -4.35 -21.4 0.0 -21.4 4.35 -21.4 8.3 -19.7" fill="#82b6e2" fill-rule="evenodd" stroke="none"/>
    <path d="M10.3 -9.4 L10.05 -8.65 9.0 -7.55 6.95 -6.1 6.2 -5.9 5.4 -5.9 2.25 -6.25 1.35 -7.0 0.75 -8.1 0.3 -9.25 0.1 -10.4 -0.1 -11.5 0.0 -12.65 0.65 -13.85 0.65 -12.8 0.8 -11.75 1.05 -10.4 1.5 -9.45 2.05 -8.35 Q2.45 -7.75 2.95 -7.6 L6.1 -7.25 7.25 -7.3 7.55 -7.35 7.65 -7.4 7.7 -7.45 8.15 -7.7 8.3 -7.85 8.55 -8.0 10.3 -9.4" fill="#000000" fill-rule="evenodd" stroke="none"/>
    <path d="M-18.0 -3.35 L-17.2 -4.95 -17.25 -4.7 Q-17.55 -3.95 -17.45 -2.7 L-17.1 -0.65 -16.85 0.95 -16.75 1.55 -16.65 1.8 -15.9 3.5 -14.85 5.45 Q-14.1 6.55 -13.25 6.8 L-7.6 7.45 -5.65 7.4 -5.6 8.55 -8.3 8.8 -13.95 8.15 Q-14.8 7.9 -15.55 6.8 L-16.6 4.85 -17.5 2.75 -17.8 0.7 -18.15 -1.35 Q-18.3 -2.6 -18.0 -3.35" fill="#000000" fill-rule="evenodd" stroke="none"/>
    <path d="M-5.6 8.55 L-5.65 7.4 -5.5 7.4 -4.95 7.25 -4.9 7.2 Q-4.75 11.95 -4.25 12.55 L-3.0 13.55 -1.15 14.7 0.8 15.65 Q2.4 16.3 3.45 16.25 L5.6 16.0 5.65 16.0 6.5 15.95 6.6 15.95 7.5 15.85 7.55 15.85 8.55 15.75 8.6 15.75 9.55 15.65 9.6 15.65 11.5 15.35 11.55 15.35 12.35 15.2 12.45 15.15 13.2 14.95 14.55 14.4 14.7 14.2 13.85 15.75 Q12.95 16.5 8.6 17.0 L2.7 17.6 Q1.2 17.75 -1.75 16.1 L-4.95 13.9 Q-5.4 13.35 -5.6 8.55" fill="#000000" fill-rule="evenodd" stroke="none"/>
    <path d="M4.05 -7.6 L5.4 -7.7 Q5.75 -7.8 5.8 -8.0 L5.4 -8.55 4.2 -8.9 3.0 -8.9 Q2.5 -8.8 2.45 -8.5 L2.65 -8.15 Q3.15 -7.7 4.05 -7.6 M4.3 -16.55 Q3.85 -16.9 3.25 -16.55 2.55 -16.15 2.7 -15.65 L2.75 -15.5 Q2.9 -15.25 3.25 -15.2 L3.95 -15.35 4.4 -15.85 4.4 -16.4 4.3 -16.55 M10.4 -11.95 L9.9 -11.15 9.65 -10.2 Q9.6 -9.8 9.8 -9.7 10.05 -9.65 10.35 -9.95 L10.85 -10.75 Q11.3 -11.7 11.0 -12.1 L10.9 -12.2 Q10.7 -12.25 10.4 -11.95 M9.05 -11.5 Q8.85 -11.75 8.45 -11.75 8.05 -11.65 7.75 -11.35 L7.35 -10.7 Q7.25 -10.3 7.5 -10.1 L7.7 -9.95 Q8.25 -9.7 8.8 -10.25 9.2 -10.6 9.2 -11.15 L9.05 -11.5 M9.85 -14.4 L9.8 -14.95 9.45 -15.45 8.75 -15.5 8.75 -15.45 Q8.55 -14.95 9.1 -14.35 9.5 -14.0 9.75 -14.25 L9.85 -14.4 M9.45 -16.2 L10.5 -15.1 11.3 -14.15 11.0 -14.5 10.85 -14.5 10.65 -14.45 Q10.35 -14.2 10.4 -13.6 10.55 -12.95 11.0 -12.9 L11.15 -12.85 11.4 -13.0 11.35 -11.95 11.15 -11.3 10.7 -10.0 10.3 -9.4 8.55 -8.0 8.6 -8.8 8.55 -8.9 7.95 -9.15 7.1 -8.9 6.6 -8.25 Q6.45 -7.9 6.6 -7.6 L6.6 -7.55 7.0 -7.25 6.1 -7.25 2.95 -7.6 Q2.45 -7.75 2.05 -8.35 L1.5 -9.45 1.35 -9.7 Q1.55 -9.4 1.8 -9.5 L2.0 -9.6 Q2.25 -10.0 2.1 -10.7 1.85 -11.6 1.4 -11.65 L1.3 -11.65 Q0.95 -11.6 0.95 -10.85 L0.8 -11.75 0.65 -12.8 0.65 -13.85 0.75 -14.15 0.85 -13.75 0.95 -13.7 1.85 -14.35 Q2.25 -14.95 2.15 -15.35 L2.1 -15.5 Q1.85 -15.65 1.5 -15.3 L2.2 -16.15 4.1 -17.5 5.5 -17.6 6.5 -17.35 5.8 -17.5 4.7 -17.25 4.7 -17.15 Q4.95 -16.65 6.75 -16.3 L8.25 -16.15 Q8.9 -16.15 9.0 -16.45 L9.0 -16.55 9.45 -16.2" fill="#e9d884" fill-rule="evenodd" stroke="none"/>
    <path d="M9.75 -14.25 Q9.0 -14.7 8.75 -15.5 L9.45 -15.45 9.8 -14.95 9.85 -14.4 9.75 -14.25" fill="#e1c963" fill-rule="evenodd" stroke="none"/>
    <path d="M8.7 -16.7 L8.95 -16.55 9.0 -16.55 9.0 -16.45 Q8.9 -16.15 8.25 -16.15 6.5 -17.3 4.7 -17.15 L4.7 -17.25 5.8 -17.5 8.7 -16.7" fill="#e1c963" fill-rule="evenodd" stroke="none"/>
    <path d="M10.85 -14.5 L11.0 -14.5 11.3 -14.15 11.3 -14.05 11.4 -13.0 11.15 -12.85 11.0 -12.9 Q11.0 -13.9 10.65 -14.45 L10.85 -14.5" fill="#e1c963" fill-rule="evenodd" stroke="none"/>
    <path d="M9.8 -9.7 Q9.95 -11.3 11.0 -12.1 11.3 -11.7 10.85 -10.75 L10.35 -9.95 Q10.05 -9.65 9.8 -9.7" fill="#e1c963" fill-rule="evenodd" stroke="none"/>
    <path d="M0.75 -14.15 L1.4 -15.25 Q1.85 -15.65 2.1 -15.5 L2.15 -15.35 Q1.35 -14.8 0.95 -13.7 L0.85 -13.75 0.75 -14.15" fill="#e1c963" fill-rule="evenodd" stroke="none"/>
    <path d="M2.8 -8.35 Q4.45 -8.75 5.4 -7.7 L4.05 -7.6 Q3.15 -7.7 2.65 -8.15 L2.7 -8.3 2.8 -8.35" fill="#e1c963" fill-rule="evenodd" stroke="none"/>
    <path d="M2.8 -15.6 L2.7 -15.65 Q2.55 -16.15 3.25 -16.55 3.85 -16.9 4.3 -16.55 L4.15 -16.15 Q3.45 -15.4 2.8 -15.6" fill="#e1c963" fill-rule="evenodd" stroke="none"/>
    <path d="M8.45 -11.45 L9.2 -11.15 Q9.2 -10.6 8.8 -10.25 8.25 -9.7 7.7 -9.95 7.45 -10.3 7.65 -10.85 7.95 -11.3 8.45 -11.45" fill="#e1c963" fill-rule="evenodd" stroke="none"/>
    <path d="M8.55 -8.9 L8.6 -8.8 8.55 -8.0 8.3 -7.85 8.15 -7.7 7.65 -7.4 7.55 -7.35 7.0 -7.25 6.6 -7.55 6.6 -7.6 Q7.85 -7.75 8.55 -8.9" fill="#e1c963" fill-rule="evenodd" stroke="none"/>
    <path d="M1.05 -10.4 L0.95 -10.85 Q0.95 -11.6 1.3 -11.65 L1.4 -11.65 Q1.25 -10.65 2.0 -9.6 L1.8 -9.5 Q1.55 -9.4 1.35 -9.7 L1.05 -10.4" fill="#e1c963" fill-rule="evenodd" stroke="none"/>
    <path d="M10.65 -14.45 Q11.0 -13.9 11.0 -12.9 10.55 -12.95 10.4 -13.6 10.35 -14.2 10.65 -14.45" fill="#bfa95b" fill-rule="evenodd" stroke="none"/>
    <path d="M8.25 -16.15 L6.75 -16.3 Q4.95 -16.65 4.7 -17.15 6.5 -17.3 8.25 -16.15" fill="#bfa95b" fill-rule="evenodd" stroke="none"/>
    <path d="M9.9 -11.15 L10.4 -11.95 Q10.7 -12.25 10.9 -12.2 L11.0 -12.1 Q9.95 -11.3 9.8 -9.7 9.6 -9.8 9.65 -10.2 L9.9 -11.15" fill="#bfa95b" fill-rule="evenodd" stroke="none"/>
    <path d="M7.75 -11.35 Q8.05 -11.65 8.45 -11.75 8.85 -11.75 9.05 -11.5 L9.2 -11.15 8.45 -11.45 Q7.95 -11.3 7.65 -10.85 7.45 -10.3 7.7 -9.95 L7.5 -10.1 Q7.25 -10.3 7.35 -10.7 L7.75 -11.35" fill="#bfa95b" fill-rule="evenodd" stroke="none"/>
    <path d="M4.4 -16.4 L4.4 -15.85 3.95 -15.35 3.25 -15.2 Q2.9 -15.25 2.75 -15.5 L2.7 -15.65 2.8 -15.6 Q3.45 -15.4 4.15 -16.15 L4.3 -16.55 4.4 -16.4" fill="#bfa95b" fill-rule="evenodd" stroke="none"/>
    <path d="M9.1 -14.35 Q8.55 -14.95 8.75 -15.45 L8.75 -15.5 Q9.0 -14.7 9.75 -14.25 9.5 -14.0 9.1 -14.35" fill="#bfa95b" fill-rule="evenodd" stroke="none"/>
    <path d="M4.2 -8.9 L5.4 -8.55 5.8 -8.0 Q5.75 -7.8 5.4 -7.7 4.45 -8.75 2.8 -8.35 L2.7 -8.3 2.65 -8.15 2.45 -8.5 Q2.5 -8.8 3.0 -8.9 L4.2 -8.9" fill="#bfa95b" fill-rule="evenodd" stroke="none"/>
    <path d="M2.0 -9.6 Q1.25 -10.65 1.4 -11.65 1.85 -11.6 2.1 -10.7 2.25 -10.0 2.0 -9.6" fill="#bfa95b" fill-rule="evenodd" stroke="none"/>
    <path d="M8.55 -8.9 Q7.85 -7.75 6.6 -7.6 6.45 -7.9 6.6 -8.25 L7.1 -8.9 7.95 -9.15 8.55 -8.9" fill="#bfa95b" fill-rule="evenodd" stroke="none"/>
    <path d="M0.95 -13.7 Q1.35 -14.8 2.15 -15.35 2.25 -14.95 1.85 -14.35 L0.95 -13.7" fill="#bfa95b" fill-rule="evenodd" stroke="none"/>
    <path d="M1.8 -4.85 L1.95 -3.25 1.9 -3.25 1.8 -4.85" fill="#f2bb86" fill-rule="evenodd" stroke="none"/>
    <path d="M-14.15 5.2 L-13.8 5.9 Q-13.0 6.55 -11.3 6.8 L-8.8 6.65 Q-8.2 6.4 -8.1 6.05 -8.05 5.6 -8.9 5.1 -9.75 4.6 -10.95 4.45 -12.2 4.25 -13.15 4.45 -14.1 4.7 -14.15 5.2 M-13.6 -7.35 Q-13.35 -6.9 -12.7 -6.8 -12.1 -6.75 -11.5 -7.1 -10.85 -7.4 -10.6 -8.0 -10.35 -8.55 -10.6 -9.0 L-10.8 -9.25 -11.65 -9.55 -12.7 -9.25 Q-13.2 -8.95 -13.5 -8.5 L-13.65 -7.6 -13.6 -7.35 M-2.8 -7.4 L-2.85 -7.25 -2.8 -6.3 -2.2 -5.35 Q-1.5 -4.65 -1.0 -5.15 L-0.85 -5.35 Q-0.7 -5.75 -0.9 -6.35 L-1.5 -7.3 -2.25 -7.7 -2.8 -7.4 M-2.4 -9.25 L-1.6 -8.65 0.35 -6.65 1.75 -4.9 1.25 -5.6 0.9 -5.6 0.6 -5.45 Q0.0 -5.0 0.2 -3.95 0.35 -3.3 0.7 -2.95 L-1.15 -2.4 Q-1.7 -2.15 -2.7 -0.5 L-3.65 -0.55 -4.65 0.0 Q-5.2 0.55 -5.35 1.25 -5.5 1.9 -5.1 2.35 L-4.7 2.6 -4.35 2.65 -4.9 4.1 Q-5.35 4.2 -5.7 4.45 -6.45 4.9 -6.75 5.6 -7.05 6.3 -6.75 6.85 L-6.7 6.9 -5.95 7.45 -7.6 7.45 -13.25 6.8 Q-14.1 6.55 -14.85 5.45 L-15.9 3.5 -16.05 3.1 Q-15.7 3.5 -15.3 3.4 L-15.0 3.2 Q-14.45 2.55 -14.8 1.25 L-15.3 0.05 -16.0 -0.5 -16.2 -0.5 Q-16.85 -0.3 -16.85 0.95 L-17.1 -0.65 -17.45 -2.7 Q-17.55 -3.95 -17.25 -4.7 L-17.2 -4.95 -17.15 -4.95 Q-17.3 -4.4 -17.05 -4.2 L-16.75 -4.15 Q-16.05 -4.15 -15.25 -5.35 -14.55 -6.4 -14.6 -7.05 L-14.8 -7.4 Q-15.2 -7.7 -16.0 -6.95 L-17.05 -5.15 Q-16.2 -7.1 -14.55 -8.55 L-11.15 -11.0 -8.7 -11.2 -7.15 -10.85 -8.1 -11.05 Q-10.0 -11.1 -10.05 -10.55 L-10.05 -10.35 Q-9.9 -9.95 -8.85 -9.5 L-6.4 -8.8 -3.7 -8.6 Q-2.5 -8.65 -2.4 -9.05 L-2.4 -9.25" fill="#f2bb86" fill-rule="evenodd" stroke="none"/>
    <path d="M1.75 -4.9 L1.8 -4.85 1.9 -3.25 1.5 -3.2 1.35 -3.1 1.2 -3.1 Q1.2 -4.55 0.6 -5.45 L0.9 -5.6 1.25 -5.6 1.75 -4.9" fill="#e9a265" fill-rule="evenodd" stroke="none"/>
    <path d="M-10.05 -10.55 Q-10.0 -11.1 -8.1 -11.05 -4.95 -10.4 -2.95 -9.55 L-2.45 -9.3 -2.4 -9.25 -2.4 -9.05 Q-2.5 -8.65 -3.7 -8.6 -6.8 -10.55 -10.05 -10.35 L-10.05 -10.55" fill="#e9a265" fill-rule="evenodd" stroke="none"/>
    <path d="M-16.2 -0.5 L-16.0 -0.5 Q-16.3 1.4 -15.0 3.2 L-15.3 3.4 Q-15.7 3.5 -16.1 3.1 L-16.65 1.8 -16.75 1.55 -16.85 0.95 Q-16.85 -0.3 -16.2 -0.5" fill="#e9a265" fill-rule="evenodd" stroke="none"/>
    <path d="M-13.5 5.45 L-11.0 5.4 Q-9.65 5.7 -8.8 6.6 L-8.8 6.65 -11.3 6.8 Q-13.0 6.55 -13.8 5.9 L-13.7 5.55 -13.5 5.45" fill="#e9a265" fill-rule="evenodd" stroke="none"/>
    <path d="M-13.65 -7.6 L-13.5 -8.5 Q-13.2 -8.95 -12.7 -9.25 L-11.65 -9.55 -10.8 -9.25 -11.1 -8.5 Q-12.3 -7.15 -13.5 -7.55 L-13.65 -7.6" fill="#e9a265" fill-rule="evenodd" stroke="none"/>
    <path d="M-2.95 -0.1 L-4.35 2.65 -4.7 2.6 Q-5.2 1.85 -4.8 0.95 -4.2 0.15 -3.4 -0.05 L-2.95 -0.1" fill="#e9a265" fill-rule="evenodd" stroke="none"/>
    <path d="M-2.8 -7.4 L-2.25 -7.7 -1.5 -7.3 -0.9 -6.35 Q-0.7 -5.75 -0.85 -5.35 L-1.0 -5.15 Q-2.4 -5.9 -2.8 -7.4" fill="#e9a265" fill-rule="evenodd" stroke="none"/>
    <path d="M-17.05 -4.2 Q-17.3 -4.4 -17.15 -4.95 L-17.15 -5.0 -16.0 -6.95 Q-15.2 -7.7 -14.8 -7.4 L-14.6 -7.05 Q-16.1 -6.1 -16.75 -4.15 L-17.05 -4.2" fill="#e9a265" fill-rule="evenodd" stroke="none"/>
    <path d="M-4.95 6.15 L-4.9 7.2 -4.95 7.25 -5.5 7.4 -5.95 7.45 -6.7 6.9 -6.75 6.85 Q-5.8 6.7 -4.95 6.15" fill="#e9a265" fill-rule="evenodd" stroke="none"/>
    <path d="M-10.05 -10.35 Q-6.8 -10.55 -3.7 -8.6 L-6.4 -8.8 -8.85 -9.5 Q-9.9 -9.95 -10.05 -10.35" fill="#c7865c" fill-rule="evenodd" stroke="none"/>
    <path d="M-13.5 5.45 L-13.7 5.55 -13.8 5.9 -14.15 5.2 Q-14.1 4.7 -13.15 4.45 -12.2 4.25 -10.95 4.45 -9.75 4.6 -8.9 5.1 -8.05 5.6 -8.1 6.05 -8.2 6.4 -8.8 6.65 L-8.8 6.6 Q-9.65 5.7 -11.0 5.4 L-13.5 5.45" fill="#c7865c" fill-rule="evenodd" stroke="none"/>
    <path d="M-2.7 -0.5 L-2.95 -0.1 -3.4 -0.05 Q-4.2 0.15 -4.8 0.95 -5.2 1.85 -4.7 2.6 L-5.1 2.35 Q-5.5 1.9 -5.35 1.25 -5.2 0.55 -4.65 0.0 L-3.65 -0.55 -2.7 -0.5" fill="#c7865c" fill-rule="evenodd" stroke="none"/>
    <path d="M-16.75 -4.15 Q-16.1 -6.1 -14.6 -7.05 -14.55 -6.4 -15.25 -5.35 -16.05 -4.15 -16.75 -4.15" fill="#c7865c" fill-rule="evenodd" stroke="none"/>
    <path d="M-2.8 -7.4 Q-2.4 -5.9 -1.0 -5.15 -1.5 -4.65 -2.2 -5.35 L-2.8 -6.3 -2.85 -7.25 -2.8 -7.4" fill="#c7865c" fill-rule="evenodd" stroke="none"/>
    <path d="M1.2 -3.1 L0.8 -2.95 0.7 -2.95 Q0.35 -3.3 0.2 -3.95 0.0 -5.0 0.6 -5.45 1.2 -4.55 1.2 -3.1" fill="#c7865c" fill-rule="evenodd" stroke="none"/>
    <path d="M-12.7 -6.8 Q-13.35 -6.9 -13.6 -7.35 L-13.65 -7.6 -13.5 -7.55 Q-12.3 -7.15 -11.1 -8.5 L-10.8 -9.25 -10.6 -9.0 Q-10.35 -8.55 -10.6 -8.0 -10.85 -7.4 -11.5 -7.1 -12.1 -6.75 -12.7 -6.8" fill="#c7865c" fill-rule="evenodd" stroke="none"/>
    <path d="M-15.0 3.2 Q-16.3 1.4 -16.0 -0.5 L-15.3 0.05 -14.8 1.25 Q-14.45 2.55 -15.0 3.2" fill="#c7865c" fill-rule="evenodd" stroke="none"/>
    <path d="M-4.95 6.15 Q-5.8 6.7 -6.75 6.85 -7.05 6.3 -6.75 5.6 -6.45 4.9 -5.7 4.45 -5.35 4.2 -4.9 4.1 L-4.9 4.3 -4.95 6.15" fill="#c7865c" fill-rule="evenodd" stroke="none"/>
    <path d="M3.2 11.35 L2.05 11.5 Q1.5 11.8 1.35 12.4 1.25 12.95 1.4 13.35 1.8 14.05 2.55 14.25 3.65 14.5 4.2 13.65 L4.4 13.15 Q4.55 12.55 4.2 12.05 3.9 11.5 3.2 11.35 M-4.1 6.95 L-4.3 6.95 Q-4.75 7.1 -4.6 8.65 L-4.35 10.25 -3.8 11.1 -3.75 11.1 -3.6 11.05 Q-3.2 10.85 -3.3 9.4 -3.45 7.45 -4.05 7.0 L-4.1 6.95 M-3.15 2.1 L-4.05 3.3 Q-4.35 4.1 -4.25 4.8 -4.15 5.5 -3.65 5.7 L-3.55 5.75 Q-3.1 5.9 -2.5 5.45 -2.0 5.05 -1.65 4.3 -1.35 3.55 -1.45 2.9 -1.5 2.2 -1.95 1.95 L-2.05 1.9 -3.15 2.1 M1.25 2.35 L2.4 1.4 Q2.95 0.45 2.6 -0.4 L2.1 -1.1 0.8 -1.15 -0.3 -0.25 Q-0.75 0.55 -0.6 1.3 -0.45 1.95 0.0 2.25 L1.25 2.35 M14.4 9.65 L13.7 10.75 Q13.1 12.1 13.5 12.8 L13.7 13.0 Q14.05 13.15 14.5 12.7 15.0 12.25 15.3 11.45 15.65 10.7 15.6 10.0 15.6 9.35 15.3 9.2 L15.15 9.2 14.4 9.65 M13.7 2.75 Q12.9 2.85 12.4 3.55 11.85 4.25 11.85 5.2 11.85 6.2 12.4 6.95 12.95 7.65 13.75 7.75 L13.95 7.75 Q14.8 7.75 15.35 7.0 15.95 6.25 15.95 5.2 15.95 4.15 15.35 3.45 14.75 2.7 13.95 2.7 L13.7 2.75 M14.2 0.3 L14.8 0.55 14.95 0.2 17.0 4.45 Q17.25 5.2 16.5 9.05 15.65 13.05 14.7 14.2 L14.55 14.4 13.2 14.95 13.25 14.75 Q13.2 14.3 12.45 14.05 L9.15 13.9 Q7.8 14.05 6.8 14.45 5.75 14.85 5.45 15.3 L5.4 15.65 5.6 16.0 3.45 16.25 Q2.4 16.3 0.8 15.65 1.35 15.7 1.5 15.4 1.65 15.1 1.1 14.55 0.55 14.0 -0.4 13.55 -1.95 12.8 -2.7 13.0 L-3.0 13.25 -3.0 13.55 -4.25 12.55 Q-4.75 11.95 -4.9 7.2 L-4.95 6.15 -4.9 4.3 -4.9 4.1 -4.35 2.65 -2.95 -0.1 -2.7 -0.5 Q-1.7 -2.15 -1.15 -2.4 L-0.15 -2.75 -0.15 -2.6 0.35 -2.15 2.85 -2.1 4.8 -2.7 Q5.6 -3.1 5.55 -3.5 L5.3 -3.8 4.8 -4.0 11.2 -4.9 Q11.9 -4.7 13.35 -2.6 L13.25 -2.6 Q13.1 -2.5 13.1 -2.2 13.1 -1.55 13.5 -0.75 L14.2 0.3 M11.7 -3.55 Q11.4 -4.0 10.8 -4.25 9.8 -4.65 9.2 -4.25 L8.9 -3.9 Q8.75 -3.5 9.05 -3.05 9.4 -2.55 10.0 -2.3 L11.05 -2.15 Q11.55 -2.2 11.75 -2.5 L11.85 -2.65 11.7 -3.55" fill="#d4e183" fill-rule="evenodd" stroke="none"/>
    <path d="M13.5 -0.75 Q13.1 -1.55 13.1 -2.2 14.3 -0.85 14.8 0.55 L14.2 0.3 13.5 -0.75" fill="#acc160" fill-rule="evenodd" stroke="none"/>
    <path d="M10.0 -2.3 Q9.4 -2.55 9.05 -3.05 8.75 -3.5 8.9 -3.9 L9.2 -4.25 Q9.85 -3.25 11.75 -2.5 11.55 -2.2 11.05 -2.15 L10.0 -2.3" fill="#acc160" fill-rule="evenodd" stroke="none"/>
    <path d="M13.7 10.75 L14.4 9.65 15.15 9.2 Q14.55 11.65 13.5 12.8 13.1 12.1 13.7 10.75" fill="#acc160" fill-rule="evenodd" stroke="none"/>
    <path d="M2.05 11.5 L3.2 11.35 Q3.9 11.5 4.2 12.05 4.55 12.55 4.4 13.15 L4.2 13.65 Q4.55 12.75 3.8 12.1 L2.45 11.8 Q1.5 12.2 1.4 13.35 1.25 12.95 1.35 12.4 1.5 11.8 2.05 11.5" fill="#acc160" fill-rule="evenodd" stroke="none"/>
    <path d="M2.4 1.4 L1.25 2.35 0.0 2.25 Q-0.45 1.95 -0.6 1.3 L0.0 1.95 Q0.95 2.25 1.95 1.25 2.55 0.6 2.6 -0.4 2.95 0.45 2.4 1.4" fill="#acc160" fill-rule="evenodd" stroke="none"/>
    <path d="M-4.05 7.0 Q-3.45 7.45 -3.3 9.4 -3.2 10.85 -3.6 11.05 -4.45 8.65 -4.3 6.95 L-4.1 6.95 -4.05 7.0" fill="#acc160" fill-rule="evenodd" stroke="none"/>
    <path d="M9.15 13.9 L12.45 14.05 Q9.85 14.9 5.45 15.3 5.75 14.85 6.8 14.45 7.8 14.05 9.15 13.9" fill="#acc160" fill-rule="evenodd" stroke="none"/>
    <path d="M12.5 4.6 Q12.35 5.65 12.75 6.5 13.1 7.3 13.75 7.75 12.95 7.65 12.4 6.95 11.85 6.2 11.85 5.2 11.85 4.25 12.4 3.55 12.9 2.85 13.7 2.75 12.65 3.25 12.5 4.6" fill="#acc160" fill-rule="evenodd" stroke="none"/>
    <path d="M1.5 15.4 Q-1.45 14.2 -2.7 13.0 -1.95 12.8 -0.4 13.55 0.55 14.0 1.1 14.55 1.65 15.1 1.5 15.4" fill="#acc160" fill-rule="evenodd" stroke="none"/>
    <path d="M2.85 -2.1 L0.35 -2.15 Q2.7 -3.45 5.3 -3.8 L5.55 -3.5 Q5.6 -3.1 4.8 -2.7 L2.85 -2.1" fill="#acc160" fill-rule="evenodd" stroke="none"/>
    <path d="M-3.55 5.75 Q-2.25 4.0 -1.95 1.95 -1.5 2.2 -1.45 2.9 -1.35 3.55 -1.65 4.3 -2.0 5.05 -2.5 5.45 -3.1 5.9 -3.55 5.75" fill="#acc160" fill-rule="evenodd" stroke="none"/>
    <path d="M11.75 -2.5 Q9.85 -3.25 9.2 -4.25 9.8 -4.65 10.8 -4.25 11.4 -4.0 11.7 -3.55 L11.85 -2.65 11.75 -2.5" fill="#c7d763" fill-rule="evenodd" stroke="none"/>
    <path d="M14.15 -1.25 L14.55 -0.55 14.6 -0.5 14.95 0.2 14.8 0.55 Q14.3 -0.85 13.1 -2.2 13.1 -2.5 13.25 -2.6 L13.35 -2.6 14.15 -1.25" fill="#c7d763" fill-rule="evenodd" stroke="none"/>
    <path d="M15.3 9.2 Q15.6 9.35 15.6 10.0 15.65 10.7 15.3 11.45 15.0 12.25 14.5 12.7 14.05 13.15 13.7 13.0 L13.5 12.8 Q14.55 11.65 15.15 9.2 L15.3 9.2" fill="#c7d763" fill-rule="evenodd" stroke="none"/>
    <path d="M13.95 2.7 Q14.75 2.7 15.35 3.45 15.95 4.15 15.95 5.2 15.95 6.25 15.35 7.0 14.8 7.75 13.95 7.75 L13.75 7.75 Q13.1 7.3 12.75 6.5 12.35 5.65 12.5 4.6 12.65 3.25 13.7 2.75 L13.95 2.7" fill="#c7d763" fill-rule="evenodd" stroke="none"/>
    <path d="M5.65 16.0 L5.6 16.0 5.4 15.65 5.45 15.3 Q9.85 14.9 12.45 14.05 13.2 14.3 13.25 14.75 L13.2 14.95 12.45 15.15 12.35 15.2 11.55 15.35 11.5 15.35 9.6 15.65 9.55 15.65 8.6 15.75 8.55 15.75 7.55 15.85 7.5 15.85 6.6 15.95 6.5 15.95 5.65 16.0" fill="#c7d763" fill-rule="evenodd" stroke="none"/>
    <path d="M1.5 15.4 Q1.35 15.7 0.8 15.65 L-0.35 15.1 -1.15 14.7 -3.0 13.55 -3.0 13.25 -2.7 13.0 Q-1.45 14.2 1.5 15.4" fill="#c7d763" fill-rule="evenodd" stroke="none"/>
    <path d="M3.8 12.1 Q4.55 12.75 4.2 13.65 3.65 14.5 2.55 14.25 1.8 14.05 1.4 13.35 1.5 12.2 2.45 11.8 L3.8 12.1" fill="#c7d763" fill-rule="evenodd" stroke="none"/>
    <path d="M-4.3 6.95 Q-4.45 8.65 -3.6 11.05 L-3.75 11.1 -3.8 11.1 -4.35 10.25 -4.6 8.65 Q-4.75 7.1 -4.3 6.95" fill="#c7d763" fill-rule="evenodd" stroke="none"/>
    <path d="M1.5 -3.2 L2.7 -3.5 3.3 -3.65 3.4 -3.65 4.7 -4.0 4.8 -4.0 5.3 -3.8 Q2.7 -3.45 0.35 -2.15 L-0.15 -2.6 -0.15 -2.75 0.4 -2.9 0.8 -2.95 0.9 -3.0 1.35 -3.1 1.5 -3.2" fill="#c7d763" fill-rule="evenodd" stroke="none"/>
    <path d="M-3.65 5.7 Q-4.15 5.5 -4.25 4.8 -4.35 4.1 -4.05 3.3 L-3.15 2.1 -2.05 1.9 -1.95 1.95 Q-2.25 4.0 -3.55 5.75 L-3.65 5.7" fill="#c7d763" fill-rule="evenodd" stroke="none"/>
    <path d="M0.0 1.95 L-0.6 1.3 Q-0.75 0.55 -0.3 -0.25 L0.8 -1.15 2.1 -1.1 2.6 -0.4 Q2.55 0.6 1.95 1.25 0.95 2.25 0.0 1.95" fill="#c7d763" fill-rule="evenodd" stroke="none"/>
  </g>
</svg>
