<?xml version="1.0" encoding="UTF-8" standalone="no"?>
<svg xmlns:ffdec="https://www.free-decompiler.com/flash" xmlns:xlink="http://www.w3.org/1999/xlink" ffdec:objectType="shape" height="55.55px" width="51.85px" xmlns="http://www.w3.org/2000/svg">
  <g transform="matrix(1.0, 0.0, 0.0, 1.0, 25.9, 27.8)">
    <path d="M18.35 20.15 Q10.75 27.75 0.05 27.75 -10.7 27.75 -18.3 20.15 -25.9 12.5 -25.9 1.8 -25.9 -8.9 -18.3 -16.5 -10.7 -24.15 0.05 -24.15 10.75 -24.15 18.35 -16.5 25.95 -8.9 25.95 1.8 25.95 12.5 18.35 20.15" fill="#231f20" fill-rule="evenodd" stroke="none"/>
    <path d="M25.95 -1.85 Q25.95 8.85 18.35 16.45 10.75 24.05 0.05 24.05 -10.7 24.05 -18.3 16.45 -25.9 8.85 -25.9 -1.85 -25.9 -12.6 -18.3 -20.2 -10.7 -27.8 0.05 -27.8 10.75 -27.8 18.35 -20.2 25.95 -12.6 25.95 -1.85" fill="#26a9e0" fill-rule="evenodd" stroke="none"/>
    <path d="M20.95 -1.85 Q20.95 6.8 14.85 12.95 8.7 19.05 0.05 19.05 -8.65 19.05 -14.75 12.95 -20.9 6.8 -20.9 -1.85 -20.9 -10.55 -14.75 -16.65 -8.65 -22.8 0.05 -22.8 8.7 -22.8 14.85 -16.65 20.95 -10.5 20.95 -1.85" fill="#ffffff" fill-rule="evenodd" stroke="none"/>
  </g>
</svg>
