<?xml version="1.0" encoding="UTF-8" standalone="no"?>
<svg xmlns:ffdec="https://www.free-decompiler.com/flash" xmlns:xlink="http://www.w3.org/1999/xlink" ffdec:objectType="shape" height="38.75px" width="38.8px" xmlns="http://www.w3.org/2000/svg">
  <g transform="matrix(1.0, 0.0, 0.0, 1.0, 20.0, 19.4)">
    <path d="M11.35 -10.3 L11.05 -9.5 9.95 -8.3 Q8.6 -7.15 7.7 -6.7 7.35 -6.5 6.85 -6.45 L5.95 -6.45 2.45 -6.85 Q2.0 -7.0 1.5 -7.7 L0.85 -8.9 0.35 -10.2 0.15 -11.45 -0.05 -12.65 0.05 -13.9 0.7 -15.25 0.7 -14.05 0.9 -12.9 1.15 -11.4 1.65 -10.4 2.25 -9.2 Q2.75 -8.5 3.25 -8.35 L6.75 -7.95 8.0 -8.0 8.3 -8.05 8.45 -8.15 8.5 -8.15 9.0 -8.45 9.15 -8.6 9.45 -8.75 11.35 -10.3" fill="#000000" fill-rule="evenodd" stroke="none"/>
    <path d="M-19.75 -3.7 L-18.9 -5.45 -19.0 -5.15 Q-19.3 -4.3 -19.2 -2.95 L-18.8 -0.7 -18.5 1.05 -18.5 1.1 -18.4 1.7 -18.3 2.0 -17.45 3.85 -16.3 6.0 Q-15.5 7.25 -14.55 7.5 L-8.3 8.25 -6.15 8.15 -6.15 9.4 -9.1 9.7 -15.35 9.0 Q-16.25 8.75 -17.1 7.5 L-18.2 5.35 Q-19.1 3.75 -19.2 3.0 L-19.55 0.8 -19.95 -1.45 Q-20.1 -2.8 -19.75 -3.7" fill="#000000" fill-rule="evenodd" stroke="none"/>
    <path d="M-6.15 9.4 L-6.15 8.15 -6.05 8.15 -5.45 7.95 -5.4 7.95 Q-5.2 13.15 -4.65 13.85 L-3.25 14.95 -1.25 16.2 0.9 17.2 Q2.65 17.95 3.8 17.85 L6.2 17.65 6.25 17.65 7.15 17.55 7.25 17.55 8.3 17.45 9.4 17.35 9.45 17.35 10.5 17.2 10.6 17.2 12.65 16.9 12.75 16.9 13.65 16.7 13.7 16.7 14.5 16.5 Q15.5 16.25 16.0 15.85 L16.2 15.65 15.25 17.35 Q14.25 18.15 9.45 18.75 L3.0 19.35 Q1.35 19.5 -1.9 17.75 -4.75 16.15 -5.4 15.35 -5.9 14.7 -6.15 9.4" fill="#000000" fill-rule="evenodd" stroke="none"/>
    <path d="M4.45 -8.35 L5.95 -8.45 Q6.35 -8.55 6.4 -8.8 L5.95 -9.4 4.65 -9.8 3.35 -9.8 Q2.75 -9.65 2.7 -9.35 L2.95 -8.9 Q3.45 -8.45 4.45 -8.35 M4.75 -18.2 Q4.25 -18.55 3.6 -18.2 2.85 -17.75 3.0 -17.15 L3.05 -17.0 Q3.25 -16.75 3.6 -16.7 L4.35 -16.85 4.9 -17.4 4.9 -18.05 4.75 -18.2 M11.45 -13.15 L10.9 -12.25 10.6 -11.2 Q10.6 -10.75 10.8 -10.65 11.05 -10.55 11.4 -10.9 L11.95 -11.8 Q12.45 -12.85 12.15 -13.3 L12.0 -13.4 11.45 -13.15 M9.95 -12.65 L9.3 -12.9 Q8.85 -12.8 8.55 -12.5 L8.1 -11.75 Q8.0 -11.35 8.25 -11.05 L8.5 -10.9 Q9.05 -10.65 9.7 -11.25 10.15 -11.65 10.15 -12.2 L9.95 -12.65 M10.4 -17.8 L11.6 -16.6 12.45 -15.5 12.15 -15.9 11.95 -15.95 11.75 -15.85 Q11.4 -15.6 11.5 -14.95 11.65 -14.2 12.1 -14.15 L12.25 -14.15 12.55 -14.3 12.5 -13.15 12.3 -12.4 11.8 -10.95 11.35 -10.3 9.45 -8.75 Q9.7 -9.3 9.45 -9.7 L9.4 -9.8 8.75 -10.05 7.85 -9.8 7.25 -9.05 Q7.1 -8.65 7.25 -8.35 L7.25 -8.3 7.7 -7.95 6.75 -7.95 3.25 -8.35 Q2.75 -8.5 2.25 -9.2 L1.65 -10.4 1.5 -10.65 Q1.75 -10.35 2.0 -10.4 L2.2 -10.55 Q2.5 -10.95 2.3 -11.75 2.1 -12.7 1.6 -12.8 L1.45 -12.8 Q1.05 -12.7 1.05 -11.95 L0.9 -12.9 0.7 -14.05 0.7 -15.25 0.85 -15.5 0.95 -15.1 1.1 -15.05 2.05 -15.8 2.4 -16.85 2.3 -17.05 Q2.1 -17.2 1.65 -16.8 L2.45 -17.75 4.55 -19.25 6.05 -19.35 7.15 -19.1 6.4 -19.25 Q5.3 -19.3 5.2 -18.95 L5.2 -18.85 Q5.45 -18.3 7.4 -17.9 L9.1 -17.75 Q9.85 -17.75 9.9 -18.05 L9.9 -18.2 10.4 -17.8 M10.85 -15.8 L10.8 -16.4 10.4 -17.0 9.65 -17.05 9.65 -17.0 Q9.4 -16.4 10.05 -15.8 10.45 -15.35 10.75 -15.65 L10.85 -15.8" fill="#e9d884" fill-rule="evenodd" stroke="none"/>
    <path d="M10.75 -15.65 Q9.9 -16.15 9.65 -17.05 L10.4 -17.0 10.8 -16.4 10.85 -15.8 10.75 -15.65" fill="#e1c963" fill-rule="evenodd" stroke="none"/>
    <path d="M9.6 -18.35 L9.85 -18.2 9.9 -18.2 9.9 -18.05 Q9.85 -17.75 9.1 -17.75 7.15 -19.0 5.2 -18.85 L5.2 -18.95 Q5.3 -19.3 6.4 -19.25 L9.6 -18.35" fill="#e1c963" fill-rule="evenodd" stroke="none"/>
    <path d="M11.95 -15.95 L12.15 -15.9 12.45 -15.5 12.45 -15.45 12.55 -14.3 12.25 -14.15 12.1 -14.15 Q12.1 -15.25 11.75 -15.85 L11.95 -15.95" fill="#e1c963" fill-rule="evenodd" stroke="none"/>
    <path d="M10.8 -10.65 Q11.0 -12.4 12.15 -13.3 12.45 -12.85 11.95 -11.8 L11.4 -10.9 Q11.05 -10.55 10.8 -10.65" fill="#e1c963" fill-rule="evenodd" stroke="none"/>
    <path d="M0.85 -15.55 L1.6 -16.8 Q2.1 -17.2 2.3 -17.05 L2.4 -16.85 Q1.5 -16.25 1.1 -15.05 L0.95 -15.1 0.85 -15.5 0.85 -15.55" fill="#e1c963" fill-rule="evenodd" stroke="none"/>
    <path d="M3.1 -9.2 Q4.9 -9.6 5.95 -8.45 L4.45 -8.35 Q3.45 -8.45 2.95 -8.9 L2.95 -9.1 3.1 -9.2" fill="#e1c963" fill-rule="evenodd" stroke="none"/>
    <path d="M3.1 -17.15 L3.0 -17.15 Q2.85 -17.75 3.6 -18.2 4.25 -18.55 4.75 -18.2 L4.6 -17.75 Q3.85 -16.9 3.1 -17.15" fill="#e1c963" fill-rule="evenodd" stroke="none"/>
    <path d="M9.3 -12.55 Q9.85 -12.7 10.15 -12.2 10.15 -11.65 9.7 -11.25 9.05 -10.65 8.5 -10.9 8.2 -11.35 8.45 -11.95 8.75 -12.4 9.3 -12.55" fill="#e1c963" fill-rule="evenodd" stroke="none"/>
    <path d="M9.4 -9.8 L9.45 -9.7 Q9.7 -9.3 9.45 -8.75 L9.15 -8.6 9.0 -8.45 8.45 -8.15 8.3 -8.05 7.7 -7.95 7.25 -8.3 7.25 -8.35 Q8.65 -8.55 9.4 -9.8" fill="#e1c963" fill-rule="evenodd" stroke="none"/>
    <path d="M1.15 -11.4 L1.05 -11.95 Q1.05 -12.7 1.45 -12.8 L1.6 -12.8 Q1.4 -11.7 2.2 -10.55 L2.0 -10.4 Q1.75 -10.35 1.5 -10.65 L1.15 -11.4" fill="#e1c963" fill-rule="evenodd" stroke="none"/>
    <path d="M11.75 -15.85 Q12.1 -15.25 12.1 -14.15 11.65 -14.2 11.5 -14.95 11.4 -15.6 11.75 -15.85" fill="#bfa95b" fill-rule="evenodd" stroke="none"/>
    <path d="M9.1 -17.75 L7.4 -17.9 Q5.45 -18.3 5.2 -18.85 7.15 -19.0 9.1 -17.75" fill="#bfa95b" fill-rule="evenodd" stroke="none"/>
    <path d="M10.9 -12.25 L11.45 -13.15 12.0 -13.4 12.15 -13.3 Q11.0 -12.4 10.8 -10.65 10.6 -10.75 10.6 -11.2 L10.9 -12.25" fill="#bfa95b" fill-rule="evenodd" stroke="none"/>
    <path d="M8.55 -12.5 Q8.85 -12.8 9.3 -12.9 L9.95 -12.65 10.15 -12.2 Q9.85 -12.7 9.3 -12.55 8.75 -12.4 8.45 -11.95 8.2 -11.35 8.5 -10.9 L8.25 -11.05 Q8.0 -11.35 8.1 -11.75 L8.55 -12.5" fill="#bfa95b" fill-rule="evenodd" stroke="none"/>
    <path d="M4.75 -18.2 L4.9 -18.05 4.9 -17.4 4.35 -16.85 3.6 -16.7 Q3.25 -16.75 3.05 -17.0 L3.0 -17.15 3.1 -17.15 Q3.85 -16.9 4.6 -17.75 L4.75 -18.2" fill="#bfa95b" fill-rule="evenodd" stroke="none"/>
    <path d="M10.05 -15.8 Q9.4 -16.4 9.65 -17.0 L9.65 -17.05 Q9.9 -16.15 10.75 -15.65 10.45 -15.35 10.05 -15.8" fill="#bfa95b" fill-rule="evenodd" stroke="none"/>
    <path d="M4.65 -9.8 L5.95 -9.4 6.4 -8.8 Q6.35 -8.55 5.95 -8.45 4.9 -9.6 3.1 -9.2 L2.95 -9.1 2.95 -8.9 2.7 -9.35 Q2.75 -9.65 3.35 -9.8 L4.65 -9.8" fill="#bfa95b" fill-rule="evenodd" stroke="none"/>
    <path d="M2.2 -10.55 Q1.4 -11.7 1.6 -12.8 2.1 -12.7 2.3 -11.75 2.5 -10.95 2.2 -10.55" fill="#bfa95b" fill-rule="evenodd" stroke="none"/>
    <path d="M9.4 -9.8 Q8.65 -8.55 7.25 -8.35 7.1 -8.65 7.25 -9.05 L7.85 -9.8 8.75 -10.05 9.4 -9.8" fill="#bfa95b" fill-rule="evenodd" stroke="none"/>
    <path d="M1.1 -15.05 Q1.5 -16.25 2.4 -16.85 L2.05 -15.8 1.1 -15.05" fill="#bfa95b" fill-rule="evenodd" stroke="none"/>
    <path d="M2.0 -5.3 L2.15 -3.6 2.1 -3.6 2.0 -5.3" fill="#f2bb86" fill-rule="evenodd" stroke="none"/>
    <path d="M-15.55 5.75 L-15.15 6.5 Q-14.25 7.2 -12.4 7.5 L-9.65 7.35 Q-9.0 7.1 -8.9 6.7 -8.85 6.15 -9.75 5.65 -10.7 5.1 -12.05 4.9 L-14.4 4.95 Q-15.5 5.2 -15.55 5.75 M-14.9 -8.05 Q-14.65 -7.55 -13.95 -7.45 -13.3 -7.4 -12.6 -7.75 -11.9 -8.15 -11.6 -8.75 -11.35 -9.4 -11.6 -9.9 L-11.85 -10.2 -12.75 -10.45 -13.95 -10.2 -14.8 -9.3 Q-15.15 -8.8 -15.0 -8.35 L-14.9 -8.05 M-2.6 -9.95 L-2.65 -10.15 -1.75 -9.5 0.4 -7.25 1.95 -5.4 1.4 -6.1 1.0 -6.15 0.65 -6.0 Q0.05 -5.45 0.25 -4.3 0.4 -3.6 0.8 -3.25 L-1.25 -2.6 Q-1.85 -2.35 -2.95 -0.55 L-4.0 -0.55 -5.1 0.0 -5.85 1.35 Q-6.0 2.15 -5.6 2.6 L-5.15 2.9 -4.8 2.95 -5.35 4.55 -6.25 4.95 -7.4 6.2 Q-7.7 6.95 -7.4 7.55 L-7.35 7.6 -6.5 8.2 -8.3 8.25 -14.55 7.5 Q-15.5 7.25 -16.3 6.0 L-17.45 3.85 -17.65 3.45 Q-17.25 3.9 -16.8 3.8 L-16.45 3.55 Q-15.9 2.8 -16.25 1.4 -16.4 0.6 -16.8 0.1 -17.15 -0.45 -17.6 -0.5 L-17.8 -0.5 Q-18.5 -0.3 -18.5 1.05 L-18.8 -0.7 -19.2 -2.95 Q-19.3 -4.3 -19.0 -5.15 L-18.9 -5.45 -18.85 -5.45 Q-19.0 -4.8 -18.7 -4.6 L-18.4 -4.55 Q-17.65 -4.55 -16.75 -5.85 -15.95 -7.0 -16.05 -7.75 L-16.25 -8.15 Q-16.7 -8.45 -17.55 -7.65 L-18.75 -5.65 Q-17.8 -7.75 -16.0 -9.4 -13.75 -11.35 -12.25 -12.1 L-9.55 -12.3 -7.8 -11.9 -8.9 -12.1 Q-10.95 -12.2 -11.05 -11.55 L-11.05 -11.35 Q-10.9 -10.95 -9.75 -10.45 L-7.05 -9.65 -4.05 -9.4 Q-2.7 -9.5 -2.6 -9.95 M-3.05 -8.1 L-3.1 -7.95 -3.05 -6.9 -2.4 -5.9 Q-1.6 -5.1 -1.1 -5.6 L-0.95 -5.9 Q-0.75 -6.3 -1.0 -6.95 L-1.65 -8.0 -2.5 -8.45 Q-2.85 -8.45 -3.05 -8.1" fill="#f2bb86" fill-rule="evenodd" stroke="none"/>
    <path d="M1.95 -5.4 L2.0 -5.3 2.1 -3.6 1.7 -3.5 1.5 -3.4 1.3 -3.4 Q1.3 -4.95 0.65 -6.0 L1.0 -6.15 1.4 -6.1 1.95 -5.4" fill="#e9a265" fill-rule="evenodd" stroke="none"/>
    <path d="M-11.05 -11.55 Q-10.95 -12.2 -8.9 -12.1 -5.45 -11.45 -3.2 -10.45 L-2.7 -10.2 -2.65 -10.15 -2.6 -9.95 Q-2.7 -9.5 -4.05 -9.4 -7.45 -11.6 -11.05 -11.35 L-11.05 -11.55" fill="#e9a265" fill-rule="evenodd" stroke="none"/>
    <path d="M-17.8 -0.5 L-17.6 -0.5 Q-17.9 1.55 -16.45 3.55 L-16.8 3.8 Q-17.25 3.9 -17.7 3.4 L-18.3 2.0 -18.4 1.7 -18.5 1.1 -18.5 1.05 Q-18.5 -0.3 -17.8 -0.5" fill="#e9a265" fill-rule="evenodd" stroke="none"/>
    <path d="M-14.85 6.0 L-12.1 5.95 Q-10.6 6.3 -9.65 7.3 L-9.65 7.35 -12.4 7.5 Q-14.25 7.2 -15.15 6.5 L-15.05 6.1 -14.85 6.0" fill="#e9a265" fill-rule="evenodd" stroke="none"/>
    <path d="M-15.0 -8.35 Q-15.15 -8.8 -14.8 -9.3 L-13.95 -10.2 -12.75 -10.45 -11.85 -10.2 Q-11.9 -9.7 -12.2 -9.35 -13.5 -7.85 -14.85 -8.25 L-15.0 -8.35" fill="#e9a265" fill-rule="evenodd" stroke="none"/>
    <path d="M-3.25 -0.1 L-4.8 2.95 -5.15 2.9 Q-5.7 2.05 -5.25 1.05 -4.6 0.2 -3.75 -0.05 L-3.25 -0.1" fill="#e9a265" fill-rule="evenodd" stroke="none"/>
    <path d="M-3.05 -8.1 Q-2.85 -8.45 -2.5 -8.45 L-1.65 -8.0 -1.0 -6.95 Q-0.75 -6.3 -0.95 -5.9 L-1.1 -5.6 Q-2.6 -6.5 -3.05 -8.1" fill="#e9a265" fill-rule="evenodd" stroke="none"/>
    <path d="M-18.7 -4.6 Q-19.0 -4.8 -18.85 -5.45 L-17.55 -7.65 Q-16.7 -8.45 -16.25 -8.15 L-16.05 -7.75 Q-17.7 -6.7 -18.4 -4.55 L-18.7 -4.6" fill="#e9a265" fill-rule="evenodd" stroke="none"/>
    <path d="M-5.4 6.8 L-5.4 7.95 -5.45 7.95 -6.05 8.15 -6.5 8.2 -7.35 7.6 -7.4 7.55 Q-6.35 7.4 -5.4 6.8" fill="#e9a265" fill-rule="evenodd" stroke="none"/>
    <path d="M-11.05 -11.35 Q-7.45 -11.6 -4.05 -9.4 L-7.05 -9.65 -9.75 -10.45 Q-10.9 -10.95 -11.05 -11.35" fill="#c7865c" fill-rule="evenodd" stroke="none"/>
    <path d="M-14.85 6.0 L-15.05 6.1 -15.15 6.5 -15.55 5.75 Q-15.5 5.2 -14.4 4.95 L-12.05 4.9 Q-10.7 5.1 -9.75 5.65 -8.85 6.15 -8.9 6.7 -9.0 7.1 -9.65 7.35 L-9.65 7.3 Q-10.6 6.3 -12.1 5.95 L-14.85 6.0" fill="#c7865c" fill-rule="evenodd" stroke="none"/>
    <path d="M-2.95 -0.55 L-3.25 -0.1 -3.75 -0.05 Q-4.6 0.2 -5.25 1.05 -5.7 2.05 -5.15 2.9 L-5.6 2.6 Q-6.0 2.15 -5.85 1.35 L-5.1 0.0 -4.0 -0.55 -2.95 -0.55" fill="#c7865c" fill-rule="evenodd" stroke="none"/>
    <path d="M-18.4 -4.55 Q-17.7 -6.7 -16.05 -7.75 -15.95 -7.0 -16.75 -5.85 -17.65 -4.55 -18.4 -4.55" fill="#c7865c" fill-rule="evenodd" stroke="none"/>
    <path d="M-3.05 -8.1 Q-2.6 -6.5 -1.1 -5.6 -1.6 -5.1 -2.4 -5.9 L-3.05 -6.9 -3.1 -7.95 -3.05 -8.1" fill="#c7865c" fill-rule="evenodd" stroke="none"/>
    <path d="M1.3 -3.4 L0.9 -3.25 0.8 -3.25 Q0.4 -3.6 0.25 -4.3 0.05 -5.45 0.65 -6.0 1.3 -4.95 1.3 -3.4" fill="#c7865c" fill-rule="evenodd" stroke="none"/>
    <path d="M-13.95 -7.45 Q-14.65 -7.55 -14.9 -8.05 L-15.0 -8.35 -14.85 -8.25 Q-13.5 -7.85 -12.2 -9.35 -11.9 -9.7 -11.85 -10.2 L-11.6 -9.9 Q-11.35 -9.4 -11.6 -8.75 -11.9 -8.15 -12.6 -7.75 -13.3 -7.4 -13.95 -7.45" fill="#c7865c" fill-rule="evenodd" stroke="none"/>
    <path d="M-16.45 3.55 Q-17.9 1.55 -17.6 -0.5 -17.15 -0.45 -16.8 0.1 -16.4 0.6 -16.25 1.4 -15.9 2.8 -16.45 3.55" fill="#c7865c" fill-rule="evenodd" stroke="none"/>
    <path d="M-5.4 6.8 Q-6.35 7.4 -7.4 7.55 -7.7 6.95 -7.4 6.2 L-6.25 4.95 -5.35 4.55 -5.4 4.75 -5.4 6.8" fill="#c7865c" fill-rule="evenodd" stroke="none"/>
    <path d="M3.55 12.5 L2.25 12.7 Q1.65 13.0 1.5 13.7 1.4 14.25 1.6 14.7 2.0 15.5 2.8 15.7 4.0 15.95 4.6 15.05 L4.9 14.5 Q5.05 13.85 4.65 13.25 4.3 12.65 3.55 12.5 M-4.5 7.65 L-4.7 7.65 Q-5.2 7.8 -5.05 9.5 L-4.75 11.25 Q-4.5 12.05 -4.15 12.25 L-3.95 12.2 Q-3.5 11.95 -3.6 10.35 -3.75 8.25 -4.4 7.7 L-4.5 7.65 M-3.45 2.35 L-4.4 3.65 Q-4.75 4.5 -4.65 5.3 -4.5 6.05 -4.0 6.3 L-3.9 6.3 Q-3.35 6.5 -2.75 6.0 L-1.8 4.75 Q-1.5 3.9 -1.6 3.2 -1.65 2.45 -2.1 2.15 L-2.25 2.1 Q-2.75 1.85 -3.45 2.35 M1.4 2.65 L2.65 1.55 Q3.25 0.5 2.9 -0.4 L2.3 -1.15 0.9 -1.25 Q0.15 -1.0 -0.3 -0.25 -0.85 0.65 -0.65 1.45 -0.5 2.15 0.05 2.5 L1.4 2.65 M16.65 10.1 Q16.3 10.1 15.85 10.6 15.4 11.1 15.1 11.85 14.45 13.35 14.85 14.1 L15.1 14.35 Q15.45 14.5 15.95 14.0 16.5 13.5 16.85 12.6 L17.2 11.05 Q17.2 10.3 16.85 10.15 L16.65 10.1 M15.1 3.0 Q14.2 3.15 13.65 3.9 13.05 4.7 13.05 5.75 13.05 6.85 13.65 7.65 14.3 8.45 15.15 8.55 L15.35 8.55 Q16.3 8.55 16.95 7.75 17.6 6.9 17.6 5.75 17.6 4.6 16.95 3.8 16.25 3.0 15.35 3.0 L15.1 3.0 M14.7 -2.85 L14.6 -2.8 Q14.45 -2.75 14.45 -2.4 14.45 -1.7 14.9 -0.8 L15.65 0.35 Q16.05 0.8 16.3 0.65 L16.45 0.25 18.7 4.95 Q19.0 5.75 18.15 9.95 17.2 14.35 16.2 15.65 L16.0 15.85 Q15.5 16.25 14.5 16.5 L14.6 16.2 Q14.5 15.75 13.7 15.5 L10.1 15.3 Q8.6 15.45 7.5 15.9 L6.05 16.85 5.95 17.2 6.2 17.65 3.8 17.85 Q2.65 17.95 0.9 17.2 1.5 17.3 1.65 17.0 L1.7 17.0 Q1.85 16.6 1.2 16.0 L-0.4 14.95 Q-2.15 14.1 -2.95 14.35 L-3.3 14.55 -3.25 14.95 -4.65 13.85 Q-5.2 13.15 -5.4 7.95 L-5.4 6.8 -5.4 4.75 -5.35 4.55 -4.8 2.95 -3.25 -0.1 -2.95 -0.55 Q-1.85 -2.35 -1.25 -2.6 L-0.15 -3.0 -0.15 -2.8 Q-0.05 -2.5 0.4 -2.35 L3.15 -2.3 Q4.45 -2.5 5.3 -2.95 6.15 -3.4 6.1 -3.8 L5.85 -4.15 5.3 -4.35 Q11.15 -5.7 12.35 -5.35 13.15 -5.15 14.7 -2.85 M9.85 -4.25 Q9.65 -3.8 10.0 -3.3 L11.0 -2.5 12.15 -2.3 Q12.75 -2.4 12.95 -2.75 L13.05 -2.9 Q13.25 -3.4 12.9 -3.85 L11.9 -4.65 Q10.8 -5.1 10.15 -4.65 L9.85 -4.25" fill="#d4e183" fill-rule="evenodd" stroke="none"/>
    <path d="M14.9 -0.8 Q14.45 -1.7 14.45 -2.4 15.75 -0.9 16.3 0.65 16.05 0.8 15.65 0.35 L14.9 -0.8" fill="#acc160" fill-rule="evenodd" stroke="none"/>
    <path d="M11.0 -2.5 L10.0 -3.3 Q9.65 -3.8 9.85 -4.25 L10.15 -4.65 Q10.85 -3.55 12.95 -2.75 12.75 -2.4 12.15 -2.3 L11.0 -2.5" fill="#acc160" fill-rule="evenodd" stroke="none"/>
    <path d="M15.1 11.85 Q15.4 11.1 15.85 10.6 16.3 10.1 16.65 10.1 16.0 12.8 14.85 14.1 14.45 13.35 15.1 11.85" fill="#acc160" fill-rule="evenodd" stroke="none"/>
    <path d="M2.25 12.7 L3.55 12.5 Q4.3 12.65 4.65 13.25 5.05 13.85 4.9 14.5 L4.6 15.05 Q5.0 14.05 4.2 13.35 3.75 12.95 2.75 13.0 1.65 13.4 1.6 14.7 1.4 14.25 1.5 13.7 1.65 13.0 2.25 12.7" fill="#acc160" fill-rule="evenodd" stroke="none"/>
    <path d="M2.65 1.55 L1.4 2.65 0.05 2.5 Q-0.5 2.15 -0.65 1.45 L0.05 2.15 Q1.05 2.5 2.2 1.4 2.85 0.7 2.9 -0.4 3.25 0.5 2.65 1.55" fill="#acc160" fill-rule="evenodd" stroke="none"/>
    <path d="M-4.4 7.7 Q-3.75 8.25 -3.6 10.35 -3.5 11.95 -3.95 12.2 -4.85 9.55 -4.7 7.65 L-4.5 7.65 -4.4 7.7" fill="#acc160" fill-rule="evenodd" stroke="none"/>
    <path d="M10.1 15.3 L13.7 15.5 Q10.85 16.4 6.05 16.85 L7.5 15.9 Q8.6 15.45 10.1 15.3" fill="#acc160" fill-rule="evenodd" stroke="none"/>
    <path d="M13.75 5.1 Q13.65 6.2 14.0 7.2 14.4 8.05 15.15 8.55 14.3 8.45 13.65 7.65 13.05 6.85 13.05 5.75 13.05 4.7 13.65 3.9 14.2 3.15 15.1 3.0 13.9 3.6 13.75 5.1" fill="#acc160" fill-rule="evenodd" stroke="none"/>
    <path d="M1.7 17.0 L1.65 17.0 Q-1.6 15.65 -2.95 14.35 -2.15 14.1 -0.4 14.95 L1.2 16.0 Q1.85 16.6 1.7 17.0" fill="#acc160" fill-rule="evenodd" stroke="none"/>
    <path d="M3.15 -2.3 L0.4 -2.35 Q3.0 -3.8 5.85 -4.15 L6.1 -3.8 Q6.15 -3.4 5.3 -2.95 4.45 -2.5 3.15 -2.3" fill="#acc160" fill-rule="evenodd" stroke="none"/>
    <path d="M-3.9 6.3 Q-2.45 4.45 -2.1 2.15 -1.65 2.45 -1.6 3.2 -1.5 3.9 -1.8 4.75 L-2.75 6.0 Q-3.35 6.5 -3.9 6.3" fill="#acc160" fill-rule="evenodd" stroke="none"/>
    <path d="M12.95 -2.75 Q10.85 -3.55 10.15 -4.65 10.8 -5.1 11.9 -4.65 L12.9 -3.85 Q13.25 -3.4 13.05 -2.9 L12.95 -2.75" fill="#c7d763" fill-rule="evenodd" stroke="none"/>
    <path d="M15.55 -1.35 L15.6 -1.35 16.0 -0.6 16.05 -0.5 16.45 0.2 16.45 0.25 16.3 0.65 Q15.75 -0.9 14.45 -2.4 14.45 -2.75 14.6 -2.8 L14.7 -2.85 14.7 -2.8 15.55 -1.35" fill="#c7d763" fill-rule="evenodd" stroke="none"/>
    <path d="M16.85 10.15 Q17.2 10.3 17.2 11.05 L16.85 12.6 Q16.5 13.5 15.95 14.0 15.45 14.5 15.1 14.35 L14.85 14.1 Q16.0 12.8 16.65 10.1 L16.85 10.15" fill="#c7d763" fill-rule="evenodd" stroke="none"/>
    <path d="M15.35 3.0 Q16.25 3.0 16.95 3.8 17.6 4.6 17.6 5.75 17.6 6.9 16.95 7.75 16.3 8.55 15.35 8.55 L15.15 8.55 Q14.4 8.05 14.0 7.2 13.65 6.2 13.75 5.1 13.9 3.6 15.1 3.0 L15.35 3.0" fill="#c7d763" fill-rule="evenodd" stroke="none"/>
    <path d="M6.25 17.65 L6.2 17.65 5.95 17.2 6.05 16.85 Q10.85 16.4 13.7 15.5 14.5 15.75 14.6 16.2 L14.5 16.5 13.7 16.7 13.65 16.7 12.75 16.9 12.65 16.9 10.6 17.2 10.5 17.2 9.45 17.35 9.4 17.35 8.3 17.45 7.25 17.55 7.15 17.55 6.25 17.65" fill="#c7d763" fill-rule="evenodd" stroke="none"/>
    <path d="M1.65 17.0 Q1.5 17.3 0.9 17.2 L-0.35 16.65 -1.25 16.2 -3.25 14.95 -3.3 14.55 -2.95 14.35 Q-1.6 15.65 1.65 17.0" fill="#c7d763" fill-rule="evenodd" stroke="none"/>
    <path d="M4.2 13.35 Q5.0 14.05 4.6 15.05 4.0 15.95 2.8 15.7 2.0 15.5 1.6 14.7 1.65 13.4 2.75 13.0 3.75 12.95 4.2 13.35" fill="#c7d763" fill-rule="evenodd" stroke="none"/>
    <path d="M-4.7 7.65 Q-4.85 9.55 -3.95 12.2 L-4.15 12.25 Q-4.5 12.05 -4.75 11.25 L-5.05 9.5 Q-5.2 7.8 -4.7 7.65" fill="#c7d763" fill-rule="evenodd" stroke="none"/>
    <path d="M1.7 -3.5 L2.95 -3.8 3.0 -3.8 3.65 -3.95 3.75 -4.0 5.2 -4.35 5.3 -4.35 5.85 -4.15 Q3.0 -3.8 0.4 -2.35 -0.05 -2.5 -0.15 -2.8 L-0.15 -3.0 0.45 -3.15 0.9 -3.25 1.0 -3.3 1.5 -3.4 1.7 -3.5" fill="#c7d763" fill-rule="evenodd" stroke="none"/>
    <path d="M-4.0 6.3 Q-4.5 6.05 -4.65 5.3 -4.75 4.5 -4.4 3.65 L-3.45 2.35 Q-2.75 1.85 -2.25 2.1 L-2.1 2.15 Q-2.45 4.45 -3.9 6.3 L-4.0 6.3" fill="#c7d763" fill-rule="evenodd" stroke="none"/>
    <path d="M0.05 2.15 L-0.65 1.45 Q-0.85 0.65 -0.3 -0.25 0.15 -1.0 0.9 -1.25 L2.3 -1.15 2.9 -0.4 Q2.85 0.7 2.2 1.4 1.05 2.5 0.05 2.15" fill="#c7d763" fill-rule="evenodd" stroke="none"/>
  </g>
</svg>
