<?xml version="1.0" encoding="UTF-8" standalone="no"?>
<svg xmlns:ffdec="https://www.free-decompiler.com/flash" xmlns:xlink="http://www.w3.org/1999/xlink" ffdec:objectType="shape" height="42.8px" width="42.8px" xmlns="http://www.w3.org/2000/svg">
  <g transform="matrix(1.0, 0.0, 0.0, 1.0, 21.4, 21.4)">
    <path d="M12.7 -12.75 Q7.45 -18.0 0.0 -18.0 -7.45 -18.0 -12.75 -12.75 -18.0 -7.45 -18.0 0.0 -18.0 7.45 -12.75 12.75 -7.45 18.0 0.0 18.0 7.45 18.0 12.7 12.75 18.0 7.45 18.0 0.0 18.0 -7.45 12.7 -12.75 18.0 -7.45 18.0 0.0 18.0 7.45 12.7 12.75 7.45 18.0 0.0 18.0 -7.45 18.0 -12.75 12.75 -18.0 7.45 -18.0 0.0 -18.0 -7.45 -12.75 -12.75 -7.45 -18.0 0.0 -18.0 7.45 -18.0 12.7 -12.75 M8.3 -19.7 Q12.15 -18.1 15.1 -15.15 18.1 -12.15 19.7 -8.3 21.4 -4.35 21.4 0.0 21.4 4.35 19.7 8.35 18.1 12.15 15.1 15.15 12.15 18.1 8.3 19.75 4.35 21.4 0.0 21.4 -4.35 21.4 -8.3 19.75 -12.15 18.1 -15.15 15.15 -18.1 12.15 -19.7 8.35 -21.4 4.35 -21.4 0.0 -21.4 -4.35 -19.7 -8.3 -18.1 -12.15 -15.15 -15.15 -12.15 -18.1 -8.3 -19.7 -4.35 -21.4 0.0 -21.4 4.35 -21.4 8.3 -19.7" fill="#82b6e2" fill-rule="evenodd" stroke="none"/>
    <path d="M-2.8 -12.75 L-2.8 -13.05 Q-2.7 -13.7 -2.05 -13.85 L6.1 -15.7 6.3 -15.7 6.85 -15.55 7.3 -14.95 8.65 -8.75 Q9.8 -9.8 11.4 -10.15 L12.8 -10.3 Q15.0 -10.3 16.7 -8.95 18.4 -7.6 18.9 -5.4 19.5 -2.9 18.05 -0.7 L17.65 -0.15 Q16.3 1.55 14.2 2.05 L12.8 2.2 11.1 1.95 11.3 2.7 12.5 8.15 12.4 8.85 11.85 9.3 11.75 9.35 -11.35 14.6 -11.55 14.6 Q-12.35 14.6 -12.55 13.85 L-17.75 -9.25 -17.75 -9.35 -17.6 -10.05 -17.0 -10.45 -8.85 -12.3 -8.65 -12.3 Q-8.1 -12.3 -7.8 -11.9 -7.45 -11.35 -7.85 -10.8 -9.0 -9.2 -8.55 -7.35 -8.2 -5.85 -7.05 -4.9 -5.85 -4.0 -4.4 -4.0 L-3.4 -4.05 Q-2.05 -4.4 -1.15 -5.4 0.3 -7.1 -0.2 -9.2 -0.6 -11.1 -2.3 -12.05 -2.75 -12.3 -2.8 -12.75 M0.75 -9.45 Q1.25 -7.3 0.1 -5.45 -1.1 -3.6 -3.2 -3.15 -5.3 -2.65 -7.15 -3.8 -9.0 -5.0 -9.5 -7.1 -10.05 -9.45 -8.65 -11.35 L-16.8 -9.5 -11.55 13.6 11.55 8.35 9.7 0.2 Q11.65 1.65 13.95 1.1 16.1 0.6 17.25 -1.25 18.4 -3.1 17.95 -5.25 17.45 -7.35 15.6 -8.5 13.75 -9.7 11.65 -9.2 9.3 -8.65 8.15 -6.6 L6.3 -14.75 -1.85 -12.9 Q0.25 -11.75 0.75 -9.45" fill="#4c4c4c" fill-rule="evenodd" stroke="none"/>
    <path d="M0.75 -9.45 Q0.25 -11.75 -1.85 -12.9 L6.3 -14.75 8.15 -6.6 Q9.3 -8.65 11.65 -9.2 13.75 -9.7 15.6 -8.5 17.45 -7.35 17.95 -5.25 18.4 -3.1 17.25 -1.25 16.1 0.6 13.95 1.1 11.65 1.65 9.7 0.2 L11.55 8.35 -11.55 13.6 -16.8 -9.5 -8.65 -11.35 Q-10.05 -9.45 -9.5 -7.1 -9.0 -5.0 -7.15 -3.8 -5.3 -2.65 -3.2 -3.15 -1.1 -3.6 0.1 -5.45 1.25 -7.3 0.75 -9.45" fill="#ffffff" fill-rule="evenodd" stroke="none"/>
    <path d="M-2.8 -12.75 Q-2.75 -12.3 -2.3 -12.05 -0.6 -11.1 -0.2 -9.2 0.3 -7.1 -1.15 -5.4 -0.55 -6.75 -0.85 -8.15 -1.3 -10.05 -3.0 -10.95 -3.6 -11.35 -3.5 -11.95 -3.4 -12.6 -2.8 -12.75 M-17.75 -9.35 L-17.75 -9.25 -12.55 13.85 Q-12.35 14.6 -11.55 14.6 L-11.35 14.6 11.75 9.35 11.85 9.3 11.65 10.0 11.1 10.4 -12.25 15.65 -12.85 15.4 -13.2 14.9 -18.4 -8.25 -18.3 -8.95 -17.75 -9.35 M11.3 2.7 L11.1 1.95 12.8 2.2 14.2 2.05 Q16.3 1.55 17.65 -0.15 L17.4 0.35 Q16.05 2.5 13.5 3.1 L12.1 3.25 11.4 3.2 11.3 2.7" fill="#231f20" fill-rule="evenodd" stroke="none"/>
  </g>
</svg>
