<?xml version="1.0" encoding="UTF-8" standalone="no"?>
<svg xmlns:ffdec="https://www.free-decompiler.com/flash" xmlns:xlink="http://www.w3.org/1999/xlink" ffdec:objectType="shape" height="28.3px" width="23.75px" xmlns="http://www.w3.org/2000/svg">
  <g transform="matrix(1.0, 0.0, 0.0, 1.0, 16.55, 15.65)">
    <path d="M6.2 -12.35 Q6.25 -12.85 5.9 -13.25 L5.1 -13.7 -5.5 -14.65 -6.4 -14.35 -6.8 -13.55 -7.75 -2.95 Q-7.8 -2.45 -7.5 -2.05 -7.15 -1.65 -6.65 -1.6 L3.95 -0.7 Q4.45 -0.65 4.8 -0.95 5.2 -1.3 5.25 -1.8 L6.2 -12.35 M6.7 -13.9 Q7.3 -13.2 7.2 -12.3 L6.25 -1.7 Q6.15 -0.55 5.2 0.0 4.95 0.8 4.3 1.25 3.65 1.75 2.85 1.65 L-7.75 0.7 Q-8.7 0.6 -9.25 -0.1 -9.85 -0.8 -9.75 -1.7 L-8.85 -12.3 Q-8.7 -13.45 -7.75 -14.0 L-6.9 -15.25 Q-6.25 -15.7 -5.4 -15.65 L5.2 -14.7 Q6.1 -14.6 6.7 -13.9" fill="#3db44a" fill-rule="evenodd" stroke="none"/>
    <path d="M5.1 -13.7 L5.9 -13.25 Q6.25 -12.85 6.2 -12.35 L5.25 -1.8 Q5.2 -1.3 4.8 -0.95 4.45 -0.65 3.95 -0.7 L-6.65 -1.6 Q-7.15 -1.65 -7.5 -2.05 -7.8 -2.45 -7.75 -2.95 L-6.8 -13.55 -6.4 -14.35 -5.5 -14.65 5.1 -13.7" fill="#ffffff" fill-rule="evenodd" stroke="none"/>
    <path d="M2.95 -12.0 Q3.5 -11.95 4.65 -11.3 1.45 -8.05 -4.25 -3.2 -5.25 -3.3 -6.05 -3.9 L-6.15 -4.15 Q-5.1 -5.55 -2.05 -8.2 L2.5 -12.0 2.95 -12.0" fill="#3db44a" fill-rule="evenodd" stroke="none"/>
    <path d="M-2.0 -3.45 Q-2.05 -3.95 -2.45 -4.25 L-3.4 -4.45 -13.9 -2.85 -14.7 -2.35 Q-15.0 -1.95 -14.9 -1.45 L-13.25 9.05 Q-13.2 9.55 -12.8 9.85 -12.4 10.15 -11.9 10.05 L-1.35 8.45 -0.6 7.95 Q-0.3 7.55 -0.35 7.05 L-2.0 -3.45 M-1.9 -5.05 Q-1.15 -4.5 -1.0 -3.6 L0.65 6.9 Q0.8 8.05 0.0 8.8 0.0 9.6 -0.55 10.2 -1.05 10.85 -1.9 10.95 L-12.4 12.6 Q-13.3 12.75 -14.05 12.2 -14.8 11.65 -14.9 10.75 L-16.55 0.25 Q-16.7 -0.9 -15.9 -1.7 -15.9 -2.5 -15.4 -3.1 -14.85 -3.7 -14.05 -3.85 L-3.55 -5.45 Q-2.6 -5.6 -1.9 -5.05" fill="#ec1c24" fill-rule="evenodd" stroke="none"/>
    <path d="M-2.45 -4.25 Q-2.05 -3.95 -2.0 -3.45 L-0.35 7.05 Q-0.3 7.55 -0.6 7.95 L-1.35 8.45 -11.9 10.05 Q-12.4 10.15 -12.8 9.85 -13.2 9.55 -13.25 9.05 L-14.9 -1.45 Q-15.0 -1.95 -14.7 -2.35 L-13.9 -2.85 -3.4 -4.45 -2.45 -4.25" fill="#ffffff" fill-rule="evenodd" stroke="none"/>
  </g>
</svg>
