<?xml version="1.0" encoding="UTF-8" standalone="no"?>
<svg xmlns:ffdec="https://www.free-decompiler.com/flash" xmlns:xlink="http://www.w3.org/1999/xlink" ffdec:objectType="shape" height="31.5px" width="31.55px" xmlns="http://www.w3.org/2000/svg">
  <g transform="matrix(1.0, 0.0, 0.0, 1.0, 0.0, 0.0)">
    <path d="M2.4 15.1 Q2.4 20.65 6.3 24.55 10.25 28.5 15.75 28.5 21.3 28.5 25.25 24.55 29.15 20.65 29.15 15.1 29.15 9.55 25.25 5.65 21.3 1.7 15.75 1.7 10.25 1.7 6.3 5.65 2.4 9.55 2.4 15.1 M4.65 26.9 Q0.0 22.25 0.0 15.75 0.0 9.25 4.65 4.65 9.25 0.0 15.75 0.0 22.3 0.0 26.9 4.65 31.55 9.25 31.55 15.75 31.55 22.25 26.9 26.9 22.3 31.5 15.75 31.5 9.25 31.5 4.65 26.9" fill="#c27a2d" fill-rule="evenodd" stroke="none"/>
    <path d="M2.4 15.1 Q2.4 9.55 6.3 5.65 10.25 1.7 15.75 1.7 21.3 1.7 25.25 5.65 29.15 9.55 29.15 15.1 29.15 20.65 25.25 24.55 21.3 28.5 15.75 28.5 10.25 28.5 6.3 24.55 2.4 20.65 2.4 15.1 M3.55 15.25 L13.8 25.5 27.45 11.85 23.2 7.55 13.8 16.95 7.8 11.0 3.55 15.25" fill="#ffe86e" fill-rule="evenodd" stroke="none"/>
    <path d="M3.55 15.25 L7.8 11.0 13.8 16.95 23.2 7.55 27.45 11.85 13.8 25.5 3.55 15.25" fill="#ffffff" fill-rule="evenodd" stroke="none"/>
  </g>
</svg>
