<?xml version="1.0" encoding="UTF-8" standalone="no"?>
<svg xmlns:ffdec="https://www.free-decompiler.com/flash" xmlns:xlink="http://www.w3.org/1999/xlink" ffdec:objectType="shape" height="42.8px" width="42.8px" xmlns="http://www.w3.org/2000/svg">
  <g transform="matrix(1.0, 0.0, 0.0, 1.0, 21.4, 21.4)">
    <path d="M12.7 -12.75 Q7.45 -18.0 0.0 -18.0 -7.45 -18.0 -12.75 -12.75 -18.0 -7.45 -18.0 0.0 -18.0 7.45 -12.75 12.75 -7.45 18.0 0.0 18.0 7.45 18.0 12.7 12.75 18.0 7.45 18.0 0.0 18.0 -7.45 12.7 -12.75 18.0 -7.45 18.0 0.0 18.0 7.45 12.7 12.75 7.45 18.0 0.0 18.0 -7.45 18.0 -12.75 12.75 -18.0 7.45 -18.0 0.0 -18.0 -7.45 -12.75 -12.75 -7.45 -18.0 0.0 -18.0 7.45 -18.0 12.7 -12.75 M8.3 -19.7 Q12.15 -18.1 15.1 -15.15 18.1 -12.15 19.7 -8.3 21.4 -4.35 21.4 0.0 21.4 4.35 19.7 8.35 18.1 12.15 15.1 15.15 12.15 18.1 8.3 19.75 4.35 21.4 0.0 21.4 -4.35 21.4 -8.3 19.75 -12.15 18.1 -15.15 15.15 -18.1 12.15 -19.7 8.35 -21.4 4.35 -21.4 0.0 -21.4 -4.35 -19.7 -8.3 -18.1 -12.15 -15.15 -15.15 -12.15 -18.1 -8.3 -19.7 -4.35 -21.4 0.0 -21.4 4.35 -21.4 8.3 -19.7" fill="#82b6e2" fill-rule="evenodd" stroke="none"/>
    <path d="M1.6 -16.2 L0.0 -17.05 -1.75 -16.1 -2.9 -16.0 -2.85 -15.5 -3.6 -15.1 -4.15 -15.25 -4.55 -15.6 0.0 -18.1 4.0 -15.85 3.3 -16.0 1.6 -16.2" fill="#ffffff" fill-rule="evenodd" stroke="none"/>
    <path d="M6.5 -11.35 L6.55 -13.4 6.55 -13.45 8.0 -12.65 8.0 -5.7 0.0 -1.25 -8.05 -5.7 -8.05 -12.65 -6.4 -13.55 -6.1 -11.25 -6.0 -10.2 -5.75 -9.2 -5.05 -8.15 Q-4.9 -8.45 -4.6 -8.45 L-4.2 -8.3 -4.05 -7.85 -4.15 -7.55 Q-4.2 -7.5 -4.45 -7.4 L-1.85 -3.8 -1.7 -3.55 -1.65 -3.6 -1.45 -3.75 2.9 -6.8 5.45 -8.8 5.9 -9.1 6.5 -9.7 6.5 -10.9 5.75 -10.65 5.65 -10.8 5.75 -11.1 Q5.9 -11.45 6.5 -11.35" fill="#ff91d1" fill-rule="evenodd" stroke="none"/>
    <path d="M-3.35 -15.15 L-3.6 -15.1 -2.85 -15.5 Q-2.95 -15.25 -3.35 -15.15" fill="#ff91d1" fill-rule="evenodd" stroke="none"/>
    <path d="M1.6 -16.2 L0.45 -16.2 -1.75 -16.1 0.0 -17.05 1.6 -16.2" fill="#ff91d1" fill-rule="evenodd" stroke="none"/>
    <path d="M2.15 -14.85 L1.05 -15.15 -0.1 -14.85 -0.6 -14.15 Q-0.6 -13.75 -0.1 -13.5 0.35 -13.2 1.05 -13.2 L2.1 -13.45 2.65 -14.0 2.7 -14.15 Q2.7 -14.6 2.15 -14.85 M5.1 -14.95 L6.0 -14.45 6.0 -14.4 1.35 -11.5 0.35 -11.9 -0.9 -11.6 -1.35 -10.85 Q-1.35 -10.15 -1.05 -10.0 L-1.65 -9.6 -3.65 -11.9 Q-3.35 -12.1 -3.3 -12.45 L-3.45 -13.0 Q-3.65 -13.25 -4.0 -13.3 L-4.8 -13.25 -4.8 -13.2 -5.85 -14.45 -5.8 -14.5 -4.7 -15.0 Q-4.3 -14.55 -3.6 -14.55 -3.1 -14.55 -2.7 -14.85 -2.3 -15.1 -2.3 -15.5 L-2.3 -15.55 1.3 -15.65 1.35 -15.65 1.85 -15.65 3.25 -15.45 5.1 -14.95" fill="#ffe45a" fill-rule="evenodd" stroke="none"/>
    <path d="M2.9 -8.65 L2.95 -8.85 Q3.0 -9.2 2.65 -9.35 L2.1 -9.4 1.65 -9.2 1.15 -8.3 Q1.05 -7.7 1.7 -7.8 L2.05 -7.95 2.65 -8.35 2.9 -8.65 M-1.0 -9.7 Q-0.7 -9.0 0.2 -9.35 1.2 -9.7 1.35 -11.15 L0.8 -10.1 Q-0.2 -9.4 -1.0 -9.7 M6.05 -14.3 L6.0 -11.7 Q5.55 -12.05 5.2 -11.4 4.9 -10.8 5.0 -10.15 5.1 -9.85 5.4 -9.9 L5.95 -10.25 5.95 -9.7 Q5.9 -9.8 5.6 -9.55 L5.15 -9.2 2.6 -7.2 -1.45 -3.75 -1.65 -3.6 -1.65 -5.05 Q-1.2 -4.9 -0.5 -5.5 -0.2 -5.75 -0.15 -6.35 L-0.35 -6.95 -1.6 -7.05 -1.6 -9.6 -1.05 -10.0 Q-1.35 -10.15 -1.35 -10.85 L-0.9 -11.6 0.35 -11.9 1.35 -11.5 6.0 -14.4 6.05 -14.3 M4.45 -11.6 L4.4 -12.05 4.0 -12.45 3.45 -12.3 3.15 -11.8 Q3.0 -11.25 3.45 -11.15 L4.15 -11.25 4.45 -11.6" fill="#c8a41b" fill-rule="evenodd" stroke="none"/>
    <path d="M-5.95 -14.4 L-5.85 -14.45 -4.8 -13.2 -4.55 -12.3 -4.15 -11.6 -4.3 -13.05 -3.85 -13.0 -3.45 -13.0 -3.3 -12.45 Q-3.35 -12.1 -3.65 -11.9 L-1.65 -9.6 -1.6 -9.6 -1.6 -7.05 Q-2.2 -7.1 -2.15 -6.2 -2.1 -5.3 -1.65 -5.05 L-1.5 -6.2 Q-1.3 -6.55 -0.85 -6.6 -0.4 -6.65 -0.15 -6.35 -0.2 -5.75 -0.5 -5.5 -1.2 -4.9 -1.65 -5.05 L-1.65 -3.6 -1.7 -3.55 -2.05 -4.2 -2.1 -4.3 -2.55 -5.15 -2.6 -5.15 -3.85 -7.3 -3.6 -7.6 Q-3.45 -8.25 -3.95 -8.65 -4.45 -9.1 -4.85 -8.8 L-5.05 -9.1 -5.05 -9.15 -5.3 -9.5 -5.5 -10.25 -5.6 -11.3 -5.95 -14.3 -5.95 -14.4" fill="#dfc140" fill-rule="evenodd" stroke="none"/>
    <path d="M4.0 -15.85 L5.3 -15.45 6.35 -14.8 6.5 -14.65 6.55 -14.4 6.6 -14.35 6.55 -13.4 6.5 -11.35 Q5.9 -11.45 5.75 -11.1 L5.65 -10.8 5.75 -10.65 6.5 -10.9 6.5 -9.7 5.9 -9.1 5.45 -8.8 2.9 -6.8 -1.45 -3.75 2.6 -7.2 5.15 -9.2 5.6 -9.55 Q5.9 -9.8 5.95 -9.7 L5.95 -10.25 5.4 -9.9 Q5.1 -9.85 5.0 -10.15 4.9 -10.8 5.2 -11.4 5.55 -12.05 6.0 -11.7 L6.05 -14.3 6.0 -14.4 6.0 -14.45 5.1 -14.95 3.25 -15.45 1.85 -15.65 1.35 -15.65 1.3 -15.65 -2.3 -15.55 -2.3 -15.5 Q-2.3 -15.1 -2.7 -14.85 -3.1 -14.55 -3.6 -14.55 -4.3 -14.55 -4.7 -15.0 L-5.8 -14.5 -5.95 -14.4 -5.95 -14.3 -5.6 -11.3 -5.5 -10.25 -5.3 -9.5 -5.05 -9.15 -5.05 -9.1 -4.85 -8.8 Q-4.45 -9.1 -3.95 -8.65 -3.45 -8.25 -3.6 -7.6 L-3.85 -7.3 -2.6 -5.15 -2.55 -5.15 -2.1 -4.3 -2.05 -4.2 -1.85 -3.8 -4.45 -7.4 Q-4.2 -7.5 -4.15 -7.55 L-4.05 -7.85 -4.2 -8.3 -4.6 -8.45 Q-4.9 -8.45 -5.05 -8.15 L-5.75 -9.2 -6.0 -10.2 -6.1 -11.25 -6.4 -13.55 -6.4 -13.6 -6.5 -14.4 -6.5 -14.45 -6.5 -14.5 -6.4 -14.75 -6.35 -14.75 -6.05 -14.95 -4.9 -15.5 -4.6 -15.65 -4.55 -15.6 -4.15 -15.25 -3.6 -15.1 -3.35 -15.15 Q-2.95 -15.25 -2.85 -15.5 L-2.9 -16.0 -1.75 -16.1 0.45 -16.2 1.6 -16.2 3.3 -16.0 4.0 -15.85" fill="#a08211" fill-rule="evenodd" stroke="none"/>
    <path d="M1.25 -14.85 Q0.8 -14.75 0.45 -14.5 0.2 -14.05 0.55 -13.75 L1.25 -13.55 Q2.05 -13.3 2.65 -14.0 L2.1 -13.45 1.05 -13.2 Q0.35 -13.2 -0.1 -13.5 -0.6 -13.75 -0.6 -14.15 L-0.1 -14.85 1.05 -15.15 2.15 -14.85 1.25 -14.85" fill="#c8a41b" fill-rule="evenodd" stroke="none"/>
    <path d="M-4.8 -13.25 L-4.0 -13.3 Q-3.65 -13.25 -3.45 -13.0 L-3.85 -13.0 -4.3 -13.05 -4.15 -11.6 -4.55 -12.3 -4.8 -13.2 -4.8 -13.25" fill="#c8a41b" fill-rule="evenodd" stroke="none"/>
    <path d="M1.65 -9.2 L2.1 -9.4 2.65 -9.35 2.1 -8.8 Q2.0 -8.45 2.25 -8.15 L2.45 -8.3 2.65 -8.35 2.05 -7.95 1.7 -7.8 Q1.05 -7.7 1.15 -8.3 L1.65 -9.2" fill="#a08211" fill-rule="evenodd" stroke="none"/>
    <path d="M4.0 -12.45 L4.4 -12.05 4.35 -12.05 3.9 -11.95 3.7 -11.6 Q3.7 -11.3 4.15 -11.25 L3.45 -11.15 Q3.0 -11.25 3.15 -11.8 L3.45 -12.3 4.0 -12.45" fill="#a08211" fill-rule="evenodd" stroke="none"/>
    <path d="M-1.6 -7.05 L-0.35 -6.95 -0.15 -6.35 Q-0.4 -6.65 -0.85 -6.6 -1.3 -6.55 -1.5 -6.2 L-1.65 -5.05 Q-2.1 -5.3 -2.15 -6.2 -2.2 -7.1 -1.6 -7.05" fill="#a08211" fill-rule="evenodd" stroke="none"/>
    <path d="M0.45 -14.5 Q0.8 -14.75 1.25 -14.85 L2.15 -14.85 Q2.7 -14.6 2.7 -14.15 L2.65 -14.0 Q2.05 -13.3 1.25 -13.55 L0.55 -13.75 Q0.2 -14.05 0.45 -14.5" fill="#dfc140" fill-rule="evenodd" stroke="none"/>
    <path d="M2.65 -9.35 Q3.0 -9.2 2.95 -8.85 L2.9 -8.65 2.65 -8.35 2.45 -8.3 2.25 -8.15 Q2.0 -8.45 2.1 -8.8 L2.65 -9.35" fill="#dfc140" fill-rule="evenodd" stroke="none"/>
    <path d="M1.35 -11.15 Q1.2 -9.7 0.2 -9.35 -0.7 -9.0 -1.0 -9.7 -0.2 -9.4 0.8 -10.1 L1.35 -11.15" fill="#dfc140" fill-rule="evenodd" stroke="none"/>
    <path d="M4.35 -12.05 L4.4 -12.05 4.45 -11.6 4.15 -11.25 Q3.7 -11.3 3.7 -11.6 L3.9 -11.95 4.35 -12.05" fill="#dfc140" fill-rule="evenodd" stroke="none"/>
    <path d="M0.0 9.6 L-8.95 14.5 -17.85 9.6 -17.85 7.8 -8.95 12.7 0.0 7.8 8.9 12.7 17.85 7.8 17.85 9.6 8.9 14.5 0.0 9.6" fill="#231f20" fill-rule="evenodd" stroke="none"/>
    <path d="M-5.3 -3.05 L-5.35 -3.2 -5.05 -3.05 -5.3 -3.05" fill="#ffffff" fill-rule="evenodd" stroke="none"/>
    <path d="M-10.95 8.45 Q-11.05 7.45 -11.25 6.95 -9.9 7.85 -8.4 7.6 -6.95 7.35 -5.85 6.3 -4.7 5.25 -4.3 3.85 -3.95 2.3 -4.65 0.9 L-2.95 1.0 Q-1.85 0.9 -1.5 0.35 L-1.6 0.05 -1.7 -0.05 -1.8 -0.25 -0.9 0.3 -0.9 7.25 -8.95 11.65 -12.15 9.9 -11.15 9.8 Q-10.85 9.6 -10.95 8.45" fill="#fff100" fill-rule="evenodd" stroke="none"/>
    <path d="M-10.05 -2.05 Q-11.5 -1.7 -12.55 -0.6 -13.65 0.55 -13.85 1.95 -14.1 3.45 -13.1 4.8 L-15.85 4.75 -15.9 5.25 -14.95 5.85 Q-15.45 6.5 -14.6 7.5 L-13.2 9.05 -12.8 9.55 -16.95 7.25 -16.95 0.3 -8.95 -4.15 -6.9 -3.05 Q-7.2 -2.3 -7.1 -1.65 -8.5 -2.4 -10.05 -2.05" fill="#fff100" fill-rule="evenodd" stroke="none"/>
    <path d="M-16.95 0.3 L-16.95 7.25 -12.8 9.55 -12.15 9.9 -8.95 11.65 -0.9 7.25 -0.9 0.3 -1.8 -0.25 -2.85 -1.8 -3.95 -2.95 -4.4 -3.0 -5.05 -3.05 -5.35 -3.2 -5.55 -3.95 -6.45 -3.8 -6.9 -3.05 -8.95 -4.15 -16.95 0.3 M6.55 -13.45 L6.6 -14.35 6.55 -14.4 8.75 -13.2 8.75 -5.15 5.5 -3.3 8.9 -5.15 12.1 -3.4 11.5 -2.75 8.9 -4.15 0.9 0.3 0.9 7.25 8.9 11.65 16.95 7.25 16.95 0.3 13.2 -1.8 13.65 -2.55 17.85 -0.25 17.85 7.8 8.9 12.7 0.0 7.8 -8.95 12.7 -17.85 7.8 -17.85 -0.25 -8.95 -5.15 -8.95 -13.2 -6.5 -14.5 -6.5 -14.45 -6.5 -14.4 -6.4 -13.6 -6.4 -13.55 -8.05 -12.65 -8.05 -5.7 0.0 -1.25 8.0 -5.7 8.0 -12.65 6.55 -13.45" fill="#ffffff" fill-rule="evenodd" stroke="none"/>
    <path d="M14.3 0.4 L13.0 -1.3 13.2 -1.8 16.95 0.3 16.95 7.25 8.9 11.65 0.9 7.25 0.9 0.3 8.9 -4.15 11.5 -2.75 11.0 -2.3 10.5 -2.1 7.8 -1.85 5.2 -1.3 Q4.15 -0.8 3.5 0.2 3.05 0.95 2.95 1.65 2.75 3.25 3.4 4.8 L4.45 6.35 4.2 6.4 3.75 6.45 3.7 6.45 3.7 6.5 3.65 6.5 3.8 7.0 3.75 7.0 4.1 7.25 4.7 7.75 5.15 7.85 5.3 8.0 6.25 9.05 6.5 9.4 6.55 9.5 6.65 9.6 6.75 9.65 6.9 9.55 7.0 9.45 7.0 9.15 7.1 9.15 7.15 9.15 7.75 9.3 8.2 9.7 8.55 9.4 8.55 9.35 8.5 9.3 8.25 8.6 10.65 8.8 Q12.65 8.75 14.2 7.7 15.3 7.0 15.8 5.55 16.3 4.0 15.7 2.7 15.3 1.65 14.3 0.4" fill="#80cfff" fill-rule="evenodd" stroke="none"/>
    <path d="M-5.25 -2.6 L-4.15 -2.45 -4.05 -2.4 -4.0 -2.35 -3.9 -2.3 -3.8 -2.15 -3.75 -2.1 -3.6 -2.0 -3.25 -1.45 Q-3.25 -1.05 -3.4 -0.75 -3.65 -0.1 -4.45 -0.15 -5.2 -0.2 -5.6 -0.75 L-5.85 -1.35 -5.8 -2.25 -6.25 -1.45 -6.3 -0.55 -6.6 -1.3 -6.6 -1.55 -6.6 -2.1 -6.55 -2.15 -6.55 -2.35 -6.45 -2.65 -6.4 -2.75 -6.35 -2.85 -6.3 -2.95 -6.05 -3.4 Q-5.85 -2.6 -5.25 -2.6" fill="#78caff" fill-rule="evenodd" stroke="none"/>
    <path d="M-14.95 5.2 L-13.15 5.15 Q-12.8 5.45 -13.1 5.75 L-13.75 6.2 -13.0 6.1 -12.4 5.7 -12.35 6.7 -12.75 7.4 -13.5 7.7 -13.55 7.65 -13.65 7.55 -13.8 7.4 -14.15 7.15 Q-14.7 6.85 -14.6 6.55 L-14.35 5.95 Q-14.35 5.65 -14.5 5.5 L-14.95 5.2" fill="#78caff" fill-rule="evenodd" stroke="none"/>
    <path d="M-12.2 2.45 L-11.8 2.35 -11.6 2.05 -11.65 1.65 Q-11.75 1.5 -11.95 1.5 L-12.35 1.55 -12.6 1.9 -12.5 2.25 -12.2 2.45 M-10.7 -1.15 L-10.35 -1.25 -9.9 -1.4 -9.5 -1.5 -8.75 -1.5 -8.7 -1.5 -8.0 -1.35 -7.9 -1.25 -7.75 -1.25 -8.15 -1.05 Q-7.05 -0.8 -6.3 -0.05 -6.85 -0.05 -7.2 0.3 -7.55 0.65 -7.3 1.15 -7.3 0.7 -6.8 0.35 -6.25 0.05 -6.15 0.65 -5.65 3.1 -7.6 4.35 -9.3 5.45 -11.75 5.05 -11.4 4.35 -11.4 3.85 L-11.85 4.3 -12.05 4.85 Q-12.4 4.4 -12.4 3.75 L-12.25 2.5 -12.8 3.55 -12.85 4.75 -12.9 4.7 -13.0 4.6 -13.25 4.2 -13.35 4.05 -13.5 3.5 -13.55 3.15 -13.5 2.55 -13.45 2.05 -13.25 1.6 -12.95 0.95 -12.3 0.05 -11.95 -0.3 -11.05 -0.95 -10.7 -1.15 M-9.35 -0.5 Q-9.55 -0.85 -10.05 -0.85 L-11.1 -0.5 -11.85 0.3 Q-12.05 0.8 -11.8 1.15 -11.6 1.45 -11.05 1.45 L-10.05 1.1 -9.3 0.3 Q-9.1 -0.2 -9.35 -0.5" fill="#78caff" fill-rule="evenodd" stroke="none"/>
    <path d="M-12.05 4.85 L-11.85 4.3 -11.4 3.85 Q-11.4 4.35 -11.75 5.05 -9.3 5.45 -7.6 4.35 -5.65 3.1 -6.15 0.65 -6.25 0.05 -6.8 0.35 -7.3 0.7 -7.3 1.15 -7.55 0.65 -7.2 0.3 -6.85 -0.05 -6.3 -0.05 -7.05 -0.8 -8.15 -1.05 L-7.75 -1.25 -7.65 -1.2 -7.5 -1.1 -6.7 -0.6 -6.35 -0.3 -6.5 -0.8 -6.6 -1.3 -6.3 -0.55 -6.25 -1.45 -5.8 -2.25 -5.85 -1.35 -5.6 -0.75 Q-5.2 -0.2 -4.45 -0.15 -3.65 -0.1 -3.4 -0.75 -3.25 -1.05 -3.25 -1.45 L-2.6 -0.45 -2.6 -0.4 -2.5 -0.25 -2.45 -0.2 -2.35 -0.05 -2.15 0.2 -2.9 0.4 -6.0 0.3 Q-4.55 1.4 -4.6 2.95 -4.7 4.3 -5.9 5.5 -7.15 6.65 -8.75 6.9 -10.55 7.15 -11.95 6.1 -11.6 6.8 -11.5 7.75 L-11.65 9.4 -11.85 9.4 -12.05 9.35 -12.1 9.35 -12.25 9.25 -12.4 9.15 -12.7 8.85 -12.7 8.8 -12.85 8.65 -13.0 8.45 -13.3 7.95 -13.5 7.7 -12.75 7.4 -12.35 6.7 -12.4 5.7 -13.0 6.1 -13.75 6.2 -13.1 5.75 Q-12.8 5.45 -13.15 5.15 L-12.35 5.15 -12.65 4.95 -12.85 4.75 -12.8 3.55 -12.25 2.5 -12.4 3.75 Q-12.4 4.4 -12.05 4.85" fill="#4aafe5" fill-rule="evenodd" stroke="none"/>
    <path d="M-10.0 -1.4 L-10.7 -1.15 -11.05 -0.95 -11.95 -0.3 -12.3 0.05 -12.95 0.95 -13.25 1.6 -13.45 2.05 -13.55 2.85 -13.55 3.15 -13.5 3.5 -13.35 4.05 -13.25 4.2 -13.0 4.6 -12.9 4.7 -12.85 4.75 -12.65 4.95 -12.35 5.15 -13.95 5.15 -14.95 5.2 -14.5 5.5 Q-14.35 5.65 -14.35 5.95 L-14.6 6.55 Q-14.7 6.85 -14.15 7.15 L-13.8 7.4 -13.55 7.65 -13.0 8.45 -12.85 8.65 -12.7 8.8 -12.7 8.85 -12.4 9.15 -12.25 9.25 -12.1 9.35 -12.05 9.35 -11.85 9.4 -11.65 9.4 -11.5 7.75 Q-11.6 6.8 -11.95 6.1 -10.55 7.15 -8.75 6.9 -7.15 6.65 -5.9 5.5 -4.7 4.3 -4.6 2.95 -4.55 1.4 -6.0 0.3 L-2.9 0.4 -2.15 0.2 -2.35 -0.05 -2.45 -0.2 -2.5 -0.25 -2.6 -0.4 -2.6 -0.45 -3.6 -2.0 -3.75 -2.1 -3.8 -2.15 -3.9 -2.3 -4.0 -2.35 -4.05 -2.4 -4.15 -2.45 -5.25 -2.6 Q-5.85 -2.6 -6.05 -3.4 L-6.3 -2.95 -6.35 -2.85 -6.4 -2.75 -6.45 -2.65 -6.55 -2.35 -6.55 -2.15 -6.6 -2.1 -6.6 -1.55 -6.5 -0.8 -6.35 -0.3 -6.7 -0.6 -7.5 -1.1 -7.65 -1.2 -7.75 -1.25 -7.9 -1.25 -8.0 -1.35 -8.7 -1.5 -8.75 -1.5 -9.5 -1.5 -10.0 -1.4 M-12.55 -0.6 Q-11.5 -1.7 -10.05 -2.05 -8.5 -2.4 -7.1 -1.65 -7.2 -2.3 -6.9 -3.05 L-6.45 -3.8 -5.55 -3.95 -5.35 -3.2 -5.3 -3.05 -5.05 -3.05 -4.4 -3.0 -3.95 -2.95 -2.85 -1.8 -1.8 -0.25 -1.7 -0.05 -1.6 0.05 -1.5 0.35 Q-1.85 0.9 -2.95 1.0 L-4.65 0.9 Q-3.95 2.3 -4.3 3.85 -4.7 5.25 -5.85 6.3 -6.95 7.35 -8.4 7.6 -9.9 7.85 -11.25 6.95 -11.05 7.45 -10.95 8.45 -10.85 9.6 -11.15 9.8 L-12.15 9.9 -12.8 9.55 -13.2 9.05 -14.6 7.5 Q-15.45 6.5 -14.95 5.85 L-15.9 5.25 -15.85 4.75 -13.1 4.8 Q-14.1 3.45 -13.85 1.95 -13.65 0.55 -12.55 -0.6" fill="#2f85ab" fill-rule="evenodd" stroke="none"/>
    <path d="M-10.05 1.1 L-11.05 1.45 Q-11.6 1.45 -11.8 1.15 -12.05 0.8 -11.85 0.3 L-11.1 -0.5 -10.05 -0.85 Q-9.55 -0.85 -9.35 -0.5 -9.1 -0.2 -9.3 0.3 L-10.05 1.1" fill="#edf9ff" fill-rule="evenodd" stroke="none"/>
    <path d="M-11.8 2.35 L-12.2 2.45 -12.5 2.25 -12.6 1.9 -12.35 1.55 -11.95 1.5 Q-11.75 1.5 -11.65 1.65 L-11.6 2.05 -11.8 2.35" fill="#edf9ff" fill-rule="evenodd" stroke="none"/>
    <path d="M5.85 -0.1 Q5.4 0.3 5.4 0.8 5.4 1.35 5.85 1.7 L6.95 2.05 Q7.65 2.05 8.1 1.7 8.55 1.35 8.55 0.8 8.55 0.3 8.1 -0.1 7.65 -0.45 6.95 -0.45 L5.85 -0.1 M13.85 -3.55 L13.8 -3.5 13.7 -3.45 Q12.55 -3.15 12.25 -2.45 L12.25 -2.0 12.3 -1.4 11.25 -1.5 11.3 -1.45 11.8 -0.95 Q12.1 -0.65 12.45 -0.7 L12.5 -0.45 12.85 1.4 13.1 3.15 Q13.15 5.2 11.4 6.15 10.55 6.7 9.45 6.9 L9.5 6.85 9.85 6.65 9.9 6.6 10.2 6.35 10.9 5.75 10.95 5.65 11.15 5.4 11.2 5.3 11.4 5.05 11.65 4.65 11.85 4.25 11.85 4.2 Q12.65 2.45 12.1 0.6 L11.95 -0.15 12.0 0.25 12.0 0.75 12.0 0.9 12.0 1.05 11.9 1.65 11.75 2.25 11.55 2.95 11.3 3.5 11.1 3.75 11.05 3.9 10.15 5.05 9.7 5.45 9.3 5.75 8.55 6.2 8.5 6.2 8.05 6.4 7.95 6.4 7.45 6.55 7.4 6.55 7.15 6.6 6.9 6.65 10.25 1.55 7.95 3.95 Q6.65 5.35 6.05 6.55 4.8 6.1 3.95 5.2 L3.95 5.15 3.75 4.65 Q3.3 3.1 3.5 1.75 L3.95 0.5 Q4.5 -0.4 5.45 -0.8 L7.85 -1.3 10.65 -1.6 10.95 -1.7 11.4 -1.9 11.85 -2.35 12.5 -3.05 12.8 -3.4 13.85 -3.55" fill="#e99337" fill-rule="evenodd" stroke="none"/>
    <path d="M13.5 -3.2 L13.1 -2.75 Q12.65 -2.1 12.5 -1.1 L13.9 0.75 Q14.85 1.95 15.2 2.85 15.7 4.05 15.3 5.4 14.9 6.65 13.9 7.3 12.5 8.25 10.65 8.3 L9.3 8.25 8.1 8.15 6.65 7.75 5.6 7.25 5.15 6.95 4.85 6.65 4.35 5.95 4.1 5.55 4.1 5.5 3.95 5.2 Q4.8 6.1 6.05 6.55 6.65 5.35 7.95 3.95 L10.25 1.55 6.9 6.65 7.15 6.6 7.4 6.55 7.45 6.55 7.95 6.4 8.05 6.4 8.5 6.2 8.55 6.2 Q9.15 5.8 9.7 5.45 L10.15 5.05 10.6 4.5 11.3 3.5 11.55 2.95 11.75 2.25 12.0 1.05 12.0 0.9 12.0 0.75 12.0 0.25 11.95 -0.15 12.1 0.6 Q12.65 2.45 11.85 4.2 L11.85 4.25 11.65 4.65 11.4 5.05 11.2 5.3 11.15 5.4 10.95 5.65 10.9 5.75 10.2 6.35 9.9 6.6 9.85 6.65 9.5 6.85 9.45 6.9 Q10.55 6.7 11.4 6.15 13.15 5.2 13.1 3.15 L12.85 1.4 12.5 -0.45 12.45 -0.7 Q12.1 -0.65 11.8 -0.95 L11.3 -1.45 11.25 -1.5 12.3 -1.4 12.25 -2.0 12.25 -2.45 Q12.55 -3.15 13.7 -3.45 L13.5 -3.2" fill="#b0701b" fill-rule="evenodd" stroke="none"/>
    <path d="M15.05 -4.25 L15.15 -4.05 15.15 -4.0 15.15 -4.05 15.0 -3.75 15.0 -3.7 14.95 -3.7 14.8 -3.6 14.3 -3.25 13.9 -2.85 13.65 -2.55 13.2 -1.8 13.0 -1.3 14.3 0.4 Q15.3 1.65 15.7 2.7 16.3 4.0 15.8 5.55 15.3 7.0 14.2 7.7 12.65 8.75 10.65 8.8 L8.25 8.6 8.4 9.05 8.5 9.3 8.55 9.35 8.55 9.4 8.2 9.7 7.75 9.3 7.15 9.15 7.1 9.15 7.0 9.15 7.0 9.45 6.9 9.55 6.75 9.65 6.65 9.6 6.55 9.5 6.5 9.4 6.25 9.05 5.3 8.0 5.15 7.85 4.7 7.75 4.1 7.25 3.75 7.0 3.8 7.0 3.8 6.95 3.65 6.5 3.7 6.5 3.7 6.45 3.75 6.45 4.2 6.4 4.45 6.35 3.4 4.8 Q2.75 3.25 2.95 1.65 3.05 0.95 3.5 0.2 4.15 -0.8 5.2 -1.3 L7.8 -1.85 10.5 -2.1 11.0 -2.3 11.5 -2.75 12.1 -3.4 12.3 -3.65 12.65 -4.15 13.05 -4.4 13.3 -4.45 14.45 -4.5 Q14.85 -4.5 15.05 -4.25 M14.45 -4.0 L14.4 -4.0 13.45 -3.95 13.05 -3.85 12.5 -3.05 11.85 -2.35 11.4 -1.9 10.95 -1.7 10.65 -1.6 7.85 -1.3 5.45 -0.8 Q4.5 -0.4 3.95 0.5 L3.5 1.75 Q3.3 3.1 3.75 4.65 L3.95 5.15 4.1 5.5 4.1 5.55 4.35 5.95 4.85 6.65 5.15 6.95 5.6 7.25 6.65 7.75 8.1 8.15 9.3 8.25 10.65 8.3 Q12.5 8.25 13.9 7.3 14.9 6.65 15.3 5.4 15.7 4.05 15.2 2.85 14.85 1.95 13.9 0.75 L12.5 -1.1 Q12.65 -2.1 13.1 -2.75 L13.5 -3.2 13.8 -3.5 13.95 -3.65 14.45 -4.0" fill="#784810" fill-rule="evenodd" stroke="none"/>
    <path d="M13.85 -3.55 L12.8 -3.4 13.05 -3.85 13.45 -3.95 14.4 -4.0 14.45 -4.0 13.95 -3.65 13.85 -3.55" fill="#ffe9cc" fill-rule="evenodd" stroke="none"/>
    <path d="M5.4 0.8 Q5.4 0.3 5.85 -0.1 L6.95 -0.45 Q7.65 -0.45 8.1 -0.1 8.55 0.3 8.55 0.8 8.55 1.35 8.1 1.7 7.65 2.05 6.95 2.05 L5.85 1.7 Q5.4 1.35 5.4 0.8" fill="#ffe9cc" fill-rule="evenodd" stroke="none"/>
  </g>
</svg>
