<?xml version="1.0" encoding="UTF-8" standalone="no"?>
<svg xmlns:ffdec="https://www.free-decompiler.com/flash" xmlns:xlink="http://www.w3.org/1999/xlink" ffdec:objectType="shape" height="56.05px" width="49.4px" xmlns="http://www.w3.org/2000/svg">
  <g transform="matrix(1.0, 0.0, 0.0, 1.0, 17.9, 24.5)">
    <path d="M-13.45 -2.0 Q-8.7 -3.95 -6.55 -0.15 -4.8 3.0 -6.45 3.15 L-8.45 2.9 -11.05 2.5 -13.85 2.75 -16.0 3.35 Q-17.0 3.6 -17.35 3.35 -17.9 3.1 -17.9 2.0 -17.9 1.15 -16.6 -0.05 -15.25 -1.3 -13.45 -2.0" fill="#e4ae2b" fill-rule="evenodd" stroke="none"/>
    <path d="M-14.75 -0.8 L-13.45 -1.05 Q-12.9 -0.85 -12.8 -0.3 -12.45 1.15 -14.45 1.95 -16.3 2.7 -16.15 1.3 -16.0 -0.1 -14.75 -0.8" fill="#ffcc40" fill-rule="evenodd" stroke="none"/>
    <path d="M12.95 -2.15 Q14.85 -1.65 16.35 -0.6 17.8 0.45 17.9 1.25 18.0 2.4 17.55 2.7 L16.15 2.85 13.95 2.55 11.2 2.65 8.65 3.35 6.65 3.85 Q5.05 3.95 6.4 0.6 8.0 -3.45 12.95 -2.15" fill="#e4ae2b" fill-rule="evenodd" stroke="none"/>
    <path d="M15.05 -0.9 Q17.4 0.3 16.8 1.25 L14.15 1.4 Q12.35 0.7 12.9 -0.5 L13.75 -1.1 15.05 -0.9" fill="#ffcc40" fill-rule="evenodd" stroke="none"/>
    <path d="M-7.7 5.4 Q-7.4 0.85 -5.4 -2.55 -3.3 -6.15 -0.45 -6.2 2.75 -6.2 5.4 -2.7 7.9 0.6 8.5 5.05 9.15 9.75 7.25 12.9 5.05 16.55 0.0 16.7 -4.25 16.8 -6.3 13.3 -8.05 10.2 -7.7 5.4" fill="#e4ae2b" fill-rule="evenodd" stroke="none"/>
    <path d="M-5.8 0.8 Q-5.85 -0.7 -4.65 -1.95 -3.45 -3.2 -1.5 -3.45 1.9 -3.95 4.05 -2.65 5.9 -1.5 6.15 0.45 6.35 2.35 4.85 3.65 3.2 5.1 0.2 4.9 -2.8 4.7 -4.4 3.5 -5.8 2.4 -5.8 0.8" fill="#ffcc40" fill-rule="evenodd" stroke="none"/>
    <path d="M10.0 -8.3 Q9.7 -5.7 7.55 -4.05 4.7 -1.85 0.25 -1.65 -4.7 -1.45 -7.6 -4.35 -9.25 -6.0 -9.4 -8.65 -9.55 -11.1 -8.35 -13.6 -7.1 -16.1 -4.95 -17.65 -2.65 -19.3 0.1 -19.15 2.85 -19.05 5.3 -17.3 7.6 -15.7 8.9 -13.2 10.25 -10.7 10.0 -8.3" fill="#e4ae2b" fill-rule="evenodd" stroke="none"/>
    <path d="M8.35 -10.35 Q9.05 -8.4 8.15 -6.35 7.2 -4.2 4.7 -2.65 2.45 -1.25 0.15 -1.25 -2.5 -1.3 -4.9 -3.15 -6.9 -4.7 -7.75 -6.7 -8.55 -8.65 -8.0 -10.4 -7.4 -12.2 -5.55 -13.3 -3.5 -14.5 -0.35 -14.6 3.1 -14.7 5.45 -13.45 7.6 -12.3 8.35 -10.35" fill="#ffcc40" fill-rule="evenodd" stroke="none"/>
    <path d="M-7.0 -9.9 Q-5.85 -10.55 -5.1 -9.4 -4.35 -8.3 -5.45 -7.75 -6.95 -7.1 -7.5 -8.2 L-7.6 -9.1 -7.0 -9.9" fill="#231f20" fill-rule="evenodd" stroke="none"/>
    <path d="M-6.3 -9.75 Q-5.8 -9.95 -5.65 -9.5 -5.5 -9.05 -6.1 -8.95 -6.7 -8.9 -6.75 -9.2 L-6.3 -9.75" fill="#fdfdfd" fill-rule="evenodd" stroke="none"/>
    <path d="M5.85 -9.9 Q7.05 -10.55 7.75 -9.4 L8.0 -8.5 Q7.9 -8.0 7.4 -7.75 5.9 -7.1 5.35 -8.2 5.15 -8.65 5.25 -9.1 5.4 -9.65 5.85 -9.9" fill="#231f20" fill-rule="evenodd" stroke="none"/>
    <path d="M6.55 -9.75 Q7.05 -9.95 7.2 -9.5 7.4 -9.05 6.75 -8.95 6.15 -8.9 6.1 -9.2 L6.55 -9.75" fill="#fdfdfd" fill-rule="evenodd" stroke="none"/>
    <path d="M2.4 -8.5 L3.5 -6.7 2.25 -5.0 Q0.85 -3.3 0.0 -3.2 -0.65 -3.3 -2.25 -4.9 L-3.75 -6.5 -2.2 -8.4 Q-0.5 -10.35 0.25 -10.35 1.15 -10.35 2.4 -8.5" fill="#f59122" fill-rule="evenodd" stroke="none"/>
    <path d="M-2.45 -6.5 L-1.5 -7.05 0.0 -7.6 Q0.7 -7.6 2.1 -6.6 L1.35 -5.9 Q0.55 -5.2 0.0 -5.2 -0.5 -5.2 -1.5 -5.85 L-2.45 -6.5" fill="#ef5c27" fill-rule="evenodd" stroke="none"/>
    <path d="M0.15 -9.35 Q0.7 -9.5 0.9 -9.0 1.05 -8.45 0.65 -8.3 0.0 -8.1 -0.25 -8.65 -0.5 -9.2 0.15 -9.35" fill="#fdfdfd" fill-rule="evenodd" stroke="none"/>
    <path d="M0.9 -24.5 Q3.95 -24.45 7.1 -20.95 10.45 -17.3 11.8 -11.95 L6.65 -14.15 4.45 -11.45 -0.2 -13.95 -4.05 -10.85 -6.45 -14.15 -11.85 -10.85 Q-10.6 -16.45 -6.45 -20.6 -2.6 -24.55 0.9 -24.5" fill="#e3efc8" fill-rule="evenodd" stroke="none"/>
    <path d="M8.9 -18.4 L10.3 -15.85 Q11.2 -13.9 11.7 -11.85 L9.35 -12.95 Q9.6 -15.15 8.9 -18.4" fill="#bac698" fill-rule="evenodd" stroke="none"/>
    <path d="M0.8 -22.85 L2.4 -22.95 3.95 -21.95 Q4.65 -21.2 4.75 -20.45 4.85 -19.6 4.1 -19.05 2.6 -18.0 1.15 -20.1 0.6 -20.9 0.5 -21.7 0.35 -22.55 0.8 -22.85" fill="#fdfdfd" fill-rule="evenodd" stroke="none"/>
    <path d="M-4.05 -10.85 L-6.45 -14.15 -11.15 -11.3 -6.4 -14.95 -3.95 -11.65 -0.35 -14.6 4.15 -12.4 6.25 -15.05 11.8 -11.95 6.65 -14.15 4.45 -11.45 -0.2 -13.95 -4.05 -10.85" fill="#bac698" fill-rule="evenodd" stroke="none"/>
    <path d="M-11.85 8.1 L-6.45 4.8 -4.05 8.1 -0.2 5.05 4.45 7.55 6.65 4.8 11.8 7.05 Q12.85 11.2 12.45 15.5 12.0 19.5 8.45 22.0 5.2 24.3 0.7 24.4 -3.9 24.55 -7.3 22.25 -11.15 19.75 -12.0 15.1 -12.65 11.6 -11.85 8.1" fill="#e3efc8" fill-rule="evenodd" stroke="none"/>
    <path d="M9.5 6.1 L11.8 7.05 Q12.95 12.9 12.25 16.25 11.3 20.6 7.15 22.7 4.05 24.25 0.65 24.35 -2.6 24.45 -5.4 23.2 -8.25 21.9 -10.0 19.55 -11.8 17.05 -12.0 13.85 -9.6 17.9 -6.0 19.1 -2.7 20.15 0.8 18.65 4.2 17.2 6.6 13.9 9.1 10.4 9.5 6.1" fill="#bac698" fill-rule="evenodd" stroke="none"/>
    <path d="M-10.15 7.1 L-6.45 4.8 -4.05 8.1 -0.2 5.05 4.45 7.55 6.65 4.8 9.9 6.25 7.0 5.9 4.7 8.1 -0.15 5.9 -4.1 8.55 -6.6 5.6 -10.15 7.1" fill="#fdfdfd" fill-rule="evenodd" stroke="none"/>
    <path d="M29.15 15.1 Q29.15 9.55 25.25 5.65 21.3 1.7 15.75 1.7 10.2 1.7 6.3 5.65 2.4 9.55 2.4 15.1 2.4 20.65 6.3 24.6 10.2 28.5 15.75 28.5 21.3 28.5 25.25 24.6 29.15 20.65 29.15 15.1 M31.5 15.75 Q31.5 22.3 26.9 26.9 22.3 31.55 15.75 31.55 9.25 31.55 4.65 26.9 0.0 22.3 0.0 15.75 0.0 9.25 4.65 4.65 9.25 0.0 15.75 0.0 22.3 0.0 26.9 4.65 31.5 9.25 31.5 15.75" fill="#008546" fill-rule="evenodd" stroke="none"/>
    <path d="M29.15 15.1 Q29.15 20.65 25.25 24.6 21.3 28.5 15.75 28.5 10.2 28.5 6.3 24.6 2.4 20.65 2.4 15.1 2.4 9.55 6.3 5.65 10.2 1.7 15.75 1.7 21.3 1.7 25.25 5.65 29.15 9.55 29.15 15.1 M23.2 7.6 L13.8 17.0 7.8 11.0 3.55 15.25 13.8 25.55 27.45 11.85 23.2 7.6" fill="#6ee087" fill-rule="evenodd" stroke="none"/>
    <path d="M23.2 7.6 L27.45 11.85 13.8 25.55 3.55 15.25 7.8 11.0 13.8 17.0 23.2 7.6" fill="#ffffff" fill-rule="evenodd" stroke="none"/>
  </g>
</svg>
