<?xml version="1.0" encoding="UTF-8" standalone="no"?>
<svg xmlns:ffdec="https://www.free-decompiler.com/flash" xmlns:xlink="http://www.w3.org/1999/xlink" ffdec:objectType="shape" height="40.05px" width="38.5px" xmlns="http://www.w3.org/2000/svg">
  <g transform="matrix(1.0, 0.0, 0.0, 1.0, 19.25, 20.0)">
    <path d="M-13.6 -13.55 Q-8.0 -19.25 0.0 -19.25 7.95 -19.25 13.6 -13.55 19.25 -7.95 19.25 0.05 19.25 8.0 13.6 13.65 7.95 19.3 0.0 19.3 -8.0 19.3 -13.6 13.65 -19.25 8.0 -19.25 0.05 -19.25 -7.95 -13.6 -13.55" fill="#6edb87" fill-rule="evenodd" stroke="none"/>
    <path d="M-10.95 -1.6 Q-7.05 -3.2 -5.35 -0.05 -3.9 2.5 -5.2 2.6 L-6.9 2.4 -9.0 2.1 -11.3 2.3 -13.05 2.75 -14.15 2.8 Q-14.6 2.6 -14.6 1.65 -14.6 1.0 -13.55 0.0 -12.4 -1.0 -10.95 -1.6" fill="#e4ae2b" fill-rule="evenodd" stroke="none"/>
    <path d="M-12.05 -0.6 L-10.95 -0.8 Q-10.5 -0.65 -10.4 -0.2 -10.15 1.0 -11.75 1.65 -13.3 2.25 -13.15 1.1 -13.05 0.0 -12.05 -0.6" fill="#ffcc40" fill-rule="evenodd" stroke="none"/>
    <path d="M10.65 -1.7 Q12.2 -1.3 13.4 -0.45 14.65 0.4 14.7 1.1 14.8 2.0 14.4 2.25 L13.25 2.4 11.45 2.15 9.2 2.2 7.1 2.8 5.5 3.2 Q4.15 3.3 5.25 0.55 6.6 -2.8 10.65 -1.7" fill="#e4ae2b" fill-rule="evenodd" stroke="none"/>
    <path d="M12.35 -0.7 Q14.3 0.3 13.8 1.05 L11.65 1.2 Q10.15 0.6 10.6 -0.35 L11.3 -0.85 12.35 -0.7" fill="#ffcc40" fill-rule="evenodd" stroke="none"/>
    <path d="M-6.25 4.45 Q-6.0 0.75 -4.4 -2.05 -2.65 -5.0 -0.3 -5.0 2.3 -5.05 4.45 -2.15 6.5 0.55 7.0 4.2 7.55 8.05 5.95 10.6 4.15 13.55 0.05 13.7 -3.4 13.8 -5.1 10.9 -6.55 8.4 -6.25 4.45" fill="#e4ae2b" fill-rule="evenodd" stroke="none"/>
    <path d="M-4.7 0.7 Q-4.75 -0.55 -3.75 -1.55 -2.75 -2.55 -1.2 -2.8 1.6 -3.15 3.35 -2.1 4.9 -1.2 5.05 0.4 5.25 1.95 4.05 3.05 2.65 4.25 0.2 4.05 -2.25 3.9 -3.55 2.9 -4.7 2.0 -4.7 0.7" fill="#ffcc40" fill-rule="evenodd" stroke="none"/>
    <path d="M8.2 -6.75 Q8.0 -4.6 6.25 -3.25 3.9 -1.45 0.25 -1.3 -3.8 -1.15 -6.2 -3.5 -7.55 -4.85 -7.65 -7.05 -7.75 -9.05 -6.75 -11.1 -5.75 -13.15 -4.0 -14.4 -2.1 -15.75 0.1 -15.65 2.35 -15.55 4.4 -14.15 6.25 -12.8 7.35 -10.75 8.4 -8.7 8.2 -6.75" fill="#e4ae2b" fill-rule="evenodd" stroke="none"/>
    <path d="M6.85 -8.4 Q7.45 -6.8 6.7 -5.15 5.9 -3.4 3.9 -2.1 2.05 -1.0 0.15 -1.0 -2.0 -1.0 -3.95 -2.5 -5.6 -3.8 -6.3 -5.45 -6.95 -7.0 -6.5 -8.45 -6.05 -9.95 -4.5 -10.85 -2.85 -11.85 -0.25 -11.9 2.55 -12.0 4.5 -10.95 6.25 -10.0 6.85 -8.4" fill="#ffcc40" fill-rule="evenodd" stroke="none"/>
    <path d="M-5.7 -8.05 Q-4.75 -8.55 -4.1 -7.65 -3.55 -6.75 -4.4 -6.3 -5.65 -5.75 -6.1 -6.65 L-6.2 -7.4 -5.7 -8.05" fill="#231f20" fill-rule="evenodd" stroke="none"/>
    <path d="M-5.1 -7.95 Q-4.7 -8.1 -4.55 -7.75 -4.45 -7.4 -4.95 -7.3 -5.45 -7.2 -5.45 -7.5 L-5.1 -7.95" fill="#fdfdfd" fill-rule="evenodd" stroke="none"/>
    <path d="M4.85 -8.05 Q5.8 -8.6 6.4 -7.65 L6.6 -6.9 6.1 -6.3 Q4.9 -5.75 4.45 -6.65 4.25 -7.05 4.35 -7.4 L4.85 -8.05" fill="#231f20" fill-rule="evenodd" stroke="none"/>
    <path d="M5.4 -7.95 Q5.8 -8.1 5.95 -7.75 6.1 -7.4 5.6 -7.3 5.1 -7.2 5.05 -7.5 L5.4 -7.95" fill="#fdfdfd" fill-rule="evenodd" stroke="none"/>
    <path d="M2.0 -6.9 L2.9 -5.4 1.9 -4.05 Q0.7 -2.65 0.05 -2.6 -0.45 -2.65 -1.8 -3.95 L-3.0 -5.25 -1.75 -6.85 Q-0.35 -8.4 0.25 -8.4 1.0 -8.4 2.0 -6.9" fill="#f59122" fill-rule="evenodd" stroke="none"/>
    <path d="M-1.95 -5.25 L-1.15 -5.75 0.05 -6.2 Q0.65 -6.2 1.75 -5.35 L1.15 -4.75 Q0.5 -4.2 0.05 -4.2 -0.35 -4.2 -1.2 -4.75 L-1.95 -5.25" fill="#ef5c27" fill-rule="evenodd" stroke="none"/>
    <path d="M0.15 -7.6 Q0.65 -7.75 0.8 -7.3 0.9 -6.9 0.55 -6.75 0.05 -6.6 -0.15 -7.05 -0.35 -7.5 0.15 -7.6" fill="#fdfdfd" fill-rule="evenodd" stroke="none"/>
    <path d="M0.75 -20.0 Q3.25 -19.95 5.85 -17.1 8.6 -14.1 9.7 -9.75 L5.5 -11.55 3.7 -9.3 -0.15 -11.35 -3.25 -8.85 -5.25 -11.55 -9.65 -8.85 Q-8.65 -13.4 -5.25 -16.85 -2.05 -20.05 0.75 -20.0" fill="#e3efc8" fill-rule="evenodd" stroke="none"/>
    <path d="M7.3 -15.0 L8.5 -12.95 9.65 -9.65 7.7 -10.55 Q7.9 -12.35 7.3 -15.0" fill="#bac698" fill-rule="evenodd" stroke="none"/>
    <path d="M0.7 -18.65 L2.0 -18.75 Q2.7 -18.5 3.25 -17.9 3.85 -17.3 3.95 -16.7 4.05 -16.0 3.4 -15.55 2.2 -14.7 1.0 -16.4 0.55 -17.05 0.45 -17.7 0.35 -18.4 0.7 -18.65" fill="#fdfdfd" fill-rule="evenodd" stroke="none"/>
    <path d="M-3.25 -8.85 L-5.25 -11.55 -9.05 -9.2 -5.2 -12.15 -3.2 -9.45 -0.25 -11.9 3.45 -10.1 5.15 -12.25 9.7 -9.75 5.5 -11.55 3.7 -9.3 -0.15 -11.35 -3.25 -8.85" fill="#bac698" fill-rule="evenodd" stroke="none"/>
    <path d="M-9.65 6.7 L-5.25 4.0 -3.25 6.65 -0.15 4.15 3.7 6.2 5.5 4.0 9.7 5.8 Q10.6 9.2 10.2 12.7 9.85 16.0 6.95 18.05 4.3 19.95 0.6 20.05 -3.15 20.1 -5.95 18.25 -9.05 16.2 -9.75 12.4 -10.3 9.55 -9.65 6.7" fill="#e3efc8" fill-rule="evenodd" stroke="none"/>
    <path d="M7.85 5.05 L9.7 5.8 Q10.65 10.6 10.05 13.35 9.3 16.9 5.9 18.6 3.35 19.9 0.55 19.95 -2.05 20.05 -4.4 19.0 -6.7 17.95 -8.1 16.05 -9.6 14.0 -9.8 11.35 -7.8 14.7 -4.85 15.65 -2.15 16.55 0.7 15.3 3.5 14.1 5.45 11.4 7.45 8.55 7.85 5.05" fill="#bac698" fill-rule="evenodd" stroke="none"/>
    <path d="M-8.25 5.85 L-5.25 4.0 -3.25 6.65 -0.15 4.15 3.7 6.2 5.5 4.0 8.15 5.15 5.8 4.9 3.9 6.65 -0.05 4.9 -3.3 7.05 -5.35 4.6 -8.25 5.85" fill="#fdfdfd" fill-rule="evenodd" stroke="none"/>
  </g>
</svg>
