<?xml version="1.0" encoding="UTF-8" standalone="no"?>
<svg xmlns:ffdec="https://www.free-decompiler.com/flash" xmlns:xlink="http://www.w3.org/1999/xlink" ffdec:objectType="shape" height="57.6px" width="57.6px" xmlns="http://www.w3.org/2000/svg">
  <g transform="matrix(1.0, 0.0, 0.0, 1.0, 28.8, 28.8)">
    <path d="M20.35 -20.4 Q28.8 -11.95 28.8 0.0 28.8 11.9 20.35 20.35 11.95 28.8 0.0 28.8 -11.95 28.8 -20.4 20.35 -28.8 11.9 -28.8 0.0 -28.8 -11.95 -20.4 -20.4 -11.95 -28.8 0.0 -28.8 11.95 -28.8 20.35 -20.4" fill="#68addb" fill-rule="evenodd" stroke="none"/>
    <path d="M6.6 4.55 Q8.5 1.8 7.95 -1.45 7.4 -4.75 4.6 -6.7 1.9 -8.6 -1.4 -8.0 -4.7 -7.45 -6.6 -4.7 -8.5 -1.95 -7.95 1.35 -7.35 4.65 -4.65 6.55 -1.9 8.45 1.4 7.9 4.7 7.3 6.6 4.55 M15.4 -6.1 Q18.65 -3.1 20.15 -0.05 18.65 2.95 15.4 6.0 8.8 12.05 0.0 12.05 -8.8 12.05 -15.35 6.0 -18.6 2.95 -20.15 -0.05 -18.6 -3.1 -15.35 -6.1 -8.8 -12.15 0.0 -12.15 8.8 -12.15 15.4 -6.1" fill="#ffffff" fill-rule="evenodd" stroke="none"/>
  </g>
</svg>
