<?xml version="1.0" encoding="UTF-8" standalone="no"?>
<svg xmlns:ffdec="https://www.free-decompiler.com/flash" xmlns:xlink="http://www.w3.org/1999/xlink" ffdec:objectType="shape" height="61.2px" width="61.2px" xmlns="http://www.w3.org/2000/svg">
  <g transform="matrix(1.0, 0.0, 0.0, 1.0, 30.6, 30.6)">
    <path d="M21.6 -21.7 Q30.6 -12.7 30.6 0.0 30.6 12.65 21.6 21.6 12.7 30.6 0.0 30.6 -12.7 30.6 -21.7 21.6 -30.6 12.65 -30.6 0.0 -30.6 -12.7 -21.7 -21.7 -12.7 -30.6 0.0 -30.6 12.7 -30.6 21.6 -21.7" fill="#82c893" fill-rule="evenodd" stroke="none"/>
    <path d="M14.1 -11.1 L16.15 -11.05 16.15 18.15 -10.9 18.15 -15.85 13.2 -15.85 -16.0 11.3 -16.0 11.3 13.2 -12.3 13.2 -9.45 16.0 14.1 16.0 14.1 -11.1" fill="#ffffff" fill-rule="evenodd" stroke="none"/>
  </g>
</svg>
