<?xml version="1.0" encoding="UTF-8" standalone="no"?>
<svg xmlns:ffdec="https://www.free-decompiler.com/flash" xmlns:xlink="http://www.w3.org/1999/xlink" ffdec:objectType="shape" height="60.0px" width="60.0px" xmlns="http://www.w3.org/2000/svg">
  <g transform="matrix(1.0, 0.0, 0.0, 1.0, 30.0, 30.0)">
    <path d="M21.2 -21.25 Q30.0 -12.45 30.0 0.0 30.0 12.4 21.2 21.2 12.45 30.0 0.0 30.0 -12.45 30.0 -21.25 21.2 -30.0 12.4 -30.0 0.0 -30.0 -12.45 -21.25 -21.25 -12.45 -30.0 0.0 -30.0 12.45 -30.0 21.2 -21.25" fill="#f5957d" fill-rule="evenodd" stroke="none"/>
    <path d="M0.0 -4.65 Q-1.95 -4.65 -3.3 -3.3 -4.65 -1.95 -4.65 0.0 -4.65 1.9 -3.3 3.3 -1.95 4.65 0.0 4.65 1.9 4.65 3.25 3.3 4.6 1.9 4.6 0.0 4.6 -1.95 3.25 -3.3 1.9 -4.65 0.0 -4.65 M14.65 -6.0 L15.75 -2.05 19.2 -1.6 19.15 1.7 15.75 2.15 14.65 6.1 17.4 8.2 15.75 11.0 12.6 9.7 9.7 12.65 11.0 15.8 8.2 17.45 6.1 14.7 2.1 15.8 1.7 19.2 -1.6 19.2 -2.05 15.8 -6.0 14.75 -8.1 17.45 -10.95 15.85 -9.65 12.65 -12.55 9.75 -15.75 11.05 -17.4 8.25 -14.65 6.15 -15.7 2.15 -19.2 1.7 -19.2 -1.55 -15.7 -2.0 -14.65 -6.0 -17.45 -8.15 -15.85 -10.9 -12.55 -9.55 -9.65 -12.5 -11.05 -15.8 -8.25 -17.4 -6.05 -14.55 -2.05 -15.65 -1.6 -19.2 1.6 -19.2 2.05 -15.65 6.05 -14.6 8.2 -17.4 11.0 -15.8 9.65 -12.55 12.6 -9.6 15.8 -10.95 17.45 -8.1 14.65 -6.0" fill="#ffffff" fill-rule="evenodd" stroke="none"/>
  </g>
</svg>
