<?xml version="1.0" encoding="UTF-8" standalone="no"?>
<svg xmlns:ffdec="https://www.free-decompiler.com/flash" xmlns:xlink="http://www.w3.org/1999/xlink" ffdec:objectType="shape" height="61.1px" width="57.05px" xmlns="http://www.w3.org/2000/svg">
  <g transform="matrix(1.0, 0.0, 0.0, 1.0, 28.55, 30.55)">
    <path d="M20.25 -12.85 L10.9 -22.2 0.0 -11.25 -10.95 -22.2 -20.3 -12.85 -9.35 -1.9 -20.3 8.95 -10.95 18.3 0.0 7.45 10.9 18.3 20.25 8.95 9.35 -1.9 20.25 -12.85 M-28.5 0.0 L-28.55 -2.05 Q-28.55 -13.8 -20.2 -22.2 -11.8 -30.55 0.0 -30.55 11.75 -30.55 20.15 -22.2 28.5 -13.8 28.5 -2.05 L28.45 0.0 Q27.75 10.45 20.15 18.15 11.75 26.5 0.0 26.5 -11.8 26.5 -20.2 18.15 -27.85 10.45 -28.5 0.0" fill="#ec1c24" fill-rule="evenodd" stroke="none"/>
    <path d="M20.25 -12.85 L9.35 -1.9 20.25 8.95 10.9 18.3 0.0 7.45 -10.95 18.3 -20.3 8.95 -9.35 -1.9 -20.3 -12.85 -10.95 -22.2 0.0 -11.25 10.9 -22.2 20.25 -12.85" fill="#ffffff" fill-rule="evenodd" stroke="none"/>
    <path d="M28.45 0.0 L28.5 2.0 Q28.5 13.8 20.15 22.15 11.75 30.55 0.0 30.55 -11.8 30.55 -20.2 22.15 -28.55 13.8 -28.55 2.0 L-28.5 0.0 Q-27.85 10.45 -20.2 18.15 -11.8 26.5 0.0 26.5 11.75 26.5 20.15 18.15 27.75 10.45 28.45 0.0" fill="#231f20" fill-rule="evenodd" stroke="none"/>
  </g>
</svg>
