<?xml version="1.0" encoding="UTF-8" standalone="no"?>
<svg xmlns:ffdec="https://www.free-decompiler.com/flash" xmlns:xlink="http://www.w3.org/1999/xlink" ffdec:objectType="shape" height="22.6px" width="44.2px" xmlns="http://www.w3.org/2000/svg">
  <g transform="matrix(1.0, 0.0, 0.0, 1.0, 22.1, 11.3)">
    <path d="M-14.2 -1.9 Q-16.65 -1.9 -18.05 -0.25 -19.4 1.25 -19.4 3.65 -19.4 6.15 -17.95 7.7 -16.5 9.15 -14.3 9.15 -12.85 9.15 -11.0 8.45 L-10.55 10.45 Q-12.25 11.3 -14.8 11.3 -18.1 11.3 -20.1 9.2 -22.1 7.15 -22.1 3.75 -22.1 0.35 -19.95 -1.85 -17.75 -4.05 -14.2 -4.05 -12.1 -4.05 -10.5 -3.3 L-11.1 -1.2 Q-12.25 -1.9 -14.2 -1.9 M16.45 -10.6 Q17.45 -11.3 19.0 -11.3 20.3 -11.3 21.05 -10.6 21.75 -9.95 21.75 -9.0 21.75 -7.4 19.95 -6.75 L19.95 -6.7 Q20.9 -6.55 21.5 -5.9 22.1 -5.25 22.1 -4.25 22.1 -3.0 21.2 -2.2 20.25 -1.35 18.6 -1.35 17.1 -1.35 16.1 -2.0 L16.45 -3.0 Q17.3 -2.4 18.55 -2.4 19.7 -2.4 20.3 -3.0 20.75 -3.5 20.75 -4.25 20.75 -5.2 19.95 -5.75 L18.25 -6.2 17.55 -6.2 17.55 -7.2 18.25 -7.2 Q19.1 -7.2 19.7 -7.55 20.4 -8.0 20.4 -8.8 20.4 -10.25 18.7 -10.25 17.75 -10.25 16.8 -9.65 L16.45 -10.6 M2.25 -3.25 Q3.3 -2.45 3.8 -1.15 L3.85 -1.15 Q4.5 -2.3 5.5 -3.05 6.95 -4.1 8.75 -4.1 10.6 -4.1 11.9 -2.8 13.6 -1.15 13.6 2.3 L13.6 11.0 11.0 11.0 11.0 2.65 Q11.0 -1.9 7.8 -1.9 6.7 -1.9 5.8 -1.15 5.0 -0.5 4.6 0.55 L4.4 1.9 4.4 11.0 1.8 11.0 1.8 2.15 Q1.8 0.35 1.0 -0.75 0.2 -1.9 -1.3 -1.9 -2.45 -1.9 -3.4 -1.05 -4.25 -0.3 -4.6 0.8 L-4.8 2.1 -4.8 11.0 -7.45 11.0 -7.45 0.25 -7.55 -3.75 -5.2 -3.75 -5.1 -1.35 -5.0 -1.35 Q-3.35 -4.1 -0.35 -4.1 1.1 -4.1 2.25 -3.25" fill="#030303" fill-rule="evenodd" stroke="none"/>
  </g>
</svg>
