<?xml version="1.0" encoding="UTF-8" standalone="no"?>
<svg xmlns:ffdec="https://www.free-decompiler.com/flash" xmlns:xlink="http://www.w3.org/1999/xlink" ffdec:objectType="shape" height="400.0px" width="640.0px" xmlns="http://www.w3.org/2000/svg">
  <g transform="matrix(1.0, 0.0, 0.0, 1.0, 320.0, 200.0)">
    <path d="M320.0 200.0 L-320.0 200.0 -320.0 -200.0 320.0 -200.0 320.0 200.0" fill="url(#gradient0)" fill-rule="evenodd" stroke="none"/>
    <path d="M2.65 -101.05 Q14.0 -83.7 17.9 -73.4 25.15 -53.65 14.35 -44.35 6.9 -37.85 -7.6 -35.5 -24.0 -33.7 -31.2 -32.2 -41.45 -30.0 -45.8 -22.9 -50.65 -14.85 -41.85 -6.4 -33.7 1.45 -13.55 -5.35 L2.45 -11.5 Q11.45 -14.95 15.9 -15.6 30.8 -17.75 39.1 -1.1 46.55 13.85 44.85 35.05 42.95 56.9 32.35 68.9 20.1 82.75 1.05 76.4 -14.65 71.15 -19.0 70.9 -30.45 70.75 -30.95 84.5 -31.3 96.5 -14.3 97.6 L-0.55 97.85 Q7.4 97.85 10.4 99.35 20.85 104.2 1.75 127.6 -14.45 147.25 -24.8 153.5 -37.35 161.0 -56.9 161.2 L-90.25 158.8 -180.45 152.95 Q-241.4 148.95 -247.25 146.05 -252.35 143.5 -253.75 131.15 -254.35 125.2 -254.4 105.8 -254.25 89.05 -255.9 81.7 -258.25 70.85 -265.3 70.35 -276.4 69.5 -281.4 103.75 -284.35 122.95 -285.9 128.7 -288.95 140.75 -294.6 142.5 -298.15 143.65 -320.0 142.45 L-320.0 -200.0 -261.8 -200.0 Q-260.35 -182.2 -260.95 -156.3 -261.65 -130.8 -260.6 -121.5 -258.85 -106.6 -252.05 -106.05 -245.25 -105.55 -241.45 -120.05 -239.0 -129.15 -235.75 -154.4 -232.35 -182.0 -227.95 -200.0 L-96.45 -200.0 Q-88.0 -190.45 -86.75 -180.6 -85.55 -171.1 -95.05 -161.55 L-111.35 -147.95 Q-119.8 -140.25 -117.3 -128.6 -114.65 -116.7 -102.05 -118.85 -94.3 -120.2 -84.9 -133.25 -73.8 -148.65 -69.45 -151.5 -51.35 -163.2 -27.6 -140.25 -15.5 -128.6 2.65 -101.05" fill="#ffffff" fill-opacity="0.2" fill-rule="evenodd" stroke="none"/>
  </g>
  <defs>
    <linearGradient color-interpolation="linearRGB" gradientTransform="matrix(0.0, 0.1344, -0.9986, 0.0, 13.95, 80.0)" gradientUnits="userSpaceOnUse" id="gradient0" spreadMethod="pad" x1="-819.2" x2="819.2">
      <stop offset="0.2196078431372549" stop-color="#666666"/>
      <stop offset="1.0" stop-color="#cccccc"/>
    </linearGradient>
  </defs>
</svg>
