<?xml version="1.0" encoding="UTF-8" standalone="no"?>
<svg xmlns:ffdec="https://www.free-decompiler.com/flash" xmlns:xlink="http://www.w3.org/1999/xlink" ffdec:objectType="shape" height="231.4px" width="128.0px" xmlns="http://www.w3.org/2000/svg">
  <g transform="matrix(1.0, 0.0, 0.0, 1.0, 64.0, 75.25)">
    <path d="M40.85 -60.15 Q40.85 -63.65 43.3 -66.1 45.75 -68.55 49.25 -68.55 52.75 -68.55 55.2 -66.1 57.65 -63.65 57.65 -60.15 57.65 -56.65 55.2 -54.2 54.0 -53.0 52.6 -52.4 56.55 -51.55 59.65 -48.45 63.7 -44.4 63.95 -38.85 L63.95 -38.6 64.0 -38.6 64.0 156.15 -64.0 156.15 -64.0 -20.9 -64.0 -21.15 -64.0 -22.15 -64.0 -22.3 -64.0 -23.3 -64.0 -23.45 -64.0 -24.7 -64.0 -24.9 -64.0 -25.25 -64.0 -25.35 -64.0 -28.45 -64.0 -28.7 -64.0 -30.85 -64.0 -31.0 -64.0 -32.5 -64.0 -32.6 -64.0 -33.1 -64.0 -33.25 -64.0 -33.6 -64.0 -33.75 -64.0 -33.85 -64.0 -34.5 -64.0 -34.6 -64.0 -35.35 -64.0 -35.45 -64.0 -35.9 -64.0 -36.0 -64.0 -36.25 -64.0 -36.35 -64.0 -36.65 -64.0 -36.7 -64.0 -36.85 -64.0 -37.3 -64.0 -37.45 -64.0 -37.8 -64.0 -37.95 -64.0 -38.05 -64.0 -38.6 -64.0 -38.95 -64.0 -39.1 -64.0 -39.4 -64.0 -40.05 -64.0 -40.2 -64.0 -40.45 -64.0 -40.5 -64.0 -40.65 -64.0 -40.95 -64.0 -41.1 -64.0 -41.25 -64.0 -41.35 -64.0 -41.45 -64.0 -41.7 -64.0 -42.0 -64.0 -42.25 -64.0 -42.3 -64.0 -42.75 -64.0 -43.3 -64.0 -43.6 -64.0 -43.7 -64.0 -43.95 -64.0 -44.25 -64.0 -44.55 -64.0 -44.75 -64.0 -45.0 -64.0 -45.3 -64.0 -45.6 -63.95 -45.6 Q-63.75 -51.15 -59.75 -55.2 -56.65 -58.3 -52.6 -59.15 -54.05 -59.75 -55.25 -60.95 -57.7 -63.4 -57.7 -66.9 -57.7 -70.4 -55.25 -72.85 -52.8 -75.25 -49.3 -75.25 -45.8 -75.25 -43.35 -72.85 -40.9 -70.4 -40.9 -66.9 -40.9 -63.4 -43.35 -60.95 -44.55 -59.75 -45.95 -59.15 -42.0 -58.3 -38.9 -55.2 -34.95 -51.25 -34.55 -45.85 -32.25 -47.95 -29.3 -48.55 -30.45 -49.05 -31.45 -50.0 -33.4 -51.95 -33.4 -54.75 -33.4 -57.55 -31.45 -59.55 -29.45 -61.5 -26.65 -61.5 -23.85 -61.5 -21.9 -59.55 -20.0 -57.55 -20.0 -54.75 -20.0 -51.95 -21.9 -50.0 -22.85 -49.05 -24.0 -48.55 -20.9 -47.9 -18.4 -45.4 -17.2 -44.2 -16.45 -42.9 -15.55 -46.75 -12.55 -49.8 -9.45 -52.9 -5.4 -53.75 -6.85 -54.35 -8.05 -55.55 -10.5 -58.0 -10.5 -61.5 -10.5 -65.0 -8.05 -67.45 -5.6 -69.9 -2.1 -69.9 1.4 -69.9 3.85 -67.45 6.3 -65.0 6.3 -61.5 6.3 -58.0 3.85 -55.55 2.65 -54.35 1.25 -53.75 5.2 -52.9 8.3 -49.8 11.05 -47.05 12.05 -43.65 12.95 -46.85 15.45 -49.4 18.25 -52.15 21.8 -52.95 20.55 -53.45 19.5 -54.55 17.3 -56.75 17.3 -59.9 17.3 -63.05 19.5 -65.25 21.65 -67.45 24.8 -67.45 27.95 -67.45 30.15 -65.25 32.35 -63.05 32.35 -59.9 32.35 -56.75 30.15 -54.55 29.05 -53.45 27.8 -52.95 31.35 -52.15 34.15 -49.4 35.8 -47.75 36.75 -45.85 37.6 -47.25 38.8 -48.45 41.9 -51.55 45.95 -52.4 44.5 -53.0 43.3 -54.2 40.85 -56.65 40.85 -60.15" fill="#155773" fill-rule="evenodd" stroke="none"/>
  </g>
</svg>
