<?xml version="1.0" encoding="UTF-8" standalone="no"?>
<svg xmlns:ffdec="https://www.free-decompiler.com/flash" xmlns:xlink="http://www.w3.org/1999/xlink" ffdec:objectType="shape" height="61.0px" width="566.5px" xmlns="http://www.w3.org/2000/svg">
  <g transform="matrix(1.0, 0.0, 0.0, 1.0, 283.25, -50.1)">
    <path d="M261.25 82.1 L-264.75 78.1 -264.75 60.1 266.25 56.1 261.25 82.1" fill="#eb68a1" fill-rule="evenodd" stroke="none"/>
    <path d="M280.25 111.1 L-276.75 111.1 -276.75 89.1 278.25 85.1 280.25 111.1" fill="#eb68a1" fill-rule="evenodd" stroke="none"/>
    <path d="M267.65 63.1 L-268.2 61.1 -271.25 50.1 272.75 50.1 267.65 63.1" fill="#676d73" fill-rule="evenodd" stroke="none"/>
    <path d="M283.25 88.75 L-281.25 89.1 -283.25 78.1 282.75 79.7 283.25 88.75" fill="#676d73" fill-rule="evenodd" stroke="none"/>
    <path d="M-241.8 69.1 Q-241.8 71.45 -243.45 73.15 -245.15 74.8 -247.5 74.8 -249.85 74.8 -251.5 73.15 -253.15 71.45 -253.15 69.1 -253.15 66.75 -251.5 65.1 -249.85 63.45 -247.5 63.45 -245.15 63.45 -243.45 65.1 -241.8 66.75 -241.8 69.1" fill="#fcfeb4" fill-rule="evenodd" stroke="none"/>
    <path d="M-209.5 69.1 Q-209.5 71.45 -211.15 73.15 -212.8 74.8 -215.15 74.8 -217.5 74.8 -219.2 73.15 -220.85 71.45 -220.85 69.1 -220.85 66.75 -219.2 65.1 -217.5 63.45 -215.15 63.45 -212.8 63.45 -211.15 65.1 -209.5 66.8 -209.5 69.1" fill="#fcfeb4" fill-rule="evenodd" stroke="none"/>
    <path d="M-169.5 69.1 Q-169.5 71.45 -171.15 73.15 -172.8 74.8 -175.15 74.8 -177.5 74.8 -179.2 73.15 -180.85 71.45 -180.85 69.1 -180.85 66.75 -179.2 65.1 -177.5 63.45 -175.15 63.45 -172.8 63.45 -171.15 65.1 -169.5 66.8 -169.5 69.1" fill="#fcfeb4" fill-rule="evenodd" stroke="none"/>
    <path d="M-117.5 69.1 Q-117.5 71.45 -119.15 73.15 -120.8 74.8 -123.15 74.8 -125.5 74.8 -127.2 73.15 -128.85 71.45 -128.85 69.1 -128.85 66.75 -127.2 65.1 -125.5 63.45 -123.15 63.45 -120.8 63.45 -119.15 65.1 -117.5 66.8 -117.5 69.1" fill="#fcfeb4" fill-rule="evenodd" stroke="none"/>
    <path d="M-49.5 69.1 Q-49.5 71.45 -51.15 73.15 -52.8 74.8 -55.15 74.8 -57.5 74.8 -59.2 73.15 -60.85 71.45 -60.85 69.1 -60.85 66.75 -59.2 65.1 -57.5 63.45 -55.15 63.45 -52.8 63.45 -51.15 65.1 -49.5 66.8 -49.5 69.1" fill="#fcfeb4" fill-rule="evenodd" stroke="none"/>
    <path d="M57.5 69.1 Q57.5 71.45 55.85 73.15 54.2 74.8 51.85 74.8 49.5 74.8 47.8 73.15 46.15 71.45 46.15 69.1 46.15 66.75 47.8 65.1 49.5 63.45 51.85 63.45 54.2 63.45 55.85 65.1 57.5 66.8 57.5 69.1" fill="#fcfeb4" fill-rule="evenodd" stroke="none"/>
    <path d="M131.5 69.1 Q131.5 71.45 129.85 73.15 128.2 74.8 125.85 74.8 123.5 74.8 121.8 73.15 120.15 71.45 120.15 69.1 120.15 66.75 121.8 65.1 123.5 63.45 125.85 63.45 128.2 63.45 129.85 65.1 131.5 66.8 131.5 69.1" fill="#fcfeb4" fill-rule="evenodd" stroke="none"/>
    <path d="M179.9 69.1 Q179.9 71.45 178.25 73.15 176.55 74.8 174.2 74.8 171.85 74.8 170.15 73.15 168.5 71.45 168.5 69.1 168.5 66.75 170.15 65.1 171.85 63.45 174.2 63.45 176.55 63.45 178.25 65.1 179.9 66.75 179.9 69.1" fill="#fcfeb4" fill-rule="evenodd" stroke="none"/>
    <path d="M219.5 69.1 Q219.5 71.45 217.85 73.15 216.2 74.8 213.85 74.8 211.5 74.8 209.8 73.15 208.15 71.45 208.15 69.1 208.15 66.75 209.8 65.1 211.5 63.45 213.85 63.45 216.2 63.45 217.85 65.1 219.5 66.8 219.5 69.1" fill="#fcfeb4" fill-rule="evenodd" stroke="none"/>
    <path d="M253.2 69.1 Q253.2 71.45 251.55 73.15 249.85 74.8 247.5 74.8 245.15 74.8 243.5 73.15 241.85 71.45 241.85 69.1 241.85 66.75 243.5 65.1 245.15 63.45 247.5 63.45 249.85 63.45 251.55 65.1 253.2 66.75 253.2 69.1" fill="#fcfeb4" fill-rule="evenodd" stroke="none"/>
    <path d="M-225.95 99.1 Q-225.95 101.45 -227.6 103.15 -229.25 104.8 -231.6 104.8 -233.95 104.8 -235.65 103.15 -237.3 101.45 -237.3 99.1 -237.3 96.75 -235.65 95.1 -233.95 93.45 -231.6 93.45 -229.25 93.45 -227.6 95.1 -225.95 96.8 -225.95 99.1" fill="#fcfeb4" fill-rule="evenodd" stroke="none"/>
    <path d="M-264.35 95.1 Q-262.65 93.45 -260.3 93.45 -257.95 93.45 -256.25 95.1 -254.6 96.75 -254.6 99.1 -254.6 101.45 -256.25 103.15 -257.95 104.8 -260.3 104.8 -262.65 104.8 -264.35 103.15 -266.0 101.45 -266.0 99.1 -266.0 96.75 -264.35 95.1" fill="#fcfeb4" fill-rule="evenodd" stroke="none"/>
    <path d="M-184.95 99.1 Q-184.95 101.45 -186.6 103.15 -188.25 104.8 -190.6 104.8 -192.95 104.8 -194.65 103.15 -196.3 101.45 -196.3 99.1 -196.3 96.75 -194.65 95.1 -192.95 93.45 -190.6 93.45 -188.25 93.45 -186.6 95.1 -184.95 96.8 -184.95 99.1" fill="#fcfeb4" fill-rule="evenodd" stroke="none"/>
    <path d="M-132.95 99.1 Q-132.95 101.45 -134.6 103.15 -136.25 104.8 -138.6 104.8 -140.95 104.8 -142.65 103.15 -144.3 101.45 -144.3 99.1 -144.3 96.75 -142.65 95.1 -140.95 93.45 -138.6 93.45 -136.25 93.45 -134.6 95.1 -132.95 96.8 -132.95 99.1" fill="#fcfeb4" fill-rule="evenodd" stroke="none"/>
    <path d="M-72.6 99.1 Q-72.6 101.45 -74.25 103.15 -75.95 104.8 -78.3 104.8 -80.65 104.8 -82.35 103.15 -84.0 101.45 -84.0 99.1 -84.0 96.75 -82.35 95.1 -80.65 93.45 -78.3 93.45 -75.95 93.45 -74.25 95.1 -72.6 96.75 -72.6 99.1" fill="#fcfeb4" fill-rule="evenodd" stroke="none"/>
    <path d="M47.05 99.1 Q47.05 101.45 45.4 103.15 43.75 104.8 41.4 104.8 39.05 104.8 37.35 103.15 35.7 101.45 35.7 99.1 35.7 96.75 37.35 95.1 39.05 93.45 41.4 93.45 43.75 93.45 45.4 95.1 47.05 96.8 47.05 99.1" fill="#fcfeb4" fill-rule="evenodd" stroke="none"/>
    <path d="M111.05 99.1 Q111.05 101.45 109.4 103.15 107.75 104.8 105.4 104.8 103.05 104.8 101.35 103.15 99.7 101.45 99.7 99.1 99.7 96.75 101.35 95.1 103.05 93.45 105.4 93.45 107.75 93.45 109.4 95.1 111.05 96.8 111.05 99.1" fill="#fcfeb4" fill-rule="evenodd" stroke="none"/>
    <path d="M159.05 99.1 Q159.05 101.45 157.4 103.15 155.75 104.8 153.4 104.8 151.05 104.8 149.35 103.15 147.7 101.45 147.7 99.1 147.7 96.75 149.35 95.1 151.05 93.45 153.4 93.45 155.75 93.45 157.4 95.1 159.05 96.8 159.05 99.1" fill="#fcfeb4" fill-rule="evenodd" stroke="none"/>
    <path d="M203.05 99.1 Q203.05 101.45 201.4 103.15 199.75 104.8 197.4 104.8 195.05 104.8 193.35 103.15 191.7 101.45 191.7 99.1 191.7 96.75 193.35 95.1 195.05 93.45 197.4 93.45 199.75 93.45 201.4 95.1 203.05 96.8 203.05 99.1" fill="#fcfeb4" fill-rule="evenodd" stroke="none"/>
    <path d="M241.05 99.1 Q241.05 101.45 239.4 103.15 237.75 104.8 235.4 104.8 233.05 104.8 231.35 103.15 229.7 101.45 229.7 99.1 229.7 96.75 231.35 95.1 233.05 93.45 235.4 93.45 237.75 93.45 239.4 95.1 241.05 96.8 241.05 99.1" fill="#fcfeb4" fill-rule="evenodd" stroke="none"/>
    <path d="M260.4 93.45 Q262.75 93.45 264.4 95.1 266.05 96.8 266.05 99.1 266.05 101.45 264.4 103.15 262.75 104.8 260.4 104.8 258.05 104.8 256.35 103.15 254.7 101.45 254.7 99.1 254.7 96.75 256.35 95.1 258.05 93.45 260.4 93.45" fill="#fcfeb4" fill-rule="evenodd" stroke="none"/>
  </g>
</svg>
