<?xml version="1.0" encoding="UTF-8" standalone="no"?>
<svg xmlns:ffdec="https://www.free-decompiler.com/flash" xmlns:xlink="http://www.w3.org/1999/xlink" ffdec:objectType="shape" height="22.85px" width="123.75px" xmlns="http://www.w3.org/2000/svg">
  <g transform="matrix(1.0, 0.0, 0.0, 1.0, 0.0, 0.0)">
    <path d="M120.45 3.35 Q123.75 6.7 123.75 11.4 123.75 16.15 120.45 19.5 117.05 22.85 112.35 22.85 L11.4 22.85 Q6.7 22.85 3.35 19.5 0.0 16.15 0.0 11.4 0.0 6.7 3.35 3.35 6.7 0.0 11.4 0.0 L112.35 0.0 Q117.05 0.0 120.45 3.35" fill="url(#gradient0)" fill-rule="evenodd" stroke="none"/>
    <path d="M112.35 0.9 Q116.05 0.9 118.7 3.55 121.3 6.2 121.3 9.9 121.3 13.6 118.7 16.25 116.05 18.85 112.35 18.85 L11.4 18.85 Q7.7 18.85 5.05 16.25 2.45 13.6 2.45 9.9 2.45 6.2 5.05 3.55 7.7 0.9 11.4 0.9 L112.35 0.9" fill="#ffffa2" fill-rule="evenodd" stroke="none"/>
    <path d="M5.95 13.4 Q4.9 11.8 4.9 9.9 4.9 7.2 6.8 5.3 8.7 3.35 11.4 3.35 L22.1 3.35 Q14.9 9.2 8.65 15.8 6.95 15.0 5.95 13.4" fill="#e5c125" fill-rule="evenodd" stroke="none"/>
    <path d="M11.4 16.4 Q9.95 16.4 8.65 15.8 14.9 9.2 22.1 3.35 L55.15 3.35 37.65 16.4 11.4 16.4" fill="#dba511" fill-rule="evenodd" stroke="none"/>
    <path d="M55.15 3.35 L63.55 3.35 55.55 9.9 47.55 16.4 37.65 16.4 55.15 3.35" fill="#ffdc4c" fill-rule="evenodd" stroke="none"/>
    <path d="M92.6 3.35 L77.1 16.4 47.55 16.4 55.55 9.9 63.55 3.35 92.6 3.35" fill="#ffffa2" fill-rule="evenodd" stroke="none"/>
    <path d="M116.45 4.8 Q117.6 5.75 118.2 7.05 118.85 8.4 118.85 9.9 118.85 12.6 116.95 14.5 115.05 16.4 112.35 16.4 L102.65 16.4 116.45 4.8" fill="#dba511" fill-rule="evenodd" stroke="none"/>
    <path d="M112.35 3.35 Q114.65 3.35 116.45 4.8 L102.65 16.4 96.5 16.4 109.9 3.35 112.35 3.35" fill="#e5c125" fill-rule="evenodd" stroke="none"/>
    <path d="M96.5 16.4 L77.1 16.4 92.6 3.35 109.9 3.35 96.5 16.4" fill="#ffdc4c" fill-rule="evenodd" stroke="none"/>
  </g>
  <defs>
    <linearGradient gradientTransform="matrix(0.0, 0.0139, 0.0139, 0.0, 61.9, 11.25)" gradientUnits="userSpaceOnUse" id="gradient0" spreadMethod="pad" x1="-819.2" x2="819.2">
      <stop offset="0.41568627450980394" stop-color="#e6bb6e"/>
      <stop offset="0.807843137254902" stop-color="#6e3b46"/>
      <stop offset="1.0" stop-color="#000000"/>
    </linearGradient>
  </defs>
</svg>
