<?xml version="1.0" encoding="UTF-8" standalone="no"?>
<svg xmlns:ffdec="https://www.free-decompiler.com/flash" xmlns:xlink="http://www.w3.org/1999/xlink" ffdec:objectType="shape" height="32.05px" width="266.7px" xmlns="http://www.w3.org/2000/svg">
  <g transform="matrix(1.0, 0.0, 0.0, 1.0, 0.0, 0.0)">
    <path d="M266.7 8.3 L266.7 11.65 Q266.7 13.55 265.7 15.2 266.7 16.75 266.7 18.4 L266.7 22.75 Q266.7 25.85 264.75 28.2 261.55 32.05 253.95 32.05 247.35 32.05 244.0 29.6 L241.95 30.65 Q238.75 32.05 234.6 32.05 230.5 32.05 227.25 30.7 226.15 31.4 224.65 31.4 L210.2 31.4 Q208.75 31.4 207.5 30.65 204.2 32.05 199.4 32.05 191.85 32.05 188.6 28.8 186.5 26.7 186.5 23.7 L186.5 8.15 Q186.5 5.2 188.6 3.15 191.85 0.0 199.4 0.0 204.25 0.0 207.35 1.55 208.6 0.65 210.2 0.65 L216.75 0.65 Q218.6 0.65 219.9 1.75 221.2 2.9 221.2 4.45 L221.2 20.7 221.65 20.7 221.65 4.45 Q221.65 2.9 222.95 1.75 224.25 0.65 226.1 0.65 L232.65 0.65 234.55 1.05 236.45 0.65 243.05 0.65 Q244.5 0.65 245.7 1.45 248.75 0.0 253.95 0.0 261.45 0.0 264.65 3.2 266.7 5.3 266.7 8.3 M183.2 12.45 Q183.2 14.45 182.2 16.0 183.2 17.5 183.2 19.4 L183.2 27.6 Q183.2 29.15 181.9 30.25 180.65 31.35 178.8 31.35 L172.2 31.35 170.35 31.0 168.5 31.35 161.95 31.35 160.9 31.25 159.7 31.4 145.25 31.4 Q143.75 31.4 142.55 30.65 141.35 29.9 140.95 28.7 140.55 29.9 139.35 30.65 138.2 31.4 136.7 31.4 L130.0 31.4 Q127.7 31.4 126.35 29.8 125.05 31.35 122.75 31.35 L116.15 31.35 114.25 31.0 112.35 31.35 89.85 31.4 Q88.0 31.4 86.75 30.3 85.45 29.2 85.45 27.65 L85.45 22.55 82.3 23.25 82.3 27.65 Q82.3 29.2 81.0 30.3 79.75 31.4 77.9 31.4 L71.3 31.4 Q69.45 31.4 68.15 30.3 66.85 29.2 66.85 27.65 L66.85 8.3 Q66.85 6.5 67.85 4.9 69.2 2.7 72.4 1.35 75.65 0.0 79.8 0.0 83.75 0.0 87.05 1.3 L87.25 1.4 Q88.5 0.65 89.85 0.65 L96.45 0.65 Q98.3 0.65 99.6 1.75 100.9 2.9 100.9 4.45 L100.9 20.7 101.35 20.7 101.35 8.3 Q101.35 6.5 102.3 4.9 103.7 2.65 106.85 1.3 110.3 0.0 114.3 0.0 118.15 0.0 121.3 1.2 122.4 0.65 123.55 0.65 L130.0 0.65 Q132.2 0.65 133.65 2.25 135.0 0.65 137.25 0.65 L143.4 0.65 144.4 0.75 159.7 0.7 Q161.35 0.7 162.5 1.55 L163.05 1.3 Q166.4 0.0 170.4 0.0 174.4 0.0 177.75 1.3 183.2 3.65 183.2 8.3 L183.2 12.45 M157.5 20.7 L157.5 20.3 156.25 20.3 156.25 20.7 157.5 20.7 M63.5 23.7 Q63.5 25.5 62.55 27.1 61.15 29.35 58.0 30.65 54.75 32.05 50.6 32.05 46.5 32.05 43.15 30.65 L42.7 30.45 Q41.4 31.35 39.8 31.35 L33.2 31.35 31.35 31.0 29.5 31.35 22.95 31.35 Q21.1 31.35 19.8 30.25 18.5 29.15 18.5 27.6 L18.5 22.55 15.45 23.25 15.45 27.65 Q15.45 29.2 14.15 30.3 12.85 31.4 11.0 31.4 L4.45 31.4 Q2.6 31.4 1.3 30.3 0.0 29.2 0.0 27.65 L0.0 8.3 Q0.0 3.65 5.5 1.35 8.75 0.0 12.9 0.0 16.9 0.0 20.2 1.3 L22.1 2.3 Q23.0 1.75 24.0 1.3 27.45 0.0 31.4 0.0 35.4 0.0 38.75 1.3 40.2 2.0 40.95 2.55 42.0 1.8 43.2 1.35 46.45 0.0 50.6 0.0 54.6 0.0 57.95 1.3 61.15 2.65 62.55 4.9 63.5 6.5 63.5 8.3 L63.5 23.7" fill="#a76100" fill-rule="evenodd" stroke="none"/>
  </g>
</svg>
