<?xml version="1.0" encoding="UTF-8" standalone="no"?>
<svg xmlns:ffdec="https://www.free-decompiler.com/flash" xmlns:xlink="http://www.w3.org/1999/xlink" ffdec:objectType="shape" height="32.75px" width="34.1px" xmlns="http://www.w3.org/2000/svg">
  <g transform="matrix(1.0, 0.0, 0.0, 1.0, 0.0, 0.0)">
    <path d="M27.75 21.2 L28.95 28.35 Q29.35 30.7 27.45 32.05 26.55 32.75 25.25 32.75 L23.5 32.35 17.05 28.95 10.6 32.35 Q9.85 32.75 8.85 32.75 7.55 32.75 6.65 32.05 4.75 30.65 5.15 28.35 L6.35 21.2 1.15 16.1 Q0.35 15.35 0.1 14.3 -0.15 13.25 0.2 12.25 0.95 10.0 3.25 9.7 L10.45 8.65 13.7 2.1 Q14.15 1.15 15.05 0.55 15.95 0.0 17.05 0.0 19.4 0.0 20.45 2.1 L23.65 8.65 30.85 9.7 Q33.15 10.0 33.9 12.25 34.25 13.25 34.0 14.3 33.75 15.35 32.95 16.1 L27.75 21.2" fill="#a76100" fill-rule="evenodd" stroke="none"/>
  </g>
</svg>
