<?xml version="1.0" encoding="UTF-8" standalone="no"?>
<svg xmlns:ffdec="https://www.free-decompiler.com/flash" xmlns:xlink="http://www.w3.org/1999/xlink" ffdec:objectType="shape" height="46.35px" width="183.6px" xmlns="http://www.w3.org/2000/svg">
  <g transform="matrix(1.0, 0.0, 0.0, 1.0, 84.85, 5.85)">
    <path d="M33.7 13.75 Q33.8 13.25 34.35 13.25 34.7 13.25 34.7 12.85 L34.45 10.55 34.25 10.45 34.0 10.2 34.0 4.05 Q34.0 3.7 34.25 3.45 34.6 3.2 34.95 3.25 L35.1 3.25 Q35.55 3.35 35.55 2.85 L35.55 1.1 35.6 1.0 Q35.85 -0.7 36.95 -1.9 38.2 -3.3 40.3 -3.4 L40.5 -3.4 47.7 -2.85 Q50.0 -2.5 51.05 -1.1 52.25 0.4 51.9 2.7 L51.9 2.8 51.5 4.55 Q51.4 4.95 51.9 5.1 L52.25 5.15 Q52.65 5.15 52.8 5.45 53.05 5.75 52.95 6.1 L52.35 9.05 51.9 9.45 51.75 9.65 51.55 11.1 51.45 11.6 51.2 11.95 51.2 12.15 53.2 14.7 53.9 15.15 54.7 15.4 55.45 15.2 58.95 12.2 Q59.25 11.95 59.55 12.05 L60.05 12.4 60.7 13.75 Q61.25 15.05 62.2 16.4 L62.85 16.75 67.6 17.3 68.1 16.9 68.15 14.8 Q68.15 14.45 68.45 14.25 L69.05 14.15 75.9 16.25 76.5 16.7 76.55 17.35 76.45 17.95 Q76.35 18.45 76.75 18.45 L76.9 18.5 78.25 12.3 78.3 11.95 Q78.5 11.1 79.4 11.2 L90.95 12.7 91.0 12.8 91.05 12.8 Q93.1 13.25 94.9 14.15 96.8 15.25 97.65 16.65 99.5 19.5 98.25 24.7 97.55 28.4 95.2 29.6 93.65 30.4 90.4 30.35 L89.5 30.55 Q89.15 30.85 89.1 31.5 L88.9 32.75 Q88.9 32.95 89.05 32.95 89.35 33.05 89.25 33.3 L87.8 39.05 87.75 39.35 Q87.4 40.2 86.6 40.05 L79.15 39.2 78.75 39.1 78.2 38.9 77.8 39.45 Q77.45 39.75 77.1 39.65 L76.4 39.55 61.65 37.8 Q60.0 37.65 58.85 36.65 L58.55 36.65 Q58.35 36.8 58.55 37.1 L58.6 37.35 58.4 37.45 58.1 37.45 57.3 37.65 56.45 38.3 55.85 38.45 55.35 38.05 55.0 37.55 54.35 37.1 48.05 36.6 Q47.2 36.5 46.5 35.8 L46.4 35.7 45.75 35.75 Q45.3 36.2 44.5 36.2 L35.55 35.85 35.45 35.75 35.45 35.7 31.4 35.65 30.95 35.35 Q30.75 35.1 30.9 34.8 L31.8 33.0 35.85 25.15 35.85 24.95 Q35.75 24.8 35.6 24.8 L35.45 24.8 34.35 24.9 Q34.0 24.95 33.75 24.65 33.45 24.4 33.45 24.05 L33.65 14.8 33.7 14.2 33.7 13.75 M-55.1 38.0 L-57.7 38.55 -61.2 38.7 -62.0 38.9 -63.0 39.1 -63.15 39.1 -63.35 39.25 Q-63.35 39.55 -63.65 39.65 L-67.15 40.45 Q-67.95 40.65 -68.2 39.8 L-71.0 28.65 Q-71.1 28.35 -71.45 28.45 L-71.95 28.4 -72.3 27.85 -72.4 27.65 -72.6 27.65 -77.6 30.45 -78.25 30.5 -78.75 30.1 -79.15 29.05 -79.2 29.0 -80.85 25.1 -80.85 24.45 -80.35 24.0 -79.8 23.75 Q-79.35 23.6 -79.45 23.15 L-79.75 21.15 Q-79.85 20.75 -80.2 20.9 L-82.3 22.05 -82.9 22.05 -83.25 21.6 -84.85 12.2 Q-85.0 11.4 -84.15 11.2 L-83.85 11.2 -83.7 11.0 -83.7 10.8 Q-84.2 10.25 -83.8 9.5 L-81.2 5.55 Q-81.0 5.25 -80.7 5.2 -80.3 5.2 -80.1 5.45 L-79.15 6.45 -76.8 8.65 -76.25 9.0 -76.0 9.1 -75.9 8.9 -75.55 5.35 Q-75.45 4.45 -74.6 4.45 L-71.2 4.3 -70.4 4.1 -66.95 2.0 Q-66.15 1.55 -65.6 2.25 L-63.2 5.15 Q-62.9 5.5 -62.5 5.5 -61.65 5.4 -61.35 6.15 L-59.75 10.2 -59.25 12.4 Q-59.15 12.95 -59.7 13.05 L-59.85 13.25 -58.95 16.05 -58.75 16.2 Q-58.4 16.1 -58.4 16.45 L-58.25 19.55 -58.0 20.35 -58.0 20.55 -56.45 23.4 -55.75 23.9 Q-54.85 24.2 -54.35 24.8 -53.35 25.7 -53.05 27.65 L-53.0 27.75 -52.9 33.45 -52.9 33.65 Q-52.9 34.65 -53.05 35.35 -53.5 36.65 -54.45 37.5 L-55.1 38.0 M90.45 24.65 L89.6 24.4 78.95 22.7 79.0 24.2 79.05 24.5 79.05 25.55 78.8 26.2 78.15 26.45 76.65 26.35 76.5 26.5 76.5 26.75 78.5 31.05 78.8 31.4 Q78.8 26.95 81.95 25.4 84.85 24.0 88.95 24.7 L89.75 24.9 89.85 24.9 90.45 24.95 90.55 24.85 90.45 24.65 M96.1 24.25 Q97.25 19.6 95.75 17.2 94.1 14.75 90.75 14.1 L80.9 12.85 79.0 21.35 89.85 23.1 Q92.75 23.75 92.2 25.2 91.65 26.65 89.45 26.25 86.0 25.35 83.25 26.65 80.65 27.85 80.8 31.55 L86.8 32.7 86.95 31.4 Q87.35 29.1 89.65 29.15 91.9 29.25 93.75 28.25 95.5 27.25 96.1 24.25 M60.35 16.95 L59.05 14.55 56.45 16.75 57.2 18.6 58.15 20.1 54.5 19.55 53.5 27.7 57.75 26.85 56.95 32.0 54.55 32.9 56.3 36.15 59.25 33.8 Q59.85 35.85 61.8 36.0 L76.6 37.7 77.65 33.3 63.55 33.55 Q61.35 33.7 60.4 31.15 L60.35 30.8 60.35 30.85 60.3 30.8 59.3 31.2 59.3 31.25 58.65 31.45 62.05 20.65 59.9 20.35 61.95 19.1 60.35 16.95 M67.3 24.35 L62.3 31.95 67.75 31.9 70.25 25.65 72.8 32.05 76.85 31.8 73.25 24.45 73.25 24.4 77.2 24.55 77.0 20.3 74.1 19.95 74.6 17.75 69.95 16.4 69.9 19.45 62.45 18.6 62.35 24.65 67.3 24.35 M53.0 18.3 L53.9 17.05 50.0 16.05 49.3 18.05 45.95 17.75 47.3 14.95 44.8 14.05 46.4 13.0 47.75 14.6 50.95 14.8 48.4 11.6 49.8 10.75 Q50.2 8.9 49.0 8.25 L47.75 7.85 43.15 7.95 43.2 7.75 50.8 7.65 50.95 6.8 48.95 6.55 Q49.6 5.8 49.65 4.55 L50.05 2.45 Q50.45 -0.7 47.5 -1.0 L40.35 -1.6 Q39.1 -1.5 38.3 -0.7 37.55 0.25 37.4 1.3 L37.35 3.65 37.85 5.35 35.85 5.15 35.85 8.4 36.85 8.3 37.2 11.65 36.4 11.75 36.55 13.7 40.55 13.1 40.5 14.25 42.05 14.15 42.3 12.7 43.0 12.5 43.0 11.05 42.7 11.1 42.95 9.25 42.95 10.2 47.2 9.4 47.55 9.5 Q47.9 9.65 47.75 10.25 L47.5 10.45 47.05 9.9 44.5 10.55 45.5 11.8 41.95 14.2 44.3 14.15 42.8 17.55 39.75 17.25 40.2 15.0 35.5 15.05 35.35 22.95 39.15 22.7 33.45 33.85 38.3 33.95 41.9 25.55 41.9 27.3 42.8 27.35 42.8 27.3 48.3 27.0 Q48.65 27.15 48.35 27.45 L46.85 28.75 46.2 28.1 41.35 28.15 44.15 30.95 40.15 34.25 44.6 34.4 46.15 32.95 47.95 34.7 53.9 35.2 48.85 30.55 51.1 28.65 51.55 27.75 Q52.0 26.1 51.35 25.05 50.8 24.05 49.35 23.95 L42.6 24.0 43.2 22.7 53.6 22.95 53.6 18.35 53.0 18.3 M70.05 31.05 L70.0 31.2 70.0 31.45 70.25 31.55 Q70.6 31.55 70.5 31.2 L70.45 31.05 70.25 30.9 70.05 31.05 M63.5 26.55 L63.3 26.45 62.5 26.5 Q62.15 26.5 62.0 26.95 L61.6 28.25 61.65 28.35 61.8 28.5 61.9 28.9 Q61.9 29.15 62.1 29.0 L63.5 26.75 63.5 26.55 M55.45 29.65 Q55.45 29.25 55.15 29.25 L52.95 29.75 Q52.55 29.8 52.15 30.2 L51.95 30.35 Q51.8 30.4 51.8 30.6 L51.95 30.9 52.45 31.4 53.15 31.5 54.8 30.85 Q55.35 30.6 55.4 30.2 L55.45 29.65 M86.9 34.2 L80.65 33.0 80.0 37.15 85.7 38.05 86.9 34.2 M-56.35 29.3 L-56.2 32.2 -59.45 28.9 -60.35 30.1 -59.9 28.5 -56.7 28.45 Q-56.35 28.5 -56.35 29.3 M-57.15 25.35 L-59.45 25.45 -59.4 24.75 -62.0 24.3 -62.35 26.6 -62.7 27.65 -62.75 27.75 -63.2 27.3 Q-63.55 27.1 -64.3 27.0 L-64.9 26.9 -64.95 25.95 -67.35 26.2 -67.25 27.0 -69.55 27.4 -68.15 32.7 -68.05 33.25 -66.75 38.45 -65.1 38.1 -65.05 37.1 -63.2 37.3 Q-62.55 37.3 -62.0 36.65 -61.55 36.15 -61.55 35.5 L-62.2 31.25 -60.85 32.2 -60.45 30.5 -58.6 33.5 -56.25 32.4 -56.3 34.15 Q-56.25 34.75 -56.85 34.95 L-60.0 34.65 -60.2 36.85 -57.55 36.75 Q-56.1 36.65 -55.75 36.2 -54.9 35.4 -54.7 34.35 L-54.85 27.9 Q-55.1 26.5 -55.6 26.0 -56.2 25.4 -57.15 25.35 M-67.6 7.9 L-70.25 8.35 -70.1 6.05 -73.95 6.15 -74.25 11.1 -76.0 13.3 -76.25 11.85 -78.4 12.15 -77.0 10.65 -78.85 9.25 -80.5 7.65 -82.1 10.05 -81.05 11.35 -79.85 12.35 -83.0 12.8 -81.85 19.7 -78.55 18.0 -77.45 24.6 -78.9 25.2 -77.6 28.4 -71.9 25.1 -72.7 22.7 -75.25 23.75 -75.6 15.2 -73.4 16.4 -72.55 15.6 -70.75 26.4 -67.3 25.4 -67.55 24.45 -58.4 23.55 -59.55 21.35 -61.8 21.8 -61.95 20.85 -60.05 20.45 -60.15 18.2 -62.55 18.6 -62.95 16.55 -60.75 16.2 -61.6 13.75 -63.4 14.1 -63.8 11.75 -61.3 11.45 -61.5 10.7 -62.85 7.2 -65.1 7.45 -64.1 6.85 -66.6 3.8 -69.55 5.6 -67.6 7.9 M-69.1 12.6 L-66.7 12.25 Q-66.35 12.25 -66.15 12.5 L-65.75 13.6 Q-65.7 14.2 -66.45 14.45 L-68.75 14.65 Q-69.25 14.75 -69.4 14.25 L-69.5 13.3 -69.45 13.05 -69.1 12.6 M-64.8 21.45 L-64.45 21.7 Q-64.15 22.2 -64.75 22.35 L-67.8 22.9 -68.0 22.7 Q-68.15 22.5 -67.65 22.3 L-65.0 21.45 -64.8 21.45 M-65.1 19.55 L-67.7 20.1 -68.2 19.95 -68.4 19.7 -68.75 17.85 Q-68.75 17.35 -68.3 17.15 -68.05 17.0 -67.9 17.0 L-65.45 16.85 -65.1 19.55 M-73.6 19.9 L-73.65 19.85 -73.6 21.1 -73.5 21.15 -73.4 20.95 -73.6 19.9 M-63.7 35.75 L-64.95 36.0 -65.25 34.5 -63.7 34.35 Q-63.4 34.4 -63.35 34.9 -63.3 35.5 -63.7 35.75 M-65.95 30.45 L-64.7 30.55 Q-64.45 30.75 -64.3 31.25 -64.25 31.85 -64.5 32.15 L-65.6 32.6 -65.95 30.45 M38.75 4.05 L47.4 4.45 47.45 5.4 38.6 4.65 38.75 4.05 M41.5 8.5 Q41.45 9.0 41.05 9.05 L38.3 8.8 38.35 8.1 40.95 8.2 41.5 8.5 M41.15 10.55 L41.6 11.0 41.45 11.3 38.3 11.7 38.15 10.8 40.8 10.55 41.15 10.55 M47.45 2.0 L47.4 3.45 38.85 2.9 39.0 1.9 47.45 2.0" fill="#281905" fill-rule="evenodd" stroke="none"/>
    <path d="M96.1 24.25 Q95.5 27.25 93.75 28.25 91.9 29.25 89.65 29.15 87.35 29.1 86.95 31.4 L86.8 32.7 80.8 31.55 Q80.65 27.85 83.25 26.65 86.0 25.35 89.45 26.25 91.65 26.65 92.2 25.2 92.75 23.75 89.85 23.1 L79.0 21.35 80.9 12.85 90.75 14.1 Q94.1 14.75 95.75 17.2 97.25 19.6 96.1 24.25 M53.0 18.3 L53.6 18.35 53.6 22.95 43.2 22.7 42.6 24.0 49.35 23.95 Q50.8 24.05 51.35 25.05 52.0 26.1 51.55 27.75 L51.1 28.65 48.85 30.55 53.9 35.2 47.95 34.7 46.15 32.95 44.6 34.4 40.15 34.25 44.15 30.95 41.35 28.15 46.2 28.1 46.85 28.75 48.35 27.45 Q48.65 27.15 48.3 27.0 L42.8 27.3 42.8 27.35 41.9 27.3 41.9 25.55 38.3 33.95 33.45 33.85 39.15 22.7 35.35 22.95 35.5 15.05 40.2 15.0 39.75 17.25 42.8 17.55 44.3 14.15 41.95 14.2 45.5 11.8 44.5 10.55 47.05 9.9 47.5 10.45 47.75 10.25 Q47.9 9.65 47.55 9.5 L47.2 9.4 42.95 10.2 42.95 9.25 42.7 11.1 43.0 11.05 43.0 12.5 42.3 12.7 42.05 14.15 40.5 14.25 40.55 13.1 36.55 13.7 36.4 11.75 37.2 11.65 36.85 8.3 35.85 8.4 35.85 5.15 37.85 5.35 37.35 3.65 37.4 1.3 Q37.55 0.25 38.3 -0.7 39.1 -1.5 40.35 -1.6 L47.5 -1.0 Q50.45 -0.7 50.05 2.45 L49.65 4.55 Q49.6 5.8 48.95 6.55 L50.95 6.8 50.8 7.65 43.2 7.75 43.15 7.95 47.75 7.85 49.0 8.25 Q50.2 8.9 49.8 10.75 L48.4 11.6 50.95 14.8 47.75 14.6 46.4 13.0 44.8 14.05 47.3 14.95 45.95 17.75 49.3 18.05 50.0 16.05 53.9 17.05 53.0 18.3 M67.3 24.35 L62.35 24.65 62.45 18.6 69.9 19.45 69.95 16.4 74.6 17.75 74.1 19.95 77.0 20.3 77.2 24.55 73.25 24.4 73.25 24.45 76.85 31.8 72.8 32.05 70.25 25.65 67.75 31.9 62.3 31.95 67.3 24.35 M60.35 16.95 L61.95 19.1 59.9 20.35 62.05 20.65 58.65 31.45 59.3 31.25 59.3 31.2 60.3 30.8 60.35 30.85 60.35 30.8 60.4 31.15 Q61.35 33.7 63.55 33.55 L77.65 33.3 76.6 37.7 61.8 36.0 Q59.85 35.85 59.25 33.8 L56.3 36.15 54.55 32.9 56.95 32.0 57.75 26.85 53.5 27.7 54.5 19.55 58.15 20.1 57.2 18.6 56.45 16.75 59.05 14.55 60.35 16.95 M86.9 34.2 L85.7 38.05 80.0 37.15 80.65 33.0 86.9 34.2 M-57.15 25.35 Q-56.2 25.4 -55.6 26.0 -55.1 26.5 -54.85 27.9 L-54.7 34.35 Q-54.9 35.4 -55.75 36.2 -56.1 36.65 -57.55 36.75 L-60.2 36.85 -60.0 34.65 -56.85 34.95 Q-56.25 34.75 -56.3 34.15 L-56.25 32.4 -58.6 33.5 -60.45 30.5 -60.85 32.2 -62.2 31.25 -61.55 35.5 Q-61.55 36.15 -62.0 36.65 -62.55 37.3 -63.2 37.3 L-65.05 37.1 -65.1 38.1 -66.75 38.45 -68.05 33.25 -68.15 32.7 -69.55 27.4 -67.25 27.0 -67.35 26.2 -64.95 25.95 -64.9 26.9 -64.3 27.0 Q-63.55 27.1 -63.2 27.3 L-62.75 27.75 -62.7 27.65 -62.35 26.6 -62.0 24.3 -59.4 24.75 -59.45 25.45 -57.15 25.35 M-56.35 29.3 Q-56.35 28.5 -56.7 28.45 L-59.9 28.5 -60.35 30.1 -59.45 28.9 -56.2 32.2 -56.35 29.3 M-65.1 19.55 L-65.45 16.85 -67.9 17.0 Q-68.05 17.0 -68.3 17.15 -68.75 17.35 -68.75 17.85 L-68.4 19.7 -68.2 19.95 -67.7 20.1 -65.1 19.55 M-64.8 21.45 L-65.0 21.45 -67.65 22.3 Q-68.15 22.5 -68.0 22.7 L-67.8 22.9 -64.75 22.35 Q-64.15 22.2 -64.45 21.7 L-64.8 21.45 M-69.1 12.6 L-69.45 13.05 -69.5 13.3 -69.4 14.25 Q-69.25 14.75 -68.75 14.65 L-66.45 14.45 Q-65.7 14.2 -65.75 13.6 L-66.15 12.5 Q-66.35 12.25 -66.7 12.25 L-69.1 12.6 M-67.6 7.9 L-69.55 5.6 -66.6 3.8 -64.1 6.85 -65.1 7.45 -62.85 7.2 -61.5 10.7 -61.3 11.45 -63.8 11.75 -63.4 14.1 -61.6 13.75 -60.75 16.2 -62.95 16.55 -62.55 18.6 -60.15 18.2 -60.05 20.45 -61.95 20.85 -61.8 21.8 -59.55 21.35 -58.4 23.55 -67.55 24.45 -67.3 25.4 -70.75 26.4 -72.55 15.6 -73.4 16.4 -75.6 15.2 -75.25 23.75 -72.7 22.7 -71.9 25.1 -77.6 28.4 -78.9 25.2 -77.45 24.6 -78.55 18.0 -81.85 19.7 -83.0 12.8 -79.85 12.35 -81.05 11.35 -82.1 10.05 -80.5 7.65 -78.85 9.25 -77.0 10.65 -78.4 12.15 -76.25 11.85 -76.0 13.3 -74.25 11.1 -73.95 6.15 -70.1 6.05 -70.25 8.35 -67.6 7.9 M47.45 2.0 L39.0 1.9 38.85 2.9 47.4 3.45 47.45 2.0 M41.15 10.55 L40.8 10.55 38.15 10.8 38.3 11.7 41.45 11.3 41.6 11.0 41.15 10.55 M41.5 8.5 L40.95 8.2 38.35 8.1 38.3 8.8 41.05 9.05 Q41.45 9.0 41.5 8.5 M38.75 4.05 L38.6 4.65 47.45 5.4 47.4 4.45 38.75 4.05 M-65.95 30.45 L-65.6 32.6 -64.5 32.15 Q-64.25 31.85 -64.3 31.25 -64.45 30.75 -64.7 30.55 L-65.95 30.45 M-63.7 35.75 Q-63.3 35.5 -63.35 34.9 -63.4 34.4 -63.7 34.35 L-65.25 34.5 -64.95 36.0 -63.7 35.75" fill="#ffffff" fill-rule="evenodd" stroke="none"/>
    <path d="M-26.45 -1.8 L-26.8 1.9 -15.0 1.6 -14.8 10.85 -26.45 11.8 -26.4 11.9 Q-19.25 20.5 -11.6 30.4 L-21.25 30.15 -31.4 15.45 -37.5 31.4 -49.85 33.5 -39.3 13.15 -52.45 15.75 -55.25 3.35 -36.1 2.45 -36.9 -3.25 -26.45 -1.8 M-6.3 13.95 L-7.15 14.05 Q-8.05 14.15 -8.25 14.4 -8.6 14.9 -8.6 16.1 -8.55 17.3 -8.05 17.35 L-2.4 16.95 Q-1.95 15.85 -3.2 14.55 -4.1 13.7 -6.3 13.95 M-3.5 8.7 Q-2.35 8.75 -2.45 7.7 -2.45 6.6 -3.25 6.65 L-7.2 6.45 Q-8.8 6.55 -8.5 8.7 L-3.5 8.7 M-3.5 -3.85 Q1.75 -3.75 1.75 1.5 L0.5 31.0 -5.7 31.2 -5.5 26.9 -3.35 27.4 -3.1 21.15 -7.2 21.05 -6.7 30.55 -10.55 31.2 -13.85 -3.3 -12.25 -3.3 Q-10.5 -3.1 -9.8 -2.05 -8.5 -4.0 -6.7 -3.9 L-3.5 -3.85 M18.05 24.85 L15.8 19.9 12.85 24.65 18.05 24.85 M24.4 0.85 L30.5 1.05 29.0 7.15 13.5 8.3 15.2 14.35 18.2 9.35 24.05 9.7 17.8 16.85 20.9 22.4 21.2 15.4 29.95 14.7 29.1 22.75 Q28.7 30.7 21.85 30.9 12.65 30.45 2.1 30.35 L2.25 15.1 5.85 14.8 5.75 24.5 8.4 24.5 13.2 18.25 8.6 9.5 3.55 10.05 2.45 1.25 17.2 0.9 14.45 -3.4 22.35 -3.0 24.4 0.85" fill="#e86288" fill-rule="evenodd" stroke="none"/>
    <path d="M33.65 14.8 L32.6 24.5 Q32.25 31.05 28.15 33.9 25.55 35.7 21.9 35.75 L21.65 35.75 Q11.05 35.3 3.9 35.25 3.9 35.75 3.3 35.75 L-9.0 36.2 -9.3 35.85 -12.3 36.4 -13.3 36.15 -13.8 35.25 -21.25 35.05 -21.35 35.0 Q-23.1 35.0 -24.05 33.55 L-24.15 33.5 -30.45 24.35 -34.15 34.0 -34.25 34.35 Q-34.85 35.95 -36.55 36.2 L-36.85 36.2 -49.1 38.25 -54.15 39.15 Q-54.65 39.25 -54.95 38.85 -55.3 38.45 -55.1 38.0 L-54.45 37.5 Q-53.5 36.65 -53.05 35.35 -52.9 34.65 -52.9 33.65 L-52.9 33.45 -45.75 19.35 -53.3 20.9 -54.65 20.7 Q-55.3 20.3 -55.4 19.6 L-59.3 3.35 Q-59.4 2.7 -58.95 2.1 -58.5 1.55 -57.8 1.55 L-55.3 1.4 -40.2 0.65 -40.85 -4.05 Q-40.9 -4.65 -40.45 -5.1 -39.95 -5.6 -39.25 -5.55 L-36.25 -5.15 -25.8 -3.7 -24.25 -3.45 Q-23.45 -3.4 -22.95 -2.8 -22.45 -2.2 -22.55 -1.5 L-22.7 -0.2 -17.4 -0.25 -17.65 -2.9 Q-17.7 -3.6 -17.25 -4.2 -16.7 -4.75 -16.0 -4.85 L-14.45 -5.15 -13.0 -5.3 -10.25 -4.9 Q-8.7 -5.85 -6.85 -5.85 L-3.45 -5.8 Q-0.4 -5.75 1.8 -4.4 3.9 -3.15 4.8 -0.75 L10.8 -0.95 8.65 -4.2 Q8.35 -4.7 8.65 -5.15 9.0 -5.65 9.55 -5.6 L22.5 -4.95 22.75 -4.9 Q24.5 -4.8 25.45 -3.35 L25.55 -3.1 26.65 -1.05 33.2 -0.8 Q33.85 -0.75 34.3 -0.25 34.75 0.3 34.65 0.95 L32.3 10.25 Q32.1 11.0 31.5 11.45 30.85 11.9 30.1 11.95 L27.95 12.1 27.15 12.95 32.1 12.6 Q32.8 12.55 33.3 13.1 L33.7 13.75 33.7 14.2 33.65 14.8 M-26.45 -1.8 L-36.9 -3.25 -36.1 2.45 -55.25 3.35 -52.45 15.75 -39.3 13.15 -49.85 33.5 -37.5 31.4 -31.4 15.45 -21.25 30.15 -11.6 30.4 Q-19.25 20.5 -26.4 11.9 L-26.45 11.8 -14.8 10.85 -15.0 1.6 -26.8 1.9 -26.45 -1.8 M24.4 0.85 L22.35 -3.0 14.45 -3.4 17.2 0.9 2.45 1.25 3.55 10.05 8.6 9.5 13.2 18.25 8.4 24.5 5.75 24.5 5.85 14.8 2.25 15.1 2.1 30.35 Q12.65 30.45 21.85 30.9 28.7 30.7 29.1 22.75 L29.95 14.7 21.2 15.4 20.9 22.4 17.8 16.85 24.05 9.7 18.2 9.35 15.2 14.35 13.5 8.3 29.0 7.15 30.5 1.05 24.4 0.85 M18.05 24.85 L12.85 24.65 15.8 19.9 18.05 24.85 M-3.5 -3.85 L-6.7 -3.9 Q-8.5 -4.0 -9.8 -2.05 -10.5 -3.1 -12.25 -3.3 L-13.85 -3.3 -10.55 31.2 -6.7 30.55 -7.2 21.05 -3.1 21.15 -3.35 27.4 -5.5 26.9 -5.7 31.2 0.5 31.0 1.75 1.5 Q1.75 -3.75 -3.5 -3.85 M-3.5 8.7 L-8.5 8.7 Q-8.8 6.55 -7.2 6.45 L-3.25 6.65 Q-2.45 6.6 -2.45 7.7 -2.35 8.75 -3.5 8.7 M-6.3 13.95 Q-4.1 13.7 -3.2 14.55 -1.95 15.85 -2.4 16.95 L-8.05 17.35 Q-8.55 17.3 -8.6 16.1 -8.6 14.9 -8.25 14.4 -8.05 14.15 -7.15 14.05 L-6.3 13.95 M-19.55 16.1 L-15.15 21.7 -15.7 15.8 -19.55 16.1" fill="#7e1865" fill-rule="evenodd" stroke="none"/>
  </g>
</svg>
