<?xml version="1.0" encoding="UTF-8" standalone="no"?>
<svg xmlns:ffdec="https://www.free-decompiler.com/flash" xmlns:xlink="http://www.w3.org/1999/xlink" ffdec:objectType="shape" height="47.0px" width="183.8px" xmlns="http://www.w3.org/2000/svg">
  <g transform="matrix(1.0, 0.0, 0.0, 1.0, 83.6, 4.85)">
    <path d="M71.8 18.2 L65.85 16.8 65.45 20.75 71.45 21.25 71.25 22.65 63.95 21.7 63.9 23.35 68.25 24.3 67.75 24.3 68.6 26.3 65.05 25.65 64.9 28.05 70.95 28.55 70.85 29.35 67.95 29.05 67.8 30.75 70.7 30.85 70.7 31.65 63.75 30.9 63.45 33.2 70.5 33.55 70.35 34.85 65.15 34.65 Q62.95 34.75 62.05 32.05 L62.0 31.75 61.95 31.8 61.95 31.75 60.9 32.1 60.9 32.15 60.3 32.4 63.4 25.4 62.3 25.1 63.35 23.6 58.9 21.6 57.95 23.05 60.25 24.6 56.2 23.55 55.95 29.15 59.65 28.6 58.55 32.9 56.1 33.85 57.85 37.1 60.8 34.75 Q61.35 36.95 63.3 37.1 L77.55 39.0 78.45 35.25 71.95 34.9 72.2 33.65 77.35 34.0 77.45 32.5 72.6 31.9 72.8 30.95 75.3 31.05 75.25 29.8 73.05 29.6 73.25 28.8 76.15 29.1 76.2 27.9 74.75 27.55 76.35 26.35 74.05 25.5 78.05 26.4 78.65 23.7 74.55 23.1 74.75 21.65 78.25 22.05 78.9 19.9 75.15 19.0 75.4 17.1 71.9 17.2 71.8 18.2 M34.35 12.7 L34.4 12.55 34.55 11.75 34.4 10.35 Q34.4 9.85 34.9 9.85 L35.0 9.8 35.15 9.65 35.0 9.55 34.7 9.6 Q33.95 9.6 33.95 8.95 L34.0 3.5 Q34.0 3.15 34.25 2.95 L34.85 2.8 35.05 2.8 Q35.5 2.85 35.5 2.4 L35.55 0.25 Q35.8 -1.3 36.9 -2.55 38.05 -3.95 40.15 -4.05 L40.3 -4.05 40.45 -4.0 47.55 -3.4 Q49.8 -3.05 50.9 -1.6 51.95 -0.2 51.6 2.05 L51.6 2.15 51.15 4.25 Q51.15 4.75 51.55 4.8 L51.9 4.85 Q52.25 4.9 52.45 5.15 L52.6 5.75 52.0 8.4 Q51.9 8.8 51.45 8.8 51.3 8.8 51.3 9.05 L51.15 10.75 51.1 10.95 50.7 11.6 Q50.45 11.7 50.65 11.85 L52.0 13.7 Q52.25 14.05 52.65 14.15 L55.75 15.4 Q56.15 15.55 55.85 15.85 L55.9 16.05 56.15 16.2 Q56.45 16.45 56.75 16.0 L57.2 15.15 57.7 14.75 58.3 14.9 59.2 15.45 63.55 18.4 Q63.9 18.6 63.95 18.2 L64.2 15.55 64.5 15.05 65.1 14.95 70.05 16.05 70.25 15.9 Q70.35 15.5 70.75 15.5 L76.5 15.4 Q76.85 15.4 77.05 15.65 77.3 15.85 77.2 16.2 L77.05 17.25 Q77.0 17.7 77.45 17.8 L79.35 18.3 80.15 14.55 Q80.25 14.2 80.6 14.0 L81.25 13.8 92.55 15.3 92.7 15.3 Q94.7 15.7 96.4 16.7 98.3 17.75 99.15 19.1 100.95 22.0 99.7 27.05 99.05 30.65 96.8 31.85 95.2 32.7 92.0 32.6 L91.1 32.85 Q90.8 33.1 90.7 33.75 L90.5 34.95 90.7 35.15 90.9 35.55 89.4 41.45 89.0 41.95 88.25 42.1 80.55 41.2 79.95 40.85 79.8 40.15 80.65 34.15 80.65 33.75 Q80.6 29.35 83.75 27.7 85.15 27.1 87.0 26.9 L90.55 27.1 91.4 27.2 91.5 27.25 92.05 27.3 92.2 27.15 92.1 27.0 91.25 26.75 80.1 25.0 79.45 27.55 Q79.3 28.3 78.45 28.1 L78.3 28.05 Q77.9 28.0 77.85 28.4 L77.75 30.4 Q77.75 30.8 78.15 30.85 L78.35 30.9 Q79.25 31.0 79.15 31.8 L79.05 33.2 Q78.95 33.65 79.4 33.65 L79.7 33.65 Q80.05 33.7 80.2 33.95 80.45 34.2 80.35 34.5 L78.95 40.0 Q78.8 40.75 77.95 40.65 L77.3 40.6 63.05 38.65 63.0 38.65 Q61.55 38.45 60.5 37.45 60.25 37.25 59.9 37.45 L57.9 39.05 57.35 39.2 Q57.05 39.15 56.9 38.8 L56.3 37.8 56.25 37.55 Q56.05 37.25 55.65 37.15 L49.5 36.55 49.3 36.55 Q48.9 36.5 48.55 36.1 L48.3 36.1 47.75 36.3 47.4 36.3 44.65 36.15 43.05 36.1 42.2 36.3 Q41.0 37.0 39.55 36.85 37.4 36.7 35.15 34.75 L34.4 34.05 34.2 33.5 34.4 32.95 35.6 32.0 35.6 31.8 35.5 31.65 34.7 31.6 34.25 31.3 Q34.05 31.05 34.1 30.7 L35.05 26.75 35.2 25.55 35.1 24.8 33.55 21.85 33.5 21.75 33.5 21.3 33.5 21.25 Q33.65 20.95 33.95 20.8 L35.1 20.35 Q35.4 20.25 35.2 19.9 L34.5 19.05 Q34.25 18.75 33.8 18.65 L32.9 18.55 32.25 17.25 33.95 13.55 34.3 12.85 34.35 12.7 M-52.35 36.55 L-53.05 37.2 -53.05 37.25 Q-53.75 37.9 -55.25 38.15 L-60.1 38.2 -60.85 38.35 -61.6 38.55 -62.1 38.55 Q-62.4 38.55 -62.4 38.75 -62.5 39.15 -62.85 39.25 L-66.1 39.85 -66.7 39.75 -67.05 39.25 -69.75 26.5 -70.6 26.65 -71.15 26.6 -71.5 26.1 Q-71.55 25.75 -71.9 25.95 -72.4 26.3 -73.2 26.55 L-73.3 26.55 -73.35 26.6 -77.35 27.1 Q-79.6 27.35 -80.75 25.3 L-81.25 23.7 -81.55 22.15 -81.55 21.95 Q-81.55 21.7 -81.85 21.75 L-82.15 21.7 -82.3 21.35 -82.45 17.1 -82.55 17.05 -83.6 8.8 -83.4 8.25 -82.8 7.95 -82.4 7.9 -82.2 7.8 Q-82.15 7.7 -82.25 7.55 L-82.3 7.45 Q-82.75 6.8 -82.3 6.15 L-79.6 2.4 Q-79.4 2.2 -79.1 2.15 -78.75 2.15 -78.6 2.35 L-77.7 3.45 -75.35 5.75 -74.3 6.6 Q-74.05 6.8 -73.95 6.4 L-73.75 4.6 -73.6 4.05 -73.3 3.45 -72.65 3.25 -69.25 3.25 -68.45 3.1 -64.85 1.2 Q-64.05 0.8 -63.6 1.45 L-61.3 4.55 -60.7 4.8 Q-59.85 4.8 -59.65 5.5 L-57.7 11.3 Q-57.6 11.6 -57.8 11.8 -58.0 12.1 -58.3 12.1 -58.7 12.2 -58.6 12.55 L-57.85 15.45 -57.65 15.6 Q-57.35 15.5 -57.35 15.85 L-57.45 18.85 -57.3 19.6 -57.15 19.85 -55.95 22.5 -55.5 22.6 Q-55.3 22.6 -55.4 22.8 L-55.3 22.9 Q-53.4 23.05 -52.35 24.2 -51.5 25.1 -51.25 27.1 L-51.35 33.55 -51.4 34.5 -51.6 35.15 -52.35 36.55 M54.45 17.1 L51.95 19.45 51.35 19.1 53.5 16.3 50.5 15.15 49.55 17.4 48.65 16.15 48.45 15.6 46.55 16.55 Q46.3 15.75 45.5 15.2 L44.65 14.85 35.9 13.55 34.25 17.15 38.8 17.85 36.05 18.3 38.25 20.95 35.55 22.05 36.7 24.3 40.6 22.55 40.45 23.95 43.0 23.8 42.6 25.35 37.05 24.75 36.0 30.15 42.65 31.2 Q42.9 31.6 41.25 32.6 L39.45 32.5 38.3 31.95 36.3 33.6 Q38.25 35.3 40.05 35.3 40.95 35.3 41.45 34.95 43.25 34.0 44.15 32.25 L44.65 30.7 Q44.65 29.3 43.4 28.65 L42.15 28.3 39.65 28.25 39.8 26.95 43.8 27.0 45.05 23.85 Q45.2 22.6 44.25 21.9 L43.25 21.45 43.05 21.45 Q45.75 20.15 46.2 19.0 L46.25 18.85 Q47.8 21.45 50.2 22.95 L47.4 22.35 Q47.45 21.75 47.0 21.45 L46.6 21.25 44.15 28.0 47.05 27.8 47.6 24.0 49.8 24.2 49.35 25.65 Q49.05 27.25 49.8 28.1 L45.25 28.05 44.85 30.25 50.0 30.05 50.0 30.35 49.0 31.15 48.65 30.75 45.6 30.75 47.3 32.5 44.8 34.6 47.55 34.75 48.6 33.85 49.65 34.95 53.35 35.35 50.3 32.35 51.7 31.15 51.95 30.6 Q52.25 29.5 51.9 28.9 L52.5 28.95 Q53.55 28.9 54.25 28.05 L54.75 27.2 54.85 24.95 55.6 25.1 56.05 20.95 54.3 20.5 56.75 18.6 54.45 17.1 M63.15 20.15 L58.25 16.85 56.65 19.85 61.85 22.3 63.15 20.15 M52.25 26.3 L51.6 26.4 51.35 26.1 51.8 23.9 54.5 24.85 52.5 24.65 52.25 26.3 M57.2 30.7 L57.0 30.6 54.85 30.9 54.45 30.8 Q54.2 30.65 54.25 30.4 54.25 30.15 54.0 30.25 53.7 30.3 53.6 30.65 L53.55 30.95 53.0 32.05 Q52.7 32.4 53.0 32.65 L54.05 33.65 54.1 33.6 54.1 33.0 54.5 32.55 56.75 31.75 57.2 31.2 57.25 30.9 57.2 30.7 M73.95 25.5 L72.85 27.2 70.05 26.65 71.2 26.55 70.3 24.7 73.95 25.5 M85.0 28.9 Q82.55 30.25 82.6 33.75 L88.5 34.95 88.7 33.65 Q89.0 31.4 91.3 31.45 93.45 31.45 95.35 30.55 97.15 29.5 97.6 26.65 98.75 22.0 97.25 19.65 95.8 17.35 92.35 16.6 L82.75 15.4 80.85 23.75 91.5 25.45 Q94.35 26.1 93.8 27.55 93.25 29.0 91.1 28.5 87.7 27.7 85.0 28.9 M82.45 35.2 L81.8 39.25 87.4 40.2 88.55 36.4 82.45 35.2 M47.4 -1.7 L40.35 -2.35 Q39.15 -2.3 38.3 -1.45 37.55 -0.6 37.35 0.55 L37.3 3.0 Q37.4 4.05 37.8 4.75 L35.8 4.55 35.75 7.9 36.75 7.8 37.0 11.3 36.25 11.35 36.45 13.4 40.3 12.75 40.25 14.0 41.8 13.85 42.05 12.4 42.75 12.25 42.8 10.7 42.45 10.75 42.75 8.85 42.8 9.8 46.9 9.1 47.3 9.15 Q47.7 9.4 47.5 9.95 L47.25 10.1 46.85 9.55 44.2 10.15 45.2 11.5 41.7 13.95 44.3 13.95 46.1 12.7 47.4 14.45 50.65 14.7 48.15 11.35 49.55 10.45 Q49.95 8.55 48.75 7.8 L47.5 7.45 42.95 7.5 43.0 7.3 50.55 7.25 50.75 6.4 48.7 6.1 Q49.35 5.4 49.5 4.1 L49.95 1.9 Q50.35 -1.25 47.4 -1.7 M47.3 4.95 L38.5 4.05 38.65 3.4 47.25 3.95 47.3 4.95 M47.25 2.9 L38.75 2.25 38.95 1.2 47.3 1.4 47.25 2.9 M40.75 7.7 Q41.2 7.7 41.35 8.1 41.35 8.6 40.95 8.6 L38.15 8.35 38.3 7.6 40.75 7.7 M38.1 11.35 L37.95 10.4 40.6 10.1 41.0 10.15 41.45 10.6 41.25 10.9 38.1 11.35 M42.1 18.4 Q43.05 18.45 42.55 19.2 L40.2 20.15 38.85 17.85 42.1 18.4 M-62.3 5.85 L-64.65 2.75 -67.65 4.3 -65.85 6.7 -68.5 7.05 -68.25 4.75 -72.0 4.7 -72.65 9.55 -74.65 11.9 -75.1 8.65 -77.15 8.9 -75.7 7.45 -77.4 5.95 -79.05 4.3 -80.75 6.6 -79.75 7.95 -78.65 9.05 -81.8 9.3 -81.1 14.9 -75.3 13.15 -75.7 13.75 -72.05 14.85 -71.15 14.05 -70.0 24.8 -66.55 24.05 -66.7 23.05 -57.6 22.6 -58.65 20.35 -60.9 20.75 -61.0 19.75 -59.1 19.45 -59.05 17.2 -61.5 17.5 -61.7 15.5 -59.6 15.2 -60.25 12.8 -62.05 13.0 -62.3 10.7 -59.7 10.5 -61.1 6.3 -63.35 6.4 -62.3 5.85 M-68.0 11.95 L-67.9 11.7 -67.6 11.3 -65.55 11.1 -65.2 11.1 Q-64.85 11.1 -64.7 11.35 L-64.35 12.4 Q-64.35 13.05 -65.05 13.25 L-67.35 13.3 Q-67.9 13.4 -67.95 12.9 L-68.0 11.95 M-73.75 15.75 L-80.75 17.5 -80.7 19.75 -73.05 18.05 -73.75 15.75 M-75.45 14.05 L-79.7 14.75 -79.4 16.75 -75.15 15.4 -75.45 14.05 M-67.5 16.5 Q-67.45 16.0 -67.0 15.8 L-66.6 15.7 -64.25 15.65 -64.05 18.3 -66.6 18.8 -67.15 18.55 -67.3 18.35 -67.5 16.5 M-79.6 20.45 L-79.95 21.7 -79.55 23.95 Q-78.85 25.65 -77.55 25.35 L-73.55 24.85 Q-72.05 24.55 -72.35 22.95 L-72.5 20.8 Q-72.65 19.0 -74.35 19.1 L-78.65 19.7 Q-79.35 19.9 -79.6 20.45 M-77.8 23.85 L-78.1 21.35 -75.35 20.8 -74.8 23.35 -77.8 23.85 M-63.85 20.2 L-63.5 20.45 Q-63.25 20.95 -63.85 21.15 L-66.9 21.55 -67.05 21.35 -66.65 20.95 -64.05 20.2 -63.85 20.2 M-63.25 29.7 Q-63.0 29.85 -62.9 30.4 -62.8 31.1 -63.1 31.4 -63.3 31.6 -64.3 31.8 L-64.6 29.55 -63.25 29.7 M-65.9 24.9 L-65.8 25.8 -68.25 26.15 -65.65 38.05 -63.95 37.75 -63.85 36.6 -62.0 36.9 Q-61.15 36.9 -60.7 36.25 -60.3 35.95 -60.2 35.5 L-60.15 35.1 -60.7 30.55 -59.35 31.6 -58.9 29.8 -57.05 33.05 -54.75 31.05 -54.65 33.85 Q-54.65 34.45 -55.3 34.7 L-56.65 34.5 -58.55 34.2 -58.8 36.55 -56.05 36.55 Q-54.55 36.45 -54.2 36.05 L-53.5 35.3 -53.05 34.05 -52.9 27.2 Q-53.05 25.75 -53.6 25.2 -54.15 24.55 -55.25 24.4 L-56.2 24.4 -57.65 24.5 -57.55 23.65 -60.25 23.1 -60.7 25.5 -61.1 26.65 -61.15 26.75 -61.6 26.3 Q-61.95 26.05 -62.7 25.9 L-63.4 25.8 -63.4 24.8 -65.9 24.9 M-58.25 27.6 L-54.85 27.65 -54.75 30.75 -57.75 28.1 -58.75 29.35 -58.25 27.6 M-62.35 33.7 Q-62.05 33.8 -62.05 34.35 -62.0 35.0 -62.4 35.25 L-63.75 35.4 -64.0 33.85 -62.35 33.7" fill="#281905" fill-rule="evenodd" stroke="none"/>
    <path d="M71.8 18.2 L71.9 17.2 75.4 17.1 75.15 19.0 78.9 19.9 78.25 22.05 74.75 21.65 74.55 23.1 78.65 23.7 78.05 26.4 74.05 25.5 76.35 26.35 74.75 27.55 76.2 27.9 76.15 29.1 73.25 28.8 73.05 29.6 75.25 29.8 75.3 31.05 72.8 30.95 72.6 31.9 77.45 32.5 77.35 34.0 72.2 33.65 71.95 34.9 78.45 35.25 77.55 39.0 63.3 37.1 Q61.35 36.95 60.8 34.75 L57.85 37.1 56.1 33.85 58.55 32.9 59.65 28.6 55.95 29.15 56.2 23.55 60.25 24.6 57.95 23.05 58.9 21.6 63.35 23.6 62.3 25.1 63.4 25.4 60.3 32.4 60.9 32.15 60.9 32.1 61.95 31.75 61.95 31.8 62.0 31.75 62.05 32.05 Q62.95 34.75 65.15 34.65 L70.35 34.85 70.5 33.55 63.45 33.2 63.75 30.9 70.7 31.65 70.7 30.85 67.8 30.75 67.95 29.05 70.85 29.35 70.95 28.55 64.9 28.05 65.05 25.65 68.6 26.3 67.75 24.3 68.25 24.3 63.9 23.35 63.95 21.7 71.25 22.65 71.45 21.25 65.45 20.75 65.85 16.8 71.8 18.2 M52.25 26.3 L52.5 24.65 54.5 24.85 51.8 23.9 51.35 26.1 51.6 26.4 52.25 26.3 M63.15 20.15 L61.85 22.3 56.65 19.85 58.25 16.85 63.15 20.15 M54.45 17.1 L56.75 18.6 54.3 20.5 56.05 20.95 55.6 25.1 54.85 24.95 54.75 27.2 54.25 28.05 Q53.55 28.9 52.5 28.95 L51.9 28.9 Q52.25 29.5 51.95 30.6 L51.7 31.15 50.3 32.35 53.35 35.35 49.65 34.95 48.6 33.85 47.55 34.75 44.8 34.6 47.3 32.5 45.6 30.75 48.65 30.75 49.0 31.15 50.0 30.35 50.0 30.05 44.85 30.25 45.25 28.05 49.8 28.1 Q49.05 27.25 49.35 25.65 L49.8 24.2 47.6 24.0 47.05 27.8 44.15 28.0 46.6 21.25 47.0 21.45 Q47.45 21.75 47.4 22.35 L50.2 22.95 Q47.8 21.45 46.25 18.85 L46.2 19.0 Q45.75 20.15 43.05 21.45 L43.25 21.45 44.25 21.9 Q45.2 22.6 45.05 23.85 L43.8 27.0 39.8 26.95 39.65 28.25 42.15 28.3 43.4 28.65 Q44.65 29.3 44.65 30.7 L44.15 32.25 Q43.25 34.0 41.45 34.95 40.95 35.3 40.05 35.3 38.25 35.3 36.3 33.6 L38.3 31.95 39.45 32.5 41.25 32.6 Q42.9 31.6 42.65 31.2 L36.0 30.15 37.05 24.75 42.6 25.35 43.0 23.8 40.45 23.95 40.6 22.55 36.7 24.3 35.55 22.05 38.25 20.95 36.05 18.3 38.8 17.85 34.25 17.15 35.9 13.55 44.65 14.85 45.5 15.2 Q46.3 15.75 46.55 16.55 L48.45 15.6 48.65 16.15 49.55 17.4 50.5 15.15 53.5 16.3 51.35 19.1 51.95 19.45 54.45 17.1 M73.95 25.5 L70.3 24.7 71.2 26.55 70.05 26.65 72.85 27.2 73.95 25.5 M82.45 35.2 L88.55 36.4 87.4 40.2 81.8 39.25 82.45 35.2 M85.0 28.9 Q87.7 27.7 91.1 28.5 93.25 29.0 93.8 27.55 94.35 26.1 91.5 25.45 L80.85 23.75 82.75 15.4 92.35 16.6 Q95.8 17.35 97.25 19.65 98.75 22.0 97.6 26.65 97.15 29.5 95.35 30.55 93.45 31.45 91.3 31.45 89.0 31.4 88.7 33.65 L88.5 34.95 82.6 33.75 Q82.55 30.25 85.0 28.9 M38.1 11.35 L41.25 10.9 41.45 10.6 41.0 10.15 40.6 10.1 37.95 10.4 38.1 11.35 M40.75 7.7 L38.3 7.6 38.15 8.35 40.95 8.6 Q41.35 8.6 41.35 8.1 41.2 7.7 40.75 7.7 M47.25 2.9 L47.3 1.4 38.95 1.2 38.75 2.25 47.25 2.9 M47.3 4.95 L47.25 3.95 38.65 3.4 38.5 4.05 47.3 4.95 M47.4 -1.7 Q50.35 -1.25 49.95 1.9 L49.5 4.1 Q49.35 5.4 48.7 6.1 L50.75 6.4 50.55 7.25 43.0 7.3 42.95 7.5 47.5 7.45 48.75 7.8 Q49.95 8.55 49.55 10.45 L48.15 11.35 50.65 14.7 47.4 14.45 46.1 12.7 44.3 13.95 41.7 13.95 45.2 11.5 44.2 10.15 46.85 9.55 47.25 10.1 47.5 9.95 Q47.7 9.4 47.3 9.15 L46.9 9.1 42.8 9.8 42.75 8.85 42.45 10.75 42.8 10.7 42.75 12.25 42.05 12.4 41.8 13.85 40.25 14.0 40.3 12.75 36.45 13.4 36.25 11.35 37.0 11.3 36.75 7.8 35.75 7.9 35.8 4.55 37.8 4.75 Q37.4 4.05 37.3 3.0 L37.35 0.55 Q37.55 -0.6 38.3 -1.45 39.15 -2.3 40.35 -2.35 L47.4 -1.7 M42.1 18.4 L38.85 17.85 40.2 20.15 42.55 19.2 Q43.05 18.45 42.1 18.4 M-67.5 16.5 L-67.3 18.35 -67.15 18.55 -66.6 18.8 -64.05 18.3 -64.25 15.65 -66.6 15.7 -67.0 15.8 Q-67.45 16.0 -67.5 16.5 M-75.45 14.05 L-75.15 15.4 -79.4 16.75 -79.7 14.75 -75.45 14.05 M-73.75 15.75 L-73.05 18.05 -80.7 19.75 -80.75 17.5 -73.75 15.75 M-68.0 11.95 L-67.95 12.9 Q-67.9 13.4 -67.35 13.3 L-65.05 13.25 Q-64.35 13.05 -64.35 12.4 L-64.7 11.35 Q-64.85 11.1 -65.2 11.1 L-65.55 11.1 -67.6 11.3 -67.9 11.7 -68.0 11.95 M-62.3 5.85 L-63.35 6.4 -61.1 6.3 -59.7 10.5 -62.3 10.7 -62.05 13.0 -60.25 12.8 -59.6 15.2 -61.7 15.5 -61.5 17.5 -59.05 17.2 -59.1 19.45 -61.0 19.75 -60.9 20.75 -58.65 20.35 -57.6 22.6 -66.7 23.05 -66.55 24.05 -70.0 24.8 -71.15 14.05 -72.05 14.85 -75.7 13.75 -75.3 13.15 -81.1 14.9 -81.8 9.3 -78.65 9.05 -79.75 7.95 -80.75 6.6 -79.05 4.3 -77.4 5.95 -75.7 7.45 -77.15 8.9 -75.1 8.65 -74.65 11.9 -72.65 9.55 -72.0 4.7 -68.25 4.75 -68.5 7.05 -65.85 6.7 -67.65 4.3 -64.65 2.75 -62.3 5.85 M-77.8 23.85 L-74.8 23.35 -75.35 20.8 -78.1 21.35 -77.8 23.85 M-79.6 20.45 Q-79.35 19.9 -78.65 19.7 L-74.35 19.1 Q-72.65 19.0 -72.5 20.8 L-72.35 22.95 Q-72.05 24.55 -73.55 24.85 L-77.55 25.35 Q-78.85 25.65 -79.55 23.95 L-79.95 21.7 -79.6 20.45 M-62.35 33.7 L-64.0 33.85 -63.75 35.4 -62.4 35.25 Q-62.0 35.0 -62.05 34.35 -62.05 33.8 -62.35 33.7 M-58.25 27.6 L-58.75 29.35 -57.75 28.1 -54.75 30.75 -54.85 27.65 -58.25 27.6 M-65.9 24.9 L-63.4 24.8 -63.4 25.8 -62.7 25.9 Q-61.95 26.05 -61.6 26.3 L-61.15 26.75 -61.1 26.65 -60.7 25.5 -60.25 23.1 -57.55 23.65 -57.65 24.5 -56.2 24.4 -55.25 24.4 Q-54.15 24.55 -53.6 25.2 -53.05 25.75 -52.9 27.2 L-53.05 34.05 -53.5 35.3 -54.2 36.05 Q-54.55 36.45 -56.05 36.55 L-58.8 36.55 -58.55 34.2 -56.65 34.5 -55.3 34.7 Q-54.65 34.45 -54.65 33.85 L-54.75 31.05 -57.05 33.05 -58.9 29.8 -59.35 31.6 -60.7 30.55 -60.15 35.1 -60.2 35.5 Q-60.3 35.95 -60.7 36.25 -61.15 36.9 -62.0 36.9 L-63.85 36.6 -63.95 37.75 -65.65 38.05 -68.25 26.15 -65.8 25.8 -65.9 24.9 M-63.25 29.7 L-64.6 29.55 -64.3 31.8 Q-63.3 31.6 -63.1 31.4 -62.8 31.1 -62.9 30.4 -63.0 29.85 -63.25 29.7 M-63.85 20.2 L-64.05 20.2 -66.65 20.95 -67.05 21.35 -66.9 21.55 -63.85 21.15 Q-63.25 20.95 -63.5 20.45 L-63.85 20.2" fill="#ffffff" fill-rule="evenodd" stroke="none"/>
    <path d="M34.35 12.7 L34.3 12.85 33.95 13.55 33.8 13.6 31.25 15.25 31.05 15.65 31.15 16.05 32.25 17.25 32.9 18.55 Q33.4 19.8 33.5 21.3 L33.5 21.75 33.4 23.5 33.4 23.55 32.55 29.25 Q32.35 33.0 30.25 35.2 28.2 37.3 24.7 37.45 L24.4 37.45 10.15 36.65 10.0 36.65 Q7.25 36.6 4.9 35.05 L4.55 35.05 4.3 35.35 3.9 36.3 Q3.5 36.65 2.95 36.65 L-7.1 37.0 -7.35 36.7 Q-7.25 36.6 -7.45 36.6 L-11.15 37.2 -11.65 37.05 -12.0 36.55 Q-12.1 36.1 -12.45 36.1 L-20.65 35.95 Q-21.95 35.95 -22.75 34.85 L-22.75 34.75 -30.05 24.3 Q-30.15 24.1 -30.4 24.15 L-30.65 24.4 -34.7 35.65 -34.8 35.9 Q-35.2 37.1 -36.5 37.35 L-36.75 37.4 -49.3 39.7 -53.05 40.5 Q-53.45 40.6 -53.7 40.25 -53.95 39.95 -53.8 39.6 L-52.35 36.55 -51.6 35.15 -51.4 34.5 Q-48.15 27.4 -44.5 20.1 -44.45 19.9 -44.55 19.8 -44.75 19.6 -44.95 19.65 L-53.5 21.65 -54.55 21.5 -55.2 20.7 -59.2 4.9 Q-59.35 4.4 -58.95 3.95 -58.65 3.55 -58.1 3.5 L-56.25 3.3 -40.1 2.25 Q-39.45 2.15 -39.55 1.5 L-40.2 -2.95 Q-40.25 -3.45 -39.9 -3.8 -39.55 -4.15 -39.0 -4.1 L-36.7 -3.85 -25.8 -2.5 -24.65 -2.35 Q-24.05 -2.25 -23.65 -1.8 -23.3 -1.4 -23.35 -0.85 L-23.45 0.55 -23.3 1.0 -22.85 1.2 -16.4 1.0 -15.95 0.85 Q-15.7 0.6 -15.75 0.35 L-16.1 -2.35 -15.75 -3.4 Q-15.4 -3.85 -14.8 -3.95 L-13.65 -4.1 -12.35 -4.25 -10.0 -4.0 -8.75 -4.15 Q-7.35 -4.85 -5.95 -4.85 L-2.4 -4.85 Q1.95 -4.75 4.15 -2.1 L4.55 -1.85 Q4.8 -1.85 4.95 -2.1 L6.25 -4.1 7.15 -4.75 8.3 -4.75 14.95 -2.4 Q15.5 -2.15 15.8 -2.65 L16.6 -3.2 17.6 -3.1 21.2 -1.2 Q21.8 -0.85 22.1 -1.45 L23.0 -3.5 Q23.25 -3.95 23.85 -4.2 24.35 -4.4 24.9 -4.2 L34.25 -0.75 34.9 -0.05 Q35.1 0.4 34.75 0.85 L30.4 7.05 Q30.05 7.65 30.5 8.1 L34.05 11.9 34.35 12.7 M-5.75 -3.55 Q-7.55 -3.6 -8.95 -1.7 -9.75 -2.75 -11.55 -2.95 L-13.2 -2.9 -9.6 33.0 -5.7 32.4 -6.25 22.45 -2.0 22.55 -2.2 29.05 -4.45 28.5 -4.65 32.95 1.75 32.8 2.85 6.25 8.7 13.75 14.05 11.35 9.4 5.15 14.0 -1.25 8.15 -3.35 2.9 4.9 3.05 2.0 Q3.0 -3.45 -2.45 -3.5 L-5.75 -3.55 M-2.4 9.55 L-7.6 9.55 Q-7.9 7.3 -6.25 7.2 L-2.2 7.4 Q-1.3 7.3 -1.3 8.5 -1.25 9.6 -2.4 9.55 M-1.2 17.4 Q-1.15 17.85 -1.25 18.15 L-7.15 18.6 Q-7.65 18.55 -7.65 17.25 -7.7 16.0 -7.3 15.5 -7.15 15.25 -6.2 15.1 L-5.35 15.05 Q-3.1 14.8 -2.15 15.65 -1.3 16.45 -1.2 17.4 M9.85 14.45 Q6.35 14.7 4.7 16.4 3.3 17.85 3.0 20.5 L3.2 26.65 Q3.65 29.55 5.85 31.2 7.75 32.75 10.25 32.75 L24.65 33.5 Q29.75 33.35 30.0 27.65 L30.8 21.9 Q31.5 15.75 25.6 15.1 L21.4 14.9 21.75 13.35 18.4 13.3 21.6 10.75 17.7 5.3 22.35 1.05 17.5 -1.5 12.95 5.55 17.3 13.3 14.25 13.3 14.4 14.55 9.85 14.45 M-14.05 16.35 Q-14.15 15.8 -14.8 15.8 L-20.2 16.3 -20.55 16.5 -20.5 16.85 Q-17.2 20.85 -13.45 25.7 L-13.2 25.75 -13.1 25.55 -14.05 16.35 M-14.35 2.25 L-26.6 2.6 -26.3 -1.25 -37.2 -2.6 -36.35 3.3 -56.2 4.6 -53.0 17.5 -39.45 14.5 Q-45.25 25.75 -49.9 35.9 L-37.3 33.5 -31.3 16.75 Q-26.2 23.75 -20.65 32.05 L-10.75 32.25 Q-18.4 22.2 -26.1 13.0 L-26.15 12.95 -14.1 11.8 -14.35 2.25 M14.4 24.5 L10.85 28.4 7.75 28.2 8.15 19.95 11.65 19.9 14.4 24.5 M10.65 25.2 L10.6 25.7 10.7 25.8 10.85 25.75 Q11.15 25.45 10.85 25.15 10.65 24.9 10.65 25.2 M31.4 -0.35 L25.15 -2.65 20.8 6.75 25.95 14.3 30.9 11.05 26.6 6.55 31.4 -0.35 M19.05 28.95 L14.55 28.65 17.85 26.2 19.05 28.95 M23.85 19.9 L24.7 19.9 24.2 29.35 22.55 29.25 19.3 23.6 23.85 19.9 M19.05 19.9 L17.15 22.15 15.6 19.9 19.05 19.9" fill="#7e1865" fill-rule="evenodd" stroke="none"/>
    <path d="M9.85 14.45 L14.4 14.55 14.25 13.3 17.3 13.3 12.95 5.55 17.5 -1.5 22.35 1.05 17.7 5.3 21.6 10.75 18.4 13.3 21.75 13.35 21.4 14.9 25.6 15.1 Q31.5 15.75 30.8 21.9 L30.0 27.65 Q29.75 33.35 24.65 33.5 L10.25 32.75 Q7.75 32.75 5.85 31.2 3.65 29.55 3.2 26.65 L3.0 20.5 Q3.3 17.85 4.7 16.4 6.35 14.7 9.85 14.45 M-1.2 17.4 Q-1.3 16.45 -2.15 15.65 -3.1 14.8 -5.35 15.05 L-6.2 15.1 Q-7.15 15.25 -7.3 15.5 -7.7 16.0 -7.65 17.25 -7.65 18.55 -7.15 18.6 L-1.25 18.15 Q-1.15 17.85 -1.2 17.4 M-2.4 9.55 Q-1.25 9.6 -1.3 8.5 -1.3 7.3 -2.2 7.4 L-6.25 7.2 Q-7.9 7.3 -7.6 9.55 L-2.4 9.55 M-5.75 -3.55 L-2.45 -3.5 Q3.0 -3.45 3.05 2.0 L2.9 4.9 8.15 -3.35 14.0 -1.25 9.4 5.15 14.05 11.35 8.7 13.75 2.85 6.25 1.75 32.8 -4.65 32.95 -4.45 28.5 -2.2 29.05 -2.0 22.55 -6.25 22.45 -5.7 32.4 -9.6 33.0 -13.2 -2.9 -11.55 -2.95 Q-9.75 -2.75 -8.95 -1.7 -7.55 -3.6 -5.75 -3.55 M14.4 24.5 L11.65 19.9 8.15 19.95 7.75 28.2 10.85 28.4 14.4 24.5 M-14.35 2.25 L-14.1 11.8 -26.15 12.95 -26.1 13.0 Q-18.4 22.2 -10.75 32.25 L-20.65 32.05 Q-26.2 23.75 -31.3 16.75 L-37.3 33.5 -49.9 35.9 Q-45.25 25.75 -39.45 14.5 L-53.0 17.5 -56.2 4.6 -36.35 3.3 -37.2 -2.6 -26.3 -1.25 -26.6 2.6 -14.35 2.25 M19.05 19.9 L15.6 19.9 17.15 22.15 19.05 19.9 M23.85 19.9 L19.3 23.6 22.55 29.25 24.2 29.35 24.7 19.9 23.85 19.9 M19.05 28.95 L17.85 26.2 14.55 28.65 19.05 28.95 M31.4 -0.35 L26.6 6.55 30.9 11.05 25.95 14.3 20.8 6.75 25.15 -2.65 31.4 -0.35" fill="#e86288" fill-rule="evenodd" stroke="none"/>
  </g>
</svg>
