<?xml version="1.0" encoding="UTF-8" standalone="no"?>
<svg xmlns:ffdec="https://www.free-decompiler.com/flash" xmlns:xlink="http://www.w3.org/1999/xlink" ffdec:objectType="shape" height="22.85px" width="123.75px" xmlns="http://www.w3.org/2000/svg">
  <g transform="matrix(1.0, 0.0, 0.0, 1.0, 61.85, -40.2)">
    <path d="M58.6 43.55 Q61.9 46.9 61.9 51.6 61.9 56.35 58.6 59.7 55.2 63.05 50.5 63.05 L-50.45 63.05 Q-55.15 63.05 -58.5 59.7 -61.85 56.35 -61.85 51.6 -61.85 46.9 -58.5 43.55 -55.15 40.2 -50.45 40.2 L50.5 40.2 Q55.2 40.2 58.6 43.55" fill="url(#gradient0)" fill-rule="evenodd" stroke="none"/>
    <path d="M50.5 41.1 Q54.2 41.1 56.85 43.75 59.45 46.4 59.45 50.1 59.45 53.8 56.85 56.45 54.2 59.05 50.5 59.05 L-50.45 59.05 Q-54.15 59.05 -56.8 56.45 -59.4 53.8 -59.4 50.1 -59.4 46.4 -56.8 43.75 -54.15 41.1 -50.45 41.1 L50.5 41.1" fill="#ffffa2" fill-rule="evenodd" stroke="none"/>
    <path d="M-55.9 53.6 Q-56.95 52.0 -56.95 50.1 -56.95 47.4 -55.05 45.5 -53.15 43.55 -50.45 43.55 L-39.75 43.55 Q-46.95 49.4 -53.2 56.0 -54.9 55.2 -55.9 53.6" fill="#e5c125" fill-rule="evenodd" stroke="none"/>
    <path d="M-50.45 56.6 Q-51.9 56.6 -53.2 56.0 -46.95 49.4 -39.75 43.55 L-6.7 43.55 -24.2 56.6 -50.45 56.6" fill="#dba511" fill-rule="evenodd" stroke="none"/>
    <path d="M-6.7 43.55 L1.7 43.55 -6.3 50.1 -14.3 56.6 -24.2 56.6 -6.7 43.55" fill="#ffdc4c" fill-rule="evenodd" stroke="none"/>
    <path d="M30.75 43.55 L15.25 56.6 -14.3 56.6 -6.3 50.1 1.7 43.55 30.75 43.55" fill="#ffffa2" fill-rule="evenodd" stroke="none"/>
    <path d="M54.6 45.0 Q55.75 45.95 56.35 47.25 57.0 48.6 57.0 50.1 57.0 52.8 55.1 54.7 53.2 56.6 50.5 56.6 L40.8 56.6 54.6 45.0" fill="#dba511" fill-rule="evenodd" stroke="none"/>
    <path d="M50.5 43.55 Q52.8 43.55 54.6 45.0 L40.8 56.6 34.65 56.6 48.05 43.55 50.5 43.55" fill="#e5c125" fill-rule="evenodd" stroke="none"/>
    <path d="M34.65 56.6 L15.25 56.6 30.75 43.55 48.05 43.55 34.65 56.6" fill="#ffdc4c" fill-rule="evenodd" stroke="none"/>
  </g>
  <defs>
    <linearGradient gradientTransform="matrix(0.0, 0.0139, 0.0139, 0.0, 0.05, 51.45)" gradientUnits="userSpaceOnUse" id="gradient0" spreadMethod="pad" x1="-819.2" x2="819.2">
      <stop offset="0.41568627450980394" stop-color="#e6bb6e"/>
      <stop offset="0.807843137254902" stop-color="#6e3b46"/>
      <stop offset="1.0" stop-color="#000000"/>
    </linearGradient>
  </defs>
</svg>
