<?xml version="1.0" encoding="UTF-8" standalone="no"?>
<svg xmlns:ffdec="https://www.free-decompiler.com/flash" xmlns:xlink="http://www.w3.org/1999/xlink" ffdec:objectType="shape" height="78.9px" width="83.55px" xmlns="http://www.w3.org/2000/svg">
  <g transform="matrix(1.0, 0.0, 0.0, 1.0, 41.25, 47.5)">
    <path d="M8.9 -25.55 L7.15 -29.35 Q5.55 -32.15 7.15 -32.7 8.7 -33.2 10.05 -30.85 11.75 -27.8 12.55 -24.5 L12.25 -24.3 11.85 -24.3 8.9 -25.55 M6.65 -35.75 Q7.15 -34.85 6.5 -34.15 5.95 -33.45 5.15 -33.6 3.75 -33.85 3.0 -35.6 2.7 -36.4 3.2 -37.05 3.7 -37.75 4.6 -37.5 5.9 -37.15 6.65 -35.75 M-13.8 -39.1 Q-14.85 -40.0 -13.8 -41.05 -12.8 -42.1 -11.5 -41.25 -9.35 -39.85 -8.45 -36.8 -7.55 -33.7 -8.7 -30.9 -9.25 -29.6 -10.5 -30.2 -11.75 -30.8 -11.45 -31.8 -10.65 -34.45 -11.4 -36.25 -11.95 -37.55 -13.8 -39.1" fill="#5ebfed" fill-rule="evenodd" stroke="none"/>
    <path d="M6.65 -35.75 Q5.9 -37.15 4.6 -37.5 3.7 -37.75 3.2 -37.05 2.7 -36.4 3.0 -35.6 3.75 -33.85 5.15 -33.6 5.95 -33.45 6.5 -34.15 7.15 -34.85 6.65 -35.75 M12.55 -24.5 Q11.75 -27.8 10.05 -30.85 8.7 -33.2 7.15 -32.7 5.55 -32.15 7.15 -29.35 L8.9 -25.55 Q4.3 -26.95 -0.4 -25.1 -4.55 -23.45 -8.2 -19.7 L-8.1 -21.55 Q-7.9 -23.7 -7.5 -24.25 -4.15 -27.65 -3.6 -32.55 -3.2 -35.9 -5.6 -40.45 -3.3 -41.35 -0.7 -41.25 1.9 -41.15 3.9 -40.05 7.5 -38.05 10.45 -33.2 12.8 -29.4 13.9 -25.4 L12.55 -24.5 M-7.9 -43.9 L-8.15 -43.8 -8.25 -43.9 -7.9 -43.9 M-19.1 3.7 L-20.8 5.15 Q-24.95 3.2 -31.0 -6.65 -35.75 -14.45 -37.15 -18.45 L-34.05 -19.85 -32.8 -16.25 Q-32.15 -14.65 -30.8 -15.0 -29.4 -15.4 -30.15 -16.95 L-31.5 -19.95 -31.75 -20.75 Q-29.2 -21.75 -27.1 -22.35 -28.25 -29.6 -27.55 -33.0 -26.35 -39.05 -22.3 -42.0 -19.0 -44.4 -15.2 -44.05 -13.2 -43.85 -11.3 -42.6 -9.5 -41.45 -8.4 -39.8 -6.75 -37.25 -6.6 -34.3 -6.4 -31.1 -8.1 -28.65 -9.75 -26.25 -11.65 -24.8 -14.05 -23.0 -18.5 -21.2 L-16.05 -21.05 -12.6 -21.7 -11.35 -15.85 Q-13.9 -12.15 -15.55 -7.55 -17.25 -2.7 -17.15 1.9 L-21.25 -1.9 -22.5 -1.75 Q-23.35 -1.1 -23.05 -0.4 -22.5 0.9 -19.1 3.7 M-13.8 -39.1 Q-11.95 -37.55 -11.4 -36.25 -10.65 -34.45 -11.45 -31.8 -11.75 -30.8 -10.5 -30.2 -9.25 -29.6 -8.7 -30.9 -7.55 -33.7 -8.45 -36.8 -9.35 -39.85 -11.5 -41.25 -12.8 -42.1 -13.8 -41.05 -14.85 -40.0 -13.8 -39.1 M-26.3 -4.55 Q-25.4 -3.35 -24.45 -4.2 -23.55 -5.05 -24.3 -6.15 L-27.75 -11.9 Q-28.05 -12.45 -28.95 -12.1 -29.9 -11.75 -29.85 -10.95 -29.7 -9.3 -26.3 -4.55" fill="#1279bf" fill-rule="evenodd" stroke="none"/>
    <path d="M8.9 -25.55 L11.85 -24.3 12.1 -24.2 12.25 -24.3 12.55 -24.5 13.9 -25.4 16.6 -26.55 20.1 -26.9 Q23.05 -26.65 25.85 -25.0 28.65 -23.3 30.75 -20.45 32.85 -17.65 33.25 -13.0 33.65 -8.15 32.0 -3.35 33.95 -2.1 37.4 -0.75 40.7 0.55 42.3 1.65 42.05 5.65 32.6 17.9 22.3 31.15 16.35 31.4 15.0 29.5 13.2 26.25 L10.9 22.15 Q4.15 23.8 -2.55 21.4 -8.95 19.1 -13.0 14.1 -15.35 11.2 -16.35 7.55 L-17.0 4.4 -17.15 1.95 -17.15 1.9 Q-17.25 -2.7 -15.55 -7.55 -13.9 -12.15 -11.35 -15.85 L-8.5 -19.4 -8.2 -19.7 Q-4.55 -23.45 -0.4 -25.1 4.3 -26.95 8.9 -25.55 M32.75 1.5 Q30.2 0.2 28.3 -0.6 30.3 -7.4 30.05 -11.1 29.55 -17.25 25.95 -20.65 22.95 -23.45 19.15 -23.55 17.1 -23.6 15.05 -22.65 13.15 -21.7 11.85 -20.15 9.9 -17.8 9.4 -14.9 8.8 -11.75 10.2 -9.15 11.55 -6.55 13.25 -4.9 15.4 -2.8 19.6 -0.5 L17.15 -0.65 Q15.15 -1.15 13.85 -1.75 12.25 3.7 11.1 5.55 7.95 10.85 1.9 11.75 0.4 11.95 -0.55 11.3 L-1.35 10.5 Q6.1 10.05 8.5 3.0 9.3 0.6 9.35 -2.1 9.45 -4.25 9.1 -4.85 6.1 -8.65 6.2 -13.55 6.25 -17.0 9.15 -21.2 6.95 -22.4 4.4 -22.6 1.75 -22.8 -0.35 -21.9 -4.15 -20.35 -7.65 -15.95 -10.55 -12.3 -12.2 -8.25 -13.9 -3.95 -13.95 0.3 -14.05 5.3 -11.8 9.65 -10.15 12.9 -6.05 15.45 -2.75 17.6 0.5 18.35 6.35 19.95 12.2 18.05 L15.5 22.3 17.2 24.25 18.7 25.95 Q23.05 24.5 30.25 15.45 35.95 8.3 37.8 4.5 L34.95 2.7 33.2 1.75 32.75 1.5" fill="#7f092c" fill-rule="evenodd" stroke="none"/>
    <path d="M13.9 -25.4 Q12.8 -29.4 10.45 -33.2 7.5 -38.05 3.9 -40.05 1.9 -41.15 -0.7 -41.25 -3.3 -41.35 -5.6 -40.45 -3.2 -35.9 -3.6 -32.55 -4.15 -27.65 -7.5 -24.25 -7.9 -23.7 -8.1 -21.55 L-8.2 -19.7 -8.5 -19.4 -11.35 -15.85 -12.6 -21.7 -16.05 -21.05 -18.5 -21.2 Q-14.05 -23.0 -11.65 -24.8 -9.75 -26.25 -8.1 -28.65 -6.4 -31.1 -6.6 -34.3 -6.75 -37.25 -8.4 -39.8 -9.5 -41.45 -11.3 -42.6 -13.2 -43.85 -15.2 -44.05 -19.0 -44.4 -22.3 -42.0 -26.35 -39.05 -27.55 -33.0 -28.25 -29.6 -27.1 -22.35 -29.2 -21.75 -31.75 -20.75 L-32.2 -20.6 -34.05 -19.85 -37.15 -18.45 Q-35.75 -14.45 -31.0 -6.65 -24.95 3.2 -20.8 5.15 L-19.1 3.7 -17.15 1.95 -17.0 4.4 -16.35 7.55 -19.1 10.85 Q-25.0 9.9 -33.6 -4.55 -41.5 -17.8 -41.25 -21.8 -39.5 -22.75 -36.1 -23.6 -32.5 -24.5 -30.45 -25.5 -31.5 -30.45 -30.5 -35.25 -29.55 -39.8 -27.1 -42.35 -24.7 -44.9 -21.75 -46.25 -18.8 -47.6 -15.8 -47.5 -11.8 -47.3 -8.25 -43.9 L-8.15 -43.8 -7.9 -43.9 Q-1.55 -46.4 4.3 -43.2 8.4 -41.0 11.7 -36.55 14.95 -32.15 16.6 -26.55 L13.9 -25.4" fill="#00435d" fill-rule="evenodd" stroke="none"/>
    <path d="M11.85 -24.3 L12.25 -24.3 12.1 -24.2 11.85 -24.3 M17.1 -18.85 Q18.25 -19.6 17.4 -20.75 16.5 -21.9 15.1 -21.25 12.8 -20.15 11.55 -17.2 10.3 -14.2 11.05 -11.35 11.45 -9.95 12.8 -10.4 14.1 -10.8 13.9 -11.85 13.45 -14.6 14.4 -16.3 15.1 -17.5 17.1 -18.85 M15.5 22.3 L12.2 18.05 Q6.35 19.95 0.5 18.35 -2.75 17.6 -6.05 15.45 -10.15 12.9 -11.8 9.65 -14.05 5.3 -13.95 0.3 -13.9 -3.95 -12.2 -8.25 -10.55 -12.3 -7.65 -15.95 -4.15 -20.35 -0.35 -21.9 1.75 -22.8 4.4 -22.6 6.95 -22.4 9.15 -21.2 6.25 -17.0 6.2 -13.55 6.1 -8.65 9.1 -4.85 9.45 -4.25 9.35 -2.1 9.3 0.6 8.5 3.0 6.1 10.05 -1.35 10.5 L-0.55 11.3 Q0.4 11.95 1.9 11.75 7.95 10.85 11.1 5.55 12.25 3.7 13.85 -1.75 15.15 -1.15 17.15 -0.65 L19.6 -0.5 Q15.4 -2.8 13.25 -4.9 11.55 -6.55 10.2 -9.15 8.8 -11.75 9.4 -14.9 9.9 -17.8 11.85 -20.15 13.15 -21.7 15.05 -22.65 17.1 -23.6 19.15 -23.55 22.95 -23.45 25.95 -20.65 29.55 -17.25 30.05 -11.1 30.3 -7.4 28.3 -0.6 30.2 0.2 32.75 1.5 L32.35 2.3 30.65 5.1 Q29.75 6.6 31.05 7.15 32.35 7.65 33.2 6.15 L34.95 2.7 37.8 4.5 Q35.95 8.3 30.25 15.45 23.05 24.5 18.7 25.95 L17.2 24.25 Q20.9 22.0 21.6 20.7 22.0 20.0 21.25 19.3 20.55 18.6 20.05 18.95 L15.5 22.3 M0.0 -17.4 Q0.4 -18.15 0.05 -18.85 -0.35 -19.6 -1.3 -19.5 -2.6 -19.3 -3.6 -17.95 -4.15 -17.15 -3.65 -16.35 -3.15 -15.6 -2.35 -15.65 -0.8 -15.8 0.0 -17.4 M28.9 9.8 L27.65 9.85 23.55 15.1 Q22.65 16.15 23.5 17.1 24.35 18.0 25.35 16.95 29.3 12.7 29.65 11.05 29.85 10.3 28.9 9.8 M-4.45 -15.0 Q-5.95 -15.7 -7.55 -13.5 -10.15 -10.0 -11.35 -5.8 -12.75 -0.95 -11.6 3.1 -11.25 4.4 -10.9 4.75 L-10.2 4.85 Q-9.5 4.75 -9.0 3.9 -8.5 2.95 -8.7 2.05 -10.15 -4.25 -4.85 -11.65 -2.95 -14.3 -4.45 -15.0" fill="#de3e53" fill-rule="evenodd" stroke="none"/>
    <path d="M17.1 -18.85 Q15.1 -17.5 14.4 -16.3 13.45 -14.6 13.9 -11.85 14.1 -10.8 12.8 -10.4 11.45 -9.95 11.05 -11.35 10.3 -14.2 11.55 -17.2 12.8 -20.15 15.1 -21.25 16.5 -21.9 17.4 -20.75 18.25 -19.6 17.1 -18.85 M0.0 -17.4 Q-0.8 -15.8 -2.35 -15.65 -3.15 -15.6 -3.65 -16.35 -4.15 -17.15 -3.6 -17.95 -2.6 -19.3 -1.3 -19.5 -0.35 -19.6 0.05 -18.85 0.4 -18.15 0.0 -17.4 M-4.45 -15.0 Q-2.95 -14.3 -4.85 -11.65 -10.15 -4.25 -8.7 2.05 -8.5 2.95 -9.0 3.9 -9.5 4.75 -10.2 4.85 L-10.9 4.75 Q-11.25 4.4 -11.6 3.1 -12.75 -0.95 -11.35 -5.8 -10.15 -10.0 -7.55 -13.5 -5.95 -15.7 -4.45 -15.0" fill="#ed7c88" fill-rule="evenodd" stroke="none"/>
    <path d="M32.75 1.5 L33.2 1.75 34.95 2.7 33.2 6.15 Q32.35 7.65 31.05 7.15 29.75 6.6 30.65 5.1 L32.35 2.3 32.75 1.5 M17.2 24.25 L15.5 22.3 20.05 18.95 Q20.55 18.6 21.25 19.3 22.0 20.0 21.6 20.7 20.9 22.0 17.2 24.25 M28.9 9.8 Q29.85 10.3 29.65 11.05 29.3 12.7 25.35 16.95 24.35 18.0 23.5 17.1 22.65 16.15 23.55 15.1 L27.65 9.85 28.9 9.8" fill="#8f2c29" fill-rule="evenodd" stroke="none"/>
    <path d="M-17.15 1.95 L-19.1 3.7 Q-22.5 0.9 -23.05 -0.4 -23.35 -1.1 -22.5 -1.75 L-21.25 -1.9 -17.15 1.9 -17.15 1.95 M-34.05 -19.85 L-32.2 -20.6 -31.75 -20.75 -31.5 -19.95 -30.15 -16.95 Q-29.4 -15.4 -30.8 -15.0 -32.15 -14.65 -32.8 -16.25 L-34.05 -19.85 M-26.3 -4.55 Q-29.7 -9.3 -29.85 -10.95 -29.9 -11.75 -28.95 -12.1 -28.05 -12.45 -27.75 -11.9 L-24.3 -6.15 Q-23.55 -5.05 -24.45 -4.2 -25.4 -3.35 -26.3 -4.55" fill="#00568d" fill-rule="evenodd" stroke="none"/>
  </g>
</svg>
