<?xml version="1.0" encoding="UTF-8" standalone="no"?>
<svg xmlns:ffdec="https://www.free-decompiler.com/flash" xmlns:xlink="http://www.w3.org/1999/xlink" ffdec:objectType="shape" height="248.5px" width="254.05px" xmlns="http://www.w3.org/2000/svg">
  <g transform="matrix(1.0, 0.0, 0.0, 1.0, 0.0, 0.0)">
    <path d="M165.3 92.45 Q149.4 108.35 127.0 108.35 104.6 108.35 88.75 92.45 72.85 76.6 72.85 54.2 72.85 31.8 88.75 15.9 104.6 0.0 127.0 0.0 149.45 0.0 165.3 15.9 181.2 31.8 181.2 54.2 181.2 76.6 165.3 92.45" fill="#006b45" fill-rule="evenodd" stroke="none"/>
    <path d="M54.15 70.05 Q76.6 70.05 92.45 85.95 108.35 101.85 108.35 124.25 108.35 146.65 92.45 162.55 76.55 178.45 54.15 178.45 31.75 178.45 15.9 162.55 0.0 146.65 0.0 124.25 0.0 101.85 15.9 85.95 31.75 70.05 54.15 70.05" fill="#006b45" fill-rule="evenodd" stroke="none"/>
    <path d="M238.15 85.95 Q254.05 101.85 254.05 124.25 254.05 146.65 238.15 162.55 222.3 178.45 199.9 178.45 177.5 178.45 161.6 162.55 145.7 146.65 145.7 124.25 145.7 101.85 161.6 85.95 177.5 70.05 199.9 70.05 222.3 70.05 238.15 85.95" fill="#006b45" fill-rule="evenodd" stroke="none"/>
    <path d="M181.2 194.3 Q181.2 216.7 165.3 232.6 149.4 248.5 127.0 248.5 104.6 248.5 88.75 232.6 72.85 216.7 72.85 194.3 72.85 171.9 88.75 156.0 104.6 140.1 127.0 140.1 149.45 140.1 165.3 156.0 181.2 171.9 181.2 194.3" fill="#006b45" fill-rule="evenodd" stroke="none"/>
    <path d="M54.15 75.9 Q73.25 75.9 86.75 89.4 100.25 102.9 100.25 122.0 100.25 141.05 86.75 154.55 73.25 168.05 54.15 168.05 35.1 168.05 21.6 154.55 8.1 141.05 8.1 122.0 8.1 102.9 21.6 89.4 35.1 75.9 54.15 75.9" fill="#006b45" fill-rule="evenodd" stroke="none"/>
    <path d="M54.15 113.45 Q50.6 113.45 48.15 115.95 45.65 118.45 45.65 122.0 45.65 125.55 48.15 128.0 50.65 130.5 54.15 130.5 57.7 130.5 60.2 128.0 62.7 125.55 62.7 122.0 62.7 118.45 60.2 115.95 57.7 113.45 54.15 113.45 M33.95 92.95 Q36.0 91.5 39.05 90.0 L43.05 95.2 50.4 93.25 51.25 86.7 Q54.3 86.45 57.15 86.75 L58.0 93.2 65.35 95.2 69.3 90.0 Q72.15 91.35 74.45 93.0 L71.95 98.95 77.35 104.35 83.3 101.85 86.25 107.05 81.15 110.95 83.1 118.25 89.45 119.1 Q89.7 122.2 89.4 125.05 L83.15 125.9 81.15 133.25 86.2 137.05 Q84.95 139.65 83.2 142.25 L77.35 139.8 72.0 145.2 74.4 151.0 69.25 154.0 65.4 149.0 58.05 151.0 57.25 157.2 Q54.45 157.5 51.3 157.25 L50.45 151.0 43.1 149.05 39.25 154.1 Q36.4 152.75 34.1 151.1 L36.55 145.25 31.15 139.85 25.25 142.35 Q23.5 139.8 22.25 137.2 L27.35 133.3 25.35 125.95 18.95 125.1 Q18.65 122.35 18.9 119.15 L25.35 118.35 27.3 111.0 22.1 107.0 Q23.3 104.4 25.05 101.9 L31.1 104.4 36.5 99.0 33.95 92.95" fill="#006b45" fill-rule="evenodd" stroke="none"/>
    <path d="M199.9 75.9 Q218.95 75.9 232.45 89.4 245.95 102.9 245.95 122.0 245.95 141.05 232.45 154.55 218.95 168.05 199.9 168.05 180.8 168.05 167.3 154.55 153.8 141.05 153.8 122.0 153.8 102.9 167.3 89.4 180.8 75.9 199.9 75.9" fill="#006b45" fill-rule="evenodd" stroke="none"/>
    <path d="M202.55 137.25 Q208.9 136.15 212.6 130.85 216.3 125.6 215.15 119.3 214.05 112.95 208.75 109.25 203.5 105.6 197.2 106.7 190.85 107.85 187.15 113.1 183.5 118.35 184.6 124.65 185.75 131.0 191.0 134.7 196.25 138.4 202.55 137.25 M229.45 110.35 Q235.75 116.2 238.65 122.0 235.75 127.8 229.45 133.65 216.85 145.25 199.9 145.25 182.95 145.25 170.3 133.65 166.35 130.0 163.35 125.65 L161.1 122.0 Q164.0 116.2 170.3 110.35 182.95 98.7 199.9 98.75 216.85 98.7 229.45 110.35" fill="#006b45" fill-rule="evenodd" stroke="none"/>
    <path d="M159.6 19.35 Q173.1 32.85 173.1 51.95 173.1 71.0 159.6 84.5 146.1 98.0 127.0 98.0 107.95 98.0 94.45 84.5 80.95 71.0 80.95 51.95 80.95 32.85 94.45 19.35 107.95 5.85 127.0 5.85 146.1 5.85 159.6 19.35" fill="#006b45" fill-rule="evenodd" stroke="none"/>
    <path d="M105.75 37.05 L105.75 66.35 97.65 66.35 97.65 47.15 Q95.55 48.7 93.85 49.55 L89.2 51.3 89.2 44.75 Q93.15 43.55 95.55 41.6 97.85 39.7 99.1 37.05 L105.75 37.05" fill="#006b45" fill-rule="evenodd" stroke="none"/>
    <path d="M137.65 45.4 Q137.65 48.1 136.1 50.45 134.65 52.8 130.5 55.7 L127.25 58.05 125.35 59.8 137.85 59.8 137.85 66.35 113.85 66.35 Q114.2 62.85 116.35 59.65 118.45 56.5 124.2 52.25 127.8 49.55 128.7 48.25 129.7 46.85 129.7 45.7 129.7 44.35 128.7 43.45 127.65 42.5 126.25 42.5 124.75 42.5 123.75 43.5 122.75 44.4 122.45 46.9 L114.45 46.25 Q114.9 42.75 116.15 40.95 117.45 39.0 119.7 38.05 121.9 37.05 126.05 37.05 130.35 37.05 132.6 38.0 135.0 38.95 136.3 40.95 137.65 43.0 137.65 45.4" fill="#006b45" fill-rule="evenodd" stroke="none"/>
    <path d="M162.35 47.8 Q161.25 49.4 159.25 50.45 L161.8 51.4 Q163.2 52.3 164.05 53.75 164.85 55.25 164.85 57.2 164.85 59.75 163.5 62.0 162.25 64.35 159.7 65.55 157.25 66.8 153.2 66.8 149.35 66.8 147.0 65.9 144.7 65.0 143.3 63.2 141.8 61.4 141.05 58.7 L149.05 57.65 Q149.5 60.05 150.5 61.0 151.45 61.95 153.0 61.95 154.65 61.95 155.7 60.75 156.75 59.65 156.75 57.6 156.75 55.55 155.75 54.5 154.65 53.4 152.95 53.4 L150.35 53.9 150.75 48.2 151.8 48.25 Q153.45 48.25 154.45 47.25 155.5 46.3 155.5 44.9 155.5 43.6 154.7 42.8 153.9 42.0 152.55 42.0 151.1 42.0 150.25 42.85 149.35 43.75 149.05 45.85 L141.45 44.5 Q142.45 40.9 145.1 38.95 147.75 37.05 152.7 37.05 158.3 37.05 160.85 39.15 163.35 41.25 163.35 44.4 163.35 46.25 162.35 47.8" fill="#006b45" fill-rule="evenodd" stroke="none"/>
    <path d="M159.6 159.45 Q173.1 172.95 173.1 192.05 173.1 211.1 159.6 224.6 146.1 238.1 127.0 238.1 107.95 238.1 94.45 224.6 80.95 211.1 80.95 192.05 80.95 172.95 94.45 159.45 107.95 145.95 127.0 145.95 146.1 145.95 159.6 159.45" fill="#006b45" fill-rule="evenodd" stroke="none"/>
    <path d="M99.55 169.2 L140.65 164.1 146.15 208.35 105.05 213.45 99.55 169.2" fill="#006b45" fill-rule="evenodd" stroke="none"/>
    <path d="M145.85 171.0 L149.0 170.6 154.5 214.9 113.4 220.0 105.05 213.45 110.45 212.8 115.25 216.55 150.95 212.1 145.85 171.0" fill="#006b45" fill-rule="evenodd" stroke="none"/>
  </g>
</svg>
