<?xml version="1.0" encoding="UTF-8" standalone="no"?>
<svg xmlns:ffdec="https://www.free-decompiler.com/flash" xmlns:xlink="http://www.w3.org/1999/xlink" ffdec:objectType="shape" height="133.6px" width="195.25px" xmlns="http://www.w3.org/2000/svg">
  <g transform="matrix(1.0, 0.0, 0.0, 1.0, 113.65, 65.15)">
    <path d="M1.8 -16.95 Q-5.1 -10.05 -14.85 -10.05 -24.6 -10.05 -31.5 -16.95 -38.4 -23.85 -38.4 -33.6 -38.4 -43.35 -31.5 -50.25 -24.6 -57.15 -14.85 -57.15 -5.1 -57.15 1.8 -50.25 8.7 -43.35 8.7 -33.6 8.7 -23.85 1.8 -16.95" fill="#c27a2d" fill-rule="evenodd" stroke="none"/>
    <path d="M-46.5 -26.7 Q-36.75 -26.7 -29.9 -19.8 -22.95 -12.9 -22.95 -3.15 -22.95 6.55 -29.9 13.45 -36.75 20.4 -46.5 20.4 -56.25 20.4 -63.15 13.45 -70.05 6.6 -70.05 -3.15 -70.05 -12.9 -63.15 -19.8 -56.25 -26.7 -46.5 -26.7" fill="#9d1e60" fill-rule="evenodd" stroke="none"/>
    <path d="M33.45 -19.8 Q40.35 -12.9 40.35 -3.15 40.35 6.55 33.45 13.45 26.55 20.4 16.8 20.4 7.05 20.4 0.15 13.45 -6.75 6.6 -6.75 -3.15 -6.75 -12.9 0.15 -19.8 7.05 -26.7 16.8 -26.7 26.55 -26.7 33.45 -19.8" fill="#4a4eb0" fill-rule="evenodd" stroke="none"/>
    <path d="M8.7 27.25 Q8.7 37.0 1.8 43.9 -5.1 50.8 -14.85 50.8 -24.6 50.8 -31.5 43.9 -38.4 37.0 -38.4 27.25 -38.4 17.55 -31.5 10.65 -24.6 3.7 -14.85 3.7 -5.1 3.7 1.8 10.65 8.7 17.55 8.7 27.25" fill="#008546" fill-rule="evenodd" stroke="none"/>
    <path d="M-46.5 -24.15 Q-38.2 -24.15 -32.35 -18.3 -26.5 -12.45 -26.5 -4.15 -26.5 4.15 -32.35 10.0 -38.2 15.85 -46.5 15.85 -54.8 15.85 -60.65 10.0 -66.5 4.15 -66.5 -4.15 -66.5 -12.45 -60.65 -18.3 -54.8 -24.15 -46.5 -24.15" fill="#f5697d" fill-rule="evenodd" stroke="none"/>
    <path d="M-49.15 -6.75 Q-50.2 -5.7 -50.2 -4.15 -50.2 -2.6 -49.15 -1.5 -48.05 -0.45 -46.5 -0.45 -44.95 -0.45 -43.85 -1.5 -42.8 -2.6 -42.8 -4.15 -42.8 -5.7 -43.85 -6.75 -44.95 -7.85 -46.5 -7.85 -48.05 -7.85 -49.15 -6.75 M-55.3 -16.75 Q-54.25 -17.5 -53.05 -18.05 L-51.35 -15.8 -48.15 -16.65 -47.8 -19.45 -45.2 -19.45 -44.85 -16.65 -41.65 -15.8 -39.95 -18.05 Q-38.75 -17.5 -37.7 -16.75 L-38.8 -14.15 -36.45 -11.8 -33.85 -12.9 -32.6 -10.65 -34.8 -8.95 -33.9 -5.75 -31.2 -5.4 -31.2 -2.8 -33.9 -2.45 -34.75 0.75 -32.6 2.4 -33.9 4.65 -36.4 3.6 -38.75 5.95 -37.7 8.45 Q-38.75 9.2 -39.95 9.75 L-41.6 7.6 -44.8 8.45 -45.15 11.15 -47.75 11.15 -48.1 8.45 -51.3 7.6 -52.95 9.8 -55.25 8.5 -54.15 5.95 -56.5 3.65 -59.1 4.7 -60.4 2.45 -58.15 0.75 -59.05 -2.45 -61.8 -2.75 -61.85 -5.35 -59.05 -5.75 -58.2 -8.9 -60.45 -10.65 -59.15 -12.9 -56.55 -11.8 -54.2 -14.15 -55.3 -16.75" fill="#ffffff" fill-rule="evenodd" stroke="none"/>
    <path d="M16.8 -24.15 Q25.1 -24.15 30.95 -18.3 36.8 -12.45 36.8 -4.15 36.8 4.15 30.95 10.0 25.1 15.85 16.8 15.85 8.5 15.85 2.65 10.0 -3.2 4.15 -3.2 -4.15 -3.2 -12.45 2.65 -18.3 8.5 -24.15 16.8 -24.15" fill="#59b6f2" fill-rule="evenodd" stroke="none"/>
    <path d="M18.0 2.5 Q20.7 2.0 22.3 -0.3 23.9 -2.55 23.45 -5.3 22.95 -8.1 20.65 -9.65 18.4 -11.25 15.65 -10.8 12.85 -10.3 11.3 -8.0 9.7 -5.75 10.2 -2.95 10.65 -0.25 12.95 1.35 15.2 3.0 18.0 2.5 M29.65 -9.2 Q32.4 -6.65 33.65 -4.15 32.4 -1.6 29.65 0.9 24.15 5.95 16.8 5.95 9.45 5.95 3.95 0.9 2.25 -0.65 0.95 -2.55 L-0.05 -4.15 Q1.25 -6.65 3.95 -9.2 9.45 -14.25 16.8 -14.25 24.15 -14.25 29.65 -9.2" fill="#ffffff" fill-rule="evenodd" stroke="none"/>
    <path d="M-0.7 -48.7 Q5.15 -42.9 5.15 -34.6 5.15 -26.3 -0.7 -20.45 -6.55 -14.55 -14.85 -14.55 -23.15 -14.55 -29.0 -20.45 -34.85 -26.3 -34.85 -34.6 -34.85 -42.9 -29.0 -48.7 -23.15 -54.6 -14.85 -54.6 -6.55 -54.6 -0.7 -48.7" fill="#ffe86e" fill-rule="evenodd" stroke="none"/>
    <path d="M-24.1 -41.05 L-24.1 -28.3 -27.6 -28.3 -27.6 -36.65 -29.25 -35.6 -31.25 -34.85 -31.25 -37.7 Q-29.55 -38.25 -28.5 -39.1 -27.55 -39.9 -27.0 -41.05 L-24.1 -41.05" fill="#ffffff" fill-rule="evenodd" stroke="none"/>
    <path d="M-10.25 -37.4 Q-10.25 -36.25 -10.9 -35.25 -11.6 -34.2 -13.35 -32.95 L-14.75 -31.95 -15.6 -31.15 -10.15 -31.15 -10.15 -28.3 -20.6 -28.3 Q-20.4 -29.9 -19.5 -31.25 -18.6 -32.6 -16.1 -34.45 -14.55 -35.6 -14.15 -36.15 -13.7 -36.75 -13.7 -37.3 -13.7 -37.85 -14.15 -38.25 -14.55 -38.65 -15.2 -38.65 -15.85 -38.65 -16.3 -38.25 L-16.85 -36.75 -20.3 -37.05 Q-20.15 -38.45 -19.6 -39.35 -19.05 -40.15 -18.05 -40.6 L-15.3 -41.05 -12.4 -40.65 Q-11.4 -40.2 -10.85 -39.35 -10.25 -38.45 -10.25 -37.4" fill="#ffffff" fill-rule="evenodd" stroke="none"/>
    <path d="M0.5 -36.4 L-0.85 -35.25 0.25 -34.8 1.25 -33.8 1.55 -32.3 Q1.55 -31.2 1.0 -30.2 0.4 -29.2 -0.65 -28.65 -1.75 -28.1 -3.45 -28.1 L-6.15 -28.5 Q-7.1 -28.9 -7.8 -29.7 -8.45 -30.45 -8.75 -31.6 L-5.3 -32.1 Q-5.1 -31.05 -4.65 -30.65 -4.25 -30.25 -3.55 -30.25 -2.85 -30.25 -2.4 -30.75 -1.9 -31.25 -1.9 -32.1 -1.9 -33.0 -2.4 -33.45 -2.85 -33.95 -3.6 -33.95 L-4.75 -33.75 -4.55 -36.2 -4.1 -36.15 Q-3.4 -36.15 -2.95 -36.6 -2.5 -37.05 -2.5 -37.65 -2.5 -38.25 -2.85 -38.55 -3.2 -38.9 -3.75 -38.9 -4.35 -38.9 -4.75 -38.55 L-5.3 -37.25 -8.55 -37.8 Q-8.2 -39.4 -7.0 -40.25 -5.8 -41.05 -3.7 -41.05 -1.25 -41.05 -0.15 -40.15 0.9 -39.25 0.9 -37.85 0.9 -37.0 0.5 -36.4" fill="#ffffff" fill-rule="evenodd" stroke="none"/>
    <path d="M-29.0 12.15 Q-23.15 6.3 -14.85 6.3 -6.55 6.3 -0.7 12.15 5.15 18.0 5.15 26.3 5.15 34.6 -0.7 40.45 -6.55 46.3 -14.85 46.3 -23.15 46.3 -29.0 40.45 -34.85 34.6 -34.85 26.3 -34.85 18.0 -29.0 12.15" fill="#6ee087" fill-rule="evenodd" stroke="none"/>
    <path d="M-26.8 16.35 L-8.95 14.15 -6.55 33.35 -24.4 35.6 -26.8 16.35" fill="#ffffff" fill-rule="evenodd" stroke="none"/>
    <path d="M-6.7 17.15 L-5.3 16.95 -2.9 36.2 -20.8 38.45 -24.4 35.6 -22.05 35.3 -20.0 36.95 -4.45 35.0 -6.7 17.15" fill="#ffffff" fill-rule="evenodd" stroke="none"/>
    <path d="M81.1 -64.65 L81.1 67.95 -113.15 67.95 -113.15 -64.65 81.1 -64.65" fill="#ffffff" fill-opacity="0.0" fill-rule="evenodd" stroke="none"/>
    <path d="M-113.15 -64.65 L-113.15 67.95 81.1 67.95 81.1 -64.65" fill="none" stroke="#ffffff" stroke-linecap="round" stroke-linejoin="round" stroke-opacity="0.0" stroke-width="1.0"/>
  </g>
</svg>
