<?xml version="1.0" encoding="UTF-8" standalone="no"?>
<svg xmlns:ffdec="https://www.free-decompiler.com/flash" xmlns:xlink="http://www.w3.org/1999/xlink" ffdec:objectType="shape" height="60.35px" width="69.35px" xmlns="http://www.w3.org/2000/svg">
  <g transform="matrix(1.0, 0.0, 0.0, 1.0, 34.65, 45.65)">
    <path d="M24.0 -36.3 Q22.25 -34.95 20.1 -32.05 19.05 -32.35 19.2 -34.9 19.35 -37.5 20.65 -39.35 21.75 -40.95 23.0 -41.8 22.85 -40.6 23.2 -39.05 L24.0 -36.3 M32.25 -36.1 Q31.9 -29.75 26.7 -23.3 21.45 -16.75 14.55 -14.3 12.7 -13.65 14.05 -16.25 15.4 -18.85 17.45 -20.15 18.55 -20.55 21.65 -24.1 25.1 -27.95 26.05 -30.5 30.0 -32.3 32.25 -36.1 M-7.4 -10.7 Q-10.9 -13.45 -13.85 -19.25 -18.55 -28.55 -18.75 -37.35 L-15.55 -37.05 Q-15.95 -30.45 -13.2 -24.7 -10.45 -18.95 -6.25 -17.6 -2.0 -16.25 1.3 -23.35 4.7 -30.45 2.55 -36.8 14.1 -37.1 17.75 -38.55 17.9 -35.65 17.7 -32.9 16.3 -25.75 8.55 -18.15 0.1 -9.75 -7.4 -10.7 M-11.35 9.3 L-12.35 8.25 Q-13.05 7.25 -11.5 5.85 -9.85 4.3 -6.75 3.45 -3.25 6.05 2.45 6.25 7.65 6.4 9.45 4.65 11.95 6.15 12.5 8.1 13.05 10.0 11.6 10.75 7.15 13.05 -1.55 12.15 L-3.0 12.0 -0.4 11.8 Q1.6 11.3 0.55 8.7 L-0.95 6.2 -5.15 4.65 Q-7.15 4.45 -9.9 6.65 -12.05 8.35 -11.35 9.3 M0.1 2.15 Q-2.45 3.2 -3.7 -0.4 -4.95 -4.0 -3.35 -4.7 -1.95 -5.3 0.4 -2.1 2.65 1.1 0.1 2.15 M-25.15 -19.95 Q-24.55 -21.8 -24.75 -24.3 -23.7 -22.6 -21.7 -20.9 -19.7 -19.1 -17.6 -17.95 L-14.75 -13.3 Q-17.3 -13.85 -20.1 -15.7 -22.75 -17.4 -25.15 -19.95" fill="#c99c32" fill-rule="evenodd" stroke="none"/>
    <path d="M23.0 -41.8 Q21.75 -40.95 20.65 -39.35 19.35 -37.5 19.2 -34.9 19.05 -32.35 20.1 -32.05 22.25 -34.95 24.0 -36.3 26.4 -38.1 26.95 -36.1 27.45 -34.15 26.05 -30.5 25.1 -27.95 21.65 -24.1 18.55 -20.55 17.45 -20.15 15.4 -18.85 14.05 -16.25 12.7 -13.65 14.55 -14.3 21.45 -16.75 26.7 -23.3 31.9 -29.75 32.25 -36.1 L32.25 -37.55 Q31.9 -42.35 28.7 -43.2 26.05 -43.9 23.0 -41.8 M24.4 -31.3 Q24.95 -33.55 23.85 -33.4 22.65 -33.3 19.85 -29.75 18.25 -24.45 17.45 -22.75 19.95 -23.9 22.0 -26.65 23.75 -29.05 24.4 -31.3 M24.3 -45.1 L29.65 -45.25 Q32.2 -44.35 33.55 -41.9 35.0 -39.25 34.6 -35.55 33.75 -28.05 28.25 -21.15 21.5 -12.75 11.25 -10.75 9.05 -8.65 6.55 -7.55 L4.65 0.4 8.4 1.65 Q12.4 3.05 13.7 4.2 16.65 6.6 16.4 9.05 16.2 11.15 14.0 12.25 8.8 14.9 -0.25 14.7 -9.45 14.5 -13.15 11.5 -15.15 9.95 -15.45 8.2 -15.75 6.0 -12.95 4.2 -10.55 2.65 -4.65 0.85 L-7.1 -7.6 Q-8.15 -8.15 -9.7 -9.25 L-11.05 -10.25 Q-21.55 -12.25 -28.35 -19.9 -34.0 -26.15 -34.6 -32.55 -35.2 -38.8 -29.55 -41.3 -23.9 -43.8 -19.4 -39.15 -13.35 -42.75 1.45 -43.05 15.65 -43.35 19.1 -40.8 21.35 -43.95 24.3 -45.1 M-7.4 -10.7 L-7.55 -10.75 Q-4.2 -7.45 0.3 -7.75 4.55 -8.05 8.55 -11.45 12.65 -14.9 15.05 -20.35 17.7 -26.3 17.7 -33.05 L17.7 -32.9 Q17.9 -35.65 17.75 -38.55 14.1 -37.1 2.55 -36.8 L2.5 -36.85 -15.55 -37.1 -15.55 -37.05 -18.75 -37.35 Q-18.55 -28.55 -13.85 -19.25 -10.9 -13.45 -7.4 -10.7 M-3.0 12.0 L-1.55 12.15 Q7.15 13.05 11.6 10.75 13.05 10.0 12.5 8.1 11.95 6.15 9.45 4.65 7.65 6.4 2.45 6.25 -3.25 6.05 -6.75 3.45 -9.85 4.3 -11.5 5.85 -13.05 7.25 -12.35 8.25 L-11.35 9.3 -10.75 9.75 -10.5 9.85 Q-9.1 10.7 -6.75 11.3 L-5.8 11.55 -3.0 12.0 M0.1 2.15 Q2.65 1.1 0.4 -2.1 -1.95 -5.3 -3.35 -4.7 -4.95 -4.0 -3.7 -0.4 -2.45 3.2 0.1 2.15 M-24.75 -24.3 Q-27.75 -28.95 -26.3 -31.95 -24.75 -34.95 -20.35 -30.25 L-21.95 -37.35 Q-22.5 -38.8 -24.0 -39.55 -25.5 -40.3 -27.15 -40.0 -31.45 -39.3 -32.15 -33.8 -32.4 -31.15 -30.4 -27.15 -28.45 -23.4 -25.15 -19.95 -22.75 -17.4 -20.1 -15.7 -17.3 -13.85 -14.75 -13.3 L-17.6 -17.95 Q-19.7 -19.1 -21.7 -20.9 -23.7 -22.6 -24.75 -24.3 M-24.25 -27.85 Q-23.35 -25.2 -21.35 -22.9 -19.05 -20.2 -16.55 -19.75 -18.95 -25.05 -19.75 -27.65 -22.85 -31.05 -24.05 -30.75 -25.1 -30.45 -24.25 -27.85" fill="#815903" fill-rule="evenodd" stroke="none"/>
    <path d="M24.55 -39.95 Q24.6 -38.7 26.65 -39.35 28.85 -40.1 28.55 -41.8 28.25 -43.55 26.15 -42.2 24.55 -41.15 24.55 -39.95 M23.0 -41.8 Q26.05 -43.9 28.7 -43.2 31.9 -42.35 32.25 -37.55 L32.25 -36.1 Q30.0 -32.3 26.05 -30.5 27.45 -34.15 26.95 -36.1 26.4 -38.1 24.0 -36.3 L23.2 -39.05 Q22.85 -40.6 23.0 -41.8 M-15.55 -37.05 L-15.55 -37.1 2.5 -36.85 2.55 -36.8 Q4.7 -30.45 1.3 -23.35 -2.0 -16.25 -6.25 -17.6 -10.45 -18.95 -13.2 -24.7 -15.95 -30.45 -15.55 -37.05 M-11.35 9.3 Q-12.05 8.35 -9.9 6.65 -7.15 4.45 -5.15 4.65 L-0.95 6.2 0.55 8.7 Q1.6 11.3 -0.4 11.8 L-3.0 12.0 -5.8 11.55 -6.75 11.3 Q-9.1 10.7 -10.5 9.85 L-10.75 9.75 -11.35 9.3 M-8.15 -26.85 Q-5.35 -27.15 -5.35 -31.15 -5.35 -34.8 -8.9 -33.95 -10.2 -33.65 -11.15 -32.75 -12.15 -31.8 -11.95 -30.95 -10.95 -26.55 -8.15 -26.85 M-29.3 -37.85 Q-30.05 -36.55 -28.75 -35.55 -27.5 -34.55 -26.55 -36.35 -25.55 -38.35 -26.75 -39.2 -28.0 -40.0 -29.3 -37.85 M-25.15 -19.95 Q-28.45 -23.4 -30.4 -27.15 -32.4 -31.15 -32.15 -33.8 -31.45 -39.3 -27.15 -40.0 -25.5 -40.3 -24.0 -39.55 -22.5 -38.8 -21.95 -37.35 L-20.35 -30.25 Q-24.75 -34.95 -26.3 -31.95 -27.75 -28.95 -24.75 -24.3 -24.55 -21.8 -25.15 -19.95" fill="#ffe211" fill-rule="evenodd" stroke="none"/>
    <path d="M24.55 -39.95 Q24.55 -41.15 26.15 -42.2 28.25 -43.55 28.55 -41.8 28.85 -40.1 26.65 -39.35 24.6 -38.7 24.55 -39.95 M-29.3 -37.85 Q-28.0 -40.0 -26.75 -39.2 -25.55 -38.35 -26.55 -36.35 -27.5 -34.55 -28.75 -35.55 -30.05 -36.55 -29.3 -37.85 M-8.15 -26.85 Q-10.95 -26.55 -11.95 -30.95 -12.15 -31.8 -11.15 -32.75 -10.2 -33.65 -8.9 -33.95 -5.35 -34.8 -5.35 -31.15 -5.35 -27.15 -8.15 -26.85" fill="#fdfdfd" fill-rule="evenodd" stroke="none"/>
    <path d="M17.7 -32.9 L17.7 -33.05 Q17.7 -26.3 15.05 -20.35 12.65 -14.9 8.55 -11.45 4.55 -8.05 0.3 -7.75 -4.2 -7.45 -7.55 -10.75 L-7.4 -10.7 Q0.1 -9.75 8.55 -18.15 16.3 -25.75 17.7 -32.9" fill="#e7bc6e" fill-rule="evenodd" stroke="none"/>
  </g>
</svg>
