<?xml version="1.0" encoding="UTF-8" standalone="no"?>
<svg xmlns:ffdec="https://www.free-decompiler.com/flash" xmlns:xlink="http://www.w3.org/1999/xlink" ffdec:objectType="shape" height="78.4px" width="73.95px" xmlns="http://www.w3.org/2000/svg">
  <g transform="matrix(1.0, 0.0, 0.0, 1.0, 36.95, 39.2)">
    <path d="M8.4 16.55 Q6.95 16.75 5.8 17.65 4.6 18.55 4.35 19.75 L4.25 19.3 Q5.0 17.15 7.4 16.65 L8.4 16.55" fill="#f8f1ad" fill-rule="evenodd" stroke="none"/>
    <path d="M-22.3 -18.0 Q-21.9 -18.0 -21.65 -17.75 L-21.4 -17.1 Q-21.4 -16.7 -21.65 -16.45 -21.9 -16.2 -22.3 -16.2 L-22.95 -16.45 -23.2 -17.1 -22.95 -17.75 -22.3 -18.0" fill="#fffffd" fill-rule="evenodd" stroke="none"/>
    <path d="M-20.6 -16.45 Q-20.6 -15.45 -21.3 -14.75 -21.95 -14.05 -22.95 -14.05 -23.95 -14.05 -24.65 -14.75 -25.35 -15.45 -25.35 -16.45 -25.35 -17.45 -24.65 -18.1 -23.95 -18.8 -22.95 -18.8 -21.95 -18.8 -21.3 -18.1 -20.6 -17.4 -20.6 -16.45 M-22.3 -18.0 L-22.95 -17.75 -23.2 -17.1 -22.95 -16.45 -22.3 -16.2 Q-21.9 -16.2 -21.65 -16.45 -21.4 -16.7 -21.4 -17.1 L-21.65 -17.75 Q-21.9 -18.0 -22.3 -18.0" fill="#373403" fill-rule="evenodd" stroke="none"/>
    <path d="M-10.9 -0.4 L-16.55 -3.2 -16.15 -3.55 -10.9 -0.4" fill="#efe59e" fill-rule="evenodd" stroke="none"/>
    <path d="M7.4 -20.8 L8.2 -21.1 2.65 -25.05 Q1.85 -25.55 -0.75 -28.6 -3.5 -31.85 -5.7 -33.55 -13.35 -39.4 -23.35 -35.6 -27.5 -34.0 -30.15 -30.05 -32.7 -26.35 -33.05 -21.75 -33.4 -17.15 -31.85 -13.7 L-34.75 -9.0 -29.0 -9.3 -29.5 -10.1 Q-27.45 -7.95 -24.3 -6.45 -24.15 -3.0 -23.3 -0.2 L-22.45 1.9 -17.6 -3.7 -16.55 -3.2 -10.9 -0.4 -17.25 -1.05 -21.2 4.2 -19.55 8.0 Q-16.35 13.8 -9.55 17.75 -3.2 21.45 3.25 21.95 L4.65 22.0 Q5.05 22.7 5.8 23.25 7.0 24.15 8.65 24.35 L9.4 27.35 -8.05 29.0 Q-10.2 29.15 -10.2 31.05 -10.2 32.0 -9.8 32.9 L7.05 30.45 -2.4 33.25 Q-4.5 33.75 -3.3 35.5 L-1.7 37.1 12.3 30.8 20.35 33.25 21.2 31.5 Q21.6 29.7 19.65 29.7 17.1 29.7 12.25 28.0 L11.85 24.0 13.2 23.25 Q14.75 22.1 14.75 20.45 L14.5 19.2 Q16.45 18.05 18.4 16.45 25.3 10.75 26.65 4.15 27.2 1.3 30.85 -2.2 34.5 -5.8 35.05 -8.1 30.95 -7.65 24.35 -10.95 22.2 -12.05 12.4 -17.95 L7.4 -20.8 M35.05 -10.0 Q38.35 -8.9 36.05 -5.0 L33.6 -2.0 30.85 0.75 Q29.55 2.2 28.6 4.95 L26.9 9.4 Q24.35 14.4 19.35 18.4 18.1 19.4 16.75 21.9 15.55 24.25 14.1 25.2 14.45 27.05 19.3 27.6 23.75 28.15 23.35 31.4 22.95 34.65 20.7 35.0 19.45 35.2 16.1 34.15 12.2 32.95 7.05 35.85 1.15 39.2 -1.7 39.2 -3.15 39.2 -4.55 37.5 -5.85 35.9 -5.85 34.45 L-8.85 34.85 Q-10.9 35.5 -11.7 33.75 -14.3 28.1 -6.3 26.55 L5.7 25.65 Q3.0 24.3 -2.55 22.25 -8.05 20.2 -10.6 18.95 -19.5 14.55 -22.7 6.25 -24.35 1.35 -25.35 -1.05 -27.05 -5.25 -29.3 -7.15 L-34.65 -7.1 Q-38.3 -7.3 -36.15 -10.75 -34.4 -13.55 -34.65 -18.95 -34.95 -24.9 -33.75 -27.8 -31.8 -32.55 -27.65 -35.5 -23.75 -38.3 -18.45 -39.05 -10.95 -40.1 -3.1 -33.95 1.3 -30.5 9.5 -22.75 19.2 -15.0 28.65 -11.35 30.45 -10.65 35.05 -10.0 M17.4 12.1 Q12.6 15.2 6.75 14.9 1.35 14.65 -2.65 11.65 -6.75 8.6 -7.25 4.3 -5.4 8.35 -1.35 10.5 2.6 12.55 7.5 12.3 18.75 11.75 25.75 1.3 22.95 8.55 17.4 12.1" fill="#735e2f" fill-rule="evenodd" stroke="none"/>
    <path d="M8.2 -2.95 Q10.55 -2.1 15.4 -3.35 L21.2 -5.3 Q20.4 -1.7 16.8 0.25 13.8 1.85 11.2 1.45 L14.85 1.6 Q17.15 1.15 18.65 -0.2 15.3 5.9 8.25 8.05 0.85 10.25 -2.95 5.15 -6.2 0.8 -4.35 -2.65 -2.7 -5.65 2.4 -7.5 7.0 -9.15 12.6 -9.35 18.15 -9.5 21.65 -8.1 21.25 -6.7 16.4 -4.75 11.4 -2.8 8.2 -2.95 M-31.85 -13.7 Q-33.4 -17.15 -33.05 -21.75 -32.7 -26.35 -30.15 -30.05 -27.5 -34.0 -23.35 -35.6 -13.35 -39.4 -5.7 -33.55 -3.5 -31.85 -0.75 -28.6 1.85 -25.55 2.65 -25.05 L8.2 -21.1 7.4 -20.8 -0.35 -17.95 3.85 -14.05 -4.9 -13.7 -3.15 -7.4 -9.5 -7.75 -10.9 -0.4 -16.15 -3.55 -16.55 -3.2 -17.6 -3.7 -22.45 1.9 -23.3 -0.2 Q-24.15 -3.0 -24.3 -6.45 -27.45 -7.95 -29.5 -10.1 -31.0 -11.75 -31.85 -13.7 M14.5 19.2 L14.75 20.45 Q14.75 22.1 13.2 23.25 L11.85 24.0 9.5 24.4 8.65 24.35 Q7.0 24.15 5.8 23.25 5.05 22.7 4.65 22.0 4.25 21.3 4.25 20.45 L4.35 19.75 Q4.6 18.55 5.8 17.65 6.95 16.75 8.4 16.55 L9.5 16.45 Q11.65 16.45 13.2 17.65 14.15 18.35 14.5 19.2 M-20.6 -16.45 Q-20.6 -17.4 -21.3 -18.1 -21.95 -18.8 -22.95 -18.8 -23.95 -18.8 -24.65 -18.1 -25.35 -17.45 -25.35 -16.45 -25.35 -15.45 -24.65 -14.75 -23.95 -14.05 -22.95 -14.05 -21.95 -14.05 -21.3 -14.75 -20.6 -15.45 -20.6 -16.45" fill="#fcee72" fill-rule="evenodd" stroke="none"/>
    <path d="M8.2 -2.95 Q11.4 -2.8 16.4 -4.75 21.25 -6.7 21.65 -8.1 18.15 -9.5 12.6 -9.35 7.0 -9.15 2.4 -7.5 -2.7 -5.65 -4.35 -2.65 -6.2 0.8 -2.95 5.15 0.85 10.25 8.25 8.05 15.3 5.9 18.65 -0.2 17.15 1.15 14.85 1.6 L11.2 1.45 Q13.8 1.85 16.8 0.25 20.4 -1.7 21.2 -5.3 L15.4 -3.35 Q10.55 -2.1 8.2 -2.95 M7.4 -20.8 L12.4 -17.95 Q22.2 -12.05 24.35 -10.95 30.95 -7.65 35.05 -8.1 34.5 -5.8 30.85 -2.2 27.2 1.3 26.65 4.15 25.3 10.75 18.4 16.45 16.45 18.05 14.5 19.2 14.15 18.35 13.2 17.65 11.65 16.45 9.5 16.45 L8.4 16.55 7.4 16.65 Q5.0 17.15 4.25 19.3 L4.35 19.75 4.25 20.45 Q4.25 21.3 4.65 22.0 L3.25 21.95 Q-3.2 21.45 -9.55 17.75 -16.35 13.8 -19.55 8.0 L-21.2 4.2 -17.25 -1.05 -10.9 -0.4 -9.5 -7.75 -3.15 -7.4 -4.9 -13.7 3.85 -14.05 -0.35 -17.95 7.4 -20.8 M17.4 12.1 Q22.95 8.55 25.75 1.3 18.75 11.75 7.5 12.3 2.6 12.55 -1.35 10.5 -5.4 8.35 -7.25 4.3 -6.75 8.6 -2.65 11.65 1.35 14.65 6.75 14.9 12.6 15.2 17.4 12.1" fill="#f4d557" fill-rule="evenodd" stroke="none"/>
    <path d="M11.85 24.0 L12.25 28.0 Q17.1 29.7 19.65 29.7 21.6 29.7 21.2 31.5 L20.35 33.25 12.3 30.8 -1.7 37.1 -3.3 35.5 Q-4.5 33.75 -2.4 33.25 L7.05 30.45 -9.8 32.9 Q-10.2 32.0 -10.2 31.05 -10.2 29.15 -8.05 29.0 L9.4 27.35 8.65 24.35 9.5 24.4 11.85 24.0 M-29.5 -10.1 L-29.0 -9.3 -34.75 -9.0 -31.85 -13.7 Q-31.0 -11.75 -29.5 -10.1" fill="#f9ae42" fill-rule="evenodd" stroke="none"/>
  </g>
</svg>
