<?xml version="1.0" encoding="UTF-8" standalone="no"?>
<svg xmlns:ffdec="https://www.free-decompiler.com/flash" xmlns:xlink="http://www.w3.org/1999/xlink" ffdec:objectType="shape" height="32.3px" width="46.55px" xmlns="http://www.w3.org/2000/svg">
  <g transform="matrix(1.0, 0.0, 0.0, 1.0, 23.25, 16.15)">
    <path d="M5.95 0.0 Q5.95 2.6 4.05 4.45 2.25 6.3 -0.4 6.3 L-0.4 9.0 Q3.35 9.0 6.0 6.35 8.65 3.75 8.65 0.0 8.65 -3.75 6.0 -6.4 3.35 -9.0 -0.4 -9.0 L-0.4 -6.3 Q2.25 -6.3 4.05 -4.45 5.95 -2.6 5.95 0.0 M7.85 -8.25 Q9.5 -6.65 10.35 -4.55 11.3 -2.4 11.3 0.0 11.3 2.4 10.35 4.55 9.5 6.6 7.85 8.25 6.25 9.85 4.2 10.7 2.0 11.65 -0.4 11.65 L-0.4 14.35 Q5.6 14.35 9.8 10.15 14.0 5.95 14.0 0.0 14.0 -5.95 9.8 -10.15 5.6 -14.35 -0.4 -14.35 L-0.4 -11.65 Q2.0 -11.65 4.2 -10.75 6.25 -9.85 7.85 -8.25 M22.2 -15.05 L22.2 15.05 -22.15 15.05 -22.15 -15.05 22.2 -15.05 M-9.6 -4.6 L-14.15 -4.6 -14.15 6.1 -9.6 6.1 -3.4 12.25 -3.4 -10.7 -9.6 -4.6" fill="#000000" fill-rule="evenodd" stroke="none"/>
    <path d="M7.85 -8.25 Q6.25 -9.85 4.2 -10.75 2.0 -11.65 -0.4 -11.65 L-0.4 -14.35 Q5.6 -14.35 9.8 -10.15 14.0 -5.95 14.0 0.0 14.0 5.95 9.8 10.15 5.6 14.35 -0.4 14.35 L-0.4 11.65 Q2.0 11.65 4.2 10.7 6.25 9.85 7.85 8.25 9.5 6.6 10.35 4.55 11.3 2.4 11.3 0.0 11.3 -2.4 10.35 -4.55 9.5 -6.65 7.85 -8.25 M5.95 0.0 Q5.95 -2.6 4.05 -4.45 2.25 -6.3 -0.4 -6.3 L-0.4 -9.0 Q3.35 -9.0 6.0 -6.4 8.65 -3.75 8.65 0.0 8.65 3.75 6.0 6.35 3.35 9.0 -0.4 9.0 L-0.4 6.3 Q2.25 6.3 4.05 4.45 5.95 2.6 5.95 0.0 M23.3 -16.15 L23.3 16.15 -23.25 16.15 -23.25 -16.15 23.3 -16.15 M22.2 -15.05 L-22.15 -15.05 -22.15 15.05 22.2 15.05 22.2 -15.05 M-9.6 -4.6 L-3.4 -10.7 -3.4 12.25 -9.6 6.1 -14.15 6.1 -14.15 -4.6 -9.6 -4.6" fill="#ffffff" fill-rule="evenodd" stroke="none"/>
  </g>
</svg>
