<?xml version="1.0" encoding="UTF-8" standalone="no"?>
<svg xmlns:ffdec="https://www.free-decompiler.com/flash" xmlns:xlink="http://www.w3.org/1999/xlink" ffdec:objectType="shape" height="35.9px" width="51.8px" xmlns="http://www.w3.org/2000/svg">
  <g transform="matrix(1.0, 0.0, 0.0, 1.0, 25.9, 17.95)">
    <path d="M25.9 17.95 L-25.9 17.95 -25.9 -17.95 25.9 -17.95 25.9 17.95 M24.65 16.75 L24.65 -16.75 -24.65 -16.75 -24.65 16.75 24.65 16.75" fill="#ffffff" fill-rule="evenodd" stroke="none"/>
    <path d="M5.7 -5.45 Q6.15 -2.85 4.65 -0.65 3.15 1.5 0.55 1.95 -2.05 2.4 -4.2 0.9 -6.4 -0.6 -6.85 -3.2 -7.3 -5.8 -5.8 -8.0 -4.25 -10.15 -1.7 -10.6 0.9 -11.05 3.1 -9.55 5.25 -8.05 5.7 -5.45" fill="#030303" fill-rule="evenodd" stroke="none"/>
    <path d="M5.7 -5.45 Q5.25 -8.05 3.1 -9.55 0.9 -11.05 -1.7 -10.6 -4.25 -10.15 -5.8 -8.0 -7.3 -5.8 -6.85 -3.2 -6.4 -0.6 -4.2 0.9 -2.05 2.4 0.55 1.95 3.15 1.5 4.65 -0.65 6.15 -2.85 5.7 -5.45 M24.65 16.75 L-24.65 16.75 -24.65 -16.75 24.65 -16.75 24.65 16.75" fill="#000000" fill-rule="evenodd" stroke="none"/>
    <path d="M15.45 -6.15 Q18.8 -3.1 20.35 0.0 18.8 3.0 15.45 6.05 8.9 12.2 0.0 12.2 -8.95 12.2 -15.5 6.05 -17.55 4.15 -19.15 1.85 L-20.35 0.0 Q-18.85 -3.1 -15.5 -6.15 -8.95 -12.25 0.0 -12.25 8.9 -12.25 15.45 -6.15 M8.0 -1.5 Q7.4 -4.8 4.65 -6.75 1.85 -8.65 -1.45 -8.1 -4.7 -7.5 -6.7 -4.75 -8.6 -1.95 -8.05 1.4 -7.45 4.7 -4.65 6.6 -1.9 8.55 1.4 7.95 4.75 7.4 6.65 4.65 8.55 1.85 8.0 -1.5" fill="#ffffff" fill-rule="evenodd" stroke="none"/>
  </g>
</svg>
