<?xml version="1.0" encoding="UTF-8" standalone="no"?>
<svg xmlns:ffdec="https://www.free-decompiler.com/flash" xmlns:xlink="http://www.w3.org/1999/xlink" ffdec:objectType="shape" height="35.9px" width="51.8px" xmlns="http://www.w3.org/2000/svg">
  <g transform="matrix(1.0, 0.0, 0.0, 1.0, 25.9, 17.95)">
    <path d="M25.9 -17.95 L25.9 17.95 -25.9 17.95 -25.9 -17.95 25.9 -17.95 M24.65 -16.75 L-24.65 -16.75 -24.65 16.75 24.65 16.75 24.65 -16.75" fill="#ffffff" fill-rule="evenodd" stroke="none"/>
    <path d="M24.65 -16.75 L24.65 16.75 -24.65 16.75 -24.65 -16.75 24.65 -16.75" fill="#000000" fill-rule="evenodd" stroke="none"/>
    <path d="M4.0 -7.45 L3.4 -8.5 3.35 -7.7 2.75 -7.1 4.0 -7.45 M-2.7 -11.65 L-3.3 -10.85 -3.45 -11.4 -2.7 -11.65 M0.4 -12.1 L0.95 -12.05 1.0 -10.9 2.2 -10.25 3.0 -11.55 Q4.7 -10.95 6.0 -9.8 L5.2 -8.7 4.5 -8.25 5.05 -7.55 5.8 -8.0 6.25 -7.05 5.3 -6.45 4.4 -7.1 2.75 -6.55 2.75 -5.8 1.95 -5.9 2.15 -4.95 3.9 -4.9 5.2 -5.55 6.7 -5.25 7.15 -4.1 6.1 -3.6 5.65 -4.25 5.05 -3.4 4.35 -4.4 2.4 -4.3 1.35 -3.4 1.8 -1.9 3.05 -0.75 4.75 -1.15 4.75 0.05 5.1 0.8 4.7 2.0 4.95 2.75 7.15 0.95 8.55 -2.45 7.75 -3.9 8.9 -3.5 8.9 -3.2 Q8.9 0.45 6.3 3.05 3.7 5.7 0.0 5.7 -3.7 5.7 -6.25 3.05 -8.9 0.45 -8.9 -3.2 -8.9 -5.0 -8.2 -6.6 L-7.45 -5.3 -5.3 -4.55 -6.25 -2.2 -5.05 -0.9 -5.45 2.7 -4.5 3.5 -4.15 4.35 -3.4 4.4 -3.25 2.8 -1.4 0.7 -1.7 0.0 -3.1 -2.1 -4.5 -1.9 -5.55 -3.15 -4.3 -4.9 -5.65 -5.6 -5.3 -6.45 -3.8 -6.05 -1.8 -6.9 -2.05 -7.8 -1.5 -7.6 -0.7 -8.15 -0.9 -9.75 -2.15 -9.7 -3.5 -8.75 -3.45 -10.15 -0.55 -10.7 0.4 -12.1" fill="#000000" fill-rule="evenodd" stroke="none"/>
    <path d="M0.4 -12.1 L-0.55 -10.7 -3.45 -10.15 -3.5 -8.75 -2.15 -9.7 -0.9 -9.75 -0.7 -8.15 -1.5 -7.6 -2.05 -7.8 -1.8 -6.9 -3.8 -6.05 -5.3 -6.45 -5.65 -5.6 -4.3 -4.9 -5.55 -3.15 -4.5 -1.9 -3.1 -2.1 -1.7 0.0 -1.4 0.7 -3.25 2.8 -3.4 4.4 -4.15 4.35 -4.5 3.5 -5.45 2.7 -5.05 -0.9 -6.25 -2.2 -5.3 -4.55 -7.45 -5.3 -8.2 -6.6 Q-8.9 -5.0 -8.9 -3.2 -8.9 0.45 -6.25 3.05 -3.7 5.7 0.0 5.7 3.7 5.7 6.3 3.05 8.9 0.45 8.9 -3.2 L8.9 -3.5 7.75 -3.9 8.55 -2.45 7.15 0.95 4.95 2.75 4.7 2.0 5.1 0.8 4.75 0.05 4.75 -1.15 3.05 -0.75 1.8 -1.9 1.35 -3.4 2.4 -4.3 4.35 -4.4 5.05 -3.4 5.65 -4.25 6.1 -3.6 7.15 -4.1 6.7 -5.25 5.2 -5.55 3.9 -4.9 2.15 -4.95 1.95 -5.9 2.75 -5.8 2.75 -6.55 4.4 -7.1 5.3 -6.45 6.25 -7.05 5.8 -8.0 5.05 -7.55 4.5 -8.25 5.2 -8.7 6.0 -9.8 Q4.7 -10.95 3.0 -11.55 L2.2 -10.25 1.0 -10.9 0.95 -12.05 0.4 -12.1 M-2.7 -11.65 L-3.45 -11.4 -3.3 -10.85 -2.7 -11.65 M4.0 -7.45 L2.75 -7.1 3.35 -7.7 3.4 -8.5 4.0 -7.45 M0.0 -13.65 Q4.35 -13.65 7.4 -10.6 10.45 -7.5 10.45 -3.2 10.45 1.15 7.4 4.2 4.35 7.25 0.0 7.25 -4.3 7.25 -7.35 4.2 -10.4 1.15 -10.4 -3.2 -10.4 -7.5 -7.35 -10.6 -4.3 -13.65 0.0 -13.65" fill="#ffffff" fill-rule="evenodd" stroke="none"/>
  </g>
</svg>
