<?xml version="1.0" encoding="UTF-8" standalone="no"?>
<svg xmlns:ffdec="https://www.free-decompiler.com/flash" xmlns:xlink="http://www.w3.org/1999/xlink" ffdec:objectType="shape" height="38.1px" width="141.3px" xmlns="http://www.w3.org/2000/svg">
  <g transform="matrix(1.0, 0.0, 0.0, 1.0, 70.05, 18.65)">
    <path d="M71.25 0.4 Q71.25 8.25 65.7 13.85 60.1 19.45 52.25 19.45 L-51.0 19.45 Q-58.85 19.45 -64.45 13.85 -70.05 8.25 -70.05 0.4 -70.05 -7.5 -64.45 -13.05 -58.85 -18.65 -51.0 -18.65 L52.25 -18.65 Q60.1 -18.65 65.7 -13.05 71.25 -7.5 71.25 0.4" fill="url(#gradient0)" fill-rule="evenodd" stroke="none"/>
    <path d="M52.25 -17.1 Q58.45 -17.1 62.8 -12.75 67.2 -8.35 67.2 -2.15 67.2 4.05 62.8 8.45 58.45 12.8 52.25 12.8 L-51.0 12.8 Q-57.2 12.8 -61.55 8.45 -65.95 4.05 -65.95 -2.15 -65.95 -8.35 -61.55 -12.75 -57.15 -17.1 -51.0 -17.1 L52.25 -17.1" fill="#ffffa1" fill-rule="evenodd" stroke="none"/>
    <path d="M-60.1 3.75 Q-61.85 1.05 -61.85 -2.15 -61.85 -6.65 -58.65 -9.85 -55.5 -13.05 -51.0 -13.05 L-33.25 -13.05 Q-45.1 -3.45 -55.6 7.7 -58.45 6.35 -60.1 3.75" fill="#e4c025" fill-rule="evenodd" stroke="none"/>
    <path d="M-51.0 8.75 Q-53.45 8.75 -55.6 7.7 -45.1 -3.45 -33.25 -13.05 L-8.1 -13.05 -37.3 8.75 -51.0 8.75" fill="#daa411" fill-rule="evenodd" stroke="none"/>
    <path d="M-8.1 -13.05 L5.95 -13.05 -7.4 -2.15 -20.8 8.75 -37.3 8.75 -8.1 -13.05" fill="#ffdb4c" fill-rule="evenodd" stroke="none"/>
    <path d="M-7.4 -2.15 L5.95 -13.05 34.3 -13.05 8.45 8.75 -20.8 8.75 -7.4 -2.15" fill="#ffffa1" fill-rule="evenodd" stroke="none"/>
    <path d="M59.1 -10.6 Q60.95 -9.1 62.0 -6.9 63.1 -4.65 63.1 -2.15 63.1 2.35 59.95 5.55 56.75 8.75 52.25 8.75 L36.05 8.75 59.1 -10.6" fill="#daa411" fill-rule="evenodd" stroke="none"/>
    <path d="M52.25 -13.05 Q56.05 -13.05 59.1 -10.6 L36.05 8.75 25.85 8.75 48.15 -13.05 52.25 -13.05" fill="#e4c025" fill-rule="evenodd" stroke="none"/>
    <path d="M34.3 -13.05 L48.15 -13.05 25.85 8.75 8.45 8.75 34.3 -13.05" fill="#ffdb4c" fill-rule="evenodd" stroke="none"/>
    <path d="M-48.15 -10.15 L-46.55 -6.85 -42.95 -6.35 Q-41.8 -6.2 -41.4 -5.05 -41.05 -3.95 -41.9 -3.15 L-44.5 -0.6 -43.9 3.0 Q-43.8 3.55 -44.0 4.05 L-44.65 4.85 -45.75 5.2 -46.6 5.0 -49.85 3.3 -53.05 5.0 -53.95 5.2 -55.05 4.85 -55.7 4.05 -55.8 3.0 -55.2 -0.6 -57.8 -3.15 Q-58.6 -3.95 -58.25 -5.05 -57.9 -6.2 -56.75 -6.35 L-53.15 -6.85 -51.55 -10.15 -50.85 -10.9 -49.85 -11.2 -48.85 -10.9 -48.15 -10.15" fill="url(#gradient1)" fill-rule="evenodd" stroke="none"/>
    <path d="M-46.5 -2.25 L-46.5 -2.15 -53.2 -1.95 -53.15 -2.25 -55.7 -4.75 -50.95 -5.3 -46.1 -5.9 -43.2 -5.5 -46.5 -2.25" fill="#ffffff" fill-rule="evenodd" stroke="none"/>
    <path d="M-46.5 -2.15 L-45.75 2.3 -49.85 0.15 -53.95 2.3 -53.2 -1.95 -46.5 -2.15" fill="#fdf397" fill-rule="evenodd" stroke="none"/>
    <path d="M-47.8 -6.15 L-46.1 -5.9 -50.95 -5.3 -55.7 -4.75 -56.5 -5.5 -51.9 -6.15 -49.85 -10.3 -47.8 -6.15" fill="#fdf397" fill-rule="evenodd" stroke="none"/>
    <path d="M53.2 -6.95 L56.8 -6.4 Q57.95 -6.25 58.3 -5.1 58.5 -4.6 58.35 -4.1 L57.85 -3.2 55.25 -0.65 55.85 2.95 55.75 3.95 55.1 4.8 54.0 5.15 53.1 4.95 49.9 3.25 46.65 4.95 45.8 5.15 44.7 4.8 44.05 3.95 Q43.85 3.45 43.95 2.95 L44.55 -0.65 41.95 -3.2 41.4 -4.1 41.45 -5.1 Q41.85 -6.25 43.0 -6.4 L46.6 -6.95 48.2 -10.2 48.9 -10.95 49.9 -11.25 Q51.05 -11.25 51.6 -10.2 L53.2 -6.95" fill="url(#gradient2)" fill-rule="evenodd" stroke="none"/>
    <path d="M53.6 -2.6 L53.2 -2.25 54.0 2.3 49.9 0.15 45.8 2.3 46.55 -2.25 46.5 -2.3 53.6 -2.6" fill="#ffff9f" fill-rule="evenodd" stroke="none"/>
    <path d="M51.95 -6.15 L56.55 -5.5 53.6 -2.6 46.5 -2.3 43.25 -5.5 47.85 -6.15 48.15 -6.75 51.5 -7.05 51.95 -6.15" fill="#ffffff" fill-rule="evenodd" stroke="none"/>
    <path d="M48.15 -6.75 L49.9 -10.3 51.5 -7.05 48.15 -6.75" fill="#ffff9f" fill-rule="evenodd" stroke="none"/>
    <path d="M13.35 0.65 L13.4 0.55 13.5 0.55 13.65 0.45 13.7 0.45 13.7 0.15 Q13.35 0.0 12.9 -0.3 L12.05 1.75 12.2 1.75 Q12.55 0.95 13.35 0.65 M-24.2 -1.25 L-25.35 -1.25 -25.9 -1.35 -26.1 -0.9 Q-25.55 0.1 -26.3 1.6 L-26.35 1.7 -26.4 1.8 -26.85 2.45 -26.8 2.5 -26.55 2.3 Q-25.05 0.75 -24.2 -1.25 M0.8 1.75 L0.8 1.7 0.1 -0.75 -0.3 -0.5 Q0.25 1.0 -0.95 2.25 L-1.45 2.65 -1.1 3.05 Q-0.55 1.85 0.7 1.75 L0.8 1.75 M12.4 -7.0 Q12.95 -7.85 14.25 -8.05 L17.9 -8.05 18.05 -8.0 19.0 -8.2 24.8 -8.2 Q26.0 -8.1 26.6 -7.15 27.3 -7.75 28.5 -7.75 L30.85 -7.75 Q31.45 -8.55 32.45 -8.75 L32.5 -8.75 32.65 -8.8 33.0 -8.8 Q34.35 -8.8 35.1 -7.75 L37.5 -7.75 Q38.9 -7.75 39.75 -6.9 40.45 -6.1 40.45 -5.0 40.45 -3.2 39.9 -2.25 L39.85 -2.1 Q40.3 -0.25 38.6 0.75 38.95 1.7 39.8 2.25 40.65 2.75 40.8 3.65 41.0 4.65 40.35 5.6 L40.25 5.7 40.2 5.8 Q39.4 6.6 38.4 6.6 37.6 6.6 36.9 6.0 L36.15 5.45 35.9 5.7 Q34.8 6.8 32.85 6.8 L31.6 6.7 Q30.55 6.55 29.9 5.75 L28.7 6.2 27.9 6.3 Q27.05 6.3 26.3 5.65 25.45 6.35 24.2 6.35 L23.4 6.35 Q21.8 6.35 21.0 5.6 L20.5 4.8 Q19.75 5.6 18.5 6.15 17.65 6.65 16.85 6.65 15.45 6.65 14.8 5.4 L14.75 5.15 14.3 5.15 13.9 5.1 Q13.35 6.25 12.1 6.45 L0.7 6.45 Q-0.4 6.25 -0.9 5.45 -1.5 6.75 -3.05 6.75 L-3.75 6.7 -10.0 5.25 Q-11.05 5.05 -11.6 4.35 -12.15 3.6 -12.1 2.6 L-12.1 2.45 -12.05 2.35 -11.95 1.95 -12.1 1.75 Q-12.7 0.9 -12.5 -0.15 L-12.55 -0.15 -12.8 -0.2 -12.8 0.4 -13.15 3.2 Q-13.35 4.4 -14.1 5.2 -15.3 6.5 -17.5 6.5 L-20.25 6.1 Q-21.55 5.7 -21.9 4.4 L-23.55 5.95 -23.65 6.05 -25.05 6.5 Q-25.85 6.5 -26.5 6.0 -27.1 6.7 -28.15 6.7 L-28.95 6.6 -33.75 5.1 -34.0 5.05 Q-34.45 6.6 -36.1 6.7 L-36.3 6.75 -36.4 6.7 Q-37.25 6.65 -37.95 6.1 -38.55 5.55 -38.65 4.7 L-38.8 4.7 Q-40.65 4.7 -41.1 2.9 L-41.15 2.65 -41.15 2.5 Q-41.15 1.35 -40.4 0.65 L-40.55 0.5 Q-41.25 -0.3 -40.9 -1.8 L-40.55 -3.5 Q-41.05 -4.1 -41.15 -5.05 L-41.15 -5.15 Q-41.15 -7.1 -39.3 -7.55 L-39.2 -7.8 -39.0 -8.15 Q-38.3 -9.0 -37.15 -9.0 L-36.6 -8.9 Q-35.3 -8.6 -34.9 -7.55 L-34.8 -7.55 -34.4 -7.5 -33.85 -7.55 -33.5 -7.55 Q-32.8 -8.9 -31.35 -8.9 L-30.9 -8.85 -30.75 -8.85 Q-29.55 -8.55 -29.15 -7.55 L-27.9 -7.55 Q-27.05 -7.45 -26.45 -6.95 -26.3 -7.85 -25.45 -8.35 L-25.3 -8.55 -24.0 -8.8 Q-23.1 -8.8 -22.4 -8.15 -21.8 -8.8 -20.75 -8.9 L-20.5 -8.9 Q-19.55 -8.8 -18.95 -8.15 -18.35 -7.5 -18.35 -6.5 L-18.35 -6.05 -15.6 -6.05 Q-14.6 -6.05 -14.05 -5.65 -13.75 -7.55 -11.95 -7.7 L-10.05 -7.7 Q-9.35 -8.85 -8.0 -8.85 L-7.55 -8.8 -7.4 -8.8 -7.25 -8.75 -5.95 -7.7 -1.6 -7.7 Q-0.45 -7.6 0.05 -6.65 L0.1 -6.7 0.25 -6.75 1.25 -6.95 Q2.15 -6.95 2.7 -6.45 L2.7 -6.55 Q2.9 -8.3 4.85 -8.6 L5.25 -8.6 6.3 -8.3 7.65 -8.65 7.8 -8.65 Q9.9 -8.5 10.05 -6.6 L10.05 -6.4 Q10.7 -7.05 11.7 -7.05 L12.3 -7.0 12.4 -7.0" fill="#a76100" fill-rule="evenodd" stroke="none"/>
    <path d="M-25.35 -3.25 L-25.9 -3.35 -26.1 -2.9 Q-25.55 -1.9 -26.3 -0.4 L-26.35 -0.3 -26.4 -0.2 -26.85 0.45 -26.8 0.5 -26.55 0.3 Q-25.1 -1.25 -24.2 -3.25 L-25.35 -3.25 M-0.3 -2.5 Q0.25 -1.0 -0.95 0.25 L-1.45 0.65 -1.1 1.05 Q-0.55 -0.15 0.7 -0.25 L0.8 -0.25 0.8 -0.3 0.1 -2.75 -0.3 -2.5 M13.7 -1.55 L13.7 -1.85 Q13.35 -2.0 12.9 -2.3 L12.05 -0.25 12.2 -0.25 Q12.5 -1.05 13.35 -1.35 L13.4 -1.45 13.5 -1.45 13.65 -1.55 13.7 -1.55 M-37.15 -11.0 L-36.6 -10.9 Q-35.3 -10.6 -34.9 -9.55 L-34.8 -9.55 -34.4 -9.5 -33.85 -9.55 -33.5 -9.55 Q-32.8 -10.9 -31.35 -10.9 L-30.95 -10.85 -30.75 -10.85 Q-29.55 -10.55 -29.15 -9.55 L-27.9 -9.55 Q-27.05 -9.45 -26.45 -8.95 -26.3 -9.85 -25.45 -10.35 L-25.3 -10.55 -24.05 -10.8 Q-23.1 -10.8 -22.45 -10.15 -21.8 -10.8 -20.75 -10.9 L-20.5 -10.9 Q-19.55 -10.8 -18.95 -10.15 -18.35 -9.5 -18.35 -8.5 L-18.35 -8.05 -15.6 -8.05 Q-14.6 -8.05 -14.05 -7.65 -13.75 -9.55 -11.95 -9.7 L-10.05 -9.7 Q-9.35 -10.85 -8.0 -10.85 L-7.55 -10.8 -7.4 -10.8 -7.25 -10.75 -5.95 -9.7 -1.6 -9.7 Q-0.45 -9.6 0.05 -8.65 L0.1 -8.7 0.25 -8.75 1.25 -8.95 Q2.15 -8.95 2.7 -8.45 L2.7 -8.55 Q2.9 -10.3 4.85 -10.6 L5.25 -10.6 6.3 -10.3 7.65 -10.65 7.8 -10.65 Q9.85 -10.5 10.05 -8.6 L10.05 -8.4 Q10.7 -9.05 11.7 -9.05 L12.3 -9.0 12.4 -9.0 Q12.95 -9.85 14.25 -10.05 L17.9 -10.05 18.05 -10.0 19.0 -10.2 24.8 -10.2 Q26.0 -10.1 26.6 -9.15 27.3 -9.75 28.5 -9.75 L30.85 -9.75 Q31.45 -10.55 32.45 -10.75 L32.5 -10.75 32.6 -10.8 33.0 -10.8 Q34.35 -10.8 35.1 -9.75 L37.5 -9.75 Q38.9 -9.75 39.75 -8.9 40.45 -8.1 40.45 -7.0 40.45 -5.2 39.9 -4.25 L39.85 -4.1 Q40.3 -2.25 38.6 -1.25 38.95 -0.3 39.8 0.25 40.65 0.75 40.8 1.65 41.0 2.65 40.35 3.6 L40.25 3.7 40.2 3.8 Q39.4 4.6 38.4 4.6 37.6 4.6 36.85 4.0 L36.15 3.45 35.9 3.7 Q34.75 4.8 32.85 4.8 L31.55 4.7 Q30.5 4.55 29.9 3.75 L28.7 4.2 27.85 4.3 Q27.05 4.3 26.25 3.65 25.45 4.35 24.15 4.35 L23.4 4.35 Q21.8 4.35 20.95 3.6 L20.45 2.8 18.5 4.15 Q17.65 4.65 16.85 4.65 15.45 4.65 14.8 3.4 L14.75 3.15 14.3 3.15 13.9 3.1 Q13.35 4.25 12.1 4.45 L0.7 4.45 Q-0.4 4.25 -0.9 3.45 -1.5 4.75 -3.05 4.75 L-3.75 4.7 -10.0 3.25 Q-11.05 3.05 -11.6 2.35 -12.15 1.6 -12.1 0.6 L-12.1 0.45 -12.05 0.35 -11.95 -0.05 -12.1 -0.25 Q-12.7 -1.1 -12.5 -2.15 L-12.55 -2.15 -12.8 -2.2 -12.8 -1.6 -13.15 1.2 Q-13.35 2.4 -14.1 3.2 -15.3 4.5 -17.5 4.5 L-20.25 4.1 Q-21.55 3.7 -21.95 2.4 L-23.55 3.95 -23.65 4.05 -25.1 4.5 Q-25.85 4.5 -26.5 4.0 -27.1 4.7 -28.15 4.7 L-28.95 4.6 -33.75 3.1 -34.0 3.05 Q-34.45 4.6 -36.1 4.7 L-36.3 4.75 -36.4 4.7 Q-37.3 4.65 -37.95 4.1 -38.55 3.55 -38.65 2.7 L-38.8 2.7 Q-40.65 2.7 -41.1 0.9 L-41.15 0.65 -41.15 0.5 Q-41.15 -0.65 -40.4 -1.35 L-40.55 -1.5 Q-41.25 -2.3 -40.9 -3.8 L-40.55 -5.5 Q-41.05 -6.1 -41.15 -7.05 L-41.15 -7.15 Q-41.15 -9.1 -39.3 -9.55 L-39.2 -9.8 -39.0 -10.15 Q-38.35 -11.0 -37.15 -11.0" fill="url(#gradient3)" fill-rule="evenodd" stroke="none"/>
    <path d="M-30.65 -8.45 L-30.85 -7.85 -28.05 -7.85 Q-27.45 -7.85 -27.3 -7.1 -27.35 -6.45 -28.0 -6.4 L-31.2 -6.4 -31.5 -5.15 -27.95 -5.15 Q-27.3 -5.0 -27.3 -4.35 -27.3 -3.75 -28.0 -3.65 L-31.9 -3.65 -32.15 -2.55 -31.95 -2.5 -28.2 -2.5 Q-27.15 -2.3 -27.8 -1.05 L-29.5 1.15 -28.9 1.45 -28.15 1.65 Q-27.4 2.0 -27.5 2.6 -27.8 3.25 -28.45 3.1 -31.0 2.2 -33.3 1.55 -34.0 1.4 -34.0 0.8 -34.0 0.3 -33.3 0.15 L-31.5 0.6 -31.1 0.65 -29.75 -0.85 Q-29.55 -1.05 -29.85 -1.05 L-33.1 -1.05 Q-34.15 -1.05 -33.85 -2.0 L-33.45 -3.65 -34.4 -3.65 Q-35.05 -3.75 -35.05 -4.35 -35.05 -5.0 -34.4 -5.15 L-33.1 -5.15 -32.65 -6.4 -33.9 -6.4 Q-34.2 -6.4 -34.35 -6.75 -34.4 -6.4 -34.9 -6.4 L-37.15 -6.4 -37.8 -3.75 -37.7 -3.65 -37.0 -3.65 -37.0 -5.1 Q-36.9 -5.7 -36.3 -5.75 -35.65 -5.7 -35.6 -5.1 L-35.6 -3.65 -34.95 -3.65 Q-34.5 -3.65 -34.35 -2.9 -34.4 -2.25 -34.95 -2.2 L-35.6 -2.2 -35.6 -1.0 -34.65 -1.1 Q-34.1 -1.1 -33.9 -0.55 -33.75 0.05 -34.25 0.3 L-35.6 0.6 -35.6 2.5 Q-35.7 3.1 -36.3 3.1 -36.9 3.1 -37.0 2.5 L-37.0 0.85 -38.8 1.1 Q-39.35 1.15 -39.5 0.55 -39.5 -0.15 -38.95 -0.35 L-37.0 -0.65 -37.0 -2.2 -38.6 -2.2 Q-39.55 -2.2 -39.35 -3.4 L-38.55 -6.4 -38.9 -6.4 Q-39.45 -6.45 -39.5 -7.1 -39.5 -7.85 -38.95 -7.85 L-38.1 -7.85 -38.0 -8.4 -37.75 -9.05 -36.95 -9.25 Q-36.4 -9.1 -36.4 -8.8 L-36.55 -8.1 -36.7 -7.85 -34.95 -7.85 Q-34.5 -7.85 -34.35 -7.45 -34.3 -7.85 -33.85 -7.85 L-32.3 -7.85 -32.1 -8.7 Q-31.9 -9.25 -31.15 -9.2 -30.55 -9.05 -30.65 -8.45 M-25.8 -5.65 Q-25.8 -6.25 -25.15 -6.35 L-21.65 -6.35 -21.45 -8.5 Q-21.4 -9.1 -20.65 -9.2 -19.95 -9.15 -19.95 -8.45 L-20.1 -6.35 -15.6 -6.35 Q-14.4 -6.45 -14.5 -5.25 L-14.5 -1.6 -14.8 1.0 Q-15.05 2.85 -17.55 2.85 L-19.85 2.55 Q-20.45 2.4 -20.35 1.65 -20.2 1.05 -19.55 1.1 L-17.45 1.25 Q-16.55 1.25 -16.5 0.8 -16.2 0.3 -16.1 -1.05 -16.0 -2.65 -16.05 -4.5 -16.05 -4.85 -16.3 -4.85 L-20.4 -4.85 Q-21.35 0.15 -24.6 2.7 -25.2 3.15 -25.65 2.55 -25.95 2.05 -25.4 1.5 -22.6 -1.5 -21.95 -4.85 L-25.2 -4.85 Q-25.8 -4.95 -25.8 -5.65 M-23.6 -8.9 L-22.65 -7.35 Q-22.5 -6.9 -23.0 -6.6 -23.5 -6.35 -23.8 -6.8 L-24.75 -8.15 Q-25.05 -8.65 -24.55 -9.0 L-23.6 -8.9 M-8.75 -8.6 Q-8.55 -9.25 -7.85 -9.15 -7.2 -8.9 -7.35 -8.3 L-7.4 -8.0 -1.8 -8.0 Q-1.3 -7.95 -1.25 -7.3 -1.3 -6.55 -1.8 -6.5 L-7.8 -6.5 -8.25 -5.2 -1.4 -5.2 Q-0.8 -5.2 -0.8 -4.45 -0.8 -3.85 -1.4 -3.75 L-8.65 -3.75 -9.0 -2.7 Q-9.1 -2.35 -8.9 -2.35 L-2.65 -2.35 Q-2.0 -2.35 -1.85 -1.85 -1.7 -1.3 -2.1 -0.95 L-4.75 1.25 -3.8 1.45 -3.05 1.65 Q-2.2 1.95 -2.35 2.65 -2.5 3.35 -3.4 3.1 L-9.8 1.65 Q-10.45 1.5 -10.45 0.8 -10.3 0.15 -9.5 0.2 L-6.7 0.7 -4.75 -0.65 Q-4.6 -0.7 -4.6 -0.9 L-4.85 -0.95 -9.9 -0.95 Q-11.2 -0.95 -10.8 -2.0 L-10.25 -3.75 -12.4 -3.75 Q-12.9 -3.8 -12.95 -4.45 -12.85 -5.2 -12.4 -5.2 L-9.85 -5.2 -9.4 -6.5 -11.8 -6.5 Q-12.4 -6.6 -12.4 -7.3 -12.4 -7.9 -11.8 -8.0 L-9.0 -8.0 -8.75 -8.6 M5.05 -8.9 Q5.75 -8.85 5.85 -8.4 L5.85 1.45 6.9 1.45 6.9 -8.45 Q7.0 -8.95 7.65 -8.95 8.35 -8.85 8.35 -8.4 L8.35 1.45 11.9 1.45 Q12.45 1.45 12.45 2.1 12.45 2.7 11.9 2.8 L0.85 2.8 Q0.35 2.75 0.3 2.1 0.4 1.45 0.85 1.45 L4.35 1.45 4.35 -8.35 Q4.45 -8.85 5.05 -8.9 M0.85 -7.15 Q1.5 -7.4 1.85 -6.85 3.05 -4.35 3.85 -1.25 4.0 -0.5 3.35 -0.2 2.65 -0.05 2.4 -0.85 L0.6 -6.15 Q0.3 -6.85 0.85 -7.15 M9.05 -1.45 Q10.3 -4.25 11.0 -6.85 11.25 -7.5 11.95 -7.35 12.6 -7.05 12.45 -6.45 11.7 -3.2 10.4 -0.75 10.05 -0.05 9.3 -0.2 8.7 -0.65 9.05 -1.45 M-17.9 -0.4 L-18.9 -0.5 -20.25 -2.7 Q-20.55 -3.25 -20.05 -3.7 -19.45 -4.1 -19.05 -3.55 L-17.7 -1.3 Q-17.45 -0.75 -17.9 -0.4 M14.35 -8.35 L17.7 -8.35 Q18.25 -8.2 18.25 -7.6 18.25 -6.95 17.7 -6.85 L16.75 -6.85 16.75 -4.8 17.6 -4.8 17.9 -4.65 Q17.85 -5.2 18.4 -5.2 L24.95 -5.2 Q25.65 -5.15 25.7 -4.4 25.6 -3.7 24.95 -3.65 L23.3 -3.65 23.3 1.05 Q23.3 1.4 23.55 1.4 L23.9 1.4 24.15 1.1 24.15 1.0 24.25 -0.85 Q24.25 -1.6 25.0 -1.6 25.7 -1.6 25.7 -0.75 L25.6 1.2 Q25.45 2.25 25.15 2.45 24.95 2.75 24.15 2.75 L23.4 2.75 22.15 2.45 Q21.85 2.2 21.85 1.2 L21.85 -3.65 20.8 -3.65 Q20.95 -0.85 20.35 0.45 19.65 1.75 17.7 2.75 L16.3 2.7 Q15.9 1.95 16.65 1.6 18.55 0.65 18.9 -0.2 19.45 -1.15 19.35 -3.65 L18.45 -3.65 18.15 -3.7 Q18.05 -3.35 17.65 -3.35 L16.75 -3.35 16.75 -1.1 17.5 -1.5 Q18.1 -1.8 18.35 -1.15 18.85 -0.5 17.55 0.15 L15.0 1.45 Q13.9 1.75 13.7 1.2 13.4 0.45 14.05 0.15 L15.35 -0.4 15.35 -3.35 14.45 -3.35 Q13.8 -3.35 13.8 -4.1 13.8 -4.7 14.45 -4.8 L15.35 -4.8 15.35 -6.85 14.35 -6.85 Q13.7 -6.9 13.65 -7.6 13.7 -8.2 14.35 -8.35 M18.4 -7.8 Q18.4 -8.5 19.1 -8.5 L24.65 -8.5 Q25.25 -8.5 25.35 -7.8 25.3 -7.1 24.7 -7.05 L19.1 -7.05 Q18.4 -7.1 18.4 -7.8 M32.1 -8.2 Q31.95 -8.9 32.85 -9.1 33.65 -9.2 33.9 -8.5 L34.0 -8.05 37.45 -8.05 Q38.8 -8.05 38.8 -6.95 38.8 -5.55 38.45 -5.0 38.25 -4.45 37.65 -4.6 36.95 -4.85 37.15 -5.35 L37.3 -6.25 37.0 -6.55 28.9 -6.55 28.75 -6.4 28.75 -5.2 Q28.7 -4.4 28.0 -4.35 27.25 -4.45 27.25 -5.2 L27.25 -6.7 Q27.1 -8.1 28.7 -8.05 L32.15 -8.05 32.1 -8.2 M29.8 -4.5 Q29.05 -4.6 29.05 -5.25 29.05 -5.95 29.8 -6.0 L35.9 -6.0 Q36.6 -5.9 36.6 -5.25 36.6 -4.6 35.9 -4.5 L34.05 -4.5 33.35 -4.15 33.5 -3.9 34.15 -2.8 Q36.35 -3.6 37.25 -4.1 37.9 -4.35 38.2 -3.65 38.45 -3.0 37.75 -2.7 L36.45 -2.1 Q37.2 0.55 38.9 1.65 39.4 2.1 38.95 2.7 L37.9 2.75 Q35.9 1.35 35.15 -1.65 L34.95 -1.6 34.75 -1.5 Q35.1 -0.2 35.1 1.25 35.2 3.6 31.8 3.1 30.95 3.0 31.05 2.25 31.1 1.6 31.95 1.6 33.9 1.85 33.7 0.65 L33.6 -0.15 Q31.3 1.65 28.2 2.65 27.55 2.95 27.25 2.25 27.1 1.65 27.8 1.4 30.9 0.45 33.2 -1.6 L32.95 -2.15 Q30.85 -0.45 28.2 0.45 27.65 0.6 27.35 0.05 27.2 -0.6 27.7 -0.9 29.95 -1.65 32.2 -3.25 L32.05 -3.4 31.6 -3.25 Q29.75 -2.35 28.35 -1.95 27.7 -1.8 27.45 -2.35 27.3 -3.0 27.95 -3.25 L31.4 -4.5 29.8 -4.5" fill="#ffffa0" fill-rule="evenodd" stroke="none"/>
    <path d="M-34.4 -2.9 Q-34.4 -2.3 -35.05 -2.2 L-35.65 -2.2 -35.65 -1.0 -34.65 -1.1 Q-34.15 -1.1 -33.95 -0.55 -33.85 -0.1 -34.15 0.15 L-39.45 0.7 -39.55 0.55 Q-39.55 -0.15 -39.0 -0.35 L-37.05 -0.65 -37.05 -2.2 -38.7 -2.2 Q-39.6 -2.2 -39.4 -3.4 L-39.1 -4.5 -37.7 -4.4 -37.85 -3.75 -37.75 -3.65 -37.05 -3.65 -37.05 -4.4 -35.65 -4.3 -35.65 -3.65 -35.05 -3.65 Q-34.4 -3.65 -34.4 -2.9 M-28.25 -2.5 Q-27.2 -2.3 -27.85 -1.05 L-28.35 -0.4 -30.35 -0.2 -29.75 -0.85 -29.9 -1.05 -33.15 -1.05 Q-34.15 -1.05 -33.85 -2.0 L-33.5 -3.65 -34.5 -3.65 Q-34.9 -3.7 -35.05 -4.25 L-27.6 -3.85 -28.0 -3.65 -31.95 -3.65 -32.15 -2.55 -32.0 -2.5 -28.25 -2.5 M-21.75 -0.95 L-23.65 -0.75 Q-22.7 -2.2 -22.35 -3.65 L-20.75 -3.6 Q-20.95 -2.55 -21.75 -0.95 M-14.55 -1.45 L-16.1 -1.3 -16.1 -3.55 -14.5 -3.55 -14.55 -1.45 M-17.75 -1.3 L-17.7 -1.2 -19.3 -1.1 -20.3 -2.7 Q-20.55 -3.25 -20.25 -3.6 L-19.15 -3.6 -19.15 -3.55 -17.75 -1.3 M1.85 -2.3 L1.4 -3.7 3.05 -3.75 3.5 -2.35 1.85 -2.3 M-2.75 -2.35 L-2.05 -2.15 -10.9 -1.7 -10.85 -2.0 -10.35 -3.5 -8.75 -3.5 -9.05 -2.7 Q-9.2 -2.35 -8.9 -2.35 L-2.75 -2.35 M6.8 -2.5 L6.8 -3.9 8.35 -3.95 8.35 -2.5 6.8 -2.5 M4.35 -2.35 L4.35 -3.8 5.75 -3.85 5.75 -2.45 4.35 -2.35 M11.2 -2.6 L9.45 -2.55 10.1 -4.1 11.8 -4.2 11.2 -2.6 M31.35 -4.5 L29.75 -4.5 Q29.05 -4.6 29.05 -5.25 L29.2 -5.75 31.45 -6.0 35.85 -6.0 Q36.5 -5.95 36.6 -5.25 36.5 -4.6 35.85 -4.5 L34.05 -4.5 33.3 -4.15 33.45 -3.9 34.15 -2.8 37.2 -4.1 Q37.85 -4.3 38.2 -3.65 38.35 -3.0 37.7 -2.7 L36.7 -2.2 30.95 -2.5 32.15 -3.25 32.0 -3.4 Q30.95 -2.9 29.9 -2.5 L27.4 -2.55 Q27.4 -3.0 27.9 -3.25 29.4 -3.6 31.35 -4.5 M27.2 -5.5 L28.7 -5.7 28.7 -5.2 Q28.65 -4.4 27.95 -4.35 27.3 -4.4 27.2 -5.2 L27.2 -5.5 M23.9 -5.2 L24.95 -5.2 Q25.6 -5.15 25.65 -4.4 25.55 -3.7 24.95 -3.65 L23.25 -3.65 23.25 -2.65 21.8 -2.65 21.8 -3.65 20.8 -3.65 20.8 -2.65 19.3 -2.65 19.3 -3.65 18.4 -3.65 18.1 -3.7 Q17.95 -3.35 17.6 -3.35 L16.75 -3.35 16.75 -2.65 15.25 -2.65 15.25 -3.35 14.4 -3.35 Q13.7 -3.35 13.7 -4.1 L13.8 -4.3 23.9 -5.2 M38.4 -5.0 Q38.2 -4.45 37.55 -4.6 37.0 -4.8 37.1 -5.35 L37.25 -6.25 36.95 -6.55 35.8 -6.55 38.75 -6.95 Q38.75 -5.55 38.4 -5.0" fill="#ffffff" fill-rule="evenodd" stroke="none"/>
  </g>
  <defs>
    <linearGradient gradientTransform="matrix(0.0, 0.0233, 0.0233, 0.0, 0.6, 0.25)" gradientUnits="userSpaceOnUse" id="gradient0" spreadMethod="pad" x1="-819.2" x2="819.2">
      <stop offset="0.41568627450980394" stop-color="#e5ba6e"/>
      <stop offset="0.807843137254902" stop-color="#6e3b46"/>
      <stop offset="1.0" stop-color="#000000"/>
    </linearGradient>
    <linearGradient gradientTransform="matrix(0.0, 0.0091, 0.0091, 0.0, -49.85, -3.35)" gradientUnits="userSpaceOnUse" id="gradient1" spreadMethod="pad" x1="-819.2" x2="819.2">
      <stop offset="0.41568627450980394" stop-color="#e5ba6e"/>
      <stop offset="0.807843137254902" stop-color="#6e3b46"/>
      <stop offset="1.0" stop-color="#000000"/>
    </linearGradient>
    <linearGradient gradientTransform="matrix(0.0, 0.0091, 0.0091, 0.0, 49.9, -3.35)" gradientUnits="userSpaceOnUse" id="gradient2" spreadMethod="pad" x1="-819.2" x2="819.2">
      <stop offset="0.41568627450980394" stop-color="#e5ba6e"/>
      <stop offset="0.807843137254902" stop-color="#6e3b46"/>
      <stop offset="1.0" stop-color="#000000"/>
    </linearGradient>
    <linearGradient gradientTransform="matrix(0.0, 0.0089, -0.0096, 0.0, -0.15, -3.1)" gradientUnits="userSpaceOnUse" id="gradient3" spreadMethod="pad" x1="-819.2" x2="819.2">
      <stop offset="0.3058823529411765" stop-color="#dcb16a"/>
      <stop offset="0.7137254901960784" stop-color="#6d3e47"/>
      <stop offset="1.0" stop-color="#000000"/>
    </linearGradient>
  </defs>
</svg>
