<?xml version="1.0" encoding="UTF-8" standalone="no"?>
<svg xmlns:ffdec="https://www.free-decompiler.com/flash" xmlns:xlink="http://www.w3.org/1999/xlink" ffdec:objectType="shape" height="354.1px" width="354.1px" xmlns="http://www.w3.org/2000/svg">
  <g transform="matrix(1.0, 0.0, 0.0, 1.0, 176.55, 177.1)">
    <path d="M-102.8 140.8 Q-108.1 133.7 -105.65 129.45 -103.2 125.15 -94.4 126.2 -85.65 127.3 -75.7 133.05 -65.75 138.8 -60.4 145.85 -55.1 152.95 -57.55 157.2 -60.0 161.4 -68.8 160.35 -77.55 159.3 -87.5 153.6 -97.45 147.85 -102.8 140.8 M-156.15 59.0 Q-151.9 56.6 -144.85 61.85 -137.75 67.2 -132.0 77.15 -126.3 87.1 -125.2 95.85 -124.15 104.65 -128.4 107.15 -132.6 109.55 -139.7 104.25 -146.8 98.95 -152.55 89.0 -158.3 79.0 -159.35 70.3 -160.4 61.5 -156.15 59.0 M-140.3 -103.3 Q-133.2 -108.65 -129.0 -106.15 -124.75 -103.75 -125.8 -94.95 -126.85 -86.15 -132.6 -76.2 -138.35 -66.25 -145.45 -60.95 -152.55 -55.6 -156.75 -58.1 -161.0 -60.5 -159.95 -69.3 -158.85 -78.05 -153.15 -88.05 -147.4 -98.0 -140.3 -103.3 M-69.8 -159.9 Q-61.0 -160.95 -58.6 -156.7 -56.1 -152.45 -61.45 -145.4 -66.75 -138.3 -76.7 -132.55 -86.65 -126.8 -95.45 -125.75 -104.25 -124.7 -106.65 -128.95 -109.15 -133.15 -103.8 -140.25 -98.5 -147.3 -88.55 -153.1 -78.55 -158.8 -69.8 -159.9 M-173.1 -19.1 Q-170.45 -25.25 -167.0 -26.75 L-164.7 -27.25 Q-159.8 -27.25 -156.3 -19.1 -152.85 -10.95 -152.85 0.55 -152.85 12.05 -156.3 20.15 -159.8 28.3 -164.7 28.3 L-167.0 27.85 Q-170.45 26.3 -173.1 20.15 -176.55 12.05 -176.55 0.55 -176.55 -10.95 -173.1 -19.1 M20.7 173.5 Q12.6 177.0 1.1 177.0 -10.4 177.0 -18.55 173.5 -26.7 170.05 -26.7 165.15 -26.7 160.25 -18.55 156.75 -10.4 153.25 1.1 153.25 12.6 153.25 20.7 156.75 28.85 160.25 28.85 165.15 28.85 170.05 20.7 173.5 M62.4 145.3 Q67.7 138.2 77.65 132.5 87.6 126.7 96.4 125.65 105.2 124.6 107.6 128.85 110.1 133.1 104.75 140.2 99.5 147.2 89.55 153.0 79.5 158.7 70.75 159.8 61.95 160.85 59.55 156.65 57.1 152.4 62.4 145.3 M126.75 94.85 Q127.8 86.05 133.6 76.1 139.3 66.15 146.4 60.85 153.5 55.55 157.75 58.0 161.95 60.45 160.9 69.25 159.85 78.05 154.1 88.0 148.4 97.95 141.3 103.2 134.2 108.55 129.95 106.1 125.7 103.65 126.75 94.85 M153.8 -0.6 Q153.8 -12.1 157.3 -20.25 160.75 -28.4 165.65 -28.4 170.6 -28.4 174.05 -20.25 177.55 -12.1 177.55 -0.6 177.55 10.95 174.05 19.0 170.6 27.15 165.65 27.15 160.75 27.15 157.3 19.0 153.8 10.9 153.8 -0.6 M19.5 -173.65 Q27.65 -170.15 27.65 -165.25 27.65 -160.35 19.5 -156.8 11.35 -153.35 -0.1 -153.35 -11.6 -153.35 -19.75 -156.8 -27.9 -160.35 -27.9 -165.25 -27.9 -170.15 -19.75 -173.65 -11.6 -177.1 -0.1 -177.1 11.35 -177.1 19.5 -173.65 M129.35 -107.2 Q133.6 -109.65 140.7 -104.35 147.75 -99.0 153.5 -89.05 159.25 -79.1 160.3 -70.35 161.35 -61.55 157.1 -59.1 152.9 -56.65 145.8 -61.95 138.7 -67.3 133.0 -77.25 127.25 -87.2 126.15 -95.95 125.1 -104.75 129.35 -107.2 M103.75 -140.85 Q109.05 -133.75 106.65 -129.55 104.15 -125.25 95.35 -126.3 86.6 -127.4 76.65 -133.1 66.7 -138.9 61.35 -145.95 56.1 -153.0 58.5 -157.25 61.0 -161.55 69.8 -160.5 78.55 -159.4 88.5 -153.7 98.45 -147.9 103.75 -140.85" fill="#ffffcc" fill-rule="evenodd" stroke="none"/>
  </g>
</svg>
