<?xml version="1.0" encoding="UTF-8" standalone="no"?>
<svg xmlns:ffdec="https://www.free-decompiler.com/flash" xmlns:xlink="http://www.w3.org/1999/xlink" ffdec:objectType="shape" height="421.0px" width="420.95px" xmlns="http://www.w3.org/2000/svg">
  <g transform="matrix(1.0, 0.0, 0.0, 1.0, 209.95, 210.55)">
    <path d="M72.55 187.35 Q70.0 182.95 76.4 175.2 82.7 167.4 94.25 160.75 105.75 154.1 115.7 152.5 125.6 150.9 128.15 155.25 130.65 159.65 124.3 167.45 117.95 175.2 106.4 181.85 94.9 188.55 84.95 190.2 75.05 191.75 72.55 187.35 M188.7 70.65 Q193.1 73.2 191.5 83.1 189.85 93.05 183.2 104.6 176.55 116.1 168.8 122.45 160.95 128.8 156.55 126.25 152.2 123.75 153.8 113.85 155.4 103.9 162.05 92.4 168.7 80.85 176.55 74.5 184.3 68.15 188.7 70.65 M-21.4 206.9 Q-30.8 203.3 -30.8 198.25 -30.8 193.2 -21.4 189.65 -12.0 186.05 1.3 186.05 14.6 186.05 23.95 189.65 33.35 193.2 33.35 198.25 33.35 203.3 23.95 206.9 14.6 210.45 1.3 210.45 -12.0 210.45 -21.4 206.9 M-121.95 168.2 Q-128.3 160.35 -125.75 156.0 -123.2 151.6 -113.3 153.2 -103.35 154.8 -91.85 161.45 -80.3 168.2 -74.0 175.95 -67.65 183.75 -70.2 188.1 -72.75 192.5 -82.65 190.9 -92.55 189.3 -104.1 182.65 -115.55 176.0 -121.95 168.2 M-152.0 115.1 Q-150.4 125.0 -154.8 127.55 -159.15 130.1 -166.95 123.75 -174.75 117.35 -181.4 105.85 -188.05 94.35 -189.65 84.4 -191.25 74.5 -186.85 72.0 -182.5 69.45 -174.7 75.8 -166.95 82.1 -160.25 93.65 -153.6 105.15 -152.0 115.1 M-71.45 -187.45 Q-68.95 -183.05 -75.25 -175.3 -81.65 -167.5 -93.15 -160.85 -104.7 -154.2 -114.65 -152.6 -124.55 -151.0 -127.05 -155.35 -129.6 -159.75 -123.2 -167.55 -116.85 -175.3 -105.35 -181.95 -93.85 -188.6 -83.9 -190.2 -74.0 -191.85 -71.45 -187.45 M-197.75 -31.4 Q-192.75 -31.4 -189.15 -22.0 -185.6 -12.6 -185.6 0.7 -185.6 14.0 -189.15 23.4 -192.7 32.8 -197.75 32.8 -202.8 32.8 -206.4 23.4 -209.95 14.0 -209.95 0.7 -209.95 -12.6 -206.4 -22.0 -202.8 -31.4 -197.75 -31.4 M-182.1 -104.7 Q-175.45 -116.15 -167.65 -122.5 -159.9 -128.9 -155.5 -126.35 -151.15 -123.8 -152.75 -113.9 -154.35 -103.95 -161.0 -92.45 -167.65 -80.9 -175.45 -74.6 -183.2 -68.2 -187.6 -70.75 -191.95 -73.25 -190.35 -83.15 -188.8 -93.15 -182.1 -104.7 M190.25 -23.5 Q193.8 -32.9 198.85 -32.9 203.85 -32.9 207.45 -23.5 211.0 -14.1 211.0 -0.8 211.0 12.55 207.45 21.95 203.85 31.35 198.85 31.35 193.8 31.35 190.25 21.95 186.65 12.55 186.65 -0.8 186.65 -14.1 190.25 -23.5 M153.1 -115.2 Q151.45 -125.1 155.85 -127.6 160.2 -130.15 168.0 -123.8 175.8 -117.45 182.45 -105.95 189.15 -94.45 190.7 -84.5 192.3 -74.6 187.95 -72.05 183.55 -69.55 175.75 -75.85 168.0 -82.2 161.35 -93.75 154.7 -105.25 153.1 -115.2 M123.0 -168.25 Q129.4 -160.45 126.85 -156.1 124.3 -151.7 114.4 -153.3 104.45 -154.95 92.95 -161.6 81.45 -168.25 75.05 -176.0 68.75 -183.8 71.25 -188.15 73.8 -192.55 83.7 -190.95 93.65 -189.4 105.15 -182.7 116.65 -176.05 123.0 -168.25 M22.5 -207.0 L24.9 -206.0 Q31.9 -202.7 31.9 -198.35 31.9 -193.3 22.5 -189.7 13.15 -186.15 -0.2 -186.15 -13.5 -186.15 -22.9 -189.7 -32.3 -193.3 -32.3 -198.35 -32.3 -202.7 -25.25 -206.0 L-22.9 -207.0 Q-13.5 -210.55 -0.2 -210.55 13.15 -210.55 22.5 -207.0" fill="#ffffcc" fill-rule="evenodd" stroke="none"/>
  </g>
</svg>
