<?xml version="1.0" encoding="UTF-8" standalone="no"?>
<svg xmlns:ffdec="https://www.free-decompiler.com/flash" xmlns:xlink="http://www.w3.org/1999/xlink" ffdec:objectType="shape" height="29.4px" width="30.8px" xmlns="http://www.w3.org/2000/svg">
  <g transform="matrix(1.0, 0.0, 0.0, 1.0, 15.4, 14.65)">
    <path d="M15.2 -7.95 L15.35 -0.25 15.05 7.65 Q14.75 13.2 14.5 13.65 L8.65 14.45 0.35 14.75 -7.95 14.45 -14.4 13.85 Q-15.4 13.4 -15.4 0.35 L-15.15 -7.6 Q-14.9 -13.1 -14.6 -13.5 L-8.25 -14.3 0.35 -14.65 8.55 -14.3 14.5 -13.5 Q14.95 -13.05 15.2 -7.95 M0.3 -12.75 L-7.25 -12.45 -12.8 -11.7 -13.25 -6.6 -13.45 0.25 Q-13.45 11.6 -12.6 12.05 L-6.95 12.55 0.3 12.8 7.55 12.55 12.7 11.85 13.15 6.95 13.4 0.35 13.3 -6.65 Q13.1 -11.3 12.7 -11.7 L7.5 -12.45 0.3 -12.75" fill="#231916" fill-rule="evenodd" stroke="none"/>
  </g>
</svg>
