<?xml version="1.0" encoding="UTF-8" standalone="no"?>
<svg xmlns:ffdec="https://www.free-decompiler.com/flash" xmlns:xlink="http://www.w3.org/1999/xlink" ffdec:objectType="shape" height="21.95px" width="23.95px" xmlns="http://www.w3.org/2000/svg">
  <g transform="matrix(1.0, 0.0, 0.0, 1.0, 12.05, 11.05)">
    <path d="M7.5 -10.45 Q10.85 -10.0 11.35 -9.45 12.35 -8.1 11.5 0.6 10.6 9.6 9.0 10.3 L-0.7 10.8 Q-8.6 10.4 -10.35 9.55 -11.95 8.7 -12.05 0.15 -12.1 -8.15 -11.1 -9.85 -10.3 -11.3 0.15 -11.0 L7.5 -10.45 M9.65 -0.2 L9.95 -5.5 9.85 -8.65 5.15 -9.35 -2.6 -9.7 -9.6 -9.15 -10.0 -6.1 -10.2 -0.85 -9.9 4.85 Q-9.6 6.95 -9.3 7.5 L-4.65 8.2 3.1 8.55 8.0 8.25 8.85 5.6 Q9.35 3.35 9.65 -0.2" fill="#096946" fill-rule="evenodd" stroke="none"/>
    <path d="M6.35 -6.0 Q5.1 -6.8 4.15 -6.65 3.6 -6.65 1.1 -3.0 -1.35 0.6 -1.95 0.6 L-4.0 -0.8 Q-5.5 -2.15 -6.05 -2.15 -6.8 -2.15 -7.6 -1.2 -8.3 -0.25 -8.3 0.6 -8.3 1.65 -4.75 4.3 -1.35 6.9 -0.4 6.9 0.4 6.9 4.0 1.7 7.55 -3.4 7.55 -4.4 7.55 -5.25 6.35 -6.0 M9.65 -0.2 Q9.35 3.35 8.85 5.6 L8.0 8.25 3.1 8.55 -4.65 8.2 -9.3 7.5 Q-9.6 6.95 -9.9 4.85 L-10.2 -0.85 -10.0 -6.1 -9.6 -9.15 -2.6 -9.7 5.15 -9.35 9.85 -8.65 9.95 -5.5 9.65 -0.2" fill="#44aa4a" fill-rule="evenodd" stroke="none"/>
    <path d="M6.35 -6.0 Q7.55 -5.25 7.55 -4.4 7.55 -3.4 4.0 1.7 0.4 6.9 -0.4 6.9 -1.35 6.9 -4.75 4.3 -8.3 1.65 -8.3 0.6 -8.3 -0.25 -7.6 -1.2 -6.8 -2.15 -6.05 -2.15 -5.5 -2.15 -4.0 -0.8 L-1.95 0.6 Q-1.35 0.6 1.1 -3.0 3.6 -6.65 4.15 -6.65 5.1 -6.8 6.35 -6.0" fill="#ffffff" fill-rule="evenodd" stroke="none"/>
  </g>
</svg>
