<?xml version="1.0" encoding="UTF-8" standalone="no"?>
<svg xmlns:ffdec="https://www.free-decompiler.com/flash" xmlns:xlink="http://www.w3.org/1999/xlink" ffdec:objectType="shape" height="85.5px" width="64.9px" xmlns="http://www.w3.org/2000/svg">
  <g transform="matrix(1.0, 0.0, 0.0, 1.0, 32.45, 42.75)">
    <path d="M-11.4 2.15 Q-11.0 2.55 -11.0 3.1 -11.0 3.65 -11.4 4.05 -11.8 4.4 -12.35 4.4 -12.9 4.4 -13.25 4.05 -13.65 3.65 -13.65 3.1 -13.65 2.55 -13.25 2.15 -12.9 1.8 -12.35 1.8 -11.8 1.8 -11.4 2.15" fill="#ffffff" fill-rule="evenodd" stroke="none"/>
    <path d="M-18.25 28.2 Q-15.4 29.65 -12.65 32.0 L-12.7 33.0 -12.8 33.95 Q-13.2 39.25 -13.4 39.35 -14.2 39.8 -15.8 39.85 -17.7 39.9 -18.5 39.15 L-18.55 39.1 Q-19.05 38.5 -18.95 35.3 L-18.95 35.15 -18.9 34.45 -18.8 32.75 -18.65 31.2 -18.5 29.9 -18.3 28.65 -18.3 28.55 -18.25 28.2 M-2.65 35.7 Q0.0 32.75 5.05 29.0 5.85 37.0 3.2 40.35 L1.15 40.6 Q-0.65 40.4 -1.65 39.4 -2.05 39.0 -2.65 35.7 M-10.85 1.9 Q-12.05 0.75 -13.65 0.75 -15.3 0.75 -16.45 1.9 -17.6 3.05 -17.6 4.7 -17.6 6.3 -16.45 7.5 -15.3 8.65 -13.65 8.65 -12.05 8.65 -10.85 7.5 -9.7 6.3 -9.7 4.7 -9.7 3.05 -10.85 1.9 M-19.8 7.6 Q-20.6 4.2 -19.6 0.65 -17.05 -8.75 -7.15 -6.25 -1.45 -4.8 0.1 0.25 1.55 5.05 -1.65 8.25 -5.15 11.75 -7.9 12.65 -11.65 13.8 -17.15 11.75 -19.05 11.05 -19.8 7.6" fill="#fdfcd7" fill-rule="evenodd" stroke="none"/>
    <path d="M-23.15 10.9 Q-22.5 11.9 -27.5 14.6 L-28.7 12.95 Q-29.75 11.15 -29.15 10.4 -28.45 9.6 -26.05 9.85 -23.7 10.1 -23.15 10.9" fill="#722f1f" fill-rule="evenodd" stroke="none"/>
    <path d="M-18.25 28.2 L-17.3 23.8 -16.25 20.8 -16.15 20.55 Q-10.85 19.0 -7.85 17.25 -13.8 19.35 -19.05 19.15 -25.6 18.9 -28.55 14.9 -31.85 10.45 -30.6 3.4 -29.55 -2.7 -26.0 -7.75 -24.8 -9.45 -22.75 -11.35 L-18.9 -14.4 Q-16.3 -16.1 -10.55 -16.7 -4.35 -17.35 -1.15 -15.7 L-1.65 -12.55 Q2.95 -22.2 10.75 -30.5 21.55 -42.0 28.25 -36.45 34.0 -31.7 21.05 -21.4 L10.45 -13.8 Q4.6 -9.7 3.35 -8.2 5.75 -9.65 6.65 -9.65 9.2 -5.55 9.85 -1.15 10.95 6.7 4.65 11.55 5.8 11.3 10.05 8.4 13.8 8.95 17.3 12.5 20.6 15.9 22.4 20.6 24.25 25.45 23.65 29.65 23.0 34.25 19.35 36.6 17.05 38.35 12.3 38.2 7.75 38.05 7.3 36.85 6.9 35.95 9.95 34.95 12.4 34.15 14.8 33.85 10.0 29.7 11.4 24.4 12.6 19.7 16.8 18.15 11.75 17.8 9.75 23.2 7.8 28.5 10.85 32.4 10.4 32.55 9.0 33.25 L7.15 33.95 Q7.3 32.35 6.95 30.55 L6.75 29.65 6.5 28.7 5.35 25.85 4.25 24.05 5.05 29.0 Q0.0 32.75 -2.65 35.7 L-2.8 34.95 -2.85 34.7 -3.0 34.0 -3.25 32.6 -3.4 32.05 -3.65 31.2 Q-4.05 29.9 -4.6 28.95 L-5.95 27.3 Q-5.45 28.5 -4.7 31.55 L-8.2 30.55 Q-10.3 29.85 -10.9 29.1 L-10.6 25.55 -12.3 30.0 -12.65 32.0 Q-15.4 29.65 -18.25 28.2 M3.85 -14.25 Q10.1 -17.85 15.9 -22.05 27.55 -30.45 25.35 -33.25 23.15 -36.05 13.3 -25.45 8.35 -20.1 3.85 -14.25 M-19.8 7.6 Q-19.05 11.05 -17.15 11.75 -11.65 13.8 -7.9 12.65 -5.15 11.75 -1.65 8.25 1.55 5.05 0.1 0.25 -1.45 -4.8 -7.15 -6.25 -17.05 -8.75 -19.6 0.65 -20.6 4.2 -19.8 7.6 M-23.15 10.9 Q-23.7 10.1 -26.05 9.85 -28.45 9.6 -29.15 10.4 -29.75 11.15 -28.7 12.95 L-27.5 14.6 Q-22.5 11.9 -23.15 10.9" fill="#f59292" fill-rule="evenodd" stroke="none"/>
    <path d="M3.65 -25.6 Q7.2 -30.75 11.45 -34.45 22.35 -44.15 29.6 -38.0 40.9 -28.45 7.55 -10.6 10.45 -6.65 11.7 -2.2 13.2 3.2 11.2 6.75 13.2 7.5 15.85 8.9 18.5 10.3 19.3 11.05 21.45 8.5 24.45 8.85 27.2 9.15 29.0 11.55 30.9 14.05 30.25 16.95 29.5 20.25 25.45 22.65 25.9 24.8 25.7 27.8 25.35 32.55 22.9 35.85 20.3 39.35 15.85 40.55 L11.3 40.4 Q9.4 40.0 6.1 38.7 5.25 41.65 3.45 42.4 1.75 43.15 -0.55 42.35 -2.7 41.6 -3.5 40.15 L-4.15 34.35 -6.9 33.05 Q-9.5 32.0 -10.8 31.15 L-11.25 37.1 Q-11.55 40.1 -13.65 41.1 L-17.65 41.25 Q-20.15 40.65 -20.45 39.0 -20.9 36.4 -20.15 30.2 -19.3 23.5 -17.85 20.8 -24.85 21.8 -28.65 18.2 -31.9 15.1 -32.3 9.05 -33.25 1.3 -28.6 -6.55 -23.7 -14.75 -15.1 -18.45 -15.5 -21.85 -13.5 -28.45 -10.6 -38.15 -4.0 -41.25 1.0 -43.6 3.85 -42.25 6.75 -40.85 5.1 -36.3 3.6 -32.2 0.3 -27.15 L-5.55 -18.65 Q-2.4 -17.9 -0.75 -17.15 0.4 -20.8 3.65 -25.6 M5.05 29.0 L4.25 24.05 5.35 25.85 6.5 28.7 6.75 29.65 6.95 30.55 Q7.3 32.35 7.15 33.95 L9.0 33.25 Q10.4 32.55 10.85 32.4 7.8 28.5 9.75 23.2 11.75 17.8 16.8 18.15 12.6 19.7 11.4 24.4 10.0 29.7 14.8 33.85 12.4 34.15 9.95 34.95 6.9 35.95 7.3 36.85 7.75 38.05 12.3 38.2 17.05 38.35 19.35 36.6 23.0 34.25 23.65 29.65 24.25 25.45 22.4 20.6 20.6 15.9 17.3 12.5 13.8 8.95 10.05 8.4 5.8 11.3 4.65 11.55 10.95 6.7 9.85 -1.15 9.2 -5.55 6.65 -9.65 5.75 -9.65 3.35 -8.2 4.6 -9.7 10.45 -13.8 L21.05 -21.4 Q34.0 -31.7 28.25 -36.45 21.55 -42.0 10.75 -30.5 2.95 -22.2 -1.65 -12.55 L-1.15 -15.7 Q-4.35 -17.35 -10.55 -16.7 -16.3 -16.1 -18.9 -14.4 L-22.75 -11.35 Q-24.8 -9.45 -26.0 -7.75 -29.55 -2.7 -30.6 3.4 -31.85 10.45 -28.55 14.9 -25.6 18.9 -19.05 19.15 -13.8 19.35 -7.85 17.25 -10.85 19.0 -16.15 20.55 L-16.25 20.8 -17.3 23.8 -18.25 28.2 -18.3 28.55 -18.3 28.65 -18.5 29.9 -18.65 31.2 -18.8 32.75 -18.9 34.45 -18.95 35.15 Q-19.15 38.4 -18.55 39.1 L-18.5 39.15 Q-17.7 39.9 -15.8 39.85 -14.2 39.8 -13.4 39.35 -13.2 39.25 -12.8 33.95 L-12.7 33.0 -12.3 30.0 -10.6 25.55 -10.9 29.1 Q-10.3 29.85 -8.2 30.55 L-4.7 31.55 Q-5.45 28.5 -5.95 27.3 L-4.6 28.95 Q-4.05 29.9 -3.65 31.2 L-3.4 32.05 -3.25 32.6 -3.0 34.0 -2.85 34.7 -2.8 34.95 -2.65 35.7 Q-2.05 39.0 -1.65 39.4 -0.65 40.4 1.15 40.6 L3.2 40.35 Q5.85 37.0 5.05 29.0 M3.85 -14.25 Q8.35 -20.1 13.3 -25.45 23.15 -36.05 25.35 -33.25 27.55 -30.45 15.9 -22.05 10.1 -17.85 3.85 -14.25" fill="#940e44" fill-rule="evenodd" stroke="none"/>
    <path d="M-11.4 2.15 Q-11.8 1.8 -12.35 1.8 -12.9 1.8 -13.25 2.15 -13.65 2.55 -13.65 3.1 -13.65 3.65 -13.25 4.05 -12.9 4.4 -12.35 4.4 -11.8 4.4 -11.4 4.05 -11.0 3.65 -11.0 3.1 -11.0 2.55 -11.4 2.15 M-10.85 1.9 Q-9.7 3.05 -9.7 4.7 -9.7 6.3 -10.85 7.5 -12.05 8.65 -13.65 8.65 -15.3 8.65 -16.45 7.5 -17.6 6.3 -17.6 4.7 -17.6 3.05 -16.45 1.9 -15.3 0.75 -13.65 0.75 -12.05 0.75 -10.85 1.9" fill="#530b0b" fill-rule="evenodd" stroke="none"/>
  </g>
</svg>
