<?xml version="1.0" encoding="UTF-8" standalone="no"?>
<svg xmlns:ffdec="https://www.free-decompiler.com/flash" xmlns:xlink="http://www.w3.org/1999/xlink" ffdec:objectType="shape" height="51.0px" width="84.25px" xmlns="http://www.w3.org/2000/svg">
  <g transform="matrix(1.0, 0.0, 0.0, 1.0, 42.15, 25.5)">
    <path d="M0.25 -25.5 L10.2 -22.7 10.4 -22.6 11.6 -20.3 15.1 -21.5 15.2 -21.55 15.3 -21.5 25.15 -18.9 25.35 -18.75 29.1 -11.55 39.6 -8.95 39.8 -8.75 42.05 1.0 41.9 1.3 0.3 25.45 0.15 25.5 0.0 25.45 -42.0 1.45 -42.15 1.1 -39.9 -8.1 -39.7 -8.3 -29.3 -11.4 -25.6 -18.1 -25.45 -18.2 -14.75 -21.4 -14.6 -21.4 -11.4 -20.3 -10.6 -22.3 -10.4 -22.45 0.1 -25.5 0.25 -25.5 M23.2 -17.4 L23.55 -17.55 15.4 -20.1 10.75 -18.6 9.35 -21.55 0.3 -23.9 -8.6 -21.7 -8.4 -21.65 -9.15 -21.65 -10.3 -18.8 -14.65 -20.2 -24.15 -17.2 -28.4 -10.05 -38.55 -6.95 -38.6 -6.95 -40.25 0.15 0.3 23.25 39.65 0.4 38.5 -7.2 27.95 -10.05 24.05 -17.45 23.2 -17.4" fill="#423a35" fill-rule="evenodd" stroke="none"/>
    <path d="M15.25 -19.05 L19.2 -17.55 10.2 -17.55 15.25 -19.05 M10.75 -18.6 L6.2 -17.2 15.4 -14.55 23.2 -17.4 24.05 -17.45 27.95 -10.05 29.15 -7.75 16.45 -1.7 14.05 -2.9 15.15 -1.3 -0.1 6.55 -14.95 -0.9 -13.75 -2.75 -16.25 -1.6 -29.65 -8.0 -28.4 -10.05 -24.15 -17.2 -15.45 -14.05 -4.85 -17.05 -10.3 -18.8 -9.15 -21.65 -8.4 -21.65 0.4 -18.75 9.35 -21.55 10.75 -18.6 M38.5 -7.2 L39.65 0.4 0.3 23.25 -40.25 0.15 -38.6 -6.95 -38.55 -6.95 0.15 13.5 38.5 -7.2 M4.15 -21.9 L-4.25 -21.9 0.5 -23.25 4.15 -21.9 M10.55 -12.1 L0.1 -15.3 -9.4 -12.1 0.15 -8.15 10.55 -12.1 M-20.1 -17.4 L-14.7 -19.0 -10.45 -17.4 -20.1 -17.4 M-0.15 -13.55 L5.1 -12.5 -4.5 -12.15 -0.15 -13.55" fill="#6a462f" fill-rule="evenodd" stroke="none"/>
    <path d="M15.25 -19.05 L10.2 -17.55 19.2 -17.55 15.25 -19.05 M10.75 -18.6 L15.4 -20.1 23.55 -17.55 23.2 -17.4 15.4 -14.55 6.2 -17.2 10.75 -18.6 M27.95 -10.05 L38.5 -7.2 0.15 13.5 -38.55 -6.95 -28.4 -10.05 -29.65 -8.0 -16.25 -1.6 -13.75 -2.75 -14.95 -0.9 -0.1 6.55 15.15 -1.3 14.05 -2.9 16.45 -1.7 29.15 -7.75 27.95 -10.05 M-24.15 -17.2 L-14.65 -20.2 -10.3 -18.8 -4.85 -17.05 -15.45 -14.05 -24.15 -17.2 M-8.4 -21.65 L-8.6 -21.7 0.3 -23.9 9.35 -21.55 0.4 -18.75 -8.4 -21.65 M4.15 -21.9 L0.5 -23.25 -4.25 -21.9 4.15 -21.9 M10.55 -12.1 L0.15 -8.15 -9.4 -12.1 0.1 -15.3 10.55 -12.1 M-0.15 -13.55 L-4.5 -12.15 5.1 -12.5 -0.15 -13.55 M-20.1 -17.4 L-10.45 -17.4 -14.7 -19.0 -20.1 -17.4" fill="#a86d35" fill-rule="evenodd" stroke="none"/>
  </g>
</svg>
