<?xml version="1.0" encoding="UTF-8" standalone="no"?>
<svg xmlns:ffdec="https://www.free-decompiler.com/flash" xmlns:xlink="http://www.w3.org/1999/xlink" ffdec:objectType="shape" height="58.9px" width="64.1px" xmlns="http://www.w3.org/2000/svg">
  <g transform="matrix(1.0, 0.0, 0.0, 1.0, 32.05, 29.45)">
    <path d="M-29.6 -26.1 Q-27.15 -30.15 0.65 -29.3 L20.35 -27.8 Q29.5 -26.6 30.6 -25.1 33.25 -21.6 31.0 1.8 28.75 25.7 24.4 27.85 19.85 30.15 -1.55 29.15 -22.7 28.2 -27.5 25.8 -31.8 23.65 -32.05 0.65 -32.3 -21.55 -29.6 -26.1 M-26.65 -16.05 Q-27.2 -9.5 -27.15 -2.05 -27.1 6.75 -26.3 13.2 -25.6 18.35 -24.75 20.3 -21.55 21.3 -12.2 22.2 L8.6 23.2 21.75 22.3 Q22.8 20.5 23.9 15.2 25.3 8.7 26.15 -0.4 26.85 -8.0 26.9 -14.55 26.95 -20.25 26.55 -22.95 23.0 -24.0 14.05 -24.85 L-6.75 -25.8 Q-20.8 -25.8 -25.55 -24.25 -26.2 -21.75 -26.65 -16.05" fill="#9d1e3d" fill-rule="evenodd" stroke="none"/>
    <path d="M-26.65 -16.05 Q-26.2 -21.75 -25.55 -24.25 -20.8 -25.8 -6.75 -25.8 L14.05 -24.85 Q23.0 -24.0 26.55 -22.95 26.95 -20.25 26.9 -14.55 26.85 -8.0 26.15 -0.4 25.3 8.7 23.9 15.2 22.8 20.5 21.75 22.3 L8.6 23.2 -12.2 22.2 Q-21.55 21.3 -24.75 20.3 -25.6 18.35 -26.3 13.2 -27.1 6.75 -27.15 -2.05 -27.2 -9.5 -26.65 -16.05" fill="#ff4a66" fill-rule="evenodd" stroke="none"/>
    <path d="M16.25 -13.1 Q16.45 -8.9 4.3 3.2 -7.8 15.25 -12.1 15.25 -14.45 15.25 -16.0 13.9 -17.75 12.4 -17.75 9.55 -17.75 7.45 -4.7 -5.65 8.4 -18.8 10.6 -18.8 12.6 -18.8 14.4 -17.0 16.15 -15.25 16.25 -13.1" fill="#ffffff" fill-rule="evenodd" stroke="none"/>
    <path d="M16.25 9.55 Q16.25 12.4 14.5 13.9 12.95 15.25 10.6 15.25 6.3 15.25 -5.8 3.2 -17.95 -8.9 -17.75 -13.1 -17.65 -15.25 -15.9 -17.0 -14.15 -18.8 -12.1 -18.8 -9.9 -18.8 3.2 -5.65 16.25 7.45 16.25 9.55" fill="#ffffff" fill-rule="evenodd" stroke="none"/>
  </g>
</svg>
