<?xml version="1.0" encoding="UTF-8" standalone="no"?>
<svg xmlns:ffdec="https://www.free-decompiler.com/flash" xmlns:xlink="http://www.w3.org/1999/xlink" ffdec:objectType="shape" height="30.3px" width="114.55px" xmlns="http://www.w3.org/2000/svg">
  <g transform="matrix(1.0, 0.0, 0.0, 1.0, 56.75, 15.0)">
    <path d="M13.9 -12.95 L10.6 -13.0 4.85 -13.05 -5.35 -13.1 -8.05 -13.1 -11.75 -13.1 -15.1 -13.15 -18.1 -13.15 -20.9 -13.15 -25.95 -13.15 -36.4 -13.05 -40.3 -13.0 -41.8 -12.95 -43.6 -12.9 -50.2 -12.35 -50.5 -11.65 -51.3 -8.15 Q-51.85 -4.8 -51.8 -0.95 -51.75 3.15 -51.1 6.2 L-50.95 6.9 -50.5 8.25 -49.6 10.25 -49.4 10.55 -43.6 11.15 -41.8 11.25 -40.3 11.3 -36.4 11.4 -31.75 11.5 -25.95 11.65 -18.1 11.8 -15.1 11.85 -11.75 11.9 -8.05 11.9 -5.35 11.9 4.85 11.95 10.6 12.0 13.9 12.0 17.2 12.0 20.25 12.0 26.5 12.0 27.5 12.0 30.4 12.0 37.0 11.95 40.2 11.95 42.2 11.9 44.15 11.8 46.0 11.7 46.2 11.7 47.5 11.55 47.6 11.45 48.55 10.25 49.5 8.25 49.65 7.9 50.3 6.2 Q51.25 3.45 51.9 -0.1 52.6 -4.0 52.65 -7.35 52.7 -10.25 52.35 -11.65 L52.3 -11.7 47.6 -12.2 46.2 -12.3 46.0 -12.3 44.15 -12.4 42.2 -12.5 40.2 -12.55 37.0 -12.6 34.2 -12.65 30.4 -12.7 27.5 -12.75 26.5 -12.75 17.2 -12.9 13.9 -12.95 M17.2 -14.75 L26.5 -14.65 27.5 -14.6 30.4 -14.6 37.0 -14.45 40.2 -14.4 42.2 -14.3 44.15 -14.25 46.0 -14.2 46.1 -14.2 46.2 -14.2 47.6 -14.1 Q55.35 -13.5 56.35 -12.8 L57.25 -11.65 Q58.55 -8.55 56.75 1.0 L55.55 6.2 54.9 8.25 54.1 10.25 Q52.4 13.85 50.15 14.45 L47.6 14.9 46.2 15.05 46.0 15.05 44.15 15.1 42.2 15.2 40.2 15.25 37.0 15.25 30.4 15.3 27.5 15.3 26.5 15.3 17.2 15.3 13.9 15.25 10.6 15.25 4.85 15.2 -5.35 15.15 -8.05 15.1 -8.25 15.1 -11.75 15.1 -15.1 15.05 -18.1 15.0 -25.95 14.9 -36.4 14.7 -40.3 14.6 -41.8 14.55 -43.6 14.45 -52.15 13.35 Q-54.1 12.85 -55.2 10.25 L-55.85 8.25 -56.3 6.2 Q-56.7 3.75 -56.75 0.45 -56.95 -8.2 -55.4 -11.65 -54.95 -12.75 -54.3 -13.3 -52.9 -14.45 -43.6 -14.8 L-41.8 -14.85 -40.3 -14.9 -36.4 -14.95 -25.95 -15.0 -18.1 -15.0 -15.1 -15.0 -11.75 -15.0 -8.05 -14.95 -5.35 -14.95 -2.1 -14.95 4.85 -14.9 10.6 -14.85 13.9 -14.8 17.2 -14.75" fill="#666666" fill-rule="evenodd" stroke="none"/>
    <path d="M13.9 -12.95 L17.2 -12.9 26.5 -12.75 27.5 -12.75 30.4 -12.7 34.2 -12.65 37.0 -12.6 40.2 -12.55 42.2 -12.5 44.15 -12.4 46.0 -12.3 46.2 -12.3 47.6 -12.2 52.3 -11.7 52.35 -11.65 Q52.7 -10.25 52.65 -7.35 52.6 -4.0 51.9 -0.1 51.25 3.45 50.3 6.2 L49.65 7.9 49.5 8.25 48.55 10.25 47.6 11.45 47.5 11.55 46.2 11.7 46.0 11.7 44.15 11.8 42.2 11.9 40.2 11.95 37.0 11.95 30.4 12.0 27.5 12.0 26.5 12.0 20.25 12.0 17.2 12.0 13.9 12.0 10.6 12.0 4.85 11.95 -5.35 11.9 -8.05 11.9 -11.75 11.9 -15.1 11.85 -18.1 11.8 -25.95 11.65 -31.75 11.5 -36.4 11.4 -40.3 11.3 -41.8 11.25 -43.6 11.15 -49.4 10.55 -49.6 10.25 -50.5 8.25 -50.95 6.9 -51.1 6.2 Q-51.75 3.15 -51.8 -0.95 -51.85 -4.8 -51.3 -8.15 L-50.5 -11.65 -50.2 -12.35 -43.6 -12.9 -41.8 -12.95 -40.3 -13.0 -36.4 -13.05 -25.95 -13.15 -20.9 -13.15 -18.1 -13.15 -15.1 -13.15 -11.75 -13.1 -8.05 -13.1 -5.35 -13.1 4.85 -13.05 10.6 -13.0 13.9 -12.95" fill="#999999" fill-rule="evenodd" stroke="none"/>
  </g>
</svg>
