<?xml version="1.0" encoding="UTF-8" standalone="no"?>
<svg xmlns:ffdec="https://www.free-decompiler.com/flash" xmlns:xlink="http://www.w3.org/1999/xlink" ffdec:objectType="shape" height="83.25px" width="79.05px" xmlns="http://www.w3.org/2000/svg">
  <g transform="matrix(1.0, 0.0, 0.0, 1.0, 48.5, 45.15)">
    <path d="M-9.25 -27.9 L-9.2 -28.6 -9.2 -29.7 Q-9.4 -33.5 -12.25 -36.35 -11.95 -36.8 -10.95 -37.35 -9.05 -38.5 -4.4 -40.15 2.4 -42.6 4.05 -42.45 4.95 -40.45 5.1 -37.35 L4.9 -33.35 Q4.35 -28.25 3.2 -26.1 0.9 -26.45 -1.1 -26.15 L-3.1 -25.55 Q-8.5 -27.2 -8.8 -27.5 L-9.25 -27.9 M0.5 -23.85 Q2.8 -23.9 5.5 -22.8 L9.5 -20.65 15.45 -16.4 9.4 -10.8 Q8.3 -10.1 7.15 -9.55 3.25 -7.6 -0.6 -7.6 L-0.6 -7.65 Q1.15 -8.0 1.8 -9.75 2.15 -10.6 2.4 -13.3 2.65 -15.35 0.9 -18.6 L0.3 -19.7 Q2.6 -22.0 0.5 -23.85 M-22.35 -12.35 Q-22.2 -10.75 -21.6 -9.35 -20.7 -5.25 -18.9 -4.65 L-17.3 -3.95 -16.1 -3.25 -15.35 -2.65 Q-17.45 1.45 -22.45 4.35 -24.25 5.4 -26.1 6.2 L-29.9 7.35 Q-33.05 1.5 -31.3 -4.45 L-30.7 -6.15 -30.2 -7.25 -24.75 -13.15 -23.35 -12.65 -22.35 -12.35 M-25.85 -14.0 L-28.0 -12.65 Q-31.45 -10.2 -32.4 -7.45 -36.25 -9.0 -40.1 -11.65 -43.5 -14.0 -45.2 -15.95 L-39.3 -21.05 Q-34.55 -24.95 -31.35 -25.7 -30.9 -23.1 -28.05 -20.55 L-27.85 -20.35 -27.6 -20.15 -27.4 -19.95 -27.25 -19.85 -26.85 -19.5 -25.85 -18.8 -25.25 -18.4 -25.7 -18.0 Q-26.85 -17.1 -26.7 -15.95 -26.6 -14.8 -25.85 -14.0 M-25.2 -21.0 Q-29.45 -24.9 -29.25 -31.3 L-29.1 -33.7 -28.45 -37.35 -27.3 -41.85 Q-20.45 -39.6 -17.05 -37.4 L-16.95 -37.35 -16.9 -37.3 -16.2 -36.8 Q-11.9 -33.55 -10.9 -28.9 -12.95 -29.8 -15.55 -29.3 -19.1 -28.65 -22.1 -26.05 -25.15 -23.35 -25.2 -21.0 M0.8 -5.7 L3.15 -6.05 Q3.3 -5.35 2.1 0.55 0.85 6.75 0.8 8.05 L0.2 7.95 -0.45 7.8 -3.7 7.05 -6.4 6.4 -7.35 6.15 -7.6 6.1 Q-13.25 4.75 -15.05 1.1 L-14.5 0.35 -14.45 0.55 -12.05 1.7 -4.8 2.0 Q-1.45 1.45 -0.05 -1.45 0.8 -3.25 0.8 -5.7 M-8.6 -25.95 L-9.5 -26.2 -9.5 -26.25 -8.6 -25.95" fill="#f7fff4" fill-rule="evenodd" stroke="none"/>
    <path d="M-6.45 8.7 L0.75 9.8 0.9 10.1 Q6.75 20.2 12.3 26.0 L12.55 26.3 11.75 22.2 Q11.05 18.2 11.5 12.45 12.15 4.45 15.1 -1.45 19.15 -10.75 27.65 -15.5 27.75 -15.35 28.1 -15.65 28.75 -15.9 30.15 -15.25 30.75 -13.95 30.5 -12.7 L29.8 -10.4 27.9 -4.8 25.8 1.8 Q23.9 7.9 22.7 15.45 21.8 21.25 21.7 24.8 L21.4 32.85 21.2 35.0 20.85 35.4 Q20.75 37.05 19.7 37.65 18.95 38.1 18.25 38.1 L17.75 38.05 Q17.45 38.3 14.95 36.75 L14.1 36.7 Q5.15 30.9 -15.05 27.1 L-27.4 24.95 Q-32.4 24.05 -32.25 23.35 -31.85 21.75 -20.9 20.55 -8.5 19.2 1.05 21.75 -3.0 15.7 -5.35 11.05 L-6.45 8.7 M28.35 -13.65 Q20.75 -9.45 16.9 -0.65 14.1 5.0 13.5 12.6 13.05 18.05 13.7 21.95 14.75 29.2 16.75 37.0 20.0 36.9 19.95 33.0 19.35 27.65 19.75 24.7 19.85 21.05 20.8 15.1 22.0 7.4 23.95 1.25 L27.9 -10.9 Q29.4 -15.75 28.35 -13.65 M3.75 18.4 L2.75 16.9 -0.45 15.75 1.2 18.35 7.05 26.6 Q10.6 31.35 15.65 34.85 14.55 32.6 13.6 30.05 11.8 28.6 10.9 27.4 L9.45 25.8 8.5 24.7 8.35 24.55 8.1 24.2 8.0 24.1 7.8 23.85 7.3 23.25 6.8 22.6 3.75 18.4" fill="#5e7d4f" fill-rule="evenodd" stroke="none"/>
    <path d="M-9.5 -26.2 L-10.3 -26.45 -9.5 -26.25 -9.5 -26.2" fill="#abc2b4" fill-rule="evenodd" stroke="none"/>
    <path d="M-9.25 -27.9 L-8.8 -27.5 Q-8.5 -27.2 -3.1 -25.55 L-1.6 -25.1 0.5 -23.85 Q2.6 -22.0 0.3 -19.7 L-0.7 -18.9 Q0.85 -16.3 -0.6 -13.15 -2.05 -9.9 -5.05 -9.55 -6.05 -9.2 -8.35 -6.15 -10.35 -3.45 -13.05 -3.4 -15.85 -3.95 -17.4 -5.95 -18.45 -7.35 -19.55 -10.6 -19.9 -11.65 -22.35 -12.35 L-23.35 -12.65 -24.75 -13.15 -25.85 -14.0 Q-26.6 -14.8 -26.7 -15.95 -26.85 -17.1 -25.7 -18.0 L-25.25 -18.4 Q-24.7 -18.95 -24.9 -19.45 -25.25 -20.2 -25.2 -21.0 -25.15 -23.35 -22.1 -26.05 -19.1 -28.65 -15.55 -29.3 -12.95 -29.8 -10.9 -28.9 -10.0 -28.55 -9.25 -27.9 M-10.3 -26.45 L-10.45 -26.55 -10.6 -26.7 Q-13.15 -28.9 -17.75 -26.8 -22.35 -24.75 -23.25 -21.45 L-23.05 -19.65 -22.95 -19.35 Q-22.7 -18.15 -22.8 -17.55 L-23.2 -17.6 -23.35 -17.5 -23.45 -17.5 -23.65 -17.45 -24.3 -17.1 Q-26.1 -16.1 -24.5 -14.65 L-24.25 -14.45 -23.85 -14.15 -22.4 -13.25 -20.15 -12.15 -19.7 -12.05 Q-18.95 -12.25 -16.45 -7.6 -13.45 -3.6 -10.05 -6.45 -9.0 -7.3 -8.5 -9.0 -8.05 -10.7 -7.15 -11.5 L-4.75 -11.95 Q-2.9 -12.25 -2.2 -14.0 -1.85 -14.85 -2.25 -16.6 L-2.6 -18.5 -1.45 -21.1 -1.3 -21.55 Q-1.25 -22.15 -1.45 -22.65 L-1.65 -22.95 -2.2 -23.6 -2.25 -23.65 -2.45 -23.8 -2.9 -24.1 -4.2 -24.75 -5.3 -25.15 -6.15 -25.35 -6.25 -25.4 -6.4 -25.45 -8.6 -25.95 -9.5 -26.25 -10.3 -26.45 M-10.6 -25.9 L-9.65 -25.65 -8.7 -25.2 -7.6 -24.4 Q-4.9 -21.8 -4.8 -18.5 -4.65 -15.5 -6.55 -14.5 L-6.6 -14.65 -6.65 -14.75 -7.3 -15.65 Q-7.75 -16.1 -8.35 -16.35 -8.35 -13.6 -10.3 -13.35 -12.45 -13.05 -14.5 -15.25 -15.5 -13.75 -14.1 -10.9 -13.4 -9.45 -14.3 -9.75 -15.15 -10.05 -16.55 -11.55 -20.5 -15.65 -20.05 -19.25 L-19.2 -21.7 Q-18.0 -23.95 -15.0 -25.2 -12.55 -26.2 -10.6 -25.9 M-8.7 -18.85 Q-9.55 -22.0 -12.05 -21.35 -14.4 -20.75 -15.25 -18.35 L-13.85 -16.55 -13.5 -16.15 Q-12.8 -15.5 -12.0 -15.4 -10.25 -15.75 -9.4 -16.7 -8.75 -17.55 -8.7 -18.85" fill="#aa4e11" fill-rule="evenodd" stroke="none"/>
    <path d="M-10.1 -18.85 Q-10.35 -18.2 -11.0 -18.0 -11.65 -17.75 -12.25 -18.0 -12.85 -18.3 -13.1 -18.9 -13.35 -19.55 -13.05 -20.15 -12.8 -20.8 -12.15 -21.0 -11.55 -21.25 -10.95 -21.0 -10.3 -20.75 -10.05 -20.1 -9.8 -19.45 -10.1 -18.85" fill="#ffebdb" fill-rule="evenodd" stroke="none"/>
    <path d="M-8.6 -25.95 L-6.4 -25.45 -6.25 -25.4 -6.15 -25.35 -5.3 -25.15 -4.2 -24.75 -2.9 -24.1 -2.45 -23.8 -2.25 -23.65 -2.2 -23.6 -1.65 -22.95 -1.45 -22.65 Q-1.25 -22.15 -1.3 -21.55 L-1.45 -21.1 -2.6 -18.5 -2.25 -16.6 Q-1.85 -14.85 -2.2 -14.0 -2.9 -12.25 -4.75 -11.95 L-7.15 -11.5 Q-8.05 -10.7 -8.5 -9.0 -9.0 -7.3 -10.05 -6.45 -13.45 -3.6 -16.45 -7.6 -18.95 -12.25 -19.7 -12.05 L-20.15 -12.15 -22.4 -13.25 -23.85 -14.15 -24.25 -14.45 -24.5 -14.65 Q-26.1 -16.1 -24.3 -17.1 L-23.65 -17.45 -23.45 -17.5 -23.35 -17.5 -23.2 -17.6 -22.8 -17.55 Q-22.7 -18.15 -22.95 -19.35 L-23.05 -19.65 -23.25 -21.45 Q-22.35 -24.75 -17.75 -26.8 -13.15 -28.9 -10.6 -26.7 L-10.45 -26.55 -10.3 -26.45 -9.5 -26.2 -8.6 -25.95 M-10.6 -25.9 Q-12.55 -26.2 -15.0 -25.2 -18.0 -23.95 -19.2 -21.7 L-20.05 -19.25 Q-20.5 -15.65 -16.55 -11.55 -15.15 -10.05 -14.3 -9.75 -13.4 -9.45 -14.1 -10.9 -15.5 -13.75 -14.5 -15.25 -12.45 -13.05 -10.3 -13.35 -8.35 -13.6 -8.35 -16.35 -7.75 -16.1 -7.3 -15.65 L-6.65 -14.75 -6.6 -14.65 -6.55 -14.5 Q-4.65 -15.5 -4.8 -18.5 -4.9 -21.8 -7.6 -24.4 L-8.7 -25.2 -9.65 -25.65 -10.6 -25.9 M-10.1 -18.85 Q-9.8 -19.45 -10.05 -20.1 -10.3 -20.75 -10.95 -21.0 -11.55 -21.25 -12.15 -21.0 -12.8 -20.8 -13.05 -20.15 -13.35 -19.55 -13.1 -18.9 -12.85 -18.3 -12.25 -18.0 -11.65 -17.75 -11.0 -18.0 -10.35 -18.2 -10.1 -18.85 M-8.7 -18.85 Q-8.75 -17.55 -9.4 -16.7 -10.25 -15.75 -12.0 -15.4 -12.8 -15.5 -13.5 -16.15 L-13.85 -16.55 -15.25 -18.35 Q-14.4 -20.75 -12.05 -21.35 -9.55 -22.0 -8.7 -18.85" fill="#f08f31" fill-rule="evenodd" stroke="none"/>
    <path d="M28.35 -13.65 Q29.4 -15.75 27.9 -10.9 L23.95 1.25 Q22.0 7.4 20.8 15.1 19.85 21.05 19.75 24.7 19.35 27.65 19.95 33.0 20.0 36.9 16.75 37.0 14.75 29.2 13.7 21.95 13.05 18.05 13.5 12.6 14.1 5.0 16.9 -0.65 20.75 -9.45 28.35 -13.65 M2.75 16.9 L3.75 18.4 6.8 22.6 7.3 23.25 7.8 23.85 8.0 24.1 8.1 24.2 8.35 24.55 8.5 24.7 9.45 25.8 10.9 27.4 Q11.8 28.6 13.6 30.05 14.55 32.6 15.65 34.85 10.6 31.35 7.05 26.6 L1.2 18.35 -0.45 15.75 2.75 16.9" fill="#7cc433" fill-rule="evenodd" stroke="none"/>
    <path d="M-6.45 8.7 L-6.7 8.65 Q-14.05 7.25 -16.2 2.8 -18.3 5.0 -24.8 7.75 -28.05 9.1 -30.9 10.05 -33.0 5.2 -33.5 3.05 -34.4 -0.75 -33.55 -5.3 -35.85 -5.95 -41.4 -10.25 L-48.5 -15.5 Q-46.05 -18.2 -42.05 -21.4 -36.1 -26.15 -31.55 -27.75 -32.1 -29.5 -30.7 -37.3 L-30.7 -37.35 -29.2 -44.75 Q-26.75 -44.6 -22.55 -42.75 -17.9 -40.7 -13.8 -37.65 -11.9 -39.95 -4.05 -42.45 L5.3 -45.15 Q7.2 -41.8 7.45 -37.35 L7.5 -36.15 Q7.5 -30.9 5.35 -25.55 7.6 -24.75 13.3 -20.7 L18.55 -16.75 Q16.3 -13.9 13.15 -11.35 9.0 -8.05 5.0 -6.85 5.2 -5.85 4.05 0.9 2.7 8.55 2.6 10.0 L0.75 9.8 -6.45 8.7 M-3.1 -25.55 L-1.1 -26.15 Q0.9 -26.45 3.2 -26.1 4.35 -28.25 4.9 -33.35 L5.1 -37.35 Q4.95 -40.45 4.05 -42.45 2.4 -42.6 -4.4 -40.15 -9.05 -38.5 -10.95 -37.35 -11.95 -36.8 -12.25 -36.35 -9.4 -33.5 -9.2 -29.7 L-9.2 -28.6 -9.25 -27.9 Q-10.0 -28.55 -10.9 -28.9 -11.9 -33.55 -16.2 -36.8 L-16.9 -37.3 -16.95 -37.35 -17.05 -37.4 Q-20.45 -39.6 -27.3 -41.85 L-28.45 -37.35 -29.1 -33.7 -29.25 -31.3 Q-29.45 -24.9 -25.2 -21.0 -25.25 -20.2 -24.9 -19.45 -24.7 -18.95 -25.25 -18.4 L-25.85 -18.8 -26.85 -19.5 -27.25 -19.85 -27.4 -19.95 -27.6 -20.15 -27.85 -20.35 -28.05 -20.55 Q-30.9 -23.1 -31.35 -25.7 -34.55 -24.95 -39.3 -21.05 L-45.2 -15.95 Q-43.5 -14.0 -40.1 -11.65 -36.25 -9.0 -32.4 -7.45 -31.45 -10.2 -28.0 -12.65 L-25.85 -14.0 -24.75 -13.15 -30.2 -7.25 -30.7 -6.15 -31.3 -4.45 Q-33.05 1.5 -29.9 7.35 L-26.1 6.2 Q-24.25 5.4 -22.45 4.35 -17.45 1.45 -15.35 -2.65 L-16.1 -3.25 -17.3 -3.95 -18.9 -4.65 Q-20.7 -5.25 -21.6 -9.35 -22.2 -10.75 -22.35 -12.35 -19.9 -11.65 -19.55 -10.6 -18.45 -7.35 -17.4 -5.95 -15.85 -3.95 -13.05 -3.4 -10.35 -3.45 -8.35 -6.15 -6.05 -9.2 -5.05 -9.55 -2.05 -9.9 -0.6 -13.15 0.85 -16.3 -0.7 -18.9 L0.3 -19.7 0.9 -18.6 Q2.65 -15.35 2.4 -13.3 2.15 -10.6 1.8 -9.75 1.15 -8.0 -0.6 -7.65 L-0.6 -7.6 Q3.25 -7.6 7.15 -9.55 8.3 -10.1 9.4 -10.8 L15.45 -16.4 9.5 -20.65 6.85 -22.2 5.5 -22.8 Q2.8 -23.9 0.5 -23.85 L-1.6 -25.1 -3.1 -25.55 M3.15 -6.05 L0.8 -5.8 0.8 -5.7 Q0.8 -3.25 -0.05 -1.45 -1.45 1.45 -4.8 2.0 L-12.05 1.7 -14.45 0.55 -14.5 0.35 -14.5 0.3 -15.05 1.1 Q-13.25 4.75 -7.6 6.1 L-7.35 6.15 -6.4 6.4 -3.7 7.05 -0.45 7.8 0.2 7.95 0.8 8.05 Q0.85 6.75 2.1 0.55 3.3 -5.35 3.15 -6.05" fill="#afbd8e" fill-rule="evenodd" stroke="none"/>
  </g>
</svg>
