<?xml version="1.0" encoding="UTF-8" standalone="no"?>
<svg xmlns:ffdec="https://www.free-decompiler.com/flash" xmlns:xlink="http://www.w3.org/1999/xlink" ffdec:objectType="shape" height="63.0px" width="50.0px" xmlns="http://www.w3.org/2000/svg">
  <g transform="matrix(1.0, 0.0, 0.0, 1.0, 25.0, 38.0)">
    <path d="M-3.5 -21.25 Q1.7 -22.5 6.55 -21.25 11.8 -19.85 14.0 -16.0 L14.0 -7.0 6.5 -1.0 Q1.4 2.8 -1.0 5.0 -0.3 6.0 1.15 5.65 2.4 5.35 3.0 7.0 1.95 8.55 2.0 10.0 -7.25 6.25 0.95 -1.1 L8.15 -6.65 Q12.35 -9.7 13.0 -11.0 11.6 -14.8 7.5 -16.55 3.75 -18.15 -0.9 -17.55 -5.55 -17.0 -8.85 -14.55 -12.45 -11.9 -13.0 -8.0 -14.6 -12.9 -11.6 -16.65 -8.85 -19.95 -3.5 -21.25 M3.0 17.0 L1.75 17.2 Q1.05 17.4 1.0 18.0 L2.3 17.75 Q3.0 17.6 3.0 17.0 M5.0 20.0 Q3.05 21.55 -0.3 20.95 -3.8 20.35 -4.0 18.0 -4.05 15.2 -1.65 14.35 L4.0 14.0 Q4.0 14.85 4.75 16.7 5.4 18.25 5.0 20.0" fill="#004488" fill-rule="evenodd" stroke="none"/>
    <path d="M-3.5 -21.25 Q-8.85 -19.95 -11.6 -16.65 -14.6 -12.9 -13.0 -8.0 -12.45 -11.9 -8.85 -14.55 -5.55 -17.0 -0.9 -17.55 3.75 -18.15 7.5 -16.55 11.6 -14.8 13.0 -11.0 12.35 -9.7 8.15 -6.65 L0.95 -1.1 Q-7.25 6.25 2.0 10.0 1.95 8.55 3.0 7.0 2.4 5.35 1.15 5.65 -0.3 6.0 -1.0 5.0 1.4 2.8 6.5 -1.0 L14.0 -7.0 14.0 -16.0 Q11.8 -19.85 6.55 -21.25 1.7 -22.5 -3.5 -21.25 M25.0 -25.0 L25.0 25.0 -25.0 25.0 -25.0 -25.0 25.0 -25.0 M3.0 17.0 Q3.0 17.6 2.3 17.75 L1.0 18.0 Q1.05 17.4 1.75 17.2 L3.0 17.0 M5.0 20.0 Q5.4 18.25 4.75 16.7 4.0 14.85 4.0 14.0 L-1.65 14.35 Q-4.05 15.2 -4.0 18.0 -3.8 20.35 -0.3 20.95 3.05 21.55 5.0 20.0" fill="#ffffff" fill-rule="evenodd" stroke="none"/>
    <path d="M25.0 -25.0 L-25.0 -25.0 -25.0 -38.0 25.0 -38.0 25.0 -25.0" fill="#ffffff" fill-rule="evenodd" stroke="none"/>
  </g>
</svg>
