<?xml version="1.0" encoding="UTF-8" standalone="no"?>
<svg xmlns:ffdec="https://www.free-decompiler.com/flash" xmlns:xlink="http://www.w3.org/1999/xlink" ffdec:objectType="shape" height="25.9px" width="50.0px" xmlns="http://www.w3.org/2000/svg">
  <g transform="matrix(1.0, 0.0, 0.0, 1.0, 25.0, -22.95)">
    <path d="M25.0 25.7 L25.0 45.9 Q25.0 48.85 22.1 48.85 L-22.05 48.85 Q-25.0 48.85 -25.0 45.9 L-25.0 25.7 Q-24.9 22.95 -22.1 22.95 L22.05 22.95 Q24.9 22.95 25.0 25.7" fill="#000000" fill-rule="evenodd" stroke="none"/>
    <path d="M6.8 41.55 Q7.9 41.55 8.55 42.0 9.2 42.5 9.5 43.5 L7.9 43.8 7.55 43.05 6.8 42.85 Q6.2 42.85 5.85 43.25 5.5 43.65 5.5 44.6 5.5 45.7 5.85 46.15 6.2 46.6 6.8 46.6 L7.55 46.35 Q7.85 46.1 7.95 45.45 L9.55 45.7 Q9.3 46.8 8.6 47.35 7.9 47.9 6.7 47.9 5.35 47.9 4.6 47.1 3.8 46.25 3.8 44.7 3.8 43.25 4.6 42.35 5.35 41.55 6.8 41.55 M22.0 38.6 Q22.7 38.6 23.2 39.0 L23.55 39.9 Q23.55 40.55 22.8 40.95 23.25 41.0 23.5 41.35 L23.8 42.15 Q23.8 42.85 23.25 43.25 22.8 43.7 22.05 43.7 L20.9 43.35 Q20.5 42.95 20.45 42.3 L21.3 42.2 21.6 42.8 22.05 42.95 22.55 42.7 22.8 42.15 22.55 41.55 22.05 41.3 21.65 41.35 21.7 40.6 22.35 40.45 22.55 39.95 22.45 39.55 22.0 39.35 21.6 39.55 21.35 40.05 20.5 39.9 20.8 39.2 21.25 38.7 22.0 38.6 M18.65 41.85 L19.35 42.6 19.55 43.9 19.55 47.8 17.9 47.8 17.9 44.3 17.8 43.15 Q17.55 42.8 17.05 42.8 L16.45 42.95 Q16.15 43.2 16.0 43.6 15.85 44.0 15.85 44.85 L15.85 47.8 14.25 47.8 14.25 44.45 14.2 43.3 13.9 42.9 13.45 42.8 12.7 42.95 12.3 43.55 12.2 44.85 12.2 47.8 10.55 47.8 10.55 41.65 12.05 41.65 12.05 42.5 Q12.85 41.55 13.95 41.55 L14.95 41.8 15.65 42.5 16.55 41.8 17.55 41.55 Q18.2 41.55 18.65 41.85" fill="#ffffff" fill-rule="evenodd" stroke="none"/>
  </g>
</svg>
