<?xml version="1.0" encoding="UTF-8" standalone="no"?>
<svg xmlns:ffdec="https://www.free-decompiler.com/flash" xmlns:xlink="http://www.w3.org/1999/xlink" ffdec:objectType="shape" height="44.8px" width="43.85px" xmlns="http://www.w3.org/2000/svg">
  <g transform="matrix(1.0, 0.0, 0.0, 1.0, 21.95, 22.4)">
    <path d="M-0.05 -9.7 Q-3.85 -9.7 -6.55 -7.0 -9.3 -4.25 -9.3 -0.45 L-9.3 -0.15 0.25 -9.7 -0.05 -9.7 M9.2 -0.75 L-0.35 8.8 -0.05 8.8 Q3.8 8.8 6.5 6.1 9.2 3.35 9.2 -0.45 L9.2 -0.75 M15.45 -15.95 Q21.9 -9.5 21.9 -0.45 21.9 8.6 15.45 15.05 9.0 21.45 -0.05 21.45 -9.1 21.45 -15.5 15.05 -21.95 8.6 -21.95 -0.45 -21.95 -9.5 -15.5 -15.95 -9.1 -22.35 -0.05 -22.4 9.0 -22.35 15.45 -15.95" fill="#9d1e60" fill-rule="evenodd" stroke="none"/>
    <path d="M-0.05 -20.2 Q7.85 -20.2 13.45 -14.6 19.05 -9.05 19.05 -1.1 19.05 6.8 13.45 12.4 7.85 17.95 -0.05 17.95 -7.95 17.95 -13.55 12.4 -19.1 6.8 -19.1 -1.1 -19.1 -9.05 -13.55 -14.6 -7.95 -20.2 -0.05 -20.2 M5.65 -11.75 Q3.0 -13.2 -0.05 -13.2 -5.05 -13.2 -8.6 -9.65 -12.1 -6.1 -12.15 -1.1 -12.15 1.9 -10.7 4.6 L5.65 -11.75 M12.05 -1.1 Q12.05 -4.2 10.6 -6.8 L-5.75 9.55 Q-3.05 10.95 -0.05 10.95 4.95 10.95 8.5 7.45 12.05 3.9 12.05 -1.1" fill="#f5697d" fill-rule="evenodd" stroke="none"/>
    <path d="M-3.85 13.3 Q-3.85 15.7 -5.4 17.15 -6.7 18.4 -8.7 18.7 L-8.7 22.25 -15.15 22.25 -15.15 8.65 -13.35 8.35 -10.0 8.15 Q-7.25 8.15 -5.7 9.4 -4.8 10.1 -4.35 11.1 -3.85 12.15 -3.85 13.3" fill="#231f20" fill-rule="evenodd" stroke="none"/>
    <path d="M-6.7 8.65 L-4.9 8.35 -1.65 8.15 Q1.3 8.15 2.85 9.35 4.55 10.7 4.55 13.1 4.55 14.55 3.7 15.75 L4.05 16.8 4.3 17.75 4.75 19.2 6.25 22.25 -6.7 22.25 -6.7 8.65" fill="#231f20" fill-rule="evenodd" stroke="none"/>
    <path d="M8.1 22.4 Q5.2 22.4 3.3 20.4 1.4 18.4 1.4 15.3 1.4 12.15 3.35 10.1 5.3 8.05 8.3 8.05 11.2 8.05 13.15 10.05 15.05 12.05 15.05 15.1 15.05 18.35 13.1 20.35 11.15 22.4 8.1 22.4" fill="#231f20" fill-rule="evenodd" stroke="none"/>
    <path d="M-10.8 12.0 L-10.8 14.9 -10.05 14.95 Q-9.2 14.95 -8.65 14.55 -8.15 14.1 -8.15 13.35 -8.15 12.7 -8.6 12.3 -9.05 11.95 -9.9 11.95 L-10.8 12.0 M-6.0 13.3 Q-6.0 14.8 -6.9 15.65 -8.0 16.65 -10.05 16.65 L-10.8 16.6 -10.8 20.1 -13.0 20.1 -13.0 10.45 -10.0 10.25 Q-8.05 10.25 -7.0 11.05 -6.0 11.9 -6.0 13.3" fill="#ffffff" fill-rule="evenodd" stroke="none"/>
    <path d="M2.45 13.1 Q2.45 13.95 1.9 14.65 L0.7 15.5 0.7 15.55 Q1.6 15.9 2.0 17.35 L2.8 20.1 0.55 20.1 -0.15 17.85 Q-0.3 16.95 -0.7 16.6 -1.0 16.3 -1.7 16.25 L-2.4 16.25 -2.4 20.1 -4.55 20.1 -4.55 10.45 -1.65 10.25 Q0.55 10.25 1.55 11.05 2.45 11.75 2.45 13.1 M-2.4 12.0 L-2.4 14.65 -1.5 14.65 Q-0.7 14.65 -0.2 14.3 L0.25 13.25 Q0.25 11.9 -1.4 11.9 L-2.4 12.0" fill="#ffffff" fill-rule="evenodd" stroke="none"/>
    <path d="M6.5 12.9 Q5.85 13.8 5.85 15.25 5.85 16.7 6.5 17.6 7.15 18.5 8.25 18.5 9.35 18.5 10.0 17.55 10.6 16.65 10.6 15.2 10.6 13.8 9.95 12.9 9.3 11.95 8.2 11.95 7.15 11.95 6.5 12.9 M8.3 10.2 Q10.45 10.2 11.75 11.65 12.9 13.0 12.9 15.1 12.9 17.5 11.6 18.9 10.3 20.25 8.1 20.25 6.0 20.25 4.75 18.85 3.5 17.45 3.5 15.3 3.5 13.05 4.8 11.65 6.15 10.2 8.3 10.2" fill="#ffffff" fill-rule="evenodd" stroke="none"/>
  </g>
</svg>
