<?xml version="1.0" encoding="UTF-8" standalone="no"?>
<svg xmlns:ffdec="https://www.free-decompiler.com/flash" xmlns:xlink="http://www.w3.org/1999/xlink" ffdec:objectType="shape" height="78.3px" width="78.85px" xmlns="http://www.w3.org/2000/svg">
  <g transform="matrix(1.0, 0.0, 0.0, 1.0, 39.4, 39.15)">
    <path d="M-15.0 -20.05 Q-14.7 -20.4 -14.7 -20.85 -14.7 -21.3 -15.0 -21.6 -15.35 -21.95 -15.8 -21.95 -16.25 -21.95 -16.55 -21.6 L-16.9 -20.85 -16.55 -20.05 Q-16.25 -19.75 -15.8 -19.75 -15.35 -19.75 -15.0 -20.05 M-13.2 -19.6 Q-13.2 -18.3 -14.15 -17.35 -15.05 -16.45 -16.35 -16.45 -17.65 -16.45 -18.6 -17.35 -19.55 -18.3 -19.55 -19.6 -19.55 -20.9 -18.6 -21.85 -17.65 -22.75 -16.35 -22.75 -15.05 -22.75 -14.15 -21.85 -13.2 -20.9 -13.2 -19.6" fill="#312f2f" fill-rule="evenodd" stroke="none"/>
    <path d="M-15.0 -20.05 Q-15.35 -19.75 -15.8 -19.75 -16.25 -19.75 -16.55 -20.05 L-16.9 -20.85 -16.55 -21.6 Q-16.25 -21.95 -15.8 -21.95 -15.35 -21.95 -15.0 -21.6 -14.7 -21.3 -14.7 -20.85 -14.7 -20.4 -15.0 -20.05" fill="#ffffff" fill-rule="evenodd" stroke="none"/>
    <path d="M4.85 -14.0 Q5.75 -10.35 7.25 -8.75 8.9 -6.9 10.95 -5.95 13.25 -4.9 15.5 -5.2 17.95 -7.4 20.75 -7.95 24.95 -8.75 28.65 -5.5 34.65 -4.25 34.7 2.85 34.7 9.7 29.6 14.05 30.1 15.25 32.35 16.15 34.55 17.05 37.2 17.2 L35.55 23.55 33.1 33.65 33.0 34.15 Q32.45 35.95 31.35 36.3 L27.75 36.15 28.4 34.15 Q29.9 29.15 31.2 23.6 L25.65 21.85 Q21.7 20.55 20.75 19.8 16.8 16.55 16.75 10.7 16.75 4.9 20.65 1.6 15.35 4.0 14.95 10.45 14.6 16.65 18.7 20.6 12.75 21.3 7.15 20.35 8.7 17.95 9.15 14.15 6.8 18.75 4.05 21.2 L1.3 23.6 Q-0.55 25.4 -0.6 26.55 -0.45 28.65 3.0 31.1 L7.75 34.15 8.55 34.65 Q6.0 37.3 5.25 37.45 4.4 37.6 1.35 36.0 L-1.55 34.15 Q-3.7 32.6 -4.9 30.85 -7.15 27.55 -6.05 23.25 -5.4 20.65 -2.7 15.95 1.7 8.15 -0.35 1.4 -0.6 8.0 -3.45 13.25 -4.8 11.35 -5.85 8.3 -7.1 4.6 -6.65 2.2 -8.35 0.5 -12.0 -1.9 -6.55 -4.35 -3.9 -7.8 -0.55 -12.2 -2.85 -17.1 -3.2 -9.95 -8.95 -5.95 -12.7 -3.4 -21.35 -1.0 -24.55 -0.15 -26.85 -0.6 -30.8 -1.5 -32.15 -6.3 L-32.15 -7.35 -31.6 -8.45 Q-30.7 -10.25 -30.2 -13.15 -29.75 -15.85 -30.05 -16.5 L-31.4 -20.75 Q-32.4 -25.85 -29.25 -30.25 -26.4 -34.2 -21.15 -36.2 -15.95 -38.2 -10.95 -37.3 -5.55 -36.3 -2.6 -32.1 L-7.25 -32.85 Q-2.75 -30.1 8.1 -28.3 L20.65 -26.35 Q20.95 -24.75 19.5 -23.1 17.9 -21.35 15.05 -20.55 7.7 -18.45 -2.0 -23.7 L4.0 -19.25 Q4.15 -16.7 4.85 -14.0 M-13.2 -19.6 Q-13.2 -20.9 -14.15 -21.85 -15.05 -22.75 -16.35 -22.75 -17.65 -22.75 -18.6 -21.85 -19.55 -20.9 -19.55 -19.6 -19.55 -18.3 -18.6 -17.35 -17.65 -16.45 -16.35 -16.45 -15.05 -16.45 -14.15 -17.35 -13.2 -18.3 -13.2 -19.6" fill="#bcf8fe" fill-rule="evenodd" stroke="none"/>
    <path d="M4.85 -14.0 Q4.15 -16.7 4.0 -19.25 L-2.0 -23.7 Q7.7 -18.45 15.05 -20.55 17.9 -21.35 19.5 -23.1 20.95 -24.75 20.65 -26.35 L8.1 -28.3 Q-2.75 -30.1 -7.25 -32.85 L-2.6 -32.1 Q-5.55 -36.3 -10.95 -37.3 -15.95 -38.2 -21.15 -36.2 -26.4 -34.2 -29.25 -30.25 -32.4 -25.85 -31.4 -20.75 L-30.05 -16.5 Q-29.75 -15.85 -30.2 -13.15 -30.7 -10.25 -31.6 -8.45 L-32.15 -7.35 -32.15 -6.3 Q-30.8 -1.5 -26.85 -0.6 -24.55 -0.15 -21.35 -1.0 -12.7 -3.4 -8.95 -5.95 -3.2 -9.95 -2.85 -17.1 -0.55 -12.2 -3.9 -7.8 -6.55 -4.35 -12.0 -1.9 -8.35 0.5 -6.65 2.2 -7.1 4.6 -5.85 8.3 -4.8 11.35 -3.45 13.25 -0.6 8.0 -0.35 1.4 1.7 8.15 -2.7 15.95 -5.4 20.65 -6.05 23.25 -7.15 27.55 -4.9 30.85 -3.7 32.6 -1.55 34.15 L1.35 36.0 Q4.4 37.6 5.25 37.45 6.0 37.3 8.55 34.65 L7.75 34.15 3.0 31.1 Q-0.45 28.65 -0.6 26.55 -0.55 25.4 1.3 23.6 L4.05 21.2 Q6.8 18.75 9.15 14.15 8.7 17.95 7.15 20.35 12.75 21.3 18.7 20.6 14.6 16.65 14.95 10.45 15.35 4.0 20.65 1.6 16.75 4.9 16.75 10.7 16.8 16.55 20.75 19.8 21.7 20.55 25.65 21.85 L31.2 23.6 Q29.9 29.15 28.4 34.15 L27.75 36.15 31.35 36.3 Q32.45 35.95 33.0 34.15 L33.1 33.65 35.55 23.55 37.2 17.2 Q34.55 17.05 32.35 16.15 30.1 15.25 29.6 14.05 34.7 9.7 34.7 2.85 34.65 -4.25 28.65 -5.5 24.95 -8.75 20.75 -7.95 17.95 -7.4 15.5 -5.2 13.25 -4.9 10.95 -5.95 8.9 -6.9 7.25 -8.75 5.75 -10.35 4.85 -14.0 M7.1 -11.9 Q8.55 -8.3 14.15 -7.1 20.15 -10.2 25.4 -9.2 29.25 -8.45 30.9 -6.25 32.85 -6.85 33.85 -7.85 34.95 -8.9 35.75 -11.1 37.85 -9.25 37.95 -5.6 38.05 -1.75 35.65 0.15 36.6 4.25 35.95 7.6 35.35 10.65 33.05 14.6 L38.6 15.3 Q39.45 15.35 39.45 16.5 39.4 17.45 38.75 18.7 38.3 19.55 36.95 25.45 L35.0 34.15 34.7 35.4 34.6 35.65 Q34.25 37.15 32.75 38.1 31.3 39.05 29.65 39.0 27.2 39.0 26.15 37.0 25.9 36.55 26.45 34.15 L27.1 31.55 28.9 25.5 Q27.0 25.05 24.4 24.0 L19.9 22.15 12.9 22.55 6.15 22.15 1.4 26.25 Q1.4 26.6 4.85 29.35 L10.0 33.25 10.5 34.15 Q10.8 35.4 9.3 36.95 7.4 38.9 5.4 39.15 3.6 39.4 -1.3 36.05 L-3.9 34.15 Q-6.65 31.95 -7.45 30.25 -9.05 26.9 -7.9 22.6 -7.1 19.55 -4.65 15.35 -10.5 16.0 -11.9 19.45 -13.2 22.55 -10.8 27.75 -10.65 29.1 -11.7 30.65 -12.55 31.95 -13.5 32.55 -15.15 32.3 -17.0 29.95 -18.9 27.55 -19.85 24.4 -22.3 16.25 -16.25 12.15 -15.1 11.35 -12.5 10.1 L-8.6 8.25 Q-8.6 4.15 -8.25 2.65 -9.6 1.1 -11.25 0.35 L-14.75 -0.8 -20.0 0.75 -23.85 1.5 -27.8 1.35 Q-33.4 -0.05 -33.85 -4.95 -38.8 -1.75 -39.35 -3.1 -39.65 -3.9 -36.65 -11.3 L-32.6 -20.55 Q-34.1 -25.95 -30.8 -30.9 -27.65 -35.6 -21.7 -37.85 -17.65 -39.4 -13.4 -39.1 -9.05 -38.8 -5.45 -36.65 L-2.35 -34.3 Q-0.8 -32.9 -0.25 -31.85 0.85 -31.35 11.7 -29.5 L22.2 -27.4 Q23.9 -22.05 17.05 -19.15 10.5 -16.4 5.7 -18.6 6.4 -16.35 7.1 -11.9" fill="#2882bd" fill-rule="evenodd" stroke="none"/>
    <path d="M-24.75 -8.8 L-27.35 -7.7 Q-28.25 -7.15 -28.6 -4.6 L-28.75 -2.25 -28.9 -4.2 Q-29.2 -6.45 -29.9 -7.25 L-31.15 -8.5 -31.6 -8.8 -23.2 -9.25 -24.75 -8.8" fill="#cc4346" fill-rule="evenodd" stroke="none"/>
  </g>
</svg>
