<?xml version="1.0" encoding="UTF-8" standalone="no"?>
<svg xmlns:ffdec="https://www.free-decompiler.com/flash" xmlns:xlink="http://www.w3.org/1999/xlink" ffdec:objectType="shape" height="536.25px" width="819.1px" xmlns="http://www.w3.org/2000/svg">
  <g transform="matrix(1.0, 0.0, 0.0, 1.0, 408.05, 296.25)">
    <path d="M320.0 240.0 L-320.0 240.0 -320.0 -240.0 320.0 -240.0 320.0 240.0" fill="url(#gradient0)" fill-rule="evenodd" stroke="none"/>
    <path d="M410.45 204.95 Q409.05 209.8 407.65 216.25 L406.0 223.55 Q405.25 226.1 402.8 228.45 400.0 231.15 397.15 231.15 382.2 231.3 259.85 227.4 L134.05 222.95 Q124.4 222.0 114.9 215.25 100.6 205.1 98.6 187.05 L94.0 140.3 99.8 139.6 103.95 163.5 Q107.35 182.7 112.45 189.65 119.35 199.0 135.95 200.05 L275.7 206.5 399.75 211.35 Q408.0 210.35 410.45 204.95 M-188.6 61.3 L-50.4 35.45 -335.7 75.45 Q-343.05 76.65 -345.15 74.8 -347.15 73.05 -349.1 64.2 -351.05 55.35 -400.95 -231.25 L-360.65 66.4 Q-359.1 76.85 -358.35 80.05 -357.05 85.3 -354.75 87.45 -352.35 89.7 -347.4 89.8 -343.05 89.95 -333.8 88.35 L-188.6 61.3 M-118.65 84.35 L-114.45 83.25 -106.7 110.6 Q-105.1 116.3 -99.15 122.4 -91.35 130.4 -82.65 129.65 L60.6 123.2 198.95 116.6 Q204.0 115.25 205.1 114.55 208.25 112.55 208.9 107.75 207.7 119.1 206.05 126.0 205.35 128.45 202.85 129.7 200.6 130.8 196.6 131.05 L57.15 138.75 -86.45 145.8 Q-93.9 145.1 -101.3 138.45 -108.25 132.2 -109.45 126.35 L-118.65 84.35 M-30.75 47.1 Q-26.3 43.45 -26.35 39.7 L-25.45 53.2 Q-26.55 56.85 -30.45 59.45 -34.05 61.95 -39.45 63.1 L-194.05 92.8 Q-344.95 121.6 -351.2 122.4 -359.05 123.35 -365.1 120.3 -373.05 116.3 -374.35 106.35 -375.35 98.75 -392.65 -70.2 L-373.0 92.1 Q-372.0 101.05 -367.6 105.45 -362.35 110.8 -352.5 109.2 L-194.25 80.6 Q-44.2 53.25 -40.65 52.2 -34.85 50.5 -30.75 47.1 M-150.55 -288.0 Q-154.1 -289.9 -158.0 -289.15 L-367.1 -250.85 -159.25 -285.05 Q-152.15 -286.75 -149.45 -279.95 -147.75 -275.8 -102.7 -150.2 L-68.8 -56.4 -100.75 -150.6 -145.35 -281.6 Q-146.65 -285.95 -150.55 -288.0 M-407.9 -237.85 Q-408.55 -243.55 -406.2 -247.1 -403.85 -250.7 -398.9 -251.6 L-153.55 -296.1 Q-149.85 -296.8 -146.65 -294.5 -143.35 -292.1 -141.6 -287.25 L-78.95 -113.05 -29.2 25.65 Q-25.5 36.9 -28.95 42.15 -32.75 47.85 -47.2 50.65 -86.4 58.25 -219.05 82.3 L-351.6 106.15 Q-360.1 107.45 -365.25 101.95 -369.35 97.55 -370.0 90.85 L-386.55 -53.35 -407.9 -237.85 M117.0 -124.75 L113.45 -132.5 284.95 -125.1 Q292.85 -124.25 298.0 -119.55 302.7 -115.25 306.15 -106.75 309.65 -98.15 357.7 38.5 L407.5 180.5 Q413.65 197.75 409.2 203.65 405.35 208.85 389.45 208.75 L264.85 203.3 143.25 197.8 Q123.75 197.45 116.2 189.4 109.4 182.15 105.95 160.65 L102.5 139.2 116.25 138.7 Q118.7 156.3 120.65 167.25 121.65 173.15 125.9 177.15 130.7 181.65 138.2 182.2 L264.45 187.85 382.75 192.95 265.1 182.7 140.95 171.75 Q136.9 171.3 133.7 167.65 130.75 164.2 130.15 159.9 L127.05 138.3 197.8 135.2 Q202.35 134.6 205.7 131.45 208.95 128.4 209.65 124.35 210.1 121.7 210.25 115.25 L210.5 107.05 Q210.75 104.65 209.7 101.05 L207.45 94.65 118.0 -121.6 284.4 -113.4 Q288.1 -112.75 291.55 -110.9 295.0 -109.05 295.8 -107.2 L342.8 24.25 377.7 121.5 Q361.45 72.85 344.8 23.95 300.45 -106.45 299.05 -109.5 297.5 -113.0 292.65 -115.8 288.15 -118.35 283.65 -118.85 L117.0 -124.75 M60.1 -214.7 Q67.55 -215.2 73.05 -212.8 78.75 -210.3 81.0 -205.15 L140.55 -60.35 Q199.1 81.75 204.05 91.55 210.45 104.25 206.1 109.75 202.4 114.5 189.65 114.75 L55.15 120.55 -81.75 126.75 Q-88.8 127.1 -95.55 121.9 -102.25 116.8 -104.5 109.4 L-109.45 91.95 -111.85 82.6 -101.55 80.75 Q-97.35 95.8 -95.45 103.45 -94.3 108.1 -90.05 111.55 -84.55 116.1 -76.55 115.2 L57.55 108.45 187.55 102.15 -76.65 104.1 Q-79.45 104.15 -82.4 101.4 -85.05 98.95 -85.85 96.4 L-90.5 78.75 Q-38.95 69.3 -34.4 67.3 -21.25 61.45 -21.7 52.45 -22.1 45.65 -22.75 40.1 -23.25 35.75 -24.4 28.85 L-108.15 -202.5 63.1 -205.45 Q66.45 -205.35 69.7 -203.8 73.3 -202.05 74.15 -199.6 74.85 -197.4 130.25 -62.5 151.0 -11.95 171.95 38.3 L77.95 -202.6 Q76.4 -206.55 72.0 -208.65 68.2 -210.4 64.2 -210.25 L-108.65 -203.85 -110.4 -208.75 60.1 -214.7" fill="#c4ffc4" fill-opacity="0.5019608" fill-rule="evenodd" stroke="none"/>
  </g>
  <defs>
    <linearGradient color-interpolation="linearRGB" gradientTransform="matrix(0.0, 0.1613, -0.9987, 0.0, 13.95, 96.1)" gradientUnits="userSpaceOnUse" id="gradient0" spreadMethod="pad" x1="-819.2" x2="819.2">
      <stop offset="0.2196078431372549" stop-color="#83c994"/>
      <stop offset="1.0" stop-color="#b9dfc0"/>
    </linearGradient>
  </defs>
</svg>
