<?xml version="1.0" encoding="UTF-8" standalone="no"?>
<svg xmlns:ffdec="https://www.free-decompiler.com/flash" xmlns:xlink="http://www.w3.org/1999/xlink" ffdec:objectType="shape" height="83.35px" width="63.5px" xmlns="http://www.w3.org/2000/svg">
  <g transform="matrix(1.0, 0.0, 0.0, 1.0, 31.75, 41.65)">
    <path d="M26.2 -21.6 Q29.85 -17.15 29.9 -10.3 29.95 1.3 12.45 12.65 8.15 15.4 4.1 20.45 0.65 24.8 0.05 26.95 -0.75 24.5 -3.9 20.55 -7.85 15.5 -12.35 12.8 -19.3 8.65 -23.75 3.65 -29.9 -3.2 -29.85 -10.2 -29.8 -17.05 -26.2 -21.55 -22.9 -25.7 -17.8 -26.7 -12.65 -27.75 -7.9 -25.25 -2.75 -22.55 0.0 -16.65 2.65 -22.3 7.75 -25.0 12.55 -27.5 17.7 -26.55 22.9 -25.65 26.2 -21.6" fill="#cf4f5e" fill-rule="evenodd" stroke="none"/>
    <path d="M26.2 -21.6 Q22.9 -25.65 17.7 -26.55 12.55 -27.5 7.75 -25.0 2.65 -22.3 0.0 -16.65 -2.75 -22.55 -7.9 -25.25 -12.65 -27.75 -17.8 -26.7 -22.9 -25.7 -26.2 -21.55 -29.8 -17.05 -29.85 -10.2 -29.9 -3.2 -23.75 3.65 -19.3 8.65 -12.35 12.8 -7.85 15.5 -3.9 20.55 -0.75 24.5 0.05 26.95 0.65 24.8 4.1 20.45 8.15 15.4 12.45 12.65 29.95 1.3 29.9 -10.3 29.85 -17.15 26.2 -21.6 M31.75 -41.65 L31.75 41.7 -31.75 41.7 -31.75 -41.65 31.75 -41.65" fill="#e6a0aa" fill-rule="evenodd" stroke="none"/>
  </g>
</svg>
