<?xml version="1.0" encoding="UTF-8" standalone="no"?>
<svg xmlns:ffdec="https://www.free-decompiler.com/flash" xmlns:xlink="http://www.w3.org/1999/xlink" ffdec:objectType="shape" height="83.35px" width="63.5px" xmlns="http://www.w3.org/2000/svg">
  <g transform="matrix(1.0, 0.0, 0.0, 1.0, 31.75, 41.65)">
    <path d="M17.75 -13.5 Q21.4 -11.25 23.4 -9.45 29.55 -4.15 29.45 3.1 29.45 10.2 26.1 14.95 23.1 19.25 18.25 20.55 13.45 21.8 8.85 19.7 3.95 17.45 0.95 12.15 1.2 17.65 3.3 22.35 5.35 26.9 8.1 28.4 9.25 29.4 7.4 29.8 L0.0 30.2 -7.45 29.8 Q-8.6 29.55 -8.55 29.0 L-8.15 28.4 Q-5.35 26.9 -3.35 22.35 -1.25 17.65 -1.0 12.15 -3.95 17.45 -8.9 19.7 -13.5 21.8 -18.3 20.55 -23.15 19.25 -26.15 14.95 -29.5 10.2 -29.5 3.1 -29.55 -4.15 -23.45 -9.45 L-17.8 -13.5 -12.2 -17.1 Q-7.8 -20.25 -4.05 -24.35 -0.55 -28.2 0.0 -30.2 0.5 -28.2 4.0 -24.35 7.7 -20.25 12.15 -17.1 L17.75 -13.5" fill="#4e4e4f" fill-rule="evenodd" stroke="none"/>
    <path d="M17.75 -13.5 L12.15 -17.1 Q7.7 -20.25 4.0 -24.35 0.5 -28.2 0.0 -30.2 -0.55 -28.2 -4.05 -24.35 -7.8 -20.25 -12.2 -17.1 L-17.8 -13.5 -23.45 -9.45 Q-29.55 -4.15 -29.5 3.1 -29.5 10.2 -26.15 14.95 -23.15 19.25 -18.3 20.55 -13.5 21.8 -8.9 19.7 -3.95 17.45 -1.0 12.15 -1.25 17.65 -3.35 22.35 -5.35 26.9 -8.15 28.4 L-8.55 29.0 Q-8.6 29.55 -7.45 29.8 L0.0 30.2 7.4 29.8 Q9.25 29.4 8.1 28.4 5.35 26.9 3.3 22.35 1.2 17.65 0.95 12.15 3.95 17.45 8.85 19.7 13.45 21.8 18.25 20.55 23.1 19.25 26.1 14.95 29.45 10.2 29.45 3.1 29.55 -4.15 23.4 -9.45 21.4 -11.25 17.75 -13.5 M31.75 -41.65 L31.75 41.7 -31.75 41.7 -31.75 -41.65 31.75 -41.65" fill="#a9aaad" fill-rule="evenodd" stroke="none"/>
  </g>
</svg>
