<?xml version="1.0" encoding="UTF-8" standalone="no"?>
<svg xmlns:ffdec="https://www.free-decompiler.com/flash" xmlns:xlink="http://www.w3.org/1999/xlink" ffdec:objectType="shape" height="47.6px" width="47.55px" xmlns="http://www.w3.org/2000/svg">
  <g transform="matrix(1.0, 0.0, 0.0, 1.0, 23.8, 18.5)">
    <path d="M14.35 -12.4 Q17.5 -10.25 19.35 -7.25 21.3 -4.2 21.55 -0.7 22.05 5.75 17.1 11.0 12.2 16.2 4.4 17.7 L3.3 24.45 -2.6 18.15 Q-10.3 17.6 -15.7 13.25 -21.15 8.8 -21.65 2.5 -21.9 -1.0 -20.45 -4.3 -19.05 -7.5 -16.2 -10.1 -13.4 -12.7 -9.6 -14.3 -5.7 -15.95 -1.3 -16.3 3.05 -16.6 7.2 -15.55 11.15 -14.55 14.35 -12.4" fill="#ffffff" fill-rule="evenodd" stroke="none"/>
    <path d="M21.5 -7.85 Q23.4 -4.55 23.7 -0.85 23.95 2.7 22.65 6.15 21.35 9.6 18.65 12.45 16.3 14.95 13.1 16.75 9.95 18.55 6.25 19.45 L4.65 29.1 -3.6 20.2 Q-11.9 19.35 -17.55 14.45 -23.25 9.55 -23.75 2.7 -24.05 -1.25 -22.45 -4.95 -20.9 -8.55 -17.8 -11.5 -14.75 -14.4 -10.6 -16.2 -6.3 -18.05 -1.5 -18.4 L0.7 -18.5 Q5.1 -18.5 9.1 -17.2 13.1 -15.95 16.3 -13.6 19.6 -11.15 21.5 -7.85 M14.35 -12.4 Q11.15 -14.55 7.2 -15.55 3.05 -16.6 -1.3 -16.3 -5.7 -15.95 -9.6 -14.3 -13.4 -12.7 -16.2 -10.1 -19.05 -7.5 -20.45 -4.3 -21.9 -1.0 -21.65 2.5 -21.15 8.8 -15.7 13.25 -10.3 17.6 -2.6 18.15 L3.3 24.45 4.4 17.7 Q12.2 16.2 17.1 11.0 22.05 5.75 21.55 -0.7 21.3 -4.2 19.35 -7.25 17.5 -10.25 14.35 -12.4" fill="#000000" fill-rule="evenodd" stroke="none"/>
  </g>
</svg>
