<?xml version="1.0" encoding="UTF-8" standalone="no"?>
<svg xmlns:ffdec="https://www.free-decompiler.com/flash" xmlns:xlink="http://www.w3.org/1999/xlink" ffdec:objectType="shape" height="173.7px" width="173.7px" xmlns="http://www.w3.org/2000/svg">
  <g transform="matrix(1.0, 0.0, 0.0, 1.0, 86.85, 86.85)">
    <path d="M12.25 -12.15 Q7.15 -17.25 -0.05 -17.25 -7.15 -17.25 -12.25 -12.15 -17.35 -7.15 -17.35 0.05 -17.35 7.15 -12.25 12.25 -7.15 17.35 -0.05 17.35 7.15 17.35 12.25 12.25 17.25 7.15 17.25 0.05 17.25 -7.15 12.25 -12.15 M86.55 -7.05 Q87.15 0.45 86.45 7.55 L71.05 9.65 66.25 27.65 78.55 37.05 Q75.55 43.45 71.15 49.75 L56.95 43.85 43.75 57.05 49.65 71.25 Q44.05 75.15 36.95 78.55 L27.55 66.35 9.55 71.25 7.55 86.55 Q0.35 87.15 -7.15 86.55 L-9.15 71.25 -27.15 66.45 -36.55 78.85 Q-42.95 75.85 -49.35 71.55 L-43.35 57.15 -56.55 43.95 -71.05 49.95 Q-75.15 44.15 -78.45 37.35 L-65.85 27.75 -70.75 9.75 -86.55 7.75 Q-87.15 0.55 -86.55 -6.85 L-70.75 -8.95 -65.95 -26.95 -78.75 -36.65 Q-75.55 -43.45 -71.45 -49.35 L-56.65 -43.15 -43.45 -56.35 -49.65 -71.25 Q-42.95 -75.75 -37.05 -78.45 L-27.25 -65.65 -9.25 -70.55 -7.25 -86.55 Q0.25 -87.15 7.35 -86.45 L9.35 -70.55 27.45 -65.75 37.15 -78.45 Q43.95 -75.15 49.75 -71.15 L43.65 -56.45 56.85 -43.25 71.45 -49.35 Q75.35 -43.55 78.65 -36.65 L66.15 -27.05 71.05 -9.05 86.55 -7.05" fill="#b2b2b2" fill-rule="evenodd" stroke="none"/>
    <path d="M40.25 0.05 Q40.25 -16.65 28.45 -28.45 16.65 -40.25 -0.05 -40.25 -16.75 -40.25 -28.55 -28.45 -40.35 -16.65 -40.35 0.05 -40.35 16.75 -28.55 28.55 -16.65 40.35 -0.05 40.35 16.65 40.35 28.45 28.55 40.25 16.75 40.25 0.05 M-0.05 -54.55 Q22.65 -54.55 38.55 -38.55 54.55 -22.55 54.55 0.05 54.55 22.65 38.55 38.55 22.55 54.55 -0.05 54.55 -22.65 54.55 -38.55 38.55 -54.55 22.65 -54.55 0.05 -54.55 -22.55 -38.55 -38.55 -22.65 -54.55 -0.05 -54.55" fill="#e6e6e6" fill-rule="evenodd" stroke="none"/>
  </g>
</svg>
