<?xml version="1.0" encoding="UTF-8" standalone="no"?>
<svg xmlns:ffdec="https://www.free-decompiler.com/flash" xmlns:xlink="http://www.w3.org/1999/xlink" ffdec:objectType="shape" height="51.0px" width="51.0px" xmlns="http://www.w3.org/2000/svg">
  <g transform="matrix(1.0, 0.0, 0.0, 1.0, 26.0, 26.0)">
    <path d="M25.0 14.2 Q25.0 18.65 21.85 21.85 18.65 25.0 14.2 25.0 L-15.2 25.0 Q-19.7 25.0 -22.85 21.85 -26.0 18.65 -26.0 14.2 L-26.0 -15.2 Q-26.0 -19.65 -22.85 -22.85 -19.7 -26.0 -15.2 -26.0 L14.2 -26.0 Q18.65 -26.0 21.85 -22.85 25.0 -19.65 25.0 -15.2 L25.0 14.2" fill="#95b5e1" fill-rule="evenodd" stroke="none"/>
    <path d="M-15.0 3.85 L-15.0 -4.65 13.75 -4.65 13.75 3.85 -15.0 3.85" fill="#ffffff" fill-rule="evenodd" stroke="none"/>
    <path d="M-15.0 3.85 L-15.0 -4.65 13.75 -4.65 13.75 3.85 -15.0 3.85 Z" fill="none" stroke="#ffffff" stroke-linecap="butt" stroke-linejoin="miter-clip" stroke-miterlimit="4.0" stroke-width="2.0"/>
  </g>
</svg>
