<?xml version="1.0" encoding="UTF-8" standalone="no"?>
<svg xmlns:ffdec="https://www.free-decompiler.com/flash" xmlns:xlink="http://www.w3.org/1999/xlink" ffdec:objectType="shape" height="56.1px" width="56.1px" xmlns="http://www.w3.org/2000/svg">
  <g transform="matrix(1.0, 0.0, 0.0, 1.0, 28.6, 28.6)">
    <path d="M27.5 15.65 Q27.5 20.55 24.05 24.05 20.5 27.5 15.6 27.5 L-16.7 27.5 Q-21.65 27.5 -25.15 24.05 -28.6 20.55 -28.6 15.65 L-28.6 -16.75 Q-28.6 -21.6 -25.15 -25.15 -21.65 -28.6 -16.7 -28.6 L15.6 -28.6 Q20.5 -28.6 24.05 -25.15 27.5 -21.6 27.5 -16.75 L27.5 15.65" fill="#95b5e1" fill-rule="evenodd" stroke="none"/>
    <path d="M-16.5 4.25 L-16.5 -5.15 15.1 -5.15 15.1 4.25 -16.5 4.25" fill="#ffffff" fill-rule="evenodd" stroke="none"/>
    <path d="M-16.5 4.25 L-16.5 -5.15 15.1 -5.15 15.1 4.25 -16.5 4.25 Z" fill="none" stroke="#ffffff" stroke-linecap="butt" stroke-linejoin="miter-clip" stroke-miterlimit="4.0" stroke-width="2.0"/>
  </g>
</svg>
