<?xml version="1.0" encoding="UTF-8" standalone="no"?>
<svg xmlns:ffdec="https://www.free-decompiler.com/flash" xmlns:xlink="http://www.w3.org/1999/xlink" ffdec:objectType="shape" height="40.9px" width="40.8px" xmlns="http://www.w3.org/2000/svg">
  <g transform="matrix(1.0, 0.0, 0.0, 1.0, 20.9, 20.9)">
    <path d="M19.9 11.35 Q19.9 14.9 17.4 17.45 14.8 20.0 11.25 20.0 L-12.25 20.0 Q-15.85 20.0 -18.4 17.45 -20.9 14.9 -20.9 11.35 L-20.9 -12.25 Q-20.9 -15.8 -18.4 -18.4 -15.85 -20.9 -12.25 -20.9 L11.25 -20.9 Q14.8 -20.9 17.4 -18.4 19.9 -15.8 19.9 -12.25 L19.9 11.35" fill="#95b5e1" fill-rule="evenodd" stroke="none"/>
    <path d="M-12.1 3.05 L-12.1 -3.8 10.9 -3.8 10.9 3.05 -12.1 3.05" fill="#ffffff" fill-rule="evenodd" stroke="none"/>
    <path d="M-12.1 3.05 L-12.1 -3.8 10.9 -3.8 10.9 3.05 -12.1 3.05 Z" fill="none" stroke="#ffffff" stroke-linecap="butt" stroke-linejoin="miter-clip" stroke-miterlimit="4.0" stroke-width="2.0"/>
  </g>
</svg>
