<?xml version="1.0" encoding="UTF-8" standalone="no"?>
<svg xmlns:ffdec="https://www.free-decompiler.com/flash" xmlns:xlink="http://www.w3.org/1999/xlink" ffdec:objectType="shape" height="51.05px" width="51.05px" xmlns="http://www.w3.org/2000/svg">
  <g transform="matrix(1.0, 0.0, 0.0, 1.0, 26.0, 25.6)">
    <path d="M25.05 14.65 Q25.05 19.1 21.9 22.3 18.7 25.45 14.25 25.45 L-15.2 25.45 Q-19.65 25.45 -22.85 22.3 -26.0 19.1 -26.0 14.65 L-26.0 -14.8 Q-26.0 -19.25 -22.85 -22.45 -19.65 -25.6 -15.2 -25.6 L14.25 -25.6 Q18.7 -25.6 21.9 -22.45 25.05 -19.25 25.05 -14.8 L25.05 14.65" fill="#95ca98" fill-rule="evenodd" stroke="none"/>
    <path d="M-9.05 15.75 L-16.3 8.5 8.1 -15.9 15.35 -8.65 -9.05 15.75" fill="#ffffff" fill-rule="evenodd" stroke="none"/>
    <path d="M-9.05 15.75 L-16.3 8.5 8.1 -15.9 15.35 -8.65 -9.05 15.75 Z" fill="none" stroke="#ffffff" stroke-linecap="butt" stroke-linejoin="miter-clip" stroke-miterlimit="4.0" stroke-width="1.0"/>
  </g>
</svg>
