<?xml version="1.0" encoding="UTF-8" standalone="no"?>
<svg xmlns:ffdec="https://www.free-decompiler.com/flash" xmlns:xlink="http://www.w3.org/1999/xlink" ffdec:objectType="shape" height="56.1px" width="56.1px" xmlns="http://www.w3.org/2000/svg">
  <g transform="matrix(1.0, 0.0, 0.0, 1.0, 27.55, 28.15)">
    <path d="M28.55 16.05 Q28.55 20.95 25.1 24.5 21.55 27.95 16.65 27.95 L-15.65 27.95 Q-20.6 27.95 -24.1 24.5 -27.55 20.95 -27.55 16.05 L-27.55 -16.25 Q-27.55 -21.2 -24.1 -24.7 -20.6 -28.15 -15.65 -28.15 L16.65 -28.15 Q21.55 -28.15 25.1 -24.7 28.55 -21.2 28.55 -16.25 L28.55 16.05" fill="#ecd785" fill-rule="evenodd" stroke="none"/>
    <path d="M8.8 -15.05 L15.4 -8.4 7.15 -0.1 15.45 8.25 8.85 14.85 0.5 6.55 -7.8 14.85 -14.45 8.2 -6.15 -0.1 -14.5 -8.45 -7.85 -15.1 0.5 -6.75 8.8 -15.05" fill="#ffffff" fill-rule="evenodd" stroke="none"/>
    <path d="M8.8 -15.05 L15.4 -8.4 7.15 -0.1 15.45 8.25 8.85 14.85 0.5 6.55 -7.8 14.85 -14.45 8.2 -6.15 -0.1 -14.5 -8.45 -7.85 -15.1 0.5 -6.75 8.8 -15.05 Z" fill="none" stroke="#ffffff" stroke-linecap="butt" stroke-linejoin="miter-clip" stroke-miterlimit="4.0" stroke-width="2.0"/>
  </g>
</svg>
