<?xml version="1.0" encoding="UTF-8" standalone="no"?>
<svg xmlns:ffdec="https://www.free-decompiler.com/flash" xmlns:xlink="http://www.w3.org/1999/xlink" ffdec:objectType="shape" height="40.8px" width="40.8px" xmlns="http://www.w3.org/2000/svg">
  <g transform="matrix(1.0, 0.0, 0.0, 1.0, 19.9, 20.5)">
    <path d="M20.9 11.65 Q20.9 15.2 18.4 17.8 15.8 20.3 12.25 20.3 L-11.25 20.3 Q-14.85 20.3 -17.4 17.8 -19.9 15.2 -19.9 11.65 L-19.9 -11.85 Q-19.9 -15.45 -17.4 -18.0 -14.85 -20.5 -11.25 -20.5 L12.25 -20.5 Q15.8 -20.5 18.4 -18.0 20.9 -15.45 20.9 -11.85 L20.9 11.65" fill="#ecd785" fill-rule="evenodd" stroke="none"/>
    <path d="M6.55 -11.0 L11.35 -6.15 5.35 -0.1 11.4 6.0 6.6 10.8 0.5 4.75 -5.55 10.8 -10.4 5.95 -4.35 -0.1 -10.4 -6.2 -5.6 -11.0 0.5 -4.95 6.55 -11.0" fill="#ffffff" fill-rule="evenodd" stroke="none"/>
    <path d="M6.55 -11.0 L11.35 -6.15 5.35 -0.1 11.4 6.0 6.6 10.8 0.5 4.75 -5.55 10.8 -10.4 5.95 -4.35 -0.1 -10.4 -6.2 -5.6 -11.0 0.5 -4.95 6.55 -11.0 Z" fill="none" stroke="#ffffff" stroke-linecap="butt" stroke-linejoin="miter-clip" stroke-miterlimit="4.0" stroke-width="2.0"/>
  </g>
</svg>
