<?xml version="1.0" encoding="UTF-8" standalone="no"?>
<svg xmlns:ffdec="https://www.free-decompiler.com/flash" xmlns:xlink="http://www.w3.org/1999/xlink" ffdec:objectType="shape" height="58.6px" width="58.6px" xmlns="http://www.w3.org/2000/svg">
  <g transform="matrix(1.0, 0.0, 0.0, 1.0, 29.3, 29.3)">
    <path d="M24.5 -14.15 Q24.5 -18.4 21.45 -21.5 18.4 -24.5 14.15 -24.5 L-14.15 -24.5 Q-18.4 -24.5 -21.5 -21.5 -24.5 -18.4 -24.5 -14.15 L-24.5 14.15 Q-24.5 18.4 -21.5 21.45 -18.4 24.5 -14.15 24.5 L14.15 24.5 Q18.4 24.5 21.45 21.45 24.5 18.4 24.5 14.15 L24.5 -14.15 M29.3 -14.15 L29.3 14.15 Q29.3 20.4 24.8 24.8 20.4 29.3 14.15 29.3 L-14.15 29.3 Q-20.4 29.3 -24.85 24.8 -29.3 20.4 -29.3 14.15 L-29.3 -14.15 Q-29.3 -20.4 -24.85 -24.85 -20.4 -29.3 -14.15 -29.3 L14.15 -29.3 Q20.4 -29.3 24.8 -24.85 29.3 -20.4 29.3 -14.15" fill="#030303" fill-rule="evenodd" stroke="none"/>
    <path d="M24.5 -14.15 L24.5 14.15 Q24.5 18.4 21.45 21.45 18.4 24.5 14.15 24.5 L-14.15 24.5 Q-18.4 24.5 -21.5 21.45 -24.5 18.4 -24.5 14.15 L-24.5 -14.15 Q-24.5 -18.4 -21.5 -21.5 -18.4 -24.5 -14.15 -24.5 L14.15 -24.5 Q18.4 -24.5 21.45 -21.5 24.5 -18.4 24.5 -14.15" fill="#ffffff" fill-rule="evenodd" stroke="none"/>
  </g>
</svg>
