<?xml version="1.0" encoding="UTF-8" standalone="no"?>
<svg xmlns:ffdec="https://www.free-decompiler.com/flash" xmlns:xlink="http://www.w3.org/1999/xlink" ffdec:objectType="shape" height="50.0px" width="50.0px" xmlns="http://www.w3.org/2000/svg">
  <g transform="matrix(1.0, 0.0, 0.0, 1.0, 25.0, 25.0)">
    <path d="M-14.55 25.0 L-15.0 21.25 Q-15.0 15.05 -10.6 10.65 -8.35 8.35 -5.6 7.25 -6.85 6.55 -7.95 5.45 -11.25 2.15 -11.25 -2.5 -11.25 -7.15 -7.95 -10.45 -4.65 -13.75 0.0 -13.75 4.65 -13.75 7.95 -10.45 11.25 -7.15 11.25 -2.5 11.25 2.15 7.95 5.45 6.85 6.55 5.6 7.25 8.35 8.35 10.6 10.65 15.0 15.05 15.0 21.25 L14.55 25.0 -14.55 25.0" fill="#f7f7f7" fill-rule="evenodd" stroke="none"/>
    <path d="M14.55 25.0 L15.0 21.25 Q15.0 15.05 10.6 10.65 8.35 8.35 5.6 7.25 6.85 6.55 7.95 5.45 11.25 2.15 11.25 -2.5 11.25 -7.15 7.95 -10.45 4.65 -13.75 0.0 -13.75 -4.65 -13.75 -7.95 -10.45 -11.25 -7.15 -11.25 -2.5 -11.25 2.15 -7.95 5.45 -6.85 6.55 -5.6 7.25 -8.35 8.35 -10.6 10.65 -15.0 15.05 -15.0 21.25 L-14.55 25.0 -25.0 25.0 -25.0 -25.0 25.0 -25.0 25.0 25.0 14.55 25.0" fill="#a6a7a9" fill-rule="evenodd" stroke="none"/>
  </g>
</svg>
