<?xml version="1.0" encoding="UTF-8" standalone="no"?>
<svg xmlns:ffdec="https://www.free-decompiler.com/flash" xmlns:xlink="http://www.w3.org/1999/xlink" ffdec:objectType="shape" height="62.65px" width="80.0px" xmlns="http://www.w3.org/2000/svg">
  <g transform="matrix(1.0, 0.0, 0.0, 1.0, 40.0, 62.65)">
    <path d="M29.6 -56.15 Q31.15 -56.15 32.2 -55.1 33.3 -53.95 33.3 -52.45 33.3 -50.9 32.2 -49.8 31.1 -48.75 29.6 -48.75 L29.4 -48.75 Q27.35 -46.8 27.15 -44.4 26.95 -41.95 28.8 -40.3 31.35 -41.45 33.6 -40.8 33.2 -42.85 33.4 -44.7 33.6 -46.75 34.55 -48.2 34.05 -49.0 34.05 -49.85 34.05 -51.1 34.9 -51.95 35.8 -52.8 37.0 -52.8 38.25 -52.8 39.1 -51.95 40.0 -51.1 40.0 -49.85 40.0 -48.6 39.1 -47.75 38.25 -46.9 37.0 -46.9 L36.7 -46.9 Q34.2 -45.4 34.7 -42.6 35.1 -40.4 36.9 -38.45 38.2 -36.85 38.85 -34.6 39.5 -32.45 39.35 -30.2 38.8 -22.35 32.65 -15.3 27.3 -9.15 19.4 -5.3 11.9 -1.55 3.15 -0.45 -5.25 0.65 -13.8 -0.8 -21.45 -2.1 -27.65 -4.8 -34.85 -7.95 -39.55 -12.8 -40.3 -13.6 -39.85 -14.0 -39.35 -14.4 -38.4 -14.0 -35.45 -12.7 -32.15 -12.85 -28.6 -13.0 -26.1 -14.85 -29.9 -18.15 -32.0 -23.05 -34.0 -27.8 -34.1 -33.1 -34.15 -39.9 -31.45 -45.9 -28.65 -52.25 -23.4 -56.15 -17.25 -60.8 -10.15 -62.2 -2.45 -63.6 4.3 -60.85 11.15 -58.0 15.7 -52.2 20.25 -46.4 21.45 -39.05 21.95 -35.95 21.95 -33.2 24.05 -37.0 26.65 -39.0 25.55 -41.8 25.65 -44.4 25.75 -47.05 27.1 -49.75 25.9 -50.85 25.9 -52.45 25.9 -53.95 26.95 -55.1 28.05 -56.15 29.6 -56.15 M-11.6 -59.3 Q-17.3 -57.85 -21.95 -54.0 -26.6 -50.15 -29.1 -44.8 -31.8 -39.25 -31.6 -33.1 -31.4 -26.05 -27.8 -20.55 -23.85 -14.65 -17.25 -13.1 -13.35 -12.25 -8.8 -12.9 -4.25 -13.55 -0.35 -15.65 8.75 -20.5 8.35 -29.35 8.2 -34.1 5.7 -38.05 3.05 -42.35 -1.25 -43.7 -5.55 -45.1 -9.8 -43.4 -13.95 -41.75 -16.35 -37.8 -18.7 -33.8 -17.65 -29.15 -16.55 -24.1 -12.05 -22.65 -9.7 -21.9 -7.35 -22.7 -4.85 -23.55 -3.6 -25.65 -1.95 -28.4 -3.1 -30.35 -3.7 -31.45 -4.45 -31.75 -5.3 -32.05 -6.05 -30.95 -6.75 -30.0 -7.85 -30.6 -8.9 -31.25 -8.2 -32.25 -6.55 -34.6 -4.15 -34.15 -1.85 -33.8 -0.75 -31.1 0.65 -28.0 -1.25 -24.75 -2.95 -21.85 -6.25 -20.45 -9.35 -19.05 -12.45 -20.05 -15.25 -20.95 -17.4 -23.55 -19.45 -26.05 -20.2 -29.25 -21.05 -32.55 -20.1 -35.45 -17.7 -43.2 -10.15 -45.85 -2.55 -48.6 3.9 -43.7 8.5 -40.2 10.05 -34.55 11.6 -29.05 9.8 -23.7 11.45 -23.05 13.05 -23.2 15.5 -23.4 17.2 -24.55 18.4 -25.45 18.9 -26.65 L19.3 -29.3 Q19.9 -37.3 17.7 -43.5 15.55 -49.45 11.05 -53.65 6.4 -58.0 0.45 -59.45 -5.6 -60.85 -11.6 -59.3 M4.5 -16.05 Q-1.15 -11.35 -8.65 -10.25 -16.5 -9.05 -22.7 -12.5 L-24.0 -13.3 Q-27.85 -10.15 -33.5 -10.95 -25.2 -5.0 -12.5 -3.1 -3.7 -1.85 4.65 -3.15 13.6 -4.6 20.75 -8.85 28.2 -13.3 32.8 -19.45 38.65 -27.3 36.4 -34.4 L35.6 -36.15 Q35.25 -36.25 35.0 -36.7 L34.7 -37.3 Q32.55 -39.45 30.0 -38.15 L29.85 -38.05 29.95 -37.9 Q30.5 -36.85 29.45 -36.2 28.35 -35.55 27.8 -36.65 25.55 -34.65 23.75 -31.25 22.6 -28.9 21.2 -25.05 21.1 -24.45 20.5 -24.2 L19.2 -22.95 Q16.85 -21.3 14.15 -20.85 11.35 -20.4 8.85 -21.45 7.2 -18.25 4.5 -16.05" fill="#030303" fill-rule="evenodd" stroke="none"/>
    <path d="M4.5 -16.05 Q7.2 -18.25 8.85 -21.45 11.35 -20.4 14.15 -20.85 16.85 -21.3 19.2 -22.95 L20.5 -24.2 Q21.1 -24.45 21.2 -25.05 22.6 -28.9 23.75 -31.25 25.55 -34.65 27.8 -36.65 28.35 -35.55 29.45 -36.2 30.5 -36.85 29.95 -37.9 L29.85 -38.05 30.0 -38.15 Q32.55 -39.45 34.7 -37.3 L35.0 -36.7 Q35.25 -36.25 35.6 -36.15 L36.4 -34.4 Q38.65 -27.3 32.8 -19.45 28.2 -13.3 20.75 -8.85 13.6 -4.6 4.65 -3.15 -3.7 -1.85 -12.5 -3.1 -25.2 -5.0 -33.5 -10.95 -27.85 -10.15 -24.0 -13.3 L-22.7 -12.5 Q-16.5 -9.05 -8.65 -10.25 -1.15 -11.35 4.5 -16.05 M-11.6 -59.3 Q-5.6 -60.85 0.45 -59.45 6.4 -58.0 11.05 -53.65 15.55 -49.45 17.7 -43.5 19.9 -37.3 19.3 -29.3 L18.9 -26.65 Q18.4 -25.45 17.2 -24.55 15.5 -23.4 13.05 -23.2 11.45 -23.05 9.8 -23.7 11.6 -29.05 10.05 -34.55 8.5 -40.2 3.9 -43.7 -2.55 -48.6 -10.15 -45.85 -17.7 -43.2 -20.1 -35.45 -21.05 -32.55 -20.2 -29.25 -19.45 -26.05 -17.4 -23.55 -15.25 -20.95 -12.45 -20.05 -9.35 -19.05 -6.25 -20.45 -2.95 -21.85 -1.25 -24.75 0.65 -28.0 -0.75 -31.1 -1.85 -33.8 -4.15 -34.15 -6.55 -34.6 -8.2 -32.25 -8.9 -31.25 -7.85 -30.6 -6.75 -30.0 -6.05 -30.95 -5.3 -32.05 -4.45 -31.75 -3.7 -31.45 -3.1 -30.35 -1.95 -28.4 -3.6 -25.65 -4.85 -23.55 -7.35 -22.7 -9.7 -21.9 -12.05 -22.65 -16.55 -24.1 -17.65 -29.15 -18.7 -33.8 -16.35 -37.8 -13.95 -41.75 -9.8 -43.4 -5.55 -45.1 -1.25 -43.7 3.05 -42.35 5.7 -38.05 8.2 -34.1 8.35 -29.35 8.75 -20.5 -0.35 -15.65 -4.25 -13.55 -8.8 -12.9 -13.35 -12.25 -17.25 -13.1 -23.85 -14.65 -27.8 -20.55 -31.4 -26.05 -31.6 -33.1 -31.8 -39.25 -29.1 -44.8 -26.6 -50.15 -21.95 -54.0 -17.3 -57.85 -11.6 -59.3" fill="#ffffff" fill-rule="evenodd" stroke="none"/>
  </g>
</svg>
