<?xml version="1.0" encoding="UTF-8" standalone="no"?>
<svg xmlns:ffdec="https://www.free-decompiler.com/flash" xmlns:xlink="http://www.w3.org/1999/xlink" ffdec:objectType="shape" height="40.0px" width="167.1px" xmlns="http://www.w3.org/2000/svg">
  <g transform="matrix(1.0, 0.0, 0.0, 1.0, -142.2, 341.65)">
    <path d="M249.05 -332.25 L250.1 -331.95 250.85 -331.15 251.15 -330.1 250.55 -327.85 244.2 -311.25 242.65 -307.8 Q241.9 -306.7 240.55 -305.9 239.2 -305.25 237.05 -305.25 L233.9 -305.7 Q232.8 -306.15 232.8 -307.4 232.8 -308.2 233.3 -308.65 233.9 -309.15 234.8 -309.15 L236.4 -308.9 237.65 -309.15 238.55 -310.05 239.9 -312.9 233.9 -328.0 Q233.35 -329.3 233.35 -329.9 233.35 -330.45 233.65 -331.05 L234.55 -331.9 235.75 -332.25 Q236.75 -332.25 237.3 -331.6 L238.25 -329.65 242.35 -317.7 247.1 -330.9 Q247.45 -331.7 247.85 -331.95 L249.05 -332.25 M231.9 -329.1 Q232.7 -327.55 232.7 -324.8 L232.6 -319.2 Q232.6 -317.95 233.1 -316.35 L233.6 -314.5 Q233.6 -313.7 232.85 -313.1 232.2 -312.5 231.25 -312.5 230.6 -312.5 229.8 -313.15 229.1 -313.8 228.25 -315.2 226.55 -313.95 224.8 -313.15 223.3 -312.5 221.1 -312.5 219.25 -312.5 217.85 -313.2 216.5 -313.95 215.65 -315.2 214.9 -316.45 214.9 -317.95 214.9 -319.95 216.2 -321.4 217.5 -322.8 219.65 -323.25 L227.9 -325.15 Q227.75 -327.15 227.1 -328.0 226.5 -328.9 224.3 -328.9 222.4 -328.9 221.5 -328.35 220.75 -328.0 219.9 -326.85 L218.95 -325.45 Q218.7 -325.15 217.8 -325.15 216.9 -325.15 216.35 -325.65 215.75 -326.25 215.75 -327.0 215.75 -328.3 216.65 -329.5 217.55 -330.75 219.55 -331.45 221.35 -332.25 224.3 -332.25 227.5 -332.25 229.3 -331.5 231.2 -330.75 231.9 -329.1 M227.9 -322.2 L224.8 -321.45 222.0 -320.8 Q221.35 -320.65 220.5 -320.0 219.8 -319.35 219.8 -318.3 219.8 -317.2 220.6 -316.45 221.4 -315.7 222.8 -315.7 224.3 -315.7 225.5 -316.3 226.7 -316.95 227.2 -317.9 227.9 -319.0 227.9 -321.55 L227.9 -322.2 M271.7 -336.85 Q271.7 -335.7 270.95 -335.1 270.3 -334.5 269.3 -334.5 268.2 -334.5 267.55 -335.1 266.8 -335.7 266.8 -336.85 266.8 -337.9 267.6 -338.6 268.4 -339.25 269.3 -339.25 270.3 -339.25 270.95 -338.65 271.7 -338.0 271.7 -336.85 M265.6 -336.2 Q265.15 -335.7 264.55 -335.7 L262.4 -335.95 Q261.05 -335.95 260.7 -335.2 260.35 -334.35 260.35 -332.95 L260.35 -331.75 261.55 -331.75 Q264.3 -331.75 264.3 -330.15 264.3 -328.9 263.6 -328.65 L261.55 -328.3 260.35 -328.3 260.35 -315.45 Q260.35 -314.0 259.6 -313.2 259.0 -312.5 257.9 -312.5 256.85 -312.5 256.15 -313.2 255.5 -314.05 255.5 -315.45 L255.5 -328.3 254.15 -328.3 Q253.1 -328.3 252.5 -328.75 251.9 -329.3 251.9 -330.0 251.9 -331.75 254.35 -331.75 L255.5 -331.75 255.5 -333.25 Q255.5 -335.6 256.1 -336.85 256.6 -338.2 258.0 -338.85 259.25 -339.45 261.8 -339.45 266.05 -339.45 266.05 -337.4 266.05 -336.7 265.6 -336.2 M267.5 -331.5 Q268.2 -332.25 269.2 -332.25 270.3 -332.25 271.0 -331.5 271.7 -330.75 271.7 -329.5 L271.7 -315.45 Q271.7 -314.0 271.0 -313.2 270.3 -312.5 269.2 -312.5 268.2 -312.5 267.5 -313.2 266.8 -314.05 266.8 -315.45 L266.8 -329.3 Q266.8 -330.75 267.5 -331.5 M274.1 -319.05 Q274.6 -319.65 275.5 -319.65 276.3 -319.65 276.65 -319.3 L277.45 -318.2 Q278.3 -316.9 279.25 -316.3 280.4 -315.6 282.05 -315.6 283.5 -315.6 284.45 -316.3 285.4 -316.9 285.4 -317.8 285.4 -319.05 284.45 -319.65 283.3 -320.3 281.3 -320.8 278.75 -321.4 277.15 -322.05 275.6 -322.75 274.7 -323.85 273.7 -325.0 273.7 -326.6 273.7 -328.05 274.55 -329.35 275.4 -330.6 277.15 -331.45 279.0 -332.25 281.3 -332.25 L284.65 -331.8 Q286.1 -331.45 287.15 -330.8 L288.7 -329.35 289.2 -327.75 Q289.2 -326.95 288.65 -326.4 288.1 -325.9 287.05 -325.9 286.25 -325.9 285.8 -326.3 L284.6 -327.55 283.25 -328.7 281.3 -329.1 279.05 -328.6 Q278.15 -328.05 278.15 -327.2 278.15 -326.4 278.8 -325.95 279.3 -325.5 280.55 -325.1 L283.55 -324.3 287.3 -323.0 Q288.8 -322.2 289.45 -321.2 290.15 -320.2 290.15 -318.85 290.15 -316.75 289.2 -315.4 288.25 -313.95 286.3 -313.2 284.35 -312.5 281.65 -312.5 278.95 -312.5 277.15 -313.3 275.3 -314.05 274.4 -315.25 273.5 -316.5 273.5 -317.7 273.5 -318.5 274.1 -319.05 M296.2 -338.7 Q296.8 -338.05 296.8 -336.5 L296.8 -329.3 298.6 -331.0 Q299.45 -331.6 300.6 -331.95 L302.9 -332.25 Q304.6 -332.25 306.2 -331.45 307.6 -330.6 308.4 -329.2 308.95 -328.3 309.1 -327.25 L309.3 -324.75 309.3 -315.45 Q309.3 -314.0 308.65 -313.2 307.9 -312.5 306.85 -312.5 304.45 -312.5 304.45 -315.45 L304.45 -323.65 Q304.45 -325.95 303.8 -327.25 303.05 -328.5 301.15 -328.5 299.9 -328.5 298.8 -327.75 297.8 -327.1 297.25 -325.75 296.8 -324.4 296.8 -321.85 L296.8 -315.45 Q296.8 -314.0 296.2 -313.2 295.5 -312.5 294.35 -312.5 291.95 -312.5 291.95 -315.45 L291.95 -336.5 Q291.95 -337.95 292.6 -338.7 293.3 -339.45 294.35 -339.45 295.5 -339.45 296.2 -338.7 M148.1 -335.8 Q153.95 -341.65 162.25 -341.65 170.5 -341.65 176.4 -335.8 182.2 -329.95 182.2 -321.7 182.2 -313.35 176.4 -307.5 170.5 -301.65 162.25 -301.65 153.95 -301.65 148.1 -307.5 142.2 -313.35 142.2 -321.7 142.2 -329.95 148.1 -335.8 M149.7 -326.85 Q149.15 -324.85 150.0 -323.3 150.65 -322.1 152.0 -321.5 150.65 -320.9 150.0 -319.7 149.15 -318.15 149.7 -316.15 150.55 -313.1 149.65 -311.9 149.15 -311.3 148.5 -311.05 148.5 -310.4 150.85 -311.35 153.2 -312.4 153.5 -314.3 153.7 -316.95 154.0 -317.8 154.45 -319.05 156.2 -319.65 159.95 -315.3 163.45 -314.4 160.45 -314.1 158.75 -312.6 157.3 -311.3 157.8 -311.05 L161.3 -311.6 Q167.65 -312.5 170.6 -313.75 175.9 -316.15 178.0 -321.7 L177.4 -321.5 Q176.9 -321.45 176.5 -322.15 173.6 -328.2 168.35 -330.4 165.05 -331.75 158.7 -331.95 157.7 -332.0 157.75 -331.7 157.8 -331.45 158.65 -331.2 161.65 -330.3 161.75 -328.1 158.45 -326.4 156.3 -323.35 154.45 -323.9 154.0 -325.2 L153.5 -328.7 Q153.2 -330.6 150.85 -331.6 148.5 -332.55 148.5 -331.95 L149.65 -331.1 Q150.55 -329.9 149.7 -326.85 M192.2 -329.5 L192.2 -328.95 Q193.55 -330.55 195.0 -331.4 196.4 -332.2 198.35 -332.2 200.6 -332.2 202.45 -331.05 204.35 -329.85 205.45 -327.7 206.5 -325.4 206.5 -322.4 206.5 -320.05 205.9 -318.25 205.3 -316.45 204.2 -315.15 203.2 -313.95 201.55 -313.15 200.2 -312.5 198.35 -312.5 196.2 -312.5 194.8 -313.3 193.3 -314.3 192.2 -315.75 L192.2 -308.5 Q192.2 -305.25 189.8 -305.25 188.45 -305.25 188.0 -306.1 187.55 -306.85 187.55 -308.5 L187.55 -329.5 Q187.55 -330.9 188.15 -331.5 188.7 -332.25 189.8 -332.25 190.8 -332.25 191.5 -331.5 192.2 -330.75 192.2 -329.5 M199.45 -327.85 Q198.35 -328.6 197.15 -328.6 195.25 -328.6 193.75 -327.0 192.35 -325.35 192.35 -322.35 192.35 -319.5 193.75 -317.85 195.1 -316.2 197.15 -316.2 198.4 -316.2 199.4 -316.95 200.45 -317.6 201.05 -319.05 201.65 -320.55 201.65 -322.4 201.65 -324.4 201.05 -325.75 200.5 -327.15 199.45 -327.85 M210.65 -339.45 Q211.75 -339.45 212.45 -338.7 213.1 -337.95 213.1 -336.5 L213.1 -315.45 Q213.1 -314.0 212.45 -313.2 211.75 -312.5 210.65 -312.5 209.65 -312.5 208.9 -313.2 208.25 -314.05 208.25 -315.45 L208.25 -336.5 Q208.25 -337.95 208.9 -338.7 209.6 -339.45 210.65 -339.45" fill="#78c3e9" fill-rule="evenodd" stroke="none"/>
    <path d="M149.7 -326.85 Q150.55 -329.9 149.65 -331.1 L148.5 -331.95 Q148.5 -332.55 150.85 -331.6 153.2 -330.6 153.5 -328.7 L154.0 -325.2 Q154.45 -323.9 156.3 -323.35 158.45 -326.4 161.75 -328.1 161.65 -330.3 158.65 -331.2 157.8 -331.45 157.75 -331.7 157.7 -332.0 158.7 -331.95 165.05 -331.75 168.35 -330.4 173.6 -328.2 176.5 -322.15 176.9 -321.45 177.4 -321.5 L178.0 -321.7 Q175.9 -316.15 170.6 -313.75 167.65 -312.5 161.3 -311.6 L157.8 -311.05 Q157.3 -311.3 158.75 -312.6 160.45 -314.1 163.45 -314.4 159.95 -315.3 156.2 -319.65 154.45 -319.05 154.0 -317.8 153.7 -316.95 153.5 -314.3 153.2 -312.4 150.85 -311.35 148.5 -310.4 148.5 -311.05 149.15 -311.3 149.65 -311.9 150.55 -313.1 149.7 -316.15 149.15 -318.15 150.0 -319.7 150.65 -320.9 152.0 -321.5 150.65 -322.1 150.0 -323.3 149.15 -324.85 149.7 -326.85 M170.75 -321.6 Q170.9 -320.5 171.9 -320.6 172.3 -320.6 172.6 -320.95 172.9 -321.25 172.9 -321.7 L172.55 -322.45 171.8 -322.7 Q171.35 -322.7 171.05 -322.35 170.75 -322.05 170.75 -321.6" fill="#ffffff" fill-rule="evenodd" stroke="none"/>
    <path d="M170.75 -321.6 Q170.75 -322.05 171.05 -322.35 171.35 -322.7 171.8 -322.7 L172.55 -322.45 172.9 -321.7 Q172.9 -321.25 172.6 -320.95 172.3 -320.6 171.9 -320.6 170.9 -320.5 170.75 -321.6" fill="#7ea3f5" fill-rule="evenodd" stroke="none"/>
  </g>
</svg>
