<?xml version="1.0" encoding="UTF-8" standalone="no"?>
<svg xmlns:ffdec="https://www.free-decompiler.com/flash" xmlns:xlink="http://www.w3.org/1999/xlink" ffdec:objectType="shape" height="300.0px" width="413.4px" xmlns="http://www.w3.org/2000/svg">
  <g transform="matrix(1.0, 0.0, 0.0, 1.0, -6.6, 0.0)">
    <path d="M346.4 132.65 Q345.55 131.05 343.05 128.35 340.35 125.45 338.8 124.65 340.8 123.85 343.85 124.25 347.3 124.65 348.65 126.45 344.3 125.4 342.6 125.65 343.75 126.35 345.05 128.65 346.3 130.95 346.4 132.65" fill="#403c38" fill-rule="evenodd" stroke="none"/>
    <path d="M284.65 106.25 Q286.15 105.15 289.4 104.6 292.65 104.0 294.45 104.5 293.4 103.55 290.2 101.75 L287.2 100.2 Q290.1 100.05 294.25 102.5 297.85 104.7 299.4 106.85 297.1 106.1 291.8 105.95 L284.65 106.25" fill="#403c38" fill-rule="evenodd" stroke="none"/>
    <path d="M351.25 114.6 Q350.9 113.7 348.05 112.6 345.2 111.5 343.05 111.4 345.05 108.4 348.1 109.0 350.9 109.6 352.3 112.5 L351.85 113.55 351.25 114.6" fill="#363d4b" fill-rule="evenodd" stroke="none"/>
    <path d="M301.85 93.1 Q300.3 91.7 297.5 90.5 294.7 89.3 293.8 89.65 293.7 89.3 294.1 88.5 L294.55 87.4 Q297.55 86.3 299.95 87.85 302.55 89.55 301.85 93.1" fill="#363d4b" fill-rule="evenodd" stroke="none"/>
    <path d="M376.15 179.5 Q374.9 178.5 372.95 178.5 373.55 177.7 373.45 177.0 L397.85 156.5 400.8 159.95 376.15 179.5" fill="#8d0924" fill-rule="evenodd" stroke="none"/>
    <path d="M339.55 183.5 L344.1 184.15 348.7 183.6 Q348.5 188.15 348.95 192.95 L343.75 194.3 315.75 192.85 321.35 183.35 325.05 183.45 328.3 182.8 328.75 182.1 339.55 183.5" fill="#d8b503" fill-rule="evenodd" stroke="none"/>
    <path d="M348.95 192.95 Q348.5 188.15 348.7 183.6 L367.85 181.45 367.8 181.15 369.15 179.05 Q370.0 177.6 370.5 177.1 371.6 175.95 372.55 176.0 373.4 176.05 373.45 177.0 373.55 177.7 372.95 178.5 374.9 178.5 376.15 179.5 377.95 180.85 378.0 183.7 L375.4 185.65 Q372.85 187.65 370.0 187.7 L369.95 187.45 348.95 192.95" fill="#e5be97" fill-rule="evenodd" stroke="none"/>
    <path d="M247.6 197.35 L249.65 192.3 Q252.75 184.0 254.1 174.6 L284.8 189.1 295.25 188.25 300.1 192.7 Q285.8 199.7 273.55 211.6 264.35 208.4 257.85 205.0 250.4 201.05 247.6 197.35" fill="#ffdf4f" fill-rule="evenodd" stroke="none"/>
    <path d="M243.1 205.4 Q247.85 212.7 265.35 220.45 260.55 226.2 256.0 233.0 L253.95 231.85 Q248.3 228.65 244.25 224.5 L240.45 219.95 240.35 219.75 Q238.05 216.4 236.9 213.2 L240.7 208.8 243.1 205.4" fill="#ffdf4f" fill-rule="evenodd" stroke="none"/>
    <path d="M255.2 157.1 L255.4 157.3 255.2 157.4 255.2 157.1" fill="#ffdf4f" fill-rule="evenodd" stroke="none"/>
    <path d="M290.2 229.15 L291.15 229.4 291.8 229.55 291.35 230.3 Q289.2 234.05 287.45 238.2 281.3 239.35 274.25 238.55 267.4 237.75 260.75 235.15 262.85 230.45 268.65 225.5 L271.25 222.9 Q281.2 226.8 290.2 229.15" fill="#d8b503" fill-rule="evenodd" stroke="none"/>
    <path d="M321.05 183.3 L321.35 183.35 315.75 192.85 Q311.75 200.15 308.85 206.9 L304.95 207.5 302.15 208.1 Q300.6 208.45 297.55 210.65 L293.4 213.3 293.75 217.3 Q286.9 215.85 280.5 213.85 291.05 203.8 299.8 197.0 310.55 188.7 321.05 183.3" fill="#d8b503" fill-rule="evenodd" stroke="none"/>
    <path d="M268.65 225.5 Q262.85 230.45 260.75 235.15 258.0 234.05 256.0 233.0 260.55 226.2 265.35 220.45 L271.25 222.9 268.65 225.5" fill="#dc781f" fill-rule="evenodd" stroke="none"/>
    <path d="M254.35 146.75 L254.5 147.15 Q256.1 150.3 267.6 158.6 279.15 166.9 283.4 167.9 L284.45 168.75 258.45 156.3 Q257.1 156.6 255.4 157.3 L255.2 157.1 Q255.05 151.75 254.35 146.75" fill="#dc781f" fill-rule="evenodd" stroke="none"/>
    <path d="M300.1 192.7 L295.25 188.25 296.35 188.2 295.7 183.35 300.3 182.7 302.45 185.1 305.0 187.55 306.75 185.6 Q309.0 183.2 311.5 181.05 L316.0 180.4 315.95 180.8 317.0 180.65 319.25 182.85 321.05 183.3 Q310.55 188.7 299.8 197.0 291.05 203.8 280.5 213.85 L273.55 211.6 Q285.8 199.7 300.1 192.7" fill="#dc781f" fill-rule="evenodd" stroke="none"/>
    <path d="M247.2 196.85 L247.6 197.35 Q250.4 201.05 257.85 205.0 264.35 208.4 273.55 211.6 L280.5 213.85 Q286.9 215.85 293.75 217.3 294.1 220.05 294.75 221.7 291.3 225.6 289.0 226.5 289.05 228.6 290.2 229.15 281.2 226.8 271.25 222.9 L265.35 220.45 Q247.85 212.7 243.1 205.4 L242.6 204.5 Q244.25 202.65 247.2 196.85" fill="#363d4b" fill-rule="evenodd" stroke="none"/>
    <path d="M291.9 229.35 L291.8 229.55 291.15 229.4 291.9 229.35" fill="#363d4b" fill-rule="evenodd" stroke="none"/>
    <path d="M329.85 68.15 L334.4 68.4 Q325.2 63.85 313.9 61.95 330.3 62.1 344.75 69.3 358.15 75.95 362.2 89.2 364.25 95.8 363.6 101.1 L361.2 110.3 Q360.7 108.25 358.8 104.95 357.25 102.15 354.7 99.05 L352.75 96.85 348.9 93.1 348.6 92.8 Q345.25 89.75 340.5 86.5 L339.2 85.65 Q334.75 82.75 327.65 81.15 316.4 78.6 299.3 79.5 287.65 80.05 275.55 82.0 L269.8 83.0 269.65 75.7 Q279.5 72.55 292.15 70.95 L315.0 68.75 297.6 72.5 Q287.1 74.7 279.55 75.4 291.5 76.75 316.05 75.1 337.85 75.05 351.05 84.45 L343.65 78.4 Q339.45 75.3 335.6 73.65 344.35 76.4 351.5 81.5 344.7 73.6 335.05 68.75 L329.85 68.15" fill="#8d0924" fill-rule="evenodd" stroke="none"/>
    <path d="M335.6 73.65 Q339.45 75.3 343.65 78.4 L351.05 84.45 Q337.85 75.05 316.05 75.1 291.5 76.75 279.55 75.4 287.1 74.7 297.6 72.5 L315.0 68.75 292.15 70.95 Q279.5 72.55 269.65 75.7 L269.6 74.35 272.8 72.45 Q277.0 70.2 281.7 68.3 L282.15 68.15 Q298.1 61.85 313.9 61.95 325.2 63.85 334.4 68.4 L329.85 68.15 335.05 68.75 Q344.7 73.6 351.5 81.5 344.35 76.4 335.6 73.65 331.35 71.85 326.7 71.55 331.2 72.3 335.6 73.65" fill="#b51c30" fill-rule="evenodd" stroke="none"/>
    <path d="M359.5 263.7 L355.8 268.95 353.35 271.95 Q330.35 267.6 309.35 261.05 311.6 258.15 311.6 254.35 311.6 249.95 308.65 246.8 305.75 243.65 301.6 243.65 297.5 243.65 294.6 246.8 291.65 249.95 291.65 254.35 L291.7 255.1 282.85 251.75 Q284.65 244.8 287.45 238.2 289.2 234.05 291.35 230.3 305.95 242.8 324.3 250.4 342.95 258.2 362.0 259.4 L359.5 263.7" fill="#b51c30" fill-rule="evenodd" stroke="none"/>
    <path d="M362.45 263.65 L362.5 263.5 364.05 259.55 369.1 259.65 367.5 263.6 364.55 269.75 362.55 273.55 357.75 272.75 362.45 263.65" fill="#b51c30" fill-rule="evenodd" stroke="none"/>
    <path d="M405.7 253.0 Q406.4 257.7 406.5 263.2 L406.5 265.0 406.3 271.25 405.55 278.5 Q384.15 277.15 362.55 273.6 L364.6 269.75 367.5 263.6 369.1 259.65 364.05 259.55 362.5 263.5 362.45 263.65 357.75 272.75 353.35 271.95 355.8 268.95 359.5 263.7 362.0 259.4 Q342.95 258.2 324.3 250.4 305.95 242.8 291.35 230.3 L291.9 229.35 Q293.15 229.15 294.65 228.05 295.25 234.2 301.25 235.7 306.55 237.0 312.3 234.25 314.0 237.35 316.85 238.45 319.7 239.6 322.8 238.4 324.65 243.3 329.95 244.3 335.1 245.25 339.35 241.95 L343.6 245.2 Q348.05 247.85 350.8 245.45 352.35 250.7 358.0 251.15 363.35 251.6 365.2 247.8 L366.6 248.95 366.3 249.9 366.65 248.95 Q368.2 250.1 369.4 250.65 371.0 251.35 372.7 251.0 L376.6 249.75 Q380.5 253.0 384.6 252.35 388.35 251.75 388.8 248.95 390.35 251.0 394.2 250.5 398.45 249.9 398.7 245.4 402.15 248.1 404.95 248.65 L405.7 253.0" fill="#8d0924" fill-rule="evenodd" stroke="none"/>
    <path d="M406.4 230.55 L406.5 230.65 406.15 232.1 405.8 233.2 404.5 236.0 Q403.8 237.45 403.9 239.25 404.0 241.0 404.8 243.75 405.75 246.85 406.0 248.85 L404.95 248.65 Q402.15 248.1 398.7 245.4 398.45 249.9 394.2 250.5 390.35 251.0 388.8 248.95 388.35 251.75 384.6 252.35 380.5 253.0 376.6 249.75 L372.7 251.0 Q371.0 251.35 369.4 250.65 372.4 247.1 373.3 244.25 374.5 240.3 371.45 238.45 361.35 237.85 348.1 235.75 335.8 233.8 323.9 231.05 314.45 228.85 304.4 225.45 L296.25 222.5 294.75 215.9 297.35 217.35 Q300.95 219.15 306.25 221.0 323.1 226.95 350.05 231.05 366.7 233.6 384.75 232.8 396.15 232.3 406.4 230.55" fill="#d8d4ba" fill-rule="evenodd" stroke="none"/>
    <path d="M301.6 243.65 Q305.75 243.65 308.65 246.8 311.6 249.95 311.6 254.35 311.6 258.15 309.35 261.05 300.55 258.35 291.7 255.1 L291.65 254.35 Q291.65 249.95 294.6 246.8 297.5 243.65 301.6 243.65" fill="#d61745" fill-rule="evenodd" stroke="none"/>
    <path d="M380.65 214.45 Q391.05 216.75 396.8 220.3 L399.45 222.1 401.65 224.35 Q405.25 228.4 406.4 230.55 396.15 232.3 384.75 232.8 366.7 233.6 350.05 231.05 323.1 226.95 306.25 221.0 300.95 219.15 297.35 217.35 L294.75 215.9 296.25 222.5 304.4 225.45 Q314.45 228.85 323.9 231.05 335.8 233.8 348.1 235.75 361.35 237.85 371.45 238.45 374.5 240.3 373.3 244.25 372.4 247.1 369.4 250.65 368.2 250.1 366.65 248.95 L366.6 248.95 365.2 247.8 Q363.35 251.6 358.0 251.15 352.35 250.7 350.8 245.45 348.05 247.85 343.6 245.2 L339.35 241.95 Q335.1 245.25 329.95 244.3 324.65 243.3 322.8 238.4 319.7 239.6 316.85 238.45 314.0 237.35 312.3 234.25 306.55 237.0 301.25 235.7 295.25 234.2 294.65 228.05 293.15 229.15 291.9 229.35 L291.15 229.4 290.2 229.15 Q289.05 228.6 289.0 226.5 291.3 225.6 294.75 221.7 294.1 220.05 293.75 217.3 L293.4 213.3 297.55 210.65 Q300.6 208.45 302.15 208.1 L304.95 207.5 308.85 206.9 Q324.15 204.9 351.35 209.25 374.3 213.0 380.65 214.45 M383.75 226.55 Q398.0 226.5 398.35 223.75 398.7 220.95 384.95 217.05 371.15 213.15 351.4 210.4 331.55 207.65 317.35 207.65 303.15 207.7 302.8 210.45 302.45 213.25 316.2 217.15 329.95 221.05 349.75 223.8 369.55 226.55 383.75 226.55" fill="#ecead0" fill-rule="evenodd" stroke="none"/>
    <path d="M384.95 217.05 Q398.7 220.95 398.35 223.75 398.0 226.5 383.75 226.55 369.55 226.55 349.75 223.8 329.95 221.05 316.2 217.15 302.45 213.25 302.8 210.45 303.15 207.7 317.35 207.65 331.55 207.65 351.4 210.4 371.15 213.15 384.95 217.05" fill="#faf7e4" fill-rule="evenodd" stroke="none"/>
    <path d="M329.15 172.2 L359.2 166.65 372.25 164.1 Q376.15 163.15 375.35 167.6 374.5 172.05 371.15 172.45 L330.35 178.6 Q330.95 176.35 330.6 174.55 330.3 172.75 329.15 172.2" fill="#d61745" fill-rule="evenodd" stroke="none"/>
    <path d="M316.0 180.4 L316.65 180.3 317.0 180.65 315.95 180.8 316.0 180.4" fill="#d61745" fill-rule="evenodd" stroke="none"/>
    <path d="M316.65 180.3 L295.7 183.35 295.5 181.5 Q307.75 182.1 317.8 178.55 317.0 179.8 317.0 180.65 L316.65 180.3" fill="#e5be97" fill-rule="evenodd" stroke="none"/>
    <path d="M328.65 169.45 Q330.2 171.1 328.85 172.05 L329.15 172.2 Q330.3 172.75 330.6 174.55 330.95 176.35 330.35 178.6 329.75 180.55 328.75 182.1 L328.3 182.8 325.05 183.45 321.35 183.35 321.05 183.3 319.25 182.85 317.0 180.65 Q317.0 179.8 317.8 178.55 307.75 182.1 295.5 181.5 L294.35 172.7 318.6 171.95 318.6 171.6 320.8 169.8 Q322.2 168.5 322.9 168.15 L326.35 168.05 Q327.7 168.55 328.65 169.45" fill="#ffdbb3" fill-rule="evenodd" stroke="none"/>
    <path d="M251.85 173.55 Q250.25 169.85 249.7 166.25 L257.7 171.95 Q262.65 175.5 266.1 177.4 276.15 182.85 284.5 180.45 276.4 166.55 259.65 156.9 L285.15 169.1 289.5 169.2 Q288.35 173.55 288.55 178.9 288.7 182.85 289.75 188.7 L284.8 189.1 251.85 173.55" fill="#d8b503" fill-rule="evenodd" stroke="none"/>
    <path d="M289.5 169.2 L293.9 169.3 296.35 188.2 289.75 188.7 Q288.7 182.85 288.55 178.9 288.35 173.55 289.5 169.2" fill="#f89635" fill-rule="evenodd" stroke="none"/>
    <path d="M266.1 177.4 Q262.65 175.5 257.7 171.95 L249.7 166.25 249.6 165.1 Q249.35 162.5 250.25 161.1 251.7 158.9 255.2 157.4 L255.4 157.3 Q257.1 156.6 258.45 156.3 L259.65 156.9 Q276.4 166.55 284.5 180.45 276.15 182.85 266.1 177.4" fill="#ffdf4f" fill-rule="evenodd" stroke="none"/>
    <path d="M173.3 180.85 L177.4 181.1 Q181.5 187.25 186.4 193.25 L183.8 193.55 Q182.3 193.5 180.2 192.75 174.65 190.95 171.0 185.0 172.35 183.3 173.3 180.85" fill="#84d36e" fill-rule="evenodd" stroke="none"/>
    <path d="M182.8 209.25 Q187.1 209.55 191.45 208.15 193.95 213.15 195.1 217.85 195.55 219.8 195.3 221.6 195.1 223.2 194.45 223.95 193.9 224.65 192.4 224.55 L192.25 224.55 Q189.5 224.3 185.55 221.5 L179.85 216.75 Q175.35 212.7 172.1 208.55 L172.6 206.6 Q176.95 208.6 181.95 209.2 L182.8 209.25" fill="#71cf7e" fill-rule="evenodd" stroke="none"/>
    <path d="M157.45 273.7 Q153.55 271.45 150.2 268.4 146.3 264.85 144.55 261.3 146.7 257.25 147.2 252.1 151.3 254.65 155.35 255.45 152.3 257.85 152.3 261.7 152.3 265.0 154.65 267.35 157.0 269.7 160.3 269.7 162.3 269.7 164.2 268.7 164.6 272.65 164.15 275.75 L164.1 276.2 163.95 276.2 Q161.4 276.05 157.45 273.7" fill="#56cc8a" fill-rule="evenodd" stroke="none"/>
    <path d="M195.4 240.15 L197.9 244.75 Q199.65 248.8 199.9 252.3 200.3 257.4 197.45 260.55 L196.6 260.6 Q193.25 260.35 186.45 256.0 179.8 251.8 175.85 246.65 178.4 242.15 178.4 235.75 185.05 239.65 191.5 240.15 L194.55 240.15 195.35 240.05 195.4 240.15" fill="#56cc8a" fill-rule="evenodd" stroke="none"/>
    <path d="M155.05 220.35 L159.2 220.15 Q164.35 233.7 162.25 238.5 161.75 239.7 160.2 240.2 L158.8 240.4 Q156.1 240.2 152.4 236.65 148.8 233.15 145.2 227.3 148.25 224.0 149.3 218.95 152.3 220.2 155.05 220.35" fill="#71cf7e" fill-rule="evenodd" stroke="none"/>
    <path d="M245.2 269.45 Q246.9 275.45 245.5 278.1 244.45 280.1 239.85 279.8 234.55 279.4 228.5 276.7 220.1 272.9 212.6 266.1 216.75 258.4 215.05 248.05 L220.25 249.05 224.95 249.6 Q230.9 250.05 235.75 248.85 238.95 254.05 241.95 260.95 244.25 266.25 245.2 269.45" fill="#36c19b" fill-rule="evenodd" stroke="none"/>
    <path d="M129.65 199.65 L131.95 199.65 Q133.9 206.1 134.2 211.1 134.45 215.2 133.65 216.5 L133.05 216.5 Q131.25 216.35 128.3 213.55 L124.05 208.9 123.85 208.65 Q120.15 204.25 118.0 200.3 L119.65 195.6 Q124.45 199.3 129.65 199.65" fill="#84d36e" fill-rule="evenodd" stroke="none"/>
    <path d="M211.05 221.4 L211.0 218.6 Q220.6 226.8 231.3 233.85 L226.1 234.05 221.5 233.45 Q213.45 232.05 209.15 229.7 210.9 225.85 211.05 221.4" fill="#56cc8a" fill-rule="evenodd" stroke="none"/>
    <path d="M135.0 172.95 L135.0 176.9 134.3 172.8 135.0 172.95" fill="#88be61" fill-rule="evenodd" stroke="none"/>
    <path d="M146.15 192.75 L145.8 191.7 Q147.2 189.8 148.3 187.15 151.8 189.4 155.7 190.15 157.7 196.2 157.8 200.55 157.9 204.05 156.95 204.55 L156.2 204.8 Q154.4 204.7 151.6 201.45 148.55 197.95 146.15 192.75" fill="#84d36e" fill-rule="evenodd" stroke="none"/>
    <path d="M127.0 231.7 Q127.0 233.05 127.8 234.1 128.6 235.1 129.85 235.5 L130.0 236.25 Q132.25 245.85 131.3 252.25 131.05 253.65 130.65 254.2 L130.55 254.2 Q129.2 253.95 127.95 252.95 124.8 250.6 122.35 246.9 119.95 243.2 119.6 240.25 L119.0 238.0 Q121.15 234.05 121.9 228.45 124.4 230.0 127.05 230.9 L127.0 231.7" fill="#71cf7e" fill-rule="evenodd" stroke="none"/>
    <path d="M135.1 141.35 Q137.2 141.6 140.15 145.5 L146.1 154.6 145.05 158.35 Q143.4 162.95 139.7 163.45 136.3 163.9 132.7 160.9 130.65 140.75 135.1 141.35" fill="#94df4d" fill-rule="evenodd" stroke="none"/>
    <path d="M111.55 148.6 Q112.75 151.5 116.3 164.6 L114.65 167.45 Q112.1 171.1 107.6 169.2 104.4 167.85 101.0 164.2 L100.2 163.3 Q100.55 144.9 105.55 143.3 108.95 142.25 111.55 148.6" fill="#94df4d" fill-rule="evenodd" stroke="none"/>
    <path d="M100.75 185.75 Q100.25 174.35 100.2 168.55 105.2 173.25 110.15 173.4 L110.75 182.5 Q110.95 187.6 110.5 191.55 109.5 199.5 104.2 200.95 L101.25 201.1 100.75 185.75" fill="#94df4d" fill-rule="evenodd" stroke="none"/>
    <path d="M87.7 153.3 Q90.1 170.6 92.55 183.95 L91.4 178.4 Q89.75 169.6 88.95 163.8 L87.7 153.3" fill="#94df4d" fill-rule="evenodd" stroke="none"/>
    <path d="M180.1 270.45 L180.15 270.45 Q188.55 275.6 195.6 276.05 L198.0 276.1 201.3 284.05 Q202.75 288.55 201.85 291.8 200.45 297.0 196.6 298.0 195.6 298.3 192.0 298.0 189.7 297.85 185.35 295.3 179.5 291.8 176.15 286.45 L176.4 286.15 Q177.45 284.8 178.15 283.25 L179.65 283.7 Q180.75 283.7 181.5 282.9 182.3 282.1 182.3 281.0 182.3 279.95 181.55 279.15 180.8 278.4 179.75 278.35 180.45 274.8 180.1 270.45" fill="#36c19b" fill-rule="evenodd" stroke="none"/>
    <path d="M155.3 290.05 Q153.1 292.1 151.95 294.7 L152.6 288.85 155.3 290.05" fill="#36c19b" fill-rule="evenodd" stroke="none"/>
    <path d="M225.0 292.15 L233.2 295.4 Q239.2 297.05 244.3 295.35 L245.7 300.0 215.45 300.0 Q218.05 295.0 217.7 288.65 221.0 290.45 225.0 292.15" fill="#36c19b" fill-rule="evenodd" stroke="none"/>
    <path d="M137.25 283.1 Q136.2 279.3 134.0 273.6 L137.3 277.5 Q136.8 281.05 137.3 283.15 L137.25 283.1" fill="#36c19b" fill-rule="evenodd" stroke="none"/>
    <path d="M261.0 281.35 Q263.55 275.7 262.25 268.8 261.8 266.15 259.0 258.35 257.2 253.35 252.7 246.25 280.4 260.4 314.4 268.2 317.15 271.5 318.15 275.5 319.6 281.45 316.65 287.7 312.55 296.25 292.5 292.6 275.25 289.45 261.0 281.35" fill="#36c19b" fill-rule="evenodd" stroke="none"/>
    <path d="M412.9 281.3 L420.0 281.55 420.0 300.0 401.4 300.0 Q404.25 297.85 405.65 295.35 411.85 284.7 412.9 281.3" fill="#36c19b" fill-rule="evenodd" stroke="none"/>
    <path d="M333.7 285.4 Q334.3 280.15 332.7 275.4 L331.0 271.7 330.25 271.5 Q362.45 277.65 395.55 280.2 L392.65 285.7 Q387.95 293.6 367.15 292.75 348.05 291.95 333.7 285.4" fill="#36c19b" fill-rule="evenodd" stroke="none"/>
    <path d="M161.4 180.35 L160.55 180.8 Q155.75 182.75 150.3 176.55 145.95 171.65 143.9 165.65 146.25 164.05 147.6 161.45 L148.75 158.8 Q152.65 164.9 155.85 168.85 160.15 174.1 164.35 177.05 163.3 179.2 161.4 180.35" fill="#94df4d" fill-rule="evenodd" stroke="none"/>
    <path d="M106.25 228.05 Q104.35 223.6 102.05 217.2 L100.15 211.75 100.6 210.6 101.35 210.7 105.0 210.6 Q105.9 214.0 106.45 219.15 107.0 224.6 106.25 228.05" fill="#84d36e" fill-rule="evenodd" stroke="none"/>
    <path d="M133.4 226.05 L134.65 230.05 Q134.15 229.0 133.2 228.35 132.2 227.7 131.0 227.7 129.55 227.7 128.45 228.65 127.3 229.55 127.05 230.9 124.4 230.0 121.9 228.45 121.15 234.05 119.0 238.0 L119.6 240.25 Q119.95 243.2 122.35 246.9 124.8 250.6 127.95 252.95 129.2 253.95 130.55 254.2 L130.65 254.2 Q131.05 253.65 131.3 252.25 132.25 245.85 130.0 236.25 L129.85 235.5 131.0 235.7 Q132.65 235.7 133.85 234.55 135.0 233.35 135.0 231.7 L134.9 231.1 135.85 234.9 Q138.35 245.6 137.2 253.15 136.55 257.5 133.9 259.2 131.4 260.85 128.0 259.7 L122.0 246.95 Q117.7 238.9 113.55 235.4 116.45 230.45 116.15 220.75 L115.6 214.35 Q124.6 225.9 133.4 226.05" fill="#94df4d" fill-rule="evenodd" stroke="none"/>
    <path d="M101.25 204.65 Q105.55 205.05 108.55 202.95 L109.2 204.25 Q111.6 210.1 112.4 218.55 113.4 228.6 110.55 233.4 109.4 232.8 108.15 232.55 L106.3 228.3 106.25 228.05 Q107.0 224.6 106.45 219.15 105.9 214.0 105.0 210.6 L101.35 210.7 100.6 210.6 Q101.15 208.65 101.25 204.65" fill="#94df4d" fill-rule="evenodd" stroke="none"/>
    <path d="M140.55 194.95 L138.85 190.45 Q144.4 185.6 144.6 175.15 147.65 179.55 151.3 182.0 155.55 184.75 160.05 184.45 163.0 192.15 163.65 198.2 164.6 207.2 159.9 209.8 154.6 212.75 148.65 207.05 144.05 202.6 140.55 194.95 M145.8 191.7 L146.15 192.75 Q148.55 197.95 151.6 201.45 154.4 204.7 156.2 204.8 L156.95 204.55 Q157.9 204.05 157.8 200.55 157.7 196.2 155.7 190.15 151.8 189.4 148.3 187.15 147.2 189.8 145.8 191.7" fill="#94df4d" fill-rule="evenodd" stroke="none"/>
    <path d="M247.45 258.55 Q250.45 265.35 251.4 269.55 253.05 276.65 250.8 280.95 247.85 286.45 239.15 285.75 233.05 285.25 226.1 282.15 214.5 277.05 204.75 266.8 208.45 263.1 209.3 257.15 210.0 252.05 208.55 246.25 207.7 243.0 205.3 238.55 211.15 241.4 221.25 243.15 231.45 244.9 238.15 241.65 243.05 248.45 247.45 258.55 M245.5 278.1 Q246.9 275.45 245.2 269.45 244.25 266.25 241.95 260.95 238.95 254.05 235.75 248.85 230.9 250.05 224.95 249.6 L220.25 249.05 215.05 248.05 Q216.75 258.4 212.6 266.1 220.1 272.9 228.5 276.7 234.55 279.4 239.85 279.8 244.45 280.1 245.5 278.1" fill="#94df4d" fill-rule="evenodd" stroke="none"/>
    <path d="M192.9 200.95 L196.45 204.8 Q199.65 211.05 200.95 216.5 202.3 222.15 200.0 226.35 197.5 231.05 191.7 230.5 187.75 230.15 183.1 227.1 180.15 225.15 175.8 221.2 169.45 215.5 165.25 209.3 168.2 204.3 166.7 194.95 173.45 202.15 182.65 203.25 L187.85 202.9 Q190.65 202.3 192.9 200.95 M191.45 208.15 Q187.1 209.55 182.8 209.25 L181.95 209.2 Q176.95 208.6 172.6 206.6 L172.1 208.55 Q175.35 212.7 179.85 216.75 L185.55 221.5 Q189.5 224.3 192.25 224.55 L192.4 224.55 Q193.9 224.65 194.45 223.95 195.1 223.2 195.3 221.6 195.55 219.8 195.1 217.85 193.95 213.15 191.45 208.15" fill="#94df4d" fill-rule="evenodd" stroke="none"/>
    <path d="M155.05 220.35 Q152.3 220.2 149.3 218.95 148.25 224.0 145.2 227.3 148.8 233.15 152.4 236.65 156.1 240.2 158.8 240.4 L160.2 240.2 Q161.75 239.7 162.25 238.5 164.35 233.7 159.2 220.15 L155.05 220.35 M143.3 218.3 Q144.45 213.65 143.4 206.6 151.5 216.65 159.6 213.8 161.15 213.3 162.5 212.35 167.5 224.1 168.55 231.15 170.25 243.2 162.1 245.9 155.25 248.2 147.45 240.2 142.1 234.7 137.25 225.5 141.85 223.95 143.3 218.3" fill="#94df4d" fill-rule="evenodd" stroke="none"/>
    <path d="M183.8 193.55 L186.4 193.25 190.45 198.15 188.3 198.95 Q183.9 200.35 178.3 198.45 168.5 195.2 163.55 183.55 166.2 182.2 167.6 178.95 170.35 180.4 173.3 180.85 172.35 183.3 171.0 185.0 174.65 190.95 180.2 192.75 182.3 193.5 183.8 193.55" fill="#94df4d" fill-rule="evenodd" stroke="none"/>
    <path d="M198.25 233.05 L200.9 237.65 203.4 242.35 Q206.05 248.45 205.95 253.85 205.9 260.2 201.9 264.6 198.85 267.95 192.4 265.8 188.65 264.55 183.2 261.05 172.95 254.5 168.5 246.4 175.85 239.5 169.4 220.4 182.65 234.9 194.2 234.15 196.35 234.0 198.25 233.05 M178.4 235.75 Q178.4 242.15 175.85 246.65 179.8 251.8 186.45 256.0 193.25 260.35 196.6 260.6 L197.45 260.55 Q200.3 257.4 199.9 252.3 199.65 248.8 197.9 244.75 L195.4 240.15 195.35 240.05 194.55 240.15 191.5 240.15 Q185.05 239.65 178.4 235.75" fill="#94df4d" fill-rule="evenodd" stroke="none"/>
    <path d="M123.85 208.65 L124.05 208.9 128.3 213.55 Q131.25 216.35 133.05 216.5 L133.65 216.5 Q134.45 215.2 134.2 211.1 133.9 206.1 131.95 199.65 L129.65 199.65 Q124.45 199.3 119.65 195.6 L118.0 200.3 Q120.15 204.25 123.85 208.65 M114.4 190.45 Q114.85 186.3 114.3 179.7 121.25 191.3 127.85 193.25 132.7 200.45 139.2 203.95 140.9 212.1 139.8 216.85 138.45 222.9 132.6 222.45 129.1 222.2 125.15 218.75 122.9 216.85 119.3 212.55 115.0 207.4 112.4 202.5 L111.2 200.1 Q113.8 196.3 114.4 190.45" fill="#94df4d" fill-rule="evenodd" stroke="none"/>
    <path d="M155.35 255.45 Q151.3 254.65 147.2 252.1 146.7 257.25 144.55 261.3 146.3 264.85 150.2 268.4 153.55 271.45 157.45 273.7 161.4 276.05 163.95 276.2 L164.1 276.2 164.15 275.75 Q164.6 272.65 164.2 268.7 166.05 267.65 167.15 265.8 168.3 263.9 168.3 261.7 168.3 258.35 165.95 256.05 163.65 253.7 160.3 253.7 157.5 253.7 155.35 255.45 M140.15 238.0 L139.9 236.6 Q145.15 243.8 150.6 247.15 157.3 251.25 163.8 249.1 L165.45 248.4 Q166.4 250.35 167.2 253.4 L168.4 258.5 Q171.1 269.45 170.1 276.6 169.25 282.45 163.75 282.2 159.75 282.0 154.4 278.9 L152.2 277.55 Q151.0 269.25 147.45 266.0 144.2 263.05 141.1 267.2 138.95 264.05 138.0 261.0 L137.85 260.65 138.9 259.15 Q141.35 255.15 141.35 248.75 141.35 244.7 140.15 238.0" fill="#94df4d" fill-rule="evenodd" stroke="none"/>
    <path d="M114.4 172.5 Q116.2 171.6 117.7 169.6 120.75 180.1 124.2 187.0 121.45 184.5 118.55 179.9 L114.4 172.5" fill="#94df4d" fill-rule="evenodd" stroke="none"/>
    <path d="M135.0 172.95 L134.3 172.8 133.3 165.9 Q136.75 167.95 140.4 167.15 141.4 173.2 140.9 177.95 140.25 184.2 137.0 187.35 L135.0 176.9 135.0 172.95" fill="#94df4d" fill-rule="evenodd" stroke="none"/>
    <path d="M133.05 264.05 L134.25 263.6 135.0 263.2 Q136.45 267.05 139.25 270.55 137.85 273.65 137.3 277.5 L134.0 273.6 130.05 264.25 131.25 264.3 132.0 264.25 133.05 264.05" fill="#94df4d" fill-rule="evenodd" stroke="none"/>
    <path d="M227.3 286.6 Q232.2 288.6 237.3 289.15 243.4 289.75 247.75 287.95 L251.55 300.0 245.7 300.0 244.3 295.35 Q239.2 297.05 233.2 295.4 L225.0 292.15 Q221.0 290.45 217.7 288.65 218.05 295.0 215.45 300.0 L208.3 300.0 Q212.3 295.3 211.65 287.9 211.15 282.4 207.9 274.7 216.85 282.3 227.3 286.6" fill="#94df4d" fill-rule="evenodd" stroke="none"/>
    <path d="M205.05 221.2 Q205.25 217.0 203.6 211.95 L211.0 218.6 211.05 221.4 Q210.9 225.85 209.15 229.7 213.45 232.05 221.5 233.45 L226.1 234.05 231.3 233.85 237.65 237.9 237.4 238.1 Q231.6 241.35 220.5 239.35 205.85 236.9 201.2 230.9 203.0 229.1 204.0 226.5 205.0 224.0 205.05 221.2" fill="#94df4d" fill-rule="evenodd" stroke="none"/>
    <path d="M407.0 281.0 L406.0 280.9 412.9 281.3 Q411.85 284.7 405.65 295.35 404.25 297.85 401.4 300.0 L385.9 300.0 Q401.75 295.15 407.0 281.0" fill="#94df4d" fill-rule="evenodd" stroke="none"/>
    <path d="M325.65 294.0 Q333.15 297.55 345.0 300.0 L318.7 300.0 Q323.25 297.0 325.65 294.0" fill="#94df4d" fill-rule="evenodd" stroke="none"/>
    <path d="M275.0 300.0 L255.6 300.0 Q252.25 289.75 252.3 289.35 263.45 295.4 275.0 300.0" fill="#94df4d" fill-rule="evenodd" stroke="none"/>
    <path d="M325.0 270.45 L331.0 271.7 332.7 275.4 Q334.3 280.15 333.7 285.4 348.05 291.95 367.15 292.75 387.95 293.6 392.65 285.7 L395.55 280.2 403.45 280.75 Q394.6 298.3 364.4 297.55 353.55 297.25 342.05 294.6 332.45 292.4 327.65 290.0 330.05 285.35 329.1 280.7 328.5 277.75 325.0 270.45" fill="#94df4d" fill-rule="evenodd" stroke="none"/>
    <path d="M267.85 292.5 Q259.6 289.05 252.1 285.0 L252.9 284.2 Q256.25 279.95 255.5 272.9 255.0 268.5 252.4 261.3 248.25 249.6 241.5 240.2 L252.7 246.25 Q257.2 253.35 259.0 258.35 261.8 266.15 262.25 268.8 263.55 275.7 261.0 281.35 275.25 289.45 292.5 292.6 312.55 296.25 316.65 287.7 319.6 281.45 318.15 275.5 317.15 271.5 314.4 268.2 L320.75 269.6 Q323.15 273.85 324.15 278.05 325.7 284.35 323.65 288.7 319.3 297.85 308.55 300.0 L293.2 300.0 Q281.95 298.3 267.85 292.5" fill="#94df4d" fill-rule="evenodd" stroke="none"/>
    <path d="M180.15 270.45 L180.1 270.45 Q180.45 274.8 179.75 278.35 L179.65 278.35 Q178.55 278.35 177.75 279.15 176.95 279.9 176.95 281.0 176.95 282.4 178.15 283.25 177.45 284.8 176.4 286.15 L176.15 286.45 Q179.5 291.8 185.35 295.3 189.7 297.85 192.0 298.0 195.6 298.3 196.6 298.0 200.45 297.0 201.85 291.8 202.75 288.55 201.3 284.05 L198.0 276.1 195.6 276.05 Q188.55 275.6 180.15 270.45 M155.3 290.05 L152.6 288.85 152.6 282.0 Q157.85 285.2 162.4 285.85 168.4 286.65 171.65 282.5 174.25 279.1 174.2 272.75 174.15 269.2 172.95 262.5 L171.8 256.55 Q176.7 261.35 183.25 265.3 187.85 268.15 192.0 269.35 197.6 270.95 201.45 269.2 204.9 276.65 206.1 280.4 208.2 286.85 207.85 292.2 L207.75 293.0 Q207.2 296.8 203.5 300.0 L171.15 300.0 Q171.75 296.8 171.45 293.95 171.1 290.9 169.85 289.35 166.95 285.9 162.6 286.4 158.75 286.9 155.3 290.05" fill="#94df4d" fill-rule="evenodd" stroke="none"/>
    <path d="M198.25 233.05 Q196.35 234.0 194.2 234.15 182.65 234.9 169.4 220.4 175.85 239.5 168.5 246.4 172.95 254.5 183.2 261.05 188.65 264.55 192.4 265.8 198.85 267.95 201.9 264.6 205.9 260.2 205.95 253.85 206.05 248.45 203.4 242.35 L200.9 237.65 198.25 233.05 M250.8 280.95 Q253.05 276.65 251.4 269.55 250.45 265.35 247.45 258.55 243.05 248.45 238.15 241.65 231.45 244.9 221.25 243.15 211.15 241.4 205.3 238.55 207.7 243.0 208.55 246.25 210.0 252.05 209.3 257.15 208.45 263.1 204.75 266.8 214.5 277.05 226.1 282.15 233.05 285.25 239.15 285.75 247.85 286.45 250.8 280.95 M143.4 206.6 Q144.45 213.65 143.3 218.3 141.85 223.95 137.25 225.5 142.1 234.7 147.45 240.2 155.25 248.2 162.1 245.9 170.25 243.2 168.55 231.15 167.5 224.1 162.5 212.35 161.15 213.3 159.6 213.8 151.5 216.65 143.4 206.6 M138.85 190.45 L140.55 194.95 Q144.05 202.6 148.65 207.05 154.6 212.75 159.9 209.8 164.6 207.2 163.65 198.2 163.0 192.15 160.05 184.45 155.55 184.75 151.3 182.0 147.65 179.55 144.6 175.15 144.4 185.6 138.85 190.45 M164.35 177.05 L167.5 178.9 167.6 178.95 Q166.2 182.2 163.55 183.55 168.5 195.2 178.3 198.45 183.9 200.35 188.3 198.95 L190.45 198.15 192.9 200.95 Q190.65 202.3 187.85 202.9 L182.65 203.25 Q173.45 202.15 166.7 194.95 168.2 204.3 165.25 209.3 169.45 215.5 175.8 221.2 180.15 225.15 183.1 227.1 187.75 230.15 191.7 230.5 197.5 231.05 200.0 226.35 202.3 222.15 200.95 216.5 199.65 211.05 196.45 204.8 L203.6 211.95 Q205.25 217.0 205.05 221.2 205.0 224.0 204.0 226.5 203.0 229.1 201.2 230.9 205.85 236.9 220.5 239.35 231.6 241.35 237.4 238.1 L237.65 237.9 241.5 240.2 Q248.25 249.6 252.4 261.3 255.0 268.5 255.5 272.9 256.25 279.95 252.9 284.2 L252.1 285.0 Q259.6 289.05 267.85 292.5 281.95 298.3 293.2 300.0 L275.0 300.0 Q263.45 295.4 252.3 289.35 252.25 289.75 255.6 300.0 L251.55 300.0 247.75 287.95 Q243.4 289.75 237.3 289.15 232.2 288.6 227.3 286.6 216.85 282.3 207.9 274.7 211.15 282.4 211.65 287.9 212.3 295.3 208.3 300.0 L203.5 300.0 Q207.2 296.8 207.75 293.0 L207.85 292.2 Q208.2 286.85 206.1 280.4 204.9 276.65 201.45 269.2 197.6 270.95 192.0 269.35 187.85 268.15 183.25 265.3 176.7 261.35 171.8 256.55 L172.95 262.5 Q174.15 269.2 174.2 272.75 174.25 279.1 171.65 282.5 168.4 286.65 162.4 285.85 157.85 285.2 152.6 282.0 L152.2 277.55 154.4 278.9 Q159.75 282.0 163.75 282.2 169.25 282.45 170.1 276.6 171.1 269.45 168.4 258.5 L167.2 253.4 Q166.4 250.35 165.45 248.4 L163.8 249.1 Q157.3 251.25 150.6 247.15 145.15 243.8 139.9 236.6 L140.15 238.0 Q141.35 244.7 141.35 248.75 141.35 255.15 138.9 259.15 L137.85 260.65 138.0 261.0 Q138.95 264.05 141.1 267.2 140.25 268.3 139.25 270.55 136.45 267.05 135.0 263.2 L134.25 263.6 133.05 264.05 132.0 264.25 131.25 264.3 130.05 264.25 128.0 259.7 Q131.4 260.85 133.9 259.2 136.55 257.5 137.2 253.15 138.35 245.6 135.85 234.9 L133.4 226.05 Q124.6 225.9 115.6 214.35 L116.15 220.75 Q116.45 230.45 113.55 235.4 L111.65 234.0 110.55 233.4 Q113.4 228.6 112.4 218.55 111.6 210.1 109.2 204.25 L108.55 202.95 Q105.55 205.05 101.25 204.65 L101.25 201.1 104.2 200.95 Q109.5 199.5 110.5 191.55 110.95 187.6 110.75 182.5 L110.15 173.4 Q105.2 173.25 100.2 168.55 L100.2 163.3 101.0 164.2 Q104.4 167.85 107.6 169.2 112.1 171.1 114.65 167.45 L116.3 164.6 117.7 169.6 Q116.2 171.6 114.4 172.5 L118.55 179.9 Q121.45 184.5 124.2 187.0 126.1 190.75 127.85 193.25 121.25 191.3 114.3 179.7 114.85 186.3 114.4 190.45 113.8 196.3 111.2 200.1 L112.4 202.5 Q115.0 207.4 119.3 212.55 122.9 216.85 125.15 218.75 129.1 222.2 132.6 222.45 138.45 222.9 139.8 216.85 140.9 212.1 139.2 203.95 L142.05 205.3 Q140.35 203.3 137.0 187.35 140.25 184.2 140.9 177.95 141.4 173.2 140.4 167.15 136.75 167.95 133.3 165.9 L132.7 160.9 Q136.3 163.9 139.7 163.45 143.4 162.95 145.05 158.35 L146.1 154.6 148.75 158.8 147.6 161.45 Q146.25 164.05 143.9 165.65 145.95 171.65 150.3 176.55 155.75 182.75 160.55 180.8 L161.4 180.35 Q163.3 179.2 164.35 177.05" fill="#dcec2a" fill-rule="evenodd" stroke="none"/>
    <path d="M325.0 270.45 Q328.5 277.75 329.1 280.7 330.05 285.35 327.65 290.0 332.45 292.4 342.05 294.6 353.55 297.25 364.4 297.55 394.6 298.3 403.45 280.75 L407.0 281.0 Q401.75 295.15 385.9 300.0 L345.0 300.0 Q333.15 297.55 325.65 294.0 323.25 297.0 318.7 300.0 L308.55 300.0 Q319.3 297.85 323.65 288.7 325.7 284.35 324.15 278.05 323.15 273.85 320.75 269.6 L325.0 270.45" fill="#dcec2a" fill-rule="evenodd" stroke="none"/>
    <path d="M209.85 96.85 L210.15 96.95 210.45 97.0 Q212.4 97.5 215.25 98.5 L220.0 100.1 220.45 100.25 220.5 100.3 221.9 100.7 220.4 100.75 Q215.65 101.1 211.55 104.15 208.9 106.1 204.8 110.8 200.4 115.9 198.25 117.7 194.25 121.0 189.9 121.7 173.5 125.15 153.05 115.25 L153.4 115.2 Q154.35 110.6 150.1 104.1 146.6 98.75 141.6 94.75 L143.35 95.75 145.25 96.6 149.4 97.9 Q156.3 102.15 161.7 104.1 168.65 106.6 175.0 106.0 180.1 106.0 186.9 102.25 195.05 97.75 198.0 97.0 203.2 95.3 209.85 96.85" fill="#3ea748" fill-rule="evenodd" stroke="none"/>
    <path d="M182.05 83.25 L193.2 82.7 204.0 83.0 205.9 83.3 206.0 83.35 206.8 83.55 206.9 83.6 208.5 84.2 208.65 84.3 209.35 84.65 210.0 85.05 210.25 85.15 211.45 86.05 211.6 86.15 212.1 86.6 212.75 87.15 213.4 87.8 213.5 87.85 214.05 88.45 216.8 91.7 220.95 96.65 Q223.4 99.35 225.8 100.7 L225.75 100.7 218.3 97.4 210.7 94.05 208.0 93.0 Q201.1 90.15 191.65 94.75 L183.95 98.65 Q179.5 100.7 176.0 101.0 166.85 101.0 159.5 98.15 L161.05 97.75 162.4 97.2 162.6 97.1 163.8 96.4 164.05 96.3 165.3 95.25 Q162.45 88.3 155.05 84.35 153.2 82.65 151.0 81.35 156.45 80.75 160.95 78.4 168.5 83.5 182.05 83.25" fill="#3ea748" fill-rule="evenodd" stroke="none"/>
    <path d="M198.4 70.5 L200.4 71.25 203.55 72.75 203.65 72.85 205.95 74.25 206.05 74.3 208.2 75.85 208.3 75.95 209.25 76.7 209.4 76.8 213.25 80.45 213.4 80.65 217.95 85.95 218.0 85.95 223.55 93.4 229.1 100.7 226.7 100.7 216.8 88.85 Q211.2 82.3 206.0 80.0 199.0 77.0 184.9 77.95 L174.15 78.4 Q168.2 78.25 163.7 76.7 L166.3 74.25 Q164.7 69.2 156.95 66.25 154.65 64.55 150.75 63.25 158.5 62.65 161.35 61.0 L163.45 59.5 164.95 58.15 Q170.15 63.25 179.85 66.05 L197.0 70.0 198.4 70.5" fill="#3ea748" fill-rule="evenodd" stroke="none"/>
    <path d="M167.25 55.4 Q184.95 60.2 198.45 58.6 205.55 64.15 214.7 73.95 L228.05 88.45 228.9 90.4 Q231.1 95.6 230.45 98.6 L230.05 98.35 Q229.25 97.55 229.0 97.0 225.65 93.25 217.0 81.75 210.05 72.5 205.0 68.0 198.9 62.9 186.25 60.85 172.3 58.6 167.15 55.5 L167.25 55.4" fill="#3ea748" fill-rule="evenodd" stroke="none"/>
    <path d="M167.5 178.9 L164.35 177.05 Q160.15 174.1 155.85 168.85 152.65 164.9 148.75 158.8 L146.1 154.6 140.15 145.5 Q137.2 141.6 135.1 141.35 130.65 140.75 132.7 160.9 L135.0 176.9 137.0 187.35 Q140.35 203.3 142.05 205.3 L139.2 203.95 Q132.7 200.45 127.85 193.25 126.1 190.75 124.2 187.0 120.75 180.1 117.7 169.6 L116.3 164.6 Q112.75 151.5 111.55 148.6 108.95 142.25 105.55 143.3 100.55 144.9 100.2 163.3 L100.2 168.55 Q100.25 174.35 100.75 185.75 L101.25 201.1 101.25 204.65 Q101.15 208.65 100.6 210.6 L100.15 211.75 99.5 212.4 Q98.15 208.85 96.85 203.85 L95.45 198.05 Q94.25 192.85 92.55 183.95 90.1 170.6 87.7 153.3 85.45 137.3 83.85 123.15 91.85 122.5 96.6 120.6 104.9 135.95 116.85 139.7 118.3 135.0 117.5 127.85 116.7 120.7 114.1 117.4 127.45 132.65 136.2 130.2 137.05 126.15 133.4 117.45 129.85 109.05 126.4 106.0 L128.4 107.6 128.45 107.6 130.4 109.05 130.45 109.05 132.4 110.35 132.45 110.4 Q137.7 113.7 143.0 114.9 144.95 128.65 149.35 142.4 156.3 164.2 167.5 178.9" fill="#3ea748" fill-rule="evenodd" stroke="none"/>
    <path d="M129.55 112.3 Q128.0 108.65 126.45 106.05 129.85 109.1 133.4 117.45 137.05 126.15 136.2 130.2 127.45 132.65 114.1 117.4 116.7 120.7 117.5 127.85 118.3 135.0 116.85 139.7 104.9 135.95 96.6 120.6 91.85 122.5 83.85 123.15 L83.0 114.65 Q87.75 114.65 92.9 112.0 96.4 119.45 101.05 124.7 106.85 131.25 113.85 133.5 115.2 129.0 114.45 122.25 113.7 115.45 111.2 112.35 124.0 126.75 132.25 124.45 133.05 120.55 129.55 112.3 M141.8 94.85 L141.95 95.0 141.6 94.75 141.8 94.85 137.4 90.75 Q142.35 94.0 149.05 94.4 156.25 94.8 159.9 91.25 158.35 87.45 155.05 84.35 162.45 88.3 165.3 95.25 L164.05 96.3 163.8 96.4 162.6 97.1 162.4 97.2 161.05 97.75 159.5 98.15 Q166.85 101.0 176.0 101.0 179.5 100.7 183.95 98.65 L191.65 94.75 Q201.1 90.15 208.0 93.0 L210.7 94.05 218.3 97.4 225.75 100.7 225.8 100.7 Q223.4 99.35 220.95 96.65 L216.8 91.7 214.05 88.45 213.5 87.85 213.4 87.8 212.1 86.6 211.6 86.15 211.45 86.05 210.25 85.15 210.0 85.05 208.65 84.3 208.5 84.2 206.9 83.6 206.8 83.55 206.0 83.35 205.9 83.3 204.0 83.0 193.2 82.7 182.05 83.25 Q168.5 83.5 160.95 78.4 156.45 80.75 151.0 81.35 146.95 79.0 142.35 78.15 146.75 78.5 151.85 76.85 157.8 74.9 160.85 71.25 159.95 68.4 156.95 66.25 164.7 69.2 166.3 74.25 165.25 75.5 163.65 76.7 L163.7 76.7 Q168.2 78.25 174.15 78.4 L184.9 77.95 Q199.0 77.0 206.0 80.0 211.2 82.3 216.8 88.85 L226.7 100.7 229.1 100.7 223.55 93.4 218.0 85.95 217.95 85.95 213.4 80.65 213.25 80.45 209.4 76.8 209.25 76.7 208.3 75.95 208.2 75.85 206.05 74.3 205.95 74.25 203.65 72.85 203.55 72.75 200.4 71.25 198.4 70.5 197.0 70.0 179.85 66.05 Q170.15 63.25 164.95 58.15 L163.45 59.5 161.35 61.0 Q158.5 62.65 150.75 63.25 147.1 62.05 142.65 61.45 L139.35 61.1 141.95 61.05 Q152.55 60.8 156.1 58.65 161.7 55.4 164.1 48.55 175.25 50.6 186.55 51.1 L189.95 52.85 Q194.15 55.25 198.45 58.6 184.95 60.2 167.25 55.4 L167.15 55.5 Q172.3 58.6 186.25 60.85 198.9 62.9 205.0 68.0 210.05 72.5 217.0 81.75 225.65 93.25 229.0 97.0 229.25 97.55 230.05 98.35 L230.45 98.6 Q231.1 95.6 228.9 90.4 L228.05 88.45 Q229.55 90.05 233.8 97.15 238.6 105.0 239.0 105.0 L232.4 106.8 Q230.4 107.4 228.55 108.45 227.9 108.85 222.95 112.0 L210.6 121.7 Q202.25 128.0 191.2 131.55 179.9 135.2 170.35 130.85 167.5 129.55 163.75 126.95 160.1 124.45 159.0 123.95 L155.4 122.4 Q153.1 121.85 151.1 123.5 L151.45 125.95 Q153.4 138.0 163.75 158.1 169.8 169.9 174.1 175.95 L173.85 175.65 177.4 181.1 173.3 180.85 Q170.35 180.4 167.6 178.95 L167.5 178.9 Q156.3 164.2 149.35 142.4 144.95 128.65 143.0 114.9 137.7 113.7 132.45 110.4 L132.4 110.35 130.45 109.05 130.4 109.05 128.45 107.6 128.4 107.6 126.45 106.05 Q124.65 103.0 122.9 101.45 129.25 106.65 135.0 108.8 141.65 111.3 148.6 110.2 149.5 105.8 145.5 99.65 L141.95 95.0 Q146.7 98.9 150.1 104.1 154.35 110.6 153.4 115.2 L153.05 115.25 Q173.5 125.15 189.9 121.7 194.25 121.0 198.25 117.7 200.4 115.9 204.8 110.8 208.9 106.1 211.55 104.15 215.65 101.1 220.4 100.75 L221.9 100.7 220.5 100.3 220.45 100.25 220.0 100.1 215.25 98.5 Q212.4 97.5 210.45 97.0 L210.15 96.95 209.85 96.85 Q203.2 95.3 198.0 97.0 195.05 97.75 186.9 102.25 180.1 106.0 175.0 106.0 168.65 106.6 161.7 104.1 156.3 102.15 149.4 97.9 L149.45 97.9 145.25 96.6 143.35 95.75 141.8 94.85 M176.65 179.2 L178.5 181.05 178.1 181.1 176.65 179.2" fill="#1c8720" fill-rule="evenodd" stroke="none"/>
    <path d="M122.75 96.05 Q126.25 90.5 128.45 83.75 135.0 93.1 138.05 103.1 L130.2 100.1 Q125.95 98.2 122.75 96.05" fill="#f89635" fill-rule="evenodd" stroke="none"/>
    <path d="M113.2 106.8 Q116.95 103.9 119.8 100.3 120.7 105.4 122.4 112.05 118.3 110.4 113.2 106.8" fill="#f89635" fill-rule="evenodd" stroke="none"/>
    <path d="M159.6 51.45 Q154.5 55.2 148.85 57.15 142.4 59.35 136.05 58.9 138.95 59.45 141.95 61.05 L139.35 61.1 142.65 61.45 150.35 66.1 Q154.95 68.8 158.4 69.45 150.35 71.8 145.55 72.3 138.1 73.05 132.25 70.65 139.25 80.35 148.05 88.75 139.15 88.15 128.7 82.95 130.4 77.65 131.2 71.55 131.7 67.6 131.25 63.0 L131.4 61.45 Q131.55 59.7 131.25 57.9 130.4 53.0 127.05 48.15 L143.2 49.55 Q153.6 50.25 159.6 51.45" fill="#f89635" fill-rule="evenodd" stroke="none"/>
    <path d="M119.8 100.3 Q116.95 103.9 113.2 106.8 118.3 110.4 122.4 112.05 120.7 105.4 119.8 100.3 M128.45 83.75 Q126.25 90.5 122.75 96.05 125.95 98.2 130.2 100.1 L138.05 103.1 Q135.0 93.1 128.45 83.75 M145.55 72.3 Q150.35 71.8 158.4 69.45 154.95 68.8 150.35 66.1 L142.65 61.45 Q147.1 62.05 150.75 63.25 154.65 64.55 156.95 66.25 159.95 68.4 160.85 71.25 157.8 74.9 151.85 76.85 146.75 78.5 142.35 78.15 146.95 79.0 151.0 81.35 153.2 82.65 155.05 84.35 158.35 87.45 159.9 91.25 156.25 94.8 149.05 94.4 142.35 94.0 137.4 90.75 142.15 94.55 145.5 99.65 149.5 105.8 148.6 110.2 141.65 111.3 135.0 108.8 129.25 106.65 122.9 101.45 126.15 104.35 129.55 112.3 133.05 120.55 132.25 124.45 124.0 126.75 111.2 112.35 113.7 115.45 114.45 122.25 115.2 129.0 113.85 133.5 106.85 131.25 101.05 124.7 96.4 119.45 92.9 112.0 L94.05 111.4 Q97.2 109.6 99.2 107.15 100.45 105.75 101.25 103.9 105.15 103.65 109.1 101.6 113.3 99.4 116.8 95.9 122.45 90.25 122.95 83.1 123.1 80.35 122.5 77.7 124.85 75.9 126.9 73.1 130.45 68.15 131.25 63.0 131.7 67.6 131.2 71.55 130.4 77.65 128.7 82.95 139.15 88.15 148.05 88.75 139.25 80.35 132.25 70.65 138.1 73.05 145.55 72.3" fill="#dc781f" fill-rule="evenodd" stroke="none"/>
    <path d="M140.75 43.15 L151.0 45.7 164.1 48.55 Q161.7 55.4 156.1 58.65 152.55 60.8 141.95 61.05 138.95 59.45 136.05 58.9 142.4 59.35 148.85 57.15 154.5 55.2 159.6 51.45 153.6 50.25 143.2 49.55 L127.05 48.15 126.35 47.15 124.55 45.05 121.9 42.75 120.75 42.0 120.65 41.1 120.3 38.4 140.75 43.15" fill="#dc781f" fill-rule="evenodd" stroke="none"/>
    <path d="M244.25 0.0 L248.15 2.15 Q252.05 8.2 252.5 14.1 253.0 20.7 248.65 24.5 235.3 35.45 217.65 41.4 200.45 47.2 181.95 47.35 163.2 47.55 146.25 41.85 128.5 35.95 115.35 24.4 L111.9 22.4 Q109.5 21.35 107.5 21.85 109.4 20.2 110.6 18.25 125.35 16.8 142.65 20.65 140.95 21.5 134.0 21.7 127.45 21.9 124.85 23.7 126.55 26.55 139.35 28.9 152.3 31.25 158.65 29.7 167.7 27.5 172.7 22.4 178.75 16.35 166.95 13.45 170.55 12.25 174.7 12.75 178.6 13.15 181.95 14.9 L183.0 17.0 Q184.05 21.85 180.45 25.2 177.6 27.9 172.15 29.25 178.25 30.45 185.15 30.25 192.8 30.0 198.8 28.05 211.3 25.55 216.15 17.85 218.25 14.55 217.6 11.7 216.9 8.75 213.35 7.35 L207.2 5.7 Q203.85 4.85 203.3 3.65 206.25 1.6 209.35 0.0 L244.25 0.0" fill="#fffbe0" fill-rule="evenodd" stroke="none"/>
    <path d="M172.15 29.25 Q177.6 27.9 180.45 25.2 184.05 21.85 183.0 17.0 L181.95 14.9 Q186.95 17.45 187.75 21.1 188.65 25.15 183.45 28.4 191.5 29.5 198.8 28.05 192.8 30.0 185.15 30.25 178.25 30.45 172.15 29.25" fill="#ebe4bf" fill-rule="evenodd" stroke="none"/>
    <path d="M248.65 24.5 Q253.0 20.7 252.5 14.1 252.05 8.2 248.15 2.15 260.5 9.9 260.35 20.65 260.2 32.7 242.8 40.45 216.4 52.15 186.55 51.1 175.25 50.6 164.1 48.55 L151.0 45.7 140.75 43.15 120.3 38.4 Q119.8 36.1 119.1 34.6 116.4 28.75 109.9 25.85 108.5 25.15 106.35 24.55 103.5 23.7 100.6 23.35 L103.35 19.3 110.6 18.25 Q109.4 20.2 107.5 21.85 109.5 21.35 111.9 22.4 L115.35 24.4 Q128.5 35.95 146.25 41.85 163.2 47.55 181.95 47.35 200.45 47.2 217.65 41.4 235.3 35.45 248.65 24.5" fill="#ebe4bf" fill-rule="evenodd" stroke="none"/>
    <path d="M28.3 66.7 L29.15 68.6 Q24.25 68.25 21.4 65.1 21.25 63.45 21.95 62.15 L28.3 66.7" fill="#fffbe0" fill-rule="evenodd" stroke="none"/>
    <path d="M13.35 55.5 L12.6 52.05 Q11.95 48.1 12.4 45.5 15.0 49.2 16.05 51.3 17.75 54.6 17.9 57.65 L13.35 55.5" fill="#fffbe0" fill-rule="evenodd" stroke="none"/>
    <path d="M22.0 56.1 Q25.35 57.7 26.9 59.1 28.85 60.9 29.25 63.3 23.95 59.8 22.0 56.1" fill="#fffbe0" fill-rule="evenodd" stroke="none"/>
    <path d="M12.4 45.5 Q12.65 44.25 13.15 43.3 16.25 49.95 21.05 53.65 20.65 56.9 20.8 59.0 L17.9 57.65 Q17.75 54.6 16.05 51.3 15.0 49.2 12.4 45.5" fill="#ebe4bf" fill-rule="evenodd" stroke="none"/>
    <path d="M21.15 53.75 L22.1 54.4 Q27.2 57.9 35.15 58.95 31.25 60.8 29.8 63.65 L29.25 63.3 Q28.85 60.9 26.9 59.1 25.35 57.7 22.0 56.1 21.3 54.85 21.15 53.75" fill="#ebe4bf" fill-rule="evenodd" stroke="none"/>
    <path d="M36.6 71.65 L30.95 71.35 Q28.45 70.8 25.1 69.35 L21.95 67.4 21.4 65.1 Q24.25 68.25 29.15 68.6 L28.3 66.7 Q33.35 70.4 36.6 71.65" fill="#ebe4bf" fill-rule="evenodd" stroke="none"/>
    <path d="M49.25 68.95 L46.85 69.8 41.95 70.9 Q41.7 66.65 41.45 65.5 44.5 67.7 49.25 68.95" fill="#ebe4bf" fill-rule="evenodd" stroke="none"/>
    <path d="M121.9 42.75 L124.55 45.05 Q127.55 49.2 128.6 54.75 129.55 60.0 128.6 65.4 126.85 70.6 121.9 74.95 119.9 77.15 120.2 83.85 120.5 90.25 117.7 92.7 111.95 97.75 108.65 99.3 102.85 102.05 99.25 98.4 L99.3 98.4 101.0 98.4 101.15 98.4 102.85 98.15 104.85 97.55 106.15 97.0 108.6 95.65 111.65 93.35 113.15 91.95 Q116.8 88.25 117.55 84.0 118.3 79.65 115.95 75.1 120.15 73.9 123.45 68.7 126.85 63.4 126.1 58.85 125.45 54.8 122.25 50.6 118.75 46.1 115.25 45.8 L115.45 44.15 115.45 41.2 115.15 39.3 114.5 37.35 113.75 35.9 112.35 34.05 110.7 32.6 108.1 31.05 105.85 30.15 Q105.75 26.75 106.35 24.55 108.5 25.15 109.9 25.85 116.4 28.75 119.1 34.6 119.8 36.1 120.3 38.4 L120.65 41.1 120.75 42.0 121.9 42.75" fill="#8fd652" fill-rule="evenodd" stroke="none"/>
    <path d="M23.25 85.25 L23.25 85.05 23.3 84.55 23.2 84.45 Q22.45 83.6 21.2 80.55 25.95 83.4 28.7 83.85 28.15 86.45 28.85 89.8 L28.85 89.85 29.3 91.6 29.3 91.65 29.75 93.05 29.8 93.1 30.35 94.6 31.7 97.5 34.65 102.05 36.4 103.95 37.3 104.7 Q33.55 100.7 36.1 95.1 38.6 89.6 43.75 89.3 42.45 92.9 45.5 97.15 48.0 100.55 51.75 102.65 L54.0 103.7 54.4 103.85 56.55 104.25 58.05 104.3 59.05 104.2 60.4 103.9 63.2 102.85 64.8 102.05 65.1 101.85 66.0 101.4 66.05 101.35 67.1 100.8 Q67.05 105.3 61.65 106.35 56.85 107.3 52.7 105.3 47.5 103.15 44.5 100.75 40.55 97.55 39.5 93.35 L38.75 100.35 Q38.45 104.2 39.5 107.4 32.4 106.25 27.9 99.3 24.0 93.3 23.25 85.25" fill="#8fd652" fill-rule="evenodd" stroke="none"/>
    <path d="M124.55 45.05 L126.35 47.15 127.05 48.15 Q130.4 53.0 131.25 57.9 131.55 59.7 131.4 61.45 L131.25 63.0 Q130.45 68.15 126.9 73.1 124.85 75.9 122.5 77.7 123.1 80.35 122.95 83.1 122.45 90.25 116.8 95.9 113.3 99.4 109.1 101.6 105.15 103.65 101.25 103.9 100.45 105.75 99.2 107.15 97.2 109.6 94.05 111.4 L92.9 112.0 Q87.75 114.65 83.0 114.65 L81.5 114.6 Q75.7 114.2 71.1 111.6 68.3 110.05 66.15 107.45 L64.35 108.3 Q60.2 110.05 56.45 109.8 52.85 109.6 49.25 107.5 46.5 105.95 43.8 103.35 41.7 101.25 40.4 99.1 40.4 100.15 41.05 100.85 L42.35 114.95 Q38.75 112.1 33.95 107.45 27.7 101.45 26.4 98.75 22.95 91.35 23.25 85.25 24.0 93.3 27.9 99.3 32.4 106.25 39.5 107.4 38.45 104.2 38.75 100.35 L39.5 93.35 Q40.55 97.55 44.5 100.75 47.5 103.15 52.7 105.3 56.85 107.3 61.65 106.35 67.05 105.3 67.1 100.8 L67.15 100.75 Q67.65 105.4 71.35 108.45 74.4 110.95 79.3 112.15 86.3 112.6 92.65 109.05 100.05 104.9 98.6 98.35 L99.25 98.4 Q102.85 102.05 108.65 99.3 111.95 97.75 117.7 92.7 120.5 90.25 120.2 83.85 119.9 77.15 121.9 74.95 126.85 70.6 128.6 65.4 129.55 60.0 128.6 54.75 127.55 49.2 124.55 45.05" fill="#7dc13b" fill-rule="evenodd" stroke="none"/>
    <path d="M96.9 98.0 L98.6 98.35 Q100.05 104.9 92.65 109.05 86.3 112.6 79.3 112.15 74.4 110.95 71.35 108.45 67.65 105.4 67.15 100.75 L68.15 100.2 Q69.55 104.65 74.2 107.05 78.1 109.1 83.05 109.15 87.5 109.25 92.3 106.15 97.8 102.55 96.9 98.0" fill="#8fd652" fill-rule="evenodd" stroke="none"/>
    <path d="M29.1 82.55 L28.7 83.85 Q25.95 83.4 21.2 80.55 L20.0 77.35 Q23.45 79.05 26.3 80.0 L29.1 82.55" fill="#7dc13b" fill-rule="evenodd" stroke="none"/>
    <path d="M57.5 37.55 L58.4 39.45 57.7 40.2 57.55 39.45 Q57.35 38.5 57.5 37.55" fill="#7dc13b" fill-rule="evenodd" stroke="none"/>
    <path d="M99.75 24.4 L100.6 23.35 Q103.5 23.7 106.35 24.55 105.75 26.75 105.85 30.15 L104.7 29.75 104.35 29.7 102.25 29.2 97.75 28.6 96.1 28.5 94.4 28.45 Q97.3 27.0 99.75 24.4" fill="#7dc13b" fill-rule="evenodd" stroke="none"/>
    <path d="M28.55 84.75 L28.75 83.65 29.1 82.55 26.3 80.0 Q30.65 81.35 34.3 81.3 41.95 81.2 48.8 78.55 55.8 75.9 57.9 75.8 L57.5 78.4 Q47.9 83.8 43.2 85.2 35.15 87.7 28.55 84.75" fill="#1c8720" fill-rule="evenodd" stroke="none"/>
    <path d="M113.1 34.95 L113.95 36.25 114.8 38.1 115.15 39.3 115.45 41.2 115.45 44.15 115.25 45.8 Q118.75 46.1 122.25 50.6 125.45 54.8 126.1 58.85 126.85 63.4 123.45 68.7 120.15 73.9 115.95 75.1 118.3 79.65 117.55 84.0 116.8 88.25 113.15 91.95 L111.65 93.35 108.6 95.65 106.15 97.0 104.85 97.55 102.85 98.15 101.15 98.4 101.0 98.4 99.3 98.4 99.2 98.4 98.6 98.35 96.9 98.0 Q97.8 102.55 92.3 106.15 87.5 109.25 83.05 109.15 78.1 109.1 74.2 107.05 69.55 104.65 68.15 100.2 L67.15 100.75 67.1 100.8 66.05 101.35 66.0 101.4 65.1 101.85 64.8 102.05 63.8 102.55 62.25 103.25 60.4 103.9 59.05 104.2 58.05 104.3 57.1 104.3 54.4 103.85 54.0 103.7 51.75 102.65 Q48.0 100.55 45.5 97.15 42.45 92.9 43.75 89.3 38.6 89.6 36.1 95.1 33.55 100.7 37.3 104.7 L36.4 103.95 34.2 101.45 31.7 97.5 29.8 93.1 29.75 93.05 29.3 91.65 29.3 91.6 28.85 89.85 28.85 89.8 Q28.25 86.9 28.55 84.75 35.15 87.7 43.2 85.2 47.9 83.8 57.5 78.4 L57.4 79.5 Q56.85 87.8 61.15 93.3 63.35 96.05 65.6 97.15 64.6 94.05 64.75 90.9 65.1 84.65 70.95 84.5 L71.15 84.5 71.15 84.55 Q70.15 90.5 76.4 97.85 79.55 101.55 82.85 104.0 80.25 99.65 78.45 94.9 74.95 85.4 79.25 83.4 80.15 89.1 86.95 94.5 90.35 97.2 93.55 98.75 90.7 95.65 88.25 91.65 83.35 83.7 85.55 79.5 89.15 84.75 98.55 87.55 103.25 88.95 107.25 89.3 103.0 87.1 98.8 83.95 90.45 77.7 90.95 73.15 94.9 76.8 104.65 78.15 L113.65 78.75 Q110.5 78.35 106.5 76.85 98.55 73.75 94.35 68.05 101.55 69.8 111.0 64.8 115.7 62.25 119.0 59.4 117.15 60.55 113.4 61.6 105.9 63.75 96.3 63.5 101.2 62.4 110.15 57.25 114.65 54.65 118.15 52.3 L110.3 54.3 Q101.1 56.45 94.4 57.05 100.2 55.15 103.4 50.95 105.0 48.85 105.45 47.1 103.1 48.6 98.75 50.0 90.1 52.8 80.25 52.5 L85.5 50.4 Q90.15 48.75 100.6 45.95 109.75 42.95 114.4 38.35 108.3 37.15 104.7 29.75 L108.1 31.05 110.7 32.6 111.5 33.25 112.35 34.05 113.1 34.95" fill="#3ea748" fill-rule="evenodd" stroke="none"/>
    <path d="M94.35 28.45 L96.1 28.5 97.75 28.6 102.25 29.2 104.35 29.7 104.7 29.75 Q108.3 37.15 114.4 38.35 109.75 42.95 100.6 45.95 90.15 48.75 85.5 50.4 L80.25 52.5 Q72.5 52.25 64.9 50.15 59.2 45.95 57.7 40.2 L58.4 39.45 Q59.95 42.4 62.9 44.6 66.8 47.45 71.25 47.7 75.65 47.9 78.6 45.5 L78.5 46.2 86.0 46.5 Q89.15 46.1 93.3 44.35 95.65 43.35 99.25 41.1 L104.95 37.65 Q101.7 38.5 97.2 35.85 L90.2 31.1 Q89.35 30.55 88.5 30.25 L88.9 30.15 Q91.9 29.65 94.35 28.45" fill="#1c8720" fill-rule="evenodd" stroke="none"/>
    <path d="M65.6 97.15 Q63.35 96.05 61.15 93.3 56.85 87.8 57.4 79.5 60.55 79.55 64.75 81.7 69.6 84.2 70.95 84.5 65.1 84.65 64.75 90.9 64.6 94.05 65.6 97.15" fill="#f89635" fill-rule="evenodd" stroke="none"/>
    <path d="M110.3 54.3 L118.15 52.3 Q114.65 54.65 110.15 57.25 101.2 62.4 96.3 63.5 105.9 63.75 113.4 61.6 117.15 60.55 119.0 59.4 115.7 62.25 111.0 64.8 101.55 69.8 94.35 68.05 98.55 73.75 106.5 76.85 110.5 78.35 113.65 78.75 L104.65 78.15 Q94.9 76.8 90.95 73.15 90.45 77.7 98.8 83.95 103.0 87.1 107.25 89.3 103.25 88.95 98.55 87.55 89.15 84.75 85.55 79.5 83.35 83.7 88.25 91.65 90.7 95.65 93.55 98.75 90.35 97.2 86.95 94.5 80.15 89.1 79.25 83.4 74.95 85.4 78.45 94.9 80.25 99.65 82.85 104.0 79.55 101.55 76.4 97.85 70.15 90.5 71.15 84.55 L73.15 84.65 Q80.0 82.6 83.35 76.6 87.1 69.85 82.65 63.25 80.55 59.75 77.3 57.3 74.95 55.2 71.6 53.8 67.85 52.25 64.9 50.15 72.5 52.25 80.25 52.5 90.1 52.8 98.75 50.0 103.1 48.6 105.45 47.1 105.0 48.85 103.4 50.95 100.2 55.15 94.4 57.05 101.1 56.45 110.3 54.3" fill="#f89635" fill-rule="evenodd" stroke="none"/>
    <path d="M82.65 63.25 Q87.1 69.85 83.35 76.6 80.0 82.6 73.15 84.65 L71.15 84.55 71.15 84.5 70.95 84.5 Q69.6 84.2 64.75 81.7 60.55 79.55 57.4 79.5 L57.5 78.4 57.9 75.8 Q63.05 75.55 71.1 80.5 79.55 75.4 81.2 68.7 82.8 62.15 77.3 57.3 80.55 59.75 82.65 63.25" fill="#dc781f" fill-rule="evenodd" stroke="none"/>
    <path d="M32.9 73.3 Q26.3 71.85 23.25 70.7 20.65 69.7 15.85 66.0 12.75 63.65 11.35 64.9 12.35 67.1 13.05 67.8 14.2 69.0 18.2 71.35 22.6 73.95 29.9 75.4 37.35 76.9 39.0 75.3 38.15 74.45 32.9 73.3 M53.65 26.75 Q56.25 25.6 60.3 26.15 59.25 26.9 58.5 27.95 57.45 29.25 56.95 31.35 56.35 34.1 57.35 37.1 L57.5 37.55 Q57.35 38.5 57.55 39.45 L57.7 40.2 Q59.2 45.95 64.9 50.15 67.85 52.25 71.6 53.8 74.95 55.2 77.3 57.3 82.8 62.15 81.2 68.7 79.55 75.4 71.1 80.5 63.05 75.55 57.9 75.8 55.8 75.9 48.8 78.55 41.95 81.2 34.3 81.3 30.65 81.35 26.3 80.0 23.45 79.05 20.0 77.35 15.2 74.95 11.3 71.85 7.7 69.05 7.8 68.15 8.25 61.5 13.15 62.6 15.75 63.2 21.95 67.4 L25.1 69.35 Q28.45 70.8 30.95 71.35 L36.6 71.65 41.95 70.9 46.85 69.8 49.25 68.95 Q55.95 66.55 60.2 66.45 66.25 66.35 69.6 70.5 68.35 70.85 66.25 69.85 63.55 68.55 62.75 68.4 60.4 68.0 58.4 69.05 L54.6 71.6 61.0 71.1 Q64.55 71.3 67.2 72.9 L69.25 74.2 Q69.85 74.35 71.35 73.45 74.55 71.45 75.45 70.35 81.1 63.55 68.0 54.15 L64.5 50.95 Q62.25 48.75 60.85 48.15 57.35 46.6 58.75 50.15 60.15 53.7 62.45 54.6 L65.05 57.2 68.85 60.25 Q71.35 62.2 72.15 64.35 73.1 67.0 71.25 69.3 L69.85 70.45 Q73.15 65.95 69.85 63.35 63.65 59.95 59.05 56.75 56.2 57.7 50.85 58.5 L35.15 58.95 Q27.2 57.9 22.1 54.4 L21.15 53.75 21.05 53.65 Q16.25 49.95 13.15 43.3 11.7 40.2 10.65 36.3 17.35 47.0 27.9 50.15 25.05 49.1 23.6 46.25 22.3 43.75 22.25 40.3 L23.25 42.15 Q27.5 48.45 36.2 49.6 45.2 50.75 50.75 45.0 L51.55 45.8 51.0 44.75 Q52.7 43.0 53.8 40.55 56.75 33.55 53.65 26.75" fill="#d8b503" fill-rule="evenodd" stroke="none"/>
    <path d="M10.65 36.3 Q8.75 29.05 9.05 22.05 9.35 15.15 11.65 11.95 13.7 17.8 17.25 20.1 19.8 21.75 24.65 22.2 22.2 25.25 21.2 29.1 20.2 33.05 21.0 36.85 21.5 38.75 22.25 40.3 22.3 43.75 23.6 46.25 25.05 49.1 27.9 50.15 17.35 47.0 10.65 36.3" fill="#ffd923" fill-rule="evenodd" stroke="none"/>
    <path d="M64.5 50.95 L68.0 54.15 Q81.1 63.55 75.45 70.35 74.55 71.45 71.35 73.45 69.85 74.35 69.25 74.2 L67.2 72.9 Q64.55 71.3 61.0 71.1 L54.6 71.6 58.4 69.05 Q60.4 68.0 62.75 68.4 63.55 68.55 66.25 69.85 68.35 70.85 69.6 70.5 L69.85 70.45 71.25 69.3 Q73.1 67.0 72.15 64.35 71.35 62.2 68.85 60.25 L65.05 57.2 62.45 54.6 Q60.15 53.7 58.75 50.15 57.35 46.6 60.85 48.15 62.25 48.75 64.5 50.95" fill="#ffd923" fill-rule="evenodd" stroke="none"/>
    <path d="M39.0 75.3 Q37.35 76.9 29.9 75.4 22.6 73.95 18.2 71.35 14.2 69.0 13.05 67.8 12.35 67.1 11.35 64.9 12.75 63.65 15.85 66.0 20.65 69.7 23.25 70.7 26.3 71.85 32.9 73.3 38.15 74.45 39.0 75.3" fill="#ffd923" fill-rule="evenodd" stroke="none"/>
    <path d="M43.6 17.15 Q48.1 18.85 51.2 22.65 51.3 30.6 46.35 36.7 43.9 40.25 38.65 41.35 33.55 42.4 29.05 40.55 23.45 38.95 21.0 36.85 20.2 33.05 21.2 29.1 22.2 25.25 24.65 22.2 28.35 17.65 33.7 16.45 38.8 15.35 43.6 17.15" fill="#ffaa4d" fill-rule="evenodd" stroke="none"/>
    <path d="M46.35 36.7 Q51.3 30.6 51.2 22.65 52.65 24.5 53.65 26.75 56.75 33.55 53.8 40.55 52.7 43.0 51.0 44.75 L50.75 45.0 Q45.2 50.75 36.2 49.6 27.5 48.45 23.25 42.15 L22.25 40.3 Q21.5 38.75 21.0 36.85 23.45 38.95 29.05 40.55 33.55 42.4 38.65 41.35 43.9 40.25 46.35 36.7" fill="#e88c30" fill-rule="evenodd" stroke="none"/>
    <path d="M81.25 7.35 Q87.6 6.55 94.4 7.25 90.9 7.3 88.45 10.8 88.0 11.5 85.5 16.75 88.0 15.4 91.3 15.15 L97.4 15.35 Q98.6 20.25 93.45 23.7 87.05 27.1 84.95 29.3 87.0 29.1 88.9 30.15 L88.5 30.25 Q89.35 30.55 90.2 31.1 L93.55 34.35 Q95.55 36.1 97.5 36.2 89.55 40.55 84.7 37.1 80.85 34.35 77.25 24.8 75.75 20.5 70.05 20.55 L64.85 20.85 59.5 20.55 Q57.65 20.45 57.65 18.05 L58.45 16.15 Q60.65 12.05 65.0 11.4 69.0 10.75 71.7 13.05 71.75 8.55 81.25 7.35" fill="#ffaa4d" fill-rule="evenodd" stroke="none"/>
    <path d="M107.95 15.0 Q105.95 15.7 103.35 19.3 L100.6 23.35 99.75 24.4 Q97.3 27.0 94.4 28.45 L94.35 28.45 Q91.9 29.65 88.9 30.15 87.0 29.1 84.95 29.3 87.05 27.1 93.45 23.7 98.6 20.25 97.4 15.35 L102.75 15.7 107.95 15.0" fill="#e88c30" fill-rule="evenodd" stroke="none"/>
    <path d="M84.7 37.1 Q89.55 40.55 97.5 36.2 95.55 36.1 93.55 34.35 L90.2 31.1 97.2 35.85 Q101.7 38.5 104.95 37.65 L99.25 41.1 Q95.65 43.35 93.3 44.35 89.15 46.1 86.0 46.5 L78.5 46.2 78.6 45.5 80.1 43.95 Q82.75 40.35 81.45 35.5 80.15 30.6 75.7 27.3 72.1 24.65 67.95 24.25 L64.6 24.35 Q62.6 24.65 61.1 25.6 59.1 24.15 58.15 22.2 57.1 20.1 57.65 18.05 57.65 20.45 59.5 20.55 L64.85 20.85 70.05 20.55 Q75.75 20.5 77.25 24.8 80.85 34.35 84.7 37.1" fill="#e88c30" fill-rule="evenodd" stroke="none"/>
    <path d="M64.6 24.35 L67.95 24.25 Q72.65 27.4 73.85 33.15 75.1 39.1 71.1 41.4 67.85 44.25 63.75 42.6 60.15 41.2 57.35 37.1 56.35 34.1 56.95 31.35 58.35 33.8 61.25 34.05 63.45 34.2 65.15 32.75 66.8 31.3 66.95 29.1 67.05 27.65 66.4 26.35 65.75 25.1 64.6 24.35" fill="#fffbe0" fill-rule="evenodd" stroke="none"/>
    <path d="M58.4 39.45 L57.5 37.55 57.35 37.1 Q60.15 41.2 63.75 42.6 67.85 44.25 71.1 41.4 75.1 39.1 73.85 33.15 72.65 27.4 67.95 24.25 72.1 24.65 75.7 27.3 80.15 30.6 81.45 35.5 82.75 40.35 80.1 43.95 L78.6 45.5 Q75.65 47.9 71.25 47.7 66.8 47.45 62.9 44.6 59.95 42.4 58.4 39.45" fill="#ebe4bf" fill-rule="evenodd" stroke="none"/>
    <path d="M58.5 27.95 Q59.25 26.9 60.3 26.15 L61.1 25.6 Q62.6 24.65 64.6 24.35 65.75 25.1 66.4 26.35 67.05 27.65 66.95 29.1 66.8 31.3 65.15 32.75 63.45 34.2 61.25 34.05 58.35 33.8 56.95 31.35 57.45 29.25 58.5 27.95" fill="#312f2f" fill-rule="evenodd" stroke="none"/>
    <path d="M405.55 278.5 L420.0 279.25 420.0 281.55 395.55 280.2 Q362.45 277.65 330.25 271.5 L314.4 268.2 Q280.4 260.4 252.7 246.25 L241.5 240.2 231.3 233.85 Q220.6 226.8 211.0 218.6 L203.6 211.95 196.45 204.8 190.45 198.15 186.4 193.25 Q181.5 187.25 177.4 181.1 L173.85 175.65 179.5 182.8 184.2 188.1 192.65 196.65 Q197.2 201.0 203.3 206.05 210.35 211.85 217.6 216.95 L219.95 218.6 Q231.7 226.75 244.9 234.0 L260.2 241.85 Q271.0 247.1 282.85 251.75 L291.7 255.1 Q300.55 258.35 309.35 261.05 330.35 267.6 353.35 271.95 L362.55 273.55 362.55 273.6 Q384.15 277.15 405.55 278.5" fill="#499882" fill-rule="evenodd" stroke="none"/>
    <path d="M103.15 268.85 L94.55 257.3 Q93.35 254.3 92.3 250.95 93.55 253.5 95.65 256.85 L99.35 262.85 103.15 268.85" fill="#e9faff" fill-rule="evenodd" stroke="none"/>
    <path d="M91.75 238.9 L93.5 239.1 95.35 240.2 93.5 239.35 91.75 238.9" fill="#e9faff" fill-rule="evenodd" stroke="none"/>
    <path d="M11.1 236.75 Q17.4 236.9 26.3 241.7 39.2 248.75 56.9 260.95 54.5 264.85 64.0 274.5 69.35 279.95 76.35 285.35 86.1 292.95 101.5 300.0 L48.4 300.0 Q39.35 294.05 40.85 287.65 42.1 282.6 50.75 282.35 L58.65 282.9 66.4 284.35 Q71.15 285.3 74.9 286.4 L65.7 282.85 44.05 274.6 39.75 272.8 Q31.25 269.1 24.95 264.45 L25.0 264.35 Q25.0 258.65 21.05 254.6 17.05 250.55 11.4 250.4 L11.35 250.3 Q2.0 236.55 11.1 236.75" fill="#e9faff" fill-rule="evenodd" stroke="none"/>
    <path d="M84.2 266.7 L97.9 278.7 89.65 272.7 Q84.9 269.4 81.25 267.05 L78.95 264.7 81.05 266.95 Q65.1 256.9 58.95 259.35 58.55 259.5 57.85 259.95 51.2 254.35 47.45 249.6 41.75 242.35 46.45 241.05 50.15 240.05 57.8 245.45 53.35 239.75 50.5 233.2 L50.3 232.75 Q48.8 228.95 48.65 226.75 48.65 225.75 48.8 225.0 50.7 232.95 57.35 241.3 62.05 247.2 70.45 254.7 L84.2 266.7" fill="#e9faff" fill-rule="evenodd" stroke="none"/>
    <path d="M29.75 217.65 Q30.3 219.0 30.3 220.35 30.3 223.0 28.55 224.85 26.55 227.0 23.65 227.0 20.4 227.0 18.5 224.6 L18.15 224.1 Q17.0 222.5 17.0 220.35 17.0 217.6 18.95 215.65 20.9 213.7 23.65 213.7 25.65 213.7 27.3 214.8 28.95 215.9 29.75 217.65" fill="#e9faff" fill-rule="evenodd" stroke="none"/>
    <path d="M34.3 233.0 Q35.7 233.0 36.65 234.0 37.65 234.95 37.65 236.35 37.65 237.75 36.65 238.7 35.7 239.7 34.3 239.7 32.9 239.7 31.95 238.7 31.0 237.75 31.0 236.35 31.0 234.95 31.95 234.0 32.9 233.0 34.3 233.0" fill="#e9faff" fill-rule="evenodd" stroke="none"/>
    <path d="M84.3 215.7 Q82.65 215.7 81.5 214.55 80.3 213.35 80.3 211.7 80.3 210.05 81.5 208.9 82.65 207.7 84.3 207.7 85.95 207.7 87.15 208.9 88.3 210.05 88.3 211.7 88.3 213.35 87.15 214.55 85.95 215.7 84.3 215.7" fill="#e9faff" fill-rule="evenodd" stroke="none"/>
    <path d="M134.65 230.05 L135.0 231.7 Q135.0 233.35 133.85 234.55 132.65 235.7 131.0 235.7 L129.85 235.5 Q128.6 235.1 127.8 234.1 127.0 233.05 127.0 231.7 L127.05 230.9 Q127.3 229.55 128.45 228.65 129.55 227.7 131.0 227.7 132.2 227.7 133.2 228.35 134.15 229.0 134.65 230.05" fill="#e9faff" fill-rule="evenodd" stroke="none"/>
    <path d="M152.3 261.7 Q152.3 257.85 155.35 255.45 157.5 253.7 160.3 253.7 163.65 253.7 165.95 256.05 168.3 258.35 168.3 261.7 168.3 263.9 167.15 265.8 166.05 267.65 164.2 268.7 162.3 269.7 160.3 269.7 157.0 269.7 154.65 267.35 152.3 265.0 152.3 261.7" fill="#ffffff" fill-rule="evenodd" stroke="none"/>
    <path d="M179.65 283.7 L178.15 283.25 Q176.95 282.4 176.95 281.0 176.95 279.9 177.75 279.15 178.55 278.35 179.65 278.35 L179.75 278.35 Q180.8 278.4 181.55 279.15 182.3 279.95 182.3 281.0 182.3 282.1 181.5 282.9 180.75 283.7 179.65 283.7" fill="#e9faff" fill-rule="evenodd" stroke="none"/>
    <path d="M67.0 181.7 Q65.3 181.7 64.15 180.55 63.0 179.35 63.0 177.7 63.0 176.05 64.15 174.9 65.3 173.7 67.0 173.7 68.65 173.7 69.85 174.9 71.0 176.05 71.0 177.7 71.0 179.35 69.85 180.55 68.65 181.7 67.0 181.7" fill="#e9faff" fill-rule="evenodd" stroke="none"/>
    <path d="M86.55 197.4 Q87.5 196.35 89.0 196.35 90.7 196.35 91.7 197.8 92.3 198.65 92.3 199.7 92.3 201.1 91.35 202.05 90.35 203.0 89.0 203.0 87.6 203.0 86.65 202.05 85.65 201.1 85.65 199.7 85.65 198.4 86.55 197.4" fill="#ffffff" fill-rule="evenodd" stroke="none"/>
  </g>
</svg>
