<?xml version="1.0" encoding="UTF-8" standalone="no"?>
<svg xmlns:ffdec="https://www.free-decompiler.com/flash" xmlns:xlink="http://www.w3.org/1999/xlink" ffdec:objectType="shape" height="300.0px" width="420.0px" xmlns="http://www.w3.org/2000/svg">
  <g transform="matrix(1.0, 0.0, 0.0, 1.0, 0.0, 0.0)">
    <path d="M0.0 0.0 L420.0 0.0 420.0 300.0 0.0 300.0 0.0 0.0" fill="url(#gradient0)" fill-rule="evenodd" stroke="none"/>
    <path d="M131.85 132.55 Q132.95 128.9 133.1 124.8 133.25 120.95 132.55 118.35 L132.45 117.95 162.5 111.4 Q149.1 119.7 131.85 132.55" fill="#f4e49f" fill-rule="evenodd" stroke="none"/>
    <path d="M124.65 119.6 L123.65 122.7 Q123.0 124.35 122.25 125.2 L119.85 127.1 113.7 122.0 124.65 119.6" fill="#f4e49f" fill-rule="evenodd" stroke="none"/>
    <path d="M130.2 136.55 L131.85 132.55 Q149.1 119.7 162.5 111.4 L202.25 182.55 Q186.55 174.9 157.8 164.2 L153.05 162.0 153.0 162.0 Q142.4 148.4 130.2 136.55" fill="#b5a76d" fill-rule="evenodd" stroke="none"/>
    <path d="M420.0 279.55 L399.0 271.0 396.65 268.2 397.3 265.6 Q404.55 268.3 411.1 270.0 L420.0 272.0 420.0 279.55" fill="#5fb55b" fill-rule="evenodd" stroke="none"/>
    <path d="M299.0 214.7 L304.25 206.6 Q310.65 203.0 316.0 203.0 323.5 203.0 328.0 208.0 330.25 210.5 331.0 213.0 L343.75 205.8 Q357.6 198.95 363.0 201.0 373.7 205.0 379.85 216.25 372.2 219.6 366.8 224.0 361.15 228.65 359.75 233.1 357.2 229.15 355.8 223.6 L357.4 220.9 353.85 218.3 347.9 229.2 345.0 228.0 Q323.4 219.85 299.0 214.7" fill="#5fb55b" fill-rule="evenodd" stroke="none"/>
    <path d="M10.0 75.6 L11.85 76.05 0.0 74.4 0.0 51.2 Q3.2 49.75 6.35 49.35 9.75 48.95 11.9 50.0 L10.0 75.6" fill="#72bf6d" fill-rule="evenodd" stroke="none"/>
    <path d="M16.85 77.05 L12.2 76.15 14.7 52.05 Q19.55 56.5 21.5 62.55 23.5 68.85 19.2 68.45 L15.85 68.1 Q17.95 70.3 19.25 72.2 16.65 74.5 16.85 77.05" fill="#72bf6d" fill-rule="evenodd" stroke="none"/>
    <path d="M52.55 62.85 L50.55 65.1 47.25 72.7 Q43.95 80.95 43.75 84.15 29.6 79.65 16.85 77.05 16.65 74.5 19.25 72.2 21.95 69.85 26.9 68.3 31.8 66.75 37.1 66.5 34.25 63.6 33.25 60.35 32.6 58.25 34.7 56.3 36.65 54.5 40.35 53.3 L40.8 53.8 52.55 62.85" fill="#5fb55b" fill-rule="evenodd" stroke="none"/>
    <path d="M53.35 82.05 Q53.75 78.3 55.2 73.95 L56.55 70.3 58.15 70.25 61.55 69.8 67.4 74.3 Q67.5 77.55 66.35 79.1 65.15 80.8 62.75 79.95 L58.6 78.55 61.25 83.75 Q56.2 83.0 53.35 82.05" fill="#5fb55b" fill-rule="evenodd" stroke="none"/>
    <path d="M57.75 56.7 Q57.15 56.9 57.0 57.55 L49.8 51.85 Q56.3 51.85 59.35 54.75 L60.8 56.3 57.75 56.7" fill="#5fb55b" fill-rule="evenodd" stroke="none"/>
    <path d="M59.35 126.3 L56.95 125.4 50.9 129.35 Q34.9 108.25 32.05 97.55 28.6 84.45 43.95 85.2 49.0 89.65 60.6 92.75 L60.05 95.85 69.6 98.25 63.8 110.0 Q57.9 122.15 57.35 124.0 L59.35 126.3" fill="#918656" fill-rule="evenodd" stroke="none"/>
    <path d="M62.45 143.95 L63.75 143.35 65.1 145.05 67.65 148.9 65.9 148.15 62.45 143.95" fill="#998945" fill-rule="evenodd" stroke="none"/>
    <path d="M113.7 122.0 L119.85 127.1 116.75 129.4 Q115.05 131.0 114.25 133.0 113.45 134.95 115.6 137.25 117.15 139.0 119.95 140.6 L120.0 140.65 122.45 141.95 121.85 141.5 Q123.75 142.0 125.2 141.45 128.25 140.3 130.2 136.55 142.4 148.4 153.0 162.0 120.9 165.35 87.0 157.6 87.95 149.85 88.55 141.65 91.75 137.65 103.1 114.0 107.65 117.15 113.7 122.0" fill="#918656" fill-rule="evenodd" stroke="none"/>
    <path d="M170.55 203.2 Q171.6 202.4 170.25 201.0 168.75 199.45 164.8 197.85 159.55 195.75 156.4 197.2 153.2 198.65 160.3 201.8 167.95 205.2 170.55 203.2 M121.85 188.75 Q119.2 185.95 112.15 183.15 108.05 181.5 103.6 181.2 99.4 180.95 97.2 181.95 94.8 183.05 96.2 185.05 97.85 187.35 104.15 190.15 110.5 193.0 115.8 193.55 120.55 194.1 122.4 192.65 124.25 191.2 121.85 188.75 M132.65 179.55 Q125.6 176.75 121.4 178.65 117.2 180.6 126.65 184.8 136.9 189.35 140.35 186.7 141.7 185.6 139.95 183.75 137.95 181.65 132.65 179.55 M27.8 173.85 Q30.6 173.4 30.75 170.3 34.05 165.3 38.75 159.2 54.35 164.65 67.8 168.65 L66.15 183.3 66.55 183.4 Q64.8 186.0 64.15 187.9 63.15 190.8 65.1 191.5 69.05 192.95 74.45 194.4 81.15 196.2 83.1 195.85 84.6 195.6 85.0 193.5 85.35 191.55 84.6 189.0 L86.9 189.7 Q85.6 181.6 85.05 173.3 106.4 178.15 106.5 173.6 106.6 169.1 86.9 158.45 L87.0 157.6 Q120.95 165.35 153.05 162.0 L157.8 164.2 153.65 162.65 Q192.8 187.25 204.55 202.05 199.6 209.85 198.85 214.2 L198.85 214.3 181.9 220.1 174.05 223.0 172.05 222.85 173.3 223.25 161.25 227.5 162.7 230.0 Q164.55 232.8 166.55 234.15 L169.9 234.35 174.65 233.55 169.4 237.25 Q154.1 224.55 156.65 221.5 139.75 219.55 119.35 215.6 101.6 212.15 85.0 208.0 57.05 201.0 33.5 202.95 12.4 204.7 0.0 212.95 L0.0 188.5 Q8.75 191.6 15.45 191.65 21.65 191.75 23.45 189.35 25.3 186.9 21.35 183.25 16.9 179.15 6.55 175.0 3.2 173.7 0.0 172.95 L0.0 144.3 Q4.65 146.55 11.0 149.0 L20.1 152.45 15.5 157.1 Q12.65 158.4 10.1 161.65 7.5 165.05 8.55 166.45 9.7 168.0 17.65 171.1 25.65 174.2 27.8 173.85" fill="#7eb564" fill-rule="evenodd" stroke="none"/>
    <path d="M214.4 188.65 L214.25 188.85 212.65 187.95 214.4 188.65" fill="#7eb564" fill-rule="evenodd" stroke="none"/>
    <path d="M228.3 195.65 Q227.3 195.15 226.3 195.0 L227.15 193.95 229.4 194.85 228.3 195.65" fill="#7eb564" fill-rule="evenodd" stroke="none"/>
    <path d="M298.9 214.85 L299.0 214.7 Q319.6 219.05 338.15 225.6 L329.95 223.0 Q312.2 217.5 298.9 214.85" fill="#7eb564" fill-rule="evenodd" stroke="none"/>
    <path d="M347.9 229.2 L343.0 238.2 Q333.9 230.95 334.0 229.1 334.1 227.0 345.0 228.0 L347.9 229.2" fill="#7eb564" fill-rule="evenodd" stroke="none"/>
    <path d="M329.5 285.0 Q335.75 288.5 334.9 285.1 334.05 281.75 330.0 279.5 328.35 278.6 326.75 278.6 325.2 278.6 324.7 279.45 323.3 281.55 329.5 285.0 M399.0 271.0 L420.0 279.55 420.0 300.0 298.75 300.0 Q301.05 290.15 293.9 274.65 287.2 260.2 273.05 242.5 L273.7 241.8 Q281.95 235.4 290.65 225.45 306.9 233.3 338.85 245.85 L321.5 277.7 323.5 279.05 342.1 247.1 365.15 255.85 352.0 245.3 361.1 248.4 368.1 248.7 Q375.5 255.6 387.4 261.4 L381.5 272.4 388.55 276.0 385.65 280.65 381.0 276.65 380.6 280.65 377.0 282.0 374.3 276.0 372.3 281.3 366.3 275.3 367.0 284.65 379.0 290.0 381.1 283.65 406.3 294.0 409.65 286.65 401.0 286.65 399.65 280.65 392.3 284.0 389.4 276.4 394.05 278.75 396.65 268.2 399.0 271.0" fill="#7eb564" fill-rule="evenodd" stroke="none"/>
    <path d="M172.05 222.85 L174.05 223.0 173.3 223.25 172.05 222.85" fill="#95d33d" fill-rule="evenodd" stroke="none"/>
    <path d="M196.8 231.7 L198.45 230.3 Q201.75 230.15 214.3 230.15 L228.05 229.4 243.55 235.65 Q239.9 243.1 239.0 252.05 231.6 247.75 223.5 243.5 214.25 238.7 196.8 231.7" fill="#95d33d" fill-rule="evenodd" stroke="none"/>
    <path d="M169.4 257.75 Q171.45 255.9 172.45 253.5 L173.0 251.5 180.05 245.65 Q187.2 251.05 195.3 256.75 L169.4 257.75" fill="#95d33d" fill-rule="evenodd" stroke="none"/>
    <path d="M65.8 272.7 Q62.8 261.5 52.65 254.3 42.85 247.4 31.9 247.1 21.8 246.85 15.15 252.05 8.4 257.4 9.25 265.55 10.25 274.75 21.0 284.0 36.35 297.25 48.5 298.2 58.95 299.0 63.9 290.9 68.65 283.25 65.8 272.7 M0.0 212.95 Q12.4 204.7 33.5 202.95 57.05 201.0 85.0 208.0 101.6 212.15 119.35 215.6 139.75 219.55 156.65 221.5 154.1 224.55 169.4 237.25 L164.0 241.0 164.2 241.55 163.25 240.5 Q160.6 239.7 146.85 233.9 134.1 228.5 127.5 225.5 123.75 223.8 119.25 228.4 114.9 232.8 113.0 239.5 L112.55 239.5 Q103.75 239.5 97.5 245.75 91.25 252.0 91.25 260.8 L91.35 262.8 Q87.75 268.75 94.75 277.5 101.8 286.35 114.5 291.5 132.65 298.85 143.9 298.95 153.4 299.05 156.75 294.15 159.65 289.85 157.25 283.5 154.95 277.4 149.5 273.5 158.45 274.5 164.5 273.4 172.85 271.85 173.5 266.5 L203.5 262.5 Q231.6 281.9 253.1 291.25 271.85 299.4 280.2 297.75 288.2 296.2 282.6 287.05 276.6 277.25 257.9 264.1 L257.55 263.15 Q259.95 258.2 263.65 253.3 267.2 248.6 273.05 242.5 287.2 260.2 293.9 274.65 301.05 290.15 298.75 300.0 L250.85 300.0 252.0 297.5 246.45 298.6 243.5 299.0 Q242.5 293.75 240.5 289.5 240.65 294.2 239.3 296.65 238.65 297.9 237.95 298.15 L231.65 289.6 Q232.55 292.25 231.0 298.0 L234.4 300.0 0.0 300.0 0.0 212.95 M34.05 217.25 L34.0 221.0 24.0 222.5 70.0 244.5 Q69.1 241.5 68.7 237.25 67.85 228.75 70.15 222.4 L87.5 232.0 89.15 230.6 Q91.2 228.3 93.0 224.0 L88.4 224.85 86.35 224.95 86.65 222.55 Q86.6 219.65 85.0 217.0 85.15 220.5 83.1 221.85 82.05 222.55 81.0 222.5 80.0 217.25 78.0 213.0 78.15 217.7 76.8 220.15 76.15 221.4 75.45 221.65 L69.15 213.1 Q70.05 215.75 68.5 221.5 65.95 222.95 64.2 225.9 63.35 227.35 63.0 228.5 63.15 226.15 62.7 222.95 61.8 216.55 59.0 212.5 59.3 217.8 55.7 224.2 53.9 227.4 52.0 229.5 L50.8 220.45 Q49.2 210.55 47.0 206.5 47.3 213.7 45.7 219.3 44.9 222.15 44.0 223.5 L33.0 210.5 Q33.95 213.0 34.05 217.25" fill="#95d33d" fill-rule="evenodd" stroke="none"/>
    <path d="M202.25 182.55 Q208.05 185.4 212.65 187.95 L214.25 188.85 Q208.65 195.6 204.55 202.05 192.8 187.25 153.65 162.65 L157.8 164.2 Q186.55 174.9 202.25 182.55" fill="#95d33d" fill-rule="evenodd" stroke="none"/>
    <path d="M290.65 225.45 Q295.25 220.05 298.9 214.85 312.2 217.5 329.95 223.0 338.8 225.75 345.0 228.0 334.1 227.0 334.0 229.1 333.9 230.95 343.0 238.2 L338.85 245.85 Q306.9 233.3 290.65 225.45" fill="#b8e561" fill-rule="evenodd" stroke="none"/>
    <path d="M352.0 245.3 L365.15 255.85 342.1 247.1 345.05 242.0 Q347.55 243.5 352.0 245.3" fill="#b8e561" fill-rule="evenodd" stroke="none"/>
    <path d="M59.55 145.3 L62.45 143.95 65.9 148.15 59.55 145.3" fill="#e2ce76" fill-rule="evenodd" stroke="none"/>
    <path d="M43.75 84.15 L43.75 85.05 43.95 85.2 Q28.6 84.45 32.05 97.55 34.9 108.25 50.9 129.35 L46.9 131.95 Q43.6 134.0 39.25 136.95 21.4 129.95 0.0 122.65 L0.0 74.4 11.85 76.05 12.15 76.15 12.2 76.15 16.85 77.05 Q29.6 79.65 43.75 84.15" fill="#d1c48f" fill-rule="evenodd" stroke="none"/>
    <path d="M17.7 23.8 Q20.3 27.9 23.3 30.7 27.75 34.8 32.0 34.85 L42.45 34.95 Q46.75 35.4 48.85 38.6 45.95 37.9 40.4 41.65 34.15 45.85 31.1 46.15 25.4 46.65 20.55 46.4 L15.35 45.8 17.7 23.8" fill="#d6657b" fill-rule="evenodd" stroke="none"/>
    <path d="M18.0 20.6 L16.7 32.95 12.9 36.25 14.1 19.35 18.0 20.6" fill="#a59484" fill-rule="evenodd" stroke="none"/>
    <path d="M12.9 36.25 L16.7 32.95 12.2 76.15 12.15 76.15 11.85 76.05 10.0 75.6 12.9 36.25" fill="#827668" fill-rule="evenodd" stroke="none"/>
    <path d="M48.35 280.95 Q47.4 275.6 44.0 271.0 40.7 266.5 35.65 264.9 30.95 263.35 27.55 265.05 23.95 266.85 24.4 271.2 24.95 276.25 31.0 283.0 37.1 289.8 41.65 291.05 45.6 292.15 47.5 289.0 49.2 286.0 48.35 280.95 M52.65 254.3 Q62.8 261.5 65.8 272.7 68.65 283.25 63.9 290.9 58.95 299.0 48.5 298.2 36.35 297.25 21.0 284.0 10.25 274.75 9.25 265.55 8.4 257.4 15.15 252.05 21.8 246.85 31.9 247.1 42.85 247.4 52.65 254.3" fill="#7eb564" fill-rule="evenodd" stroke="none"/>
    <path d="M39.25 136.95 L39.15 137.0 31.0 142.55 Q29.25 143.6 28.25 144.8 L20.1 152.45 11.0 149.0 Q4.65 146.55 0.0 144.3 L0.0 122.65 Q21.4 129.95 39.25 136.95" fill="#b8e561" fill-rule="evenodd" stroke="none"/>
    <path d="M38.75 159.2 L43.35 153.35 Q47.5 151.0 59.55 145.3 L67.65 148.9 68.5 150.95 Q69.25 153.15 68.9 157.05 L68.1 164.9 67.8 168.65 Q54.35 164.65 38.75 159.2" fill="#b8e561" fill-rule="evenodd" stroke="none"/>
    <path d="M85.05 173.3 L84.9 170.5 Q85.95 166.2 86.9 158.45 106.6 169.1 106.5 173.6 106.4 178.15 85.05 173.3" fill="#b8e561" fill-rule="evenodd" stroke="none"/>
    <path d="M27.55 265.05 Q30.95 263.35 35.65 264.9 40.7 266.5 44.0 271.0 47.4 275.6 48.35 280.95 49.2 286.0 47.5 289.0 45.6 292.15 41.65 291.05 37.1 289.8 31.0 283.0 24.95 276.25 24.4 271.2 23.95 266.85 27.55 265.05" fill="#6c9b54" fill-rule="evenodd" stroke="none"/>
    <path d="M397.3 265.6 L394.05 278.75 389.4 276.4 389.0 275.3 388.55 276.0 381.5 272.4 387.4 261.4 Q392.3 263.75 397.3 265.6" fill="#885e48" fill-rule="evenodd" stroke="none"/>
    <path d="M393.9 236.35 Q393.3 235.7 387.75 238.5 382.2 241.35 382.2 242.3 382.2 243.25 386.1 245.6 389.9 247.9 391.5 248.05 392.9 248.2 393.8 242.65 394.7 237.15 393.9 236.35 M404.15 209.2 Q406.9 210.2 408.05 209.85 409.15 209.55 409.5 205.3 409.9 201.15 409.15 200.55 408.6 200.15 404.25 203.2 399.8 206.3 400.55 207.2 401.4 208.2 404.15 209.2 M397.8 199.9 Q398.5 196.8 397.7 196.15 L394.35 197.65 Q391.1 199.3 391.5 200.1 391.95 201.05 393.85 202.05 395.55 203.0 396.35 203.0 397.1 203.0 397.8 199.9 M406.95 190.85 L404.15 191.05 Q401.85 191.75 401.85 192.4 401.85 193.35 403.1 194.65 404.35 195.95 405.2 195.95 406.05 195.95 406.85 193.75 407.6 191.5 406.95 190.85 M414.45 197.05 Q415.3 197.2 415.7 194.05 416.1 190.85 415.15 190.4 414.3 190.0 412.0 192.1 409.7 194.15 410.05 194.8 410.35 195.4 412.0 196.15 413.4 196.8 414.45 197.05 M383.15 223.65 Q378.6 226.0 379.35 226.85 380.3 228.05 382.4 229.3 384.7 230.7 385.75 230.4 386.85 230.1 387.9 226.15 388.9 222.3 388.2 221.75 387.65 221.35 383.15 223.65 M364.1 232.8 Q364.5 234.0 367.2 236.55 370.1 239.3 371.6 239.45 373.25 239.6 374.3 234.25 375.3 228.85 373.8 227.5 373.15 226.9 368.45 229.35 363.75 231.85 364.1 232.8 M378.8 209.25 Q376.55 205.35 380.4 200.4 383.9 195.9 391.15 192.0 398.4 188.15 406.05 186.7 414.35 185.15 420.0 187.1 L420.0 272.0 411.1 270.0 Q404.55 268.3 397.3 265.6 392.3 263.75 387.4 261.4 375.5 255.6 368.1 248.7 L375.9 247.65 Q380.1 247.3 382.35 248.7 381.4 245.05 377.15 242.95 L366.35 238.85 Q362.65 237.45 359.75 233.1 361.15 228.65 366.8 224.0 372.2 219.6 379.85 216.25 L383.1 214.95 Q380.7 212.4 378.8 209.25" fill="#3d993a" fill-rule="evenodd" stroke="none"/>
    <path d="M405.2 195.95 Q404.35 195.95 403.1 194.65 401.85 193.35 401.85 192.4 401.85 191.75 404.15 191.05 L406.95 190.85 Q407.6 191.5 406.85 193.75 406.05 195.95 405.2 195.95" fill="#48a843" fill-rule="evenodd" stroke="none"/>
    <path d="M391.5 200.1 Q391.1 199.3 394.35 197.65 L397.7 196.15 Q398.5 196.8 397.8 199.9 397.1 203.0 396.35 203.0 395.55 203.0 393.85 202.05 391.95 201.05 391.5 200.1" fill="#48a843" fill-rule="evenodd" stroke="none"/>
    <path d="M414.45 197.05 Q413.4 196.8 412.0 196.15 410.35 195.4 410.05 194.8 409.7 194.15 412.0 192.1 414.3 190.0 415.15 190.4 416.1 190.85 415.7 194.05 415.3 197.2 414.45 197.05" fill="#48a843" fill-rule="evenodd" stroke="none"/>
    <path d="M408.05 209.85 Q406.9 210.2 404.15 209.2 401.4 208.2 400.55 207.2 399.8 206.3 404.25 203.2 408.6 200.15 409.15 200.55 409.9 201.15 409.5 205.3 409.15 209.55 408.05 209.85" fill="#48a843" fill-rule="evenodd" stroke="none"/>
    <path d="M385.75 230.4 Q384.7 230.7 382.4 229.3 380.3 228.05 379.35 226.85 378.6 226.0 383.15 223.65 387.65 221.35 388.2 221.75 388.9 222.3 387.9 226.15 386.85 230.1 385.75 230.4" fill="#48a843" fill-rule="evenodd" stroke="none"/>
    <path d="M364.1 232.8 Q363.75 231.85 368.45 229.35 373.15 226.9 373.8 227.5 375.3 228.85 374.3 234.25 373.25 239.6 371.6 239.45 370.1 239.3 367.2 236.55 364.5 234.0 364.1 232.8" fill="#48a843" fill-rule="evenodd" stroke="none"/>
    <path d="M387.75 238.5 Q393.3 235.7 393.9 236.35 394.7 237.15 393.8 242.65 392.9 248.2 391.5 248.05 389.9 247.9 386.1 245.6 382.2 243.25 382.2 242.3 382.2 241.35 387.75 238.5" fill="#48a843" fill-rule="evenodd" stroke="none"/>
    <path d="M330.0 279.5 Q334.05 281.75 334.9 285.1 335.75 288.5 329.5 285.0 323.3 281.55 324.7 279.45 325.2 278.6 326.75 278.6 328.35 278.6 330.0 279.5" fill="#539136" fill-rule="evenodd" stroke="none"/>
    <path d="M355.8 223.6 Q357.2 229.15 359.75 233.1 362.65 237.45 366.35 238.85 L377.15 242.95 Q381.4 245.05 382.35 248.7 380.1 247.3 375.9 247.65 L368.1 248.7 361.1 248.4 352.0 245.3 Q347.55 243.5 345.05 242.0 L355.8 223.6" fill="#ffbf01" fill-rule="evenodd" stroke="none"/>
    <path d="M357.4 220.9 L351.3 231.25 346.05 232.6 353.85 218.3 357.4 220.9" fill="#a59484" fill-rule="evenodd" stroke="none"/>
    <path d="M346.05 232.6 L351.3 231.25 323.5 279.05 321.5 277.7 346.05 232.6" fill="#827668" fill-rule="evenodd" stroke="none"/>
    <path d="M173.5 266.5 Q172.85 271.85 164.5 273.4 158.45 274.5 149.5 273.5 154.95 277.4 157.25 283.5 159.65 289.85 156.75 294.15 153.4 299.05 143.9 298.95 132.65 298.85 114.5 291.5 101.8 286.35 94.75 277.5 87.75 268.75 91.35 262.8 92.1 271.0 98.15 276.55 104.25 282.15 112.55 282.15 121.4 282.15 127.65 275.9 133.9 269.65 133.9 260.8 L133.9 260.45 Q149.4 263.3 159.0 262.0 165.7 261.1 169.4 257.75 L195.3 256.75 Q187.2 251.05 180.05 245.65 L196.8 231.7 Q214.25 238.7 223.5 243.5 231.6 247.75 239.0 252.05 238.5 257.25 238.75 266.15 245.55 273.2 255.55 282.65 L255.5 282.8 254.65 285.7 Q253.8 288.1 253.05 289.15 L261.55 291.15 266.05 283.65 Q260.9 272.3 257.9 264.1 276.6 277.25 282.6 287.05 288.2 296.2 280.2 297.75 271.85 299.4 253.1 291.25 231.6 281.9 203.5 262.5 L173.5 266.5" fill="#7eb564" fill-rule="evenodd" stroke="none"/>
    <path d="M34.0 221.0 L34.05 217.25 Q33.95 213.0 33.0 210.5 L44.0 223.5 Q44.9 222.15 45.7 219.3 47.3 213.7 47.0 206.5 49.2 210.55 50.8 220.45 L52.0 229.5 Q53.9 227.4 55.7 224.2 59.3 217.8 59.0 212.5 61.8 216.55 62.7 222.95 63.15 226.15 63.0 228.5 63.35 227.35 64.2 225.9 65.95 222.95 68.5 221.5 70.05 215.75 69.15 213.1 L75.45 221.65 Q76.15 221.4 76.8 220.15 78.15 217.7 78.0 213.0 80.0 217.25 81.0 222.5 82.05 222.55 83.1 221.85 85.15 220.5 85.0 217.0 86.6 219.65 86.65 222.55 L86.35 224.95 88.4 224.85 93.0 224.0 Q91.2 228.3 89.15 230.6 L87.5 232.0 70.15 222.4 Q67.85 228.75 68.7 237.25 69.1 241.5 70.0 244.5 L24.0 222.5 34.0 221.0" fill="#b8e561" fill-rule="evenodd" stroke="none"/>
    <path d="M252.0 297.5 L250.85 300.0 234.4 300.0 231.0 298.0 Q232.55 292.25 231.65 289.6 L237.95 298.15 Q238.65 297.9 239.3 296.65 240.65 294.2 240.5 289.5 242.5 293.75 243.5 299.0 L246.45 298.6 252.0 297.5" fill="#b8e561" fill-rule="evenodd" stroke="none"/>
    <path d="M392.3 284.0 L399.65 280.65 401.0 286.65 409.65 286.65 406.3 294.0 381.1 283.65 379.0 290.0 367.0 284.65 366.3 275.3 372.3 281.3 374.3 276.0 377.0 282.0 380.6 280.65 381.0 276.65 385.65 280.65 389.0 275.3 392.3 284.0" fill="#95d33d" fill-rule="evenodd" stroke="none"/>
    <path d="M112.15 183.15 Q119.2 185.95 121.85 188.75 124.25 191.2 122.4 192.65 120.55 194.1 115.8 193.55 110.5 193.0 104.15 190.15 97.85 187.35 96.2 185.05 94.8 183.05 97.2 181.95 99.4 180.95 103.6 181.2 108.05 181.5 112.15 183.15" fill="#b8e561" fill-rule="evenodd" stroke="none"/>
    <path d="M6.55 175.0 Q16.9 179.15 21.35 183.25 25.3 186.9 23.45 189.35 21.65 191.75 15.45 191.65 8.75 191.6 0.0 188.5 L0.0 172.95 Q3.2 173.7 6.55 175.0" fill="#b8e561" fill-rule="evenodd" stroke="none"/>
    <path d="M126.65 184.8 Q117.2 180.6 121.4 178.65 125.6 176.75 132.65 179.55 137.95 181.65 139.95 183.75 141.7 185.6 140.35 186.7 136.9 189.35 126.65 184.8" fill="#b8e561" fill-rule="evenodd" stroke="none"/>
    <path d="M160.3 201.8 Q153.2 198.65 156.4 197.2 159.55 195.75 164.8 197.85 168.75 199.45 170.25 201.0 171.6 202.4 170.55 203.2 167.95 205.2 160.3 201.8" fill="#b8e561" fill-rule="evenodd" stroke="none"/>
    <path d="M274.6 36.8 Q276.0 33.95 280.5 29.75 L287.65 23.05 Q291.0 19.4 290.55 16.8 293.1 19.95 301.3 27.85 308.55 34.85 311.25 38.8 311.6 35.25 316.85 28.25 323.05 20.05 323.9 18.15 327.15 22.15 332.35 25.5 L340.65 30.6 Q344.95 33.65 346.9 37.45 349.3 42.25 349.2 49.9 354.35 48.85 358.75 46.65 364.45 43.75 365.9 40.15 371.25 44.4 372.5 51.7 373.75 59.3 369.3 64.65 L380.85 69.4 Q387.25 71.5 393.1 70.0 399.3 68.4 402.4 64.5 L402.6 64.45 Q405.5 71.25 398.8 85.15 395.45 92.15 391.5 97.75 L395.65 101.0 Q400.95 104.3 406.75 104.65 L398.15 116.1 Q391.65 123.35 387.15 122.7 L387.2 123.45 Q383.95 119.6 380.15 117.35 375.9 114.8 372.5 115.35 376.75 119.2 379.05 125.1 380.15 127.95 381.4 133.9 382.45 138.8 385.35 139.55 388.05 140.25 390.05 137.15 392.7 145.0 396.5 147.05 388.55 156.0 383.5 159.95 374.55 166.95 364.55 164.1 364.45 166.65 360.9 171.1 L353.1 179.85 Q341.7 192.3 341.05 198.15 328.8 195.5 313.45 183.3 314.9 175.35 313.45 168.55 321.95 167.25 331.9 164.4 342.35 161.4 347.75 158.55 352.55 159.95 356.75 157.3 360.55 154.85 362.15 150.3 363.8 145.6 362.05 141.45 360.1 136.75 354.4 134.7 L359.45 113.2 Q365.1 99.1 366.4 94.05 L365.55 92.55 Q368.5 93.0 371.75 95.25 L376.4 98.55 Q381.75 101.3 384.4 96.75 385.5 94.85 385.15 92.65 384.75 90.3 382.75 88.65 380.5 86.8 374.35 87.15 367.9 87.45 364.1 90.05 351.25 69.5 320.75 59.05 307.5 54.45 294.65 53.55 281.65 52.6 272.6 55.6 269.25 59.15 265.9 64.5 L263.25 69.15 Q260.5 69.05 258.65 70.1 256.8 71.2 256.4 73.15 255.5 75.0 255.8 77.4 256.15 79.85 257.75 82.5 251.7 91.05 247.65 99.45 238.65 98.2 235.95 108.15 234.85 112.15 235.5 116.05 236.2 120.05 238.45 121.85 231.15 118.9 228.2 113.55 226.35 110.2 225.25 102.8 231.6 103.1 236.1 101.3 240.9 99.3 243.9 94.8 241.9 93.15 239.9 90.25 235.95 84.45 236.0 78.25 241.55 81.1 250.35 79.5 244.45 73.8 241.6 66.65 238.35 58.5 240.55 51.5 247.55 56.95 258.3 51.75 L266.95 47.1 Q271.95 44.55 275.25 44.15 272.65 40.75 274.6 36.8" fill="#172b46" fill-rule="evenodd" stroke="none"/>
    <path d="M241.2 126.6 Q243.7 132.95 246.8 139.55 250.2 146.85 252.55 150.35 L251.1 151.25 249.2 151.3 Q240.9 147.25 235.5 148.2 235.7 146.85 235.5 141.25 235.35 136.9 236.4 134.1 237.65 130.9 241.2 126.6" fill="#172b46" fill-rule="evenodd" stroke="none"/>
    <path d="M251.6 40.45 L258.45 37.95 Q262.0 36.65 263.5 37.35 264.65 28.6 275.9 21.3 281.45 17.75 282.6 16.65 285.1 14.15 283.8 11.5 290.25 13.7 298.2 18.25 302.2 20.55 304.85 22.35 306.7 19.85 308.3 16.65 311.45 10.2 310.1 6.5 321.95 7.9 336.9 16.8 353.3 26.6 354.5 35.65 359.5 34.45 359.35 30.4 358.25 25.7 358.65 23.95 374.05 37.45 377.3 48.05 378.9 53.3 377.45 55.9 L386.95 60.9 Q397.45 65.7 402.4 64.5 399.3 68.4 393.1 70.0 387.25 71.5 380.85 69.4 L369.3 64.65 Q373.75 59.3 372.5 51.7 371.25 44.4 365.9 40.15 364.45 43.75 358.75 46.65 354.35 48.85 349.2 49.9 349.3 42.25 346.9 37.45 344.95 33.65 340.65 30.6 L332.35 25.5 Q327.15 22.15 323.9 18.15 323.05 20.05 316.85 28.25 311.6 35.25 311.25 38.8 308.55 34.85 301.3 27.85 293.1 19.95 290.55 16.8 291.0 19.4 287.65 23.05 L280.5 29.75 Q276.0 33.95 274.6 36.8 272.65 40.75 275.25 44.15 271.95 44.55 266.95 47.1 L258.3 51.75 Q247.55 56.95 240.55 51.5 238.35 58.5 241.6 66.65 244.45 73.8 250.35 79.5 241.55 81.1 236.0 78.25 235.95 84.45 239.9 90.25 241.9 93.15 243.9 94.8 240.9 99.3 236.1 101.3 231.6 103.1 225.25 102.8 226.35 110.2 228.2 113.55 231.15 118.9 238.45 121.85 L239.75 122.6 241.2 126.6 Q237.65 130.9 236.4 134.1 235.35 136.9 235.5 141.25 235.7 146.85 235.5 148.2 240.9 147.25 249.2 151.3 235.3 151.75 231.9 155.45 228.2 149.65 227.35 140.95 226.2 129.25 233.2 123.15 227.9 119.75 224.9 111.65 223.55 108.1 221.55 98.65 224.9 99.75 231.05 96.05 234.15 94.2 236.55 92.15 235.2 90.25 233.65 86.35 230.6 78.6 229.55 68.65 234.3 72.95 236.15 71.45 237.1 70.75 237.05 69.15 232.85 58.15 234.9 48.9 L236.7 41.8 Q237.55 37.7 237.1 33.9 242.15 43.0 251.6 40.45" fill="#443844" fill-rule="evenodd" stroke="none"/>
    <path d="M254.65 285.7 L255.5 282.8 Q259.9 284.4 265.3 284.9 L261.55 291.15 253.05 289.15 Q253.8 288.1 254.65 285.7" fill="#e2e8e7" fill-rule="evenodd" stroke="none"/>
    <path d="M169.2 224.7 L172.4 228.7 175.6 232.85 174.65 233.55 169.9 234.35 166.55 234.15 Q164.55 232.8 162.7 230.0 L161.25 227.5 169.2 224.7" fill="#e2e8e7" fill-rule="evenodd" stroke="none"/>
    <path d="M239.1 220.75 Q249.25 226.3 257.4 231.45 270.75 239.9 272.3 242.9 L273.7 241.8 273.05 242.5 Q267.2 248.6 263.65 253.3 259.95 258.2 257.55 263.15 L257.9 264.1 Q260.9 272.3 266.05 283.65 L265.3 284.9 Q259.9 284.4 255.5 282.8 L255.55 282.65 Q245.55 273.2 238.75 266.15 238.5 257.25 239.0 252.05 239.9 243.1 243.55 235.65 L228.05 229.4 214.3 230.15 Q201.75 230.15 198.45 230.3 L201.9 227.45 Q205.85 230.45 211.2 227.5 216.65 224.5 218.05 217.9 223.0 220.9 227.9 221.5 L239.1 220.75" fill="#273c59" fill-rule="evenodd" stroke="none"/>
    <path d="M169.2 224.7 L181.9 220.1 198.85 214.3 198.55 216.7 175.6 232.85 172.4 228.7 169.2 224.7" fill="#273c59" fill-rule="evenodd" stroke="none"/>
    <path d="M277.55 185.5 L283.25 186.15 283.3 186.25 Q286.55 182.65 289.45 180.15 296.2 174.5 299.8 175.9 301.7 176.6 302.55 179.05 303.25 181.0 303.05 182.8 302.75 186.25 299.05 190.85 294.75 196.2 289.9 196.65 L289.8 196.6 288.35 195.45 284.75 191.85 284.85 192.3 283.2 190.15 Q270.55 197.8 264.85 200.35 259.85 202.65 243.8 205.4 L235.45 206.8 Q234.8 204.05 233.3 201.15 L247.75 188.75 Q248.05 186.8 247.1 185.65 246.15 184.5 244.25 184.5 L230.55 194.05 235.8 187.15 Q247.7 176.1 250.55 175.8 L258.55 176.15 261.25 172.8 268.55 172.8 277.55 185.5" fill="#dd7928" fill-rule="evenodd" stroke="none"/>
    <path d="M239.1 220.75 L256.15 218.4 269.95 216.5 Q272.45 216.2 276.05 214.7 271.45 220.1 266.7 224.45 261.45 229.3 257.4 231.45 249.25 226.3 239.1 220.75" fill="#e06a00" fill-rule="evenodd" stroke="none"/>
    <path d="M235.45 167.25 L233.8 168.6 233.3 169.1 Q232.35 167.65 231.9 166.15 L232.95 166.35 235.45 167.25" fill="#c65e00" fill-rule="evenodd" stroke="none"/>
    <path d="M270.8 168.8 L275.05 173.3 Q279.5 178.35 280.7 181.3 285.0 181.35 289.45 180.15 286.55 182.65 283.3 186.25 L283.25 186.15 277.55 185.5 268.55 172.8 261.25 172.8 258.55 176.15 250.55 175.8 Q247.7 176.1 235.8 187.15 L242.55 176.8 242.0 176.45 242.25 176.15 Q241.6 172.25 238.0 168.95 L236.9 168.05 Q238.55 169.1 239.55 170.5 241.35 172.9 244.7 169.55 247.45 166.75 248.55 163.8 L246.55 154.8 Q244.3 155.95 238.65 160.5 245.6 154.65 251.1 151.25 L252.55 150.35 254.2 152.4 254.25 152.45 Q252.35 161.8 256.1 171.0 261.7 169.3 270.8 168.8" fill="#c65e00" fill-rule="evenodd" stroke="none"/>
    <path d="M284.75 191.85 L288.35 195.45 284.85 192.3 284.75 191.85" fill="#c65e00" fill-rule="evenodd" stroke="none"/>
    <path d="M303.05 182.8 Q303.25 181.0 302.55 179.05 301.7 176.6 299.8 175.9 304.8 173.05 309.5 169.05 L313.45 168.55 Q314.9 175.35 313.45 183.3 311.4 194.35 304.25 206.6 L299.0 214.7 298.9 214.85 Q295.25 220.05 290.65 225.45 281.95 235.4 273.7 241.8 L272.3 242.9 Q270.75 239.9 257.4 231.45 261.45 229.3 266.7 224.45 271.45 220.1 276.05 214.7 281.9 212.15 290.15 206.6 294.3 203.8 297.25 201.5 L289.8 196.6 289.9 196.65 Q294.75 196.2 299.05 190.85 302.75 186.25 303.05 182.8" fill="#c65e00" fill-rule="evenodd" stroke="none"/>
    <path d="M299.8 175.9 Q296.2 174.5 289.45 180.15 285.0 181.35 280.7 181.3 279.5 178.35 275.05 173.3 L270.8 168.8 Q261.7 169.3 256.1 171.0 252.35 161.8 254.25 152.45 261.0 160.25 271.4 166.75 281.35 168.9 291.8 169.15 L308.25 169.15 309.5 169.05 Q304.8 173.05 299.8 175.9" fill="#a00400" fill-rule="evenodd" stroke="none"/>
    <path d="M171.95 235.5 L169.5 237.5 Q167.65 239.15 167.9 240.6 168.2 242.2 171.15 240.8 175.5 238.8 193.5 224.5 194.55 223.65 193.95 222.15 L193.15 220.8 183.05 227.65 198.55 216.7 198.45 218.4 Q198.4 224.85 201.9 227.45 L173.0 251.5 168.55 245.95 168.0 245.75 166.2 243.95 164.2 241.55 164.0 241.0 171.95 235.5" fill="#562f07" fill-rule="evenodd" stroke="none"/>
    <path d="M243.8 187.15 L244.4 185.6 Q244.55 184.35 242.5 185.8 L232.8 192.5 Q231.3 193.7 230.8 195.2 L232.8 195.15 Q236.5 192.8 243.8 187.15 M244.25 184.5 Q246.15 184.5 247.1 185.65 248.05 186.8 247.75 188.75 L233.3 201.15 Q231.15 197.1 228.3 195.65 L230.55 194.05 244.25 184.5" fill="#562f07" fill-rule="evenodd" stroke="none"/>
    <path d="M126.75 227.0 Q125.35 226.55 124.0 227.6 122.8 228.5 122.35 230.05 121.15 234.0 125.75 234.0 130.45 234.0 130.55 231.05 130.7 228.2 126.75 227.0 M119.25 228.4 Q123.75 223.8 127.5 225.5 134.1 228.5 146.85 233.9 160.6 239.7 163.25 240.5 L164.2 241.55 166.2 243.95 168.0 245.75 168.55 245.95 Q161.9 245.05 148.8 241.1 136.0 237.2 129.5 236.4 123.65 235.85 119.65 240.7 116.5 239.6 113.0 239.5 114.9 232.8 119.25 228.4" fill="#939e9e" fill-rule="evenodd" stroke="none"/>
    <path d="M233.3 169.1 L233.8 168.6 Q234.9 171.05 235.25 174.2 231.4 181.5 228.45 186.0 224.35 192.15 219.95 196.15 217.05 197.7 214.8 200.15 212.5 201.75 209.55 203.05 211.55 206.4 210.95 210.45 210.5 213.15 208.55 217.05 206.5 219.65 203.45 220.05 200.4 220.45 198.45 218.4 L198.85 214.3 198.85 214.2 Q199.6 209.85 204.55 202.05 208.65 195.6 214.25 188.85 L214.4 188.65 217.85 184.6 Q220.65 181.45 225.45 176.65 230.15 171.95 233.3 169.1" fill="#ffd1a3" fill-rule="evenodd" stroke="none"/>
    <path d="M235.25 174.2 Q234.9 171.05 233.8 168.6 L235.45 167.25 236.9 168.05 238.0 168.95 Q241.6 172.25 242.25 176.15 L242.0 176.45 230.7 189.6 226.3 195.0 225.05 194.85 Q223.6 194.55 221.4 195.55 L219.95 196.15 Q224.35 192.15 228.45 186.0 231.4 181.5 235.25 174.2" fill="#e2a98a" fill-rule="evenodd" stroke="none"/>
    <path d="M211.8 205.15 Q210.8 207.85 211.3 210.05 212.3 214.3 218.05 217.9 216.65 224.5 211.2 227.5 205.85 230.45 201.9 227.45 198.4 224.85 198.45 218.4 200.4 220.45 203.45 220.05 206.5 219.65 208.55 217.05 210.5 213.15 210.95 210.45 211.55 206.4 209.55 203.05 212.5 201.75 214.8 200.15 212.75 202.55 211.8 205.15" fill="#e2a98a" fill-rule="evenodd" stroke="none"/>
    <path d="M244.0 108.45 Q240.0 116.0 238.8 119.65 L239.75 122.6 238.45 121.85 Q236.2 120.05 235.5 116.05 234.85 112.15 235.95 108.15 238.65 98.2 247.65 99.45 245.65 103.55 244.0 108.45" fill="#e2a98a" fill-rule="evenodd" stroke="none"/>
    <path d="M362.05 141.45 Q363.8 145.6 362.15 150.3 360.55 154.85 356.75 157.3 352.55 159.95 347.75 158.55 L347.9 158.5 Q350.4 150.75 354.4 134.7 360.1 136.75 362.05 141.45" fill="#e2a98a" fill-rule="evenodd" stroke="none"/>
    <path d="M355.0 120.05 L357.05 114.85 358.75 114.9 359.45 113.2 354.4 134.7 Q350.4 150.75 347.9 158.5 L347.75 158.55 Q342.35 161.4 331.9 164.4 321.95 167.25 313.45 168.55 L309.5 169.05 308.25 169.15 291.8 169.15 Q281.35 168.9 271.4 166.75 261.0 160.25 254.25 152.45 L254.2 152.4 252.55 150.35 Q250.2 146.85 246.8 139.55 243.7 132.95 241.2 126.6 L238.8 119.65 Q240.0 116.0 244.0 108.45 239.9 121.55 244.05 130.15 253.5 149.3 270.9 157.35 288.25 165.35 314.25 162.8 330.25 161.25 339.5 148.05 346.6 137.9 349.5 121.1 L355.0 120.05" fill="#e2a98a" fill-rule="evenodd" stroke="none"/>
    <path d="M283.6 147.1 Q285.45 146.55 281.6 144.3 277.9 142.1 275.9 143.75 274.8 144.6 278.45 146.1 282.05 147.55 283.6 147.1 M275.25 125.6 Q273.25 125.75 272.85 127.15 272.4 128.65 274.95 129.85 272.3 133.05 272.75 135.6 273.2 138.45 277.6 140.15 288.3 144.3 292.8 142.25 295.5 141.0 296.55 136.55 295.8 135.05 287.45 132.1 281.15 129.9 276.35 128.7 275.15 128.2 275.05 127.6 274.9 127.0 275.7 126.8 276.65 126.6 276.7 126.0 276.75 125.45 275.25 125.6 M288.0 120.75 Q282.7 119.3 281.6 122.8 280.45 126.2 284.35 128.4 287.15 130.0 289.2 129.4 291.0 128.85 291.6 127.0 292.2 125.15 291.3 123.35 290.3 121.4 288.0 120.75 M259.45 114.55 Q258.05 113.0 255.15 112.3 251.2 111.3 249.2 114.15 247.15 117.0 252.9 118.8 L257.9 119.15 Q259.8 118.65 260.25 117.3 260.7 115.9 259.45 114.55 M260.0 109.7 Q261.3 110.75 262.95 110.55 264.6 110.4 265.65 109.1 266.7 107.8 266.55 106.15 266.35 104.5 265.1 103.45 263.8 102.35 262.15 102.55 260.45 102.7 259.4 104.0 258.35 105.3 258.55 106.95 258.7 108.65 260.0 109.7 M327.4 135.65 Q325.8 134.75 323.75 134.9 321.8 135.0 320.65 135.9 317.65 138.35 323.4 142.0 326.0 143.65 328.15 143.55 330.1 143.45 330.9 142.05 331.75 140.7 330.9 139.0 330.0 137.05 327.4 135.65 M323.85 122.9 Q322.5 123.3 321.75 124.5 320.95 125.7 321.1 127.15 321.25 128.8 322.55 129.85 323.85 130.9 325.5 130.75 327.15 130.55 328.2 129.3 329.3 128.0 329.1 126.3 329.0 125.15 328.25 124.2 327.55 123.35 326.45 122.95 337.95 123.0 349.5 121.1 346.6 137.9 339.5 148.05 330.25 161.25 314.25 162.8 288.25 165.35 270.9 157.35 253.5 149.3 244.05 130.15 239.9 121.55 244.0 108.45 245.65 103.55 247.65 99.45 251.7 91.05 257.75 82.5 L258.7 83.95 Q256.8 89.4 260.4 95.85 266.7 107.05 288.3 115.8 303.9 122.35 323.85 122.9" fill="#ffd1a3" fill-rule="evenodd" stroke="none"/>
    <path d="M243.8 205.4 Q259.85 202.65 264.85 200.35 270.55 197.8 283.2 190.15 285.3 196.5 284.55 198.05 276.0 205.85 265.45 208.4 253.25 211.35 243.8 205.4" fill="#ffd1a3" fill-rule="evenodd" stroke="none"/>
    <path d="M233.3 201.15 Q234.8 204.05 235.45 206.8 L243.8 205.4 Q253.25 211.35 265.45 208.4 276.0 205.85 284.55 198.05 285.3 196.5 283.2 190.15 L284.85 192.3 288.35 195.45 289.8 196.6 297.25 201.5 Q294.3 203.8 290.15 206.6 281.9 212.15 276.05 214.7 272.45 216.2 269.95 216.5 L256.15 218.4 239.1 220.75 227.9 221.5 Q223.0 220.9 218.05 217.9 212.3 214.3 211.3 210.05 210.8 207.85 211.8 205.15 212.75 202.55 214.8 200.15 217.05 197.7 219.95 196.15 L221.4 195.55 Q216.1 197.95 213.15 202.65 209.9 207.85 215.25 209.15 217.3 209.65 220.3 207.8 223.1 206.05 225.25 203.25 227.5 200.35 227.65 198.1 227.8 195.55 225.05 194.85 L226.3 195.0 Q227.3 195.15 228.3 195.65 231.15 197.1 233.3 201.15" fill="#e2a98a" fill-rule="evenodd" stroke="none"/>
    <path d="M260.7 93.4 Q264.0 94.45 265.6 95.2 266.65 95.75 269.3 97.4 269.05 93.7 266.45 92.6 263.95 91.5 260.7 93.4 M333.2 115.8 Q332.35 114.15 331.05 113.1 L357.05 114.85 355.0 120.05 349.5 121.1 Q337.95 123.0 326.45 122.95 L324.7 122.7 323.85 122.9 Q303.9 122.35 288.3 115.8 266.7 107.05 260.4 95.85 256.8 89.4 258.7 83.95 264.9 92.45 279.95 98.55 294.05 104.35 305.25 107.7 315.95 110.9 326.25 112.45 324.95 113.05 323.75 114.65 L328.05 114.75 333.2 115.8" fill="#e2a98a" fill-rule="evenodd" stroke="none"/>
    <path d="M260.7 93.4 Q263.95 91.5 266.45 92.6 269.05 93.7 269.3 97.4 266.65 95.75 265.6 95.2 264.0 94.45 260.7 93.4" fill="#33302f" fill-rule="evenodd" stroke="none"/>
    <path d="M323.75 114.65 Q324.95 113.05 326.25 112.45 L331.05 113.1 Q332.35 114.15 333.2 115.8 L328.05 114.75 323.75 114.65" fill="#33302f" fill-rule="evenodd" stroke="none"/>
    <path d="M173.0 251.5 L172.45 253.5 Q171.45 255.9 169.4 257.75 165.7 261.1 159.0 262.0 149.4 263.3 133.9 260.45 133.8 253.7 129.8 248.25 125.9 242.9 119.65 240.7 123.65 235.85 129.5 236.4 136.0 237.2 148.8 241.1 161.9 245.05 168.55 245.95 L173.0 251.5" fill="#687271" fill-rule="evenodd" stroke="none"/>
    <path d="M125.75 234.0 Q121.15 234.0 122.35 230.05 122.8 228.5 124.0 227.6 125.35 226.55 126.75 227.0 130.7 228.2 130.55 231.05 130.45 234.0 125.75 234.0" fill="#ffffff" fill-rule="evenodd" stroke="none"/>
    <path d="M352.2 89.6 Q355.6 81.85 351.3 77.4 348.95 75.0 342.8 71.0 334.55 65.65 325.4 61.8 298.5 50.4 275.0 56.35 272.5 58.9 270.75 61.75 267.2 67.45 270.95 69.0 L276.95 71.45 Q268.05 69.4 263.25 69.15 L265.9 64.5 Q269.25 59.15 272.6 55.6 281.65 52.6 294.65 53.55 307.5 54.45 320.75 59.05 351.25 69.5 364.1 90.05 362.55 91.1 361.7 92.55 363.8 92.25 365.55 92.55 L366.4 94.05 Q365.1 99.1 359.45 113.2 L358.75 114.9 357.05 114.85 331.05 113.1 326.25 112.45 Q315.95 110.9 305.25 107.7 294.05 104.35 279.95 98.55 264.9 92.45 258.7 83.95 L257.75 82.5 Q256.15 79.85 255.8 77.4 255.5 75.0 256.4 73.15 255.55 77.2 261.0 82.35 267.45 88.45 281.05 94.0 305.8 104.4 325.25 105.55 337.7 106.25 349.25 102.95 345.15 99.15 337.65 94.7 342.4 96.3 344.05 96.5 346.3 96.8 348.6 94.75 350.8 92.8 352.2 89.6" fill="#b9d0d6" fill-rule="evenodd" stroke="none"/>
    <path d="M337.65 94.7 Q345.15 99.15 349.25 102.95 337.7 106.25 325.25 105.55 305.8 104.4 281.05 94.0 267.45 88.45 261.0 82.35 255.55 77.2 256.4 73.15 256.8 71.2 258.65 70.1 260.5 69.05 263.25 69.15 268.05 69.4 276.95 71.45 319.85 88.85 337.65 94.7" fill="#fffce6" fill-rule="evenodd" stroke="none"/>
    <path d="M314.3 70.15 Q314.5 69.65 313.9 69.5 313.35 69.3 313.2 69.8 313.0 70.25 313.6 70.45 314.15 70.65 314.3 70.15 M316.3 70.65 L316.6 71.15 316.95 71.2 Q314.9 73.25 311.7 73.25 L306.55 72.4 304.65 71.95 Q304.55 71.7 305.45 71.45 L308.15 71.55 Q306.45 70.35 305.25 67.75 304.25 67.6 303.8 68.1 L302.95 69.6 Q302.25 70.9 299.8 70.05 L300.55 69.9 Q301.25 69.55 301.3 68.0 301.3 66.95 302.0 66.45 302.55 66.0 303.35 66.05 302.75 65.5 302.6 64.8 302.4 63.95 303.0 63.15 304.0 61.95 303.7 61.2 L303.2 60.55 Q303.35 60.3 304.4 61.2 305.5 62.15 305.35 63.05 L305.05 64.75 Q305.05 65.45 305.95 66.05 307.6 65.15 309.65 65.05 310.0 63.95 308.5 63.05 L308.15 62.6 308.7 62.7 Q312.05 64.1 313.5 65.35 315.85 67.4 316.3 70.65" fill="#fffce6" fill-rule="evenodd" stroke="none"/>
    <path d="M319.1 72.05 Q320.7 68.35 318.75 64.6 316.75 60.8 312.35 59.1 307.85 57.35 303.7 58.75 299.5 60.2 298.15 63.95 296.9 67.75 299.05 71.6 301.15 75.45 305.45 77.1 309.6 78.7 313.6 77.2 317.55 75.75 319.1 72.05 M351.3 77.4 Q355.6 81.85 352.2 89.6 350.8 92.8 348.6 94.75 346.3 96.8 344.05 96.5 342.4 96.3 337.65 94.7 319.85 88.85 276.95 71.45 L270.95 69.0 Q267.2 67.45 270.75 61.75 272.5 58.9 275.0 56.35 298.5 50.4 325.4 61.8 334.55 65.65 342.8 71.0 348.95 75.0 351.3 77.4" fill="#fffce6" fill-rule="evenodd" stroke="none"/>
    <path d="M285.8 124.05 Q287.55 124.95 288.55 123.7 289.55 122.4 287.2 121.8 285.5 121.35 284.8 122.3 284.15 123.25 285.8 124.05 M281.6 122.8 Q282.7 119.3 288.0 120.75 290.3 121.4 291.3 123.35 292.2 125.15 291.6 127.0 291.0 128.85 289.2 129.4 287.15 130.0 284.35 128.4 280.45 126.2 281.6 122.8" fill="#e2b68d" fill-rule="evenodd" stroke="none"/>
    <path d="M285.8 124.05 Q284.15 123.25 284.8 122.3 285.5 121.35 287.2 121.8 289.55 122.4 288.55 123.7 287.55 124.95 285.8 124.05" fill="#ffe2c2" fill-rule="evenodd" stroke="none"/>
    <path d="M262.0 104.3 Q261.65 103.95 261.2 104.0 L260.5 104.45 Q260.2 104.9 260.25 105.45 L260.65 106.35 Q261.0 106.7 261.45 106.65 L262.2 106.2 Q262.5 105.75 262.4 105.2 L262.0 104.3 M265.1 103.45 Q266.35 104.5 266.55 106.15 266.7 107.8 265.65 109.1 264.6 110.4 262.95 110.55 261.3 110.75 260.0 109.7 258.7 108.65 258.55 106.95 258.35 105.3 259.4 104.0 260.45 102.7 262.15 102.55 263.8 102.35 265.1 103.45" fill="#33302f" fill-rule="evenodd" stroke="none"/>
    <path d="M261.45 106.65 Q261.0 106.7 260.65 106.35 L260.25 105.45 Q260.2 104.9 260.5 104.45 L261.2 104.0 Q261.65 103.95 262.0 104.3 L262.4 105.2 Q262.5 105.75 262.2 106.2 L261.45 106.65" fill="#ffffff" fill-rule="evenodd" stroke="none"/>
    <path d="M324.1 126.9 Q324.55 126.85 324.8 126.45 L325.05 125.45 324.65 124.55 Q324.3 124.2 323.85 124.25 323.4 124.3 323.15 124.7 322.85 125.15 322.9 125.7 323.0 126.25 323.3 126.6 323.65 127.0 324.1 126.9 M323.85 122.9 L324.7 122.7 326.45 122.95 Q327.55 123.35 328.25 124.2 329.0 125.15 329.1 126.3 329.3 128.0 328.2 129.3 327.15 130.55 325.5 130.75 323.85 130.9 322.55 129.85 321.25 128.8 321.1 127.15 320.95 125.7 321.75 124.5 322.5 123.3 323.85 122.9" fill="#33302f" fill-rule="evenodd" stroke="none"/>
    <path d="M323.85 124.25 Q324.3 124.2 324.65 124.55 L325.05 125.45 324.8 126.45 Q324.55 126.85 324.1 126.9 323.65 127.0 323.3 126.6 323.0 126.25 322.9 125.7 322.85 125.15 323.15 124.7 323.4 124.3 323.85 124.25" fill="#ffffff" fill-rule="evenodd" stroke="none"/>
    <path d="M252.9 118.8 Q247.15 117.0 249.2 114.15 251.2 111.3 255.15 112.3 258.05 113.0 259.45 114.55 260.7 115.9 260.25 117.3 259.8 118.65 257.9 119.15 L252.9 118.8" fill="#ffaeb2" fill-rule="evenodd" stroke="none"/>
    <path d="M320.65 135.9 Q321.8 135.0 323.75 134.9 325.8 134.75 327.4 135.65 330.0 137.05 330.9 139.0 331.75 140.7 330.9 142.05 330.1 143.45 328.15 143.55 326.0 143.65 323.4 142.0 317.65 138.35 320.65 135.9" fill="#ffaeb2" fill-rule="evenodd" stroke="none"/>
    <path d="M275.9 143.75 Q277.9 142.1 281.6 144.3 285.45 146.55 283.6 147.1 282.05 147.55 278.45 146.1 274.8 144.6 275.9 143.75" fill="#ca966f" fill-rule="evenodd" stroke="none"/>
    <path d="M277.35 130.55 L277.15 130.55 Q275.85 132.05 275.35 133.2 L287.75 137.45 274.95 134.65 Q274.6 138.35 282.3 140.45 288.05 142.0 290.85 140.45 292.75 139.4 293.65 136.5 293.05 135.3 286.05 133.1 L277.35 130.55 M272.85 127.15 Q273.25 125.75 275.25 125.6 276.75 125.45 276.7 126.0 276.65 126.6 275.7 126.8 274.9 127.0 275.05 127.6 275.15 128.2 276.35 128.7 281.15 129.9 287.45 132.1 295.8 135.05 296.55 136.55 295.5 141.0 292.8 142.25 288.3 144.3 277.6 140.15 273.2 138.45 272.75 135.6 272.3 133.05 274.95 129.85 272.4 128.65 272.85 127.15" fill="#ca966f" fill-rule="evenodd" stroke="none"/>
    <path d="M274.95 134.65 L287.75 137.45 275.35 133.2 Q275.85 132.05 277.15 130.55 L277.35 130.55 286.05 133.1 Q293.05 135.3 293.65 136.5 292.75 139.4 290.85 140.45 288.05 142.0 282.3 140.45 274.6 138.35 274.95 134.65" fill="#efebe2" fill-rule="evenodd" stroke="none"/>
    <path d="M121.45 244.95 Q117.0 240.5 110.75 240.5 104.45 240.5 100.0 244.95 95.55 249.35 95.55 255.65 95.55 261.9 100.0 266.35 104.45 270.8 110.75 270.8 117.0 270.8 121.45 266.35 125.9 261.9 125.9 255.65 125.9 249.35 121.45 244.95 M133.9 260.45 L133.9 260.8 Q133.9 269.65 127.65 275.9 121.4 282.15 112.55 282.15 104.25 282.15 98.15 276.55 92.1 271.0 91.35 262.8 L91.25 260.8 Q91.25 252.0 97.5 245.75 103.75 239.5 112.55 239.5 L113.0 239.5 Q116.5 239.6 119.65 240.7 125.9 242.9 129.8 248.25 133.8 253.7 133.9 260.45" fill="#a7bfc6" fill-rule="evenodd" stroke="none"/>
    <path d="M105.8 247.2 Q105.05 248.15 104.25 247.85 103.45 247.55 104.15 246.65 105.0 245.6 105.85 245.8 106.7 246.05 105.8 247.2" fill="#fffce6" fill-rule="evenodd" stroke="none"/>
    <path d="M99.05 253.15 Q99.05 251.65 100.0 251.25 100.9 250.9 100.9 252.5 100.9 253.9 100.0 254.2 99.1 254.45 99.05 253.15" fill="#fffce6" fill-rule="evenodd" stroke="none"/>
    <path d="M106.85 258.75 Q105.65 259.55 105.05 258.45 104.45 257.4 105.6 256.6 106.95 255.7 107.6 256.75 108.25 257.8 106.85 258.75" fill="#fffce6" fill-rule="evenodd" stroke="none"/>
    <path d="M110.1 243.35 L109.0 243.45 Q108.6 243.25 109.25 242.95 L110.45 242.75 Q110.9 242.95 110.1 243.35" fill="#fffce6" fill-rule="evenodd" stroke="none"/>
    <path d="M110.5 249.65 L112.35 249.75 Q112.95 250.7 111.65 251.55 110.6 252.3 110.05 251.3 109.45 250.35 110.5 249.65" fill="#fffce6" fill-rule="evenodd" stroke="none"/>
    <path d="M99.25 255.1 Q101.25 254.5 101.45 251.55 101.65 248.8 99.45 249.85 97.2 250.9 97.25 253.4 97.25 255.65 99.25 255.1 M102.75 245.8 Q101.55 247.4 103.25 248.1 104.95 248.8 106.7 246.85 108.35 245.05 106.25 244.55 104.1 244.05 102.75 245.8 M110.75 240.5 Q117.0 240.5 121.45 244.95 125.9 249.35 125.9 255.65 125.9 261.9 121.45 266.35 117.0 270.8 110.75 270.8 104.45 270.8 100.0 266.35 95.55 261.9 95.55 255.65 95.55 249.35 100.0 244.95 104.45 240.5 110.75 240.5 M107.55 258.75 Q110.05 257.45 108.3 255.05 106.5 252.6 104.35 254.1 102.4 255.45 103.65 257.8 104.9 260.15 107.55 258.75 M107.65 243.75 L111.25 243.5 Q113.4 242.6 111.65 242.0 109.9 241.35 108.05 242.25 106.35 243.05 107.65 243.75 M114.0 243.7 Q112.1 243.5 112.85 244.75 113.6 246.0 116.15 246.45 118.5 246.9 117.3 245.45 116.1 243.95 114.0 243.7 M113.25 248.4 Q111.7 246.2 109.7 247.55 107.95 248.75 109.05 250.85 110.2 253.0 112.6 251.75 114.85 250.55 113.25 248.4" fill="#fffce6" fill-rule="evenodd" stroke="none"/>
    <path d="M115.2 245.75 Q114.4 245.65 114.15 245.25 113.9 244.85 114.65 244.9 115.55 245.0 115.85 245.45 116.15 245.85 115.2 245.75" fill="#fffce6" fill-rule="evenodd" stroke="none"/>
    <path d="M111.65 251.55 Q112.95 250.7 112.35 249.75 L110.5 249.65 Q109.45 250.35 110.05 251.3 110.6 252.3 111.65 251.55 M109.7 247.55 Q111.7 246.2 113.25 248.4 114.85 250.55 112.6 251.75 110.2 253.0 109.05 250.85 107.95 248.75 109.7 247.55" fill="#a7bfc6" fill-rule="evenodd" stroke="none"/>
    <path d="M105.6 256.6 Q104.45 257.4 105.05 258.45 105.65 259.55 106.85 258.75 108.25 257.8 107.6 256.75 106.95 255.7 105.6 256.6 M108.3 255.05 Q110.05 257.45 107.55 258.75 104.9 260.15 103.65 257.8 102.4 255.45 104.35 254.1 106.5 252.6 108.3 255.05" fill="#a7bfc6" fill-rule="evenodd" stroke="none"/>
    <path d="M104.15 246.65 Q103.45 247.55 104.25 247.85 105.05 248.15 105.8 247.2 106.7 246.05 105.85 245.8 105.0 245.6 104.15 246.65 M106.7 246.85 Q104.95 248.8 103.25 248.1 101.55 247.4 102.75 245.8 104.1 244.05 106.25 244.55 108.35 245.05 106.7 246.85" fill="#a7bfc6" fill-rule="evenodd" stroke="none"/>
    <path d="M99.05 253.15 Q99.1 254.45 100.0 254.2 100.9 253.9 100.9 252.5 100.9 250.9 100.0 251.25 99.05 251.65 99.05 253.15 M101.45 251.55 Q101.25 254.5 99.25 255.1 97.25 255.65 97.25 253.4 97.2 250.9 99.45 249.85 101.65 248.8 101.45 251.55" fill="#a7bfc6" fill-rule="evenodd" stroke="none"/>
    <path d="M114.65 244.9 Q113.9 244.85 114.15 245.25 114.4 245.65 115.2 245.75 116.15 245.85 115.85 245.45 115.55 245.0 114.65 244.9 M116.15 246.45 Q113.6 246.0 112.85 244.75 112.1 243.5 114.0 243.7 116.1 243.95 117.3 245.45 118.5 246.9 116.15 246.45" fill="#a7bfc6" fill-rule="evenodd" stroke="none"/>
    <path d="M109.25 242.95 Q108.6 243.25 109.0 243.45 L110.1 243.35 Q110.9 242.95 110.45 242.75 L109.25 242.95 M111.25 243.5 L107.65 243.75 Q106.35 243.05 108.05 242.25 109.9 241.35 111.65 242.0 113.4 242.6 111.25 243.5" fill="#a7bfc6" fill-rule="evenodd" stroke="none"/>
    <path d="M221.4 195.55 Q223.6 194.55 225.05 194.85 227.8 195.55 227.65 198.1 227.5 200.35 225.25 203.25 223.1 206.05 220.3 207.8 217.3 209.65 215.25 209.15 209.9 207.85 213.15 202.65 216.1 197.95 221.4 195.55" fill="#ffd1a3" fill-rule="evenodd" stroke="none"/>
    <path d="M313.9 69.5 Q314.5 69.65 314.3 70.15 314.15 70.65 313.6 70.45 313.0 70.25 313.2 69.8 313.35 69.3 313.9 69.5" fill="#35c0e9" fill-rule="evenodd" stroke="none"/>
    <path d="M311.7 73.25 Q314.9 73.25 316.95 71.2 L316.6 71.15 316.3 70.65 Q315.85 67.4 313.5 65.35 312.05 64.1 308.7 62.7 L308.15 62.6 308.5 63.05 Q310.0 63.95 309.65 65.05 307.6 65.15 305.95 66.05 305.05 65.45 305.05 64.75 L305.35 63.05 Q305.5 62.15 304.4 61.2 303.35 60.3 303.2 60.55 L303.7 61.2 Q304.0 61.95 303.0 63.15 302.4 63.95 302.6 64.8 302.75 65.5 303.35 66.05 302.55 66.0 302.0 66.45 301.3 66.95 301.3 68.0 301.25 69.55 300.55 69.9 L299.8 70.05 Q302.25 70.9 302.95 69.6 L303.8 68.1 Q304.25 67.6 305.25 67.75 306.45 70.35 308.15 71.55 L305.45 71.45 Q304.55 71.7 304.65 71.95 L306.55 72.4 311.7 73.25 M312.35 59.1 Q316.75 60.8 318.75 64.6 320.7 68.35 319.1 72.05 317.55 75.75 313.6 77.2 309.6 78.7 305.45 77.1 301.15 75.45 299.05 71.6 296.9 67.75 298.15 63.95 299.5 60.2 303.7 58.75 307.85 57.35 312.35 59.1" fill="#35c0e9" fill-rule="evenodd" stroke="none"/>
    <path d="M246.55 154.8 L248.55 163.8 Q247.45 166.75 244.7 169.55 241.35 172.9 239.55 170.5 238.55 169.1 236.9 168.05 L235.45 167.25 232.95 166.35 231.9 166.15 238.65 160.5 Q244.3 155.95 246.55 154.8" fill="#dd7928" fill-rule="evenodd" stroke="none"/>
    <path d="M169.5 237.5 L172.7 234.95 193.15 220.8 193.95 222.15 Q194.55 223.65 193.5 224.5 175.5 238.8 171.15 240.8 168.2 242.2 167.9 240.6 167.65 239.15 169.5 237.5" fill="#b7681a" fill-rule="evenodd" stroke="none"/>
    <path d="M242.5 185.8 Q244.55 184.35 244.4 185.6 L243.8 187.15 Q236.5 192.8 232.8 195.15 L230.8 195.2 Q231.3 193.7 232.8 192.5 L242.5 185.8" fill="#b7681a" fill-rule="evenodd" stroke="none"/>
    <path d="M372.5 115.35 Q375.9 114.8 380.15 117.35 383.95 119.6 387.2 123.45 391.6 128.6 391.5 131.65 391.5 134.85 390.05 137.15 388.05 140.25 385.35 139.55 382.45 138.8 381.4 133.9 380.15 127.95 379.05 125.1 376.75 119.2 372.5 115.35" fill="#fffce6" fill-rule="evenodd" stroke="none"/>
    <path d="M364.1 90.05 Q367.9 87.45 374.35 87.15 380.5 86.8 382.75 88.65 384.75 90.3 385.15 92.65 385.5 94.85 384.4 96.75 381.75 101.3 376.4 98.55 L371.75 95.25 Q368.5 93.0 365.55 92.55 363.8 92.25 361.7 92.55 362.55 91.1 364.1 90.05" fill="#fffce6" fill-rule="evenodd" stroke="none"/>
    <path d="M202.05 30.6 Q215.8 32.45 224.3 40.95 211.7 42.95 207.6 44.05 196.1 47.1 190.3 52.7 188.05 52.8 185.3 51.45 182.4 50.1 180.55 47.85 175.8 42.1 181.3 35.95 187.9 28.65 202.05 30.6" fill="#fffce6" fill-rule="evenodd" stroke="none"/>
    <path d="M233.95 18.25 Q238.7 24.3 237.4 30.8 234.25 24.05 224.65 22.05 L218.0 20.75 Q214.9 20.0 214.1 18.45 212.25 14.8 215.75 12.25 219.3 9.7 224.25 11.2 229.8 12.9 233.95 18.25" fill="#fffce6" fill-rule="evenodd" stroke="none"/>
    <path d="M204.3 70.95 Q200.85 69.2 202.2 65.9 203.35 63.1 207.55 59.9 211.3 57.0 215.25 55.45 219.3 53.8 220.3 54.95 218.85 56.7 217.1 60.7 L214.2 67.1 Q210.4 74.0 204.3 70.95" fill="#fffce6" fill-rule="evenodd" stroke="none"/>
    <path d="M47.9 131.3 L56.95 125.4 59.35 126.3 Q64.5 131.05 75.75 136.95 86.85 142.8 88.5 141.75 L88.55 141.65 Q87.95 149.85 87.0 157.6 L86.9 158.45 Q85.95 166.2 84.9 170.5 L85.05 173.3 Q85.6 181.6 86.9 189.7 L84.6 189.0 Q84.05 187.1 83.1 185.65 80.3 181.65 75.6 180.7 73.35 180.1 70.45 180.8 L69.65 181.15 Q68.35 181.65 67.4 182.25 L66.55 183.4 66.15 183.3 67.8 168.65 68.1 165.05 Q67.9 168.75 73.6 170.3 79.4 171.85 80.9 168.5 82.15 165.75 84.05 154.7 L85.7 144.15 Q79.9 141.85 73.4 138.55 60.3 131.95 56.55 127.0 53.5 127.85 47.9 131.3" fill="#59b2aa" fill-rule="evenodd" stroke="none"/>
    <path d="M56.05 135.95 L54.95 134.15 69.3 145.75 77.3 147.35 74.2 147.9 Q71.0 148.8 70.5 150.55 69.85 152.85 69.15 156.85 L68.5 161.25 68.9 157.05 Q69.25 153.15 68.5 150.95 L67.65 148.9 65.1 145.05 63.75 143.35 59.55 145.3 Q47.5 151.0 43.35 153.35 L38.75 159.2 Q34.05 165.3 30.75 170.3 30.85 168.75 30.3 166.95 29.95 165.75 28.3 163.75 26.5 161.55 24.35 159.85 22.35 157.8 19.65 157.05 17.25 156.3 15.55 157.05 L20.1 152.45 28.25 144.8 Q26.6 146.6 26.75 148.25 26.95 150.1 29.4 151.35 34.05 153.7 57.75 140.15 57.25 138.15 56.05 135.95" fill="#59b2aa" fill-rule="evenodd" stroke="none"/>
    <path d="M39.15 137.0 L39.25 136.95 Q43.6 134.0 46.9 131.95 53.25 127.95 56.55 127.0 60.3 131.95 73.4 138.55 79.9 141.85 85.7 144.15 L84.05 154.7 Q82.15 165.75 80.9 168.5 79.4 171.85 73.6 170.3 67.8 168.75 68.1 164.9 68.4 161.25 69.15 156.85 69.85 152.85 70.5 150.55 71.0 148.8 74.2 147.9 L77.3 147.35 69.3 145.75 54.95 134.15 56.05 135.95 Q57.25 138.15 57.75 140.15 34.05 153.7 29.4 151.35 26.95 150.1 26.75 148.25 26.6 146.6 28.25 144.8 29.25 143.6 31.0 142.55 L39.15 137.0" fill="#71d3cc" fill-rule="evenodd" stroke="none"/>
    <path d="M64.15 187.9 Q64.8 186.0 66.55 183.4 L67.4 182.25 Q68.35 181.65 69.65 181.15 65.75 183.2 65.75 186.4 65.75 190.4 74.85 191.0 80.6 191.35 80.6 186.7 80.55 182.1 75.6 180.7 80.3 181.65 83.1 185.65 84.05 187.1 84.6 189.0 85.35 191.55 85.0 193.5 84.6 195.6 83.1 195.85 81.15 196.2 74.45 194.4 69.05 192.95 65.1 191.5 63.15 190.8 64.15 187.9" fill="#bccecc" fill-rule="evenodd" stroke="none"/>
    <path d="M69.65 181.15 L70.45 180.8 Q73.35 180.1 75.6 180.7 80.55 182.1 80.6 186.7 80.6 191.35 74.85 191.0 65.75 190.4 65.75 186.4 65.75 183.2 69.65 181.15" fill="#e2e8e7" fill-rule="evenodd" stroke="none"/>
    <path d="M30.3 166.95 Q30.85 168.75 30.75 170.3 30.6 173.4 27.8 173.85 25.65 174.2 17.65 171.1 9.7 168.0 8.55 166.45 7.5 165.05 10.1 161.65 12.65 158.4 15.5 157.1 L15.55 157.05 Q17.25 156.3 19.65 157.05 16.5 156.3 14.6 157.75 11.95 159.75 12.1 161.95 12.3 164.55 16.45 166.95 21.5 169.85 25.1 169.05 29.1 168.2 26.6 162.9 25.8 161.2 24.35 159.85 26.5 161.55 28.3 163.75 29.95 165.75 30.3 166.95" fill="#bccecc" fill-rule="evenodd" stroke="none"/>
    <path d="M14.6 157.75 Q16.5 156.3 19.65 157.05 22.35 157.8 24.35 159.85 25.8 161.2 26.6 162.9 29.1 168.2 25.1 169.05 21.5 169.85 16.45 166.95 12.3 164.55 12.1 161.95 11.95 159.75 14.6 157.75" fill="#e2e8e7" fill-rule="evenodd" stroke="none"/>
    <path d="M50.55 65.1 L52.55 62.85 58.55 67.5 Q58.85 66.5 59.8 65.8 60.75 65.05 61.75 65.1 65.65 65.4 65.45 67.15 65.25 68.9 61.35 69.5 L61.15 69.5 61.55 69.8 58.15 70.25 56.55 70.3 55.2 73.95 Q53.75 78.3 53.35 82.05 56.2 83.0 61.25 83.75 L62.25 83.85 60.6 92.75 Q49.0 89.65 43.95 85.2 L43.75 85.05 43.75 84.15 Q43.95 80.95 47.25 72.7 L50.55 65.1" fill="#cea58e" fill-rule="evenodd" stroke="none"/>
    <path d="M130.0 115.0 L127.9 114.95 127.7 114.75 Q129.1 114.25 130.4 115.0 131.75 115.85 132.45 117.95 L132.55 118.35 Q133.25 120.95 133.1 124.8 132.95 128.9 131.85 132.55 L130.2 136.55 Q128.25 140.3 125.2 141.45 123.75 142.0 121.85 141.5 116.0 136.35 117.05 133.75 117.7 132.2 120.85 130.2 123.95 128.2 124.8 126.0 125.85 123.4 126.7 119.2 128.55 117.75 128.45 115.6 L130.0 115.0" fill="#7e8786" fill-rule="evenodd" stroke="none"/>
    <path d="M124.65 119.6 L125.05 118.4 126.4 119.4 126.7 119.2 Q125.85 123.4 124.8 126.0 123.95 128.2 120.85 130.2 117.7 132.2 117.05 133.75 116.0 136.35 121.85 141.5 L122.45 141.95 120.0 140.65 119.95 140.6 Q117.15 139.0 115.6 137.25 113.45 134.95 114.25 133.0 115.05 131.0 116.75 129.4 L119.85 127.1 122.25 125.2 Q123.0 124.35 123.65 122.7 L124.65 119.6" fill="#bfc1c1" fill-rule="evenodd" stroke="none"/>
    <path d="M127.9 114.95 L130.0 115.0 128.45 115.6 128.4 115.4 127.9 114.95" fill="#bfc1c1" fill-rule="evenodd" stroke="none"/>
    <path d="M117.1 112.3 L117.15 112.05 123.1 110.9 128.4 115.4 128.45 115.6 Q128.55 117.75 126.7 119.2 L126.4 119.4 125.05 118.4 124.95 118.3 117.1 112.3" fill="#704311" fill-rule="evenodd" stroke="none"/>
    <path d="M65.75 65.1 L66.15 64.9 66.2 64.95 72.75 70.2 Q72.35 73.45 73.75 75.4 75.4 77.65 78.9 76.65 L79.05 76.45 79.9 81.05 Q80.05 81.85 80.75 83.05 L77.65 82.15 61.15 69.5 61.35 69.5 Q65.25 68.9 65.45 67.15 65.6 65.9 63.6 65.4 L65.75 65.1 M49.8 51.85 L57.0 57.55 Q56.4 59.85 59.3 62.9 61.0 64.7 62.75 65.2 L61.75 65.1 Q60.75 65.05 59.8 65.8 58.85 66.5 58.55 67.5 L40.8 53.8 40.35 53.3 Q39.1 51.45 41.05 49.1 43.0 46.75 44.8 47.95 L49.8 51.85" fill="#704311" fill-rule="evenodd" stroke="none"/>
    <path d="M114.7 112.55 L114.25 112.6 114.3 112.45 114.7 112.55" fill="#cea58e" fill-rule="evenodd" stroke="none"/>
    <path d="M150.8 85.65 Q154.75 86.3 156.8 85.1 158.55 84.05 158.55 82.05 158.55 80.95 156.75 79.95 155.15 79.0 152.85 78.6 161.2 79.5 159.2 86.25 158.2 89.65 155.55 92.85 144.8 103.05 138.2 107.8 L123.1 110.9 117.15 112.05 120.5 99.7 137.0 97.65 148.4 90.45 147.5 87.4 Q146.6 83.9 146.9 81.7 146.75 83.1 147.6 84.1 148.6 85.3 150.8 85.65" fill="#cea58e" fill-rule="evenodd" stroke="none"/>
    <path d="M95.3 113.8 Q97.25 109.1 95.25 104.5 93.25 99.9 88.4 98.0 83.45 96.05 78.7 98.05 73.9 100.0 72.2 104.8 70.55 109.65 72.75 114.35 74.95 119.1 79.65 120.9 84.25 122.65 88.85 120.6 93.4 118.5 95.3 113.8 M59.35 126.3 L57.35 124.0 Q57.9 122.15 63.8 110.0 L69.6 98.25 60.05 95.85 62.45 82.95 67.95 82.5 76.8 82.05 77.65 82.15 80.75 83.05 Q82.9 86.65 88.45 91.6 L88.2 92.25 Q89.25 95.35 91.05 96.3 L93.8 96.65 96.25 96.15 96.35 96.05 104.75 97.35 110.45 97.85 Q111.45 97.85 113.55 96.15 L116.0 96.6 Q118.0 98.85 121.1 97.45 L116.95 112.9 114.7 112.55 114.3 112.45 104.65 110.8 103.1 114.0 Q91.75 137.65 88.55 141.65 L88.5 141.75 Q86.85 142.8 75.75 136.95 64.5 131.05 59.35 126.3" fill="#ba3524" fill-rule="evenodd" stroke="none"/>
    <path d="M88.75 111.3 Q88.55 111.9 89.2 112.1 L89.7 112.1 90.0 111.7 Q90.2 111.05 89.6 110.9 89.05 110.65 88.75 111.3 M92.2 112.25 Q92.25 113.0 92.9 112.85 90.5 115.55 86.9 115.7 85.05 115.8 81.2 114.95 L79.05 114.5 Q78.95 114.2 80.0 113.8 L83.0 113.75 Q81.15 112.4 79.95 109.15 78.8 109.1 78.3 109.75 L77.25 111.65 Q76.4 113.3 73.7 112.4 L74.55 112.15 Q75.4 111.65 75.5 109.7 75.55 108.4 76.4 107.75 77.05 107.2 77.95 107.15 77.3 106.55 77.15 105.65 76.95 104.6 77.7 103.55 78.9 102.0 78.55 101.1 L78.05 100.3 Q78.2 99.95 79.35 101.05 80.6 102.15 80.35 103.35 L79.9 105.45 Q79.85 106.3 80.8 107.05 82.75 105.8 85.05 105.55 85.5 104.25 83.9 103.1 83.45 102.75 83.5 102.6 L84.1 102.65 Q87.8 104.25 89.4 105.75 91.95 108.15 92.2 112.25" fill="#ba3524" fill-rule="evenodd" stroke="none"/>
    <path d="M92.9 112.85 Q92.25 113.0 92.2 112.25 91.95 108.15 89.4 105.75 87.8 104.25 84.1 102.65 L83.5 102.6 Q83.45 102.75 83.9 103.1 85.5 104.25 85.05 105.55 82.75 105.8 80.8 107.05 79.85 106.3 79.9 105.45 L80.35 103.35 Q80.6 102.15 79.35 101.05 78.2 99.95 78.05 100.3 L78.55 101.1 Q78.9 102.0 77.7 103.55 76.95 104.6 77.15 105.65 77.3 106.55 77.95 107.15 77.05 107.2 76.4 107.75 75.55 108.4 75.5 109.7 75.4 111.65 74.55 112.15 L73.7 112.4 Q76.4 113.3 77.25 111.65 L78.3 109.75 Q78.8 109.1 79.95 109.15 81.15 112.4 83.0 113.75 L80.0 113.8 Q78.95 114.2 79.05 114.5 L81.2 114.95 Q85.05 115.8 86.9 115.7 90.5 115.55 92.9 112.85 M95.25 104.5 Q97.25 109.1 95.3 113.8 93.4 118.5 88.85 120.6 84.25 122.65 79.65 120.9 74.95 119.1 72.75 114.35 70.55 109.65 72.2 104.8 73.9 100.0 78.7 98.05 83.45 96.05 88.4 98.0 93.25 99.9 95.25 104.5" fill="#e2e8e7" fill-rule="evenodd" stroke="none"/>
    <path d="M89.6 110.9 Q90.2 111.05 90.0 111.7 L89.7 112.1 89.2 112.1 Q88.55 111.9 88.75 111.3 89.05 110.65 89.6 110.9" fill="#e2e8e7" fill-rule="evenodd" stroke="none"/>
    <path d="M119.05 41.95 L126.6 49.8 Q134.25 58.35 134.6 61.7 135.05 65.95 132.2 75.95 L129.2 85.05 124.95 88.75 Q123.7 88.0 121.45 88.35 124.15 83.05 125.8 76.55 127.8 68.5 126.4 64.3 125.1 62.3 118.3 62.1 110.65 61.9 109.25 61.1 108.25 60.55 103.55 54.7 99.55 49.75 96.1 49.5 94.6 50.0 91.85 52.6 88.75 55.55 86.1 59.25 81.6 64.7 79.65 67.55 78.65 66.0 77.6 65.35 L78.3 62.3 Q80.0 57.55 82.55 52.5 87.65 42.5 92.1 41.35 L108.95 40.75 119.05 41.95" fill="#775b43" fill-rule="evenodd" stroke="none"/>
    <path d="M78.9 76.65 Q75.4 77.65 73.75 75.4 72.35 73.45 72.75 70.2 73.1 67.45 74.4 65.95 75.85 64.3 77.6 65.35 78.65 66.0 79.65 67.55 81.6 64.7 86.1 59.25 82.95 63.8 81.5 68.25 79.75 73.5 80.7 78.05 81.3 81.05 84.0 84.0 86.45 86.7 90.25 88.9 L88.45 91.6 Q82.9 86.65 80.75 83.05 80.05 81.85 79.9 81.05 L79.05 76.45 78.9 76.65" fill="#cea58e" fill-rule="evenodd" stroke="none"/>
    <path d="M124.45 76.85 Q127.4 69.7 126.7 65.5 127.55 69.55 125.8 76.55 124.15 83.05 121.45 88.35 123.7 88.0 124.95 88.75 126.9 89.9 125.35 93.05 123.9 96.1 121.1 97.45 118.0 98.85 116.0 96.6 L114.95 95.05 113.55 96.15 Q111.45 97.85 110.45 97.85 L104.75 97.35 96.35 96.05 Q97.55 94.45 98.2 92.3 103.15 93.75 107.25 93.45 110.4 93.25 113.55 91.2 115.25 90.9 115.65 89.85 L115.1 90.05 Q120.9 85.45 124.45 76.85" fill="#cea58e" fill-rule="evenodd" stroke="none"/>
    <path d="M96.3 80.3 Q95.65 81.25 96.6 81.8 L98.7 81.85 Q99.5 81.15 97.6 79.8 96.9 79.3 96.3 80.3 M96.4 83.6 Q93.4 82.1 92.45 80.9 91.15 82.9 96.35 85.4 101.55 87.85 102.85 86.55 L106.65 81.65 Q110.05 77.3 111.4 76.65 L107.35 76.8 Q102.4 83.85 100.75 84.6 99.6 85.1 96.4 83.6 M86.1 67.7 Q85.2 68.65 85.2 69.95 85.2 71.25 86.1 72.15 87.05 73.1 88.35 73.1 89.65 73.1 90.6 72.15 91.5 71.25 91.5 69.95 91.5 68.65 90.6 67.7 89.65 66.8 88.35 66.8 87.05 66.8 86.1 67.7 M86.4 61.4 L85.1 63.3 96.45 69.5 98.65 66.35 86.4 61.4 M114.1 84.3 Q115.4 84.25 116.3 83.25 117.15 82.3 117.1 81.0 117.05 79.7 116.05 78.85 115.1 78.0 113.8 78.05 112.5 78.1 111.6 79.05 110.75 80.0 110.8 81.3 110.9 82.6 111.85 83.5 112.8 84.4 114.1 84.3 M110.2 71.45 L108.7 74.9 122.05 78.75 122.2 76.35 110.2 71.45 M109.25 61.1 Q110.65 61.9 118.3 62.1 125.1 62.3 126.4 64.3 127.85 68.65 124.45 76.85 120.9 85.45 115.1 90.05 108.9 92.35 95.0 85.9 81.05 79.4 81.9 74.5 79.95 76.35 83.35 79.55 86.35 82.4 92.5 85.45 106.85 92.5 113.55 91.2 110.4 93.25 107.25 93.45 103.15 93.75 98.2 92.3 L98.35 91.8 90.75 88.35 90.25 88.9 Q86.45 86.7 84.0 84.0 81.3 81.05 80.7 78.05 79.75 73.5 81.5 68.25 82.95 63.8 86.1 59.25 88.75 55.55 91.85 52.6 94.6 50.0 96.1 49.5 99.55 49.75 103.55 54.7 108.25 60.55 109.25 61.1" fill="#edc4a9" fill-rule="evenodd" stroke="none"/>
    <path d="M92.45 80.9 Q93.4 82.1 96.4 83.6 99.6 85.1 100.75 84.6 102.4 83.85 107.35 76.8 L111.4 76.65 Q110.05 77.3 106.65 81.65 L102.85 86.55 Q101.55 87.85 96.35 85.4 91.15 82.9 92.45 80.9" fill="#cea58e" fill-rule="evenodd" stroke="none"/>
    <path d="M98.65 66.35 L96.45 69.5 85.1 63.3 86.4 61.4 98.65 66.35" fill="#715233" fill-rule="evenodd" stroke="none"/>
    <path d="M122.2 76.35 L122.05 78.75 108.7 74.9 110.2 71.45 122.2 76.35" fill="#715233" fill-rule="evenodd" stroke="none"/>
    <path d="M89.7 68.7 L89.4 68.0 Q89.1 67.7 88.7 67.7 88.3 67.7 88.0 68.0 87.7 68.3 87.7 68.7 87.7 69.1 88.0 69.4 88.3 69.7 88.7 69.7 L89.4 69.4 89.7 68.7 M86.1 72.15 Q85.2 71.25 85.2 69.95 85.2 68.65 86.1 67.7 87.05 66.8 88.35 66.8 89.65 66.8 90.6 67.7 91.5 68.65 91.5 69.95 91.5 71.25 90.6 72.15 89.65 73.1 88.35 73.1 87.05 73.1 86.1 72.15" fill="#272525" fill-rule="evenodd" stroke="none"/>
    <path d="M88.7 67.7 Q89.1 67.7 89.4 68.0 L89.7 68.7 89.4 69.4 88.7 69.7 Q88.3 69.7 88.0 69.4 87.7 69.1 87.7 68.7 87.7 68.3 88.0 68.0 88.3 67.7 88.7 67.7" fill="#ffffff" fill-rule="evenodd" stroke="none"/>
    <path d="M114.3 80.9 L115.0 80.6 115.25 79.85 114.95 79.15 Q114.6 78.85 114.2 78.9 113.8 78.9 113.5 79.2 113.2 79.55 113.25 79.95 113.25 80.35 113.55 80.65 113.9 80.95 114.3 80.9 M116.05 78.85 Q117.05 79.7 117.1 81.0 117.15 82.3 116.3 83.25 115.4 84.25 114.1 84.3 112.8 84.4 111.85 83.5 110.9 82.6 110.8 81.3 110.75 80.0 111.6 79.05 112.5 78.1 113.8 78.05 115.1 78.0 116.05 78.85" fill="#272525" fill-rule="evenodd" stroke="none"/>
    <path d="M114.2 78.9 Q114.6 78.85 114.95 79.15 L115.25 79.85 115.0 80.6 114.3 80.9 Q113.9 80.95 113.55 80.65 113.25 80.35 113.25 79.95 113.2 79.55 113.5 79.2 113.8 78.9 114.2 78.9" fill="#ffffff" fill-rule="evenodd" stroke="none"/>
    <path d="M97.6 79.8 Q99.5 81.15 98.7 81.85 L96.6 81.8 Q95.65 81.25 96.3 80.3 96.9 79.3 97.6 79.8" fill="#ffd8bd" fill-rule="evenodd" stroke="none"/>
    <path d="M115.1 90.05 L115.65 89.85 Q115.25 90.9 113.55 91.2 106.85 92.5 92.5 85.45 86.35 82.4 83.35 79.55 79.95 76.35 81.9 74.5 81.05 79.4 95.0 85.9 108.9 92.35 115.1 90.05" fill="#715233" fill-rule="evenodd" stroke="none"/>
    <path d="M90.25 88.9 L90.75 88.35 98.35 91.8 98.2 92.3 Q97.55 94.45 96.35 96.05 L96.25 96.15 93.8 96.65 91.05 96.3 Q89.25 95.35 88.2 92.25 L88.45 91.6 90.25 88.9" fill="#272525" fill-rule="evenodd" stroke="none"/>
    <path d="M57.75 56.7 L60.8 56.3 Q65.25 56.5 67.55 59.85 69.9 63.25 66.2 64.9 L66.15 64.9 65.75 65.1 Q62.4 66.25 59.3 62.9 56.4 59.85 57.0 57.55 57.15 56.9 57.75 56.7" fill="#edc4a9" fill-rule="evenodd" stroke="none"/>
    <path d="M148.3 79.0 L148.7 78.75 149.85 78.5 152.85 78.6 Q155.15 79.0 156.75 79.95 158.55 80.95 158.55 82.05 158.55 84.05 156.8 85.1 154.75 86.3 150.8 85.65 148.6 85.3 147.6 84.1 146.75 83.1 146.9 81.7 L147.1 80.8 147.2 80.5 Q147.6 79.45 148.3 79.0" fill="#edc4a9" fill-rule="evenodd" stroke="none"/>
  </g>
  <defs>
    <linearGradient gradientTransform="matrix(0.1159, -0.2485, -0.2485, -0.1159, 209.95, 150.0)" gradientUnits="userSpaceOnUse" id="gradient0" spreadMethod="pad" x1="-819.2" x2="819.2">
      <stop offset="0.403921568627451" stop-color="#fffacd"/>
      <stop offset="0.7568627450980392" stop-color="#55aee7"/>
    </linearGradient>
  </defs>
</svg>
