<?xml version="1.0" encoding="UTF-8" standalone="no"?>
<svg xmlns:ffdec="https://www.free-decompiler.com/flash" xmlns:xlink="http://www.w3.org/1999/xlink" ffdec:objectType="shape" height="130.0px" width="200.0px" xmlns="http://www.w3.org/2000/svg">
  <g transform="matrix(1.0, 0.0, 0.0, 1.0, 100.0, 130.0)">
    <path d="M43.05 -70.65 L42.9 -70.5 Q39.95 -67.6 38.95 -68.0 37.85 -68.45 37.9 -70.85 38.0 -72.9 38.8 -75.3 L35.2 -71.7 Q35.45 -65.05 36.05 -57.95 36.75 -49.25 37.8 -41.85 L45.0 -41.7 48.6 -41.35 48.1 -47.05 Q46.65 -60.4 43.05 -70.65 M47.75 -127.8 Q53.8 -124.2 53.65 -120.1 53.6 -117.55 50.9 -115.45 48.55 -113.6 44.7 -112.5 49.0 -111.25 51.75 -109.3 54.95 -106.95 55.0 -104.25 55.15 -100.05 49.6 -95.75 47.25 -93.95 45.05 -93.25 L41.45 -93.4 Q38.5 -95.5 37.4 -101.2 36.9 -103.8 36.9 -106.45 35.0 -93.5 35.1 -78.4 L36.1 -78.5 Q37.6 -78.5 38.9 -77.65 39.2 -81.95 41.55 -84.15 42.9 -85.45 45.25 -84.9 47.6 -84.3 47.15 -82.4 46.6 -80.1 42.35 -77.3 L45.2 -77.05 Q46.4 -76.6 46.2 -75.35 45.9 -73.85 44.05 -71.75 47.45 -64.75 49.6 -51.05 L50.95 -41.05 54.75 -40.35 Q55.75 -47.6 57.15 -55.3 60.25 -71.65 64.25 -81.45 63.0 -80.2 61.4 -79.25 58.1 -77.25 55.2 -78.0 52.55 -78.65 50.75 -83.9 48.95 -89.25 51.0 -91.2 L56.45 -91.4 Q59.85 -90.35 63.7 -87.9 61.95 -91.15 61.4 -93.65 60.75 -96.6 62.15 -97.9 63.7 -99.35 69.5 -96.75 75.4 -94.05 76.5 -90.9 77.25 -88.95 75.65 -87.3 74.3 -85.9 71.6 -85.0 75.4 -84.1 78.2 -82.6 81.45 -80.9 82.35 -78.8 83.7 -75.6 80.5 -72.25 77.35 -68.95 74.65 -70.35 71.7 -71.9 69.15 -76.2 67.6 -78.9 66.7 -81.55 61.65 -67.45 59.15 -49.35 58.4 -44.15 58.0 -39.55 L60.8 -38.65 61.1 -39.5 Q64.1 -47.1 66.95 -50.75 66.1 -52.2 66.15 -53.1 66.15 -53.8 66.95 -53.95 L68.65 -53.75 Q66.5 -55.8 66.45 -57.25 66.45 -58.4 67.85 -58.45 69.3 -58.5 69.95 -57.6 71.0 -56.05 70.65 -53.55 L72.4 -53.7 Q73.45 -53.45 74.05 -52.55 74.9 -51.35 75.0 -49.4 75.05 -47.4 74.35 -47.6 73.55 -47.85 72.35 -49.3 L70.45 -52.15 Q70.6 -50.65 70.35 -49.45 70.15 -48.1 69.45 -47.95 68.8 -47.9 67.45 -49.9 L67.4 -50.0 Q64.3 -45.0 61.95 -38.25 66.9 -36.4 71.05 -33.55 L71.35 -33.35 100.0 -33.35 100.0 0.0 -100.0 0.0 -100.0 -33.35 -42.05 -33.35 Q-28.5 -36.7 -18.35 -36.7 L-13.1 -36.6 Q-16.95 -42.7 -21.05 -46.85 L-21.1 -46.75 Q-21.9 -44.5 -22.55 -44.45 -23.25 -44.4 -23.8 -45.7 -24.3 -46.8 -24.45 -48.25 L-25.65 -45.1 Q-26.5 -43.4 -27.2 -42.95 -27.85 -42.6 -28.2 -44.55 -28.55 -46.45 -28.0 -47.85 -27.65 -48.9 -26.65 -49.3 L-24.95 -49.55 Q-25.85 -51.9 -25.2 -53.65 -24.8 -54.7 -23.4 -54.95 -22.0 -55.25 -21.75 -54.1 -21.45 -52.75 -23.1 -50.25 L-21.5 -50.8 Q-20.75 -50.85 -20.55 -50.15 -20.3 -49.3 -20.8 -47.7 -17.25 -44.8 -12.65 -38.05 L-11.65 -36.55 -4.5 -36.1 Q-4.85 -39.75 -5.7 -44.1 -7.55 -54.15 -11.15 -61.9 -10.95 -60.2 -11.0 -58.5 -11.15 -55.15 -12.65 -53.75 -14.05 -52.45 -17.5 -54.65 -21.05 -56.9 -21.35 -59.45 -21.5 -61.3 -19.35 -63.1 -17.5 -64.6 -14.8 -65.45 -17.2 -66.4 -18.75 -67.65 -20.55 -69.15 -20.75 -70.85 -20.9 -72.75 -17.35 -74.8 -13.7 -76.85 -11.6 -75.6 -10.25 -74.8 -9.95 -72.75 -9.75 -71.0 -10.25 -68.7 -8.4 -70.55 -6.55 -71.4 -4.4 -72.35 -2.95 -71.65 -0.7 -70.45 -0.1 -66.3 0.45 -62.2 -1.3 -61.4 L-6.5 -61.55 Q-8.55 -62.25 -10.35 -63.4 -6.95 -57.9 -4.35 -47.45 -2.8 -41.4 -1.95 -35.85 L4.15 -35.0 5.5 -34.75 4.15 -49.55 Q1.7 -70.85 -3.25 -87.5 -3.6 -85.4 -4.55 -83.45 -6.3 -79.7 -9.55 -78.55 -12.5 -77.5 -17.75 -80.9 -23.1 -84.35 -22.45 -87.3 -22.0 -89.4 -17.45 -90.8 -13.55 -92.0 -8.25 -92.25 -12.1 -93.95 -14.25 -95.75 -16.9 -97.9 -16.5 -99.85 -16.0 -102.05 -8.75 -103.35 -1.35 -104.7 1.8 -102.7 3.8 -101.5 3.45 -99.1 3.15 -97.05 1.2 -94.65 5.45 -96.2 9.0 -96.65 13.25 -97.2 15.5 -95.9 18.95 -94.0 18.2 -89.2 17.95 -87.15 16.8 -85.75 15.65 -84.2 14.0 -84.0 10.15 -83.5 4.8 -85.6 1.4 -86.95 -1.3 -88.75 3.0 -76.95 6.15 -56.6 8.0 -44.95 9.1 -34.05 L11.65 -33.35 13.35 -34.9 Q15.7 -36.7 18.95 -38.15 L21.3 -39.05 21.3 -42.2 Q21.3 -53.1 18.85 -61.85 L18.1 -59.3 Q17.05 -57.1 15.3 -56.45 13.6 -55.85 10.8 -58.0 8.0 -60.2 8.4 -61.95 8.65 -63.25 11.2 -64.0 13.35 -64.65 16.2 -64.75 14.15 -65.8 13.0 -66.95 11.6 -68.3 11.85 -69.5 12.15 -70.8 16.15 -71.5 20.2 -72.15 21.95 -70.9 23.0 -70.1 22.75 -68.7 22.5 -67.45 21.45 -66.0 23.7 -66.9 25.75 -67.1 28.05 -67.35 29.25 -66.55 31.1 -65.3 30.65 -62.45 30.15 -59.6 28.2 -59.35 26.15 -59.1 23.25 -60.5 21.5 -61.3 20.1 -62.4 22.55 -56.25 23.2 -45.25 L23.45 -39.8 Q28.1 -41.2 33.65 -41.65 32.55 -52.85 32.05 -64.95 L31.9 -69.45 30.7 -69.1 Q29.4 -69.0 30.25 -72.2 30.85 -74.35 31.85 -75.85 31.75 -97.75 35.4 -109.25 32.6 -106.9 29.3 -105.25 24.25 -102.7 21.0 -103.75 19.6 -104.2 18.85 -106.45 18.2 -108.6 18.35 -111.6 18.7 -118.55 22.2 -121.05 24.75 -122.85 29.05 -121.15 32.75 -119.75 36.3 -116.45 35.7 -120.7 36.25 -123.95 36.9 -127.85 39.25 -129.5 40.45 -130.35 42.9 -129.8 45.25 -129.3 47.75 -127.8" fill="#fbb81e" fill-rule="evenodd" stroke="none"/>
  </g>
</svg>
