<?xml version="1.0" encoding="UTF-8" standalone="no"?>
<svg xmlns:ffdec="https://www.free-decompiler.com/flash" xmlns:xlink="http://www.w3.org/1999/xlink" ffdec:objectType="shape" height="77.85px" width="200.0px" xmlns="http://www.w3.org/2000/svg">
  <g transform="matrix(1.0, 0.0, 0.0, 1.0, 100.0, 77.85)">
    <path d="M42.05 -63.75 L62.4 -73.55 71.8 -63.35 78.45 -75.1 98.05 -77.85 83.95 -67.65 80.4 -61.0 96.1 -61.0 100.0 -43.4 89.4 -53.95 82.0 -53.2 89.4 -44.95 86.3 -30.5 81.65 -39.05 76.6 -34.7 75.1 -30.95 84.55 -32.6 86.35 -28.7 88.25 -29.25 100.0 -23.4 100.0 0.0 -100.0 0.0 -100.0 -23.4 -87.1 -29.25 -82.05 -27.95 -81.4 -28.35 -79.85 -27.4 -75.6 -26.3 -67.2 -37.15 -67.4 -41.95 -72.55 -50.2 -79.05 -45.65 -81.85 -41.6 Q-84.65 -37.75 -84.85 -38.3 -85.1 -38.85 -85.15 -42.8 L-85.2 -46.55 -78.05 -56.05 -84.2 -55.7 -91.05 -51.75 -86.8 -60.3 -74.5 -60.3 -75.15 -65.5 -84.2 -73.15 -72.9 -69.8 -65.75 -62.75 -56.7 -66.7 -46.0 -61.2 -54.75 -61.55 -64.15 -57.55 -53.15 -54.8 -50.3 -47.15 -46.55 -49.45 -39.95 -45.3 -36.95 -51.95 -25.35 -55.4 -33.0 -48.8 -34.55 -45.05 -25.05 -46.7 -21.1 -38.2 -28.45 -42.45 -32.9 -41.25 -27.65 -37.9 -28.3 -30.2 -32.5 -34.8 -37.85 -38.75 -38.8 -31.65 -38.25 -27.15 -33.25 -30.3 -28.5 -27.3 -25.95 -27.7 -23.65 -32.8 -12.05 -36.25 -19.65 -29.6 -20.05 -28.6 -15.7 -29.25 -11.25 -28.5 -11.35 -28.6 -11.65 -33.85 -11.7 -38.3 -4.2 -49.45 -10.65 -49.1 -17.85 -44.4 -13.4 -54.5 -0.45 -54.5 -1.1 -60.65 -10.65 -69.65 1.25 -65.65 8.75 -57.4 18.3 -62.05 29.55 -55.6 20.35 -55.95 10.45 -51.25 22.05 -48.0 24.9 -39.35 32.15 -42.2 36.1 -38.75 36.4 -38.85 39.1 -42.75 47.6 -43.7 41.5 -40.15 39.95 -37.8 46.75 -37.8 48.45 -31.6 43.85 -35.35 40.65 -35.05 43.85 -32.15 42.5 -27.1 40.15 -30.65 36.95 -33.95 35.65 -29.95 37.2 -30.25 39.05 -26.25 45.25 -26.75 55.7 -25.1 59.1 -29.25 51.6 -28.3 63.05 -35.4 64.75 -34.3 66.7 -53.6 59.3 -47.3 49.9 -34.4 53.0 -54.75 65.15 -59.85 56.95 -63.0 42.05 -63.75 M22.35 -29.15 L25.15 -35.15 19.0 -40.8 8.1 -44.4 11.8 -33.95 12.2 -30.85 15.7 -33.05 21.35 -29.45 22.35 -29.15 M29.8 -38.5 L25.15 -38.65 26.1 -35.75 32.5 -37.65 29.8 -38.5 M27.7 -28.6 L33.35 -29.55 34.05 -35.2 30.8 -33.0 28.4 -30.3 27.7 -28.6 M7.05 -32.9 L1.6 -42.6 -5.2 -37.2 -8.15 -32.5 Q-10.85 -28.4 -11.25 -28.5 L4.35 -25.9 7.3 -25.65 7.25 -26.3 4.25 -25.95 7.2 -27.75 7.05 -32.9 M18.55 -26.4 L13.3 -27.1 12.7 -27.0 12.95 -25.15 15.95 -24.9 18.55 -26.4 M80.95 -40.35 L80.8 -40.65 73.35 -50.05 69.85 -36.75 69.6 -31.25 69.65 -31.25 72.65 -37.85 80.95 -40.35 M78.0 -26.35 L82.45 -27.6 81.15 -28.35 76.7 -27.15 78.0 -26.35 M-50.6 -39.0 L-43.7 -42.85 -48.95 -43.55 -48.6 -42.55 -49.7 -43.45 -58.0 -42.4 -52.5 -45.75 -56.05 -48.7 -66.4 -51.75 -62.85 -42.9 -62.2 -38.65 -50.6 -32.6 -50.6 -39.0 M-41.55 -27.85 L-42.2 -39.85 -46.15 -35.9 -48.7 -31.6 -41.55 -27.85" fill="#fbb81e" fill-rule="evenodd" stroke="none"/>
  </g>
</svg>
