<?xml version="1.0" encoding="UTF-8" standalone="no"?>
<svg xmlns:ffdec="https://www.free-decompiler.com/flash" xmlns:xlink="http://www.w3.org/1999/xlink" ffdec:objectType="shape" height="107.0px" width="200.0px" xmlns="http://www.w3.org/2000/svg">
  <g transform="matrix(1.0, 0.0, 0.0, 1.0, 100.0, 107.0)">
    <path d="M37.45 -66.65 L40.75 -66.95 40.1 -73.6 36.75 -73.25 37.45 -66.65 M41.8 -57.0 L41.1 -63.65 37.8 -63.3 38.5 -56.65 41.8 -57.0 M51.7 -74.8 L56.0 -33.35 68.4 -33.35 70.5 -46.35 66.95 -46.9 81.3 -57.25 91.65 -42.95 88.1 -43.55 86.5 -33.35 100.0 -33.35 100.0 0.0 -100.0 0.0 -100.0 -33.35 -93.6 -33.35 -90.85 -61.05 -98.65 -61.8 -68.6 -86.45 -43.95 -56.4 -51.75 -57.15 -53.0 -44.5 -40.0 -59.3 -15.05 -37.4 -21.75 -37.0 -21.5 -33.35 -2.4 -33.35 -4.1 -49.75 -7.7 -49.4 2.75 -62.2 1.95 -69.65 -8.0 -68.6 23.2 -107.0 61.65 -75.85 51.7 -74.8 M84.15 -38.25 L82.5 -38.5 81.95 -35.2 83.6 -34.95 84.15 -38.25 M84.95 -43.2 L83.3 -43.45 82.75 -40.15 84.4 -39.9 84.95 -43.2 M81.65 -43.7 L80.0 -44.0 79.45 -40.7 81.1 -40.4 81.65 -43.7 M79.2 -39.05 L78.65 -35.75 80.3 -35.5 80.85 -38.75 79.2 -39.05 M-80.5 -59.2 L-83.85 -59.5 -84.45 -52.9 -81.15 -52.55 -80.5 -59.2 M-73.85 -58.5 L-77.2 -58.85 -77.85 -52.25 -74.55 -51.9 -73.85 -58.5 M-84.85 -49.55 L-85.45 -42.95 -82.15 -42.6 -81.5 -49.25 -84.85 -49.55 M13.7 -69.2 L12.05 -69.0 12.45 -65.7 14.05 -65.85 13.7 -69.2 M11.9 -70.7 L13.55 -70.85 13.2 -74.15 11.55 -74.0 11.9 -70.7 M9.9 -73.85 L8.25 -73.65 8.6 -70.35 10.25 -70.5 9.9 -73.85 M-74.85 -48.6 L-78.2 -48.9 -78.85 -42.25 -75.5 -41.95 -74.85 -48.6 M8.75 -68.7 L9.1 -65.35 10.75 -65.55 10.45 -68.85 8.75 -68.7 M31.2 -62.6 L31.85 -56.0 35.2 -56.35 34.5 -62.95 31.2 -62.6 M-28.55 -35.05 L-30.25 -34.95 -30.0 -31.6 -28.35 -31.7 -28.55 -35.05 M-25.05 -31.95 L-25.25 -35.25 -26.9 -35.15 -26.65 -31.8 -25.05 -31.95 M34.15 -66.3 L33.45 -72.9 30.15 -72.55 30.85 -65.95 34.15 -66.3 M-29.9 -29.95 L-29.65 -26.6 -28.05 -26.75 -28.25 -30.05 -29.9 -29.95 M4.55 -44.8 L2.85 -44.6 3.25 -41.3 4.85 -41.5 4.55 -44.8 M-0.95 -49.25 L-0.6 -45.95 1.05 -46.1 0.7 -49.4 -0.95 -49.25 M4.0 -49.75 L2.35 -49.6 2.7 -46.25 4.35 -46.45 4.0 -49.75 M-26.55 -30.15 L-26.35 -26.85 -24.65 -26.95 -24.9 -30.3 -26.55 -30.15 M-0.45 -44.25 L-0.1 -40.95 1.55 -41.15 1.25 -44.45 -0.45 -44.25" fill="#fbb81e" fill-rule="evenodd" stroke="none"/>
    <path d="M41.8 -57.0 L38.5 -56.65 37.8 -63.3 41.1 -63.65 41.8 -57.0 M37.45 -66.65 L36.75 -73.25 40.1 -73.6 40.75 -66.95 37.45 -66.65 M81.65 -43.7 L81.1 -40.4 79.45 -40.7 80.0 -44.0 81.65 -43.7 M84.95 -43.2 L84.4 -39.9 82.75 -40.15 83.3 -43.45 84.95 -43.2 M84.15 -38.25 L83.6 -34.95 81.95 -35.2 82.5 -38.5 84.15 -38.25 M79.2 -39.05 L80.85 -38.75 80.3 -35.5 78.65 -35.75 79.2 -39.05 M-73.85 -58.5 L-74.55 -51.9 -77.85 -52.25 -77.2 -58.85 -73.85 -58.5 M-80.5 -59.2 L-81.15 -52.55 -84.45 -52.9 -83.85 -59.5 -80.5 -59.2 M-84.85 -49.55 L-81.5 -49.25 -82.15 -42.6 -85.45 -42.95 -84.85 -49.55 M-74.85 -48.6 L-75.5 -41.95 -78.85 -42.25 -78.2 -48.9 -74.85 -48.6 M9.9 -73.85 L10.25 -70.5 8.6 -70.35 8.25 -73.65 9.9 -73.85 M11.9 -70.7 L11.55 -74.0 13.2 -74.15 13.55 -70.85 11.9 -70.7 M13.7 -69.2 L14.05 -65.85 12.45 -65.7 12.05 -69.0 13.7 -69.2 M31.2 -62.6 L34.5 -62.95 35.2 -56.35 31.85 -56.0 31.2 -62.6 M8.75 -68.7 L10.45 -68.85 10.75 -65.55 9.1 -65.35 8.75 -68.7 M34.15 -66.3 L30.85 -65.95 30.15 -72.55 33.45 -72.9 34.15 -66.3 M-25.05 -31.95 L-26.65 -31.8 -26.9 -35.15 -25.25 -35.25 -25.05 -31.95 M-28.55 -35.05 L-28.35 -31.7 -30.0 -31.6 -30.25 -34.95 -28.55 -35.05 M-29.9 -29.95 L-28.25 -30.05 -28.05 -26.75 -29.65 -26.6 -29.9 -29.95 M-26.55 -30.15 L-24.9 -30.3 -24.65 -26.95 -26.35 -26.85 -26.55 -30.15 M4.0 -49.75 L4.35 -46.45 2.7 -46.25 2.35 -49.6 4.0 -49.75 M-0.95 -49.25 L0.7 -49.4 1.05 -46.1 -0.6 -45.95 -0.95 -49.25 M4.55 -44.8 L4.85 -41.5 3.25 -41.3 2.85 -44.6 4.55 -44.8 M-0.45 -44.25 L1.25 -44.45 1.55 -41.15 -0.1 -40.95 -0.45 -44.25" fill="#ffffff" fill-rule="evenodd" stroke="none"/>
  </g>
</svg>
