<?xml version="1.0" encoding="UTF-8" standalone="no"?>
<svg xmlns:ffdec="https://www.free-decompiler.com/flash" xmlns:xlink="http://www.w3.org/1999/xlink" ffdec:objectType="shape" height="115.8px" width="200.0px" xmlns="http://www.w3.org/2000/svg">
  <g transform="matrix(1.0, 0.0, 0.0, 1.0, 100.0, 115.8)">
    <path d="M83.3 -36.65 L83.3 -46.65 80.0 -46.65 80.0 -36.65 83.3 -36.65 M61.9 -59.2 L62.65 -69.15 59.3 -69.45 58.55 -59.45 61.9 -59.2 M41.05 -70.85 L37.7 -71.1 36.95 -61.15 40.25 -60.9 41.05 -70.85 M54.3 -69.8 L51.0 -70.1 50.25 -60.1 53.55 -59.85 54.3 -69.8 M42.2 -85.8 L38.9 -86.05 38.1 -76.05 41.4 -75.85 42.2 -85.8 M48.85 -85.25 L45.55 -85.55 44.75 -75.55 48.05 -75.3 48.85 -85.25 M100.0 -53.3 L100.0 0.0 -100.0 0.0 -100.0 -33.3 -92.4 -33.3 -86.6 -78.25 -58.5 -74.65 -63.8 -33.3 -52.25 -33.3 -47.0 -84.4 -34.1 -83.1 -35.75 -114.0 -2.4 -115.8 0.95 -51.65 21.65 -51.65 21.65 -33.3 29.75 -33.3 34.55 -94.75 74.45 -91.65 71.45 -53.3 100.0 -53.3 M3.3 -43.35 L-0.05 -43.35 -0.05 -33.3 3.3 -33.3 3.3 -43.35 M-43.75 -67.35 L-40.4 -67.0 -39.35 -76.95 -42.7 -77.3 -43.75 -67.35 M-15.1 -103.45 L-18.45 -103.25 -17.95 -93.25 -14.6 -93.45 -15.1 -103.45 M-7.7 -88.8 L-11.0 -88.6 -10.45 -78.65 -7.15 -78.85 -7.7 -88.8 M-8.5 -103.8 L-11.8 -103.6 -11.25 -93.6 -7.95 -93.8 -8.5 -103.8 M-71.25 -41.0 L-74.55 -41.4 -75.85 -31.5 -72.55 -31.05 -71.25 -41.0 M-80.75 -45.55 L-79.45 -55.45 -82.75 -55.9 -84.05 -45.95 -80.75 -45.55" fill="#fbb81e" fill-rule="evenodd" stroke="none"/>
    <path d="M48.85 -85.25 L48.05 -75.3 44.75 -75.55 45.55 -85.55 48.85 -85.25 M42.2 -85.8 L41.4 -75.85 38.1 -76.05 38.9 -86.05 42.2 -85.8 M54.3 -69.8 L53.55 -59.85 50.25 -60.1 51.0 -70.1 54.3 -69.8 M41.05 -70.85 L40.25 -60.9 36.95 -61.15 37.7 -71.1 41.05 -70.85 M61.9 -59.2 L58.55 -59.45 59.3 -69.45 62.65 -69.15 61.9 -59.2 M83.3 -36.65 L80.0 -36.65 80.0 -46.65 83.3 -46.65 83.3 -36.65 M-80.75 -45.55 L-84.05 -45.95 -82.75 -55.9 -79.45 -55.45 -80.75 -45.55 M-71.25 -41.0 L-72.55 -31.05 -75.85 -31.5 -74.55 -41.4 -71.25 -41.0 M-8.5 -103.8 L-7.95 -93.8 -11.25 -93.6 -11.8 -103.6 -8.5 -103.8 M-7.7 -88.8 L-7.15 -78.85 -10.45 -78.65 -11.0 -88.6 -7.7 -88.8 M-15.1 -103.45 L-14.6 -93.45 -17.95 -93.25 -18.45 -103.25 -15.1 -103.45 M-43.75 -67.35 L-42.7 -77.3 -39.35 -76.95 -40.4 -67.0 -43.75 -67.35 M3.3 -43.35 L3.3 -33.3 -0.05 -33.3 -0.05 -43.35 3.3 -43.35" fill="#ffffff" fill-rule="evenodd" stroke="none"/>
  </g>
</svg>
