<?xml version="1.0" encoding="UTF-8" standalone="no"?>
<svg xmlns:ffdec="https://www.free-decompiler.com/flash" xmlns:xlink="http://www.w3.org/1999/xlink" ffdec:objectType="shape" height="75.0px" width="60.0px" xmlns="http://www.w3.org/2000/svg">
  <g transform="matrix(1.0, 0.0, 0.0, 1.0, 30.0, 45.0)">
    <path d="M25.0 -10.0 Q20.85 -10.0 17.9 -7.05 15.0 -4.15 15.0 0.0 15.0 4.15 17.9 7.1 20.85 10.0 25.0 10.0 27.7 10.0 30.0 8.7 L30.0 30.0 8.65 30.0 Q10.0 27.7 10.0 25.0 10.0 20.9 7.05 17.95 4.15 15.0 0.0 15.0 -4.15 15.0 -7.1 17.95 -10.0 20.85 -10.0 25.0 -10.0 27.8 -8.7 30.0 L-30.0 30.0 -30.0 -30.0 -8.7 -30.0 Q-10.0 -32.2 -10.0 -35.0 -10.0 -39.15 -7.1 -42.05 -4.15 -45.0 0.0 -45.0 4.15 -45.0 7.05 -42.05 10.0 -39.1 10.0 -35.0 10.0 -32.3 8.65 -30.0 L30.0 -30.0 30.0 -8.65 Q27.6 -10.0 25.0 -10.0" fill="#030303" fill-rule="evenodd" stroke="none"/>
  </g>
</svg>
