<?xml version="1.0" encoding="UTF-8" standalone="no"?>
<svg xmlns:ffdec="https://www.free-decompiler.com/flash" xmlns:xlink="http://www.w3.org/1999/xlink" ffdec:objectType="shape" height="60.0px" width="90.0px" xmlns="http://www.w3.org/2000/svg">
  <g transform="matrix(1.0, 0.0, 0.0, 1.0, 45.0, 30.0)">
    <path d="M42.05 -7.05 Q45.0 -4.1 45.0 0.0 45.0 4.15 42.05 7.1 39.15 10.0 35.0 10.0 32.2 10.0 30.0 8.7 L30.0 30.0 8.65 30.0 Q10.0 27.7 10.0 25.0 10.0 20.9 7.05 17.95 4.15 15.0 0.0 15.0 -4.15 15.0 -7.1 17.95 -10.0 20.85 -10.0 25.0 -10.0 27.8 -8.7 30.0 L-30.0 30.0 -30.0 8.7 Q-32.3 10.0 -35.0 10.0 -39.15 10.0 -42.1 7.1 -45.0 4.15 -45.0 0.0 -45.0 -4.15 -42.1 -7.05 -39.15 -10.0 -35.0 -10.0 -32.4 -10.0 -30.0 -8.65 L-30.0 -30.0 -8.7 -30.0 Q-10.0 -27.7 -10.0 -25.0 -10.0 -20.85 -7.1 -17.9 -4.15 -15.0 0.0 -15.0 4.15 -15.0 7.05 -17.9 10.0 -20.85 10.0 -25.0 10.0 -27.6 8.65 -30.0 L30.0 -30.0 30.0 -8.65 Q32.3 -10.0 35.0 -10.0 39.15 -10.0 42.05 -7.05" fill="#030303" fill-rule="evenodd" stroke="none"/>
  </g>
</svg>
