<?xml version="1.0" encoding="UTF-8" standalone="no"?>
<svg xmlns:ffdec="https://www.free-decompiler.com/flash" xmlns:xlink="http://www.w3.org/1999/xlink" ffdec:objectType="shape" height="12.85px" width="134.9px" xmlns="http://www.w3.org/2000/svg">
  <g transform="matrix(1.0, 0.0, 0.0, 1.0, 64.8, 246.15)">
    <path d="M-57.95 -246.15 Q-55.15 -246.15 -53.1 -244.25 -51.1 -242.35 -51.1 -239.7 -51.1 -237.05 -53.1 -235.2 -55.15 -233.3 -57.95 -233.3 -60.8 -233.3 -62.8 -235.2 -64.8 -237.05 -64.8 -239.7 -64.8 -242.35 -62.8 -244.25 -60.8 -246.15 -57.95 -246.15 M-54.75 -244.3 Q-55.3 -244.9 -56.15 -244.9 -56.95 -244.9 -57.55 -244.3 -58.15 -243.7 -58.15 -242.9 -58.15 -242.05 -57.55 -241.5 -56.95 -240.9 -56.15 -240.9 -55.3 -240.9 -54.75 -241.5 -54.15 -242.05 -54.15 -242.9 -54.15 -243.7 -54.75 -244.3" fill="#35312e" fill-rule="evenodd" stroke="none"/>
    <path d="M-56.15 -244.9 Q-55.3 -244.9 -54.75 -244.3 -54.15 -243.7 -54.15 -242.9 -54.15 -242.05 -54.75 -241.5 -55.3 -240.9 -56.15 -240.9 -56.95 -240.9 -57.55 -241.5 -58.15 -242.05 -58.15 -242.9 -58.15 -243.7 -57.55 -244.3 -56.95 -244.9 -56.15 -244.9" fill="#ffffff" fill-rule="evenodd" stroke="none"/>
    <path d="M63.25 -246.15 Q66.1 -246.15 68.1 -244.25 70.1 -242.35 70.1 -239.7 70.1 -237.05 68.1 -235.2 66.1 -233.3 63.25 -233.3 60.4 -233.3 58.4 -235.2 56.4 -237.05 56.4 -239.7 56.4 -242.35 58.4 -244.25 60.4 -246.15 63.25 -246.15 M66.6 -244.3 Q66.05 -244.9 65.2 -244.9 64.4 -244.9 63.8 -244.3 63.2 -243.7 63.2 -242.9 63.2 -242.05 63.8 -241.5 64.4 -240.9 65.2 -240.9 66.05 -240.9 66.6 -241.5 67.2 -242.05 67.2 -242.9 67.2 -243.7 66.6 -244.3" fill="#35312e" fill-rule="evenodd" stroke="none"/>
    <path d="M65.2 -244.9 Q66.05 -244.9 66.6 -244.3 67.2 -243.7 67.2 -242.9 67.2 -242.05 66.6 -241.5 66.05 -240.9 65.2 -240.9 64.4 -240.9 63.8 -241.5 63.2 -242.05 63.2 -242.9 63.2 -243.7 63.8 -244.3 64.4 -244.9 65.2 -244.9" fill="#ffffff" fill-rule="evenodd" stroke="none"/>
  </g>
</svg>
