<?xml version="1.0" encoding="UTF-8" standalone="no"?>
<svg xmlns:ffdec="https://www.free-decompiler.com/flash" xmlns:xlink="http://www.w3.org/1999/xlink" ffdec:objectType="shape" height="136.0px" width="140.65px" xmlns="http://www.w3.org/2000/svg">
  <g transform="matrix(1.0, 0.0, 0.0, 1.0, 70.3, 68.0)">
    <path d="M65.2 -24.3 L65.3 -23.75 65.4 -23.0 65.2 -24.3 M-69.3 20.95 Q-70.4 18.75 -70.3 14.3 L-69.95 7.4 Q-70.15 19.15 -69.3 20.95" fill="#e4db88" fill-rule="evenodd" stroke="none"/>
    <path d="M7.55 -62.05 Q3.05 -60.45 2.7 -57.65 2.15 -54.1 8.2 -50.65 14.2 -47.2 23.2 -45.9 32.2 -44.6 39.0 -46.2 45.7 -47.75 46.25 -51.3 46.55 -53.8 43.6 -56.3 40.95 -58.6 36.25 -60.35 31.45 -62.2 25.7 -63.05 14.5 -64.65 7.55 -62.05 M-16.75 -67.15 L-11.8 -67.9 Q-9.1 -68.1 -1.2 -67.9 L19.5 -66.9 Q31.1 -65.8 39.85 -63.15 45.95 -61.3 51.35 -53.0 L58.8 -39.0 62.65 -31.6 64.5 -26.9 Q63.4 -29.95 60.3 -36.1 57.35 -39.35 54.6 -38.7 53.35 -38.45 52.3 -37.2 50.6 -35.2 50.15 -31.35 49.7 -27.4 50.8 -22.9 52.0 -17.85 54.5 -14.35 57.0 -10.85 59.7 -10.4 L61.25 -10.45 Q63.45 -10.95 64.65 -13.85 65.8 -16.55 65.8 -20.5 L67.6 -8.95 Q69.5 0.65 70.05 5.7 71.05 14.6 68.85 20.3 L68.1 22.15 Q65.2 28.95 60.7 35.3 55.6 42.45 49.3 48.0 35.45 60.2 24.55 65.8 17.95 69.15 6.65 67.35 L-11.3 62.9 Q-24.3 59.5 -28.85 57.8 -32.4 56.5 -35.4 55.0 -29.9 57.45 -20.75 60.2 -8.65 63.9 2.45 66.0 L12.5 65.25 Q16.45 64.3 16.8 62.4 L16.65 61.15 Q15.5 58.25 8.1 55.05 0.65 51.8 -9.65 49.85 -20.65 47.75 -29.4 48.15 -33.6 48.4 -36.05 49.3 -38.6 50.2 -38.9 51.7 -39.05 52.4 -38.65 53.2 -41.95 51.2 -44.5 48.85 -50.75 43.1 -58.65 34.15 L-64.4 27.9 Q-67.75 24.05 -69.3 21.05 L-65.15 26.55 -62.75 26.7 Q-61.5 26.4 -60.5 25.65 -58.55 24.15 -57.75 21.15 -56.95 18.15 -57.6 14.7 -58.25 11.15 -60.25 8.65 -62.25 6.15 -64.7 5.6 L-66.85 5.55 Q-68.65 5.9 -69.95 7.4 L-69.4 -6.5 -68.7 -10.95 -67.4 -15.3 Q-64.2 -25.65 -61.55 -32.05 -59.8 -36.3 -56.0 -39.85 L-48.45 -46.15 -35.65 -56.4 -33.25 -58.15 Q-34.85 -55.3 -35.0 -52.5 -35.15 -49.55 -33.7 -47.25 L-33.0 -46.3 Q-30.2 -43.05 -25.0 -43.0 -19.75 -42.95 -14.7 -46.15 -9.55 -49.5 -7.4 -54.45 -5.3 -59.45 -7.4 -63.3 L-7.7 -63.85 Q-9.55 -66.65 -13.15 -67.65 L-16.75 -67.15 M49.65 37.2 Q49.8 39.1 50.9 39.9 52.25 40.8 54.65 39.85 56.95 38.95 59.5 36.5 65.95 26.85 68.1 22.15 69.0 17.9 67.05 16.55 66.3 16.0 65.25 16.1 63.0 16.15 59.95 18.6 56.9 21.05 54.2 24.9 51.85 28.3 50.65 31.65 49.45 34.9 49.65 37.2 M42.85 41.15 Q42.6 40.1 42.15 39.4 40.35 36.1 35.9 35.5 31.45 34.9 26.95 37.4 22.45 39.85 20.55 43.95 18.65 48.05 20.45 51.35 21.05 52.4 22.05 53.25 24.4 55.25 28.15 55.3 32.0 55.35 35.65 53.3 39.55 51.15 41.55 47.7 43.55 44.3 42.85 41.15 M-49.8 -35.8 Q-52.45 -36.8 -56.3 -32.9 -60.15 -29.0 -63.05 -22.4 -65.5 -16.8 -66.05 -11.85 -66.6 -6.95 -65.1 -4.7 -64.45 -3.8 -63.75 -3.55 -61.15 -2.4 -57.2 -6.3 -53.3 -10.2 -50.35 -16.85 -47.45 -23.5 -47.25 -29.05 -47.0 -34.6 -49.65 -35.75 L-49.8 -35.8 M-22.2 -32.65 L-29.15 -32.95 Q-33.1 -31.95 -36.4 -28.95 -39.15 -26.4 -40.6 -23.2 -42.0 -20.1 -41.75 -17.15 -41.5 -14.1 -39.7 -12.15 -36.85 -9.05 -31.85 -9.55 -26.85 -10.1 -22.65 -13.95 -18.45 -17.75 -17.5 -22.7 -16.55 -27.65 -19.4 -30.75 -20.5 -31.9 -22.2 -32.65 M-48.85 23.4 L-49.85 25.15 Q-50.85 28.05 -49.5 32.15 -48.1 36.2 -45.15 39.0 -42.45 41.6 -39.8 41.75 -37.15 41.9 -35.9 39.6 L-35.55 38.8 Q-34.55 35.85 -35.9 31.8 -37.3 27.75 -40.25 24.95 -42.6 22.65 -45.05 22.25 -47.4 21.85 -48.85 23.4" fill="#91dddc" fill-rule="evenodd" stroke="none"/>
    <path d="M43.6 -56.3 Q43.95 -55.05 43.05 -54.0 42.3 -53.15 41.6 -53.15 32.2 -51.05 23.4 -53.0 13.75 -55.1 7.7 -61.65 L7.55 -62.05 Q14.5 -64.65 25.7 -63.05 31.45 -62.2 36.25 -60.35 40.95 -58.6 43.6 -56.3 M-16.75 -67.15 L-13.15 -67.65 Q-9.55 -66.65 -7.7 -63.85 L-7.4 -63.3 Q-14.95 -62.25 -22.0 -57.5 -28.8 -52.9 -33.0 -46.3 L-33.7 -47.25 Q-35.15 -49.55 -35.0 -52.5 -34.85 -55.3 -33.25 -58.15 L-33.2 -58.25 -31.3 -59.5 -25.8 -63.1 -21.9 -65.3 -21.6 -65.45 -21.35 -65.55 -20.15 -66.2 -16.75 -67.15 M-69.95 7.4 Q-68.65 5.9 -66.85 5.55 L-64.7 5.6 Q-65.3 18.05 -60.5 25.65 -61.5 26.4 -62.75 26.7 L-65.15 26.55 -69.3 21.05 -69.3 21.0 -69.3 20.95 Q-70.15 19.15 -69.95 7.4 M-38.65 53.2 Q-39.05 52.4 -38.9 51.7 -38.6 50.2 -36.05 49.3 -33.6 48.4 -29.4 48.15 -18.85 54.9 -7.4 58.3 4.8 61.9 16.65 61.15 L16.8 62.4 Q16.45 64.3 12.5 65.25 L2.45 66.0 Q-8.65 63.9 -20.75 60.2 -29.9 57.45 -35.4 55.0 L-38.5 53.5 -38.65 53.2 M68.1 22.15 Q65.95 26.85 59.5 36.5 56.95 38.95 54.65 39.85 52.25 40.8 50.9 39.9 49.8 39.1 49.65 37.2 55.05 33.75 59.15 28.05 62.95 22.75 65.25 16.1 66.3 16.0 67.05 16.55 69.0 17.9 68.1 22.15 M65.8 -20.5 Q65.8 -16.55 64.65 -13.85 63.45 -10.95 61.25 -10.45 L59.7 -10.4 Q60.65 -17.25 58.55 -24.5 56.55 -31.15 52.3 -37.2 53.35 -38.45 54.6 -38.7 57.35 -39.35 60.3 -36.1 63.4 -29.95 64.5 -26.9 L65.1 -24.9 65.2 -24.3 65.4 -23.0 65.8 -20.7 65.8 -20.5 M22.05 53.25 Q22.3 50.35 24.0 47.95 27.75 43.65 32.05 41.65 37.05 39.4 41.6 40.75 L42.85 41.15 Q43.55 44.3 41.55 47.7 39.55 51.15 35.65 53.3 32.0 55.35 28.15 55.3 24.4 55.25 22.05 53.25 M-65.1 -4.7 Q-66.6 -6.95 -66.05 -11.85 -65.5 -16.8 -63.05 -22.4 -60.15 -29.0 -56.3 -32.9 -52.45 -36.8 -49.8 -35.8 -50.5 -26.85 -54.4 -18.6 -58.55 -9.95 -65.1 -4.7 M-41.75 -17.15 Q-42.0 -20.1 -40.6 -23.2 -39.15 -26.4 -36.4 -28.95 -33.1 -31.95 -29.15 -32.95 L-22.2 -32.65 Q-20.45 -30.0 -20.35 -26.7 -20.25 -23.6 -21.55 -20.6 -25.4 -14.9 -31.6 -13.35 -35.05 -12.55 -37.8 -13.7 -40.35 -14.7 -41.75 -17.15 M-35.9 39.6 Q-37.15 41.9 -39.8 41.75 -42.45 41.6 -45.15 39.0 -48.1 36.2 -49.5 32.15 -50.85 28.05 -49.85 25.15 L-48.85 23.4 Q-44.45 25.8 -41.15 29.7 -37.45 34.15 -35.9 39.6" fill="#70a3d3" fill-rule="evenodd" stroke="none"/>
    <path d="M7.55 -62.05 L7.7 -61.65 Q13.75 -55.1 23.4 -53.0 32.2 -51.05 41.6 -53.15 42.3 -53.15 43.05 -54.0 43.95 -55.05 43.6 -56.3 46.55 -53.8 46.25 -51.3 45.7 -47.75 39.0 -46.2 32.2 -44.6 23.2 -45.9 14.2 -47.2 8.2 -50.65 2.15 -54.1 2.7 -57.65 3.05 -60.45 7.55 -62.05 M-7.4 -63.3 Q-5.3 -59.45 -7.4 -54.45 -9.55 -49.5 -14.7 -46.15 -19.75 -42.95 -25.0 -43.0 -30.2 -43.05 -33.0 -46.3 -28.8 -52.9 -22.0 -57.5 -14.95 -62.25 -7.4 -63.3 M-64.7 5.6 Q-62.25 6.15 -60.25 8.65 -58.25 11.15 -57.6 14.7 -56.95 18.15 -57.75 21.15 -58.55 24.15 -60.5 25.65 -65.3 18.05 -64.7 5.6 M-29.4 48.15 Q-20.65 47.75 -9.65 49.85 0.65 51.8 8.1 55.05 15.5 58.25 16.65 61.15 4.8 61.9 -7.4 58.3 -18.85 54.9 -29.4 48.15 M49.65 37.2 Q49.45 34.9 50.65 31.65 51.85 28.3 54.2 24.9 56.9 21.05 59.95 18.6 63.0 16.15 65.25 16.1 62.95 22.75 59.15 28.05 55.05 33.75 49.65 37.2 M59.7 -10.4 Q57.0 -10.85 54.5 -14.35 52.0 -17.85 50.8 -22.9 49.7 -27.4 50.15 -31.35 50.6 -35.2 52.3 -37.2 56.55 -31.15 58.55 -24.5 60.65 -17.25 59.7 -10.4 M22.05 53.25 Q21.05 52.4 20.45 51.35 18.65 48.05 20.55 43.95 22.45 39.85 26.95 37.4 31.45 34.9 35.9 35.5 40.35 36.1 42.15 39.4 42.6 40.1 42.85 41.15 L41.6 40.75 Q37.05 39.4 32.05 41.65 27.75 43.65 24.0 47.95 22.3 50.35 22.05 53.25 M-49.8 -35.8 L-49.65 -35.75 Q-47.0 -34.6 -47.25 -29.05 -47.45 -23.5 -50.35 -16.85 -53.3 -10.2 -57.2 -6.3 -61.15 -2.4 -63.75 -3.55 -64.45 -3.8 -65.1 -4.7 -58.55 -9.95 -54.4 -18.6 -50.5 -26.85 -49.8 -35.8 M-41.75 -17.15 Q-40.35 -14.7 -37.8 -13.7 -35.05 -12.55 -31.6 -13.35 -25.4 -14.9 -21.55 -20.6 -20.25 -23.6 -20.35 -26.7 -20.45 -30.0 -22.2 -32.65 -20.5 -31.9 -19.4 -30.75 -16.55 -27.65 -17.5 -22.7 -18.45 -17.75 -22.65 -13.95 -26.85 -10.1 -31.85 -9.55 -36.85 -9.05 -39.7 -12.15 -41.5 -14.1 -41.75 -17.15 M-48.85 23.4 Q-47.4 21.85 -45.05 22.25 -42.6 22.65 -40.25 24.95 -37.3 27.75 -35.9 31.8 -34.55 35.85 -35.55 38.8 L-35.9 39.6 Q-37.45 34.15 -41.15 29.7 -44.45 25.8 -48.85 23.4" fill="#747dcf" fill-rule="evenodd" stroke="none"/>
  </g>
</svg>
