<?xml version="1.0" encoding="UTF-8" standalone="no"?>
<svg xmlns:ffdec="https://www.free-decompiler.com/flash" xmlns:xlink="http://www.w3.org/1999/xlink" ffdec:objectType="shape" height="16.1px" width="74.0px" xmlns="http://www.w3.org/2000/svg">
  <g transform="matrix(1.0, 0.0, 0.0, 1.0, 37.0, 8.05)">
    <path d="M7.25 4.0 Q10.25 4.7 10.25 5.65 10.25 6.65 7.25 7.35 L0.0 8.05 -7.25 7.35 Q-10.25 6.65 -10.25 5.65 -10.25 4.7 -7.25 4.0 L0.0 3.3 7.25 4.0 M32.4 -5.9 Q32.7 -7.4 34.55 -8.05 37.8 -4.9 36.7 -2.4 35.6 0.0 31.2 0.7 L16.95 0.3 2.85 -1.35 Q-7.05 -1.65 -15.6 -0.2 L-22.2 1.2 -28.9 2.0 Q-34.15 1.85 -36.2 -0.5 -38.5 -3.15 -34.1 -6.8 -33.4 -6.65 -32.8 -6.05 -32.1 -5.4 -31.95 -4.65 -35.05 -2.15 -31.7 -1.3 L-26.1 -1.15 -21.25 -2.1 -16.4 -3.1 Q-5.15 -4.8 2.85 -4.35 L12.1 -3.3 21.3 -2.2 Q26.7 -1.8 29.8 -2.15 32.55 -2.45 33.3 -3.05 34.4 -4.0 32.4 -5.9" fill="#c19c7a" fill-rule="evenodd" stroke="none"/>
  </g>
</svg>
