<?xml version="1.0" encoding="UTF-8" standalone="no"?>
<svg xmlns:ffdec="https://www.free-decompiler.com/flash" xmlns:xlink="http://www.w3.org/1999/xlink" ffdec:objectType="shape" height="30.0px" width="24.8px" xmlns="http://www.w3.org/2000/svg">
  <g transform="matrix(1.0, 0.0, 0.0, 1.0, 12.4, 15.0)">
    <path d="M9.0 11.5 Q9.0 12.95 6.65 13.95 4.3 15.0 1.0 15.0 -2.3 15.0 -4.65 13.95 -7.0 12.95 -7.0 11.5 -7.0 10.05 -4.65 9.0 -2.35 8.0 1.0 8.0 4.3 8.0 6.65 9.0 9.0 10.05 9.0 11.5" fill="#c19c7a" fill-rule="evenodd" stroke="none"/>
    <path d="M6.0 -14.55 Q11.65 -13.15 12.2 -7.75 12.75 -3.1 11.65 0.15 10.2 4.35 6.25 5.2 2.15 6.15 -1.45 5.9 -6.25 5.6 -8.45 3.15 L-8.8 2.75 -9.0 2.45 Q-10.95 -0.8 -11.6 -2.45 -12.7 -5.3 -12.25 -7.85 -11.85 -9.95 -8.95 -11.85 -6.7 -13.4 -4.1 -14.1 1.55 -15.65 6.0 -14.55" fill="#c19c7a" fill-rule="evenodd" stroke="none"/>
  </g>
</svg>
