<?xml version="1.0" encoding="UTF-8" standalone="no"?>
<svg xmlns:ffdec="https://www.free-decompiler.com/flash" xmlns:xlink="http://www.w3.org/1999/xlink" ffdec:objectType="shape" height="61.9px" width="204.8px" xmlns="http://www.w3.org/2000/svg">
  <g transform="matrix(1.0, 0.0, 0.0, 1.0, 102.4, 30.95)">
    <path d="M0.0 -24.05 Q-9.95 -24.05 -17.0 -17.0 -24.05 -9.95 -24.05 0.0 -24.05 9.95 -17.0 17.0 -9.95 24.05 0.0 24.05 9.95 24.05 17.0 17.0 24.05 9.95 24.05 0.0 24.05 -9.95 17.0 -17.0 9.95 -24.05 0.0 -24.05 M-30.05 0.0 Q-30.05 -12.45 -21.25 -21.25 -12.45 -30.05 0.0 -30.05 12.45 -30.05 21.25 -21.25 30.05 -12.45 30.05 0.0 30.05 12.45 21.25 21.25 12.45 30.05 0.0 30.05 -12.45 30.05 -21.25 21.25 -30.05 12.45 -30.05 0.0 M-3.95 -18.05 Q2.8 -17.5 7.85 -14.3 13.7 -10.55 14.45 -4.35 14.15 -1.35 12.25 0.4 11.2 1.35 8.1 2.9 5.1 4.4 3.7 5.75 3.2 6.3 3.05 7.95 2.85 8.75 1.9 9.35 0.9 9.95 0.0 9.95 L-3.05 9.25 Q-4.05 8.85 -4.0 6.85 -3.85 4.6 -1.65 2.75 -0.6 1.8 2.45 0.1 5.55 -1.6 5.8 -4.1 5.35 -7.8 1.4 -9.55 L-5.85 -11.95 Q-6.55 -15.5 -6.4 -17.45 -5.85 -18.15 -3.95 -18.05 M2.75 17.1 Q1.5 18.55 -0.6 18.55 -3.35 18.55 -4.15 16.35 -4.4 14.4 -3.05 13.0 -1.8 11.05 0.4 11.05 2.3 11.05 2.95 12.8 3.35 13.9 3.35 14.9 3.35 16.15 2.75 17.1" fill="#ffe069" fill-rule="evenodd" stroke="none"/>
    <path d="M-43.5 -28.0 Q-40.55 -25.0 -40.55 -20.8 L-40.55 20.8 Q-40.55 25.0 -43.5 27.95 -46.5 30.95 -50.65 30.95 L-92.3 30.95 Q-96.5 30.95 -99.45 27.95 -102.4 25.0 -102.4 20.8 L-102.4 -20.8 Q-102.4 -25.0 -99.45 -28.0 -96.5 -30.95 -92.3 -30.95 L-50.65 -30.95 Q-46.5 -30.95 -43.5 -28.0 M-47.3 -24.15 Q-48.7 -25.55 -50.65 -25.55 L-92.3 -25.55 Q-94.25 -25.55 -95.65 -24.15 -97.05 -22.8 -97.05 -20.8 L-97.05 20.8 Q-97.05 22.75 -95.65 24.15 -94.25 25.55 -92.3 25.55 L-50.65 25.55 Q-48.7 25.55 -47.3 24.15 -45.95 22.75 -45.95 20.8 L-45.95 -20.8 Q-45.95 -22.8 -47.3 -24.15 M-61.0 0.15 Q-61.95 1.05 -64.85 2.5 -67.7 3.9 -69.0 5.2 -69.55 5.7 -69.6 7.25 -69.8 8.0 -70.75 8.6 -71.7 9.15 -72.5 9.15 L-75.4 8.45 Q-76.35 8.1 -76.25 6.2 -76.2 4.1 -74.05 2.35 -73.2 1.55 -70.2 -0.15 -67.35 -1.75 -67.05 -4.1 -67.45 -7.55 -71.2 -9.25 L-78.05 -11.5 Q-78.7 -15.05 -78.55 -16.7 -78.0 -17.35 -76.25 -17.25 -69.9 -16.75 -65.1 -13.7 -59.6 -10.2 -58.9 -4.35 -59.2 -1.5 -61.0 0.15 M-69.35 13.8 Q-69.35 14.95 -69.95 15.9 -71.15 17.25 -73.1 17.25 -75.65 17.25 -76.45 15.2 -76.7 13.3 -75.4 12.05 -74.25 10.2 -72.15 10.2 -70.35 10.2 -69.75 11.8 -69.35 12.95 -69.35 13.8" fill="#ffe069" fill-rule="evenodd" stroke="none"/>
    <path d="M95.65 -24.15 Q94.25 -25.55 92.3 -25.55 L50.65 -25.55 Q48.7 -25.55 47.3 -24.15 45.9 -22.8 45.9 -20.8 L45.9 20.8 Q45.9 22.75 47.3 24.15 48.7 25.55 50.65 25.55 L92.3 25.55 Q94.25 25.55 95.65 24.15 97.0 22.75 97.0 20.8 L97.0 -20.8 Q97.0 -22.8 95.65 -24.15 M99.45 -28.0 Q102.4 -25.0 102.4 -20.8 L102.4 20.8 Q102.4 25.0 99.45 27.95 96.45 30.95 92.3 30.95 L50.65 30.95 Q46.45 30.95 43.5 27.95 40.55 25.0 40.55 20.8 L40.55 -20.8 Q40.55 -25.0 43.5 -28.0 46.45 -30.95 50.65 -30.95 L92.3 -30.95 Q96.45 -30.95 99.45 -28.0 M81.95 0.15 Q81.0 1.05 78.1 2.5 75.25 3.9 73.95 5.2 73.4 5.7 73.35 7.25 73.15 8.0 72.2 8.6 71.25 9.15 70.45 9.15 69.35 9.15 67.55 8.45 66.6 8.1 66.7 6.2 66.75 4.1 68.9 2.35 69.75 1.55 72.75 -0.15 75.6 -1.75 75.9 -4.1 75.5 -7.55 71.75 -9.25 L64.9 -11.5 Q64.25 -15.05 64.4 -16.7 64.95 -17.35 66.7 -17.25 73.05 -16.75 77.85 -13.7 83.35 -10.2 84.05 -4.35 83.75 -1.5 81.95 0.15 M73.6 13.8 Q73.6 14.95 73.0 15.9 71.8 17.25 69.85 17.25 67.3 17.25 66.5 15.2 66.25 13.3 67.55 12.05 68.7 10.2 70.8 10.2 72.6 10.2 73.2 11.8 73.6 12.95 73.6 13.8" fill="#ffe069" fill-rule="evenodd" stroke="none"/>
  </g>
</svg>
