<?xml version="1.0" encoding="UTF-8" standalone="no"?>
<svg xmlns:ffdec="https://www.free-decompiler.com/flash" xmlns:xlink="http://www.w3.org/1999/xlink" ffdec:objectType="shape" height="271.8px" width="141.55px" xmlns="http://www.w3.org/2000/svg">
  <g transform="matrix(1.0, 0.0, 0.0, 1.0, 96.85, 129.8)">
    <path d="M-41.2 86.35 Q-33.35 94.2 -33.35 105.3 -33.35 116.4 -41.2 124.25 -49.05 132.1 -60.15 132.1 -71.25 132.1 -79.1 124.25 -86.95 116.4 -86.95 105.3 -86.95 94.2 -79.1 86.35 -71.25 78.5 -60.15 78.5 -49.05 78.5 -41.2 86.35 M-56.35 83.3 L-59.0 83.1 Q-61.9 83.1 -63.65 84.9 L-66.0 100.7 -82.2 102.5 -84.3 104.5 Q-84.65 105.05 -84.65 107.15 -83.15 108.45 -82.15 108.8 L-66.95 109.4 -67.1 115.75 Q-67.1 120.65 -66.7 125.9 L-65.55 126.85 -61.75 127.75 Q-59.5 127.75 -56.8 126.55 L-55.25 109.3 -39.85 108.35 -38.75 105.15 Q-38.0 103.0 -38.0 102.1 -38.0 99.1 -44.1 99.35 L-54.55 99.75 Q-54.05 92.8 -53.65 83.55 L-56.35 83.3" fill="#ffffff" fill-rule="evenodd" stroke="none"/>
    <path d="M-56.35 83.3 L-53.65 83.55 Q-54.05 92.8 -54.55 99.75 L-44.1 99.35 Q-38.0 99.1 -38.0 102.1 -38.0 103.0 -38.75 105.15 L-39.85 108.35 -55.25 109.3 -56.8 126.55 Q-59.5 127.75 -61.75 127.75 L-65.55 126.85 -66.7 125.9 Q-67.1 120.65 -67.1 115.75 L-66.95 109.4 -82.15 108.8 Q-83.15 108.45 -84.65 107.15 -84.65 105.05 -84.3 104.5 L-82.2 102.5 -66.0 100.7 -63.65 84.9 Q-61.9 83.1 -59.0 83.1 L-56.35 83.3 M-41.2 86.35 Q-49.05 78.5 -60.15 78.5 -71.25 78.5 -79.1 86.35 -86.95 94.2 -86.95 105.3 -86.95 116.4 -79.1 124.25 -71.25 132.1 -60.15 132.1 -49.05 132.1 -41.2 124.25 -33.35 116.4 -33.35 105.3 -33.35 94.2 -41.2 86.35 M-38.2 83.35 Q-29.1 92.45 -29.1 105.3 -29.1 118.15 -38.2 127.25 L-41.15 129.95 -43.85 132.9 Q-52.95 142.0 -65.8 142.0 -78.65 142.0 -87.75 132.9 -96.85 123.8 -96.85 110.95 -96.85 98.15 -87.75 89.05 L-84.85 86.5 -82.1 83.35 Q-73.0 74.25 -60.15 74.25 -47.3 74.25 -38.2 83.35" fill="#ec1c24" fill-rule="evenodd" stroke="none"/>
    <path d="M-13.35 35.3 Q-10.65 33.3 -7.3 33.6 L36.25 37.4 Q40.0 37.75 42.5 40.65 44.95 43.55 44.65 47.3 L40.8 90.85 Q40.6 93.1 39.4 95.0 38.25 96.8 36.35 97.9 35.55 101.1 32.8 103.0 30.05 104.95 26.75 104.65 L-16.8 100.85 Q-20.6 100.5 -23.05 97.55 -25.45 94.7 -25.15 90.9 L-21.35 47.4 Q-21.15 45.15 -19.9 43.25 -18.8 41.4 -16.95 40.3 -16.1 37.15 -13.35 35.3 M-11.25 38.85 Q-12.85 40.2 -13.0 42.25 L-16.85 85.8 Q-17.0 87.9 -15.7 89.5 -14.35 91.05 -12.3 91.25 L31.25 95.05 Q33.3 95.25 34.85 93.9 36.5 92.6 36.65 90.5 L40.5 46.95 Q40.65 44.9 39.3 43.25 37.95 41.75 35.9 41.55 L-7.65 37.75 Q-9.7 37.55 -11.25 38.85" fill="#000000" fill-rule="evenodd" stroke="none"/>
    <path d="M-11.25 38.85 Q-9.7 37.55 -7.65 37.75 L35.9 41.55 Q37.95 41.75 39.3 43.25 40.65 44.9 40.5 46.95 L36.65 90.5 Q36.5 92.6 34.85 93.9 33.3 95.25 31.25 95.05 L-12.3 91.25 Q-14.35 91.05 -15.7 89.5 -17.0 87.9 -16.85 85.8 L-13.0 42.25 Q-12.85 40.2 -11.25 38.85" fill="#ffffff" fill-rule="evenodd" stroke="none"/>
    <path d="M14.75 58.15 Q13.7 61.3 13.55 63.25 13.45 64.45 13.7 64.95 L17.8 62.6 Q21.55 60.85 24.75 61.1 28.3 61.4 31.0 64.35 32.6 66.1 32.35 68.7 32.1 71.65 29.7 75.25 25.7 81.15 20.15 82.9 16.65 84.05 11.6 83.6 L8.9 83.25 Q8.5 81.95 8.6 80.6 8.75 79.05 9.6 77.8 14.6 78.4 19.55 75.65 24.15 73.15 24.4 70.55 L24.2 69.45 Q23.2 67.9 21.35 67.7 19.1 67.5 15.65 69.5 L11.85 72.0 Q11.15 71.6 6.1 67.05 5.95 66.7 6.05 65.45 6.2 63.5 7.35 58.5 8.6 52.8 9.3 52.15 L26.2 50.15 35.3 49.9 36.15 50.05 Q36.85 52.9 36.35 57.55 L22.2 58.05 14.75 58.15 M-9.95 59.95 Q-10.8 56.4 -10.55 55.15 -10.35 54.45 -7.45 52.6 L-3.7 50.3 -1.75 50.25 Q3.8 50.75 3.75 53.95 2.3 59.2 0.45 68.9 -1.55 79.45 -2.65 83.95 -4.65 85.4 -7.95 84.9 -8.3 84.55 -8.7 83.2 L-7.35 71.4 Q-6.55 64.7 -5.6 59.65 -5.55 59.4 -5.85 59.4 L-7.7 59.75 -9.6 60.05 -9.95 59.95" fill="#000000" fill-rule="evenodd" stroke="none"/>
    <path d="M25.55 -110.95 Q25.55 -119.1 19.9 -119.5 16.1 -119.85 10.75 -112.45 6.5 -104.75 6.5 -98.25 6.5 -95.6 7.7 -93.6 8.8 -91.75 11.0 -91.75 L12.4 -92.0 Q18.35 -94.15 21.95 -99.3 25.55 -104.5 25.55 -110.95 M38.75 -111.35 Q38.75 -100.1 30.7 -90.95 22.35 -81.65 11.15 -81.65 7.25 -81.65 3.75 -83.0 -3.15 -85.7 -3.7 -96.8 -4.25 -106.75 0.4 -115.35 5.2 -124.25 14.05 -128.3 17.35 -129.8 21.05 -129.8 25.75 -129.8 30.2 -127.4 38.75 -122.7 38.75 -111.35 M-25.8 -110.25 Q-27.85 -109.5 -28.9 -109.5 -29.65 -109.5 -30.1 -110.0 -32.0 -115.75 -31.8 -118.05 -31.6 -119.3 -27.0 -122.8 -22.7 -125.45 -21.4 -127.0 L-18.0 -127.4 Q-8.4 -127.4 -8.05 -121.5 -9.6 -113.0 -11.1 -97.7 -12.8 -80.75 -14.0 -73.45 -17.45 -70.55 -23.2 -70.9 -24.2 -71.65 -25.1 -74.0 L-24.65 -92.9 Q-24.25 -103.15 -23.5 -111.0 L-25.8 -110.25" fill="#000000" fill-rule="evenodd" stroke="none"/>
  </g>
</svg>
