<?xml version="1.0" encoding="UTF-8" standalone="no"?>
<svg xmlns:ffdec="https://www.free-decompiler.com/flash" xmlns:xlink="http://www.w3.org/1999/xlink" ffdec:objectType="shape" height="67.75px" width="67.75px" xmlns="http://www.w3.org/2000/svg">
  <g transform="matrix(1.0, 0.0, 0.0, 1.0, 33.85, 33.9)">
    <path d="M21.3 -19.9 Q16.7 -22.15 14.8 -22.15 L13.1 -21.95 -2.35 -5.4 Q-12.5 5.85 -16.1 12.15 L-15.65 13.0 Q-12.8 15.15 -8.8 15.25 9.95 -5.55 21.3 -19.9 M-16.1 -21.8 Q-8.25 -29.65 2.85 -29.65 13.95 -29.65 21.8 -21.8 29.65 -13.95 29.65 -2.85 29.65 8.25 21.8 16.1 13.95 23.95 2.85 23.95 -8.25 23.95 -16.1 16.1 -23.95 8.25 -23.95 -2.85 -23.95 -13.95 -16.1 -21.8" fill="#ffffff" fill-rule="evenodd" stroke="none"/>
    <path d="M21.3 -19.9 Q9.95 -5.55 -8.8 15.25 -12.8 15.15 -15.65 13.0 L-16.1 12.15 Q-12.5 5.85 -2.35 -5.4 L13.1 -21.95 14.8 -22.15 Q16.7 -22.15 21.3 -19.9 M2.85 -33.9 Q15.7 -33.9 24.8 -24.8 33.9 -15.7 33.9 -2.85 33.9 10.0 24.8 19.1 L21.85 21.8 19.15 24.75 Q10.05 33.85 -2.8 33.85 -15.65 33.85 -24.75 24.75 -33.85 15.65 -33.85 2.8 -33.85 -10.0 -24.75 -19.1 L-21.85 -21.65 -19.1 -24.8 Q-10.0 -33.9 2.85 -33.9 M-16.1 -21.8 Q-23.95 -13.95 -23.95 -2.85 -23.95 8.25 -16.1 16.1 -8.25 23.95 2.85 23.95 13.95 23.95 21.8 16.1 29.65 8.25 29.65 -2.85 29.65 -13.95 21.8 -21.8 13.95 -29.65 2.85 -29.65 -8.25 -29.65 -16.1 -21.8" fill="#3db44a" fill-rule="evenodd" stroke="none"/>
  </g>
</svg>
