<?xml version="1.0" encoding="UTF-8" standalone="no"?>
<svg xmlns:ffdec="https://www.free-decompiler.com/flash" xmlns:xlink="http://www.w3.org/1999/xlink" ffdec:objectType="shape" height="75.3px" width="71.6px" xmlns="http://www.w3.org/2000/svg">
  <g transform="matrix(1.0, 0.0, 0.0, 1.0, 35.8, 37.65)">
    <path d="M-28.05 -23.8 Q-29.25 -22.05 -28.9 -20.05 L-21.3 23.0 Q-20.95 25.05 -19.25 26.25 -17.6 27.4 -15.55 27.05 L27.5 19.45 Q29.55 19.1 30.7 17.45 31.95 15.75 31.6 13.7 L24.0 -29.35 Q23.65 -31.35 21.9 -32.6 20.25 -33.8 18.2 -33.45 L-24.85 -25.85 Q-26.9 -25.5 -28.05 -23.8 M-31.05 -26.7 Q-28.9 -29.3 -25.6 -29.9 L17.45 -37.5 Q21.15 -38.15 24.3 -35.95 27.4 -33.85 28.05 -30.1 L35.65 12.95 Q36.05 15.15 35.35 17.3 34.7 19.4 33.2 20.9 33.25 24.2 31.1 26.75 28.95 29.3 25.65 29.9 L-17.35 37.5 Q-21.1 38.15 -24.25 35.95 -27.4 33.85 -28.05 30.1 L-35.65 -12.95 Q-36.05 -15.15 -35.35 -17.3 -34.65 -19.35 -33.2 -20.95 -33.2 -24.2 -31.05 -26.7" fill="#000000" fill-rule="evenodd" stroke="none"/>
    <path d="M-28.05 -23.8 Q-26.9 -25.5 -24.85 -25.85 L18.2 -33.45 Q20.25 -33.8 21.9 -32.6 23.65 -31.35 24.0 -29.35 L31.6 13.7 Q31.95 15.75 30.7 17.45 29.55 19.1 27.5 19.45 L-15.55 27.05 Q-17.6 27.4 -19.25 26.25 -20.95 25.05 -21.3 23.0 L-28.9 -20.05 Q-29.25 -22.05 -28.05 -23.8" fill="#ffffff" fill-rule="evenodd" stroke="none"/>
    <path d="M18.95 -20.55 Q24.05 -18.8 25.1 -12.75 26.2 -6.6 22.7 -0.85 19.1 4.95 13.05 6.05 10.95 6.4 8.95 6.0 5.1 5.2 3.75 -0.6 2.5 -5.95 4.2 -11.1 5.95 -16.45 10.4 -19.5 12.05 -20.6 14.0 -20.95 L18.95 -20.55 M9.5 -10.15 Q7.75 -6.0 8.4 -2.25 8.7 -0.65 9.6 0.35 10.6 1.55 12.1 1.3 L13.0 0.95 Q16.25 -0.85 17.85 -4.3 19.35 -7.65 18.7 -11.35 17.85 -16.3 14.25 -16.0 11.8 -15.7 9.5 -10.15 M1.95 12.55 Q0.65 15.25 -0.05 15.65 -8.65 15.3 -19.0 10.85 L-19.45 9.65 -19.7 6.9 Q-19.7 4.7 -19.35 4.4 -15.95 2.85 -13.5 0.2 -10.4 -3.05 -10.95 -5.85 -11.15 -6.9 -12.75 -7.25 -13.85 -7.45 -15.1 -7.25 -16.5 -7.0 -18.25 -5.4 -19.45 -4.3 -20.3 -4.15 -21.05 -4.05 -22.85 -5.5 -24.65 -6.85 -24.75 -7.6 L-24.65 -7.9 Q-20.95 -11.75 -15.2 -13.1 L-13.7 -13.45 Q-5.4 -14.9 -4.3 -8.8 -4.05 -7.4 -4.25 -6.0 -5.55 1.15 -11.95 6.8 -10.2 7.6 -4.3 8.05 L3.0 8.25 Q3.25 9.55 1.95 12.55" fill="#000000" fill-rule="evenodd" stroke="none"/>
  </g>
</svg>
