<?xml version="1.0" encoding="UTF-8" standalone="no"?>
<svg xmlns:ffdec="https://www.free-decompiler.com/flash" xmlns:xlink="http://www.w3.org/1999/xlink" ffdec:objectType="shape" height="11.7px" width="25.5px" xmlns="http://www.w3.org/2000/svg">
  <g transform="matrix(1.0, 0.0, 0.0, 1.0, 11.95, 211.45)">
    <path d="M9.3 -202.95 Q9.3 -201.6 6.95 -200.7 4.6 -199.75 1.3 -199.75 -2.0 -199.75 -4.35 -200.7 -6.7 -201.6 -6.7 -202.95 -6.7 -204.25 -4.35 -205.15 -2.05 -206.05 1.3 -206.05 4.6 -206.05 6.95 -205.15 9.3 -204.25 9.3 -202.95" fill="#c19c7a" fill-rule="evenodd" stroke="none"/>
    <path d="M13.55 -209.85 Q13.55 -209.15 9.8 -208.65 L0.8 -208.15 -8.2 -208.65 Q-11.95 -209.15 -11.95 -209.85 -11.95 -210.5 -8.2 -210.95 L0.8 -211.45 9.8 -210.95 Q13.55 -210.5 13.55 -209.85" fill="#c19c7a" fill-rule="evenodd" stroke="none"/>
  </g>
</svg>
