<?xml version="1.0" encoding="UTF-8" standalone="no"?>
<svg xmlns:ffdec="https://www.free-decompiler.com/flash" xmlns:xlink="http://www.w3.org/1999/xlink" ffdec:objectType="shape" height="50.85px" width="72.0px" xmlns="http://www.w3.org/2000/svg">
  <g transform="matrix(1.0, 0.0, 0.0, 1.0, 36.0, 25.4)">
    <path d="M36.0 16.45 Q36.0 20.15 33.4 22.8 30.75 25.45 27.05 25.45 L-27.05 25.45 Q-30.75 25.45 -33.4 22.8 -36.0 20.15 -36.0 16.45 L-36.0 -16.45 Q-36.0 -20.15 -33.4 -22.8 -30.75 -25.4 -27.05 -25.4 L27.05 -25.4 Q30.75 -25.4 33.4 -22.8 36.0 -20.15 36.0 -16.45 L36.0 16.45" fill="#4d73b8" fill-rule="evenodd" stroke="none"/>
    <path d="M31.75 15.15 Q31.75 18.85 29.15 21.5 26.5 24.1 22.8 24.1 L-22.8 24.1 Q-26.5 24.1 -29.15 21.5 -31.75 18.85 -31.75 15.15 L-31.75 -9.3 Q-31.75 -13.0 -29.15 -15.65 -26.5 -18.25 -22.8 -18.25 L22.8 -18.25 Q26.5 -18.25 29.15 -15.65 31.75 -13.0 31.75 -9.3 L31.75 15.15" fill="#474190" fill-rule="evenodd" stroke="none"/>
    <path d="M31.75 12.25 Q31.75 15.95 29.15 18.6 26.5 21.2 22.8 21.2 L-22.8 21.2 Q-26.5 21.2 -29.15 18.6 -31.75 15.95 -31.75 12.25 L-31.75 -12.2 Q-31.75 -15.9 -29.15 -18.55 -26.5 -21.15 -22.8 -21.15 L22.8 -21.15 Q26.5 -21.15 29.15 -18.55 31.75 -15.9 31.75 -12.2 L31.75 12.25" fill="#191919" fill-rule="evenodd" stroke="none"/>
    <path d="M29.55 -12.2 L29.55 12.25 Q29.55 15.0 27.55 17.0 25.6 18.95 22.8 18.95 L-22.8 18.95 Q-25.6 18.95 -27.55 17.0 -29.55 15.0 -29.55 12.25 L-29.55 -12.2 Q-29.55 -14.95 -27.55 -16.95 -25.6 -18.9 -22.8 -18.9 L22.8 -18.9 Q25.6 -18.9 27.55 -16.95 29.55 -14.95 29.55 -12.2" fill="url(#gradient0)" fill-rule="evenodd" stroke="none"/>
    <path d="M14.45 0.35 Q20.4 -1.4 29.55 0.2 L29.55 12.15 Q29.55 14.95 27.55 16.95 25.6 18.9 22.8 18.9 L-22.8 18.9 Q-25.6 18.9 -27.55 16.95 -29.55 14.95 -29.55 12.15 L-29.55 -1.1 Q-28.8 1.45 -26.15 4.2 -20.85 9.65 -11.4 10.6 -4.85 11.25 1.25 7.2 9.5 1.75 14.45 0.35" fill="url(#gradient1)" fill-rule="evenodd" stroke="none"/>
    <path d="M6.8 -13.15 Q8.95 -11.1 8.95 -8.1 8.95 -3.45 4.05 -1.1 L4.05 -1.0 Q10.05 1.45 10.05 6.7 10.05 10.55 7.1 13.0 4.25 15.35 -0.05 15.35 -4.6 15.35 -7.4 12.95 -10.05 10.7 -10.05 7.3 -10.05 1.85 -4.15 -0.65 L-4.2 -0.8 Q-8.9 -3.0 -8.9 -7.5 -8.9 -11.0 -6.25 -13.2 -3.7 -15.4 0.3 -15.4 4.4 -15.4 6.8 -13.15 M3.95 -10.95 Q2.6 -12.5 0.05 -12.5 -2.35 -12.5 -3.8 -11.1 -5.1 -9.75 -5.1 -7.75 -5.1 -3.85 0.55 -2.25 5.1 -3.8 5.1 -7.65 5.1 -9.65 3.95 -10.95 M5.95 7.15 Q5.95 4.55 4.2 2.95 2.65 1.5 -0.6 0.6 -3.15 1.4 -4.55 3.0 -5.95 4.6 -5.95 6.75 -6.05 9.15 -4.45 10.75 -2.75 12.45 0.0 12.45 2.7 12.45 4.35 10.95 5.95 9.45 5.95 7.15" fill="#f1f1f2" fill-rule="evenodd" stroke="none"/>
  </g>
  <defs>
    <linearGradient gradientTransform="matrix(0.0, 0.0082, 0.0082, 0.0, 0.0, -11.95)" gradientUnits="userSpaceOnUse" id="gradient0" spreadMethod="pad" x1="-819.2" x2="819.2">
      <stop offset="0.0" stop-color="#ffffff"/>
      <stop offset="1.0" stop-color="#191919"/>
    </linearGradient>
    <linearGradient gradientTransform="matrix(0.0, 0.009, 0.009, 0.0, 0.0, 7.75)" gradientUnits="userSpaceOnUse" id="gradient1" spreadMethod="pad" x1="-819.2" x2="819.2">
      <stop offset="0.0" stop-color="#1e1e1e"/>
      <stop offset="1.0" stop-color="#3d3d3d"/>
    </linearGradient>
  </defs>
</svg>
