<?xml version="1.0" encoding="UTF-8" standalone="no"?>
<svg xmlns:ffdec="https://www.free-decompiler.com/flash" xmlns:xlink="http://www.w3.org/1999/xlink" ffdec:objectType="shape" height="1.3px" width="134.9px" xmlns="http://www.w3.org/2000/svg">
  <g transform="matrix(1.0, 0.0, 0.0, 1.0, 64.8, 240.4)">
    <path d="M-57.95 -240.4 L-53.1 -240.2 -51.1 -239.75 Q-51.1 -239.45 -53.1 -239.3 L-57.95 -239.1 -62.8 -239.3 Q-64.8 -239.45 -64.8 -239.75 L-62.8 -240.2 -57.95 -240.4 M-54.75 -240.2 L-56.15 -240.25 -57.55 -240.2 -58.15 -240.05 -57.55 -239.9 -56.15 -239.85 -54.75 -239.9 -54.15 -240.05 -54.75 -240.2" fill="#35312e" fill-rule="evenodd" stroke="none"/>
    <path d="M-56.15 -240.25 L-54.75 -240.2 -54.15 -240.05 -54.75 -239.9 -56.15 -239.85 -57.55 -239.9 -58.15 -240.05 -57.55 -240.2 -56.15 -240.25" fill="#ffffff" fill-rule="evenodd" stroke="none"/>
    <path d="M63.25 -240.4 L68.1 -240.2 70.1 -239.75 Q70.1 -239.45 68.1 -239.3 L63.25 -239.1 58.4 -239.3 Q56.4 -239.45 56.4 -239.75 L58.4 -240.2 63.25 -240.4 M66.6 -240.2 L65.2 -240.25 63.8 -240.2 63.2 -240.05 63.8 -239.9 65.2 -239.85 66.6 -239.9 67.2 -240.05 66.6 -240.2" fill="#35312e" fill-rule="evenodd" stroke="none"/>
    <path d="M65.2 -240.25 L66.6 -240.2 67.2 -240.05 66.6 -239.9 65.2 -239.85 63.8 -239.9 63.2 -240.05 63.8 -240.2 65.2 -240.25" fill="#ffffff" fill-rule="evenodd" stroke="none"/>
  </g>
</svg>
