<?xml version="1.0" encoding="UTF-8" standalone="no"?>
<svg xmlns:ffdec="https://www.free-decompiler.com/flash" xmlns:xlink="http://www.w3.org/1999/xlink" ffdec:objectType="shape" height="50.85px" width="72.0px" xmlns="http://www.w3.org/2000/svg">
  <g transform="matrix(1.0, 0.0, 0.0, 1.0, 36.0, 25.4)">
    <path d="M36.0 16.45 Q36.0 20.15 33.4 22.8 30.75 25.45 27.05 25.45 L-27.05 25.45 Q-30.75 25.45 -33.4 22.8 -36.0 20.15 -36.0 16.45 L-36.0 -16.45 Q-36.0 -20.15 -33.4 -22.8 -30.75 -25.4 -27.05 -25.4 L27.05 -25.4 Q30.75 -25.4 33.4 -22.8 36.0 -20.15 36.0 -16.45 L36.0 16.45" fill="#4d73b8" fill-rule="evenodd" stroke="none"/>
    <path d="M31.75 15.15 Q31.75 18.85 29.15 21.5 26.5 24.1 22.8 24.1 L-22.8 24.1 Q-26.5 24.1 -29.15 21.5 -31.75 18.85 -31.75 15.15 L-31.75 -9.3 Q-31.75 -13.0 -29.15 -15.65 -26.5 -18.25 -22.8 -18.25 L22.8 -18.25 Q26.5 -18.25 29.15 -15.65 31.75 -13.0 31.75 -9.3 L31.75 15.15" fill="#474190" fill-rule="evenodd" stroke="none"/>
    <path d="M31.75 12.25 Q31.75 15.95 29.15 18.6 26.5 21.2 22.8 21.2 L-22.8 21.2 Q-26.5 21.2 -29.15 18.6 -31.75 15.95 -31.75 12.25 L-31.75 -12.2 Q-31.75 -15.9 -29.15 -18.55 -26.5 -21.15 -22.8 -21.15 L22.8 -21.15 Q26.5 -21.15 29.15 -18.55 31.75 -15.9 31.75 -12.2 L31.75 12.25" fill="#191919" fill-rule="evenodd" stroke="none"/>
    <path d="M29.55 -12.2 L29.55 12.25 Q29.55 15.0 27.55 17.0 25.6 18.95 22.8 18.95 L-22.8 18.95 Q-25.6 18.95 -27.55 17.0 -29.55 15.0 -29.55 12.25 L-29.55 -12.2 Q-29.55 -14.95 -27.55 -16.95 -25.6 -18.9 -22.8 -18.9 L22.8 -18.9 Q25.6 -18.9 27.55 -16.95 29.55 -14.95 29.55 -12.2" fill="url(#gradient0)" fill-rule="evenodd" stroke="none"/>
    <path d="M14.45 0.35 Q20.4 -1.4 29.55 0.2 L29.55 12.15 Q29.55 14.95 27.55 16.95 25.6 18.9 22.8 18.9 L-22.8 18.9 Q-25.6 18.9 -27.55 16.95 -29.55 14.95 -29.55 12.15 L-29.55 -1.1 Q-28.8 1.45 -26.15 4.2 -20.85 9.65 -11.4 10.6 -4.85 11.25 1.25 7.2 9.5 1.75 14.45 0.35" fill="url(#gradient1)" fill-rule="evenodd" stroke="none"/>
    <path d="M8.7 -11.75 L-2.7 -11.75 -3.8 -4.1 -1.4 -4.3 Q2.4 -4.3 5.0 -2.7 9.25 -0.25 9.25 4.95 9.25 9.3 6.15 12.2 3.0 15.1 -1.8 15.1 -6.35 15.1 -9.25 13.3 L-8.2 10.2 Q-5.55 11.85 -1.85 11.85 1.1 11.85 3.1 10.15 5.2 8.3 5.2 5.4 5.15 2.35 3.15 0.65 0.95 -1.2 -3.35 -1.2 L-7.5 -0.85 -5.55 -15.15 8.7 -15.15 8.7 -11.75" fill="#f1f1f2" fill-rule="evenodd" stroke="none"/>
  </g>
  <defs>
    <linearGradient gradientTransform="matrix(0.0, 0.0082, 0.0082, 0.0, 0.0, -11.95)" gradientUnits="userSpaceOnUse" id="gradient0" spreadMethod="pad" x1="-819.2" x2="819.2">
      <stop offset="0.0" stop-color="#ffffff"/>
      <stop offset="1.0" stop-color="#191919"/>
    </linearGradient>
    <linearGradient gradientTransform="matrix(0.0, 0.009, 0.009, 0.0, 0.0, 7.75)" gradientUnits="userSpaceOnUse" id="gradient1" spreadMethod="pad" x1="-819.2" x2="819.2">
      <stop offset="0.0" stop-color="#1e1e1e"/>
      <stop offset="1.0" stop-color="#3d3d3d"/>
    </linearGradient>
  </defs>
</svg>
