<?xml version="1.0" encoding="UTF-8" standalone="no"?>
<svg xmlns:ffdec="https://www.free-decompiler.com/flash" xmlns:xlink="http://www.w3.org/1999/xlink" ffdec:objectType="shape" height="139.7px" width="294.85px" xmlns="http://www.w3.org/2000/svg">
  <g transform="matrix(1.0, 0.0, 0.0, 1.0, 159.3, 63.25)">
    <path d="M9.9 40.6 L1.3 32.0 -5.6 38.85 3.05 47.5 -5.55 56.05 1.35 62.95 9.9 54.35 18.55 62.95 25.35 56.1 16.8 47.5 25.3 38.9 18.5 32.05 9.9 40.6 M-15.45 22.1 Q-11.9 18.55 -6.8 18.55 L26.6 18.55 Q31.65 18.55 35.3 22.1 38.85 25.7 38.85 30.8 L38.85 64.2 Q38.85 69.25 35.3 72.85 31.65 76.45 26.6 76.45 L-6.8 76.45 Q-11.9 76.45 -15.45 72.85 -19.05 69.25 -19.05 64.2 L-19.05 30.8 Q-19.05 25.7 -15.45 22.1" fill="#ecd785" fill-rule="evenodd" stroke="none"/>
    <path d="M9.9 40.6 L18.5 32.05 25.3 38.9 16.8 47.5 25.35 56.1 18.55 62.95 9.9 54.35 1.35 62.95 -5.55 56.05 3.05 47.5 -5.6 38.85 1.3 32.0 9.9 40.6" fill="#ffffff" fill-rule="evenodd" stroke="none"/>
    <path d="M9.9 40.6 L18.5 32.05 25.3 38.9 16.8 47.5 25.35 56.1 18.55 62.95 9.9 54.35 1.35 62.95 -5.55 56.05 3.05 47.5 -5.6 38.85 1.3 32.0 9.9 40.6 Z" fill="none" stroke="#ffffff" stroke-linecap="butt" stroke-linejoin="miter-clip" stroke-miterlimit="4.0" stroke-width="2.0"/>
    <path d="M104.45 22.1 Q108.05 25.75 108.05 30.8 L108.05 64.2 Q108.05 69.25 104.45 72.9 100.85 76.45 95.8 76.45 L62.35 76.45 Q57.3 76.45 53.65 72.9 50.1 69.25 50.1 64.2 L50.1 30.8 Q50.1 25.75 53.65 22.1 57.3 18.5 62.35 18.5 L95.8 18.5 Q100.85 18.5 104.45 22.1" fill="#95ca98" fill-rule="evenodd" stroke="none"/>
    <path d="M95.85 38.75 L70.45 64.15 62.9 56.6 88.3 31.2 95.85 38.75" fill="#ffffff" fill-rule="evenodd" stroke="none"/>
    <path d="M95.85 38.75 L70.45 64.15 62.9 56.6 88.3 31.2 95.85 38.75 Z" fill="none" stroke="#ffffff" stroke-linecap="butt" stroke-linejoin="miter-clip" stroke-miterlimit="4.0" stroke-width="1.0"/>
    <path d="M-101.4 30.8 L-101.4 64.2 Q-101.4 68.65 -104.25 72.05 L-105.0 72.85 Q-108.65 76.45 -113.7 76.45 L-147.05 76.45 Q-152.15 76.45 -155.75 72.85 -159.3 69.25 -159.3 64.2 L-159.3 30.8 Q-159.3 25.75 -155.75 22.1 -152.15 18.55 -147.05 18.55 L-113.7 18.55 Q-108.65 18.55 -105.0 22.1 L-104.25 22.95 Q-101.4 26.3 -101.4 30.8 M-114.2 52.45 L-114.2 42.8 -146.85 42.8 -146.85 52.45 -114.2 52.45" fill="#95b5e1" fill-rule="evenodd" stroke="none"/>
    <path d="M-114.2 52.45 L-146.85 52.45 -146.85 42.8 -114.2 42.8 -114.2 52.45" fill="#ffffff" fill-rule="evenodd" stroke="none"/>
    <path d="M-114.2 52.45 L-146.85 52.45 -146.85 42.8 -114.2 42.8 -114.2 52.45 Z" fill="none" stroke="#ffffff" stroke-linecap="butt" stroke-linejoin="miter-clip" stroke-miterlimit="4.0" stroke-width="2.0"/>
    <path d="M17.6 -54.25 Q17.6 -58.15 20.35 -60.7 23.1 -63.25 28.1 -63.25 33.1 -63.25 35.85 -60.7 38.6 -58.15 38.6 -54.25 38.6 -51.8 37.35 -49.9 36.1 -48.05 33.8 -47.0 36.7 -45.85 38.25 -43.6 39.75 -41.35 39.75 -38.45 39.75 -33.6 36.65 -30.55 33.55 -27.55 28.4 -27.55 23.65 -27.55 20.5 -30.05 16.75 -33.0 16.75 -38.15 16.75 -41.0 18.15 -43.35 19.55 -45.75 22.6 -47.0 20.0 -48.1 18.8 -50.05 17.6 -51.95 17.6 -54.25 M23.95 -53.8 Q23.95 -51.75 25.1 -50.65 26.25 -49.55 28.1 -49.55 30.0 -49.55 31.15 -50.65 32.3 -51.8 32.3 -53.8 32.3 -55.7 31.2 -56.8 30.05 -57.95 28.2 -57.95 26.25 -57.95 25.1 -56.8 23.95 -55.65 23.95 -53.8 M31.7 -42.65 Q30.35 -44.15 28.2 -44.15 25.75 -44.15 24.55 -42.45 23.35 -40.75 23.35 -38.8 23.35 -36.0 24.75 -34.45 26.2 -32.9 28.3 -32.9 30.4 -32.9 31.75 -34.4 33.1 -35.9 33.1 -38.7 33.1 -41.2 31.7 -42.65 M57.35 -43.2 L81.8 -43.2 81.8 -37.05 57.35 -37.05 57.35 -43.2 M57.35 -53.8 L81.8 -53.8 81.8 -47.6 57.35 -47.6 57.35 -53.8 M124.2 -57.7 Q123.0 -57.7 122.05 -56.95 121.1 -56.15 120.55 -54.15 119.85 -51.55 119.85 -45.4 119.85 -39.25 120.5 -36.95 121.1 -34.65 122.05 -33.9 123.0 -33.1 124.2 -33.1 125.45 -33.1 126.4 -33.9 127.35 -34.65 127.85 -36.65 128.55 -39.25 128.55 -45.4 128.55 -51.55 127.95 -53.85 127.3 -56.15 126.4 -56.95 125.45 -57.7 124.2 -57.7 M132.15 -59.65 Q135.55 -55.35 135.55 -45.4 135.55 -35.5 132.15 -31.15 129.3 -27.55 124.2 -27.55 119.1 -27.55 116.0 -31.45 112.85 -35.4 112.85 -45.45 112.85 -55.35 116.3 -59.7 119.15 -63.25 124.2 -63.25 129.3 -63.25 132.15 -59.65 M97.15 -63.25 Q102.1 -63.25 105.1 -60.1 107.55 -57.55 107.55 -54.3 107.55 -49.7 102.5 -46.95 105.5 -46.3 107.35 -44.05 109.15 -41.8 109.15 -38.65 109.15 -34.05 105.75 -30.8 102.4 -27.55 97.4 -27.55 92.65 -27.55 89.5 -30.25 86.4 -33.0 85.9 -37.45 L92.4 -38.2 Q92.7 -35.75 94.05 -34.45 95.4 -33.1 97.35 -33.1 99.4 -33.1 100.85 -34.7 102.25 -36.25 102.25 -38.95 102.25 -41.45 100.9 -42.95 99.55 -44.4 97.6 -44.4 L94.5 -43.9 95.25 -49.4 Q97.95 -49.3 99.4 -50.55 100.8 -51.8 100.8 -53.9 100.8 -55.65 99.75 -56.7 98.7 -57.75 97.0 -57.75 95.25 -57.75 94.05 -56.55 92.85 -55.35 92.55 -53.1 L86.4 -54.15 Q87.05 -57.3 88.35 -59.2 89.65 -61.1 91.95 -62.15 94.3 -63.25 97.15 -63.25" fill="#000000" fill-rule="evenodd" stroke="none"/>
    <path d="M-110.5 -57.7 Q-112.6 -57.7 -113.85 -56.45 -115.05 -55.2 -115.25 -52.25 L-121.95 -52.9 Q-121.35 -58.45 -118.2 -60.85 -115.05 -63.25 -110.35 -63.25 -105.15 -63.25 -102.2 -60.5 -99.25 -57.7 -99.25 -53.55 -99.25 -51.2 -100.05 -49.05 -100.9 -46.9 -102.75 -44.55 -104.0 -43.0 -107.15 -40.1 L-111.15 -36.25 -112.55 -34.4 -99.25 -34.4 -99.25 -28.15 -122.75 -28.15 Q-122.35 -31.7 -120.45 -34.85 -118.55 -38.0 -112.9 -43.25 -108.35 -47.45 -107.35 -48.95 -105.95 -51.05 -105.95 -53.05 -105.95 -55.3 -107.15 -56.5 -108.35 -57.7 -110.5 -57.7 M-94.75 -52.9 Q-94.15 -58.45 -91.0 -60.85 -87.85 -63.25 -83.15 -63.25 -77.95 -63.25 -75.0 -60.5 -72.05 -57.7 -72.05 -53.55 -72.05 -51.2 -72.85 -49.05 -73.7 -46.9 -75.55 -44.55 -76.8 -43.0 -79.95 -40.1 L-83.95 -36.25 -85.35 -34.4 -72.05 -34.4 -72.05 -28.15 -95.55 -28.15 Q-95.15 -31.7 -93.25 -34.85 -91.35 -38.0 -85.7 -43.25 -81.15 -47.45 -80.15 -48.95 -78.75 -51.05 -78.75 -53.05 -78.75 -55.3 -79.95 -56.5 -81.15 -57.7 -83.3 -57.7 -85.4 -57.7 -86.65 -56.45 -87.85 -55.2 -88.05 -52.25 L-94.75 -52.9" fill="#000000" fill-rule="evenodd" stroke="none"/>
  </g>
</svg>
