<?xml version="1.0" encoding="UTF-8" standalone="no"?>
<svg xmlns:ffdec="https://www.free-decompiler.com/flash" xmlns:xlink="http://www.w3.org/1999/xlink" ffdec:objectType="shape" height="58.0px" width="57.95px" xmlns="http://www.w3.org/2000/svg">
  <g transform="matrix(1.0, 0.0, 0.0, 1.0, 29.0, 29.0)">
    <path d="M-25.45 -25.4 Q-21.8 -29.0 -16.75 -29.0 L16.65 -29.0 Q21.7 -29.0 25.35 -25.4 28.95 -21.75 28.95 -16.7 L28.95 16.7 Q28.95 21.75 25.35 25.4 21.7 29.0 16.65 29.0 L-16.75 29.0 Q-21.8 29.0 -25.45 25.4 -29.0 21.75 -29.0 16.7 L-29.0 -16.7 Q-29.0 -21.75 -25.45 -25.4" fill="#e59a83" fill-rule="evenodd" stroke="none"/>
    <path d="M-19.65 4.25 L-19.65 -4.35 -4.45 -4.35 -4.45 -20.2 4.4 -20.2 4.35 -4.35 19.55 -4.35 19.55 4.25 4.4 4.25 4.4 20.2 -4.45 20.2 -4.45 4.25 -19.65 4.25" fill="#ffffff" fill-rule="evenodd" stroke="none"/>
  </g>
</svg>
