<?xml version="1.0" encoding="UTF-8" standalone="no"?>
<svg xmlns:ffdec="https://www.free-decompiler.com/flash" xmlns:xlink="http://www.w3.org/1999/xlink" ffdec:objectType="shape" height="638.7px" width="629.05px" xmlns="http://www.w3.org/2000/svg">
  <g transform="matrix(1.0, 0.0, 0.0, 1.0, 0.0, 0.0)">
    <path d="M269.85 412.3 L244.75 272.5 378.85 395.7 406.4 634.0 269.85 412.3 M86.7 385.6 L242.1 271.3 267.0 410.0 123.9 542.45 86.7 385.6 M91.85 343.95 L19.95 251.45 89.65 364.55 225.05 263.7 91.85 343.95 M0.05 242.55 L84.25 385.6 120.15 537.05 49.25 394.45 0.05 242.55 M125.8 163.25 L91.05 183.1 71.6 115.35 125.8 163.25 M151.7 160.35 L90.8 122.3 143.0 161.45 31.05 227.6 151.7 160.35 M254.75 29.6 L319.3 52.0 255.85 25.45 90.05 109.55 254.75 29.6 M458.45 100.3 L547.4 36.25 444.2 102.1 569.55 142.5 458.45 100.3 M378.5 375.4 L603.95 161.45 378.1 354.85 254.1 261.1 378.5 375.4 M381.25 395.55 L624.75 152.1 629.05 329.05 409.35 638.7 381.25 395.55 M330.9 47.75 L414.65 0.0 579.6 19.65 472.9 98.65 622.5 150.95 379.95 393.45 243.05 267.65 85.7 383.4 0.0 237.75 129.9 163.7 70.35 111.05 70.2 110.5 255.0 21.2 330.9 47.75 M418.45 5.1 L341.7 51.6 417.65 11.6 548.1 22.55 418.45 5.1 M586.05 110.8 L568.4 129.5 477.95 97.85 581.95 20.9 586.05 110.8" fill="#ffffff" fill-rule="evenodd" stroke="none"/>
  </g>
</svg>
