<?xml version="1.0" encoding="UTF-8" standalone="no"?>
<svg xmlns:ffdec="https://www.free-decompiler.com/flash" xmlns:xlink="http://www.w3.org/1999/xlink" ffdec:objectType="shape" height="110.65px" width="72.05px" xmlns="http://www.w3.org/2000/svg">
  <g transform="matrix(1.0, 0.0, 0.0, 1.0, 36.0, 55.3)">
    <path d="M27.05 -55.3 Q30.75 -55.3 33.4 -52.65 36.05 -50.0 36.05 -46.3 L36.05 46.35 Q36.05 50.05 33.4 52.7 30.75 55.35 27.05 55.35 L-27.0 55.35 Q-30.7 55.35 -33.35 52.7 -36.0 50.05 -36.0 46.35 L-36.0 -46.3 Q-36.0 -50.0 -33.35 -52.65 -30.7 -55.3 -27.0 -55.3 L27.05 -55.3" fill="#4d73b8" fill-rule="evenodd" stroke="none"/>
    <path d="M-21.65 9.4 L21.7 9.4 Q25.2 9.4 27.75 11.85 30.2 14.35 30.2 17.9 L30.2 41.05 Q30.2 44.6 27.75 47.1 25.2 49.6 21.7 49.6 L-21.65 49.6 Q-25.2 49.6 -27.7 47.1 -30.15 44.6 -30.15 41.05 L-30.15 17.9 Q-30.15 14.35 -27.7 11.85 -25.2 9.4 -21.65 9.4" fill="#474190" fill-rule="evenodd" stroke="none"/>
    <path d="M21.7 -48.5 Q25.2 -48.5 27.75 -46.05 30.2 -43.55 30.2 -40.0 L30.2 40.05 Q30.2 43.55 27.75 46.05 25.2 48.55 21.7 48.55 L-21.65 48.55 Q-25.2 48.55 -27.7 46.05 -30.15 43.55 -30.15 40.05 L-30.15 -40.0 Q-30.15 -43.55 -27.7 -46.05 -25.2 -48.5 -21.65 -48.5 L21.7 -48.5" fill="#dc6f3f" fill-rule="evenodd" stroke="none"/>
    <path d="M21.7 -46.4 Q24.35 -46.4 26.2 -44.5 28.05 -42.6 28.05 -39.95 L28.05 40.05 Q28.05 42.7 26.2 44.55 24.35 46.4 21.7 46.4 L-21.65 46.4 Q-24.25 46.4 -26.15 44.55 -28.05 42.7 -28.05 40.05 L-28.05 -39.95 Q-28.05 -42.6 -26.15 -44.5 -24.3 -46.4 -21.65 -46.4 L21.7 -46.4" fill="url(#gradient0)" fill-rule="evenodd" stroke="none"/>
    <path d="M13.75 0.3 Q19.5 -1.4 28.1 0.15 L28.1 40.05 Q28.1 42.7 26.25 44.55 24.4 46.4 21.75 46.4 L-21.65 46.4 Q-24.25 46.4 -26.15 44.55 -28.0 42.7 -28.0 40.05 L-28.0 -1.1 Q-27.3 1.3 -24.75 3.95 -19.75 9.1 -10.75 10.0 -4.55 10.65 1.2 6.85 9.1 1.6 13.75 0.3" fill="url(#gradient1)" fill-rule="evenodd" stroke="none"/>
    <path d="M17.15 -7.65 L7.45 -5.9 Q6.95 -8.8 5.25 -10.3 3.5 -11.8 0.7 -11.8 -3.0 -11.8 -5.2 -9.2 -7.4 -6.65 -7.4 -0.7 -7.4 5.95 -5.15 8.7 -2.95 11.45 0.85 11.45 3.65 11.45 5.4 9.85 7.2 8.25 8.0 4.35 L17.65 6.0 Q16.15 12.65 11.85 16.05 7.55 19.5 0.4 19.5 -7.8 19.5 -12.65 14.3 -17.6 9.15 -17.6 0.0 -17.6 -9.25 -12.65 -14.4 -7.75 -19.5 0.55 -19.5 7.35 -19.5 11.4 -16.6 15.4 -13.65 17.15 -7.65" fill="#ffffff" fill-rule="evenodd" stroke="none"/>
  </g>
  <defs>
    <linearGradient gradientTransform="matrix(0.0, 0.0085, 0.0085, 0.0, 0.0, -39.4)" gradientUnits="userSpaceOnUse" id="gradient0" spreadMethod="pad" x1="-819.2" x2="819.2">
      <stop offset="0.0" stop-color="#ffffff"/>
      <stop offset="0.996078431372549" stop-color="#dc6e3f"/>
    </linearGradient>
    <linearGradient gradientTransform="matrix(0.0, 0.0213, 0.0213, 0.0, 0.0, 20.0)" gradientUnits="userSpaceOnUse" id="gradient1" spreadMethod="pad" x1="-819.2" x2="819.2">
      <stop offset="0.0" stop-color="#823130"/>
      <stop offset="1.0" stop-color="#d8543e"/>
    </linearGradient>
  </defs>
</svg>
