<?xml version="1.0" encoding="UTF-8" standalone="no"?>
<svg xmlns:ffdec="https://www.free-decompiler.com/flash" xmlns:xlink="http://www.w3.org/1999/xlink" ffdec:objectType="shape" height="40.8px" width="40.8px" xmlns="http://www.w3.org/2000/svg">
  <g transform="matrix(1.0, 0.0, 0.0, 1.0, 20.9, 20.45)">
    <path d="M19.9 11.7 Q19.9 15.25 17.4 17.85 14.85 20.35 11.25 20.35 L-12.25 20.35 Q-15.8 20.35 -18.4 17.85 -20.9 15.25 -20.9 11.7 L-20.9 -11.8 Q-20.9 -15.4 -18.4 -17.95 -15.8 -20.45 -12.25 -20.45 L11.25 -20.45 Q14.85 -20.45 17.4 -17.95 19.9 -15.4 19.9 -11.8 L19.9 11.7" fill="#393838" fill-rule="evenodd" stroke="none"/>
    <path d="M0.9 -14.25 Q2.6 -14.25 4.2 -13.35 5.8 -12.45 7.0 -10.75 8.3 -8.95 9.0 -6.4 9.8 -3.9 9.8 -0.45 9.8 3.45 8.85 6.1 7.95 8.85 6.4 10.7 4.9 12.55 2.8 13.45 0.8 14.35 -1.6 14.35 -5.15 14.35 -7.4 11.7 -10.8 7.55 -10.8 1.9 -10.8 -1.15 -9.8 -4.0 -8.8 -6.95 -7.2 -9.2 -5.6 -11.5 -3.4 -12.9 -1.35 -14.25 0.9 -14.25 M-4.35 -6.55 Q-5.35 -5.15 -6.0 -3.0 -6.65 -0.9 -6.65 1.25 -6.65 5.45 -5.25 7.9 -3.85 10.35 -1.15 10.35 0.2 10.35 1.55 9.45 2.8 8.65 3.8 7.0 4.8 5.4 5.35 3.4 5.9 1.25 5.9 -1.1 L5.6 -4.75 Q5.2 -7.2 4.0 -8.5 2.8 -9.85 0.85 -9.85 -0.6 -9.85 -1.95 -8.95 -3.3 -8.1 -4.35 -6.55" fill="#ffffff" fill-rule="evenodd" stroke="none"/>
  </g>
</svg>
