<?xml version="1.0" encoding="UTF-8" standalone="no"?>
<svg xmlns:ffdec="https://www.free-decompiler.com/flash" xmlns:xlink="http://www.w3.org/1999/xlink" ffdec:objectType="shape" height="56.1px" width="56.1px" xmlns="http://www.w3.org/2000/svg">
  <g transform="matrix(1.0, 0.0, 0.0, 1.0, 28.55, 28.1)">
    <path d="M27.55 16.1 Q27.55 21.0 24.1 24.55 20.6 28.0 15.65 28.0 L-16.65 28.0 Q-21.55 28.0 -25.1 24.55 -28.55 21.0 -28.55 16.1 L-28.55 -16.2 Q-28.55 -21.15 -25.1 -24.65 -21.55 -28.1 -16.65 -28.1 L15.65 -28.1 Q20.6 -28.1 24.1 -24.65 27.55 -21.15 27.55 -16.2 L27.55 16.1" fill="#393838" fill-rule="evenodd" stroke="none"/>
    <path d="M1.4 -19.6 Q3.75 -19.6 5.95 -18.35 8.2 -17.1 9.85 -14.75 11.6 -12.25 12.6 -8.8 13.65 -5.35 13.65 -0.6 13.65 4.8 12.35 8.4 11.1 12.2 9.0 14.75 6.9 17.25 4.0 18.55 1.25 19.75 -2.05 19.75 -6.9 19.75 -10.0 16.1 -14.7 10.4 -14.7 2.65 -14.7 -1.6 -13.3 -5.5 -11.9 -9.55 -9.7 -12.65 -7.5 -15.8 -4.5 -17.7 -1.65 -19.6 1.4 -19.6 M-2.5 -12.25 Q-4.35 -11.1 -5.8 -9.0 -7.15 -7.05 -8.1 -4.1 -8.95 -1.2 -8.95 1.7 -8.95 7.55 -7.05 10.9 -5.1 14.25 -1.4 14.25 0.5 14.25 2.3 13.05 4.05 11.9 5.45 9.65 6.8 7.45 7.55 4.7 8.3 1.7 8.3 -1.5 8.3 -4.0 7.9 -6.5 7.35 -9.9 5.7 -11.65 4.0 -13.55 1.35 -13.55 -0.6 -13.55 -2.5 -12.25" fill="#ffffff" fill-rule="evenodd" stroke="none"/>
  </g>
</svg>
