<?xml version="1.0" encoding="UTF-8" standalone="no"?>
<svg xmlns:ffdec="https://www.free-decompiler.com/flash" xmlns:xlink="http://www.w3.org/1999/xlink" ffdec:objectType="shape" height="51.0px" width="51.0px" xmlns="http://www.w3.org/2000/svg">
  <g transform="matrix(1.0, 0.0, 0.0, 1.0, 27.0, 25.55)">
    <path d="M24.0 14.65 Q24.0 19.1 20.85 22.3 17.7 25.45 13.2 25.45 L-16.2 25.45 Q-20.65 25.45 -23.85 22.3 -27.0 19.1 -27.0 14.65 L-27.0 -14.75 Q-27.0 -19.25 -23.85 -22.4 -20.65 -25.55 -16.2 -25.55 L13.2 -25.55 Q17.7 -25.55 20.85 -22.4 24.0 -19.25 24.0 -14.75 L24.0 14.65" fill="#393838" fill-rule="evenodd" stroke="none"/>
    <path d="M-0.95 -13.65 Q-5.1 -13.65 -9.1 -10.15 L-12.25 -14.2 Q-6.55 -19.1 -0.75 -19.1 3.25 -19.1 5.7 -16.7 8.2 -14.35 8.2 -10.15 8.2 -0.1 -5.6 11.8 L9.95 12.4 9.95 17.45 4.95 17.0 0.55 16.85 Q-6.5 16.85 -12.65 18.5 L-14.9 15.6 -8.0 9.2 Q-4.65 5.85 -2.1 2.55 0.45 -0.85 2.0 -3.85 3.5 -7.0 3.5 -9.35 3.5 -13.65 -0.95 -13.65" fill="#ffffff" fill-rule="evenodd" stroke="none"/>
  </g>
</svg>
