<?xml version="1.0" encoding="UTF-8" standalone="no"?>
<svg xmlns:ffdec="https://www.free-decompiler.com/flash" xmlns:xlink="http://www.w3.org/1999/xlink" ffdec:objectType="shape" height="56.1px" width="56.1px" xmlns="http://www.w3.org/2000/svg">
  <g transform="matrix(1.0, 0.0, 0.0, 1.0, 29.55, 28.1)">
    <path d="M26.55 16.1 Q26.55 21.0 23.1 24.55 19.6 28.0 14.65 28.0 L-17.65 28.0 Q-22.55 28.0 -26.1 24.55 -29.55 21.0 -29.55 16.1 L-29.55 -16.2 Q-29.55 -21.15 -26.1 -24.65 -22.55 -28.1 -17.65 -28.1 L14.65 -28.1 Q19.6 -28.1 23.1 -24.65 26.55 -21.15 26.55 -16.2 L26.55 16.1" fill="#393838" fill-rule="evenodd" stroke="none"/>
    <path d="M-0.9 -15.0 Q-5.45 -15.0 -9.85 -11.15 L-13.35 -15.6 Q-7.05 -21.0 -0.7 -21.0 3.7 -21.0 6.4 -18.35 9.15 -15.8 9.15 -11.15 9.15 -0.1 -6.0 13.0 L11.1 13.65 11.1 19.2 5.6 18.7 0.75 18.55 Q-7.0 18.55 -13.75 20.35 L-16.25 17.15 Q-12.45 13.95 -8.65 10.1 -4.95 6.45 -2.15 2.8 0.65 -0.95 2.35 -4.25 4.0 -7.7 4.0 -10.3 4.0 -15.0 -0.9 -15.0" fill="#ffffff" fill-rule="evenodd" stroke="none"/>
  </g>
</svg>
