<?xml version="1.0" encoding="UTF-8" standalone="no"?>
<svg xmlns:ffdec="https://www.free-decompiler.com/flash" xmlns:xlink="http://www.w3.org/1999/xlink" ffdec:objectType="shape" height="40.8px" width="40.8px" xmlns="http://www.w3.org/2000/svg">
  <g transform="matrix(1.0, 0.0, 0.0, 1.0, 21.9, 20.45)">
    <path d="M18.9 11.7 Q18.9 15.25 16.4 17.85 13.85 20.35 10.25 20.35 L-13.25 20.35 Q-16.8 20.35 -19.4 17.85 -21.9 15.25 -21.9 11.7 L-21.9 -11.8 Q-21.9 -15.4 -19.4 -17.95 -16.8 -20.45 -13.25 -20.45 L10.25 -20.45 Q13.85 -20.45 16.4 -17.95 18.9 -15.4 18.9 -11.8 L18.9 11.7" fill="#393838" fill-rule="evenodd" stroke="none"/>
    <path d="M-1.05 -10.95 Q-4.4 -10.95 -7.6 -8.15 L-10.1 -11.35 Q-5.55 -15.3 -0.9 -15.3 2.3 -15.3 4.25 -13.35 6.25 -11.5 6.25 -8.15 6.25 -0.1 -4.8 9.45 L7.65 9.9 7.65 13.95 3.65 13.6 0.15 13.45 Q-5.5 13.45 -10.4 14.8 L-12.2 12.45 -6.7 7.35 Q-4.0 4.65 -2.0 2.05 0.05 -0.7 1.3 -3.1 2.5 -5.6 2.5 -7.5 2.5 -10.95 -1.05 -10.95" fill="#ffffff" fill-rule="evenodd" stroke="none"/>
  </g>
</svg>
