<?xml version="1.0" encoding="UTF-8" standalone="no"?>
<svg xmlns:ffdec="https://www.free-decompiler.com/flash" xmlns:xlink="http://www.w3.org/1999/xlink" ffdec:objectType="shape" height="51.0px" width="51.05px" xmlns="http://www.w3.org/2000/svg">
  <g transform="matrix(1.0, 0.0, 0.0, 1.0, 26.0, 25.55)">
    <path d="M25.05 14.65 Q25.05 19.1 21.9 22.3 18.7 25.45 14.25 25.45 L-15.2 25.45 Q-19.65 25.45 -22.85 22.3 -26.0 19.1 -26.0 14.65 L-26.0 -14.75 Q-26.0 -19.25 -22.85 -22.4 -19.65 -25.55 -15.2 -25.55 L14.25 -25.55 Q18.7 -25.55 21.9 -22.4 25.05 -19.25 25.05 -14.75 L25.05 14.65" fill="#393838" fill-rule="evenodd" stroke="none"/>
    <path d="M8.95 -14.85 L10.3 -12.95 11.25 -10.65 Q9.7 -5.65 3.45 -2.2 13.1 1.55 13.1 8.1 13.1 10.35 11.95 12.35 10.7 14.4 8.8 15.9 6.8 17.45 4.25 18.25 1.85 19.1 -1.2 19.1 -7.6 19.1 -13.95 15.1 L-11.55 10.65 Q-6.35 14.2 -0.35 14.2 6.0 14.2 8.55 9.55 8.4 7.8 7.5 6.2 6.55 4.65 5.0 3.5 3.4 2.35 1.45 1.7 -0.5 1.05 -2.8 1.05 L-5.2 1.3 -5.75 -3.0 Q-3.4 -3.35 -1.35 -4.0 0.65 -4.65 2.0 -5.5 3.6 -6.6 4.6 -7.8 5.8 -9.05 6.85 -10.95 4.5 -12.2 1.75 -12.2 -2.4 -12.2 -7.5 -9.35 L-9.05 -14.15 Q-2.0 -16.6 3.15 -16.6 L6.75 -16.15 Q8.1 -15.7 8.95 -14.85" fill="#ffffff" fill-rule="evenodd" stroke="none"/>
  </g>
</svg>
