<?xml version="1.0" encoding="UTF-8" standalone="no"?>
<svg xmlns:ffdec="https://www.free-decompiler.com/flash" xmlns:xlink="http://www.w3.org/1999/xlink" ffdec:objectType="shape" height="56.1px" width="56.15px" xmlns="http://www.w3.org/2000/svg">
  <g transform="matrix(1.0, 0.0, 0.0, 1.0, 28.55, 28.1)">
    <path d="M27.6 16.1 Q27.6 21.0 24.15 24.55 20.6 28.0 15.7 28.0 L-16.65 28.0 Q-21.55 28.0 -25.1 24.55 -28.55 21.0 -28.55 16.1 L-28.55 -16.2 Q-28.55 -21.15 -25.1 -24.65 -21.55 -28.1 -16.65 -28.1 L15.7 -28.1 Q20.6 -28.1 24.15 -24.65 27.6 -21.15 27.6 -16.2 L27.6 16.1" fill="#393838" fill-rule="evenodd" stroke="none"/>
    <path d="M9.9 -16.35 Q10.9 -15.45 11.4 -14.25 L12.4 -11.7 Q10.7 -6.2 3.85 -2.4 14.45 1.7 14.45 8.9 14.45 11.4 13.2 13.6 11.8 15.85 9.75 17.5 7.55 19.2 4.7 20.1 2.1 21.0 -1.25 21.0 -8.3 21.0 -15.3 16.6 L-12.65 11.7 Q-6.95 15.6 -0.35 15.6 6.65 15.6 9.45 10.5 9.3 8.6 8.3 6.8 7.25 5.1 5.55 3.85 3.8 2.6 1.65 1.85 -0.5 1.15 -3.05 1.15 L-5.65 1.45 -6.3 -3.3 Q-3.7 -3.7 -1.45 -4.4 0.75 -5.1 2.25 -6.05 4.0 -7.25 5.1 -8.6 6.45 -9.95 7.6 -12.05 5.0 -13.4 1.95 -13.4 -2.6 -13.4 -8.2 -10.3 L-9.9 -15.55 Q-2.15 -18.25 3.5 -18.25 L7.45 -17.75 Q8.95 -17.25 9.9 -16.35" fill="#ffffff" fill-rule="evenodd" stroke="none"/>
  </g>
</svg>
