<?xml version="1.0" encoding="UTF-8" standalone="no"?>
<svg xmlns:ffdec="https://www.free-decompiler.com/flash" xmlns:xlink="http://www.w3.org/1999/xlink" ffdec:objectType="shape" height="51.0px" width="51.0px" xmlns="http://www.w3.org/2000/svg">
  <g transform="matrix(1.0, 0.0, 0.0, 1.0, 25.0, 25.55)">
    <path d="M26.0 14.65 Q26.0 19.15 22.85 22.3 19.7 25.45 15.2 25.45 L-14.2 25.45 Q-18.65 25.45 -21.85 22.3 -25.0 19.15 -25.0 14.65 L-25.0 -14.75 Q-25.0 -19.2 -21.85 -22.4 -18.65 -25.55 -14.2 -25.55 L15.2 -25.55 Q19.7 -25.55 22.85 -22.4 26.0 -19.2 26.0 -14.75 L26.0 14.65" fill="#393838" fill-rule="evenodd" stroke="none"/>
    <path d="M10.55 -15.6 L9.8 1.0 12.7 0.65 12.7 5.7 9.8 5.6 9.35 18.45 4.3 18.15 4.7 12.05 4.95 5.75 -5.55 6.2 -13.0 6.65 -14.4 4.15 Q-10.85 -0.7 -7.9 -5.35 -5.35 -9.3 -2.65 -14.15 L1.75 -11.75 Q-1.95 -4.85 -7.15 1.7 L0.0 1.45 5.5 1.0 5.5 -15.85 10.55 -15.6" fill="#ffffff" fill-rule="evenodd" stroke="none"/>
  </g>
</svg>
