<?xml version="1.0" encoding="UTF-8" standalone="no"?>
<svg xmlns:ffdec="https://www.free-decompiler.com/flash" xmlns:xlink="http://www.w3.org/1999/xlink" ffdec:objectType="shape" height="11.4px" width="140.15px" xmlns="http://www.w3.org/2000/svg">
  <g transform="matrix(1.0, 0.0, 0.0, 1.0, 67.55, 243.85)">
    <path d="M-67.55 -232.45 Q-67.4 -237.6 -64.35 -240.75 -61.6 -243.55 -57.6 -243.85 -53.7 -244.1 -50.8 -241.75 -47.65 -239.2 -47.4 -234.6 -50.1 -237.85 -55.95 -238.45 -63.35 -239.25 -67.55 -232.45 M62.7 -243.85 Q66.65 -243.55 69.4 -240.75 72.5 -237.6 72.6 -232.45 68.4 -239.25 61.0 -238.45 55.15 -237.85 52.45 -234.6 52.7 -239.2 55.85 -241.75 58.75 -244.1 62.7 -243.85" fill="#35312e" fill-rule="evenodd" stroke="none"/>
  </g>
</svg>
