<?xml version="1.0" encoding="UTF-8" standalone="no"?>
<svg xmlns:ffdec="https://www.free-decompiler.com/flash" xmlns:xlink="http://www.w3.org/1999/xlink" ffdec:objectType="shape" height="40.8px" width="40.8px" xmlns="http://www.w3.org/2000/svg">
  <g transform="matrix(1.0, 0.0, 0.0, 1.0, 19.9, 20.45)">
    <path d="M20.9 11.7 Q20.9 15.3 18.4 17.85 15.85 20.35 12.25 20.35 L-11.25 20.35 Q-14.8 20.35 -17.4 17.85 -19.9 15.3 -19.9 11.7 L-19.9 -11.8 Q-19.9 -15.35 -17.4 -17.95 -14.8 -20.45 -11.25 -20.45 L12.25 -20.45 Q15.85 -20.45 18.4 -17.95 20.9 -15.35 20.9 -11.8 L20.9 11.7" fill="#393838" fill-rule="evenodd" stroke="none"/>
    <path d="M8.55 -12.5 L7.95 0.8 10.25 0.5 10.25 4.55 7.95 4.45 7.6 14.75 3.55 14.5 3.85 9.65 4.05 4.6 -4.35 4.95 -10.3 5.3 -11.4 3.3 -6.2 -4.3 -2.0 -11.35 1.5 -9.4 Q-1.45 -3.9 -5.6 1.35 L0.1 1.15 4.5 0.8 4.5 -12.7 8.55 -12.5" fill="#ffffff" fill-rule="evenodd" stroke="none"/>
  </g>
</svg>
