<?xml version="1.0" encoding="UTF-8" standalone="no"?>
<svg xmlns:ffdec="https://www.free-decompiler.com/flash" xmlns:xlink="http://www.w3.org/1999/xlink" ffdec:objectType="shape" height="50.0px" width="50.0px" xmlns="http://www.w3.org/2000/svg">
  <g transform="matrix(1.0, 0.0, 0.0, 1.0, 24.5, 25.05)">
    <path d="M2.65 -11.5 L11.95 -11.75 11.65 -16.8 1.35 -16.3 Q-3.65 -16.15 -8.55 -16.15 -9.0 -7.2 -12.25 -1.85 L-9.1 0.7 Q-6.0 -1.1 -2.25 -1.1 3.2 -1.1 6.4 0.95 9.5 3.05 9.65 6.4 9.65 7.9 8.9 9.15 8.2 10.35 6.75 11.4 5.45 12.35 3.2 13.0 L-1.6 13.6 Q-6.2 13.6 -11.75 11.5 L-13.3 16.3 Q-7.8 18.4 -2.15 18.4 L4.15 17.6 Q7.55 16.7 9.7 15.35 12.15 13.95 13.7 11.85 15.2 9.75 15.2 7.15 15.2 4.6 13.8 2.3 12.4 0.05 9.9 -1.6 7.55 -3.25 4.2 -4.25 0.8 -5.2 -2.7 -5.2 L-6.35 -4.8 Q-5.3 -7.95 -4.65 -11.65 -1.4 -11.5 2.65 -11.5 M15.2 -25.05 Q19.5 -25.05 22.5 -22.05 25.5 -19.0 25.5 -14.75 L25.5 14.65 Q25.5 18.95 22.5 21.95 19.5 24.95 15.2 24.95 L-14.2 24.95 Q-18.45 24.95 -21.5 21.95 -24.5 18.95 -24.5 14.65 L-24.5 -14.75 Q-24.5 -19.0 -21.5 -22.05 -18.45 -25.05 -14.2 -25.05 L15.2 -25.05" fill="#393838" fill-rule="evenodd" stroke="none"/>
    <path d="M11.95 -11.75 L2.65 -11.5 Q-1.4 -11.5 -4.65 -11.65 -5.3 -7.95 -6.35 -4.8 L-2.7 -5.2 Q0.8 -5.2 4.2 -4.25 7.55 -3.25 9.9 -1.6 12.4 0.05 13.8 2.3 15.2 4.6 15.2 7.15 15.2 9.75 13.7 11.85 12.15 13.95 9.7 15.35 7.55 16.7 4.15 17.6 L-2.15 18.4 Q-7.8 18.4 -13.3 16.3 L-11.75 11.5 Q-6.2 13.6 -1.6 13.6 L3.2 13.0 Q5.45 12.35 6.75 11.4 8.2 10.35 8.9 9.15 9.65 7.9 9.65 6.4 9.5 3.05 6.4 0.95 3.2 -1.1 -2.25 -1.1 -6.0 -1.1 -9.1 0.7 L-12.25 -1.85 Q-9.0 -7.2 -8.55 -16.15 -3.65 -16.15 1.35 -16.3 L11.65 -16.8 11.95 -11.75" fill="#ffffff" fill-rule="evenodd" stroke="none"/>
  </g>
</svg>
