<?xml version="1.0" encoding="UTF-8" standalone="no"?>
<svg xmlns:ffdec="https://www.free-decompiler.com/flash" xmlns:xlink="http://www.w3.org/1999/xlink" ffdec:objectType="shape" height="40.0px" width="40.0px" xmlns="http://www.w3.org/2000/svg">
  <g transform="matrix(1.0, 0.0, 0.0, 1.0, 18.5, 20.05)">
    <path d="M6.0 -2.3 L1.8 -2.9 Q-1.05 -2.9 -4.2 -0.85 -1.95 -8.15 7.15 -8.95 L6.65 -12.95 Q3.45 -12.75 0.6 -11.2 -2.2 -9.6 -4.35 -7.15 -6.4 -4.6 -7.7 -1.5 -8.95 1.6 -8.95 4.85 -8.95 9.6 -6.4 12.2 -3.75 14.75 0.8 14.75 3.4 14.75 5.65 13.95 7.9 13.2 9.4 11.9 10.95 10.6 11.8 9.0 12.65 7.25 12.65 5.65 12.65 3.85 11.8 2.25 10.95 0.65 9.45 -0.5 8.0 -1.6 6.0 -2.3 M13.25 -20.05 Q16.7 -20.05 19.1 -17.65 21.5 -15.2 21.5 -11.8 L21.5 11.7 Q21.5 15.15 19.1 17.55 16.7 19.95 13.25 19.95 L-10.25 19.95 Q-13.65 19.95 -16.1 17.55 -18.5 15.15 -18.5 11.7 L-18.5 -11.8 Q-18.5 -15.2 -16.1 -17.65 -13.65 -20.05 -10.25 -20.05 L13.25 -20.05" fill="#393838" fill-rule="evenodd" stroke="none"/>
    <path d="M-4.9 4.7 L-4.85 3.55 Q-1.8 1.4 2.4 1.4 5.05 1.4 6.8 2.35 8.5 3.35 8.5 5.1 8.5 6.35 7.85 7.4 7.15 8.5 6.2 9.2 5.05 10.0 3.8 10.4 L1.15 10.85 Q-1.7 10.85 -3.3 9.25 -4.9 7.65 -4.9 4.7" fill="#393838" fill-rule="evenodd" stroke="none"/>
    <path d="M-4.85 3.55 L-4.9 4.7 Q-4.9 7.65 -3.3 9.25 -1.7 10.85 1.15 10.85 L3.8 10.4 Q5.05 10.0 6.2 9.2 7.15 8.5 7.85 7.4 8.5 6.35 8.5 5.1 8.5 3.35 6.8 2.35 5.05 1.4 2.4 1.4 -1.8 1.4 -4.85 3.55 M0.6 -11.2 Q3.45 -12.75 6.65 -12.95 L7.15 -8.95 Q-1.95 -8.15 -4.2 -0.85 -1.05 -2.9 1.8 -2.9 L6.0 -2.3 Q8.0 -1.6 9.45 -0.5 10.95 0.65 11.8 2.25 12.65 3.85 12.65 5.65 12.65 7.25 11.8 9.0 10.95 10.6 9.4 11.9 7.9 13.2 5.65 13.95 3.4 14.75 0.8 14.75 -3.75 14.75 -6.4 12.2 -8.95 9.6 -8.95 4.85 -8.95 1.6 -7.7 -1.5 -6.4 -4.6 -4.35 -7.15 -2.2 -9.6 0.6 -11.2" fill="#ffffff" fill-rule="evenodd" stroke="none"/>
  </g>
</svg>
