<?xml version="1.0" encoding="UTF-8" standalone="no"?>
<svg xmlns:ffdec="https://www.free-decompiler.com/flash" xmlns:xlink="http://www.w3.org/1999/xlink" ffdec:objectType="shape" height="31.9px" width="37.3px" xmlns="http://www.w3.org/2000/svg">
  <g transform="matrix(1.0, 0.0, 0.0, 1.0, 18.65, 15.95)">
    <path d="M8.9 12.45 Q8.9 13.9 6.55 14.9 4.2 15.95 0.9 15.95 -2.4 15.95 -4.75 14.9 -7.1 13.9 -7.1 12.45 -7.1 11.0 -4.75 9.95 -2.45 8.95 0.9 8.95 4.2 8.95 6.55 9.95 8.9 11.0 8.9 12.45" fill="#c19c7a" fill-rule="evenodd" stroke="none"/>
    <path d="M12.4 -8.6 L9.1 -3.0 Q6.85 0.55 4.95 1.8 L-0.95 2.0 -1.45 1.65 Q-2.7 0.65 -4.05 -1.85 L-6.2 -6.0 -4.55 -5.9 -1.05 -6.0 Q4.15 -6.35 12.4 -8.6" fill="#f7efe7" fill-rule="evenodd" stroke="none"/>
    <path d="M15.85 -12.3 L17.8 -12.25 Q19.1 -11.9 18.45 -10.9 14.75 -3.2 12.4 0.25 8.25 6.25 0.8 5.9 -4.1 5.7 -7.5 1.0 -10.75 -4.8 -12.65 -7.2 -15.4 -8.0 -18.15 -9.5 -18.7 -9.8 -18.65 -10.4 -18.45 -12.9 -17.05 -14.1 -15.9 -15.1 -13.2 -15.8 -11.0 -16.35 -10.65 -15.05 -10.3 -13.75 -12.5 -13.2 -15.85 -12.35 -10.0 -9.9 -8.9 -10.0 -8.45 -9.45 L-8.35 -9.3 -7.7 -9.1 1.35 -8.75 8.6 -10.35 15.85 -12.3 M4.95 1.8 Q6.85 0.55 9.1 -3.0 L12.4 -8.6 Q4.15 -6.35 -1.05 -6.0 L-4.55 -5.9 -6.2 -6.0 -4.05 -1.85 Q-2.7 0.65 -1.45 1.65 L-0.95 2.0 Q1.9 3.8 4.95 1.8" fill="#c19c7a" fill-rule="evenodd" stroke="none"/>
  </g>
</svg>
