<?xml version="1.0" encoding="UTF-8" standalone="no"?>
<svg xmlns:ffdec="https://www.free-decompiler.com/flash" xmlns:xlink="http://www.w3.org/1999/xlink" ffdec:objectType="shape" height="56.15px" width="56.1px" xmlns="http://www.w3.org/2000/svg">
  <g transform="matrix(1.0, 0.0, 0.0, 1.0, 29.55, 28.1)">
    <path d="M26.55 16.15 Q26.55 21.05 23.1 24.6 19.6 28.05 14.65 28.05 L-17.65 28.05 Q-22.55 28.05 -26.1 24.6 -29.55 21.05 -29.55 16.15 L-29.55 -16.2 Q-29.55 -21.1 -26.1 -24.65 -22.55 -28.1 -17.65 -28.1 L14.65 -28.1 Q19.6 -28.1 23.1 -24.65 26.55 -21.1 26.55 -16.2 L26.55 16.15" fill="#393838" fill-rule="evenodd" stroke="none"/>
    <path d="M12.05 -18.7 L13.5 -16.45 Q-2.05 1.45 -5.15 20.3 L-10.7 19.65 Q-6.9 1.0 4.95 -13.6 L-8.5 -12.75 -14.45 -12.8 -14.45 -18.35 -4.15 -18.1 12.05 -18.7" fill="#ffffff" fill-rule="evenodd" stroke="none"/>
  </g>
</svg>
