<?xml version="1.0" encoding="UTF-8" standalone="no"?>
<svg xmlns:ffdec="https://www.free-decompiler.com/flash" xmlns:xlink="http://www.w3.org/1999/xlink" ffdec:objectType="shape" height="40.85px" width="40.8px" xmlns="http://www.w3.org/2000/svg">
  <g transform="matrix(1.0, 0.0, 0.0, 1.0, 21.9, 20.45)">
    <path d="M18.9 11.75 Q18.9 15.3 16.4 17.85 13.85 20.4 10.25 20.4 L-13.25 20.4 Q-16.8 20.4 -19.4 17.85 -21.9 15.3 -21.9 11.75 L-21.9 -11.8 Q-21.9 -15.35 -19.4 -17.95 -16.8 -20.45 -13.25 -20.45 L10.25 -20.45 Q13.85 -20.45 16.4 -17.95 18.9 -15.35 18.9 -11.8 L18.9 11.75" fill="#393838" fill-rule="evenodd" stroke="none"/>
    <path d="M9.4 -11.95 Q-1.9 1.05 -4.15 14.75 L-8.2 14.25 Q-5.4 0.7 3.2 -9.9 L-6.6 -9.3 -10.9 -9.35 -10.9 -13.35 -3.4 -13.15 8.35 -13.6 9.4 -11.95" fill="#ffffff" fill-rule="evenodd" stroke="none"/>
  </g>
</svg>
