<?xml version="1.0" encoding="UTF-8" standalone="no"?>
<svg xmlns:ffdec="https://www.free-decompiler.com/flash" xmlns:xlink="http://www.w3.org/1999/xlink" ffdec:objectType="shape" height="50.05px" width="50.0px" xmlns="http://www.w3.org/2000/svg">
  <g transform="matrix(1.0, 0.0, 0.0, 1.0, 24.5, 25.05)">
    <path d="M-7.95 6.85 Q-7.1 5.5 -5.65 4.6 -4.05 3.65 -2.05 3.1 L2.65 2.5 Q6.8 2.5 8.75 3.85 10.75 5.2 10.75 8.25 10.55 10.7 7.7 12.55 4.9 14.3 0.3 14.3 -3.6 14.3 -6.15 13.0 -8.55 11.7 -8.8 9.55 -8.8 8.15 -7.95 6.85" fill="#393838" fill-rule="evenodd" stroke="none"/>
    <path d="M-4.6 -10.45 L-1.95 -11.65 1.5 -12.1 Q4.35 -12.1 6.15 -11.05 8.25 -9.55 8.25 -7.75 8.25 -6.6 7.5 -5.55 6.8 -4.45 5.65 -3.7 4.65 -2.95 3.05 -2.4 1.7 -1.9 0.15 -1.9 L-2.55 -2.35 Q-3.95 -2.9 -4.75 -3.55 -5.8 -4.2 -6.3 -5.1 -6.9 -6.0 -6.9 -6.75 -6.9 -7.75 -6.3 -8.75 L-4.6 -10.45" fill="#393838" fill-rule="evenodd" stroke="none"/>
    <path d="M13.4 -7.7 Q13.4 -9.55 12.45 -11.25 11.5 -12.95 9.85 -14.35 8.25 -15.65 6.05 -16.5 3.8 -17.35 1.55 -17.35 -0.95 -17.35 -3.5 -16.5 -6.1 -15.6 -7.85 -14.2 -9.65 -12.9 -10.95 -10.7 -12.1 -8.75 -12.1 -6.25 -12.1 -1.7 -7.15 0.25 -14.05 3.2 -14.05 8.75 -14.05 10.8 -13.05 12.7 -12.05 14.45 -10.1 15.95 -8.2 17.4 -5.6 18.2 L0.15 19.05 5.35 18.45 Q7.9 17.9 10.3 16.45 12.55 15.1 14.05 12.8 15.5 10.6 15.5 7.25 15.5 0.9 8.35 -0.4 13.4 -3.3 13.4 -7.7 M15.2 -25.05 Q19.5 -25.0 22.5 -22.0 25.5 -19.0 25.5 -14.75 L25.5 14.7 Q25.5 19.0 22.5 22.0 19.5 25.0 15.2 25.0 L-14.2 25.0 Q-18.45 25.0 -21.5 22.0 -24.5 19.0 -24.5 14.7 L-24.5 -14.75 Q-24.5 -19.0 -21.5 -22.0 -18.45 -25.0 -14.2 -25.05 L15.2 -25.05" fill="#393838" fill-rule="evenodd" stroke="none"/>
    <path d="M-8.8 9.55 Q-8.55 11.7 -6.15 13.0 -3.6 14.3 0.3 14.3 4.9 14.3 7.7 12.55 10.55 10.7 10.75 8.25 10.75 5.2 8.75 3.85 6.8 2.5 2.65 2.5 L-2.05 3.1 Q-4.05 3.65 -5.65 4.6 -7.1 5.5 -7.95 6.85 -8.8 8.15 -8.8 9.55 M-4.75 -3.55 Q-3.95 -2.9 -2.55 -2.35 L0.15 -1.9 Q1.7 -1.9 3.05 -2.4 4.65 -2.95 5.65 -3.7 6.8 -4.45 7.5 -5.55 8.25 -6.6 8.25 -7.75 8.25 -9.55 6.15 -11.05 4.35 -12.1 1.5 -12.1 L-1.95 -11.65 -4.6 -10.45 -6.3 -8.75 Q-6.9 -7.75 -6.9 -6.75 -6.9 -6.0 -6.3 -5.1 -5.8 -4.2 -4.75 -3.55 M6.05 -16.5 Q8.25 -15.65 9.85 -14.35 11.5 -12.95 12.45 -11.25 13.4 -9.55 13.4 -7.7 13.4 -3.3 8.35 -0.4 15.5 0.9 15.5 7.25 15.5 10.6 14.05 12.8 12.55 15.1 10.3 16.45 7.9 17.9 5.35 18.45 L0.15 19.05 -5.6 18.2 Q-8.2 17.4 -10.1 15.95 -12.05 14.45 -13.05 12.7 -14.05 10.8 -14.05 8.75 -14.05 3.2 -7.15 0.25 -12.1 -1.7 -12.1 -6.25 -12.1 -8.75 -10.95 -10.7 -9.65 -12.9 -7.85 -14.2 -6.1 -15.6 -3.5 -16.5 -0.95 -17.35 1.55 -17.35 3.8 -17.35 6.05 -16.5" fill="#ffffff" fill-rule="evenodd" stroke="none"/>
  </g>
</svg>
