<?xml version="1.0" encoding="UTF-8" standalone="no"?>
<svg xmlns:ffdec="https://www.free-decompiler.com/flash" xmlns:xlink="http://www.w3.org/1999/xlink" ffdec:objectType="shape" height="40.05px" width="40.0px" xmlns="http://www.w3.org/2000/svg">
  <g transform="matrix(1.0, 0.0, 0.0, 1.0, 19.5, 20.05)">
    <path d="M-6.25 5.45 Q-5.6 4.4 -4.4 3.65 -3.15 2.9 -1.55 2.45 L2.2 2.0 Q5.55 2.0 7.1 3.05 8.7 4.15 8.7 6.6 8.55 8.55 6.25 10.05 4.0 11.45 0.35 11.45 -2.8 11.45 -4.8 10.4 -6.75 9.35 -6.95 7.65 -6.95 6.5 -6.25 5.45" fill="#393838" fill-rule="evenodd" stroke="none"/>
    <path d="M-3.6 -8.35 Q-2.7 -8.95 -1.45 -9.35 L1.3 -9.7 Q3.6 -9.7 5.0 -8.85 6.7 -7.65 6.7 -6.2 6.7 -5.3 6.1 -4.45 5.55 -3.55 4.6 -2.95 L2.55 -1.95 0.2 -1.55 Q-0.9 -1.55 -1.95 -1.9 -3.05 -2.35 -3.7 -2.85 L-4.95 -4.1 -5.4 -5.4 -4.95 -7.0 -3.6 -8.35" fill="#393838" fill-rule="evenodd" stroke="none"/>
    <path d="M10.8 -6.15 Q10.8 -7.65 10.05 -9.0 9.3 -10.35 8.0 -11.5 6.7 -12.55 4.95 -13.2 3.15 -13.9 1.35 -13.9 -0.65 -13.9 -2.7 -13.2 -4.8 -12.5 -6.2 -11.35 -7.6 -10.35 -8.65 -8.55 -9.6 -7.0 -9.6 -5.0 -9.6 -1.35 -5.6 0.2 -11.15 2.55 -11.15 7.0 -11.15 8.65 -10.35 10.15 -9.55 11.55 -8.0 12.75 -6.45 13.9 -4.4 14.55 L0.2 15.25 4.4 14.75 Q6.4 14.3 8.35 13.15 10.15 12.05 11.35 10.25 12.5 8.45 12.5 5.8 12.5 0.7 6.8 -0.35 10.8 -2.65 10.8 -6.15 M12.25 -20.05 Q15.7 -20.0 18.1 -17.6 20.5 -15.2 20.5 -11.8 L20.5 11.75 Q20.5 15.2 18.1 17.6 15.7 20.0 12.25 20.0 L-11.25 20.0 Q-14.65 20.0 -17.1 17.6 -19.5 15.2 -19.5 11.75 L-19.5 -11.8 Q-19.5 -15.2 -17.1 -17.6 -14.65 -20.0 -11.25 -20.05 L12.25 -20.05" fill="#393838" fill-rule="evenodd" stroke="none"/>
    <path d="M-6.95 7.65 Q-6.75 9.35 -4.8 10.4 -2.8 11.45 0.35 11.45 4.0 11.45 6.25 10.05 8.55 8.55 8.7 6.6 8.7 4.15 7.1 3.05 5.55 2.0 2.2 2.0 L-1.55 2.45 Q-3.15 2.9 -4.4 3.65 -5.6 4.4 -6.25 5.45 -6.95 6.5 -6.95 7.65 M-3.7 -2.85 Q-3.05 -2.35 -1.95 -1.9 -0.9 -1.55 0.2 -1.55 L2.55 -1.95 4.6 -2.95 Q5.55 -3.55 6.1 -4.45 6.7 -5.3 6.7 -6.2 6.7 -7.65 5.0 -8.85 3.6 -9.7 1.3 -9.7 L-1.45 -9.35 Q-2.7 -8.95 -3.6 -8.35 L-4.95 -7.0 -5.4 -5.4 -4.95 -4.1 -3.7 -2.85 M4.95 -13.2 Q6.7 -12.55 8.0 -11.5 9.3 -10.35 10.05 -9.0 10.8 -7.65 10.8 -6.15 10.8 -2.65 6.8 -0.35 12.5 0.7 12.5 5.8 12.5 8.45 11.35 10.25 10.15 12.05 8.35 13.15 6.4 14.3 4.4 14.75 L0.2 15.25 -4.4 14.55 Q-6.45 13.9 -8.0 12.75 -9.55 11.55 -10.35 10.15 -11.15 8.65 -11.15 7.0 -11.15 2.55 -5.6 0.2 -9.6 -1.35 -9.6 -5.0 -9.6 -7.0 -8.65 -8.55 -7.6 -10.35 -6.2 -11.35 -4.8 -12.5 -2.7 -13.2 -0.65 -13.9 1.35 -13.9 3.15 -13.9 4.95 -13.2" fill="#ffffff" fill-rule="evenodd" stroke="none"/>
  </g>
</svg>
