<?xml version="1.0" encoding="UTF-8" standalone="no"?>
<svg xmlns:ffdec="https://www.free-decompiler.com/flash" xmlns:xlink="http://www.w3.org/1999/xlink" ffdec:objectType="shape" height="50.05px" width="50.0px" xmlns="http://www.w3.org/2000/svg">
  <g transform="matrix(1.0, 0.0, 0.0, 1.0, 24.5, 25.05)">
    <path d="M9.4 -4.0 L9.35 -2.45 Q5.45 0.25 0.15 0.25 -3.2 0.25 -5.35 -1.05 -7.4 -2.35 -7.4 -4.45 -7.4 -5.9 -6.65 -7.2 -5.8 -8.6 -4.55 -9.55 -3.2 -10.55 -1.55 -11.1 L1.9 -11.65 Q5.15 -11.65 7.25 -9.7 9.4 -7.85 9.4 -4.0" fill="#393838" fill-rule="evenodd" stroke="none"/>
    <path d="M14.45 -4.25 Q14.45 -9.95 11.2 -13.35 8.0 -16.7 1.85 -16.7 -1.15 -16.7 -3.7 -15.65 -6.4 -14.55 -8.25 -12.9 -10.2 -11.2 -11.3 -8.95 -12.45 -6.8 -12.45 -4.3 -12.45 -2.4 -11.65 -0.75 -10.9 1.0 -9.35 2.3 -7.7 3.75 -5.6 4.45 -3.3 5.3 -0.55 5.3 L4.3 4.85 Q6.4 4.4 8.55 2.7 5.8 7.8 2.15 10.35 -1.6 12.9 -5.65 13.05 L-5.0 18.1 Q-1.2 17.95 2.4 16.05 6.0 14.05 8.6 11.0 11.2 7.95 12.9 3.9 14.45 0.0 14.45 -4.25 M15.2 -25.05 Q19.5 -25.0 22.5 -22.0 25.5 -19.0 25.5 -14.75 L25.5 14.7 Q25.5 19.0 22.5 22.0 19.5 25.0 15.2 25.0 L-14.2 25.0 Q-18.45 25.0 -21.5 22.0 -24.5 19.0 -24.5 14.7 L-24.5 -14.75 Q-24.5 -19.0 -21.5 -22.0 -18.45 -25.0 -14.2 -25.05 L15.2 -25.05" fill="#393838" fill-rule="evenodd" stroke="none"/>
    <path d="M-3.7 -15.65 Q-1.15 -16.7 1.85 -16.7 8.0 -16.7 11.2 -13.35 14.45 -9.95 14.45 -4.25 14.45 0.0 12.9 3.9 11.2 7.95 8.6 11.0 6.0 14.05 2.4 16.05 -1.2 17.95 -5.0 18.1 L-5.65 13.05 Q-1.6 12.9 2.15 10.35 5.8 7.8 8.55 2.7 6.4 4.4 4.3 4.85 L-0.55 5.3 Q-3.3 5.3 -5.6 4.45 -7.7 3.75 -9.35 2.3 -10.9 1.0 -11.65 -0.75 -12.45 -2.4 -12.45 -4.3 -12.45 -6.8 -11.3 -8.95 -10.2 -11.2 -8.25 -12.9 -6.4 -14.55 -3.7 -15.65 M1.9 -11.65 L-1.55 -11.1 Q-3.2 -10.55 -4.55 -9.55 -5.8 -8.6 -6.65 -7.2 -7.4 -5.9 -7.4 -4.45 -7.4 -2.35 -5.35 -1.05 -3.2 0.25 0.15 0.25 5.45 0.25 9.35 -2.45 L9.4 -4.0 Q9.4 -7.85 7.25 -9.7 5.15 -11.65 1.9 -11.65" fill="#ffffff" fill-rule="evenodd" stroke="none"/>
  </g>
</svg>
