<?xml version="1.0" encoding="UTF-8" standalone="no"?>
<svg xmlns:ffdec="https://www.free-decompiler.com/flash" xmlns:xlink="http://www.w3.org/1999/xlink" ffdec:objectType="shape" height="86.65px" width="94.2px" xmlns="http://www.w3.org/2000/svg">
  <g transform="matrix(1.0, 0.0, 0.0, 1.0, 47.1, 43.35)">
    <path d="M25.45 -34.2 Q26.65 -39.9 24.4 -40.35 22.1 -40.85 20.1 -35.55 19.05 -32.8 17.5 -26.35 L24.65 -17.7 40.7 -32.7 Q46.9 -38.4 47.1 -40.55 47.55 -45.3 37.75 -42.0 28.1 -38.75 25.45 -34.2" fill="#f6dec0" fill-rule="evenodd" stroke="none"/>
    <path d="M24.95 -17.35 L17.5 -26.35 7.85 -18.5 Q-2.85 -9.95 -8.0 -6.35 -16.75 -1.2 -32.8 6.35 L-47.1 12.85 -43.75 43.3 -30.9 32.8 Q-15.5 20.55 -3.0 11.65 7.45 2.9 17.25 -8.1 L24.95 -17.35" fill="#efeedf" fill-rule="evenodd" stroke="none"/>
  </g>
</svg>
