<?xml version="1.0" encoding="UTF-8" standalone="no"?>
<svg xmlns:ffdec="https://www.free-decompiler.com/flash" xmlns:xlink="http://www.w3.org/1999/xlink" ffdec:objectType="shape" height="55.05px" width="55.0px" xmlns="http://www.w3.org/2000/svg">
  <g transform="matrix(1.0, 0.0, 0.0, 1.0, 27.0, 27.55)">
    <path d="M10.3 -4.4 L10.25 -2.7 Q5.95 0.3 0.1 0.3 -3.55 0.3 -5.95 -1.15 -8.2 -2.6 -8.2 -4.9 -8.2 -6.5 -7.35 -7.9 -6.45 -9.45 -5.05 -10.5 -3.55 -11.6 -1.75 -12.2 L2.05 -12.8 Q5.6 -12.8 7.9 -10.65 10.3 -8.65 10.3 -4.4" fill="#393838" fill-rule="evenodd" stroke="none"/>
    <path d="M15.85 -4.65 Q15.85 -10.95 12.25 -14.7 8.75 -18.35 2.0 -18.35 -1.3 -18.35 -4.1 -17.2 -7.1 -16.0 -9.15 -14.2 -11.25 -12.3 -12.5 -9.85 -13.75 -7.5 -13.75 -4.75 -13.75 -2.65 -12.85 -0.8 -12.05 1.1 -10.35 2.55 -8.5 4.15 -6.2 4.9 -3.7 5.85 -0.65 5.85 L4.7 5.35 Q7.0 4.85 9.35 2.95 6.35 8.6 2.3 11.4 -1.8 14.2 -6.25 14.35 L-5.55 19.9 Q-1.35 19.75 2.6 17.65 6.55 15.45 9.4 12.1 12.25 8.75 14.15 4.3 15.85 0.0 15.85 -4.65 M16.65 -27.55 Q21.4 -27.5 24.7 -24.2 28.0 -20.9 28.0 -16.2 L28.0 16.15 Q28.0 20.9 24.7 24.2 21.4 27.5 16.65 27.5 L-15.65 27.5 Q-20.35 27.5 -23.7 24.2 -27.0 20.9 -27.0 16.15 L-27.0 -16.2 Q-27.0 -20.9 -23.7 -24.2 -20.35 -27.5 -15.65 -27.55 L16.65 -27.55" fill="#393838" fill-rule="evenodd" stroke="none"/>
    <path d="M2.05 -12.8 L-1.75 -12.2 Q-3.55 -11.6 -5.05 -10.5 -6.45 -9.45 -7.35 -7.9 -8.2 -6.5 -8.2 -4.9 -8.2 -2.6 -5.95 -1.15 -3.55 0.3 0.1 0.3 5.95 0.3 10.25 -2.7 L10.3 -4.4 Q10.3 -8.65 7.9 -10.65 5.6 -12.8 2.05 -12.8 M-4.1 -17.2 Q-1.3 -18.35 2.0 -18.35 8.75 -18.35 12.25 -14.7 15.85 -10.95 15.85 -4.65 15.85 0.0 14.15 4.3 12.25 8.75 9.4 12.1 6.55 15.45 2.6 17.65 -1.35 19.75 -5.55 19.9 L-6.25 14.35 Q-1.8 14.2 2.3 11.4 6.35 8.6 9.35 2.95 7.0 4.85 4.7 5.35 L-0.65 5.85 Q-3.7 5.85 -6.2 4.9 -8.5 4.15 -10.35 2.55 -12.05 1.1 -12.85 -0.8 -13.75 -2.65 -13.75 -4.75 -13.75 -7.5 -12.5 -9.85 -11.25 -12.3 -9.15 -14.2 -7.1 -16.0 -4.1 -17.2" fill="#ffffff" fill-rule="evenodd" stroke="none"/>
  </g>
</svg>
