<?xml version="1.0" encoding="UTF-8" standalone="no"?>
<svg xmlns:ffdec="https://www.free-decompiler.com/flash" xmlns:xlink="http://www.w3.org/1999/xlink" ffdec:objectType="shape" height="40.05px" width="40.0px" xmlns="http://www.w3.org/2000/svg">
  <g transform="matrix(1.0, 0.0, 0.0, 1.0, 19.5, 20.05)">
    <path d="M7.6 -3.2 L7.6 -1.95 Q4.45 0.2 0.2 0.2 -2.45 0.2 -4.2 -0.85 -5.8 -1.9 -5.8 -3.55 -5.8 -4.75 -5.2 -5.75 -4.55 -6.9 -3.55 -7.65 -2.45 -8.45 -1.15 -8.9 L1.6 -9.35 Q4.2 -9.35 5.9 -7.75 7.6 -6.3 7.6 -3.2" fill="#393838" fill-rule="evenodd" stroke="none"/>
    <path d="M11.65 -3.4 Q11.65 -7.95 9.05 -10.7 6.5 -13.35 1.6 -13.35 -0.8 -13.35 -2.85 -12.55 -5.0 -11.65 -6.5 -10.35 -8.05 -8.95 -8.95 -7.15 -9.85 -5.45 -9.85 -3.45 -9.85 -1.95 -9.2 -0.6 -8.6 0.8 -7.4 1.85 -6.05 3.0 -4.4 3.55 L-0.35 4.25 3.55 3.85 Q5.2 3.5 6.95 2.15 4.75 6.25 1.8 8.25 -1.2 10.3 -4.4 10.45 L-3.9 14.45 Q-0.85 14.35 2.0 12.85 4.9 11.25 7.0 8.8 9.05 6.35 10.4 3.1 11.65 0.0 11.65 -3.4 M12.25 -20.05 Q15.7 -20.0 18.1 -17.6 20.5 -15.2 20.5 -11.8 L20.5 11.75 Q20.5 15.2 18.1 17.6 15.7 20.0 12.25 20.0 L-11.25 20.0 Q-14.65 20.0 -17.1 17.6 -19.5 15.2 -19.5 11.75 L-19.5 -11.8 Q-19.5 -15.2 -17.1 -17.6 -14.65 -20.0 -11.25 -20.05 L12.25 -20.05" fill="#393838" fill-rule="evenodd" stroke="none"/>
    <path d="M-2.85 -12.55 Q-0.8 -13.35 1.6 -13.35 6.5 -13.35 9.05 -10.7 11.65 -7.95 11.65 -3.4 11.65 0.0 10.4 3.1 9.05 6.35 7.0 8.8 4.9 11.25 2.0 12.85 -0.85 14.35 -3.9 14.45 L-4.4 10.45 Q-1.2 10.3 1.8 8.25 4.75 6.25 6.95 2.15 5.2 3.5 3.55 3.85 L-0.35 4.25 -4.4 3.55 Q-6.05 3.0 -7.4 1.85 -8.6 0.8 -9.2 -0.6 -9.85 -1.95 -9.85 -3.45 -9.85 -5.45 -8.95 -7.15 -8.05 -8.95 -6.5 -10.35 -5.0 -11.65 -2.85 -12.55 M1.6 -9.35 L-1.15 -8.9 Q-2.45 -8.45 -3.55 -7.65 -4.55 -6.9 -5.2 -5.75 -5.8 -4.75 -5.8 -3.55 -5.8 -1.9 -4.2 -0.85 -2.45 0.2 0.2 0.2 4.45 0.2 7.6 -1.95 L7.6 -3.2 Q7.6 -6.3 5.9 -7.75 4.2 -9.35 1.6 -9.35" fill="#ffffff" fill-rule="evenodd" stroke="none"/>
  </g>
</svg>
