<?xml version="1.0" encoding="UTF-8" standalone="no"?>
<svg xmlns:ffdec="https://www.free-decompiler.com/flash" xmlns:xlink="http://www.w3.org/1999/xlink" ffdec:objectType="shape" height="816.4px" width="816.4px" xmlns="http://www.w3.org/2000/svg">
  <g transform="matrix(1.0, 0.0, 0.0, 1.0, 408.2, 408.2)">
    <path d="M0.0 0.0 L-408.2 51.5 -408.2 -55.15 0.0 0.0 248.65 327.75 156.3 381.1 0.0 0.0 -159.5 379.25 -251.85 325.9 0.0 0.0 -327.75 248.7 -381.1 156.35 0.0 0.0 -248.7 -327.75 -156.35 -381.1 0.0 0.0 -379.25 -159.5 -325.95 -251.85 0.0 0.0 -51.5 -408.2 55.15 -408.2 0.0 0.0 408.2 -51.5 408.2 55.15 0.0 0.0 379.25 159.5 325.9 251.85 0.0 0.0 327.75 -248.7 381.05 -156.3 0.0 0.0 159.5 -379.25 251.85 -325.9 0.0 0.0 51.5 408.2 -55.15 408.2 0.0 0.0" fill="url(#gradient0)" fill-rule="evenodd" stroke="none"/>
  </g>
  <defs>
    <radialGradient cx="0" cy="0" gradientTransform="matrix(0.4982, 0.0, 0.0, -0.4982, 0.0, 0.0)" gradientUnits="userSpaceOnUse" id="gradient0" r="819.2" spreadMethod="pad">
      <stop offset="0.0" stop-color="#fffcc4"/>
      <stop offset="1.0" stop-color="#68bcb9"/>
    </radialGradient>
  </defs>
</svg>
