<?xml version="1.0" encoding="UTF-8" standalone="no"?>
<svg xmlns:ffdec="https://www.free-decompiler.com/flash" xmlns:xlink="http://www.w3.org/1999/xlink" ffdec:objectType="shape" height="77.1px" width="77.1px" xmlns="http://www.w3.org/2000/svg">
  <g transform="matrix(1.0, 0.0, 0.0, 1.0, 318.0, 237.4)">
    <path d="M-306.7 -226.1 Q-301.4 -231.45 -294.45 -234.35 -287.3 -237.4 -279.45 -237.4 -271.6 -237.4 -264.45 -234.35 -257.55 -231.45 -252.2 -226.1 -246.85 -220.75 -243.95 -213.85 -240.9 -206.7 -240.9 -198.85 -240.9 -191.0 -243.95 -183.85 -246.85 -176.9 -252.2 -171.6 -257.55 -166.25 -264.45 -163.3 -271.6 -160.3 -279.45 -160.3 -287.3 -160.3 -294.45 -163.3 -301.4 -166.25 -306.7 -171.6 -312.05 -176.9 -315.0 -183.85 -318.0 -191.0 -318.0 -198.85 -318.0 -206.7 -315.0 -213.85 -312.05 -220.75 -306.7 -226.1" fill="#4a3322" fill-rule="evenodd" stroke="none"/>
  </g>
</svg>
