<?xml version="1.0" encoding="UTF-8" standalone="no"?>
<svg xmlns:ffdec="https://www.free-decompiler.com/flash" xmlns:xlink="http://www.w3.org/1999/xlink" ffdec:objectType="shape" height="77.1px" width="77.1px" xmlns="http://www.w3.org/2000/svg">
  <g transform="matrix(1.0, 0.0, 0.0, 1.0, 38.55, 38.55)">
    <path d="M-27.25 -27.25 Q-21.95 -32.6 -15.0 -35.5 -7.85 -38.55 0.0 -38.55 7.85 -38.55 15.0 -35.5 21.9 -32.6 27.25 -27.25 32.6 -21.9 35.5 -15.0 38.55 -7.85 38.55 0.0 38.55 7.85 35.5 15.0 32.6 21.95 27.25 27.25 21.9 32.6 15.0 35.55 7.85 38.55 0.0 38.55 -7.85 38.55 -15.0 35.55 -21.95 32.6 -27.25 27.25 -32.6 21.95 -35.55 15.0 -38.55 7.85 -38.55 0.0 -38.55 -7.85 -35.55 -15.0 -32.6 -21.9 -27.25 -27.25" fill="#4a3322" fill-rule="evenodd" stroke="none"/>
    <path d="M0.4 -33.95 Q7.3 -33.95 13.65 -31.3 19.75 -28.7 24.45 -24.0 29.35 -19.1 31.95 -12.75 34.4 -6.6 34.4 0.05 L34.45 0.05 Q34.45 7.0 31.8 13.3 29.2 19.4 24.5 24.1 L24.45 24.1 Q19.55 29.0 13.2 31.6 7.05 34.05 0.4 34.05 -6.55 34.05 -12.85 31.4 -18.95 28.8 -23.65 24.1 -28.55 19.2 -31.1 12.85 -33.6 6.7 -33.6 0.05 -33.6 -6.85 -30.95 -13.2 -28.35 -19.3 -23.65 -24.0 -18.75 -28.9 -12.4 -31.45 -6.25 -33.95 0.4 -33.95" fill="#d83838" fill-rule="evenodd" stroke="none"/>
  </g>
</svg>
