<?xml version="1.0" encoding="UTF-8" standalone="no"?>
<svg xmlns:ffdec="https://www.free-decompiler.com/flash" xmlns:xlink="http://www.w3.org/1999/xlink" ffdec:objectType="shape" height="81.4px" width="76.95px" xmlns="http://www.w3.org/2000/svg">
  <g transform="matrix(1.0, 0.0, 0.0, 1.0, 38.5, 40.7)">
    <path d="M20.05 -20.2 Q16.15 -18.75 14.35 -14.95 12.65 -11.25 14.1 -7.35 15.5 -3.45 19.2 -1.7 23.0 0.05 26.9 -1.4 29.4 -2.3 31.15 -4.3 L38.45 15.7 18.35 23.0 Q20.45 24.8 21.35 27.25 22.75 31.15 21.0 34.9 19.25 38.65 15.35 40.05 11.45 41.5 7.7 39.75 3.95 38.0 2.55 34.1 1.65 31.55 2.05 28.95 L-17.95 36.25 -38.5 -20.15 17.9 -40.7 25.2 -20.65 20.05 -20.2" fill="#2f2f2f" fill-rule="evenodd" stroke="none"/>
  </g>
</svg>
