<?xml version="1.0" encoding="UTF-8" standalone="no"?>
<svg xmlns:ffdec="https://www.free-decompiler.com/flash" xmlns:xlink="http://www.w3.org/1999/xlink" ffdec:objectType="shape" height="76.0px" width="70.1px" xmlns="http://www.w3.org/2000/svg">
  <g transform="matrix(1.0, 0.0, 0.0, 1.0, 35.05, 38.0)">
    <path d="M-0.05 -36.9 L0.05 -36.9 34.05 -19.9 0.05 -2.8 -33.95 -19.8 -34.05 -19.9 -0.05 -36.9 M-0.25 -13.6 L11.05 -19.2 11.05 -24.9 Q5.45 -22.0 -0.25 -19.2 -5.95 -22.0 -11.65 -24.9 L-11.65 -19.2 -0.25 -13.6" fill="#ed3891" fill-rule="evenodd" stroke="none"/>
    <path d="M-35.05 -20.5 Q-17.55 -29.2 -0.05 -38.0 L-0.05 -36.9 -34.05 -19.9 -35.05 -20.5" fill="#c64985" fill-rule="evenodd" stroke="none"/>
    <path d="M0.05 -36.9 L0.05 -38.0 Q17.55 -29.2 35.05 -20.5 L34.05 -19.9 0.05 -36.9 M-35.05 20.4 L-35.05 -20.5 -34.05 -19.9 -34.05 19.8 -35.05 20.4" fill="#9e3b6e" fill-rule="evenodd" stroke="none"/>
    <path d="M0.05 36.8 L-0.05 36.8 -34.05 19.8 -34.05 -19.9 -33.95 -19.8 0.05 -2.8 0.05 36.8 M-0.25 -19.2 L-0.25 -13.6 -11.65 -19.2 -11.65 -24.9 Q-5.95 -22.0 -0.25 -19.2" fill="#c44884" fill-rule="evenodd" stroke="none"/>
    <path d="M0.05 -2.8 L34.05 -19.9 34.05 19.8 0.05 36.8 0.05 -2.8 M-0.25 -13.6 L-0.25 -19.2 Q5.45 -22.0 11.05 -24.9 L11.05 -19.2 -0.25 -13.6" fill="#9d3b6e" fill-rule="evenodd" stroke="none"/>
    <path d="M35.05 -20.5 L35.05 20.4 0.05 38.0 0.05 36.8 34.05 19.8 34.05 -19.9 35.05 -20.5" fill="#485655" fill-rule="evenodd" stroke="none"/>
    <path d="M-0.05 36.8 L-0.05 38.0 -35.05 20.4 -34.05 19.8 -0.05 36.8" fill="#516f7d" fill-rule="evenodd" stroke="none"/>
  </g>
</svg>
