<?xml version="1.0" encoding="UTF-8" standalone="no"?>
<svg xmlns:ffdec="https://www.free-decompiler.com/flash" xmlns:xlink="http://www.w3.org/1999/xlink" ffdec:objectType="shape" height="18.45px" width="24.1px" xmlns="http://www.w3.org/2000/svg">
  <g transform="matrix(1.0, 0.0, 0.0, 1.0, 12.05, 9.25)">
    <path d="M-7.8 7.25 Q-8.0 5.8 -5.9 4.35 -3.75 3.05 -0.45 2.55 2.8 2.0 5.25 2.6 7.8 3.3 8.0 4.75 8.25 6.1 6.0 7.25 3.95 8.35 0.55 8.9 -2.85 9.4 -5.15 9.0 -7.55 8.6 -7.8 7.25" fill="#c19c7a" fill-rule="evenodd" stroke="none"/>
    <path d="M-0.85 -6.1 Q-2.95 -5.65 -5.4 -4.15 L-8.85 -1.6 Q-10.05 -0.4 -10.9 -0.45 -11.75 -0.5 -12.0 -1.7 -12.3 -3.1 -9.15 -5.6 -5.7 -8.35 -1.7 -9.0 L6.95 -8.65 Q11.15 -7.8 11.8 -7.0 12.3 -6.35 11.75 -5.45 11.15 -4.5 10.2 -4.85 L5.55 -5.9 -0.85 -6.1" fill="#c19c7a" fill-rule="evenodd" stroke="none"/>
  </g>
</svg>
