<?xml version="1.0" encoding="UTF-8" standalone="no"?>
<svg xmlns:ffdec="https://www.free-decompiler.com/flash" xmlns:xlink="http://www.w3.org/1999/xlink" ffdec:objectType="shape" height="18.45px" width="24.1px" xmlns="http://www.w3.org/2000/svg">
  <g transform="matrix(1.0, 0.0, 0.0, 1.0, 10.4, 213.0)">
    <path d="M-6.15 -196.5 Q-6.35 -197.95 -4.25 -199.4 -2.1 -200.7 1.2 -201.2 4.45 -201.75 6.9 -201.15 9.45 -200.45 9.65 -199.0 9.9 -197.65 7.65 -196.5 5.6 -195.4 2.2 -194.85 -1.2 -194.35 -3.5 -194.75 -5.9 -195.15 -6.15 -196.5" fill="#c19c7a" fill-rule="evenodd" stroke="none"/>
    <path d="M0.8 -209.85 Q-1.3 -209.4 -3.75 -207.9 -5.6 -206.75 -7.2 -205.35 -8.4 -204.15 -9.25 -204.2 -10.1 -204.25 -10.35 -205.45 -10.65 -206.85 -7.5 -209.35 -4.05 -212.1 -0.05 -212.75 L8.6 -212.4 Q12.8 -211.55 13.45 -210.75 13.95 -210.1 13.4 -209.2 12.8 -208.25 11.85 -208.6 L7.2 -209.65 0.8 -209.85" fill="#c19c7a" fill-rule="evenodd" stroke="none"/>
  </g>
</svg>
