<?xml version="1.0" encoding="UTF-8" standalone="no"?>
<svg xmlns:ffdec="https://www.free-decompiler.com/flash" xmlns:xlink="http://www.w3.org/1999/xlink" ffdec:objectType="shape" height="56.65px" width="73.2px" xmlns="http://www.w3.org/2000/svg">
  <g transform="matrix(1.0, 0.0, 0.0, 1.0, 36.6, 28.35)">
    <path d="M20.1 0.0 Q20.1 11.75 11.8 20.0 3.5 28.3 -8.25 28.3 -20.0 28.3 -28.3 20.0 -36.6 11.7 -36.6 0.0 -36.6 -11.75 -28.3 -20.05 -20.0 -28.35 -8.25 -28.35 3.5 -28.35 11.8 -20.05 20.1 -11.75 20.1 0.0" fill="#ffffff" fill-rule="evenodd" stroke="none"/>
    <path d="M12.4 -6.35 L23.6 -5.35 Q23.3 -6.8 23.25 -8.4 23.25 -11.6 24.6 -12.55 25.6 -13.25 31.1 -8.15 36.6 -3.05 36.6 -1.55 36.6 0.0 31.35 5.35 26.05 10.7 25.1 9.95 24.25 9.35 23.95 6.6 L23.75 3.95 12.6 5.3 12.4 -6.35" fill="#ffffff" fill-rule="evenodd" stroke="none"/>
  </g>
</svg>
