<?xml version="1.0" encoding="UTF-8" standalone="no"?>
<svg xmlns:ffdec="https://www.free-decompiler.com/flash" xmlns:xlink="http://www.w3.org/1999/xlink" ffdec:objectType="shape" height="22.5px" width="19.1px" xmlns="http://www.w3.org/2000/svg">
  <g transform="matrix(1.0, 0.0, 0.0, 1.0, 278.75, 93.35)">
    <path d="M-260.1 -84.9 Q-259.5 -84.6 -259.7 -78.55 -259.9 -72.5 -260.6 -71.95 -261.4 -71.35 -265.4 -71.0 L-269.95 -71.2 Q-270.5 -71.8 -270.05 -76.5 -269.55 -81.35 -268.65 -83.05 -267.8 -84.65 -264.25 -85.05 L-260.1 -84.9" fill="#ec1c24" fill-rule="evenodd" stroke="none"/>
    <path d="M-266.35 -86.4 Q-266.75 -86.55 -268.1 -89.15 -269.5 -91.8 -269.3 -92.15 -269.05 -92.5 -267.2 -93.0 L-265.05 -93.3 Q-264.65 -93.2 -264.25 -90.6 -263.8 -88.05 -264.05 -87.55 -264.3 -87.1 -265.15 -86.7 -265.95 -86.3 -266.35 -86.4" fill="#7f7f7f" fill-rule="evenodd" stroke="none"/>
    <path d="M-270.45 -83.65 Q-270.45 -83.15 -272.4 -80.7 -273.85 -81.15 -275.3 -81.8 -278.2 -83.05 -278.3 -83.8 -278.45 -84.6 -277.3 -86.0 -276.2 -87.4 -275.55 -87.4 -274.7 -87.4 -270.45 -83.65" fill="#7f7f7f" fill-rule="evenodd" stroke="none"/>
    <path d="M-272.25 -75.6 Q-271.8 -75.15 -271.75 -74.1 -271.65 -72.95 -272.25 -72.5 -272.8 -72.05 -275.25 -71.95 L-278.3 -72.15 Q-278.85 -72.4 -278.7 -74.45 -278.55 -76.45 -278.15 -76.7 L-275.2 -76.5 Q-272.65 -76.0 -272.25 -75.6" fill="#7f7f7f" fill-rule="evenodd" stroke="none"/>
  </g>
</svg>
