<?xml version="1.0" encoding="UTF-8" standalone="no"?>
<svg xmlns:ffdec="https://www.free-decompiler.com/flash" xmlns:xlink="http://www.w3.org/1999/xlink" ffdec:objectType="shape" height="63.65px" width="52.7px" xmlns="http://www.w3.org/2000/svg">
  <g transform="matrix(1.0, 0.0, 0.0, 1.0, 26.35, 31.85)">
    <path d="M14.55 -24.35 Q21.6 -16.55 24.5 -5.2 L13.6 -9.95 8.95 -4.15 -0.95 -9.5 -9.1 -2.95 -14.2 -9.95 -25.65 -2.9 Q-23.0 -14.75 -14.25 -23.65 -6.0 -31.95 1.35 -31.85 7.8 -31.75 14.55 -24.35" fill="#e3efc8" fill-rule="evenodd" stroke="none"/>
    <path d="M18.35 -18.95 Q19.8 -17.0 21.35 -13.55 23.25 -9.35 24.35 -5.0 23.3 -5.65 21.85 -6.3 L19.35 -7.4 Q19.8 -12.0 18.35 -18.95" fill="#bac698" fill-rule="evenodd" stroke="none"/>
    <path d="M4.55 -28.6 Q6.4 -28.0 7.85 -26.45 9.35 -24.9 9.55 -23.3 9.8 -21.45 8.2 -20.35 5.0 -18.15 1.95 -22.5 0.8 -24.25 0.5 -25.95 0.2 -27.75 1.2 -28.4 L4.55 -28.6" fill="#fdfdfd" fill-rule="evenodd" stroke="none"/>
    <path d="M8.95 -4.15 L-0.95 -9.5 -9.1 -2.95 -14.2 -9.95 Q-19.15 -6.9 -24.15 -3.9 L-14.1 -11.6 -8.95 -4.6 -1.25 -10.9 8.3 -6.2 12.75 -11.8 24.5 -5.2 13.6 -9.95 8.95 -4.15" fill="#bac698" fill-rule="evenodd" stroke="none"/>
    <path d="M-25.45 -2.75 L-14.0 -9.8 -8.9 -2.8 -0.75 -9.35 9.15 -4.0 13.8 -9.8 24.7 -5.05 Q27.0 3.8 26.05 12.85 25.15 21.45 17.6 26.7 10.7 31.6 1.15 31.8 -8.55 32.05 -15.85 27.25 -23.95 21.9 -25.75 12.0 -27.1 4.65 -25.45 -2.75" fill="#e3efc8" fill-rule="evenodd" stroke="none"/>
    <path d="M19.9 -7.0 L24.7 -5.05 Q27.15 7.3 25.6 14.45 23.65 23.7 14.8 28.1 8.25 31.4 1.05 31.6 -5.8 31.8 -11.8 29.2 -17.8 26.5 -21.5 21.55 -25.35 16.2 -25.8 9.35 -20.7 18.0 -13.0 20.5 -6.0 22.8 1.4 19.55 8.6 16.5 13.65 9.45 18.95 2.05 19.9 -7.0" fill="#bac698" fill-rule="evenodd" stroke="none"/>
    <path d="M-21.85 -4.9 L-14.0 -9.8 -8.9 -2.8 -0.75 -9.35 9.15 -4.0 13.8 -9.8 20.65 -6.75 14.55 -7.45 9.65 -2.8 -0.6 -7.45 -9.0 -1.85 -14.35 -8.15 -21.85 -4.9" fill="#fdfdfd" fill-rule="evenodd" stroke="none"/>
  </g>
</svg>
