<?xml version="1.0" encoding="UTF-8" standalone="no"?>
<svg xmlns:ffdec="https://www.free-decompiler.com/flash" xmlns:xlink="http://www.w3.org/1999/xlink" ffdec:objectType="shape" height="96.75px" width="74.1px" xmlns="http://www.w3.org/2000/svg">
  <g transform="matrix(1.0, 0.0, 0.0, 1.0, 58.05, 92.1)">
    <path d="M-34.9 -11.85 Q-38.7 -18.4 -37.95 -28.55 -37.25 -38.25 -33.05 -45.45 -28.55 -53.15 -22.5 -53.2 -15.65 -53.3 -10.1 -45.8 -4.85 -38.8 -3.55 -29.35 -2.15 -19.35 -6.2 -12.7 -10.9 -5.0 -21.55 -4.65 -30.55 -4.4 -34.9 -11.85" fill="#e4ae2b" fill-rule="evenodd" stroke="none"/>
    <path d="M-33.95 -38.4 Q-33.95 -41.6 -31.5 -44.2 -28.85 -46.85 -24.75 -47.45 -17.6 -48.4 -13.05 -45.7 -9.05 -43.25 -8.55 -39.15 -8.05 -35.1 -11.25 -32.3 -14.8 -29.2 -21.15 -29.6 -27.5 -30.05 -30.9 -32.7 -33.85 -35.0 -33.95 -38.4" fill="#ffcc40" fill-rule="evenodd" stroke="none"/>
    <path d="M-0.4 -57.65 Q-1.0 -52.1 -5.5 -48.6 -11.6 -43.95 -21.05 -43.55 -31.6 -43.15 -37.7 -49.25 -41.25 -52.8 -41.55 -58.4 -41.85 -63.65 -39.25 -68.9 -36.65 -74.3 -32.1 -77.45 -27.2 -80.95 -21.4 -80.7 -15.6 -80.45 -10.35 -76.8 -5.5 -73.35 -2.7 -68.1 0.1 -62.75 -0.4 -57.65" fill="#e4ae2b" fill-rule="evenodd" stroke="none"/>
    <path d="M-4.3 -53.55 Q-6.35 -49.0 -11.65 -45.7 -16.35 -42.7 -21.3 -42.75 -26.9 -42.8 -31.95 -46.75 -36.25 -50.1 -38.0 -54.3 -39.7 -58.35 -38.5 -62.1 -37.35 -65.95 -33.35 -68.3 -29.05 -70.85 -22.3 -71.05 -15.05 -71.25 -10.05 -68.6 -5.45 -66.15 -3.9 -62.0 -2.4 -57.9 -4.3 -53.55" fill="#ffcc40" fill-rule="evenodd" stroke="none"/>
    <path d="M-36.45 -61.0 Q-33.95 -62.4 -32.4 -60.05 -30.85 -57.65 -33.15 -56.55 -36.3 -55.1 -37.5 -57.45 -37.95 -58.4 -37.7 -59.4 -37.45 -60.5 -36.45 -61.0" fill="#231f20" fill-rule="evenodd" stroke="none"/>
    <path d="M-34.95 -60.75 Q-33.9 -61.2 -33.55 -60.25 -33.2 -59.3 -34.5 -59.1 -35.8 -58.9 -35.85 -59.6 -35.95 -60.3 -34.95 -60.75" fill="#fdfdfd" fill-rule="evenodd" stroke="none"/>
    <path d="M-9.2 -61.0 Q-6.65 -62.4 -5.15 -60.05 -4.5 -59.05 -4.65 -58.1 -4.8 -57.05 -5.9 -56.55 -9.05 -55.1 -10.2 -57.45 -10.7 -58.4 -10.4 -59.4 -10.15 -60.5 -9.2 -61.0" fill="#231f20" fill-rule="evenodd" stroke="none"/>
    <path d="M-7.7 -60.75 Q-6.65 -61.2 -6.3 -60.25 -5.95 -59.3 -7.25 -59.1 -8.5 -58.9 -8.6 -59.6 -8.65 -60.3 -7.7 -60.75" fill="#fdfdfd" fill-rule="evenodd" stroke="none"/>
    <path d="M-29.5 -53.8 L-26.2 -57.9 Q-22.6 -62.0 -21.05 -62.0 -19.15 -62.0 -16.45 -58.1 -15.1 -56.15 -14.1 -54.2 L-16.8 -50.65 Q-19.85 -47.05 -21.55 -46.9 -22.9 -47.05 -26.35 -50.45 L-29.5 -53.8" fill="#f59122" fill-rule="evenodd" stroke="none"/>
    <path d="M-26.75 -53.85 L-24.75 -55.05 Q-22.5 -56.2 -21.55 -56.2 -20.05 -56.2 -17.1 -54.05 L-18.65 -52.55 Q-20.45 -51.05 -21.55 -51.05 -22.65 -51.05 -24.8 -52.45 L-26.75 -53.85" fill="#ef5c27" fill-rule="evenodd" stroke="none"/>
    <path d="M-21.25 -59.95 Q-20.05 -60.2 -19.7 -59.1 -19.35 -58.0 -20.2 -57.7 -21.55 -57.25 -22.05 -58.4 -22.6 -59.6 -21.25 -59.95" fill="#fdfdfd" fill-rule="evenodd" stroke="none"/>
    <path d="M-46.4 -29.9 L-34.95 -36.95 -29.85 -29.95 -21.7 -36.5 -11.8 -31.15 -7.15 -36.95 3.75 -32.2 Q6.05 -23.35 5.1 -14.3 4.2 -5.7 -3.35 -0.45 -10.25 4.45 -19.8 4.65 -29.5 4.9 -36.8 0.1 -44.9 -5.25 -46.7 -15.15 -48.05 -22.5 -46.4 -29.9" fill="#e3efc8" fill-rule="evenodd" stroke="none"/>
    <path d="M-1.05 -34.15 L3.75 -32.2 Q6.2 -19.85 4.65 -12.7 2.7 -3.45 -6.15 0.95 -12.7 4.25 -19.9 4.45 -26.75 4.65 -32.75 2.05 -38.75 -0.65 -42.45 -5.6 -46.3 -10.95 -46.75 -17.8 -41.65 -9.15 -33.95 -6.65 -26.95 -4.35 -19.55 -7.6 -12.35 -10.65 -7.3 -17.7 -2.0 -25.1 -1.05 -34.15" fill="#bac698" fill-rule="evenodd" stroke="none"/>
    <path d="M-42.8 -32.05 L-34.95 -36.95 -29.85 -29.95 -21.7 -36.5 -11.8 -31.15 -7.15 -36.95 -0.3 -33.9 -6.4 -34.6 -11.3 -29.95 -21.55 -34.6 -29.95 -29.0 -35.3 -35.3 -42.8 -32.05" fill="#fdfdfd" fill-rule="evenodd" stroke="none"/>
    <path d="M-47.6 -48.3 Q-51.55 -47.25 -54.7 -44.95 -57.85 -42.75 -58.0 -41.05 -58.25 -38.7 -57.3 -38.0 L-54.35 -37.7 -49.7 -38.35 -43.8 -38.15 -38.4 -36.65 Q-35.35 -35.65 -34.2 -35.55 -30.75 -35.35 -33.6 -42.5 -37.05 -51.1 -47.6 -48.3" fill="#e4ae2b" fill-rule="evenodd" stroke="none"/>
    <path d="M-52.0 -45.7 Q-57.0 -43.2 -55.7 -41.15 -54.4 -39.15 -50.15 -40.8 -46.2 -42.35 -47.5 -44.85 -47.95 -45.8 -49.2 -46.1 -50.5 -46.45 -52.0 -45.7" fill="#ffcc40" fill-rule="evenodd" stroke="none"/>
    <path d="M5.6 -48.3 Q9.55 -47.25 12.7 -44.95 15.85 -42.75 16.0 -41.05 16.25 -38.7 15.3 -38.0 L12.35 -37.7 7.7 -38.35 1.8 -38.15 -3.6 -36.65 Q-6.65 -35.65 -7.8 -35.55 -11.25 -35.35 -8.4 -42.5 -4.95 -51.1 5.6 -48.3" fill="#e4ae2b" fill-rule="evenodd" stroke="none"/>
    <path d="M10.0 -45.7 Q15.0 -43.2 13.7 -41.15 12.4 -39.15 8.15 -40.8 4.2 -42.35 5.5 -44.85 5.95 -45.8 7.2 -46.1 8.5 -46.45 10.0 -45.7" fill="#ffcc40" fill-rule="evenodd" stroke="none"/>
    <path d="M-7.15 -84.6 Q-0.1 -76.8 2.8 -65.45 L-8.1 -70.2 -12.75 -64.4 -22.65 -69.75 -30.8 -63.2 -35.9 -70.2 -47.35 -63.15 Q-44.7 -75.0 -35.95 -83.9 -27.7 -92.2 -20.35 -92.1 -13.9 -92.0 -7.15 -84.6" fill="#e3efc8" fill-rule="evenodd" stroke="none"/>
    <path d="M-3.35 -79.2 Q-1.9 -77.25 -0.35 -73.8 1.55 -69.6 2.65 -65.25 L0.15 -66.55 -2.35 -67.65 Q-1.9 -72.25 -3.35 -79.2" fill="#bac698" fill-rule="evenodd" stroke="none"/>
    <path d="M-17.15 -88.85 Q-15.3 -88.25 -13.85 -86.7 -12.35 -85.15 -12.15 -83.55 -11.9 -81.7 -13.5 -80.6 -16.7 -78.4 -19.75 -82.75 -20.9 -84.5 -21.2 -86.2 -21.5 -88.0 -20.5 -88.65 L-17.15 -88.85" fill="#fdfdfd" fill-rule="evenodd" stroke="none"/>
    <path d="M-12.75 -64.4 L-22.65 -69.75 -30.8 -63.2 -35.9 -70.2 -45.85 -64.15 -35.8 -71.85 -30.65 -64.85 -22.95 -71.15 -13.4 -66.45 -8.95 -72.05 2.8 -65.45 -8.1 -70.2 -12.75 -64.4" fill="#bac698" fill-rule="evenodd" stroke="none"/>
  </g>
</svg>
