<?xml version="1.0" encoding="UTF-8" standalone="no"?>
<svg xmlns:ffdec="https://www.free-decompiler.com/flash" xmlns:xlink="http://www.w3.org/1999/xlink" ffdec:objectType="shape" height="96.75px" width="74.1px" xmlns="http://www.w3.org/2000/svg">
  <g transform="matrix(1.0, 0.0, 0.0, 1.0, 141.05, 172.9)">
    <path d="M-117.9 -92.65 Q-121.7 -99.2 -120.95 -109.35 -120.25 -119.05 -116.05 -126.25 -111.55 -133.95 -105.5 -134.0 -98.65 -134.1 -93.1 -126.6 -87.85 -119.6 -86.55 -110.15 -85.15 -100.15 -89.2 -93.5 -93.9 -85.8 -104.55 -85.45 -113.55 -85.2 -117.9 -92.65" fill="#e4ae2b" fill-rule="evenodd" stroke="none"/>
    <path d="M-116.95 -119.2 Q-116.95 -122.4 -114.5 -125.0 -111.85 -127.65 -107.75 -128.25 -100.6 -129.2 -96.05 -126.5 -92.05 -124.05 -91.55 -119.95 -91.05 -115.9 -94.25 -113.1 -97.8 -110.0 -104.15 -110.4 -110.5 -110.85 -113.9 -113.5 -116.85 -115.8 -116.95 -119.2" fill="#ffcc40" fill-rule="evenodd" stroke="none"/>
    <path d="M-83.4 -138.45 Q-84.0 -132.9 -88.5 -129.4 -94.6 -124.75 -104.05 -124.35 -114.6 -123.95 -120.7 -130.05 -124.25 -133.6 -124.55 -139.2 -124.85 -144.45 -122.25 -149.7 -119.65 -155.1 -115.1 -158.25 -110.2 -161.75 -104.4 -161.5 -98.6 -161.25 -93.35 -157.6 -88.5 -154.15 -85.7 -148.9 -82.9 -143.55 -83.4 -138.45" fill="#e4ae2b" fill-rule="evenodd" stroke="none"/>
    <path d="M-87.3 -134.35 Q-89.35 -129.8 -94.65 -126.5 -99.35 -123.5 -104.3 -123.55 -109.9 -123.6 -114.95 -127.55 -119.25 -130.9 -121.0 -135.1 -122.7 -139.15 -121.5 -142.9 -120.35 -146.75 -116.35 -149.1 -112.05 -151.65 -105.3 -151.85 -98.05 -152.05 -93.05 -149.4 -88.45 -146.95 -86.9 -142.8 -85.4 -138.7 -87.3 -134.35" fill="#ffcc40" fill-rule="evenodd" stroke="none"/>
    <path d="M-119.45 -141.8 Q-116.95 -143.2 -115.4 -140.85 -113.85 -138.45 -116.15 -137.35 -119.3 -135.9 -120.5 -138.25 -120.95 -139.2 -120.7 -140.2 -120.45 -141.3 -119.45 -141.8" fill="#231f20" fill-rule="evenodd" stroke="none"/>
    <path d="M-117.95 -141.55 Q-116.9 -142.0 -116.55 -141.05 -116.2 -140.1 -117.5 -139.9 -118.8 -139.7 -118.85 -140.4 -118.95 -141.1 -117.95 -141.55" fill="#fdfdfd" fill-rule="evenodd" stroke="none"/>
    <path d="M-92.2 -141.8 Q-89.65 -143.2 -88.15 -140.85 -87.5 -139.85 -87.65 -138.9 -87.8 -137.85 -88.9 -137.35 -92.05 -135.9 -93.2 -138.25 -93.7 -139.2 -93.4 -140.2 -93.15 -141.3 -92.2 -141.8" fill="#231f20" fill-rule="evenodd" stroke="none"/>
    <path d="M-90.7 -141.55 Q-89.65 -142.0 -89.3 -141.05 -88.95 -140.1 -90.25 -139.9 -91.5 -139.7 -91.6 -140.4 -91.65 -141.1 -90.7 -141.55" fill="#fdfdfd" fill-rule="evenodd" stroke="none"/>
    <path d="M-112.5 -134.6 L-109.2 -138.7 Q-105.6 -142.8 -104.05 -142.8 -102.15 -142.8 -99.45 -138.9 -98.1 -136.95 -97.1 -135.0 L-99.8 -131.45 Q-102.85 -127.85 -104.55 -127.7 -105.9 -127.85 -109.35 -131.25 L-112.5 -134.6" fill="#f59122" fill-rule="evenodd" stroke="none"/>
    <path d="M-109.75 -134.65 L-107.75 -135.85 Q-105.5 -137.0 -104.55 -137.0 -103.05 -137.0 -100.1 -134.85 L-101.65 -133.35 Q-103.45 -131.85 -104.55 -131.85 -105.65 -131.85 -107.8 -133.25 L-109.75 -134.65" fill="#ef5c27" fill-rule="evenodd" stroke="none"/>
    <path d="M-104.25 -140.75 Q-103.05 -141.0 -102.7 -139.9 -102.35 -138.8 -103.2 -138.5 -104.55 -138.05 -105.05 -139.2 -105.6 -140.4 -104.25 -140.75" fill="#fdfdfd" fill-rule="evenodd" stroke="none"/>
    <path d="M-129.4 -110.7 L-117.95 -117.75 -112.85 -110.75 -104.7 -117.3 -94.8 -111.95 -90.15 -117.75 -79.25 -113.0 Q-76.95 -104.15 -77.9 -95.1 -78.8 -86.5 -86.35 -81.25 -93.25 -76.35 -102.8 -76.15 -112.5 -75.9 -119.8 -80.7 -127.9 -86.05 -129.7 -95.95 -131.05 -103.3 -129.4 -110.7" fill="#e3efc8" fill-rule="evenodd" stroke="none"/>
    <path d="M-84.05 -114.95 L-79.25 -113.0 Q-76.8 -100.65 -78.35 -93.5 -80.3 -84.25 -89.15 -79.85 -95.7 -76.55 -102.9 -76.35 -109.75 -76.15 -115.75 -78.75 -121.75 -81.45 -125.45 -86.4 -129.3 -91.75 -129.75 -98.6 -124.65 -89.95 -116.95 -87.45 -109.95 -85.15 -102.55 -88.4 -95.35 -91.45 -90.3 -98.5 -85.0 -105.9 -84.05 -114.95" fill="#bac698" fill-rule="evenodd" stroke="none"/>
    <path d="M-125.8 -112.85 L-117.95 -117.75 -112.85 -110.75 -104.7 -117.3 -94.8 -111.95 -90.15 -117.75 -83.3 -114.7 -89.4 -115.4 -94.3 -110.75 -104.55 -115.4 -112.95 -109.8 -118.3 -116.1 -125.8 -112.85" fill="#fdfdfd" fill-rule="evenodd" stroke="none"/>
    <path d="M-130.6 -129.1 Q-134.55 -128.05 -137.7 -125.75 -140.85 -123.55 -141.0 -121.85 -141.25 -119.5 -140.3 -118.8 -139.5 -118.25 -137.35 -118.5 L-132.7 -119.15 -126.8 -118.95 -121.4 -117.45 Q-118.35 -116.45 -117.2 -116.35 -113.75 -116.15 -116.6 -123.3 -120.05 -131.9 -130.6 -129.1" fill="#e4ae2b" fill-rule="evenodd" stroke="none"/>
    <path d="M-135.0 -126.5 Q-140.0 -124.0 -138.7 -121.95 -137.4 -119.95 -133.15 -121.6 -129.2 -123.15 -130.5 -125.65 -130.95 -126.6 -132.2 -126.9 -133.5 -127.25 -135.0 -126.5" fill="#ffcc40" fill-rule="evenodd" stroke="none"/>
    <path d="M-77.4 -129.1 Q-73.45 -128.05 -70.3 -125.75 -67.15 -123.55 -67.0 -121.85 -66.75 -119.5 -67.7 -118.8 -68.5 -118.25 -70.65 -118.5 L-75.3 -119.15 -81.2 -118.95 Q-83.0 -118.6 -86.6 -117.45 -89.65 -116.45 -90.8 -116.35 -94.25 -116.15 -91.4 -123.3 -87.95 -131.9 -77.4 -129.1" fill="#e4ae2b" fill-rule="evenodd" stroke="none"/>
    <path d="M-73.0 -126.5 Q-68.0 -124.0 -69.3 -121.95 -70.6 -119.95 -74.85 -121.6 -78.8 -123.15 -77.5 -125.65 -77.05 -126.6 -75.8 -126.9 -74.5 -127.25 -73.0 -126.5" fill="#ffcc40" fill-rule="evenodd" stroke="none"/>
    <path d="M-90.15 -165.4 Q-83.1 -157.6 -80.2 -146.25 L-91.1 -151.0 -95.75 -145.2 -105.65 -150.55 -113.8 -144.0 -118.9 -151.0 -130.35 -143.95 Q-127.7 -155.8 -118.95 -164.7 -110.7 -173.0 -103.35 -172.9 -96.9 -172.8 -90.15 -165.4" fill="#e3efc8" fill-rule="evenodd" stroke="none"/>
    <path d="M-86.35 -160.0 Q-84.9 -158.05 -83.35 -154.6 -81.45 -150.4 -80.35 -146.05 -81.4 -146.7 -82.85 -147.35 L-85.35 -148.45 Q-84.9 -153.05 -86.35 -160.0" fill="#bac698" fill-rule="evenodd" stroke="none"/>
    <path d="M-100.15 -169.65 Q-98.3 -169.05 -96.85 -167.5 -95.35 -165.95 -95.15 -164.35 -94.9 -162.5 -96.5 -161.4 -99.7 -159.2 -102.75 -163.55 -103.9 -165.3 -104.2 -167.0 -104.5 -168.8 -103.5 -169.45 L-100.15 -169.65" fill="#fdfdfd" fill-rule="evenodd" stroke="none"/>
    <path d="M-95.75 -145.2 L-105.65 -150.55 -113.8 -144.0 -118.9 -151.0 -128.85 -144.95 -118.8 -152.65 -113.65 -145.65 -105.95 -151.95 -96.4 -147.25 -91.95 -152.85 -80.2 -146.25 -91.1 -151.0 -95.75 -145.2" fill="#bac698" fill-rule="evenodd" stroke="none"/>
  </g>
</svg>
