<?xml version="1.0" encoding="UTF-8" standalone="no"?>
<svg xmlns:ffdec="https://www.free-decompiler.com/flash" xmlns:xlink="http://www.w3.org/1999/xlink" ffdec:objectType="shape" height="110.0px" width="169.8px" xmlns="http://www.w3.org/2000/svg">
  <g transform="matrix(1.0, 0.0, 0.0, 1.0, 84.9, 63.55)">
    <path d="M-63.7 -25.25 Q-58.65 -31.5 -55.35 -34.05 -49.05 -39.15 -44.75 -36.0 -43.7 -35.25 -41.25 -31.35 -39.1 -28.05 -37.2 -27.6 -34.1 -26.85 -33.25 -29.65 -32.4 -32.4 -34.35 -34.4 -36.95 -36.6 -38.15 -37.95 -40.35 -40.4 -39.85 -42.65 -38.9 -47.2 -31.15 -51.0 -26.1 -53.4 -19.4 -55.1 L-12.3 -55.5 Q-8.45 -54.75 -6.45 -51.65 -3.9 -47.65 -3.15 -33.7 -2.85 -27.6 -2.4 -25.4 -1.7 -21.85 0.0 -21.85 1.7 -21.85 2.4 -25.4 2.85 -27.6 3.2 -33.7 3.85 -47.65 6.45 -51.65 8.45 -54.75 12.3 -55.5 L19.4 -55.1 Q26.1 -53.4 31.15 -51.0 38.9 -47.2 39.85 -42.65 40.35 -40.4 38.15 -37.95 L34.35 -34.4 Q32.35 -32.4 33.2 -29.65 34.1 -26.85 37.2 -27.6 39.1 -28.05 41.25 -31.35 43.7 -35.25 44.75 -36.0 49.05 -39.15 55.4 -34.05 58.65 -31.5 63.7 -25.25 66.85 -21.3 68.0 -18.9 70.2 -14.3 67.65 -11.9 65.9 -10.2 62.35 -9.35 L56.5 -8.15 Q54.0 -7.45 53.05 -5.7 52.0 -3.65 54.35 -1.8 56.5 -0.05 61.45 -2.05 L65.3 -3.8 Q67.5 -4.8 68.6 -5.05 72.25 -5.8 74.65 -2.0 76.8 1.45 76.75 6.55 76.7 11.8 74.25 14.85 71.5 18.4 66.6 17.2 L61.5 16.3 Q58.65 16.45 58.75 19.75 58.9 22.6 63.15 22.55 L66.6 22.4 69.35 22.55 Q72.05 23.5 67.75 29.45 64.05 34.45 61.6 36.1 58.6 38.15 53.75 38.55 L45.35 38.55 22.75 38.8 Q7.45 38.9 5.95 38.35 4.6 37.8 4.05 34.9 3.75 33.45 3.4 28.85 3.1 24.85 2.55 23.1 1.8 20.55 0.0 20.55 -2.8 20.55 -3.4 28.85 -3.75 33.45 -4.05 34.9 -4.6 37.8 -5.95 38.35 -7.45 38.9 -22.75 38.8 L-45.35 38.55 -53.75 38.55 Q-58.6 38.15 -61.6 36.1 -64.05 34.45 -67.75 29.45 -72.05 23.5 -69.35 22.55 L-66.6 22.4 -63.15 22.55 Q-58.9 22.6 -58.8 19.75 -58.6 16.45 -61.5 16.3 L-66.6 17.2 Q-71.5 18.4 -74.3 14.85 -76.7 11.8 -76.75 6.55 -76.8 1.45 -74.65 -2.0 -72.25 -5.8 -68.6 -5.05 -66.75 -4.65 -61.45 -2.05 -56.55 -0.05 -54.35 -1.8 -52.0 -3.65 -53.05 -5.7 -54.0 -7.45 -56.55 -8.15 L-62.35 -9.35 Q-65.95 -10.2 -67.65 -11.9 -70.2 -14.3 -68.0 -18.9 -66.85 -21.3 -63.7 -25.25" fill="#d88b3f" fill-rule="evenodd" stroke="none"/>
    <path d="M-48.3 -45.0 L-47.7 -45.0 Q-45.85 -51.7 -37.5 -56.55 -31.15 -60.3 -21.45 -62.65 -17.95 -63.55 -14.7 -63.55 -10.05 -63.55 -6.25 -61.7 -2.45 -59.9 0.0 -56.5 2.45 -59.9 6.25 -61.7 10.05 -63.55 14.7 -63.55 17.95 -63.55 21.45 -62.65 31.15 -60.25 37.5 -56.55 45.85 -51.7 47.7 -45.0 L48.3 -45.0 Q54.7 -45.0 61.2 -39.6 64.95 -36.55 69.85 -30.4 L72.1 -27.4 Q74.6 -24.0 75.55 -21.9 78.2 -16.05 76.5 -11.15 79.5 -9.4 81.5 -6.25 L82.55 -4.4 Q84.85 0.25 84.9 6.1 84.95 10.75 83.55 14.6 82.75 16.8 81.5 18.65 80.55 20.0 79.4 21.15 L78.3 22.05 78.45 22.75 Q78.85 25.5 77.55 28.6 76.3 31.7 73.2 35.55 L70.1 39.1 Q67.8 41.5 66.35 42.5 62.85 44.85 58.35 45.8 L50.55 46.45 17.6 46.45 6.85 46.3 Q4.2 46.15 2.8 45.6 1.25 44.95 0.0 43.95 L-2.85 45.6 Q-4.25 46.15 -6.85 46.3 L-17.6 46.45 -50.55 46.45 -58.35 45.8 Q-62.85 44.85 -66.35 42.5 -67.8 41.5 -70.05 39.1 L-73.2 35.55 Q-76.3 31.7 -77.55 28.6 -78.85 25.5 -78.45 22.75 L-78.35 22.05 -79.4 21.15 Q-82.1 18.5 -83.55 14.6 L-84.5 11.1 Q-84.95 8.7 -84.9 6.1 -84.9 3.75 -84.5 1.6 -83.95 -1.6 -82.55 -4.4 -80.35 -8.9 -76.5 -11.15 -78.25 -16.05 -75.55 -21.9 -74.6 -24.0 -72.15 -27.4 L-69.85 -30.4 Q-64.85 -36.6 -61.2 -39.6 -54.7 -45.0 -48.3 -45.0 M-63.7 -25.25 Q-66.85 -21.3 -68.0 -18.9 -70.2 -14.3 -67.65 -11.9 -65.95 -10.2 -62.35 -9.35 L-56.55 -8.15 Q-54.0 -7.45 -53.05 -5.7 -52.0 -3.65 -54.35 -1.8 -56.55 -0.05 -61.45 -2.05 -66.75 -4.65 -68.6 -5.05 -72.25 -5.8 -74.65 -2.0 -76.8 1.45 -76.75 6.55 -76.7 11.8 -74.3 14.85 -71.5 18.4 -66.6 17.2 L-61.5 16.3 Q-58.6 16.45 -58.8 19.75 -58.9 22.6 -63.15 22.55 L-66.6 22.4 -69.35 22.55 Q-72.05 23.5 -67.75 29.45 -64.05 34.45 -61.6 36.1 -58.6 38.15 -53.75 38.55 L-45.35 38.55 -22.75 38.8 Q-7.45 38.9 -5.95 38.35 -4.6 37.8 -4.05 34.9 -3.75 33.45 -3.4 28.85 -2.8 20.55 0.0 20.55 1.8 20.55 2.55 23.1 3.1 24.85 3.4 28.85 3.75 33.45 4.05 34.9 4.6 37.8 5.95 38.35 7.45 38.9 22.75 38.8 L45.35 38.55 53.75 38.55 Q58.6 38.15 61.6 36.1 64.05 34.45 67.75 29.45 72.05 23.5 69.35 22.55 L66.6 22.4 63.15 22.55 Q58.9 22.6 58.75 19.75 58.65 16.45 61.5 16.3 L66.6 17.2 Q71.5 18.4 74.25 14.85 76.7 11.8 76.75 6.55 76.8 1.45 74.65 -2.0 72.25 -5.8 68.6 -5.05 67.5 -4.8 65.3 -3.8 L61.45 -2.05 Q56.5 -0.05 54.35 -1.8 52.0 -3.65 53.05 -5.7 54.0 -7.45 56.5 -8.15 L62.35 -9.35 Q65.9 -10.2 67.65 -11.9 70.2 -14.3 68.0 -18.9 66.85 -21.3 63.7 -25.25 58.65 -31.5 55.4 -34.05 49.05 -39.15 44.75 -36.0 43.7 -35.25 41.25 -31.35 39.1 -28.05 37.2 -27.6 34.1 -26.85 33.2 -29.65 32.35 -32.4 34.35 -34.4 L38.15 -37.95 Q40.35 -40.4 39.85 -42.65 38.9 -47.2 31.15 -51.0 26.1 -53.4 19.4 -55.1 L12.3 -55.5 Q8.45 -54.75 6.45 -51.65 3.85 -47.65 3.2 -33.7 2.85 -27.6 2.4 -25.4 1.7 -21.85 0.0 -21.85 -1.7 -21.85 -2.4 -25.4 -2.85 -27.6 -3.15 -33.7 -3.9 -47.65 -6.45 -51.65 -8.45 -54.75 -12.3 -55.5 L-19.4 -55.1 Q-26.1 -53.4 -31.15 -51.0 -38.9 -47.2 -39.85 -42.65 -40.35 -40.4 -38.15 -37.95 -36.95 -36.6 -34.35 -34.4 -32.4 -32.4 -33.25 -29.65 -34.1 -26.85 -37.2 -27.6 -39.1 -28.05 -41.25 -31.35 -43.7 -35.25 -44.75 -36.0 -49.05 -39.15 -55.35 -34.05 -58.65 -31.5 -63.7 -25.25" fill="#e9bd66" fill-rule="evenodd" stroke="none"/>
  </g>
</svg>
