<?xml version="1.0" encoding="UTF-8" standalone="no"?>
<svg xmlns:ffdec="https://www.free-decompiler.com/flash" xmlns:xlink="http://www.w3.org/1999/xlink" ffdec:objectType="shape" height="84.0px" width="155.0px" xmlns="http://www.w3.org/2000/svg">
  <g transform="matrix(1.0, 0.0, 0.0, 1.0, 70.0, -37.45)">
    <path d="M62.3 117.95 Q39.6 121.45 7.5 121.45 -24.65 121.45 -47.3 117.95 -70.0 114.45 -70.0 109.45 -70.0 104.5 -47.3 101.0 -24.6 97.45 7.5 97.45 39.55 97.45 62.3 101.0 85.0 104.5 85.0 109.45 85.0 114.45 62.3 117.95" fill="#7c8386" fill-rule="evenodd" stroke="none"/>
    <path d="M-64.3 54.65 Q-64.35 52.05 -59.15 49.15 -54.0 46.3 -45.0 43.8 L-45.0 115.4 Q-53.85 113.65 -58.7 111.45 -63.7 109.15 -63.75 106.7 L-64.3 54.65" fill="#b6bbc0" fill-rule="evenodd" stroke="none"/>
    <path d="M-45.0 43.8 Q-39.05 42.1 -31.8 40.85 L-31.8 117.4 -45.0 115.4 -45.0 43.8" fill="#bcc2c9" fill-rule="evenodd" stroke="none"/>
    <path d="M-31.8 40.85 Q-23.7 39.3 -14.45 38.5 L-14.45 118.9 -31.8 117.4 -31.8 40.85" fill="#afb7bd" fill-rule="evenodd" stroke="none"/>
    <path d="M40.15 39.8 L40.15 117.85 7.4 119.45 Q-3.6 119.45 -14.45 118.9 L-14.45 38.5 6.5 37.45 Q23.95 37.45 40.15 39.8" fill="#a1acb4" fill-rule="evenodd" stroke="none"/>
    <path d="M40.15 39.8 Q47.65 40.95 53.95 42.35 L53.95 116.1 40.15 117.85 40.15 39.8" fill="#899195" fill-rule="evenodd" stroke="none"/>
    <path d="M53.95 42.35 Q64.85 44.9 71.25 48.1 77.65 51.25 77.7 54.15 L78.25 106.2 Q78.3 109.1 71.75 111.7 65.4 114.25 53.95 116.1 L53.95 42.35" fill="#969d9e" fill-rule="evenodd" stroke="none"/>
    <path d="M-3.0 40.8 Q0.3 40.8 2.65 42.2 5.0 43.65 5.0 45.65 5.0 47.65 2.65 49.05 0.3 50.5 -3.0 50.5 -6.3 50.5 -8.65 49.05 -11.0 47.65 -11.0 45.65 -11.0 43.65 -8.65 42.2 -6.35 40.8 -3.0 40.8" fill="#feffd5" fill-rule="evenodd" stroke="none"/>
    <path d="M25.0 45.35 Q25.0 47.35 22.65 48.75 20.3 50.2 17.0 50.2 13.7 50.2 11.35 48.75 9.0 47.35 9.0 45.35 9.0 43.3 11.35 41.9 13.65 40.45 17.0 40.45 20.3 40.45 22.65 41.9 25.0 43.35 25.0 45.35" fill="#feffd5" fill-rule="evenodd" stroke="none"/>
    <path d="M-15.5 46.85 Q-15.5 48.6 -17.55 49.85 -19.6 51.1 -22.5 51.1 -25.4 51.1 -27.45 49.85 -29.5 48.6 -29.5 46.85 -29.5 45.1 -27.45 43.85 -25.4 42.6 -22.5 42.6 -19.6 42.6 -17.55 43.85 -15.5 45.1 -15.5 46.85" fill="#feffd5" fill-rule="evenodd" stroke="none"/>
    <path d="M-49.5 55.65 Q-49.5 57.05 -51.1 58.0 -52.75 58.95 -55.0 58.95 -57.3 58.95 -58.9 58.0 -60.5 57.05 -60.5 55.65 -60.5 54.25 -58.9 53.3 -57.3 52.3 -55.0 52.3 -52.75 52.3 -51.1 53.3 -49.5 54.25 -49.5 55.65" fill="#feffd5" fill-rule="evenodd" stroke="none"/>
    <path d="M-45.1 48.0 Q-43.2 46.85 -40.5 46.85 -37.8 46.85 -35.9 48.0 -34.0 49.15 -34.0 50.8 -34.0 52.4 -35.9 53.6 -37.85 54.75 -40.5 54.75 -43.2 54.75 -45.1 53.6 -47.0 52.4 -47.0 50.8 -47.0 49.15 -45.1 48.0" fill="#feffd5" fill-rule="evenodd" stroke="none"/>
    <path d="M44.0 46.55 Q44.0 48.3 41.95 49.55 39.9 50.8 37.0 50.8 34.1 50.8 32.05 49.55 30.0 48.3 30.0 46.55 30.0 44.8 32.05 43.55 34.1 42.3 37.0 42.3 39.9 42.3 41.95 43.55 44.0 44.8 44.0 46.55" fill="#feffd5" fill-rule="evenodd" stroke="none"/>
    <path d="M61.5 50.5 Q61.5 52.0 59.75 53.05 58.0 54.1 55.5 54.1 53.0 54.1 51.25 53.05 49.5 52.0 49.5 50.5 49.5 48.95 51.25 47.9 53.0 46.85 55.5 46.85 58.0 46.85 59.75 47.9 61.5 48.95 61.5 50.5" fill="#feffd5" fill-rule="evenodd" stroke="none"/>
    <path d="M74.0 54.75 Q74.0 56.0 72.55 56.85 71.05 57.75 69.0 57.75 66.9 57.75 65.45 56.85 64.0 56.0 64.0 54.75 64.0 53.5 65.45 52.6 66.9 51.7 69.0 51.7 71.05 51.7 72.55 52.6 74.0 53.5 74.0 54.75" fill="#feffd5" fill-rule="evenodd" stroke="none"/>
  </g>
</svg>
