<?xml version="1.0" encoding="UTF-8" standalone="no"?>
<svg xmlns:ffdec="https://www.free-decompiler.com/flash" xmlns:xlink="http://www.w3.org/1999/xlink" ffdec:objectType="shape" height="12.0px" width="171.0px" xmlns="http://www.w3.org/2000/svg">
  <g transform="matrix(1.0, 0.0, 0.0, 1.0, 0.0, 0.0)">
    <path d="M13.5 0.0 Q19.1 0.0 23.05 1.75 27.0 3.5 27.0 6.0 27.0 8.5 23.05 10.25 19.1 12.0 13.5 12.0 7.9 12.0 3.95 10.25 0.0 8.5 0.0 6.0 0.0 3.5 3.95 1.75 7.9 0.0 13.5 0.0 M167.05 1.75 Q171.0 3.5 171.0 6.0 171.0 8.5 167.05 10.25 163.1 12.0 157.5 12.0 151.9 12.0 147.95 10.25 144.0 8.5 144.0 6.0 144.0 3.5 147.95 1.75 151.9 0.0 157.5 0.0 163.1 0.0 167.05 1.75" fill="#de9bae" fill-rule="evenodd" stroke="none"/>
  </g>
</svg>
