<?xml version="1.0" encoding="UTF-8" standalone="no"?>
<svg xmlns:ffdec="https://www.free-decompiler.com/flash" xmlns:xlink="http://www.w3.org/1999/xlink" ffdec:objectType="shape" height="62.25px" width="145.95px" xmlns="http://www.w3.org/2000/svg">
  <g transform="matrix(1.0, 0.0, 0.0, 1.0, 75.25, 57.25)">
    <path d="M3.8 -7.7 Q6.3 -5.55 6.3 -2.45 6.3 0.65 3.8 2.85 1.25 5.0 -2.35 5.0 -5.9 5.0 -8.45 2.85 -11.0 0.65 -11.0 -2.45 -11.0 -5.5 -8.45 -7.7 -5.9 -9.9 -2.35 -9.9 1.25 -9.9 3.8 -7.7 M-1.1 -1.15 Q0.0 -2.25 0.0 -3.75 0.0 -5.3 -1.1 -6.35 -2.15 -7.45 -3.7 -7.45 -5.2 -7.45 -6.25 -6.35 -7.35 -5.3 -7.35 -3.75 -7.35 -2.25 -6.25 -1.15 -5.2 -0.1 -3.7 -0.1 -2.15 -0.1 -1.1 -1.15" fill="#d8b591" fill-rule="evenodd" stroke="none"/>
    <path d="M-1.1 -6.35 Q0.0 -5.3 0.0 -3.75 0.0 -2.25 -1.1 -1.15 -2.15 -0.1 -3.7 -0.1 -5.2 -0.1 -6.25 -1.15 -7.35 -2.25 -7.35 -3.75 -7.35 -5.3 -6.25 -6.35 -5.2 -7.45 -3.7 -7.45 -2.15 -7.45 -1.1 -6.35" fill="#f5dab8" fill-rule="evenodd" stroke="none"/>
    <path d="M-60.75 -20.1 Q-68.15 -20.9 -72.35 -14.1 -72.2 -19.25 -69.15 -22.4 -66.4 -25.2 -62.4 -25.5 -58.5 -25.75 -55.6 -23.4 -52.45 -20.85 -52.2 -16.25 -54.9 -19.5 -60.75 -20.1 M56.2 -20.1 Q50.35 -19.5 47.65 -16.25 47.9 -20.85 51.05 -23.4 53.95 -25.75 57.9 -25.5 61.85 -25.2 64.6 -22.4 67.7 -19.25 67.8 -14.1 63.6 -20.9 56.2 -20.1" fill="#2b2724" fill-rule="evenodd" stroke="none"/>
    <path d="M-75.2 -50.85 Q-75.05 -52.95 -75.2 -53.45 -70.05 -58.15 -63.85 -57.0 -57.2 -55.75 -55.7 -47.95 -60.0 -49.6 -66.7 -49.7 -73.35 -49.8 -74.9 -48.3 -75.35 -48.95 -75.2 -50.85 M59.35 -57.0 Q65.5 -58.15 70.65 -53.45 70.5 -53.0 70.65 -50.85 70.8 -48.95 70.3 -48.3 68.8 -49.8 62.15 -49.7 55.45 -49.6 51.15 -47.95 52.65 -55.75 59.35 -57.0" fill="#232834" fill-rule="evenodd" stroke="none"/>
  </g>
</svg>
