<?xml version="1.0" encoding="UTF-8" standalone="no"?>
<svg xmlns:ffdec="https://www.free-decompiler.com/flash" xmlns:xlink="http://www.w3.org/1999/xlink" ffdec:objectType="shape" height="44.45px" width="43.8px" xmlns="http://www.w3.org/2000/svg">
  <g transform="matrix(1.0, 0.0, 0.0, 1.0, 21.9, 44.2)">
    <path d="M5.25 -28.4 Q4.0 -27.45 4.0 -25.75 4.0 -25.0 4.4 -24.4 5.15 -23.3 7.0 -23.3 9.25 -23.3 10.7 -24.8 11.8 -26.0 11.8 -27.05 11.8 -28.05 10.6 -28.7 9.45 -29.3 7.9 -29.25 6.3 -29.2 5.25 -28.4 M16.1 -28.3 Q17.2 -25.85 17.2 -22.35 L16.8 -19.25 Q16.15 -16.1 14.75 -13.45 10.55 -5.45 1.3 -5.45 -6.5 -5.45 -12.4 -9.5 -14.65 -11.05 -16.0 -12.8 -17.3 -14.35 -17.3 -15.35 L-16.85 -17.8 -15.85 -20.3 Q-14.35 -22.9 -10.3 -22.8 L-7.85 -22.7 Q-6.8 -22.7 -6.8 -23.25 L-6.75 -23.5 -7.25 -24.05 -6.35 -23.9 Q-6.05 -23.9 -5.0 -25.3 L-2.4 -28.3 Q2.2 -32.75 9.1 -32.75 14.15 -32.75 16.1 -28.3 M-11.5 -24.95 L-11.25 -24.8 -12.65 -24.8 Q-16.2 -24.8 -17.95 -20.6 -19.1 -17.9 -19.1 -15.3 -19.1 -14.1 -17.8 -12.25 -16.35 -10.15 -13.95 -8.3 -7.6 -3.5 1.3 -3.5 11.45 -3.5 16.1 -11.9 17.7 -14.75 18.5 -18.3 19.0 -20.75 19.0 -22.45 19.0 -25.8 18.1 -28.25 L19.0 -27.2 Q23.45 -19.3 19.7 -10.7 14.35 1.65 1.75 -0.6 -6.85 -2.1 -13.85 -7.4 -19.45 -11.65 -21.2 -18.05 -21.95 -20.8 -19.85 -22.45 -15.25 -26.05 -11.5 -24.95 M-1.4 -42.8 L-2.05 -43.6 -1.6 -43.55 -1.45 -43.35 -1.4 -42.8 M-2.45 -32.7 L-2.9 -31.75 Q-4.45 -28.85 -6.65 -28.85 L-8.35 -29.05 Q-8.85 -29.1 -9.8 -28.45 -9.8 -27.95 -9.2 -27.5 -8.35 -26.95 -6.8 -26.9 -7.4 -25.85 -7.4 -24.7 L-7.3 -24.2 -7.25 -24.05 -8.4 -24.5 -8.3 -24.65 -8.3 -24.8 -7.75 -24.95 Q-7.4 -25.15 -7.4 -25.65 -7.4 -25.95 -8.15 -26.5 L-9.8 -27.85 Q-12.2 -29.9 -12.2 -32.25 L-11.5 -34.7 -9.55 -38.0 Q-6.5 -42.1 -2.9 -42.1 L-2.9 -42.05 -2.5 -39.75 -3.2 -37.7 -2.75 -35.8 -2.3 -33.85 -2.45 -32.7 M-8.9 -18.8 L-8.9 -20.6 -7.85 -21.75 -8.9 -20.6 -8.9 -18.8 M-7.55 -22.0 L-6.2 -20.0 -7.55 -22.0" fill="#00ff00" fill-rule="evenodd" stroke="none"/>
    <path d="M5.25 -28.4 Q6.3 -29.2 7.9 -29.25 9.45 -29.3 10.6 -28.7 11.8 -28.05 11.8 -27.05 11.8 -26.0 10.7 -24.8 9.25 -23.3 7.0 -23.3 5.15 -23.3 4.4 -24.4 4.0 -25.0 4.0 -25.75 4.0 -27.45 5.25 -28.4" fill="#ffffff" fill-rule="evenodd" stroke="none"/>
    <path d="M16.1 -28.3 Q14.15 -32.75 9.1 -32.75 2.2 -32.75 -2.4 -28.3 L-5.0 -25.3 Q-6.05 -23.9 -6.35 -23.9 L-7.25 -24.05 -6.75 -23.5 -6.8 -23.25 Q-6.8 -22.7 -7.85 -22.7 L-10.3 -22.8 Q-14.35 -22.9 -15.85 -20.3 L-16.85 -17.8 -17.3 -15.35 Q-17.3 -14.35 -16.0 -12.8 -14.65 -11.05 -12.4 -9.5 -6.5 -5.45 1.3 -5.45 10.55 -5.45 14.75 -13.45 16.15 -16.1 16.8 -19.25 L17.2 -22.35 Q17.2 -25.85 16.1 -28.3 M18.1 -28.25 Q19.0 -25.8 19.0 -22.45 19.0 -20.75 18.5 -18.3 17.7 -14.75 16.1 -11.9 11.45 -3.5 1.3 -3.5 -7.6 -3.5 -13.95 -8.3 -16.35 -10.15 -17.8 -12.25 -19.1 -14.1 -19.1 -15.3 -19.1 -17.9 -17.95 -20.6 -16.2 -24.8 -12.65 -24.8 L-11.25 -24.8 -11.5 -24.95 Q-15.15 -27.15 -20.6 -35.95 -20.6 -39.9 -18.95 -38.45 -17.75 -37.4 -16.15 -34.1 L-13.85 -30.7 -14.0 -32.35 Q-14.0 -34.25 -11.75 -37.6 -9.5 -41.05 -6.95 -42.9 -3.9 -45.05 -2.05 -43.6 L-1.4 -42.8 Q0.1 -40.6 0.1 -34.9 0.1 -33.7 -0.65 -32.15 2.35 -33.65 5.8 -34.1 11.4 -34.9 14.9 -32.4 17.05 -30.85 18.1 -28.25 M-2.5 -39.75 L-2.9 -42.05 -2.9 -42.1 Q-6.5 -42.1 -9.55 -38.0 L-11.5 -34.7 -12.2 -32.25 Q-12.2 -29.9 -9.8 -27.85 L-8.15 -26.5 Q-7.4 -25.95 -7.4 -25.65 -7.4 -25.15 -7.75 -24.95 L-8.3 -24.8 -8.3 -24.65 -8.4 -24.5 -7.25 -24.05 -7.3 -24.2 -7.4 -24.7 Q-7.4 -25.85 -6.8 -26.9 -8.35 -26.95 -9.2 -27.5 -9.8 -27.95 -9.8 -28.45 -8.85 -29.1 -8.35 -29.05 L-6.65 -28.85 Q-4.45 -28.85 -2.9 -31.75 L-2.45 -32.7 -2.0 -33.85 -1.7 -34.9 Q-1.7 -35.95 -2.25 -38.45 L-2.5 -39.75" fill="#663333" fill-rule="evenodd" stroke="none"/>
    <path d="M-11.5 -24.95 Q-15.25 -26.05 -19.85 -22.45 -21.95 -20.8 -21.2 -18.05 -19.45 -11.65 -13.85 -7.4 -6.85 -2.1 1.75 -0.6 14.35 1.65 19.7 -10.7 23.45 -19.3 19.0 -27.2 L18.1 -28.25 M-6.2 -20.0 L-7.55 -22.0 M-7.85 -21.75 L-8.9 -20.6 -8.9 -18.8" fill="none" stroke="#00ff33" stroke-linecap="round" stroke-linejoin="round" stroke-width="1.0"/>
  </g>
</svg>
