<?xml version="1.0" encoding="UTF-8" standalone="no"?>
<svg xmlns:ffdec="https://www.free-decompiler.com/flash" xmlns:xlink="http://www.w3.org/1999/xlink" ffdec:objectType="shape" height="372.3px" width="542.0px" xmlns="http://www.w3.org/2000/svg">
  <g transform="matrix(1.0, 0.0, 0.0, 1.0, 0.0, 0.0)">
    <path d="M542.0 70.15 L542.0 94.7 366.75 53.15 404.2 372.3 402.8 370.7 350.05 57.9 69.0 302.2 130.1 240.85 326.2 51.75 0.0 240.4 327.15 39.65 Q315.15 31.75 311.8 20.65 308.7 10.35 313.65 0.0 L321.45 0.0 Q317.55 6.45 318.8 14.0 319.95 20.75 325.05 27.25 329.85 33.3 336.7 37.45 343.65 41.65 350.3 42.45 338.55 36.2 331.45 24.75 323.3 11.55 327.9 0.0 L401.95 0.0 Q403.35 6.0 400.7 12.05 397.25 20.0 387.0 27.35 397.45 33.2 542.0 70.15" fill="#ffffff" fill-rule="evenodd" stroke="none"/>
  </g>
</svg>
