<?xml version="1.0" encoding="UTF-8" standalone="no"?>
<svg xmlns:ffdec="https://www.free-decompiler.com/flash" xmlns:xlink="http://www.w3.org/1999/xlink" ffdec:objectType="shape" height="81.6px" width="79.95px" xmlns="http://www.w3.org/2000/svg">
  <g transform="matrix(1.0, 0.0, 0.0, 1.0, 39.95, 40.8)">
    <path d="M-10.5 -8.65 Q-8.6 -8.65 -7.2 -10.05 -5.85 -11.45 -5.85 -13.35 -5.85 -15.25 -7.2 -16.6 -8.6 -18.0 -10.5 -18.0 -12.4 -18.0 -13.8 -16.6 -15.15 -15.25 -15.15 -13.35 -15.15 -11.45 -13.8 -10.05 -12.4 -8.65 -10.5 -8.65 M-4.6 -13.35 Q-4.6 -10.85 -6.3 -9.15 -8.0 -7.4 -10.5 -7.4 -12.95 -7.4 -14.65 -9.15 -16.4 -10.9 -16.4 -13.35 -16.4 -15.75 -14.65 -17.55 -12.95 -19.25 -10.5 -19.25 -8.0 -19.25 -6.3 -17.55 -4.6 -15.75 -4.6 -13.35 M1.9 -32.3 Q0.95 -33.85 0.2 -34.15 -0.05 -34.3 -2.15 -30.15 L-4.1 -26.0 Q-9.6 -30.7 -12.1 -31.8 -18.6 -31.75 -24.75 -27.9 -29.65 -24.95 -32.65 -21.0 -35.0 -17.0 -36.8 -12.1 L-38.45 -7.05 -29.9 2.95 Q-24.55 9.4 -23.45 11.9 -21.7 18.9 -24.55 30.55 -25.95 35.85 -25.95 38.5 L-22.35 38.5 Q-21.55 36.6 -22.4 32.9 L-23.45 29.7 -22.75 30.7 -22.4 31.0 -22.8 30.5 Q-20.1 33.85 -15.65 33.95 -13.05 33.95 -10.9 33.1 L-11.7 32.5 Q-13.85 30.2 -13.35 27.2 -12.95 30.35 -11.1 31.85 L-6.15 34.9 -6.15 34.95 -5.65 36.25 Q-5.35 37.7 -6.35 38.5 L0.55 38.5 Q1.25 37.05 1.6 34.25 L1.85 31.65 1.2 30.6 1.05 30.3 -0.25 27.65 -0.4 27.45 -3.15 19.1 Q-4.0 24.55 -5.7 25.55 -8.35 27.15 -9.95 23.7 L-10.05 23.65 -11.6 23.4 -11.8 23.3 -12.35 23.05 -12.55 22.95 -13.0 22.55 -13.15 22.45 -13.65 21.9 -14.0 21.2 -14.2 20.5 -14.1 19.4 Q-13.25 18.4 -12.4 16.35 -11.4 13.95 -11.35 11.75 L-13.7 9.6 Q-10.85 11.7 -9.9 11.55 -10.05 13.05 -10.7 15.5 -11.5 18.6 -12.35 19.7 -12.35 21.5 -10.7 21.6 -9.25 21.7 -8.25 20.55 -7.55 19.8 -6.35 16.25 -5.05 12.55 -4.3 11.55 L-4.3 6.1 Q-2.7 1.0 1.25 -3.55 3.25 -5.8 4.9 -7.05 3.95 -10.85 2.2 -15.95 0.35 -21.2 -0.75 -23.15 2.85 -26.4 3.0 -28.7 3.15 -30.4 1.9 -32.3 M24.25 -39.05 Q18.05 -39.55 14.15 -35.2 10.6 -31.25 9.4 -23.7 7.95 -14.8 11.3 -0.85 13.05 6.25 15.45 13.75 15.85 15.45 17.35 19.65 17.95 23.25 14.0 24.3 11.85 24.9 12.55 26.95 13.3 28.85 15.85 30.9 22.45 36.05 25.65 33.05 31.5 27.55 30.3 17.55 27.5 4.95 26.9 -2.75 26.3 -10.45 27.3 -14.7 28.7 -20.7 32.8 -16.45 30.8 -18.0 31.0 -15.1 31.2 -12.2 32.6 -11.25 33.95 -10.6 36.05 -12.95 38.6 -15.9 38.3 -21.3 37.1 -37.95 24.25 -39.05 M32.7 -37.9 Q38.1 -33.9 39.6 -26.1 40.95 -18.6 38.0 -13.15 34.85 -7.15 28.5 -8.1 28.1 -4.8 29.2 1.45 L31.35 12.6 Q33.8 26.85 28.35 33.0 23.35 38.55 12.75 34.95 9.5 33.85 5.95 31.95 L3.0 30.2 Q3.5 31.2 3.45 33.1 3.35 35.4 2.7 37.85 2.1 40.15 1.55 40.8 L-9.6 40.8 -9.7 38.65 -8.45 37.85 Q-7.35 36.75 -7.65 35.4 -8.25 35.3 -9.4 34.45 L-13.35 35.2 Q-16.8 35.6 -18.85 34.5 -18.9 36.45 -17.45 40.75 L-28.2 40.75 -28.0 38.25 -25.9 29.75 Q-24.5 25.25 -24.0 19.7 -29.65 22.15 -31.75 22.6 -33.4 23.0 -35.35 20.75 -37.4 18.6 -36.0 17.75 -29.65 14.05 -26.2 9.65 -27.6 6.5 -33.3 0.15 L-39.95 -7.05 Q-39.7 -9.15 -37.25 -14.9 -35.0 -20.15 -33.95 -21.75 L-33.25 -22.8 -34.95 -24.75 Q-36.65 -27.05 -36.65 -29.1 -36.75 -31.55 -35.0 -33.65 -33.4 -35.7 -31.45 -35.85 L-27.45 -28.0 Q-25.4 -29.7 -20.95 -31.35 -15.7 -33.25 -11.55 -33.1 L-8.75 -31.6 Q-5.65 -29.85 -4.5 -28.45 -4.4 -29.5 -2.6 -32.9 -0.9 -36.35 -0.25 -36.75 0.5 -37.25 2.9 -33.95 5.4 -30.6 5.15 -28.6 5.0 -26.75 3.15 -24.75 L1.25 -23.0 3.95 -16.1 Q6.65 -8.75 6.85 -6.7 L1.85 -1.65 Q-1.7 2.15 -2.95 6.25 -3.05 8.35 -2.2 14.5 -1.1 22.0 0.55 25.35 3.25 26.3 9.5 24.2 16.7 21.8 15.15 17.35 12.9 11.05 10.95 3.35 8.65 -5.6 7.85 -11.95 6.85 -20.5 8.95 -28.5 11.45 -38.05 17.1 -39.75 26.45 -42.55 32.7 -37.9" fill="#6f8c97" fill-rule="evenodd" stroke="none"/>
    <path d="M-10.65 -10.0 Q-12.1 -10.0 -13.05 -11.05 -14.1 -12.0 -14.1 -13.45 -14.1 -14.9 -13.05 -15.9 -12.1 -16.95 -10.65 -16.95 -9.2 -16.95 -8.15 -15.9 -7.15 -14.9 -7.15 -13.45 -7.15 -12.0 -8.15 -11.05 -9.2 -10.0 -10.65 -10.0" fill="#292929" fill-rule="evenodd" stroke="none"/>
    <path d="M24.0 -17.85 L26.45 -19.05 Q29.25 -19.8 31.0 -17.85 28.0 -19.4 27.1 -13.6 26.4 -9.35 26.9 -2.75 27.5 4.95 30.3 17.55 31.5 27.55 25.65 33.05 23.95 34.6 20.45 33.45 17.35 32.4 14.75 29.9 L16.1 29.45 Q24.6 21.75 24.0 6.75 L23.15 -5.65 Q22.75 -12.95 24.0 -17.85 M36.5 -27.85 Q35.05 -32.9 30.6 -36.25 L28.1 -38.25 Q37.3 -35.15 38.3 -21.3 38.6 -15.9 36.05 -12.95 33.95 -10.6 32.6 -11.25 31.5 -12.0 31.05 -14.4 30.6 -16.8 31.65 -16.9 L32.8 -16.45 32.4 -16.75 Q33.75 -15.75 34.55 -16.55 38.2 -22.0 36.5 -27.85" fill="#8babb5" fill-rule="evenodd" stroke="none"/>
    <path d="M-23.3 12.3 L-23.3 9.7 -17.55 9.45 Q-14.45 10.0 -11.55 11.55 L-11.35 11.75 -11.4 12.35 Q-11.6 14.4 -12.55 16.6 -13.35 18.55 -14.1 19.4 L-14.2 20.5 -14.0 21.2 -13.65 21.9 -13.5 22.0 Q-14.05 23.2 -14.0 25.15 -13.9 27.0 -13.4 28.65 L-13.2 30.05 Q-14.95 32.7 -18.7 31.75 -22.15 30.9 -24.0 28.1 -21.85 18.6 -23.3 12.3 M-10.65 -10.0 Q-9.2 -10.0 -8.15 -11.05 -7.15 -12.0 -7.15 -13.45 -7.15 -14.9 -8.15 -15.9 -9.2 -16.95 -10.65 -16.95 -12.1 -16.95 -13.05 -15.9 -14.1 -14.9 -14.1 -13.45 -14.1 -12.0 -13.05 -11.05 -12.1 -10.0 -10.65 -10.0 M-10.5 -18.0 Q-8.6 -18.0 -7.2 -16.6 -5.85 -15.25 -5.85 -13.35 -5.85 -11.45 -7.2 -10.05 -8.6 -8.65 -10.5 -8.65 -12.4 -8.65 -13.8 -10.05 -15.15 -11.45 -15.15 -13.35 -15.15 -15.25 -13.8 -16.6 -12.4 -18.0 -10.5 -18.0" fill="#fefee2" fill-rule="evenodd" stroke="none"/>
    <path d="M-11.7 32.5 L-10.9 33.1 Q-13.05 33.95 -15.65 33.95 -20.1 33.85 -22.8 30.5 L-22.4 31.1 -23.45 29.7 -23.3 29.95 -24.1 28.8 -24.0 28.1 Q-22.15 30.9 -18.7 31.75 -14.95 32.7 -13.2 30.05 -12.85 31.35 -11.7 32.5 M-23.3 12.3 L-23.45 11.9 -24.25 10.45 Q-23.8 7.75 -19.75 8.0 -16.2 8.3 -13.0 10.25 L-11.55 11.55 Q-14.45 10.0 -17.55 9.45 L-23.3 9.7 -23.3 12.3" fill="#dad9b5" fill-rule="evenodd" stroke="none"/>
    <path d="M-22.35 38.5 L-25.95 38.5 Q-25.95 36.05 -24.75 31.35 -23.4 32.05 -22.25 33.55 -21.6 36.85 -22.35 38.5 M-13.15 22.45 L-13.0 22.55 -12.55 22.95 -12.35 23.05 -11.8 23.3 -11.6 23.4 -10.05 23.65 -9.95 23.7 Q-8.35 27.15 -5.7 25.55 -4.9 25.05 -4.4 23.9 -2.35 27.75 -2.0 31.6 -1.65 35.85 -3.6 38.5 L-6.35 38.5 Q-5.35 37.7 -5.65 36.25 L-6.15 34.95 -6.15 34.9 -11.1 31.85 Q-12.95 30.35 -13.35 27.2 L-13.4 28.65 Q-13.9 27.0 -14.0 25.15 -14.05 23.2 -13.5 22.0 L-13.15 22.45 M-10.35 7.6 L-6.25 7.1 Q-6.9 8.15 -7.55 14.85 -8.0 20.1 -11.6 21.3 -12.35 20.75 -12.35 19.7 -11.5 18.6 -10.7 15.5 -10.05 13.05 -9.9 11.55 -10.35 11.7 -11.55 10.95 -12.35 8.5 -10.35 7.6 M-28.4 -11.55 Q-33.4 -11.25 -33.95 -8.35 -33.85 -6.35 -31.8 -4.85 -30.75 -4.05 -29.75 -3.75 -28.1 -3.9 -26.35 -4.55 -22.75 -5.8 -22.0 -8.15 -23.3 -11.9 -28.4 -11.55 M-6.3 -17.55 Q-8.0 -19.25 -10.5 -19.25 -12.95 -19.25 -14.65 -17.55 -16.4 -15.75 -16.4 -13.35 -16.4 -10.9 -14.65 -9.15 -12.95 -7.4 -10.5 -7.4 -8.0 -7.4 -6.3 -9.15 -4.6 -10.85 -4.6 -13.35 -4.6 -15.75 -6.3 -17.55 M0.2 -34.15 Q0.6 -34.05 1.6 -32.7 -0.5 -30.5 -1.1 -28.3 -1.75 -25.75 -0.2 -23.7 L-0.75 -23.15 Q0.55 -20.9 2.6 -14.9 2.45 -9.45 0.0 -5.85 -2.35 -2.45 -9.0 0.15 -15.3 2.55 -21.35 2.7 -27.7 2.9 -33.05 -0.8 L-38.45 -7.05 -36.8 -12.1 Q-35.0 -17.0 -32.65 -21.0 -29.65 -24.95 -24.75 -27.9 -18.6 -31.75 -12.1 -31.8 -9.6 -30.7 -4.1 -26.0 L-2.15 -30.15 Q-0.05 -34.3 0.2 -34.15" fill="#d5e9f0" fill-rule="evenodd" stroke="none"/>
    <path d="M28.1 -38.25 L30.6 -36.25 Q35.05 -32.9 36.5 -27.85 38.2 -22.0 34.55 -16.55 33.75 -15.75 32.4 -16.75 L31.0 -17.85 Q29.25 -19.8 26.45 -19.05 L24.0 -17.85 Q22.75 -12.95 23.15 -5.65 L24.0 6.75 Q24.6 21.75 16.1 29.45 L14.75 29.9 Q12.75 28.0 12.45 26.55 12.05 24.9 14.0 24.3 17.95 23.25 17.35 19.65 15.85 15.45 15.45 13.75 13.05 6.25 11.3 -0.85 7.95 -14.8 9.4 -23.7 10.6 -31.25 14.15 -35.2 18.05 -39.55 24.25 -39.05 26.1 -38.95 28.1 -38.25" fill="#adccd9" fill-rule="evenodd" stroke="none"/>
    <path d="M-24.75 31.35 L-24.1 28.8 -23.3 29.95 Q-22.6 31.85 -22.25 33.55 -23.4 32.05 -24.75 31.35 M-4.4 23.9 Q-3.55 22.15 -3.15 19.1 L-0.4 27.45 -0.25 27.65 1.05 30.3 1.2 30.6 1.85 31.65 1.6 34.25 Q1.25 37.05 0.55 38.5 L-3.6 38.5 Q-1.65 35.85 -2.0 31.6 -2.35 27.75 -4.4 23.9 M-33.05 -0.8 Q-27.7 2.9 -21.35 2.7 -15.3 2.55 -9.0 0.15 -2.35 -2.45 0.0 -5.85 2.45 -9.45 2.6 -14.9 L4.9 -7.05 Q3.25 -5.8 1.25 -3.55 -2.7 1.0 -4.3 6.1 L-4.3 11.55 Q-5.05 12.55 -6.35 16.25 -7.55 19.8 -8.25 20.55 -8.85 21.3 -9.9 21.55 L-11.6 21.3 Q-8.0 20.1 -7.55 14.85 -6.9 8.15 -6.25 7.1 L-10.35 7.6 Q-12.35 8.5 -11.55 10.95 L-13.7 9.6 -13.0 10.25 Q-16.2 8.3 -19.75 8.0 -23.8 7.75 -24.25 10.45 -26.4 6.85 -33.05 -0.8 M-1.1 -28.3 Q-0.5 -30.5 1.6 -32.7 3.15 -30.7 3.0 -28.7 2.85 -26.75 -0.2 -23.7 -1.75 -25.75 -1.1 -28.3" fill="#adccd9" fill-rule="evenodd" stroke="none"/>
    <path d="M-29.65 -4.05 L-32.85 -8.1 Q-32.2 -9.7 -28.85 -9.9 -25.3 -10.1 -23.85 -7.95 L-29.55 -4.15 -29.65 -4.05" fill="#a5926f" fill-rule="evenodd" stroke="none"/>
    <path d="M-32.85 -8.1 L-29.65 -4.05 -29.55 -4.15 -23.85 -7.95 Q-25.3 -10.1 -28.85 -9.9 -32.2 -9.7 -32.85 -8.1 M-33.95 -8.35 Q-33.4 -11.25 -28.4 -11.55 -23.3 -11.9 -22.0 -8.15 -22.85 -5.3 -28.05 -4.0 -27.35 -3.5 -26.0 -3.1 -24.45 -2.55 -23.5 -2.7 -18.65 -3.35 -19.55 -6.7 -16.1 -2.65 -21.6 -1.45 -27.05 -0.25 -29.65 -3.75 L-29.75 -3.75 Q-30.75 -4.05 -31.8 -4.85 -33.85 -6.35 -33.95 -8.35" fill="#6a583d" fill-rule="evenodd" stroke="none"/>
    <path d="M-25.5 -8.2 Q-25.5 -7.5 -26.8 -7.5 -28.1 -7.5 -28.1 -8.2 -28.1 -8.55 -27.7 -8.75 L-26.8 -9.0 -25.9 -8.75 -25.5 -8.2" fill="#fefee2" fill-rule="evenodd" stroke="none"/>
  </g>
</svg>
