<?xml version="1.0" encoding="UTF-8" standalone="no"?>
<svg xmlns:ffdec="https://www.free-decompiler.com/flash" xmlns:xlink="http://www.w3.org/1999/xlink" ffdec:objectType="shape" height="76.0px" width="70.0px" xmlns="http://www.w3.org/2000/svg">
  <g transform="matrix(1.0, 0.0, 0.0, 1.0, 35.0, 38.0)">
    <path d="M0.0 -2.8 L-34.0 -19.8 0.0 -36.9 34.0 -19.8 0.0 -2.8 M-11.8 -24.9 L-11.8 -19.2 -0.5 -13.6 10.9 -19.2 10.9 -24.9 -0.5 -30.6 Q-6.1 -27.7 -11.8 -24.9" fill="#f4fbfe" fill-rule="evenodd" stroke="none"/>
    <path d="M-0.5 -19.2 L-11.8 -24.9 Q-6.1 -27.7 -0.5 -30.6 L10.9 -24.9 -0.5 -19.2" fill="#ffffff" fill-rule="evenodd" stroke="none"/>
    <path d="M-34.0 -19.8 L0.0 -2.8 0.0 36.8 -34.0 19.8 -34.0 -19.8 M-11.8 -24.9 L-0.5 -19.2 -0.5 -13.6 -11.8 -19.2 -11.8 -24.9" fill="#c8eaf5" fill-rule="evenodd" stroke="none"/>
    <path d="M-0.5 -13.6 L-0.5 -19.2 10.9 -24.9 10.9 -19.2 -0.5 -13.6" fill="#a0dcf2" fill-rule="evenodd" stroke="none"/>
    <path d="M0.0 -36.9 L-34.0 -19.8 -35.0 -20.5 0.0 -38.0 0.0 -36.9" fill="#a0dcf4" fill-rule="evenodd" stroke="none"/>
    <path d="M34.0 -19.8 L0.0 -36.9 0.0 -38.0 35.0 -20.5 34.0 -19.8" fill="#58a8d6" fill-rule="evenodd" stroke="none"/>
    <path d="M34.0 -19.8 L35.0 -20.5 35.0 20.5 0.0 38.0 0.0 36.8 34.0 19.8 34.0 -19.8" fill="#485655" fill-rule="evenodd" stroke="none"/>
    <path d="M0.0 -2.8 L34.0 -19.8 34.0 19.8 0.0 36.8 0.0 -2.8" fill="#9fdcf2" fill-rule="evenodd" stroke="none"/>
    <path d="M-35.0 -20.5 L-34.0 -19.8 -34.0 19.8 -35.0 20.5 -35.0 -20.5" fill="#57a8d7" fill-rule="evenodd" stroke="none"/>
    <path d="M-35.0 20.5 L-34.0 19.8 0.0 36.8 0.0 38.0 -35.0 20.5" fill="#2b78bc" fill-rule="evenodd" stroke="none"/>
  </g>
</svg>
