<?xml version="1.0" encoding="UTF-8" standalone="no"?>
<svg xmlns:ffdec="https://www.free-decompiler.com/flash" xmlns:xlink="http://www.w3.org/1999/xlink" ffdec:objectType="shape" height="75.9px" width="70.0px" xmlns="http://www.w3.org/2000/svg">
  <g transform="matrix(1.0, 0.0, 0.0, 1.0, 35.0, 37.95)">
    <path d="M-34.0 -19.85 L0.0 -2.85 0.0 36.85 -34.0 19.85 -34.0 -19.85 M-0.3 -13.55 L-11.6 -19.15 -11.6 -24.85 -0.3 -19.15 -0.3 -13.55" fill="#d2e38b" fill-rule="evenodd" stroke="none"/>
    <path d="M-34.0 -19.85 L0.0 -36.85 34.0 -19.85 0.0 -2.85 -34.0 -19.85 M-0.3 -19.15 L-11.6 -24.85 -11.6 -19.15 -0.3 -13.55 11.1 -19.15 11.1 -24.85 -0.3 -19.15" fill="#f5f2bf" fill-rule="evenodd" stroke="none"/>
    <path d="M0.0 -36.85 L-34.0 -19.85 -35.0 -20.45 0.0 -37.95 0.0 -36.85 M0.0 -2.85 L34.0 -19.85 34.0 19.85 0.0 36.85 0.0 -2.85 M-0.3 -13.55 L-0.3 -19.15 11.1 -24.85 11.1 -19.15 -0.3 -13.55" fill="#add48c" fill-rule="evenodd" stroke="none"/>
    <path d="M0.0 -36.85 L0.0 -37.95 35.0 -20.45 34.0 -19.85 0.0 -36.85 M-35.0 -20.45 L-34.0 -19.85 -34.0 19.85 -35.0 20.45 -35.0 -20.45" fill="#36b779" fill-rule="evenodd" stroke="none"/>
    <path d="M34.0 -19.85 L35.0 -20.45 35.0 20.45 0.0 37.95 0.0 36.85 34.0 19.85 34.0 -19.85" fill="#485655" fill-rule="evenodd" stroke="none"/>
    <path d="M-34.0 19.85 L0.0 36.85 0.0 37.95 -35.0 20.45 -34.0 19.85" fill="#516f7d" fill-rule="evenodd" stroke="none"/>
  </g>
</svg>
