<?xml version="1.0" encoding="UTF-8" standalone="no"?>
<svg xmlns:ffdec="https://www.free-decompiler.com/flash" xmlns:xlink="http://www.w3.org/1999/xlink" ffdec:objectType="shape" height="84.15px" width="77.9px" xmlns="http://www.w3.org/2000/svg">
  <g transform="matrix(1.0, 0.0, 0.0, 1.0, 38.95, 42.1)">
    <path d="M-35.7 18.9 L-34.0 17.95 -28.9 15.1 Q-19.05 9.65 -7.7 4.7 -18.05 11.7 -27.75 17.15 L-32.8 20.0 -35.15 21.35 -36.3 22.45 Q-36.15 23.0 -35.0 23.45 3.65 35.3 5.75 35.55 7.95 35.8 10.1 35.5 12.95 35.15 14.4 33.8 15.6 32.65 25.35 25.05 L35.25 17.2 Q36.15 16.35 36.0 15.75 35.25 15.15 33.45 14.75 L30.0 13.95 15.9 10.8 3.85 7.8 -6.9 4.6 Q5.45 6.1 16.4 8.5 L30.55 11.65 32.95 12.2 35.6 12.9 Q37.35 13.5 38.35 14.8 39.05 16.1 38.9 18.15 L38.8 19.5 Q38.75 20.3 38.15 21.7 L31.75 26.95 16.6 39.25 Q13.75 41.5 10.45 41.9 L7.9 41.95 Q7.65 42.45 -0.6 40.0 L-19.3 34.5 -35.0 29.95 Q-37.05 29.25 -37.8 28.65 -38.6 28.15 -38.85 26.95 L-38.9 25.5 -38.85 23.0 Q-38.7 21.25 -37.65 20.3 L-35.7 18.9" fill="#0a0c0b" fill-rule="evenodd" stroke="none"/>
    <path d="M-7.7 4.7 L-7.3 4.5 -6.9 4.6 3.85 7.8 15.9 10.8 30.0 13.95 33.3 14.7 Q35.25 15.1 36.0 15.7 36.15 16.35 35.25 17.2 L25.35 25.05 Q15.6 32.65 14.4 33.8 12.95 35.15 10.1 35.5 7.95 35.8 5.75 35.55 3.65 35.3 -35.0 23.45 -36.15 23.0 -36.3 22.45 -35.95 21.8 -34.9 21.2 L-32.8 20.0 -27.75 17.15 Q-18.05 11.7 -7.7 4.7" fill="#252b27" fill-rule="evenodd" stroke="none"/>
    <path d="M6.8 -33.5 L6.35 -35.85 Q5.65 -38.7 3.0 -39.35 L-0.85 -39.65 Q-3.2 -39.35 -3.95 -38.05 L-5.4 -33.2 -6.9 -27.8 Q-15.25 3.3 -16.55 7.9 L-18.55 14.45 Q-19.65 17.75 -18.85 19.55 -17.25 23.45 -10.55 26.45 -14.1 25.55 -16.2 24.4 -18.95 22.8 -20.4 20.25 -21.65 17.65 -20.65 13.95 -19.2 9.65 -18.8 7.3 L-9.15 -28.4 -7.7 -33.8 -6.05 -39.05 Q-4.15 -41.65 -1.1 -42.05 L3.65 -41.6 Q5.65 -41.35 7.25 -39.3 8.6 -37.55 8.5 -36.4 L9.05 -34.1 16.5 -6.3 22.3 15.0 Q23.1 17.65 22.05 20.4 21.15 22.7 19.35 24.2 17.3 25.85 13.8 27.35 6.7 29.45 0.8 29.1 -4.0 28.75 -10.55 26.45 L0.85 27.35 Q6.35 27.1 12.95 25.15 15.9 24.15 17.8 22.4 21.0 19.55 20.05 15.65 L6.8 -33.5" fill="#691d01" fill-rule="evenodd" stroke="none"/>
    <path d="M10.45 -19.75 L15.1 -2.35 Q14.45 -0.15 11.05 1.25 10.85 -7.3 8.4 -17.65 10.05 -18.55 10.45 -19.75" fill="#c6bfbb" fill-rule="evenodd" stroke="none"/>
    <path d="M8.4 -17.65 Q10.85 -7.3 11.05 1.25 5.5 3.55 -3.05 2.8 -11.7 2.1 -14.1 -1.05 L-9.25 -18.9 Q-7.95 -16.95 -1.6 -16.4 4.85 -15.85 8.4 -17.65" fill="#f6ebe5" fill-rule="evenodd" stroke="none"/>
    <path d="M-14.1 -1.05 Q-11.7 2.1 -3.05 2.8 5.5 3.55 11.05 1.25 11.35 9.85 9.5 17.8 9.15 20.7 5.85 22.45 2.75 24.1 -1.85 24.3 -12.55 24.75 -18.5 18.8 -18.85 18.8 -19.15 18.4 -19.35 16.8 -18.3 13.75 -16.85 9.5 -16.55 7.9 L-14.1 -1.05 M3.0 -39.35 Q4.55 -38.95 5.45 -37.8 L4.15 -36.4 Q3.45 -35.7 2.5 -36.2 6.2 -26.75 8.4 -17.65 4.85 -15.85 -1.6 -16.4 -7.95 -16.95 -9.25 -18.9 L-6.9 -27.8 -5.4 -33.2 -3.95 -38.05 Q-3.2 -39.35 -0.85 -39.65 L3.0 -39.35" fill="#ec4a01" fill-rule="evenodd" stroke="none"/>
    <path d="M11.05 1.25 Q14.45 -0.15 15.1 -2.35 L20.05 15.65 Q21.0 19.55 17.8 22.4 15.9 24.15 12.95 25.15 6.35 27.1 0.85 27.35 L-10.55 26.45 Q-17.25 23.45 -18.85 19.55 L-19.15 18.4 Q-18.85 18.8 -18.5 18.8 -12.55 24.75 -1.85 24.3 2.75 24.1 5.85 22.45 9.15 20.7 9.5 17.8 11.35 9.85 11.05 1.25 M2.6 -38.8 Q3.5 -38.55 3.5 -38.2 3.5 -37.85 2.6 -37.6 L0.5 -37.35 -1.6 -37.6 Q-2.5 -37.85 -2.5 -38.2 -2.5 -38.55 -1.6 -38.8 L0.5 -39.05 2.6 -38.8 M4.15 -36.4 L5.45 -37.8 Q6.25 -36.7 6.5 -34.8 6.65 -33.4 6.8 -33.5 L10.45 -19.75 Q10.05 -18.55 8.4 -17.65 6.2 -26.75 2.5 -36.2 3.45 -35.7 4.15 -36.4" fill="#b73601" fill-rule="evenodd" stroke="none"/>
  </g>
</svg>
