<?xml version="1.0" encoding="UTF-8" standalone="no"?>
<svg xmlns:ffdec="https://www.free-decompiler.com/flash" xmlns:xlink="http://www.w3.org/1999/xlink" ffdec:objectType="shape" height="83.25px" width="81.0px" xmlns="http://www.w3.org/2000/svg">
  <g transform="matrix(1.0, 0.0, 0.0, 1.0, 40.5, 41.65)">
    <path d="M-14.95 35.15 Q-13.85 36.55 -14.15 37.35 L-14.95 38.2 -15.9 39.0 -17.7 40.5 -18.3 40.35 -19.1 39.75 -19.35 39.45 Q-18.1 35.75 -15.75 34.45 L-14.95 35.15 M37.3 -26.15 Q37.65 -22.25 36.1 -19.0 35.7 -17.9 34.05 -15.85 33.3 -14.6 33.65 -13.7 L34.05 -13.0 34.55 -12.05 35.45 -10.15 Q37.15 -5.95 35.25 -2.4 33.2 1.4 29.35 3.7 25.3 6.1 21.2 5.65 17.6 5.45 13.0 3.3 L9.25 1.25 7.8 0.35 7.55 0.15 Q7.25 -0.05 5.75 0.15 L4.65 1.1 3.95 1.85 -8.65 14.4 -8.65 15.85 Q-11.85 17.15 -13.5 18.4 -15.85 20.1 -16.55 22.45 -15.15 23.4 -13.4 25.45 L-10.45 28.75 Q-8.1 24.25 -4.0 21.3 L-3.65 21.65 Q-2.3 23.05 -2.3 23.25 L-3.05 24.45 -6.85 28.4 -9.35 30.9 Q-10.15 31.35 -11.25 30.45 L-17.05 25.1 Q-18.65 25.2 -18.75 25.45 L-19.05 25.9 -20.6 27.65 -20.7 27.8 Q-25.05 30.2 -26.35 33.1 L-26.7 33.1 -26.95 33.3 Q-29.0 35.45 -30.3 36.05 L-34.0 35.9 Q-35.75 35.25 -36.75 33.3 -37.8 31.3 -37.15 29.55 -36.05 29.4 -33.65 30.35 -31.7 31.15 -31.7 30.7 L-12.95 11.7 Q-1.8 0.55 7.3 -4.3 8.6 -5.15 14.45 -1.15 20.95 3.25 25.3 2.7 33.15 2.0 34.05 -4.9 34.9 -11.5 29.3 -16.3 34.0 -16.95 35.3 -21.3 36.25 -24.5 35.3 -29.3 L34.8 -32.85 35.3 -32.25 Q36.95 -29.55 37.3 -26.15" fill="#6a7763" fill-rule="evenodd" stroke="none"/>
    <path d="M-24.9 33.3 L-25.1 33.1 -26.35 33.1 Q-25.4 31.05 -22.85 29.15 L-20.1 32.35 -17.05 35.45 Q-18.55 36.9 -19.35 39.45 L-24.55 33.75 -24.9 33.3 M-10.55 16.7 Q-8.75 18.3 -5.9 22.85 -8.75 25.4 -10.45 28.75 L-13.4 25.45 Q-15.2 23.4 -16.55 22.45 -15.55 19.0 -10.55 16.7 M25.2 2.75 L25.3 2.7 26.7 2.55 25.2 2.75 Q20.85 3.2 14.45 -1.15 8.6 -5.15 7.3 -4.3 -1.8 0.55 -12.95 11.7 L-31.7 30.7 Q-31.7 31.15 -33.65 30.35 -36.05 29.4 -37.15 29.55 L-36.7 28.7 -19.3 11.25 -1.6 -6.45 Q-0.95 -8.2 -1.3 -8.8 -1.8 -9.1 -1.7 -9.4 L-2.3 -10.4 Q-4.25 -13.9 -5.25 -16.65 -5.8 -20.95 -5.45 -23.95 -4.95 -27.95 -2.7 -31.3 0.6 -35.25 5.2 -35.5 9.3 -35.7 13.3 -33.0 L13.3 -33.3 Q17.15 -36.65 22.65 -37.25 28.05 -37.8 32.3 -35.5 L34.8 -32.85 35.3 -29.3 Q36.25 -24.5 35.3 -21.3 34.0 -16.95 29.3 -16.3 34.9 -11.5 34.05 -4.9 33.25 1.35 26.7 2.55 L27.25 2.35 Q28.75 2.15 30.65 0.0 32.9 -2.65 32.7 -5.7 32.65 -8.5 30.75 -10.8 L28.9 -12.45 28.3 -12.8 26.6 -12.95 25.95 -12.8 21.5 -12.4 20.85 -12.35 20.7 -12.3 20.6 -12.3 19.2 -11.05 19.2 -11.1 19.1 -11.0 19.2 -11.05 18.7 -9.8 Q18.55 -9.05 17.65 -8.1 L17.1 -7.35 16.95 -7.25 16.85 -7.15 16.45 -5.15 17.35 -3.55 19.15 -1.25 21.35 0.55 Q22.95 2.7 25.2 2.75 M11.9 -29.55 Q11.25 -30.05 11.0 -30.6 9.7 -32.05 7.6 -32.85 4.0 -34.0 1.8 -31.05 -1.9 -30.95 -3.1 -27.4 -3.7 -25.25 -3.3 -23.3 -3.0 -22.8 -2.95 -22.0 -2.7 -21.2 -1.3 -20.25 L0.9 -19.1 3.7 -17.55 3.85 -17.5 3.85 -17.45 3.9 -17.45 5.85 -17.8 6.45 -18.4 8.15 -19.65 9.25 -20.05 10.4 -20.45 10.45 -20.45 11.75 -21.9 11.75 -22.1 12.3 -27.2 Q12.4 -28.85 11.9 -29.55 M29.6 -30.75 Q27.85 -34.75 23.4 -34.6 20.9 -34.45 18.75 -33.1 L17.4 -32.0 16.6 -30.35 16.55 -29.7 14.9 -21.2 15.65 -19.5 15.7 -19.5 15.85 -19.35 16.0 -19.25 17.25 -18.25 18.45 -16.65 18.5 -16.6 18.35 -16.65 20.25 -15.85 20.4 -15.85 28.6 -17.7 29.2 -17.75 30.9 -18.5 31.95 -19.85 Q33.45 -22.2 33.45 -24.5 33.65 -29.0 29.6 -30.75" fill="#8f9988" fill-rule="evenodd" stroke="none"/>
    <path d="M16.8 -7.15 L16.85 -7.15 16.8 -7.1 16.8 -7.15 M19.2 -11.05 L20.6 -12.3 20.7 -12.3 20.85 -12.35 21.5 -12.4 25.95 -12.8 26.6 -12.95 28.3 -12.8 28.9 -12.45 30.75 -10.8 Q32.65 -8.5 32.7 -5.7 32.9 -2.65 30.65 0.0 28.75 2.15 27.25 2.35 23.6 3.6 21.35 0.55 L23.95 0.15 26.15 -0.6 Q27.15 -0.75 28.3 -2.1 29.7 -3.7 29.55 -5.6 29.5 -7.35 28.35 -8.8 27.0 -10.45 27.2 -9.8 L27.15 -9.85 26.35 -9.7 21.85 -9.25 21.55 -8.5 20.9 -7.2 20.05 -6.1 19.75 -5.7 20.1 -5.1 Q20.9 -3.65 21.15 -2.3 L21.35 0.55 19.15 -1.25 17.35 -3.55 16.45 -5.15 16.85 -7.15 16.95 -7.25 17.1 -7.35 17.65 -8.1 Q18.55 -9.05 18.7 -9.8 L19.2 -11.05 M11.0 -30.6 Q11.25 -30.05 11.9 -29.55 12.4 -28.85 12.3 -27.2 L11.75 -22.1 11.75 -21.9 10.45 -20.45 10.4 -20.45 9.25 -20.05 8.15 -19.65 6.45 -18.4 5.85 -17.8 3.9 -17.45 3.85 -17.45 3.85 -17.5 3.7 -17.55 0.9 -19.1 -1.3 -20.25 Q-2.7 -21.2 -2.95 -22.0 -3.0 -22.8 -3.3 -23.3 -3.7 -25.25 -3.1 -27.4 -1.9 -30.95 1.8 -31.05 1.05 -29.85 0.65 -28.7 L-0.1 -26.5 Q-0.45 -24.9 -0.2 -23.95 L0.05 -23.1 4.4 -20.75 6.65 -22.4 8.2 -23.0 8.7 -23.15 9.2 -27.75 8.65 -28.5 7.45 -29.45 Q6.75 -29.8 6.55 -29.9 L4.35 -30.6 1.8 -31.05 Q4.0 -34.0 7.6 -32.85 9.7 -32.05 11.0 -30.6 M23.6 -31.5 Q21.9 -31.35 20.45 -30.5 L19.8 -29.95 18.2 -21.5 18.9 -20.95 19.45 -20.45 20.5 -19.1 20.6 -19.15 28.05 -20.8 28.8 -20.95 29.35 -21.6 Q30.2 -22.95 30.35 -24.7 L30.35 -27.65 29.6 -30.75 Q33.65 -29.0 33.45 -24.5 33.45 -22.2 31.95 -19.85 L30.9 -18.5 29.2 -17.75 28.6 -17.7 20.4 -15.85 20.25 -15.85 18.35 -16.65 18.5 -16.6 18.45 -16.65 17.25 -18.25 16.0 -19.25 15.85 -19.35 15.7 -19.5 15.65 -19.5 14.9 -21.2 16.55 -29.7 16.6 -30.35 17.4 -32.0 18.75 -33.1 Q20.9 -34.45 23.4 -34.6 27.85 -34.75 29.6 -30.75 L26.55 -31.45 23.6 -31.5 M23.4 -41.65 L24.55 -41.6 Q24.3 -41.45 28.85 -40.85 34.35 -39.15 37.95 -33.9 40.0 -30.5 40.4 -26.4 40.85 -21.8 38.95 -17.7 38.4 -16.25 36.9 -14.4 37.1 -13.55 37.35 -13.5 L38.35 -11.3 Q39.35 -8.9 39.35 -6.2 39.3 -3.3 38.05 -1.05 35.55 3.65 30.95 6.4 26.2 9.25 21.0 8.8 16.8 8.55 11.6 6.1 9.55 5.15 7.6 3.9 L6.8 3.4 -5.35 15.55 -0.25 20.65 Q0.55 21.65 0.7 22.8 0.95 23.8 0.3 25.15 -0.25 26.25 -0.85 26.65 L-4.8 30.45 -6.65 32.25 Q-7.9 33.4 -9.65 33.75 -11.45 33.65 -12.7 32.45 L-14.35 30.6 -17.8 26.85 -17.9 27.0 -20.25 29.1 -14.95 35.15 -20.65 30.15 -21.15 29.8 Q-21.45 29.65 -21.4 28.55 L-19.05 25.9 -18.75 25.45 Q-18.65 25.2 -17.05 25.1 L-12.7 29.0 Q-10.55 31.2 -9.8 31.05 -9.2 30.95 -6.85 28.4 L-3.05 24.45 -2.3 23.25 Q-2.3 23.05 -3.65 21.65 L-8.65 16.65 -8.65 14.4 3.95 1.85 4.65 1.1 5.75 0.15 Q7.25 -0.05 7.55 0.15 L7.8 0.35 9.25 1.25 13.0 3.3 Q17.6 5.45 21.2 5.65 25.3 6.1 29.35 3.7 33.2 1.4 35.25 -2.4 37.15 -5.95 35.45 -10.15 L34.55 -12.05 34.05 -13.0 33.65 -13.7 Q33.3 -14.6 34.05 -15.85 35.7 -17.9 36.1 -19.0 37.65 -22.25 37.3 -26.15 36.95 -29.55 35.3 -32.25 32.4 -36.45 27.95 -37.85 L24.35 -38.5 23.4 -38.5 20.8 -38.25 Q18.1 -37.5 16.95 -36.85 L15.95 -36.2 14.95 -35.4 Q12.8 -34.4 11.85 -34.95 L10.45 -35.7 Q7.3 -37.1 4.15 -36.8 0.5 -36.5 -2.15 -33.85 -5.15 -31.15 -6.2 -27.15 -7.2 -23.1 -5.9 -18.75 -4.9 -14.9 -2.3 -10.4 L-1.7 -9.4 Q-1.8 -9.1 -1.3 -8.8 -0.95 -8.2 -1.6 -6.45 L-19.3 11.25 -36.7 28.7 Q-38.0 30.45 -37.0 32.85 -36.0 35.1 -34.0 35.9 L-30.3 36.05 Q-29.0 35.45 -26.95 33.3 L-26.7 33.1 -25.1 33.1 -24.9 33.3 -24.55 33.75 -19.1 39.75 -18.3 40.35 -17.7 40.5 -15.9 39.0 -14.95 38.2 -14.15 37.35 Q-13.85 36.55 -14.95 35.15 L-14.1 36.15 Q-13.7 36.75 -13.8 37.45 L-14.55 38.55 -15.4 39.5 -17.05 41.35 -18.75 41.45 -19.95 40.75 -23.5 37.65 -25.8 35.55 Q-27.4 37.6 -29.7 38.6 -32.6 39.9 -35.15 38.6 -38.3 37.4 -39.8 34.1 -41.45 30.35 -39.2 26.85 L-32.05 19.55 -21.5 9.0 -4.55 -8.0 -5.05 -8.85 Q-7.9 -13.9 -8.95 -17.95 -10.55 -22.75 -9.2 -27.9 -7.9 -33.1 -4.3 -36.1 -1.15 -39.45 3.8 -39.9 8.1 -40.3 11.6 -38.6 11.9 -38.35 13.15 -37.95 L14.3 -38.85 15.45 -39.55 Q17.45 -40.7 20.2 -41.3 L23.4 -41.65" fill="#3c4536" fill-rule="evenodd" stroke="none"/>
    <path d="M-33.7 30.2 L-34.95 28.7 -0.2 -6.55 2.05 -6.55 -33.7 30.2 M-22.85 29.15 Q-22.0 28.5 -20.7 27.8 L-21.4 28.55 Q-21.45 29.65 -21.15 29.8 L-20.65 30.15 -15.75 34.45 -17.05 35.45 -20.1 32.35 -22.85 29.15 M-4.0 21.3 L-5.9 22.85 Q-8.75 18.3 -10.55 16.7 L-8.65 15.85 -8.65 16.65 -4.0 21.3 M18.0 -1.7 L16.95 -4.1 22.1 1.55 Q27.3 1.4 29.8 -1.35 33.1 -5.0 29.45 -12.1 31.4 -11.15 32.45 -8.6 33.5 -6.05 32.95 -3.45 31.5 3.25 21.95 2.55 19.55 1.0 18.0 -1.7 M12.3 -29.45 L12.3 -20.45 5.45 -15.8 -2.4 -20.8 4.8 -18.45 10.6 -21.6 12.3 -29.45 M30.6 -19.45 Q32.55 -23.35 31.7 -26.85 31.05 -29.55 28.45 -32.8 33.55 -29.85 33.7 -25.4 33.85 -21.95 31.1 -18.3 L18.95 -15.1 14.8 -20.6 20.45 -17.45 30.6 -19.45 M24.35 -38.5 L26.7 -38.15 Q29.8 -37.5 32.3 -35.5 28.05 -37.8 22.65 -37.25 17.15 -36.65 13.3 -33.3 L13.3 -33.0 Q9.3 -35.7 5.2 -35.5 0.6 -35.25 -2.7 -31.3 -4.95 -27.95 -5.45 -23.95 -5.8 -20.95 -5.25 -16.65 L-5.9 -18.75 Q-7.2 -23.1 -6.2 -27.15 -5.15 -31.15 -2.15 -33.85 0.5 -36.5 4.15 -36.8 7.3 -37.1 10.45 -35.7 L11.85 -34.95 Q12.8 -34.4 14.95 -35.4 L15.95 -36.2 16.95 -36.85 Q18.1 -37.5 20.8 -38.25 L23.4 -38.5 24.35 -38.5" fill="#cad6c1" fill-rule="evenodd" stroke="none"/>
  </g>
</svg>
