<?xml version="1.0" encoding="UTF-8" standalone="no"?>
<svg xmlns:ffdec="https://www.free-decompiler.com/flash" xmlns:xlink="http://www.w3.org/1999/xlink" ffdec:objectType="shape" height="68.75px" width="84.6px" xmlns="http://www.w3.org/2000/svg">
  <g transform="matrix(1.0, 0.0, 0.0, 1.0, 42.3, 34.4)">
    <path d="M40.35 -11.95 Q41.85 -8.0 42.25 -4.75 42.75 3.45 37.25 11.45 34.15 17.7 22.8 24.8 9.3 33.3 -4.45 34.15 -11.8 34.85 -18.75 33.2 -25.6 31.6 -30.0 28.2 -33.7 25.55 -35.9 21.85 L-37.4 19.0 -38.8 16.3 Q-40.65 12.65 -41.9 8.3 -43.15 2.8 -40.45 -4.05 -37.85 -10.8 -32.5 -16.15 -23.15 -26.05 -7.85 -31.1 4.05 -35.05 11.45 -34.3 21.5 -33.95 27.9 -30.4 34.65 -26.6 37.5 -19.05 33.5 -25.65 26.95 -28.5 21.3 -30.9 11.4 -31.35 4.5 -32.1 -6.95 -28.3 -21.6 -23.45 -30.35 -14.1 -35.3 -9.15 -37.75 -3.0 -40.15 3.1 -39.0 7.75 -37.95 11.3 -36.15 14.95 L-34.75 17.7 -33.4 20.3 Q-31.5 23.5 -28.25 25.85 -24.35 28.85 -18.05 30.35 -11.6 31.85 -4.7 31.2 8.35 30.35 21.25 22.3 32.05 15.55 34.85 9.8 39.7 2.8 40.1 -4.7 40.05 -7.45 39.15 -11.55 L37.5 -19.05 40.35 -11.95" fill="#292974" fill-rule="evenodd" stroke="none"/>
    <path d="M-20.95 -3.4 L-20.4 -2.6 Q-20.65 -0.85 -20.1 -0.3 -15.5 2.75 -10.1 -0.15 -4.6 -3.15 -6.1 -8.3 -6.95 -11.55 -11.4 -10.2 -13.6 -10.45 -16.0 -9.5 -18.65 -8.5 -20.1 -6.7 -21.55 -4.9 -20.95 -3.4 M25.2 -20.15 Q20.05 -26.55 9.6 -26.65 0.3 -26.75 -10.25 -22.05 -20.45 -17.5 -26.65 -10.8 -33.3 -3.65 -32.0 2.55 -31.75 -2.9 -24.6 -8.85 -18.05 -14.35 -8.05 -18.35 2.0 -22.4 10.85 -23.1 20.55 -23.85 25.2 -20.15 M20.15 -3.3 Q12.8 2.1 2.4 6.0 -8.0 9.9 -16.75 10.6 -26.2 11.3 -29.95 7.8 -26.9 12.85 -17.0 13.25 -7.8 13.6 3.1 9.95 14.35 6.15 21.5 -0.1 29.55 -7.05 29.3 -14.75 28.1 -9.2 20.15 -3.3 M17.9 -13.3 Q14.2 -14.7 10.1 -12.75 L7.2 -12.0 Q4.25 -10.85 2.65 -8.85 1.0 -6.85 1.65 -5.15 2.1 -4.05 3.4 -3.45 4.7 -0.6 9.1 -1.1 12.3 -1.45 15.9 -3.3 23.6 -11.0 17.9 -13.3 M26.45 -28.7 Q32.8 -26.1 36.8 -20.05 40.1 -10.65 31.55 0.15 22.95 11.0 7.35 17.05 -6.25 22.3 -18.7 21.25 -31.05 20.2 -36.85 13.5 L-39.0 7.75 Q-40.15 3.1 -37.75 -3.0 -35.3 -9.15 -30.35 -14.1 -21.6 -23.45 -6.95 -28.3 4.5 -32.1 11.4 -31.35 20.95 -30.9 26.45 -28.7" fill="#7171e8" fill-rule="evenodd" stroke="none"/>
    <path d="M-6.1 -8.3 Q-4.6 -3.15 -10.1 -0.15 -15.5 2.75 -20.1 -0.3 -20.65 -0.85 -20.4 -2.6 -19.4 -1.6 -17.4 -1.5 -15.35 -1.35 -13.2 -2.25 -10.6 -3.25 -9.15 -5.05 -7.7 -6.85 -8.3 -8.35 -8.9 -9.95 -11.4 -10.2 -6.95 -11.55 -6.1 -8.3 M21.5 -0.1 Q14.35 6.15 3.1 9.95 -7.8 13.6 -17.0 13.25 -26.9 12.85 -29.95 7.8 -26.2 11.3 -16.75 10.6 -8.0 9.9 2.4 6.0 12.8 2.1 20.15 -3.3 28.1 -9.2 29.3 -14.75 29.55 -7.05 21.5 -0.1 M13.8 -12.45 L10.1 -12.75 Q14.2 -14.7 17.9 -13.3 23.6 -11.0 15.9 -3.3 12.3 -1.45 9.1 -1.1 4.7 -0.6 3.4 -3.45 6.2 -2.2 10.35 -3.8 13.3 -4.95 14.95 -6.95 16.55 -8.95 15.9 -10.65 15.4 -11.9 13.8 -12.45" fill="#bbbbff" fill-rule="evenodd" stroke="none"/>
    <path d="M25.2 -20.15 Q20.55 -23.85 10.85 -23.1 2.0 -22.4 -8.05 -18.35 -18.05 -14.35 -24.6 -8.85 -31.75 -2.9 -32.0 2.55 -33.3 -3.65 -26.65 -10.8 -20.45 -17.5 -10.25 -22.05 0.3 -26.75 9.6 -26.65 20.05 -26.55 25.2 -20.15 M39.15 -11.55 Q40.05 -7.45 40.1 -4.7 39.7 2.8 34.85 9.8 32.05 15.55 21.25 22.3 8.35 30.35 -4.7 31.2 -11.6 31.85 -18.05 30.35 -24.35 28.85 -28.25 25.85 -31.5 23.5 -33.4 20.3 L-34.75 17.7 -35.3 16.6 -36.85 13.5 Q-31.05 20.2 -18.7 21.25 -6.25 22.3 7.35 17.05 22.95 11.0 31.55 0.15 40.1 -10.65 36.8 -20.05 L37.5 -19.05 39.15 -11.55" fill="#4444ad" fill-rule="evenodd" stroke="none"/>
    <path d="M-16.0 -9.5 Q-13.4 -10.55 -11.1 -10.2 -8.85 -9.85 -8.3 -8.35 -7.7 -6.85 -9.15 -5.05 -10.6 -3.25 -13.2 -2.25 -15.8 -1.2 -18.1 -1.55 -20.35 -1.9 -20.95 -3.4 -21.55 -4.9 -20.1 -6.7 -18.65 -8.5 -16.0 -9.5 M7.2 -12.0 Q10.15 -13.1 12.7 -12.75 15.25 -12.35 15.9 -10.65 16.55 -8.95 14.95 -6.95 13.3 -4.95 10.35 -3.8 7.4 -2.65 4.9 -3.05 2.35 -3.45 1.65 -5.15 1.0 -6.85 2.65 -8.85 4.25 -10.85 7.2 -12.0" fill="#292974" fill-rule="evenodd" stroke="none"/>
  </g>
</svg>
