<?xml version="1.0" encoding="UTF-8" standalone="no"?>
<svg xmlns:ffdec="https://www.free-decompiler.com/flash" xmlns:xlink="http://www.w3.org/1999/xlink" ffdec:objectType="shape" height="80.0px" width="69.8px" xmlns="http://www.w3.org/2000/svg">
  <g transform="matrix(1.0, 0.0, 0.0, 1.0, 34.9, 40.0)">
    <path d="M11.95 -34.4 Q17.85 -32.65 22.2 -29.45 30.15 -23.65 31.6 -14.65 31.15 -11.7 29.95 -8.9 25.65 1.25 18.15 7.95 9.95 15.3 -0.2 16.55 -9.2 17.7 -17.6 13.4 -26.05 9.05 -29.9 1.1 L-31.95 -11.7 Q-30.85 -23.6 -20.95 -30.25 -12.3 -36.15 -0.15 -36.15 6.15 -36.15 11.95 -34.4" fill="#6b7a64" fill-rule="evenodd" stroke="none"/>
    <path d="M34.9 -10.45 L33.35 -2.45 Q32.15 2.8 31.75 5.65 L31.05 13.2 Q30.7 17.5 30.0 19.5 26.1 30.15 15.55 35.75 6.05 40.8 -4.55 39.85 -15.15 38.85 -22.55 31.85 -30.05 24.7 -31.45 14.05 L-31.75 10.45 -32.15 5.65 Q-33.15 -1.5 -34.9 -11.6 -33.75 -25.95 -21.05 -34.0 -9.65 -41.25 3.8 -39.75 14.85 -38.55 24.15 -30.95 34.85 -22.2 34.9 -10.45 M22.2 -29.45 Q17.85 -32.65 11.95 -34.4 6.15 -36.15 -0.15 -36.15 -12.3 -36.15 -20.95 -30.25 -30.85 -23.6 -31.95 -11.7 L-29.3 5.3 Q-28.9 8.25 -28.8 10.7 L-28.6 13.65 Q-27.4 22.65 -20.0 28.85 -13.35 34.4 -4.15 35.85 L-4.1 35.85 Q0.3 35.6 4.7 33.3 8.8 31.2 12.15 27.85 14.9 24.85 15.55 20.4 16.05 17.0 15.4 11.85 L13.1 11.75 Q18.6 8.3 23.0 2.8 27.2 -2.45 29.95 -8.9 31.15 -11.7 31.6 -14.65 L31.75 -13.75 Q30.55 -23.4 22.2 -29.45" fill="#242d20" fill-rule="evenodd" stroke="none"/>
    <path d="M-29.3 5.3 L-29.9 1.1 Q-26.05 9.05 -17.6 13.4 -9.2 17.7 -0.2 16.55 6.8 15.7 13.1 11.75 L15.4 11.85 Q16.05 17.0 15.55 20.4 14.9 24.85 12.15 27.85 8.8 31.2 4.7 33.3 0.25 35.6 -4.15 35.85 -13.35 34.4 -20.0 28.85 -27.4 22.65 -28.6 13.65 L-28.8 10.7 Q-28.9 8.25 -29.3 5.3" fill="#4c5947" fill-rule="evenodd" stroke="none"/>
    <path d="M25.1 -25.65 Q33.75 -14.8 28.65 -2.6 24.5 7.35 13.2 11.95 2.95 16.1 -5.75 13.4 -13.65 11.0 -18.1 8.25 -26.7 2.85 -29.9 -6.2 -33.05 -15.35 -27.75 -23.45 -24.35 -28.6 -18.5 -32.3 -8.6 -38.4 5.05 -36.9 17.2 -35.65 25.1 -25.65" fill="#ddd9d3" fill-rule="evenodd" stroke="none"/>
    <path d="M-0.2 1.45 Q-0.95 1.05 -1.05 -0.3 L2.15 0.85 Q0.8 2.0 -0.2 1.45 M-9.2 2.25 L-7.75 2.1 -7.25 2.45 Q-6.05 2.2 -4.4 2.85 L-4.25 2.9 Q-3.4 2.9 -3.05 3.4 L-2.95 3.65 Q-1.15 5.1 -1.7 6.25 L-2.3 6.9 -1.8 7.45 -0.45 7.75 Q0.75 8.15 1.45 8.9 2.25 9.7 2.0 10.35 1.75 11.05 0.7 11.25 L-1.55 11.1 -2.7 10.55 -5.5 10.6 Q-6.75 10.15 -7.35 9.15 -7.95 8.15 -7.6 7.1 L-7.0 6.3 -7.55 5.9 Q-8.7 7.4 -9.85 6.85 -10.5 6.55 -10.65 5.65 -10.85 4.75 -10.4 3.75 -10.0 2.75 -9.2 2.25 M-9.75 -2.6 Q-9.15 -3.1 -8.3 -2.9 -7.5 -2.75 -6.85 -2.05 -6.1 -1.25 -6.2 -0.3 L-5.45 -1.0 Q-4.8 -1.4 -4.1 -1.5 L-2.6 -0.85 -2.55 -0.85 Q-2.15 -0.25 -2.35 0.6 -2.6 1.4 -3.35 1.9 L-4.9 2.35 Q-5.75 2.3 -6.25 1.7 L-6.5 0.7 -6.7 0.9 Q-7.25 1.4 -8.1 1.25 L-9.55 0.35 Q-10.2 -0.4 -10.25 -1.25 -10.3 -2.1 -9.75 -2.6 M-8.95 -13.95 L-8.6 -13.45 -11.2 -11.1 -11.7 -11.55 Q-12.3 -12.25 -12.35 -13.1 -12.4 -13.95 -11.85 -14.45 -11.3 -14.95 -10.45 -14.8 L-8.95 -13.95 M-20.85 -4.6 L-20.05 -5.2 -21.7 -6.8 Q-21.1 -5.35 -21.65 -4.2 L-20.85 -4.6 M-22.2 -10.25 Q-21.6 -11.85 -19.7 -12.4 L-15.85 -12.2 Q-13.7 -11.3 -12.75 -9.5 -14.25 -7.9 -14.15 -7.25 L-14.05 -7.1 -14.15 -7.2 -14.05 -7.05 -14.05 -7.1 Q-13.15 -6.0 -10.3 -4.45 L-10.35 -4.1 Q-10.6 -3.35 -11.5 -3.1 L-13.45 -3.25 Q-14.05 -3.4 -14.5 -3.7 -13.95 -3.15 -13.95 -2.5 L-13.95 -2.3 -13.75 -2.55 -12.55 -2.7 Q-11.9 -2.5 -11.35 -1.8 -10.8 -1.15 -10.7 -0.4 -10.65 0.4 -11.1 0.75 L-12.2 0.85 -13.45 -0.1 Q-14.25 -1.0 -14.1 -1.9 -14.4 -1.25 -15.2 -0.85 L-14.4 -0.25 Q-14.0 0.35 -14.2 1.05 -14.35 1.8 -14.95 2.3 L-14.8 2.4 Q-13.0 3.55 -12.2 5.1 -11.4 6.65 -12.05 7.7 -12.7 8.7 -14.45 8.6 -16.2 8.5 -18.05 7.3 -19.8 6.15 -20.6 4.65 -21.45 3.05 -20.75 2.05 -20.1 1.0 -18.35 1.1 L-17.7 -0.2 -18.35 -0.15 -19.05 -0.2 -20.55 0.75 -21.9 0.6 Q-22.95 -0.1 -22.45 -1.9 L-22.65 -2.65 -22.55 -3.15 Q-23.45 -2.55 -24.7 -2.65 -26.1 -2.75 -27.25 -3.5 -28.7 -4.55 -29.3 -6.0 -29.85 -7.5 -29.05 -8.65 -28.3 -9.8 -26.75 -9.9 -25.1 -10.05 -23.65 -9.05 -22.65 -8.45 -22.1 -7.5 -22.65 -9.05 -22.2 -10.25 M-27.95 -15.5 Q-27.95 -16.7 -26.45 -17.55 -24.9 -18.4 -22.8 -18.4 -20.6 -18.4 -19.1 -17.55 -17.6 -16.7 -17.6 -15.5 -17.6 -14.35 -18.9 -13.5 -20.25 -12.65 -22.2 -12.55 -23.3 -11.85 -24.1 -12.3 L-24.4 -12.65 Q-26.0 -12.95 -26.95 -13.7 -27.95 -14.5 -27.95 -15.5 M-4.3 -28.25 Q-4.3 -27.55 -4.6 -26.8 L-2.7 -27.25 Q-3.75 -27.5 -4.3 -28.25 M4.8 -22.45 L5.85 -22.65 2.3 -21.0 2.25 -21.25 Q1.45 -21.1 0.95 -21.45 0.25 -21.9 0.3 -23.15 0.35 -24.35 1.15 -25.6 2.0 -26.85 3.1 -27.35 L4.9 -27.45 Q5.6 -26.95 5.55 -25.7 5.5 -24.5 4.7 -23.25 L4.1 -22.45 4.65 -22.35 4.8 -22.45 M-13.3 -23.15 L-9.55 -22.8 Q-7.95 -22.2 -7.75 -21.0 -7.6 -20.15 -8.3 -19.3 -7.45 -19.25 -6.3 -18.6 -4.85 -17.9 -4.25 -16.9 L-7.4 -14.45 -8.25 -14.85 Q-9.3 -15.4 -10.0 -16.2 -10.65 -16.95 -10.75 -17.7 L-12.4 -17.25 -16.05 -17.5 Q-17.7 -18.1 -17.95 -19.25 -18.45 -18.45 -19.6 -18.4 -20.75 -18.4 -21.9 -19.15 -23.0 -19.85 -23.45 -20.95 -23.9 -22.0 -23.4 -22.75 -23.0 -23.45 -22.15 -23.6 L-20.4 -23.4 -20.15 -24.05 Q-21.0 -25.2 -20.55 -26.3 -20.15 -27.3 -19.05 -27.65 L-16.65 -27.5 Q-15.45 -27.0 -14.85 -25.95 -14.25 -24.95 -14.6 -24.0 -15.05 -22.8 -16.6 -22.55 L-17.2 -21.95 Q-17.65 -21.7 -18.1 -21.6 L-17.75 -20.65 Q-16.65 -22.55 -13.3 -23.15 M-12.6 -30.8 L-10.0 -31.2 Q-8.7 -31.05 -8.35 -30.2 -8.0 -29.4 -8.75 -28.45 -9.45 -27.5 -10.85 -26.95 -12.25 -26.35 -13.45 -26.5 -14.75 -26.7 -15.1 -27.5 -15.45 -28.3 -14.75 -29.25 -14.05 -30.2 -12.6 -30.8 M15.4 4.6 Q14.7 3.6 14.95 2.85 16.05 2.5 16.95 1.8 18.05 1.8 19.35 2.45 20.7 3.15 21.45 4.25 22.1 5.3 21.7 6.05 21.25 6.85 20.0 6.9 18.75 6.95 17.35 6.25 16.1 5.6 15.4 4.6 M6.85 2.85 L7.15 2.4 Q10.8 3.35 13.1 3.15 14.25 4.2 14.0 5.15 L15.35 5.2 Q16.05 5.55 16.55 6.4 17.05 7.2 16.95 8.1 16.85 8.9 16.3 9.25 15.7 9.6 14.95 9.25 14.2 8.9 13.75 8.05 L13.35 7.0 13.0 7.5 13.15 7.65 Q13.8 8.35 13.85 9.2 13.9 10.05 13.3 10.55 12.75 11.05 11.9 10.9 11.1 10.75 10.45 10.05 9.95 9.5 9.8 8.85 L9.05 8.85 Q7.25 8.8 6.0 8.1 4.7 7.3 4.75 6.3 4.75 4.9 7.05 4.2 6.65 3.5 6.85 2.85 M21.05 -3.0 L19.95 -3.2 20.5 -1.55 Q20.6 -2.35 21.05 -3.0 M21.95 -15.3 L24.2 -15.05 Q25.45 -14.6 26.05 -13.6 26.65 -12.6 26.3 -11.6 26.0 -10.85 25.25 -10.45 24.45 -10.05 23.55 -10.15 L23.6 -8.75 Q25.25 -8.45 26.25 -7.7 27.3 -6.85 27.3 -5.9 27.3 -4.95 26.4 -4.2 25.5 -3.45 23.95 -3.1 L25.15 -1.85 Q25.85 -0.75 25.7 0.45 25.55 1.6 24.65 2.05 L22.75 2.1 Q21.7 1.65 21.0 0.55 20.65 -0.25 20.55 -1.0 20.5 0.1 19.7 0.8 18.85 1.6 17.4 1.35 19.8 -0.9 20.2 -5.4 20.5 -9.5 19.15 -14.05 L19.15 -14.1 20.4 -14.15 Q20.85 -15.0 21.95 -15.3 M23.9 -26.15 Q25.05 -25.6 25.3 -24.6 25.45 -23.6 24.45 -22.7 23.5 -21.8 21.95 -21.55 L19.2 -21.8 Q18.0 -22.3 17.8 -23.35 17.65 -24.35 18.6 -25.25 19.55 -26.15 21.1 -26.4 L23.9 -26.15 M9.25 -33.45 Q10.9 -32.75 11.0 -31.55 11.1 -30.3 9.65 -29.3 8.2 -28.3 6.1 -28.1 2.9 -27.85 1.25 -29.3 0.85 -28.0 -0.6 -27.5 L-2.15 -27.2 Q-0.95 -26.95 -0.4 -26.15 0.3 -25.15 -0.1 -23.9 -0.45 -22.55 -1.65 -21.75 -2.9 -20.95 -4.25 -21.0 -5.65 -21.1 -6.4 -22.05 -7.2 -23.2 -6.7 -24.55 L-8.25 -24.5 Q-8.85 -24.9 -8.8 -25.9 -8.7 -27.0 -8.0 -28.0 L-6.35 -29.45 Q-5.4 -29.85 -4.8 -29.45 L-4.55 -29.2 Q-4.55 -30.6 -3.1 -31.5 -4.45 -31.5 -5.4 -32.0 -6.4 -32.45 -6.55 -33.25 -6.7 -34.25 -5.55 -35.25 -4.4 -36.15 -2.65 -36.45 L0.5 -36.25 Q1.85 -35.75 2.1 -34.75 2.2 -33.9 1.5 -33.15 L-0.45 -31.95 Q0.25 -31.9 0.75 -31.4 1.15 -32.4 2.45 -33.1 3.75 -33.8 5.5 -34.0 7.7 -34.2 9.25 -33.45 M11.65 -28.45 L14.05 -28.3 Q15.3 -27.85 15.9 -26.85 16.5 -25.8 16.1 -24.8 15.7 -23.85 14.6 -23.5 L12.2 -23.65 Q11.0 -24.15 10.4 -25.15 9.8 -26.15 10.15 -27.15 10.55 -28.1 11.65 -28.45 M16.95 -30.65 Q18.0 -30.85 19.1 -30.3 20.2 -29.8 20.75 -28.95 21.3 -28.1 21.0 -27.4 20.65 -26.7 19.7 -26.45 18.7 -26.3 17.6 -26.85 16.45 -27.35 15.85 -28.2 15.3 -29.05 15.65 -29.75 15.95 -30.45 16.95 -30.65" fill="#fcf9f2" fill-rule="evenodd" stroke="none"/>
    <path d="M9.2 -5.6 L9.35 -5.65 Q9.1 -4.95 9.1 -2.75 9.15 -0.95 8.5 -0.15 L-14.4 -7.4 -14.25 -12.3 -2.4 -7.6 Q4.4 -5.2 9.2 -5.6" fill="#acaf84" fill-rule="evenodd" stroke="none"/>
    <path d="M6.65 -20.2 Q11.6 -15.55 10.25 -8.65 9.9 -6.8 9.35 -5.65 L9.2 -5.6 Q4.4 -5.2 -2.4 -7.6 L-14.25 -12.3 -4.95 -25.15 Q2.3 -24.25 6.65 -20.2" fill="#cce29c" fill-rule="evenodd" stroke="none"/>
    <path d="M15.8 -11.3 Q11.95 -6.25 9.35 -5.65 9.9 -6.8 10.25 -8.65 11.6 -15.55 6.65 -20.2 2.3 -24.25 -4.95 -25.15 L-3.85 -26.7 -1.1 -26.45 Q2.25 -26.05 5.05 -25.1 14.3 -22.15 15.5 -15.15 L15.8 -11.3" fill="#88be61" fill-rule="evenodd" stroke="none"/>
    <path d="M9.35 -5.65 Q11.95 -6.25 15.8 -11.3 15.75 -6.15 13.0 -2.45 11.6 -0.6 10.25 0.25 L8.5 -0.15 Q9.15 -0.95 9.1 -2.75 9.1 -4.95 9.35 -5.65" fill="#6c9b46" fill-rule="evenodd" stroke="none"/>
    <path d="M1.75 -13.55 Q4.45 -15.2 5.45 -14.4 6.45 -13.65 5.9 -11.85 5.35 -9.95 3.9 -9.45 2.85 -9.1 0.55 -9.95 -1.0 -10.55 -2.35 -11.3 -1.5 -11.4 1.75 -13.55 M-6.45 -19.3 Q-5.15 -19.2 -4.55 -17.4 -3.9 -15.65 -4.8 -14.35 -5.85 -12.85 -10.9 -12.2 -10.35 -12.75 -8.85 -16.4 -7.75 -19.4 -6.45 -19.3" fill="#eef4c6" fill-rule="evenodd" stroke="none"/>
  </g>
</svg>
