<?xml version="1.0" encoding="UTF-8" standalone="no"?>
<svg xmlns:ffdec="https://www.free-decompiler.com/flash" xmlns:xlink="http://www.w3.org/1999/xlink" ffdec:objectType="shape" height="76.0px" width="80.0px" xmlns="http://www.w3.org/2000/svg">
  <g transform="matrix(1.0, 0.0, 0.0, 1.0, 40.0, 38.0)">
    <path d="M13.75 -32.65 Q20.45 -30.95 25.45 -27.9 34.55 -22.5 36.25 -13.9 35.75 -11.15 34.35 -8.4 29.35 1.25 20.8 7.55 11.45 14.55 -0.25 15.75 -10.5 16.8 -20.15 12.75 -29.8 8.6 -34.25 1.05 L-36.6 -11.1 Q-35.35 -22.35 -24.1 -28.7 -14.1 -34.3 -0.2 -34.3 7.0 -34.3 13.75 -32.65" fill="#ffed7f" fill-rule="evenodd" stroke="none"/>
    <path d="M40.0 -9.95 L38.25 -2.3 Q36.85 2.8 36.4 5.4 L35.6 12.6 Q35.2 16.65 34.4 18.55 29.85 28.7 17.85 34.0 6.9 38.8 -5.25 37.85 -17.35 36.9 -25.8 30.25 -34.5 23.5 -36.05 13.4 L-36.35 10.0 -36.85 5.4 Q-37.95 -1.35 -40.0 -10.95 -38.65 -24.6 -24.15 -32.3 -11.05 -39.15 4.35 -37.75 17.0 -36.6 27.75 -29.35 40.0 -21.05 40.0 -9.95 M36.25 -13.9 Q34.55 -22.4 25.45 -27.9 20.45 -30.95 13.75 -32.65 7.0 -34.3 -0.2 -34.3 -14.1 -34.3 -24.1 -28.7 -35.35 -22.35 -36.6 -11.1 L-33.55 5.05 Q-33.3 6.7 -33.0 10.25 L-32.75 13.0 Q-31.4 21.6 -22.95 27.45 -15.35 32.75 -4.75 34.1 0.35 33.85 5.45 31.65 10.1 29.7 13.9 26.5 17.05 23.65 17.85 19.4 18.4 16.15 17.65 11.3 L15.0 11.2 Q21.3 7.9 26.35 2.7 31.15 -2.3 34.35 -8.4 35.75 -11.15 36.25 -13.9" fill="#c6b63c" fill-rule="evenodd" stroke="none"/>
    <path d="M15.0 11.2 L17.65 11.3 Q18.4 16.15 17.85 19.4 17.05 23.65 13.9 26.5 10.1 29.7 5.45 31.65 0.35 33.85 -4.75 34.1 -15.35 32.75 -22.95 27.45 -31.4 21.6 -32.75 13.0 L-33.0 10.25 Q-33.3 6.7 -33.55 5.05 L-34.25 1.05 Q-29.8 8.6 -20.15 12.75 -10.5 16.8 -0.25 15.75 7.85 14.95 15.0 11.2" fill="#f2d62c" fill-rule="evenodd" stroke="none"/>
    <path d="M5.8 -35.0 Q19.75 -33.8 28.8 -24.3 38.65 -14.05 32.85 -2.5 28.1 7.05 15.15 11.4 3.35 15.35 -6.6 12.75 -15.6 10.5 -20.7 7.85 -30.6 2.75 -34.2 -5.9 -37.85 -14.55 -31.8 -22.2 -27.9 -27.15 -21.15 -30.6 -10.0 -36.45 5.8 -35.0" fill="#ddd9d3" fill-rule="evenodd" stroke="none"/>
    <path d="M-0.25 1.35 Q-1.2 0.95 -1.2 -0.25 L2.4 0.85 Q0.95 1.9 -0.25 1.35 M-6.25 -0.9 L-4.75 -1.35 -2.95 -0.75 -2.9 -0.75 Q-2.4 -0.15 -2.65 0.6 -2.9 1.3 -3.75 1.8 -4.65 2.35 -5.65 2.3 -6.6 2.25 -7.1 1.65 -7.5 1.2 -7.4 0.7 L-7.6 0.85 -9.25 1.2 Q-10.2 1.05 -10.95 0.35 -11.7 -0.3 -11.75 -1.1 -11.8 -1.95 -11.1 -2.45 -10.45 -2.9 -9.5 -2.75 -8.55 -2.6 -7.85 -1.95 -6.95 -1.15 -7.05 -0.25 L-6.25 -0.9 M-23.9 -4.3 L-23.0 -4.9 Q-24.1 -5.5 -24.85 -6.45 -24.15 -5.05 -24.8 -3.95 L-23.9 -4.3 M-27.1 -8.55 Q-25.9 -7.95 -25.3 -7.1 -25.95 -8.5 -25.4 -9.7 -24.75 -11.2 -22.6 -11.75 L-18.15 -11.55 Q-15.7 -10.7 -14.6 -8.95 -16.25 -7.4 -16.2 -6.85 L-16.05 -6.65 -16.15 -6.85 Q-15.2 -5.7 -11.8 -4.15 L-11.85 -3.85 Q-12.1 -3.2 -13.15 -2.95 L-15.45 -3.05 Q-16.1 -3.2 -16.6 -3.5 -15.95 -2.95 -15.95 -2.35 L-16.0 -2.15 -15.75 -2.45 -14.4 -2.55 -13.0 -1.65 Q-12.35 -1.0 -12.3 -0.3 -12.2 0.4 -12.7 0.7 L-14.0 0.85 -15.45 0.0 Q-16.3 -0.95 -16.15 -1.75 -16.55 -1.15 -17.4 -0.7 L-16.5 -0.2 Q-16.05 0.35 -16.2 1.0 -16.4 1.7 -17.1 2.25 L-16.95 2.3 Q-14.85 3.45 -13.95 4.9 -13.05 6.4 -13.8 7.35 -14.55 8.35 -16.55 8.25 -18.55 8.15 -20.65 7.0 -22.65 5.9 -23.65 4.4 -24.55 2.95 -23.8 2.0 -23.0 0.95 -21.0 1.1 L-20.25 -0.1 -21.0 -0.1 -21.8 -0.15 Q-22.6 0.55 -23.55 0.75 L-25.1 0.6 Q-26.2 0.0 -25.7 -1.75 L-25.95 -2.5 -25.8 -3.0 Q-26.85 -2.45 -28.35 -2.5 -29.8 -2.6 -31.2 -3.3 -32.9 -4.25 -33.5 -5.7 -34.15 -7.1 -33.3 -8.2 -32.45 -9.25 -30.65 -9.35 -28.8 -9.55 -27.1 -8.55 M-32.05 -14.65 Q-32.05 -15.8 -30.3 -16.65 -28.6 -17.5 -26.1 -17.5 -23.65 -17.5 -21.9 -16.65 -20.15 -15.8 -20.15 -14.65 -20.15 -13.6 -21.65 -12.75 -23.2 -11.95 -25.4 -11.85 -26.75 -11.2 -27.6 -11.65 L-27.95 -12.0 Q-29.75 -12.25 -30.9 -13.0 -32.05 -13.75 -32.05 -14.65 M-11.95 -14.05 Q-10.95 -13.9 -10.25 -13.2 L-9.85 -12.75 -12.85 -10.55 -13.35 -10.95 Q-14.1 -11.6 -14.15 -12.4 -14.2 -13.2 -13.55 -13.75 -12.9 -14.2 -11.95 -14.05 M-16.75 -22.75 Q-17.25 -21.65 -19.0 -21.4 L-19.75 -20.8 -20.75 -20.45 -20.3 -19.6 Q-19.0 -21.4 -15.3 -21.9 L-10.9 -21.65 Q-9.05 -21.1 -8.85 -19.9 -8.7 -19.1 -9.5 -18.3 L-7.2 -17.7 Q-5.7 -17.0 -4.85 -16.0 L-8.5 -13.75 -9.45 -14.1 Q-12.15 -15.2 -12.3 -16.75 L-14.2 -16.35 -18.35 -16.55 Q-20.2 -17.15 -20.55 -18.2 -21.15 -17.5 -22.45 -17.5 -23.8 -17.45 -25.05 -18.15 -26.35 -18.8 -26.9 -19.85 -27.4 -20.9 -26.8 -21.65 -25.75 -22.9 -23.4 -22.2 L-23.1 -22.8 Q-24.1 -23.85 -23.6 -24.95 -23.15 -25.9 -21.8 -26.2 L-19.15 -26.1 Q-17.7 -25.65 -17.0 -24.6 -16.3 -23.65 -16.75 -22.75 M-17.3 -26.1 Q-17.7 -26.8 -16.9 -27.7 -16.05 -28.7 -14.45 -29.2 L-11.4 -29.6 Q-10.0 -29.45 -9.6 -28.7 -9.2 -27.9 -10.0 -27.0 -10.8 -26.1 -12.45 -25.55 -14.0 -25.0 -15.5 -25.2 -16.9 -25.35 -17.3 -26.1 M-4.9 -26.8 Q-4.9 -26.15 -5.3 -25.45 L-3.05 -25.85 Q-4.4 -26.1 -4.9 -26.8 M23.55 -1.45 Q23.65 -2.3 24.2 -2.8 L22.95 -3.0 23.55 -1.45 M17.65 4.4 Q16.9 3.5 17.1 2.75 18.35 2.45 19.45 1.7 20.9 1.8 22.15 2.4 23.8 3.1 24.55 4.05 25.35 5.05 24.85 5.85 24.4 6.55 22.95 6.6 21.5 6.65 19.95 6.0 18.45 5.3 17.65 4.4 M11.2 8.4 L10.4 8.45 Q8.35 8.4 6.85 7.7 5.45 7.05 5.45 6.05 5.45 5.4 6.2 4.85 6.9 4.3 8.1 4.05 7.65 3.35 7.9 2.8 L8.2 2.35 15.0 3.05 Q16.35 4.0 16.05 4.9 L17.6 4.95 Q18.4 5.3 18.95 6.15 19.55 6.95 19.45 7.7 19.4 8.5 18.65 8.8 18.0 9.15 17.15 8.8 16.3 8.45 15.75 7.65 L15.35 6.7 14.9 7.2 15.05 7.3 Q15.8 8.0 15.9 8.8 15.95 9.65 15.3 10.1 L13.65 10.4 Q12.7 10.25 12.0 9.6 L11.2 8.4 M1.7 8.5 Q2.55 9.2 2.3 9.9 2.05 10.55 0.85 10.8 L-1.8 10.6 -3.05 10.1 Q-4.6 10.7 -6.3 10.15 -7.75 9.7 -8.4 8.7 -9.1 7.75 -8.7 6.8 L-8.0 6.05 -8.65 5.6 -9.9 6.55 -11.2 6.6 Q-12.05 6.3 -12.2 5.4 -12.4 4.55 -11.9 3.6 -11.4 2.65 -10.5 2.2 L-8.9 2.05 Q-8.65 2.1 -8.35 2.4 L-5.05 2.75 -4.9 2.8 Q-3.9 2.8 -3.5 3.3 L-3.35 3.55 Q-1.4 4.8 -1.95 6.0 L-2.6 6.6 -2.1 7.15 -0.55 7.4 Q0.9 7.8 1.7 8.5 M2.4 -33.0 Q2.55 -32.2 1.75 -31.5 0.95 -30.75 -0.5 -30.35 L0.9 -29.8 Q1.3 -30.7 2.8 -31.4 4.35 -32.1 6.35 -32.3 8.8 -32.5 10.6 -31.75 12.5 -31.05 12.6 -29.9 12.7 -28.75 11.05 -27.8 9.45 -26.85 6.95 -26.65 3.2 -26.4 1.5 -27.8 1.0 -26.65 -0.7 -26.05 L-2.4 -25.8 Q-1.1 -25.55 -0.5 -24.85 0.35 -23.85 -0.1 -22.65 -0.5 -21.45 -1.9 -20.6 -3.3 -19.8 -4.9 -19.9 -6.45 -20.0 -7.3 -20.95 -8.2 -21.95 -7.6 -23.25 -8.75 -22.85 -9.45 -23.25 -10.15 -23.65 -10.05 -24.55 -9.95 -25.6 -9.15 -26.55 -8.35 -27.5 -7.25 -27.9 L-5.55 -27.95 -5.2 -27.7 Q-5.3 -29.0 -3.5 -29.9 L-6.2 -30.35 Q-7.3 -30.8 -7.45 -31.55 -7.7 -32.55 -6.35 -33.4 -5.05 -34.3 -3.0 -34.55 L0.65 -34.4 Q2.2 -33.95 2.4 -33.0 M3.55 -25.95 L5.65 -26.0 Q6.5 -25.55 6.4 -24.35 6.35 -23.2 5.4 -22.05 L4.7 -21.3 5.35 -21.25 5.5 -21.3 6.7 -21.5 2.6 -19.9 2.6 -20.15 1.1 -20.3 Q0.25 -20.75 0.35 -21.95 0.4 -23.1 1.35 -24.25 2.3 -25.45 3.55 -25.95 M11.65 -25.75 Q12.05 -26.65 13.35 -26.95 L16.1 -26.85 Q17.5 -26.4 18.2 -25.45 18.85 -24.45 18.45 -23.55 18.05 -22.6 16.75 -22.3 L14.0 -22.4 Q12.6 -22.85 11.95 -23.8 11.2 -24.85 11.65 -25.75 M21.95 -13.35 L21.95 -13.4 23.45 -13.45 Q24.0 -14.2 25.2 -14.45 L27.75 -14.3 Q29.15 -13.85 29.85 -12.85 30.55 -11.9 30.1 -11.0 29.4 -9.5 27.0 -9.6 L27.1 -8.25 Q28.95 -8.0 30.1 -7.25 31.3 -6.5 31.3 -5.55 31.3 -4.65 30.2 -3.95 29.2 -3.25 27.5 -2.95 28.35 -2.5 28.85 -1.7 29.6 -0.6 29.4 0.45 29.25 1.5 28.25 2.05 L26.05 2.1 Q24.85 1.6 24.1 0.55 23.7 -0.1 23.55 -0.9 23.45 0.15 22.6 0.8 21.55 1.55 20.0 1.3 22.7 -0.8 23.15 -5.1 23.55 -8.95 21.95 -13.35 M27.4 -24.8 Q28.75 -24.3 28.95 -23.35 29.15 -22.4 28.05 -21.55 26.95 -20.65 25.15 -20.45 L21.95 -20.65 Q20.6 -21.2 20.4 -22.15 20.2 -23.1 21.3 -23.95 22.45 -24.8 24.2 -25.05 L27.4 -24.8 M21.9 -28.8 Q23.2 -28.25 23.8 -27.45 24.45 -26.65 24.1 -26.0 23.75 -25.3 22.55 -25.15 L20.15 -25.45 Q18.8 -25.95 18.2 -26.75 17.6 -27.5 17.95 -28.2 18.3 -28.9 19.5 -29.1 L21.9 -28.8" fill="#fcf9f2" fill-rule="evenodd" stroke="none"/>
    <path d="M7.5 -18.85 Q12.4 -18.25 14.4 -16.85 18.85 -13.85 17.65 -8.5 16.35 -2.6 8.1 0.8 -0.45 4.25 -7.25 2.05 -13.15 0.1 -22.8 -8.15 -31.25 -15.4 -20.8 -24.25 -11.3 -32.45 1.75 -33.85 8.15 -34.55 15.6 -32.3 23.7 -29.85 27.1 -25.4 23.15 -28.65 15.25 -30.55 6.85 -32.65 0.7 -31.4 -11.85 -29.0 -19.3 -22.5 -27.55 -15.25 -20.45 -9.1 -12.35 -2.2 -4.35 -0.45 1.95 0.85 7.0 -1.1 11.8 -3.05 13.65 -5.9 16.0 -9.35 13.6 -13.75 12.4 -15.95 8.1 -16.7 4.2 -17.45 -0.35 -16.6 -5.0 -15.85 -7.35 -14.05 -10.05 -11.95 -8.55 -9.35 -13.5 -17.0 -1.85 -18.75 2.6 -19.45 7.5 -18.85" fill="#4c5947" fill-rule="evenodd" stroke="none"/>
    <path d="M2.8 -6.95 L2.8 -7.2 Q4.55 -7.25 5.75 -8.6 7.0 -10.1 6.05 -11.6 5.1 -13.1 3.25 -12.6 2.05 -12.35 0.3 -11.1 L1.35 -9.05 Q1.95 -7.75 2.5 -7.25 L2.5 -7.2 2.8 -6.95 M4.4 -17.0 Q8.8 -16.45 10.35 -14.25 11.6 -12.3 10.45 -8.4 9.3 -4.6 7.25 -3.5 5.15 -2.4 1.45 -2.5 -1.65 -2.55 -4.45 -3.35 L-4.0 -3.35 Q-6.95 -3.5 -9.05 -5.2 -11.5 -7.25 -10.45 -10.1 L-10.3 -10.4 Q-10.4 -9.6 -9.7 -9.1 L-9.9 -8.95 Q-8.15 -7.0 -6.6 -6.95 L-8.05 -6.75 -2.45 -5.95 Q1.2 -5.55 -0.15 -7.9 -0.95 -9.35 -2.4 -8.95 -4.15 -8.2 -4.9 -8.15 L-6.15 -8.4 -7.4 -8.95 -5.6 -10.4 Q-5.0 -10.5 -4.1 -11.35 L-2.65 -12.45 0.05 -12.6 Q1.7 -12.5 2.25 -13.6 0.05 -14.8 -1.55 -14.25 L-0.35 -14.95 -3.6 -14.15 -3.75 -14.65 -6.4 -14.5 Q-4.05 -16.1 -1.85 -16.75 L-2.95 -15.95 Q-0.8 -16.55 0.45 -15.45 5.1 -15.9 4.4 -17.0" fill="#b14561" fill-rule="evenodd" stroke="none"/>
    <path d="M-8.55 -13.45 Q-7.7 -14.15 -6.4 -14.5 L-3.75 -14.65 -3.6 -14.15 -0.35 -14.95 -1.55 -14.25 Q0.05 -14.8 2.25 -13.6 1.7 -12.5 0.05 -12.6 L-2.65 -12.45 -4.1 -11.35 Q-5.0 -10.5 -5.6 -10.4 L-7.4 -8.95 -6.15 -8.4 -4.9 -8.15 Q-4.15 -8.2 -2.4 -8.95 -0.95 -9.35 -0.15 -7.9 1.2 -5.55 -2.45 -5.95 L-8.05 -6.75 -6.6 -6.95 Q-8.15 -7.0 -9.9 -8.95 L-9.7 -9.1 Q-10.4 -9.6 -10.3 -10.4 L-9.7 -12.1 -8.55 -13.45 M3.3 -17.9 L4.4 -17.0 Q5.1 -15.9 0.45 -15.45 -0.8 -16.55 -2.95 -15.95 L-1.85 -16.75 Q-0.6 -17.5 0.9 -17.85 L3.3 -17.9 M6.05 -11.6 Q7.0 -10.1 5.75 -8.6 4.55 -7.25 2.8 -7.2 L2.8 -6.95 2.5 -7.2 2.5 -7.25 Q1.95 -7.75 1.35 -9.05 L0.3 -11.1 Q2.05 -12.35 3.25 -12.6 5.1 -13.1 6.05 -11.6" fill="#d25a7f" fill-rule="evenodd" stroke="none"/>
  </g>
</svg>
