<?xml version="1.0" encoding="UTF-8" standalone="no"?>
<svg xmlns:ffdec="https://www.free-decompiler.com/flash" xmlns:xlink="http://www.w3.org/1999/xlink" ffdec:objectType="shape" height="69.5px" width="80.0px" xmlns="http://www.w3.org/2000/svg">
  <g transform="matrix(1.0, 0.0, 0.0, 1.0, 40.0, 34.75)">
    <path d="M-27.25 8.6 Q-26.95 10.0 -26.1 11.65 L-24.65 14.7 -23.4 18.7 Q-22.65 20.55 -21.0 20.2 -20.15 22.15 -16.9 23.75 -13.75 25.35 -12.35 24.7 -11.2 25.9 -9.75 26.5 L-7.1 27.4 Q-6.5 27.6 -4.45 28.7 -2.8 29.55 -1.8 29.65 L-0.5 29.5 0.75 29.45 2.45 30.35 4.15 31.3 6.95 31.95 Q8.5 31.95 9.35 30.85 L9.6 31.1 Q10.05 30.15 9.7 29.45 11.75 28.95 12.7 27.55 13.8 26.05 13.3 24.05 13.05 23.3 12.5 23.0 L11.0 22.95 Q11.15 20.55 9.15 18.6 7.85 17.35 4.9 15.8 4.45 16.6 3.4 17.0 L1.15 17.3 Q-0.55 17.15 -1.75 16.15 -3.05 15.2 -3.0 13.9 -3.0 13.2 -2.5 12.45 -6.25 11.1 -11.25 10.15 -8.75 11.2 -8.85 13.15 L-9.0 14.0 Q-8.1 13.25 -6.7 13.4 -5.45 13.5 -4.55 14.3 -3.65 15.1 -3.65 16.15 -3.65 17.15 -4.6 17.85 -5.5 18.5 -6.75 18.4 -8.0 18.3 -8.95 17.45 -9.8 16.65 -9.8 15.6 L-9.65 14.95 Q-10.95 16.0 -12.95 15.85 L-14.95 15.35 -15.7 16.5 Q-14.45 15.9 -13.1 16.05 -11.4 16.2 -10.2 17.15 -9.0 18.2 -9.0 19.45 -9.0 20.7 -10.2 21.55 -11.45 22.3 -13.15 22.15 -14.85 22.0 -16.05 21.0 -17.25 20.05 -17.25 18.75 L-17.05 17.7 -17.4 17.95 Q-18.9 18.75 -20.35 18.55 -21.75 18.35 -22.2 17.15 -22.55 16.3 -22.25 15.3 -21.95 14.25 -21.1 13.4 -22.75 13.25 -23.95 12.25 -25.15 11.25 -25.15 10.0 -25.15 9.25 -24.75 8.75 L-27.25 8.6 M10.25 -17.75 L10.5 -17.75 10.95 -17.7 Q12.2 -17.55 14.95 -13.15 17.3 -9.35 20.1 -3.55 L20.9 -1.8 24.1 5.6 Q25.3 8.85 25.1 9.25 25.45 12.15 25.25 14.9 24.75 22.5 21.55 25.95 20.95 29.75 18.35 32.45 16.3 34.6 14.1 34.6 L12.9 34.45 11.35 34.75 Q10.3 34.75 9.25 34.2 L7.0 34.65 3.3 33.9 1.15 32.65 0.2 32.1 0.1 32.15 -1.5 32.4 -2.15 32.35 Q-3.55 32.2 -6.1 30.85 L-7.85 29.95 -8.7 29.7 Q-11.5 28.9 -13.15 27.55 L-13.2 27.55 Q-15.3 27.55 -18.0 26.2 -20.75 24.8 -22.35 22.95 -24.2 22.6 -25.25 20.8 L-26.45 17.6 -27.05 15.65 -28.1 13.55 -29.25 11.15 Q-29.8 9.6 -29.95 7.85 -31.5 5.75 -31.85 2.65 -32.05 0.85 -31.6 -0.35 -31.35 -2.4 -30.5 -4.3 -28.1 -9.7 -21.95 -12.5 -19.7 -13.55 -17.45 -13.95 L-11.0 -14.85 -4.95 -15.65 -1.95 -16.3 Q4.7 -17.8 7.9 -17.85 L8.25 -17.85 10.25 -17.75" fill="#b7b4ae" fill-rule="evenodd" stroke="none"/>
    <path d="M8.45 26.65 Q8.35 25.8 7.45 25.3 6.5 24.8 5.4 25.0 4.25 25.15 3.5 25.9 2.8 26.6 2.95 27.5 3.1 28.3 3.95 28.8 L6.0 29.15 Q7.15 28.95 7.85 28.2 8.6 27.5 8.45 26.65 M-8.2 21.1 Q-9.4 21.9 -9.4 23.15 -9.4 24.45 -8.2 25.45 -7.0 26.4 -5.3 26.55 -3.6 26.7 -2.35 25.95 -1.15 25.1 -1.15 23.85 -1.15 22.6 -2.35 21.65 -3.55 20.6 -5.3 20.45 -7.0 20.3 -8.2 21.1 M-26.1 11.65 Q-26.95 10.0 -27.25 8.6 L-24.75 8.75 Q-25.15 9.25 -25.15 10.0 -25.15 11.25 -23.95 12.25 -22.75 13.25 -21.1 13.4 -21.95 14.25 -22.25 15.3 -22.55 16.3 -22.2 17.15 -21.75 18.35 -20.35 18.55 -18.9 18.75 -17.4 17.95 L-17.05 17.7 -17.25 18.75 Q-17.25 20.05 -16.05 21.0 -14.85 22.0 -13.15 22.15 -11.45 22.3 -10.2 21.55 -9.0 20.7 -9.0 19.45 -9.0 18.2 -10.2 17.15 -11.4 16.2 -13.1 16.05 -14.45 15.9 -15.7 16.5 L-14.95 15.35 -12.95 15.85 Q-10.95 16.0 -9.65 14.95 L-9.8 15.6 Q-9.8 16.65 -8.95 17.45 -8.0 18.3 -6.75 18.4 -5.5 18.5 -4.6 17.85 -3.65 17.15 -3.65 16.15 -3.65 15.1 -4.55 14.3 -5.45 13.5 -6.7 13.4 -8.1 13.25 -9.0 14.0 L-8.85 13.15 Q-8.75 11.2 -11.25 10.15 -6.25 11.1 -2.5 12.45 -3.0 13.2 -3.0 13.9 -3.05 15.2 -1.75 16.15 -0.55 17.15 1.15 17.3 L3.4 17.0 Q4.45 16.6 4.9 15.8 7.85 17.35 9.15 18.6 11.15 20.55 11.0 22.95 L10.7 23.05 11.0 23.05 11.0 22.95 12.5 23.0 Q13.05 23.3 13.3 24.05 13.8 26.05 12.7 27.55 11.75 28.95 9.7 29.45 10.05 30.15 9.6 31.1 L9.35 30.85 Q8.5 31.95 6.95 31.95 L4.15 31.3 2.45 30.35 0.75 29.45 -0.5 29.5 -1.8 29.65 Q-2.8 29.55 -4.45 28.7 -6.5 27.6 -7.1 27.4 L-9.75 26.5 Q-11.2 25.9 -12.35 24.7 -13.75 25.35 -16.9 23.75 -20.15 22.15 -21.0 20.2 -22.65 20.55 -23.4 18.7 L-24.65 14.7 -26.1 11.65" fill="#ddd9d3" fill-rule="evenodd" stroke="none"/>
    <path d="M8.45 26.65 Q8.6 27.5 7.85 28.2 7.15 28.95 6.0 29.15 L3.95 28.8 Q3.1 28.3 2.95 27.5 2.8 26.6 3.5 25.9 4.25 25.15 5.4 25.0 6.5 24.8 7.45 25.3 8.35 25.8 8.45 26.65 M-9.4 23.15 Q-9.4 21.9 -8.2 21.1 -7.0 20.3 -5.3 20.45 -3.55 20.6 -2.35 21.65 -1.15 22.6 -1.15 23.85 -1.15 25.1 -2.35 25.95 -3.6 26.7 -5.3 26.55 -7.0 26.4 -8.2 25.45 -9.4 24.45 -9.4 23.15 M-23.95 12.25 Q-25.15 11.25 -25.15 10.0 -25.15 8.75 -23.95 7.9 -22.7 7.15 -21.0 7.3 -19.3 7.45 -18.1 8.45 -16.9 9.45 -16.9 10.75 L-17.15 11.7 -17.0 11.7 Q-16.6 10.75 -15.55 10.2 -14.4 9.65 -12.95 9.75 -11.2 9.9 -10.0 10.85 -8.8 11.9 -8.85 13.15 L-9.0 14.0 Q-8.1 13.25 -6.7 13.4 -5.45 13.5 -4.55 14.3 -3.65 15.1 -3.65 16.15 -3.65 17.15 -4.6 17.85 -5.5 18.5 -6.75 18.4 -8.0 18.3 -8.95 17.45 -9.8 16.65 -9.8 15.6 L-9.65 14.95 Q-10.95 16.0 -12.95 15.85 L-14.95 15.35 -15.7 16.5 Q-14.45 15.9 -13.1 16.05 -11.4 16.2 -10.2 17.15 -9.0 18.2 -9.0 19.45 -9.0 20.7 -10.2 21.55 -11.45 22.3 -13.15 22.15 -14.85 22.0 -16.05 21.0 -17.25 20.05 -17.25 18.75 L-17.05 17.7 -17.4 17.95 Q-18.9 18.75 -20.35 18.55 -21.75 18.35 -22.2 17.15 -22.55 16.3 -22.25 15.3 -21.95 14.25 -21.1 13.4 -22.75 13.25 -23.95 12.25 M1.15 11.2 Q2.9 11.35 4.1 12.35 5.3 13.35 5.3 14.6 5.25 15.85 4.05 16.7 2.85 17.45 1.15 17.3 -0.55 17.15 -1.75 16.15 -3.05 15.2 -3.0 13.9 -3.0 12.65 -1.75 11.85 -0.55 11.05 1.15 11.2" fill="#fcf9f2" fill-rule="evenodd" stroke="none"/>
    <path d="M-35.6 -16.4 Q-34.15 -18.85 -30.5 -21.1 L-23.9 -24.9 Q-21.85 -22.7 -20.55 -18.8 -19.85 -16.6 -18.8 -11.55 L-35.6 -16.4 M-11.85 -32.5 L-7.9 -32.95 Q-5.6 -22.15 -8.5 -7.95 -11.65 -9.2 -18.05 -11.3 -18.3 -20.5 -21.5 -26.55 L-16.55 -30.2 Q-13.75 -32.15 -11.85 -32.5 M23.9 -17.4 Q28.0 -12.8 31.5 -7.1 31.95 3.7 26.9 17.05 L26.7 16.8 Q22.45 10.95 16.55 6.05 25.2 -7.2 23.9 -17.4 M32.95 -4.7 Q35.85 0.3 38.2 6.35 35.65 9.55 34.05 14.5 33.5 16.25 31.85 23.35 30.3 21.8 27.8 18.35 28.7 16.75 29.15 14.7 L31.85 5.1 Q33.05 -0.4 32.95 -4.7 M9.5 -14.55 Q11.4 -21.1 10.5 -28.45 16.7 -24.95 21.95 -19.5 23.3 -6.35 15.95 4.65 L15.7 5.3 Q9.55 0.5 2.4 -3.1 7.45 -7.4 9.5 -14.55 M8.55 -29.4 Q9.5 -23.15 7.45 -15.95 5.8 -10.45 1.95 -3.35 -3.15 -5.9 -8.25 -7.85 -5.9 -13.55 -5.2 -20.1 -4.55 -26.85 -5.8 -32.95 1.6 -32.8 8.55 -29.4" fill="#d24e51" fill-rule="evenodd" stroke="none"/>
    <path d="M10.75 -19.5 L6.6 -21.65 -1.95 -25.1 Q-3.55 -25.75 -6.25 -26.2 L-10.55 -26.95 -12.55 -27.35 -14.45 -27.95 Q-15.4 -28.45 -15.7 -29.05 -15.95 -29.7 -14.75 -29.75 -13.5 -30.55 -10.85 -30.8 L-6.9 -30.8 Q-1.05 -30.2 1.7 -29.25 5.75 -27.8 9.7 -25.0 15.0 -21.4 14.95 -18.4 13.65 -18.1 10.75 -19.5 M19.4 -15.55 Q21.5 -13.9 20.85 -12.45 L18.2 -12.5 Q16.15 -14.15 16.85 -15.45 L16.85 -15.3 Q17.3 -17.2 19.4 -15.55" fill="#ffffff" fill-rule="evenodd" stroke="none"/>
    <path d="M-18.05 -11.3 L-18.8 -11.55 Q-19.85 -16.6 -20.55 -18.8 -21.85 -22.7 -23.9 -24.9 L-21.5 -26.55 Q-18.3 -20.5 -18.05 -11.3 M-5.8 -32.95 Q-4.55 -26.85 -5.2 -20.1 -5.9 -13.55 -8.25 -7.85 L-8.5 -7.95 Q-5.6 -22.15 -7.9 -32.95 L-5.8 -32.95 M32.95 -4.7 Q33.05 -0.4 31.85 5.1 L29.15 14.7 Q28.7 16.75 27.8 18.35 L26.9 17.05 Q31.95 3.7 31.5 -7.1 L32.95 -4.7 M7.45 -15.95 Q9.5 -23.15 8.55 -29.4 L10.5 -28.45 Q11.4 -21.1 9.5 -14.55 7.45 -7.4 2.4 -3.1 L1.95 -3.35 Q5.8 -10.45 7.45 -15.95 M21.95 -19.5 L23.9 -17.4 Q25.2 -7.2 16.55 6.05 L15.7 5.3 15.95 4.65 Q23.3 -6.35 21.95 -19.5" fill="#f68088" fill-rule="evenodd" stroke="none"/>
    <path d="M3.1 0.8 Q4.0 0.15 3.6 -0.95 L2.15 -3.25 Q17.9 4.7 26.7 16.8 30.05 21.6 31.85 23.35 33.5 16.25 34.05 14.5 35.65 9.55 38.2 6.35 31.35 -11.3 19.15 -22.2 4.7 -35.2 -11.85 -32.5 -13.95 -32.15 -17.25 -29.7 -21.05 -26.8 -22.95 -25.6 -24.05 -24.8 -28.8 -22.1 -32.35 -20.1 -34.0 -18.45 L-35.6 -16.4 Q-36.35 -13.25 -35.85 -10.25 -35.25 -7.2 -33.75 -6.15 -30.05 -3.25 -22.55 -2.7 L-9.75 -1.6 Q-7.5 -1.1 -3.1 0.9 0.8 2.25 3.1 0.8 M39.25 3.2 Q40.55 7.25 39.65 9.55 39.15 11.1 36.6 15.2 36.0 16.5 35.45 20.4 34.9 24.3 34.35 25.45 33.8 26.45 32.95 26.5 L27.05 26.95 Q23.9 27.05 23.25 26.2 17.55 19.0 10.6 13.0 2.25 5.85 -4.55 3.4 -7.75 2.25 -13.4 1.4 L-22.25 0.1 Q-25.25 -0.35 -32.25 0.0 L-38.6 0.45 Q-39.2 -1.75 -39.65 -9.55 L-40.0 -16.95 -39.3 -17.4 Q-33.25 -22.25 -26.9 -26.55 -16.4 -33.7 -12.2 -34.25 8.3 -37.2 23.65 -22.0 34.55 -11.3 39.25 3.2" fill="#8b2934" fill-rule="evenodd" stroke="none"/>
    <path d="M2.15 -3.25 L3.6 -0.95 Q4.0 0.15 3.1 0.8 0.8 2.25 -3.1 0.9 -7.5 -1.1 -9.75 -1.6 L-22.55 -2.7 Q-30.05 -3.25 -33.75 -6.15 -35.25 -7.2 -35.85 -10.25 -36.35 -13.25 -35.6 -16.4 -22.65 -12.8 -16.4 -10.8 -5.7 -7.25 2.15 -3.25" fill="#ae314b" fill-rule="evenodd" stroke="none"/>
  </g>
</svg>
