<?xml version="1.0" encoding="UTF-8" standalone="no"?>
<svg xmlns:ffdec="https://www.free-decompiler.com/flash" xmlns:xlink="http://www.w3.org/1999/xlink" ffdec:objectType="shape" height="73.5px" width="80.0px" xmlns="http://www.w3.org/2000/svg">
  <g transform="matrix(1.0, 0.0, 0.0, 1.0, 40.0, 36.75)">
    <path d="M-26.3 8.25 L-28.75 8.15 Q-28.45 9.5 -27.6 11.1 L-26.15 14.0 -25.0 17.9 Q-24.3 19.7 -22.7 19.4 -21.8 21.25 -18.65 22.8 -15.65 24.35 -14.25 23.7 -13.2 24.85 -11.8 25.45 L-9.2 26.3 Q-8.55 26.5 -6.65 27.55 -5.05 28.4 -4.1 28.5 L-2.85 28.35 -1.65 28.3 Q-1.1 28.45 0.0 29.15 L1.6 30.1 4.35 30.7 Q5.85 30.7 6.65 29.65 L6.9 29.9 Q7.35 29.05 7.0 28.3 8.95 27.75 9.9 26.4 10.9 25.0 10.45 23.1 10.2 22.4 9.65 22.05 L8.3 21.95 Q8.35 19.65 6.45 17.85 5.2 16.55 2.4 15.1 L0.9 16.3 -1.3 16.55 Q-2.95 16.45 -4.1 15.45 -5.3 14.5 -5.3 13.3 -5.3 12.55 -4.75 11.9 -8.45 10.6 -13.3 9.65 -12.2 10.05 -11.55 10.85 -10.9 11.65 -10.9 12.55 L-11.1 13.35 Q-10.15 12.65 -8.9 12.8 -7.65 12.85 -6.8 13.65 -5.95 14.4 -5.95 15.4 -5.95 16.45 -6.8 17.05 -7.65 17.65 -8.9 17.55 -10.1 17.45 -11.0 16.65 -11.85 15.9 -11.85 14.95 L-11.75 14.3 Q-12.9 15.3 -14.9 15.15 -16.0 15.05 -16.85 14.6 L-17.5 15.75 Q-16.45 15.2 -15.05 15.35 -13.4 15.5 -12.2 16.45 -11.05 17.4 -11.1 18.65 -11.1 19.85 -12.25 20.65 -13.45 21.4 -15.05 21.25 -16.75 21.1 -17.9 20.15 -19.1 19.15 -19.1 17.95 L-18.8 16.95 -19.2 17.2 Q-20.7 18.0 -22.05 17.8 -23.4 17.55 -23.85 16.45 -24.55 14.7 -22.75 12.8 -24.35 12.6 -25.55 11.65 -26.65 10.7 -26.65 9.5 L-26.3 8.25 M8.2 -17.25 Q10.5 -17.05 16.55 -4.6 22.5 7.7 21.85 8.75 22.4 12.85 21.65 17.25 20.75 22.4 18.45 24.85 17.9 28.45 15.3 31.25 13.4 33.3 11.2 33.3 L10.1 33.15 8.6 33.45 Q7.5 33.45 6.55 32.85 5.65 33.3 4.4 33.3 2.75 33.3 0.85 32.55 L-1.25 31.4 -2.15 30.85 -2.3 30.9 -3.85 31.15 -4.45 31.1 Q-5.95 30.9 -8.25 29.65 L-9.95 28.8 -10.8 28.55 Q-13.65 27.6 -15.05 26.45 L-15.15 26.45 Q-17.15 26.45 -19.8 25.15 -22.45 23.85 -24.0 21.95 -25.75 21.65 -26.8 19.9 L-27.95 16.85 -28.5 15.0 -29.5 12.9 -30.6 10.65 -31.35 7.45 Q-32.8 5.5 -33.1 2.4 -33.35 0.5 -32.9 -0.5 -32.15 -5.95 -27.8 -9.6 -24.15 -12.65 -19.25 -13.65 L-13.0 -14.5 -7.2 -15.3 -4.25 -15.95 Q2.35 -17.4 5.6 -17.4 L7.7 -17.3 8.2 -17.25" fill="#b7b4ae" fill-rule="evenodd" stroke="none"/>
    <path d="M4.8 24.3 Q3.95 23.85 2.8 23.95 1.75 24.15 1.05 24.85 0.35 25.55 0.45 26.35 0.55 27.2 1.45 27.65 L3.4 28.0 Q4.55 27.8 5.25 27.1 5.9 26.4 5.8 25.6 5.65 24.75 4.8 24.3 M-7.5 19.6 Q-9.1 19.5 -10.35 20.2 -11.5 21.0 -11.5 22.25 -11.5 23.45 -10.35 24.4 -9.15 25.35 -7.5 25.5 -5.85 25.65 -4.7 24.9 -3.5 24.1 -3.5 22.9 -3.5 21.7 -4.7 20.75 -5.85 19.75 -7.5 19.6 M-28.75 8.15 L-26.3 8.25 -26.65 9.5 Q-26.65 10.7 -25.55 11.65 -24.35 12.6 -22.75 12.8 -24.55 14.7 -23.85 16.45 -23.4 17.55 -22.05 17.8 -20.7 18.0 -19.2 17.2 L-18.8 16.95 -19.1 17.95 Q-19.1 19.15 -17.9 20.15 -16.75 21.1 -15.05 21.25 -13.45 21.4 -12.25 20.65 -11.1 19.85 -11.1 18.65 -11.05 17.4 -12.2 16.45 -13.4 15.5 -15.05 15.35 -16.45 15.2 -17.5 15.75 L-16.85 14.6 Q-16.0 15.05 -14.9 15.15 -12.9 15.3 -11.75 14.3 L-11.85 14.95 Q-11.85 15.9 -11.0 16.65 -10.1 17.45 -8.9 17.55 -7.65 17.65 -6.8 17.05 -5.95 16.45 -5.95 15.4 -5.95 14.4 -6.8 13.65 -7.65 12.85 -8.9 12.8 -10.15 12.65 -11.1 13.35 L-10.9 12.55 Q-10.9 11.65 -11.55 10.85 -12.2 10.05 -13.3 9.65 -8.45 10.6 -4.75 11.9 -5.3 12.55 -5.3 13.3 -5.3 14.5 -4.1 15.45 -2.95 16.45 -1.3 16.55 L0.9 16.3 2.4 15.1 Q5.2 16.55 6.45 17.85 8.35 19.65 8.3 21.95 L7.95 22.1 8.25 22.1 8.3 21.95 9.65 22.05 Q10.2 22.4 10.45 23.1 10.9 25.0 9.9 26.4 8.95 27.75 7.0 28.3 7.35 29.05 6.9 29.9 L6.65 29.65 Q5.85 30.7 4.35 30.7 L1.6 30.1 0.0 29.15 Q-1.1 28.45 -1.65 28.3 L-2.85 28.35 -4.1 28.5 Q-5.05 28.4 -6.65 27.55 -8.55 26.5 -9.2 26.3 L-11.8 25.45 Q-13.2 24.85 -14.25 23.7 -15.65 24.35 -18.65 22.8 -21.8 21.25 -22.7 19.4 -24.3 19.7 -25.0 17.9 L-26.15 14.0 -27.6 11.1 Q-28.45 9.5 -28.75 8.15" fill="#ddd9d3" fill-rule="evenodd" stroke="none"/>
    <path d="M2.8 23.95 Q3.95 23.85 4.8 24.3 5.65 24.75 5.8 25.6 5.9 26.4 5.25 27.1 4.55 27.8 3.4 28.0 L1.45 27.65 Q0.55 27.2 0.45 26.35 0.35 25.55 1.05 24.85 1.75 24.15 2.8 23.95 M-10.35 20.2 Q-9.1 19.5 -7.5 19.6 -5.85 19.75 -4.7 20.75 -3.5 21.7 -3.5 22.9 -3.5 24.1 -4.7 24.9 -5.85 25.65 -7.5 25.5 -9.15 25.35 -10.35 24.4 -11.5 23.45 -11.5 22.25 -11.5 21.0 -10.35 20.2 M-5.3 13.3 Q-5.3 12.1 -4.1 11.3 -2.9 10.55 -1.25 10.65 0.35 10.8 1.55 11.75 2.7 12.75 2.7 13.95 2.7 15.15 1.55 15.95 0.35 16.7 -1.3 16.55 -2.95 16.45 -4.1 15.45 -5.3 14.5 -5.3 13.3 M-26.65 9.5 Q-26.65 8.3 -25.5 7.5 -24.35 6.75 -22.65 6.9 -21.0 7.0 -19.85 8.0 -18.65 8.95 -18.65 10.15 -18.65 10.65 -18.9 11.15 L-18.75 11.15 Q-18.45 10.2 -17.35 9.7 -16.25 9.15 -14.9 9.25 -13.25 9.4 -12.05 10.35 -10.9 11.35 -10.9 12.55 L-11.1 13.35 Q-10.15 12.65 -8.9 12.8 -7.65 12.85 -6.8 13.65 -5.95 14.4 -5.95 15.4 -5.95 16.45 -6.8 17.05 -7.65 17.65 -8.9 17.55 -10.1 17.45 -11.0 16.65 -11.85 15.9 -11.85 14.95 L-11.75 14.3 Q-12.9 15.3 -14.9 15.15 -16.0 15.05 -16.85 14.6 L-17.5 15.75 Q-16.45 15.2 -15.05 15.35 -13.4 15.5 -12.2 16.45 -11.05 17.4 -11.1 18.65 -11.1 19.85 -12.25 20.65 -13.45 21.4 -15.05 21.25 -16.75 21.1 -17.9 20.15 -19.1 19.15 -19.1 17.95 L-18.8 16.95 -19.2 17.2 Q-20.7 18.0 -22.05 17.8 -23.4 17.55 -23.85 16.45 -24.55 14.7 -22.75 12.8 -24.35 12.6 -25.55 11.65 -26.65 10.7 -26.65 9.5" fill="#fcf9f2" fill-rule="evenodd" stroke="none"/>
    <path d="M21.65 9.0 Q21.9 -3.25 16.35 -14.0 9.9 -26.35 -2.15 -31.75 -6.4 -33.7 -9.85 -33.7 -13.6 -33.7 -15.4 -31.2 L-16.6 -29.5 -18.45 -30.2 Q-21.65 -31.5 -24.5 -31.5 -30.65 -31.5 -34.3 -25.25 -35.7 -22.8 -36.6 -19.8 L-37.25 -16.6 Q-37.55 -12.15 -36.0 -7.65 -34.7 -3.85 -33.05 -2.0 L-30.35 -2.2 Q-22.1 -2.2 -10.65 0.85 5.4 5.1 15.75 13.4 L17.9 15.1 16.45 17.55 Q12.7 23.7 14.9 32.3 21.25 27.8 22.3 23.9 22.8 22.15 22.0 20.6 L26.2 16.85 Q28.0 18.75 30.1 18.75 32.1 18.75 35.95 16.85 34.35 14.8 32.25 13.55 29.55 11.95 26.55 11.95 L21.6 12.55 21.65 9.0 M-1.15 -34.6 Q11.8 -28.8 18.65 -15.5 24.65 -4.0 24.35 9.05 30.25 8.15 35.05 11.9 38.45 14.6 40.0 18.15 33.85 21.2 31.85 21.6 27.6 22.4 24.35 19.1 27.25 24.75 20.65 31.3 17.35 34.6 13.5 36.75 12.25 33.95 11.7 29.9 10.55 21.85 14.2 15.85 2.9 6.9 -15.4 2.8 -22.05 1.3 -27.65 0.95 L-33.6 1.25 Q-36.1 -0.2 -38.15 -5.35 -40.35 -11.05 -39.95 -16.85 -39.45 -23.3 -35.2 -28.95 -28.75 -37.5 -17.55 -33.05 -15.2 -36.4 -10.75 -36.7 -6.6 -37.05 -1.15 -34.6" fill="#cd6656" fill-rule="evenodd" stroke="none"/>
    <path d="M17.9 2.2 Q13.45 -8.05 3.45 -16.75 -2.85 -22.25 -15.95 -30.4 L-14.9 -31.8 Q-6.25 -27.5 1.75 -20.0 8.45 -13.65 15.55 -4.2 L17.35 -1.25 Q18.15 0.45 17.9 2.2" fill="#cd6656" fill-rule="evenodd" stroke="none"/>
    <path d="M3.0 -0.8 L3.45 -0.85 Q3.7 1.7 4.7 4.5 4.45 2.05 6.1 0.1 7.6 -1.75 9.8 -2.35 13.2 -3.1 15.95 -1.8 L17.9 2.2 Q18.1 0.8 17.65 -0.65 17.1 -2.1 15.55 -4.2 L14.9 -5.05 Q16.45 -8.45 18.3 -9.6 21.9 -0.45 21.65 9.0 L21.65 9.05 20.3 10.6 Q18.35 13.05 15.45 13.15 5.05 5.0 -10.85 0.8 -22.15 -2.2 -30.35 -2.2 L-33.05 -2.0 Q-34.2 -3.3 -35.25 -5.75 -36.5 -8.6 -37.0 -11.8 L-36.75 -14.0 -35.7 -13.35 Q-29.25 -10.85 -16.7 -5.05 -5.6 -0.55 3.0 -0.8" fill="#e2ccb7" fill-rule="evenodd" stroke="none"/>
    <path d="M-8.85 -28.3 L-9.55 -28.75 Q-9.75 -30.15 -8.8 -31.4 -7.95 -32.5 -6.5 -33.25 -4.25 -32.7 -2.15 -31.75 L-0.15 -30.75 Q-6.2 -31.85 -8.85 -28.3 M3.45 -0.85 L3.0 -0.8 Q-5.6 -0.55 -16.7 -5.05 -29.25 -10.85 -35.7 -13.35 L-36.75 -14.0 Q-35.4 -21.15 -29.8 -25.55 -24.1 -30.0 -17.75 -28.5 -21.7 -26.3 -22.15 -22.8 -22.35 -18.05 -20.2 -13.85 -17.9 -9.4 -14.0 -8.0 -16.7 -9.9 -16.95 -13.6 -17.1 -17.15 -15.0 -19.8 -13.2 -21.75 -10.4 -21.55 -8.85 -21.4 -5.45 -20.2 -8.3 -13.85 -4.1 -3.1 -3.8 -6.6 -3.1 -8.5 -1.95 -11.55 0.3 -12.6 2.8 -14.0 6.05 -11.05 2.7 -7.35 3.45 -0.85 M-1.25 -22.65 Q-2.3 -25.15 -1.8 -27.0 -1.4 -27.95 -0.45 -28.7 0.5 -29.5 1.75 -29.75 5.95 -27.25 9.55 -23.5 6.1 -22.8 2.8 -19.0 L-1.25 -22.65 M7.15 -14.45 Q7.5 -18.6 11.45 -21.35 14.2 -18.05 16.35 -14.0 L16.7 -13.25 Q13.05 -14.65 8.8 -12.6 L7.15 -14.45" fill="#ffebd7" fill-rule="evenodd" stroke="none"/>
    <path d="M21.6 12.55 L26.55 11.95 Q29.55 11.95 32.25 13.55 34.35 14.8 35.95 16.85 32.1 18.75 30.1 18.75 28.0 18.75 26.2 16.85 L22.0 20.6 Q22.8 22.15 22.3 23.9 21.25 27.8 14.9 32.3 12.7 23.7 16.45 17.55 L17.9 15.1 15.45 13.15 Q18.35 13.05 20.3 10.6 L21.65 9.05 21.6 12.55 M-6.5 -33.25 Q-7.95 -32.5 -8.8 -31.4 -9.75 -30.15 -9.55 -28.75 L-14.9 -31.8 Q-13.15 -33.7 -9.85 -33.7 L-6.5 -33.25 M6.05 -11.05 Q2.8 -14.0 0.3 -12.6 -1.95 -11.55 -3.1 -8.5 -3.8 -6.6 -4.1 -3.1 -8.3 -13.85 -5.45 -20.2 -8.85 -21.4 -10.4 -21.55 -13.2 -21.75 -15.0 -19.8 -17.1 -17.15 -16.95 -13.6 -16.7 -9.9 -14.0 -8.0 -17.9 -9.4 -20.2 -13.85 -22.35 -18.05 -22.15 -22.8 -21.7 -26.3 -17.75 -28.5 -24.65 -30.1 -30.6 -24.9 -36.5 -19.75 -37.0 -11.8 -37.4 -14.2 -37.25 -16.6 L-36.6 -19.8 Q-35.7 -22.8 -34.3 -25.25 -30.65 -31.5 -24.5 -31.5 -21.65 -31.5 -18.45 -30.2 L-16.6 -29.5 -15.95 -30.4 Q-4.0 -22.9 1.8 -18.1 11.15 -10.45 15.95 -1.8 13.2 -3.1 9.8 -2.35 7.6 -1.75 6.1 0.1 4.45 2.05 4.7 4.5 3.25 0.2 3.3 -3.55 3.45 -8.2 6.05 -11.05 M14.9 -5.05 L8.8 -12.6 Q13.05 -14.65 16.7 -13.25 L18.3 -9.6 Q16.45 -8.45 14.9 -5.05 M11.45 -21.35 Q7.5 -18.6 7.15 -14.45 L2.8 -19.0 Q6.1 -22.8 9.55 -23.5 L11.45 -21.35 M-0.15 -30.75 L1.75 -29.75 Q0.5 -29.5 -0.45 -28.7 -1.4 -27.95 -1.8 -27.0 -2.3 -25.15 -1.25 -22.65 -5.0 -25.85 -8.85 -28.3 -6.2 -31.85 -0.15 -30.75" fill="#e9766c" fill-rule="evenodd" stroke="none"/>
  </g>
</svg>
