<?xml version="1.0" encoding="UTF-8" standalone="no"?>
<svg xmlns:ffdec="https://www.free-decompiler.com/flash" xmlns:xlink="http://www.w3.org/1999/xlink" ffdec:objectType="shape" height="19.0px" width="141.0px" xmlns="http://www.w3.org/2000/svg">
  <g transform="matrix(1.0, 0.0, 0.0, 1.0, -1.5, -3.5)">
    <path d="M142.0 18.0 Q142.0 22.0 138.0 22.0 L6.0 22.0 Q2.0 22.0 2.0 18.0 L2.0 8.0 Q2.0 4.0 6.0 4.0 L138.0 4.0 Q142.0 4.0 142.0 8.0 L142.0 18.0" fill="#999999" fill-opacity="0.49803922" fill-rule="evenodd" stroke="none"/>
    <path d="M142.0 18.0 L142.0 8.0 Q142.0 4.0 138.0 4.0 L6.0 4.0 Q2.0 4.0 2.0 8.0 L2.0 18.0 Q2.0 22.0 6.0 22.0 L138.0 22.0 Q142.0 22.0 142.0 18.0 Z" fill="none" stroke="#ffffff" stroke-linecap="round" stroke-linejoin="round" stroke-opacity="0.0" stroke-width="1.0"/>
  </g>
</svg>
