<?xml version="1.0" encoding="UTF-8" standalone="no"?>
<svg xmlns:ffdec="https://www.free-decompiler.com/flash" xmlns:xlink="http://www.w3.org/1999/xlink" ffdec:objectType="shape" height="29.75px" width="101.95px" xmlns="http://www.w3.org/2000/svg">
  <g transform="matrix(1.0, 0.0, 0.0, 1.0, 50.95, 189.5)">
    <path d="M47.0 -184.0 Q51.0 -184.0 51.0 -179.6 L51.0 -166.4 Q51.0 -162.0 47.0 -162.0 L-30.2 -162.0 -30.2 -184.0 47.0 -184.0" fill="#a2a2a2" fill-rule="evenodd" stroke="none"/>
    <path d="M-41.7 -182.75 L-41.6 -181.75 Q-45.0 -183.55 -45.9 -182.75 -46.6 -182.15 -45.5 -179.95 -44.4 -177.95 -42.5 -176.05 -40.6 -174.05 -39.2 -173.65 L-38.8 -172.75 -38.3 -171.85 Q-41.5 -172.35 -44.5 -175.35 -47.0 -177.95 -48.1 -180.85 -49.1 -183.95 -47.7 -184.65 -46.0 -185.65 -41.7 -182.75 M-24.6 -179.15 L-25.7 -173.95 Q-27.0 -170.05 -29.4 -168.95 L-29.0 -165.85 Q-28.5 -164.85 -26.2 -163.85 L-23.9 -163.05 -36.0 -162.25 Q-35.1 -162.75 -34.1 -163.35 -32.2 -164.65 -31.9 -165.75 -31.7 -166.35 -32.0 -168.65 -36.7 -169.15 -39.1 -176.15 -40.6 -180.05 -40.9 -184.05 L-24.3 -185.55 Q-24.1 -182.35 -24.6 -179.15 M-19.0 -182.85 Q-18.6 -184.75 -19.6 -185.15 -20.6 -185.55 -23.1 -183.75 L-23.1 -184.75 Q-19.6 -187.95 -17.8 -187.35 -16.2 -186.75 -16.6 -183.75 -17.0 -180.75 -19.1 -177.85 -21.5 -174.55 -24.9 -173.45 -24.6 -173.75 -24.5 -174.85 L-24.3 -176.35 Q-22.3 -177.15 -20.8 -179.25 -19.4 -181.05 -19.0 -182.85" fill="#fdfdfd" fill-rule="evenodd" stroke="none"/>
    <path d="M-43.2 -186.15 L-32.8 -187.15 -22.0 -188.15 -22.0 -187.95 Q-18.2 -190.35 -16.0 -189.05 -13.7 -187.65 -14.2 -183.55 -14.8 -179.35 -17.8 -175.75 -20.6 -172.55 -24.3 -171.05 -25.4 -168.95 -26.9 -167.65 L-26.7 -166.65 Q-26.4 -165.85 -23.4 -164.55 L-20.3 -163.35 -19.8 -161.05 -40.0 -159.75 -39.9 -161.95 -37.2 -163.55 Q-34.5 -165.35 -34.4 -166.25 L-34.3 -167.05 Q-36.6 -167.95 -38.2 -169.65 -42.7 -170.65 -46.2 -173.85 -49.6 -177.05 -50.6 -181.05 -51.6 -184.85 -49.6 -186.45 -47.4 -188.05 -43.2 -186.15 M-41.7 -182.75 Q-46.0 -185.65 -47.7 -184.65 -49.1 -183.95 -48.1 -180.85 -47.0 -177.95 -44.5 -175.35 -41.5 -172.35 -38.3 -171.85 L-38.8 -172.75 -39.2 -173.65 Q-40.6 -174.05 -42.5 -176.05 -44.4 -177.95 -45.5 -179.95 -46.6 -182.15 -45.9 -182.75 -45.0 -183.55 -41.6 -181.75 L-41.7 -182.75 M-19.0 -182.85 Q-19.4 -181.05 -20.8 -179.25 -22.3 -177.15 -24.3 -176.35 L-24.5 -174.85 Q-24.6 -173.75 -24.9 -173.45 -21.5 -174.55 -19.1 -177.85 -17.0 -180.75 -16.6 -183.75 -16.2 -186.75 -17.8 -187.35 -19.6 -187.95 -23.1 -184.75 L-23.1 -183.75 Q-20.6 -185.55 -19.6 -185.15 -18.6 -184.75 -19.0 -182.85 M-24.6 -179.15 Q-24.1 -182.35 -24.3 -185.55 L-40.9 -184.05 Q-40.6 -180.05 -39.1 -176.15 -36.7 -169.15 -32.0 -168.65 -31.7 -166.35 -31.9 -165.75 -32.2 -164.65 -34.1 -163.35 -35.1 -162.75 -36.0 -162.25 L-23.9 -163.05 -26.2 -163.85 Q-28.5 -164.85 -29.0 -165.85 L-29.4 -168.95 Q-27.0 -170.05 -25.7 -173.95 L-24.6 -179.15" fill="#000000" fill-rule="evenodd" stroke="none"/>
  </g>
</svg>
