<?xml version="1.0" encoding="UTF-8" standalone="no"?>
<svg xmlns:ffdec="https://www.free-decompiler.com/flash" xmlns:xlink="http://www.w3.org/1999/xlink" ffdec:objectType="shape" height="93.3px" width="59.45px" xmlns="http://www.w3.org/2000/svg">
  <g transform="matrix(1.0, 0.0, 0.0, 1.0, 29.7, 46.65)">
    <path d="M19.9 -5.5 L20.25 -8.75 22.3 -7.2 22.1 -7.0 18.1 38.8 Q16.3 42.85 10.15 44.95 5.15 46.65 -1.1 46.65 -8.65 46.65 -12.9 45.5 -19.5 43.7 -20.9 38.95 L-25.25 -7.25 -25.65 -7.5 -23.5 -8.95 -23.45 -8.9 -23.1 -5.8 -18.4 37.4 Q-18.4 39.1 -16.05 40.75 -13.75 42.35 -9.85 43.3 -6.15 44.25 -1.55 44.3 L1.65 44.2 Q7.5 43.75 11.45 41.7 15.25 39.7 15.25 37.4 L19.9 -5.5" fill="#24304a" fill-rule="evenodd" stroke="none"/>
    <path d="M27.45 -39.85 Q30.8 -38.25 29.25 -34.55 27.75 -30.8 24.55 -32.45 L17.8 -35.4 10.7 -37.95 Q9.05 -38.4 6.9 -32.75 4.85 -27.45 4.2 -27.45 L2.1 -25.9 1.75 -25.9 5.75 -36.65 Q6.55 -38.9 8.2 -40.05 9.65 -41.1 10.8 -40.65 L17.65 -37.8 Q22.8 -35.7 24.65 -34.8 25.65 -34.95 26.4 -35.7 27.55 -37.0 26.0 -38.35 20.8 -40.9 11.45 -43.9 8.45 -44.85 5.95 -43.3 3.6 -41.9 2.3 -38.7 L-2.4 -26.25 -4.75 -28.55 -1.35 -37.8 Q1.0 -43.45 3.6 -45.2 6.65 -47.25 11.3 -46.45 15.4 -45.75 27.45 -39.85" fill="#4b6f92" fill-rule="evenodd" stroke="none"/>
    <path d="M27.35 -20.0 Q26.8 -13.35 26.2 -10.85 26.0 -9.95 24.4 -8.7 L22.3 -7.2 20.25 -8.75 20.3 -8.9 Q23.65 -10.55 23.65 -12.4 L24.1 -15.7 24.5 -19.0 24.25 -19.95 Q23.0 -22.25 16.75 -23.9 10.6 -25.55 2.1 -25.9 L5.05 -28.6 Q27.95 -27.05 27.35 -20.0" fill="#4b6f92" fill-rule="evenodd" stroke="none"/>
    <path d="M-4.8 -28.6 L-4.0 -28.0 -2.4 -26.25 -2.5 -26.0 Q-11.85 -25.9 -18.9 -24.15 -26.05 -22.45 -27.4 -19.95 L-27.65 -19.0 -27.2 -15.7 -26.8 -12.4 Q-26.8 -10.6 -23.5 -8.95 L-25.65 -7.5 Q-28.5 -8.6 -29.3 -12.85 -29.75 -15.0 -29.7 -19.85 -29.6 -24.75 -19.2 -27.05 -13.1 -28.35 -4.8 -28.6" fill="#4b6f92" fill-rule="evenodd" stroke="none"/>
    <path d="M19.9 -5.5 L16.85 -4.15 15.3 -3.6 9.8 -1.95 7.5 -1.5 5.65 -1.2 5.45 -1.15 3.45 -0.9 Q-6.4 0.05 -14.9 -2.45 L-17.25 -3.2 -23.1 -5.8 -23.45 -8.9 Q-20.05 -7.3 -14.35 -6.4 L-1.55 -5.4 11.25 -6.4 Q16.95 -7.3 20.3 -8.9 L20.25 -8.75 19.9 -5.5" fill="#24304a" fill-rule="evenodd" stroke="none"/>
    <path d="M-17.25 -3.2 L-14.9 -2.45 Q-14.35 17.75 -9.85 43.3 -13.75 42.35 -16.05 40.75 -18.4 39.1 -18.4 37.4 L-23.1 -5.8 -17.25 -3.2" fill="#1885ef" fill-rule="evenodd" stroke="none"/>
    <path d="M-10.0 17.95 Q-8.1 34.85 -6.7 34.85 -4.95 34.85 -5.8 18.25 -6.65 1.6 -9.6 1.3 -11.9 1.05 -10.0 17.95 M-3.8 38.15 Q-3.8 37.5 -4.3 37.0 -4.8 36.5 -5.5 36.5 -6.2 36.5 -6.7 37.0 -7.2 37.45 -7.2 38.15 -7.2 38.85 -6.7 39.3 -6.2 39.8 -5.5 39.8 -4.8 39.8 -4.3 39.3 -3.8 38.8 -3.8 38.15 M-14.9 -2.45 Q-6.4 0.05 3.45 -0.9 L3.15 21.6 Q2.75 34.15 1.65 44.2 L-1.55 44.3 Q-6.15 44.25 -9.85 43.3 -14.35 17.75 -14.9 -2.45" fill="#61aaf3" fill-rule="evenodd" stroke="none"/>
    <path d="M3.45 -0.9 L5.45 -1.15 5.65 -1.2 7.5 -1.5 15.3 -3.6 16.85 -4.15 19.9 -5.5 15.25 37.4 Q15.25 39.7 11.45 41.7 7.5 43.75 1.65 44.2 2.75 34.15 3.15 21.6 L3.45 -0.9" fill="#1885ef" fill-rule="evenodd" stroke="none"/>
    <path d="M16.7 -14.55 Q24.3 -16.65 24.3 -19.65 L24.25 -19.95 24.5 -19.0 24.1 -15.7 23.65 -12.4 Q23.65 -10.55 20.3 -8.9 16.95 -7.3 11.25 -6.4 L-1.55 -5.4 -14.35 -6.4 Q-20.05 -7.3 -23.45 -8.9 L-23.5 -8.95 Q-26.8 -10.6 -26.8 -12.4 L-27.2 -15.7 -27.65 -19.0 -27.4 -19.95 -27.4 -19.65 Q-27.4 -16.65 -19.85 -14.55 -12.3 -12.45 -1.55 -12.45 9.15 -12.45 16.7 -14.55" fill="#a3cbe4" fill-rule="evenodd" stroke="none"/>
    <path d="M17.25 -17.6 Q21.3 -19.0 21.15 -20.15 20.95 -21.8 14.55 -23.1 8.55 -24.3 1.2 -24.45 L1.75 -25.9 2.1 -25.9 Q10.6 -25.55 16.75 -23.9 23.0 -22.25 24.25 -19.95 L24.3 -19.65 Q24.3 -16.65 16.7 -14.55 9.15 -12.45 -1.55 -12.45 -12.3 -12.45 -19.85 -14.55 -27.4 -16.65 -27.4 -19.65 L-27.4 -19.95 Q-26.05 -22.45 -18.9 -24.15 -11.85 -25.9 -2.5 -26.0 L-3.1 -24.4 Q-10.4 -24.1 -16.85 -22.5 -23.2 -20.9 -23.0 -19.55 -22.85 -18.4 -17.35 -17.8 -21.8 -18.55 -21.7 -19.35 -21.65 -20.1 -17.75 -21.1 L-9.2 -22.65 -8.85 -22.5 Q-6.5 -21.7 -5.85 -20.7 -5.4 -19.95 -7.4 -18.45 -8.4 -17.75 -9.5 -17.15 L-7.0 -18.3 Q-4.25 -19.4 -2.75 -19.25 L4.1 -17.75 Q0.7 -18.8 0.55 -20.65 0.45 -21.55 2.0 -22.3 L0.2 -21.75 0.7 -23.1 13.3 -21.9 Q19.9 -20.8 20.05 -19.85 20.2 -18.75 17.25 -17.6" fill="#e3fff6" fill-rule="evenodd" stroke="none"/>
    <path d="M-3.6 -23.1 L-4.25 -21.3 Q-5.9 -21.55 -8.85 -22.5 L-9.2 -22.65 -3.6 -23.1" fill="#e3fff6" fill-rule="evenodd" stroke="none"/>
    <path d="M21.15 -20.15 Q21.3 -19.0 17.25 -17.6 20.2 -18.75 20.05 -19.85 19.9 -20.8 13.3 -21.9 L0.7 -23.1 1.2 -24.45 Q8.55 -24.3 14.55 -23.1 20.95 -21.8 21.15 -20.15" fill="#a3cbe4" fill-rule="evenodd" stroke="none"/>
    <path d="M-3.6 -23.1 L-9.2 -22.65 -17.75 -21.1 Q-21.65 -20.1 -21.7 -19.35 -21.8 -18.55 -17.35 -17.8 -22.85 -18.4 -23.0 -19.55 -23.2 -20.9 -16.85 -22.5 -10.4 -24.1 -3.1 -24.4 L-3.6 -23.1" fill="#a3cbe4" fill-rule="evenodd" stroke="none"/>
    <path d="M0.2 -21.75 L2.0 -22.3 Q0.45 -21.55 0.55 -20.65 0.7 -18.8 4.1 -17.75 L-2.75 -19.25 Q-4.25 -19.4 -7.0 -18.3 L-9.5 -17.15 Q-8.4 -17.75 -7.4 -18.45 -5.4 -19.95 -5.85 -20.7 -6.5 -21.65 -8.7 -22.45 L-4.25 -21.3 -4.45 -20.7 Q-4.15 -20.0 -3.35 -19.7 L-1.7 -19.6 Q-0.7 -19.75 -0.3 -20.25 L0.2 -21.75" fill="#a3cbe4" fill-rule="evenodd" stroke="none"/>
    <path d="M-6.7 34.85 Q-8.1 34.85 -10.0 17.95 -11.9 1.05 -9.6 1.3 -6.65 1.6 -5.8 18.25 -4.95 34.85 -6.7 34.85" fill="#e3fff6" fill-rule="evenodd" stroke="none"/>
    <path d="M-5.5 36.5 Q-4.8 36.5 -4.3 37.0 -3.8 37.5 -3.8 38.15 -3.8 38.8 -4.3 39.3 -4.8 39.8 -5.5 39.8 -6.2 39.8 -6.7 39.3 -7.2 38.85 -7.2 38.15 -7.2 37.45 -6.7 37.0 -6.2 36.5 -5.5 36.5" fill="#e3fff6" fill-rule="evenodd" stroke="none"/>
    <path d="M-4.45 -20.7 L-3.7 -22.85 Q-2.1 -21.55 -0.8 -22.25 L-1.7 -19.6 -3.35 -19.7 Q-4.15 -20.0 -4.45 -20.7" fill="#c9ae72" fill-rule="evenodd" stroke="none"/>
    <path d="M11.45 -43.9 Q20.8 -40.9 26.0 -38.35 27.55 -37.0 26.4 -35.7 13.55 -41.15 11.15 -41.75 7.25 -42.7 5.6 -39.6 L5.4 -39.25 5.4 -39.15 4.8 -37.85 4.8 -37.8 4.5 -37.05 4.45 -36.95 4.1 -36.1 4.05 -35.9 3.7 -34.95 3.65 -34.75 -0.8 -22.25 Q-2.1 -21.55 -3.7 -22.85 L2.3 -38.7 Q3.6 -41.9 5.95 -43.3 8.45 -44.85 11.45 -43.9" fill="#f1ecda" fill-rule="evenodd" stroke="none"/>
    <path d="M11.15 -41.75 Q13.55 -41.15 26.4 -35.7 25.65 -34.95 24.65 -34.8 22.8 -35.7 17.65 -37.8 L10.8 -40.65 Q9.65 -41.1 8.2 -40.05 6.55 -38.9 5.75 -36.65 L-0.3 -20.25 Q-0.7 -19.75 -1.7 -19.6 L3.65 -34.75 3.7 -34.95 4.05 -35.9 4.1 -36.1 4.45 -36.95 4.5 -37.05 4.8 -37.8 4.8 -37.85 5.4 -39.15 5.4 -39.25 5.6 -39.6 Q7.25 -42.7 11.15 -41.75" fill="#c9ae72" fill-rule="evenodd" stroke="none"/>
  </g>
</svg>
