<?xml version="1.0" encoding="UTF-8" standalone="no"?>
<svg xmlns:ffdec="https://www.free-decompiler.com/flash" xmlns:xlink="http://www.w3.org/1999/xlink" ffdec:objectType="frame" height="95.05px" width="81.4px" xmlns="http://www.w3.org/2000/svg">
  <g transform="matrix(1.0, 0.0, 0.0, 1.0, 40.7, 94.8)">
    <use ffdec:characterId="992" height="73.4" transform="matrix(1.0, 0.0, 0.0, 1.0, -33.25, -73.4)" width="66.5" xlink:href="#sprite0"/>
  </g>
  <defs>
    <g id="sprite0" transform="matrix(1.0, 0.0, 0.0, 1.0, 33.25, 36.7)">
      <use ffdec:characterId="991" height="73.4" transform="matrix(1.0, 0.0, 0.0, 1.0, -33.25, -36.7)" width="66.5" xlink:href="#shape0"/>
    </g>
    <g id="shape0" transform="matrix(1.0, 0.0, 0.0, 1.0, 33.25, 36.7)">
      <path d="M23.8 -27.95 L22.55 -29.95 22.45 -29.95 17.95 -31.1 14.25 -23.35 13.0 -20.1 14.2 -24.55 14.2 -24.7 10.25 -26.6 7.55 -26.85 8.55 -30.35 5.0 -31.85 Q1.65 -30.5 1.15 -29.25 L0.4 -26.15 -1.55 -35.05 -6.0 -34.9 -6.15 -34.85 -7.65 -33.15 Q-5.9 -27.0 -5.25 -20.4 L-5.35 -20.4 -5.45 -20.3 Q-7.95 -27.25 -11.7 -32.25 L-11.8 -32.5 -15.0 -30.8 -17.9 -27.25 -17.75 -27.1 -16.5 -25.2 -16.45 -25.15 -18.2 -25.2 -22.05 -22.05 -18.8 -17.4 -21.75 -15.7 -24.6 -17.35 -28.05 -17.0 -30.7 -12.6 Q-25.25 -10.05 -21.75 -6.9 L-21.85 -6.75 -24.15 -6.7 Q-26.7 -8.55 -33.25 -11.5 L-31.05 -15.85 -29.65 -18.85 -24.35 -19.65 -23.2 -18.7 Q-22.0 -17.75 -21.35 -17.55 L-24.55 -22.2 -19.5 -26.7 -20.35 -27.9 -16.3 -32.2 -11.25 -34.6 -10.5 -33.25 -9.05 -30.7 -9.55 -33.7 -7.15 -36.7 0.2 -36.55 0.9 -31.6 Q2.35 -32.65 5.7 -34.45 L10.35 -32.05 9.45 -27.8 11.05 -27.25 13.65 -26.25 17.35 -33.4 23.5 -31.85 26.05 -28.1 22.3 -20.85 25.0 -18.4 30.05 -19.25 33.25 -15.15 27.2 -6.9 25.7 -6.9 25.45 -7.25 Q28.6 -12.35 30.85 -14.9 L28.1 -17.5 26.2 -17.35 Q24.2 -17.0 23.6 -16.4 21.95 -14.5 20.35 -11.65 L19.6 -12.1 Q20.85 -16.55 21.75 -18.25 L19.95 -19.6 Q21.75 -24.15 23.8 -27.95" fill="#7b7115" fill-rule="evenodd" stroke="none"/>
      <path d="M27.2 -6.9 L28.75 -5.75 Q30.4 -4.4 30.9 -3.55 30.8 1.1 28.2 16.0 25.5 31.75 23.9 35.15 21.95 36.7 2.5 36.7 L-19.05 35.95 Q-19.65 34.2 -22.95 16.15 -26.3 -2.15 -26.25 -3.55 L-25.2 -5.2 -24.15 -6.7 -21.85 -6.75 -23.65 -4.4 Q-22.5 6.0 -20.45 17.65 -18.2 30.4 -16.75 33.75 -14.75 34.3 2.4 34.25 20.2 34.15 22.25 33.0 22.8 31.95 25.55 15.35 28.4 -1.7 28.05 -3.75 L25.7 -6.9 27.2 -6.9" fill="#481104" fill-rule="evenodd" stroke="none"/>
      <path d="M20.35 -11.65 L18.65 -8.55 19.6 -12.1 20.35 -11.65" fill="#90d152" fill-rule="evenodd" stroke="none"/>
      <path d="M20.5 1.3 L25.45 -7.25 25.7 -6.9 28.05 -3.75 Q28.4 -1.7 25.55 15.35 22.8 31.95 22.25 33.0 20.2 34.15 2.4 34.25 -14.75 34.3 -16.75 33.75 -18.2 30.4 -20.45 17.65 -22.5 6.0 -23.65 -4.4 L-21.85 -6.75 -21.75 -6.9 Q-17.85 -3.3 -16.05 1.2 L-17.35 0.6 Q-19.35 -0.4 -20.95 -1.7 -22.1 6.8 -19.75 16.1 -18.0 22.85 -13.45 32.65 L-11.5 32.25 0.9 31.05 14.55 31.5 Q21.7 28.45 24.15 18.05 26.05 9.75 24.65 -0.55 L25.85 -1.85 Q23.75 -0.05 20.5 1.3" fill="#a22609" fill-rule="evenodd" stroke="none"/>
      <path d="M17.3 -20.95 L14.8 -20.8 12.9 -13.55 Q10.85 -5.05 9.9 1.35 L12.45 0.5 Q15.0 -11.8 17.45 -20.9 L17.3 -20.95 M20.0 -25.05 L22.45 -29.95 22.55 -29.95 23.8 -27.95 Q21.75 -24.15 19.95 -19.6 L21.75 -18.25 Q20.85 -16.55 19.6 -12.1 L18.65 -8.55 20.35 -11.65 Q21.95 -14.5 23.6 -16.4 24.2 -17.0 26.2 -17.35 L28.1 -17.5 30.85 -14.9 Q28.6 -12.35 25.45 -7.25 L20.5 1.3 Q14.65 3.7 6.7 4.3 4.8 -11.5 8.65 -25.0 L14.2 -24.55 13.0 -20.1 14.25 -23.35 Q17.85 -25.0 20.0 -25.05" fill="#dece43" fill-rule="evenodd" stroke="none"/>
      <path d="M3.35 1.0 L3.1 -0.6 Q1.2 -12.15 -1.05 -22.15 L-5.25 -20.4 Q-5.9 -27.0 -7.65 -33.15 L-6.15 -34.85 -6.0 -34.9 -5.15 -31.75 Q-4.2 -27.8 -3.7 -24.15 L-1.4 -24.25 0.7 -24.3 0.4 -26.15 1.15 -29.25 Q1.65 -30.5 5.0 -31.85 L8.55 -30.35 7.55 -26.85 6.7 -26.9 6.65 -26.7 Q4.7 -20.6 3.95 -13.8 5.95 -3.05 6.6 4.3 0.45 4.8 -5.35 4.0 -11.5 3.2 -16.05 1.2 -17.85 -3.3 -21.75 -6.9 -25.25 -10.05 -30.7 -12.6 L-28.05 -17.0 -24.6 -17.35 -21.75 -15.7 -22.85 -14.9 -22.6 -14.6 Q-19.0 -9.65 -14.85 -0.05 -11.8 2.2 -8.95 1.8 L-10.25 -1.65 Q-13.8 -10.65 -16.9 -16.45 L-15.35 -17.95 -15.5 -18.2 -18.25 -17.7 -18.8 -17.4 -22.05 -22.05 -18.2 -25.2 -16.45 -25.15 Q-13.65 -20.75 -11.85 -14.55 -9.6 -18.15 -8.7 -21.9 L-9.5 -23.75 Q-11.0 -27.0 -12.75 -29.6 L-11.7 -32.25 Q-7.95 -27.25 -5.45 -20.3 L-7.7 -19.4 Q-5.95 -16.25 -2.15 1.5 L0.6 1.55 3.35 1.0" fill="#dece43" fill-rule="evenodd" stroke="none"/>
      <path d="M-11.7 -32.25 L-12.75 -29.6 -17.75 -27.1 -17.9 -27.25 -15.0 -30.8 -11.8 -32.5 -11.7 -32.25" fill="#ffffff" fill-rule="evenodd" stroke="none"/>
      <path d="M6.7 -26.9 L10.25 -26.6 14.2 -24.7 14.2 -24.55 8.65 -25.0 6.65 -26.7 6.7 -26.9" fill="#ffffff" fill-rule="evenodd" stroke="none"/>
      <path d="M-15.5 -18.2 L-15.35 -17.95 -17.0 -16.35 -22.6 -14.6 -22.85 -14.9 -21.75 -15.7 -18.8 -17.4 -18.25 -17.7 -15.5 -18.2" fill="#ffffff" fill-rule="evenodd" stroke="none"/>
      <path d="M22.45 -29.95 L20.0 -25.05 Q17.85 -25.0 14.25 -23.35 L17.95 -31.1 22.45 -29.95" fill="#f9ee97" fill-rule="evenodd" stroke="none"/>
      <path d="M-22.6 -14.6 L-17.0 -16.35 -16.9 -16.45 Q-13.8 -10.65 -10.25 -1.65 L-8.95 1.8 Q-11.8 2.2 -14.85 -0.05 -19.0 -9.65 -22.6 -14.6" fill="#f9ee97" fill-rule="evenodd" stroke="none"/>
      <path d="M3.1 -0.6 L3.35 1.0 0.6 1.55 -2.15 1.5 Q-5.95 -16.25 -7.7 -19.4 L-5.35 -20.4 -5.25 -20.4 -1.05 -22.15 Q1.2 -12.15 3.1 -0.6" fill="#f9ee97" fill-rule="evenodd" stroke="none"/>
      <path d="M-16.5 -25.2 L-17.75 -27.1 -12.75 -29.6 Q-11.0 -27.0 -9.5 -23.75 L-8.7 -21.9 Q-9.6 -18.15 -11.85 -14.55 -13.65 -20.75 -16.45 -25.15 L-16.5 -25.2" fill="#f9ee97" fill-rule="evenodd" stroke="none"/>
      <path d="M-5.15 -31.75 L-6.0 -34.9 -1.55 -35.05 0.7 -24.3 -1.4 -24.25 -3.7 -24.15 Q-4.2 -27.8 -5.15 -31.75" fill="#ffffff" fill-rule="evenodd" stroke="none"/>
      <path d="M9.9 1.35 Q10.85 -5.05 12.9 -13.55 L14.8 -20.8 17.3 -20.95 17.45 -20.9 Q15.0 -11.8 12.45 0.5 L9.9 1.35" fill="#f9ee97" fill-rule="evenodd" stroke="none"/>
      <path d="M6.65 -26.7 L8.65 -25.0 Q4.8 -11.5 6.7 4.3 L6.6 4.3 Q5.95 -3.05 3.95 -13.8 4.7 -20.6 6.65 -26.7" fill="#f9ee97" fill-rule="evenodd" stroke="none"/>
      <path d="M24.4 -0.3 L21.8 1.9 21.15 2.35 17.7 4.25 14.6 5.35 Q5.35 8.3 -3.95 6.6 -6.25 11.75 -4.45 19.05 L-2.2 25.35 Q-0.9 28.35 0.9 31.05 L-11.5 32.25 Q-7.15 27.7 -7.6 19.15 -7.95 12.2 -11.2 4.4 -14.0 3.15 -15.9 1.7 L-17.35 0.6 -16.05 1.2 Q-11.5 3.2 -5.35 4.0 0.45 4.8 6.6 4.3 L6.7 4.3 Q14.65 3.7 20.5 1.3 23.75 -0.05 25.85 -1.85 L24.4 -0.3" fill="#f9aa97" fill-rule="evenodd" stroke="none"/>
      <path d="M-20.95 -1.7 Q-19.35 -0.4 -17.35 0.6 L-15.9 1.7 Q-14.0 3.15 -11.2 4.4 -7.95 12.2 -7.6 19.15 -7.15 27.7 -11.5 32.25 L-13.45 32.65 Q-18.0 22.85 -19.75 16.1 -22.1 6.8 -20.95 -1.7" fill="#a22609" fill-rule="evenodd" stroke="none"/>
      <path d="M-4.45 19.05 Q-6.25 11.75 -3.95 6.6 5.35 8.3 14.6 5.35 L16.15 4.9 18.3 4.0 21.15 2.35 24.65 -0.55 Q26.05 9.75 24.15 18.05 21.7 28.45 14.55 31.5 L0.9 31.05 Q-0.9 28.35 -2.2 25.35 L-2.75 24.15 -4.45 19.05" fill="#ea380d" fill-rule="evenodd" stroke="none"/>
    </g>
  </defs>
</svg>
