<?xml version="1.0" encoding="UTF-8" standalone="no"?>
<svg xmlns:ffdec="https://www.free-decompiler.com/flash" xmlns:xlink="http://www.w3.org/1999/xlink" ffdec:objectType="frame" height="95.05px" width="81.4px" xmlns="http://www.w3.org/2000/svg">
  <g transform="matrix(1.0, 0.0, 0.0, 1.0, 40.7, 94.8)">
    <use ffdec:characterId="994" height="69.65" transform="matrix(1.0, 0.0, 0.0, 1.0, -37.25, -69.65)" width="74.45" xlink:href="#sprite0"/>
  </g>
  <defs>
    <g id="sprite0" transform="matrix(1.0, 0.0, 0.0, 1.0, 37.2, 34.85)">
      <use ffdec:characterId="993" height="69.65" transform="matrix(1.0, 0.0, 0.0, 1.0, -37.2, -34.85)" width="74.45" xlink:href="#shape0"/>
    </g>
    <g id="shape0" transform="matrix(1.0, 0.0, 0.0, 1.0, 37.2, 34.85)">
      <path d="M-3.85 25.6 L1.8 26.65 Q6.65 27.15 14.0 25.65 23.9 23.65 27.85 19.05 L30.3 16.2 Q30.7 15.65 27.95 17.65 22.3 21.8 12.45 23.45 L-3.5 24.7 Q-6.3 24.8 -3.85 25.6 M31.6 12.95 L32.2 12.2 Q32.65 13.2 32.6 14.1 31.75 22.65 22.4 27.45 13.65 31.95 0.25 31.95 -12.8 31.95 -22.15 27.0 -31.8 21.9 -31.65 14.45 L-31.55 13.05 Q-31.05 13.35 -30.45 14.15 L-29.4 15.3 Q-28.25 16.25 -26.45 16.7 -24.25 17.3 -23.4 17.75 L-20.95 19.7 Q-19.65 20.9 -18.15 21.15 L-14.9 21.45 Q-13.15 21.6 -11.55 22.2 -8.35 23.45 -4.3 23.3 L3.2 22.75 11.5 22.15 19.6 20.65 Q22.0 19.95 25.95 17.35 29.7 14.9 31.6 12.95" fill="#84c422" fill-rule="evenodd" stroke="none"/>
      <path d="M-33.05 1.55 L-33.2 2.5 -33.3 1.4 Q-33.15 1.5 -33.05 1.55" fill="#4c2e12" fill-rule="evenodd" stroke="none"/>
      <path d="M35.75 -1.85 L35.75 -1.5 Q35.75 0.35 35.3 2.0 34.95 1.1 34.1 0.5 L35.75 -1.85" fill="#4c2e12" fill-rule="evenodd" stroke="none"/>
      <path d="M-34.5 0.75 L-34.15 0.95 -34.45 1.1 -34.5 0.75" fill="#4c2e12" fill-rule="evenodd" stroke="none"/>
      <path d="M9.95 19.05 Q9.95 18.6 9.0 18.3 L6.7 17.95 4.4 18.3 Q3.45 18.6 3.45 19.05 3.45 19.5 4.4 19.85 L6.7 20.15 9.0 19.85 Q9.95 19.5 9.95 19.05 M23.45 16.15 Q23.45 15.5 22.55 15.05 21.7 14.6 20.45 14.6 18.7 14.6 17.9 15.4 L17.15 15.3 15.3 15.7 Q14.5 16.05 14.5 16.6 L14.5 16.7 13.55 16.6 11.25 17.0 Q10.3 17.45 10.3 18.0 10.3 18.5 10.9 18.8 L10.85 18.95 Q10.85 19.5 11.65 19.9 12.45 20.3 13.6 20.3 L15.55 19.9 Q16.35 19.5 16.35 18.95 L16.3 18.8 16.8 18.0 16.75 17.8 17.15 17.85 18.45 17.65 Q19.0 18.7 20.3 18.7 21.0 18.7 21.55 18.3 L22.3 17.35 Q23.45 16.85 23.45 16.15 M-3.55 19.35 Q-3.55 20.05 -2.6 20.05 -1.65 20.05 -1.65 19.35 -1.65 18.65 -2.6 18.65 L-2.9 18.7 -2.8 18.35 Q-2.8 17.7 -3.95 17.25 L-6.65 16.8 -9.4 17.25 Q-10.55 17.7 -10.55 18.35 -10.55 19.0 -9.4 19.45 L-6.65 19.9 Q-4.65 19.9 -3.5 19.25 L-3.55 19.35 M-2.05 7.65 L-2.75 7.45 -3.4 7.65 -3.7 8.15 Q-3.7 8.85 -2.75 8.85 -1.75 8.85 -1.75 8.15 L-2.05 7.65 M-0.45 6.65 L0.25 6.4 0.55 5.8 0.25 5.25 -1.15 5.2 -1.4 5.8 -1.15 6.4 -0.45 6.65 M-11.05 4.5 Q-13.5 4.9 -13.5 5.95 -13.5 6.6 -12.3 7.0 L-9.4 7.45 -6.55 7.0 Q-5.35 6.6 -5.35 5.95 -5.35 5.4 -6.15 5.0 L-11.05 4.5 M-18.75 13.05 Q-19.8 13.05 -20.5 13.55 -21.25 14.05 -21.25 14.75 -21.25 15.45 -20.5 15.9 -19.8 16.4 -18.75 16.4 -17.75 16.4 -17.0 15.9 -16.3 15.45 -16.3 14.75 -16.3 14.05 -17.0 13.55 -17.75 13.05 -18.75 13.05 M-21.55 4.75 Q-20.8 5.25 -19.7 5.25 -18.6 5.25 -17.85 4.75 -17.1 4.25 -17.1 3.55 L-17.1 3.4 -21.35 2.25 Q-22.3 2.75 -22.3 3.55 -22.3 4.25 -21.55 4.75 M32.2 12.2 L31.6 12.95 Q29.7 14.9 25.95 17.35 22.0 19.95 19.6 20.65 L11.5 22.15 3.2 22.75 -4.3 23.3 Q-8.35 23.45 -11.55 22.2 -13.15 21.6 -14.9 21.45 L-18.15 21.15 Q-19.65 20.9 -20.95 19.7 L-23.4 17.75 Q-24.25 17.3 -26.45 16.7 -28.25 16.25 -29.4 15.3 L-30.45 14.15 Q-31.05 13.35 -31.55 13.05 L-31.65 14.45 Q-31.8 21.9 -22.15 27.0 -12.8 31.95 0.25 31.95 13.65 31.95 22.4 27.45 31.75 22.65 32.6 14.1 32.65 13.2 32.2 12.2 M28.2 9.9 Q27.85 10.25 27.75 10.8 27.1 10.8 26.65 11.15 26.15 11.45 26.15 11.95 26.15 12.4 26.65 12.75 L27.75 13.05 Q28.9 13.05 29.25 12.3 29.8 12.25 30.2 11.85 30.55 11.45 30.55 10.9 30.55 10.35 30.15 9.95 L30.6 10.0 31.45 9.75 31.8 9.15 Q31.8 8.8 31.45 8.55 31.1 8.3 30.6 8.3 L29.7 8.55 Q29.35 8.8 29.35 9.15 L29.55 9.6 29.15 9.55 Q28.6 9.55 28.2 9.9 M32.85 8.0 L33.15 7.0 32.85 6.0 Q32.5 5.6 32.05 5.6 31.6 5.6 31.3 6.0 30.95 6.4 30.95 7.0 30.95 7.55 31.3 8.0 31.6 8.4 32.05 8.4 32.5 8.4 32.85 8.0 M33.05 -4.1 L31.9 -4.45 30.8 -4.1 Q30.3 -3.8 30.3 -3.3 30.3 -2.85 30.8 -2.5 31.25 -2.15 31.9 -2.15 32.55 -2.15 33.05 -2.5 33.5 -2.85 33.5 -3.3 33.5 -3.8 33.05 -4.1 M34.5 -5.15 Q34.85 -5.5 34.85 -5.95 34.85 -6.45 34.5 -6.75 34.15 -7.1 33.6 -7.1 33.1 -7.1 32.75 -6.75 32.4 -6.45 32.4 -5.95 32.4 -5.5 32.75 -5.15 33.1 -4.8 33.6 -4.8 34.1 -4.8 34.5 -5.15 M20.5 8.65 Q15.15 10.1 3.45 10.55 L-4.4 11.05 Q-8.6 11.2 -11.95 10.05 L-15.4 9.35 -18.85 9.1 Q-20.4 8.85 -21.75 7.8 -23.6 6.35 -24.35 6.0 -25.25 5.55 -27.4 5.05 -29.3 4.6 -30.45 3.85 -26.9 9.2 -18.55 12.55 -9.95 15.95 0.55 15.9 12.15 15.9 21.05 11.95 29.8 8.1 32.55 2.05 30.4 3.85 26.7 5.9 22.85 8.0 20.5 8.65 M23.45 12.4 L21.15 12.75 Q20.2 13.05 20.2 13.55 20.2 14.0 21.15 14.35 L23.45 14.65 25.75 14.35 Q26.7 14.0 26.7 13.55 26.7 13.05 25.75 12.75 24.8 12.4 23.45 12.4 M9.0 7.15 Q10.0 6.8 10.0 6.35 10.0 5.9 9.0 5.6 L6.55 5.25 4.15 5.6 Q3.15 5.9 3.15 6.35 3.15 6.8 4.15 7.15 L6.55 7.45 9.0 7.15 M23.45 0.75 Q22.0 0.75 20.95 1.25 19.95 1.8 19.95 2.5 L19.3 2.7 17.95 2.65 14.5 3.1 Q13.05 3.5 12.95 4.15 L12.45 4.25 12.8 4.55 Q10.85 5.05 10.85 6.05 10.85 6.75 11.9 7.25 12.95 7.75 14.45 7.75 16.6 7.75 17.65 6.8 L18.4 6.85 20.55 6.4 Q21.5 5.95 21.75 5.25 L22.4 4.9 Q23.05 4.8 23.05 4.55 L22.9 4.35 22.95 4.2 23.45 4.2 25.9 3.7 Q26.9 3.2 26.9 2.5 L26.9 2.45 28.05 2.6 Q29.2 2.6 30.05 2.0 30.9 1.4 30.9 0.6 30.9 -0.25 30.05 -0.85 29.2 -1.45 28.05 -1.45 26.9 -1.45 26.05 -0.85 25.25 -0.3 25.2 0.55 L24.5 0.85 23.45 0.75 M30.75 -18.95 L28.3 -22.55 Q24.35 -27.1 17.7 -29.7 9.85 -32.8 -0.75 -32.8 -7.45 -32.8 -13.45 -31.4 -18.25 -30.25 -22.0 -28.25 -27.2 -25.4 -30.0 -21.25 -32.6 -17.3 -32.6 -12.95 -32.6 -6.65 -22.65 -1.7 -12.6 3.25 0.55 3.25 13.55 3.25 23.1 -1.7 32.4 -6.6 32.4 -12.95 32.4 -15.8 30.75 -18.95 M26.8 -27.05 Q35.8 -20.3 35.8 -11.7 L35.6 -9.8 Q37.35 -8.7 37.25 -6.35 37.15 -4.3 35.75 -1.85 L34.1 0.5 Q34.95 1.1 35.3 2.0 36.4 4.9 34.0 9.5 34.8 11.95 34.8 14.5 34.8 22.45 25.1 28.5 15.05 34.8 1.05 34.8 -14.45 34.8 -24.7 28.5 -34.4 22.6 -34.4 14.5 L-34.25 12.2 -34.55 12.0 Q-35.75 10.95 -35.75 9.4 L-35.45 6.7 -35.5 3.75 Q-35.4 1.7 -34.45 1.1 L-34.15 0.95 -35.45 0.15 Q-36.8 -0.9 -37.1 -2.15 L-37.15 -4.45 Q-36.9 -7.1 -35.75 -9.2 L-36.0 -11.35 Q-36.0 -20.2 -27.95 -26.85 -18.25 -34.85 -1.05 -34.85 16.3 -34.85 26.8 -27.05" fill="#607b1e" fill-rule="evenodd" stroke="none"/>
      <path d="M6.7 17.95 L9.0 18.3 Q9.95 18.6 9.95 19.05 9.95 19.5 9.0 19.85 L6.7 20.15 4.4 19.85 Q3.45 19.5 3.45 19.05 3.45 18.6 4.4 18.3 L6.7 17.95" fill="#84c422" fill-rule="evenodd" stroke="none"/>
      <path d="M26.7 13.55 Q26.7 14.0 25.75 14.35 L23.45 14.65 21.15 14.35 Q20.2 14.0 20.2 13.55 20.2 13.05 21.15 12.75 L23.45 12.4 Q24.8 12.4 25.75 12.75 26.7 13.05 26.7 13.55" fill="#84c422" fill-rule="evenodd" stroke="none"/>
      <path d="M27.75 10.8 Q27.85 10.25 28.2 9.9 28.6 9.55 29.15 9.55 L29.55 9.6 29.35 9.15 Q29.35 8.8 29.7 8.55 L30.6 8.3 Q31.1 8.3 31.45 8.55 31.8 8.8 31.8 9.15 L31.45 9.75 30.6 10.0 30.15 9.95 Q30.55 10.35 30.55 10.9 30.55 11.45 30.2 11.85 29.8 12.25 29.25 12.3 28.9 13.05 27.75 13.05 L26.65 12.75 Q26.15 12.4 26.15 11.95 26.15 11.45 26.65 11.15 27.1 10.8 27.75 10.8" fill="#84c422" fill-rule="evenodd" stroke="none"/>
      <path d="M-6.65 16.8 L-3.95 17.25 Q-2.8 17.7 -2.8 18.35 L-2.9 18.7 -2.6 18.65 Q-1.65 18.65 -1.65 19.35 -1.65 20.05 -2.6 20.05 -3.55 20.05 -3.55 19.35 L-3.5 19.25 Q-4.65 19.9 -6.65 19.9 L-9.4 19.45 Q-10.55 19.0 -10.55 18.35 -10.55 17.7 -9.4 17.25 L-6.65 16.8" fill="#84c422" fill-rule="evenodd" stroke="none"/>
      <path d="M32.05 5.6 Q32.5 5.6 32.85 6.0 L33.15 7.0 32.85 8.0 Q32.5 8.4 32.05 8.4 31.6 8.4 31.3 8.0 30.95 7.55 30.95 7.0 30.95 6.4 31.3 6.0 31.6 5.6 32.05 5.6" fill="#84c422" fill-rule="evenodd" stroke="none"/>
      <path d="M-20.5 13.55 Q-19.8 13.05 -18.75 13.05 -17.75 13.05 -17.0 13.55 -16.3 14.05 -16.3 14.75 -16.3 15.45 -17.0 15.9 -17.75 16.4 -18.75 16.4 -19.8 16.4 -20.5 15.9 -21.25 15.45 -21.25 14.75 -21.25 14.05 -20.5 13.55" fill="#84c422" fill-rule="evenodd" stroke="none"/>
      <path d="M22.55 15.05 Q23.45 15.5 23.45 16.15 23.45 16.85 22.3 17.35 L21.55 18.3 Q21.0 18.7 20.3 18.7 19.0 18.7 18.45 17.65 L17.15 17.85 16.75 17.8 16.8 18.0 16.3 18.8 16.35 18.95 Q16.35 19.5 15.55 19.9 L13.6 20.3 Q12.45 20.3 11.65 19.9 10.85 19.5 10.85 18.95 L10.9 18.8 Q10.3 18.5 10.3 18.0 10.3 17.45 11.25 17.0 L13.55 16.6 14.5 16.7 14.5 16.6 Q14.5 16.05 15.3 15.7 L17.15 15.3 17.9 15.4 Q18.7 14.6 20.45 14.6 21.7 14.6 22.55 15.05" fill="#84c422" fill-rule="evenodd" stroke="none"/>
      <path d="M3.45 10.55 Q15.15 10.1 20.5 8.65 22.85 8.0 26.7 5.9 30.4 3.85 32.55 2.05 29.8 8.1 21.05 11.95 12.15 15.9 0.55 15.9 -9.95 15.95 -18.55 12.55 -26.9 9.2 -30.45 3.85 -29.3 4.6 -27.4 5.05 -25.25 5.55 -24.35 6.0 -23.6 6.35 -21.75 7.8 -20.4 8.85 -18.85 9.1 L-15.4 9.35 -11.95 10.05 Q-8.6 11.2 -4.4 11.05 L3.45 10.55 M16.25 12.95 L18.55 12.2 Q19.5 11.7 19.4 11.25 19.35 10.8 18.3 10.65 L15.85 10.75 13.55 11.45 Q12.65 11.95 12.7 12.4 12.8 12.85 13.85 13.0 L16.25 12.95" fill="#b1ee55" fill-rule="evenodd" stroke="none"/>
      <path d="M-13.5 5.95 Q-13.5 4.9 -11.05 4.5 L-6.15 5.0 Q-5.35 5.4 -5.35 5.95 -5.35 6.6 -6.55 7.0 L-9.4 7.45 -12.3 7.0 Q-13.5 6.6 -13.5 5.95" fill="#84c422" fill-rule="evenodd" stroke="none"/>
      <path d="M6.55 7.45 L4.15 7.15 Q3.15 6.8 3.15 6.35 3.15 5.9 4.15 5.6 L6.55 5.25 9.0 5.6 Q10.0 5.9 10.0 6.35 10.0 6.8 9.0 7.15 L6.55 7.45" fill="#84c422" fill-rule="evenodd" stroke="none"/>
      <path d="M20.95 1.25 Q22.0 0.75 23.45 0.75 L24.5 0.85 25.2 0.55 Q25.25 -0.3 26.05 -0.85 26.9 -1.45 28.05 -1.45 29.2 -1.45 30.05 -0.85 30.9 -0.25 30.9 0.6 30.9 1.4 30.05 2.0 29.2 2.6 28.05 2.6 L26.9 2.45 26.9 2.5 Q26.9 3.2 25.9 3.7 L23.45 4.2 22.95 4.2 22.9 4.35 23.05 4.55 Q23.05 4.8 22.4 4.9 L21.75 5.25 Q21.5 5.95 20.55 6.4 L18.4 6.85 17.65 6.8 Q16.6 7.75 14.45 7.75 12.95 7.75 11.9 7.25 10.85 6.75 10.85 6.05 10.85 5.05 12.8 4.55 L12.45 4.25 12.95 4.15 Q13.05 3.5 14.5 3.1 L17.95 2.65 19.3 2.7 19.95 2.5 Q19.95 1.8 20.95 1.25" fill="#84c422" fill-rule="evenodd" stroke="none"/>
      <path d="M-3.7 8.15 L-3.4 7.65 -2.75 7.45 -2.05 7.65 -1.75 8.15 Q-1.75 8.85 -2.75 8.85 -3.7 8.85 -3.7 8.15" fill="#84c422" fill-rule="evenodd" stroke="none"/>
      <path d="M-22.3 3.55 Q-22.3 2.75 -21.35 2.25 L-17.1 3.4 -17.1 3.55 Q-17.1 4.25 -17.85 4.75 -18.6 5.25 -19.7 5.25 -20.8 5.25 -21.55 4.75 -22.3 4.25 -22.3 3.55" fill="#84c422" fill-rule="evenodd" stroke="none"/>
      <path d="M-1.15 5.2 L0.25 5.25 0.55 5.8 0.25 6.4 -0.45 6.65 -1.15 6.4 -1.4 5.8 -1.15 5.2" fill="#84c422" fill-rule="evenodd" stroke="none"/>
      <path d="M1.8 26.65 L-3.85 25.6 Q-6.3 24.8 -3.5 24.7 L12.45 23.45 Q22.3 21.8 27.95 17.65 30.7 15.65 30.3 16.2 L27.85 19.05 Q23.9 23.65 14.0 25.65 6.65 27.15 1.8 26.65" fill="#b1ee55" fill-rule="evenodd" stroke="none"/>
      <path d="M15.85 10.75 L18.3 10.65 Q19.35 10.8 19.4 11.25 19.5 11.7 18.55 12.2 L16.25 12.95 13.85 13.0 Q12.8 12.85 12.7 12.4 12.65 11.95 13.55 11.45 L15.85 10.75" fill="#fffcff" fill-rule="evenodd" stroke="none"/>
      <path d="M31.9 -4.45 L33.05 -4.1 Q33.5 -3.8 33.5 -3.3 33.5 -2.85 33.05 -2.5 32.55 -2.15 31.9 -2.15 31.25 -2.15 30.8 -2.5 30.3 -2.85 30.3 -3.3 30.3 -3.8 30.8 -4.1 L31.9 -4.45" fill="#84c422" fill-rule="evenodd" stroke="none"/>
      <path d="M33.6 -7.1 Q34.15 -7.1 34.5 -6.75 34.85 -6.45 34.85 -5.95 34.85 -5.5 34.5 -5.15 34.1 -4.8 33.6 -4.8 33.1 -4.8 32.75 -5.15 32.4 -5.5 32.4 -5.95 32.4 -6.45 32.75 -6.75 33.1 -7.1 33.6 -7.1" fill="#84c422" fill-rule="evenodd" stroke="none"/>
      <path d="M21.2 -6.6 Q29.2 -11.0 29.4 -17.6 29.45 -20.05 28.3 -22.55 L30.75 -18.95 Q32.4 -15.8 32.4 -12.95 32.4 -6.6 23.1 -1.7 13.55 3.25 0.55 3.25 -12.6 3.25 -22.65 -1.7 -32.6 -6.65 -32.6 -12.95 -32.6 -17.3 -30.0 -21.25 -27.2 -25.4 -22.0 -28.25 -18.25 -30.25 -13.45 -31.4 -18.2 -29.3 -20.95 -26.2 -23.8 -22.95 -23.95 -19.25 -24.15 -12.65 -16.5 -7.75 -8.9 -2.85 2.15 -2.5 13.2 -2.15 21.2 -6.6" fill="#84c422" fill-rule="evenodd" stroke="none"/>
      <path d="M22.9 -19.85 Q22.25 -22.6 18.95 -23.15 16.15 -23.65 11.2 -22.55 6.65 -21.55 4.55 -19.5 2.35 -17.4 3.15 -14.5 3.95 -11.8 7.05 -10.9 L14.0 -10.3 Q18.35 -10.5 21.1 -13.7 23.7 -16.7 22.9 -19.85 M28.3 -22.55 Q29.45 -20.05 29.4 -17.6 29.2 -11.0 21.2 -6.6 13.2 -2.15 2.15 -2.5 -8.9 -2.85 -16.5 -7.75 -24.15 -12.65 -23.95 -19.25 -23.8 -22.95 -20.95 -26.2 -18.2 -29.3 -13.45 -31.4 -7.45 -32.8 -0.75 -32.8 9.85 -32.8 17.7 -29.7 24.35 -27.1 28.3 -22.55" fill="#b1ee55" fill-rule="evenodd" stroke="none"/>
      <path d="M4.55 -19.5 Q6.65 -21.55 11.2 -22.55 16.15 -23.65 18.95 -23.15 22.25 -22.6 22.9 -19.85 23.7 -16.7 21.1 -13.7 18.35 -10.5 14.0 -10.3 L7.05 -10.9 Q3.95 -11.8 3.15 -14.5 2.35 -17.4 4.55 -19.5" fill="#d5f5a3" fill-rule="evenodd" stroke="none"/>
    </g>
  </defs>
</svg>
