<?xml version="1.0" encoding="UTF-8" standalone="no"?>
<svg xmlns:ffdec="https://www.free-decompiler.com/flash" xmlns:xlink="http://www.w3.org/1999/xlink" ffdec:objectType="frame" height="84.15px" width="84.9px" xmlns="http://www.w3.org/2000/svg">
  <g transform="matrix(1.0, 0.0, 0.0, 1.0, 42.45, 84.15)">
    <use ffdec:characterId="809" height="79.95" transform="matrix(1.0, 0.0, 0.0, 1.0, -41.2, -79.95)" width="82.45" xlink:href="#sprite0"/>
  </g>
  <defs>
    <g id="sprite0" transform="matrix(1.0, 0.0, 0.0, 1.0, 41.2, 40.0)">
      <use ffdec:characterId="808" height="79.95" transform="matrix(1.0, 0.0, 0.0, 1.0, -41.2, -40.0)" width="82.45" xlink:href="#shape0"/>
    </g>
    <g id="shape0" transform="matrix(1.0, 0.0, 0.0, 1.0, 41.2, 40.0)">
      <path d="M-17.2 33.25 L-17.7 31.25 -19.25 26.2 -21.55 19.25 -21.75 18.8 Q-17.65 23.45 -13.8 23.25 -11.8 23.25 -9.6 22.15 L-7.0 22.25 Q-6.75 22.35 -5.45 23.0 L-3.65 23.7 Q-2.0 24.35 0.25 23.4 1.6 22.95 3.6 21.6 5.85 20.1 6.9 19.6 8.5 19.45 10.6 20.4 13.35 21.75 14.1 21.9 17.1 22.4 21.45 20.65 L22.2 20.3 22.2 20.4 17.9 34.35 15.5 35.3 Q10.7 36.8 4.8 37.35 L-0.1 37.55 -4.9 37.4 Q-11.55 36.95 -15.15 35.05 -16.4 34.35 -17.05 33.5 L-17.2 33.25" fill="#a1a6b4" fill-rule="evenodd" stroke="none"/>
      <path d="M27.75 -31.1 Q34.2 -27.35 36.8 -21.25 39.2 -15.9 38.05 -8.6 37.2 -3.0 34.7 1.7 32.6 5.6 30.4 7.25 L28.65 8.45 27.8 8.9 27.55 9.0 26.7 10.35 26.7 11.0 Q26.65 12.65 25.65 14.3 L24.25 16.0 23.75 16.0 23.4 16.85 20.55 18.8 Q16.8 20.8 14.25 20.75 L10.8 19.85 6.9 19.6 Q5.65 19.95 3.25 21.05 L-0.1 22.3 -3.1 22.1 -6.1 20.4 Q-7.0 19.8 -8.15 19.65 -9.55 19.5 -10.55 20.0 -12.4 20.7 -13.8 20.65 -15.35 20.65 -16.9 19.55 -18.15 18.65 -20.0 16.55 L-20.65 15.95 Q-21.15 15.5 -22.2 15.35 L-23.85 15.25 Q-26.4 15.15 -26.7 14.4 L-26.95 12.7 -26.85 9.95 -27.85 8.6 -27.85 8.55 Q-29.6 7.9 -31.8 5.15 -36.05 -0.15 -37.85 -6.3 -38.3 -7.75 -38.4 -9.5 -38.4 -10.6 -37.8 -12.65 -36.75 -16.1 -35.25 -19.2 -31.95 -26.1 -27.6 -29.95 -25.75 -31.65 -22.7 -32.95 L-17.7 -34.9 Q-13.8 -36.25 -10.1 -36.85 L-7.2 -37.15 -4.3 -37.2 3.7 -36.6 15.25 -35.4 Q22.6 -34.15 27.75 -31.1" fill="#f6c5e5" fill-rule="evenodd" stroke="none"/>
      <path d="M36.8 -21.25 Q34.2 -27.35 27.75 -31.1 22.6 -34.15 15.25 -35.4 L3.7 -36.6 -4.3 -37.2 -7.2 -37.15 -10.1 -36.85 Q-13.8 -36.25 -17.7 -34.9 L-22.7 -32.95 Q-25.75 -31.65 -27.6 -29.95 -31.95 -26.1 -35.25 -19.2 -36.75 -16.1 -37.8 -12.65 -38.4 -10.6 -38.4 -9.5 -38.3 -7.75 -37.85 -6.3 -36.05 -0.15 -31.8 5.15 -29.6 7.9 -27.85 8.55 L-27.85 8.6 -26.85 9.95 -26.95 12.7 -26.7 14.4 Q-26.4 15.15 -23.85 15.25 L-22.2 15.35 Q-21.15 15.5 -20.65 15.95 L-20.0 16.55 Q-18.15 18.65 -16.9 19.55 -15.35 20.65 -13.8 20.65 -12.4 20.7 -10.55 20.0 -9.55 19.5 -8.15 19.65 -7.0 19.8 -6.1 20.4 L-3.1 22.1 -0.1 22.3 3.25 21.05 Q5.65 19.95 6.9 19.6 5.85 20.1 3.6 21.6 1.6 22.95 0.25 23.4 -2.0 24.35 -3.65 23.7 L-5.45 23.0 Q-6.75 22.35 -7.0 22.25 L-9.6 22.15 Q-11.8 23.25 -13.8 23.25 -17.65 23.45 -21.75 18.8 L-21.55 19.25 -19.25 26.2 -17.7 31.25 -17.2 33.25 -17.05 33.5 Q-16.4 34.35 -15.15 35.05 -11.55 36.95 -4.9 37.4 L-0.1 37.55 4.8 37.35 Q10.7 36.8 15.5 35.3 L17.9 34.35 22.2 20.4 22.2 20.3 21.45 20.65 Q17.1 22.4 14.1 21.9 13.35 21.75 10.6 20.4 8.5 19.45 6.9 19.6 L10.8 19.85 14.25 20.75 Q16.8 20.8 20.55 18.8 L23.4 16.85 23.75 16.0 24.25 16.0 25.65 14.3 Q26.65 12.65 26.7 11.0 L26.7 10.35 27.55 9.0 27.8 8.9 28.65 8.45 30.4 7.25 Q32.6 5.6 34.7 1.7 37.2 -3.0 38.05 -8.6 39.2 -15.9 36.8 -21.25 M29.15 -33.5 Q36.4 -29.35 39.4 -22.35 42.2 -16.15 40.8 -8.2 39.9 -2.1 37.15 3.0 34.85 7.4 32.2 9.4 L30.0 10.85 29.4 11.15 Q29.25 13.55 27.8 15.7 L25.7 18.05 20.65 34.95 20.45 35.45 19.8 36.2 19.75 36.25 19.65 36.25 16.55 37.55 Q11.3 39.15 5.05 39.7 L-0.05 39.95 -5.15 39.8 -10.55 39.1 Q-14.0 38.45 -16.7 37.05 -18.55 35.95 -19.45 34.75 L-19.95 33.7 -24.9 17.95 -26.9 17.55 Q-28.15 17.05 -29.1 15.85 -29.75 14.8 -29.75 12.6 L-29.65 10.8 -32.0 9.05 -33.95 6.95 Q-38.6 1.15 -40.6 -5.55 -41.1 -7.4 -41.2 -9.45 -41.2 -11.15 -40.5 -13.45 -39.35 -17.2 -37.8 -20.4 -34.2 -27.8 -29.5 -32.05 -27.2 -34.1 -23.85 -35.55 L-18.6 -37.55 Q-14.55 -38.95 -10.5 -39.6 L-7.4 -39.95 -4.2 -39.95 3.9 -39.4 15.7 -38.15 Q23.5 -36.85 29.15 -33.5" fill="#c28bb4" fill-rule="evenodd" stroke="none"/>
      <path d="M1.2 -20.45 Q-4.05 -20.9 -7.6 -22.2 -11.3 -23.5 -11.4 -25.1 L-11.4 -24.85 Q-11.65 -29.5 -4.6 -31.75 1.05 -33.55 6.1 -32.9 9.7 -32.45 13.1 -30.1 17.4 -27.05 15.85 -23.55 14.0 -19.4 1.2 -20.45" fill="#c28bb4" fill-rule="evenodd" stroke="none"/>
      <path d="M7.8 -24.0 Q3.1 -19.6 -7.55 -23.55 -10.5 -23.55 -10.3 -26.2 -10.1 -28.8 -7.3 -31.85 -4.3 -35.15 -0.75 -35.95 3.5 -36.9 6.8 -33.65 9.3 -31.2 9.5 -28.5 9.75 -25.85 7.8 -24.0" fill="#cd4246" fill-rule="evenodd" stroke="none"/>
      <path d="M3.35 -30.8 Q3.35 -29.5 2.45 -28.6 1.55 -27.7 0.3 -27.7 -0.95 -27.7 -1.9 -28.6 -2.8 -29.5 -2.8 -30.8 -2.8 -32.05 -1.9 -32.95 -1.0 -33.85 0.3 -33.85 1.6 -33.85 2.45 -32.95 3.35 -32.05 3.35 -30.8" fill="#ffffff" fill-rule="evenodd" stroke="none"/>
      <path d="M8.8 24.65 L10.3 24.7 7.7 36.2 8.8 24.65 M3.7 36.0 L3.25 25.15 6.35 25.1 3.7 36.0 M-2.05 36.45 L-2.05 25.2 1.3 36.2 -2.05 36.45 M-8.25 36.2 L-11.4 35.5 -14.75 22.85 -8.25 36.2 M-3.75 36.45 L-6.85 36.2 -7.8 23.55 -3.75 36.45 M-16.15 33.1 L-20.0 21.4 -12.8 35.25 -16.15 33.1 M-29.65 -12.65 L-29.45 -12.5 -29.3 -12.3 -29.65 -12.65 M-29.4 -19.2 Q-27.85 -21.15 -26.8 -21.35 -25.3 -21.6 -25.0 -21.0 L-24.3 -19.45 Q-22.25 -17.35 -17.7 -16.15 L-9.95 -14.2 -6.2 -13.25 Q-3.45 -12.4 -3.45 -11.25 -3.5 -9.6 -6.45 -9.25 L-10.65 -9.1 Q-21.55 -8.05 -27.55 -11.15 -28.4 -11.55 -29.45 -12.5 -32.35 -15.7 -29.4 -19.2 M1.15 -8.7 Q-0.85 -10.4 -0.35 -11.9 0.05 -13.15 2.0 -13.85 L5.9 -14.2 Q8.0 -13.9 8.8 -12.7 10.8 -9.65 6.55 -8.05 2.25 -6.4 0.45 -9.1 L1.15 -8.7" fill="#ffffff" fill-rule="evenodd" stroke="none"/>
    </g>
  </defs>
</svg>
