<?xml version="1.0" encoding="UTF-8" standalone="no"?>
<svg xmlns:ffdec="https://www.free-decompiler.com/flash" xmlns:xlink="http://www.w3.org/1999/xlink" ffdec:objectType="frame" height="84.15px" width="84.9px" xmlns="http://www.w3.org/2000/svg">
  <g transform="matrix(1.0, 0.0, 0.0, 1.0, 42.45, 84.15)">
    <use ffdec:characterId="779" height="81.6" transform="matrix(1.0, 0.0, 0.0, 1.0, -40.0, -81.6)" width="80.0" xlink:href="#sprite0"/>
  </g>
  <defs>
    <g id="sprite0" transform="matrix(1.0, 0.0, 0.0, 1.0, 40.0, 40.8)">
      <use ffdec:characterId="778" height="81.6" transform="matrix(1.0, 0.0, 0.0, 1.0, -40.0, -40.8)" width="80.0" xlink:href="#shape0"/>
    </g>
    <g id="shape0" transform="matrix(1.0, 0.0, 0.0, 1.0, 40.0, 40.8)">
      <path d="M-5.25 25.7 Q-7.8 30.85 -4.8 34.9 -9.0 31.8 -8.2 27.25 -8.35 23.65 -8.9 20.55 -9.5 17.25 -10.25 15.3 L-10.8 14.1 Q-8.85 6.65 -1.3 3.35 6.05 0.15 11.75 3.7 13.65 5.0 15.0 10.1 L16.75 18.7 Q11.95 13.9 4.25 17.35 -2.55 20.35 -5.25 25.7 M5.1 -35.1 Q13.85 -32.35 18.75 -24.3 8.5 -25.75 -2.0 -23.05 -12.0 -20.45 -21.25 -14.3 -28.8 -8.35 -32.45 -2.45 -37.35 5.5 -34.55 12.65 -35.4 11.3 -35.8 9.8 -38.15 4.65 -35.4 -6.95 -32.15 -20.8 -23.1 -28.6 -18.4 -33.1 -12.2 -35.4 -2.8 -37.65 5.1 -35.1" fill="#f6fce5" fill-rule="evenodd" stroke="none"/>
      <path d="M11.45 -7.3 Q5.55 -7.8 1.0 -6.45 -2.65 -5.35 -7.25 -2.3 L-9.55 -0.45 Q-13.85 1.55 -15.45 6.65 L-16.1 8.9 -16.4 10.1 -15.8 11.95 -15.5 12.25 Q-14.25 13.7 -13.2 16.45 L-12.6 18.2 Q-18.2 17.7 -21.95 15.6 -25.85 13.45 -26.95 10.0 -28.95 3.8 -22.0 -3.3 -15.05 -10.35 -3.25 -14.15 8.55 -17.95 18.35 -16.3 28.1 -14.6 30.1 -8.4 31.15 -5.1 29.55 -1.35 28.0 2.3 24.2 5.8 L23.55 3.4 23.5 1.6 Q23.4 0.25 23.0 -0.25 L22.4 -1.15 Q20.1 -4.4 16.35 -6.0 L11.45 -7.3" fill="#796e53" fill-rule="evenodd" stroke="none"/>
      <path d="M-4.8 34.9 Q-7.8 30.85 -5.25 25.7 -2.55 20.35 4.25 17.35 11.95 13.9 16.75 18.7 L15.05 10.35 Q13.8 5.35 12.0 3.9 19.5 8.15 24.55 13.9 L26.05 16.4 Q28.8 19.8 28.6 23.45 28.45 26.45 26.45 29.15 L23.2 32.3 21.75 33.3 Q19.6 34.75 15.8 36.0 8.25 38.45 1.1 37.25 -2.3 36.7 -4.8 34.9 M10.35 -36.25 Q13.8 -35.2 17.35 -33.55 28.3 -28.45 34.5 -19.45 38.2 -14.55 36.2 -7.9 34.55 -2.35 29.85 2.3 26.35 6.0 22.1 9.1 L21.75 8.35 Q20.95 6.45 20.45 3.8 L20.4 1.55 19.85 0.65 Q17.15 -3.2 11.0 -4.2 5.7 -4.65 1.5 -4.2 -2.25 -3.75 -7.25 -2.3 -2.65 -5.35 1.0 -6.45 5.55 -7.8 11.45 -7.3 L16.35 -6.0 Q20.1 -4.4 22.4 -1.15 L23.0 -0.25 Q23.4 0.25 23.5 1.6 L23.55 3.4 24.2 5.8 Q28.0 2.3 29.55 -1.35 31.15 -5.1 30.1 -8.4 28.1 -14.6 18.35 -16.3 8.55 -17.95 -3.25 -14.15 -15.05 -10.35 -22.0 -3.3 -28.95 3.8 -26.95 10.0 -25.85 13.45 -21.95 15.6 -18.2 17.7 -12.6 18.2 L-13.2 16.45 Q-14.25 13.7 -15.5 12.25 L-15.8 11.95 -16.4 10.1 -16.1 8.9 -15.45 6.65 Q-13.85 1.55 -9.55 -0.45 -12.55 2.35 -13.25 7.25 L-13.6 10.05 -13.4 10.3 Q-11.6 12.05 -10.25 15.3 -9.5 17.25 -8.9 20.55 L-12.6 21.0 -19.55 19.8 -25.95 18.4 Q-32.1 16.5 -34.55 12.65 -37.35 5.5 -32.45 -2.45 -28.8 -8.35 -21.25 -14.3 -12.0 -20.45 -2.0 -23.05 8.5 -25.75 18.75 -24.3 13.85 -32.35 5.1 -35.1 -2.8 -37.65 -12.2 -35.4 -5.85 -37.75 1.25 -37.6 L7.35 -36.9 10.35 -36.25" fill="#c9d1ae" fill-rule="evenodd" stroke="none"/>
      <path d="M11.75 3.7 L9.95 2.8 Q4.15 0.55 -2.3 3.85 -9.0 7.25 -10.8 14.1 L-10.25 15.3 Q-9.5 17.25 -8.9 20.55 L-8.85 20.9 Q-8.25 23.95 -8.2 27.25 -8.9 31.0 -5.95 33.9 -3.25 36.6 1.1 37.25 8.25 38.45 15.8 36.0 19.6 34.75 21.75 33.3 L23.2 32.3 26.45 29.15 Q28.45 26.45 28.6 23.45 28.8 19.8 26.05 16.4 L24.5 13.8 24.55 13.9 Q19.5 8.15 12.0 3.9 L11.75 3.7 M10.8 -39.35 Q14.55 -38.3 18.25 -36.6 30.2 -31.15 37.15 -21.15 39.25 -18.2 39.8 -14.3 40.4 -10.35 39.25 -6.9 37.4 -1.3 32.15 4.45 29.45 7.35 26.05 10.05 L28.75 14.8 Q32.15 20.05 31.75 23.55 31.55 27.7 28.95 31.05 27.2 33.3 25.05 34.85 L23.4 35.95 Q20.95 37.6 16.8 38.95 8.5 41.7 0.55 40.35 -4.3 40.0 -8.2 36.05 -12.25 31.9 -11.3 27.45 -11.65 19.9 -13.2 16.45 -14.25 13.7 -15.5 12.25 L-15.8 11.95 -16.4 10.1 -16.1 8.9 -15.45 6.65 Q-13.85 1.55 -9.55 -0.45 L-7.25 -2.3 Q-2.65 -5.35 1.0 -6.45 5.55 -7.8 11.45 -7.3 L16.35 -6.0 Q20.1 -4.4 22.4 -1.15 L23.0 -0.25 Q23.4 0.25 23.5 1.6 L23.55 3.4 Q24.25 6.2 24.65 7.15 L29.85 2.3 Q34.55 -2.35 36.2 -7.9 38.2 -14.55 34.5 -19.45 28.2 -28.6 16.95 -33.75 13.45 -35.4 10.0 -36.35 L7.35 -36.9 Q3.4 -38.0 -2.65 -37.5 -14.75 -36.55 -23.1 -28.6 -32.15 -20.8 -35.4 -6.95 -38.15 4.65 -35.8 9.8 -34.75 13.4 -31.8 15.6 -29.65 17.25 -25.95 18.4 L-19.55 19.8 -12.6 21.0 -19.65 21.15 -26.45 20.6 Q-30.4 20.05 -33.5 17.95 -37.45 15.3 -38.8 10.75 -41.35 4.45 -38.5 -7.7 -35.0 -22.25 -25.2 -30.95 -20.3 -35.45 -13.9 -38.05 -8.15 -40.4 -2.8 -40.7 L5.1 -40.45 8.0 -39.95 10.8 -39.35" fill="#969c7e" fill-rule="evenodd" stroke="none"/>
    </g>
  </defs>
</svg>
