<?xml version="1.0" encoding="UTF-8" standalone="no"?>
<svg xmlns:ffdec="https://www.free-decompiler.com/flash" xmlns:xlink="http://www.w3.org/1999/xlink" ffdec:objectType="frame" height="85.5px" width="85.45px" xmlns="http://www.w3.org/2000/svg">
  <g transform="matrix(1.0, 0.0, 0.0, 1.0, 42.75, 85.5)">
    <use ffdec:characterId="842" height="77.35" transform="matrix(1.0, 0.0, 0.0, 1.0, -42.5, -77.35)" width="85.0" xlink:href="#sprite0"/>
  </g>
  <defs>
    <g id="sprite0" transform="matrix(1.0, 0.0, 0.0, 1.0, 42.5, 38.7)">
      <use ffdec:characterId="841" height="77.35" transform="matrix(1.0, 0.0, 0.0, 1.0, -42.5, -38.7)" width="85.0" xlink:href="#shape0"/>
    </g>
    <g id="shape0" transform="matrix(1.0, 0.0, 0.0, 1.0, 42.5, 38.7)">
      <path d="M18.8 -12.4 L18.8 -9.45 Q18.75 3.1 17.8 15.05 24.6 16.5 28.05 9.8 30.25 5.65 31.25 -2.45 31.55 -5.95 29.3 -8.7 27.6 -10.7 25.6 -11.4 22.1 -12.95 18.8 -12.4 M31.75 -19.15 Q26.55 -21.5 21.95 -20.9 16.9 -20.2 13.7 -15.9 14.35 -17.75 15.6 -19.4 15.85 -26.15 8.55 -30.75 2.05 -34.85 -8.1 -35.95 -18.05 -37.0 -26.2 -34.65 -35.05 -32.1 -37.6 -26.55 -40.85 -19.35 -40.5 1.7 -40.1 23.3 -35.95 27.45 -32.6 31.4 -24.6 33.75 -16.85 36.05 -8.1 35.95 1.15 35.75 7.65 32.85 14.95 29.6 16.8 23.55 13.45 22.3 12.25 20.8 10.8 18.9 11.2 15.2 15.65 11.85 13.45 13.55 L16.6 14.75 Q15.65 3.0 15.65 -11.25 14.35 -10.4 13.45 -9.2 L12.0 -9.7 13.7 -15.9 13.65 -12.4 Q16.0 -14.95 19.85 -15.4 23.45 -15.8 26.9 -14.25 29.45 -13.4 31.7 -10.7 34.8 -7.0 34.35 -2.2 33.25 4.85 32.4 7.55 30.5 13.4 26.3 16.65 L20.45 17.1 Q13.95 17.75 14.55 18.8 18.6 26.0 27.2 20.1 30.5 17.85 33.3 14.35 35.95 11.05 36.6 8.55 40.1 -4.1 38.95 -10.0 38.05 -13.5 35.6 -16.2 33.8 -18.1 31.75 -19.15 M42.0 -10.75 Q43.0 -4.85 41.95 1.9 40.8 8.95 37.8 14.45 30.35 27.8 17.15 23.7 15.6 36.75 -4.2 38.45 L-20.15 37.75 Q-27.85 36.5 -32.35 34.15 -41.8 29.25 -42.45 12.5 -42.7 7.25 -42.05 -1.45 -41.35 -11.15 -41.35 -13.65 -41.35 -23.45 -40.25 -26.65 -38.25 -32.65 -30.8 -35.5 -19.7 -39.7 -5.95 -38.4 9.4 -36.95 16.8 -29.0 18.85 -26.25 18.85 -22.2 25.55 -26.1 33.05 -22.0 40.15 -18.1 42.0 -10.75" fill="#1d4c6e" fill-rule="evenodd" stroke="none"/>
      <path d="M10.95 -26.0 Q10.95 -29.4 4.3 -31.75 -2.35 -34.15 -11.8 -34.15 L-19.25 -33.7 Q-26.05 -32.8 -30.25 -30.75 -34.55 -28.6 -34.55 -26.0 -34.55 -22.65 -27.9 -20.25 -21.25 -17.9 -11.8 -17.9 L-9.15 -17.95 Q-0.65 -18.3 5.15 -20.6 10.95 -22.9 10.95 -26.0 M3.55 -33.2 Q11.25 -30.2 14.1 -25.25 14.1 -24.35 13.7 -23.65 11.55 -21.0 5.6 -18.9 0.15 -17.0 -0.3 -15.65 -2.6 -12.0 -2.75 -6.75 -2.8 -3.85 -1.9 3.0 -1.05 9.45 -1.3 12.9 -1.6 18.35 -4.3 22.35 -9.9 31.45 -21.65 29.4 -32.5 27.45 -39.1 18.6 -40.9 8.25 -40.45 -6.5 -39.95 -21.35 -37.6 -26.55 -35.35 -31.5 -28.0 -34.1 -21.25 -36.5 -12.4 -36.25 -3.55 -36.0 3.55 -33.2 M26.9 -14.25 Q23.45 -15.8 19.85 -15.4 16.0 -14.95 13.65 -12.4 L13.7 -15.9 Q16.9 -20.2 21.95 -20.9 26.55 -21.5 31.75 -19.15 33.55 -18.2 35.1 -16.7 L34.7 -14.65 30.7 -14.65 Q36.1 -10.6 36.35 -2.4 36.5 3.9 33.7 11.35 30.95 16.9 25.6 18.85 20.9 20.6 14.9 19.35 L14.55 18.8 Q13.95 17.75 20.45 17.1 L26.3 16.65 Q30.5 13.4 32.4 7.55 33.25 4.85 34.35 -2.2 34.8 -7.0 31.7 -10.7 29.45 -13.4 26.9 -14.25" fill="#5999ff" fill-rule="evenodd" stroke="none"/>
      <path d="M15.6 -19.4 Q14.35 -17.75 13.7 -15.9 L12.0 -9.7 13.45 -9.2 Q14.35 -10.4 15.65 -11.25 15.65 3.0 16.6 14.75 L13.45 13.55 Q15.65 11.85 11.2 15.2 10.8 18.9 12.25 20.8 13.45 22.3 16.8 23.55 14.95 29.6 7.65 32.85 1.15 35.75 -8.1 35.95 -16.85 36.05 -24.6 33.75 -32.6 31.4 -35.95 27.45 -37.9 25.5 -39.1 18.6 -32.5 27.45 -21.65 29.4 -9.9 31.45 -4.3 22.35 -1.6 18.35 -1.3 12.9 -1.05 9.45 -1.9 3.0 -2.8 -3.85 -2.75 -6.75 -2.6 -12.0 -0.3 -15.65 0.15 -17.0 5.6 -18.9 11.55 -21.0 13.7 -23.65 14.1 -24.35 14.1 -25.25 15.7 -22.6 15.6 -19.4 M34.7 -14.65 L35.1 -16.7 Q38.0 -13.8 38.95 -10.0 40.1 -4.1 36.6 8.55 35.95 11.0 33.35 14.25 30.7 17.65 27.45 19.95 19.1 25.85 14.9 19.35 20.9 20.6 25.6 18.85 30.95 16.9 33.7 11.35 36.5 3.9 36.35 -2.4 36.1 -10.6 30.7 -14.65 L34.7 -14.65" fill="#4480c0" fill-rule="evenodd" stroke="none"/>
      <path d="M-19.25 -33.7 Q-20.45 -31.75 -20.1 -29.1 -19.8 -26.65 -18.3 -24.65 -14.35 -20.7 -9.15 -17.95 L-11.8 -17.9 Q-21.25 -17.9 -27.9 -20.25 -34.55 -22.65 -34.55 -26.0 -34.55 -28.6 -30.25 -30.75 -26.05 -32.8 -19.25 -33.7" fill="#cecbb0" fill-rule="evenodd" stroke="none"/>
      <path d="M4.3 -31.75 Q10.95 -29.4 10.95 -26.0 10.95 -22.9 5.15 -20.6 -0.65 -18.3 -9.15 -17.95 -14.35 -20.7 -18.3 -24.65 -19.8 -26.65 -20.1 -29.1 -20.45 -31.75 -19.25 -33.7 L-11.8 -34.15 Q-2.35 -34.15 4.3 -31.75" fill="#edecd8" fill-rule="evenodd" stroke="none"/>
    </g>
  </defs>
</svg>
