<?xml version="1.0" encoding="UTF-8" standalone="no"?>
<svg xmlns:ffdec="https://www.free-decompiler.com/flash" xmlns:xlink="http://www.w3.org/1999/xlink" ffdec:objectType="frame" height="85.5px" width="85.45px" xmlns="http://www.w3.org/2000/svg">
  <g transform="matrix(1.0, 0.0, 0.0, 1.0, 42.75, 85.5)">
    <use ffdec:characterId="942" height="71.0" transform="matrix(1.0, 0.0, 0.0, 1.0, -41.15, -71.0)" width="82.3" xlink:href="#sprite0"/>
  </g>
  <defs>
    <g id="sprite0" transform="matrix(1.0, 0.0, 0.0, 1.0, 41.15, 35.5)">
      <use ffdec:characterId="941" height="71.0" transform="matrix(1.0, 0.0, 0.0, 1.0, -41.15, -35.5)" width="82.3" xlink:href="#shape0"/>
    </g>
    <g id="shape0" transform="matrix(1.0, 0.0, 0.0, 1.0, 41.15, 35.5)">
      <path d="M7.9 -28.15 L30.45 -25.85 23.7 -21.2 Q1.6 -25.75 -20.9 -28.25 L-14.0 -31.1 Q-5.25 -29.55 7.9 -28.15" fill="#a99154" fill-rule="evenodd" stroke="none"/>
      <path d="M30.15 -31.55 L37.95 -31.05 30.45 -25.85 7.9 -28.15 Q-5.25 -29.55 -14.0 -31.1 L-4.1 -35.5 12.1 -33.2 30.15 -31.55 M23.7 -21.2 L14.6 -15.0 -36.7 -22.35 -36.05 -22.55 Q-27.75 -25.5 -20.9 -28.25 1.6 -25.75 23.7 -21.2" fill="#eddac5" fill-rule="evenodd" stroke="none"/>
      <path d="M-37.9 -21.9 L-36.7 -22.35 14.6 -15.0 11.1 32.25 10.8 32.15 -34.6 21.25 -37.9 -21.9" fill="#c6b095" fill-rule="evenodd" stroke="none"/>
      <path d="M21.25 25.4 L22.25 14.75 28.4 10.15 27.25 20.75 21.25 25.4 M23.75 -21.25 L30.45 -25.85 29.25 -14.85 24.9 -11.5 23.15 -10.35 Q23.05 -12.75 23.75 -21.25" fill="#796335" fill-rule="evenodd" stroke="none"/>
      <path d="M33.55 14.7 L34.8 14.75 27.35 20.35 27.3 20.4 27.4 19.5 33.55 14.7 M37.95 -31.05 L38.2 -31.0 38.2 -30.95 34.9 14.1 34.9 14.45 33.5 13.3 27.6 17.6 28.4 10.15 22.25 14.75 21.55 22.0 14.7 27.0 12.2 30.85 14.9 28.5 21.4 24.0 21.3 24.95 11.55 32.3 11.1 32.25 14.6 -15.0 23.75 -21.25 23.45 -17.45 17.9 -13.8 16.2 -14.15 17.7 -11.65 23.3 -15.75 23.15 -10.35 24.9 -11.5 29.25 -14.85 29.85 -20.6 35.4 -24.65 36.7 -27.65 35.2 -26.0 30.05 -22.15 30.45 -25.85 37.95 -31.05" fill="#9f876f" fill-rule="evenodd" stroke="none"/>
      <path d="M21.55 22.0 L21.4 24.0 14.9 28.5 12.2 30.85 14.7 27.0 21.55 22.0 M23.45 -17.45 L23.3 -15.75 17.7 -11.65 16.2 -14.15 17.9 -13.8 23.45 -17.45 M29.85 -20.6 L30.05 -22.15 35.2 -26.0 36.7 -27.65 35.4 -24.65 29.85 -20.6 M38.2 -30.95 L38.2 -31.0 30.15 -31.55 12.1 -33.2 -4.1 -35.5 22.65 -34.45 41.15 -33.25 36.9 15.75 13.05 35.1 10.8 35.45 10.1 35.2 -36.3 24.1 -36.4 24.05 Q-35.35 25.3 -37.65 22.65 L-37.65 22.3 -41.1 -22.45 -41.1 -22.7 -41.15 -22.8 -41.15 -22.85 -40.1 -24.45 -40.05 -24.45 -40.0 -24.5 -37.1 -25.5 -19.85 -31.15 -4.1 -35.5 Q-13.05 -31.45 -19.1 -28.95 -26.55 -25.95 -36.05 -22.55 L-37.9 -21.9 -34.6 21.25 10.8 32.15 11.55 32.3 34.8 14.75 33.55 14.7 27.4 19.5 27.6 17.6 33.5 13.3 34.9 14.45 38.2 -30.95" fill="#5f5041" fill-rule="evenodd" stroke="none"/>
    </g>
  </defs>
</svg>
