<?xml version="1.0" encoding="UTF-8" standalone="no"?>
<svg xmlns:ffdec="https://www.free-decompiler.com/flash" xmlns:xlink="http://www.w3.org/1999/xlink" ffdec:objectType="frame" height="85.5px" width="85.45px" xmlns="http://www.w3.org/2000/svg">
  <g transform="matrix(1.0, 0.0, 0.0, 1.0, 42.75, 85.5)">
    <use ffdec:characterId="944" height="72.8" transform="matrix(1.0, 0.0, 0.0, 1.0, -42.75, -72.8)" width="85.45" xlink:href="#sprite0"/>
  </g>
  <defs>
    <g id="sprite0" transform="matrix(1.0, 0.0, 0.0, 1.0, 42.7, 36.4)">
      <use ffdec:characterId="943" height="72.8" transform="matrix(1.0, 0.0, 0.0, 1.0, -42.7, -36.4)" width="85.45" xlink:href="#shape0"/>
    </g>
    <g id="shape0" transform="matrix(1.0, 0.0, 0.0, 1.0, 42.7, 36.4)">
      <path d="M-19.6 -2.3 Q-16.45 3.85 -15.75 9.3 -14.85 16.3 -18.2 21.25 L-18.65 20.9 -23.8 15.95 Q-24.75 7.85 -25.45 -2.85 L-19.6 -2.3 M-34.25 10.5 Q-40.05 1.8 -40.1 -3.8 -39.5 -2.6 -38.3 -1.5 L-36.05 0.35 Q-36.7 4.95 -34.25 10.5 M2.25 -6.65 Q6.75 1.3 6.75 10.4 6.7 19.3 2.35 25.8 0.0 31.25 -7.9 33.1 -16.0 32.1 -20.3 27.0 L-17.15 28.45 -15.75 29.05 Q-14.8 28.1 -15.0 26.7 -9.75 21.4 -10.15 11.85 -10.4 5.05 -13.7 -4.6 L-13.7 -6.8 -14.25 -7.85 Q-10.65 -6.15 -6.2 -5.9 -2.15 -5.65 2.25 -6.65 M31.35 -22.4 L29.85 -21.35 26.35 -13.6 Q25.8 -17.35 23.55 -20.1 L26.85 -24.0 27.15 -25.45 Q29.65 -25.1 31.35 -22.4" fill="#5cb866" fill-rule="evenodd" stroke="none"/>
      <path d="M-40.1 -3.8 Q-40.2 -9.95 -33.25 -10.75 -27.25 -11.25 -26.15 -12.0 L-22.0 -9.3 Q-25.3 -9.8 -28.5 -8.7 -31.7 -7.55 -33.65 -5.2 -35.55 -2.85 -36.05 0.35 L-38.3 -1.5 Q-39.5 -2.6 -40.1 -3.8 M9.2 -13.15 Q14.9 -16.35 14.9 -20.9 14.9 -25.4 9.2 -28.6 3.45 -31.8 -4.6 -31.8 -12.7 -31.8 -18.4 -28.6 -24.1 -25.4 -24.1 -20.9 -24.1 -16.35 -18.4 -13.15 -12.7 -9.95 -4.6 -9.95 3.45 -9.95 9.2 -13.15 M11.6 -30.2 Q16.2 -26.75 16.9 -20.0 L16.25 -17.0 15.35 -14.2 Q13.65 -11.9 11.45 -10.45 9.85 -9.1 7.25 -8.2 L2.2 -6.75 2.25 -6.65 Q-2.15 -5.65 -6.2 -5.9 -10.65 -6.15 -14.25 -7.85 L-14.55 -8.4 -14.45 -8.15 -24.7 -14.8 -26.2 -15.05 Q-26.3 -20.45 -25.15 -23.1 -23.15 -26.85 -19.05 -29.2 -16.85 -30.5 -13.45 -31.5 -5.75 -33.2 -0.3 -32.95 5.35 -32.7 11.6 -30.2 M39.4 -26.2 Q39.65 -25.05 39.55 -23.85 38.15 -23.1 35.6 -22.7 L31.45 -22.25 31.35 -22.4 Q29.65 -25.1 27.15 -25.45 27.3 -26.85 27.05 -29.0 L26.55 -32.55 Q28.05 -33.3 29.75 -33.3 33.3 -33.3 36.25 -30.95 39.0 -28.75 39.4 -26.2" fill="#91e593" fill-rule="evenodd" stroke="none"/>
      <path d="M-34.25 10.5 Q-36.2 6.0 -36.2 2.2 -36.15 -2.15 -33.65 -5.2 -31.7 -7.55 -28.5 -8.7 -25.3 -9.8 -22.0 -9.3 L-16.85 -6.0 -16.85 -4.8 Q-25.05 -7.3 -28.7 -5.45 -30.65 -4.75 -32.05 -3.15 -33.5 -1.5 -33.55 0.35 -34.0 6.1 -30.75 11.85 -28.05 16.05 -24.45 18.65 -21.45 20.8 -16.2 22.9 L-18.2 21.25 Q-14.85 16.3 -15.75 9.3 -16.45 3.85 -19.6 -2.3 -17.9 -2.0 -15.85 -1.2 L-13.7 -2.7 -13.7 -4.6 Q-10.4 5.05 -10.15 11.85 -9.75 21.4 -15.0 26.7 L-15.3 24.8 -15.6 26.2 -15.75 27.4 -24.85 20.5 -25.15 20.3 -28.15 17.85 Q-30.8 15.55 -34.25 10.5 M14.9 -20.9 Q14.9 -16.35 9.2 -13.15 3.45 -9.95 -4.6 -9.95 L-9.0 -10.25 Q-11.65 -19.15 -11.05 -23.8 -10.15 -30.35 -3.1 -31.75 4.5 -31.45 9.7 -28.35 14.9 -25.2 14.9 -20.9 M16.9 -20.0 Q17.25 -16.8 16.85 -11.7 L16.2 -3.7 16.2 4.65 Q16.2 10.55 15.75 14.5 14.45 26.45 8.35 29.9 5.05 31.95 0.75 32.8 L-7.9 33.1 Q0.0 31.25 2.35 25.8 6.7 19.25 6.75 10.35 6.75 1.2 2.2 -6.75 L7.25 -8.2 Q9.85 -9.1 11.45 -10.45 13.65 -11.9 15.35 -14.2 L16.25 -17.0 16.9 -20.0 M19.45 -15.25 L23.55 -20.1 Q25.8 -17.35 26.35 -13.6 L19.1 2.5 Q19.55 -8.45 19.45 -15.25" fill="#429449" fill-rule="evenodd" stroke="none"/>
      <path d="M-28.5 -2.05 Q-30.4 -1.15 -30.45 0.8 -30.85 5.7 -28.05 10.3 L-27.45 11.2 -28.5 -2.05 M-18.4 -28.6 Q-12.7 -31.8 -4.6 -31.8 L-3.1 -31.75 Q-10.15 -30.35 -11.05 -23.8 -11.65 -19.15 -9.0 -10.25 -15.55 -11.1 -19.8 -14.05 -24.1 -17.05 -24.1 -20.9 -24.1 -25.4 -18.4 -28.6 M39.55 -23.85 Q39.65 -25.05 39.4 -26.2 39.0 -28.75 36.25 -30.95 33.3 -33.3 29.75 -33.3 28.05 -33.3 26.55 -32.55 L27.15 -28.25 Q27.4 -25.7 26.85 -24.0 L19.45 -15.25 Q19.55 -8.45 19.1 2.5 L29.85 -21.35 31.15 -22.25 35.45 -22.65 Q38.05 -23.05 39.55 -23.85 M42.45 -26.9 Q42.85 -25.35 42.7 -23.75 L42.65 -23.15 41.95 -21.7 Q40.3 -20.5 37.3 -19.9 L32.35 -19.25 23.35 0.7 Q21.4 4.95 19.75 12.85 18.0 21.1 16.5 24.8 14.05 30.85 7.45 33.95 1.6 36.7 -5.5 36.35 -8.7 36.2 -14.25 34.7 -21.35 32.75 -21.05 30.65 -22.35 30.55 -24.6 26.9 -27.15 22.7 -27.75 22.25 -32.7 18.45 -36.1 14.5 -42.5 7.1 -42.7 -1.2 -42.25 -7.85 -38.95 -10.9 -36.0 -13.65 -29.4 -14.65 -29.5 -20.1 -27.95 -24.55 -25.35 -29.2 -20.65 -31.9 -18.5 -33.1 -14.3 -34.5 -6.2 -36.3 0.0 -35.2 5.75 -34.2 11.6 -30.2 5.35 -32.7 -0.3 -32.95 -5.75 -33.2 -13.45 -31.5 -16.85 -30.5 -19.05 -29.2 -23.15 -26.85 -25.15 -23.1 -26.3 -20.45 -26.2 -15.05 L-24.7 -14.8 -14.45 -8.15 -13.7 -6.85 -13.7 -2.7 -15.85 -1.2 Q-21.1 -3.1 -25.45 -2.85 -24.75 7.85 -23.8 15.95 -21.2 18.9 -16.2 22.9 -21.45 20.8 -24.45 18.65 -28.05 16.05 -30.75 11.85 -34.0 6.1 -33.55 0.35 -33.5 -1.5 -32.05 -3.15 -30.65 -4.75 -28.7 -5.45 -25.05 -7.3 -16.85 -4.8 L-16.85 -6.0 -26.15 -12.0 Q-27.25 -11.25 -33.25 -10.75 -43.5 -9.55 -38.6 2.55 -36.8 6.95 -33.4 11.75 -30.4 15.9 -28.15 17.85 L-25.15 20.3 -24.85 20.5 -15.75 27.4 -15.6 26.2 -15.3 24.8 -15.0 27.05 Q-14.9 28.25 -15.75 29.05 L-20.3 27.0 Q-15.5 32.6 -6.55 33.25 2.0 33.9 8.35 29.9 14.45 26.45 15.75 14.5 16.2 10.55 16.2 4.65 L16.2 -3.7 Q17.25 -13.15 17.05 -17.9 16.75 -26.35 11.6 -30.2 18.7 -26.3 19.3 -20.2 L19.3 -19.95 24.1 -25.6 23.85 -29.45 23.35 -33.3 24.05 -34.75 Q29.05 -37.75 35.15 -35.25 41.25 -32.7 42.45 -26.9" fill="#255428" fill-rule="evenodd" stroke="none"/>
    </g>
  </defs>
</svg>
