<?xml version="1.0" encoding="UTF-8" standalone="no"?>
<svg xmlns:ffdec="https://www.free-decompiler.com/flash" xmlns:xlink="http://www.w3.org/1999/xlink" ffdec:objectType="frame" height="64.75px" width="70.5px" xmlns="http://www.w3.org/2000/svg">
  <g transform="matrix(1.0, 0.0, 0.0, 1.0, 35.25, 32.35)">
    <use ffdec:characterId="1181" height="58.9" transform="matrix(1.0, 0.0, 0.0, 1.0, -32.05, -29.45)" width="64.1" xlink:href="#shape0"/>
  </g>
  <defs>
    <g id="shape0" transform="matrix(1.0, 0.0, 0.0, 1.0, 32.05, 29.45)">
      <path d="M-26.65 -16.1 Q-27.2 -9.55 -27.15 -2.05 -27.1 6.8 -26.3 13.2 -25.65 18.4 -24.75 20.3 -21.6 21.3 -12.2 22.2 L8.55 23.15 21.75 22.3 Q22.8 20.45 23.9 15.15 25.3 8.65 26.15 -0.4 26.85 -8.0 26.9 -14.55 26.95 -20.3 26.55 -23.0 23.0 -24.05 14.05 -24.85 L-6.75 -25.8 Q-20.8 -25.8 -25.55 -24.25 -26.2 -21.8 -26.65 -16.1 M20.35 -27.8 Q29.5 -26.6 30.6 -25.1 33.25 -21.65 31.0 1.75 28.75 25.7 24.4 27.85 19.85 30.1 -1.55 29.15 -22.7 28.2 -27.5 25.75 -31.8 23.6 -32.05 0.6 -32.3 -21.6 -29.6 -26.15 -27.2 -30.2 0.6 -29.3 L20.35 -27.8" fill="#4a4eb0" fill-rule="evenodd" stroke="none"/>
      <path d="M-26.65 -16.1 Q-26.2 -21.8 -25.55 -24.25 -20.8 -25.8 -6.75 -25.8 L14.05 -24.85 Q23.0 -24.05 26.55 -23.0 26.95 -20.3 26.9 -14.55 26.85 -8.0 26.15 -0.4 25.3 8.65 23.9 15.15 22.8 20.45 21.75 22.3 L8.55 23.15 -12.2 22.2 Q-21.6 21.3 -24.75 20.3 -25.65 18.4 -26.3 13.2 -27.1 6.8 -27.15 -2.05 -27.2 -9.55 -26.65 -16.1" fill="#59b6f2" fill-rule="evenodd" stroke="none"/>
      <path d="M14.8 14.3 Q12.75 15.65 11.15 15.1 9.5 14.55 9.1 12.35 8.85 10.9 10.0 8.2 11.2 5.45 10.9 4.05 10.55 2.15 2.7 2.15 L-7.25 2.8 Q-9.0 3.15 -6.0 5.95 L-1.25 10.45 Q-0.35 11.7 -1.45 14.3 -2.6 17.05 -4.7 16.6 -8.15 15.9 -15.2 9.75 -22.7 3.25 -23.45 -0.75 -24.15 -4.55 -16.75 -12.7 -10.3 -19.8 -7.25 -21.3 -5.45 -22.2 -2.6 -20.2 0.15 -18.25 -0.4 -17.2 -1.0 -16.15 -5.65 -11.4 -9.15 -7.8 -7.55 -8.1 L3.15 -9.1 Q12.55 -9.1 17.55 -6.05 22.95 -2.75 20.25 5.4 18.0 12.25 14.8 14.3" fill="#ffffff" fill-rule="evenodd" stroke="none"/>
    </g>
  </defs>
</svg>
