<?xml version="1.0" encoding="UTF-8" standalone="no"?>
<svg xmlns:ffdec="https://www.free-decompiler.com/flash" xmlns:xlink="http://www.w3.org/1999/xlink" ffdec:objectType="frame" height="147.05px" width="215.6px" xmlns="http://www.w3.org/2000/svg">
  <g transform="matrix(1.0, 0.0, 0.0, 1.0, 133.0, 94.25)">
    <use ffdec:characterId="324" height="133.7" id="button" transform="matrix(0.9514, 0.0, 0.0, 0.9514, -116.1302, -84.5857)" width="196.0" xlink:href="#sprite0"/>
  </g>
  <defs>
    <g id="sprite0" transform="matrix(1.0, 0.0, 0.0, 1.0, 113.65, 65.15)">
      <use ffdec:characterId="321" height="248.5" transform="matrix(0.4345, 0.0, 0.0, 0.4345, -69.55, -52.15)" width="254.05" xlink:href="#sprite1"/>
      <use ffdec:characterId="322" height="133.6" transform="matrix(1.0, 0.0, 0.0, 1.0, -113.65, -65.15)" width="195.25" xlink:href="#shape1"/>
      <filter id="filter4">
        <feOffset dx="1.895423752356559E-6" dy="0.9999999999982037" in="SourceGraphic" result="filterResult0"/>
        <feColorMatrix in="filterResult0" result="filterResult1" type="matrix" values="0 0 0 0 0.0,0 0 0 0 0.0,0 0 0 0 0.0,0 0 0 1 0"/>
        <feConvolveMatrix divisor="25.0" in="filterResult1" kernelMatrix="1 1 1 1 1 1 1 1 1 1 1 1 1 1 1 1 1 1 1 1 1 1 1 1 1" order="5 5" result="filterResult2"/>
        <feConvolveMatrix divisor="25.0" in="filterResult2" kernelMatrix="1 1 1 1 1 1 1 1 1 1 1 1 1 1 1 1 1 1 1 1 1 1 1 1 1" order="5 5" result="filterResult3"/>
        <feColorMatrix in="filterResult3" result="filterResult4" type="matrix" values="1 0 0 0 0,0 1 0 0 0,0 0 1 0 0,0 0 0 50.0 0"/>
        <feComposite in="SourceGraphic" in2="filterResult4" operator="over" result="filterResult5"/>
      </filter>
      <use ffdec:characterId="323" filter="url(#filter4)" height="46.2" id="textField" transform="matrix(0.8689, 0.0, 0.0, 0.8689, -111.4379, 28.4121)" width="223.0" xlink:href="#text0"/>
    </g>
    <g id="sprite1" transform="matrix(1.0, 0.0, 0.0, 1.0, 0.0, 0.0)">
      <use ffdec:characterId="320" height="248.5" transform="matrix(1.0, 0.0, 0.0, 1.0, 0.0, 0.0)" width="254.05" xlink:href="#shape0"/>
    </g>
    <g id="shape0" transform="matrix(1.0, 0.0, 0.0, 1.0, 0.0, 0.0)">
      <path d="M165.3 92.45 Q149.4 108.35 127.0 108.35 104.6 108.35 88.75 92.45 72.85 76.6 72.85 54.2 72.85 31.8 88.75 15.9 104.6 0.0 127.0 0.0 149.45 0.0 165.3 15.9 181.2 31.8 181.2 54.2 181.2 76.6 165.3 92.45" fill="#006b45" fill-rule="evenodd" stroke="none"/>
      <path d="M54.15 70.05 Q76.6 70.05 92.45 85.95 108.35 101.85 108.35 124.25 108.35 146.65 92.45 162.55 76.55 178.45 54.15 178.45 31.75 178.45 15.9 162.55 0.0 146.65 0.0 124.25 0.0 101.85 15.9 85.95 31.75 70.05 54.15 70.05" fill="#006b45" fill-rule="evenodd" stroke="none"/>
      <path d="M238.15 85.95 Q254.05 101.85 254.05 124.25 254.05 146.65 238.15 162.55 222.3 178.45 199.9 178.45 177.5 178.45 161.6 162.55 145.7 146.65 145.7 124.25 145.7 101.85 161.6 85.95 177.5 70.05 199.9 70.05 222.3 70.05 238.15 85.95" fill="#006b45" fill-rule="evenodd" stroke="none"/>
      <path d="M181.2 194.3 Q181.2 216.7 165.3 232.6 149.4 248.5 127.0 248.5 104.6 248.5 88.75 232.6 72.85 216.7 72.85 194.3 72.85 171.9 88.75 156.0 104.6 140.1 127.0 140.1 149.45 140.1 165.3 156.0 181.2 171.9 181.2 194.3" fill="#006b45" fill-rule="evenodd" stroke="none"/>
      <path d="M54.15 75.9 Q73.25 75.9 86.75 89.4 100.25 102.9 100.25 122.0 100.25 141.05 86.75 154.55 73.25 168.05 54.15 168.05 35.1 168.05 21.6 154.55 8.1 141.05 8.1 122.0 8.1 102.9 21.6 89.4 35.1 75.9 54.15 75.9" fill="#006b45" fill-rule="evenodd" stroke="none"/>
      <path d="M54.15 113.45 Q50.6 113.45 48.15 115.95 45.65 118.45 45.65 122.0 45.65 125.55 48.15 128.0 50.65 130.5 54.15 130.5 57.7 130.5 60.2 128.0 62.7 125.55 62.7 122.0 62.7 118.45 60.2 115.95 57.7 113.45 54.15 113.45 M33.95 92.95 Q36.0 91.5 39.05 90.0 L43.05 95.2 50.4 93.25 51.25 86.7 Q54.3 86.45 57.15 86.75 L58.0 93.2 65.35 95.2 69.3 90.0 Q72.15 91.35 74.45 93.0 L71.95 98.95 77.35 104.35 83.3 101.85 86.25 107.05 81.15 110.95 83.1 118.25 89.45 119.1 Q89.7 122.2 89.4 125.05 L83.15 125.9 81.15 133.25 86.2 137.05 Q84.95 139.65 83.2 142.25 L77.35 139.8 72.0 145.2 74.4 151.0 69.25 154.0 65.4 149.0 58.05 151.0 57.25 157.2 Q54.45 157.5 51.3 157.25 L50.45 151.0 43.1 149.05 39.25 154.1 Q36.4 152.75 34.1 151.1 L36.55 145.25 31.15 139.85 25.25 142.35 Q23.5 139.8 22.25 137.2 L27.35 133.3 25.35 125.95 18.95 125.1 Q18.65 122.35 18.9 119.15 L25.35 118.35 27.3 111.0 22.1 107.0 Q23.3 104.4 25.05 101.9 L31.1 104.4 36.5 99.0 33.95 92.95" fill="#006b45" fill-rule="evenodd" stroke="none"/>
      <path d="M199.9 75.9 Q218.95 75.9 232.45 89.4 245.95 102.9 245.95 122.0 245.95 141.05 232.45 154.55 218.95 168.05 199.9 168.05 180.8 168.05 167.3 154.55 153.8 141.05 153.8 122.0 153.8 102.9 167.3 89.4 180.8 75.9 199.9 75.9" fill="#006b45" fill-rule="evenodd" stroke="none"/>
      <path d="M202.55 137.25 Q208.9 136.15 212.6 130.85 216.3 125.6 215.15 119.3 214.05 112.95 208.75 109.25 203.5 105.6 197.2 106.7 190.85 107.85 187.15 113.1 183.5 118.35 184.6 124.65 185.75 131.0 191.0 134.7 196.25 138.4 202.55 137.25 M229.45 110.35 Q235.75 116.2 238.65 122.0 235.75 127.8 229.45 133.65 216.85 145.25 199.9 145.25 182.95 145.25 170.3 133.65 166.35 130.0 163.35 125.65 L161.1 122.0 Q164.0 116.2 170.3 110.35 182.95 98.7 199.9 98.75 216.85 98.7 229.45 110.35" fill="#006b45" fill-rule="evenodd" stroke="none"/>
      <path d="M159.6 19.35 Q173.1 32.85 173.1 51.95 173.1 71.0 159.6 84.5 146.1 98.0 127.0 98.0 107.95 98.0 94.45 84.5 80.95 71.0 80.95 51.95 80.95 32.85 94.45 19.35 107.95 5.85 127.0 5.85 146.1 5.85 159.6 19.35" fill="#006b45" fill-rule="evenodd" stroke="none"/>
      <path d="M105.75 37.05 L105.75 66.35 97.65 66.35 97.65 47.15 Q95.55 48.7 93.85 49.55 L89.2 51.3 89.2 44.75 Q93.15 43.55 95.55 41.6 97.85 39.7 99.1 37.05 L105.75 37.05" fill="#006b45" fill-rule="evenodd" stroke="none"/>
      <path d="M137.65 45.4 Q137.65 48.1 136.1 50.45 134.65 52.8 130.5 55.7 L127.25 58.05 125.35 59.8 137.85 59.8 137.85 66.35 113.85 66.35 Q114.2 62.85 116.35 59.65 118.45 56.5 124.2 52.25 127.8 49.55 128.7 48.25 129.7 46.85 129.7 45.7 129.7 44.35 128.7 43.45 127.65 42.5 126.25 42.5 124.75 42.5 123.75 43.5 122.75 44.4 122.45 46.9 L114.45 46.25 Q114.9 42.75 116.15 40.95 117.45 39.0 119.7 38.05 121.9 37.05 126.05 37.05 130.35 37.05 132.6 38.0 135.0 38.95 136.3 40.95 137.65 43.0 137.65 45.4" fill="#006b45" fill-rule="evenodd" stroke="none"/>
      <path d="M162.35 47.8 Q161.25 49.4 159.25 50.45 L161.8 51.4 Q163.2 52.3 164.05 53.75 164.85 55.25 164.85 57.2 164.85 59.75 163.5 62.0 162.25 64.35 159.7 65.55 157.25 66.8 153.2 66.8 149.35 66.8 147.0 65.9 144.7 65.0 143.3 63.2 141.8 61.4 141.05 58.7 L149.05 57.65 Q149.5 60.05 150.5 61.0 151.45 61.95 153.0 61.95 154.65 61.95 155.7 60.75 156.75 59.65 156.75 57.6 156.75 55.55 155.75 54.5 154.65 53.4 152.95 53.4 L150.35 53.9 150.75 48.2 151.8 48.25 Q153.45 48.25 154.45 47.25 155.5 46.3 155.5 44.9 155.5 43.6 154.7 42.8 153.9 42.0 152.55 42.0 151.1 42.0 150.25 42.85 149.35 43.75 149.05 45.85 L141.45 44.5 Q142.45 40.9 145.1 38.95 147.75 37.05 152.7 37.05 158.3 37.05 160.85 39.15 163.35 41.25 163.35 44.4 163.35 46.25 162.35 47.8" fill="#006b45" fill-rule="evenodd" stroke="none"/>
      <path d="M159.6 159.45 Q173.1 172.95 173.1 192.05 173.1 211.1 159.6 224.6 146.1 238.1 127.0 238.1 107.95 238.1 94.45 224.6 80.95 211.1 80.95 192.05 80.95 172.95 94.45 159.45 107.95 145.95 127.0 145.95 146.1 145.95 159.6 159.45" fill="#006b45" fill-rule="evenodd" stroke="none"/>
      <path d="M99.55 169.2 L140.65 164.1 146.15 208.35 105.05 213.45 99.55 169.2" fill="#006b45" fill-rule="evenodd" stroke="none"/>
      <path d="M145.85 171.0 L149.0 170.6 154.5 214.9 113.4 220.0 105.05 213.45 110.45 212.8 115.25 216.55 150.95 212.1 145.85 171.0" fill="#006b45" fill-rule="evenodd" stroke="none"/>
    </g>
    <g id="shape1" transform="matrix(1.0, 0.0, 0.0, 1.0, 113.65, 65.15)">
      <path d="M1.8 -16.95 Q-5.1 -10.05 -14.85 -10.05 -24.6 -10.05 -31.5 -16.95 -38.4 -23.85 -38.4 -33.6 -38.4 -43.35 -31.5 -50.25 -24.6 -57.15 -14.85 -57.15 -5.1 -57.15 1.8 -50.25 8.7 -43.35 8.7 -33.6 8.7 -23.85 1.8 -16.95" fill="#c27a2d" fill-rule="evenodd" stroke="none"/>
      <path d="M-46.5 -26.7 Q-36.75 -26.7 -29.9 -19.8 -22.95 -12.9 -22.95 -3.15 -22.95 6.55 -29.9 13.45 -36.75 20.4 -46.5 20.4 -56.25 20.4 -63.15 13.45 -70.05 6.6 -70.05 -3.15 -70.05 -12.9 -63.15 -19.8 -56.25 -26.7 -46.5 -26.7" fill="#9d1e60" fill-rule="evenodd" stroke="none"/>
      <path d="M33.45 -19.8 Q40.35 -12.9 40.35 -3.15 40.35 6.55 33.45 13.45 26.55 20.4 16.8 20.4 7.05 20.4 0.15 13.45 -6.75 6.6 -6.75 -3.15 -6.75 -12.9 0.15 -19.8 7.05 -26.7 16.8 -26.7 26.55 -26.7 33.45 -19.8" fill="#4a4eb0" fill-rule="evenodd" stroke="none"/>
      <path d="M8.7 27.25 Q8.7 37.0 1.8 43.9 -5.1 50.8 -14.85 50.8 -24.6 50.8 -31.5 43.9 -38.4 37.0 -38.4 27.25 -38.4 17.55 -31.5 10.65 -24.6 3.7 -14.85 3.7 -5.1 3.7 1.8 10.65 8.7 17.55 8.7 27.25" fill="#008546" fill-rule="evenodd" stroke="none"/>
      <path d="M-46.5 -24.15 Q-38.2 -24.15 -32.35 -18.3 -26.5 -12.45 -26.5 -4.15 -26.5 4.15 -32.35 10.0 -38.2 15.85 -46.5 15.85 -54.8 15.85 -60.65 10.0 -66.5 4.15 -66.5 -4.15 -66.5 -12.45 -60.65 -18.3 -54.8 -24.15 -46.5 -24.15" fill="#f5697d" fill-rule="evenodd" stroke="none"/>
      <path d="M-49.15 -6.75 Q-50.2 -5.7 -50.2 -4.15 -50.2 -2.6 -49.15 -1.5 -48.05 -0.45 -46.5 -0.45 -44.95 -0.45 -43.85 -1.5 -42.8 -2.6 -42.8 -4.15 -42.8 -5.7 -43.85 -6.75 -44.95 -7.85 -46.5 -7.85 -48.05 -7.85 -49.15 -6.75 M-55.3 -16.75 Q-54.25 -17.5 -53.05 -18.05 L-51.35 -15.8 -48.15 -16.65 -47.8 -19.45 -45.2 -19.45 -44.85 -16.65 -41.65 -15.8 -39.95 -18.05 Q-38.75 -17.5 -37.7 -16.75 L-38.8 -14.15 -36.45 -11.8 -33.85 -12.9 -32.6 -10.65 -34.8 -8.95 -33.9 -5.75 -31.2 -5.4 -31.2 -2.8 -33.9 -2.45 -34.75 0.75 -32.6 2.4 -33.9 4.65 -36.4 3.6 -38.75 5.95 -37.7 8.45 Q-38.75 9.2 -39.95 9.75 L-41.6 7.6 -44.8 8.45 -45.15 11.15 -47.75 11.15 -48.1 8.45 -51.3 7.6 -52.95 9.8 -55.25 8.5 -54.15 5.95 -56.5 3.65 -59.1 4.7 -60.4 2.45 -58.15 0.75 -59.05 -2.45 -61.8 -2.75 -61.85 -5.35 -59.05 -5.75 -58.2 -8.9 -60.45 -10.65 -59.15 -12.9 -56.55 -11.8 -54.2 -14.15 -55.3 -16.75" fill="#ffffff" fill-rule="evenodd" stroke="none"/>
      <path d="M16.8 -24.15 Q25.1 -24.15 30.95 -18.3 36.8 -12.45 36.8 -4.15 36.8 4.15 30.95 10.0 25.1 15.85 16.8 15.85 8.5 15.85 2.65 10.0 -3.2 4.15 -3.2 -4.15 -3.2 -12.45 2.65 -18.3 8.5 -24.15 16.8 -24.15" fill="#59b6f2" fill-rule="evenodd" stroke="none"/>
      <path d="M18.0 2.5 Q20.7 2.0 22.3 -0.3 23.9 -2.55 23.45 -5.3 22.95 -8.1 20.65 -9.65 18.4 -11.25 15.65 -10.8 12.85 -10.3 11.3 -8.0 9.7 -5.75 10.2 -2.95 10.65 -0.25 12.95 1.35 15.2 3.0 18.0 2.5 M29.65 -9.2 Q32.4 -6.65 33.65 -4.15 32.4 -1.6 29.65 0.9 24.15 5.95 16.8 5.95 9.45 5.95 3.95 0.9 2.25 -0.65 0.95 -2.55 L-0.05 -4.15 Q1.25 -6.65 3.95 -9.2 9.45 -14.25 16.8 -14.25 24.15 -14.25 29.65 -9.2" fill="#ffffff" fill-rule="evenodd" stroke="none"/>
      <path d="M-0.7 -48.7 Q5.15 -42.9 5.15 -34.6 5.15 -26.3 -0.7 -20.45 -6.55 -14.55 -14.85 -14.55 -23.15 -14.55 -29.0 -20.45 -34.85 -26.3 -34.85 -34.6 -34.85 -42.9 -29.0 -48.7 -23.15 -54.6 -14.85 -54.6 -6.55 -54.6 -0.7 -48.7" fill="#ffe86e" fill-rule="evenodd" stroke="none"/>
      <path d="M-24.1 -41.05 L-24.1 -28.3 -27.6 -28.3 -27.6 -36.65 -29.25 -35.6 -31.25 -34.85 -31.25 -37.7 Q-29.55 -38.25 -28.5 -39.1 -27.55 -39.9 -27.0 -41.05 L-24.1 -41.05" fill="#ffffff" fill-rule="evenodd" stroke="none"/>
      <path d="M-10.25 -37.4 Q-10.25 -36.25 -10.9 -35.25 -11.6 -34.2 -13.35 -32.95 L-14.75 -31.95 -15.6 -31.15 -10.15 -31.15 -10.15 -28.3 -20.6 -28.3 Q-20.4 -29.9 -19.5 -31.25 -18.6 -32.6 -16.1 -34.45 -14.55 -35.6 -14.15 -36.15 -13.7 -36.75 -13.7 -37.3 -13.7 -37.85 -14.15 -38.25 -14.55 -38.65 -15.2 -38.65 -15.85 -38.65 -16.3 -38.25 L-16.85 -36.75 -20.3 -37.05 Q-20.15 -38.45 -19.6 -39.35 -19.05 -40.15 -18.05 -40.6 L-15.3 -41.05 -12.4 -40.65 Q-11.4 -40.2 -10.85 -39.35 -10.25 -38.45 -10.25 -37.4" fill="#ffffff" fill-rule="evenodd" stroke="none"/>
      <path d="M0.5 -36.4 L-0.85 -35.25 0.25 -34.8 1.25 -33.8 1.55 -32.3 Q1.55 -31.2 1.0 -30.2 0.4 -29.2 -0.65 -28.65 -1.75 -28.1 -3.45 -28.1 L-6.15 -28.5 Q-7.1 -28.9 -7.8 -29.7 -8.45 -30.45 -8.75 -31.6 L-5.3 -32.1 Q-5.1 -31.05 -4.65 -30.65 -4.25 -30.25 -3.55 -30.25 -2.85 -30.25 -2.4 -30.75 -1.9 -31.25 -1.9 -32.1 -1.9 -33.0 -2.4 -33.45 -2.85 -33.95 -3.6 -33.95 L-4.75 -33.75 -4.55 -36.2 -4.1 -36.15 Q-3.4 -36.15 -2.95 -36.6 -2.5 -37.05 -2.5 -37.65 -2.5 -38.25 -2.85 -38.55 -3.2 -38.9 -3.75 -38.9 -4.35 -38.9 -4.75 -38.55 L-5.3 -37.25 -8.55 -37.8 Q-8.2 -39.4 -7.0 -40.25 -5.8 -41.05 -3.7 -41.05 -1.25 -41.05 -0.15 -40.15 0.9 -39.25 0.9 -37.85 0.9 -37.0 0.5 -36.4" fill="#ffffff" fill-rule="evenodd" stroke="none"/>
      <path d="M-29.0 12.15 Q-23.15 6.3 -14.85 6.3 -6.55 6.3 -0.7 12.15 5.15 18.0 5.15 26.3 5.15 34.6 -0.7 40.45 -6.55 46.3 -14.85 46.3 -23.15 46.3 -29.0 40.45 -34.85 34.6 -34.85 26.3 -34.85 18.0 -29.0 12.15" fill="#6ee087" fill-rule="evenodd" stroke="none"/>
      <path d="M-26.8 16.35 L-8.95 14.15 -6.55 33.35 -24.4 35.6 -26.8 16.35" fill="#ffffff" fill-rule="evenodd" stroke="none"/>
      <path d="M-6.7 17.15 L-5.3 16.95 -2.9 36.2 -20.8 38.45 -24.4 35.6 -22.05 35.3 -20.0 36.95 -4.45 35.0 -6.7 17.15" fill="#ffffff" fill-rule="evenodd" stroke="none"/>
      <path d="M81.1 -64.65 L81.1 67.95 -113.15 67.95 -113.15 -64.65 81.1 -64.65" fill="#ffffff" fill-opacity="0.0" fill-rule="evenodd" stroke="none"/>
      <path d="M-113.15 -64.65 L-113.15 67.95 81.1 67.95 81.1 -64.65" fill="none" stroke="#ffffff" stroke-linecap="round" stroke-linejoin="round" stroke-opacity="0.0" stroke-width="1.0"/>
    </g>
    <g id="text0" transform="matrix(1.0, 0.0, 0.0, 1.0, 2.0, 2.0)">
      <g transform="matrix(1.0, 0.0, 0.0, 1.0, -2.0, -2.0)">
        <use fill="#ffd400" height="46.2" transform="matrix(0.0342, 0.0, 0.0, 0.0342, 59.9, 35.85)" width="223.0" xlink:href="#font_Baveuse_P0"/>
        <use fill="#ffd400" height="46.2" transform="matrix(0.0342, 0.0, 0.0, 0.0342, 86.65, 35.85)" width="223.0" xlink:href="#font_Baveuse_L0"/>
        <use fill="#ffd400" height="46.2" transform="matrix(0.0342, 0.0, 0.0, 0.0342, 109.35, 35.85)" width="223.0" xlink:href="#font_Baveuse_A0"/>
        <use fill="#ffd400" height="46.2" transform="matrix(0.0342, 0.0, 0.0, 0.0342, 137.5, 35.85)" width="223.0" xlink:href="#font_Baveuse_Y0"/>
      </g>
    </g>
    <g id="font_Baveuse_P0">
      <path d="M751.5 -453.5 L750.5 -546.0 Q744.5 -815.0 520.0 -826.5 L53.5 -793.5 54.5 20.5 254.0 4.0 271.5 -226.5 553.0 -209.0 Q760.0 -233.5 751.5 -453.5 M153.5 -490.5 L476.0 -505.0 Q554.0 -505.0 545.0 -446.5 535.5 -387.0 491.5 -383.0 L145.5 -399.5 153.5 -490.5" fill-rule="evenodd" stroke="none"/>
    </g>
    <g id="font_Baveuse_L0">
      <path d="M644.0 10.5 L663.5 -190.5 234.5 -151.5 311.5 -796.0 2.0 -822.5 42.0 41.0 644.0 10.5" fill-rule="evenodd" stroke="none"/>
    </g>
    <g id="font_Baveuse_A0">
      <path d="M298.0 -312.5 L624.5 -296.0 Q662.5 -292.0 661.5 -236.5 661.5 -181.0 622.5 -183.5 L317.5 -196.5 Q261.0 -193.5 264.0 -252.0 269.5 -311.5 298.0 -312.5 M656.5 -356.5 L656.5 -356.5 Q630.0 -414.0 556.0 -423.0 L307.5 -435.5 Q54.5 -431.0 39.0 -247.0 23.5 -6.0 292.0 10.0 L507.0 24.5 Q595.0 14.5 631.0 -60.5 668.0 11.0 793.5 0.0 769.0 -44.0 769.0 -131.0 L762.0 -501.0 Q774.5 -801.0 507.0 -785.5 L92.5 -768.0 85.0 -463.0 584.0 -489.5 Q679.0 -473.0 656.5 -356.5" fill-rule="evenodd" stroke="none"/>
    </g>
    <g id="font_Baveuse_Y0">
      <path d="M723.0 -808.0 L509.0 -815.0 319.5 -463.0 232.5 -829.5 41.0 -847.0 268.5 -238.5 256.0 34.0 457.5 14.5 447.5 -219.0 723.0 -808.0" fill-rule="evenodd" stroke="none"/>
    </g>
  </defs>
</svg>
