<?xml version="1.0" encoding="UTF-8" standalone="no"?>
<svg xmlns:ffdec="https://www.free-decompiler.com/flash" xmlns:xlink="http://www.w3.org/1999/xlink" ffdec:objectType="frame" height="84.1px" width="84.6px" xmlns="http://www.w3.org/2000/svg">
  <g transform="matrix(1.0, 0.0, 0.0, 1.0, 42.3, 84.1)">
    <use ffdec:characterId="963" height="63.9" transform="matrix(1.0, 0.0, 0.0, 1.0, -41.6, -63.9)" width="83.25" xlink:href="#sprite0"/>
  </g>
  <defs>
    <g id="sprite0" transform="matrix(1.0, 0.0, 0.0, 1.0, 41.6, 31.95)">
      <use ffdec:characterId="962" height="63.9" transform="matrix(1.0, 0.0, 0.0, 1.0, -41.6, -31.95)" width="83.25" xlink:href="#shape0"/>
    </g>
    <g id="shape0" transform="matrix(1.0, 0.0, 0.0, 1.0, 41.6, 31.95)">
      <path d="M1.4 -19.45 Q12.6 -19.3 20.6 -15.45 -2.05 -2.85 -24.9 12.05 -33.25 8.05 -37.2 2.25 -19.45 -10.1 -2.45 -19.5 L1.4 -19.45 M21.85 -24.95 Q26.8 -22.8 30.15 -20.7 L25.55 -18.2 Q17.7 -23.1 5.55 -23.8 L13.05 -27.6 Q18.95 -26.5 21.85 -24.95" fill="#fff2b8" fill-rule="evenodd" stroke="none"/>
      <path d="M-11.65 -18.5 L-2.45 -19.5 Q-19.45 -10.1 -37.2 2.25 L-38.3 0.5 -38.5 -3.75 -31.85 -7.45 Q-31.95 -6.25 -31.5 -5.4 L-30.6 -4.2 Q-29.95 -6.95 -27.25 -10.0 L-11.65 -18.5 M30.15 -20.7 Q34.5 -17.95 37.35 -14.3 L32.4 -11.85 Q29.75 -15.6 25.55 -18.2 L30.15 -20.7 M20.6 -15.45 Q25.25 -13.2 28.55 -9.85 5.75 2.0 -14.15 15.75 -20.1 14.4 -24.9 12.05 -2.05 -2.85 20.6 -15.45 M5.55 -23.8 L1.4 -23.95 -1.6 -23.85 7.1 -28.45 13.05 -27.6 5.55 -23.8" fill="#ffd943" fill-rule="evenodd" stroke="none"/>
      <path d="M40.3 3.0 L41.5 -4.5 41.65 3.1 Q41.6 7.2 40.85 10.35 38.35 18.15 30.45 23.55 25.4 28.2 12.4 30.7 -3.05 33.65 -16.05 29.55 -23.1 27.6 -28.95 23.6 -34.7 19.65 -37.6 14.95 -40.0 11.15 -40.75 6.95 L-41.1 3.8 -41.4 0.8 Q-41.8 -3.2 -41.4 -7.7 -40.6 -13.25 -35.7 -18.65 -30.85 -23.9 -24.0 -26.9 -11.85 -32.65 4.05 -31.85 16.55 -31.2 23.0 -27.85 41.8 -20.0 41.5 -4.5 40.1 -12.0 35.1 -16.9 30.75 -21.1 21.85 -24.95 15.85 -28.1 3.9 -28.7 -11.25 -29.5 -22.65 -24.05 -29.0 -21.25 -33.35 -16.5 -37.7 -11.8 -38.35 -7.15 -38.7 -3.55 -38.3 0.5 L-38.0 3.5 Q-37.85 3.55 -37.65 6.4 -37.05 9.95 -34.95 13.25 -32.4 17.4 -27.2 21.0 -21.75 24.7 -15.2 26.55 -3.8 30.15 9.95 27.9 L11.2 22.1 Q11.95 18.7 11.85 16.3 L14.6 15.7 Q14.35 20.4 13.05 27.35 L17.15 26.35 17.2 26.3 Q19.35 20.65 18.8 14.55 27.65 11.85 33.45 6.8 33.05 9.8 31.8 13.65 L29.5 20.4 Q35.9 15.8 38.65 9.6 39.6 7.05 40.3 3.0" fill="#665303" fill-rule="evenodd" stroke="none"/>
      <path d="M-25.05 11.95 Q-21.9 13.5 -17.9 14.7 -18.3 17.1 -18.15 20.25 L-17.6 25.8 Q-21.05 24.55 -24.15 22.85 -25.45 15.8 -25.05 11.95 M-32.05 7.65 Q-29.75 9.45 -27.3 10.8 -27.3 17.4 -26.45 21.45 L-31.2 17.8 Q-32.4 12.5 -32.05 7.65 M0.15 17.3 L11.85 16.3 Q11.95 18.7 11.2 22.1 L9.95 27.9 Q-3.55 30.1 -14.95 26.6 -15.3 22.25 -15.3 15.45 -8.0 17.3 0.15 17.3 M14.6 15.7 L18.8 14.55 Q19.35 20.7 17.15 26.35 L13.05 27.35 Q14.35 20.4 14.6 15.7 M32.4 -11.85 L33.15 -10.7 Q34.75 -8.15 34.2 -5.9 L33.0 -3.35 Q31.55 -6.8 28.55 -9.85 25.25 -13.2 20.6 -15.45 12.6 -19.3 1.4 -19.45 L-2.45 -19.5 -11.65 -18.5 Q-21.65 -16.25 -27.25 -10.0 -29.95 -6.95 -30.6 -4.2 L-31.5 -5.4 Q-31.95 -6.25 -31.85 -7.45 L-31.35 -9.85 Q-30.15 -13.6 -24.35 -17.45 -15.65 -23.25 -1.6 -23.85 L1.4 -23.95 5.55 -23.8 Q17.7 -23.1 25.55 -18.2 29.75 -15.6 32.4 -11.85 M40.65 -7.8 L41.5 -4.5 40.3 3.0 Q39.6 7.05 38.65 9.6 35.9 15.8 29.5 20.4 L31.8 13.65 Q33.05 9.8 33.45 6.8 40.65 0.55 40.65 -7.2 L40.65 -7.8" fill="#9f8c22" fill-rule="evenodd" stroke="none"/>
      <path d="M-27.25 -10.0 Q-21.65 -16.25 -11.65 -18.5 L-27.25 -10.0 M-17.9 14.7 L-15.3 15.45 Q-15.3 22.25 -14.95 26.6 L-15.2 26.55 -17.6 25.8 -18.15 20.25 Q-18.3 17.1 -17.9 14.7 M-27.3 10.8 L-25.05 11.95 Q-25.45 15.8 -24.15 22.85 L-26.45 21.45 Q-27.3 17.4 -27.3 10.8 M-38.3 0.5 Q-36.05 4.55 -32.05 7.65 -32.4 12.5 -31.2 17.8 -33.55 15.5 -34.95 13.25 -37.05 9.95 -37.65 6.4 -37.85 3.55 -38.0 3.5 L-38.0 2.75 -38.3 0.5 M-31.35 -9.85 L-31.85 -7.45 -38.5 -3.75 -38.35 -7.15 Q-37.7 -11.8 -33.35 -16.5 -29.0 -21.25 -22.65 -24.05 -15.9 -27.3 -7.45 -28.3 -0.45 -29.15 7.1 -28.45 L-1.6 -23.85 Q-15.65 -23.25 -24.35 -17.45 -30.15 -13.6 -31.35 -9.85 M40.65 -7.8 L40.65 -7.2 Q40.65 2.95 28.8 10.15 16.95 17.3 0.15 17.3 -7.25 17.3 -14.15 15.75 5.75 2.0 28.55 -9.85 31.55 -6.8 33.0 -3.35 L34.2 -5.9 Q34.75 -8.15 33.15 -10.7 L32.4 -11.85 37.35 -14.3 Q39.5 -11.35 40.65 -7.8" fill="#e7c025" fill-rule="evenodd" stroke="none"/>
      <path d="M-29.65 1.65 Q-28.25 1.65 -27.3 2.25 -26.35 2.8 -26.35 3.65 -26.35 4.5 -27.3 5.05 -28.25 5.65 -29.65 5.65 -31.05 5.65 -32.0 5.05 -33.0 4.5 -33.0 3.65 -33.0 2.85 -32.0 2.25 -31.05 1.65 -29.65 1.65 M-8.55 -11.25 Q-5.6 -11.3 -4.85 -9.75 -4.15 -8.15 -6.05 -5.95 -7.95 -3.7 -11.4 -2.05 -14.8 -0.45 -17.75 -0.4 -20.7 -0.35 -21.45 -1.95 -22.2 -3.5 -20.3 -5.75 -18.35 -8.0 -14.95 -9.6 -11.5 -11.2 -8.55 -11.25 M20.35 2.75 Q28.8 0.6 31.65 -2.35 29.15 2.9 19.75 5.9 11.15 8.6 0.1 8.55 -11.05 8.5 -19.25 5.6 -28.2 2.45 -30.0 -3.0 -22.35 6.05 2.1 5.2 12.0 4.85 20.35 2.75 M22.65 -24.2 Q22.65 -23.55 21.6 -23.15 L19.0 -22.7 Q17.5 -22.7 16.45 -23.15 15.35 -23.55 15.35 -24.2 15.35 -24.8 16.45 -25.25 L19.0 -25.7 21.6 -25.25 Q22.65 -24.8 22.65 -24.2" fill="#ffffff" fill-rule="evenodd" stroke="none"/>
    </g>
  </defs>
</svg>
