<?xml version="1.0" encoding="UTF-8" standalone="no"?>
<svg xmlns:ffdec="https://www.free-decompiler.com/flash" xmlns:xlink="http://www.w3.org/1999/xlink" ffdec:objectType="frame" height="84.1px" width="84.6px" xmlns="http://www.w3.org/2000/svg">
  <g transform="matrix(1.0, 0.0, 0.0, 1.0, 42.3, 84.1)">
    <use ffdec:characterId="840" height="80.7" transform="matrix(1.0, 0.0, 0.0, 1.0, -42.25, -80.7)" width="84.55" xlink:href="#sprite0"/>
  </g>
  <defs>
    <g id="sprite0" transform="matrix(1.0, 0.0, 0.0, 1.0, 42.25, 40.35)">
      <use ffdec:characterId="839" height="80.7" transform="matrix(1.0, 0.0, 0.0, 1.0, -42.25, -40.35)" width="84.55" xlink:href="#shape0"/>
    </g>
    <g id="shape0" transform="matrix(1.0, 0.0, 0.0, 1.0, 42.25, 40.35)">
      <path d="M10.45 8.55 Q17.25 4.15 16.85 1.8 18.15 8.35 20.15 14.5 21.2 17.85 19.15 20.0 17.6 21.6 13.8 22.9 9.5 24.35 5.9 25.2 9.25 23.15 10.3 18.0 11.1 13.95 10.45 8.55" fill="#861419" fill-rule="evenodd" stroke="none"/>
      <path d="M10.3 8.5 L10.3 8.6 10.45 8.55 Q11.1 13.95 10.3 18.0 9.25 23.15 5.9 25.2 L-0.1 26.5 -10.9 27.45 Q-15.0 27.4 -17.0 26.75 -20.35 25.7 -20.7 22.7 -21.25 17.2 -21.95 12.3 L-22.05 11.5 Q-15.65 13.7 -6.0 12.25 -0.65 11.5 10.3 8.5" fill="#b21e22" fill-rule="evenodd" stroke="none"/>
      <path d="M7.15 -27.6 Q13.25 -30.55 13.4 -33.25 L13.45 -33.25 Q14.85 -30.55 9.25 -27.6 6.7 -26.25 2.65 -25.0 3.0 -22.3 3.9 -18.5 5.0 -14.0 7.7 -5.1 9.95 2.95 10.3 8.5 -0.65 11.5 -6.0 12.25 -15.65 13.7 -22.05 11.5 -23.4 3.8 -25.95 -6.45 -28.35 -15.85 -29.85 -20.1 -31.05 -23.55 -31.05 -25.05 -29.6 -22.75 -23.0 -22.2 -16.35 -21.6 -7.8 -23.1 1.05 -24.65 7.15 -27.6" fill="#30304f" fill-rule="evenodd" stroke="none"/>
      <path d="M-8.85 37.25 L-25.25 36.35 Q-35.9 34.45 -38.95 28.85 -41.55 24.1 -35.35 19.2 -31.5 16.15 -24.95 13.5 -24.6 15.5 -24.35 20.35 -23.95 24.7 -22.65 26.85 -21.1 29.35 -16.4 30.15 L-9.0 30.55 Q2.0 32.65 12.25 32.1 24.55 31.4 31.75 26.8 L29.1 28.4 Q13.2 36.85 -8.85 37.25" fill="#565683" fill-rule="evenodd" stroke="none"/>
      <path d="M-9.0 30.55 L-16.4 30.15 Q-21.1 29.35 -22.65 26.85 -23.95 24.7 -24.35 20.35 -24.6 15.5 -24.95 13.5 -31.5 16.15 -35.35 19.2 -41.55 24.1 -38.95 28.85 -35.9 34.45 -25.25 36.35 L-8.85 37.25 Q13.2 36.85 29.1 28.4 L31.75 26.8 Q24.55 31.4 12.25 32.1 2.0 32.65 -9.0 30.55 M8.95 -39.95 Q15.9 -38.9 18.1 -35.65 19.15 -34.15 18.7 -31.95 L17.8 -27.8 Q17.55 -24.1 17.7 -19.35 L18.2 -10.9 19.3 0.7 Q19.6 3.7 19.85 4.15 20.3 4.75 22.95 5.15 L30.75 7.3 Q34.9 8.8 37.95 11.1 46.55 16.6 38.1 25.0 31.9 31.15 23.4 34.4 13.1 38.45 0.95 39.7 L-15.05 40.3 Q-23.8 39.95 -30.8 37.65 -40.15 34.65 -41.9 28.25 -43.7 21.55 -35.7 15.65 -33.2 13.8 -28.5 11.65 -25.95 10.45 -25.75 9.45 -25.7 9.15 -26.4 5.5 -28.5 -4.7 -31.0 -13.35 -33.55 -19.4 -34.3 -22.05 -35.55 -26.55 -32.45 -29.7 -29.05 -33.2 -21.45 -35.95 -14.3 -38.6 -5.95 -39.7 2.6 -40.85 8.95 -39.95 M13.45 -33.25 L13.4 -33.25 13.4 -33.75 Q13.05 -35.65 9.4 -36.7 5.85 -37.65 0.2 -37.55 L-10.15 -36.5 Q-19.9 -34.75 -26.15 -31.45 -31.8 -28.45 -31.35 -25.85 L-31.05 -25.05 Q-31.05 -23.55 -29.85 -20.1 -28.25 -15.65 -25.85 -6.0 -23.2 4.65 -21.95 12.3 -21.25 17.2 -20.7 22.7 -20.35 25.7 -17.0 26.75 -15.0 27.4 -10.9 27.45 -0.05 27.6 13.8 22.9 17.6 21.6 19.15 20.0 21.2 17.85 20.15 14.5 18.15 8.3 16.85 1.8 17.1 3.25 14.35 5.65 L10.3 8.6 Q9.95 3.0 7.7 -5.1 5.0 -14.0 3.9 -18.5 3.0 -22.3 2.65 -25.0 6.7 -26.25 9.25 -27.6 14.85 -30.55 13.45 -33.25" fill="#17172b" fill-rule="evenodd" stroke="none"/>
      <path d="M0.2 -37.55 Q5.85 -37.65 9.4 -36.7 13.05 -35.65 13.4 -33.75 L13.4 -33.25 Q13.25 -30.55 7.15 -27.6 1.05 -24.65 -7.8 -23.1 -16.35 -21.6 -23.0 -22.2 -29.6 -22.75 -31.05 -25.05 L-31.35 -25.85 Q-31.8 -28.45 -26.15 -31.45 -19.9 -34.75 -10.15 -36.5 L0.2 -37.55" fill="#565683" fill-rule="evenodd" stroke="none"/>
    </g>
  </defs>
</svg>
