<?xml version="1.0" encoding="UTF-8" standalone="no"?>
<svg xmlns:ffdec="https://www.free-decompiler.com/flash" xmlns:xlink="http://www.w3.org/1999/xlink" ffdec:objectType="frame" height="86.5px" width="80.1px" xmlns="http://www.w3.org/2000/svg">
  <g transform="matrix(1.0, 0.0, 0.0, 1.0, 40.05, 86.5)">
    <use ffdec:characterId="885" height="81.0" transform="matrix(1.0, 0.0, 0.0, 1.0, -37.95, -81.0)" width="75.9" xlink:href="#sprite0"/>
  </g>
  <defs>
    <g id="sprite0" transform="matrix(1.0, 0.0, 0.0, 1.0, 37.95, 40.5)">
      <use ffdec:characterId="884" height="81.0" transform="matrix(1.0, 0.0, 0.0, 1.0, -37.95, -40.5)" width="75.9" xlink:href="#shape0"/>
    </g>
    <g id="shape0" transform="matrix(1.0, 0.0, 0.0, 1.0, 37.95, 40.5)">
      <path d="M-17.8 -11.4 Q-16.15 -7.3 -11.95 -5.35 L-13.5 -2.2 Q-18.45 -0.2 -25.15 -2.85 -32.55 -5.75 -31.45 -11.6 -25.45 -13.3 -17.8 -11.4" fill="#f8e8ed" fill-rule="evenodd" stroke="none"/>
      <path d="M-35.15 -8.65 Q-34.0 -10.3 -32.6 -10.95 -32.65 -3.85 -24.45 -1.5 -17.35 0.6 -14.0 -1.5 L-18.0 4.05 Q-19.45 5.85 -19.05 9.3 -18.85 10.85 -17.95 12.6 L-16.85 14.4 Q-25.8 11.95 -31.95 3.85 -37.05 -2.75 -36.4 -6.25 -36.2 -7.2 -35.15 -8.65" fill="#5a5a5a" fill-rule="evenodd" stroke="none"/>
      <path d="M24.2 12.45 L26.25 13.8 Q26.55 17.85 22.65 21.1 19.15 24.05 15.15 24.3 13.9 23.0 13.4 22.1 13.6 23.2 13.95 23.65 L12.9 23.2 8.95 21.3 8.2 20.55 14.05 16.0 Q17.55 13.2 18.7 10.5 L18.8 10.5 19.45 10.4 Q21.1 10.4 24.2 12.45" fill="#efafc0" fill-rule="evenodd" stroke="none"/>
      <path d="M-10.65 -4.9 L-8.7 -4.5 Q-8.7 -2.6 -8.85 -1.55 L-10.8 -1.7 -11.35 -1.85 -10.65 -4.9" fill="#ce8da0" fill-rule="evenodd" stroke="none"/>
      <path d="M14.8 -34.25 Q19.45 -30.2 21.15 -24.3 23.0 -18.3 21.05 -13.1 19.45 -7.55 15.05 -2.5 L14.25 -3.95 Q13.6 -4.9 12.45 -5.6 11.25 -6.3 10.0 -6.4 13.3 -10.85 13.3 -15.65 L8.05 -8.5 Q4.9 -4.2 2.25 -1.75 L2.05 -1.7 1.6 -1.6 -3.05 -1.4 -8.85 -1.55 Q-8.7 -2.6 -8.7 -4.5 L-7.4 -4.45 Q-2.7 -4.45 0.5 -7.75 3.8 -10.95 3.8 -15.65 3.8 -20.3 0.5 -23.6 -2.7 -26.9 -7.4 -26.9 -12.05 -26.9 -15.3 -23.6 -18.6 -20.3 -18.6 -15.65 -18.6 -13.75 -18.0 -12.0 L-26.2 -12.85 -31.1 -12.3 Q-25.5 -21.4 -16.15 -28.85 -5.6 -37.15 4.4 -38.55 7.5 -38.05 14.8 -34.25" fill="#efafc0" fill-rule="evenodd" stroke="none"/>
      <path d="M10.0 -6.4 L9.5 -6.4 8.65 -6.25 8.05 -6.25 7.7 -5.8 5.85 -4.15 3.85 -2.65 2.85 -2.0 2.25 -1.75 Q4.9 -4.2 8.05 -8.5 L13.3 -15.65 Q13.3 -10.85 10.0 -6.4" fill="#ce8da0" fill-rule="evenodd" stroke="none"/>
      <path d="M25.45 -27.85 Q30.85 -24.2 32.55 -21.65 31.05 -16.7 26.0 -8.15 21.3 -0.2 18.2 3.2 L16.8 4.7 Q17.05 1.25 15.05 -2.5 19.45 -7.55 21.05 -13.1 23.0 -18.3 21.15 -24.3 19.45 -30.2 14.8 -34.25 20.7 -31.15 25.45 -27.85" fill="#ce8da0" fill-rule="evenodd" stroke="none"/>
      <path d="M29.6 15.15 Q30.9 15.15 33.7 13.65 L31.8 16.55 Q29.35 19.3 27.25 20.7 L23.75 23.2 Q21.0 25.0 19.05 25.85 18.45 26.1 16.85 25.85 L15.15 24.3 Q19.15 24.05 22.65 21.1 26.55 17.85 26.25 13.8 L27.3 14.45 27.45 14.5 29.6 15.15" fill="#ce8da0" fill-rule="evenodd" stroke="none"/>
      <path d="M14.9 34.2 L18.25 35.2 18.15 32.95 Q16.0 33.55 14.9 34.2 M19.3 27.1 Q19.9 29.3 19.95 31.15 L22.85 30.55 Q22.05 29.15 19.7 26.9 L19.3 27.1 M-17.8 -11.4 Q-25.45 -13.3 -31.45 -11.6 -32.55 -5.75 -25.15 -2.85 -18.45 -0.2 -13.5 -2.2 L-11.95 -5.35 Q-16.15 -7.3 -17.8 -11.4 M-32.6 -10.95 Q-34.0 -10.3 -35.15 -8.65 -36.2 -7.2 -36.4 -6.25 -37.05 -2.75 -31.95 3.85 -25.8 11.95 -16.85 14.4 L-17.95 12.6 Q-18.85 10.85 -19.05 9.3 -19.45 5.85 -18.0 4.05 L-14.0 -1.5 Q-17.35 0.6 -24.45 -1.5 -32.65 -3.85 -32.6 -10.95 M-0.7 -9.05 Q2.0 -11.75 2.05 -15.65 2.0 -19.55 -0.7 -22.3 -3.5 -25.0 -7.4 -25.1 -11.3 -25.0 -14.05 -22.3 -16.8 -19.55 -16.85 -15.65 -16.8 -11.75 -14.05 -9.05 -11.3 -6.25 -7.4 -6.25 -3.5 -6.25 -0.7 -9.05 M25.1 13.05 L24.2 12.45 Q21.1 10.4 19.45 10.4 L18.8 10.5 18.7 10.5 Q17.55 13.2 14.05 16.0 L8.2 20.55 8.95 21.3 12.9 23.2 13.95 23.65 Q13.6 23.2 13.4 22.1 L15.1 24.3 16.85 25.85 Q18.45 26.1 19.05 25.85 21.0 25.0 23.75 23.2 L27.25 20.7 Q29.35 19.3 31.8 16.55 L33.7 13.65 Q30.9 15.15 29.6 15.15 L27.45 14.5 27.3 14.45 25.1 13.05 M32.55 -21.65 Q29.9 -25.65 19.0 -31.9 8.65 -37.85 4.4 -38.55 -5.6 -37.15 -16.15 -28.85 -25.5 -21.4 -31.1 -12.3 L-26.2 -12.85 -18.0 -12.0 Q-18.6 -13.75 -18.6 -15.65 -18.6 -20.3 -15.3 -23.6 -12.05 -26.9 -7.4 -26.9 -2.7 -26.9 0.5 -23.6 3.8 -20.3 3.8 -15.65 3.8 -10.95 0.5 -7.75 -2.7 -4.45 -7.4 -4.45 L-10.65 -4.9 -11.35 -1.85 -10.8 -1.7 -3.05 -1.4 1.6 -1.6 2.05 -1.7 2.85 -2.0 3.85 -2.65 5.85 -4.15 7.7 -5.8 8.05 -6.25 8.65 -6.25 9.5 -6.4 Q10.85 -6.45 12.25 -5.75 13.55 -5.05 14.25 -3.95 17.1 0.65 16.8 4.7 L18.2 3.2 Q21.3 -0.2 26.0 -8.15 31.05 -16.7 32.55 -21.65 M23.05 -32.05 Q32.45 -26.2 34.65 -22.75 34.9 -19.2 29.5 -9.55 24.45 -0.6 20.15 4.15 16.9 7.65 13.15 10.65 L10.9 12.25 10.85 12.25 11.3 13.15 11.75 12.75 Q14.65 10.3 16.95 9.35 17.9 8.85 19.6 8.85 21.3 8.85 22.25 9.35 23.6 9.85 25.8 11.2 L28.8 13.15 Q29.75 13.75 30.65 13.15 L37.95 9.35 Q37.35 11.55 35.9 14.2 33.05 19.5 28.9 21.85 23.95 25.15 22.35 25.8 L23.9 28.25 25.5 30.65 Q25.75 31.3 24.55 31.6 L20.0 32.55 Q20.05 34.9 19.0 40.5 L12.4 40.5 Q12.4 39.9 12.65 39.35 13.1 38.3 14.2 38.7 L16.95 38.9 Q18.25 37.85 18.25 36.05 L16.15 36.7 14.65 35.8 Q13.8 35.0 12.5 34.55 12.15 34.45 12.25 34.1 L12.8 33.65 18.0 31.55 Q17.9 30.5 17.3 29.2 L16.2 26.7 15.25 25.55 Q4.15 21.35 3.25 19.85 L-0.65 10.5 -0.25 9.3 3.35 5.6 Q5.35 3.4 6.45 1.25 7.8 -1.25 7.95 -3.4 L7.55 -3.1 Q6.6 -2.25 5.3 -1.55 L4.05 -0.85 2.95 -0.4 2.0 -0.25 -8.95 -0.65 -11.75 -0.95 -15.7 4.65 Q-16.65 5.95 -16.65 7.6 -16.45 9.55 -15.7 10.85 L-14.4 13.65 Q-14.2 14.0 -14.35 14.4 -14.45 15.65 -16.25 15.85 L-17.75 15.75 -18.4 15.55 -19.7 15.1 -22.45 14.05 Q-24.9 13.05 -27.8 11.05 -32.6 7.55 -35.75 1.35 -38.7 -4.4 -37.7 -6.6 L-36.1 -9.05 Q-34.0 -11.1 -32.35 -11.95 -29.5 -20.0 -19.3 -29.0 -7.35 -39.6 4.5 -40.5 12.7 -38.5 23.05 -32.05" fill="#9b4c62" fill-rule="evenodd" stroke="none"/>
      <path d="M-0.9 -15.85 Q-0.9 -18.5 -2.8 -20.45 -4.7 -22.3 -7.35 -22.3 -10.05 -22.3 -11.95 -20.45 -13.9 -18.5 -13.9 -15.85 -13.9 -13.2 -11.95 -11.3 -10.05 -9.4 -7.35 -9.4 -4.7 -9.4 -2.8 -11.3 -0.9 -13.2 -0.9 -15.85 M2.05 -15.65 Q2.0 -11.75 -0.7 -9.05 -3.5 -6.25 -7.4 -6.25 -11.3 -6.25 -14.05 -9.05 -16.8 -11.75 -16.85 -15.65 -16.8 -19.55 -14.05 -22.3 -11.3 -25.0 -7.4 -25.1 -3.5 -25.0 -0.7 -22.3 2.0 -19.55 2.05 -15.65" fill="#ffffff" fill-rule="evenodd" stroke="none"/>
      <path d="M-0.9 -15.85 Q-0.9 -13.2 -2.8 -11.3 -4.7 -9.4 -7.35 -9.4 -10.05 -9.4 -11.95 -11.3 -13.9 -13.2 -13.9 -15.85 -13.9 -18.5 -11.95 -20.45 -10.05 -22.3 -7.35 -22.3 -4.7 -22.3 -2.8 -20.45 -0.9 -18.5 -0.9 -15.85 M-3.35 -16.75 Q-2.85 -17.3 -2.85 -18.0 -2.85 -18.7 -3.35 -19.2 -3.85 -19.75 -4.6 -19.75 -5.3 -19.75 -5.8 -19.2 -6.3 -18.7 -6.3 -18.0 -6.3 -17.3 -5.8 -16.75 -5.3 -16.3 -4.6 -16.3 -3.85 -16.3 -3.35 -16.75" fill="#3f3c3d" fill-rule="evenodd" stroke="none"/>
      <path d="M-4.6 -16.3 Q-5.3 -16.3 -5.8 -16.75 -6.3 -17.3 -6.3 -18.0 -6.3 -18.7 -5.8 -19.2 -5.3 -19.75 -4.6 -19.75 -3.85 -19.75 -3.35 -19.2 -2.85 -18.7 -2.85 -18.0 -2.85 -17.3 -3.35 -16.75 -3.85 -16.3 -4.6 -16.3" fill="#ffffff" fill-rule="evenodd" stroke="none"/>
    </g>
  </defs>
</svg>
