<?xml version="1.0" encoding="UTF-8" standalone="no"?>
<svg xmlns:ffdec="https://www.free-decompiler.com/flash" xmlns:xlink="http://www.w3.org/1999/xlink" ffdec:objectType="frame" height="86.5px" width="80.1px" xmlns="http://www.w3.org/2000/svg">
  <g transform="matrix(1.0, 0.0, 0.0, 1.0, 40.05, 86.5)">
    <use ffdec:characterId="891" height="81.9" transform="matrix(1.0, 0.0, 0.0, 1.0, -40.0, -81.9)" width="80.0" xlink:href="#sprite0"/>
  </g>
  <defs>
    <g id="sprite0" transform="matrix(1.0, 0.0, 0.0, 1.0, 40.0, 40.95)">
      <use ffdec:characterId="890" height="81.9" transform="matrix(1.0, 0.0, 0.0, 1.0, -40.0, -40.95)" width="80.0" xlink:href="#shape0"/>
    </g>
    <g id="shape0" transform="matrix(1.0, 0.0, 0.0, 1.0, 40.0, 40.95)">
      <path d="M-36.1 15.6 L-37.3 13.75 Q-38.35 11.5 -38.25 9.1 -38.2 6.3 -36.55 4.45 -36.55 7.25 -34.5 9.4 L-32.95 10.9 Q-31.25 12.2 -29.5 12.8 -28.05 14.4 -29.7 16.35 -31.45 18.25 -34.55 16.85 -35.4 16.4 -36.1 15.6" fill="#efefd8" fill-rule="evenodd" stroke="none"/>
      <path d="M1.2 39.6 L1.55 38.55 Q3.05 33.95 3.45 31.25 6.2 30.85 8.85 33.35 L8.35 39.6 2.05 39.75 1.2 39.6 M29.1 -21.1 Q32.9 -12.4 31.55 -1.3 30.25 9.3 24.9 17.65 19.25 24.25 10.25 24.8 1.45 25.3 -4.7 19.85 L-7.5 13.95 -5.0 11.9 Q-2.05 10.2 -0.2 7.75 L0.2 7.35 -0.15 7.65 Q2.15 4.5 2.45 0.5 2.7 -3.4 1.0 -7.6 -0.95 3.65 -12.7 12.1 -23.7 19.95 -35.35 20.3 L-37.8 18.0 -36.75 16.55 -35.55 17.6 Q-32.7 19.55 -29.45 16.75 -26.25 13.9 -28.1 12.5 -30.9 11.0 -32.25 9.6 L-30.05 5.25 Q-29.45 3.7 -29.35 2.9 L-29.1 0.85 -28.5 -3.55 -27.2 -12.65 -27.2 -12.85 -26.8 -15.65 -26.8 -15.75 -26.05 -16.45 -22.65 -20.65 -20.85 -20.75 -18.65 -21.3 -17.5 -21.8 Q-16.35 -21.0 -14.35 -20.35 L-16.75 -23.0 -16.9 -23.2 -17.65 -23.4 -17.85 -23.4 -18.25 -23.3 -21.05 -22.75 -21.15 -22.75 -23.65 -22.7 -25.2 -23.1 Q-26.4 -23.5 -27.25 -24.75 -28.1 -26.1 -28.25 -27.65 -28.65 -32.0 -26.3 -35.6 L-24.85 -37.65 -24.6 -37.9 -24.6 -36.7 Q-24.3 -31.85 -19.8 -27.95 L-18.2 -26.65 -18.05 -26.6 Q-16.3 -25.35 -14.5 -24.7 L-10.9 -23.8 -16.95 -28.25 -17.0 -28.35 -11.7 -35.2 -9.05 -38.0 Q-8.45 -38.05 -6.45 -37.0 1.4 -25.75 -3.0 -16.9 -0.05 -19.85 1.6 -23.4 3.25 -27.2 3.2 -30.85 L6.1 -31.6 7.3 -29.8 Q7.9 -27.65 7.85 -26.15 7.65 -24.2 6.3 -22.2 13.3 -20.5 15.6 -27.55 L15.4 -29.15 15.95 -29.35 19.6 -30.35 19.85 -30.35 22.0 -28.55 Q25.8 -25.15 29.1 -21.1" fill="#c6d3aa" fill-rule="evenodd" stroke="none"/>
      <path d="M-34.8 20.85 L-35.35 20.3 Q-23.7 19.95 -12.7 12.1 -0.95 3.65 1.0 -7.6 2.7 -3.4 2.45 0.5 2.15 4.5 -0.15 7.65 L-7.9 13.2 -7.95 13.2 -15.55 18.35 -23.9 23.5 Q-26.9 25.2 -28.7 25.85 L-30.3 26.45 -31.95 24.1 Q-33.4 22.25 -34.8 20.85 M2.25 -30.6 L3.2 -30.85 Q3.25 -27.2 1.6 -23.4 -0.05 -19.85 -3.0 -16.9 1.4 -25.75 -6.45 -37.0 L-5.85 -36.6 Q-3.05 -34.7 0.4 -31.65 L1.25 -30.85 2.25 -30.6 M29.1 -21.1 L29.25 -20.95 Q34.6 -14.3 36.75 -8.05 L37.75 -4.0 37.8 -2.15 37.4 0.05 Q36.35 4.65 34.8 8.9 33.3 13.15 31.25 17.55 L29.15 21.8 Q27.9 24.4 27.2 26.55 27.2 29.9 27.55 35.9 L27.75 39.4 21.4 39.45 21.8 38.4 Q22.9 35.35 22.8 31.15 L22.7 29.55 22.65 29.15 22.65 29.05 21.4 28.15 21.35 28.15 21.2 28.25 17.95 28.55 13.75 28.7 10.9 28.55 10.65 28.5 10.55 28.5 9.1 29.5 9.1 30.25 8.85 33.35 Q6.2 30.85 3.45 31.25 3.8 29.15 3.3 28.35 L0.95 27.5 Q-0.45 26.95 -1.25 26.15 L-0.4 27.1 Q1.0 28.65 2.5 29.3 2.9 30.25 2.5 30.7 L0.6 30.75 -0.55 39.45 -5.8 39.4 -5.4 38.6 Q-4.0 35.7 -3.2 32.3 -2.2 28.1 -2.8 25.25 L-3.0 24.45 -4.7 19.85 Q1.45 25.3 10.25 24.8 19.25 24.25 24.9 17.65 30.25 9.3 31.55 -1.3 32.9 -12.4 29.1 -21.1 M15.4 -29.15 L15.6 -27.55 Q13.3 -20.5 6.3 -22.2 7.65 -24.2 7.85 -26.15 7.9 -27.65 7.3 -29.8 L8.55 -27.8 8.65 -27.65 8.7 -27.6 8.65 -27.6 9.9 -27.2 10.05 -27.2 15.4 -29.15" fill="#97a777" fill-rule="evenodd" stroke="none"/>
      <path d="M12.5 11.5 Q12.5 10.75 12.05 10.15 11.55 9.55 10.85 9.4 L11.3 9.35 Q12.5 9.35 13.4 10.3 14.3 11.15 14.3 12.35 14.3 13.6 13.4 14.45 12.5 15.35 11.3 15.35 10.05 15.35 9.15 14.45 8.3 13.6 8.3 12.35 L8.3 11.95 Q8.45 12.7 9.05 13.15 9.65 13.6 10.35 13.6 11.3 13.6 11.9 13.0 12.5 12.4 12.5 11.5 M22.9 11.7 Q25.25 11.7 26.9 13.35 28.55 15.05 28.55 17.35 28.55 19.65 26.9 21.3 25.25 23.0 22.9 23.0 20.65 23.0 19.0 21.45 L19.25 22.65 Q19.25 24.2 18.2 25.25 17.15 26.3 15.6 26.3 14.1 26.3 13.0 25.25 11.95 24.2 11.95 22.65 L11.95 22.1 Q12.15 23.05 12.9 23.6 13.6 24.2 14.5 24.2 15.6 24.2 16.35 23.45 17.1 22.7 17.1 21.6 17.1 20.7 16.5 20.0 15.95 19.25 15.0 19.05 L15.6 19.0 Q16.8 19.0 17.8 19.8 17.3 18.6 17.3 17.35 L17.35 16.55 Q17.6 17.85 18.75 18.8 19.8 19.65 21.25 19.65 22.9 19.65 24.05 18.55 25.25 17.35 25.25 15.65 25.25 14.3 24.3 13.15 23.4 12.1 22.05 11.8 L22.9 11.7 M16.3 7.35 L16.3 6.85 Q16.5 7.75 17.2 8.3 17.95 8.9 18.8 8.9 19.95 8.9 20.65 8.15 21.4 7.45 21.4 6.3 21.4 5.45 20.8 4.7 20.25 3.95 19.35 3.75 L19.95 3.7 Q21.45 3.7 22.5 4.75 23.6 5.9 23.6 7.35 23.6 8.9 22.5 9.95 21.45 11.0 19.95 11.0 18.4 11.0 17.35 9.95 16.3 8.9 16.3 7.35 M28.9 3.05 Q30.85 3.05 32.15 4.45 33.55 5.85 33.55 7.7 33.55 9.6 32.15 11.0 30.85 12.35 28.9 12.35 27.0 12.35 25.6 11.0 24.25 9.6 24.25 7.7 L24.3 7.05 Q24.5 8.15 25.45 8.9 26.3 9.6 27.5 9.6 28.85 9.6 29.85 8.7 30.75 7.7 30.75 6.35 30.75 5.15 30.05 4.3 29.3 3.35 28.15 3.15 L28.9 3.05 M31.7 -6.65 Q32.55 -5.8 32.55 -4.6 32.55 -3.35 31.7 -2.5 30.75 -1.6 29.55 -1.6 28.3 -1.6 27.45 -2.5 26.6 -3.35 26.6 -4.6 L26.6 -5.0 Q26.7 -4.25 27.3 -3.8 27.9 -3.35 28.65 -3.35 29.55 -3.35 30.15 -3.95 30.75 -4.55 30.75 -5.45 L30.3 -6.8 Q29.85 -7.4 29.1 -7.55 L29.55 -7.6 Q30.75 -7.6 31.7 -6.65 M17.6 -10.25 L17.6 -10.65 Q17.75 -9.9 18.35 -9.45 18.95 -9.0 19.65 -9.0 20.6 -9.0 21.2 -9.6 21.8 -10.2 21.8 -11.1 21.8 -11.85 21.35 -12.45 20.85 -13.05 20.15 -13.2 L20.6 -13.25 Q21.8 -13.25 22.7 -12.3 23.6 -11.45 23.6 -10.25 23.6 -9.0 22.7 -8.15 21.8 -7.25 20.6 -7.25 19.35 -7.25 18.45 -8.15 17.6 -9.0 17.6 -10.25" fill="#97a777" fill-rule="evenodd" stroke="none"/>
      <path d="M-29.7 16.35 Q-28.05 14.4 -29.5 12.8 -31.25 12.2 -32.95 10.9 L-34.5 9.4 Q-36.55 7.25 -36.55 4.45 -38.2 6.3 -38.25 9.1 -38.35 11.5 -37.3 13.75 L-36.1 15.6 Q-35.4 16.4 -34.55 16.85 -31.45 18.25 -29.7 16.35 M19.6 -30.35 L15.95 -29.35 10.05 -27.2 9.9 -27.2 8.65 -27.6 8.7 -27.6 8.65 -27.65 8.55 -27.8 6.1 -31.6 2.25 -30.6 1.25 -30.85 0.4 -31.65 Q-3.05 -34.7 -5.85 -36.6 -8.05 -38.1 -9.05 -38.0 L-11.7 -35.2 -17.0 -28.35 -16.95 -28.25 -10.9 -23.8 -14.5 -24.7 Q-16.3 -25.35 -18.05 -26.6 L-18.2 -26.65 -19.8 -27.95 Q-24.3 -31.85 -24.6 -36.7 L-24.6 -37.9 -24.85 -37.65 -26.3 -35.6 Q-28.65 -32.0 -28.25 -27.65 -28.1 -26.1 -27.25 -24.75 -26.4 -23.5 -25.2 -23.1 L-23.65 -22.7 -21.15 -22.75 -21.05 -22.75 -18.25 -23.3 -17.85 -23.4 -17.65 -23.4 -16.9 -23.2 -16.75 -23.0 -14.35 -20.35 Q-16.35 -21.0 -17.5 -21.8 L-18.65 -21.3 -20.85 -20.75 -22.65 -20.65 -26.05 -16.45 -26.8 -15.75 -26.8 -15.65 -27.2 -12.85 -27.2 -12.65 -28.5 -3.55 -29.1 0.85 -29.35 2.9 Q-29.45 3.7 -30.05 5.25 L-32.25 9.6 Q-30.9 11.0 -28.1 12.5 -26.25 13.9 -29.45 16.75 -32.7 19.55 -35.55 17.6 L-36.75 16.55 -37.8 18.0 -36.8 18.95 -34.8 20.85 Q-33.4 22.25 -31.95 24.1 L-30.3 26.45 -28.7 25.85 Q-26.9 25.2 -23.9 23.5 L-15.55 18.35 0.2 7.35 -0.45 10.6 Q-1.95 14.6 -5.5 18.05 -3.7 22.25 -3.0 24.45 -2.15 27.25 -3.05 31.85 -3.85 35.4 -5.4 38.6 L-5.8 39.4 -0.55 39.45 0.6 30.75 2.5 30.7 Q2.9 30.25 2.5 29.3 0.85 28.55 -1.25 26.15 -0.45 26.95 0.95 27.5 L3.3 28.35 Q4.0 29.55 3.0 33.6 L1.55 38.55 1.2 39.6 2.05 39.75 8.35 39.6 9.1 29.5 10.55 28.5 10.65 28.5 10.9 28.55 13.75 28.7 17.95 28.55 21.2 28.25 21.35 28.15 21.4 28.15 22.65 29.05 22.65 29.15 22.7 29.55 22.8 31.15 Q22.9 35.35 21.8 38.4 L21.4 39.45 27.75 39.4 27.55 35.9 Q27.2 29.9 27.2 26.55 27.9 24.4 29.15 21.8 L31.25 17.55 Q33.3 13.15 34.8 8.9 36.35 4.65 37.4 0.05 L37.8 -2.15 37.75 -4.0 36.75 -8.05 Q34.6 -14.3 29.25 -20.95 25.8 -25.15 22.0 -28.55 L19.85 -30.35 19.6 -30.35 M19.6 -32.35 L20.0 -32.4 20.15 -32.4 20.75 -32.2 20.85 -32.15 21.05 -32.0 23.4 -30.0 Q27.45 -26.2 30.75 -22.2 36.4 -15.25 38.65 -8.75 L39.75 -4.25 39.8 -1.75 39.4 0.5 Q38.65 4.05 37.3 8.1 L36.55 10.7 Q35.95 12.6 35.7 13.9 34.9 17.85 36.95 19.95 L37.95 20.65 39.15 21.9 Q40.6 23.7 39.55 26.95 L39.35 27.45 Q39.85 30.55 37.55 32.95 35.4 35.15 31.75 35.75 32.8 35.15 32.5 33.2 32.05 30.75 32.3 30.05 32.9 28.55 34.55 27.5 36.2 26.45 37.6 26.55 L37.6 26.45 38.05 25.0 Q38.35 23.8 37.8 23.1 L36.2 21.65 35.3 21.05 Q33.75 19.75 33.35 17.65 L29.25 26.65 29.55 35.75 29.9 40.15 29.9 40.35 29.45 40.95 12.8 40.95 Q16.2 38.35 14.9 30.75 L13.75 30.75 11.05 30.65 10.1 40.45 10.1 40.55 9.7 40.95 -7.85 40.95 -8.35 39.95 -8.3 39.8 -8.1 39.55 -7.25 37.75 Q-5.9 34.9 -5.1 31.3 -4.2 27.05 -4.9 25.05 -5.9 22.05 -8.25 16.85 L-8.9 15.05 -14.75 19.6 Q-19.25 22.9 -23.0 25.1 L-27.95 27.7 -29.35 28.25 -30.3 28.5 -30.45 28.5 -30.45 28.55 Q-30.85 28.35 -31.55 28.1 L-31.75 27.75 -33.55 25.4 Q-34.2 24.4 -36.3 22.25 L-39.85 18.95 -40.0 17.45 -39.95 17.4 -39.8 17.2 -39.55 16.95 -38.05 14.85 Q-40.05 11.9 -40.0 8.55 -39.85 4.3 -36.2 0.5 -35.75 0.5 -34.3 1.25 -35.2 5.25 -33.6 7.9 L-31.9 4.5 Q-31.3 1.85 -30.65 -3.2 L-29.35 -11.8 -31.5 -12.4 Q-32.9 -12.8 -34.75 -14.7 -37.1 -17.05 -37.6 -19.85 -38.55 -23.75 -37.5 -27.25 L-36.8 -29.4 -36.7 -29.65 -36.7 -29.75 -34.75 -29.15 -34.75 -28.95 -34.8 -28.55 -34.8 -27.45 Q-34.7 -26.15 -34.2 -25.3 -32.9 -22.35 -28.05 -19.95 L-26.4 -19.25 -25.05 -20.9 -26.0 -21.15 Q-27.7 -21.75 -28.95 -23.7 -30.1 -25.5 -30.25 -27.4 -30.5 -30.65 -29.3 -34.0 L-28.1 -36.65 -26.3 -38.95 Q-25.05 -40.35 -23.85 -40.95 L-23.8 -40.95 -22.35 -39.9 -22.35 -39.75 -22.4 -39.55 -22.45 -39.15 -22.6 -36.85 Q-22.45 -33.1 -18.6 -29.6 L-13.3 -36.5 -11.75 -38.25 Q-10.85 -39.25 -9.55 -39.9 -7.95 -40.05 -6.7 -39.45 L-4.7 -38.3 Q-2.35 -36.65 1.8 -33.1 L2.25 -32.7 Q2.4 -32.7 2.45 -32.8 L6.25 -33.7 6.3 -33.7 7.45 -33.25 9.85 -29.55 9.95 -29.4 10.95 -29.75 15.35 -31.25 19.35 -32.35 19.6 -32.35" fill="#656647" fill-rule="evenodd" stroke="none"/>
      <path d="M-21.95 11.95 L-26.5 9.15 -12.75 -7.55 -9.85 -1.2 Q-7.7 5.85 -12.1 9.9 -16.5 13.95 -21.95 11.95 M-16.6 1.0 L-22.8 7.75 Q-21.4 9.0 -19.55 8.95 -17.65 8.9 -16.35 7.5 -15.0 6.1 -15.1 4.15 -15.15 2.25 -16.6 1.0" fill="#7b3136" fill-rule="evenodd" stroke="none"/>
      <path d="M-22.8 7.75 L-16.6 1.0 Q-15.15 2.25 -15.1 4.15 -15.0 6.1 -16.35 7.5 -17.65 8.9 -19.55 8.95 -21.4 9.0 -22.8 7.75" fill="#ffffff" fill-rule="evenodd" stroke="none"/>
    </g>
  </defs>
</svg>
