<?xml version="1.0" encoding="UTF-8" standalone="no"?>
<svg xmlns:ffdec="https://www.free-decompiler.com/flash" xmlns:xlink="http://www.w3.org/1999/xlink" ffdec:objectType="frame" height="80.8px" width="80.6px" xmlns="http://www.w3.org/2000/svg">
  <g transform="matrix(1.0, 0.0, 0.0, 1.0, 40.3, 80.8)">
    <use ffdec:characterId="974" height="71.7" transform="matrix(1.0, 0.0, 0.0, 1.0, -40.0, -71.7)" width="80.0" xlink:href="#sprite0"/>
  </g>
  <defs>
    <g id="sprite0" transform="matrix(1.0, 0.0, 0.0, 1.0, 40.0, 35.85)">
      <use ffdec:characterId="973" height="71.7" transform="matrix(1.0, 0.0, 0.0, 1.0, -40.0, -35.85)" width="80.0" xlink:href="#shape0"/>
    </g>
    <g id="shape0" transform="matrix(1.0, 0.0, 0.0, 1.0, 40.0, 35.85)">
      <path d="M28.05 -7.7 L29.05 -5.7 32.9 2.8 Q34.45 6.5 34.15 6.9 34.6 9.6 34.35 13.35 33.6 22.0 29.75 25.85 29.4 27.85 28.35 29.85 27.25 31.85 25.75 33.35 23.2 35.75 20.5 35.75 L19.1 35.55 17.2 35.85 Q15.8 35.85 14.6 35.25 L11.9 35.7 Q10.0 35.7 7.35 34.8 6.35 34.5 4.7 33.45 L3.6 32.85 3.45 32.85 1.45 33.1 0.7 33.05 Q-1.2 32.85 -4.1 31.3 -5.85 30.45 -6.3 30.35 L-7.35 30.05 Q-10.9 29.0 -12.8 27.55 L-12.9 27.55 Q-15.5 27.5 -18.75 25.95 -22.1 24.45 -24.0 22.2 -26.25 21.85 -27.55 19.75 -28.35 18.55 -29.0 16.15 L-29.75 13.95 Q-30.1 13.05 -31.0 11.5 L-32.35 8.85 Q-33.1 7.05 -33.3 5.1 -35.1 2.75 -35.6 -0.9 -35.8 -3.0 -35.25 -4.3 -34.9 -6.7 -33.85 -8.8 -30.9 -14.95 -23.35 -18.05 -20.8 -19.15 -17.85 -19.7 L-9.95 -20.7 -2.55 -21.55 Q24.05 -15.5 28.05 -7.7" fill="#b7b4ae" fill-rule="evenodd" stroke="none"/>
      <path d="M-28.6 9.4 Q-29.65 7.55 -29.95 5.9 L-28.55 6.0 Q-25.3 9.35 -13.4 13.25 -0.8 17.35 4.8 16.0 5.65 14.15 11.3 16.85 17.0 19.55 16.8 22.4 L18.6 22.5 Q19.3 22.85 19.6 23.7 20.2 25.95 18.9 27.65 17.7 29.3 15.25 29.85 15.6 30.6 15.1 31.75 L14.75 31.4 Q13.75 32.7 11.85 32.65 10.55 32.65 8.35 31.9 L6.3 30.8 Q4.95 29.95 4.25 29.8 L2.65 29.85 1.1 30.05 -2.15 28.85 -5.35 27.4 -8.6 26.4 Q-10.35 25.7 -11.75 24.3 -13.45 25.0 -17.35 23.25 -21.3 21.4 -22.4 19.2 -24.35 19.6 -25.25 17.4 -26.15 14.45 -26.8 12.85 L-28.6 9.4" fill="#ddd9d3" fill-rule="evenodd" stroke="none"/>
      <path d="M7.8 29.85 Q6.7 29.35 6.55 28.5 6.4 27.7 7.25 26.95 8.2 26.25 9.55 26.05 11.0 25.9 12.05 26.4 13.15 26.9 13.3 27.75 13.5 28.55 12.6 29.3 11.7 30.0 10.3 30.2 L7.8 29.85 M-7.1 22.15 Q-5.6 21.4 -3.5 21.55 -1.35 21.7 0.1 22.7 1.6 23.7 1.55 24.95 1.55 26.2 0.05 26.95 -1.4 27.75 -3.55 27.6 -5.6 27.45 -7.1 26.45 -8.55 25.45 -8.55 24.2 -8.55 22.95 -7.1 22.15 M-27.75 11.05 Q-27.75 9.8 -26.25 9.0 -24.8 8.25 -22.7 8.4 -20.55 8.55 -19.1 9.55 -17.6 10.55 -17.65 11.8 L-17.9 12.75 -17.75 12.8 Q-17.3 11.85 -15.95 11.3 L-12.8 10.85 Q-10.7 11.05 -9.25 12.0 -7.75 13.0 -7.75 14.25 L-8.0 15.1 Q-6.85 14.35 -5.2 14.5 -3.65 14.6 -2.55 15.4 -1.45 16.2 -1.45 17.25 -1.5 18.3 -2.6 18.9 -3.7 19.55 -5.25 19.45 -6.8 19.35 -7.9 18.5 -9.0 17.7 -8.95 16.7 L-8.8 16.05 Q-10.45 17.1 -12.9 16.9 L-15.3 16.35 Q-15.55 16.95 -16.15 17.5 L-13.05 17.15 Q-10.95 17.3 -9.5 18.3 -8.0 19.25 -8.0 20.5 -8.05 21.75 -9.55 22.55 -11.0 23.3 -13.15 23.2 -15.25 23.0 -16.7 22.05 -18.15 21.0 -18.15 19.75 L-17.85 18.7 -18.3 18.95 Q-20.2 19.75 -21.9 19.6 -23.65 19.35 -24.2 18.2 -24.65 17.35 -24.2 16.3 -23.85 15.3 -22.75 14.45 -24.9 14.25 -26.3 13.3 -27.75 12.3 -27.75 11.05" fill="#fcf9f2" fill-rule="evenodd" stroke="none"/>
      <path d="M-3.2 -35.85 Q-4.85 -33.25 -4.4 -29.9 -3.5 -23.15 6.9 -19.2 17.35 -15.25 25.35 -15.35 29.3 -15.35 31.2 -16.2 L33.05 -13.5 Q35.25 -9.45 37.25 -2.5 39.2 4.45 39.8 11.2 L40.0 16.6 37.6 16.15 Q34.5 14.9 30.5 11.0 L26.75 11.4 Q26.3 13.1 24.95 14.75 22.3 18.1 18.05 18.05 12.75 18.0 10.75 14.55 L9.8 11.15 7.65 10.95 Q7.35 11.95 6.2 12.8 3.85 14.5 -0.45 14.05 -4.7 13.6 -6.95 10.1 L-8.35 6.7 -12.5 4.95 Q-13.35 5.65 -14.9 6.05 -17.9 6.75 -21.05 4.95 -24.25 3.15 -25.0 -0.05 L-25.2 -2.95 -26.95 -4.9 Q-28.4 -4.0 -30.4 -3.7 -34.35 -3.1 -37.15 -6.0 -41.2 -10.3 -39.5 -14.25 L-37.9 -16.5 -36.95 -17.35 Q-37.4 -17.95 -37.05 -20.9 L-35.6 -29.95 -22.25 -32.75 -3.2 -35.85" fill="url(#gradient0)" fill-rule="evenodd" stroke="none"/>
      <path d="M0.35 8.2 Q2.4 8.35 2.85 7.35 4.8 3.5 8.8 3.65 L16.65 4.55 Q14.4 8.2 15.9 9.75 L17.15 10.35 18.7 10.4 Q20.55 9.35 21.55 7.5 22.65 5.5 22.15 3.55 L28.55 3.35 Q32.15 3.0 34.85 1.8 L35.2 1.7 35.3 2.95 35.55 4.05 Q36.8 9.2 36.95 12.95 35.5 12.55 34.5 11.65 33.45 10.75 33.1 9.45 L32.4 7.2 30.05 7.55 26.15 7.95 24.1 8.15 23.7 10.15 Q23.35 11.85 21.8 13.05 20.3 14.3 18.35 14.5 L17.65 14.55 Q15.45 14.55 13.8 13.3 12.15 12.05 11.95 10.15 L11.65 8.0 6.0 7.3 5.0 8.7 Q3.5 10.9 0.35 10.9 L-1.4 10.65 Q-3.3 10.15 -4.55 8.8 -5.8 7.45 -5.95 5.75 L-6.1 4.1 -7.7 3.45 -11.65 1.75 -13.15 1.05 -14.5 2.05 Q-15.55 2.9 -17.1 2.9 -18.85 2.9 -20.4 1.8 -21.7 0.9 -22.4 -0.45 -23.05 -1.8 -22.8 -3.15 L-22.6 -4.75 -27.5 -8.95 -29.5 -7.6 Q-30.45 -6.9 -31.65 -6.9 -34.25 -6.9 -35.9 -9.2 -37.2 -10.9 -37.1 -12.85 -37.05 -14.8 -35.7 -15.85 L-33.95 -17.15 -34.6 -19.0 Q-35.05 -20.35 -34.9 -21.05 -34.6 -24.9 -33.7 -28.3 L-31.15 -28.9 Q-35.05 -20.7 -31.2 -16.4 -33.15 -16.15 -34.1 -14.6 -35.1 -12.95 -33.6 -11.95 -32.1 -10.8 -29.35 -11.9 -26.6 -13.0 -26.1 -12.6 L-22.35 -10.35 Q-20.1 -9.0 -19.85 -7.8 -19.65 -7.4 -20.3 -4.2 -20.75 -1.75 -19.15 -0.9 -17.6 -0.25 -15.65 -1.3 -14.35 -1.95 -12.65 -3.7 -10.85 -1.7 -7.85 -0.65 L-2.35 0.8 Q-3.75 2.0 -3.75 3.9 -3.75 5.6 -2.65 7.0 -1.6 8.0 0.35 8.2" fill="#a94987" fill-rule="evenodd" stroke="none"/>
      <path d="M5.4 -17.4 Q11.4 -14.95 18.8 -13.85 20.8 -11.35 21.05 -8.15 21.3 -4.9 19.35 -3.0 17.4 -0.8 12.8 0.1 L4.9 1.15 Q4.6 1.15 2.4 4.0 0.25 6.7 -1.95 6.3 -2.8 6.3 -3.6 5.25 -4.35 2.5 -2.35 0.8 L-7.85 -0.65 Q-10.85 -1.7 -12.65 -3.7 -14.35 -1.95 -15.65 -1.3 -17.6 -0.25 -19.15 -0.9 -20.75 -1.75 -20.3 -4.2 -19.65 -7.4 -19.85 -7.8 -20.1 -9.0 -22.35 -10.35 L-26.1 -12.6 Q-26.6 -13.0 -29.35 -11.9 -32.1 -10.8 -33.6 -11.95 -35.1 -12.95 -34.1 -14.6 -33.15 -16.15 -31.2 -16.4 -35.05 -20.7 -31.15 -28.9 -14.7 -32.55 -7.0 -33.75 -7.45 -29.05 -4.85 -25.05 -1.8 -20.5 5.4 -17.4" fill="#f2f4e1" fill-rule="evenodd" stroke="none"/>
      <path d="M25.65 -13.35 L29.85 -13.7 Q32.25 -9.75 34.5 -3.75 37.55 4.55 37.1 10.1 33.7 9.05 31.0 3.0 L22.15 3.55 Q22.65 5.5 21.55 7.5 20.55 9.35 18.7 10.4 L17.15 10.35 15.9 9.75 Q14.4 8.2 16.65 4.55 L8.8 3.65 Q4.8 3.5 2.85 7.35 2.4 8.35 0.35 8.2 -1.6 8.0 -2.65 7.0 L-3.6 5.25 Q-2.8 6.3 -1.95 6.3 0.25 6.7 2.4 4.0 4.6 1.15 4.9 1.15 L12.8 0.1 Q17.4 -0.8 19.35 -3.0 21.3 -4.9 21.05 -8.15 20.8 -11.35 18.8 -13.85 L25.65 -13.35" fill="#ccceab" fill-rule="evenodd" stroke="none"/>
    </g>
    <linearGradient gradientTransform="matrix(0.0108, -0.0208, 0.0292, 0.0151, -0.1, -8.95)" gradientUnits="userSpaceOnUse" id="gradient0" spreadMethod="pad" x1="-819.2" x2="819.2">
      <stop offset="0.0" stop-color="#6d0a50"/>
      <stop offset="1.0" stop-color="#ffe3bb"/>
    </linearGradient>
  </defs>
</svg>
