<?xml version="1.0" encoding="UTF-8" standalone="no"?>
<svg xmlns:ffdec="https://www.free-decompiler.com/flash" xmlns:xlink="http://www.w3.org/1999/xlink" ffdec:objectType="frame" height="80.8px" width="80.6px" xmlns="http://www.w3.org/2000/svg">
  <g transform="matrix(1.0, 0.0, 0.0, 1.0, 40.3, 80.8)">
    <use ffdec:characterId="980" height="76.5" transform="matrix(1.0, 0.0, 0.0, 1.0, -40.3, -76.5)" width="80.6" xlink:href="#sprite0"/>
  </g>
  <defs>
    <g id="sprite0" transform="matrix(1.0, 0.0, 0.0, 1.0, 40.3, 38.25)">
      <use ffdec:characterId="979" height="76.5" transform="matrix(1.0, 0.0, 0.0, 1.0, -40.3, -38.25)" width="80.6" xlink:href="#shape0"/>
    </g>
    <g id="shape0" transform="matrix(1.0, 0.0, 0.0, 1.0, 40.3, 38.25)">
      <path d="M13.65 -33.0 Q20.25 -31.35 25.2 -28.35 34.1 -22.95 35.85 -14.5 35.3 -11.6 33.95 -9.05 29.05 0.45 20.6 6.7 11.35 13.6 -0.15 14.8 -10.35 15.85 -19.75 11.8 -29.35 7.7 -33.7 0.25 L-36.05 -11.7 Q-34.8 -22.85 -23.65 -29.1 -13.8 -34.65 -0.1 -34.65 7.0 -34.65 13.65 -33.0" fill="#feaf82" fill-rule="evenodd" stroke="none"/>
      <path d="M28.35 -26.15 L25.2 -28.35 Q20.25 -31.35 13.65 -33.0 7.0 -34.65 -0.1 -34.65 -13.8 -34.65 -23.65 -29.1 -34.8 -22.85 -36.05 -11.7 L-35.2 -7.5 Q-34.8 -6.95 -34.8 -6.2 L-34.85 -5.7 -34.05 -1.55 Q-33.6 -1.0 -33.6 -0.25 L-33.7 0.45 -33.25 2.8 Q-32.85 3.35 -32.85 4.05 L-32.95 4.7 -32.5 9.3 -32.45 10.15 Q-32.15 10.6 -32.15 11.25 L-32.25 11.95 -32.25 12.05 Q-30.9 20.55 -22.55 26.3 -15.05 31.45 -4.6 32.85 L-4.55 32.85 Q0.4 32.65 5.45 30.45 10.0 28.5 13.85 25.35 16.95 22.55 17.7 18.35 18.25 15.2 17.55 10.35 L14.9 10.25 Q21.1 7.05 26.1 1.9 30.85 -3.0 33.95 -9.05 35.35 -11.85 35.85 -14.5 35.25 -17.75 33.35 -20.7 32.3 -21.2 32.2 -22.35 L30.35 -24.4 30.25 -24.4 Q29.5 -24.4 28.95 -24.9 28.45 -25.4 28.35 -26.15 M31.6 -27.65 Q32.15 -27.1 32.15 -26.3 L32.15 -26.0 33.75 -24.35 34.1 -24.4 Q34.9 -24.4 35.45 -23.85 36.0 -23.25 36.0 -22.45 L35.9 -21.95 36.25 -22.0 Q37.05 -22.0 37.6 -21.45 38.15 -20.9 38.15 -20.1 38.15 -19.3 37.6 -18.75 L37.9 -18.15 Q38.6 -18.05 39.1 -17.55 39.6 -17.0 39.6 -16.25 39.6 -15.5 39.0 -14.9 L39.55 -11.45 Q40.3 -10.8 40.3 -9.8 40.3 -8.4 39.0 -7.8 L38.7 -6.7 Q39.1 -6.15 39.1 -5.5 39.1 -4.2 37.9 -3.6 L36.8 0.75 Q37.9 1.35 37.9 2.65 37.9 3.45 37.35 4.1 36.8 4.7 36.0 4.75 L35.8 5.9 Q36.45 6.45 36.45 7.4 36.45 8.6 35.45 9.25 L35.4 10.0 Q36.25 10.7 36.25 11.7 36.25 13.15 34.95 13.65 L34.8 14.8 Q36.0 15.4 36.0 16.75 36.0 17.55 35.5 18.1 L34.25 18.85 34.55 19.85 Q34.55 20.6 34.05 21.15 33.5 21.7 32.75 21.75 L32.9 22.45 Q32.9 23.35 32.25 24.0 31.6 24.65 30.75 24.65 L30.1 24.55 30.25 25.35 Q30.25 26.25 29.65 26.9 29.0 27.5 28.1 27.5 L27.85 27.5 Q27.85 28.3 27.3 28.85 26.75 29.4 25.95 29.4 25.15 29.4 24.6 28.85 21.4 31.1 17.35 32.95 L17.35 33.0 Q17.35 33.9 16.75 34.55 16.1 35.15 15.2 35.15 14.2 35.15 13.55 34.35 L13.0 34.55 12.35 35.65 11.1 36.1 Q10.35 36.1 9.85 35.6 9.2 36.6 8.0 36.6 7.25 36.6 6.6 36.05 L4.15 36.4 Q4.1 37.2 3.5 37.7 2.9 38.25 2.05 38.25 0.85 38.25 0.15 37.15 -0.45 38.0 -1.55 38.0 -2.95 38.0 -3.55 36.7 L-5.05 36.6 Q-9.85 36.25 -14.45 34.75 L-15.15 34.9 Q-16.4 34.9 -17.05 33.85 L-17.65 33.6 Q-18.25 34.2 -19.0 34.2 -19.8 34.2 -20.35 33.65 -20.9 33.1 -20.9 32.3 L-20.9 32.05 -21.2 31.85 Q-21.75 32.75 -22.8 32.75 -23.6 32.75 -24.2 32.2 -24.75 31.65 -24.75 30.85 L-24.7 30.6 Q-25.5 30.55 -26.1 29.9 -26.65 29.3 -26.65 28.45 L-26.6 28.05 -27.05 27.65 -28.1 27.95 Q-28.9 27.95 -29.45 27.4 -30.0 26.85 -30.0 26.05 L-29.7 25.05 -30.25 25.1 Q-31.1 25.1 -31.75 24.5 -32.4 23.85 -32.4 22.95 L-32.05 21.75 -32.3 21.3 -33.1 21.5 Q-33.9 21.5 -34.45 20.95 -35.0 20.4 -35.0 19.6 -35.0 18.9 -34.5 18.3 -35.5 17.7 -35.5 16.5 -35.5 15.7 -34.95 15.05 L-35.4 13.1 Q-36.45 12.4 -36.45 11.25 -36.45 10.25 -35.8 9.7 L-35.8 9.4 Q-37.15 8.9 -37.15 7.4 -37.15 6.4 -36.35 5.75 -37.15 5.1 -37.15 4.05 -37.15 3.2 -36.6 2.65 L-36.8 1.65 Q-37.9 0.95 -37.9 -0.25 L-37.85 -0.6 Q-39.3 -1.1 -39.3 -2.65 -39.3 -3.95 -38.25 -4.5 -39.1 -5.2 -39.1 -6.2 -39.1 -6.95 -38.65 -7.5 L-39.85 -8.2 Q-40.3 -8.8 -40.3 -9.55 -40.3 -10.7 -39.3 -11.35 L-39.35 -11.6 -39.2 -13.0 Q-40.05 -13.6 -40.05 -14.6 -40.05 -15.3 -39.55 -15.85 -39.1 -16.35 -38.4 -16.45 L-37.3 -19.25 Q-37.65 -19.75 -37.65 -20.3 -37.65 -21.1 -37.1 -21.7 -36.55 -22.25 -35.75 -22.25 L-35.65 -22.25 Q-33.6 -25.4 -30.45 -28.15 L-30.5 -28.45 Q-30.5 -29.25 -29.9 -29.8 -29.35 -30.35 -28.55 -30.35 L-28.4 -30.35 Q-27.95 -31.55 -26.65 -31.55 L-25.9 -31.4 -21.55 -33.7 -20.9 -34.75 Q-20.35 -35.15 -19.7 -35.15 L-18.75 -34.9 Q-13.3 -36.95 -7.25 -37.75 -1.3 -38.55 4.4 -38.05 10.75 -37.45 17.35 -34.95 24.45 -32.25 29.65 -28.1 L30.25 -28.2 Q31.05 -28.2 31.6 -27.65" fill="#c36d3e" fill-rule="evenodd" stroke="none"/>
      <path d="M19.25 25.4 Q19.95 25.4 20.4 25.9 20.85 26.4 20.85 27.1 L20.4 28.25 Q19.9 28.75 19.25 28.75 18.6 28.75 18.1 28.25 17.65 27.8 17.65 27.1 17.65 26.4 18.1 25.9 18.6 25.4 19.25 25.4 M24.05 21.05 Q24.85 21.05 25.4 21.6 25.95 22.15 25.95 22.95 25.95 23.75 25.4 24.3 24.85 24.85 24.05 24.85 23.25 24.85 22.7 24.3 22.1 23.75 22.1 22.95 22.1 22.15 22.7 21.6 23.25 21.05 24.05 21.05 M-36.2 -2.85 Q-37.1 -2.85 -37.7 -3.5 -38.35 -4.15 -38.35 -5.0 -38.35 -5.9 -37.7 -6.5 -37.1 -7.15 -36.2 -7.15 -35.35 -7.15 -34.7 -6.5 -34.05 -5.9 -34.05 -5.0 -34.05 -4.15 -34.7 -3.5 -35.35 -2.85 -36.2 -2.85 M-34.55 -10.05 Q-34.55 -9.25 -35.1 -8.7 -35.65 -8.15 -36.45 -8.15 -37.25 -8.15 -37.8 -8.7 -38.35 -9.25 -38.35 -10.05 -38.35 -10.85 -37.8 -11.4 -37.25 -11.95 -36.45 -11.95 -35.65 -11.95 -35.1 -11.4 -34.55 -10.85 -34.55 -10.05 M-33.8 -16.75 Q-34.6 -16.75 -35.2 -17.3 -35.75 -17.85 -35.75 -18.65 -35.75 -19.45 -35.2 -20.0 -34.6 -20.55 -33.8 -20.55 -33.0 -20.55 -32.45 -20.0 -31.9 -19.45 -31.9 -18.65 -31.9 -17.85 -32.45 -17.3 -33.0 -16.75 -33.8 -16.75 M21.35 10.65 Q21.8 10.15 22.5 10.15 23.15 10.15 23.6 10.65 24.1 11.15 24.1 11.85 24.1 12.5 23.6 13.0 23.15 13.5 22.5 13.5 21.85 13.5 21.35 13.0 20.85 12.55 20.85 11.85 20.85 11.15 21.35 10.65 M14.9 10.25 L17.55 10.35 17.85 13.0 Q18.7 13.2 19.25 13.85 19.8 14.55 19.8 15.4 19.8 16.3 19.2 17.05 18.65 17.7 17.75 17.9 L17.2 20.2 Q18.55 20.95 18.55 22.4 18.55 23.45 17.8 24.2 17.05 24.9 16.05 24.9 15.2 24.9 14.65 24.5 L13.85 25.35 12.45 26.4 12.8 26.4 Q13.65 26.4 14.2 27.0 14.75 27.6 14.75 28.45 L14.75 28.7 Q15.55 28.7 16.05 29.25 16.6 29.8 16.6 30.6 16.6 31.4 16.05 31.95 15.5 32.5 14.7 32.5 13.9 32.5 13.35 31.95 12.8 31.4 12.8 30.6 L12.8 30.5 Q11.9 30.5 11.3 29.75 10.95 30.2 10.25 30.35 L10.2 30.4 Q10.9 30.5 11.4 31.05 11.85 31.55 11.85 32.3 11.85 33.1 11.3 33.65 10.75 34.2 9.95 34.2 9.15 34.2 8.55 33.65 8.0 33.1 8.0 32.3 8.0 31.85 8.15 31.55 7.05 31.1 7.05 29.95 L7.1 29.7 6.7 29.9 6.8 30.6 Q6.8 31.4 6.25 31.95 5.7 32.5 4.9 32.5 3.65 32.5 3.15 31.35 L2.95 31.4 3.1 32.3 Q3.1 33.15 2.55 33.75 1.95 34.35 1.15 34.35 L0.1 34.05 Q0.1 34.8 -0.45 35.35 -1.0 35.85 -1.8 35.85 -2.6 35.85 -3.15 35.3 -3.7 34.75 -3.7 33.95 -3.7 33.3 -3.25 32.75 L-4.6 32.85 Q-10.15 32.1 -15.4 30.05 -15.9 31.1 -17.1 31.1 -17.9 31.1 -18.45 30.55 -19.0 29.95 -19.0 29.15 L-18.85 28.5 -19.85 27.95 Q-20.35 29.15 -21.65 29.15 -22.45 29.15 -23.0 28.6 -23.55 28.05 -23.55 27.25 -23.55 26.5 -23.0 25.95 L-23.8 25.35 Q-24.4 26.3 -25.45 26.3 -26.25 26.3 -26.8 25.75 -27.35 25.2 -27.35 24.4 L-27.3 23.85 -28.3 24.15 Q-29.1 24.15 -29.7 23.6 -30.25 23.05 -30.25 22.25 -30.25 21.55 -29.8 21.0 -29.4 20.5 -28.75 20.35 L-29.6 19.1 Q-30.25 19.85 -31.2 19.85 -32.1 19.85 -32.7 19.25 -33.35 18.6 -33.35 17.7 -33.35 16.85 -32.75 16.2 -32.2 15.6 -31.35 15.55 L-32.0 13.35 -32.4 13.4 Q-33.3 13.4 -33.9 12.8 -34.55 12.15 -34.55 11.25 -34.55 10.4 -33.95 9.75 -33.35 9.15 -32.5 9.1 L-32.7 6.85 -33.35 6.95 Q-34.25 6.95 -34.85 6.3 -35.5 5.65 -35.5 4.8 -35.5 3.9 -34.85 3.3 -34.25 2.65 -33.35 2.65 L-33.3 2.65 -33.5 1.65 -34.55 1.9 Q-35.45 1.9 -36.05 1.3 -36.7 0.65 -36.7 -0.25 -36.7 -1.15 -36.05 -1.75 -35.45 -2.4 -34.55 -2.4 -33.65 -2.4 -33.0 -1.75 -32.4 -1.15 -32.4 -0.25 -32.4 0.65 -33.05 1.3 -28.4 8.3 -19.1 12.1 -9.9 15.8 -0.15 14.8 7.85 13.95 14.9 10.25" fill="#ee7e2e" fill-rule="evenodd" stroke="none"/>
      <path d="M13.3 22.45 Q13.3 21.8 13.8 21.3 14.3 20.8 14.95 20.8 15.65 20.8 16.1 21.3 16.6 21.8 16.6 22.45 16.6 23.15 16.1 23.65 15.65 24.15 14.95 24.15 14.25 24.15 13.8 23.65 13.3 23.15 13.3 22.45 M17.55 15.5 Q17.1 16.0 16.4 16.0 15.7 16.0 15.2 15.5 14.7 15.05 14.7 14.35 14.7 13.65 15.2 13.15 15.7 12.65 16.4 12.65 17.1 12.65 17.55 13.15 18.05 13.65 18.05 14.35 18.05 15.05 17.55 15.5 M-29.1 12.75 Q-28.6 13.25 -28.6 14.0 L-28.75 14.55 -28.4 14.3 Q-27.65 13.7 -26.7 13.85 -25.75 13.95 -25.15 14.7 -24.6 15.5 -24.7 16.45 -24.8 17.4 -25.6 18.0 L-26.1 18.3 Q-25.4 18.85 -25.4 19.75 -25.4 20.45 -25.9 21.0 -26.45 21.5 -27.2 21.5 -27.95 21.5 -28.45 21.0 -29.0 20.45 -29.0 19.75 -29.0 18.7 -28.1 18.2 L-28.85 17.55 Q-29.7 16.55 -29.15 15.25 -29.7 15.8 -30.4 15.8 -31.15 15.8 -31.65 15.3 -32.2 14.75 -32.2 14.0 -32.2 13.25 -31.65 12.75 -31.15 12.2 -30.4 12.2 -29.65 12.2 -29.1 12.75 M-23.8 16.5 Q-23.25 15.95 -22.55 15.95 -21.8 15.95 -21.25 16.5 -20.75 17.0 -20.75 17.75 -20.75 18.5 -21.25 19.05 -21.8 19.55 -22.55 19.55 -23.25 19.55 -23.8 19.05 -24.3 18.5 -24.3 17.75 -24.3 17.0 -23.8 16.5 M-2.95 30.85 Q-2.5 30.35 -1.8 30.35 -1.1 30.35 -0.6 30.85 -0.1 31.35 -0.1 32.05 -0.1 32.75 -0.6 33.2 -1.1 33.7 -1.8 33.7 -2.45 33.7 -2.95 33.2 -3.45 32.75 -3.45 32.05 -3.45 31.35 -2.95 30.85 M-14.45 24.2 Q-13.7 24.2 -13.15 24.75 -12.65 25.25 -12.65 26.0 -12.65 26.75 -13.15 27.3 -13.7 27.8 -14.45 27.8 -15.2 27.8 -15.7 27.3 -16.25 26.75 -16.25 26.0 -16.25 25.25 -15.7 24.75 -15.2 24.2 -14.45 24.2 M-15.0 21.95 Q-15.8 22.5 -16.75 22.4 -17.7 22.25 -18.3 21.5 -18.85 20.75 -18.75 19.8 -18.6 18.8 -17.85 18.25 -17.05 17.65 -16.1 17.8 -15.15 17.9 -14.6 18.65 -14.0 19.45 -14.1 20.4 -14.25 21.35 -15.0 21.95 M-19.8 21.7 Q-19.2 22.5 -19.3 23.45 -19.45 24.4 -20.2 25.0 -21.0 25.55 -21.95 25.45 -22.9 25.3 -23.5 24.55 -24.05 23.75 -23.95 22.8 -23.8 21.85 -23.05 21.3 -22.25 20.7 -21.3 20.85 -20.35 20.95 -19.8 21.7 M-18.25 15.1 Q-19.0 15.7 -19.95 15.6 -20.95 15.45 -21.5 14.7 -22.1 13.9 -21.95 12.95 -21.85 12.0 -21.05 11.4 -20.3 10.85 -19.35 10.95 -18.4 11.1 -17.8 11.85 -17.2 12.65 -17.35 13.6 -17.45 14.55 -18.25 15.1 M-9.2 16.85 Q-8.7 17.35 -8.7 18.1 -8.7 18.85 -9.2 19.4 -9.75 19.9 -10.5 19.9 -11.25 19.9 -11.75 19.4 -12.3 18.85 -12.3 18.1 -12.3 17.35 -11.75 16.85 -11.25 16.3 -10.5 16.3 -9.75 16.3 -9.2 16.85 M-4.25 23.15 Q-3.7 22.6 -3.0 22.6 -2.25 22.6 -1.7 23.15 -1.2 23.65 -1.2 24.4 -1.2 25.15 -1.7 25.7 -2.25 26.2 -3.0 26.2 -3.7 26.2 -4.25 25.7 -4.75 25.15 -4.75 24.4 -4.75 23.65 -4.25 23.15 M-30.6 10.75 Q-31.8 10.75 -32.6 9.9 -33.45 9.05 -33.45 7.9 -33.45 6.7 -32.6 5.85 -31.8 5.0 -30.6 5.0 -29.4 5.0 -28.55 5.85 -27.75 6.7 -27.75 7.9 -27.75 8.85 -28.3 9.65 L-28.05 9.4 Q-27.25 8.8 -26.3 8.95 -25.35 9.05 -24.8 9.8 -24.2 10.6 -24.3 11.55 -24.45 12.5 -25.2 13.1 -26.0 13.65 -26.95 13.55 -27.9 13.45 -28.5 12.65 -29.0 12.05 -28.95 11.25 -28.95 10.45 -28.5 9.85 -29.3 10.75 -30.6 10.75 M-34.55 -2.65 Q-33.85 -2.65 -33.35 -2.15 -32.85 -1.65 -32.85 -0.95 -32.85 -0.25 -33.35 0.2 -33.85 0.7 -34.55 0.7 -35.2 0.7 -35.7 0.2 -36.2 -0.25 -36.2 -0.95 -36.2 -1.65 -35.7 -2.15 -35.25 -2.65 -34.55 -2.65 M-37.15 -7.4 Q-36.65 -7.9 -35.95 -7.9 -35.25 -7.9 -34.8 -7.4 -34.3 -6.9 -34.3 -6.2 -34.3 -5.5 -34.8 -5.05 -35.25 -4.55 -35.95 -4.55 -36.65 -4.55 -37.15 -5.05 -37.65 -5.5 -37.65 -6.2 -37.65 -6.9 -37.15 -7.4 M-36.0 -11.7 Q-35.5 -11.2 -35.5 -10.5 -35.5 -9.8 -36.0 -9.35 -36.45 -8.85 -37.15 -8.85 -37.85 -8.85 -38.35 -9.35 -38.85 -9.8 -38.85 -10.5 -38.85 -11.2 -38.35 -11.7 -37.85 -12.2 -37.15 -12.2 -36.45 -12.2 -36.0 -11.7 M-32.4 -18.45 Q-32.9 -17.95 -33.6 -17.95 -34.25 -17.95 -34.75 -18.45 -35.25 -18.9 -35.25 -19.6 -35.25 -20.3 -34.75 -20.8 -34.3 -21.3 -33.6 -21.3 -32.9 -21.3 -32.4 -20.8 -31.9 -20.3 -31.9 -19.6 -31.9 -18.9 -32.4 -18.45" fill="#feaf82" fill-rule="evenodd" stroke="none"/>
      <path d="M5.85 -35.35 Q19.6 -34.1 28.5 -24.8 38.2 -14.65 32.5 -3.2 27.85 6.15 15.05 10.45 3.4 14.35 -6.45 11.85 -15.45 9.5 -20.35 6.95 -30.1 1.95 -33.7 -6.55 -37.3 -15.1 -31.3 -22.7 -27.5 -27.5 -20.8 -31.0 -9.8 -36.75 5.85 -35.35" fill="#ddd9d3" fill-rule="evenodd" stroke="none"/>
      <path d="M30.55 -4.2 Q34.3 -11.65 30.25 -18.9 27.1 -24.55 20.25 -28.5 13.35 -32.5 5.65 -33.2 L-0.2 -33.5 Q-11.3 -33.5 -19.8 -29.1 -26.0 -25.95 -29.65 -21.35 -34.8 -14.75 -31.7 -7.4 -28.5 0.3 -19.65 4.95 -14.85 7.5 -6.4 9.65 L-5.9 9.75 Q-2.75 10.55 1.3 10.55 10.1 10.55 18.0 7.0 27.0 2.9 30.55 -4.2 M5.85 -35.35 Q19.6 -34.1 28.5 -24.8 38.2 -14.65 32.5 -3.2 27.85 6.15 15.05 10.45 3.4 14.35 -6.45 11.85 -15.45 9.5 -20.35 6.95 -30.1 1.95 -33.7 -6.55 -37.3 -15.1 -31.3 -22.7 -27.5 -27.5 -20.8 -31.0 -9.8 -36.75 5.85 -35.35" fill="#4c5947" fill-rule="evenodd" stroke="none"/>
      <path d="M-11.4 -1.4 L-9.85 0.15 Q-10.35 -0.1 -10.7 -0.45 L-11.4 -1.4 M-24.4 -4.7 L-23.5 -5.05 -22.6 -5.65 Q-23.8 -6.3 -24.45 -7.15 -23.7 -5.75 -24.4 -4.7 M-25.0 -10.35 Q-24.45 -11.55 -22.8 -12.15 L-19.25 -12.5 Q-19.95 -11.3 -19.9 -10.75 L-18.95 -8.9 Q-16.6 -5.15 -14.0 -5.25 L-14.45 -5.0 -13.35 -3.65 -15.15 -3.8 Q-15.85 -3.95 -16.25 -4.25 -15.65 -3.7 -15.65 -3.1 L-15.7 -2.9 -15.45 -3.15 -14.15 -3.3 Q-13.35 -3.05 -12.7 -2.4 -12.1 -1.75 -12.0 -1.05 -11.95 -0.4 -12.45 -0.05 L-13.7 0.05 Q-14.5 -0.15 -15.15 -0.8 -16.0 -1.65 -15.85 -2.5 -16.15 -1.95 -17.1 -1.5 -16.45 -1.3 -16.2 -1.0 -15.75 -0.45 -15.9 0.2 -16.1 0.9 -16.8 1.4 L-16.65 1.5 Q-14.6 2.6 -13.65 4.05 -12.75 5.5 -13.55 6.45 -14.3 7.4 -16.25 7.35 -18.25 7.25 -20.3 6.15 -22.35 5.0 -23.25 3.6 -24.15 2.1 -23.4 1.15 -22.7 0.2 -20.65 0.3 L-19.9 -0.9 -20.65 -0.85 -21.4 -0.9 Q-22.25 -0.25 -23.15 -0.05 L-24.65 -0.2 Q-25.8 -0.8 -25.3 -2.5 L-25.55 -3.25 -25.4 -3.7 Q-26.45 -3.15 -27.9 -3.25 -29.4 -3.3 -30.7 -4.05 -32.4 -5.0 -33.0 -6.4 -33.65 -7.8 -32.8 -8.85 -31.95 -9.95 -30.15 -10.05 -28.35 -10.15 -26.65 -9.25 -25.5 -8.65 -24.9 -7.8 -25.55 -9.2 -25.0 -10.35 M-30.4 -13.6 Q-31.55 -14.35 -31.55 -15.25 -31.55 -16.4 -29.8 -17.2 -28.1 -18.0 -25.65 -18.0 -23.25 -18.0 -21.5 -17.2 -19.8 -16.35 -19.8 -15.25 -19.8 -14.15 -21.3 -13.4 -22.75 -12.6 -25.0 -12.5 -26.4 -11.8 -27.15 -12.3 L-27.5 -12.6 Q-29.3 -12.9 -30.4 -13.6 M-14.95 -22.4 L-13.6 -22.5 -14.3 -20.85 -14.85 -18.75 -15.5 -16.85 -18.6 -17.35 Q-19.95 -17.9 -20.2 -18.75 -20.8 -18.05 -22.1 -18.0 -23.4 -17.95 -24.65 -18.65 -25.95 -19.35 -26.45 -20.35 -26.95 -21.4 -26.35 -22.1 -25.9 -22.7 -24.95 -22.85 L-23.0 -22.7 -22.7 -23.3 Q-23.65 -24.35 -23.15 -25.4 -22.75 -26.3 -21.45 -26.6 L-18.75 -26.5 Q-17.35 -26.05 -16.65 -25.1 -16.0 -24.15 -16.4 -23.25 -16.9 -22.15 -18.7 -21.9 L-19.4 -21.35 Q-19.8 -21.1 -20.4 -21.0 -20.0 -20.55 -19.95 -20.1 -18.7 -21.9 -14.95 -22.4 M-9.4 -29.1 Q-9.0 -28.35 -9.8 -27.45 -10.65 -26.5 -12.2 -26.0 -13.8 -25.45 -15.2 -25.6 -16.6 -25.75 -17.0 -26.5 -17.4 -27.25 -16.6 -28.15 -15.75 -29.05 -14.2 -29.6 L-11.2 -30.0 Q-9.8 -29.85 -9.4 -29.1 M-5.35 -28.35 L-5.25 -28.3 Q-7.3 -27.9 -8.75 -27.2 L-7.0 -28.4 -5.35 -28.35 M22.7 -3.75 L23.3 -2.2 Q23.4 -3.05 23.95 -3.55 L22.7 -3.75 M16.95 2.6 Q18.15 2.0 19.15 1.0 L19.3 0.9 21.95 1.55 Q23.55 2.25 24.3 3.2 25.1 4.2 24.6 4.95 24.15 5.7 22.7 5.75 21.3 5.8 19.75 5.1 17.35 4.05 16.95 2.6 M5.45 5.2 L5.65 4.55 10.9 4.25 Q13.85 3.95 15.8 3.15 L15.95 4.05 17.45 4.15 Q18.3 4.45 18.85 5.25 19.35 6.05 19.3 6.85 19.2 7.6 18.55 7.95 L17.0 7.9 Q16.15 7.55 15.6 6.75 L15.2 5.85 14.85 6.3 14.95 6.4 Q15.65 7.1 15.75 7.9 15.8 8.7 15.15 9.15 14.5 9.65 13.55 9.5 12.6 9.35 11.9 8.65 11.35 8.2 11.2 7.5 L10.35 7.55 Q8.3 7.5 6.9 6.85 5.45 6.15 5.45 5.2 M1.8 7.6 Q2.6 8.35 2.35 9.0 2.1 9.65 0.9 9.85 L-1.65 9.65 -2.95 9.2 Q-4.45 9.8 -6.1 9.2 -7.5 8.75 -8.2 7.8 -8.9 6.85 -8.45 5.95 L-7.8 5.15 -8.45 4.8 Q-9.65 6.2 -11.0 5.7 -11.75 5.45 -11.95 4.55 -12.15 3.7 -11.65 2.75 -11.15 1.85 -10.3 1.4 L-8.7 1.2 Q-4.95 4.4 -1.8 5.0 L-1.85 5.1 -2.45 5.7 -1.95 6.25 -0.45 6.5 Q1.0 6.9 1.8 7.6 M15.95 -27.3 Q17.2 -26.9 17.9 -26.05 18.6 -25.25 18.45 -24.4 17.2 -26.05 15.45 -27.0 L14.2 -27.55 15.95 -27.3 M12.5 -30.3 Q12.65 -29.15 10.95 -28.2 L7.25 -28.3 3.7 -28.45 Q-1.5 -29.0 -5.05 -28.35 -4.9 -29.55 -3.4 -30.25 L-6.05 -30.7 Q-7.15 -31.2 -7.3 -31.95 -7.5 -32.9 -6.2 -33.75 -4.95 -34.6 -2.9 -34.9 L0.7 -34.7 Q2.25 -34.25 2.45 -33.3 2.6 -32.6 1.8 -31.85 1.0 -31.15 -0.4 -30.7 L0.95 -30.2 Q1.35 -31.1 2.85 -31.75 4.35 -32.45 6.35 -32.6 L10.6 -32.1 Q12.4 -31.45 12.5 -30.3 M22.1 -14.1 L23.2 -14.0 Q23.75 -14.8 24.95 -15.05 L27.45 -14.9 Q28.85 -14.45 29.55 -13.5 30.2 -12.55 29.8 -11.6 29.1 -10.15 26.75 -10.25 L26.8 -8.9 Q28.6 -8.65 29.8 -7.95 30.95 -7.2 30.95 -6.25 30.95 -5.4 29.9 -4.7 28.85 -4.0 27.2 -3.7 L28.6 -2.45 Q29.3 -1.4 29.15 -0.3 28.95 0.75 28.0 1.2 L25.8 1.25 Q24.6 0.8 23.9 -0.25 23.45 -0.85 23.35 -1.65 23.2 -0.55 22.4 0.0 21.4 0.7 19.85 0.55 22.1 -1.25 22.75 -4.55 23.35 -7.6 22.55 -11.25 L22.1 -14.1 M28.65 -23.85 Q28.85 -22.9 27.75 -22.05 26.65 -21.2 24.9 -20.95 L21.8 -21.2 Q20.45 -21.7 20.25 -22.65 20.05 -23.6 21.15 -24.45 22.25 -25.25 24.0 -25.5 L27.1 -25.25 Q28.45 -24.8 28.65 -23.85 M23.6 -27.9 Q24.2 -27.1 23.85 -26.45 23.5 -25.75 22.35 -25.6 L19.95 -25.9 Q18.7 -26.35 18.05 -27.15 17.4 -27.95 17.8 -28.65 18.15 -29.35 19.3 -29.5 L21.7 -29.15 23.6 -27.9" fill="#fcf9f2" fill-rule="evenodd" stroke="none"/>
      <path d="M-7.4 -9.1 Q-9.75 -7.7 -13.9 -9.45 -17.55 -11.05 -20.85 -14.25 -17.4 -24.25 -14.95 -26.55 -10.65 -28.05 -4.5 -27.2 -1.0 -26.7 2.05 -25.65 L-1.65 -16.15 Q-4.05 -11.05 -7.4 -9.1" fill="#ffed7f" fill-rule="evenodd" stroke="none"/>
      <path d="M-7.4 -9.1 L-7.2 -9.2 Q-5.95 -7.5 -5.95 -4.8 L-20.2 -10.4 -20.9 -14.1 -20.85 -14.25 Q-17.55 -11.05 -13.9 -9.45 -9.75 -7.7 -7.4 -9.1" fill="#f2d62c" fill-rule="evenodd" stroke="none"/>
      <path d="M2.05 -25.65 L2.3 -25.6 1.3 -21.3 -5.85 -4.8 -5.95 -4.8 Q-5.95 -7.5 -7.2 -9.2 -3.95 -11.2 -1.6 -16.25 L2.05 -25.65" fill="#c6b63c" fill-rule="evenodd" stroke="none"/>
      <path d="M6.3 -11.55 L15.75 -11.25 15.9 -11.3 Q15.75 -10.65 16.0 -9.0 16.2 -7.55 15.8 -6.85 L-3.15 -10.0 -3.6 -13.85 6.3 -11.55" fill="#acaf84" fill-rule="evenodd" stroke="none"/>
      <path d="M2.3 -25.1 Q8.15 -25.2 12.05 -22.5 16.5 -19.4 16.2 -13.75 L15.9 -11.3 15.75 -11.25 6.3 -11.55 -3.6 -13.85 2.3 -25.1" fill="#cce29c" fill-rule="evenodd" stroke="none"/>
      <path d="M5.2 -26.6 L10.25 -26.2 Q17.85 -24.9 19.6 -19.55 L20.35 -16.5 Q17.85 -12.05 15.9 -11.3 L16.2 -13.75 Q16.5 -19.4 12.05 -22.5 8.15 -25.2 2.3 -25.1 L3.0 -26.45 5.2 -26.6" fill="#88be61" fill-rule="evenodd" stroke="none"/>
      <path d="M15.9 -11.3 Q17.85 -12.05 20.35 -16.5 20.9 -12.4 19.1 -9.15 L17.2 -6.75 15.8 -6.85 Q16.2 -7.55 16.0 -9.0 15.75 -10.65 15.9 -11.3" fill="#6c9b46" fill-rule="evenodd" stroke="none"/>
      <path d="M11.75 -17.8 Q12.6 -17.3 12.4 -15.8 12.2 -14.25 11.1 -13.7 9.7 -13.0 5.95 -14.45 L8.95 -16.65 Q10.85 -18.35 11.75 -17.8 M1.8 -20.3 Q2.8 -20.4 3.5 -19.05 4.25 -17.7 3.65 -16.55 3.05 -15.25 -0.95 -14.15 -0.55 -14.65 0.2 -17.75 0.8 -20.2 1.8 -20.3" fill="#eef4c6" fill-rule="evenodd" stroke="none"/>
      <path d="M-0.05 -1.25 Q-0.8 -2.25 -2.9 -1.55 -4.85 -0.9 -5.65 0.25 L-4.0 2.4 -2.0 4.3 -1.05 4.05 -1.45 4.75 Q-0.55 4.15 0.0 1.9 0.6 -0.4 -0.05 -1.25 M-8.55 -1.55 L-8.7 -1.65 -8.7 -1.0 -5.2 -1.95 Q-2.9 -2.9 -4.1 -4.1 -5.3 -5.3 -7.05 -3.9 -8.8 -2.55 -8.55 -1.55 M3.45 -3.8 Q5.35 -2.95 7.25 -3.1 9.65 -3.25 10.7 -5.2 12.25 -8.05 9.75 -8.5 L5.4 -8.1 Q6.3 -5.95 3.45 -4.05 L3.45 -3.8 M1.0 -3.95 L3.05 -5.45 Q5.75 -8.45 2.6 -9.1 -0.5 -9.75 -2.5 -7.45 L-2.4 -7.45 -2.5 -7.4 -2.3 -5.45 Q-2.25 -4.1 -1.5 -3.65 -0.6 -3.1 1.0 -3.95 M12.0 -4.85 L11.6 -3.8 9.7 -1.55 Q8.4 -0.4 7.05 -0.7 L6.8 -0.7 7.0 -0.45 7.1 -0.05 12.25 -0.2 Q15.75 -1.25 14.9 -3.75 14.5 -4.9 13.1 -5.1 12.1 -5.15 12.0 -4.85 M16.1 -8.8 Q17.3 -8.4 17.85 -7.4 18.4 -6.4 18.1 -5.2 L17.5 -4.15 16.8 -3.1 16.5 -1.75 16.2 -0.4 Q14.85 2.75 9.75 2.55 L2.2 3.05 -0.4 4.85 Q-1.5 5.35 -3.3 4.1 L-5.2 2.1 Q-6.5 0.5 -7.15 0.05 -9.05 0.25 -9.45 -1.05 -9.8 -2.3 -8.5 -3.6 L-6.95 -4.45 Q-5.9 -4.9 -5.5 -5.3 -4.8 -6.05 -4.8 -6.6 L-4.6 -7.9 Q-3.35 -10.75 -0.3 -10.5 L5.15 -9.3 Q6.4 -9.1 10.55 -9.3 L16.1 -8.8" fill="#a4477c" fill-rule="evenodd" stroke="none"/>
      <path d="M-2.9 -1.55 Q-0.8 -2.25 -0.05 -1.25 0.6 -0.4 0.0 1.9 -0.55 4.15 -1.45 4.75 L-1.05 4.05 -2.0 4.3 -4.0 2.4 -5.65 0.25 Q-4.85 -0.9 -2.9 -1.55 M-8.55 -1.55 Q-8.8 -2.55 -7.05 -3.9 -5.3 -5.3 -4.1 -4.1 -2.9 -2.9 -5.2 -1.95 L-8.7 -1.0 -8.7 -1.65 -8.55 -1.55 M2.6 -9.1 Q5.75 -8.45 3.05 -5.45 L1.0 -3.95 Q-0.6 -3.1 -1.5 -3.65 -2.25 -4.1 -2.3 -5.45 L-2.5 -7.4 -2.4 -7.45 -2.5 -7.45 Q-0.5 -9.75 2.6 -9.1 M7.25 -3.1 Q5.35 -2.95 3.45 -3.8 L3.45 -4.05 Q6.3 -5.95 5.4 -8.1 L9.75 -8.5 Q12.25 -8.05 10.7 -5.2 9.65 -3.25 7.25 -3.1 M11.6 -3.8 L12.0 -4.85 Q12.1 -5.15 13.1 -5.1 14.5 -4.9 14.9 -3.75 15.75 -1.25 12.25 -0.2 L7.1 -0.05 7.0 -0.45 6.8 -0.7 7.05 -0.7 Q8.4 -0.4 9.7 -1.55 L11.6 -3.8" fill="#d05fa6" fill-rule="evenodd" stroke="none"/>
    </g>
  </defs>
</svg>
