<?xml version="1.0" encoding="UTF-8" standalone="no"?>
<svg xmlns:ffdec="https://www.free-decompiler.com/flash" xmlns:xlink="http://www.w3.org/1999/xlink" ffdec:objectType="frame" height="740.45px" width="677.0px" xmlns="http://www.w3.org/2000/svg">
  <g transform="matrix(1.0, 0.0, 0.0, 1.0, 338.5, 240.0)">
    <clipPath id="clipPath0" transform="matrix(1.0, 0.0, 0.0, 1.0, 0.0, 0.0)">
      <path d="M320.0 240.0 L-320.0 240.0 -320.0 -240.0 320.0 -240.0 320.0 240.0" fill="#000000" fill-rule="evenodd" stroke="none"/>
    </clipPath>
    <g clip-path="url(#clipPath0)">
      <use ffdec:characterId="487" height="480.0" transform="matrix(1.0, 0.0, 0.0, 1.0, -320.0, -240.0)" width="640.0" xlink:href="#shape1"/>
      <use ffdec:characterId="489" height="740.45" transform="matrix(1.0, 0.0, 0.0, 1.0, -338.5, -240.0)" width="677.0" xlink:href="#sprite0"/>
    </g>
    <use ffdec:characterId="490" height="122.15" transform="matrix(1.0, 0.0, 0.0, 1.0, -155.5, 16.0)" width="386.0" xlink:href="#shape3"/>
    <use ffdec:characterId="494" ffdec:characterName="Minus" height="56.1" id="minus" transform="matrix(1.452, 0.0, 0.0, 1.452, -146.4266, 47.0234)" width="56.1" xlink:href="#sprite1"/>
    <use ffdec:characterId="498" ffdec:characterName="Divide" height="56.15" id="divide" transform="matrix(1.452, 0.0, 0.0, 1.452, 138.446, 47.0767)" width="56.15" xlink:href="#sprite2"/>
    <use ffdec:characterId="502" ffdec:characterName="Times" height="56.1" id="times" transform="matrix(1.452, 0.0, 0.0, 1.452, 44.5979, 47.0767)" width="56.1" xlink:href="#sprite3"/>
    <use ffdec:characterId="503" height="59.85" id="number2" transform="matrix(1.1, 0.0, 0.0, 1.0992, 90.6, -71.7983)" width="205.9" xlink:href="#text0"/>
    <use ffdec:characterId="506" ffdec:characterName="Plus" height="55.15" id="plus" transform="matrix(1.452, 0.0, 0.0, 1.452, -50.9761, 47.7739)" width="55.15" xlink:href="#sprite4"/>
    <use ffdec:characterId="509" height="66.65" id="number1" transform="matrix(1.0, 0.0, 0.0, 1.0, -316.0, -71.85)" width="299.8" xlink:href="#sprite5"/>
    <use ffdec:characterId="511" height="58.6" id="sign" transform="matrix(1.452, 0.0, 0.0, 1.452, -6.1935, -80.1935)" width="58.6" xlink:href="#sprite6"/>
  </g>
  <defs>
    <g id="shape1" transform="matrix(1.0, 0.0, 0.0, 1.0, 320.0, 240.0)">
      <path d="M320.0 -240.0 L320.0 240.0 -320.0 240.0 -320.0 -240.0 320.0 -240.0" fill="url(#gradient0)" fill-rule="evenodd" stroke="none"/>
    </g>
    <linearGradient gradientTransform="matrix(0.0, -0.293, -0.293, 0.0, 0.0, 0.0)" gradientUnits="userSpaceOnUse" id="gradient0" spreadMethod="pad" x1="-819.2" x2="819.2">
      <stop offset="0.0" stop-color="#ffffff"/>
      <stop offset="1.0" stop-color="#f8e7a5"/>
    </linearGradient>
    <g id="sprite0" transform="matrix(1.0, 0.0, 0.0, 1.0, 0.0, -33.8)">
      <use ffdec:characterId="488" height="740.45" transform="matrix(1.0, 0.0, 0.0, 1.0, 0.0, 33.8)" width="677.0" xlink:href="#shape2"/>
    </g>
    <g id="shape2" transform="matrix(1.0, 0.0, 0.0, 1.0, 0.0, -33.8)">
      <path d="M105.1 363.65 L44.7 469.65 108.5 370.0 343.75 332.6 105.1 363.65 M595.6 494.8 L519.25 773.35 301.8 589.1 422.7 309.7 595.6 494.8 M299.1 587.8 L0.0 531.0 101.2 360.05 420.15 308.1 299.1 587.8 M283.2 560.45 L23.85 523.95 292.5 577.4 386.95 356.3 283.2 560.45 M151.75 640.65 L1.8 534.4 299.35 590.9 515.65 774.25 151.75 640.65 M219.55 171.6 L185.75 234.6 221.7 174.25 353.85 107.65 219.55 171.6 M485.2 33.8 L538.85 33.8 470.85 190.9 142.25 290.7 215.2 167.45 485.2 33.8 M467.25 184.7 L525.85 36.3 456.5 175.7 160.05 276.55 467.25 184.7 M622.85 384.2 L498.55 386.8 421.8 304.0 207.0 339.6 142.7 293.35 470.0 196.2 622.85 384.2 M542.1 33.8 L576.85 33.8 677.0 197.8 626.4 382.5 473.15 193.1 542.1 33.8" fill="#ffffff" fill-rule="evenodd" stroke="none"/>
    </g>
    <g id="shape3" transform="matrix(1.0, 0.0, 0.0, 1.0, 155.5, -16.0)">
      <path d="M37.5 16.0 L68.15 38.2 6.9 38.35 37.5 16.0" fill="#000000" fill-rule="evenodd" stroke="none"/>
      <path d="M-135.5 138.15 Q-155.5 138.15 -155.5 118.15 L-155.5 58.15 Q-155.5 38.15 -135.5 38.15 L210.5 38.15 Q230.5 38.15 230.5 58.15 L230.5 118.15 Q230.5 138.15 210.5 138.15 L-135.5 138.15" fill="#000000" fill-rule="evenodd" stroke="none"/>
    </g>
    <g id="sprite1" transform="matrix(1.0, 0.0, 0.0, 1.0, 28.6, 28.6)">
      <use ffdec:characterId="491" height="51.0" transform="matrix(1.0, 0.0, 0.0, 1.0, -26.0, -26.0)" width="51.0" xlink:href="#shape4"/>
    </g>
    <g id="shape4" transform="matrix(1.0, 0.0, 0.0, 1.0, 26.0, 26.0)">
      <path d="M25.0 14.2 Q25.0 18.65 21.85 21.85 18.65 25.0 14.2 25.0 L-15.2 25.0 Q-19.7 25.0 -22.85 21.85 -26.0 18.65 -26.0 14.2 L-26.0 -15.2 Q-26.0 -19.65 -22.85 -22.85 -19.7 -26.0 -15.2 -26.0 L14.2 -26.0 Q18.65 -26.0 21.85 -22.85 25.0 -19.65 25.0 -15.2 L25.0 14.2" fill="#95b5e1" fill-rule="evenodd" stroke="none"/>
      <path d="M-15.0 3.85 L-15.0 -4.65 13.75 -4.65 13.75 3.85 -15.0 3.85" fill="#ffffff" fill-rule="evenodd" stroke="none"/>
      <path d="M-15.0 3.85 L-15.0 -4.65 13.75 -4.65 13.75 3.85 -15.0 3.85 Z" fill="none" stroke="#ffffff" stroke-linecap="butt" stroke-linejoin="miter-clip" stroke-miterlimit="4.0" stroke-width="2.0"/>
    </g>
    <g id="sprite2" transform="matrix(1.0, 0.0, 0.0, 1.0, 28.55, 28.15)">
      <use ffdec:characterId="495" height="51.05" transform="matrix(1.0, 0.0, 0.0, 1.0, -26.0, -25.6)" width="51.05" xlink:href="#shape5"/>
    </g>
    <g id="shape5" transform="matrix(1.0, 0.0, 0.0, 1.0, 26.0, 25.6)">
      <path d="M25.05 14.65 Q25.05 19.1 21.9 22.3 18.7 25.45 14.25 25.45 L-15.2 25.45 Q-19.65 25.45 -22.85 22.3 -26.0 19.1 -26.0 14.65 L-26.0 -14.8 Q-26.0 -19.25 -22.85 -22.45 -19.65 -25.6 -15.2 -25.6 L14.25 -25.6 Q18.7 -25.6 21.9 -22.45 25.05 -19.25 25.05 -14.8 L25.05 14.65" fill="#95ca98" fill-rule="evenodd" stroke="none"/>
      <path d="M-9.05 15.75 L-16.3 8.5 8.1 -15.9 15.35 -8.65 -9.05 15.75" fill="#ffffff" fill-rule="evenodd" stroke="none"/>
      <path d="M-9.05 15.75 L-16.3 8.5 8.1 -15.9 15.35 -8.65 -9.05 15.75 Z" fill="none" stroke="#ffffff" stroke-linecap="butt" stroke-linejoin="miter-clip" stroke-miterlimit="4.0" stroke-width="1.0"/>
    </g>
    <g id="sprite3" transform="matrix(1.0, 0.0, 0.0, 1.0, 27.55, 28.15)">
      <use ffdec:characterId="499" height="51.0" transform="matrix(1.0, 0.0, 0.0, 1.0, -25.0, -25.6)" width="51.0" xlink:href="#shape6"/>
    </g>
    <g id="shape6" transform="matrix(1.0, 0.0, 0.0, 1.0, 25.0, 25.6)">
      <path d="M26.0 14.6 Q26.0 19.05 22.85 22.25 19.65 25.4 15.2 25.4 L-14.2 25.4 Q-18.7 25.4 -21.85 22.25 -25.0 19.05 -25.0 14.6 L-25.0 -14.8 Q-25.0 -19.3 -21.85 -22.45 -18.7 -25.6 -14.2 -25.6 L15.2 -25.6 Q19.65 -25.6 22.85 -22.45 26.0 -19.3 26.0 -14.8 L26.0 14.6" fill="#ecd785" fill-rule="evenodd" stroke="none"/>
      <path d="M8.05 -13.7 L14.05 -7.65 6.55 -0.1 14.1 7.5 8.1 13.5 0.5 5.95 -7.05 13.5 -13.1 7.45 -5.55 -0.1 -13.15 -7.7 -7.1 -13.75 0.5 -6.15 8.05 -13.7" fill="#ffffff" fill-rule="evenodd" stroke="none"/>
      <path d="M8.05 -13.7 L14.05 -7.65 6.55 -0.1 14.1 7.5 8.1 13.5 0.5 5.95 -7.05 13.5 -13.1 7.45 -5.55 -0.1 -13.15 -7.7 -7.1 -13.75 0.5 -6.15 8.05 -13.7 Z" fill="none" stroke="#ffffff" stroke-linecap="butt" stroke-linejoin="miter-clip" stroke-miterlimit="4.0" stroke-width="2.0"/>
    </g>
    <g id="sprite4" transform="matrix(1.0, 0.0, 0.0, 1.0, 27.05, 27.05)">
      <use ffdec:characterId="504" height="40.85" transform="matrix(1.2495, 0.0, 0.0, 1.2496, -25.0159, -25.0162)" width="40.85" xlink:href="#shape7"/>
    </g>
    <g id="shape7" transform="matrix(1.0, 0.0, 0.0, 1.0, 19.9, 19.9)">
      <path d="M-11.25 -19.9 L12.3 -19.9 Q15.9 -19.9 18.45 -17.4 20.95 -14.85 20.95 -11.25 L20.95 12.3 Q20.95 15.85 18.45 18.4 15.9 20.95 12.3 20.95 L-11.25 20.95 Q-14.8 20.95 -17.35 18.4 -19.9 15.85 -19.9 12.3 L-19.9 -11.25 Q-19.9 -14.85 -17.35 -17.4 -14.8 -19.9 -11.25 -19.9" fill="#e59a83" fill-rule="evenodd" stroke="none"/>
      <path d="M-13.3 3.5 L-13.3 -2.55 -2.55 -2.55 -2.55 -13.7 3.7 -13.7 3.65 -2.55 14.35 -2.55 14.35 3.5 3.7 3.5 3.7 14.75 -2.55 14.75 -2.55 3.5 -13.3 3.5" fill="#ffffff" fill-rule="evenodd" stroke="none"/>
    </g>
    <g id="sprite5" transform="matrix(1.0, 0.0, 0.0, 1.0, 299.8, 32.95)">
      <use ffdec:characterId="508" height="60.6" id="textField" transform="matrix(1.1, 0.0, 0.0, 1.1, -299.8, -32.95)" width="272.55" xlink:href="#text1"/>
    </g>
    <g id="text1" transform="matrix(1.0, 0.0, 0.0, 1.0, 2.0, 2.0)">
      <g transform="matrix(1.0, 0.0, 0.0, 1.0, -2.0, -2.0)">
        <use fill="#000000" height="60.6" transform="matrix(0.0488, 0.0, 0.0, 0.0488, 112.95, 48.1)" width="272.55" xlink:href="#font_Arial_Narrow_20"/>
        <use fill="#000000" height="60.6" transform="matrix(0.0488, 0.0, 0.0, 0.0488, 135.75, 48.1)" width="272.55" xlink:href="#font_Arial_Narrow_00"/>
        <use fill="#000000" height="60.6" transform="matrix(0.0488, 0.0, 0.0, 0.0488, 158.55, 48.1)" width="272.55" xlink:href="#font_Arial_Narrow_00"/>
        <use fill="#000000" height="60.6" transform="matrix(0.0488, 0.0, 0.0, 0.0488, 181.35, 48.1)" width="272.55" xlink:href="#font_Arial_Narrow_00"/>
        <use fill="#000000" height="60.6" transform="matrix(0.0488, 0.0, 0.0, 0.0488, 204.15, 48.1)" width="272.55" xlink:href="#font_Arial_Narrow_00"/>
        <use fill="#000000" height="60.6" transform="matrix(0.0488, 0.0, 0.0, 0.0488, 226.95, 48.1)" width="272.55" xlink:href="#font_Arial_Narrow_00"/>
        <use fill="#000000" height="60.6" transform="matrix(0.0488, 0.0, 0.0, 0.0488, 249.75, 48.1)" width="272.55" xlink:href="#font_Arial_Narrow_00"/>
      </g>
    </g>
    <g id="font_Arial_Narrow_20">
      <path d="M422.5 -86.5 L127.5 -86.5 Q139.5 -111.0 159.0 -135.5 178.0 -160.0 244.0 -227.5 347.5 -334.5 384.5 -399.0 421.5 -463.0 421.5 -533.0 421.5 -612.0 374.5 -674.0 327.0 -736.0 235.0 -736.0 150.5 -736.0 99.0 -682.5 47.0 -629.5 39.0 -524.0 L115.0 -514.5 Q115.0 -585.5 148.0 -624.0 181.0 -662.0 232.5 -662.0 280.5 -662.0 313.5 -626.5 346.0 -591.5 346.0 -535.5 346.0 -487.0 314.0 -430.5 282.0 -374.0 178.5 -271.0 90.0 -182.5 57.0 -117.5 23.5 -52.5 25.0 0.0 L422.5 0.0 422.5 -86.5" fill-rule="evenodd" stroke="none"/>
    </g>
    <g id="font_Arial_Narrow_00">
      <path d="M109.0 -361.5 L109.0 -361.5 Q109.0 -539.0 143.0 -600.5 176.5 -662.0 226.5 -662.0 281.5 -662.0 315.5 -601.5 350.0 -541.0 350.0 -361.5 350.0 -184.5 316.0 -123.0 282.0 -61.5 231.5 -61.5 177.5 -61.5 143.5 -122.5 109.0 -183.0 109.0 -361.5 M33.5 -361.5 L33.5 -361.5 Q33.5 -155.5 88.5 -71.5 143.0 12.5 229.0 12.5 326.5 12.5 376.0 -82.5 425.5 -178.0 425.5 -361.5 425.5 -566.0 365.5 -659.0 316.0 -736.0 230.0 -736.0 133.0 -736.0 83.5 -641.0 33.5 -546.0 33.5 -361.5" fill-rule="evenodd" stroke="none"/>
    </g>
    <g id="sprite6" transform="matrix(1.0, 0.0, 0.0, 1.0, 29.3, 29.3)">
      <use ffdec:characterId="510" height="58.6" transform="matrix(1.0, 0.0, 0.0, 1.0, -29.3, -29.3)" width="58.6" xlink:href="#shape8"/>
    </g>
    <g id="shape8" transform="matrix(1.0, 0.0, 0.0, 1.0, 29.3, 29.3)">
      <path d="M24.5 -14.15 Q24.5 -18.4 21.45 -21.5 18.4 -24.5 14.15 -24.5 L-14.15 -24.5 Q-18.4 -24.5 -21.5 -21.5 -24.5 -18.4 -24.5 -14.15 L-24.5 14.15 Q-24.5 18.4 -21.5 21.45 -18.4 24.5 -14.15 24.5 L14.15 24.5 Q18.4 24.5 21.45 21.45 24.5 18.4 24.5 14.15 L24.5 -14.15 M29.3 -14.15 L29.3 14.15 Q29.3 20.4 24.8 24.8 20.4 29.3 14.15 29.3 L-14.15 29.3 Q-20.4 29.3 -24.85 24.8 -29.3 20.4 -29.3 14.15 L-29.3 -14.15 Q-29.3 -20.4 -24.85 -24.85 -20.4 -29.3 -14.15 -29.3 L14.15 -29.3 Q20.4 -29.3 24.8 -24.85 29.3 -20.4 29.3 -14.15" fill="#030303" fill-rule="evenodd" stroke="none"/>
      <path d="M24.5 -14.15 L24.5 14.15 Q24.5 18.4 21.45 21.45 18.4 24.5 14.15 24.5 L-14.15 24.5 Q-18.4 24.5 -21.5 21.45 -24.5 18.4 -24.5 14.15 L-24.5 -14.15 Q-24.5 -18.4 -21.5 -21.5 -18.4 -24.5 -14.15 -24.5 L14.15 -24.5 Q18.4 -24.5 21.45 -21.5 24.5 -18.4 24.5 -14.15" fill="#ffffff" fill-rule="evenodd" stroke="none"/>
    </g>
  </defs>
</svg>
