<?xml version="1.0" encoding="UTF-8" standalone="no"?>
<svg xmlns:ffdec="https://www.free-decompiler.com/flash" xmlns:xlink="http://www.w3.org/1999/xlink" ffdec:objectType="frame" height="480.0px" width="640.0px" xmlns="http://www.w3.org/2000/svg">
  <g transform="matrix(1.0, 0.0, 0.0, 1.0, 320.0, 240.0)">
    <use ffdec:characterId="868" height="480.0" transform="matrix(1.0, 0.0, 0.0, 1.0, -320.0, -240.0)" width="640.0" xlink:href="#shape0"/>
    <use ffdec:characterId="869" height="0.0" transform="matrix(1.0, 0.0, 0.0, 1.0, 320.0, -169.85)" width="0.0" xlink:href="#sprite0"/>
    <use ffdec:characterId="870" height="0.0" transform="matrix(1.0, 0.0, 0.0, 1.0, 320.0, -178.9)" width="0.0" xlink:href="#sprite1"/>
    <use ffdec:characterId="871" height="197.5" transform="matrix(1.0, 0.0, 0.0, 1.0, -270.05, -14.3)" width="468.6" xlink:href="#shape1"/>
    <use ffdec:characterId="873" height="197.5" transform="matrix(1.0, 0.0, 0.0, 1.0, -270.05, -14.3)" width="468.6" xlink:href="#sprite2"/>
    <use ffdec:characterId="874" height="67.0" transform="matrix(1.0, 0.0, 0.0, 1.0, 175.65, -240.0)" width="144.35" xlink:href="#shape3"/>
    <use ffdec:characterId="876" height="67.0" transform="matrix(1.0, 0.0, 0.0, 1.0, 175.65, -240.0)" width="144.35" xlink:href="#sprite3"/>
    <use ffdec:characterId="877" height="372.3" transform="matrix(1.0, 0.0, 0.0, 1.0, -222.0, -240.0)" width="542.0" xlink:href="#shape5"/>
    <use ffdec:characterId="879" height="372.3" transform="matrix(1.0, 0.0, 0.0, 1.0, -222.0, -240.0)" width="542.0" xlink:href="#sprite4"/>
    <use ffdec:characterId="880" height="175.65" transform="matrix(1.0, 0.0, 0.0, 1.0, -269.0, 28.0)" width="459.0" xlink:href="#shape7"/>
    <use ffdec:characterId="882" height="175.65" transform="matrix(1.0, 0.0, 0.0, 1.0, -269.0, 28.0)" width="459.0" xlink:href="#sprite5"/>
  </g>
  <defs>
    <g id="shape0" transform="matrix(1.0, 0.0, 0.0, 1.0, 320.0, 240.0)">
      <path d="M114.7 -202.55 Q107.85 -206.7 103.05 -212.75 97.95 -219.25 96.8 -226.0 95.55 -233.55 99.45 -240.0 L105.9 -240.0 Q101.3 -228.45 109.45 -215.25 116.55 -203.8 128.3 -197.55 121.65 -198.35 114.7 -202.55" fill="url(#gradient0)" fill-rule="evenodd" stroke="none"/>
      <path d="M320.0 -173.0 L320.0 -169.85 Q175.45 -206.8 165.0 -212.65 175.25 -220.0 178.7 -227.95 181.35 -234.0 179.95 -240.0 L182.5 -240.0 Q185.4 -234.5 184.5 -228.7 183.25 -221.15 175.65 -213.65 L320.0 -173.0" fill="url(#gradient1)" fill-rule="evenodd" stroke="none"/>
      <path d="M320.0 -240.0 L320.0 -178.9 188.0 -216.05 Q189.55 -218.95 190.45 -223.45 192.35 -232.35 189.4 -240.0 L320.0 -240.0" fill="url(#gradient2)" fill-rule="evenodd" stroke="none"/>
      <path d="M-262.0 23.45 Q-267.05 10.4 -260.6 2.95 -253.9 -4.75 -234.0 -7.5 -246.75 -3.9 -250.9 3.4 -255.55 11.55 -250.0 24.95 -244.8 37.65 -215.9 57.7 -187.25 77.55 -143.55 98.95 -97.55 121.55 -46.6 139.95 9.3 160.2 61.5 171.85 -1.05 160.55 -62.4 139.15 -115.65 120.6 -162.7 96.4 -203.9 75.15 -231.75 54.25 -257.65 34.8 -262.0 23.45" fill="url(#gradient3)" fill-rule="evenodd" stroke="none"/>
      <path d="M-192.35 91.8 Q-256.35 56.05 -269.0 28.0 -268.25 45.75 -257.1 64.45 -245.45 84.05 -223.55 102.8 -174.5 144.7 -86.0 173.75 3.9 203.25 73.0 203.65 139.55 204.05 190.0 177.5 155.6 193.05 73.0 180.7 3.5 170.3 -67.0 146.55 -135.8 123.4 -192.35 91.8 M176.3 126.4 L175.65 119.6 Q151.2 96.85 105.6 72.85 58.65 48.15 -0.95 27.35 -41.9 13.1 -79.7 3.8 L-168.0 81.1 -173.7 77.8 -97.7 -0.45 Q-125.35 -6.8 -147.2 -10.05 -169.3 -13.4 -190.0 -14.3 L-222.35 5.35 -227.7 0.8 -205.35 -14.3 Q-256.25 -14.7 -267.4 3.5 -274.5 15.1 -262.75 32.0 -251.45 48.35 -224.2 67.45 -196.95 86.5 -158.05 105.3 -117.75 124.8 -70.65 141.25 25.25 174.75 103.3 181.75 140.2 185.05 164.05 180.95 188.7 176.75 195.8 165.15 200.3 157.8 197.45 148.7 194.75 139.85 185.3 129.7 L186.0 136.5 Q193.95 147.05 192.15 155.8 190.6 163.6 181.65 169.05 173.5 174.0 161.05 176.05 149.1 178.05 137.0 176.75 159.25 175.9 172.1 170.75 186.65 164.95 185.8 154.7 185.05 145.45 178.35 136.95 176.85 135.1 167.0 125.4 135.75 94.7 37.25 52.25 6.5 39.0 -27.35 26.1 L-55.0 15.9 -29.4 23.5 Q2.25 33.45 32.35 45.2 128.7 82.7 174.0 123.9 L176.3 126.4 M91.65 -240.0 Q86.7 -229.65 89.8 -219.35 93.15 -208.25 105.15 -200.35 L-222.0 0.4 104.2 -188.25 -91.9 0.85 -153.0 62.2 128.05 -182.1 180.8 130.7 182.2 132.3 144.75 -186.85 320.0 -145.3 320.0 240.0 -320.0 240.0 -320.0 -240.0 91.65 -240.0" fill="url(#gradient4)" fill-rule="evenodd" stroke="none"/>
    </g>
    <linearGradient gradientTransform="matrix(0.0, -0.2929, -0.2929, 0.0, 112.4, 0.0)" gradientUnits="userSpaceOnUse" id="gradient0" spreadMethod="pad" x1="-819.2" x2="819.2">
      <stop offset="0.0" stop-color="#ffffff"/>
      <stop offset="1.0" stop-color="#f0ada2"/>
    </linearGradient>
    <linearGradient gradientTransform="matrix(0.0, -0.2929, -0.2929, 0.0, 242.5, 0.05)" gradientUnits="userSpaceOnUse" id="gradient1" spreadMethod="pad" x1="-819.2" x2="819.2">
      <stop offset="0.0" stop-color="#ffffff"/>
      <stop offset="1.0" stop-color="#f0ada2"/>
    </linearGradient>
    <linearGradient gradientTransform="matrix(0.0, -0.2929, -0.2929, 0.0, 254.0, 0.05)" gradientUnits="userSpaceOnUse" id="gradient2" spreadMethod="pad" x1="-819.2" x2="819.2">
      <stop offset="0.0" stop-color="#ffffff"/>
      <stop offset="1.0" stop-color="#f0ada2"/>
    </linearGradient>
    <linearGradient gradientTransform="matrix(0.0, -0.293, -0.293, 0.0, -101.4, 0.0)" gradientUnits="userSpaceOnUse" id="gradient3" spreadMethod="pad" x1="-819.2" x2="819.2">
      <stop offset="0.0" stop-color="#ffffff"/>
      <stop offset="1.0" stop-color="#f0ada2"/>
    </linearGradient>
    <linearGradient gradientTransform="matrix(0.0, -0.2929, -0.2929, 0.0, 0.0, 0.05)" gradientUnits="userSpaceOnUse" id="gradient4" spreadMethod="pad" x1="-819.2" x2="819.2">
      <stop offset="0.0" stop-color="#ffffff"/>
      <stop offset="1.0" stop-color="#f0ada2"/>
    </linearGradient>
    <g id="shape1" transform="matrix(1.0, 0.0, 0.0, 1.0, 270.05, 14.3)">
      <path d="M-250.0 24.95 Q-255.55 11.55 -250.9 3.4 -246.75 -3.9 -234.0 -7.5 -253.9 -4.75 -260.6 2.95 -267.05 10.4 -262.0 23.45 -257.65 34.8 -231.75 54.25 -203.9 75.15 -162.7 96.4 -115.65 120.6 -62.4 139.15 -1.05 160.55 61.5 171.85 9.3 160.2 -46.6 139.95 -97.55 121.55 -143.55 98.95 -187.25 77.55 -215.9 57.7 -244.8 37.65 -250.0 24.95 M192.15 155.8 Q193.95 147.05 186.0 136.5 L185.3 129.7 Q194.75 139.85 197.45 148.7 200.3 157.8 195.8 165.15 188.7 176.75 164.05 180.95 140.2 185.05 103.3 181.75 25.25 174.75 -70.65 141.25 -117.75 124.8 -158.05 105.3 -196.95 86.5 -224.2 67.45 -251.45 48.35 -262.75 32.0 -274.5 15.1 -267.4 3.5 -256.25 -14.7 -205.35 -14.3 L-227.7 0.8 -222.35 5.35 -190.0 -14.3 Q-169.3 -13.4 -147.2 -10.05 -125.35 -6.8 -97.7 -0.45 L-173.7 77.8 -168.0 81.1 -79.7 3.8 Q-41.9 13.1 -0.95 27.35 58.65 48.15 105.6 72.85 151.2 96.85 175.65 119.6 L176.3 126.4 174.0 123.9 Q128.7 82.7 32.35 45.2 2.25 33.45 -29.4 23.5 L-55.0 15.9 -27.35 26.1 Q6.5 39.0 37.25 52.25 135.75 94.7 167.0 125.4 176.85 135.1 178.35 136.95 185.05 145.45 185.8 154.7 186.65 164.95 172.1 170.75 159.25 175.9 137.0 176.75 149.1 178.05 161.05 176.05 173.5 174.0 181.65 169.05 190.6 163.6 192.15 155.8" fill="url(#gradient5)" fill-rule="evenodd" stroke="none"/>
    </g>
    <linearGradient gradientTransform="matrix(0.0, -0.2929, -0.2929, 0.0, -35.75, 0.05)" gradientUnits="userSpaceOnUse" id="gradient5" spreadMethod="pad" x1="-819.2" x2="819.2">
      <stop offset="0.0" stop-color="#ffffff"/>
      <stop offset="1.0" stop-color="#f0ada2"/>
    </linearGradient>
    <g id="sprite2" transform="matrix(1.0, 0.0, 0.0, 1.0, 0.0, 0.0)">
      <use ffdec:characterId="872" height="197.5" transform="matrix(1.0, 0.0, 0.0, 1.0, 0.0, 0.0)" width="468.6" xlink:href="#shape2"/>
    </g>
    <g id="shape2" transform="matrix(1.0, 0.0, 0.0, 1.0, 0.0, 0.0)">
      <path d="M20.05 39.25 Q14.5 25.85 19.15 17.7 23.3 10.4 36.05 6.8 16.15 9.55 9.45 17.25 3.0 24.7 8.05 37.75 12.4 49.1 38.3 68.55 66.15 89.45 107.35 110.7 154.4 134.9 207.65 153.45 269.0 174.85 331.55 186.15 279.35 174.5 223.45 154.25 172.5 135.85 126.5 113.25 82.8 91.85 54.15 72.0 25.3 51.95 20.05 39.25 M445.7 133.9 L446.35 140.7 444.05 138.2 Q398.75 97.0 302.4 59.5 254.2 40.75 215.05 30.2 258.05 45.3 307.3 66.55 405.8 109.0 437.05 139.7 446.9 149.4 448.4 151.25 455.1 159.75 455.85 169.0 456.7 179.25 442.15 185.05 429.3 190.2 407.05 191.05 419.15 192.35 431.1 190.35 443.55 188.3 451.7 183.35 460.65 177.9 462.2 170.1 464.0 161.35 456.05 150.8 L455.35 144.0 Q464.8 154.15 467.5 163.0 470.35 172.1 465.85 179.45 458.75 191.05 434.1 195.25 410.25 199.35 373.35 196.05 295.3 189.05 199.4 155.55 152.3 139.1 112.0 119.6 73.1 100.8 45.85 81.75 18.6 62.65 7.3 46.3 -4.45 29.4 2.65 17.8 13.8 -0.4 64.7 0.0 L42.35 15.1 47.7 19.65 80.05 0.0 Q100.75 0.9 122.85 4.25 144.7 7.5 172.35 13.85 L96.35 92.1 102.05 95.4 190.35 18.1 Q228.15 27.4 269.1 41.65 328.7 62.45 375.65 87.15 421.25 111.15 445.7 133.9" fill="#ffffff" fill-rule="evenodd" stroke="none"/>
    </g>
    <g id="shape3" transform="matrix(1.0, 0.0, 0.0, 1.0, -175.65, 240.0)">
      <path d="M320.0 -178.9 L320.0 -173.0 175.65 -213.65 Q183.25 -221.15 184.5 -228.7 185.4 -234.5 182.5 -240.0 L189.4 -240.0 Q192.35 -232.35 190.45 -223.45 189.55 -218.95 188.0 -216.05 L320.0 -178.9" fill="url(#gradient6)" fill-rule="evenodd" stroke="none"/>
    </g>
    <linearGradient gradientTransform="matrix(0.0, -0.2929, -0.2929, 0.0, 247.8, 0.05)" gradientUnits="userSpaceOnUse" id="gradient6" spreadMethod="pad" x1="-819.2" x2="819.2">
      <stop offset="0.0" stop-color="#ffffff"/>
      <stop offset="1.0" stop-color="#f0ada2"/>
    </linearGradient>
    <g id="sprite3" transform="matrix(1.0, 0.0, 0.0, 1.0, 0.0, 0.0)">
      <use ffdec:characterId="875" height="67.0" transform="matrix(1.0, 0.0, 0.0, 1.0, 0.0, 0.0)" width="144.35" xlink:href="#shape4"/>
    </g>
    <g id="shape4" transform="matrix(1.0, 0.0, 0.0, 1.0, 0.0, 0.0)">
      <path d="M144.35 61.1 L144.35 67.0 0.0 26.35 Q7.6 18.85 8.85 11.3 9.75 5.5 6.85 0.0 L13.75 0.0 Q16.7 7.65 14.8 16.55 13.9 21.05 12.35 23.95 L144.35 61.1" fill="#ffffff" fill-rule="evenodd" stroke="none"/>
    </g>
    <g id="shape5" transform="matrix(1.0, 0.0, 0.0, 1.0, 222.0, 240.0)">
      <path d="M320.0 -169.85 L320.0 -145.3 144.75 -186.85 182.2 132.3 180.8 130.7 128.05 -182.1 -153.0 62.2 -91.9 0.85 104.2 -188.25 -222.0 0.4 105.15 -200.35 Q93.15 -208.25 89.8 -219.35 86.7 -229.65 91.65 -240.0 L99.45 -240.0 Q95.55 -233.55 96.8 -226.0 97.95 -219.25 103.05 -212.75 107.85 -206.7 114.7 -202.55 121.65 -198.35 128.3 -197.55 116.55 -203.8 109.45 -215.25 101.3 -228.45 105.9 -240.0 L179.95 -240.0 Q181.35 -234.0 178.7 -227.95 175.25 -220.0 165.0 -212.65 175.45 -206.8 320.0 -169.85" fill="url(#gradient7)" fill-rule="evenodd" stroke="none"/>
    </g>
    <linearGradient gradientTransform="matrix(0.0, -0.2929, -0.2929, 0.0, 49.0, 0.05)" gradientUnits="userSpaceOnUse" id="gradient7" spreadMethod="pad" x1="-819.2" x2="819.2">
      <stop offset="0.0" stop-color="#ffffff"/>
      <stop offset="1.0" stop-color="#f0ada2"/>
    </linearGradient>
    <g id="sprite4" transform="matrix(1.0, 0.0, 0.0, 1.0, 0.0, 0.0)">
      <use ffdec:characterId="878" height="372.3" transform="matrix(1.0, 0.0, 0.0, 1.0, 0.0, 0.0)" width="542.0" xlink:href="#shape6"/>
    </g>
    <g id="shape6" transform="matrix(1.0, 0.0, 0.0, 1.0, 0.0, 0.0)">
      <path d="M542.0 70.15 L542.0 94.7 366.75 53.15 404.2 372.3 402.8 370.7 350.05 57.9 69.0 302.2 130.1 240.85 326.2 51.75 0.0 240.4 327.15 39.65 Q315.15 31.75 311.8 20.65 308.7 10.35 313.65 0.0 L321.45 0.0 Q317.55 6.45 318.8 14.0 319.95 20.75 325.05 27.25 329.85 33.3 336.7 37.45 343.65 41.65 350.3 42.45 338.55 36.2 331.45 24.75 323.3 11.55 327.9 0.0 L401.95 0.0 Q403.35 6.0 400.7 12.05 397.25 20.0 387.0 27.35 397.45 33.2 542.0 70.15" fill="#ffffff" fill-rule="evenodd" stroke="none"/>
    </g>
    <g id="shape7" transform="matrix(1.0, 0.0, 0.0, 1.0, 269.0, -28.0)">
      <path d="M-223.55 102.8 Q-245.45 84.05 -257.1 64.45 -268.25 45.75 -269.0 28.0 -256.35 56.05 -192.35 91.8 -135.8 123.4 -67.0 146.55 3.5 170.3 73.0 180.7 155.6 193.05 190.0 177.5 139.55 204.05 73.0 203.65 3.9 203.25 -86.0 173.75 -174.5 144.7 -223.55 102.8" fill="url(#gradient8)" fill-rule="evenodd" stroke="none"/>
    </g>
    <linearGradient gradientTransform="matrix(0.0, -0.2929, -0.2929, 0.0, -39.5, 0.05)" gradientUnits="userSpaceOnUse" id="gradient8" spreadMethod="pad" x1="-819.2" x2="819.2">
      <stop offset="0.0" stop-color="#ffffff"/>
      <stop offset="1.0" stop-color="#f0ada2"/>
    </linearGradient>
    <g id="sprite5" transform="matrix(1.0, 0.0, 0.0, 1.0, 0.0, 0.0)">
      <use ffdec:characterId="881" height="175.65" transform="matrix(1.0, 0.0, 0.0, 1.0, 0.0, 0.0)" width="459.0" xlink:href="#shape8"/>
    </g>
    <g id="shape8" transform="matrix(1.0, 0.0, 0.0, 1.0, 0.0, 0.0)">
      <path d="M342.0 152.7 Q424.6 165.05 459.0 149.5 408.55 176.05 342.0 175.65 272.9 175.25 183.0 145.75 94.5 116.7 45.45 74.8 23.55 56.05 11.9 36.45 0.75 17.75 0.0 0.0 12.65 28.05 76.65 63.8 133.2 95.4 202.0 118.55 272.5 142.3 342.0 152.7" fill="#ffffff" fill-rule="evenodd" stroke="none"/>
    </g>
  </defs>
</svg>
