<?xml version="1.0" encoding="UTF-8" standalone="no"?>
<svg xmlns:ffdec="https://www.free-decompiler.com/flash" xmlns:xlink="http://www.w3.org/1999/xlink" ffdec:objectType="frame" height="84.15px" width="84.9px" xmlns="http://www.w3.org/2000/svg">
  <g transform="matrix(1.0, 0.0, 0.0, 1.0, 42.45, 84.15)">
    <use ffdec:characterId="781" height="77.55" transform="matrix(1.0, 0.0, 0.0, 1.0, -40.15, -77.55)" width="80.35" xlink:href="#sprite0"/>
  </g>
  <defs>
    <g id="sprite0" transform="matrix(1.0, 0.0, 0.0, 1.0, 40.15, 38.8)">
      <use ffdec:characterId="780" height="77.55" transform="matrix(1.0, 0.0, 0.0, 1.0, -40.15, -38.8)" width="80.35" xlink:href="#shape0"/>
    </g>
    <g id="shape0" transform="matrix(1.0, 0.0, 0.0, 1.0, 40.15, 38.8)">
      <path d="M31.05 -31.25 Q34.8 -29.65 36.5 -27.9 L36.6 -27.8 -10.4 1.9 -36.2 -28.1 -35.85 -28.3 Q-33.45 -29.75 -29.25 -31.35 L-28.95 -31.45 Q-27.85 -30.2 -26.15 -29.5 -24.35 -28.75 -22.35 -28.75 -19.1 -28.75 -16.75 -30.45 -14.45 -32.2 -14.45 -34.6 L-14.45 -34.7 0.6 -35.7 7.95 -35.5 8.15 -35.5 11.25 -35.3 19.55 -34.3 Q26.75 -33.05 31.05 -31.25" fill="#ffe44f" fill-rule="evenodd" stroke="none"/>
      <path d="M36.6 -27.8 L37.0 -27.25 36.6 -11.25 Q33.9 -13.15 31.75 -9.35 29.65 -5.65 30.6 -1.7 31.1 0.25 32.95 -0.1 34.65 -0.45 36.4 -2.4 L36.3 1.1 Q35.9 0.5 34.15 1.9 L31.4 4.1 15.6 16.4 Q8.05 22.3 2.35 27.25 L-9.15 37.7 -10.3 38.6 -10.05 1.65 36.6 -27.8" fill="#bf9d17" fill-rule="evenodd" stroke="none"/>
      <path d="M-36.85 -27.65 L-36.2 -28.1 -10.4 1.9 -10.05 1.65 -10.3 38.6 -10.5 38.75 -11.45 37.3 -14.5 31.7 -14.55 31.7 -16.0 29.05 Q-20.2 21.7 -23.85 15.9 -22.9 15.6 -22.45 14.05 -21.25 10.05 -24.4 7.35 -27.45 4.8 -29.95 6.6 L-31.25 4.65 -31.3 4.55 -32.8 2.3 Q-33.5 1.4 -33.85 -2.25 L-34.6 -8.8 -36.85 -27.65" fill="#d9bc36" fill-rule="evenodd" stroke="none"/>
      <path d="M38.8 -30.15 L39.5 -29.35 Q39.9 -28.9 40.2 -27.45 L40.1 -21.75 39.55 -9.1 36.7 -8.85 Q35.55 -8.4 35.05 -7.6 34.4 -6.55 34.3 -5.65 34.2 -4.55 35.2 -4.75 38.4 -5.45 39.7 -6.3 L39.55 1.2 Q37.65 3.55 36.05 4.75 L33.35 6.75 17.55 19.0 Q10.15 24.75 3.75 29.15 L-9.15 37.7 2.35 27.25 Q8.05 22.3 15.6 16.4 L31.4 4.1 34.15 1.9 Q35.9 0.5 36.3 1.1 L36.4 -2.4 Q34.65 -0.45 32.95 -0.1 31.1 0.25 30.6 -1.7 29.65 -5.65 31.75 -9.35 33.9 -13.15 36.6 -11.25 L37.0 -27.25 36.6 -27.8 36.5 -27.9 Q34.8 -29.65 31.05 -31.25 26.75 -33.05 19.55 -34.3 L11.25 -35.3 8.15 -35.5 7.95 -35.5 0.6 -35.7 -14.45 -34.7 -14.45 -34.6 Q-14.45 -32.2 -16.75 -30.45 -19.1 -28.75 -22.35 -28.75 -24.35 -28.75 -26.15 -29.5 -27.85 -30.2 -28.95 -31.45 L-29.25 -31.35 Q-33.45 -29.75 -35.85 -28.3 L-36.85 -27.65 -34.6 -8.8 -33.85 -2.25 Q-33.5 1.4 -32.8 2.3 L-31.3 4.55 -31.25 4.65 -29.95 6.6 Q-27.45 4.8 -24.4 7.35 -21.25 10.05 -22.45 14.05 -22.9 15.6 -23.85 15.9 -20.2 21.7 -16.0 29.05 L-14.55 31.7 -14.5 31.7 -11.45 37.3 Q-17.1 30.25 -27.45 15.25 L-25.8 14.35 Q-25.15 13.7 -25.15 12.55 -25.15 10.85 -26.0 9.8 -26.85 8.75 -28.3 8.75 -30.15 8.75 -31.2 10.55 L-35.45 4.1 Q-36.8 1.5 -37.1 -2.05 L-37.8 -8.4 -40.15 -28.15 -40.15 -28.25 -39.5 -29.8 -39.45 -29.85 -39.4 -29.85 -37.5 -31.15 Q-34.8 -32.8 -30.3 -34.45 L-28.3 -35.45 -25.3 -32.75 Q-23.5 -31.6 -20.8 -32.25 -16.4 -33.4 -17.95 -37.45 L0.3 -38.8 8.3 -38.75 11.5 -38.55 20.05 -37.5 Q27.4 -36.25 32.25 -34.3 36.65 -32.4 38.8 -30.15" fill="#94790e" fill-rule="evenodd" stroke="none"/>
      <path d="M-29.65 -20.5 Q-26.95 -21.65 -24.65 -21.15 -22.65 -20.7 -21.45 -19.1 L-23.95 -19.25 -26.45 -19.45 Q-26.45 -13.4 -25.8 -10.6 -27.15 -12.25 -28.25 -14.9 -29.45 -17.8 -29.65 -20.5 M6.4 -4.35 L4.55 -1.45 Q2.05 0.45 -0.6 1.2 -3.7 2.1 -6.2 1.1 -6.5 0.3 -6.45 -0.55 -7.8 -1.3 -8.3 -3.0 -8.6 -4.1 -8.6 -5.95 -8.6 -8.55 -5.65 -10.4 -2.65 -12.3 1.9 -12.3 4.95 -12.3 8.2 -9.9 L8.05 -7.75 Q7.5 -6.15 6.4 -4.35 M7.4 -30.4 Q4.5 -29.75 2.55 -28.45 1.2 -25.7 3.2 -23.95 4.85 -22.45 7.55 -22.45 L12.15 -22.6 Q14.4 -23.3 16.0 -25.15 15.3 -23.15 12.55 -21.8 9.75 -20.45 6.15 -20.45 2.0 -20.45 -0.95 -22.2 -3.9 -23.95 -3.9 -26.4 -3.9 -28.85 -0.95 -30.55 2.0 -32.3 6.15 -32.3 10.1 -32.3 13.0 -30.7 L7.4 -30.4" fill="#bf9d17" fill-rule="evenodd" stroke="none"/>
      <path d="M-10.05 17.25 Q-4.9 14.95 -2.4 17.8 -1.15 19.2 -1.25 21.7 -2.65 19.7 -5.45 20.15 -8.1 20.55 -9.45 22.55 -10.45 24.55 -10.45 29.55 -13.0 27.95 -13.4 22.45 -13.8 16.8 -10.05 17.25 M12.8 6.6 Q11.9 8.9 13.55 10.55 L14.85 9.85 Q15.7 9.15 16.15 9.3 13.85 11.35 10.05 12.6 6.2 13.3 6.95 9.6 7.55 6.25 9.8 4.3 10.85 3.35 12.65 3.05 L15.9 3.25 Q13.65 4.45 12.8 6.6 M21.1 -14.85 Q22.65 -16.15 24.2 -15.7 26.0 -15.15 26.85 -13.4 L26.55 -13.45 Q24.95 -13.45 23.8 -12.7 22.55 -11.85 22.55 -10.45 22.55 -8.55 25.3 -8.45 24.3 -7.9 23.05 -7.75 L20.9 -7.85 Q18.1 -8.65 19.1 -11.9 19.65 -13.7 21.1 -14.85" fill="#94790e" fill-rule="evenodd" stroke="none"/>
      <path d="M-9.45 22.55 Q-8.1 20.55 -5.45 20.15 -2.65 19.7 -1.25 21.7 -1.35 25.25 -3.35 26.95 -5.3 28.6 -6.45 29.25 -8.5 30.3 -10.2 29.7 L-10.45 29.55 Q-10.45 24.55 -9.45 22.55 M-26.45 -19.45 L-23.95 -19.25 -21.45 -19.1 Q-20.25 -17.5 -20.5 -15.6 -20.8 -13.6 -22.65 -12.25 -22.6 -9.75 -23.45 -9.3 -24.2 -8.9 -25.45 -10.25 L-25.8 -10.6 Q-26.45 -13.4 -26.45 -19.45 M26.85 -13.4 Q27.5 -12.05 27.1 -10.65 26.75 -9.3 25.3 -8.45 22.55 -8.55 22.55 -10.45 22.55 -11.85 23.8 -12.7 24.95 -13.45 26.55 -13.45 L26.85 -13.4 M15.9 3.25 Q18.2 4.15 17.9 6.45 L17.6 7.55 16.15 9.3 Q15.7 9.15 14.85 9.85 L13.55 10.55 Q11.9 8.9 12.8 6.6 13.65 4.45 15.9 3.25 M6.4 -4.35 Q7.5 -6.15 8.05 -7.75 7.15 1.15 1.15 3.35 L-3.35 3.5 Q-5.5 2.85 -6.2 1.1 -3.7 2.1 -0.6 1.2 2.05 0.45 4.55 -1.45 L6.4 -4.35 M7.55 -22.45 Q4.85 -22.45 3.2 -23.95 1.2 -25.7 2.55 -28.45 4.5 -29.75 7.4 -30.4 L13.0 -30.7 Q16.2 -29.0 16.2 -26.4 L16.0 -25.15 Q14.4 -23.3 12.15 -22.6 L7.55 -22.45" fill="#d9bc36" fill-rule="evenodd" stroke="none"/>
    </g>
  </defs>
</svg>
