<?xml version="1.0" encoding="UTF-8" standalone="no"?>
<svg xmlns:ffdec="https://www.free-decompiler.com/flash" xmlns:xlink="http://www.w3.org/1999/xlink" ffdec:objectType="frame" height="84.15px" width="84.9px" xmlns="http://www.w3.org/2000/svg">
  <g transform="matrix(1.0, 0.0, 0.0, 1.0, 42.45, 84.15)">
    <use ffdec:characterId="927" height="78.3" transform="matrix(1.0, 0.0, 0.0, 1.0, -41.3, -78.3)" width="82.65" xlink:href="#sprite0"/>
  </g>
  <defs>
    <g id="sprite0" transform="matrix(1.0, 0.0, 0.0, 1.0, 41.3, 39.15)">
      <use ffdec:characterId="926" height="78.3" transform="matrix(1.0, 0.0, 0.0, 1.0, -41.3, -39.15)" width="82.65" xlink:href="#shape0"/>
    </g>
    <g id="shape0" transform="matrix(1.0, 0.0, 0.0, 1.0, 41.3, 39.15)">
      <path d="M-5.55 24.0 Q-9.05 25.4 -10.7 28.0 -7.35 29.1 -2.8 26.75 2.4 24.0 4.3 24.0 3.2 28.9 -2.95 29.65 L-7.8 30.35 Q-10.4 31.05 -11.7 33.0 -7.7 33.0 -5.7 32.0 L-4.8 33.5 Q-4.15 34.45 -4.7 35.0 L-9.0 35.6 Q-14.65 34.8 -21.85 31.1 -23.05 29.8 -23.7 28.4 L-23.85 28.1 Q-23.85 28.0 -23.7 28.0 -17.75 28.0 -10.3 22.25 -2.1 15.9 2.3 15.0 -0.25 18.85 -6.7 21.0 -3.5 21.0 2.45 17.15 8.05 13.45 12.3 14.0 10.15 19.95 1.2 22.15 -4.15 23.4 -5.55 24.0 M2.3 8.9 Q12.35 2.35 18.45 -2.4 L17.9 -1.75 23.6 -6.45 Q18.45 0.8 7.65 7.95 L-11.7 20.0 Q-16.75 23.1 -19.7 24.05 -25.05 25.8 -29.2 23.7 -22.05 24.3 -14.7 20.0 L2.3 8.9 M34.3 -24.0 L34.15 -22.4 32.9 -20.25 Q31.4 -18.0 29.3 -16.0 16.0 -1.9 0.7 7.65 -15.8 17.95 -33.35 22.1 L-39.05 21.45 Q-37.45 19.05 -37.45 14.2 L-37.5 6.5 Q-36.3 -4.35 -32.75 -12.35 -31.0 -16.3 -26.4 -20.35 L-18.7 -27.1 -15.0 -30.15 Q-12.1 -32.15 -8.75 -33.6 -5.1 -35.15 -1.5 -35.8 -0.35 -34.7 2.25 -33.85 4.2 -33.15 5.3 -31.0 6.7 -29.6 3.9 -27.2 7.1 -29.6 9.1 -30.35 11.95 -31.4 14.3 -30.0 16.75 -28.75 14.55 -25.85 11.3 -22.5 10.3 -21.0 11.3 -20.0 14.3 -20.0 15.7 -16.45 14.2 -12.5 12.75 -8.8 10.3 -8.0 5.6 -7.4 5.2 -12.0 4.9 -15.65 7.15 -20.75 3.45 -13.85 -1.45 -13.85 1.5 -13.45 2.75 -11.55 4.2 -9.5 2.3 -7.0 2.65 -7.0 3.8 -6.1 L5.3 -6.0 Q3.9 -1.85 -0.05 0.25 -3.4 2.0 -7.65 2.0 -6.95 2.0 -6.3 2.65 -5.7 3.25 -5.7 4.0 -8.35 7.3 -12.8 9.0 -15.15 9.9 -20.7 11.0 -18.7 7.0 -11.7 1.5 -4.7 -4.0 -2.7 -8.0 -4.25 -8.4 -7.4 -10.25 -10.25 -11.95 -11.95 -12.1 -10.9 -11.85 -9.95 -10.7 L-8.7 -9.0 Q-8.7 -7.65 -9.95 -6.6 -10.7 -6.0 -12.7 -5.0 -13.6 -4.4 -14.55 -0.5 -15.25 2.15 -18.7 1.0 -18.0 6.05 -21.2 9.25 -24.15 12.2 -29.7 13.0 -29.05 11.05 -22.7 0.25 -18.1 -7.55 -18.7 -14.0 -18.7 -6.65 -23.7 0.0 L-25.7 -0.85 -27.7 -1.0 Q-27.7 7.65 -31.7 13.0 -30.5 10.2 -31.3 1.5 -32.05 -6.1 -28.7 -10.0 -33.25 -6.55 -33.4 1.1 L-33.2 7.75 Q-33.05 11.9 -33.4 14.45 -34.0 15.0 -33.85 16.7 -33.65 18.35 -34.3 18.75 -27.9 17.3 -20.0 13.85 -14.95 11.7 -5.7 7.0 -0.4 5.0 4.9 0.45 7.9 -2.1 13.95 -8.5 25.6 -20.95 34.3 -24.0" fill="#e5b370" fill-rule="evenodd" stroke="none"/>
      <path d="M37.25 -20.15 Q36.9 -18.6 36.8 -16.5 39.05 -12.0 38.95 -5.7 38.9 -1.0 37.3 7.75 36.25 13.6 24.65 22.75 13.75 31.3 5.25 34.15 -2.35 36.6 -9.0 35.6 L-4.7 35.0 Q-4.15 34.45 -4.8 33.5 L-5.7 32.0 Q-7.7 33.0 -11.7 33.0 -10.4 31.05 -7.8 30.35 L-2.95 29.65 Q3.2 28.9 4.3 24.0 2.4 24.0 -2.8 26.75 -7.35 29.1 -10.7 28.0 -9.05 25.4 -5.55 24.0 -4.15 23.4 1.2 22.15 10.15 19.95 12.3 14.0 8.05 13.45 2.45 17.15 -3.5 21.0 -6.7 21.0 -0.25 18.85 2.3 15.0 -2.1 15.9 -10.3 22.25 -17.75 28.0 -23.7 28.0 -23.85 28.0 -23.85 28.1 L-23.7 28.4 Q-23.05 29.8 -21.85 31.1 -30.05 26.6 -34.7 24.35 L-29.35 23.65 -29.2 23.7 Q-25.05 25.8 -19.7 24.05 -16.75 23.1 -11.7 20.0 L7.65 7.95 Q18.45 0.8 23.6 -6.45 L27.75 -10.4 Q33.95 -16.65 37.3 -22.0 L37.45 -21.65 Q37.55 -21.25 37.25 -20.15 M31.55 -26.1 L33.5 -25.45 35.0 -24.75 36.35 -24.3 Q34.25 -18.8 28.45 -12.65 L18.45 -2.4 Q12.35 2.35 2.3 8.9 L-14.7 20.0 Q-22.25 24.35 -29.35 23.65 L-22.4 22.3 -33.35 22.1 Q-15.8 17.95 0.7 7.65 16.0 -1.9 29.3 -16.0 32.65 -19.25 34.15 -22.4 L34.3 -24.0 Q25.6 -20.95 13.95 -8.5 7.9 -2.1 4.9 0.45 -0.4 5.0 -5.7 7.0 -14.95 11.7 -20.0 13.85 -27.9 17.3 -34.3 18.75 -33.65 18.35 -33.85 16.7 -34.0 15.0 -33.4 14.45 -33.05 11.9 -33.2 7.75 L-33.4 1.1 Q-33.25 -6.55 -28.7 -10.0 -32.05 -6.1 -31.3 1.5 -30.5 10.2 -31.7 13.0 -27.7 7.65 -27.7 -1.0 L-25.7 -0.85 -23.7 0.0 Q-18.7 -6.65 -18.7 -14.0 -18.1 -7.55 -22.7 0.25 -29.05 11.05 -29.7 13.0 -24.15 12.2 -21.2 9.25 -18.0 6.05 -18.7 1.0 -15.25 2.15 -14.55 -0.5 -13.6 -4.4 -12.7 -5.0 -10.7 -6.0 -9.95 -6.6 -8.7 -7.65 -8.7 -9.0 L-9.95 -10.7 Q-10.9 -11.85 -11.95 -12.1 -10.25 -11.95 -7.4 -10.25 -4.25 -8.4 -2.7 -8.0 -4.7 -4.0 -11.7 1.5 -18.7 7.0 -20.7 11.0 -15.15 9.9 -12.8 9.0 -8.35 7.3 -5.7 4.0 -5.7 3.25 -6.3 2.65 -6.95 2.0 -7.65 2.0 -3.4 2.0 -0.05 0.25 3.9 -1.85 5.3 -6.0 L3.8 -6.1 Q2.65 -7.0 2.3 -7.0 4.2 -9.5 2.75 -11.55 1.5 -13.45 -1.45 -13.85 3.45 -13.85 7.15 -20.75 4.9 -15.65 5.2 -12.0 5.6 -7.4 10.3 -8.0 12.75 -8.8 14.2 -12.5 15.7 -16.45 14.3 -20.0 11.3 -20.0 10.3 -21.0 11.3 -22.5 14.55 -25.85 16.75 -28.75 14.3 -30.0 11.95 -31.4 9.1 -30.35 7.1 -29.6 3.9 -27.2 6.7 -29.6 5.3 -31.0 4.2 -33.15 2.25 -33.85 -0.35 -34.7 -1.5 -35.8 7.2 -37.55 14.7 -34.6 L23.55 -30.95 Q28.95 -28.5 31.55 -26.1" fill="#8e582e" fill-rule="evenodd" stroke="none"/>
      <path d="M26.95 12.65 Q26.8 13.4 27.05 15.15 L27.3 17.4 Q27.1 19.2 26.4 20.3 25.65 21.45 24.05 22.3 22.7 23.0 21.5 24.05 L19.2 26.2 16.7 27.95 13.7 28.45 11.85 28.1 11.1 28.15 11.45 27.9 13.35 27.4 15.2 26.75 16.55 25.75 17.5 24.3 Q18.15 23.25 19.6 22.9 L22.2 22.25 Q23.8 21.6 25.0 20.35 26.4 18.95 26.7 17.4 L26.6 15.85 26.3 14.25 Q26.35 13.55 26.95 12.65 M16.35 6.7 L14.2 8.0 11.95 9.1 10.6 9.9 Q9.8 10.4 9.2 10.55 L6.75 11.0 Q7.45 10.5 9.15 9.75 L11.55 8.5 Q15.45 5.95 18.65 3.0 L22.85 -1.15 Q24.4 -2.9 25.3 -3.45 23.75 -1.95 22.2 0.15 L21.1 1.9 19.7 3.4 Q21.55 3.3 21.25 5.5 L21.0 6.4 20.8 7.25 20.9 8.1 20.85 8.9 19.95 10.35 18.55 11.45 17.5 12.55 16.35 13.4 Q19.3 9.45 19.45 6.65 L19.25 5.4 Q18.9 4.75 18.2 4.9 17.95 4.95 17.3 5.7 L16.35 6.7 M28.8 -28.2 Q26.15 -29.9 21.75 -31.75 16.85 -33.7 14.7 -34.6 6.5 -37.8 -3.1 -35.5 -12.3 -33.3 -18.7 -27.1 L-26.4 -20.35 Q-31.0 -16.3 -32.75 -12.35 -36.3 -4.35 -37.5 6.5 L-37.45 14.2 Q-37.45 19.05 -39.05 21.45 L-30.75 22.2 -22.4 22.3 Q-28.45 23.75 -34.7 24.35 L-29.7 26.9 -27.05 26.9 -25.0 26.4 -22.95 26.15 Q-25.45 27.7 -27.45 28.1 -17.4 33.6 -12.35 34.95 -3.9 37.15 5.25 34.15 10.35 32.45 17.45 27.9 24.65 23.25 30.0 18.15 L30.45 16.1 Q30.75 14.9 31.2 14.05 L33.3 10.9 34.15 9.4 34.85 7.8 33.55 11.55 33.35 13.1 33.3 14.7 Q36.8 10.75 37.3 7.75 L38.1 3.1 36.9 3.55 Q35.95 3.65 35.35 4.2 L34.7 5.2 34.05 6.25 32.2 7.55 30.1 7.95 31.0 7.3 31.85 6.05 Q32.25 5.35 33.0 4.9 L36.4 2.3 Q37.95 0.75 38.7 -1.1 L38.8 -2.05 38.7 -2.1 38.8 -2.15 38.95 -4.1 38.6 -4.45 38.25 -5.0 Q37.5 -5.8 36.65 -5.9 L34.85 -5.6 Q35.2 -6.15 36.55 -6.75 37.85 -7.3 38.2 -8.0 38.85 -9.35 38.25 -12.65 L38.0 -13.55 37.8 -13.6 37.9 -13.85 37.05 -16.0 36.95 -15.75 Q36.6 -14.75 35.9 -14.15 L34.3 -13.0 33.05 -11.7 31.8 -10.25 30.35 -8.95 31.4 -10.55 31.95 -12.45 Q32.2 -13.3 33.25 -13.75 34.5 -14.3 35.05 -14.75 35.75 -15.3 36.25 -16.35 L36.95 -18.4 37.0 -18.95 36.95 -19.0 37.05 -19.0 37.4 -20.8 Q37.55 -21.45 37.3 -22.0 33.95 -16.8 28.35 -11.05 23.05 -5.55 17.9 -1.75 21.0 -5.4 28.1 -12.3 34.25 -18.7 36.35 -24.3 35.1 -24.7 33.9 -25.3 L31.55 -26.1 30.7 -26.85 Q31.15 -25.85 29.75 -24.45 28.9 -23.6 27.2 -22.6 L24.45 -20.9 25.65 -22.75 26.85 -24.55 27.9 -25.35 28.75 -26.35 Q29.1 -27.15 28.8 -28.2 M32.55 -28.25 L36.55 -27.4 Q38.6 -26.85 39.05 -25.85 40.45 -22.9 40.05 -20.2 L39.45 -15.85 Q41.6 -6.4 41.3 0.4 41.0 7.1 38.3 12.75 33.95 21.85 23.95 28.6 16.05 33.95 5.5 37.35 -4.6 40.55 -13.55 38.0 -20.4 36.0 -30.5 28.95 L-36.55 26.7 Q-40.8 25.15 -41.15 22.9 -41.5 20.3 -40.95 18.35 -40.2 16.35 -39.95 15.0 -40.85 6.85 -39.15 -1.75 -37.55 -10.0 -33.95 -16.5 -27.25 -24.3 -21.25 -29.1 -13.4 -35.4 -5.25 -37.95 0.5 -39.75 8.25 -38.9 15.8 -38.05 21.3 -35.1 L27.55 -31.8 Q31.3 -29.65 32.55 -28.25" fill="#451f06" fill-rule="evenodd" stroke="none"/>
      <path d="M-21.5 17.65 L-25.4 19.0 -31.85 20.9 -34.65 21.85 -37.55 22.0 -37.55 21.75 Q-38.25 21.3 -38.3 20.55 -38.35 19.85 -37.8 19.05 -37.05 18.1 -36.7 18.05 -36.0 17.95 -35.75 18.4 L-35.25 19.2 -31.35 18.9 Q-27.95 17.75 -27.35 17.7 L-25.4 17.4 -23.7 16.5 Q-22.95 16.0 -21.9 15.7 -20.65 15.35 -20.0 15.7 -18.65 16.45 -21.5 17.65 M-16.2 28.5 L-13.55 28.55 Q-11.75 28.75 -11.35 29.3 -12.3 30.1 -15.15 30.65 L-18.85 30.5 -18.85 30.7 Q-20.0 29.95 -18.5 29.2 L-16.2 28.5 M-10.1 10.05 Q-6.4 8.25 -4.35 8.2 -4.4 10.0 -7.8 11.95 -10.65 13.6 -12.45 13.7 L-11.35 13.7 -14.3 13.85 Q-14.25 12.05 -10.1 10.05 M-25.7 10.2 Q-26.3 9.2 -23.4 4.85 -22.6 3.7 -21.95 3.55 -21.15 3.4 -21.4 5.0 -21.55 6.3 -23.2 8.4 -24.95 10.6 -25.85 10.2 L-25.7 10.2 M-36.55 2.3 Q-35.8 0.85 -35.0 3.0 -34.65 4.0 -34.75 5.75 L-35.0 8.5 -34.75 11.1 Q-34.7 12.7 -35.65 13.0 L-35.85 12.5 -35.85 12.7 Q-37.0 12.15 -37.35 9.25 -37.6 7.15 -37.35 5.2 -37.1 3.3 -36.55 2.3 M-33.2 -7.8 L-33.5 -7.5 Q-34.1 -8.65 -33.05 -10.9 L-31.25 -14.2 Q-29.1 -18.85 -27.05 -18.2 -27.2 -15.7 -29.2 -12.3 -31.2 -8.85 -33.2 -7.8 M-23.15 -10.95 L-23.7 -9.15 Q-24.0 -8.45 -24.7 -7.95 L-26.0 -7.0 Q-26.6 -6.4 -26.7 -5.55 -26.85 -4.45 -27.15 -3.95 -27.65 -2.95 -29.0 -1.6 -29.7 -2.25 -29.8 -3.95 -29.95 -5.55 -29.5 -6.35 -28.65 -7.35 -28.35 -8.0 L-28.05 -9.0 -27.8 -10.0 -26.35 -14.15 Q-25.2 -16.4 -23.35 -17.1 -20.8 -18.05 -20.5 -16.15 -20.35 -15.3 -21.05 -14.35 L-22.3 -12.8 -23.15 -10.95 M-12.0 -17.3 Q-13.05 -16.95 -13.4 -16.6 -13.9 -16.15 -13.85 -15.25 L-13.35 -13.8 Q-12.9 -12.95 -13.05 -12.15 -13.55 -11.9 -13.5 -10.95 L-13.5 -9.8 -13.85 -10.8 Q-13.1 -8.5 -15.35 -7.65 -17.55 -6.8 -17.5 -9.5 -17.45 -10.4 -17.0 -11.4 L-16.2 -13.15 Q-16.0 -13.65 -16.1 -15.05 -16.15 -16.4 -15.85 -17.0 -15.45 -17.65 -14.5 -17.8 -13.6 -17.9 -13.15 -18.65 -12.9 -19.1 -12.8 -20.55 -12.7 -21.85 -12.2 -22.5 -11.05 -23.9 -7.9 -23.8 -4.6 -23.65 -4.5 -21.65 -4.35 -19.45 -7.4 -18.4 L-12.0 -17.3 M-6.85 -32.45 Q-5.5 -31.75 -8.05 -29.6 L-11.55 -26.8 -13.2 -24.75 Q-14.1 -23.65 -15.2 -23.0 L-16.95 -21.85 Q-18.15 -21.1 -18.9 -21.0 L-18.35 -21.0 -20.4 -20.6 Q-21.85 -20.4 -22.0 -20.95 -22.25 -21.65 -21.2 -22.45 L-19.7 -23.5 Q-18.95 -24.05 -18.35 -24.95 L-17.3 -26.65 Q-16.65 -27.65 -14.2 -29.65 -12.65 -30.85 -10.7 -31.8 -8.05 -33.05 -6.85 -32.45" fill="#ffe2be" fill-rule="evenodd" stroke="none"/>
    </g>
  </defs>
</svg>
