<?xml version="1.0" encoding="UTF-8" standalone="no"?>
<svg xmlns:ffdec="https://www.free-decompiler.com/flash" xmlns:xlink="http://www.w3.org/1999/xlink" ffdec:objectType="frame" height="95.05px" width="81.4px" xmlns="http://www.w3.org/2000/svg">
  <g transform="matrix(1.0, 0.0, 0.0, 1.0, 40.7, 94.8)">
    <use ffdec:characterId="996" height="68.55" transform="matrix(1.0, 0.0, 0.0, 1.0, -39.15, -68.55)" width="78.3" xlink:href="#sprite0"/>
  </g>
  <defs>
    <g id="sprite0" transform="matrix(1.0, 0.0, 0.0, 1.0, 39.15, 34.3)">
      <use ffdec:characterId="995" height="68.55" transform="matrix(1.0, 0.0, 0.0, 1.0, -39.15, -34.3)" width="78.3" xlink:href="#shape0"/>
    </g>
    <g id="shape0" transform="matrix(1.0, 0.0, 0.0, 1.0, 39.15, 34.3)">
      <path d="M-11.75 26.35 Q-6.2 27.8 0.0 27.8 13.05 27.8 22.1 21.7 L22.1 22.5 Q22.1 25.9 15.8 28.65 9.15 31.55 0.0 31.55 L-9.5 30.6 -11.75 26.35" fill="#b5c6c2" fill-rule="evenodd" stroke="none"/>
      <path d="M0.0 27.8 Q-6.2 27.8 -11.75 26.35 L-9.5 30.6 0.0 31.55 Q9.15 31.55 15.8 28.65 22.1 25.9 22.1 22.5 L22.1 21.7 Q13.05 27.8 0.0 27.8 M25.95 14.7 Q28.3 12.05 30.15 8.75 34.6 0.8 35.95 -9.5 31.6 -4.75 22.55 -1.75 28.95 -4.45 32.7 -8.15 36.45 -11.85 36.45 -15.4 36.45 -21.75 26.25 -26.85 15.4 -32.35 0.0 -32.35 -15.4 -32.35 -26.3 -26.85 -36.45 -21.75 -36.45 -15.4 -36.45 -11.8 -32.65 -8.1 -28.8 -4.4 -22.3 -1.7 -31.55 -4.6 -35.95 -9.5 -34.6 0.8 -30.15 8.75 -25.5 17.1 -17.3 22.0 -9.2 26.85 -0.05 26.85 7.3 26.85 14.15 23.65 21.0 20.45 25.95 14.7 M39.15 -16.75 Q39.15 -8.1 36.7 0.2 33.05 12.7 24.75 19.7 L24.75 22.5 Q24.75 27.4 17.5 30.8 10.25 34.25 0.0 34.25 -10.3 34.25 -17.55 30.8 -24.8 27.35 -24.8 22.5 L-24.8 19.65 Q-33.05 12.65 -36.7 0.2 -39.15 -8.1 -39.15 -16.75 -39.15 -24.25 -27.65 -29.3 -16.3 -34.3 0.1 -34.3 16.45 -34.3 27.75 -29.3 39.15 -24.25 39.15 -16.75" fill="#6f7e7f" fill-rule="evenodd" stroke="none"/>
      <path d="M-30.15 8.75 Q-34.6 0.8 -35.95 -9.5 -31.55 -4.6 -22.3 -1.7 -13.0 2.15 -1.7 2.45 0.2 7.4 3.05 10.95 6.2 14.7 10.05 16.25 18.85 19.65 25.95 14.7 21.0 20.45 14.15 23.65 7.3 26.85 -0.05 26.85 -9.2 26.85 -17.3 22.0 -25.5 17.1 -30.15 8.75" fill="#b5c6c2" fill-rule="evenodd" stroke="none"/>
      <path d="M24.15 -5.8 Q34.0 -9.95 34.0 -15.85 34.0 -21.7 24.15 -25.85 14.3 -30.0 0.35 -30.0 -13.6 -30.0 -23.45 -25.85 -33.3 -21.7 -33.3 -15.85 -33.3 -11.5 -27.65 -7.95 -22.15 -4.5 -13.1 -2.85 L-13.0 -2.8 -8.25 -2.1 -7.85 -2.1 -6.7 -1.95 -6.25 -1.95 0.35 -1.65 Q14.3 -1.65 24.15 -5.8 M35.95 -9.5 Q34.6 0.8 30.15 8.75 28.3 12.05 25.95 14.7 18.85 19.65 10.05 16.25 6.2 14.7 3.05 10.95 0.2 7.4 -1.7 2.45 -13.0 2.15 -22.3 -1.7 -28.8 -4.4 -32.65 -8.1 -36.45 -11.8 -36.45 -15.4 -36.45 -21.75 -26.3 -26.85 -15.4 -32.35 0.0 -32.35 15.4 -32.35 26.25 -26.85 36.45 -21.75 36.45 -15.4 36.45 -11.85 32.7 -8.15 28.95 -4.45 22.55 -1.75 31.6 -4.75 35.95 -9.5" fill="#f9ffee" fill-rule="evenodd" stroke="none"/>
      <path d="M24.15 -25.85 Q34.0 -21.7 34.0 -15.85 34.0 -9.95 24.15 -5.8 14.3 -1.65 0.35 -1.65 L3.8 -1.75 Q14.35 -2.2 21.95 -5.05 26.35 -6.7 28.75 -8.85 31.25 -11.05 31.25 -13.5 31.25 -18.4 22.2 -21.9 13.15 -25.35 0.35 -25.35 -12.65 -25.35 -21.8 -21.75 L-25.55 -19.95 Q-30.55 -17.0 -30.55 -13.5 -30.55 -10.05 -25.7 -7.1 -23.3 -5.7 -20.15 -4.6 -24.5 -6.0 -27.65 -7.95 -33.3 -11.5 -33.3 -15.85 -33.3 -21.7 -23.45 -25.85 -13.6 -30.0 0.35 -30.0 14.3 -30.0 24.15 -25.85" fill="#b5c6c2" fill-rule="evenodd" stroke="none"/>
      <path d="M-25.35 -13.55 Q-23.3 -10.7 -19.05 -10.7 -18.5 -10.7 -19.7 -9.5 -21.2 -8.0 -21.2 -7.45 -11.7 -4.05 0.2 -1.65 L-1.3 -1.65 -6.25 -1.95 -6.7 -1.95 -7.85 -2.1 -8.25 -2.1 -13.0 -2.8 -13.1 -2.85 Q-20.95 -4.3 -25.7 -7.1 -30.55 -10.05 -30.55 -13.5 -30.55 -16.6 -26.3 -19.5 -27.3 -16.2 -25.35 -13.55" fill="#e2692d" fill-rule="evenodd" stroke="none"/>
      <path d="M-12.7 -11.2 L-14.75 -9.6 Q-8.1 -2.35 3.8 -1.75 L0.2 -1.65 Q-11.7 -4.05 -21.2 -7.45 -21.2 -8.0 -19.7 -9.5 -18.5 -10.7 -19.05 -10.7 -23.3 -10.7 -25.35 -13.55 -27.3 -16.2 -26.3 -19.5 L-25.55 -19.95 Q-25.3 -16.3 -19.5 -15.45 -12.7 -14.45 -11.5 -12.85 -11.5 -12.2 -12.7 -11.2" fill="#ffbb99" fill-rule="evenodd" stroke="none"/>
      <path d="M-3.95 -14.2 L-6.15 -12.95 Q-4.95 -13.55 -3.3 -13.55 -2.75 -14.3 -2.55 -14.2 -2.35 -14.15 -1.65 -15.15 -0.85 -16.35 -2.15 -17.05 -4.35 -17.95 -5.95 -18.85 L-3.35 -15.75 -7.2 -17.65 -4.2 -15.4 -7.25 -16.25 -4.45 -14.85 -7.55 -14.2 -3.95 -14.2 M2.3 -23.6 Q15.65 -23.2 24.05 -16.1 30.65 -11.1 21.95 -5.05 14.35 -2.2 3.8 -1.75 -8.1 -2.35 -14.75 -9.6 L-12.7 -11.2 Q-11.5 -12.2 -11.5 -12.85 -12.7 -14.45 -19.5 -15.45 -25.3 -16.3 -25.55 -19.95 L-21.8 -21.75 -9.65 -23.05 2.3 -23.6 M2.6 -13.25 L6.15 -13.8 2.6 -13.95 5.45 -15.85 1.75 -14.3 Q3.35 -16.45 2.75 -15.95 0.65 -14.3 -0.55 -13.85 0.65 -13.2 2.1 -11.95 3.55 -10.95 6.05 -10.75 L1.9 -12.6 6.75 -12.45 2.6 -13.25 M2.75 -20.15 L2.25 -18.25 1.55 -19.7 1.6 -18.15 -0.4 -19.15 1.3 -17.8 -0.65 -18.15 -0.05 -17.95 1.05 -17.3 1.95 -17.25 3.2 -17.2 Q4.65 -17.25 4.65 -18.0 4.4 -19.15 4.45 -20.05 L2.9 -18.05 2.75 -20.15" fill="#e2692d" fill-rule="evenodd" stroke="none"/>
      <path d="M24.05 -16.1 Q15.65 -23.2 2.3 -23.6 L-9.65 -23.05 -21.8 -21.75 Q-12.65 -25.35 0.35 -25.35 13.15 -25.35 22.2 -21.9 31.25 -18.4 31.25 -13.5 31.25 -11.05 28.75 -8.85 26.35 -6.7 21.95 -5.05 30.65 -11.1 24.05 -16.1" fill="#ba3e2d" fill-rule="evenodd" stroke="none"/>
      <path d="M1.9 -12.6 L6.05 -10.75 Q3.55 -10.95 2.1 -11.95 0.65 -13.2 -0.55 -13.85 0.65 -14.3 2.75 -15.95 3.35 -16.45 1.75 -14.3 L5.45 -15.85 2.6 -13.95 6.15 -13.8 2.6 -13.25 6.75 -12.45 1.9 -12.6" fill="#708c48" fill-rule="evenodd" stroke="none"/>
      <path d="M-7.55 -14.2 L-4.45 -14.85 -7.25 -16.25 -4.2 -15.4 -7.2 -17.65 -3.35 -15.75 -5.95 -18.85 Q-4.35 -17.95 -2.15 -17.05 -0.85 -16.35 -1.65 -15.15 -2.35 -14.15 -2.55 -14.2 -2.75 -14.3 -3.3 -13.55 -4.95 -13.55 -6.15 -12.95 L-3.95 -14.2 -7.55 -14.2" fill="#708c48" fill-rule="evenodd" stroke="none"/>
      <path d="M1.6 -18.15 L1.55 -19.7 2.25 -18.25 2.75 -20.15 2.9 -18.05 4.45 -20.05 Q4.4 -19.15 4.65 -18.0 4.65 -17.25 3.2 -17.2 L1.95 -17.25 1.05 -17.3 -0.05 -17.95 -0.65 -18.15 1.3 -17.8 -0.4 -19.15 1.6 -18.15" fill="#708c48" fill-rule="evenodd" stroke="none"/>
    </g>
  </defs>
</svg>
