<?xml version="1.0" encoding="UTF-8" standalone="no"?>
<svg xmlns:ffdec="https://www.free-decompiler.com/flash" xmlns:xlink="http://www.w3.org/1999/xlink" ffdec:objectType="frame" height="95.05px" width="81.4px" xmlns="http://www.w3.org/2000/svg">
  <g transform="matrix(1.0, 0.0, 0.0, 1.0, 40.7, 94.8)">
    <use ffdec:characterId="1000" height="94.8" transform="matrix(1.0, 0.0, 0.0, 1.0, -29.55, -94.8)" width="59.15" xlink:href="#sprite0"/>
  </g>
  <defs>
    <g id="sprite0" transform="matrix(1.0, 0.0, 0.0, 1.0, 29.6, 47.4)">
      <use ffdec:characterId="999" height="94.8" transform="matrix(1.0, 0.0, 0.0, 1.0, -29.6, -47.4)" width="59.15" xlink:href="#shape0"/>
    </g>
    <g id="shape0" transform="matrix(1.0, 0.0, 0.0, 1.0, 29.6, 47.4)">
      <path d="M-26.65 -36.65 Q-31.4 -40.65 -28.55 -44.85 -25.0 -50.05 -18.5 -44.7 -12.8 -40.05 -11.15 -34.45 L-12.25 -32.7 -13.2 -34.65 Q-14.6 -37.35 -16.95 -40.4 -19.55 -43.9 -21.15 -44.75 -22.75 -45.6 -24.25 -45.5 -27.1 -45.25 -26.75 -41.1 -26.35 -37.0 -23.05 -36.0 -18.9 -34.8 -15.4 -30.35 L-16.2 -30.15 -19.05 -31.0 -18.65 -31.15 Q-24.05 -34.5 -26.65 -36.65" fill="#53605b" fill-rule="evenodd" stroke="none"/>
      <path d="M17.9 -32.7 L17.0 -30.7 16.75 -30.8 16.2 -31.7 14.25 -34.05 13.3 -34.8 12.7 -35.2 Q8.15 -38.0 3.3 -38.25 -2.05 -38.45 -7.2 -35.45 -9.95 -33.9 -11.75 -31.6 L-12.25 -32.7 -11.15 -34.45 Q-6.6 -39.6 3.15 -39.5 13.4 -39.4 17.9 -32.7" fill="#bcb279" fill-rule="evenodd" stroke="none"/>
      <path d="M25.6 -29.35 L27.55 -25.5 Q29.5 -21.05 29.55 -18.0 29.6 -13.3 26.8 -7.6 23.0 0.15 22.4 2.1 22.1 3.2 21.85 6.05 21.65 8.7 21.15 10.0 20.35 12.15 18.0 14.3 L13.75 17.65 Q11.55 19.4 11.0 20.2 9.95 21.55 9.9 23.6 9.8 29.55 11.1 32.2 12.35 33.2 15.3 34.05 L20.45 35.5 Q26.5 37.45 25.5 41.45 24.5 45.35 16.35 46.7 L4.6 47.4 -7.55 46.95 Q-14.5 46.3 -19.45 44.45 -22.3 43.4 -22.75 40.65 -23.25 37.7 -19.75 36.5 L-13.45 34.75 Q-9.45 33.55 -7.55 32.05 -5.9 28.7 -6.5 24.65 -7.1 20.5 -9.7 18.2 L-13.85 14.8 Q-16.25 12.7 -17.4 10.8 -18.35 9.2 -18.55 6.4 -18.85 2.75 -19.1 1.85 -19.75 -0.6 -23.2 -6.9 -26.0 -12.05 -26.15 -16.15 -26.3 -19.85 -24.3 -25.05 L-22.3 -29.45 -19.05 -31.0 -16.2 -30.15 Q-19.25 -29.25 -20.75 -28.25 L-22.75 -24.0 Q-24.5 -18.75 -23.45 -13.8 -22.75 -10.55 -20.3 -5.85 L-17.25 -0.15 Q-16.45 1.6 -16.25 4.1 -16.1 6.8 -15.45 8.6 -14.75 10.5 -9.55 14.75 -4.6 18.85 -4.25 20.75 -3.75 23.55 -4.2 27.9 -4.7 32.35 -5.7 33.35 -6.9 34.55 -11.7 36.15 L-19.05 38.45 Q-19.75 38.7 -19.8 40.05 -19.8 41.4 -19.05 41.7 -14.05 43.95 -6.15 44.5 -2.3 44.8 1.6 44.6 5.4 44.8 9.3 44.5 17.2 43.95 22.2 41.7 22.95 41.4 22.95 40.05 22.9 38.7 22.2 38.45 L14.85 36.15 Q10.05 34.55 8.85 33.35 7.85 32.35 7.4 27.9 6.9 23.55 7.4 20.75 7.75 18.9 12.7 15.0 17.9 10.95 18.6 9.05 19.25 7.25 19.6 4.45 19.9 1.9 20.7 0.15 L23.8 -5.6 Q26.2 -10.4 26.9 -13.65 27.95 -18.6 26.05 -23.9 L23.9 -28.25 Q21.7 -29.75 17.0 -30.7 L17.9 -32.7 18.1 -32.4 Q22.7 -31.3 25.6 -29.35" fill="#359f75" fill-rule="evenodd" stroke="none"/>
      <path d="M-10.9 37.6 Q-15.95 39.8 -14.25 40.9 -13.35 41.55 -6.45 41.9 L1.5 42.2 1.65 42.2 9.6 41.9 Q16.5 41.55 17.4 40.9 18.4 40.25 17.25 39.3 16.35 38.55 14.4 37.75 13.5 36.75 11.7 36.3 L8.9 36.05 Q3.85 34.95 -1.2 35.35 -6.4 35.7 -10.9 37.6 M4.65 26.8 L4.35 21.75 Q4.15 20.45 1.6 20.45 -1.0 20.45 -1.2 21.75 L-1.5 26.8 Q-1.8 31.05 -2.25 32.0 -3.05 33.8 1.6 33.8 6.2 33.8 5.4 32.0 4.95 31.05 4.65 26.8 M17.9 -28.0 L16.75 -30.8 17.0 -30.7 Q21.7 -29.75 23.9 -28.25 L26.05 -23.9 Q27.95 -18.6 26.9 -13.65 26.2 -10.4 23.8 -5.6 L20.7 0.15 Q19.9 1.9 19.6 4.45 19.25 7.25 18.6 9.05 17.9 10.95 12.7 15.0 7.75 18.9 7.4 20.75 6.9 23.55 7.4 27.9 7.85 32.35 8.85 33.35 10.05 34.55 14.85 36.15 L22.2 38.45 Q22.9 38.7 22.95 40.05 22.95 41.4 22.2 41.7 17.2 43.95 9.3 44.5 5.4 44.8 1.6 44.6 -2.3 44.8 -6.15 44.5 -14.05 43.95 -19.05 41.7 -19.8 41.4 -19.8 40.05 -19.75 38.7 -19.05 38.45 L-11.7 36.15 Q-6.9 34.55 -5.7 33.35 -4.7 32.35 -4.2 27.9 -3.75 23.55 -4.25 20.75 -4.6 18.85 -9.55 14.75 -14.75 10.5 -15.45 8.6 -16.1 6.8 -16.25 4.1 -16.45 1.6 -17.25 -0.15 L-20.3 -5.85 Q-22.75 -10.55 -23.45 -13.8 -24.5 -18.75 -22.75 -24.0 L-20.75 -28.25 Q-19.25 -29.25 -16.2 -30.15 L-15.4 -30.35 -13.9 -28.2 -16.8 -27.05 Q-15.75 -26.25 -13.85 -25.45 -9.5 -23.7 -3.3 -23.4 -1.15 -23.2 2.55 -23.3 8.95 -23.5 13.95 -24.45 16.55 -24.95 18.45 -25.6 19.85 -26.0 20.8 -26.6 19.65 -27.4 17.9 -28.0 M20.7 -25.6 Q19.5 -24.75 14.25 -23.85 L1.3 -22.55 Q-4.35 -22.35 -12.75 -23.95 L-17.4 -24.7 Q-14.15 -23.35 -9.7 -22.5 -4.15 -21.45 1.15 -21.65 L14.05 -22.75 21.25 -24.05 Q23.5 -24.9 23.65 -26.35 23.75 -27.65 22.25 -28.3 L20.95 -28.45 Q20.8 -28.05 21.85 -27.65 L22.8 -27.15 20.7 -25.6 M20.1 -23.3 L18.6 -22.95 Q9.8 -20.8 2.85 -20.5 -1.3 -20.3 -5.8 -20.7 -10.45 -21.1 -13.35 -21.95 L-15.5 -22.75 Q-17.75 -23.95 -19.65 -23.2 -20.9 -19.9 -20.4 -15.65 -19.95 -12.0 -18.3 -8.5 L-18.25 -8.5 -17.75 -7.45 -16.35 -5.25 Q-13.75 -1.8 -13.6 2.7 -13.45 6.85 -11.65 8.75 L-6.4 13.4 -3.1 16.35 Q-0.9 19.45 1.95 19.25 4.5 19.05 6.25 16.35 6.85 15.45 9.55 13.35 12.85 10.75 14.8 8.75 16.4 7.1 16.65 4.95 17.2 4.95 17.7 4.45 18.65 3.5 18.3 2.15 18.0 0.8 16.95 0.6 17.4 -2.4 19.5 -5.25 L20.15 -6.2 20.2 -6.3 21.9 -9.55 Q23.75 -10.1 24.75 -11.7 25.8 -13.35 25.45 -15.3 25.15 -17.25 23.7 -18.55 L23.3 -21.55 23.3 -21.6 22.95 -22.85 Q21.5 -23.65 20.1 -23.3" fill="#ace3cd" fill-rule="evenodd" stroke="none"/>
      <path d="M-19.65 -23.2 Q-17.75 -23.95 -15.5 -22.75 L-13.35 -21.95 -13.0 -20.8 -16.8 -20.05 -18.05 -20.0 Q-18.8 -20.15 -20.15 -21.4 L-19.65 -23.2" fill="#c5efe4" fill-rule="evenodd" stroke="none"/>
      <path d="M-14.25 40.9 Q-15.95 39.8 -10.9 37.6 -6.4 35.7 -1.2 35.35 3.85 34.95 8.9 36.05 7.75 36.3 7.55 36.85 L7.55 37.05 Q5.45 36.3 1.9 36.3 L-2.9 36.85 Q-4.9 37.35 -4.9 38.1 -4.9 38.85 -2.9 39.4 L1.9 39.9 6.15 39.5 Q8.0 39.15 8.55 38.55 9.4 39.1 10.55 39.45 L13.25 39.7 Q14.5 39.5 14.75 38.85 14.9 38.35 14.4 37.75 16.35 38.55 17.25 39.3 18.4 40.25 17.4 40.9 16.5 41.55 9.6 41.9 L1.65 42.2 1.5 42.2 -6.45 41.9 Q-13.35 41.55 -14.25 40.9" fill="#c5efe4" fill-rule="evenodd" stroke="none"/>
      <path d="M2.0 32.65 Q4.8 32.65 4.8 31.95 4.8 31.7 4.0 31.5 L2.0 31.3 0.05 31.5 Q-0.75 31.7 -0.75 31.95 -0.75 32.25 0.05 32.45 L2.0 32.65 M4.35 21.75 L4.65 26.8 Q4.95 31.05 5.4 32.0 6.2 33.8 1.6 33.8 -3.05 33.8 -2.25 32.0 -1.8 31.05 -1.5 26.8 L-1.2 21.75 Q-1.0 20.45 1.6 20.45 4.15 20.45 4.35 21.75" fill="#c5efe4" fill-rule="evenodd" stroke="none"/>
      <path d="M19.1 -20.45 L18.0 -20.65 Q18.5 -21.55 18.6 -22.95 L20.1 -23.3 Q21.5 -23.65 22.95 -22.85 L23.3 -21.6 23.3 -21.55 22.05 -20.5 19.1 -20.45" fill="#c5efe4" fill-rule="evenodd" stroke="none"/>
      <path d="M-13.9 -28.2 L-13.55 -27.65 -13.85 -25.45 Q-15.75 -26.25 -16.8 -27.05 L-13.9 -28.2" fill="#c5efe4" fill-rule="evenodd" stroke="none"/>
      <path d="M18.45 -25.6 L17.95 -27.85 17.9 -28.0 Q19.65 -27.4 20.8 -26.6 19.85 -26.0 18.45 -25.6" fill="#c5efe4" fill-rule="evenodd" stroke="none"/>
      <path d="M22.05 -20.5 L23.3 -21.55 23.7 -18.55 Q22.35 -19.7 20.65 -19.95 L19.1 -20.45 22.05 -20.5" fill="#d8d2b8" fill-rule="evenodd" stroke="none"/>
      <path d="M15.95 -18.0 Q14.65 -16.2 15.0 -14.0 L15.0 -13.95 12.05 -12.05 Q11.35 -11.15 10.25 -11.7 L8.0 -13.4 Q4.5 -16.25 1.65 -14.8 -2.1 -12.05 -8.95 -13.1 L-20.4 -15.6 Q-20.8 -18.65 -20.2 -21.45 -18.8 -20.15 -18.05 -20.0 L-16.8 -20.05 -17.1 -19.75 Q-17.1 -18.9 -11.4 -17.85 -5.05 -16.75 2.2 -16.75 9.95 -16.75 15.95 -18.0" fill="#d8d2b8" fill-rule="evenodd" stroke="none"/>
      <path d="M12.05 -12.05 L15.0 -13.95 Q15.4 -11.8 17.15 -10.45 18.9 -9.15 21.1 -9.4 L21.9 -9.55 20.2 -6.3 20.15 -6.2 19.5 -5.25 Q17.4 -2.4 16.95 0.6 16.15 0.45 15.25 1.2 14.2 2.15 14.85 3.6 15.45 5.0 16.65 4.95 16.4 7.1 14.8 8.75 12.85 10.75 9.55 13.35 6.85 15.45 6.25 16.35 4.5 19.05 1.95 19.25 -0.9 19.45 -3.1 16.35 L-6.4 13.4 -11.65 8.75 Q-13.45 6.85 -13.6 2.7 -13.75 -1.8 -16.35 -5.25 L-17.75 -7.45 -18.25 -8.5 -18.3 -8.5 Q-19.9 -12.05 -20.4 -15.6 L-8.95 -13.1 Q-2.1 -12.05 1.65 -14.8 4.5 -16.25 8.0 -13.4 L10.25 -11.7 Q11.35 -11.15 12.05 -12.05" fill="#231714" fill-rule="evenodd" stroke="none"/>
      <path d="M18.0 -20.65 L19.1 -20.45 20.65 -19.95 19.35 -19.95 Q17.2 -19.65 15.95 -18.0 9.95 -16.75 2.2 -16.75 -5.05 -16.75 -11.4 -17.85 -17.1 -18.9 -17.1 -19.75 L-16.8 -20.05 -13.0 -20.8 -12.65 -19.95 Q-8.6 -18.25 0.5 -17.7 11.3 -17.1 17.1 -19.6 17.7 -19.95 18.0 -20.65" fill="#f7f3df" fill-rule="evenodd" stroke="none"/>
      <path d="M-23.05 -36.0 Q-26.35 -37.0 -26.75 -41.1 -27.1 -45.25 -24.25 -45.5 -25.75 -44.7 -25.8 -43.1 -25.9 -41.45 -24.1 -41.0 -22.25 -40.55 -15.9 -34.2 -14.85 -33.15 -14.05 -33.45 -13.4 -33.7 -13.2 -34.65 L-12.25 -32.7 -11.75 -31.6 -12.2 -30.95 Q-13.15 -29.3 -13.55 -27.65 L-13.9 -28.2 -15.4 -30.35 Q-18.9 -34.8 -23.05 -36.0" fill="#8e9b97" fill-rule="evenodd" stroke="none"/>
      <path d="M-24.1 -41.0 Q-25.9 -41.45 -25.8 -43.1 -25.75 -44.7 -24.25 -45.5 -22.75 -45.6 -21.15 -44.75 -19.55 -43.9 -16.95 -40.4 -14.6 -37.35 -13.2 -34.65 -13.4 -33.7 -14.05 -33.45 -14.85 -33.15 -15.9 -34.2 -22.25 -40.55 -24.1 -41.0 M-15.65 -37.4 Q-16.35 -37.4 -16.35 -36.6 -16.35 -35.85 -15.65 -35.85 -15.0 -35.85 -15.0 -36.6 -15.0 -37.4 -15.65 -37.4 M-18.75 -39.1 Q-16.9 -37.5 -16.65 -37.85 -16.35 -38.25 -16.7 -38.95 L-17.95 -40.35 -20.6 -42.65 Q-22.45 -44.25 -22.7 -43.95 -23.0 -43.55 -22.65 -42.8 L-21.4 -41.45 -18.75 -39.1" fill="#dddddd" fill-rule="evenodd" stroke="none"/>
      <path d="M12.7 -35.2 L13.3 -34.8 14.25 -34.05 Q6.6 -33.05 0.05 -34.8 2.05 -35.2 6.6 -34.8 L12.7 -35.2" fill="#e2d998" fill-rule="evenodd" stroke="none"/>
      <path d="M17.3 -29.65 L17.95 -27.85 Q16.35 -25.9 13.95 -24.45 8.95 -23.5 2.55 -23.3 -1.15 -23.2 -3.3 -23.4 -7.4 -24.95 -9.75 -27.6 -11.45 -28.9 -12.2 -30.95 L-11.75 -31.6 Q-9.95 -33.9 -7.2 -35.45 -2.05 -38.45 3.3 -38.25 8.15 -38.0 12.7 -35.2 L6.6 -34.8 Q2.05 -35.2 0.05 -34.8 6.6 -33.05 14.25 -34.05 L16.2 -31.7 Q11.7 -30.0 5.35 -30.35 L-5.4 -31.7 Q-0.05 -29.45 5.85 -28.95 11.8 -28.4 17.3 -29.65" fill="#fff8b8" fill-rule="evenodd" stroke="none"/>
      <path d="M16.2 -31.7 L17.3 -29.65 Q11.8 -28.4 5.85 -28.95 -0.05 -29.45 -5.4 -31.7 L5.35 -30.35 Q11.7 -30.0 16.2 -31.7" fill="#e2d998" fill-rule="evenodd" stroke="none"/>
      <path d="M13.95 -24.45 Q16.35 -25.9 17.95 -27.85 L18.45 -25.6 Q16.55 -24.95 13.95 -24.45" fill="#e2d998" fill-rule="evenodd" stroke="none"/>
      <path d="M-12.2 -30.95 Q-11.45 -28.9 -9.75 -27.6 -7.4 -24.95 -3.3 -23.4 -9.5 -23.7 -13.85 -25.45 L-13.55 -27.65 Q-13.15 -29.3 -12.2 -30.95" fill="#e2d998" fill-rule="evenodd" stroke="none"/>
      <path d="M18.6 -22.95 Q18.5 -21.55 18.0 -20.65 17.7 -19.95 17.1 -19.6 11.3 -17.1 0.5 -17.7 -8.6 -18.25 -12.65 -19.95 L-13.35 -21.95 Q-10.45 -21.1 -5.8 -20.7 -1.3 -20.3 2.85 -20.5 9.8 -20.8 18.6 -22.95" fill="#e2d998" fill-rule="evenodd" stroke="none"/>
      <path d="M7.55 37.05 Q7.4 37.75 8.55 38.55 8.0 39.15 6.15 39.5 L1.9 39.9 -2.9 39.4 Q-4.9 38.85 -4.9 38.1 -4.9 37.35 -2.9 36.85 L1.9 36.3 Q5.45 36.3 7.55 37.05" fill="#99c9bc" fill-rule="evenodd" stroke="none"/>
      <path d="M4.8 31.95 Q4.8 32.65 2.0 32.65 L0.05 32.45 Q-0.75 32.25 -0.75 31.95 -0.75 31.7 0.05 31.5 L2.0 31.3 4.0 31.5 Q4.8 31.7 4.8 31.95" fill="#231714" fill-rule="evenodd" stroke="none"/>
      <path d="M15.25 1.2 Q16.15 0.45 16.95 0.6 18.0 0.8 18.3 2.15 18.65 3.5 17.7 4.45 17.2 4.95 16.65 4.95 15.45 5.0 14.85 3.6 14.2 2.15 15.25 1.2" fill="#ffffff" fill-rule="evenodd" stroke="none"/>
      <path d="M7.55 36.85 Q7.75 36.3 8.9 36.05 L11.7 36.3 Q13.5 36.75 14.4 37.75 14.9 38.35 14.75 38.85 14.5 39.5 13.25 39.7 L10.55 39.45 Q9.4 39.1 8.55 38.55 7.4 37.75 7.55 37.05 L7.55 36.85" fill="#ffffff" fill-rule="evenodd" stroke="none"/>
      <path d="M21.85 -27.65 Q20.8 -28.05 20.95 -28.45 L22.25 -28.3 Q23.75 -27.65 23.65 -26.35 23.5 -24.9 21.25 -24.05 L14.05 -22.75 1.15 -21.65 Q-4.15 -21.45 -9.7 -22.5 -14.15 -23.35 -17.4 -24.7 L-12.75 -23.95 Q-4.35 -22.35 1.3 -22.55 L14.25 -23.85 Q19.5 -24.75 20.7 -25.6 L22.8 -27.15 21.85 -27.65" fill="#ffffff" fill-rule="evenodd" stroke="none"/>
      <path d="M23.7 -18.55 Q25.15 -17.25 25.45 -15.3 25.8 -13.35 24.75 -11.7 23.75 -10.1 21.9 -9.55 L21.1 -9.4 Q18.9 -9.15 17.15 -10.45 15.4 -11.8 15.0 -13.95 L15.0 -14.0 Q14.65 -16.2 15.95 -18.0 17.2 -19.65 19.35 -19.95 L20.65 -19.95 Q22.35 -19.7 23.7 -18.55" fill="#ffffff" fill-rule="evenodd" stroke="none"/>
      <path d="M-21.4 -41.45 L-22.65 -42.8 Q-23.0 -43.55 -22.7 -43.95 -22.45 -44.25 -20.6 -42.65 L-17.95 -40.35 -16.7 -38.95 Q-16.35 -38.25 -16.65 -37.85 -16.9 -37.5 -18.75 -39.1 L-21.4 -41.45" fill="#ffffff" fill-rule="evenodd" stroke="none"/>
      <path d="M-15.65 -35.85 Q-16.35 -35.85 -16.35 -36.6 -16.35 -37.4 -15.65 -37.4 -15.0 -37.4 -15.0 -36.6 -15.0 -35.85 -15.65 -35.85" fill="#ffffff" fill-rule="evenodd" stroke="none"/>
    </g>
  </defs>
</svg>
