<?xml version="1.0" encoding="UTF-8" standalone="no"?>
<svg xmlns:ffdec="https://www.free-decompiler.com/flash" xmlns:xlink="http://www.w3.org/1999/xlink" ffdec:objectType="frame" height="95.05px" width="81.4px" xmlns="http://www.w3.org/2000/svg">
  <g transform="matrix(1.0, 0.0, 0.0, 1.0, 40.7, 94.8)">
    <use ffdec:characterId="988" height="71.75" transform="matrix(1.0, 0.0, 0.0, 1.0, -37.45, -71.75)" width="74.95" xlink:href="#sprite0"/>
  </g>
  <defs>
    <g id="sprite0" transform="matrix(1.0, 0.0, 0.0, 1.0, 37.45, 35.9)">
      <use ffdec:characterId="987" height="71.75" transform="matrix(1.0, 0.0, 0.0, 1.0, -37.45, -35.9)" width="74.95" xlink:href="#shape0"/>
    </g>
    <g id="shape0" transform="matrix(1.0, 0.0, 0.0, 1.0, 37.45, 35.9)">
      <path d="M35.55 -10.9 Q38.75 -0.85 36.7 9.25 34.45 20.25 26.55 26.35 11.5 38.25 -6.2 35.25 -19.05 33.15 -26.8 25.65 -32.0 20.8 -35.45 10.25 -39.15 -1.55 -36.05 -11.5 L-36.05 -11.25 -34.2 -9.75 Q-36.5 -0.5 -32.95 10.25 -29.95 20.0 -24.8 24.15 -14.35 32.85 0.05 32.6 14.55 32.35 25.2 23.65 32.1 18.45 34.35 8.95 36.45 0.5 33.85 -8.75 L35.7 -11.35 35.55 -10.9" fill="#764e12" fill-rule="evenodd" stroke="none"/>
      <path d="M26.2 -26.75 Q31.0 -22.95 33.45 -18.65 35.9 -14.35 35.7 -11.35 L33.85 -8.75 33.55 -9.65 Q33.85 -12.1 32.7 -15.65 L30.85 -19.4 Q28.55 -23.1 22.8 -27.25 12.25 -34.8 -4.05 -33.55 -21.1 -32.2 -29.8 -21.75 L-32.3 -17.25 -32.45 -18.45 Q-34.55 -16.35 -34.05 -10.4 L-34.2 -9.75 -36.05 -11.25 -36.05 -11.5 Q-36.55 -22.1 -24.3 -29.35 -13.55 -35.65 -0.65 -35.9 14.8 -36.3 26.2 -26.75" fill="#d75b99" fill-rule="evenodd" stroke="none"/>
      <path d="M10.95 -3.9 Q13.65 -5.95 14.2 -10.25 14.35 -12.65 10.85 -14.9 6.7 -17.65 0.05 -17.65 -6.4 -17.65 -10.55 -14.35 -13.75 -11.6 -13.2 -9.15 -12.45 -5.3 -10.05 -3.4 -7.35 -1.5 -1.3 -1.25 L0.2 -1.15 1.35 -1.25 Q7.85 -1.5 10.95 -3.9 M30.85 -19.4 L32.7 -15.65 31.85 -8.25 Q31.75 -5.5 31.05 -1.4 30.35 3.15 29.55 6.1 L28.7 7.55 Q27.95 8.35 24.9 9.85 22.7 10.7 20.3 11.05 L17.9 11.55 13.8 14.0 10.25 15.85 Q7.7 17.8 6.3 18.45 4.5 19.2 1.9 19.2 L-1.4 18.75 Q-3.15 18.15 -5.45 16.2 -11.35 10.85 -12.1 10.55 L-14.45 10.25 -19.1 9.55 Q-21.0 9.2 -22.15 8.5 L-23.75 6.85 Q-25.75 4.55 -26.45 0.2 L-27.15 -5.2 Q-27.55 -7.75 -28.1 -8.45 L-30.45 -12.15 Q-31.85 -14.85 -32.3 -17.25 L-29.8 -21.75 Q-21.1 -32.2 -4.05 -33.55 12.25 -34.8 22.8 -27.25 28.55 -23.1 30.85 -19.4 M27.35 -12.65 Q26.55 -13.55 25.2 -13.55 24.05 -13.55 23.05 -12.65 22.2 -11.8 22.2 -10.75 22.2 -9.7 23.05 -8.85 23.9 -8.05 25.2 -8.05 26.6 -8.05 27.35 -8.85 28.3 -9.65 28.3 -10.75 28.3 -11.85 27.35 -12.65 M25.45 -15.75 Q27.8 -17.1 25.35 -20.85 21.85 -26.25 13.7 -29.15 7.4 -31.35 2.2 -30.85 -0.7 -30.4 -0.7 -29.4 -0.85 -28.3 1.95 -28.15 6.35 -28.0 12.55 -24.9 18.95 -21.55 21.2 -17.65 22.9 -14.65 25.45 -15.75" fill="#fc9cba" fill-rule="evenodd" stroke="none"/>
      <path d="M10.85 -14.9 Q14.35 -12.65 14.2 -10.25 13.65 -5.95 10.95 -3.9 7.85 -1.5 1.35 -1.25 L4.05 -1.65 Q8.0 -2.4 9.8 -3.55 11.95 -4.85 11.2 -7.05 10.45 -7.15 6.7 -8.4 4.0 -9.4 0.55 -9.4 -2.35 -9.4 -5.3 -7.65 -7.8 -5.95 -9.55 -6.25 -10.9 -4.25 -8.65 -3.05 -6.7 -1.9 -2.45 -1.4 L-1.3 -1.25 Q-7.35 -1.5 -10.05 -3.4 -12.45 -5.3 -13.2 -9.15 -13.75 -11.6 -10.55 -14.35 -6.4 -17.65 0.05 -17.65 6.7 -17.65 10.85 -14.9" fill="#d75b99" fill-rule="evenodd" stroke="none"/>
      <path d="M4.05 -1.9 L4.05 -1.65 0.2 -1.15 -2.45 -1.4 -2.55 -1.9 Q-2.55 -2.75 -1.55 -3.15 -0.65 -3.75 0.8 -3.75 2.15 -3.75 3.05 -3.15 4.05 -2.75 4.05 -1.9" fill="#96806b" fill-rule="evenodd" stroke="none"/>
      <path d="M13.7 -29.15 Q21.85 -26.25 25.35 -20.85 27.8 -17.1 25.45 -15.75 22.9 -14.65 21.2 -17.65 18.95 -21.55 12.55 -24.9 6.35 -28.0 1.95 -28.15 -0.85 -28.3 -0.7 -29.4 -0.7 -30.4 2.2 -30.85 7.4 -31.35 13.7 -29.15" fill="#ffcff6" fill-rule="evenodd" stroke="none"/>
      <path d="M23.05 -12.65 Q24.05 -13.55 25.2 -13.55 26.55 -13.55 27.35 -12.65 28.3 -11.85 28.3 -10.75 28.3 -9.65 27.35 -8.85 26.6 -8.05 25.2 -8.05 23.9 -8.05 23.05 -8.85 22.2 -9.7 22.2 -10.75 22.2 -11.8 23.05 -12.65" fill="#ffcff6" fill-rule="evenodd" stroke="none"/>
      <path d="M6.7 -8.4 Q10.45 -7.15 11.2 -7.05 11.95 -4.85 9.8 -3.55 8.0 -2.4 4.05 -1.65 L4.05 -1.9 Q4.05 -2.75 3.05 -3.15 2.15 -3.75 0.8 -3.75 -0.65 -3.75 -1.55 -3.15 -2.55 -2.75 -2.55 -1.9 L-2.45 -1.4 Q-6.7 -1.9 -8.65 -3.05 -10.9 -4.25 -9.55 -6.25 -7.8 -5.95 -5.3 -7.65 -2.35 -9.4 0.55 -9.4 4.0 -9.4 6.7 -8.4" fill="#bf9a73" fill-rule="evenodd" stroke="none"/>
      <path d="M28.55 18.95 Q30.05 16.15 29.05 15.95 L25.55 16.65 Q23.85 17.15 19.05 21.95 14.0 27.05 11.95 27.95 L19.45 25.1 Q27.3 21.65 28.55 18.95 M33.2 -7.05 L33.55 -9.65 33.85 -8.75 Q36.45 0.5 34.35 8.95 32.1 18.45 25.2 23.65 14.55 32.35 0.05 32.6 -14.35 32.85 -24.8 24.15 -29.95 20.0 -32.95 10.25 -36.5 -0.5 -34.2 -9.75 L-34.05 -10.4 Q-33.9 -9.2 -32.95 -7.05 L-31.2 -2.75 -30.15 3.85 Q-29.4 8.4 -28.15 10.1 -26.0 13.25 -22.05 14.35 L-14.3 16.85 Q-12.05 18.0 -7.8 22.15 -3.5 25.85 1.55 25.6 7.95 25.4 12.55 21.45 L16.2 18.15 Q18.15 16.3 19.55 15.45 L25.7 12.75 Q28.8 11.1 30.35 8.35 33.15 3.7 32.85 -4.55 32.85 -6.05 33.2 -7.05" fill="#b3833c" fill-rule="evenodd" stroke="none"/>
      <path d="M29.05 15.95 Q30.05 16.15 28.55 18.95 27.3 21.65 19.45 25.1 L11.95 27.95 Q14.0 27.05 19.05 21.95 23.85 17.15 25.55 16.65 L29.05 15.95" fill="#e7af5c" fill-rule="evenodd" stroke="none"/>
      <path d="M17.9 11.55 L20.3 11.05 Q22.7 10.7 24.9 9.85 27.95 8.35 28.7 7.55 29.35 7.0 29.55 6.1 30.35 3.15 31.05 -1.4 31.75 -5.5 31.85 -8.25 L32.7 -15.65 Q33.85 -12.1 33.55 -9.65 L33.2 -7.05 Q32.85 -6.05 32.85 -4.55 33.15 3.7 30.35 8.35 28.8 11.1 25.7 12.75 L19.55 15.45 Q18.15 16.3 16.2 18.15 L12.55 21.45 Q7.95 25.4 1.55 25.6 -3.5 25.85 -7.8 22.15 -12.05 18.0 -14.3 16.85 L-22.05 14.35 Q-26.0 13.25 -28.15 10.1 -29.4 8.4 -30.15 3.85 L-31.2 -2.75 -32.95 -7.05 Q-33.9 -9.2 -34.05 -10.4 -34.55 -16.35 -32.45 -18.45 L-32.3 -17.25 Q-31.85 -14.85 -30.45 -12.15 L-28.1 -8.45 Q-27.55 -7.75 -27.15 -5.2 L-26.45 0.2 Q-25.75 4.55 -23.75 6.85 L-22.15 8.5 Q-21.0 9.2 -19.1 9.55 L-14.45 10.25 -12.1 10.55 Q-11.35 10.85 -5.45 16.2 -3.15 18.15 -1.4 18.75 L1.9 19.2 Q4.5 19.2 6.3 18.45 7.7 17.8 10.25 15.85 L13.8 14.0 17.9 11.55" fill="#d75b99" fill-rule="evenodd" stroke="none"/>
    </g>
  </defs>
</svg>
