<?xml version="1.0" encoding="UTF-8" standalone="no"?>
<svg xmlns:ffdec="https://www.free-decompiler.com/flash" xmlns:xlink="http://www.w3.org/1999/xlink" ffdec:objectType="frame" height="95.05px" width="81.4px" xmlns="http://www.w3.org/2000/svg">
  <g transform="matrix(1.0, 0.0, 0.0, 1.0, 40.7, 94.8)">
    <use ffdec:characterId="990" height="76.6" transform="matrix(1.0, 0.0, 0.0, 1.0, -40.7, -76.6)" width="81.4" xlink:href="#sprite0"/>
  </g>
  <defs>
    <g id="sprite0" transform="matrix(1.0, 0.0, 0.0, 1.0, 40.7, 38.3)">
      <use ffdec:characterId="989" height="76.6" transform="matrix(1.0, 0.0, 0.0, 1.0, -40.7, -38.3)" width="81.4" xlink:href="#shape0"/>
    </g>
    <g id="shape0" transform="matrix(1.0, 0.0, 0.0, 1.0, 40.7, 38.3)">
      <path d="M0.6 -28.15 L7.25 -25.85 11.35 -24.45 Q13.75 -23.55 15.1 -22.5 20.0 -18.75 22.95 -17.0 27.65 -14.15 31.55 -13.3 31.0 -10.95 32.3 -6.85 L34.05 -0.35 Q34.25 2.1 33.75 6.65 L33.65 7.95 32.5 8.4 32.45 8.45 31.2 9.0 31.05 9.05 Q29.55 9.7 28.0 10.3 L27.9 10.35 1.1 21.1 Q-25.8 31.95 -31.6 33.85 -36.1 35.0 -36.75 33.05 L-36.75 32.85 -36.65 32.8 -34.65 32.7 -32.5 31.5 -30.8 31.4 -29.0 31.5 Q-27.5 31.25 -25.95 30.25 -24.35 29.1 -23.1 28.55 -21.75 27.95 -19.95 27.6 L-16.45 26.7 Q-14.75 26.1 -13.25 24.95 L-10.15 22.85 Q-8.55 21.95 -6.7 21.75 L-4.8 21.6 -2.95 21.3 Q-1.9 21.0 -0.6 20.3 L1.6 19.05 4.95 17.3 Q6.75 16.5 8.5 16.3 12.4 15.95 17.15 12.65 18.5 11.7 20.9 11.05 L24.9 9.9 Q27.6 8.8 29.75 7.25 30.3 6.85 29.3 7.05 28.1 7.25 28.6 6.65 L29.4 5.6 31.4 4.55 Q30.8 4.55 30.6 3.5 30.85 2.8 30.45 2.65 L30.3 2.2 Q30.2 2.0 30.75 1.15 31.3 0.35 31.15 0.1 L30.7 -3.25 Q30.4 -3.8 29.85 -5.9 29.35 -7.75 28.75 -8.55 25.8 -12.4 22.35 -15.15 18.85 -17.95 12.7 -21.25 9.55 -22.95 5.8 -24.3 3.65 -26.15 0.9 -26.15 L-0.45 -26.0 -11.1 -27.1 Q-12.05 -28.7 -14.05 -29.05 L-14.3 -29.6 -14.3 -29.7 -14.55 -30.4 -14.55 -30.45 -13.8 -30.3 -8.8 -29.75 Q-3.0 -29.2 0.6 -28.15" fill="#9d856a" fill-rule="evenodd" stroke="none"/>
      <path d="M-2.7 -33.55 Q-4.3 -36.35 -10.05 -33.85 L-9.65 -33.85 Q-10.45 -33.45 -8.9 -33.05 L-6.85 -32.7 Q-5.35 -32.7 -2.7 -33.55 M2.85 -30.0 L7.95 -29.8 Q6.9 -31.75 3.85 -32.55 0.7 -33.4 -1.05 -32.05 -1.35 -30.6 2.85 -30.0 M16.6 -27.85 Q13.3 -29.25 10.45 -28.1 8.1 -27.1 10.15 -25.9 11.35 -25.2 13.1 -24.75 L16.4 -24.1 19.7 -24.35 Q19.9 -26.5 16.6 -27.85 M30.3 -20.3 L35.7 -15.45 Q37.3 -12.55 37.75 -5.85 38.15 0.85 37.1 6.4 L33.65 7.95 33.75 6.65 Q34.25 2.1 34.05 -0.35 L32.3 -6.85 Q31.0 -10.95 31.55 -13.3 27.65 -14.15 22.95 -17.0 20.0 -18.75 15.1 -22.5 13.75 -23.55 11.35 -24.45 L7.25 -25.85 0.6 -28.15 Q-3.0 -29.2 -8.8 -29.75 L-13.8 -30.3 -14.55 -30.45 -14.65 -32.2 -14.6 -32.35 -14.45 -33.0 -14.4 -33.15 -13.95 -33.95 Q-12.45 -36.15 -8.7 -36.15 2.4 -36.15 18.65 -27.7 L24.3 -24.5 30.3 -20.3 M29.35 -17.8 Q28.45 -18.1 28.1 -17.2 27.8 -16.25 28.6 -15.7 29.6 -15.0 32.65 -14.55 36.4 -14.0 33.55 -16.25 30.6 -18.55 29.35 -17.8 M21.35 -22.1 L21.2 -22.1 Q20.3 -20.05 24.5 -19.0 28.05 -18.1 30.15 -18.5 29.65 -20.45 26.15 -22.15 22.55 -23.95 21.35 -22.1" fill="#f3c98b" fill-rule="evenodd" stroke="none"/>
      <path d="M-23.75 17.0 Q-23.75 16.1 -24.55 15.45 -25.4 14.8 -26.55 14.8 -27.7 14.8 -28.55 15.45 -29.35 16.1 -29.35 17.0 -29.35 17.95 -28.55 18.6 -27.7 19.25 -26.55 19.25 -25.4 19.25 -24.55 18.6 -23.75 17.95 -23.75 17.0 M-6.55 8.6 Q-7.3 8.0 -8.3 8.0 -9.35 8.0 -10.05 8.6 -10.8 9.15 -10.8 10.0 -10.8 10.85 -10.05 11.4 -9.35 12.0 -8.3 12.0 -7.3 12.0 -6.55 11.4 -5.8 10.8 -5.8 10.0 -5.8 9.2 -6.55 8.6 M-26.75 5.85 Q-26.75 7.15 -25.55 8.1 -24.4 9.05 -22.75 9.05 -21.1 9.05 -19.95 8.1 -18.8 7.15 -18.8 5.85 -18.8 4.55 -19.95 3.6 -21.1 2.7 -22.75 2.7 -24.4 2.7 -25.55 3.6 -26.75 4.55 -26.75 5.85 M-10.65 -22.4 Q-11.9 -23.65 -13.4 -23.65 -14.85 -23.65 -15.9 -22.4 -16.9 -21.25 -16.9 -19.9 -16.9 -18.7 -15.8 -17.8 -14.7 -16.95 -13.15 -16.95 -11.6 -16.95 -10.55 -17.8 -9.45 -18.7 -9.45 -19.9 -9.45 -21.2 -10.65 -22.4 M-15.7 -27.95 Q-16.35 -27.4 -16.35 -26.65 -16.35 -25.9 -15.7 -25.35 -15.0 -24.8 -14.05 -24.8 -13.1 -24.8 -12.45 -25.35 -11.75 -25.9 -11.75 -26.65 -11.75 -27.4 -12.45 -27.95 -13.1 -28.5 -14.05 -28.5 -15.0 -28.5 -15.7 -27.95 M24.45 1.4 Q25.05 1.05 25.05 0.65 25.05 0.2 24.45 -0.1 L22.9 -0.4 21.4 -0.1 Q20.75 0.2 20.75 0.65 20.75 1.05 21.4 1.4 L22.9 1.7 24.45 1.4 M24.15 -7.35 L24.15 -7.2 Q24.15 -6.0 23.55 -5.05 L25.4 -6.3 24.15 -7.35 M17.45 3.9 Q16.2 4.0 15.65 4.85 14.1 5.6 13.25 6.15 11.5 7.25 11.6 8.3 L15.8 7.65 18.15 7.3 20.35 6.7 21.5 5.9 Q22.2 5.35 22.75 5.1 L24.4 4.5 Q25.35 4.0 24.7 3.4 L22.15 3.15 19.7 3.65 17.45 3.9 M6.1 8.6 Q5.45 8.95 5.45 9.35 5.45 9.8 6.1 10.1 L7.6 10.4 9.15 10.1 Q9.75 9.8 9.75 9.35 9.75 8.95 9.15 8.6 L7.6 8.3 6.1 8.6 M20.05 -10.65 Q18.9 -10.65 18.05 -10.0 17.25 -9.35 17.25 -8.4 17.25 -7.45 18.05 -6.8 18.9 -6.15 20.05 -6.15 21.2 -6.15 22.05 -6.8 22.85 -7.45 22.85 -8.4 22.85 -9.35 22.05 -10.0 21.2 -10.65 20.05 -10.65 M0.9 -26.15 Q3.65 -26.15 5.8 -24.3 9.55 -22.95 12.7 -21.25 18.85 -17.95 22.35 -15.15 25.8 -12.4 28.75 -8.55 29.35 -7.75 29.85 -5.9 30.4 -3.8 30.7 -3.25 L31.15 0.1 Q31.3 0.35 30.75 1.15 30.2 2.0 30.3 2.2 L30.45 2.65 Q30.85 2.8 30.6 3.5 30.8 4.55 31.4 4.55 L29.4 5.6 28.6 6.65 Q28.1 7.25 29.3 7.05 30.3 6.85 29.75 7.25 27.6 8.8 24.9 9.9 L20.9 11.05 Q18.5 11.7 17.15 12.65 12.4 15.95 8.5 16.3 6.75 16.5 4.95 17.3 L1.6 19.05 -0.6 20.3 Q-1.9 21.0 -2.95 21.3 L-4.8 21.6 -6.7 21.75 Q-8.55 21.95 -10.15 22.85 L-13.25 24.95 Q-14.75 26.1 -16.45 26.7 L-19.95 27.6 Q-21.75 27.95 -23.1 28.55 -24.35 29.1 -25.95 30.25 -27.5 31.25 -29.0 31.5 L-30.8 31.4 -32.5 31.5 -34.65 32.7 -36.65 32.8 -36.75 32.85 -36.75 33.05 -39.65 33.3 Q-40.1 31.95 -40.45 28.55 L-40.65 24.8 Q-40.5 23.45 -38.75 21.1 L-36.45 18.1 Q-35.2 16.45 -34.75 14.9 -34.25 13.9 -32.8 12.4 -31.8 11.35 -30.7 7.85 -27.45 -2.05 -25.25 -6.45 L-22.35 -13.05 -19.35 -19.7 -18.45 -21.65 -17.75 -22.75 -17.9 -23.75 -17.85 -24.6 -18.05 -25.45 Q-18.05 -27.4 -16.55 -28.5 -15.8 -29.1 -14.75 -29.1 L-14.05 -29.05 Q-12.05 -28.7 -11.1 -27.1 L-0.45 -26.0 0.9 -26.15 M13.75 -17.1 Q12.3 -17.1 11.25 -16.3 10.25 -15.5 10.25 -14.35 10.25 -13.2 11.25 -12.35 12.3 -11.55 13.75 -11.55 15.2 -11.55 16.2 -12.35 17.2 -13.2 17.2 -14.35 17.2 -15.5 16.2 -16.3 15.2 -17.1 13.75 -17.1 M2.1 -18.75 Q3.8 -18.75 5.05 -19.55 6.4 -20.45 6.4 -21.7 6.4 -23.05 5.0 -24.25 3.6 -25.45 1.95 -25.45 0.25 -25.45 -1.35 -24.45 -3.05 -23.35 -3.05 -22.1 -3.05 -20.85 -1.3 -19.75 0.35 -18.75 2.1 -18.75 M7.8 -19.15 Q7.45 -17.2 6.0 -16.1 4.55 -15.0 2.3 -15.0 -0.5 -15.0 -2.5 -16.15 -4.8 -17.5 -4.8 -19.8 -4.8 -22.5 -3.05 -24.35 L-10.75 -25.15 Q-10.9 -24.05 -11.7 -23.35 -10.0 -22.7 -8.9 -21.35 -7.75 -19.95 -7.75 -18.35 -7.75 -15.7 -9.65 -14.45 -8.7 -14.3 -8.1 -13.75 -7.45 -13.2 -7.45 -12.5 -7.45 -11.65 -8.25 -11.1 -9.1 -10.5 -10.25 -10.5 -11.4 -10.5 -12.25 -11.1 -13.05 -11.65 -13.05 -12.5 L-12.7 -13.45 -12.95 -13.45 Q-14.7 -13.45 -16.25 -14.0 -17.95 -14.6 -18.8 -15.7 L-19.55 -13.7 -21.05 -9.95 -20.7 -9.75 Q-20.15 -9.35 -20.2 -8.55 -20.25 -7.75 -20.8 -7.05 -21.75 -5.9 -22.9 -6.05 L-25.15 -1.3 -26.4 2.25 Q-25.25 1.6 -23.95 1.6 -21.35 1.6 -19.2 3.3 -16.95 5.15 -16.95 7.55 -16.95 10.0 -18.5 11.4 -20.05 12.8 -22.55 12.8 -24.55 12.8 -26.3 12.1 -28.2 11.35 -29.05 10.05 L-30.4 13.05 -31.05 14.3 Q-31.95 16.9 -33.15 18.95 -33.95 20.35 -35.5 22.4 L-32.95 22.9 Q-31.4 23.2 -31.1 23.55 L-28.5 21.6 Q-31.4 20.8 -31.4 18.5 -31.4 16.7 -30.3 15.35 -29.1 14.0 -27.4 14.0 -25.65 14.0 -24.15 15.15 -22.6 16.35 -22.5 17.95 -18.3 15.9 -11.55 13.35 -12.65 12.5 -12.65 11.3 -12.65 9.7 -11.65 8.5 -10.6 7.3 -9.05 7.3 -7.45 7.3 -6.1 8.35 -4.75 9.45 -4.7 10.95 L-1.95 10.05 Q3.0 8.4 9.7 4.3 L21.6 -3.7 20.2 -3.5 Q18.25 -3.5 16.8 -4.35 15.2 -5.3 15.2 -6.9 15.2 -7.75 15.5 -8.5 L13.9 -8.3 Q11.45 -8.3 9.7 -9.3 7.7 -10.5 7.7 -12.5 7.7 -14.75 9.1 -16.35 10.6 -18.05 12.7 -18.05 L14.3 -17.85 Q11.1 -19.75 7.8 -19.15" fill="#0b156c" fill-rule="evenodd" stroke="none"/>
      <path d="M24.15 -7.2 L24.15 -7.35 25.4 -6.3 23.55 -5.05 Q24.15 -6.0 24.15 -7.2" fill="#6851af" fill-rule="evenodd" stroke="none"/>
      <path d="M-7.9 -3.95 Q-7.9 -5.95 -9.75 -7.45 -11.5 -8.85 -13.65 -8.85 -15.65 -8.85 -17.05 -7.25 -18.35 -5.7 -18.35 -3.6 -18.35 -1.7 -16.45 -0.6 -14.8 0.35 -12.5 0.35 -10.4 0.35 -9.15 -0.8 -7.9 -1.95 -7.9 -3.95 M3.65 5.7 Q5.2 4.25 5.2 1.8 5.2 -0.6 2.95 -2.4 0.85 -4.1 -1.75 -4.1 -3.95 -4.1 -5.55 -2.5 -7.1 -0.95 -7.4 1.35 -8.8 1.45 -9.75 2.3 -10.7 3.15 -10.7 4.3 -10.7 5.5 -9.65 6.4 -8.6 7.25 -7.1 7.25 -5.55 7.25 -4.45 6.25 -2.65 7.05 -0.35 7.05 2.15 7.05 3.65 5.7 M1.15 -6.05 Q2.6 -6.05 3.45 -6.85 4.35 -7.65 4.35 -9.1 4.35 -10.5 3.05 -11.5 1.85 -12.5 0.35 -12.5 -1.05 -12.5 -2.05 -11.4 -2.95 -10.3 -2.95 -8.85 -2.95 -7.5 -1.65 -6.7 -0.5 -6.05 1.15 -6.05 M12.65 -2.75 Q12.65 -3.7 11.45 -4.4 10.25 -5.1 8.5 -5.1 6.8 -5.1 5.6 -4.4 4.35 -3.7 4.35 -2.75 4.35 -1.8 5.6 -1.15 6.8 -0.45 8.5 -0.45 10.2 -0.45 11.45 -1.15 12.65 -1.8 12.65 -2.75 M2.3 -15.0 Q4.55 -15.0 6.0 -16.1 7.45 -17.2 7.8 -19.15 11.1 -19.75 14.3 -17.85 L12.7 -18.05 Q10.6 -18.05 9.1 -16.35 7.7 -14.75 7.7 -12.5 7.7 -10.5 9.7 -9.3 11.45 -8.3 13.9 -8.3 L15.5 -8.5 Q15.2 -7.75 15.2 -6.9 15.2 -5.3 16.8 -4.35 18.25 -3.5 20.2 -3.5 L21.6 -3.7 9.7 4.3 Q3.0 8.4 -1.95 10.05 L-4.7 10.95 Q-4.75 9.45 -6.1 8.35 -7.45 7.3 -9.05 7.3 -10.6 7.3 -11.65 8.5 -12.65 9.7 -12.65 11.3 -12.65 12.5 -11.55 13.35 -18.3 15.9 -22.5 17.95 -22.6 16.35 -24.15 15.15 -25.65 14.0 -27.4 14.0 -29.1 14.0 -30.3 15.35 -31.4 16.7 -31.4 18.5 -31.4 20.8 -28.5 21.6 L-31.1 23.55 Q-31.4 23.2 -32.95 22.9 L-35.5 22.4 Q-33.95 20.35 -33.15 18.95 -31.95 16.9 -31.05 14.3 L-30.4 13.05 -29.05 10.05 Q-28.2 11.35 -26.3 12.1 -24.55 12.8 -22.55 12.8 -20.05 12.8 -18.5 11.4 -16.95 10.0 -16.95 7.55 -16.95 5.15 -19.2 3.3 -21.35 1.6 -23.95 1.6 -25.25 1.6 -26.4 2.25 L-25.15 -1.3 -22.9 -6.05 Q-21.75 -5.9 -20.8 -7.05 -20.25 -7.75 -20.2 -8.55 -20.15 -9.35 -20.7 -9.75 L-21.05 -9.95 -19.55 -13.7 -18.8 -15.7 Q-17.95 -14.6 -16.25 -14.0 -14.7 -13.45 -12.95 -13.45 L-12.7 -13.45 -13.05 -12.5 Q-13.05 -11.65 -12.25 -11.1 -11.4 -10.5 -10.25 -10.5 -9.1 -10.5 -8.25 -11.1 -7.45 -11.65 -7.45 -12.5 -7.45 -13.2 -8.1 -13.75 -8.7 -14.3 -9.65 -14.45 -7.75 -15.7 -7.75 -18.35 -7.75 -19.95 -8.9 -21.35 -10.0 -22.7 -11.7 -23.35 -10.9 -24.05 -10.75 -25.15 L-3.05 -24.35 Q-4.8 -22.5 -4.8 -19.8 -4.8 -17.5 -2.5 -16.15 -0.5 -15.0 2.3 -15.0" fill="#8568ca" fill-rule="evenodd" stroke="none"/>
      <path d="M-25.55 8.1 Q-26.75 7.15 -26.75 5.85 -26.75 4.55 -25.55 3.6 -24.4 2.7 -22.75 2.7 -21.1 2.7 -19.95 3.6 -18.8 4.55 -18.8 5.85 -18.8 7.15 -19.95 8.1 -21.1 9.05 -22.75 9.05 -24.4 9.05 -25.55 8.1 M-21.35 3.5 Q-21.8 3.15 -22.5 3.15 -23.2 3.15 -23.65 3.5 -24.15 3.9 -24.15 4.4 L-23.65 5.35 -22.5 5.7 Q-21.8 5.7 -21.35 5.35 -20.85 4.95 -20.85 4.4 -20.85 3.9 -21.35 3.5" fill="#8568ca" fill-rule="evenodd" stroke="none"/>
      <path d="M-20.85 4.4 Q-20.85 4.95 -21.35 5.35 -21.8 5.7 -22.5 5.7 L-23.65 5.35 -24.15 4.4 Q-24.15 3.9 -23.65 3.5 -23.2 3.15 -22.5 3.15 -21.8 3.15 -21.35 3.5 -20.85 3.9 -20.85 4.4" fill="#fdfdfd" fill-rule="evenodd" stroke="none"/>
      <path d="M0.85 -0.4 Q1.35 -0.75 1.35 -1.3 1.35 -1.85 0.85 -2.2 0.35 -2.6 -0.3 -2.6 -1.0 -2.6 -1.5 -2.2 -1.95 -1.85 -1.95 -1.3 -1.95 -0.75 -1.5 -0.4 -1.0 0.0 -0.3 0.0 0.35 0.0 0.85 -0.4 M2.1 -2.7 Q3.5 -1.65 3.5 -0.35 3.5 1.0 2.3 2.15 1.0 3.3 -0.6 3.3 -2.25 3.3 -3.75 2.15 -5.3 0.95 -5.3 -0.35 -5.3 -1.65 -3.95 -2.7 -2.6 -3.7 -0.95 -3.7 0.7 -3.7 2.1 -2.7" fill="#8568ca" fill-rule="evenodd" stroke="none"/>
      <path d="M0.85 -2.2 Q1.35 -1.85 1.35 -1.3 1.35 -0.75 0.85 -0.4 0.35 0.0 -0.3 0.0 -1.0 0.0 -1.5 -0.4 -1.95 -0.75 -1.95 -1.3 -1.95 -1.85 -1.5 -2.2 -1.0 -2.6 -0.3 -2.6 0.35 -2.6 0.85 -2.2" fill="#fdfdfd" fill-rule="evenodd" stroke="none"/>
      <path d="M35.7 -15.45 L35.65 -15.45 29.15 -21.2 18.65 -27.7 Q2.4 -36.15 -8.7 -36.15 -12.45 -36.15 -13.95 -33.95 L-14.4 -33.15 -14.45 -33.0 -14.6 -32.35 -14.65 -32.2 -14.55 -30.45 -14.55 -30.4 -14.3 -29.7 -14.3 -29.6 -14.05 -29.05 -14.75 -29.1 Q-15.8 -29.1 -16.55 -28.5 -19.8 -35.95 -12.95 -37.75 L-1.6 -37.4 Q10.6 -34.45 21.3 -28.8 26.05 -26.3 31.55 -22.25 36.4 -18.6 37.85 -16.8 41.4 -10.7 40.5 -0.05 39.7 9.75 37.45 10.55 L27.45 14.2 -15.1 31.7 -23.0 35.05 -28.5 37.1 Q-31.3 38.3 -33.95 38.3 -35.5 38.3 -37.3 36.3 -39.1 34.5 -39.65 33.3 L-36.75 33.05 Q-36.1 35.0 -31.6 33.85 -25.8 31.95 1.1 21.1 L27.9 10.35 28.0 10.3 29.55 9.65 31.2 9.0 32.45 8.45 32.5 8.4 37.1 6.4 Q38.15 0.85 37.75 -5.85 37.3 -12.55 35.7 -15.45" fill="#755838" fill-rule="evenodd" stroke="none"/>
      <path d="M12.95 -16.4 Q12.5 -16.1 12.5 -15.6 12.5 -15.15 12.95 -14.8 13.35 -14.5 13.95 -14.5 L15.0 -14.8 Q15.4 -15.15 15.4 -15.6 15.4 -16.1 15.0 -16.4 L13.95 -16.75 Q13.35 -16.75 12.95 -16.4 M11.25 -16.3 Q12.3 -17.1 13.75 -17.1 15.2 -17.1 16.2 -16.3 17.2 -15.5 17.2 -14.35 17.2 -13.2 16.2 -12.35 15.2 -11.55 13.75 -11.55 12.3 -11.55 11.25 -12.35 10.25 -13.2 10.25 -14.35 10.25 -15.5 11.25 -16.3" fill="#8568ca" fill-rule="evenodd" stroke="none"/>
      <path d="M12.5 -15.6 Q12.5 -16.1 12.95 -16.4 13.35 -16.75 13.95 -16.75 L15.0 -16.4 Q15.4 -16.1 15.4 -15.6 15.4 -15.15 15.0 -14.8 L13.95 -14.5 Q13.35 -14.5 12.95 -14.8 12.5 -15.15 12.5 -15.6" fill="#fdfdfd" fill-rule="evenodd" stroke="none"/>
      <path d="M1.2 -22.45 Q1.7 -22.05 2.35 -22.05 3.0 -22.05 3.5 -22.45 4.0 -22.8 4.0 -23.35 4.0 -23.9 3.5 -24.25 3.0 -24.65 2.35 -24.65 1.7 -24.65 1.2 -24.25 0.7 -23.85 0.7 -23.35 0.7 -22.8 1.2 -22.45 M5.0 -24.25 Q6.4 -23.05 6.4 -21.7 6.4 -20.45 5.05 -19.55 3.8 -18.75 2.1 -18.75 0.35 -18.75 -1.3 -19.75 -3.05 -20.85 -3.05 -22.1 -3.05 -23.35 -1.35 -24.45 0.25 -25.45 1.95 -25.45 3.6 -25.45 5.0 -24.25" fill="#8568ca" fill-rule="evenodd" stroke="none"/>
      <path d="M2.35 -24.65 Q3.0 -24.65 3.5 -24.25 4.0 -23.9 4.0 -23.35 4.0 -22.8 3.5 -22.45 3.0 -22.05 2.35 -22.05 1.7 -22.05 1.2 -22.45 0.7 -22.8 0.7 -23.35 0.7 -23.85 1.2 -24.25 1.7 -24.65 2.35 -24.65" fill="#fdfdfd" fill-rule="evenodd" stroke="none"/>
      <path d="M-15.95 -5.35 Q-15.95 -4.25 -15.0 -3.5 -14.05 -2.75 -12.65 -2.75 -11.3 -2.75 -10.35 -3.5 -9.4 -4.25 -9.4 -5.35 -9.4 -6.45 -10.35 -7.2 -11.3 -7.95 -12.65 -7.95 -14.05 -7.95 -15.0 -7.2 -15.95 -6.45 -15.95 -5.35 M-9.75 -7.45 Q-7.9 -5.95 -7.9 -3.95 -7.9 -1.95 -9.15 -0.8 -10.4 0.35 -12.5 0.35 -14.8 0.35 -16.45 -0.6 -18.35 -1.7 -18.35 -3.6 -18.35 -5.7 -17.05 -7.25 -15.65 -8.85 -13.65 -8.85 -11.5 -8.85 -9.75 -7.45" fill="#0b156c" fill-rule="evenodd" stroke="none"/>
      <path d="M-11.1 -6.55 L-11.5 -7.3 Q-11.9 -7.6 -12.45 -7.6 L-13.4 -7.3 -13.8 -6.55 Q-13.8 -6.1 -13.4 -5.8 -13.0 -5.5 -12.45 -5.5 -11.9 -5.5 -11.5 -5.8 -11.1 -6.1 -11.1 -6.55 M-12.65 -2.75 Q-14.05 -2.75 -15.0 -3.5 -15.95 -4.25 -15.95 -5.35 -15.95 -6.45 -15.0 -7.2 -14.05 -7.95 -12.65 -7.95 -11.3 -7.95 -10.35 -7.2 -9.4 -6.45 -9.4 -5.35 -9.4 -4.25 -10.35 -3.5 -11.3 -2.75 -12.65 -2.75" fill="#8568ca" fill-rule="evenodd" stroke="none"/>
      <path d="M-12.45 -7.6 Q-11.9 -7.6 -11.5 -7.3 L-11.1 -6.55 Q-11.1 -6.1 -11.5 -5.8 -11.9 -5.5 -12.45 -5.5 -13.0 -5.5 -13.4 -5.8 -13.8 -6.1 -13.8 -6.55 L-13.4 -7.3 -12.45 -7.6" fill="#fdfdfd" fill-rule="evenodd" stroke="none"/>
      <path d="M19.45 -10.05 L19.1 -9.4 Q19.1 -9.0 19.45 -8.75 19.75 -8.5 20.25 -8.5 L21.05 -8.75 Q21.4 -9.0 21.4 -9.4 L21.05 -10.05 20.25 -10.3 19.45 -10.05 M18.05 -10.0 Q18.9 -10.65 20.05 -10.65 21.2 -10.65 22.05 -10.0 22.85 -9.35 22.85 -8.4 22.85 -7.45 22.05 -6.8 21.2 -6.15 20.05 -6.15 18.9 -6.15 18.05 -6.8 17.25 -7.45 17.25 -8.4 17.25 -9.35 18.05 -10.0" fill="#8568ca" fill-rule="evenodd" stroke="none"/>
      <path d="M20.25 -8.5 Q19.75 -8.5 19.45 -8.75 19.1 -9.0 19.1 -9.4 L19.45 -10.05 20.25 -10.3 21.05 -10.05 21.4 -9.4 Q21.4 -9.0 21.05 -8.75 L20.25 -8.5" fill="#fdfdfd" fill-rule="evenodd" stroke="none"/>
      <path d="M-27.2 16.65 L-26.35 16.9 -25.55 16.65 Q-25.2 16.4 -25.2 16.0 -25.2 15.65 -25.55 15.35 -25.85 15.1 -26.35 15.1 -26.85 15.1 -27.2 15.35 L-27.55 16.0 -27.2 16.65 M-24.55 15.45 Q-23.75 16.1 -23.75 17.0 -23.75 17.95 -24.55 18.6 -25.4 19.25 -26.55 19.25 -27.7 19.25 -28.55 18.6 -29.35 17.95 -29.35 17.0 -29.35 16.1 -28.55 15.45 -27.7 14.8 -26.55 14.8 -25.4 14.8 -24.55 15.45" fill="#6851af" fill-rule="evenodd" stroke="none"/>
      <path d="M-26.35 15.1 Q-25.85 15.1 -25.55 15.35 -25.2 15.65 -25.2 16.0 -25.2 16.4 -25.55 16.65 L-26.35 16.9 -27.2 16.65 -27.55 16.0 -27.2 15.35 Q-26.85 15.1 -26.35 15.1" fill="#fdfdfd" fill-rule="evenodd" stroke="none"/>
      <path d="M-6.55 8.6 Q-5.8 9.2 -5.8 10.0 -5.8 10.8 -6.55 11.4 -7.3 12.0 -8.3 12.0 -9.35 12.0 -10.05 11.4 -10.8 10.85 -10.8 10.0 -10.8 9.15 -10.05 8.6 -9.35 8.0 -8.3 8.0 -7.3 8.0 -6.55 8.6 M-9.2 9.1 L-8.9 9.65 -8.15 9.9 -7.4 9.65 -7.1 9.1 Q-7.1 8.75 -7.4 8.5 -7.7 8.25 -8.15 8.25 L-8.9 8.5 -9.2 9.1" fill="#6851af" fill-rule="evenodd" stroke="none"/>
      <path d="M-7.1 9.1 L-7.4 9.65 -8.15 9.9 -8.9 9.65 -9.2 9.1 -8.9 8.5 -8.15 8.25 Q-7.7 8.25 -7.4 8.5 -7.1 8.75 -7.1 9.1" fill="#fdfdfd" fill-rule="evenodd" stroke="none"/>
      <path d="M1.0 -8.2 Q1.95 -8.2 2.65 -8.75 3.3 -9.3 3.3 -10.05 3.3 -10.8 2.65 -11.35 1.95 -11.9 1.0 -11.9 0.05 -11.9 -0.6 -11.35 -1.3 -10.8 -1.3 -10.05 -1.3 -9.3 -0.6 -8.75 0.05 -8.2 1.0 -8.2 M0.35 -12.5 Q1.85 -12.5 3.05 -11.5 4.35 -10.5 4.35 -9.1 4.35 -7.65 3.45 -6.85 2.6 -6.05 1.15 -6.05 -0.5 -6.05 -1.65 -6.7 -2.95 -7.5 -2.95 -8.85 -2.95 -10.3 -2.05 -11.4 -1.05 -12.5 0.35 -12.5" fill="#0b156c" fill-rule="evenodd" stroke="none"/>
      <path d="M3.3 -10.05 Q3.3 -9.3 2.65 -8.75 1.95 -8.2 1.0 -8.2 0.05 -8.2 -0.6 -8.75 -1.3 -9.3 -1.3 -10.05 -1.3 -10.8 -0.6 -11.35 0.05 -11.9 1.0 -11.9 1.95 -11.9 2.65 -11.35 3.3 -10.8 3.3 -10.05 M1.15 -11.65 L0.5 -11.4 Q0.2 -11.2 0.2 -10.9 0.2 -10.15 1.15 -10.15 2.15 -10.15 2.15 -10.9 L1.85 -11.4 1.15 -11.65" fill="#6851af" fill-rule="evenodd" stroke="none"/>
      <path d="M1.15 -10.15 Q0.2 -10.15 0.2 -10.9 0.2 -11.2 0.5 -11.4 L1.15 -11.65 1.85 -11.4 2.15 -10.9 Q2.15 -10.15 1.15 -10.15" fill="#fdfdfd" fill-rule="evenodd" stroke="none"/>
      <path d="M-13.9 -26.75 Q-12.95 -26.75 -12.95 -27.5 -12.95 -28.25 -13.9 -28.25 L-14.6 -28.0 -14.85 -27.5 Q-14.85 -26.75 -13.9 -26.75 M-16.35 -26.65 Q-16.35 -27.4 -15.7 -27.95 -15.0 -28.5 -14.05 -28.5 -13.1 -28.5 -12.45 -27.95 -11.75 -27.4 -11.75 -26.65 -11.75 -25.9 -12.45 -25.35 -13.1 -24.8 -14.05 -24.8 -15.0 -24.8 -15.7 -25.35 -16.35 -25.9 -16.35 -26.65" fill="#6851af" fill-rule="evenodd" stroke="none"/>
      <path d="M-14.85 -27.5 L-14.6 -28.0 -13.9 -28.25 Q-12.95 -28.25 -12.95 -27.5 -12.95 -26.75 -13.9 -26.75 -14.85 -26.75 -14.85 -27.5" fill="#fdfdfd" fill-rule="evenodd" stroke="none"/>
      <path d="M-13.4 -23.65 Q-11.9 -23.65 -10.65 -22.4 -9.45 -21.2 -9.45 -19.9 -9.45 -18.7 -10.55 -17.8 -11.6 -16.95 -13.15 -16.95 -14.7 -16.95 -15.8 -17.8 -16.9 -18.7 -16.9 -19.9 -16.9 -21.25 -15.9 -22.4 -14.85 -23.65 -13.4 -23.65 M-12.9 -22.45 L-14.05 -22.1 -14.5 -21.25 Q-14.5 -20.75 -14.05 -20.4 -13.55 -20.05 -12.9 -20.05 -12.25 -20.05 -11.8 -20.4 -11.35 -20.75 -11.35 -21.25 -11.35 -21.75 -11.8 -22.1 L-12.9 -22.45" fill="#8568ca" fill-rule="evenodd" stroke="none"/>
      <path d="M-12.9 -22.45 L-11.8 -22.1 Q-11.35 -21.75 -11.35 -21.25 -11.35 -20.75 -11.8 -20.4 -12.25 -20.05 -12.9 -20.05 -13.55 -20.05 -14.05 -20.4 -14.5 -20.75 -14.5 -21.25 L-14.05 -22.1 -12.9 -22.45" fill="#fdfdfd" fill-rule="evenodd" stroke="none"/>
      <path d="M8.5 -0.45 Q6.8 -0.45 5.6 -1.15 4.35 -1.8 4.35 -2.75 4.35 -3.7 5.6 -4.4 6.8 -5.1 8.5 -5.1 10.25 -5.1 11.45 -4.4 12.65 -3.7 12.65 -2.75 12.65 -1.8 11.45 -1.15 10.2 -0.45 8.5 -0.45" fill="#0b156c" fill-rule="evenodd" stroke="none"/>
      <path d="M2.3 2.15 Q3.5 1.0 3.5 -0.35 3.5 -1.65 2.1 -2.7 0.7 -3.7 -0.95 -3.7 -2.6 -3.7 -3.95 -2.7 -5.3 -1.65 -5.3 -0.35 -5.3 0.95 -3.75 2.15 -2.25 3.3 -0.6 3.3 1.0 3.3 2.3 2.15 M2.95 -2.4 Q5.2 -0.6 5.2 1.8 5.2 4.25 3.65 5.7 2.15 7.05 -0.35 7.05 -2.65 7.05 -4.45 6.25 -5.55 7.25 -7.1 7.25 -8.6 7.25 -9.65 6.4 -10.7 5.5 -10.7 4.3 -10.7 3.15 -9.75 2.3 -8.8 1.45 -7.4 1.35 -7.1 -0.95 -5.55 -2.5 -3.95 -4.1 -1.75 -4.1 0.85 -4.1 2.95 -2.4" fill="#0b156c" fill-rule="evenodd" stroke="none"/>
      <path d="M17.45 3.9 L19.7 3.65 22.15 3.15 24.7 3.4 Q25.35 4.0 24.4 4.5 L22.75 5.1 Q22.2 5.35 21.5 5.9 L20.35 6.7 18.15 7.3 15.8 7.65 11.6 8.3 Q11.5 7.25 13.25 6.15 14.1 5.6 15.65 4.85 16.2 4.0 17.45 3.9" fill="#8568ca" fill-rule="evenodd" stroke="none"/>
      <path d="M9.75 9.35 Q9.75 9.8 9.15 10.1 L7.6 10.4 6.1 10.1 Q5.45 9.8 5.45 9.35 5.45 8.95 6.1 8.6 L7.6 8.3 9.15 8.6 Q9.75 8.95 9.75 9.35" fill="#6851af" fill-rule="evenodd" stroke="none"/>
      <path d="M22.9 -0.4 L24.45 -0.1 Q25.05 0.2 25.05 0.65 25.05 1.05 24.45 1.4 L22.9 1.7 21.4 1.4 Q20.75 1.05 20.75 0.65 20.75 0.2 21.4 -0.1 L22.9 -0.4" fill="#6851af" fill-rule="evenodd" stroke="none"/>
      <path d="M-6.85 -32.7 L-8.9 -33.05 Q-10.45 -33.45 -9.65 -33.85 L-10.05 -33.85 Q-4.3 -36.35 -2.7 -33.55 -5.35 -32.7 -6.85 -32.7" fill="#ffe4c0" fill-rule="evenodd" stroke="none"/>
      <path d="M7.95 -29.8 L2.85 -30.0 Q-1.35 -30.6 -1.05 -32.05 0.7 -33.4 3.85 -32.55 6.9 -31.75 7.95 -29.8" fill="#ffe4c0" fill-rule="evenodd" stroke="none"/>
      <path d="M13.1 -24.75 Q11.35 -25.2 10.15 -25.9 8.1 -27.1 10.45 -28.1 13.3 -29.25 16.6 -27.85 19.9 -26.5 19.7 -24.35 L16.4 -24.1 13.1 -24.75" fill="#ffe4c0" fill-rule="evenodd" stroke="none"/>
      <path d="M30.15 -18.5 Q28.05 -18.1 24.5 -19.0 20.3 -20.05 21.2 -22.1 L21.35 -22.1 Q22.55 -23.95 26.15 -22.15 29.65 -20.45 30.15 -18.5" fill="#ffe4c0" fill-rule="evenodd" stroke="none"/>
      <path d="M29.35 -17.8 Q30.6 -18.55 33.55 -16.25 36.4 -14.0 32.65 -14.55 29.6 -15.0 28.6 -15.7 27.8 -16.25 28.1 -17.2 28.45 -18.1 29.35 -17.8" fill="#ffe4c0" fill-rule="evenodd" stroke="none"/>
    </g>
  </defs>
</svg>
