<?xml version="1.0" encoding="UTF-8" standalone="no"?>
<svg xmlns:ffdec="https://www.free-decompiler.com/flash" xmlns:xlink="http://www.w3.org/1999/xlink" ffdec:objectType="frame" height="86.5px" width="80.1px" xmlns="http://www.w3.org/2000/svg">
  <g transform="matrix(1.0, 0.0, 0.0, 1.0, 40.05, 86.5)">
    <use ffdec:characterId="887" height="83.2" transform="matrix(1.0, 0.0, 0.0, 1.0, -40.0, -83.2)" width="80.0" xlink:href="#sprite0"/>
  </g>
  <defs>
    <g id="sprite0" transform="matrix(1.0, 0.0, 0.0, 1.0, 40.0, 41.6)">
      <use ffdec:characterId="886" height="83.2" transform="matrix(1.0, 0.0, 0.0, 1.0, -40.0, -41.6)" width="80.0" xlink:href="#shape0"/>
    </g>
    <g id="shape0" transform="matrix(1.0, 0.0, 0.0, 1.0, 40.0, 41.6)">
      <path d="M32.8 30.25 Q33.45 28.95 32.9 27.25 32.55 26.3 31.25 24.25 34.45 24.95 36.55 27.6 38.75 30.65 37.45 33.55 36.75 35.2 34.7 36.05 33.35 36.65 31.4 36.75 L29.15 36.7 27.25 36.75 24.7 35.45 26.15 38.75 Q26.35 39.2 25.65 39.65 25.0 40.1 24.5 40.15 L22.95 40.25 19.1 40.15 Q22.15 37.55 22.7 33.95 L24.15 34.7 Q22.95 33.05 22.95 31.1 L25.0 32.85 29.4 33.05 Q31.85 32.2 32.8 30.25 M5.9 32.8 L8.45 35.0 Q8.35 35.25 7.4 35.4 L6.15 35.55 Q5.4 35.7 5.15 36.1 L2.6 40.15 Q2.25 40.6 -1.35 40.15 3.55 37.2 5.45 32.15 L5.9 32.8 M-9.0 15.85 Q-8.2 15.1 -9.35 13.7 L-8.4 13.5 -0.7 12.1 0.05 11.45 Q0.9 12.55 0.15 13.25 -5.05 15.85 -9.0 15.85 M-15.0 7.0 L-14.35 6.85 Q-14.05 6.85 -13.9 7.2 L-13.35 8.3 -13.05 8.8 Q-15.9 8.7 -17.4 6.85 L-15.0 7.0 M17.95 -3.55 L21.2 1.95 21.15 2.95 19.9 5.7 16.4 12.75 Q14.25 16.7 12.2 19.35 L15.65 19.7 16.75 21.9 Q5.45 19.0 -5.05 25.0 -6.9 26.25 -6.75 28.1 -6.7 29.4 -5.45 31.5 L-7.75 30.35 Q-6.45 31.65 -5.85 32.9 -5.25 34.4 -6.55 36.4 -7.55 37.9 -9.35 39.6 -9.9 40.05 -10.35 40.15 L-11.6 40.15 Q-8.35 34.2 -7.8 29.05 -7.6 27.45 -7.85 26.05 L-7.85 25.55 -7.3 25.25 -4.45 24.35 Q-9.65 22.25 -13.5 19.7 -9.45 21.6 -6.05 21.75 -2.05 21.9 1.45 19.8 8.15 16.9 12.95 10.7 18.4 3.7 17.95 -3.55 M37.9 -38.25 Q38.5 -35.7 38.15 -32.85 37.65 -28.2 35.3 -23.75 32.9 -19.25 29.3 -16.45 L26.0 -14.3 22.7 -12.3 18.9 -9.25 17.15 -7.45 17.0 -7.3 16.15 -6.35 15.85 -6.35 Q17.0 -9.35 21.5 -14.75 L25.55 -17.45 28.0 -18.95 30.2 -20.7 Q34.3 -25.0 35.9 -32.9 L33.0 -32.35 Q36.65 -35.55 33.6 -39.3 L37.3 -39.95 37.65 -39.2 37.9 -38.25" fill="#d9d4b2" fill-rule="evenodd" stroke="none"/>
      <path d="M30.05 24.1 L31.25 24.25 Q32.55 26.3 32.9 27.25 33.45 28.95 32.8 30.25 31.85 32.2 29.4 33.05 L25.0 32.85 22.95 31.1 Q22.95 29.0 24.2 27.3 25.25 25.85 26.75 24.95 28.45 24.05 30.05 24.1 M2.65 3.85 Q4.95 3.85 6.55 2.2 8.2 0.6 8.2 -1.7 8.2 -4.0 6.55 -5.6 4.95 -7.25 2.65 -7.25 0.35 -7.25 -1.25 -5.6 -2.9 -4.0 -2.9 -1.7 -2.9 0.6 -1.25 2.2 0.35 3.85 2.65 3.85 M-15.3 6.0 Q-16.95 6.35 -17.95 6.0 L-18.9 5.35 Q-19.1 6.55 -17.4 6.85 -15.9 8.7 -13.05 8.8 L-12.25 10.2 -10.55 13.2 -9.35 13.7 Q-8.2 15.1 -9.0 15.85 -5.05 15.85 0.15 13.25 0.9 12.55 0.05 11.45 L0.05 11.35 Q0.25 11.15 -0.7 9.2 L-1.8 7.0 -3.25 3.45 Q-3.45 2.75 -4.55 2.75 L-6.5 3.15 -8.45 3.9 -12.9 5.35 -15.3 6.0 M16.75 21.9 L17.0 22.4 19.05 25.2 21.2 27.55 22.05 28.3 21.5 29.2 Q20.35 32.15 22.7 33.95 22.15 37.55 19.1 40.15 L11.35 40.15 18.0 36.85 17.15 36.1 16.05 35.85 11.6 34.5 Q5.0 31.75 6.7 27.95 L6.55 28.1 Q4.4 30.1 5.45 32.15 3.55 37.2 -1.35 40.15 L-5.3 40.15 -4.55 38.65 -4.65 39.2 -0.1 33.2 -2.05 33.1 -5.45 31.5 Q-6.7 29.4 -6.75 28.1 -6.9 26.25 -5.05 25.0 5.45 19.0 16.75 21.9 M33.6 -39.3 Q36.65 -35.55 33.0 -32.35 28.9 -30.95 25.05 -27.45 L23.35 -25.65 Q19.05 -20.65 16.05 -10.85 L20.45 -14.05 21.5 -14.75 Q17.0 -9.35 15.85 -6.35 L16.15 -6.35 16.05 -6.2 16.35 -5.75 17.95 -3.55 Q18.4 3.7 12.95 10.7 8.15 16.9 1.45 19.8 -2.05 21.9 -6.05 21.75 -9.45 21.6 -13.5 19.7 L-13.7 19.6 -22.1 13.45 Q-27.6 9.2 -29.55 6.6 L-30.4 5.2 -28.45 2.15 -25.5 -1.65 Q-22.7 -5.05 -18.65 -8.3 -11.55 -14.05 -4.75 -16.15 L-1.8 -16.85 Q-0.9 -17.0 0.5 -16.35 L2.7 -15.3 6.95 -13.0 7.8 -12.65 8.4 -13.3 9.75 -15.65 Q11.65 -19.2 13.95 -25.15 L15.45 -28.75 Q16.35 -30.65 17.6 -31.95 21.5 -35.9 29.5 -38.25 L33.6 -39.3" fill="#fcf8d5" fill-rule="evenodd" stroke="none"/>
      <path d="M-4.95 4.1 L-8.2 5.15 Q-7.4 6.0 -6.35 8.25 L-5.4 9.85 Q-4.75 11.05 -4.85 11.55 L-2.0 11.05 Q-2.3 9.85 -3.5 7.6 L-4.95 4.1 M-11.15 6.05 L-12.75 6.6 Q-10.8 8.7 -8.9 12.4 L-6.3 11.9 Q-6.9 11.45 -7.5 10.2 L-8.35 8.25 -9.7 5.9 -11.15 6.05 M-18.9 5.35 Q-18.05 6.4 -15.95 6.15 L-12.9 5.35 -8.45 3.9 -6.55 3.15 -4.6 2.75 Q-3.6 2.75 -3.3 3.35 L-2.0 6.6 Q-0.4 9.85 0.05 11.35 L-0.7 12.1 -8.4 13.5 -9.3 13.7 -10.55 13.15 -11.15 12.0 -14.05 6.85 -15.45 7.0 -17.6 6.8 Q-19.05 6.4 -18.9 5.35 M36.4 -26.3 Q39.35 -33.1 37.7 -39.0 L37.5 -39.65 Q37.4 -40.05 37.15 -39.95 L33.95 -39.4 Q26.75 -37.95 22.0 -35.2 18.7 -33.35 16.75 -30.95 15.65 -29.6 14.75 -27.25 L13.2 -23.2 Q11.05 -17.75 8.6 -13.7 L8.2 -12.95 Q7.95 -12.45 7.65 -12.6 L5.25 -14.0 0.6 -16.2 Q-1.15 -16.9 -1.8 -16.85 L-3.1 -16.6 -6.0 -15.75 Q-9.05 -14.65 -12.85 -12.4 -21.15 -7.3 -26.8 -0.05 L-29.75 4.2 -30.4 5.2 -29.75 6.35 -28.25 8.1 Q-25.55 10.85 -20.35 14.8 L-11.7 20.95 Q-9.85 22.2 -4.45 24.35 L-7.5 25.35 -7.95 25.95 -7.75 26.85 Q-7.6 28.2 -7.8 29.45 -8.5 34.75 -11.6 40.15 L-10.35 40.15 Q-9.9 40.05 -9.35 39.6 -7.55 37.9 -6.55 36.4 -5.25 34.4 -5.85 32.9 -6.45 31.65 -7.75 30.35 L-3.5 32.4 Q-2.1 33.1 -0.1 33.2 L-4.65 39.2 -4.55 38.65 -5.3 40.15 -1.15 40.15 0.8 40.3 2.6 40.15 5.2 36.0 Q5.4 35.7 6.45 35.45 L7.5 35.35 8.45 35.0 5.9 32.8 Q4.0 30.45 6.7 27.95 4.85 31.95 11.8 34.55 L16.25 35.85 17.2 36.2 18.0 36.85 11.35 40.15 21.8 40.15 23.5 40.25 25.05 39.95 Q26.4 39.25 26.15 38.75 L24.7 35.45 27.25 36.75 32.05 36.7 35.1 35.85 Q37.05 34.85 37.5 33.35 38.65 30.05 35.95 26.95 33.25 23.95 29.8 24.1 25.9 24.15 23.95 27.8 21.9 31.5 24.15 34.7 22.25 34.0 21.5 32.5 20.8 31.0 21.5 29.2 22.05 28.3 21.85 28.15 L21.05 27.45 19.05 25.2 Q18.0 24.05 16.9 22.2 L15.65 19.7 12.2 19.35 Q14.0 17.0 16.9 11.6 L20.45 4.45 21.05 3.2 Q21.45 2.35 21.2 1.95 L19.55 -0.8 17.35 -4.3 16.5 -5.6 Q16.15 -6.05 16.25 -6.25 L16.7 -7.0 Q19.55 -10.4 24.05 -13.15 L27.4 -15.15 30.55 -17.5 Q34.1 -21.05 36.4 -26.3 M36.4 -41.35 L38.7 -41.6 Q39.65 -39.65 39.85 -37.55 40.35 -34.15 39.15 -29.2 36.6 -19.9 30.45 -15.0 L26.5 -12.2 22.5 -9.55 20.2 -7.7 Q18.5 -6.25 18.8 -5.9 L23.4 1.9 Q23.65 2.5 23.4 3.25 L22.75 4.65 18.9 11.8 17.35 14.45 Q16.5 15.85 17.35 19.0 18.4 23.5 22.7 26.85 25.2 23.7 28.65 22.9 32.25 22.15 35.45 24.5 37.8 26.1 38.9 28.75 40.15 31.6 39.1 34.1 37.65 37.35 33.6 37.95 L30.6 38.05 29.5 37.95 Q28.85 37.9 28.65 38.25 L26.85 41.1 26.35 41.55 25.5 41.55 10.15 41.45 8.65 41.55 Q7.65 41.55 7.55 41.1 7.1 39.65 7.2 39.6 L9.25 38.9 12.05 38.05 14.8 37.05 10.2 35.9 8.15 36.0 Q6.45 36.1 6.35 36.55 L4.45 41.4 3.7 41.6 2.8 41.55 -12.5 41.45 -13.75 41.4 -14.55 40.75 Q-15.0 40.3 -14.75 40.05 L-12.85 37.9 Q-10.1 34.55 -9.0 30.1 -8.5 28.1 -9.05 26.3 -9.45 24.9 -10.8 22.9 L-11.4 22.45 -12.05 22.0 -15.0 20.05 -23.1 14.55 -27.6 11.3 Q-30.05 9.4 -31.7 7.6 -32.35 6.85 -32.4 5.75 -32.5 5.4 -31.6 3.9 L-28.4 -0.65 Q-24.5 -5.8 -20.6 -9.55 L-19.95 -10.1 Q-19.6 -10.45 -19.8 -10.85 L-21.3 -13.25 Q-22.25 -14.45 -23.55 -15.35 -25.05 -16.35 -27.9 -17.5 L-32.35 -19.45 Q-38.05 -22.55 -39.5 -27.05 -40.4 -29.65 -39.6 -33.35 -39.15 -35.25 -38.05 -37.55 L-36.95 -39.7 -36.3 -40.35 -35.25 -40.3 Q-28.5 -39.1 -21.05 -30.65 -18.05 -27.25 -15.1 -22.85 L-11.35 -17.0 -10.8 -16.0 Q-10.5 -15.5 -10.1 -15.65 -7.3 -17.05 -5.05 -17.75 L-2.65 -18.4 -0.3 -18.35 Q3.35 -17.0 7.3 -14.75 11.4 -23.0 13.75 -29.8 15.65 -35.2 23.3 -38.25 28.55 -40.4 36.4 -41.35" fill="#8f895d" fill-rule="evenodd" stroke="none"/>
      <path d="M-4.85 4.4 L-4.3 5.75 Q-5.0 6.0 -6.95 7.2 L-8.2 5.15 -5.5 4.25 -4.95 4.1 -4.85 4.4 M-12.75 6.6 L-9.85 5.75 -9.75 5.8 -8.45 7.95 -11.55 8.1 -12.75 6.6" fill="#d6dde7" fill-rule="evenodd" stroke="none"/>
      <path d="M-6.7 11.45 L-6.3 11.9 -8.9 12.4 -9.05 12.3 -9.5 11.3 -11.55 8.1 -8.45 7.95 -6.7 11.45 M-2.5 9.6 L-2.0 11.05 -4.85 11.55 -4.95 11.05 -6.95 7.2 Q-5.0 6.0 -4.3 5.75 L-2.5 9.6" fill="#f7f9fc" fill-rule="evenodd" stroke="none"/>
      <path d="M16.15 -10.95 Q23.5 -25.15 32.8 -29.85 30.75 -25.8 27.05 -21.4 L20.35 -14.0 16.15 -10.95" fill="#f3bdbd" fill-rule="evenodd" stroke="none"/>
      <path d="M32.55 -32.05 L35.9 -32.9 Q35.45 -30.3 34.2 -27.3 31.75 -21.2 28.1 -19.0 24.9 -17.05 20.35 -14.0 L27.05 -21.4 Q30.75 -25.8 32.8 -29.85 23.5 -25.15 16.15 -10.95 L16.05 -10.85 Q16.9 -13.7 18.45 -17.25 21.5 -24.25 25.05 -27.45 28.55 -30.65 32.55 -32.05" fill="#d29999" fill-rule="evenodd" stroke="none"/>
      <path d="M5.65 -4.4 Q5.25 -4.75 4.75 -4.75 3.45 -4.75 3.45 -3.45 3.45 -2.15 4.75 -2.15 5.25 -2.15 5.65 -2.55 6.05 -2.95 6.05 -3.45 6.05 -4.0 5.65 -4.4 M6.55 -5.6 Q8.2 -4.0 8.2 -1.7 8.2 0.6 6.55 2.2 4.95 3.85 2.65 3.85 0.35 3.85 -1.25 2.2 -2.9 0.6 -2.9 -1.7 -2.9 -4.0 -1.25 -5.6 0.35 -7.25 2.65 -7.25 4.95 -7.25 6.55 -5.6" fill="#a1383e" fill-rule="evenodd" stroke="none"/>
      <path d="M4.75 -2.15 Q3.45 -2.15 3.45 -3.45 3.45 -4.75 4.75 -4.75 5.25 -4.75 5.65 -4.4 6.05 -4.0 6.05 -3.45 6.05 -2.95 5.65 -2.55 5.25 -2.15 4.75 -2.15" fill="#ffffff" fill-rule="evenodd" stroke="none"/>
    </g>
  </defs>
</svg>
