<?xml version="1.0" encoding="UTF-8" standalone="no"?>
<svg xmlns:ffdec="https://www.free-decompiler.com/flash" xmlns:xlink="http://www.w3.org/1999/xlink" ffdec:objectType="frame" height="84.1px" width="84.6px" xmlns="http://www.w3.org/2000/svg">
  <g transform="matrix(1.0, 0.0, 0.0, 1.0, 42.3, 84.1)">
    <use ffdec:characterId="949" height="84.1" transform="matrix(1.0, 0.0, 0.0, 1.0, -39.0, -84.1)" width="78.05" xlink:href="#sprite0"/>
  </g>
  <defs>
    <g id="sprite0" transform="matrix(1.0, 0.0, 0.0, 1.0, 39.0, 42.05)">
      <use ffdec:characterId="948" height="84.1" transform="matrix(1.0, 0.0, 0.0, 1.0, -39.0, -42.05)" width="78.05" xlink:href="#shape0"/>
    </g>
    <g id="shape0" transform="matrix(1.0, 0.0, 0.0, 1.0, 39.0, 42.05)">
      <path d="M32.95 -31.35 L32.55 -31.8 Q30.25 -33.35 28.3 -34.3 29.95 -35.2 31.2 -36.65 33.25 -39.05 33.1 -42.05 35.1 -41.4 37.0 -39.3 39.2 -36.85 39.05 -34.4 35.7 -32.4 32.95 -31.35" fill="#534a43" fill-rule="evenodd" stroke="none"/>
      <path d="M33.45 -30.9 Q38.15 -26.05 34.9 -18.35 L31.65 -11.15 Q29.75 -6.45 29.4 -2.4 28.4 1.9 28.75 17.55 27.85 22.8 22.45 28.8 17.3 34.45 11.0 37.7 8.05 39.4 4.5 39.55 L-2.15 38.85 Q-8.65 38.05 -13.85 36.45 -18.0 35.25 -21.35 33.35 L-23.85 31.7 -26.15 29.8 Q-28.95 27.15 -31.1 23.55 -33.6 19.15 -35.45 12.6 -36.55 8.85 -35.0 3.35 -35.05 6.2 -33.5 9.7 L-30.45 15.2 Q-24.4 25.05 -11.95 26.7 0.65 28.4 9.55 20.2 13.0 16.15 14.2 7.6 15.65 -3.45 16.55 -5.8 17.6 -8.5 20.7 -11.85 L26.5 -17.65 Q33.8 -25.05 33.45 -30.9" fill="#7ea122" fill-rule="evenodd" stroke="none"/>
      <path d="M32.55 -31.8 L33.45 -30.9 Q33.8 -25.05 26.5 -17.65 L20.7 -11.85 Q17.6 -8.5 16.55 -5.8 15.65 -3.45 14.2 7.6 13.0 16.15 9.55 20.2 0.65 28.4 -11.95 26.7 -24.4 25.05 -30.45 15.2 L-33.5 9.7 Q-35.05 6.2 -35.0 3.35 L-33.75 -0.4 -32.75 -2.5 Q-27.5 -12.85 -12.25 -18.4 -8.35 -19.85 -1.45 -21.9 3.95 -23.65 5.55 -25.25 9.1 -26.85 13.4 -30.55 L19.05 -35.3 Q22.85 -36.95 28.3 -34.3 30.25 -33.35 32.55 -31.8" fill="#99ce2b" fill-rule="evenodd" stroke="none"/>
      <path d="M26.15 -36.65 Q29.1 -35.2 32.55 -31.8 24.35 -37.6 19.05 -35.3 L13.4 -30.55 Q9.1 -26.85 5.55 -25.25 3.9 -23.65 -1.8 -21.8 L-13.2 -18.05 Q-29.0 -12.05 -33.75 -0.4 -35.15 2.95 -35.65 6.3 -36.2 10.0 -35.45 12.6 -33.6 19.15 -31.1 23.55 -28.95 27.15 -26.15 29.8 L-23.85 31.7 -21.35 33.35 Q-18.0 35.25 -13.85 36.45 -8.65 38.05 -2.15 38.85 L4.5 39.55 Q8.05 39.4 11.0 37.7 17.3 34.45 22.45 28.8 27.85 22.8 28.75 17.55 28.4 1.9 29.4 -2.4 29.75 -6.6 31.75 -11.45 L35.1 -18.85 Q36.7 -22.75 36.35 -25.4 35.95 -28.75 32.55 -31.8 36.4 -30.0 37.65 -25.7 38.85 -21.65 37.1 -17.85 33.8 -9.15 32.5 -1.9 31.55 2.25 31.9 17.7 31.7 21.3 29.35 24.9 L24.65 30.85 Q18.95 37.3 12.4 40.55 -0.9 44.05 -14.75 39.5 -19.15 38.05 -22.9 36.0 -26.25 34.2 -25.7 34.25 L-28.25 32.1 Q-31.45 29.1 -33.8 25.1 -36.5 20.45 -38.45 13.45 -40.1 6.95 -36.6 -1.65 -32.95 -9.05 -27.15 -14.25 -20.9 -19.8 -14.05 -21.0 -3.85 -23.85 4.1 -28.0 7.55 -29.55 11.5 -32.7 15.85 -36.2 18.25 -37.45 22.2 -38.5 26.15 -36.65" fill="#52701b" fill-rule="evenodd" stroke="none"/>
      <path d="M-19.65 -11.6 Q-15.05 -13.9 -10.75 -13.45 -6.45 -13.0 -5.0 -10.1 -3.55 -7.15 -5.75 -3.5 -8.0 0.2 -12.6 2.5 -17.2 4.8 -21.5 4.4 -25.8 3.95 -27.25 1.0 -28.7 -1.9 -26.5 -5.6 -24.25 -9.3 -19.65 -11.6 M22.6 -30.3 Q23.0 -29.45 22.45 -28.35 21.85 -27.3 20.6 -26.65 19.3 -26.0 18.1 -26.2 16.9 -26.35 16.45 -27.25 16.05 -28.1 16.6 -29.2 17.2 -30.25 18.45 -30.9 19.75 -31.55 20.95 -31.35 22.15 -31.2 22.6 -30.3" fill="#d3f871" fill-rule="evenodd" stroke="none"/>
    </g>
  </defs>
</svg>
