<?xml version="1.0" encoding="UTF-8" standalone="no"?>
<svg xmlns:ffdec="https://www.free-decompiler.com/flash" xmlns:xlink="http://www.w3.org/1999/xlink" ffdec:objectType="frame" height="84.1px" width="84.6px" xmlns="http://www.w3.org/2000/svg">
  <g transform="matrix(1.0, 0.0, 0.0, 1.0, 42.3, 84.1)">
    <use ffdec:characterId="953" height="83.6" transform="matrix(1.0, 0.0, 0.0, 1.0, -39.45, -83.6)" width="78.9" xlink:href="#sprite0"/>
  </g>
  <defs>
    <g id="sprite0" transform="matrix(1.0, 0.0, 0.0, 1.0, 39.45, 41.8)">
      <use ffdec:characterId="952" height="83.6" transform="matrix(1.0, 0.0, 0.0, 1.0, -39.45, -41.8)" width="78.9" xlink:href="#shape0"/>
    </g>
    <g id="shape0" transform="matrix(1.0, 0.0, 0.0, 1.0, 39.45, 41.8)">
      <path d="M10.55 -20.95 Q6.6 -16.35 7.95 -10.65 9.25 -5.2 14.25 -2.75 12.75 5.35 7.4 12.8 2.15 20.15 -5.45 25.05 -13.9 30.25 -23.8 27.15 -33.65 24.05 -36.6 15.5 -36.75 10.95 -35.75 6.55 -34.6 1.2 -30.4 -3.95 -26.4 -8.8 -20.7 -12.25 -10.8 -18.25 0.1 -21.75 L2.9 -22.45 Q4.1 -21.45 6.4 -21.15 L10.55 -20.95" fill="#782b9c" fill-rule="evenodd" stroke="none"/>
      <path d="M10.55 -20.95 L6.4 -21.15 Q4.1 -21.45 2.9 -22.45 L9.75 -23.3 10.6 -23.25 Q14.95 -23.25 18.85 -21.15 22.75 -19.25 25.25 -13.95 27.75 -8.5 27.5 -2.25 27.4 3.8 25.4 10.4 23.6 16.35 20.65 21.6 18.15 26.1 14.8 29.75 12.15 32.6 9.8 34.15 6.85 36.1 3.0 37.5 L-3.45 39.45 Q-10.75 41.2 -16.6 40.85 -23.55 38.95 -28.15 34.8 -33.5 30.05 -35.45 23.0 -36.4 19.7 -36.6 15.5 -33.65 24.05 -23.8 27.15 -13.9 30.25 -5.45 25.05 2.15 20.15 7.4 12.8 12.75 5.35 14.25 -2.75 9.25 -5.2 7.95 -10.65 6.6 -16.35 10.55 -20.95" fill="#571c79" fill-rule="evenodd" stroke="none"/>
      <path d="M12.7 -25.95 Q16.55 -25.55 20.25 -23.6 24.9 -21.25 27.8 -15.15 30.6 -9.05 30.35 -2.2 30.2 4.3 28.1 11.25 26.25 17.4 23.1 23.0 20.45 27.75 16.85 31.7 13.95 34.8 11.4 36.45 7.85 38.75 3.8 39.95 L-3.05 41.45 Q-10.5 42.4 -16.6 40.85 -10.75 41.2 -3.45 39.45 L3.0 37.5 Q6.85 36.1 9.8 34.15 12.15 32.6 14.8 29.75 18.15 26.1 20.65 21.6 23.6 16.35 25.4 10.4 27.4 3.8 27.5 -2.25 27.75 -8.5 25.25 -13.95 22.75 -19.25 18.85 -21.15 15.75 -22.8 12.35 -23.2 L9.75 -23.3 7.15 -23.15 Q3.75 -22.8 0.1 -21.75 -10.8 -18.25 -20.7 -12.25 -26.4 -8.8 -30.4 -3.95 -34.6 1.2 -35.75 6.55 -36.85 11.35 -36.55 16.45 -36.3 20.0 -35.45 23.0 -33.5 30.05 -28.15 34.8 -23.55 38.95 -16.6 40.85 -24.1 40.25 -29.45 36.45 -35.85 31.8 -38.15 23.75 -40.55 14.75 -38.45 5.85 -37.2 -0.05 -32.55 -5.7 -28.2 -11.0 -22.2 -14.6 -12.0 -20.8 -0.65 -24.45 L6.85 -25.95 9.75 -26.1 12.7 -25.95" fill="#471066" fill-rule="evenodd" stroke="none"/>
      <path d="M-29.0 7.3 Q-33.15 4.7 -30.15 -0.55 -27.45 -5.3 -20.85 -9.5 -14.05 -13.8 -8.35 -14.2 -1.85 -14.6 -0.1 -9.25 1.3 -4.95 -2.85 0.45 -6.25 4.85 -10.75 7.3 -15.8 10.0 -20.05 10.0 -24.3 10.0 -28.5 7.3 L-29.0 7.3" fill="#ac57dc" fill-rule="evenodd" stroke="none"/>
      <path d="M-10.55 -11.05 Q-9.85 -9.7 -10.7 -8.1 -11.55 -6.5 -13.45 -5.6 -15.3 -4.7 -17.05 -5.0 -18.8 -5.3 -19.5 -6.6 -20.15 -7.95 -19.35 -9.55 -18.5 -11.15 -16.65 -12.05 -14.8 -13.0 -13.0 -12.7 -11.2 -12.4 -10.55 -11.05" fill="#e0c3f6" fill-rule="evenodd" stroke="none"/>
      <path d="M31.9 -39.9 L32.6 -39.75 35.55 -38.6 Q37.35 -37.7 37.25 -37.15 L36.6 -35.7 Q35.05 -33.0 31.55 -29.45 28.7 -26.35 26.1 -24.15 L25.4 -23.6 Q25.2 -23.45 25.3 -23.15 L25.5 -22.6 25.7 -21.9 Q25.8 -21.75 26.35 -21.55 L27.25 -20.9 27.65 -19.85 Q28.05 -18.35 27.55 -17.5 26.7 -16.15 25.75 -16.35 24.95 -16.5 24.05 -17.7 L22.6 -19.45 Q22.85 -16.8 22.0 -14.2 21.0 -11.25 19.0 -10.05 16.0 -8.3 13.9 -11.9 12.15 -14.9 12.2 -18.15 12.2 -19.45 12.5 -20.65 L12.65 -21.65 Q12.65 -22.2 12.1 -22.45 L11.05 -22.65 9.95 -22.8 Q8.95 -23.15 8.3 -23.65 7.35 -24.45 7.0 -25.95 6.8 -26.7 6.7 -28.6 7.25 -28.0 9.2 -27.3 11.3 -26.45 12.45 -26.35 L15.75 -26.5 Q17.85 -26.7 19.05 -26.5 L20.95 -26.05 Q21.95 -25.6 22.3 -25.6 23.4 -25.6 24.3 -26.6 25.7 -28.0 27.35 -30.8 30.65 -36.3 31.45 -39.5 L31.9 -39.9" fill="#bed44e" fill-rule="evenodd" stroke="none"/>
      <path d="M39.45 -36.9 L39.1 -35.9 Q38.15 -34.1 36.4 -31.95 L33.25 -28.35 30.55 -25.35 27.6 -22.65 Q28.65 -22.45 29.55 -20.35 L31.1 -15.7 31.9 -11.9 32.8 -8.1 Q33.25 -6.5 35.35 -6.0 34.05 -4.45 32.4 -3.9 L28.8 -4.1 Q27.3 -4.75 26.15 -6.05 24.95 -7.35 24.5 -8.9 23.35 -8.45 22.95 -6.05 22.7 -3.6 23.6 -1.9 12.7 -7.25 10.55 -14.75 9.55 -18.25 10.6 -20.95 7.1 -21.3 5.7 -25.35 4.8 -27.9 4.7 -32.5 5.9 -30.55 7.65 -29.75 L10.1 -29.4 14.1 -29.2 18.1 -28.85 20.15 -28.4 21.45 -28.2 Q22.45 -28.4 23.6 -29.45 25.45 -31.15 27.6 -35.05 L29.95 -39.65 30.75 -41.3 31.2 -41.8 31.9 -41.75 Q34.25 -41.3 37.55 -38.8 39.5 -37.35 39.45 -36.9 M36.6 -35.7 L37.25 -37.15 Q37.35 -37.7 35.55 -38.6 L32.6 -39.75 31.9 -39.9 31.45 -39.5 Q30.65 -36.3 27.35 -30.8 25.7 -28.0 24.3 -26.6 23.4 -25.6 22.3 -25.6 21.95 -25.6 20.95 -26.05 L19.05 -26.5 Q17.85 -26.7 15.75 -26.5 L12.45 -26.35 Q11.3 -26.45 9.2 -27.3 7.25 -28.0 6.7 -28.6 6.8 -26.7 7.0 -25.95 7.35 -24.45 8.3 -23.65 8.95 -23.15 9.95 -22.8 L11.05 -22.65 12.1 -22.45 Q12.65 -22.2 12.65 -21.65 L12.5 -20.65 Q12.2 -19.45 12.2 -18.15 12.15 -14.9 13.9 -11.9 16.0 -8.3 19.0 -10.05 21.0 -11.25 22.0 -14.2 22.85 -16.8 22.6 -19.45 L24.05 -17.7 Q24.95 -16.5 25.75 -16.35 26.7 -16.15 27.55 -17.5 28.05 -18.35 27.65 -19.85 L27.25 -20.9 26.35 -21.55 Q25.8 -21.75 25.7 -21.9 L25.5 -22.6 25.3 -23.15 Q25.2 -23.45 25.4 -23.6 L26.1 -24.15 Q28.7 -26.35 31.55 -29.45 35.05 -33.0 36.6 -35.7" fill="#879622" fill-rule="evenodd" stroke="none"/>
    </g>
  </defs>
</svg>
