<?xml version="1.0" encoding="UTF-8" standalone="no"?>
<svg xmlns:ffdec="https://www.free-decompiler.com/flash" xmlns:xlink="http://www.w3.org/1999/xlink" ffdec:objectType="frame" height="85.5px" width="85.45px" xmlns="http://www.w3.org/2000/svg">
  <g transform="matrix(1.0, 0.0, 0.0, 1.0, 42.75, 85.5)">
    <use ffdec:characterId="932" height="72.8" transform="matrix(1.0, 0.0, 0.0, 1.0, -42.55, -72.8)" width="85.15" xlink:href="#sprite0"/>
  </g>
  <defs>
    <g id="sprite0" transform="matrix(1.0, 0.0, 0.0, 1.0, 42.55, 36.4)">
      <use ffdec:characterId="931" height="72.8" transform="matrix(1.0, 0.0, 0.0, 1.0, -42.55, -36.4)" width="85.15" xlink:href="#shape0"/>
    </g>
    <g id="shape0" transform="matrix(1.0, 0.0, 0.0, 1.0, 42.55, 36.4)">
      <path d="M30.1 -34.95 Q32.55 -32.3 33.35 -28.1 33.8 -25.55 33.8 -20.15 33.2 -15.45 27.95 -10.4 20.7 -3.45 19.8 -2.15 17.8 1.55 16.95 6.8 16.65 8.9 16.05 16.15 L14.45 21.0 12.85 25.2 Q10.8 30.0 6.6 31.75 4.55 32.65 3.1 32.75 -2.15 34.0 -10.65 34.05 L-25.25 33.3 -33.5 31.9 -37.75 30.8 Q-40.3 29.95 -40.25 29.1 -39.95 26.35 -35.95 22.9 L-28.65 17.6 -21.25 12.85 Q-17.1 10.3 -13.8 10.0 L-9.9 9.0 Q-7.75 8.3 -6.2 7.25 -4.8 5.95 -3.75 4.2 L-2.15 1.45 2.75 -6.8 Q9.7 -18.05 13.9 -23.9 L19.45 -30.9 Q22.9 -34.7 27.0 -36.4 L30.1 -34.95 M25.2 -28.15 Q28.55 -33.55 26.5 -34.15 25.45 -34.45 20.45 -29.55 14.85 -24.0 10.1 -17.15 7.05 -12.8 0.95 -0.7 -3.75 8.65 -5.8 9.6 -7.15 10.25 -13.35 11.5 -18.0 12.45 -17.75 13.6 -17.4 15.1 -8.05 14.75 1.25 14.35 3.15 12.85 6.3 10.35 10.9 0.2 L18.05 -16.15 Q19.05 -18.3 25.2 -28.15" fill="#d23089" fill-rule="evenodd" stroke="none"/>
      <path d="M25.95 2.85 L26.7 4.55 Q27.25 6.7 27.4 9.25 27.75 14.45 27.45 24.7 L30.5 24.35 30.75 17.95 Q31.2 10.65 32.6 3.75 33.7 -1.85 35.1 -5.7 29.6 -3.2 25.95 2.85 M9.15 3.95 Q5.75 10.8 3.15 12.85 2.15 13.65 -1.7 14.2 1.35 10.8 6.6 2.45 11.7 -5.6 14.95 -9.1 11.05 0.1 9.15 3.95 M41.05 -24.95 Q43.45 -19.95 42.1 -15.1 41.45 -13.45 39.6 -10.15 38.0 -7.4 37.35 -5.1 36.0 -1.35 34.95 4.05 33.55 10.9 33.1 18.1 L32.85 26.4 32.85 27.45 32.5 29.1 Q31.75 30.35 29.8 30.7 25.35 31.15 25.0 27.6 L25.25 18.45 25.05 9.45 Q25.1 7.75 24.4 5.15 23.6 2.4 24.0 5.1 21.5 8.6 20.0 12.25 18.9 14.75 17.4 19.55 L15.0 26.2 Q13.75 29.15 11.55 31.35 9.45 33.35 7.45 33.9 L4.6 34.8 3.6 35.05 Q-1.95 36.35 -10.6 36.4 L-25.5 35.6 -34.0 34.2 Q-36.3 33.75 -38.4 33.0 L-40.7 32.05 Q-42.2 31.15 -42.55 29.6 -42.7 26.75 -40.85 24.5 L-37.4 21.1 -29.95 15.6 -22.35 10.8 Q-17.8 8.0 -14.35 7.7 -9.3 6.5 -7.65 5.4 -6.85 4.75 -5.8 3.0 L-4.15 0.25 0.75 -8.0 Q7.2 -18.4 12.55 -24.95 L18.05 -30.9 Q21.4 -34.15 24.95 -35.65 L27.0 -36.4 Q22.9 -34.7 19.45 -30.9 L13.9 -23.9 Q9.7 -18.05 2.75 -6.8 L-2.15 1.45 -3.75 4.2 Q-4.8 5.95 -6.2 7.25 -7.75 8.3 -9.9 9.0 L-13.8 10.0 Q-17.1 10.3 -21.25 12.85 L-28.65 17.6 -35.95 22.9 Q-39.95 26.35 -40.25 29.1 -40.3 29.95 -37.75 30.8 L-33.5 31.9 -25.25 33.3 -10.65 34.05 Q-2.15 34.0 3.1 32.75 4.55 32.65 6.6 31.75 10.8 30.0 12.85 25.2 L15.15 18.8 Q16.7 13.9 17.8 11.35 L19.65 7.55 Q21.7 2.6 26.4 -1.2 29.75 -3.85 36.05 -7.05 42.4 -15.95 39.5 -24.4 36.65 -32.6 27.0 -36.4 L30.15 -35.65 Q36.6 -33.35 41.05 -24.95" fill="#540e3f" fill-rule="evenodd" stroke="none"/>
      <path d="M25.95 2.85 Q29.6 -3.2 35.1 -5.7 33.7 -1.85 32.6 3.75 31.2 10.65 30.75 17.95 L30.5 24.35 27.45 24.7 Q27.75 14.45 27.4 9.25 27.25 6.7 26.7 4.55 L25.95 2.85 M20.45 -29.55 Q25.45 -34.45 26.5 -34.15 28.55 -33.55 25.2 -28.15 19.05 -18.3 18.05 -16.15 L14.95 -9.1 Q11.7 -5.6 6.6 2.45 1.35 10.8 -1.7 14.2 L-11.85 14.75 Q-17.45 14.65 -17.75 13.6 -18.0 12.45 -13.35 11.5 -7.15 10.25 -5.8 9.6 -3.75 8.65 0.95 -0.7 7.05 -12.8 10.1 -17.15 14.85 -24.0 20.45 -29.55 M33.8 -20.15 Q33.8 -25.55 33.35 -28.1 32.55 -32.3 30.1 -34.95 37.8 -30.7 39.8 -23.4 41.95 -15.45 36.05 -7.05 29.75 -3.85 26.4 -1.2 21.7 2.6 19.65 7.55 L17.8 11.35 Q16.95 13.35 16.05 16.15 16.65 8.9 16.95 6.8 17.8 1.55 19.8 -2.15 20.7 -3.45 27.95 -10.4 33.2 -15.45 33.8 -20.15" fill="#96276f" fill-rule="evenodd" stroke="none"/>
      <path d="M-16.85 25.2 Q-16.85 27.15 -18.9 28.5 -20.95 29.85 -23.85 29.85 -26.75 29.85 -28.8 28.5 -30.85 27.15 -30.85 25.2 -30.85 23.25 -28.8 21.9 -26.75 20.55 -23.85 20.55 -20.95 20.55 -18.9 21.9 -16.85 23.25 -16.85 25.2" fill="#ffddee" fill-rule="evenodd" stroke="none"/>
    </g>
  </defs>
</svg>
