<?xml version="1.0" encoding="UTF-8" standalone="no"?>
<svg xmlns:ffdec="https://www.free-decompiler.com/flash" xmlns:xlink="http://www.w3.org/1999/xlink" ffdec:objectType="frame" height="85.5px" width="85.45px" xmlns="http://www.w3.org/2000/svg">
  <g transform="matrix(1.0, 0.0, 0.0, 1.0, 42.75, 85.5)">
    <use ffdec:characterId="936" height="85.5" transform="matrix(1.0, 0.0, 0.0, 1.0, -33.45, -85.5)" width="66.9" xlink:href="#sprite0"/>
  </g>
  <defs>
    <g id="sprite0" transform="matrix(1.0, 0.0, 0.0, 1.0, 33.45, 42.75)">
      <use ffdec:characterId="935" height="85.5" transform="matrix(1.0, 0.0, 0.0, 1.0, -33.45, -42.75)" width="66.9" xlink:href="#shape0"/>
    </g>
    <g id="shape0" transform="matrix(1.0, 0.0, 0.0, 1.0, 33.45, 42.75)">
      <path d="M19.6 -4.95 Q23.15 -12.1 22.75 -16.9 22.75 -18.35 21.2 -19.75 31.95 -14.35 30.2 -7.5 27.55 2.65 27.25 10.7 26.9 20.0 29.4 28.95 33.3 42.9 7.05 38.3 -12.05 34.85 -26.85 25.2 -30.4 21.1 -31.2 18.6 -32.4 14.8 -29.2 11.65 L-25.75 8.85 -23.25 8.1 Q-14.95 7.5 -3.35 11.6 13.7 17.65 15.75 18.1 13.3 13.7 14.05 8.6 9.85 5.9 2.9 4.4 -4.4 2.8 -10.55 3.45 -4.7 1.6 3.45 3.25 8.75 4.35 14.45 6.75 15.1 4.25 19.6 -4.95 M24.65 -32.65 L23.7 -34.75 25.4 -34.1 26.85 -33.6 Q27.8 -30.05 26.15 -26.2 24.4 -22.2 20.75 -20.2 19.65 -21.1 18.2 -21.7 20.15 -22.05 21.75 -23.25 23.25 -24.4 23.7 -25.85 L24.05 -26.45 Q25.9 -29.65 24.65 -32.65" fill="#9f8c22" fill-rule="evenodd" stroke="none"/>
      <path d="M-27.65 17.05 Q-26.7 14.15 -18.35 14.6 -10.0 15.0 0.95 18.45 11.85 21.95 18.95 26.45 26.0 30.95 25.1 33.85 24.15 36.75 15.8 36.35 7.45 35.95 -3.5 32.45 -14.4 28.95 -21.5 24.45 -28.55 19.95 -27.65 17.05 M20.75 -33.4 Q19.65 -34.7 18.0 -35.7 19.8 -36.85 21.35 -36.5 22.75 -36.2 23.7 -34.75 L24.65 -32.65 Q25.55 -29.1 24.05 -26.45 L23.7 -25.85 22.55 -24.65 Q20.2 -22.9 17.2 -23.3 14.15 -23.7 12.5 -26.15 10.05 -29.1 12.05 -33.4 14.05 -37.8 18.0 -35.7 16.3 -34.45 15.35 -33.0 14.1 -31.15 14.4 -29.4 14.65 -28.25 15.9 -27.1 17.3 -25.8 18.4 -26.3 19.75 -25.85 21.05 -27.5 22.2 -29.0 22.15 -30.25 22.1 -31.8 20.75 -33.4 M28.3 -37.3 Q31.1 -33.3 30.7 -28.65 30.25 -23.65 26.1 -20.55 31.95 -16.7 33.45 -12.05 L31.4 0.8 Q29.2 14.05 30.4 20.95 L31.9 27.35 Q32.8 31.15 32.75 33.4 32.65 39.8 24.95 41.65 12.45 44.65 -2.8 39.5 -17.2 34.65 -26.85 25.2 -12.05 34.85 7.05 38.3 33.3 42.9 29.4 28.95 26.9 20.0 27.25 10.7 27.55 2.65 30.2 -7.5 31.95 -14.35 21.2 -19.75 L20.55 -20.1 20.75 -20.2 Q24.4 -22.2 26.15 -26.2 27.8 -30.05 26.85 -33.6 26.15 -36.25 24.0 -37.85 21.7 -39.6 18.0 -39.65 11.3 -39.8 9.5 -33.4 7.7 -27.25 12.2 -23.0 -2.55 -26.4 -5.2 -19.25 -7.55 -12.95 -9.65 -8.65 -12.45 -3.0 -15.7 1.1 -17.4 3.3 -20.45 5.4 L-25.75 8.85 -29.2 11.65 Q-32.4 14.8 -31.2 18.6 -30.4 21.1 -26.85 25.2 -30.8 22.15 -32.3 19.5 -35.0 14.85 -31.45 10.25 -29.8 8.15 -25.75 5.55 -21.35 2.8 -19.8 1.1 -16.4 -2.5 -13.55 -7.85 -11.5 -11.75 -9.05 -17.9 -6.9 -23.35 -3.3 -25.4 -0.1 -27.15 6.15 -27.05 4.55 -33.15 8.7 -38.2 12.85 -43.35 19.15 -42.7 24.85 -42.2 28.3 -37.3" fill="#7c520d" fill-rule="evenodd" stroke="none"/>
      <path d="M-5.3 23.6 Q-6.25 24.35 -6.25 25.45 -6.25 26.6 -5.3 27.35 -4.35 28.15 -2.95 28.15 -1.55 28.15 -0.6 27.35 0.4 26.55 0.4 25.45 0.4 24.35 -0.6 23.6 -1.55 22.8 -2.95 22.8 -4.35 22.8 -5.3 23.6 M-6.5 26.3 Q-7.8 23.15 -6.55 19.95 -2.05 19.2 2.3 20.8 6.95 22.5 8.8 26.15 7.55 29.35 4.4 30.7 1.25 32.05 -1.95 30.75 -5.15 29.5 -6.5 26.3" fill="#9f8c22" fill-rule="evenodd" stroke="none"/>
      <path d="M8.25 -23.75 Q8.25 -22.65 9.6 -18.8 10.65 -15.75 9.75 -13.9 7.35 -10.9 2.75 -8.15 L-4.25 -3.9 Q-8.55 -0.85 -8.8 3.0 L-10.55 3.45 -8.8 3.3 Q-8.8 8.0 -3.3 11.7 -12.85 8.35 -19.45 8.1 -12.95 3.85 -8.0 -6.05 -2.85 -17.9 0.1 -23.65 3.3 -24.5 8.25 -23.75" fill="#ffcc74" fill-rule="evenodd" stroke="none"/>
      <path d="M-5.3 27.35 Q-6.25 26.6 -6.25 25.45 -6.25 24.35 -5.3 23.6 -4.35 22.8 -2.95 22.8 -1.55 22.8 -0.6 23.6 0.4 24.35 0.4 25.45 0.4 26.55 -0.6 27.35 -1.55 28.15 -2.95 28.15 -4.35 28.15 -5.3 27.35 M-8.8 3.3 Q-2.85 3.0 3.8 4.6 10.2 6.15 14.05 8.6 13.3 13.7 15.75 18.1 11.8 17.2 6.15 15.2 L-3.3 11.7 Q-8.8 8.0 -8.8 3.3 M-5.2 -19.25 Q-4.0 -22.65 0.1 -23.65 -2.85 -17.9 -8.0 -6.05 -12.95 3.85 -19.45 8.1 L-23.25 8.1 -25.75 8.85 -20.45 5.4 Q-17.4 3.3 -15.7 1.1 -12.45 -3.0 -9.65 -8.65 -7.55 -12.95 -5.2 -19.25 M18.0 -39.65 Q21.7 -39.6 24.0 -37.85 26.15 -36.25 26.85 -33.6 L25.4 -34.1 23.7 -34.75 Q22.75 -36.2 21.35 -36.5 19.8 -36.85 18.0 -35.7 14.05 -37.8 12.05 -33.4 10.05 -29.1 12.5 -26.15 14.15 -23.7 17.2 -23.3 20.2 -22.9 22.55 -24.65 L23.7 -25.85 Q23.25 -24.4 21.75 -23.25 20.15 -22.05 18.2 -21.7 19.65 -21.1 20.75 -20.2 L20.55 -20.1 21.2 -19.75 Q22.75 -18.35 22.75 -16.9 23.15 -12.1 19.6 -4.95 15.1 4.25 14.45 6.75 9.3 4.55 4.3 3.45 L-8.8 3.0 Q-8.55 -0.85 -4.25 -3.9 L2.75 -8.15 Q7.35 -10.9 9.75 -13.9 10.65 -15.75 9.6 -18.8 8.25 -22.65 8.25 -23.75 L12.2 -23.0 Q10.85 -24.3 10.1 -25.9 7.85 -30.5 10.1 -35.0 12.45 -39.75 18.0 -39.65" fill="#e5a825" fill-rule="evenodd" stroke="none"/>
      <path d="M2.25 7.7 Q2.65 8.5 2.35 9.4 2.1 10.3 1.3 10.75 L-0.25 10.95 Q-1.05 10.75 -1.45 9.9 -1.85 9.1 -1.6 8.2 -1.3 7.3 -0.55 6.85 L1.05 6.6 Q1.9 6.85 2.25 7.7 M4.15 -20.75 Q5.75 -20.25 6.5 -18.7 7.25 -17.1 6.7 -15.35 6.2 -13.6 4.65 -12.7 3.15 -11.8 1.55 -12.3 -0.05 -12.8 -0.8 -14.4 -1.55 -15.95 -1.0 -17.7 -0.45 -19.45 1.05 -20.35 2.55 -21.25 4.15 -20.75" fill="#ffffff" fill-rule="evenodd" stroke="none"/>
    </g>
  </defs>
</svg>
