<?xml version="1.0" encoding="UTF-8" standalone="no"?>
<svg xmlns:ffdec="https://www.free-decompiler.com/flash" xmlns:xlink="http://www.w3.org/1999/xlink" ffdec:objectType="frame" height="370.7px" width="489.55px" xmlns="http://www.w3.org/2000/svg">
  <g transform="matrix(1.0, 0.0, 0.0, 1.0, 336.3, 169.05)">
    <use ffdec:characterId="1275" height="206.9" id="normalTestButton" transform="matrix(0.8, 0.0, 0.0, 0.8, -299.9573, -169.0588)" width="435.95" xlink:href="#sprite0"/>
    <use ffdec:characterId="1280" height="278.65" id="proTestButton" transform="matrix(0.8, 0.0, 0.0, 0.8, -117.288, -29.6087)" width="338.15" xlink:href="#sprite2"/>
    <use ffdec:characterId="1284" height="199.5" id="practiceButton" transform="matrix(0.8, 0.0, 0.0, 0.8, -336.288, 42.0512)" width="346.8" xlink:href="#sprite4"/>
  </g>
  <defs>
    <g id="sprite0" transform="matrix(1.0, 0.0, 0.0, 1.0, 217.95, 99.45)">
      <use ffdec:characterId="1274" height="188.1" id="content" transform="matrix(1.0, 0.0, 0.0, 1.0, -198.15, -86.95)" width="396.35" xlink:href="#sprite1"/>
    </g>
    <g id="sprite1" transform="matrix(1.0, 0.0, 0.0, 1.0, 198.15, 94.05)">
      <use ffdec:characterId="1272" height="188.1" transform="matrix(1.0, 0.0, 0.0, 1.0, -106.0, -94.05)" width="212.05" xlink:href="#shape0"/>
      <filter id="filter4">
        <feOffset dx="1.0804333958909026E-5" dy="0.9999999999416331" in="SourceGraphic" result="filterResult0"/>
        <feColorMatrix in="filterResult0" result="filterResult1" type="matrix" values="0 0 0 0 0.0,0 0 0 0 0.0,0 0 0 0 0.0,0 0 0 1 0"/>
        <feConvolveMatrix divisor="25.0" in="filterResult1" kernelMatrix="1 1 1 1 1 1 1 1 1 1 1 1 1 1 1 1 1 1 1 1 1 1 1 1 1" order="5 5" result="filterResult2"/>
        <feColorMatrix in="filterResult2" result="filterResult3" type="matrix" values="1 0 0 0 0,0 1 0 0 0,0 0 1 0 0,0 0 0 30.0 0"/>
        <feComposite in="SourceGraphic" in2="filterResult3" operator="over" result="filterResult4"/>
      </filter>
      <use ffdec:characterId="1273" filter="url(#filter4)" height="42.05" id="textField" transform="matrix(1.0, 0.0, 0.0, 1.0, -198.15, 43.85)" width="396.35" xlink:href="#text0"/>
    </g>
    <g id="shape0" transform="matrix(1.0, 0.0, 0.0, 1.0, 106.0, 94.05)">
      <path d="M-106.0 -94.05 L106.05 -94.05 106.05 94.05 -106.0 94.05 -106.0 -94.05" fill="#ff0000" fill-opacity="0.0" fill-rule="evenodd" stroke="none"/>
      <path d="M-85.25 -19.55 L-46.05 -73.85 -3.15 -4.45 -85.25 -19.55" fill="#c09be5" fill-rule="evenodd" stroke="none"/>
      <path d="M-51.25 57.45 L-84.45 4.95 -3.15 -4.45 -51.25 57.45" fill="#c09be5" fill-rule="evenodd" stroke="none"/>
      <path d="M13.15 75.35 L-33.85 65.55 -2.15 -8.45 13.15 75.35" fill="#c09be5" fill-rule="evenodd" stroke="none"/>
      <path d="M38.75 53.45 L-3.15 -4.45 83.25 11.85 38.75 53.45" fill="#c09be5" fill-rule="evenodd" stroke="none"/>
      <path d="M-3.15 -4.45 L50.15 -62.85 81.85 -14.35 -3.15 -4.45" fill="#c09be5" fill-rule="evenodd" stroke="none"/>
      <path d="M26.75 -76.55 L-3.15 -4.45 -21.25 -69.55 26.75 -76.55" fill="#c09be5" fill-rule="evenodd" stroke="none"/>
      <path d="M-68.25 -69.65 L-26.25 -85.55 -3.15 -4.55 -68.25 -69.65" fill="#e8ceff" fill-rule="evenodd" stroke="none"/>
      <path d="M-87.45 22.05 L-94.25 -25.55 -3.15 -4.55 -87.45 22.05" fill="#e8ceff" fill-rule="evenodd" stroke="none"/>
      <path d="M-34.35 83.45 L-69.25 54.45 -3.15 -4.55 -34.35 83.45" fill="#e8ceff" fill-rule="evenodd" stroke="none"/>
      <path d="M54.75 67.45 L14.75 82.45 -3.15 -4.55 54.75 67.45" fill="#e8ceff" fill-rule="evenodd" stroke="none"/>
      <path d="M83.75 -31.55 L89.75 28.45 -3.15 -4.55 83.75 -31.55" fill="#e8ceff" fill-rule="evenodd" stroke="none"/>
      <path d="M17.75 -91.55 L61.75 -67.55 -3.15 -4.55 17.75 -91.55" fill="#e8ceff" fill-rule="evenodd" stroke="none"/>
      <path d="M-2.25 -67.65 Q7.55 -68.35 15.85 -62.85 24.05 -57.35 25.15 -49.25 26.35 -40.25 17.35 -32.35 9.65 -25.65 0.35 -26.15 -7.85 -26.65 -14.75 -32.25 -21.35 -37.65 -23.25 -44.85 -25.25 -52.45 -20.55 -58.15 -13.25 -66.85 -2.25 -67.65" fill="#7e6812" fill-rule="evenodd" stroke="none"/>
      <path d="M-2.35 -63.55 Q4.35 -64.45 10.05 -61.35 15.65 -58.45 16.55 -53.75 17.45 -48.65 11.75 -44.15 0.15 -35.05 -11.55 -41.75 -16.25 -44.45 -17.45 -48.55 -18.85 -52.95 -15.35 -56.75 -9.95 -62.55 -2.35 -63.55" fill="#ffe56e" fill-rule="evenodd" stroke="none"/>
      <path d="M-72.45 -31.25 Q-63.65 -42.05 -50.65 -43.05 -38.95 -43.95 -29.05 -37.05 -19.25 -30.15 -17.95 -20.15 -16.45 -8.95 -27.25 0.85 -36.45 9.15 -47.55 8.45 -57.35 7.95 -65.55 0.95 -73.45 -5.85 -75.75 -14.75 -78.15 -24.25 -72.45 -31.25" fill="#265f7b" fill-rule="evenodd" stroke="none"/>
      <path d="M-66.25 -29.55 Q-59.85 -36.75 -50.75 -37.95 -42.75 -39.05 -35.95 -35.35 -29.25 -31.65 -28.25 -25.85 -27.05 -19.45 -33.95 -13.85 -40.75 -8.25 -48.85 -7.75 -55.95 -7.35 -61.75 -10.85 -67.35 -14.15 -68.85 -19.35 -70.45 -24.75 -66.25 -29.55" fill="#53b9f2" fill-rule="evenodd" stroke="none"/>
      <path d="M-54.65 6.85 Q-42.45 -8.25 -24.15 -9.65 -7.75 -10.85 6.05 -1.25 19.85 8.35 21.65 22.35 23.65 38.05 8.55 51.75 -4.25 63.35 -19.75 62.45 -33.45 61.75 -44.95 51.95 -56.05 42.45 -59.25 30.05 -62.55 16.65 -54.65 6.85" fill="#701e4f" fill-rule="evenodd" stroke="none"/>
      <path d="M-21.55 39.65 Q-31.45 40.25 -39.65 35.45 -47.45 30.75 -49.55 23.55 -51.85 15.85 -45.95 9.25 -36.95 -0.85 -24.25 -2.55 -13.05 -4.05 -3.55 1.15 5.75 6.35 7.25 14.45 8.85 23.45 -0.75 31.25 -10.35 39.05 -21.55 39.65" fill="#f3677f" fill-rule="evenodd" stroke="none"/>
      <path d="M81.55 -22.35 Q92.55 -14.65 94.05 -3.45 95.65 9.05 83.65 19.95 73.35 29.25 61.05 28.55 50.05 27.95 40.85 20.05 32.05 12.55 29.55 2.65 26.85 -8.05 33.15 -15.85 42.95 -27.85 57.55 -28.95 70.55 -29.95 81.55 -22.35" fill="#327739" fill-rule="evenodd" stroke="none"/>
      <path d="M73.95 -20.35 Q81.35 -16.25 82.55 -9.75 83.85 -2.55 76.15 3.65 68.55 9.85 59.55 10.35 51.65 10.85 45.15 6.95 38.95 3.15 37.25 -2.55 35.45 -8.65 40.15 -13.95 47.35 -22.05 57.45 -23.35 66.35 -24.55 73.95 -20.35" fill="#76df86" fill-rule="evenodd" stroke="none"/>
    </g>
    <g id="text0" transform="matrix(1.0, 0.0, 0.0, 1.0, 2.0, 2.0)">
      <g transform="matrix(1.0, 0.0, 0.0, 1.0, -2.0, -2.0)">
        <use fill="#ffffff" height="42.05" transform="matrix(0.0264, 0.0, 0.0, 0.0264, 157.5, 118.05)" width="396.35" xlink:href="#font_Baveuse_T0"/>
        <use fill="#ffffff" height="42.05" transform="matrix(0.0264, 0.0, 0.0, 0.0264, 176.85, 118.05)" width="396.35" xlink:href="#font_Baveuse_E0"/>
        <use fill="#ffffff" height="42.05" transform="matrix(0.0264, 0.0, 0.0, 0.0264, 198.75, 118.05)" width="396.35" xlink:href="#font_Baveuse_S0"/>
        <use fill="#ffffff" height="42.05" transform="matrix(0.0264, 0.0, 0.0, 0.0264, 219.5, 118.05)" width="396.35" xlink:href="#font_Baveuse_T0"/>
      </g>
    </g>
    <g id="font_Baveuse_T0">
      <path d="M661.5 -508.0 L693.5 -827.5 11.5 -803.0 45.0 -502.0 248.0 -520.5 267.5 22.5 418.0 2.0 434.0 -496.5 661.5 -508.0" fill-rule="evenodd" stroke="none"/>
    </g>
    <g id="font_Baveuse_E0">
      <path d="M230.5 -500.5 L510.0 -494.5 Q550.0 -497.5 551.0 -442.0 553.0 -387.0 499.5 -391.0 L166.0 -387.0 Q153.5 -494.5 230.5 -500.5 M531.5 -811.0 L526.5 -811.0 309.5 -801.0 Q27.5 -798.5 36.0 -539.5 L60.5 -263.5 Q57.5 6.0 350.0 -6.5 L709.5 9.0 726.0 -189.5 324.5 -171.0 Q273.5 -182.0 273.5 -271.0 L509.0 -261.0 Q786.5 -267.0 780.5 -516.0 789.5 -790.5 531.5 -811.0" fill-rule="evenodd" stroke="none"/>
    </g>
    <g id="font_Baveuse_S0">
      <path d="M738.5 -164.0 L742.5 -213.0 Q743.5 -407.0 514.0 -399.5 L278.5 -392.5 Q240.5 -388.5 240.5 -442.5 240.5 -497.0 298.0 -502.0 L726.0 -460.0 726.0 -817.0 282.5 -801.5 Q59.5 -778.0 46.0 -528.5 33.5 -282.5 290.0 -279.5 L523.5 -274.5 Q588.0 -275.5 584.0 -215.0 581.0 -154.5 536.0 -160.0 L83.5 -193.5 64.0 24.5 480.5 13.0 Q734.5 18.5 738.5 -164.0" fill-rule="evenodd" stroke="none"/>
    </g>
    <g id="sprite2" transform="matrix(1.0, 0.0, 0.0, 1.0, 166.3, 109.2)">
      <use ffdec:characterId="1279" height="253.3" id="content" transform="matrix(1.0, 0.0, 0.0, 1.0, -151.2, -98.35)" width="307.45" xlink:href="#sprite3"/>
    </g>
    <g id="sprite3" transform="matrix(1.0, 0.0, 0.0, 1.0, 151.25, 108.35)">
      <use ffdec:characterId="1276" height="190.65" transform="matrix(1.0, 0.0, 0.0, 1.0, -102.6, -108.35)" width="205.2" xlink:href="#shape1"/>
      <filter id="filter14">
        <feOffset dx="1.0804333958909026E-5" dy="0.9999999999416331" in="SourceGraphic" result="filterResult5"/>
        <feColorMatrix in="filterResult5" result="filterResult6" type="matrix" values="0 0 0 0 0.0,0 0 0 0 0.0,0 0 0 0 0.0,0 0 0 1 0"/>
        <feConvolveMatrix divisor="25.0" in="filterResult6" kernelMatrix="1 1 1 1 1 1 1 1 1 1 1 1 1 1 1 1 1 1 1 1 1 1 1 1 1" order="5 5" result="filterResult7"/>
        <feColorMatrix in="filterResult7" result="filterResult8" type="matrix" values="1 0 0 0 0,0 1 0 0 0,0 0 1 0 0,0 0 0 30.0 0"/>
        <feComposite in="SourceGraphic" in2="filterResult8" operator="over" result="filterResult9"/>
      </filter>
      <use ffdec:characterId="1277" filter="url(#filter14)" height="85.05" id="textField" transform="matrix(1.0, 0.0, 0.0, 1.0, -151.25, 59.9)" width="307.45" xlink:href="#text1"/>
      <use ffdec:characterId="1278" height="199.9" transform="matrix(1.0, 0.0, 0.0, 1.0, -108.65, -102.7)" width="212.6" xlink:href="#shape2"/>
    </g>
    <g id="shape1" transform="matrix(1.0, 0.0, 0.0, 1.0, 102.6, 108.35)">
      <path d="M31.8 -105.85 Q34.0 -106.8 36.0 -103.8 38.0 -100.8 35.5 -99.65 33.15 -98.55 31.6 -101.85 30.1 -105.2 31.8 -105.85 M26.75 -86.0 L26.75 -86.1 Q26.6 -86.85 27.45 -86.95 28.25 -87.0 28.4 -86.2 L28.35 -85.65 27.85 -85.3 Q26.9 -85.15 26.75 -86.0 M35.9 -85.2 Q35.9 -85.65 36.6 -85.85 37.4 -86.05 37.5 -85.35 37.6 -84.65 36.7 -84.7 35.85 -84.7 35.9 -85.2 M18.5 -87.95 Q17.6 -87.95 17.65 -88.45 17.7 -88.95 18.4 -89.1 19.15 -89.3 19.3 -88.6 19.4 -87.95 18.5 -87.95 M13.65 -68.15 L14.5 -68.5 17.1 -63.25 23.3 -66.65 29.25 -61.85 33.05 -65.2 33.7 -64.75 37.25 -62.35 37.15 -62.35 36.8 -62.5 33.3 -63.55 29.45 -61.0 23.15 -65.35 16.9 -62.6 14.05 -67.45 8.7 -66.2 13.65 -68.15 M66.2 -44.0 L67.0 -43.85 67.45 -43.1 66.75 -42.15 Q65.25 -40.7 63.55 -41.75 61.8 -42.9 62.85 -43.5 64.05 -44.25 66.2 -44.0 M79.2 -36.25 Q75.85 -37.0 72.25 -35.75 L71.95 -35.65 Q68.35 -34.25 65.9 -31.35 58.45 -22.9 60.95 -17.1 L59.4 -16.6 54.2 -27.05 Q57.85 -29.05 64.95 -34.6 L70.25 -38.85 72.9 -41.6 Q75.0 -40.55 79.2 -36.25 M77.0 -11.3 Q78.3 -11.55 77.8 -10.25 77.45 -9.35 75.6 -9.45 73.65 -9.55 74.3 -10.0 75.8 -11.1 77.0 -11.3 M89.45 -29.0 Q90.1 -29.85 91.5 -29.65 92.8 -29.45 92.9 -29.0 93.2 -27.3 91.0 -27.65 88.7 -27.95 89.45 -29.0 M94.2 -25.1 Q94.75 -26.55 95.65 -26.05 96.3 -25.7 95.65 -24.65 94.95 -23.6 94.1 -23.55 93.6 -23.55 94.2 -25.1" fill="#fcfcfc" fill-rule="evenodd" stroke="none"/>
      <path d="M31.8 -105.85 Q30.1 -105.2 31.6 -101.85 33.15 -98.55 35.5 -99.65 38.0 -100.8 36.0 -103.8 34.0 -106.8 31.8 -105.85 M15.8 -94.0 L10.85 -92.1 Q14.0 -99.7 20.9 -104.55 27.4 -109.15 32.3 -108.2 36.65 -107.35 40.25 -101.6 44.0 -95.55 44.6 -87.6 L44.45 -87.7 Q44.25 -90.65 43.5 -93.55 42.85 -96.1 42.1 -97.5 42.35 -93.2 41.55 -90.15 L37.55 -93.45 33.9 -90.2 28.05 -94.5 22.15 -91.2 19.6 -96.5 11.95 -92.55 16.2 -94.2 15.8 -94.0 M12.5 -67.7 L13.65 -68.15 8.7 -66.2 14.05 -67.45 16.9 -62.6 23.15 -65.35 29.45 -61.0 33.3 -63.55 36.8 -62.5 Q35.0 -56.6 30.65 -52.4 26.45 -48.3 21.25 -47.1 15.9 -45.85 11.55 -48.2 L10.75 -48.65 Q6.5 -51.3 4.35 -57.15 3.4 -48.85 9.45 -43.6 L11.3 -42.2 Q13.85 -40.5 16.6 -39.6 12.45 -40.8 9.45 -43.45 L8.85 -44.0 Q4.1 -48.55 4.05 -55.35 4.0 -60.35 6.0 -65.2 L12.5 -67.7 M33.7 -64.75 L35.6 -63.5 39.8 -60.75 Q40.3 -54.65 38.55 -48.6 36.9 -43.0 31.25 -40.35 26.45 -38.1 20.8 -38.75 24.8 -38.45 29.2 -39.75 35.65 -41.65 38.05 -47.55 39.95 -52.15 39.8 -60.75 L37.15 -62.35 37.25 -62.35 33.7 -64.75" fill="#e2eec7" fill-rule="evenodd" stroke="none"/>
      <path d="M16.2 -94.2 L11.95 -92.55 19.6 -96.5 22.15 -91.2 28.05 -94.5 33.9 -90.2 37.55 -93.45 41.55 -90.15 Q42.35 -93.2 42.1 -97.5 42.85 -96.1 43.5 -93.55 44.25 -90.65 44.45 -87.7 L44.6 -87.6 44.45 -87.7 44.45 -87.5 41.4 -89.7 40.8 -90.1 37.85 -92.1 36.65 -91.0 34.1 -88.75 28.1 -93.5 21.9 -90.1 20.0 -93.95 19.3 -95.4 16.2 -94.2 M20.8 -38.75 L19.65 -38.9 18.45 -39.1 16.6 -39.6 Q13.85 -40.5 11.3 -42.2 L9.45 -43.6 Q3.4 -48.85 4.35 -57.15 6.5 -51.3 10.75 -48.65 L11.55 -48.2 Q15.9 -45.85 21.25 -47.1 26.45 -48.3 30.65 -52.4 35.0 -56.6 36.8 -62.5 L37.15 -62.35 39.8 -60.75 Q39.95 -52.15 38.05 -47.55 35.65 -41.65 29.2 -39.75 24.8 -38.45 20.8 -38.75" fill="#b9c597" fill-rule="evenodd" stroke="none"/>
      <path d="M15.8 -94.0 L16.2 -94.2 19.3 -95.4 20.0 -93.95 Q17.45 -92.9 16.2 -90.45 13.5 -85.3 18.65 -79.55 L18.75 -79.4 Q20.05 -77.95 21.55 -77.0 L19.4 -78.0 18.75 -77.6 17.95 -76.9 Q16.7 -75.7 16.45 -74.05 16.2 -72.7 16.6 -71.55 17.65 -68.25 23.9 -66.7 28.1 -65.65 30.8 -67.3 L32.5 -68.7 Q33.1 -69.5 33.3 -70.5 L33.45 -71.5 Q33.6 -74.0 31.75 -75.9 L30.85 -75.8 32.15 -76.25 Q36.1 -77.85 38.0 -80.65 L39.05 -82.7 Q39.6 -84.45 39.25 -86.25 38.75 -89.1 36.65 -91.0 L37.85 -92.1 40.8 -90.1 Q42.05 -86.25 41.1 -82.9 L40.9 -82.2 Q39.7 -79.15 36.6 -77.5 35.0 -76.65 33.2 -76.2 L34.7 -72.5 Q37.95 -76.2 43.8 -73.45 46.3 -72.25 48.15 -70.35 50.0 -68.5 49.9 -67.35 49.7 -64.7 47.0 -65.55 41.95 -67.15 40.05 -67.1 L35.65 -66.55 35.65 -64.4 35.6 -63.5 33.7 -64.75 33.05 -65.2 29.25 -61.85 23.3 -66.65 17.1 -63.25 14.5 -68.5 13.65 -68.15 12.5 -67.7 12.55 -68.0 12.8 -68.8 13.6 -71.35 8.55 -72.95 Q6.75 -73.4 1.4 -73.05 -1.45 -72.85 -1.0 -75.45 -0.8 -76.6 1.35 -77.95 3.6 -79.4 6.3 -79.95 13.55 -81.45 15.6 -75.55 L15.6 -75.5 17.85 -78.65 18.05 -78.85 Q16.4 -80.1 15.2 -81.8 13.25 -84.6 13.7 -88.35 14.05 -91.3 15.8 -94.0 M46.4 -71.15 L43.3 -71.1 Q42.15 -69.6 44.6 -68.1 47.25 -66.5 48.35 -67.7 49.45 -68.9 46.4 -71.15 M4.15 -78.6 Q2.2 -77.85 1.65 -75.95 1.05 -74.0 3.9 -74.6 6.95 -75.2 6.8 -77.35 6.7 -79.5 4.15 -78.6" fill="#e3ad2b" fill-rule="evenodd" stroke="none"/>
      <path d="M46.4 -71.15 Q49.45 -68.9 48.35 -67.7 47.25 -66.5 44.6 -68.1 42.15 -69.6 43.3 -71.1 L46.4 -71.15 M20.0 -93.95 L21.9 -90.1 28.1 -93.5 34.1 -88.75 36.65 -91.0 Q38.75 -89.1 39.25 -86.25 39.6 -84.45 39.05 -82.7 L38.0 -80.65 Q36.1 -77.85 32.15 -76.25 L30.85 -75.8 31.75 -75.9 Q33.6 -74.0 33.45 -71.5 L33.3 -70.5 Q33.1 -69.5 32.5 -68.7 L30.8 -67.3 Q28.1 -65.65 23.9 -66.7 17.65 -68.25 16.6 -71.55 16.2 -72.7 16.45 -74.05 16.7 -75.7 17.95 -76.9 L18.75 -77.6 19.4 -78.0 21.55 -77.0 Q20.05 -77.95 18.75 -79.4 L18.65 -79.55 Q13.5 -85.3 16.2 -90.45 17.45 -92.9 20.0 -93.95 M27.85 -88.3 Q26.95 -88.5 24.6 -86.65 L23.9 -86.15 21.2 -83.8 22.9 -81.15 Q24.8 -78.5 25.7 -78.25 27.55 -78.1 31.55 -82.25 L30.5 -85.05 30.45 -85.15 Q29.1 -88.1 27.85 -88.3 M37.85 -83.05 Q38.85 -83.6 38.25 -85.05 37.5 -86.8 35.65 -86.2 34.05 -85.65 34.55 -83.95 35.0 -82.2 37.3 -82.85 L37.85 -83.05 M16.3 -87.2 Q16.8 -85.5 19.1 -86.1 20.8 -86.55 20.05 -88.35 19.3 -90.1 17.45 -89.5 15.8 -88.9 16.3 -87.2 M4.15 -78.6 Q6.7 -79.5 6.8 -77.35 6.95 -75.2 3.9 -74.6 1.05 -74.0 1.65 -75.95 2.2 -77.85 4.15 -78.6" fill="#ffcb40" fill-rule="evenodd" stroke="none"/>
      <path d="M40.9 -82.2 L70.15 -74.2 56.05 -60.55 0.95 -7.25 0.15 -6.5 0.0 -6.4 9.45 -43.45 Q12.45 -40.8 16.6 -39.6 L18.45 -39.1 19.65 -38.9 20.8 -38.75 Q26.45 -38.1 31.25 -40.35 36.9 -43.0 38.55 -48.6 40.3 -54.65 39.8 -60.75 L35.6 -63.5 35.65 -64.4 35.65 -66.55 40.05 -67.1 Q41.95 -67.15 47.0 -65.55 49.7 -64.7 49.9 -67.35 50.0 -68.5 48.15 -70.35 46.3 -72.25 43.8 -73.45 37.95 -76.2 34.7 -72.5 L33.2 -76.2 Q35.0 -76.65 36.6 -77.5 39.7 -79.15 40.9 -82.2 M89.4 -4.75 L93.8 20.4 80.55 16.65 1.45 -5.95 0.35 -6.3 0.1 -6.35 0.0 -6.4 0.1 -6.4 0.15 -6.4 27.15 -9.6 Q27.8 -7.5 29.1 -6.0 30.85 -3.95 33.35 -3.45 34.1 -3.3 34.8 -3.45 35.85 -3.65 38.1 -5.35 L40.0 -6.8 Q53.5 -2.0 55.45 -2.2 L56.3 -2.0 56.4 -2.05 56.65 -2.15 Q57.25 0.6 58.85 2.5 60.6 4.5 63.1 5.0 L64.55 5.0 Q65.7 4.8 67.95 3.1 L70.0 1.5 70.6 2.45 72.6 3.1 75.65 3.65 Q79.15 3.2 89.4 -4.75 M52.0 50.5 L62.65 62.15 11.85 82.3 10.6 72.8 9.05 61.3 Q9.65 62.25 10.65 63.0 12.75 64.55 15.3 64.15 L44.9 59.65 Q47.15 59.3 48.7 57.6 50.15 55.9 50.2 53.65 51.65 52.25 52.0 50.5 M-26.45 68.35 L-31.15 81.55 -63.55 60.1 -54.6 50.75 -0.15 -6.25 -0.1 -6.25 -0.05 -6.35 -0.3 -6.3 -0.75 -6.15 -37.1 5.3 -35.65 -16.6 -0.1 -6.4 0.0 -6.4 -0.05 -6.35 0.0 -6.35 0.0 -6.3 -0.05 -6.25 -0.1 -6.1 -0.3 -5.55 -9.15 19.45 -18.25 20.85 Q-19.75 21.05 -20.75 22.25 -21.75 23.35 -21.8 24.85 -23.25 26.4 -22.95 28.45 L-19.9 48.15 -19.65 49.1 -26.45 68.35 M-88.75 -5.25 L-93.75 -33.25 -85.3 -30.85 -48.05 -20.15 -59.1 -20.9 Q-60.0 -20.95 -60.7 -20.35 -61.35 -19.75 -61.45 -18.85 L-61.45 -18.55 -61.75 -17.6 -62.35 -7.95 -79.95 -16.25 -82.45 -16.35 Q-83.75 -15.9 -84.35 -14.65 L-88.75 -5.25 M-43.45 -80.45 L-11.8 -93.65 -8.15 -66.9 -6.0 -51.05 Q-7.45 -51.15 -8.8 -50.35 -8.8 -51.7 -9.55 -52.85 -12.3 -55.8 -18.05 -56.35 -23.15 -56.8 -27.35 -55.25 L-28.45 -54.7 -28.8 -55.9 Q-30.5 -61.95 -30.25 -66.75 L-30.05 -73.2 Q-30.1 -78.5 -31.15 -79.25 -33.7 -81.1 -43.2 -79.25 L-43.45 -80.45 M0.1 -6.3 L0.15 -6.25 0.2 -6.2 20.8 16.35 10.8 17.85 Q8.55 18.2 7.05 19.9 6.55 20.5 6.2 21.2 5.9 19.55 4.55 18.55 L3.25 17.9 0.05 -6.0 0.05 -6.2 0.05 -6.25 0.05 -6.3 0.0 -6.4 0.05 -6.35 0.1 -6.3 M-50.0 -73.3 L-53.7 -72.5 -54.3 -72.45 -50.0 -73.3 M-32.25 -66.35 L-32.1 -71.4 -32.1 -69.9 -32.25 -62.15 -32.25 -66.35 M-22.7 -55.5 L-19.4 -55.5 -20.45 -55.55 -22.7 -55.5 M-11.25 -52.4 Q-9.95 -51.0 -10.0 -49.25 -10.0 -50.45 -10.6 -51.45 L-11.25 -52.4 M-30.7 -37.1 L-30.75 -37.55 -30.7 -37.1 M-31.45 -41.4 L-31.6 -38.0 -34.05 -40.45 -34.0 -40.5 -31.45 -41.4 M-21.2 -27.6 L-17.4 -27.7 Q-10.0 -28.35 -9.45 -33.2 -6.1 -32.2 -3.75 -34.1 L0.0 -6.4 -0.05 -6.45 -0.25 -6.65 -21.2 -27.6 M-63.55 6.2 L-63.3 6.75 -63.55 6.2 M-62.65 -3.45 L-62.65 -3.4 -63.8 -3.95 -62.65 -3.45 M-4.6 -40.6 Q-4.95 -39.25 -5.4 -38.4 -6.7 -35.9 -9.2 -36.45 -8.85 -40.45 -8.85 -45.55 L-8.85 -46.65 -6.3 -46.3 -5.3 -45.65 -4.6 -40.6 M0.0 -6.35 L0.0 -6.4 0.0 -6.35" fill="#ffbe43" fill-rule="evenodd" stroke="none"/>
      <path d="M27.85 -88.3 Q29.1 -88.1 30.45 -85.15 L30.5 -85.05 31.55 -82.25 Q27.55 -78.1 25.7 -78.25 24.8 -78.5 22.9 -81.15 L21.2 -83.8 23.9 -86.15 24.6 -86.65 Q26.95 -88.5 27.85 -88.3 M29.55 -82.5 Q27.8 -84.3 26.8 -84.5 L24.55 -84.1 23.05 -83.55 24.2 -82.35 Q25.5 -81.15 26.2 -81.05 27.35 -80.85 29.55 -82.5 M26.75 -86.0 Q26.9 -85.15 27.85 -85.3 L28.35 -85.65 28.4 -86.2 Q28.25 -87.0 27.45 -86.95 26.6 -86.85 26.75 -86.1 L26.75 -86.0" fill="#f49022" fill-rule="evenodd" stroke="none"/>
      <path d="M29.55 -82.5 Q27.35 -80.85 26.2 -81.05 25.5 -81.15 24.2 -82.35 L23.05 -83.55 24.55 -84.1 26.8 -84.5 Q27.8 -84.3 29.55 -82.5" fill="#ee5c27" fill-rule="evenodd" stroke="none"/>
      <path d="M52.0 48.3 Q52.2 49.45 52.0 50.5 51.65 52.25 50.2 53.65 50.15 55.9 48.7 57.6 47.15 59.3 44.9 59.65 L15.3 64.15 Q12.75 64.55 10.65 63.0 9.65 62.25 9.05 61.3 8.35 60.2 8.15 58.85 L6.5 47.8 7.05 47.2 7.15 47.1 Q8.05 46.0 8.05 44.55 9.55 43.1 9.25 40.95 L6.2 21.25 6.2 21.2 Q6.55 20.5 7.05 19.9 8.55 18.2 10.8 17.85 L20.8 16.35 40.45 13.4 Q43.0 13.0 45.1 14.55 47.2 16.05 47.55 18.65 L52.0 48.25 52.0 48.3 M35.9 -85.2 Q35.85 -84.7 36.7 -84.7 37.6 -84.65 37.5 -85.35 37.4 -86.05 36.6 -85.85 35.9 -85.65 35.9 -85.2 M37.85 -83.05 L37.3 -82.85 Q35.0 -82.2 34.55 -83.95 34.05 -85.65 35.65 -86.2 37.5 -86.8 38.25 -85.05 38.85 -83.6 37.85 -83.05 M18.5 -87.95 Q19.4 -87.95 19.3 -88.6 19.15 -89.3 18.4 -89.1 17.7 -88.95 17.65 -88.45 17.6 -87.95 18.5 -87.95 M16.3 -87.2 Q15.8 -88.9 17.45 -89.5 19.3 -90.1 20.05 -88.35 20.8 -86.55 19.1 -86.1 16.8 -85.5 16.3 -87.2 M44.75 19.05 Q44.5 17.65 43.4 16.8 42.25 16.0 40.85 16.2 L11.25 20.65 Q9.85 20.9 9.0 22.0 8.2 23.15 8.4 24.55 L12.85 54.15 Q13.1 55.55 14.2 56.4 15.35 57.2 16.75 57.0 L46.35 52.55 Q47.75 52.35 48.6 51.2 49.45 50.05 49.2 48.65 L44.75 19.05 M28.15 22.05 Q30.95 21.7 33.4 22.8 35.25 23.65 35.6 26.2 35.95 28.7 34.75 31.65 33.7 34.2 31.5 37.1 33.85 36.95 34.95 37.1 36.85 37.4 37.8 38.65 L38.5 40.7 Q39.1 44.7 34.5 48.9 31.1 51.9 26.3 52.85 25.5 53.0 24.35 52.15 23.2 51.35 23.05 50.5 22.9 49.4 25.15 49.1 26.25 48.95 28.05 48.1 31.6 46.3 32.35 43.95 32.7 42.75 32.35 42.1 L31.75 41.65 29.15 41.25 25.2 42.85 Q24.05 42.25 23.7 39.95 23.55 38.7 23.95 38.05 26.1 37.0 27.8 34.45 29.6 31.9 29.6 29.7 29.6 28.95 29.25 28.3 28.9 27.7 28.35 27.6 L27.45 27.65 Q25.45 27.95 23.5 29.4 L20.8 31.45 Q20.3 31.75 19.8 30.2 L19.2 28.25 Q19.05 27.1 19.35 26.7 23.1 23.55 26.4 22.5 L28.15 22.05" fill="#231f20" fill-rule="evenodd" stroke="none"/>
      <path d="M56.05 -60.55 L65.4 -46.3 Q55.1 -49.35 53.35 -48.75 50.85 -47.9 43.2 -42.25 35.5 -36.55 34.0 -34.35 L33.65 -33.7 Q22.45 -25.2 22.3 -24.05 L22.35 -21.6 Q22.2 -21.0 22.3 -19.5 L22.35 -19.05 21.8 -18.6 21.1 -17.55 Q21.0 -16.9 21.35 -15.0 21.7 -12.9 22.2 -12.65 24.5 -11.35 25.55 -11.55 L26.45 -10.65 26.5 -10.65 26.85 -10.85 27.15 -9.6 0.15 -6.4 0.95 -7.25 56.05 -60.55 M80.55 16.65 L52.0 48.3 52.0 48.25 47.55 18.65 Q47.2 16.05 45.1 14.55 43.0 13.0 40.45 13.4 L20.8 16.35 0.2 -6.2 1.45 -5.95 80.55 16.65 M10.6 72.8 L-26.45 68.35 -19.65 49.1 Q-19.25 50.15 -18.25 50.9 -16.85 51.9 -15.15 51.65 L4.55 48.55 6.5 47.8 8.15 58.85 Q8.35 60.2 9.05 61.3 L10.6 72.8 M-54.6 50.75 L-64.25 33.45 -54.55 12.85 -40.15 13.75 Q-39.2 13.85 -38.5 13.2 -37.8 12.6 -37.75 11.7 L-37.75 11.4 -37.45 10.5 -37.1 5.3 -0.75 -6.15 -0.15 -6.25 -54.6 50.75 M-85.3 -30.85 L-71.1 -45.8 Q-69.75 -39.6 -66.85 -37.25 -63.8 -34.85 -57.45 -35.2 -51.6 -35.45 -44.85 -37.45 L-34.05 -40.45 -31.6 -38.0 -31.65 -37.4 Q-31.4 -31.1 -27.9 -29.3 -25.05 -27.85 -21.2 -27.6 L-0.25 -6.65 -0.1 -6.4 -35.65 -16.6 -35.65 -17.15 Q-35.6 -18.1 -36.2 -18.75 -36.8 -19.45 -37.75 -19.5 L-48.05 -20.15 -85.3 -30.85 M-8.15 -66.9 L12.8 -68.8 12.55 -68.0 12.5 -67.7 6.0 -65.2 Q4.0 -60.35 4.05 -55.35 4.1 -48.55 8.85 -44.0 L9.45 -43.45 0.0 -6.4 0.15 -6.5 0.1 -6.4 0.0 -6.4 0.1 -6.35 0.35 -6.3 0.15 -6.25 0.1 -6.3 0.1 -6.35 0.05 -6.35 0.0 -6.4 0.05 -6.3 0.0 -6.25 0.05 -6.25 0.05 -6.2 0.0 -6.25 -0.1 -6.1 -0.05 -6.25 0.0 -6.3 0.0 -6.25 0.0 -6.35 0.0 -6.4 -0.05 -6.45 0.0 -6.4 0.0 -6.35 0.0 -6.4 -3.75 -34.1 Q-2.65 -35.05 -1.75 -36.65 0.7 -41.05 -0.15 -46.05 -0.85 -48.8 -3.5 -50.25 -4.8 -50.95 -6.0 -51.05 L-8.15 -66.9 M-0.3 -5.55 L0.0 -6.25 0.05 -6.0 3.25 17.9 1.45 17.8 -9.15 19.45 -0.3 -5.55 M-56.4 13.65 L-56.0 12.75 -56.4 13.65 M-68.05 -41.8 L-68.6 -43.0 -69.1 -44.65 -68.05 -41.8 M-29.6 -32.25 Q-30.4 -33.65 -30.7 -37.1 L-30.4 -35.1 Q-30.1 -33.2 -29.6 -32.25 M-5.3 -45.65 L-4.9 -45.3 Q-4.05 -44.25 -4.2 -42.95 L-4.6 -40.6 -5.3 -45.65 M-0.1 -6.25 L-0.3 -6.3 -0.05 -6.35 -0.1 -6.25 M-54.95 12.85 L-55.35 13.75 -54.95 12.85" fill="#ef8b00" fill-rule="evenodd" stroke="none"/>
      <path d="M65.4 -46.3 L71.75 -44.35 Q73.9 -43.4 79.0 -38.35 L83.3 -33.9 Q94.8 -30.85 95.85 -30.0 97.3 -28.85 99.2 -24.75 L99.9 -23.15 99.5 -22.3 99.25 -22.2 97.75 -20.2 98.85 -22.2 98.55 -23.35 97.25 -25.55 97.15 -25.75 Q95.65 -28.35 94.65 -29.25 94.1 -29.75 88.8 -31.2 L82.75 -32.7 Q82.95 -31.0 78.15 -26.75 L74.35 -23.65 Q65.75 -16.85 60.7 -15.4 62.45 -15.15 64.75 -14.1 L65.85 -13.55 70.05 -11.15 70.1 -11.1 Q71.1 -10.45 73.15 -6.2 74.5 -3.4 75.25 -2.85 L74.4 -2.65 Q73.6 -2.5 70.45 -3.55 69.5 -3.95 69.05 -3.25 L68.85 -2.5 69.4 -0.2 69.65 0.65 66.7 0.05 Q65.85 -4.3 63.85 -6.4 62.05 -8.3 60.1 -7.8 L60.05 -7.8 59.9 -7.75 Q57.9 -7.4 56.95 -5.4 L56.85 -5.15 Q56.45 -4.2 56.4 -3.1 L56.4 -2.2 56.4 -2.05 56.3 -2.0 55.45 -2.2 Q55.1 -4.55 55.85 -6.55 56.6 -8.55 58.15 -9.35 L54.65 -8.15 47.65 -9.7 43.65 -10.7 43.55 -11.55 43.15 -17.45 43.1 -19.2 Q43.05 -25.05 43.55 -29.0 L43.55 -29.3 43.3 -29.05 Q42.3 -27.8 42.2 -19.9 L42.25 -17.65 Q42.3 -13.9 42.85 -11.5 L42.95 -10.9 41.5 -11.3 39.3 -12.0 38.9 -11.65 38.65 -11.35 38.65 -11.0 Q38.7 -9.8 39.05 -8.8 L39.25 -8.7 38.6 -8.4 Q37.6 -7.9 36.75 -8.0 L36.35 -9.6 35.95 -10.65 Q35.15 -12.35 33.85 -13.7 31.6 -16.0 29.55 -15.65 L29.4 -15.6 Q27.8 -15.3 27.05 -14.1 L27.0 -14.0 26.75 -13.45 Q26.3 -12.35 26.5 -10.65 L26.45 -10.65 25.55 -11.55 25.75 -12.9 26.6 -14.65 Q27.45 -16.25 28.8 -16.75 27.2 -17.25 26.0 -16.0 L23.75 -17.0 22.65 -17.55 22.55 -18.2 22.45 -19.45 22.35 -21.6 22.3 -24.05 Q22.45 -25.2 33.65 -33.7 L34.0 -34.35 Q35.5 -36.55 43.2 -42.25 50.85 -47.9 53.35 -48.75 55.1 -49.35 65.4 -46.3 M31.35 -27.45 L32.9 -31.95 Q23.65 -24.65 23.95 -24.15 24.4 -23.5 29.75 -22.3 L29.8 -22.35 31.35 -27.45 M36.95 -14.35 Q35.45 -16.4 33.4 -17.2 31.15 -18.0 29.8 -16.65 31.5 -16.8 33.45 -15.55 35.05 -14.5 35.9 -13.2 36.85 -11.8 37.5 -12.25 38.1 -12.75 36.95 -14.35 M32.3 -24.55 L31.5 -22.45 Q33.4 -20.85 40.5 -18.8 L40.85 -23.7 41.15 -26.4 41.35 -28.2 Q36.5 -29.5 35.25 -30.95 34.4 -29.75 32.3 -24.55 M66.25 -45.0 L62.15 -46.1 Q55.3 -47.8 54.0 -47.5 51.55 -47.0 44.25 -41.5 36.6 -35.8 36.1 -33.55 35.85 -32.5 41.35 -31.5 47.35 -30.5 52.25 -31.75 57.1 -32.95 63.75 -37.9 L68.4 -41.7 Q69.75 -43.05 69.5 -43.55 69.25 -44.05 66.25 -45.0 M60.95 -17.1 Q66.75 -19.25 73.55 -24.5 L77.5 -27.75 Q81.0 -31.1 81.5 -33.4 L79.2 -36.25 Q75.0 -40.55 72.9 -41.6 L70.25 -38.85 64.95 -34.6 Q57.85 -29.05 54.2 -27.05 L59.4 -16.6 60.95 -17.1 M55.35 -17.55 Q53.4 -22.9 51.3 -26.6 49.05 -26.45 44.5 -27.4 L44.4 -25.65 44.3 -23.1 Q44.15 -18.65 44.3 -17.8 52.2 -15.9 55.85 -16.2 L55.35 -17.55 M67.3 -5.0 Q68.0 -5.4 66.9 -7.0 65.4 -9.0 63.0 -9.85 60.55 -10.7 59.25 -9.5 60.95 -9.65 63.0 -8.35 64.7 -7.3 65.6 -6.0 66.55 -4.65 67.3 -5.0 M93.95 -16.25 L94.05 -16.4 93.95 -16.55 95.35 -18.0 Q95.9 -18.2 96.95 -19.3 L93.95 -16.25" fill="#892c34" fill-rule="evenodd" stroke="none"/>
      <path d="M31.35 -27.45 L29.8 -22.35 29.75 -22.3 Q24.4 -23.5 23.95 -24.15 23.65 -24.65 32.9 -31.95 L31.35 -27.45 M75.25 -2.85 Q74.5 -3.4 73.15 -6.2 71.1 -10.45 70.1 -11.1 L70.05 -11.15 Q72.85 -11.7 75.45 -12.6 L69.4 -18.6 78.4 -13.8 82.95 -16.25 84.4 -17.2 84.55 -17.35 Q88.65 -20.3 91.55 -24.1 L82.05 -28.25 92.6 -25.65 92.2 -25.0 Q93.6 -27.0 94.65 -29.25 95.65 -28.35 97.15 -25.75 L97.25 -25.55 96.8 -26.15 Q95.55 -27.65 94.9 -27.45 94.25 -27.25 93.15 -25.15 92.15 -23.3 91.9 -22.3 91.8 -21.85 92.3 -20.9 L93.5 -19.2 Q94.55 -17.85 95.15 -17.95 L95.35 -18.0 93.95 -16.55 92.35 -19.25 91.25 -20.55 86.2 -16.6 86.1 -16.55 Q81.15 -12.55 81.1 -12.15 81.05 -11.8 81.9 -9.7 82.65 -7.75 82.95 -7.4 L83.4 -7.6 Q79.45 -4.75 76.95 -3.5 76.05 -3.1 75.25 -2.85 M36.95 -14.35 Q38.1 -12.75 37.5 -12.25 36.85 -11.8 35.9 -13.2 35.05 -14.5 33.45 -15.55 31.5 -16.8 29.8 -16.65 31.15 -18.0 33.4 -17.2 35.45 -16.4 36.95 -14.35 M67.3 -5.0 Q66.55 -4.65 65.6 -6.0 64.7 -7.3 63.0 -8.35 60.95 -9.65 59.25 -9.5 60.55 -10.7 63.0 -9.85 65.4 -9.0 66.9 -7.0 68.0 -5.4 67.3 -5.0 M81.05 -8.55 L79.45 -10.7 Q78.45 -11.8 77.95 -11.75 L74.75 -11.1 Q72.3 -10.45 72.0 -9.9 71.7 -9.3 72.6 -7.4 73.45 -5.6 74.55 -4.3 75.45 -3.2 75.85 -3.35 76.95 -3.7 79.1 -5.0 81.35 -6.4 81.55 -7.0 81.7 -7.5 81.05 -8.55" fill="#b5414f" fill-rule="evenodd" stroke="none"/>
      <path d="M41.15 -26.4 L40.85 -23.7 40.5 -18.8 Q33.4 -20.85 31.5 -22.45 L32.3 -24.55 Q36.5 -27.0 41.15 -26.4 M55.35 -17.55 L55.85 -16.2 Q52.2 -15.9 44.3 -17.8 44.15 -18.65 44.3 -23.1 L44.4 -25.65 44.75 -25.55 Q50.65 -23.4 55.35 -17.55" fill="#6cc3e5" fill-rule="evenodd" stroke="none"/>
      <path d="M22.35 -21.6 L22.45 -19.45 22.55 -18.2 22.4 -19.15 22.35 -19.05 22.3 -19.5 Q22.2 -21.0 22.35 -21.6" fill="#c6411a" fill-rule="evenodd" stroke="none"/>
      <path d="M99.9 -23.15 L99.95 -23.45 101.15 -23.1 101.95 -21.2 Q102.75 -19.05 102.55 -18.0 102.1 -14.75 90.6 -5.7 L89.4 -4.75 Q79.15 3.2 75.65 3.65 L72.6 3.1 70.6 2.45 70.0 1.5 69.65 0.65 69.4 -0.2 68.85 -2.5 69.05 -3.25 Q69.5 -3.95 70.45 -3.55 73.6 -2.5 74.4 -2.65 L75.25 -2.85 Q76.05 -3.1 76.95 -3.5 L75.35 -2.8 75.4 -2.75 Q76.6 -1.7 78.55 -1.75 82.35 -1.9 88.95 -6.4 L89.1 -6.45 Q98.0 -12.65 101.55 -18.3 101.05 -21.25 100.35 -22.05 99.95 -22.5 99.5 -22.3 L99.9 -23.15 M22.55 -18.2 L22.65 -17.55 23.75 -17.0 26.0 -16.0 26.2 -15.95 25.75 -12.9 25.55 -11.55 Q24.5 -11.35 22.2 -12.65 21.7 -12.9 21.35 -15.0 21.0 -16.9 21.1 -17.55 L21.8 -18.6 22.35 -19.05 22.4 -19.15 22.55 -18.2 M39.25 -8.7 L39.05 -8.8 Q38.7 -9.8 38.65 -11.0 L38.65 -11.35 38.9 -11.65 39.3 -12.0 41.5 -11.3 42.95 -10.9 Q43.4 -9.05 44.15 -8.1 L43.65 -10.7 47.65 -9.7 54.65 -8.15 55.35 -8.05 Q54.35 -7.05 54.4 -5.0 52.9 -5.15 46.75 -6.65 40.75 -8.1 39.25 -8.7 M83.4 -7.6 L82.95 -7.4 Q82.65 -7.75 81.9 -9.7 81.05 -11.8 81.1 -12.15 81.15 -12.55 86.1 -16.55 L86.2 -16.6 91.25 -20.55 92.35 -19.25 93.95 -16.55 94.05 -16.4 93.95 -16.25 Q92.9 -14.65 89.15 -11.65 L88.3 -10.95 Q85.65 -8.85 83.85 -7.8 L83.4 -7.6 M87.65 -14.6 L87.7 -14.65 Q91.35 -17.6 91.4 -18.55 90.85 -18.6 87.4 -15.95 L86.95 -15.6 Q83.0 -12.55 82.65 -11.55 84.05 -11.75 87.65 -14.6 M87.85 -13.6 L87.8 -13.55 Q84.25 -10.8 83.9 -9.8 85.2 -9.95 88.05 -12.2 L88.6 -12.65 Q91.9 -15.35 91.95 -16.3 91.35 -16.35 87.85 -13.6" fill="#222227" fill-rule="evenodd" stroke="none"/>
      <path d="M29.4 -15.6 L29.55 -15.65 Q31.6 -16.0 33.85 -13.7 35.15 -12.35 35.95 -10.65 L36.35 -9.6 Q36.9 -7.05 35.7 -5.55 34.55 -4.1 32.65 -4.45 30.45 -4.9 28.95 -6.7 27.9 -7.95 27.35 -9.65 L27.0 -10.95 27.0 -11.0 27.1 -11.2 Q27.15 -15.1 29.4 -15.6 M59.9 -7.75 L60.05 -7.8 60.1 -7.8 Q62.75 -7.3 64.25 -5.5 65.5 -4.0 66.1 -1.3 66.7 1.35 65.45 2.95 64.3 4.35 62.4 4.0 60.25 3.55 58.7 1.8 57.3 0.15 56.8 -2.2 L57.2 -2.6 Q57.05 -4.7 57.85 -6.05 58.55 -7.35 59.9 -7.75 M29.2 -10.5 L29.4 -9.9 Q29.65 -9.1 30.15 -8.5 30.9 -7.6 31.95 -7.4 32.85 -7.25 33.4 -7.9 34.0 -8.65 33.7 -9.95 L33.6 -10.4 Q32.9 -12.7 30.8 -13.1 29.85 -13.3 29.4 -12.45 29.0 -11.65 29.2 -10.5 M60.55 -4.65 Q59.6 -4.85 59.15 -4.0 58.75 -3.2 58.95 -2.05 59.55 0.7 61.7 1.05 62.6 1.25 63.15 0.55 63.75 -0.2 63.45 -1.5 62.85 -4.15 60.55 -4.65" fill="#383d3d" fill-rule="evenodd" stroke="none"/>
      <path d="M26.0 -16.0 Q27.2 -17.25 28.8 -16.75 27.45 -16.25 26.6 -14.65 L25.75 -12.9 26.2 -15.95 26.0 -16.0 M26.5 -10.65 Q26.3 -12.35 26.75 -13.45 L27.0 -14.0 27.05 -14.1 Q27.8 -15.3 29.4 -15.6 27.15 -15.1 27.1 -11.2 L27.0 -11.0 26.85 -10.85 26.5 -10.65 M36.75 -8.0 Q37.6 -7.9 38.6 -8.4 L39.25 -8.7 Q40.75 -8.1 46.75 -6.65 52.9 -5.15 54.4 -5.0 54.35 -7.05 55.35 -8.05 L54.65 -8.15 58.15 -9.35 Q56.6 -8.55 55.85 -6.55 55.1 -4.55 55.45 -2.2 53.5 -2.0 40.0 -6.8 L38.4 -7.4 36.75 -8.0 M42.95 -10.9 L42.85 -11.5 Q42.3 -13.9 42.25 -17.65 L42.2 -19.9 Q42.3 -27.8 43.3 -29.05 L43.55 -29.3 43.55 -29.0 Q43.05 -25.05 43.1 -19.2 L43.15 -17.45 43.55 -11.55 43.65 -10.7 44.15 -8.1 Q43.4 -9.05 42.95 -10.9 M56.4 -2.05 L56.4 -2.2 56.4 -3.1 Q56.45 -4.2 56.85 -5.15 L56.95 -5.4 Q57.9 -7.4 59.9 -7.75 58.55 -7.35 57.85 -6.05 57.05 -4.7 57.2 -2.6 L56.8 -2.2 56.65 -2.15 56.4 -2.05" fill="#590c15" fill-rule="evenodd" stroke="none"/>
      <path d="M29.2 -10.5 Q29.0 -11.65 29.4 -12.45 29.85 -13.3 30.8 -13.1 32.9 -12.7 33.6 -10.4 L33.7 -9.95 Q34.0 -8.65 33.4 -7.9 32.85 -7.25 31.95 -7.4 30.9 -7.6 30.15 -8.5 29.65 -9.1 29.4 -9.9 L29.2 -10.5 M30.75 -11.35 Q30.55 -10.95 30.65 -10.4 L30.75 -10.05 Q31.05 -9.0 31.95 -8.85 32.4 -8.75 32.7 -9.1 33.0 -9.5 32.85 -10.1 L32.8 -10.3 Q32.4 -11.45 31.4 -11.65 30.95 -11.75 30.75 -11.35 M60.55 -4.65 Q62.85 -4.15 63.45 -1.5 63.75 -0.2 63.15 0.55 62.6 1.25 61.7 1.05 59.55 0.7 58.95 -2.05 58.75 -3.2 59.15 -4.0 59.6 -4.85 60.55 -4.65 M60.5 -2.85 Q60.3 -2.5 60.4 -1.9 60.65 -0.6 61.7 -0.4 62.2 -0.3 62.45 -0.65 62.75 -1.0 62.6 -1.65 62.25 -2.95 61.15 -3.2 60.7 -3.25 60.5 -2.85" fill="#909b92" fill-rule="evenodd" stroke="none"/>
      <path d="M36.35 -9.6 L36.75 -8.0 38.4 -7.4 40.0 -6.8 38.1 -5.35 Q35.85 -3.65 34.8 -3.45 34.1 -3.3 33.35 -3.45 30.85 -3.95 29.1 -6.0 27.8 -7.5 27.15 -9.6 L26.85 -10.85 27.0 -11.0 27.0 -10.95 27.35 -9.65 Q27.9 -7.95 28.95 -6.7 30.45 -4.9 32.65 -4.45 34.55 -4.1 35.7 -5.55 36.9 -7.05 36.35 -9.6 M60.1 -7.8 Q62.05 -8.3 63.85 -6.4 65.85 -4.3 66.7 0.05 L69.65 0.65 70.0 1.5 67.95 3.1 Q65.7 4.8 64.55 5.0 L63.1 5.0 Q60.6 4.5 58.85 2.5 57.25 0.6 56.65 -2.15 L56.8 -2.2 Q57.3 0.15 58.7 1.8 60.25 3.55 62.4 4.0 64.3 4.35 65.45 2.95 66.7 1.35 66.1 -1.3 65.5 -4.0 64.25 -5.5 62.75 -7.3 60.1 -7.8" fill="#181c1c" fill-rule="evenodd" stroke="none"/>
      <path d="M30.75 -11.35 Q30.95 -11.75 31.4 -11.65 32.4 -11.45 32.8 -10.3 L32.85 -10.1 Q33.0 -9.5 32.7 -9.1 32.4 -8.75 31.95 -8.85 31.05 -9.0 30.75 -10.05 L30.65 -10.4 Q30.55 -10.95 30.75 -11.35 M60.5 -2.85 Q60.7 -3.25 61.15 -3.2 62.25 -2.95 62.6 -1.65 62.75 -1.0 62.45 -0.65 62.2 -0.3 61.7 -0.4 60.65 -0.6 60.4 -1.9 60.3 -2.5 60.5 -2.85" fill="#555b56" fill-rule="evenodd" stroke="none"/>
      <path d="M41.15 -26.4 Q36.5 -27.0 32.3 -24.55 34.4 -29.75 35.25 -30.95 36.5 -29.5 41.35 -28.2 L41.15 -26.4 M60.95 -17.1 Q58.45 -22.9 65.9 -31.35 68.35 -34.25 71.95 -35.65 L72.25 -35.75 Q75.85 -37.0 79.2 -36.25 L81.5 -33.4 Q81.0 -31.1 77.5 -27.75 L73.55 -24.5 Q66.75 -19.25 60.95 -17.1 M44.4 -25.65 L44.5 -27.4 Q49.05 -26.45 51.3 -26.6 53.4 -22.9 55.35 -17.55 50.65 -23.4 44.75 -25.55 L44.4 -25.65" fill="#9ee7ff" fill-rule="evenodd" stroke="none"/>
      <path d="M70.05 -11.15 L65.85 -13.55 64.75 -14.1 Q62.45 -15.15 60.7 -15.4 65.75 -16.85 74.35 -23.65 L78.15 -26.75 Q82.95 -31.0 82.75 -32.7 L88.8 -31.2 Q94.1 -29.75 94.65 -29.25 93.6 -27.0 92.2 -25.0 L92.6 -25.65 82.05 -28.25 91.55 -24.1 Q88.65 -20.3 84.55 -17.35 L84.4 -17.2 82.95 -16.25 78.4 -13.8 69.4 -18.6 75.45 -12.6 Q72.85 -11.7 70.05 -11.15 M66.25 -45.0 Q69.25 -44.05 69.5 -43.55 69.75 -43.05 68.4 -41.7 L63.75 -37.9 Q57.1 -32.95 52.25 -31.75 47.35 -30.5 41.35 -31.5 35.85 -32.5 36.1 -33.55 36.6 -35.8 44.25 -41.5 51.55 -47.0 54.0 -47.5 55.3 -47.8 62.15 -46.1 L66.25 -45.0 M66.2 -44.0 Q64.05 -44.25 62.85 -43.5 61.8 -42.9 63.55 -41.75 65.25 -40.7 66.75 -42.15 L67.45 -43.1 67.0 -43.85 66.2 -44.0 M89.45 -29.0 Q88.7 -27.95 91.0 -27.65 93.2 -27.3 92.9 -29.0 92.8 -29.45 91.5 -29.65 90.1 -29.85 89.45 -29.0" fill="#cc4f62" fill-rule="evenodd" stroke="none"/>
      <path d="M97.25 -25.55 L98.55 -23.35 98.25 -23.45 Q96.15 -24.2 94.95 -22.5 L93.95 -20.9 Q93.45 -20.0 93.5 -19.2 L92.3 -20.9 Q91.8 -21.85 91.9 -22.3 92.15 -23.3 93.15 -25.15 94.25 -27.25 94.9 -27.45 95.55 -27.65 96.8 -26.15 L97.25 -25.55 M77.0 -11.3 Q75.8 -11.1 74.3 -10.0 73.65 -9.55 75.6 -9.45 77.45 -9.35 77.8 -10.25 78.3 -11.55 77.0 -11.3 M74.55 -4.3 Q73.45 -5.6 72.6 -7.4 71.7 -9.3 72.0 -9.9 72.3 -10.45 74.75 -11.1 L77.95 -11.75 Q78.45 -11.8 79.45 -10.7 L81.05 -8.55 77.25 -8.45 Q75.95 -7.7 75.2 -6.7 74.3 -5.5 74.55 -4.3 M94.2 -25.1 Q93.6 -23.55 94.1 -23.55 94.95 -23.6 95.65 -24.65 96.3 -25.7 95.65 -26.05 94.75 -26.55 94.2 -25.1" fill="#abbcbf" fill-rule="evenodd" stroke="none"/>
      <path d="M97.75 -20.2 L99.25 -22.2 99.5 -22.3 Q99.95 -22.5 100.35 -22.05 101.05 -21.25 101.55 -18.3 98.0 -12.65 89.1 -6.45 L88.95 -6.4 Q82.35 -1.9 78.55 -1.75 76.6 -1.7 75.4 -2.75 L75.35 -2.8 76.95 -3.5 Q79.45 -4.75 83.4 -7.6 L83.85 -7.8 Q85.65 -8.85 88.3 -10.95 L89.15 -11.65 Q92.9 -14.65 93.95 -16.25 L96.95 -19.3 97.2 -19.6 97.75 -20.2 M87.85 -13.6 Q91.35 -16.35 91.95 -16.3 91.9 -15.35 88.6 -12.65 L88.05 -12.2 Q85.2 -9.95 83.9 -9.8 84.25 -10.8 87.8 -13.55 L87.85 -13.6 M87.65 -14.6 Q84.05 -11.75 82.65 -11.55 83.0 -12.55 86.95 -15.6 L87.4 -15.95 Q90.85 -18.6 91.4 -18.55 91.35 -17.6 87.7 -14.65 L87.65 -14.6" fill="#595863" fill-rule="evenodd" stroke="none"/>
      <path d="M98.55 -23.35 L98.85 -22.2 97.75 -20.2 97.2 -19.6 96.95 -19.3 Q95.9 -18.2 95.35 -18.0 L95.15 -17.95 Q94.55 -17.85 93.5 -19.2 93.45 -20.0 93.95 -20.9 L94.95 -22.5 Q96.15 -24.2 98.25 -23.45 L98.55 -23.35 M74.55 -4.3 Q74.3 -5.5 75.2 -6.7 75.95 -7.7 77.25 -8.45 L81.05 -8.55 Q81.7 -7.5 81.55 -7.0 81.35 -6.4 79.1 -5.0 76.95 -3.7 75.85 -3.35 75.45 -3.2 74.55 -4.3" fill="#d0dee2" fill-rule="evenodd" stroke="none"/>
      <path d="M44.75 19.05 L49.2 48.65 Q49.45 50.05 48.6 51.2 47.75 52.35 46.35 52.55 L16.75 57.0 Q15.35 57.2 14.2 56.4 13.1 55.55 12.85 54.15 L8.4 24.55 Q8.2 23.15 9.0 22.0 9.85 20.9 11.25 20.65 L40.85 16.2 Q42.25 16.0 43.4 16.8 44.5 17.65 44.75 19.05 M28.15 22.05 L26.4 22.5 Q23.1 23.55 19.35 26.7 19.05 27.1 19.2 28.25 L19.8 30.2 Q20.3 31.75 20.8 31.45 L23.5 29.4 Q25.45 27.95 27.45 27.65 L28.35 27.6 Q28.9 27.7 29.25 28.3 29.6 28.95 29.6 29.7 29.6 31.9 27.8 34.45 26.1 37.0 23.95 38.05 23.55 38.7 23.7 39.95 24.05 42.25 25.2 42.85 L29.15 41.25 31.75 41.65 32.35 42.1 Q32.7 42.75 32.35 43.95 31.6 46.3 28.05 48.1 26.25 48.95 25.15 49.1 22.9 49.4 23.05 50.5 23.2 51.35 24.35 52.15 25.5 53.0 26.3 52.85 31.1 51.9 34.5 48.9 39.1 44.7 38.5 40.7 L37.8 38.65 Q36.85 37.4 34.95 37.1 33.85 36.95 31.5 37.1 33.7 34.2 34.75 31.65 35.95 28.7 35.6 26.2 35.25 23.65 33.4 22.8 30.95 21.7 28.15 22.05 M3.45 20.05 L3.55 20.15 Q4.2 20.65 4.35 21.55 L7.4 41.25 Q7.55 42.2 7.0 42.95 L6.2 43.65 5.9 43.75 5.7 43.8 5.5 43.85 -14.2 46.9 Q-15.15 47.05 -15.9 46.5 -16.65 45.95 -16.8 45.0 L-19.85 25.3 Q-20.0 24.35 -19.45 23.6 -18.9 22.85 -17.95 22.7 L1.75 19.65 Q2.65 19.5 3.45 20.05 M4.25 30.05 Q4.05 28.75 1.3 29.25 L-3.35 30.15 -4.1 22.8 -5.3 22.9 -6.55 22.95 Q-7.85 23.15 -8.5 24.1 L-8.45 31.4 -15.65 33.35 -16.45 34.4 -16.4 35.6 -15.15 36.2 -15.1 36.2 -8.25 35.35 -7.9 38.25 -7.0 42.8 -6.45 43.1 -4.65 43.3 Q-3.6 43.15 -2.5 42.4 L-3.0 34.5 3.85 33.0 4.1 31.5 4.25 30.05 M-56.4 13.65 L-68.05 38.35 Q-68.45 39.2 -69.35 39.55 L-71.15 39.45 -99.85 25.95 Q-100.7 25.55 -101.0 24.65 -101.35 23.75 -100.95 22.9 L-83.45 -14.25 Q-83.05 -15.1 -82.15 -15.45 L-80.4 -15.35 -51.7 -1.85 Q-50.85 -1.45 -50.5 -0.5 -50.2 0.4 -50.6 1.25 L-51.8 3.85 -52.25 4.75 -54.15 8.8 -54.1 8.8 -55.1 10.9 -55.15 10.9 -55.2 11.05 -55.45 11.55 -56.0 12.75 -56.4 13.65 M-62.45 -3.35 L-62.65 -3.45 -63.8 -3.95 -80.9 -12.0 -97.6 23.45 -97.2 23.6 -70.6 36.15 -53.9 0.7 -61.8 -3.0 -61.8 -3.05 -62.45 -3.35 M-59.35 -6.55 L-61.5 -7.55 -60.8 -18.8 Q-60.75 -19.45 -60.25 -19.85 -59.8 -20.3 -59.15 -20.25 L-37.8 -18.85 Q-37.15 -18.8 -36.7 -18.3 -36.25 -17.85 -36.35 -17.2 L-38.15 10.45 Q-38.2 11.1 -38.65 11.5 -39.15 11.95 -39.8 11.9 L-53.7 11.0 -52.7 8.9 -40.25 9.65 -38.55 -16.7 -58.65 -18.0 -59.35 -6.55 M-53.05 8.85 L-54.05 11.0 -54.1 11.0 -53.1 8.85 -53.05 8.85" fill="#ffffff" fill-rule="evenodd" stroke="none"/>
      <path d="M-9.15 19.45 L1.45 17.8 3.25 17.9 4.55 18.55 Q5.9 19.55 6.2 21.2 L6.2 21.25 9.25 40.95 Q9.55 43.1 8.05 44.55 8.05 46.0 7.15 47.1 L7.05 47.2 6.5 47.8 4.55 48.55 -15.15 51.65 Q-16.85 51.9 -18.25 50.9 -19.25 50.15 -19.65 49.1 L-19.9 48.15 -22.95 28.45 Q-23.25 26.4 -21.8 24.85 -21.75 23.35 -20.75 22.25 -19.75 21.05 -18.25 20.85 L-9.15 19.45 M3.45 20.05 Q2.65 19.5 1.75 19.65 L-17.95 22.7 Q-18.9 22.85 -19.45 23.6 -20.0 24.35 -19.85 25.3 L-16.8 45.0 Q-16.65 45.95 -15.9 46.5 -15.15 47.05 -14.2 46.9 L5.5 43.85 5.7 43.8 5.9 43.75 6.2 43.65 7.0 42.95 Q7.55 42.2 7.4 41.25 L4.35 21.55 Q4.2 20.65 3.55 20.15 L3.45 20.05 M4.25 30.05 L4.1 31.5 3.85 33.0 -3.0 34.5 -2.5 42.4 Q-3.6 43.15 -4.65 43.3 L-6.45 43.1 -7.0 42.8 -7.9 38.25 -8.25 35.35 -15.1 36.2 -15.15 36.2 -16.4 35.6 -16.45 34.4 -15.65 33.35 -8.45 31.4 -8.5 24.1 Q-7.85 23.15 -6.55 22.95 L-5.3 22.9 -4.1 22.8 -3.35 30.15 1.3 29.25 Q4.05 28.75 4.25 30.05" fill="#ec1c24" fill-rule="evenodd" stroke="none"/>
      <path d="M-102.15 23.95 L-101.85 22.45 -88.75 -5.25 -84.35 -14.65 Q-83.75 -15.9 -82.45 -16.35 L-79.95 -16.25 -62.35 -7.95 -62.15 -7.85 -61.45 -18.55 -61.45 -18.85 Q-61.35 -19.75 -60.7 -20.35 -60.0 -20.95 -59.1 -20.9 L-48.05 -20.15 -37.75 -19.5 Q-36.8 -19.45 -36.2 -18.75 -35.6 -18.1 -35.65 -17.15 L-35.65 -16.6 -37.1 5.3 -37.45 10.5 -37.75 11.4 Q-38.4 12.65 -39.8 12.55 L-54.0 11.65 -53.7 11.0 -39.8 11.9 Q-39.15 11.95 -38.65 11.5 -38.2 11.1 -38.15 10.45 L-36.35 -17.2 Q-36.25 -17.85 -36.7 -18.3 -37.15 -18.8 -37.8 -18.85 L-59.15 -20.25 Q-59.8 -20.3 -60.25 -19.85 -60.75 -19.45 -60.8 -18.8 L-61.5 -7.55 -59.35 -6.55 -55.3 -4.6 -51.25 -2.7 Q-50.0 -2.15 -49.55 -0.85 -49.1 0.4 -49.7 1.65 L-51.3 5.05 -53.1 8.85 -54.1 11.0 -54.05 11.0 -54.35 11.6 -54.4 11.6 -54.95 12.85 -55.35 13.75 -67.2 38.8 Q-67.75 40.05 -69.05 40.5 L-71.55 40.35 -100.25 26.85 Q-102.05 26.0 -102.15 23.95 M-51.8 3.85 L-50.6 1.25 Q-50.2 0.4 -50.5 -0.5 -50.85 -1.45 -51.7 -1.85 L-80.4 -15.35 -82.15 -15.45 Q-83.05 -15.1 -83.45 -14.25 L-100.95 22.9 Q-101.35 23.75 -101.0 24.65 -100.7 25.55 -99.85 25.95 L-71.15 39.45 -69.35 39.55 Q-68.45 39.2 -68.05 38.35 L-56.4 13.65 -56.0 12.75 -55.4 11.55 -55.45 11.55 -55.2 11.05 -55.15 10.9 -55.1 10.9 -54.1 8.8 -52.2 4.75 -51.8 3.85 M-62.45 -3.3 L-62.45 -3.35 -61.8 -3.05 -61.8 -3.0 -62.45 -3.3" fill="#333333" fill-rule="evenodd" stroke="none"/>
      <path d="M-50.0 -73.3 L-48.75 -73.6 -47.35 -67.35 -41.2 -68.8 Q-41.8 -70.05 -42.7 -74.15 L-42.7 -75.1 -35.55 -77.05 -32.75 -77.55 -32.5 -76.3 -32.1 -72.0 -32.1 -71.4 -32.25 -66.35 Q-45.4 -60.7 -52.1 -58.85 L-52.35 -58.75 Q-56.3 -57.7 -59.95 -57.6 -66.85 -57.45 -72.65 -60.7 L-73.35 -62.95 -73.5 -63.4 -73.95 -64.85 Q-75.2 -68.25 -76.55 -70.85 -72.2 -70.35 -66.7 -70.75 L-66.6 -67.7 -66.6 -67.35 -66.65 -65.15 -66.65 -65.05 Q-66.6 -64.25 -66.2 -63.85 L-66.3 -63.8 -66.15 -63.75 -65.1 -63.15 -61.1 -63.35 Q-60.05 -64.75 -60.7 -67.1 -61.45 -70.0 -61.1 -71.3 -57.85 -71.7 -54.3 -72.45 L-53.7 -72.5 -50.0 -73.3 M-30.95 -54.75 L-30.8 -54.35 -30.6 -53.65 -30.55 -53.45 -27.8 -45.05 Q-29.0 -44.4 -30.2 -43.8 L-30.95 -43.5 -31.35 -43.35 -35.5 -42.0 -35.55 -41.95 -43.35 -39.9 Q-52.0 -37.15 -59.85 -37.15 L-60.0 -37.15 -64.55 -38.15 Q-66.8 -39.35 -68.05 -41.8 L-69.1 -44.65 -69.8 -47.65 -70.0 -48.7 -70.15 -49.7 -68.55 -48.5 Q-61.55 -44.05 -51.05 -47.25 -48.65 -48.0 -43.65 -50.05 L-41.0 -51.15 Q-34.5 -53.8 -30.95 -54.75 M-66.5 -67.4 L-66.6 -67.7 -65.95 -70.8 -65.05 -74.05 Q-63.7 -77.95 -61.85 -80.65 -60.45 -82.65 -58.8 -83.9 -55.7 -86.35 -51.45 -86.5 -47.9 -86.65 -46.2 -84.4 -45.15 -82.95 -44.6 -79.95 L-44.45 -79.0 -43.9 -74.75 -43.75 -73.85 -47.05 -72.9 -47.05 -74.0 -47.1 -78.4 -47.15 -78.9 Q-47.65 -82.5 -50.2 -83.55 -52.65 -84.6 -55.65 -82.75 -57.45 -81.75 -58.8 -80.15 L-59.3 -79.5 Q-61.1 -77.05 -61.95 -74.7 L-62.55 -72.45 -62.8 -71.1 -62.85 -69.5 -62.85 -69.05 -62.85 -68.7 Q-64.05 -68.1 -66.5 -67.4" fill="#ffdf34" fill-rule="evenodd" stroke="none"/>
      <path d="M-71.1 -45.8 L-71.15 -45.9 -73.85 -57.8 Q-75.6 -64.6 -77.95 -69.3 L-78.5 -70.45 Q-78.95 -71.35 -79.1 -71.15 -77.7 -73.65 -69.6 -73.45 L-68.8 -73.55 -69.45 -74.65 -69.95 -75.85 Q-70.4 -77.05 -70.2 -78.55 -69.65 -81.35 -66.7 -82.95 -64.8 -84.05 -62.5 -84.25 L-60.2 -84.15 Q-57.1 -86.6 -53.8 -87.45 -49.95 -88.5 -47.25 -86.9 -45.85 -86.05 -44.7 -83.8 -44.0 -82.3 -43.45 -80.45 L-43.2 -79.25 Q-33.7 -81.1 -31.15 -79.25 -30.1 -78.5 -30.05 -73.2 L-30.25 -66.75 Q-30.5 -61.95 -28.8 -55.9 L-28.45 -54.7 -28.2 -53.9 -27.95 -52.95 -27.1 -49.95 -25.9 -45.55 Q-25.15 -43.85 -30.95 -41.6 L-31.45 -41.4 -34.0 -40.5 -34.05 -40.45 -44.85 -37.45 Q-51.6 -35.45 -57.45 -35.2 -63.8 -34.85 -66.85 -37.25 -69.75 -39.6 -71.1 -45.8 M-32.1 -71.4 L-32.1 -72.0 -32.5 -76.3 -32.75 -77.55 -35.55 -77.05 -42.7 -75.1 -42.7 -74.15 Q-41.8 -70.05 -41.2 -68.8 L-47.35 -67.35 -48.75 -73.6 -50.0 -73.3 -54.3 -72.45 Q-57.85 -71.7 -61.1 -71.3 -61.45 -70.0 -60.7 -67.1 -60.05 -64.75 -61.1 -63.35 L-65.1 -63.15 -66.15 -63.75 -66.3 -63.8 -66.2 -63.85 Q-66.6 -64.25 -66.65 -65.05 L-66.65 -65.15 -66.6 -67.35 -66.6 -67.7 -66.7 -70.75 Q-72.2 -70.35 -76.55 -70.85 -75.2 -68.25 -73.95 -64.85 L-73.5 -63.4 -73.35 -62.95 Q-72.4 -59.9 -71.15 -54.75 L-70.35 -50.7 -70.15 -49.7 -70.0 -48.7 -69.8 -47.65 -69.1 -44.65 -68.6 -43.0 -68.05 -41.8 Q-66.8 -39.35 -64.55 -38.15 L-60.0 -37.15 -59.85 -37.15 Q-52.0 -37.15 -43.35 -39.9 L-35.55 -41.95 -35.5 -42.0 -31.35 -43.35 -30.95 -43.5 -30.2 -43.8 Q-29.0 -44.4 -27.8 -45.05 L-30.55 -53.45 -30.6 -53.65 -30.8 -54.35 -30.95 -54.75 Q-32.15 -58.95 -32.25 -62.15 L-32.1 -69.9 -32.1 -71.4 M-50.9 -81.75 L-53.7 -81.65 Q-51.55 -80.35 -49.2 -78.1 -49.65 -80.9 -50.9 -81.75 M-43.75 -73.85 L-43.9 -74.75 -44.45 -79.0 -44.6 -79.95 Q-45.15 -82.95 -46.2 -84.4 -47.9 -86.65 -51.45 -86.5 -55.7 -86.35 -58.8 -83.9 -60.45 -82.65 -61.85 -80.65 -63.7 -77.95 -65.05 -74.05 L-65.95 -70.8 -66.6 -67.7 -66.5 -67.4 -66.0 -65.95 Q-65.55 -64.55 -65.7 -64.05 L-62.05 -64.7 Q-62.7 -66.6 -62.85 -68.7 L-62.85 -69.05 -62.85 -69.5 -62.8 -71.1 -62.55 -72.45 -61.95 -74.7 Q-61.1 -77.05 -59.3 -79.5 L-58.8 -80.15 Q-57.45 -81.75 -55.65 -82.75 -52.65 -84.6 -50.2 -83.55 -47.65 -82.5 -47.15 -78.9 L-47.1 -78.4 -47.05 -74.0 -47.05 -72.9 -47.05 -72.75 Q-47.0 -72.0 -46.0 -69.45 L-42.85 -70.45 -42.95 -70.7 -43.4 -72.05 -43.75 -73.85 M-66.15 -76.15 L-66.0 -75.85 Q-65.3 -78.3 -63.9 -80.25 L-64.85 -79.8 Q-66.45 -78.8 -66.6 -77.9 -66.75 -77.3 -66.15 -76.15 M-53.4 -76.95 L-56.05 -78.85 -56.7 -79.2 Q-58.4 -77.35 -59.45 -75.3 L-53.4 -76.95" fill="#957d23" fill-rule="evenodd" stroke="none"/>
      <path d="M-72.65 -60.7 Q-66.85 -57.45 -59.95 -57.6 -56.3 -57.7 -52.35 -58.75 L-52.1 -58.85 Q-45.4 -60.7 -32.25 -66.35 L-32.25 -62.15 Q-32.15 -58.95 -30.95 -54.75 -34.5 -53.8 -41.0 -51.15 L-43.65 -50.05 Q-48.65 -48.0 -51.05 -47.25 -61.55 -44.05 -68.55 -48.5 L-70.15 -49.7 -70.35 -50.7 -71.15 -54.75 -72.65 -60.7 M-66.5 -67.4 Q-64.05 -68.1 -62.85 -68.7 -62.7 -66.6 -62.05 -64.7 L-65.7 -64.05 Q-65.55 -64.55 -66.0 -65.95 L-66.5 -67.4 M-47.05 -72.9 L-43.75 -73.85 -43.4 -72.05 -42.95 -70.7 -42.85 -70.45 -46.0 -69.45 Q-47.0 -72.0 -47.05 -72.75 L-47.05 -72.9" fill="#ffb238" fill-rule="evenodd" stroke="none"/>
      <path d="M-28.45 -54.7 L-27.35 -55.25 Q-23.15 -56.8 -18.05 -56.35 -12.3 -55.8 -9.55 -52.85 -8.8 -51.7 -8.8 -50.35 -7.45 -51.15 -6.0 -51.05 -4.8 -50.95 -3.5 -50.25 -0.85 -48.8 -0.15 -46.05 0.7 -41.05 -1.75 -36.65 -2.65 -35.05 -3.75 -34.1 -6.1 -32.2 -9.45 -33.2 -10.0 -28.35 -17.4 -27.7 L-21.2 -27.6 Q-25.05 -27.85 -27.9 -29.3 -31.4 -31.1 -31.65 -37.4 L-31.6 -38.0 -31.45 -41.4 -30.95 -41.6 -30.95 -41.4 -30.9 -40.35 -30.75 -37.55 -30.7 -37.1 Q-30.4 -33.65 -29.6 -32.25 L-29.25 -31.8 Q-27.15 -29.35 -22.4 -28.8 L-18.85 -28.65 Q-10.95 -28.75 -9.6 -33.25 -10.8 -33.7 -11.25 -34.3 -11.8 -35.0 -11.65 -36.35 L-10.8 -37.0 -9.65 -36.55 Q-10.0 -41.05 -10.0 -46.25 L-10.8 -45.5 Q-10.35 -45.3 -11.35 -45.65 L-10.75 -48.0 -10.0 -49.25 Q-9.95 -51.0 -11.25 -52.4 -13.1 -54.5 -17.05 -55.2 L-19.4 -55.5 -22.7 -55.5 Q-26.35 -55.3 -28.2 -53.9 L-28.45 -54.7 M-2.75 -48.25 Q-3.1 -48.6 -4.0 -49.2 L-5.85 -49.75 -7.65 -49.85 Q-9.55 -49.55 -10.75 -48.0 L-10.75 -46.65 Q-9.9 -47.6 -8.45 -47.8 -7.1 -47.95 -5.8 -47.35 L-5.5 -47.25 -4.05 -46.05 Q-2.9 -44.65 -3.05 -42.85 L-3.75 -39.2 -4.25 -38.0 Q-4.95 -36.7 -6.05 -35.85 L-8.2 -35.65 Q-10.6 -35.4 -10.4 -35.05 L-10.3 -34.8 Q-8.7 -32.4 -5.6 -34.6 L-4.75 -35.25 -4.05 -35.9 -4.0 -35.95 Q-2.65 -37.3 -2.2 -38.85 -0.9 -43.5 -1.3 -45.8 L-2.6 -48.1 -2.75 -48.25 M-5.3 -45.65 L-6.3 -46.3 -8.85 -46.65 -8.85 -45.55 Q-8.85 -40.45 -9.2 -36.45 -6.7 -35.9 -5.4 -38.4 -4.95 -39.25 -4.6 -40.6 L-4.2 -42.95 Q-4.05 -44.25 -4.9 -45.3 L-5.3 -45.65" fill="#1b597b" fill-rule="evenodd" stroke="none"/>
      <path d="M-28.2 -53.9 Q-26.35 -55.3 -22.7 -55.5 L-20.45 -55.55 -19.4 -55.5 -17.05 -55.2 Q-13.1 -54.5 -11.25 -52.4 L-10.6 -51.45 -10.75 -50.85 Q-11.5 -49.85 -13.75 -49.1 -15.75 -48.4 -15.95 -47.85 -17.2 -45.85 -16.55 -40.9 -15.9 -36.0 -17.45 -33.7 -19.55 -30.3 -23.9 -31.1 L-24.9 -31.3 Q-28.25 -32.25 -30.4 -35.1 L-30.7 -37.1 -30.75 -37.55 -30.9 -40.35 -30.95 -41.4 -30.95 -41.6 Q-25.15 -43.85 -25.9 -45.55 L-27.1 -49.95 -26.2 -49.6 Q-23.75 -48.7 -20.25 -48.7 L-19.25 -48.75 Q-16.1 -48.85 -13.9 -49.7 -11.75 -50.6 -11.75 -51.75 -11.75 -53.0 -14.25 -53.85 -16.75 -54.75 -20.25 -54.75 L-23.05 -54.6 Q-25.55 -54.3 -27.1 -53.5 L-27.95 -52.95 -28.2 -53.9 M-10.75 -48.0 Q-9.55 -49.55 -7.65 -49.85 L-5.85 -49.75 -4.0 -49.2 Q-3.1 -48.6 -2.75 -48.25 L-2.9 -47.5 -4.4 -47.5 Q-2.35 -46.0 -2.3 -42.95 -2.2 -40.6 -3.25 -37.8 L-4.05 -36.5 Q-4.95 -35.5 -6.3 -35.0 L-10.25 -34.8 -10.3 -34.8 -10.4 -35.05 Q-10.6 -35.4 -8.2 -35.65 L-6.05 -35.85 Q-4.95 -36.7 -4.25 -38.0 L-3.75 -39.2 -3.05 -42.85 Q-2.9 -44.65 -4.05 -46.05 L-5.5 -47.25 -5.8 -47.35 Q-7.1 -47.95 -8.45 -47.8 -9.9 -47.6 -10.75 -46.65 L-10.75 -48.0" fill="#5ca7ff" fill-rule="evenodd" stroke="none"/>
      <path d="M-19.25 -48.75 L-20.25 -48.7 Q-23.75 -48.7 -26.2 -49.6 L-27.1 -49.95 -27.95 -52.95 -27.1 -53.5 Q-25.55 -54.3 -23.05 -54.6 -23.5 -53.85 -23.35 -52.9 -23.25 -52.0 -22.65 -51.25 -21.1 -49.7 -19.25 -48.75" fill="#d4d1b8" fill-rule="evenodd" stroke="none"/>
      <path d="M-23.05 -54.6 L-20.25 -54.75 Q-16.75 -54.75 -14.25 -53.85 -11.75 -53.0 -11.75 -51.75 -11.75 -50.6 -13.9 -49.7 -16.1 -48.85 -19.25 -48.75 -21.1 -49.7 -22.65 -51.25 -23.25 -52.0 -23.35 -52.9 -23.5 -53.85 -23.05 -54.6" fill="#efeddc" fill-rule="evenodd" stroke="none"/>
      <path d="M-10.0 -49.25 L-10.75 -48.0 -11.35 -45.65 Q-10.35 -45.3 -10.8 -45.5 L-10.0 -46.25 Q-10.0 -41.05 -9.65 -36.55 L-10.8 -37.0 -11.65 -36.35 Q-11.8 -35.0 -11.25 -34.3 -10.8 -33.7 -9.6 -33.25 -10.95 -28.75 -18.85 -28.65 L-22.4 -28.8 Q-27.15 -29.35 -29.25 -31.8 L-29.6 -32.25 Q-30.1 -33.2 -30.4 -35.1 -28.25 -32.25 -24.9 -31.3 L-23.9 -31.1 Q-19.55 -30.3 -17.45 -33.7 -15.9 -36.0 -16.55 -40.9 -17.2 -45.85 -15.95 -47.85 -15.75 -48.4 -13.75 -49.1 -11.5 -49.85 -10.75 -50.85 L-10.6 -51.45 Q-10.0 -50.45 -10.0 -49.25 M-2.75 -48.25 L-2.6 -48.1 -1.3 -45.8 Q-0.9 -43.5 -2.2 -38.85 -2.65 -37.3 -4.0 -35.95 L-4.05 -35.9 -4.75 -35.25 -5.6 -34.6 Q-8.7 -32.4 -10.3 -34.8 L-10.25 -34.8 -6.3 -35.0 Q-4.95 -35.5 -4.05 -36.5 L-3.25 -37.8 Q-2.2 -40.6 -2.3 -42.95 -2.35 -46.0 -4.4 -47.5 L-2.9 -47.5 -2.75 -48.25" fill="#498ec7" fill-rule="evenodd" stroke="none"/>
      <path d="M-64.25 33.45 L-67.65 40.6 Q-68.2 41.85 -69.5 42.3 L-72.0 42.15 -100.7 28.65 Q-101.95 28.1 -102.4 26.8 -102.85 25.5 -102.3 24.25 L-102.15 23.95 Q-102.05 26.0 -100.25 26.85 L-71.55 40.35 -69.05 40.5 Q-67.75 40.05 -67.2 38.8 L-55.35 13.75 -54.95 12.85 -54.4 11.6 -54.35 11.6 -54.05 11.0 -53.05 8.85 -51.25 5.05 -49.85 2.0 Q-49.75 2.75 -50.15 3.45 L-50.9 5.1 -52.7 8.9 -53.7 11.0 -54.0 11.65 -39.8 12.55 Q-38.4 12.65 -37.75 11.4 L-37.75 11.7 Q-37.8 12.6 -38.5 13.2 -39.2 13.85 -40.15 13.75 L-54.55 12.85 -64.25 33.45 M-56.0 12.75 L-55.45 11.55 -55.4 11.55 -56.0 12.75 M-61.45 -18.55 L-62.15 -7.85 -62.35 -7.95 -61.75 -17.6 -61.45 -18.55 M-63.3 6.75 L-63.2 7.05 -63.3 6.75 M-62.65 -3.4 L-62.65 -3.45 -62.45 -3.35 -62.45 -3.3 -62.65 -3.4" fill="#000000" fill-rule="evenodd" stroke="none"/>
      <path d="M-63.55 6.2 L-67.5 2.3 Q-68.45 2.25 -69.45 2.9 -71.95 4.5 -74.65 9.75 -71.85 3.15 -72.95 0.3 -73.9 -2.0 -77.45 -1.45 L-80.35 -0.65 -83.05 0.55 Q-86.15 2.4 -85.4 4.8 -84.4 7.75 -78.1 10.95 -83.3 8.7 -86.25 9.0 L-86.5 9.0 Q-91.0 9.6 -88.45 16.65 -85.95 23.7 -82.05 21.25 -80.8 20.45 -79.45 18.7 -78.2 17.0 -76.85 14.4 L-78.25 18.3 Q-79.05 21.0 -78.8 22.8 -78.25 27.3 -71.2 24.8 L-69.5 24.1 Q-64.45 21.75 -66.6 18.4 -67.45 17.0 -69.45 15.55 L-73.4 13.15 Q-70.1 14.6 -67.75 15.0 L-65.05 15.1 Q-63.0 14.85 -62.35 13.3 L-62.15 12.3 -62.15 10.9 -62.3 10.1 -62.35 9.8 Q-62.65 9.35 -62.6 8.9 L-63.05 7.5 -63.15 7.25 -63.2 7.05 -63.3 6.75 -63.55 6.2 M-62.65 -3.4 L-62.45 -3.3 -61.8 -3.0 -53.9 0.7 -70.6 36.15 -97.2 23.6 -97.6 23.45 -80.9 -12.0 -63.8 -3.95 -62.65 -3.4" fill="#bfd241" fill-rule="evenodd" stroke="none"/>
      <path d="M-63.2 7.05 L-63.15 7.25 -63.05 7.5 -62.6 8.9 Q-62.65 9.35 -62.35 9.8 L-62.3 10.1 -62.15 10.9 -62.15 12.3 -62.35 13.3 Q-63.0 14.85 -65.05 15.1 L-67.75 15.0 Q-70.1 14.6 -73.4 13.15 L-69.45 15.55 Q-67.45 17.0 -66.6 18.4 -64.45 21.75 -69.5 24.1 L-71.2 24.8 Q-78.25 27.3 -78.8 22.8 -79.05 21.0 -78.25 18.3 L-76.85 14.4 Q-78.2 17.0 -79.45 18.7 -80.8 20.45 -82.05 21.25 -85.95 23.7 -88.45 16.65 -91.0 9.6 -86.5 9.0 L-86.25 9.0 Q-83.3 8.7 -78.1 10.95 -84.4 7.75 -85.4 4.8 -86.15 2.4 -83.05 0.55 L-80.35 -0.65 -77.45 -1.45 Q-73.9 -2.0 -72.95 0.3 -71.85 3.15 -74.65 9.75 -71.95 4.5 -69.45 2.9 -68.45 2.25 -67.5 2.3 L-63.55 6.2 -63.3 6.75 -63.2 7.05" fill="#22b473" fill-rule="evenodd" stroke="none"/>
      <path d="M-52.25 4.75 L-51.8 3.85 -52.2 4.75 -52.25 4.75 M-51.3 5.05 L-49.7 1.65 Q-49.1 0.4 -49.55 -0.85 -50.0 -2.15 -51.25 -2.7 L-55.3 -4.6 Q-54.35 -6.4 -52.6 -8.8 L-48.85 -13.55 -45.75 -8.35 Q-42.7 -2.75 -42.85 -0.6 -43.0 2.0 -45.1 3.65 -47.2 5.35 -50.05 5.2 L-50.9 5.1 -50.15 3.45 Q-49.75 2.75 -49.85 2.0 L-51.25 5.05 -51.3 5.05" fill="#26a9e0" fill-rule="evenodd" stroke="none"/>
      <path d="M-54.1 8.8 L-54.15 8.8 -52.25 4.75 -52.2 4.75 -54.1 8.8 M-59.35 -6.55 L-58.65 -18.0 -38.55 -16.7 -40.25 9.65 -52.7 8.9 -50.9 5.1 -50.05 5.2 Q-47.2 5.35 -45.1 3.65 -43.0 2.0 -42.85 -0.6 -42.7 -2.75 -45.75 -8.35 L-48.85 -13.55 -52.6 -8.8 Q-54.35 -6.4 -55.3 -4.6 L-59.35 -6.55 M-51.25 5.05 L-53.05 8.85 -53.1 8.85 -51.3 5.05 -51.25 5.05" fill="#aedae6" fill-rule="evenodd" stroke="none"/>
    </g>
    <g id="text1" transform="matrix(1.0, 0.0, 0.0, 1.0, 2.0, 2.0)">
      <g transform="matrix(1.0, 0.0, 0.0, 1.0, -2.0, -2.0)">
        <use fill="#ffffff" height="85.05" transform="matrix(0.0264, 0.0, 0.0, 0.0264, 63.6, 26.1)" width="307.45" xlink:href="#font_Baveuse_P0"/>
        <use fill="#ffffff" height="85.05" transform="matrix(0.0264, 0.0, 0.0, 0.0264, 84.2, 26.1)" width="307.45" xlink:href="#font_Baveuse_R0"/>
        <use fill="#ffffff" height="85.05" transform="matrix(0.0264, 0.0, 0.0, 0.0264, 108.35, 26.1)" width="307.45" xlink:href="#font_Baveuse_O0"/>
      </g>
      <g transform="matrix(1.0, 0.0, 0.0, 1.0, -2.0, -2.0)">
        <use fill="#ffffff" height="85.05" transform="matrix(0.0264, 0.0, 0.0, 0.0264, 139.15, 26.1)" width="307.45" xlink:href="#font_Baveuse_T0"/>
        <use fill="#ffffff" height="85.05" transform="matrix(0.0264, 0.0, 0.0, 0.0264, 158.5, 26.1)" width="307.45" xlink:href="#font_Baveuse_E0"/>
        <use fill="#ffffff" height="85.05" transform="matrix(0.0264, 0.0, 0.0, 0.0264, 180.4, 26.1)" width="307.45" xlink:href="#font_Baveuse_S0"/>
        <use fill="#ffffff" height="85.05" transform="matrix(0.0264, 0.0, 0.0, 0.0264, 201.15, 26.1)" width="307.45" xlink:href="#font_Baveuse_T0"/>
        <use fill="#ffffff" height="85.05" transform="matrix(0.0264, 0.0, 0.0, 0.0264, 220.5, 26.1)" width="307.45" xlink:href="#font_Baveuse_k0"/>
      </g>
      <g transform="matrix(1.0, 0.0, 0.0, 1.0, -2.0, -2.0)">
        <use fill="#ffffff" height="85.05" transform="matrix(0.0264, 0.0, 0.0, 0.0264, 142.05, 58.65)" width="307.45" xlink:href="#font_Baveuse_k0"/>
      </g>
    </g>
    <g id="font_Baveuse_P0">
      <path d="M751.5 -453.5 L750.5 -546.0 Q744.5 -815.0 520.0 -826.5 L53.5 -793.5 54.5 20.5 254.0 4.0 271.5 -226.5 553.0 -209.0 Q760.0 -233.5 751.5 -453.5 M153.5 -490.5 L476.0 -505.0 Q554.0 -505.0 545.0 -446.5 535.5 -387.0 491.5 -383.0 L145.5 -399.5 153.5 -490.5" fill-rule="evenodd" stroke="none"/>
    </g>
    <g id="font_Baveuse_R0">
      <path d="M827.5 -421.0 L827.5 -421.0 Q887.0 -809.0 572.5 -811.0 L24.5 -806.0 77.0 12.5 244.5 -1.0 250.0 -243.0 338.0 -251.0 488.5 11.5 759.0 6.0 547.0 -227.0 Q799.5 -231.5 827.5 -421.0 M147.5 -471.0 L637.0 -484.5 Q696.5 -484.5 698.5 -435.0 701.5 -387.0 641.0 -366.5 L154.5 -397.5 147.5 -471.0" fill-rule="evenodd" stroke="none"/>
    </g>
    <g id="font_Baveuse_O0">
      <path d="M798.5 -226.5 L817.0 -532.5 Q829.5 -785.5 601.0 -799.0 L250.0 -806.0 Q154.5 -794.5 100.5 -721.0 46.0 -645.0 37.0 -553.0 L45.0 -233.5 Q95.0 17.5 279.5 13.0 L599.0 24.5 Q801.0 7.0 798.5 -226.5 M550.0 -515.0 L573.5 -143.5 145.5 -154.5 164.0 -489.5 550.0 -515.0" fill-rule="evenodd" stroke="none"/>
    </g>
    <g id="font_Baveuse_k0">
      <path d="M797.5 1.0 L489.5 -424.0 841.5 -812.0 590.0 -846.0 321.5 -462.0 307.0 -821.5 -7.0 -780.5 103.5 12.5 228.5 16.5 215.0 -160.0 386.0 -279.5 542.5 43.0 797.5 1.0" fill-rule="evenodd" stroke="none"/>
    </g>
    <g id="shape2" transform="matrix(1.0, 0.0, 0.0, 1.0, 108.65, 102.7)">
      <path d="M103.95 97.2 L-108.65 97.2 -108.65 -102.7 103.95 -102.7 103.95 97.2" fill="#010101" fill-opacity="0.0" fill-rule="evenodd" stroke="none"/>
    </g>
    <g id="sprite4" transform="matrix(1.0, 0.0, 0.0, 1.0, 166.55, 99.75)">
      <use ffdec:characterId="1283" height="181.4" id="content" transform="matrix(1.0, 0.0, 0.0, 1.0, -151.4, -90.7)" width="315.25" xlink:href="#sprite5"/>
    </g>
    <g id="sprite5" transform="matrix(1.0, 0.0, 0.0, 1.0, 151.4, 90.7)">
      <use ffdec:characterId="1281" height="181.4" transform="matrix(1.0, 0.0, 0.0, 1.0, -99.0, -90.7)" width="198.05" xlink:href="#shape3"/>
      <filter id="filter23">
        <feOffset dx="1.0804333958909026E-5" dy="0.9999999999416331" in="SourceGraphic" result="filterResult10"/>
        <feColorMatrix in="filterResult10" result="filterResult11" type="matrix" values="0 0 0 0 0.0,0 0 0 0 0.0,0 0 0 0 0.0,0 0 0 1 0"/>
        <feConvolveMatrix divisor="25.0" in="filterResult11" kernelMatrix="1 1 1 1 1 1 1 1 1 1 1 1 1 1 1 1 1 1 1 1 1 1 1 1 1" order="5 5" result="filterResult12"/>
        <feColorMatrix in="filterResult12" result="filterResult13" type="matrix" values="1 0 0 0 0,0 1 0 0 0,0 0 1 0 0,0 0 0 30.0 0"/>
        <feComposite in="SourceGraphic" in2="filterResult13" operator="over" result="filterResult14"/>
      </filter>
      <use ffdec:characterId="1282" filter="url(#filter23)" height="42.05" id="textField" transform="matrix(1.0, 0.0, 0.0, 1.0, -151.4, 40.95)" width="315.25" xlink:href="#text2"/>
    </g>
    <g id="shape3" transform="matrix(1.0, 0.0, 0.0, 1.0, 99.0, 90.7)">
      <path d="M-99.0 -90.7 L99.05 -90.7 99.05 90.7 -99.0 90.7 -99.0 -90.7" fill="#ff0000" fill-opacity="0.0" fill-rule="evenodd" stroke="none"/>
      <path d="M-91.25 -18.85 L-42.85 -69.95 -0.05 -0.55 -91.25 -18.85" fill="#2cc3ea" fill-rule="evenodd" stroke="none"/>
      <path d="M-50.45 63.85 L-81.25 8.75 -0.05 -0.55 -50.45 63.85" fill="#2cc3ea" fill-rule="evenodd" stroke="none"/>
      <path d="M16.25 79.15 L-31.65 73.35 -0.05 -0.55 16.25 79.15" fill="#2cc3ea" fill-rule="evenodd" stroke="none"/>
      <path d="M46.15 60.35 L-0.05 -0.55 86.45 15.65 46.15 60.35" fill="#2cc3ea" fill-rule="evenodd" stroke="none"/>
      <path d="M-0.05 -0.55 L53.25 -59.05 84.95 -10.55 -0.05 -0.55" fill="#2cc3ea" fill-rule="evenodd" stroke="none"/>
      <path d="M30.15 -64.75 L-0.05 -0.55 -14.45 -60.65 30.15 -64.75" fill="#2cc3ea" fill-rule="evenodd" stroke="none"/>
      <path d="M-11.85 -87.95 L-0.05 -0.75 -65.05 -65.75 -11.85 -87.95" fill="#76eeff" fill-rule="evenodd" stroke="none"/>
      <path d="M-84.25 25.85 L-93.75 -27.55 -0.05 -0.75 -84.25 25.85" fill="#76eeff" fill-rule="evenodd" stroke="none"/>
      <path d="M-31.15 87.25 L-63.55 65.85 -0.05 -0.75 -31.15 87.25" fill="#76eeff" fill-rule="evenodd" stroke="none"/>
      <path d="M62.55 67.85 L11.75 87.95 -0.05 -0.75 62.55 67.85" fill="#76eeff" fill-rule="evenodd" stroke="none"/>
      <path d="M87.15 -11.05 L93.75 26.05 -0.05 -0.75 87.15 -11.05" fill="#76eeff" fill-rule="evenodd" stroke="none"/>
      <path d="M-0.05 -0.75 L20.65 -82.05 70.05 -68.55 -0.05 -0.75" fill="#76eeff" fill-rule="evenodd" stroke="none"/>
      <path d="M-38.95 -25.85 Q-30.05 -21.55 -22.35 10.15 -14.95 41.05 -19.15 49.45 -21.35 52.25 -27.45 54.55 -34.75 57.35 -42.05 56.65 -52.25 52.45 -60.15 22.85 -67.85 -6.55 -62.35 -17.65 -58.85 -22.25 -50.05 -24.55 -43.45 -26.25 -38.95 -25.85" fill="#373728" fill-rule="evenodd" stroke="none"/>
      <path d="M49.45 -53.05 Q60.05 -44.55 66.75 -13.05 73.25 17.85 67.35 26.35 64.35 29.45 57.45 31.35 50.45 32.95 48.75 33.65 35.85 26.25 27.15 -4.85 18.75 -35.25 24.85 -46.45 27.15 -47.65 35.95 -50.25 45.65 -53.05 49.45 -53.05" fill="#373728" fill-rule="evenodd" stroke="none"/>
      <path d="M39.85 1.85 Q34.05 9.55 6.75 17.25 -19.95 24.85 -28.25 22.15 -33.75 20.45 -36.45 14.65 -39.45 8.35 -34.45 3.55 -26.15 -4.25 -0.95 -12.55 26.05 -21.35 35.25 -16.95 42.45 -13.45 43.75 -9.45 45.05 -5.05 39.85 1.85" fill="#373728" fill-rule="evenodd" stroke="none"/>
      <path d="M-58.35 -13.85 Q-55.35 -18.15 -48.05 -19.35 -40.65 -20.55 -40.85 -16.65 -40.95 -12.35 -39.75 -3.85 -38.35 5.75 -36.15 14.95 -33.85 24.45 -38.55 35.35 -43.25 46.15 -46.85 41.35 -55.35 29.95 -58.25 8.35 -60.75 -10.35 -58.35 -13.85" fill="#90927a" fill-rule="evenodd" stroke="none"/>
      <path d="M32.25 -41.15 Q30.75 -43.95 38.15 -44.95 45.55 -45.95 48.25 -43.65 51.35 -41.15 56.05 -30.05 61.35 -17.65 61.95 -8.45 62.45 0.55 54.55 7.15 51.55 9.55 48.95 10.25 46.35 10.95 46.25 9.35 45.15 -3.45 39.95 -20.55 35.75 -34.15 32.25 -41.15" fill="#90927a" fill-rule="evenodd" stroke="none"/>
      <path d="M-55.65 1.85 Q-54.65 -8.35 -50.05 -8.85 -45.55 -9.45 -44.95 0.15 -44.35 9.05 -50.25 8.85 -52.55 8.75 -54.25 6.95 -55.95 4.85 -55.65 1.85" fill="#fdfdfd" fill-rule="evenodd" stroke="none"/>
      <path d="M41.95 -25.65 Q39.75 -33.35 43.55 -36.25 47.35 -39.15 50.65 -30.45 53.85 -21.95 49.05 -19.95 44.15 -17.85 41.95 -25.65" fill="#fdfdfd" fill-rule="evenodd" stroke="none"/>
    </g>
    <g id="text2" transform="matrix(1.0, 0.0, 0.0, 1.0, 2.0, 2.0)">
      <g transform="matrix(1.0, 0.0, 0.0, 1.0, -2.0, -2.0)">
        <use fill="#ffffff" height="42.05" transform="matrix(0.0264, 0.0, 0.0, 0.0264, 78.15, 26.1)" width="315.25" xlink:href="#font_Baveuse_P0"/>
        <use fill="#ffffff" height="42.05" transform="matrix(0.0264, 0.0, 0.0, 0.0264, 98.75, 26.1)" width="315.25" xlink:href="#font_Baveuse_R0"/>
        <use fill="#ffffff" height="42.05" transform="matrix(0.0264, 0.0, 0.0, 0.0264, 122.9, 26.1)" width="315.25" xlink:href="#font_Baveuse_A0"/>
        <use fill="#ffffff" height="42.05" transform="matrix(0.0264, 0.0, 0.0, 0.0264, 144.6, 26.1)" width="315.25" xlink:href="#font_Baveuse_C0"/>
        <use fill="#ffffff" height="42.05" transform="matrix(0.0264, 0.0, 0.0, 0.0264, 166.7, 26.1)" width="315.25" xlink:href="#font_Baveuse_T0"/>
        <use fill="#ffffff" height="42.05" transform="matrix(0.0264, 0.0, 0.0, 0.0264, 186.05, 26.1)" width="315.25" xlink:href="#font_Baveuse_I0"/>
        <use fill="#ffffff" height="42.05" transform="matrix(0.0264, 0.0, 0.0, 0.0264, 193.1, 26.1)" width="315.25" xlink:href="#font_Baveuse_C0"/>
        <use fill="#ffffff" height="42.05" transform="matrix(0.0264, 0.0, 0.0, 0.0264, 215.2, 26.1)" width="315.25" xlink:href="#font_Baveuse_E0"/>
      </g>
    </g>
    <g id="font_Baveuse_A0">
      <path d="M298.0 -312.5 L624.5 -296.0 Q662.5 -292.0 661.5 -236.5 661.5 -181.0 622.5 -183.5 L317.5 -196.5 Q261.0 -193.5 264.0 -252.0 269.5 -311.5 298.0 -312.5 M656.5 -356.5 L656.5 -356.5 Q630.0 -414.0 556.0 -423.0 L307.5 -435.5 Q54.5 -431.0 39.0 -247.0 23.5 -6.0 292.0 10.0 L507.0 24.5 Q595.0 14.5 631.0 -60.5 668.0 11.0 793.5 0.0 769.0 -44.0 769.0 -131.0 L762.0 -501.0 Q774.5 -801.0 507.0 -785.5 L92.5 -768.0 85.0 -463.0 584.0 -489.5 Q679.0 -473.0 656.5 -356.5" fill-rule="evenodd" stroke="none"/>
    </g>
    <g id="font_Baveuse_C0">
      <path d="M785.5 -105.5 L639.0 -216.0 602.0 -174.0 188.5 -166.0 167.0 -542.5 622.5 -519.0 663.5 -442.5 804.0 -676.0 Q779.5 -791.5 613.5 -813.0 L266.0 -808.0 Q33.0 -776.0 38.0 -543.5 L48.0 -211.0 Q47.0 35.0 273.5 37.0 L612.5 6.5 Q760.0 -17.5 785.5 -105.5" fill-rule="evenodd" stroke="none"/>
    </g>
    <g id="font_Baveuse_I0">
      <path d="M172.0 -7.0 L231.5 -796.0 12.5 -822.5 40.0 20.5 172.0 -7.0" fill-rule="evenodd" stroke="none"/>
    </g>
  </defs>
</svg>
