<?xml version="1.0" encoding="UTF-8" standalone="no"?>
<svg xmlns:ffdec="https://www.free-decompiler.com/flash" xmlns:xlink="http://www.w3.org/1999/xlink" ffdec:objectType="frame" height="84.15px" width="84.9px" xmlns="http://www.w3.org/2000/svg">
  <g transform="matrix(1.0, 0.0, 0.0, 1.0, 42.45, 84.15)">
    <use ffdec:characterId="813" height="82.65" transform="matrix(1.0, 0.0, 0.0, 1.0, -42.45, -82.65)" width="84.9" xlink:href="#sprite0"/>
  </g>
  <defs>
    <g id="sprite0" transform="matrix(1.0, 0.0, 0.0, 1.0, 42.45, 41.35)">
      <use ffdec:characterId="812" height="82.65" transform="matrix(1.0, 0.0, 0.0, 1.0, -42.45, -41.35)" width="84.9" xlink:href="#shape0"/>
    </g>
    <g id="shape0" transform="matrix(1.0, 0.0, 0.0, 1.0, 42.45, 41.35)">
      <path d="M-21.7 16.2 Q-20.95 19.1 -21.55 21.95 -22.15 24.65 -23.7 26.2 -25.8 27.8 -28.15 27.95 -30.05 25.6 -31.95 24.65 -35.2 23.0 -34.55 21.25 L-33.7 19.6 Q-33.15 18.6 -33.2 17.7 -33.35 15.7 -34.05 14.85 -34.75 14.0 -36.75 13.15 L-26.1 12.75 Q-24.2 14.5 -25.75 16.3 L-29.7 19.2 Q-27.35 19.8 -25.3 18.45 L-21.7 16.2 M5.65 -24.75 Q4.6 -24.6 3.3 -23.8 9.95 -22.15 14.3 -17.8 11.05 -17.8 9.05 -15.8 6.9 -13.65 8.3 -10.8 8.3 -13.4 11.45 -15.3 14.6 -17.25 15.3 -13.8 18.1 0.85 6.7 8.2 -3.45 14.7 -17.7 12.2 L-16.3 9.1 Q-15.7 7.2 -15.7 5.2 -17.55 5.8 -18.45 7.85 L-19.7 11.2 Q-21.7 8.55 -21.7 4.6 -21.7 2.2 -20.7 -2.8 -23.6 2.0 -24.2 3.65 -25.5 7.2 -24.4 10.55 -29.25 5.7 -28.4 -1.9 -27.65 -8.95 -22.45 -15.5 -17.15 -22.15 -9.95 -24.85 -1.9 -27.9 5.65 -24.75 M26.9 -31.95 Q29.0 -31.0 32.35 -26.05 32.45 -23.7 31.3 -21.8 29.85 -18.2 25.2 -18.4 20.65 -18.65 18.3 -21.8 17.05 -22.4 17.05 -25.55 L17.3 -30.8 Q15.3 -27.8 14.7 -26.15 13.65 -23.45 14.3 -20.8 L12.6 -25.25 Q11.85 -32.3 15.85 -37.4 16.9 -32.85 20.35 -32.75 L23.55 -32.85 Q25.5 -32.75 26.9 -31.95" fill="#70c0ff" fill-rule="evenodd" stroke="none"/>
      <path d="M32.35 -26.05 L35.85 -20.5 Q37.8 -17.3 38.65 -16.25 36.75 -15.55 34.45 -15.2 L15.95 -15.8 Q24.75 -9.3 24.25 -0.15 23.8 8.0 16.55 14.95 9.3 21.85 -0.25 23.25 -10.75 24.85 -19.05 18.55 -16.95 22.7 -16.55 28.1 -16.15 33.15 -17.25 38.1 -20.85 38.0 -23.65 34.55 L-28.15 27.95 Q-25.8 27.8 -23.7 26.2 -22.15 24.65 -21.55 21.95 -20.95 19.1 -21.7 16.2 L-25.3 18.45 Q-27.35 19.8 -29.7 19.2 L-25.75 16.3 Q-24.2 14.5 -26.1 12.75 L-21.4 12.9 -24.4 10.55 Q-25.5 7.2 -24.2 3.65 -23.6 2.0 -20.7 -2.8 -21.7 2.2 -21.7 4.6 -21.7 8.55 -19.7 11.2 L-18.45 7.85 Q-17.55 5.8 -15.7 5.2 -15.7 7.2 -16.3 9.1 L-17.7 12.2 Q-3.45 14.7 6.7 8.2 18.1 0.85 15.3 -13.8 14.6 -17.25 11.45 -15.3 8.3 -13.4 8.3 -10.8 6.9 -13.65 9.05 -15.8 11.05 -17.8 14.3 -17.8 9.95 -22.15 3.3 -23.8 4.6 -24.6 5.65 -24.75 10.0 -22.95 13.95 -19.1 12.85 -22.5 12.6 -25.25 L14.3 -20.8 Q13.65 -23.45 14.7 -26.15 15.3 -27.8 17.3 -30.8 L17.05 -25.55 Q17.05 -22.4 18.3 -21.8 20.65 -18.65 25.2 -18.4 29.85 -18.2 31.3 -21.8 32.45 -23.7 32.35 -26.05" fill="#46a3e2" fill-rule="evenodd" stroke="none"/>
      <path d="M23.55 -32.85 L20.35 -32.75 Q16.9 -32.85 15.85 -37.4 10.35 -30.45 13.95 -19.1 5.4 -27.55 -4.95 -26.15 -13.95 -24.95 -21.05 -17.1 -27.9 -9.6 -28.5 -1.1 -29.15 8.2 -21.4 12.9 -28.95 12.45 -36.75 13.15 -34.75 14.0 -34.05 14.85 -33.35 15.7 -33.2 17.7 -33.15 18.6 -33.7 19.6 L-34.55 21.25 Q-35.2 23.0 -31.95 24.65 -29.45 25.9 -25.1 32.5 -21.45 38.0 -17.25 38.1 -16.15 33.15 -16.55 28.1 -16.95 22.7 -19.05 18.55 -10.75 24.85 -0.25 23.25 9.3 21.85 16.55 14.95 23.8 8.0 24.25 -0.15 24.75 -9.3 15.95 -15.8 L34.45 -15.2 Q36.75 -15.55 38.65 -16.25 L33.25 -24.75 Q29.25 -30.95 26.9 -31.95 25.5 -32.75 23.55 -32.85 M41.45 -17.8 L41.95 -17.15 Q42.35 -16.7 42.45 -15.45 40.55 -12.2 33.95 -11.55 L24.1 -12.05 Q28.2 -3.85 25.9 5.15 23.75 13.5 17.05 19.7 10.3 25.95 2.0 27.25 -7.1 28.7 -14.9 23.5 -13.65 26.35 -13.15 32.35 -12.6 39.1 -14.5 40.3 -17.35 42.15 -21.15 40.55 -24.7 39.05 -26.55 35.85 -27.5 34.25 -30.2 31.45 L-34.65 26.75 Q-39.6 20.9 -36.65 16.9 -39.0 15.35 -42.45 13.65 L-42.05 10.7 Q-31.85 8.85 -25.95 10.75 -31.65 2.95 -30.3 -6.1 -29.1 -14.3 -22.65 -20.95 -16.25 -27.5 -7.75 -29.45 1.45 -31.55 9.55 -27.15 8.85 -32.3 11.35 -37.2 14.2 -42.8 18.75 -40.8 17.9 -41.15 20.25 -35.55 L24.5 -35.15 28.25 -34.8 Q31.0 -33.5 35.45 -26.9 L41.45 -17.8" fill="#2e77a1" fill-rule="evenodd" stroke="none"/>
      <path d="M-22.35 -4.2 Q-23.0 -5.15 -22.75 -6.35 -22.45 -7.55 -21.4 -8.25 -20.3 -8.95 -19.1 -8.75 -17.9 -8.6 -17.25 -7.6 -16.6 -6.6 -16.9 -5.4 -17.15 -4.2 -18.25 -3.5 -19.3 -2.8 -20.5 -3.0 -21.7 -3.2 -22.35 -4.2 M-14.05 -20.4 Q-11.05 -22.4 -8.0 -22.45 -4.9 -22.5 -3.65 -20.5 -2.35 -18.55 -3.55 -15.75 -4.75 -12.95 -7.75 -10.95 -10.8 -8.9 -13.85 -8.9 -16.9 -8.85 -18.2 -10.85 -19.5 -12.8 -18.3 -15.6 -17.1 -18.4 -14.05 -20.4" fill="#ecf8ff" fill-rule="evenodd" stroke="none"/>
    </g>
  </defs>
</svg>
