<?xml version="1.0" encoding="UTF-8" standalone="no"?>
<svg xmlns:ffdec="https://www.free-decompiler.com/flash" xmlns:xlink="http://www.w3.org/1999/xlink" ffdec:objectType="frame" height="86.5px" width="80.1px" xmlns="http://www.w3.org/2000/svg">
  <g transform="matrix(1.0, 0.0, 0.0, 1.0, 40.05, 86.5)">
    <use ffdec:characterId="893" height="80.8" transform="matrix(1.0, 0.0, 0.0, 1.0, -40.0, -80.8)" width="80.0" xlink:href="#sprite0"/>
  </g>
  <defs>
    <g id="sprite0" transform="matrix(1.0, 0.0, 0.0, 1.0, 40.0, 40.4)">
      <use ffdec:characterId="892" height="80.8" transform="matrix(1.0, 0.0, 0.0, 1.0, -40.0, -40.4)" width="80.0" xlink:href="#shape0"/>
    </g>
    <g id="shape0" transform="matrix(1.0, 0.0, 0.0, 1.0, 40.0, 40.4)">
      <path d="M13.0 20.75 Q14.75 18.35 14.55 14.65 17.7 23.3 22.9 28.75 L23.4 29.35 22.7 30.2 21.85 30.9 21.8 30.95 20.85 31.6 20.05 32.0 19.8 32.05 18.75 32.45 18.65 32.5 18.5 32.5 Q12.6 34.85 1.8 34.85 L-11.9 33.85 Q-17.6 32.95 -19.0 32.05 -21.85 28.25 -23.0 22.4 -16.7 30.25 -4.4 30.1 8.35 30.0 13.0 20.75" fill="#dedbc3" fill-rule="evenodd" stroke="none"/>
      <path d="M14.55 14.65 Q14.75 18.35 13.0 20.75 8.35 30.0 -4.4 30.1 -16.7 30.25 -23.0 22.4 -24.4 15.1 -22.75 5.85 -21.45 -1.45 -19.25 -5.75 L-19.1 -6.1 -18.55 -8.45 Q-12.75 -14.9 -4.05 -14.65 4.3 -14.4 11.4 -8.4 10.6 -2.7 11.85 4.75 12.8 10.0 14.55 14.65" fill="#fefcec" fill-rule="evenodd" stroke="none"/>
      <path d="M17.6 -31.4 L19.8 -23.5 22.3 -14.35 Q27.5 -2.95 31.25 8.85 34.4 18.9 35.4 25.5 36.6 28.7 39.6 33.6 41.15 36.85 37.0 36.4 30.4 35.55 25.05 30.9 22.75 33.55 19.35 34.6 11.25 37.75 -4.05 36.85 -18.15 36.0 -20.6 33.6 -22.15 31.45 -23.05 29.35 -26.3 31.45 -30.0 32.85 -39.1 36.0 -39.95 33.95 -40.25 33.05 -37.15 29.0 L-33.35 24.1 Q-31.0 19.75 -27.8 10.0 -24.35 -0.3 -22.2 -4.55 L-21.25 -6.75 -18.6 -18.2 Q-16.45 -27.35 -13.5 -33.35 -11.15 -35.95 -5.2 -38.35 -0.1 -40.35 2.2 -40.4 4.4 -40.4 9.5 -37.75 15.25 -34.7 17.6 -31.4 M28.55 7.35 Q24.45 -5.65 19.35 -16.65 L17.45 -23.45 15.6 -30.45 Q13.45 -33.2 8.25 -35.85 3.85 -38.15 2.25 -38.2 0.45 -38.15 -4.2 -36.3 -9.6 -34.2 -11.6 -32.1 -13.75 -27.65 -15.4 -21.65 L-17.75 -12.0 -19.1 -6.1 -19.25 -5.75 Q-22.55 0.7 -23.45 10.9 -24.6 24.35 -19.0 32.05 -17.6 32.95 -11.9 33.85 L1.8 34.85 Q12.6 34.85 18.5 32.5 L18.65 32.5 18.75 32.45 19.8 32.05 20.05 32.0 20.85 31.6 21.8 30.95 21.85 30.9 23.4 29.35 22.9 28.75 Q16.45 21.85 13.2 10.6 10.2 0.15 11.4 -8.4 11.75 -10.7 12.35 -12.6 11.1 -6.5 13.25 3.35 15.45 13.35 19.9 21.05 26.9 33.05 37.25 34.2 L37.45 34.2 36.25 32.0 Q34.15 28.35 33.4 26.35 L33.25 26.1 33.25 25.9 Q32.15 18.85 28.55 7.35" fill="#201e28" fill-rule="evenodd" stroke="none"/>
      <path d="M-5.15 -19.4 Q-5.15 -17.5 -9.1 -16.25 -13.15 -15.05 -16.8 -16.25 L-14.7 -24.15 -8.05 -23.7 Q-5.15 -22.75 -5.15 -19.4" fill="#4b445d" fill-rule="evenodd" stroke="none"/>
      <path d="M17.0 -25.45 L19.35 -16.65 20.9 -13.1 Q17.65 -16.6 14.3 -15.5 16.25 -17.45 16.8 -20.35 17.15 -22.15 17.0 -25.45" fill="#4b445d" fill-rule="evenodd" stroke="none"/>
      <path d="M19.9 21.05 Q15.45 13.35 13.25 3.35 11.1 -6.5 12.35 -12.6 11.75 -10.7 11.4 -8.4 4.3 -14.4 -4.05 -14.65 -12.75 -14.9 -18.55 -8.45 -17.6 -12.3 -16.8 -16.25 -13.15 -15.05 -9.1 -16.25 -5.15 -17.5 -5.15 -19.4 -5.15 -22.75 -8.05 -23.7 L-14.7 -24.15 Q-13.4 -28.25 -11.6 -32.1 -9.6 -34.2 -4.2 -36.3 0.45 -38.15 2.25 -38.2 3.85 -38.15 8.25 -35.85 13.45 -33.2 15.6 -30.45 L17.0 -25.45 Q17.15 -22.15 16.8 -20.35 16.25 -17.45 14.3 -15.5 17.65 -16.6 20.9 -13.1 25.15 -3.45 28.45 7.2 31.2 18.8 28.55 28.5 25.6 27.85 23.05 25.6 L19.9 21.05" fill="#625a73" fill-rule="evenodd" stroke="none"/>
      <path d="M36.25 32.0 L37.45 34.2 37.25 34.2 Q29.25 33.3 23.05 25.6 25.6 27.85 28.55 28.5 31.2 18.8 28.45 7.2 32.2 18.85 33.25 25.9 L33.25 26.1 33.4 26.35 Q34.15 28.35 36.25 32.0" fill="#4b445d" fill-rule="evenodd" stroke="none"/>
      <path d="M-10.8 -23.45 L-6.25 -23.75 Q-5.6 -23.05 -5.45 -20.95 -6.1 -19.05 -11.4 -18.55 -15.3 -18.2 -18.65 -18.6 -19.45 -18.75 -19.5 -19.4 -19.65 -20.0 -18.7 -19.9 -12.75 -18.85 -6.8 -21.55 -11.65 -20.65 -16.7 -23.05 -20.85 -25.0 -21.5 -26.7 -22.15 -28.45 -20.85 -28.25 -19.75 -28.1 -18.7 -27.2 -15.05 -23.95 -10.8 -23.45" fill="#dcaa55" fill-rule="evenodd" stroke="none"/>
      <path d="M-6.05 -24.5 Q-5.2 -23.75 -5.15 -22.65 L-5.4 -20.4 Q-6.3 -17.95 -12.2 -17.65 L-19.75 -18.2 Q-20.6 -18.45 -20.55 -19.65 -20.4 -20.85 -19.25 -20.75 L-16.25 -20.35 Q-16.0 -20.95 -16.4 -21.75 -20.2 -22.95 -21.9 -25.35 -23.4 -27.4 -22.4 -28.75 -20.9 -30.85 -18.0 -27.9 -14.65 -24.55 -10.55 -24.15 L-6.05 -24.5 M-11.4 -18.55 Q-6.1 -19.05 -5.45 -20.95 -5.6 -23.05 -6.25 -23.75 L-10.8 -23.45 Q-15.05 -23.95 -18.7 -27.2 -19.75 -28.1 -20.85 -28.25 -22.15 -28.45 -21.5 -26.7 -20.85 -25.0 -16.7 -23.05 -11.65 -20.65 -6.8 -21.55 -12.75 -18.85 -18.7 -19.9 -19.65 -20.0 -19.5 -19.4 -19.45 -18.75 -18.65 -18.6 -15.3 -18.2 -11.4 -18.55" fill="#a67a38" fill-rule="evenodd" stroke="none"/>
      <path d="M-11.1 35.6 Q-11.55 38.5 -13.65 40.0 -14.85 38.65 -16.05 36.7 L-18.15 38.7 Q-19.5 39.95 -20.65 40.4 -21.85 38.45 -21.1 36.5 -23.7 38.45 -27.4 39.05 -26.6 35.4 -23.0 33.15 -19.25 30.75 -14.65 31.45 -10.5 32.1 -11.1 35.6 M4.6 39.05 Q5.35 35.4 9.0 33.15 12.8 30.75 17.35 31.45 21.45 32.1 20.9 35.6 20.45 38.5 18.3 40.0 17.0 38.5 16.25 36.7 13.85 39.45 11.3 40.4 L10.2 38.35 Q9.8 36.95 10.6 36.2 7.25 38.6 4.6 39.05" fill="#1a1c20" fill-rule="evenodd" stroke="none"/>
      <path d="M10.2 35.3 L7.8 36.15 Q10.35 31.35 14.3 31.35 L17.55 31.35 Q18.95 31.6 19.25 33.95 19.55 36.3 18.45 37.5 L18.8 36.8 18.45 37.35 Q17.55 36.45 16.6 34.75 L12.15 38.05 Q11.55 36.3 12.0 34.75 L10.2 35.3 M-12.75 33.95 Q-12.65 35.6 -13.3 36.95 L-13.55 37.35 Q-14.85 36.85 -15.6 34.75 L-19.8 38.05 Q-19.8 35.95 -19.3 34.75 -22.55 36.05 -24.15 36.15 -23.3 34.0 -21.35 32.55 -19.35 31.1 -17.1 31.1 L-14.2 31.55 Q-12.85 31.8 -12.75 33.95" fill="#44485b" fill-rule="evenodd" stroke="none"/>
      <path d="M4.4 -30.35 Q6.65 -30.3 8.15 -28.75 9.7 -27.2 9.7 -25.0 9.7 -22.75 8.15 -21.25 6.65 -19.7 4.4 -19.7 2.2 -19.7 0.65 -21.25 -0.9 -22.75 -1.0 -25.0 -0.9 -27.2 0.65 -28.75 2.2 -30.3 4.4 -30.35 M8.2 -25.0 Q8.2 -26.55 7.1 -27.65 5.95 -28.8 4.4 -28.8 2.85 -28.8 1.75 -27.65 0.55 -26.55 0.55 -25.0 0.55 -23.45 1.75 -22.3 2.85 -21.2 4.4 -21.2 5.95 -21.2 7.1 -22.3 8.2 -23.45 8.2 -25.0" fill="#ffffff" fill-rule="evenodd" stroke="none"/>
      <path d="M4.4 -31.65 Q7.15 -31.65 9.05 -29.75 11.0 -27.8 11.0 -25.0 11.0 -22.2 9.05 -20.35 7.15 -18.4 4.4 -18.4 1.6 -18.4 -0.25 -20.35 -2.2 -22.2 -2.3 -25.0 -2.2 -27.8 -0.25 -29.75 1.6 -31.65 4.4 -31.65 M9.7 -25.0 Q9.7 -27.2 8.15 -28.75 6.65 -30.3 4.4 -30.35 2.2 -30.3 0.65 -28.75 -0.9 -27.2 -1.0 -25.0 -0.9 -22.75 0.65 -21.25 2.2 -19.7 4.4 -19.7 6.65 -19.7 8.15 -21.25 9.7 -22.75 9.7 -25.0" fill="#312c3e" fill-rule="evenodd" stroke="none"/>
      <path d="M4.4 -28.8 Q5.95 -28.8 7.1 -27.65 8.2 -26.55 8.2 -25.0 8.2 -23.45 7.1 -22.3 5.95 -21.2 4.4 -21.2 2.85 -21.2 1.75 -22.3 0.55 -23.45 0.55 -25.0 0.55 -26.55 1.75 -27.65 2.85 -28.8 4.4 -28.8" fill="#030303" fill-rule="evenodd" stroke="none"/>
    </g>
  </defs>
</svg>
