<?xml version="1.0" encoding="UTF-8" standalone="no"?>
<svg xmlns:ffdec="https://www.free-decompiler.com/flash" xmlns:xlink="http://www.w3.org/1999/xlink" ffdec:objectType="frame" height="80.8px" width="80.6px" xmlns="http://www.w3.org/2000/svg">
  <g transform="matrix(1.0, 0.0, 0.0, 1.0, 40.3, 80.8)">
    <use ffdec:characterId="968" height="74.5" transform="matrix(1.0, 0.0, 0.0, 1.0, -40.05, -74.5)" width="80.05" xlink:href="#sprite0"/>
  </g>
  <defs>
    <g id="sprite0" transform="matrix(1.0, 0.0, 0.0, 1.0, 40.0, 37.25)">
      <use ffdec:characterId="967" height="74.5" transform="matrix(1.0, 0.0, 0.0, 1.0, -40.0, -37.25)" width="80.05" xlink:href="#shape0"/>
    </g>
    <g id="shape0" transform="matrix(1.0, 0.0, 0.0, 1.0, 40.0, 37.25)">
      <path d="M5.4 33.1 Q6.8 33.15 7.8 32.65 8.85 32.1 8.9 31.35 8.95 30.5 7.95 29.95 7.0 29.3 5.6 29.25 4.25 29.2 3.25 29.75 2.25 30.25 2.2 31.05 2.15 31.8 3.1 32.45 4.0 33.05 5.4 33.1 M-0.9 19.95 Q0.3 21.05 2.3 21.5 4.3 21.95 5.95 21.45 7.55 21.0 7.8 19.85 8.1 18.7 6.9 17.6 5.7 16.45 3.7 16.0 1.7 15.55 0.05 16.05 -1.5 16.5 -1.8 17.7 -2.1 18.85 -0.9 19.95 M-1.85 27.0 Q-1.55 25.9 -2.75 24.75 -3.95 23.65 -6.0 23.2 -7.95 22.75 -9.6 23.25 -11.2 23.75 -11.45 24.85 -11.75 26.0 -10.55 27.15 -9.35 28.25 -7.35 28.7 -5.35 29.15 -3.75 28.65 -2.15 28.15 -1.85 27.0 M-25.25 8.45 Q-26.8 8.9 -27.1 10.05 -27.4 11.2 -26.2 12.3 -25.05 13.4 -23.05 13.9 -24.25 14.5 -24.9 15.35 -25.45 16.25 -25.3 17.05 -24.95 18.2 -23.35 18.7 -21.7 19.15 -19.75 18.7 L-19.2 18.55 -19.75 19.4 Q-20.05 20.55 -18.85 21.7 -17.65 22.8 -15.65 23.25 -13.65 23.7 -12.0 23.2 -10.4 22.75 -10.1 21.55 -9.85 20.45 -11.05 19.3 -12.3 18.2 -14.25 17.7 -15.9 17.4 -17.35 17.7 L-16.25 16.7 Q-15.25 17.3 -14.0 17.6 L-9.95 17.35 -10.2 17.95 Q-10.45 18.9 -9.6 19.8 -8.75 20.65 -7.25 21.0 L-4.55 20.95 Q-3.35 20.5 -3.1 19.55 -2.85 18.6 -3.75 17.7 -4.6 16.85 -6.1 16.5 L-8.9 16.65 -8.55 15.9 Q-8.25 14.8 -9.45 13.65 -10.65 12.55 -12.65 12.1 L-15.75 12.0 Q-17.2 12.3 -17.8 13.1 L-18.0 13.05 -17.5 12.2 Q-17.2 11.1 -18.4 9.95 -19.65 8.85 -21.6 8.4 -23.6 7.9 -25.25 8.45 M2.45 -7.0 L11.45 -7.05 20.3 -6.15 Q24.95 -5.05 26.7 -4.1 30.25 -2.25 31.15 1.35 31.9 4.4 31.65 10.55 31.3 17.65 29.3 17.1 29.65 20.55 27.55 25.15 25.25 30.25 21.85 31.45 21.25 34.05 18.0 36.1 14.65 38.2 12.9 36.4 11.9 36.95 10.85 36.65 9.7 36.4 9.0 35.3 7.75 36.15 5.95 35.8 L2.7 34.75 0.95 33.55 -0.85 32.45 -2.4 32.25 -3.9 32.15 Q-5.05 31.85 -6.8 30.75 -8.95 29.4 -9.65 29.1 L-12.65 27.8 Q-14.15 27.0 -15.2 25.7 -17.0 26.05 -20.4 24.0 -23.85 22.0 -24.5 20.1 -26.5 20.1 -26.95 18.25 -27.2 15.75 -27.55 14.35 L-28.85 10.75 Q-29.5 8.85 -29.15 6.7 -30.15 5.75 -30.3 3.5 -30.45 1.25 -29.65 0.65 -27.9 -3.8 -22.2 -6.05 -17.8 -7.75 -12.65 -7.75 L-5.1 -7.4 2.45 -7.0" fill="#b7b4ae" fill-rule="evenodd" stroke="none"/>
      <path d="M5.6 29.25 Q7.0 29.3 7.95 29.95 8.95 30.5 8.9 31.35 8.85 32.1 7.8 32.65 6.8 33.15 5.4 33.1 4.0 33.05 3.1 32.45 2.15 31.8 2.2 31.05 2.25 30.25 3.25 29.75 4.25 29.2 5.6 29.25 M7.8 19.85 Q7.55 21.0 5.95 21.45 4.3 21.95 2.3 21.5 0.3 21.05 -0.9 19.95 -2.1 18.85 -1.8 17.7 -1.5 16.5 0.05 16.05 1.7 15.55 3.7 16.0 5.7 16.45 6.9 17.6 8.1 18.7 7.8 19.85 M-6.0 23.2 Q-3.95 23.65 -2.75 24.75 -1.55 25.9 -1.85 27.0 -2.15 28.15 -3.75 28.65 -5.35 29.15 -7.35 28.7 -9.35 28.25 -10.55 27.15 -11.75 26.0 -11.45 24.85 -11.2 23.75 -9.6 23.25 -7.95 22.75 -6.0 23.2 M-27.1 10.05 Q-26.8 8.9 -25.25 8.45 -23.6 7.9 -21.6 8.4 -19.65 8.85 -18.4 9.95 -17.2 11.1 -17.5 12.2 L-18.0 13.05 -17.8 13.1 Q-17.2 12.3 -15.75 12.0 L-12.65 12.1 Q-10.65 12.55 -9.45 13.65 -8.25 14.8 -8.55 15.9 L-8.9 16.65 -6.1 16.5 Q-4.6 16.85 -3.75 17.7 -2.85 18.6 -3.1 19.55 -3.35 20.5 -4.55 20.95 L-7.25 21.0 Q-8.75 20.65 -9.6 19.8 -10.45 18.9 -10.2 17.95 L-9.95 17.35 -14.0 17.6 Q-15.25 17.3 -16.25 16.7 L-17.35 17.7 Q-15.9 17.4 -14.25 17.7 -12.3 18.2 -11.05 19.3 -9.85 20.45 -10.1 21.55 -10.4 22.75 -12.0 23.2 -13.65 23.7 -15.65 23.25 -17.65 22.8 -18.85 21.7 -20.05 20.55 -19.75 19.4 L-19.2 18.55 -19.75 18.7 Q-21.7 19.15 -23.35 18.7 -24.95 18.2 -25.3 17.05 -25.45 16.25 -24.9 15.35 -24.25 14.5 -23.05 13.9 -25.05 13.4 -26.2 12.3 -27.4 11.2 -27.1 10.05" fill="#eae5dc" fill-rule="evenodd" stroke="none"/>
      <path d="M34.8 1.15 L36.65 -10.2 Q37.5 -17.0 37.15 -19.45 36.45 -20.95 33.05 -23.05 28.95 -25.7 22.5 -28.0 15.7 -30.45 8.3 -31.85 0.95 -33.25 -5.3 -33.25 -11.35 -33.25 -15.9 -31.9 -23.55 -29.25 -30.45 -23.35 -35.1 -19.35 -37.05 -16.4 -37.4 -13.9 -37.05 -8.75 -36.7 -3.75 -36.0 -1.0 -28.8 -0.75 -9.3 5.45 10.5 11.7 18.25 16.4 22.8 13.25 28.4 7.75 L34.8 1.15 M39.85 -20.2 Q40.45 -16.9 39.0 -6.9 L37.4 2.45 31.2 8.95 Q23.85 16.2 18.25 19.65 12.45 15.15 -10.75 7.85 -33.9 0.55 -37.8 1.9 -39.1 -0.1 -39.7 -7.3 -40.3 -14.2 -39.65 -17.35 -38.5 -19.9 -32.9 -24.9 -25.3 -31.6 -16.7 -34.55 -3.5 -38.5 17.5 -32.55 26.25 -30.05 32.45 -26.65 38.8 -23.25 39.85 -20.2" fill="#c6b63c" fill-rule="evenodd" stroke="none"/>
      <path d="M8.3 -31.85 Q15.7 -30.45 22.5 -28.0 28.95 -25.7 33.05 -23.05 36.45 -20.95 37.15 -19.45 L37.2 -19.05 Q30.1 -16.35 25.7 -13.9 19.6 -10.5 16.25 -6.5 -4.9 -18.2 -37.1 -15.9 L-37.05 -16.4 Q-35.1 -19.35 -30.45 -23.35 -23.55 -29.25 -15.9 -31.9 -11.35 -33.25 -5.3 -33.25 0.95 -33.25 8.3 -31.85" fill="#ffed7f" fill-rule="evenodd" stroke="none"/>
      <path d="M16.3 -6.6 Q16.4 -4.0 17.05 4.7 L17.6 15.95 Q9.2 11.3 -10.0 5.2 -29.0 -0.75 -36.0 -1.0 -36.7 -3.65 -37.0 -8.35 -37.4 -13.15 -37.1 -15.9 -4.9 -18.2 16.25 -6.5 L16.3 -6.6" fill="#f2d62c" fill-rule="evenodd" stroke="none"/>
      <path d="M37.2 -19.05 Q37.45 -16.35 36.6 -9.8 L34.8 1.15 28.4 7.75 Q22.8 13.25 18.25 16.4 L17.6 15.95 17.05 4.7 Q16.4 -4.0 16.3 -6.6 19.65 -10.55 25.75 -13.9 30.1 -16.35 37.2 -19.05" fill="#c6b63c" fill-rule="evenodd" stroke="none"/>
      <path d="M2.4 -23.9 Q9.85 -30.15 14.25 -32.85 L8.7 -34.25 3.35 -35.15 Q-1.55 -32.9 -9.4 -26.3 -17.0 -19.9 -19.3 -16.2 L-19.15 -16.4 -13.0 -15.25 -6.65 -15.5 -6.35 -15.85 Q-4.25 -18.25 2.4 -23.9 M17.8 -32.3 Q15.15 -31.55 6.1 -24.2 -2.3 -17.45 -4.85 -14.45 -5.05 -6.85 -3.95 10.25 -2.95 25.8 -2.05 32.45 -3.9 32.65 -13.8 28.3 -15.5 27.8 -18.9 9.05 -22.3 -9.95 -21.55 -16.4 -19.75 -20.15 -11.25 -27.5 -2.5 -35.0 3.0 -37.25 6.5 -37.05 11.8 -35.7 18.5 -34.05 17.8 -32.3" fill="#242d20" fill-rule="evenodd" stroke="none"/>
      <path d="M3.35 -35.15 L8.7 -34.25 14.25 -32.85 Q9.85 -30.15 2.4 -23.9 -4.25 -18.25 -6.35 -15.85 L-6.65 -15.5 -13.0 -15.25 -19.15 -16.4 Q-16.7 -20.15 -9.25 -26.45 -1.5 -32.95 3.35 -35.15" fill="#4c5947" fill-rule="evenodd" stroke="none"/>
    </g>
  </defs>
</svg>
