<?xml version="1.0" encoding="UTF-8" standalone="no"?>
<svg xmlns:ffdec="https://www.free-decompiler.com/flash" xmlns:xlink="http://www.w3.org/1999/xlink" ffdec:objectType="shape" height="480.0px" width="640.0px" xmlns="http://www.w3.org/2000/svg">
  <g transform="matrix(1.0, 0.0, 0.0, 1.0, 320.0, 240.0)">
    <path d="M320.0 240.0 L-320.0 240.0 -320.0 -240.0 320.0 -240.0 320.0 240.0" fill="url(#gradient0)" fill-rule="evenodd" stroke="none"/>
    <path d="M-199.8 -68.7 Q-194.65 -69.6 -191.75 -73.65 -133.5 -154.55 -72.35 -240.0 L17.75 -240.0 Q-4.7 -207.35 -135.0 -33.7 -137.35 -30.8 -141.25 -30.7 L-144.65 -31.2 -204.4 -68.65 -199.8 -68.7 M-92.65 -240.0 L-75.8 -240.0 Q-191.65 -79.6 -194.65 -75.7 -197.65 -71.9 -202.65 -71.65 -207.75 -71.35 -209.9 -75.2 -211.6 -78.25 -241.4 -123.7 L-281.0 -183.95 Q-282.25 -185.9 -282.2 -190.45 -282.1 -195.1 -280.6 -196.95 L-245.0 -240.0 -233.05 -240.0 -258.7 -207.05 -231.95 -240.0 -94.15 -240.0 Q-193.45 -109.45 -195.35 -107.25 -197.5 -104.8 -201.8 -105.35 -206.0 -105.9 -208.0 -108.5 L-259.55 -174.25 Q-212.0 -107.6 -210.5 -104.3 -208.1 -98.85 -202.15 -98.75 -196.55 -98.7 -192.85 -103.05 -188.65 -107.95 -92.65 -240.0 M55.05 -196.0 Q82.55 -218.4 106.5 -230.3 82.05 -224.05 49.35 -197.45 13.7 -168.45 -13.1 -129.45 -44.25 -84.2 -54.55 -37.05 -66.6 17.8 -48.65 68.9 -62.8 11.5 -48.65 -43.6 -36.75 -90.05 -5.35 -132.8 19.9 -167.3 55.05 -196.0 M265.6 -111.3 Q271.4 -145.75 265.9 -172.2 260.1 -200.05 242.6 -214.3 275.65 -164.2 255.4 -92.6 239.75 -37.25 196.5 20.35 176.8 46.55 151.25 68.75 125.9 90.8 98.9 105.35 71.05 120.35 45.75 125.05 18.9 130.05 -1.8 122.75 17.4 132.95 44.6 129.75 70.2 126.75 99.5 112.35 128.05 98.35 155.25 75.9 182.9 53.15 204.2 25.75 228.0 -5.35 244.2 -41.85 259.85 -77.2 265.6 -111.3 M290.55 -187.25 Q309.8 -166.5 320.0 -153.65 L320.0 62.15 Q291.0 109.05 241.0 147.6 198.65 180.2 150.2 188.35 113.35 194.55 64.7 186.95 59.6 183.4 19.35 160.75 -17.85 139.8 -25.95 132.95 -4.95 149.3 24.45 151.05 52.6 152.65 85.25 140.7 117.45 128.9 149.65 105.45 182.5 81.5 210.95 48.65 239.4 15.8 258.3 -21.6 276.55 -57.75 283.75 -93.75 290.85 -129.55 286.1 -160.4 281.25 -192.1 264.4 -214.4 273.45 -205.8 290.55 -187.25 M237.4 -240.0 Q252.05 -228.55 262.35 -212.2 273.05 -195.2 278.55 -173.75 287.4 -139.05 280.0 -97.8 272.8 -58.0 251.5 -17.6 230.15 22.75 198.0 57.4 164.7 93.35 124.5 117.95 84.85 142.2 47.8 146.6 13.1 150.7 -14.75 137.05 -41.75 123.75 -57.55 96.3 -73.55 68.45 -74.85 31.45 -77.45 -42.1 -38.3 -112.4 -0.05 -181.1 67.35 -228.1 76.3 -234.35 86.4 -240.0 L237.4 -240.0" fill="#ffffff" fill-opacity="0.5019608" fill-rule="evenodd" stroke="none"/>
    <path d="M-1.5 -94.1 L-12.7 -93.2 -26.9 -94.0 Q-27.7 -94.4 -28.7 -97.3 -29.2 -98.7 -29.2 -99.8 -29.2 -101.0 -27.6 -104.3 L-6.1 -106.1 15.8 -107.0 16.2 -104.1 16.5 -101.3 Q16.5 -98.6 14.2 -96.4 L-1.5 -94.1 M14.8 -115.5 Q0.1 -113.6 -7.0 -113.6 L-16.8 -113.7 -26.6 -113.8 Q-27.8 -114.1 -29.8 -115.7 -30.0 -118.3 -29.4 -119.2 L-27.0 -121.8 -9.1 -124.8 8.7 -126.7 11.0 -126.8 Q16.7 -126.8 16.7 -123.3 16.7 -121.8 15.8 -119.4 14.9 -116.7 14.8 -115.5" fill="#000000" fill-rule="evenodd" stroke="none"/>
  </g>
  <defs>
    <linearGradient gradientTransform="matrix(0.0, -0.293, -0.293, 0.0, 0.0, 0.0)" gradientUnits="userSpaceOnUse" id="gradient0" spreadMethod="pad" x1="-819.2" x2="819.2">
      <stop offset="0.0" stop-color="#ffffff"/>
      <stop offset="1.0" stop-color="#f8e7a5"/>
    </linearGradient>
  </defs>
</svg>
