<?xml version="1.0" encoding="UTF-8" standalone="no"?>
<svg xmlns:ffdec="https://www.free-decompiler.com/flash" xmlns:xlink="http://www.w3.org/1999/xlink" ffdec:objectType="shape" height="67.8px" width="65.7px" xmlns="http://www.w3.org/2000/svg">
  <g transform="matrix(1.0, 0.0, 0.0, 1.0, 32.85, 35.5)">
    <path d="M27.2 -29.9 Q28.7 -28.4 28.7 -26.35 L28.7 17.35 Q28.7 19.45 27.2 20.9 25.75 22.35 23.7 22.35 L-20.05 22.35 Q-22.1 22.35 -23.55 20.9 -25.0 19.45 -25.0 17.35 L-25.0 -26.35 Q-25.0 -28.4 -23.55 -29.9 -22.1 -31.35 -20.05 -31.35 L23.7 -31.35 Q25.75 -31.35 27.2 -29.9" fill="#ffffff" fill-rule="evenodd" stroke="none"/>
    <path d="M27.2 -29.9 Q25.75 -31.35 23.7 -31.35 L-20.05 -31.35 Q-22.1 -31.35 -23.55 -29.9 -25.0 -28.4 -25.0 -26.35 L-25.0 17.35 Q-25.0 19.45 -23.55 20.9 -22.1 22.35 -20.05 22.35 L23.7 22.35 Q25.75 22.35 27.2 20.9 28.7 19.45 28.7 17.35 L28.7 -26.35 Q28.7 -28.4 27.2 -29.9 M30.15 -32.8 Q32.85 -30.15 32.85 -26.35 L32.85 17.35 Q32.85 19.6 31.8 21.6 30.8 23.5 29.05 24.75 28.5 28.0 25.95 30.15 23.4 32.3 20.05 32.3 L-23.65 32.3 Q-27.45 32.3 -30.15 29.6 -32.85 26.95 -32.85 23.15 L-32.85 -20.55 Q-32.85 -22.8 -31.8 -24.75 -30.8 -26.7 -29.05 -27.95 -28.5 -31.2 -25.95 -33.3 -23.4 -35.5 -20.05 -35.5 L23.7 -35.5 Q27.45 -35.5 30.15 -32.8" fill="#000000" fill-rule="evenodd" stroke="none"/>
  </g>
</svg>
