<?xml version="1.0" encoding="UTF-8" standalone="no"?>
<svg xmlns:ffdec="https://www.free-decompiler.com/flash" xmlns:xlink="http://www.w3.org/1999/xlink" ffdec:objectType="shape" height="67.75px" width="67.75px" xmlns="http://www.w3.org/2000/svg">
  <g transform="matrix(1.0, 0.0, 0.0, 1.0, 36.05, 31.9)">
    <path d="M0.65 -27.65 Q11.75 -27.65 19.6 -19.8 27.45 -11.95 27.45 -0.85 27.45 10.25 19.6 18.1 11.75 25.95 0.65 25.95 -10.45 25.95 -18.3 18.1 -26.15 10.25 -26.15 -0.85 -26.15 -11.95 -18.3 -19.8 -10.45 -27.65 0.65 -27.65" fill="#ffffff" fill-rule="evenodd" stroke="none"/>
    <path d="M22.6 -22.8 Q31.7 -13.7 31.7 -0.85 31.7 12.0 22.6 21.1 L19.65 23.8 16.95 26.75 Q7.85 35.85 -5.0 35.85 -17.85 35.85 -26.95 26.75 -36.05 17.65 -36.05 4.8 -36.05 -8.0 -26.95 -17.1 L-24.05 -19.65 -21.3 -22.8 Q-12.2 -31.9 0.65 -31.9 13.5 -31.9 22.6 -22.8 M0.65 -27.65 Q-10.45 -27.65 -18.3 -19.8 -26.15 -11.95 -26.15 -0.85 -26.15 10.25 -18.3 18.1 -10.45 25.95 0.65 25.95 11.75 25.95 19.6 18.1 27.45 10.25 27.45 -0.85 27.45 -11.95 19.6 -19.8 11.75 -27.65 0.65 -27.65" fill="#f79b1d" fill-rule="evenodd" stroke="none"/>
    <path d="M7.25 -3.3 L12.25 3.95 Q15.4 8.4 16.65 11.4 15.2 13.65 10.3 14.65 L8.1 14.4 1.35 2.95 Q-1.65 9.2 -4.05 16.0 -5.1 16.95 -7.25 17.25 L-10.95 17.6 Q-14.2 17.45 -14.2 15.7 L-14.0 14.65 -6.55 -1.0 Q-8.3 -4.25 -11.35 -8.35 L-16.45 -15.1 -16.55 -15.45 Q-16.55 -16.25 -13.45 -16.7 L-9.55 -16.95 Q-5.35 -16.95 -4.85 -16.2 L0.65 -8.0 8.6 -18.1 Q9.3 -19.0 11.9 -19.0 14.85 -19.0 17.1 -17.85 15.65 -15.3 7.25 -3.3" fill="#f79b1d" fill-rule="evenodd" stroke="none"/>
  </g>
</svg>
