<?xml version="1.0" encoding="UTF-8" standalone="no"?>
<svg xmlns:ffdec="https://www.free-decompiler.com/flash" xmlns:xlink="http://www.w3.org/1999/xlink" ffdec:objectType="shape" height="60.1px" width="60.1px" xmlns="http://www.w3.org/2000/svg">
  <g transform="matrix(1.0, 0.0, 0.0, 1.0, 32.15, 28.2)">
    <path d="M-2.1 -22.2 Q-12.05 -22.2 -19.1 -15.15 -26.15 -8.1 -26.15 1.85 -26.15 11.8 -19.1 18.85 -12.05 25.9 -2.1 25.9 7.85 25.9 14.9 18.85 21.95 11.8 21.95 1.85 21.95 -8.1 14.9 -15.15 7.85 -22.2 -2.1 -22.2 M-32.15 1.85 Q-32.15 -10.6 -23.35 -19.4 -14.55 -28.2 -2.1 -28.2 10.35 -28.2 19.15 -19.4 27.95 -10.6 27.95 1.85 27.95 14.3 19.15 23.1 10.35 31.9 -2.1 31.9 -14.55 31.9 -23.35 23.1 -32.15 14.3 -32.15 1.85 M-6.05 -16.2 Q0.7 -15.65 5.75 -12.45 11.6 -8.7 12.35 -2.5 12.05 0.5 10.15 2.25 9.1 3.2 6.0 4.75 3.0 6.25 1.6 7.6 1.1 8.15 0.95 9.8 0.75 10.6 -0.2 11.2 -1.2 11.8 -2.1 11.8 L-5.15 11.1 Q-6.15 10.7 -6.1 8.7 -5.95 6.45 -3.75 4.6 -2.7 3.65 0.35 1.95 3.45 0.25 3.7 -2.25 3.25 -5.95 -0.7 -7.7 L-7.95 -10.1 Q-8.65 -13.65 -8.5 -15.6 -7.95 -16.3 -6.05 -16.2 M0.65 18.95 Q-0.6 20.4 -2.7 20.4 -5.45 20.4 -6.25 18.2 -6.5 16.25 -5.15 14.85 -3.9 12.9 -1.7 12.9 0.2 12.9 0.85 14.65 1.25 15.75 1.25 16.75 1.25 18.0 0.65 18.95" fill="#ffe069" fill-rule="evenodd" stroke="none"/>
  </g>
</svg>
