<?xml version="1.0" encoding="UTF-8" standalone="no"?>
<svg xmlns:ffdec="https://www.free-decompiler.com/flash" xmlns:xlink="http://www.w3.org/1999/xlink" ffdec:objectType="shape" height="75.05px" width="26.1px" xmlns="http://www.w3.org/2000/svg">
  <g transform="matrix(1.0, 0.0, 0.0, 1.0, 13.05, 37.55)">
    <path d="M-0.7 -36.25 Q0.7 -37.4 6.4 -37.55 12.2 -37.75 12.8 -36.0 13.45 -34.25 12.25 -1.45 11.15 30.75 10.55 35.65 10.2 37.85 6.9 37.45 3.5 37.1 -0.45 34.3 -11.15 26.75 -12.65 11.75 -14.25 -3.6 -9.75 -18.8 -5.9 -31.75 -0.7 -36.25 M-8.75 -7.5 Q-9.35 3.7 -7.3 11.7 -5.0 20.55 -0.35 21.45 2.95 22.1 6.05 12.65 8.9 3.85 9.95 -8.35 11.15 -21.1 9.5 -29.0 7.65 -38.1 2.55 -36.85 -2.1 -35.75 -5.3 -26.8 -8.15 -18.65 -8.75 -7.5" fill="#2c273b" fill-rule="evenodd" stroke="none"/>
    <path d="M-8.75 -7.5 Q-8.15 -18.65 -5.3 -26.8 -2.1 -35.75 2.55 -36.85 7.65 -38.1 9.5 -29.0 11.15 -21.1 9.95 -8.35 8.9 3.85 6.05 12.65 2.95 22.1 -0.35 21.45 -5.0 20.55 -7.3 11.7 -9.35 3.7 -8.75 -7.5" fill="#5d4d7b" fill-rule="evenodd" stroke="none"/>
  </g>
</svg>
