<?xml version="1.0" encoding="UTF-8" standalone="no"?>
<svg xmlns:ffdec="https://www.free-decompiler.com/flash" xmlns:xlink="http://www.w3.org/1999/xlink" ffdec:objectType="shape" height="54.65px" width="80.4px" xmlns="http://www.w3.org/2000/svg">
  <g transform="matrix(1.0, 0.0, 0.0, 1.0, 40.2, 27.35)">
    <path d="M17.15 -27.35 L40.2 -10.7 34.3 25.7 16.1 27.3 -31.1 26.25 -40.2 -19.3 17.15 -27.35" fill="#006cbc" fill-rule="evenodd" stroke="none"/>
    <path d="M-40.2 -19.3 L15.55 -27.0 11.6 23.55 -30.0 23.05 -40.2 -19.3" fill="#0f96ff" fill-rule="evenodd" stroke="none"/>
    <path d="M-16.6 14.0 Q-16.65 12.6 -15.95 11.0 -15.25 9.5 -14.45 9.1 -11.8 7.8 -9.5 8.25 -7.45 8.65 -6.55 10.2 -5.65 11.75 -6.65 13.35 -7.7 15.15 -10.75 16.1 -16.35 17.85 -16.6 14.0 M-10.45 -15.7 Q-2.75 -16.35 2.0 -14.35 7.25 -12.2 4.8 -8.05 1.7 -2.7 -4.6 0.65 L-9.05 3.0 Q-11.3 4.35 -12.35 5.9 -14.5 2.75 -11.05 -2.75 L-8.35 -6.85 Q-6.95 -9.0 -6.95 -10.2 -6.95 -11.35 -9.25 -9.3 -12.55 -6.15 -14.6 -4.4 -23.0 2.6 -25.75 -3.25 -28.15 -8.4 -22.9 -11.95 -18.4 -15.0 -10.45 -15.7" fill="#82c6ff" fill-rule="evenodd" stroke="none"/>
  </g>
</svg>
