<?xml version="1.0" encoding="UTF-8" standalone="no"?>
<svg xmlns:ffdec="https://www.free-decompiler.com/flash" xmlns:xlink="http://www.w3.org/1999/xlink" ffdec:objectType="shape" height="125.4px" width="47.45px" xmlns="http://www.w3.org/2000/svg">
  <g transform="matrix(1.0, 0.0, 0.0, 1.0, 23.75, 62.7)">
    <path d="M15.95 -11.95 Q18.9 -8.7 20.7 0.3 22.3 8.6 22.55 19.55 22.75 30.3 21.55 39.9 20.3 50.0 17.85 55.35 15.5 60.45 10.6 62.05 6.45 63.4 1.75 61.95 -2.6 60.65 -4.75 57.9 -7.0 55.0 -4.85 52.65 -2.6 50.15 -0.55 43.65 1.6 37.0 2.45 29.4 4.6 10.2 -2.5 1.75 -4.45 -0.6 -3.05 -4.4 -1.8 -8.0 1.6 -10.95 5.1 -14.05 8.8 -14.6 13.05 -15.15 15.95 -11.95" fill="#cf9d15" fill-rule="evenodd" stroke="none"/>
    <path d="M4.1 11.2 L3.35 6.3 18.8 9.0 4.1 11.2" fill="#ffcb28" fill-rule="evenodd" stroke="none"/>
    <path d="M5.0 18.35 L4.95 14.85 19.3 16.05 5.0 18.35" fill="#ffcb28" fill-rule="evenodd" stroke="none"/>
    <path d="M-16.15 -21.95 Q-12.55 -29.85 -8.05 -38.0 1.05 -54.25 5.9 -55.1 10.75 -55.95 13.55 -40.65 14.95 -32.95 15.4 -25.15 L-16.15 -21.95" fill="#ffa030" fill-rule="evenodd" stroke="none"/>
    <path d="M1.45 -62.45 Q4.75 -63.15 7.95 -62.0 10.8 -60.95 12.6 -58.9 14.4 -56.85 14.25 -54.95 14.1 -52.95 11.65 -52.2 6.2 -50.45 2.65 -51.5 -0.3 -52.4 -1.35 -55.0 -2.3 -57.35 -1.45 -59.7 -0.55 -62.05 1.45 -62.45" fill="#ffcb28" fill-rule="evenodd" stroke="none"/>
    <path d="M0.45 -32.8 Q8.5 -33.5 14.45 -29.6 21.2 -25.2 23.45 -15.8 25.0 -9.3 16.95 -4.3 9.55 0.25 -0.95 0.9 -11.9 1.55 -17.9 -2.75 -24.9 -7.75 -21.7 -17.75 -19.85 -23.7 -13.4 -28.0 -7.1 -32.2 0.45 -32.8" fill="#c2bea0" fill-rule="evenodd" stroke="none"/>
    <path d="M-14.65 -27.65 Q-9.75 -31.55 -4.05 -32.1 1.95 -32.75 6.55 -29.4 11.65 -25.55 13.55 -17.5 14.85 -11.75 8.55 -7.55 2.85 -3.7 -5.5 -3.1 -14.15 -2.5 -18.9 -5.95 -24.4 -9.9 -21.7 -17.75 -19.75 -23.65 -14.65 -27.65" fill="#fffbcd" fill-rule="evenodd" stroke="none"/>
    <path d="M-0.85 -16.35 L-7.85 -17.9 0.35 -20.0 2.6 -26.2 4.15 -19.95 14.9 -17.6 4.1 -16.15 1.05 -9.7 -0.85 -16.35 M-17.0 -23.25 L-18.8 -18.65 -16.05 -18.6 -19.8 -16.75 -22.0 -10.9 -22.65 -16.3 -17.0 -23.25" fill="#231f20" fill-rule="evenodd" stroke="none"/>
    <path d="M-16.05 -15.85 Q-10.9 -16.95 -7.55 -15.0 -4.6 -13.35 -4.1 -10.05 -3.6 -6.9 -5.7 -4.3 -7.95 -1.4 -12.25 -0.9 -16.6 -0.4 -19.8 -2.25 -22.7 -3.95 -23.5 -6.85 -24.35 -9.75 -22.55 -12.2 -20.55 -14.9 -16.05 -15.85" fill="#c1262e" fill-rule="evenodd" stroke="none"/>
    <path d="M-19.85 -13.2 L-15.15 -13.05 Q-13.5 -11.75 -16.75 -10.2 -19.85 -8.7 -20.9 -10.55 -21.35 -11.3 -21.05 -12.05 -20.75 -12.9 -19.85 -13.2" fill="#fdfdfd" fill-rule="evenodd" stroke="none"/>
  </g>
</svg>
