<?xml version="1.0" encoding="UTF-8" standalone="no"?>
<svg xmlns:ffdec="https://www.free-decompiler.com/flash" xmlns:xlink="http://www.w3.org/1999/xlink" ffdec:objectType="shape" height="82.65px" width="70.65px" xmlns="http://www.w3.org/2000/svg">
  <g transform="matrix(1.0, 0.0, 0.0, 1.0, 35.3, 41.35)">
    <path d="M7.45 -17.95 L3.9 -18.9 Q3.05 -24.0 2.65 -29.4 1.95 -40.15 4.5 -41.35 L10.85 -40.4 Q14.5 -39.7 14.5 -38.45 9.0 -36.35 7.65 -26.95 7.0 -22.25 7.45 -17.95" fill="#744d25" fill-rule="evenodd" stroke="none"/>
    <path d="M15.65 -21.85 Q37.35 -27.9 35.15 -4.3 33.75 10.8 24.25 31.95 19.85 41.7 9.95 40.5 6.8 40.15 3.55 38.75 L0.85 37.4 Q-3.25 39.95 -8.2 40.9 -18.15 42.85 -22.5 35.05 -25.55 29.65 -28.7 21.95 -33.35 10.4 -34.75 1.3 -36.6 -10.75 -32.4 -17.05 -27.2 -24.75 -13.15 -23.4 L-2.25 -21.9 5.4 -20.55 10.95 -20.2 Q13.45 -20.45 15.65 -21.85" fill="#9a0013" fill-rule="evenodd" stroke="none"/>
    <path d="M-29.65 -6.25 Q-29.1 -13.85 -23.7 -16.35 -18.75 -18.65 -13.75 -18.0 -9.95 -17.5 -3.4 -14.7 -0.6 -13.5 1.05 -10.55 2.65 -7.65 2.8 -3.9 3.15 4.55 -2.75 10.95 -8.4 17.0 -15.55 16.9 -22.6 16.8 -25.55 10.95 -30.2 1.5 -29.65 -6.25" fill="#ca0011" fill-rule="evenodd" stroke="none"/>
    <path d="M-17.15 -15.0 Q-16.3 -13.4 -16.95 -11.55 -17.7 -9.45 -20.2 -7.8 -22.65 -6.15 -24.55 -6.7 -26.25 -7.2 -26.85 -9.1 -27.5 -11.0 -26.7 -13.0 -25.9 -15.2 -23.7 -16.35 -21.6 -17.45 -19.7 -17.0 -17.95 -16.55 -17.15 -15.0" fill="#fdfdfd" fill-rule="evenodd" stroke="none"/>
    <path d="M9.0 -0.25 Q12.55 -5.0 16.65 -5.7 20.4 -6.3 23.15 -3.35 25.9 -0.35 26.05 4.85 26.3 10.6 23.1 17.0 19.95 23.3 15.7 23.75 11.95 24.15 8.95 20.1 6.0 16.1 5.75 10.55 5.5 4.4 9.0 -0.25" fill="#4c0008" fill-rule="evenodd" stroke="none"/>
    <path d="M8.2 -0.25 Q10.85 -5.0 13.95 -5.7 16.8 -6.3 18.85 -3.35 20.95 -0.35 21.1 4.85 21.25 10.6 18.85 17.0 16.45 23.3 13.25 23.75 10.45 24.15 8.15 20.1 5.95 16.1 5.75 10.55 5.55 4.4 8.2 -0.25" fill="#68665b" fill-rule="evenodd" stroke="none"/>
  </g>
</svg>
