<?xml version="1.0" encoding="UTF-8" standalone="no"?>
<svg xmlns:ffdec="https://www.free-decompiler.com/flash" xmlns:xlink="http://www.w3.org/1999/xlink" ffdec:objectType="shape" height="63.75px" width="52.3px" xmlns="http://www.w3.org/2000/svg">
  <g transform="matrix(1.0, 0.0, 0.0, 1.0, 26.15, 31.9)">
    <path d="M18.2 -29.8 Q21.7 -27.2 23.5 -22.3 25.7 -16.75 26.05 -10.35 26.5 -3.5 24.7 2.5 20.4 17.0 5.95 20.6 -3.7 23.0 -12.1 27.2 -16.4 29.35 -20.75 31.85 -24.05 32.0 -25.35 29.5 -26.6 27.3 -25.9 23.65 -25.3 20.05 -23.15 16.75 -20.9 13.15 -17.9 11.35 -14.0 7.8 -8.35 5.15 L-3.85 3.15 Q-1.25 2.0 0.4 1.05 5.45 -1.85 5.4 -8.8 5.4 -11.05 4.8 -15.15 4.15 -19.85 4.05 -21.65 3.7 -26.2 6.0 -29.05 8.1 -31.7 11.55 -31.9 15.05 -32.15 18.2 -29.8 M19.0 -18.75 L18.6 -19.8 Q17.25 -23.4 15.35 -26.25 10.25 -33.9 6.2 -28.8 4.6 -27.0 5.45 -21.95 6.3 -17.05 8.55 -13.8 8.45 -9.55 7.6 -5.55 6.45 -0.1 4.5 1.45 7.6 6.65 11.6 5.5 13.25 5.0 14.25 3.55 15.3 2.1 15.2 0.3 13.9 -0.1 12.1 -0.95 9.8 -2.05 8.15 -3.4 13.25 -0.45 16.85 -2.6 20.1 -4.55 19.7 -8.4 16.8 -9.15 13.75 -10.5 16.45 -9.85 18.1 -10.95 19.2 -11.75 19.6 -13.15 22.65 -13.25 23.4 -15.5 24.2 -17.9 21.7 -19.55 21.3 -19.85 20.4 -19.35 19.6 -18.9 19.0 -18.75 M18.1 -23.15 Q18.75 -22.2 20.55 -22.1 22.7 -21.95 22.55 -23.0 22.4 -24.1 19.75 -24.1 17.45 -24.15 18.1 -23.15 M0.95 5.35 Q0.1 5.85 -0.1 7.2 -0.3 8.45 0.1 9.75 0.5 11.15 1.3 11.8 2.2 12.5 3.25 12.0 5.7 10.85 6.4 9.2 7.05 7.8 6.3 6.5 5.55 5.2 4.1 4.85 2.5 4.45 0.95 5.35" fill="#73a529" fill-rule="evenodd" stroke="none"/>
    <path d="M19.6 -13.15 Q19.2 -11.75 18.1 -10.95 16.45 -9.85 13.75 -10.5 16.8 -9.15 19.7 -8.4 20.1 -4.55 16.85 -2.6 13.25 -0.45 8.15 -3.4 9.8 -2.05 12.1 -0.95 13.9 -0.1 15.2 0.3 15.3 2.1 14.25 3.55 13.25 5.0 11.6 5.5 7.6 6.65 4.5 1.45 6.45 -0.1 7.6 -5.55 8.45 -9.55 8.55 -13.8 6.3 -17.05 5.45 -21.95 4.6 -27.0 6.2 -28.8 10.25 -33.9 15.35 -26.25 17.25 -23.4 18.6 -19.8 L19.0 -18.75 18.4 -18.65 Q17.6 -18.55 16.05 -19.15 14.8 -19.6 14.0 -19.15 11.3 -17.55 12.35 -15.55 13.5 -13.4 18.85 -13.15 L19.6 -13.15 M11.9 -22.25 Q11.15 -23.15 9.75 -22.1 7.1 -20.15 8.15 -19.3 9.2 -18.45 11.4 -20.3 12.6 -21.35 11.9 -22.25 M0.95 5.35 Q2.5 4.45 4.1 4.85 5.55 5.2 6.3 6.5 7.05 7.8 6.4 9.2 5.7 10.85 3.25 12.0 2.2 12.5 1.3 11.8 0.5 11.15 0.1 9.75 -0.3 8.45 -0.1 7.2 0.1 5.85 0.95 5.35" fill="#aee431" fill-rule="evenodd" stroke="none"/>
    <path d="M18.1 -23.15 Q17.45 -24.15 19.75 -24.1 22.4 -24.1 22.55 -23.0 22.7 -21.95 20.55 -22.1 18.75 -22.2 18.1 -23.15 M11.9 -22.25 Q12.6 -21.35 11.4 -20.3 9.2 -18.45 8.15 -19.3 7.1 -20.15 9.75 -22.1 11.15 -23.15 11.9 -22.25" fill="#231f20" fill-rule="evenodd" stroke="none"/>
    <path d="M19.6 -13.15 L18.85 -13.15 Q13.5 -13.4 12.35 -15.55 11.3 -17.55 14.0 -19.15 14.8 -19.6 16.05 -19.15 17.6 -18.55 18.4 -18.65 L19.0 -18.75 Q19.6 -18.9 20.4 -19.35 21.3 -19.85 21.7 -19.55 24.2 -17.9 23.4 -15.5 22.65 -13.25 19.6 -13.15 M18.6 -16.65 Q17.6 -16.5 16.9 -16.9 L16.05 -16.8 Q15.85 -16.35 16.25 -15.75 17.3 -14.1 19.95 -15.35 20.75 -15.7 20.8 -16.65 20.9 -17.6 20.2 -17.15 19.55 -16.75 18.6 -16.65" fill="#ea008a" fill-rule="evenodd" stroke="none"/>
    <path d="M18.6 -16.65 Q19.55 -16.75 20.2 -17.15 20.9 -17.6 20.8 -16.65 20.75 -15.7 19.95 -15.35 17.3 -14.1 16.25 -15.75 15.85 -16.35 16.05 -16.8 L16.9 -16.9 Q17.6 -16.5 18.6 -16.65" fill="#000000" fill-rule="evenodd" stroke="none"/>
  </g>
</svg>
