<?xml version="1.0" encoding="UTF-8" standalone="no"?>
<svg xmlns:ffdec="https://www.free-decompiler.com/flash" xmlns:xlink="http://www.w3.org/1999/xlink" ffdec:objectType="shape" height="59.45px" width="75.25px" xmlns="http://www.w3.org/2000/svg">
  <g transform="matrix(1.0, 0.0, 0.0, 1.0, 37.6, 29.75)">
    <path d="M-36.3 -19.7 L-19.95 -29.75 -12.65 -19.75 -1.05 -29.1 13.15 -21.45 19.75 -29.75 35.35 -23.0 Q38.6 -10.35 37.25 2.6 36.0 14.85 25.2 22.4 15.3 29.4 1.7 29.7 -12.2 30.05 -22.6 23.15 -34.15 15.5 -36.75 1.4 -38.7 -9.1 -36.3 -19.7" fill="#e3efc8" fill-rule="evenodd" stroke="none"/>
    <path d="M28.45 -25.75 L35.35 -23.0 Q38.85 -5.3 36.65 4.9 33.8 18.1 21.2 24.4 11.8 29.1 1.55 29.4 -8.25 29.7 -16.8 25.95 -25.4 22.1 -30.65 15.0 -36.2 7.4 -36.8 -2.4 -29.55 9.95 -18.55 13.55 -8.55 16.8 2.05 12.2 12.35 7.8 19.55 -2.25 27.1 -12.8 28.45 -25.75" fill="#bac698" fill-rule="evenodd" stroke="none"/>
    <path d="M-31.15 -22.75 L-19.95 -29.75 -12.65 -19.75 -1.05 -29.1 13.15 -21.45 19.75 -29.75 29.55 -25.4 20.85 -26.4 13.85 -19.75 -0.8 -26.4 -12.8 -18.4 -20.45 -27.4 -31.15 -22.75" fill="#fdfdfd" fill-rule="evenodd" stroke="none"/>
  </g>
</svg>
