<?xml version="1.0" encoding="UTF-8" standalone="no"?>
<svg xmlns:ffdec="https://www.free-decompiler.com/flash" xmlns:xlink="http://www.w3.org/1999/xlink" ffdec:objectType="shape" height="30.6px" width="22.65px" xmlns="http://www.w3.org/2000/svg">
  <g transform="matrix(1.0, 0.0, 0.0, 1.0, 10.45, 57.8)">
    <path d="M-7.3 -55.1 Q-4.45 -57.8 1.25 -57.8 5.75 -57.8 8.45 -55.85 12.2 -53.45 12.2 -49.25 12.2 -47.45 11.3 -45.8 10.25 -44.15 7.25 -41.9 5.3 -40.25 4.7 -39.2 4.1 -38.3 4.1 -36.65 L-3.7 -36.65 -3.7 -37.4 Q-3.7 -39.35 -3.25 -40.7 L-1.9 -42.95 2.15 -46.55 Q3.8 -47.9 3.8 -48.95 3.8 -50.15 3.2 -50.75 2.45 -51.35 1.1 -51.35 -0.25 -51.35 -1.3 -50.45 -2.2 -49.4 -2.5 -47.0 L-10.45 -48.05 Q-10.0 -52.4 -7.3 -55.1 M4.4 -27.2 L-3.85 -27.2 -3.85 -34.55 4.4 -34.55 4.4 -27.2" fill="#000000" fill-rule="evenodd" stroke="none"/>
  </g>
</svg>
