<?xml version="1.0" encoding="UTF-8" standalone="no"?>
<svg xmlns:ffdec="https://www.free-decompiler.com/flash" xmlns:xlink="http://www.w3.org/1999/xlink" ffdec:objectType="shape" height="69.6px" width="70.0px" xmlns="http://www.w3.org/2000/svg">
  <g transform="matrix(1.0, 0.0, 0.0, 1.0, 35.0, 69.6)">
    <path d="M-10.05 -30.7 Q-9.7 -30.4 -9.7 -30.05 L-9.9 -29.55 -10.45 -29.35 -10.95 -29.55 -11.2 -30.05 -10.85 -30.7 Q-11.4 -30.4 -11.4 -29.8 L-11.1 -29.1 Q-10.85 -28.8 -10.45 -28.8 -10.05 -28.8 -9.75 -29.1 -9.45 -29.35 -9.45 -29.8 -9.45 -30.4 -10.05 -30.7 M4.0 -37.4 Q2.4 -39.6 -0.4 -40.2 -3.2 -40.8 -5.55 -39.45 -7.9 -38.1 -8.45 -35.55 -8.95 -33.05 -7.3 -30.85 -5.7 -28.65 -2.9 -28.05 -0.1 -27.45 2.25 -28.8 4.55 -30.15 5.1 -32.7 5.6 -35.2 4.0 -37.4 M-29.3 -39.8 Q-29.3 -40.4 -28.8 -40.8 L-29.45 -40.2 -29.7 -39.4 Q-29.7 -38.75 -29.2 -38.3 -28.8 -37.8 -28.15 -37.8 -27.5 -37.8 -27.05 -38.3 -26.55 -38.75 -26.55 -39.4 -26.55 -40.35 -27.45 -40.8 -26.95 -40.4 -26.95 -39.8 -26.95 -39.3 -27.3 -38.95 -27.65 -38.65 -28.15 -38.65 L-29.0 -38.95 -29.3 -39.8 M-15.9 -42.75 L-16.85 -41.9 -17.2 -40.65 Q-17.2 -39.75 -16.55 -39.05 -15.85 -38.4 -14.9 -38.4 -14.0 -38.4 -13.3 -39.05 -12.65 -39.75 -12.65 -40.65 -12.65 -41.35 -13.0 -41.9 L-13.95 -42.75 -14.9 -43.05 -15.9 -42.75 -14.9 -42.95 -13.95 -42.75 Q-13.2 -42.2 -13.2 -41.3 -13.2 -40.55 -13.7 -40.05 -14.2 -39.55 -14.9 -39.55 -15.65 -39.55 -16.15 -40.05 -16.65 -40.55 -16.65 -41.3 -16.65 -42.2 -15.9 -42.75 M-26.25 -63.05 Q-25.7 -62.65 -25.7 -62.05 -25.7 -61.6 -26.05 -61.25 -26.4 -60.9 -26.9 -60.9 -27.4 -60.9 -27.75 -61.25 L-28.1 -62.05 Q-28.1 -62.7 -27.55 -63.05 L-28.2 -62.5 -28.45 -61.65 -28.0 -60.55 Q-27.55 -60.1 -26.9 -60.1 -26.25 -60.1 -25.8 -60.55 -25.35 -61.0 -25.35 -61.65 -25.35 -62.65 -26.25 -63.05 M2.85 -60.75 Q3.25 -60.75 3.5 -61.05 L3.8 -61.75 Q3.8 -62.3 3.25 -62.6 L3.6 -62.0 3.35 -61.5 Q3.15 -61.25 2.85 -61.25 2.55 -61.25 2.3 -61.5 L2.1 -62.0 Q2.1 -62.35 2.45 -62.6 1.85 -62.3 1.85 -61.75 1.85 -61.35 2.15 -61.05 2.45 -60.75 2.85 -60.75 M25.8 -21.6 L25.1 -21.05 24.85 -20.2 Q24.85 -19.55 25.35 -19.1 25.8 -18.6 26.4 -18.6 27.05 -18.6 27.55 -19.1 28.0 -19.55 28.0 -20.2 L27.75 -21.05 27.1 -21.6 Q27.65 -21.2 27.65 -20.6 27.65 -20.1 27.3 -19.8 26.9 -19.45 26.4 -19.45 25.95 -19.45 25.6 -19.8 25.25 -20.1 25.25 -20.6 25.25 -21.25 25.8 -21.6 M27.3 -43.95 L27.6 -44.65 Q27.6 -45.2 27.0 -45.5 L27.35 -44.9 27.15 -44.35 26.6 -44.15 Q26.3 -44.15 26.1 -44.35 L25.85 -44.9 Q25.85 -45.25 26.2 -45.5 25.65 -45.2 25.65 -44.65 25.65 -44.25 25.95 -43.95 26.2 -43.65 26.6 -43.65 27.0 -43.65 27.3 -43.95 M5.65 -42.45 L5.0 -43.0 Q5.5 -42.6 5.5 -42.0 5.5 -41.55 5.15 -41.2 4.8 -40.85 4.3 -40.85 3.8 -40.85 3.45 -41.2 3.1 -41.55 3.1 -42.0 3.1 -42.65 3.65 -43.0 L3.0 -42.45 2.75 -41.6 Q2.75 -40.95 3.2 -40.5 3.65 -40.05 4.3 -40.05 4.95 -40.05 5.4 -40.5 5.85 -40.95 5.85 -41.6 L5.65 -42.45 M24.2 -46.15 Q23.45 -45.45 22.45 -45.45 21.4 -45.45 20.65 -46.15 19.95 -46.9 19.95 -47.95 19.95 -49.25 21.05 -50.0 L22.45 -50.3 23.8 -50.0 Q24.9 -49.25 24.9 -47.95 24.9 -46.9 24.2 -46.15 M15.45 -45.65 L14.8 -46.2 Q15.35 -45.8 15.35 -45.2 15.35 -44.75 15.0 -44.4 14.6 -44.05 14.15 -44.05 13.65 -44.05 13.3 -44.4 12.95 -44.75 12.95 -45.2 12.95 -45.85 13.5 -46.2 12.6 -45.8 12.6 -44.8 12.6 -44.15 13.05 -43.7 13.5 -43.25 14.15 -43.25 14.75 -43.25 15.25 -43.7 15.7 -44.15 15.7 -44.8 L15.45 -45.65 M27.25 -52.15 Q29.3 -50.15 31.35 -46.0 L32.8 -42.4 Q33.05 -41.45 32.9 -40.55 32.7 -39.25 31.6 -39.5 L30.45 -39.9 29.25 -40.4 Q27.35 -41.25 24.8 -41.6 L20.2 -42.05 17.6 -42.15 15.1 -41.55 Q13.0 -40.4 14.0 -37.2 14.5 -35.55 16.2 -32.75 18.2 -29.5 19.55 -27.7 21.65 -24.9 23.7 -23.4 24.6 -22.8 26.15 -22.75 L28.65 -22.9 30.65 -22.75 Q31.45 -22.35 31.8 -21.1 32.3 -19.35 32.25 -18.15 32.2 -16.65 31.15 -15.45 30.25 -14.45 26.25 -17.55 L21.75 -21.4 17.3 -25.9 12.85 -30.4 Q10.55 -32.6 9.0 -31.95 7.85 -31.45 7.95 -29.85 L8.6 -27.4 Q8.9 -26.5 9.7 -25.5 L11.2 -23.85 13.8 -20.95 16.2 -17.95 Q18.8 -14.15 18.0 -10.8 17.7 -9.5 16.4 -7.95 L14.05 -5.65 Q9.9 -2.25 9.65 -2.95 9.35 -3.7 9.3 -4.9 L9.2 -6.9 Q8.7 -14.55 8.1 -16.8 6.5 -23.15 1.95 -23.05 -1.2 -22.95 -2.05 -20.05 -2.6 -18.35 -2.5 -13.6 -2.4 -8.95 -3.0 -7.1 -4.05 -4.15 -7.4 -4.0 -11.6 -3.8 -14.45 -6.4 -17.25 -8.95 -17.5 -13.1 -17.65 -16.0 -16.05 -20.7 -14.15 -26.1 -13.95 -28.2 -13.6 -31.25 -14.55 -33.7 -15.8 -36.85 -18.6 -36.95 L-23.95 -36.6 Q-27.3 -36.3 -29.35 -36.65 -32.8 -37.25 -32.95 -40.5 -33.0 -41.85 -32.5 -42.3 -32.1 -42.75 -30.8 -42.8 L-28.3 -42.7 -25.85 -42.6 -20.15 -42.9 Q-16.8 -43.55 -16.0 -46.15 -15.35 -48.2 -17.15 -50.6 -18.3 -52.1 -20.6 -53.95 -24.95 -57.4 -28.45 -58.55 -31.6 -59.6 -30.35 -62.5 -29.2 -65.15 -26.55 -66.25 -25.3 -66.7 -24.5 -65.55 L-23.35 -63.25 Q-21.6 -60.1 -18.7 -55.8 -14.35 -49.4 -12.25 -47.55 -7.5 -43.4 -3.1 -46.9 1.25 -50.35 0.95 -58.6 0.5 -61.65 0.6 -63.0 0.75 -65.35 3.35 -65.6 5.45 -65.85 7.15 -65.0 7.55 -64.8 7.1 -63.4 L6.35 -61.75 Q5.2 -58.85 3.35 -53.2 2.8 -51.45 2.8 -49.85 2.75 -47.75 3.8 -46.7 5.6 -44.9 8.6 -46.2 10.7 -47.05 12.95 -49.15 L16.25 -52.4 Q18.25 -54.1 20.3 -54.7 23.7 -55.65 27.25 -52.15 M25.7 -47.05 Q25.7 -48.0 25.15 -48.8 24.65 -49.6 23.8 -50.0 L22.45 -50.45 21.05 -50.0 Q20.2 -49.6 19.7 -48.8 19.15 -48.0 19.15 -47.05 19.15 -45.7 20.15 -44.75 21.1 -43.8 22.45 -43.8 23.8 -43.8 24.75 -44.75 25.7 -45.7 25.7 -47.05 M-5.85 -21.6 L-6.8 -21.85 -7.8 -21.6 -6.8 -21.8 -5.85 -21.6 Q-5.1 -21.05 -5.1 -20.1 -5.1 -19.4 -5.6 -18.9 -6.1 -18.4 -6.8 -18.4 -7.5 -18.4 -8.05 -18.9 -8.55 -19.4 -8.55 -20.1 -8.55 -21.05 -7.8 -21.6 L-8.75 -20.75 -9.1 -19.5 Q-9.1 -18.55 -8.45 -17.9 -7.75 -17.2 -6.8 -17.2 -5.85 -17.2 -5.2 -17.9 -4.55 -18.55 -4.55 -19.5 -4.55 -20.15 -4.9 -20.75 -5.25 -21.3 -5.85 -21.6 M13.4 -13.95 L14.4 -13.75 Q15.15 -13.25 15.15 -12.3 15.15 -11.6 14.65 -11.05 14.15 -10.6 13.4 -10.6 12.7 -10.6 12.15 -11.05 11.7 -11.6 11.7 -12.3 11.7 -13.25 12.45 -13.75 L13.4 -13.95 M14.95 -17.45 L15.3 -16.85 15.1 -16.3 14.55 -16.1 Q14.25 -16.1 14.05 -16.3 L13.8 -16.85 Q13.8 -17.2 14.15 -17.45 13.6 -17.15 13.6 -16.6 13.6 -16.2 13.9 -15.9 14.15 -15.6 14.55 -15.6 14.95 -15.6 15.25 -15.9 L15.55 -16.6 Q15.55 -17.15 14.95 -17.45 M15.0 -10.05 Q15.7 -10.75 15.7 -11.7 15.7 -12.35 15.3 -12.9 L14.4 -13.75 13.4 -14.05 Q12.85 -14.05 12.45 -13.75 L11.5 -12.9 Q11.15 -12.35 11.15 -11.7 11.15 -10.75 11.8 -10.05 12.45 -9.4 13.4 -9.4 14.35 -9.4 15.0 -10.05 M-7.7 -7.8 Q-7.9 -7.6 -8.25 -7.6 L-8.75 -7.8 -8.95 -8.35 -8.65 -8.95 Q-9.2 -8.7 -9.2 -8.1 L-8.9 -7.4 Q-8.65 -7.1 -8.25 -7.1 -7.8 -7.1 -7.55 -7.4 -7.25 -7.7 -7.25 -8.1 -7.25 -8.7 -7.8 -8.95 -7.5 -8.75 -7.5 -8.35 L-7.7 -7.8 M-12.65 -16.55 L-11.25 -16.85 -9.85 -16.55 Q-8.75 -15.8 -8.75 -14.45 -8.75 -13.45 -9.45 -12.7 -10.2 -12.0 -11.25 -12.0 -12.25 -12.0 -13.0 -12.7 -13.75 -13.45 -13.75 -14.45 -13.75 -15.8 -12.65 -16.55 L-14.0 -15.35 Q-14.5 -14.55 -14.5 -13.6 -14.5 -12.25 -13.55 -11.3 -12.6 -10.35 -11.25 -10.35 -9.9 -10.35 -8.95 -11.3 -8.0 -12.25 -8.0 -13.6 -8.0 -14.55 -8.5 -15.35 -9.0 -16.15 -9.85 -16.55 L-11.25 -17.0 -12.65 -16.55" fill="#ffffff" fill-rule="evenodd" stroke="none"/>
    <path d="M15.1 -16.3 L15.3 -16.85 14.95 -17.45 Q15.55 -17.15 15.55 -16.6 L15.25 -15.9 Q14.95 -15.6 14.55 -15.6 14.15 -15.6 13.9 -15.9 13.6 -16.2 13.6 -16.6 13.6 -17.15 14.15 -17.45 13.8 -17.2 13.8 -16.85 L14.05 -16.3 Q14.25 -16.1 14.55 -16.1 L15.1 -16.3 M15.7 -11.7 Q15.7 -10.75 15.0 -10.05 14.35 -9.4 13.4 -9.4 12.45 -9.4 11.8 -10.05 11.15 -10.75 11.15 -11.7 11.15 -12.35 11.5 -12.9 L12.45 -13.75 Q11.7 -13.25 11.7 -12.3 11.7 -11.6 12.15 -11.05 12.7 -10.6 13.4 -10.6 14.15 -10.6 14.65 -11.05 15.15 -11.6 15.15 -12.3 15.15 -13.25 14.4 -13.75 L15.3 -12.9 Q15.7 -12.35 15.7 -11.7 M-8.95 -8.35 L-8.75 -7.8 -8.25 -7.6 Q-7.9 -7.6 -7.7 -7.8 L-7.5 -8.35 Q-7.5 -8.75 -7.8 -8.95 -7.25 -8.7 -7.25 -8.1 -7.25 -7.7 -7.55 -7.4 -7.8 -7.1 -8.25 -7.1 -8.65 -7.1 -8.9 -7.4 L-9.2 -8.1 Q-9.2 -8.7 -8.65 -8.95 L-8.95 -8.35 M-9.85 -16.55 Q-9.0 -16.15 -8.5 -15.35 -8.0 -14.55 -8.0 -13.6 -8.0 -12.25 -8.95 -11.3 -9.9 -10.35 -11.25 -10.35 -12.6 -10.35 -13.55 -11.3 -14.5 -12.25 -14.5 -13.6 -14.5 -14.55 -14.0 -15.35 L-12.65 -16.55 Q-13.75 -15.8 -13.75 -14.45 -13.75 -13.45 -13.0 -12.7 -12.25 -12.0 -11.25 -12.0 -10.2 -12.0 -9.45 -12.7 -8.75 -13.45 -8.75 -14.45 -8.75 -15.8 -9.85 -16.55 M-4.9 -20.75 Q-4.55 -20.15 -4.55 -19.5 -4.55 -18.55 -5.2 -17.9 -5.85 -17.2 -6.8 -17.2 -7.75 -17.2 -8.45 -17.9 -9.1 -18.55 -9.1 -19.5 L-8.75 -20.75 -7.8 -21.6 Q-8.55 -21.05 -8.55 -20.1 -8.55 -19.4 -8.05 -18.9 -7.5 -18.4 -6.8 -18.4 -6.1 -18.4 -5.6 -18.9 -5.1 -19.4 -5.1 -20.1 -5.1 -21.05 -5.85 -21.6 -5.25 -21.3 -4.9 -20.75 M-9.9 -29.55 L-9.7 -30.05 Q-9.7 -30.4 -10.05 -30.7 -9.45 -30.4 -9.45 -29.8 -9.45 -29.35 -9.75 -29.1 -10.05 -28.8 -10.45 -28.8 -10.85 -28.8 -11.1 -29.1 L-11.4 -29.8 Q-11.4 -30.4 -10.85 -30.7 L-11.2 -30.05 -10.95 -29.55 -10.45 -29.35 -9.9 -29.55 M-0.4 -40.2 Q2.4 -39.6 4.0 -37.4 5.6 -35.2 5.1 -32.7 4.55 -30.15 2.25 -28.8 -0.1 -27.45 -2.9 -28.05 -5.7 -28.65 -7.3 -30.85 -8.95 -33.05 -8.45 -35.55 -7.9 -38.1 -5.55 -39.45 -3.2 -40.8 -0.4 -40.2 M-27.45 -40.8 Q-26.55 -40.35 -26.55 -39.4 -26.55 -38.75 -27.05 -38.3 -27.5 -37.8 -28.15 -37.8 -28.8 -37.8 -29.2 -38.3 -29.7 -38.75 -29.7 -39.4 L-29.45 -40.2 -28.8 -40.8 Q-29.3 -40.4 -29.3 -39.8 L-29.0 -38.95 -28.15 -38.65 Q-27.65 -38.65 -27.3 -38.95 -26.95 -39.3 -26.95 -39.8 -26.95 -40.4 -27.45 -40.8 M-16.65 -41.3 Q-16.65 -40.55 -16.15 -40.05 -15.65 -39.55 -14.9 -39.55 -14.2 -39.55 -13.7 -40.05 -13.2 -40.55 -13.2 -41.3 -13.2 -42.2 -13.95 -42.75 L-13.0 -41.9 Q-12.65 -41.35 -12.65 -40.65 -12.65 -39.75 -13.3 -39.05 -14.0 -38.4 -14.9 -38.4 -15.85 -38.4 -16.55 -39.05 -17.2 -39.75 -17.2 -40.65 L-16.85 -41.9 -15.9 -42.75 Q-16.65 -42.2 -16.65 -41.3 M-26.25 -63.05 Q-25.35 -62.65 -25.35 -61.65 -25.35 -61.0 -25.8 -60.55 -26.25 -60.1 -26.9 -60.1 -27.55 -60.1 -28.0 -60.55 L-28.45 -61.65 -28.2 -62.5 -27.55 -63.05 Q-28.1 -62.7 -28.1 -62.05 L-27.75 -61.25 Q-27.4 -60.9 -26.9 -60.9 -26.4 -60.9 -26.05 -61.25 -25.7 -61.6 -25.7 -62.05 -25.7 -62.65 -26.25 -63.05 M3.5 -61.05 Q3.25 -60.75 2.85 -60.75 2.45 -60.75 2.15 -61.05 1.85 -61.35 1.85 -61.75 1.85 -62.3 2.45 -62.6 2.1 -62.35 2.1 -62.0 L2.3 -61.5 Q2.55 -61.25 2.85 -61.25 3.15 -61.25 3.35 -61.5 L3.6 -62.0 3.25 -62.6 Q3.8 -62.3 3.8 -61.75 L3.5 -61.05 M27.1 -21.6 L27.75 -21.05 28.0 -20.2 Q28.0 -19.55 27.55 -19.1 27.05 -18.6 26.4 -18.6 25.8 -18.6 25.35 -19.1 24.85 -19.55 24.85 -20.2 L25.1 -21.05 25.8 -21.6 Q25.25 -21.25 25.25 -20.6 25.25 -20.1 25.6 -19.8 25.95 -19.45 26.4 -19.45 26.9 -19.45 27.3 -19.8 27.65 -20.1 27.65 -20.6 27.65 -21.2 27.1 -21.6 M27.6 -44.65 L27.3 -43.95 Q27.0 -43.65 26.6 -43.65 26.2 -43.65 25.95 -43.95 25.65 -44.25 25.65 -44.65 25.65 -45.2 26.2 -45.5 25.85 -45.25 25.85 -44.9 L26.1 -44.35 Q26.3 -44.15 26.6 -44.15 L27.15 -44.35 27.35 -44.9 27.0 -45.5 Q27.6 -45.2 27.6 -44.65 M5.65 -42.45 L5.85 -41.6 Q5.85 -40.95 5.4 -40.5 4.95 -40.05 4.3 -40.05 3.65 -40.05 3.2 -40.5 2.75 -40.95 2.75 -41.6 L3.0 -42.45 3.65 -43.0 Q3.1 -42.65 3.1 -42.0 3.1 -41.55 3.45 -41.2 3.8 -40.85 4.3 -40.85 4.8 -40.85 5.15 -41.2 5.5 -41.55 5.5 -42.0 5.5 -42.6 5.0 -43.0 L5.65 -42.45 M14.8 -46.2 L15.45 -45.65 15.7 -44.8 Q15.7 -44.15 15.25 -43.7 14.75 -43.25 14.15 -43.25 13.5 -43.25 13.05 -43.7 12.6 -44.15 12.6 -44.8 12.6 -45.8 13.5 -46.2 12.95 -45.85 12.95 -45.2 12.95 -44.75 13.3 -44.4 13.65 -44.05 14.15 -44.05 14.6 -44.05 15.0 -44.4 15.35 -44.75 15.35 -45.2 15.35 -45.8 14.8 -46.2 M6.5 -68.4 Q9.8 -67.55 9.55 -64.55 9.4 -62.75 7.5 -58.75 5.6 -54.65 5.05 -53.15 3.65 -49.1 4.8 -47.5 5.6 -46.35 8.05 -47.85 L11.1 -50.25 16.7 -55.9 Q20.4 -59.1 23.7 -58.3 28.75 -57.1 33.05 -48.7 L34.45 -45.15 Q35.05 -43.05 35.0 -41.4 35.0 -39.7 34.6 -38.4 34.0 -36.55 32.7 -36.55 31.9 -36.5 30.65 -37.3 L28.75 -38.45 Q25.15 -39.65 22.75 -39.85 L19.0 -40.2 15.35 -40.1 Q13.45 -39.4 17.4 -34.5 19.45 -31.95 22.5 -28.8 L24.25 -26.9 Q25.35 -26.0 26.55 -25.95 L29.4 -25.9 Q31.1 -25.8 32.2 -25.35 34.8 -24.2 34.7 -19.9 34.65 -15.65 32.45 -13.9 31.0 -12.65 28.4 -13.85 27.05 -14.5 24.8 -16.2 20.0 -19.8 14.75 -25.35 L11.85 -28.9 Q9.9 -31.2 9.6 -30.4 9.3 -29.55 10.85 -27.9 L12.9 -25.95 17.55 -20.85 Q20.2 -17.7 20.75 -14.9 22.0 -9.25 16.7 -4.3 14.65 -2.35 12.4 -1.05 9.0 0.85 7.6 -0.75 6.65 -1.9 6.4 -4.5 6.25 -5.8 6.25 -8.5 6.35 -13.35 5.95 -15.8 5.4 -19.15 3.7 -20.8 2.6 -21.85 1.6 -21.2 0.75 -20.55 0.35 -18.8 0.15 -17.7 0.25 -16.05 L0.5 -13.3 Q0.75 -10.05 -0.05 -6.65 -1.1 -2.5 -3.3 -1.25 L-10.2 -1.45 Q-14.15 -2.85 -16.35 -5.2 -18.6 -7.5 -19.3 -10.8 -19.95 -13.9 -19.2 -17.2 L-17.8 -21.4 Q-16.75 -24.1 -16.45 -25.5 L-15.55 -30.05 Q-15.2 -33.05 -16.45 -34.3 -17.3 -35.15 -19.3 -34.7 L-22.5 -33.95 -25.5 -33.55 -28.5 -33.45 Q-31.05 -33.75 -32.9 -35.5 -34.85 -37.3 -35.0 -40.0 -35.2 -43.7 -33.25 -44.5 L-29.55 -44.9 -25.85 -44.65 -21.35 -44.65 Q-18.2 -44.85 -17.55 -46.25 -17.1 -47.3 -18.2 -48.8 L-20.2 -50.85 Q-24.75 -55.15 -29.0 -56.55 -33.2 -58.0 -33.2 -62.2 -33.2 -66.25 -29.75 -68.4 -28.85 -68.95 -27.15 -69.35 L-24.45 -69.5 Q-23.5 -69.2 -22.9 -67.95 L-22.0 -65.8 -17.8 -58.5 Q-15.35 -54.4 -13.1 -51.5 -10.75 -48.55 -9.7 -47.8 -7.4 -46.1 -5.15 -47.5 -1.95 -49.45 -1.6 -54.6 -1.5 -56.35 -1.7 -59.05 L-1.95 -63.1 Q-2.05 -66.35 0.75 -67.85 3.35 -69.2 6.5 -68.4 M31.35 -46.0 Q29.3 -50.15 27.25 -52.15 23.7 -55.65 20.3 -54.7 18.25 -54.1 16.25 -52.4 L12.95 -49.15 Q10.7 -47.05 8.6 -46.2 5.6 -44.9 3.8 -46.7 2.75 -47.75 2.8 -49.85 2.8 -51.45 3.35 -53.2 5.2 -58.85 6.35 -61.75 L7.1 -63.4 Q7.55 -64.8 7.15 -65.0 5.45 -65.85 3.35 -65.6 0.75 -65.35 0.6 -63.0 0.5 -61.65 0.95 -58.6 1.25 -50.35 -3.1 -46.9 -7.5 -43.4 -12.25 -47.55 -14.35 -49.4 -18.7 -55.8 -21.6 -60.1 -23.35 -63.25 L-24.5 -65.55 Q-25.3 -66.7 -26.55 -66.25 -29.2 -65.15 -30.35 -62.5 -31.6 -59.6 -28.45 -58.55 -24.95 -57.4 -20.6 -53.95 -18.3 -52.1 -17.15 -50.6 -15.35 -48.2 -16.0 -46.15 -16.8 -43.55 -20.15 -42.9 L-25.85 -42.6 -28.3 -42.7 -30.8 -42.8 Q-32.1 -42.75 -32.5 -42.3 -33.0 -41.85 -32.95 -40.5 -32.8 -37.25 -29.35 -36.65 -27.3 -36.3 -23.95 -36.6 L-18.6 -36.95 Q-15.8 -36.85 -14.55 -33.7 -13.6 -31.25 -13.95 -28.2 -14.15 -26.1 -16.05 -20.7 -17.65 -16.0 -17.5 -13.1 -17.25 -8.95 -14.45 -6.4 -11.6 -3.8 -7.4 -4.0 -4.05 -4.15 -3.0 -7.1 -2.4 -8.95 -2.5 -13.6 -2.6 -18.35 -2.05 -20.05 -1.2 -22.95 1.95 -23.05 6.5 -23.15 8.1 -16.8 8.7 -14.55 9.2 -6.9 L9.3 -4.9 Q9.35 -3.7 9.65 -2.95 9.9 -2.25 14.05 -5.65 L16.4 -7.95 Q17.7 -9.5 18.0 -10.8 18.8 -14.15 16.2 -17.95 L13.8 -20.95 11.2 -23.85 9.7 -25.5 Q8.9 -26.5 8.6 -27.4 L7.95 -29.85 Q7.85 -31.45 9.0 -31.95 10.55 -32.6 12.85 -30.4 L17.3 -25.9 21.75 -21.4 26.25 -17.55 Q30.25 -14.45 31.15 -15.45 32.2 -16.65 32.25 -18.15 32.3 -19.35 31.8 -21.1 31.45 -22.35 30.65 -22.75 L28.65 -22.9 26.15 -22.75 Q24.6 -22.8 23.7 -23.4 21.65 -24.9 19.55 -27.7 18.2 -29.5 16.2 -32.75 14.5 -35.55 14.0 -37.2 13.0 -40.4 15.1 -41.55 L17.6 -42.15 20.2 -42.05 24.8 -41.6 Q27.35 -41.25 29.25 -40.4 L30.45 -39.9 31.6 -39.5 Q32.7 -39.25 32.9 -40.55 33.05 -41.45 32.8 -42.4 L31.35 -46.0 M25.15 -48.8 Q25.7 -48.0 25.7 -47.05 25.7 -45.7 24.75 -44.75 23.8 -43.8 22.45 -43.8 21.1 -43.8 20.15 -44.75 19.15 -45.7 19.15 -47.05 19.15 -48.0 19.7 -48.8 20.2 -49.6 21.05 -50.0 19.95 -49.25 19.95 -47.95 19.95 -46.9 20.65 -46.15 21.4 -45.45 22.45 -45.45 23.45 -45.45 24.2 -46.15 24.9 -46.9 24.9 -47.95 24.9 -49.25 23.8 -50.0 24.65 -49.6 25.15 -48.8" fill="#030303" fill-rule="evenodd" stroke="none"/>
  </g>
</svg>
