<?xml version="1.0" encoding="UTF-8" standalone="no"?>
<svg xmlns:ffdec="https://www.free-decompiler.com/flash" xmlns:xlink="http://www.w3.org/1999/xlink" ffdec:objectType="shape" height="70.0px" width="80.0px" xmlns="http://www.w3.org/2000/svg">
  <g transform="matrix(1.0, 0.0, 0.0, 1.0, 40.0, 70.0)">
    <path d="M19.45 -28.3 L20.2 -31.5 Q23.35 -32.4 26.95 -31.05 30.5 -29.8 32.6 -26.95 31.45 -21.9 29.15 -17.05 25.5 -9.45 19.0 -6.15 14.55 -3.85 9.25 -3.85 6.0 -3.85 2.8 -4.75 -0.45 -5.65 -3.1 -7.3 -7.55 -10.05 -11.4 -16.45 -14.9 -22.3 -16.5 -28.75 -16.9 -30.2 -18.2 -30.6 -19.05 -36.75 -14.2 -37.6 -17.5 -38.25 -18.9 -35.75 -19.95 -33.9 -19.85 -30.7 L-21.55 -29.9 Q-23.0 -31.5 -23.45 -32.95 -24.0 -35.1 -22.35 -36.75 -24.85 -35.65 -24.45 -33.1 -24.2 -31.35 -22.65 -29.15 L-25.75 -26.25 Q-27.45 -27.2 -28.15 -28.45 -29.05 -30.15 -28.1 -32.2 -30.0 -30.35 -29.15 -28.3 -28.6 -26.75 -26.7 -25.3 -30.9 -20.5 -32.75 -15.95 -33.5 -14.15 -33.3 -12.2 L-33.0 -9.1 Q-33.9 -9.5 -34.9 -10.95 -36.15 -12.8 -36.5 -15.25 -37.45 -22.2 -30.85 -30.8 -23.75 -40.15 -18.1 -40.15 -15.3 -40.15 -12.8 -37.75 -11.65 -36.6 -10.6 -34.65 L-8.9 -30.85 -8.95 -31.0 Q-10.55 -31.2 -11.9 -30.4 -14.65 -28.85 -13.7 -23.95 -13.8 -27.8 -11.6 -29.1 -10.25 -29.9 -8.4 -29.65 L-6.4 -24.85 -6.2 -24.5 Q-8.05 -24.65 -9.35 -23.7 -11.75 -22.0 -10.85 -17.45 -10.95 -21.25 -8.7 -22.6 -7.4 -23.35 -5.55 -23.15 -1.5 -15.7 2.85 -14.75 L3.65 -14.65 Q3.95 -12.0 3.4 -10.0 2.65 -7.2 0.3 -6.25 3.35 -6.4 4.3 -9.55 5.0 -11.65 4.7 -14.6 6.9 -14.7 9.3 -15.55 11.2 -13.95 12.0 -12.0 13.1 -9.15 11.6 -6.1 14.1 -9.1 13.2 -12.2 12.65 -14.25 10.65 -16.15 12.55 -17.1 14.0 -18.5 16.65 -17.4 18.1 -15.55 20.2 -12.85 19.35 -8.85 21.3 -13.2 19.35 -16.3 18.0 -18.4 15.2 -19.7 L15.75 -20.4 17.0 -22.3 Q20.2 -22.4 22.4 -21.15 25.7 -19.25 26.25 -14.6 26.8 -20.1 23.5 -22.5 21.35 -24.1 17.95 -24.1 L18.85 -26.3 Q22.0 -27.1 24.5 -26.3 28.5 -25.05 29.6 -20.1 29.6 -26.25 25.25 -27.95 L19.45 -28.3 M24.15 -57.7 L25.05 -56.75 Q22.35 -56.4 19.85 -54.65 17.35 -52.85 15.85 -50.1 L13.95 -52.35 Q13.55 -55.4 14.6 -57.25 16.1 -59.85 20.2 -59.6 15.9 -61.4 14.0 -58.75 12.7 -57.0 12.6 -53.7 L10.6 -55.55 Q10.25 -58.15 11.1 -59.75 12.3 -62.0 15.75 -61.75 12.05 -63.3 10.5 -60.9 9.45 -59.3 9.45 -56.55 L6.3 -59.2 Q0.7 -63.65 0.35 -65.0 0.85 -67.05 4.5 -67.05 8.95 -67.05 14.75 -64.25 20.6 -61.5 24.15 -57.7 M28.75 -54.2 Q31.35 -52.85 33.0 -49.85 35.85 -44.7 36.85 -38.15 37.95 -30.5 35.35 -26.0 33.05 -31.15 27.25 -33.15 21.35 -35.15 16.95 -32.2 18.1 -37.3 18.35 -39.9 18.8 -44.45 16.6 -47.1 L16.55 -47.15 Q17.2 -50.35 19.2 -52.5 21.1 -54.5 23.7 -54.95 26.3 -55.45 28.75 -54.2" fill="#ffffff" fill-rule="evenodd" stroke="none"/>
    <path d="M20.2 -31.5 L19.45 -28.3 25.25 -27.95 Q29.6 -26.25 29.6 -20.1 28.5 -25.05 24.5 -26.3 22.0 -27.1 18.85 -26.3 L17.95 -24.1 Q21.35 -24.1 23.5 -22.5 26.8 -20.1 26.25 -14.6 25.7 -19.25 22.4 -21.15 20.2 -22.4 17.0 -22.3 L15.75 -20.4 15.2 -19.7 Q18.0 -18.4 19.35 -16.3 21.3 -13.2 19.35 -8.85 20.2 -12.85 18.1 -15.55 16.65 -17.4 14.0 -18.5 12.55 -17.1 10.65 -16.15 12.65 -14.25 13.2 -12.2 14.1 -9.1 11.6 -6.1 13.1 -9.15 12.0 -12.0 11.2 -13.95 9.3 -15.55 6.9 -14.7 4.7 -14.6 5.0 -11.65 4.3 -9.55 3.35 -6.4 0.3 -6.25 2.65 -7.2 3.4 -10.0 3.95 -12.0 3.65 -14.65 L2.85 -14.75 Q-1.5 -15.7 -5.55 -23.15 -7.4 -23.35 -8.7 -22.6 -10.95 -21.25 -10.85 -17.45 -11.75 -22.0 -9.35 -23.7 -8.05 -24.65 -6.2 -24.5 L-6.4 -24.85 -8.4 -29.65 Q-10.25 -29.9 -11.6 -29.1 -13.8 -27.8 -13.7 -23.95 -14.65 -28.85 -11.9 -30.4 -10.55 -31.2 -8.95 -31.0 L-8.9 -30.85 -10.6 -34.65 Q-11.65 -36.6 -12.8 -37.75 -15.3 -40.15 -18.1 -40.15 -23.75 -40.15 -30.85 -30.8 -37.45 -22.2 -36.5 -15.25 -36.15 -12.8 -34.9 -10.95 -33.9 -9.5 -33.0 -9.1 L-33.3 -12.2 Q-33.5 -14.15 -32.75 -15.95 -30.9 -20.5 -26.7 -25.3 -28.6 -26.75 -29.15 -28.3 -30.0 -30.35 -28.1 -32.2 -29.05 -30.15 -28.15 -28.45 -27.45 -27.2 -25.75 -26.25 L-22.65 -29.15 Q-24.2 -31.35 -24.45 -33.1 -24.85 -35.65 -22.35 -36.75 -24.0 -35.1 -23.45 -32.95 -23.0 -31.5 -21.55 -29.9 L-19.85 -30.7 Q-19.95 -33.9 -18.9 -35.75 -17.5 -38.25 -14.2 -37.6 -19.05 -36.75 -18.2 -30.6 -16.9 -30.2 -16.5 -28.75 -14.9 -22.3 -11.4 -16.45 -7.55 -10.05 -3.1 -7.3 -0.45 -5.65 2.8 -4.75 6.0 -3.85 9.25 -3.85 14.55 -3.85 19.0 -6.15 25.5 -9.45 29.15 -17.05 31.45 -21.9 32.6 -26.95 30.5 -29.8 26.95 -31.05 23.35 -32.4 20.2 -31.5 M25.05 -56.75 L24.15 -57.7 Q20.6 -61.5 14.75 -64.25 8.95 -67.05 4.5 -67.05 0.85 -67.05 0.35 -65.0 0.7 -63.65 6.3 -59.2 L9.45 -56.55 Q9.45 -59.3 10.5 -60.9 12.05 -63.3 15.75 -61.75 12.3 -62.0 11.1 -59.75 10.25 -58.15 10.6 -55.55 L12.6 -53.7 Q12.7 -57.0 14.0 -58.75 15.9 -61.4 20.2 -59.6 16.1 -59.85 14.6 -57.25 13.55 -55.4 13.95 -52.35 L15.85 -50.1 Q17.35 -52.85 19.85 -54.65 22.35 -56.4 25.05 -56.75 M33.0 -49.85 Q31.35 -52.85 28.75 -54.2 26.3 -55.45 23.7 -54.95 21.1 -54.5 19.2 -52.5 17.2 -50.35 16.55 -47.15 L16.6 -47.1 Q18.8 -44.45 18.35 -39.9 18.1 -37.3 16.95 -32.2 21.35 -35.15 27.25 -33.15 33.05 -31.15 35.35 -26.0 37.95 -30.5 36.85 -38.15 35.85 -44.7 33.0 -49.85 M29.0 -56.3 Q30.65 -55.7 32.05 -54.75 33.9 -53.6 34.8 -52.2 36.55 -49.4 37.95 -44.95 39.35 -40.4 39.8 -35.95 40.85 -24.95 35.75 -23.25 L35.55 -23.1 Q34.5 -19.0 32.75 -15.35 27.0 -3.4 14.25 -0.65 L3.6 -0.35 Q-1.55 -1.15 -5.35 -3.5 -10.75 -6.8 -14.25 -13.9 -16.45 -18.5 -18.9 -27.55 L-19.55 -27.6 -19.55 -27.7 Q-21.2 -27.1 -23.3 -25.25 -25.9 -23.05 -27.7 -20.25 -32.6 -12.6 -29.9 -4.35 -35.05 -6.3 -37.95 -10.8 -43.85 -19.85 -32.85 -32.75 -25.9 -40.9 -20.3 -42.55 -15.2 -44.0 -11.1 -40.0 -7.75 -36.7 -2.9 -26.65 L0.25 -20.6 Q1.95 -17.95 3.3 -17.7 6.7 -16.95 10.4 -20.5 13.8 -23.7 16.0 -28.95 15.25 -28.65 14.85 -29.9 14.0 -32.45 14.8 -37.75 15.6 -42.75 14.6 -44.6 14.25 -45.25 14.35 -45.6 L14.65 -47.1 Q12.1 -50.75 3.65 -57.7 0.4 -60.35 -0.85 -61.85 -2.55 -63.9 -2.25 -65.55 -1.55 -68.8 1.85 -69.7 L9.6 -69.3 Q14.0 -68.15 18.5 -65.6 23.05 -63.0 25.95 -59.9 L29.0 -56.3" fill="#000000" fill-rule="evenodd" stroke="none"/>
  </g>
</svg>
