<?xml version="1.0" encoding="UTF-8" standalone="no"?>
<svg xmlns:ffdec="https://www.free-decompiler.com/flash" xmlns:xlink="http://www.w3.org/1999/xlink" ffdec:objectType="shape" height="82.6px" width="80.0px" xmlns="http://www.w3.org/2000/svg">
  <g transform="matrix(1.0, 0.0, 0.0, 1.0, 40.0, 82.6)">
    <path d="M23.35 -51.3 Q22.5 -49.05 19.15 -49.2 15.8 -49.3 15.65 -51.25 16.8 -51.45 17.9 -52.35 18.95 -53.1 19.65 -54.35 21.25 -51.6 23.35 -51.3 M21.3 -57.7 Q22.8 -59.3 24.85 -57.85 26.7 -56.55 26.85 -54.7 L26.85 -54.1 Q26.7 -53.45 26.1 -53.2 24.35 -52.5 21.95 -54.1 19.5 -55.8 21.3 -57.7 M29.9 -62.95 L28.0 -62.7 Q27.2 -62.45 27.2 -62.05 27.2 -61.65 28.0 -61.4 L29.9 -61.15 31.8 -61.4 Q32.65 -61.65 32.65 -62.05 32.65 -62.45 31.8 -62.7 L29.9 -62.95 M13.25 -53.2 Q10.65 -53.8 12.65 -56.5 13.65 -57.9 15.1 -58.2 16.4 -58.45 17.45 -57.7 18.45 -57.05 18.5 -55.95 18.55 -54.8 17.15 -53.8 15.65 -52.65 13.25 -53.2 M10.1 -61.2 Q10.9 -61.5 10.9 -61.9 L10.1 -62.5 8.2 -62.8 6.25 -62.5 Q5.45 -62.25 5.45 -61.9 5.45 -61.5 6.25 -61.2 L8.2 -60.95 10.1 -61.2 M23.0 -75.4 L25.4 -75.65 31.0 -80.9 Q33.65 -70.6 34.6 -64.5 36.05 -55.55 34.85 -51.8 38.0 -32.8 36.85 -24.25 35.55 -14.85 31.65 -4.05 L28.75 -4.05 Q27.75 -9.0 27.4 -12.1 26.95 -16.5 27.35 -20.5 L28.4 -21.25 22.35 -20.55 13.6 -21.1 Q13.9 -20.55 14.15 -20.5 L14.35 -20.05 Q14.65 -10.85 12.35 -4.05 L9.0 -4.05 Q5.55 -9.75 3.7 -16.6 1.85 -23.65 2.25 -30.0 2.35 -31.3 1.65 -31.2 0.95 -31.05 0.85 -29.75 0.0 -17.1 5.1 -5.75 L2.8 -5.7 Q0.6 -7.7 -4.45 -8.2 -2.4 -9.45 -1.05 -11.35 0.25 -13.25 0.1 -15.8 -0.05 -18.0 -1.25 -20.3 -3.7 -25.0 -9.05 -26.95 -14.35 -28.85 -19.65 -27.15 -20.85 -26.7 -20.85 -26.15 -20.85 -25.6 -19.6 -26.0 -15.55 -27.35 -11.1 -25.5 -6.95 -23.7 -4.3 -20.1 -3.1 -18.45 -2.75 -16.7 -2.35 -14.75 -3.2 -13.1 -4.4 -10.7 -7.2 -8.95 -9.7 -7.35 -12.4 -6.9 -13.55 -6.7 -13.7 -6.1 -13.85 -5.5 -12.7 -5.55 L-5.95 -5.65 Q-0.9 -5.4 0.85 -3.8 L-15.9 -2.8 -20.95 -3.1 Q-23.7 -3.45 -25.6 -4.4 -25.75 -4.85 -26.2 -5.15 -30.4 -8.0 -33.2 -12.3 -35.95 -16.55 -36.95 -21.65 -38.1 -27.55 -36.05 -33.65 -34.25 -39.2 -30.1 -44.1 -26.6 -48.2 -25.25 -50.85 -22.95 -55.25 -24.15 -58.85 -24.95 -61.3 -27.7 -62.65 -29.95 -63.7 -32.95 -63.85 L-34.7 -63.85 Q-35.75 -63.85 -36.3 -64.35 -37.2 -65.15 -36.45 -67.55 -35.75 -69.95 -33.45 -70.65 L-28.8 -70.9 Q-24.1 -70.55 -21.05 -67.7 -17.85 -64.8 -17.65 -60.2 -17.45 -55.15 -20.6 -49.7 -22.85 -45.95 -27.45 -41.0 -30.95 -37.2 -32.2 -32.5 -33.75 -26.75 -31.55 -20.5 -31.4 -20.9 -31.3 -25.0 -30.4 -26.85 -28.15 -29.05 L-24.25 -32.65 Q-21.65 -34.9 -16.7 -37.9 L-8.9 -42.9 Q-4.65 -46.0 -3.15 -47.6 -0.95 -49.85 1.0 -53.7 0.7 -57.4 4.2 -66.5 L9.65 -80.3 12.75 -77.9 15.7 -75.3 Q18.45 -75.1 20.85 -75.3 L23.0 -75.4 M34.4 -52.75 Q34.6 -53.0 34.05 -53.25 L31.15 -54.5 28.05 -55.1 27.6 -55.85 Q31.6 -56.85 33.8 -55.85 34.3 -55.6 34.35 -55.95 L33.85 -56.45 Q32.3 -57.1 30.45 -57.25 L26.95 -57.0 26.7 -56.9 23.85 -59.15 Q22.3 -60.05 21.65 -59.95 21.4 -61.6 19.3 -61.35 17.2 -61.2 17.0 -59.75 L14.4 -58.6 Q12.8 -57.65 11.75 -56.45 L11.3 -57.0 7.8 -57.25 Q5.95 -57.1 4.4 -56.45 3.85 -56.2 3.9 -55.95 3.95 -55.6 4.5 -55.85 6.7 -56.85 10.95 -55.75 L11.15 -55.75 10.75 -55.1 7.4 -54.6 4.15 -53.25 Q3.65 -53.0 3.85 -52.75 4.0 -52.5 4.55 -52.75 7.25 -54.0 10.45 -53.8 L10.6 -53.05 Q11.05 -51.75 12.05 -51.25 L13.95 -50.85 Q15.0 -48.3 19.55 -48.3 24.2 -48.2 24.9 -51.15 L26.75 -51.5 Q27.7 -51.95 28.15 -52.8 L28.4 -53.8 Q31.2 -53.9 33.7 -52.75 34.2 -52.5 34.4 -52.75" fill="#ffffff" fill-rule="evenodd" stroke="none"/>
    <path d="M15.65 -51.25 Q15.8 -49.3 19.15 -49.2 22.5 -49.05 23.35 -51.3 21.25 -51.6 19.65 -54.35 18.95 -53.1 17.9 -52.35 16.8 -51.45 15.65 -51.25 M26.85 -54.1 L26.85 -54.7 Q26.7 -56.55 24.85 -57.85 22.8 -59.3 21.3 -57.7 19.5 -55.8 21.95 -54.1 24.35 -52.5 26.1 -53.2 26.7 -53.45 26.85 -54.1 M29.9 -61.15 L28.0 -61.4 Q27.2 -61.65 27.2 -62.05 27.2 -62.45 28.0 -62.7 L29.9 -62.95 31.8 -62.7 Q32.65 -62.45 32.65 -62.05 32.65 -61.65 31.8 -61.4 L29.9 -61.15 M12.65 -56.5 Q10.65 -53.8 13.25 -53.2 15.65 -52.65 17.15 -53.8 18.55 -54.8 18.5 -55.95 18.45 -57.05 17.45 -57.7 16.4 -58.45 15.1 -58.2 13.65 -57.9 12.65 -56.5 M10.9 -61.9 Q10.9 -61.5 10.1 -61.2 L8.2 -60.95 6.25 -61.2 Q5.45 -61.5 5.45 -61.9 5.45 -62.25 6.25 -62.5 L8.2 -62.8 10.1 -62.5 10.9 -61.9 M21.7 -77.0 L22.95 -77.15 24.55 -78.55 26.95 -80.35 29.3 -82.2 Q29.9 -82.7 30.8 -82.6 31.75 -82.45 31.9 -81.7 L36.15 -64.75 Q38.55 -54.05 37.4 -52.45 L38.5 -46.1 Q39.6 -39.2 39.85 -34.8 40.25 -28.65 39.45 -23.5 37.9 -13.05 33.95 -2.3 33.55 -1.3 32.65 -1.3 L27.5 -1.3 Q26.95 -1.3 26.55 -1.7 26.15 -2.1 26.15 -2.65 L25.65 -10.9 22.05 -8.95 Q19.55 -7.75 18.0 -7.5 23.45 -5.25 23.25 -3.2 23.25 -2.8 22.8 -2.5 22.35 -2.2 21.95 -2.2 L14.85 -2.5 14.8 -2.3 14.35 -1.6 Q13.95 -1.3 13.5 -1.3 L10.3 -1.05 Q8.0 -1.0 7.3 -1.7 L6.35 -3.0 4.3 -3.05 Q4.4 -2.5 4.15 -2.05 3.85 -1.5 3.35 -1.45 L0.05 -1.0 -17.4 -0.15 -23.9 -0.9 Q-27.4 -1.7 -29.65 -3.85 L-31.4 -5.85 Q-34.9 -9.3 -37.1 -13.65 -39.35 -18.1 -39.85 -22.9 -40.4 -28.05 -39.05 -33.15 -37.75 -38.25 -34.75 -42.5 -30.6 -47.15 -28.5 -50.35 -24.55 -56.4 -27.5 -59.2 -29.05 -60.65 -33.2 -60.9 -37.15 -61.1 -38.5 -62.8 -40.25 -64.95 -39.1 -68.3 -38.05 -71.55 -35.6 -72.85 -32.65 -74.45 -27.9 -73.7 -23.45 -73.05 -20.5 -70.9 -17.6 -68.8 -16.15 -65.65 -14.7 -62.5 -14.95 -58.9 -15.6 -50.15 -22.8 -41.95 L-26.7 -37.3 Q-28.6 -34.65 -29.35 -31.9 -27.15 -34.35 -23.45 -36.8 L-16.9 -40.9 -10.15 -44.95 Q-6.5 -47.3 -4.25 -49.9 L-1.65 -52.9 Q-0.95 -53.8 -0.7 -55.0 -0.55 -57.4 2.85 -66.45 L8.35 -81.1 Q8.55 -81.7 9.3 -82.05 L10.6 -82.0 13.65 -80.1 16.65 -78.15 17.55 -77.2 Q17.95 -76.85 18.35 -76.85 L21.7 -77.0 M31.0 -80.9 L25.4 -75.65 23.0 -75.4 20.85 -75.3 Q18.45 -75.1 15.7 -75.3 L12.75 -77.9 9.65 -80.3 4.2 -66.5 Q0.7 -57.4 1.0 -53.7 -0.95 -49.85 -3.15 -47.6 -4.65 -46.0 -8.9 -42.9 L-16.7 -37.9 Q-21.65 -34.9 -24.25 -32.65 L-28.15 -29.05 Q-30.4 -26.85 -31.3 -25.0 -31.4 -20.9 -31.55 -20.5 -33.75 -26.75 -32.2 -32.5 -30.95 -37.2 -27.45 -41.0 -22.85 -45.95 -20.6 -49.7 -17.45 -55.15 -17.65 -60.2 -17.85 -64.8 -21.05 -67.7 -24.1 -70.55 -28.8 -70.9 L-33.45 -70.65 Q-35.75 -69.95 -36.45 -67.55 -37.2 -65.15 -36.3 -64.35 -35.75 -63.85 -34.7 -63.85 L-32.95 -63.85 Q-29.95 -63.7 -27.7 -62.65 -24.95 -61.3 -24.15 -58.85 -22.95 -55.25 -25.25 -50.85 -26.6 -48.2 -30.1 -44.1 -34.25 -39.2 -36.05 -33.65 -38.1 -27.55 -36.95 -21.65 -35.95 -16.55 -33.2 -12.3 -30.4 -8.0 -26.2 -5.15 -25.75 -4.85 -25.6 -4.4 -23.7 -3.45 -20.95 -3.1 L-15.9 -2.8 0.85 -3.8 Q-0.9 -5.4 -5.95 -5.65 L-12.7 -5.55 Q-13.85 -5.5 -13.7 -6.1 -13.55 -6.7 -12.4 -6.9 -9.7 -7.35 -7.2 -8.95 -4.4 -10.7 -3.2 -13.1 -2.35 -14.75 -2.75 -16.7 -3.1 -18.45 -4.3 -20.1 -6.95 -23.7 -11.1 -25.5 -15.55 -27.35 -19.6 -26.0 -20.85 -25.6 -20.85 -26.15 -20.85 -26.7 -19.65 -27.15 -14.35 -28.85 -9.05 -26.95 -3.7 -25.0 -1.25 -20.3 -0.05 -18.0 0.1 -15.8 0.25 -13.25 -1.05 -11.35 -2.4 -9.45 -4.45 -8.2 0.6 -7.7 2.8 -5.7 L5.1 -5.75 Q0.0 -17.1 0.85 -29.75 0.95 -31.05 1.65 -31.2 2.35 -31.3 2.25 -30.0 1.85 -23.65 3.7 -16.6 5.55 -9.75 9.0 -4.05 L12.35 -4.05 Q14.65 -10.85 14.35 -20.05 L14.15 -20.5 Q13.9 -20.55 13.6 -21.1 L22.35 -20.55 28.4 -21.25 27.35 -20.5 Q26.95 -16.5 27.4 -12.1 27.75 -9.0 28.75 -4.05 L31.65 -4.05 Q35.55 -14.85 36.85 -24.25 38.0 -32.8 34.85 -51.8 36.05 -55.55 34.6 -64.5 33.65 -70.6 31.0 -80.9 M34.05 -53.25 Q34.6 -53.0 34.4 -52.75 34.2 -52.5 33.7 -52.75 31.2 -53.9 28.4 -53.8 L28.15 -52.8 Q27.7 -51.95 26.75 -51.5 L24.9 -51.15 Q24.2 -48.2 19.55 -48.3 15.0 -48.3 13.95 -50.85 L12.05 -51.25 Q11.05 -51.75 10.6 -53.05 L10.45 -53.8 Q7.25 -54.0 4.55 -52.75 4.0 -52.5 3.85 -52.75 3.65 -53.0 4.15 -53.25 L7.4 -54.6 10.75 -55.1 11.15 -55.75 10.95 -55.75 Q6.7 -56.85 4.5 -55.85 3.95 -55.6 3.9 -55.95 3.85 -56.2 4.4 -56.45 5.95 -57.1 7.8 -57.25 L11.3 -57.0 11.75 -56.45 Q12.8 -57.65 14.4 -58.6 L17.0 -59.75 Q17.2 -61.2 19.3 -61.35 21.4 -61.6 21.65 -59.95 22.3 -60.05 23.85 -59.15 L26.7 -56.9 26.95 -57.0 30.45 -57.25 Q32.3 -57.1 33.85 -56.45 L34.35 -55.95 Q34.3 -55.6 33.8 -55.85 31.6 -56.85 27.6 -55.85 L28.05 -55.1 31.15 -54.5 34.05 -53.25" fill="#030303" fill-rule="evenodd" stroke="none"/>
  </g>
</svg>
