<?xml version="1.0" encoding="UTF-8" standalone="no"?>
<svg xmlns:ffdec="https://www.free-decompiler.com/flash" xmlns:xlink="http://www.w3.org/1999/xlink" ffdec:objectType="shape" height="84.2px" width="79.95px" xmlns="http://www.w3.org/2000/svg">
  <g transform="matrix(1.0, 0.0, 0.0, 1.0, 40.0, 84.2)">
    <path d="M34.1 -51.1 Q35.65 -50.75 36.0 -48.4 36.3 -46.3 35.55 -44.95 35.0 -44.1 33.9 -44.45 32.85 -44.8 32.45 -45.65 32.05 -46.3 31.55 -48.0 L30.55 -50.25 33.8 -51.2 34.1 -51.1 M17.6 -67.25 Q16.8 -66.45 16.8 -65.35 16.8 -64.3 17.6 -63.5 18.35 -62.75 19.45 -62.75 20.5 -62.75 21.3 -63.5 22.05 -64.3 22.05 -65.35 22.05 -66.45 21.3 -67.25 20.55 -68.0 19.45 -68.0 18.35 -68.0 17.6 -67.25 M32.9 -67.9 Q34.75 -66.05 37.1 -66.4 37.8 -62.1 36.65 -58.5 35.25 -54.3 31.55 -53.15 L27.8 -52.5 24.05 -52.0 Q22.45 -51.65 21.2 -50.25 L19.05 -47.4 Q18.3 -46.4 18.6 -46.0 18.95 -45.65 19.75 -46.6 L21.2 -48.05 22.7 -49.25 Q25.95 -42.65 25.35 -30.65 L24.95 -21.15 Q24.9 -15.8 25.8 -12.0 L27.05 -8.0 Q27.5 -5.7 25.8 -4.5 24.4 -3.55 22.75 -3.95 21.2 -4.3 20.35 -5.75 19.55 -7.2 19.2 -9.7 L18.85 -13.8 Q18.45 -19.3 18.65 -23.1 L18.6 -24.05 17.8 -23.8 Q15.1 -22.45 6.95 -23.2 L6.05 -23.2 Q5.55 -23.15 5.45 -22.8 L6.2 -18.15 Q6.65 -15.75 7.35 -14.0 L9.35 -9.35 Q10.45 -6.4 10.15 -4.4 9.9 -3.15 8.35 -2.85 L5.85 -3.1 Q4.65 -3.6 3.65 -5.0 3.05 -5.85 2.2 -7.6 0.8 -10.45 -0.4 -14.65 L-2.2 -21.95 -2.65 -22.65 -3.45 -22.95 Q-4.85 -23.0 -6.45 -23.75 L-9.1 -25.2 Q-12.2 -26.85 -14.8 -25.25 -17.1 -23.8 -17.35 -22.8 L-17.7 -20.45 -18.05 -18.15 Q-18.5 -16.7 -19.6 -14.9 L-21.45 -11.85 Q-22.55 -9.85 -21.65 -8.0 L-20.95 -7.2 -20.35 -6.35 Q-20.25 -5.75 -22.45 -5.25 -24.4 -4.85 -26.35 -5.75 -28.1 -6.6 -29.3 -8.3 -29.95 -9.15 -29.75 -10.2 L-29.15 -12.1 -27.05 -18.4 Q-26.85 -19.2 -27.4 -19.7 -33.1 -24.35 -33.8 -31.45 -34.55 -38.55 -30.0 -44.35 L-29.5 -44.95 -29.05 -45.65 -28.25 -46.9 Q-28.3 -47.15 -29.25 -46.4 L-30.55 -45.3 -31.05 -44.95 Q-33.65 -46.0 -35.3 -48.3 -36.85 -50.55 -37.3 -53.5 -37.65 -56.35 -36.6 -60.2 -35.45 -64.55 -33.25 -66.55 -33.65 -61.1 -33.2 -57.95 -32.4 -52.65 -29.3 -50.75 -27.15 -49.45 -23.45 -49.7 L-17.25 -50.25 -11.9 -50.0 Q-8.8 -50.05 -6.85 -51.2 -4.85 -49.75 -0.25 -47.9 7.75 -44.65 9.2 -49.95 9.95 -52.65 8.9 -56.45 L6.6 -62.6 5.5 -64.95 Q4.75 -66.4 4.4 -67.9 4.4 -70.15 4.7 -71.1 5.1 -72.35 4.7 -72.5 4.3 -72.65 3.9 -71.45 L2.6 -67.35 Q2.35 -66.55 2.85 -65.05 L3.7 -62.8 4.8 -60.0 5.85 -57.25 Q6.8 -54.7 6.9 -52.55 7.05 -49.25 4.9 -49.15 3.25 -49.1 0.95 -50.1 L-2.8 -51.9 Q-9.2 -54.9 -8.2 -61.05 -7.4 -66.1 -2.4 -71.3 2.6 -76.45 8.75 -79.3 16.0 -82.65 22.0 -81.1 24.9 -80.35 27.0 -77.5 L30.15 -72.1 Q31.8 -69.05 32.9 -67.9" fill="#ffffff" fill-rule="evenodd" stroke="none"/>
    <path d="M36.0 -48.4 Q35.65 -50.75 34.1 -51.1 L33.8 -51.2 30.55 -50.25 31.55 -48.0 Q32.05 -46.3 32.45 -45.65 32.85 -44.8 33.9 -44.45 35.0 -44.1 35.55 -44.95 36.3 -46.3 36.0 -48.4 M16.8 -65.35 Q16.8 -66.45 17.6 -67.25 18.35 -68.0 19.45 -68.0 20.55 -68.0 21.3 -67.25 22.05 -66.45 22.05 -65.35 22.05 -64.3 21.3 -63.5 20.5 -62.75 19.45 -62.75 18.35 -62.75 17.6 -63.5 16.8 -64.3 16.8 -65.35 M32.3 -71.85 Q34.75 -68.1 37.7 -69.35 L38.7 -69.25 39.35 -68.4 Q40.35 -64.3 39.75 -60.2 39.1 -55.45 36.35 -52.9 38.3 -51.45 38.65 -48.4 39.0 -45.4 37.65 -43.45 36.8 -42.1 35.2 -41.8 33.7 -41.55 32.25 -42.25 30.6 -43.05 29.85 -45.5 28.95 -48.25 28.05 -49.1 L27.7 -49.9 24.15 -49.1 Q26.1 -44.1 26.65 -37.6 L27.0 -25.75 Q27.05 -17.15 28.6 -11.65 L29.7 -7.8 Q30.05 -5.7 29.0 -4.05 27.35 -1.35 23.65 -1.25 19.95 -1.15 18.35 -3.9 17.5 -5.5 17.1 -7.85 L16.6 -12.0 Q16.25 -16.65 16.35 -21.4 L12.15 -20.8 7.9 -21.0 Q8.0 -19.2 9.4 -15.8 L11.85 -9.8 Q14.55 -2.6 9.95 -0.65 L7.8 -0.05 6.45 -0.05 Q2.55 -0.5 -0.3 -6.4 -2.15 -10.2 -3.8 -17.15 L-5.9 -11.35 Q-6.85 -9.15 -5.6 -7.9 -4.95 -7.25 -4.15 -7.1 L-4.2 -5.9 Q-4.7 -4.75 -6.9 -4.75 L-11.95 -5.35 -14.35 -5.9 -14.4 -7.2 Q-14.25 -9.0 -13.15 -11.35 -12.75 -13.8 -13.75 -16.15 L-15.15 -18.85 -15.75 -16.8 Q-16.15 -15.75 -17.65 -13.45 -19.0 -11.4 -19.35 -10.15 -19.6 -9.45 -18.65 -8.25 -17.65 -6.95 -17.75 -6.1 -18.0 -3.15 -21.95 -2.65 -25.35 -2.25 -27.8 -3.55 -29.55 -4.5 -30.9 -5.9 -32.6 -7.7 -32.55 -9.25 -32.5 -11.1 -31.5 -13.8 -30.3 -16.85 -29.85 -18.35 -35.25 -23.1 -36.05 -30.15 -36.85 -37.2 -32.75 -42.8 -35.55 -44.2 -37.35 -46.75 -39.15 -49.25 -39.75 -52.45 -40.55 -56.75 -38.75 -61.25 -37.15 -65.15 -33.75 -68.65 -33.05 -69.4 -32.2 -68.85 -31.3 -68.35 -31.55 -67.4 -32.75 -62.3 -32.2 -59.0 -31.35 -54.55 -27.25 -52.7 -25.2 -51.75 -22.0 -51.55 -20.1 -51.45 -16.5 -51.65 L-12.65 -52.0 Q-10.5 -52.35 -8.95 -53.15 L-10.15 -54.95 Q-12.45 -59.8 -9.0 -65.8 -6.55 -70.1 -1.35 -74.75 4.15 -79.6 8.9 -81.9 15.1 -84.85 20.9 -84.0 23.9 -83.55 25.85 -82.2 27.85 -80.75 29.2 -78.15 L30.5 -75.2 Q31.45 -73.1 32.3 -71.85 M36.65 -58.5 Q37.8 -62.1 37.1 -66.4 34.75 -66.05 32.9 -67.9 31.8 -69.05 30.15 -72.1 L27.0 -77.5 Q24.9 -80.35 22.0 -81.1 16.0 -82.65 8.75 -79.3 2.6 -76.45 -2.4 -71.3 -7.4 -66.1 -8.2 -61.05 -9.2 -54.9 -2.8 -51.9 L0.95 -50.1 Q3.25 -49.1 4.9 -49.15 7.05 -49.25 6.9 -52.55 6.8 -54.7 5.85 -57.25 L4.8 -60.0 3.7 -62.8 2.85 -65.05 Q2.35 -66.55 2.6 -67.35 L3.9 -71.45 Q4.3 -72.65 4.7 -72.5 5.1 -72.35 4.7 -71.1 4.4 -70.15 4.4 -67.9 4.75 -66.4 5.5 -64.95 L6.6 -62.6 8.9 -56.45 Q9.95 -52.65 9.2 -49.95 7.75 -44.65 -0.25 -47.9 -4.85 -49.75 -6.85 -51.2 -8.8 -50.05 -11.9 -50.0 L-17.25 -50.25 -23.45 -49.7 Q-27.15 -49.45 -29.3 -50.75 -32.4 -52.65 -33.2 -57.95 -33.65 -61.1 -33.25 -66.55 -35.45 -64.55 -36.6 -60.2 -37.65 -56.35 -37.3 -53.5 -36.85 -50.55 -35.3 -48.3 -33.65 -46.0 -31.05 -44.95 L-30.55 -45.3 -29.25 -46.4 Q-28.3 -47.15 -28.25 -46.9 L-29.05 -45.65 -29.5 -44.95 -30.0 -44.35 Q-34.55 -38.55 -33.8 -31.45 -33.1 -24.35 -27.4 -19.7 -26.85 -19.2 -27.05 -18.4 L-29.15 -12.1 -29.75 -10.2 Q-29.95 -9.15 -29.3 -8.3 -28.1 -6.6 -26.35 -5.75 -24.4 -4.85 -22.45 -5.25 -20.25 -5.75 -20.35 -6.35 L-20.95 -7.2 -21.65 -8.0 Q-22.55 -9.85 -21.45 -11.85 L-19.6 -14.9 Q-18.5 -16.7 -18.05 -18.15 L-17.7 -20.45 -17.35 -22.8 Q-17.1 -23.8 -14.8 -25.25 -12.2 -26.85 -9.1 -25.2 L-6.45 -23.75 Q-4.85 -23.0 -3.45 -22.95 L-2.65 -22.65 -2.2 -21.95 -0.4 -14.65 Q0.8 -10.45 2.2 -7.6 3.05 -5.85 3.65 -5.0 4.65 -3.6 5.85 -3.1 L8.35 -2.85 Q9.9 -3.15 10.15 -4.4 10.45 -6.4 9.35 -9.35 L7.35 -14.0 Q6.65 -15.75 6.2 -18.15 L5.45 -22.8 Q5.55 -23.15 6.05 -23.2 L6.95 -23.2 Q15.1 -22.45 17.8 -23.8 L18.6 -24.05 18.65 -23.1 Q18.45 -19.3 18.85 -13.8 L19.2 -9.7 Q19.55 -7.2 20.35 -5.75 21.2 -4.3 22.75 -3.95 24.4 -3.55 25.8 -4.5 27.5 -5.7 27.05 -8.0 L25.8 -12.0 Q24.9 -15.8 24.95 -21.15 L25.35 -30.65 Q25.95 -42.65 22.7 -49.25 L21.2 -48.05 19.75 -46.6 Q18.95 -45.65 18.6 -46.0 18.3 -46.4 19.05 -47.4 L21.2 -50.25 Q22.45 -51.65 24.05 -52.0 L27.8 -52.5 31.55 -53.15 Q35.25 -54.3 36.65 -58.5" fill="#030303" fill-rule="evenodd" stroke="none"/>
  </g>
</svg>
