<?xml version="1.0" encoding="UTF-8" standalone="no"?>
<svg xmlns:ffdec="https://www.free-decompiler.com/flash" xmlns:xlink="http://www.w3.org/1999/xlink" ffdec:objectType="shape" height="84.4px" width="80.0px" xmlns="http://www.w3.org/2000/svg">
  <g transform="matrix(1.0, 0.0, 0.0, 1.0, 40.0, 84.4)">
    <path d="M-37.45 -50.8 Q-38.0 -52.3 -36.95 -54.15 L-35.6 -56.9 Q-33.65 -52.9 -31.05 -51.55 L-33.45 -50.05 -35.45 -48.1 Q-37.1 -49.8 -37.45 -50.8 M8.2 -62.55 Q8.75 -62.05 9.55 -62.05 10.35 -62.05 10.9 -62.55 11.5 -63.0 11.5 -63.75 11.5 -64.45 10.9 -64.95 10.35 -65.45 9.55 -65.45 8.75 -65.45 8.2 -64.95 7.6 -64.45 7.6 -63.75 7.6 -63.0 8.2 -62.55 M9.2 -77.85 Q8.95 -76.7 7.7 -75.9 6.65 -75.25 5.35 -75.05 L4.05 -75.25 2.85 -75.9 Q2.55 -77.05 2.6 -78.0 2.7 -79.35 3.55 -79.95 2.15 -80.0 1.55 -78.8 1.15 -78.0 1.15 -76.65 L-1.6 -77.3 Q-2.15 -80.25 -0.8 -81.3 -2.25 -81.4 -2.8 -80.0 -3.25 -79.05 -3.2 -77.55 L-4.65 -77.7 Q-5.55 -80.65 -4.3 -81.8 -5.7 -81.75 -6.2 -80.35 -6.5 -79.35 -6.3 -77.85 L-8.4 -77.9 Q-9.9 -80.35 -9.0 -81.75 -10.3 -81.35 -10.45 -80.05 -10.55 -79.15 -10.1 -77.85 L-13.6 -77.1 Q-16.1 -78.8 -15.85 -80.45 -17.6 -78.9 -15.1 -76.25 L-15.3 -76.1 Q-16.6 -75.05 -16.3 -73.7 L-15.05 -71.15 Q-14.05 -69.55 -13.95 -68.7 -13.75 -67.4 -15.2 -66.45 -17.55 -64.85 -21.3 -64.35 L-28.25 -64.7 Q-25.25 -64.95 -23.35 -65.55 -20.75 -66.3 -19.05 -67.8 -16.85 -69.7 -19.05 -72.75 L-20.7 -75.25 Q-21.45 -76.7 -20.95 -77.85 -20.25 -79.6 -17.8 -80.65 L-13.65 -81.95 -5.1 -82.55 Q-1.45 -82.4 2.35 -81.15 6.25 -79.9 9.2 -77.85 M34.8 -59.8 L35.65 -58.7 36.5 -58.45 Q37.1 -58.45 37.1 -59.45 39.65 -55.6 35.85 -54.35 33.0 -53.3 31.5 -53.15 27.2 -52.7 24.75 -55.65 L24.45 -56.3 24.0 -56.95 21.95 -56.9 Q21.15 -56.3 20.85 -55.0 L20.8 -54.65 Q20.95 -54.0 21.65 -53.95 22.3 -53.9 22.5 -54.55 L22.75 -55.3 23.25 -54.75 23.5 -54.45 24.6 -53.3 Q26.35 -51.9 29.2 -51.7 33.75 -51.4 36.75 -52.7 36.0 -48.95 33.8 -46.05 31.5 -43.1 28.1 -41.7 L29.75 -45.55 Q26.95 -43.5 23.4 -41.5 16.2 -37.45 12.25 -38.1 L14.75 -40.5 12.15 -40.55 10.35 -40.55 12.35 -42.3 14.35 -44.2 Q11.15 -45.5 9.4 -48.95 7.65 -52.4 8.6 -55.45 L8.6 -55.65 Q8.7 -56.3 8.35 -56.1 8.0 -55.95 7.75 -55.15 6.75 -51.85 7.75 -48.9 8.7 -46.05 11.4 -44.0 10.4 -42.75 7.0 -40.4 L8.5 -39.7 Q10.1 -39.05 10.45 -39.05 L10.6 -39.05 7.65 -36.85 10.25 -36.3 Q13.65 -35.95 17.55 -37.05 L19.1 -30.6 19.05 -30.55 17.3 -28.7 13.35 -25.4 11.2 -29.35 7.3 -35.75 Q6.85 -36.45 6.5 -36.15 6.15 -35.9 6.6 -35.2 L8.5 -31.8 10.25 -28.35 Q11.5 -26.05 12.55 -22.6 L12.85 -21.45 Q12.9 -20.85 12.4 -20.4 L9.15 -17.5 7.7 -16.35 Q6.9 -15.55 6.9 -14.8 L7.05 -12.8 Q7.1 -11.65 7.3 -10.85 8.2 -6.35 12.0 -3.6 L3.7 -3.45 3.7 -5.65 Q3.7 -6.25 3.0 -6.5 L1.35 -7.0 1.5 -9.4 1.65 -11.8 1.7 -14.55 1.45 -17.35 Q-1.1 -17.9 -3.65 -21.5 -7.05 -26.3 -5.1 -32.0 -4.75 -32.85 -5.15 -33.05 -5.55 -33.25 -6.1 -32.25 -6.9 -30.75 -7.25 -28.9 -7.55 -27.1 -7.35 -25.4 L-6.6 -22.85 Q-9.05 -23.6 -10.95 -24.6 L-13.55 -26.15 Q-15.15 -27.1 -16.2 -27.5 L-16.75 -27.7 Q-19.05 -36.25 -19.95 -38.1 -20.7 -39.7 -21.1 -39.45 -21.5 -39.2 -20.7 -37.8 -19.7 -36.0 -18.9 -31.6 -18.4 -28.65 -18.2 -26.3 -18.15 -25.3 -22.0 -20.65 L-27.25 -14.5 Q-28.1 -13.45 -28.15 -11.7 -28.2 -10.2 -27.7 -8.75 L-26.25 -5.65 -24.25 -2.85 -27.7 -3.0 -31.15 -3.2 -31.1 -4.0 -31.25 -4.8 -31.95 -5.7 -33.05 -6.4 -33.1 -7.15 -33.05 -9.3 -32.8 -14.8 -32.65 -16.3 Q-32.5 -17.15 -31.95 -17.55 L-30.6 -18.9 Q-29.9 -19.7 -29.3 -21.0 -28.6 -22.45 -28.65 -23.35 L-30.1 -25.3 -32.15 -27.35 Q-33.3 -28.55 -34.15 -30.1 L-35.45 -33.3 Q-37.45 -39.15 -35.45 -44.3 -33.25 -49.85 -27.35 -51.0 L-25.15 -51.2 Q-24.25 -51.1 -23.2 -50.4 -21.9 -49.45 -20.45 -48.8 -18.45 -47.85 -15.85 -47.55 L-13.75 -47.45 -11.75 -47.65 -13.25 -45.7 -9.2 -47.95 Q-5.25 -53.8 -5.55 -57.5 -2.95 -58.0 -0.9 -58.8 L1.0 -59.8 Q1.8 -60.55 1.75 -61.65 L1.55 -66.25 Q1.6 -68.8 2.85 -70.55 3.3 -71.2 3.05 -71.3 2.8 -71.4 2.0 -70.6 -0.4 -68.0 -0.2 -65.3 L-0.15 -61.95 Q-0.5 -60.65 -2.6 -60.0 -9.75 -57.9 -16.3 -59.05 -16.0 -60.1 -15.85 -61.65 L-15.5 -64.3 Q-13.0 -65.45 -12.15 -67.4 -11.65 -68.65 -12.45 -70.3 L-10.45 -71.35 -8.25 -72.2 -3.45 -73.15 1.4 -73.75 Q4.55 -73.35 7.25 -74.45 9.55 -75.35 10.55 -76.95 12.25 -75.7 14.7 -72.55 17.4 -69.1 18.7 -67.9 24.0 -63.25 28.4 -62.55 L31.35 -62.3 26.95 -61.95 25.1 -61.7 Q25.4 -60.85 29.4 -60.85 33.7 -60.85 34.8 -59.8" fill="#ffffff" fill-rule="evenodd" stroke="none"/>
    <path d="M-36.95 -54.15 Q-38.0 -52.3 -37.45 -50.8 -37.1 -49.8 -35.45 -48.1 L-33.45 -50.05 -31.05 -51.55 Q-33.65 -52.9 -35.6 -56.9 L-36.95 -54.15 M-0.6 -75.05 Q-2.25 -75.85 -4.55 -76.05 L-8.45 -76.1 -12.55 -75.55 Q-15.4 -74.8 -14.25 -72.95 L-13.95 -72.5 -11.15 -73.9 Q-9.55 -74.55 -5.7 -74.85 L-0.6 -75.05 M8.2 -64.95 Q8.75 -65.45 9.55 -65.45 10.35 -65.45 10.9 -64.95 11.5 -64.45 11.5 -63.75 11.5 -63.0 10.9 -62.55 10.35 -62.05 9.55 -62.05 8.75 -62.05 8.2 -62.55 7.6 -63.0 7.6 -63.75 7.6 -64.45 8.2 -64.95 M7.7 -75.9 Q8.95 -76.7 9.2 -77.85 6.25 -79.9 2.35 -81.15 -1.45 -82.4 -5.1 -82.55 L-13.65 -81.95 -17.8 -80.65 Q-20.25 -79.6 -20.95 -77.85 -21.45 -76.7 -20.7 -75.25 L-19.05 -72.75 Q-16.85 -69.7 -19.05 -67.8 -20.75 -66.3 -23.35 -65.55 -25.25 -64.95 -28.25 -64.7 L-21.3 -64.35 Q-17.55 -64.85 -15.2 -66.45 -13.75 -67.4 -13.95 -68.7 -14.05 -69.55 -15.05 -71.15 L-16.3 -73.7 Q-16.6 -75.05 -15.3 -76.1 L-15.1 -76.25 Q-17.6 -78.9 -15.85 -80.45 -16.1 -78.8 -13.6 -77.1 L-10.1 -77.85 Q-10.55 -79.15 -10.45 -80.05 -10.3 -81.35 -9.0 -81.75 -9.9 -80.35 -8.4 -77.9 L-6.3 -77.85 Q-6.5 -79.35 -6.2 -80.35 -5.7 -81.75 -4.3 -81.8 -5.55 -80.65 -4.65 -77.7 L-3.2 -77.55 Q-3.25 -79.05 -2.8 -80.0 -2.25 -81.4 -0.8 -81.3 -2.15 -80.25 -1.6 -77.3 L1.15 -76.65 Q1.15 -78.0 1.55 -78.8 2.15 -80.0 3.55 -79.95 2.7 -79.35 2.6 -78.0 2.55 -77.05 2.85 -75.9 L4.05 -75.25 5.35 -75.05 Q6.65 -75.25 7.7 -75.9 M37.1 -59.45 Q37.1 -58.45 36.5 -58.45 L35.65 -58.7 34.8 -59.8 Q33.7 -60.85 29.4 -60.85 25.4 -60.85 25.1 -61.7 L26.95 -61.95 31.35 -62.3 28.4 -62.55 Q24.0 -63.25 18.7 -67.9 17.4 -69.1 14.7 -72.55 12.25 -75.7 10.55 -76.95 9.55 -75.35 7.25 -74.45 4.55 -73.35 1.4 -73.75 L-3.45 -73.15 -8.25 -72.2 -10.45 -71.35 -12.45 -70.3 Q-11.65 -68.65 -12.15 -67.4 -13.0 -65.45 -15.5 -64.3 L-15.85 -61.65 Q-16.0 -60.1 -16.3 -59.05 -9.75 -57.9 -2.6 -60.0 -0.5 -60.65 -0.15 -61.95 L-0.2 -65.3 Q-0.4 -68.0 2.0 -70.6 2.8 -71.4 3.05 -71.3 3.3 -71.2 2.85 -70.55 1.6 -68.8 1.55 -66.25 L1.75 -61.65 Q1.8 -60.55 1.0 -59.8 L-0.9 -58.8 Q-2.95 -58.0 -5.55 -57.5 -5.25 -53.8 -9.2 -47.95 L-13.25 -45.7 -11.75 -47.65 -13.75 -47.45 -15.85 -47.55 Q-18.45 -47.85 -20.45 -48.8 -21.9 -49.45 -23.2 -50.4 -24.25 -51.1 -25.15 -51.2 L-27.35 -51.0 Q-33.25 -49.85 -35.45 -44.3 -37.45 -39.15 -35.45 -33.3 L-34.15 -30.1 Q-33.3 -28.55 -32.15 -27.35 L-30.1 -25.3 -28.65 -23.35 Q-28.6 -22.45 -29.3 -21.0 -29.9 -19.7 -30.6 -18.9 L-31.95 -17.55 Q-32.5 -17.15 -32.65 -16.3 L-32.8 -14.8 -33.05 -9.3 -33.1 -7.15 -33.05 -6.4 -31.95 -5.7 -31.25 -4.8 -31.1 -4.0 -31.15 -3.2 -27.7 -3.0 -24.25 -2.85 -26.25 -5.65 -27.7 -8.75 Q-28.2 -10.2 -28.15 -11.7 -28.1 -13.45 -27.25 -14.5 L-22.0 -20.65 Q-18.15 -25.3 -18.2 -26.3 -18.4 -28.65 -18.9 -31.6 -19.7 -36.0 -20.7 -37.8 -21.5 -39.2 -21.1 -39.45 -20.7 -39.7 -19.95 -38.1 -19.05 -36.25 -16.75 -27.7 L-16.2 -27.5 Q-15.15 -27.1 -13.55 -26.15 L-10.95 -24.6 Q-9.05 -23.6 -6.6 -22.85 L-7.35 -25.4 Q-7.55 -27.1 -7.25 -28.9 -6.9 -30.75 -6.1 -32.25 -5.55 -33.25 -5.15 -33.05 -4.75 -32.85 -5.1 -32.0 -7.05 -26.3 -3.65 -21.5 -1.1 -17.9 1.45 -17.35 L1.7 -14.55 1.65 -11.8 1.5 -9.4 1.35 -7.0 3.0 -6.5 Q3.7 -6.25 3.7 -5.65 L3.7 -3.45 12.0 -3.6 Q8.2 -6.35 7.3 -10.85 7.1 -11.65 7.05 -12.8 L6.9 -14.8 Q6.9 -15.55 7.7 -16.35 L9.15 -17.5 12.4 -20.4 Q12.9 -20.85 12.85 -21.45 L12.55 -22.6 Q11.5 -26.05 10.25 -28.35 L8.5 -31.8 6.6 -35.2 Q6.15 -35.9 6.5 -36.15 6.85 -36.45 7.3 -35.75 L11.2 -29.35 13.35 -25.4 17.3 -28.7 19.05 -30.55 19.1 -30.6 17.55 -37.05 Q13.65 -35.95 10.25 -36.3 L7.65 -36.85 10.6 -39.05 10.45 -39.05 Q10.1 -39.05 8.5 -39.7 L7.0 -40.4 Q10.4 -42.75 11.4 -44.0 8.7 -46.05 7.75 -48.9 6.75 -51.85 7.75 -55.15 8.0 -55.95 8.35 -56.1 8.7 -56.3 8.6 -55.65 L8.6 -55.45 Q7.65 -52.4 9.4 -48.95 11.15 -45.5 14.35 -44.2 L12.35 -42.3 10.35 -40.55 12.15 -40.55 14.75 -40.5 12.25 -38.1 Q16.2 -37.45 23.4 -41.5 26.95 -43.5 29.75 -45.55 L28.1 -41.7 Q31.5 -43.1 33.8 -46.05 36.0 -48.95 36.75 -52.7 33.75 -51.4 29.2 -51.7 26.35 -51.9 24.6 -53.3 L23.5 -54.45 23.25 -54.75 22.75 -55.3 22.5 -54.55 Q22.3 -53.9 21.65 -53.95 20.95 -54.0 20.8 -54.65 L20.85 -55.0 Q21.15 -56.3 21.95 -56.9 L24.0 -56.95 24.45 -56.3 24.75 -55.65 Q27.2 -52.7 31.5 -53.15 33.0 -53.3 35.85 -54.35 39.65 -55.6 37.1 -59.45 M31.9 -64.0 L33.65 -64.45 Q34.65 -64.65 35.25 -64.1 L37.6 -61.6 Q40.95 -57.5 39.6 -55.05 L38.4 -53.7 38.5 -52.85 38.5 -51.95 Q37.8 -47.15 33.9 -43.4 30.3 -39.85 25.25 -38.35 24.9 -38.25 25.35 -39.2 L25.9 -40.55 Q23.3 -38.8 19.2 -37.5 L20.5 -33.8 21.7 -30.05 Q21.85 -29.5 20.25 -27.9 L18.35 -26.2 19.35 -23.45 19.8 -20.8 Q18.75 -18.35 15.85 -16.4 14.4 -15.4 13.15 -14.95 L14.75 -9.45 Q16.95 -3.6 20.0 -1.8 L16.8 -1.8 15.5 -1.8 Q16.1 -1.5 15.9 -0.85 15.7 -0.15 15.05 -0.15 L2.8 0.0 Q2.5 0.05 2.2 -0.25 1.95 -0.5 1.95 -0.85 L2.0 -4.0 Q1.55 -4.15 0.4 -4.95 L-0.85 -6.05 -0.65 -8.8 -0.45 -11.5 -0.65 -16.1 Q-2.45 -16.8 -4.0 -18.55 L-5.8 -20.9 -7.25 -21.3 -8.6 -21.8 -11.3 -22.85 Q-11.65 -21.65 -12.3 -20.4 -12.9 -19.15 -15.2 -17.15 -16.95 -15.05 -16.05 -11.85 -14.6 -8.0 -10.7 -4.6 L-7.1 -2.05 -17.9 -1.7 -23.5 -15.35 Q-24.25 -15.3 -25.1 -13.7 -25.95 -12.25 -26.0 -11.3 -26.05 -8.75 -24.3 -5.95 L-20.6 -1.35 Q-20.3 -0.95 -20.4 -0.55 -20.5 -0.1 -21.1 -0.15 L-26.3 -0.35 -31.5 -0.65 Q-33.3 -0.75 -33.3 -1.2 L-33.1 -2.15 Q-32.8 -2.9 -32.85 -3.1 L-32.9 -4.15 -34.45 -4.45 Q-35.6 -4.65 -35.6 -5.15 L-35.15 -10.3 -34.45 -15.45 -34.25 -17.3 Q-34.0 -18.2 -33.3 -18.7 -31.75 -19.75 -31.15 -21.4 -30.65 -22.7 -31.25 -23.65 L-32.9 -25.2 Q-35.2 -27.2 -36.75 -30.05 -38.2 -32.8 -38.75 -35.9 -39.2 -38.5 -38.7 -41.2 -38.15 -43.9 -36.75 -46.15 L-39.15 -48.85 Q-40.25 -50.5 -39.9 -52.15 -39.6 -53.7 -38.45 -55.7 L-36.4 -59.1 -35.45 -60.3 Q-34.95 -60.6 -34.85 -59.85 -34.55 -57.35 -32.95 -55.45 -31.35 -53.5 -29.0 -52.8 L-24.7 -53.55 Q-24.4 -53.6 -23.6 -53.15 L-22.55 -52.4 Q-20.4 -50.4 -15.4 -49.6 L-10.9 -49.25 Q-9.25 -50.45 -8.25 -52.65 -7.2 -54.95 -7.4 -57.2 L-17.7 -57.6 -18.2 -58.0 -18.3 -58.65 Q-17.85 -59.65 -17.7 -61.05 L-17.55 -63.6 Q-21.45 -62.5 -25.35 -62.6 -29.65 -62.8 -32.85 -64.5 -33.45 -64.75 -33.3 -65.4 -33.15 -66.05 -32.5 -66.1 L-28.1 -66.45 Q-25.55 -66.7 -23.8 -67.25 -22.2 -67.7 -21.1 -68.3 -19.2 -69.35 -19.6 -70.45 -19.8 -71.1 -20.35 -71.8 L-21.3 -73.0 Q-23.45 -75.8 -22.35 -78.45 -21.4 -81.0 -18.05 -82.4 -13.45 -84.3 -8.0 -84.4 -2.6 -84.5 2.5 -82.9 6.35 -82.1 8.8 -80.4 L13.2 -76.9 15.5 -74.1 17.75 -71.3 Q20.75 -67.9 24.05 -66.05 28.0 -63.85 31.9 -64.0" fill="#030303" fill-rule="evenodd" stroke="none"/>
  </g>
</svg>
