<?xml version="1.0" encoding="UTF-8" standalone="no"?>
<svg xmlns:ffdec="https://www.free-decompiler.com/flash" xmlns:xlink="http://www.w3.org/1999/xlink" ffdec:objectType="shape" height="85.0px" width="69.2px" xmlns="http://www.w3.org/2000/svg">
  <g transform="matrix(1.0, 0.0, 0.0, 1.0, 40.0, 85.0)">
    <path d="M-1.35 -61.3 L-2.75 -61.05 -3.35 -60.5 Q-3.35 -60.1 -2.75 -59.9 L-1.35 -59.65 0.05 -59.9 Q0.6 -60.1 0.6 -60.5 L0.05 -61.05 -1.35 -61.3 M26.5 -48.8 Q24.05 -44.65 20.3 -41.2 16.4 -37.6 12.2 -35.8 L8.35 -35.7 0.85 -36.75 Q-10.05 -39.1 -15.85 -44.1 -19.6 -43.85 -21.75 -45.45 -23.55 -46.7 -23.8 -48.75 -24.0 -50.65 -22.85 -51.5 -21.55 -52.4 -19.75 -51.0 -18.75 -53.4 -16.0 -55.9 L-12.2 -59.0 -7.4 -62.9 Q-6.85 -63.25 -6.75 -63.85 -6.65 -64.5 -7.1 -65.0 L-8.65 -66.55 -5.05 -67.15 4.6 -63.05 6.55 -65.0 8.95 -66.95 26.5 -48.8 M19.85 -32.55 L19.6 -27.05 Q20.4 -25.3 21.6 -23.65 L24.1 -20.45 Q25.4 -18.8 25.4 -16.75 25.45 -15.1 24.55 -12.4 24.0 -10.65 21.9 -9.95 L17.95 -9.25 19.15 -13.25 Q19.5 -14.3 19.15 -15.05 L18.2 -15.1 16.75 -12.55 16.6 -14.1 Q16.3 -15.15 16.45 -15.8 L17.35 -18.0 Q17.9 -19.35 17.5 -20.15 L13.9 -27.05 14.85 -34.15 20.15 -38.0 Q19.95 -36.45 19.85 -32.55 M9.0 -52.85 Q10.15 -52.5 10.55 -51.85 9.25 -53.9 6.6 -54.4 L6.25 -54.3 6.05 -54.0 5.9 -52.85 Q5.8 -52.1 5.95 -51.8 6.15 -51.4 6.85 -51.8 7.6 -52.25 7.4 -52.65 L7.05 -53.4 9.0 -52.85 M17.9 -53.4 L17.85 -53.25 17.7 -52.8 17.45 -52.05 Q17.4 -51.65 18.25 -51.45 19.1 -51.2 19.15 -51.65 19.4 -53.7 18.45 -54.35 17.95 -54.75 16.6 -53.7 L14.95 -52.1 Q14.7 -51.75 14.8 -51.6 L15.1 -51.8 Q15.7 -52.55 17.9 -53.4 M10.6 -61.3 L9.2 -61.05 8.6 -60.5 Q8.6 -60.1 9.2 -59.9 L10.6 -59.65 12.0 -59.9 Q12.55 -60.1 12.55 -60.5 L12.0 -61.05 10.6 -61.3 M11.55 -77.95 Q15.2 -76.35 18.25 -73.05 19.65 -71.5 20.25 -69.4 20.85 -67.15 20.25 -65.05 19.85 -63.55 18.95 -62.6 17.8 -61.45 16.5 -61.85 L10.7 -67.75 Q10.55 -68.2 8.4 -68.65 L6.0 -68.8 4.95 -66.5 3.85 -64.25 Q2.55 -64.85 -0.05 -66.95 L-3.95 -69.6 -7.8 -69.7 -11.75 -68.8 Q-12.5 -68.7 -12.7 -67.85 -12.85 -67.1 -12.35 -66.55 L-10.1 -64.2 Q-13.15 -61.9 -15.45 -59.65 L-18.1 -57.15 Q-19.7 -55.4 -20.2 -53.9 -22.95 -54.45 -24.7 -52.85 -26.55 -51.15 -25.9 -48.0 -25.5 -46.3 -24.55 -44.85 -23.55 -43.35 -22.05 -42.55 -20.2 -41.55 -18.4 -41.5 L-17.35 -41.5 Q-16.9 -41.5 -16.5 -41.15 L-14.65 -39.8 Q-10.45 -37.15 -4.85 -35.55 -0.35 -34.3 5.75 -33.55 5.4 -29.3 6.7 -25.9 8.15 -22.05 11.5 -20.05 13.8 -18.6 15.3 -16.7 15.0 -15.75 14.85 -14.6 14.5 -12.55 14.95 -9.85 L10.1 -4.9 Q9.95 -4.8 12.2 -4.2 14.45 -3.7 13.75 -3.1 L10.55 -3.35 7.3 -3.7 Q10.65 -8.3 11.15 -10.25 12.1 -13.85 8.05 -15.95 4.5 -13.2 -3.55 -13.55 -11.05 -13.95 -14.45 -16.1 L-16.15 -16.05 Q-16.95 -15.4 -16.0 -14.75 -11.95 -12.25 -12.45 -8.35 -12.8 -5.7 -14.6 -3.7 L-13.4 -2.8 -12.2 -1.9 -19.05 -2.65 -16.75 -4.6 Q-15.4 -5.9 -15.2 -7.05 -14.65 -10.9 -19.9 -14.05 L-22.85 -16.0 Q-23.35 -17.8 -24.6 -20.0 L-26.9 -23.65 -30.6 -28.9 Q-31.2 -29.75 -30.75 -31.75 L-30.0 -34.75 Q-29.45 -36.85 -28.65 -41.45 L-27.7 -46.7 -29.35 -41.45 -31.2 -35.0 -32.55 -29.3 -30.05 -25.45 Q-27.3 -21.2 -26.25 -19.1 -24.9 -16.45 -24.6 -15.0 -23.95 -12.3 -25.2 -10.15 L-25.55 -13.05 Q-26.05 -13.85 -26.35 -13.65 -26.65 -13.4 -26.55 -12.4 -26.35 -9.7 -28.95 -6.7 L-32.0 -8.9 Q-33.7 -10.45 -33.75 -12.05 L-33.6 -15.05 Q-33.5 -16.8 -33.75 -18.0 -34.2 -20.3 -35.75 -23.3 L-36.85 -25.65 Q-37.25 -26.9 -37.25 -28.2 L-37.15 -32.25 Q-37.05 -43.95 -34.95 -50.7 -31.7 -61.45 -23.25 -63.8 -22.0 -64.1 -22.0 -64.45 L-23.3 -64.55 Q-25.2 -64.2 -26.9 -63.45 L-26.9 -65.5 -26.85 -67.55 Q-26.05 -70.7 -23.65 -73.05 -21.4 -75.25 -18.15 -76.35 -17.1 -76.75 -17.05 -76.9 -17.0 -77.05 -17.85 -77.4 -18.25 -77.55 -18.4 -79.1 -18.6 -80.9 -18.75 -81.15 L-15.7 -81.0 Q-14.05 -80.4 -11.8 -78.05 L-11.2 -78.1 -10.85 -79.2 Q-10.15 -81.5 -5.65 -82.7 L0.85 -83.55 4.15 -82.8 4.8 -81.9 Q5.1 -81.15 4.75 -81.1 4.0 -81.05 3.15 -80.45 L1.75 -79.35 1.4 -79.1 1.75 -79.25 3.55 -79.65 Q8.05 -79.5 11.55 -77.95" fill="#ffffff" fill-rule="evenodd" stroke="none"/>
    <path d="M-13.4 -2.8 L-14.6 -3.7 Q-12.8 -5.7 -12.45 -8.35 -11.95 -12.25 -16.0 -14.75 L-16.4 -15.25 -23.7 -18.35 -22.85 -16.0 -19.9 -14.05 Q-14.65 -10.9 -15.2 -7.05 -15.4 -5.9 -16.75 -4.6 L-19.05 -2.65 -12.2 -1.9 -13.4 -2.8 M7.3 -15.45 L8.05 -15.95 Q12.1 -13.85 11.15 -10.25 10.65 -8.3 7.3 -3.7 L13.75 -3.1 Q14.45 -3.7 12.2 -4.2 9.95 -4.8 10.1 -4.9 L14.95 -9.85 Q14.5 -12.55 14.85 -14.6 15.0 -15.75 15.3 -16.7 13.9 -18.45 11.85 -19.8 L7.3 -15.45 M-1.35 -61.3 L0.05 -61.05 0.6 -60.5 Q0.6 -60.1 0.05 -59.9 L-1.35 -59.65 -2.75 -59.9 Q-3.35 -60.1 -3.35 -60.5 L-2.75 -61.05 -1.35 -61.3 M12.2 -35.8 Q16.4 -37.6 20.3 -41.2 24.05 -44.65 26.5 -48.8 L8.95 -66.95 6.55 -65.0 4.6 -63.05 -5.05 -67.15 -8.65 -66.55 -7.1 -65.0 Q-6.65 -64.5 -6.75 -63.85 -6.85 -63.25 -7.4 -62.9 L-12.2 -59.0 -16.0 -55.9 Q-18.75 -53.4 -19.75 -51.0 -21.55 -52.4 -22.85 -51.5 -24.0 -50.65 -23.8 -48.75 -23.55 -46.7 -21.75 -45.45 -19.6 -43.85 -15.85 -44.1 -10.05 -39.1 0.85 -36.75 L8.35 -35.7 12.2 -35.8 M12.15 -26.9 L12.0 -30.0 12.3 -33.05 10.85 -33.0 8.4 -33.25 Q7.75 -26.9 11.95 -23.05 L15.9 -19.6 15.3 -21.15 14.5 -22.5 13.1 -24.6 Q12.25 -25.95 12.15 -26.9 M19.6 -27.05 L19.85 -32.55 Q19.95 -36.45 20.15 -38.0 L14.85 -34.15 13.9 -27.05 17.5 -20.15 Q17.9 -19.35 17.35 -18.0 L16.45 -15.8 Q16.3 -15.15 16.6 -14.1 L16.75 -12.55 18.2 -15.1 19.15 -15.05 Q19.5 -14.3 19.15 -13.25 L17.95 -9.25 21.9 -9.95 Q24.0 -10.65 24.55 -12.4 25.45 -15.1 25.4 -16.75 25.4 -18.8 24.1 -20.45 L21.6 -23.65 Q20.4 -25.3 19.6 -27.05 M10.55 -51.85 Q10.15 -52.5 9.0 -52.85 L7.05 -53.4 7.4 -52.65 Q7.6 -52.25 6.85 -51.8 6.15 -51.4 5.95 -51.8 5.8 -52.1 5.9 -52.85 L6.05 -54.0 6.25 -54.3 6.6 -54.4 Q9.25 -53.9 10.55 -51.85 M19.0 -48.9 Q18.1 -49.15 19.0 -49.25 20.6 -49.8 21.3 -48.6 21.05 -47.75 19.0 -47.45 L14.55 -47.1 7.5 -46.2 3.95 -45.95 7.45 -46.7 14.35 -48.0 18.25 -48.3 20.05 -48.45 Q20.2 -48.6 19.0 -48.9 M18.45 -54.35 Q19.4 -53.7 19.15 -51.65 19.1 -51.2 18.25 -51.45 17.4 -51.65 17.45 -52.05 L17.7 -52.8 17.85 -53.25 17.9 -53.4 Q15.7 -52.55 15.1 -51.8 L14.8 -51.6 Q14.7 -51.75 14.95 -52.1 L16.6 -53.7 Q17.95 -54.75 18.45 -54.35 M22.1 -71.1 Q24.0 -68.55 22.95 -64.55 21.8 -60.55 18.95 -59.35 L28.8 -49.25 Q29.2 -48.9 29.2 -48.3 L29.0 -47.65 Q26.7 -43.4 22.7 -39.7 L21.95 -34.85 Q21.1 -29.55 21.05 -27.5 L24.75 -22.3 Q27.1 -18.75 27.55 -17.3 29.0 -13.0 25.4 -9.55 22.0 -6.3 17.65 -6.55 16.9 -6.55 16.45 -7.25 L13.7 -4.55 17.0 -3.6 Q17.85 -3.25 17.95 -2.2 18.1 -1.15 17.0 -1.0 12.1 -0.3 5.15 -1.25 4.35 -1.35 4.2 -2.2 4.1 -2.95 4.55 -3.5 L7.2 -7.05 Q8.65 -9.25 8.9 -11.1 9.05 -12.15 8.35 -13.2 7.55 -14.35 6.55 -14.0 L5.35 -13.55 -0.7 -7.9 -0.9 -10.6 -3.6 -7.6 -2.6 -10.75 -3.9 -8.65 Q-3.95 -9.45 -9.55 -12.15 L-10.55 -12.4 Q-9.9 -10.85 -10.0 -9.25 -10.2 -6.65 -13.0 -3.35 L-10.15 -2.85 Q-9.2 -2.55 -9.2 -1.5 -9.1 -0.4 -10.15 -0.25 L-16.2 -0.05 -22.35 -0.45 Q-23.5 -0.5 -23.65 -1.6 -23.75 -2.7 -22.7 -3.1 -20.85 -3.8 -19.75 -4.6 -18.3 -5.7 -17.9 -7.2 -17.5 -8.7 -18.9 -10.05 L-21.6 -11.95 -22.5 -12.5 Q-22.6 -11.2 -23.2 -9.85 -23.65 -8.8 -24.65 -7.2 -25.0 -6.65 -25.6 -6.55 -26.2 -6.45 -26.65 -6.85 -27.45 -5.45 -28.75 -4.2 -29.1 -3.9 -29.55 -3.85 L-30.4 -4.0 -33.15 -6.0 Q-34.65 -7.2 -35.45 -8.5 -36.3 -9.8 -36.4 -11.75 L-36.25 -15.1 Q-36.15 -16.95 -36.85 -19.05 L-38.45 -22.75 -39.55 -24.85 Q-40.05 -26.05 -40.0 -27.2 L-39.85 -33.25 Q-39.75 -39.9 -39.35 -43.3 -38.7 -48.85 -36.8 -53.05 -35.9 -55.15 -33.9 -58.05 L-32.1 -60.65 Q-31.65 -62.7 -30.05 -65.9 L-27.15 -70.9 Q-24.45 -74.85 -19.4 -77.2 L-19.9 -78.2 Q-20.25 -78.75 -20.7 -78.75 -21.75 -78.85 -22.0 -79.75 -22.25 -80.7 -21.4 -81.25 -17.2 -84.1 -11.7 -81.1 -9.9 -83.8 -4.85 -84.65 L3.05 -84.85 Q5.2 -84.65 6.45 -83.7 7.95 -82.5 7.5 -80.4 L7.35 -79.95 Q16.8 -78.15 22.1 -71.1 M10.6 -59.65 L9.2 -59.9 Q8.6 -60.1 8.6 -60.5 L9.2 -61.05 10.6 -61.3 12.0 -61.05 12.55 -60.5 Q12.55 -60.1 12.0 -59.9 L10.6 -59.65 M18.25 -73.05 Q15.2 -76.35 11.55 -77.95 8.05 -79.5 3.55 -79.65 L1.75 -79.25 1.4 -79.1 1.75 -79.35 3.15 -80.45 Q4.0 -81.05 4.75 -81.1 5.1 -81.15 4.8 -81.9 L4.15 -82.8 0.85 -83.55 -5.65 -82.7 Q-10.15 -81.5 -10.85 -79.2 L-11.2 -78.1 -11.8 -78.05 Q-14.05 -80.4 -15.7 -81.0 L-18.75 -81.15 Q-18.6 -80.9 -18.4 -79.1 -18.25 -77.55 -17.85 -77.4 -17.0 -77.05 -17.05 -76.9 -17.1 -76.75 -18.15 -76.35 -21.4 -75.25 -23.65 -73.05 -26.05 -70.7 -26.85 -67.55 L-26.9 -65.5 -26.9 -63.45 Q-25.2 -64.2 -23.3 -64.55 L-22.0 -64.45 Q-22.0 -64.1 -23.25 -63.8 -31.7 -61.45 -34.95 -50.7 -37.05 -43.95 -37.15 -32.25 L-37.25 -28.2 Q-37.25 -26.9 -36.85 -25.65 L-35.75 -23.3 Q-34.2 -20.3 -33.75 -18.0 -33.5 -16.8 -33.6 -15.05 L-33.75 -12.05 Q-33.7 -10.45 -32.0 -8.9 L-28.95 -6.7 Q-26.35 -9.7 -26.55 -12.4 -26.65 -13.4 -26.35 -13.65 -26.05 -13.85 -25.55 -13.05 L-25.2 -10.15 Q-23.95 -12.3 -24.6 -15.0 -24.9 -16.45 -26.25 -19.1 -27.3 -21.2 -30.05 -25.45 L-32.55 -29.3 -31.2 -35.0 -29.35 -41.45 -27.7 -46.7 -28.65 -41.45 Q-29.45 -36.85 -30.0 -34.75 L-30.75 -31.75 Q-31.2 -29.75 -30.6 -28.9 L-26.9 -23.65 -25.65 -21.75 -14.6 -21.0 -0.5 -20.35 Q4.0 -20.35 8.65 -22.5 6.85 -24.65 6.15 -27.65 5.5 -30.4 5.75 -33.55 -0.35 -34.3 -4.85 -35.55 -10.45 -37.15 -14.65 -39.8 L-16.5 -41.15 Q-16.9 -41.5 -17.35 -41.5 L-18.4 -41.5 Q-20.2 -41.55 -22.05 -42.55 -23.55 -43.35 -24.55 -44.85 -25.5 -46.3 -25.9 -48.0 -26.55 -51.15 -24.7 -52.85 -22.95 -54.45 -20.2 -53.9 -19.7 -55.4 -18.1 -57.15 L-15.45 -59.65 Q-13.15 -61.9 -10.1 -64.2 L-12.35 -66.55 Q-12.85 -67.1 -12.7 -67.85 -12.5 -68.7 -11.75 -68.8 L-7.8 -69.7 -3.95 -69.6 -0.05 -66.95 Q2.55 -64.85 3.85 -64.25 L4.95 -66.5 6.0 -68.8 8.4 -68.65 Q10.55 -68.2 10.7 -67.75 L16.5 -61.85 Q17.8 -61.45 18.95 -62.6 19.85 -63.55 20.25 -65.05 20.85 -67.15 20.25 -69.4 19.65 -71.5 18.25 -73.05" fill="#030303" fill-rule="evenodd" stroke="none"/>
  </g>
</svg>
