<?xml version="1.0" encoding="UTF-8" standalone="no"?>
<svg xmlns:ffdec="https://www.free-decompiler.com/flash" xmlns:xlink="http://www.w3.org/1999/xlink" ffdec:objectType="shape" height="85.1px" width="80.0px" xmlns="http://www.w3.org/2000/svg">
  <g transform="matrix(1.0, 0.0, 0.0, 1.0, 40.0, 85.1)">
    <path d="M36.25 -10.8 Q37.25 -9.0 37.35 -5.65 37.4 -4.4 35.85 -3.85 L33.2 -3.5 33.1 -3.75 30.7 -6.35 28.15 -8.85 25.05 -12.0 22.0 -15.2 Q21.7 -15.5 21.85 -16.25 21.95 -17.1 22.55 -17.85 23.15 -18.5 23.8 -18.5 24.35 -18.45 24.75 -18.1 L27.85 -15.35 Q29.45 -13.95 31.25 -13.15 32.95 -12.35 34.75 -11.8 L36.25 -10.8 M5.05 -6.15 Q5.55 -9.45 5.35 -11.0 L7.55 -11.35 Q9.2 -8.95 8.05 -6.8 L7.05 -5.65 Q6.4 -5.0 6.25 -4.45 6.2 -4.0 6.75 -3.45 L7.6 -2.65 4.35 -2.65 5.05 -6.15 M-9.45 -2.9 L-12.2 -2.85 -12.6 -6.75 -13.2 -10.45 -9.45 -10.2 Q-9.2 -9.25 -9.6 -7.6 L-10.2 -5.05 Q-10.25 -4.6 -9.9 -3.95 L-9.45 -2.9 M-1.25 -49.25 L-2.65 -49.2 -3.3 -48.15 Q-3.45 -47.75 -3.05 -47.65 -2.6 -47.5 -2.45 -47.9 L-2.15 -48.45 -1.5 -48.4 Q-1.1 -48.3 -0.95 -48.7 -0.85 -49.15 -1.25 -49.25 M3.6 -51.85 Q4.25 -53.2 2.6 -53.95 L1.2 -53.75 Q0.15 -53.4 0.55 -53.2 1.45 -52.8 1.35 -52.0 L1.1 -51.35 -3.3 -51.8 -8.85 -51.15 -9.15 -50.9 -8.6 -50.85 Q-6.7 -51.25 -3.6 -50.85 L1.4 -50.45 Q3.0 -50.55 3.6 -51.85 M-24.7 -59.95 L-25.25 -58.65 -27.85 -54.25 Q-30.25 -55.3 -29.0 -58.5 -28.2 -60.55 -24.7 -59.95 M9.75 -34.75 L12.0 -29.3 Q12.95 -25.65 13.0 -22.1 13.0 -18.9 12.3 -14.75 8.9 -12.35 -2.5 -11.7 -13.45 -11.15 -18.85 -12.7 -19.8 -15.95 -19.9 -17.55 -20.0 -18.95 -19.15 -20.75 L-17.8 -23.85 -16.8 -26.85 Q-16.3 -28.6 -16.15 -30.0 -9.45 -30.3 -3.4 -32.9 2.7 -35.55 7.4 -40.15 L9.75 -34.75 M13.15 -30.15 L14.25 -28.4 Q15.0 -27.0 15.5 -26.65 L23.6 -20.75 Q22.4 -20.3 20.65 -18.3 18.85 -16.25 18.9 -15.2 L16.25 -17.85 16.6 -19.0 17.0 -20.15 17.45 -21.3 Q17.55 -21.95 17.15 -22.25 L14.55 -24.1 14.15 -24.3 13.15 -30.15 M12.95 -59.5 L14.2 -58.65 Q16.5 -55.25 18.6 -50.85 16.85 -48.95 13.15 -46.8 L7.8 -43.95 Q4.0 -37.55 -2.95 -34.55 -9.1 -31.95 -16.0 -32.65 L-16.05 -33.9 Q-16.05 -34.9 -16.45 -35.0 L-17.4 -34.25 -20.5 -29.7 -23.55 -25.15 -27.35 -17.25 -27.8 -16.2 Q-27.95 -15.6 -27.5 -15.35 L-25.3 -13.7 -25.8 -12.8 -26.3 -11.9 -29.6 -11.2 -31.4 -14.45 -28.8 -21.65 -26.2 -28.85 Q-24.8 -32.35 -22.65 -35.9 -19.1 -41.8 -15.7 -43.35 L-15.65 -43.35 -20.65 -46.25 Q-25.9 -49.45 -27.5 -51.15 L-24.6 -56.45 -21.35 -61.6 -18.7 -64.35 Q-16.05 -61.15 -11.0 -59.15 -6.55 -57.4 -1.8 -57.1 -1.0 -57.05 -0.6 -57.95 -0.2 -58.8 -0.85 -59.35 L-3.15 -61.3 0.65 -60.75 4.35 -60.3 12.95 -59.5 M16.4 -58.95 L18.75 -59.1 Q20.35 -58.9 20.8 -57.45 21.3 -55.95 20.35 -55.15 L18.95 -54.2 16.4 -58.95 M10.65 -76.3 Q12.8 -76.1 17.15 -73.35 21.2 -70.85 22.55 -69.2 21.7 -68.65 19.2 -68.35 21.8 -67.2 24.15 -60.45 26.6 -53.25 24.7 -49.55 L23.35 -50.65 Q22.15 -46.1 19.8 -41.8 17.25 -37.1 14.4 -34.75 L12.35 -36.8 Q11.25 -38.05 10.6 -39.2 L10.4 -39.55 9.55 -41.9 Q16.1 -45.95 19.85 -50.2 20.4 -50.85 20.1 -51.65 21.45 -52.65 21.9 -54.3 22.35 -55.95 21.75 -57.55 20.85 -60.0 18.4 -60.45 -2.2 -62.6 -5.8 -64.5 -5.85 -63.05 -5.2 -61.4 -4.65 -59.85 -3.85 -59.1 -14.95 -61.45 -18.75 -67.05 L-21.5 -63.7 Q-23.1 -61.95 -25.0 -61.3 -27.15 -61.65 -28.9 -60.45 -30.7 -59.25 -31.2 -57.15 -31.65 -55.4 -31.05 -54.05 -30.5 -52.7 -29.05 -52.0 L-29.3 -51.65 Q-29.75 -50.85 -29.05 -50.05 -25.75 -46.25 -20.1 -42.85 L-21.5 -41.25 -22.8 -39.55 -23.45 -39.75 Q-24.15 -39.8 -24.7 -40.15 -25.2 -38.55 -25.85 -37.65 -26.7 -36.5 -28.55 -35.15 -30.9 -37.3 -33.05 -42.45 -35.2 -47.55 -35.25 -51.1 L-36.8 -50.5 -38.4 -50.15 Q-38.75 -55.1 -37.65 -59.15 -36.3 -63.95 -32.95 -66.85 -32.05 -67.65 -35.6 -67.6 -33.05 -72.35 -28.3 -75.35 -24.1 -78.1 -21.5 -77.6 L-23.35 -79.6 -24.85 -80.65 Q-22.85 -82.8 -19.6 -82.4 -16.2 -82.0 -15.05 -78.75 -13.95 -80.5 -10.4 -81.8 -6.85 -83.1 -2.4 -83.45 8.5 -84.2 14.65 -79.05 L10.65 -76.3" fill="#ffffff" fill-rule="evenodd" stroke="none"/>
    <path d="M33.1 -3.75 L33.2 -3.5 35.85 -3.85 Q37.4 -4.4 37.35 -5.65 37.25 -9.0 36.25 -10.8 L34.75 -11.8 Q32.95 -12.35 31.25 -13.15 29.45 -13.95 27.85 -15.35 L24.75 -18.1 Q24.35 -18.45 23.8 -18.5 23.15 -18.5 22.55 -17.85 21.95 -17.1 21.85 -16.25 21.7 -15.5 22.0 -15.2 L25.05 -12.0 28.15 -8.85 30.7 -6.35 33.1 -3.75 M7.55 -11.35 L5.35 -11.0 Q5.55 -9.45 5.05 -6.15 L4.35 -2.65 7.6 -2.65 6.75 -3.45 Q6.2 -4.0 6.25 -4.45 6.4 -5.0 7.05 -5.65 L8.05 -6.8 Q9.2 -8.95 7.55 -11.35 M-9.6 -7.6 Q-9.2 -9.25 -9.45 -10.2 L-13.2 -10.45 -12.6 -6.75 -12.2 -2.85 -9.45 -2.9 -9.9 -3.95 Q-10.25 -4.6 -10.2 -5.05 L-9.6 -7.6 M-2.65 -49.2 L-1.25 -49.25 Q-0.85 -49.15 -0.95 -48.7 -1.1 -48.3 -1.5 -48.4 L-2.15 -48.45 -2.45 -47.9 Q-2.6 -47.5 -3.05 -47.65 -3.45 -47.75 -3.3 -48.15 L-2.65 -49.2 M2.6 -53.95 Q4.25 -53.2 3.6 -51.85 3.0 -50.55 1.4 -50.45 L-3.6 -50.85 Q-6.7 -51.25 -8.6 -50.85 L-9.15 -50.9 -8.85 -51.15 -3.3 -51.8 1.1 -51.35 1.35 -52.0 Q1.45 -52.8 0.55 -53.2 0.15 -53.4 1.2 -53.75 L2.6 -53.95 M-25.25 -58.65 L-24.7 -59.95 Q-28.2 -60.55 -29.0 -58.5 -30.25 -55.3 -27.85 -54.25 L-25.25 -58.65 M14.25 -28.4 L13.15 -30.15 14.15 -24.3 14.55 -24.1 17.15 -22.25 Q17.55 -21.95 17.45 -21.3 L17.0 -20.15 16.6 -19.0 16.25 -17.85 18.9 -15.2 Q18.85 -16.25 20.65 -18.3 22.4 -20.3 23.6 -20.75 L15.5 -26.65 Q15.0 -27.0 14.25 -28.4 M12.0 -29.3 L9.75 -34.75 7.4 -40.15 Q2.7 -35.55 -3.4 -32.9 -9.45 -30.3 -16.15 -30.0 -16.3 -28.6 -16.8 -26.85 L-17.8 -23.85 -19.15 -20.75 Q-20.0 -18.95 -19.9 -17.55 -19.8 -15.95 -18.85 -12.7 -13.45 -11.15 -2.5 -11.7 8.9 -12.35 12.3 -14.75 13.0 -18.9 13.0 -22.1 12.95 -25.65 12.0 -29.3 M18.75 -59.1 L16.4 -58.95 18.95 -54.2 20.35 -55.15 Q21.3 -55.95 20.8 -57.45 20.35 -58.9 18.75 -59.1 M14.2 -58.65 L12.95 -59.5 4.35 -60.3 0.65 -60.75 -3.15 -61.3 -0.85 -59.35 Q-0.2 -58.8 -0.6 -57.95 -1.0 -57.05 -1.8 -57.1 -6.55 -57.4 -11.0 -59.15 -16.05 -61.15 -18.7 -64.35 L-21.35 -61.6 -24.6 -56.45 -27.5 -51.15 Q-25.9 -49.45 -20.65 -46.25 L-15.65 -43.35 -15.7 -43.35 Q-19.1 -41.8 -22.65 -35.9 -24.8 -32.35 -26.2 -28.85 L-28.8 -21.65 -31.4 -14.45 -29.6 -11.2 -26.3 -11.9 -25.8 -12.8 -25.3 -13.7 -27.5 -15.35 Q-27.95 -15.6 -27.8 -16.2 L-27.35 -17.25 -23.55 -25.15 -20.5 -29.7 -17.4 -34.25 -16.45 -35.0 Q-16.05 -34.9 -16.05 -33.9 L-16.0 -32.65 Q-9.1 -31.95 -2.95 -34.55 4.0 -37.55 7.8 -43.95 L13.15 -46.8 Q16.85 -48.95 18.6 -50.85 16.5 -55.25 14.2 -58.65 M10.65 -76.3 L14.65 -79.05 Q8.5 -84.2 -2.4 -83.45 -6.85 -83.1 -10.4 -81.8 -13.95 -80.5 -15.05 -78.75 -16.2 -82.0 -19.6 -82.4 -22.85 -82.8 -24.85 -80.65 L-23.35 -79.6 -21.5 -77.6 Q-24.1 -78.1 -28.3 -75.35 -33.05 -72.35 -35.6 -67.6 -32.05 -67.65 -32.95 -66.85 -36.3 -63.95 -37.65 -59.15 -38.75 -55.1 -38.4 -50.15 L-36.8 -50.5 -35.25 -51.1 Q-35.2 -47.55 -33.05 -42.45 -30.9 -37.3 -28.55 -35.15 -26.7 -36.5 -25.85 -37.65 -25.2 -38.55 -24.7 -40.15 -24.15 -39.8 -23.45 -39.75 L-22.8 -39.55 -21.5 -41.25 -20.1 -42.85 Q-25.75 -46.25 -29.05 -50.05 -29.75 -50.85 -29.3 -51.65 L-29.05 -52.0 Q-30.5 -52.7 -31.05 -54.05 -31.65 -55.4 -31.2 -57.15 -30.7 -59.25 -28.9 -60.45 -27.15 -61.65 -25.0 -61.3 -23.1 -61.95 -21.5 -63.7 L-18.75 -67.05 Q-14.95 -61.45 -3.85 -59.1 -4.65 -59.85 -5.2 -61.4 -5.85 -63.05 -5.8 -64.5 -2.2 -62.6 18.4 -60.45 20.85 -60.0 21.75 -57.55 22.35 -55.95 21.9 -54.3 21.45 -52.65 20.1 -51.65 20.4 -50.85 19.85 -50.2 16.1 -45.95 9.55 -41.9 L10.4 -39.55 10.6 -39.2 Q11.25 -38.05 12.35 -36.8 L14.4 -34.75 Q17.25 -37.1 19.8 -41.8 22.15 -46.1 23.35 -50.65 L24.7 -49.55 Q26.6 -53.25 24.15 -60.45 21.8 -67.2 19.2 -68.35 21.7 -68.65 22.55 -69.2 21.2 -70.85 17.15 -73.35 12.8 -76.1 10.65 -76.3 M17.5 -79.3 L18.45 -78.35 Q18.65 -77.75 17.85 -77.6 17.3 -77.45 16.3 -76.8 L14.8 -75.9 Q17.2 -75.35 19.15 -74.25 20.6 -73.4 22.3 -71.75 L25.1 -68.85 Q25.8 -68.1 25.6 -67.4 25.4 -66.7 24.5 -67.0 L23.3 -67.0 22.5 -66.7 Q23.9 -65.15 24.95 -62.55 L26.4 -58.15 Q27.35 -54.6 27.5 -52.25 27.7 -48.45 26.0 -46.7 25.7 -46.35 25.2 -46.3 24.75 -46.25 24.4 -46.5 L23.3 -47.3 Q20.7 -35.7 14.85 -31.8 L13.7 -31.7 15.6 -28.0 24.1 -21.95 Q25.15 -21.2 26.1 -17.9 26.9 -17.3 28.15 -16.55 L30.05 -15.4 Q32.35 -13.95 35.55 -12.9 L36.55 -12.65 37.45 -12.15 Q38.65 -10.9 39.75 -7.05 40.3 -5.1 39.65 -3.7 39.0 -2.25 37.1 -1.6 32.45 0.0 31.35 -1.65 28.85 -5.3 23.55 -10.8 L21.35 -13.05 20.1 -12.65 19.45 -12.6 Q19.1 -12.7 18.85 -12.95 L14.75 -17.15 Q14.1 -17.8 14.5 -18.75 L15.3 -20.4 14.45 -21.0 Q14.5 -17.7 13.8 -15.0 13.4 -13.65 12.4 -12.9 11.6 -12.35 10.1 -11.95 10.65 -9.55 10.15 -7.65 9.95 -6.9 8.75 -5.05 7.95 -3.45 9.3 -2.9 10.15 -2.6 10.25 -1.55 10.4 -0.5 9.3 -0.35 L2.5 -0.15 Q1.7 -0.25 1.35 -0.8 1.0 -1.45 1.35 -2.15 L2.0 -4.2 2.4 -6.35 Q2.9 -9.3 2.7 -10.7 L-1.5 -10.4 -7.55 -10.25 Q-7.4 -9.35 -7.7 -7.95 L-8.35 -5.25 Q-8.65 -3.55 -7.75 -2.75 -7.15 -2.1 -7.5 -1.3 -7.85 -0.55 -8.7 -0.45 L-13.7 -0.15 Q-14.35 -0.15 -14.7 -0.7 -15.1 -1.2 -14.95 -1.8 -14.65 -3.0 -14.9 -4.85 L-15.45 -7.85 -15.95 -10.75 -19.65 -11.35 Q-20.3 -11.5 -20.55 -12.25 -22.25 -17.75 -21.05 -21.7 L-19.9 -25.65 Q-19.25 -27.8 -18.95 -29.55 -21.5 -26.15 -22.65 -23.8 L-26.2 -16.75 -24.0 -15.2 Q-23.25 -14.7 -23.35 -14.05 L-23.8 -10.85 Q-23.95 -9.7 -24.75 -9.55 L-29.9 -8.45 Q-31.0 -8.2 -31.4 -9.0 L-33.4 -12.4 Q-34.3 -14.35 -33.65 -16.0 L-28.15 -28.95 -25.55 -34.5 -24.85 -36.0 Q-24.6 -36.75 -24.85 -36.25 -25.7 -34.85 -27.75 -33.55 L-28.4 -33.4 -29.05 -33.55 Q-32.05 -35.75 -34.05 -40.05 -36.05 -44.2 -36.05 -48.25 -37.1 -48.1 -37.75 -47.65 -38.4 -47.2 -39.05 -47.65 -39.6 -48.1 -39.7 -48.8 -41.05 -59.25 -36.0 -65.8 -36.75 -65.8 -37.2 -66.4 -37.7 -67.1 -37.25 -67.8 -34.5 -71.85 -31.7 -74.3 -28.55 -77.1 -24.65 -78.45 L-26.0 -79.2 Q-26.65 -79.6 -26.65 -80.35 -26.6 -81.1 -26.0 -81.5 -23.15 -83.3 -19.95 -83.55 -16.3 -83.8 -14.1 -81.8 -11.9 -84.45 -5.3 -85.0 5.15 -85.85 17.5 -79.3" fill="#030303" fill-rule="evenodd" stroke="none"/>
  </g>
</svg>
