<?xml version="1.0" encoding="UTF-8" standalone="no"?>
<svg xmlns:ffdec="https://www.free-decompiler.com/flash" xmlns:xlink="http://www.w3.org/1999/xlink" ffdec:objectType="shape" height="85.0px" width="77.35px" xmlns="http://www.w3.org/2000/svg">
  <g transform="matrix(1.0, 0.0, 0.0, 1.0, 38.65, 85.0)">
    <path d="M16.05 -76.5 Q17.65 -77.15 20.05 -76.2 22.45 -75.35 24.5 -73.4 29.55 -68.7 27.25 -64.15 29.75 -62.65 30.0 -59.9 30.15 -57.35 28.25 -55.3 29.55 -53.6 29.3 -50.1 29.05 -46.45 27.3 -45.9 27.9 -43.05 25.15 -41.7 22.35 -40.35 19.6 -42.3 L22.75 -45.8 22.65 -46.1 Q24.75 -46.8 25.85 -48.85 26.9 -50.85 26.55 -52.8 26.15 -54.95 24.25 -55.8 L18.5 -55.65 16.4 -59.2 18.05 -60.2 Q19.4 -61.7 18.9 -63.35 18.4 -65.05 16.35 -64.95 17.75 -64.55 18.05 -63.45 18.35 -62.35 17.35 -61.25 16.3 -60.1 13.8 -60.45 L9.9 -61.4 Q7.05 -57.75 2.85 -58.4 -1.05 -58.95 -1.85 -62.0 -2.35 -59.4 -6.35 -59.05 -10.35 -58.7 -11.9 -61.0 -14.95 -58.9 -17.3 -58.35 -21.0 -57.6 -24.1 -60.05 -23.35 -58.45 -22.15 -57.55 L-23.25 -55.5 Q-27.0 -56.85 -29.35 -55.85 -31.35 -55.05 -31.75 -52.85 -32.15 -50.8 -31.05 -48.8 -29.85 -46.7 -27.7 -46.05 L-27.8 -45.8 -24.75 -42.35 Q-26.5 -41.7 -27.9 -42.35 -29.55 -43.15 -30.25 -45.6 -34.9 -46.75 -34.1 -52.0 -33.75 -54.2 -32.45 -56.0 -31.15 -57.9 -29.45 -58.55 -33.45 -61.25 -32.3 -64.55 -31.85 -65.9 -30.6 -66.7 -29.4 -67.55 -28.0 -67.45 -29.0 -68.75 -28.6 -70.6 -28.25 -72.4 -26.85 -74.05 -23.5 -78.0 -18.75 -77.4 -18.05 -83.1 -9.7 -83.75 L-3.65 -83.35 Q-0.85 -82.75 -0.25 -81.85 3.35 -84.2 8.35 -83.6 14.65 -82.9 16.05 -76.5 M-30.4 -10.95 L-30.55 -11.05 Q-30.45 -11.35 -30.5 -11.65 L-30.1 -10.7 -30.4 -10.95 M-32.55 -9.35 Q-32.6 -10.2 -31.7 -10.5 -30.8 -10.8 -30.55 -10.15 -30.35 -9.55 -31.4 -9.1 -32.5 -8.65 -32.55 -9.35 M-32.45 -12.05 Q-31.4 -12.35 -31.15 -11.7 -31.05 -11.45 -31.35 -11.1 -32.35 -11.0 -32.85 -10.5 -33.45 -10.5 -33.5 -10.9 -33.55 -11.75 -32.45 -12.05 M-31.85 -14.45 L-31.6 -14.95 -30.7 -12.25 -31.45 -12.7 Q-31.15 -13.2 -31.25 -13.7 L-31.85 -14.45 M-34.3 -12.75 Q-34.35 -13.6 -33.25 -13.9 -32.2 -14.2 -31.9 -13.55 -31.7 -13.0 -32.75 -12.55 L-33.3 -12.4 Q-34.25 -12.2 -34.3 -12.75 M-34.15 -14.2 Q-34.6 -14.25 -34.6 -14.6 -34.65 -15.45 -33.6 -15.75 -32.5 -16.05 -32.25 -15.4 -32.05 -14.95 -32.85 -14.55 L-34.15 -14.2 M-35.85 -17.35 Q-36.6 -17.55 -36.55 -18.4 -36.55 -19.25 -35.9 -19.25 -35.35 -19.3 -35.3 -18.25 -35.25 -17.2 -35.85 -17.35 M-36.85 -26.8 Q-37.55 -29.1 -33.9 -30.35 -30.25 -31.6 -29.3 -29.55 -28.0 -26.7 -22.65 -8.25 L-23.4 -8.1 -29.1 -21.55 -24.7 -7.8 -27.85 -7.1 -35.05 -24.95 -32.05 -16.2 -32.85 -16.4 -33.45 -16.35 -36.85 -26.8 M-2.3 -44.55 L-0.65 -44.8 Q0.05 -45.05 0.05 -45.4 0.05 -45.75 -0.65 -46.0 L-2.3 -46.25 -3.95 -46.0 -4.65 -45.4 Q-4.65 -45.05 -3.95 -44.8 L-2.3 -44.55 M-8.0 -50.1 L-7.0 -51.0 Q-7.9 -52.05 -9.4 -51.3 -10.9 -50.55 -9.75 -49.25 -8.55 -47.9 -3.05 -48.05 2.55 -48.2 6.15 -49.85 L-0.5 -49.45 Q-5.7 -49.2 -7.6 -49.45 -8.45 -49.6 -8.0 -50.1 M-0.15 -52.35 Q-1.45 -54.9 -3.7 -54.4 -4.55 -54.2 -4.8 -53.55 -5.05 -52.75 -4.3 -51.8 -4.15 -53.05 -3.0 -53.1 -2.05 -53.15 -0.15 -52.35 M-26.15 -54.6 Q-24.9 -54.35 -23.85 -53.6 L-26.8 -47.15 Q-27.9 -47.8 -28.85 -48.85 -30.7 -50.9 -29.75 -52.95 -28.7 -55.2 -26.15 -54.6 M9.8 -2.7 L7.75 -2.7 7.3 -5.95 10.7 -6.25 9.8 -2.7 M9.85 -29.1 Q13.55 -30.6 16.65 -32.7 L24.15 -30.15 21.6 -19.1 20.15 -19.15 22.0 -29.75 18.65 -19.2 13.2 -19.35 16.15 -8.1 -17.4 -7.7 -16.5 -10.6 -16.7 -22.25 -10.35 -25.3 -16.75 -23.55 -14.65 -26.25 -18.0 -25.3 -21.25 -27.1 -18.0 -30.35 Q-15.5 -28.95 -12.25 -28.05 -7.3 -26.65 -1.5 -26.65 3.9 -26.65 9.85 -29.1 M14.9 -33.25 Q12.55 -31.45 9.3 -30.1 4.3 -28.1 -1.7 -27.85 -6.4 -27.6 -11.35 -29.05 -14.5 -29.9 -17.1 -31.2 L-16.05 -32.25 Q-12.25 -29.7 -2.2 -29.85 8.55 -30.05 12.8 -33.85 L14.9 -33.25 M25.55 -27.85 L29.85 -26.85 30.6 -27.85 Q31.5 -28.85 31.85 -28.75 32.4 -28.55 31.25 -26.8 L36.4 -26.4 Q36.5 -25.85 34.05 -25.7 L31.6 -25.7 Q36.15 -23.3 36.05 -22.5 35.9 -21.7 31.75 -23.85 L32.8 -21.75 Q33.75 -19.65 33.35 -19.35 33.0 -19.0 32.0 -20.6 L31.1 -22.2 Q31.55 -19.05 30.9 -18.9 30.7 -18.85 30.25 -20.2 L29.65 -22.35 28.5 -23.55 27.65 -24.25 24.8 -25.1 25.55 -27.85 M21.15 -54.4 Q23.4 -55.2 24.35 -53.1 25.2 -51.25 23.5 -49.1 L21.55 -47.35 19.05 -53.15 21.15 -54.4 M10.65 -60.1 L12.85 -59.5 15.1 -59.1 17.65 -53.45 Q19.5 -48.9 20.05 -46.75 19.4 -45.05 15.05 -39.75 L10.85 -34.8 Q9.7 -33.2 6.05 -32.15 2.65 -31.15 -1.75 -31.0 -12.0 -30.6 -15.05 -34.0 L-18.95 -38.1 Q-23.25 -42.95 -25.25 -46.55 -24.5 -49.3 -21.15 -57.0 L-17.45 -56.8 -17.6 -56.1 Q-17.6 -55.35 -17.05 -54.85 -16.55 -54.35 -15.85 -54.35 -15.1 -54.35 -14.6 -54.85 -14.05 -55.35 -14.05 -56.1 -14.05 -57.05 -15.0 -57.6 -13.9 -58.05 -12.35 -58.95 -10.65 -56.8 -6.5 -57.25 -2.6 -57.75 -1.95 -59.2 0.35 -55.85 5.15 -56.65 9.55 -57.4 10.65 -60.1 M9.4 -57.35 Q8.85 -56.85 8.85 -56.1 8.85 -55.35 9.4 -54.85 9.9 -54.35 10.65 -54.35 11.35 -54.35 11.85 -54.85 12.4 -55.35 12.4 -56.1 12.4 -56.85 11.85 -57.35 11.35 -57.85 10.65 -57.85 9.9 -57.85 9.4 -57.35 M-10.8 -2.4 L-11.5 -5.5 -8.15 -5.5 -8.3 -2.25 -10.8 -2.4 M-30.9 -8.65 L-30.6 -8.85 Q-30.0 -9.2 -30.0 -10.0 L-30.0 -10.25 -28.85 -6.9 -30.2 -6.6 -30.9 -8.65" fill="#ffffff" fill-rule="evenodd" stroke="none"/>
    <path d="M16.05 -76.5 Q14.65 -82.9 8.35 -83.6 3.35 -84.2 -0.25 -81.85 -0.85 -82.75 -3.65 -83.35 L-9.7 -83.75 Q-18.05 -83.1 -18.75 -77.4 -23.5 -78.0 -26.85 -74.05 -28.25 -72.4 -28.6 -70.6 -29.0 -68.75 -28.0 -67.45 -29.4 -67.55 -30.6 -66.7 -31.85 -65.9 -32.3 -64.55 -33.45 -61.25 -29.45 -58.55 -31.15 -57.9 -32.45 -56.0 -33.75 -54.2 -34.1 -52.0 -34.9 -46.75 -30.25 -45.6 -29.55 -43.15 -27.9 -42.35 -26.5 -41.7 -24.75 -42.35 L-27.8 -45.8 -27.7 -46.05 Q-29.85 -46.7 -31.05 -48.8 -32.15 -50.8 -31.75 -52.85 -31.35 -55.05 -29.35 -55.85 -27.0 -56.85 -23.25 -55.5 L-22.15 -57.55 Q-23.35 -58.45 -24.1 -60.05 -21.0 -57.6 -17.3 -58.35 -14.95 -58.9 -11.9 -61.0 -10.35 -58.7 -6.35 -59.05 -2.35 -59.4 -1.85 -62.0 -1.05 -58.95 2.85 -58.4 7.05 -57.75 9.9 -61.4 L13.8 -60.45 Q16.3 -60.1 17.35 -61.25 18.35 -62.35 18.05 -63.45 17.75 -64.55 16.35 -64.95 18.4 -65.05 18.9 -63.35 19.4 -61.7 18.05 -60.2 L16.4 -59.2 18.5 -55.65 24.25 -55.8 Q26.15 -54.95 26.55 -52.8 26.9 -50.85 25.85 -48.85 24.75 -46.8 22.65 -46.1 L22.75 -45.8 19.6 -42.3 Q22.35 -40.35 25.15 -41.7 27.9 -43.05 27.3 -45.9 29.05 -46.45 29.3 -50.1 29.55 -53.6 28.25 -55.3 30.15 -57.35 30.0 -59.9 29.75 -62.65 27.25 -64.15 29.55 -68.7 24.5 -73.4 22.45 -75.35 20.05 -76.2 17.65 -77.15 16.05 -76.5 M10.2 -84.7 Q17.0 -83.3 16.8 -77.55 21.05 -79.1 25.35 -74.6 29.65 -70.15 28.95 -64.9 31.95 -62.75 31.8 -58.8 31.75 -57.2 31.05 -56.1 30.4 -55.0 29.35 -55.0 30.9 -52.75 31.0 -49.9 31.15 -46.25 28.2 -44.8 29.05 -41.6 25.05 -40.15 21.05 -38.7 18.55 -41.1 L13.35 -35.35 26.3 -31.1 26.0 -29.85 29.65 -28.6 31.1 -29.6 Q32.6 -30.7 33.2 -30.9 33.8 -31.15 34.0 -30.45 34.15 -29.75 33.75 -29.4 L33.15 -28.45 32.9 -27.9 35.1 -27.55 38.05 -27.05 Q38.75 -26.85 38.7 -26.25 38.6 -25.7 37.9 -25.5 L35.75 -25.2 34.35 -25.05 35.7 -24.4 37.7 -23.2 Q38.3 -22.65 37.75 -21.85 37.25 -21.05 36.5 -21.25 L34.85 -21.65 33.85 -21.8 34.25 -20.7 34.75 -18.75 Q34.85 -17.9 34.55 -17.65 L33.75 -17.75 32.7 -18.75 32.15 -19.35 32.2 -17.95 Q32.2 -17.25 31.3 -17.2 30.35 -17.1 30.05 -18.15 L28.85 -21.55 27.05 -22.95 24.4 -23.6 22.75 -17.2 15.15 -17.6 17.9 -6.4 12.3 -6.35 11.3 -2.5 14.05 0.0 6.6 0.0 6.05 -6.25 -6.75 -6.1 -7.3 0.0 -14.75 0.0 -12.0 -2.5 -12.95 -6.05 -19.15 -6.0 -18.1 -8.55 -21.55 -5.5 -22.3 -6.9 -28.35 -5.65 -30.4 -4.05 -31.45 -7.05 Q-32.25 -7.45 -33.05 -8.05 -34.55 -9.15 -35.05 -10.2 -35.55 -11.3 -35.7 -13.75 L-35.75 -15.95 -36.2 -16.7 Q-37.4 -17.15 -36.9 -19.1 L-36.5 -19.65 -35.85 -19.75 -38.55 -27.9 Q-39.2 -30.1 -35.15 -31.45 -31.2 -32.85 -29.1 -31.55 L-23.4 -28.25 -17.4 -34.0 -23.4 -40.85 Q-25.85 -39.2 -28.05 -40.05 -30.45 -40.95 -31.1 -44.6 -36.1 -46.05 -35.55 -52.3 -35.35 -54.7 -34.3 -56.7 -33.25 -58.7 -32.1 -59.05 -33.45 -59.55 -34.1 -61.25 -34.7 -62.85 -34.35 -64.65 -34.05 -66.55 -32.9 -67.6 -31.55 -68.85 -29.65 -68.45 -31.3 -72.1 -27.6 -75.8 -24.0 -79.45 -20.05 -78.35 -19.05 -83.4 -10.5 -84.6 -7.15 -85.1 -4.15 -84.65 -1.05 -84.25 -0.05 -83.15 1.65 -84.35 4.55 -84.8 7.45 -85.25 10.2 -84.7 M9.4 -57.35 Q9.9 -57.85 10.65 -57.85 11.35 -57.85 11.85 -57.35 12.4 -56.85 12.4 -56.1 12.4 -55.35 11.85 -54.85 11.35 -54.35 10.65 -54.35 9.9 -54.35 9.4 -54.85 8.85 -55.35 8.85 -56.1 8.85 -56.85 9.4 -57.35 M10.65 -60.1 Q9.55 -57.4 5.15 -56.65 0.35 -55.85 -1.95 -59.2 -2.6 -57.75 -6.5 -57.25 -10.65 -56.8 -12.35 -58.95 -13.9 -58.05 -15.0 -57.6 -14.05 -57.05 -14.05 -56.1 -14.05 -55.35 -14.6 -54.85 -15.1 -54.35 -15.85 -54.35 -16.55 -54.35 -17.05 -54.85 -17.6 -55.35 -17.6 -56.1 L-17.45 -56.8 -21.15 -57.0 Q-24.5 -49.3 -25.25 -46.55 -23.25 -42.95 -18.95 -38.1 L-15.05 -34.0 Q-12.0 -30.6 -1.75 -31.0 2.65 -31.15 6.05 -32.15 9.7 -33.2 10.85 -34.8 L15.05 -39.75 Q19.4 -45.05 20.05 -46.75 19.5 -48.9 17.65 -53.45 L15.1 -59.1 12.85 -59.5 10.65 -60.1 M21.15 -54.4 L19.05 -53.15 21.55 -47.35 23.5 -49.1 Q25.2 -51.25 24.35 -53.1 23.4 -55.2 21.15 -54.4 M25.55 -27.85 L24.8 -25.1 27.65 -24.25 28.5 -23.55 29.65 -22.35 30.25 -20.2 Q30.7 -18.85 30.9 -18.9 31.55 -19.05 31.1 -22.2 L32.0 -20.6 Q33.0 -19.0 33.35 -19.35 33.75 -19.65 32.8 -21.75 L31.75 -23.85 Q35.9 -21.7 36.05 -22.5 36.15 -23.3 31.6 -25.7 L34.05 -25.7 Q36.5 -25.85 36.4 -26.4 L31.25 -26.8 Q32.4 -28.55 31.85 -28.75 31.5 -28.85 30.6 -27.85 L29.85 -26.85 25.55 -27.85 M14.9 -33.25 L12.8 -33.85 Q8.55 -30.05 -2.2 -29.85 -12.25 -29.7 -16.05 -32.25 L-17.1 -31.2 Q-14.5 -29.9 -11.35 -29.05 -6.4 -27.6 -1.7 -27.85 4.3 -28.1 9.3 -30.1 12.55 -31.45 14.9 -33.25 M9.85 -29.1 Q3.9 -26.65 -1.5 -26.65 -7.3 -26.65 -12.25 -28.05 -15.5 -28.95 -18.0 -30.35 L-21.25 -27.1 -18.0 -25.3 -14.65 -26.25 -16.75 -23.55 -10.35 -25.3 -16.7 -22.25 -16.5 -10.6 -17.4 -7.7 16.15 -8.1 13.2 -19.35 18.65 -19.2 22.0 -29.75 20.15 -19.15 21.6 -19.1 24.15 -30.15 16.65 -32.7 Q13.55 -30.6 9.85 -29.1 M9.8 -2.7 L10.7 -6.25 7.3 -5.95 7.75 -2.7 9.8 -2.7 M-26.15 -54.6 Q-28.7 -55.2 -29.75 -52.95 -30.7 -50.9 -28.85 -48.85 -27.9 -47.8 -26.8 -47.15 L-23.85 -53.6 Q-24.9 -54.35 -26.15 -54.6 M-0.15 -52.35 Q-2.05 -53.15 -3.0 -53.1 -4.15 -53.05 -4.3 -51.8 -5.05 -52.75 -4.8 -53.55 -4.55 -54.2 -3.7 -54.4 -1.45 -54.9 -0.15 -52.35 M-8.0 -50.1 Q-8.45 -49.6 -7.6 -49.45 -5.7 -49.2 -0.5 -49.45 L6.15 -49.85 Q2.55 -48.2 -3.05 -48.05 -8.55 -47.9 -9.75 -49.25 -10.9 -50.55 -9.4 -51.3 -7.9 -52.05 -7.0 -51.0 L-8.0 -50.1 M-2.3 -44.55 L-3.95 -44.8 Q-4.65 -45.05 -4.65 -45.4 L-3.95 -46.0 -2.3 -46.25 -0.65 -46.0 Q0.05 -45.75 0.05 -45.4 0.05 -45.05 -0.65 -44.8 L-2.3 -44.55 M-36.85 -26.8 L-33.45 -16.35 -32.85 -16.4 -32.05 -16.2 -35.05 -24.95 -27.85 -7.1 -24.7 -7.8 -29.1 -21.55 -23.4 -8.1 -22.65 -8.25 Q-28.0 -26.7 -29.3 -29.55 -30.25 -31.6 -33.9 -30.35 -37.55 -29.1 -36.85 -26.8 M-35.85 -17.35 Q-35.25 -17.2 -35.3 -18.25 -35.35 -19.3 -35.9 -19.25 -36.55 -19.25 -36.55 -18.4 -36.6 -17.55 -35.85 -17.35 M-34.15 -14.2 L-32.85 -14.55 Q-32.05 -14.95 -32.25 -15.4 -32.5 -16.05 -33.6 -15.75 -34.65 -15.45 -34.6 -14.6 -34.6 -14.25 -34.15 -14.2 M-34.3 -12.75 Q-34.25 -12.2 -33.3 -12.4 L-32.75 -12.55 Q-31.7 -13.0 -31.9 -13.55 -32.2 -14.2 -33.25 -13.9 -34.35 -13.6 -34.3 -12.75 M-31.85 -14.45 L-31.25 -13.7 Q-31.15 -13.2 -31.45 -12.7 L-30.7 -12.25 -31.6 -14.95 -31.85 -14.45 M-32.45 -12.05 Q-33.55 -11.75 -33.5 -10.9 -33.45 -10.5 -32.85 -10.5 -32.35 -11.0 -31.35 -11.1 -31.05 -11.45 -31.15 -11.7 -31.4 -12.35 -32.45 -12.05 M-32.55 -9.35 Q-32.5 -8.65 -31.4 -9.1 -30.35 -9.55 -30.55 -10.15 -30.8 -10.8 -31.7 -10.5 -32.6 -10.2 -32.55 -9.35 M-30.1 -10.7 L-30.5 -11.65 Q-30.45 -11.35 -30.55 -11.05 L-30.4 -10.95 -30.1 -10.65 -30.1 -10.7 M-30.9 -8.65 L-30.2 -6.6 -28.85 -6.9 -30.0 -10.25 -30.0 -10.0 Q-30.0 -9.2 -30.6 -8.85 L-30.9 -8.65 M-10.8 -2.4 L-8.3 -2.25 -8.15 -5.5 -11.5 -5.5 -10.8 -2.4" fill="#000000" fill-rule="evenodd" stroke="none"/>
  </g>
</svg>
