<?xml version="1.0" encoding="UTF-8" standalone="no"?>
<svg xmlns:ffdec="https://www.free-decompiler.com/flash" xmlns:xlink="http://www.w3.org/1999/xlink" ffdec:objectType="shape" height="85.0px" width="73.15px" xmlns="http://www.w3.org/2000/svg">
  <g transform="matrix(1.0, 0.0, 0.0, 1.0, 36.6, 85.0)">
    <path d="M-27.7 -55.25 Q-25.95 -55.95 -24.05 -55.25 L-25.15 -51.1 Q-25.4 -50.2 -25.05 -49.2 -26.5 -48.85 -27.9 -49.85 -29.15 -50.75 -29.6 -52.35 -29.8 -53.3 -29.2 -54.1 -28.7 -54.8 -27.7 -55.25" fill="#ffffff" fill-rule="evenodd" stroke="none"/>
    <path d="M2.25 -64.1 Q0.2 -64.55 -2.15 -64.1 -2.4 -65.45 -3.05 -66.65 L3.0 -66.2 Q2.55 -65.3 2.25 -64.1" fill="#ffffff" fill-rule="evenodd" stroke="none"/>
    <path d="M0.25 -51.15 L-0.75 -51.55 -1.6 -52.25 Q-2.3 -52.95 -1.95 -53.4 -1.65 -53.8 -0.8 -53.9 L1.95 -53.55 1.25 -52.85 0.8 -52.0 0.25 -51.15" fill="#ffffff" fill-rule="evenodd" stroke="none"/>
    <path d="M16.25 -78.55 Q17.05 -77.55 17.8 -75.4 L19.05 -72.1 Q20.2 -69.45 22.7 -67.55 L21.45 -67.4 Q20.05 -69.35 17.5 -70.6 15.1 -71.75 12.5 -71.9 9.5 -71.95 7.0 -70.45 5.6 -70.85 5.6 -71.65 L6.1 -73.6 Q5.0 -72.65 5.0 -71.3 5.05 -70.05 5.9 -69.45 L4.85 -68.8 Q2.75 -70.3 2.3 -70.9 1.35 -72.3 2.25 -74.35 2.6 -75.1 2.3 -75.25 2.0 -75.4 1.55 -74.7 0.3 -72.85 0.9 -71.05 1.25 -69.85 2.9 -67.9 L-4.45 -68.45 Q-6.0 -70.0 -8.2 -70.9 -10.3 -71.8 -12.55 -71.9 -14.95 -71.95 -17.15 -70.9 -19.3 -69.9 -20.8 -68.1 L-23.7 -67.85 Q-22.05 -69.6 -20.95 -71.1 -20.05 -72.3 -19.25 -74.2 L-17.85 -77.4 Q-15.2 -82.65 -7.85 -83.45 L-2.35 -83.0 Q0.25 -82.25 1.2 -80.75 1.3 -80.55 1.6 -80.6 L2.1 -80.75 Q5.25 -82.85 9.1 -82.45 13.4 -82.05 16.25 -78.55" fill="#ffffff" fill-rule="evenodd" stroke="none"/>
    <path d="M-34.0 -37.55 Q-31.85 -38.5 -29.55 -38.4 -27.25 -38.3 -25.85 -37.2 L-26.15 -15.8 -27.45 -15.85 -29.05 -36.5 -28.3 -15.9 -29.3 -16.0 -30.9 -32.5 -30.15 -16.05 -31.05 -16.15 -32.65 -36.3 -31.9 -16.2 -33.05 -16.25 -34.0 -37.55" fill="#ffffff" fill-rule="evenodd" stroke="none"/>
    <path d="M-33.35 -67.1 L-32.75 -67.6 -30.15 -65.65 -31.3 -64.75 -33.35 -67.1" fill="#ffffff" fill-rule="evenodd" stroke="none"/>
    <path d="M-12.75 -68.45 Q-9.7 -68.45 -7.5 -66.9 -5.05 -65.15 -4.85 -62.25 -5.05 -59.3 -7.35 -57.6 -9.45 -56.05 -12.4 -56.05 -15.35 -56.05 -17.4 -57.6 -19.7 -59.3 -19.9 -62.25 -20.05 -65.15 -17.8 -66.9 -15.8 -68.45 -12.75 -68.45" fill="#ffffff" fill-rule="evenodd" stroke="none"/>
    <path d="M12.3 -68.45 Q15.35 -68.45 17.55 -66.9 20.0 -65.15 20.2 -62.25 20.0 -59.3 17.7 -57.6 15.6 -56.05 12.65 -56.05 9.7 -56.05 7.65 -57.6 5.35 -59.3 5.2 -62.25 5.0 -65.15 7.25 -66.9 9.25 -68.45 12.3 -68.45" fill="#ffffff" fill-rule="evenodd" stroke="none"/>
    <path d="M3.0 -49.25 L1.9 -49.2 Q1.0 -48.6 -0.6 -48.75 -2.0 -48.9 -3.05 -49.5 L-4.0 -49.6 Q-4.2 -49.3 -3.5 -48.85 -2.0 -47.95 -0.4 -47.75 1.45 -47.45 2.75 -48.35 3.4 -48.85 3.0 -49.25 M5.3 -53.65 Q5.65 -53.95 5.15 -54.4 4.65 -54.85 4.35 -54.55 L3.9 -54.2 3.25 -54.1 3.2 -54.15 1.7 -54.5 -1.3 -54.7 Q-2.3 -54.6 -2.9 -54.1 -3.6 -53.5 -3.4 -52.6 -2.95 -50.95 -0.25 -50.15 L0.65 -50.2 1.25 -50.9 2.0 -52.3 Q2.45 -53.0 3.25 -53.3 L3.3 -53.3 Q4.75 -53.15 5.3 -53.65 M-2.15 -56.35 Q-2.0 -56.2 -1.75 -56.5 -1.2 -57.25 -0.45 -57.45 L1.15 -57.35 1.95 -56.65 1.85 -56.3 1.4 -56.1 Q1.05 -56.05 1.05 -55.8 1.05 -55.55 1.45 -55.6 2.6 -55.65 2.75 -56.35 2.9 -57.1 2.0 -57.75 1.0 -58.45 -0.2 -58.15 -1.25 -57.85 -2.1 -56.8 L-2.15 -56.35 M15.4 -53.35 Q18.4 -54.05 20.35 -56.05 L21.6 -52.5 Q22.2 -50.5 21.8 -49.9 20.35 -47.7 16.35 -43.6 L12.6 -39.85 12.35 -39.75 9.25 -38.1 Q6.95 -36.9 4.65 -35.95 3.05 -35.2 2.1 -34.9 L-0.5 -34.55 Q-6.85 -35.85 -14.45 -40.05 L-15.0 -40.4 -15.2 -40.7 -19.95 -45.6 -23.1 -49.25 Q-23.6 -49.9 -23.55 -50.4 L-23.15 -51.9 -21.6 -57.55 Q-19.95 -54.95 -16.85 -53.75 -13.9 -52.65 -10.65 -53.15 -7.4 -53.65 -5.15 -55.65 -2.65 -57.8 -2.15 -61.25 L-0.15 -61.65 2.05 -61.4 Q2.95 -54.95 9.65 -53.35 12.5 -52.65 15.4 -53.35" fill="#ffffff" fill-rule="evenodd" stroke="none"/>
    <path d="M-13.55 -15.65 Q-13.65 -14.8 -14.55 -14.2 L-15.65 -13.55 -15.1 -14.25 -14.85 -15.2 -14.7 -16.1 -14.65 -16.85 Q-14.7 -17.8 -13.55 -16.65 L-13.55 -15.65" fill="#ffffff" fill-rule="evenodd" stroke="none"/>
    <path d="M-16.2 -14.15 L-16.3 -13.95 Q-16.6 -13.2 -17.85 -12.75 L-19.3 -12.5 Q-18.15 -13.45 -17.7 -15.85 L-17.35 -17.15 Q-16.95 -18.1 -16.35 -17.4 -15.9 -16.8 -15.75 -16.05 -15.9 -14.75 -16.2 -14.15" fill="#ffffff" fill-rule="evenodd" stroke="none"/>
    <path d="M-14.15 -32.9 L-15.05 -32.1 -16.5 -30.9 -19.8 -33.9 -16.2 -38.25 -11.45 -32.1 Q-11.65 -27.25 -10.55 -19.65 L-13.5 -20.25 Q-13.4 -23.75 -13.75 -26.7 L-14.3 -30.7 -14.5 -31.95 -14.15 -32.7 -14.15 -32.9" fill="#ffffff" fill-rule="evenodd" stroke="none"/>
    <path d="M-19.35 -16.8 Q-18.2 -15.25 -18.75 -13.95 -19.35 -12.7 -20.8 -12.65 L-22.05 -12.7 -22.95 -12.9 -23.5 -13.7 -21.65 -13.9 -21.35 -13.85 -21.05 -14.05 -20.65 -15.4 -20.35 -16.9 Q-20.0 -17.65 -19.35 -16.8" fill="#ffffff" fill-rule="evenodd" stroke="none"/>
    <path d="M10.3 -19.05 L10.5 -17.05 Q10.6 -16.5 12.0 -13.45 13.45 -10.4 13.95 -9.7 L10.35 -5.55 Q9.2 -4.1 9.15 -3.2 L9.2 -2.8 9.55 -2.5 Q8.65 -2.2 7.45 -2.5 L7.85 -7.35 Q7.95 -8.55 7.4 -9.45 L5.9 -11.05 9.55 -12.05 4.6 -12.0 -0.35 -12.0 -7.15 -11.8 -7.6 -12.05 -8.0 -11.55 -10.3 -7.1 -9.9 -4.7 -9.45 -2.3 -11.55 -2.5 Q-11.3 -2.85 -11.55 -3.4 L-14.9 -9.85 -13.45 -13.25 -13.4 -13.5 Q-12.75 -14.1 -12.7 -15.0 L-12.65 -16.6 Q-12.75 -17.6 -13.4 -17.95 L-13.6 -18.05 -13.6 -18.5 Q1.45 -14.95 10.3 -19.05" fill="#ffffff" fill-rule="evenodd" stroke="none"/>
    <path d="M26.25 -51.55 Q26.95 -52.15 28.45 -52.15 L30.65 -51.75 30.4 -44.15 Q30.0 -39.7 28.95 -36.45 L20.1 -33.05 Q16.1 -31.6 11.25 -30.2 10.55 -30.0 10.85 -29.85 L11.3 -29.75 10.7 -25.95 Q10.3 -22.9 10.3 -20.95 L8.3 -20.1 Q9.3 -27.55 9.2 -32.25 L13.15 -36.95 Q15.95 -37.45 20.0 -38.85 23.0 -39.9 24.75 -40.7 25.35 -42.1 25.85 -46.3 26.35 -50.05 26.25 -51.55" fill="#ffffff" fill-rule="evenodd" stroke="none"/>
    <path d="M23.95 -58.25 Q25.35 -57.95 25.15 -56.5 24.85 -54.75 25.2 -54.4 26.15 -53.4 27.45 -54.2 28.7 -54.9 29.0 -56.1 29.45 -57.9 27.65 -58.55 L24.5 -59.1 Q23.55 -59.25 23.25 -60.05 22.95 -60.85 24.05 -61.1 L26.75 -60.85 29.05 -59.9 Q30.4 -59.1 30.6 -58.1 30.65 -57.75 31.0 -57.75 31.35 -57.75 31.45 -58.1 31.7 -59.0 30.65 -60.05 L29.0 -61.6 Q28.35 -62.25 28.95 -62.25 L30.1 -62.1 Q31.35 -61.9 32.15 -60.75 L32.6 -59.1 Q32.6 -58.1 32.1 -57.45 31.85 -57.1 32.1 -56.8 32.4 -56.5 32.7 -56.8 33.8 -57.75 33.45 -59.55 L32.95 -61.55 Q34.65 -60.5 35.15 -59.05 35.6 -57.55 34.55 -55.7 33.9 -54.45 30.75 -52.45 L27.8 -52.95 Q26.4 -52.9 24.95 -52.25 L24.75 -52.0 Q23.0 -52.8 22.15 -55.0 21.75 -56.15 22.2 -57.25 22.7 -58.5 23.95 -58.25" fill="#ffffff" fill-rule="evenodd" stroke="none"/>
    <path d="M-0.8 -33.55 Q-2.2 -33.2 -4.3 -31.45 L-7.25 -28.55 -11.25 -33.85 -15.25 -39.2 Q-12.4 -37.7 -8.15 -36.05 -3.7 -34.25 -0.8 -33.55" fill="#ffffff" fill-rule="evenodd" stroke="none"/>
    <path d="M4.75 -28.8 L3.0 -31.4 Q1.6 -33.05 0.65 -33.35 L3.65 -34.35 Q6.45 -35.35 8.8 -36.5 L13.05 -38.6 4.75 -28.8" fill="#ffffff" fill-rule="evenodd" stroke="none"/>
    <path d="M-8.35 -28.45 L-7.25 -27.3 -4.4 -30.0 Q-1.3 -32.8 -0.05 -33.2 1.5 -32.2 3.05 -29.7 L4.3 -27.4 6.1 -29.15 Q6.5 -27.2 4.85 -19.15 -0.2 -18.1 -6.9 -19.0 L-7.65 -22.35 Q-8.45 -26.15 -8.35 -28.45" fill="#ffffff" fill-rule="evenodd" stroke="none"/>
    <path d="M-16.35 -17.4 Q-16.95 -18.1 -17.35 -17.15 L-17.7 -15.85 Q-18.15 -13.45 -19.3 -12.5 L-17.85 -12.75 Q-16.6 -13.2 -16.3 -13.95 L-16.2 -14.15 Q-15.9 -14.75 -15.75 -16.05 -15.9 -16.8 -16.35 -17.4 M-13.55 -16.65 Q-14.7 -17.8 -14.65 -16.85 L-14.7 -16.1 -14.85 -15.2 -15.1 -14.25 -15.65 -13.55 -14.55 -14.2 Q-13.65 -14.8 -13.55 -15.65 L-13.55 -16.65 M-19.35 -16.8 Q-20.0 -17.65 -20.35 -16.9 L-20.65 -15.4 -21.05 -14.05 -21.35 -13.85 -21.65 -13.9 -23.5 -13.7 -22.95 -12.9 -22.05 -12.7 -20.8 -12.65 Q-19.35 -12.7 -18.75 -13.95 -18.2 -15.25 -19.35 -16.8 M10.5 -17.05 L10.3 -19.05 Q1.45 -14.95 -13.6 -18.5 L-13.6 -18.05 -13.4 -17.95 Q-12.75 -17.6 -12.65 -16.6 L-12.7 -15.0 Q-12.75 -14.1 -13.4 -13.5 L-13.45 -13.25 -14.9 -9.85 -11.55 -3.4 Q-11.3 -2.85 -11.55 -2.5 L-9.45 -2.3 -9.9 -4.7 -10.3 -7.1 -8.0 -11.55 -7.6 -12.05 -7.15 -11.8 -0.35 -12.0 4.6 -12.0 9.55 -12.05 5.9 -11.05 7.4 -9.45 Q7.95 -8.55 7.85 -7.35 L7.45 -2.5 Q8.65 -2.2 9.55 -2.5 L9.2 -2.8 9.15 -3.2 Q9.2 -4.1 10.35 -5.55 L13.95 -9.7 Q13.45 -10.4 12.0 -13.45 10.6 -16.5 10.5 -17.05 M3.65 -34.35 L0.65 -33.35 Q1.6 -33.05 3.0 -31.4 L4.75 -28.8 13.05 -38.6 8.8 -36.5 Q6.45 -35.35 3.65 -34.35 M-4.4 -30.0 L-7.25 -27.3 -8.35 -28.45 Q-8.45 -26.15 -7.65 -22.35 L-6.9 -19.0 Q-0.2 -18.1 4.85 -19.15 6.5 -27.2 6.1 -29.15 L4.3 -27.4 3.05 -29.7 Q1.5 -32.2 -0.05 -33.2 -1.3 -32.8 -4.4 -30.0 M-11.25 -33.85 L-7.25 -28.55 -4.3 -31.45 Q-2.2 -33.2 -0.8 -33.55 -3.7 -34.25 -8.15 -36.05 -12.4 -37.7 -15.25 -39.2 L-11.25 -33.85 M-16.5 -30.9 L-15.05 -32.1 -14.15 -32.9 -14.15 -32.7 -14.5 -31.95 -14.3 -30.7 -13.75 -26.7 Q-13.4 -23.75 -13.5 -20.25 L-10.55 -19.65 Q-11.65 -27.25 -11.45 -32.1 L-16.2 -38.25 -19.8 -33.9 -16.5 -30.9 M-25.85 -37.2 Q-27.25 -38.3 -29.55 -38.4 -31.85 -38.5 -34.0 -37.55 L-33.05 -16.25 -31.9 -16.2 -32.65 -36.3 -31.05 -16.15 -30.15 -16.05 -30.9 -32.5 -29.3 -16.0 -28.3 -15.9 -29.05 -36.5 -27.45 -15.85 -26.15 -15.8 -25.85 -37.2 M-27.7 -55.25 Q-28.7 -54.8 -29.2 -54.1 -29.8 -53.3 -29.6 -52.35 -29.15 -50.75 -27.9 -49.85 -26.5 -48.85 -25.05 -49.2 -25.4 -50.2 -25.15 -51.1 L-24.05 -55.25 Q-25.95 -55.95 -27.7 -55.25 M-33.35 -67.1 L-31.3 -64.75 -30.15 -65.65 -32.75 -67.6 -33.35 -67.1 M-4.85 -62.25 Q-5.05 -65.15 -7.5 -66.9 -9.7 -68.45 -12.75 -68.45 -15.8 -68.45 -17.8 -66.9 -20.05 -65.15 -19.9 -62.25 -19.7 -59.3 -17.4 -57.6 -15.35 -56.05 -12.4 -56.05 -9.45 -56.05 -7.35 -57.6 -5.05 -59.3 -4.85 -62.25 M-3.05 -66.65 Q-2.4 -65.45 -2.15 -64.1 0.2 -64.55 2.25 -64.1 2.55 -65.3 3.0 -66.2 L-3.05 -66.65 M16.35 -43.6 Q20.35 -47.7 21.8 -49.9 22.2 -50.5 21.6 -52.5 L20.35 -56.05 Q18.4 -54.05 15.4 -53.35 12.5 -52.65 9.65 -53.35 2.95 -54.95 2.05 -61.4 L-0.15 -61.65 -2.15 -61.25 Q-2.65 -57.8 -5.15 -55.65 -7.4 -53.65 -10.65 -53.15 -13.9 -52.65 -16.85 -53.75 -19.95 -54.95 -21.6 -57.55 L-23.15 -51.9 -23.55 -50.4 Q-23.6 -49.9 -23.1 -49.25 L-19.95 -45.6 -15.2 -40.7 -15.0 -40.4 -14.45 -40.05 Q-6.85 -35.85 -0.5 -34.55 L2.1 -34.9 Q3.05 -35.2 4.65 -35.95 6.95 -36.9 9.25 -38.1 L12.35 -39.75 12.6 -39.85 16.35 -43.6 M22.1 -47.4 Q20.75 -45.7 18.8 -43.75 L15.25 -40.25 Q15.0 -39.4 15.15 -39.1 L19.55 -40.25 23.9 -41.45 Q24.85 -44.95 24.75 -47.7 L22.1 -47.4 M30.65 -51.75 L28.45 -52.15 Q26.95 -52.15 26.25 -51.55 26.35 -50.05 25.85 -46.3 25.35 -42.1 24.75 -40.7 23.0 -39.9 20.0 -38.85 15.95 -37.45 13.15 -36.95 L9.2 -32.25 Q9.3 -27.55 8.3 -20.1 L10.3 -20.95 Q10.3 -22.9 10.7 -25.95 L11.3 -29.75 10.85 -29.85 Q10.55 -30.0 11.25 -30.2 16.1 -31.6 20.1 -33.05 L28.95 -36.45 Q30.0 -39.7 30.4 -44.15 L30.65 -51.75 M24.05 -61.1 Q22.95 -60.85 23.25 -60.05 23.55 -59.25 24.5 -59.1 L27.65 -58.55 Q29.45 -57.9 29.0 -56.1 28.7 -54.9 27.45 -54.2 26.15 -53.4 25.2 -54.4 24.85 -54.75 25.15 -56.5 25.35 -57.95 23.95 -58.25 22.7 -58.5 22.2 -57.25 21.75 -56.15 22.15 -55.0 23.0 -52.8 24.75 -52.0 L24.95 -52.25 Q26.4 -52.9 27.8 -52.95 L30.75 -52.45 Q33.9 -54.45 34.55 -55.7 35.6 -57.55 35.15 -59.05 34.65 -60.5 32.95 -61.55 L33.45 -59.55 Q33.8 -57.75 32.7 -56.8 32.4 -56.5 32.1 -56.8 31.85 -57.1 32.1 -57.45 32.6 -58.1 32.6 -59.1 L32.15 -60.75 Q31.35 -61.9 30.1 -62.1 L28.95 -62.25 Q28.35 -62.25 29.0 -61.6 L30.65 -60.05 Q31.7 -59.0 31.45 -58.1 31.35 -57.75 31.0 -57.75 30.65 -57.75 30.6 -58.1 30.4 -59.1 29.05 -59.9 L26.75 -60.85 24.05 -61.1 M20.2 -62.25 Q20.0 -65.15 17.55 -66.9 15.35 -68.45 12.3 -68.45 9.25 -68.45 7.25 -66.9 5.0 -65.15 5.2 -62.25 5.35 -59.3 7.65 -57.6 9.7 -56.05 12.65 -56.05 15.6 -56.05 17.7 -57.6 20.0 -59.3 20.2 -62.25 M13.3 -82.7 Q15.6 -81.4 17.35 -79.4 18.95 -77.55 19.4 -75.95 20.15 -73.15 21.55 -71.2 23.05 -69.1 25.55 -67.75 26.0 -67.5 25.9 -67.2 25.8 -66.9 25.2 -66.8 24.75 -66.75 23.8 -66.3 22.9 -65.8 22.4 -65.75 23.1 -64.15 23.0 -62.35 L22.95 -61.6 23.8 -61.95 25.5 -62.1 27.5 -61.7 27.25 -62.15 27.25 -62.6 Q27.25 -62.8 27.6 -63.0 L28.1 -63.2 30.65 -63.0 31.6 -62.6 Q31.55 -62.8 32.2 -62.95 L33.05 -63.0 Q35.15 -62.0 36.05 -59.95 37.0 -57.8 36.1 -55.6 35.2 -53.35 32.0 -51.65 32.75 -45.45 30.4 -36.3 L29.7 -35.45 Q29.15 -34.9 28.85 -34.8 L21.05 -31.75 Q16.85 -30.05 13.05 -29.1 L12.95 -28.8 12.85 -28.5 Q11.85 -22.55 12.0 -19.4 12.15 -16.75 13.2 -14.6 L14.45 -12.4 15.85 -10.05 15.95 -9.5 15.7 -9.0 12.65 -5.65 11.6 -4.4 Q10.9 -3.4 11.2 -3.15 L13.0 -0.55 Q13.25 -0.15 12.9 -0.05 L12.0 0.0 6.4 0.0 5.8 -0.25 Q5.5 -0.55 5.55 -0.9 L6.15 -8.2 4.3 -10.15 4.25 -10.25 -0.9 -10.2 -7.5 -10.05 -8.55 -7.45 -8.55 -7.05 -7.65 -1.1 Q-7.6 -0.65 -7.8 -0.35 -8.1 0.0 -8.5 0.0 L-13.8 0.0 -14.45 -0.1 Q-14.65 -0.2 -14.45 -0.6 L-13.95 -1.8 -13.35 -3.05 -16.0 -8.2 -16.55 -9.35 -16.5 -10.5 -15.95 -11.7 -15.9 -12.2 -18.75 -11.35 -21.65 -11.25 Q-22.55 -11.35 -23.45 -11.9 -24.55 -12.55 -24.75 -13.4 L-25.55 -13.6 -26.25 -13.55 -26.3 -14.8 -30.75 -15.0 -34.45 -13.75 -35.05 -38.05 Q-33.65 -39.65 -30.15 -39.6 -26.6 -39.6 -24.3 -37.95 L-21.1 -35.0 -17.4 -39.75 -17.6 -40.6 -22.05 -45.3 -24.15 -47.6 Q-26.5 -46.7 -28.9 -48.4 -31.25 -50.05 -31.35 -52.65 -31.45 -54.85 -29.7 -56.1 -28.2 -57.25 -25.95 -57.25 L-32.4 -64.35 -36.55 -70.45 Q-36.7 -70.7 -36.45 -70.95 L-35.95 -71.05 -29.25 -66.35 -29.2 -66.35 -22.9 -59.4 -22.7 -60.05 -23.0 -62.1 -23.05 -62.35 -23.0 -62.6 Q-22.9 -64.55 -22.0 -66.25 L-24.35 -66.25 -26.7 -66.2 Q-27.3 -66.15 -27.25 -66.55 L-26.8 -67.35 Q-24.4 -69.45 -23.15 -70.9 -21.25 -73.15 -20.6 -75.2 -18.55 -81.9 -11.15 -84.15 -8.3 -85.05 -5.35 -85.0 -2.65 -84.95 -1.0 -84.15 L0.55 -83.15 Q1.6 -82.45 2.0 -82.75 7.35 -86.0 13.3 -82.7 M12.5 -71.9 Q15.1 -71.75 17.5 -70.6 20.05 -69.35 21.45 -67.4 L22.7 -67.55 Q20.2 -69.45 19.05 -72.1 L17.8 -75.4 Q17.05 -77.55 16.25 -78.55 13.4 -82.05 9.1 -82.45 5.25 -82.85 2.1 -80.75 L1.6 -80.6 Q1.3 -80.55 1.2 -80.75 0.25 -82.25 -2.35 -83.0 L-7.85 -83.45 Q-15.2 -82.65 -17.85 -77.4 L-19.25 -74.2 Q-20.05 -72.3 -20.95 -71.1 -22.05 -69.6 -23.7 -67.85 L-20.8 -68.1 Q-19.3 -69.9 -17.15 -70.9 -14.95 -71.95 -12.55 -71.9 -10.3 -71.8 -8.2 -70.9 -6.0 -70.0 -4.45 -68.45 L2.9 -67.9 Q1.25 -69.85 0.9 -71.05 0.3 -72.85 1.55 -74.7 2.0 -75.4 2.3 -75.25 2.6 -75.1 2.25 -74.35 1.35 -72.3 2.3 -70.9 2.75 -70.3 4.85 -68.8 L5.9 -69.45 Q5.05 -70.05 5.0 -71.3 5.0 -72.65 6.1 -73.6 L5.6 -71.65 Q5.6 -70.85 7.0 -70.45 9.5 -71.95 12.5 -71.9" fill="#000000" fill-rule="evenodd" stroke="none"/>
    <path d="M-3.5 -48.85 Q-4.2 -49.3 -4.0 -49.6 L-3.05 -49.5 Q-2.0 -48.9 -0.6 -48.75 1.0 -48.6 1.9 -49.2 L3.0 -49.25 Q3.4 -48.85 2.75 -48.35 1.45 -47.45 -0.4 -47.75 -2.0 -47.95 -3.5 -48.85" fill="#000000" fill-rule="evenodd" stroke="none"/>
    <path d="M0.25 -51.15 L0.8 -52.0 1.25 -52.85 1.95 -53.55 -0.8 -53.9 Q-1.65 -53.8 -1.95 -53.4 -2.3 -52.95 -1.6 -52.25 L-0.75 -51.55 0.25 -51.15 M5.15 -54.4 Q5.65 -53.95 5.3 -53.65 4.75 -53.15 3.3 -53.3 L3.25 -53.3 Q2.45 -53.0 2.0 -52.3 L1.25 -50.9 0.65 -50.2 -0.25 -50.15 Q-2.95 -50.95 -3.4 -52.6 -3.6 -53.5 -2.9 -54.1 -2.3 -54.6 -1.3 -54.7 L1.7 -54.5 3.2 -54.15 3.25 -54.1 3.9 -54.2 4.35 -54.55 Q4.65 -54.85 5.15 -54.4" fill="#000000" fill-rule="evenodd" stroke="none"/>
    <path d="M-1.75 -56.5 Q-2.0 -56.2 -2.15 -56.35 L-2.1 -56.8 Q-1.25 -57.85 -0.2 -58.15 1.0 -58.45 2.0 -57.75 2.9 -57.1 2.75 -56.35 2.6 -55.65 1.45 -55.6 1.05 -55.55 1.05 -55.8 1.05 -56.05 1.4 -56.1 L1.85 -56.3 1.95 -56.65 1.15 -57.35 -0.45 -57.45 Q-1.2 -57.25 -1.75 -56.5" fill="#000000" fill-rule="evenodd" stroke="none"/>
  </g>
</svg>
