<?xml version="1.0" encoding="UTF-8" standalone="no"?>
<svg xmlns:ffdec="https://www.free-decompiler.com/flash" xmlns:xlink="http://www.w3.org/1999/xlink" ffdec:objectType="shape" height="82.1px" width="80.0px" xmlns="http://www.w3.org/2000/svg">
  <g transform="matrix(1.0, 0.0, 0.0, 1.0, 40.0, 82.1)">
    <path d="M18.2 -75.35 Q17.85 -74.25 17.95 -71.55 18.05 -69.1 17.8 -68.6 19.15 -68.8 21.65 -67.5 L25.5 -65.55 22.95 -63.05 Q21.35 -61.65 19.95 -61.05 L22.4 -57.45 Q24.1 -54.65 25.1 -53.65 22.95 -52.7 22.65 -52.9 L22.45 -53.45 Q21.7 -54.65 20.65 -55.25 19.5 -55.95 18.2 -55.7 L17.45 -57.65 17.8 -59.85 Q17.7 -61.3 16.95 -62.3 L15.2 -63.95 13.8 -65.05 12.45 -68.1 13.4 -69.35 9.7 -69.8 10.6 -71.4 Q0.95 -69.5 -1.05 -68.45 -2.05 -69.05 -7.45 -70.55 L-12.65 -71.9 -11.75 -70.2 -16.6 -70.05 -20.4 -70.15 -20.35 -67.2 -22.95 -62.95 Q-25.45 -58.55 -25.9 -56.5 -28.0 -57.0 -29.4 -55.3 -30.7 -53.75 -30.7 -51.5 L-32.9 -52.0 -31.6 -55.8 Q-30.65 -57.65 -29.15 -59.0 -30.15 -59.0 -31.65 -59.7 -33.25 -60.5 -33.8 -60.55 -30.0 -63.65 -27.65 -64.25 -28.9 -64.85 -29.35 -66.85 L-29.85 -70.35 -26.5 -71.45 -23.3 -72.2 Q-22.5 -73.9 -20.1 -75.95 L-16.65 -78.5 -16.4 -77.0 -16.1 -75.5 Q-14.65 -76.75 -5.2 -80.0 L-3.5 -78.55 -1.95 -76.85 -1.05 -78.3 0.0 -79.8 Q1.25 -79.15 3.3 -77.45 L5.95 -74.8 Q6.2 -75.8 7.0 -77.2 L7.75 -78.6 Q9.25 -77.95 10.9 -76.5 L13.65 -73.35 Q14.7 -74.35 16.2 -74.9 L18.2 -75.35" fill="#ffffff" fill-rule="evenodd" stroke="none"/>
    <path d="M22.25 -51.55 Q22.5 -50.4 21.85 -49.4 21.1 -48.45 20.15 -48.5 L20.35 -49.35 Q20.4 -50.45 19.8 -52.0 L18.65 -54.55 Q19.7 -55.3 20.9 -53.95 21.9 -52.85 22.25 -51.55" fill="#ffffff" fill-rule="evenodd" stroke="none"/>
    <path d="M9.05 -64.1 Q11.85 -64.1 13.8 -63.05 15.95 -61.9 16.1 -59.85 16.3 -57.4 14.25 -55.95 12.4 -54.6 9.55 -54.5 6.7 -54.4 4.5 -55.6 2.05 -56.9 1.6 -59.2 2.15 -59.35 2.3 -59.9 2.45 -60.5 1.9 -60.75 L1.7 -60.8 Q2.05 -62.35 4.3 -63.3 6.35 -64.15 9.05 -64.1" fill="#ffffff" fill-rule="evenodd" stroke="none"/>
    <path d="M19.5 -47.25 Q21.5 -46.7 22.5 -47.7 23.4 -48.55 23.35 -50.3 24.8 -48.45 25.8 -45.05 L22.95 -45.4 20.0 -45.45 Q20.35 -43.8 19.3 -37.85 L17.35 -38.25 15.4 -38.7 15.1 -38.8 Q16.65 -41.3 18.25 -44.5 L19.5 -47.25" fill="#ffffff" fill-rule="evenodd" stroke="none"/>
    <path d="M-28.05 -55.05 Q-27.15 -55.9 -25.95 -55.5 L-26.9 -52.7 Q-27.65 -50.05 -27.45 -49.15 -28.45 -49.3 -28.9 -50.5 -29.3 -51.55 -29.05 -52.9 -28.8 -54.35 -28.05 -55.05" fill="#ffffff" fill-rule="evenodd" stroke="none"/>
    <path d="M-28.2 -22.1 L-28.25 -21.75 -28.2 -21.45 -28.1 -16.95 -28.6 -16.9 -29.8 -20.7 -31.05 -24.9 -31.05 -24.95 Q-31.15 -25.5 -30.55 -26.0 -30.0 -26.55 -29.75 -26.15 L-29.05 -24.35 -28.2 -22.1" fill="#ffffff" fill-rule="evenodd" stroke="none"/>
    <path d="M26.85 -28.45 L28.1 -28.3 Q28.5 -28.25 28.5 -28.65 L28.5 -28.75 28.45 -29.8 28.35 -30.9 28.6 -31.1 28.85 -31.3 29.45 -31.2 29.0 -26.1 28.95 -25.2 28.75 -24.15 27.15 -24.25 26.85 -28.45" fill="#ffffff" fill-rule="evenodd" stroke="none"/>
    <path d="M-37.45 -29.4 Q-38.3 -29.2 -38.6 -29.4 -38.9 -29.6 -38.4 -30.05 L-33.6 -32.0 Q-32.6 -32.25 -32.6 -31.7 -32.5 -31.2 -33.3 -30.75 L-31.1 -22.35 Q-30.5 -20.05 -32.4 -19.85 -34.2 -19.65 -34.95 -21.8 L-37.45 -29.4" fill="#ffffff" fill-rule="evenodd" stroke="none"/>
    <path d="M-36.2 -23.3 L-34.45 -17.6 -35.75 -18.05 -37.15 -18.9 Q-37.5 -19.45 -37.7 -21.1 -37.9 -22.85 -37.65 -23.25 -37.45 -23.6 -36.9 -23.5 L-36.2 -23.3" fill="#ffffff" fill-rule="evenodd" stroke="none"/>
    <path d="M-26.8 -47.45 L-26.5 -46.95 -26.2 -46.5 -23.7 -42.9 -20.0 -37.75 -21.45 -35.4 -23.85 -38.8 Q-25.25 -41.05 -25.2 -42.3 -26.35 -42.2 -27.35 -41.6 L-29.0 -40.35 Q-30.4 -44.3 -29.4 -48.15 -28.4 -47.3 -26.8 -47.45" fill="#ffffff" fill-rule="evenodd" stroke="none"/>
    <path d="M35.05 -28.15 Q35.35 -29.0 35.95 -28.9 36.55 -28.8 37.1 -27.8 L37.15 -26.9 37.05 -25.0 Q36.9 -24.1 35.8 -23.65 L34.4 -23.35 34.65 -25.35 35.05 -28.15" fill="#ffffff" fill-rule="evenodd" stroke="none"/>
    <path d="M-1.25 -48.4 Q-2.45 -48.35 -3.55 -47.5 L-3.75 -47.15 -3.3 -47.2 -1.65 -47.65 Q-0.35 -47.7 -0.3 -46.95 -0.3 -46.55 -0.1 -46.5 L0.15 -46.85 Q0.2 -48.5 -1.25 -48.4 M0.55 -49.4 Q1.8 -49.25 3.3 -49.4 4.95 -49.55 5.35 -50.45 5.75 -51.3 4.2 -52.05 3.8 -52.25 3.45 -51.9 3.1 -51.5 3.5 -51.3 3.75 -50.6 1.9 -50.5 0.0 -50.45 -2.1 -51.15 L-5.15 -50.55 -7.95 -50.7 -8.45 -50.6 Q-8.6 -50.35 -8.25 -50.15 -5.9 -49.2 -2.3 -50.15 L0.55 -49.4 M-2.5 -55.1 Q-2.8 -54.8 -2.6 -54.65 -2.35 -54.5 -2.0 -54.8 L-1.4 -55.05 -0.7 -55.0 -0.35 -54.55 -0.25 -54.0 Q-0.45 -53.6 -0.25 -53.55 L0.1 -53.85 0.3 -54.85 Q0.2 -55.45 -0.25 -55.7 -1.3 -56.25 -2.5 -55.1 M9.25 -70.5 L9.0 -69.8 8.9 -69.3 10.4 -69.15 12.45 -69.05 11.65 -67.8 12.95 -65.1 Q9.15 -66.25 5.2 -65.25 0.9 -64.2 0.1 -61.35 -1.7 -61.7 -3.55 -61.35 -4.2 -63.7 -7.0 -64.8 -9.5 -65.8 -12.85 -65.5 -16.15 -65.2 -18.45 -63.85 -21.0 -62.35 -21.2 -60.2 L-21.25 -59.85 -21.2 -59.5 Q-20.8 -56.45 -18.05 -54.55 -15.5 -52.7 -12.25 -52.85 -8.95 -53.0 -6.35 -54.65 -3.15 -56.6 -3.3 -59.7 -1.6 -60.0 -0.15 -59.7 L-0.1 -59.5 Q0.25 -56.45 3.0 -54.55 5.6 -52.7 8.8 -52.85 10.95 -52.9 13.05 -53.75 15.4 -54.7 16.65 -56.3 18.35 -53.15 18.9 -49.85 18.1 -47.15 14.75 -42.0 L10.55 -35.95 Q6.05 -32.65 3.05 -31.55 L-0.5 -30.3 -4.15 -30.4 -9.45 -32.6 -14.7 -34.8 -20.9 -42.45 Q-24.75 -47.5 -25.9 -49.5 -25.85 -51.6 -23.6 -57.7 L-19.8 -67.05 -19.55 -68.55 -19.3 -69.45 -10.55 -69.35 -11.35 -70.7 Q-8.65 -70.5 -5.5 -69.5 -2.3 -68.5 -1.1 -67.45 0.25 -68.35 3.65 -69.35 L9.25 -70.5" fill="#ffffff" fill-rule="evenodd" stroke="none"/>
    <path d="M11.45 -7.75 L11.6 -6.9 Q10.0 -5.15 9.25 -2.5 L10.0 -2.1 10.8 -1.7 6.65 -1.7 7.0 -5.3 6.65 -6.3 6.2 -7.05 9.95 -7.5 11.45 -7.75" fill="#ffffff" fill-rule="evenodd" stroke="none"/>
    <path d="M-7.5 -27.2 L-4.85 -27.85 -2.2 -28.35 -1.75 -18.35 -1.3 -8.3 -2.9 -8.25 -14.2 -8.65 -17.45 -9.05 Q-19.55 -9.4 -20.6 -10.15 -19.95 -11.35 -19.35 -13.1 L-18.45 -16.2 -17.35 -20.1 Q-16.0 -21.55 -14.25 -25.25 L-12.7 -28.9 -15.1 -25.55 -18.1 -20.95 Q-19.3 -20.25 -23.05 -18.95 L-27.4 -17.45 -27.6 -21.7 -24.15 -23.3 Q-21.75 -24.35 -20.75 -25.0 L-18.05 -30.05 -15.65 -34.2 -14.65 -32.85 -10.45 -28.5 -9.15 -27.3 -7.5 -27.2" fill="#ffffff" fill-rule="evenodd" stroke="none"/>
    <path d="M25.9 -28.95 L26.2 -26.7 26.5 -24.5 18.9 -23.95 Q14.2 -25.65 11.55 -27.5 L11.85 -26.75 12.3 -25.85 Q12.75 -22.4 14.0 -17.15 15.35 -11.65 16.05 -10.65 14.6 -9.95 12.4 -9.55 L8.65 -9.0 -0.5 -8.3 -1.2 -18.4 -1.9 -28.45 1.35 -27.65 4.65 -26.85 Q4.9 -26.75 5.1 -27.0 L10.1 -33.55 10.7 -34.55 17.95 -28.45 25.9 -28.95" fill="#ffffff" fill-rule="evenodd" stroke="none"/>
    <path d="M30.25 -28.55 L30.55 -33.7 Q29.75 -33.8 29.95 -34.75 30.1 -35.7 30.7 -35.7 L33.0 -35.35 35.25 -34.95 Q35.8 -34.9 35.8 -34.1 35.8 -33.3 35.1 -33.0 34.45 -27.2 34.15 -22.5 34.15 -22.2 34.45 -22.1 36.75 -21.35 38.1 -19.5 39.5 -17.5 39.2 -15.2 36.35 -17.0 30.75 -16.45 L26.15 -15.5 Q24.3 -15.1 23.15 -16.3 23.2 -19.0 24.75 -20.9 26.4 -22.95 29.0 -23.1 L29.4 -23.4 Q30.0 -25.75 30.25 -28.55" fill="#ffffff" fill-rule="evenodd" stroke="none"/>
    <path d="M-16.15 -6.75 L-15.5 -7.15 -11.15 -6.75 Q-12.2 -5.25 -12.0 -4.35 L-11.45 -3.05 -11.0 -1.7 -15.0 -1.7 -14.05 -2.4 -13.45 -2.55 -16.15 -6.75" fill="#ffffff" fill-rule="evenodd" stroke="none"/>
    <path d="M-14.35 -33.8 L-8.4 -31.2 Q-4.85 -29.65 -2.35 -28.95 L-0.85 -29.2 0.6 -29.8 4.15 -31.05 Q6.75 -32.1 8.9 -33.3 L4.75 -27.95 4.6 -27.65 4.4 -27.7 -1.9 -28.75 -3.55 -28.65 -5.25 -28.35 -8.6 -27.85 -14.35 -33.8" fill="#ffffff" fill-rule="evenodd" stroke="none"/>
    <path d="M-5.15 -61.0 Q-5.8 -60.75 -5.75 -60.05 -5.65 -59.4 -5.05 -59.3 -5.5 -56.95 -7.75 -55.65 -9.8 -54.45 -12.55 -54.5 -15.3 -54.6 -17.25 -55.9 -19.35 -57.4 -19.55 -59.85 -19.3 -61.65 -17.1 -62.85 -15.1 -63.95 -12.35 -64.15 -9.6 -64.35 -7.6 -63.6 -5.4 -62.75 -5.05 -61.0 L-5.15 -61.0" fill="#ffffff" fill-rule="evenodd" stroke="none"/>
    <path d="M11.6 -6.9 L11.45 -7.75 9.95 -7.5 6.2 -7.05 6.65 -6.3 7.0 -5.3 6.65 -1.7 10.8 -1.7 10.0 -2.1 9.25 -2.5 Q10.0 -5.15 11.6 -6.9 M-36.2 -23.3 L-36.9 -23.5 Q-37.45 -23.6 -37.65 -23.25 -37.9 -22.85 -37.7 -21.1 -37.5 -19.45 -37.15 -18.9 L-35.75 -18.05 -34.45 -17.6 -36.2 -23.3 M-28.25 -21.75 L-28.2 -22.1 -29.05 -24.35 -29.75 -26.15 Q-30.0 -26.55 -30.55 -26.0 -31.15 -25.5 -31.05 -24.95 L-31.05 -24.9 -29.8 -20.7 -28.6 -16.9 -28.1 -16.95 -28.2 -21.45 -28.25 -21.75 M-15.5 -7.15 L-16.15 -6.75 -13.45 -2.55 -14.05 -2.4 -15.0 -1.7 -11.0 -1.7 -11.45 -3.05 -12.0 -4.35 Q-12.2 -5.25 -11.15 -6.75 L-15.5 -7.15 M-8.4 -31.2 L-14.35 -33.8 -8.6 -27.85 -5.25 -28.35 -3.55 -28.65 -1.9 -28.75 4.4 -27.7 4.6 -27.65 4.75 -27.95 8.9 -33.3 Q6.75 -32.1 4.15 -31.05 L0.6 -29.8 -0.85 -29.2 -2.35 -28.95 Q-4.85 -29.65 -8.4 -31.2 M-14.65 -32.85 L-15.65 -34.2 -18.05 -30.05 -20.75 -25.0 Q-21.75 -24.35 -24.15 -23.3 L-27.6 -21.7 -27.4 -17.45 -23.05 -18.95 Q-19.3 -20.25 -18.1 -20.95 L-15.1 -25.55 -12.7 -28.9 -14.25 -25.25 Q-16.0 -21.55 -17.35 -20.1 L-18.45 -16.2 -19.35 -13.1 Q-19.95 -11.35 -20.6 -10.15 -19.55 -9.4 -17.45 -9.05 L-14.2 -8.65 -2.9 -8.25 -1.3 -8.3 -1.75 -18.35 -2.2 -28.35 -4.85 -27.85 -7.5 -27.2 -9.15 -27.3 -10.45 -28.5 -14.65 -32.85 M-38.6 -29.4 Q-38.3 -29.2 -37.45 -29.4 L-34.95 -21.8 Q-34.2 -19.65 -32.4 -19.85 -30.5 -20.05 -31.1 -22.35 L-33.3 -30.75 Q-32.5 -31.2 -32.6 -31.7 -32.6 -32.25 -33.6 -32.0 L-38.4 -30.05 Q-38.9 -29.6 -38.6 -29.4 M-23.7 -42.9 L-26.2 -46.5 -26.5 -46.95 -26.8 -47.45 Q-28.4 -47.3 -29.4 -48.15 -30.4 -44.3 -29.0 -40.35 L-27.35 -41.6 Q-26.35 -42.2 -25.2 -42.3 -25.25 -41.05 -23.85 -38.8 L-21.45 -35.4 -20.0 -37.75 -23.7 -42.9 M-25.95 -55.5 Q-27.15 -55.9 -28.05 -55.05 -28.8 -54.35 -29.05 -52.9 -29.3 -51.55 -28.9 -50.5 -28.45 -49.3 -27.45 -49.15 -27.65 -50.05 -26.9 -52.7 L-25.95 -55.5 M-12.55 -54.5 Q-9.8 -54.45 -7.75 -55.65 -5.5 -56.95 -5.05 -59.3 -5.65 -59.4 -5.75 -60.05 -5.8 -60.75 -5.15 -61.0 L-5.05 -61.0 Q-5.4 -62.75 -7.6 -63.6 -9.6 -64.35 -12.35 -64.15 -15.1 -63.95 -17.1 -62.85 -19.3 -61.65 -19.55 -59.85 -19.35 -57.4 -17.25 -55.9 -15.3 -54.6 -12.55 -54.5 M37.1 -27.8 Q36.55 -28.8 35.95 -28.9 35.35 -29.0 35.05 -28.15 L34.65 -25.35 34.4 -23.35 35.8 -23.65 Q36.9 -24.1 37.05 -25.0 L37.15 -26.9 37.1 -27.8 M35.8 -34.1 Q35.8 -34.9 35.25 -34.95 L33.0 -35.35 30.7 -35.7 Q30.1 -35.7 29.95 -34.75 29.75 -33.8 30.55 -33.7 L30.25 -28.55 Q30.0 -25.75 29.4 -23.4 L29.0 -23.1 Q26.4 -22.95 24.75 -20.9 23.2 -19.0 23.15 -16.3 24.3 -15.1 26.15 -15.5 L30.75 -16.45 Q36.35 -17.0 39.2 -15.2 39.5 -17.5 38.1 -19.5 36.75 -21.35 34.45 -22.1 34.15 -22.2 34.15 -22.5 34.45 -27.2 35.1 -33.0 35.8 -33.3 35.8 -34.1 M28.35 -30.9 L28.45 -29.8 28.5 -28.75 28.5 -28.65 Q28.5 -28.25 28.1 -28.3 L26.85 -28.45 27.15 -24.25 28.75 -24.15 28.95 -25.2 29.0 -26.1 29.45 -31.2 28.85 -31.3 28.6 -31.1 28.35 -30.9 M11.85 -26.75 L11.55 -27.5 Q14.2 -25.65 18.9 -23.95 L26.5 -24.5 26.2 -26.7 25.9 -28.95 17.95 -28.45 10.7 -34.55 10.1 -33.55 5.1 -27.0 Q4.9 -26.75 4.65 -26.85 L1.35 -27.65 -1.9 -28.45 -1.2 -18.4 -0.5 -8.3 8.65 -9.0 12.4 -9.55 Q14.6 -9.95 16.05 -10.65 15.35 -11.65 14.0 -17.15 12.75 -22.4 12.3 -25.85 L11.85 -26.75 M22.95 -45.4 L25.8 -45.05 Q24.8 -48.45 23.35 -50.3 23.4 -48.55 22.5 -47.7 21.5 -46.7 19.5 -47.25 L18.25 -44.5 Q16.65 -41.3 15.1 -38.8 L15.4 -38.7 17.35 -38.25 19.3 -37.85 Q20.35 -43.8 20.0 -45.45 L22.95 -45.4 M22.25 -51.55 Q21.9 -52.85 20.9 -53.95 19.7 -55.3 18.65 -54.55 L19.8 -52.0 Q20.4 -50.45 20.35 -49.35 L20.15 -48.5 Q21.1 -48.45 21.85 -49.4 22.5 -50.4 22.25 -51.55 M9.55 -54.5 Q12.4 -54.6 14.25 -55.95 16.3 -57.4 16.1 -59.85 15.95 -61.9 13.8 -63.05 11.85 -64.1 9.05 -64.1 6.35 -64.15 4.3 -63.3 2.05 -62.35 1.7 -60.8 L1.9 -60.75 Q2.45 -60.5 2.3 -59.9 2.15 -59.35 1.6 -59.2 2.05 -56.9 4.5 -55.6 6.7 -54.4 9.55 -54.5 M10.4 -69.15 L8.9 -69.3 9.0 -69.8 9.25 -70.5 3.65 -69.35 Q0.25 -68.35 -1.1 -67.45 -2.3 -68.5 -5.5 -69.5 -8.65 -70.5 -11.35 -70.7 L-10.55 -69.35 -19.3 -69.45 -19.55 -68.55 -19.8 -67.05 -23.6 -57.7 Q-25.85 -51.6 -25.9 -49.5 -24.75 -47.5 -20.9 -42.45 L-14.7 -34.8 -9.45 -32.6 -4.15 -30.4 -0.5 -30.3 3.05 -31.55 Q6.05 -32.65 10.55 -35.95 L14.75 -42.0 Q18.1 -47.15 18.9 -49.85 18.35 -53.15 16.65 -56.3 15.4 -54.7 13.05 -53.75 10.95 -52.9 8.8 -52.85 5.6 -52.7 3.0 -54.55 0.25 -56.45 -0.1 -59.5 L-0.15 -59.7 Q-1.6 -60.0 -3.3 -59.7 -3.15 -56.6 -6.35 -54.65 -8.95 -53.0 -12.25 -52.85 -15.5 -52.7 -18.05 -54.55 -20.8 -56.45 -21.2 -59.5 L-21.25 -59.85 -21.2 -60.2 Q-21.0 -62.35 -18.45 -63.85 -16.15 -65.2 -12.85 -65.5 -9.5 -65.8 -7.0 -64.8 -4.2 -63.7 -3.55 -61.35 -1.7 -61.7 0.1 -61.35 0.9 -64.2 5.2 -65.25 9.15 -66.25 12.95 -65.1 L11.65 -67.8 12.45 -69.05 10.4 -69.15 M17.35 -76.7 L20.55 -77.1 Q20.0 -75.8 19.75 -73.4 19.45 -71.3 19.5 -69.4 20.95 -69.3 24.25 -67.7 27.4 -66.1 28.35 -66.1 L25.35 -63.25 Q23.45 -61.2 22.3 -60.5 L25.0 -56.75 27.5 -53.15 Q25.45 -51.95 24.4 -51.6 25.8 -49.95 26.75 -47.2 27.65 -44.45 27.35 -42.65 26.3 -43.35 24.4 -43.6 L21.25 -43.75 Q21.5 -40.9 19.95 -36.25 L17.05 -36.75 14.1 -37.35 12.9 -35.65 15.35 -33.2 18.65 -30.15 21.85 -30.05 26.3 -30.0 Q26.8 -30.0 27.15 -29.25 L27.3 -30.1 27.35 -31.55 27.8 -31.95 28.45 -32.15 29.55 -32.05 29.4 -33.15 Q28.2 -33.35 28.5 -35.15 28.8 -36.95 30.65 -36.6 L35.9 -35.8 Q36.9 -35.6 37.15 -35.05 37.4 -34.65 37.2 -33.7 37.05 -32.6 36.35 -32.4 L35.9 -29.75 Q37.75 -29.3 38.15 -27.45 38.4 -26.55 37.55 -24.25 36.75 -22.1 36.55 -22.1 38.25 -21.1 39.3 -19.05 40.75 -16.3 39.15 -12.2 38.15 -9.65 35.65 -8.5 33.55 -7.45 31.0 -7.7 25.0 -8.2 22.85 -12.5 20.65 -16.8 23.9 -21.25 24.6 -22.25 25.6 -22.9 L19.0 -22.35 Q15.4 -23.35 13.85 -24.2 L15.75 -17.1 Q17.45 -11.4 18.3 -9.95 16.0 -8.55 13.1 -8.0 L13.3 -6.8 Q13.25 -6.25 12.8 -5.65 L11.55 -4.25 10.5 -2.6 11.95 -1.45 Q12.35 -1.05 12.1 -0.55 11.9 0.0 11.35 0.0 L6.3 0.0 Q5.95 0.0 5.7 -0.25 5.45 -0.5 5.45 -0.85 L5.9 -3.15 Q6.15 -4.55 6.0 -5.15 5.85 -5.8 5.2 -6.25 L4.15 -6.9 Q-7.45 -6.55 -9.65 -6.65 L-10.8 -4.75 -10.0 -1.05 Q-9.9 -0.7 -10.1 -0.35 -10.35 0.0 -10.8 0.0 L-15.55 0.0 Q-16.1 0.0 -16.3 -0.55 -16.55 -1.05 -16.15 -1.45 L-15.25 -2.3 -17.35 -6.55 Q-17.55 -7.05 -17.35 -7.4 -20.9 -7.95 -22.3 -9.35 -22.75 -9.85 -22.45 -10.4 -21.6 -11.65 -20.9 -13.65 L-19.9 -17.2 -19.5 -18.75 -22.05 -17.85 -27.0 -15.9 Q-27.45 -15.7 -27.85 -16.15 L-28.35 -16.05 Q-27.0 -11.55 -29.25 -10.35 -31.2 -9.35 -32.55 -11.6 -33.4 -13.05 -34.2 -16.4 L-34.6 -16.7 -36.7 -17.5 Q-38.3 -18.15 -38.5 -19.2 -38.85 -21.05 -38.85 -23.35 -38.85 -24.45 -36.6 -24.55 L-37.1 -26.2 -37.95 -28.85 Q-37.95 -28.7 -38.1 -28.7 L-38.75 -28.55 Q-39.6 -28.25 -39.9 -29.25 -40.25 -30.2 -39.35 -30.65 -36.05 -32.25 -32.7 -33.35 -32.0 -33.6 -31.55 -32.55 -31.1 -31.5 -31.95 -31.05 L-32.6 -30.5 -31.4 -26.55 -30.0 -27.4 -29.35 -27.25 -28.85 -26.95 Q-28.5 -26.3 -28.3 -25.1 L-27.85 -23.25 Q-26.5 -23.8 -21.95 -26.2 L-17.45 -34.65 -18.95 -36.4 -20.05 -34.9 -21.45 -32.8 Q-21.85 -33.65 -24.15 -36.6 -26.0 -39.0 -26.15 -40.65 -27.5 -40.0 -29.6 -38.35 -30.85 -41.2 -31.2 -43.95 -31.6 -47.2 -30.7 -49.7 L-32.4 -49.8 Q-34.05 -49.9 -35.15 -50.45 -33.9 -55.95 -32.05 -58.3 -32.75 -58.3 -34.15 -59.0 -35.75 -59.85 -36.5 -60.0 -35.2 -61.55 -33.55 -62.6 -31.8 -63.75 -30.05 -64.1 -30.75 -65.15 -31.3 -68.25 -31.9 -71.45 -32.05 -71.7 L-27.7 -72.75 -23.45 -73.45 Q-21.85 -75.9 -18.7 -78.55 L-15.95 -80.7 -14.75 -78.2 Q-13.25 -79.25 -8.85 -80.75 L-4.85 -82.1 -3.95 -81.25 -2.25 -79.3 -1.3 -80.25 -0.6 -81.55 1.8 -80.55 Q4.35 -79.35 5.1 -78.35 L7.0 -80.6 9.55 -79.15 14.0 -75.85 17.35 -76.7 M17.8 -68.6 Q18.05 -69.1 17.95 -71.55 17.85 -74.25 18.2 -75.35 L16.2 -74.9 Q14.7 -74.35 13.65 -73.35 L10.9 -76.5 Q9.25 -77.95 7.75 -78.6 L7.0 -77.2 Q6.2 -75.8 5.95 -74.8 L3.3 -77.45 Q1.25 -79.15 0.0 -79.8 L-1.05 -78.3 -1.95 -76.85 -3.5 -78.55 -5.2 -80.0 Q-14.65 -76.75 -16.1 -75.5 L-16.4 -77.0 -16.65 -78.5 -20.1 -75.95 Q-22.5 -73.9 -23.3 -72.2 L-26.5 -71.45 -29.85 -70.35 -29.35 -66.85 Q-28.9 -64.85 -27.65 -64.25 -30.0 -63.65 -33.8 -60.55 -33.25 -60.5 -31.65 -59.7 -30.15 -59.0 -29.15 -59.0 -30.65 -57.65 -31.6 -55.8 L-32.9 -52.0 -30.7 -51.5 Q-30.7 -53.75 -29.4 -55.3 -28.0 -57.0 -25.9 -56.5 -25.45 -58.55 -22.95 -62.95 L-20.35 -67.2 -20.4 -70.15 -16.6 -70.05 -11.75 -70.2 -12.65 -71.9 -7.45 -70.55 Q-2.05 -69.05 -1.05 -68.45 0.95 -69.5 10.6 -71.4 L9.7 -69.8 13.4 -69.35 12.45 -68.1 13.8 -65.05 15.2 -63.95 16.95 -62.3 Q17.7 -61.3 17.8 -59.85 L17.45 -57.65 18.2 -55.7 Q19.5 -55.95 20.65 -55.25 21.7 -54.65 22.45 -53.45 L22.65 -52.9 Q22.95 -52.7 25.1 -53.65 24.1 -54.65 22.4 -57.45 L19.95 -61.05 Q21.35 -61.65 22.95 -63.05 L25.5 -65.55 21.65 -67.5 Q19.15 -68.8 17.8 -68.6" fill="#000000" fill-rule="evenodd" stroke="none"/>
    <path d="M5.35 -50.45 Q4.95 -49.55 3.3 -49.4 1.8 -49.25 0.55 -49.4 L-2.3 -50.15 Q-5.9 -49.2 -8.25 -50.15 -8.6 -50.35 -8.45 -50.6 L-7.95 -50.7 -5.15 -50.55 -2.1 -51.15 Q0.0 -50.45 1.9 -50.5 3.75 -50.6 3.5 -51.3 3.1 -51.5 3.45 -51.9 3.8 -52.25 4.2 -52.05 5.75 -51.3 5.35 -50.45" fill="#000000" fill-rule="evenodd" stroke="none"/>
    <path d="M-2.0 -54.8 Q-2.35 -54.5 -2.6 -54.65 -2.8 -54.8 -2.5 -55.1 -1.3 -56.25 -0.25 -55.7 0.2 -55.45 0.3 -54.85 L0.1 -53.85 -0.25 -53.55 Q-0.45 -53.6 -0.25 -54.0 L-0.35 -54.55 -0.7 -55.0 -1.4 -55.05 -2.0 -54.8" fill="#000000" fill-rule="evenodd" stroke="none"/>
    <path d="M-3.55 -47.5 Q-2.45 -48.35 -1.25 -48.4 0.2 -48.5 0.15 -46.85 L-0.1 -46.5 Q-0.3 -46.55 -0.3 -46.95 -0.35 -47.7 -1.65 -47.65 L-3.3 -47.2 -3.75 -47.15 -3.55 -47.5" fill="#000000" fill-rule="evenodd" stroke="none"/>
  </g>
</svg>
