<?xml version="1.0" encoding="UTF-8" standalone="no"?>
<svg xmlns:ffdec="https://www.free-decompiler.com/flash" xmlns:xlink="http://www.w3.org/1999/xlink" ffdec:objectType="shape" height="81.6px" width="80.0px" xmlns="http://www.w3.org/2000/svg">
  <g transform="matrix(1.0, 0.0, 0.0, 1.0, 40.0, 81.6)">
    <path d="M13.95 -2.35 L9.7 -6.4 15.45 -7.65 16.15 -5.2 Q16.65 -3.75 17.25 -3.15 L19.0 -1.9 14.55 -1.9 13.95 -2.35 M-16.35 -3.15 Q-15.75 -3.75 -15.25 -5.2 L-14.55 -7.65 -8.8 -6.4 -13.45 -2.0 -14.2 -1.9 -18.1 -1.9 Q-16.9 -2.55 -16.35 -3.15 M-9.5 -22.5 L-9.4 -22.5 -9.15 -21.95 -10.65 -20.95 Q-10.95 -20.8 -10.85 -20.45 L-9.05 -15.2 -11.7 -12.7 Q-12.45 -14.05 -13.5 -15.25 L-15.75 -17.55 -15.85 -17.55 -15.9 -17.65 -15.95 -17.65 -16.1 -17.65 -16.2 -17.65 -17.2 -17.45 Q-17.75 -17.3 -17.55 -17.15 L-19.8 -19.15 -19.75 -19.2 -16.5 -24.0 -15.0 -22.55 -13.9 -20.85 Q-13.7 -20.55 -13.3 -20.65 L-9.5 -22.5 M1.8 -30.25 L4.1 -30.45 9.15 -31.2 7.95 -21.3 Q7.9 -20.4 8.25 -19.4 L9.0 -17.6 10.75 -13.25 2.6 -12.45 Q1.6 -20.0 1.8 -30.25 M-1.9 -25.45 L-2.1 -30.1 0.95 -30.2 Q0.75 -20.2 1.75 -12.45 L-1.35 -12.5 Q-1.7 -15.05 -1.7 -20.9 L-1.9 -25.45 M-10.3 -30.8 L-8.4 -30.45 -3.0 -30.1 -2.8 -25.05 -2.55 -20.0 Q-2.55 -15.2 -2.2 -12.5 L-9.8 -13.3 -8.25 -14.8 Q-8.05 -15.0 -8.15 -15.2 L-8.8 -17.2 Q-8.25 -19.4 -8.55 -21.0 L-8.6 -21.3 -8.35 -21.45 Q-8.0 -21.7 -8.2 -22.05 L-8.85 -23.25 -9.0 -23.4 -10.3 -30.8 M-2.2 -43.55 L-5.15 -43.25 Q-7.25 -43.3 -7.15 -44.75 L-7.9 -44.85 Q-8.65 -44.6 -8.7 -44.2 -8.85 -42.55 -7.25 -42.2 L-4.35 -42.3 0.95 -42.45 3.3 -42.35 Q4.5 -42.5 5.45 -43.25 5.75 -43.5 5.1 -44.05 4.5 -44.55 4.2 -44.3 3.0 -43.3 1.1 -43.4 L-2.2 -43.55 M-1.7 -46.55 L-2.9 -46.15 Q-3.6 -45.7 -3.55 -45.1 -3.55 -44.65 -3.1 -44.65 -2.65 -44.65 -2.7 -45.1 -2.7 -45.6 -1.55 -45.7 -0.3 -45.8 0.0 -45.1 0.2 -44.75 0.55 -44.95 0.95 -45.15 0.75 -45.55 0.2 -46.75 -1.7 -46.55 M-17.35 -34.1 L-17.0 -34.95 -16.5 -35.55 -15.85 -34.25 -15.0 -33.05 Q-15.1 -32.15 -14.8 -31.4 -14.3 -29.8 -12.5 -28.6 L-12.4 -27.7 -14.25 -27.75 -15.9 -28.95 -16.95 -30.6 Q-17.8 -32.85 -17.35 -34.1 M-29.95 -71.95 Q-31.35 -71.05 -33.35 -71.1 -35.3 -71.15 -36.6 -72.2 -38.1 -73.35 -38.1 -75.2 -38.1 -77.6 -36.55 -78.9 -35.2 -80.05 -33.2 -79.9 -31.25 -79.7 -29.8 -78.4 -28.3 -77.0 -28.3 -74.8 -28.4 -73.0 -29.95 -71.95 M16.0 -36.7 L16.65 -34.75 16.85 -32.85 16.65 -31.1 Q16.4 -30.2 15.85 -29.55 14.9 -28.3 13.85 -29.85 14.5 -31.3 14.5 -32.5 L14.15 -34.1 16.0 -36.7 M14.65 -38.05 L13.5 -36.15 Q12.2 -33.8 9.3 -33.0 L4.9 -32.25 0.45 -31.9 -9.15 -32.3 Q-10.95 -32.55 -12.2 -33.2 -13.55 -33.85 -14.7 -35.4 L-15.35 -36.9 Q-15.8 -38.25 -15.35 -38.25 -9.8 -37.1 -2.5 -37.2 L5.8 -37.85 14.1 -39.0 Q15.15 -39.15 14.65 -38.05 M12.75 -51.45 L12.75 -50.55 Q12.95 -44.95 11.0 -39.6 L8.75 -39.15 6.5 -38.7 0.65 -38.3 -5.15 -38.1 -9.05 -38.45 -13.0 -39.05 Q-14.4 -41.75 -15.2 -45.1 -15.85 -47.65 -15.95 -51.1 -13.2 -49.2 -8.85 -48.35 L-1.3 -47.7 Q2.55 -47.7 5.95 -48.45 10.15 -49.4 12.75 -51.45 M21.3 -70.65 L19.25 -68.6 Q18.3 -67.25 19.3 -66.05 20.3 -64.75 21.9 -65.35 L24.45 -66.85 24.9 -67.2 Q28.05 -62.6 28.15 -57.15 28.0 -51.15 24.45 -46.45 21.25 -42.15 15.7 -39.35 L15.25 -39.75 14.15 -40.05 12.95 -39.85 Q14.05 -43.3 14.3 -49.25 14.6 -55.8 13.3 -58.05 9.65 -60.65 -1.4 -60.7 -12.6 -60.75 -16.2 -58.1 -17.4 -56.05 -17.55 -52.25 L-17.3 -47.05 Q-16.75 -43.0 -15.1 -39.4 L-15.3 -39.4 Q-16.25 -39.55 -16.7 -39.05 -22.45 -41.9 -25.8 -46.25 -29.5 -51.1 -29.6 -57.15 -29.75 -62.45 -26.85 -66.85 L-24.25 -65.35 Q-22.7 -64.75 -21.7 -66.05 -20.7 -67.25 -21.65 -68.55 L-23.65 -70.55 Q-18.9 -75.35 -14.05 -77.4 -8.45 -79.75 -0.4 -79.65 6.25 -79.55 12.05 -77.2 17.65 -74.95 21.65 -70.9 L21.3 -70.65 M38.35 -55.4 L38.85 -54.6 38.65 -54.5 38.35 -53.9 36.6 -51.15 Q36.45 -50.9 36.65 -50.6 L38.15 -48.7 Q38.55 -47.95 38.5 -46.6 L38.4 -45.2 38.45 -45.1 38.25 -45.05 Q37.05 -44.45 35.8 -43.95 L35.6 -43.55 35.6 -42.35 35.0 -41.45 34.2 -40.7 34.05 -40.6 33.35 -41.05 31.2 -42.65 29.05 -44.3 30.05 -46.3 30.75 -46.6 31.45 -46.7 Q32.15 -46.9 33.3 -48.6 L34.8 -50.9 38.35 -55.4 M35.45 -75.0 Q35.45 -73.15 34.05 -72.05 32.7 -71.05 30.8 -71.05 28.9 -70.95 27.55 -71.95 26.0 -73.0 25.9 -74.8 25.9 -77.1 27.4 -78.5 28.75 -79.75 30.7 -79.75 32.6 -79.8 33.95 -78.6 35.45 -77.3 35.45 -75.0" fill="#ffffff" fill-rule="evenodd" stroke="none"/>
    <path d="M16.15 -5.2 L15.45 -7.65 9.7 -6.4 13.95 -2.35 14.55 -1.9 19.0 -1.9 17.25 -3.15 Q16.65 -3.75 16.15 -5.2 M-14.55 -7.65 L-15.25 -5.2 Q-15.75 -3.75 -16.35 -3.15 -16.9 -2.55 -18.1 -1.9 L-14.2 -1.9 -13.45 -2.0 -8.8 -6.4 -14.55 -7.65 M-9.4 -22.5 L-9.5 -22.5 -13.3 -20.65 Q-13.7 -20.55 -13.9 -20.85 L-15.0 -22.55 -16.5 -24.0 -19.75 -19.2 -19.8 -19.15 -17.55 -17.15 Q-17.75 -17.3 -17.2 -17.45 L-16.2 -17.65 -16.1 -17.65 -15.95 -17.65 -15.9 -17.65 -15.85 -17.55 -15.75 -17.55 -13.5 -15.25 Q-12.45 -14.05 -11.7 -12.7 L-9.05 -15.2 -10.85 -20.45 Q-10.95 -20.8 -10.65 -20.95 L-9.15 -21.95 -9.4 -22.5 M4.1 -30.45 L1.8 -30.25 Q1.6 -20.0 2.6 -12.45 L10.75 -13.25 9.0 -17.6 8.25 -19.4 Q7.9 -20.4 7.95 -21.3 L9.15 -31.2 4.1 -30.45 M0.95 -30.2 L-2.1 -30.1 -1.9 -25.45 -1.7 -20.9 Q-1.7 -15.05 -1.35 -12.5 L1.75 -12.45 Q0.75 -20.2 0.95 -30.2 M-8.4 -30.45 L-10.3 -30.8 -9.0 -23.4 -8.85 -23.25 -8.2 -22.05 Q-8.0 -21.7 -8.35 -21.45 L-8.6 -21.3 -8.55 -21.0 Q-8.25 -19.4 -8.8 -17.2 L-8.15 -15.2 Q-8.05 -15.0 -8.25 -14.8 L-9.8 -13.3 -2.2 -12.5 Q-2.55 -15.2 -2.55 -20.0 L-2.8 -25.05 -3.0 -30.1 -8.4 -30.45 M-5.15 -43.25 L-2.2 -43.55 1.1 -43.4 Q3.0 -43.3 4.2 -44.3 4.5 -44.55 5.1 -44.05 5.75 -43.5 5.45 -43.25 4.5 -42.5 3.3 -42.35 L0.95 -42.45 -4.35 -42.3 -7.25 -42.2 Q-8.85 -42.55 -8.7 -44.2 -8.65 -44.6 -7.9 -44.85 L-7.15 -44.75 Q-7.25 -43.3 -5.15 -43.25 M-2.9 -46.15 L-1.7 -46.55 Q0.2 -46.75 0.75 -45.55 0.95 -45.15 0.55 -44.95 0.2 -44.75 0.0 -45.1 -0.3 -45.8 -1.55 -45.7 -2.7 -45.6 -2.7 -45.1 -2.65 -44.65 -3.1 -44.65 -3.55 -44.65 -3.55 -45.1 -3.6 -45.7 -2.9 -46.15 M-17.0 -34.95 L-17.35 -34.1 Q-17.8 -32.85 -16.95 -30.6 L-15.9 -28.95 -14.25 -27.75 -12.4 -27.7 -12.5 -28.6 Q-14.3 -29.8 -14.8 -31.4 -15.1 -32.15 -15.0 -33.05 L-15.85 -34.25 -16.5 -35.55 -17.0 -34.95 M-17.5 -25.2 L-16.8 -25.6 -16.05 -25.75 Q-15.2 -25.15 -14.0 -23.4 L-12.9 -21.9 -12.1 -22.35 -11.3 -22.9 -11.7 -24.35 -12.05 -25.85 -14.0 -25.8 Q-15.2 -26.2 -16.45 -27.1 L-20.6 -26.0 -18.05 -24.3 -17.5 -25.2 M-29.8 -78.4 Q-31.25 -79.7 -33.2 -79.9 -35.2 -80.05 -36.55 -78.9 -38.1 -77.6 -38.1 -75.2 -38.1 -73.35 -36.6 -72.2 -35.3 -71.15 -33.35 -71.1 -31.35 -71.05 -29.95 -71.95 -28.4 -73.0 -28.3 -74.8 -28.3 -77.0 -29.8 -78.4 M13.5 -36.15 L14.65 -38.05 Q15.15 -39.15 14.1 -39.0 L5.8 -37.85 -2.5 -37.2 Q-9.8 -37.1 -15.35 -38.25 -15.8 -38.25 -15.35 -36.9 L-14.7 -35.4 Q-13.55 -33.85 -12.2 -33.2 -10.95 -32.55 -9.15 -32.3 L0.45 -31.9 4.9 -32.25 9.3 -33.0 Q12.2 -33.8 13.5 -36.15 M14.15 -34.1 L14.5 -32.5 Q14.5 -31.3 13.85 -29.85 14.9 -28.3 15.85 -29.55 16.4 -30.2 16.65 -31.1 L16.85 -32.85 16.65 -34.75 16.0 -36.7 14.15 -34.1 M8.75 -39.15 L11.0 -39.6 Q12.95 -44.95 12.75 -50.55 L12.75 -51.45 Q10.15 -49.4 5.95 -48.45 2.55 -47.7 -1.3 -47.7 L-8.85 -48.35 Q-13.2 -49.2 -15.95 -51.1 -15.85 -47.65 -15.2 -45.1 -14.4 -41.75 -13.0 -39.05 L-9.05 -38.45 -5.15 -38.1 0.65 -38.3 6.5 -38.7 8.75 -39.15 M23.45 -39.15 L23.75 -39.15 24.25 -39.6 28.55 -43.3 27.6 -43.9 27.5 -44.1 Q27.35 -44.25 27.5 -44.5 L27.5 -44.6 26.2 -44.6 Q23.25 -40.8 18.95 -38.15 L23.45 -39.15 M19.25 -68.6 L21.3 -70.65 21.65 -70.9 Q17.65 -74.95 12.05 -77.2 6.25 -79.55 -0.4 -79.65 -8.45 -79.75 -14.05 -77.4 -18.9 -75.35 -23.65 -70.55 L-21.65 -68.55 Q-20.7 -67.25 -21.7 -66.05 -22.7 -64.75 -24.25 -65.35 L-26.85 -66.85 Q-29.75 -62.45 -29.6 -57.15 -29.5 -51.1 -25.8 -46.25 -22.45 -41.9 -16.7 -39.05 -16.25 -39.55 -15.3 -39.4 L-15.1 -39.4 Q-16.75 -43.0 -17.3 -47.05 L-17.55 -52.25 Q-17.4 -56.05 -16.2 -58.1 -12.6 -60.75 -1.4 -60.7 9.65 -60.65 13.3 -58.05 14.6 -55.8 14.3 -49.25 14.05 -43.3 12.95 -39.85 L14.15 -40.05 15.25 -39.75 15.7 -39.35 Q21.25 -42.15 24.45 -46.45 28.0 -51.15 28.15 -57.15 28.05 -62.6 24.9 -67.2 L24.45 -66.85 21.9 -65.35 Q20.3 -64.75 19.3 -66.05 18.3 -67.25 19.25 -68.6 M38.35 -53.9 L38.65 -54.5 38.85 -54.6 38.35 -55.4 34.8 -50.9 33.3 -48.6 Q32.15 -46.9 31.45 -46.7 L30.75 -46.6 30.05 -46.3 29.05 -44.3 31.2 -42.65 33.35 -41.05 34.05 -40.6 34.2 -40.7 35.0 -41.45 35.6 -42.35 35.6 -43.55 35.8 -43.95 Q37.05 -44.45 38.25 -45.05 L38.45 -45.1 38.4 -45.2 38.5 -46.6 Q38.55 -47.95 38.15 -48.7 L36.65 -50.6 Q36.45 -50.9 36.6 -51.15 L38.35 -53.9 M30.8 -71.05 Q32.7 -71.05 34.05 -72.05 35.45 -73.15 35.45 -75.0 35.45 -77.3 33.95 -78.6 32.6 -79.8 30.7 -79.75 28.75 -79.75 27.4 -78.5 25.9 -77.1 25.9 -74.8 26.0 -73.0 27.55 -71.95 28.9 -70.95 30.8 -71.05 M30.45 -81.4 Q33.3 -81.25 35.45 -79.5 37.8 -77.6 37.6 -74.8 37.35 -70.95 34.05 -69.3 31.0 -67.7 27.65 -68.95 L27.0 -68.55 Q30.6 -63.35 30.75 -57.15 L30.75 -56.7 31.5 -56.7 Q32.7 -56.25 33.4 -54.75 34.1 -53.35 34.15 -51.45 L38.05 -56.45 38.45 -56.55 38.75 -56.35 39.7 -54.9 39.7 -54.45 39.1 -52.8 38.55 -51.2 37.95 -50.35 38.8 -49.3 Q40.1 -47.6 40.0 -44.85 L39.6 -44.35 39.1 -43.85 38.15 -43.3 37.25 -42.7 Q36.8 -42.5 37.15 -42.3 L37.7 -41.3 Q37.7 -40.75 36.4 -39.85 L34.65 -38.7 Q34.6 -38.6 34.3 -39.05 L33.9 -39.65 33.0 -40.25 29.4 -36.3 27.7 -34.4 Q26.65 -33.3 25.6 -33.0 L18.35 -30.85 Q17.75 -28.4 16.25 -27.6 L14.0 -27.5 Q13.1 -27.9 12.3 -29.05 L11.45 -28.8 10.55 -21.3 10.85 -19.8 11.7 -17.8 13.75 -12.65 Q14.05 -12.0 13.5 -11.4 L14.65 -9.25 15.8 -9.5 Q16.6 -9.65 16.85 -8.9 L18.55 -4.35 23.15 -1.7 Q23.6 -1.35 23.4 -0.8 23.25 -0.25 22.75 -0.2 L16.35 -0.1 15.55 0.0 14.85 -0.05 Q14.0 -0.1 13.65 -0.3 12.2 -1.15 10.35 -3.1 L7.3 -6.3 Q7.0 -6.6 7.1 -7.15 7.25 -7.65 7.7 -7.75 L8.25 -7.85 6.4 -10.1 Q0.8 -9.65 -5.2 -10.15 L-7.1 -7.85 -6.8 -7.75 Q-6.35 -7.65 -6.2 -7.15 -6.1 -6.6 -6.4 -6.3 L-10.1 -2.8 -11.4 -1.35 Q-12.3 -0.4 -12.95 -0.2 L-13.95 -0.05 -14.85 0.0 -15.5 -0.1 -17.15 -0.2 -21.85 -0.2 Q-22.35 -0.25 -22.5 -0.8 -22.7 -1.35 -22.25 -1.7 L-17.8 -4.3 -17.4 -4.95 -15.95 -8.9 Q-15.7 -9.65 -14.9 -9.5 L-13.5 -9.2 -12.4 -11.25 Q-13.1 -11.8 -12.9 -12.65 L-12.8 -12.9 -14.15 -14.45 -15.75 -15.85 Q-17.95 -15.0 -18.35 -15.4 L-19.65 -16.4 -20.95 -17.45 -21.6 -17.9 -22.1 -18.45 -20.95 -20.3 -32.3 -25.3 Q-32.75 -25.5 -32.75 -26.0 -32.7 -26.55 -32.3 -26.75 L-18.95 -33.3 Q-18.8 -34.75 -18.0 -35.65 L-17.15 -36.25 Q-21.15 -38.2 -24.4 -41.1 -26.1 -42.6 -27.65 -44.65 L-33.0 -44.55 Q-36.35 -45.8 -36.4 -50.8 -36.45 -52.9 -35.7 -54.5 -34.95 -56.25 -33.7 -56.7 L-32.05 -56.7 Q-32.25 -62.85 -28.85 -68.15 L-29.9 -68.85 Q-31.3 -68.2 -32.85 -68.3 -35.7 -68.45 -37.8 -70.15 -40.2 -72.05 -40.0 -74.8 -39.85 -77.8 -37.7 -79.55 -35.8 -81.2 -33.05 -81.25 -30.35 -81.3 -28.35 -79.8 -26.1 -78.15 -25.75 -75.3 L-25.7 -74.8 -25.75 -74.4 -26.15 -72.8 -25.5 -72.2 Q-19.2 -78.35 -9.7 -80.55 -0.55 -82.65 8.3 -80.5 12.6 -79.45 16.45 -77.45 20.45 -75.45 23.5 -72.6 L23.75 -72.8 23.35 -74.4 23.3 -74.8 23.35 -75.3 Q23.7 -77.95 25.75 -79.7 27.8 -81.5 30.45 -81.4" fill="#030303" fill-rule="evenodd" stroke="none"/>
  </g>
</svg>
