<?xml version="1.0" encoding="UTF-8" standalone="no"?>
<svg xmlns:ffdec="https://www.free-decompiler.com/flash" xmlns:xlink="http://www.w3.org/1999/xlink" ffdec:objectType="shape" height="85.0px" width="66.6px" xmlns="http://www.w3.org/2000/svg">
  <g transform="matrix(1.0, 0.0, 0.0, 1.0, 36.0, 85.0)">
    <path d="M24.9 -73.4 Q27.45 -70.15 28.75 -66.7 30.25 -62.75 30.0 -59.1 29.5 -53.0 23.5 -46.9 18.25 -41.5 10.95 -37.0 L9.95 -35.75 9.25 -34.8 Q11.3 -30.4 13.75 -27.25 L15.2 -29.2 17.1 -31.55 14.95 -34.55 Q14.8 -34.7 14.9 -34.95 L15.25 -35.2 16.8 -35.4 18.05 -35.05 Q17.75 -36.05 17.6 -38.1 L17.6 -40.0 Q17.75 -40.2 18.8 -40.5 L20.15 -40.7 Q22.05 -38.95 23.35 -35.25 23.25 -35.5 26.2 -36.45 L29.45 -37.35 30.25 -37.0 Q30.75 -36.55 30.55 -36.35 L30.25 -35.3 29.9 -34.45 Q30.1 -32.8 27.0 -31.2 24.25 -29.75 22.15 -29.6 L17.85 -24.7 Q14.15 -20.85 12.9 -21.2 11.65 -21.55 9.5 -23.9 7.45 -26.1 6.2 -28.3 L5.6 -26.0 3.9 -20.9 Q3.1 -17.8 3.15 -15.6 L1.85 -9.75 Q1.0 -3.6 3.3 -1.55 3.75 -1.15 3.5 -0.55 3.25 0.0 2.65 0.0 L-1.35 -0.4 Q-3.6 -1.2 -3.3 -3.35 L-2.45 -8.4 Q-2.1 -11.25 -2.6 -13.3 L-7.9 -13.1 Q-8.75 -10.55 -8.45 -8.95 L-7.75 -6.05 -7.25 -3.1 Q-7.1 -1.1 -9.35 -0.35 L-13.25 0.0 Q-13.8 0.0 -14.05 -0.55 -14.3 -1.15 -13.85 -1.55 -11.75 -3.35 -12.75 -9.3 L-14.0 -15.3 Q-13.25 -17.8 -14.1 -21.4 -14.55 -23.2 -16.05 -27.25 -17.25 -25.05 -18.05 -22.4 -18.8 -19.95 -18.95 -18.2 -19.1 -16.0 -18.35 -11.75 -18.05 -8.05 -20.05 -5.95 L-20.75 -5.8 -21.5 -5.95 -22.1 -6.3 -22.35 -6.8 -22.95 -7.85 -24.0 -7.95 -27.45 -6.8 -30.85 -5.45 Q-30.95 -5.35 -31.3 -5.7 L-31.65 -6.2 Q-32.2 -7.25 -31.3 -8.15 -32.7 -9.1 -30.85 -10.55 -28.95 -12.0 -24.55 -13.5 -24.65 -19.05 -23.4 -24.4 -22.0 -30.3 -19.25 -34.6 L-19.95 -36.2 Q-24.65 -39.4 -28.15 -43.1 -33.15 -48.3 -35.0 -54.05 -36.95 -60.3 -35.15 -66.95 -33.0 -74.65 -26.2 -79.3 -20.3 -83.3 -11.5 -84.5 -0.7 -85.85 8.35 -83.6 19.05 -80.9 24.9 -73.4 M19.55 -75.1 Q15.3 -78.6 9.85 -80.6 4.6 -82.55 -1.1 -82.8 -13.75 -83.45 -21.5 -79.55 -29.5 -75.5 -32.4 -66.85 -35.35 -58.0 -30.55 -50.4 -27.9 -46.2 -19.85 -40.1 L-12.35 -34.8 -15.8 -35.65 Q-19.35 -30.9 -21.2 -24.65 -23.1 -18.45 -22.8 -12.55 -22.8 -12.35 -23.1 -12.1 L-23.55 -11.8 Q-24.95 -11.75 -26.8 -11.1 L-29.75 -9.6 Q-30.85 -8.85 -29.85 -9.25 L-28.4 -9.8 -24.35 -10.9 -23.8 -10.5 Q-23.7 -10.1 -24.1 -10.05 -27.55 -9.2 -29.3 -8.3 L-30.5 -7.2 -27.85 -8.2 -22.4 -10.05 -22.05 -10.0 -21.8 -9.75 -21.7 -8.15 Q-20.05 -7.1 -19.85 -9.05 L-19.8 -10.05 Q-19.85 -10.75 -20.4 -12.65 L-20.9 -15.25 Q-20.9 -19.1 -19.7 -23.45 -19.2 -25.3 -17.4 -28.1 -15.5 -31.05 -14.5 -31.3 L-14.5 -30.4 -14.7 -30.35 -13.5 -27.3 -11.9 -22.5 Q-11.05 -19.6 -11.05 -17.4 L-11.75 -16.75 Q-12.1 -14.9 -10.8 -9.2 -9.75 -4.4 -11.3 -1.8 -10.05 -1.85 -9.55 -2.35 -8.95 -3.0 -9.25 -4.4 L-10.25 -9.1 Q-10.45 -10.55 -9.3 -13.45 L-8.05 -16.05 Q-7.65 -16.7 -7.5 -16.55 -7.3 -16.4 -7.4 -15.7 L-3.05 -15.85 -2.8 -16.5 -2.2 -15.95 -1.1 -13.35 Q-0.1 -10.5 -0.35 -9.1 L-0.9 -6.35 -1.5 -3.6 Q-1.75 -1.85 0.75 -1.8 -0.85 -4.35 0.35 -9.1 1.7 -14.75 1.2 -16.95 L0.55 -17.4 Q0.75 -19.8 1.7 -22.9 L3.5 -28.1 4.45 -30.7 3.85 -31.95 Q5.65 -30.8 8.0 -28.1 L11.8 -23.9 Q13.9 -21.8 19.35 -28.5 L20.15 -29.7 Q20.9 -30.8 21.3 -30.9 L24.15 -31.8 26.2 -32.65 Q27.35 -33.25 27.9 -33.9 28.25 -34.3 27.5 -34.05 27.05 -33.8 26.2 -33.7 L24.9 -33.3 Q24.0 -32.85 24.7 -33.3 L26.3 -34.2 28.1 -34.8 28.5 -35.4 28.85 -36.0 25.95 -35.0 23.1 -33.55 Q22.6 -33.3 22.45 -33.8 L21.25 -37.0 19.6 -40.0 19.4 -39.65 19.25 -39.25 20.35 -35.8 20.55 -35.0 20.55 -34.1 20.1 -35.5 19.6 -36.7 19.25 -37.7 19.25 -37.75 18.55 -39.45 Q18.35 -39.15 18.9 -36.5 L19.65 -33.5 Q19.8 -33.2 19.45 -33.0 L18.9 -33.05 Q17.8 -34.25 16.05 -34.55 L17.3 -33.0 18.45 -31.75 Q18.7 -31.45 18.55 -31.2 L16.65 -28.1 Q15.5 -26.35 14.3 -25.55 L13.55 -25.35 Q13.05 -25.35 12.9 -25.55 8.55 -31.15 6.1 -35.8 L2.65 -35.35 9.25 -39.05 9.65 -39.3 Q15.1 -42.75 19.2 -46.45 22.85 -49.85 24.65 -52.3 27.4 -56.1 27.35 -59.65 27.25 -64.1 25.1 -68.2 23.05 -72.15 19.55 -75.1 M10.25 -52.4 Q9.65 -52.4 9.2 -52.0 8.8 -51.6 8.8 -51.0 8.8 -50.35 9.2 -49.95 9.65 -49.55 10.25 -49.55 10.85 -49.55 11.25 -49.95 11.65 -50.35 11.65 -51.0 11.65 -51.55 11.25 -52.0 10.85 -52.4 10.25 -52.4 M12.3 -53.6 Q14.4 -53.6 15.5 -52.6 16.95 -51.15 16.0 -49.5 15.15 -47.95 12.7 -46.7 6.95 -43.85 2.15 -45.4 2.65 -50.0 8.0 -52.5 10.2 -53.55 12.3 -53.6 M-0.6 -40.3 L-4.8 -40.0 Q-7.65 -39.55 -8.95 -40.45 -10.05 -41.25 -9.3 -42.2 -8.6 -42.95 -7.5 -43.25 -6.75 -43.45 -7.0 -42.7 -7.3 -42.0 -7.9 -41.7 -6.75 -41.0 -4.5 -41.4 L-0.55 -41.7 Q0.35 -41.55 0.3 -40.85 0.3 -40.15 -0.6 -40.3 M-20.15 -53.6 Q-18.05 -53.55 -15.8 -52.5 -10.5 -50.0 -10.0 -45.4 -14.8 -43.85 -20.55 -46.7 -23.0 -47.95 -23.85 -49.5 -24.8 -51.15 -23.35 -52.6 -22.25 -53.6 -20.15 -53.6 M-16.45 -52.0 Q-16.85 -52.4 -17.45 -52.4 -18.05 -52.4 -18.5 -52.0 -18.9 -51.6 -18.9 -51.0 -18.9 -50.35 -18.5 -49.95 -18.05 -49.55 -17.45 -49.55 -16.85 -49.55 -16.45 -49.95 -16.0 -50.35 -16.0 -51.0 -16.0 -51.55 -16.45 -52.0" fill="#030303" fill-rule="evenodd" stroke="none"/>
    <path d="M19.55 -75.1 Q23.05 -72.15 25.1 -68.2 27.25 -64.1 27.35 -59.65 27.4 -56.1 24.65 -52.3 22.85 -49.85 19.2 -46.45 15.1 -42.75 9.65 -39.3 L9.25 -39.05 2.65 -35.35 6.1 -35.8 Q8.55 -31.15 12.9 -25.55 13.05 -25.35 13.55 -25.35 L14.3 -25.55 Q15.5 -26.35 16.65 -28.1 L18.55 -31.2 Q18.7 -31.45 18.45 -31.75 L17.3 -33.0 16.05 -34.55 Q17.8 -34.25 18.9 -33.05 L19.45 -33.0 Q19.8 -33.2 19.65 -33.5 L18.9 -36.5 Q18.35 -39.15 18.55 -39.45 L19.25 -37.75 19.25 -37.7 19.6 -36.7 20.1 -35.5 20.55 -34.1 20.55 -35.0 20.35 -35.8 19.25 -39.25 19.4 -39.65 19.6 -40.0 21.25 -37.0 22.45 -33.8 Q22.6 -33.3 23.1 -33.55 L25.95 -35.0 28.85 -36.0 28.5 -35.4 28.1 -34.8 26.3 -34.2 24.7 -33.3 Q24.0 -32.85 24.9 -33.3 L26.2 -33.7 Q27.05 -33.8 27.5 -34.05 28.25 -34.3 27.9 -33.9 27.35 -33.25 26.2 -32.65 L24.15 -31.8 21.3 -30.9 Q20.9 -30.8 20.15 -29.7 L19.35 -28.5 Q13.9 -21.8 11.8 -23.9 L8.0 -28.1 Q5.65 -30.8 3.85 -31.95 L4.45 -30.7 3.5 -28.1 1.7 -22.9 Q0.75 -19.8 0.55 -17.4 L1.2 -16.95 Q1.7 -14.75 0.35 -9.1 -0.85 -4.35 0.75 -1.8 -1.75 -1.85 -1.5 -3.6 L-0.9 -6.35 -0.35 -9.1 Q-0.1 -10.5 -1.1 -13.35 L-2.2 -15.95 -2.8 -16.5 -3.05 -15.85 -7.4 -15.7 Q-7.3 -16.4 -7.5 -16.55 -7.65 -16.7 -8.05 -16.05 L-9.3 -13.45 Q-10.45 -10.55 -10.25 -9.1 L-9.25 -4.4 Q-8.95 -3.0 -9.55 -2.35 -10.05 -1.85 -11.3 -1.8 -9.75 -4.4 -10.8 -9.2 -12.1 -14.9 -11.75 -16.75 L-11.05 -17.4 Q-11.05 -19.6 -11.9 -22.5 L-13.5 -27.3 -14.7 -30.35 -14.5 -30.4 -14.5 -31.3 Q-15.5 -31.05 -17.4 -28.1 -19.2 -25.3 -19.7 -23.45 -20.9 -19.1 -20.9 -15.25 L-20.4 -12.65 Q-19.85 -10.75 -19.8 -10.05 L-19.85 -9.05 Q-20.05 -7.1 -21.7 -8.15 L-21.8 -9.75 -22.05 -10.0 -22.4 -10.05 -27.85 -8.2 -30.5 -7.2 -29.3 -8.3 Q-27.55 -9.2 -24.1 -10.05 -23.7 -10.1 -23.8 -10.5 L-24.35 -10.9 -28.4 -9.8 -29.85 -9.25 Q-30.85 -8.85 -29.75 -9.6 L-26.8 -11.1 Q-24.95 -11.75 -23.55 -11.8 L-23.1 -12.1 Q-22.8 -12.35 -22.8 -12.55 -23.1 -18.45 -21.2 -24.65 -19.35 -30.9 -15.8 -35.65 L-12.35 -34.8 -19.85 -40.1 Q-27.9 -46.2 -30.55 -50.4 -35.35 -58.0 -32.4 -66.85 -29.5 -75.5 -21.5 -79.55 -13.75 -83.45 -1.1 -82.8 4.6 -82.55 9.85 -80.6 15.3 -78.6 19.55 -75.1 M10.25 -52.4 Q10.85 -52.4 11.25 -52.0 11.65 -51.55 11.65 -51.0 11.65 -50.35 11.25 -49.95 10.85 -49.55 10.25 -49.55 9.65 -49.55 9.2 -49.95 8.8 -50.35 8.8 -51.0 8.8 -51.6 9.2 -52.0 9.65 -52.4 10.25 -52.4 M-20.15 -53.6 Q-22.25 -53.6 -23.35 -52.6 -24.8 -51.15 -23.85 -49.5 -23.0 -47.95 -20.55 -46.7 -14.8 -43.85 -10.0 -45.4 -10.5 -50.0 -15.8 -52.5 -18.05 -53.55 -20.15 -53.6 M-0.6 -40.3 Q0.3 -40.15 0.3 -40.85 0.35 -41.55 -0.55 -41.7 L-4.5 -41.4 Q-6.75 -41.0 -7.9 -41.7 -7.3 -42.0 -7.0 -42.7 -6.75 -43.45 -7.5 -43.25 -8.6 -42.95 -9.3 -42.2 -10.05 -41.25 -8.95 -40.45 -7.65 -39.55 -4.8 -40.0 L-0.6 -40.3 M12.3 -53.6 Q10.2 -53.55 8.0 -52.5 2.65 -50.0 2.15 -45.4 6.95 -43.85 12.7 -46.7 15.15 -47.95 16.0 -49.5 16.95 -51.15 15.5 -52.6 14.4 -53.6 12.3 -53.6 M-16.45 -52.0 Q-16.0 -51.55 -16.0 -51.0 -16.0 -50.35 -16.45 -49.95 -16.85 -49.55 -17.45 -49.55 -18.05 -49.55 -18.5 -49.95 -18.9 -50.35 -18.9 -51.0 -18.9 -51.6 -18.5 -52.0 -18.05 -52.4 -17.45 -52.4 -16.85 -52.4 -16.45 -52.0" fill="#ffffff" fill-rule="evenodd" stroke="none"/>
  </g>
</svg>
