<?xml version="1.0" encoding="UTF-8" standalone="no"?>
<svg xmlns:ffdec="https://www.free-decompiler.com/flash" xmlns:xlink="http://www.w3.org/1999/xlink" ffdec:objectType="shape" height="85.0px" width="80.0px" xmlns="http://www.w3.org/2000/svg">
  <g transform="matrix(1.0, 0.0, 0.0, 1.0, 40.0, 85.0)">
    <path d="M1.4 -82.6 Q2.25 -81.65 2.25 -80.4 2.25 -79.15 1.4 -78.3 0.55 -77.35 -0.65 -77.35 -1.85 -77.35 -2.7 -78.3 -3.55 -79.15 -3.55 -80.4 -3.55 -81.65 -2.7 -82.6 -1.85 -83.45 -0.65 -83.45 0.55 -83.45 1.4 -82.6 M15.85 -68.75 L16.3 -64.8 -16.6 -64.8 -16.8 -64.5 -16.6 -66.1 -15.65 -69.65 Q-13.55 -71.7 -0.45 -71.5 12.4 -71.3 15.65 -69.5 L15.85 -68.75 M15.5 -53.85 Q15.5 -61.45 14.55 -61.75 L-15.15 -61.75 Q-15.9 -61.65 -15.75 -53.85 -15.65 -46.3 -15.15 -45.05 L14.55 -45.05 Q15.5 -46.2 15.5 -53.85 M11.75 -57.5 L11.85 -56.85 11.5 -56.35 10.9 -56.25 Q10.6 -56.35 10.45 -56.6 10.25 -56.85 10.35 -57.15 L10.65 -57.7 11.25 -57.8 11.75 -57.5 M7.8 -54.25 L8.1 -55.45 13.95 -54.6 14.0 -53.6 7.8 -54.25 M2.8 -54.0 L0.7 -56.2 1.5 -57.5 3.65 -55.05 5.7 -57.6 6.8 -56.35 4.55 -53.95 6.3 -51.9 5.9 -50.85 3.7 -53.05 1.7 -50.95 1.0 -51.8 2.8 -54.0 M16.8 -53.4 Q16.9 -47.35 16.6 -43.2 L-16.45 -43.2 -16.75 -47.05 -17.05 -52.6 -17.05 -52.95 -17.1 -59.85 -16.85 -63.85 16.4 -63.85 16.8 -53.4 M33.3 -33.45 Q33.45 -32.95 34.15 -32.5 34.8 -32.15 35.55 -32.1 L31.1 -24.05 29.35 -26.65 33.3 -33.45 M35.85 -38.95 Q36.9 -38.95 37.65 -38.1 38.4 -37.35 38.4 -36.25 38.4 -35.15 37.65 -34.35 36.9 -33.55 35.85 -33.55 34.75 -33.55 34.0 -34.35 33.25 -35.15 33.25 -36.25 33.25 -37.35 34.0 -38.1 34.75 -38.95 35.85 -38.95 M28.5 -42.5 L29.5 -42.5 30.6 -38.95 31.45 -38.75 32.65 -38.55 32.15 -37.35 32.0 -36.6 28.9 -37.35 28.5 -42.5 M33.65 -46.05 L38.35 -43.15 37.65 -40.1 35.65 -40.3 35.95 -41.65 36.2 -42.65 33.15 -45.35 33.65 -46.05 M18.8 -54.95 L18.7 -61.3 25.3 -61.3 Q26.75 -59.15 26.6 -54.55 26.4 -50.05 24.9 -48.6 L22.45 -48.5 Q23.45 -50.85 23.55 -54.7 23.7 -58.9 22.5 -60.8 22.95 -58.7 22.7 -54.5 22.5 -50.15 21.7 -48.5 L18.7 -48.6 18.8 -54.95 M16.35 -40.45 L16.1 -39.15 -16.05 -39.7 -16.35 -42.2 16.5 -42.2 16.35 -40.45 M-14.45 -3.45 L-9.95 -3.45 -9.1 -1.45 -18.65 -1.1 -14.45 -3.45 M-11.6 -9.2 L-12.2 -7.85 -15.75 -8.05 -15.4 -9.55 -11.6 -9.2 M-14.25 -4.35 L-14.7 -5.2 -11.45 -5.3 -10.9 -4.2 -14.25 -4.35 M-15.2 -6.1 L-15.45 -7.2 -12.0 -7.1 -11.8 -6.2 -15.2 -6.1 M-15.0 -10.3 L-14.55 -11.65 -10.75 -11.65 -11.45 -9.8 -15.0 -10.3 M-3.95 -20.15 L-3.95 -16.15 -0.3 -16.15 -0.3 -20.15 -3.95 -20.15 M-9.45 -20.15 L-9.45 -16.15 -5.05 -16.15 -5.05 -20.15 -9.45 -20.15 M-9.4 -25.15 L-9.45 -25.25 -9.45 -21.35 -5.05 -21.35 -5.05 -25.15 -9.4 -25.15 M-0.3 -25.15 L-3.95 -25.15 -3.95 -21.35 -0.3 -21.35 -0.3 -25.15 M-34.15 -32.5 Q-33.45 -32.95 -33.25 -33.45 L-29.35 -26.65 -31.1 -24.05 -35.5 -32.1 -34.15 -32.5 M-34.05 -38.1 Q-33.25 -37.35 -33.25 -36.25 -33.25 -35.15 -34.05 -34.35 -34.75 -33.55 -35.85 -33.55 -36.9 -33.55 -37.65 -34.35 -38.4 -35.15 -38.4 -36.25 -38.4 -37.35 -37.65 -38.1 -36.9 -38.95 -35.85 -38.95 -34.75 -38.95 -34.05 -38.1 M-36.15 -42.65 L-35.9 -41.65 -35.65 -40.3 -36.95 -40.25 -37.65 -40.1 -38.35 -43.15 -33.65 -46.05 -33.15 -45.35 -36.15 -42.65 M-29.5 -42.5 L-28.5 -42.5 -28.9 -37.35 -32.0 -36.6 Q-32.15 -37.85 -32.65 -38.55 L-30.6 -38.95 -29.5 -42.5 M-9.45 -31.5 L-5.05 -31.5 -5.05 -35.8 -9.45 -35.8 -9.45 -31.5 M-5.05 -30.35 L-9.45 -30.35 -9.45 -26.35 -5.05 -26.35 -5.05 -30.35 M-0.3 -30.35 L-3.95 -30.35 -3.95 -26.35 -0.3 -26.35 -0.3 -30.35 M-0.3 -35.8 L-3.95 -35.8 -3.95 -31.5 -0.3 -31.5 -0.3 -35.8 M-16.25 -36.0 L-17.45 -33.0 Q-18.05 -31.05 -18.1 -29.65 -19.2 -28.8 -27.35 -23.45 L-28.2 -26.45 -22.75 -30.9 -16.25 -36.0 M-5.85 -54.65 L-0.95 -54.85 -0.8 -53.25 -5.65 -53.2 -5.85 -54.65 M-12.0 -57.0 L-10.4 -57.2 -10.0 -54.3 -7.9 -54.45 -7.75 -52.95 -9.8 -52.75 -9.5 -50.25 -10.95 -50.05 -11.35 -52.65 -13.9 -52.45 -14.1 -53.95 -11.55 -54.15 -12.0 -57.0 M-26.4 -54.55 Q-26.5 -59.15 -25.1 -61.3 L-18.5 -61.3 -18.6 -54.95 -18.5 -48.6 -21.5 -48.5 Q-22.25 -50.15 -22.55 -54.5 -22.75 -58.7 -22.3 -60.8 -23.5 -58.9 -23.35 -54.7 -23.25 -50.85 -22.25 -48.5 L-24.7 -48.6 Q-26.25 -50.05 -26.4 -54.55 M17.2 -25.0 Q18.05 -15.8 15.95 -14.3 L-15.85 -14.3 Q-16.65 -15.25 -17.0 -18.65 -17.4 -22.0 -17.1 -26.0 -16.4 -35.8 -13.3 -37.65 L14.0 -37.65 Q16.35 -34.05 17.2 -25.0 M9.75 -3.45 L14.25 -3.45 18.5 -1.1 8.9 -1.45 9.75 -3.45 M14.05 -4.35 L10.7 -4.2 11.25 -5.3 14.55 -5.2 14.05 -4.35 M15.0 -6.1 L11.6 -6.2 11.8 -7.1 15.3 -7.2 15.0 -6.1 M12.0 -7.85 L11.45 -9.2 15.2 -9.55 15.55 -8.05 12.0 -7.85 M11.25 -9.8 L10.6 -11.65 14.35 -11.65 14.85 -10.3 11.25 -9.8 M9.5 -20.2 L9.45 -20.2 9.45 -20.15 5.8 -20.15 5.8 -16.15 9.5 -16.15 9.5 -20.2 M4.65 -16.15 L4.65 -20.15 0.85 -20.15 0.85 -16.15 4.65 -16.15 M4.65 -25.15 L0.85 -25.15 0.85 -21.35 4.65 -21.35 4.65 -25.15 M9.5 -25.15 L5.8 -25.15 5.8 -21.35 9.5 -21.35 9.5 -25.15 M18.1 -29.65 Q18.05 -31.05 17.45 -33.0 L16.25 -36.0 Q17.7 -35.2 28.2 -26.45 L27.35 -23.45 Q19.2 -28.8 18.1 -29.65 M9.5 -30.35 L5.8 -30.35 5.8 -26.35 9.5 -26.35 9.5 -30.35 M4.65 -30.35 L0.85 -30.35 0.85 -26.35 4.65 -26.35 4.65 -30.35 M4.65 -35.8 L0.85 -35.8 0.85 -31.5 4.65 -31.5 4.65 -35.8 M9.5 -35.8 L5.8 -35.8 5.8 -31.5 9.5 -31.5 9.5 -35.8 M11.05 -50.85 L10.35 -50.75 9.75 -51.15 Q9.5 -51.5 9.6 -51.9 L10.0 -52.55 10.75 -52.65 Q11.15 -52.6 11.35 -52.25 L11.5 -51.45 11.05 -50.85" fill="#ffffff" fill-rule="evenodd" stroke="none"/>
    <path d="M1.4 -82.6 Q0.55 -83.45 -0.65 -83.45 -1.85 -83.45 -2.7 -82.6 -3.55 -81.65 -3.55 -80.4 -3.55 -79.15 -2.7 -78.3 -1.85 -77.35 -0.65 -77.35 0.55 -77.35 1.4 -78.3 2.25 -79.15 2.25 -80.4 2.25 -81.65 1.4 -82.6 M2.8 -83.55 Q4.2 -82.0 4.2 -80.0 4.2 -78.45 3.3 -77.15 2.4 -75.85 1.0 -75.4 L1.5 -73.25 11.6 -72.65 Q16.2 -72.1 16.85 -71.3 17.85 -70.05 18.3 -63.15 L25.55 -63.15 Q27.0 -62.65 27.75 -60.3 28.45 -58.05 28.4 -55.05 28.35 -52.05 27.55 -49.8 26.65 -47.3 25.25 -46.8 L18.35 -46.8 17.8 -40.4 Q17.4 -37.85 16.85 -37.85 L16.6 -37.85 28.65 -28.3 32.35 -34.4 32.2 -34.7 27.55 -35.8 26.95 -43.95 30.1 -43.9 31.75 -40.3 33.75 -39.75 33.95 -39.85 34.4 -42.0 31.95 -44.95 33.25 -48.0 40.0 -43.9 38.95 -38.8 Q39.9 -37.5 39.75 -35.8 39.6 -34.1 38.3 -33.1 L38.05 -32.9 31.45 -21.3 30.65 -22.0 29.45 -21.7 28.35 -21.9 28.0 -20.85 18.5 -27.4 Q19.25 -21.25 19.15 -17.05 18.95 -12.1 17.55 -12.1 L16.05 -12.1 17.35 -8.0 15.7 -4.3 20.15 -2.1 20.45 0.0 6.1 0.0 10.6 -7.75 8.85 -12.1 -9.05 -12.1 -10.75 -7.75 -6.25 0.0 -20.6 0.0 -20.35 -2.1 -15.9 -4.3 -17.5 -8.0 -16.25 -12.15 Q-18.15 -12.7 -18.8 -17.35 -19.35 -21.45 -18.8 -27.15 L-28.0 -20.85 -28.35 -21.9 -29.4 -21.7 -30.65 -22.0 -31.45 -21.3 -38.05 -32.9 -38.3 -33.1 Q-39.55 -34.1 -39.75 -35.8 -39.9 -37.5 -38.95 -38.8 L-40.0 -43.9 -33.2 -48.0 -31.9 -44.95 -34.4 -42.0 -33.9 -39.85 -33.75 -39.75 -31.75 -40.3 -30.1 -43.9 -26.95 -43.95 -27.55 -35.8 -32.2 -34.7 -32.3 -34.4 -28.65 -28.3 -16.6 -37.85 -16.75 -37.85 Q-17.2 -37.85 -17.6 -40.4 -18.05 -42.85 -18.3 -46.8 L-25.05 -46.8 Q-26.45 -47.3 -27.35 -49.8 -28.15 -52.05 -28.2 -55.05 -28.25 -58.05 -27.55 -60.3 -26.75 -62.65 -25.35 -63.15 L-18.45 -63.15 Q-18.05 -70.15 -16.75 -71.3 -15.8 -72.15 -11.65 -72.7 L-2.6 -73.25 -2.15 -75.35 Q-3.55 -75.85 -4.45 -77.1 -5.35 -78.4 -5.35 -80.0 -5.35 -82.0 -3.95 -83.55 -2.55 -85.0 -0.6 -85.0 1.4 -85.0 2.8 -83.55 M15.85 -68.75 L15.65 -69.5 Q12.4 -71.3 -0.45 -71.5 -13.55 -71.7 -15.65 -69.65 L-16.6 -66.1 -16.8 -64.5 -16.6 -64.8 16.3 -64.8 15.85 -68.75 M2.8 -54.0 L1.0 -51.8 1.7 -50.95 3.7 -53.05 5.9 -50.85 6.3 -51.9 4.55 -53.95 6.8 -56.35 5.7 -57.6 3.65 -55.05 1.5 -57.5 0.7 -56.2 2.8 -54.0 M7.8 -54.25 L14.0 -53.6 13.95 -54.6 8.1 -55.45 7.8 -54.25 M11.75 -57.5 L11.25 -57.8 10.65 -57.7 10.35 -57.15 Q10.25 -56.85 10.45 -56.6 10.6 -56.35 10.9 -56.25 L11.5 -56.35 11.85 -56.85 11.75 -57.5 M15.5 -53.85 Q15.5 -46.2 14.55 -45.05 L-15.15 -45.05 Q-15.65 -46.3 -15.75 -53.85 -15.9 -61.65 -15.15 -61.75 L14.55 -61.75 Q15.5 -61.45 15.5 -53.85 M16.8 -53.4 L16.4 -63.85 -16.85 -63.85 -17.1 -59.85 -17.05 -52.95 -17.05 -52.6 -16.75 -47.05 -16.45 -43.2 16.6 -43.2 Q16.9 -47.35 16.8 -53.4 M18.8 -54.95 L18.7 -48.6 21.7 -48.5 Q22.5 -50.15 22.7 -54.5 22.95 -58.7 22.5 -60.8 23.7 -58.9 23.55 -54.7 23.45 -50.85 22.45 -48.5 L24.9 -48.6 Q26.4 -50.05 26.6 -54.55 26.75 -59.15 25.3 -61.3 L18.7 -61.3 18.8 -54.95 M33.65 -46.05 L33.15 -45.35 36.2 -42.65 35.95 -41.65 35.65 -40.3 37.65 -40.1 38.35 -43.15 33.65 -46.05 M28.5 -42.5 L28.9 -37.35 32.0 -36.6 32.15 -37.35 32.65 -38.55 31.45 -38.75 30.6 -38.95 29.5 -42.5 28.5 -42.5 M35.85 -38.95 Q34.75 -38.95 34.0 -38.1 33.25 -37.35 33.25 -36.25 33.25 -35.15 34.0 -34.35 34.75 -33.55 35.85 -33.55 36.9 -33.55 37.65 -34.35 38.4 -35.15 38.4 -36.25 38.4 -37.35 37.65 -38.1 36.9 -38.95 35.85 -38.95 M33.3 -33.45 L29.35 -26.65 31.1 -24.05 35.55 -32.1 Q34.8 -32.15 34.15 -32.5 33.45 -32.95 33.3 -33.45 M16.35 -40.45 L16.5 -42.2 -16.35 -42.2 -16.05 -39.7 16.1 -39.15 16.35 -40.45 M11.05 -50.85 L11.5 -51.45 11.35 -52.25 Q11.15 -52.6 10.75 -52.65 L10.0 -52.55 9.6 -51.9 Q9.5 -51.5 9.75 -51.15 L10.35 -50.75 11.05 -50.85 M9.5 -35.8 L9.5 -31.5 5.8 -31.5 5.8 -35.8 9.5 -35.8 M4.65 -35.8 L4.65 -31.5 0.85 -31.5 0.85 -35.8 4.65 -35.8 M4.65 -30.35 L4.65 -26.35 0.85 -26.35 0.85 -30.35 4.65 -30.35 M9.5 -30.35 L9.5 -26.35 5.8 -26.35 5.8 -30.35 9.5 -30.35 M18.1 -29.65 Q19.2 -28.8 27.35 -23.45 L28.2 -26.45 Q17.7 -35.2 16.25 -36.0 L17.45 -33.0 Q18.05 -31.05 18.1 -29.65 M9.5 -25.15 L9.5 -21.35 5.8 -21.35 5.8 -25.15 9.5 -25.15 M4.65 -25.15 L4.65 -21.35 0.85 -21.35 0.85 -25.15 4.65 -25.15 M4.65 -16.15 L0.85 -16.15 0.85 -20.15 4.65 -20.15 4.65 -16.15 M9.5 -20.2 L9.5 -16.15 5.8 -16.15 5.8 -20.15 9.45 -20.15 9.45 -20.2 9.5 -20.2 M11.25 -9.8 L14.85 -10.3 14.35 -11.65 10.6 -11.65 11.25 -9.8 M12.0 -7.85 L15.55 -8.05 15.2 -9.55 11.45 -9.2 12.0 -7.85 M15.0 -6.1 L15.3 -7.2 11.8 -7.1 11.6 -6.2 15.0 -6.1 M14.05 -4.35 L14.55 -5.2 11.25 -5.3 10.7 -4.2 14.05 -4.35 M9.75 -3.45 L8.9 -1.45 18.5 -1.1 14.25 -3.45 9.75 -3.45 M17.2 -25.0 Q16.35 -34.05 14.0 -37.65 L-13.3 -37.65 Q-16.4 -35.8 -17.1 -26.0 -17.4 -22.0 -17.0 -18.65 -16.65 -15.25 -15.85 -14.3 L15.95 -14.3 Q18.05 -15.8 17.2 -25.0 M-26.4 -54.55 Q-26.25 -50.05 -24.7 -48.6 L-22.25 -48.5 Q-23.25 -50.85 -23.35 -54.7 -23.5 -58.9 -22.3 -60.8 -22.75 -58.7 -22.55 -54.5 -22.25 -50.15 -21.5 -48.5 L-18.5 -48.6 -18.6 -54.95 -18.5 -61.3 -25.1 -61.3 Q-26.5 -59.15 -26.4 -54.55 M-12.0 -57.0 L-11.55 -54.15 -14.1 -53.95 -13.9 -52.45 -11.35 -52.65 -10.95 -50.05 -9.5 -50.25 -9.8 -52.75 -7.75 -52.95 -7.9 -54.45 -10.0 -54.3 -10.4 -57.2 -12.0 -57.0 M-5.85 -54.65 L-5.65 -53.2 -0.8 -53.25 -0.95 -54.85 -5.85 -54.65 M-16.25 -36.0 L-22.75 -30.9 -28.2 -26.45 -27.35 -23.45 Q-19.2 -28.8 -18.1 -29.65 -18.05 -31.05 -17.45 -33.0 L-16.25 -36.0 M-0.3 -35.8 L-0.3 -31.5 -3.95 -31.5 -3.95 -35.8 -0.3 -35.8 M-0.3 -30.35 L-0.3 -26.35 -3.95 -26.35 -3.95 -30.35 -0.3 -30.35 M-5.05 -30.35 L-5.05 -26.35 -9.45 -26.35 -9.45 -30.35 -5.05 -30.35 M-9.45 -31.5 L-9.45 -35.8 -5.05 -35.8 -5.05 -31.5 -9.45 -31.5 M-29.5 -42.5 L-30.6 -38.95 -32.65 -38.55 Q-32.15 -37.85 -32.0 -36.6 L-28.9 -37.35 -28.5 -42.5 -29.5 -42.5 M-36.15 -42.65 L-33.15 -45.35 -33.65 -46.05 -38.35 -43.15 -37.65 -40.1 -36.95 -40.25 -35.65 -40.3 -35.9 -41.65 -36.15 -42.65 M-34.05 -38.1 Q-34.75 -38.95 -35.85 -38.95 -36.9 -38.95 -37.65 -38.1 -38.4 -37.35 -38.4 -36.25 -38.4 -35.15 -37.65 -34.35 -36.9 -33.55 -35.85 -33.55 -34.75 -33.55 -34.05 -34.35 -33.25 -35.15 -33.25 -36.25 -33.25 -37.35 -34.05 -38.1 M-34.15 -32.5 L-35.5 -32.1 -31.1 -24.05 -29.35 -26.65 -33.25 -33.45 Q-33.45 -32.95 -34.15 -32.5 M-0.3 -25.15 L-0.3 -21.35 -3.95 -21.35 -3.95 -25.15 -0.3 -25.15 M-9.4 -25.15 L-5.05 -25.15 -5.05 -21.35 -9.45 -21.35 -9.45 -25.25 -9.4 -25.15 M-9.45 -20.15 L-5.05 -20.15 -5.05 -16.15 -9.45 -16.15 -9.45 -20.15 M-3.95 -20.15 L-0.3 -20.15 -0.3 -16.15 -3.95 -16.15 -3.95 -20.15 M-15.0 -10.3 L-11.45 -9.8 -10.75 -11.65 -14.55 -11.65 -15.0 -10.3 M-15.2 -6.1 L-11.8 -6.2 -12.0 -7.1 -15.45 -7.2 -15.2 -6.1 M-14.25 -4.35 L-10.9 -4.2 -11.45 -5.3 -14.7 -5.2 -14.25 -4.35 M-11.6 -9.2 L-15.4 -9.55 -15.75 -8.05 -12.2 -7.85 -11.6 -9.2 M-14.45 -3.45 L-18.65 -1.1 -9.1 -1.45 -9.95 -3.45 -14.45 -3.45" fill="#000000" fill-rule="evenodd" stroke="none"/>
  </g>
</svg>
