<?xml version="1.0" encoding="UTF-8" standalone="no"?>
<svg xmlns:ffdec="https://www.free-decompiler.com/flash" xmlns:xlink="http://www.w3.org/1999/xlink" ffdec:objectType="shape" height="80.0px" width="80.0px" xmlns="http://www.w3.org/2000/svg">
  <g transform="matrix(1.0, 0.0, 0.0, 1.0, 40.0, 80.0)">
    <path d="M10.5 -55.85 Q10.5 -51.55 7.5 -48.5 4.5 -45.45 0.3 -45.45 -3.9 -45.45 -6.9 -48.5 -9.9 -51.55 -9.9 -55.85 -9.9 -60.15 -6.9 -63.2 -3.9 -66.25 0.3 -66.25 4.5 -66.25 7.5 -63.2 10.5 -60.15 10.5 -55.85 M8.3 -67.1 Q10.95 -65.3 12.3 -63.2 13.85 -60.8 14.35 -57.25 14.75 -53.45 13.15 -49.95 12.15 -47.55 10.15 -45.55 8.05 -43.45 5.45 -42.45 1.0 -40.6 -3.9 -42.1 -7.45 -43.25 -8.0 -44.15 L-9.1 -45.05 Q-10.3 -46.15 -11.2 -47.55 -14.15 -51.8 -13.8 -56.75 -13.7 -59.55 -12.35 -62.2 -11.1 -64.8 -9.2 -66.5 -6.35 -69.15 -2.75 -69.95 L3.45 -69.8 Q5.8 -69.1 8.3 -67.1 5.55 -68.6 3.25 -69.0 L-2.55 -68.85 Q-5.9 -68.05 -8.5 -65.7 -10.25 -64.1 -11.4 -61.75 -12.6 -59.2 -12.7 -56.7 -13.05 -52.15 -10.35 -48.2 -8.35 -45.3 -7.35 -45.1 -6.8 -44.2 -3.6 -43.15 0.9 -41.75 5.05 -43.5 7.4 -44.4 9.35 -46.35 11.2 -48.15 12.15 -50.4 13.65 -53.7 13.25 -57.15 12.8 -60.5 11.6 -62.8 10.5 -64.95 8.3 -67.1 M7.9 -60.5 Q7.9 -62.3 6.7 -63.55 5.45 -64.8 3.7 -64.8 1.9 -64.8 0.7 -63.55 -0.55 -62.3 -0.55 -60.5 -0.55 -58.7 0.7 -57.4 1.9 -56.15 3.7 -56.15 5.45 -56.15 6.7 -57.4 7.9 -58.7 7.9 -60.5 M21.6 -39.05 Q23.25 -39.0 24.5 -38.3 26.4 -37.15 26.35 -34.75 26.3 -32.75 25.15 -31.6 23.55 -29.65 21.6 -28.65 22.1 -25.7 22.9 -23.6 24.0 -20.6 25.4 -20.0 26.55 -19.5 27.55 -21.0 28.25 -22.15 28.75 -24.05 28.6 -24.6 28.6 -25.2 L28.6 -25.6 Q27.3 -28.45 27.55 -30.95 27.85 -34.5 31.15 -36.65 33.2 -38.05 34.45 -36.15 34.95 -35.4 34.85 -34.6 34.75 -33.7 34.0 -33.2 31.4 -31.5 31.9 -28.65 L31.95 -28.65 Q33.0 -28.65 33.8 -28.1 36.0 -29.75 35.35 -32.75 35.15 -33.65 35.7 -34.4 36.2 -35.05 37.1 -35.2 39.25 -35.7 39.8 -33.2 40.5 -29.75 38.9 -27.2 37.65 -25.25 35.2 -24.05 34.65 -22.5 33.1 -21.95 L33.3 -21.75 Q32.35 -19.15 30.7 -16.95 27.4 -12.55 23.9 -14.6 20.4 -16.55 19.2 -19.45 L17.55 -14.0 Q17.4 -13.45 16.6 -12.9 18.95 -9.4 18.9 -5.85 22.85 -5.35 24.95 -2.65 26.05 -1.3 26.35 0.0 L10.7 0.0 11.05 -1.25 Q11.6 -2.7 12.5 -3.8 13.15 -6.25 13.0 -8.2 12.8 -10.2 11.75 -11.25 6.95 -10.35 0.25 -10.35 L-11.35 -11.25 Q-12.4 -10.2 -12.6 -8.2 -12.8 -6.25 -12.1 -3.8 -11.2 -2.7 -10.65 -1.25 L-10.3 0.0 -25.95 0.0 Q-25.65 -1.3 -24.6 -2.65 -22.45 -5.35 -18.5 -5.85 -18.55 -9.4 -16.25 -12.85 L-17.4 -14.0 -19.1 -19.7 Q-20.15 -16.75 -23.85 -14.6 -27.4 -12.55 -30.7 -16.95 -31.75 -18.3 -32.65 -20.15 L-33.3 -21.75 -33.1 -21.95 Q-34.65 -22.5 -35.15 -24.05 -37.65 -25.25 -38.9 -27.2 -40.5 -29.75 -39.75 -33.2 -39.25 -35.7 -37.05 -35.2 -36.2 -35.05 -35.7 -34.4 -35.15 -33.65 -35.35 -32.75 -36.0 -29.75 -33.8 -28.1 -32.95 -28.65 -31.95 -28.65 L-31.9 -28.65 Q-31.4 -31.5 -34.0 -33.2 -34.75 -33.7 -34.85 -34.6 -34.95 -35.4 -34.45 -36.15 -33.2 -38.05 -31.1 -36.65 -27.8 -34.5 -27.5 -30.95 -27.3 -28.45 -28.6 -25.6 L-28.6 -25.2 Q-28.6 -24.6 -28.75 -24.05 -28.25 -22.15 -27.5 -21.0 -26.55 -19.5 -25.35 -20.0 -24.0 -20.6 -22.95 -23.45 -22.15 -25.55 -21.65 -28.45 -23.85 -29.5 -25.1 -31.0 -26.55 -32.75 -26.5 -34.8 -26.4 -36.75 -24.75 -37.8 -23.25 -38.85 -21.5 -38.5 L-21.5 -57.95 Q-21.5 -67.1 -15.2 -73.55 -8.9 -80.0 0.05 -80.0 9.0 -80.0 15.3 -73.55 21.6 -67.1 21.6 -57.95 L21.6 -39.05 M23.25 -2.05 Q21.45 -5.35 17.4 -5.35 14.4 -5.35 13.15 -2.05 L23.25 -2.05 M11.0 -13.4 Q11.3 -14.4 12.6 -14.9 14.3 -15.6 15.6 -14.25 L17.05 -19.4 18.7 -27.55 Q15.6 -26.85 11.75 -26.3 11.55 -17.5 11.0 -13.4 M28.4 -20.0 L31.4 -19.8 28.8 -21.55 28.4 -20.0 27.25 -19.05 25.4 -18.65 24.25 -19.6 22.55 -21.55 21.05 -17.9 24.25 -19.6 23.5 -15.2 25.4 -18.65 26.7 -15.2 27.25 -19.05 29.15 -16.7 28.4 -20.0 M29.9 -25.2 Q29.9 -24.3 30.5 -23.65 31.1 -23.05 31.95 -23.05 32.85 -23.05 33.5 -23.65 34.1 -24.3 34.1 -25.2 34.1 -26.05 33.5 -26.7 32.85 -27.35 31.95 -27.35 31.1 -27.35 30.5 -26.7 29.9 -26.05 29.9 -25.2 M37.0 -33.05 Q37.45 -31.1 36.8 -29.45 36.2 -28.0 34.85 -27.0 L35.3 -25.85 Q39.1 -28.3 38.15 -32.95 L37.55 -33.85 37.15 -33.65 Q36.9 -33.4 37.0 -33.05 M-37.1 -33.65 L-37.55 -33.85 Q-37.9 -33.85 -38.1 -32.95 -39.1 -28.3 -35.3 -25.85 L-34.85 -27.0 Q-36.2 -28.0 -36.8 -29.45 -37.45 -31.1 -37.0 -33.05 -36.9 -33.4 -37.1 -33.65 M-16.95 -5.35 Q-21.05 -5.35 -22.9 -2.05 L-12.8 -2.05 Q-13.95 -5.35 -16.95 -5.35 M-24.25 -19.6 L-25.35 -18.65 -27.25 -19.05 -28.4 -20.0 -28.8 -21.55 -31.4 -19.8 -28.4 -20.0 -29.15 -16.7 -27.25 -19.05 -26.7 -15.2 -25.35 -18.65 -23.45 -15.2 -24.25 -19.6 -21.0 -17.9 -22.55 -21.55 -24.25 -19.6 M-33.45 -26.7 Q-34.1 -26.05 -34.1 -25.2 -34.1 -24.3 -33.45 -23.65 -32.8 -23.05 -31.95 -23.05 -31.1 -23.05 -30.5 -23.65 -29.85 -24.3 -29.85 -25.2 -29.85 -26.05 -30.5 -26.7 -31.1 -27.35 -31.95 -27.35 -32.8 -27.35 -33.45 -26.7 M-11.3 -26.1 Q-10.05 -18.05 -8.85 -12.7 L-0.05 -12.0 9.6 -12.6 10.65 -19.25 11.45 -26.3 2.25 -25.65 -11.3 -26.1 M-7.9 -23.95 L-0.1 -23.65 8.3 -23.95 7.95 -20.2 0.35 -19.85 -7.55 -20.15 -7.9 -23.95 M-6.6 -14.45 L-6.75 -15.4 0.45 -15.1 7.35 -15.45 7.15 -14.25 0.9 -13.7 Q-4.9 -13.6 -6.6 -14.45 M-6.95 -16.4 L-7.35 -18.85 0.25 -18.3 7.8 -18.85 7.5 -16.45 0.6 -16.25 Q-4.4 -16.2 -6.95 -16.4 M-10.55 -13.0 L-10.15 -12.95 -11.0 -18.8 -11.65 -26.2 -18.45 -27.3 Q-17.4 -21.25 -15.55 -14.4 L-15.2 -14.25 Q-13.95 -15.55 -12.3 -14.95 -10.7 -14.4 -10.55 -13.0 M-1.95 -51.8 Q-1.95 -52.5 -2.45 -53.05 -2.95 -53.55 -3.65 -53.55 -4.35 -53.55 -4.85 -53.05 -5.35 -52.5 -5.35 -51.8 -5.35 -51.05 -4.85 -50.6 -4.35 -50.05 -3.65 -50.05 -2.95 -50.05 -2.45 -50.6 -1.95 -51.1 -1.95 -51.8 M-20.2 -38.0 L-20.5 -38.15 Q-22.4 -38.5 -23.8 -37.35 -25.1 -36.2 -24.9 -34.75 -24.75 -33.4 -23.45 -32.2 -24.0 -34.0 -23.15 -35.65 -22.25 -37.3 -20.2 -38.0 -21.95 -36.8 -22.25 -34.55 -22.55 -32.55 -21.6 -30.9 L-21.25 -30.75 -21.25 -30.9 -21.2 -30.7 -19.9 -30.1 Q-20.7 -32.05 -20.1 -34.0 -19.5 -35.9 -17.8 -37.05 L-20.2 -38.0 M-33.3 -35.1 L-33.0 -34.55 Q-31.2 -33.4 -30.6 -31.65 -30.05 -30.1 -30.45 -28.3 -29.85 -28.0 -29.45 -27.5 -28.8 -29.6 -29.2 -31.4 -29.75 -33.75 -32.1 -35.3 L-32.75 -35.6 -33.15 -35.55 -33.3 -35.1 M33.0 -34.55 L33.3 -35.1 33.15 -35.55 32.8 -35.6 32.1 -35.3 Q29.75 -33.75 29.25 -31.4 28.8 -29.6 29.45 -27.5 29.85 -28.0 30.45 -28.3 30.05 -30.1 30.6 -31.65 31.25 -33.4 33.0 -34.55 M17.15 -38.4 L19.4 -38.85 20.3 -57.75 Q20.3 -65.85 14.15 -71.85 8.1 -77.7 0.05 -77.7 -8.05 -77.7 -14.0 -72.2 -20.1 -66.6 -20.1 -58.55 L-19.4 -38.0 -12.9 -37.45 -5.55 -37.05 Q7.65 -36.5 17.15 -38.4 M19.9 -36.65 L17.55 -36.2 Q7.45 -34.2 -5.65 -34.85 L-12.25 -35.6 Q-15.05 -36.05 -17.75 -37.05 -18.65 -35.3 -18.9 -33.3 -19.2 -31.1 -18.5 -29.65 L-15.45 -28.95 Q-16.3 -30.9 -15.85 -32.8 -15.4 -34.8 -13.85 -35.55 -14.75 -33.7 -14.85 -31.95 -14.95 -30.1 -14.1 -28.75 L-10.7 -28.3 Q-11.1 -30.15 -10.45 -32.15 -9.85 -34.05 -8.7 -34.8 -9.4 -33.0 -9.5 -31.3 -9.6 -29.5 -9.0 -28.2 L-4.8 -27.9 Q-4.9 -29.8 -4.35 -31.7 -3.9 -33.35 -3.1 -34.6 -3.45 -31.65 -3.0 -27.85 0.0 -27.8 2.15 -27.9 L4.65 -28.0 Q4.9 -31.65 4.65 -34.6 6.0 -31.75 5.95 -28.05 L11.5 -28.55 Q12.45 -31.25 11.05 -34.8 12.15 -34.1 12.75 -32.35 13.4 -30.55 13.15 -28.8 L17.45 -29.55 Q17.8 -30.9 17.45 -32.6 17.05 -34.2 16.25 -35.55 17.95 -34.6 18.7 -33.1 19.45 -31.55 19.0 -29.95 L19.5 -30.15 19.9 -30.35 21.0 -30.85 Q21.95 -32.2 21.7 -33.8 21.45 -35.55 19.9 -36.65 M24.15 -34.8 Q24.2 -35.9 23.35 -36.4 L20.2 -36.75 Q21.8 -36.1 22.6 -35.0 23.4 -33.95 23.25 -32.7 L23.4 -32.9 Q24.1 -33.8 24.15 -34.8" fill="#000000" fill-rule="evenodd" stroke="none"/>
    <path d="M7.9 -60.5 Q7.9 -58.7 6.7 -57.4 5.45 -56.15 3.7 -56.15 1.9 -56.15 0.7 -57.4 -0.55 -58.7 -0.55 -60.5 -0.55 -62.3 0.7 -63.55 1.9 -64.8 3.7 -64.8 5.45 -64.8 6.7 -63.55 7.9 -62.3 7.9 -60.5 M8.3 -67.1 Q10.5 -64.95 11.6 -62.8 12.8 -60.5 13.25 -57.15 13.65 -53.7 12.15 -50.4 11.2 -48.15 9.35 -46.35 7.4 -44.4 5.05 -43.5 0.9 -41.75 -3.6 -43.15 -6.8 -44.2 -7.35 -45.1 -8.35 -45.3 -10.35 -48.2 -13.05 -52.15 -12.7 -56.7 -12.6 -59.2 -11.4 -61.75 -10.25 -64.1 -8.5 -65.7 -5.9 -68.05 -2.55 -68.85 L3.25 -69.0 Q5.55 -68.6 8.3 -67.1 5.8 -69.1 3.45 -69.8 L-2.75 -69.95 Q-6.35 -69.15 -9.2 -66.5 -11.1 -64.8 -12.35 -62.2 -13.7 -59.55 -13.8 -56.75 -14.15 -51.8 -11.2 -47.55 -10.3 -46.15 -9.1 -45.05 L-8.0 -44.15 Q-7.45 -43.25 -3.9 -42.1 1.0 -40.6 5.45 -42.45 8.05 -43.45 10.15 -45.55 12.15 -47.55 13.15 -49.95 14.75 -53.45 14.35 -57.25 13.85 -60.8 12.3 -63.2 10.95 -65.3 8.3 -67.1 M10.5 -55.85 Q10.5 -60.15 7.5 -63.2 4.5 -66.25 0.3 -66.25 -3.9 -66.25 -6.9 -63.2 -9.9 -60.15 -9.9 -55.85 -9.9 -51.55 -6.9 -48.5 -3.9 -45.45 0.3 -45.45 4.5 -45.45 7.5 -48.5 10.5 -51.55 10.5 -55.85 M24.15 -34.8 Q24.1 -33.8 23.4 -32.9 L23.25 -32.7 Q23.4 -33.95 22.6 -35.0 21.8 -36.1 20.2 -36.75 L23.35 -36.4 Q24.2 -35.9 24.15 -34.8 M19.9 -36.65 Q21.45 -35.55 21.7 -33.8 21.95 -32.2 21.0 -30.85 L19.9 -30.35 19.5 -30.15 19.0 -29.95 Q19.45 -31.55 18.7 -33.1 17.95 -34.6 16.25 -35.55 17.05 -34.2 17.45 -32.6 17.8 -30.9 17.45 -29.55 L13.15 -28.8 Q13.4 -30.55 12.75 -32.35 12.15 -34.1 11.05 -34.8 12.45 -31.25 11.5 -28.55 L5.95 -28.05 Q6.0 -31.75 4.65 -34.6 4.9 -31.65 4.65 -28.0 L2.15 -27.9 Q0.0 -27.8 -3.0 -27.85 -3.45 -31.65 -3.1 -34.6 -3.9 -33.35 -4.35 -31.7 -4.9 -29.8 -4.8 -27.9 L-9.0 -28.2 Q-9.6 -29.5 -9.5 -31.3 -9.4 -33.0 -8.7 -34.8 -9.85 -34.05 -10.45 -32.15 -11.1 -30.15 -10.7 -28.3 L-14.1 -28.75 Q-14.95 -30.1 -14.85 -31.95 -14.75 -33.7 -13.85 -35.55 -15.4 -34.8 -15.85 -32.8 -16.3 -30.9 -15.45 -28.95 L-18.5 -29.65 Q-19.2 -31.1 -18.9 -33.3 -18.65 -35.3 -17.75 -37.05 -15.05 -36.05 -12.25 -35.6 L-5.65 -34.85 Q7.45 -34.2 17.55 -36.2 L19.9 -36.65 M17.15 -38.4 Q7.65 -36.5 -5.55 -37.05 L-12.9 -37.45 -19.4 -38.0 -20.1 -58.55 Q-20.1 -66.6 -14.0 -72.2 -8.05 -77.7 0.05 -77.7 8.1 -77.7 14.15 -71.85 20.3 -65.85 20.3 -57.75 L19.4 -38.85 17.15 -38.4 M33.0 -34.55 Q31.25 -33.4 30.6 -31.65 30.05 -30.1 30.45 -28.3 29.85 -28.0 29.45 -27.5 28.8 -29.6 29.25 -31.4 29.75 -33.75 32.1 -35.3 L32.8 -35.6 33.15 -35.55 33.3 -35.1 33.0 -34.55 M-33.3 -35.1 L-33.15 -35.55 -32.75 -35.6 -32.1 -35.3 Q-29.75 -33.75 -29.2 -31.4 -28.8 -29.6 -29.45 -27.5 -29.85 -28.0 -30.45 -28.3 -30.05 -30.1 -30.6 -31.65 -31.2 -33.4 -33.0 -34.55 L-33.3 -35.1 M-20.2 -38.0 L-17.8 -37.05 Q-19.5 -35.9 -20.1 -34.0 -20.7 -32.05 -19.9 -30.1 L-21.2 -30.7 -21.25 -30.9 -21.25 -30.75 -21.6 -30.9 Q-22.55 -32.55 -22.25 -34.55 -21.95 -36.8 -20.2 -38.0 -22.25 -37.3 -23.15 -35.65 -24.0 -34.0 -23.45 -32.2 -24.75 -33.4 -24.9 -34.75 -25.1 -36.2 -23.8 -37.35 -22.4 -38.5 -20.5 -38.15 L-20.2 -38.0 M-1.95 -51.8 Q-1.95 -51.1 -2.45 -50.6 -2.95 -50.05 -3.65 -50.05 -4.35 -50.05 -4.85 -50.6 -5.35 -51.05 -5.35 -51.8 -5.35 -52.5 -4.85 -53.05 -4.35 -53.55 -3.65 -53.55 -2.95 -53.55 -2.45 -53.05 -1.95 -52.5 -1.95 -51.8 M-10.55 -13.0 Q-10.7 -14.4 -12.3 -14.95 -13.95 -15.55 -15.2 -14.25 L-15.55 -14.4 Q-17.4 -21.25 -18.45 -27.3 L-11.65 -26.2 -11.0 -18.8 -10.15 -12.95 -10.55 -13.0 M-6.95 -16.4 Q-4.4 -16.2 0.6 -16.25 L7.5 -16.45 7.8 -18.85 0.25 -18.3 -7.35 -18.85 -6.95 -16.4 M-6.6 -14.45 Q-4.9 -13.6 0.9 -13.7 L7.15 -14.25 7.35 -15.45 0.45 -15.1 -6.75 -15.4 -6.6 -14.45 M-7.9 -23.95 L-7.55 -20.15 0.35 -19.85 7.95 -20.2 8.3 -23.95 -0.1 -23.65 -7.9 -23.95 M-11.3 -26.1 L2.25 -25.65 11.45 -26.3 10.65 -19.25 9.6 -12.6 -0.05 -12.0 -8.85 -12.7 Q-10.05 -18.05 -11.3 -26.1 M-33.45 -26.7 Q-32.8 -27.35 -31.95 -27.35 -31.1 -27.35 -30.5 -26.7 -29.85 -26.05 -29.85 -25.2 -29.85 -24.3 -30.5 -23.65 -31.1 -23.05 -31.95 -23.05 -32.8 -23.05 -33.45 -23.65 -34.1 -24.3 -34.1 -25.2 -34.1 -26.05 -33.45 -26.7 M-24.25 -19.6 L-22.55 -21.55 -21.0 -17.9 -24.25 -19.6 -23.45 -15.2 -25.35 -18.65 -26.7 -15.2 -27.25 -19.05 -29.15 -16.7 -28.4 -20.0 -31.4 -19.8 -28.8 -21.55 -28.4 -20.0 -27.25 -19.05 -25.35 -18.65 -24.25 -19.6 M-16.95 -5.35 Q-13.95 -5.35 -12.8 -2.05 L-22.9 -2.05 Q-21.05 -5.35 -16.95 -5.35 M-37.1 -33.65 Q-36.9 -33.4 -37.0 -33.05 -37.45 -31.1 -36.8 -29.45 -36.2 -28.0 -34.85 -27.0 L-35.3 -25.85 Q-39.1 -28.3 -38.1 -32.95 -37.9 -33.85 -37.55 -33.85 L-37.1 -33.65 M37.0 -33.05 Q36.9 -33.4 37.15 -33.65 L37.55 -33.85 38.15 -32.95 Q39.1 -28.3 35.3 -25.85 L34.85 -27.0 Q36.2 -28.0 36.8 -29.45 37.45 -31.1 37.0 -33.05 M29.9 -25.2 Q29.9 -26.05 30.5 -26.7 31.1 -27.35 31.95 -27.35 32.85 -27.35 33.5 -26.7 34.1 -26.05 34.1 -25.2 34.1 -24.3 33.5 -23.65 32.85 -23.05 31.95 -23.05 31.1 -23.05 30.5 -23.65 29.9 -24.3 29.9 -25.2 M28.4 -20.0 L29.15 -16.7 27.25 -19.05 26.7 -15.2 25.4 -18.65 23.5 -15.2 24.25 -19.6 21.05 -17.9 22.55 -21.55 24.25 -19.6 25.4 -18.65 27.25 -19.05 28.4 -20.0 28.8 -21.55 31.4 -19.8 28.4 -20.0 M11.0 -13.4 Q11.55 -17.5 11.75 -26.3 15.6 -26.85 18.7 -27.55 L17.05 -19.4 15.6 -14.25 Q14.3 -15.6 12.6 -14.9 11.3 -14.4 11.0 -13.4 M23.25 -2.05 L13.15 -2.05 Q14.4 -5.35 17.4 -5.35 21.45 -5.35 23.25 -2.05" fill="#ffffff" fill-rule="evenodd" stroke="none"/>
  </g>
</svg>
