<?xml version="1.0" encoding="UTF-8" standalone="no"?>
<svg xmlns:ffdec="https://www.free-decompiler.com/flash" xmlns:xlink="http://www.w3.org/1999/xlink" ffdec:objectType="shape" height="74.05px" width="80.0px" xmlns="http://www.w3.org/2000/svg">
  <g transform="matrix(1.0, 0.0, 0.0, 1.0, 40.0, 74.05)">
    <path d="M30.3 -71.2 Q29.1 -71.85 27.7 -71.85 25.85 -71.85 24.45 -70.85 L11.4 -61.9 Q10.4 -61.15 11.1 -59.1 12.0 -56.2 13.8 -54.5 19.75 -57.75 24.45 -61.0 32.6 -66.65 32.4 -69.4 31.6 -70.55 30.3 -71.2 M24.1 -72.7 Q26.55 -74.45 29.55 -73.9 32.5 -73.35 34.25 -70.85 36.0 -68.35 35.4 -65.4 34.85 -62.4 32.4 -60.7 L19.9 -52.1 Q23.0 -44.65 23.3 -36.75 L24.25 -36.75 Q24.4 -45.65 26.15 -45.65 27.95 -45.65 28.0 -36.75 L29.3 -36.75 Q29.45 -42.8 30.9 -42.8 31.7 -42.8 32.1 -41.05 L32.45 -36.75 33.5 -36.75 Q33.85 -38.3 34.7 -39.25 35.6 -40.2 36.65 -40.2 38.05 -40.2 39.05 -38.7 40.0 -37.25 40.0 -35.2 40.0 -33.15 39.05 -31.65 38.05 -30.15 36.65 -30.15 35.6 -30.15 34.7 -31.15 33.85 -32.1 33.5 -33.6 L32.45 -33.6 Q32.4 -30.65 32.15 -29.3 31.75 -27.6 30.9 -27.6 30.0 -27.6 29.65 -29.3 29.35 -30.7 29.3 -33.6 L28.0 -33.6 Q27.95 -29.35 27.6 -27.3 27.15 -24.7 26.15 -24.7 25.05 -24.7 24.6 -27.3 24.3 -29.15 24.25 -33.6 L23.25 -33.6 Q23.15 -31.95 22.7 -30.05 L22.95 -30.1 22.7 -29.95 21.85 -26.7 Q21.35 -25.2 20.45 -23.85 24.25 -22.35 26.1 -20.3 28.5 -17.7 29.5 -13.0 30.1 -10.45 31.5 -9.1 33.05 -7.6 35.2 -8.05 36.4 -8.3 36.35 -7.65 36.35 -7.05 35.1 -6.45 L30.15 -6.6 Q27.3 -7.85 25.35 -11.1 22.7 -15.35 15.85 -18.55 L14.8 -17.65 13.65 -16.9 Q15.25 -15.15 16.0 -12.45 16.55 -10.35 16.55 -8.1 16.55 -5.1 16.9 -3.95 17.45 -2.05 19.2 -1.6 21.35 -1.0 21.55 -0.35 L18.8 -0.45 Q15.5 -1.2 13.6 -3.25 11.95 -5.0 11.3 -7.85 10.85 -9.65 9.7 -11.25 8.75 -12.65 7.0 -14.15 3.8 -13.4 0.45 -13.4 L-4.55 -13.85 -6.0 -10.35 -6.75 -8.4 Q-7.45 -5.6 -9.6 -3.7 -11.6 -1.95 -15.2 -0.65 -18.0 0.4 -18.0 -0.25 -18.0 -0.95 -16.0 -1.75 -14.1 -2.55 -13.05 -4.4 -11.9 -6.3 -12.25 -8.25 -12.6 -10.45 -12.45 -12.1 -12.25 -14.1 -11.3 -16.05 L-13.65 -17.5 -15.8 -19.3 Q-18.15 -18.25 -19.8 -16.4 -21.6 -14.5 -22.35 -12.0 -23.35 -8.6 -26.1 -6.6 -28.75 -4.7 -31.35 -5.25 -32.65 -5.55 -32.65 -5.9 -32.65 -6.2 -31.4 -6.3 -29.15 -6.35 -27.9 -8.1 -26.7 -9.75 -26.85 -12.15 -27.2 -16.9 -25.35 -20.2 -23.65 -23.3 -20.35 -24.7 -21.5 -26.65 -22.1 -28.8 -22.55 -30.65 -22.8 -33.6 L-24.2 -33.6 Q-24.25 -29.15 -24.55 -27.3 -25.0 -24.7 -26.1 -24.7 -27.1 -24.7 -27.55 -27.3 -27.95 -29.35 -28.0 -33.6 L-29.25 -33.6 Q-29.3 -30.7 -29.6 -29.3 -30.0 -27.6 -30.85 -27.6 -31.75 -27.6 -32.1 -29.3 L-32.45 -33.6 -33.45 -33.6 Q-33.8 -32.1 -34.65 -31.15 -35.55 -30.15 -36.65 -30.15 -38.0 -30.15 -39.0 -31.65 -40.0 -33.15 -40.0 -35.2 -40.0 -37.25 -39.0 -38.7 -38.0 -40.2 -36.65 -40.2 -35.55 -40.2 -34.65 -39.25 -33.8 -38.3 -33.45 -36.75 L-32.45 -36.75 Q-32.35 -39.65 -32.05 -41.05 -31.65 -42.8 -30.85 -42.8 -29.4 -42.8 -29.25 -36.75 L-28.0 -36.75 Q-27.85 -45.65 -26.1 -45.65 -24.35 -45.65 -24.2 -36.75 L-22.9 -36.75 Q-22.7 -44.3 -19.7 -51.75 L-32.65 -60.7 Q-35.1 -62.4 -35.65 -65.4 -36.2 -68.35 -34.5 -70.85 -32.75 -73.35 -29.8 -73.9 -26.8 -74.45 -24.35 -72.7 L-11.5 -63.85 Q-6.2 -68.55 0.3 -68.55 6.45 -68.55 11.65 -64.1 L24.1 -72.7 M10.1 -62.55 Q5.7 -66.05 0.3 -66.05 -5.45 -66.05 -10.2 -62.05 -9.55 -59.45 -12.15 -55.75 -14.75 -52.15 -17.45 -51.45 -20.45 -44.3 -20.6 -36.65 -19.65 -36.25 -19.6 -35.2 -19.55 -34.1 -20.5 -33.75 -20.35 -31.6 -19.85 -29.7 L-11.75 -28.6 -5.6 -28.1 -5.0 -26.6 -4.35 -25.65 0.5 -25.3 5.25 -25.5 5.9 -26.4 6.7 -28.15 12.25 -28.55 20.4 -29.6 Q20.95 -31.65 21.1 -33.65 19.55 -33.7 19.65 -35.2 19.75 -36.7 21.2 -36.75 20.95 -44.45 18.05 -51.35 15.2 -51.3 12.05 -55.5 8.9 -59.85 10.1 -62.55 M34.1 -64.95 Q34.1 -65.55 33.65 -66.0 33.2 -66.45 32.6 -66.45 31.95 -66.45 31.5 -66.0 31.05 -65.55 31.05 -64.95 31.05 -64.3 31.5 -63.85 31.95 -63.4 32.6 -63.4 33.2 -63.4 33.65 -63.85 34.1 -64.3 34.1 -64.95 M3.35 -51.55 Q5.25 -50.9 6.75 -49.4 9.4 -46.75 9.4 -43.05 9.4 -39.4 6.75 -36.75 4.2 -34.15 0.45 -34.15 L-1.9 -34.45 Q-4.1 -35.05 -5.8 -36.75 -8.45 -39.4 -8.45 -43.05 -8.45 -46.75 -5.8 -49.4 -3.25 -52.0 0.45 -52.0 L3.35 -51.55 -3.65 -42.75 2.05 -40.2 -1.9 -34.45 4.5 -40.35 -0.35 -44.2 3.35 -51.55 M5.1 -45.15 Q5.95 -45.15 6.6 -45.85 7.2 -46.5 7.2 -47.45 7.2 -48.4 6.6 -49.1 6.0 -49.75 5.1 -49.75 4.25 -49.75 3.6 -49.1 3.0 -48.4 3.0 -47.45 3.0 -46.5 3.6 -45.85 4.25 -45.15 5.1 -45.15 M-36.65 -38.05 Q-37.35 -38.05 -37.85 -37.35 -38.45 -36.5 -38.45 -35.2 -38.45 -33.75 -37.95 -32.8 -37.45 -31.85 -36.65 -31.85 -35.85 -31.85 -35.35 -32.8 -34.85 -33.75 -34.85 -35.2 -34.85 -36.5 -35.45 -37.35 -35.95 -38.05 -36.65 -38.05 M-32.3 -66.6 Q-32.95 -66.6 -33.4 -66.15 L-33.85 -65.05 Q-33.85 -64.45 -33.4 -64.0 -32.9 -63.55 -32.3 -63.55 -31.65 -63.55 -31.2 -64.0 -30.75 -64.45 -30.75 -65.05 -30.75 -65.7 -31.2 -66.15 -31.65 -66.6 -32.3 -66.6 M-32.15 -70.0 L-32.1 -69.8 Q-32.1 -67.1 -26.05 -62.7 -21.75 -59.65 -13.55 -55.25 -11.95 -57.15 -11.35 -59.1 -10.65 -61.15 -11.65 -61.9 L-24.7 -70.85 Q-26.1 -71.85 -27.95 -71.85 -30.45 -71.85 -32.15 -70.0 M9.35 -16.35 Q8.65 -15.25 8.5 -14.25 9.6 -14.95 12.25 -14.9 L11.6 -13.9 10.6 -11.75 Q11.75 -12.35 13.8 -12.4 L13.05 -11.5 11.8 -9.6 14.45 -10.1 13.7 -9.35 12.5 -7.7 14.75 -7.85 14.15 -7.15 13.3 -5.95 15.3 -5.85 15.2 -9.15 Q15.05 -12.55 12.9 -15.4 10.95 -18.05 8.35 -18.9 L7.4 -18.4 Q6.45 -17.65 6.25 -16.4 7.3 -17.05 8.75 -17.15 L10.0 -17.15 9.35 -16.35 M6.85 -25.9 L6.15 -24.8 0.6 -24.45 -5.6 -25.1 -6.45 -27.25 -11.65 -27.8 Q-16.8 -28.5 -19.75 -29.3 -18.95 -26.7 -17.55 -24.5 -16.1 -24.45 -15.05 -23.25 -13.95 -22.0 -14.2 -20.65 -12.1 -18.9 -9.55 -17.7 L-9.2 -18.25 Q-8.25 -20.05 -5.5 -19.05 -2.8 -18.05 -3.35 -16.3 L-3.5 -15.95 0.3 -15.65 4.7 -16.05 4.6 -16.1 Q3.8 -17.9 5.75 -19.15 7.8 -20.45 10.15 -18.9 L11.2 -18.25 Q12.85 -19.05 14.5 -20.45 14.6 -21.6 15.55 -22.7 16.55 -23.75 17.7 -23.9 19.45 -26.3 20.25 -29.2 L13.6 -27.8 7.35 -27.05 6.85 -25.9 M21.55 -16.9 Q21.9 -17.35 23.35 -17.9 L25.35 -18.55 24.35 -17.35 Q23.3 -16.0 23.15 -15.5 L26.8 -16.2 25.85 -15.2 24.65 -13.65 27.1 -13.7 25.75 -12.0 Q26.25 -12.05 28.4 -10.85 28.05 -11.75 27.85 -13.2 27.3 -16.9 24.8 -19.5 22.2 -22.15 18.3 -22.75 17.5 -22.5 16.95 -21.7 16.35 -20.8 16.25 -19.4 17.25 -21.05 21.0 -21.75 18.75 -19.7 18.9 -18.2 19.95 -19.25 23.45 -20.3 21.6 -18.15 21.55 -16.9 M36.65 -38.05 Q36.0 -38.05 35.5 -37.35 34.9 -36.5 34.9 -35.2 34.9 -33.75 35.4 -32.8 35.9 -31.85 36.65 -31.85 37.45 -31.85 38.0 -32.8 38.5 -33.75 38.5 -35.2 38.5 -36.5 37.9 -37.35 37.4 -38.05 36.65 -38.05 M-4.4 -37.5 Q-3.95 -37.5 -3.6 -37.85 -3.3 -38.2 -3.3 -38.7 -3.3 -39.2 -3.6 -39.55 -3.95 -39.9 -4.4 -39.9 -4.85 -39.9 -5.2 -39.55 L-5.5 -38.7 -5.2 -37.85 Q-4.85 -37.5 -4.4 -37.5 M-8.6 -15.45 L-7.45 -15.8 -4.85 -15.65 -5.95 -17.4 Q-6.9 -18.55 -8.0 -18.4 -9.4 -17.1 -10.25 -14.4 -11.15 -11.5 -10.75 -9.3 -10.4 -7.35 -10.8 -5.95 -10.95 -5.25 -11.2 -4.9 L-10.55 -4.85 -9.55 -4.65 Q-9.5 -4.95 -9.95 -5.6 L-10.4 -6.15 -9.65 -6.3 -8.35 -6.4 Q-8.6 -7.0 -9.35 -7.4 L-10.1 -7.75 -9.25 -8.0 -7.6 -8.25 Q-8.0 -8.8 -9.05 -9.4 L-10.05 -9.9 -8.85 -10.35 -6.85 -10.6 Q-7.05 -11.35 -8.35 -12.1 L-9.6 -12.7 -8.4 -12.95 -5.8 -12.7 Q-6.0 -13.4 -7.3 -14.5 L-8.6 -15.45 M-18.2 -18.75 Q-18.0 -20.55 -19.85 -22.7 L-17.9 -21.9 Q-16.5 -21.1 -16.05 -20.05 -16.15 -23.05 -17.65 -23.75 -20.95 -23.15 -23.1 -20.55 -25.4 -17.8 -25.3 -13.95 L-25.15 -12.25 -25.15 -11.5 -24.25 -11.9 -23.4 -11.95 -24.2 -13.25 -24.85 -14.0 -24.05 -14.05 -22.9 -13.9 -23.8 -15.6 -24.6 -16.75 -23.3 -16.45 -21.65 -15.9 -22.6 -17.95 -23.35 -19.3 Q-20.85 -18.3 -20.35 -17.4 -20.35 -18.8 -21.8 -21.2 L-20.0 -20.25 Q-18.7 -19.5 -18.2 -18.75" fill="#000000" fill-rule="evenodd" stroke="none"/>
    <path d="M30.3 -71.2 Q31.6 -70.55 32.4 -69.4 32.6 -66.65 24.45 -61.0 19.75 -57.75 13.8 -54.5 12.0 -56.2 11.1 -59.1 10.4 -61.15 11.4 -61.9 L24.45 -70.85 Q25.85 -71.85 27.7 -71.85 29.1 -71.85 30.3 -71.2 M34.1 -64.95 Q34.1 -64.3 33.65 -63.85 33.2 -63.4 32.6 -63.4 31.95 -63.4 31.5 -63.85 31.05 -64.3 31.05 -64.95 31.05 -65.55 31.5 -66.0 31.95 -66.45 32.6 -66.45 33.2 -66.45 33.65 -66.0 34.1 -65.55 34.1 -64.95 M10.1 -62.55 Q8.9 -59.85 12.05 -55.5 15.2 -51.3 18.05 -51.35 20.95 -44.45 21.2 -36.75 19.75 -36.7 19.65 -35.2 19.55 -33.7 21.1 -33.65 20.95 -31.65 20.4 -29.6 L12.25 -28.55 6.7 -28.15 5.9 -26.4 5.25 -25.5 0.5 -25.3 -4.35 -25.65 -5.0 -26.6 -5.6 -28.1 -11.75 -28.6 -19.85 -29.7 Q-20.35 -31.6 -20.5 -33.75 -19.55 -34.1 -19.6 -35.2 -19.65 -36.25 -20.6 -36.65 -20.45 -44.3 -17.45 -51.45 -14.75 -52.15 -12.15 -55.75 -9.55 -59.45 -10.2 -62.05 -5.45 -66.05 0.3 -66.05 5.7 -66.05 10.1 -62.55 M3.35 -51.55 L0.45 -52.0 Q-3.25 -52.0 -5.8 -49.4 -8.45 -46.75 -8.45 -43.05 -8.45 -39.4 -5.8 -36.75 -4.1 -35.05 -1.9 -34.45 L0.45 -34.15 Q4.2 -34.15 6.75 -36.75 9.4 -39.4 9.4 -43.05 9.4 -46.75 6.75 -49.4 5.25 -50.9 3.35 -51.55 L-0.35 -44.2 4.5 -40.35 -1.9 -34.45 2.05 -40.2 -3.65 -42.75 3.35 -51.55 M5.1 -45.15 Q4.25 -45.15 3.6 -45.85 3.0 -46.5 3.0 -47.45 3.0 -48.4 3.6 -49.1 4.25 -49.75 5.1 -49.75 6.0 -49.75 6.6 -49.1 7.2 -48.4 7.2 -47.45 7.2 -46.5 6.6 -45.85 5.95 -45.15 5.1 -45.15 M36.65 -38.05 Q37.4 -38.05 37.9 -37.35 38.5 -36.5 38.5 -35.2 38.5 -33.75 38.0 -32.8 37.45 -31.85 36.65 -31.85 35.9 -31.85 35.4 -32.8 34.9 -33.75 34.9 -35.2 34.9 -36.5 35.5 -37.35 36.0 -38.05 36.65 -38.05 M21.55 -16.9 Q21.6 -18.15 23.45 -20.3 19.95 -19.25 18.9 -18.2 18.75 -19.7 21.0 -21.75 17.25 -21.05 16.25 -19.4 16.35 -20.8 16.95 -21.7 17.5 -22.5 18.3 -22.75 22.2 -22.15 24.8 -19.5 27.3 -16.9 27.85 -13.2 28.05 -11.75 28.4 -10.85 26.25 -12.05 25.75 -12.0 L27.1 -13.7 24.65 -13.65 25.85 -15.2 26.8 -16.2 23.15 -15.5 Q23.3 -16.0 24.35 -17.35 L25.35 -18.55 23.35 -17.9 Q21.9 -17.35 21.55 -16.9 M6.85 -25.9 L7.35 -27.05 13.6 -27.8 20.25 -29.2 Q19.45 -26.3 17.7 -23.9 16.55 -23.75 15.55 -22.7 14.6 -21.6 14.5 -20.45 12.85 -19.05 11.2 -18.25 L10.15 -18.9 Q7.8 -20.45 5.75 -19.15 3.8 -17.9 4.6 -16.1 L4.7 -16.05 0.3 -15.65 -3.5 -15.95 -3.35 -16.3 Q-2.8 -18.05 -5.5 -19.05 -8.25 -20.05 -9.2 -18.25 L-9.55 -17.7 Q-12.1 -18.9 -14.2 -20.65 -13.95 -22.0 -15.05 -23.25 -16.1 -24.45 -17.55 -24.5 -18.95 -26.7 -19.75 -29.3 -16.8 -28.5 -11.65 -27.8 L-6.45 -27.25 -5.6 -25.1 0.6 -24.45 6.15 -24.8 6.85 -25.9 M9.35 -16.35 L10.0 -17.15 8.75 -17.15 Q7.3 -17.05 6.25 -16.4 6.45 -17.65 7.4 -18.4 L8.35 -18.9 Q10.95 -18.05 12.9 -15.4 15.05 -12.55 15.2 -9.15 L15.3 -5.85 13.3 -5.95 14.15 -7.15 14.75 -7.85 12.5 -7.7 13.7 -9.35 14.45 -10.1 11.8 -9.6 13.05 -11.5 13.8 -12.4 Q11.75 -12.35 10.6 -11.75 L11.6 -13.9 12.25 -14.9 Q9.6 -14.95 8.5 -14.25 8.65 -15.25 9.35 -16.35 M-32.15 -70.0 Q-30.45 -71.85 -27.95 -71.85 -26.1 -71.85 -24.7 -70.85 L-11.65 -61.9 Q-10.65 -61.15 -11.35 -59.1 -11.95 -57.15 -13.55 -55.25 -21.75 -59.65 -26.05 -62.7 -32.1 -67.1 -32.1 -69.8 L-32.15 -70.0 M-32.3 -66.6 Q-31.65 -66.6 -31.2 -66.15 -30.75 -65.7 -30.75 -65.05 -30.75 -64.45 -31.2 -64.0 -31.65 -63.55 -32.3 -63.55 -32.9 -63.55 -33.4 -64.0 -33.85 -64.45 -33.85 -65.05 L-33.4 -66.15 Q-32.95 -66.6 -32.3 -66.6 M-36.65 -38.05 Q-35.95 -38.05 -35.45 -37.35 -34.85 -36.5 -34.85 -35.2 -34.85 -33.75 -35.35 -32.8 -35.85 -31.85 -36.65 -31.85 -37.45 -31.85 -37.95 -32.8 -38.45 -33.75 -38.45 -35.2 -38.45 -36.5 -37.85 -37.35 -37.35 -38.05 -36.65 -38.05 M-4.4 -37.5 Q-4.85 -37.5 -5.2 -37.85 L-5.5 -38.7 -5.2 -39.55 Q-4.85 -39.9 -4.4 -39.9 -3.95 -39.9 -3.6 -39.55 -3.3 -39.2 -3.3 -38.7 -3.3 -38.2 -3.6 -37.85 -3.95 -37.5 -4.4 -37.5 M-18.2 -18.75 Q-18.7 -19.5 -20.0 -20.25 L-21.8 -21.2 Q-20.35 -18.8 -20.35 -17.4 -20.85 -18.3 -23.35 -19.3 L-22.6 -17.95 -21.65 -15.9 -23.3 -16.45 -24.6 -16.75 -23.8 -15.6 -22.9 -13.9 -24.05 -14.05 -24.85 -14.0 -24.2 -13.25 -23.4 -11.95 -24.25 -11.9 -25.15 -11.5 -25.15 -12.25 -25.3 -13.95 Q-25.4 -17.8 -23.1 -20.55 -20.95 -23.15 -17.65 -23.75 -16.15 -23.05 -16.05 -20.05 -16.5 -21.1 -17.9 -21.9 L-19.85 -22.7 Q-18.0 -20.55 -18.2 -18.75 M-8.6 -15.45 L-7.3 -14.5 Q-6.0 -13.4 -5.8 -12.7 L-8.4 -12.95 -9.6 -12.7 -8.35 -12.1 Q-7.05 -11.35 -6.85 -10.6 L-8.85 -10.35 -10.05 -9.9 -9.05 -9.4 Q-8.0 -8.8 -7.6 -8.25 L-9.25 -8.0 -10.1 -7.75 -9.35 -7.4 Q-8.6 -7.0 -8.35 -6.4 L-9.65 -6.3 -10.4 -6.15 -9.95 -5.6 Q-9.5 -4.95 -9.55 -4.65 L-10.55 -4.85 -11.2 -4.9 Q-10.95 -5.25 -10.8 -5.95 -10.4 -7.35 -10.75 -9.3 -11.15 -11.5 -10.25 -14.4 -9.4 -17.1 -8.0 -18.4 -6.9 -18.55 -5.95 -17.4 L-4.85 -15.65 -7.45 -15.8 -8.6 -15.45" fill="#ffffff" fill-rule="evenodd" stroke="none"/>
  </g>
</svg>
