<?xml version="1.0" encoding="UTF-8" standalone="no"?>
<svg xmlns:ffdec="https://www.free-decompiler.com/flash" xmlns:xlink="http://www.w3.org/1999/xlink" ffdec:objectType="shape" height="81.0px" width="80.0px" xmlns="http://www.w3.org/2000/svg">
  <g transform="matrix(1.0, 0.0, 0.0, 1.0, 40.0, 81.0)">
    <path d="M-5.35 -74.6 L0.75 -78.2 Q8.8 -71.95 16.25 -67.3 20.55 -64.6 23.95 -60.6 27.55 -56.35 28.9 -51.95 27.25 -54.3 24.2 -56.45 20.45 -57.6 17.35 -56.1 14.6 -54.75 12.85 -51.6 11.2 -48.65 10.9 -45.1 10.65 -41.5 11.9 -38.85 12.85 -36.75 14.45 -35.8 15.5 -35.15 16.65 -35.1 20.55 -34.95 24.2 -36.95 L26.25 -38.2 Q23.4 -34.8 18.2 -31.9 11.15 -28.0 2.0 -28.15 -6.55 -28.35 -14.1 -31.9 -18.0 -33.75 -20.8 -35.85 -18.35 -35.0 -15.75 -35.1 -14.6 -35.15 -13.5 -35.8 -11.9 -36.75 -10.95 -38.85 -9.75 -41.5 -10.0 -45.1 -10.3 -48.65 -11.9 -51.6 -13.7 -54.75 -16.45 -56.1 -19.55 -57.6 -23.3 -56.45 -26.5 -54.2 -28.15 -51.65 -26.85 -59.4 -17.25 -66.6 -12.45 -70.25 -5.35 -74.6 M26.25 -51.8 Q26.25 -50.55 25.4 -49.75 24.55 -48.9 23.35 -48.9 22.15 -48.9 21.3 -49.75 20.45 -50.55 20.45 -51.8 20.45 -52.95 21.3 -53.8 22.15 -54.65 23.35 -54.65 24.6 -54.65 25.4 -53.8 26.25 -52.95 26.25 -51.8 M3.65 -36.9 L3.4 -37.5 2.8 -37.75 2.2 -37.3 1.95 -36.9 Q3.65 -36.45 3.65 -36.9 M8.65 -23.75 Q4.3 -23.4 1.75 -23.9 3.65 -22.55 7.25 -21.4 L10.5 -20.55 12.65 -15.35 Q15.2 -9.85 17.15 -8.15 L14.95 -8.0 12.8 -7.95 Q10.95 -8.6 8.85 -10.1 6.05 -12.1 5.05 -14.2 4.45 -12.2 9.95 -8.15 L7.85 -8.05 5.8 -8.15 Q4.7 -8.5 4.0 -9.8 3.4 -10.95 3.25 -12.7 2.7 -11.4 3.0 -9.5 L1.65 -10.05 1.7 -15.85 Q1.55 -20.85 0.2 -22.35 0.55 -20.45 0.45 -15.8 0.35 -10.2 -0.85 -9.1 L-2.8 -8.5 -4.9 -7.95 Q-3.4 -8.55 -2.35 -10.0 -1.2 -11.55 -1.7 -12.75 -2.25 -10.75 -4.25 -9.65 -5.35 -9.05 -7.2 -8.7 L-7.7 -8.8 -8.25 -8.95 -5.4 -10.95 Q-3.6 -12.6 -4.0 -13.95 -4.95 -11.85 -7.75 -10.0 -9.8 -8.65 -11.7 -8.0 L-15.4 -8.55 Q-13.45 -10.3 -11.45 -15.4 L-9.85 -20.2 -7.15 -21.1 Q-4.0 -22.35 -1.85 -23.9 L-8.5 -23.6 Q-12.9 -23.95 -16.65 -25.2 -26.35 -28.35 -23.95 -34.1 -22.2 -31.8 -14.0 -28.75 -5.9 -25.75 0.3 -25.0 7.95 -26.0 15.75 -28.85 23.4 -31.7 25.15 -34.0 27.45 -28.45 17.15 -25.4 13.2 -24.2 8.65 -23.75 M6.55 -34.4 Q3.75 -33.45 0.4 -33.35 -3.6 -33.15 -3.3 -34.85 -5.65 -33.6 -4.65 -32.9 -3.85 -32.25 -1.1 -32.25 L3.85 -32.75 Q6.4 -33.4 6.55 -34.4 M-18.6 -48.9 Q-19.75 -48.9 -20.6 -49.75 -21.5 -50.55 -21.5 -51.8 -21.5 -52.95 -20.6 -53.8 -19.8 -54.65 -18.6 -54.65 -17.35 -54.65 -16.55 -53.8 -15.7 -52.95 -15.7 -51.8 -15.7 -50.55 -16.55 -49.75 -17.4 -48.9 -18.6 -48.9 M-1.6 -37.75 L-2.2 -37.5 -2.45 -36.9 Q-2.45 -36.45 -0.75 -36.9 -1.15 -37.75 -1.6 -37.75 M-17.05 -20.85 L-15.4 -20.2 Q-15.65 -17.7 -19.1 -14.35 -22.9 -10.6 -27.0 -10.1 -22.8 -12.5 -22.4 -14.6 -24.9 -12.7 -29.1 -10.65 L-30.8 -11.15 Q-29.7 -13.3 -27.55 -14.65 -29.3 -15.1 -32.6 -11.85 -34.8 -12.65 -36.45 -13.7 -35.3 -14.15 -34.5 -15.1 L-33.0 -17.15 Q-32.2 -18.15 -30.2 -17.9 L-26.9 -17.15 Q-25.2 -16.65 -23.0 -17.55 -20.45 -18.55 -19.0 -21.0 L-17.05 -20.85 M33.1 -17.15 L34.6 -15.1 Q35.4 -14.15 36.55 -13.7 34.85 -12.65 32.7 -11.85 29.4 -15.1 27.6 -14.65 29.8 -13.3 30.9 -11.15 L29.15 -10.65 Q24.95 -12.7 22.5 -14.6 22.85 -12.5 27.1 -10.1 23.0 -10.6 19.2 -14.35 15.75 -17.7 15.55 -20.2 L17.15 -20.85 19.15 -21.0 Q20.55 -18.55 23.1 -17.55 25.3 -16.65 27.0 -17.15 L30.3 -17.9 Q32.3 -18.15 33.1 -17.15" fill="#ffffff" fill-rule="evenodd" stroke="none"/>
    <path d="M-5.35 -74.6 Q-12.45 -70.25 -17.25 -66.6 -26.85 -59.4 -28.15 -51.65 -26.5 -54.2 -23.3 -56.45 -19.55 -57.6 -16.45 -56.1 -13.7 -54.75 -11.9 -51.6 -10.3 -48.65 -10.0 -45.1 -9.75 -41.5 -10.95 -38.85 -11.9 -36.75 -13.5 -35.8 -14.6 -35.15 -15.75 -35.1 -18.35 -35.0 -20.8 -35.85 -18.0 -33.75 -14.1 -31.9 -6.55 -28.35 2.0 -28.15 11.15 -28.0 18.2 -31.9 23.4 -34.8 26.25 -38.2 L24.2 -36.95 Q20.55 -34.95 16.65 -35.1 15.5 -35.15 14.45 -35.8 12.85 -36.75 11.9 -38.85 10.65 -41.5 10.9 -45.1 11.2 -48.65 12.85 -51.6 14.6 -54.75 17.35 -56.1 20.45 -57.6 24.2 -56.45 27.25 -54.3 28.9 -51.95 27.55 -56.35 23.95 -60.6 20.55 -64.6 16.25 -67.3 8.8 -71.95 0.75 -78.2 L-5.35 -74.6 M0.75 -81.0 L8.5 -74.85 Q13.4 -71.0 16.9 -68.8 L18.05 -70.0 Q20.1 -71.9 23.0 -70.85 25.6 -69.95 27.25 -67.4 28.25 -65.9 27.9 -63.8 27.6 -61.8 26.3 -60.55 L29.35 -55.95 Q29.5 -57.85 31.9 -59.0 33.85 -60.0 35.8 -58.6 37.6 -57.3 38.25 -55.05 38.95 -52.85 37.15 -50.95 35.3 -49.0 33.25 -50.2 L31.5 -50.1 Q32.45 -45.0 30.25 -40.45 32.85 -41.6 32.9 -42.25 32.95 -43.95 33.3 -44.65 33.9 -45.8 35.75 -46.1 37.4 -46.35 38.5 -44.85 39.55 -43.55 39.55 -41.7 39.55 -39.9 37.75 -38.9 35.95 -37.9 34.7 -39.25 33.5 -40.55 28.35 -37.5 L26.6 -35.5 Q27.6 -34.1 28.05 -32.7 L31.2 -32.4 Q32.85 -32.45 33.05 -32.8 33.6 -34.0 34.1 -34.35 34.9 -35.0 36.35 -34.6 37.6 -34.2 37.9 -32.8 38.2 -31.5 37.55 -30.2 37.0 -28.95 35.4 -28.8 33.8 -28.65 33.3 -30.1 32.95 -31.35 28.3 -30.95 28.25 -28.7 26.05 -26.9 27.0 -26.15 27.9 -25.7 28.9 -25.2 29.15 -25.35 30.05 -25.95 30.55 -26.0 31.35 -26.1 32.2 -25.25 32.95 -24.45 32.55 -23.35 32.25 -22.3 31.25 -21.65 L29.15 -21.55 Q28.0 -22.1 28.25 -23.3 28.5 -24.4 24.8 -26.05 23.2 -25.05 20.0 -23.85 20.45 -20.45 23.85 -19.4 26.65 -18.5 29.2 -19.45 32.05 -21.0 35.1 -17.95 L37.5 -15.3 Q38.9 -13.8 40.0 -13.4 36.15 -10.95 32.1 -9.5 28.4 -8.15 26.05 -8.15 19.1 -10.75 16.0 -14.7 14.4 -16.75 13.1 -21.05 L12.35 -20.55 Q12.6 -16.25 15.0 -13.0 16.65 -10.7 21.5 -6.75 L13.9 -6.3 Q5.35 -6.15 0.75 -7.9 -1.45 -6.1 -7.95 -6.05 -14.35 -6.05 -19.7 -7.6 -17.45 -8.9 -15.0 -12.4 -11.75 -16.95 -12.7 -20.55 L-13.05 -20.85 Q-14.35 -16.65 -16.0 -14.6 -19.05 -10.7 -25.95 -8.15 -28.3 -8.15 -32.0 -9.5 -36.05 -10.95 -39.9 -13.4 -38.8 -13.8 -37.35 -15.3 L-34.95 -17.95 Q-31.95 -21.0 -29.1 -19.45 -26.6 -18.5 -23.8 -19.4 -20.4 -20.45 -19.95 -23.75 -22.95 -24.9 -24.55 -26.35 -28.95 -24.5 -28.7 -23.3 -28.45 -22.1 -29.65 -21.55 L-31.75 -21.65 Q-32.7 -22.3 -33.05 -23.35 -33.4 -24.45 -32.65 -25.25 -31.8 -26.1 -31.0 -26.0 -30.5 -25.95 -29.6 -25.35 -29.25 -25.15 -27.9 -25.95 L-25.65 -27.65 Q-26.55 -28.9 -26.8 -30.7 -33.3 -31.65 -33.8 -30.1 -34.25 -28.65 -35.85 -28.8 -37.45 -28.95 -38.05 -30.2 -38.65 -31.5 -38.35 -32.8 -38.05 -34.2 -36.8 -34.6 -35.4 -35.0 -34.55 -34.35 L-33.5 -32.8 Q-33.25 -32.25 -30.55 -32.45 -27.9 -32.6 -26.75 -33.15 L-26.2 -35.8 -30.9 -38.6 Q-34.25 -40.25 -35.15 -39.25 -36.4 -37.9 -38.25 -38.9 -40.0 -39.9 -40.0 -41.7 -40.0 -43.55 -39.0 -44.85 -37.85 -46.35 -36.2 -46.1 -34.35 -45.8 -33.75 -44.65 -33.4 -43.95 -33.35 -42.25 -33.35 -41.7 -31.25 -40.7 -29.25 -39.8 -27.15 -39.3 -30.8 -44.05 -30.55 -49.35 -32.65 -50.75 -33.7 -50.2 -35.75 -49.0 -37.6 -50.95 -39.4 -52.85 -38.75 -55.05 -38.05 -57.3 -36.25 -58.6 -34.3 -60.0 -32.35 -59.0 -30.2 -57.95 -29.9 -56.3 -29.7 -55.3 -30.3 -53.2 L-30.15 -52.55 Q-29.15 -56.4 -26.3 -60.2 -27.85 -61.3 -28.35 -63.5 -28.8 -65.75 -27.75 -67.4 -26.05 -69.95 -23.45 -70.85 -20.55 -71.9 -18.5 -70.0 L-17.3 -68.65 Q-9.25 -74.65 0.75 -81.0 M3.65 -36.9 Q3.65 -36.45 1.95 -36.9 L2.2 -37.3 2.8 -37.75 3.4 -37.5 3.65 -36.9 M26.25 -51.8 Q26.25 -52.95 25.4 -53.8 24.6 -54.65 23.35 -54.65 22.15 -54.65 21.3 -53.8 20.45 -52.95 20.45 -51.8 20.45 -50.55 21.3 -49.75 22.15 -48.9 23.35 -48.9 24.55 -48.9 25.4 -49.75 26.25 -50.55 26.25 -51.8 M8.65 -23.75 Q13.2 -24.2 17.15 -25.4 27.45 -28.45 25.15 -34.0 23.4 -31.7 15.75 -28.85 7.95 -26.0 0.3 -25.0 -5.9 -25.75 -14.0 -28.75 -22.2 -31.8 -23.95 -34.1 -26.35 -28.35 -16.65 -25.2 -12.9 -23.95 -8.5 -23.6 L-1.85 -23.9 Q-4.0 -22.35 -7.15 -21.1 L-9.85 -20.2 -11.45 -15.4 Q-13.45 -10.3 -15.4 -8.55 L-11.7 -8.0 Q-9.8 -8.65 -7.75 -10.0 -4.95 -11.85 -4.0 -13.95 -3.6 -12.6 -5.4 -10.95 L-8.25 -8.95 -7.7 -8.8 -7.2 -8.7 Q-5.35 -9.05 -4.25 -9.65 -2.25 -10.75 -1.7 -12.75 -1.2 -11.55 -2.35 -10.0 -3.4 -8.55 -4.9 -7.95 L-2.8 -8.5 -0.85 -9.1 Q0.35 -10.2 0.45 -15.8 0.55 -20.45 0.2 -22.35 1.55 -20.85 1.7 -15.85 L1.65 -10.05 3.0 -9.5 Q2.7 -11.4 3.25 -12.7 3.4 -10.95 4.0 -9.8 4.7 -8.5 5.8 -8.15 L7.85 -8.05 9.95 -8.15 Q4.45 -12.2 5.05 -14.2 6.05 -12.1 8.85 -10.1 10.95 -8.6 12.8 -7.95 L14.95 -8.0 17.15 -8.15 Q15.2 -9.85 12.65 -15.35 L10.5 -20.55 7.25 -21.4 Q3.65 -22.55 1.75 -23.9 4.3 -23.4 8.65 -23.75 M-1.6 -37.75 Q-1.15 -37.75 -0.75 -36.9 -2.45 -36.45 -2.45 -36.9 L-2.2 -37.5 -1.6 -37.75 M-18.6 -48.9 Q-17.4 -48.9 -16.55 -49.75 -15.7 -50.55 -15.7 -51.8 -15.7 -52.95 -16.55 -53.8 -17.35 -54.65 -18.6 -54.65 -19.8 -54.65 -20.6 -53.8 -21.5 -52.95 -21.5 -51.8 -21.5 -50.55 -20.6 -49.75 -19.75 -48.9 -18.6 -48.9 M6.55 -34.4 Q6.4 -33.4 3.85 -32.75 L-1.1 -32.25 Q-3.85 -32.25 -4.65 -32.9 -5.65 -33.6 -3.3 -34.85 -3.6 -33.15 0.4 -33.35 3.75 -33.45 6.55 -34.4 M-17.05 -20.85 L-19.0 -21.0 Q-20.45 -18.55 -23.0 -17.55 -25.2 -16.65 -26.9 -17.15 L-30.2 -17.9 Q-32.2 -18.15 -33.0 -17.15 L-34.5 -15.1 Q-35.3 -14.15 -36.45 -13.7 -34.8 -12.65 -32.6 -11.85 -29.3 -15.1 -27.55 -14.65 -29.7 -13.3 -30.8 -11.15 L-29.1 -10.65 Q-24.9 -12.7 -22.4 -14.6 -22.8 -12.5 -27.0 -10.1 -22.9 -10.6 -19.1 -14.35 -15.65 -17.7 -15.4 -20.2 L-17.05 -20.85 M-11.25 -2.05 Q-11.25 -2.85 -7.55 -3.45 L1.3 -4.05 10.15 -3.45 Q13.85 -2.85 13.85 -2.05 13.85 -1.2 10.15 -0.6 L1.3 0.0 -7.55 -0.6 Q-11.25 -1.2 -11.25 -2.05 M33.1 -17.15 Q32.3 -18.15 30.3 -17.9 L27.0 -17.15 Q25.3 -16.65 23.1 -17.55 20.55 -18.55 19.15 -21.0 L17.15 -20.85 15.55 -20.2 Q15.75 -17.7 19.2 -14.35 23.0 -10.6 27.1 -10.1 22.85 -12.5 22.5 -14.6 24.95 -12.7 29.15 -10.65 L30.9 -11.15 Q29.8 -13.3 27.6 -14.65 29.4 -15.1 32.7 -11.85 34.85 -12.65 36.55 -13.7 35.4 -14.15 34.6 -15.1 L33.1 -17.15" fill="#000000" fill-rule="evenodd" stroke="none"/>
  </g>
</svg>
