<?xml version="1.0" encoding="UTF-8" standalone="no"?>
<svg xmlns:ffdec="https://www.free-decompiler.com/flash" xmlns:xlink="http://www.w3.org/1999/xlink" ffdec:objectType="shape" height="78.0px" width="80.0px" xmlns="http://www.w3.org/2000/svg">
  <g transform="matrix(1.0, 0.0, 0.0, 1.0, 40.0, 78.0)">
    <path d="M-21.15 -58.85 Q-19.95 -57.7 -19.95 -56.1 -19.95 -54.55 -21.15 -53.4 -22.4 -52.25 -24.05 -52.25 -25.8 -52.25 -27.0 -53.4 -28.2 -54.55 -28.2 -56.1 -28.2 -57.7 -27.0 -58.85 -25.8 -60.0 -24.05 -60.0 -22.4 -60.0 -21.15 -58.85 M-4.4 -37.65 L-5.65 -37.85 Q-7.55 -37.05 -7.1 -36.35 -6.65 -35.65 -4.5 -35.25 0.8 -34.35 6.8 -36.25 L-2.6 -35.95 Q-7.15 -36.2 -4.35 -36.9 -3.95 -37.3 -4.4 -37.65 M-25.15 -72.15 Q-15.25 -76.1 -1.7 -76.4 12.1 -76.7 22.55 -73.05 34.15 -69.05 37.05 -61.45 32.25 -65.0 26.4 -63.15 21.2 -61.55 16.95 -56.45 12.85 -51.5 12.0 -46.25 11.05 -40.5 14.65 -37.45 12.5 -35.9 9.65 -34.8 5.15 -33.15 0.05 -33.25 -5.1 -33.1 -9.6 -34.55 -13.0 -35.65 -14.9 -37.2 -11.05 -40.25 -11.95 -46.05 -12.75 -51.45 -16.95 -56.5 -21.3 -61.65 -26.6 -63.2 -32.6 -65.0 -37.5 -61.1 -35.95 -67.9 -25.15 -72.15 M-33.45 -64.5 Q-28.2 -65.4 -23.3 -62.95 -19.0 -60.8 -15.65 -56.5 -12.6 -52.5 -11.3 -47.95 -9.95 -43.4 -10.85 -40.15 -9.25 -42.65 -10.4 -47.35 -11.5 -51.95 -14.65 -56.3 -18.15 -61.0 -22.7 -63.3 -27.95 -65.9 -33.45 -64.5 M-25.5 -23.05 L-27.55 -23.25 Q-28.55 -23.5 -29.6 -24.2 -30.65 -25.05 -31.25 -26.25 L-31.65 -28.05 Q-31.7 -29.1 -31.35 -30.0 -30.75 -31.7 -29.1 -32.65 L-27.7 -33.25 -26.15 -33.3 Q-24.25 -33.1 -23.05 -31.85 -22.35 -31.15 -21.95 -30.2 -21.6 -29.3 -21.6 -28.35 -21.6 -26.9 -22.25 -25.85 -22.9 -24.75 -23.65 -24.1 L-25.5 -23.05 M8.85 -15.6 Q10.15 -16.2 10.55 -17.55 11.75 -17.25 12.45 -16.4 13.0 -15.7 13.1 -14.8 13.2 -13.65 12.55 -12.75 11.8 -11.7 10.25 -11.4 L6.85 -11.05 Q3.95 -11.05 1.55 -11.85 4.2 -13.4 5.2 -15.6 7.25 -14.85 8.85 -15.6 M11.7 -23.7 L13.6 -24.2 15.1 -22.4 20.2 -20.7 21.35 -21.45 Q22.55 -22.15 22.95 -22.0 23.6 -21.85 22.4 -21.1 L23.8 -21.05 Q25.3 -20.8 25.7 -19.95 26.15 -19.05 20.55 -19.05 L13.9 -21.3 11.7 -23.7 M6.85 -18.65 L7.95 -18.55 Q9.0 -18.35 8.95 -17.65 L9.0 -17.65 8.9 -17.55 8.75 -17.15 Q7.95 -15.75 6.3 -15.8 L4.7 -16.15 2.25 -17.9 6.85 -18.65 M5.75 -28.45 Q7.6 -30.7 8.25 -32.55 L13.85 -26.85 8.1 -23.6 7.6 -23.25 7.65 -22.15 Q4.15 -23.65 1.9 -25.05 3.75 -25.9 5.75 -28.45 M34.65 -60.0 Q36.35 -60.0 37.55 -58.85 38.75 -57.7 38.75 -56.1 38.75 -54.55 37.55 -53.4 36.35 -52.25 34.65 -52.25 32.9 -52.25 31.7 -53.4 30.5 -54.55 30.5 -56.1 30.5 -57.7 31.7 -58.85 32.9 -60.0 34.65 -60.0 M33.55 -64.5 Q28.05 -65.9 22.8 -63.3 18.25 -61.0 14.75 -56.3 11.6 -51.95 10.5 -47.35 9.35 -42.65 10.95 -40.15 10.05 -43.4 11.35 -47.95 12.7 -52.5 15.75 -56.5 19.1 -60.8 23.4 -62.95 28.25 -65.4 33.55 -64.5 M-3.25 -17.8 L-5.9 -18.05 -6.5 -18.45 -5.65 -18.8 -3.25 -18.9 -0.2 -18.2 -3.25 -17.8 M-12.8 -14.8 Q-12.7 -15.95 -11.8 -16.75 -10.7 -17.7 -8.85 -17.7 L-8.35 -17.7 Q-6.45 -16.75 -3.65 -16.75 -1.1 -16.75 1.7 -17.45 L3.95 -15.65 Q2.65 -13.35 -0.55 -12.1 -3.2 -11.05 -6.55 -11.05 L-9.95 -11.4 Q-11.5 -11.7 -12.25 -12.75 -12.9 -13.65 -12.8 -14.8 M-2.95 -29.35 L-4.1 -31.8 Q0.3 -31.25 4.7 -31.9 4.25 -30.85 2.8 -29.1 L0.4 -26.55 0.05 -26.35 Q-1.65 -27.65 -2.95 -29.35 M-7.65 -32.15 Q-7.1 -29.3 -2.95 -25.9 -0.05 -23.6 3.9 -21.45 L-7.15 -21.5 -7.15 -23.0 -7.55 -23.3 -13.55 -27.0 -7.65 -32.15 M-21.95 -21.1 L-22.5 -21.5 Q-22.9 -21.9 -22.5 -22.0 -22.1 -22.15 -20.9 -21.45 L-19.8 -20.7 -14.65 -22.4 -13.15 -24.2 -11.3 -23.7 -13.45 -21.3 -20.1 -19.05 Q-25.7 -19.05 -25.25 -19.95 -24.85 -20.8 -23.35 -21.05 L-21.95 -21.1 M25.9 -23.05 L24.1 -24.1 Q23.35 -24.75 22.7 -25.85 22.05 -27.05 22.05 -28.35 22.1 -30.45 23.5 -31.85 24.7 -33.1 26.6 -33.3 L28.15 -33.25 29.6 -32.65 Q31.25 -31.7 31.8 -30.0 32.15 -29.1 32.1 -28.05 L31.7 -26.25 Q31.1 -24.95 30.05 -24.2 28.95 -23.5 28.05 -23.25 L25.9 -23.05 M2.1 -61.95 L-5.0 -53.65 0.8 -51.2 -3.25 -45.75 3.25 -51.35 -1.65 -55.0 2.1 -61.95" fill="#ffffff" fill-rule="evenodd" stroke="none"/>
    <path d="M-33.45 -64.5 Q-27.95 -65.9 -22.7 -63.3 -18.15 -61.0 -14.65 -56.3 -11.5 -51.95 -10.4 -47.35 -9.25 -42.65 -10.85 -40.15 -9.95 -43.4 -11.3 -47.95 -12.6 -52.5 -15.65 -56.5 -19.0 -60.8 -23.3 -62.95 -28.2 -65.4 -33.45 -64.5 M-25.15 -72.15 Q-35.95 -67.9 -37.5 -61.1 -32.6 -65.0 -26.6 -63.2 -21.3 -61.65 -16.95 -56.5 -12.75 -51.45 -11.95 -46.05 -11.05 -40.25 -14.9 -37.2 -13.0 -35.65 -9.6 -34.55 -5.1 -33.1 0.05 -33.25 5.15 -33.15 9.65 -34.8 12.5 -35.9 14.65 -37.45 11.05 -40.5 12.0 -46.25 12.85 -51.5 16.95 -56.45 21.2 -61.55 26.4 -63.15 32.25 -65.0 37.05 -61.45 34.15 -69.05 22.55 -73.05 12.1 -76.7 -1.7 -76.4 -15.25 -76.1 -25.15 -72.15 M-4.4 -37.65 Q-3.95 -37.3 -4.35 -36.9 -7.15 -36.2 -2.6 -35.95 L6.8 -36.25 Q0.8 -34.35 -4.5 -35.25 -6.65 -35.65 -7.1 -36.35 -7.55 -37.05 -5.65 -37.85 L-4.4 -37.65 M-21.15 -58.85 Q-22.4 -60.0 -24.05 -60.0 -25.8 -60.0 -27.0 -58.85 -28.2 -57.7 -28.2 -56.1 -28.2 -54.55 -27.0 -53.4 -25.8 -52.25 -24.05 -52.25 -22.4 -52.25 -21.15 -53.4 -19.95 -54.55 -19.95 -56.1 -19.95 -57.7 -21.15 -58.85 M-39.4 -50.25 Q-40.6 -54.3 -39.45 -57.8 -39.55 -59.6 -39.25 -61.3 -37.7 -69.1 -26.0 -73.7 -15.3 -77.95 -0.6 -78.0 14.15 -78.05 25.05 -73.9 37.1 -69.3 39.15 -61.3 39.65 -59.45 39.55 -57.45 40.55 -53.95 39.35 -50.0 38.05 -46.0 34.95 -42.75 27.55 -35.15 16.0 -36.45 L15.65 -36.7 Q13.2 -34.35 9.25 -33.0 L15.7 -26.7 14.05 -25.75 16.05 -23.25 17.6 -22.5 Q19.35 -21.7 20.1 -21.45 21.65 -22.7 23.35 -22.75 25.0 -22.75 23.7 -21.65 L25.55 -21.2 26.45 -20.35 Q27.6 -18.45 24.05 -18.0 L20.2 -17.95 13.2 -20.55 10.35 -23.65 8.55 -22.6 8.6 -21.35 9.3 -21.35 9.55 -19.5 10.45 -19.05 10.6 -18.7 Q14.45 -17.9 15.05 -14.45 15.3 -12.95 14.5 -11.8 13.65 -10.55 11.85 -10.15 L6.45 -9.9 Q3.0 -10.15 0.25 -11.2 -2.4 -10.05 -5.85 -9.7 L-11.3 -9.9 Q-13.3 -10.35 -14.15 -11.8 -14.95 -13.15 -14.5 -14.85 -14.1 -16.5 -12.6 -17.65 -11.0 -18.85 -8.75 -18.85 L-8.4 -21.55 -8.0 -21.5 -8.0 -22.35 -10.0 -23.6 -12.8 -20.55 -19.8 -17.95 Q-21.8 -17.8 -23.6 -18.0 -27.15 -18.45 -26.0 -20.35 L-25.1 -21.2 -23.3 -21.65 Q-24.55 -22.75 -22.9 -22.75 -21.2 -22.7 -19.65 -21.45 L-15.55 -23.25 -13.55 -25.8 -15.2 -26.85 -8.45 -32.7 Q-13.1 -34.05 -15.9 -36.55 L-16.0 -36.45 Q-27.65 -35.15 -35.1 -42.95 -38.2 -46.25 -39.4 -50.25 M-25.5 -23.05 L-23.65 -24.1 Q-22.9 -24.75 -22.25 -25.85 -21.6 -26.9 -21.6 -28.35 -21.6 -29.3 -21.95 -30.2 -22.35 -31.15 -23.05 -31.85 -24.25 -33.1 -26.15 -33.3 L-27.7 -33.25 -29.1 -32.65 Q-30.75 -31.7 -31.35 -30.0 -31.7 -29.1 -31.65 -28.05 L-31.25 -26.25 Q-30.65 -25.05 -29.6 -24.2 -28.55 -23.5 -27.55 -23.25 L-25.5 -23.05 -27.65 -22.8 Q-28.8 -22.95 -29.95 -23.75 -31.15 -24.6 -31.8 -26.0 -32.2 -26.95 -32.25 -28.05 -32.3 -29.2 -31.9 -30.25 -31.25 -32.05 -29.5 -33.1 L-27.8 -33.8 -26.0 -33.85 Q-24.0 -33.65 -22.65 -32.25 -21.85 -31.5 -21.4 -30.4 -21.0 -29.4 -21.0 -28.35 -21.0 -26.75 -21.75 -25.55 -22.45 -24.35 -23.4 -23.75 -24.25 -23.25 -25.5 -23.05 M-21.95 -21.1 L-23.35 -21.05 Q-24.85 -20.8 -25.25 -19.95 -25.7 -19.05 -20.1 -19.05 L-13.45 -21.3 -11.3 -23.7 -13.15 -24.2 -14.65 -22.4 -19.8 -20.7 -20.9 -21.45 Q-22.1 -22.15 -22.5 -22.0 -22.9 -21.9 -22.5 -21.5 L-21.95 -21.1 M-7.65 -32.15 L-13.55 -27.0 -7.55 -23.3 -7.15 -23.0 -7.15 -21.5 3.9 -21.45 Q-0.05 -23.6 -2.95 -25.9 -7.1 -29.3 -7.65 -32.15 M-2.95 -29.35 Q-1.65 -27.65 0.05 -26.35 L0.4 -26.55 2.8 -29.1 Q4.25 -30.85 4.7 -31.9 0.3 -31.25 -4.1 -31.8 L-2.95 -29.35 M-12.8 -14.8 Q-12.9 -13.65 -12.25 -12.75 -11.5 -11.7 -9.95 -11.4 L-6.55 -11.05 Q-3.2 -11.05 -0.55 -12.1 2.65 -13.35 3.95 -15.65 L1.7 -17.45 Q-1.1 -16.75 -3.65 -16.75 -6.45 -16.75 -8.35 -17.7 L-8.85 -17.7 Q-10.7 -17.7 -11.8 -16.75 -12.7 -15.95 -12.8 -14.8 M-3.25 -17.8 L-0.2 -18.2 -3.25 -18.9 -5.65 -18.8 -6.5 -18.45 -5.9 -18.05 -3.25 -17.8 M33.55 -64.5 Q28.25 -65.4 23.4 -62.95 19.1 -60.8 15.75 -56.5 12.7 -52.5 11.35 -47.95 10.05 -43.4 10.95 -40.15 9.35 -42.65 10.5 -47.35 11.6 -51.95 14.75 -56.3 18.25 -61.0 22.8 -63.3 28.05 -65.9 33.55 -64.5 M34.65 -60.0 Q32.9 -60.0 31.7 -58.85 30.5 -57.7 30.5 -56.1 30.5 -54.55 31.7 -53.4 32.9 -52.25 34.65 -52.25 36.35 -52.25 37.55 -53.4 38.75 -54.55 38.75 -56.1 38.75 -57.7 37.55 -58.85 36.35 -60.0 34.65 -60.0 M5.75 -28.45 Q3.75 -25.9 1.9 -25.05 4.15 -23.65 7.65 -22.15 L7.6 -23.25 8.1 -23.6 13.85 -26.85 8.25 -32.55 Q7.6 -30.7 5.75 -28.45 M6.85 -18.65 L2.25 -17.9 4.7 -16.15 6.3 -15.8 Q7.95 -15.75 8.75 -17.15 L8.9 -17.55 9.0 -17.65 8.95 -17.65 Q9.0 -18.35 7.95 -18.55 L6.85 -18.65 M11.7 -23.7 L13.9 -21.3 20.55 -19.05 Q26.15 -19.05 25.7 -19.95 25.3 -20.8 23.8 -21.05 L22.4 -21.1 Q23.6 -21.85 22.95 -22.0 22.55 -22.15 21.35 -21.45 L20.2 -20.7 15.1 -22.4 13.6 -24.2 11.7 -23.7 M8.85 -15.6 Q7.25 -14.85 5.2 -15.6 4.2 -13.4 1.55 -11.85 3.95 -11.05 6.85 -11.05 L10.25 -11.4 Q11.8 -11.7 12.55 -12.75 13.2 -13.65 13.1 -14.8 13.0 -15.7 12.45 -16.4 11.75 -17.25 10.55 -17.55 10.15 -16.2 8.85 -15.6 M25.9 -23.05 Q24.7 -23.25 23.85 -23.75 22.9 -24.35 22.15 -25.55 21.45 -26.75 21.45 -28.35 21.45 -29.35 21.85 -30.4 22.3 -31.5 23.05 -32.25 24.45 -33.65 26.45 -33.85 L28.25 -33.8 30.0 -33.1 Q31.7 -32.05 32.35 -30.25 L32.7 -28.05 Q32.65 -26.95 32.2 -26.0 31.55 -24.55 30.4 -23.75 29.25 -22.95 28.15 -22.8 L25.9 -23.05 28.05 -23.25 Q28.95 -23.5 30.05 -24.2 31.1 -24.95 31.7 -26.25 L32.1 -28.05 Q32.15 -29.1 31.8 -30.0 31.25 -31.7 29.6 -32.65 L28.15 -33.25 26.6 -33.3 Q24.7 -33.1 23.5 -31.85 22.1 -30.45 22.05 -28.35 22.05 -27.05 22.7 -25.85 23.35 -24.75 24.1 -24.1 L25.9 -23.05 M2.1 -61.95 L-1.65 -55.0 3.25 -51.35 -3.25 -45.75 0.8 -51.2 -5.0 -53.65 2.1 -61.95 M13.3 -2.05 Q13.3 -1.2 9.45 -0.6 L0.2 0.0 -9.05 -0.6 Q-12.9 -1.2 -12.9 -2.05 -12.9 -2.9 -9.05 -3.5 L0.2 -4.15 9.45 -3.5 Q13.3 -2.9 13.3 -2.05" fill="#000000" fill-rule="evenodd" stroke="none"/>
  </g>
</svg>
