<?xml version="1.0" encoding="UTF-8" standalone="no"?>
<svg xmlns:ffdec="https://www.free-decompiler.com/flash" xmlns:xlink="http://www.w3.org/1999/xlink" ffdec:objectType="shape" height="79.75px" width="80.0px" xmlns="http://www.w3.org/2000/svg">
  <g transform="matrix(1.0, 0.0, 0.0, 1.0, 40.0, 79.75)">
    <path d="M38.4 -40.5 Q40.0 -38.75 40.0 -36.3 40.0 -33.7 38.15 -31.85 36.3 -30.0 33.7 -30.0 31.9 -30.0 30.35 -30.9 28.9 -31.85 28.05 -33.35 22.35 -27.3 15.0 -23.95 L11.7 -22.8 18.2 -21.3 24.2 -20.6 Q30.5 -20.7 34.5 -26.95 33.0 -17.8 23.9 -15.75 17.9 -14.4 9.6 -16.2 15.3 -14.4 15.8 -12.3 16.5 -9.35 5.35 -6.35 L7.0 -7.65 Q9.4 -9.4 10.2 -10.45 13.05 -14.1 -1.35 -10.75 -3.25 -10.3 -5.75 -9.1 L-10.35 -6.9 Q-16.7 -3.95 -23.35 -3.4 -16.3 -5.75 -10.9 -11.05 -8.6 -13.3 -8.4 -14.65 -8.1 -16.2 -10.5 -16.05 -12.55 -15.95 -15.75 -14.35 -19.5 -12.3 -21.6 -11.35 -29.45 -7.85 -36.15 -11.3 -30.05 -10.05 -23.6 -14.8 L-18.3 -19.05 Q-15.05 -21.55 -12.6 -22.7 -19.7 -24.25 -24.9 -27.35 -30.7 -30.9 -33.4 -36.05 -27.55 -29.85 -18.8 -28.0 L-14.35 -27.65 Q-13.0 -28.0 -15.05 -28.85 -24.55 -32.75 -31.15 -38.8 -40.0 -46.95 -38.95 -55.7 -37.65 -65.95 -29.15 -72.25 -19.55 -79.4 -2.65 -79.75 6.75 -80.0 17.3 -77.5 27.45 -75.05 30.25 -72.25 19.65 -73.8 15.95 -73.25 12.6 -72.7 16.3 -70.85 18.75 -69.55 22.35 -68.05 25.6 -66.5 29.5 -63.55 34.95 -59.45 36.05 -53.65 37.05 -48.5 34.4 -42.6 36.8 -42.3 38.4 -40.5 M37.2 -39.85 Q35.75 -41.3 33.7 -41.3 31.6 -41.3 30.15 -39.85 28.65 -38.4 28.65 -36.3 28.65 -34.25 30.15 -32.8 31.6 -31.35 33.7 -31.35 35.75 -31.35 37.2 -32.8 38.65 -34.25 38.65 -36.3 38.65 -38.4 37.2 -39.85 M7.55 -69.9 Q6.75 -69.65 6.65 -69.05 6.5 -68.45 7.1 -67.85 7.7 -67.3 8.65 -67.1 L10.4 -67.2 Q11.2 -67.5 11.3 -68.1 11.45 -68.7 10.85 -69.25 10.25 -69.8 9.25 -70.0 L7.55 -69.9 M-2.05 -74.25 Q-1.85 -75.25 -2.9 -76.15 -4.0 -77.05 -5.7 -77.4 L-8.75 -77.35 Q-10.1 -76.9 -10.3 -76.0 -10.45 -75.05 -9.4 -74.1 -8.35 -73.2 -6.65 -72.85 L-3.55 -72.9 Q-2.25 -73.35 -2.05 -74.25 M-1.7 -64.05 Q-10.45 -62.2 -9.5 -64.0 -8.6 -65.75 -1.35 -68.3 -9.5 -68.35 -15.15 -64.65 -20.2 -61.35 -22.25 -55.85 -24.15 -50.65 -22.85 -45.45 -21.45 -40.1 -17.25 -37.1 -8.05 -30.55 0.45 -30.3 9.85 -30.05 17.45 -37.75 20.35 -40.75 20.15 -45.8 19.95 -50.65 17.1 -55.25 14.1 -60.15 9.45 -62.55 4.2 -65.3 -1.7 -64.05 M-35.35 -21.25 Q-36.85 -21.25 -37.9 -20.2 -39.0 -19.1 -39.0 -17.6 -39.0 -16.1 -37.9 -15.05 -36.85 -13.95 -35.35 -13.95 -33.8 -13.95 -32.75 -15.05 -31.7 -16.1 -31.7 -17.6 -31.7 -19.1 -32.75 -20.2 -33.8 -21.25 -35.35 -21.25 M-35.35 -22.3 Q-33.4 -22.3 -32.05 -20.9 -30.65 -19.55 -30.65 -17.6 -30.65 -15.7 -32.05 -14.3 -33.4 -12.95 -35.35 -12.95 -37.25 -12.95 -38.65 -14.3 -40.0 -15.7 -40.0 -17.6 -40.0 -19.55 -38.65 -20.9 -37.25 -22.3 -35.35 -22.3 M-8.9 -23.9 L-9.2 -22.65 Q-9.2 -21.55 -8.4 -20.7 -7.6 -19.9 -6.45 -19.9 -5.35 -19.9 -4.5 -20.7 -3.7 -21.55 -3.7 -22.65 -3.7 -23.45 -4.25 -24.25 -5.05 -25.4 -6.45 -25.4 L-7.9 -25.0 -8.9 -23.9 M-19.8 -35.8 Q-27.8 -41.8 -29.3 -48.1 -30.45 -52.9 -27.8 -57.1 -34.45 -53.6 -31.55 -46.85 -28.8 -40.4 -19.8 -35.8 M24.85 -46.25 Q24.5 -42.85 22.45 -40.3 30.2 -48.0 26.7 -55.0 23.3 -61.85 11.8 -63.45 20.5 -60.45 23.65 -52.95 25.1 -49.6 24.85 -46.25 M18.6 -32.3 Q18.1 -32.0 18.0 -31.5 17.9 -30.95 18.25 -30.55 18.6 -30.05 19.2 -29.95 L20.3 -30.1 Q20.8 -30.35 20.9 -30.9 L20.65 -31.85 19.7 -32.45 18.6 -32.3 M4.3 -33.6 Q1.05 -32.6 -2.05 -32.55 -5.4 -32.5 -6.3 -33.7 -7.35 -35.05 -4.55 -37.7 -5.15 -34.9 0.4 -34.7 5.7 -34.5 8.85 -36.25 7.7 -34.7 4.3 -33.6 M3.1 -23.1 L2.35 -23.4 1.55 -23.1 Q1.25 -22.75 1.25 -22.3 1.25 -21.8 1.55 -21.5 1.85 -21.2 2.35 -21.2 2.8 -21.2 3.1 -21.5 3.45 -21.8 3.45 -22.3 L3.1 -23.1 M-1.65 -14.45 Q-1.2 -14.05 -0.6 -14.05 0.0 -14.05 0.4 -14.45 0.85 -14.9 0.85 -15.5 L0.4 -16.55 Q0.0 -16.95 -0.6 -16.95 -1.2 -16.95 -1.65 -16.55 -2.05 -16.1 -2.05 -15.5 -2.05 -14.9 -1.65 -14.45 M6.85 -0.65 L-1.75 0.0 -10.4 -0.65 Q-13.95 -1.3 -13.95 -2.25 -13.95 -3.2 -10.4 -3.8 L-1.75 -4.5 6.85 -3.8 Q10.4 -3.2 10.4 -2.25 10.4 -1.3 6.85 -0.65" fill="#000000" fill-rule="evenodd" stroke="none"/>
    <path d="M-35.35 -21.25 Q-33.8 -21.25 -32.75 -20.2 -31.7 -19.1 -31.7 -17.6 -31.7 -16.1 -32.75 -15.05 -33.8 -13.95 -35.35 -13.95 -36.85 -13.95 -37.9 -15.05 -39.0 -16.1 -39.0 -17.6 -39.0 -19.1 -37.9 -20.2 -36.85 -21.25 -35.35 -21.25 M-1.7 -64.05 Q4.2 -65.3 9.45 -62.55 14.1 -60.15 17.1 -55.25 19.95 -50.65 20.15 -45.8 20.35 -40.75 17.45 -37.75 9.85 -30.05 0.45 -30.3 -8.05 -30.55 -17.25 -37.1 -21.45 -40.1 -22.85 -45.45 -24.15 -50.65 -22.25 -55.85 -20.2 -61.35 -15.15 -64.65 -9.5 -68.35 -1.35 -68.3 -8.6 -65.75 -9.5 -64.0 -10.45 -62.2 -1.7 -64.05 M-2.05 -74.25 Q-2.25 -73.35 -3.55 -72.9 L-6.65 -72.85 Q-8.35 -73.2 -9.4 -74.1 -10.45 -75.05 -10.3 -76.0 -10.1 -76.9 -8.75 -77.35 L-5.7 -77.4 Q-4.0 -77.05 -2.9 -76.15 -1.85 -75.25 -2.05 -74.25 M7.55 -69.9 L9.25 -70.0 Q10.25 -69.8 10.85 -69.25 11.45 -68.7 11.3 -68.1 11.2 -67.5 10.4 -67.2 L8.65 -67.1 Q7.7 -67.3 7.1 -67.85 6.5 -68.45 6.65 -69.05 6.75 -69.65 7.55 -69.9 M37.2 -39.85 Q38.65 -38.4 38.65 -36.3 38.65 -34.25 37.2 -32.8 35.75 -31.35 33.7 -31.35 31.6 -31.35 30.15 -32.8 28.65 -34.25 28.65 -36.3 28.65 -38.4 30.15 -39.85 31.6 -41.3 33.7 -41.3 35.75 -41.3 37.2 -39.85 M-1.65 -14.45 Q-2.05 -14.9 -2.05 -15.5 -2.05 -16.1 -1.65 -16.55 -1.2 -16.95 -0.6 -16.95 0.0 -16.95 0.4 -16.55 L0.85 -15.5 Q0.85 -14.9 0.4 -14.45 0.0 -14.05 -0.6 -14.05 -1.2 -14.05 -1.65 -14.45 M3.1 -23.1 L3.45 -22.3 Q3.45 -21.8 3.1 -21.5 2.8 -21.2 2.35 -21.2 1.85 -21.2 1.55 -21.5 1.25 -21.8 1.25 -22.3 1.25 -22.75 1.55 -23.1 L2.35 -23.4 3.1 -23.1 M4.3 -33.6 Q7.7 -34.7 8.85 -36.25 5.7 -34.5 0.4 -34.7 -5.15 -34.9 -4.55 -37.7 -7.35 -35.05 -6.3 -33.7 -5.4 -32.5 -2.05 -32.55 1.05 -32.6 4.3 -33.6 M18.6 -32.3 L19.7 -32.45 20.65 -31.85 20.9 -30.9 Q20.8 -30.35 20.3 -30.1 L19.2 -29.95 Q18.6 -30.05 18.25 -30.55 17.9 -30.95 18.0 -31.5 18.1 -32.0 18.6 -32.3 M24.85 -46.25 Q25.1 -49.6 23.65 -52.95 20.5 -60.45 11.8 -63.45 23.3 -61.85 26.7 -55.0 30.2 -48.0 22.45 -40.3 24.5 -42.85 24.85 -46.25 M-19.8 -35.8 Q-28.8 -40.4 -31.55 -46.85 -34.45 -53.6 -27.8 -57.1 -30.45 -52.9 -29.3 -48.1 -27.8 -41.8 -19.8 -35.8 M-8.9 -23.9 L-7.9 -25.0 -6.45 -25.4 Q-5.05 -25.4 -4.25 -24.25 -3.7 -23.45 -3.7 -22.65 -3.7 -21.55 -4.5 -20.7 -5.35 -19.9 -6.45 -19.9 -7.6 -19.9 -8.4 -20.7 -9.2 -21.55 -9.2 -22.65 L-8.9 -23.9" fill="#ffffff" fill-rule="evenodd" stroke="none"/>
  </g>
</svg>
