<?xml version="1.0" encoding="UTF-8" standalone="no"?>
<svg xmlns:ffdec="https://www.free-decompiler.com/flash" xmlns:xlink="http://www.w3.org/1999/xlink" ffdec:objectType="shape" height="72.5px" width="66.9px" xmlns="http://www.w3.org/2000/svg">
  <g transform="matrix(1.0, 0.0, 0.0, 1.0, 33.45, 36.25)">
    <path d="M1.65 -33.7 L1.45 -33.9 1.3 -34.05 1.2 -34.2 Q5.6 -33.95 9.75 -32.55 L9.5 -32.45 9.15 -32.2 Q8.9 -31.95 8.95 -31.6 8.95 -31.35 9.45 -30.95 L8.95 -30.35 6.15 -30.55 Q5.1 -30.55 4.35 -30.05 L2.85 -29.1 2.8 -29.1 2.75 -29.05 2.05 -29.4 Q3.1 -30.15 2.4 -31.15 2.9 -31.8 2.45 -32.6 L2.45 -32.7 2.4 -32.7 1.85 -33.45 1.65 -33.7" fill="url(#gradient0)" fill-rule="evenodd" stroke="none"/>
    <path d="M9.5 -32.45 L9.75 -32.55 Q5.6 -33.95 1.2 -34.2 L1.3 -34.05 1.45 -33.9 1.65 -33.7 1.05 -33.75 1.25 -33.85 0.0 -33.75 -4.25 -33.45 -4.15 -33.55 -4.5 -33.95 -9.1 -33.05 -9.25 -32.5 -9.3 -32.4 -9.45 -31.75 Q-9.7 -30.95 -10.25 -30.55 L-10.85 -30.45 -11.05 -31.85 -11.05 -31.95 -11.05 -32.4 -11.05 -32.45 Q-18.85 -29.85 -24.45 -23.7 L-24.45 -23.1 Q-24.55 -21.9 -25.15 -21.0 L-26.3 -19.2 -26.9 -17.55 -26.9 -18.7 Q-26.8 -19.8 -26.3 -20.7 L-25.85 -21.35 -25.4 -22.05 -25.15 -22.55 Q-24.85 -22.9 -24.7 -23.35 L-25.45 -22.6 -25.8 -22.2 -25.85 -21.55 Q-33.0 -13.0 -33.45 -1.5 L-33.45 -2.75 Q-33.45 -16.6 -23.65 -26.45 -13.85 -36.25 0.0 -36.25 13.85 -36.25 23.65 -26.45 33.45 -16.6 33.45 -2.75 L33.45 -1.5 Q33.15 -10.65 28.5 -17.9 L29.95 -14.65 Q30.9 -12.05 31.4 -9.25 L30.95 -9.95 30.55 -11.3 30.45 -11.8 30.4 -11.9 Q28.5 -17.9 24.5 -22.6 L24.2 -22.95 24.0 -23.2 23.6 -23.65 21.85 -25.3 21.6 -25.6 21.1 -26.05 20.95 -26.3 20.55 -26.7 20.4 -26.65 18.7 -28.0 18.8 -28.0 Q14.45 -31.0 9.5 -32.45 M15.35 -25.0 L14.4 -26.8 Q15.75 -26.5 16.05 -25.8 L15.6 -25.5 16.55 -24.45 17.2 -23.3 16.4 -23.1 15.6 -24.05 16.05 -24.35 15.35 -25.0 M21.45 -23.8 L22.0 -23.05 21.35 -23.0 Q21.85 -21.8 20.75 -21.8 19.7 -21.75 18.95 -22.45 L16.7 -20.8 16.3 -21.6 17.2 -21.8 16.95 -22.4 18.95 -24.0 19.7 -23.5 Q19.85 -22.9 20.3 -22.45 20.7 -22.8 20.55 -23.25 21.45 -23.15 21.45 -23.8 M16.45 -19.95 Q17.05 -19.0 16.35 -18.4 15.8 -17.8 14.0 -18.8 L13.85 -20.35 Q15.8 -19.3 16.35 -19.85 L16.45 -19.95 M27.1 -12.6 Q27.7 -11.25 26.65 -10.8 26.0 -10.6 25.3 -11.3 L24.1 -12.4 22.9 -11.15 22.8 -11.1 22.75 -11.1 22.7 -11.15 22.6 -11.2 22.2 -11.5 21.2 -12.3 21.15 -12.3 21.1 -12.45 Q20.6 -13.1 20.65 -14.45 L19.15 -14.6 17.7 -14.35 14.85 -13.6 Q14.3 -13.2 14.3 -12.55 L14.05 -11.4 Q13.75 -10.85 12.95 -10.55 L12.9 -10.5 11.85 -10.0 11.7 -9.85 11.25 -10.45 Q11.2 -10.8 11.85 -11.5 L12.95 -12.05 13.55 -12.3 14.05 -12.85 14.3 -14.05 Q14.3 -14.65 14.85 -15.1 L17.7 -15.8 18.0 -15.9 Q19.5 -16.3 20.65 -15.9 20.6 -14.55 21.1 -13.9 L22.8 -12.55 24.1 -13.9 25.3 -12.85 Q26.0 -12.1 26.65 -12.3 L27.1 -12.6 M11.85 -8.3 L12.15 -7.7 Q12.2 -7.25 11.75 -6.7 L11.1 -5.8 10.95 -6.75 11.25 -7.6 11.85 -8.3 M22.9 4.9 L23.55 6.25 23.05 6.25 Q22.2 7.2 22.05 8.8 21.75 6.55 22.9 4.9 M30.75 -2.95 Q30.4 -3.1 30.05 -4.0 L29.55 -5.3 28.4 -7.55 Q27.7 -8.8 27.65 -9.8 L28.1 -9.6 29.55 -6.75 30.05 -5.4 30.25 -5.15 Q30.95 -3.85 31.4 -5.05 L30.75 -2.95 M13.35 -23.6 L12.85 -23.65 13.0 -24.05 13.45 -24.45 13.15 -25.0 Q14.15 -25.55 14.55 -24.85 L14.65 -24.6 Q14.8 -24.1 14.1 -23.7 L13.35 -23.6 M-4.35 -28.15 L-4.1 -27.65 -3.05 -27.05 -2.8 -26.9 Q-2.45 -26.65 -2.4 -26.2 L-2.45 -26.15 -3.05 -25.6 Q-3.95 -25.9 -4.1 -26.15 -4.55 -26.8 -4.35 -28.15 M-16.9 -4.5 L-16.65 -4.85 Q-15.5 -4.25 -14.75 -5.05 -13.6 -6.4 -13.25 -6.5 L-13.65 -4.85 -14.65 -3.7 -14.75 -3.55 -14.85 -3.45 -15.0 -3.35 -15.1 -3.3 -15.35 -3.1 -15.45 -3.1 -16.1 -3.2 -16.15 -3.8 -16.5 -3.9 -17.35 -3.75 -17.95 -2.75 Q-18.2 -2.95 -18.05 -3.3 L-17.85 -4.05 -17.5 -3.9 -16.9 -4.5 M-13.3 -4.5 L-12.75 -5.4 -12.3 -4.95 -11.65 -4.8 Q-11.15 -4.85 -10.55 -5.6 L-7.75 -3.7 -7.0 -3.1 -6.3 -2.6 Q-5.85 -2.5 -5.3 -2.85 L-4.35 -2.7 Q-3.9 -2.35 -3.55 -1.1 -3.2 0.1 -2.65 0.55 L-0.75 1.15 Q0.3 1.5 -0.25 2.55 L2.35 3.0 Q3.45 3.25 3.0 4.8 2.75 4.45 1.7 4.4 L1.3 4.4 1.0 4.35 0.9 4.35 0.35 4.25 0.3 4.25 0.2 4.25 -0.1 4.15 -0.2 4.05 -0.25 4.05 -0.2 3.95 -0.05 3.5 Q-0.05 3.05 -0.4 2.85 L-0.4 2.8 -0.45 2.8 -0.75 2.6 -0.95 2.6 -2.15 2.3 -2.55 2.1 -2.65 2.0 Q-3.2 1.55 -3.55 0.4 L-3.85 -0.5 -4.35 -1.25 -5.3 -1.4 Q-5.85 -1.05 -6.3 -1.15 L-7.0 -1.6 -7.75 -2.25 -10.55 -4.05 -10.75 -3.8 -11.1 -3.5 Q-11.45 -3.25 -11.85 -3.3 -12.3 -3.4 -12.65 -3.8 L-12.75 -3.9 Q-12.9 -3.5 -13.6 -2.6 L-13.5 -4.3 -13.3 -4.5 M-12.75 -27.95 Q-12.1 -27.55 -11.05 -27.65 L-11.6 -26.15 -12.9 -26.55 -12.4 -27.2 Q-12.75 -27.55 -12.75 -27.95 M-11.45 -25.3 L-11.1 -24.7 -10.8 -25.8 -10.45 -27.0 -9.4 -28.05 -8.75 -27.45 Q-8.95 -26.95 -9.6 -26.45 L-10.45 -25.55 -10.8 -24.35 Q-10.9 -23.55 -11.1 -23.2 -11.8 -23.9 -11.45 -25.3 M-9.2 -28.25 L-8.75 -28.9 -9.25 -29.35 -7.95 -29.6 -6.75 -29.55 Q-6.35 -28.9 -6.55 -28.05 -6.1 -28.2 -5.4 -29.05 L-5.1 -29.0 -5.3 -29.2 -4.25 -30.05 -4.4 -28.5 -5.45 -27.5 -6.55 -26.6 Q-6.4 -27.4 -6.6 -27.9 L-7.5 -28.95 -9.2 -28.25 M-22.35 -10.55 L-22.25 -10.0 Q-21.15 -9.6 -20.25 -10.0 -19.2 -10.5 -19.15 -11.65 L-18.05 -11.15 -18.55 -9.95 -19.15 -10.2 Q-19.2 -9.05 -20.25 -8.55 L-20.55 -8.4 -21.5 -8.35 -21.95 -8.4 -22.25 -8.55 Q-22.55 -9.75 -22.35 -10.55 M-19.0 -7.6 L-18.9 -7.4 -18.4 -7.3 Q-18.0 -7.3 -17.85 -7.1 L-17.85 -5.65 Q-18.0 -5.85 -18.4 -5.85 L-18.9 -5.95 -19.45 -6.65 -19.0 -7.6" fill="#fffdad" fill-rule="evenodd" stroke="none"/>
    <path d="M1.85 -33.45 L2.4 -32.7 2.45 -32.7 2.45 -32.6 Q2.9 -31.8 2.4 -31.15 3.1 -30.15 2.05 -29.4 L2.75 -29.05 2.8 -29.1 2.85 -29.1 4.35 -30.05 Q5.1 -30.55 6.15 -30.55 L8.95 -30.35 9.45 -30.95 Q8.95 -31.35 8.95 -31.6 8.9 -31.95 9.15 -32.2 L10.3 -31.8 11.0 -31.55 11.35 -30.45 12.45 -29.5 10.9 -28.1 11.0 -28.05 10.65 -25.35 10.1 -25.35 6.25 -25.7 Q5.55 -25.7 4.9 -25.25 L3.75 -24.5 3.4 -23.75 2.2 -24.3 Q0.6 -25.0 -0.1 -25.75 L-1.45 -27.2 1.3 -28.4 0.2 -29.7 -1.25 -31.5 -1.5 -31.9 -2.9 -30.9 -2.95 -30.85 -2.2 -30.05 -1.45 -28.8 -2.55 -28.2 -2.8 -26.9 -3.05 -27.05 -4.1 -27.65 -4.35 -28.15 -4.4 -28.5 -4.25 -30.05 -5.3 -29.2 -5.1 -29.0 -5.4 -29.05 Q-6.1 -28.2 -6.55 -28.05 -6.35 -28.9 -6.75 -29.55 L-7.95 -29.6 -9.25 -29.35 -8.75 -28.9 -9.2 -28.25 -9.4 -28.05 -10.45 -27.0 -10.8 -25.8 -11.1 -24.7 -11.45 -25.3 -11.05 -26.2 -11.6 -26.15 -11.05 -27.65 Q-12.1 -27.55 -12.75 -27.95 L-12.9 -28.05 -12.4 -28.65 Q-13.05 -29.35 -12.6 -29.7 L-11.4 -29.8 -11.35 -30.4 -10.85 -30.45 -10.25 -30.55 -7.95 -31.05 -6.55 -30.95 -5.4 -30.55 -5.3 -30.6 Q-5.95 -31.4 -5.6 -31.85 L-4.45 -32.45 Q-4.6 -32.75 -4.35 -33.35 L-3.85 -33.4 -2.4 -33.5 -2.45 -33.55 -2.0 -33.55 0.0 -33.75 1.25 -33.85 1.05 -33.75 0.75 -33.5 1.85 -33.45 M24.0 -23.2 L24.2 -22.95 23.85 -23.3 24.0 -23.2 M30.95 -9.95 L31.4 -9.25 Q30.9 -12.05 29.95 -14.65 31.95 -10.55 32.75 -5.95 L32.05 -5.7 Q32.8 -3.85 32.1 -2.75 L31.5 -2.05 31.05 -1.85 32.8 -1.35 32.1 0.8 31.3 3.45 31.0 4.3 30.65 5.75 30.8 6.65 Q31.0 8.25 30.75 9.0 30.55 9.6 29.5 10.6 L28.95 11.2 28.45 12.5 28.2 13.4 26.85 15.6 25.05 17.25 23.3 18.7 22.5 17.45 Q20.95 15.25 20.7 12.6 20.35 9.7 21.75 7.7 L21.1 5.9 20.85 5.65 20.25 4.25 Q20.2 3.65 20.65 2.6 L20.7 2.5 19.4 2.35 17.8 2.4 16.7 2.45 16.5 2.6 15.8 4.25 14.35 2.8 Q12.6 2.3 11.05 0.3 9.45 -1.75 9.55 -3.35 9.65 -4.4 10.55 -5.3 L10.65 -5.45 Q9.95 -6.2 9.9 -6.95 9.9 -7.9 10.9 -8.9 11.35 -9.35 12.0 -9.6 L12.15 -9.15 Q12.15 -8.65 11.85 -8.3 L11.25 -7.6 10.95 -6.75 11.1 -5.8 Q11.55 -4.55 12.85 -3.3 14.1 -2.0 15.0 -1.95 L15.35 -1.6 Q15.95 -2.0 15.75 -2.45 L19.35 -2.55 Q21.85 -2.55 22.15 -1.3 L21.85 -0.35 22.15 0.15 21.85 1.15 22.3 1.85 22.85 3.35 23.55 4.75 23.05 4.75 22.9 4.9 Q21.75 6.55 22.05 8.8 22.2 11.1 23.6 13.15 L25.55 11.5 Q26.55 10.55 26.9 9.45 L27.25 8.15 27.85 6.9 28.7 5.95 29.45 4.95 29.4 3.05 29.35 2.1 29.95 -0.45 30.75 -2.95 31.4 -5.05 Q30.95 -3.85 30.25 -5.15 L30.05 -5.4 29.55 -6.75 28.1 -9.6 Q27.7 -10.55 27.65 -11.3 28.5 -11.1 29.3 -9.25 L30.25 -6.6 Q30.75 -6.6 30.9 -6.85 L29.35 -10.0 30.85 -8.55 29.35 -11.5 30.95 -9.95 M-25.85 -21.55 L-25.8 -22.2 -25.45 -22.6 -24.7 -23.35 Q-24.85 -22.9 -25.15 -22.55 L-25.4 -22.05 -25.85 -21.35 -25.85 -21.55 M-26.9 -18.7 L-26.9 -17.55 -26.7 -14.45 -26.6 -12.2 -26.25 -9.95 -26.35 -12.1 -26.25 -11.4 -26.4 -13.9 Q-26.55 -15.3 -26.35 -15.75 -25.35 -15.65 -25.1 -14.6 -24.9 -14.0 -24.95 -12.25 L-24.95 -10.85 Q-24.9 -9.3 -24.35 -8.6 -23.55 -7.7 -21.8 -7.9 -21.95 -7.05 -21.0 -6.5 L-19.55 -5.5 -18.85 -4.05 -18.0 -2.55 -17.95 -2.75 -17.35 -3.75 -16.5 -3.9 Q-16.4 -3.45 -16.45 -2.8 L-16.05 -2.55 -16.1 -1.9 Q-16.2 -0.9 -16.5 -0.45 L-17.6 0.65 Q-18.25 1.25 -18.2 1.85 L-17.95 2.5 -16.4 4.75 -15.65 6.3 -14.95 7.75 -13.65 8.7 -12.4 9.5 Q-12.05 10.0 -11.85 11.2 L-11.7 13.05 -11.4 17.05 Q-11.1 20.1 -10.2 20.35 -10.35 22.1 -9.45 23.05 -8.75 23.85 -6.85 24.55 L-7.3 23.65 Q-7.4 23.2 -6.95 22.85 L-7.05 22.65 Q-7.45 21.8 -6.95 21.35 L-7.05 21.15 Q-7.7 20.2 -7.0 19.6 -6.6 19.2 -5.45 18.8 L-5.9 18.3 Q-5.75 17.0 -4.05 17.25 -3.8 15.5 -1.25 13.5 1.35 11.4 1.75 10.0 L1.9 9.3 1.9 9.15 1.95 9.0 2.8 5.7 2.9 5.3 Q3.8 5.6 4.2 6.15 4.85 7.15 4.25 9.0 L3.65 11.55 3.1 13.9 Q2.45 15.8 -0.2 17.9 L-1.85 19.35 Q-2.55 20.2 -2.7 21.05 L-3.0 22.3 -3.4 22.25 -2.85 22.75 -4.95 23.6 -5.05 23.6 -5.9 24.0 -5.85 24.1 -5.05 25.15 -5.75 25.7 Q-5.35 26.35 -5.3 26.95 L-5.05 27.0 -5.3 29.65 -6.0 29.75 Q-7.25 29.75 -8.2 29.1 L-8.15 29.0 Q-11.6 27.65 -11.6 24.55 -12.7 23.2 -13.0 17.75 L-13.15 16.0 Q-13.15 14.35 -13.5 13.9 L-14.15 13.5 Q-15.5 12.85 -16.05 12.05 L-17.0 10.1 -17.55 8.95 -18.1 8.1 Q-19.5 6.3 -19.6 5.45 -19.7 4.2 -18.25 3.0 L-19.1 1.8 -20.1 -0.1 -20.65 -1.3 -21.3 -1.6 Q-22.5 -2.25 -22.95 -3.0 -24.25 -3.05 -25.2 -4.0 -26.25 -5.05 -26.35 -7.65 L-27.55 -7.55 -28.0 -10.85 -28.15 -13.05 -28.3 -15.35 Q-28.2 -16.6 -27.45 -17.85 L-26.9 -18.7 M16.55 -24.45 L17.0 -24.95 Q16.8 -25.75 16.95 -26.5 L17.3 -28.6 18.25 -27.95 18.3 -27.65 17.25 -26.8 17.8 -25.8 18.4 -25.15 18.45 -26.3 18.65 -26.75 18.65 -26.8 19.5 -25.35 Q19.95 -24.25 20.3 -23.9 20.8 -24.35 20.35 -25.2 L20.75 -25.5 21.45 -23.8 Q21.45 -23.15 20.55 -23.25 L19.7 -23.5 18.95 -24.0 16.95 -22.4 16.4 -23.1 17.2 -23.3 16.55 -24.45 M14.0 -18.8 L14.0 -17.2 16.6 -16.55 Q18.15 -16.55 18.15 -18.1 18.85 -18.8 19.75 -18.85 L19.8 -19.3 20.4 -19.3 Q21.7 -17.55 22.05 -15.95 L22.55 -16.0 21.55 -17.85 22.7 -17.1 22.05 -18.35 21.55 -19.35 Q21.85 -19.05 22.6 -18.7 L23.45 -17.8 23.75 -16.6 24.2 -15.45 24.25 -15.5 Q23.95 -16.65 24.35 -17.1 L24.9 -16.15 25.45 -15.15 26.4 -15.55 Q26.5 -15.1 27.15 -14.0 27.6 -13.05 27.1 -12.6 L26.65 -12.3 Q26.0 -12.1 25.3 -12.85 L24.1 -13.9 22.8 -12.55 21.1 -13.9 Q20.6 -14.55 20.65 -15.9 19.5 -16.3 18.0 -15.9 L17.7 -15.8 14.85 -15.1 Q14.3 -14.65 14.3 -14.05 L14.05 -12.85 13.55 -12.3 12.7 -12.6 12.65 -14.65 12.5 -16.5 12.3 -17.5 11.4 -17.35 12.1 -18.1 11.95 -18.85 10.45 -18.95 11.7 -20.85 11.75 -21.1 11.2 -21.9 12.5 -22.65 13.05 -22.85 12.05 -25.25 13.15 -25.0 13.45 -24.45 13.0 -24.05 12.85 -23.65 13.35 -23.6 13.85 -23.6 13.15 -23.4 13.2 -23.4 13.45 -23.0 13.0 -22.6 12.85 -22.15 13.85 -22.15 13.15 -21.95 Q14.35 -22.05 14.6 -22.8 14.85 -23.55 14.1 -23.7 14.8 -24.1 14.65 -24.6 L14.8 -24.6 15.3 -23.7 14.85 -23.15 15.45 -23.25 15.5 -23.05 15.5 -22.9 Q15.5 -22.35 14.85 -21.7 L15.7 -21.8 15.35 -21.45 16.3 -21.6 16.7 -20.8 15.6 -20.4 Q16.1 -20.4 16.45 -19.95 L16.35 -19.85 Q15.8 -19.3 13.85 -20.35 L14.0 -18.8 M-2.45 -26.15 L-0.85 -24.5 -2.85 -24.95 Q-1.9 -24.6 -1.5 -24.05 L-1.05 -24.35 -1.15 -23.4 -1.0 -22.75 -0.95 -21.7 -1.35 -21.6 -1.4 -21.1 -0.95 -20.3 0.25 -18.75 -1.6 -18.1 -3.1 -17.85 -3.55 -17.9 -4.1 -17.85 -4.3 -17.85 Q-5.15 -16.95 -6.8 -16.95 L-7.8 -16.9 -9.2 -15.85 -10.9 -14.5 -11.35 -14.3 -11.65 -13.85 Q-12.5 -12.25 -13.25 -11.6 -13.55 -11.3 -14.45 -10.95 L-14.65 -10.8 -14.65 -10.6 Q-14.35 -9.3 -14.75 -8.5 L-16.1 -5.7 -16.7 -7.25 -17.4 -5.65 -17.7 -5.05 -16.9 -4.5 -17.5 -3.9 -17.85 -4.05 -17.85 -5.45 -17.85 -5.5 -17.85 -5.65 -17.85 -7.1 Q-18.0 -7.3 -18.4 -7.3 L-18.9 -7.4 -19.0 -7.6 -19.4 -8.15 -19.0 -9.1 -18.55 -9.95 -18.05 -11.15 -19.15 -11.65 Q-19.2 -10.5 -20.25 -10.0 -21.15 -9.6 -22.25 -10.0 L-22.35 -10.55 Q-22.55 -11.65 -22.1 -12.7 L-20.9 -14.7 -19.05 -13.55 Q-18.55 -15.55 -17.55 -14.9 -16.7 -14.35 -16.05 -12.7 L-16.0 -12.6 Q-15.8 -12.95 -15.95 -13.6 L-15.95 -15.05 -15.1 -15.65 -14.15 -16.15 -12.9 -17.8 -11.85 -19.45 -11.55 -19.25 Q-11.05 -19.5 -9.9 -20.5 L-8.3 -21.7 -6.35 -21.85 -6.3 -21.95 Q-7.0 -22.15 -7.4 -21.95 -7.8 -22.7 -7.4 -23.5 -7.85 -24.2 -7.4 -24.95 -6.4 -25.1 -5.35 -23.8 -5.05 -24.35 -4.5 -24.35 L-3.55 -24.65 Q-3.3 -24.85 -3.05 -25.6 L-2.45 -26.15 M-13.4 -4.45 L-13.3 -4.5 -13.5 -4.3 -13.4 -4.45 M-12.3 -4.95 L-11.6 -5.35 -11.65 -4.8 -12.3 -4.95 M-15.05 -3.3 L-15.35 -3.1 -15.1 -3.3 -15.05 -3.3 M-7.4 -23.5 L-6.35 -23.25 -6.3 -23.4 -7.4 -23.5 M-26.5 -13.05 L-26.45 -12.95 -26.4 -12.6 -26.5 -13.05 M-5.5 -22.55 L-5.35 -22.3 -5.15 -22.65 -5.5 -22.55 M-17.35 -8.8 L-17.75 -9.6 -17.9 -9.1 -17.35 -8.8" fill="#c66c0c" fill-rule="evenodd" stroke="none"/>
    <path d="M1.65 -33.7 L1.85 -33.45 0.75 -33.5 1.05 -33.75 1.65 -33.7 M9.15 -32.2 L9.5 -32.45 Q14.45 -31.0 18.8 -28.0 L18.7 -28.0 18.3 -28.25 18.25 -27.95 17.3 -28.6 16.95 -26.5 Q16.8 -25.75 17.0 -24.95 L16.55 -24.45 15.6 -25.5 16.05 -25.8 Q15.75 -26.5 14.4 -26.8 L15.35 -25.0 14.4 -25.3 14.8 -24.6 14.65 -24.6 14.55 -24.85 Q14.15 -25.55 13.15 -25.0 L12.05 -25.25 13.05 -22.85 12.5 -22.65 11.2 -21.9 11.75 -21.1 11.7 -20.85 10.45 -18.95 11.95 -18.85 12.1 -18.1 11.4 -17.35 12.3 -17.5 12.5 -16.5 12.65 -14.65 12.7 -12.6 13.55 -12.3 12.95 -12.05 11.85 -11.5 Q11.2 -10.8 11.25 -10.45 L11.7 -9.85 12.0 -9.6 Q11.35 -9.35 10.9 -8.9 9.9 -7.9 9.9 -6.95 9.95 -6.2 10.65 -5.45 L10.55 -5.3 Q9.65 -4.4 9.55 -3.35 9.45 -1.75 11.05 0.3 12.6 2.3 14.35 2.8 L15.8 4.25 16.5 2.6 16.7 2.45 17.8 2.4 19.4 2.35 20.7 2.5 20.65 2.6 Q20.2 3.65 20.25 4.25 L20.85 5.65 21.1 5.9 21.75 7.7 Q20.35 9.7 20.7 12.6 20.95 15.25 22.5 17.45 L23.3 18.7 25.05 17.25 26.85 15.6 28.2 13.4 28.45 12.5 28.95 11.2 29.5 10.6 Q30.55 9.6 30.75 9.0 31.0 8.25 30.8 6.65 L30.65 5.75 31.0 4.3 31.3 3.45 32.1 0.8 32.8 -1.35 31.05 -1.85 31.5 -2.05 32.1 -2.75 Q32.8 -3.85 32.05 -5.7 L32.75 -5.95 Q31.95 -10.55 29.95 -14.65 L28.5 -17.9 Q33.15 -10.65 33.45 -1.5 32.95 11.95 23.25 21.3 13.55 30.75 0.0 30.75 -13.55 30.75 -23.25 21.3 -32.95 11.95 -33.45 -1.5 -33.0 -13.0 -25.85 -21.55 L-25.85 -21.35 -26.3 -20.7 Q-26.8 -19.8 -26.9 -18.7 L-27.45 -17.85 Q-28.2 -16.6 -28.3 -15.35 L-28.15 -13.05 -28.0 -10.85 -27.55 -7.55 -26.35 -7.65 Q-26.25 -5.05 -25.2 -4.0 -24.25 -3.05 -22.95 -3.0 -22.5 -2.25 -21.3 -1.6 L-20.65 -1.3 -20.1 -0.1 -19.1 1.8 -18.25 3.0 Q-19.7 4.2 -19.6 5.45 -19.5 6.3 -18.1 8.1 L-17.55 8.95 -17.0 10.1 -16.05 12.05 Q-15.5 12.85 -14.15 13.5 L-13.5 13.9 Q-13.15 14.35 -13.15 16.0 L-13.0 17.75 Q-12.7 23.2 -11.6 24.55 -11.6 27.65 -8.15 29.0 L-8.2 29.1 Q-7.25 29.75 -6.0 29.75 L-5.3 29.65 -5.05 27.0 -5.3 26.95 Q-5.35 26.35 -5.75 25.7 L-5.05 25.15 -5.85 24.1 -5.9 24.0 -5.05 23.6 -4.95 23.6 -2.85 22.75 -3.4 22.25 -3.0 22.3 -2.7 21.05 Q-2.55 20.2 -1.85 19.35 L-0.2 17.9 Q2.45 15.8 3.1 13.9 L3.65 11.55 4.25 9.0 Q4.85 7.15 4.2 6.15 3.8 5.6 2.9 5.3 L2.95 5.0 3.0 4.8 Q3.45 3.25 2.35 3.0 L-0.25 2.55 Q0.3 1.5 -0.75 1.15 L-2.65 0.55 Q-3.2 0.1 -3.55 -1.1 -3.9 -2.35 -4.35 -2.7 L-5.3 -2.85 Q-5.85 -2.5 -6.3 -2.6 L-7.0 -3.1 -7.75 -3.7 -10.55 -5.6 Q-11.15 -4.85 -11.65 -4.8 L-11.6 -5.35 -12.3 -4.95 -12.75 -5.4 -13.3 -4.5 -13.4 -4.45 -13.25 -5.05 -13.65 -4.85 -13.25 -6.5 Q-13.6 -6.4 -14.75 -5.05 -15.5 -4.25 -16.65 -4.85 L-16.9 -4.5 -17.7 -5.05 -17.4 -5.65 -16.7 -7.25 -16.1 -5.7 -14.75 -8.5 Q-14.35 -9.3 -14.65 -10.6 L-14.65 -10.8 -14.45 -10.95 Q-13.55 -11.3 -13.25 -11.6 -12.5 -12.25 -11.65 -13.85 L-11.35 -14.3 -10.9 -14.5 -9.2 -15.85 -7.8 -16.9 -6.8 -16.95 Q-5.15 -16.95 -4.3 -17.85 L-4.1 -17.85 -3.55 -17.9 -3.1 -17.85 -1.6 -18.1 0.25 -18.75 -0.95 -20.3 -1.4 -21.1 -1.35 -21.6 -0.95 -21.7 -1.0 -22.75 -1.15 -23.4 -1.05 -24.35 -1.5 -24.05 Q-1.9 -24.6 -2.85 -24.95 L-0.85 -24.5 -2.45 -26.15 -2.4 -26.2 Q-2.45 -26.65 -2.8 -26.9 L-2.55 -28.2 -1.45 -28.8 -2.2 -30.05 -2.95 -30.85 -2.9 -30.9 -1.5 -31.9 -1.25 -31.5 0.2 -29.7 1.3 -28.4 -1.45 -27.2 -0.1 -25.75 Q0.6 -25.0 2.2 -24.3 L3.4 -23.75 3.75 -24.5 4.9 -25.25 Q5.55 -25.7 6.25 -25.7 L10.1 -25.35 10.65 -25.35 11.0 -28.05 10.9 -28.1 12.45 -29.5 11.35 -30.45 11.0 -31.55 10.3 -31.8 9.15 -32.2 M20.4 -26.65 L20.55 -26.7 20.95 -26.3 21.1 -26.05 20.4 -26.65 M23.6 -23.65 L24.0 -23.2 23.85 -23.3 23.6 -23.65 M-4.25 -33.45 L0.0 -33.75 -2.0 -33.55 -2.45 -33.55 -2.4 -33.5 -3.85 -33.4 -4.35 -33.35 -4.25 -33.45 M-15.0 -3.35 L-15.05 -3.3 -15.1 -3.3 -15.0 -3.35 M-16.1 -3.2 L-16.05 -2.55 -16.45 -2.8 Q-16.4 -3.45 -16.5 -3.9 L-16.15 -3.8 -16.1 -3.2 M-17.35 -8.8 L-17.9 -9.1 -17.75 -9.6 -17.35 -8.8" fill="url(#gradient1)" fill-rule="evenodd" stroke="none"/>
    <path d="M13.35 -23.6 L14.1 -23.7 13.85 -23.6 13.2 -23.4 13.15 -23.4 13.85 -23.6 13.35 -23.6" fill="url(#gradient2)" fill-rule="evenodd" stroke="none"/>
    <path d="M14.1 -23.7 Q14.85 -23.55 14.6 -22.8 14.35 -22.05 13.15 -21.95 L13.85 -22.15 12.85 -22.15 13.0 -22.6 13.45 -23.0 13.2 -23.4 13.85 -23.6 14.1 -23.7" fill="url(#gradient3)" fill-rule="evenodd" stroke="none"/>
    <path d="M15.35 -25.0 L16.05 -24.35 15.6 -24.05 16.4 -23.1 15.5 -22.9 15.5 -23.05 15.7 -23.25 15.45 -23.25 15.3 -23.7 Q15.55 -24.25 15.45 -24.7 L15.35 -25.0" fill="url(#gradient4)" fill-rule="evenodd" stroke="none"/>
    <path d="M15.35 -25.0 L15.45 -24.7 Q15.55 -24.25 15.3 -23.7 L14.8 -24.6 14.4 -25.3 15.35 -25.0" fill="url(#gradient5)" fill-rule="evenodd" stroke="none"/>
    <path d="M15.3 -23.7 L15.45 -23.25 14.85 -23.15 15.3 -23.7" fill="url(#gradient6)" fill-rule="evenodd" stroke="none"/>
    <path d="M15.45 -23.25 L15.7 -23.25 15.5 -23.05 15.45 -23.25" fill="url(#gradient7)" fill-rule="evenodd" stroke="none"/>
    <path d="M15.5 -22.9 L16.4 -23.1 16.95 -22.4 15.6 -21.85 Q15.95 -21.9 16.3 -21.6 L15.35 -21.45 15.7 -21.8 14.85 -21.7 Q15.5 -22.35 15.5 -22.9" fill="url(#gradient8)" fill-rule="evenodd" stroke="none"/>
    <path d="M16.3 -21.6 Q15.95 -21.9 15.6 -21.85 L16.95 -22.4 17.2 -21.8 16.3 -21.6" fill="url(#gradient9)" fill-rule="evenodd" stroke="none"/>
    <path d="M16.7 -20.8 L16.45 -19.95 Q16.1 -20.4 15.6 -20.4 L16.7 -20.8" fill="url(#gradient10)" fill-rule="evenodd" stroke="none"/>
    <path d="M21.1 -26.05 L21.6 -25.6 21.85 -25.3 23.6 -23.65 23.85 -23.3 24.2 -22.95 24.5 -22.6 Q28.5 -17.9 30.4 -11.9 L30.55 -11.3 30.95 -9.95 29.35 -11.5 30.85 -8.55 29.35 -10.0 30.9 -6.85 Q30.75 -6.6 30.25 -6.6 L29.3 -9.25 Q28.5 -11.1 27.65 -11.3 27.7 -10.55 28.1 -9.6 L27.65 -9.8 Q27.7 -8.8 28.4 -7.55 L29.55 -5.3 30.05 -4.0 Q30.4 -3.1 30.75 -2.95 L29.95 -0.45 29.35 2.1 29.4 3.05 29.35 3.55 29.45 4.95 28.7 5.95 27.85 6.9 27.25 8.15 26.9 9.45 Q26.55 10.55 25.55 11.5 L23.6 13.15 Q22.2 11.1 22.05 8.8 22.2 7.2 23.05 6.25 L23.55 6.25 22.9 4.9 23.05 4.75 23.55 4.75 22.85 3.35 22.3 1.85 21.85 1.15 22.15 0.15 21.85 -0.35 22.15 -1.3 Q21.85 -2.55 19.35 -2.55 L15.75 -2.45 Q15.95 -2.0 15.35 -1.6 L15.0 -1.95 Q14.1 -2.0 12.85 -3.3 11.55 -4.55 11.1 -5.8 L11.75 -6.7 Q12.2 -7.25 12.15 -7.7 L11.85 -8.3 Q12.15 -8.65 12.15 -9.15 L12.0 -9.6 11.7 -9.85 11.85 -10.0 12.9 -10.5 12.95 -10.55 Q13.75 -10.85 14.05 -11.4 L14.3 -12.55 Q14.3 -13.2 14.85 -13.6 L17.7 -14.35 19.15 -14.6 20.65 -14.45 Q20.6 -13.1 21.1 -12.45 L21.15 -12.3 21.2 -12.3 22.6 -11.2 22.7 -11.15 22.75 -11.1 22.8 -11.1 22.9 -11.15 24.1 -12.4 25.3 -11.3 Q26.0 -10.6 26.65 -10.8 27.7 -11.25 27.1 -12.6 27.6 -13.05 27.15 -14.0 26.5 -15.1 26.4 -15.55 L25.45 -15.15 24.9 -16.15 24.35 -17.1 Q23.95 -16.65 24.25 -15.5 L24.2 -15.45 23.75 -16.6 23.45 -17.8 22.6 -18.7 Q21.85 -19.05 21.55 -19.35 L22.05 -18.35 22.7 -17.1 21.55 -17.85 22.55 -16.0 22.05 -15.95 Q21.7 -17.55 20.4 -19.3 L19.8 -19.3 19.75 -18.85 Q18.85 -18.8 18.15 -18.1 18.15 -16.55 16.6 -16.55 L14.0 -17.2 14.0 -18.8 Q15.8 -17.8 16.35 -18.4 17.05 -19.0 16.45 -19.95 L16.7 -20.8 18.95 -22.45 Q19.7 -21.75 20.75 -21.8 21.85 -21.8 21.35 -23.0 L22.0 -23.05 21.45 -23.8 21.35 -24.45 22.0 -24.5 21.25 -25.7 21.1 -26.05" fill="url(#gradient11)" fill-rule="evenodd" stroke="none"/>
    <path d="M20.35 -25.2 L20.3 -25.3 20.25 -25.45 20.2 -25.75 20.3 -26.5 20.35 -26.55 20.4 -26.65 21.1 -26.05 21.25 -25.7 22.0 -24.5 21.35 -24.45 21.45 -23.8 20.75 -25.5 20.35 -25.2" fill="url(#gradient12)" fill-rule="evenodd" stroke="none"/>
    <path d="M18.7 -28.0 L20.4 -26.65 20.35 -26.55 20.3 -26.5 20.2 -25.75 20.25 -25.45 20.3 -25.3 20.35 -25.2 Q19.95 -24.75 20.3 -23.9 19.95 -24.25 19.5 -25.35 L18.65 -26.8 18.65 -26.75 Q18.3 -27.35 18.3 -27.65 L18.7 -28.0" fill="url(#gradient13)" fill-rule="evenodd" stroke="none"/>
    <path d="M18.25 -27.95 L18.3 -28.25 18.7 -28.0 18.3 -27.65 18.25 -27.95" fill="url(#gradient14)" fill-rule="evenodd" stroke="none"/>
    <path d="M18.3 -27.65 Q18.3 -27.35 18.65 -26.75 L18.45 -26.3 17.8 -25.8 17.25 -26.8 18.3 -27.65" fill="url(#gradient15)" fill-rule="evenodd" stroke="none"/>
    <path d="M17.8 -25.8 L18.45 -26.3 18.4 -25.15 17.8 -25.8" fill="url(#gradient16)" fill-rule="evenodd" stroke="none"/>
    <path d="M20.3 -23.9 Q19.95 -24.75 20.35 -25.2 20.8 -24.35 20.3 -23.9" fill="url(#gradient17)" fill-rule="evenodd" stroke="none"/>
    <path d="M19.7 -23.5 L20.55 -23.25 Q20.7 -22.8 20.3 -22.45 19.85 -22.9 19.7 -23.5" fill="url(#gradient18)" fill-rule="evenodd" stroke="none"/>
    <path d="M30.4 -11.9 L30.45 -11.8 30.55 -11.3 30.4 -11.9 M22.6 -11.2 L21.2 -12.3 22.2 -11.5 22.6 -11.2" fill="url(#gradient19)" fill-rule="evenodd" stroke="none"/>
    <path d="M29.45 4.95 L29.35 3.55 29.4 3.05 29.45 4.95" fill="url(#gradient20)" fill-rule="evenodd" stroke="none"/>
    <path d="M33.45 -1.5 L33.45 2.8 Q33.45 16.6 23.65 26.45 13.85 36.25 0.0 36.25 -13.85 36.25 -23.65 26.45 -33.45 16.6 -33.45 2.8 L-33.45 -1.5 Q-32.95 11.95 -23.25 21.3 -13.55 30.75 0.0 30.75 13.55 30.75 23.25 21.3 32.95 11.95 33.45 -1.5" fill="#843a00" fill-rule="evenodd" stroke="none"/>
    <path d="M3.0 4.8 L2.95 5.0 2.9 5.3 2.8 5.7 1.95 9.0 1.9 9.15 1.9 9.3 1.75 10.0 Q1.35 11.4 -1.25 13.5 -3.8 15.5 -4.05 17.25 -5.75 17.0 -5.9 18.3 L-5.45 18.8 Q-6.6 19.2 -7.0 19.6 -7.7 20.2 -7.05 21.15 -7.65 21.7 -7.05 22.65 L-6.95 22.85 Q-7.4 23.2 -7.3 23.65 L-6.85 24.55 Q-8.75 23.85 -9.45 23.05 -10.35 22.1 -10.2 20.35 -11.1 20.1 -11.4 17.05 L-11.7 13.05 -11.85 11.2 Q-12.05 10.0 -12.4 9.5 L-13.65 8.7 -14.95 7.75 -15.65 6.3 -16.4 4.75 -17.95 2.5 Q-16.85 1.65 -16.5 1.05 -15.9 -0.05 -16.1 -1.9 L-16.05 -2.55 -16.1 -3.2 -15.45 -3.1 -15.35 -3.1 -15.05 -3.3 -15.0 -3.35 -14.85 -3.45 -14.75 -3.55 -14.65 -3.7 -13.65 -4.85 -13.65 -4.35 -13.6 -4.05 -13.5 -4.3 -13.6 -2.6 Q-12.9 -3.5 -12.75 -3.9 L-12.65 -3.8 Q-12.3 -3.4 -11.85 -3.3 -11.45 -3.25 -11.1 -3.5 L-10.75 -3.8 -10.55 -4.05 -7.75 -2.25 -7.0 -1.6 -6.3 -1.15 Q-5.85 -1.05 -5.3 -1.4 L-4.35 -1.25 -3.85 -0.5 -3.55 0.4 Q-3.2 1.55 -2.65 2.0 L-2.55 2.1 -2.15 2.3 -0.95 2.6 -0.75 2.6 -0.45 2.8 -0.4 2.8 -0.4 2.85 Q-0.05 3.05 -0.05 3.5 L-0.2 3.95 -0.25 4.05 -0.1 4.15 0.2 4.25 0.3 4.25 0.35 4.25 0.9 4.35 1.0 4.35 1.3 4.4 1.7 4.4 Q2.75 4.45 3.0 4.8" fill="url(#gradient21)" fill-rule="evenodd" stroke="none"/>
    <path d="M-0.1 4.15 L-0.25 4.05 -0.2 4.05 -0.1 4.15" fill="url(#gradient22)" fill-rule="evenodd" stroke="none"/>
    <path d="M-10.25 -30.55 Q-9.7 -30.95 -9.45 -31.75 L-9.3 -32.4 -9.25 -32.5 -9.1 -33.05 -4.5 -33.95 -4.15 -33.55 -4.25 -33.45 -4.35 -33.35 Q-4.6 -32.75 -4.45 -32.45 L-5.6 -31.85 Q-5.95 -31.4 -5.3 -30.6 L-5.4 -30.55 -6.55 -30.95 -7.95 -31.05 -10.25 -30.55" fill="url(#gradient23)" fill-rule="evenodd" stroke="none"/>
    <path d="M-26.9 -17.55 L-26.3 -19.2 -25.15 -21.0 Q-24.55 -21.9 -24.45 -23.1 L-24.45 -23.7 Q-18.85 -29.85 -11.05 -32.45 L-11.05 -32.4 -11.05 -31.95 -11.05 -31.85 -10.85 -30.45 -11.35 -30.4 -11.4 -29.8 -12.6 -29.7 Q-13.05 -29.35 -12.4 -28.65 L-12.9 -28.05 -12.75 -27.95 Q-12.75 -27.55 -12.4 -27.2 L-12.9 -26.55 -11.6 -26.15 -11.45 -25.3 Q-11.8 -23.9 -11.1 -23.2 -10.9 -23.55 -10.8 -24.35 L-10.45 -25.55 -9.6 -26.45 Q-8.95 -26.95 -8.75 -27.45 L-9.4 -28.05 -9.2 -28.25 -7.5 -28.95 -6.6 -27.9 Q-6.4 -27.4 -6.55 -26.6 L-5.45 -27.5 -4.4 -28.5 -4.35 -28.15 Q-4.55 -26.8 -4.1 -26.15 -3.95 -25.9 -3.05 -25.6 -3.3 -24.85 -3.55 -24.65 L-4.5 -24.35 Q-5.05 -24.35 -5.35 -23.8 -6.4 -25.1 -7.4 -24.95 -7.85 -24.2 -7.4 -23.5 -7.8 -22.7 -7.4 -21.95 -7.0 -22.15 -6.3 -21.95 L-6.35 -21.85 -8.3 -21.7 -9.9 -20.5 Q-11.05 -19.5 -11.55 -19.25 L-11.85 -19.45 -12.9 -17.8 -14.15 -16.15 -15.1 -15.65 -15.95 -15.05 -15.95 -13.6 -15.95 -13.55 -16.05 -12.7 Q-16.7 -14.35 -17.55 -14.9 -18.55 -15.55 -19.05 -13.55 L-20.9 -14.7 -22.1 -12.7 Q-22.55 -11.65 -22.35 -10.55 -22.55 -9.75 -22.25 -8.55 L-21.95 -8.4 -21.5 -8.35 -20.55 -8.4 -20.25 -8.55 Q-19.2 -9.05 -19.15 -10.2 L-18.55 -9.95 -19.0 -9.1 -19.4 -8.15 -19.0 -7.6 -19.45 -6.65 -18.9 -5.95 -18.4 -5.85 Q-18.0 -5.85 -17.85 -5.65 L-17.85 -5.5 -17.85 -5.45 -18.0 -4.85 -18.05 -4.8 Q-18.2 -4.35 -17.85 -4.05 L-18.05 -3.3 Q-18.2 -2.95 -17.95 -2.75 L-18.0 -2.55 -18.85 -4.05 -19.55 -5.5 -21.0 -6.5 Q-21.95 -7.05 -21.8 -7.9 -23.55 -7.7 -24.35 -8.6 -24.9 -9.3 -24.95 -10.85 L-24.95 -12.25 Q-24.9 -14.0 -25.1 -14.6 -25.35 -15.65 -26.35 -15.75 -26.55 -15.3 -26.4 -13.9 L-26.45 -13.05 -26.4 -12.75 -26.45 -12.95 -26.5 -13.05 -26.55 -13.45 -26.6 -14.05 -26.7 -15.95 -26.9 -17.55" fill="url(#gradient24)" fill-rule="evenodd" stroke="none"/>
    <path d="M-26.9 -17.55 L-26.7 -15.95 -26.6 -14.05 -26.55 -13.45 -26.5 -13.05 -26.4 -12.6 -26.35 -12.1 -26.25 -9.95 -26.6 -12.2 -26.7 -14.45 -26.9 -17.55" fill="url(#gradient25)" fill-rule="evenodd" stroke="none"/>
    <path d="M-26.45 -12.95 L-26.4 -12.75 -26.45 -13.05 -26.4 -13.9 -26.25 -11.4 -26.35 -12.1 -26.4 -12.6 -26.45 -12.95" fill="url(#gradient26)" fill-rule="evenodd" stroke="none"/>
    <path d="M-7.4 -23.5 L-6.3 -23.4 -6.35 -23.25 -7.4 -23.5" fill="url(#gradient27)" fill-rule="evenodd" stroke="none"/>
    <path d="M-5.5 -22.55 L-5.15 -22.65 -5.35 -22.3 -5.5 -22.55" fill="url(#gradient28)" fill-rule="evenodd" stroke="none"/>
    <path d="M-11.6 -26.15 L-11.05 -26.2 -11.45 -25.3 -11.6 -26.15" fill="url(#gradient29)" fill-rule="evenodd" stroke="none"/>
    <path d="M-15.95 -13.6 Q-15.8 -12.95 -16.0 -12.6 L-16.05 -12.7 -15.95 -13.55 -15.95 -13.6" fill="url(#gradient30)" fill-rule="evenodd" stroke="none"/>
    <path d="M-17.85 -5.45 L-17.85 -4.05 Q-18.2 -4.35 -18.05 -4.8 L-18.0 -4.85 -17.85 -5.45" fill="url(#gradient31)" fill-rule="evenodd" stroke="none"/>
    <path d="M-13.65 -4.85 L-13.25 -5.05 -13.4 -4.45 -13.5 -4.3 -13.6 -4.05 -13.65 -4.35 -13.65 -4.85" fill="url(#gradient32)" fill-rule="evenodd" stroke="none"/>
    <path d="M-16.1 -1.9 Q-15.9 -0.05 -16.5 1.05 -16.85 1.65 -17.95 2.5 L-18.2 1.85 Q-18.25 1.25 -17.6 0.65 L-16.5 -0.45 Q-16.2 -0.9 -16.1 -1.9" fill="#ffd8af" fill-rule="evenodd" stroke="none"/>
    <path d="M-7.05 22.65 Q-7.65 21.7 -7.05 21.15 L-6.95 21.35 Q-7.45 21.8 -7.05 22.65" fill="url(#gradient33)" fill-rule="evenodd" stroke="none"/>
  </g>
  <defs>
    <linearGradient gradientTransform="matrix(0.0282, -0.0163, -0.0163, -0.0282, -6.7, -25.5)" gradientUnits="userSpaceOnUse" id="gradient0" spreadMethod="pad" x1="-819.2" x2="819.2">
      <stop offset="0.2549019607843137" stop-color="#f18c00"/>
      <stop offset="0.611764705882353" stop-color="#fffb34"/>
      <stop offset="1.0" stop-color="#ffba00"/>
    </linearGradient>
    <linearGradient gradientTransform="matrix(0.0292, -0.0292, -0.0292, -0.0292, 0.9, -2.4)" gradientUnits="userSpaceOnUse" id="gradient1" spreadMethod="pad" x1="-819.2" x2="819.2">
      <stop offset="0.2549019607843137" stop-color="#f18c00"/>
      <stop offset="0.611764705882353" stop-color="#fffb34"/>
      <stop offset="1.0" stop-color="#ffba00"/>
    </linearGradient>
    <linearGradient gradientTransform="matrix(0.0282, -0.0163, -0.0163, -0.0282, -0.75, -15.3)" gradientUnits="userSpaceOnUse" id="gradient2" spreadMethod="pad" x1="-819.2" x2="819.2">
      <stop offset="0.00392156862745098" stop-color="#d2751e"/>
      <stop offset="0.611764705882353" stop-color="#ffa741"/>
      <stop offset="1.0" stop-color="#de7f12"/>
    </linearGradient>
    <linearGradient gradientTransform="matrix(0.0282, -0.0163, -0.0163, -0.0282, -1.1, -14.35)" gradientUnits="userSpaceOnUse" id="gradient3" spreadMethod="pad" x1="-819.2" x2="819.2">
      <stop offset="0.2549019607843137" stop-color="#f18c00"/>
      <stop offset="0.611764705882353" stop-color="#fffb34"/>
      <stop offset="1.0" stop-color="#ffba00"/>
    </linearGradient>
    <linearGradient gradientTransform="matrix(0.0283, -0.0163, -0.0163, -0.0283, -0.45, -14.6)" gradientUnits="userSpaceOnUse" id="gradient4" spreadMethod="pad" x1="-819.2" x2="819.2">
      <stop offset="0.2549019607843137" stop-color="#f18c00"/>
      <stop offset="0.611764705882353" stop-color="#fffb34"/>
      <stop offset="1.0" stop-color="#ffba00"/>
    </linearGradient>
    <linearGradient gradientTransform="matrix(0.0282, -0.0163, -0.0163, -0.0282, -1.5, -15.05)" gradientUnits="userSpaceOnUse" id="gradient5" spreadMethod="pad" x1="-819.2" x2="819.2">
      <stop offset="0.2549019607843137" stop-color="#f18c00"/>
      <stop offset="0.611764705882353" stop-color="#fffb34"/>
      <stop offset="1.0" stop-color="#ffba00"/>
    </linearGradient>
    <linearGradient gradientTransform="matrix(0.0282, -0.0163, -0.0163, -0.0282, -0.25, -14.45)" gradientUnits="userSpaceOnUse" id="gradient6" spreadMethod="pad" x1="-819.2" x2="819.2">
      <stop offset="0.00392156862745098" stop-color="#d2751e"/>
      <stop offset="0.611764705882353" stop-color="#ffa741"/>
      <stop offset="1.0" stop-color="#de7f12"/>
    </linearGradient>
    <linearGradient gradientTransform="matrix(0.0282, -0.0163, -0.0163, -0.0282, -0.75, -13.75)" gradientUnits="userSpaceOnUse" id="gradient7" spreadMethod="pad" x1="-819.2" x2="819.2">
      <stop offset="0.00392156862745098" stop-color="#d2751e"/>
      <stop offset="0.611764705882353" stop-color="#ffa741"/>
      <stop offset="1.0" stop-color="#de7f12"/>
    </linearGradient>
    <linearGradient gradientTransform="matrix(0.0282, -0.0163, -0.0163, -0.0282, -0.25, -12.95)" gradientUnits="userSpaceOnUse" id="gradient8" spreadMethod="pad" x1="-819.2" x2="819.2">
      <stop offset="0.2549019607843137" stop-color="#f18c00"/>
      <stop offset="0.611764705882353" stop-color="#fffb34"/>
      <stop offset="1.0" stop-color="#ffba00"/>
    </linearGradient>
    <linearGradient gradientTransform="matrix(0.0282, -0.0163, -0.0163, -0.0282, 0.7, -12.75)" gradientUnits="userSpaceOnUse" id="gradient9" spreadMethod="pad" x1="-819.2" x2="819.2">
      <stop offset="0.2549019607843137" stop-color="#f18c00"/>
      <stop offset="0.611764705882353" stop-color="#fffb34"/>
      <stop offset="1.0" stop-color="#ffba00"/>
    </linearGradient>
    <linearGradient gradientTransform="matrix(0.0283, -0.0163, -0.0163, -0.0283, 0.6, -11.3)" gradientUnits="userSpaceOnUse" id="gradient10" spreadMethod="pad" x1="-819.2" x2="819.2">
      <stop offset="0.2549019607843137" stop-color="#f18c00"/>
      <stop offset="0.611764705882353" stop-color="#fffb34"/>
      <stop offset="1.0" stop-color="#ffba00"/>
    </linearGradient>
    <linearGradient gradientTransform="matrix(0.0282, -0.0163, -0.0163, -0.0282, 8.8, 1.4)" gradientUnits="userSpaceOnUse" id="gradient11" spreadMethod="pad" x1="-819.2" x2="819.2">
      <stop offset="0.2549019607843137" stop-color="#f18c00"/>
      <stop offset="0.611764705882353" stop-color="#fffb34"/>
      <stop offset="1.0" stop-color="#ffba00"/>
    </linearGradient>
    <linearGradient gradientTransform="matrix(0.0282, -0.0163, -0.0163, -0.0282, -0.3, -12.95)" gradientUnits="userSpaceOnUse" id="gradient12" spreadMethod="pad" x1="-819.2" x2="819.2">
      <stop offset="0.2549019607843137" stop-color="#f18c00"/>
      <stop offset="0.611764705882353" stop-color="#fffb34"/>
      <stop offset="1.0" stop-color="#ffba00"/>
    </linearGradient>
    <linearGradient gradientTransform="matrix(0.0282, -0.0163, -0.0163, -0.0282, -0.3, -14.5)" gradientUnits="userSpaceOnUse" id="gradient13" spreadMethod="pad" x1="-819.2" x2="819.2">
      <stop offset="0.2549019607843137" stop-color="#f18c00"/>
      <stop offset="0.611764705882353" stop-color="#fffb34"/>
      <stop offset="1.0" stop-color="#ffba00"/>
    </linearGradient>
    <linearGradient gradientTransform="matrix(0.0282, -0.0163, -0.0163, -0.0282, -2.1, -16.15)" gradientUnits="userSpaceOnUse" id="gradient14" spreadMethod="pad" x1="-819.2" x2="819.2">
      <stop offset="0.00392156862745098" stop-color="#d2751e"/>
      <stop offset="0.611764705882353" stop-color="#ffa741"/>
      <stop offset="1.0" stop-color="#de7f12"/>
    </linearGradient>
    <linearGradient gradientTransform="matrix(0.0282, -0.0163, -0.0163, -0.0282, -1.05, -15.75)" gradientUnits="userSpaceOnUse" id="gradient15" spreadMethod="pad" x1="-819.2" x2="819.2">
      <stop offset="0.2549019607843137" stop-color="#f18c00"/>
      <stop offset="0.611764705882353" stop-color="#fffb34"/>
      <stop offset="1.0" stop-color="#ffba00"/>
    </linearGradient>
    <linearGradient gradientTransform="matrix(0.0282, -0.0163, -0.0163, -0.0282, -0.5, -14.8)" gradientUnits="userSpaceOnUse" id="gradient16" spreadMethod="pad" x1="-819.2" x2="819.2">
      <stop offset="0.00392156862745098" stop-color="#d2751e"/>
      <stop offset="0.611764705882353" stop-color="#ffa741"/>
      <stop offset="1.0" stop-color="#de7f12"/>
    </linearGradient>
    <linearGradient gradientTransform="matrix(0.0283, -0.0163, -0.0163, -0.0283, 0.45, -13.05)" gradientUnits="userSpaceOnUse" id="gradient17" spreadMethod="pad" x1="-819.2" x2="819.2">
      <stop offset="0.2549019607843137" stop-color="#f18c00"/>
      <stop offset="0.611764705882353" stop-color="#fffb34"/>
      <stop offset="1.0" stop-color="#ffba00"/>
    </linearGradient>
    <linearGradient gradientTransform="matrix(0.0283, -0.0163, -0.0163, -0.0283, 1.0, -12.05)" gradientUnits="userSpaceOnUse" id="gradient18" spreadMethod="pad" x1="-819.2" x2="819.2">
      <stop offset="0.00392156862745098" stop-color="#d2751e"/>
      <stop offset="0.611764705882353" stop-color="#ffa741"/>
      <stop offset="1.0" stop-color="#de7f12"/>
    </linearGradient>
    <linearGradient gradientTransform="matrix(0.0282, -0.0163, -0.0163, -0.0282, 8.15, 1.75)" gradientUnits="userSpaceOnUse" id="gradient19" spreadMethod="pad" x1="-819.2" x2="819.2">
      <stop offset="0.00392156862745098" stop-color="#d2751e"/>
      <stop offset="0.611764705882353" stop-color="#ffa741"/>
      <stop offset="1.0" stop-color="#de7f12"/>
    </linearGradient>
    <linearGradient gradientTransform="matrix(0.0282, -0.0163, -0.0163, -0.0282, 15.1, 12.25)" gradientUnits="userSpaceOnUse" id="gradient20" spreadMethod="pad" x1="-819.2" x2="819.2">
      <stop offset="0.00392156862745098" stop-color="#d2751e"/>
      <stop offset="0.611764705882353" stop-color="#ffa741"/>
      <stop offset="1.0" stop-color="#de7f12"/>
    </linearGradient>
    <linearGradient gradientTransform="matrix(0.0282, -0.0163, -0.0163, -0.0282, 7.7, -0.55)" gradientUnits="userSpaceOnUse" id="gradient21" spreadMethod="pad" x1="-819.2" x2="819.2">
      <stop offset="0.2549019607843137" stop-color="#f18c00"/>
      <stop offset="0.611764705882353" stop-color="#fffb34"/>
      <stop offset="1.0" stop-color="#ffba00"/>
    </linearGradient>
    <linearGradient gradientTransform="matrix(0.0282, -0.0163, -0.0163, -0.0282, 7.1, -0.15)" gradientUnits="userSpaceOnUse" id="gradient22" spreadMethod="pad" x1="-819.2" x2="819.2">
      <stop offset="0.00392156862745098" stop-color="#d2751e"/>
      <stop offset="0.611764705882353" stop-color="#ffa741"/>
      <stop offset="1.0" stop-color="#de7f12"/>
    </linearGradient>
    <linearGradient gradientTransform="matrix(0.0282, -0.0163, -0.0163, -0.0282, -9.6, -30.45)" gradientUnits="userSpaceOnUse" id="gradient23" spreadMethod="pad" x1="-819.2" x2="819.2">
      <stop offset="0.2549019607843137" stop-color="#f18c00"/>
      <stop offset="0.611764705882353" stop-color="#fffb34"/>
      <stop offset="1.0" stop-color="#ffba00"/>
    </linearGradient>
    <linearGradient gradientTransform="matrix(0.0282, -0.0163, -0.0163, -0.0282, -5.35, -23.15)" gradientUnits="userSpaceOnUse" id="gradient24" spreadMethod="pad" x1="-819.2" x2="819.2">
      <stop offset="0.2549019607843137" stop-color="#f18c00"/>
      <stop offset="0.611764705882353" stop-color="#fffb34"/>
      <stop offset="1.0" stop-color="#ffba00"/>
    </linearGradient>
    <linearGradient gradientTransform="matrix(0.0283, -0.0163, -0.0163, -0.0283, -7.2, -24.95)" gradientUnits="userSpaceOnUse" id="gradient25" spreadMethod="pad" x1="-819.2" x2="819.2">
      <stop offset="0.00392156862745098" stop-color="#d2751e"/>
      <stop offset="0.611764705882353" stop-color="#ffa741"/>
      <stop offset="1.0" stop-color="#de7f12"/>
    </linearGradient>
    <linearGradient gradientTransform="matrix(0.0282, -0.0163, -0.0163, -0.0282, -6.0, -24.35)" gradientUnits="userSpaceOnUse" id="gradient26" spreadMethod="pad" x1="-819.2" x2="819.2">
      <stop offset="0.00392156862745098" stop-color="#d2751e"/>
      <stop offset="0.611764705882353" stop-color="#ffa741"/>
      <stop offset="1.0" stop-color="#de7f12"/>
    </linearGradient>
    <linearGradient gradientTransform="matrix(0.0283, -0.0163, -0.0163, -0.0283, -5.85, -24.0)" gradientUnits="userSpaceOnUse" id="gradient27" spreadMethod="pad" x1="-819.2" x2="819.2">
      <stop offset="0.00392156862745098" stop-color="#d2751e"/>
      <stop offset="0.611764705882353" stop-color="#ffa741"/>
      <stop offset="1.0" stop-color="#de7f12"/>
    </linearGradient>
    <linearGradient gradientTransform="matrix(0.0282, -0.0163, -0.0163, -0.0282, -5.05, -22.65)" gradientUnits="userSpaceOnUse" id="gradient28" spreadMethod="pad" x1="-819.2" x2="819.2">
      <stop offset="0.00392156862745098" stop-color="#d2751e"/>
      <stop offset="0.611764705882353" stop-color="#ffa741"/>
      <stop offset="1.0" stop-color="#de7f12"/>
    </linearGradient>
    <linearGradient gradientTransform="matrix(0.0282, -0.0163, -0.0163, -0.0282, -8.65, -27.4)" gradientUnits="userSpaceOnUse" id="gradient29" spreadMethod="pad" x1="-819.2" x2="819.2">
      <stop offset="0.00392156862745098" stop-color="#d2751e"/>
      <stop offset="0.611764705882353" stop-color="#ffa741"/>
      <stop offset="1.0" stop-color="#de7f12"/>
    </linearGradient>
    <linearGradient gradientTransform="matrix(0.0283, -0.0163, -0.0163, -0.0283, -3.6, -20.2)" gradientUnits="userSpaceOnUse" id="gradient30" spreadMethod="pad" x1="-819.2" x2="819.2">
      <stop offset="0.00392156862745098" stop-color="#d2751e"/>
      <stop offset="0.611764705882353" stop-color="#ffa741"/>
      <stop offset="1.0" stop-color="#de7f12"/>
    </linearGradient>
    <linearGradient gradientTransform="matrix(0.0282, -0.0163, -0.0163, -0.0282, -1.15, -14.5)" gradientUnits="userSpaceOnUse" id="gradient31" spreadMethod="pad" x1="-819.2" x2="819.2">
      <stop offset="0.00392156862745098" stop-color="#d2751e"/>
      <stop offset="0.611764705882353" stop-color="#ffa741"/>
      <stop offset="1.0" stop-color="#de7f12"/>
    </linearGradient>
    <linearGradient gradientTransform="matrix(0.0282, -0.0163, -0.0163, -0.0282, 0.0, -12.4)" gradientUnits="userSpaceOnUse" id="gradient32" spreadMethod="pad" x1="-819.2" x2="819.2">
      <stop offset="0.00392156862745098" stop-color="#d2751e"/>
      <stop offset="0.611764705882353" stop-color="#ffa741"/>
      <stop offset="1.0" stop-color="#de7f12"/>
    </linearGradient>
    <linearGradient gradientTransform="matrix(0.0283, -0.0163, -0.0163, -0.0283, 13.75, 9.85)" gradientUnits="userSpaceOnUse" id="gradient33" spreadMethod="pad" x1="-819.2" x2="819.2">
      <stop offset="0.00392156862745098" stop-color="#d2751e"/>
      <stop offset="0.611764705882353" stop-color="#ffa741"/>
      <stop offset="1.0" stop-color="#de7f12"/>
    </linearGradient>
  </defs>
</svg>
