<?xml version="1.0" encoding="UTF-8" standalone="no"?>
<svg xmlns:ffdec="https://www.free-decompiler.com/flash" xmlns:xlink="http://www.w3.org/1999/xlink" ffdec:objectType="shape" height="72.55px" width="66.9px" xmlns="http://www.w3.org/2000/svg">
  <g transform="matrix(1.0, 0.0, 0.0, 1.0, 33.45, 36.25)">
    <path d="M0.15 -33.75 L0.0 -33.75 -3.1 -33.6 -3.15 -33.6 -3.4 -34.0 -8.0 -33.1 -8.05 -32.8 -8.1 -32.7 -8.35 -31.75 Q-8.6 -31.0 -9.15 -30.6 L-9.75 -30.5 Q-10.05 -30.95 -9.95 -32.25 L-9.95 -32.3 -9.95 -32.5 -10.4 -32.3 -12.45 -31.5 -13.15 -31.15 -13.95 -30.75 Q-19.3 -28.15 -23.35 -23.75 L-23.35 -23.2 Q-23.5 -21.9 -24.05 -21.05 L-25.2 -19.2 Q-25.6 -18.65 -25.8 -17.55 -26.0 -19.4 -25.2 -20.65 L-24.05 -22.5 Q-23.6 -23.25 -23.4 -24.2 L-23.35 -24.65 -23.35 -24.7 -25.5 -22.6 -25.8 -22.25 -25.8 -21.55 Q-33.0 -13.1 -33.45 -1.55 L-33.45 -2.75 Q-33.45 -16.65 -23.65 -26.4 -13.9 -36.25 0.0 -36.25 13.8 -36.25 23.65 -26.4 33.45 -16.65 33.45 -2.75 L33.45 -1.55 Q33.25 -5.85 32.2 -9.7 L32.05 -9.9 31.45 -12.0 Q28.75 -20.2 22.2 -26.1 L21.5 -26.7 21.0 -27.1 21.0 -27.15 19.35 -28.45 18.9 -28.15 18.8 -28.05 Q14.8 -30.8 10.3 -32.2 L10.85 -32.6 Q6.7 -34.0 2.3 -34.2 L2.8 -33.65 1.05 -33.7 1.2 -33.9 0.15 -33.75 M-9.6 -32.4 L-9.95 -32.3 -9.9 -32.25 -9.6 -31.75 Q-8.95 -32.05 -8.6 -32.6 L-8.55 -32.7 -9.55 -32.45 -9.6 -32.4 M-8.1 -28.25 L-7.65 -28.9 -8.15 -29.35 -6.85 -29.6 -5.65 -29.55 Q-5.25 -28.85 -5.45 -28.1 -4.9 -28.3 -4.3 -29.1 L-4.0 -29.0 -4.2 -29.2 -3.15 -30.1 -3.3 -28.55 -4.35 -27.55 -5.45 -26.6 Q-5.3 -27.35 -5.55 -27.9 L-6.4 -28.9 -8.1 -28.25 M-3.25 -28.15 L-3.0 -27.65 -2.7 -27.35 -1.95 -27.1 Q-1.35 -26.85 -1.3 -26.2 -1.8 -26.1 -1.9 -25.65 L-1.95 -25.55 -2.5 -25.8 -3.0 -26.2 Q-3.45 -26.8 -3.25 -28.15 M-16.75 -7.1 L-16.75 -5.6 -17.3 -5.85 -17.8 -5.95 -18.35 -6.65 -17.9 -7.6 -17.8 -7.45 -17.3 -7.35 -16.75 -7.1 M-16.5 -4.0 L-16.4 -3.95 -15.55 -4.9 Q-14.4 -4.2 -13.65 -5.05 L-12.15 -6.55 -12.5 -4.95 -12.55 -4.85 -13.65 -3.6 Q-14.25 -2.95 -15.0 -3.15 L-15.0 -3.4 -15.05 -3.8 -16.25 -3.75 -16.45 -3.55 -16.85 -2.7 Q-17.1 -2.95 -16.95 -3.3 L-16.75 -4.1 -16.5 -4.0 M-11.65 -5.35 L-11.65 -5.4 -11.6 -5.35 Q-10.6 -4.1 -9.45 -5.55 L-6.65 -3.7 -5.9 -3.15 -5.2 -2.65 Q-4.75 -2.55 -4.2 -2.9 -3.8 -3.15 -3.25 -2.7 -2.8 -2.35 -2.45 -1.15 -2.15 0.1 -1.55 0.55 L0.35 1.15 Q1.4 1.55 0.85 2.6 L3.45 3.05 Q4.55 3.25 4.1 4.8 3.85 4.5 2.8 4.45 L0.85 4.05 Q1.4 3.0 0.35 2.65 L-1.55 2.0 Q-2.15 1.55 -2.45 0.35 -2.8 -0.85 -3.25 -1.2 L-4.2 -1.35 -5.2 -1.2 -5.9 -1.65 -6.65 -2.25 -9.45 -4.1 -10.15 -3.45 Q-10.7 -3.15 -11.15 -3.45 L-11.55 -3.8 -11.65 -3.95 -11.65 -3.9 -12.1 -3.1 -12.45 -2.65 -12.5 -2.6 -12.4 -4.25 -11.65 -5.35 M15.75 -24.3 L15.2 -23.75 14.45 -23.6 13.95 -23.6 14.1 -24.05 Q14.15 -24.25 14.55 -24.45 L14.45 -24.7 14.25 -24.95 15.65 -24.9 15.75 -24.3 M13.1 -11.6 L14.05 -12.0 Q14.8 -12.35 15.15 -12.85 L15.4 -14.05 Q15.4 -14.7 15.95 -15.1 L16.55 -15.3 Q18.65 -14.75 19.1 -15.85 L21.75 -15.95 Q21.7 -14.6 22.2 -13.9 22.55 -13.4 23.9 -12.6 L25.2 -13.85 26.4 -12.8 Q27.1 -12.1 27.75 -12.35 L28.2 -12.6 Q28.85 -11.25 27.75 -10.85 27.1 -10.65 26.4 -11.35 L25.2 -12.4 23.9 -11.05 Q22.55 -11.85 22.2 -12.4 21.7 -13.1 21.75 -14.4 L18.8 -14.35 15.95 -13.65 Q15.4 -13.2 15.4 -12.6 L15.15 -11.35 14.05 -10.55 12.95 -10.0 12.8 -9.9 12.75 -9.95 12.35 -10.45 Q12.3 -10.85 12.95 -11.45 L13.1 -11.6 M17.8 -20.85 L17.4 -21.6 18.3 -21.85 18.05 -22.45 20.05 -23.95 Q20.4 -23.6 20.8 -23.5 20.95 -22.9 21.4 -22.45 21.8 -22.85 21.6 -23.3 22.55 -23.2 22.55 -23.8 L23.05 -23.0 22.45 -22.95 Q22.95 -21.8 21.85 -21.8 20.8 -21.8 20.05 -22.5 18.4 -21.1 17.8 -20.85 M16.45 -25.0 L15.5 -26.8 16.9 -26.2 17.15 -25.85 16.9 -25.65 16.7 -25.5 16.95 -25.25 17.65 -24.4 18.3 -23.3 17.5 -23.1 16.7 -24.0 17.15 -24.35 16.85 -24.75 16.45 -25.0 M23.15 8.85 Q22.85 6.55 24.0 4.9 L24.65 6.2 24.15 6.2 Q23.3 7.15 23.15 8.85 M12.2 -5.85 L12.05 -6.7 12.95 -8.3 13.25 -7.65 Q13.3 -7.25 12.85 -6.7 L12.2 -5.85 M29.2 -9.6 L30.65 -6.8 31.3 -5.1 Q31.95 -4.05 32.4 -4.65 L32.55 -5.1 32.4 -4.55 31.8 -3.0 Q31.5 -3.15 31.15 -4.05 L30.65 -5.35 29.5 -7.55 Q28.8 -8.85 28.75 -9.85 L29.2 -9.6 M-11.65 -27.95 L-9.95 -27.7 -10.5 -26.2 -11.85 -26.6 -11.35 -27.2 -11.65 -27.95 M-10.4 -25.3 L-10.0 -24.7 Q-9.8 -25.0 -9.7 -25.85 L-9.35 -27.0 -8.3 -28.05 -7.65 -27.4 Q-7.85 -26.95 -8.5 -26.45 L-9.35 -25.5 -9.7 -24.35 -10.0 -23.25 Q-10.7 -23.95 -10.4 -25.3 M-21.25 -10.55 L-21.15 -10.0 Q-20.1 -9.6 -19.15 -10.0 -18.15 -10.5 -18.05 -11.7 L-16.95 -11.15 -17.45 -9.95 -18.05 -10.2 Q-18.15 -9.0 -19.15 -8.5 L-20.6 -8.4 -20.8 -8.45 -21.1 -8.5 -21.15 -8.55 Q-21.45 -9.75 -21.25 -10.55" fill="#d9efff" fill-rule="evenodd" stroke="none"/>
    <path d="M0.15 -33.75 L1.2 -33.9 1.05 -33.7 0.7 -33.55 3.05 -33.4 3.55 -32.65 Q4.0 -31.8 3.5 -31.2 4.1 -30.15 3.15 -29.35 L3.85 -29.1 3.9 -29.15 3.95 -29.1 5.45 -30.1 Q6.2 -30.6 7.25 -30.6 L10.05 -30.35 10.55 -30.95 Q10.05 -31.3 10.05 -31.65 L10.1 -31.9 10.3 -31.8 10.95 -31.6 11.3 -30.5 12.4 -29.5 11.35 -28.45 10.85 -28.15 10.95 -28.1 10.65 -25.4 10.1 -25.4 6.25 -25.75 Q5.4 -25.7 4.9 -25.25 L3.75 -24.45 3.4 -23.8 2.15 -24.3 Q0.5 -25.15 -0.1 -25.75 L-1.45 -27.25 1.25 -28.4 0.15 -29.75 -1.3 -31.5 -1.5 -31.95 -2.9 -30.95 -2.95 -30.85 -2.25 -30.05 -1.45 -28.75 -2.55 -28.25 -2.7 -27.35 -3.0 -27.65 -3.25 -28.15 -3.3 -28.55 -3.15 -30.1 -4.2 -29.2 -4.0 -29.0 -4.3 -29.1 Q-4.9 -28.3 -5.45 -28.1 -5.25 -28.85 -5.65 -29.55 L-6.85 -29.6 -8.15 -29.35 -7.65 -28.9 -8.1 -28.25 -8.3 -28.05 -9.35 -27.0 -9.7 -25.85 Q-9.8 -25.0 -10.0 -24.7 L-10.4 -25.3 -10.5 -26.2 -9.95 -27.7 -11.65 -27.95 -11.85 -28.05 -11.35 -28.7 Q-11.95 -29.3 -11.5 -29.7 L-10.3 -29.75 -10.25 -30.45 -9.75 -30.5 -9.15 -30.6 -6.85 -31.1 -5.45 -31.0 -4.3 -30.55 -4.2 -30.65 Q-4.85 -31.45 -4.5 -31.9 L-3.35 -32.45 Q-3.5 -32.75 -3.25 -33.35 L-3.15 -33.45 -2.4 -33.55 -2.45 -33.6 -2.0 -33.55 0.15 -33.75 M-25.8 -21.55 L-25.8 -22.25 -25.5 -22.6 -23.35 -24.7 -23.35 -24.65 -23.4 -24.2 Q-23.6 -23.25 -24.05 -22.5 L-25.2 -20.65 Q-26.0 -19.4 -25.8 -17.55 L-25.6 -15.95 -25.5 -14.05 -25.25 -12.1 -25.3 -13.9 Q-25.45 -15.25 -25.25 -15.75 -24.25 -15.7 -24.0 -14.65 -23.8 -14.05 -23.85 -12.25 L-23.85 -10.9 Q-23.8 -9.35 -23.25 -8.6 -22.6 -7.85 -21.1 -7.85 L-21.1 -7.65 -20.7 -7.85 Q-20.8 -7.05 -19.9 -6.55 -18.7 -5.9 -18.45 -5.55 L-17.75 -4.1 -16.9 -2.55 -16.85 -2.7 -16.45 -3.55 -16.45 -2.8 -15.8 -2.45 -15.5 -2.75 -15.0 -3.4 -15.0 -3.15 -15.0 -1.85 Q-14.8 -0.1 -15.4 1.05 -15.75 1.7 -16.85 2.5 L-15.3 4.7 -14.55 6.25 -13.85 7.7 -12.55 8.65 Q-11.65 9.05 -11.35 9.45 -10.95 10.0 -10.75 11.2 L-10.6 13.0 -10.3 17.05 Q-10.0 20.05 -9.1 20.4 -9.25 22.05 -8.35 23.05 -7.65 23.85 -5.75 24.5 L-6.2 23.65 Q-6.3 23.25 -5.85 22.85 L-5.95 22.6 Q-6.5 21.7 -5.95 21.1 -6.6 20.2 -5.9 19.6 -5.6 19.25 -4.35 18.75 L-4.8 18.25 Q-4.65 17.05 -2.95 17.25 -2.7 15.45 -0.2 13.45 2.45 11.35 2.85 9.95 L3.85 5.75 4.15 6.15 Q4.85 7.1 4.25 8.95 L3.6 11.5 3.05 13.85 Q2.5 15.75 -0.25 17.85 -2.5 19.7 -2.75 21.0 L-3.0 22.3 -3.4 22.2 -2.85 22.7 -5.9 23.95 -5.85 24.05 -5.1 25.2 -5.75 25.7 Q-5.35 26.45 -5.3 26.9 L-5.1 27.0 -5.3 29.65 -6.05 29.7 Q-7.25 29.7 -8.2 29.1 L-8.15 29.05 Q-11.6 27.5 -11.6 24.5 -12.7 23.15 -13.0 17.7 L-13.15 16.0 Q-13.15 14.3 -13.5 13.85 L-14.15 13.45 Q-15.4 12.95 -16.05 12.0 L-17.0 10.05 -17.55 8.9 -18.15 8.1 Q-19.5 6.4 -19.65 5.5 -19.75 4.15 -18.3 3.0 L-19.15 1.75 -20.15 -0.15 -20.7 -1.25 -21.3 -1.65 Q-22.5 -2.1 -23.0 -3.0 -24.45 -3.15 -25.2 -4.05 -26.25 -5.1 -26.4 -7.6 L-27.55 -7.5 -28.0 -10.9 -28.15 -13.05 Q-28.6 -16.0 -27.5 -17.9 L-26.7 -19.05 Q-26.0 -20.15 -25.9 -21.3 L-25.8 -21.55 M-9.6 -32.4 L-9.55 -32.45 -9.55 -32.3 -9.5 -32.4 -8.6 -32.6 Q-8.95 -32.05 -9.6 -31.75 L-9.9 -32.25 -9.6 -32.4 M-1.9 -25.65 L-0.85 -24.45 -2.3 -24.8 -1.95 -25.55 -1.9 -25.65 M-2.4 -24.75 L-1.5 -24.05 -1.05 -24.4 -1.2 -23.4 -1.0 -22.8 -0.95 -21.75 -1.35 -21.6 -1.4 -21.05 -0.95 -20.3 0.2 -18.75 -1.65 -18.15 -3.15 -17.9 -4.3 -17.9 Q-5.2 -16.95 -6.8 -16.95 L-7.8 -16.95 -9.2 -15.85 -10.95 -14.55 -11.4 -14.3 -11.65 -13.8 Q-12.45 -12.35 -13.3 -11.65 -13.55 -11.35 -14.45 -10.95 L-14.65 -10.85 -14.65 -10.55 Q-14.4 -9.3 -14.8 -8.5 L-16.1 -5.65 -16.75 -7.3 -16.75 -7.1 -17.3 -7.35 -17.8 -7.45 -17.9 -7.6 -18.3 -8.15 -17.9 -9.05 -17.85 -9.1 -17.35 -8.8 -17.7 -9.45 -17.45 -9.95 -16.95 -11.15 -18.05 -11.7 Q-18.15 -10.5 -19.15 -10.0 -20.1 -9.6 -21.15 -10.0 L-21.25 -10.55 Q-21.45 -11.7 -21.05 -12.75 L-19.8 -14.75 Q-19.15 -14.55 -17.95 -13.6 -17.45 -15.6 -16.45 -14.85 -15.6 -14.35 -14.95 -12.75 L-14.85 -13.6 -14.85 -13.65 -14.85 -15.1 -14.0 -15.7 Q-13.2 -16.0 -13.05 -16.15 -12.5 -16.65 -11.85 -17.75 L-10.75 -19.5 -10.45 -19.25 Q-9.95 -19.55 -8.8 -20.55 -7.8 -21.5 -7.2 -21.75 L-5.25 -21.85 -5.2 -21.95 -6.3 -22.0 Q-6.75 -22.8 -6.3 -23.45 -6.7 -24.2 -6.3 -24.95 -5.35 -25.15 -4.25 -23.8 L-3.4 -24.4 -2.45 -24.7 -2.4 -24.75 M-16.95 -4.65 L-16.7 -4.35 -16.5 -4.0 -16.75 -4.1 Q-17.05 -4.25 -16.95 -4.65 M-12.5 -4.95 L-11.65 -5.35 -12.4 -4.25 -12.5 -4.1 -12.55 -4.85 -12.5 -4.95 M14.45 -24.7 L14.55 -24.45 Q14.15 -24.25 14.1 -24.05 L13.95 -23.6 14.45 -23.6 15.2 -23.75 15.75 -24.3 16.15 -24.1 16.6 -24.5 16.4 -23.75 16.55 -23.25 16.75 -23.3 16.6 -23.05 16.6 -22.95 16.5 -22.4 16.2 -22.35 16.45 -22.35 15.95 -21.65 16.75 -21.8 16.45 -21.45 17.4 -21.6 17.8 -20.85 17.55 -20.0 Q18.1 -19.05 17.45 -18.4 16.95 -17.8 15.1 -18.85 L15.1 -18.0 14.7 -17.95 15.1 -17.7 15.1 -17.15 17.7 -16.6 Q19.2 -16.6 19.2 -18.15 20.1 -18.85 20.85 -18.9 L20.9 -19.35 21.5 -19.35 Q22.85 -17.5 23.15 -16.0 L23.65 -16.05 22.65 -17.9 23.8 -17.1 23.15 -18.4 22.65 -19.35 23.7 -18.65 24.5 -17.8 24.85 -16.65 Q25.0 -15.85 25.3 -15.5 L25.35 -15.55 Q25.0 -16.7 25.45 -17.15 L25.95 -16.2 26.55 -15.15 Q26.8 -15.5 27.5 -15.6 27.6 -15.15 28.25 -14.05 28.7 -13.05 28.2 -12.6 L27.75 -12.35 Q27.1 -12.1 26.4 -12.8 L25.2 -13.85 23.9 -12.6 Q22.55 -13.4 22.2 -13.9 21.7 -14.6 21.75 -15.95 L19.1 -15.85 Q18.65 -14.75 16.55 -15.3 L15.95 -15.1 Q15.4 -14.7 15.4 -14.05 L15.15 -12.85 Q14.8 -12.35 14.05 -12.0 L13.1 -11.6 13.6 -12.35 12.7 -12.6 12.65 -14.7 12.5 -16.55 12.25 -17.5 11.35 -17.4 12.1 -18.1 11.9 -18.85 10.4 -19.0 11.7 -20.9 11.75 -21.1 11.2 -21.95 13.05 -22.9 12.05 -25.25 14.45 -24.7 M16.9 -26.2 L16.95 -26.45 17.25 -28.65 18.5 -27.75 17.9 -27.3 18.4 -26.3 19.1 -26.8 19.3 -27.2 19.5 -27.0 20.1 -25.85 Q20.5 -24.8 20.9 -24.4 L20.8 -25.05 21.4 -23.95 Q21.05 -24.8 21.45 -25.2 L21.4 -25.5 21.7 -25.3 22.55 -23.8 Q22.55 -23.2 21.6 -23.3 21.8 -22.85 21.4 -22.45 20.95 -22.9 20.8 -23.5 20.4 -23.6 20.05 -23.95 L18.05 -22.45 17.5 -23.1 18.3 -23.3 17.65 -24.4 16.95 -25.25 16.9 -25.65 17.15 -25.85 16.9 -26.2 M14.55 -23.0 Q14.15 -22.8 14.1 -22.6 L13.95 -22.15 14.2 -22.35 14.5 -22.6 14.25 -21.95 Q15.45 -22.0 15.7 -22.8 15.95 -23.55 15.2 -23.75 15.0 -23.55 14.3 -23.45 L14.55 -23.0 M12.75 -9.95 L12.8 -9.9 13.25 -9.2 12.95 -8.3 12.05 -6.7 12.2 -5.85 Q12.65 -4.6 13.95 -3.3 15.2 -2.05 16.1 -2.0 L16.45 -1.65 16.75 -2.0 16.85 -2.5 20.45 -2.6 Q22.95 -2.6 23.25 -1.3 L22.95 -0.3 23.25 0.2 22.95 1.15 23.4 1.8 23.95 3.35 24.65 4.75 24.15 4.75 24.0 4.9 Q22.85 6.55 23.15 8.85 23.3 11.1 24.7 13.2 L26.65 11.45 Q27.65 10.5 28.0 9.4 L28.35 8.1 28.95 6.9 30.55 5.0 30.55 4.95 30.45 3.6 30.5 3.1 30.45 2.1 30.65 0.8 31.05 -0.4 31.45 -1.7 32.75 -1.3 32.1 0.75 31.25 3.45 30.65 5.7 30.75 6.6 Q31.05 8.2 30.7 8.95 30.55 9.55 29.5 10.55 L28.95 11.2 28.4 12.45 28.2 13.35 Q27.55 15.2 25.0 17.25 L24.4 17.7 23.3 18.7 22.45 17.45 Q20.95 15.25 20.65 12.55 20.35 9.65 21.75 7.7 L21.05 5.9 20.85 5.6 Q20.4 5.05 20.25 4.2 20.15 3.6 20.6 2.6 L20.65 2.5 19.4 2.3 16.65 2.5 16.5 2.6 15.75 4.2 14.3 2.8 Q12.65 2.3 11.05 0.3 9.4 -1.75 9.5 -3.3 9.65 -4.35 10.55 -5.35 L10.65 -5.5 Q9.9 -6.05 9.85 -7.0 9.85 -8.0 10.85 -8.9 11.25 -9.35 12.3 -9.75 L12.75 -9.95 M29.2 -9.6 Q28.8 -10.55 28.75 -11.35 29.6 -11.15 30.4 -9.3 L31.3 -6.6 Q31.8 -6.6 32.0 -6.9 L30.45 -10.0 Q31.2 -9.6 31.95 -8.55 L30.45 -11.5 31.6 -10.45 Q32.35 -8.3 32.7 -5.95 L32.05 -5.65 32.4 -4.65 Q31.95 -4.05 31.3 -5.1 L30.65 -6.8 29.2 -9.6 M31.8 -3.0 L32.4 -4.55 Q32.55 -3.55 32.1 -2.75 L31.6 -2.15 31.8 -3.0" fill="#537b7e" fill-rule="evenodd" stroke="none"/>
    <path d="M-3.1 -33.6 L0.0 -33.75 0.15 -33.75 -2.0 -33.55 -2.45 -33.6 -2.4 -33.55 -3.15 -33.45 -3.1 -33.6 M1.05 -33.7 L2.8 -33.65 3.05 -33.4 0.7 -33.55 1.05 -33.7 M10.3 -32.2 Q14.8 -30.8 18.8 -28.05 L18.5 -27.75 17.25 -28.65 16.95 -26.45 16.9 -26.2 15.5 -26.8 16.45 -25.0 16.6 -24.5 16.15 -24.1 15.75 -24.3 15.65 -24.9 14.25 -24.95 14.45 -24.7 12.05 -25.25 13.05 -22.9 11.2 -21.95 11.75 -21.1 11.7 -20.9 10.4 -19.0 11.9 -18.85 12.1 -18.1 11.35 -17.4 12.25 -17.5 12.5 -16.55 12.65 -14.7 12.7 -12.6 13.6 -12.35 13.1 -11.6 12.95 -11.45 Q12.3 -10.85 12.35 -10.45 L12.75 -9.95 12.3 -9.75 Q11.25 -9.35 10.85 -8.9 9.85 -8.0 9.85 -7.0 9.9 -6.05 10.65 -5.5 L10.55 -5.35 Q9.65 -4.35 9.5 -3.3 9.4 -1.75 11.05 0.3 12.65 2.3 14.3 2.8 L15.75 4.2 16.5 2.6 16.65 2.5 19.4 2.3 20.65 2.5 20.6 2.6 Q20.15 3.6 20.25 4.2 20.4 5.05 20.85 5.6 L21.05 5.9 21.75 7.7 Q20.35 9.65 20.65 12.55 20.95 15.25 22.45 17.45 L23.3 18.7 24.4 17.7 25.0 17.25 Q27.55 15.2 28.2 13.35 L28.4 12.45 28.95 11.2 29.5 10.55 Q30.55 9.55 30.7 8.95 31.05 8.2 30.75 6.6 L30.65 5.7 31.25 3.45 32.1 0.75 32.75 -1.3 31.45 -1.7 31.6 -2.15 32.1 -2.75 Q32.55 -3.55 32.4 -4.55 L32.55 -5.1 32.4 -4.65 32.05 -5.65 32.7 -5.95 Q32.35 -8.3 31.6 -10.45 L32.05 -9.9 32.2 -9.7 Q33.25 -5.85 33.45 -1.55 32.95 11.9 23.25 21.25 13.55 30.7 0.0 30.7 -13.55 30.7 -23.25 21.25 -32.95 11.9 -33.45 -1.55 -33.0 -13.1 -25.8 -21.55 L-25.9 -21.3 Q-26.0 -20.15 -26.7 -19.05 L-27.5 -17.9 Q-28.6 -16.0 -28.15 -13.05 L-28.0 -10.9 -27.55 -7.5 -26.4 -7.6 Q-26.25 -5.1 -25.2 -4.05 -24.45 -3.15 -23.0 -3.0 -22.5 -2.1 -21.3 -1.65 L-20.7 -1.25 -20.15 -0.15 -19.15 1.75 -18.3 3.0 Q-19.75 4.15 -19.65 5.5 -19.5 6.4 -18.15 8.1 L-17.55 8.9 -17.0 10.05 -16.05 12.0 Q-15.4 12.95 -14.15 13.45 L-13.5 13.85 Q-13.15 14.3 -13.15 16.0 L-13.0 17.7 Q-12.7 23.15 -11.6 24.5 -11.6 27.5 -8.15 29.05 L-8.2 29.1 Q-7.25 29.7 -6.05 29.7 L-5.3 29.65 -5.1 27.0 -5.3 26.9 Q-5.35 26.45 -5.75 25.7 L-5.1 25.2 -5.85 24.05 -5.9 23.95 -2.85 22.7 -3.4 22.2 -3.0 22.3 -2.75 21.0 Q-2.5 19.7 -0.25 17.85 2.5 15.75 3.05 13.85 L3.6 11.5 4.25 8.95 Q4.85 7.1 4.15 6.15 L3.85 5.75 4.05 5.0 4.1 4.8 Q4.55 3.25 3.45 3.05 L0.85 2.6 Q1.4 1.55 0.35 1.15 L-1.55 0.55 Q-2.15 0.1 -2.45 -1.15 -2.8 -2.35 -3.25 -2.7 -3.8 -3.15 -4.2 -2.9 -4.75 -2.55 -5.2 -2.65 L-5.9 -3.15 -6.65 -3.7 -9.45 -5.55 Q-10.6 -4.1 -11.6 -5.35 L-11.65 -5.4 -11.65 -5.35 -12.5 -4.95 -12.15 -6.55 -13.65 -5.05 Q-14.4 -4.2 -15.55 -4.9 L-16.4 -3.95 -16.5 -4.0 -16.7 -4.35 -16.95 -4.65 -16.95 -4.75 -16.75 -5.6 -16.75 -7.1 -16.75 -7.3 -16.1 -5.65 -14.8 -8.5 Q-14.4 -9.3 -14.65 -10.55 L-14.65 -10.85 -14.45 -10.95 Q-13.55 -11.35 -13.3 -11.65 -12.45 -12.35 -11.65 -13.8 L-11.4 -14.3 -10.95 -14.55 -9.2 -15.85 -7.8 -16.95 -6.8 -16.95 Q-5.2 -16.95 -4.3 -17.9 L-3.15 -17.9 -1.65 -18.15 0.2 -18.75 -0.95 -20.3 -1.4 -21.05 -1.35 -21.6 -0.95 -21.75 -1.0 -22.8 -1.2 -23.4 -1.05 -24.4 -1.5 -24.05 -2.4 -24.75 -2.3 -24.8 -0.85 -24.45 -1.9 -25.65 Q-1.8 -26.1 -1.3 -26.2 -1.35 -26.85 -1.95 -27.1 L-2.7 -27.35 -2.55 -28.25 -1.45 -28.75 -2.25 -30.05 -2.95 -30.85 -2.9 -30.95 -1.5 -31.95 -1.3 -31.5 0.15 -29.75 1.25 -28.4 -1.45 -27.25 -0.1 -25.75 Q0.5 -25.15 2.15 -24.3 L3.4 -23.8 3.75 -24.45 4.9 -25.25 Q5.4 -25.7 6.25 -25.75 L10.1 -25.4 10.65 -25.4 10.95 -28.1 10.85 -28.15 11.35 -28.45 12.4 -29.5 11.3 -30.5 10.95 -31.6 10.3 -31.8 10.1 -31.9 10.3 -32.2 M-9.95 -32.3 L-9.6 -32.4 -9.9 -32.25 -9.95 -32.3 M-9.55 -32.45 L-8.55 -32.7 -8.6 -32.6 -9.5 -32.4 -9.55 -32.3 -9.55 -32.45 M15.1 -17.7 L14.7 -17.95 15.1 -18.0 15.1 -17.7 M21.4 -25.5 L21.4 -25.55 21.4 -25.95 21.7 -25.3 21.4 -25.5 M19.5 -27.0 L19.3 -27.2 19.3 -27.25 19.3 -27.3 19.5 -27.0 M16.9 -25.65 L16.95 -25.25 16.7 -25.5 16.9 -25.65 M-15.0 -3.4 L-15.5 -2.75 -15.8 -2.45 -16.45 -2.8 -16.45 -3.55 -16.25 -3.75 -15.05 -3.8 -15.0 -3.4 M-20.7 -7.85 L-21.1 -7.65 -21.1 -7.85 -20.7 -7.9 -20.7 -7.85 M-17.7 -9.45 L-17.35 -8.8 -17.85 -9.1 -17.7 -9.45" fill="url(#gradient0)" fill-rule="evenodd" stroke="none"/>
    <path d="M-9.15 -30.6 Q-8.6 -31.0 -8.35 -31.75 L-8.1 -32.7 -8.05 -32.8 -8.0 -33.1 -3.4 -34.0 -3.15 -33.6 -3.1 -33.6 -3.15 -33.45 -3.25 -33.35 Q-3.5 -32.75 -3.35 -32.45 L-4.5 -31.9 Q-4.85 -31.45 -4.2 -30.65 L-4.3 -30.55 -5.45 -31.0 -6.85 -31.1 -9.15 -30.6" fill="url(#gradient1)" fill-rule="evenodd" stroke="none"/>
    <path d="M2.8 -33.65 L2.3 -34.2 Q6.7 -34.0 10.85 -32.6 L10.3 -32.2 10.1 -31.9 10.05 -31.65 Q10.05 -31.3 10.55 -30.95 L10.05 -30.35 7.25 -30.6 Q6.2 -30.6 5.45 -30.1 L3.95 -29.1 3.9 -29.15 3.85 -29.1 3.15 -29.35 Q4.1 -30.15 3.5 -31.2 4.0 -31.8 3.55 -32.65 L3.05 -33.4 2.8 -33.65" fill="url(#gradient2)" fill-rule="evenodd" stroke="none"/>
    <path d="M16.6 -22.95 L16.6 -23.05 16.75 -23.3 16.55 -23.25 16.4 -23.75 16.6 -24.5 16.45 -25.0 16.85 -24.75 17.15 -24.35 16.7 -24.0 17.5 -23.1 16.6 -22.95" fill="url(#gradient3)" fill-rule="evenodd" stroke="none"/>
    <path d="M14.55 -23.0 L14.3 -23.45 Q15.0 -23.55 15.2 -23.75 15.95 -23.55 15.7 -22.8 15.45 -22.0 14.25 -21.95 L14.5 -22.6 14.2 -22.35 13.95 -22.15 14.1 -22.6 Q14.15 -22.8 14.55 -23.0" fill="url(#gradient4)" fill-rule="evenodd" stroke="none"/>
    <path d="M16.45 -22.35 L16.2 -22.35 16.5 -22.4 17.6 -22.9 17.85 -22.3 17.7 -22.25 16.95 -22.05 16.45 -22.35" fill="url(#gradient5)" fill-rule="evenodd" stroke="none"/>
    <path d="M17.4 -21.6 L16.45 -21.45 16.75 -21.8 15.95 -21.65 16.45 -22.35 16.95 -22.05 17.7 -22.25 16.7 -21.9 17.4 -21.6 M16.5 -22.4 L16.6 -22.95 17.5 -23.1 18.05 -22.45 17.85 -22.3 17.6 -22.9 16.5 -22.4" fill="url(#gradient6)" fill-rule="evenodd" stroke="none"/>
    <path d="M22.2 -26.1 Q28.75 -20.2 31.45 -12.0 L32.05 -9.9 31.6 -10.45 30.45 -11.5 31.95 -8.55 Q31.2 -9.6 30.45 -10.0 L32.0 -6.9 Q31.8 -6.6 31.3 -6.6 L30.4 -9.3 Q29.6 -11.15 28.75 -11.35 28.8 -10.55 29.2 -9.6 L28.75 -9.85 Q28.8 -8.85 29.5 -7.55 L30.65 -5.35 31.15 -4.05 Q31.5 -3.15 31.8 -3.0 L31.6 -2.15 31.45 -1.7 31.05 -0.4 30.65 0.8 30.45 2.1 30.5 3.1 30.45 3.6 30.55 4.95 30.55 5.0 28.95 6.9 28.35 8.1 28.0 9.4 Q27.65 10.5 26.65 11.45 L24.7 13.2 Q23.3 11.1 23.15 8.85 23.3 7.15 24.15 6.2 L24.65 6.2 24.0 4.9 24.15 4.75 24.65 4.75 23.95 3.35 23.4 1.8 22.95 1.15 23.25 0.2 22.95 -0.3 23.25 -1.3 Q22.95 -2.6 20.45 -2.6 L16.85 -2.5 16.75 -2.0 16.45 -1.65 16.1 -2.0 Q15.2 -2.05 13.95 -3.3 12.65 -4.6 12.2 -5.85 L12.85 -6.7 Q13.3 -7.25 13.25 -7.65 L12.95 -8.3 13.25 -9.2 12.8 -9.9 12.95 -10.0 14.05 -10.55 15.15 -11.35 15.4 -12.6 Q15.4 -13.2 15.95 -13.65 L18.8 -14.35 21.75 -14.4 Q21.7 -13.1 22.2 -12.4 22.55 -11.85 23.9 -11.05 L25.2 -12.4 26.4 -11.35 Q27.1 -10.65 27.75 -10.85 28.85 -11.25 28.2 -12.6 28.7 -13.05 28.25 -14.05 27.6 -15.15 27.5 -15.6 26.8 -15.5 26.55 -15.15 L25.95 -16.2 25.45 -17.15 Q25.0 -16.7 25.35 -15.55 L25.3 -15.5 Q25.0 -15.85 24.85 -16.65 L24.5 -17.8 23.7 -18.65 22.65 -19.35 23.15 -18.4 23.8 -17.1 22.65 -17.9 23.65 -16.05 23.15 -16.0 Q22.85 -17.5 21.5 -19.35 L20.9 -19.35 20.85 -18.9 Q20.1 -18.85 19.2 -18.15 19.2 -16.6 17.7 -16.6 L15.1 -17.15 15.1 -17.7 15.1 -18.0 15.1 -18.85 Q16.95 -17.8 17.45 -18.4 18.1 -19.05 17.55 -20.0 L17.8 -20.85 Q18.4 -21.1 20.05 -22.5 20.8 -21.8 21.85 -21.8 22.95 -21.8 22.45 -22.95 L23.05 -23.0 22.55 -23.8 22.45 -24.45 22.65 -24.45 23.05 -24.5 Q22.35 -25.65 22.2 -26.1" fill="url(#gradient7)" fill-rule="evenodd" stroke="none"/>
    <path d="M-25.8 -17.55 Q-25.6 -18.65 -25.2 -19.2 L-24.05 -21.05 Q-23.5 -21.9 -23.35 -23.2 L-23.35 -23.75 Q-19.3 -28.15 -13.95 -30.75 L-13.15 -31.15 -12.45 -31.5 -10.4 -32.3 -9.95 -32.5 -9.95 -32.3 -9.95 -32.25 Q-10.05 -30.95 -9.75 -30.5 L-10.25 -30.45 -10.3 -29.75 -11.5 -29.7 Q-11.95 -29.3 -11.35 -28.7 L-11.85 -28.05 -11.65 -27.95 -11.35 -27.2 -11.85 -26.6 -10.5 -26.2 -10.4 -25.3 Q-10.7 -23.95 -10.0 -23.25 L-9.7 -24.35 -9.35 -25.5 -8.5 -26.45 Q-7.85 -26.95 -7.65 -27.4 L-8.3 -28.05 -8.1 -28.25 -6.4 -28.9 -5.55 -27.9 Q-5.3 -27.35 -5.45 -26.6 L-4.35 -27.55 -3.3 -28.55 -3.25 -28.15 Q-3.45 -26.8 -3.0 -26.2 L-2.5 -25.8 -1.95 -25.55 -2.3 -24.8 -2.4 -24.75 -2.45 -24.7 -3.4 -24.4 -4.25 -23.8 Q-5.35 -25.15 -6.3 -24.95 -6.7 -24.2 -6.3 -23.45 -6.75 -22.8 -6.3 -22.0 L-5.2 -21.95 -5.25 -21.85 -7.2 -21.75 Q-7.8 -21.5 -8.8 -20.55 -9.95 -19.55 -10.45 -19.25 L-10.75 -19.5 -11.85 -17.75 Q-12.5 -16.65 -13.05 -16.15 -13.2 -16.0 -14.0 -15.7 L-14.85 -15.1 -14.85 -13.65 -14.85 -13.6 -14.95 -12.75 Q-15.6 -14.35 -16.45 -14.85 -17.45 -15.6 -17.95 -13.6 -19.15 -14.55 -19.8 -14.75 L-21.05 -12.75 Q-21.45 -11.7 -21.25 -10.55 -21.45 -9.75 -21.15 -8.55 L-21.1 -8.5 -20.8 -8.45 -20.6 -8.4 -19.15 -8.5 Q-18.15 -9.0 -18.05 -10.2 L-17.45 -9.95 -17.7 -9.45 -17.85 -9.1 -17.9 -9.05 -18.3 -8.15 -17.9 -7.6 -18.35 -6.65 -17.8 -5.95 -17.3 -5.85 -16.75 -5.6 -16.95 -4.75 -16.95 -4.65 Q-17.05 -4.25 -16.75 -4.1 L-16.95 -3.3 Q-17.1 -2.95 -16.85 -2.7 L-16.9 -2.55 -17.75 -4.1 -18.45 -5.55 Q-18.7 -5.9 -19.9 -6.55 -20.8 -7.05 -20.7 -7.85 L-20.7 -7.9 -21.1 -7.85 Q-22.6 -7.85 -23.25 -8.6 -23.8 -9.35 -23.85 -10.9 L-23.85 -12.25 Q-23.8 -14.05 -24.0 -14.65 -24.25 -15.7 -25.25 -15.75 -25.45 -15.25 -25.3 -13.9 L-25.25 -12.1 -25.5 -14.05 -25.6 -15.95 -25.8 -17.55" fill="url(#gradient8)" fill-rule="evenodd" stroke="none"/>
    <path d="M21.5 -26.7 L22.2 -26.1 Q22.35 -25.65 23.05 -24.5 L22.65 -24.45 22.45 -24.45 22.55 -23.8 21.7 -25.3 21.4 -25.95 21.4 -25.55 21.4 -25.5 21.45 -25.2 21.45 -25.25 21.4 -25.4 21.25 -25.85 21.25 -25.9 21.25 -26.15 21.5 -26.7" fill="url(#gradient9)" fill-rule="evenodd" stroke="none"/>
    <path d="M18.9 -28.15 L19.35 -28.45 21.0 -27.15 21.0 -27.1 20.8 -26.5 20.9 -25.95 21.0 -25.7 20.8 -25.05 20.9 -24.4 Q20.5 -24.8 20.1 -25.85 L19.5 -27.0 19.3 -27.3 19.3 -27.25 18.95 -27.9 18.9 -28.15" fill="url(#gradient10)" fill-rule="evenodd" stroke="none"/>
    <path d="M21.0 -27.1 L21.5 -26.7 21.25 -26.15 21.25 -25.9 21.25 -25.85 21.4 -25.4 21.45 -25.25 21.45 -25.2 Q21.05 -24.8 21.4 -23.95 L20.8 -25.05 21.0 -25.7 20.9 -25.95 20.8 -26.5 21.0 -27.1" fill="url(#gradient11)" fill-rule="evenodd" stroke="none"/>
    <path d="M18.8 -28.05 L18.9 -28.15 18.95 -27.9 19.3 -27.25 19.3 -27.2 19.1 -26.8 18.4 -26.3 17.9 -27.3 18.5 -27.75 18.8 -28.05" fill="url(#gradient12)" fill-rule="evenodd" stroke="none"/>
    <path d="M18.05 -22.45 L18.3 -21.85 17.4 -21.6 16.7 -21.9 17.7 -22.25 17.85 -22.3 18.05 -22.45" fill="url(#gradient13)" fill-rule="evenodd" stroke="none"/>
    <path d="M33.45 -1.55 L33.45 2.75 Q33.45 16.65 23.65 26.45 13.8 36.3 0.0 36.3 -13.9 36.3 -23.65 26.45 -33.45 16.65 -33.45 2.75 L-33.45 -1.55 Q-32.95 11.9 -23.25 21.25 -13.55 30.7 0.0 30.7 13.55 30.7 23.25 21.25 32.95 11.9 33.45 -1.55" fill="#3e5153" fill-rule="evenodd" stroke="none"/>
    <path d="M4.1 4.8 L4.05 5.0 3.85 5.75 2.85 9.95 Q2.45 11.35 -0.2 13.45 -2.7 15.45 -2.95 17.25 -4.65 17.05 -4.8 18.25 L-4.35 18.75 Q-5.6 19.25 -5.9 19.6 -6.6 20.2 -5.95 21.1 -6.5 21.7 -5.95 22.6 L-5.85 22.85 Q-6.3 23.25 -6.2 23.65 L-5.75 24.5 Q-7.65 23.85 -8.35 23.05 -9.25 22.05 -9.1 20.4 -10.0 20.05 -10.3 17.05 L-10.6 13.0 -10.75 11.2 Q-10.95 10.0 -11.35 9.45 -11.65 9.05 -12.55 8.65 L-13.85 7.7 -14.55 6.25 -15.3 4.7 -16.85 2.5 Q-15.75 1.7 -15.4 1.05 -14.8 -0.1 -15.0 -1.85 L-15.0 -3.15 Q-14.25 -2.95 -13.65 -3.6 L-12.55 -4.85 -12.5 -4.1 -12.4 -4.25 -12.5 -2.6 -12.45 -2.65 -12.1 -3.1 -11.65 -3.9 -11.65 -3.95 -11.55 -3.8 -11.15 -3.45 Q-10.7 -3.15 -10.15 -3.45 L-9.45 -4.1 -6.65 -2.25 -5.9 -1.65 -5.2 -1.2 -4.2 -1.35 -3.25 -1.2 Q-2.8 -0.85 -2.45 0.35 -2.15 1.55 -1.55 2.0 L0.35 2.65 Q1.4 3.0 0.85 4.05 L2.8 4.45 Q3.85 4.5 4.1 4.8" fill="url(#gradient14)" fill-rule="evenodd" stroke="none"/>
  </g>
  <defs>
    <linearGradient gradientTransform="matrix(0.0292, -0.0292, -0.0292, -0.0292, 0.9, -2.45)" gradientUnits="userSpaceOnUse" id="gradient0" spreadMethod="pad" x1="-819.2" x2="819.2">
      <stop offset="0.2549019607843137" stop-color="#749286"/>
      <stop offset="0.611764705882353" stop-color="#d3e7da"/>
      <stop offset="1.0" stop-color="#a2c1c1"/>
    </linearGradient>
    <linearGradient gradientTransform="matrix(0.0282, -0.0163, -0.0163, -0.0282, -8.5, -30.5)" gradientUnits="userSpaceOnUse" id="gradient1" spreadMethod="pad" x1="-819.2" x2="819.2">
      <stop offset="0.2549019607843137" stop-color="#749286"/>
      <stop offset="0.611764705882353" stop-color="#d3e7da"/>
      <stop offset="1.0" stop-color="#a2c1c1"/>
    </linearGradient>
    <linearGradient gradientTransform="matrix(0.0282, -0.0163, -0.0163, -0.0282, -5.6, -25.45)" gradientUnits="userSpaceOnUse" id="gradient2" spreadMethod="pad" x1="-819.2" x2="819.2">
      <stop offset="0.2549019607843137" stop-color="#749286"/>
      <stop offset="0.611764705882353" stop-color="#d3e7da"/>
      <stop offset="1.0" stop-color="#a2c1c1"/>
    </linearGradient>
    <linearGradient gradientTransform="matrix(0.0331, -0.0191, -0.0191, -0.0331, -2.2, -13.05)" gradientUnits="userSpaceOnUse" id="gradient3" spreadMethod="pad" x1="-819.2" x2="819.2">
      <stop offset="0.2549019607843137" stop-color="#749286"/>
      <stop offset="0.611764705882353" stop-color="#d3e7da"/>
      <stop offset="1.0" stop-color="#a2c1c1"/>
    </linearGradient>
    <linearGradient gradientTransform="matrix(0.0282, -0.0163, -0.0163, -0.0282, 0.0, -14.3)" gradientUnits="userSpaceOnUse" id="gradient4" spreadMethod="pad" x1="-819.2" x2="819.2">
      <stop offset="0.2549019607843137" stop-color="#749286"/>
      <stop offset="0.611764705882353" stop-color="#d3e7da"/>
      <stop offset="1.0" stop-color="#a2c1c1"/>
    </linearGradient>
    <linearGradient gradientTransform="matrix(0.0282, -0.0163, -0.0163, -0.0282, 1.25, -13.25)" gradientUnits="userSpaceOnUse" id="gradient5" spreadMethod="pad" x1="-819.2" x2="819.2">
      <stop offset="0.2549019607843137" stop-color="#749286"/>
      <stop offset="0.611764705882353" stop-color="#d3e7da"/>
      <stop offset="1.0" stop-color="#a2c1c1"/>
    </linearGradient>
    <linearGradient gradientTransform="matrix(0.0282, -0.0163, -0.0163, -0.0282, 0.85, -12.9)" gradientUnits="userSpaceOnUse" id="gradient6" spreadMethod="pad" x1="-819.2" x2="819.2">
      <stop offset="0.2549019607843137" stop-color="#749286"/>
      <stop offset="0.611764705882353" stop-color="#d3e7da"/>
      <stop offset="1.0" stop-color="#a2c1c1"/>
    </linearGradient>
    <linearGradient gradientTransform="matrix(0.0282, -0.0163, -0.0163, -0.0282, 9.9, 1.35)" gradientUnits="userSpaceOnUse" id="gradient7" spreadMethod="pad" x1="-819.2" x2="819.2">
      <stop offset="0.2549019607843137" stop-color="#749286"/>
      <stop offset="0.611764705882353" stop-color="#d3e7da"/>
      <stop offset="1.0" stop-color="#a2c1c1"/>
    </linearGradient>
    <linearGradient gradientTransform="matrix(0.0282, -0.0163, -0.0163, -0.0282, -4.25, -23.2)" gradientUnits="userSpaceOnUse" id="gradient8" spreadMethod="pad" x1="-819.2" x2="819.2">
      <stop offset="0.2549019607843137" stop-color="#749286"/>
      <stop offset="0.611764705882353" stop-color="#d3e7da"/>
      <stop offset="1.0" stop-color="#a2c1c1"/>
    </linearGradient>
    <linearGradient gradientTransform="matrix(0.0282, -0.0163, -0.0163, -0.0282, 0.75, -12.95)" gradientUnits="userSpaceOnUse" id="gradient9" spreadMethod="pad" x1="-819.2" x2="819.2">
      <stop offset="0.2549019607843137" stop-color="#749286"/>
      <stop offset="0.611764705882353" stop-color="#d3e7da"/>
      <stop offset="1.0" stop-color="#a2c1c1"/>
    </linearGradient>
    <linearGradient gradientTransform="matrix(0.0282, -0.0163, -0.0163, -0.0282, 0.25, -15.0)" gradientUnits="userSpaceOnUse" id="gradient10" spreadMethod="pad" x1="-819.2" x2="819.2">
      <stop offset="0.2549019607843137" stop-color="#749286"/>
      <stop offset="0.611764705882353" stop-color="#d3e7da"/>
      <stop offset="1.0" stop-color="#a2c1c1"/>
    </linearGradient>
    <linearGradient gradientTransform="matrix(0.0282, -0.0163, -0.0163, -0.0282, 0.1, -14.15)" gradientUnits="userSpaceOnUse" id="gradient11" spreadMethod="pad" x1="-819.2" x2="819.2">
      <stop offset="0.2549019607843137" stop-color="#749286"/>
      <stop offset="0.611764705882353" stop-color="#d3e7da"/>
      <stop offset="1.0" stop-color="#a2c1c1"/>
    </linearGradient>
    <linearGradient gradientTransform="matrix(0.0282, -0.0163, -0.0163, -0.0282, -0.4, -16.2)" gradientUnits="userSpaceOnUse" id="gradient12" spreadMethod="pad" x1="-819.2" x2="819.2">
      <stop offset="0.2549019607843137" stop-color="#749286"/>
      <stop offset="0.611764705882353" stop-color="#d3e7da"/>
      <stop offset="1.0" stop-color="#a2c1c1"/>
    </linearGradient>
    <linearGradient gradientTransform="matrix(0.0282, -0.0163, -0.0163, -0.0282, 1.1, -12.4)" gradientUnits="userSpaceOnUse" id="gradient13" spreadMethod="pad" x1="-819.2" x2="819.2">
      <stop offset="0.2549019607843137" stop-color="#749286"/>
      <stop offset="0.611764705882353" stop-color="#d3e7da"/>
      <stop offset="1.0" stop-color="#a2c1c1"/>
    </linearGradient>
    <linearGradient gradientTransform="matrix(0.0282, -0.0163, -0.0163, -0.0282, 8.8, -0.55)" gradientUnits="userSpaceOnUse" id="gradient14" spreadMethod="pad" x1="-819.2" x2="819.2">
      <stop offset="0.2549019607843137" stop-color="#749286"/>
      <stop offset="0.611764705882353" stop-color="#d3e7da"/>
      <stop offset="1.0" stop-color="#a2c1c1"/>
    </linearGradient>
  </defs>
</svg>
