<?xml version="1.0" encoding="UTF-8" standalone="no"?>
<svg xmlns:ffdec="https://www.free-decompiler.com/flash" xmlns:xlink="http://www.w3.org/1999/xlink" ffdec:objectType="shape" height="22.7px" width="131.7px" xmlns="http://www.w3.org/2000/svg">
  <g transform="matrix(1.0, 0.0, 0.0, 1.0, 52.8, 9.4)">
    <path d="M-50.4 -9.4 L5.5 -9.4 Q6.5 -9.4 7.2 -8.7 7.9 -8.0 7.9 -7.0 L7.9 10.9 Q7.9 11.85 7.2 12.6 6.5 13.3 5.5 13.3 L-50.4 13.3 Q-51.4 13.3 -52.1 12.6 -52.8 11.85 -52.8 10.9 L-52.8 -7.0 Q-52.8 -8.0 -52.1 -8.7 -51.4 -9.4 -50.4 -9.4" fill="#000000" fill-rule="evenodd" stroke="none"/>
    <path d="M-49.25 -0.3 L-46.65 -0.7 -45.5 -3.05 Q-45.15 -3.7 -44.45 -3.7 -43.7 -3.7 -43.35 -3.05 L-42.25 -0.7 -39.6 -0.3 Q-38.85 -0.2 -38.65 0.5 L-38.65 1.1 -38.95 1.7 -40.85 3.5 -40.4 6.1 Q-40.25 6.85 -40.85 7.25 L-41.55 7.5 -42.1 7.35 -44.45 6.1 -46.75 7.35 -47.3 7.5 -48.0 7.25 Q-48.6 6.85 -48.45 6.1 L-48.0 3.5 -49.9 1.7 -50.25 1.1 -50.2 0.5 Q-50.0 -0.2 -49.25 -0.3" fill="#f9ec23" fill-rule="evenodd" stroke="none"/>
    <path d="M20.6 -9.4 L76.5 -9.4 Q77.5 -9.4 78.2 -8.7 78.9 -8.0 78.9 -7.0 L78.9 10.9 Q78.9 11.85 78.2 12.6 77.5 13.3 76.5 13.3 L20.6 13.3 Q19.6 13.3 18.9 12.6 18.2 11.85 18.2 10.9 L18.2 -7.0 Q18.2 -8.0 18.9 -8.7 19.6 -9.4 20.6 -9.4" fill="#000000" fill-rule="evenodd" stroke="none"/>
  </g>
</svg>
