<?xml version="1.0" encoding="UTF-8" standalone="no"?>
<svg xmlns:ffdec="https://www.free-decompiler.com/flash" xmlns:xlink="http://www.w3.org/1999/xlink" ffdec:objectType="shape" height="64.75px" width="70.5px" xmlns="http://www.w3.org/2000/svg">
  <g transform="matrix(1.0, 0.0, 0.0, 1.0, 35.25, 32.35)">
    <path d="M-29.25 -17.65 Q-29.85 -10.45 -29.8 -2.2 -29.75 7.5 -28.9 14.55 -28.15 20.3 -27.2 22.35 -23.7 23.45 -13.35 24.45 L9.45 25.5 23.95 24.55 Q25.15 22.55 26.35 16.7 27.9 9.55 28.8 -0.4 29.6 -8.75 29.65 -15.95 29.7 -22.3 29.25 -25.25 25.35 -26.4 15.5 -27.3 L-7.4 -28.35 Q-22.85 -28.35 -28.05 -26.65 -28.75 -23.95 -29.25 -17.65 M22.45 -30.55 Q32.5 -29.2 33.7 -27.55 36.6 -23.75 34.15 1.95 31.65 28.3 26.9 30.7 21.9 33.15 -1.65 32.1 -24.9 31.05 -30.2 28.35 -34.95 26.0 -35.2 0.7 -35.5 -23.7 -32.5 -28.7 -29.85 -33.15 0.7 -32.2 L22.45 -30.55" fill="#4a4eb0" fill-rule="evenodd" stroke="none"/>
    <path d="M-29.25 -17.65 Q-28.75 -23.95 -28.05 -26.65 -22.85 -28.35 -7.4 -28.35 L15.5 -27.3 Q25.35 -26.4 29.25 -25.25 29.7 -22.3 29.65 -15.95 29.6 -8.75 28.8 -0.4 27.9 9.55 26.35 16.7 25.15 22.55 23.95 24.55 L9.45 25.5 -13.35 24.45 Q-23.7 23.45 -27.2 22.35 -28.15 20.3 -28.9 14.55 -29.75 7.5 -29.8 -2.2 -29.85 -10.45 -29.25 -17.65" fill="#59b6f2" fill-rule="evenodd" stroke="none"/>
    <path d="M16.35 15.75 Q14.1 17.25 12.3 16.65 10.5 16.05 10.05 13.65 9.8 12.05 11.05 9.05 12.35 6.05 12.05 4.5 11.65 2.4 3.0 2.4 L-7.9 3.1 Q-9.85 3.5 -6.55 6.6 L-1.3 11.55 Q-0.35 12.9 -1.55 15.75 -2.8 18.8 -5.1 18.3 -8.9 17.55 -16.65 10.75 -24.9 3.6 -25.75 -0.8 -26.5 -4.95 -18.35 -13.95 -11.3 -21.75 -7.9 -23.4 -5.95 -24.4 -2.8 -22.2 0.2 -20.05 -0.4 -18.9 -1.05 -17.7 -6.15 -12.5 -10.0 -8.55 -8.25 -8.85 -2.7 -9.9 3.5 -9.95 13.85 -9.95 19.35 -6.6 25.3 -3.0 22.35 6.0 19.85 13.5 16.35 15.75" fill="#ffffff" fill-rule="evenodd" stroke="none"/>
  </g>
</svg>
