<?xml version="1.0" encoding="UTF-8" standalone="no"?>
<svg xmlns:ffdec="https://www.free-decompiler.com/flash" xmlns:xlink="http://www.w3.org/1999/xlink" ffdec:objectType="shape" height="53.0px" width="57.7px" xmlns="http://www.w3.org/2000/svg">
  <g transform="matrix(1.0, 0.0, 0.0, 1.0, 28.85, 26.5)">
    <path d="M-24.0 -14.5 Q-24.5 -8.6 -24.45 -1.85 -24.4 6.15 -23.65 11.9 -23.1 16.55 -22.25 18.3 -19.45 19.2 -11.0 20.0 L7.7 20.85 19.6 20.1 Q20.5 18.4 21.5 13.65 22.75 7.8 23.55 -0.35 24.15 -7.2 24.2 -13.1 24.25 -18.25 23.9 -20.7 20.7 -21.65 12.65 -22.35 L-6.05 -23.2 Q-18.7 -23.2 -23.0 -21.8 -23.6 -19.6 -24.0 -14.5 M18.3 -25.0 Q26.55 -23.95 27.55 -22.6 29.95 -19.5 27.9 1.6 25.9 23.15 21.95 25.05 17.85 27.1 -1.4 26.25 -20.45 25.4 -24.75 23.2 -28.6 21.25 -28.85 0.55 -29.05 -19.45 -26.65 -23.55 -24.5 -27.2 0.55 -26.35 L18.3 -25.0" fill="#4a4eb0" fill-rule="evenodd" stroke="none"/>
    <path d="M-24.0 -14.5 Q-23.6 -19.6 -23.0 -21.8 -18.7 -23.2 -6.05 -23.2 L12.65 -22.35 Q20.7 -21.65 23.9 -20.7 24.25 -18.25 24.2 -13.1 24.15 -7.2 23.55 -0.35 22.75 7.8 21.5 13.65 20.5 18.4 19.6 20.1 L7.7 20.85 -11.0 20.0 Q-19.45 19.2 -22.25 18.3 -23.1 16.55 -23.65 11.9 -24.4 6.15 -24.45 -1.85 -24.5 -8.6 -24.0 -14.5" fill="#59b6f2" fill-rule="evenodd" stroke="none"/>
    <path d="M13.3 12.9 Q11.45 14.1 10.05 13.6 8.55 13.1 8.2 11.1 7.95 9.8 9.0 7.4 10.1 4.9 9.8 3.65 9.5 1.95 2.45 1.95 L-6.55 2.55 Q-8.1 2.85 -5.4 5.35 L-1.15 9.4 Q-0.3 10.55 -1.3 12.9 -2.35 15.35 -4.25 14.95 -7.35 14.3 -13.7 8.8 -20.45 2.95 -21.1 -0.65 -21.75 -4.1 -15.1 -11.4 -9.25 -17.8 -6.55 -19.15 -4.9 -19.95 -2.35 -18.15 0.15 -16.4 -0.35 -15.45 -0.9 -14.55 -5.1 -10.25 -8.25 -7.0 -6.8 -7.3 L2.85 -8.2 Q11.3 -8.2 15.8 -5.45 20.65 -2.45 18.2 4.85 16.2 11.05 13.3 12.9" fill="#ffffff" fill-rule="evenodd" stroke="none"/>
  </g>
</svg>
