<?xml version="1.0" encoding="UTF-8" standalone="no"?>
<svg xmlns:ffdec="https://www.free-decompiler.com/flash" xmlns:xlink="http://www.w3.org/1999/xlink" ffdec:objectType="shape" height="59.25px" width="74.1px" xmlns="http://www.w3.org/2000/svg">
  <g transform="matrix(1.0, 0.0, 0.0, 1.0, 40.65, 29.6)">
    <path d="M8.45 -13.75 L7.5 -9.9 Q5.0 1.4 8.15 4.0 12.1 7.35 19.75 3.25 L21.55 2.25 22.25 1.8 22.5 2.3 Q18.5 5.15 15.05 6.2 L12.8 6.7 7.4 5.25 5.7 -0.4 5.9 -3.5 Q6.45 -8.2 8.4 -14.85 L8.7 -14.7 8.45 -13.75 M23.4 -3.9 Q24.9 -5.5 26.9 -5.75 28.95 -6.0 30.35 -4.75 31.7 -3.45 31.65 -1.4 31.55 0.6 30.1 2.25 L29.95 2.4 Q31.35 0.8 31.4 -1.15 31.4 -3.2 30.1 -4.45 28.75 -5.65 26.75 -5.5 24.75 -5.25 23.3 -3.75 L23.4 -3.9 M22.45 5.0 Q18.05 12.85 19.5 14.55 20.95 16.25 25.5 14.35 L26.0 14.15 26.15 14.95 Q22.5 16.75 20.55 16.6 L19.95 16.55 Q19.25 16.35 18.8 15.85 17.2 13.9 22.45 5.0 M27.8 10.7 Q29.15 9.85 30.65 9.95 32.15 10.1 32.9 11.25 33.7 12.4 33.3 13.85 32.9 15.3 31.6 16.2 L31.5 16.25 Q32.75 15.3 33.05 13.9 33.4 12.5 32.65 11.4 31.9 10.3 30.5 10.15 29.05 9.95 27.7 10.8 L27.8 10.7 M-31.15 -20.1 Q-31.05 -21.65 -30.0 -22.75 -28.9 -23.8 -27.55 -23.65 -26.2 -23.55 -25.3 -22.35 -24.4 -21.1 -24.55 -19.6 -24.55 -21.05 -25.35 -22.1 -26.25 -23.25 -27.6 -23.4 -28.9 -23.5 -29.95 -22.5 -31.0 -21.5 -31.15 -19.95 L-31.15 -20.1 M-27.05 -15.45 Q-26.55 -10.25 -23.5 -9.85 -21.7 -9.6 -18.6 -14.85 -22.2 -8.4 -24.25 -8.6 -26.2 -8.9 -27.1 -11.15 L-27.65 -13.35 -27.75 -13.8 -27.85 -15.3 -27.05 -15.45 M-18.35 -25.7 Q-17.7 -27.8 -15.95 -28.9 -14.25 -30.0 -12.45 -29.4 -10.65 -28.9 -9.85 -27.0 -9.05 -25.15 -9.7 -23.0 L-9.75 -22.85 Q-9.2 -24.9 -10.0 -26.7 -10.8 -28.5 -12.55 -29.05 -14.3 -29.6 -16.0 -28.55 -17.7 -27.5 -18.4 -25.5 L-18.35 -25.7 M-14.45 -18.25 L-14.45 -16.5 Q-14.2 -7.8 -9.3 -6.05 -5.5 -4.65 2.9 -12.55 L5.9 -15.45 6.55 -16.1 6.75 -15.9 Q2.15 -10.9 -1.7 -7.95 L-2.95 -7.0 -9.75 -4.7 -10.0 -4.8 Q-12.7 -5.8 -14.0 -8.85 L-14.35 -9.8 -14.65 -10.85 Q-15.4 -14.2 -15.05 -18.9 L-15.05 -19.2 -14.4 -19.1 -14.45 -18.25 M5.85 -23.25 Q7.15 -25.25 9.5 -25.8 11.85 -26.3 13.9 -25.0 15.9 -23.7 16.45 -21.35 16.95 -19.05 15.7 -17.1 16.7 -19.0 16.2 -21.1 15.65 -23.4 13.65 -24.65 11.7 -25.9 9.4 -25.45 7.1 -24.95 5.75 -23.05 L5.85 -23.25" fill="#ffd8af" fill-rule="evenodd" stroke="none"/>
    <path d="M29.95 2.4 L29.85 2.55 Q28.45 3.8 26.65 4.1 24.8 4.35 23.45 3.3 L23.0 4.1 22.45 5.0 Q17.2 13.9 18.8 15.85 19.25 16.35 19.95 16.55 L20.55 16.6 Q22.5 16.75 26.15 14.95 L26.0 14.15 Q25.95 13.45 26.25 12.75 26.65 11.6 27.7 10.8 29.05 9.95 30.5 10.15 31.9 10.3 32.65 11.4 33.4 12.5 33.05 13.9 32.75 15.3 31.5 16.25 30.15 17.1 28.7 16.95 27.3 16.75 26.55 15.65 L26.35 15.3 25.85 15.75 Q21.6 19.3 18.1 23.5 L15.35 27.2 Q17.4 23.65 11.75 17.05 6.1 10.45 -3.9 4.7 -13.95 -1.1 -22.45 -2.7 -30.55 -4.2 -32.8 -1.1 L-31.4 -4.15 Q-29.7 -8.7 -28.45 -15.3 L-28.35 -16.0 Q-29.65 -16.15 -30.4 -17.3 -31.2 -18.4 -31.15 -19.95 -31.0 -21.5 -29.95 -22.5 -28.9 -23.5 -27.6 -23.4 -26.25 -23.25 -25.35 -22.1 -24.55 -21.05 -24.55 -19.6 L-24.55 -19.55 -24.55 -19.4 -24.55 -19.25 Q-24.8 -17.85 -25.7 -16.9 -26.35 -16.3 -27.05 -16.05 L-27.9 -15.95 -27.95 -15.95 -27.9 -15.3 -27.75 -13.8 -27.65 -13.35 -27.1 -11.15 Q-26.2 -8.9 -24.25 -8.6 -22.2 -8.4 -18.6 -14.85 L-17.15 -17.4 -17.0 -17.7 -16.1 -19.5 -16.2 -19.55 Q-17.6 -20.25 -18.25 -21.9 -18.9 -23.65 -18.4 -25.5 -17.7 -27.5 -16.0 -28.55 -14.3 -29.6 -12.55 -29.05 -10.8 -28.5 -10.0 -26.7 -9.2 -24.9 -9.75 -22.85 -10.4 -20.95 -11.9 -19.95 -13.1 -19.1 -14.4 -19.1 L-15.05 -19.2 -15.05 -18.9 Q-15.4 -14.2 -14.65 -10.85 L-14.35 -9.8 -14.0 -8.85 Q-12.7 -5.8 -10.0 -4.8 L-9.75 -4.7 -2.95 -7.0 -1.7 -7.95 Q2.15 -10.9 6.75 -15.9 L6.55 -16.1 Q5.3 -17.4 5.0 -19.25 4.7 -21.3 5.75 -23.05 7.1 -24.95 9.4 -25.45 11.7 -25.9 13.65 -24.65 15.65 -23.4 16.2 -21.1 16.7 -19.0 15.7 -17.1 L15.65 -17.0 15.55 -16.8 15.4 -16.55 Q14.2 -15.05 12.35 -14.5 L8.7 -14.7 8.4 -14.85 Q6.45 -8.2 5.9 -3.5 L5.7 -0.4 7.4 5.25 12.8 6.7 15.05 6.2 Q18.5 5.15 22.5 2.3 L22.25 1.8 Q21.75 0.7 21.9 -0.65 22.05 -2.35 23.3 -3.75 24.75 -5.25 26.75 -5.5 28.75 -5.65 30.1 -4.45 31.4 -3.2 31.4 -1.15 31.35 0.8 29.95 2.4" fill="url(#gradient0)" fill-rule="evenodd" stroke="none"/>
    <path d="M15.4 -16.55 L15.15 -16.2 Q13.85 -14.15 11.5 -13.6 L8.45 -13.75 8.7 -14.7 12.35 -14.5 Q14.2 -15.05 15.4 -16.55 M21.55 2.25 Q21.2 1.4 21.25 0.4 21.3 -1.65 22.85 -3.25 L23.4 -3.9 23.3 -3.75 Q22.05 -2.35 21.9 -0.65 21.75 0.7 22.25 1.8 L21.55 2.25 M29.85 2.55 L29.45 2.9 Q28.0 4.5 25.95 4.75 24.25 4.9 23.0 4.1 L23.45 3.3 Q24.8 4.35 26.65 4.1 28.45 3.8 29.85 2.55 M25.5 14.35 L25.6 13.45 Q26.0 12.0 27.3 11.1 L27.8 10.7 27.7 10.8 Q26.65 11.6 26.25 12.75 25.95 13.45 26.0 14.15 L25.5 14.35 M31.6 16.2 L31.05 16.55 Q29.7 17.45 28.25 17.3 26.8 17.15 26.0 16.0 L25.85 15.75 26.35 15.3 26.55 15.65 Q27.3 16.75 28.7 16.95 30.15 17.1 31.5 16.25 L31.6 16.2 M-28.45 -15.3 Q-29.7 -15.5 -30.45 -16.65 -31.35 -17.85 -31.2 -19.45 L-31.15 -20.1 -31.15 -19.95 Q-31.2 -18.4 -30.4 -17.3 -29.65 -16.15 -28.35 -16.0 L-28.45 -15.3 M-24.55 -19.25 L-24.6 -18.9 Q-24.75 -17.3 -25.8 -16.25 -26.4 -15.65 -27.05 -15.45 L-27.85 -15.3 -27.9 -15.3 -27.95 -15.95 -27.9 -15.95 -27.05 -16.05 Q-26.35 -16.3 -25.7 -16.9 -24.8 -17.85 -24.55 -19.25 M-16.55 -18.75 Q-17.8 -19.45 -18.45 -20.9 -19.3 -22.75 -18.6 -24.85 L-18.35 -25.7 -18.4 -25.5 Q-18.9 -23.65 -18.25 -21.9 -17.6 -20.25 -16.2 -19.55 L-16.55 -18.75 M-9.75 -22.85 L-9.95 -22.2 Q-10.6 -20.1 -12.35 -19.0 -13.4 -18.35 -14.45 -18.25 L-14.4 -19.1 Q-13.1 -19.1 -11.9 -19.95 -10.4 -20.95 -9.75 -22.85 M5.9 -15.45 Q4.9 -16.55 4.6 -18.05 4.05 -20.4 5.35 -22.4 L5.85 -23.25 5.75 -23.05 Q4.7 -21.3 5.0 -19.25 5.3 -17.4 6.55 -16.1 L5.9 -15.45" fill="#843a00" fill-rule="evenodd" stroke="none"/>
    <path d="M-18.6 -14.85 L-16.55 -18.75 -16.2 -19.55 -16.1 -19.5 -17.0 -17.7 -17.15 -17.4 -18.6 -14.85" fill="url(#gradient1)" fill-rule="evenodd" stroke="none"/>
    <path d="M15.35 27.2 Q13.3 30.75 4.8 29.15 -3.75 27.6 -13.8 21.8 -23.8 16.0 -29.45 9.4 -35.1 2.8 -33.05 -0.75 L-32.8 -1.1 Q-30.55 -4.2 -22.45 -2.7 -13.95 -1.1 -3.9 4.7 6.1 10.45 11.75 17.05 17.4 23.65 15.35 27.2 M-5.0 6.5 Q-14.5 1.0 -22.6 -0.55 -29.85 -1.95 -31.15 0.35 -32.5 2.65 -27.65 8.2 -22.2 14.45 -12.7 19.9 -3.2 25.4 4.9 27.0 12.15 28.4 13.5 26.1 14.8 23.85 9.95 18.25 4.5 12.0 -5.0 6.5" fill="url(#gradient2)" fill-rule="evenodd" stroke="none"/>
    <path d="M-5.0 6.5 Q4.5 12.0 9.95 18.25 14.8 23.85 13.5 26.1 12.15 28.4 4.9 27.0 -3.2 25.4 -12.7 19.9 -22.2 14.45 -27.65 8.2 -32.5 2.65 -31.15 0.35 -29.85 -1.95 -22.6 -0.55 -14.5 1.0 -5.0 6.5" fill="url(#gradient3)" fill-rule="evenodd" stroke="none"/>
    <path d="M-37.9 11.6 L-37.65 11.6 -36.75 7.35 -35.55 7.35 -35.25 7.35 -35.5 8.55 -36.1 11.6 -35.85 11.6 -33.3 11.6 -32.95 11.6 -32.1 7.35 -30.9 7.35 -30.6 7.35 -30.85 8.55 -31.45 11.6 -31.2 11.6 -29.75 11.6 -29.75 13.15 -31.8 13.15 -32.5 16.75 -32.25 16.75 -29.75 16.75 -29.75 18.25 -32.8 18.25 -33.7 22.5 -34.95 22.5 -35.2 22.5 -34.9 20.95 -34.55 19.4 -34.35 18.25 -37.45 18.25 -38.3 22.5 -39.55 22.5 -39.8 22.5 -39.5 20.95 -39.15 19.4 -38.95 18.25 -40.65 18.25 -40.65 16.75 -38.95 16.75 -38.65 16.75 -38.15 14.3 -37.9 13.15 -40.65 13.15 -40.65 11.6 -37.9 11.6 M-33.55 14.3 L-33.3 13.15 -36.4 13.15 -37.15 16.75 -36.9 16.75 -34.35 16.75 -34.05 16.75 -33.55 14.3" fill="url(#gradient4)" fill-rule="evenodd" stroke="none"/>
    <path d="M-40.65 13.15 L-37.9 13.15 -38.15 14.3 -38.45 14.3 -40.65 14.3 -40.65 13.15 M-40.65 18.25 L-38.95 18.25 -39.15 19.4 -39.5 19.4 -40.65 19.4 -40.65 18.25 M-39.55 22.5 L-38.3 22.5 -37.45 18.25 -34.35 18.25 -34.55 19.4 -34.9 19.4 -37.45 19.4 -38.3 23.7 -39.8 23.7 -39.55 22.5 M-34.95 22.5 L-33.7 22.5 -32.8 18.25 -29.75 18.25 -29.75 19.4 -32.8 19.4 -33.7 23.7 -35.2 23.7 -34.95 22.5 M-32.25 16.75 L-32.5 16.75 -31.8 13.15 -29.75 13.15 -29.75 14.3 -31.8 14.3 -31.95 15.2 -32.25 16.7 -32.25 16.75 M-31.2 11.6 L-31.45 11.6 -30.85 8.55 -30.6 8.55 -30.9 10.1 -31.2 11.55 -31.2 11.6 M-35.85 11.6 L-36.1 11.6 -35.5 8.55 -35.25 8.55 -35.55 10.1 -35.85 11.55 -35.85 11.6 M3.85 10.9 L4.15 11.5 Q3.65 13.2 1.05 14.45 L-0.5 14.0 -0.75 13.9 -0.5 13.75 Q2.85 12.6 3.85 10.9 M3.95 19.2 L4.2 19.85 Q3.7 22.05 0.35 23.3 -2.15 24.25 -4.4 24.25 L-15.3 24.25 Q-20.85 24.25 -24.05 22.85 -26.8 21.6 -27.3 19.7 L-27.0 19.15 Q-26.25 20.55 -24.05 21.5 -20.85 22.9 -15.3 22.9 L-4.4 22.9 Q-2.15 22.9 0.35 22.0 3.15 20.95 3.95 19.2 M-9.1 17.8 Q-9.7 17.15 -11.7 17.15 L-14.45 17.15 -14.8 17.0 -14.8 15.7 -14.45 15.85 -11.7 15.85 Q-8.9 15.85 -8.9 17.0 L-8.9 17.25 -9.1 17.8 M-9.1 11.35 Q-9.45 11.05 -10.2 10.85 L-12.4 10.6 -14.75 10.6 Q-16.1 10.6 -17.1 11.4 L-19.4 13.1 Q-21.2 14.15 -23.15 14.15 -26.55 14.15 -27.05 11.6 L-26.85 11.0 Q-26.05 12.8 -23.15 12.8 -21.2 12.8 -19.4 11.75 L-17.1 10.1 Q-16.1 9.3 -14.75 9.3 L-12.4 9.3 -10.2 9.55 Q-8.8 9.9 -8.8 10.55 L-8.8 10.75 -9.1 11.35 M-33.55 14.3 L-33.85 14.3 -36.4 14.3 -36.55 15.2 -36.9 16.7 -36.9 16.75 -37.15 16.75 -36.4 13.15 -33.3 13.15 -33.55 14.3" fill="#843a00" fill-rule="evenodd" stroke="none"/>
    <path d="M-35.55 7.35 L-36.75 7.35 -37.65 11.6 -37.9 11.6 -37.9 11.55 -40.65 11.55 -40.65 10.1 -37.65 10.1 -36.75 5.8 -35.25 5.8 -35.55 7.35 M-38.15 14.3 L-38.65 16.75 -38.95 16.75 -38.95 16.7 -40.65 16.7 -40.65 15.2 -38.65 15.2 -38.45 14.3 -38.15 14.3 M-39.15 19.4 L-39.5 20.95 -39.8 20.95 -39.5 19.4 -39.15 19.4 M-34.55 19.4 L-34.9 20.95 -35.2 20.95 -34.9 19.4 -34.55 19.4 M-30.9 7.35 L-32.1 7.35 -32.95 11.6 -33.3 11.6 -33.3 11.55 -35.85 11.55 -35.55 10.1 -32.95 10.1 -32.1 5.8 -30.6 5.8 -30.9 7.35 M-30.9 10.1 L-29.75 10.1 -29.75 11.55 -31.2 11.55 -30.9 10.1 M-26.85 9.7 L-27.05 9.05 Q-26.55 6.65 -21.65 5.6 L-13.75 4.95 -7.3 4.95 Q-3.3 4.95 -0.1 5.95 3.55 7.05 4.15 8.9 L3.9 9.6 Q2.95 8.1 -0.1 7.2 -3.3 6.25 -7.3 6.25 L-13.75 6.25 -21.65 6.9 Q-25.9 7.75 -26.85 9.7 M1.05 14.45 L2.1 14.9 Q3.85 15.85 4.2 17.25 L4.0 17.95 Q3.45 16.9 2.1 16.15 L-0.5 15.25 Q-1.1 15.05 -1.1 14.55 -1.1 14.15 -0.75 13.9 L-0.5 14.0 1.05 14.45 M-27.0 17.8 L-27.3 17.1 Q-26.95 16.0 -25.65 15.45 L-23.4 15.05 Q-20.3 15.05 -18.45 16.55 L-15.9 18.15 -13.4 18.5 -11.6 18.5 -9.7 18.2 -9.1 17.8 -8.9 17.25 -8.9 18.45 Q-8.9 19.1 -9.7 19.45 L-11.6 19.8 -13.4 19.8 -15.9 19.4 -18.45 17.8 Q-20.3 16.35 -23.4 16.35 L-25.65 16.75 Q-26.6 17.1 -27.0 17.8 M-14.8 13.3 L-14.8 12.0 Q-14.8 11.85 -14.5 11.85 L-11.85 11.85 Q-9.8 11.85 -9.1 11.35 L-8.8 10.75 -8.8 12.0 Q-8.9 13.15 -11.85 13.15 L-14.5 13.15 Q-14.8 13.15 -14.8 13.3 M-33.85 14.3 L-33.55 14.3 -34.05 16.75 -34.35 16.75 -34.35 16.7 -36.9 16.7 -36.55 15.2 -34.05 15.2 -33.85 14.3 M-31.95 15.2 L-29.75 15.2 -29.75 16.7 -32.25 16.7 -31.95 15.2" fill="#ffd8af" fill-rule="evenodd" stroke="none"/>
    <path d="M-26.85 9.7 Q-25.9 7.75 -21.65 6.9 L-13.75 6.25 -7.3 6.25 Q-3.3 6.25 -0.1 7.2 2.95 8.1 3.9 9.6 L4.15 10.15 3.85 10.9 Q2.85 12.6 -0.5 13.75 L-0.75 13.9 Q-1.1 14.15 -1.1 14.55 -1.1 15.05 -0.5 15.25 L2.1 16.15 Q3.45 16.9 4.0 17.95 L4.2 18.5 3.95 19.2 Q3.15 20.95 0.35 22.0 -2.15 22.9 -4.4 22.9 L-15.3 22.9 Q-20.85 22.9 -24.05 21.5 -26.25 20.55 -27.0 19.15 L-27.3 18.4 -27.0 17.8 Q-26.6 17.1 -25.65 16.75 L-23.4 16.35 Q-20.3 16.35 -18.45 17.8 L-15.9 19.4 -13.4 19.8 -11.6 19.8 -9.7 19.45 Q-8.9 19.1 -8.9 18.45 L-8.9 17.25 -8.9 17.0 Q-8.9 15.85 -11.7 15.85 L-14.45 15.85 -14.8 15.7 -14.8 13.3 Q-14.8 13.15 -14.5 13.15 L-11.85 13.15 Q-8.9 13.15 -8.8 12.0 L-8.8 10.75 -8.8 10.55 Q-8.8 9.9 -10.2 9.55 L-12.4 9.3 -14.75 9.3 Q-16.1 9.3 -17.1 10.1 L-19.4 11.75 Q-21.2 12.8 -23.15 12.8 -26.05 12.8 -26.85 11.0 L-27.05 10.3 -26.85 9.7" fill="url(#gradient5)" fill-rule="evenodd" stroke="none"/>
  </g>
  <defs>
    <linearGradient gradientTransform="matrix(0.041, 0.0214, 0.0214, -0.041, 1.25, -0.7)" gradientUnits="userSpaceOnUse" id="gradient0" spreadMethod="pad" x1="-819.2" x2="819.2">
      <stop offset="0.2549019607843137" stop-color="#af5016"/>
      <stop offset="0.611764705882353" stop-color="#ffc13e"/>
      <stop offset="1.0" stop-color="#de7f12"/>
    </linearGradient>
    <linearGradient gradientTransform="matrix(0.0504, 0.0291, 0.0291, -0.0504, 8.6, -4.7)" gradientUnits="userSpaceOnUse" id="gradient1" spreadMethod="pad" x1="-819.2" x2="819.2">
      <stop offset="0.0196078431372549" stop-color="#d2751e"/>
      <stop offset="0.38823529411764707" stop-color="#ffa741"/>
      <stop offset="0.4627450980392157" stop-color="#ffd8af"/>
      <stop offset="0.5607843137254902" stop-color="#ffa741"/>
      <stop offset="0.8431372549019608" stop-color="#843a00"/>
    </linearGradient>
    <linearGradient gradientTransform="matrix(0.0084, -0.0145, -0.0145, -0.0084, -7.95, 11.75)" gradientUnits="userSpaceOnUse" id="gradient2" spreadMethod="pad" x1="-819.2" x2="819.2">
      <stop offset="0.00392156862745098" stop-color="#ab5706"/>
      <stop offset="1.0" stop-color="#843a00"/>
    </linearGradient>
    <linearGradient gradientTransform="matrix(0.0272, 0.0157, 0.0157, -0.0272, -8.85, 13.25)" gradientUnits="userSpaceOnUse" id="gradient3" spreadMethod="pad" x1="-819.2" x2="819.2">
      <stop offset="0.00392156862745098" stop-color="#ffa741"/>
      <stop offset="0.1803921568627451" stop-color="#af5016"/>
      <stop offset="0.8117647058823529" stop-color="#dc8050"/>
    </linearGradient>
    <linearGradient gradientTransform="matrix(0.0, -0.0054, -0.0054, 0.0, -35.2, 12.5)" gradientUnits="userSpaceOnUse" id="gradient4" spreadMethod="pad" x1="-819.2" x2="819.2">
      <stop offset="0.0" stop-color="#ab5706"/>
      <stop offset="0.4470588235294118" stop-color="#de7f12"/>
      <stop offset="0.5764705882352941" stop-color="#ffa741"/>
      <stop offset="1.0" stop-color="#af5a07"/>
    </linearGradient>
    <linearGradient gradientTransform="matrix(0.0, -0.011, -0.011, 0.0, -11.55, 15.3)" gradientUnits="userSpaceOnUse" id="gradient5" spreadMethod="pad" x1="-819.2" x2="819.2">
      <stop offset="0.0" stop-color="#ab5706"/>
      <stop offset="0.4470588235294118" stop-color="#de7f12"/>
      <stop offset="0.5764705882352941" stop-color="#ffa741"/>
      <stop offset="1.0" stop-color="#af5a07"/>
    </linearGradient>
  </defs>
</svg>
