<?xml version="1.0" encoding="UTF-8" standalone="no"?>
<svg xmlns:ffdec="https://www.free-decompiler.com/flash" xmlns:xlink="http://www.w3.org/1999/xlink" ffdec:objectType="shape" height="52.9px" width="67.0px" xmlns="http://www.w3.org/2000/svg">
  <g transform="matrix(1.0, 0.0, 0.0, 1.0, 33.5, 26.45)">
    <path d="M0.85 -18.7 L3.3 -19.45 33.5 -10.4 33.5 -10.3 26.0 -8.0 24.35 -7.45 17.0 -5.2 15.9 -9.9 Q14.95 -10.55 12.9 -11.2 8.85 -12.5 3.2 -12.5 -2.35 -12.5 -6.6 -11.2 L-9.7 -9.9 -10.8 -5.15 -26.8 -10.1 0.85 -18.7 M-0.8 10.0 Q-5.05 9.65 -8.85 8.35 L-13.1 6.55 Q-11.25 5.65 -8.4 4.7 -2.6 2.95 2.9 2.95 8.45 2.95 14.2 4.7 17.15 5.65 18.85 6.55 17.4 7.4 14.6 8.4 10.5 9.75 6.0 10.05 L3.0 10.15 2.9 10.15 2.05 10.15 -0.8 10.0 M2.9 8.35 L3.0 8.35 Q8.85 8.35 14.1 6.6 8.35 4.7 2.9 4.7 -2.55 4.7 -8.3 6.6 -3.1 8.35 2.9 8.35 M20.7 16.2 L27.95 16.0 Q27.05 17.8 24.35 17.8 21.65 17.8 20.7 16.2" fill="#843a00" fill-rule="evenodd" stroke="none"/>
    <path d="M-10.8 -5.15 L-9.7 -9.9 -6.6 -11.2 Q-2.35 -12.5 3.2 -12.5 8.85 -12.5 12.9 -11.2 14.95 -10.55 15.9 -9.9 L17.0 -5.2 19.6 6.45 Q18.35 7.4 15.6 8.35 11.35 9.8 6.0 10.05 10.5 9.75 14.6 8.4 17.4 7.4 18.85 6.55 17.15 5.65 14.2 4.7 8.45 2.95 2.9 2.95 -2.6 2.95 -8.4 4.7 -11.25 5.65 -13.1 6.55 L-8.85 8.35 Q-5.05 9.65 -0.8 10.0 -5.6 9.7 -9.5 8.35 L-13.45 6.45 -10.8 -5.15" fill="url(#gradient0)" fill-rule="evenodd" stroke="none"/>
    <path d="M3.3 -19.45 L2.7 -19.3 2.7 -26.3 3.0 -26.45 33.5 -14.95 33.5 -10.4 3.3 -19.45" fill="url(#gradient1)" fill-rule="evenodd" stroke="none"/>
    <path d="M2.7 -19.3 L0.85 -18.7 -26.8 -10.1 -27.35 -10.3 -27.35 -14.95 2.7 -26.3 2.7 -19.3" fill="url(#gradient2)" fill-rule="evenodd" stroke="none"/>
    <path d="M2.9 8.35 Q-3.1 8.35 -8.3 6.6 -2.55 4.7 2.9 4.7 8.35 4.7 14.1 6.6 8.85 8.35 3.0 8.35 L2.9 8.35" fill="url(#gradient3)" fill-rule="evenodd" stroke="none"/>
    <path d="M24.35 -7.45 L26.0 -8.0 25.3 6.25 26.25 9.5 28.0 15.9 27.95 16.0 20.7 16.2 20.55 15.9 22.75 10.0 24.2 6.1 24.35 -7.45" fill="url(#gradient4)" fill-rule="evenodd" stroke="none"/>
    <path d="M-30.85 -1.9 L-33.45 -1.9 -33.5 -1.8 -33.5 -3.1 -33.45 -3.25 -20.6 -3.25 -20.5 -3.05 -20.5 -1.7 -20.6 -1.9 -23.0 -1.9 -25.1 -1.9 -28.85 -1.9 -30.85 -1.9 M-23.2 2.2 L-23.25 2.25 -23.3 2.2 -25.1 2.2 -25.1 0.9 -23.3 0.9 -23.2 0.95 -23.2 2.2 M-30.65 2.25 L-30.75 2.15 -30.75 1.0 Q-30.75 0.9 -30.6 0.9 L-28.85 0.9 -28.85 2.2 -30.6 2.2 -30.65 2.25 M-25.95 19.8 L-25.95 21.15 -30.95 21.15 Q-31.2 21.15 -31.2 21.35 L-31.2 20.05 -30.95 19.8 -25.95 19.8 M-9.7 21.35 L-9.95 21.15 -14.85 21.15 -14.85 19.8 -9.95 19.8 Q-9.7 19.8 -9.7 20.05 L-9.7 21.35 M-14.85 8.85 Q-14.85 8.65 -15.15 8.65 L-21.1 8.65 -21.45 8.8 -22.35 9.95 Q-22.9 10.55 -23.65 10.55 L-31.0 10.55 -31.25 10.95 -31.25 9.65 -31.0 9.2 -23.65 9.2 Q-22.9 9.2 -22.35 8.65 L-21.45 7.45 -21.1 7.25 -15.15 7.25 Q-14.85 7.25 -14.85 7.5 L-14.85 8.85 M-7.75 0.1 Q-8.15 -0.75 -9.55 -1.25 -11.0 -1.9 -13.1 -1.9 L-13.3 -1.9 -13.85 -1.95 -14.3 -1.9 -14.55 -1.9 -17.55 -1.45 Q-18.7 -1.15 -19.25 -0.65 L-19.8 0.15 -20.0 -0.55 -20.0 -0.6 Q-20.0 -1.2 -19.25 -2.0 -18.7 -2.5 -17.55 -2.8 L-14.55 -3.25 -13.1 -3.25 Q-10.7 -3.25 -9.05 -2.45 -7.6 -1.7 -7.6 -0.65 L-7.6 -0.6 Q-7.6 -0.2 -7.75 0.1 M-12.1 0.25 Q-11.85 0.6 -11.85 0.9 -11.85 1.35 -12.2 1.7 -12.5 2.1 -13.2 2.25 L-14.25 2.25 -15.3 1.65 -15.65 0.8 -15.4 0.15 Q-14.85 1.0 -13.75 1.0 -12.6 1.0 -12.1 0.25 M-1.55 0.85 L0.3 0.85 0.3 2.2 0.2 2.2 -1.55 2.2 -1.55 0.85 M-7.0 2.25 L-7.1 2.15 -7.1 1.0 -6.9 0.85 -5.35 0.85 -5.35 2.2 -6.9 2.2 -7.0 2.25 M5.85 -1.45 L5.55 -0.85 Q4.65 -1.9 2.35 -1.9 L-7.05 -1.9 -7.1 -1.9 -7.1 -3.15 -7.0 -3.25 2.35 -3.25 Q3.8 -3.25 4.85 -2.65 5.85 -2.2 5.85 -1.5 L5.85 -1.45 M-1.55 -1.2 L1.45 -1.2 1.7 -1.45 2.55 -1.5 2.35 -0.85 Q2.1 -0.5 1.6 -0.5 L-1.55 -0.5 -1.55 -1.2 M23.2 15.2 L23.2 15.85 Q22.8 12.25 18.4 10.25 14.7 8.65 9.8 8.65 L6.35 8.65 Q-0.25 8.65 -4.3 11.1 -7.75 13.2 -8.15 16.25 L-8.25 15.6 Q-8.25 12.45 -4.8 10.05 -0.7 7.25 6.35 7.25 L9.8 7.25 Q15.0 7.25 18.75 9.05 23.2 11.25 23.2 15.2 M11.5 16.25 L11.55 16.9 Q11.55 18.55 10.4 19.75 9.25 21.05 7.5 21.05 6.1 21.05 4.85 19.85 3.55 18.65 3.55 16.9 L3.65 16.15 3.8 16.75 4.35 17.95 5.05 18.75 Q5.85 19.4 6.65 19.65 L7.5 19.75 Q8.6 19.75 9.45 19.25 L10.2 18.65 10.6 18.25 Q11.3 17.4 11.5 16.25" fill="#ffd8af" fill-rule="evenodd" stroke="none"/>
    <path d="M-33.5 -1.8 L-33.45 -1.9 -30.85 -1.9 -30.85 -0.95 Q-30.85 -0.9 -30.95 -0.9 L-33.4 -0.9 -33.5 -1.0 -33.5 -1.8" fill="url(#gradient5)" fill-rule="evenodd" stroke="none"/>
    <path d="M-33.5 -1.0 L-33.4 -0.9 -30.95 -0.9 Q-30.85 -0.9 -30.85 -0.95 L-30.85 -1.9 -28.85 -1.9 -28.85 0.75 -30.85 0.75 -30.85 1.75 -33.4 1.75 -33.5 1.65 -33.5 -1.0 M-25.1 -1.9 L-23.0 -1.9 -23.0 -0.95 -22.9 -0.85 -20.6 -0.85 -20.5 -1.0 -20.5 1.65 -20.6 1.8 -22.9 1.8 -23.0 1.7 -23.0 0.75 -25.1 0.75 -25.1 -1.9 M-23.2 2.2 L-23.2 4.85 -23.3 4.95 -30.6 4.95 -30.75 4.8 -30.75 2.15 -30.65 2.25 -23.25 2.25 -23.2 2.2 M-31.25 12.8 Q-31.25 12.95 -30.85 12.95 L-25.95 12.95 -25.95 15.65 -30.85 15.65 Q-31.25 15.65 -31.25 15.45 L-31.25 12.8 M-31.2 23.5 L-31.0 23.8 -9.95 23.8 -9.7 23.6 -9.7 26.2 -9.95 26.45 -31.0 26.45 -31.2 26.1 -31.2 23.5 M-7.75 0.1 Q-7.6 -0.2 -7.6 -0.6 L-7.6 2.0 Q-7.6 3.15 -8.8 4.0 -10.2 4.95 -12.75 4.95 L-14.05 4.95 Q-17.4 4.95 -19.2 3.65 -20.0 3.05 -20.0 2.1 L-20.0 -0.55 -19.8 0.15 -19.2 1.0 Q-17.45 2.2 -14.25 2.25 L-13.2 2.25 -12.75 2.25 Q-10.7 2.25 -9.3 1.6 -8.15 1.0 -7.75 0.1 M-14.3 -1.9 L-13.85 -1.95 -13.3 -1.9 Q-12.65 -1.75 -12.25 -1.25 L-11.85 -0.45 -12.1 0.25 Q-12.6 1.0 -13.75 1.0 -14.85 1.0 -15.4 0.15 L-15.65 -0.55 Q-15.65 -1.05 -15.3 -1.35 -14.9 -1.75 -14.3 -1.9 M-1.55 0.85 L-1.55 0.15 2.6 0.15 3.95 -0.05 Q5.1 -0.3 5.55 -0.85 L5.85 -1.45 5.85 1.15 Q5.85 2.05 4.4 2.55 L2.6 2.85 0.35 2.85 0.3 4.8 Q0.3 4.95 0.1 4.95 L-7.0 4.95 -7.1 4.8 -7.1 2.15 -7.0 2.25 0.1 2.25 0.2 2.2 0.3 2.2 0.3 0.85 -1.55 0.85 M-7.05 -1.9 L-7.1 -1.8 -7.1 -1.9 -7.05 -1.9 M-7.1 -0.6 L-7.0 -0.5 -5.35 -0.5 -5.35 0.8 -7.0 0.8 -7.1 0.75 -7.1 -0.6 M-1.55 -1.2 L-1.55 -1.85 1.05 -1.85 Q1.7 -1.85 1.7 -1.45 L1.45 -1.2 -1.55 -1.2 M23.2 15.2 L23.2 17.9 Q23.2 22.1 18.0 24.55 14.0 26.45 9.8 26.45 L6.25 26.45 Q0.0 26.45 -4.1 24.15 -8.25 21.85 -8.25 18.3 L-8.25 15.6 -8.15 16.25 Q-7.85 19.6 -3.75 21.7 0.3 23.8 6.25 23.8 L9.8 23.8 Q13.75 23.8 17.7 22.05 22.75 19.75 23.2 15.85 L23.2 15.2 M3.65 16.15 L3.55 15.55 Q3.55 13.75 4.65 12.55 5.7 11.35 7.5 11.35 9.3 11.35 10.45 12.7 11.55 14.0 11.55 15.55 L11.5 16.25 Q11.3 17.4 10.6 18.25 L11.3 16.95 Q10.9 15.65 10.0 14.9 8.9 14.0 7.5 14.0 6.1 14.0 5.05 14.8 4.15 15.55 3.8 16.75 L3.65 16.15 M4.35 17.95 L5.3 18.9 Q6.0 19.45 6.65 19.65 5.85 19.4 5.05 18.75 L4.35 17.95" fill="#843a00" fill-rule="evenodd" stroke="none"/>
    <path d="M-25.95 15.65 L-25.95 12.95 -30.85 12.95 Q-31.25 12.95 -31.25 12.8 L-31.25 10.95 -31.0 10.55 -23.65 10.55 Q-22.9 10.55 -22.35 9.95 L-21.45 8.8 -21.1 8.65 -15.15 8.65 Q-14.85 8.65 -14.85 8.85 L-14.85 19.8 -14.85 21.15 -9.95 21.15 -9.7 21.35 -9.7 23.6 -9.95 23.8 -31.0 23.8 -31.2 23.5 -31.2 21.35 Q-31.2 21.15 -30.95 21.15 L-25.95 21.15 -25.95 19.8 -25.95 15.65" fill="url(#gradient6)" fill-rule="evenodd" stroke="none"/>
    <path d="M-13.3 -1.9 L-13.1 -1.9 Q-11.0 -1.9 -9.55 -1.25 -8.15 -0.75 -7.75 0.1 -8.15 1.0 -9.3 1.6 -10.7 2.25 -12.75 2.25 L-13.2 2.25 Q-12.5 2.1 -12.2 1.7 -11.85 1.35 -11.85 0.9 -11.85 0.6 -12.1 0.25 L-11.85 -0.45 -12.25 -1.25 Q-12.65 -1.75 -13.3 -1.9" fill="url(#gradient7)" fill-rule="evenodd" stroke="none"/>
    <path d="M-19.8 0.15 L-19.25 -0.65 Q-18.7 -1.15 -17.55 -1.45 L-14.55 -1.9 -14.3 -1.9 Q-14.9 -1.75 -15.3 -1.35 -15.65 -1.05 -15.65 -0.55 L-15.4 0.15 -15.65 0.8 -15.3 1.65 -14.25 2.25 Q-17.45 2.2 -19.2 1.0 L-19.8 0.15" fill="url(#gradient8)" fill-rule="evenodd" stroke="none"/>
    <path d="M-23.0 -1.9 L-20.6 -1.9 -20.5 -1.7 -20.5 -1.0 -20.6 -0.85 -22.9 -0.85 -23.0 -0.95 -23.0 -1.9" fill="url(#gradient9)" fill-rule="evenodd" stroke="none"/>
    <path d="M-28.85 -1.9 L-25.1 -1.9 -25.1 0.75 -25.1 0.9 -25.1 2.2 -23.3 2.2 -23.25 2.25 -30.65 2.25 -30.6 2.2 -28.85 2.2 -28.85 0.9 -28.85 0.75 -28.85 -1.9" fill="url(#gradient10)" fill-rule="evenodd" stroke="none"/>
    <path d="M5.55 -0.85 Q5.1 -0.3 3.95 -0.05 L2.6 0.15 -1.55 0.15 -1.55 0.85 -1.55 2.2 0.2 2.2 0.1 2.25 -7.0 2.25 -6.9 2.2 -5.35 2.2 -5.35 0.85 -5.35 0.8 -5.35 -0.5 -7.0 -0.5 -7.1 -0.6 -7.1 -1.8 -7.05 -1.9 2.35 -1.9 Q4.65 -1.9 5.55 -0.85 M1.7 -1.45 Q1.7 -1.85 1.05 -1.85 L-1.55 -1.85 -1.55 -1.2 -1.55 -0.5 1.6 -0.5 Q2.1 -0.5 2.35 -0.85 L2.55 -1.5 1.7 -1.45" fill="url(#gradient11)" fill-rule="evenodd" stroke="none"/>
    <path d="M23.2 15.85 Q22.75 19.75 17.7 22.05 13.75 23.8 9.8 23.8 L6.25 23.8 Q0.3 23.8 -3.75 21.7 -7.85 19.6 -8.15 16.25 -7.75 13.2 -4.3 11.1 -0.25 8.65 6.35 8.65 L9.8 8.65 Q14.7 8.65 18.4 10.25 22.8 12.25 23.2 15.85 M11.5 16.25 L11.55 15.55 Q11.55 14.0 10.45 12.7 9.3 11.35 7.5 11.35 5.7 11.35 4.65 12.55 3.55 13.75 3.55 15.55 L3.65 16.15 3.55 16.9 Q3.55 18.65 4.85 19.85 6.1 21.05 7.5 21.05 9.25 21.05 10.4 19.75 11.55 18.55 11.55 16.9 L11.5 16.25" fill="url(#gradient12)" fill-rule="evenodd" stroke="none"/>
  </g>
  <defs>
    <linearGradient gradientTransform="matrix(0.0201, 0.0, 0.0, -0.0201, 3.1, -1.15)" gradientUnits="userSpaceOnUse" id="gradient0" spreadMethod="pad" x1="-819.2" x2="819.2">
      <stop offset="0.2549019607843137" stop-color="#af5016"/>
      <stop offset="0.611764705882353" stop-color="#ffc13e"/>
      <stop offset="1.0" stop-color="#de7f12"/>
    </linearGradient>
    <linearGradient gradientTransform="matrix(0.0188, 0.0, 0.0, -0.0188, 18.1, -18.4)" gradientUnits="userSpaceOnUse" id="gradient1" spreadMethod="pad" x1="-819.2" x2="819.2">
      <stop offset="0.06274509803921569" stop-color="#ffa741"/>
      <stop offset="1.0" stop-color="#d2751e"/>
    </linearGradient>
    <linearGradient gradientTransform="matrix(0.0183, 0.0, 0.0, -0.0183, -12.35, -18.25)" gradientUnits="userSpaceOnUse" id="gradient2" spreadMethod="pad" x1="-819.2" x2="819.2">
      <stop offset="0.0196078431372549" stop-color="#d2751e"/>
      <stop offset="1.0" stop-color="#843a00"/>
    </linearGradient>
    <linearGradient gradientTransform="matrix(0.0136, 0.0, 0.0, -0.0136, 2.9, 6.55)" gradientUnits="userSpaceOnUse" id="gradient3" spreadMethod="pad" x1="-819.2" x2="819.2">
      <stop offset="0.00392156862745098" stop-color="#ffa741"/>
      <stop offset="0.1803921568627451" stop-color="#af5016"/>
      <stop offset="0.8117647058823529" stop-color="#dc8050"/>
    </linearGradient>
    <linearGradient gradientTransform="matrix(0.0, -0.0165, -0.0165, 0.0, 24.3, 2.65)" gradientUnits="userSpaceOnUse" id="gradient4" spreadMethod="pad" x1="-819.2" x2="819.2">
      <stop offset="0.0196078431372549" stop-color="#d2751e"/>
      <stop offset="0.5568627450980392" stop-color="#ffa741"/>
      <stop offset="1.0" stop-color="#843a00"/>
    </linearGradient>
    <linearGradient gradientTransform="matrix(0.0, 0.0151, 0.0151, 0.0, -32.2, 9.1)" gradientUnits="userSpaceOnUse" id="gradient5" spreadMethod="pad" x1="-819.2" x2="819.2">
      <stop offset="0.0" stop-color="#ab5706"/>
      <stop offset="0.4470588235294118" stop-color="#de7f12"/>
      <stop offset="0.5764705882352941" stop-color="#ffa741"/>
      <stop offset="1.0" stop-color="#af5a07"/>
    </linearGradient>
    <linearGradient gradientTransform="matrix(0.0, 0.0151, 0.0151, 0.0, -20.5, 12.75)" gradientUnits="userSpaceOnUse" id="gradient6" spreadMethod="pad" x1="-819.2" x2="819.2">
      <stop offset="0.0" stop-color="#ab5706"/>
      <stop offset="0.4470588235294118" stop-color="#de7f12"/>
      <stop offset="0.5764705882352941" stop-color="#ffa741"/>
      <stop offset="1.0" stop-color="#af5a07"/>
    </linearGradient>
    <linearGradient gradientTransform="matrix(0.0, 0.0151, 0.0151, 0.0, -10.5, 9.1)" gradientUnits="userSpaceOnUse" id="gradient7" spreadMethod="pad" x1="-819.2" x2="819.2">
      <stop offset="0.0" stop-color="#ab5706"/>
      <stop offset="0.4470588235294118" stop-color="#de7f12"/>
      <stop offset="0.5764705882352941" stop-color="#ffa741"/>
      <stop offset="1.0" stop-color="#af5a07"/>
    </linearGradient>
    <linearGradient gradientTransform="matrix(0.0, 0.0151, 0.0151, 0.0, -17.05, 9.1)" gradientUnits="userSpaceOnUse" id="gradient8" spreadMethod="pad" x1="-819.2" x2="819.2">
      <stop offset="0.0" stop-color="#ab5706"/>
      <stop offset="0.4470588235294118" stop-color="#de7f12"/>
      <stop offset="0.5764705882352941" stop-color="#ffa741"/>
      <stop offset="1.0" stop-color="#af5a07"/>
    </linearGradient>
    <linearGradient gradientTransform="matrix(0.0, 0.0151, 0.0151, 0.0, -21.75, 9.1)" gradientUnits="userSpaceOnUse" id="gradient9" spreadMethod="pad" x1="-819.2" x2="819.2">
      <stop offset="0.0" stop-color="#ab5706"/>
      <stop offset="0.4470588235294118" stop-color="#de7f12"/>
      <stop offset="0.5764705882352941" stop-color="#ffa741"/>
      <stop offset="1.0" stop-color="#af5a07"/>
    </linearGradient>
    <linearGradient gradientTransform="matrix(0.0, 0.0151, 0.0151, 0.0, -26.9, 9.1)" gradientUnits="userSpaceOnUse" id="gradient10" spreadMethod="pad" x1="-819.2" x2="819.2">
      <stop offset="0.0" stop-color="#ab5706"/>
      <stop offset="0.4470588235294118" stop-color="#de7f12"/>
      <stop offset="0.5764705882352941" stop-color="#ffa741"/>
      <stop offset="1.0" stop-color="#af5a07"/>
    </linearGradient>
    <linearGradient gradientTransform="matrix(0.0, 0.0151, 0.0151, 0.0, -0.8, 9.1)" gradientUnits="userSpaceOnUse" id="gradient11" spreadMethod="pad" x1="-819.2" x2="819.2">
      <stop offset="0.0" stop-color="#ab5706"/>
      <stop offset="0.4470588235294118" stop-color="#de7f12"/>
      <stop offset="0.5764705882352941" stop-color="#ffa741"/>
      <stop offset="1.0" stop-color="#af5a07"/>
    </linearGradient>
    <linearGradient gradientTransform="matrix(0.0, 0.0151, 0.0151, 0.0, 7.5, 12.75)" gradientUnits="userSpaceOnUse" id="gradient12" spreadMethod="pad" x1="-819.2" x2="819.2">
      <stop offset="0.0" stop-color="#ab5706"/>
      <stop offset="0.4470588235294118" stop-color="#de7f12"/>
      <stop offset="0.5764705882352941" stop-color="#ffa741"/>
      <stop offset="1.0" stop-color="#af5a07"/>
    </linearGradient>
  </defs>
</svg>
