<?xml version="1.0" encoding="UTF-8" standalone="no"?>
<svg xmlns:ffdec="https://www.free-decompiler.com/flash" xmlns:xlink="http://www.w3.org/1999/xlink" ffdec:objectType="shape" height="54.0px" width="67.0px" xmlns="http://www.w3.org/2000/svg">
  <g transform="matrix(1.0, 0.0, 0.0, 1.0, 33.5, 27.0)">
    <path d="M7.3 -15.2 Q7.1 -16.0 6.35 -16.5 L4.75 -16.7 Q3.9 -16.5 3.45 -15.75 3.0 -15.0 3.25 -14.1 3.45 -13.25 4.2 -12.85 4.95 -12.35 5.8 -12.6 6.6 -12.8 7.1 -13.55 7.55 -14.35 7.3 -15.2 M8.1 -9.55 Q6.7 -7.15 4.05 -6.5 1.35 -5.85 -1.0 -7.25 -3.35 -8.65 -4.05 -11.35 -4.7 -14.0 -3.3 -16.4 -1.9 -18.75 0.8 -19.4 3.45 -20.1 5.8 -18.7 8.2 -17.25 8.85 -14.6 9.5 -11.9 8.1 -9.55" fill="url(#gradient0)" fill-rule="evenodd" stroke="none"/>
    <path d="M7.3 -15.2 Q7.55 -14.35 7.1 -13.55 6.6 -12.8 5.8 -12.6 4.95 -12.35 4.2 -12.85 3.45 -13.25 3.25 -14.1 3.0 -15.0 3.45 -15.75 3.9 -16.5 4.75 -16.7 L6.35 -16.5 Q7.1 -16.0 7.3 -15.2 M14.3 -4.55 Q17.1 -9.7 15.6 -15.3 14.05 -21.05 9.0 -24.05 3.95 -27.05 -1.75 -25.7 -7.45 -24.35 -10.6 -19.45 L-10.35 -19.9 Q-7.25 -25.1 -1.4 -26.55 4.4 -28.0 9.55 -24.95 14.75 -21.85 16.2 -16.0 17.65 -10.2 14.6 -5.0 L14.3 -4.55" fill="#ffd8af" fill-rule="evenodd" stroke="none"/>
    <path d="M-10.6 -19.45 Q-7.45 -24.35 -1.75 -25.7 3.95 -27.05 9.0 -24.05 14.05 -21.05 15.6 -15.3 17.1 -9.7 14.3 -4.55 11.1 0.35 5.4 1.7 -0.3 3.0 -5.35 0.0 -10.35 -3.0 -11.85 -8.65 -13.4 -14.3 -10.6 -19.45 M9.1 -7.55 Q10.9 -10.6 10.0 -14.0 9.2 -17.4 6.15 -19.25 3.15 -21.05 -0.3 -20.2 -3.7 -19.3 -5.5 -16.3 -7.35 -13.25 -6.45 -9.85 -5.6 -6.45 -2.55 -4.65 0.5 -2.8 3.9 -3.7 7.3 -4.55 9.1 -7.55" fill="url(#gradient1)" fill-rule="evenodd" stroke="none"/>
    <path d="M14.3 -4.55 L14.6 -5.0 13.35 -2.95 Q10.3 2.2 4.45 3.65 0.95 4.6 -2.25 3.8 -4.45 3.3 -6.55 2.05 L-9.45 -0.2 -9.8 -0.5 Q-12.25 -3.1 -13.2 -6.85 L-13.35 -7.75 Q-14.4 -13.1 -11.6 -17.85 L-10.35 -19.9 -10.6 -19.45 Q-13.4 -14.3 -11.85 -8.65 -10.35 -3.0 -5.35 0.0 -0.3 3.0 5.4 1.7 11.1 0.35 14.3 -4.55" fill="#843a00" fill-rule="evenodd" stroke="none"/>
    <path d="M8.1 -9.55 Q9.5 -11.9 8.85 -14.6 8.2 -17.25 5.8 -18.7 3.45 -20.1 0.8 -19.4 -1.9 -18.75 -3.3 -16.4 -4.7 -14.0 -4.05 -11.35 -3.35 -8.65 -1.0 -7.25 1.35 -5.85 4.05 -6.5 6.7 -7.15 8.1 -9.55 M9.1 -7.55 Q7.3 -4.55 3.9 -3.7 0.5 -2.8 -2.55 -4.65 -5.6 -6.45 -6.45 -9.85 -7.35 -13.25 -5.5 -16.3 -3.7 -19.3 -0.3 -20.2 3.15 -21.05 6.15 -19.25 9.2 -17.4 10.0 -14.0 10.9 -10.6 9.1 -7.55 M-13.35 -7.75 L-13.2 -6.85 Q-12.25 -3.1 -9.8 -0.5 L-13.3 0.5 Q-14.65 -4.0 -14.3 -7.5 L-13.35 -7.75 M-9.45 -0.2 L-6.55 2.05 Q-4.45 3.3 -2.25 3.8 L-3.65 6.25 Q-7.5 4.5 -10.45 1.75 L-9.45 -0.2" fill="#ab5706" fill-rule="evenodd" stroke="none"/>
    <path d="M-14.3 -7.5 Q-14.65 -4.0 -13.3 0.5 -21.65 2.7 -27.15 3.1 L-25.45 -5.15 Q-20.7 -5.7 -14.3 -7.5" fill="url(#gradient2)" fill-rule="evenodd" stroke="none"/>
    <path d="M-3.65 6.25 Q-9.7 16.85 -15.0 22.3 L-16.6 18.25 Q-17.9 14.6 -18.85 12.8 -14.3 8.6 -10.45 1.75 -7.5 4.5 -3.65 6.25" fill="url(#gradient3)" fill-rule="evenodd" stroke="none"/>
    <path d="M26.55 4.35 L33.5 4.35 33.5 5.5 26.55 5.5 26.55 4.35 M10.05 5.5 L10.05 4.35 17.1 4.35 17.1 5.5 10.05 5.5 M17.1 -0.1 L17.1 -1.25 26.55 -1.25 26.55 -0.1 17.1 -0.1 M-33.5 13.25 L-33.5 12.1 -33.35 11.75 -26.8 11.75 Q-26.15 11.75 -25.6 11.2 L-24.85 10.2 Q-24.75 10.0 -24.55 10.0 L-19.25 10.0 Q-18.95 10.0 -18.95 10.2 L-18.95 11.4 Q-18.95 11.2 -19.25 11.2 L-24.55 11.2 -24.85 11.35 Q-25.85 12.9 -26.8 12.9 L-33.35 12.9 -33.5 13.25 M-18.95 21.15 L-14.65 21.15 -14.45 21.35 -14.45 22.55 -14.65 22.3 -18.95 22.3 -18.95 21.15 M-33.5 22.55 L-33.5 21.3 -33.25 21.15 -28.85 21.15 -28.85 22.3 -33.25 22.3 -33.5 22.55 M-13.15 17.4 Q-13.15 14.6 -10.05 12.45 -6.45 10.0 -0.2 10.0 L2.8 10.0 Q7.4 10.0 10.75 11.6 14.75 13.55 14.75 17.05 L14.7 17.6 Q14.35 14.4 10.45 12.65 7.2 11.2 2.8 11.2 L-0.2 11.2 Q-6.1 11.2 -9.7 13.4 -12.75 15.3 -13.1 17.95 L-13.15 17.4 M-2.5 18.45 Q-2.2 19.4 -1.35 20.2 L-0.2 20.9 0.7 21.05 0.75 21.05 Q2.0 21.05 2.95 20.35 L3.2 20.15 3.8 19.4 4.3 17.95 4.4 18.5 Q4.4 20.05 3.4 21.1 2.4 22.25 0.75 22.25 -0.45 22.25 -1.55 21.2 -2.65 20.1 -2.65 18.5 L-2.65 17.9 -2.5 18.45" fill="#ffd8af" fill-rule="evenodd" stroke="none"/>
    <path d="M33.5 7.9 L33.5 10.2 26.55 10.2 26.55 7.9 33.5 7.9 M26.55 13.15 L26.55 15.45 17.1 15.45 17.1 13.15 26.55 13.15 M17.1 10.2 L10.05 10.2 10.05 7.9 17.1 7.9 17.1 10.2 M-14.45 24.45 L-14.45 26.8 -14.65 27.0 -33.35 27.0 -33.5 26.75 -33.5 24.4 -33.35 24.6 -14.65 24.6 -14.45 24.45 M-28.85 17.45 L-33.15 17.45 Q-33.5 17.45 -33.5 17.25 L-33.5 14.9 -33.15 15.05 -28.85 15.05 -28.85 17.45 M-13.15 17.4 L-13.1 17.95 Q-12.75 20.9 -9.15 22.8 -5.6 24.6 -0.25 24.6 L2.8 24.6 Q6.35 24.6 9.8 23.1 14.3 21.05 14.7 17.6 L14.75 17.05 14.75 19.4 Q14.75 23.15 10.1 25.3 6.5 27.0 2.8 27.0 L-0.25 27.0 Q-5.85 27.0 -9.5 25.0 -13.15 22.95 -13.15 19.8 L-13.15 17.4 M-2.5 18.45 L-2.65 17.9 -2.65 17.35 Q-2.65 15.7 -1.75 14.7 -0.85 13.6 0.75 13.6 2.4 13.6 3.45 14.8 4.4 15.95 4.4 17.35 L4.3 17.95 3.8 19.4 4.15 18.55 Q3.8 17.45 2.95 16.8 2.05 16.0 0.75 16.0 -0.45 16.0 -1.35 16.65 -2.15 17.35 -2.5 18.45" fill="#843a00" fill-rule="evenodd" stroke="none"/>
    <path d="M26.55 4.35 L26.55 5.5 33.5 5.5 33.5 7.9 26.55 7.9 26.55 10.2 26.55 13.15 17.1 13.15 17.1 10.2 17.1 7.9 10.05 7.9 10.05 5.5 17.1 5.5 17.1 4.35 17.1 -0.1 26.55 -0.1 26.55 4.35" fill="url(#gradient4)" fill-rule="evenodd" stroke="none"/>
    <path d="M-33.5 13.25 L-33.35 12.9 -26.8 12.9 Q-25.85 12.9 -24.85 11.35 L-24.55 11.2 -19.25 11.2 Q-18.95 11.2 -18.95 11.4 L-18.95 21.15 -18.95 22.3 -14.65 22.3 -14.45 22.55 -14.45 24.45 -14.65 24.6 -33.35 24.6 -33.5 24.4 -33.5 22.55 -33.25 22.3 -28.85 22.3 -28.85 21.15 -28.85 17.45 -28.85 15.05 -33.15 15.05 -33.5 14.9 -33.5 13.25" fill="url(#gradient5)" fill-rule="evenodd" stroke="none"/>
    <path d="M-13.1 17.95 Q-12.75 15.3 -9.7 13.4 -6.1 11.2 -0.2 11.2 L2.8 11.2 Q7.2 11.2 10.45 12.65 14.35 14.4 14.7 17.6 14.3 21.05 9.8 23.1 6.35 24.6 2.8 24.6 L-0.25 24.6 Q-5.6 24.6 -9.15 22.8 -12.75 20.9 -13.1 17.95 M-2.65 17.9 L-2.65 18.5 Q-2.65 20.1 -1.55 21.2 -0.45 22.25 0.75 22.25 2.4 22.25 3.4 21.1 4.4 20.05 4.4 18.5 L4.3 17.95 4.4 17.35 Q4.4 15.95 3.45 14.8 2.4 13.6 0.75 13.6 -0.85 13.6 -1.75 14.7 -2.65 15.7 -2.65 17.35 L-2.65 17.9" fill="url(#gradient6)" fill-rule="evenodd" stroke="none"/>
  </g>
  <defs>
    <linearGradient gradientTransform="matrix(0.0081, -0.0021, -0.0021, -0.0081, 2.65, -13.0)" gradientUnits="userSpaceOnUse" id="gradient0" spreadMethod="pad" x1="-819.2" x2="819.2">
      <stop offset="0.2549019607843137" stop-color="#d2751e"/>
      <stop offset="0.611764705882353" stop-color="#ffa741"/>
      <stop offset="1.0" stop-color="#de7f12"/>
    </linearGradient>
    <linearGradient gradientTransform="matrix(0.0173, -0.0044, -0.0044, -0.0174, 2.4, -12.15)" gradientUnits="userSpaceOnUse" id="gradient1" spreadMethod="pad" x1="-819.2" x2="819.2">
      <stop offset="0.2549019607843137" stop-color="#d2751e"/>
      <stop offset="0.611764705882353" stop-color="#ffa741"/>
      <stop offset="1.0" stop-color="#de7f12"/>
    </linearGradient>
    <linearGradient gradientTransform="matrix(0.0084, 0.0, 0.0, -0.0084, -20.2, -2.2)" gradientUnits="userSpaceOnUse" id="gradient2" spreadMethod="pad" x1="-819.2" x2="819.2">
      <stop offset="0.0196078431372549" stop-color="#d2751e"/>
      <stop offset="0.5568627450980392" stop-color="#ffa741"/>
      <stop offset="1.0" stop-color="#843a00"/>
    </linearGradient>
    <linearGradient gradientTransform="matrix(0.0092, 0.0, 0.0, -0.0092, -11.25, 12.0)" gradientUnits="userSpaceOnUse" id="gradient3" spreadMethod="pad" x1="-819.2" x2="819.2">
      <stop offset="0.0196078431372549" stop-color="#d2751e"/>
      <stop offset="0.5568627450980392" stop-color="#ffa741"/>
      <stop offset="1.0" stop-color="#843a00"/>
    </linearGradient>
    <linearGradient gradientTransform="matrix(0.0, -0.0087, -0.0087, 0.0, 21.8, 6.0)" gradientUnits="userSpaceOnUse" id="gradient4" spreadMethod="pad" x1="-819.2" x2="819.2">
      <stop offset="0.0" stop-color="#ab5706"/>
      <stop offset="0.2823529411764706" stop-color="#de7f12"/>
      <stop offset="0.47058823529411764" stop-color="#ffa741"/>
      <stop offset="1.0" stop-color="#af5a07"/>
    </linearGradient>
    <linearGradient gradientTransform="matrix(0.0, 0.0134, 0.0133, 0.0, -24.0, 13.65)" gradientUnits="userSpaceOnUse" id="gradient5" spreadMethod="pad" x1="-819.2" x2="819.2">
      <stop offset="0.0" stop-color="#ab5706"/>
      <stop offset="0.4470588235294118" stop-color="#de7f12"/>
      <stop offset="0.5764705882352941" stop-color="#ffa741"/>
      <stop offset="1.0" stop-color="#af5a07"/>
    </linearGradient>
    <linearGradient gradientTransform="matrix(0.0, 0.0134, 0.0133, 0.0, 0.75, 13.65)" gradientUnits="userSpaceOnUse" id="gradient6" spreadMethod="pad" x1="-819.2" x2="819.2">
      <stop offset="0.0" stop-color="#ab5706"/>
      <stop offset="0.4470588235294118" stop-color="#de7f12"/>
      <stop offset="0.5764705882352941" stop-color="#ffa741"/>
      <stop offset="1.0" stop-color="#af5a07"/>
    </linearGradient>
  </defs>
</svg>
