<?xml version="1.0" encoding="UTF-8" standalone="no"?>
<svg xmlns:ffdec="https://www.free-decompiler.com/flash" xmlns:xlink="http://www.w3.org/1999/xlink" ffdec:objectType="shape" height="75.8px" width="74.0px" xmlns="http://www.w3.org/2000/svg">
  <g transform="matrix(1.0, 0.0, 0.0, 1.0, 37.0, 39.9)">
    <path d="M29.95 -16.45 L29.9 -16.3 28.25 -19.2 Q27.85 -19.9 27.05 -20.15 L25.55 -19.95 22.95 -18.45 22.35 -17.95 20.55 -20.15 21.05 -20.9 22.35 -19.3 22.95 -19.8 25.55 -21.3 27.05 -21.5 Q27.85 -21.3 28.25 -20.6 L29.75 -18.0 Q30.15 -17.3 29.95 -16.45 M27.7 -5.0 Q27.2 -8.65 25.75 -12.15 L26.2 -12.3 26.75 -10.7 27.2 -9.15 27.3 -8.65 27.6 -7.2 27.75 -5.9 28.5 -6.05 31.5 -6.05 Q32.35 -6.05 32.9 -5.45 33.5 -4.85 33.5 -4.05 L33.5 -3.7 33.15 -3.75 32.9 -4.05 Q32.35 -4.65 31.5 -4.65 L29.25 -4.65 27.7 -5.0 M3.5 -32.75 Q3.5 -33.45 2.9 -34.05 2.35 -34.65 1.5 -34.65 L1.2 -34.65 0.85 -36.05 1.5 -36.05 Q2.35 -36.05 2.9 -35.45 3.5 -34.85 3.5 -34.05 L3.5 -32.75 M17.1 -23.3 L16.8 -23.55 17.3 -24.1 17.45 -24.35 18.0 -23.9 17.1 -23.3 M18.95 -28.4 L18.05 -29.45 15.45 -30.95 13.95 -31.15 Q13.15 -30.9 12.75 -30.2 L11.25 -27.6 11.0 -26.9 Q7.25 -28.45 3.35 -28.9 L3.5 -29.65 3.5 -30.25 3.35 -30.3 3.5 -30.7 3.5 -30.95 3.5 -30.25 4.65 -30.05 11.0 -28.25 11.25 -28.95 12.75 -31.55 Q13.15 -32.3 13.95 -32.5 L15.45 -32.3 18.05 -30.8 Q18.7 -30.45 18.95 -29.75 L19.0 -29.6 19.05 -29.4 19.1 -28.95 18.95 -28.4 M-0.85 -36.05 L-1.2 -34.65 -1.5 -34.65 Q-2.3 -34.65 -2.9 -34.05 -3.5 -33.45 -3.5 -32.75 L-3.5 -34.05 Q-3.5 -34.85 -2.9 -35.45 -2.3 -36.05 -1.5 -36.05 L-0.85 -36.05 M-18.3 -30.6 L-18.2 -30.7 -18.15 -30.7 -18.05 -30.8 -15.45 -32.3 -13.9 -32.5 Q-13.1 -32.3 -12.7 -31.55 L-11.2 -28.95 -10.95 -28.25 -7.45 -29.45 -5.65 -29.9 -3.5 -30.25 -3.5 -29.65 -3.35 -28.9 Q-7.3 -28.45 -10.95 -26.9 L-11.2 -27.6 -12.7 -30.2 Q-13.1 -30.9 -13.9 -31.15 L-15.45 -30.95 -18.05 -29.45 Q-18.65 -29.1 -18.9 -28.4 -19.15 -29.05 -18.9 -29.75 L-18.3 -30.6 M27.15 9.1 L29.05 10.2 29.25 10.3 29.95 11.25 30.0 12.25 29.9 12.6 Q29.65 11.9 29.05 11.55 L26.45 10.05 25.75 9.8 26.2 8.6 26.45 8.7 27.15 9.1 M18.85 23.1 L18.9 23.2 Q19.15 23.9 18.95 24.7 L18.8 24.35 17.3 21.75 16.8 21.2 17.45 20.65 18.8 23.0 18.85 23.1 M-19.05 24.05 L-18.85 23.1 -18.8 23.0 -17.45 20.65 -16.8 21.2 -17.3 21.75 -18.8 24.35 -18.9 24.7 -19.05 24.05 M-30.0 12.25 L-29.95 11.4 -29.9 11.25 Q-29.7 10.6 -29.05 10.2 L-27.15 9.1 -26.45 8.7 -26.2 8.6 -25.7 9.8 -26.45 10.05 -29.05 11.55 Q-29.65 11.9 -29.9 12.6 L-30.0 12.25 M-33.5 -3.7 L-33.5 -4.05 Q-33.5 -4.85 -32.9 -5.45 -32.3 -6.05 -31.5 -6.05 L-28.5 -6.05 -27.75 -5.9 -27.35 -8.35 -26.7 -10.75 -26.2 -12.3 -25.7 -12.15 Q-27.2 -8.7 -27.7 -5.0 L-29.2 -4.65 -31.5 -4.65 Q-32.3 -4.65 -32.9 -4.05 L-33.15 -3.75 -33.5 -3.7 M-29.75 -18.0 L-28.25 -20.6 Q-27.85 -21.3 -27.05 -21.5 L-25.55 -21.3 -22.95 -19.8 -22.35 -19.3 -21.0 -20.95 -20.5 -20.15 -22.35 -17.95 -22.95 -18.45 -25.55 -19.95 -27.05 -20.15 Q-27.85 -19.9 -28.25 -19.2 L-29.9 -16.3 -29.95 -16.45 Q-30.15 -17.3 -29.75 -18.0 M20.4 0.9 L20.6 0.85 Q19.9 5.35 17.45 9.0 L17.3 9.25 16.95 8.7 Q19.5 5.2 20.4 0.9 M11.35 14.0 L12.1 14.45 Q8.25 17.25 3.65 18.0 L3.85 17.0 Q7.9 16.25 11.35 14.0 M-3.85 17.0 L-3.6 18.0 Q-8.05 17.3 -11.75 14.75 L-11.85 14.65 Q-11.95 14.55 -12.0 14.55 L-12.1 14.45 -11.35 14.0 Q-7.9 16.25 -3.85 17.0 M-18.0 -23.9 L-17.45 -24.35 -17.3 -24.1 -16.8 -23.55 -17.05 -23.3 -18.0 -23.9 M-20.35 0.9 Q-19.5 5.2 -16.9 8.7 L-17.25 9.2 -17.8 8.35 -20.45 1.45 -20.5 1.3 -20.5 1.15 -20.55 1.0 -20.55 0.85 -20.35 0.9" fill="#fffdad" fill-rule="evenodd" stroke="none"/>
    <path d="M29.95 -16.45 Q30.15 -17.3 29.75 -18.0 L30.05 -16.85 30.05 -11.9 Q29.95 -10.8 29.05 -10.25 L27.2 -9.15 26.75 -10.7 25.75 -13.5 26.45 -13.75 29.05 -15.25 Q29.75 -15.65 29.95 -16.45 M17.05 -14.6 Q19.65 -11.0 20.5 -6.6 L14.4 -8.0 14.75 -7.45 15.45 -6.25 Q16.0 -5.05 15.65 -3.95 L16.75 -2.9 Q17.35 -1.9 17.4 -0.3 L17.1 1.65 20.4 0.9 Q19.5 5.2 16.95 8.7 L15.15 5.85 15.0 6.0 13.6 7.5 Q12.65 8.15 11.2 8.3 L10.35 8.35 4.65 8.35 3.6 8.35 0.6 8.15 0.0 7.8 -0.55 8.15 -3.6 8.35 -4.6 8.35 -10.35 8.35 -11.15 8.3 Q-12.6 8.15 -13.55 7.5 L-15.0 6.0 -15.1 5.85 -16.9 8.7 Q-19.5 5.2 -20.35 0.9 L-17.05 1.65 Q-17.4 0.8 -17.4 -0.3 -17.35 -1.9 -16.7 -2.9 L-15.65 -3.95 Q-16.0 -5.05 -15.45 -6.25 L-14.75 -7.45 -14.35 -8.0 -20.45 -6.6 Q-19.65 -11.0 -17.0 -14.6 L-13.5 -9.05 Q-11.55 -11.2 -9.9 -11.2 L-9.75 -11.2 -9.3 -12.2 Q-8.2 -13.85 -4.95 -14.85 L-4.4 -15.0 -3.0 -15.15 Q-0.95 -15.15 0.0 -13.65 1.05 -15.15 3.0 -15.15 L4.4 -15.0 4.95 -14.85 Q8.2 -13.85 9.3 -12.2 L9.75 -11.2 9.9 -11.2 Q11.55 -11.2 13.55 -9.05 L17.05 -14.6 M3.8 -23.05 Q8.1 -22.35 11.65 -19.9 L5.4 -15.95 3.8 -23.05 M18.05 -23.9 L16.8 -24.9 17.3 -25.45 18.8 -28.05 18.95 -28.4 19.1 -28.95 19.0 -24.55 18.05 -23.9 M-3.8 -23.05 L-5.4 -15.95 -11.65 -19.9 Q-8.05 -22.35 -3.8 -23.05 M-5.5 -29.95 L-3.5 -30.3 -3.45 -30.7 -3.35 -30.3 -5.5 -29.95 M18.05 -30.8 Q18.9 -30.35 19.05 -29.4 L19.0 -29.6 18.95 -29.75 Q18.7 -30.45 18.05 -30.8 M33.5 -1.0 L33.5 3.95 Q33.5 4.8 32.9 5.35 32.35 5.95 31.5 5.95 L28.5 5.95 27.75 5.8 27.15 9.1 26.45 8.7 25.75 8.45 Q27.3 4.7 27.75 0.8 L28.5 0.95 31.5 0.95 Q32.35 0.95 32.9 0.35 33.5 -0.2 33.5 -1.0 M30.0 12.25 Q30.05 17.45 29.75 17.9 L28.25 20.5 Q27.85 21.2 27.05 21.45 L25.55 21.25 24.5 20.65 21.3 15.6 22.35 14.25 22.95 14.75 25.55 16.25 27.05 16.45 Q27.85 16.2 28.25 15.5 L29.75 12.9 29.9 12.6 30.0 12.25 M21.5 20.35 L18.85 23.1 18.8 23.0 17.45 20.65 17.3 20.4 16.8 19.85 18.5 18.5 21.5 20.35 M19.05 24.3 L19.05 28.85 Q19.15 30.05 18.05 30.7 L15.45 32.2 13.95 32.4 Q13.15 32.15 12.75 31.45 L11.25 28.85 11.0 28.15 Q7.35 29.65 3.65 30.15 L3.5 33.9 Q3.5 34.75 2.9 35.3 2.35 35.9 1.5 35.9 L-1.5 35.9 Q-2.3 35.9 -2.9 35.3 -3.5 34.75 -3.5 33.9 L-3.6 30.15 Q-7.3 29.65 -10.95 28.15 L-11.2 28.85 -12.7 31.45 Q-13.1 32.15 -13.9 32.4 L-15.45 32.2 -18.05 30.7 Q-19.2 29.95 -19.05 28.7 L-19.0 26.6 -19.0 24.4 -19.0 24.55 Q-18.75 25.35 -18.05 25.75 L-15.45 27.2 -13.9 27.4 Q-13.1 27.2 -12.7 26.5 L-11.2 23.9 -10.95 23.2 Q-7.3 24.75 -3.35 25.2 L-3.5 25.95 -3.5 28.9 Q-3.5 29.75 -2.9 30.3 -2.3 30.9 -1.5 30.9 L-0.7 30.9 0.0 34.1 0.75 30.9 1.5 30.9 Q2.35 30.9 2.9 30.3 3.5 29.75 3.5 28.9 L3.5 25.95 3.35 25.2 Q7.25 24.75 11.0 23.2 L11.25 23.9 12.75 26.5 Q13.15 27.2 13.95 27.4 L15.45 27.2 18.05 25.75 Q18.7 25.4 18.95 24.7 L19.0 24.55 19.05 24.3 M-18.85 23.1 L-21.45 20.35 -18.45 18.45 -16.8 19.85 -17.3 20.4 -17.45 20.65 -18.8 23.0 -18.85 23.1 M-24.45 20.65 L-25.55 21.25 -27.05 21.45 Q-27.85 21.2 -28.25 20.5 L-29.75 17.9 Q-30.1 17.35 -30.0 16.6 L-30.0 12.25 -29.9 12.6 -29.75 12.9 -28.25 15.5 Q-27.85 16.2 -27.05 16.45 L-25.55 16.25 -22.95 14.75 -22.35 14.25 -21.25 15.6 -24.45 20.65 M-27.15 9.1 L-27.75 5.8 -28.5 5.95 -31.5 5.95 Q-32.3 5.95 -32.9 5.35 -33.5 4.8 -33.5 3.95 L-33.5 -1.0 Q-33.5 -0.2 -32.9 0.35 -32.3 0.95 -31.5 0.95 L-28.5 0.95 -27.75 0.8 Q-27.3 4.75 -25.7 8.45 L-26.45 8.7 -27.15 9.1 M-27.15 -9.15 L-29.05 -10.25 Q-30.15 -10.9 -30.0 -12.25 L-30.05 -17.0 -29.75 -18.0 Q-30.15 -17.3 -29.95 -16.45 -29.75 -15.65 -29.05 -15.25 L-26.45 -13.75 -25.7 -13.5 -26.2 -12.3 -26.7 -10.75 -27.15 -9.15 M-18.9 -24.45 L-19.0 -28.7 -18.8 -28.05 -17.3 -25.45 -16.8 -24.9 -18.0 -23.9 -18.9 -24.45 M-8.0 -11.0 L-7.8 -10.7 -7.05 -9.95 Q-6.6 -9.5 -6.8 -8.9 L-6.9 -8.65 -6.95 -8.7 -7.35 -8.45 -7.6 -8.5 -8.45 -9.3 -9.15 -10.3 Q-10.0 -10.95 -11.3 -9.85 L-13.05 -8.0 -13.85 -6.75 -13.9 -6.65 Q-14.25 -5.85 -14.0 -5.35 L-13.85 -5.15 Q-13.5 -4.8 -12.75 -4.6 L-11.55 -4.35 -10.85 -3.8 Q-10.6 -3.4 -11.1 -3.0 -11.55 -2.6 -12.55 -3.0 L-14.05 -3.65 -14.1 -3.65 Q-15.7 -4.0 -15.7 -1.2 -15.7 1.6 -13.65 1.1 L-12.6 0.9 Q-12.0 0.9 -12.05 1.6 -12.05 1.95 -12.3 2.1 L-13.55 2.2 -14.2 2.25 -14.25 2.25 -14.3 2.35 Q-14.55 2.6 -14.1 3.35 L-13.85 3.7 -12.6 5.15 -11.0 5.65 -9.3 5.65 -4.65 5.7 -1.2 5.6 Q-0.8 5.45 -0.65 3.55 -0.55 1.8 0.0 1.8 0.55 1.8 0.7 3.55 0.85 5.45 1.2 5.6 L4.65 5.7 9.3 5.65 11.0 5.65 12.6 5.15 13.85 3.7 14.1 3.35 Q14.65 2.45 14.25 2.25 L14.2 2.25 13.6 2.2 12.3 2.1 Q12.1 1.95 12.05 1.6 12.0 0.9 12.6 0.9 L13.65 1.1 Q15.7 1.6 15.75 -1.2 15.75 -4.0 14.15 -3.65 L14.05 -3.65 12.6 -3.0 Q11.55 -2.6 11.15 -3.0 10.65 -3.4 10.9 -3.8 L11.6 -4.35 12.8 -4.6 Q13.5 -4.8 13.85 -5.15 L14.0 -5.35 14.05 -5.4 14.05 -5.45 14.05 -5.5 14.1 -5.75 13.9 -6.65 13.85 -6.75 13.05 -8.0 11.35 -9.85 Q10.05 -10.95 9.15 -10.3 L8.45 -9.3 7.6 -8.5 7.45 -8.45 Q7.15 -8.45 6.95 -8.7 L6.95 -8.65 6.8 -8.9 Q6.65 -9.5 7.05 -9.95 L7.8 -10.7 8.05 -11.0 8.15 -11.7 Q7.85 -13.3 4.0 -14.35 2.05 -14.85 1.35 -13.65 0.8 -12.8 0.65 -9.8 0.55 -7.25 0.0 -7.25 -0.55 -7.25 -0.65 -9.8 -0.8 -12.8 -1.3 -13.65 -2.05 -14.85 -3.95 -14.35 -7.8 -13.35 -8.15 -11.7 L-8.0 -11.0 M5.4 10.2 L11.35 14.0 Q7.9 16.25 3.85 17.0 L5.4 10.2 M-5.4 10.2 L-3.85 17.0 Q-7.9 16.25 -11.35 14.0 L-5.4 10.2" fill="#843a00" fill-rule="evenodd" stroke="none"/>
    <path d="M20.55 -20.15 L22.35 -17.95 22.95 -18.45 25.55 -19.95 27.05 -20.15 Q27.85 -19.9 28.25 -19.2 L29.9 -16.3 29.95 -16.45 Q29.75 -15.65 29.05 -15.25 L26.45 -13.75 25.75 -13.5 26.75 -10.7 26.2 -12.3 25.75 -12.15 Q27.2 -8.65 27.7 -5.0 L20.5 -6.6 Q19.65 -11.0 17.05 -14.6 L20.55 -20.15 M1.2 -34.65 L1.5 -34.65 Q2.35 -34.65 2.9 -34.05 3.5 -33.45 3.5 -32.75 L3.5 -31.05 3.5 -30.95 3.5 -30.7 3.35 -30.3 3.5 -30.25 3.5 -29.65 3.35 -28.9 Q7.25 -28.45 11.0 -26.9 L11.25 -27.6 12.75 -30.2 Q13.15 -30.9 13.95 -31.15 L15.45 -30.95 18.05 -29.45 18.95 -28.4 18.8 -28.05 17.3 -25.45 16.8 -24.9 18.05 -23.9 18.0 -23.9 17.45 -24.35 17.3 -24.1 16.8 -23.55 17.1 -23.3 11.65 -19.9 Q8.1 -22.35 3.8 -23.05 L1.2 -34.65 M-3.5 -32.75 Q-3.5 -33.45 -2.9 -34.05 -2.3 -34.65 -1.5 -34.65 L-1.2 -34.65 -3.8 -23.05 Q-8.05 -22.35 -11.65 -19.9 L-17.05 -23.3 -16.8 -23.55 -17.3 -24.1 -17.45 -24.35 -18.0 -23.9 -16.8 -24.9 -17.3 -25.45 -18.8 -28.05 -19.0 -28.7 -19.0 -29.6 -18.95 -29.65 -18.3 -30.6 -18.9 -29.75 Q-19.15 -29.05 -18.9 -28.4 -18.65 -29.1 -18.05 -29.45 L-15.45 -30.95 -13.9 -31.15 Q-13.1 -30.9 -12.7 -30.2 L-11.2 -27.6 -10.95 -26.9 Q-7.3 -28.45 -3.35 -28.9 L-3.5 -29.65 -3.5 -30.25 -5.65 -29.9 -5.5 -29.95 -3.35 -30.3 -3.45 -30.7 -3.5 -31.05 -3.5 -32.75 M3.5 -30.25 L4.55 -30.1 4.65 -30.05 3.5 -30.25 M33.5 -2.1 L33.5 -1.0 Q33.5 -0.2 32.9 0.35 32.35 0.95 31.5 0.95 L28.5 0.95 27.75 0.8 Q27.3 4.7 25.75 8.45 L26.45 8.7 26.2 8.6 25.75 9.8 26.45 10.05 29.05 11.55 Q29.65 11.9 29.9 12.6 L29.75 12.9 28.25 15.5 Q27.85 16.2 27.05 16.45 L25.55 16.25 22.95 14.75 22.35 14.25 21.3 15.6 17.3 9.25 17.45 9.0 Q19.9 5.35 20.6 0.85 L33.5 -2.1 M18.9 23.2 L19.05 24.3 19.0 24.55 18.95 24.7 Q18.7 25.4 18.05 25.75 L15.45 27.2 13.95 27.4 Q13.15 27.2 12.75 26.5 L11.25 23.9 11.0 23.2 Q7.25 24.75 3.35 25.2 L3.5 25.95 3.5 28.9 Q3.5 29.75 2.9 30.3 2.35 30.9 1.5 30.9 L0.75 30.9 3.65 18.0 Q8.25 17.25 12.1 14.45 L18.5 18.5 16.8 19.85 17.3 20.4 17.45 20.65 16.8 21.2 17.3 21.75 18.8 24.35 18.95 24.7 Q19.15 23.9 18.9 23.2 M-19.0 24.4 L-19.05 24.15 -19.05 24.05 -18.9 24.7 -18.8 24.35 -17.3 21.75 -16.8 21.2 -17.45 20.65 -17.3 20.4 -16.8 19.85 -18.45 18.45 -12.1 14.45 -12.0 14.55 Q-11.95 14.55 -11.85 14.65 L-11.75 14.75 Q-8.05 17.3 -3.6 18.0 L-0.7 30.9 -1.5 30.9 Q-2.3 30.9 -2.9 30.3 -3.5 29.75 -3.5 28.9 L-3.5 25.95 -3.35 25.2 Q-7.3 24.75 -10.95 23.2 L-11.2 23.9 -12.7 26.5 Q-13.1 27.2 -13.9 27.4 L-15.45 27.2 -18.05 25.75 Q-18.75 25.35 -19.0 24.55 L-19.0 24.4 M-29.95 11.4 Q-29.75 10.6 -29.05 10.2 -29.7 10.6 -29.9 11.25 L-29.95 11.4 M-33.5 -1.0 L-33.5 -2.1 -20.55 0.85 -20.55 1.0 -20.5 1.15 -20.5 1.3 -20.45 1.45 -17.8 8.35 -17.25 9.25 -21.25 15.6 -22.35 14.25 -22.95 14.75 -25.55 16.25 -27.05 16.45 Q-27.85 16.2 -28.25 15.5 L-29.75 12.9 -29.9 12.6 Q-29.65 11.9 -29.05 11.55 L-26.45 10.05 -25.7 9.8 -26.2 8.6 -26.45 8.7 -25.7 8.45 Q-27.3 4.75 -27.75 0.8 L-28.5 0.95 -31.5 0.95 Q-32.3 0.95 -32.9 0.35 -33.5 -0.2 -33.5 -1.0 M-27.35 -8.35 L-27.15 -9.15 -26.7 -10.75 -27.35 -8.35 M29.25 -4.65 L31.5 -4.65 Q32.35 -4.65 32.9 -4.05 L33.15 -3.75 29.25 -4.65 M-29.95 -16.45 L-29.9 -16.3 -28.25 -19.2 Q-27.85 -19.9 -27.05 -20.15 L-25.55 -19.95 -22.95 -18.45 -22.35 -17.95 -20.5 -20.15 -17.0 -14.6 Q-19.65 -11.0 -20.45 -6.6 L-27.7 -5.0 Q-27.2 -8.7 -25.7 -12.15 L-26.2 -12.3 -25.7 -13.5 -26.45 -13.75 -29.05 -15.25 Q-29.75 -15.65 -29.95 -16.45 M-33.15 -3.75 L-32.9 -4.05 Q-32.3 -4.65 -31.5 -4.65 L-29.2 -4.65 -33.15 -3.75" fill="url(#gradient0)" fill-rule="evenodd" stroke="none"/>
    <path d="M0.85 -36.05 L1.2 -34.65 3.8 -23.05 5.4 -15.95 4.95 -14.85 4.4 -15.0 3.0 -15.15 Q1.05 -15.15 0.0 -13.65 L0.0 -39.9 0.85 -36.05" fill="url(#gradient1)" fill-rule="evenodd" stroke="none"/>
    <path d="M-1.2 -34.65 L-0.85 -36.05 0.0 -39.9 0.0 -13.65 Q-0.95 -15.15 -3.0 -15.15 L-4.4 -15.0 -4.95 -14.85 -5.4 -15.95 -3.8 -23.05 -1.2 -34.65" fill="url(#gradient2)" fill-rule="evenodd" stroke="none"/>
    <path d="M-5.4 -15.95 L-4.95 -14.85 Q-8.2 -13.85 -9.3 -12.2 L-26.15 -29.05 -18.9 -24.45 -18.0 -23.9 -17.05 -23.3 -11.65 -19.9 -5.4 -15.95" fill="url(#gradient3)" fill-rule="evenodd" stroke="none"/>
    <path d="M11.65 -19.9 L17.1 -23.3 18.0 -23.9 18.05 -23.9 19.0 -24.55 26.15 -29.05 9.3 -12.2 Q8.2 -13.85 4.95 -14.85 L5.4 -15.95 11.65 -19.9" fill="url(#gradient4)" fill-rule="evenodd" stroke="none"/>
    <path d="M21.05 -20.9 L20.55 -20.15 17.05 -14.6 13.55 -9.05 Q11.55 -11.2 9.9 -11.2 L9.75 -11.2 9.3 -12.2 26.15 -29.05 21.05 -20.9" fill="url(#gradient5)" fill-rule="evenodd" stroke="none"/>
    <path d="M20.5 -6.6 L27.7 -5.0 29.25 -4.65 33.15 -3.75 33.5 -3.7 37.0 -2.9 16.75 -2.9 15.65 -3.95 Q16.0 -5.05 15.45 -6.25 L14.75 -7.45 14.4 -8.0 20.5 -6.6" fill="url(#gradient6)" fill-rule="evenodd" stroke="none"/>
    <path d="M8.05 -11.0 L8.0 -11.0 Q7.3 -12.25 4.0 -13.25 2.1 -13.75 1.35 -12.5 0.8 -11.65 0.65 -8.7 0.55 -6.15 0.0 -6.15 -0.55 -6.15 -0.65 -8.7 -0.8 -11.65 -1.3 -12.5 -2.1 -13.75 -3.95 -13.25 -7.3 -12.3 -8.0 -11.0 L-8.15 -11.7 Q-7.8 -13.35 -3.95 -14.35 -2.05 -14.85 -1.3 -13.65 -0.8 -12.8 -0.65 -9.8 -0.55 -7.25 0.0 -7.25 0.55 -7.25 0.65 -9.8 0.8 -12.8 1.35 -13.65 2.05 -14.85 4.0 -14.35 7.85 -13.3 8.15 -11.7 L8.05 -11.0 M-6.9 -8.65 Q-6.65 -8.15 -6.8 -7.7 -7.05 -7.2 -7.6 -7.35 L-8.45 -8.15 -9.15 -9.15 Q-10.0 -9.8 -11.3 -8.75 L-13.05 -6.85 -14.0 -5.35 Q-14.25 -5.85 -13.9 -6.65 L-13.85 -6.75 -13.05 -8.0 -11.3 -9.85 Q-10.0 -10.95 -9.15 -10.3 L-8.45 -9.3 -7.6 -8.5 -7.35 -8.45 -6.95 -8.7 -6.9 -8.65 M-11.1 -3.0 Q-10.4 -2.4 -11.1 -1.85 L-12.55 -1.9 -14.05 -2.55 Q-14.7 -2.7 -15.15 -2.1 L-15.65 -0.65 Q-15.8 -1.85 -15.35 -2.8 -14.9 -3.8 -14.1 -3.65 L-14.05 -3.65 -12.55 -3.0 Q-11.55 -2.6 -11.1 -3.0 M-12.3 2.1 Q-12.0 2.25 -12.05 2.75 -12.05 3.35 -12.85 3.35 L-14.1 3.35 Q-14.55 2.6 -14.3 2.35 L-14.25 2.25 -14.2 2.25 -13.55 2.2 -12.3 2.1 M14.1 3.35 L12.85 3.35 Q12.1 3.35 12.05 2.75 12.0 2.3 12.3 2.1 L13.6 2.2 14.2 2.25 14.25 2.25 Q14.65 2.45 14.1 3.35 M14.15 -3.65 Q14.9 -3.8 15.4 -2.8 15.85 -1.85 15.65 -0.65 L15.15 -2.1 Q14.7 -2.7 14.05 -2.55 L12.6 -1.9 11.15 -1.85 Q10.45 -2.4 11.15 -3.0 11.55 -2.6 12.6 -3.0 L14.05 -3.65 14.15 -3.65 M14.0 -5.35 L13.05 -6.85 11.35 -8.75 Q10.05 -9.8 9.15 -9.15 L8.45 -8.15 7.6 -7.35 Q7.05 -7.2 6.85 -7.7 6.65 -8.2 6.95 -8.65 L6.95 -8.7 Q7.15 -8.45 7.45 -8.45 L7.6 -8.5 8.45 -9.3 9.15 -10.3 Q10.05 -10.95 11.35 -9.85 L13.05 -8.0 13.85 -6.75 14.1 -5.75 14.05 -5.5 14.05 -5.45 14.05 -5.4 14.0 -5.35" fill="#ffd8af" fill-rule="evenodd" stroke="none"/>
    <path d="M-8.0 -11.0 Q-7.3 -12.3 -3.95 -13.25 -2.1 -13.75 -1.3 -12.5 -0.8 -11.65 -0.65 -8.7 -0.55 -6.15 0.0 -6.15 0.55 -6.15 0.65 -8.7 0.8 -11.65 1.35 -12.5 2.1 -13.75 4.0 -13.25 7.3 -12.25 8.0 -11.0 L8.05 -11.0 7.8 -10.7 7.05 -9.95 Q6.65 -9.5 6.8 -8.9 L6.95 -8.65 Q6.65 -8.2 6.85 -7.7 7.05 -7.2 7.6 -7.35 L8.45 -8.15 9.15 -9.15 Q10.05 -9.8 11.35 -8.75 L13.05 -6.85 14.0 -5.35 13.85 -5.15 Q13.5 -4.8 12.8 -4.6 L11.6 -4.35 10.9 -3.8 Q10.65 -3.4 11.15 -3.0 10.45 -2.4 11.15 -1.85 L12.6 -1.9 14.05 -2.55 Q14.7 -2.7 15.15 -2.1 L15.65 -0.65 Q15.85 -1.85 15.4 -2.8 14.9 -3.8 14.15 -3.65 15.75 -4.0 15.75 -1.2 15.7 1.6 13.65 1.1 L12.6 0.9 Q12.0 0.9 12.05 1.6 12.1 1.95 12.3 2.1 12.0 2.3 12.05 2.75 12.1 3.35 12.85 3.35 L14.1 3.35 13.85 3.7 12.6 5.15 11.0 5.65 9.3 5.65 4.65 5.7 1.2 5.6 Q0.85 5.45 0.7 3.55 0.55 1.8 0.0 1.8 -0.55 1.8 -0.65 3.55 -0.8 5.45 -1.2 5.6 L-4.65 5.7 -9.3 5.65 -11.0 5.65 -12.6 5.15 -13.85 3.7 -14.1 3.35 -12.85 3.35 Q-12.05 3.35 -12.05 2.75 -12.0 2.25 -12.3 2.1 -12.05 1.95 -12.05 1.6 -12.0 0.9 -12.6 0.9 L-13.65 1.1 Q-15.7 1.6 -15.7 -1.2 -15.7 -4.0 -14.1 -3.65 -14.9 -3.8 -15.35 -2.8 -15.8 -1.85 -15.65 -0.65 L-15.15 -2.1 Q-14.7 -2.7 -14.05 -2.55 L-12.55 -1.9 -11.1 -1.85 Q-10.4 -2.4 -11.1 -3.0 -10.6 -3.4 -10.85 -3.8 L-11.55 -4.35 -12.75 -4.6 Q-13.5 -4.8 -13.85 -5.15 L-14.0 -5.35 -13.05 -6.85 -11.3 -8.75 Q-10.0 -9.8 -9.15 -9.15 L-8.45 -8.15 -7.6 -7.35 Q-7.05 -7.2 -6.8 -7.7 -6.65 -8.15 -6.9 -8.65 L-6.8 -8.9 Q-6.6 -9.5 -7.05 -9.95 L-7.8 -10.7 -8.0 -11.0 M13.85 -6.75 L13.9 -6.65 14.1 -5.75 13.85 -6.75" fill="url(#gradient7)" fill-rule="evenodd" stroke="none"/>
    <path d="M37.0 -2.9 L33.5 -2.1 20.6 0.85 20.4 0.9 17.1 1.65 17.4 -0.3 Q17.35 -1.9 16.75 -2.9 L37.0 -2.9" fill="url(#gradient8)" fill-rule="evenodd" stroke="none"/>
    <path d="M26.15 23.3 L21.5 20.35 18.5 18.5 12.1 14.45 11.35 14.0 5.4 10.2 4.65 8.35 10.35 8.35 11.2 8.3 26.15 23.3" fill="url(#gradient9)" fill-rule="evenodd" stroke="none"/>
    <path d="M24.5 20.65 L26.15 23.3 11.2 8.3 Q12.65 8.15 13.6 7.5 L15.0 6.0 15.15 5.85 16.95 8.7 17.3 9.25 21.3 15.6 24.5 20.65" fill="url(#gradient10)" fill-rule="evenodd" stroke="none"/>
    <path d="M-21.0 -20.95 L-26.15 -29.05 -9.3 -12.2 -9.75 -11.2 -9.9 -11.2 Q-11.55 -11.2 -13.5 -9.05 L-17.0 -14.6 -20.5 -20.15 -21.0 -20.95" fill="url(#gradient11)" fill-rule="evenodd" stroke="none"/>
    <path d="M-21.45 20.35 L-26.15 23.3 -11.15 8.3 -10.35 8.35 -4.6 8.35 -5.4 10.2 -11.35 14.0 -12.1 14.45 -18.45 18.45 -21.45 20.35" fill="url(#gradient12)" fill-rule="evenodd" stroke="none"/>
    <path d="M-4.6 8.35 L-3.6 8.35 -0.55 8.15 0.0 7.8 0.0 34.1 -0.7 30.9 -3.6 18.0 -3.85 17.0 -5.4 10.2 -4.6 8.35" fill="url(#gradient13)" fill-rule="evenodd" stroke="none"/>
    <path d="M4.65 8.35 L5.4 10.2 3.85 17.0 3.65 18.0 0.75 30.9 0.0 34.1 0.0 7.8 0.6 8.15 3.6 8.35 4.65 8.35" fill="url(#gradient14)" fill-rule="evenodd" stroke="none"/>
    <path d="M-37.0 -2.9 L-33.5 -3.7 -33.15 -3.75 -29.2 -4.65 -27.7 -5.0 -20.45 -6.6 -14.35 -8.0 -14.75 -7.45 -15.45 -6.25 Q-16.0 -5.05 -15.65 -3.95 L-16.7 -2.9 -37.0 -2.9" fill="url(#gradient15)" fill-rule="evenodd" stroke="none"/>
    <path d="M-33.5 -2.1 L-37.0 -2.9 -16.7 -2.9 Q-17.35 -1.9 -17.4 -0.3 -17.4 0.8 -17.05 1.65 L-20.35 0.9 -20.55 0.85 -33.5 -2.1" fill="url(#gradient16)" fill-rule="evenodd" stroke="none"/>
    <path d="M-26.15 23.3 L-24.45 20.65 -21.25 15.6 -17.25 9.25 -17.25 9.2 -16.9 8.7 -15.1 5.85 -15.0 6.0 -13.55 7.5 Q-12.6 8.15 -11.15 8.3 L-26.15 23.3" fill="url(#gradient17)" fill-rule="evenodd" stroke="none"/>
    <path d="M-17.25 9.25 L-17.8 8.35 -17.25 9.2 -17.25 9.25" fill="#c66c0c" fill-rule="evenodd" stroke="none"/>
  </g>
  <defs>
    <linearGradient gradientTransform="matrix(0.0, -0.0409, -0.0409, 0.0, 0.0, -2.55)" gradientUnits="userSpaceOnUse" id="gradient0" spreadMethod="pad" x1="-819.2" x2="819.2">
      <stop offset="0.2549019607843137" stop-color="#f18c00"/>
      <stop offset="0.611764705882353" stop-color="#fffb34"/>
      <stop offset="1.0" stop-color="#ffba00"/>
    </linearGradient>
    <linearGradient gradientTransform="matrix(0.0, -0.0452, -0.0452, 0.0, 2.7, -2.9)" gradientUnits="userSpaceOnUse" id="gradient1" spreadMethod="pad" x1="-819.2" x2="819.2">
      <stop offset="0.1568627450980392" stop-color="#fcb72d"/>
      <stop offset="0.37254901960784315" stop-color="#b97239"/>
      <stop offset="0.8117647058823529" stop-color="#e1a03c"/>
    </linearGradient>
    <linearGradient gradientTransform="matrix(0.0, -0.0452, -0.0452, 0.0, -2.7, -2.9)" gradientUnits="userSpaceOnUse" id="gradient2" spreadMethod="pad" x1="-819.2" x2="819.2">
      <stop offset="0.2549019607843137" stop-color="#d2751e"/>
      <stop offset="0.611764705882353" stop-color="#ffe750"/>
      <stop offset="1.0" stop-color="#fbcd0b"/>
    </linearGradient>
    <linearGradient gradientTransform="matrix(0.0, -0.0452, -0.0452, 0.0, -13.1, -2.9)" gradientUnits="userSpaceOnUse" id="gradient3" spreadMethod="pad" x1="-819.2" x2="819.2">
      <stop offset="0.2549019607843137" stop-color="#d2751e"/>
      <stop offset="0.611764705882353" stop-color="#ffe750"/>
      <stop offset="1.0" stop-color="#fbcd0b"/>
    </linearGradient>
    <linearGradient gradientTransform="matrix(0.0, -0.0452, -0.0452, 0.0, 13.1, -2.9)" gradientUnits="userSpaceOnUse" id="gradient4" spreadMethod="pad" x1="-819.2" x2="819.2">
      <stop offset="0.2549019607843137" stop-color="#d2751e"/>
      <stop offset="0.611764705882353" stop-color="#ffe750"/>
      <stop offset="1.0" stop-color="#fbcd0b"/>
    </linearGradient>
    <linearGradient gradientTransform="matrix(0.0, -0.0452, -0.0452, 0.0, 13.1, -2.85)" gradientUnits="userSpaceOnUse" id="gradient5" spreadMethod="pad" x1="-819.2" x2="819.2">
      <stop offset="0.1568627450980392" stop-color="#fcb72d"/>
      <stop offset="0.37254901960784315" stop-color="#b97239"/>
      <stop offset="0.8117647058823529" stop-color="#e1a03c"/>
    </linearGradient>
    <linearGradient gradientTransform="matrix(0.0, -0.0452, -0.0452, 0.0, 18.5, -2.85)" gradientUnits="userSpaceOnUse" id="gradient6" spreadMethod="pad" x1="-819.2" x2="819.2">
      <stop offset="0.2549019607843137" stop-color="#d2751e"/>
      <stop offset="0.611764705882353" stop-color="#ffe750"/>
      <stop offset="1.0" stop-color="#fbcd0b"/>
    </linearGradient>
    <linearGradient gradientTransform="matrix(0.0, -0.0123, -0.0123, 0.0, 0.0, -4.4)" gradientUnits="userSpaceOnUse" id="gradient7" spreadMethod="pad" x1="-819.2" x2="819.2">
      <stop offset="0.0" stop-color="#ffb53f"/>
      <stop offset="0.13333333333333333" stop-color="#ac5800"/>
      <stop offset="0.4823529411764706" stop-color="#fda500"/>
      <stop offset="0.8941176470588236" stop-color="#ffd300"/>
    </linearGradient>
    <linearGradient gradientTransform="matrix(0.0, -0.0452, -0.0452, 0.0, 18.5, -2.9)" gradientUnits="userSpaceOnUse" id="gradient8" spreadMethod="pad" x1="-819.2" x2="819.2">
      <stop offset="0.1568627450980392" stop-color="#fcb72d"/>
      <stop offset="0.37254901960784315" stop-color="#b97239"/>
      <stop offset="0.8117647058823529" stop-color="#e1a03c"/>
    </linearGradient>
    <linearGradient gradientTransform="matrix(0.0, -0.0452, -0.0452, 0.0, 13.1, -2.9)" gradientUnits="userSpaceOnUse" id="gradient9" spreadMethod="pad" x1="-819.2" x2="819.2">
      <stop offset="0.1568627450980392" stop-color="#fcb72d"/>
      <stop offset="0.37254901960784315" stop-color="#b97239"/>
      <stop offset="0.8117647058823529" stop-color="#e1a03c"/>
    </linearGradient>
    <linearGradient gradientTransform="matrix(0.0, -0.0452, -0.0452, 0.0, 13.1, -2.85)" gradientUnits="userSpaceOnUse" id="gradient10" spreadMethod="pad" x1="-819.2" x2="819.2">
      <stop offset="0.2549019607843137" stop-color="#d2751e"/>
      <stop offset="0.611764705882353" stop-color="#ffe750"/>
      <stop offset="1.0" stop-color="#fbcd0b"/>
    </linearGradient>
    <linearGradient gradientTransform="matrix(0.0, -0.0452, -0.0452, 0.0, -13.1, -2.85)" gradientUnits="userSpaceOnUse" id="gradient11" spreadMethod="pad" x1="-819.2" x2="819.2">
      <stop offset="0.1568627450980392" stop-color="#fcb72d"/>
      <stop offset="0.37254901960784315" stop-color="#b97239"/>
      <stop offset="0.8117647058823529" stop-color="#e1a03c"/>
    </linearGradient>
    <linearGradient gradientTransform="matrix(0.0, -0.0452, -0.0452, 0.0, -13.1, -2.9)" gradientUnits="userSpaceOnUse" id="gradient12" spreadMethod="pad" x1="-819.2" x2="819.2">
      <stop offset="0.1568627450980392" stop-color="#fcb72d"/>
      <stop offset="0.37254901960784315" stop-color="#b97239"/>
      <stop offset="0.8117647058823529" stop-color="#e1a03c"/>
    </linearGradient>
    <linearGradient gradientTransform="matrix(0.0, -0.0452, -0.0452, 0.0, -2.7, -2.9)" gradientUnits="userSpaceOnUse" id="gradient13" spreadMethod="pad" x1="-819.2" x2="819.2">
      <stop offset="0.1568627450980392" stop-color="#fcb72d"/>
      <stop offset="0.37254901960784315" stop-color="#b97239"/>
      <stop offset="0.8117647058823529" stop-color="#e1a03c"/>
    </linearGradient>
    <linearGradient gradientTransform="matrix(0.0, -0.0452, -0.0452, 0.0, 2.7, -2.9)" gradientUnits="userSpaceOnUse" id="gradient14" spreadMethod="pad" x1="-819.2" x2="819.2">
      <stop offset="0.2549019607843137" stop-color="#d2751e"/>
      <stop offset="0.611764705882353" stop-color="#ffe750"/>
      <stop offset="1.0" stop-color="#fbcd0b"/>
    </linearGradient>
    <linearGradient gradientTransform="matrix(0.0, -0.0452, -0.0452, 0.0, -18.5, -2.85)" gradientUnits="userSpaceOnUse" id="gradient15" spreadMethod="pad" x1="-819.2" x2="819.2">
      <stop offset="0.2549019607843137" stop-color="#d2751e"/>
      <stop offset="0.611764705882353" stop-color="#ffe750"/>
      <stop offset="1.0" stop-color="#fbcd0b"/>
    </linearGradient>
    <linearGradient gradientTransform="matrix(0.0, -0.0452, -0.0452, 0.0, -18.5, -2.9)" gradientUnits="userSpaceOnUse" id="gradient16" spreadMethod="pad" x1="-819.2" x2="819.2">
      <stop offset="0.1568627450980392" stop-color="#fcb72d"/>
      <stop offset="0.37254901960784315" stop-color="#b97239"/>
      <stop offset="0.8117647058823529" stop-color="#e1a03c"/>
    </linearGradient>
    <linearGradient gradientTransform="matrix(0.0, -0.0452, -0.0452, 0.0, -13.1, -2.85)" gradientUnits="userSpaceOnUse" id="gradient17" spreadMethod="pad" x1="-819.2" x2="819.2">
      <stop offset="0.2549019607843137" stop-color="#d2751e"/>
      <stop offset="0.611764705882353" stop-color="#ffe750"/>
      <stop offset="1.0" stop-color="#fbcd0b"/>
    </linearGradient>
  </defs>
</svg>
