<?xml version="1.0" encoding="UTF-8" standalone="no"?>
<svg xmlns:ffdec="https://www.free-decompiler.com/flash" xmlns:xlink="http://www.w3.org/1999/xlink" ffdec:objectType="shape" height="21.9px" width="30.35px" xmlns="http://www.w3.org/2000/svg">
  <g transform="matrix(1.0, 0.0, 0.0, 1.0, 25.3, 2.7)">
    <path d="M3.25 17.3 L1.4 18.35 -1.25 19.2 -2.3 19.0 Q-3.95 18.3 -4.9 16.65 -5.75 15.05 -5.75 12.95 -5.75 11.65 -5.35 10.7 -4.9 9.65 -4.1 9.25 L-2.05 8.25 0.3 7.3 Q2.5 7.35 3.85 9.45 5.0 11.3 5.05 13.65 5.1 14.95 4.5 15.95 L3.25 17.3 M-23.65 -0.75 L-21.6 -1.75 -19.25 -2.7 Q-17.05 -2.65 -15.7 -0.5 -14.55 1.3 -14.45 3.65 -14.4 6.1 -16.3 7.3 L-18.2 8.35 -20.8 9.2 -21.8 9.0 Q-23.5 8.3 -24.4 6.65 -25.3 5.05 -25.3 2.95 -25.3 1.7 -24.85 0.7 -24.4 -0.35 -23.65 -0.75 M-18.85 5.0 Q-18.9 3.05 -19.55 1.85 -20.35 0.35 -22.15 -0.35 -23.5 -0.9 -24.35 0.2 -25.2 1.2 -25.2 2.9 -25.2 4.75 -24.4 6.15 -23.6 7.6 -22.15 8.2 -20.9 8.7 -19.9 7.9 -18.8 6.95 -18.85 5.0 M-0.05 11.85 Q-0.8 10.4 -2.6 9.65 -3.95 9.1 -4.85 10.2 -5.65 11.2 -5.65 12.9 -5.65 14.75 -4.9 16.15 -4.05 17.6 -2.6 18.2 -1.35 18.7 -0.35 17.85 0.75 16.95 0.65 15.0 0.6 13.05 -0.05 11.85" fill="#181c1c" fill-rule="evenodd" stroke="none"/>
    <path d="M-0.05 11.85 Q0.6 13.05 0.65 15.0 0.75 16.95 -0.35 17.85 -1.35 18.7 -2.6 18.2 -4.05 17.6 -4.9 16.15 -5.65 14.75 -5.65 12.9 -5.65 11.2 -4.85 10.2 -3.95 9.1 -2.6 9.65 -0.8 10.4 -0.05 11.85 M-18.85 5.0 Q-18.8 6.95 -19.9 7.9 -20.9 8.7 -22.15 8.2 -23.6 7.6 -24.4 6.15 -25.2 4.75 -25.2 2.9 -25.2 1.2 -24.35 0.2 -23.5 -0.9 -22.15 -0.35 -20.35 0.35 -19.55 1.85 -18.9 3.05 -18.85 5.0 M-1.15 14.5 Q-1.15 13.55 -1.45 13.0 -1.85 12.3 -2.7 11.95 -3.35 11.65 -3.8 12.2 -4.2 12.65 -4.2 13.5 -4.2 14.4 -3.8 15.05 L-2.7 16.05 -1.6 15.9 Q-1.1 15.45 -1.15 14.5 M-23.7 3.5 L-23.35 5.05 -22.25 6.05 -21.15 5.9 Q-20.65 5.45 -20.65 4.5 -20.7 2.55 -22.25 1.95 -22.9 1.7 -23.3 2.2 -23.7 2.7 -23.7 3.5" fill="#383d3d" fill-rule="evenodd" stroke="none"/>
    <path d="M-1.15 14.5 Q-1.1 15.45 -1.6 15.9 L-2.7 16.05 -3.8 15.05 Q-4.2 14.4 -4.2 13.5 -4.2 12.65 -3.8 12.2 -3.35 11.65 -2.7 11.95 -1.85 12.3 -1.45 13.0 -1.15 13.55 -1.15 14.5 M-22.55 3.15 L-22.75 3.8 Q-22.75 4.75 -22.0 5.05 L-21.5 5.0 Q-21.2 4.75 -21.25 4.3 -21.3 3.3 -22.0 3.0 -22.35 2.9 -22.55 3.15 M-1.95 14.95 L-1.7 14.3 Q-1.7 13.35 -2.5 13.0 -2.8 12.9 -3.0 13.15 L-3.2 13.8 Q-3.2 14.75 -2.5 15.05 L-1.95 14.95 M-23.7 3.5 Q-23.7 2.7 -23.3 2.2 -22.9 1.7 -22.25 1.95 -20.7 2.55 -20.65 4.5 -20.65 5.45 -21.15 5.9 L-22.25 6.05 -23.35 5.05 -23.7 3.5" fill="#919c93" fill-rule="evenodd" stroke="none"/>
    <path d="M-1.95 14.95 L-2.5 15.05 Q-3.2 14.75 -3.2 13.8 L-3.0 13.15 Q-2.8 12.9 -2.5 13.0 -1.7 13.35 -1.7 14.3 L-1.95 14.95 M-22.55 3.15 Q-22.35 2.9 -22.0 3.0 -21.3 3.3 -21.25 4.3 -21.2 4.75 -21.5 5.0 L-22.0 5.05 Q-22.75 4.75 -22.75 3.8 L-22.55 3.15" fill="#555b56" fill-rule="evenodd" stroke="none"/>
  </g>
</svg>
