<?xml version="1.0" encoding="UTF-8" standalone="no"?>
<svg xmlns:ffdec="https://www.free-decompiler.com/flash" xmlns:xlink="http://www.w3.org/1999/xlink" ffdec:objectType="shape" height="80.8px" width="79.75px" xmlns="http://www.w3.org/2000/svg">
  <g transform="matrix(1.0, 0.0, 0.0, 1.0, 39.85, 44.65)">
    <path d="M22.55 -19.15 L23.1 -19.65 25.7 -21.15 27.25 -21.35 Q28.05 -21.1 28.45 -20.4 L29.95 -17.8 30.2 -16.45 30.15 -16.25 30.1 -16.1 28.45 -19.0 Q28.05 -19.75 27.25 -19.95 L25.7 -19.75 23.1 -18.25 22.55 -17.75 Q20.15 -20.95 16.95 -23.35 L17.45 -23.9 17.6 -24.2 19.3 -22.7 20.2 -21.8 22.55 -19.15 M27.8 -6.85 L27.95 -5.7 28.7 -5.85 31.7 -5.85 Q32.55 -5.85 33.1 -5.25 33.7 -4.65 33.7 -3.85 L33.7 -2.55 Q33.7 -3.25 33.1 -3.85 32.55 -4.45 31.7 -4.45 L28.7 -4.45 27.95 -4.3 27.55 -6.7 27.8 -6.85 M27.3 9.3 L29.2 10.4 Q29.85 10.75 30.1 11.45 L30.15 11.6 30.2 11.85 30.2 12.4 30.1 12.8 Q29.7 12.05 29.2 11.75 L26.6 10.25 25.9 10.0 26.4 8.8 26.4 8.75 26.6 8.9 27.3 9.3 M-29.85 12.4 L-29.8 11.6 -29.75 11.55 -29.75 11.45 Q-29.55 10.75 -28.85 10.4 L-26.95 9.3 -26.25 8.9 -26.0 8.75 -25.55 10.0 -26.25 10.25 -28.85 11.75 Q-29.4 12.05 -29.75 12.8 L-29.85 12.4 M-33.35 -2.55 L-33.35 -3.85 Q-33.35 -4.65 -32.75 -5.25 -32.15 -5.85 -31.35 -5.85 L-28.35 -5.85 -27.6 -5.7 -27.45 -6.55 -27.45 -6.7 -27.2 -6.55 -27.6 -4.3 -28.35 -4.45 -31.35 -4.45 Q-32.15 -4.45 -32.75 -3.85 -33.35 -3.25 -33.35 -2.55 M-29.6 -17.8 L-28.1 -20.4 -26.85 -21.35 -25.35 -21.15 -22.75 -19.65 -22.2 -19.15 -19.6 -22.05 -19.25 -22.4 -18.45 -23.15 -17.8 -23.7 -17.25 -24.2 -17.1 -23.9 -16.6 -23.35 Q-19.8 -20.95 -22.2 -17.75 L-22.75 -18.25 -25.35 -19.75 -26.85 -19.95 Q-27.7 -19.75 -28.1 -19.0 L-29.75 -16.1 Q-30.0 -17.05 -29.6 -17.8 M-18.8 -29.4 L-18.75 -29.55 -18.25 -30.3 -18.05 -30.5 -17.9 -30.6 -15.3 -32.1 -13.75 -32.3 Q-12.95 -32.1 -12.55 -31.4 L-11.05 -28.8 -10.8 -28.05 -9.45 -28.55 -4.9 -29.85 -4.75 -29.85 -5.25 -28.35 Q-8.05 -27.85 -10.8 -26.7 L-11.05 -27.4 -12.55 -30.0 Q-12.95 -30.7 -13.75 -30.95 L-15.3 -30.75 -17.9 -29.25 Q-18.5 -28.9 -18.75 -28.2 L-18.8 -29.4 M3.1 -35.25 Q3.7 -34.65 3.7 -33.85 L3.7 -33.4 3.1 -35.25 M4.85 -29.9 L6.25 -29.65 10.3 -28.4 10.45 -28.35 10.6 -28.25 10.8 -28.2 11.15 -28.05 11.4 -28.8 12.9 -31.4 Q13.3 -32.1 14.1 -32.3 L15.65 -32.1 18.25 -30.6 18.5 -30.4 19.15 -29.55 19.2 -28.55 19.1 -28.2 18.25 -29.25 15.65 -30.75 14.1 -30.95 Q13.3 -30.7 12.9 -30.0 L11.4 -27.4 11.15 -26.7 Q8.25 -27.9 5.3 -28.4 L4.85 -29.9 M8.2 -11.5 L8.05 -10.8 Q7.3 -12.2 4.0 -13.05 2.15 -13.55 1.35 -12.3 0.85 -11.45 0.7 -8.5 0.55 -5.95 0.0 -5.95 -0.5 -5.95 -0.65 -8.5 -0.8 -11.45 -1.3 -12.3 -2.1 -13.55 -3.95 -13.05 -7.25 -12.2 -8.0 -10.8 L-8.15 -11.5 Q-7.8 -13.15 -3.95 -14.15 -2.05 -14.65 -1.3 -13.45 -0.8 -12.6 -0.65 -9.6 -0.5 -7.05 0.0 -7.05 0.55 -7.05 0.7 -9.6 0.85 -12.6 1.35 -13.45 2.1 -14.65 4.0 -14.15 7.85 -13.15 8.2 -11.5 M-6.9 -8.45 Q-6.6 -8.05 -6.8 -7.55 -7.0 -7.0 -7.6 -7.2 L-8.45 -8.0 -9.15 -8.95 Q-10.5 -10.0 -13.0 -6.65 L-13.95 -5.15 Q-14.4 -5.9 -13.0 -7.8 -10.5 -11.15 -9.15 -10.1 L-8.45 -9.1 -7.6 -8.3 -7.05 -8.3 -6.9 -8.5 -6.9 -8.45 M-11.1 -2.8 Q-10.4 -2.2 -11.1 -1.65 L-12.55 -1.7 -14.0 -2.35 Q-14.65 -2.5 -15.1 -1.9 -15.5 -1.4 -15.6 -0.55 L-15.65 -0.45 -15.6 -1.7 -15.35 -2.6 Q-14.9 -3.6 -14.05 -3.45 L-14.0 -3.45 Q-13.6 -3.35 -12.55 -2.85 L-11.1 -2.8 M-12.25 2.3 Q-12.0 2.45 -12.0 2.95 -12.05 3.55 -12.8 3.55 L-14.05 3.55 -14.1 3.55 -14.15 3.45 Q-14.55 2.65 -14.2 2.45 L-14.2 2.4 -13.85 2.35 -13.55 2.4 -13.35 2.35 -12.25 2.3 M14.2 2.4 L14.25 2.45 Q14.65 2.65 14.1 3.55 L12.85 3.55 Q12.1 3.55 12.05 2.95 12.05 2.45 12.3 2.3 L12.35 2.3 13.6 2.4 14.2 2.4 M14.15 -3.45 Q14.9 -3.6 15.4 -2.6 15.85 -1.65 15.7 -0.45 15.6 -1.35 15.15 -1.9 14.7 -2.5 14.05 -2.35 L12.6 -1.7 11.15 -1.65 Q10.45 -2.2 11.15 -2.8 L12.6 -2.85 14.05 -3.45 14.15 -3.45 M14.0 -5.15 L13.05 -6.65 Q10.55 -10.0 9.2 -8.95 L8.45 -8.0 7.65 -7.2 Q7.05 -7.0 6.85 -7.55 6.65 -8.05 6.95 -8.5 7.15 -8.2 7.65 -8.3 L8.45 -9.1 9.2 -10.1 Q10.55 -11.15 13.05 -7.8 14.5 -6.0 14.0 -5.15 M17.3 8.55 Q20.4 4.15 20.9 -1.5 L20.95 -1.0 Q20.55 4.75 17.55 9.25 L17.3 8.55 M-20.6 -1.0 L-20.55 -1.5 Q-20.05 4.0 -17.15 8.3 L-17.35 8.95 Q-20.25 4.55 -20.6 -1.0 M5.5 17.85 L0.65 18.5 0.4 18.5 0.2 18.5 Q-3.05 18.5 -5.95 17.65 L-4.95 16.9 0.2 17.5 5.15 16.95 6.15 17.7 5.5 17.85" fill="#d9efff" fill-rule="evenodd" stroke="none"/>
    <path d="M19.3 -22.7 L17.6 -24.2 16.95 -24.7 17.45 -25.3 18.95 -27.9 19.1 -28.2 19.2 -28.55 19.2 -24.25 19.0 -23.0 19.3 -22.7 M30.1 -16.1 L30.15 -16.25 30.2 -16.45 30.2 -15.7 29.9 -15.7 30.1 -16.1 M33.7 -0.8 L33.7 4.15 Q33.7 5.0 33.1 5.55 32.55 6.15 31.7 6.15 L28.7 6.15 27.95 6.0 27.3 9.3 26.6 8.9 26.4 8.75 26.4 8.8 Q26.15 8.65 25.9 8.65 27.45 4.95 27.95 1.0 L28.7 1.15 31.7 1.15 Q32.55 1.15 33.1 0.55 33.7 0.0 33.7 -0.8 M30.2 12.4 Q30.2 17.65 29.95 18.1 L28.45 20.7 Q28.05 21.4 27.25 21.65 L25.7 21.45 23.1 19.95 22.55 19.45 21.35 20.95 20.15 17.25 22.55 14.45 23.1 14.95 25.7 16.45 27.25 16.65 Q28.05 16.4 28.45 15.7 L29.95 13.1 30.1 12.8 30.2 12.4 M19.25 27.25 L19.25 29.1 Q19.25 30.35 18.25 30.9 L15.65 32.4 14.1 32.6 Q13.3 32.4 12.9 31.7 L11.4 29.1 11.15 28.4 Q7.45 29.95 3.85 30.35 L3.7 34.15 Q3.7 35.0 3.1 35.55 2.55 36.15 1.7 36.15 L-1.35 36.15 Q-2.15 36.15 -2.75 35.55 -3.35 35.0 -3.35 34.15 L-3.45 30.4 Q-7.2 29.9 -10.8 28.4 L-11.05 29.1 -12.55 31.7 Q-12.95 32.4 -13.75 32.6 L-15.3 32.4 -17.85 30.9 Q-19.0 30.25 -18.85 28.95 L-18.8 27.0 -17.55 26.05 -15.3 27.4 -13.75 27.6 Q-12.95 27.4 -12.55 26.7 L-11.05 24.1 -10.8 23.4 Q-7.05 24.95 -3.2 25.4 L-3.35 26.15 -3.35 29.15 Q-3.35 30.0 -2.75 30.55 -2.15 31.15 -1.35 31.15 L1.7 31.15 Q2.55 31.15 3.1 30.55 3.7 30.0 3.7 29.15 L3.7 26.15 3.55 25.4 Q7.4 24.95 11.15 23.4 L11.4 24.1 12.9 26.7 Q13.3 27.4 14.1 27.6 L15.65 27.4 17.8 26.2 19.25 27.25 M-21.2 20.7 L-22.2 19.45 -22.75 19.95 -25.35 21.45 Q-26.05 21.85 -26.85 21.65 L-28.1 20.7 -29.6 18.1 Q-29.95 17.55 -29.85 16.8 L-29.85 12.4 -29.75 12.8 -29.6 13.1 -28.1 15.7 -26.85 16.65 Q-26.05 16.85 -25.35 16.45 L-22.75 14.95 -22.2 14.45 -20.0 17.05 -21.2 20.7 M-26.95 9.3 L-27.6 6.0 -28.35 6.15 -31.35 6.15 Q-32.15 6.15 -32.75 5.55 -33.35 5.0 -33.35 4.15 L-33.35 -0.8 Q-33.35 0.0 -32.75 0.55 -32.15 1.15 -31.35 1.15 L-28.35 1.15 -27.6 1.0 Q-27.1 4.95 -25.55 8.65 L-26.0 8.75 -26.25 8.9 -26.95 9.3 M-29.85 -15.7 L-29.85 -16.5 -29.8 -16.25 -29.75 -16.1 -29.55 -15.7 -29.85 -15.7 M-18.65 -23.0 L-18.9 -28.9 -18.8 -29.4 -18.75 -28.2 -18.6 -27.9 -17.1 -25.3 -16.6 -24.7 -17.25 -24.2 -17.8 -23.7 -18.45 -23.15 -18.65 -23.0 M-7.4 -21.85 L-9.4 -15.7 -9.45 -15.7 -15.9 -15.7 -14.6 -17.1 Q-11.35 -20.35 -7.4 -21.85 M-7.8 -13.4 Q-6.5 -14.25 -4.35 -14.8 L-3.0 -14.95 Q-0.95 -14.95 0.0 -13.45 L0.05 -13.5 Q1.1 -14.95 3.05 -14.95 L4.4 -14.8 Q6.55 -14.25 7.85 -13.4 9.4 -12.4 9.8 -11.0 L9.9 -11.0 Q12.05 -11.0 14.3 -7.9 L14.7 -7.3 15.5 -6.1 Q16.0 -4.85 15.7 -3.8 17.4 -2.7 17.4 -0.1 L17.35 0.7 21.05 -2.0 20.95 -1.0 20.9 -1.5 Q20.4 4.15 17.3 8.55 L16.0 4.5 15.0 6.2 13.6 7.7 Q12.4 8.55 10.35 8.55 L8.1 8.55 3.6 8.55 0.6 8.35 0.05 8.05 0.0 8.0 -0.55 8.35 -3.6 8.55 -8.0 8.55 -10.35 8.55 Q-12.35 8.55 -13.55 7.7 L-14.95 6.2 -15.9 4.55 -17.15 8.3 Q-20.05 4.0 -20.55 -1.5 L-20.6 -1.0 -20.65 -1.75 -17.3 0.7 -17.35 -0.1 Q-17.35 -2.7 -15.65 -3.8 -16.0 -4.75 -15.45 -6.1 L-14.65 -7.3 -14.3 -7.9 Q-11.9 -11.0 -9.85 -11.0 L-9.75 -11.0 Q-9.35 -12.4 -7.8 -13.4 M7.4 -21.95 Q11.55 -20.5 14.95 -17.1 L16.25 -15.7 9.5 -15.7 9.45 -15.7 7.4 -21.95 M-8.15 -11.5 Q-8.25 -11.0 -7.8 -10.5 L-7.0 -9.75 Q-6.6 -9.3 -6.75 -8.75 L-6.9 -8.45 -6.9 -8.5 -7.05 -8.3 -7.6 -8.3 -8.45 -9.1 -9.15 -10.1 Q-10.5 -11.15 -13.0 -7.8 -14.65 -5.8 -13.85 -4.95 -13.5 -4.6 -12.75 -4.4 L-11.55 -4.15 -10.85 -3.6 Q-10.6 -3.2 -11.1 -2.8 L-12.55 -2.85 Q-13.6 -3.35 -14.0 -3.45 L-14.05 -3.45 Q-15.5 -3.75 -15.6 -1.7 L-15.65 -0.45 -15.6 -0.55 Q-15.5 1.75 -13.6 1.3 L-12.55 1.1 Q-11.95 1.1 -12.0 1.8 -12.05 2.15 -12.25 2.3 L-13.35 2.35 -13.85 2.35 -14.2 2.4 Q-14.65 2.6 -14.15 3.45 L-14.1 3.55 -14.05 3.55 -13.85 3.9 -12.6 5.3 Q-12.0 5.75 -11.0 5.85 L-9.25 5.85 -4.6 5.9 -1.2 5.8 Q-0.8 5.65 -0.65 3.75 -0.55 2.0 0.0 2.0 0.6 2.0 0.7 3.75 0.85 5.65 1.25 5.8 L4.7 5.9 9.3 5.85 11.05 5.85 Q12.05 5.75 12.65 5.3 L13.9 3.9 Q14.8 2.65 14.2 2.4 L13.6 2.4 12.35 2.3 12.05 1.8 Q12.0 1.1 12.6 1.1 L13.65 1.3 Q15.7 1.8 15.75 -1.0 15.75 -3.8 14.15 -3.45 L14.05 -3.45 12.6 -2.85 11.15 -2.8 Q10.65 -3.2 10.9 -3.6 L11.6 -4.15 12.8 -4.4 Q13.5 -4.6 13.85 -4.95 L14.0 -5.15 Q14.5 -6.0 13.05 -7.8 10.55 -11.15 9.2 -10.1 L8.45 -9.1 7.65 -8.3 Q7.15 -8.2 6.95 -8.5 L6.85 -8.75 Q6.65 -9.3 7.05 -9.75 L7.85 -10.5 Q8.3 -11.0 8.2 -11.5 7.85 -13.15 4.0 -14.15 2.1 -14.65 1.35 -13.45 0.85 -12.6 0.7 -9.6 0.55 -7.05 0.0 -7.05 -0.5 -7.05 -0.65 -9.6 -0.8 -12.6 -1.3 -13.45 -2.05 -14.65 -3.95 -14.15 -7.8 -13.15 -8.15 -11.5 M5.15 16.95 L0.2 17.5 -4.95 16.9 0.05 13.25 5.15 16.95" fill="#3e5153" fill-rule="evenodd" stroke="none"/>
    <path d="M22.55 -19.15 L20.2 -21.8 20.7 -21.3 22.55 -19.15 M17.6 -24.2 L17.45 -23.9 16.95 -23.35 Q20.15 -20.95 22.55 -17.75 L23.1 -18.25 25.7 -19.75 27.25 -19.95 Q28.05 -19.75 28.45 -19.0 L30.1 -16.1 29.9 -15.7 16.25 -15.7 14.95 -17.1 Q11.55 -20.5 7.4 -21.95 L5.3 -28.4 Q8.25 -27.9 11.15 -26.7 L11.4 -27.4 12.9 -30.0 Q13.3 -30.7 14.1 -30.95 L15.65 -30.75 18.25 -29.25 19.1 -28.2 18.95 -27.9 17.45 -25.3 16.95 -24.7 17.6 -24.2 M33.7 -2.55 L33.7 -0.8 Q33.7 0.0 33.1 0.55 32.55 1.15 31.7 1.15 L28.7 1.15 27.95 1.0 Q27.45 4.95 25.9 8.65 26.15 8.65 26.4 8.8 L25.9 10.0 26.6 10.25 29.2 11.75 Q29.7 12.05 30.1 12.8 L29.95 13.1 28.45 15.7 Q28.05 16.4 27.25 16.65 L25.7 16.45 23.1 14.95 22.55 14.45 20.15 17.25 17.55 9.25 Q20.55 4.75 20.95 -1.0 L21.05 -2.0 27.55 -6.7 27.95 -4.3 28.7 -4.45 31.7 -4.45 Q32.55 -4.45 33.1 -3.85 33.7 -3.25 33.7 -2.55 M-33.35 -0.8 L-33.35 -2.55 Q-33.35 -3.25 -32.75 -3.85 -32.15 -4.45 -31.35 -4.45 L-28.35 -4.45 -27.6 -4.3 -27.2 -6.55 -20.65 -1.75 -20.6 -1.0 Q-20.25 4.55 -17.35 8.95 L-20.0 17.05 -22.2 14.45 -22.75 14.95 -25.35 16.45 Q-26.05 16.85 -26.85 16.65 L-28.1 15.7 -29.6 13.1 -29.75 12.8 Q-29.4 12.05 -28.85 11.75 L-26.25 10.25 -25.55 10.0 -26.0 8.75 -25.55 8.65 Q-27.1 4.95 -27.6 1.0 L-28.35 1.15 -31.35 1.15 Q-32.15 1.15 -32.75 0.55 -33.35 0.0 -33.35 -0.8 M-29.85 -16.5 L-29.6 -17.8 Q-30.0 -17.05 -29.75 -16.1 L-29.8 -16.25 -29.85 -16.5 M-19.25 -22.4 L-18.9 -22.75 -18.65 -23.0 -18.45 -23.15 -19.25 -22.4 M-18.75 -28.2 Q-18.5 -28.9 -17.9 -29.25 L-15.3 -30.75 -13.75 -30.95 Q-12.95 -30.7 -12.55 -30.0 L-11.05 -27.4 -10.8 -26.7 Q-8.05 -27.85 -5.25 -28.35 L-7.4 -21.85 Q-11.35 -20.35 -14.6 -17.1 L-15.9 -15.7 -29.55 -15.7 -29.75 -16.1 -28.1 -19.0 Q-27.7 -19.75 -26.85 -19.95 L-25.35 -19.75 -22.75 -18.25 -22.2 -17.75 Q-19.8 -20.95 -16.6 -23.35 L-17.1 -23.9 -17.25 -24.2 -16.6 -24.7 -17.1 -25.3 -18.6 -27.9 -18.75 -28.2 M-5.95 17.65 Q-3.05 18.5 0.2 18.5 L0.4 18.5 0.65 18.5 5.5 17.85 6.15 17.7 17.8 26.2 15.65 27.4 14.1 27.6 Q13.3 27.4 12.9 26.7 L11.4 24.1 11.15 23.4 Q7.4 24.95 3.55 25.4 L3.7 26.15 3.7 29.15 Q3.7 30.0 3.1 30.55 2.55 31.15 1.7 31.15 L-1.35 31.15 Q-2.15 31.15 -2.75 30.55 -3.35 30.0 -3.35 29.15 L-3.35 26.15 -3.2 25.4 Q-7.05 24.95 -10.8 23.4 L-11.05 24.1 -12.55 26.7 Q-12.95 27.4 -13.75 27.6 L-15.3 27.4 -17.55 26.05 -5.95 17.65" fill="url(#gradient0)" fill-rule="evenodd" stroke="none"/>
    <path d="M0.05 -44.65 L3.1 -35.25 3.7 -33.4 4.85 -29.9 5.3 -28.4 7.4 -21.95 9.45 -15.7 9.5 -15.7 7.85 -13.4 Q6.55 -14.25 4.4 -14.8 L3.05 -14.95 Q1.1 -14.95 0.05 -13.5 L0.05 -44.65" fill="url(#gradient1)" fill-rule="evenodd" stroke="none"/>
    <path d="M-4.75 -29.85 L0.05 -44.65 0.05 -13.5 0.0 -13.45 Q-0.95 -14.95 -3.0 -14.95 L-4.35 -14.8 Q-6.5 -14.25 -7.8 -13.4 L-9.45 -15.7 -9.4 -15.7 -7.4 -21.85 -5.25 -28.35 -4.75 -29.85" fill="url(#gradient2)" fill-rule="evenodd" stroke="none"/>
    <path d="M39.4 -15.35 L27.8 -6.85 27.55 -6.7 21.05 -2.0 17.35 0.7 17.4 -0.1 Q17.4 -2.7 15.7 -3.8 16.0 -4.85 15.5 -6.1 L14.7 -7.3 39.4 -15.35" fill="url(#gradient3)" fill-rule="evenodd" stroke="none"/>
    <path d="M-8.15 -11.5 L-8.0 -10.8 Q-7.25 -12.2 -3.95 -13.05 -2.1 -13.55 -1.3 -12.3 -0.8 -11.45 -0.65 -8.5 -0.5 -5.95 0.0 -5.95 0.55 -5.95 0.7 -8.5 0.85 -11.45 1.35 -12.3 2.15 -13.55 4.0 -13.05 7.3 -12.2 8.05 -10.8 L8.2 -11.5 Q8.3 -11.0 7.85 -10.5 L7.05 -9.75 Q6.65 -9.3 6.85 -8.75 L6.95 -8.5 Q6.65 -8.05 6.85 -7.55 7.05 -7.0 7.65 -7.2 L8.45 -8.0 9.2 -8.95 Q10.55 -10.0 13.05 -6.65 L14.0 -5.15 13.85 -4.95 Q13.5 -4.6 12.8 -4.4 L11.6 -4.15 10.9 -3.6 Q10.65 -3.2 11.15 -2.8 10.45 -2.2 11.15 -1.65 L12.6 -1.7 14.05 -2.35 Q14.7 -2.5 15.15 -1.9 15.6 -1.35 15.7 -0.45 15.85 -1.65 15.4 -2.6 14.9 -3.6 14.15 -3.45 15.75 -3.8 15.75 -1.0 15.7 1.8 13.65 1.3 L12.6 1.1 Q12.0 1.1 12.05 1.8 L12.35 2.3 12.3 2.3 Q12.05 2.45 12.05 2.95 12.1 3.55 12.85 3.55 L14.1 3.55 Q14.65 2.65 14.25 2.45 L14.2 2.4 Q14.8 2.65 13.9 3.9 L12.65 5.3 Q12.05 5.75 11.05 5.85 L9.3 5.85 4.7 5.9 1.25 5.8 Q0.85 5.65 0.7 3.75 0.6 2.0 0.0 2.0 -0.55 2.0 -0.65 3.75 -0.8 5.65 -1.2 5.8 L-4.6 5.9 -9.25 5.85 -11.0 5.85 Q-12.0 5.75 -12.6 5.3 L-13.85 3.9 -14.05 3.55 -12.8 3.55 Q-12.05 3.55 -12.0 2.95 -12.0 2.45 -12.25 2.3 -12.05 2.15 -12.0 1.8 -11.95 1.1 -12.55 1.1 L-13.6 1.3 Q-15.5 1.75 -15.6 -0.55 -15.5 -1.4 -15.1 -1.9 -14.65 -2.5 -14.0 -2.35 L-12.55 -1.7 -11.1 -1.65 Q-10.4 -2.2 -11.1 -2.8 -10.6 -3.2 -10.85 -3.6 L-11.55 -4.15 -12.75 -4.4 Q-13.5 -4.6 -13.85 -4.95 -14.65 -5.8 -13.0 -7.8 -14.4 -5.9 -13.95 -5.15 L-13.0 -6.65 Q-10.5 -10.0 -9.15 -8.95 L-8.45 -8.0 -7.6 -7.2 Q-7.0 -7.0 -6.8 -7.55 -6.6 -8.05 -6.9 -8.45 L-6.75 -8.75 Q-6.6 -9.3 -7.0 -9.75 L-7.8 -10.5 Q-8.25 -11.0 -8.15 -11.5 M-14.05 -3.45 Q-14.9 -3.6 -15.35 -2.6 L-15.6 -1.7 Q-15.5 -3.75 -14.05 -3.45 M-13.35 2.35 L-13.55 2.4 -13.85 2.35 -13.35 2.35 M-14.2 2.4 L-14.2 2.45 Q-14.55 2.65 -14.15 3.45 -14.65 2.6 -14.2 2.4" fill="url(#gradient4)" fill-rule="evenodd" stroke="none"/>
    <path d="M30.2 -15.7 L39.9 -15.7 39.4 -15.35 14.7 -7.3 14.3 -7.9 Q12.05 -11.0 9.9 -11.0 L9.8 -11.0 Q9.4 -12.4 7.85 -13.4 L9.5 -15.7 16.25 -15.7 29.9 -15.7 30.2 -15.7" fill="url(#gradient5)" fill-rule="evenodd" stroke="none"/>
    <path d="M21.35 20.95 L24.65 31.15 24.35 30.95 8.1 8.55 10.35 8.55 Q12.4 8.55 13.6 7.7 L15.0 6.2 16.0 4.5 17.3 8.55 17.55 9.25 20.15 17.25 21.35 20.95" fill="url(#gradient6)" fill-rule="evenodd" stroke="none"/>
    <path d="M-39.35 -15.35 L-39.85 -15.7 -29.85 -15.7 -29.55 -15.7 -15.9 -15.7 -9.45 -15.7 -7.8 -13.4 Q-9.35 -12.4 -9.75 -11.0 L-9.85 -11.0 Q-11.9 -11.0 -14.3 -7.9 L-14.65 -7.3 -26.35 -11.1 -39.35 -15.35" fill="url(#gradient7)" fill-rule="evenodd" stroke="none"/>
    <path d="M-24.3 30.95 L-24.6 31.15 -21.2 20.7 -20.0 17.05 -17.35 8.95 -17.15 8.3 -15.9 4.55 -14.95 6.2 -13.55 7.7 Q-12.35 8.55 -10.35 8.55 L-8.0 8.55 -24.3 30.95" fill="url(#gradient8)" fill-rule="evenodd" stroke="none"/>
    <path d="M-18.8 27.0 L-24.3 30.95 -8.0 8.55 -3.6 8.55 -0.55 8.35 0.0 8.0 0.05 8.05 0.05 13.25 -4.95 16.9 -5.95 17.65 -17.55 26.05 -18.8 27.0" fill="url(#gradient9)" fill-rule="evenodd" stroke="none"/>
    <path d="M24.35 30.95 L19.25 27.25 17.8 26.2 6.15 17.7 5.15 16.95 0.05 13.25 0.05 8.05 0.6 8.35 3.6 8.55 8.1 8.55 24.35 30.95" fill="url(#gradient10)" fill-rule="evenodd" stroke="none"/>
    <path d="M5.5 17.85 L6.15 17.7 5.5 17.85" fill="#c66c0c" fill-rule="evenodd" stroke="none"/>
    <path d="M-27.45 -6.7 L-39.35 -15.35 -26.35 -11.1 -14.65 -7.3 -15.45 -6.1 Q-16.0 -4.75 -15.65 -3.8 -17.35 -2.7 -17.35 -0.1 L-17.3 0.7 -20.65 -1.75 -27.2 -6.55 -27.45 -6.7" fill="url(#gradient11)" fill-rule="evenodd" stroke="none"/>
  </g>
  <defs>
    <linearGradient gradientTransform="matrix(0.0, -0.0409, -0.0409, 0.0, 0.2, -2.35)" gradientUnits="userSpaceOnUse" id="gradient0" spreadMethod="pad" x1="-819.2" x2="819.2">
      <stop offset="0.2549019607843137" stop-color="#749286"/>
      <stop offset="0.611764705882353" stop-color="#d3e7da"/>
      <stop offset="1.0" stop-color="#a2c1c1"/>
    </linearGradient>
    <linearGradient gradientTransform="matrix(0.0057, 0.0, 0.0, -0.0057, 4.75, -23.65)" gradientUnits="userSpaceOnUse" id="gradient1" spreadMethod="pad" x1="-819.2" x2="819.2">
      <stop offset="0.00392156862745098" stop-color="#406572"/>
      <stop offset="1.0" stop-color="#b2bcc1"/>
    </linearGradient>
    <linearGradient gradientTransform="matrix(0.0, -0.0256, -0.0256, 0.0, -4.7, -23.65)" gradientUnits="userSpaceOnUse" id="gradient2" spreadMethod="pad" x1="-819.2" x2="819.2">
      <stop offset="0.2549019607843137" stop-color="#7c92a3"/>
      <stop offset="0.6274509803921569" stop-color="#f0f7f1"/>
      <stop offset="1.0" stop-color="#d3e7d8"/>
    </linearGradient>
    <linearGradient gradientTransform="matrix(0.0239, 0.0, 0.0, -0.0239, 19.8, -6.55)" gradientUnits="userSpaceOnUse" id="gradient3" spreadMethod="pad" x1="-819.2" x2="819.2">
      <stop offset="0.00392156862745098" stop-color="#406572"/>
      <stop offset="1.0" stop-color="#b2bcc1"/>
    </linearGradient>
    <linearGradient gradientTransform="matrix(0.0, -0.0123, -0.0123, 0.0, 0.0, -4.2)" gradientUnits="userSpaceOnUse" id="gradient4" spreadMethod="pad" x1="-819.2" x2="819.2">
      <stop offset="0.0" stop-color="#c3dccd"/>
      <stop offset="0.13333333333333333" stop-color="#596c71"/>
      <stop offset="0.4666666666666667" stop-color="#5a7674"/>
      <stop offset="0.8941176470588236" stop-color="#9db9a2"/>
    </linearGradient>
    <linearGradient gradientTransform="matrix(0.0, -0.0079, -0.0079, 0.0, 19.95, -9.15)" gradientUnits="userSpaceOnUse" id="gradient5" spreadMethod="pad" x1="-819.2" x2="819.2">
      <stop offset="0.2549019607843137" stop-color="#7c92a3"/>
      <stop offset="0.6274509803921569" stop-color="#f0f7f1"/>
      <stop offset="1.0" stop-color="#d3e7d8"/>
    </linearGradient>
    <linearGradient gradientTransform="matrix(0.0, -0.0206, -0.0206, 0.0, 12.35, 14.3)" gradientUnits="userSpaceOnUse" id="gradient6" spreadMethod="pad" x1="-819.2" x2="819.2">
      <stop offset="0.2549019607843137" stop-color="#7c92a3"/>
      <stop offset="0.6274509803921569" stop-color="#f0f7f1"/>
      <stop offset="1.0" stop-color="#d3e7d8"/>
    </linearGradient>
    <linearGradient gradientTransform="matrix(0.0, -0.0079, -0.0079, 0.0, -19.9, -9.15)" gradientUnits="userSpaceOnUse" id="gradient7" spreadMethod="pad" x1="-819.2" x2="819.2">
      <stop offset="0.2549019607843137" stop-color="#7c92a3"/>
      <stop offset="0.6274509803921569" stop-color="#f0f7f1"/>
      <stop offset="1.0" stop-color="#d3e7d8"/>
    </linearGradient>
    <linearGradient gradientTransform="matrix(0.0, -0.0206, -0.0206, 0.0, -12.3, 14.3)" gradientUnits="userSpaceOnUse" id="gradient8" spreadMethod="pad" x1="-819.2" x2="819.2">
      <stop offset="0.2549019607843137" stop-color="#7c92a3"/>
      <stop offset="0.6274509803921569" stop-color="#f0f7f1"/>
      <stop offset="1.0" stop-color="#d3e7d8"/>
    </linearGradient>
    <linearGradient gradientTransform="matrix(0.0148, 0.0, 0.0, -0.0148, -12.15, 14.2)" gradientUnits="userSpaceOnUse" id="gradient9" spreadMethod="pad" x1="-819.2" x2="819.2">
      <stop offset="0.00392156862745098" stop-color="#406572"/>
      <stop offset="1.0" stop-color="#b2bcc1"/>
    </linearGradient>
    <linearGradient gradientTransform="matrix(0.0148, 0.0, 0.0, -0.0148, 12.2, 14.2)" gradientUnits="userSpaceOnUse" id="gradient10" spreadMethod="pad" x1="-819.2" x2="819.2">
      <stop offset="0.00392156862745098" stop-color="#406572"/>
      <stop offset="1.0" stop-color="#b2bcc1"/>
    </linearGradient>
    <linearGradient gradientTransform="matrix(0.0239, 0.0, 0.0, -0.0239, -19.75, -6.55)" gradientUnits="userSpaceOnUse" id="gradient11" spreadMethod="pad" x1="-819.2" x2="819.2">
      <stop offset="0.00392156862745098" stop-color="#406572"/>
      <stop offset="1.0" stop-color="#b2bcc1"/>
    </linearGradient>
  </defs>
</svg>
