<?xml version="1.0" encoding="UTF-8" standalone="no"?>
<svg xmlns:ffdec="https://www.free-decompiler.com/flash" xmlns:xlink="http://www.w3.org/1999/xlink" ffdec:objectType="shape" height="72.5px" width="67.0px" xmlns="http://www.w3.org/2000/svg">
  <g transform="matrix(1.0, 0.0, 0.0, 1.0, 33.5, 36.25)">
    <path d="M-0.1 -23.65 L-1.7 -23.85 -1.8 -23.85 -1.9 -23.85 -3.5 -23.65 Q-6.25 -23.2 -8.35 -21.1 -11.05 -18.4 -11.05 -14.6 -11.05 -12.3 -10.0 -10.4 -9.0 -8.45 -7.3 -7.15 L-10.7 5.85 -11.55 2.55 Q-9.25 0.8 -9.25 -2.3 -9.25 -4.9 -11.05 -6.75 -12.55 -8.25 -14.6 -8.45 L-14.85 -8.5 -15.35 -8.55 -15.5 -8.55 -15.55 -8.55 -16.05 -8.5 -16.25 -8.45 Q-18.35 -8.25 -19.9 -6.75 -21.75 -4.85 -21.75 -2.3 -21.75 0.75 -19.35 2.55 L-20.15 5.45 Q-21.65 5.25 -23.2 4.35 -24.8 3.5 -25.85 2.35 L-25.75 1.5 Q-25.75 0.25 -26.6 -0.7 -27.5 -1.55 -28.65 -1.6 L-28.95 -1.6 Q-30.15 -1.55 -31.0 -0.7 -31.95 0.25 -31.95 1.5 -31.95 2.7 -31.15 3.55 -30.45 4.4 -29.35 4.55 -27.95 6.45 -25.75 7.85 -23.5 9.15 -21.25 9.55 L-24.0 20.15 22.35 20.15 18.95 7.4 Q21.75 7.0 24.45 5.35 27.15 3.7 28.85 1.35 30.2 1.15 31.05 0.2 31.9 -0.8 31.9 -2.15 31.9 -3.55 30.85 -4.6 29.85 -5.6 28.6 -5.7 L28.2 -5.7 Q26.9 -5.6 25.9 -4.6 24.9 -3.55 24.9 -2.15 24.9 -1.6 25.05 -1.1 23.7 0.4 21.65 1.5 19.7 2.65 17.75 2.9 L16.75 -0.9 Q19.6 -3.25 19.6 -6.75 19.6 -9.75 17.45 -11.95 15.65 -13.75 13.2 -14.05 L11.3 -14.05 Q8.85 -13.75 7.0 -11.8 7.45 -13.25 7.45 -14.6 7.45 -18.4 4.75 -21.1 2.6 -23.2 -0.1 -23.65 M3.6 -7.15 L5.15 -8.55 4.95 -6.75 Q4.95 -3.2 7.75 -0.9 L6.55 3.8 3.6 -7.15 M-33.5 -1.55 Q-33.0 -14.95 -23.3 -24.35 -13.55 -33.75 0.0 -33.75 13.55 -33.75 23.3 -24.35 32.95 -14.95 33.45 -1.55 32.95 11.9 23.3 21.35 13.55 30.75 0.0 30.75 -13.55 30.75 -23.3 21.35 -33.0 11.9 -33.5 -1.55" fill="url(#gradient0)" fill-rule="evenodd" stroke="none"/>
    <path d="M6.3 -15.15 Q6.05 -18.35 3.75 -20.5 1.4 -22.7 -1.8 -22.7 -5.0 -22.7 -7.35 -20.5 -9.65 -18.35 -9.9 -15.15 L-9.95 -15.7 Q-9.95 -19.05 -7.55 -21.45 -5.8 -23.2 -3.5 -23.65 L-1.9 -23.85 -1.8 -23.85 -1.7 -23.85 -0.1 -23.65 Q2.2 -23.2 3.95 -21.45 6.35 -19.05 6.35 -15.7 L6.3 -15.15 M9.1 17.95 L2.85 -5.85 Q0.65 -4.7 -1.8 -4.7 -4.25 -4.7 -6.45 -5.85 L-12.75 17.95 -13.05 17.95 -6.45 -6.95 Q-4.25 -5.8 -1.8 -5.8 0.65 -5.8 2.85 -6.95 L9.45 17.95 9.1 17.95 M6.05 -7.3 L6.05 -7.85 Q6.05 -10.45 7.9 -12.25 9.4 -13.75 11.3 -14.05 L13.2 -14.05 Q15.2 -13.75 16.7 -12.25 18.5 -10.4 18.5 -7.85 L18.45 -7.3 Q18.25 -9.7 16.45 -11.3 14.7 -13.0 12.25 -13.0 9.8 -13.0 8.05 -11.3 6.3 -9.7 6.05 -7.3 M28.2 -5.7 L28.6 -5.7 Q29.4 -5.6 30.1 -4.95 30.8 -4.25 30.8 -3.25 L30.75 -2.7 29.9 -4.0 Q29.2 -4.55 28.35 -4.55 27.55 -4.55 26.9 -4.0 26.25 -3.45 26.05 -2.7 L26.0 -3.25 Q26.0 -4.25 26.7 -4.95 27.3 -5.6 28.2 -5.7 M-16.25 -8.45 L-16.05 -8.5 -15.55 -8.55 -15.5 -8.55 -15.35 -8.55 -14.85 -8.5 -14.6 -8.45 Q-13.0 -8.25 -11.85 -7.05 -10.35 -5.5 -10.35 -3.4 L-10.4 -2.85 Q-10.6 -4.8 -12.05 -6.1 -13.5 -7.45 -15.5 -7.45 -17.5 -7.45 -18.9 -6.1 -20.35 -4.8 -20.6 -2.85 L-20.65 -3.4 Q-20.65 -5.5 -19.15 -7.05 -17.9 -8.25 -16.25 -8.45 M7.45 4.65 L7.25 4.2 8.7 -1.15 Q10.4 -0.25 12.25 -0.25 14.1 -0.25 15.85 -1.15 L16.9 3.0 Q19.2 2.95 21.75 1.65 24.4 0.3 26.05 -1.7 L26.3 -0.9 Q24.7 1.2 21.95 2.65 19.3 4.0 16.9 4.1 L15.85 -0.05 Q14.1 0.85 12.25 0.85 10.4 0.85 8.7 -0.05 L7.45 4.65 M33.45 -1.55 Q32.95 -14.95 23.3 -24.35 13.55 -33.75 0.0 -33.75 -13.55 -33.75 -23.3 -24.35 -33.0 -14.95 -33.5 -1.55 L-33.5 -2.75 Q-33.5 -16.65 -23.7 -26.45 -13.9 -36.25 0.0 -36.25 13.9 -36.25 23.7 -26.45 33.5 -16.6 33.5 -2.75 L33.45 -1.55 M-11.5 7.05 L-12.5 3.3 Q-13.95 4.0 -15.5 4.0 -17.0 4.0 -18.4 3.3 L-19.3 6.65 Q-21.25 6.55 -23.45 5.45 -25.8 4.3 -27.1 2.55 L-26.85 1.75 Q-25.45 3.4 -23.3 4.45 -21.15 5.5 -19.3 5.55 L-18.4 2.2 Q-17.0 2.9 -15.5 2.9 -13.95 2.9 -12.5 2.2 L-11.35 6.55 -11.5 7.05" fill="#fffdad" fill-rule="evenodd" stroke="none"/>
    <path d="M6.3 -15.15 L6.35 -15.7 Q6.35 -19.05 3.95 -21.45 2.2 -23.2 -0.1 -23.65 2.6 -23.2 4.75 -21.1 7.45 -18.4 7.45 -14.6 7.45 -13.25 7.0 -11.8 8.85 -13.75 11.3 -14.05 9.4 -13.75 7.9 -12.25 6.05 -10.45 6.05 -7.85 L6.05 -7.3 Q6.3 -4.9 8.05 -3.3 9.8 -1.65 12.25 -1.65 14.7 -1.65 16.45 -3.3 18.25 -4.9 18.45 -7.3 L18.5 -7.85 Q18.5 -10.4 16.7 -12.25 15.2 -13.75 13.2 -14.05 15.65 -13.75 17.45 -11.95 19.6 -9.75 19.6 -6.75 19.6 -3.25 16.75 -0.9 L17.75 2.9 Q19.7 2.65 21.65 1.5 23.7 0.4 25.05 -1.1 24.9 -1.6 24.9 -2.15 24.9 -3.55 25.9 -4.6 26.9 -5.6 28.2 -5.7 27.3 -5.6 26.7 -4.95 26.0 -4.25 26.0 -3.25 L26.05 -2.7 26.0 -2.15 26.05 -1.7 Q24.4 0.3 21.75 1.65 19.2 2.95 16.9 3.0 L15.85 -1.15 Q14.1 -0.25 12.25 -0.25 10.4 -0.25 8.7 -1.15 L7.25 4.2 7.45 4.65 11.35 17.95 20.55 17.95 20.9 17.95 17.8 6.35 17.5 5.3 Q20.4 5.15 23.45 3.55 26.6 1.8 28.3 -0.85 L28.35 -0.85 Q29.25 -0.85 29.9 -1.35 30.55 -1.9 30.75 -2.7 L30.8 -3.25 Q30.8 -4.25 30.1 -4.95 29.4 -5.6 28.6 -5.7 29.85 -5.6 30.85 -4.6 31.9 -3.55 31.9 -2.15 31.9 -0.8 31.05 0.2 30.2 1.15 28.85 1.35 27.15 3.7 24.45 5.35 21.75 7.0 18.95 7.4 L22.35 20.15 -24.0 20.15 -21.25 9.55 Q-23.5 9.15 -25.75 7.85 -27.95 6.45 -29.35 4.55 -30.45 4.4 -31.15 3.55 -31.95 2.7 -31.95 1.5 -31.95 0.25 -31.0 -0.7 -30.15 -1.55 -28.95 -1.6 L-30.2 -0.95 Q-30.8 -0.4 -30.8 0.4 L-30.7 0.95 Q-30.55 1.55 -30.0 2.0 -29.5 2.4 -28.85 2.4 L-28.7 2.4 Q-27.3 4.55 -24.65 6.0 -22.2 7.4 -19.8 7.45 L-20.1 8.55 -22.55 17.95 -22.3 17.95 -14.7 17.95 -11.5 7.05 -11.35 6.55 -12.5 2.2 Q-13.95 2.9 -15.5 2.9 -17.0 2.9 -18.4 2.2 L-19.3 5.55 Q-21.15 5.5 -23.3 4.45 -25.45 3.4 -26.85 1.75 L-26.85 1.5 -26.9 0.95 -26.85 0.4 Q-26.85 -0.4 -27.4 -0.95 -27.95 -1.55 -28.65 -1.6 -27.5 -1.55 -26.6 -0.7 -25.75 0.25 -25.75 1.5 L-25.85 2.35 Q-24.8 3.5 -23.2 4.35 -21.65 5.25 -20.15 5.45 L-19.35 2.55 Q-21.75 0.75 -21.75 -2.3 -21.75 -4.85 -19.9 -6.75 -18.35 -8.25 -16.25 -8.45 -17.9 -8.25 -19.15 -7.05 -20.65 -5.5 -20.65 -3.4 L-20.6 -2.85 Q-20.35 -0.9 -18.9 0.4 -17.5 1.75 -15.5 1.75 -13.5 1.75 -12.05 0.4 -10.6 -0.9 -10.4 -2.85 L-10.35 -3.4 Q-10.35 -5.5 -11.85 -7.05 -13.0 -8.25 -14.6 -8.45 -12.55 -8.25 -11.05 -6.75 -9.25 -4.9 -9.25 -2.3 -9.25 0.8 -11.55 2.55 L-10.7 5.85 -7.3 -7.15 Q-9.0 -8.45 -10.0 -10.4 -11.05 -12.3 -11.05 -14.6 -11.05 -18.4 -8.35 -21.1 -6.25 -23.2 -3.5 -23.65 -5.8 -23.2 -7.55 -21.45 -9.95 -19.05 -9.95 -15.7 L-9.9 -15.15 Q-9.65 -12.0 -7.35 -9.75 -5.0 -7.55 -1.8 -7.55 1.4 -7.55 3.75 -9.75 6.05 -12.0 6.3 -15.15 M3.6 -7.15 L6.55 3.8 7.75 -0.9 Q4.95 -3.2 4.95 -6.75 L5.15 -8.55 3.6 -7.15 M9.1 17.95 L9.45 17.95 2.85 -6.95 Q0.65 -5.8 -1.8 -5.8 -4.25 -5.8 -6.45 -6.95 L-13.05 17.95 -12.75 17.95 9.1 17.95 M33.45 -1.55 L33.5 -2.75 33.5 2.8 Q33.5 16.7 23.7 26.5 13.9 36.25 0.0 36.25 -13.9 36.25 -23.7 26.5 -33.5 16.7 -33.5 2.8 L-33.5 -1.55 Q-33.0 11.9 -23.3 21.35 -13.55 30.75 0.0 30.75 13.55 30.75 23.3 21.35 32.95 11.9 33.45 -1.55" fill="#784300" fill-rule="evenodd" stroke="none"/>
    <path d="M-9.9 -15.15 Q-9.65 -18.35 -7.35 -20.5 -5.0 -22.7 -1.8 -22.7 1.4 -22.7 3.75 -20.5 6.05 -18.35 6.3 -15.15 6.05 -12.0 3.75 -9.75 1.4 -7.55 -1.8 -7.55 -5.0 -7.55 -7.35 -9.75 -9.65 -12.0 -9.9 -15.15" fill="url(#gradient1)" fill-rule="evenodd" stroke="none"/>
    <path d="M-12.75 17.95 L-6.45 -5.85 Q-4.25 -4.7 -1.8 -4.7 0.65 -4.7 2.85 -5.85 L9.1 17.95 -12.75 17.95" fill="url(#gradient2)" fill-rule="evenodd" stroke="none"/>
    <path d="M6.05 -7.3 Q6.3 -9.7 8.05 -11.3 9.8 -13.0 12.25 -13.0 14.7 -13.0 16.45 -11.3 18.25 -9.7 18.45 -7.3 18.25 -4.9 16.45 -3.3 14.7 -1.65 12.25 -1.65 9.8 -1.65 8.05 -3.3 6.3 -4.9 6.05 -7.3" fill="url(#gradient3)" fill-rule="evenodd" stroke="none"/>
    <path d="M30.75 -2.7 Q30.55 -1.9 29.9 -1.35 29.25 -0.85 28.35 -0.85 L28.3 -0.85 Q26.6 1.8 23.45 3.55 20.4 5.15 17.5 5.3 L17.8 6.35 17.5 6.4 20.55 17.95 11.35 17.95 7.45 4.65 8.7 -0.05 Q10.4 0.85 12.25 0.85 14.1 0.85 15.85 -0.05 L16.9 4.1 Q19.3 4.0 21.95 2.65 24.7 1.2 26.3 -0.9 L26.05 -1.7 26.3 -2.0 26.05 -2.7 Q26.25 -3.45 26.9 -4.0 27.55 -4.55 28.35 -4.55 29.2 -4.55 29.9 -4.0 L30.75 -2.7" fill="url(#gradient4)" fill-rule="evenodd" stroke="none"/>
    <path d="M26.05 -1.7 L26.0 -2.15 26.05 -2.7 26.3 -2.0 26.05 -1.7" fill="url(#gradient5)" fill-rule="evenodd" stroke="none"/>
    <path d="M17.8 6.35 L20.9 17.95 20.55 17.95 17.5 6.4 17.8 6.35" fill="url(#gradient6)" fill-rule="evenodd" stroke="none"/>
    <path d="M-20.6 -2.85 Q-20.35 -4.8 -18.9 -6.1 -17.5 -7.45 -15.5 -7.45 -13.5 -7.45 -12.05 -6.1 -10.6 -4.8 -10.4 -2.85 -10.6 -0.9 -12.05 0.4 -13.5 1.75 -15.5 1.75 -17.5 1.75 -18.9 0.4 -20.35 -0.9 -20.6 -2.85" fill="url(#gradient7)" fill-rule="evenodd" stroke="none"/>
    <path d="M-26.85 1.75 L-27.1 2.55 Q-25.8 4.3 -23.45 5.45 -21.25 6.55 -19.3 6.65 L-18.4 3.3 Q-17.0 4.0 -15.5 4.0 -13.95 4.0 -12.5 3.3 L-11.5 7.05 -14.7 17.95 -22.3 17.95 -19.8 8.55 -20.1 8.55 -19.8 7.45 Q-22.2 7.4 -24.65 6.0 -27.3 4.55 -28.7 2.4 L-28.85 2.4 Q-29.5 2.4 -30.0 2.0 -30.55 1.55 -30.7 0.95 -30.55 0.35 -30.0 -0.1 L-28.85 -0.45 Q-27.4 -0.45 -26.9 0.95 L-27.1 1.45 -26.85 1.75" fill="url(#gradient8)" fill-rule="evenodd" stroke="none"/>
    <path d="M-20.1 8.55 L-19.8 8.55 -22.3 17.95 -22.55 17.95 -20.1 8.55" fill="url(#gradient9)" fill-rule="evenodd" stroke="none"/>
    <path d="M-28.95 -1.6 L-28.65 -1.6 Q-27.95 -1.55 -27.4 -0.95 -26.85 -0.4 -26.85 0.4 L-26.9 0.95 Q-27.4 -0.45 -28.85 -0.45 L-30.0 -0.1 Q-30.55 0.35 -30.7 0.95 L-30.8 0.4 Q-30.8 -0.4 -30.2 -0.95 L-28.95 -1.6" fill="#ffd8af" fill-rule="evenodd" stroke="none"/>
    <path d="M-26.85 1.75 L-27.1 1.45 -26.9 0.95 -26.85 1.5 -26.85 1.75" fill="url(#gradient10)" fill-rule="evenodd" stroke="none"/>
  </g>
  <defs>
    <linearGradient gradientTransform="matrix(0.0, -0.0409, -0.0409, 0.0, 0.0, -2.75)" gradientUnits="userSpaceOnUse" id="gradient0" spreadMethod="pad" x1="-819.2" x2="819.2">
      <stop offset="0.2549019607843137" stop-color="#f18c00"/>
      <stop offset="0.611764705882353" stop-color="#fffb34"/>
      <stop offset="1.0" stop-color="#ffba00"/>
    </linearGradient>
    <linearGradient gradientTransform="matrix(0.0, -0.0161, -0.0162, 0.0, -1.8, 4.75)" gradientUnits="userSpaceOnUse" id="gradient1" spreadMethod="pad" x1="-819.2" x2="819.2">
      <stop offset="0.2549019607843137" stop-color="#f18c00"/>
      <stop offset="0.611764705882353" stop-color="#fffb34"/>
      <stop offset="1.0" stop-color="#ffba00"/>
    </linearGradient>
    <linearGradient gradientTransform="matrix(0.0, -0.0161, -0.0162, 0.0, -1.8, 4.75)" gradientUnits="userSpaceOnUse" id="gradient2" spreadMethod="pad" x1="-819.2" x2="819.2">
      <stop offset="0.0" stop-color="#ffb53f"/>
      <stop offset="0.13333333333333333" stop-color="#ac5800"/>
      <stop offset="0.4823529411764706" stop-color="#fda500"/>
      <stop offset="0.8941176470588236" stop-color="#ffd300"/>
    </linearGradient>
    <linearGradient gradientTransform="matrix(0.0, -0.0161, -0.0162, 0.0, 12.25, 4.75)" gradientUnits="userSpaceOnUse" id="gradient3" spreadMethod="pad" x1="-819.2" x2="819.2">
      <stop offset="0.2549019607843137" stop-color="#f18c00"/>
      <stop offset="0.611764705882353" stop-color="#fffb34"/>
      <stop offset="1.0" stop-color="#ffba00"/>
    </linearGradient>
    <linearGradient gradientTransform="matrix(0.0, -0.0161, -0.0162, 0.0, 19.05, 4.75)" gradientUnits="userSpaceOnUse" id="gradient4" spreadMethod="pad" x1="-819.2" x2="819.2">
      <stop offset="0.0" stop-color="#ffb53f"/>
      <stop offset="0.13333333333333333" stop-color="#ac5800"/>
      <stop offset="0.4823529411764706" stop-color="#fda500"/>
      <stop offset="0.8941176470588236" stop-color="#ffd300"/>
    </linearGradient>
    <linearGradient gradientTransform="matrix(0.0, -0.0161, -0.0162, 0.0, 26.15, 5.85)" gradientUnits="userSpaceOnUse" id="gradient5" spreadMethod="pad" x1="-819.2" x2="819.2">
      <stop offset="0.00392156862745098" stop-color="#ffa741"/>
      <stop offset="0.06274509803921569" stop-color="#ab5706"/>
      <stop offset="0.8117647058823529" stop-color="#de7f12"/>
    </linearGradient>
    <linearGradient gradientTransform="matrix(0.0, -0.0161, -0.0162, 0.0, 19.2, 4.75)" gradientUnits="userSpaceOnUse" id="gradient6" spreadMethod="pad" x1="-819.2" x2="819.2">
      <stop offset="0.00392156862745098" stop-color="#ffa741"/>
      <stop offset="0.06274509803921569" stop-color="#ab5706"/>
      <stop offset="0.8117647058823529" stop-color="#de7f12"/>
    </linearGradient>
    <linearGradient gradientTransform="matrix(0.0, 0.0229, 0.0229, 0.0, -15.5, -0.85)" gradientUnits="userSpaceOnUse" id="gradient7" spreadMethod="pad" x1="-819.2" x2="819.2">
      <stop offset="0.2549019607843137" stop-color="#f18c00"/>
      <stop offset="0.611764705882353" stop-color="#fffb34"/>
      <stop offset="1.0" stop-color="#ffba00"/>
    </linearGradient>
    <linearGradient gradientTransform="matrix(0.0, -0.0161, -0.0162, 0.0, -21.15, 4.75)" gradientUnits="userSpaceOnUse" id="gradient8" spreadMethod="pad" x1="-819.2" x2="819.2">
      <stop offset="0.0" stop-color="#ffb53f"/>
      <stop offset="0.13333333333333333" stop-color="#ac5800"/>
      <stop offset="0.4823529411764706" stop-color="#fda500"/>
      <stop offset="0.8941176470588236" stop-color="#ffd300"/>
    </linearGradient>
    <linearGradient gradientTransform="matrix(0.0, -0.0161, -0.0162, 0.0, -21.2, 4.75)" gradientUnits="userSpaceOnUse" id="gradient9" spreadMethod="pad" x1="-819.2" x2="819.2">
      <stop offset="0.00392156862745098" stop-color="#ffa741"/>
      <stop offset="0.06274509803921569" stop-color="#ab5706"/>
      <stop offset="0.8117647058823529" stop-color="#de7f12"/>
    </linearGradient>
    <linearGradient gradientTransform="matrix(0.0, -0.0161, -0.0162, 0.0, -26.95, 5.85)" gradientUnits="userSpaceOnUse" id="gradient10" spreadMethod="pad" x1="-819.2" x2="819.2">
      <stop offset="0.00392156862745098" stop-color="#ffa741"/>
      <stop offset="0.06274509803921569" stop-color="#ab5706"/>
      <stop offset="0.8117647058823529" stop-color="#de7f12"/>
    </linearGradient>
  </defs>
</svg>
