<?xml version="1.0" encoding="UTF-8" standalone="no"?>
<svg xmlns:ffdec="https://www.free-decompiler.com/flash" xmlns:xlink="http://www.w3.org/1999/xlink" ffdec:objectType="shape" height="50.0px" width="50.0px" xmlns="http://www.w3.org/2000/svg">
  <g transform="matrix(1.0, 0.0, 0.0, 1.0, 25.0, 25.0)">
    <path d="M25.0 25.0 L-25.0 25.0 -25.0 -25.0 25.0 -25.0 25.0 25.0" fill="#ffffff" fill-rule="evenodd" stroke="none"/>
    <path d="M13.75 -10.6 L13.05 -5.15 14.15 -4.05 Q14.8 -2.95 14.5 -1.55 14.2 -0.15 13.15 0.7 L12.2 1.25 Q11.6 4.3 8.7 6.35 8.3 6.65 7.85 6.9 9.75 8.1 11.25 9.95 15.55 15.35 15.55 25.0 L-15.6 25.0 Q-15.6 15.35 -11.25 9.95 -9.75 8.1 -7.85 6.9 -8.3 6.65 -8.7 6.35 -11.65 4.3 -12.2 1.25 L-13.2 0.7 Q-14.25 -0.15 -14.5 -1.55 -14.8 -2.95 -14.2 -4.05 L-13.05 -5.15 -13.8 -10.6 Q-13.8 -15.3 -9.75 -18.8 -5.65 -22.35 0.0 -22.35 5.65 -22.35 9.75 -18.8 13.75 -15.3 13.75 -10.6" fill="#718495" fill-rule="evenodd" stroke="none"/>
    <path d="M8.25 -10.6 Q8.25 -8.9 7.5 -7.55 6.65 -6.15 4.4 -4.1 L2.35 -2.05 Q1.95 -1.5 1.7 -0.6 1.5 0.2 1.4 2.1 L-1.6 2.1 -1.6 1.15 Q-1.6 -0.7 -1.05 -2.0 L0.15 -4.05 2.45 -6.3 Q4.0 -7.7 4.55 -8.55 5.0 -9.4 5.0 -10.4 5.0 -12.2 3.6 -13.6 2.2 -15.0 0.1 -15.0 -1.95 -15.0 -3.25 -13.75 -4.6 -12.45 -5.0 -9.8 L-8.25 -10.2 Q-7.8 -13.75 -5.65 -15.65 -3.5 -17.55 0.0 -17.55 3.8 -17.55 6.0 -15.5 8.25 -13.5 8.25 -10.6 M1.8 8.4 L-1.8 8.4 -1.8 4.85 1.8 4.85 1.8 8.4" fill="#ffffff" fill-rule="evenodd" stroke="none"/>
  </g>
</svg>
