<?xml version="1.0" encoding="UTF-8" standalone="no"?>
<svg xmlns:ffdec="https://www.free-decompiler.com/flash" xmlns:xlink="http://www.w3.org/1999/xlink" ffdec:objectType="shape" height="72.0px" width="67.0px" xmlns="http://www.w3.org/2000/svg">
  <g transform="matrix(1.0, 0.0, 0.0, 1.0, 33.5, 36.0)">
    <path d="M-30.0 -16.65 L-30.0 -17.15 -29.95 -17.3 -29.9 -17.5 -29.9 -17.6 -29.75 -17.95 -28.25 -20.55 Q-27.85 -21.25 -27.05 -21.5 L-25.5 -21.3 -22.9 -19.8 -22.35 -19.3 -21.85 -19.95 -20.7 -21.2 -18.3 -23.6 -17.45 -24.35 -17.4 -24.3 -17.25 -24.05 -16.75 -23.5 Q-19.85 -21.2 -22.35 -17.9 L-22.9 -18.4 -25.5 -19.9 -27.05 -20.1 Q-27.85 -19.9 -28.25 -19.15 L-29.9 -16.25 -29.95 -16.4 -30.0 -16.65 M-18.05 -30.75 L-15.45 -32.25 -13.9 -32.45 -12.7 -31.55 -11.2 -28.95 -10.95 -28.2 Q-7.75 -29.6 -4.3 -30.1 L-3.85 -30.2 -3.5 -30.25 -3.5 -31.0 -3.35 -30.25 -3.5 -30.25 -3.5 -30.2 -3.5 -29.6 -3.35 -28.85 Q-7.3 -28.4 -10.95 -26.85 L-11.2 -27.55 -12.7 -30.15 Q-13.1 -30.85 -13.9 -31.1 L-15.45 -30.9 -18.05 -29.4 Q-18.65 -29.05 -18.9 -28.35 -19.15 -29.0 -18.9 -29.7 L-18.05 -30.75 M-3.5 -32.7 L-3.5 -34.0 Q-3.5 -34.8 -2.9 -35.4 -2.3 -36.0 -1.5 -36.0 L1.5 -36.0 Q2.35 -36.0 2.9 -35.4 3.5 -34.8 3.5 -34.0 L3.5 -32.7 Q3.5 -33.45 2.9 -34.05 2.35 -34.6 1.5 -34.6 L-1.5 -34.6 Q-2.35 -34.6 -2.9 -34.05 -3.5 -33.45 -3.5 -32.7 M3.5 -31.0 L3.5 -30.25 3.9 -30.2 6.7 -29.65 11.0 -28.2 11.25 -28.95 12.75 -31.55 Q13.15 -32.25 13.95 -32.45 L15.45 -32.25 18.05 -30.75 Q18.7 -30.4 18.95 -29.7 L19.0 -29.55 Q19.15 -28.9 18.95 -28.35 18.7 -29.05 18.05 -29.4 L15.45 -30.9 13.95 -31.1 Q13.15 -30.85 12.75 -30.15 L11.25 -27.55 11.0 -26.85 Q7.25 -28.4 3.35 -28.85 L3.5 -29.6 3.5 -30.2 3.5 -30.25 3.35 -30.25 3.5 -31.0 M18.85 -23.15 L19.35 -22.7 19.85 -22.2 22.4 -19.3 22.95 -19.8 25.55 -21.3 27.05 -21.5 28.3 -20.55 29.8 -17.95 30.0 -17.4 Q30.15 -16.85 29.9 -16.25 L29.8 -16.55 28.3 -19.15 Q27.85 -19.9 27.05 -20.1 L25.55 -19.9 22.95 -18.4 22.4 -17.9 Q20.0 -21.1 16.8 -23.5 L17.3 -24.05 17.45 -24.35 18.05 -23.85 18.2 -23.7 18.85 -23.15 M27.4 -8.05 L27.55 -7.4 27.6 -7.2 27.65 -6.7 27.65 -6.65 27.75 -5.85 28.5 -6.0 31.5 -6.0 Q32.35 -6.0 32.9 -5.4 33.5 -4.8 33.5 -4.0 L33.5 -2.7 Q33.5 -3.4 32.9 -4.0 32.35 -4.6 31.5 -4.6 L28.5 -4.6 27.75 -4.45 Q27.3 -8.35 25.75 -12.1 L26.2 -12.25 Q27.0 -10.15 27.4 -8.05 M27.15 9.15 L29.05 10.25 Q29.7 10.6 29.95 11.3 L29.9 12.65 Q29.65 11.95 29.05 11.6 L26.45 10.1 25.75 9.85 26.2 8.6 26.4 8.7 26.45 8.75 27.15 9.15 M18.85 23.15 L18.9 23.25 Q19.2 23.8 19.05 24.4 L19.0 24.55 18.95 24.7 17.3 21.8 16.8 21.25 17.45 20.7 18.8 23.05 18.85 23.15 M-19.05 24.05 L-18.8 23.15 -18.75 23.05 -17.45 20.7 -17.4 20.75 -16.75 21.25 -17.25 21.8 -18.9 24.7 -18.95 24.55 -19.05 24.05 M-30.0 12.25 L-29.95 11.45 -29.9 11.3 Q-29.65 10.6 -29.0 10.25 L-28.75 10.15 -27.35 9.3 -26.4 8.75 -26.2 8.6 -26.2 8.65 -25.7 9.85 -26.4 10.1 -29.0 11.6 Q-29.65 12.0 -29.9 12.65 L-30.0 12.25 M-33.5 -2.7 L-33.5 -4.0 Q-33.5 -4.8 -32.9 -5.4 -32.3 -6.0 -31.5 -6.0 L-28.5 -6.0 -27.75 -5.85 -27.15 -9.15 -26.85 -10.3 -26.2 -12.25 -25.7 -12.1 Q-27.2 -8.65 -27.75 -4.45 L-28.5 -4.6 -31.5 -4.6 Q-32.3 -4.6 -32.9 -4.0 -33.5 -3.4 -33.5 -2.7 M-20.75 -1.15 L-20.7 -1.65 Q-20.0 6.35 -14.1 11.85 -8.15 17.35 0.0 17.35 8.15 17.35 14.1 11.85 20.05 6.4 20.75 -1.65 L20.8 -1.15 Q20.25 7.05 14.3 12.7 8.3 18.35 0.0 18.35 -8.25 18.35 -14.25 12.7 -20.25 7.05 -20.75 -1.15" fill="#d9efff" fill-rule="evenodd" stroke="none"/>
    <path d="M-29.95 -16.4 L-29.9 -16.25 -28.25 -19.15 Q-27.85 -19.9 -27.05 -20.1 L-25.5 -19.9 -22.9 -18.4 -22.35 -17.9 Q-19.85 -21.2 -16.75 -23.5 L-17.25 -24.05 -17.4 -24.3 -16.75 -24.85 -17.25 -25.45 -18.75 -28.05 -19.05 -28.75 -19.0 -29.55 Q-18.8 -30.35 -18.05 -30.75 L-18.9 -29.7 Q-19.15 -29.0 -18.9 -28.35 -18.65 -29.05 -18.05 -29.4 L-15.45 -30.9 -13.9 -31.1 Q-13.1 -30.85 -12.7 -30.15 L-11.2 -27.55 -10.95 -26.85 Q-7.3 -28.4 -3.35 -28.85 L-3.5 -29.6 -3.5 -30.2 -3.35 -30.25 -3.5 -31.0 -3.5 -32.7 Q-3.5 -33.45 -2.9 -34.05 -2.35 -34.6 -1.5 -34.6 L1.5 -34.6 Q2.35 -34.6 2.9 -34.05 3.5 -33.45 3.5 -32.7 L3.5 -31.0 3.35 -30.25 3.5 -30.2 3.5 -29.6 3.35 -28.85 Q7.25 -28.4 11.0 -26.85 L11.25 -27.55 12.75 -30.15 Q13.15 -30.85 13.95 -31.1 L15.45 -30.9 18.05 -29.4 Q18.7 -29.05 18.95 -28.35 L18.8 -28.05 17.3 -25.45 16.8 -24.85 17.45 -24.35 17.3 -24.05 16.8 -23.5 Q20.0 -21.1 22.4 -17.9 L22.95 -18.4 25.55 -19.9 27.05 -20.1 Q27.85 -19.9 28.3 -19.15 L29.8 -16.55 29.9 -16.25 Q30.15 -16.85 30.0 -17.4 L30.05 -16.6 30.0 -16.4 Q29.75 -15.6 29.05 -15.2 L26.45 -13.7 25.75 -13.45 27.2 -9.15 27.4 -8.05 Q27.0 -10.15 26.2 -12.25 L25.75 -12.1 Q27.3 -8.35 27.75 -4.45 L28.5 -4.6 31.5 -4.6 Q32.35 -4.6 32.9 -4.0 33.5 -3.4 33.5 -2.7 L33.5 -0.95 Q33.5 -0.15 32.9 0.4 32.35 1.0 31.5 1.0 L28.5 1.0 27.75 0.85 Q27.3 4.75 25.75 8.5 L26.2 8.6 25.75 9.85 26.45 10.1 29.05 11.6 Q29.65 11.95 29.9 12.65 L29.95 11.3 30.0 11.45 30.05 11.7 30.05 12.25 29.8 12.95 28.3 15.55 27.05 16.5 25.55 16.3 22.95 14.8 22.35 14.3 Q20.0 17.5 16.8 19.85 L17.3 20.45 17.45 20.7 16.8 21.25 17.3 21.8 18.95 24.7 Q18.7 25.4 18.05 25.75 L15.45 27.25 13.95 27.45 Q13.15 27.25 12.75 26.55 L11.25 23.95 11.0 23.25 Q7.25 24.8 3.35 25.25 L3.5 26.0 3.5 29.0 Q3.5 29.85 2.9 30.4 2.35 31.0 1.5 31.0 L-1.5 31.0 Q-2.3 31.0 -2.9 30.4 -3.5 29.85 -3.5 29.0 L-3.5 26.0 -3.35 25.25 Q-7.3 24.8 -10.95 23.25 L-11.2 23.95 -12.7 26.55 Q-13.1 27.25 -13.9 27.45 L-15.45 27.25 -18.05 25.75 Q-18.75 25.35 -18.95 24.55 L-18.9 24.7 -17.25 21.8 -16.75 21.25 -17.4 20.75 -17.25 20.45 -16.75 19.85 Q-19.8 17.65 -22.35 14.3 L-22.9 14.8 -25.5 16.3 -27.05 16.5 Q-27.85 16.25 -28.25 15.55 L-29.75 12.95 -29.9 12.65 Q-29.65 12.0 -29.0 11.6 L-26.4 10.1 -25.7 9.85 -26.2 8.65 -25.7 8.5 Q-27.2 5.05 -27.75 0.85 L-28.5 1.0 -31.5 1.0 Q-32.3 1.0 -32.9 0.4 -33.5 -0.15 -33.5 -0.95 L-33.5 -2.7 Q-33.5 -3.4 -32.9 -4.0 -32.3 -4.6 -31.5 -4.6 L-28.5 -4.6 -27.75 -4.45 Q-27.2 -8.65 -25.7 -12.1 L-26.2 -12.25 -25.7 -13.45 -26.4 -13.7 -29.0 -15.2 Q-29.75 -15.6 -29.95 -16.4 M-18.3 -23.6 L-20.7 -21.2 -20.35 -21.6 -18.8 -23.15 -18.3 -23.6 M-29.9 11.3 L-29.8 11.1 Q-29.6 10.55 -29.0 10.25 -29.65 10.6 -29.9 11.3 M-28.75 10.15 L-28.05 9.7 -27.35 9.3 -28.75 10.15 M20.8 -1.15 L20.85 -2.5 Q20.85 -11.15 14.75 -17.25 8.65 -23.35 0.0 -23.35 -8.6 -23.35 -14.75 -17.25 -20.85 -11.1 -20.85 -2.5 L-20.75 -1.15 Q-20.25 7.05 -14.25 12.7 -8.25 18.35 0.0 18.35 8.3 18.35 14.3 12.7 20.25 7.05 20.8 -1.15" fill="url(#gradient0)" fill-rule="evenodd" stroke="none"/>
    <path d="M-30.0 -16.65 L-29.95 -16.4 Q-29.75 -15.6 -29.0 -15.2 L-26.4 -13.7 -25.7 -13.45 -26.2 -12.25 -26.85 -10.3 -27.15 -9.15 -29.0 -10.2 Q-30.15 -10.9 -30.0 -12.2 L-30.0 -16.65 M-17.4 -24.3 L-17.45 -24.35 -18.3 -23.6 -18.8 -23.15 -19.05 -28.75 -18.75 -28.05 -17.25 -25.45 -16.75 -24.85 -17.4 -24.3 M18.05 -30.75 Q18.9 -30.3 19.05 -29.35 L19.0 -24.4 18.85 -23.15 18.2 -23.7 18.05 -23.85 17.45 -24.35 16.8 -24.85 17.3 -25.45 18.8 -28.05 18.95 -28.35 Q19.15 -28.9 19.0 -29.55 L18.95 -29.7 Q18.7 -30.4 18.05 -30.75 M30.05 -16.6 L30.05 -11.85 Q29.95 -10.75 29.05 -10.2 L27.2 -9.15 25.75 -13.45 26.45 -13.7 29.05 -15.2 Q29.75 -15.6 30.0 -16.4 L30.05 -16.6 M33.5 -0.95 L33.5 4.0 Q33.5 4.85 32.9 5.4 32.35 6.0 31.5 6.0 L28.5 6.0 27.75 5.85 27.15 9.15 26.45 8.75 26.4 8.7 26.2 8.6 25.75 8.5 Q27.3 4.75 27.75 0.85 L28.5 1.0 31.5 1.0 Q32.35 1.0 32.9 0.4 33.5 -0.15 33.5 -0.95 M30.05 12.25 Q30.05 17.5 29.8 17.95 L28.3 20.55 27.05 21.5 25.55 21.3 22.95 19.8 22.35 19.3 18.85 23.15 18.8 23.05 17.45 20.7 17.3 20.45 16.8 19.85 Q20.0 17.5 22.35 14.3 L22.95 14.8 25.55 16.3 27.05 16.5 28.3 15.55 29.8 12.95 30.05 12.25 M19.05 24.4 L19.05 28.95 Q19.15 30.2 18.05 30.75 L15.45 32.25 13.95 32.45 Q13.15 32.25 12.75 31.55 L11.25 28.95 11.0 28.25 Q7.3 29.8 3.7 30.2 L3.55 32.1 3.5 34.0 Q3.5 34.85 2.9 35.4 2.35 36.0 1.5 36.0 L-1.5 36.0 Q-2.3 36.0 -2.9 35.4 -3.5 34.85 -3.5 34.0 L-3.6 30.25 Q-7.3 29.75 -10.95 28.25 L-11.2 28.95 -12.7 31.55 Q-13.1 32.25 -13.9 32.45 L-15.45 32.25 -18.05 30.75 Q-19.15 30.15 -19.05 28.8 L-19.0 26.65 -19.05 24.2 -19.05 24.05 -18.95 24.55 Q-18.75 25.35 -18.05 25.75 L-15.45 27.25 -13.9 27.45 Q-13.1 27.25 -12.7 26.55 L-11.2 23.95 -10.95 23.25 Q-7.3 24.8 -3.35 25.25 L-3.5 26.0 -3.5 29.0 Q-3.5 29.85 -2.9 30.4 -2.3 31.0 -1.5 31.0 L1.5 31.0 Q2.35 31.0 2.9 30.4 3.5 29.85 3.5 29.0 L3.5 26.0 3.35 25.25 Q7.25 24.8 11.0 23.25 L11.25 23.95 12.75 26.55 Q13.15 27.25 13.95 27.45 L15.45 27.25 18.05 25.75 Q18.7 25.4 18.95 24.7 L19.0 24.55 19.05 24.4 M-18.8 23.15 L-22.35 19.3 -22.9 19.8 -25.5 21.3 -27.05 21.5 Q-27.85 21.25 -28.25 20.55 L-29.75 17.95 Q-30.1 17.4 -30.0 16.65 L-30.0 12.25 -29.9 12.65 -29.75 12.95 -28.25 15.55 Q-27.85 16.25 -27.05 16.5 L-25.5 16.3 -22.9 14.8 -22.35 14.3 Q-19.8 17.65 -16.75 19.85 L-17.25 20.45 -17.4 20.75 -17.45 20.7 -18.75 23.05 -18.8 23.15 M-28.05 9.7 L-27.15 9.15 -27.75 5.85 -28.5 6.0 -31.5 6.0 Q-32.3 6.0 -32.9 5.4 -33.5 4.85 -33.5 4.0 L-33.5 -0.95 Q-33.5 -0.15 -32.9 0.4 -32.3 1.0 -31.5 1.0 L-28.5 1.0 -27.75 0.85 Q-27.2 5.05 -25.7 8.5 L-26.2 8.65 -26.2 8.6 -26.4 8.75 -27.35 9.3 -28.05 9.7 M-3.5 -30.2 L-3.5 -30.25 -3.35 -30.25 -3.5 -30.2 M8.75 -18.85 Q5.05 -20.8 0.2 -20.8 -2.95 -20.8 -5.6 -19.95 L-5.8 -19.9 Q-10.45 -18.6 -14.25 -15.0 -20.25 -9.35 -20.75 -1.15 L-20.85 -2.5 Q-20.85 -11.1 -14.75 -17.25 -8.6 -23.35 0.0 -23.35 8.65 -23.35 14.75 -17.25 20.85 -11.15 20.85 -2.5 L20.8 -1.15 Q20.25 -9.35 14.3 -15.0 11.75 -17.4 8.85 -18.8 L8.75 -18.85 M3.5 -30.25 L3.5 -30.2 3.35 -30.25 3.5 -30.25" fill="#3e5153" fill-rule="evenodd" stroke="none"/>
    <path d="M-5.8 -19.9 L-5.6 -19.95 Q-2.95 -20.8 0.2 -20.8 5.05 -20.8 8.75 -18.85 8.75 -18.8 8.85 -18.8 L10.55 -17.7 Q14.85 -14.55 14.85 -10.15 14.85 -6.95 12.6 -4.4 L11.95 -6.7 14.2 -8.4 12.9 -10.65 10.3 -9.6 7.9 -11.95 9.0 -14.55 6.75 -15.9 5.0 -13.6 1.8 -14.45 1.4 -17.3 -1.2 -17.35 -1.55 -14.45 -4.8 -13.6 -6.55 -15.9 -8.8 -14.6 -7.65 -11.9 -10.05 -9.55 -12.7 -10.65 -14.0 -8.4 -11.7 -6.65 -12.25 -4.5 Q-14.45 -7.0 -14.45 -10.15 -14.45 -14.55 -10.15 -17.7 -8.2 -19.15 -5.8 -19.9 M-3.0 0.3 Q-3.65 -0.7 -3.65 -1.85 -3.65 -3.4 -2.55 -4.5 -1.45 -5.6 0.1 -5.6 1.65 -5.6 2.75 -4.5 3.85 -3.4 3.85 -1.85 3.85 -0.65 3.25 0.3 L0.2 0.5 -3.0 0.3" fill="url(#gradient1)" fill-rule="evenodd" stroke="none"/>
    <path d="M8.75 -18.85 L8.85 -18.8 Q11.75 -17.4 14.3 -15.0 20.25 -9.35 20.8 -1.15 L20.75 -1.65 Q20.05 6.4 14.1 11.85 8.15 17.35 0.0 17.35 -8.15 17.35 -14.1 11.85 -20.0 6.35 -20.7 -1.65 L-20.75 -1.15 Q-20.25 -9.35 -14.25 -15.0 -10.45 -18.6 -5.8 -19.9 -8.2 -19.15 -10.15 -17.7 -14.45 -14.55 -14.45 -10.15 -14.45 -7.0 -12.25 -4.5 L-12.55 -3.45 -15.4 -3.05 -15.4 -0.45 -12.55 -0.1 -11.7 3.15 -13.95 4.85 -12.6 7.1 -10.0 6.05 -7.65 8.4 -8.7 11.0 -6.45 12.3 -4.75 10.05 -1.55 10.95 -1.15 13.65 1.45 13.65 1.8 10.95 5.05 10.05 6.7 12.25 9.0 10.95 7.95 8.4 10.3 6.0 12.85 7.1 14.2 4.8 11.95 3.1 12.85 -0.1 15.6 -0.45 15.6 -3.1 12.85 -3.45 12.6 -4.4 Q14.85 -6.95 14.85 -10.15 14.85 -14.55 10.55 -17.7 L8.85 -18.8 Q8.75 -18.8 8.75 -18.85 M3.25 0.3 L2.75 0.85 Q1.65 1.95 0.1 1.95 -1.45 1.95 -2.55 0.85 L-3.0 0.3 0.2 0.5 3.25 0.3" fill="#e4322f" fill-rule="evenodd" stroke="none"/>
    <path d="M-12.25 -4.5 L-11.7 -6.65 -14.0 -8.4 -12.7 -10.65 -10.05 -9.55 -7.65 -11.9 -8.8 -14.6 -6.55 -15.9 -4.8 -13.6 -1.55 -14.45 -1.2 -17.35 1.4 -17.3 1.8 -14.45 5.0 -13.6 6.75 -15.9 9.0 -14.55 7.9 -11.95 10.3 -9.6 12.9 -10.65 14.2 -8.4 11.95 -6.7 12.6 -4.4 12.85 -3.45 15.6 -3.1 15.6 -0.45 12.85 -0.1 11.95 3.1 14.2 4.8 12.85 7.1 10.3 6.0 7.95 8.4 9.0 10.95 6.7 12.25 5.05 10.05 1.8 10.95 1.45 13.65 -1.15 13.65 -1.55 10.95 -4.75 10.05 -6.45 12.3 -8.7 11.0 -7.65 8.4 -10.0 6.05 -12.6 7.1 -13.95 4.85 -11.7 3.15 -12.55 -0.1 -15.4 -0.45 -15.4 -3.05 -12.55 -3.45 -12.25 -4.5 M3.25 0.3 Q3.85 -0.65 3.85 -1.85 3.85 -3.4 2.75 -4.5 1.65 -5.6 0.1 -5.6 -1.45 -5.6 -2.55 -4.5 -3.65 -3.4 -3.65 -1.85 -3.65 -0.7 -3.0 0.3 L-2.55 0.85 Q-1.45 1.95 0.1 1.95 1.65 1.95 2.75 0.85 L3.25 0.3" fill="#ffffff" fill-rule="evenodd" stroke="none"/>
  </g>
  <defs>
    <linearGradient gradientTransform="matrix(0.0, -0.0409, -0.0409, 0.0, 0.0, -2.5)" gradientUnits="userSpaceOnUse" id="gradient0" spreadMethod="pad" x1="-819.2" x2="819.2">
      <stop offset="0.2549019607843137" stop-color="#749286"/>
      <stop offset="0.611764705882353" stop-color="#d3e7da"/>
      <stop offset="1.0" stop-color="#a2c1c1"/>
    </linearGradient>
    <linearGradient gradientTransform="matrix(0.0, 0.013, 0.013, 0.0, 0.2, -10.15)" gradientUnits="userSpaceOnUse" id="gradient1" spreadMethod="pad" x1="-819.2" x2="819.2">
      <stop offset="0.0" stop-color="#ffffff"/>
      <stop offset="0.8941176470588236" stop-color="#e4322f"/>
    </linearGradient>
  </defs>
</svg>
