<?xml version="1.0" encoding="UTF-8" standalone="no"?>
<svg xmlns:ffdec="https://www.free-decompiler.com/flash" xmlns:xlink="http://www.w3.org/1999/xlink" ffdec:objectType="shape" height="72.0px" width="67.05px" xmlns="http://www.w3.org/2000/svg">
  <g transform="matrix(1.0, 0.0, 0.0, 1.0, 33.5, 36.0)">
    <path d="M-18.9 -28.35 Q-19.1 -28.9 -18.95 -29.55 L-18.9 -29.7 -18.4 -30.45 -18.2 -30.65 -18.05 -30.75 -15.45 -32.25 -13.9 -32.45 -12.7 -31.55 -11.2 -28.95 -10.95 -28.2 -9.6 -28.7 -5.05 -30.0 -3.5 -30.25 -3.5 -30.2 -3.5 -29.6 -3.35 -28.85 Q-7.2 -28.4 -10.95 -26.85 L-11.2 -27.55 -12.7 -30.15 Q-13.1 -30.85 -13.9 -31.1 L-15.45 -30.9 -18.05 -29.4 Q-18.65 -29.05 -18.9 -28.35 M-18.4 -23.5 L-17.95 -23.85 -17.4 -24.35 -17.25 -24.05 -16.75 -23.5 Q-19.95 -21.1 -22.35 -17.9 L-22.9 -18.4 -25.5 -19.9 -27.0 -20.1 Q-27.85 -19.9 -28.25 -19.15 L-29.9 -16.25 Q-30.15 -17.2 -29.75 -17.95 L-28.25 -20.55 -27.0 -21.5 -25.5 -21.3 -22.9 -19.8 -22.35 -19.3 -19.75 -22.2 -19.4 -22.55 -18.4 -23.5 M-26.4 -11.5 L-26.15 -12.25 -25.7 -12.1 Q-27.25 -8.4 -27.75 -4.45 L-28.5 -4.6 -31.5 -4.6 Q-32.3 -4.6 -32.9 -4.0 -33.5 -3.4 -33.5 -2.7 L-33.5 -4.0 Q-33.5 -4.8 -32.9 -5.4 -32.3 -6.0 -31.5 -6.0 L-28.5 -6.0 -27.75 -5.85 -27.55 -7.1 -27.35 -8.15 -27.1 -9.15 -26.4 -11.5 M-26.15 8.6 L-25.7 9.85 -26.4 10.1 -29.0 11.6 Q-29.55 11.9 -29.9 12.65 L-30.0 12.25 -29.95 11.45 -29.9 11.3 Q-29.65 10.6 -29.0 10.25 L-27.1 9.15 -26.4 8.75 -26.15 8.6 M-17.4 20.7 L-16.75 21.25 -17.25 21.8 -18.9 24.7 -18.9 24.65 -18.95 24.55 -19.0 24.35 -19.0 23.85 -19.0 23.75 -19.0 23.7 -18.95 23.6 -18.8 23.15 -18.75 23.05 -17.4 20.7 M18.95 24.7 L17.3 21.8 16.8 21.25 17.45 20.7 18.8 23.05 18.85 23.15 18.9 23.25 19.05 24.35 19.0 24.55 19.0 24.65 18.95 24.7 M29.95 12.65 L29.05 11.6 26.45 10.1 25.75 9.85 26.25 8.65 26.25 8.6 26.45 8.75 27.15 9.15 29.05 10.25 Q29.7 10.6 29.95 11.3 L30.0 11.45 30.05 11.7 30.05 12.25 29.95 12.65 M33.55 -2.7 Q33.55 -3.4 32.95 -4.0 32.4 -4.6 31.55 -4.6 L28.55 -4.6 27.8 -4.45 Q27.3 -8.4 25.75 -12.1 L26.25 -12.25 27.2 -9.15 27.7 -6.55 27.8 -5.85 28.55 -6.0 31.55 -6.0 Q32.4 -6.0 32.95 -5.4 33.55 -4.8 33.55 -4.0 L33.55 -2.7 M29.95 -16.25 L28.3 -19.15 Q27.9 -19.9 27.1 -20.1 L25.55 -19.9 22.95 -18.4 22.4 -17.9 Q20.0 -21.1 16.8 -23.5 L17.3 -24.05 17.45 -24.35 19.15 -22.85 20.05 -21.95 22.4 -19.3 22.95 -19.8 25.55 -21.3 27.1 -21.5 Q27.9 -21.25 28.3 -20.55 L29.8 -17.95 Q30.15 -17.35 30.05 -16.6 L30.0 -16.4 29.95 -16.25 M18.95 -28.35 Q18.7 -29.05 18.1 -29.4 L15.5 -30.9 13.95 -31.1 Q13.15 -30.85 12.75 -30.15 L11.25 -27.55 11.0 -26.85 Q7.25 -28.4 3.4 -28.85 L3.55 -29.6 3.55 -30.2 3.55 -30.25 4.6 -30.1 6.1 -29.8 10.15 -28.55 10.3 -28.5 10.45 -28.4 10.65 -28.35 11.0 -28.2 11.25 -28.95 12.75 -31.55 Q13.15 -32.25 13.95 -32.45 L15.5 -32.25 18.1 -30.75 18.35 -30.55 19.0 -29.7 19.05 -28.7 18.95 -28.35 M3.55 -32.7 Q3.55 -33.45 2.95 -34.05 2.4 -34.6 1.55 -34.6 L-1.5 -34.6 Q-2.35 -34.6 -2.9 -34.05 -3.5 -33.45 -3.5 -32.7 L-3.5 -34.0 Q-3.5 -34.8 -2.9 -35.4 -2.3 -36.0 -1.5 -36.0 L1.55 -36.0 Q2.4 -36.0 2.95 -35.4 3.55 -34.8 3.55 -34.0 L3.55 -32.7 M-3.4 -30.6 L-3.35 -30.25 -3.5 -30.25 -3.5 -31.0 -3.4 -30.6 M-20.75 -1.15 L-20.7 -1.65 Q-20.0 6.4 -14.05 11.85 -8.1 17.35 0.05 17.35 8.15 17.35 14.1 11.85 20.05 6.35 20.75 -1.65 L20.8 -1.15 Q20.25 7.05 14.3 12.7 8.3 18.35 0.05 18.35 -8.25 18.35 -14.25 12.7 -20.2 7.05 -20.75 -1.15" fill="#d9efff" fill-rule="evenodd" stroke="none"/>
    <path d="M-18.9 -28.35 L-18.75 -28.05 -17.25 -25.45 -16.75 -24.85 -17.4 -24.35 -17.95 -23.85 -18.4 -23.5 -18.8 -23.15 -19.05 -29.05 -18.95 -29.55 Q-19.1 -28.9 -18.9 -28.35 M-29.9 -16.25 Q-29.65 -15.55 -29.0 -15.2 L-26.4 -13.7 -25.7 -13.45 -26.4 -11.5 -27.1 -9.15 -29.0 -10.2 Q-30.15 -10.9 -30.0 -12.2 L-30.0 -16.65 -29.95 -16.4 -29.9 -16.25 M-33.5 -0.95 Q-33.5 -0.15 -32.9 0.4 -32.3 1.0 -31.5 1.0 L-28.5 1.0 -27.75 0.85 Q-27.25 4.8 -25.7 8.5 L-26.15 8.6 -26.4 8.75 -27.1 9.15 -27.75 5.85 -28.5 6.0 -31.5 6.0 Q-32.3 6.0 -32.9 5.4 -33.5 4.85 -33.5 4.0 L-33.5 -0.95 M-29.9 12.65 L-29.75 12.95 -28.25 15.55 -27.0 16.5 -25.5 16.3 -22.9 14.8 -22.35 14.3 Q-19.9 17.55 -16.75 19.85 L-17.25 20.45 -17.4 20.7 -18.75 23.05 -18.8 23.15 -22.35 19.3 -22.9 19.8 -25.5 21.3 -27.0 21.5 -28.25 20.55 -29.75 17.95 Q-30.1 17.4 -30.0 16.65 L-30.0 12.25 -29.9 12.65 M-18.9 24.7 Q-18.7 25.4 -18.0 25.75 L-15.45 27.25 -13.9 27.45 Q-13.1 27.25 -12.7 26.55 L-11.2 23.95 -10.95 23.25 Q-7.2 24.8 -3.35 25.25 L-3.5 26.0 -3.5 29.0 Q-3.5 29.85 -2.9 30.4 -2.3 31.0 -1.5 31.0 L1.55 31.0 Q2.4 31.0 2.95 30.4 3.55 29.85 3.55 29.0 L3.55 26.0 3.4 25.25 Q7.25 24.8 11.0 23.25 L11.25 23.95 12.75 26.55 Q13.15 27.25 13.95 27.45 L15.5 27.25 18.1 25.75 Q18.75 25.4 18.95 24.7 L19.0 24.65 19.0 24.55 19.05 24.35 19.1 28.95 Q19.1 30.2 18.1 30.75 L15.5 32.25 13.95 32.45 Q13.15 32.25 12.75 31.55 L11.25 28.95 11.0 28.25 Q7.3 29.8 3.7 30.2 L3.55 34.0 Q3.55 34.85 2.95 35.4 2.4 36.0 1.55 36.0 L-1.5 36.0 Q-2.3 36.0 -2.9 35.4 -3.5 34.85 -3.5 34.0 L-3.6 30.25 Q-7.35 29.75 -10.95 28.25 L-11.2 28.95 -12.7 31.55 Q-13.1 32.25 -13.9 32.45 L-15.45 32.25 -18.0 30.75 Q-19.15 30.1 -19.0 28.8 L-19.0 24.35 -18.95 24.55 -18.9 24.65 -18.9 24.7 M17.45 20.7 L17.3 20.45 16.8 19.85 Q19.95 17.55 22.4 14.3 L22.95 14.8 25.55 16.3 27.1 16.5 Q27.9 16.25 28.3 15.55 L29.8 12.95 29.95 12.65 30.05 12.25 Q30.05 17.5 29.8 17.95 L28.3 20.55 Q27.9 21.25 27.1 21.5 L25.55 21.3 22.95 19.8 22.4 19.3 18.85 23.15 18.8 23.05 17.45 20.7 M26.25 8.65 L25.75 8.5 Q27.3 4.8 27.8 0.85 L28.55 1.0 31.55 1.0 Q32.4 1.0 32.95 0.4 33.55 -0.15 33.55 -0.95 L33.55 4.0 Q33.55 4.85 32.95 5.4 32.4 6.0 31.55 6.0 L28.55 6.0 27.8 5.85 27.15 9.15 26.45 8.75 26.25 8.6 26.25 8.65 M26.25 -12.25 L25.75 -13.45 26.45 -13.7 29.05 -15.2 Q29.7 -15.55 29.95 -16.25 L30.0 -16.4 30.05 -16.6 30.05 -11.85 Q30.05 -10.8 29.05 -10.2 L27.2 -9.15 26.25 -12.25 M17.45 -24.35 L16.8 -24.85 17.3 -25.45 18.8 -28.05 18.95 -28.35 19.05 -28.7 19.05 -24.4 18.85 -23.15 19.15 -22.85 17.45 -24.35 M3.55 -30.2 L3.4 -30.25 3.55 -30.85 3.55 -30.25 3.55 -30.2 M-3.4 -30.65 L-3.35 -30.25 -3.5 -30.2 -3.5 -30.25 -3.35 -30.25 -3.4 -30.6 -3.4 -30.65 M8.95 -18.75 Q5.15 -20.8 0.2 -20.8 -3.05 -20.8 -5.75 -19.9 -10.45 -18.6 -14.25 -15.0 -20.2 -9.35 -20.75 -1.15 L-20.85 -2.5 Q-20.85 -11.15 -14.75 -17.25 -8.6 -23.35 0.05 -23.35 8.7 -23.35 14.8 -17.25 20.9 -11.1 20.9 -2.5 L20.8 -1.15 Q20.25 -9.35 14.3 -15.0 11.8 -17.35 8.95 -18.75" fill="#3e5153" fill-rule="evenodd" stroke="none"/>
    <path d="M-17.4 -24.35 L-16.75 -24.85 -17.25 -25.45 -18.75 -28.05 -18.9 -28.35 Q-18.65 -29.05 -18.05 -29.4 L-15.45 -30.9 -13.9 -31.1 Q-13.1 -30.85 -12.7 -30.15 L-11.2 -27.55 -10.95 -26.85 Q-7.2 -28.4 -3.35 -28.85 L-3.5 -29.6 -3.5 -30.2 -3.35 -30.25 -3.4 -30.65 -3.5 -31.0 -3.5 -32.7 Q-3.5 -33.45 -2.9 -34.05 -2.35 -34.6 -1.5 -34.6 L1.55 -34.6 Q2.4 -34.6 2.95 -34.05 3.55 -33.45 3.55 -32.7 L3.55 -31.0 3.55 -30.85 3.4 -30.25 3.55 -30.2 3.55 -29.6 3.4 -28.85 Q7.25 -28.4 11.0 -26.85 L11.25 -27.55 12.75 -30.15 Q13.15 -30.85 13.95 -31.1 L15.5 -30.9 18.1 -29.4 Q18.7 -29.05 18.95 -28.35 L18.8 -28.05 17.3 -25.45 16.8 -24.85 17.45 -24.35 17.3 -24.05 16.8 -23.5 Q20.0 -21.1 22.4 -17.9 L22.95 -18.4 25.55 -19.9 27.1 -20.1 Q27.9 -19.9 28.3 -19.15 L29.95 -16.25 Q29.7 -15.55 29.05 -15.2 L26.45 -13.7 25.75 -13.45 26.25 -12.25 25.75 -12.1 Q27.3 -8.4 27.8 -4.45 L28.55 -4.6 31.55 -4.6 Q32.4 -4.6 32.95 -4.0 33.55 -3.4 33.55 -2.7 L33.55 -0.95 Q33.55 -0.15 32.95 0.4 32.4 1.0 31.55 1.0 L28.55 1.0 27.8 0.85 Q27.3 4.8 25.75 8.5 L26.25 8.65 25.75 9.85 26.45 10.1 29.05 11.6 29.95 12.65 29.8 12.95 28.3 15.55 Q27.9 16.25 27.1 16.5 L25.55 16.3 22.95 14.8 22.4 14.3 Q19.95 17.55 16.8 19.85 L17.3 20.45 17.45 20.7 16.8 21.25 17.3 21.8 18.95 24.7 Q18.75 25.4 18.1 25.75 L15.5 27.25 13.95 27.45 Q13.15 27.25 12.75 26.55 L11.25 23.95 11.0 23.25 Q7.25 24.8 3.4 25.25 L3.55 26.0 3.55 29.0 Q3.55 29.85 2.95 30.4 2.4 31.0 1.55 31.0 L-1.5 31.0 Q-2.3 31.0 -2.9 30.4 -3.5 29.85 -3.5 29.0 L-3.5 26.0 -3.35 25.25 Q-7.2 24.8 -10.95 23.25 L-11.2 23.95 -12.7 26.55 Q-13.1 27.25 -13.9 27.45 L-15.45 27.25 -18.0 25.75 Q-18.7 25.4 -18.9 24.7 L-17.25 21.8 -16.75 21.25 -17.4 20.7 -17.25 20.45 -16.75 19.85 Q-19.9 17.55 -22.35 14.3 L-22.9 14.8 -25.5 16.3 -27.0 16.5 -28.25 15.55 -29.75 12.95 -29.9 12.65 Q-29.55 11.9 -29.0 11.6 L-26.4 10.1 -25.7 9.85 -26.15 8.6 -25.7 8.5 Q-27.25 4.8 -27.75 0.85 L-28.5 1.0 -31.5 1.0 Q-32.3 1.0 -32.9 0.4 -33.5 -0.15 -33.5 -0.95 L-33.5 -2.7 Q-33.5 -3.4 -32.9 -4.0 -32.3 -4.6 -31.5 -4.6 L-28.5 -4.6 -27.75 -4.45 Q-27.25 -8.4 -25.7 -12.1 L-26.15 -12.25 -26.4 -11.5 -25.7 -13.45 -26.4 -13.7 -29.0 -15.2 Q-29.65 -15.55 -29.9 -16.25 L-28.25 -19.15 Q-27.85 -19.9 -27.0 -20.1 L-25.5 -19.9 -22.9 -18.4 -22.35 -17.9 Q-19.95 -21.1 -16.75 -23.5 L-17.25 -24.05 -17.4 -24.35 M-18.8 -23.15 L-18.4 -23.5 -19.4 -22.55 -19.05 -22.9 -18.8 -23.15 M-29.75 -17.95 Q-30.15 -17.2 -29.9 -16.25 L-29.95 -16.4 -30.0 -16.65 -29.75 -17.95 M20.8 -1.15 L20.9 -2.5 Q20.9 -11.1 14.8 -17.25 8.7 -23.35 0.05 -23.35 -8.6 -23.35 -14.75 -17.25 -20.85 -11.15 -20.85 -2.5 L-20.75 -1.15 Q-20.2 7.05 -14.25 12.7 -8.25 18.35 0.05 18.35 8.3 18.35 14.3 12.7 20.25 7.05 20.8 -1.15 M20.05 -21.95 L20.55 -21.45 22.4 -19.3 20.05 -21.95 M-29.95 11.45 Q-29.75 10.65 -29.0 10.25 -29.65 10.6 -29.9 11.3 L-29.95 11.45" fill="url(#gradient0)" fill-rule="evenodd" stroke="none"/>
    <path d="M-5.75 -19.9 Q-3.05 -20.8 0.2 -20.8 5.15 -20.8 8.95 -18.75 L10.6 -17.7 Q14.9 -14.55 14.9 -10.15 14.9 -8.6 14.35 -7.15 L11.4 -7.7 Q9.25 -7.7 8.1 -6.85 6.95 -6.05 6.5 -4.45 L9.8 -3.85 Q9.95 -4.8 10.3 -5.15 10.7 -5.55 11.3 -5.55 L12.25 -5.2 12.6 -4.35 10.9 -2.8 10.55 -2.85 10.55 -2.55 Q6.8 0.1 1.7 0.45 L1.75 0.4 Q3.55 -0.85 4.2 -1.9 4.85 -2.85 4.85 -4.05 4.85 -5.05 4.3 -6.0 3.7 -6.85 2.7 -7.3 L-0.15 -7.7 -2.9 -7.25 -4.45 -6.0 Q-5.0 -5.15 -5.2 -3.7 L-1.7 -3.45 -1.15 -4.9 Q-0.75 -5.3 -0.05 -5.3 0.6 -5.3 1.0 -4.9 1.4 -4.5 1.4 -3.95 1.4 -3.45 1.0 -2.8 0.45 -2.15 -0.95 -1.1 L-2.7 0.3 Q-6.2 -0.15 -8.95 -1.8 L-8.95 -7.7 -11.85 -7.7 Q-12.3 -6.6 -13.2 -5.8 -14.45 -7.8 -14.45 -10.15 -14.45 -14.55 -10.15 -17.7 -8.15 -19.15 -5.75 -19.9" fill="url(#gradient1)" fill-rule="evenodd" stroke="none"/>
    <path d="M8.95 -18.75 Q11.8 -17.35 14.3 -15.0 20.25 -9.35 20.8 -1.15 L20.75 -1.65 Q20.05 6.35 14.1 11.85 8.15 17.35 0.05 17.35 -8.1 17.35 -14.05 11.85 -20.0 6.4 -20.7 -1.65 L-20.75 -1.15 Q-20.2 -9.35 -14.25 -15.0 -10.45 -18.6 -5.75 -19.9 -8.15 -19.15 -10.15 -17.7 -14.45 -14.55 -14.45 -10.15 -14.45 -7.8 -13.2 -5.8 L-13.35 -5.7 Q-14.3 -5.0 -16.1 -4.35 L-16.1 -1.5 -14.1 -2.25 -12.45 -3.3 -12.45 5.0 -8.95 5.0 -8.95 -1.8 Q-6.2 -0.15 -2.7 0.3 L-4.35 2.1 Q-5.3 3.55 -5.45 5.0 L4.95 5.0 4.95 2.15 -0.45 2.15 0.35 1.4 1.7 0.45 Q6.8 0.1 10.55 -2.55 L10.35 -0.4 11.5 -0.6 Q12.25 -0.6 12.7 -0.1 13.15 0.35 13.15 1.25 13.15 2.1 12.7 2.6 12.25 3.1 11.55 3.1 10.85 3.1 10.45 2.7 10.05 2.35 9.8 1.25 L6.35 1.7 Q6.65 2.8 7.3 3.65 L8.9 4.8 11.6 5.2 Q13.4 5.2 14.45 4.65 15.55 4.1 16.05 3.15 16.65 2.1 16.65 1.05 16.65 0.1 16.3 -0.45 L15.35 -1.45 14.2 -1.9 15.55 -3.05 Q16.0 -3.65 16.0 -4.5 16.0 -5.9 14.9 -6.8 L14.35 -7.15 Q14.9 -8.6 14.9 -10.15 14.9 -14.55 10.6 -17.7 L8.95 -18.75 M10.9 -2.8 L12.6 -4.35 12.6 -4.3 Q12.6 -3.7 12.15 -3.25 11.7 -2.8 11.0 -2.8 L10.9 -2.8" fill="#ffb52f" fill-rule="evenodd" stroke="none"/>
    <path d="M-13.2 -5.8 Q-12.3 -6.6 -11.85 -7.7 L-8.95 -7.7 -8.95 -1.8 -8.95 5.0 -12.45 5.0 -12.45 -3.3 -14.1 -2.25 -16.1 -1.5 -16.1 -4.35 Q-14.3 -5.0 -13.35 -5.7 L-13.2 -5.8 M-2.7 0.3 L-0.95 -1.1 Q0.45 -2.15 1.0 -2.8 1.4 -3.45 1.4 -3.95 1.4 -4.5 1.0 -4.9 0.6 -5.3 -0.05 -5.3 -0.75 -5.3 -1.15 -4.9 L-1.7 -3.45 -5.2 -3.7 Q-5.0 -5.15 -4.45 -6.0 L-2.9 -7.25 -0.15 -7.7 2.7 -7.3 Q3.7 -6.85 4.3 -6.0 4.85 -5.05 4.85 -4.05 4.85 -2.85 4.2 -1.9 3.55 -0.85 1.75 0.4 L1.7 0.45 0.35 1.4 -0.45 2.15 4.95 2.15 4.95 5.0 -5.45 5.0 Q-5.3 3.55 -4.35 2.1 L-2.7 0.3 M10.55 -2.55 L10.55 -2.85 10.9 -2.8 11.0 -2.8 Q11.7 -2.8 12.15 -3.25 12.6 -3.7 12.6 -4.3 L12.6 -4.35 12.25 -5.2 11.3 -5.55 Q10.7 -5.55 10.3 -5.15 9.95 -4.8 9.8 -3.85 L6.5 -4.45 Q6.95 -6.05 8.1 -6.85 9.25 -7.7 11.4 -7.7 L14.35 -7.15 14.9 -6.8 Q16.0 -5.9 16.0 -4.5 16.0 -3.65 15.55 -3.05 L14.2 -1.9 15.35 -1.45 16.3 -0.45 Q16.65 0.1 16.65 1.05 16.65 2.1 16.05 3.15 15.55 4.1 14.45 4.65 13.4 5.2 11.6 5.2 L8.9 4.8 7.3 3.65 Q6.65 2.8 6.35 1.7 L9.8 1.25 Q10.05 2.35 10.45 2.7 10.85 3.1 11.55 3.1 12.25 3.1 12.7 2.6 13.15 2.1 13.15 1.25 13.15 0.35 12.7 -0.1 12.25 -0.6 11.5 -0.6 L10.35 -0.4 10.55 -2.55" fill="#ffffff" fill-rule="evenodd" stroke="none"/>
  </g>
  <defs>
    <linearGradient gradientTransform="matrix(0.0, -0.0409, -0.0409, 0.0, 0.05, -2.5)" gradientUnits="userSpaceOnUse" id="gradient0" spreadMethod="pad" x1="-819.2" x2="819.2">
      <stop offset="0.2549019607843137" stop-color="#749286"/>
      <stop offset="0.611764705882353" stop-color="#d3e7da"/>
      <stop offset="1.0" stop-color="#a2c1c1"/>
    </linearGradient>
    <linearGradient gradientTransform="matrix(0.0, 0.013, 0.013, 0.0, 0.2, -10.15)" gradientUnits="userSpaceOnUse" id="gradient1" spreadMethod="pad" x1="-819.2" x2="819.2">
      <stop offset="0.0" stop-color="#ffffff"/>
      <stop offset="0.8941176470588236" stop-color="#ffb52f"/>
    </linearGradient>
  </defs>
</svg>
