<?xml version="1.0" encoding="UTF-8" standalone="no"?>
<svg xmlns:ffdec="https://www.free-decompiler.com/flash" xmlns:xlink="http://www.w3.org/1999/xlink" ffdec:objectType="shape" height="63.5px" width="78.15px" xmlns="http://www.w3.org/2000/svg">
  <g transform="matrix(1.0, 0.0, 0.0, 1.0, 39.05, 33.2)">
    <path d="M-19.35 -15.65 Q-21.55 -20.65 -20.0 -24.55 -18.6 -28.0 -15.2 -29.05 -11.8 -30.1 -9.1 -27.85 -5.95 -25.3 -5.55 -19.7 L-10.95 -18.7 Q-11.3 -22.3 -12.45 -22.35 -13.55 -22.45 -12.8 -17.3 L-19.35 -15.65" fill="#744d25" fill-rule="evenodd" stroke="none"/>
    <path d="M1.45 -17.7 Q-0.7 -24.65 1.25 -28.9 3.0 -32.65 6.95 -33.1 10.8 -33.6 13.8 -30.85 17.1 -27.75 17.05 -22.5 L10.75 -21.6 Q10.15 -25.45 8.7 -25.5 7.25 -25.5 8.1 -19.1 L1.45 -17.7" fill="#744d25" fill-rule="evenodd" stroke="none"/>
    <path d="M39.1 26.3 L27.3 28.25 19.05 28.1 18.75 29.45 13.25 30.3 -39.05 24.25 -26.9 -18.5 21.1 -25.5 25.6 -25.2 39.1 26.3" fill="#744d25" fill-rule="evenodd" stroke="none"/>
    <path d="M-36.1 22.25 L-25.05 -16.75 20.85 -23.1 12.85 27.6 -36.1 22.25" fill="#ffe8b4" fill-rule="evenodd" stroke="none"/>
    <path d="M-31.75 20.6 L-25.05 -3.45 13.65 -6.9 8.0 23.9 -31.75 20.6" fill="#744d25" fill-rule="evenodd" stroke="none"/>
    <path d="M-30.2 19.55 L-25.9 2.65 11.05 0.9 6.85 22.85 -30.2 19.55" fill="#fff7e7" fill-rule="evenodd" stroke="none"/>
    <path d="M-21.25 -0.35 L-20.7 -0.35 -25.2 20.6 -26.1 20.85 -21.25 -0.35" fill="#744d25" fill-rule="evenodd" stroke="none"/>
    <path d="M-9.9 -2.3 L-9.15 -2.65 -15.0 21.2 -15.6 21.2 -9.9 -2.3" fill="#744d25" fill-rule="evenodd" stroke="none"/>
    <path d="M-16.8 0.9 L-16.25 0.9 -19.7 20.85 -20.25 20.95 -16.8 0.9" fill="#744d25" fill-rule="evenodd" stroke="none"/>
    <path d="M6.25 -2.65 L6.65 -2.65 1.05 22.3 0.2 22.4 6.25 -2.65" fill="#744d25" fill-rule="evenodd" stroke="none"/>
    <path d="M-5.55 0.9 L-4.95 0.5 -9.5 22.05 -10.35 22.15 -5.55 0.9" fill="#744d25" fill-rule="evenodd" stroke="none"/>
    <path d="M-0.9 0.4 L-0.4 0.4 -3.55 22.35 -4.3 22.35 -0.9 0.4" fill="#744d25" fill-rule="evenodd" stroke="none"/>
    <path d="M-28.55 11.5 L9.55 10.5 9.25 11.5 -28.55 12.0 -28.55 11.5" fill="#744d25" fill-rule="evenodd" stroke="none"/>
    <path d="M-29.9 15.15 L7.8 17.15 7.65 18.2 -29.9 15.7 -29.9 15.15" fill="#744d25" fill-rule="evenodd" stroke="none"/>
    <path d="M10.75 6.3 L-27.45 7.2 -27.1 6.7 11.0 5.3 10.75 6.3" fill="#744d25" fill-rule="evenodd" stroke="none"/>
    <path d="M36.1 24.65 L31.55 25.6 25.45 -6.55 29.3 26.15 27.6 26.45 22.45 -17.45 17.2 27.4 12.85 27.6 20.85 -23.1 24.15 -23.1 36.1 24.65" fill="#c8b99a" fill-rule="evenodd" stroke="none"/>
    <path d="M-21.05 -11.1 L-18.8 -11.3 -19.55 -7.2 Q-19.15 -5.75 -21.15 -5.15 L-24.1 -4.95 -22.65 -7.75 -21.05 -11.1 M-9.15 -8.35 L-11.6 -5.9 -11.2 -12.85 Q-6.75 -13.0 -5.75 -11.6 -4.6 -10.05 -7.15 -6.1 L-6.55 -10.8 -9.15 -8.35 M-13.15 -7.75 Q-13.05 -8.4 -14.45 -8.3 L-16.15 -8.1 Q-17.45 -7.9 -15.15 -7.15 -13.2 -6.55 -13.15 -7.75 M-14.1 -11.1 Q-13.7 -10.55 -12.15 -5.85 L-15.6 -5.55 Q-18.6 -5.65 -18.4 -7.35 L-16.95 -8.5 Q-15.4 -9.4 -14.5 -9.3 -14.15 -10.5 -15.85 -9.95 L-17.95 -9.0 Q-15.5 -13.0 -14.1 -11.1" fill="#744d25" fill-rule="evenodd" stroke="none"/>
    <path d="M-15.6 -17.5 Q-13.95 -17.85 -13.8 -15.9 -13.65 -13.9 -15.65 -13.7 -17.25 -13.55 -17.35 -15.3 -17.4 -17.1 -15.6 -17.5" fill="#744d25" fill-rule="evenodd" stroke="none"/>
    <path d="M-13.75 -27.45 Q-11.25 -27.75 -9.3 -25.6 -7.15 -23.25 -7.3 -19.3 L-9.05 -18.95 Q-9.85 -22.65 -11.2 -23.95 -12.4 -25.1 -13.6 -24.2 -14.75 -23.3 -15.1 -21.2 -15.45 -18.9 -14.55 -16.5 -14.55 -15.35 -15.6 -15.05 -16.7 -14.7 -17.4 -16.05 -18.85 -21.25 -17.55 -24.4 -16.4 -27.15 -13.75 -27.45" fill="#c7d2d4" fill-rule="evenodd" stroke="none"/>
    <path d="M-16.8 -24.9 Q-16.35 -26.4 -15.35 -26.3 -14.35 -26.25 -15.5 -24.5 -16.4 -23.1 -16.8 -23.35 -17.15 -23.7 -16.8 -24.9" fill="#f5feff" fill-rule="evenodd" stroke="none"/>
    <path d="M5.5 -20.3 Q7.7 -20.75 7.95 -18.1 8.2 -15.5 5.5 -15.25 3.35 -15.05 3.25 -17.4 3.15 -19.75 5.5 -20.3" fill="#744d25" fill-rule="evenodd" stroke="none"/>
    <path d="M12.65 -22.05 Q11.8 -25.9 10.25 -27.2 L7.65 -27.25 Q6.4 -26.2 6.05 -23.85 5.65 -21.2 6.75 -18.5 6.75 -17.25 5.5 -16.9 4.2 -16.5 3.3 -18.05 1.5 -23.9 3.05 -27.6 4.35 -30.75 7.45 -31.2 10.4 -31.6 12.65 -29.3 15.15 -26.7 14.95 -22.35 L12.65 -22.05" fill="#c7d2d4" fill-rule="evenodd" stroke="none"/>
    <path d="M4.0 -28.5 Q4.45 -30.0 5.95 -29.7 7.35 -29.45 5.85 -27.55 4.45 -25.8 4.0 -26.45 3.6 -27.05 4.0 -28.5" fill="#f5feff" fill-rule="evenodd" stroke="none"/>
  </g>
</svg>
