<?xml version="1.0" encoding="UTF-8" standalone="no"?>
<svg xmlns:ffdec="https://www.free-decompiler.com/flash" xmlns:xlink="http://www.w3.org/1999/xlink" ffdec:objectType="shape" height="124.95px" width="92.25px" xmlns="http://www.w3.org/2000/svg">
  <g transform="matrix(1.0, 0.0, 0.0, 1.0, -9.9, -1.35)">
    <path d="M99.5 11.1 Q100.95 12.8 101.65 15.95 102.45 19.0 101.95 21.3 98.65 37.95 84.8 115.45 83.85 120.1 81.15 123.25 78.15 126.8 74.3 126.25 57.2 124.75 42.7 121.95 14.25 116.5 10.55 107.65 11.35 98.5 22.5 50.6 L33.5 4.5 64.2 3.2 Q78.65 2.4 87.8 2.55 90.45 3.2 94.1 5.95 97.1 8.3 99.5 11.1" fill="#181919" fill-rule="evenodd" stroke="none"/>
    <path d="M14.9 105.4 L34.6 7.3 84.85 7.05 65.75 114.25 14.9 105.4" fill="#212323" fill-rule="evenodd" stroke="none"/>
    <path d="M68.75 82.05 L23.75 75.95 36.5 10.5 82.3 10.25 68.75 82.05" fill="#79cbb9" fill-rule="evenodd" stroke="none"/>
    <path d="M28.45 76.6 L23.75 75.95 25.45 67.3 50.6 38.85 28.45 76.6" fill="#afe4c0" fill-rule="evenodd" stroke="none"/>
    <path d="M29.2 48.2 L50.6 38.85 28.05 54.05 29.2 48.2" fill="#afe4c0" fill-rule="evenodd" stroke="none"/>
    <path d="M50.2 79.5 L41.1 78.3 50.6 38.85 50.2 79.5" fill="#afe4c0" fill-rule="evenodd" stroke="none"/>
    <path d="M71.0 70.35 L68.8 81.95 64.95 81.45 50.6 38.85 71.0 70.35" fill="#afe4c0" fill-rule="evenodd" stroke="none"/>
    <path d="M75.0 49.1 L73.65 56.15 50.6 38.85 75.0 49.1" fill="#afe4c0" fill-rule="evenodd" stroke="none"/>
    <path d="M66.4 10.35 L74.25 10.3 50.6 38.85 66.4 10.35" fill="#afe4c0" fill-rule="evenodd" stroke="none"/>
    <path d="M81.05 17.15 L79.4 25.75 50.6 38.85 81.05 17.15" fill="#afe4c0" fill-rule="evenodd" stroke="none"/>
    <path d="M31.2 37.65 L50.6 38.85 30.4 41.75 31.2 37.65" fill="#afe4c0" fill-rule="evenodd" stroke="none"/>
    <path d="M57.25 10.35 L50.6 38.85 50.95 10.45 57.25 10.35" fill="#afe4c0" fill-rule="evenodd" stroke="none"/>
    <path d="M41.1 10.5 L50.6 38.85 35.5 15.8 36.5 10.5 41.1 10.5" fill="#afe4c0" fill-rule="evenodd" stroke="none"/>
    <path d="M33.45 26.4 L50.6 38.85 32.4 31.6 33.45 26.4" fill="#afe4c0" fill-rule="evenodd" stroke="none"/>
    <path d="M77.7 34.85 L76.55 40.7 50.6 38.85 77.7 34.85" fill="#afe4c0" fill-rule="evenodd" stroke="none"/>
    <path d="M32.95 28.65 L36.65 10.7 70.55 10.45 Q53.2 13.8 44.8 18.35 38.85 21.55 32.95 28.65" fill="#ffffff" fill-rule="evenodd" stroke="none"/>
    <path d="M67.35 44.25 Q69.05 45.75 68.7 48.8 68.4 51.2 67.0 52.4 L66.75 52.65 66.75 52.85 Q66.75 54.2 65.1 55.9 L63.35 57.5 Q62.0 58.3 59.7 58.05 L52.25 57.25 47.75 56.7 47.2 56.3 46.5 56.6 43.15 56.45 38.75 55.7 Q36.5 55.45 35.4 54.4 L34.2 52.55 Q33.25 50.6 33.65 49.4 L33.75 49.2 33.55 48.95 Q32.6 47.5 33.05 45.25 33.6 42.3 35.65 41.3 L35.55 40.05 Q35.5 39.15 35.9 38.5 36.75 37.1 38.15 35.6 40.2 33.35 41.55 33.4 L41.65 33.5 Q43.0 30.4 46.8 29.6 L48.25 29.5 Q50.3 29.65 51.15 31.5 51.75 30.75 53.25 30.25 L55.75 29.95 57.15 30.25 Q61.85 32.1 62.15 35.15 L62.35 35.15 Q64.45 35.35 66.5 39.3 L67.5 41.5 Q67.95 43.1 67.35 44.25" fill="#03a89c" fill-rule="evenodd" stroke="none"/>
    <path d="M60.4 35.6 Q60.45 36.15 59.85 36.75 L58.95 37.6 Q58.4 38.0 58.55 38.75 58.65 39.4 59.3 39.35 L60.35 38.45 61.25 37.35 Q62.8 36.25 65.0 40.45 66.4 43.1 65.45 43.9 L64.2 44.35 62.9 44.55 62.05 45.15 Q61.75 45.65 62.2 46.1 L63.75 46.25 65.45 45.65 Q67.3 45.4 66.9 48.7 66.45 52.0 64.3 51.15 L63.2 50.8 Q62.5 50.8 62.45 51.6 62.4 52.3 63.3 52.4 L64.7 52.55 Q65.3 52.85 64.1 54.2 L62.5 55.75 60.65 56.15 58.75 56.0 48.75 55.0 Q48.35 54.75 48.55 52.6 48.75 50.6 48.15 50.55 47.5 50.45 47.05 52.45 46.55 54.6 46.05 54.7 L43.85 54.45 40.25 53.9 38.4 53.75 Q37.35 53.5 36.75 52.95 L35.75 51.2 Q35.05 49.7 35.65 49.5 L37.05 49.7 Q37.95 49.75 38.15 49.1 38.35 48.25 37.65 48.2 L36.5 48.3 Q34.2 48.65 34.8 45.5 35.35 42.35 37.1 42.9 L38.5 43.75 40.1 43.95 Q40.7 43.6 40.5 43.05 40.4 42.55 39.85 42.35 L38.45 41.9 37.2 41.1 Q36.65 40.25 38.85 37.55 41.05 34.8 41.95 35.7 L42.5 36.95 Q42.8 37.75 43.25 37.9 43.85 38.15 44.15 37.45 44.45 36.8 44.05 36.25 L43.4 35.35 Q43.05 34.7 43.3 34.15 43.95 32.15 46.9 31.55 48.95 31.05 49.6 32.55 49.95 33.6 49.6 37.05 49.3 40.0 49.8 40.05 50.35 40.15 50.95 37.15 51.65 33.8 52.3 32.8 52.85 32.1 54.3 31.95 L56.4 32.15 Q60.35 33.6 60.4 35.6" fill="#93dba2" fill-rule="evenodd" stroke="none"/>
    <path d="M48.95 96.2 Q45.7 96.8 41.6 96.25 37.3 95.65 34.45 94.1 31.55 92.45 32.5 86.95 33.5 81.45 36.75 81.2 L44.6 81.45 Q49.4 82.0 51.4 83.1 54.0 84.45 53.05 90.05 52.05 95.6 48.95 96.2" fill="#b8bcb3" fill-rule="evenodd" stroke="none"/>
    <path d="M28.75 92.15 Q27.4 92.95 24.5 92.65 21.35 92.35 19.95 90.8 18.55 89.25 19.35 85.7 20.0 82.25 21.55 81.3 23.2 80.35 26.0 80.65 28.95 80.9 30.4 82.55 31.65 83.85 31.05 87.5 30.55 91.1 28.75 92.15" fill="#585e60" fill-rule="evenodd" stroke="none"/>
    <path d="M39.55 86.0 Q40.5 85.45 44.05 86.0 L47.45 86.65 Q40.55 90.35 39.25 90.35 38.2 90.4 38.4 88.5 38.5 86.65 39.55 86.0" fill="#7f827a" fill-rule="evenodd" stroke="none"/>
    <path d="M40.95 82.0 Q45.2 82.05 44.6 83.75 44.0 85.45 41.3 85.05 39.0 84.75 39.0 83.4 39.0 81.95 40.95 82.0" fill="#ffffff" fill-rule="evenodd" stroke="none"/>
    <path d="M35.55 85.2 Q37.6 85.5 36.95 86.6 36.35 87.6 34.7 87.35 33.25 87.15 33.65 86.1 34.15 85.0 35.55 85.2" fill="#ffffff" fill-rule="evenodd" stroke="none"/>
    <path d="M41.0 91.8 Q45.55 92.65 44.6 93.95 43.75 95.3 39.15 94.35 36.2 93.65 36.9 92.4 37.5 91.05 41.0 91.8" fill="#ffffff" fill-rule="evenodd" stroke="none"/>
    <path d="M50.75 86.15 Q52.95 86.65 52.1 88.1 51.35 89.5 49.5 89.05 47.95 88.65 48.6 87.25 49.3 85.85 50.75 86.15" fill="#ffffff" fill-rule="evenodd" stroke="none"/>
    <path d="M56.65 86.05 Q58.65 85.05 62.1 85.5 65.85 85.85 67.65 87.65 69.2 89.2 68.5 92.95 67.85 96.75 65.75 97.75 L60.45 98.2 Q56.6 97.7 54.85 96.0 53.1 94.35 53.95 90.6 54.7 86.95 56.65 86.05" fill="#585e60" fill-rule="evenodd" stroke="none"/>
    <path d="M23.35 95.95 Q26.8 96.3 26.8 97.6 26.7 98.85 22.25 98.3 19.6 97.95 20.2 96.8 20.8 95.65 23.35 95.95" fill="#585e60" fill-rule="evenodd" stroke="none"/>
    <path d="M39.55 98.55 Q43.0 98.9 42.9 100.25 42.85 101.5 38.45 101.0 35.8 100.6 36.4 99.45 37.0 98.25 39.55 98.55" fill="#585e60" fill-rule="evenodd" stroke="none"/>
    <path d="M55.1 103.7 Q51.95 103.3 52.6 102.05 53.25 100.9 56.3 101.3 60.35 101.7 60.35 103.05 60.3 104.35 55.1 103.7" fill="#585e60" fill-rule="evenodd" stroke="none"/>
    <path d="M53.95 110.0 Q50.85 109.55 51.5 108.35 52.1 107.2 55.2 107.55 59.2 108.1 59.2 109.45 59.15 110.8 53.95 110.0" fill="#585e60" fill-rule="evenodd" stroke="none"/>
    <path d="M38.7 104.55 Q42.15 104.95 42.0 106.25 41.95 107.5 37.55 106.9 34.9 106.55 35.5 105.4 36.1 104.25 38.7 104.55" fill="#585e60" fill-rule="evenodd" stroke="none"/>
    <path d="M22.8 101.9 Q26.25 102.3 26.15 103.6 26.1 104.85 21.7 104.25 19.05 103.8 19.65 102.75 20.2 101.6 22.8 101.9" fill="#585e60" fill-rule="evenodd" stroke="none"/>
    <path d="M84.85 7.05 L34.6 7.3 13.95 105.25 65.75 114.25 84.85 7.05 M62.0 1.65 Q80.65 1.1 84.9 1.5 89.75 1.95 90.9 4.95 91.75 7.0 90.85 11.8 76.2 86.5 71.3 111.95 70.45 116.45 68.75 118.1 66.7 120.1 62.1 119.3 L13.75 110.65 Q11.45 110.25 10.5 108.2 9.55 106.1 10.1 102.85 10.85 97.3 19.8 54.1 L28.95 9.6 Q29.55 6.2 32.45 4.2 35.25 2.25 39.35 2.25 L62.0 1.65" fill="#3d3e3f" fill-rule="evenodd" stroke="none"/>
    <path d="M81.05 31.2 L84.95 6.3 34.3 6.5 22.7 59.6 18.3 63.1 30.05 9.85 Q30.7 6.8 32.05 5.45 33.75 3.7 37.6 3.5 L61.8 2.7 Q81.8 2.15 83.55 2.25 91.15 2.95 90.05 8.9 L86.65 27.9 81.05 31.2" fill="#818182" fill-rule="evenodd" stroke="none"/>
  </g>
</svg>
