<?xml version="1.0" encoding="UTF-8" standalone="no"?>
<svg xmlns:ffdec="https://www.free-decompiler.com/flash" xmlns:xlink="http://www.w3.org/1999/xlink" ffdec:objectType="shape" height="55.0px" width="55.0px" xmlns="http://www.w3.org/2000/svg">
  <g transform="matrix(1.0, 0.0, 0.0, 1.0, 27.5, 27.5)">
    <path d="M19.45 -19.45 Q27.5 -11.35 27.5 0.0 27.5 11.35 19.45 19.4 11.35 27.5 0.0 27.5 -11.35 27.5 -19.45 19.4 -27.5 11.35 -27.5 0.0 -27.5 -11.35 -19.45 -19.45 -11.35 -27.5 0.0 -27.5 11.4 -27.5 19.45 -19.45" fill="#231f20" fill-rule="evenodd" stroke="none"/>
    <path d="M0.0 -25.4 Q10.05 -25.4 17.1 -18.3 24.2 -11.2 24.2 -1.15 24.2 8.85 17.1 15.95 10.05 23.0 0.0 23.0 -10.05 23.0 -17.1 15.95 -24.2 8.85 -24.2 -1.15 -24.2 -11.2 -17.1 -18.3 -10.05 -25.4 0.0 -25.4" fill="#787878" fill-rule="evenodd" stroke="none"/>
    <path d="M14.75 -15.95 Q20.9 -9.85 20.9 -1.15 20.9 7.45 14.75 13.6 8.65 19.75 0.0 19.75 -8.65 19.75 -14.75 13.6 -20.9 7.45 -20.9 -1.15 -20.9 -9.85 -14.75 -15.95 -8.65 -22.05 0.0 -22.05 8.65 -22.05 14.75 -15.95" fill="url(#gradient0)" fill-rule="evenodd" stroke="none"/>
    <path d="M14.9 3.8 L-14.75 3.8 -14.75 -5.1 14.9 -5.1 14.9 3.8" fill="#ffffff" fill-rule="evenodd" stroke="none"/>
  </g>
  <defs>
    <linearGradient gradientTransform="matrix(0.0, -0.0121, -0.0121, 0.0, 0.0, 8.75)" gradientUnits="userSpaceOnUse" id="gradient0" spreadMethod="pad" x1="-819.2" x2="819.2">
      <stop offset="0.0" stop-color="#d9d9d9"/>
      <stop offset="1.0" stop-color="#5a5a5a"/>
    </linearGradient>
  </defs>
</svg>
