<?xml version="1.0" encoding="UTF-8" standalone="no"?>
<svg xmlns:ffdec="https://www.free-decompiler.com/flash" xmlns:xlink="http://www.w3.org/1999/xlink" ffdec:objectType="shape" height="45.0px" width="45.0px" xmlns="http://www.w3.org/2000/svg">
  <g transform="matrix(1.0, 0.0, 0.0, 1.0, 22.5, 22.5)">
    <path d="M15.9 -15.9 Q22.5 -9.3 22.5 0.0 22.5 9.3 15.9 15.9 9.3 22.5 0.0 22.5 -9.3 22.5 -15.9 15.9 -22.5 9.3 -22.5 0.0 -22.5 -9.3 -15.9 -15.9 -9.3 -22.5 0.0 -22.5 9.3 -22.5 15.9 -15.9" fill="#231f20" fill-rule="evenodd" stroke="none"/>
    <path d="M0.0 -20.75 Q8.2 -20.75 14.0 -14.95 19.8 -9.15 19.8 -0.95 19.8 7.25 14.0 13.05 8.2 18.85 0.0 18.85 -8.2 18.85 -14.0 13.05 -19.8 7.25 -19.8 -0.95 -19.8 -9.15 -14.0 -14.95 -8.2 -20.75 0.0 -20.75" fill="#787878" fill-rule="evenodd" stroke="none"/>
    <path d="M12.1 -13.05 Q17.1 -8.05 17.1 -0.95 17.1 6.1 12.1 11.15 7.05 16.15 0.0 16.15 -7.1 16.15 -12.1 11.15 -17.1 6.1 -17.1 -0.95 -17.1 -8.05 -12.1 -13.05 -7.1 -18.05 0.0 -18.05 7.05 -18.05 12.1 -13.05" fill="url(#gradient0)" fill-rule="evenodd" stroke="none"/>
    <path d="M12.2 3.1 L-12.1 3.1 -12.1 -4.15 12.2 -4.15 12.2 3.1" fill="#ffffff" fill-rule="evenodd" stroke="none"/>
  </g>
  <defs>
    <linearGradient gradientTransform="matrix(0.0, -0.0099, -0.0099, 0.0, 0.0, 7.15)" gradientUnits="userSpaceOnUse" id="gradient0" spreadMethod="pad" x1="-819.2" x2="819.2">
      <stop offset="0.0" stop-color="#d9d9d9"/>
      <stop offset="1.0" stop-color="#5a5a5a"/>
    </linearGradient>
  </defs>
</svg>
