<?xml version="1.0" encoding="UTF-8" standalone="no"?>
<svg xmlns:ffdec="https://www.free-decompiler.com/flash" xmlns:xlink="http://www.w3.org/1999/xlink" ffdec:objectType="shape" height="260.0px" width="512.7px" xmlns="http://www.w3.org/2000/svg">
  <g transform="matrix(1.0, 0.0, 0.0, 1.0, 10.5, 5.35)">
    <path d="M502.2 -5.35 L502.2 254.65 -5.5 254.65 -5.5 -5.35 502.2 -5.35" fill="#000000" fill-rule="evenodd" stroke="none"/>
    <path d="M15.55 -0.35 L31.6 -0.35 31.6 249.65 15.55 249.65 15.55 -0.35 M47.65 -0.35 L63.7 -0.35 63.7 249.65 47.65 249.65 47.65 -0.35 M79.8 -0.35 L95.8 -0.35 95.8 249.65 79.8 249.65 79.8 -0.35 M111.9 -0.35 L127.95 -0.35 127.95 249.65 111.9 249.65 111.9 -0.35 M144.0 -0.35 L160.05 -0.35 160.05 249.65 144.0 249.65 144.0 -0.35 M176.1 -0.35 L192.15 -0.35 192.15 249.65 176.1 249.65 176.1 -0.35 M208.2 -0.35 L224.25 -0.35 224.25 249.65 208.2 249.65 208.2 -0.35 M240.3 -0.35 L256.4 -0.35 256.4 249.65 240.3 249.65 240.3 -0.35 M272.45 -0.35 L288.5 -0.35 288.5 249.65 272.45 249.65 272.45 -0.35 M304.55 -0.35 L320.6 -0.35 320.6 249.65 304.55 249.65 304.55 -0.35 M336.65 -0.35 L352.7 -0.35 352.7 249.65 336.65 249.65 336.65 -0.35 M368.75 -0.35 L384.8 -0.35 384.8 249.65 368.75 249.65 368.75 -0.35 M400.85 -0.35 L416.95 -0.35 416.95 249.65 400.85 249.65 400.85 -0.35 M433.0 -0.35 L449.05 -0.35 449.05 249.65 433.0 249.65 433.0 -0.35 M465.1 -0.35 L481.15 -0.35 481.15 249.65 465.1 249.65 465.1 -0.35" fill="#e6e6e6" fill-rule="evenodd" stroke="none"/>
    <path d="M15.55 -0.35 L15.55 249.65 -0.5 249.65 -0.5 -0.35 15.55 -0.35 M31.6 249.65 L31.6 -0.35 47.65 -0.35 47.65 249.65 31.6 249.65 M63.7 -0.35 L79.8 -0.35 79.8 249.65 63.7 249.65 63.7 -0.35 M95.8 -0.35 L111.9 -0.35 111.9 249.65 95.8 249.65 95.8 -0.35 M127.95 -0.35 L144.0 -0.35 144.0 249.65 127.95 249.65 127.95 -0.35 M160.05 -0.35 L176.1 -0.35 176.1 249.65 160.05 249.65 160.05 -0.35 M192.15 -0.35 L208.2 -0.35 208.2 249.65 192.15 249.65 192.15 -0.35 M224.25 -0.35 L240.3 -0.35 240.3 249.65 224.25 249.65 224.25 -0.35 M256.4 -0.35 L272.45 -0.35 272.45 249.65 256.4 249.65 256.4 -0.35 M288.5 -0.35 L304.55 -0.35 304.55 249.65 288.5 249.65 288.5 -0.35 M320.6 -0.35 L336.65 -0.35 336.65 249.65 320.6 249.65 320.6 -0.35 M352.7 -0.35 L368.75 -0.35 368.75 249.65 352.7 249.65 352.7 -0.35 M384.8 -0.35 L400.85 -0.35 400.85 249.65 384.8 249.65 384.8 -0.35 M416.95 -0.35 L433.0 -0.35 433.0 249.65 416.95 249.65 416.95 -0.35 M449.05 -0.35 L465.1 -0.35 465.1 249.65 449.05 249.65 449.05 -0.35 M481.15 -0.35 L497.2 -0.35 497.2 249.65 481.15 249.65 481.15 -0.35" fill="#ffffff" fill-rule="evenodd" stroke="none"/>
    <path d="M-0.5 224.65 L-0.5 229.65 -10.5 229.65 -10.5 224.65 -0.5 224.65" fill="#000000" fill-rule="evenodd" stroke="none"/>
    <path d="M-0.5 174.65 L-0.5 179.65 -10.5 179.65 -10.5 174.65 -0.5 174.65" fill="#000000" fill-rule="evenodd" stroke="none"/>
    <path d="M-0.5 199.65 L-0.5 204.65 -10.5 204.65 -10.5 199.65 -0.5 199.65" fill="#000000" fill-rule="evenodd" stroke="none"/>
    <path d="M-0.5 74.65 L-0.5 79.65 -10.5 79.65 -10.5 74.65 -0.5 74.65" fill="#000000" fill-rule="evenodd" stroke="none"/>
    <path d="M-0.5 149.65 L-0.5 154.65 -10.5 154.65 -10.5 149.65 -0.5 149.65" fill="#000000" fill-rule="evenodd" stroke="none"/>
    <path d="M-0.5 124.65 L-0.5 129.65 -10.5 129.65 -10.5 124.65 -0.5 124.65" fill="#000000" fill-rule="evenodd" stroke="none"/>
    <path d="M-0.5 99.65 L-0.5 104.65 -10.5 104.65 -10.5 99.65 -0.5 99.65" fill="#000000" fill-rule="evenodd" stroke="none"/>
    <path d="M-0.5 249.65 L-0.5 254.65 -10.5 254.65 -10.5 249.65 -0.5 249.65" fill="#000000" fill-rule="evenodd" stroke="none"/>
    <path d="M-0.5 24.65 L-0.5 29.65 -10.5 29.65 -10.5 24.65 -0.5 24.65" fill="#000000" fill-rule="evenodd" stroke="none"/>
    <path d="M-0.5 -0.35 L-0.5 4.65 -10.5 4.65 -10.5 -0.35 -0.5 -0.35" fill="#000000" fill-rule="evenodd" stroke="none"/>
    <path d="M-0.5 49.65 L-0.5 54.65 -10.5 54.65 -10.5 49.65 -0.5 49.65" fill="#000000" fill-rule="evenodd" stroke="none"/>
    <path d="M8.75 243.1 L7.15 243.1 7.15 236.9 Q6.2 237.75 5.0 238.15 L5.0 236.65 Q5.65 236.45 6.4 235.85 L7.45 234.5 8.75 234.5 8.75 243.1" fill="#e6e6e6" fill-rule="evenodd" stroke="none"/>
    <path d="M25.9 237.95 L25.25 239.05 24.2 240.15 23.2 241.1 22.85 241.55 26.1 241.55 26.1 243.1 20.35 243.1 Q20.45 242.25 20.9 241.45 L22.75 239.4 24.15 238.0 24.45 237.0 24.2 236.15 Q23.9 235.85 23.35 235.85 22.85 235.85 22.55 236.15 22.25 236.45 22.2 237.2 L20.55 237.0 Q20.7 235.65 21.45 235.05 22.25 234.5 23.4 234.5 24.65 234.5 25.4 235.15 26.1 235.85 26.1 236.85 L25.9 237.95" fill="#ffffff" fill-rule="evenodd" stroke="none"/>
    <path d="M40.35 235.95 Q40.1 235.7 39.7 235.7 39.25 235.7 38.95 235.95 38.65 236.25 38.6 236.85 L37.05 236.55 37.55 235.35 Q37.85 234.85 38.45 234.6 L39.7 234.35 Q40.95 234.35 41.65 235.1 42.25 235.75 42.25 236.55 42.25 237.65 41.05 238.35 L42.2 239.05 Q42.65 239.6 42.65 240.35 42.65 241.5 41.85 242.3 41.0 243.1 39.8 243.1 38.6 243.1 37.85 242.45 37.05 241.75 36.95 240.65 L38.55 240.5 Q38.6 241.1 38.95 241.4 39.3 241.75 39.75 241.75 40.25 241.75 40.65 241.35 L40.95 240.3 40.65 239.3 Q40.3 238.95 39.8 238.95 L39.05 239.1 39.25 237.75 40.25 237.45 Q40.6 237.15 40.6 236.65 L40.35 235.95" fill="#e6e6e6" fill-rule="evenodd" stroke="none"/>
    <path d="M74.45 236.0 L71.3 236.0 71.05 237.5 Q71.6 237.2 72.2 237.2 73.3 237.2 74.05 238.0 74.8 238.8 74.8 240.05 74.8 241.15 74.2 241.95 73.35 243.1 71.85 243.1 70.7 243.1 69.95 242.45 69.2 241.8 69.05 240.75 L70.65 240.55 Q70.75 241.15 71.1 241.45 71.45 241.8 71.9 241.8 72.4 241.8 72.75 241.35 73.1 240.95 73.1 240.1 73.1 239.3 72.75 238.9 72.4 238.5 71.85 238.5 71.15 238.5 70.55 239.15 L69.25 238.95 70.1 234.5 74.45 234.5 74.45 236.0" fill="#e6e6e6" fill-rule="evenodd" stroke="none"/>
    <path d="M101.5 236.15 L101.5 234.65 107.15 234.65 107.15 235.8 Q106.45 236.5 105.7 237.8 105.0 239.05 104.65 240.5 104.25 241.95 104.25 243.1 L102.65 243.1 Q102.7 241.3 103.4 239.45 104.1 237.6 105.25 236.15 L101.5 236.15" fill="#e6e6e6" fill-rule="evenodd" stroke="none"/>
    <path d="M139.1 238.65 Q139.1 241.0 138.25 242.05 137.35 243.1 135.95 243.1 134.95 243.1 134.35 242.55 133.7 242.05 133.55 240.95 L135.15 240.8 135.45 241.5 136.1 241.75 Q136.6 241.75 136.95 241.25 137.3 240.8 137.4 239.35 136.8 240.05 135.85 240.05 134.85 240.05 134.1 239.25 133.4 238.5 133.4 237.25 133.4 235.9 134.15 235.15 134.95 234.35 136.15 234.35 137.45 234.35 138.3 235.35 139.1 236.35 139.1 238.65 M136.05 235.7 Q135.6 235.7 135.3 236.05 135.0 236.4 135.0 237.25 135.0 238.05 135.35 238.45 135.65 238.85 136.15 238.85 136.6 238.85 136.95 238.45 L137.25 237.35 Q137.25 236.55 136.9 236.15 136.55 235.7 136.05 235.7" fill="#e6e6e6" fill-rule="evenodd" stroke="none"/>
    <path d="M172.7 234.5 L172.7 243.1 171.1 243.1 171.1 236.9 168.95 238.15 168.95 236.65 Q169.6 236.45 170.35 235.85 L171.4 234.5 172.7 234.5 M166.7 234.5 L166.7 243.1 165.1 243.1 165.1 236.9 162.95 238.15 162.95 236.65 Q163.6 236.45 164.35 235.85 L165.4 234.5 166.7 234.5" fill="#e6e6e6" fill-rule="evenodd" stroke="none"/>
    <path d="M193.95 238.0 L193.95 236.5 195.35 235.7 196.4 234.35 197.7 234.35 197.7 242.95 196.1 242.95 196.1 236.75 Q195.15 237.6 193.95 238.0 M204.8 235.1 Q205.4 235.75 205.4 236.55 205.4 237.65 204.2 238.35 204.9 238.5 205.35 239.05 L205.8 240.35 Q205.8 241.5 205.0 242.3 204.15 243.1 202.95 243.1 201.75 243.1 201.0 242.45 200.2 241.75 200.1 240.65 L201.7 240.5 Q201.75 241.1 202.1 241.4 202.45 241.75 202.9 241.75 L203.8 241.35 204.1 240.3 203.8 239.3 Q203.45 238.95 202.95 238.95 L202.2 239.1 202.4 237.75 203.4 237.45 Q203.75 237.15 203.75 236.65 L203.5 235.95 Q203.25 235.7 202.85 235.7 202.4 235.7 202.1 235.95 201.8 236.25 201.75 236.85 L200.2 236.55 Q200.4 235.8 200.7 235.35 L201.6 234.6 202.85 234.35 Q204.1 234.35 204.8 235.1" fill="#e6e6e6" fill-rule="evenodd" stroke="none"/>
    <path d="M228.35 234.35 L229.65 234.35 229.65 242.95 228.05 242.95 228.05 236.75 Q227.1 237.6 225.9 238.0 L225.9 236.5 227.3 235.7 228.35 234.35 M233.75 240.55 Q233.85 241.15 234.2 241.45 234.55 241.8 235.0 241.8 235.5 241.8 235.85 241.35 236.2 240.95 236.2 240.1 236.2 239.3 235.85 238.9 235.5 238.5 234.95 238.5 234.25 238.5 233.65 239.15 L232.35 238.95 233.2 234.5 237.55 234.5 237.55 236.0 234.4 236.0 234.15 237.5 Q234.7 237.2 235.3 237.2 236.4 237.2 237.15 238.0 237.9 238.8 237.9 240.05 237.9 241.15 237.3 241.95 236.45 243.1 234.95 243.1 233.8 243.1 233.05 242.45 232.3 241.8 232.15 240.75 L233.75 240.55" fill="#e6e6e6" fill-rule="evenodd" stroke="none"/>
    <path d="M270.75 235.8 Q270.05 236.5 269.3 237.8 268.6 239.05 268.25 240.5 267.85 241.95 267.85 243.1 L266.25 243.1 Q266.3 241.3 267.0 239.45 267.7 237.6 268.85 236.15 L265.1 236.15 265.1 234.65 270.75 234.65 270.75 235.8 M262.65 234.5 L262.65 243.1 261.05 243.1 261.05 236.9 Q260.1 237.75 258.9 238.15 L258.9 236.65 260.3 235.85 Q261.05 235.25 261.35 234.5 L262.65 234.5" fill="#e6e6e6" fill-rule="evenodd" stroke="none"/>
    <path d="M301.4 235.35 Q302.2 236.35 302.2 238.65 302.2 241.0 301.35 242.05 300.45 243.1 299.05 243.1 298.05 243.1 297.45 242.55 296.8 242.05 296.65 240.95 L298.25 240.8 298.55 241.5 Q298.8 241.75 299.2 241.75 299.7 241.75 300.05 241.25 L300.5 239.35 Q299.9 240.05 298.95 240.05 297.95 240.05 297.2 239.25 296.5 238.5 296.5 237.25 296.5 235.9 297.25 235.15 298.05 234.35 299.25 234.35 300.55 234.35 301.4 235.35 M294.15 234.35 L294.15 242.95 292.55 242.95 292.55 236.75 290.4 238.0 290.4 236.5 291.8 235.7 Q292.55 235.1 292.85 234.35 L294.15 234.35 M300.35 237.35 Q300.35 236.55 300.0 236.15 299.65 235.7 299.15 235.7 298.7 235.7 298.4 236.05 298.1 236.4 298.1 237.25 298.1 238.05 298.45 238.45 298.75 238.85 299.25 238.85 299.7 238.85 300.05 238.45 L300.35 237.35" fill="#e6e6e6" fill-rule="evenodd" stroke="none"/>
    <path d="M333.8 234.5 L333.8 243.1 332.2 243.1 332.2 236.9 330.05 238.15 330.05 236.65 331.45 235.85 332.5 234.5 333.8 234.5 M324.95 236.15 Q324.65 236.45 324.6 237.2 L322.95 237.0 Q323.1 235.65 323.85 235.05 324.65 234.5 325.8 234.5 327.05 234.5 327.8 235.15 328.5 235.85 328.5 236.85 L328.3 237.95 327.65 239.05 326.6 240.15 325.6 241.1 325.25 241.55 328.5 241.55 328.5 243.1 322.75 243.1 Q322.85 242.25 323.3 241.45 L325.15 239.4 326.55 238.0 326.85 237.0 326.6 236.15 Q326.3 235.85 325.75 235.85 325.25 235.85 324.95 236.15" fill="#e6e6e6" fill-rule="evenodd" stroke="none"/>
    <path d="M363.05 235.95 Q362.75 236.25 362.7 236.85 L361.15 236.55 361.65 235.35 362.55 234.6 363.8 234.35 Q365.05 234.35 365.75 235.1 366.35 235.75 366.35 236.55 366.35 237.65 365.15 238.35 L366.3 239.05 Q366.75 239.6 366.75 240.35 366.75 241.5 365.95 242.3 365.1 243.1 363.9 243.1 362.7 243.1 361.95 242.45 361.15 241.75 361.05 240.65 L362.65 240.5 Q362.7 241.1 363.05 241.4 363.4 241.75 363.85 241.75 364.35 241.75 364.75 241.35 L365.05 240.3 364.75 239.3 Q364.4 238.95 363.9 238.95 L363.15 239.1 363.35 237.75 364.35 237.45 Q364.7 237.15 364.7 236.65 L364.45 235.95 Q364.2 235.7 363.8 235.7 363.35 235.7 363.05 235.95 M360.0 236.7 L359.8 237.8 359.15 238.9 358.1 240.0 357.1 240.95 356.75 241.4 360.0 241.4 360.0 242.95 354.25 242.95 Q354.35 242.1 354.8 241.3 L356.65 239.25 358.05 237.85 358.35 236.85 358.1 236.0 357.25 235.7 Q356.75 235.7 356.45 236.0 356.15 236.3 356.1 237.05 L354.45 236.85 Q354.6 235.5 355.35 234.9 356.15 234.35 357.3 234.35 358.55 234.35 359.3 235.0 360.0 235.7 360.0 236.7" fill="#e6e6e6" fill-rule="evenodd" stroke="none"/>
    <path d="M389.75 235.7 Q389.25 235.7 388.95 236.0 388.65 236.3 388.6 237.05 L386.95 236.85 Q387.1 235.5 387.85 234.9 388.65 234.35 389.8 234.35 391.05 234.35 391.8 235.0 392.5 235.7 392.5 236.7 L392.3 237.8 391.65 238.9 390.6 240.0 389.6 240.95 389.25 241.4 392.5 241.4 392.5 242.95 386.75 242.95 Q386.85 242.1 387.3 241.3 L389.15 239.25 390.55 237.85 390.85 236.85 390.6 236.0 Q390.3 235.7 389.75 235.7 M398.65 238.0 Q399.4 238.8 399.4 240.05 399.4 241.15 398.8 241.95 397.95 243.1 396.45 243.1 395.3 243.1 394.55 242.45 393.8 241.8 393.65 240.75 L395.25 240.55 Q395.35 241.15 395.7 241.45 396.05 241.8 396.5 241.8 397.0 241.8 397.35 241.35 397.7 240.95 397.7 240.1 397.7 239.3 397.35 238.9 397.0 238.5 396.45 238.5 395.75 238.5 395.15 239.15 L393.85 238.95 394.7 234.5 399.05 234.5 399.05 236.0 395.9 236.0 395.65 237.5 396.8 237.2 Q397.9 237.2 398.65 238.0" fill="#e6e6e6" fill-rule="evenodd" stroke="none"/>
    <path d="M431.25 234.65 L431.25 235.8 429.8 237.8 Q429.1 239.05 428.75 240.5 428.35 241.95 428.35 243.1 L426.75 243.1 Q426.8 241.3 427.5 239.45 428.2 237.6 429.35 236.15 L425.6 236.15 425.6 234.65 431.25 234.65 M423.8 235.15 Q424.5 235.85 424.5 236.85 L424.3 237.95 423.65 239.05 422.6 240.15 421.6 241.1 421.25 241.55 424.5 241.55 424.5 243.1 418.75 243.1 Q418.85 242.25 419.3 241.45 L421.15 239.4 422.55 238.0 422.85 237.0 422.6 236.15 Q422.3 235.85 421.75 235.85 421.25 235.85 420.95 236.15 420.65 236.45 420.6 237.2 L418.95 237.0 Q419.1 235.65 419.85 235.05 420.65 234.5 421.8 234.5 423.05 234.5 423.8 235.15" fill="#e6e6e6" fill-rule="evenodd" stroke="none"/>
    <path d="M455.8 235.0 Q456.5 235.7 456.5 236.7 L456.3 237.8 455.65 238.9 454.6 240.0 453.6 240.95 453.25 241.4 456.5 241.4 456.5 242.95 450.75 242.95 Q450.85 242.1 451.3 241.3 L453.15 239.25 454.55 237.85 454.85 236.85 454.6 236.0 Q454.3 235.7 453.75 235.7 453.25 235.7 452.95 236.0 452.65 236.3 452.6 237.05 L450.95 236.85 Q451.1 235.5 451.85 234.9 452.65 234.35 453.8 234.35 455.05 234.35 455.8 235.0 M460.15 235.7 Q459.7 235.7 459.4 236.05 459.1 236.4 459.1 237.25 459.1 238.05 459.45 238.45 459.75 238.85 460.25 238.85 460.7 238.85 461.05 238.45 L461.35 237.35 Q461.35 236.55 461.0 236.15 L460.15 235.7 M457.5 237.25 Q457.5 235.9 458.25 235.15 459.05 234.35 460.25 234.35 461.55 234.35 462.4 235.35 463.2 236.35 463.2 238.65 463.2 241.0 462.35 242.05 461.45 243.1 460.05 243.1 459.05 243.1 458.45 242.55 457.8 242.05 457.65 240.95 L459.25 240.8 459.55 241.5 460.2 241.75 Q460.7 241.75 461.05 241.25 461.4 240.8 461.5 239.35 460.9 240.05 459.95 240.05 458.95 240.05 458.2 239.25 457.5 238.5 457.5 237.25" fill="#e6e6e6" fill-rule="evenodd" stroke="none"/>
    <path d="M494.2 234.35 L494.2 242.95 492.6 242.95 492.6 236.75 490.45 238.0 490.45 236.5 491.85 235.7 492.9 234.35 494.2 234.35 M488.0 235.1 Q488.6 235.75 488.6 236.55 488.6 237.65 487.4 238.35 L488.55 239.05 Q489.0 239.6 489.0 240.35 489.0 241.5 488.2 242.3 487.35 243.1 486.15 243.1 484.95 243.1 484.2 242.45 483.4 241.75 483.3 240.65 L484.9 240.5 Q484.95 241.1 485.3 241.4 L486.1 241.75 Q486.6 241.75 487.0 241.35 L487.3 240.3 487.0 239.3 Q486.65 238.95 486.15 238.95 L485.4 239.1 485.6 237.75 486.6 237.45 486.95 236.65 486.7 235.95 486.05 235.7 Q485.6 235.7 485.3 235.95 485.0 236.25 484.95 236.85 L483.4 236.55 483.9 235.35 Q484.2 234.85 484.8 234.6 L486.05 234.35 Q487.3 234.35 488.0 235.1" fill="#e6e6e6" fill-rule="evenodd" stroke="none"/>
    <path d="M56.9 234.5 L58.3 234.5 58.3 239.9 59.35 239.9 59.35 241.35 58.3 241.35 58.3 243.1 56.7 243.1 56.7 241.35 53.15 241.35 53.15 239.95 56.9 234.5 M56.7 239.9 L56.7 237.0 54.7 239.9 56.7 239.9" fill="#ffffff" fill-rule="evenodd" stroke="none"/>
    <path d="M88.6 234.35 Q89.6 234.35 90.2 234.9 90.85 235.4 91.05 236.45 L89.45 236.65 89.15 235.9 88.5 235.7 Q88.0 235.7 87.6 236.15 87.25 236.6 87.15 238.1 87.8 237.35 88.7 237.35 89.75 237.35 90.45 238.15 91.2 238.95 91.2 240.2 91.2 241.5 90.4 242.3 89.65 243.1 88.45 243.1 87.15 243.1 86.3 242.1 85.45 241.1 85.45 238.75 85.45 236.4 86.35 235.35 87.2 234.35 88.6 234.35 M87.65 238.95 Q87.3 239.35 87.3 240.05 87.3 240.85 87.65 241.3 88.05 241.75 88.5 241.75 89.0 241.75 89.3 241.35 L89.6 240.2 Q89.6 239.35 89.25 239.0 88.95 238.6 88.45 238.6 87.95 238.6 87.65 238.95" fill="#ffffff" fill-rule="evenodd" stroke="none"/>
    <path d="M122.15 234.95 Q122.8 235.6 122.8 236.55 L122.5 237.6 121.65 238.3 122.7 239.15 Q123.1 239.7 123.1 240.4 123.1 241.6 122.35 242.35 121.55 243.1 120.3 243.1 119.15 243.1 118.35 242.5 117.45 241.75 117.45 240.5 117.45 239.8 117.8 239.2 L118.85 238.3 117.95 237.6 Q117.65 237.1 117.65 236.55 117.65 235.6 118.35 234.95 119.0 234.35 120.25 234.35 121.45 234.35 122.15 234.95 M119.5 235.9 Q119.2 236.2 119.2 236.65 119.2 237.15 119.5 237.4 119.75 237.7 120.25 237.7 120.7 237.7 121.0 237.4 L121.25 236.65 121.0 235.9 120.25 235.65 Q119.75 235.65 119.5 235.9 M119.05 240.35 Q119.05 241.0 119.4 241.4 119.75 241.8 120.3 241.8 120.8 241.8 121.1 241.4 121.45 241.05 121.45 240.35 121.45 239.75 121.1 239.4 120.8 239.0 120.25 239.0 119.65 239.0 119.35 239.45 119.05 239.85 119.05 240.35" fill="#ffffff" fill-rule="evenodd" stroke="none"/>
    <path d="M157.7 238.7 Q157.7 241.15 156.85 242.2 156.15 243.1 154.9 243.1 153.65 243.1 152.85 242.15 152.1 241.15 152.1 238.7 152.1 236.25 152.95 235.2 153.65 234.35 154.9 234.35 156.15 234.35 156.85 235.2 157.7 236.25 157.7 238.7 M155.8 236.65 L155.45 235.9 154.9 235.7 Q154.6 235.7 154.35 235.9 L154.0 236.55 Q153.85 237.2 153.85 238.7 153.85 240.25 154.0 240.8 L154.35 241.55 Q154.6 241.75 154.9 241.75 L155.45 241.55 155.8 240.85 155.95 238.7 155.8 236.65 M148.35 234.35 L149.65 234.35 149.65 242.95 148.05 242.95 148.05 236.75 Q147.1 237.6 145.9 238.0 L145.9 236.5 147.3 235.7 148.35 234.35" fill="#ffffff" fill-rule="evenodd" stroke="none"/>
    <path d="M188.95 235.15 Q189.65 235.85 189.65 236.85 L189.45 237.95 188.8 239.05 187.75 240.15 186.75 241.1 186.4 241.55 189.65 241.55 189.65 243.1 183.9 243.1 Q184.0 242.25 184.45 241.45 L186.3 239.4 187.7 238.0 188.0 237.0 187.75 236.15 Q187.45 235.85 186.9 235.85 186.4 235.85 186.1 236.15 185.8 236.45 185.75 237.2 L184.1 237.0 Q184.25 235.65 185.0 235.05 185.8 234.5 186.95 234.5 188.2 234.5 188.95 235.15 M181.65 234.5 L181.65 243.1 180.05 243.1 180.05 236.9 177.9 238.15 177.9 236.65 179.3 235.85 180.35 234.5 181.65 234.5" fill="#ffffff" fill-rule="evenodd" stroke="none"/>
    <path d="M220.95 234.5 L220.95 239.9 222.0 239.9 222.0 241.35 220.95 241.35 220.95 243.1 219.35 243.1 219.35 241.35 215.8 241.35 215.8 239.95 219.55 234.5 220.95 234.5 M209.9 236.65 L211.3 235.85 212.35 234.5 213.65 234.5 213.65 243.1 212.05 243.1 212.05 236.9 209.9 238.15 209.9 236.65 M219.35 239.9 L219.35 237.0 217.35 239.9 219.35 239.9" fill="#ffffff" fill-rule="evenodd" stroke="none"/>
    <path d="M251.75 234.35 Q252.75 234.35 253.35 234.9 254.0 235.4 254.2 236.45 L252.6 236.65 252.3 235.9 251.65 235.7 Q251.15 235.7 250.75 236.15 250.4 236.6 250.3 238.1 250.95 237.35 251.85 237.35 252.9 237.35 253.6 238.15 254.35 238.95 254.35 240.2 254.35 241.5 253.55 242.3 252.8 243.1 251.6 243.1 250.3 243.1 249.45 242.1 248.6 241.1 248.6 238.75 248.6 236.4 249.5 235.35 250.35 234.35 251.75 234.35 M246.15 234.35 L246.15 242.95 244.55 242.95 244.55 236.75 242.4 238.0 242.4 236.5 Q243.05 236.3 243.8 235.7 L244.85 234.35 246.15 234.35 M251.6 238.6 Q251.1 238.6 250.8 238.95 250.45 239.35 250.45 240.05 250.45 240.85 250.8 241.3 251.2 241.75 251.65 241.75 252.15 241.75 252.45 241.35 L252.75 240.2 Q252.75 239.35 252.4 239.0 252.1 238.6 251.6 238.6" fill="#ffffff" fill-rule="evenodd" stroke="none"/>
    <path d="M282.35 236.65 Q282.35 237.15 282.65 237.4 282.9 237.7 283.4 237.7 L284.15 237.4 284.4 236.65 284.15 235.9 Q283.85 235.65 283.4 235.65 282.9 235.65 282.65 235.9 282.35 236.2 282.35 236.65 M285.65 237.6 L284.8 238.3 285.85 239.15 Q286.25 239.7 286.25 240.4 286.25 241.6 285.5 242.35 284.7 243.1 283.45 243.1 282.3 243.1 281.5 242.5 280.6 241.75 280.6 240.5 280.6 239.8 280.95 239.2 L282.0 238.3 Q281.4 238.05 281.1 237.6 280.8 237.1 280.8 236.55 280.8 235.6 281.5 234.95 282.15 234.35 283.4 234.35 284.6 234.35 285.3 234.95 285.95 235.6 285.95 236.55 L285.65 237.6 M278.15 234.35 L278.15 242.95 276.55 242.95 276.55 236.75 Q275.6 237.6 274.4 238.0 L274.4 236.5 Q275.05 236.3 275.8 235.7 L276.85 234.35 278.15 234.35 M284.25 239.4 Q283.95 239.0 283.4 239.0 282.8 239.0 282.5 239.45 282.2 239.85 282.2 240.35 282.2 241.0 282.55 241.4 282.9 241.8 283.45 241.8 283.95 241.8 284.25 241.4 284.6 241.05 284.6 240.35 284.6 239.75 284.25 239.4" fill="#ffffff" fill-rule="evenodd" stroke="none"/>
    <path d="M315.9 234.35 Q317.15 234.35 317.85 235.2 318.7 236.25 318.7 238.7 318.7 241.15 317.85 242.2 317.15 243.1 315.9 243.1 314.65 243.1 313.85 242.15 313.1 241.15 313.1 238.7 313.1 236.25 313.95 235.2 314.65 234.35 315.9 234.35 M315.9 235.7 L315.35 235.9 315.0 236.55 Q314.85 237.2 314.85 238.7 314.85 240.25 315.0 240.8 L315.35 241.55 315.9 241.75 316.45 241.55 316.8 240.85 316.95 238.7 316.8 236.65 316.45 235.9 315.9 235.7 M311.8 237.8 L311.15 238.9 310.1 240.0 309.1 240.95 308.75 241.4 312.0 241.4 312.0 242.95 306.25 242.95 Q306.35 242.1 306.8 241.3 L308.65 239.25 310.05 237.85 310.35 236.85 310.1 236.0 Q309.8 235.7 309.25 235.7 308.75 235.7 308.45 236.0 308.15 236.3 308.1 237.05 L306.45 236.85 Q306.6 235.5 307.35 234.9 308.15 234.35 309.3 234.35 310.55 234.35 311.3 235.0 312.0 235.7 312.0 236.7 L311.8 237.8" fill="#ffffff" fill-rule="evenodd" stroke="none"/>
    <path d="M348.8 239.05 L347.75 240.15 346.75 241.1 346.4 241.55 349.65 241.55 349.65 243.1 343.9 243.1 Q344.0 242.25 344.45 241.45 344.95 240.7 346.3 239.4 L347.7 238.0 348.0 237.0 347.75 236.15 Q347.45 235.85 346.9 235.85 346.4 235.85 346.1 236.15 345.8 236.45 345.75 237.2 L344.1 237.0 Q344.25 235.65 345.0 235.05 345.8 234.5 346.95 234.5 348.2 234.5 348.95 235.15 349.65 235.85 349.65 236.85 L349.45 237.95 348.8 239.05 M342.8 237.95 L342.15 239.05 341.1 240.15 340.1 241.1 339.75 241.55 343.0 241.55 343.0 243.1 337.25 243.1 Q337.35 242.25 337.8 241.45 L339.65 239.4 341.05 238.0 341.35 237.0 341.1 236.15 Q340.8 235.85 340.25 235.85 339.75 235.85 339.45 236.15 339.15 236.45 339.1 237.2 L337.45 237.0 Q337.6 235.65 338.35 235.05 339.15 234.5 340.3 234.5 341.55 234.5 342.3 235.15 343.0 235.85 343.0 236.85 L342.8 237.95" fill="#ffffff" fill-rule="evenodd" stroke="none"/>
    <path d="M382.45 234.5 L382.45 239.9 383.5 239.9 383.5 241.35 382.45 241.35 382.45 243.1 380.85 243.1 380.85 241.35 377.3 241.35 377.3 239.95 381.05 234.5 382.45 234.5 M375.8 235.15 Q376.5 235.85 376.5 236.85 L376.3 237.95 375.65 239.05 374.6 240.15 373.6 241.1 373.25 241.55 376.5 241.55 376.5 243.1 370.75 243.1 Q370.85 242.25 371.3 241.45 L373.15 239.4 374.55 238.0 374.85 237.0 374.6 236.15 Q374.3 235.85 373.75 235.85 373.25 235.85 372.95 236.15 372.65 236.45 372.6 237.2 L370.95 237.0 Q371.1 235.65 371.85 235.05 372.65 234.5 373.8 234.5 375.05 234.5 375.8 235.15 M380.85 237.0 L378.85 239.9 380.85 239.9 380.85 237.0" fill="#ffffff" fill-rule="evenodd" stroke="none"/>
    <path d="M412.25 234.35 Q413.25 234.35 413.85 234.9 414.5 235.4 414.7 236.45 L413.1 236.65 412.8 235.9 412.15 235.7 Q411.65 235.7 411.25 236.15 410.9 236.6 410.8 238.1 411.45 237.35 412.35 237.35 413.4 237.35 414.1 238.15 414.85 238.95 414.85 240.2 414.85 241.5 414.05 242.3 413.3 243.1 412.1 243.1 410.8 243.1 409.95 242.1 409.1 241.1 409.1 238.75 409.1 236.4 410.0 235.35 410.85 234.35 412.25 234.35 M405.3 234.35 Q406.55 234.35 407.3 235.0 408.0 235.7 408.0 236.7 L407.8 237.8 407.15 238.9 406.1 240.0 405.1 240.95 404.75 241.4 408.0 241.4 408.0 242.95 402.25 242.95 Q402.35 242.1 402.8 241.3 L404.65 239.25 406.05 237.85 406.35 236.85 406.1 236.0 405.25 235.7 Q404.75 235.7 404.45 236.0 404.15 236.3 404.1 237.05 L402.45 236.85 Q402.6 235.5 403.35 234.9 404.15 234.35 405.3 234.35 M411.3 241.3 Q411.7 241.75 412.15 241.75 412.65 241.75 412.95 241.35 L413.25 240.2 Q413.25 239.35 412.9 239.0 412.6 238.6 412.1 238.6 411.6 238.6 411.3 238.95 410.95 239.35 410.95 240.05 410.95 240.85 411.3 241.3" fill="#ffffff" fill-rule="evenodd" stroke="none"/>
    <path d="M443.9 234.35 Q445.1 234.35 445.8 234.95 446.45 235.6 446.45 236.55 L446.15 237.6 445.3 238.3 446.35 239.15 Q446.75 239.7 446.75 240.4 446.75 241.6 446.0 242.35 445.2 243.1 443.95 243.1 442.8 243.1 442.0 242.5 441.1 241.75 441.1 240.5 441.1 239.8 441.45 239.2 441.8 238.65 442.5 238.3 441.9 238.05 441.6 237.6 441.3 237.1 441.3 236.55 441.3 235.6 442.0 234.95 442.65 234.35 443.9 234.35 M439.3 235.0 Q440.0 235.7 440.0 236.7 L439.8 237.8 439.15 238.9 438.1 240.0 437.1 240.95 436.75 241.4 440.0 241.4 440.0 242.95 434.25 242.95 Q434.35 242.1 434.8 241.3 L436.65 239.25 438.05 237.85 438.35 236.85 438.1 236.0 Q437.8 235.7 437.25 235.7 436.75 235.7 436.45 236.0 436.15 236.3 436.1 237.05 L434.45 236.85 Q434.6 235.5 435.35 234.9 436.15 234.35 437.3 234.35 438.55 234.35 439.3 235.0 M443.15 237.4 Q443.4 237.7 443.9 237.7 L444.65 237.4 444.9 236.65 444.65 235.9 Q444.35 235.65 443.9 235.65 443.4 235.65 443.15 235.9 442.85 236.2 442.85 236.65 442.85 237.15 443.15 237.4 M442.7 240.35 Q442.7 241.0 443.05 241.4 443.4 241.8 443.95 241.8 444.45 241.8 444.75 241.4 445.1 241.05 445.1 240.35 445.1 239.75 444.75 239.4 444.45 239.0 443.9 239.0 443.3 239.0 443.0 239.45 442.7 239.85 442.7 240.35" fill="#ffffff" fill-rule="evenodd" stroke="none"/>
    <path d="M478.15 242.2 Q477.45 243.1 476.2 243.1 474.95 243.1 474.15 242.15 473.4 241.15 473.4 238.7 473.4 236.25 474.25 235.2 474.95 234.35 476.2 234.35 477.45 234.35 478.15 235.2 479.0 236.25 479.0 238.7 479.0 241.15 478.15 242.2 M476.75 235.9 L476.2 235.7 475.65 235.9 475.3 236.55 Q475.15 237.2 475.15 238.7 475.15 240.25 475.3 240.8 L475.65 241.55 476.2 241.75 476.75 241.55 477.1 240.85 477.25 238.7 477.1 236.65 476.75 235.9 M471.4 235.1 Q472.0 235.75 472.0 236.55 472.0 237.65 470.8 238.35 471.5 238.5 471.95 239.05 472.4 239.6 472.4 240.35 472.4 241.5 471.6 242.3 470.75 243.1 469.55 243.1 468.35 243.1 467.6 242.45 466.8 241.75 466.7 240.65 L468.3 240.5 Q468.35 241.1 468.7 241.4 469.05 241.75 469.5 241.75 470.0 241.75 470.4 241.35 L470.7 240.3 470.4 239.3 Q470.05 238.95 469.55 238.95 L468.8 239.1 469.0 237.75 470.0 237.45 470.35 236.65 470.1 235.95 469.45 235.7 Q469.0 235.7 468.7 235.95 468.4 236.25 468.35 236.85 L466.8 236.55 Q467.0 235.8 467.3 235.35 467.6 234.85 468.2 234.6 L469.45 234.35 Q470.7 234.35 471.4 235.1" fill="#ffffff" fill-rule="evenodd" stroke="none"/>
  </g>
</svg>
