<?xml version="1.0" encoding="UTF-8" standalone="no"?>
<svg xmlns:ffdec="https://www.free-decompiler.com/flash" xmlns:xlink="http://www.w3.org/1999/xlink" ffdec:objectType="shape" height="86.85px" width="88.8px" xmlns="http://www.w3.org/2000/svg">
  <g transform="matrix(1.0, 0.0, 0.0, 1.0, 44.4, 43.45)">
    <path d="M13.4 -37.9 Q18.95 -32.35 18.95 -24.5 18.95 -16.7 13.4 -11.15 7.85 -5.6 0.0 -5.6 -7.85 -5.6 -13.4 -11.15 -18.95 -16.7 -18.95 -24.5 -18.95 -32.35 -13.4 -37.9 -7.85 -43.45 0.0 -43.45 7.8 -43.45 13.4 -37.9" fill="#c27a2d" fill-rule="evenodd" stroke="none"/>
    <path d="M-38.85 -13.4 Q-33.3 -18.95 -25.45 -18.95 -17.65 -18.95 -12.1 -13.4 -6.55 -7.85 -6.55 -0.05 -6.55 7.8 -12.1 13.35 -17.65 18.9 -25.45 18.9 -33.3 18.9 -38.85 13.35 -44.4 7.8 -44.4 -0.05 -44.4 -7.85 -38.85 -13.4" fill="#9d1e60" fill-rule="evenodd" stroke="none"/>
    <path d="M44.4 -0.05 Q44.4 7.8 38.85 13.35 33.3 18.9 25.45 18.9 17.6 18.9 12.05 13.35 6.5 7.8 6.5 -0.05 6.5 -7.85 12.05 -13.4 17.6 -18.95 25.45 -18.95 33.25 -18.95 38.85 -13.4 44.4 -7.85 44.4 -0.05" fill="#4a4eb0" fill-rule="evenodd" stroke="none"/>
    <path d="M-13.4 11.05 Q-7.85 5.5 0.0 5.5 7.8 5.5 13.4 11.05 18.95 16.6 18.95 24.45 18.95 32.3 13.4 37.85 7.85 43.4 0.0 43.4 -7.85 43.4 -13.4 37.85 -18.95 32.25 -18.95 24.45 -18.95 16.6 -13.4 11.05" fill="#008546" fill-rule="evenodd" stroke="none"/>
    <path d="M-25.45 -16.9 Q-18.8 -16.9 -14.05 -12.2 -9.35 -7.5 -9.35 -0.8 -9.35 5.85 -14.05 10.55 -18.8 15.25 -25.45 15.25 -32.1 15.25 -36.85 10.55 -41.55 5.85 -41.55 -0.8 -41.55 -7.5 -36.85 -12.2 -32.1 -16.9 -25.45 -16.9" fill="#f5697d" fill-rule="evenodd" stroke="none"/>
    <path d="M-27.55 1.3 Q-26.7 2.15 -25.45 2.15 -24.2 2.15 -23.35 1.3 -22.5 0.45 -22.5 -0.8 -22.5 -2.05 -23.35 -2.95 -24.25 -3.8 -25.45 -3.8 -26.7 -3.8 -27.55 -2.95 -28.45 -2.05 -28.45 -0.8 -28.45 0.45 -27.55 1.3 M-33.5 -6.95 L-31.65 -8.85 -32.55 -10.95 -30.75 -12.0 -29.35 -10.2 -26.8 -10.85 -26.5 -13.15 -24.4 -13.15 -24.1 -10.85 -21.55 -10.2 -20.15 -12.0 -18.4 -10.95 -19.25 -8.85 -17.35 -7.0 -15.3 -7.85 -14.25 -6.05 -16.05 -4.7 -15.35 -2.1 -13.15 -1.85 -13.15 0.25 -15.35 0.55 -16.05 3.1 -14.3 4.45 -15.35 6.25 -17.35 5.4 -19.25 7.3 -18.4 9.3 Q-19.25 9.95 -20.2 10.35 L-21.55 8.6 -24.1 9.3 -24.4 11.5 -26.45 11.5 -26.75 9.3 -29.3 8.65 -30.65 10.4 -32.5 9.35 -31.65 7.3 -33.5 5.45 -35.55 6.3 -36.6 4.5 -34.85 3.15 -35.55 0.55 -37.75 0.25 -37.8 -1.8 -35.55 -2.1 -34.85 -4.65 -36.65 -6.05 -35.65 -7.85 -33.5 -6.95" fill="#ffffff" fill-rule="evenodd" stroke="none"/>
    <path d="M41.55 -0.8 Q41.55 5.85 36.85 10.55 32.1 15.25 25.45 15.25 18.8 15.25 14.05 10.55 9.35 5.85 9.35 -0.8 9.35 -7.5 14.05 -12.2 18.8 -16.9 25.45 -16.9 32.1 -16.9 36.85 -12.2 41.55 -7.5 41.55 -0.8" fill="#59b6f2" fill-rule="evenodd" stroke="none"/>
    <path d="M20.1 0.1 Q20.5 2.35 22.35 3.6 24.2 4.9 26.4 4.5 28.6 4.1 29.9 2.3 31.2 0.45 30.8 -1.75 30.4 -4.0 28.55 -5.25 26.7 -6.55 24.5 -6.15 22.3 -5.75 21.0 -3.95 19.7 -2.1 20.1 0.1 M15.1 3.25 Q13.75 2.0 12.7 0.45 L11.9 -0.8 Q12.95 -2.85 15.1 -4.85 19.5 -8.95 25.45 -8.95 31.4 -8.95 35.8 -4.85 38.0 -2.85 39.0 -0.8 38.0 1.2 35.8 3.25 31.4 7.3 25.45 7.3 19.5 7.3 15.1 3.25" fill="#ffffff" fill-rule="evenodd" stroke="none"/>
    <path d="M16.1 -25.3 Q16.1 -18.65 11.4 -13.9 6.65 -9.2 0.0 -9.2 -6.65 -9.2 -11.4 -13.9 -16.1 -18.65 -16.1 -25.3 -16.1 -31.95 -11.4 -36.65 -6.65 -41.4 0.0 -41.4 6.65 -41.4 11.4 -36.65 16.1 -31.95 16.1 -25.3" fill="#ffe86e" fill-rule="evenodd" stroke="none"/>
    <path d="M-9.75 -30.5 L-7.45 -30.5 -7.45 -20.25 -10.3 -20.25 -10.3 -26.95 -11.6 -26.15 Q-12.2 -25.8 -13.2 -25.5 L-13.2 -27.8 Q-11.8 -28.25 -11.0 -28.9 -10.2 -29.55 -9.75 -30.5" fill="#ffffff" fill-rule="evenodd" stroke="none"/>
    <path d="M3.15 -25.8 Q2.6 -24.95 1.2 -23.95 L0.1 -23.15 -0.6 -22.55 3.8 -22.55 3.8 -20.25 -4.6 -20.25 Q-4.45 -21.55 -3.75 -22.6 -3.05 -23.65 -1.0 -25.2 L0.6 -26.55 0.9 -27.45 0.6 -28.25 -0.25 -28.6 -1.15 -28.25 -1.6 -27.05 -4.4 -27.3 -3.8 -29.15 -2.55 -30.15 -0.35 -30.5 1.95 -30.15 3.25 -29.15 Q3.7 -28.45 3.7 -27.55 3.7 -26.6 3.15 -25.8" fill="#ffffff" fill-rule="evenodd" stroke="none"/>
    <path d="M4.9 -22.9 L7.7 -23.3 Q7.85 -22.45 8.2 -22.1 8.6 -21.8 9.1 -21.8 9.65 -21.8 10.0 -22.2 10.4 -22.6 10.4 -23.3 L10.05 -24.4 Q9.65 -24.8 9.05 -24.8 L8.15 -24.6 8.3 -26.6 8.65 -26.55 Q9.15 -26.55 9.55 -26.9 9.95 -27.3 9.95 -27.75 L9.65 -28.5 8.9 -28.75 Q8.4 -28.75 8.1 -28.45 7.8 -28.2 7.7 -27.4 L5.05 -27.9 Q5.4 -29.15 6.3 -29.85 7.25 -30.5 8.95 -30.5 10.9 -30.5 11.8 -29.75 12.7 -29.05 12.7 -27.9 L12.35 -26.75 Q11.95 -26.2 11.25 -25.8 L12.15 -25.5 12.9 -24.65 13.2 -23.45 Q13.2 -22.65 12.75 -21.75 12.25 -20.95 11.4 -20.55 L9.15 -20.1 7.0 -20.4 5.7 -21.35 Q5.15 -22.0 4.9 -22.9" fill="#ffffff" fill-rule="evenodd" stroke="none"/>
    <path d="M-11.4 12.3 Q-6.65 7.55 0.0 7.55 6.65 7.55 11.4 12.3 16.1 17.0 16.1 23.65 16.1 30.3 11.4 35.05 6.65 39.75 0.0 39.75 -6.65 39.75 -11.4 35.05 -16.1 30.3 -16.1 23.65 -16.1 17.0 -11.4 12.3" fill="#6ee087" fill-rule="evenodd" stroke="none"/>
    <path d="M-7.7 31.15 L-9.6 15.65 4.75 13.9 6.7 29.35 -7.7 31.15" fill="#ffffff" fill-rule="evenodd" stroke="none"/>
    <path d="M-4.75 33.4 L-7.7 31.15 -5.8 30.9 -4.15 32.2 8.35 30.65 6.55 16.3 7.7 16.15 9.6 31.65 -4.75 33.4" fill="#ffffff" fill-rule="evenodd" stroke="none"/>
  </g>
</svg>
