<?xml version="1.0" encoding="UTF-8" standalone="no"?>
<svg xmlns:ffdec="https://www.free-decompiler.com/flash" xmlns:xlink="http://www.w3.org/1999/xlink" ffdec:objectType="shape" height="326.05px" width="325.05px" xmlns="http://www.w3.org/2000/svg">
  <g transform="matrix(1.0, 0.0, 0.0, 1.0, 162.55, 163.05)">
    <path d="M157.0 -120.05 Q151.6 -114.65 144.0 -114.65 L-108.25 -114.65 Q-111.55 -110.35 -116.35 -107.45 -123.5 -103.05 -131.95 -103.05 -144.35 -103.05 -153.15 -111.85 -161.95 -120.65 -161.95 -133.05 -161.95 -145.5 -153.15 -154.3 -144.35 -163.05 -131.95 -163.05 -123.5 -163.05 -116.35 -158.7 -111.55 -155.8 -108.25 -151.5 L144.0 -151.5 Q151.6 -151.5 157.0 -146.1 162.4 -140.7 162.4 -133.1 162.4 -125.45 157.0 -120.05 M-133.4 -150.75 L-133.85 -147.5 -137.5 -146.5 -139.5 -149.1 -142.1 -147.65 -140.8 -144.6 -143.5 -141.9 -146.55 -143.15 -148.05 -140.6 -145.4 -138.6 -146.4 -134.9 -149.65 -134.5 -149.6 -131.5 -146.4 -131.1 -145.4 -127.4 -147.95 -125.45 -146.45 -122.85 -143.5 -124.1 -140.8 -121.4 -142.0 -118.45 -139.4 -116.95 -137.5 -119.5 -133.8 -118.5 -133.4 -115.4 Q-132.1 -115.25 -130.4 -115.4 L-130.0 -118.5 -126.3 -119.5 -124.4 -117.0 -121.8 -118.5 -123.0 -121.4 -120.3 -124.1 -117.4 -122.9 Q-116.5 -124.2 -115.9 -125.5 L-118.4 -127.45 -117.4 -131.1 -114.25 -131.55 Q-114.1 -133.05 -114.25 -134.55 L-117.4 -134.95 -118.4 -138.6 -115.85 -140.55 -117.35 -143.15 -120.3 -141.9 -123.0 -144.6 -121.75 -147.6 -124.35 -149.1 -126.35 -146.5 -130.0 -147.5 -130.45 -150.75 -133.4 -150.75 M-136.25 -133.05 Q-136.25 -134.85 -135.0 -136.1 -133.7 -137.35 -131.95 -137.35 -130.15 -137.35 -128.9 -136.1 -127.65 -134.85 -127.65 -133.05 -127.65 -131.3 -128.9 -130.05 -130.15 -128.8 -131.95 -128.8 -133.7 -128.8 -135.0 -130.05 -136.25 -131.3 -136.25 -133.05" fill="#f5807d" fill-rule="evenodd" stroke="none"/>
    <path d="M144.0 -64.15 Q151.6 -64.15 157.0 -58.75 162.4 -53.35 162.4 -45.75 162.4 -38.1 157.0 -32.7 151.6 -27.3 144.0 -27.3 L-108.55 -27.3 Q-111.85 -23.15 -116.6 -20.3 -123.65 -16.05 -131.95 -16.05 -144.4 -16.05 -153.15 -24.85 -161.95 -33.65 -161.95 -46.05 -161.95 -58.5 -153.15 -67.3 -144.4 -76.05 -131.95 -76.05 -123.35 -76.05 -116.1 -71.55 -111.3 -68.55 -108.0 -64.15 L144.0 -64.15 M-131.0 -51.0 Q-130.4 -50.45 -130.4 -49.7 -130.4 -49.0 -131.0 -48.2 -131.55 -47.35 -133.6 -45.9 -136.95 -43.4 -138.15 -41.6 -139.4 -39.75 -139.6 -37.7 L-125.65 -37.7 -125.65 -41.5 -132.95 -41.5 -131.8 -42.5 -129.95 -43.85 Q-127.55 -45.5 -126.65 -46.9 -125.8 -48.35 -125.8 -49.85 -125.8 -51.3 -126.55 -52.45 -127.35 -53.6 -128.7 -54.15 -130.05 -54.7 -132.55 -54.7 -134.9 -54.7 -136.2 -54.15 -137.6 -53.5 -138.25 -52.45 -139.0 -51.4 -139.3 -49.4 L-134.6 -49.0 Q-134.4 -50.45 -133.85 -51.0 -133.25 -51.55 -132.4 -51.55 -131.55 -51.55 -131.0 -51.0 M-150.25 -52.05 Q-151.6 -51.0 -153.95 -50.25 L-153.95 -46.4 -151.25 -47.45 Q-150.1 -48.05 -149.05 -48.85 L-149.05 -37.7 -144.35 -37.7 -144.35 -54.7 -148.2 -54.7 Q-148.95 -53.15 -150.25 -52.05 M-115.85 -51.4 Q-115.4 -50.9 -115.4 -50.15 -115.4 -49.35 -116.05 -48.75 -116.65 -48.2 -117.55 -48.2 L-118.15 -48.25 -118.4 -44.9 -116.9 -45.2 Q-115.85 -45.2 -115.25 -44.55 -114.65 -43.9 -114.65 -42.75 -114.65 -41.6 -115.3 -40.9 -115.9 -40.25 -116.85 -40.25 -117.75 -40.25 -118.3 -40.8 -118.9 -41.35 -119.15 -42.75 L-123.8 -42.1 Q-123.4 -40.65 -122.5 -39.5 -121.75 -38.55 -120.45 -38.0 L-120.35 -37.95 Q-119.0 -37.4 -116.75 -37.4 -114.35 -37.4 -112.95 -38.15 -111.55 -38.85 -110.75 -40.2 -110.0 -41.55 -110.0 -43.0 -110.0 -44.15 -110.45 -45.0 -110.85 -45.8 -111.75 -46.35 -112.35 -46.7 -113.2 -46.9 -112.0 -47.6 -111.45 -48.45 -110.85 -49.3 -110.85 -50.45 -110.85 -52.3 -112.3 -53.5 -113.75 -54.7 -117.05 -54.7 L-120.45 -54.15 -121.45 -53.6 Q-123.0 -52.5 -123.55 -50.4 L-119.15 -49.6 Q-118.95 -50.85 -118.45 -51.35 -117.9 -51.85 -117.15 -51.85 -116.35 -51.85 -115.85 -51.4" fill="#ffe86e" fill-rule="evenodd" stroke="none"/>
    <path d="M144.1 28.4 Q151.7 28.4 157.1 33.8 162.5 39.2 162.5 46.8 162.5 54.45 157.1 59.85 151.7 65.25 144.1 65.25 L-110.05 65.25 Q-113.25 68.8 -117.5 71.25 -124.45 75.2 -132.45 75.2 -144.85 75.2 -153.65 66.4 -162.45 57.6 -162.45 45.2 -162.45 32.75 -153.65 24.0 -144.85 15.2 -132.45 15.2 -123.55 15.2 -116.15 20.0 -110.95 23.4 -107.6 28.4 L144.1 28.4 M-124.6 29.1 L-148.25 32.05 -145.1 57.55 -140.3 61.3 -116.6 58.35 -119.75 32.85 -121.6 33.1 -118.65 56.75 -139.2 59.3 -141.95 57.15 -121.4 54.6 -124.6 29.1" fill="#6edb87" fill-rule="evenodd" stroke="none"/>
    <path d="M144.0 116.2 Q151.6 116.2 157.0 121.6 162.4 127.0 162.4 134.6 162.4 142.25 157.0 147.65 151.6 153.05 144.0 153.05 L-110.15 153.05 Q-113.35 156.6 -117.6 159.05 -124.55 163.0 -132.55 163.0 -144.95 163.0 -153.75 154.2 -162.55 145.4 -162.55 133.0 -162.55 120.55 -153.75 111.8 -144.95 103.0 -132.55 103.0 -123.65 103.0 -116.25 107.8 -111.05 111.2 -107.7 116.2 L144.0 116.2 M-111.55 133.0 Q-113.1 129.85 -116.5 126.75 -123.25 120.5 -132.35 120.5 -141.45 120.5 -148.25 126.75 -151.6 129.85 -153.2 133.0 L-152.0 134.95 Q-150.35 137.3 -148.25 139.25 -141.45 145.5 -132.35 145.5 -123.25 145.5 -116.5 139.25 -114.35 137.3 -112.75 134.95 L-111.55 133.0 M-137.15 139.8 Q-139.95 137.85 -140.55 134.45 -141.15 131.05 -139.2 128.2 -137.2 125.4 -133.8 124.8 -130.4 124.2 -127.6 126.15 -124.75 128.15 -124.15 131.55 -123.55 134.95 -125.55 137.75 -127.5 140.6 -130.9 141.2 -134.3 141.8 -137.15 139.8" fill="#82b6e2" fill-rule="evenodd" stroke="none"/>
    <path d="M-136.25 -133.05 Q-136.25 -131.3 -135.0 -130.05 -133.7 -128.8 -131.95 -128.8 -130.15 -128.8 -128.9 -130.05 -127.65 -131.3 -127.65 -133.05 -127.65 -134.85 -128.9 -136.1 -130.15 -137.35 -131.95 -137.35 -133.7 -137.35 -135.0 -136.1 -136.25 -134.85 -136.25 -133.05 M-133.4 -150.75 L-130.45 -150.75 -130.0 -147.5 -126.35 -146.5 -124.35 -149.1 -121.75 -147.6 -123.0 -144.6 -120.3 -141.9 -117.35 -143.15 -115.85 -140.55 -118.4 -138.6 -117.4 -134.95 -114.25 -134.55 Q-114.1 -133.05 -114.25 -131.55 L-117.4 -131.1 -118.4 -127.45 -115.9 -125.5 Q-116.5 -124.2 -117.4 -122.9 L-120.3 -124.1 -123.0 -121.4 -121.8 -118.5 -124.4 -117.0 -126.3 -119.5 -130.0 -118.5 -130.4 -115.4 Q-132.1 -115.25 -133.4 -115.4 L-133.8 -118.5 -137.5 -119.5 -139.4 -116.95 -142.0 -118.45 -140.8 -121.4 -143.5 -124.1 -146.45 -122.85 -147.95 -125.45 -145.4 -127.4 -146.4 -131.1 -149.6 -131.5 -149.65 -134.5 -146.4 -134.9 -145.4 -138.6 -148.05 -140.6 -146.55 -143.15 -143.5 -141.9 -140.8 -144.6 -142.1 -147.65 -139.5 -149.1 -137.5 -146.5 -133.85 -147.5 -133.4 -150.75 M-115.85 -51.4 Q-116.35 -51.85 -117.15 -51.85 -117.9 -51.85 -118.45 -51.35 -118.95 -50.85 -119.15 -49.6 L-123.55 -50.4 Q-123.0 -52.5 -121.45 -53.6 L-120.45 -54.15 -117.05 -54.7 Q-113.75 -54.7 -112.3 -53.5 -110.85 -52.3 -110.85 -50.45 -110.85 -49.3 -111.45 -48.45 -112.0 -47.6 -113.2 -46.9 -112.35 -46.7 -111.75 -46.35 -110.85 -45.8 -110.45 -45.0 -110.0 -44.15 -110.0 -43.0 -110.0 -41.55 -110.75 -40.2 -111.55 -38.85 -112.95 -38.15 -114.35 -37.4 -116.75 -37.4 -119.0 -37.4 -120.35 -37.95 L-120.45 -38.0 Q-121.75 -38.55 -122.5 -39.5 -123.4 -40.65 -123.8 -42.1 L-119.15 -42.75 Q-118.9 -41.35 -118.3 -40.8 -117.75 -40.25 -116.85 -40.25 -115.9 -40.25 -115.3 -40.9 -114.65 -41.6 -114.65 -42.75 -114.65 -43.9 -115.25 -44.55 -115.85 -45.2 -116.9 -45.2 L-118.4 -44.9 -118.15 -48.25 -117.55 -48.2 Q-116.65 -48.2 -116.05 -48.75 -115.4 -49.35 -115.4 -50.15 -115.4 -50.9 -115.85 -51.4 M-150.25 -52.05 Q-148.95 -53.15 -148.2 -54.7 L-144.35 -54.7 -144.35 -37.7 -149.05 -37.7 -149.05 -48.85 Q-150.1 -48.05 -151.25 -47.45 L-153.95 -46.4 -153.95 -50.25 Q-151.6 -51.0 -150.25 -52.05 M-131.0 -51.0 Q-131.55 -51.55 -132.4 -51.55 -133.25 -51.55 -133.85 -51.0 -134.4 -50.45 -134.6 -49.0 L-139.3 -49.4 Q-139.0 -51.4 -138.25 -52.45 -137.6 -53.5 -136.2 -54.15 -134.9 -54.7 -132.55 -54.7 -130.05 -54.7 -128.7 -54.15 -127.35 -53.6 -126.55 -52.45 -125.8 -51.3 -125.8 -49.85 -125.8 -48.35 -126.65 -46.9 -127.55 -45.5 -129.95 -43.85 L-131.8 -42.5 -132.95 -41.5 -125.65 -41.5 -125.65 -37.7 -139.6 -37.7 Q-139.4 -39.75 -138.15 -41.6 -136.95 -43.4 -133.6 -45.9 -131.55 -47.35 -131.0 -48.2 -130.4 -49.0 -130.4 -49.7 -130.4 -50.45 -131.0 -51.0 M-124.6 29.1 L-121.4 54.6 -141.95 57.15 -139.2 59.3 -118.65 56.75 -121.6 33.1 -119.75 32.85 -116.6 58.35 -140.3 61.3 -145.1 57.55 -148.25 32.05 -124.6 29.1 M-137.15 139.8 Q-134.3 141.8 -130.9 141.2 -127.5 140.6 -125.55 137.75 -123.55 134.95 -124.15 131.55 -124.75 128.15 -127.6 126.15 -130.4 124.2 -133.8 124.8 -137.2 125.4 -139.2 128.2 -141.15 131.05 -140.55 134.45 -139.95 137.85 -137.15 139.8 M-111.55 133.0 L-112.75 134.95 Q-114.35 137.3 -116.5 139.25 -123.25 145.5 -132.35 145.5 -141.45 145.5 -148.25 139.25 -150.35 137.3 -152.0 134.95 L-153.2 133.0 Q-151.6 129.85 -148.25 126.75 -141.45 120.5 -132.35 120.5 -123.25 120.5 -116.5 126.75 -113.1 129.85 -111.55 133.0" fill="#ffffff" fill-rule="evenodd" stroke="none"/>
  </g>
</svg>
