<?xml version="1.0" encoding="UTF-8" standalone="no"?>
<svg xmlns:ffdec="https://www.free-decompiler.com/flash" xmlns:xlink="http://www.w3.org/1999/xlink" ffdec:objectType="shape" height="188.1px" width="212.05px" xmlns="http://www.w3.org/2000/svg">
  <g transform="matrix(1.0, 0.0, 0.0, 1.0, 106.0, 94.05)">
    <path d="M-106.0 -94.05 L106.05 -94.05 106.05 94.05 -106.0 94.05 -106.0 -94.05" fill="#ff0000" fill-opacity="0.0" fill-rule="evenodd" stroke="none"/>
    <path d="M-85.25 -19.55 L-46.05 -73.85 -3.15 -4.45 -85.25 -19.55" fill="#c09be5" fill-rule="evenodd" stroke="none"/>
    <path d="M-51.25 57.45 L-84.45 4.95 -3.15 -4.45 -51.25 57.45" fill="#c09be5" fill-rule="evenodd" stroke="none"/>
    <path d="M13.15 75.35 L-33.85 65.55 -2.15 -8.45 13.15 75.35" fill="#c09be5" fill-rule="evenodd" stroke="none"/>
    <path d="M38.75 53.45 L-3.15 -4.45 83.25 11.85 38.75 53.45" fill="#c09be5" fill-rule="evenodd" stroke="none"/>
    <path d="M-3.15 -4.45 L50.15 -62.85 81.85 -14.35 -3.15 -4.45" fill="#c09be5" fill-rule="evenodd" stroke="none"/>
    <path d="M26.75 -76.55 L-3.15 -4.45 -21.25 -69.55 26.75 -76.55" fill="#c09be5" fill-rule="evenodd" stroke="none"/>
    <path d="M-68.25 -69.65 L-26.25 -85.55 -3.15 -4.55 -68.25 -69.65" fill="#e8ceff" fill-rule="evenodd" stroke="none"/>
    <path d="M-87.45 22.05 L-94.25 -25.55 -3.15 -4.55 -87.45 22.05" fill="#e8ceff" fill-rule="evenodd" stroke="none"/>
    <path d="M-34.35 83.45 L-69.25 54.45 -3.15 -4.55 -34.35 83.45" fill="#e8ceff" fill-rule="evenodd" stroke="none"/>
    <path d="M54.75 67.45 L14.75 82.45 -3.15 -4.55 54.75 67.45" fill="#e8ceff" fill-rule="evenodd" stroke="none"/>
    <path d="M83.75 -31.55 L89.75 28.45 -3.15 -4.55 83.75 -31.55" fill="#e8ceff" fill-rule="evenodd" stroke="none"/>
    <path d="M17.75 -91.55 L61.75 -67.55 -3.15 -4.55 17.75 -91.55" fill="#e8ceff" fill-rule="evenodd" stroke="none"/>
    <path d="M-2.25 -67.65 Q7.55 -68.35 15.85 -62.85 24.05 -57.35 25.15 -49.25 26.35 -40.25 17.35 -32.35 9.65 -25.65 0.35 -26.15 -7.85 -26.65 -14.75 -32.25 -21.35 -37.65 -23.25 -44.85 -25.25 -52.45 -20.55 -58.15 -13.25 -66.85 -2.25 -67.65" fill="#7e6812" fill-rule="evenodd" stroke="none"/>
    <path d="M-2.35 -63.55 Q4.35 -64.45 10.05 -61.35 15.65 -58.45 16.55 -53.75 17.45 -48.65 11.75 -44.15 0.15 -35.05 -11.55 -41.75 -16.25 -44.45 -17.45 -48.55 -18.85 -52.95 -15.35 -56.75 -9.95 -62.55 -2.35 -63.55" fill="#ffe56e" fill-rule="evenodd" stroke="none"/>
    <path d="M-72.45 -31.25 Q-63.65 -42.05 -50.65 -43.05 -38.95 -43.95 -29.05 -37.05 -19.25 -30.15 -17.95 -20.15 -16.45 -8.95 -27.25 0.85 -36.45 9.15 -47.55 8.45 -57.35 7.95 -65.55 0.95 -73.45 -5.85 -75.75 -14.75 -78.15 -24.25 -72.45 -31.25" fill="#265f7b" fill-rule="evenodd" stroke="none"/>
    <path d="M-66.25 -29.55 Q-59.85 -36.75 -50.75 -37.95 -42.75 -39.05 -35.95 -35.35 -29.25 -31.65 -28.25 -25.85 -27.05 -19.45 -33.95 -13.85 -40.75 -8.25 -48.85 -7.75 -55.95 -7.35 -61.75 -10.85 -67.35 -14.15 -68.85 -19.35 -70.45 -24.75 -66.25 -29.55" fill="#53b9f2" fill-rule="evenodd" stroke="none"/>
    <path d="M-54.65 6.85 Q-42.45 -8.25 -24.15 -9.65 -7.75 -10.85 6.05 -1.25 19.85 8.35 21.65 22.35 23.65 38.05 8.55 51.75 -4.25 63.35 -19.75 62.45 -33.45 61.75 -44.95 51.95 -56.05 42.45 -59.25 30.05 -62.55 16.65 -54.65 6.85" fill="#701e4f" fill-rule="evenodd" stroke="none"/>
    <path d="M-21.55 39.65 Q-31.45 40.25 -39.65 35.45 -47.45 30.75 -49.55 23.55 -51.85 15.85 -45.95 9.25 -36.95 -0.85 -24.25 -2.55 -13.05 -4.05 -3.55 1.15 5.75 6.35 7.25 14.45 8.85 23.45 -0.75 31.25 -10.35 39.05 -21.55 39.65" fill="#f3677f" fill-rule="evenodd" stroke="none"/>
    <path d="M81.55 -22.35 Q92.55 -14.65 94.05 -3.45 95.65 9.05 83.65 19.95 73.35 29.25 61.05 28.55 50.05 27.95 40.85 20.05 32.05 12.55 29.55 2.65 26.85 -8.05 33.15 -15.85 42.95 -27.85 57.55 -28.95 70.55 -29.95 81.55 -22.35" fill="#327739" fill-rule="evenodd" stroke="none"/>
    <path d="M73.95 -20.35 Q81.35 -16.25 82.55 -9.75 83.85 -2.55 76.15 3.65 68.55 9.85 59.55 10.35 51.65 10.85 45.15 6.95 38.95 3.15 37.25 -2.55 35.45 -8.65 40.15 -13.95 47.35 -22.05 57.45 -23.35 66.35 -24.55 73.95 -20.35" fill="#76df86" fill-rule="evenodd" stroke="none"/>
  </g>
</svg>
