<?xml version="1.0" encoding="UTF-8" standalone="no"?>
<svg xmlns:ffdec="https://www.free-decompiler.com/flash" xmlns:xlink="http://www.w3.org/1999/xlink" ffdec:objectType="shape" height="181.4px" width="198.05px" xmlns="http://www.w3.org/2000/svg">
  <g transform="matrix(1.0, 0.0, 0.0, 1.0, 99.0, 90.7)">
    <path d="M-99.0 -90.7 L99.05 -90.7 99.05 90.7 -99.0 90.7 -99.0 -90.7" fill="#ff0000" fill-opacity="0.0" fill-rule="evenodd" stroke="none"/>
    <path d="M-91.25 -18.85 L-42.85 -69.95 -0.05 -0.55 -91.25 -18.85" fill="#2cc3ea" fill-rule="evenodd" stroke="none"/>
    <path d="M-50.45 63.85 L-81.25 8.75 -0.05 -0.55 -50.45 63.85" fill="#2cc3ea" fill-rule="evenodd" stroke="none"/>
    <path d="M16.25 79.15 L-31.65 73.35 -0.05 -0.55 16.25 79.15" fill="#2cc3ea" fill-rule="evenodd" stroke="none"/>
    <path d="M46.15 60.35 L-0.05 -0.55 86.45 15.65 46.15 60.35" fill="#2cc3ea" fill-rule="evenodd" stroke="none"/>
    <path d="M-0.05 -0.55 L53.25 -59.05 84.95 -10.55 -0.05 -0.55" fill="#2cc3ea" fill-rule="evenodd" stroke="none"/>
    <path d="M30.15 -64.75 L-0.05 -0.55 -14.45 -60.65 30.15 -64.75" fill="#2cc3ea" fill-rule="evenodd" stroke="none"/>
    <path d="M-11.85 -87.95 L-0.05 -0.75 -65.05 -65.75 -11.85 -87.95" fill="#76eeff" fill-rule="evenodd" stroke="none"/>
    <path d="M-84.25 25.85 L-93.75 -27.55 -0.05 -0.75 -84.25 25.85" fill="#76eeff" fill-rule="evenodd" stroke="none"/>
    <path d="M-31.15 87.25 L-63.55 65.85 -0.05 -0.75 -31.15 87.25" fill="#76eeff" fill-rule="evenodd" stroke="none"/>
    <path d="M62.55 67.85 L11.75 87.95 -0.05 -0.75 62.55 67.85" fill="#76eeff" fill-rule="evenodd" stroke="none"/>
    <path d="M87.15 -11.05 L93.75 26.05 -0.05 -0.75 87.15 -11.05" fill="#76eeff" fill-rule="evenodd" stroke="none"/>
    <path d="M-0.05 -0.75 L20.65 -82.05 70.05 -68.55 -0.05 -0.75" fill="#76eeff" fill-rule="evenodd" stroke="none"/>
    <path d="M-38.95 -25.85 Q-30.05 -21.55 -22.35 10.15 -14.95 41.05 -19.15 49.45 -21.35 52.25 -27.45 54.55 -34.75 57.35 -42.05 56.65 -52.25 52.45 -60.15 22.85 -67.85 -6.55 -62.35 -17.65 -58.85 -22.25 -50.05 -24.55 -43.45 -26.25 -38.95 -25.85" fill="#373728" fill-rule="evenodd" stroke="none"/>
    <path d="M49.45 -53.05 Q60.05 -44.55 66.75 -13.05 73.25 17.85 67.35 26.35 64.35 29.45 57.45 31.35 50.45 32.95 48.75 33.65 35.85 26.25 27.15 -4.85 18.75 -35.25 24.85 -46.45 27.15 -47.65 35.95 -50.25 45.65 -53.05 49.45 -53.05" fill="#373728" fill-rule="evenodd" stroke="none"/>
    <path d="M39.85 1.85 Q34.05 9.55 6.75 17.25 -19.95 24.85 -28.25 22.15 -33.75 20.45 -36.45 14.65 -39.45 8.35 -34.45 3.55 -26.15 -4.25 -0.95 -12.55 26.05 -21.35 35.25 -16.95 42.45 -13.45 43.75 -9.45 45.05 -5.05 39.85 1.85" fill="#373728" fill-rule="evenodd" stroke="none"/>
    <path d="M-58.35 -13.85 Q-55.35 -18.15 -48.05 -19.35 -40.65 -20.55 -40.85 -16.65 -40.95 -12.35 -39.75 -3.85 -38.35 5.75 -36.15 14.95 -33.85 24.45 -38.55 35.35 -43.25 46.15 -46.85 41.35 -55.35 29.95 -58.25 8.35 -60.75 -10.35 -58.35 -13.85" fill="#90927a" fill-rule="evenodd" stroke="none"/>
    <path d="M32.25 -41.15 Q30.75 -43.95 38.15 -44.95 45.55 -45.95 48.25 -43.65 51.35 -41.15 56.05 -30.05 61.35 -17.65 61.95 -8.45 62.45 0.55 54.55 7.15 51.55 9.55 48.95 10.25 46.35 10.95 46.25 9.35 45.15 -3.45 39.95 -20.55 35.75 -34.15 32.25 -41.15" fill="#90927a" fill-rule="evenodd" stroke="none"/>
    <path d="M-55.65 1.85 Q-54.65 -8.35 -50.05 -8.85 -45.55 -9.45 -44.95 0.15 -44.35 9.05 -50.25 8.85 -52.55 8.75 -54.25 6.95 -55.95 4.85 -55.65 1.85" fill="#fdfdfd" fill-rule="evenodd" stroke="none"/>
    <path d="M41.95 -25.65 Q39.75 -33.35 43.55 -36.25 47.35 -39.15 50.65 -30.45 53.85 -21.95 49.05 -19.95 44.15 -17.85 41.95 -25.65" fill="#fdfdfd" fill-rule="evenodd" stroke="none"/>
  </g>
</svg>
