<?xml version="1.0" encoding="UTF-8" standalone="no"?>
<svg xmlns:ffdec="https://www.free-decompiler.com/flash" xmlns:xlink="http://www.w3.org/1999/xlink" ffdec:objectType="shape" height="12.2px" width="12.2px" xmlns="http://www.w3.org/2000/svg">
  <g transform="matrix(1.0, 0.0, 0.0, 1.0, 6.1, 6.1)">
    <path d="M2.55 -2.65 Q1.55 -3.65 0.0 -3.65 -1.55 -3.65 -2.55 -2.65 -3.65 -1.55 -3.65 0.0 -3.65 1.55 -2.55 2.55 -1.55 3.65 0.0 3.65 1.55 3.65 2.55 2.55 3.65 1.55 3.65 0.0 3.65 -1.55 2.55 -2.65 M4.25 -4.4 Q6.1 -2.55 6.1 0.0 6.1 2.55 4.25 4.25 2.55 6.1 0.0 6.1 -2.55 6.1 -4.25 4.25 -6.1 2.55 -6.1 0.0 -6.1 -2.55 -4.25 -4.4 -2.55 -6.1 0.0 -6.1 2.55 -6.1 4.25 -4.4" fill="#a0a0a0" fill-rule="evenodd" stroke="none"/>
    <path d="M2.55 -2.65 Q3.65 -1.55 3.65 0.0 3.65 1.55 2.55 2.55 1.55 3.65 0.0 3.65 -1.55 3.65 -2.55 2.55 -3.65 1.55 -3.65 0.0 -3.65 -1.55 -2.55 -2.65 -1.55 -3.65 0.0 -3.65 1.55 -3.65 2.55 -2.65" fill="#ffffff" fill-rule="evenodd" stroke="none"/>
  </g>
</svg>
