<?xml version="1.0" encoding="UTF-8" standalone="no"?>
<svg xmlns:ffdec="https://www.free-decompiler.com/flash" xmlns:xlink="http://www.w3.org/1999/xlink" ffdec:objectType="shape" height="31.05px" width="104.95px" xmlns="http://www.w3.org/2000/svg">
  <g transform="matrix(1.0, 0.0, 0.0, 1.0, 52.5, 15.5)">
    <path d="M51.15 -3.85 L51.2 -3.8 51.7 -2.95 Q53.55 0.8 50.8 3.2 49.45 4.35 47.15 5.1 L41.5 6.15 38.75 6.3 Q40.0 6.95 39.35 7.95 38.7 9.0 36.7 9.75 31.6 11.75 25.25 10.1 24.0 11.65 18.2 13.1 12.55 14.5 5.35 15.15 -12.45 16.7 -18.0 12.45 L-18.3 12.55 -20.1 12.75 -27.05 12.3 -29.7 11.85 -32.2 11.25 -33.35 10.95 -35.65 10.25 -36.7 9.9 Q-36.9 9.8 -37.05 9.75 L-20.6 10.35 Q-10.65 9.4 -9.15 6.8 -5.25 8.6 0.45 9.05 L11.5 8.5 Q17.15 7.5 21.0 5.3 25.15 2.9 26.15 -0.4 32.65 -0.05 36.45 -1.65 39.75 -3.05 40.6 -5.6 41.25 -7.9 39.8 -10.25 38.35 -12.6 35.55 -13.6 40.6 -12.5 45.3 -9.4 49.3 -6.75 51.15 -3.85" fill="#b29c69" fill-rule="evenodd" stroke="none"/>
    <path d="M51.15 -3.85 Q49.3 -6.75 45.3 -9.4 40.6 -12.5 35.55 -13.6 38.35 -12.6 39.8 -10.25 41.25 -7.9 40.6 -5.6 39.75 -3.05 36.45 -1.65 32.65 -0.05 26.15 -0.4 25.15 2.9 21.0 5.3 17.15 7.5 11.5 8.5 L0.45 9.05 Q-5.25 8.6 -9.15 6.8 -10.65 9.4 -20.6 10.35 L-37.05 9.75 Q-43.15 7.5 -42.8 5.0 -49.65 3.85 -51.65 0.75 -53.45 -1.95 -51.35 -5.55 -49.45 -8.85 -45.2 -11.55 -40.9 -14.35 -36.5 -15.1 -29.2 -16.3 -17.7 -13.75 -5.75 -11.05 -5.4 -7.5 -2.65 -10.4 3.1 -10.45 8.45 -10.5 10.9 -8.45 11.9 -11.45 20.75 -13.05 28.5 -14.5 34.3 -13.8 39.25 -13.25 44.35 -10.2 49.1 -7.3 51.15 -3.85 M-29.7 11.85 L-27.05 12.3 -20.1 12.75 Q-24.15 13.1 -29.7 11.85" fill="#ddc88e" fill-rule="evenodd" stroke="none"/>
  </g>
</svg>
