<?xml version="1.0" encoding="UTF-8" standalone="no"?>
<svg xmlns:ffdec="https://www.free-decompiler.com/flash" xmlns:xlink="http://www.w3.org/1999/xlink" ffdec:objectType="shape" height="22.2px" width="33.9px" xmlns="http://www.w3.org/2000/svg">
  <g transform="matrix(1.0, 0.0, 0.0, 1.0, 16.95, 11.1)">
    <path d="M8.45 0.5 Q6.95 -1.3 1.1 -5.8 -5.05 -10.5 -7.1 -11.1 -9.65 -10.8 -12.85 -8.6 -15.85 -6.6 -16.95 -4.85 -17.15 -4.3 -15.05 -1.3 -12.65 2.0 -10.45 3.2 -7.7 4.55 1.15 3.35 9.95 2.1 8.45 0.5" fill="#5d5e95" fill-rule="evenodd" stroke="none"/>
    <path d="M2.75 -3.2 Q2.25 -3.8 -0.95 -6.25 L-5.05 -9.3 -9.05 -9.15 Q-11.4 -7.95 -11.65 -6.7 -11.9 -5.65 -10.75 -3.9 -9.7 -2.25 -8.3 -1.2 -6.95 -0.25 -1.75 -1.35 3.4 -2.5 2.75 -3.2" fill="#787fe3" fill-rule="evenodd" stroke="none"/>
    <path d="M6.4 -0.95 L-1.45 -0.25 Q-8.35 0.9 -8.6 1.55 L-11.2 1.95 Q-12.05 2.35 -11.35 2.85 L-7.1 5.9 Q-2.8 8.8 1.05 10.3 L2.3 10.25 Q2.95 9.95 2.7 9.25 L5.7 10.65 9.0 10.55 Q12.7 11.75 13.3 10.1 L16.55 9.8 Q17.2 9.3 16.6 8.55 18.1 6.75 12.9 2.95 9.0 0.1 6.4 -0.95" fill="#84816c" fill-rule="evenodd" stroke="none"/>
    <path d="M16.3 9.45 Q18.0 8.0 11.8 3.35 5.65 -1.3 3.2 -0.55 L8.85 2.9 Q14.75 6.9 16.3 9.45 M7.85 10.9 Q9.55 10.7 8.45 8.9 7.45 7.35 4.7 5.15 2.05 3.05 -0.55 1.7 -3.45 0.2 -4.7 0.6 L0.0 4.15 Q5.2 8.25 7.85 10.9 M-1.25 4.75 Q-6.2 1.1 -8.95 1.85 L-4.9 4.3 Q-0.4 7.25 2.1 9.9 3.7 8.4 -1.25 4.75 M3.25 1.0 Q0.3 -0.55 -0.9 -0.2 L4.3 3.55 Q10.0 7.85 12.3 10.55 14.0 10.35 12.7 8.55 11.6 6.9 8.75 4.65 5.95 2.4 3.25 1.0" fill="#f3f1d8" fill-rule="evenodd" stroke="none"/>
  </g>
</svg>
