<?xml version="1.0" encoding="UTF-8" standalone="no"?>
<svg xmlns:ffdec="https://www.free-decompiler.com/flash" xmlns:xlink="http://www.w3.org/1999/xlink" ffdec:objectType="shape" height="18.3px" width="25.0px" xmlns="http://www.w3.org/2000/svg">
  <g transform="matrix(1.0, 0.0, 0.0, 1.0, 12.5, 9.15)">
    <path d="M4.85 -8.55 L4.95 -8.4 5.1 -8.25 5.2 -8.1 Q4.85 -7.8 4.5 -7.85 L4.85 -8.15 4.85 -8.5 4.85 -8.55 M5.25 -8.0 L5.75 -7.7 Q6.05 -7.5 5.85 -7.3 L5.8 -7.2 5.75 -7.2 Q5.8 -7.0 6.15 -6.7 L6.35 -6.55 6.45 -6.3 6.5 -6.25 6.5 -6.15 6.5 -6.05 6.5 -5.95 6.4 -5.75 6.4 -5.7 6.35 -5.6 6.2 -5.45 5.6 -5.0 5.75 -4.9 5.75 -4.7 5.65 -4.6 5.6 -4.55 5.6 -4.6 5.45 -4.7 5.3 -4.7 5.2 -4.55 5.2 -4.45 5.0 -4.2 4.85 -4.2 4.75 -4.1 4.4 -4.0 3.95 -4.05 3.6 -4.2 3.5 -4.2 Q2.65 -4.1 2.55 -4.4 L2.7 -4.55 2.1 -4.2 1.75 -3.95 1.7 -3.95 1.6 -3.9 1.35 -3.9 1.1 -4.1 1.1 -4.2 1.05 -4.2 1.0 -4.3 1.0 -4.35 0.95 -4.45 2.1 -4.55 2.55 -4.95 2.6 -4.95 2.6 -4.85 3.3 -4.95 3.6 -4.65 3.95 -4.7 4.0 -4.7 4.05 -4.95 4.0 -5.2 4.35 -4.8 4.4 -4.75 Q4.7 -4.7 4.85 -4.9 L4.8 -5.45 4.4 -5.75 4.35 -5.95 4.4 -5.85 4.9 -5.6 Q5.3 -5.45 5.5 -5.75 L5.45 -6.0 5.15 -6.2 5.45 -6.2 5.65 -6.25 Q5.8 -6.55 5.6 -6.75 L5.25 -7.2 5.0 -7.2 5.3 -7.25 5.55 -7.4 5.55 -7.7 5.25 -8.0 M0.85 -5.05 L0.85 -5.2 0.75 -5.3 0.6 -5.35 Q0.9 -5.3 1.25 -5.55 L1.2 -5.4 1.05 -5.2 0.85 -5.05 M0.5 -5.6 L0.6 -5.75 0.35 -6.1 Q0.5 -5.95 0.7 -5.95 L1.1 -6.15 0.85 -5.7 0.55 -5.6 0.5 -5.6 M1.85 -8.25 L2.0 -8.15 2.05 -8.2 1.95 -7.95 1.75 -8.15 1.55 -8.35 1.85 -8.25 M2.55 -8.45 L3.1 -8.65 3.05 -8.6 2.5 -8.15 2.5 -8.45 2.55 -8.45" fill="#80a42f" fill-rule="evenodd" stroke="none"/>
    <path d="M5.2 -8.1 L5.25 -8.0 5.55 -7.7 5.55 -7.4 5.3 -7.25 5.0 -7.2 5.25 -7.2 5.6 -6.75 Q5.8 -6.55 5.65 -6.25 L5.45 -6.2 5.15 -6.2 5.45 -6.0 5.5 -5.75 Q5.3 -5.45 4.9 -5.6 L4.4 -5.85 4.35 -5.95 4.4 -5.75 4.8 -5.45 4.85 -4.9 Q4.7 -4.7 4.4 -4.75 L4.35 -4.8 4.0 -5.2 4.05 -4.95 4.0 -4.7 3.95 -4.7 3.6 -4.65 3.3 -4.95 2.6 -4.85 2.6 -4.95 2.55 -4.95 2.1 -4.55 0.95 -4.45 1.05 -4.7 1.0 -4.95 0.7 -4.7 0.6 -4.45 Q0.2 -4.6 0.45 -4.8 L0.85 -5.0 0.85 -5.05 1.05 -5.2 1.2 -5.4 1.25 -5.55 Q0.9 -5.3 0.6 -5.35 L0.55 -5.35 0.15 -5.45 0.15 -5.5 0.35 -5.55 0.5 -5.55 0.5 -5.6 0.55 -5.6 0.85 -5.7 1.1 -6.15 0.7 -5.95 Q0.5 -5.95 0.35 -6.1 L0.25 -6.25 0.2 -6.45 0.2 -6.55 0.3 -6.95 0.3 -6.8 0.35 -6.75 0.35 -6.55 0.65 -6.45 1.1 -6.7 Q1.0 -6.5 1.2 -6.45 L1.6 -6.5 1.55 -6.15 Q1.5 -5.95 1.6 -5.85 L1.75 -5.85 2.0 -6.0 2.05 -5.65 2.1 -5.65 Q2.45 -5.55 2.55 -5.9 L2.4 -6.5 2.85 -6.45 3.25 -6.55 3.2 -6.95 2.85 -7.2 3.3 -7.25 3.55 -7.65 3.35 -7.7 3.05 -7.7 3.35 -7.95 Q3.55 -8.1 3.35 -8.15 3.1 -8.35 2.8 -8.15 L2.25 -7.75 2.25 -7.9 2.25 -8.05 2.1 -8.0 1.95 -7.85 1.95 -7.95 1.9 -7.85 1.75 -7.65 1.7 -7.95 1.5 -8.15 1.35 -8.2 1.2 -8.25 1.4 -8.35 1.55 -8.35 1.75 -8.15 1.95 -7.95 2.05 -8.2 2.1 -8.2 2.15 -8.25 2.1 -8.5 2.1 -8.7 2.4 -8.55 2.5 -8.5 2.55 -8.45 2.5 -8.45 2.5 -8.15 3.05 -8.6 3.1 -8.65 3.85 -8.75 3.95 -8.75 4.4 -8.7 4.8 -8.55 4.85 -8.55 4.85 -8.5 4.85 -8.15 4.5 -7.85 Q4.85 -7.8 5.2 -8.1 M3.55 -6.1 L3.3 -6.15 3.1 -6.1 3.05 -5.85 3.2 -5.7 3.4 -5.55 Q3.6 -5.55 3.6 -5.65 L3.65 -5.85 3.55 -6.1 M3.95 -6.95 L4.05 -6.85 4.4 -6.6 4.6 -6.6 4.7 -6.8 4.65 -6.95 4.4 -7.1 3.95 -7.2 3.55 -7.1 3.95 -6.95 M1.65 -5.3 L1.45 -5.15 1.3 -4.9 1.35 -4.7 1.6 -4.65 1.85 -4.8 2.0 -5.05 1.9 -5.25 1.65 -5.3" fill="#a3cb56" fill-rule="evenodd" stroke="none"/>
    <path d="M1.35 -3.7 Q1.1 -3.75 0.85 -4.05 L0.3 -4.45 Q-0.1 -4.7 0.35 -5.0 L-0.1 -5.4 Q-0.25 -5.75 0.1 -5.85 -0.15 -6.35 0.0 -6.75 L0.45 -7.55 Q0.35 -8.05 0.85 -8.4 L1.85 -8.5 2.05 -8.85 2.1 -8.85 Q2.35 -8.9 2.6 -8.6 L3.85 -8.9 3.95 -8.9 4.4 -8.9 4.7 -8.9 5.1 -8.65 5.4 -8.15 6.05 -7.65 6.05 -7.15 6.45 -6.9 6.6 -6.7 6.7 -5.95 6.4 -5.2 6.35 -5.2 6.35 -5.15 5.9 -5.0 6.05 -4.6 5.95 -4.45 Q5.65 -4.1 5.35 -4.45 L5.2 -4.15 Q4.9 -3.9 4.4 -3.9 L4.35 -3.9 4.0 -3.8 3.95 -3.8 3.8 -3.75 3.5 -3.7 2.3 -3.8 2.1 -3.8 1.95 -3.9 1.35 -3.7 M5.2 -8.1 L5.1 -8.25 4.95 -8.4 4.85 -8.55 4.8 -8.55 4.4 -8.75 4.05 -8.8 3.95 -8.8 3.85 -8.75 3.1 -8.65 2.55 -8.45 2.5 -8.5 2.4 -8.55 2.1 -8.7 2.1 -8.5 2.15 -8.25 2.1 -8.2 2.05 -8.2 2.0 -8.15 1.85 -8.25 1.4 -8.35 1.2 -8.25 1.1 -8.25 0.95 -8.15 0.85 -7.95 0.85 -7.9 0.8 -7.85 0.6 -7.3 0.3 -6.95 0.2 -6.55 0.2 -6.45 0.25 -6.25 0.35 -6.0 0.6 -5.75 0.5 -5.6 0.5 -5.55 0.35 -5.55 0.15 -5.5 0.15 -5.45 0.55 -5.35 0.6 -5.35 0.75 -5.3 0.85 -5.2 0.85 -5.05 0.85 -5.0 0.45 -4.8 Q0.2 -4.6 0.6 -4.45 L0.7 -4.7 1.0 -4.95 1.05 -4.7 0.95 -4.45 1.0 -4.35 1.0 -4.3 1.05 -4.2 1.1 -4.2 1.1 -4.1 1.35 -3.9 1.6 -3.9 1.7 -3.95 1.75 -3.95 2.1 -4.15 2.3 -4.2 2.7 -4.55 2.55 -4.4 Q2.65 -4.1 3.5 -4.2 L3.6 -4.2 3.95 -4.05 4.4 -4.0 4.75 -4.1 5.0 -4.2 5.2 -4.45 5.2 -4.55 5.3 -4.7 5.45 -4.7 5.6 -4.6 5.6 -4.55 5.65 -4.6 5.75 -4.7 5.75 -4.9 5.6 -5.0 6.2 -5.45 6.35 -5.6 6.4 -5.7 6.4 -5.75 6.5 -5.95 6.5 -6.05 6.5 -6.15 6.5 -6.25 6.45 -6.3 6.35 -6.55 6.15 -6.7 Q5.8 -7.0 5.75 -7.2 L5.8 -7.2 5.85 -7.3 Q6.05 -7.5 5.75 -7.7 L5.25 -8.0 5.2 -8.1" fill="#57721e" fill-rule="evenodd" stroke="none"/>
    <path d="M6.45 -6.9 L7.1 -7.35 8.9 -7.6 9.85 -7.35 10.1 -7.25 10.6 -6.95 10.8 -6.4 Q11.2 -6.7 11.8 -6.4 L12.45 -5.55 Q12.6 -4.7 12.25 -3.95 L12.1 -3.7 Q11.6 -2.7 10.6 -3.0 10.55 -2.5 10.1 -2.25 L9.85 -2.25 10.1 -2.45 10.6 -3.0 10.3 -3.2 10.2 -3.65 10.35 -3.8 10.6 -3.7 10.55 -4.6 10.5 -5.6 10.35 -5.45 10.25 -5.45 10.35 -5.95 10.5 -6.2 Q10.5 -6.7 10.1 -6.95 L9.85 -7.15 8.4 -7.4 7.95 -7.4 Q6.85 -7.35 6.6 -6.7 L6.45 -6.9 M11.95 -6.0 L11.7 -6.15 Q10.85 -6.55 10.35 -5.95 L10.35 -5.7 10.8 -5.9 11.35 -5.8 11.7 -5.55 11.9 -4.95 11.85 -4.6 11.75 -4.2 11.3 -3.55 10.85 -3.5 10.4 -3.4 Q10.65 -2.95 11.1 -3.15 L11.35 -3.3 12.05 -4.15 12.15 -4.6 12.25 -5.45 11.95 -6.0 M6.95 -2.25 Q6.3 -2.65 6.25 -3.85 L6.3 -4.6 6.35 -5.05 6.35 -4.65 6.35 -4.6 6.45 -3.45 6.7 -2.7 Q7.05 -2.35 7.75 -2.25 L6.95 -2.25 M11.65 -4.95 L11.55 -5.4 11.25 -5.6 10.75 -5.7 10.75 -5.45 10.75 -4.6 10.65 -3.7 Q11.15 -3.55 11.4 -4.05 L11.6 -4.6 11.65 -4.95" fill="#1b597b" fill-rule="evenodd" stroke="none"/>
    <path d="M10.5 -6.2 L10.35 -5.95 10.25 -5.45 10.35 -5.45 10.5 -5.6 10.55 -4.6 10.6 -3.7 10.35 -3.8 10.2 -3.65 10.3 -3.2 10.6 -3.0 10.1 -2.45 9.85 -2.25 9.5 -2.25 7.75 -2.25 Q7.05 -2.35 6.7 -2.7 L6.45 -3.45 Q6.95 -2.7 7.75 -2.65 8.6 -2.5 9.05 -3.1 9.35 -3.55 9.2 -4.55 L9.2 -4.6 Q9.1 -5.5 9.35 -5.95 L9.75 -6.15 9.85 -6.15 10.1 -6.3 10.35 -6.5 10.35 -6.6 10.5 -6.2 M11.95 -6.0 L12.25 -5.45 12.15 -4.6 12.05 -4.15 11.35 -3.3 11.1 -3.15 Q10.7 -3.0 10.45 -3.35 11.45 -3.15 11.85 -3.95 L12.05 -4.6 12.05 -4.95 Q12.0 -5.55 11.6 -5.8 L11.9 -5.8 11.95 -6.0" fill="#498ec7" fill-rule="evenodd" stroke="none"/>
    <path d="M6.4 -5.2 L6.7 -5.95 6.6 -6.7 Q6.85 -7.35 7.95 -7.4 L8.4 -7.4 9.85 -7.15 10.1 -6.95 10.35 -6.6 10.35 -6.5 10.1 -6.3 9.85 -6.15 9.75 -6.15 9.35 -5.95 Q9.1 -5.5 9.2 -4.6 L9.2 -4.55 Q9.35 -3.55 9.05 -3.1 8.6 -2.5 7.75 -2.65 6.95 -2.7 6.45 -3.45 L6.4 -4.6 6.4 -5.2 M7.95 -7.25 L7.15 -7.0 6.85 -6.7 Q6.85 -6.45 7.3 -6.25 L8.5 -6.1 8.7 -6.1 9.75 -6.25 9.85 -6.3 10.1 -6.55 10.15 -6.7 10.1 -6.8 9.85 -7.0 9.65 -7.1 8.5 -7.3 7.95 -7.25 M10.35 -5.95 Q10.85 -6.55 11.7 -6.15 L11.95 -6.0 11.9 -5.8 11.6 -5.8 Q12.0 -5.55 12.05 -4.95 L12.05 -4.6 11.85 -3.95 Q11.45 -3.15 10.45 -3.35 L10.4 -3.4 10.85 -3.5 11.3 -3.55 11.75 -4.2 11.85 -4.6 11.9 -4.95 11.7 -5.55 11.35 -5.8 10.8 -5.9 10.35 -5.7 10.35 -5.95" fill="#5ca7ff" fill-rule="evenodd" stroke="none"/>
    <path d="M7.95 -7.25 L8.5 -7.3 9.65 -7.1 9.85 -7.0 10.1 -6.8 10.15 -6.7 10.1 -6.55 9.85 -6.3 9.75 -6.25 8.7 -6.1 8.0 -6.55 7.85 -6.95 7.95 -7.25" fill="#efeddc" fill-rule="evenodd" stroke="none"/>
    <path d="M8.7 -6.1 L8.5 -6.1 7.3 -6.25 Q6.85 -6.45 6.85 -6.7 L7.15 -7.0 7.95 -7.25 7.85 -6.95 8.0 -6.55 8.7 -6.1" fill="#d4d1b8" fill-rule="evenodd" stroke="none"/>
    <path d="M10.1 -2.25 L11.6 -2.25 Q11.6 -1.75 10.85 -1.4 L10.1 -1.1 9.85 -1.1 9.2 -1.05 6.5 -1.05 6.5 2.65 6.35 3.2 5.75 3.45 1.3 3.45 2.05 8.55 1.95 9.0 1.6 9.15 -2.55 9.15 -2.85 9.0 -2.95 8.55 -2.2 3.45 -6.6 3.45 -7.1 3.2 -7.35 2.65 -7.35 -1.05 -10.15 -1.05 Q-11.1 -1.05 -11.85 -1.4 -12.5 -1.75 -12.5 -2.25 L-10.45 -2.25 -9.65 -2.25 -9.3 -2.25 -8.5 -2.25 -8.3 -2.25 -7.3 -2.25 -6.4 -2.25 -3.85 -2.25 -3.6 -2.25 -2.55 -2.25 -1.9 -2.25 -1.5 -2.25 Q-1.5 -1.75 -2.15 -1.4 L-2.55 -1.25 -3.85 -1.05 -6.6 -1.05 -6.6 2.65 -2.1 2.65 -1.6 1.95 Q-1.1 1.55 -0.45 1.55 L0.65 1.95 1.15 2.65 5.75 2.65 5.75 -1.05 2.85 -1.05 2.1 -1.1 1.25 -1.4 Q0.55 -1.75 0.55 -2.25 L2.05 -2.25 2.65 -2.25 3.2 -2.25 3.5 -2.2 3.6 -2.25 3.95 -2.25 4.6 -2.25 6.95 -2.25 7.75 -2.25 9.5 -2.25 9.85 -2.25 10.1 -2.25 M0.6 3.2 L0.3 2.45 Q0.0 2.05 -0.45 2.05 -0.9 2.05 -1.2 2.45 L-1.5 3.2 -1.2 3.95 -0.45 4.2 0.3 3.95 0.6 3.2" fill="#231f20" fill-rule="evenodd" stroke="none"/>
    <path d="M0.3 -6.95 L0.6 -7.3 0.8 -7.85 0.85 -7.9 0.85 -7.95 0.95 -8.15 1.1 -8.25 1.2 -8.25 1.35 -8.2 1.5 -8.15 1.7 -7.95 1.75 -7.65 1.9 -7.85 1.95 -7.95 1.95 -7.85 2.1 -8.0 2.25 -8.05 2.25 -7.9 2.25 -7.75 2.8 -8.15 Q3.1 -8.35 3.35 -8.15 3.55 -8.1 3.35 -7.95 L3.05 -7.7 3.35 -7.7 3.55 -7.65 3.3 -7.25 2.85 -7.2 3.2 -6.95 3.25 -6.55 2.85 -6.45 2.4 -6.5 2.55 -5.9 Q2.45 -5.55 2.1 -5.65 L2.05 -5.65 2.0 -6.0 1.75 -5.85 1.6 -5.85 Q1.5 -5.95 1.55 -6.15 L1.6 -6.5 1.2 -6.45 Q1.0 -6.5 1.1 -6.7 L0.65 -6.45 0.35 -6.55 0.35 -6.75 0.3 -6.8 0.3 -6.95 M3.95 -6.95 L3.55 -7.1 3.95 -7.2 4.4 -7.1 4.65 -6.95 4.7 -6.8 4.6 -6.6 4.4 -6.6 4.05 -6.85 3.95 -6.95 M3.55 -6.1 L3.65 -5.85 3.6 -5.65 Q3.6 -5.55 3.4 -5.55 L3.2 -5.7 3.05 -5.85 3.1 -6.1 3.3 -6.15 3.55 -6.1 M1.65 -5.3 L1.9 -5.25 2.0 -5.05 1.85 -4.8 1.6 -4.65 1.35 -4.7 1.3 -4.9 1.45 -5.15 1.65 -5.3" fill="#d4f689" fill-rule="evenodd" stroke="none"/>
    <path d="M2.05 -2.25 Q1.8 -2.3 1.7 -2.45 L1.6 -3.25 1.4 -3.4 1.35 -3.7 1.95 -3.9 2.1 -3.8 2.3 -3.8 3.5 -3.7 3.8 -3.75 3.95 -3.8 4.0 -3.8 4.35 -3.9 4.4 -3.9 Q4.9 -3.9 5.2 -4.15 L5.1 -3.5 4.95 -3.45 4.85 -2.3 4.6 -2.25 3.95 -2.25 4.25 -2.35 4.4 -2.45 4.5 -2.7 4.4 -3.0 4.4 -3.05 3.95 -3.0 3.5 -2.95 2.1 -3.2 3.5 -3.1 3.85 -3.2 Q3.6 -3.25 3.5 -3.4 L3.4 -3.45 Q3.3 -3.2 2.95 -3.25 L2.45 -3.35 Q2.25 -3.2 2.1 -3.45 L1.95 -3.7 1.9 -3.7 1.6 -3.45 1.7 -3.45 1.8 -2.8 2.05 -2.45 2.1 -2.4 2.65 -2.25 2.05 -2.25 M5.0 -4.2 L4.75 -4.1 4.85 -4.2 5.0 -4.2" fill="#893e1a" fill-rule="evenodd" stroke="none"/>
    <path d="M2.65 -2.25 L2.1 -2.4 2.05 -2.45 1.8 -2.8 1.7 -3.45 1.6 -3.45 1.9 -3.7 1.95 -3.7 2.1 -3.45 Q2.25 -3.2 2.45 -3.35 L2.95 -3.25 Q3.3 -3.2 3.4 -3.45 L3.5 -3.4 Q3.6 -3.25 3.85 -3.2 L3.5 -3.1 2.1 -3.2 3.5 -2.95 3.95 -3.0 4.4 -3.05 4.4 -3.0 4.5 -2.7 4.4 -2.45 4.25 -2.35 3.95 -2.25 3.6 -2.25 3.5 -2.2 3.2 -2.25 2.65 -2.25" fill="#cd7141" fill-rule="evenodd" stroke="none"/>
    <path d="M-10.45 -2.25 L-11.05 -2.65 Q-11.4 -3.0 -11.4 -3.95 L-11.35 -5.7 -11.55 -7.4 -11.65 -7.7 Q-11.4 -8.0 -10.3 -7.7 L-10.15 -7.7 -10.25 -7.85 -10.25 -8.1 -10.2 -8.4 -9.55 -8.9 -8.85 -8.9 -8.6 -8.9 -8.45 -8.9 -7.6 -9.15 -6.85 -8.9 -6.75 -8.9 Q-6.4 -8.5 -6.4 -7.65 -5.1 -7.65 -4.75 -7.3 L-4.8 -6.4 -5.1 -5.5 -5.2 -4.6 -5.3 -4.5 -5.45 -4.3 -5.55 -4.2 -5.5 -4.95 -5.35 -5.5 -5.2 -6.0 -5.1 -6.3 -5.1 -6.5 -5.1 -6.55 -5.05 -7.1 -5.45 -7.1 -6.5 -7.05 -6.55 -6.95 -6.5 -6.15 -7.4 -6.15 -7.4 -7.05 -8.2 -7.05 -9.15 -7.15 -9.25 -6.55 -9.45 -6.05 -9.65 -6.1 -10.0 -6.15 -10.1 -6.25 -10.15 -6.45 -10.1 -6.75 -10.1 -6.85 -9.95 -7.25 -11.35 -7.6 Q-11.15 -6.95 -11.1 -6.0 L-11.1 -5.7 -11.1 -4.9 -11.1 -4.45 -11.1 -3.45 -11.05 -3.15 -11.0 -2.95 Q-10.75 -2.5 -10.1 -2.35 L-9.65 -2.25 -10.45 -2.25 M-6.65 -6.95 L-6.65 -7.05 -6.6 -7.65 -6.65 -8.45 -7.35 -8.9 -8.0 -8.9 -8.45 -8.8 -9.0 -8.45 -9.6 -7.65 -9.85 -7.2 -10.1 -6.85 -10.05 -6.25 -9.5 -6.25 -9.4 -6.95 -9.4 -7.1 -9.4 -7.2 -9.15 -7.65 -8.65 -8.15 -8.6 -8.3 -8.05 -8.5 Q-7.6 -8.7 -7.25 -8.5 -6.9 -8.2 -7.05 -7.65 L-7.1 -7.05 -7.15 -6.95 -7.15 -6.9 -7.1 -6.4 -6.65 -6.45 -6.65 -6.95 M-9.3 -8.45 L-9.4 -8.4 -9.75 -8.2 -9.7 -7.95 -9.7 -7.9 -9.3 -8.45 M-8.25 -8.0 L-8.3 -8.1 -8.85 -7.65 -7.9 -7.65 -8.25 -8.0" fill="#957d23" fill-rule="evenodd" stroke="none"/>
    <path d="M-9.65 -2.25 L-10.1 -2.35 Q-10.75 -2.5 -11.0 -2.95 L-11.05 -3.15 -11.1 -3.45 -11.1 -4.45 Q-10.25 -3.4 -8.6 -3.45 L-6.95 -3.7 -7.4 -3.45 -7.9 -3.0 -8.05 -2.95 -8.35 -2.65 -8.5 -2.25 -9.3 -2.25 -9.65 -2.25 M-11.1 -6.0 Q-11.15 -6.95 -11.35 -7.6 L-9.95 -7.25 -10.1 -6.85 -9.85 -7.2 -9.6 -7.65 -9.0 -8.45 -8.45 -8.8 -8.0 -8.9 -7.35 -8.9 -6.65 -8.45 -6.6 -7.65 -6.65 -7.05 -6.65 -6.95 -7.15 -6.95 -7.1 -7.05 -7.05 -7.65 Q-6.9 -8.2 -7.25 -8.5 -7.6 -8.7 -8.05 -8.5 L-8.6 -8.3 -8.65 -8.15 -9.15 -7.65 -9.4 -7.2 -9.4 -7.1 -9.4 -6.95 -9.5 -6.85 -10.05 -6.75 -10.1 -6.85 -10.1 -6.75 -10.15 -6.45 -10.1 -6.25 -10.0 -6.15 -9.65 -6.1 -9.45 -6.05 -9.25 -6.55 -9.15 -7.15 -8.2 -7.05 -7.4 -7.05 -7.4 -6.15 -6.5 -6.15 -6.55 -6.95 -6.5 -7.05 -5.45 -7.1 -5.05 -7.1 -5.1 -6.55 -5.1 -6.5 -5.1 -6.3 -5.2 -6.0 -5.35 -5.5 -8.35 -5.15 Q-10.05 -5.05 -11.1 -6.0" fill="#ffdf34" fill-rule="evenodd" stroke="none"/>
    <path d="M-11.1 -4.45 L-11.1 -4.9 -11.1 -5.7 -11.1 -6.0 Q-10.05 -5.05 -8.35 -5.15 L-5.35 -5.5 -5.5 -4.95 -5.55 -4.2 -6.0 -4.15 -6.7 -3.8 -6.95 -3.7 -8.6 -3.45 Q-10.25 -3.4 -11.1 -4.45 M-6.65 -6.95 L-6.65 -6.45 -7.1 -6.4 -7.15 -6.9 -7.15 -6.95 -6.65 -6.95 M-9.5 -6.25 L-10.05 -6.25 -10.05 -6.75 -9.5 -6.85 -9.5 -6.25" fill="#ffb238" fill-rule="evenodd" stroke="none"/>
    <path d="M-5.2 -4.6 L-5.1 -4.75 -4.7 -5.45 -3.95 -6.55 -3.65 -6.95 -3.15 -7.45 -2.6 -7.9 -2.7 -7.75 -3.1 -7.45 -3.5 -6.9 -3.95 -6.2 -4.55 -5.4 -4.95 -4.65 -5.2 -4.2 -5.3 -4.15 Q-5.35 -4.1 -5.55 -4.0 L-5.95 -3.9 -6.3 -3.8 -6.6 -3.7 -7.3 -3.2 -7.6 -3.0 -7.9 -2.75 -8.3 -2.25 -8.5 -2.25 -8.35 -2.65 -8.05 -2.95 -7.9 -3.0 -7.4 -3.45 -6.95 -3.7 -6.7 -3.8 -6.0 -4.15 -5.55 -4.2 -5.45 -4.3 -5.3 -4.5 -5.2 -4.6 M-2.35 -7.95 L-2.1 -7.9 Q-1.5 -7.7 -1.1 -6.95 -0.95 -6.55 -1.1 -6.1 L-1.3 -5.7 -1.5 -5.2 -1.85 -3.2 -1.85 -2.5 -1.85 -2.35 -1.9 -2.25 -2.55 -2.25 -2.6 -2.35 -2.55 -3.0 -2.6 -3.95 -2.6 -4.3 Q-2.7 -4.6 -2.65 -4.35 L-3.0 -3.7 -3.2 -3.05 -3.2 -3.0 -3.45 -2.5 -3.6 -2.25 -3.85 -2.25 -3.6 -2.6 -3.5 -3.0 -3.45 -3.1 -3.4 -3.2 -3.35 -3.3 -3.3 -3.4 -3.3 -3.45 -3.25 -3.55 -3.25 -3.6 -3.15 -3.8 -3.05 -4.15 -2.4 -4.9 -1.6 -5.4 -1.2 -6.2 -1.15 -6.4 -1.25 -6.85 -1.45 -7.25 -1.5 -7.3 -1.85 -7.65 -2.1 -7.85 -2.1 -7.8 -2.35 -7.95 M-3.45 -5.6 L-3.6 -5.2 -3.9 -4.45 -3.95 -4.45 -4.5 -3.65 -4.8 -3.5 -4.9 -3.5 -4.2 -4.6 -3.95 -4.95 -3.45 -5.6 M-2.5 -4.55 L-2.4 -4.4 -2.35 -3.95 -2.35 -2.65 -2.1 -2.65 -2.05 -3.2 -1.65 -5.25 -2.5 -4.55" fill="#5f0b49" fill-rule="evenodd" stroke="none"/>
    <path d="M-2.7 -7.75 L-2.35 -7.95 -2.1 -7.8 -1.85 -7.25 -1.8 -6.55 Q-1.85 -6.15 -2.3 -5.7 L-3.05 -4.95 -3.3 -4.2 -3.35 -3.4 -3.35 -3.3 -3.4 -3.2 -3.45 -3.1 -3.5 -3.0 -3.6 -2.6 -3.85 -2.25 -6.4 -2.25 Q-6.25 -2.4 -6.25 -2.6 L-6.4 -2.85 -6.85 -3.0 -7.3 -2.85 -7.45 -2.6 -7.3 -2.25 -8.3 -2.25 -7.9 -2.75 -7.6 -3.0 -7.3 -3.2 -6.6 -3.7 -6.3 -3.8 -5.95 -3.9 -5.55 -4.0 Q-5.35 -4.1 -5.3 -4.15 L-5.2 -4.2 -4.95 -4.65 -4.55 -5.4 -3.95 -6.2 -3.5 -6.9 -3.1 -7.45 -2.7 -7.75 M-3.45 -5.6 L-3.15 -6.2 -2.55 -7.25 Q-2.3 -7.7 -2.4 -7.75 L-2.95 -7.35 -3.85 -6.25 -3.95 -6.15 -4.7 -4.85 -4.85 -4.45 -4.9 -4.45 -5.1 -4.15 -5.25 -3.95 -5.3 -3.95 -5.5 -3.85 -5.55 -3.85 -5.7 -3.8 -5.85 -3.8 -5.9 -3.8 -6.3 -3.6 Q-6.3 -3.45 -5.8 -3.45 L-5.7 -3.45 -4.9 -3.5 -4.8 -3.5 -4.5 -3.65 -3.95 -4.45 -3.9 -4.45 -3.6 -5.2 -3.45 -5.6" fill="#d63795" fill-rule="evenodd" stroke="none"/>
    <path d="M-4.9 -3.5 L-5.7 -3.45 -5.8 -3.45 Q-6.3 -3.45 -6.3 -3.6 L-5.9 -3.8 -5.85 -3.8 -5.7 -3.8 -5.55 -3.85 -5.5 -3.85 -5.3 -3.95 -5.25 -3.95 -5.1 -4.15 -4.9 -4.45 -4.85 -4.45 -4.7 -4.85 -3.95 -6.15 -3.85 -6.25 -2.95 -7.35 -2.4 -7.75 Q-2.3 -7.7 -2.55 -7.25 L-3.15 -6.2 -3.45 -5.6 -3.95 -4.95 -4.2 -4.6 -4.9 -3.5 M-3.35 -3.4 L-3.3 -4.2 -3.05 -4.95 -2.3 -5.7 Q-1.85 -6.15 -1.8 -6.55 L-1.85 -7.25 -2.1 -7.8 -2.1 -7.85 -1.85 -7.65 -1.5 -7.3 -1.45 -7.25 -1.25 -6.85 -1.15 -6.4 -1.2 -6.2 -1.6 -5.4 -2.4 -4.9 -3.05 -4.15 -3.15 -3.8 -3.25 -3.6 -3.25 -3.55 -3.3 -3.45 -3.3 -3.4 -3.35 -3.4 M-2.5 -4.55 L-1.65 -5.25 -2.05 -3.2 -2.1 -2.65 -2.35 -2.65 -2.35 -3.95 -2.4 -4.4 -2.5 -4.55" fill="#9f2e7d" fill-rule="evenodd" stroke="none"/>
    <path d="M-7.3 -2.25 L-7.45 -2.6 -7.3 -2.85 -6.85 -3.0 -6.4 -2.85 -6.25 -2.6 Q-6.25 -2.4 -6.4 -2.25 L-7.3 -2.25" fill="#fde1f0" fill-rule="evenodd" stroke="none"/>
    <path d="M0.6 3.2 L0.3 3.95 -0.45 4.2 -1.2 3.95 -1.5 3.2 -1.2 2.45 Q-0.9 2.05 -0.45 2.05 0.0 2.05 0.3 2.45 L0.6 3.2" fill="#ffffff" fill-rule="evenodd" stroke="none"/>
  </g>
</svg>
