<?xml version="1.0" encoding="UTF-8" standalone="no"?>
<svg xmlns:ffdec="https://www.free-decompiler.com/flash" xmlns:xlink="http://www.w3.org/1999/xlink" ffdec:objectType="shape" height="23.9px" width="25.0px" xmlns="http://www.w3.org/2000/svg">
  <g transform="matrix(1.0, 0.0, 0.0, 1.0, 12.5, 11.95)">
    <path d="M6.25 -8.85 L0.0 -5.75 -6.25 -8.85 0.0 -11.95 6.25 -8.85 M-0.05 -7.7 L2.0 -8.75 2.0 -9.8 -0.05 -8.75 -2.15 -9.8 -2.15 -8.75 -0.05 -7.7" fill="#ec248c" fill-rule="evenodd" stroke="none"/>
    <path d="M6.25 -8.85 L6.25 -1.6 0.0 1.55 0.0 -5.75 6.25 -8.85 M-0.05 -8.75 L2.0 -9.8 2.0 -8.75 -0.05 -7.7 -0.05 -8.75" fill="#992967" fill-rule="evenodd" stroke="none"/>
    <path d="M12.5 1.55 L12.5 8.8 6.25 11.95 6.25 4.65 12.5 1.55" fill="#9bdaf1" fill-rule="evenodd" stroke="none"/>
    <path d="M6.25 11.95 L0.0 8.8 0.0 1.55 6.25 4.65 6.25 11.95 M6.15 1.65 L6.15 2.7 4.05 1.65 4.05 0.6 6.15 1.65" fill="#c6e8f3" fill-rule="evenodd" stroke="none"/>
    <path d="M6.15 2.7 L6.15 1.65 8.25 0.6 8.25 1.65 6.15 2.7" fill="#9cdaf1" fill-rule="evenodd" stroke="none"/>
    <path d="M6.15 1.65 L4.05 0.6 6.15 -0.45 8.25 0.6 6.15 1.65" fill="#ffffff" fill-rule="evenodd" stroke="none"/>
    <path d="M0.0 1.55 L6.25 -1.6 12.5 1.55 6.25 4.65 0.0 1.55 M4.05 0.6 L4.05 1.65 6.15 2.7 8.25 1.65 8.25 0.6 6.15 -0.45 4.05 0.6" fill="#f4fafd" fill-rule="evenodd" stroke="none"/>
    <path d="M0.0 8.8 L-6.25 11.95 -6.25 4.65 0.0 1.55 0.0 8.8 M-6.3 2.7 L-6.3 1.65 -4.25 0.6 -4.25 1.65 -6.3 2.7" fill="#aad287" fill-rule="evenodd" stroke="none"/>
    <path d="M0.0 -5.75 L0.0 1.55 -6.25 -1.6 -6.25 -8.85 0.0 -5.75 M-0.05 -7.7 L-2.15 -8.75 -2.15 -9.8 -0.05 -8.75 -0.05 -7.7" fill="#c23b7f" fill-rule="evenodd" stroke="none"/>
    <path d="M-12.5 1.55 L-6.25 -1.6 0.0 1.55 -6.25 4.65 -12.5 1.55 M-6.3 1.65 L-8.4 0.6 -8.4 1.65 -6.3 2.7 -4.25 1.65 -4.25 0.6 -6.3 1.65" fill="#f4f1bd" fill-rule="evenodd" stroke="none"/>
    <path d="M-6.25 11.95 L-12.5 8.8 -12.5 1.55 -6.25 4.65 -6.25 11.95 M-6.3 1.65 L-6.3 2.7 -8.4 1.65 -8.4 0.6 -6.3 1.65" fill="#d0e186" fill-rule="evenodd" stroke="none"/>
  </g>
</svg>
