<?xml version="1.0" encoding="UTF-8" standalone="no"?>
<svg xmlns:ffdec="https://www.free-decompiler.com/flash" xmlns:xlink="http://www.w3.org/1999/xlink" ffdec:objectType="shape" height="25.0px" width="24.7px" xmlns="http://www.w3.org/2000/svg">
  <g transform="matrix(1.0, 0.0, 0.0, 1.0, 12.35, 12.5)">
    <path d="M6.4 -11.9 Q6.15 -11.5 6.15 -11.1 6.15 -10.45 6.6 -10.05 7.05 -9.7 7.6 -9.7 8.2 -9.7 8.6 -10.05 9.05 -10.45 9.05 -11.1 L8.9 -11.65 10.35 -10.7 11.35 -9.2 10.85 -9.3 Q10.2 -9.3 9.85 -8.9 9.35 -8.45 9.35 -7.9 9.35 -7.3 9.85 -6.9 10.2 -6.45 10.85 -6.45 L11.6 -6.7 11.6 -4.1 10.85 -4.3 Q10.2 -4.3 9.85 -3.9 9.35 -3.45 9.35 -2.9 9.35 -2.3 9.85 -1.9 10.2 -1.45 10.85 -1.45 L11.6 -1.7 11.6 0.9 10.85 0.7 Q10.2 0.7 9.85 1.1 9.35 1.55 9.35 2.1 9.35 2.7 9.85 3.1 10.2 3.55 10.85 3.55 L11.6 3.3 11.6 5.9 10.85 5.65 Q10.2 5.65 9.85 6.05 9.35 6.5 9.35 7.05 9.35 7.7 9.85 8.1 10.2 8.55 10.85 8.55 L11.3 8.45 10.35 9.8 Q9.75 10.4 8.95 10.7 L9.05 10.3 Q9.05 9.7 8.6 9.3 8.2 8.85 7.6 8.85 7.05 8.85 6.6 9.3 6.15 9.7 6.15 10.3 L6.35 11.0 3.85 11.0 4.05 10.3 Q4.05 9.7 3.6 9.3 3.2 8.85 2.6 8.85 2.05 8.85 1.6 9.3 1.2 9.7 1.2 10.3 L1.35 11.0 -1.15 11.0 -0.95 10.3 Q-0.95 9.7 -1.4 9.3 -1.8 8.85 -2.4 8.85 -3.0 8.85 -3.4 9.3 -3.8 9.7 -3.8 10.3 L-3.65 11.0 -6.1 11.0 -5.95 10.3 Q-5.95 9.7 -6.35 9.3 -6.8 8.85 -7.35 8.85 -8.0 8.85 -8.35 9.3 -8.8 9.7 -8.8 10.3 L-8.75 10.7 -10.1 9.8 -11.05 8.45 -10.55 8.55 Q-10.0 8.55 -9.55 8.1 -9.15 7.7 -9.15 7.05 -9.15 6.5 -9.55 6.05 -10.0 5.65 -10.55 5.65 L-11.3 5.85 -11.3 4.25 -11.3 3.5 -10.95 3.55 Q-10.35 3.55 -9.95 3.1 -9.55 2.7 -9.55 2.1 -9.55 1.55 -9.95 1.1 -10.35 0.7 -10.95 0.7 L-11.3 0.75 -11.3 -0.75 -11.3 -1.5 -10.95 -1.45 Q-10.35 -1.45 -9.95 -1.9 -9.55 -2.3 -9.55 -2.9 L-9.95 -3.9 Q-10.35 -4.3 -10.95 -4.3 L-11.3 -4.25 -11.3 -5.95 -11.3 -6.65 -10.55 -6.45 Q-10.0 -6.45 -9.55 -6.9 -9.15 -7.3 -9.15 -7.9 -9.15 -8.45 -9.55 -8.9 -10.0 -9.3 -10.55 -9.3 L-11.05 -9.2 -10.1 -10.7 Q-9.55 -11.3 -8.7 -11.6 L-8.8 -11.1 Q-8.8 -10.45 -8.35 -10.05 -8.0 -9.7 -7.35 -9.7 -6.8 -9.7 -6.35 -10.05 -5.95 -10.45 -5.95 -11.1 L-6.2 -11.9 -3.55 -11.9 -3.8 -11.1 Q-3.8 -10.45 -3.4 -10.05 -3.0 -9.7 -2.4 -9.7 -1.8 -9.7 -1.4 -10.05 -0.95 -10.45 -0.95 -11.1 L-1.2 -11.9 1.4 -11.9 1.2 -11.1 Q1.2 -10.45 1.6 -10.05 2.05 -9.7 2.6 -9.7 3.2 -9.7 3.6 -10.05 4.05 -10.45 4.05 -11.1 L3.8 -11.9 6.4 -11.9 M9.05 -7.85 L8.6 -8.95 Q8.15 -9.35 7.55 -9.35 L-7.3 -9.35 Q-7.9 -9.35 -8.35 -8.95 L-8.8 -7.85 -8.8 6.95 -8.35 8.05 Q-7.9 8.45 -7.3 8.45 L7.55 8.45 Q8.15 8.45 8.6 8.05 L9.05 6.95 9.05 -7.85" fill="#825428" fill-rule="evenodd" stroke="none"/>
    <path d="M8.9 -11.65 L9.05 -11.1 Q9.05 -10.45 8.6 -10.05 8.2 -9.7 7.6 -9.7 7.05 -9.7 6.6 -10.05 6.15 -10.45 6.15 -11.1 6.15 -11.5 6.4 -11.9 6.85 -12.5 7.6 -12.5 L8.4 -12.25 8.9 -11.65 M-1.2 -11.9 L-0.95 -11.1 Q-0.95 -10.45 -1.4 -10.05 -1.8 -9.7 -2.4 -9.7 -3.0 -9.7 -3.4 -10.05 -3.8 -10.45 -3.8 -11.1 L-3.55 -11.9 Q-3.15 -12.5 -2.4 -12.5 -1.65 -12.5 -1.2 -11.9 M-11.05 -9.2 L-10.55 -9.3 Q-10.0 -9.3 -9.55 -8.9 -9.15 -8.45 -9.15 -7.9 -9.15 -7.3 -9.55 -6.9 -10.0 -6.45 -10.55 -6.45 L-11.3 -6.65 -11.9 -7.3 -12.05 -7.9 -11.75 -8.7 Q-11.5 -9.1 -11.05 -9.2 M-11.3 0.75 L-10.95 0.7 Q-10.35 0.7 -9.95 1.1 -9.55 1.55 -9.55 2.1 -9.55 2.7 -9.95 3.1 -10.35 3.55 -10.95 3.55 L-11.3 3.5 -12.25 2.65 -12.35 2.1 -12.05 1.25 Q-11.8 0.85 -11.3 0.75 M-8.75 10.7 L-8.8 10.3 Q-8.8 9.7 -8.35 9.3 -8.0 8.85 -7.35 8.85 -6.8 8.85 -6.35 9.3 -5.95 9.7 -5.95 10.3 L-6.1 11.0 -6.65 11.55 -7.35 11.75 -8.25 11.45 -8.75 10.7 M1.35 11.0 L1.2 10.3 Q1.2 9.7 1.6 9.3 2.05 8.85 2.6 8.85 3.2 8.85 3.6 9.3 4.05 9.7 4.05 10.3 L3.85 11.0 3.35 11.55 2.6 11.75 1.85 11.55 1.35 11.0 M11.3 8.45 L10.85 8.55 Q10.2 8.55 9.85 8.1 9.35 7.7 9.35 7.05 9.35 6.5 9.85 6.05 10.2 5.65 10.85 5.65 L11.6 5.9 11.65 5.95 Q12.25 6.35 12.25 7.05 L12.2 7.3 11.9 8.0 11.3 8.45 M11.6 -1.7 L10.85 -1.45 Q10.2 -1.45 9.85 -1.9 9.35 -2.3 9.35 -2.9 9.35 -3.45 9.85 -3.9 10.2 -4.3 10.85 -4.3 L11.6 -4.1 11.65 -4.0 Q12.25 -3.6 12.25 -2.9 L12.2 -2.7 Q12.15 -2.0 11.6 -1.7" fill="#ffdb00" fill-rule="evenodd" stroke="none"/>
    <path d="M3.8 -11.9 L4.05 -11.1 Q4.05 -10.45 3.6 -10.05 3.2 -9.7 2.6 -9.7 2.05 -9.7 1.6 -10.05 1.2 -10.45 1.2 -11.1 L1.4 -11.9 Q1.85 -12.5 2.6 -12.5 3.35 -12.5 3.8 -11.9 M-6.2 -11.9 L-5.95 -11.1 Q-5.95 -10.45 -6.35 -10.05 -6.8 -9.7 -7.35 -9.7 -8.0 -9.7 -8.35 -10.05 -8.8 -10.45 -8.8 -11.1 L-8.7 -11.6 -8.2 -12.25 -7.35 -12.5 Q-6.6 -12.5 -6.2 -11.9 M-11.3 -4.25 L-10.95 -4.3 Q-10.35 -4.3 -9.95 -3.9 L-9.55 -2.9 Q-9.55 -2.3 -9.95 -1.9 -10.35 -1.45 -10.95 -1.45 L-11.3 -1.5 Q-11.95 -1.7 -12.25 -2.35 L-12.35 -2.9 -12.05 -3.75 -11.3 -4.25 M-11.3 5.85 L-10.55 5.65 Q-10.0 5.65 -9.55 6.05 -9.15 6.5 -9.15 7.05 -9.15 7.7 -9.55 8.1 -10.0 8.55 -10.55 8.55 L-11.05 8.45 -11.9 7.65 -12.05 7.05 -11.8 6.35 -11.3 5.85 M-3.65 11.0 L-3.8 10.3 Q-3.8 9.7 -3.4 9.3 -3.0 8.85 -2.4 8.85 -1.8 8.85 -1.4 9.3 -0.95 9.7 -0.95 10.3 L-1.15 11.0 -1.65 11.55 -2.4 11.75 -3.15 11.55 -3.65 11.0 M6.35 11.0 L6.15 10.3 Q6.15 9.7 6.6 9.3 7.05 8.85 7.6 8.85 8.2 8.85 8.6 9.3 9.05 9.7 9.05 10.3 L8.95 10.7 8.45 11.45 7.6 11.75 6.85 11.55 6.35 11.0 M11.6 3.3 L10.85 3.55 Q10.2 3.55 9.85 3.1 9.35 2.7 9.35 2.1 9.35 1.55 9.85 1.1 10.2 0.7 10.85 0.7 L11.6 0.9 11.65 0.95 Q12.25 1.4 12.25 2.1 L12.2 2.3 Q12.15 3.0 11.6 3.3 M11.6 -6.7 L10.85 -6.45 Q10.2 -6.45 9.85 -6.9 9.35 -7.3 9.35 -7.9 9.35 -8.45 9.85 -8.9 10.2 -9.3 10.85 -9.3 L11.35 -9.2 12.0 -8.7 12.25 -7.9 12.2 -7.7 Q12.15 -7.0 11.6 -6.7 M0.85 -0.85 L0.8 -1.0 0.85 -1.2 1.05 -1.25 1.2 -1.2 1.3 -1.0 1.2 -0.85 1.05 -0.75 Q0.9 -0.75 0.85 -0.85" fill="#ffffff" fill-rule="evenodd" stroke="none"/>
    <path d="M-11.3 -6.65 L-11.3 -5.95 Q-11.9 -6.4 -11.9 -7.1 L-11.9 -7.3 -11.3 -6.65 M-11.3 -1.5 L-11.3 -0.75 -12.0 -1.3 -12.3 -2.1 -12.25 -2.35 Q-11.95 -1.7 -11.3 -1.5 M-11.3 3.5 L-11.3 4.25 -12.0 3.7 -12.3 2.85 -12.25 2.65 -11.3 3.5 M-11.05 8.45 L-10.1 9.8 -8.75 10.7 -8.25 11.45 -7.35 11.75 -6.65 11.55 -6.1 11.0 -3.65 11.0 -3.15 11.55 -2.4 11.75 -1.65 11.55 -1.15 11.0 1.35 11.0 1.85 11.55 2.6 11.75 3.35 11.55 3.85 11.0 6.35 11.0 6.85 11.55 7.6 11.75 8.45 11.45 8.95 10.7 Q9.75 10.4 10.35 9.8 L11.3 8.45 11.9 8.0 12.2 7.3 12.35 7.85 12.05 8.7 11.35 9.2 Q11.1 10.0 10.45 10.55 L9.1 11.5 8.6 12.2 7.7 12.5 6.95 12.3 6.45 11.75 3.95 11.75 3.45 12.3 2.7 12.5 1.95 12.3 1.45 11.75 -1.0 11.75 -1.55 12.3 -2.25 12.5 -3.0 12.3 -3.55 11.75 -6.0 11.75 -6.55 12.3 -7.3 12.5 -8.15 12.2 -8.65 11.45 -10.0 10.55 -10.9 9.25 Q-11.35 9.05 -11.6 8.7 L-11.9 7.85 -11.9 7.65 -11.05 8.45 M11.6 5.9 L11.6 3.3 Q12.15 3.0 12.2 2.3 L12.35 2.85 12.15 3.55 11.65 4.05 11.65 5.95 11.6 5.9 M11.6 0.9 L11.6 -1.7 Q12.15 -2.0 12.2 -2.7 L12.35 -2.1 12.15 -1.45 11.65 -0.95 11.65 0.95 11.6 0.9 M11.6 -4.1 L11.6 -6.7 Q12.15 -7.0 12.2 -7.7 L12.35 -7.1 Q12.35 -6.3 11.65 -5.9 L11.65 -4.0 11.6 -4.1 M9.05 -7.85 L9.05 6.95 8.6 8.05 Q8.15 8.45 7.55 8.45 L-7.3 8.45 Q-7.9 8.45 -8.35 8.05 L-8.8 6.95 -8.8 -7.85 -8.35 -8.95 Q-7.9 -9.35 -7.3 -9.35 L7.55 -9.35 Q8.15 -9.35 8.6 -8.95 L9.05 -7.85 M8.8 -7.85 L8.45 -8.7 Q8.1 -9.1 7.55 -9.1 L-7.3 -9.1 Q-7.8 -9.1 -8.15 -8.7 -8.55 -8.4 -8.55 -7.85 L-8.55 6.95 Q-8.55 7.5 -8.15 7.85 -7.8 8.2 -7.3 8.2 L7.55 8.2 Q8.1 8.2 8.45 7.85 L8.8 6.95 8.8 -7.85" fill="#000000" fill-rule="evenodd" stroke="none"/>
    <path d="M8.8 -7.85 L8.8 6.95 8.45 7.85 Q8.1 8.2 7.55 8.2 L-7.3 8.2 Q-7.8 8.2 -8.15 7.85 -8.55 7.5 -8.55 6.95 L-8.55 -7.85 Q-8.55 -8.4 -8.15 -8.7 -7.8 -9.1 -7.3 -9.1 L7.55 -9.1 Q8.1 -9.1 8.45 -8.7 L8.8 -7.85 M7.85 -7.55 L7.6 -8.35 7.15 -8.3 4.6 -7.7 Q3.15 -7.15 2.8 -6.05 L1.55 -3.2 0.05 -3.9 -0.4 -3.9 -0.85 -3.75 -1.8 -3.35 -2.0 -3.45 -2.05 -3.6 -2.8 -4.7 -3.95 -6.2 Q-5.35 -7.85 -6.7 -8.1 L-6.85 -8.1 -7.0 -7.95 -7.25 -7.55 -7.55 -6.75 -7.5 -5.55 Q-7.25 -4.7 -6.1 -4.1 -5.9 -3.95 -5.25 -3.7 L-4.45 -3.25 -4.0 -2.9 -3.8 -2.6 -3.7 -2.45 -3.75 -2.25 Q-3.75 -2.2 -3.85 -2.2 L-5.35 -0.45 -5.95 0.45 -6.05 0.55 -6.15 0.8 -6.0 1.1 -5.2 1.85 -4.3 2.5 -2.75 3.55 -2.0 4.05 -1.65 4.75 Q-1.5 5.05 -1.6 5.45 -1.8 6.3 -2.35 6.95 L-2.75 7.35 -2.7 7.55 -2.5 7.65 0.65 7.65 0.8 7.65 1.0 7.65 1.35 6.7 Q1.35 6.6 1.7 6.6 L2.05 6.6 3.0 6.8 2.45 7.0 1.9 7.15 1.55 7.3 1.55 7.55 1.8 7.65 2.05 7.65 5.2 7.65 5.3 7.55 5.65 7.05 Q5.7 6.95 5.8 7.0 L6.05 7.0 6.6 7.0 7.25 6.75 7.65 6.25 Q7.85 5.75 7.6 5.2 L6.95 4.4 Q6.35 3.95 5.65 4.1 5.0 4.25 4.5 4.85 3.65 4.2 3.45 3.3 3.3 2.7 3.45 2.45 L3.8 1.95 4.5 0.55 4.6 0.3 4.6 0.05 3.75 -1.45 4.45 -2.2 5.25 -2.7 6.0 -3.2 Q7.15 -4.2 7.65 -5.95 L7.85 -7.55" fill="#f2f2f2" fill-rule="evenodd" stroke="none"/>
    <path d="M7.85 -7.55 L7.65 -5.95 Q7.15 -4.2 6.0 -3.2 L5.25 -2.7 4.45 -2.2 3.75 -1.45 4.6 0.05 4.6 0.3 4.5 0.55 3.8 1.95 3.45 2.45 Q3.3 2.7 3.45 3.3 3.65 4.2 4.5 4.85 5.0 4.25 5.65 4.1 6.35 3.95 6.95 4.4 L7.6 5.2 Q7.85 5.75 7.65 6.25 L7.25 6.75 6.6 7.0 6.05 7.0 5.8 7.0 Q5.7 6.95 5.65 7.05 L5.3 7.55 5.2 7.65 2.05 7.65 1.8 7.65 1.55 7.55 1.55 7.3 1.9 7.15 2.45 7.0 3.0 6.8 2.05 6.6 1.7 6.6 Q1.35 6.6 1.35 6.7 L1.0 7.65 0.8 7.65 0.65 7.65 -2.5 7.65 -2.7 7.55 -2.75 7.35 -2.35 6.95 Q-1.8 6.3 -1.6 5.45 -1.5 5.05 -1.65 4.75 L-2.0 4.05 -2.75 3.55 -4.3 2.5 -5.2 1.85 -6.0 1.1 -6.15 0.8 -6.05 0.55 -5.95 0.45 -5.35 -0.45 -3.85 -2.2 Q-3.75 -2.2 -3.75 -2.25 L-3.7 -2.45 -3.8 -2.6 -4.0 -2.9 -4.45 -3.25 -5.25 -3.7 Q-5.9 -3.95 -6.1 -4.1 -7.25 -4.7 -7.5 -5.55 L-7.55 -6.75 -7.25 -7.55 -7.0 -7.95 -6.85 -8.1 -6.7 -8.1 Q-5.35 -7.85 -3.95 -6.2 L-2.8 -4.7 -2.05 -3.6 -2.0 -3.45 -1.8 -3.35 -0.85 -3.75 -0.4 -3.9 0.05 -3.9 1.55 -3.2 2.8 -6.05 Q3.15 -7.15 4.6 -7.7 L7.15 -8.3 7.6 -8.35 7.85 -7.55 M3.3 -1.6 L3.7 -2.05 4.35 -2.6 4.4 -2.65 4.7 -2.8 4.75 -2.85 5.7 -3.45 6.05 -3.7 Q6.7 -4.4 7.15 -5.4 L7.35 -5.95 7.4 -6.25 7.5 -7.4 7.35 -7.9 7.35 -7.95 7.3 -8.05 6.65 -7.9 5.2 -7.5 4.35 -7.1 3.85 -6.75 3.65 -6.65 3.4 -6.35 3.35 -6.3 3.0 -5.65 2.8 -5.2 2.7 -4.9 2.65 -4.8 2.65 -4.75 1.8 -2.95 1.6 -2.75 1.15 -3.0 1.1 -3.05 0.25 -3.45 -0.2 -3.6 -0.65 -3.45 -0.75 -3.45 -1.05 -3.35 -2.35 -2.7 -3.25 -2.1 -3.5 -1.95 -4.5 -0.95 -5.0 -0.35 -5.05 -0.3 -5.75 0.7 -5.7 0.8 -5.6 0.85 -5.6 0.9 -5.3 1.25 -4.25 2.2 -2.4 3.55 -2.15 3.7 -1.2 4.15 -0.75 4.35 -1.3 4.55 -1.4 4.6 -1.4 4.75 -1.4 4.9 -1.35 5.05 -1.4 5.3 -1.4 5.35 Q-1.5 6.3 -2.1 7.4 L-1.85 7.4 -1.7 7.3 -1.15 6.7 Q-0.9 6.3 -1.0 6.05 L-1.4 5.55 -0.95 5.75 -0.55 5.9 0.1 6.05 -0.9 7.4 -0.15 7.4 -0.1 7.4 0.3 7.45 0.6 7.4 1.1 6.6 1.2 6.55 1.75 6.45 1.75 6.4 1.15 5.85 1.1 5.7 1.1 5.55 1.2 5.35 1.2 5.3 1.35 5.1 1.4 5.05 1.35 5.2 1.35 5.5 1.4 5.55 1.45 5.7 1.65 5.9 1.7 5.9 1.75 6.0 1.8 6.0 1.85 6.05 1.95 6.1 2.05 6.2 2.1 6.2 2.3 6.3 2.35 6.3 3.35 6.6 3.4 6.6 3.55 6.75 2.3 7.4 4.6 7.45 4.65 7.4 4.8 7.4 4.95 7.35 5.1 7.25 5.15 7.25 5.15 7.1 4.85 6.5 5.35 6.75 6.5 6.75 6.85 6.6 6.9 6.55 6.95 6.55 7.0 6.5 7.15 6.4 7.2 6.3 7.35 6.2 7.35 6.05 Q7.55 5.55 7.15 5.0 L6.65 4.55 6.6 4.55 6.3 4.4 6.15 4.35 6.0 4.3 5.75 4.3 Q5.2 4.4 4.8 4.9 4.55 5.25 4.55 5.7 L4.8 6.35 4.6 6.3 4.5 6.2 4.4 6.15 4.4 6.1 4.3 6.05 4.3 6.0 4.2 5.75 4.2 5.5 4.3 5.3 4.3 5.25 4.35 5.15 4.3 5.1 4.2 4.95 3.8 4.55 3.4 4.0 3.35 3.95 3.35 3.85 3.15 3.5 3.1 3.5 2.45 3.4 3.35 1.9 4.0 0.65 4.05 0.55 4.25 0.15 4.2 0.05 3.55 -1.0 3.3 -1.45 3.3 -1.6 M-3.5 0.85 L-3.5 0.7 -3.45 0.8 -3.3 0.8 -2.9 0.8 -2.35 0.7 -1.5 0.4 -1.2 0.3 -0.85 0.2 -0.75 0.2 -0.5 0.3 -0.25 0.9 -0.25 0.95 -0.2 1.05 0.1 1.85 0.0 2.0 -1.5 2.3 -1.65 2.3 -1.7 2.3 -1.85 2.25 -1.95 2.2 -2.0 1.95 -2.4 1.35 -2.5 1.2 -2.6 1.0 -2.7 1.0 -3.05 1.05 -3.15 1.0 -3.2 1.0 -3.5 0.85 M-0.75 0.8 L-0.8 0.55 -0.8 0.45 -1.5 0.65 -1.45 0.7 -1.25 1.05 -1.2 1.15 -1.15 1.2 -1.1 1.25 -1.0 1.5 -0.8 1.8 -0.8 1.9 -0.25 1.8 -0.35 1.5 -0.75 0.8 M-1.5 1.2 L-1.75 0.8 -1.85 0.8 -2.25 0.9 -2.35 0.95 -2.1 1.25 -2.0 1.3 -2.0 1.35 -1.8 1.7 -1.8 1.75 -1.65 2.0 -1.6 2.05 -1.1 1.95 -1.2 1.85 -1.5 1.25 -1.5 1.2" fill="#8b7d4c" fill-rule="evenodd" stroke="none"/>
    <path d="M6.65 -7.9 L7.3 -8.05 7.35 -7.95 7.35 -7.9 7.5 -7.4 7.4 -6.25 7.35 -5.95 7.15 -5.4 Q6.7 -4.4 6.05 -3.7 L5.7 -3.45 4.75 -2.85 4.7 -2.8 4.4 -2.65 4.35 -2.6 3.7 -2.05 3.3 -1.6 3.25 -1.55 3.15 -1.55 Q3.4 -2.15 4.3 -3.15 L5.5 -3.95 5.55 -3.95 5.95 -4.3 6.1 -4.5 Q6.7 -5.25 7.0 -6.5 L7.05 -6.7 6.75 -6.6 6.7 -6.6 6.5 -6.55 Q7.2 -7.2 6.65 -7.9 M3.55 -1.0 L4.2 0.05 4.25 0.15 4.2 0.25 4.05 0.55 4.0 0.65 3.35 1.9 2.45 3.4 3.1 3.5 3.15 3.5 3.35 3.85 Q1.15 3.3 -0.85 4.5 L-1.2 5.05 -0.95 5.75 -1.4 5.55 -1.0 6.05 Q-0.9 6.3 -1.15 6.7 L-1.7 7.3 -1.85 7.4 -2.1 7.4 Q-1.5 6.3 -1.4 5.35 L-1.4 5.3 -1.35 5.05 -1.4 4.9 -1.4 4.75 -1.4 4.6 -1.3 4.55 -0.75 4.35 -1.2 4.15 -2.35 3.55 -1.9 3.7 -1.25 3.85 -1.1 3.85 -1.05 3.85 0.4 3.5 Q1.7 2.95 2.6 1.75 3.65 0.4 3.55 -1.0 M4.5 6.2 L4.6 6.3 4.8 6.35 4.55 5.7 4.95 6.0 5.8 6.05 6.45 5.5 6.45 4.9 6.15 4.35 6.3 4.4 6.6 4.55 6.65 4.55 7.15 5.0 Q7.55 5.55 7.35 6.05 L7.35 6.2 7.2 6.3 7.15 6.4 7.0 6.5 6.95 6.55 6.9 6.55 6.85 6.6 6.5 6.75 5.35 6.75 4.85 6.5 5.15 7.1 5.15 7.25 5.1 7.25 4.95 7.35 4.8 7.4 4.65 7.4 4.6 7.45 3.8 7.4 Q4.4 6.9 4.5 6.2 M1.15 5.85 L1.75 6.4 1.75 6.45 1.2 6.55 1.1 6.6 0.6 7.4 0.3 7.45 -0.1 7.4 -0.15 7.4 Q0.8 6.8 1.15 5.85 M0.1 1.85 L0.15 2.25 -1.6 2.75 Q-1.5 2.55 -1.7 2.3 L-1.65 2.3 -1.5 2.3 0.0 2.0 0.1 1.85 M-2.4 1.35 L-3.25 1.0 -3.2 1.0 -3.15 1.0 -3.05 1.05 -2.75 1.05 -2.6 1.0 -2.5 1.2 -2.5 1.25 -2.4 1.35" fill="#d9cea9" fill-rule="evenodd" stroke="none"/>
    <path d="M3.3 -1.45 L3.55 -1.0 Q3.65 0.4 2.6 1.75 1.7 2.95 0.4 3.5 L-1.05 3.85 -1.1 3.85 -1.25 3.85 -1.9 3.7 -2.35 3.55 -2.4 3.55 -4.25 2.2 -5.3 1.25 -5.6 0.9 -5.6 0.85 -5.7 0.8 -5.75 0.7 -4.5 -0.95 -3.5 -1.95 -3.25 -2.1 -2.35 -2.7 -1.05 -3.35 -0.75 -3.45 -0.65 -3.45 -0.2 -3.6 0.25 -3.45 1.6 -2.75 1.8 -2.95 2.65 -4.75 2.65 -4.8 2.7 -4.9 2.8 -5.2 3.0 -5.65 3.35 -6.3 3.4 -6.35 3.65 -6.65 3.85 -6.75 4.35 -7.1 5.2 -7.5 6.65 -7.9 Q7.2 -7.2 6.5 -6.55 5.8 -6.35 5.15 -5.8 L4.95 -5.65 4.7 -5.35 4.6 -5.25 Q3.8 -4.4 3.25 -2.55 L3.25 -2.45 4.05 -3.05 4.1 -3.05 4.3 -3.15 Q3.4 -2.15 3.15 -1.55 L3.25 -1.55 3.25 -1.5 3.3 -1.45 M3.35 3.85 L3.35 3.95 3.4 4.0 3.8 4.55 4.3 5.1 4.35 5.15 4.3 5.25 4.3 5.3 4.2 5.5 4.2 5.75 4.3 6.0 4.3 6.05 4.4 6.1 4.4 6.15 4.5 6.2 Q4.4 6.9 3.8 7.4 L2.3 7.4 3.55 6.75 3.4 6.6 3.35 6.6 2.35 6.3 2.3 6.3 2.1 6.2 2.05 6.2 1.95 6.1 1.85 6.05 1.8 6.0 1.75 6.0 1.7 5.9 1.65 5.9 1.45 5.7 1.4 5.55 1.35 5.5 1.35 5.2 1.4 5.05 1.35 5.1 1.2 5.3 1.2 5.35 1.1 5.55 1.1 5.7 1.15 5.85 Q0.8 6.8 -0.15 7.4 L-0.9 7.4 0.1 6.05 -0.55 5.9 -0.95 5.75 -1.2 5.05 -0.85 4.5 Q1.15 3.3 3.35 3.85 M4.55 5.7 Q4.55 5.25 4.8 4.9 5.2 4.4 5.75 4.3 L6.0 4.3 6.15 4.35 6.45 4.9 6.45 5.5 5.8 6.05 4.95 6.0 4.55 5.7 M-0.2 1.05 L-0.25 0.95 -0.25 0.9 -0.5 0.3 -0.75 0.2 -0.85 0.2 -1.2 0.3 -1.5 0.4 -2.35 0.7 -2.9 0.8 -3.3 0.8 -3.45 0.8 -3.5 0.7 -3.5 0.85 -3.25 1.0 -2.4 1.35 -2.0 1.95 -1.95 2.2 -1.85 2.25 -1.7 2.3 Q-1.5 2.55 -1.6 2.75 L0.15 2.25 0.1 1.85 0.0 1.45 -0.2 1.05 M1.7 -0.7 L1.4 -1.45 0.6 -1.7 -0.15 -1.45 -0.45 -0.7 -0.15 0.1 0.6 0.4 Q1.05 0.4 1.4 0.1 L1.7 -0.7" fill="#fff4cf" fill-rule="evenodd" stroke="none"/>
    <path d="M6.5 -6.55 L6.7 -6.6 6.75 -6.6 7.05 -6.7 7.0 -6.5 Q6.7 -5.25 6.1 -4.5 L5.95 -4.3 5.55 -3.95 5.5 -3.95 4.3 -3.15 4.1 -3.05 4.05 -3.05 5.3 -4.45 6.45 -6.05 Q4.6 -5.2 3.25 -2.45 L3.25 -2.55 Q3.9 -4.45 4.7 -5.35 L4.95 -5.65 5.15 -5.8 Q5.8 -6.35 6.5 -6.55" fill="#db8e90" fill-rule="evenodd" stroke="none"/>
    <path d="M3.25 -2.45 Q4.6 -5.2 6.45 -6.05 L5.3 -4.45 4.05 -3.05 3.25 -2.45" fill="#ffb6b7" fill-rule="evenodd" stroke="none"/>
    <path d="M0.85 -0.85 Q0.9 -0.75 1.05 -0.75 L1.2 -0.85 1.3 -1.0 1.2 -1.2 1.05 -1.25 0.85 -1.2 0.8 -1.0 0.85 -0.85 M1.7 -0.7 L1.4 0.1 Q1.05 0.4 0.6 0.4 L-0.15 0.1 -0.45 -0.7 -0.15 -1.45 0.6 -1.7 1.4 -1.45 1.7 -0.7" fill="#aa192c" fill-rule="evenodd" stroke="none"/>
    <path d="M-1.25 1.05 L-1.45 0.7 -1.5 0.65 -0.8 0.45 -0.8 0.55 -0.75 0.8 -1.25 1.05 M-2.1 1.25 L-2.35 0.95 -2.25 0.9 -1.85 0.8 -1.75 0.8 -1.5 1.2 -2.1 1.25" fill="#cfdae5" fill-rule="evenodd" stroke="none"/>
    <path d="M-0.75 0.8 L-0.35 1.5 -0.25 1.8 -0.8 1.9 -0.8 1.8 -1.0 1.5 -1.1 1.25 -1.2 1.15 -1.25 1.05 -0.75 0.8 M-2.1 1.25 L-1.5 1.2 -1.5 1.25 -1.2 1.85 -1.1 1.95 -1.6 2.05 -1.65 2.0 -1.8 1.75 -1.8 1.7 -2.0 1.35 -2.0 1.3 -2.1 1.25" fill="#f4f8fb" fill-rule="evenodd" stroke="none"/>
  </g>
</svg>
