<?xml version="1.0" encoding="UTF-8" standalone="no"?>
<svg xmlns:ffdec="https://www.free-decompiler.com/flash" xmlns:xlink="http://www.w3.org/1999/xlink" ffdec:objectType="shape" height="8.8px" width="25.0px" xmlns="http://www.w3.org/2000/svg">
  <g transform="matrix(1.0, 0.0, 0.0, 1.0, 12.5, 4.4)">
    <path d="M1.3 -3.6 Q2.65 -3.6 3.25 -2.9 L3.65 -1.9 5.2 -2.15 6.8 -2.35 7.1 -2.35 7.5 -2.3 7.4 -3.05 7.45 -3.15 7.4 -3.65 7.55 -4.0 Q7.85 -4.4 8.45 -4.4 L8.6 -4.4 Q9.95 -4.25 11.0 -3.6 12.35 -2.75 12.5 -1.35 L12.5 -1.15 12.5 -0.95 12.5 -0.75 12.5 -0.6 Q12.4 0.2 11.85 0.7 L11.0 1.25 10.5 1.55 10.5 1.6 10.5 1.7 10.55 2.25 10.5 2.5 10.55 2.8 10.3 3.55 10.25 3.65 Q9.8 4.1 9.15 4.1 L8.35 3.9 7.85 3.3 7.8 3.15 7.85 2.65 7.8 2.55 7.85 2.0 7.8 2.05 7.4 2.25 6.1 2.45 5.0 2.55 4.45 2.55 4.0 3.6 3.2 4.35 2.9 4.4 2.8 4.4 Q1.05 4.05 -0.9 2.7 L-0.95 2.7 -1.25 1.95 -1.25 1.6 -1.25 1.35 -1.25 1.3 -1.6 1.4 -2.7 1.45 -2.85 2.8 Q-2.85 3.15 -3.2 3.35 L-4.05 3.55 -4.7 3.4 -5.2 2.95 -5.25 2.7 -5.35 1.5 -5.35 1.45 -6.35 1.4 -6.5 1.4 -6.35 1.75 -6.35 2.15 -6.35 2.35 Q-6.3 2.85 -6.8 3.6 -7.25 4.25 -7.6 4.35 L-7.85 4.4 -8.0 4.4 Q-9.75 4.05 -11.7 2.7 L-11.75 2.7 -12.05 1.95 -12.0 1.6 -12.05 1.35 -12.0 0.7 -11.85 0.15 -11.55 -0.25 -12.0 -0.65 -12.5 -1.6 -12.4 -1.9 -12.5 -2.15 -12.25 -2.7 -12.2 -2.8 Q-11.2 -3.5 -9.8 -3.6 L-9.5 -3.6 Q-8.1 -3.6 -7.5 -2.9 -7.15 -2.4 -7.15 -1.7 L-7.15 -1.4 -7.15 -1.15 -7.25 -0.35 -8.0 0.95 -7.0 1.15 -6.95 1.15 -7.0 1.05 -7.25 0.55 -7.25 0.2 -7.25 0.0 -7.15 -0.65 -7.0 -0.8 -6.8 -1.05 -6.4 -1.2 -5.1 -1.35 -4.95 -2.6 -4.75 -3.0 Q-4.35 -3.35 -3.75 -3.35 L-3.35 -3.35 -3.2 -3.3 -2.65 -3.1 -2.5 -2.6 -2.5 -2.25 -2.5 -2.05 -2.5 -1.55 -2.15 -1.55 -2.0 -1.55 -1.7 -1.55 -1.7 -1.6 -1.65 -1.85 -1.7 -2.15 -1.5 -2.7 -1.4 -2.8 Q-0.4 -3.5 0.95 -3.6 L1.3 -3.6 M1.3 -1.7 L1.6 -1.35 Q1.6 -0.8 0.9 -0.25 0.35 0.15 -0.4 0.35 L-0.55 0.8 -0.6 1.35 -0.55 1.6 Q1.3 2.8 2.9 3.15 L3.45 2.65 3.6 2.45 3.75 1.85 3.0 1.7 2.35 1.55 0.95 1.05 Q2.35 0.15 2.85 -1.2 L2.95 -1.7 Q2.95 -2.9 1.3 -2.9 L1.0 -2.9 Q-0.15 -2.8 -1.0 -2.2 L-1.0 -2.15 -0.7 -1.7 -0.3 -1.35 Q-0.1 -1.35 0.15 -1.5 L0.8 -1.8 1.3 -1.7 M3.6 -0.65 L3.8 -0.5 5.5 -0.5 7.4 -0.65 7.5 -1.0 7.55 -1.35 Q7.55 -1.65 7.1 -1.65 L6.85 -1.65 5.35 -1.5 3.8 -1.2 3.65 -1.05 3.6 -0.65 M8.55 -3.7 L8.1 -3.6 8.2 -2.6 9.5 -2.15 Q10.2 -1.85 10.25 -1.2 10.25 -0.75 9.7 -0.45 L8.95 0.05 Q8.55 0.35 8.55 0.75 8.55 1.15 8.7 1.2 L9.25 1.3 9.55 1.25 9.8 0.95 9.9 0.6 10.7 0.05 Q11.25 -0.2 11.4 -0.4 L11.8 -1.25 Q11.7 -2.35 10.65 -3.0 9.7 -3.6 8.55 -3.7 M8.25 -1.25 L8.2 -1.05 8.25 -0.8 8.1 -0.2 8.15 -0.1 8.5 -0.5 9.25 -0.95 8.25 -1.25 M6.0 1.2 L7.35 1.0 7.55 0.55 7.5 0.05 5.6 0.15 3.7 0.3 3.55 0.7 3.65 0.9 3.75 1.15 3.8 1.15 4.1 1.25 5.0 1.3 6.0 1.2 M8.7 1.85 Q8.45 2.1 8.5 2.45 8.65 2.85 9.15 2.85 L9.7 2.6 9.85 2.25 9.75 1.85 9.35 1.55 Q8.9 1.55 8.7 1.85 M2.95 1.0 L2.9 0.75 2.75 0.95 2.95 1.0 M-6.3 -0.55 L-6.55 -0.3 -6.55 0.0 -6.3 0.15 -4.65 0.2 -4.65 0.95 -4.6 2.05 -4.5 2.15 -4.05 2.25 -3.5 2.15 -3.35 0.2 -1.65 0.15 -1.5 -0.25 -1.4 -0.55 Q-1.4 -0.9 -2.1 -0.85 L-3.25 -0.85 -3.2 -2.65 -3.45 -2.65 -3.75 -2.65 -4.25 -2.5 -4.55 -0.7 -6.3 -0.55 M-11.8 -2.2 L-11.8 -2.15 -11.5 -1.7 -11.05 -1.35 Q-10.85 -1.35 -10.65 -1.5 L-9.95 -1.8 -9.5 -1.7 -9.2 -1.35 Q-9.2 -0.8 -9.9 -0.25 L-11.2 0.35 -11.35 0.8 -11.35 1.35 -11.35 1.6 Q-9.45 2.8 -7.85 3.15 L-7.35 2.65 -7.0 1.85 -8.4 1.55 -9.85 1.05 Q-8.4 0.15 -7.95 -1.2 L-7.8 -1.7 Q-7.8 -2.9 -9.5 -2.9 L-9.8 -2.9 Q-10.95 -2.8 -11.8 -2.2" fill="#231f20" fill-rule="evenodd" stroke="none"/>
    <path d="M1.3 -1.7 L0.8 -1.8 0.15 -1.5 Q-0.1 -1.35 -0.3 -1.35 L-0.7 -1.7 -1.0 -2.15 -1.0 -2.2 Q-0.15 -2.8 1.0 -2.9 L1.3 -2.9 Q2.95 -2.9 2.95 -1.7 L2.85 -1.2 Q2.35 0.15 0.95 1.05 L2.35 1.55 3.0 1.7 3.75 1.85 3.6 2.45 3.45 2.65 2.9 3.15 Q1.3 2.8 -0.55 1.6 L-0.6 1.35 -0.55 0.8 -0.4 0.35 Q0.35 0.15 0.9 -0.25 1.6 -0.8 1.6 -1.35 L1.3 -1.7 M3.6 -0.65 L3.65 -1.05 3.8 -1.2 5.35 -1.5 6.85 -1.65 7.1 -1.65 Q7.55 -1.65 7.55 -1.35 L7.5 -1.0 7.4 -0.65 5.5 -0.5 3.8 -0.5 3.6 -0.65 M8.55 -3.7 Q9.7 -3.6 10.65 -3.0 11.7 -2.35 11.8 -1.25 L11.4 -0.4 Q11.25 -0.2 10.7 0.05 L9.9 0.6 9.8 0.95 9.55 1.25 9.25 1.3 8.7 1.2 Q8.55 1.15 8.55 0.75 8.55 0.35 8.95 0.05 L9.7 -0.45 Q10.25 -0.75 10.25 -1.2 10.2 -1.85 9.5 -2.15 L8.2 -2.6 8.1 -3.6 8.55 -3.7 M8.7 1.85 Q8.9 1.55 9.35 1.55 L9.75 1.85 9.85 2.25 9.7 2.6 9.15 2.85 Q8.65 2.85 8.5 2.45 8.45 2.1 8.7 1.85 M6.0 1.2 L5.0 1.3 4.1 1.25 3.8 1.15 3.75 1.15 3.65 0.9 3.55 0.7 3.7 0.3 5.6 0.15 7.5 0.05 7.55 0.55 7.35 1.0 6.0 1.2 M-11.8 -2.2 Q-10.95 -2.8 -9.8 -2.9 L-9.5 -2.9 Q-7.8 -2.9 -7.8 -1.7 L-7.95 -1.2 Q-8.4 0.15 -9.85 1.05 L-8.4 1.55 -7.0 1.85 -7.35 2.65 -7.85 3.15 Q-9.45 2.8 -11.35 1.6 L-11.35 1.35 -11.35 0.8 -11.2 0.35 -9.9 -0.25 Q-9.2 -0.8 -9.2 -1.35 L-9.5 -1.7 -9.95 -1.8 -10.65 -1.5 Q-10.85 -1.35 -11.05 -1.35 L-11.5 -1.7 -11.8 -2.15 -11.8 -2.2 M-6.3 -0.55 L-4.55 -0.7 -4.25 -2.5 -3.75 -2.65 -3.45 -2.65 -3.2 -2.65 -3.25 -0.85 -2.1 -0.85 Q-1.4 -0.9 -1.4 -0.55 L-1.5 -0.25 -1.65 0.15 -3.35 0.2 -3.5 2.15 -4.05 2.25 -4.5 2.15 -4.6 2.05 -4.65 0.95 -4.65 0.2 -6.3 0.15 -6.55 0.0 -6.55 -0.3 -6.3 -0.55" fill="#ffffff" fill-rule="evenodd" stroke="none"/>
  </g>
</svg>
