<?xml version="1.0" encoding="UTF-8" standalone="no"?>
<svg xmlns:ffdec="https://www.free-decompiler.com/flash" xmlns:xlink="http://www.w3.org/1999/xlink" ffdec:objectType="shape" height="24.6px" width="25.0px" xmlns="http://www.w3.org/2000/svg">
  <g transform="matrix(1.0, 0.0, 0.0, 1.0, 12.5, 12.3)">
    <path d="M3.35 -11.4 Q2.9 -11.85 2.2 -11.85 L-2.25 -11.85 Q-2.9 -11.85 -3.35 -11.4 -3.85 -10.9 -3.85 -10.25 L-3.85 -5.8 Q-3.85 -5.1 -3.35 -4.65 -2.9 -4.15 -2.25 -4.15 L2.2 -4.15 Q2.9 -4.15 3.35 -4.65 3.85 -5.1 3.85 -5.8 L3.85 -10.25 Q3.85 -10.9 3.35 -11.4 M3.85 -11.6 Q4.5 -10.95 4.5 -10.0 L4.5 -5.55 Q4.5 -4.6 3.85 -3.9 3.15 -3.25 2.2 -3.25 L-2.25 -3.25 Q-3.2 -3.25 -3.85 -3.9 -4.55 -4.6 -4.55 -5.55 L-4.55 -10.0 Q-4.55 -10.95 -3.85 -11.6 -3.2 -12.3 -2.25 -12.3 L2.2 -12.3 Q3.15 -12.3 3.85 -11.6" fill="#9d1e60" fill-rule="evenodd" stroke="none"/>
    <path d="M3.35 -11.4 Q3.85 -10.9 3.85 -10.25 L3.85 -5.8 Q3.85 -5.1 3.35 -4.65 2.9 -4.15 2.2 -4.15 L-2.25 -4.15 Q-2.9 -4.15 -3.35 -4.65 -3.85 -5.1 -3.85 -5.8 L-3.85 -10.25 Q-3.85 -10.9 -3.35 -11.4 -2.9 -11.85 -2.25 -11.85 L2.2 -11.85 Q2.9 -11.85 3.35 -11.4 M2.6 -8.6 L0.6 -8.6 0.6 -10.7 -0.6 -10.7 -0.6 -8.6 -2.6 -8.6 -2.6 -7.45 -0.6 -7.45 -0.6 -5.35 0.6 -5.35 0.6 -7.45 2.6 -7.45 2.6 -8.6" fill="#ff8c7d" fill-rule="evenodd" stroke="none"/>
    <path d="M2.6 -8.6 L2.6 -7.45 0.6 -7.45 0.6 -5.35 -0.6 -5.35 -0.6 -7.45 -2.6 -7.45 -2.6 -8.6 -0.6 -8.6 -0.6 -10.7 0.6 -10.7 0.6 -8.6 2.6 -8.6 M8.9 -0.25 L10.0 0.9 9.1 1.8 7.95 0.65 6.85 1.8 5.9 0.9 7.05 -0.25 5.9 -1.4 6.85 -2.3 7.95 -1.15 9.1 -2.3 10.0 -1.4 8.9 -0.25 M-10.15 -0.9 L-5.85 -0.9 -5.85 0.4 -10.15 0.4 -10.15 -0.9 M-2.65 8.8 L1.3 4.9 2.65 6.2 -1.3 10.15 -2.65 8.8" fill="#ffffff" fill-rule="evenodd" stroke="none"/>
    <path d="M4.6 -3.6 Q4.15 -3.15 4.15 -2.45 L4.15 2.0 Q4.15 2.65 4.6 3.15 5.1 3.6 5.75 3.6 L10.2 3.6 Q10.85 3.6 11.35 3.15 11.8 2.65 11.8 2.0 L11.8 -2.45 Q11.8 -3.15 11.35 -3.6 10.85 -4.1 10.2 -4.1 L5.75 -4.1 Q5.1 -4.1 4.6 -3.6 M5.75 -4.55 L10.2 -4.55 Q11.15 -4.55 11.8 -3.85 12.5 -3.2 12.5 -2.25 L12.5 2.2 Q12.5 3.2 11.8 3.85 11.15 4.55 10.2 4.55 L5.75 4.55 Q4.8 4.55 4.15 3.85 3.45 3.2 3.45 2.2 L3.45 -2.25 Q3.45 -3.2 4.15 -3.85 4.8 -4.55 5.75 -4.55" fill="#d6af1c" fill-rule="evenodd" stroke="none"/>
    <path d="M4.6 -3.6 Q5.1 -4.1 5.75 -4.1 L10.2 -4.1 Q10.85 -4.1 11.35 -3.6 11.8 -3.15 11.8 -2.45 L11.8 2.0 Q11.8 2.65 11.35 3.15 10.85 3.6 10.2 3.6 L5.75 3.6 Q5.1 3.6 4.6 3.15 4.15 2.65 4.15 2.0 L4.15 -2.45 Q4.15 -3.15 4.6 -3.6 M8.9 -0.25 L10.0 -1.4 9.1 -2.3 7.95 -1.15 6.85 -2.3 5.9 -1.4 7.05 -0.25 5.9 0.9 6.85 1.8 7.95 0.65 9.1 1.8 10.0 0.9 8.9 -0.25" fill="#ffe07d" fill-rule="evenodd" stroke="none"/>
    <path d="M4.5 5.55 L4.5 10.0 Q4.5 10.95 3.85 11.6 3.15 12.3 2.2 12.3 L-2.25 12.3 Q-3.2 12.3 -3.85 11.6 -4.55 10.95 -4.55 10.0 L-4.55 5.55 Q-4.55 4.55 -3.85 3.9 -3.2 3.2 -2.25 3.2 L2.2 3.2 Q3.15 3.2 3.85 3.9 4.5 4.55 4.5 5.55 M3.85 5.3 Q3.85 4.6 3.35 4.15 2.9 3.65 2.2 3.65 L-2.25 3.65 Q-2.9 3.65 -3.35 4.15 -3.85 4.6 -3.85 5.3 L-3.85 9.75 Q-3.85 10.4 -3.35 10.9 -2.9 11.35 -2.25 11.35 L2.2 11.35 Q2.9 11.35 3.35 10.9 3.85 10.4 3.85 9.75 L3.85 5.3" fill="#006837" fill-rule="evenodd" stroke="none"/>
    <path d="M3.85 5.3 L3.85 9.75 Q3.85 10.4 3.35 10.9 2.9 11.35 2.2 11.35 L-2.25 11.35 Q-2.9 11.35 -3.35 10.9 -3.85 10.4 -3.85 9.75 L-3.85 5.3 Q-3.85 4.6 -3.35 4.15 -2.9 3.65 -2.25 3.65 L2.2 3.65 Q2.9 3.65 3.35 4.15 3.85 4.6 3.85 5.3 M-2.65 8.8 L-1.3 10.15 2.65 6.2 1.3 4.9 -2.65 8.8" fill="#82d980" fill-rule="evenodd" stroke="none"/>
    <path d="M-11.35 -3.6 Q-11.8 -3.15 -11.8 -2.45 L-11.8 2.0 Q-11.8 2.65 -11.35 3.15 -10.85 3.6 -10.2 3.6 L-5.75 3.6 Q-5.1 3.6 -4.6 3.15 -4.15 2.65 -4.15 2.0 L-4.15 -2.45 Q-4.15 -3.15 -4.6 -3.6 -5.1 -4.1 -5.75 -4.1 L-10.2 -4.1 Q-10.85 -4.1 -11.35 -3.6 M-11.8 -3.85 Q-11.15 -4.55 -10.2 -4.55 L-5.75 -4.55 Q-4.8 -4.55 -4.15 -3.85 -3.45 -3.2 -3.45 -2.25 L-3.45 2.2 Q-3.45 3.2 -4.15 3.85 -4.8 4.55 -5.75 4.55 L-10.2 4.55 Q-11.15 4.55 -11.8 3.85 -12.5 3.2 -12.5 2.2 L-12.5 -2.25 Q-12.5 -3.2 -11.8 -3.85" fill="#1072b9" fill-rule="evenodd" stroke="none"/>
    <path d="M-10.15 -0.9 L-10.15 0.4 -5.85 0.4 -5.85 -0.9 -10.15 -0.9 M-11.35 -3.6 Q-10.85 -4.1 -10.2 -4.1 L-5.75 -4.1 Q-5.1 -4.1 -4.6 -3.6 -4.15 -3.15 -4.15 -2.45 L-4.15 2.0 Q-4.15 2.65 -4.6 3.15 -5.1 3.6 -5.75 3.6 L-10.2 3.6 Q-10.85 3.6 -11.35 3.15 -11.8 2.65 -11.8 2.0 L-11.8 -2.45 Q-11.8 -3.15 -11.35 -3.6" fill="#82b6e2" fill-rule="evenodd" stroke="none"/>
  </g>
</svg>
