<?xml version="1.0" encoding="UTF-8" standalone="no"?>
<svg xmlns:ffdec="https://www.free-decompiler.com/flash" xmlns:xlink="http://www.w3.org/1999/xlink" ffdec:objectType="shape" height="25.0px" width="25.0px" xmlns="http://www.w3.org/2000/svg">
  <g transform="matrix(1.0, 0.0, 0.0, 1.0, 12.5, 12.5)">
    <path d="M4.65 -12.35 L4.75 -12.3 6.6 -11.8 6.75 -11.65 6.8 -11.55 Q6.7 -11.4 6.25 -11.4 5.05 -12.15 3.75 -12.1 L3.75 -12.15 Q3.8 -12.35 4.55 -12.35 L4.65 -12.35 M8.2 -10.2 L8.4 -9.95 8.4 -9.9 8.45 -9.85 8.45 -9.15 8.3 -9.05 8.15 -9.05 7.95 -10.15 8.1 -10.2 8.2 -10.2 M0.9 -9.9 L0.9 -10.0 1.0 -10.05 1.35 -10.65 1.4 -10.75 1.45 -10.75 Q1.7 -11.05 1.9 -10.95 L1.95 -10.8 Q1.4 -10.45 1.1 -9.65 L1.0 -9.65 0.9 -9.9 M3.45 -11.65 L3.35 -11.4 Q2.9 -10.85 2.4 -11.0 L2.35 -11.0 2.4 -11.35 2.7 -11.65 Q3.15 -11.9 3.45 -11.65 M1.1 -7.65 L1.35 -8.2 1.4 -8.2 Q1.3 -7.5 1.8 -6.75 L1.7 -6.65 1.6 -6.65 1.4 -6.75 1.4 -6.8 1.35 -6.85 1.15 -7.3 1.1 -7.5 1.1 -7.65 M5.4 -5.05 L5.1 -5.3 Q5.9 -5.45 6.45 -6.25 L6.5 -6.2 6.45 -5.6 6.35 -5.5 5.75 -5.15 5.4 -5.05 M6.65 -10.9 L6.85 -11.05 7.15 -10.85 7.35 -10.55 7.4 -10.1 7.35 -10.05 Q6.75 -10.35 6.65 -10.9 M8.2 -8.55 Q8.4 -8.25 8.1 -7.55 L7.75 -6.95 7.4 -6.8 Q7.45 -7.95 8.2 -8.55 M6.95 -7.8 L6.65 -7.2 Q6.25 -6.8 5.9 -7.0 5.65 -7.3 5.85 -7.65 6.05 -7.95 6.4 -8.05 6.75 -8.15 6.95 -7.8" fill="#e1c963" fill-rule="evenodd" stroke="none"/>
    <path d="M4.65 -12.35 L4.55 -12.35 Q3.8 -12.35 3.75 -12.15 L3.75 -12.1 4.2 -11.75 5.15 -11.5 6.25 -11.4 Q6.7 -11.4 6.8 -11.55 L6.75 -11.65 7.1 -11.4 7.85 -10.6 8.2 -10.2 8.1 -10.2 7.95 -10.15 Q7.75 -10.0 7.8 -9.55 7.9 -9.1 8.15 -9.05 L8.3 -9.05 8.45 -9.15 8.45 -8.4 8.35 -7.95 8.0 -7.05 7.7 -6.6 6.45 -5.6 6.5 -6.2 6.45 -6.25 6.0 -6.4 5.45 -6.25 5.1 -5.8 Q4.95 -5.55 5.1 -5.3 L5.4 -5.05 4.7 -5.05 2.5 -5.3 Q2.15 -5.4 1.9 -5.85 L1.45 -6.65 1.4 -6.75 1.6 -6.65 1.7 -6.65 1.8 -6.75 1.9 -7.5 Q1.75 -8.1 1.4 -8.2 L1.35 -8.2 1.1 -7.65 1.05 -7.85 0.95 -8.3 0.85 -9.05 0.9 -9.75 0.9 -9.9 1.0 -9.65 1.1 -9.65 Q1.4 -9.65 1.7 -10.1 L1.95 -10.8 1.9 -10.95 Q1.7 -11.05 1.45 -10.75 L1.95 -11.4 3.3 -12.35 4.3 -12.45 4.65 -12.35 M3.45 -11.65 Q3.15 -11.9 2.7 -11.65 L2.4 -11.35 2.35 -11.0 2.4 -10.9 2.7 -10.7 3.2 -10.8 3.55 -11.15 3.55 -11.55 3.45 -11.65 M7.35 -10.05 L7.4 -10.1 7.35 -10.55 7.15 -10.85 6.85 -11.05 6.65 -10.9 6.6 -10.85 6.65 -10.5 6.85 -10.1 7.35 -10.05 M8.2 -8.55 L8.15 -8.55 7.75 -8.4 7.4 -7.8 7.2 -7.2 Q7.2 -6.85 7.4 -6.8 L7.75 -6.95 8.1 -7.55 Q8.4 -8.25 8.2 -8.55 M6.95 -7.8 L6.85 -8.1 6.4 -8.25 5.9 -8.0 5.65 -7.55 Q5.55 -7.25 5.7 -7.05 L5.9 -7.0 Q6.25 -6.8 6.65 -7.2 L6.95 -7.8" fill="#e9d884" fill-rule="evenodd" stroke="none"/>
    <path d="M3.75 -12.1 Q5.05 -12.15 6.25 -11.4 L5.15 -11.5 4.2 -11.75 3.75 -12.1 M2.35 -11.0 L2.4 -11.0 Q2.9 -10.85 3.35 -11.4 L3.45 -11.65 3.55 -11.55 3.55 -11.15 3.2 -10.8 2.7 -10.7 2.4 -10.9 2.35 -11.0 M1.1 -9.65 Q1.4 -10.45 1.95 -10.8 L1.7 -10.1 Q1.4 -9.65 1.1 -9.65 M1.4 -8.2 Q1.75 -8.1 1.9 -7.5 L1.8 -6.75 Q1.3 -7.5 1.4 -8.2 M5.1 -5.3 Q4.95 -5.55 5.1 -5.8 L5.45 -6.25 6.0 -6.4 6.45 -6.25 Q5.9 -5.45 5.1 -5.3 M7.35 -10.05 L6.85 -10.1 6.65 -10.5 6.6 -10.85 6.65 -10.9 Q6.75 -10.35 7.35 -10.05 M8.15 -9.05 Q7.9 -9.1 7.8 -9.55 7.75 -10.0 7.95 -10.15 L8.15 -9.05 M7.4 -6.8 Q7.2 -6.85 7.2 -7.2 L7.4 -7.8 7.75 -8.4 8.15 -8.55 8.2 -8.55 Q7.45 -7.95 7.4 -6.8 M5.9 -7.0 L5.7 -7.05 Q5.55 -7.25 5.65 -7.55 L5.9 -8.0 6.4 -8.25 6.85 -8.1 6.95 -7.8 Q6.75 -8.15 6.4 -8.05 6.05 -7.95 5.85 -7.65 5.65 -7.3 5.9 -7.0" fill="#bfa95b" fill-rule="evenodd" stroke="none"/>
    <path d="M7.7 -6.6 L7.5 -6.05 7.2 -5.65 6.8 -5.3 5.4 -4.25 4.2 -4.1 1.95 -4.35 Q1.65 -4.45 1.4 -4.9 L0.95 -5.65 0.6 -6.5 0.45 -7.3 0.35 -8.1 Q0.3 -8.6 0.4 -8.9 L0.9 -9.75 0.85 -9.05 0.95 -8.3 1.05 -7.85 1.1 -7.5 1.15 -7.3 1.35 -6.85 1.4 -6.8 1.4 -6.75 1.45 -6.65 1.9 -5.85 Q2.15 -5.4 2.5 -5.3 L4.7 -5.05 5.4 -5.05 5.75 -5.15 6.35 -5.5 6.45 -5.6 7.7 -6.6 M-11.85 -3.3 L-11.95 -1.85 -11.7 -0.4 -11.55 0.7 -11.5 1.0 -11.5 1.05 -11.45 1.15 -11.4 1.35 -11.0 2.2 -10.85 2.5 -10.1 3.9 -9.0 4.9 -4.95 5.35 -3.6 5.3 -3.5 5.3 -3.1 5.2 Q-2.9 8.55 -2.6 8.95 L-1.7 9.7 -0.05 10.7 0.95 11.15 Q2.2 11.65 2.85 11.55 L4.4 11.4 4.85 11.4 5.45 11.3 5.5 11.3 6.0 11.25 6.1 11.25 6.25 11.25 6.95 11.2 7.15 11.15 8.2 10.95 8.3 10.95 9.75 10.7 10.7 10.25 10.85 10.1 10.2 11.2 Q9.6 11.75 6.5 12.1 L2.35 12.5 Q1.25 12.65 -0.85 11.45 L-3.1 9.95 Q-3.4 9.5 -3.6 6.1 L-5.45 6.3 -9.5 5.85 -10.6 4.85 -11.35 3.45 -12.0 1.95 -12.2 0.55 -12.45 -0.9 -12.35 -2.3 -11.85 -3.3" fill="#000000" fill-rule="evenodd" stroke="none"/>
    <path d="M-9.3 -5.3 L-9.2 -5.15 Q-9.05 -4.8 -8.6 -4.8 L-7.75 -4.95 Q-7.3 -5.2 -7.1 -5.6 -6.9 -6.0 -7.1 -6.3 L-7.25 -6.5 -7.85 -6.7 -8.6 -6.5 -9.15 -5.95 -9.3 -5.3 M-9.95 -4.95 L-10.1 -5.2 Q-10.35 -5.4 -10.9 -4.85 L-11.4 -4.05 -11.5 -3.85 Q-10.95 -5.1 -9.9 -6.0 L-7.5 -7.75 -5.75 -7.85 -5.35 -7.75 Q-6.65 -7.8 -6.75 -7.4 L-6.7 -7.3 -5.9 -6.7 -4.1 -6.2 -2.2 -6.0 Q-1.35 -6.05 -1.3 -6.35 L-1.35 -6.5 -0.75 -6.05 0.65 -4.6 1.3 -3.9 1.05 -3.9 0.85 -3.8 Q0.4 -3.5 0.55 -2.75 0.65 -2.3 0.9 -2.05 L0.4 -1.85 0.35 -1.85 -0.4 -1.65 -1.5 -0.3 -2.2 -0.3 Q-2.6 -0.2 -2.85 0.1 -3.3 0.45 -3.35 0.95 -3.45 1.4 -3.2 1.7 L-2.9 1.9 -2.7 1.95 -3.05 2.95 Q-3.35 3.0 -3.65 3.2 L-4.35 4.0 Q-4.6 4.5 -4.35 4.9 L-4.35 4.95 -3.85 5.3 -3.6 5.3 -4.95 5.35 -9.0 4.9 -10.1 3.9 -10.85 2.5 -11.0 2.2 -10.4 2.45 -10.2 2.35 Q-9.85 1.9 -10.1 0.95 L-10.4 0.1 -10.9 -0.3 -11.1 -0.3 -11.4 0.05 -11.55 0.7 -11.7 -0.4 -11.95 -1.85 -11.85 -3.3 -11.8 -3.35 -11.8 -3.3 -11.8 -3.05 -11.65 -2.9 -11.5 -2.85 Q-11.0 -2.85 -10.4 -3.75 -9.9 -4.45 -9.95 -4.95 M-1.6 -5.15 L-1.6 -5.1 -1.6 -4.4 -1.15 -3.75 Q-0.6 -3.25 -0.35 -3.55 L-0.2 -3.75 -0.25 -4.45 -0.65 -5.1 -1.2 -5.35 -1.6 -5.15 M-5.85 4.75 Q-5.4 4.65 -5.35 4.35 -5.35 3.95 -5.9 3.7 -6.45 3.35 -7.35 3.2 -8.25 3.05 -8.9 3.2 -9.6 3.4 -9.6 3.7 L-9.35 4.2 Q-8.85 4.7 -7.6 4.9 L-5.85 4.75" fill="#f2bb86" fill-rule="evenodd" stroke="none"/>
    <path d="M-7.25 -6.5 L-7.45 -6.0 Q-8.3 -5.05 -9.15 -5.3 L-9.3 -5.3 -9.15 -5.95 -8.6 -6.5 -7.85 -6.7 -7.25 -6.5 M-11.5 -3.85 L-11.4 -4.05 -10.9 -4.85 Q-10.35 -5.4 -10.1 -5.2 L-9.95 -4.95 Q-11.0 -4.3 -11.5 -2.85 L-11.65 -2.9 -11.8 -3.05 -11.8 -3.3 -11.8 -3.35 -11.75 -3.4 -11.75 -3.5 -11.6 -3.7 -11.5 -3.85 M-11.55 0.7 L-11.4 0.05 -11.1 -0.3 -10.9 -0.3 Q-11.1 1.05 -10.2 2.35 L-10.4 2.45 -11.0 2.2 -11.4 1.35 -11.45 1.15 -11.5 1.05 -11.5 1.0 -11.55 0.7 M-3.6 5.3 L-3.85 5.3 -4.35 4.95 -4.35 4.9 -3.1 4.45 -3.1 5.2 -3.5 5.3 -3.6 5.3 M-2.7 1.95 L-2.9 1.9 Q-3.3 1.35 -3.0 0.7 -2.6 0.15 -2.0 0.0 L-1.7 -0.05 -2.7 1.95 M0.85 -3.8 L1.05 -3.9 1.3 -3.9 1.7 -3.35 1.75 -2.3 1.5 -2.2 1.25 -2.1 Q1.25 -3.15 0.85 -3.8 M-1.35 -6.5 L-1.3 -6.35 Q-1.35 -6.05 -2.2 -6.0 -4.4 -7.4 -6.7 -7.3 L-6.75 -7.4 Q-6.65 -7.8 -5.35 -7.75 L-5.05 -7.7 -4.7 -7.6 -4.6 -7.55 Q-2.85 -7.2 -1.65 -6.7 L-1.35 -6.55 -1.35 -6.5 M-1.6 -5.15 L-1.2 -5.35 -0.65 -5.1 -0.25 -4.45 -0.2 -3.75 -0.35 -3.55 Q-1.25 -4.1 -1.6 -5.15 M-5.85 4.75 L-7.6 4.9 Q-8.85 4.7 -9.35 4.2 L-9.35 3.95 -9.15 3.95 -7.4 3.9 Q-6.45 4.1 -5.85 4.75" fill="#e9a265" fill-rule="evenodd" stroke="none"/>
    <path d="M-7.25 -6.5 L-7.1 -6.3 Q-6.9 -6.0 -7.1 -5.6 -7.3 -5.2 -7.75 -4.95 L-8.6 -4.8 Q-9.05 -4.8 -9.2 -5.15 L-9.3 -5.3 -9.15 -5.3 Q-8.3 -5.05 -7.45 -6.0 L-7.25 -6.5 M-9.95 -4.95 Q-9.9 -4.45 -10.4 -3.75 -11.0 -2.85 -11.5 -2.85 -11.0 -4.3 -9.95 -4.95 M-10.9 -0.3 L-10.4 0.1 -10.1 0.95 Q-9.85 1.9 -10.2 2.35 -11.1 1.05 -10.9 -0.3 M-4.35 4.9 Q-4.6 4.5 -4.35 4.0 L-3.65 3.2 Q-3.35 3.0 -3.05 2.95 L-3.1 3.1 -3.1 4.45 -4.35 4.9 M-2.9 1.9 L-3.2 1.7 Q-3.45 1.4 -3.35 0.95 -3.3 0.45 -2.85 0.1 -2.6 -0.2 -2.2 -0.3 L-1.5 -0.3 -1.7 -0.05 -2.0 0.0 Q-2.6 0.15 -3.0 0.7 -3.3 1.35 -2.9 1.9 M0.9 -2.05 Q0.65 -2.3 0.55 -2.75 0.4 -3.5 0.85 -3.8 1.25 -3.15 1.25 -2.1 L0.9 -2.05 M-2.2 -6.0 L-4.1 -6.2 -5.9 -6.7 -6.7 -7.3 Q-4.4 -7.4 -2.2 -6.0 M-0.35 -3.55 Q-0.6 -3.25 -1.15 -3.75 L-1.6 -4.4 -1.6 -5.1 -1.6 -5.15 Q-1.25 -4.1 -0.35 -3.55 M-9.35 4.2 L-9.6 3.7 Q-9.6 3.4 -8.9 3.2 -8.25 3.05 -7.35 3.2 -6.45 3.35 -5.9 3.7 -5.35 3.95 -5.35 4.35 -5.4 4.65 -5.85 4.75 -6.45 4.1 -7.4 3.9 L-9.15 3.95 -9.35 3.95 -9.35 4.2" fill="#c7865c" fill-rule="evenodd" stroke="none"/>
    <path d="M-3.05 2.95 L-2.7 1.95 -1.7 -0.05 -1.5 -0.3 -0.4 -1.65 0.35 -1.85 0.3 -1.75 Q0.35 -1.55 0.65 -1.5 L2.4 -1.4 Q3.3 -1.55 3.8 -1.85 L4.35 -2.4 4.15 -2.6 3.9 -2.75 8.35 -3.4 Q8.9 -3.3 9.85 -1.8 9.7 -1.75 9.7 -1.5 9.7 -1.05 10.0 -0.5 L10.45 0.25 Q10.75 0.55 10.9 0.45 L11.0 0.2 12.45 3.2 Q12.65 3.75 12.1 6.45 11.5 9.3 10.85 10.1 L10.7 10.25 9.75 10.7 9.8 10.5 Q9.75 10.2 9.2 10.0 L6.9 9.9 5.2 10.25 Q4.5 10.55 4.3 10.9 L4.2 11.15 4.4 11.4 2.85 11.55 Q2.2 11.65 0.95 11.15 L1.45 10.95 Q1.6 10.75 1.15 10.4 L0.15 9.7 Q-1.0 9.15 -1.55 9.3 L-1.7 9.45 -1.7 9.7 -2.6 8.95 Q-2.9 8.55 -3.1 5.2 L-3.1 4.45 -3.1 3.1 -3.05 2.95 M-2.1 4.15 L-1.35 3.95 -0.8 3.1 -0.6 2.1 Q-0.65 1.65 -0.95 1.45 L-1.05 1.4 -1.8 1.55 -2.45 2.45 -2.6 3.45 -2.15 4.1 -2.1 4.15 M-2.1 7.9 Q-1.85 7.7 -1.9 6.7 L-2.1 5.7 -2.45 5.0 -2.5 4.95 -2.6 4.95 Q-2.8 5.0 -2.85 5.35 L-2.85 6.2 -2.65 7.3 -2.3 7.9 -2.25 7.95 -2.1 7.9 M10.15 5.55 L10.3 5.55 Q10.9 5.55 11.3 5.0 11.7 4.5 11.7 3.75 11.7 3.0 11.3 2.5 10.9 1.95 10.3 1.95 L10.15 1.95 Q9.6 2.05 9.15 2.55 8.8 3.1 8.8 3.75 8.8 4.45 9.2 4.95 9.6 5.45 10.15 5.55 M9.95 9.15 L10.15 9.25 Q10.4 9.4 10.65 9.05 L11.25 8.2 11.45 7.15 Q11.45 6.7 11.25 6.6 L11.15 6.55 Q10.9 6.55 10.65 6.9 L10.15 7.7 Q9.7 8.7 9.95 9.15 M8.75 -1.75 L8.8 -1.8 8.7 -2.45 8.05 -2.95 Q7.4 -3.25 6.9 -2.95 L6.7 -2.7 Q6.65 -2.4 6.85 -2.05 L7.5 -1.55 8.25 -1.45 Q8.6 -1.5 8.75 -1.75 M2.25 -0.2 L1.9 -0.7 0.95 -0.8 Q0.5 -0.55 0.15 -0.1 L-0.05 0.95 0.0 1.0 0.05 1.05 Q0.15 1.45 0.4 1.65 L1.3 1.7 Q1.8 1.55 2.1 1.1 2.5 0.35 2.25 -0.2 M3.4 9.7 L3.55 9.4 Q3.65 8.95 3.4 8.6 3.15 8.2 2.7 8.1 L1.85 8.2 Q1.4 8.45 1.35 8.85 L1.4 9.5 Q1.65 10.0 2.2 10.15 L2.9 10.15 3.4 9.7" fill="#d4e183" fill-rule="evenodd" stroke="none"/>
    <path d="M-0.95 1.45 Q-0.65 1.65 -0.6 2.1 L-0.8 3.1 -1.35 3.95 -2.1 4.15 Q-1.15 2.85 -0.95 1.45 M-2.6 4.95 L-2.5 4.95 -2.45 5.0 -2.1 5.7 -1.9 6.7 Q-1.85 7.7 -2.1 7.9 -2.75 6.2 -2.6 4.95 M-1.55 9.3 Q-1.0 9.15 0.15 9.7 L1.15 10.4 Q1.6 10.75 1.45 10.95 -0.6 10.2 -1.55 9.3 M9.7 -1.5 L10.9 0.45 Q10.75 0.55 10.45 0.25 L10.0 -0.5 Q9.7 -1.05 9.7 -1.5 M10.15 5.55 Q9.6 5.45 9.2 4.95 8.8 4.45 8.8 3.75 8.8 3.1 9.15 2.55 9.6 2.05 10.15 1.95 9.35 2.4 9.25 3.35 9.15 4.05 9.4 4.65 9.65 5.25 10.15 5.55 M9.95 9.15 Q9.7 8.7 10.15 7.7 L10.65 6.9 Q10.9 6.55 11.15 6.55 10.65 8.35 9.95 9.15 M8.75 -1.75 Q8.6 -1.5 8.25 -1.45 L7.5 -1.55 6.85 -2.05 Q6.65 -2.4 6.7 -2.7 L6.9 -2.95 Q7.4 -2.2 8.75 -1.75 M4.15 -2.6 L4.35 -2.4 3.8 -1.85 Q3.3 -1.55 2.4 -1.4 L0.65 -1.5 Q2.4 -2.4 4.15 -2.6 M2.25 -0.2 Q2.5 0.35 2.1 1.1 1.8 1.55 1.3 1.7 L0.4 1.65 Q0.15 1.45 0.05 1.05 L0.4 1.45 Q1.05 1.65 1.8 0.95 2.25 0.45 2.25 -0.2 M4.3 10.9 Q4.5 10.55 5.2 10.25 L6.9 9.9 9.2 10.0 4.3 10.9 M1.4 9.5 L1.35 8.85 Q1.4 8.45 1.85 8.2 L2.7 8.1 Q3.15 8.2 3.4 8.6 3.65 8.95 3.55 9.4 L3.4 9.7 Q3.6 9.1 3.1 8.7 2.75 8.4 2.15 8.45 1.4 8.7 1.4 9.5" fill="#acc160" fill-rule="evenodd" stroke="none"/>
    <path d="M0.35 -1.85 L0.4 -1.85 0.9 -2.05 1.25 -2.1 1.5 -2.2 1.85 -2.3 3.6 -2.7 3.7 -2.75 3.8 -2.8 3.9 -2.75 4.15 -2.6 Q2.4 -2.4 0.65 -1.5 0.35 -1.55 0.3 -1.75 L0.35 -1.85 M9.75 10.7 L8.3 10.95 8.2 10.95 7.15 11.15 6.95 11.2 6.1 11.25 6.0 11.25 5.5 11.3 5.45 11.3 4.85 11.4 4.4 11.4 4.2 11.15 4.3 10.9 9.2 10.0 Q9.75 10.2 9.8 10.5 L9.75 10.7 M0.95 11.15 L-0.05 10.7 -1.7 9.7 -1.7 9.45 -1.55 9.3 Q-0.6 10.2 1.45 10.95 L0.95 11.15 M-2.1 4.15 L-2.15 4.1 -2.6 3.45 -2.45 2.45 -1.8 1.55 -1.05 1.4 -0.95 1.45 Q-1.15 2.85 -2.1 4.15 M-2.1 7.9 L-2.25 7.95 -2.3 7.9 -2.65 7.3 -2.85 6.2 -2.85 5.35 Q-2.8 5.0 -2.6 4.95 -2.75 6.2 -2.1 7.9 M9.85 -1.8 L11.0 0.2 10.9 0.45 9.7 -1.5 Q9.7 -1.75 9.85 -1.8 M10.15 1.95 L10.3 1.95 Q10.9 1.95 11.3 2.5 11.7 3.0 11.7 3.75 11.7 4.5 11.3 5.0 10.9 5.55 10.3 5.55 L10.15 5.55 Q9.65 5.25 9.4 4.65 9.15 4.05 9.25 3.35 9.35 2.4 10.15 1.95 M11.15 6.55 L11.25 6.6 Q11.45 6.7 11.45 7.15 L11.25 8.2 10.65 9.05 Q10.4 9.4 10.15 9.25 L9.95 9.15 Q10.65 8.35 11.15 6.55 M6.9 -2.95 Q7.4 -3.25 8.05 -2.95 L8.7 -2.45 8.8 -1.8 8.75 -1.75 Q7.4 -2.2 6.9 -2.95 M0.05 1.05 L0.0 1.0 -0.05 0.95 0.15 -0.1 Q0.5 -0.55 0.95 -0.8 L1.9 -0.7 2.25 -0.2 Q2.25 0.45 1.8 0.95 1.05 1.65 0.4 1.45 L0.05 1.05 M1.4 9.5 Q1.4 8.7 2.15 8.45 2.75 8.4 3.1 8.7 3.6 9.1 3.4 9.7 L2.9 10.15 2.2 10.15 Q1.65 10.0 1.4 9.5" fill="#c7d763" fill-rule="evenodd" stroke="none"/>
  </g>
</svg>
