<?xml version="1.0" encoding="UTF-8" standalone="no"?>
<svg xmlns:ffdec="https://www.free-decompiler.com/flash" xmlns:xlink="http://www.w3.org/1999/xlink" ffdec:objectType="shape" height="17.4px" width="25.0px" xmlns="http://www.w3.org/2000/svg">
  <g transform="matrix(1.0, 0.0, 0.0, 1.0, 12.5, 8.7)">
    <path d="M2.95 -6.45 Q3.6 -6.3 3.0 -5.85 L2.0 -5.95 1.8 -6.3 1.85 -6.55 2.95 -6.45 M-0.3 1.45 L-0.8 1.5 -1.25 -0.25 -1.75 -2.0 Q-0.5 -2.35 2.0 -3.65 L4.85 -5.35 5.6 -4.5 6.45 -3.35 4.2 -3.6 Q3.0 -3.35 2.1 -2.6 0.85 -1.65 0.35 -0.85 -0.55 0.35 -0.3 1.45 M9.1 -0.45 L9.8 -0.55 10.2 -0.25 Q10.2 0.3 9.55 0.05 L9.1 -0.2 9.1 -0.45 M10.85 0.85 Q11.0 0.95 10.75 1.25 10.45 1.55 10.25 1.5 L10.35 1.05 Q10.6 0.6 10.85 0.85 M4.25 4.2 Q4.65 4.2 4.45 4.6 L3.7 4.7 Q3.1 4.55 3.35 4.45 3.85 4.2 4.25 4.2" fill="#fcfcfc" fill-rule="evenodd" stroke="none"/>
    <path d="M2.95 -6.45 L1.85 -6.55 1.8 -6.3 2.0 -5.95 3.0 -5.85 Q3.6 -6.3 2.95 -6.45 M2.1 3.85 L1.0 2.85 -0.45 1.95 Q1.15 1.8 4.2 0.25 7.2 -1.3 7.35 -2.0 L9.1 -1.15 10.7 -0.2 10.75 -0.2 9.7 0.95 9.85 0.75 6.85 -0.65 9.5 1.15 Q8.35 2.15 6.95 2.8 L4.85 3.55 2.35 1.5 3.85 3.7 2.1 3.85 M9.1 -0.45 L9.1 -0.2 9.55 0.05 Q10.2 0.3 10.2 -0.25 L9.8 -0.55 9.1 -0.45 M-0.55 -8.3 L1.85 -7.35 Q3.85 -6.4 3.95 -6.1 4.0 -5.8 1.85 -4.75 -0.5 -3.6 -2.05 -3.6 -3.6 -3.45 -5.35 -4.15 -7.0 -4.8 -6.85 -5.1 -6.6 -5.75 -3.9 -7.05 -1.35 -8.25 -0.55 -8.3" fill="#cc4f62" fill-rule="evenodd" stroke="none"/>
    <path d="M6.45 -3.35 L5.6 -4.5 4.85 -5.35 2.0 -3.65 Q-0.5 -2.35 -1.75 -2.0 L-1.25 -0.25 -0.8 1.5 -0.3 1.45 Q1.6 1.15 4.0 -0.05 6.6 -1.3 7.0 -2.3 L6.45 -3.35 M10.75 -0.2 L10.7 -0.2 9.1 -1.15 7.35 -2.0 Q7.2 -1.3 4.2 0.25 1.15 1.8 -0.45 1.95 L1.0 2.85 2.1 3.85 2.7 5.1 2.75 5.35 2.8 5.5 2.85 5.55 2.85 5.6 2.85 5.65 3.2 6.7 2.95 6.7 2.35 6.45 1.8 6.15 1.35 6.2 1.25 6.4 1.25 7.15 1.3 7.4 0.45 7.1 Q0.45 5.65 -0.05 4.9 -0.45 4.2 -1.1 4.25 L-1.15 4.25 Q-1.8 4.25 -2.2 4.8 L-2.35 5.05 -2.45 5.3 -2.55 5.8 -2.6 5.8 -2.85 5.7 -2.5 4.35 Q-2.1 3.8 -1.6 3.65 L-2.75 3.85 -4.8 2.9 -5.9 2.35 -5.65 0.25 -5.6 -0.3 -4.85 -3.25 -4.85 -3.35 -4.9 -3.3 Q-5.3 -3.0 -5.85 -0.55 L-5.95 0.1 -6.1 2.25 -7.15 1.7 -7.35 1.8 -7.4 1.85 -7.45 2.65 -7.35 2.7 -7.6 2.75 -8.2 2.8 -8.25 2.3 Q-8.35 1.5 -8.75 0.85 -9.3 0.0 -9.95 0.0 L-10.0 0.0 -10.3 0.05 -10.35 0.1 -10.4 0.1 -10.8 0.35 -10.9 0.45 -10.9 0.55 -11.15 1.35 -11.4 1.0 -11.25 0.6 -10.9 0.1 -10.1 -0.35 Q-10.55 -0.65 -11.0 -0.35 L-11.6 -0.75 -11.9 -1.0 -11.9 -1.35 -11.85 -1.6 -11.8 -2.25 -11.6 -3.0 Q-11.55 -3.35 -7.6 -5.3 L-7.45 -5.45 Q-6.85 -6.05 -4.15 -7.35 -1.5 -8.6 -0.65 -8.7 0.05 -8.8 4.65 -6.2 5.25 -5.85 6.5 -3.95 L7.6 -2.35 11.1 -0.35 Q11.5 0.05 11.85 1.4 L11.95 1.95 11.8 2.15 11.7 2.2 Q10.95 2.95 9.7 3.75 L9.75 3.65 9.75 3.6 10.25 3.25 10.9 2.85 11.6 2.15 11.6 1.85 11.2 0.85 10.75 -0.2 M-5.75 -2.6 L-5.6 -3.1 Q-7.0 -3.85 -7.3 -4.35 L-7.75 -3.75 -8.55 -2.55 -8.9 -2.0 Q-8.45 -1.35 -6.4 -0.35 L-6.0 -1.8 -5.75 -2.6 M-9.4 -2.05 L-7.95 -4.75 Q-11.2 -3.1 -11.1 -2.95 -11.05 -2.7 -9.5 -2.05 L-9.4 -2.05 M-8.15 1.1 L-7.7 1.5 Q-7.5 1.4 -7.75 0.85 L-8.65 -0.25 -9.8 -0.3 Q-9.3 -0.2 -8.75 0.3 L-8.15 1.1 M-0.55 -8.3 Q-1.35 -8.25 -3.9 -7.05 -6.6 -5.75 -6.85 -5.1 -7.0 -4.8 -5.35 -4.15 -3.6 -3.45 -2.05 -3.6 -0.5 -3.6 1.85 -4.75 4.0 -5.8 3.95 -6.1 3.85 -6.4 1.85 -7.35 L-0.55 -8.3 M-1.95 0.95 L-2.65 -2.05 Q-3.35 -2.1 -4.65 -2.7 L-4.8 -2.15 -5.0 -1.4 -5.35 0.2 Q-3.05 1.3 -1.85 1.4 L-1.95 0.95 M-1.25 3.7 Q-0.75 3.75 -0.15 4.25 L0.45 5.1 Q0.65 5.6 0.95 5.55 L0.9 4.9 Q0.6 4.2 -0.1 3.85 L-1.25 3.7" fill="#892c34" fill-rule="evenodd" stroke="none"/>
    <path d="M-0.3 1.45 Q-0.55 0.35 0.35 -0.85 0.85 -1.65 2.1 -2.6 3.0 -3.35 4.2 -3.6 L6.45 -3.35 7.0 -2.3 Q6.6 -1.3 4.0 -0.05 1.6 1.15 -0.3 1.45 M-8.55 -2.55 L-7.75 -3.75 -7.3 -4.35 Q-7.0 -3.85 -5.6 -3.1 L-5.75 -2.6 -8.55 -2.55 M-1.95 0.95 Q-3.05 -1.1 -4.7 -2.1 L-4.8 -2.15 -4.65 -2.7 Q-3.35 -2.1 -2.65 -2.05 L-1.95 0.95" fill="#9ee7ff" fill-rule="evenodd" stroke="none"/>
    <path d="M2.1 3.85 L3.85 3.7 2.35 1.5 4.85 3.55 6.95 2.8 Q8.35 2.15 9.5 1.15 L6.85 -0.65 9.85 0.75 9.7 0.95 10.75 -0.2 11.2 0.85 10.7 0.35 10.0 0.95 9.45 1.75 9.5 2.2 9.75 2.8 10.2 3.25 10.25 3.25 9.75 3.6 9.45 2.7 9.15 2.25 7.35 3.1 Q5.6 4.1 5.6 4.2 L5.65 5.0 5.85 5.75 3.95 6.55 3.25 6.7 3.2 6.7 2.85 5.65 3.1 6.2 3.4 6.6 4.5 6.25 5.35 5.8 5.35 5.3 4.95 4.55 4.6 4.1 3.6 4.1 2.65 4.35 2.7 5.1 2.1 3.85 M-9.4 -2.05 L-9.5 -2.05 Q-11.05 -2.7 -11.1 -2.95 -11.2 -3.1 -7.95 -4.75 L-9.4 -2.05 M-8.15 1.1 L-8.75 0.3 Q-9.3 -0.2 -9.8 -0.3 L-8.65 -0.25 -7.75 0.85 Q-7.5 1.4 -7.7 1.5 L-8.15 1.1 M-1.25 3.7 L-0.1 3.85 Q0.6 4.2 0.9 4.9 L0.95 5.55 Q0.65 5.6 0.45 5.1 L-0.15 4.25 Q-0.75 3.75 -1.25 3.7" fill="#b5414f" fill-rule="evenodd" stroke="none"/>
    <path d="M11.2 0.85 L11.6 1.85 11.45 1.8 11.0 1.6 Q10.65 1.6 10.4 1.85 L10.0 2.3 9.75 2.8 9.5 2.2 9.45 1.75 10.0 0.95 10.7 0.35 11.2 0.85 M2.85 5.65 L2.85 5.6 2.85 5.55 2.8 5.5 2.75 5.35 2.7 5.1 2.65 4.35 3.6 4.1 4.6 4.1 4.95 4.55 5.35 5.3 4.15 5.1 3.45 5.5 Q3.1 5.85 3.1 6.2 L2.85 5.65 M10.85 0.85 Q10.6 0.6 10.35 1.05 L10.25 1.5 Q10.45 1.55 10.75 1.25 11.0 0.95 10.85 0.85 M4.25 4.2 Q3.85 4.2 3.35 4.45 3.1 4.55 3.7 4.7 L4.45 4.6 Q4.65 4.2 4.25 4.2" fill="#abbcbf" fill-rule="evenodd" stroke="none"/>
    <path d="M11.6 1.85 L11.6 2.15 10.9 2.85 10.25 3.25 10.2 3.25 9.75 2.8 10.0 2.3 10.4 1.85 Q10.65 1.6 11.0 1.6 L11.45 1.8 11.6 1.85 M3.1 6.2 Q3.1 5.85 3.45 5.5 L4.15 5.1 5.35 5.3 5.35 5.8 4.5 6.25 3.4 6.6 3.1 6.2" fill="#d0dee2" fill-rule="evenodd" stroke="none"/>
    <path d="M9.75 3.6 L9.75 3.65 9.7 3.75 8.0 4.85 6.1 5.7 5.85 5.75 5.65 5.0 5.6 4.2 Q5.6 4.1 7.35 3.1 L9.15 2.25 9.45 2.7 9.75 3.6 M11.8 2.15 L11.95 1.95 12.0 1.85 12.35 2.05 12.45 2.65 12.45 3.7 Q12.1 4.65 8.1 6.75 4.1 8.8 2.95 8.7 L2.1 8.35 1.5 8.05 1.35 7.7 1.3 7.4 1.25 7.15 1.25 6.4 1.35 6.2 1.8 6.15 2.35 6.45 2.95 6.7 3.2 6.7 3.25 6.7 4.15 7.2 Q5.35 7.4 7.6 6.4 10.75 5.1 12.15 3.55 L12.0 2.3 11.8 2.15 M-11.9 -1.35 L-11.9 -1.0 -11.6 -0.75 -11.0 -0.35 -10.95 -0.3 -11.25 0.6 -11.4 1.0 -11.9 0.8 -12.35 0.45 -12.5 -0.3 -12.4 -1.1 -12.1 -1.35 -11.9 -1.5 -11.9 -1.35 M-7.35 2.7 L-7.45 2.65 -7.4 1.85 -7.35 1.8 -7.15 1.7 -6.1 2.25 -5.9 3.2 -5.9 2.35 -4.8 2.9 -2.75 3.85 -2.55 3.85 -3.0 4.75 -5.25 3.8 -7.35 2.7 M7.7 3.85 Q9.0 3.15 9.1 2.85 8.9 2.8 7.55 3.5 6.15 4.2 6.0 4.45 6.45 4.5 7.7 3.85 M9.1 3.6 L7.7 4.15 Q6.45 4.85 6.3 5.1 L7.85 4.5 9.1 3.6" fill="#222227" fill-rule="evenodd" stroke="none"/>
    <path d="M9.7 3.75 Q10.95 2.95 11.7 2.2 L11.8 2.15 12.0 2.3 12.15 3.55 Q10.75 5.1 7.6 6.4 5.35 7.4 4.15 7.2 L3.25 6.7 3.95 6.55 5.85 5.75 6.1 5.7 8.0 4.85 9.7 3.75 M9.1 3.6 L7.85 4.5 6.3 5.1 Q6.45 4.85 7.7 4.15 L9.1 3.6 M7.7 3.85 Q6.45 4.5 6.0 4.45 6.15 4.2 7.55 3.5 8.9 2.8 9.1 2.85 9.0 3.15 7.7 3.85" fill="#595863" fill-rule="evenodd" stroke="none"/>
    <path d="M-5.75 -2.6 L-6.0 -1.8 -6.4 -0.35 Q-8.45 -1.35 -8.9 -2.0 L-8.55 -2.55 -5.75 -2.6 M-4.8 -2.15 L-4.7 -2.1 Q-3.05 -1.1 -1.95 0.95 L-1.85 1.4 Q-3.05 1.3 -5.35 0.2 L-5.0 -1.4 -4.8 -2.15" fill="#6cc3e5" fill-rule="evenodd" stroke="none"/>
    <path d="M-11.8 -2.25 L-11.85 -1.6 -11.9 -1.35 -11.9 -1.5 -11.8 -2.25" fill="#c6411a" fill-rule="evenodd" stroke="none"/>
    <path d="M-11.0 -0.35 Q-10.55 -0.65 -10.1 -0.35 L-10.9 0.1 -11.25 0.6 -10.95 -0.3 -11.0 -0.35 M-11.15 1.35 L-10.9 0.55 -10.9 0.45 -10.8 0.35 -10.4 0.1 -10.35 0.1 -10.3 0.05 -10.0 0.0 Q-10.7 0.05 -10.95 1.2 L-11.0 1.3 -11.05 1.3 -11.15 1.35 M-8.2 2.8 L-7.6 2.75 -7.35 2.7 -5.25 3.8 -3.0 4.75 -2.55 3.85 -2.75 3.85 -1.6 3.65 Q-2.1 3.8 -2.5 4.35 L-2.85 5.7 -5.8 4.2 -6.8 3.6 -7.1 3.4 -7.15 3.4 -7.3 3.35 -8.2 2.8 M-6.1 2.25 L-5.95 0.1 -5.85 -0.55 Q-5.3 -3.0 -4.9 -3.3 L-4.85 -3.35 -4.85 -3.25 -5.6 -0.3 -5.65 0.25 -5.9 2.35 -5.9 3.2 -6.1 2.25 M-2.55 5.8 L-2.45 5.3 -2.35 5.05 -2.2 4.8 Q-1.8 4.25 -1.15 4.25 -1.6 4.3 -1.9 4.6 L-2.3 5.65 -2.4 5.75 -2.5 5.75 -2.55 5.8" fill="#590c15" fill-rule="evenodd" stroke="none"/>
    <path d="M-8.25 2.3 L-8.2 2.8 -7.3 3.35 -7.95 3.65 Q-8.75 4.05 -9.1 4.05 L-9.5 3.95 Q-10.25 3.65 -10.65 2.9 -11.05 2.2 -11.05 1.3 L-11.0 1.3 Q-11.0 2.1 -10.65 2.7 L-9.65 3.6 -8.65 3.45 Q-8.25 3.1 -8.25 2.3 M-1.1 4.25 Q-0.45 4.2 -0.05 4.9 0.45 5.65 0.45 7.1 L1.3 7.4 1.35 7.7 0.6 8.1 -0.5 8.45 -0.95 8.35 Q-1.65 8.05 -2.1 7.35 L-2.5 5.75 -2.4 5.75 -2.1 7.1 -1.1 8.0 -0.1 7.85 Q0.35 7.45 0.35 6.6 0.35 5.75 0.0 5.2 -0.35 4.6 -1.1 4.25" fill="#181c1c" fill-rule="evenodd" stroke="none"/>
    <path d="M-10.0 0.0 L-9.95 0.0 Q-9.3 0.0 -8.75 0.85 -8.35 1.5 -8.25 2.3 -8.25 3.1 -8.65 3.45 L-9.65 3.6 -10.65 2.7 Q-11.0 2.1 -11.0 1.3 L-10.95 1.2 Q-10.7 0.05 -10.0 0.0 M-1.15 4.25 L-1.1 4.25 Q-0.35 4.6 0.0 5.2 0.35 5.75 0.35 6.6 0.35 7.45 -0.1 7.85 L-1.1 8.0 -2.1 7.1 -2.4 5.75 -2.3 5.65 -1.9 4.6 Q-1.6 4.3 -1.15 4.25 M-9.15 1.3 Q-9.35 1.0 -9.7 0.85 L-10.15 0.95 -10.35 1.55 -10.15 2.25 -9.7 2.65 -9.25 2.6 Q-9.0 2.4 -9.05 2.0 L-9.15 1.3 M-0.6 5.7 Q-0.8 5.35 -1.15 5.25 L-1.6 5.35 -1.8 5.95 -1.6 6.6 -1.15 7.1 -0.65 7.0 -0.45 6.4 Q-0.45 5.95 -0.6 5.7" fill="#383d3d" fill-rule="evenodd" stroke="none"/>
    <path d="M-9.15 1.3 L-9.05 2.0 Q-9.0 2.4 -9.25 2.6 L-9.7 2.65 -10.15 2.25 -10.35 1.55 -10.15 0.95 -9.7 0.85 Q-9.35 1.0 -9.15 1.3 M-9.85 1.35 L-9.9 1.65 -9.6 2.2 -9.35 2.15 Q-9.25 2.1 -9.3 1.85 -9.3 1.45 -9.6 1.35 L-9.85 1.35 M-0.7 6.3 Q-0.75 5.85 -1.05 5.75 L-1.3 5.8 -1.35 6.1 -1.05 6.6 -0.8 6.6 -0.7 6.3 M-0.6 5.7 Q-0.45 5.95 -0.45 6.4 L-0.65 7.0 -1.15 7.1 -1.6 6.6 -1.8 5.95 -1.6 5.35 -1.15 5.25 Q-0.8 5.35 -0.6 5.7" fill="#909b92" fill-rule="evenodd" stroke="none"/>
    <path d="M-9.85 1.35 L-9.6 1.35 Q-9.3 1.45 -9.3 1.85 -9.25 2.1 -9.35 2.15 L-9.6 2.2 -9.9 1.65 -9.85 1.35 M-0.7 6.3 L-0.8 6.6 -1.05 6.6 -1.35 6.1 -1.3 5.8 -1.05 5.75 Q-0.75 5.85 -0.7 6.3" fill="#555b56" fill-rule="evenodd" stroke="none"/>
  </g>
</svg>
