<?xml version="1.0" encoding="UTF-8" standalone="no"?>
<svg xmlns:ffdec="https://www.free-decompiler.com/flash" xmlns:xlink="http://www.w3.org/1999/xlink" ffdec:objectType="shape" height="22.3px" width="25.0px" xmlns="http://www.w3.org/2000/svg">
  <g transform="matrix(1.0, 0.0, 0.0, 1.0, 12.5, 11.15)">
    <path d="M-0.4 -0.1 L3.0 0.15 Q3.35 0.2 3.65 -0.05 L4.0 -0.65 4.7 -8.7 4.5 -9.35 Q4.25 -9.65 3.85 -9.7 L-4.15 -10.4 -4.8 -10.2 -5.15 -9.55 -5.7 -2.95 -7.15 -2.75 -6.65 -8.65 -6.4 -9.4 -5.85 -9.95 -5.15 -10.85 Q-4.65 -11.2 -4.05 -11.15 L3.9 -10.45 Q4.6 -10.4 5.1 -9.85 5.55 -9.3 5.45 -8.6 L4.85 -1.9 4.8 -1.1 4.75 -0.6 4.5 0.15 3.9 0.7 3.85 0.9 3.65 1.3 3.3 1.65 2.15 1.9 1.0 1.85 -0.15 1.75 -0.4 -0.1 M-3.9 -3.25 L-1.5 -5.55 1.9 -8.4 2.25 -8.45 3.55 -7.85 -1.5 -3.2 -2.65 -3.45 -3.9 -3.25" fill="#3db44a" fill-rule="evenodd" stroke="none"/>
    <path d="M-5.7 -2.95 L-5.15 -9.55 -4.8 -10.2 -4.15 -10.4 3.85 -9.7 Q4.25 -9.65 4.5 -9.35 L4.7 -8.7 4.0 -0.65 3.65 -0.05 Q3.35 0.2 3.0 0.15 L-0.4 -0.1 -0.7 -2.05 Q-0.85 -2.75 -1.4 -3.15 L-1.5 -3.2 3.55 -7.85 2.25 -8.45 1.9 -8.4 -1.5 -5.55 -3.9 -3.25 -5.7 -2.95 M1.0 1.85 L2.15 1.9 3.3 1.65 3.65 1.3 3.65 1.45 3.85 1.95 4.1 2.35 4.85 1.75 Q5.35 1.4 5.85 1.3 L6.1 1.3 6.35 1.45 6.45 1.85 Q6.45 2.45 5.95 3.15 L4.95 4.1 4.85 4.6 Q4.95 5.2 5.3 5.4 L5.7 5.2 Q6.15 4.95 6.35 4.95 L7.0 5.05 7.15 5.2 7.2 5.7 Q7.0 6.3 6.05 6.75 L5.25 7.05 Q4.65 7.15 4.7 7.45 L5.05 7.9 5.6 8.05 Q6.85 7.8 7.75 7.0 9.0 5.9 8.85 4.8 L8.65 4.25 7.85 3.85 6.95 3.85 Q8.25 2.15 8.05 0.9 7.95 0.2 7.45 0.0 L6.1 -0.2 Q5.05 -0.05 3.85 0.9 L3.9 0.7 4.5 0.15 4.75 -0.6 4.8 -1.1 9.5 -1.8 10.15 -1.65 10.55 -1.0 11.7 7.0 11.55 7.65 10.95 8.0 3.0 9.2 2.35 9.0 1.95 8.45 1.0 1.85 M-10.45 -1.45 L-2.55 -2.7 -2.1 -2.65 -1.85 -2.55 -1.5 -1.9 -0.25 6.0 -0.4 6.7 -1.0 7.05 -8.95 8.3 -9.65 8.15 -10.0 7.55 -11.2 -0.4 -11.1 -1.1 -10.45 -1.45 M-5.9 -1.35 Q-6.4 -1.3 -6.65 -0.9 L-6.65 2.05 -9.55 2.8 -9.9 3.25 -9.85 3.7 -9.35 3.95 -6.6 3.65 -6.4 4.8 -6.05 6.65 -5.8 6.75 -5.15 6.85 -4.25 6.5 -4.45 3.3 -1.65 2.7 -1.6 2.1 -1.5 1.5 Q-1.6 0.95 -2.7 1.15 L-4.6 1.55 -4.9 -1.4 -5.4 -1.4 -5.9 -1.35" fill="#ffffff" fill-rule="evenodd" stroke="none"/>
    <path d="M-0.15 1.75 L1.0 1.85 1.95 8.45 2.35 9.0 3.0 9.2 10.95 8.0 11.55 7.65 11.7 7.0 10.55 -1.0 10.15 -1.65 9.5 -1.8 4.8 -1.1 4.85 -1.9 9.35 -2.55 Q10.05 -2.65 10.6 -2.2 11.15 -1.8 11.3 -1.1 L12.5 6.85 Q12.6 7.7 12.0 8.3 12.0 8.9 11.6 9.35 L10.55 9.9 2.6 11.1 Q1.95 11.25 1.35 10.8 0.85 10.4 0.7 9.7 L0.3 7.0 Q0.6 6.5 0.5 5.9 L-0.15 1.75 M3.65 1.3 L3.85 0.9 Q5.05 -0.05 6.1 -0.2 L7.45 0.0 Q7.95 0.2 8.05 0.9 8.25 2.15 6.95 3.85 L7.85 3.85 8.65 4.25 8.85 4.8 Q9.0 5.9 7.75 7.0 6.85 7.8 5.6 8.05 L5.05 7.9 4.7 7.45 Q4.65 7.15 5.25 7.05 L6.05 6.75 Q7.0 6.3 7.2 5.7 L7.15 5.2 7.0 5.05 6.35 4.95 Q6.15 4.95 5.7 5.2 L5.3 5.4 Q4.95 5.2 4.85 4.6 L4.95 4.1 5.95 3.15 Q6.45 2.45 6.45 1.85 L6.35 1.45 6.1 1.3 5.85 1.3 Q5.35 1.4 4.85 1.75 L4.1 2.35 3.85 1.95 3.65 1.45 3.65 1.3" fill="#231f20" fill-rule="evenodd" stroke="none"/>
    <path d="M-5.7 -2.95 L-3.9 -3.25 -2.65 -3.45 -1.5 -3.2 -1.4 -3.15 Q-0.85 -2.75 -0.7 -2.05 L-0.4 -0.1 -0.15 1.75 0.5 5.9 Q0.6 6.5 0.3 7.0 L0.05 7.35 Q0.0 8.0 -0.4 8.45 -0.8 8.9 -1.4 9.0 L-9.35 10.25 -10.6 9.9 -11.25 8.8 -12.45 0.85 -12.4 0.05 -12.0 -0.6 Q-12.0 -1.2 -11.6 -1.65 L-10.6 -2.2 -7.15 -2.75 -5.7 -2.95 M-10.45 -1.45 L-11.1 -1.1 -11.2 -0.4 -10.0 7.55 -9.65 8.15 -8.95 8.3 -1.0 7.05 -0.4 6.7 -0.25 6.0 -1.5 -1.9 -1.85 -2.55 -2.1 -2.65 -2.55 -2.7 -10.45 -1.45 M-5.9 -1.35 L-5.4 -1.4 -4.9 -1.4 -4.6 1.55 -2.7 1.15 Q-1.6 0.95 -1.5 1.5 L-1.6 2.1 -1.65 2.7 -4.45 3.3 -4.25 6.5 -5.15 6.85 -5.8 6.75 -6.05 6.65 -6.4 4.8 -6.6 3.65 -9.35 3.95 -9.85 3.7 -9.9 3.25 -9.55 2.8 -6.65 2.05 -6.65 -0.9 Q-6.4 -1.3 -5.9 -1.35" fill="#ec1c24" fill-rule="evenodd" stroke="none"/>
  </g>
</svg>
