<?xml version="1.0" encoding="UTF-8" standalone="no"?>
<svg xmlns:ffdec="https://www.free-decompiler.com/flash" xmlns:xlink="http://www.w3.org/1999/xlink" ffdec:objectType="shape" height="25.0px" width="18.6px" xmlns="http://www.w3.org/2000/svg">
  <g transform="matrix(1.0, 0.0, 0.0, 1.0, 9.2, 12.65)">
    <path d="M3.0 8.15 Q2.25 8.9 0.1 8.8 -2.3 8.75 -3.75 7.65 -5.0 8.0 -5.7 8.65 -6.35 9.25 -6.05 9.65 L-5.65 10.1 -5.4 10.3 -5.2 10.35 -4.05 10.85 -3.35 11.05 -2.15 11.2 -1.55 11.3 Q2.05 11.65 3.9 10.7 4.5 10.35 4.3 9.6 4.05 8.8 3.0 8.15 M-2.3 4.3 Q-2.95 4.55 -2.45 6.05 -1.95 7.55 -0.9 7.15 0.15 6.7 -0.75 5.35 -1.7 4.05 -2.3 4.3 M1.0 6.4 L2.55 6.9 Q4.25 7.5 4.8 8.0 6.0 8.95 5.9 10.0 5.8 10.85 4.9 11.35 2.75 12.45 -1.0 12.35 -4.85 12.25 -6.4 11.0 -7.25 10.35 -7.35 9.65 -7.5 8.7 -6.3 8.0 -5.3 7.35 -2.85 6.6 L-3.85 3.2 1.75 3.2 1.0 6.4" fill="#7e5a25" fill-rule="evenodd" stroke="none"/>
    <path d="M-2.3 4.3 Q-1.7 4.05 -0.75 5.35 0.15 6.7 -0.9 7.15 -1.95 7.55 -2.45 6.05 -2.95 4.55 -2.3 4.3" fill="#c39835" fill-rule="evenodd" stroke="none"/>
    <path d="M0.1 8.8 Q2.25 8.9 3.0 8.15 4.05 8.8 4.3 9.6 4.5 10.35 3.9 10.7 2.05 11.65 -1.55 11.3 L-2.15 11.2 -1.1 11.15 Q-0.25 10.9 -0.7 9.85 L-1.3 8.8 -3.05 8.15 Q-3.9 8.1 -5.05 9.0 -5.9 9.7 -5.65 10.1 L-6.05 9.65 Q-6.35 9.25 -5.7 8.65 -5.0 8.0 -3.75 7.65 -2.3 8.75 0.1 8.8" fill="#c39835" fill-rule="evenodd" stroke="none"/>
    <path d="M-1.3 8.8 L-0.7 9.85 Q-0.25 10.9 -1.1 11.15 L-2.15 11.2 -3.35 11.05 -4.05 10.85 -5.2 10.35 -5.4 10.3 -5.65 10.1 Q-5.9 9.7 -5.05 9.0 -3.9 8.1 -3.05 8.15 L-1.3 8.8" fill="#f4da2b" fill-rule="evenodd" stroke="none"/>
    <path d="M4.3 -9.85 Q4.8 -9.1 4.9 -8.3 3.2 -8.2 2.3 -7.5 1.0 -6.5 0.55 -4.9 0.5 -4.7 -0.1 -4.3 -0.85 -3.75 -1.65 -3.45 -4.0 -2.65 -5.65 -4.55 L-5.7 -4.2 Q-5.7 -3.8 -5.35 -3.45 -3.85 -2.0 -1.8 -2.25 -1.05 -2.35 0.7 -3.05 L1.1 -1.9 Q1.4 -1.25 1.55 -1.25 1.3 -2.8 1.45 -3.85 1.55 -4.6 1.95 -5.5 2.35 -6.45 3.3 -6.9 4.2 -7.35 5.2 -7.35 L6.5 -7.0 Q7.2 -6.65 7.6 -6.1 8.35 -5.05 8.25 -3.7 8.05 -2.0 6.55 -0.65 L3.4 1.05 3.75 2.85 4.0 4.65 -0.5 4.9 Q-4.35 4.85 -5.65 3.95 L-4.9 0.65 Q-6.55 -0.55 -7.4 -2.45 -7.85 -3.5 -7.95 -4.8 -8.1 -6.4 -7.6 -7.5 -6.9 -9.0 -5.55 -10.0 -4.4 -10.9 -2.9 -11.3 L0.1 -11.65 Q1.95 -11.65 3.15 -10.95 L4.3 -9.85" fill="#f4da2b" fill-rule="evenodd" stroke="none"/>
    <path d="M4.3 -9.85 Q4.8 -9.1 4.9 -8.3 3.2 -8.2 2.3 -7.5 1.0 -6.5 0.55 -4.9 0.5 -4.7 -0.1 -4.3 -0.85 -3.75 -1.65 -3.45 -4.0 -2.65 -5.65 -4.55 L-5.7 -4.2 Q-5.7 -3.8 -5.35 -3.45 -3.85 -2.0 -1.8 -2.25 -1.05 -2.35 0.7 -3.05 L1.1 -1.9 Q1.4 -1.25 1.55 -1.25 1.3 -2.8 1.45 -3.85 1.55 -4.6 1.95 -5.5 1.75 -4.3 2.8 -3.55 3.8 -2.9 5.1 -3.05 6.35 -3.2 7.1 -3.95 7.95 -4.85 7.6 -6.1 8.35 -5.05 8.25 -3.7 8.05 -2.0 6.55 -0.65 L3.4 1.05 3.75 2.85 4.0 4.65 -0.5 4.9 Q-4.35 4.85 -5.65 3.95 L-4.9 0.65 Q-6.55 -0.55 -7.4 -2.45 -7.85 -3.5 -7.95 -4.8 -8.1 -6.4 -7.6 -7.5 -7.65 -6.35 -6.15 -5.8 L-3.3 -5.55 Q-2.35 -5.7 -0.55 -6.5 1.4 -7.35 2.3 -8.15 3.2 -8.9 3.4 -9.5 3.6 -10.15 3.15 -10.95 L4.3 -9.85" fill="#c39835" fill-rule="evenodd" stroke="none"/>
    <path d="M-4.0 -0.05 L-4.5 0.4 -4.9 0.65 Q-6.55 -0.55 -7.4 -2.45 -7.95 -3.7 -8.0 -5.3 -7.65 -3.65 -6.75 -2.35 -5.7 -0.9 -4.0 -0.05" fill="#e0b86e" fill-rule="evenodd" stroke="none"/>
    <path d="M7.2 -2.1 Q8.0 -2.85 8.25 -3.7 8.1 -2.0 6.55 -0.65 L3.4 1.05 Q3.05 0.5 2.85 -0.45 L5.35 -1.05 Q6.45 -1.45 7.2 -2.1" fill="#e0b86e" fill-rule="evenodd" stroke="none"/>
    <path d="M0.9 -5.85 L0.55 -4.9 Q0.5 -4.7 -0.1 -4.3 -0.85 -3.75 -1.65 -3.45 -4.0 -2.65 -5.65 -4.55 -4.25 -3.75 -2.55 -3.95 -1.8 -4.05 -0.75 -4.6 L0.9 -5.85" fill="#e0b86e" fill-rule="evenodd" stroke="none"/>
    <path d="M4.05 -8.15 L4.75 -8.9 4.9 -8.3 4.05 -8.15" fill="#e0b86e" fill-rule="evenodd" stroke="none"/>
    <path d="M-5.15 1.6 Q-4.4 1.0 -2.5 1.15 L-0.55 1.55 Q0.5 1.9 1.25 2.35 2.0 2.8 2.9 3.8 3.7 4.7 3.5 4.7 L-1.1 4.85 Q-4.5 4.75 -5.65 3.95 L-5.15 1.6" fill="#f4da2b" fill-rule="evenodd" stroke="none"/>
    <path d="M0.5 -10.6 Q0.6 -10.05 -0.5 -10.05 -3.55 -9.95 -4.9 -8.25 L-5.45 -7.95 -6.0 -8.05 -6.1 -8.3 -5.8 -8.8 Q-4.95 -9.95 -3.35 -10.55 L-0.55 -11.15 Q0.35 -11.2 0.5 -10.6" fill="#fefefe" fill-rule="evenodd" stroke="none"/>
    <path d="M6.5 -6.0 Q6.4 -5.5 5.95 -5.65 L4.7 -5.85 Q4.05 -5.75 3.45 -5.1 3.2 -4.85 2.8 -5.1 2.4 -5.35 2.7 -5.75 3.3 -6.55 4.35 -6.8 L6.15 -6.7 Q6.65 -6.45 6.5 -6.0" fill="#fefefe" fill-rule="evenodd" stroke="none"/>
    <path d="M1.45 -11.0 L2.3 -10.7 2.45 -10.2 2.05 -9.9 1.5 -9.95 Q1.25 -10.05 1.1 -10.2 0.9 -10.4 1.0 -10.7 1.1 -11.0 1.45 -11.0" fill="#fefefe" fill-rule="evenodd" stroke="none"/>
    <path d="M0.55 3.8 L-1.9 3.9 Q-2.4 3.85 -2.3 3.45 -2.25 3.0 -1.75 3.05 L0.45 3.05 0.75 3.35 0.55 3.8" fill="#7e5a25" fill-rule="evenodd" stroke="none"/>
    <path d="M-6.3 2.45 Q-6.1 2.1 -5.65 2.25 L-3.55 2.9 Q-3.3 2.95 -3.35 3.25 L-3.65 3.65 -6.05 3.0 Q-6.5 2.85 -6.3 2.45" fill="#7e5a25" fill-rule="evenodd" stroke="none"/>
    <path d="M4.55 2.35 L4.85 2.65 Q4.95 3.0 4.7 3.15 4.15 3.55 2.6 3.75 2.05 3.85 1.9 3.4 1.75 2.95 2.35 2.85 L3.45 2.75 4.55 2.35" fill="#7e5a25" fill-rule="evenodd" stroke="none"/>
    <path d="M6.5 -7.0 L5.2 -7.35 Q4.2 -7.35 3.3 -6.9 2.35 -6.45 1.95 -5.5 1.55 -4.6 1.45 -3.85 1.3 -2.8 1.55 -1.25 1.4 -1.25 1.1 -1.9 L0.7 -3.05 Q-1.05 -2.35 -1.8 -2.25 -3.85 -2.0 -5.35 -3.45 -5.7 -3.8 -5.7 -4.2 L-5.65 -4.55 Q-4.0 -2.65 -1.65 -3.45 -0.85 -3.75 -0.1 -4.3 0.5 -4.7 0.55 -4.9 1.0 -6.5 2.3 -7.5 3.2 -8.2 4.9 -8.3 4.8 -9.1 4.3 -9.85 L3.15 -10.95 Q1.95 -11.65 0.1 -11.65 L-2.9 -11.3 Q-4.4 -10.9 -5.55 -10.0 -6.9 -9.0 -7.6 -7.5 -8.1 -6.4 -7.95 -4.8 -7.85 -3.5 -7.4 -2.45 -6.55 -0.55 -4.9 0.65 L-5.65 3.95 Q-4.35 4.85 -0.5 4.9 L4.0 4.65 3.75 2.85 3.4 1.05 6.55 -0.65 Q8.05 -2.0 8.25 -3.7 8.35 -5.05 7.6 -6.1 7.2 -6.65 6.5 -7.0 M6.3 -8.2 L6.35 -8.1 6.4 -8.1 Q8.0 -7.65 8.7 -6.55 L9.35 -4.6 Q9.5 -3.5 9.15 -2.35 8.85 -1.25 7.5 -0.15 6.2 1.0 4.55 1.55 4.6 2.3 5.1 3.5 L5.65 5.25 3.45 5.75 -0.45 5.9 Q-5.9 5.8 -7.2 4.25 L-6.55 2.4 -5.95 0.9 Q-7.85 -0.55 -8.65 -2.75 -9.5 -4.9 -9.05 -6.9 -8.6 -8.6 -7.25 -9.95 -5.85 -11.35 -3.8 -12.05 -1.45 -12.8 0.85 -12.6 2.7 -12.4 4.0 -11.6 5.95 -10.45 6.3 -8.2" fill="#7e5a25" fill-rule="evenodd" stroke="none"/>
  </g>
</svg>
