<?xml version="1.0" encoding="UTF-8" standalone="no"?>
<svg xmlns:ffdec="https://www.free-decompiler.com/flash" xmlns:xlink="http://www.w3.org/1999/xlink" ffdec:objectType="shape" height="24.95px" width="25.0px" xmlns="http://www.w3.org/2000/svg">
  <g transform="matrix(1.0, 0.0, 0.0, 1.0, 12.5, 12.5)">
    <path d="M7.3 -6.2 Q5.35 -7.2 3.05 -7.3 -2.4 -7.65 -5.65 -3.85 -6.5 -2.8 -7.5 -2.55 L-9.05 -2.7 -9.15 -2.75 Q-9.7 -3.25 -9.7 -4.1 -9.7 -5.2 -8.8 -6.5 -6.3 -10.2 -1.9 -11.0 2.25 -11.7 5.95 -9.6 7.75 -8.55 9.1 -6.9 10.5 -5.1 11.0 -3.0 9.75 -4.9 7.6 -6.05 L7.3 -6.2 M-8.1 5.1 Q-5.85 7.2 -2.65 7.5 -0.25 7.7 2.05 6.7 4.35 5.7 6.0 3.75 6.85 2.75 7.85 2.45 L9.25 2.5 9.4 2.6 Q10.1 3.05 10.05 4.0 10.05 5.1 9.15 6.45 6.65 10.15 2.25 10.9 -1.9 11.65 -5.6 9.5 -7.8 8.2 -9.25 6.05 -10.8 3.7 -10.95 0.95 -9.75 3.55 -8.1 5.1 M-1.4 -8.6 L-1.05 -8.65 -0.85 -8.95 Q-0.8 -9.1 -0.9 -9.25 -1.0 -9.45 -1.2 -9.45 L-1.55 -9.4 -1.75 -9.1 -1.65 -8.8 -1.4 -8.6 M-0.35 -6.25 Q0.25 -6.25 0.65 -5.8 L2.05 -3.0 5.1 -2.6 Q5.95 -2.3 5.95 -1.55 L5.65 -0.75 3.55 1.35 4.1 4.4 Q4.1 4.95 3.75 5.3 L2.9 5.65 Q2.15 5.7 -0.2 4.2 -2.6 5.7 -3.3 5.7 -3.75 5.75 -4.1 5.4 L-4.45 4.55 Q-4.5 3.75 -4.0 1.5 L-6.15 -0.45 -6.5 -1.25 -6.15 -2.1 -5.45 -2.5 -2.6 -2.9 -1.3 -5.75 Q-0.9 -6.25 -0.35 -6.25 M-1.25 -3.55 L-1.85 -1.95 -3.55 -1.75 -5.4 -1.4 Q-5.6 -1.25 -4.2 -0.05 L-2.8 1.1 -3.15 2.8 -3.35 4.65 Q-3.15 4.85 -0.2 2.95 2.7 4.9 3.0 4.55 3.3 4.25 2.35 1.05 L4.9 -1.5 1.3 -2.0 Q0.05 -5.2 -0.3 -5.2 -0.55 -5.2 -1.25 -3.55 M-3.75 -8.95 L-4.4 -8.85 -4.75 -8.3 -4.65 -7.65 -4.1 -7.3 -3.45 -7.4 Q-3.15 -7.6 -3.1 -7.95 -3.0 -8.3 -3.2 -8.6 L-3.75 -8.95 M-6.5 -5.45 L-5.7 -5.6 Q-5.3 -5.85 -5.2 -6.3 -5.1 -6.7 -5.35 -7.1 L-6.05 -7.55 -6.85 -7.4 -7.35 -6.7 -7.25 -6.0 -7.4 -6.05 -8.5 -5.85 -9.15 -4.95 Q-9.3 -4.35 -8.95 -3.85 -8.6 -3.35 -8.0 -3.2 -7.4 -3.05 -6.9 -3.4 -6.4 -3.75 -6.3 -4.35 -6.15 -4.95 -6.5 -5.45 M7.6 5.75 L7.75 5.8 8.85 5.6 9.5 4.65 Q9.6 4.1 9.3 3.6 8.95 3.05 8.35 2.95 L7.25 3.15 Q6.75 3.5 6.65 4.1 6.5 4.65 6.85 5.2 L6.0 5.35 Q5.65 5.6 5.55 6.0 5.45 6.45 5.7 6.85 L6.4 7.3 7.2 7.15 Q7.6 6.9 7.65 6.45 L7.6 5.75 M2.0 8.5 L1.7 8.3 1.35 8.4 1.15 8.7 1.25 9.05 1.5 9.25 1.9 9.15 2.1 8.85 2.0 8.5 M4.45 7.05 L3.8 7.15 3.45 7.7 Q3.35 8.05 3.55 8.35 L4.1 8.7 4.7 8.6 5.1 8.05 4.95 7.4 Q4.8 7.1 4.45 7.05" fill="#0087b4" fill-rule="evenodd" stroke="none"/>
    <path d="M-9.15 -2.75 L-9.05 -2.7 -7.5 -2.55 Q-6.5 -2.8 -5.65 -3.85 -2.4 -7.65 3.05 -7.3 5.35 -7.2 7.3 -6.2 L8.0 -5.25 Q10.2 -1.95 9.35 1.9 L9.25 2.5 7.85 2.45 Q6.85 2.75 6.0 3.75 4.35 5.7 2.05 6.7 -0.25 7.7 -2.65 7.5 -5.85 7.2 -8.1 5.1 -10.15 1.8 -9.35 -2.0 L-9.15 -2.75 M-1.4 -8.6 L-1.65 -8.8 -1.75 -9.1 -1.55 -9.4 -1.2 -9.45 Q-1.0 -9.45 -0.9 -9.25 -0.8 -9.1 -0.85 -8.95 L-1.05 -8.65 -1.4 -8.6 M-0.35 -6.25 Q-0.9 -6.25 -1.3 -5.75 L-2.6 -2.9 -5.45 -2.5 -6.15 -2.1 -6.5 -1.25 -6.15 -0.45 -4.0 1.5 Q-4.5 3.75 -4.45 4.55 L-4.1 5.4 Q-3.75 5.75 -3.3 5.7 -2.6 5.7 -0.2 4.2 2.15 5.7 2.9 5.65 L3.75 5.3 Q4.1 4.95 4.1 4.4 L3.55 1.35 5.65 -0.75 5.95 -1.55 Q5.95 -2.3 5.1 -2.6 L2.05 -3.0 0.65 -5.8 Q0.25 -6.25 -0.35 -6.25 M-3.75 -8.95 L-3.2 -8.6 Q-3.0 -8.3 -3.1 -7.95 -3.15 -7.6 -3.45 -7.4 L-4.1 -7.3 -4.65 -7.65 -4.75 -8.3 -4.4 -8.85 -3.75 -8.95 M4.45 7.05 Q4.8 7.1 4.95 7.4 L5.1 8.05 4.7 8.6 4.1 8.7 3.55 8.35 Q3.35 8.05 3.45 7.7 L3.8 7.15 4.45 7.05 M2.0 8.5 L2.1 8.85 1.9 9.15 1.5 9.25 1.25 9.05 1.15 8.7 1.35 8.4 1.7 8.3 2.0 8.5" fill="#2cc3ea" fill-rule="evenodd" stroke="none"/>
    <path d="M-1.25 -3.55 Q-0.55 -5.2 -0.3 -5.2 0.05 -5.2 1.3 -2.0 L4.9 -1.5 2.35 1.05 Q3.3 4.25 3.0 4.55 2.7 4.9 -0.2 2.95 -3.15 4.85 -3.35 4.65 L-3.15 2.8 -2.8 1.1 -4.2 -0.05 Q-5.6 -1.25 -5.4 -1.4 L-3.55 -1.75 -1.85 -1.95 -1.25 -3.55" fill="#ffaf3c" fill-rule="evenodd" stroke="none"/>
    <path d="M7.3 -6.2 L7.6 -6.05 Q9.75 -4.9 11.0 -3.0 10.5 -5.1 9.1 -6.9 7.75 -8.55 5.95 -9.6 2.25 -11.7 -1.9 -11.0 -6.3 -10.2 -8.8 -6.5 -9.7 -5.2 -9.7 -4.1 -9.7 -3.25 -9.15 -2.75 L-9.35 -2.0 Q-10.15 1.8 -8.1 5.1 -9.75 3.55 -10.95 0.95 -10.8 3.7 -9.25 6.05 -7.8 8.2 -5.6 9.5 -1.9 11.65 2.25 10.9 6.65 10.15 9.15 6.45 10.05 5.1 10.05 4.0 10.1 3.05 9.4 2.6 L9.25 2.5 9.35 1.9 Q10.2 -1.95 8.0 -5.25 L7.3 -6.2 M10.45 -6.85 Q13.25 -2.5 12.2 2.55 11.15 7.6 6.85 10.4 2.5 13.25 -2.55 12.15 -7.6 11.1 -10.45 6.8 -13.25 2.5 -12.2 -2.55 -11.15 -7.6 -6.85 -10.45 -2.5 -13.25 2.55 -12.2 7.6 -11.15 10.45 -6.85" fill="#002b38" fill-rule="evenodd" stroke="none"/>
    <path d="M-7.25 -6.0 L-7.35 -6.7 -6.85 -7.4 -6.05 -7.55 -5.35 -7.1 Q-5.1 -6.7 -5.2 -6.3 -5.3 -5.85 -5.7 -5.6 L-6.5 -5.45 Q-6.95 -5.55 -7.2 -5.9 L-7.25 -6.0 M7.6 5.75 L7.65 6.45 Q7.6 6.9 7.2 7.15 L6.4 7.3 5.7 6.85 Q5.45 6.45 5.55 6.0 5.65 5.6 6.0 5.35 L6.85 5.2 7.5 5.65 7.6 5.75" fill="#97e6ff" fill-rule="evenodd" stroke="none"/>
    <path d="M-6.5 -5.45 Q-6.15 -4.95 -6.3 -4.35 -6.4 -3.75 -6.9 -3.4 -7.4 -3.05 -8.0 -3.2 -8.6 -3.35 -8.95 -3.85 -9.3 -4.35 -9.15 -4.95 L-8.5 -5.85 -7.4 -6.05 -7.25 -6.0 -7.2 -5.9 Q-6.95 -5.55 -6.5 -5.45 M6.85 5.2 Q6.5 4.65 6.65 4.1 6.75 3.5 7.25 3.15 L8.35 2.95 Q8.95 3.05 9.3 3.6 9.6 4.1 9.5 4.65 L8.85 5.6 7.75 5.8 7.6 5.75 7.5 5.65 6.85 5.2" fill="#fdfdfd" fill-rule="evenodd" stroke="none"/>
  </g>
</svg>
