<?xml version="1.0" encoding="UTF-8" standalone="no"?>
<svg xmlns:ffdec="https://www.free-decompiler.com/flash" xmlns:xlink="http://www.w3.org/1999/xlink" ffdec:objectType="shape" height="25.0px" width="24.0px" xmlns="http://www.w3.org/2000/svg">
  <g transform="matrix(1.0, 0.0, 0.0, 1.0, 12.0, 12.5)">
    <path d="M6.65 -9.5 Q9.65 -6.5 9.65 -2.25 9.65 2.0 6.65 5.0 3.65 8.0 -0.6 8.0 -4.85 8.0 -7.85 5.0 -10.85 2.0 -10.85 -2.25 -10.85 -6.5 -7.85 -9.5 -4.85 -12.5 -0.6 -12.5 3.65 -12.5 6.65 -9.5" fill="#ffef00" fill-rule="evenodd" stroke="none"/>
    <path d="M-6.25 8.3 L-6.5 9.25 -6.05 9.25 -6.65 12.15 -12.0 12.35 -11.85 10.0 Q-11.85 9.3 -11.45 8.85 L-11.7 5.9 -8.65 5.9 Q-7.5 5.95 -6.9 6.55 -6.25 7.15 -6.25 8.15 L-6.25 8.3" fill="#154209" fill-rule="evenodd" stroke="none"/>
    <path d="M-2.05 8.85 Q-1.85 9.1 -1.8 9.55 L-1.75 9.65 -1.8 9.95 Q-1.85 10.95 -2.45 11.55 -3.0 12.15 -4.0 12.2 L-4.1 12.2 -5.3 12.15 Q-6.25 12.1 -6.85 11.55 -7.45 11.0 -7.55 10.05 L-7.55 8.35 Q-7.6 7.25 -6.9 6.55 -6.25 5.9 -5.1 5.85 L-2.0 5.9 -2.05 8.85" fill="#154209" fill-rule="evenodd" stroke="none"/>
    <path d="M1.0 5.9 Q1.9 5.95 2.4 6.55 2.95 7.15 2.9 8.25 L2.75 10.0 Q2.6 11.25 1.85 11.8 L0.75 12.15 -1.05 12.25 -2.2 11.85 Q-2.95 11.3 -3.05 10.05 L-3.1 8.2 -3.05 8.2 Q-3.0 6.85 -2.2 6.25 -1.75 5.9 -1.05 5.85 L1.0 5.9" fill="#154209" fill-rule="evenodd" stroke="none"/>
    <path d="M1.65 8.2 Q1.75 6.85 2.5 6.25 3.0 5.9 3.7 5.85 L5.7 5.9 Q6.6 5.95 7.1 6.55 7.65 7.2 7.6 8.25 L7.45 10.0 Q7.3 11.25 6.6 11.8 6.15 12.15 5.5 12.15 L3.7 12.25 2.55 11.85 Q1.8 11.3 1.65 10.05 L1.65 10.0 1.65 8.2" fill="#154209" fill-rule="evenodd" stroke="none"/>
    <path d="M-7.15 7.9 Q-7.25 9.3 -8.5 9.3 L-9.85 9.3 Q-10.3 9.35 -10.3 9.95 L-7.15 9.85 -7.35 11.0 -11.05 11.1 -10.95 9.75 Q-10.95 8.7 -9.55 8.7 L-8.0 8.75 Q-7.7 8.75 -7.7 8.4 -7.7 8.1 -8.0 8.1 L-10.6 8.25 -10.75 6.45 -8.65 6.45 Q-7.15 6.5 -7.15 7.85 L-7.15 7.9" fill="#2ed44a" fill-rule="evenodd" stroke="none"/>
    <path d="M-3.6 9.6 Q-3.55 9.25 -3.95 9.25 L-5.65 9.3 Q-5.95 9.25 -6.0 9.55 -6.05 9.9 -5.7 9.9 L-3.9 9.85 Q-3.6 9.9 -3.6 9.6 M-2.9 8.15 L-5.3 8.15 Q-5.75 8.2 -5.65 8.6 L-5.1 8.5 -4.05 8.5 Q-2.8 8.45 -2.65 9.4 L-2.65 9.6 Q-2.7 10.95 -4.05 11.0 L-5.25 10.95 Q-6.55 10.9 -6.65 9.65 L-6.7 8.05 Q-6.7 6.5 -5.05 6.4 L-2.9 6.45 -2.9 8.15" fill="#2ed44a" fill-rule="evenodd" stroke="none"/>
    <path d="M-0.95 8.05 L-1.0 9.9 1.2 10.0 1.2 8.15 -0.95 8.05 M2.0 7.9 L1.85 9.6 Q1.7 11.0 0.75 11.0 L-1.05 11.05 Q-2.1 11.05 -2.2 9.65 L-2.2 7.95 Q-2.1 6.45 -1.0 6.4 L0.95 6.5 Q2.1 6.55 2.0 7.9" fill="#2ed44a" fill-rule="evenodd" stroke="none"/>
    <path d="M5.95 8.1 L5.95 8.15 3.8 8.05 3.75 9.9 5.9 10.0 5.95 8.15 5.95 8.1 M5.7 6.5 Q6.85 6.55 6.75 7.9 L6.6 9.6 Q6.45 10.95 5.5 11.0 L3.7 11.05 Q2.65 11.05 2.5 9.65 L2.5 7.95 Q2.6 6.45 3.75 6.4 L5.7 6.5" fill="#2ed44a" fill-rule="evenodd" stroke="none"/>
    <path d="M11.9 7.7 L12.0 10.6 10.85 10.6 10.8 12.35 7.75 12.5 7.7 10.85 6.6 10.75 6.5 7.6 7.7 7.65 7.75 6.15 11.2 5.9 10.8 7.7 11.9 7.7" fill="#154209" fill-rule="evenodd" stroke="none"/>
    <path d="M11.15 9.45 L10.05 9.45 9.95 11.25 8.6 11.3 8.5 9.75 7.45 9.65 7.35 8.2 8.5 8.25 8.6 6.65 10.15 6.55 9.75 8.3 11.05 8.25 11.15 9.45" fill="#2ed44a" fill-rule="evenodd" stroke="none"/>
    <path d="M3.85 0.0 Q1.7 3.1 0.6 4.1 -0.05 4.7 -0.6 4.7 -1.75 4.7 -4.85 2.35 -7.0 0.7 -7.75 -0.4 -8.15 -1.0 -8.15 -1.55 -8.15 -2.7 -7.3 -3.75 -6.35 -4.85 -5.2 -4.85 L-4.0 -4.4 -2.85 -3.45 -2.05 -2.75 -0.25 -5.15 1.65 -7.7 2.95 -8.5 3.25 -8.5 Q4.45 -8.5 5.65 -7.7 6.95 -6.75 6.95 -5.6 6.95 -4.5 3.85 0.0" fill="#b28314" fill-rule="evenodd" stroke="none"/>
    <path d="M2.95 -0.9 Q0.05 3.35 -0.6 3.35 -1.4 3.35 -4.2 1.25 -7.05 -0.95 -7.05 -1.8 -7.05 -2.5 -6.5 -3.25 -5.9 -4.0 -5.2 -4.0 -4.75 -4.0 -3.55 -2.9 -2.35 -1.8 -1.9 -1.8 -1.45 -1.8 0.6 -4.7 2.65 -7.65 3.05 -7.7 3.9 -7.75 4.85 -7.15 5.85 -6.55 5.85 -5.85 5.85 -5.1 2.95 -0.9" fill="#ffe211" fill-rule="evenodd" stroke="none"/>
    <path d="M-4.8 -2.1 L-5.5 -1.6 -6.15 -1.65 -6.4 -2.25 -6.1 -3.05 -5.4 -3.55 -4.75 -3.5 Q-4.5 -3.3 -4.5 -2.9 L-4.8 -2.1" fill="#fdfdfd" fill-rule="evenodd" stroke="none"/>
  </g>
</svg>
