<?xml version="1.0" encoding="UTF-8" standalone="no"?>
<svg xmlns:ffdec="https://www.free-decompiler.com/flash" xmlns:xlink="http://www.w3.org/1999/xlink" ffdec:objectType="shape" height="24.9px" width="25.0px" xmlns="http://www.w3.org/2000/svg">
  <g transform="matrix(1.0, 0.0, 0.0, 1.0, 12.5, 12.45)">
    <path d="M7.0 -7.5 L8.1 -7.1 9.05 -6.65 9.9 -7.3 Q10.8 -7.95 10.95 -7.85 11.15 -7.75 10.75 -5.65 12.6 -4.4 12.5 -4.25 12.4 -4.05 10.3 -3.7 9.8 -1.7 9.5 -1.65 9.35 -1.6 8.85 -2.55 L8.35 -3.5 7.25 -3.5 6.1 -3.65 6.8 -4.55 7.55 -5.35 7.2 -6.4 Q6.85 -7.45 7.0 -7.5 M7.0 -0.8 L6.75 -0.95 3.5 -2.45 3.45 -5.95 Q3.3 -9.5 2.85 -9.65 2.4 -9.8 -0.1 -7.3 L-2.5 -4.75 -5.75 -5.65 -9.5 -6.35 Q-9.95 -6.15 -8.25 -2.95 L-7.8 -2.1 -9.5 -2.4 -10.5 -5.05 Q-11.0 -6.6 -10.55 -7.05 -10.05 -7.6 -8.9 -7.6 -6.95 -7.6 -3.0 -6.35 L0.85 -10.0 Q2.45 -11.15 3.3 -10.8 4.2 -10.45 4.55 -8.65 4.95 -7.0 4.95 -3.45 7.75 -2.2 9.35 -0.95 11.05 0.35 10.95 1.4 10.9 2.1 9.45 2.75 L9.55 2.15 9.6 1.25 9.8 1.05 9.4 0.6 9.15 0.15 Q8.6 -0.6 7.5 -0.75 L7.0 -0.8 M-4.1 -11.05 L-2.4 -11.0 -3.5 -9.65 Q-2.9 -8.2 -3.0 -8.05 -3.15 -7.9 -4.6 -8.65 -5.9 -7.6 -6.0 -7.7 L-6.0 -8.6 -5.9 -9.4 -6.6 -9.85 -7.25 -10.45 -6.4 -10.7 -5.6 -10.85 -5.4 -11.65 -5.0 -12.45 -4.1 -11.05 M-9.95 5.6 L-10.2 6.4 -6.5 6.2 -5.6 6.05 -5.25 6.05 -3.8 5.75 -3.25 5.6 -2.55 6.2 -0.95 8.4 Q1.2 11.2 1.75 11.0 2.3 10.75 2.75 7.3 L2.9 6.4 4.05 7.0 3.45 10.3 Q2.9 12.2 2.1 12.4 1.35 12.65 -0.35 11.1 L-3.8 7.0 -8.75 7.8 Q-10.55 7.95 -11.25 7.2 -11.85 6.55 -11.45 5.3 L-11.15 5.4 -9.95 5.6 M-4.45 9.25 L-3.85 9.0 -3.2 8.8 -3.65 10.05 Q-2.8 10.95 -2.85 11.1 L-4.15 11.05 -4.9 12.1 -5.3 10.85 -5.9 10.7 -6.5 10.45 -5.95 10.05 -5.45 9.75 -5.5 9.1 -5.45 8.45 Q-5.4 8.4 -4.9 8.8 L-4.45 9.25 M6.3 8.05 L6.65 8.1 6.2 8.6 6.4 9.3 5.75 9.05 5.15 9.45 5.2 8.75 4.9 8.55 4.6 8.3 5.3 8.1 5.4 7.8 5.55 7.45 5.75 7.75 5.95 8.05 6.3 8.05" fill="#b46303" fill-rule="evenodd" stroke="none"/>
    <path d="M2.5 -8.45 Q1.85 -9.0 0.5 -7.5 -0.2 -6.8 -0.05 -6.15 0.1 -5.55 0.75 -5.3 1.35 -5.05 1.95 -5.3 2.6 -5.6 2.75 -6.4 3.1 -7.95 2.5 -8.45 M-7.8 -2.1 L-8.25 -2.95 Q-9.95 -6.15 -9.5 -6.35 L-5.75 -5.65 -2.5 -4.75 -0.1 -7.3 Q2.4 -9.8 2.85 -9.65 3.3 -9.5 3.45 -5.95 L3.5 -2.45 6.75 -0.95 7.0 -0.8 5.1 -1.05 5.05 -1.05 4.3 -1.05 Q3.5 -0.9 3.2 -0.45 2.65 -1.15 1.6 -1.3 L-0.9 -1.6 Q-2.0 -1.7 -2.75 -1.0 -3.25 -1.7 -4.35 -1.85 L-5.85 -2.1 Q-7.4 -2.3 -7.7 -2.1 L-7.8 -2.1 M9.4 0.6 L9.8 1.05 9.6 1.25 9.4 0.6 M-7.3 -5.45 Q-7.95 -6.0 -8.45 -5.7 -9.05 -5.3 -8.65 -4.5 -8.3 -3.75 -7.25 -4.5 -6.65 -4.9 -7.3 -5.45 M-5.6 6.05 L-6.5 6.2 -10.2 6.4 -9.95 5.6 -9.7 5.6 -8.8 5.45 Q-8.25 5.85 -7.55 5.95 L-7.5 5.95 -5.6 6.05 M2.9 6.4 L2.75 7.3 Q2.3 10.75 1.75 11.0 1.2 11.2 -0.95 8.4 L-2.55 6.2 -1.6 6.5 -1.55 6.5 0.65 6.6 Q1.8 6.7 2.5 5.9 L2.9 6.4 M-3.25 5.6 L-3.8 5.75 -3.4 5.35 -3.25 5.6" fill="#ffaf3c" fill-rule="evenodd" stroke="none"/>
    <path d="M2.5 -8.45 Q3.1 -7.95 2.75 -6.4 2.6 -5.6 1.95 -5.3 1.35 -5.05 0.75 -5.3 0.1 -5.55 -0.05 -6.15 -0.2 -6.8 0.5 -7.5 1.85 -9.0 2.5 -8.45 M-7.3 -5.45 Q-6.65 -4.9 -7.25 -4.5 -8.3 -3.75 -8.65 -4.5 -9.05 -5.3 -8.45 -5.7 -7.95 -6.0 -7.3 -5.45" fill="#fdfdfd" fill-rule="evenodd" stroke="none"/>
    <path d="M7.0 -0.8 L7.5 -0.75 Q8.6 -0.6 9.15 0.15 L9.4 0.6 9.6 1.25 9.55 2.15 9.45 2.75 9.2 4.2 Q8.85 5.7 7.95 6.55 7.2 7.2 6.6 7.2 L4.3 7.05 4.05 7.0 2.9 6.4 2.5 5.9 Q1.8 6.7 0.65 6.6 L-1.55 6.5 -1.6 6.5 -2.55 6.2 -3.25 5.6 -3.4 5.35 -3.8 5.75 -5.25 6.05 -5.6 6.05 -7.5 5.95 -7.55 5.95 Q-8.25 5.85 -8.8 5.45 L-9.7 5.6 -9.95 5.6 -11.15 5.4 -11.45 5.3 Q-12.0 5.1 -11.95 4.45 L-11.65 1.8 -12.45 -0.4 Q-12.65 -1.0 -12.15 -1.5 L-11.1 -2.35 -10.3 -2.55 -9.5 -2.4 -7.8 -2.1 -7.7 -2.1 Q-7.4 -2.3 -5.85 -2.1 L-4.35 -1.85 Q-3.25 -1.7 -2.75 -1.0 -2.0 -1.7 -0.9 -1.6 L1.6 -1.3 Q2.65 -1.15 3.2 -0.45 3.5 -0.9 4.3 -1.05 L5.05 -1.05 5.1 -1.05 7.0 -0.8 M-2.65 1.0 L-2.85 3.05 Q-2.8 4.7 -1.5 4.85 L0.75 4.95 Q1.95 5.05 2.3 3.45 L2.65 1.45 Q2.9 -0.15 1.5 -0.35 L-0.95 -0.65 Q-2.35 -0.7 -2.65 1.0 M1.65 1.65 L1.4 3.85 -1.3 3.45 -1.05 1.3 1.65 1.65 M4.95 -0.1 Q3.55 -0.15 3.3 1.6 L3.1 3.6 Q3.15 5.25 4.45 5.4 L6.65 5.5 Q7.85 5.6 8.2 4.05 L8.55 2.0 Q8.85 0.4 7.4 0.2 L4.95 -0.1 M7.55 2.2 L7.3 4.4 4.65 4.0 4.85 1.85 7.55 2.2 M-11.5 -0.75 L-11.05 0.6 -10.5 0.3 -10.9 3.9 -9.65 4.0 -9.0 -1.35 -10.5 -1.6 -11.5 -0.75 M-4.3 1.1 L-4.55 3.3 -7.25 2.9 -7.0 0.75 -4.3 1.1 M-6.9 -1.2 Q-8.3 -1.3 -8.55 0.45 L-8.75 2.45 Q-8.7 4.15 -7.45 4.3 L-5.2 4.4 Q-3.95 4.5 -3.65 2.9 L-3.25 0.9 Q-3.05 -0.7 -4.45 -0.9 L-6.9 -1.2" fill="#560001" fill-rule="evenodd" stroke="none"/>
    <path d="M4.95 -0.1 L7.4 0.2 Q8.85 0.4 8.55 2.0 L8.2 4.05 Q7.85 5.6 6.65 5.5 L4.45 5.4 Q3.15 5.25 3.1 3.6 L3.3 1.6 Q3.55 -0.15 4.95 -0.1 M1.65 1.65 L-1.05 1.3 -1.3 3.45 1.4 3.85 1.65 1.65 M-2.65 1.0 Q-2.35 -0.7 -0.95 -0.65 L1.5 -0.35 Q2.9 -0.15 2.65 1.45 L2.3 3.45 Q1.95 5.05 0.75 4.95 L-1.5 4.85 Q-2.8 4.7 -2.85 3.05 L-2.65 1.0 M7.55 2.2 L4.85 1.85 4.65 4.0 7.3 4.4 7.55 2.2 M-11.5 -0.75 L-10.5 -1.6 -9.0 -1.35 -9.65 4.0 -10.9 3.9 -10.5 0.3 -11.05 0.6 -11.5 -0.75 M-6.9 -1.2 L-4.45 -0.9 Q-3.05 -0.7 -3.25 0.9 L-3.65 2.9 Q-3.95 4.5 -5.2 4.4 L-7.45 4.3 Q-8.7 4.15 -8.75 2.45 L-8.55 0.45 Q-8.3 -1.3 -6.9 -1.2 M-4.3 1.1 L-7.0 0.75 -7.25 2.9 -4.55 3.3 -4.3 1.1" fill="#fe2f38" fill-rule="evenodd" stroke="none"/>
  </g>
</svg>
