<?xml version="1.0" encoding="UTF-8" standalone="no"?>
<svg xmlns:ffdec="https://www.free-decompiler.com/flash" xmlns:xlink="http://www.w3.org/1999/xlink" ffdec:objectType="shape" height="22.0px" width="25.0px" xmlns="http://www.w3.org/2000/svg">
  <g transform="matrix(1.0, 0.0, 0.0, 1.0, 12.5, 11.0)">
    <path d="M5.8 0.75 Q3.55 4.3 0.0 4.3 -3.5 4.3 -5.8 0.75 -8.2 -3.0 -8.2 -9.2 L8.25 -9.2 Q8.25 -3.0 5.8 0.75" fill="#b28314" fill-rule="evenodd" stroke="none"/>
    <path d="M-6.3 -8.5 Q-5.5 -6.55 -4.8 -3.5 -4.15 -0.6 -3.8 2.45 -8.0 1.8 -10.45 -1.45 -12.45 -4.1 -12.5 -7.05 -12.5 -8.5 -11.8 -9.6 -11.15 -10.6 -10.1 -10.9 L-8.05 -10.65 Q-6.95 -10.0 -6.3 -8.5" fill="#b28314" fill-rule="evenodd" stroke="none"/>
    <path d="M6.35 -8.5 Q7.0 -10.0 8.1 -10.65 L10.15 -10.9 Q11.2 -10.6 11.85 -9.6 12.55 -8.5 12.5 -7.05 12.45 -4.1 10.45 -1.45 8.0 1.8 3.85 2.45 4.2 -0.65 4.85 -3.5 5.55 -6.55 6.35 -8.5" fill="#b28314" fill-rule="evenodd" stroke="none"/>
    <path d="M4.95 7.6 Q6.4 8.0 6.55 9.5 6.7 11.0 5.7 11.0 L-5.55 11.0 Q-6.55 11.0 -6.6 9.6 -6.6 8.2 -5.2 7.8 L-1.1 6.9 -3.3 2.35 3.35 2.35 1.4 6.9 2.85 7.15 4.95 7.6" fill="#b28314" fill-rule="evenodd" stroke="none"/>
    <path d="M0.5 -2.6 Q-1.2 0.15 -3.65 1.25 -4.75 -0.2 -5.35 -2.5 -6.0 -4.9 -6.0 -7.95 L2.55 -7.95 Q2.0 -5.0 0.5 -2.6" fill="#ffe211" fill-rule="evenodd" stroke="none"/>
    <path d="M4.9 -7.95 Q4.85 -4.75 3.1 -1.75 1.4 1.15 -1.4 3.1 -2.65 2.55 -3.65 1.25 -1.2 0.15 0.5 -2.6 2.0 -5.0 2.55 -7.95 L4.9 -7.95" fill="#c99c32" fill-rule="evenodd" stroke="none"/>
    <path d="M4.9 -7.95 L6.0 -7.95 Q6.0 -2.75 4.25 0.4 2.6 3.35 0.0 3.35 L-1.4 3.1 Q1.4 1.15 3.1 -1.75 4.85 -4.75 4.9 -7.95" fill="#e7bc6e" fill-rule="evenodd" stroke="none"/>
    <path d="M-11.1 -7.55 Q-10.75 -9.9 -9.4 -9.75 -8.15 -9.6 -7.75 -8.1 L-7.6 -5.85 Q-8.65 -7.75 -9.25 -7.9 -9.8 -7.95 -9.75 -6.85 -9.7 -5.7 -9.15 -4.45 -8.45 -3.0 -7.4 -2.4 L-7.25 -1.55 -6.65 0.1 Q-8.55 -0.8 -9.95 -3.1 -11.4 -5.5 -11.1 -7.55" fill="#ffe211" fill-rule="evenodd" stroke="none"/>
    <path d="M11.15 -7.55 Q11.45 -5.5 10.0 -3.1 8.6 -0.8 6.7 0.1 L7.5 -2.4 Q8.55 -3.0 9.2 -4.45 9.8 -5.7 9.8 -6.85 9.85 -7.95 9.3 -7.9 8.7 -7.75 7.65 -5.85 L7.85 -8.1 Q8.2 -9.6 9.45 -9.75 10.8 -9.9 11.15 -7.55" fill="#ffe211" fill-rule="evenodd" stroke="none"/>
    <path d="M-4.4 8.45 L-0.3 8.3 4.55 8.3 Q4.85 8.35 4.75 8.9 4.7 9.45 4.2 9.45 L-4.3 9.6 Q-4.8 9.6 -4.8 9.05 -4.85 8.55 -4.4 8.45" fill="#ffe211" fill-rule="evenodd" stroke="none"/>
    <path d="M-5.15 -6.3 L-4.9 -7.05 -4.05 -7.5 Q-2.75 -7.8 -2.75 -6.3 -2.75 -4.6 -3.8 -4.5 -4.85 -4.45 -5.15 -6.3" fill="#fdfdfd" fill-rule="evenodd" stroke="none"/>
    <path d="M-10.65 -8.7 Q-10.15 -9.6 -9.75 -9.25 -9.35 -8.85 -9.75 -8.0 -10.1 -7.25 -10.55 -7.7 -11.0 -8.15 -10.65 -8.7" fill="#fdfdfd" fill-rule="evenodd" stroke="none"/>
    <path d="M9.05 -9.35 Q9.75 -9.8 9.9 -9.15 10.05 -8.45 9.3 -8.25 8.55 -8.05 8.5 -8.5 8.45 -9.0 9.05 -9.35" fill="#fdfdfd" fill-rule="evenodd" stroke="none"/>
    <path d="M-3.65 8.45 Q-2.7 8.4 -2.55 8.7 -2.4 9.05 -3.3 9.2 -4.1 9.35 -4.15 8.9 -4.2 8.5 -3.65 8.45" fill="#fdfdfd" fill-rule="evenodd" stroke="none"/>
    <path d="M1.9 1.8 L-1.1 2.0 -1.5 -3.65 -2.8 -4.25 -1.2 -7.05 2.65 -6.8 1.9 1.8" fill="#b28314" fill-rule="evenodd" stroke="none"/>
    <path d="M-0.9 -5.75 L1.3 -5.7 1.1 -0.25 Q1.05 0.15 0.25 0.4 L-0.45 0.6 -0.8 -4.75 -1.45 -4.85 -0.9 -5.75" fill="#ffe211" fill-rule="evenodd" stroke="none"/>
    <path d="M-0.2 -5.4 L0.7 -5.25 Q1.1 -4.8 0.45 -4.35 -0.2 -3.85 -0.4 -4.5 -0.65 -5.15 -0.2 -5.4" fill="#fdfdfd" fill-rule="evenodd" stroke="none"/>
  </g>
</svg>
