<?xml version="1.0" encoding="UTF-8" standalone="no"?>
<svg xmlns:ffdec="https://www.free-decompiler.com/flash" xmlns:xlink="http://www.w3.org/1999/xlink" ffdec:objectType="shape" height="23.0px" width="25.0px" xmlns="http://www.w3.org/2000/svg">
  <g transform="matrix(1.0, 0.0, 0.0, 1.0, 12.5, 11.5)">
    <path d="M10.2 -0.15 L9.35 5.9 8.5 8.7 3.35 9.0 -4.75 8.65 -9.65 7.95 -10.25 5.15 Q-10.6 2.65 -10.6 -0.8 L-10.4 -6.3 -9.95 -9.5 -2.65 -10.05 5.5 -9.75 10.35 -9.0 10.5 -5.7 10.2 -0.15 M-0.45 4.4 Q-1.45 4.4 -2.05 5.25 -2.65 5.9 -2.55 6.8 -2.15 7.8 -0.9 7.8 0.05 7.8 0.6 7.15 L0.9 6.15 0.7 5.2 Q0.4 4.4 -0.45 4.4 M3.1 0.65 L4.95 -0.5 Q5.85 -1.3 6.0 -2.7 5.65 -5.5 2.95 -7.25 0.6 -8.75 -2.4 -9.0 L-3.6 -8.7 -3.35 -6.2 0.0 -5.05 Q1.85 -4.25 2.05 -2.55 1.9 -1.45 0.5 -0.65 L-1.4 0.55 Q-2.4 1.45 -2.45 2.45 -2.5 3.35 -2.05 3.5 L-0.65 3.85 0.2 3.6 0.8 2.95 Q0.85 2.2 1.1 1.95 1.75 1.25 3.1 0.65" fill="#ffffff" fill-rule="evenodd" stroke="none"/>
    <path d="M12.1 0.7 Q11.2 10.0 9.5 10.85 L-0.65 11.4 Q-8.85 11.0 -10.75 10.05 -12.4 9.25 -12.5 0.25 -12.65 -8.45 -11.55 -10.2 -10.65 -11.75 0.25 -11.45 L7.9 -10.85 Q11.5 -10.4 11.9 -9.8 12.95 -8.5 12.1 0.7 M10.2 -0.15 L10.5 -5.7 10.35 -9.0 5.5 -9.75 -2.65 -10.05 -9.95 -9.5 -10.4 -6.3 -10.6 -0.8 Q-10.6 2.65 -10.25 5.15 L-9.65 7.95 -4.75 8.65 3.35 9.0 8.5 8.7 9.35 5.9 10.2 -0.15 M3.1 0.65 Q1.75 1.25 1.1 1.95 0.85 2.2 0.8 2.95 L0.2 3.6 -0.65 3.85 -2.05 3.5 Q-2.5 3.35 -2.45 2.45 -2.4 1.45 -1.4 0.55 L0.5 -0.65 Q1.9 -1.45 2.05 -2.55 1.85 -4.25 0.0 -5.05 L-3.35 -6.2 -3.6 -8.7 -2.4 -9.0 Q0.6 -8.75 2.95 -7.25 5.65 -5.5 6.0 -2.7 5.85 -1.3 4.95 -0.5 L3.1 0.65 M-0.45 4.4 Q0.4 4.4 0.7 5.2 L0.9 6.15 0.6 7.15 Q0.05 7.8 -0.9 7.8 -2.15 7.8 -2.55 6.8 -2.65 5.9 -2.05 5.25 -1.45 4.4 -0.45 4.4" fill="#999999" fill-rule="evenodd" stroke="none"/>
  </g>
</svg>
