<?xml version="1.0" encoding="UTF-8" standalone="no"?>
<svg xmlns:ffdec="https://www.free-decompiler.com/flash" xmlns:xlink="http://www.w3.org/1999/xlink" ffdec:objectType="shape" height="195.5px" width="158.4px" xmlns="http://www.w3.org/2000/svg">
  <g transform="matrix(1.0, 0.0, 0.0, 1.0, 0.0, 38.0)">
    <path d="M0.0 -32.3 Q0.0 -38.0 4.5 -38.0 L153.9 -38.0 Q158.4 -38.0 158.4 -32.3 L158.4 151.85 Q158.4 157.5 153.9 157.5 L4.5 157.5 Q0.0 157.5 0.0 151.85 L0.0 -32.3 M155.4 152.0 L155.4 151.85 155.4 151.75 155.4 -33.65 Q155.2 -34.85 153.95 -34.85 L4.5 -34.85 Q3.05 -34.85 3.0 -33.1 L3.0 151.75 3.0 151.85 3.0 151.95 3.2 152.95 3.6 153.5 4.5 153.8 153.9 153.8 Q154.5 153.8 154.9 153.45 155.35 153.05 155.4 152.0" fill="#000000" fill-rule="evenodd" stroke="none"/>
    <path d="M3.0 151.85 L3.0 151.75 3.0 -33.1 Q3.05 -34.85 4.5 -34.85 L153.95 -34.85 Q155.2 -34.85 155.4 -33.65 L155.4 151.75 155.4 151.85 155.4 152.0 Q155.35 153.0 154.9 153.4 154.5 153.75 153.9 153.75 L4.5 153.75 3.6 153.45 3.2 152.9 3.0 151.85" fill="#ffffff" fill-rule="evenodd" stroke="none"/>
  </g>
</svg>
