<?xml version="1.0" encoding="UTF-8" standalone="no"?>
<svg xmlns:ffdec="https://www.free-decompiler.com/flash" xmlns:xlink="http://www.w3.org/1999/xlink" ffdec:objectType="shape" height="69.55px" width="225.35px" xmlns="http://www.w3.org/2000/svg">
  <g transform="matrix(1.0, 0.0, 0.0, 1.0, 0.0, 0.0)">
    <path d="M22.5 9.45 L12.3 9.45 12.3 24.75 23.8 24.75 Q27.55 24.75 29.95 22.65 32.4 20.55 32.4 17.1 32.4 9.45 22.5 9.45 M39.25 4.05 Q44.7 8.55 44.7 17.1 44.7 24.65 39.8 29.35 34.7 34.2 25.95 34.2 L12.3 34.2 12.3 48.8 Q12.3 51.6 10.65 53.25 8.95 54.95 6.15 54.95 3.35 54.95 1.65 53.25 0.0 51.6 0.0 48.8 L0.0 7.2 Q0.0 3.3 1.95 1.55 3.7 0.0 7.2 0.0 L26.05 0.0 Q34.35 0.0 39.25 4.05" fill="#f69131" fill-rule="evenodd" stroke="none"/>
    <path d="M81.3 43.4 Q81.3 46.05 81.9 48.15 L82.45 50.75 Q82.45 52.6 80.95 53.8 79.5 54.95 77.5 54.95 71.35 54.95 71.05 48.6 67.95 52.0 64.1 53.55 60.55 54.95 56.05 54.95 51.1 54.95 47.5 51.95 43.65 48.75 43.65 43.8 43.65 37.5 48.15 34.45 51.7 32.0 58.95 31.2 L65.65 30.45 Q67.95 30.2 69.0 29.5 70.35 28.55 70.35 26.4 70.35 24.15 68.3 22.95 66.45 21.9 63.45 21.9 58.95 21.9 55.7 24.9 52.5 27.9 50.8 27.9 48.75 27.9 47.45 26.65 46.15 25.45 46.15 23.7 46.15 20.05 50.65 17.1 55.7 13.8 63.55 13.8 71.8 13.8 76.35 16.45 81.3 19.35 81.3 25.05 L81.3 43.4 M54.6 43.25 Q54.6 45.15 56.25 46.45 57.95 47.75 60.7 47.75 65.0 47.75 67.8 45.3 70.35 43.0 70.35 39.8 L70.35 35.55 Q69.1 36.7 65.65 37.25 L61.65 37.85 Q58.05 38.4 56.4 39.6 54.6 40.85 54.6 43.25" fill="#f69131" fill-rule="evenodd" stroke="none"/>
    <path d="M113.65 13.8 Q116.5 13.8 118.1 15.75 119.3 17.25 119.3 18.75 119.3 19.95 118.45 22.2 L105.75 58.1 Q103.65 64.1 101.1 66.65 98.2 69.55 93.25 69.55 89.8 69.55 87.95 68.0 86.35 66.65 86.35 64.5 86.35 62.35 87.75 61.15 89.1 60.05 91.35 60.05 L92.5 60.05 Q93.95 60.05 94.65 59.6 95.75 58.85 96.3 56.6 L84.9 24.15 83.9 21.1 Q83.55 19.9 83.55 19.05 83.55 16.8 85.1 15.3 86.65 13.8 88.9 13.8 91.05 13.8 92.55 14.95 94.0 16.05 94.5 17.9 L101.55 43.5 101.7 43.5 108.4 18.65 Q109.7 13.8 113.65 13.8" fill="#f69131" fill-rule="evenodd" stroke="none"/>
    <path d="M164.6 22.8 Q161.35 22.8 159.05 25.1 156.65 27.55 156.65 31.25 L156.65 49.5 Q156.65 54.95 151.15 54.95 145.7 54.95 145.7 49.5 L145.7 29.85 Q145.7 26.7 144.3 24.85 142.75 22.8 139.7 22.8 136.45 22.8 134.15 25.1 131.75 27.55 131.75 31.25 L131.75 49.5 Q131.75 54.95 126.25 54.95 120.8 54.95 120.8 49.5 L120.8 19.25 Q120.8 16.75 122.2 15.3 123.55 13.8 125.95 13.8 128.35 13.8 129.75 15.3 131.15 16.75 131.15 19.25 L131.15 20.7 131.3 20.7 Q133.45 17.45 136.9 15.6 140.35 13.8 144.5 13.8 147.75 13.8 150.4 15.3 153.6 17.1 155.0 20.7 159.9 13.8 167.9 13.8 174.05 13.8 177.55 16.75 181.55 20.15 181.55 27.05 L181.55 49.5 Q181.55 54.95 176.05 54.95 170.6 54.95 170.6 49.5 L170.6 29.85 Q170.6 26.7 169.2 24.85 167.65 22.8 164.6 22.8" fill="#313e98" fill-rule="evenodd" stroke="none"/>
    <path d="M205.1 21.9 Q200.5 21.9 198.05 25.45 195.8 28.7 195.8 34.35 195.8 39.75 198.0 43.1 200.45 46.85 205.1 46.85 209.7 46.85 212.2 43.1 214.4 39.75 214.4 34.35 214.4 28.75 212.15 25.45 209.7 21.9 205.1 21.9 M220.8 48.75 Q215.55 54.95 205.1 54.95 194.6 54.95 189.35 48.75 184.85 43.4 184.85 34.35 184.85 25.35 190.05 19.75 195.5 13.8 205.1 13.8 214.7 13.8 220.2 19.75 225.35 25.35 225.35 34.35 225.35 43.4 220.8 48.75" fill="#313e98" fill-rule="evenodd" stroke="none"/>
  </g>
</svg>
