<?xml version="1.0" encoding="UTF-8" standalone="no"?>
<svg xmlns:ffdec="https://www.free-decompiler.com/flash" xmlns:xlink="http://www.w3.org/1999/xlink" ffdec:objectType="shape" height="29.45px" width="32.05px" xmlns="http://www.w3.org/2000/svg">
  <g transform="matrix(1.0, 0.0, 0.0, 1.0, 16.05, 14.7)">
    <path d="M13.45 -7.25 L13.3 -11.45 7.05 -12.4 -3.35 -12.9 -12.75 -12.1 Q-13.1 -10.9 -13.3 -8.05 -13.6 -4.75 -13.55 -1.0 -13.55 3.4 -13.15 6.6 -12.8 9.2 -12.35 10.15 L-6.1 11.1 4.3 11.6 10.85 11.15 Q11.4 10.2 11.95 7.6 12.65 4.35 13.05 -0.2 L13.45 -7.25 M15.3 -12.55 Q16.6 -10.8 15.5 0.9 14.35 12.85 12.2 13.95 L-0.8 14.6 Q-11.35 14.1 -13.75 12.9 -15.9 11.85 -16.05 0.3 -16.15 -10.8 -14.8 -13.05 -13.6 -15.05 0.3 -14.65 L10.15 -13.9 Q14.75 -13.3 15.3 -12.55" fill="#231f20" fill-rule="evenodd" stroke="none"/>
    <path d="M13.45 -7.25 L13.05 -0.2 Q12.65 4.35 11.95 7.6 11.4 10.2 10.85 11.15 L4.3 11.6 -6.1 11.1 -12.35 10.15 Q-12.8 9.2 -13.15 6.6 -13.55 3.4 -13.55 -1.0 -13.6 -4.75 -13.3 -8.05 -13.1 -10.9 -12.75 -12.1 L-3.35 -12.9 7.05 -12.4 13.3 -11.45 13.45 -7.25" fill="#ffffff" fill-rule="evenodd" stroke="none"/>
  </g>
</svg>
