<?xml version="1.0" encoding="UTF-8" standalone="no"?>
<svg xmlns:ffdec="https://www.free-decompiler.com/flash" xmlns:xlink="http://www.w3.org/1999/xlink" ffdec:objectType="shape" height="27.8px" width="29.95px" xmlns="http://www.w3.org/2000/svg">
  <g transform="matrix(1.0, 0.0, 0.0, 1.0, 203.95, 13.45)">
    <path d="M-187.6 -8.05 Q-187.05 -8.25 -186.75 -8.55 -186.4 -8.9 -186.6 -9.15 -187.3 -10.05 -188.55 -9.55 -189.7 -9.05 -189.7 -8.4 -189.1 -7.5 -187.6 -8.05 M-188.65 -7.25 Q-189.85 -7.25 -190.5 -8.1 -190.9 -8.65 -190.65 -9.25 L-189.7 -10.25 Q-188.0 -11.25 -186.4 -10.5 -185.4 -9.95 -185.55 -9.15 -185.7 -8.4 -186.65 -7.8 -187.6 -7.2 -188.65 -7.25 M-186.65 -12.75 Q-184.6 -12.0 -183.65 -10.7 -182.95 -9.65 -182.65 -7.75 L-182.5 -6.3 Q-181.5 -3.4 -182.95 -0.3 -184.4 2.8 -187.65 4.55 -191.55 6.75 -195.85 6.2 -200.25 5.6 -201.4 2.5 L-201.5 2.35 -202.5 1.25 -203.75 -1.5 Q-204.5 -4.3 -202.6 -7.25 -200.55 -10.4 -196.6 -12.1 -193.6 -13.35 -190.9 -13.45 -188.55 -13.5 -186.65 -12.75 M-183.8 -8.05 Q-183.9 -9.6 -184.7 -10.6 -186.4 -12.6 -190.25 -12.65 -194.25 -12.65 -198.0 -10.5 -200.65 -8.9 -202.05 -6.55 -203.55 -4.1 -203.05 -1.85 -202.2 0.85 -198.55 1.95 -194.8 3.05 -190.8 1.35 -186.0 -0.65 -184.4 -4.75 -183.7 -6.45 -183.8 -8.05 M-188.55 -2.65 Q-187.75 -3.1 -187.4 -3.65 -186.95 -4.25 -187.25 -4.6 L-190.15 -4.8 Q-191.55 -4.15 -191.0 -2.75 L-188.55 -2.65 M-187.7 -2.35 Q-189.0 -1.35 -190.2 -1.5 -191.2 -1.6 -191.85 -2.5 -192.45 -3.35 -192.35 -4.3 -192.25 -5.4 -191.45 -5.95 -190.5 -6.55 -189.25 -6.45 -188.1 -6.4 -187.3 -5.8 -186.4 -5.15 -186.45 -4.25 -186.45 -3.25 -187.7 -2.35 M-183.25 -2.65 Q-185.1 1.65 -190.45 3.5 -195.55 5.2 -199.65 3.45 -198.3 4.7 -195.75 4.9 -193.35 5.15 -190.7 4.3 -188.0 3.45 -186.05 1.75 -183.85 -0.15 -183.25 -2.65 M-194.9 -10.35 Q-194.45 -10.05 -194.6 -9.55 -194.8 -8.95 -195.7 -8.3 -196.1 -8.0 -196.85 -7.9 L-198.1 -8.05 Q-199.55 -8.55 -197.9 -9.7 -197.0 -10.3 -196.15 -10.45 L-194.9 -10.35 M-197.45 -6.75 Q-196.95 -6.2 -197.25 -5.5 -197.7 -4.25 -198.7 -3.45 -199.6 -2.75 -200.6 -2.65 -201.55 -2.55 -201.95 -3.1 -202.45 -3.65 -202.0 -4.85 -201.05 -7.25 -198.8 -7.25 -197.95 -7.2 -197.45 -6.75 M-196.25 -8.9 L-195.5 -9.5 -196.7 -9.4 -197.4 -8.85 -196.25 -8.9 M-191.1 -9.9 Q-191.7 -9.45 -192.6 -9.4 -194.2 -9.25 -194.0 -10.45 -193.8 -11.65 -192.3 -11.9 L-190.8 -11.7 Q-190.35 -11.4 -190.45 -10.9 -190.55 -10.35 -191.1 -9.9 M-191.95 -10.25 Q-190.9 -10.6 -191.0 -10.75 -191.45 -11.5 -192.45 -11.1 -193.35 -10.7 -193.35 -10.2 L-191.95 -10.25 M-193.2 -7.5 Q-192.5 -7.05 -193.6 -6.45 L-194.35 -6.25 Q-194.7 -6.3 -194.65 -6.65 -194.65 -7.0 -194.05 -7.35 L-193.2 -7.5 M-200.3 -5.4 Q-201.65 -4.3 -201.15 -3.45 -200.25 -3.2 -199.15 -3.95 -198.0 -4.7 -197.95 -5.7 -198.9 -6.45 -200.3 -5.4 M-193.1 -1.8 Q-193.4 -0.75 -194.3 0.0 -195.35 0.8 -196.7 0.8 -198.35 0.7 -198.8 -0.1 -199.15 -0.85 -198.55 -1.95 -198.0 -2.95 -197.05 -3.75 -196.05 -4.55 -195.3 -4.55 -193.95 -4.55 -193.35 -3.65 -192.8 -2.9 -193.1 -1.8 M-196.55 -2.3 L-197.4 -1.05 -197.6 -0.1 Q-196.1 0.4 -194.85 -0.55 -193.7 -1.45 -193.65 -2.8 -195.1 -3.8 -196.55 -2.3" fill="#3d3c36" fill-rule="evenodd" stroke="none"/>
    <path d="M-187.6 -8.05 Q-189.1 -7.5 -189.7 -8.4 -189.7 -9.05 -188.55 -9.55 -187.3 -10.05 -186.6 -9.15 -186.4 -8.9 -186.75 -8.55 -187.05 -8.25 -187.6 -8.05 M-188.55 -2.65 L-191.0 -2.75 Q-191.55 -4.15 -190.15 -4.8 L-187.25 -4.6 Q-186.95 -4.25 -187.4 -3.65 -187.75 -3.1 -188.55 -2.65 M-183.25 -2.65 Q-183.85 -0.15 -186.05 1.75 -188.0 3.45 -190.7 4.3 -193.35 5.15 -195.75 4.9 -198.3 4.7 -199.65 3.45 -195.55 5.2 -190.45 3.5 -185.1 1.65 -183.25 -2.65 M-196.25 -8.9 L-197.4 -8.85 -196.7 -9.4 -195.5 -9.5 -196.25 -8.9 M-191.95 -10.25 L-193.35 -10.2 Q-193.35 -10.7 -192.45 -11.1 -191.45 -11.5 -191.0 -10.75 -190.9 -10.6 -191.95 -10.25 M-200.3 -5.4 Q-198.9 -6.45 -197.95 -5.7 -198.0 -4.7 -199.15 -3.95 -200.25 -3.2 -201.15 -3.45 -201.65 -4.3 -200.3 -5.4 M-196.55 -2.3 Q-195.1 -3.8 -193.65 -2.8 -193.7 -1.45 -194.85 -0.55 -196.1 0.4 -197.6 -0.1 L-197.4 -1.05 -196.55 -2.3" fill="#4e433d" fill-rule="evenodd" stroke="none"/>
    <path d="M-188.65 -7.25 Q-187.6 -7.2 -186.65 -7.8 -185.7 -8.4 -185.55 -9.15 -185.4 -9.95 -186.4 -10.5 -188.0 -11.25 -189.7 -10.25 L-190.65 -9.25 Q-190.9 -8.65 -190.5 -8.1 -189.85 -7.25 -188.65 -7.25 M-183.8 -8.05 Q-183.7 -6.45 -184.4 -4.75 -186.0 -0.65 -190.8 1.35 -194.8 3.05 -198.55 1.95 -202.2 0.85 -203.05 -1.85 -203.55 -4.1 -202.05 -6.55 -200.65 -8.9 -198.0 -10.5 -194.25 -12.65 -190.25 -12.65 -186.4 -12.6 -184.7 -10.6 -183.9 -9.6 -183.8 -8.05 M-187.7 -2.35 Q-186.45 -3.25 -186.45 -4.25 -186.4 -5.15 -187.3 -5.8 -188.1 -6.4 -189.25 -6.45 -190.5 -6.55 -191.45 -5.95 -192.25 -5.4 -192.35 -4.3 -192.45 -3.35 -191.85 -2.5 -191.2 -1.6 -190.2 -1.5 -189.0 -1.35 -187.7 -2.35 M-197.45 -6.75 Q-197.95 -7.2 -198.8 -7.25 -201.05 -7.25 -202.0 -4.85 -202.45 -3.65 -201.95 -3.1 -201.55 -2.55 -200.6 -2.65 -199.6 -2.75 -198.7 -3.45 -197.7 -4.25 -197.25 -5.5 -196.95 -6.2 -197.45 -6.75 M-194.9 -10.35 L-196.15 -10.45 Q-197.0 -10.3 -197.9 -9.7 -199.55 -8.55 -198.1 -8.05 L-196.85 -7.9 Q-196.1 -8.0 -195.7 -8.3 -194.8 -8.95 -194.6 -9.55 -194.45 -10.05 -194.9 -10.35 M-191.1 -9.9 Q-190.55 -10.35 -190.45 -10.9 -190.35 -11.4 -190.8 -11.7 L-192.3 -11.9 Q-193.8 -11.65 -194.0 -10.45 -194.2 -9.25 -192.6 -9.4 -191.7 -9.45 -191.1 -9.9 M-193.2 -7.5 L-194.05 -7.35 Q-194.65 -7.0 -194.65 -6.65 -194.7 -6.3 -194.35 -6.25 L-193.6 -6.45 Q-192.5 -7.05 -193.2 -7.5 M-200.05 -0.85 Q-201.1 -1.95 -201.55 -1.55 -202.05 -1.1 -201.2 -0.1 -200.65 0.6 -199.85 0.4 -199.05 0.25 -200.05 -0.85 M-193.1 -1.8 Q-192.8 -2.9 -193.35 -3.65 -193.95 -4.55 -195.3 -4.55 -196.05 -4.55 -197.05 -3.75 -198.0 -2.95 -198.55 -1.95 -199.15 -0.85 -198.8 -0.1 -198.35 0.7 -196.7 0.8 -195.35 0.8 -194.3 0.0 -193.4 -0.75 -193.1 -1.8 M-195.6 -5.4 Q-195.2 -5.15 -195.0 -5.8 -194.75 -6.45 -195.15 -6.6 -195.55 -6.7 -195.85 -6.05 -196.0 -5.7 -195.6 -5.4" fill="#bebcb9" fill-rule="evenodd" stroke="none"/>
    <path d="M-182.65 -7.75 Q-182.95 -9.65 -183.65 -10.7 -184.6 -12.0 -186.65 -12.75 -183.65 -12.45 -181.4 -11.55 -178.9 -10.45 -178.05 -8.8 -176.65 -6.25 -175.45 -3.15 -174.3 -0.2 -174.05 1.3 -173.8 2.75 -174.4 4.35 -175.0 6.05 -176.3 7.25 -177.3 8.25 -177.35 11.4 L-177.15 14.35 -184.8 7.25 Q-184.75 6.1 -184.15 4.65 -182.9 1.8 -180.0 0.75 -178.0 0.0 -177.4 -2.1 -176.9 -3.9 -177.55 -5.6 -178.6 -7.05 -182.65 -7.75 M-179.55 5.25 Q-180.8 3.7 -181.0 3.7 -181.3 3.65 -181.95 5.15 L-182.6 7.35 Q-182.65 7.8 -180.8 9.4 -179.0 11.0 -178.95 10.6 L-178.3 7.15 Q-178.25 6.85 -179.55 5.25 M-182.65 5.1 L-182.45 4.85 -182.4 4.55 -182.6 4.25 Q-183.0 3.85 -183.2 4.25 L-183.25 4.5 -182.95 4.9 -182.65 5.1 M-182.45 3.4 L-182.15 3.75 -181.9 3.95 -181.7 3.7 -181.65 3.4 -181.85 3.15 -182.4 3.1 -182.45 3.4 M-179.55 1.45 L-179.4 1.7 -179.1 1.65 -178.85 1.5 -178.95 1.2 -179.1 0.95 -179.35 1.05 -179.6 1.15 -179.55 1.45 M-181.5 2.25 L-181.7 2.45 -181.5 2.85 -181.25 3.15 -181.0 3.0 -180.9 2.75 -181.3 2.1 -181.5 2.25 M-180.75 1.75 L-180.65 2.05 -180.45 2.4 -180.25 2.3 -180.0 2.1 -180.1 1.8 -180.3 1.55 -180.55 1.65 -180.75 1.75 M-183.95 5.8 L-183.9 6.2 -183.55 6.6 -183.15 6.8 -183.0 6.4 -182.95 6.0 -183.3 5.7 Q-183.75 5.3 -183.95 5.8 M-178.45 10.7 L-178.5 11.05 -178.2 11.35 -177.95 11.5 -177.75 11.35 Q-177.55 11.05 -177.95 10.75 L-178.3 10.5 -178.45 10.7 M-178.1 9.6 L-177.75 9.8 -177.6 9.65 Q-177.45 9.3 -177.8 9.1 -178.05 8.95 -178.15 8.95 L-178.3 9.15 Q-178.4 9.45 -178.1 9.6 M-177.4 8.45 Q-177.4 8.2 -177.65 7.9 -178.0 7.5 -178.1 7.9 L-178.1 8.25 -177.85 8.55 -177.5 8.65 -177.4 8.45 M-177.25 6.95 L-177.55 6.75 -177.7 6.9 -177.85 7.05 -177.2 7.65 -177.05 7.25 -177.25 6.95 M-176.7 6.8 L-176.55 6.7 -176.45 6.5 -176.75 6.0 -177.0 6.1 -177.15 6.3 -176.95 6.6 -176.7 6.8 M-176.25 5.25 L-176.35 5.55 -176.2 5.8 -175.95 5.95 -175.8 5.75 -175.65 5.5 -175.85 5.25 -176.05 5.1 -176.25 5.25 M-175.65 4.35 L-175.75 4.55 -175.6 4.85 -175.4 5.05 -175.25 4.95 -175.15 4.75 -175.6 4.25 -175.65 4.35 M-174.5 3.65 L-174.5 3.35 -174.65 3.05 -174.75 2.95 -175.0 3.4 -174.9 3.7 -174.65 3.9 -174.5 3.65 M-177.65 1.35 L-179.2 2.15 Q-180.5 2.75 -180.5 3.1 L-179.15 4.8 -177.6 6.15 -176.65 5.25 -175.9 4.1 Q-175.85 3.8 -176.7 2.55 L-177.65 1.35 M-177.95 1.1 L-178.05 0.8 -178.25 0.55 -178.45 0.6 -178.6 0.7 -178.5 1.0 -178.35 1.25 -177.95 1.1 M-175.55 -0.7 L-176.25 -2.25 Q-176.2 -1.65 -176.55 -0.45 L-177.1 0.9 -176.3 2.2 -175.35 3.4 Q-175.15 3.35 -174.9 2.45 -174.65 1.55 -174.75 1.25 L-175.55 -0.7 M-176.85 -2.75 L-176.95 -2.05 -176.8 -1.7 -176.65 -1.5 -176.45 -2.1 -176.65 -2.45 -176.85 -2.75 M-177.3 -0.4 L-177.45 -0.65 -177.7 -0.05 -177.4 0.55 -177.15 -0.05 -177.3 -0.4" fill="#382f29" fill-rule="evenodd" stroke="none"/>
    <path d="M-180.75 1.75 L-180.55 1.65 -180.3 1.55 -180.1 1.8 -180.0 2.1 -180.25 2.3 -180.45 2.4 -180.65 2.05 -180.75 1.75 M-181.5 2.25 L-181.3 2.1 -180.9 2.75 -181.0 3.0 -181.25 3.15 -181.5 2.85 -181.7 2.45 -181.5 2.25 M-179.55 1.45 L-179.6 1.15 -179.35 1.05 -179.1 0.95 -178.95 1.2 -178.85 1.5 -179.1 1.65 -179.4 1.7 -179.55 1.45 M-182.45 3.4 L-182.4 3.1 -181.85 3.15 -181.65 3.4 -181.7 3.7 -181.9 3.95 -182.15 3.75 -182.45 3.4 M-182.65 5.1 L-182.95 4.9 -183.25 4.5 -183.2 4.25 Q-183.0 3.85 -182.6 4.25 L-182.4 4.55 -182.45 4.85 -182.65 5.1 M-179.55 5.25 Q-178.25 6.85 -178.3 7.15 L-178.95 10.6 Q-179.0 11.0 -180.8 9.4 -182.65 7.8 -182.6 7.35 L-181.95 5.15 Q-181.3 3.65 -181.0 3.7 -180.8 3.7 -179.55 5.25 M-177.3 -0.4 L-177.15 -0.05 -177.4 0.55 -177.7 -0.05 -177.45 -0.65 -177.3 -0.4 M-176.85 -2.75 L-176.65 -2.45 -176.45 -2.1 -176.65 -1.5 -176.8 -1.7 -176.95 -2.05 -176.85 -2.75 M-175.55 -0.7 L-174.75 1.25 Q-174.65 1.55 -174.9 2.45 -175.15 3.35 -175.35 3.4 L-176.3 2.2 -177.1 0.9 -176.55 -0.45 Q-176.2 -1.65 -176.25 -2.25 L-175.55 -0.7 M-177.95 1.1 L-178.35 1.25 -178.5 1.0 -178.6 0.7 -178.45 0.6 -178.25 0.55 -178.05 0.8 -177.95 1.1 M-177.65 1.35 L-176.7 2.55 Q-175.85 3.8 -175.9 4.1 L-176.65 5.25 -177.6 6.15 -179.15 4.8 -180.5 3.1 Q-180.5 2.75 -179.2 2.15 L-177.65 1.35 M-174.5 3.65 L-174.65 3.9 -174.9 3.7 -175.0 3.4 -174.75 2.95 -174.65 3.05 -174.5 3.35 -174.5 3.65 M-175.65 4.35 L-175.6 4.25 -175.15 4.75 -175.25 4.95 -175.4 5.05 -175.6 4.85 -175.75 4.55 -175.65 4.35 M-176.25 5.25 L-176.05 5.1 -175.85 5.25 -175.65 5.5 -175.8 5.75 -175.95 5.95 -176.2 5.8 -176.35 5.55 -176.25 5.25 M-176.7 6.8 L-176.95 6.6 -177.15 6.3 -177.0 6.1 -176.75 6.0 -176.45 6.5 -176.55 6.7 -176.7 6.8 M-177.25 6.95 L-177.05 7.25 -177.2 7.65 -177.85 7.05 -177.7 6.9 -177.55 6.75 -177.25 6.95 M-177.4 8.45 L-177.5 8.65 -177.85 8.55 -178.1 8.25 -178.1 7.9 Q-178.0 7.5 -177.65 7.9 -177.4 8.2 -177.4 8.45 M-178.1 9.6 Q-178.4 9.45 -178.3 9.15 L-178.15 8.95 Q-178.05 8.95 -177.8 9.1 -177.45 9.3 -177.6 9.65 L-177.75 9.8 -178.1 9.6 M-178.45 10.7 L-178.3 10.5 -177.95 10.75 Q-177.55 11.05 -177.75 11.35 L-177.95 11.5 -178.2 11.35 -178.5 11.05 -178.45 10.7 M-183.95 5.8 Q-183.75 5.3 -183.3 5.7 L-182.95 6.0 -183.0 6.4 -183.15 6.8 -183.55 6.6 -183.9 6.2 -183.95 5.8" fill="#a27762" fill-rule="evenodd" stroke="none"/>
    <path d="M-200.05 -0.85 Q-199.05 0.25 -199.85 0.4 -200.65 0.6 -201.2 -0.1 -202.05 -1.1 -201.55 -1.55 -201.1 -1.95 -200.05 -0.85 M-195.6 -5.4 Q-196.0 -5.7 -195.85 -6.05 -195.55 -6.7 -195.15 -6.6 -194.75 -6.45 -195.0 -5.8 -195.2 -5.15 -195.6 -5.4" fill="#fdfdfd" fill-rule="evenodd" stroke="none"/>
  </g>
</svg>
