<?xml version="1.0" encoding="UTF-8" standalone="no"?>
<svg xmlns:ffdec="https://www.free-decompiler.com/flash" xmlns:xlink="http://www.w3.org/1999/xlink" ffdec:objectType="shape" height="24.4px" width="30.0px" xmlns="http://www.w3.org/2000/svg">
  <g transform="matrix(1.0, 0.0, 0.0, 1.0, 205.15, 12.2)">
    <path d="M-188.65 -9.6 L-188.65 -10.35 Q-188.4 -11.0 -187.85 -10.85 -187.35 -10.75 -187.9 -10.0 -188.4 -9.35 -188.65 -9.6 M-196.6 -8.45 L-196.6 -9.0 -196.05 -9.55 Q-195.65 -9.5 -196.1 -8.85 L-196.6 -8.45" fill="#f5feff" fill-rule="evenodd" stroke="none"/>
    <path d="M-188.65 -9.6 Q-188.4 -9.35 -187.9 -10.0 -187.35 -10.75 -187.85 -10.85 -188.4 -11.0 -188.65 -10.35 L-188.65 -9.6 M-189.15 -7.35 Q-189.45 -8.95 -189.0 -10.05 -188.45 -11.25 -187.3 -11.45 -186.15 -11.6 -185.3 -10.7 -184.35 -9.7 -184.45 -8.0 L-185.3 -7.9 Q-185.6 -9.4 -186.2 -9.9 -186.75 -10.3 -187.2 -9.9 -187.7 -9.5 -187.85 -8.6 L-187.8 -7.5 -187.75 -7.25 -187.55 -6.55 Q-187.55 -6.1 -188.0 -5.9 -188.5 -5.75 -188.9 -6.4 L-188.9 -6.45 -189.15 -7.35 M-196.95 -6.3 Q-197.25 -7.8 -196.85 -8.85 -196.45 -9.85 -195.4 -9.95 -194.45 -10.1 -193.7 -9.3 -192.85 -8.4 -192.9 -6.85 L-193.55 -6.75 -193.65 -6.75 Q-193.95 -8.1 -194.45 -8.65 L-195.35 -8.75 Q-195.8 -8.4 -195.95 -7.6 L-195.9 -6.4 -195.85 -6.2 -195.75 -5.75 Q-195.75 -5.35 -196.15 -5.2 -196.5 -5.1 -196.75 -5.5 L-196.8 -5.6 -196.95 -6.3 M-196.6 -8.45 L-196.1 -8.85 Q-195.65 -9.5 -196.05 -9.55 L-196.6 -9.0 -196.6 -8.45" fill="#c7d2d4" fill-rule="evenodd" stroke="none"/>
    <path d="M-187.8 -7.5 L-187.85 -8.6 Q-187.7 -9.5 -187.2 -9.9 -186.75 -10.3 -186.2 -9.9 -185.6 -9.4 -185.3 -7.9 L-184.45 -8.0 Q-184.35 -9.7 -185.3 -10.7 -186.15 -11.6 -187.3 -11.45 -188.45 -11.25 -189.0 -10.05 -189.45 -8.95 -189.15 -7.35 L-193.55 -6.75 -192.9 -6.85 Q-192.85 -8.4 -193.7 -9.3 -194.45 -10.1 -195.4 -9.95 -196.45 -9.85 -196.85 -8.85 -197.25 -7.8 -196.95 -6.3 L-199.75 -5.85 -203.95 9.05 -185.25 11.1 -183.55 11.05 -181.5 -6.15 -179.6 10.7 -178.9 10.6 -180.4 -2.0 -178.05 10.35 -176.3 10.0 -180.9 -8.35 -182.15 -8.35 -187.8 -7.5 M-188.9 -6.45 L-188.9 -6.4 Q-188.5 -5.75 -188.0 -5.9 -187.55 -6.1 -187.55 -6.55 L-187.75 -7.25 Q-187.2 -7.25 -187.1 -6.4 -187.0 -5.4 -188.0 -5.3 -188.9 -5.2 -188.95 -6.15 L-188.9 -6.45 M-187.5 -12.15 Q-186.0 -12.35 -184.85 -11.3 -183.85 -10.35 -183.65 -9.0 L-182.05 -9.25 -180.35 -9.15 -175.15 10.65 -179.7 11.35 -182.85 11.3 -182.95 11.85 -185.05 12.2 -205.15 9.85 -200.45 -6.55 -198.0 -6.9 Q-198.2 -7.95 -197.85 -8.9 -197.25 -10.2 -196.0 -10.6 -194.65 -11.0 -193.65 -10.1 -192.6 -9.35 -192.35 -7.75 L-190.0 -8.05 Q-190.15 -9.5 -189.65 -10.55 -189.0 -11.95 -187.5 -12.15 M-187.15 -8.5 L-186.2 -8.65 -186.8 -9.25 Q-187.1 -9.25 -187.15 -8.5 M-187.9 1.0 L-188.3 2.65 -186.2 2.6 -185.9 0.9 -187.9 1.0 M-188.5 2.65 L-188.1 1.0 -190.35 1.1 -190.6 2.75 -188.5 2.65 M-188.35 3.05 L-188.75 4.6 -186.65 4.55 -186.35 3.0 -188.35 3.05 M-189.55 7.0 L-189.1 4.95 -190.95 5.0 -191.2 6.9 -189.55 7.0 M-190.05 9.1 L-189.65 7.4 -191.25 7.25 -191.5 8.95 -190.05 9.1 M-189.4 7.4 L-189.75 9.1 -189.85 9.1 -187.55 9.3 -187.2 7.55 -186.7 4.95 -188.85 4.95 -189.3 7.0 -187.15 7.1 -187.2 7.55 -189.4 7.4 M-184.95 -2.1 L-187.1 9.75 -202.3 8.45 -199.75 -0.75 -184.95 -2.1 M-189.0 4.6 L-188.65 3.05 -190.6 3.1 -190.85 4.65 -189.0 4.6 M-195.15 -7.3 L-194.45 -7.45 Q-194.6 -8.0 -194.9 -8.0 -195.15 -8.05 -195.15 -7.3 M-194.45 -4.4 Q-192.75 -4.45 -192.35 -3.95 -191.9 -3.3 -192.9 -1.8 L-192.65 -3.6 -193.7 -2.65 -194.6 -1.75 -194.45 -4.4 M-195.9 -6.4 L-195.95 -7.6 Q-195.8 -8.4 -195.35 -8.75 L-194.45 -8.65 Q-193.95 -8.1 -193.65 -6.75 L-195.9 -6.4 M-195.85 -6.2 Q-195.45 -6.15 -195.4 -5.55 -195.35 -4.8 -196.15 -4.7 -196.75 -4.65 -196.8 -5.3 L-196.75 -5.5 Q-196.5 -5.1 -196.15 -5.2 -195.75 -5.35 -195.75 -5.75 L-195.85 -6.2 M-195.7 -2.65 L-196.35 -2.55 Q-196.85 -2.5 -196.0 -2.2 -195.2 -2.0 -195.15 -2.45 -195.15 -2.7 -195.7 -2.65 M-198.25 -3.7 L-197.35 -3.75 -197.6 -2.25 Q-197.5 -1.7 -198.25 -1.4 L-199.35 -1.35 -198.85 -2.45 -198.25 -3.7 M-195.7 -3.0 Q-195.6 -3.45 -196.25 -3.25 L-197.0 -2.9 Q-196.1 -4.45 -195.55 -3.7 L-194.8 -1.7 -196.15 -1.6 Q-197.25 -1.65 -197.2 -2.3 -197.2 -2.4 -196.65 -2.7 L-195.7 -3.0 M-198.9 3.05 L-198.55 1.5 -200.05 1.55 -200.45 3.15 -198.9 3.05 M-200.55 3.3 L-200.95 4.95 -199.3 4.9 -198.95 3.3 -200.55 3.3 M-196.45 1.4 L-196.75 3.0 -194.7 2.95 -194.3 1.3 -196.45 1.4 M-198.3 1.5 L-198.65 3.05 -196.95 3.0 -196.65 1.4 -198.3 1.5 M-198.7 3.3 L-199.05 4.9 -197.25 4.85 -197.0 3.25 -198.7 3.3 M-194.1 1.3 L-194.5 2.9 -192.7 2.8 -192.3 1.2 -194.1 1.3 M-190.75 2.75 L-190.55 1.15 -192.15 1.2 -192.45 2.8 -190.75 2.75 M-192.55 3.15 L-192.85 4.7 -191.1 4.65 -190.8 3.1 -192.55 3.15 M-194.55 3.2 L-194.95 4.8 -193.1 4.75 -192.75 3.15 -194.55 3.2 M-196.75 3.25 L-197.05 4.8 -195.15 4.8 -194.75 3.2 -196.75 3.25 M-195.0 5.05 L-195.4 6.7 -193.6 6.8 -193.25 5.0 -195.0 5.05 M-200.05 8.2 L-199.7 6.65 -201.35 6.55 -201.7 8.05 -200.05 8.2 M-197.9 8.4 L-197.6 6.8 -199.4 6.7 -199.75 8.25 -197.9 8.4 M-196.1 8.55 L-195.7 6.95 -197.4 6.85 -197.65 8.4 -196.1 8.55 M-199.65 6.45 L-199.35 5.15 -201.0 5.15 -201.3 6.35 -199.65 6.45 M-197.1 5.15 L-197.35 6.6 -195.65 6.65 -195.2 5.05 -197.1 5.15 M-197.55 6.55 L-197.3 5.15 -199.1 5.15 -199.35 6.5 -197.55 6.55 M-192.9 5.0 L-193.35 6.8 -191.45 6.9 -191.15 5.0 -192.9 5.0 M-193.4 7.1 L-193.75 8.75 -191.75 8.95 -191.5 7.25 -193.4 7.1 M-194.05 8.75 L-193.7 7.1 -195.45 6.95 -195.9 8.55 -194.05 8.75" fill="#744d25" fill-rule="evenodd" stroke="none"/>
    <path d="M-182.15 -8.35 L-180.9 -8.35 -176.3 10.0 -178.05 10.35 -180.4 -2.0 -178.9 10.6 -179.6 10.7 -181.5 -6.15 -183.55 11.05 -185.25 11.1 -182.15 -8.35" fill="#c8b99a" fill-rule="evenodd" stroke="none"/>
    <path d="M-189.15 -7.35 L-188.9 -6.45 -188.95 -6.15 Q-188.9 -5.2 -188.0 -5.3 -187.0 -5.4 -187.1 -6.4 -187.2 -7.25 -187.75 -7.25 L-187.8 -7.5 -182.15 -8.35 -185.25 11.1 -203.95 9.05 -199.75 -5.85 -196.95 -6.3 -196.8 -5.6 -196.75 -5.5 -196.8 -5.3 Q-196.75 -4.65 -196.15 -4.7 -195.35 -4.8 -195.4 -5.55 -195.45 -6.15 -195.85 -6.2 L-195.9 -6.4 -193.65 -6.75 -193.55 -6.75 -189.15 -7.35 M-184.95 -2.1 L-199.75 -0.75 -202.3 8.45 -187.1 9.75 -184.95 -2.1 M-194.45 -4.4 L-194.6 -1.75 -193.7 -2.65 -192.65 -3.6 -192.9 -1.8 Q-191.9 -3.3 -192.35 -3.95 -192.75 -4.45 -194.45 -4.4 M-195.7 -3.0 L-196.65 -2.7 Q-197.2 -2.4 -197.2 -2.3 -197.25 -1.65 -196.15 -1.6 L-194.8 -1.7 -195.55 -3.7 Q-196.1 -4.45 -197.0 -2.9 L-196.25 -3.25 Q-195.6 -3.45 -195.7 -3.0 M-198.25 -3.7 L-198.85 -2.45 -199.35 -1.35 -198.25 -1.4 Q-197.5 -1.7 -197.6 -2.25 L-197.35 -3.75 -198.25 -3.7 M-195.7 -2.65 Q-195.15 -2.7 -195.15 -2.45 -195.2 -2.0 -196.0 -2.2 -196.85 -2.5 -196.35 -2.55 L-195.7 -2.65" fill="#ffe8b4" fill-rule="evenodd" stroke="none"/>
    <path d="M-188.5 2.65 L-190.6 2.75 -190.35 1.1 -188.1 1.0 -188.5 2.65 M-187.9 1.0 L-185.9 0.9 -186.2 2.6 -188.3 2.65 -187.9 1.0 M-188.35 3.05 L-186.35 3.0 -186.65 4.55 -188.75 4.6 -188.35 3.05 M-189.4 7.4 L-187.2 7.55 -187.15 7.1 -189.3 7.0 -188.85 4.95 -186.7 4.95 -187.2 7.55 -187.55 9.3 -189.85 9.1 -189.75 9.1 -189.4 7.4 M-190.05 9.1 L-191.5 8.95 -191.25 7.25 -189.65 7.4 -190.05 9.1 M-189.55 7.0 L-191.2 6.9 -190.95 5.0 -189.1 4.95 -189.55 7.0 M-189.0 4.6 L-190.85 4.65 -190.6 3.1 -188.65 3.05 -189.0 4.6 M-200.55 3.3 L-198.95 3.3 -199.3 4.9 -200.95 4.95 -200.55 3.3 M-198.9 3.05 L-200.45 3.15 -200.05 1.55 -198.55 1.5 -198.9 3.05 M-198.3 1.5 L-196.65 1.4 -196.95 3.0 -198.65 3.05 -198.3 1.5 M-196.45 1.4 L-194.3 1.3 -194.7 2.95 -196.75 3.0 -196.45 1.4 M-198.7 3.3 L-197.0 3.25 -197.25 4.85 -199.05 4.9 -198.7 3.3 M-194.1 1.3 L-192.3 1.2 -192.7 2.8 -194.5 2.9 -194.1 1.3 M-195.0 5.05 L-193.25 5.0 -193.6 6.8 -195.4 6.7 -195.0 5.05 M-196.75 3.25 L-194.75 3.2 -195.15 4.8 -197.05 4.8 -196.75 3.25 M-194.55 3.2 L-192.75 3.15 -193.1 4.75 -194.95 4.8 -194.55 3.2 M-192.55 3.15 L-190.8 3.1 -191.1 4.65 -192.85 4.7 -192.55 3.15 M-190.75 2.75 L-192.45 2.8 -192.15 1.2 -190.55 1.15 -190.75 2.75 M-194.05 8.75 L-195.9 8.55 -195.45 6.95 -193.7 7.1 -194.05 8.75 M-193.4 7.1 L-191.5 7.25 -191.75 8.95 -193.75 8.75 -193.4 7.1 M-192.9 5.0 L-191.15 5.0 -191.45 6.9 -193.35 6.8 -192.9 5.0 M-197.55 6.55 L-199.35 6.5 -199.1 5.15 -197.3 5.15 -197.55 6.55 M-197.1 5.15 L-195.2 5.05 -195.65 6.65 -197.35 6.6 -197.1 5.15 M-199.65 6.45 L-201.3 6.35 -201.0 5.15 -199.35 5.15 -199.65 6.45 M-196.1 8.55 L-197.65 8.4 -197.4 6.85 -195.7 6.95 -196.1 8.55 M-197.9 8.4 L-199.75 8.25 -199.4 6.7 -197.6 6.8 -197.9 8.4 M-200.05 8.2 L-201.7 8.05 -201.35 6.55 -199.7 6.65 -200.05 8.2" fill="#fff7e7" fill-rule="evenodd" stroke="none"/>
  </g>
</svg>
