<?xml version="1.0" encoding="UTF-8" standalone="no"?>
<svg xmlns:ffdec="https://www.free-decompiler.com/flash" xmlns:xlink="http://www.w3.org/1999/xlink" ffdec:objectType="shape" height="28.2px" width="30.0px" xmlns="http://www.w3.org/2000/svg">
  <g transform="matrix(1.0, 0.0, 0.0, 1.0, 205.65, 14.1)">
    <path d="M-205.25 -3.0 L-197.5 -11.2 -190.65 -0.1 -205.25 -3.0" fill="#2cc2e9" fill-rule="evenodd" stroke="none"/>
    <path d="M-203.65 1.4 L-190.65 -0.1 -198.75 10.25 -203.65 1.4" fill="#2cc2e9" fill-rule="evenodd" stroke="none"/>
    <path d="M-188.05 12.7 L-195.7 11.75 -190.65 -0.1 -188.05 12.7" fill="#2cc2e9" fill-rule="evenodd" stroke="none"/>
    <path d="M-176.8 2.5 L-183.25 9.7 -190.65 -0.1 -176.8 2.5" fill="#2cc2e9" fill-rule="evenodd" stroke="none"/>
    <path d="M-182.15 -9.45 L-177.05 -1.7 -190.65 -0.1 -182.15 -9.45" fill="#2cc2e9" fill-rule="evenodd" stroke="none"/>
    <path d="M-190.65 -0.1 L-192.95 -9.7 -185.85 -10.4 -190.65 -0.1" fill="#2cc2e9" fill-rule="evenodd" stroke="none"/>
    <path d="M-201.05 -10.55 L-192.55 -14.1 -190.65 -0.1 -201.05 -10.55" fill="#76edff" fill-rule="evenodd" stroke="none"/>
    <path d="M-204.15 4.15 L-205.65 -4.4 -190.65 -0.1 -204.15 4.15" fill="#76edff" fill-rule="evenodd" stroke="none"/>
    <path d="M-195.65 14.0 L-200.85 10.55 -190.65 -0.1 -195.65 14.0" fill="#76edff" fill-rule="evenodd" stroke="none"/>
    <path d="M-180.65 10.85 L-188.75 14.1 -190.65 -0.1 -180.65 10.85" fill="#76edff" fill-rule="evenodd" stroke="none"/>
    <path d="M-176.7 -1.75 L-175.65 4.2 -190.65 -0.1 -176.7 -1.75" fill="#76edff" fill-rule="evenodd" stroke="none"/>
    <path d="M-187.35 -13.15 L-179.45 -11.0 -190.65 -0.1 -187.35 -13.15" fill="#76edff" fill-rule="evenodd" stroke="none"/>
    <path d="M-200.3 3.65 Q-200.8 1.65 -200.9 -0.1 -201.05 -2.0 -200.65 -2.85 -200.1 -3.6 -198.65 -3.95 L-196.9 -4.15 Q-195.45 -3.45 -194.25 1.6 -193.7 3.7 -193.55 5.45 -193.4 7.3 -193.7 7.95 -194.05 8.4 -195.05 8.75 L-197.4 9.1 Q-198.2 8.75 -199.0 7.15 -199.75 5.7 -200.3 3.65" fill="#373728" fill-rule="evenodd" stroke="none"/>
    <path d="M-187.0 -4.7 Q-187.15 -6.6 -186.65 -7.45 L-184.9 -8.05 -182.75 -8.5 Q-181.05 -7.15 -179.95 -2.1 -179.5 0.05 -179.45 1.75 -179.45 3.6 -179.85 4.2 -180.35 4.75 -181.45 5.05 L-182.85 5.4 Q-183.85 4.8 -184.85 3.0 L-186.3 -0.8 Q-186.9 -2.9 -187.0 -4.7" fill="#373728" fill-rule="evenodd" stroke="none"/>
    <path d="M-189.55 2.8 Q-193.85 4.0 -195.2 3.55 -196.05 3.25 -196.5 2.35 -196.95 1.35 -196.15 0.55 -194.85 -0.7 -190.8 -2.0 -186.5 -3.45 -185.0 -2.7 -183.85 -2.15 -183.65 -1.5 -183.45 -0.8 -184.25 0.3 -185.2 1.55 -189.55 2.8" fill="#373728" fill-rule="evenodd" stroke="none"/>
    <path d="M-200.0 -2.2 Q-199.5 -2.9 -198.35 -3.1 -197.15 -3.3 -197.2 -2.65 L-197.0 -0.6 -196.45 2.4 Q-196.05 3.9 -196.85 5.65 L-197.5 6.65 -198.15 6.6 Q-199.5 4.8 -200.0 1.35 L-200.15 -1.05 -200.0 -2.2" fill="#8f917a" fill-rule="evenodd" stroke="none"/>
    <path d="M-185.5 -6.6 Q-185.75 -7.05 -184.55 -7.2 L-182.95 -7.0 Q-182.45 -6.6 -181.7 -4.8 -180.85 -2.85 -180.75 -1.35 -180.65 0.1 -181.9 1.15 L-182.8 1.65 -183.25 1.5 Q-183.4 -0.55 -184.25 -3.3 L-185.5 -6.6" fill="#8f917a" fill-rule="evenodd" stroke="none"/>
    <path d="M-199.55 0.3 Q-199.4 -1.35 -198.65 -1.45 -197.95 -1.5 -197.85 0.0 -197.8 0.75 -198.1 1.1 -198.35 1.45 -198.7 1.4 L-199.35 1.1 -199.55 0.3" fill="#fcfcfc" fill-rule="evenodd" stroke="none"/>
    <path d="M-183.7 -5.8 Q-183.05 -6.3 -182.55 -4.9 -182.3 -4.25 -182.4 -3.75 -182.5 -3.3 -182.8 -3.2 L-183.45 -3.3 -183.95 -4.1 Q-184.3 -5.35 -183.7 -5.8" fill="#fcfcfc" fill-rule="evenodd" stroke="none"/>
  </g>
</svg>
