<?xml version="1.0" encoding="UTF-8" standalone="no"?>
<svg xmlns:ffdec="https://www.free-decompiler.com/flash" xmlns:xlink="http://www.w3.org/1999/xlink" ffdec:objectType="shape" height="87.7px" width="87.65px" xmlns="http://www.w3.org/2000/svg">
  <g transform="matrix(1.0, 0.0, 0.0, 1.0, 43.85, 43.85)">
    <path d="M30.95 -30.95 Q43.8 -18.1 43.8 0.0 43.8 18.15 30.95 31.0 18.1 43.85 -0.05 43.85 -18.15 43.85 -31.0 31.0 -43.85 18.15 -43.85 0.0 -43.85 -18.1 -31.0 -30.95 -18.15 -43.8 -0.05 -43.85 18.1 -43.8 30.95 -30.95 M18.45 -0.55 L-0.6 18.5 0.0 18.55 Q7.6 18.5 13.05 13.1 18.45 7.65 18.5 0.0 L18.45 -0.55 M-0.05 -18.5 Q-7.65 -18.45 -13.1 -13.05 -18.5 -7.6 -18.55 0.05 L-18.55 0.6 0.55 -18.5 -0.05 -18.5" fill="#9d1e60" fill-rule="evenodd" stroke="none"/>
    <path d="M24.15 -1.3 Q24.15 -7.3 21.3 -12.7 L-11.45 20.0 Q-6.05 22.85 -0.05 22.85 9.95 22.85 17.05 15.8 24.15 8.7 24.15 -1.3 M11.4 -22.6 Q6.05 -25.5 -0.05 -25.5 -10.05 -25.45 -17.15 -18.4 -24.2 -11.3 -24.2 -1.3 -24.2 4.7 -21.35 10.1 L11.4 -22.6 M-0.05 -39.5 Q15.8 -39.5 26.95 -28.3 38.15 -17.1 38.15 -1.3 38.15 14.5 26.95 25.7 15.8 36.85 -0.05 36.85 -15.85 36.85 -27.0 25.7 -38.15 14.5 -38.15 -1.3 -38.15 -17.15 -27.0 -28.3 -15.85 -39.5 -0.05 -39.5" fill="#f5697d" fill-rule="evenodd" stroke="none"/>
  </g>
</svg>
