<?xml version="1.0" encoding="UTF-8" standalone="no"?>
<svg xmlns:ffdec="https://www.free-decompiler.com/flash" xmlns:xlink="http://www.w3.org/1999/xlink" ffdec:objectType="shape" height="328.9px" width="350.0px" xmlns="http://www.w3.org/2000/svg">
  <g transform="matrix(1.0, 0.0, 0.0, 1.0, 175.1, 184.0)">
    <path d="M151.4 -162.55 Q143.65 -169.5 97.3 -173.45 55.3 -177.05 -1.75 -176.9 -58.55 -176.8 -99.9 -173.05 -145.25 -168.9 -151.4 -162.0 -156.7 -156.0 -160.45 -112.8 -164.1 -70.85 -164.05 -19.45 -164.05 36.3 -159.5 73.2 -154.2 116.0 -144.0 120.6 -133.45 125.4 -87.1 128.8 -43.05 132.1 10.6 132.65 67.15 133.2 104.8 130.3 147.65 127.0 151.5 120.05 155.55 112.75 159.15 70.35 162.75 28.8 163.7 -21.2 164.85 -76.0 162.15 -112.85 159.0 -155.65 151.4 -162.55 M159.1 -166.9 Q163.7 -162.75 166.7 -155.05 170.9 -144.25 172.95 -124.6 174.3 -112.15 174.75 -89.6 175.1 -67.9 174.55 -49.05 172.9 4.75 170.5 46.15 166.35 117.8 161.25 127.1 158.05 132.85 148.75 136.35 139.6 139.9 122.2 141.95 L86.6 144.15 Q65.15 144.9 44.3 144.9 -7.05 144.9 -65.25 141.75 -135.8 137.9 -148.9 132.0 -155.55 129.0 -160.25 121.3 -165.0 113.6 -168.2 100.5 -172.25 84.0 -174.15 18.95 -175.95 -41.95 -174.35 -75.65 -172.95 -104.85 -170.4 -125.55 -166.35 -158.3 -159.95 -165.55 -155.95 -170.0 -147.25 -173.15 -135.0 -177.5 -111.45 -180.2 L-68.4 -183.0 Q-43.0 -184.0 -19.85 -184.0 31.6 -184.0 75.2 -181.35 147.8 -177.1 159.1 -166.9" fill="#000000" fill-rule="evenodd" stroke="none"/>
    <path d="M151.4 -162.55 Q159.0 -155.65 162.15 -112.85 164.85 -76.0 163.7 -21.2 162.75 28.8 159.15 70.35 155.55 112.75 151.5 120.05 147.65 127.0 104.8 130.3 67.15 133.2 10.6 132.65 -43.05 132.1 -87.1 128.8 -133.45 125.4 -144.0 120.6 -154.2 116.0 -159.5 73.2 -164.05 36.3 -164.05 -19.45 -164.1 -70.85 -160.45 -112.8 -156.7 -156.0 -151.4 -162.0 -145.25 -168.9 -99.9 -173.05 -58.55 -176.8 -1.75 -176.9 55.3 -177.05 97.3 -173.45 143.65 -169.5 151.4 -162.55" fill="#ffffff" fill-rule="evenodd" stroke="none"/>
  </g>
</svg>
