<?xml version="1.0" encoding="UTF-8" standalone="no"?>
<svg xmlns:ffdec="https://www.free-decompiler.com/flash" xmlns:xlink="http://www.w3.org/1999/xlink" ffdec:objectType="shape" height="32.5px" width="123.0px" xmlns="http://www.w3.org/2000/svg">
  <g transform="matrix(1.0, 0.0, 0.0, 1.0, 61.3, 16.4)">
    <path d="M14.55 -14.2 L11.0 -14.25 10.7 -14.25 4.85 -14.3 -6.15 -14.35 -9.05 -14.35 -13.0 -14.35 -16.6 -14.4 -19.8 -14.4 -22.85 -14.4 -28.25 -14.4 -39.5 -14.3 -43.65 -14.25 -47.25 -14.15 -54.3 -13.55 -54.65 -12.8 -55.5 -9.05 Q-56.1 -5.45 -56.05 -1.35 -56.0 3.1 -55.25 6.35 L-55.1 7.1 -54.65 8.55 -53.65 10.7 -53.45 11.05 -47.25 11.65 -43.65 11.8 -39.5 11.95 -34.5 12.05 -28.25 12.2 -19.8 12.35 -16.6 12.4 -13.0 12.45 -9.05 12.45 -6.15 12.45 4.85 12.55 10.7 12.6 11.0 12.6 14.55 12.6 18.1 12.6 21.4 12.6 28.1 12.6 29.15 12.6 32.25 12.6 39.4 12.55 41.3 12.55 42.8 12.55 47.05 12.35 49.0 12.25 50.65 12.1 50.75 12.0 51.75 10.7 52.8 8.55 52.95 8.2 53.65 6.35 Q54.7 3.4 55.35 -0.4 56.15 -4.55 56.2 -8.2 56.25 -11.3 55.85 -12.8 L55.8 -12.85 50.75 -13.4 49.0 -13.5 47.05 -13.6 42.8 -13.8 41.3 -13.8 39.4 -13.85 36.35 -13.9 32.25 -13.95 29.15 -14.0 28.1 -14.0 18.1 -14.15 14.55 -14.2 M14.55 -16.15 L18.1 -16.1 28.1 -16.0 29.15 -15.95 32.25 -15.95 39.4 -15.8 41.3 -15.75 42.8 -15.75 47.05 -15.6 49.0 -15.55 49.1 -15.55 50.75 -15.45 Q59.05 -14.75 60.15 -14.05 L61.15 -12.8 Q62.5 -9.45 60.55 0.8 L59.3 6.35 58.6 8.55 57.75 10.7 Q55.95 14.6 53.5 15.15 L50.75 15.6 49.0 15.8 47.05 15.85 42.8 16.05 41.3 16.05 39.4 16.05 32.25 16.1 29.15 16.1 28.1 16.1 18.1 16.1 14.55 16.05 11.0 16.05 10.7 16.05 4.85 16.0 -6.15 15.95 -9.05 15.85 -9.25 15.85 -13.0 15.85 -16.6 15.8 -19.8 15.75 -28.25 15.6 -39.5 15.4 -43.65 15.3 -47.25 15.15 -56.4 14.0 Q-58.45 13.5 -59.65 10.7 L-60.3 8.55 -60.8 6.35 Q-61.25 3.7 -61.3 0.15 -61.5 -9.1 -59.85 -12.8 -59.35 -14.0 -58.65 -14.55 -57.25 -15.8 -47.25 -16.15 L-43.65 -16.25 -39.5 -16.35 -28.25 -16.4 -19.8 -16.4 -16.6 -16.4 -13.0 -16.4 -9.05 -16.35 -6.15 -16.35 -2.65 -16.35 4.85 -16.25 10.7 -16.2 11.0 -16.2 14.55 -16.15" fill="#999999" fill-rule="evenodd" stroke="none"/>
    <path d="M14.55 -14.2 L18.1 -14.15 28.1 -14.0 29.15 -14.0 32.25 -13.95 36.35 -13.9 39.4 -13.85 41.3 -13.8 42.8 -13.8 47.05 -13.6 49.0 -13.5 50.75 -13.4 55.8 -12.85 55.85 -12.8 Q56.25 -11.3 56.2 -8.2 56.15 -4.55 55.35 -0.4 54.7 3.4 53.65 6.35 L52.95 8.2 52.8 8.55 51.75 10.7 50.75 12.0 50.65 12.1 49.0 12.25 47.05 12.35 42.8 12.55 41.3 12.55 39.4 12.55 32.25 12.6 29.15 12.6 28.1 12.6 21.4 12.6 18.1 12.6 14.55 12.6 11.0 12.6 10.7 12.6 4.85 12.55 -6.15 12.45 -9.05 12.45 -13.0 12.45 -16.6 12.4 -19.8 12.35 -28.25 12.2 -34.5 12.05 -39.5 11.95 -43.65 11.8 -47.25 11.65 -53.45 11.05 -53.65 10.7 -54.65 8.55 -55.1 7.1 -55.25 6.35 Q-56.0 3.1 -56.05 -1.35 -56.1 -5.45 -55.5 -9.05 L-54.65 -12.8 -54.3 -13.55 -47.25 -14.15 -43.65 -14.25 -39.5 -14.3 -28.25 -14.4 -22.85 -14.4 -19.8 -14.4 -16.6 -14.4 -13.0 -14.35 -9.05 -14.35 -6.15 -14.35 4.85 -14.3 10.7 -14.25 11.0 -14.25 14.55 -14.2" fill="#cccccc" fill-rule="evenodd" stroke="none"/>
  </g>
</svg>
