<?xml version="1.0" encoding="UTF-8" standalone="no"?>
<svg xmlns:ffdec="https://www.free-decompiler.com/flash" xmlns:xlink="http://www.w3.org/1999/xlink" ffdec:objectType="shape" height="65.45px" width="148.95px" xmlns="http://www.w3.org/2000/svg">
  <g transform="matrix(1.0, 0.0, 0.0, 1.0, 74.5, 27.25)">
    <path d="M70.65 -11.9 L70.6 -10.8 68.35 10.05 68.1 12.1 Q67.8 15.3 64.95 17.9 62.1 20.5 58.4 20.55 42.8 21.05 -3.1 20.35 -48.0 19.7 -61.45 18.75 -63.55 18.7 -66.0 15.75 -68.35 12.75 -68.85 9.65 L-69.15 7.45 -70.6 -3.25 -70.7 -4.0 -71.45 -12.3 -71.45 -12.55 Q-71.45 -16.25 -69.15 -19.65 -66.75 -23.35 -63.75 -23.5 -47.9 -23.9 -0.8 -23.35 46.95 -22.75 62.65 -21.8 66.05 -21.6 68.4 -18.7 70.7 -15.9 70.65 -12.2 L70.65 -11.9" fill="#ffffff" fill-rule="evenodd" stroke="none"/>
    <path d="M70.65 -11.9 L70.65 -12.2 Q70.7 -15.9 68.4 -18.7 66.05 -21.6 62.65 -21.8 46.95 -22.75 -0.8 -23.35 -47.9 -23.9 -63.75 -23.5 -66.75 -23.35 -69.15 -19.65 -71.45 -16.25 -71.45 -12.55 L-71.45 -12.3 -70.7 -3.9 -70.6 -3.25 -69.15 7.45 -68.85 9.65 Q-68.35 12.75 -66.0 15.75 -63.55 18.7 -61.45 18.75 -48.0 19.7 -3.1 20.35 42.8 21.05 58.4 20.55 62.1 20.5 64.95 17.9 67.8 15.3 68.1 12.1 L68.35 10.05 70.6 -10.8 70.65 -11.65 70.65 -11.9 M74.4 -10.1 Q73.95 -3.55 72.95 2.1 71.45 10.05 71.05 13.1 70.55 17.55 67.05 20.85 63.5 24.2 59.0 24.3 39.3 24.55 -1.7 24.15 -46.85 23.8 -60.75 22.9 -64.3 22.7 -67.55 20.55 -71.05 18.2 -71.6 15.35 -73.35 6.8 -73.95 0.95 -74.75 -6.55 -74.35 -15.55 -74.2 -20.65 -69.8 -23.95 -65.85 -26.9 -60.8 -27.1 -47.3 -27.45 -3.3 -26.95 L57.2 -26.15 Q66.55 -26.1 70.95 -21.45 74.8 -17.35 74.4 -10.1" fill="#000000" fill-rule="evenodd" stroke="none"/>
    <path d="M0.05 38.2 Q-1.6 38.2 -5.2 31.6 -8.65 25.35 -8.65 23.3 -8.65 21.55 0.05 21.55 8.75 21.55 8.75 23.3 8.75 25.35 5.3 31.6 1.7 38.2 0.05 38.2" fill="#000000" fill-rule="evenodd" stroke="none"/>
    <path d="M4.2 26.3 Q1.35 32.85 0.05 32.85 -1.3 32.85 -4.15 26.3 -6.9 20.05 -6.9 18.0 -6.9 16.25 0.05 16.25 6.95 16.25 6.95 18.0 6.95 20.05 4.2 26.3" fill="#ffffff" fill-rule="evenodd" stroke="none"/>
  </g>
</svg>
