<?xml version="1.0" encoding="UTF-8" standalone="no"?>
<svg xmlns:ffdec="https://www.free-decompiler.com/flash" xmlns:xlink="http://www.w3.org/1999/xlink" ffdec:objectType="shape" height="174.9px" width="183.95px" xmlns="http://www.w3.org/2000/svg">
  <g transform="matrix(1.0, 0.0, 0.0, 1.0, 92.45, 87.5)">
    <path d="M15.5 -70.7 L19.5 -87.5 63.5 -63.5 54.55 -54.8 45.6 -46.1 Q43.7 -53.65 35.9 -59.05 27.0 -65.25 16.35 -64.5 L13.95 -64.2 15.5 -70.7 M74.6 -24.15 L85.5 -27.55 91.5 32.45 73.95 26.2 69.05 24.5 Q77.35 15.45 75.8 3.4 74.45 -7.45 63.7 -14.9 60.45 -17.2 57.0 -18.65 L74.6 -24.15 M43.25 54.95 L56.5 71.45 16.5 86.4 13.7 72.75 8.5 47.35 Q14.4 38.5 12.95 27.35 11.5 15.45 0.25 7.15 L-1.35 -0.55 14.5 -5.45 Q12.05 -1.0 12.3 4.3 L-1.35 -0.55 4.1 -23.1 Q6.8 -21.2 9.8 -20.15 13.1 -19.0 17.4 -18.75 L-1.35 -0.55 -13.65 -12.8 Q-9.25 -19.8 -10.35 -28.45 -11.65 -38.45 -21.5 -45.3 -31.4 -52.2 -43.1 -51.3 -47.05 -51.0 -50.65 -49.8 L-55.3 -54.45 -66.45 -65.6 -24.45 -81.5 -20.0 -65.85 -1.35 -0.55 -8.85 1.85 Q-17.85 -2.05 -27.95 -1.25 -44.35 0.05 -55.2 13.5 -56.65 15.3 -57.65 17.25 L-74.1 22.45 -85.65 26.05 -92.45 -21.55 -81.0 -18.9 -65.25 -15.3 Q-62.75 -10.7 -58.75 -7.25 -54.85 -3.9 -50.3 -2.35 -46.4 -1.0 -41.1 -0.7 -34.75 -0.35 -29.35 -1.65 -24.6 -2.8 -21.1 -5.1 L-1.35 -0.55 -3.25 4.8 -5.7 3.35 -1.35 -0.55 43.25 54.95 M-26.6 70.7 L-32.55 87.4 -67.45 58.45 -57.15 49.25 -54.0 46.45 Q-51.35 50.5 -47.45 53.8 -42.6 57.95 -36.95 59.9 -32.0 61.65 -25.45 61.95 L-23.55 62.05 -26.6 70.7" fill="#e0ecc7" fill-rule="evenodd" stroke="none"/>
    <path d="M13.95 -64.2 L16.35 -64.5 Q27.0 -65.25 35.9 -59.05 43.7 -53.65 45.6 -46.1 L46.0 -43.75 Q47.5 -32.6 38.6 -24.45 34.75 -21.0 28.85 -19.55 23.9 -18.35 18.15 -18.7 L17.4 -18.75 Q13.1 -19.0 9.8 -20.15 6.8 -21.2 4.1 -23.1 L2.2 -24.6 Q-4.1 -29.95 -6.4 -38.8 -8.55 -47.4 -3.45 -53.8 3.65 -62.55 13.95 -64.2 M6.7 -52.8 Q8.0 -53.85 9.2 -53.85 L9.3 -53.85 Q9.7 -55.15 11.25 -56.05 12.3 -56.7 14.3 -57.2 L15.6 -57.4 17.25 -57.05 18.45 -56.05 19.6 -57.05 21.25 -57.4 22.55 -57.2 25.6 -56.05 Q27.15 -55.15 27.55 -53.85 L27.65 -53.85 Q28.9 -53.85 30.15 -52.8 L31.8 -51.05 32.2 -50.45 32.85 -49.4 Q33.35 -48.35 33.05 -47.35 L33.7 -46.85 34.0 -46.45 34.2 -46.05 Q34.65 -45.2 34.65 -44.05 L34.4 -42.45 34.0 -41.65 33.4 -41.0 33.45 -40.9 33.25 -39.75 32.45 -38.45 31.85 -37.75 31.1 -37.1 Q30.5 -36.7 29.6 -36.45 L19.75 -36.35 18.95 -36.5 18.45 -36.85 17.9 -36.5 17.1 -36.35 7.25 -36.45 Q6.35 -36.7 5.75 -37.1 L5.0 -37.75 4.45 -38.45 3.6 -39.75 Q3.3 -40.3 3.4 -40.9 L3.45 -41.0 3.25 -41.2 Q2.75 -41.7 2.45 -42.45 L2.25 -43.1 2.25 -44.9 2.65 -46.05 3.15 -46.85 3.8 -47.35 Q3.45 -48.25 3.95 -49.4 L5.05 -51.05 6.7 -52.8 M7.0 -50.35 L6.25 -49.2 Q5.85 -48.4 6.3 -47.95 6.6 -47.65 7.25 -47.5 L7.6 -47.4 8.2 -47.3 8.3 -47.3 8.9 -46.85 Q9.15 -46.45 8.65 -46.15 L7.4 -46.2 6.1 -46.75 Q5.4 -46.85 5.05 -46.2 4.65 -45.5 4.65 -44.65 4.65 -43.65 5.1 -43.15 5.65 -42.55 6.5 -42.75 L7.4 -42.9 Q7.9 -42.85 7.9 -42.25 7.8 -41.75 7.1 -41.75 L6.5 -41.8 6.0 -41.75 Q5.5 -41.6 6.25 -40.55 L7.35 -39.35 Q7.95 -38.95 8.8 -38.9 L14.35 -38.85 17.35 -38.95 17.7 -39.55 17.8 -40.65 Q17.95 -42.15 18.45 -42.15 L18.9 -41.65 19.05 -40.65 19.15 -39.55 Q19.2 -39.05 19.5 -38.95 L22.5 -38.85 28.05 -38.9 Q28.9 -38.95 29.45 -39.35 L30.6 -40.55 Q31.35 -41.6 30.85 -41.75 L30.35 -41.8 29.75 -41.75 Q29.05 -41.75 28.95 -42.25 28.95 -42.85 29.45 -42.9 L30.35 -42.75 Q31.2 -42.55 31.75 -43.15 32.2 -43.65 32.2 -44.65 32.2 -45.5 31.8 -46.2 31.45 -46.85 30.75 -46.75 L29.45 -46.2 28.2 -46.15 Q27.7 -46.45 27.95 -46.85 L28.55 -47.3 29.6 -47.5 Q30.25 -47.65 30.55 -47.95 31.05 -48.4 30.6 -49.2 L29.85 -50.35 28.35 -51.95 Q27.25 -52.85 26.45 -52.3 L25.85 -51.45 25.1 -50.75 Q24.55 -50.65 24.4 -51.15 24.25 -51.65 24.6 -52.0 L25.25 -52.6 Q25.7 -53.05 25.6 -53.45 25.35 -54.3 24.0 -54.95 L21.9 -55.7 20.65 -55.75 Q19.95 -55.7 19.6 -55.1 19.15 -54.45 19.0 -51.85 L18.85 -50.35 18.45 -49.75 Q18.15 -49.75 18.0 -50.35 L17.85 -51.85 Q17.7 -54.35 17.25 -55.1 16.9 -55.7 16.2 -55.75 L14.95 -55.7 Q13.75 -55.4 12.85 -54.95 11.5 -54.3 11.25 -53.45 11.15 -53.05 11.6 -52.6 L12.25 -52.0 Q12.6 -51.65 12.45 -51.15 12.3 -50.65 11.75 -50.75 11.45 -50.85 11.05 -51.45 L10.4 -52.3 Q9.6 -52.85 8.5 -51.95 L7.0 -50.35 M0.05 -52.4 Q-4.2 -47.15 -2.5 -40.65 -0.95 -34.9 4.75 -31.1 9.95 -27.8 18.0 -27.7 28.65 -27.7 35.1 -33.4 38.35 -36.3 39.35 -40.1 40.15 -43.15 39.5 -47.3 38.95 -50.55 36.75 -53.55 34.55 -56.6 31.15 -58.65 24.2 -62.85 16.0 -61.65 6.4 -60.15 0.05 -52.4" fill="#454d9e" fill-rule="evenodd" stroke="none"/>
    <path d="M15.5 -70.7 L13.95 -64.2 Q3.65 -62.55 -3.45 -53.8 -8.55 -47.4 -6.4 -38.8 -4.1 -29.95 2.2 -24.6 L4.1 -23.1 -1.35 -0.55 -21.1 -5.1 -18.55 -7.1 Q-15.55 -9.8 -13.65 -12.8 L-1.35 -0.55 -20.0 -65.85 15.5 -70.7 M45.6 -46.1 L54.55 -54.8 74.6 -24.15 57.0 -18.65 Q49.15 -22.05 40.25 -21.45 26.05 -20.3 16.55 -8.6 15.35 -7.1 14.5 -5.45 L-1.35 -0.55 17.4 -18.75 18.15 -18.7 Q23.9 -18.35 28.85 -19.55 34.75 -21.0 38.6 -24.45 47.5 -32.6 46.0 -43.75 L45.6 -46.1 M73.95 26.2 L43.25 54.95 -1.35 -0.55 0.25 7.15 -1.0 6.25 Q-2.1 5.45 -3.25 4.8 L-1.35 -0.55 12.3 4.3 Q12.35 6.75 13.0 9.4 15.7 19.85 23.3 26.4 27.55 30.05 32.45 31.75 36.75 33.2 42.45 33.5 49.35 33.9 55.25 32.45 62.35 30.75 66.95 26.55 L69.05 24.5 73.95 26.2 M13.7 72.75 L14.9 79.35 -26.6 70.7 -23.55 62.05 Q-16.7 62.2 -10.75 60.75 -2.55 58.75 2.75 53.95 6.2 50.85 8.5 47.35 L13.7 72.75 M-57.15 49.25 L-74.1 22.45 -57.65 17.25 Q-61.65 24.75 -59.35 34.2 -57.8 40.15 -55.15 44.65 L-54.0 46.45 -57.15 49.25 M-81.0 -18.9 L-55.3 -54.45 -50.65 -49.8 Q-58.85 -47.05 -64.95 -39.5 -70.6 -32.5 -68.25 -22.9 -67.15 -18.75 -65.25 -15.3 L-81.0 -18.9 M-5.7 3.35 Q-7.25 2.5 -8.85 1.85 L-1.35 -0.55 -5.7 3.35" fill="#c1cea0" fill-rule="evenodd" stroke="none"/>
    <path d="M6.7 -52.8 L5.05 -51.05 3.95 -49.4 Q3.45 -48.25 3.8 -47.35 L3.15 -46.85 2.65 -46.05 2.25 -44.9 2.25 -43.1 2.45 -42.45 Q2.75 -41.7 3.25 -41.2 L3.45 -41.0 3.4 -40.9 Q3.3 -40.3 3.6 -39.75 L4.45 -38.45 5.0 -37.75 5.75 -37.1 Q6.35 -36.7 7.25 -36.45 L17.1 -36.35 17.9 -36.5 18.45 -36.85 18.95 -36.5 19.75 -36.35 29.6 -36.45 Q30.5 -36.7 31.1 -37.1 L31.85 -37.75 32.45 -38.45 33.25 -39.75 33.45 -40.9 33.4 -41.0 34.0 -41.65 34.4 -42.45 34.65 -44.05 Q34.65 -45.2 34.2 -46.05 L34.0 -46.45 33.7 -46.85 33.05 -47.35 Q33.35 -48.35 32.85 -49.4 L32.2 -50.45 31.8 -51.05 30.15 -52.8 Q28.9 -53.85 27.65 -53.85 L27.55 -53.85 Q27.15 -55.15 25.6 -56.05 L22.55 -57.2 21.25 -57.4 19.6 -57.05 18.45 -56.05 17.25 -57.05 15.6 -57.4 14.3 -57.2 Q12.3 -56.7 11.25 -56.05 9.7 -55.15 9.3 -53.85 L9.2 -53.85 Q8.0 -53.85 6.7 -52.8 M0.05 -52.4 Q6.4 -60.15 16.0 -61.65 24.2 -62.85 31.15 -58.65 34.55 -56.6 36.75 -53.55 38.95 -50.55 39.5 -47.3 40.15 -43.15 39.35 -40.1 38.35 -36.3 35.1 -33.4 28.65 -27.7 18.0 -27.7 9.95 -27.8 4.75 -31.1 -0.95 -34.9 -2.5 -40.65 -4.2 -47.15 0.05 -52.4" fill="#419bd6" fill-rule="evenodd" stroke="none"/>
    <path d="M7.0 -50.35 L8.5 -51.95 Q9.6 -52.85 10.4 -52.3 L11.05 -51.45 Q11.45 -50.85 11.75 -50.75 12.3 -50.65 12.45 -51.15 12.6 -51.65 12.25 -52.0 L11.6 -52.6 Q11.15 -53.05 11.25 -53.45 11.5 -54.3 12.85 -54.95 13.75 -55.4 14.95 -55.7 L16.2 -55.75 Q16.9 -55.7 17.25 -55.1 17.7 -54.35 17.85 -51.85 L18.0 -50.35 Q18.15 -49.75 18.45 -49.75 L18.85 -50.35 19.0 -51.85 Q19.15 -54.45 19.6 -55.1 19.95 -55.7 20.65 -55.75 L21.9 -55.7 24.0 -54.95 Q25.35 -54.3 25.6 -53.45 25.7 -53.05 25.25 -52.6 L24.6 -52.0 Q24.25 -51.65 24.4 -51.15 24.55 -50.65 25.1 -50.75 L25.85 -51.45 26.45 -52.3 Q27.25 -52.85 28.35 -51.95 L29.85 -50.35 30.6 -49.2 Q31.05 -48.4 30.55 -47.95 30.25 -47.65 29.6 -47.5 L28.55 -47.3 27.95 -46.85 Q27.7 -46.45 28.2 -46.15 L29.45 -46.2 30.75 -46.75 Q31.45 -46.85 31.8 -46.2 32.2 -45.5 32.2 -44.65 32.2 -43.65 31.75 -43.15 31.2 -42.55 30.35 -42.75 L29.45 -42.9 Q28.95 -42.85 28.95 -42.25 29.05 -41.75 29.75 -41.75 L30.35 -41.8 30.85 -41.75 Q31.35 -41.6 30.6 -40.55 L29.45 -39.35 Q28.9 -38.95 28.05 -38.9 L22.5 -38.85 19.5 -38.95 Q19.2 -39.05 19.15 -39.55 L19.05 -40.65 18.9 -41.65 18.45 -42.15 Q17.95 -42.15 17.8 -40.65 L17.7 -39.55 17.35 -38.95 14.35 -38.85 8.8 -38.9 Q7.95 -38.95 7.35 -39.35 L6.25 -40.55 Q5.5 -41.6 6.0 -41.75 L6.5 -41.8 7.1 -41.75 Q7.8 -41.75 7.9 -42.25 7.9 -42.85 7.4 -42.9 L6.5 -42.75 Q5.65 -42.55 5.1 -43.15 4.65 -43.65 4.65 -44.65 4.65 -45.5 5.05 -46.2 5.4 -46.85 6.1 -46.75 L7.4 -46.2 8.65 -46.15 Q9.15 -46.45 8.9 -46.85 L8.3 -47.3 8.2 -47.3 7.6 -47.4 7.25 -47.5 Q6.6 -47.65 6.3 -47.95 5.85 -48.4 6.25 -49.2 L7.0 -50.35" fill="#5dace0" fill-rule="evenodd" stroke="none"/>
    <path d="M14.5 -5.45 Q15.35 -7.1 16.55 -8.6 26.05 -20.3 40.25 -21.45 49.15 -22.05 57.0 -18.65 60.45 -17.2 63.7 -14.9 74.45 -7.45 75.8 3.4 77.35 15.45 69.05 24.5 L66.95 26.55 Q62.35 30.75 55.25 32.45 49.35 33.9 42.45 33.5 36.75 33.2 32.45 31.75 27.55 30.05 23.3 26.4 15.7 19.85 13.0 9.4 12.35 6.75 12.3 4.3 12.05 -1.0 14.5 -5.45 M37.85 -12.7 L39.4 -12.9 41.35 -12.5 Q42.25 -12.0 42.75 -11.3 L44.2 -12.5 46.15 -12.9 47.7 -12.7 Q49.8 -12.2 51.35 -11.3 53.25 -10.2 53.7 -8.65 L53.85 -8.65 Q55.35 -8.65 56.8 -7.4 L58.8 -5.3 59.3 -4.6 60.1 -3.35 Q60.7 -2.05 60.3 -0.9 L61.05 -0.3 61.7 0.65 Q62.25 1.75 62.25 3.05 62.25 4.15 61.9 5.0 L61.45 5.95 60.95 6.5 60.7 6.7 60.75 6.9 Q60.85 7.55 60.55 8.2 L59.55 9.8 58.85 10.6 58.0 11.4 Q57.15 11.95 56.15 12.15 L54.35 12.3 44.35 12.3 43.4 12.1 42.75 11.75 42.1 12.1 41.2 12.3 31.2 12.3 29.4 12.15 Q28.4 11.95 27.55 11.4 L26.7 10.6 26.0 9.8 25.0 8.2 Q24.65 7.45 24.8 6.9 L24.8 6.7 24.55 6.5 Q24.0 5.95 23.6 5.0 L23.4 4.2 23.3 3.05 23.4 2.05 23.85 0.65 24.5 -0.3 25.25 -0.9 Q24.85 -1.95 25.45 -3.35 L26.25 -4.6 26.75 -5.3 28.75 -7.4 Q30.2 -8.65 31.7 -8.65 L31.85 -8.65 Q32.2 -10.15 34.15 -11.3 35.6 -12.2 37.85 -12.7 M29.35 -1.05 L30.6 -0.8 31.35 -0.25 Q31.55 0.15 31.1 0.6 L29.55 0.5 28.0 -0.15 Q27.25 -0.3 26.7 0.55 26.25 1.3 26.25 2.35 26.25 3.45 26.8 4.15 27.45 4.95 28.45 4.65 L29.55 4.45 Q30.15 4.55 30.15 5.2 30.1 5.8 29.2 5.8 L28.45 5.8 27.85 5.8 Q27.3 6.0 28.2 7.3 L29.5 8.7 Q30.2 9.2 31.2 9.25 L37.9 9.3 41.5 9.2 41.9 8.45 42.05 7.15 Q42.2 5.4 42.75 5.4 43.15 5.4 43.3 5.95 L43.5 7.15 43.65 8.45 Q43.75 9.1 44.05 9.2 L47.65 9.3 54.3 9.25 Q55.35 9.2 56.0 8.7 L57.35 7.3 Q58.25 6.05 57.7 5.8 L57.1 5.8 56.35 5.8 Q55.4 5.8 55.4 5.2 55.4 4.55 56.0 4.45 L57.1 4.65 Q58.1 4.95 58.75 4.15 59.25 3.5 59.25 2.35 59.35 1.3 58.8 0.55 58.35 -0.3 57.5 -0.15 L56.0 0.5 54.45 0.6 Q53.95 0.15 54.2 -0.25 L54.9 -0.8 55.25 -0.9 56.2 -1.05 Q57.0 -1.3 57.3 -1.6 57.85 -2.1 57.4 -3.1 L56.45 -4.45 54.7 -6.35 Q53.3 -7.45 52.4 -6.8 L51.65 -5.8 Q51.2 -5.1 50.75 -5.0 50.15 -4.8 49.9 -5.4 49.75 -6.05 50.15 -6.45 L50.95 -7.2 Q51.45 -7.7 51.35 -8.2 51.1 -9.2 49.45 -10.0 L46.95 -10.9 45.4 -10.95 Q44.6 -10.8 44.15 -10.15 43.6 -9.2 43.45 -6.3 L43.3 -4.5 Q43.15 -3.75 42.75 -3.75 42.4 -3.75 42.25 -4.5 L42.1 -6.3 Q41.95 -9.2 41.4 -10.15 40.95 -10.8 40.15 -10.95 L38.6 -10.9 36.05 -10.0 Q34.45 -9.2 34.2 -8.2 34.1 -7.7 34.55 -7.2 L35.4 -6.45 Q35.8 -5.95 35.6 -5.4 35.45 -4.75 34.75 -5.0 34.35 -5.1 33.9 -5.8 L33.15 -6.8 Q32.25 -7.5 30.85 -6.35 L29.1 -4.45 28.15 -3.1 Q27.7 -2.1 28.25 -1.6 28.5 -1.3 29.35 -1.05 M20.75 -6.9 Q15.6 -0.55 17.7 7.15 19.55 14.0 26.4 18.6 29.75 20.8 33.95 21.75 37.5 22.6 42.25 22.65 48.05 22.7 53.1 21.1 58.75 19.35 62.75 15.8 66.65 12.3 67.85 7.8 68.8 4.1 68.0 -0.8 67.35 -4.7 64.75 -8.3 62.1 -11.95 58.05 -14.45 49.6 -19.4 39.9 -18.0 28.35 -16.3 20.75 -6.9" fill="#168045" fill-rule="evenodd" stroke="none"/>
    <path d="M37.85 -12.7 Q35.6 -12.2 34.15 -11.3 32.2 -10.15 31.85 -8.65 L31.7 -8.65 Q30.2 -8.65 28.75 -7.4 L26.75 -5.3 26.25 -4.6 25.45 -3.35 Q24.85 -1.95 25.25 -0.9 L24.5 -0.3 23.85 0.65 23.4 2.05 23.3 3.05 23.4 4.2 23.6 5.0 Q24.0 5.95 24.55 6.5 L24.8 6.7 24.8 6.9 Q24.65 7.45 25.0 8.2 L26.0 9.8 26.7 10.6 27.55 11.4 Q28.4 11.95 29.4 12.15 L31.2 12.3 41.2 12.3 42.1 12.1 42.75 11.75 43.4 12.1 44.35 12.3 54.35 12.3 56.15 12.15 Q57.15 11.95 58.0 11.4 L58.85 10.6 59.55 9.8 60.55 8.2 Q60.85 7.55 60.75 6.9 L60.7 6.7 60.95 6.5 61.45 5.95 61.9 5.0 Q62.25 4.15 62.25 3.05 62.25 1.75 61.7 0.65 L61.05 -0.3 60.3 -0.9 Q60.7 -2.05 60.1 -3.35 L59.3 -4.6 58.8 -5.3 56.8 -7.4 Q55.35 -8.65 53.85 -8.65 L53.7 -8.65 Q53.25 -10.2 51.35 -11.3 49.8 -12.2 47.7 -12.7 L46.15 -12.9 44.2 -12.5 42.75 -11.3 Q42.25 -12.0 41.35 -12.5 L39.4 -12.9 37.85 -12.7 M20.75 -6.9 Q28.35 -16.3 39.9 -18.0 49.6 -19.4 58.05 -14.45 62.1 -11.95 64.75 -8.3 67.35 -4.7 68.0 -0.8 68.8 4.1 67.85 7.8 66.65 12.3 62.75 15.8 58.75 19.35 53.1 21.1 48.05 22.7 42.25 22.65 37.5 22.6 33.95 21.75 29.75 20.8 26.4 18.6 19.55 14.0 17.7 7.15 15.6 -0.55 20.75 -6.9" fill="#64ba69" fill-rule="evenodd" stroke="none"/>
    <path d="M29.35 -1.05 Q28.5 -1.3 28.25 -1.6 27.7 -2.1 28.15 -3.1 L29.1 -4.45 30.85 -6.35 Q32.25 -7.5 33.15 -6.8 L33.9 -5.8 Q34.35 -5.1 34.75 -5.0 35.45 -4.75 35.6 -5.4 35.8 -5.95 35.4 -6.45 L34.55 -7.2 Q34.1 -7.7 34.2 -8.2 34.45 -9.2 36.05 -10.0 L38.6 -10.9 40.15 -10.95 Q40.95 -10.8 41.4 -10.15 41.95 -9.2 42.1 -6.3 L42.25 -4.5 Q42.4 -3.75 42.75 -3.75 43.15 -3.75 43.3 -4.5 L43.45 -6.3 Q43.6 -9.2 44.15 -10.15 44.6 -10.8 45.4 -10.95 L46.95 -10.9 49.45 -10.0 Q51.1 -9.2 51.35 -8.2 51.45 -7.7 50.95 -7.2 L50.15 -6.45 Q49.75 -6.05 49.9 -5.4 50.15 -4.8 50.75 -5.0 51.2 -5.1 51.65 -5.8 L52.4 -6.8 Q53.3 -7.45 54.7 -6.35 L56.45 -4.45 57.4 -3.1 Q57.85 -2.1 57.3 -1.6 57.0 -1.3 56.2 -1.05 L55.25 -0.9 54.9 -0.8 54.2 -0.25 Q53.95 0.15 54.45 0.6 L56.0 0.5 57.5 -0.15 Q58.35 -0.3 58.8 0.55 59.35 1.3 59.25 2.35 59.25 3.5 58.75 4.15 58.1 4.95 57.1 4.65 L56.0 4.45 Q55.4 4.55 55.4 5.2 55.4 5.8 56.35 5.8 L57.1 5.8 57.7 5.8 Q58.25 6.05 57.35 7.3 L56.0 8.7 Q55.35 9.2 54.3 9.25 L47.65 9.3 44.05 9.2 Q43.75 9.1 43.65 8.45 L43.5 7.15 43.3 5.95 Q43.15 5.4 42.75 5.4 42.2 5.4 42.05 7.15 L41.9 8.45 41.5 9.2 37.9 9.3 31.2 9.25 Q30.2 9.2 29.5 8.7 L28.2 7.3 Q27.3 6.0 27.85 5.8 L28.45 5.8 29.2 5.8 Q30.1 5.8 30.15 5.2 30.15 4.55 29.55 4.45 L28.45 4.65 Q27.45 4.95 26.8 4.15 26.25 3.45 26.25 2.35 26.25 1.3 26.7 0.55 27.25 -0.3 28.0 -0.15 L29.55 0.5 31.1 0.6 Q31.55 0.15 31.35 -0.25 L30.6 -0.8 29.35 -1.05" fill="#7ac281" fill-rule="evenodd" stroke="none"/>
    <path d="M0.2 13.85 Q3.2 17.95 3.95 22.5 4.85 28.15 3.75 32.4 2.4 37.6 -2.1 41.6 -6.7 45.7 -13.2 47.7 -18.95 49.5 -25.65 49.45 -31.1 49.4 -35.25 48.45 -40.05 47.3 -43.9 44.8 -51.85 39.5 -53.9 31.6 -56.3 22.7 -50.4 15.45 -41.7 4.65 -28.4 2.7 -17.2 1.05 -7.5 6.8 -2.85 9.65 0.2 13.85 M-19.4 8.8 L-21.2 8.55 Q-22.45 8.55 -23.45 9.05 L-25.1 10.4 Q-25.7 9.5 -26.7 9.05 -27.7 8.55 -28.95 8.55 L-30.75 8.8 Q-33.25 9.4 -34.95 10.4 -37.2 11.7 -37.65 13.45 L-37.8 13.45 Q-39.6 13.45 -41.2 14.85 L-43.5 17.3 -44.1 18.1 -45.0 19.55 Q-45.7 21.0 -45.25 22.35 L-46.1 23.05 -46.85 24.15 -47.35 25.75 -47.45 26.9 -47.35 28.25 -47.1 29.15 Q-46.75 30.15 -46.0 30.9 L-45.75 31.15 -45.75 31.3 Q-45.9 31.95 -45.55 32.85 L-44.4 34.7 -43.55 35.65 -42.55 36.5 Q-41.8 37.05 -40.45 37.4 L-26.9 37.55 -25.8 37.35 Q-25.4 37.2 -25.1 36.9 L-24.35 37.35 -23.25 37.55 -9.7 37.4 Q-8.35 37.05 -7.55 36.5 L-6.6 35.65 -5.75 34.7 -4.65 32.85 Q-4.25 32.0 -4.4 31.3 L-4.45 31.15 -4.15 30.9 -3.6 30.25 -3.05 29.15 Q-2.65 28.05 -2.7 26.9 -2.7 25.35 -3.3 24.15 L-4.05 23.05 -4.9 22.35 Q-4.45 21.1 -5.15 19.55 -5.35 19.05 -6.05 18.1 L-6.65 17.3 Q-7.9 15.65 -8.95 14.85 -10.65 13.45 -12.35 13.45 L-12.5 13.45 Q-12.95 11.7 -15.2 10.4 -16.9 9.4 -19.4 8.8" fill="#f0b851" fill-rule="evenodd" stroke="none"/>
    <path d="M0.2 13.85 Q-2.85 9.65 -7.5 6.8 -17.2 1.05 -28.4 2.7 -41.7 4.65 -50.4 15.45 -56.3 22.7 -53.9 31.6 -51.85 39.5 -43.9 44.8 -40.05 47.3 -35.25 48.45 -31.1 49.4 -25.65 49.45 -18.95 49.5 -13.2 47.7 -6.7 45.7 -2.1 41.6 2.4 37.6 3.75 32.4 4.85 28.15 3.95 22.5 3.2 17.95 0.2 13.85 M0.25 7.15 Q11.5 15.45 12.95 27.35 14.4 38.5 8.5 47.35 6.2 50.85 2.75 53.95 -2.55 58.75 -10.75 60.75 -16.7 62.2 -23.55 62.05 L-25.45 61.95 Q-32.0 61.65 -36.95 59.9 -42.6 57.95 -47.45 53.8 -51.35 50.5 -54.0 46.45 L-55.15 44.65 Q-57.8 40.15 -59.35 34.2 -61.65 24.75 -57.65 17.25 -56.65 15.3 -55.2 13.5 -44.35 0.05 -27.95 -1.25 -17.85 -2.05 -8.85 1.85 -7.25 2.5 -5.7 3.35 L-3.25 4.8 Q-2.1 5.45 -1.0 6.25 L0.25 7.15 M-19.4 8.8 Q-16.9 9.4 -15.2 10.4 -12.95 11.7 -12.5 13.45 L-12.35 13.45 Q-10.65 13.45 -8.95 14.85 -7.9 15.65 -6.65 17.3 L-6.05 18.1 Q-5.35 19.05 -5.15 19.55 -4.45 21.1 -4.9 22.35 L-4.05 23.05 -3.3 24.15 Q-2.7 25.35 -2.7 26.9 -2.65 28.05 -3.05 29.15 L-3.6 30.25 -4.15 30.9 -4.45 31.15 -4.4 31.3 Q-4.25 32.0 -4.65 32.85 L-5.75 34.7 -6.6 35.65 -7.55 36.5 Q-8.35 37.05 -9.7 37.4 L-23.25 37.55 -24.35 37.35 -25.1 36.9 Q-25.4 37.2 -25.8 37.35 L-26.9 37.55 -40.45 37.4 Q-41.8 37.05 -42.55 36.5 L-43.55 35.65 -44.4 34.7 -45.55 32.85 Q-45.9 31.95 -45.75 31.3 L-45.75 31.15 -46.0 30.9 Q-46.75 30.15 -47.1 29.15 L-47.35 28.25 -47.45 26.9 -47.35 25.75 -46.85 24.15 -46.1 23.05 -45.25 22.35 Q-45.7 21.0 -45.0 19.55 L-44.1 18.1 -43.5 17.3 -41.2 14.85 Q-39.6 13.45 -37.8 13.45 L-37.65 13.45 Q-37.2 11.7 -34.95 10.4 -33.25 9.4 -30.75 8.8 L-28.95 8.55 Q-27.7 8.55 -26.7 9.05 -25.7 9.5 -25.1 10.4 L-23.45 9.05 Q-22.45 8.55 -21.2 8.55 L-19.4 8.8 M-14.0 15.6 L-14.85 16.75 -15.9 17.7 Q-16.65 17.85 -16.85 17.15 -17.05 16.55 -16.6 16.0 L-15.65 15.1 Q-15.1 14.55 -15.2 13.95 -15.45 12.8 -17.4 11.9 -18.7 11.25 -20.3 10.9 L-22.05 10.8 Q-23.0 10.95 -23.5 11.75 -24.05 12.7 -24.3 16.15 L-24.5 18.2 Q-24.65 19.1 -25.1 19.1 -25.5 19.1 -25.65 18.2 L-25.85 16.15 Q-26.05 12.7 -26.65 11.75 -27.15 10.95 -28.1 10.8 L-29.85 10.9 Q-31.4 11.25 -32.8 11.9 -34.7 12.85 -34.95 13.95 -35.05 14.55 -34.5 15.1 L-33.6 16.0 Q-33.1 16.5 -33.3 17.15 -33.5 17.85 -34.3 17.7 L-35.3 16.75 -36.15 15.6 Q-37.25 14.8 -38.75 16.1 L-40.85 18.25 -41.9 19.85 Q-42.45 21.0 -41.8 21.55 -41.45 21.95 -40.5 22.2 L-39.05 22.5 Q-38.4 22.65 -38.2 23.1 -38.0 23.6 -38.55 24.05 L-40.3 24.0 Q-41.55 23.35 -42.05 23.25 -42.95 23.1 -43.55 24.0 -44.1 25.0 -44.05 26.15 -44.05 27.45 -43.45 28.2 -42.75 29.05 -41.55 28.75 L-40.3 28.55 Q-39.6 28.55 -39.6 29.4 -39.7 30.1 -40.7 30.1 L-41.55 30.05 -42.25 30.1 Q-42.9 30.3 -41.85 31.8 L-40.3 33.45 -38.4 34.05 -30.7 34.1 -26.55 34.0 Q-26.15 33.8 -26.1 33.15 L-25.9 31.65 Q-25.75 29.6 -25.1 29.6 -24.6 29.6 -24.45 30.2 L-24.25 31.65 -24.1 33.15 Q-23.95 33.85 -23.6 34.0 L-19.45 34.1 -11.8 34.05 Q-10.75 34.0 -9.85 33.45 L-8.3 31.8 Q-7.25 30.35 -7.9 30.1 L-8.6 30.05 -9.45 30.1 Q-10.45 30.1 -10.55 29.4 -10.55 28.55 -9.85 28.55 L-8.6 28.75 Q-7.4 29.05 -6.7 28.2 -6.1 27.45 -6.1 26.15 -6.1 24.85 -6.6 24.0 -7.2 23.1 -8.1 23.25 L-9.9 24.0 -11.65 24.05 Q-12.2 23.55 -11.95 23.1 -11.75 22.65 -11.1 22.5 L-9.65 22.2 Q-8.8 22.0 -8.35 21.55 -7.7 21.0 -8.25 19.85 L-9.3 18.25 -11.35 16.1 Q-12.9 14.85 -14.0 15.6" fill="#bc7830" fill-rule="evenodd" stroke="none"/>
    <path d="M-21.1 -5.1 Q-24.6 -2.8 -29.35 -1.65 -34.75 -0.35 -41.1 -0.7 -46.4 -1.0 -50.3 -2.35 -54.85 -3.9 -58.75 -7.25 -62.75 -10.7 -65.25 -15.3 -67.15 -18.75 -68.25 -22.9 -70.6 -32.5 -64.95 -39.5 -58.85 -47.05 -50.65 -49.8 -47.05 -51.0 -43.1 -51.3 -31.4 -52.2 -21.5 -45.3 -11.65 -38.45 -10.35 -28.45 -9.25 -19.8 -13.65 -12.8 -15.55 -9.8 -18.55 -7.1 L-21.1 -5.1 M-48.35 -38.2 L-47.6 -37.5 Q-47.2 -37.1 -47.4 -36.55 -47.55 -36.0 -48.15 -36.15 -48.6 -36.25 -48.95 -36.9 L-49.65 -37.8 Q-50.5 -38.45 -51.75 -37.45 L-53.4 -35.7 -54.25 -34.45 Q-54.7 -33.5 -54.2 -33.05 -53.85 -32.7 -53.15 -32.55 L-52.0 -32.3 Q-51.5 -32.15 -51.3 -31.8 -51.1 -31.45 -51.55 -31.05 L-52.95 -31.1 -54.4 -31.7 Q-55.05 -31.85 -55.6 -31.1 -56.0 -30.4 -56.0 -29.4 -56.0 -28.3 -55.5 -27.75 -54.95 -27.0 -54.0 -27.3 L-53.0 -27.45 Q-52.35 -27.45 -52.45 -26.75 -52.45 -26.2 -53.3 -26.2 L-54.0 -26.25 -54.55 -26.2 Q-55.1 -26.05 -54.2 -24.85 L-53.0 -23.55 Q-52.45 -23.1 -51.45 -23.05 L-45.3 -23.0 -42.0 -23.1 Q-41.7 -23.2 -41.6 -23.75 L-41.45 -24.95 Q-41.35 -26.6 -40.8 -26.6 -40.45 -26.6 -40.3 -26.1 -40.15 -25.8 -40.15 -24.95 L-40.0 -23.75 Q-39.9 -23.2 -39.6 -23.1 L-36.3 -23.0 -30.15 -23.05 Q-29.15 -23.1 -28.6 -23.55 -28.1 -23.85 -27.4 -24.85 -26.5 -26.05 -27.05 -26.2 L-27.6 -26.25 -28.3 -26.2 Q-29.15 -26.2 -29.15 -26.75 -29.25 -27.45 -28.6 -27.45 L-27.6 -27.3 Q-26.65 -27.0 -26.1 -27.75 -25.6 -28.3 -25.6 -29.4 -25.6 -30.4 -26.0 -31.1 -26.5 -31.85 -27.2 -31.7 L-28.65 -31.1 -30.05 -31.05 Q-30.5 -31.45 -30.3 -31.8 L-29.6 -32.3 -29.3 -32.4 -28.45 -32.55 Q-27.75 -32.7 -27.4 -33.05 -26.85 -33.5 -27.35 -34.45 L-28.2 -35.7 -29.8 -37.45 Q-31.1 -38.45 -31.95 -37.8 L-32.65 -36.9 Q-33.0 -36.25 -33.45 -36.15 -34.05 -36.0 -34.2 -36.55 -34.4 -37.1 -34.0 -37.5 L-33.25 -38.2 Q-32.8 -38.7 -32.9 -39.15 -33.15 -40.1 -34.65 -40.8 L-36.95 -41.6 -38.35 -41.7 -39.5 -40.9 Q-40.05 -40.1 -40.15 -37.35 L-40.3 -35.7 Q-40.45 -35.0 -40.8 -35.0 -41.15 -35.0 -41.25 -35.7 L-41.4 -37.35 Q-41.55 -40.1 -42.1 -40.9 -42.45 -41.55 -43.25 -41.7 L-44.65 -41.6 -46.95 -40.8 Q-48.45 -40.1 -48.7 -39.15 L-48.35 -38.2 M-42.1 -43.05 Q-41.3 -42.65 -40.8 -41.95 L-39.5 -43.05 -37.7 -43.45 -36.25 -43.25 Q-34.4 -42.85 -32.9 -42.0 -31.15 -41.0 -30.7 -39.55 L-30.6 -39.55 Q-29.3 -39.55 -27.85 -38.4 L-26.05 -36.45 -25.55 -35.85 -24.85 -34.65 Q-24.25 -33.5 -24.65 -32.4 L-23.95 -31.85 -23.35 -30.95 Q-22.9 -30.05 -22.85 -28.75 -22.85 -27.75 -23.15 -26.95 -23.3 -26.45 -23.6 -26.1 L-24.05 -25.6 -24.25 -25.4 -24.25 -25.25 Q-24.15 -24.6 -24.45 -24.0 -24.65 -23.4 -25.35 -22.55 L-26.0 -21.8 -26.8 -21.05 Q-27.65 -20.55 -28.5 -20.35 L-30.1 -20.25 -39.35 -20.25 -40.2 -20.4 -40.8 -20.75 -41.4 -20.4 -42.25 -20.25 -51.45 -20.25 -53.1 -20.35 Q-53.95 -20.55 -54.8 -21.05 L-56.25 -22.55 -57.2 -24.0 -57.35 -25.25 -57.35 -25.4 -57.55 -25.6 Q-58.15 -26.1 -58.45 -26.95 L-58.65 -27.7 -58.7 -28.75 -58.65 -29.7 -58.25 -30.95 -57.65 -31.85 -56.95 -32.4 Q-57.35 -33.5 -56.75 -34.65 L-56.05 -35.85 -55.55 -36.45 -53.75 -38.4 Q-52.3 -39.55 -51.0 -39.55 L-50.85 -39.55 Q-50.5 -40.95 -48.7 -42.0 -47.2 -42.85 -45.35 -43.25 L-43.9 -43.45 -42.1 -43.05 M-63.9 -25.0 Q-62.2 -18.65 -55.9 -14.45 -50.25 -10.8 -41.25 -10.7 -35.9 -10.65 -31.25 -12.1 -26.05 -13.7 -22.4 -17.0 -18.8 -20.2 -17.7 -24.4 -16.85 -27.8 -17.55 -32.3 -18.15 -35.9 -20.55 -39.25 -23.0 -42.55 -26.75 -44.85 -34.4 -49.5 -43.45 -48.15 -54.1 -46.6 -61.1 -37.95 -65.85 -32.05 -63.9 -25.0" fill="#95205c" fill-rule="evenodd" stroke="none"/>
    <path d="M-48.35 -38.2 L-48.7 -39.15 Q-48.45 -40.1 -46.95 -40.8 L-44.65 -41.6 -43.25 -41.7 Q-42.45 -41.55 -42.1 -40.9 -41.55 -40.1 -41.4 -37.35 L-41.25 -35.7 Q-41.15 -35.0 -40.8 -35.0 -40.45 -35.0 -40.3 -35.7 L-40.15 -37.35 Q-40.05 -40.1 -39.5 -40.9 L-38.35 -41.7 -36.95 -41.6 -34.65 -40.8 Q-33.15 -40.1 -32.9 -39.15 -32.8 -38.7 -33.25 -38.2 L-34.0 -37.5 Q-34.4 -37.1 -34.2 -36.55 -34.05 -36.0 -33.45 -36.15 -33.0 -36.25 -32.65 -36.9 L-31.95 -37.8 Q-31.1 -38.45 -29.8 -37.45 L-28.2 -35.7 -27.35 -34.45 Q-26.85 -33.5 -27.4 -33.05 -27.75 -32.7 -28.45 -32.55 L-29.3 -32.4 -29.6 -32.3 -30.3 -31.8 Q-30.5 -31.45 -30.05 -31.05 L-28.65 -31.1 -27.2 -31.7 Q-26.5 -31.85 -26.0 -31.1 -25.6 -30.4 -25.6 -29.4 -25.6 -28.3 -26.1 -27.75 -26.65 -27.0 -27.6 -27.3 L-28.6 -27.45 Q-29.25 -27.45 -29.15 -26.75 -29.15 -26.2 -28.3 -26.2 L-27.6 -26.25 -27.05 -26.2 Q-26.5 -26.05 -27.4 -24.85 -28.1 -23.85 -28.6 -23.55 -29.15 -23.1 -30.15 -23.05 L-36.3 -23.0 -39.6 -23.1 Q-39.9 -23.2 -40.0 -23.75 L-40.15 -24.95 Q-40.15 -25.8 -40.3 -26.1 -40.45 -26.6 -40.8 -26.6 -41.35 -26.6 -41.45 -24.95 L-41.6 -23.75 Q-41.7 -23.2 -42.0 -23.1 L-45.3 -23.0 -51.45 -23.05 Q-52.45 -23.1 -53.0 -23.55 L-54.2 -24.85 Q-55.1 -26.05 -54.55 -26.2 L-54.0 -26.25 -53.3 -26.2 Q-52.45 -26.2 -52.45 -26.75 -52.35 -27.45 -53.0 -27.45 L-54.0 -27.3 Q-54.95 -27.0 -55.5 -27.75 -56.0 -28.3 -56.0 -29.4 -56.0 -30.4 -55.6 -31.1 -55.05 -31.85 -54.4 -31.7 L-52.95 -31.1 -51.55 -31.05 Q-51.1 -31.45 -51.3 -31.8 -51.5 -32.15 -52.0 -32.3 L-53.15 -32.55 Q-53.85 -32.7 -54.2 -33.05 -54.7 -33.5 -54.25 -34.45 L-53.4 -35.7 -51.75 -37.45 Q-50.5 -38.45 -49.65 -37.8 L-48.95 -36.9 Q-48.6 -36.25 -48.15 -36.15 -47.55 -36.0 -47.4 -36.55 -47.2 -37.1 -47.6 -37.5 L-48.35 -38.2" fill="#e86878" fill-rule="evenodd" stroke="none"/>
    <path d="M-42.1 -43.05 L-43.9 -43.45 -45.35 -43.25 Q-47.2 -42.85 -48.7 -42.0 -50.5 -40.95 -50.85 -39.55 L-51.0 -39.55 Q-52.3 -39.55 -53.75 -38.4 L-55.55 -36.45 -56.05 -35.85 -56.75 -34.65 Q-57.35 -33.5 -56.95 -32.4 L-57.65 -31.85 -58.25 -30.95 -58.65 -29.7 -58.7 -28.75 -58.65 -27.7 -58.45 -26.95 Q-58.15 -26.1 -57.55 -25.6 L-57.35 -25.4 -57.35 -25.25 -57.2 -24.0 -56.25 -22.55 -54.8 -21.05 Q-53.95 -20.55 -53.1 -20.35 L-51.45 -20.25 -42.25 -20.25 -41.4 -20.4 -40.8 -20.75 -40.2 -20.4 -39.35 -20.25 -30.1 -20.25 -28.5 -20.35 Q-27.65 -20.55 -26.8 -21.05 L-26.0 -21.8 -25.35 -22.55 Q-24.65 -23.4 -24.45 -24.0 -24.15 -24.6 -24.25 -25.25 L-24.25 -25.4 -24.05 -25.6 -23.6 -26.1 Q-23.3 -26.45 -23.15 -26.95 -22.85 -27.75 -22.85 -28.75 -22.9 -30.05 -23.35 -30.95 L-23.95 -31.85 -24.65 -32.4 Q-24.25 -33.5 -24.85 -34.65 L-25.55 -35.85 -26.05 -36.45 -27.85 -38.4 Q-29.3 -39.55 -30.6 -39.55 L-30.7 -39.55 Q-31.15 -41.0 -32.9 -42.0 -34.4 -42.85 -36.25 -43.25 L-37.7 -43.45 -39.5 -43.05 -40.8 -41.95 Q-41.3 -42.65 -42.1 -43.05 M-63.9 -25.0 Q-65.85 -32.05 -61.1 -37.95 -54.1 -46.6 -43.45 -48.15 -34.4 -49.5 -26.75 -44.85 -23.0 -42.55 -20.55 -39.25 -18.15 -35.9 -17.55 -32.3 -16.85 -27.8 -17.7 -24.4 -18.8 -20.2 -22.4 -17.0 -26.05 -13.7 -31.25 -12.1 -35.9 -10.65 -41.25 -10.7 -50.25 -10.8 -55.9 -14.45 -62.2 -18.65 -63.9 -25.0" fill="#e65160" fill-rule="evenodd" stroke="none"/>
    <path d="M-14.0 15.6 Q-12.9 14.85 -11.35 16.1 L-9.3 18.25 -8.25 19.85 Q-7.7 21.0 -8.35 21.55 -8.8 22.0 -9.65 22.2 L-11.1 22.5 Q-11.75 22.65 -11.95 23.1 -12.2 23.55 -11.65 24.05 L-9.9 24.0 -8.1 23.25 Q-7.2 23.1 -6.6 24.0 -6.1 24.85 -6.1 26.15 -6.1 27.45 -6.7 28.2 -7.4 29.05 -8.6 28.75 L-9.85 28.55 Q-10.55 28.55 -10.55 29.4 -10.45 30.1 -9.45 30.1 L-8.6 30.05 -7.9 30.1 Q-7.25 30.35 -8.3 31.8 L-9.85 33.45 Q-10.75 34.0 -11.8 34.05 L-19.45 34.1 -23.6 34.0 Q-23.95 33.85 -24.1 33.15 L-24.25 31.65 -24.45 30.2 Q-24.6 29.6 -25.1 29.6 -25.75 29.6 -25.9 31.65 L-26.1 33.15 Q-26.15 33.8 -26.55 34.0 L-30.7 34.1 -38.4 34.05 -40.3 33.45 -41.85 31.8 Q-42.9 30.3 -42.25 30.1 L-41.55 30.05 -40.7 30.1 Q-39.7 30.1 -39.6 29.4 -39.6 28.55 -40.3 28.55 L-41.55 28.75 Q-42.75 29.05 -43.45 28.2 -44.05 27.45 -44.05 26.15 -44.1 25.0 -43.55 24.0 -42.95 23.1 -42.05 23.25 -41.55 23.35 -40.3 24.0 L-38.55 24.05 Q-38.0 23.6 -38.2 23.1 -38.4 22.65 -39.05 22.5 L-40.5 22.2 Q-41.45 21.95 -41.8 21.55 -42.45 21.0 -41.9 19.85 L-40.85 18.25 -38.75 16.1 Q-37.25 14.8 -36.15 15.6 L-35.3 16.75 -34.3 17.7 Q-33.5 17.85 -33.3 17.15 -33.1 16.5 -33.6 16.0 L-34.5 15.1 Q-35.05 14.55 -34.95 13.95 -34.7 12.85 -32.8 11.9 -31.4 11.25 -29.85 10.9 L-28.1 10.8 Q-27.15 10.95 -26.65 11.75 -26.05 12.7 -25.85 16.15 L-25.65 18.2 Q-25.5 19.1 -25.1 19.1 -24.65 19.1 -24.5 18.2 L-24.3 16.15 Q-24.05 12.7 -23.5 11.75 -23.0 10.95 -22.05 10.8 L-20.3 10.9 Q-18.7 11.25 -17.4 11.9 -15.45 12.8 -15.2 13.95 -15.1 14.55 -15.65 15.1 L-16.6 16.0 Q-17.05 16.55 -16.85 17.15 -16.65 17.85 -15.9 17.7 L-14.85 16.75 -14.0 15.6" fill="#f6e171" fill-rule="evenodd" stroke="none"/>
  </g>
</svg>
