<?xml version="1.0" encoding="UTF-8" standalone="no"?>
<svg xmlns:ffdec="https://www.free-decompiler.com/flash" xmlns:xlink="http://www.w3.org/1999/xlink" ffdec:objectType="shape" height="174.95px" width="198.05px" xmlns="http://www.w3.org/2000/svg">
  <g transform="matrix(1.0, 0.0, 0.0, 1.0, 98.5, 87.0)">
    <path d="M46.9 -58.95 Q46.95 -59.35 45.7 -59.9 44.4 -60.4 43.55 -59.7 42.6 -58.85 44.75 -58.05 46.85 -57.2 46.9 -58.95 M48.65 -58.8 Q47.15 -56.85 45.35 -55.2 L45.85 -55.75 36.15 -60.65 44.5 -54.5 Q40.9 -51.45 36.2 -49.45 L36.0 -49.35 34.4 -48.75 29.4 -47.35 21.7 -54.05 26.25 -46.85 20.65 -46.65 16.15 -50.7 Q14.2 -52.15 12.85 -52.7 L12.6 -52.8 12.5 -52.85 12.85 -52.85 Q18.1 -53.3 27.65 -57.85 L32.05 -60.05 Q37.7 -63.15 37.85 -64.8 39.05 -64.45 43.4 -62.0 48.3 -59.45 48.65 -58.8 M24.5 -80.45 Q27.2 -78.85 27.35 -78.35 27.45 -77.75 25.85 -76.75 24.3 -75.8 20.5 -74.1 L17.7 -72.95 Q11.75 -70.7 7.9 -70.65 2.95 -70.5 -2.8 -72.85 -7.9 -75.0 -7.45 -76.0 -6.35 -78.15 2.25 -81.95 10.45 -85.65 13.1 -85.65 14.4 -85.65 20.05 -82.8 L20.75 -82.45 24.5 -80.45 M24.2 -79.5 L20.85 -79.75 Q19.65 -79.45 21.15 -77.9 22.5 -76.55 24.35 -77.6 L25.25 -78.35 24.95 -79.2 24.2 -79.5" fill="#c14e5f" fill-rule="evenodd" stroke="none"/>
    <path d="M46.9 -58.95 Q46.85 -57.2 44.75 -58.05 42.6 -58.85 43.55 -59.7 44.4 -60.4 45.7 -59.9 46.95 -59.35 46.9 -58.95 M46.85 -53.35 Q46.4 -53.5 47.3 -54.85 48.15 -56.15 48.95 -55.45 49.45 -54.95 48.6 -54.1 47.85 -53.25 46.85 -53.35 M24.2 -79.5 L24.95 -79.2 25.25 -78.35 24.35 -77.6 Q22.5 -76.55 21.15 -77.9 19.65 -79.45 20.85 -79.75 L24.2 -79.5 M13.1 -54.45 L11.5 -54.3 8.75 -65.65 9.8 -65.95 11.4 -66.5 12.4 -66.85 12.45 -66.9 16.65 -68.65 20.3 -70.3 20.9 -70.6 27.0 -73.6 30.2 -75.7 Q31.85 -74.35 35.15 -69.05 32.05 -70.55 28.3 -70.1 L27.95 -70.1 Q24.05 -69.5 21.1 -67.25 16.85 -64.15 14.85 -61.15 12.5 -57.75 13.1 -54.45 M28.0 -44.05 Q27.5 -43.25 25.7 -43.75 23.75 -44.3 24.55 -44.55 26.0 -45.25 27.5 -45.25 28.8 -45.15 28.0 -44.05 M-80.6 37.65 L-77.85 34.65 -76.4 33.05 -71.75 36.6 -67.7 30.8 -60.3 32.45 -58.35 27.75 -56.05 28.1 -53.35 28.45 -53.45 28.5 -53.8 28.5 -57.4 29.15 -59.75 33.15 -67.25 32.0 -71.65 37.25 -76.35 34.15 -80.6 37.65 M-77.45 -8.1 Q-76.0 -9.9 -72.8 -8.15 -69.65 -6.35 -71.4 -4.2 -73.0 -2.15 -75.85 -4.45 -78.7 -6.75 -77.45 -8.1 M-64.3 7.7 L-63.25 7.75 Q-62.85 8.3 -63.7 8.7 L-64.65 8.6 Q-64.8 8.15 -64.3 7.7 M-71.6 11.55 Q-71.55 11.8 -71.9 12.05 -72.65 12.6 -73.2 11.9 L-73.25 11.85 Q-73.7 11.25 -73.0 10.75 -72.3 10.35 -71.8 11.0 L-71.6 11.55 M-82.4 13.75 Q-82.6 13.3 -82.05 12.85 L-81.0 12.9 Q-80.65 13.4 -81.45 13.85 -82.25 14.2 -82.4 13.75" fill="#fefefe" fill-rule="evenodd" stroke="none"/>
    <path d="M50.4 -54.6 L50.1 -55.3 Q49.1 -57.05 48.5 -57.0 47.85 -56.95 46.3 -55.15 L44.45 -52.65 Q44.3 -52.15 44.5 -51.2 L45.3 -49.25 Q46.1 -47.7 46.65 -47.7 L46.8 -47.65 45.15 -46.6 44.2 -49.55 43.4 -51.1 Q43.2 -51.2 37.6 -48.35 L37.5 -48.35 Q31.85 -45.6 31.65 -45.15 31.5 -44.8 31.9 -42.6 32.2 -40.5 32.4 -40.1 L32.9 -40.2 Q28.4 -38.3 25.7 -37.65 L23.9 -37.4 Q23.3 -38.1 22.6 -41.1 21.55 -45.7 20.7 -46.55 L20.65 -46.65 26.25 -46.85 21.7 -54.05 29.4 -47.35 34.4 -48.75 36.0 -49.35 36.2 -49.45 Q40.9 -51.45 44.5 -54.5 L36.15 -60.65 45.85 -55.75 45.35 -55.2 Q47.15 -56.85 48.65 -58.8 49.45 -57.65 50.35 -54.85 L50.4 -54.6 M23.55 -38.95 Q24.15 -37.65 24.6 -37.75 L28.1 -38.65 Q30.5 -39.45 30.95 -40.05 31.25 -40.5 30.8 -41.65 L29.75 -44.1 Q29.0 -45.45 28.5 -45.45 L25.25 -45.55 22.3 -45.0 Q21.85 -44.45 22.3 -42.4 22.75 -40.35 23.55 -38.95 M11.45 -46.85 L9.8 -47.45 11.65 -47.7 Q12.5 -47.6 13.5 -46.95 15.65 -45.6 16.7 -43.3 17.45 -41.5 16.6 -41.25 15.85 -41.0 15.2 -42.6 14.55 -44.2 13.2 -45.45 12.3 -46.35 11.45 -46.85 M-21.35 -69.55 Q-21.4 -69.7 -20.45 -70.3 L-10.9 -75.15 -13.4 -71.1 -16.05 -66.5 -16.15 -66.45 -17.3 -67.0 -19.95 -68.45 -21.35 -69.55 M-14.0 -59.05 Q-15.7 -60.75 -17.35 -60.95 -15.65 -61.95 -13.7 -60.7 -11.85 -59.4 -10.9 -57.1 -10.15 -55.3 -10.8 -54.95 -11.55 -54.65 -12.15 -56.2 -12.7 -57.65 -14.0 -59.05" fill="#ad414d" fill-rule="evenodd" stroke="none"/>
    <path d="M23.9 -37.4 L25.7 -37.65 24.0 -37.3 24.0 -37.25 Q25.05 -35.9 26.85 -35.6 29.6 -35.05 34.45 -36.5 L34.5 -35.8 34.65 -34.5 Q25.85 -30.7 22.85 -30.95 21.7 -31.15 20.0 -32.2 L18.2 -33.25 Q17.95 -33.45 17.8 -34.3 L17.65 -35.7 17.6 -36.1 17.6 -38.45 17.95 -39.15 Q18.55 -39.75 19.35 -39.15 22.25 -37.4 23.0 -37.4 L23.9 -37.4 M32.9 -40.2 L32.4 -40.1 Q32.2 -40.5 31.9 -42.6 31.5 -44.8 31.65 -45.15 31.85 -45.6 37.5 -48.35 L37.6 -48.35 Q43.2 -51.2 43.4 -51.1 L44.2 -49.55 45.15 -46.6 45.25 -46.4 45.1 -46.3 Q43.7 -44.9 39.4 -42.9 L38.4 -42.4 Q35.5 -40.95 33.4 -40.3 L32.9 -40.2 M52.45 -51.7 L52.55 -52.0 53.65 -51.35 53.7 -51.1 54.0 -49.35 Q54.3 -47.05 53.85 -46.1 53.65 -45.5 52.95 -44.75 L51.1 -44.9 52.95 -46.6 Q53.1 -49.15 52.75 -50.15 L52.6 -50.5 Q52.35 -51.1 51.85 -50.95 L52.45 -51.7 M-24.05 -64.2 L-24.05 -64.05 -24.1 -63.4 -23.15 -62.65 -21.2 -61.15 -21.0 -61.05 -22.1 -58.2 -22.6 -56.9 Q-23.55 -56.9 -25.65 -58.75 -26.05 -59.0 -25.95 -61.2 L-25.6 -63.75 -24.7 -64.6 -24.05 -64.95 -24.0 -65.0 -24.05 -64.2 M-9.9 -51.1 L-10.05 -51.25 Q-10.2 -52.2 -9.95 -53.45 L-9.9 -53.8 -9.6 -54.05 -9.1 -54.3 -7.1 -53.15 -5.8 -52.4 Q-5.8 -50.6 -5.25 -49.4 L-5.15 -52.05 -1.5 -50.2 Q2.5 -48.2 5.0 -47.15 L5.65 -46.9 Q4.4 -46.1 4.05 -44.1 2.55 -44.65 -3.05 -47.45 -8.35 -50.05 -9.9 -51.1 M38.55 -45.05 L38.5 -45.05 Q34.5 -43.1 33.85 -42.25 35.2 -42.1 38.45 -43.65 L39.1 -43.95 Q42.85 -45.85 43.15 -46.8 42.55 -46.95 38.55 -45.05 M38.65 -47.45 L38.15 -47.2 Q33.7 -45.15 33.05 -44.2 34.55 -44.1 38.6 -46.1 L38.65 -46.1 Q42.9 -48.2 43.1 -49.1 42.7 -49.3 38.65 -47.45 M39.4 -38.3 L41.45 -39.2 44.5 -40.7 Q44.25 -39.95 44.25 -39.2 L44.25 -39.1 41.45 -37.7 39.4 -38.3" fill="#232328" fill-rule="evenodd" stroke="none"/>
    <path d="M45.3 -49.25 L44.5 -51.2 Q44.3 -52.15 44.45 -52.65 L46.3 -55.15 Q47.85 -56.95 48.5 -57.0 49.1 -57.05 50.1 -55.3 L50.4 -54.6 50.7 -53.85 51.1 -52.5 51.15 -52.35 51.15 -52.2 50.9 -52.35 Q49.0 -53.55 47.45 -52.15 L46.15 -50.8 Q45.45 -50.1 45.3 -49.25 M46.85 -53.35 Q47.85 -53.25 48.6 -54.1 49.45 -54.95 48.95 -55.45 48.15 -56.15 47.3 -54.85 46.4 -53.5 46.85 -53.35 M23.55 -38.95 Q22.75 -40.35 22.3 -42.4 21.85 -44.45 22.3 -45.0 L25.25 -45.55 28.5 -45.45 Q29.0 -45.45 29.75 -44.1 L30.8 -41.65 Q28.85 -42.7 27.1 -42.4 25.8 -42.0 24.7 -41.15 23.55 -40.15 23.55 -38.95 M28.0 -44.05 Q28.8 -45.15 27.5 -45.25 26.0 -45.25 24.55 -44.55 23.75 -44.3 25.7 -43.75 27.5 -43.25 28.0 -44.05" fill="#aababd" fill-rule="evenodd" stroke="none"/>
    <path d="M50.4 -54.6 L50.35 -54.85 Q49.45 -57.65 48.65 -58.8 48.3 -59.45 43.4 -62.0 39.05 -64.45 37.85 -64.8 37.7 -63.15 32.05 -60.05 L27.65 -57.85 Q18.1 -53.3 12.85 -52.85 L12.5 -52.85 12.6 -52.8 12.85 -52.7 Q14.2 -52.15 16.15 -50.7 L20.65 -46.65 20.7 -46.55 Q21.55 -45.7 22.6 -41.1 23.3 -38.1 23.9 -37.4 L23.0 -37.4 Q22.25 -37.4 19.35 -39.15 18.55 -39.75 17.95 -39.15 L17.6 -38.45 17.6 -36.1 17.65 -35.7 17.65 -35.2 14.9 -36.45 Q15.15 -40.85 13.55 -43.4 12.5 -45.15 11.1 -45.5 L10.25 -45.6 10.2 -45.6 10.0 -45.6 Q8.0 -45.65 6.65 -43.95 L6.45 -43.7 Q5.85 -42.75 5.6 -41.8 L5.4 -40.95 5.35 -40.8 5.25 -40.75 4.45 -41.15 Q4.6 -43.5 5.8 -45.3 6.95 -47.05 8.65 -47.5 L5.0 -47.15 Q2.5 -48.2 -1.5 -50.2 L-5.15 -52.05 -5.05 -52.9 -4.15 -58.75 -2.6 -65.2 -2.35 -66.15 -2.15 -66.85 -2.05 -67.15 -1.9 -67.75 -1.75 -68.25 -1.2 -69.9 -1.1 -70.2 Q-1.35 -70.2 -1.4 -70.0 -2.25 -69.45 -3.25 -66.0 L-3.35 -65.75 -4.55 -61.35 -5.0 -59.15 Q-5.75 -55.45 -5.75 -53.0 L-5.8 -52.4 -7.1 -53.15 -9.1 -54.3 -9.6 -54.05 -9.9 -53.8 -9.95 -53.45 Q-10.2 -52.2 -10.05 -51.25 L-9.9 -51.1 -10.6 -50.95 Q-11.55 -50.7 -12.5 -50.95 L-12.5 -52.6 -12.65 -53.75 Q-13.15 -55.65 -14.05 -57.15 -15.45 -59.5 -17.2 -59.9 L-17.45 -59.95 -17.8 -60.0 -17.95 -60.0 Q-19.55 -60.1 -20.6 -59.05 L-20.65 -59.0 -21.0 -58.5 Q-21.65 -57.65 -21.9 -55.85 L-21.95 -55.85 -22.6 -56.9 -22.1 -58.2 -20.9 -59.7 Q-19.8 -61.0 -18.3 -61.25 L-21.2 -61.15 -23.15 -62.65 -24.1 -63.4 -24.05 -64.05 -24.05 -64.2 -23.85 -65.3 -23.5 -67.4 -23.0 -69.8 -23.0 -69.85 -20.8 -71.35 Q-17.6 -73.15 -9.8 -76.7 L-9.3 -77.25 Q-7.25 -79.1 1.4 -82.9 10.0 -86.7 12.75 -87.0 14.3 -87.1 20.3 -83.9 L23.95 -81.9 29.7 -78.6 Q31.5 -77.25 35.45 -71.15 L38.65 -65.85 Q49.2 -60.3 50.0 -59.25 51.2 -57.8 52.1 -53.4 L52.45 -51.7 51.85 -50.95 51.6 -50.9 50.35 -49.85 51.2 -51.0 51.15 -52.2 51.15 -52.35 51.1 -52.5 51.0 -53.0 50.7 -53.85 50.4 -54.6 M45.15 -46.6 L46.8 -47.65 46.85 -47.7 47.65 -47.95 47.85 -48.05 47.95 -48.1 48.0 -48.1 46.45 -47.1 45.1 -46.3 45.25 -46.4 45.15 -46.6 M24.5 -80.45 L20.75 -82.45 20.05 -82.8 Q14.4 -85.65 13.1 -85.65 10.45 -85.65 2.25 -81.95 -6.35 -78.15 -7.45 -76.0 -7.9 -75.0 -2.8 -72.85 2.95 -70.5 7.9 -70.65 11.75 -70.7 17.7 -72.95 L20.5 -74.1 Q24.3 -75.8 25.85 -76.75 27.45 -77.75 27.35 -78.35 27.2 -78.85 24.5 -80.45 M35.15 -69.05 Q31.85 -74.35 30.2 -75.7 L27.0 -73.6 20.9 -70.6 20.3 -70.3 16.65 -68.65 12.45 -66.9 12.4 -66.85 11.4 -66.5 9.8 -65.95 8.75 -65.65 11.5 -54.3 13.1 -54.45 13.7 -54.5 15.05 -54.75 16.75 -55.15 25.15 -58.0 27.05 -58.85 Q29.45 -59.95 31.6 -61.15 35.75 -63.7 36.8 -65.75 L35.15 -69.05 M2.9 -66.7 L2.5 -66.85 2.1 -67.0 -0.6 -68.15 -1.1 -66.45 -1.75 -64.0 -2.95 -58.85 Q4.4 -55.2 7.95 -54.7 L7.75 -56.15 6.9 -61.6 6.7 -62.5 5.85 -65.85 5.65 -65.9 5.55 -65.9 3.3 -66.55 2.9 -66.7 M11.45 -46.85 Q12.3 -46.35 13.2 -45.45 14.55 -44.2 15.2 -42.6 15.85 -41.0 16.6 -41.25 17.45 -41.5 16.7 -43.3 15.65 -45.6 13.5 -46.95 12.5 -47.6 11.65 -47.7 L9.8 -47.45 11.45 -46.85 M-17.3 -67.0 L-16.15 -66.45 -16.05 -66.5 -13.4 -71.1 -10.9 -75.15 -20.45 -70.3 Q-21.4 -69.7 -21.35 -69.55 L-21.35 -69.5 -19.9 -68.35 -17.3 -67.0 M-4.8 -65.8 L-4.45 -66.85 -4.1 -67.9 -3.5 -69.65 Q-7.9 -71.95 -8.85 -73.65 L-13.15 -68.1 -14.4 -66.2 -14.2 -65.95 -13.6 -65.35 -12.25 -64.25 -7.4 -61.2 -6.45 -60.65 -5.0 -65.35 -4.85 -65.75 -4.8 -65.8 M-14.0 -59.05 Q-12.7 -57.65 -12.15 -56.2 -11.55 -54.65 -10.8 -54.95 -10.15 -55.3 -10.9 -57.1 -11.85 -59.4 -13.7 -60.7 -15.65 -61.95 -17.35 -60.95 -15.7 -60.75 -14.0 -59.05" fill="#852d34" fill-rule="evenodd" stroke="none"/>
    <path d="M46.8 -47.65 L46.65 -47.7 Q46.1 -47.7 45.3 -49.25 45.45 -50.1 46.15 -50.8 L47.45 -52.15 Q49.0 -53.55 50.9 -52.35 L51.15 -52.2 51.2 -51.0 50.35 -49.85 50.25 -49.75 50.2 -49.7 49.0 -48.85 48.7 -48.6 48.4 -48.4 48.3 -48.3 47.95 -48.1 47.85 -48.05 47.65 -47.95 46.85 -47.7 46.8 -47.65 M30.8 -41.65 Q31.25 -40.5 30.95 -40.05 30.5 -39.45 28.1 -38.65 L24.6 -37.75 Q24.15 -37.65 23.55 -38.95 23.55 -40.15 24.7 -41.15 25.8 -42.0 27.1 -42.4 28.85 -42.7 30.8 -41.65" fill="#cfdce0" fill-rule="evenodd" stroke="none"/>
    <path d="M25.7 -37.65 Q28.4 -38.3 32.9 -40.2 L33.4 -40.3 Q35.5 -40.95 38.4 -42.4 L39.4 -42.9 Q43.7 -44.9 45.1 -46.3 L46.45 -47.1 48.0 -48.1 48.3 -48.3 48.4 -48.4 48.7 -48.6 49.0 -48.85 50.2 -49.7 50.25 -49.75 50.35 -49.85 51.6 -50.9 51.85 -50.95 Q52.35 -51.1 52.6 -50.5 L52.75 -50.15 Q53.1 -49.15 52.95 -46.6 L51.1 -44.9 49.75 -44.75 Q46.4 -44.3 44.95 -41.85 L44.5 -40.7 41.45 -39.2 39.4 -38.3 Q35.55 -39.2 34.05 -37.95 34.25 -38.1 34.35 -37.1 L34.45 -36.5 Q29.6 -35.05 26.85 -35.6 25.05 -35.9 24.0 -37.25 L24.0 -37.3 25.7 -37.65 M38.65 -47.45 Q42.7 -49.3 43.1 -49.1 42.9 -48.2 38.65 -46.1 L38.6 -46.1 Q34.55 -44.1 33.05 -44.2 33.7 -45.15 38.15 -47.2 L38.65 -47.45 M38.55 -45.05 Q42.55 -46.95 43.15 -46.8 42.85 -45.85 39.1 -43.95 L38.45 -43.65 Q35.2 -42.1 33.85 -42.25 34.5 -43.1 38.5 -45.05 L38.55 -45.05" fill="#595863" fill-rule="evenodd" stroke="none"/>
    <path d="M51.1 -52.5 L50.7 -53.85 51.0 -53.0 51.1 -52.5 M48.3 -48.3 L48.0 -48.1 47.95 -48.1 48.3 -48.3 M53.7 -51.1 L53.65 -51.35 52.55 -52.0 52.45 -51.7 52.1 -53.4 Q51.2 -57.8 50.0 -59.25 49.2 -60.3 38.65 -65.85 L35.45 -71.15 Q31.5 -77.25 29.7 -78.6 L23.95 -81.9 20.3 -83.9 20.75 -85.8 64.75 -61.85 55.8 -53.1 53.7 -51.1 M-20.8 -71.35 L-23.0 -69.85 -23.0 -69.8 -23.5 -67.4 -23.85 -65.3 -24.05 -64.2 -24.0 -65.0 -24.05 -64.95 -24.7 -64.6 -25.6 -63.75 -25.95 -61.2 Q-26.05 -59.0 -25.65 -58.75 -23.55 -56.9 -22.6 -56.9 L-21.95 -55.85 -21.9 -55.85 -21.5 -55.95 -21.5 -54.65 Q-21.25 -52.45 -20.4 -50.7 -19.1 -48.35 -16.8 -47.3 -16.0 -46.95 -15.4 -46.95 L-13.8 -47.25 -10.95 -37.15 -22.65 -31.35 Q-23.45 -30.9 -23.75 -30.05 -24.05 -29.25 -23.65 -28.35 L-23.5 -28.1 -18.7 -18.55 -18.9 -18.5 -19.7 -18.4 -31.05 -29.8 -22.95 -36.8 Q-21.2 -38.4 -20.85 -40.55 -20.55 -42.75 -21.65 -44.65 -21.2 -46.65 -21.8 -48.3 L-23.0 -50.15 -23.0 -50.2 -42.2 -72.6 -23.25 -79.8 -20.8 -71.35 M17.65 -35.2 L17.65 -35.7 17.8 -34.3 17.65 -35.2 M34.65 -34.5 L34.75 -32.7 -0.15 1.15 1.6 -6.15 11.2 -10.95 Q12.15 -11.4 12.35 -12.25 12.65 -13.1 12.25 -13.95 L12.1 -14.2 11.9 -15.15 6.45 -26.15 8.3 -33.8 10.3 -32.45 Q11.1 -32.1 11.7 -32.1 12.95 -32.1 15.45 -33.2 L17.8 -34.3 Q17.95 -33.45 18.2 -33.25 L20.0 -32.2 Q21.7 -31.15 22.85 -30.95 25.85 -30.7 34.65 -34.5 M77.45 -19.9 L75.3 -14.3 76.35 -17.3 77.45 -19.9 M74.9 -13.35 L74.75 -12.75 74.35 -11.4 Q74.55 -12.45 74.9 -13.35 M64.05 6.1 L68.5 6.4 66.95 10.05 Q65.0 16.0 67.65 18.95 70.05 21.4 73.4 22.85 75.55 23.75 77.0 24.05 84.2 26.0 86.35 21.65 88.9 23.6 91.6 22.9 L92.75 34.15 75.15 27.9 65.95 24.65 Q66.5 19.05 64.7 9.45 L64.05 6.1 M75.9 -5.05 L76.0 -6.3 Q76.25 -9.55 76.8 -12.0 77.45 -14.9 78.35 -17.0 L80.75 -23.0 81.15 -24.1 86.75 -25.85 89.2 -1.35 86.25 -3.05 Q81.5 -5.25 77.15 -5.2 L75.9 -5.05 M19.6 -3.4 L19.4 -3.2 Q13.15 -0.95 10.8 5.05 L-0.15 1.15 19.85 -5.05 19.6 -3.4 M86.75 -1.6 L83.7 -3.1 81.6 -3.85 84.65 -2.7 86.75 -1.6 M67.05 15.05 Q67.0 13.5 67.75 10.65 L68.45 8.35 67.35 12.65 Q67.05 14.1 67.05 15.05 M91.2 18.7 Q89.5 19.8 87.7 18.7 L90.55 11.95 91.2 18.7 M44.45 56.6 L57.75 73.1 18.15 87.95 17.75 87.95 15.1 75.1 10.0 50.45 Q12.4 47.35 13.45 43.2 14.85 37.55 13.45 31.2 11.9 23.95 7.9 18.55 5.35 15.1 2.3 13.0 L-0.15 1.15 9.4 13.05 9.5 15.3 Q10.05 21.95 13.65 28.45 16.8 34.15 21.6 37.45 26.25 40.7 31.45 40.95 L31.9 41.0 44.45 56.6 M-25.4 72.35 L-30.95 87.95 -32.7 87.95 -66.15 60.1 -64.1 58.3 -62.7 58.15 -62.25 58.1 -61.7 58.0 -57.65 56.9 Q-52.4 55.1 -48.95 50.85 -45.7 46.7 -45.9 42.0 L-43.25 39.65 Q-41.35 43.95 -37.4 50.6 -28.95 64.8 -23.1 65.95 L-25.4 72.35 M-84.85 24.3 L-86.3 14.25 -85.9 15.6 Q-84.7 19.1 -81.65 20.8 -80.15 21.7 -77.8 22.2 L-77.9 22.45 Q-78.35 24.2 -78.45 25.9 L-78.8 26.0 Q-81.55 23.45 -84.85 24.3 M-86.6 12.1 L-86.9 9.95 -86.55 9.6 -86.6 12.1 M-88.15 1.1 L-91.15 -19.85 -90.45 -19.65 -83.95 -12.2 -83.25 -11.5 Q-82.4 -10.85 -81.1 -10.7 -79.45 -10.65 -78.1 -11.75 L-73.45 -15.75 -40.85 -8.25 -38.95 13.4 -47.85 16.25 Q-50.1 15.6 -52.4 15.6 -58.55 15.75 -60.0 20.1 L-60.4 20.2 Q-61.6 18.95 -63.05 17.85 -61.7 16.7 -60.6 15.15 -58.6 12.35 -58.85 9.05 L-59.0 8.35 Q-59.6 4.85 -62.4 2.0 L-61.7 2.1 -58.05 2.75 -58.15 2.55 -57.95 2.6 Q-61.85 -4.2 -68.0 -8.05 -73.75 -11.55 -78.05 -10.45 -82.8 -9.1 -86.65 -2.1 L-88.15 1.1 M-63.95 -62.75 L-65.15 -63.95 -60.5 -65.7 -63.95 -62.75 M-84.0 -17.6 L-84.6 -18.3 -84.55 -18.3 -84.0 -17.6 M-19.9 -68.35 L-21.35 -69.5 -21.35 -69.55 -19.95 -68.45 -19.9 -68.35 M-3.65 -11.25 L-3.35 -8.2 -3.4 -8.2 -3.7 -11.4 -3.65 -11.25 M-1.2 0.9 L-0.15 1.15 -1.15 1.5 -1.2 0.9 M-1.1 2.05 L-0.15 1.15 -1.3 0.0 -1.65 -4.3 -0.15 1.15 -1.0 3.5 -1.1 2.05" fill="#8ad0e3" fill-rule="evenodd" stroke="none"/>
    <path d="M53.7 -51.1 L55.8 -53.1 61.35 -44.6 Q58.9 -44.55 56.25 -43.65 L54.15 -44.55 52.95 -44.75 Q53.65 -45.5 53.85 -46.1 54.3 -47.05 54.0 -49.35 L53.7 -51.1 M-2.35 -66.15 L-2.6 -65.2 -4.15 -58.75 -3.8 -60.45 -2.4 -66.15 -2.35 -66.15 M4.45 -41.15 L5.25 -40.75 5.35 -40.8 5.6 -40.85 Q5.6 -38.1 6.7 -35.8 7.35 -34.65 8.3 -33.8 L6.45 -26.15 -0.2 -39.45 -0.5 -39.9 Q-0.9 -40.7 -1.75 -41.0 L-3.5 -40.85 -10.95 -37.15 -13.8 -47.25 -11.75 -48.1 -9.6 -49.05 Q2.6 -41.35 4.45 -41.15 M2.45 -66.85 L2.5 -66.85 2.9 -66.7 2.45 -66.85 M34.75 -32.7 L34.65 -27.45 34.35 -23.6 33.3 -14.8 Q30.65 -14.8 28.2 -14.05 25.1 -13.1 22.95 -11.05 20.6 -8.9 19.85 -5.05 L-0.15 1.15 10.8 5.05 10.65 5.4 Q9.4 8.85 9.4 13.05 L-0.15 1.15 2.3 13.0 0.5 11.9 -0.25 11.5 -1.0 3.5 -0.15 1.15 -1.65 -4.3 -1.7 -4.5 1.6 -6.15 -0.15 1.15 34.75 -32.7 M35.85 -19.8 L36.7 -30.25 36.5 -25.9 35.85 -19.8 M69.15 -32.7 L67.85 -26.5 68.15 -28.3 69.1 -32.75 69.15 -32.7 M57.75 -30.65 L63.35 -29.8 58.35 -30.45 57.75 -30.65 M-2.95 -14.25 L-2.85 -13.55 -2.2 -6.35 -2.25 -6.3 -2.95 -14.25 M64.15 -38.2 Q65.05 -37.0 64.5 -34.2 63.0 -37.2 61.5 -39.05 63.3 -39.25 64.15 -38.2 M58.3 -37.25 L60.15 -34.55 53.9 -35.1 Q55.75 -36.75 57.85 -37.8 L58.3 -37.25 M41.45 -37.7 L44.25 -39.1 44.3 -37.9 44.55 -36.65 43.75 -36.85 41.45 -37.7 M50.4 -41.15 L51.45 -41.25 Q49.4 -39.9 47.95 -37.85 L47.9 -38.2 Q47.75 -39.5 48.1 -40.0 48.55 -40.75 50.4 -41.15 M75.15 27.9 L44.45 56.6 31.9 41.0 Q38.05 41.2 43.85 38.05 50.15 34.6 53.4 28.5 L58.0 29.45 63.9 30.55 Q65.5 28.65 65.95 24.65 L75.15 27.9 M15.1 75.1 L16.15 81.0 -25.4 72.35 -23.1 65.95 -22.95 65.95 -19.15 61.25 -16.35 57.45 Q-9.9 59.9 -2.9 58.35 3.75 56.85 8.3 52.35 L10.0 50.45 15.1 75.1 M-36.8 30.65 L-39.9 31.5 Q-43.3 32.35 -45.05 33.3 -45.15 35.3 -43.25 39.65 L-45.9 42.0 -46.1 40.2 Q-47.25 33.95 -50.35 28.75 L-53.45 28.5 -53.35 28.45 -56.05 28.1 -55.35 28.15 -55.7 27.35 -56.65 25.4 -52.95 22.95 Q-51.4 22.1 -46.05 21.25 -43.3 20.8 -44.25 18.35 -44.65 17.35 -47.1 16.45 L-47.85 16.25 -38.95 13.4 -37.7 27.65 -37.2 29.1 -37.2 29.4 -36.8 30.65 M-31.05 -29.8 L-19.7 -18.4 -38.3 -16.8 Q-39.55 -16.65 -40.5 -15.65 -41.35 -14.65 -41.3 -13.2 L-40.85 -8.25 -73.45 -15.75 -63.05 -24.8 Q-62.25 -25.5 -61.75 -26.45 L-54.55 -18.0 Q-53.6 -16.85 -52.5 -16.4 -51.45 -15.85 -50.25 -15.8 -47.65 -15.6 -45.7 -17.25 L-31.05 -29.8 M-4.8 -65.8 L-4.85 -65.75 -5.0 -65.35 -4.85 -65.8 -4.8 -65.8 M-60.4 20.2 L-60.0 20.1 -60.15 20.5 -60.4 20.2 M-3.8 -12.85 L-3.65 -11.25 -3.7 -11.4 -3.8 -12.85 M-15.95 -14.5 L-16.9 -14.45 -15.95 -14.55 -15.95 -14.5 M-1.15 1.5 L-0.15 1.15 -1.2 0.9 -1.3 0.0 -0.15 1.15 -1.1 2.05 -1.15 1.5" fill="#39b8db" fill-rule="evenodd" stroke="none"/>
    <path d="M35.15 -69.05 L36.8 -65.75 Q35.75 -63.7 31.6 -61.15 29.45 -59.95 27.05 -58.85 L25.15 -58.0 16.75 -55.15 15.05 -54.75 13.7 -54.5 13.1 -54.45 Q12.5 -57.75 14.85 -61.15 16.85 -64.15 21.1 -67.25 24.05 -69.5 27.95 -70.1 L28.3 -70.1 Q32.05 -70.55 35.15 -69.05 M2.45 -66.85 L2.9 -66.7 3.3 -66.55 5.55 -65.9 5.65 -65.9 5.85 -65.85 6.7 -62.5 6.9 -61.6 7.75 -56.15 Q4.45 -62.9 -0.8 -66.3 L-1.05 -66.4 -1.1 -66.45 -0.6 -68.15 2.1 -67.0 2.45 -66.85 M-13.15 -68.1 L-8.85 -73.65 Q-7.9 -71.95 -3.5 -69.65 L-4.1 -67.9 Q-8.5 -69.55 -13.15 -68.1" fill="#a0d8ef" fill-rule="evenodd" stroke="none"/>
    <path d="M7.75 -56.15 L7.95 -54.7 Q4.4 -55.2 -2.95 -58.85 L-1.75 -64.0 -1.1 -66.45 -1.05 -66.4 -0.8 -66.3 Q4.45 -62.9 7.75 -56.15 M-5.0 -65.35 L-6.45 -60.65 -7.4 -61.2 -12.25 -64.25 -13.6 -65.35 -14.2 -65.95 -14.4 -66.2 -13.15 -68.1 Q-8.5 -69.55 -4.1 -67.9 L-4.45 -66.85 -4.85 -65.8 -5.0 -65.35" fill="#6dbbda" fill-rule="evenodd" stroke="none"/>
    <path d="M51.1 -44.9 L52.95 -44.75 54.15 -44.55 56.25 -43.65 Q58.9 -44.55 61.35 -44.6 L63.4 -44.55 Q67.3 -44.2 69.35 -41.75 70.45 -40.45 70.65 -38.0 L70.7 -34.4 70.5 -33.2 Q80.05 -31.7 81.8 -29.05 82.45 -28.1 81.15 -24.1 L80.75 -23.0 78.35 -17.0 Q77.45 -14.9 76.8 -12.0 76.25 -9.55 76.0 -6.3 L75.9 -5.05 75.85 -4.25 75.75 -3.25 75.55 -0.15 75.15 4.4 Q75.25 6.3 69.05 6.35 L68.5 6.4 64.05 6.1 63.65 4.35 64.85 4.45 64.9 4.4 69.3 4.6 69.7 4.6 70.5 4.55 73.2 4.2 73.5 -4.6 73.55 -4.85 73.6 -6.0 Q73.7 -8.3 74.1 -10.25 L74.35 -11.4 74.75 -12.75 74.9 -13.35 75.3 -14.3 77.45 -19.9 78.45 -22.55 79.55 -26.75 79.75 -28.0 76.95 -28.5 71.6 -28.9 69.55 -29.1 69.25 -28.25 Q68.65 -24.1 68.8 -22.7 L62.5 -23.45 63.35 -29.8 57.75 -30.65 51.0 -31.9 Q50.2 -30.9 49.9 -27.8 49.75 -25.4 48.25 -24.45 L44.4 -25.6 43.65 -26.55 43.5 -26.65 43.65 -26.65 Q43.45 -27.1 43.6 -27.95 L43.65 -28.05 44.45 -30.1 44.6 -30.4 44.55 -30.1 44.55 -28.55 Q44.5 -27.05 44.15 -26.65 L47.8 -26.05 Q47.8 -27.85 48.45 -30.05 L49.3 -32.3 51.35 -35.4 Q52.95 -37.3 55.5 -38.95 L56.2 -39.4 Q58.0 -40.45 60.05 -40.75 L64.0 -40.55 65.45 -39.65 Q66.9 -38.35 66.9 -36.1 L66.7 -34.2 66.55 -33.75 65.1 -29.6 64.7 -28.55 64.65 -28.4 Q64.5 -27.7 64.5 -24.95 L67.8 -24.8 67.85 -26.5 69.15 -32.7 69.45 -34.35 Q69.95 -37.35 69.45 -39.05 68.65 -41.7 65.25 -42.85 L64.85 -42.95 64.35 -43.1 63.95 -43.2 63.55 -43.25 62.1 -43.45 57.5 -42.95 Q55.5 -42.3 53.5 -40.95 50.85 -39.05 48.2 -35.85 L46.25 -33.1 Q45.2 -31.7 44.6 -30.4 44.9 -31.65 45.55 -33.3 41.15 -34.65 38.1 -35.95 L38.05 -36.0 37.15 -36.4 36.35 -36.8 36.5 -35.35 36.55 -34.45 36.7 -30.25 35.85 -19.8 35.2 -15.75 35.05 -14.75 35.05 -14.65 34.85 -14.7 33.3 -14.8 34.35 -23.6 34.65 -27.45 34.75 -32.7 34.65 -34.5 34.5 -35.8 34.45 -36.5 34.35 -37.1 Q34.25 -38.1 34.05 -37.95 35.55 -39.2 39.4 -38.3 L41.45 -37.7 43.75 -36.85 44.55 -36.65 44.3 -37.9 44.25 -39.1 44.25 -39.2 Q44.25 -39.95 44.5 -40.7 L44.95 -41.85 Q46.4 -44.3 49.75 -44.75 L51.1 -44.9 M64.15 -38.2 Q63.3 -39.25 61.5 -39.05 63.0 -37.2 64.5 -34.2 65.05 -37.0 64.15 -38.2 M58.3 -37.25 L57.85 -37.8 Q55.75 -36.75 53.9 -35.1 L60.15 -34.55 58.3 -37.25 M50.4 -41.15 Q48.55 -40.75 48.1 -40.0 47.75 -39.5 47.9 -38.2 L47.95 -37.85 Q49.4 -39.9 51.45 -41.25 L50.4 -41.15" fill="#927c28" fill-rule="evenodd" stroke="none"/>
    <path d="M35.05 -14.65 L35.05 -14.75 35.1 -14.65 35.05 -14.65 M36.7 -30.25 L36.55 -34.45 36.5 -35.35 36.35 -36.8 37.15 -36.4 38.05 -36.0 38.1 -35.95 Q41.15 -34.65 45.55 -33.3 44.9 -31.65 44.6 -30.4 45.2 -31.7 46.25 -33.1 L48.2 -35.85 Q50.85 -39.05 53.5 -40.95 55.5 -42.3 57.5 -42.95 L62.1 -43.45 63.55 -43.25 63.95 -43.2 64.35 -43.1 64.85 -42.95 65.25 -42.85 Q68.65 -41.7 69.45 -39.05 69.95 -37.35 69.45 -34.35 L69.1 -32.75 68.15 -28.3 64.7 -28.55 65.1 -29.6 66.55 -33.75 66.7 -34.2 66.9 -36.1 Q66.9 -38.35 65.45 -39.65 L64.0 -40.55 60.05 -40.75 Q58.0 -40.45 56.2 -39.4 L55.5 -38.95 Q52.95 -37.3 51.35 -35.4 L49.3 -32.3 48.45 -30.05 Q47.0 -29.9 44.55 -30.1 L44.6 -30.4 44.45 -30.1 43.65 -28.05 43.6 -27.95 Q43.45 -27.1 43.65 -26.65 L43.5 -26.65 43.65 -26.55 44.4 -25.6 48.25 -24.45 Q49.75 -25.4 49.9 -27.8 50.2 -30.9 51.0 -31.9 L57.75 -30.65 58.35 -30.45 63.35 -29.8 62.5 -23.45 68.8 -22.7 Q68.65 -24.1 69.25 -28.25 L69.55 -29.1 71.6 -28.9 76.95 -28.5 79.75 -28.0 79.55 -26.75 78.45 -22.55 77.45 -19.9 76.35 -17.3 Q64.9 -16.7 58.1 -16.95 L58.05 -16.95 55.15 -17.1 54.85 -17.1 Q50.7 -17.5 47.35 -18.65 40.8 -20.9 36.5 -25.9 L36.7 -30.25 M73.6 -6.0 L73.55 -4.85 73.5 -4.6 73.2 4.2 70.5 4.55 69.7 4.6 69.3 4.6 64.9 4.4 64.85 4.45 63.65 4.35 Q62.15 -2.6 60.65 -5.95 L62.9 -6.05 Q70.15 -6.3 73.6 -6.0 M47.0 -6.55 L52.15 -5.85 52.6 -5.85 Q50.15 -4.7 48.45 -4.2 L47.0 -6.55" fill="#f5d73f" fill-rule="evenodd" stroke="none"/>
    <path d="M-17.95 -60.0 L-17.8 -60.0 -17.45 -59.95 -17.2 -59.9 Q-15.45 -59.5 -14.05 -57.15 -13.15 -55.65 -12.65 -53.75 L-12.5 -52.6 Q-12.6 -50.0 -14.05 -48.8 L-14.2 -48.65 Q-15.6 -47.7 -17.25 -48.4 -19.3 -49.4 -20.35 -51.45 -21.15 -53.0 -21.3 -54.65 L-21.35 -56.0 -21.3 -56.05 -21.2 -56.25 Q-20.2 -60.0 -17.95 -60.0 M10.0 -45.6 L10.2 -45.6 10.25 -45.6 11.05 -45.2 Q12.9 -44.1 13.75 -42.4 14.65 -40.65 14.65 -37.9 14.65 -35.2 13.05 -33.9 11.65 -32.8 9.85 -33.55 9.1 -33.9 8.45 -34.45 7.45 -35.3 6.75 -36.55 5.75 -38.35 5.75 -40.85 L6.25 -41.15 Q6.55 -43.2 7.65 -44.4 8.7 -45.55 10.0 -45.6 M12.1 -38.7 Q12.1 -41.2 10.3 -42.2 L9.95 -42.4 Q9.1 -42.85 8.45 -42.1 7.85 -41.25 7.85 -40.25 7.8 -38.0 9.05 -37.0 L9.8 -36.6 Q10.6 -36.15 11.35 -36.75 12.1 -37.35 12.1 -38.7 M-16.35 -56.8 L-16.6 -56.95 -17.15 -57.25 Q-18.0 -57.7 -18.65 -56.95 -19.25 -56.1 -19.3 -55.1 L-19.2 -54.45 Q-19.2 -53.7 -18.8 -52.9 -18.3 -51.9 -17.3 -51.45 -16.45 -51.05 -15.75 -51.6 -15.4 -51.85 -15.25 -52.25 L-15.2 -52.35 -15.0 -53.55 -15.0 -54.0 Q-15.1 -55.9 -16.35 -56.8" fill="#383e3e" fill-rule="evenodd" stroke="none"/>
    <path d="M-12.5 -52.6 L-12.5 -50.95 -9.6 -49.05 -11.75 -48.1 -13.8 -47.25 -15.4 -46.95 Q-16.0 -46.95 -16.8 -47.3 -19.1 -48.35 -20.4 -50.7 -21.25 -52.45 -21.5 -54.65 L-21.5 -55.95 -21.3 -56.05 -21.35 -56.0 -21.3 -54.65 Q-21.15 -53.0 -20.35 -51.45 -19.3 -49.4 -17.25 -48.4 -15.6 -47.7 -14.2 -48.65 L-14.05 -48.8 Q-12.6 -50.0 -12.5 -52.6 M10.25 -45.6 L11.1 -45.5 Q12.5 -45.15 13.55 -43.4 15.15 -40.85 14.9 -36.45 L17.65 -35.2 17.8 -34.3 15.45 -33.2 Q12.95 -32.1 11.7 -32.1 11.1 -32.1 10.3 -32.45 L8.3 -33.8 Q7.35 -34.65 6.7 -35.8 5.6 -38.1 5.6 -40.85 L5.75 -40.85 Q5.75 -38.35 6.75 -36.55 7.45 -35.3 8.45 -34.45 9.1 -33.9 9.85 -33.55 11.65 -32.8 13.05 -33.9 14.65 -35.2 14.65 -37.9 14.65 -40.65 13.75 -42.4 12.9 -44.1 11.05 -45.2 L10.25 -45.6" fill="#191c1d" fill-rule="evenodd" stroke="none"/>
    <path d="M11.3 -39.05 Q11.2 -40.45 10.25 -40.85 L10.0 -40.9 9.5 -40.65 Q9.3 -40.45 9.2 -39.75 9.15 -39.05 9.45 -38.6 L10.15 -38.0 10.95 -38.1 Q11.3 -38.4 11.3 -39.05 M12.1 -38.7 Q12.1 -37.35 11.35 -36.75 10.6 -36.15 9.8 -36.6 L9.05 -37.0 Q7.8 -38.0 7.85 -40.25 7.85 -41.25 8.45 -42.1 9.1 -42.85 9.95 -42.4 L10.3 -42.2 Q12.1 -41.2 12.1 -38.7 M-16.35 -56.8 Q-15.1 -55.9 -15.0 -54.0 L-15.0 -53.55 -15.2 -52.35 -15.25 -52.25 Q-15.4 -51.85 -15.75 -51.6 -16.45 -51.05 -17.3 -51.45 -18.3 -51.9 -18.8 -52.9 -19.2 -53.7 -19.2 -54.45 L-19.3 -55.1 Q-19.25 -56.1 -18.65 -56.95 -18.0 -57.7 -17.15 -57.25 L-16.6 -56.95 -16.35 -56.8 M-15.85 -54.35 L-15.9 -54.6 Q-16.2 -55.35 -16.9 -55.7 -17.25 -55.9 -17.6 -55.55 L-17.9 -54.65 -17.85 -54.3 Q-17.85 -53.2 -16.95 -52.85 L-16.2 -52.95 Q-15.8 -53.25 -15.8 -53.9 L-15.8 -54.1 -15.85 -54.35" fill="#8f9a91" fill-rule="evenodd" stroke="none"/>
    <path d="M11.3 -39.05 Q11.3 -38.4 10.95 -38.1 L10.15 -38.0 9.45 -38.6 Q9.15 -39.05 9.2 -39.75 9.3 -40.45 9.5 -40.65 L10.0 -40.9 10.25 -40.85 Q11.2 -40.45 11.3 -39.05 M-15.85 -54.35 L-15.8 -54.1 -15.8 -53.9 Q-15.8 -53.25 -16.2 -52.95 L-16.95 -52.85 Q-17.85 -53.2 -17.85 -54.3 L-17.9 -54.65 -17.6 -55.55 Q-17.25 -55.9 -16.9 -55.7 -16.2 -55.35 -15.9 -54.6 L-15.85 -54.35" fill="#555b56" fill-rule="evenodd" stroke="none"/>
    <path d="M-21.2 -61.15 L-18.3 -61.25 Q-19.8 -61.0 -20.9 -59.7 L-22.1 -58.2 -21.0 -61.05 -21.2 -61.15 M-21.9 -55.85 Q-21.65 -57.65 -21.0 -58.5 L-20.65 -59.0 -20.6 -59.05 Q-19.55 -60.1 -17.95 -60.0 -20.2 -60.0 -21.2 -56.25 L-21.3 -56.05 -21.5 -55.95 -21.9 -55.85 M-12.5 -50.95 Q-11.55 -50.7 -10.6 -50.95 L-9.9 -51.1 Q-8.35 -50.05 -3.05 -47.45 2.55 -44.65 4.05 -44.1 4.4 -46.1 5.65 -46.9 L5.0 -47.15 8.65 -47.5 Q6.95 -47.05 5.8 -45.3 4.6 -43.5 4.45 -41.15 2.6 -41.35 -9.6 -49.05 L-12.5 -50.95 M-5.8 -52.4 L-5.75 -53.0 Q-5.75 -55.45 -5.0 -59.15 L-4.55 -61.35 -3.35 -65.75 -3.25 -66.0 Q-2.25 -69.45 -1.4 -70.0 -1.35 -70.2 -1.1 -70.2 L-1.2 -69.9 -1.75 -68.25 -1.9 -67.75 -2.05 -67.15 -2.15 -66.85 -2.4 -66.15 -3.8 -60.45 -4.15 -58.75 -5.05 -52.9 -5.15 -52.05 -5.25 -49.4 Q-5.8 -50.6 -5.8 -52.4 M5.35 -40.8 L5.4 -40.95 5.6 -41.8 Q5.85 -42.75 6.45 -43.7 L6.65 -43.95 Q8.0 -45.65 10.0 -45.6 8.7 -45.55 7.65 -44.4 6.55 -43.2 6.25 -41.15 L5.75 -40.85 5.6 -40.85 5.35 -40.8" fill="#580d16" fill-rule="evenodd" stroke="none"/>
    <path d="M-15.6 -18.8 L-18.0 -18.6 -23.05 -28.65 Q-23.35 -29.2 -23.1 -29.85 -22.95 -30.45 -22.35 -30.75 L-3.2 -40.3 -2.0 -40.35 -1.1 -39.6 11.25 -14.8 Q11.55 -14.15 11.35 -13.65 11.1 -12.95 10.55 -12.75 L-1.85 -6.5 -2.05 -8.8 9.05 -14.45 -2.75 -38.05 -20.8 -29.05 -15.6 -18.8 M-1.65 10.95 Q-3.3 10.35 -5.0 10.2 L-7.25 -15.3 -15.8 -14.5 -15.95 -14.5 -15.95 -14.55 -16.9 -14.45 -36.95 -12.65 -34.15 19.3 -34.3 19.9 Q-35.3 24.65 -34.25 29.6 L-34.35 29.65 Q-35.2 29.7 -35.85 29.1 -36.6 28.55 -36.7 27.55 L-40.3 -13.3 Q-40.4 -14.25 -39.8 -15.0 -39.2 -15.7 -38.25 -15.8 L-6.65 -18.6 -6.45 -18.6 -5.7 -18.5 -4.9 -18.05 Q-4.25 -17.45 -4.15 -16.5 L-3.8 -12.85 -3.7 -11.4 -3.4 -8.2 -3.35 -8.2 -3.15 -5.9 -3.2 -5.85 -3.15 -5.7 -1.65 10.95 M-86.0 -40.6 Q-87.05 -39.7 -87.05 -38.6 L-83.15 -32.45 -88.2 -26.95 -88.35 -25.65 -87.65 -24.65 -86.3 -24.8 -86.25 -24.85 -80.9 -29.2 -79.05 -26.95 -75.85 -23.55 -75.25 -23.6 -75.2 -23.6 -75.05 -23.65 -74.25 -24.0 -73.85 -24.2 -73.6 -24.35 Q-72.85 -25.0 -72.25 -26.25 L-72.7 -26.9 -76.9 -32.7 -71.85 -37.6 -72.45 -39.0 -73.1 -40.3 Q-74.0 -41.3 -76.0 -39.45 L-79.5 -36.2 -84.0 -42.05 -85.0 -41.3 -86.0 -40.6 M-85.1 -18.95 L-96.05 -31.55 Q-96.7 -32.25 -96.6 -33.2 -96.6 -34.1 -95.8 -34.8 L-80.75 -47.8 Q-80.15 -48.35 -79.1 -48.35 L-78.95 -48.35 Q-78.15 -48.3 -77.5 -47.55 L-64.5 -32.5 Q-63.9 -31.85 -63.9 -30.85 L-64.25 -29.8 -64.45 -29.6 -64.55 -29.45 -64.7 -29.3 -79.8 -16.25 Q-80.6 -15.65 -81.45 -15.7 -82.4 -15.8 -83.0 -16.5 L-84.0 -17.6 -84.55 -18.3 -85.1 -18.95 M-62.05 -51.15 Q-62.1 -50.7 -61.4 -49.75 L-59.9 -48.45 Q-58.65 -47.4 -58.35 -47.9 L-57.15 -51.05 -56.95 -51.45 -56.9 -51.55 -56.8 -51.75 -56.75 -51.85 -56.7 -52.05 -55.3 -54.1 -54.75 -54.65 -54.0 -55.15 -52.9 -55.05 -51.85 -54.05 -51.7 -53.8 -50.85 -50.4 -50.85 -49.2 -50.85 -49.05 Q-50.9 -46.05 -52.2 -44.0 -52.1 -43.1 -51.4 -42.25 -49.85 -40.5 -48.6 -40.55 L-46.1 -44.0 -45.6 -44.35 Q-44.8 -44.95 -43.65 -45.05 L-42.95 -45.0 Q-42.25 -44.6 -41.95 -43.45 -41.65 -42.25 -42.0 -40.75 -42.4 -39.35 -43.4 -37.65 -44.4 -36.05 -45.3 -35.25 -47.1 -33.85 -46.35 -32.95 -45.8 -32.35 -44.4 -32.25 -42.95 -32.1 -42.35 -32.7 L-38.85 -37.15 -38.75 -37.3 -38.7 -37.45 -37.75 -39.6 -37.5 -40.35 -37.25 -41.25 -36.85 -44.6 Q-36.85 -47.6 -38.45 -49.45 L-40.15 -50.8 -43.4 -50.6 -46.3 -48.8 Q-46.0 -52.4 -46.45 -55.15 -47.0 -58.4 -48.6 -60.2 -50.3 -62.2 -52.3 -61.9 -55.0 -61.5 -57.15 -59.75 L-58.35 -58.45 -58.9 -57.7 Q-60.7 -55.3 -62.05 -51.15 M-72.15 -52.0 L-49.45 -71.45 Q-48.45 -72.4 -47.0 -72.3 -45.95 -72.25 -45.1 -71.55 L-44.65 -71.1 -25.15 -48.4 Q-24.25 -47.25 -24.3 -45.9 -24.45 -44.55 -25.5 -43.55 L-48.25 -24.1 Q-49.25 -23.15 -50.75 -23.25 -52.15 -23.4 -53.05 -24.45 L-72.5 -47.2 Q-73.45 -48.2 -73.35 -49.65 -73.2 -51.1 -72.15 -52.0" fill="#ffffff" fill-rule="evenodd" stroke="none"/>
    <path d="M6.45 -26.15 L11.9 -15.15 12.1 -14.2 Q12.15 -12.8 10.9 -12.15 L-1.8 -5.8 -1.85 -6.5 10.55 -12.75 Q11.1 -12.95 11.35 -13.65 11.55 -14.15 11.25 -14.8 L-1.1 -39.6 -2.0 -40.35 -3.2 -40.3 -22.35 -30.75 Q-22.95 -30.45 -23.1 -29.85 -23.35 -29.2 -23.05 -28.65 L-18.0 -18.6 -15.6 -18.8 -11.15 -19.15 -6.7 -19.55 -6.0 -19.55 Q-5.05 -19.5 -4.3 -18.85 -3.3 -18.0 -3.15 -16.6 L-2.95 -14.25 -2.25 -6.3 -2.2 -6.35 -2.15 -5.65 -2.2 -5.65 -0.7 11.3 -1.65 10.95 -3.15 -5.7 -3.2 -5.85 -3.15 -5.9 -3.35 -8.2 -3.65 -11.25 -3.8 -12.85 -4.15 -16.5 Q-4.25 -17.45 -4.9 -18.05 L-5.7 -18.5 -6.45 -18.6 -6.65 -18.6 -38.25 -15.8 Q-39.2 -15.7 -39.8 -15.0 -40.4 -14.25 -40.3 -13.3 L-36.7 27.55 Q-36.6 28.55 -35.85 29.1 -35.2 29.7 -34.35 29.65 L-35.95 30.35 -37.2 29.1 -37.7 27.65 -38.95 13.4 -40.85 -8.25 -41.3 -13.2 Q-41.35 -14.65 -40.5 -15.65 -39.55 -16.65 -38.3 -16.8 L-19.7 -18.4 -18.9 -18.5 -18.7 -18.55 -23.5 -28.1 -23.65 -28.35 Q-24.05 -29.25 -23.75 -30.05 -23.45 -30.9 -22.65 -31.35 L-10.95 -37.15 -3.5 -40.85 -1.75 -41.0 Q-0.9 -40.7 -0.5 -39.9 L-0.2 -39.45 6.45 -26.15" fill="#595857" fill-rule="evenodd" stroke="none"/>
    <path d="M12.1 -14.2 L12.25 -13.95 Q12.65 -13.1 12.35 -12.25 12.15 -11.4 11.2 -10.95 L1.6 -6.15 -1.7 -4.5 -1.65 -4.3 -1.3 0.0 -1.2 0.9 -1.15 1.5 -1.1 2.05 -1.0 3.5 -0.25 11.5 -0.7 11.3 -2.2 -5.65 -2.15 -5.65 -2.2 -6.35 -2.85 -13.55 -3.1 -16.2 Q-2.65 -15.6 -2.65 -14.8 L-2.45 -13.0 -2.05 -8.8 -1.85 -6.5 -1.8 -5.8 10.9 -12.15 Q12.15 -12.8 12.1 -14.2 M-35.95 30.35 L-36.8 30.65 -37.2 29.4 -37.2 29.1 -35.95 30.35" fill="#231916" fill-rule="evenodd" stroke="none"/>
    <path d="M-11.15 -19.15 L-10.9 -24.15 -10.1 -30.15 -4.8 -27.2 Q0.7 -23.95 1.65 -22.0 2.85 -19.7 1.85 -17.2 0.85 -14.6 -1.65 -13.35 L-2.45 -13.0 -2.65 -14.8 Q-2.65 -15.6 -3.1 -16.2 L-2.85 -13.55 -2.95 -14.25 -3.15 -16.6 Q-3.3 -18.0 -4.3 -18.85 -5.05 -19.5 -6.0 -19.55 L-6.7 -19.55 -11.15 -19.15" fill="#319fd0" fill-rule="evenodd" stroke="none"/>
    <path d="M-15.6 -18.8 L-20.8 -29.05 -2.75 -38.05 9.05 -14.45 -2.05 -8.8 -2.45 -13.0 -1.65 -13.35 Q0.85 -14.6 1.85 -17.2 2.85 -19.7 1.65 -22.0 0.7 -23.95 -4.8 -27.2 L-10.1 -30.15 -10.9 -24.15 -11.15 -19.15 -15.6 -18.8" fill="#abd4e0" fill-rule="evenodd" stroke="none"/>
    <path d="M19.4 -3.2 L19.6 -3.4 19.6 -3.3 19.4 -3.2 M25.7 -4.9 Q24.25 -5.05 23.85 -3.55 23.1 -1.1 24.5 1.8 25.85 4.75 28.55 6.05 29.8 6.7 30.35 5.45 30.95 4.15 30.05 3.6 27.7 2.15 27.1 0.25 26.65 -1.05 26.95 -3.45 27.15 -4.8 25.7 -4.9 M56.55 25.15 L51.25 24.75 Q48.75 30.3 43.65 33.7 40.9 35.6 37.1 36.7 32.5 38.0 28.95 37.1 24.25 35.9 20.55 32.5 17.4 29.55 15.35 25.45 13.4 21.6 12.65 16.95 11.7 11.4 13.05 7.5 13.8 5.35 15.7 3.55 17.6 1.8 19.9 0.95 21.1 5.85 23.65 8.2 27.15 11.5 32.05 11.85 32.7 12.0 34.3 13.45 36.25 15.3 37.5 17.5 41.2 24.0 36.55 29.9 L37.65 29.8 Q38.8 29.5 39.65 28.3 43.05 23.15 41.15 17.25 40.5 15.15 37.55 10.4 L40.55 8.6 Q42.35 7.35 42.3 6.9 37.75 8.5 34.75 8.7 L29.6 8.15 Q26.7 7.45 24.75 4.95 22.95 2.65 22.45 -0.4 22.2 -2.35 22.8 -4.45 23.4 -6.6 24.8 -8.1 27.4 -10.9 31.45 -11.25 36.45 -11.7 41.35 -7.95 44.1 -5.8 48.05 0.35 L52.6 -1.5 52.9 -0.75 53.85 2.4 Q54.35 4.1 55.65 3.45 56.9 2.8 56.35 1.2 L54.9 -2.35 58.15 -3.35 Q59.75 0.7 61.3 9.6 63.25 20.95 61.45 25.2 L59.2 25.2 Q59.9 20.85 59.45 19.55 59.2 18.8 58.2 18.85 57.2 18.9 57.1 19.55 L56.55 25.15 M55.4 7.8 L56.6 14.35 Q56.8 15.75 58.05 15.75 59.3 15.75 59.15 14.25 58.65 8.55 57.6 7.1 57.15 6.45 56.2 6.85 55.25 7.2 55.4 7.8 M16.65 10.25 Q16.35 9.45 15.55 9.25 14.75 9.05 14.2 9.85 13.5 10.95 13.8 12.55 14.05 13.55 15.0 13.7 15.85 13.8 16.35 13.2 17.3 12.05 16.65 10.25 M15.45 15.2 Q13.9 15.85 14.5 18.5 15.4 22.75 17.7 26.45 20.45 30.75 24.2 32.55 25.4 33.15 25.85 33.15 L26.45 32.7 Q26.85 32.1 26.5 31.15 26.15 30.2 25.3 29.7 19.6 26.5 17.7 17.7 17.0 14.55 15.45 15.2" fill="#de3e53" fill-rule="evenodd" stroke="none"/>
    <path d="M33.3 -14.8 L34.85 -14.7 35.05 -14.65 35.1 -14.65 Q38.55 -14.25 42.1 -11.55 44.9 -9.45 47.0 -6.55 L48.45 -4.2 Q50.15 -4.7 52.6 -5.85 L53.95 -6.5 Q57.05 -8.1 59.0 -8.55 59.8 -7.75 60.65 -5.95 62.15 -2.6 63.65 4.35 L64.05 6.1 64.7 9.45 Q66.5 19.05 65.95 24.65 65.5 28.65 63.9 30.55 L58.0 29.45 53.4 28.5 Q50.15 34.6 43.85 38.05 38.05 41.2 31.9 41.0 L31.45 40.95 Q26.25 40.7 21.6 37.45 16.8 34.15 13.65 28.45 10.05 21.95 9.5 15.3 L9.4 13.05 Q9.4 8.85 10.65 5.4 L10.8 5.05 Q13.15 -0.95 19.4 -3.2 L19.6 -3.3 19.6 -3.4 19.85 -5.05 Q20.6 -8.9 22.95 -11.05 25.1 -13.1 28.2 -14.05 30.65 -14.8 33.3 -14.8 M52.6 -1.5 L48.05 0.35 Q44.1 -5.8 41.35 -7.95 36.45 -11.7 31.45 -11.25 27.4 -10.9 24.8 -8.1 23.4 -6.6 22.8 -4.45 22.2 -2.35 22.45 -0.4 22.95 2.65 24.75 4.95 26.7 7.45 29.6 8.15 L34.75 8.7 Q37.75 8.5 42.3 6.9 42.35 7.35 40.55 8.6 L37.55 10.4 Q40.5 15.15 41.15 17.25 43.05 23.15 39.65 28.3 38.8 29.5 37.65 29.8 L36.55 29.9 Q41.2 24.0 37.5 17.5 36.25 15.3 34.3 13.45 32.7 12.0 32.05 11.85 27.15 11.5 23.65 8.2 21.1 5.85 19.9 0.95 17.6 1.8 15.7 3.55 13.8 5.35 13.05 7.5 11.7 11.4 12.65 16.95 13.4 21.6 15.35 25.45 17.4 29.55 20.55 32.5 24.25 35.9 28.95 37.1 32.5 38.0 37.1 36.7 40.9 35.6 43.65 33.7 48.75 30.3 51.25 24.75 L56.55 25.15 59.2 25.2 61.45 25.2 Q63.25 20.95 61.3 9.6 59.75 0.7 58.15 -3.35 L54.9 -2.35 53.05 -1.7 52.6 -1.5" fill="#7f092c" fill-rule="evenodd" stroke="none"/>
    <path d="M35.05 -14.75 L35.2 -15.75 35.85 -19.8 36.5 -25.9 Q40.8 -20.9 47.35 -18.65 50.7 -17.5 54.85 -17.1 L55.15 -17.1 58.05 -16.95 58.1 -16.95 Q64.9 -16.7 76.35 -17.3 L75.3 -14.3 74.9 -13.35 Q74.55 -12.45 74.35 -11.4 L74.1 -10.25 Q73.7 -8.3 73.6 -6.0 70.15 -6.3 62.9 -6.05 L60.65 -5.95 Q59.8 -7.75 59.0 -8.55 57.05 -8.1 53.95 -6.5 L52.6 -5.85 52.15 -5.85 47.0 -6.55 Q44.9 -9.45 42.1 -11.55 38.55 -14.25 35.1 -14.65 L35.05 -14.75 M67.85 -26.5 L67.8 -24.8 64.5 -24.95 Q64.5 -27.7 64.65 -28.4 L64.7 -28.55 68.15 -28.3 67.85 -26.5 M48.45 -30.05 Q47.8 -27.85 47.8 -26.05 L44.15 -26.65 Q44.5 -27.05 44.55 -28.55 L44.55 -30.1 Q47.0 -29.9 48.45 -30.05" fill="#f6ad3d" fill-rule="evenodd" stroke="none"/>
    <path d="M25.7 -4.9 Q27.15 -4.8 26.95 -3.45 26.65 -1.05 27.1 0.25 27.7 2.15 30.05 3.6 30.95 4.15 30.35 5.45 29.8 6.7 28.55 6.05 25.85 4.75 24.5 1.8 23.1 -1.1 23.85 -3.55 24.25 -5.05 25.7 -4.9 M16.65 10.25 Q17.3 12.05 16.35 13.2 15.85 13.8 15.0 13.7 14.05 13.55 13.8 12.55 13.5 10.95 14.2 9.85 14.75 9.05 15.55 9.25 16.35 9.45 16.65 10.25 M15.45 15.2 Q17.0 14.55 17.7 17.7 19.6 26.5 25.3 29.7 26.15 30.2 26.5 31.15 26.85 32.1 26.45 32.7 L25.85 33.15 Q25.4 33.15 24.2 32.55 20.45 30.75 17.7 26.45 15.4 22.75 14.5 18.5 13.9 15.85 15.45 15.2" fill="#ed7c88" fill-rule="evenodd" stroke="none"/>
    <path d="M52.6 -1.5 L53.05 -1.7 54.9 -2.35 56.35 1.2 Q56.9 2.8 55.65 3.45 54.35 4.1 53.85 2.4 L52.9 -0.75 52.6 -1.5 M59.2 25.2 L56.55 25.15 57.1 19.55 Q57.2 18.9 58.2 18.85 59.2 18.8 59.45 19.55 59.9 20.85 59.2 25.2 M55.4 7.8 Q55.25 7.2 56.2 6.85 57.15 6.45 57.6 7.1 58.65 8.55 59.15 14.25 59.3 15.75 58.05 15.75 56.8 15.75 56.6 14.35 L55.4 7.8" fill="#8f2c29" fill-rule="evenodd" stroke="none"/>
    <path d="M68.5 6.4 L69.05 6.35 68.45 8.35 67.75 10.65 Q67.0 13.5 67.05 15.05 L67.1 15.6 67.25 16.15 Q68.4 19.15 72.65 21.3 74.3 22.2 75.95 22.7 83.4 25.35 86.2 21.55 85.25 20.75 85.0 20.0 84.75 19.15 85.35 17.95 L86.35 17.6 87.3 18.45 Q88.55 14.05 90.25 9.35 L90.3 9.2 90.25 9.25 Q89.5 9.5 89.3 9.65 89.85 10.2 88.85 9.3 L90.2 7.3 91.35 6.4 Q92.0 4.95 91.25 3.0 90.65 1.5 89.35 0.3 88.3 -0.75 86.75 -1.6 L84.65 -2.7 81.6 -3.85 75.85 -4.25 75.9 -5.05 77.15 -5.2 Q81.5 -5.25 86.25 -3.05 L89.2 -1.35 Q91.9 0.6 93.0 3.15 93.3 4.5 92.85 5.8 94.3 5.45 95.7 6.1 96.7 6.5 97.8 7.7 99.8 10.0 99.5 12.8 98.5 17.8 94.75 21.05 L92.0 22.75 91.6 22.9 Q88.9 23.6 86.35 21.65 84.2 26.0 77.0 24.05 75.55 23.75 73.4 22.85 70.05 21.4 67.65 18.95 65.0 16.0 66.95 10.05 L68.5 6.4 M97.8 9.85 L96.95 8.5 95.4 7.35 Q94.75 6.9 93.75 6.65 91.85 6.25 90.2 7.3 L89.75 8.6 90.2 8.4 92.3 8.3 Q93.6 8.6 94.65 9.65 L94.9 9.8 Q95.55 10.65 95.8 11.45 96.4 13.15 95.65 14.8 L93.75 18.0 92.85 18.95 91.35 20.0 90.45 20.35 88.35 19.8 86.1 19.6 86.1 19.85 Q86.7 22.65 90.4 21.65 L91.45 21.35 92.35 20.95 92.4 20.95 Q94.15 20.15 95.1 18.85 97.85 15.0 98.3 12.65 L97.9 10.0 97.8 9.85 M91.2 18.7 L91.9 18.15 93.45 16.35 94.6 14.3 Q95.2 13.15 94.75 11.85 L94.5 11.4 93.8 10.45 Q92.75 9.4 91.5 9.25 L91.15 10.25 90.55 11.95 87.7 18.7 Q89.5 19.8 91.2 18.7" fill="#1d5777" fill-rule="evenodd" stroke="none"/>
    <path d="M69.05 6.35 Q75.25 6.3 75.15 4.4 L75.55 -0.15 76.25 0.5 Q78.25 2.1 81.55 3.4 L82.5 3.7 Q85.4 4.65 87.85 4.65 L89.75 4.25 90.55 3.45 Q90.95 2.4 89.45 1.0 L88.95 0.6 Q86.85 -1.1 83.6 -2.3 L80.95 -3.1 76.75 -3.5 75.8 -3.25 75.75 -3.25 75.85 -4.25 81.6 -3.85 83.7 -3.1 86.75 -1.6 Q88.3 -0.75 89.35 0.3 90.65 1.5 91.25 3.0 L91.55 4.15 91.2 4.65 91.1 4.75 90.1 5.1 89.85 5.15 89.15 5.25 87.75 5.25 Q85.75 5.2 85.3 5.65 83.45 7.1 82.3 12.0 81.25 16.85 79.0 18.4 75.85 20.9 72.05 18.65 L71.2 18.1 Q68.4 16.0 67.35 12.65 L68.45 8.35 69.05 6.35 M90.2 7.3 Q91.85 6.25 93.75 6.65 94.75 6.9 95.4 7.35 L96.95 8.5 97.8 9.85 97.4 10.5 96.0 9.95 Q97.35 12.05 96.4 14.95 95.6 17.3 93.75 19.45 L92.55 20.4 91.4 20.85 89.9 21.05 Q88.05 21.05 86.15 19.85 L86.1 19.85 86.1 19.6 88.35 19.8 90.45 20.35 91.35 20.0 92.85 18.95 93.75 18.0 95.65 14.8 Q96.4 13.15 95.8 11.45 95.55 10.65 94.9 9.8 L94.65 9.65 Q93.6 8.6 92.3 8.3 L90.2 8.4 89.75 8.6 90.2 7.3" fill="#649dd4" fill-rule="evenodd" stroke="none"/>
    <path d="M75.55 -0.15 L75.75 -3.25 75.8 -3.25 76.75 -3.5 80.95 -3.1 Q80.3 -2.6 80.05 -1.65 79.85 -0.8 80.15 0.15 81.15 2.2 82.5 3.7 L81.55 3.4 Q78.25 2.1 76.25 0.5 L75.55 -0.15" fill="#d2cfb6" fill-rule="evenodd" stroke="none"/>
    <path d="M80.95 -3.1 L83.6 -2.3 Q86.85 -1.1 88.95 0.6 L89.45 1.0 Q90.95 2.4 90.55 3.45 L89.75 4.25 87.85 4.65 Q85.4 4.65 82.5 3.7 81.15 2.2 80.15 0.15 79.85 -0.8 80.05 -1.65 80.3 -2.6 80.95 -3.1" fill="#eeebdb" fill-rule="evenodd" stroke="none"/>
    <path d="M91.35 6.4 L90.2 7.3 88.85 9.3 Q89.85 10.2 89.3 9.65 89.5 9.5 90.25 9.25 L90.3 9.2 90.25 9.35 Q88.55 14.05 87.3 18.45 L86.35 17.6 85.35 17.95 Q84.75 19.15 85.0 20.0 85.25 20.75 86.2 21.55 83.4 25.35 75.95 22.7 74.3 22.2 72.65 21.3 68.4 19.15 67.25 16.15 L67.1 15.6 67.05 15.05 Q67.05 14.1 67.35 12.65 68.4 16.0 71.2 18.1 L72.05 18.65 Q75.85 20.9 79.0 18.4 81.25 16.85 82.3 12.0 83.45 7.1 85.3 5.65 85.75 5.2 87.75 5.25 L89.15 5.25 89.85 5.15 90.1 5.1 91.1 4.75 91.2 4.65 91.55 4.15 Q91.75 5.15 91.35 6.4 M97.8 9.85 L97.9 10.0 98.3 12.65 Q97.85 15.0 95.1 18.85 94.15 20.15 92.4 20.95 L92.35 20.95 91.45 21.35 90.4 21.65 Q86.7 22.65 86.1 19.85 L86.15 19.85 Q88.05 21.05 89.9 21.05 L91.4 20.85 92.55 20.4 93.75 19.45 Q95.6 17.3 96.4 14.95 97.35 12.05 96.0 9.95 L97.4 10.5 97.8 9.85" fill="#4987bb" fill-rule="evenodd" stroke="none"/>
    <path d="M2.85 19.4 Q3.3 20.3 2.7 21.0 2.15 21.65 1.35 21.5 0.65 21.4 0.05 20.8 -0.55 20.25 -0.8 19.5 -1.1 18.7 -0.6 18.05 -0.15 17.4 0.8 17.6 2.1 17.95 2.85 19.4 M3.35 22.45 Q4.9 21.9 6.25 24.3 8.35 28.1 9.05 32.4 9.85 37.4 8.25 41.25 L7.35 42.8 6.65 42.85 Q6.0 42.65 5.6 41.75 5.2 40.75 5.5 39.85 7.7 33.7 3.3 25.8 1.75 22.95 3.35 22.45 M-17.65 14.1 Q-16.6 13.05 -15.3 13.9 -13.15 15.3 -12.25 18.3 -11.35 21.45 -12.5 24.2 -13.05 25.5 -14.3 24.95 -15.55 24.35 -15.25 23.35 -14.45 20.7 -15.2 18.9 -15.75 17.6 -17.6 16.0 -18.65 15.15 -17.65 14.1" fill="#5ebfed" fill-rule="evenodd" stroke="none"/>
    <path d="M2.85 19.4 Q2.1 17.95 0.8 17.6 -0.15 17.4 -0.6 18.05 -1.1 18.7 -0.8 19.5 -0.55 20.25 0.05 20.8 0.65 21.4 1.35 21.5 2.15 21.65 2.7 21.0 3.3 20.3 2.85 19.4 M-11.75 11.25 L-11.95 11.3 -12.05 11.2 -11.75 11.25 M-35.55 34.3 L-30.95 32.75 Q-32.05 25.4 -31.35 22.15 -30.15 16.05 -26.1 13.1 -22.8 10.7 -19.05 11.1 -17.0 11.3 -15.1 12.5 -13.3 13.7 -12.2 15.35 -10.55 17.9 -10.4 20.85 -10.2 24.0 -11.9 26.5 -13.55 28.9 -15.45 30.3 -17.85 32.2 -22.3 33.95 L-19.85 34.05 -16.4 33.4 Q-15.55 38.75 -14.6 40.95 -12.1 46.6 -6.15 48.25 L-3.7 48.05 -2.8 47.4 Q-10.2 46.05 -11.7 38.7 -12.2 36.2 -11.95 33.6 -11.7 31.4 -11.3 30.9 -7.95 27.4 -7.4 22.6 -7.1 19.2 -9.4 14.65 -7.1 13.75 -4.5 13.85 -1.9 13.95 0.1 15.1 3.7 17.1 6.65 21.9 9.1 25.85 10.2 30.05 11.35 34.55 10.9 38.8 10.4 43.8 7.65 47.8 5.6 50.8 1.25 52.9 -2.25 54.55 -5.6 54.95 -11.7 55.75 -17.2 53.25 L-20.95 57.0 -25.05 53.2 Q-25.5 52.75 -26.3 53.35 -27.15 54.0 -26.85 54.7 -26.2 56.2 -22.9 58.8 L-24.6 60.3 Q-28.75 58.3 -34.8 48.45 -39.55 40.65 -40.95 36.65 L-37.85 35.2 -36.6 38.9 Q-35.95 40.5 -34.6 40.1 -33.2 39.7 -33.95 38.15 L-35.3 35.15 -35.55 34.3 M3.35 22.45 Q1.75 22.95 3.3 25.8 7.7 33.7 5.5 39.85 5.2 40.75 5.6 41.75 6.0 42.65 6.65 42.85 L7.35 42.8 8.25 41.25 Q9.85 37.4 9.05 32.4 8.35 28.1 6.25 24.3 4.9 21.9 3.35 22.45 M-17.65 14.1 Q-18.65 15.15 -17.6 16.0 -15.75 17.6 -15.2 18.9 -14.45 20.7 -15.25 23.35 -15.55 24.35 -14.3 24.95 -13.05 25.5 -12.5 24.2 -11.35 21.45 -12.25 18.3 -13.15 15.3 -15.3 13.9 -16.6 13.05 -17.65 14.1 M-32.75 43.05 Q-33.7 43.4 -33.65 44.15 -33.5 46.0 -30.1 50.55 -29.25 51.75 -28.3 50.9 -27.35 50.1 -28.1 48.95 L-31.55 43.25 Q-31.8 42.65 -32.75 43.05" fill="#1279bf" fill-rule="evenodd" stroke="none"/>
    <path d="M2.3 13.0 Q5.35 15.1 7.9 18.55 11.9 23.95 13.45 31.2 14.85 37.55 13.45 43.2 12.4 47.35 10.0 50.45 L8.3 52.35 Q3.75 56.85 -2.9 58.35 -9.9 59.9 -16.35 57.45 L-19.15 61.25 -22.95 65.95 -23.1 65.95 Q-28.95 64.8 -37.4 50.6 -41.35 43.95 -43.25 39.65 -45.15 35.3 -45.05 33.3 -43.3 32.35 -39.9 31.5 L-36.8 30.65 -35.95 30.35 -34.35 29.65 -34.25 29.6 Q-35.3 24.65 -34.3 19.9 L-34.15 19.3 Q-33.3 15.7 -31.45 13.45 L-30.9 12.75 Q-28.5 10.2 -25.55 8.85 -22.55 7.5 -19.6 7.65 -15.6 7.8 -12.05 11.2 L-11.95 11.3 -11.75 11.25 Q-9.65 10.4 -7.55 10.2 -6.25 10.05 -5.0 10.2 -3.3 10.35 -1.65 10.95 L-0.7 11.3 -0.25 11.5 0.5 11.9 2.3 13.0 M-20.95 57.0 L-17.2 53.25 Q-11.7 55.75 -5.6 54.95 -2.25 54.55 1.25 52.9 5.6 50.8 7.65 47.8 10.4 43.8 10.9 38.8 11.35 34.55 10.2 30.05 9.1 25.85 6.65 21.9 3.7 17.1 0.1 15.1 -1.9 13.95 -4.5 13.85 -7.1 13.75 -9.4 14.65 -7.1 19.2 -7.4 22.6 -7.95 27.4 -11.3 30.9 -11.7 31.4 -11.95 33.6 -12.2 36.2 -11.7 38.7 -10.2 46.05 -2.8 47.4 L-3.7 48.05 -6.15 48.25 Q-12.1 46.6 -14.6 40.95 -15.55 38.75 -16.4 33.4 L-19.85 34.05 -22.3 33.95 Q-17.85 32.2 -15.45 30.3 -13.55 28.9 -11.9 26.5 -10.2 24.0 -10.4 20.85 -10.55 17.9 -12.2 15.35 -13.3 13.7 -15.1 12.5 -17.0 11.3 -19.05 11.1 -22.8 10.7 -26.1 13.1 -30.15 16.05 -31.35 22.15 -32.05 25.4 -30.95 32.75 L-35.55 34.3 -37.85 35.2 -40.95 36.65 Q-39.55 40.65 -34.8 48.45 -28.75 58.3 -24.6 60.3 L-22.9 58.8 -20.95 57.0" fill="#00435d" fill-rule="evenodd" stroke="none"/>
    <path d="M-90.45 -19.65 L-97.0 -27.25 Q-98.3 -28.8 -97.95 -30.9 -98.65 -32.2 -98.45 -33.7 -98.2 -35.25 -97.05 -36.2 L-81.95 -49.2 -80.4 -50.1 -78.95 -50.2 Q-77.25 -50.1 -76.15 -48.85 L-76.1 -48.8 -63.05 -33.75 Q-61.7 -32.0 -62.2 -30.05 -61.45 -28.85 -61.6 -27.4 L-61.6 -27.25 -61.75 -26.45 Q-62.25 -25.5 -63.05 -24.8 L-73.45 -15.75 -78.1 -11.75 Q-79.45 -10.65 -81.1 -10.7 -82.4 -10.85 -83.25 -11.5 L-83.95 -12.2 -90.45 -19.65 M-86.0 -40.6 L-85.0 -41.3 -84.0 -42.05 -79.5 -36.2 -76.0 -39.45 Q-74.0 -41.3 -73.1 -40.3 L-72.45 -39.0 -71.85 -37.6 -76.9 -32.7 -72.7 -26.9 -72.25 -26.25 Q-72.85 -25.0 -73.6 -24.35 L-73.85 -24.2 -74.25 -24.0 -75.05 -23.65 -75.2 -23.6 -75.25 -23.6 -75.85 -23.55 -79.05 -26.95 -80.9 -29.2 -86.25 -24.85 -86.3 -24.8 -87.65 -24.65 -88.35 -25.65 -88.2 -26.95 -83.15 -32.45 -87.05 -38.6 Q-87.05 -39.7 -86.0 -40.6 M-84.0 -17.6 L-83.0 -16.5 Q-82.4 -15.8 -81.45 -15.7 -80.6 -15.65 -79.8 -16.25 L-64.7 -29.3 -64.55 -29.45 -64.45 -29.6 -64.25 -29.8 -63.9 -30.85 Q-63.9 -31.85 -64.5 -32.5 L-77.5 -47.55 Q-78.15 -48.3 -78.95 -48.35 L-79.1 -48.35 Q-80.15 -48.35 -80.75 -47.8 L-95.8 -34.8 Q-96.6 -34.1 -96.6 -33.2 -96.7 -32.25 -96.05 -31.55 L-85.1 -18.95 -84.6 -18.3 -84.0 -17.6" fill="#dd2827" fill-rule="evenodd" stroke="none"/>
    <path d="M-76.15 -48.85 L-76.1 -50.4 Q-75.75 -52.55 -74.0 -54.15 L-63.95 -62.75 -60.5 -65.7 -51.3 -73.6 Q-49.35 -75.3 -46.75 -75.1 -44.15 -74.95 -42.5 -72.95 L-42.2 -72.6 -23.0 -50.2 -23.0 -50.15 -21.8 -48.3 Q-21.2 -46.65 -21.65 -44.65 -20.55 -42.75 -20.85 -40.55 -21.2 -38.4 -22.95 -36.8 L-31.05 -29.8 -45.7 -17.25 Q-47.65 -15.6 -50.25 -15.8 -51.45 -15.85 -52.5 -16.4 -53.6 -16.85 -54.55 -18.0 L-61.75 -26.45 -61.6 -27.25 -61.6 -27.4 Q-61.45 -28.85 -62.2 -30.05 -61.7 -32.0 -63.05 -33.75 L-76.1 -48.8 -76.15 -48.85 M-62.05 -51.15 Q-60.7 -55.3 -58.9 -57.7 L-58.35 -58.45 -57.15 -59.75 Q-55.0 -61.5 -52.3 -61.9 -50.3 -62.2 -48.6 -60.2 -47.0 -58.4 -46.45 -55.15 -46.0 -52.4 -46.3 -48.8 L-43.4 -50.6 -40.15 -50.8 -38.45 -49.45 Q-36.85 -47.6 -36.85 -44.6 L-37.25 -41.25 -37.5 -40.35 -37.75 -39.6 -38.7 -37.45 -38.75 -37.3 -38.85 -37.15 -42.35 -32.7 Q-42.95 -32.1 -44.4 -32.25 -45.8 -32.35 -46.35 -32.95 -47.1 -33.85 -45.3 -35.25 -44.4 -36.05 -43.4 -37.65 -42.4 -39.35 -42.0 -40.75 -41.65 -42.25 -41.95 -43.45 -42.25 -44.6 -42.95 -45.0 L-43.65 -45.05 Q-44.8 -44.95 -45.6 -44.35 L-46.1 -44.0 -48.6 -40.55 Q-49.85 -40.5 -51.4 -42.25 -52.1 -43.1 -52.2 -44.0 -50.9 -46.05 -50.85 -49.05 L-50.85 -49.2 -50.85 -50.4 -51.7 -53.8 -51.85 -54.05 -52.9 -55.05 -54.0 -55.15 -54.75 -54.65 -55.3 -54.1 -56.7 -52.05 -56.75 -51.85 -56.8 -51.75 -56.9 -51.55 -56.95 -51.45 -57.15 -51.05 -58.35 -47.9 Q-58.65 -47.4 -59.9 -48.45 L-61.4 -49.75 Q-62.1 -50.7 -62.05 -51.15 M-72.15 -52.0 Q-73.2 -51.1 -73.35 -49.65 -73.45 -48.2 -72.5 -47.2 L-53.05 -24.45 Q-52.15 -23.4 -50.75 -23.25 -49.25 -23.15 -48.25 -24.1 L-25.5 -43.55 Q-24.45 -44.55 -24.3 -45.9 -24.25 -47.25 -25.15 -48.4 L-44.65 -71.1 -45.1 -71.55 Q-45.95 -72.25 -47.0 -72.3 -48.45 -72.4 -49.45 -71.45 L-72.15 -52.0 M-64.3 7.7 Q-64.8 8.15 -64.65 8.6 L-63.7 8.7 Q-62.85 8.3 -63.25 7.75 L-64.3 7.7 M-61.95 9.65 L-62.35 10.05 Q-64.05 11.7 -65.3 10.3 -66.5 9.0 -65.3 7.8 L-62.45 7.7 Q-61.25 8.75 -61.95 9.65 M-80.1 15.2 Q-81.85 16.75 -83.1 15.5 -84.3 14.15 -83.05 12.9 L-80.25 12.8 Q-78.75 14.1 -80.1 15.2 M-82.4 13.75 Q-82.25 14.2 -81.45 13.85 -80.65 13.4 -81.0 12.9 L-82.05 12.85 Q-82.6 13.3 -82.4 13.75" fill="#232021" fill-rule="evenodd" stroke="none"/>
    <path d="M-64.1 58.3 L-69.85 57.7 -70.6 57.5 Q-76.9 55.5 -79.95 49.45 -82.25 44.85 -82.55 39.75 L-80.6 37.65 -76.35 34.15 -71.65 37.25 -67.25 32.0 -59.75 33.15 -57.4 29.15 -53.8 28.5 Q-52.85 34.6 -54.85 40.3 -56.15 44.0 -58.5 46.85 L-60.85 49.2 Q-65.1 52.7 -70.05 52.55 L-70.95 52.5 Q-75.95 52.0 -80.45 47.7 -77.7 55.55 -69.9 57.6 L-67.6 58.0 -64.05 58.25 -62.7 58.15 -64.1 58.3 M-89.35 12.6 L-88.85 12.1 -90.15 13.5 Q-90.6 7.05 -88.15 1.1 L-86.65 -2.1 Q-82.8 -9.1 -78.05 -10.45 -73.75 -11.55 -68.0 -8.05 -61.85 -4.2 -57.95 2.6 L-58.15 2.55 Q-59.7 -0.1 -61.5 -2.25 -63.35 -4.35 -64.55 -5.2 -62.4 -1.35 -61.75 1.65 L-66.8 0.45 -68.65 5.0 -75.8 3.75 -79.6 9.3 -84.25 5.7 -89.35 12.6 M-77.45 -8.1 Q-78.7 -6.75 -75.85 -4.45 -73.0 -2.15 -71.4 -4.2 -69.65 -6.35 -72.8 -8.15 -76.0 -9.9 -77.45 -8.1 M-57.65 56.9 Q-54.0 55.45 -50.55 52.3 -45.9 48.0 -46.0 42.1 L-46.05 41.35 Q-46.45 36.3 -50.35 28.75 -47.25 33.95 -46.1 40.2 L-45.9 42.0 Q-45.7 46.7 -48.95 50.85 -52.4 55.1 -57.65 56.9" fill="#deeac4" fill-rule="evenodd" stroke="none"/>
    <path d="M-86.9 9.95 L-89.35 12.6 -84.25 5.7 -79.6 9.3 -75.8 3.75 -68.65 5.0 -66.8 0.45 -61.75 1.65 Q-62.4 -1.35 -64.55 -5.2 -63.35 -4.35 -61.5 -2.25 -59.7 -0.1 -58.15 2.55 L-58.05 2.75 -61.7 2.1 -62.4 2.0 -65.95 1.55 -66.55 3.05 -67.8 6.2 -75.3 4.6 -79.35 10.4 -82.75 7.8 -84.0 6.8 -86.55 9.6 -86.9 9.95 M-53.8 28.5 L-53.45 28.5 -50.35 28.75 Q-46.45 36.3 -46.05 41.35 L-46.0 42.1 Q-45.9 48.0 -50.55 52.3 -54.0 55.45 -57.65 56.9 L-61.7 58.0 -62.25 58.1 -62.7 58.15 -64.05 58.25 -67.6 58.0 -69.9 57.6 Q-77.7 55.55 -80.45 47.7 -75.95 52.0 -70.95 52.5 L-70.05 52.55 Q-65.1 52.7 -60.85 49.2 L-58.5 46.85 Q-56.15 44.0 -54.85 40.3 -52.85 34.6 -53.8 28.5" fill="#b5c195" fill-rule="evenodd" stroke="none"/>
    <path d="M-5.0 10.2 Q-6.25 10.05 -7.55 10.2 -7.2 8.85 -7.65 7.9 -8.15 7.0 -9.3 6.4 -10.7 5.6 -13.2 5.35 L-13.4 5.35 -17.8 5.25 Q-14.05 4.85 -12.0 4.0 -10.45 3.35 -9.6 2.75 -7.95 1.5 -8.2 -0.15 L-8.4 -0.75 -8.55 -1.15 -9.25 -2.35 -9.95 -3.2 Q-10.5 -3.45 -10.65 -3.85 L-12.3 -5.35 -12.8 -5.7 -18.2 -7.05 Q-19.1 -6.65 -19.55 -5.55 L-19.7 -5.25 -19.7 -5.2 -20.1 -4.05 -20.35 -3.0 -20.65 0.3 -20.65 0.4 -20.65 0.65 -20.6 2.2 -20.6 2.95 -20.65 2.4 -21.85 -2.75 -22.75 -4.7 -23.2 -5.35 -23.65 -5.85 -23.75 -5.9 -23.9 -6.05 -24.0 -6.1 -24.05 -6.15 -24.55 -6.4 -24.8 -6.5 -24.9 -6.5 -25.05 -6.55 -25.15 -6.55 Q-26.7 -6.85 -28.55 -5.4 L-28.7 -5.3 -30.8 -3.15 -32.5 -0.75 Q-34.25 2.45 -32.4 4.1 -30.05 6.15 -23.0 5.75 -28.6 6.45 -31.0 8.15 L-31.2 8.3 -31.3 8.4 -31.35 8.45 Q-32.9 9.7 -32.5 11.4 L-31.45 13.45 Q-33.3 15.7 -34.15 19.3 L-36.95 -12.65 -16.9 -14.45 -15.95 -14.5 -15.8 -14.5 -7.25 -15.3 -5.0 10.2" fill="#b8ca47" fill-rule="evenodd" stroke="none"/>
    <path d="M-7.55 10.2 Q-9.65 10.4 -11.75 11.25 L-12.05 11.2 Q-15.6 7.8 -19.6 7.65 -22.55 7.5 -25.55 8.85 -28.5 10.2 -30.9 12.75 L-31.45 13.45 -32.5 11.4 Q-32.9 9.7 -31.35 8.45 L-31.3 8.4 -31.2 8.3 -31.0 8.15 Q-28.6 6.45 -23.0 5.75 -30.05 6.15 -32.4 4.1 -34.25 2.45 -32.5 -0.75 L-30.8 -3.15 -28.7 -5.3 -28.55 -5.4 Q-26.7 -6.85 -25.15 -6.55 L-25.05 -6.55 -24.9 -6.5 -24.8 -6.5 -24.55 -6.4 -24.05 -6.15 -24.0 -6.1 -23.9 -6.05 -23.75 -5.9 -23.65 -5.85 -23.2 -5.35 -22.75 -4.7 -21.85 -2.75 -20.65 2.4 -20.6 2.95 -20.6 2.2 -20.65 0.65 -20.65 0.4 -20.65 0.3 -20.35 -3.0 -20.1 -4.05 -19.7 -5.2 -19.7 -5.25 -19.55 -5.55 Q-19.1 -6.65 -18.2 -7.05 L-12.8 -5.7 -12.3 -5.35 -10.65 -3.85 Q-10.5 -3.45 -9.95 -3.2 L-9.25 -2.35 -8.55 -1.15 -8.4 -0.75 -8.2 -0.15 Q-7.95 1.5 -9.6 2.75 -10.45 3.35 -12.0 4.0 -14.05 4.85 -17.8 5.25 L-13.4 5.35 -13.2 5.35 Q-10.7 5.6 -9.3 6.4 -8.15 7.0 -7.65 7.9 -7.2 8.85 -7.55 10.2" fill="#31ac6f" fill-rule="evenodd" stroke="none"/>
    <path d="M-20.95 57.0 L-22.9 58.8 Q-26.2 56.2 -26.85 54.7 -27.15 54.0 -26.3 53.35 -25.5 52.75 -25.05 53.2 L-20.95 57.0 M-37.85 35.2 L-35.55 34.3 -35.3 35.15 -33.95 38.15 Q-33.2 39.7 -34.6 40.1 -35.95 40.5 -36.6 38.9 L-37.85 35.2 M-32.75 43.05 Q-31.8 42.65 -31.55 43.25 L-28.1 48.95 Q-27.35 50.1 -28.3 50.9 -29.25 51.75 -30.1 50.55 -33.5 46.0 -33.65 44.15 -33.7 43.4 -32.75 43.05" fill="#00568d" fill-rule="evenodd" stroke="none"/>
    <path d="M-77.85 34.65 L-77.95 34.35 -78.05 33.5 -78.45 30.9 -83.7 31.7 Q-85.7 32.1 -90.15 34.75 -92.6 36.25 -93.35 33.65 -93.7 32.45 -92.4 30.4 -90.9 27.95 -88.85 26.4 -86.75 24.8 -84.85 24.3 -81.55 23.45 -78.8 26.0 L-78.55 26.25 -78.5 26.25 -78.45 25.9 Q-78.35 24.2 -77.9 22.45 L-77.8 22.2 Q-80.15 21.7 -81.65 20.8 -84.7 19.1 -85.9 15.6 L-86.3 14.25 -86.6 12.1 -86.55 9.6 -84.0 6.8 -82.75 7.8 Q-84.6 9.9 -84.6 12.6 -84.75 18.4 -77.6 21.3 -77.55 21.3 -77.45 21.4 -75.65 22.1 -73.85 22.3 L-76.2 22.35 -76.65 23.0 -77.05 23.95 -77.1 24.2 -77.3 24.9 -77.3 26.3 -77.15 27.0 -77.1 27.2 Q-76.7 28.6 -75.85 29.35 L-74.4 30.35 -74.25 30.45 -73.95 30.55 -73.65 30.65 -73.05 30.8 Q-71.25 31.15 -68.65 30.8 L-67.2 30.5 Q-63.0 29.55 -61.25 26.9 -60.65 25.95 -60.4 24.85 -60.25 24.05 -60.45 22.9 L-60.75 21.95 -61.1 21.2 -61.55 20.55 -62.4 19.7 -64.25 18.75 -65.0 19.25 -64.0 18.25 Q-61.2 15.2 -60.75 11.75 -60.55 10.6 -60.7 9.45 -61.0 7.5 -62.1 6.15 -63.85 3.8 -66.55 3.05 L-65.95 1.55 -62.4 2.0 Q-59.6 4.85 -59.0 8.35 L-58.85 9.05 Q-58.6 12.35 -60.6 15.15 -61.7 16.7 -63.05 17.85 -61.6 18.95 -60.4 20.2 L-60.15 20.5 -60.0 20.1 Q-58.55 15.75 -52.4 15.6 -50.1 15.6 -47.85 16.25 L-47.1 16.45 Q-44.65 17.35 -44.25 18.35 -43.3 20.8 -46.05 21.25 -51.4 22.1 -52.95 22.95 L-56.65 25.4 -55.7 27.35 -55.35 28.15 -56.05 28.1 -58.35 27.75 -60.3 32.45 -67.7 30.8 -71.75 36.6 -76.4 33.05 -77.85 34.65 M-51.65 17.45 L-51.8 17.95 Q-52.2 19.85 -49.3 20.05 -46.25 20.3 -45.75 18.75 L-48.15 16.7 -48.9 16.55 -49.05 16.5 Q-51.15 16.1 -51.65 17.45 M-91.2 32.05 Q-90.9 34.05 -88.6 32.25 -86.15 30.4 -87.2 28.5 L-90.15 28.55 Q-91.55 30.1 -91.2 32.05" fill="#daa831" fill-rule="evenodd" stroke="none"/>
    <path d="M-66.55 3.05 Q-63.85 3.8 -62.1 6.15 -61.0 7.5 -60.7 9.45 -60.55 10.6 -60.75 11.75 -61.2 15.2 -64.0 18.25 L-65.0 19.25 -64.25 18.75 -62.4 19.7 -61.55 20.55 -61.1 21.2 -60.75 21.95 -60.45 22.9 Q-60.25 24.05 -60.4 24.85 -60.65 25.95 -61.25 26.9 -63.0 29.55 -67.2 30.5 L-68.65 30.8 Q-71.25 31.15 -73.05 30.8 L-73.65 30.65 -73.95 30.55 -74.25 30.45 -74.4 30.35 -75.85 29.35 Q-76.7 28.6 -77.1 27.2 L-77.15 27.0 -77.3 26.3 -77.3 24.9 -77.1 24.2 -77.05 23.95 -76.65 23.0 -76.2 22.35 -73.85 22.3 Q-75.65 22.1 -77.45 21.4 -77.55 21.3 -77.6 21.3 -84.75 18.4 -84.6 12.6 -84.6 9.9 -82.75 7.8 L-79.35 10.4 -75.3 4.6 -67.8 6.2 -66.55 3.05 M-51.65 17.45 Q-51.15 16.1 -49.05 16.5 L-48.9 16.55 -48.15 16.7 -45.75 18.75 Q-46.25 20.3 -49.3 20.05 -52.2 19.85 -51.8 17.95 L-51.65 17.45 M-69.4 11.1 L-69.5 11.05 Q-71.95 9.05 -73.2 9.35 -74.1 9.6 -75.4 12.3 L-75.8 13.05 -77.2 16.35 -74.5 17.95 Q-71.65 19.5 -70.7 19.35 -69.0 18.6 -67.2 13.15 L-69.4 11.1 M-61.95 9.65 Q-61.25 8.75 -62.45 7.7 L-65.3 7.8 Q-66.5 9.0 -65.3 10.3 -64.05 11.7 -62.35 10.05 L-61.95 9.65 M-80.1 15.2 Q-78.75 14.1 -80.25 12.8 L-83.05 12.9 Q-84.3 14.15 -83.1 15.5 -81.85 16.75 -80.1 15.2 M-91.2 32.05 Q-91.55 30.1 -90.15 28.55 L-87.2 28.5 Q-86.15 30.4 -88.6 32.25 -90.9 34.05 -91.2 32.05" fill="#f5c446" fill-rule="evenodd" stroke="none"/>
    <path d="M-69.4 11.1 L-67.2 13.15 Q-69.0 18.6 -70.7 19.35 -71.65 19.5 -74.5 17.95 L-77.2 16.35 -75.8 13.05 -75.4 12.3 Q-74.1 9.6 -73.2 9.35 -71.95 9.05 -69.5 11.05 L-69.4 11.1 M-71.6 11.55 L-71.8 11.0 Q-72.3 10.35 -73.0 10.75 -73.7 11.25 -73.25 11.85 L-73.2 11.9 Q-72.65 12.6 -71.9 12.05 -71.55 11.8 -71.6 11.55 M-75.4 15.75 L-73.85 16.3 -71.5 16.6 Q-70.4 16.3 -69.1 13.8 -71.4 13.0 -72.45 13.25 -73.25 13.55 -74.3 14.6 L-75.4 15.75" fill="#ea8d29" fill-rule="evenodd" stroke="none"/>
    <path d="M-75.4 15.75 L-74.3 14.6 Q-73.25 13.55 -72.45 13.25 -71.4 13.0 -69.1 13.8 -70.4 16.3 -71.5 16.6 L-73.85 16.3 -75.4 15.75" fill="#e25c2b" fill-rule="evenodd" stroke="none"/>
  </g>
</svg>
