<?xml version="1.0" encoding="UTF-8" standalone="no"?>
<svg xmlns:ffdec="https://www.free-decompiler.com/flash" xmlns:xlink="http://www.w3.org/1999/xlink" ffdec:objectType="shape" height="174.9px" width="183.9px" xmlns="http://www.w3.org/2000/svg">
  <g transform="matrix(1.0, 0.0, 0.0, 1.0, 91.95, 87.5)">
    <path d="M15.95 -70.6 L20.0 -87.5 63.95 -63.55 57.85 -57.6 Q55.85 -62.75 51.65 -66.95 43.7 -74.9 32.5 -74.9 22.8 -74.9 15.55 -68.95 L15.95 -70.6 M75.05 -24.15 L85.95 -27.55 91.95 32.45 74.4 26.2 65.15 22.95 Q65.65 17.35 63.9 7.75 61.05 -7.45 58.25 -10.25 56.3 -9.8 53.2 -8.2 49.85 -6.5 47.7 -5.9 45.2 -10.35 41.3 -13.25 L40.9 -13.55 75.05 -24.15 M43.7 54.9 L56.95 71.4 17.0 86.4 14.35 73.4 9.25 48.75 Q11.65 45.65 12.7 41.5 14.1 35.85 12.7 29.5 11.1 22.25 7.15 16.85 4.6 13.4 1.55 11.3 L-0.9 -0.55 8.6 11.25 8.7 13.6 Q9.25 20.25 12.85 26.75 16.0 32.45 20.8 35.75 25.45 39.0 30.7 39.25 L31.15 39.3 43.7 54.9 M-26.15 70.65 L-32.1 87.4 -67.0 58.4 -56.7 49.25 -44.0 37.95 Q-42.1 42.25 -38.15 48.9 -29.75 63.1 -23.85 64.25 L-26.15 70.65 M-74.75 22.8 L-85.15 26.05 -91.95 -21.55 -80.5 -18.9 -66.95 -15.8 -66.65 -14.5 -71.0 -10.9 Q-78.95 -2.95 -78.95 8.25 -78.95 16.35 -74.75 22.8 M-54.85 -54.5 L-66.0 -65.65 -24.0 -81.5 -20.65 -70.05 Q-23.65 -68.3 -26.25 -65.7 -33.65 -58.3 -34.15 -48.05 L-40.5 -48.75 Q-44.5 -48.75 -48.05 -47.7 L-54.85 -54.5 M6.7 -23.2 Q9.1 -21.9 12.65 -20.15 L17.15 -18.05 -0.9 -0.55 4.25 -21.9 6.7 -23.2 M19.1 -6.75 L18.85 -5.1 18.65 -4.9 Q12.35 -2.6 10.0 3.35 L-0.9 -0.55 19.1 -6.75 M-4.2 8.75 Q-8.0 7.9 -11.95 9.3 L-0.9 -0.55 -4.2 8.75 M-21.5 5.95 Q-23.15 6.0 -24.85 6.6 -25.0 3.7 -25.7 1.05 -23.4 -0.5 -21.35 -2.55 L-19.3 -4.8 -0.9 -0.55 -21.5 5.95 M-14.4 -14.05 Q-13.6 -17.0 -13.4 -20.2 L-7.15 -19.5 -6.25 -19.5 -0.9 -0.55 -14.4 -14.05" fill="#f6b947" fill-rule="evenodd" stroke="none"/>
    <path d="M15.55 -68.95 Q22.8 -74.9 32.5 -74.9 43.7 -74.9 51.65 -66.95 55.85 -62.75 57.85 -57.6 59.6 -53.05 59.6 -47.8 L59.6 -47.75 Q59.6 -36.6 51.65 -28.65 43.7 -20.7 32.5 -20.7 L28.9 -20.9 31.9 -25.9 32.5 -25.9 Q42.05 -25.9 48.8 -32.65 55.55 -39.4 55.55 -48.95 55.55 -58.5 48.8 -65.2 42.05 -71.95 32.5 -71.95 22.95 -71.95 16.25 -65.2 L14.35 -63.05 12.1 -65.6 13.35 -66.95 15.55 -68.95" fill="#454d9e" fill-rule="evenodd" stroke="none"/>
    <path d="M15.95 -70.6 L15.55 -68.95 13.35 -66.95 12.1 -65.6 12.0 -65.7 7.55 -69.35 15.95 -70.6 M59.6 -47.75 L75.05 -24.15 40.9 -13.55 Q37.4 -16.05 34.05 -16.4 30.55 -16.75 27.45 -15.75 24.35 -14.8 22.15 -12.75 19.8 -10.55 19.1 -6.75 L-0.9 -0.55 10.0 3.35 9.85 3.7 Q8.6 7.15 8.6 11.25 L-0.9 -0.55 1.55 11.3 -0.25 10.2 Q-2.2 9.15 -4.2 8.75 L-0.9 -0.55 -11.95 9.3 -12.45 9.5 -12.8 9.5 Q-16.45 6.1 -20.35 5.95 L-21.5 5.95 -0.9 -0.55 -19.3 -4.8 Q-15.85 -9.05 -14.4 -14.05 L-0.9 -0.55 -6.25 -19.5 Q-0.6 -19.7 4.25 -21.9 L-0.9 -0.55 17.15 -18.05 Q22.35 -15.8 24.15 -15.9 25.75 -16.0 28.9 -20.9 L32.5 -20.7 Q43.7 -20.7 51.65 -28.65 59.6 -36.6 59.6 -47.75 M74.4 26.2 L43.7 54.9 31.15 39.3 Q37.3 39.5 43.1 36.35 49.35 32.9 52.6 26.8 L57.2 27.75 63.15 28.85 Q64.75 26.95 65.15 22.95 L74.4 26.2 M14.35 73.4 L15.4 79.3 -26.15 70.65 -23.85 64.25 -23.7 64.25 -19.95 59.55 -17.15 55.75 Q-10.65 58.2 -3.7 56.65 2.95 55.15 7.55 50.65 L9.25 48.75 14.35 73.4 M-56.7 49.25 L-69.75 28.6 Q-62.2 35.35 -51.85 35.35 L-45.3 34.6 -44.0 37.95 -56.7 49.25 M-80.5 -18.9 L-54.85 -54.5 -48.05 -47.7 Q-54.55 -45.9 -59.65 -40.8 -67.55 -32.8 -67.55 -21.65 -67.55 -18.6 -66.95 -15.8 L-80.5 -18.9" fill="#e58815" fill-rule="evenodd" stroke="none"/>
    <path d="M-20.65 -70.05 Q-14.65 -73.65 -7.15 -73.65 1.05 -73.65 7.55 -69.35 L12.0 -65.7 12.1 -65.6 14.35 -63.05 Q17.15 -59.55 18.55 -55.4 19.85 -51.55 19.95 -47.15 L15.85 -48.7 Q15.45 -57.6 9.1 -63.95 2.45 -70.7 -7.15 -70.7 -16.65 -70.7 -23.4 -63.95 -30.15 -57.2 -30.15 -47.65 L-30.1 -46.75 Q-32.1 -47.6 -34.15 -48.05 -33.65 -58.3 -26.25 -65.7 -23.65 -68.3 -20.65 -70.05 M-13.65 -25.55 Q-10.6 -24.7 -7.15 -24.7 -2.2 -24.7 2.0 -26.5 L2.0 -26.45 Q3.0 -25.25 6.7 -23.2 L4.25 -21.9 Q-0.6 -19.7 -6.25 -19.5 L-7.15 -19.5 -13.4 -20.2 -13.4 -21.65 -13.65 -25.55" fill="#bc7830" fill-rule="evenodd" stroke="none"/>
    <path d="M14.35 -63.05 L16.25 -65.2 Q22.95 -71.95 32.5 -71.95 42.05 -71.95 48.8 -65.2 55.55 -58.5 55.55 -48.95 55.55 -39.4 48.8 -32.65 42.05 -25.9 32.5 -25.9 L31.9 -25.9 31.9 -25.95 Q37.25 -35.7 36.8 -37.7 42.6 -38.85 47.3 -43.1 50.5 -46.05 51.9 -48.95 50.55 -51.75 47.3 -54.75 40.95 -60.55 32.5 -60.55 24.6 -60.55 18.55 -55.4 17.15 -59.55 14.35 -63.05 M26.35 -44.25 Q25.2 -45.7 24.9 -47.6 24.35 -50.8 26.15 -53.4 28.0 -56.0 31.15 -56.6 34.4 -57.15 36.95 -55.3 39.65 -53.4 40.15 -50.3 40.7 -47.05 38.85 -44.5 37.0 -41.9 33.85 -41.3 L32.15 -41.15 26.35 -44.25" fill="#5dace0" fill-rule="evenodd" stroke="none"/>
    <path d="M18.55 -55.4 Q24.6 -60.55 32.5 -60.55 40.95 -60.55 47.3 -54.75 50.55 -51.75 51.9 -48.95 50.5 -46.05 47.3 -43.1 42.6 -38.85 36.8 -37.7 36.55 -38.6 32.85 -40.75 L32.15 -41.15 33.85 -41.3 Q37.0 -41.9 38.85 -44.5 40.7 -47.05 40.15 -50.3 39.65 -53.4 36.95 -55.3 34.4 -57.15 31.15 -56.6 28.0 -56.0 26.15 -53.4 24.35 -50.8 24.9 -47.6 25.2 -45.7 26.35 -44.25 L24.55 -45.1 19.95 -47.15 Q19.85 -51.55 18.55 -55.4 M7.7 -44.65 L7.7 -44.8 Q7.7 -45.85 7.2 -46.35 6.65 -46.9 5.8 -46.9 L4.5 -46.7 4.7 -49.55 5.2 -49.5 Q6.05 -49.5 6.55 -50.0 7.05 -50.5 7.05 -51.2 7.05 -51.85 6.65 -52.25 6.25 -52.65 5.6 -52.65 4.9 -52.65 4.45 -52.2 4.0 -51.75 3.85 -50.7 L0.05 -51.4 Q0.5 -53.15 1.85 -54.15 3.25 -55.1 5.65 -55.1 8.5 -55.1 9.75 -54.05 11.0 -53.1 11.0 -51.4 11.0 -50.4 10.5 -49.75 10.0 -48.95 8.95 -48.4 L9.75 -48.1 Q8.85 -46.9 7.7 -44.65 M-21.8 -41.25 L-21.8 -50.05 -23.7 -48.85 -26.0 -47.95 -26.0 -51.25 Q-23.9 -51.95 -22.85 -52.85 -21.7 -53.8 -21.1 -55.1 L-17.75 -55.1 -17.75 -40.45 -21.0 -40.45 -21.35 -40.8 -21.8 -41.25 M5.6 -40.2 L2.85 -40.7 Q1.8 -41.05 0.95 -42.05 0.25 -42.9 -0.15 -44.25 L3.85 -44.8 Q4.1 -43.55 4.55 -43.1 5.1 -42.65 5.85 -42.65 6.45 -42.65 6.9 -42.95 L5.6 -40.2 M26.8 -38.05 L27.05 -38.05 27.55 -37.85 Q28.4 -37.4 29.25 -36.2 30.3 -34.7 29.85 -33.75 29.45 -32.7 22.7 -28.4 L22.35 -28.15 17.35 -25.25 Q15.4 -24.3 14.95 -24.5 14.1 -24.85 12.3 -27.75 L11.15 -29.75 9.85 -32.2 Q8.55 -35.0 8.9 -35.8 9.35 -36.9 10.6 -37.55 11.95 -38.2 12.9 -37.85 L13.5 -37.3 14.6 -35.25 Q15.5 -33.1 16.2 -32.65 L16.25 -32.65 Q16.9 -32.35 21.6 -35.3 L26.8 -38.05 M-12.55 -53.15 Q-11.95 -54.05 -10.8 -54.6 L-7.65 -55.1 -4.35 -54.65 Q-3.2 -54.1 -2.55 -53.15 -1.85 -52.15 -1.85 -50.9 -1.85 -49.6 -2.6 -48.4 -3.45 -47.15 -5.45 -45.75 L-7.05 -44.6 -8.0 -43.75 -1.75 -43.75 -1.75 -40.45 -13.7 -40.45 Q-13.45 -42.35 -12.45 -43.8 -11.4 -45.4 -8.6 -47.5 -6.75 -48.85 -6.35 -49.5 -5.85 -50.15 -5.85 -50.8 -5.85 -51.4 -6.35 -51.9 -6.8 -52.35 -7.55 -52.35 -8.35 -52.35 -8.8 -51.9 -9.2 -51.4 -9.45 -50.2 L-13.4 -50.5 Q-13.15 -52.25 -12.55 -53.15 M-67.9 -0.35 L-66.4 -2.95 -63.4 -1.7 -60.7 -4.4 -61.95 -7.4 -59.4 -8.9 -57.4 -6.3 -53.75 -7.25 -53.3 -10.5 -50.35 -10.5 -49.95 -7.25 -46.25 -6.3 -44.3 -8.9 -41.7 -7.4 -42.95 -4.4 -40.3 -1.7 -37.35 -2.95 -35.85 -0.35 -38.4 1.6 -37.4 5.25 -34.25 5.65 -34.25 8.65 -37.4 9.05 -38.4 12.75 -35.9 14.65 -37.4 17.25 -40.3 16.05 -42.95 18.7 -41.7 21.6 Q-42.95 22.45 -44.3 23.1 L-46.2 20.6 -49.9 21.6 -50.3 24.75 -53.3 24.75 -53.7 21.6 -57.35 20.65 -59.3 23.15 Q-60.7 22.5 -61.9 21.65 L-60.65 18.75 -63.35 16.05 -66.3 17.3 -67.8 14.7 -65.25 12.75 -66.25 9.1 -69.45 8.7 -69.5 5.7 -66.25 5.3 -65.3 1.6 -67.9 -0.35 M-36.35 -13.95 Q-43.1 -18.85 -51.85 -18.85 L-52.35 -18.85 -54.25 -34.2 -33.7 -36.75 -30.95 -14.65 -36.35 -13.95 M-34.0 -12.1 L-28.55 -12.8 -31.1 -33.3 -29.5 -33.5 -26.75 -11.4 -32.5 -10.65 -32.75 -10.9 -34.0 -12.1 M-48.8 10.15 Q-47.55 8.9 -47.55 7.1 -47.55 5.35 -48.8 4.1 -50.05 2.85 -51.85 2.85 -53.6 2.85 -54.85 4.1 -56.1 5.35 -56.1 7.1 -56.1 8.9 -54.85 10.15 -53.6 11.4 -51.85 11.4 -50.05 11.4 -48.8 10.15" fill="#ffffff" fill-rule="evenodd" stroke="none"/>
    <path d="M9.75 -48.1 L8.95 -48.4 Q10.0 -48.95 10.5 -49.75 11.0 -50.4 11.0 -51.4 11.0 -53.1 9.75 -54.05 8.5 -55.1 5.65 -55.1 3.25 -55.1 1.85 -54.15 0.5 -53.15 0.05 -51.4 L3.85 -50.7 Q4.0 -51.75 4.45 -52.2 4.9 -52.65 5.6 -52.65 6.25 -52.65 6.65 -52.25 7.05 -51.85 7.05 -51.2 7.05 -50.5 6.55 -50.0 6.05 -49.5 5.2 -49.5 L4.7 -49.55 4.5 -46.7 5.8 -46.9 Q6.65 -46.9 7.2 -46.35 7.7 -45.85 7.7 -44.8 L7.7 -44.65 6.9 -42.95 Q6.45 -42.65 5.85 -42.65 5.1 -42.65 4.55 -43.1 4.1 -43.55 3.85 -44.8 L-0.15 -44.25 Q0.25 -42.9 0.95 -42.05 1.8 -41.05 2.85 -40.7 L5.6 -40.2 4.75 -38.2 Q0.55 -28.35 2.0 -26.5 -2.2 -24.7 -7.15 -24.7 -10.6 -24.7 -13.65 -25.55 -14.8 -34.05 -21.0 -40.45 L-17.75 -40.45 -17.75 -55.1 -21.1 -55.1 Q-21.7 -53.8 -22.85 -52.85 -23.9 -51.95 -26.0 -51.25 L-26.0 -47.95 -23.7 -48.85 -21.8 -50.05 -21.8 -41.25 Q-25.6 -44.9 -30.1 -46.75 L-30.15 -47.65 Q-30.15 -57.2 -23.4 -63.95 -16.65 -70.7 -7.15 -70.7 2.45 -70.7 9.1 -63.95 15.45 -57.6 15.85 -48.7 11.8 -50.05 10.8 -49.3 L9.75 -48.1 M-12.55 -53.15 Q-13.15 -52.25 -13.4 -50.5 L-9.45 -50.2 Q-9.2 -51.4 -8.8 -51.9 -8.35 -52.35 -7.55 -52.35 -6.8 -52.35 -6.35 -51.9 -5.85 -51.4 -5.85 -50.8 -5.85 -50.15 -6.35 -49.5 -6.75 -48.85 -8.6 -47.5 -11.4 -45.4 -12.45 -43.8 -13.45 -42.35 -13.7 -40.45 L-1.75 -40.45 -1.75 -43.75 -8.0 -43.75 -7.05 -44.6 -5.45 -45.75 Q-3.45 -47.15 -2.6 -48.4 -1.85 -49.6 -1.85 -50.9 -1.85 -52.15 -2.55 -53.15 -3.2 -54.1 -4.35 -54.65 L-7.65 -55.1 -10.8 -54.6 Q-11.95 -54.05 -12.55 -53.15" fill="#f6e171" fill-rule="evenodd" stroke="none"/>
    <path d="M36.8 -37.7 Q37.25 -35.7 31.9 -25.95 L31.9 -25.9 28.9 -20.9 Q25.75 -16.0 24.15 -15.9 22.35 -15.8 17.15 -18.05 L12.65 -20.15 Q9.1 -21.9 6.7 -23.2 3.0 -25.25 2.0 -26.45 L2.0 -26.5 Q0.55 -28.35 4.75 -38.2 L5.6 -40.2 6.9 -42.95 7.7 -44.65 Q8.85 -46.9 9.75 -48.1 L10.8 -49.3 Q11.8 -50.05 15.85 -48.7 L19.95 -47.15 24.55 -45.1 26.35 -44.25 32.15 -41.15 32.85 -40.75 Q36.55 -38.6 36.8 -37.7 M34.6 -37.45 L34.6 -37.55 Q33.2 -38.65 29.55 -40.65 25.55 -42.85 20.7 -44.9 L20.3 -45.05 Q19.6 -45.35 19.0 -45.6 L16.5 -46.6 16.4 -46.6 16.1 -46.7 16.0 -46.75 15.85 -46.8 12.25 -47.75 11.45 -46.55 10.2 -44.4 10.1 -44.15 8.75 -41.4 8.3 -40.5 7.85 -39.45 7.4 -38.4 Q5.7 -34.4 4.9 -31.65 4.2 -29.1 4.25 -28.3 L4.7 -27.9 Q6.05 -26.95 9.3 -25.15 L9.4 -25.1 Q13.95 -22.7 18.15 -20.85 L19.45 -20.3 Q22.65 -19.05 24.05 -18.8 L26.0 -21.0 26.35 -21.45 26.35 -21.5 29.25 -26.1 30.2 -27.8 33.2 -33.85 33.3 -34.0 33.4 -34.2 34.4 -36.8 34.6 -37.45" fill="#096946" fill-rule="evenodd" stroke="none"/>
    <path d="M34.6 -37.45 L34.4 -36.8 33.4 -34.2 33.3 -34.0 33.2 -33.85 30.2 -27.8 29.25 -26.1 26.35 -21.5 26.35 -21.45 26.0 -21.0 24.05 -18.8 Q22.65 -19.05 19.45 -20.3 L18.15 -20.85 Q13.95 -22.7 9.4 -25.1 L9.3 -25.15 Q6.05 -26.95 4.7 -27.9 L4.25 -28.3 Q4.2 -29.1 4.9 -31.65 5.7 -34.4 7.4 -38.4 L7.85 -39.45 8.3 -40.5 8.75 -41.4 10.1 -44.15 10.2 -44.4 11.45 -46.55 12.25 -47.75 15.85 -46.8 16.0 -46.75 16.1 -46.7 16.4 -46.6 16.5 -46.6 19.0 -45.6 Q19.6 -45.35 20.3 -45.05 L20.7 -44.9 Q25.55 -42.85 29.55 -40.65 33.2 -38.65 34.6 -37.55 L34.6 -37.45 M26.8 -38.05 L21.6 -35.3 Q16.9 -32.35 16.25 -32.65 L16.2 -32.65 Q15.5 -33.1 14.6 -35.25 L13.5 -37.3 12.9 -37.85 Q11.95 -38.2 10.6 -37.55 9.35 -36.9 8.9 -35.8 8.55 -35.0 9.85 -32.2 L11.15 -29.75 12.3 -27.75 Q14.1 -24.85 14.95 -24.5 15.4 -24.3 17.35 -25.25 L22.35 -28.15 22.7 -28.4 Q29.45 -32.7 29.85 -33.75 30.3 -34.7 29.25 -36.2 28.4 -37.4 27.55 -37.85 L27.05 -38.05 26.8 -38.05" fill="#44aa4a" fill-rule="evenodd" stroke="none"/>
    <path d="M18.85 -5.1 L18.85 -5.0 18.65 -4.9 18.85 -5.1 M26.3 -1.45 Q25.85 -2.8 26.2 -5.15 26.4 -6.5 24.95 -6.6 23.5 -6.75 23.05 -5.25 22.35 -2.8 23.7 0.1 25.1 3.05 27.75 4.35 29.05 5.0 29.6 3.75 30.2 2.45 29.25 1.9 26.9 0.45 26.3 -1.45 M55.8 23.45 L50.45 23.05 Q48.05 28.5 42.9 32.0 40.15 33.9 36.35 35.0 L28.2 35.4 Q23.5 34.2 19.8 30.8 16.65 27.9 14.55 23.75 12.65 19.85 11.85 15.25 10.9 9.65 12.25 5.8 13.05 3.65 14.95 1.85 16.8 0.1 19.15 -0.75 20.35 4.2 22.9 6.5 26.4 9.8 31.3 10.15 31.95 10.3 33.55 11.75 35.5 13.6 36.75 15.8 40.45 22.3 35.8 28.2 L36.9 28.1 Q38.05 27.8 38.85 26.6 42.25 21.45 40.4 15.55 39.75 13.45 36.8 8.7 L39.8 6.9 Q41.6 5.65 41.55 5.2 37.0 6.8 34.0 7.0 L28.85 6.45 Q25.95 5.75 23.95 3.25 22.15 0.9 21.7 -2.1 21.45 -4.1 22.0 -6.15 22.6 -8.3 24.0 -9.8 26.65 -12.6 30.7 -12.95 35.7 -13.4 40.6 -9.65 43.5 -7.35 47.25 -1.35 L51.8 -3.25 52.15 -2.45 53.1 0.7 Q53.6 2.4 54.85 1.75 56.1 1.1 55.55 -0.5 L54.15 -4.1 57.4 -5.05 Q59.0 -1.05 60.55 7.9 62.45 19.25 60.65 23.5 L58.4 23.5 Q59.15 19.3 58.7 17.85 58.45 17.1 57.4 17.15 56.4 17.2 56.35 17.85 L55.8 23.45 M54.6 6.1 Q55.15 8.1 55.8 12.65 56.0 14.05 57.25 14.05 58.5 14.05 58.4 12.55 57.9 6.9 56.85 5.4 56.4 4.75 55.45 5.15 54.5 5.5 54.6 6.1 M13.05 10.85 Q13.25 11.85 14.2 12.0 15.1 12.1 15.6 11.5 16.5 10.25 15.9 8.55 15.6 7.75 14.8 7.55 14.0 7.35 13.45 8.15 12.65 9.25 13.05 10.85 M16.9 16.0 Q16.2 12.85 14.7 13.5 13.15 14.15 13.75 16.8 14.65 21.05 16.95 24.75 19.65 29.05 23.4 30.85 24.6 31.45 25.1 31.45 L25.7 31.0 Q26.05 30.4 25.75 29.45 25.4 28.45 24.55 28.0 18.9 24.85 16.9 16.0" fill="#de3e53" fill-rule="evenodd" stroke="none"/>
    <path d="M18.85 -5.1 L19.1 -6.75 Q19.8 -10.55 22.15 -12.75 24.35 -14.8 27.45 -15.75 30.55 -16.75 34.05 -16.4 37.4 -16.05 40.9 -13.55 L41.3 -13.25 Q45.2 -10.35 47.7 -5.9 49.85 -6.5 53.2 -8.2 56.3 -9.8 58.25 -10.25 61.05 -7.45 63.9 7.75 65.65 17.35 65.15 22.95 64.75 26.95 63.15 28.85 L57.2 27.75 52.6 26.8 Q49.35 32.9 43.1 36.35 37.3 39.5 31.15 39.3 L30.7 39.25 Q25.45 39.0 20.8 35.75 16.0 32.45 12.85 26.75 9.25 20.25 8.7 13.6 L8.6 11.25 Q8.6 7.15 9.85 3.7 L10.0 3.35 Q12.35 -2.6 18.65 -4.9 L18.85 -5.0 18.85 -5.1 M51.8 -3.25 L47.25 -1.35 Q43.5 -7.35 40.6 -9.65 35.7 -13.4 30.7 -12.95 26.65 -12.6 24.0 -9.8 22.6 -8.3 22.0 -6.15 21.45 -4.1 21.7 -2.1 22.15 0.9 23.95 3.25 25.95 5.75 28.85 6.45 L34.0 7.0 Q37.0 6.8 41.55 5.2 41.6 5.65 39.8 6.9 L36.8 8.7 Q39.75 13.45 40.4 15.55 42.25 21.45 38.85 26.6 38.05 27.8 36.9 28.1 L35.8 28.2 Q40.45 22.3 36.75 15.8 35.5 13.6 33.55 11.75 31.95 10.3 31.3 10.15 26.4 9.8 22.9 6.5 20.35 4.2 19.15 -0.75 16.8 0.1 14.95 1.85 13.05 3.65 12.25 5.8 10.9 9.65 11.85 15.25 12.65 19.85 14.55 23.75 16.65 27.9 19.8 30.8 23.5 34.2 28.2 35.4 L36.35 35.0 Q40.15 33.9 42.9 32.0 48.05 28.5 50.45 23.05 L55.8 23.45 58.4 23.5 60.65 23.5 Q62.45 19.25 60.55 7.9 59.0 -1.05 57.4 -5.05 L54.15 -4.1 51.8 -3.25" fill="#7f092c" fill-rule="evenodd" stroke="none"/>
    <path d="M26.3 -1.45 Q26.9 0.45 29.25 1.9 30.2 2.45 29.6 3.75 29.05 5.0 27.75 4.35 25.1 3.05 23.7 0.1 22.35 -2.8 23.05 -5.25 23.5 -6.75 24.95 -6.6 26.4 -6.5 26.2 -5.15 25.85 -2.8 26.3 -1.45 M13.05 10.85 Q12.65 9.25 13.45 8.15 14.0 7.35 14.8 7.55 15.6 7.75 15.9 8.55 16.5 10.25 15.6 11.5 15.1 12.1 14.2 12.0 13.25 11.85 13.05 10.85 M16.9 16.0 Q18.9 24.85 24.55 28.0 25.4 28.45 25.75 29.45 26.05 30.4 25.7 31.0 L25.1 31.45 Q24.6 31.45 23.4 30.85 19.65 29.05 16.95 24.75 14.65 21.05 13.75 16.8 13.15 14.15 14.7 13.5 16.2 12.85 16.9 16.0" fill="#ed7c88" fill-rule="evenodd" stroke="none"/>
    <path d="M51.8 -3.25 L54.15 -4.1 55.55 -0.5 Q56.1 1.1 54.85 1.75 53.6 2.4 53.1 0.7 L52.15 -2.45 51.8 -3.25 M58.4 23.5 L55.8 23.45 56.35 17.85 Q56.4 17.2 57.4 17.15 58.45 17.1 58.7 17.85 59.15 19.3 58.4 23.5 M54.6 6.1 Q54.5 5.5 55.45 5.15 56.4 4.75 56.85 5.4 57.9 6.9 58.4 12.55 58.5 14.05 57.25 14.05 56.0 14.05 55.8 12.65 55.15 8.1 54.6 6.1" fill="#8f2c29" fill-rule="evenodd" stroke="none"/>
    <path d="M2.1 17.7 Q2.55 18.6 1.95 19.3 1.4 19.95 0.6 19.8 -0.1 19.7 -0.7 19.1 -1.3 18.55 -1.55 17.8 -1.85 17.0 -1.4 16.35 -0.95 15.7 0.0 15.9 1.25 16.2 2.1 17.7 M2.6 20.75 Q4.15 20.2 5.5 22.6 7.6 26.4 8.3 30.7 9.1 35.7 7.5 39.55 L6.6 41.1 5.85 41.15 Q5.2 40.95 4.8 40.05 4.45 39.05 4.75 38.15 6.9 32.05 2.55 24.1 1.0 21.25 2.6 20.75 M-15.05 23.25 Q-16.35 22.7 -16.05 21.65 -15.25 19.0 -16.0 17.2 -16.55 15.9 -18.4 14.3 -19.4 13.45 -18.4 12.4 -17.35 11.35 -16.05 12.2 -13.9 13.6 -13.05 16.6 -12.15 19.75 -13.25 22.5 -13.8 23.8 -15.05 23.25" fill="#5ebfed" fill-rule="evenodd" stroke="none"/>
    <path d="M2.6 20.75 Q1.0 21.25 2.55 24.1 6.9 32.05 4.75 38.15 4.45 39.05 4.8 40.05 5.2 40.95 5.85 41.15 L6.6 41.1 7.5 39.55 Q9.1 35.7 8.3 30.7 7.6 26.4 5.5 22.6 4.15 20.2 2.6 20.75 M2.1 17.7 Q1.25 16.2 0.0 15.9 -0.95 15.7 -1.4 16.35 -1.85 17.0 -1.55 17.8 -1.3 18.55 -0.7 19.1 -0.1 19.7 0.6 19.8 1.4 19.95 1.95 19.3 2.55 18.6 2.1 17.7 M-12.45 9.5 L-12.7 9.6 -12.8 9.5 -12.45 9.5 M-36.3 32.65 L-31.7 31.05 Q-32.85 24.0 -32.15 20.45 -30.9 14.35 -26.9 11.4 -23.6 9.0 -19.8 9.4 -17.75 9.6 -15.85 10.8 -14.05 12.0 -13.0 13.65 -11.35 16.25 -11.15 19.15 -11.0 22.35 -12.7 24.8 -14.35 27.2 -16.2 28.6 -18.6 30.5 -23.05 32.25 L-20.6 32.35 -17.2 31.7 Q-16.25 37.3 -15.35 39.25 -12.85 44.95 -6.95 46.55 L-4.5 46.35 -3.6 45.7 Q-10.95 44.35 -12.5 37.0 -13.0 34.55 -12.7 31.9 -12.5 29.7 -12.1 29.2 -8.65 25.7 -8.2 20.9 -7.8 17.5 -10.15 12.95 -7.85 12.05 -5.25 12.15 -2.65 12.25 -0.65 13.4 2.9 15.4 5.9 20.2 8.35 24.2 9.45 28.35 10.6 32.85 10.15 37.1 9.6 42.1 6.85 46.1 4.8 49.1 0.45 51.2 -3.05 52.85 -6.4 53.25 -12.45 54.05 -18.0 51.55 L-21.75 55.3 -25.85 51.5 Q-26.3 51.05 -27.1 51.65 -27.9 52.3 -27.6 53.0 -27.0 54.5 -23.7 57.1 L-25.35 58.6 Q-29.5 56.6 -35.55 46.75 -40.25 39.1 -41.75 34.95 -40.5 34.3 -38.65 33.55 L-37.35 37.2 Q-36.7 38.8 -35.35 38.4 -34.0 38.0 -34.7 36.45 L-36.05 33.45 -36.3 32.65 M-15.05 23.25 Q-13.8 23.8 -13.25 22.5 -12.15 19.75 -13.05 16.6 -13.9 13.6 -16.05 12.2 -17.35 11.35 -18.4 12.4 -19.4 13.45 -18.4 14.3 -16.55 15.9 -16.0 17.2 -15.25 19.0 -16.05 21.65 -16.35 22.7 -15.05 23.25 M-33.55 41.35 Q-34.5 41.7 -34.45 42.45 -34.2 44.4 -30.9 48.85 -30.0 50.05 -29.05 49.2 -28.1 48.4 -28.85 47.25 -31.15 43.85 -32.3 41.55 -32.55 40.95 -33.55 41.35" fill="#1279bf" fill-rule="evenodd" stroke="none"/>
    <path d="M1.55 11.3 Q4.6 13.4 7.15 16.85 11.1 22.25 12.7 29.5 14.1 35.85 12.7 41.5 11.65 45.65 9.25 48.75 L7.55 50.65 Q2.95 55.15 -3.7 56.65 -10.65 58.2 -17.15 55.75 L-19.95 59.55 -23.7 64.25 -23.85 64.25 Q-29.75 63.1 -38.15 48.9 -42.1 42.25 -44.0 37.95 L-45.3 34.6 Q-45.9 32.75 -45.85 31.6 -44.1 30.65 -40.65 29.8 -37.05 28.9 -35.0 27.9 L-35.55 23.4 Q-35.65 20.75 -35.1 18.2 -34.15 13.65 -31.7 11.05 L-28.9 8.65 Q-27.65 7.75 -26.3 7.15 L-24.85 6.6 Q-23.15 6.0 -21.5 5.95 L-20.35 5.95 Q-16.45 6.1 -12.8 9.5 L-12.7 9.6 -12.45 9.5 -11.95 9.3 Q-8.0 7.9 -4.2 8.75 -2.2 9.15 -0.25 10.2 L1.55 11.3 M-21.75 55.3 L-18.0 51.55 Q-12.45 54.05 -6.4 53.25 -3.05 52.85 0.45 51.2 4.8 49.1 6.85 46.1 9.6 42.1 10.15 37.1 10.6 32.85 9.45 28.35 8.35 24.2 5.9 20.2 2.9 15.4 -0.65 13.4 -2.65 12.25 -5.25 12.15 -7.85 12.05 -10.15 12.95 -7.8 17.5 -8.2 20.9 -8.65 25.7 -12.1 29.2 -12.5 29.7 -12.7 31.9 -13.0 34.55 -12.5 37.0 -10.95 44.35 -3.6 45.7 L-4.5 46.35 -6.95 46.55 Q-12.85 44.95 -15.35 39.25 -16.25 37.3 -17.2 31.7 L-20.6 32.35 -23.05 32.25 Q-18.6 30.5 -16.2 28.6 -14.35 27.2 -12.7 24.8 -11.0 22.35 -11.15 19.15 -11.35 16.25 -13.0 13.65 -14.05 12.0 -15.85 10.8 -17.75 9.6 -19.8 9.4 -23.6 9.0 -26.9 11.4 -30.9 14.35 -32.15 20.45 -32.85 24.0 -31.7 31.05 L-36.3 32.65 -36.8 32.8 -38.65 33.55 Q-40.5 34.3 -41.75 34.95 -40.25 39.1 -35.55 46.75 -29.5 56.6 -25.35 58.6 L-23.7 57.1 -21.75 55.3" fill="#00435d" fill-rule="evenodd" stroke="none"/>
    <path d="M-30.1 -46.75 Q-25.6 -44.9 -21.8 -41.25 L-21.35 -40.8 -21.0 -40.45 Q-14.8 -34.05 -13.65 -25.55 L-13.4 -21.65 -13.4 -20.2 Q-13.6 -17.0 -14.4 -14.05 -15.85 -9.05 -19.3 -4.8 L-21.35 -2.55 Q-23.4 -0.5 -25.7 1.05 -26.35 -1.45 -27.5 -3.75 L-24.75 -6.05 -24.25 -6.55 Q-19.35 -11.35 -18.0 -17.65 -17.6 -19.5 -17.5 -21.5 L-17.5 -22.75 Q-17.5 -25.1 -17.9 -27.3 -19.15 -33.95 -24.25 -39.05 -26.8 -41.65 -29.75 -43.2 -31.85 -44.35 -34.15 -44.95 L-40.5 -45.8 -45.6 -45.25 Q-51.95 -43.9 -56.8 -39.05 -63.5 -32.35 -63.5 -22.75 -63.5 -19.55 -62.75 -16.65 L-65.2 -15.4 -66.65 -14.5 -66.95 -15.8 Q-67.55 -18.6 -67.55 -21.65 -67.55 -32.8 -59.65 -40.8 -54.55 -45.9 -48.05 -47.7 -44.5 -48.75 -40.5 -48.75 L-34.15 -48.05 Q-32.1 -47.6 -30.1 -46.75" fill="#168045" fill-rule="evenodd" stroke="none"/>
    <path d="M-62.75 -16.65 Q-63.5 -19.55 -63.5 -22.75 -63.5 -32.35 -56.8 -39.05 -51.95 -43.9 -45.6 -45.25 L-40.5 -45.8 -34.15 -44.95 Q-31.85 -44.35 -29.75 -43.2 -26.8 -41.65 -24.25 -39.05 -19.15 -33.95 -17.9 -27.3 -17.5 -25.1 -17.5 -22.75 L-17.5 -21.5 Q-17.6 -19.5 -18.0 -17.65 -19.35 -11.35 -24.25 -6.55 L-24.75 -6.05 -27.5 -3.75 -29.55 -7.15 -32.5 -10.65 -26.75 -11.4 -29.5 -33.5 -31.1 -33.3 -28.55 -12.8 -34.0 -12.1 -36.35 -13.95 -30.95 -14.65 -33.7 -36.75 -54.25 -34.2 -52.35 -18.85 Q-57.95 -18.75 -62.75 -16.65" fill="#7ac281" fill-rule="evenodd" stroke="none"/>
    <path d="M-69.75 28.6 L-71.0 27.4 Q-73.2 25.2 -74.75 22.8 -78.95 16.35 -78.95 8.25 -78.95 -2.95 -71.0 -10.9 L-66.65 -14.5 -65.2 -15.4 -62.75 -16.65 Q-57.95 -18.75 -52.35 -18.85 L-51.85 -18.85 Q-43.1 -18.85 -36.35 -13.95 L-34.0 -12.1 -32.75 -10.9 -32.5 -10.65 -29.55 -7.15 -27.5 -3.75 Q-26.35 -1.45 -25.7 1.05 -25.0 3.7 -24.85 6.6 L-26.3 7.15 Q-27.65 7.75 -28.9 8.65 L-28.85 8.3 -28.85 7.1 Q-28.85 -1.9 -34.85 -8.4 L-35.6 -9.15 Q-42.25 -15.9 -51.85 -15.9 -56.5 -15.9 -60.45 -14.3 -64.65 -12.6 -68.1 -9.15 -74.85 -2.45 -74.85 7.1 -74.85 15.2 -70.0 21.3 L-68.1 23.4 Q-61.4 30.15 -51.85 30.15 -42.25 30.15 -35.6 23.4 L-35.55 23.4 -35.0 27.9 Q-37.05 28.9 -40.65 29.8 -44.1 30.65 -45.85 31.6 -45.9 32.75 -45.3 34.6 L-51.85 35.35 Q-62.2 35.35 -69.75 28.6" fill="#95205c" fill-rule="evenodd" stroke="none"/>
    <path d="M-28.9 8.65 L-31.7 11.05 Q-34.15 13.65 -35.1 18.2 -35.65 20.75 -35.55 23.4 L-35.6 23.4 Q-42.25 30.15 -51.85 30.15 -61.4 30.15 -68.1 23.4 L-70.0 21.3 Q-74.85 15.2 -74.85 7.1 -74.85 -2.45 -68.1 -9.15 -64.65 -12.6 -60.45 -14.3 -56.5 -15.9 -51.85 -15.9 -42.25 -15.9 -35.6 -9.15 L-34.85 -8.4 Q-28.85 -1.9 -28.85 7.1 L-28.85 8.3 -28.9 8.65 M-67.9 -0.35 L-65.3 1.6 -66.25 5.3 -69.5 5.7 -69.45 8.7 -66.25 9.1 -65.25 12.75 -67.8 14.7 -66.3 17.3 -63.35 16.05 -60.65 18.75 -61.9 21.65 Q-60.7 22.5 -59.3 23.15 L-57.35 20.65 -53.7 21.6 -53.3 24.75 -50.3 24.75 -49.9 21.6 -46.2 20.6 -44.3 23.1 Q-42.95 22.45 -41.7 21.6 L-42.95 18.7 -40.3 16.05 -37.4 17.25 -35.9 14.65 -38.4 12.75 -37.4 9.05 -34.25 8.65 -34.25 5.65 -37.4 5.25 -38.4 1.6 -35.85 -0.35 -37.35 -2.95 -40.3 -1.7 -42.95 -4.4 -41.7 -7.4 -44.3 -8.9 -46.25 -6.3 -49.95 -7.25 -50.35 -10.5 -53.3 -10.5 -53.75 -7.25 -57.4 -6.3 -59.4 -8.9 -61.95 -7.4 -60.7 -4.4 -63.4 -1.7 -66.4 -2.95 -67.9 -0.35 M-48.8 10.15 Q-50.05 11.4 -51.85 11.4 -53.6 11.4 -54.85 10.15 -56.1 8.9 -56.1 7.1 -56.1 5.35 -54.85 4.1 -53.6 2.85 -51.85 2.85 -50.05 2.85 -48.8 4.1 -47.55 5.35 -47.55 7.1 -47.55 8.9 -48.8 10.15" fill="#e86878" fill-rule="evenodd" stroke="none"/>
    <path d="M-21.75 55.3 L-23.7 57.1 Q-27.0 54.5 -27.6 53.0 -27.9 52.3 -27.1 51.65 -26.3 51.05 -25.85 51.5 L-21.75 55.3 M-38.65 33.55 L-36.8 32.8 -36.3 32.65 -36.05 33.45 -34.7 36.45 Q-34.0 38.0 -35.35 38.4 -36.7 38.8 -37.35 37.2 L-38.65 33.55 M-33.55 41.35 Q-32.55 40.95 -32.3 41.55 -31.15 43.85 -28.85 47.25 -28.1 48.4 -29.05 49.2 -30.0 50.05 -30.9 48.85 -34.2 44.4 -34.45 42.45 -34.5 41.7 -33.55 41.35" fill="#00568d" fill-rule="evenodd" stroke="none"/>
  </g>
</svg>
