<?xml version="1.0" encoding="UTF-8" standalone="no"?>
<svg xmlns:ffdec="https://www.free-decompiler.com/flash" xmlns:xlink="http://www.w3.org/1999/xlink" ffdec:objectType="shape" height="375.25px" width="342.55px" xmlns="http://www.w3.org/2000/svg">
  <g transform="matrix(1.0, 0.0, 0.0, 1.0, 169.75, 174.65)">
    <path d="M96.75 -173.1 Q168.35 -171.25 170.4 -169.2 172.65 -166.9 172.8 -89.5 172.9 -49.2 172.5 6.65 172.5 84.55 172.3 109.35 171.7 193.25 169.4 196.15 167.05 199.1 98.2 200.1 38.7 201.0 15.3 200.2 L-81.15 198.85 -167.4 196.15 Q-169.7 194.7 -169.75 110.05 -169.75 54.1 -169.1 6.65 L-168.65 -87.15 Q-168.15 -163.85 -166.6 -167.8 -165.05 -171.6 -83.9 -173.45 -32.8 -174.65 11.85 -174.65 38.15 -174.65 96.75 -173.1" fill="url(#gradient0)" fill-rule="evenodd" stroke="none"/>
  </g>
  <defs>
    <linearGradient gradientTransform="matrix(0.2091, 0.0, 0.0, 0.229, 1.5, 12.95)" gradientUnits="userSpaceOnUse" id="gradient0" spreadMethod="pad" x1="-819.2" x2="819.2">
      <stop offset="0.0" stop-color="#3c80c4"/>
      <stop offset="1.0" stop-color="#000000"/>
    </linearGradient>
  </defs>
</svg>
