<?xml version="1.0" encoding="UTF-8" standalone="no"?>
<svg xmlns:ffdec="https://www.free-decompiler.com/flash" xmlns:xlink="http://www.w3.org/1999/xlink" ffdec:objectType="shape" height="109.0px" width="77.45px" xmlns="http://www.w3.org/2000/svg">
  <g transform="matrix(1.0, 0.0, 0.0, 1.0, 38.6, 54.5)">
    <path d="M-17.5 47.85 L-14.6 48.0 2.45 48.7 Q9.2 48.9 19.5 48.4 30.9 47.8 31.9 46.8 32.9 45.8 34.2 27.15 35.4 10.0 35.4 2.55 L34.95 -25.75 Q34.3 -48.15 33.4 -48.9 32.5 -49.6 19.45 -50.6 L1.1 -51.6 -16.05 -50.75 Q-27.4 -49.75 -28.05 -48.45 -28.65 -47.25 -29.05 -25.05 L-29.45 2.55 Q-29.55 11.6 -29.1 27.4 L-29.0 30.4 -29.25 30.5 Q-31.95 31.5 -33.4 33.5 -35.55 36.3 -35.55 40.35 -35.55 44.5 -33.3 47.2 -30.4 50.7 -25.1 50.7 -22.6 50.7 -20.45 49.8 -18.7 49.05 -17.5 47.85 M0.9 -54.5 L21.2 -53.45 Q35.65 -52.35 36.6 -51.6 37.65 -50.8 38.35 -26.75 L38.85 3.8 Q38.85 12.05 37.6 30.45 36.2 50.6 35.1 51.65 34.05 52.7 21.3 53.4 9.9 53.95 2.4 53.75 L-16.45 52.95 -17.35 52.9 -18.15 53.25 Q-21.05 54.5 -24.5 54.5 -31.6 54.5 -35.55 49.75 -38.6 46.05 -38.6 40.5 -38.6 35.25 -35.7 31.25 -34.45 29.55 -32.55 28.4 -33.05 12.55 -32.9 3.8 L-32.5 -25.95 Q-32.05 -49.75 -31.35 -51.1 -30.65 -52.5 -18.05 -53.6 L0.9 -54.5" fill="#383332" fill-rule="evenodd" stroke="none"/>
    <path d="M-29.0 30.4 L-29.1 27.4 Q-29.55 11.6 -29.45 2.55 L-29.05 -25.05 Q-28.65 -47.25 -28.05 -48.45 -27.4 -49.75 -16.05 -50.75 L1.1 -51.6 19.45 -50.6 Q32.5 -49.6 33.4 -48.9 34.3 -48.15 34.95 -25.75 L35.4 2.55 Q35.4 10.0 34.2 27.15 32.9 45.8 31.9 46.8 30.9 47.8 19.5 48.4 9.2 48.9 2.45 48.7 L-14.6 48.0 -17.5 47.85 -16.7 46.9 Q-14.6 44.15 -14.6 40.35 -14.6 36.25 -16.9 33.5 -19.65 30.15 -24.55 29.8 -26.8 29.65 -29.0 30.4 M29.3 -44.95 Q28.5 -45.75 18.35 -46.45 L3.35 -47.1 -12.45 -46.45 Q-23.45 -45.75 -24.1 -44.95 -24.65 -44.2 -25.1 -34.1 -25.5 -25.4 -25.5 -19.55 L-25.2 -5.0 Q-24.75 4.65 -23.75 5.15 L-11.9 6.25 3.35 6.75 18.5 6.3 Q28.9 5.6 29.3 4.75 30.05 3.15 30.85 -20.7 31.0 -26.55 30.55 -34.8 30.1 -44.15 29.3 -44.95" fill="#4c4948" fill-rule="evenodd" stroke="none"/>
    <path d="M25.95 -41.7 Q25.25 -42.4 16.35 -43.0 L3.25 -43.55 -10.55 -43.0 Q-20.15 -42.4 -20.7 -41.7 -21.2 -41.05 -21.6 -32.35 L-21.95 -19.75 -21.7 -7.05 Q-21.3 1.4 -20.4 1.85 L-10.05 2.8 3.25 3.25 16.55 2.8 Q25.6 2.2 25.95 1.5 26.3 0.75 26.8 -7.55 L27.3 -19.6 Q27.45 -24.7 27.05 -32.35 26.65 -41.0 25.95 -41.7 M29.3 -44.95 Q30.1 -44.15 30.55 -34.8 31.0 -26.55 30.85 -20.7 30.05 3.15 29.3 4.75 28.9 5.6 18.5 6.3 L3.35 6.75 -11.9 6.25 -23.75 5.15 Q-24.75 4.65 -25.2 -5.0 L-25.5 -19.55 Q-25.5 -25.4 -25.1 -34.1 -24.65 -44.2 -24.1 -44.95 -23.45 -45.75 -12.45 -46.45 L3.35 -47.1 18.35 -46.45 Q28.5 -45.75 29.3 -44.95" fill="#231916" fill-rule="evenodd" stroke="none"/>
    <path d="M-17.5 47.85 Q-18.7 49.05 -20.45 49.8 -22.6 50.7 -25.1 50.7 -30.4 50.7 -33.3 47.2 -35.55 44.5 -35.55 40.35 -35.55 36.3 -33.4 33.5 -31.95 31.5 -29.25 30.5 L-29.0 30.4 Q-26.8 29.65 -24.55 29.8 -19.65 30.15 -16.9 33.5 -14.6 36.25 -14.6 40.35 -14.6 44.15 -16.7 46.9 L-17.5 47.85 M-30.7 45.05 Q-28.5 46.9 -25.3 46.9 -22.0 46.9 -19.8 45.05 -17.4 43.1 -17.4 39.25 -17.4 35.5 -19.85 33.5 -22.2 31.6 -25.3 31.6 -28.65 31.6 -30.8 33.65 -33.2 35.85 -33.2 39.25 -33.2 43.0 -30.7 45.05" fill="#bd7300" fill-rule="evenodd" stroke="none"/>
    <path d="M-30.7 45.05 Q-33.2 43.0 -33.2 39.25 -33.2 35.85 -30.8 33.65 -28.65 31.6 -25.3 31.6 -22.2 31.6 -19.85 33.5 -17.4 35.5 -17.4 39.25 -17.4 43.1 -19.8 45.05 -22.0 46.9 -25.3 46.9 -28.5 46.9 -30.7 45.05" fill="#f7ae00" fill-rule="evenodd" stroke="none"/>
  </g>
</svg>
