<?xml version="1.0" encoding="UTF-8" standalone="no"?>
<svg xmlns:ffdec="https://www.free-decompiler.com/flash" xmlns:xlink="http://www.w3.org/1999/xlink" ffdec:objectType="shape" height="109.0px" width="77.45px" xmlns="http://www.w3.org/2000/svg">
  <g transform="matrix(1.0, 0.0, 0.0, 1.0, 38.6, 54.5)">
    <path d="M-17.45 47.8 Q-18.7 49.05 -20.45 49.8 -22.6 50.7 -25.1 50.7 -30.4 50.7 -33.3 47.2 -35.6 44.4 -35.6 40.35 -35.6 36.4 -33.45 33.5 -31.95 31.5 -29.25 30.5 L-29.0 30.45 Q-26.8 29.65 -24.55 29.8 -19.75 30.05 -16.9 33.5 -14.65 36.2 -14.65 40.35 -14.65 44.1 -16.7 46.9 L-17.45 47.8 M-30.75 45.05 Q-28.5 46.85 -25.3 46.85 -21.95 46.85 -19.8 45.05 -17.4 43.1 -17.4 39.2 -17.4 35.5 -19.9 33.45 -22.2 31.55 -25.3 31.55 -28.6 31.55 -30.8 33.65 -33.2 35.85 -33.2 39.2 -33.2 43.05 -30.75 45.05" fill="#bd7300" fill-rule="evenodd" stroke="none"/>
    <path d="M-30.75 45.05 Q-33.2 43.05 -33.2 39.2 -33.2 35.85 -30.8 33.65 -28.6 31.55 -25.3 31.55 -22.2 31.55 -19.9 33.45 -17.4 35.5 -17.4 39.2 -17.4 43.1 -19.8 45.05 -21.95 46.85 -25.3 46.85 -28.5 46.85 -30.75 45.05" fill="#f7ae00" fill-rule="evenodd" stroke="none"/>
    <path d="M-31.4 -51.15 Q-30.7 -52.55 -18.1 -53.6 L0.9 -54.5 21.2 -53.5 Q35.6 -52.4 36.6 -51.65 37.65 -50.85 38.35 -26.75 38.85 -8.55 38.85 3.8 38.85 12.0 37.6 30.45 36.2 50.55 35.1 51.65 34.05 52.7 21.3 53.35 9.95 53.95 2.35 53.7 L-16.45 52.9 -17.35 52.85 -18.2 53.25 Q-21.1 54.5 -24.5 54.5 -31.6 54.5 -35.55 49.75 -38.6 46.05 -38.6 40.5 -38.6 35.1 -35.75 31.25 -34.5 29.55 -32.6 28.4 -33.05 12.7 -32.9 3.8 L-32.5 -25.95 Q-32.05 -49.75 -31.4 -51.15 M-17.45 47.8 L-14.6 47.95 2.45 48.7 Q9.3 48.9 19.45 48.35 30.9 47.75 31.85 46.8 32.85 45.8 34.15 27.15 35.4 9.95 35.4 2.55 L34.9 -25.8 Q34.3 -48.2 33.35 -48.95 32.45 -49.65 19.4 -50.65 L1.1 -51.65 -16.05 -50.8 Q-27.45 -49.8 -28.1 -48.5 -28.7 -47.25 -29.1 -25.05 L-29.45 2.55 Q-29.6 11.2 -29.1 27.4 L-29.0 30.45 -29.25 30.5 Q-31.95 31.5 -33.45 33.5 -35.6 36.4 -35.6 40.35 -35.6 44.4 -33.3 47.2 -30.4 50.7 -25.1 50.7 -22.6 50.7 -20.45 49.8 -18.7 49.05 -17.45 47.8" fill="#51301d" fill-rule="evenodd" stroke="none"/>
    <path d="M-29.0 30.45 L-29.1 27.4 Q-29.6 11.2 -29.45 2.55 L-29.1 -25.05 Q-28.7 -47.25 -28.1 -48.5 -27.45 -49.8 -16.05 -50.8 L1.1 -51.65 19.4 -50.65 Q32.45 -49.65 33.35 -48.95 34.3 -48.2 34.9 -25.8 L35.4 2.55 Q35.4 9.95 34.15 27.15 32.85 45.8 31.85 46.8 30.9 47.75 19.45 48.35 9.3 48.9 2.45 48.7 L-14.6 47.95 -17.45 47.8 -16.7 46.9 Q-14.65 44.1 -14.65 40.35 -14.65 36.2 -16.9 33.5 -19.75 30.05 -24.55 29.8 -26.8 29.65 -29.0 30.45 M-25.1 -34.15 Q-25.5 -25.45 -25.5 -19.6 L-25.2 -5.05 Q-24.75 4.65 -23.75 5.15 L-11.9 6.25 3.3 6.75 18.5 6.25 Q28.9 5.55 29.3 4.75 29.7 3.9 30.2 -6.3 L30.8 -20.75 Q31.0 -26.35 30.55 -34.8 30.05 -44.1 29.3 -44.95 28.5 -45.8 18.3 -46.5 L3.3 -47.1 -12.5 -46.45 Q-23.5 -45.75 -24.1 -44.95 -24.65 -44.25 -25.1 -34.15" fill="#804f21" fill-rule="evenodd" stroke="none"/>
    <path d="M-25.1 -34.15 Q-24.65 -44.25 -24.1 -44.95 -23.5 -45.75 -12.5 -46.45 L3.3 -47.1 18.3 -46.5 Q28.5 -45.8 29.3 -44.95 30.05 -44.1 30.55 -34.8 31.0 -26.35 30.8 -20.75 L30.2 -6.3 Q29.7 3.9 29.3 4.75 28.9 5.55 18.5 6.25 L3.3 6.75 -11.9 6.25 -23.75 5.15 Q-24.75 4.65 -25.2 -5.05 L-25.5 -19.6 Q-25.5 -25.45 -25.1 -34.15 M-21.6 -32.4 L-21.95 -19.8 -21.7 -7.05 Q-21.3 1.4 -20.4 1.85 L-10.05 2.8 3.25 3.25 16.5 2.8 Q25.55 2.2 25.9 1.45 26.25 0.75 26.75 -7.6 L27.25 -19.65 Q27.4 -24.8 27.05 -32.4 26.6 -41.0 25.9 -41.7 25.25 -42.45 16.35 -43.05 L3.25 -43.6 -10.6 -43.05 Q-20.2 -42.4 -20.75 -41.7 -21.2 -41.05 -21.6 -32.4" fill="#2e1201" fill-rule="evenodd" stroke="none"/>
  </g>
</svg>
