<?xml version="1.0" encoding="UTF-8" standalone="no"?>
<svg xmlns:ffdec="https://www.free-decompiler.com/flash" xmlns:xlink="http://www.w3.org/1999/xlink" ffdec:objectType="shape" height="30.8px" width="33.7px" xmlns="http://www.w3.org/2000/svg">
  <g transform="matrix(1.0, 0.0, 0.0, 1.0, 16.8, 15.45)">
    <path d="M10.45 -15.05 Q15.3 -14.6 15.9 -13.85 17.35 -12.05 16.65 0.25 15.9 13.0 13.7 14.15 11.3 15.45 0.05 15.35 -11.15 15.3 -13.7 14.1 -16.0 13.05 -16.6 0.95 -17.2 -10.6 -15.85 -13.2 -14.65 -15.35 0.0 -15.45 L10.45 -15.05 M13.15 -0.7 L13.3 -7.7 12.95 -11.9 6.75 -12.55 Q2.35 -12.8 -3.55 -12.65 -10.6 -12.35 -12.8 -11.5 L-13.15 -7.45 -13.15 -0.5 Q-12.9 4.3 -12.45 7.0 -12.0 9.5 -11.55 10.5 L-5.3 11.15 Q0.1 11.45 4.95 11.25 L11.45 10.6 Q12.0 9.45 12.4 7.0 12.95 3.75 13.15 -0.7" fill="#bb7537" fill-rule="evenodd" stroke="none"/>
    <path d="M13.15 -0.7 Q12.95 3.75 12.4 7.0 12.0 9.45 11.45 10.6 L4.95 11.25 Q0.1 11.45 -5.3 11.15 L-11.55 10.5 Q-12.0 9.5 -12.45 7.0 -12.9 4.3 -13.15 -0.5 L-13.15 -7.45 -12.8 -11.5 Q-10.6 -12.35 -3.55 -12.65 2.35 -12.8 6.75 -12.55 L12.95 -11.9 13.3 -7.7 13.15 -0.7 M9.65 2.85 Q8.9 1.05 5.35 -3.25 1.35 -8.2 -0.2 -8.25 -1.6 -8.4 -6.0 -2.5 -10.3 3.3 -10.0 4.75 -9.7 5.85 -8.75 6.65 -7.7 7.5 -6.75 7.35 -5.8 7.2 -3.2 5.4 -0.65 3.65 0.25 3.65 1.35 3.65 4.05 5.3 6.65 7.0 7.4 7.0 8.55 7.0 9.3 5.35 10.1 3.7 9.65 2.85" fill="#f6ad41" fill-rule="evenodd" stroke="none"/>
    <path d="M9.65 2.85 Q10.1 3.7 9.3 5.35 8.55 7.0 7.4 7.0 6.65 7.0 4.05 5.3 1.35 3.65 0.25 3.65 -0.65 3.65 -3.2 5.4 -5.8 7.2 -6.75 7.35 -7.7 7.5 -8.75 6.65 -9.7 5.85 -10.0 4.75 -10.3 3.3 -6.0 -2.5 -1.6 -8.4 -0.2 -8.25 1.35 -8.2 5.35 -3.25 8.9 1.05 9.65 2.85" fill="#ffffff" fill-rule="evenodd" stroke="none"/>
  </g>
</svg>
