<?xml version="1.0" encoding="UTF-8" standalone="no"?>
<svg xmlns:ffdec="https://www.free-decompiler.com/flash" xmlns:xlink="http://www.w3.org/1999/xlink" ffdec:objectType="shape" height="30.85px" width="33.65px" xmlns="http://www.w3.org/2000/svg">
  <g transform="matrix(1.0, 0.0, 0.0, 1.0, 16.8, 15.4)">
    <path d="M8.8 -7.6 Q9.8 -6.8 10.05 -5.75 10.45 -4.4 6.05 1.5 1.75 7.4 0.25 7.3 -1.35 7.15 -5.3 2.3 -8.9 -2.15 -9.6 -3.8 -10.0 -4.7 -9.25 -6.35 -8.5 -7.95 -7.35 -7.95 -6.6 -7.95 -4.0 -6.3 -1.3 -4.65 -0.15 -4.65 0.55 -4.6 3.25 -6.35 6.1 -8.25 6.8 -8.3 7.75 -8.45 8.8 -7.6" fill="#ffffff" fill-rule="evenodd" stroke="none"/>
    <path d="M8.8 -7.6 Q7.75 -8.45 6.8 -8.3 6.1 -8.25 3.25 -6.35 0.55 -4.6 -0.15 -4.65 -1.3 -4.65 -4.0 -6.3 -6.6 -7.95 -7.35 -7.95 -8.5 -7.95 -9.25 -6.35 -10.0 -4.7 -9.6 -3.8 -8.9 -2.15 -5.3 2.3 -1.35 7.15 0.25 7.3 1.75 7.4 6.05 1.5 10.45 -4.4 10.05 -5.75 9.8 -6.8 8.8 -7.6 M11.6 -11.45 Q12.05 -10.6 12.5 -7.95 12.95 -5.35 13.2 -0.45 L13.25 6.5 12.85 10.55 Q10.35 11.45 3.6 11.65 -2.0 11.9 -6.7 11.6 L-12.9 10.9 -13.25 6.75 -13.1 -0.25 Q-12.85 -4.85 -12.3 -8.0 -11.85 -10.6 -11.4 -11.55 L-4.9 -12.2 Q0.45 -12.45 5.35 -12.15 L11.6 -11.45" fill="#f6ad41" fill-rule="evenodd" stroke="none"/>
    <path d="M11.6 -11.45 L5.35 -12.15 Q0.45 -12.45 -4.9 -12.2 L-11.4 -11.55 Q-11.85 -10.6 -12.3 -8.0 -12.85 -4.85 -13.1 -0.25 L-13.25 6.75 -12.9 10.9 -6.7 11.6 Q-2.0 11.9 3.6 11.65 10.35 11.45 12.85 10.55 L13.25 6.5 13.2 -0.45 Q12.95 -5.35 12.5 -7.95 12.05 -10.6 11.6 -11.45 M0.0 -15.4 Q11.2 -15.3 13.75 -14.15 16.05 -13.1 16.65 -1.0 17.25 10.6 15.9 13.15 14.7 15.3 0.05 15.45 L-10.4 15.05 Q-15.25 14.6 -15.85 13.8 -17.25 12.0 -16.6 -0.3 -15.85 -12.95 -13.65 -14.2 -11.25 -15.45 0.0 -15.4" fill="#bb7537" fill-rule="evenodd" stroke="none"/>
  </g>
</svg>
