<?xml version="1.0" encoding="UTF-8" standalone="no"?>
<svg xmlns:ffdec="https://www.free-decompiler.com/flash" xmlns:xlink="http://www.w3.org/1999/xlink" ffdec:objectType="shape" height="306.9px" width="191.55px" xmlns="http://www.w3.org/2000/svg">
  <g transform="matrix(1.0, 0.0, 0.0, 1.0, 95.75, 153.5)">
    <path d="M1.9 -153.5 Q21.7 -153.5 52.15 -152.2 88.0 -150.7 90.25 -148.9 92.8 -146.9 94.5 -82.6 95.8 -34.0 95.8 -2.2 95.8 30.35 94.55 79.7 92.8 145.6 90.25 148.1 87.65 150.7 54.3 152.35 24.5 153.8 5.6 153.25 L-41.0 151.3 Q-73.8 149.5 -76.6 148.1 -79.15 146.85 -80.75 80.3 L-81.55 40.2 Q-85.35 37.7 -88.45 33.95 -95.75 25.1 -95.75 11.8 -95.75 -0.85 -88.85 -10.3 -85.95 -14.25 -81.55 -17.0 L-80.7 -80.55 Q-79.6 -144.3 -77.9 -147.7 -76.2 -151.0 -45.05 -152.5 -24.4 -153.5 1.9 -153.5 M-75.95 36.1 L-75.15 77.2 Q-73.7 141.9 -71.3 143.1 -68.7 144.4 -37.95 146.05 L5.7 147.95 Q23.4 148.45 51.3 147.1 82.5 145.55 85.0 143.1 87.4 140.7 89.0 76.6 90.2 28.3 90.2 -2.6 90.2 -32.65 88.95 -79.85 87.35 -141.95 85.0 -143.85 82.85 -145.55 49.3 -147.0 20.75 -148.2 2.2 -148.2 -22.5 -148.2 -41.75 -147.25 -70.95 -145.85 -72.5 -142.7 -74.1 -139.55 -75.1 -77.95 L-75.95 -13.95 Q-80.9 -11.4 -83.95 -7.25 -89.75 0.55 -89.75 11.25 -89.75 22.3 -83.65 29.8 -80.4 33.8 -75.95 36.1" fill="#383332" fill-rule="evenodd" stroke="none"/>
    <path d="M-35.45 -1.1 L-32.35 -0.95 8.7 0.4 49.6 -0.9 Q77.6 -2.65 78.65 -4.75 79.75 -6.95 81.2 -33.1 82.4 -54.15 82.8 -70.2 83.2 -85.4 82.05 -108.95 80.75 -135.55 78.65 -137.6 76.55 -139.75 49.1 -141.55 L8.7 -143.15 -33.95 -141.55 Q-63.55 -139.7 -65.25 -137.6 -66.7 -135.8 -67.9 -107.25 -68.95 -83.15 -68.95 -67.25 -68.95 -46.2 -68.15 -29.9 -67.8 -22.25 -67.25 -16.8 L-72.65 -15.4 Q-74.4 -14.75 -75.95 -13.95 L-75.1 -77.95 Q-74.1 -139.55 -72.5 -142.7 -70.95 -145.85 -41.75 -147.25 -22.5 -148.2 2.2 -148.2 20.75 -148.2 49.3 -147.0 82.85 -145.55 85.0 -143.85 87.35 -141.95 88.95 -79.85 90.2 -32.65 90.2 -2.6 90.2 28.3 89.0 76.6 87.4 140.7 85.0 143.1 82.5 145.55 51.3 147.1 23.4 148.45 5.7 147.95 L-37.95 146.05 Q-68.7 144.4 -71.3 143.1 -73.7 141.9 -75.15 77.2 L-75.95 36.1 Q-69.8 39.3 -61.45 39.3 -54.65 39.3 -48.8 36.8 -42.5 34.1 -38.7 29.0 -35.65 24.95 -34.3 20.35 -33.1 16.3 -33.1 11.25 -33.1 4.4 -35.45 -1.1" fill="#4c4948" fill-rule="evenodd" stroke="none"/>
    <path d="M-38.3 -6.05 L-29.55 -5.6 8.75 -4.35 47.0 -5.55 Q73.1 -7.15 74.1 -9.15 75.1 -11.2 76.45 -35.6 77.5 -54.9 77.95 -70.25 78.35 -84.35 77.3 -106.45 76.05 -131.25 74.1 -133.2 72.1 -135.2 46.5 -136.9 L8.75 -138.4 -31.05 -136.9 Q-58.7 -135.2 -60.25 -133.2 -61.6 -131.5 -62.75 -104.85 -63.75 -82.2 -63.75 -67.5 -63.75 -47.8 -63.0 -32.6 -62.55 -23.1 -61.85 -17.3 L-67.25 -16.8 Q-67.8 -22.25 -68.15 -29.9 -68.95 -46.2 -68.95 -67.25 -68.95 -83.15 -67.9 -107.25 -66.7 -135.8 -65.25 -137.6 -63.55 -139.7 -33.95 -141.55 L8.7 -143.15 49.1 -141.55 Q76.55 -139.75 78.65 -137.6 80.75 -135.55 82.05 -108.95 83.2 -85.4 82.8 -70.2 82.4 -54.15 81.2 -33.1 79.75 -6.95 78.65 -4.75 77.6 -2.65 49.6 -0.9 L8.7 0.4 -32.35 -0.95 -35.45 -1.1 Q-36.6 -3.75 -38.3 -6.05" fill="#231916" fill-rule="evenodd" stroke="none"/>
    <path d="M-38.3 -6.05 Q-36.6 -3.75 -35.45 -1.1 -33.1 4.4 -33.1 11.25 -33.1 16.3 -34.3 20.35 -35.65 24.95 -38.7 29.0 -42.5 34.1 -48.8 36.8 -54.65 39.3 -61.45 39.3 -69.8 39.3 -75.95 36.1 -80.4 33.8 -83.65 29.8 -89.75 22.3 -89.75 11.25 -89.75 0.55 -83.95 -7.25 -80.9 -11.4 -75.95 -13.95 -74.4 -14.75 -72.65 -15.4 L-67.25 -16.8 -61.85 -17.3 -59.95 -17.25 Q-46.85 -16.45 -39.25 -7.25 L-38.3 -6.05 M-76.85 -6.85 Q-83.3 -0.85 -83.3 8.25 -83.3 18.6 -76.65 24.0 -70.7 28.95 -61.95 28.95 -53.1 28.95 -47.05 24.0 -40.55 18.7 -40.55 8.25 -40.55 -1.8 -47.3 -7.3 -53.6 -12.45 -61.95 -12.45 -66.25 -12.45 -70.35 -10.85 -74.2 -9.35 -76.85 -6.85" fill="#bd7300" fill-rule="evenodd" stroke="none"/>
    <path d="M-76.85 -6.85 Q-74.2 -9.35 -70.35 -10.85 -66.25 -12.45 -61.95 -12.45 -53.6 -12.45 -47.3 -7.3 -40.55 -1.8 -40.55 8.25 -40.55 18.7 -47.05 24.0 -53.1 28.95 -61.95 28.95 -70.7 28.95 -76.65 24.0 -83.3 18.6 -83.3 8.25 -83.3 -0.85 -76.85 -6.85" fill="#f7ae00" fill-rule="evenodd" stroke="none"/>
  </g>
</svg>
