<?xml version="1.0" encoding="UTF-8" standalone="no"?>
<svg xmlns:ffdec="https://www.free-decompiler.com/flash" xmlns:xlink="http://www.w3.org/1999/xlink" ffdec:objectType="shape" height="30.8px" width="33.65px" xmlns="http://www.w3.org/2000/svg">
  <g transform="matrix(1.0, 0.0, 0.0, 1.0, 16.8, 15.45)">
    <path d="M6.55 -9.95 Q7.4 -10.1 8.55 -9.5 9.5 -9.05 9.8 -8.3 10.15 -7.45 5.8 -3.6 1.45 0.25 0.0 0.15 -1.55 0.1 -5.55 -3.1 -9.15 -5.95 -9.85 -7.05 -10.25 -7.6 -9.5 -8.7 -8.75 -9.75 -7.6 -9.75 -6.8 -9.75 -4.25 -8.65 -1.55 -7.6 -0.45 -7.6 0.3 -7.55 3.0 -8.7 5.55 -9.85 6.55 -9.95 M-0.15 2.35 Q0.7 2.35 3.25 1.25 6.05 0.0 6.8 0.0 7.75 -0.15 8.8 0.45 9.85 0.95 10.05 1.65 10.4 2.5 6.05 6.35 1.7 10.2 0.25 10.1 -1.3 10.05 -5.3 6.85 -8.9 3.95 -9.6 2.9 -10.0 2.35 -9.25 1.25 -8.5 0.2 -7.35 0.2 -6.55 0.2 -4.0 1.3 -1.3 2.35 -0.15 2.35" fill="#ffffff" fill-rule="evenodd" stroke="none"/>
    <path d="M6.55 -9.95 Q5.55 -9.85 3.0 -8.7 0.3 -7.55 -0.45 -7.6 -1.55 -7.6 -4.25 -8.65 -6.8 -9.75 -7.6 -9.75 -8.75 -9.75 -9.5 -8.7 -10.25 -7.6 -9.85 -7.05 -9.15 -5.95 -5.55 -3.1 -1.55 0.1 0.0 0.15 1.45 0.25 5.8 -3.6 10.15 -7.45 9.8 -8.3 9.5 -9.05 8.55 -9.5 7.4 -10.1 6.55 -9.95 M12.5 -8.05 Q12.95 -5.35 13.2 -0.55 L13.25 6.4 12.85 10.45 Q10.65 11.3 3.6 11.6 -2.3 11.75 -6.7 11.5 L-12.9 10.85 -13.25 6.7 -13.1 -0.35 Q-12.85 -5.05 -12.3 -8.05 -11.85 -10.7 -11.4 -11.6 L-4.9 -12.3 Q0.75 -12.45 5.35 -12.2 L11.6 -11.5 Q12.05 -10.6 12.5 -8.05 M-0.15 2.35 Q-1.3 2.35 -4.0 1.3 -6.55 0.2 -7.35 0.2 -8.5 0.2 -9.25 1.25 -10.0 2.35 -9.6 2.9 -8.9 3.95 -5.3 6.85 -1.3 10.05 0.25 10.1 1.7 10.2 6.05 6.35 10.4 2.5 10.05 1.65 9.85 0.95 8.8 0.45 7.75 -0.15 6.8 0.0 6.05 0.0 3.25 1.25 0.7 2.35 -0.15 2.35" fill="#e94d63" fill-rule="evenodd" stroke="none"/>
    <path d="M12.5 -8.05 Q12.05 -10.6 11.6 -11.5 L5.35 -12.2 Q0.75 -12.45 -4.9 -12.3 L-11.4 -11.6 Q-11.85 -10.7 -12.3 -8.05 -12.85 -5.05 -13.1 -0.35 L-13.25 6.7 -12.9 10.85 -6.7 11.5 Q-2.3 11.75 3.6 11.6 10.65 11.3 12.85 10.45 L13.25 6.4 13.2 -0.55 Q12.95 -5.35 12.5 -8.05 M13.75 -14.2 Q16.05 -13.15 16.65 -1.05 17.25 10.5 15.9 13.1 14.7 15.3 0.05 15.35 L-10.4 14.95 Q-15.25 14.5 -15.85 13.75 -17.25 11.95 -16.6 -0.35 -15.85 -13.1 -13.65 -14.25 -11.25 -15.5 0.0 -15.45 11.2 -15.35 13.75 -14.2" fill="#95203c" fill-rule="evenodd" stroke="none"/>
  </g>
</svg>
