<?xml version="1.0" encoding="UTF-8" standalone="no"?>
<svg xmlns:ffdec="https://www.free-decompiler.com/flash" xmlns:xlink="http://www.w3.org/1999/xlink" ffdec:objectType="shape" height="32.4px" width="102.0px" xmlns="http://www.w3.org/2000/svg">
  <g transform="matrix(1.0, 0.0, 0.0, 1.0, 57.0, 16.2)">
    <path d="M38.05 -11.8 Q39.0 -10.95 39.45 -8.55 L40.0 -2.9 Q40.1 0.1 39.35 3.65 38.75 6.75 38.05 7.95 37.6 8.8 18.35 9.5 1.2 10.1 -6.8 10.0 L-30.4 9.45 -49.95 8.35 Q-51.3 7.75 -51.7 5.55 -52.1 3.65 -52.1 -1.7 -52.1 -9.95 -50.4 -11.8 -49.7 -12.65 -31.15 -13.4 -15.6 -14.05 -6.8 -14.05 2.1 -14.05 18.1 -13.4 37.15 -12.65 38.05 -11.8" fill="#ffdf50" fill-rule="evenodd" stroke="none"/>
    <path d="M38.05 -11.8 Q37.15 -12.65 18.1 -13.4 2.1 -14.05 -6.8 -14.05 -15.6 -14.05 -31.15 -13.4 -49.7 -12.65 -50.4 -11.8 -52.1 -9.95 -52.1 -1.7 -52.1 3.65 -51.7 5.55 -51.3 7.75 -49.95 8.35 L-30.4 9.45 -6.8 10.0 Q1.2 10.1 18.35 9.5 37.6 8.8 38.05 7.95 38.75 6.75 39.35 3.65 40.1 0.1 40.0 -2.9 L39.45 -8.55 Q39.0 -10.95 38.05 -11.8 M42.75 -13.65 Q45.35 -11.5 44.95 -0.85 44.75 4.15 44.1 8.5 43.4 12.6 42.75 13.8 42.25 14.75 21.1 15.55 2.4 16.3 -6.7 16.15 L-54.6 14.25 Q-56.05 13.6 -56.6 9.95 -57.0 7.1 -57.0 0.5 -57.0 -4.85 -56.45 -8.8 -55.95 -12.7 -55.1 -13.65 -54.25 -14.6 -33.85 -15.45 -16.5 -16.2 -6.7 -16.2 3.2 -16.2 20.8 -15.45 41.65 -14.6 42.75 -13.65" fill="#f29542" fill-rule="evenodd" stroke="none"/>
  </g>
</svg>
