<?xml version="1.0" encoding="UTF-8" standalone="no"?>
<svg xmlns:ffdec="https://www.free-decompiler.com/flash" xmlns:xlink="http://www.w3.org/1999/xlink" ffdec:objectType="shape" height="41.95px" width="112.0px" xmlns="http://www.w3.org/2000/svg">
  <g transform="matrix(1.0, 0.0, 0.0, 1.0, 61.95, 20.45)">
    <path d="M37.75 -11.9 Q38.7 -11.05 39.15 -8.65 39.5 -6.75 39.65 -3.0 39.75 0.05 39.05 3.55 38.45 6.65 37.75 7.8 37.3 8.65 18.2 9.35 1.2 10.0 -6.7 9.9 L-30.1 9.35 -49.45 8.25 Q-50.8 7.65 -51.2 5.45 -51.55 3.5 -51.55 -1.85 -51.55 -10.0 -49.9 -11.9 -49.15 -12.7 -30.8 -13.45 -15.3 -14.1 -6.7 -14.1 2.0 -14.1 18.0 -13.45 36.85 -12.7 37.75 -11.9" fill="#f7ae00" fill-rule="evenodd" stroke="none"/>
    <path d="M37.75 -11.9 Q36.85 -12.7 18.0 -13.45 2.0 -14.1 -6.7 -14.1 -15.3 -14.1 -30.8 -13.45 -49.15 -12.7 -49.9 -11.9 -51.55 -10.0 -51.55 -1.85 -51.55 3.5 -51.2 5.45 -50.8 7.65 -49.45 8.25 L-30.1 9.35 -6.7 9.9 Q1.2 10.0 18.2 9.35 37.3 8.65 37.75 7.8 38.45 6.65 39.05 3.55 39.75 0.05 39.65 -3.0 39.5 -6.75 39.15 -8.65 38.7 -11.05 37.75 -11.9 M42.4 -13.7 Q44.9 -11.55 44.5 -0.95 44.35 4.05 43.75 8.4 43.05 12.45 42.4 13.6 41.9 14.55 20.95 15.4 2.55 16.1 -6.55 16.0 L-54.05 14.1 Q-55.5 13.45 -56.05 9.85 -56.45 7.0 -56.45 0.4 -56.45 -4.95 -55.85 -8.9 -55.35 -12.75 -54.55 -13.7 -53.7 -14.65 -33.5 -15.5 -16.3 -16.25 -6.55 -16.25 3.2 -16.25 20.65 -15.5 41.35 -14.65 42.4 -13.7" fill="#bd7300" fill-rule="evenodd" stroke="none"/>
    <path d="M42.4 -13.7 Q41.35 -14.65 20.65 -15.5 3.2 -16.25 -6.55 -16.25 -16.3 -16.25 -33.5 -15.5 -53.7 -14.65 -54.55 -13.7 -55.35 -12.75 -55.85 -8.9 -56.45 -4.95 -56.45 0.4 -56.45 7.0 -56.05 9.85 -55.5 13.45 -54.05 14.1 L-6.55 16.0 Q2.55 16.1 20.95 15.4 41.9 14.55 42.4 13.6 43.05 12.45 43.75 8.4 44.35 4.05 44.5 -0.95 44.9 -11.55 42.4 -13.7 M47.65 -17.65 Q48.9 -16.5 49.6 -11.05 50.2 -5.95 50.0 0.6 49.8 6.3 49.1 11.95 48.35 17.6 47.65 18.85 47.05 19.9 23.85 20.85 3.1 21.65 -6.65 21.5 L-35.55 20.8 -59.3 19.4 Q-60.9 18.7 -61.5 13.6 L-61.55 13.1 Q-61.95 9.3 -61.95 2.1 -61.95 -2.95 -61.55 -7.8 L-61.35 -10.25 Q-60.75 -16.65 -59.85 -17.65 -58.9 -18.65 -36.45 -19.65 -17.25 -20.45 -6.65 -20.45 4.25 -20.45 23.6 -19.65 46.45 -18.7 47.65 -17.65" fill="#ffffff" fill-rule="evenodd" stroke="none"/>
  </g>
</svg>
