<?xml version="1.0" encoding="UTF-8" standalone="no"?>
<svg xmlns:ffdec="https://www.free-decompiler.com/flash" xmlns:xlink="http://www.w3.org/1999/xlink" ffdec:objectType="shape" height="32.4px" width="102.0px" xmlns="http://www.w3.org/2000/svg">
  <g transform="matrix(1.0, 0.0, 0.0, 1.0, 43.8, 15.7)">
    <path d="M6.45 -13.55 Q15.25 -13.55 31.35 -12.9 L51.3 -11.35 Q52.25 -10.5 52.7 -8.05 L53.2 -2.4 Q53.3 0.6 52.6 4.15 52.0 7.25 51.3 8.4 50.85 9.25 31.6 9.95 14.4 10.6 6.45 10.5 L-17.2 9.95 -36.7 8.85 Q-38.05 8.25 -38.5 6.05 -38.85 4.15 -38.85 -1.25 -38.85 -9.5 -37.15 -11.35 -36.45 -12.15 -17.95 -12.9 -2.3 -13.55 6.45 -13.55" fill="#b28147" fill-rule="evenodd" stroke="none"/>
    <path d="M6.45 -13.55 Q-2.3 -13.55 -17.95 -12.9 -36.45 -12.15 -37.15 -11.35 -38.85 -9.5 -38.85 -1.25 -38.85 4.15 -38.5 6.05 -38.05 8.25 -36.7 8.85 L-17.2 9.95 6.45 10.5 Q14.4 10.6 31.6 9.95 50.85 9.25 51.3 8.4 52.0 7.25 52.6 4.15 53.3 0.6 53.2 -2.4 L52.7 -8.05 Q52.25 -10.5 51.3 -11.35 L31.35 -12.9 Q15.25 -13.55 6.45 -13.55 M6.55 -15.7 Q16.45 -15.7 34.05 -14.95 54.9 -14.1 56.0 -13.15 58.45 -10.95 58.15 -0.35 57.95 4.6 57.3 9.0 56.65 13.05 56.0 14.25 55.5 15.2 34.35 16.05 15.75 16.8 6.55 16.65 L-41.4 14.75 Q-42.85 14.1 -43.4 10.45 -43.8 7.6 -43.8 1.0 -43.8 -4.35 -43.25 -8.3 -42.75 -12.2 -41.9 -13.15 -41.05 -14.1 -20.6 -14.95 -3.3 -15.7 6.55 -15.7" fill="#74480f" fill-rule="evenodd" stroke="none"/>
  </g>
</svg>
