<?xml version="1.0" encoding="UTF-8" standalone="no"?>
<svg xmlns:ffdec="https://www.free-decompiler.com/flash" xmlns:xlink="http://www.w3.org/1999/xlink" ffdec:objectType="shape" height="32.4px" width="102.0px" xmlns="http://www.w3.org/2000/svg">
  <g transform="matrix(1.0, 0.0, 0.0, 1.0, 43.8, 16.2)">
    <path d="M51.35 -11.8 Q52.3 -10.95 52.75 -8.55 L53.2 -2.9 Q53.3 0.15 52.6 3.7 52.0 6.8 51.35 8.0 50.85 8.85 31.6 9.55 14.45 10.15 6.45 10.05 L-17.2 9.5 -36.7 8.4 Q-38.05 7.8 -38.5 5.6 -38.85 3.75 -38.85 -1.7 -38.85 -10.05 -37.15 -11.8 -36.4 -12.65 -17.95 -13.4 -2.4 -14.05 6.45 -14.05 15.3 -14.05 31.4 -13.4 50.4 -12.65 51.35 -11.8" fill="#d9a762" fill-rule="evenodd" stroke="none"/>
    <path d="M51.35 -11.8 Q50.4 -12.65 31.4 -13.4 15.3 -14.05 6.45 -14.05 -2.4 -14.05 -17.95 -13.4 -36.4 -12.65 -37.15 -11.8 -38.85 -10.05 -38.85 -1.7 -38.85 3.75 -38.5 5.6 -38.05 7.8 -36.7 8.4 L-17.2 9.5 6.45 10.05 Q14.45 10.15 31.6 9.55 50.85 8.85 51.35 8.0 52.0 6.8 52.6 3.7 53.3 0.15 53.2 -2.9 L52.75 -8.55 Q52.3 -10.95 51.35 -11.8 M56.0 -13.65 Q58.5 -11.45 58.15 -0.85 57.95 4.15 57.3 8.55 56.7 12.6 56.0 13.85 55.5 14.8 34.35 15.6 15.65 16.3 6.6 16.2 L-41.4 14.3 Q-42.85 13.65 -43.4 10.0 -43.8 7.15 -43.8 0.55 -43.8 -4.85 -43.25 -8.8 -42.75 -12.7 -41.9 -13.65 -41.05 -14.6 -20.6 -15.45 -3.3 -16.2 6.6 -16.2 16.45 -16.2 34.1 -15.45 54.95 -14.6 56.0 -13.65" fill="#b9823d" fill-rule="evenodd" stroke="none"/>
  </g>
</svg>
