<?xml version="1.0" encoding="UTF-8" standalone="no"?>
<svg xmlns:ffdec="https://www.free-decompiler.com/flash" xmlns:xlink="http://www.w3.org/1999/xlink" ffdec:objectType="shape" height="104.65px" width="152.9px" xmlns="http://www.w3.org/2000/svg">
  <g transform="matrix(1.0, 0.0, 0.0, 1.0, 75.95, 51.85)">
    <path d="M56.95 -51.7 Q60.75 -52.3 63.95 -50.05 67.45 -47.7 67.9 -43.5 L71.7 -13.95 Q72.15 -10.6 70.3 -7.6 74.95 -2.5 76.4 5.75 L76.75 10.4 Q77.75 18.95 73.9 25.6 67.9 35.8 51.35 38.45 L16.5 44.0 Q12.45 44.7 9.1 42.05 5.8 39.45 5.5 35.25 L4.35 18.35 Q4.05 14.75 6.25 11.9 2.05 8.3 -0.35 2.9 L-8.8 45.15 Q-9.4 48.1 -11.55 50.15 -13.75 52.25 -16.65 52.7 L-18.7 52.8 -36.2 51.85 Q-38.7 51.75 -40.85 50.35 -43.0 48.95 -44.15 46.7 L-74.9 -13.8 Q-75.9 -15.75 -75.95 -18.0 -75.95 -20.2 -75.0 -22.2 -74.05 -24.2 -72.3 -25.55 -70.6 -26.95 -68.45 -27.4 L-53.4 -30.7 Q-50.4 -31.15 -47.65 -29.75 -44.9 -28.4 -43.5 -25.7 L-35.85 -11.15 -33.55 -26.65 Q-33.15 -29.55 -31.2 -31.7 -29.25 -33.8 -26.45 -34.5 L-5.75 -39.8 -4.9 -39.95 -0.6 -39.65 Q1.55 -39.0 3.15 -37.45 L4.95 -35.1 Q10.7 -41.1 19.9 -43.6 L56.95 -51.7 M60.9 -49.95 Q59.25 -51.15 57.1 -50.85 L20.5 -42.85 Q11.4 -40.4 6.35 -34.2 -0.35 -26.1 0.6 -12.2 L0.65 -12.05 Q1.85 0.1 9.15 5.65 12.05 7.85 15.45 8.85 L12.45 9.1 Q10.5 9.45 9.25 11.0 8.0 12.6 8.1 14.6 L9.3 31.55 Q9.45 33.85 11.25 35.25 13.1 36.7 15.3 36.3 L50.15 30.75 Q64.05 28.55 69.2 20.6 72.85 15.05 71.9 7.4 L71.55 3.05 Q69.9 -6.75 62.95 -11.1 64.65 -11.6 65.75 -12.85 67.15 -14.65 66.85 -16.85 L63.1 -46.35 Q62.8 -48.6 60.9 -49.95 M-0.4 -37.75 Q-2.25 -39.5 -4.8 -39.1 L-25.95 -33.75 Q-27.5 -33.35 -28.55 -32.2 -29.55 -31.05 -29.8 -29.45 L-34.05 -0.85 -47.85 -27.1 Q-48.65 -28.6 -50.15 -29.35 -51.65 -30.05 -53.3 -29.8 L-68.05 -26.6 Q-70.55 -26.05 -71.65 -23.75 -72.75 -21.5 -71.6 -19.15 L-40.85 41.3 Q-40.2 42.55 -39.05 43.3 -37.85 44.05 -36.5 44.1 L-19.0 45.05 -17.9 45.0 Q-16.3 44.75 -15.15 43.65 -13.95 42.5 -13.6 40.9 L1.15 -32.95 Q1.7 -35.7 -0.4 -37.75" fill="#ea5515" fill-rule="evenodd" stroke="none"/>
    <path d="M60.9 -49.95 Q62.8 -48.6 63.1 -46.35 L66.85 -16.85 Q67.15 -14.65 65.75 -12.85 64.65 -11.6 62.95 -11.1 69.9 -6.75 71.55 3.05 L71.9 7.4 Q72.85 15.05 69.2 20.6 64.05 28.55 50.15 30.75 L15.3 36.3 Q13.1 36.7 11.25 35.25 9.45 33.85 9.3 31.55 L8.1 14.6 Q8.0 12.6 9.25 11.0 10.5 9.45 12.45 9.1 L15.45 8.85 Q12.05 7.85 9.15 5.65 1.85 0.1 0.65 -12.05 L0.6 -12.2 Q-0.35 -26.1 6.35 -34.2 11.4 -40.4 20.5 -42.85 L57.1 -50.85 Q59.25 -51.15 60.9 -49.95 M57.9 -45.7 L21.85 -37.85 Q4.4 -33.05 5.8 -12.6 7.9 7.85 29.1 4.1 L47.95 1.75 Q52.9 0.85 53.55 5.8 54.15 10.7 49.7 11.0 L13.3 14.25 14.5 31.15 48.65 25.7 Q68.6 22.75 66.75 7.9 L66.45 3.9 Q63.8 -11.5 46.1 -8.25 L26.7 -4.55 Q23.6 -3.8 23.0 -8.15 22.45 -12.55 26.05 -13.6 L61.7 -16.15 57.9 -45.7 M-0.4 -37.75 Q1.7 -35.7 1.15 -32.95 L-13.6 40.9 Q-13.95 42.5 -15.15 43.65 -16.3 44.75 -17.9 45.0 L-19.0 45.05 -36.5 44.1 Q-37.85 44.05 -39.05 43.3 -40.2 42.55 -40.85 41.3 L-71.6 -19.15 Q-72.75 -21.5 -71.65 -23.75 -70.55 -26.05 -68.05 -26.6 L-53.3 -29.8 Q-51.65 -30.05 -50.15 -29.35 -48.65 -28.6 -47.85 -27.1 L-34.05 -0.85 -29.8 -29.45 Q-29.55 -31.05 -28.55 -32.2 -27.5 -33.35 -25.95 -33.75 L-4.8 -39.1 Q-2.25 -39.5 -0.4 -37.75 M-24.65 -28.7 L-31.2 15.7 -52.45 -24.7 -66.95 -21.55 -36.2 38.95 -18.7 39.85 -3.95 -33.95 -24.65 -28.7" fill="#f28f00" fill-rule="evenodd" stroke="none"/>
    <path d="M57.9 -45.7 L61.7 -16.15 26.05 -13.6 Q22.45 -12.55 23.0 -8.15 23.6 -3.8 26.7 -4.55 L46.1 -8.25 Q63.8 -11.5 66.45 3.9 L66.75 7.9 Q68.6 22.75 48.65 25.7 L14.5 31.15 13.3 14.25 49.7 11.0 Q54.15 10.7 53.55 5.8 52.9 0.85 47.95 1.75 L29.1 4.1 Q7.9 7.85 5.8 -12.6 4.4 -33.05 21.85 -37.85 L57.9 -45.7 M-24.65 -28.7 L-3.95 -33.95 -18.7 39.85 -36.2 38.95 -66.95 -21.55 -52.45 -24.7 -31.2 15.7 -24.65 -28.7" fill="#faee00" fill-rule="evenodd" stroke="none"/>
  </g>
</svg>
