<?xml version="1.0" encoding="UTF-8" standalone="no"?>
<svg xmlns:ffdec="https://www.free-decompiler.com/flash" xmlns:xlink="http://www.w3.org/1999/xlink" ffdec:objectType="shape" height="29.45px" width="29.45px" xmlns="http://www.w3.org/2000/svg">
  <g transform="matrix(1.0, 0.0, 0.0, 1.0, 14.7, 14.75)">
    <path d="M1.65 -2.3 Q1.0 -2.95 0.0 -2.95 -0.95 -2.95 -1.6 -2.3 -2.3 -1.65 -2.3 -0.65 -2.3 0.35 -1.6 1.0 -0.9 1.7 0.0 1.7 0.95 1.7 1.65 1.0 2.35 0.35 2.35 -0.65 2.35 -1.65 1.65 -2.3 M3.05 -7.95 L4.1 -9.35 5.55 -8.55 4.85 -6.9 6.3 -5.45 7.9 -6.1 8.75 -4.7 7.35 -3.65 7.9 -1.65 9.6 -1.45 9.6 0.2 7.9 0.4 7.35 2.4 8.7 3.45 7.9 4.85 6.3 4.2 4.85 5.65 5.55 7.2 4.1 8.05 3.1 6.7 1.05 7.2 0.85 8.95 -0.8 8.95 -1.0 7.2 -3.0 6.7 -4.05 8.05 -5.45 7.25 -4.75 5.65 -6.25 4.2 -7.85 4.9 -8.65 3.45 -7.25 2.4 -7.8 0.45 -9.55 0.2 -9.6 -1.4 -7.8 -1.65 -7.3 -3.65 -8.7 -4.7 -7.9 -6.1 -6.25 -5.45 -4.8 -6.9 -5.5 -8.55 -4.1 -9.35 -3.0 -7.95 -1.0 -8.45 -0.8 -10.2 0.8 -10.2 1.05 -8.45 3.05 -7.95" fill="#ffffff" fill-rule="evenodd" stroke="none"/>
    <path d="M3.05 -7.95 L1.05 -8.45 0.8 -10.2 -0.8 -10.2 -1.0 -8.45 -3.0 -7.95 -4.1 -9.35 -5.5 -8.55 -4.8 -6.9 -6.25 -5.45 -7.9 -6.1 -8.7 -4.7 -7.3 -3.65 -7.8 -1.65 -9.6 -1.4 -9.55 0.2 -7.8 0.45 -7.25 2.4 -8.65 3.45 -7.85 4.9 -6.25 4.2 -4.75 5.65 -5.45 7.25 -4.05 8.05 -3.0 6.7 -1.0 7.2 -0.8 8.95 0.85 8.95 1.05 7.2 3.1 6.7 4.1 8.05 5.55 7.2 4.85 5.65 6.3 4.2 7.9 4.85 8.7 3.45 7.35 2.4 7.9 0.4 9.6 0.2 9.6 -1.45 7.9 -1.65 7.35 -3.65 8.75 -4.7 7.9 -6.1 6.3 -5.45 4.85 -6.9 5.55 -8.55 4.1 -9.35 3.05 -7.95 M1.65 -2.3 Q2.35 -1.65 2.35 -0.65 2.35 0.35 1.65 1.0 0.95 1.7 0.0 1.7 -0.9 1.7 -1.6 1.0 -2.3 0.35 -2.3 -0.65 -2.3 -1.65 -1.6 -2.3 -0.95 -2.95 0.0 -2.95 1.0 -2.95 1.65 -2.3 M0.0 -13.15 Q5.2 -13.15 8.85 -9.5 12.55 -5.8 12.55 -0.65 12.55 4.5 8.85 8.2 5.2 11.85 0.0 11.85 -5.2 11.85 -8.8 8.2 -12.5 4.5 -12.5 -0.65 -12.5 -5.8 -8.8 -9.5 -5.2 -13.15 0.0 -13.15" fill="#e86878" fill-rule="evenodd" stroke="none"/>
    <path d="M10.4 -10.45 Q14.75 -6.1 14.75 -0.05 14.75 6.1 10.4 10.35 6.15 14.7 0.0 14.7 -6.05 14.7 -10.4 10.35 -14.7 6.15 -14.7 -0.05 -14.7 -6.15 -10.4 -10.45 -6.0 -14.75 0.0 -14.75 6.1 -14.75 10.4 -10.45 M0.0 -13.15 Q-5.2 -13.15 -8.8 -9.5 -12.5 -5.8 -12.5 -0.65 -12.5 4.5 -8.8 8.2 -5.2 11.85 0.0 11.85 5.2 11.85 8.85 8.2 12.55 4.5 12.55 -0.65 12.55 -5.8 8.85 -9.5 5.2 -13.15 0.0 -13.15" fill="#95205c" fill-rule="evenodd" stroke="none"/>
  </g>
</svg>
