<?xml version="1.0" encoding="UTF-8" standalone="no"?>
<svg xmlns:ffdec="https://www.free-decompiler.com/flash" xmlns:xlink="http://www.w3.org/1999/xlink" ffdec:objectType="shape" height="29.45px" width="29.45px" xmlns="http://www.w3.org/2000/svg">
  <g transform="matrix(1.0, 0.0, 0.0, 1.0, 14.7, 14.7)">
    <path d="M0.0 -13.1 Q-5.2 -13.1 -8.85 -9.45 -12.5 -5.8 -12.5 -0.6 -12.5 4.7 -8.85 8.25 -5.2 11.9 0.0 11.9 5.3 11.9 8.85 8.25 12.5 4.7 12.5 -0.6 12.5 -5.8 8.85 -9.45 5.3 -13.1 0.0 -13.1 M0.0 -14.7 Q6.1 -14.7 10.4 -10.4 14.75 -6.05 14.75 0.0 14.75 6.15 10.4 10.4 6.15 14.75 0.0 14.75 -6.05 14.75 -10.4 10.4 -14.7 6.1 -14.7 0.0 -14.7 -6.0 -10.4 -10.4 -6.0 -14.7 0.0 -14.7" fill="#bc7830" fill-rule="evenodd" stroke="none"/>
    <path d="M0.0 -13.1 Q5.3 -13.1 8.85 -9.45 12.5 -5.8 12.5 -0.6 12.5 4.7 8.85 8.25 5.3 11.9 0.0 11.9 -5.2 11.9 -8.85 8.25 -12.5 4.7 -12.5 -0.6 -12.5 -5.8 -8.85 -9.45 -5.2 -13.1 0.0 -13.1 M10.3 0.85 L10.05 -0.1 9.45 -0.7 8.75 -1.0 9.6 -1.7 9.9 -2.6 Q9.9 -3.5 9.2 -4.05 8.55 -4.65 6.95 -4.65 5.7 -4.65 4.9 -4.1 4.2 -3.6 3.95 -2.6 L6.0 -2.25 Q6.1 -2.85 6.3 -3.05 L6.95 -3.3 7.5 -3.1 7.75 -2.5 7.45 -1.85 Q7.2 -1.6 6.75 -1.6 L6.45 -1.6 6.35 -0.05 7.05 -0.15 7.8 0.1 Q8.1 0.4 8.1 0.95 L7.8 1.8 Q7.5 2.15 7.1 2.15 L6.35 1.9 6.0 0.95 3.8 1.25 4.4 2.45 5.45 3.2 7.15 3.45 8.9 3.1 9.95 2.15 Q10.3 1.6 10.3 0.85 M0.7 -2.3 L0.45 -1.6 -0.75 -0.5 Q-2.2 0.55 -2.9 1.5 -3.5 2.4 -3.55 3.35 L2.95 3.35 2.95 1.55 -0.45 1.55 0.05 1.1 0.95 0.45 Q2.05 -0.35 2.5 -1.0 2.9 -1.65 2.9 -2.35 2.9 -3.0 2.5 -3.55 L1.55 -4.4 -0.25 -4.65 -2.0 -4.35 -2.95 -3.55 -3.4 -2.15 -1.25 -1.95 -0.9 -2.9 -0.2 -3.15 0.45 -2.9 0.7 -2.3 M-7.6 -4.65 Q-7.85 -4.0 -8.55 -3.4 -9.05 -2.95 -10.25 -2.55 L-10.25 -0.75 Q-9.35 -1.05 -9.0 -1.25 L-7.95 -1.9 -7.95 3.35 -5.75 3.35 -5.75 -4.65 -7.6 -4.65" fill="#f6e171" fill-rule="evenodd" stroke="none"/>
    <path d="M-7.6 -4.65 L-5.75 -4.65 -5.75 3.35 -7.95 3.35 -7.95 -1.9 -9.0 -1.25 Q-9.35 -1.05 -10.25 -0.75 L-10.25 -2.55 Q-9.05 -2.95 -8.55 -3.4 -7.85 -4.0 -7.6 -4.65 M0.7 -2.3 L0.45 -2.9 -0.2 -3.15 -0.9 -2.9 -1.25 -1.95 -3.4 -2.15 -2.95 -3.55 -2.0 -4.35 -0.25 -4.65 1.55 -4.4 2.5 -3.55 Q2.9 -3.0 2.9 -2.35 2.9 -1.65 2.5 -1.0 2.05 -0.35 0.95 0.45 L0.05 1.1 -0.45 1.55 2.95 1.55 2.95 3.35 -3.55 3.35 Q-3.5 2.4 -2.9 1.5 -2.2 0.55 -0.75 -0.5 L0.45 -1.6 0.7 -2.3 M10.3 0.85 Q10.3 1.6 9.95 2.15 L8.9 3.1 7.15 3.45 5.45 3.2 4.4 2.45 3.8 1.25 6.0 0.95 6.35 1.9 7.1 2.15 Q7.5 2.15 7.8 1.8 L8.1 0.95 Q8.1 0.4 7.8 0.1 L7.05 -0.15 6.35 -0.05 6.45 -1.6 6.75 -1.6 Q7.2 -1.6 7.45 -1.85 L7.75 -2.5 7.5 -3.1 6.95 -3.3 6.3 -3.05 Q6.1 -2.85 6.0 -2.25 L3.95 -2.6 Q4.2 -3.6 4.9 -4.1 5.7 -4.65 6.95 -4.65 8.55 -4.65 9.2 -4.05 9.9 -3.5 9.9 -2.6 L9.6 -1.7 8.75 -1.0 9.45 -0.7 10.05 -0.1 10.3 0.85" fill="#ffffff" fill-rule="evenodd" stroke="none"/>
  </g>
</svg>
