<?xml version="1.0" encoding="UTF-8" standalone="no"?>
<svg xmlns:ffdec="https://www.free-decompiler.com/flash" xmlns:xlink="http://www.w3.org/1999/xlink" ffdec:objectType="shape" height="29.45px" width="29.45px" xmlns="http://www.w3.org/2000/svg">
  <g transform="matrix(1.0, 0.0, 0.0, 1.0, 14.7, 14.7)">
    <path d="M5.1 -6.3 L6.5 4.85 -3.2 6.1 -4.45 5.1 5.2 3.85 3.7 -8.2 -7.45 -6.8 -5.95 5.25 -3.7 7.0 7.5 5.6 6.0 -6.4 5.1 -6.3 M0.0 -13.1 Q5.2 -13.1 8.85 -9.45 12.5 -5.8 12.5 -0.6 12.5 4.7 8.85 8.25 5.2 11.9 0.0 11.9 -5.2 11.9 -8.85 8.25 -12.5 4.7 -12.5 -0.6 -12.5 -5.8 -8.85 -9.45 -5.2 -13.1 0.0 -13.1" fill="#7ac281" fill-rule="evenodd" stroke="none"/>
    <path d="M0.0 -13.1 Q-5.2 -13.1 -8.85 -9.45 -12.5 -5.8 -12.5 -0.6 -12.5 4.7 -8.85 8.25 -5.2 11.9 0.0 11.9 5.2 11.9 8.85 8.25 12.5 4.7 12.5 -0.6 12.5 -5.8 8.85 -9.45 5.2 -13.1 0.0 -13.1 M0.0 -14.7 Q6.1 -14.7 10.4 -10.4 14.75 -6.05 14.75 0.0 14.75 6.15 10.4 10.4 6.15 14.75 0.0 14.75 -6.05 14.75 -10.4 10.4 -14.7 6.2 -14.7 0.0 -14.7 -6.1 -10.4 -10.4 -6.0 -14.7 0.0 -14.7" fill="#168045" fill-rule="evenodd" stroke="none"/>
    <path d="M5.1 -6.3 L6.0 -6.4 7.5 5.6 -3.7 7.0 -5.95 5.25 -7.45 -6.8 3.7 -8.2 5.2 3.85 -4.45 5.1 -3.2 6.1 6.5 4.85 5.1 -6.3" fill="#ffffff" fill-rule="evenodd" stroke="none"/>
  </g>
</svg>
