<?xml version="1.0" encoding="UTF-8" standalone="no"?>
<svg xmlns:ffdec="https://www.free-decompiler.com/flash" xmlns:xlink="http://www.w3.org/1999/xlink" ffdec:objectType="shape" height="38.05px" width="37.45px" xmlns="http://www.w3.org/2000/svg">
  <g transform="matrix(1.0, 0.0, 0.0, 1.0, 18.7, 19.05)">
    <path d="M3.0 -14.55 L2.45 -16.75 Q-0.35 -16.35 -5.95 -14.25 -13.0 -11.65 -14.8 -9.2 L-14.05 -7.9 -13.15 -6.4 -11.2 -3.55 Q-13.5 -0.35 -13.8 3.7 -13.95 5.95 -13.3 8.4 -12.5 11.45 -10.85 13.15 -6.6 17.5 0.25 17.05 3.1 16.85 5.95 15.8 9.45 14.5 11.2 12.45 12.15 11.3 12.55 9.65 12.95 8.0 12.65 6.4 L7.3 6.65 Q4.25 5.7 2.45 3.1 1.35 1.8 -2.55 1.85 -7.45 1.9 -9.25 6.5 L-9.55 5.8 Q-9.8 5.05 -9.4 4.2 -7.6 0.6 -3.6 -0.3 L1.45 -0.5 1.5 -2.8 Q1.65 -4.25 1.9 -4.35 2.45 -1.3 3.35 0.5 4.05 1.9 5.35 3.25 6.7 4.65 8.8 4.95 10.75 5.2 12.6 4.5 L14.8 3.0 Q15.8 1.9 16.2 0.6 16.9 -1.75 15.75 -4.2 14.35 -7.2 10.6 -8.75 8.5 -9.6 3.75 -9.8 L3.35 -12.9 3.0 -14.55 M15.2 5.35 Q16.0 9.7 13.2 13.1 11.25 15.45 7.95 17.0 3.95 18.9 -0.9 19.0 -5.15 19.1 -8.6 17.5 -12.0 15.9 -13.9 13.05 -16.2 9.5 -16.3 5.0 -16.4 0.3 -14.05 -3.55 L-16.1 -5.8 -18.7 -8.85 Q-17.35 -12.5 -6.95 -16.2 2.6 -19.6 5.15 -18.95 5.55 -17.7 5.65 -15.4 5.8 -13.0 6.15 -11.55 9.5 -11.6 12.45 -10.35 15.25 -9.15 16.6 -7.25 19.45 -3.3 18.5 0.7 17.85 3.3 15.25 5.1 L15.15 5.15 15.2 5.35" fill="#00435d" fill-rule="evenodd" stroke="none"/>
    <path d="M3.35 -12.9 L0.6 -12.4 Q-0.5 -12.15 -0.55 -13.05 -0.6 -14.0 0.5 -14.2 L3.0 -14.55 3.35 -12.9 M-14.05 -7.9 Q-11.9 -9.75 -10.95 -9.95 -10.45 -10.0 -10.15 -9.4 -9.85 -8.85 -10.2 -8.6 L-13.15 -6.4 -14.05 -7.9 M-2.95 -11.5 Q-5.0 -10.95 -7.05 -10.0 -7.9 -9.65 -8.3 -10.35 -8.75 -11.1 -7.85 -11.5 -4.6 -13.1 -3.3 -13.0 -2.75 -12.95 -2.65 -12.3 -2.55 -11.6 -2.95 -11.5" fill="#00568d" fill-rule="evenodd" stroke="none"/>
    <path d="M3.0 -14.55 L0.5 -14.2 Q-0.6 -14.0 -0.55 -13.05 -0.5 -12.15 0.6 -12.4 L3.35 -12.9 3.75 -9.8 Q8.5 -9.6 10.6 -8.75 14.35 -7.2 15.75 -4.2 16.9 -1.75 16.2 0.6 15.8 1.9 14.8 3.0 L12.6 4.5 Q10.75 5.2 8.8 4.95 6.7 4.65 5.35 3.25 4.05 1.9 3.35 0.5 2.45 -1.3 1.9 -4.35 1.65 -4.25 1.5 -2.8 L1.45 -0.5 -3.6 -0.3 Q-7.6 0.6 -9.4 4.2 -9.8 5.05 -9.55 5.8 L-9.25 6.5 Q-7.45 1.9 -2.55 1.85 1.35 1.8 2.45 3.1 4.25 5.7 7.3 6.65 L12.65 6.4 Q12.95 8.0 12.55 9.65 12.15 11.3 11.2 12.45 9.45 14.5 5.95 15.8 3.1 16.85 0.25 17.05 -6.6 17.5 -10.85 13.15 -12.5 11.45 -13.3 8.4 -13.95 5.95 -13.8 3.7 -13.5 -0.35 -11.2 -3.55 L-13.15 -6.4 -10.2 -8.6 Q-9.85 -8.85 -10.15 -9.4 -10.45 -10.0 -10.95 -9.95 -11.9 -9.75 -14.05 -7.9 L-14.8 -9.2 Q-13.0 -11.65 -5.95 -14.25 -0.35 -16.35 2.45 -16.75 L3.0 -14.55 M15.2 5.35 L15.15 5.15 15.25 5.1 15.2 5.35 M14.1 1.15 Q13.55 0.35 12.85 0.9 L10.7 2.1 Q9.4 2.35 7.8 1.5 7.2 1.15 6.65 1.9 6.15 2.65 6.9 3.15 8.55 4.25 10.7 4.05 12.75 3.9 13.9 2.65 14.65 1.9 14.1 1.15 M8.45 11.3 Q7.25 11.5 6.9 12.45 6.7 12.95 7.05 13.4 7.45 13.85 8.05 13.65 9.1 13.35 9.45 12.55 9.75 12.0 9.35 11.6 9.0 11.2 8.45 11.3 M6.05 13.6 Q5.9 12.5 3.9 13.15 -1.8 14.95 -5.45 12.8 L-6.65 12.6 Q-7.3 12.75 -7.55 13.15 L-7.6 13.6 -6.7 14.4 Q-4.45 15.95 -1.1 16.05 1.75 16.15 4.5 15.25 6.2 14.7 6.05 13.6 M-2.95 -11.5 Q-2.55 -11.6 -2.65 -12.3 -2.75 -12.95 -3.3 -13.0 -4.6 -13.1 -7.85 -11.5 -8.75 -11.1 -8.3 -10.35 -7.9 -9.65 -7.05 -10.0 -5.0 -10.95 -2.95 -11.5" fill="#1279bf" fill-rule="evenodd" stroke="none"/>
    <path d="M6.05 13.6 Q6.2 14.7 4.5 15.25 1.75 16.15 -1.1 16.05 -4.45 15.95 -6.7 14.4 L-7.6 13.6 -7.55 13.15 Q-7.3 12.75 -6.65 12.6 L-5.45 12.8 Q-1.8 14.95 3.9 13.15 5.9 12.5 6.05 13.6 M8.45 11.3 Q9.0 11.2 9.35 11.6 9.75 12.0 9.45 12.55 9.1 13.35 8.05 13.65 7.45 13.85 7.05 13.4 6.7 12.95 6.9 12.45 7.25 11.5 8.45 11.3 M14.1 1.15 Q14.65 1.9 13.9 2.65 12.75 3.9 10.7 4.05 8.55 4.25 6.9 3.15 6.15 2.65 6.65 1.9 7.2 1.15 7.8 1.5 9.4 2.35 10.7 2.1 L12.85 0.9 Q13.55 0.35 14.1 1.15" fill="#5ebfed" fill-rule="evenodd" stroke="none"/>
  </g>
</svg>
