<?xml version="1.0" encoding="UTF-8" standalone="no"?>
<svg xmlns:ffdec="https://www.free-decompiler.com/flash" xmlns:xlink="http://www.w3.org/1999/xlink" ffdec:objectType="shape" height="35.65px" width="35.65px" xmlns="http://www.w3.org/2000/svg">
  <g transform="matrix(1.0, 0.0, 0.0, 1.0, 17.3, 17.8)">
    <path d="M12.55 -9.1 Q15.65 -8.2 16.95 -6.15 19.2 -2.75 17.85 1.8 17.2 4.05 15.3 5.9 13.2 7.9 10.15 8.9 L11.45 12.35 Q12.2 14.45 12.3 16.0 9.1 18.1 -0.8 17.8 -11.35 17.4 -14.5 14.05 L-13.2 10.5 -12.1 7.8 Q-15.5 5.05 -16.7 1.0 -17.85 -2.8 -16.85 -6.85 -16.1 -10.1 -13.5 -12.7 -10.85 -15.3 -6.85 -16.65 -2.35 -18.15 1.9 -17.7 5.45 -17.35 8.0 -15.85 11.75 -13.55 12.4 -9.3 L12.45 -9.15 12.55 -9.1" fill="#ffffff" fill-rule="evenodd" stroke="none"/>
    <path d="M3.75 -3.8 Q4.45 -5.4 6.1 -6.3 7.6 -7.1 9.4 -7.0 L11.7 -6.4 Q12.85 -5.8 13.6 -4.85 14.9 -3.05 14.7 -0.7 14.4 2.25 11.7 4.65 10.25 5.95 6.25 7.6 7.15 11.15 7.3 13.8 L-0.45 14.2 Q-7.2 14.15 -9.45 12.65 L-8.1 6.8 Q-11.05 4.8 -12.45 1.5 -13.2 -0.3 -13.45 -2.55 -13.7 -5.35 -12.8 -7.25 -10.5 -12.15 -4.65 -13.85 L0.5 -14.5 Q3.8 -14.45 5.85 -13.25 7.05 -12.6 7.85 -11.3 8.65 -10.05 8.9 -8.6 5.95 -8.4 4.35 -7.25 2.1 -5.55 1.35 -2.8 0.85 -1.4 -2.45 -0.25 -6.6 1.15 -9.45 -2.15 L-9.55 -1.5 Q-9.5 -0.8 -8.9 -0.2 -6.3 2.3 -2.75 1.85 -1.3 1.7 1.6 0.5 L2.3 2.4 Q2.85 3.6 3.1 3.6 2.65 0.85 2.85 -0.9 3.05 -2.25 3.75 -3.8" fill="#e9d136" fill-rule="evenodd" stroke="none"/>
    <path d="M4.4 -8.35 Q5.9 -9.65 6.25 -10.7 6.65 -11.9 5.85 -13.25 7.05 -12.6 7.85 -11.3 8.65 -10.05 8.9 -8.6 5.95 -8.4 4.35 -7.25 2.1 -5.55 1.35 -2.8 0.85 -1.4 -2.45 -0.25 -6.6 1.15 -9.45 -2.15 L-9.55 -1.5 Q-9.5 -0.8 -8.9 -0.2 -6.3 2.3 -2.75 1.85 -1.3 1.7 1.6 0.5 L2.3 2.4 Q2.85 3.6 3.1 3.6 2.65 0.85 2.85 -0.9 3.05 -2.25 3.75 -3.8 3.4 -1.7 5.3 -0.45 7.0 0.7 9.2 0.45 11.35 0.2 12.7 -1.15 14.25 -2.65 13.6 -4.85 14.9 -3.05 14.7 -0.7 14.4 2.25 11.7 4.65 10.25 5.95 6.25 7.6 7.15 11.15 7.3 13.8 L-0.45 14.2 Q-7.2 14.15 -9.45 12.65 L-8.1 6.8 Q-11.05 4.8 -12.45 1.5 -13.2 -0.3 -13.45 -2.55 -13.7 -5.35 -12.8 -7.25 -12.9 -5.3 -10.35 -4.35 -8.05 -3.5 -5.35 -3.9 -3.7 -4.1 -0.55 -5.5 2.8 -7.0 4.4 -8.35" fill="#bc9337" fill-rule="evenodd" stroke="none"/>
    <path d="M-8.1 6.8 Q-11.05 4.8 -12.45 1.5 -13.45 -0.75 -13.5 -3.45 -12.9 -0.55 -11.3 1.65 -9.55 4.2 -6.5 5.65 L-8.1 6.8" fill="#d9b36e" fill-rule="evenodd" stroke="none"/>
    <path d="M14.7 -0.65 Q14.35 2.35 11.7 4.65 10.25 5.95 6.25 7.6 5.7 6.6 5.3 4.95 7.95 4.6 9.65 3.95 13.9 2.3 14.7 -0.65" fill="#d9b36e" fill-rule="evenodd" stroke="none"/>
    <path d="M-4.1 -1.1 Q-2.75 -1.25 -0.95 -2.2 0.95 -3.2 1.95 -4.4 L1.35 -2.8 Q0.85 -1.4 -2.45 -0.25 -6.6 1.15 -9.45 -2.15 -7.05 -0.75 -4.1 -1.1" fill="#d9b36e" fill-rule="evenodd" stroke="none"/>
    <path d="M8.65 -9.75 L8.9 -8.6 7.4 -8.45 Q8.3 -8.9 8.65 -9.75" fill="#d9b36e" fill-rule="evenodd" stroke="none"/>
    <path d="M-3.95 7.75 Q-0.25 8.1 2.55 9.8 L5.35 12.3 Q6.8 13.85 6.45 13.9 L-1.55 14.2 Q-7.4 14.0 -9.45 12.65 L-8.6 8.55 Q-7.2 7.5 -3.95 7.75" fill="#e9d136" fill-rule="evenodd" stroke="none"/>
    <path d="M-10.0 -8.25 L-10.2 -8.6 -9.7 -9.55 Q-8.25 -11.5 -5.5 -12.6 -3.15 -13.5 -0.55 -13.6 1.05 -13.65 1.25 -12.7 1.45 -11.7 -0.45 -11.65 -5.7 -11.55 -8.15 -8.6 -8.5 -8.15 -9.15 -8.05 L-10.0 -8.25" fill="#fefefe" fill-rule="evenodd" stroke="none"/>
    <path d="M5.05 -4.2 Q6.1 -5.6 7.95 -6.1 L11.05 -5.9 Q11.9 -5.5 11.65 -4.65 11.45 -3.85 10.7 -4.1 L8.55 -4.4 Q7.4 -4.25 6.3 -3.1 5.9 -2.6 5.25 -3.1 4.55 -3.55 5.05 -4.2" fill="#fefefe" fill-rule="evenodd" stroke="none"/>
    <path d="M2.25 -11.95 Q1.95 -12.3 2.15 -12.8 2.3 -13.3 2.9 -13.35 3.9 -13.35 4.4 -12.85 4.8 -12.45 4.6 -12.0 L3.9 -11.5 Q2.95 -11.25 2.25 -11.95" fill="#fefefe" fill-rule="evenodd" stroke="none"/>
    <path d="M1.2 11.0 Q1.55 11.0 1.65 11.6 1.75 12.15 1.35 12.35 L-2.9 12.5 Q-3.75 12.45 -3.6 11.7 -3.5 10.95 -2.7 11.0 L1.2 11.0" fill="#7c5925" fill-rule="evenodd" stroke="none"/>
    <path d="M-5.75 10.75 Q-5.4 10.85 -5.45 11.45 -5.55 12.05 -6.0 12.1 -6.9 12.25 -10.1 11.0 -10.9 10.65 -10.55 10.0 -10.25 9.35 -9.5 9.6 L-5.75 10.75" fill="#7c5925" fill-rule="evenodd" stroke="none"/>
    <path d="M8.3 9.8 Q8.6 9.65 8.8 10.3 8.95 11.0 8.55 11.25 7.5 11.9 4.9 12.25 3.9 12.4 3.65 11.6 3.45 10.85 4.45 10.75 L6.35 10.5 8.3 9.8" fill="#7c5925" fill-rule="evenodd" stroke="none"/>
    <path d="M11.35 -8.5 L11.35 -8.35 11.45 -8.3 Q14.25 -7.55 15.5 -5.6 17.5 -2.5 16.3 1.6 15.75 3.55 13.45 5.5 11.15 7.45 8.25 8.4 8.35 9.75 9.25 11.8 10.15 13.75 10.2 14.85 8.25 16.15 -0.45 16.0 -9.9 15.8 -12.15 13.15 L-10.95 9.9 -10.0 7.35 Q-13.2 4.75 -14.65 1.0 -16.1 -2.7 -15.3 -6.25 -14.6 -9.2 -12.2 -11.55 -9.8 -13.9 -6.2 -15.15 -2.1 -16.5 1.8 -16.1 5.0 -15.8 7.35 -14.4 10.65 -12.4 11.35 -8.5 M7.85 -11.3 Q7.05 -12.6 5.85 -13.25 3.8 -14.45 0.5 -14.5 L-4.65 -13.85 Q-10.5 -12.15 -12.8 -7.25 -13.7 -5.35 -13.45 -2.55 -13.2 -0.3 -12.45 1.5 -11.05 4.8 -8.1 6.8 L-9.45 12.65 Q-7.2 14.15 -0.45 14.2 L7.3 13.8 Q7.15 11.15 6.25 7.6 10.25 5.95 11.7 4.65 14.4 2.25 14.7 -0.7 14.9 -3.05 13.6 -4.85 12.85 -5.8 11.7 -6.4 L9.4 -7.0 Q7.6 -7.1 6.1 -6.3 4.45 -5.4 3.75 -3.8 3.05 -2.25 2.85 -0.9 2.65 0.85 3.1 3.6 2.85 3.6 2.3 2.4 L1.6 0.5 Q-1.3 1.7 -2.75 1.85 -6.3 2.3 -8.9 -0.2 -9.5 -0.8 -9.55 -1.5 L-9.45 -2.15 Q-6.6 1.15 -2.45 -0.25 0.85 -1.4 1.35 -2.8 2.1 -5.55 4.35 -7.25 5.95 -8.4 8.9 -8.6 8.65 -10.05 7.85 -11.3" fill="#7c5925" fill-rule="evenodd" stroke="none"/>
  </g>
</svg>
