<?xml version="1.0" encoding="UTF-8" standalone="no"?>
<svg xmlns:ffdec="https://www.free-decompiler.com/flash" xmlns:xlink="http://www.w3.org/1999/xlink" ffdec:objectType="shape" height="35.7px" width="35.7px" xmlns="http://www.w3.org/2000/svg">
  <g transform="matrix(1.0, 0.0, 0.0, 1.0, 17.35, 17.85)">
    <path d="M15.5 -14.05 Q14.75 -11.55 13.1 -7.8 16.5 -5.05 17.75 -1.0 18.85 2.8 17.85 6.85 17.1 10.1 14.5 12.7 11.85 15.3 7.85 16.65 3.4 18.15 -0.9 17.75 -4.45 17.4 -7.0 15.85 -10.75 13.55 -11.4 9.3 L-11.45 9.15 -11.55 9.1 Q-14.65 8.2 -15.95 6.15 -18.2 2.75 -16.85 -1.8 -16.2 -4.0 -14.25 -5.85 -12.2 -7.9 -9.15 -8.9 L-10.45 -12.35 Q-11.2 -14.45 -11.25 -16.0 -8.1 -18.1 1.8 -17.8 12.35 -17.4 15.5 -14.05" fill="#ffffff" fill-rule="evenodd" stroke="none"/>
    <path d="M10.7 -12.9 Q10.15 -9.55 9.4 -7.05 12.3 -5.05 13.7 -1.75 14.5 0.05 14.7 2.3 14.95 5.1 14.05 7.0 11.8 11.9 5.95 13.6 L0.8 14.25 Q-2.5 14.2 -4.6 13.0 -5.75 12.35 -6.6 11.05 -7.4 9.8 -7.65 8.35 -4.6 8.15 -3.1 7.0 -0.75 5.2 -0.1 2.55 0.5 1.1 3.75 0.0 7.85 -1.4 10.75 1.9 L10.8 1.25 Q10.75 0.55 10.15 -0.05 7.55 -2.55 4.0 -2.1 2.7 -1.95 -0.35 -0.75 L-1.05 -2.65 Q-1.55 -3.85 -1.8 -3.85 -1.4 -1.1 -1.6 0.65 -1.75 2.0 -2.45 3.55 -3.15 5.15 -4.85 6.0 -6.35 6.8 -8.15 6.75 -10.85 6.55 -12.3 4.6 -13.65 2.85 -13.4 0.45 -13.1 -2.45 -10.45 -4.9 -9.0 -6.2 -5.0 -7.85 -5.9 -11.55 -6.0 -14.05 L1.75 -14.5 Q8.45 -14.4 10.7 -12.9" fill="#646465" fill-rule="evenodd" stroke="none"/>
    <path d="M10.7 -12.9 Q10.15 -9.55 9.4 -7.05 12.3 -5.05 13.7 -1.75 14.5 0.05 14.7 2.3 14.95 5.1 14.05 7.0 14.15 5.05 11.6 4.1 9.35 3.25 6.6 3.6 4.95 3.85 1.8 5.25 -1.55 6.75 -3.1 8.1 -4.6 9.4 -5.0 10.5 -5.4 11.65 -4.6 13.0 -5.75 12.35 -6.6 11.05 -7.4 9.8 -7.65 8.35 -4.6 8.15 -3.1 7.0 -0.75 5.2 -0.1 2.55 0.5 1.1 3.75 0.0 7.85 -1.4 10.75 1.9 L10.8 1.25 Q10.75 0.55 10.15 -0.05 7.55 -2.55 4.0 -2.1 2.7 -1.95 -0.35 -0.75 L-1.05 -2.65 Q-1.55 -3.85 -1.8 -3.85 -1.4 -1.1 -1.6 0.65 -1.75 2.0 -2.45 3.55 -2.1 1.4 -4.0 0.15 -5.7 -0.95 -7.9 -0.7 -10.1 -0.45 -11.4 0.9 -12.95 2.4 -12.3 4.6 -13.65 2.85 -13.4 0.45 -13.1 -2.45 -10.45 -4.9 -9.0 -6.2 -5.0 -7.85 -5.9 -11.55 -6.0 -14.05 L1.75 -14.5 Q8.45 -14.4 10.7 -12.9" fill="#555554" fill-rule="evenodd" stroke="none"/>
    <path d="M9.4 -7.05 Q12.3 -5.05 13.7 -1.75 14.7 0.5 14.75 3.15 14.25 0.5 12.6 -1.9 10.75 -4.45 7.8 -5.95 8.6 -6.8 9.4 -7.05" fill="#636565" fill-rule="evenodd" stroke="none"/>
    <path d="M-13.4 0.4 Q-13.15 -2.5 -10.45 -4.9 -9.0 -6.2 -5.0 -7.85 -4.35 -6.6 -4.05 -5.25 L-8.4 -4.2 Q-12.6 -2.55 -13.4 0.4" fill="#636565" fill-rule="evenodd" stroke="none"/>
    <path d="M5.35 0.85 Q4.0 1.0 2.2 1.95 0.35 2.95 -0.7 4.15 L-0.1 2.55 Q0.5 1.1 3.75 0.0 7.85 -1.4 10.75 1.9 8.25 0.5 5.35 0.85" fill="#636565" fill-rule="evenodd" stroke="none"/>
    <path d="M-7.35 9.5 L-7.65 8.35 -6.1 8.15 Q-7.1 8.75 -7.35 9.5" fill="#5e5e5f" fill-rule="evenodd" stroke="none"/>
    <path d="M5.25 -8.0 Q1.45 -8.35 -1.3 -10.1 -2.6 -10.9 -4.1 -12.55 -5.5 -14.15 -5.2 -14.15 L2.8 -14.45 Q8.65 -14.25 10.7 -12.9 L9.85 -8.8 Q8.6 -7.8 5.25 -8.0" fill="#646465" fill-rule="evenodd" stroke="none"/>
    <path d="M0.05 12.45 Q-0.15 11.45 1.75 11.4 7.05 11.2 9.45 8.3 9.8 7.85 10.4 7.8 11.0 7.7 11.3 8.0 L11.45 8.35 10.95 9.3 Q9.55 11.25 6.75 12.35 4.4 13.25 1.85 13.35 0.25 13.4 0.05 12.45" fill="#b7b8b8" fill-rule="evenodd" stroke="none"/>
    <path d="M-3.8 3.95 Q-4.85 5.35 -6.65 5.85 L-9.8 5.6 Q-10.6 5.2 -10.4 4.4 -10.15 3.55 -9.4 3.8 L-7.25 4.15 Q-6.15 4.0 -5.05 2.8 -4.6 2.35 -3.95 2.8 -3.3 3.3 -3.8 3.95" fill="#b7b8b8" fill-rule="evenodd" stroke="none"/>
    <path d="M-1.0 11.7 Q-0.7 12.05 -0.85 12.55 -1.05 13.05 -1.65 13.1 -2.6 13.1 -3.15 12.55 -3.55 12.2 -3.35 11.75 -3.15 11.3 -2.65 11.2 -1.6 11.05 -1.0 11.7" fill="#b7b8b8" fill-rule="evenodd" stroke="none"/>
    <path d="M0.1 -11.3 Q-0.3 -11.25 -0.4 -11.85 -0.5 -12.45 -0.1 -12.65 L4.2 -12.75 Q5.05 -12.7 4.9 -11.95 4.75 -11.2 4.0 -11.25 L0.1 -11.3" fill="#333434" fill-rule="evenodd" stroke="none"/>
    <path d="M7.0 -11.0 Q6.65 -11.1 6.7 -11.7 6.8 -12.3 7.25 -12.35 8.15 -12.5 11.35 -11.25 12.15 -10.9 11.85 -10.25 11.5 -9.65 10.75 -9.9 L7.0 -11.0" fill="#333434" fill-rule="evenodd" stroke="none"/>
    <path d="M-7.0 -10.05 Q-7.3 -9.9 -7.5 -10.55 -7.65 -11.25 -7.3 -11.5 -6.45 -12.05 -3.6 -12.55 -2.6 -12.65 -2.4 -11.85 -2.2 -11.05 -3.2 -11.0 L-5.1 -10.75 -7.0 -10.05" fill="#333434" fill-rule="evenodd" stroke="none"/>
    <path d="M9.4 -7.05 Q10.15 -9.55 10.7 -12.9 8.45 -14.4 1.75 -14.5 L-6.0 -14.05 Q-5.9 -11.55 -5.0 -7.85 -9.0 -6.2 -10.45 -4.9 -13.1 -2.45 -13.4 0.45 -13.65 2.85 -12.3 4.6 -10.85 6.55 -8.15 6.75 -6.35 6.8 -4.85 6.0 -3.15 5.15 -2.45 3.55 -1.75 2.0 -1.6 0.65 -1.4 -1.1 -1.8 -3.85 -1.55 -3.85 -1.05 -2.65 L-0.35 -0.75 Q2.7 -1.95 4.0 -2.1 7.55 -2.55 10.15 -0.05 10.75 0.55 10.8 1.25 L10.75 1.9 Q7.85 -1.4 3.75 0.0 0.5 1.1 -0.1 2.55 -0.75 5.2 -3.1 7.0 -4.6 8.15 -7.65 8.35 -7.4 9.8 -6.6 11.05 -5.75 12.35 -4.6 13.0 -2.5 14.2 0.8 14.25 L5.95 13.6 Q11.8 11.9 14.05 7.0 14.95 5.1 14.7 2.3 14.5 0.05 13.7 -1.75 12.3 -5.05 9.4 -7.05 M13.4 -13.4 L11.25 -7.6 Q14.5 -5.0 15.95 -1.25 17.4 2.45 16.55 6.0 15.85 8.95 13.5 11.3 11.05 13.65 7.45 14.9 3.35 16.25 -0.55 15.85 -3.75 15.55 -6.05 14.15 -9.45 12.1 -10.05 8.2 L-10.1 8.05 -10.2 8.05 Q-12.95 7.25 -14.2 5.35 -16.25 2.2 -15.0 -1.9 -14.45 -3.8 -12.15 -5.75 -9.85 -7.7 -6.95 -8.7 -7.05 -10.05 -8.0 -12.05 -8.85 -14.0 -8.9 -15.1 -7.0 -16.4 1.7 -16.25 11.15 -16.05 13.4 -13.4" fill="#333434" fill-rule="evenodd" stroke="none"/>
  </g>
</svg>
