<?xml version="1.0" encoding="UTF-8" standalone="no"?>
<svg xmlns:ffdec="https://www.free-decompiler.com/flash" xmlns:xlink="http://www.w3.org/1999/xlink" ffdec:objectType="shape" height="816.4px" width="816.4px" xmlns="http://www.w3.org/2000/svg">
  <g transform="matrix(1.0, 0.0, 0.0, 1.0, 0.0, 0.0)">
    <path d="M408.2 408.2 L0.0 459.7 0.0 353.05 408.2 408.2 567.7 28.95 660.05 82.3 408.2 408.2 656.85 735.95 564.5 789.3 408.2 408.2 80.45 656.9 27.1 564.55 408.2 408.2 248.7 787.45 156.35 734.1 408.2 408.2 28.95 248.7 82.25 156.35 408.2 408.2 159.5 80.45 251.85 27.1 408.2 408.2 356.7 0.0 463.35 0.0 408.2 408.2 816.4 356.7 816.4 463.35 408.2 408.2 787.45 567.7 734.1 660.05 408.2 408.2 735.95 159.5 789.25 251.9 408.2 408.2 459.7 816.4 353.05 816.4 408.2 408.2" fill="url(#gradient0)" fill-rule="evenodd" stroke="none"/>
  </g>
  <defs>
    <radialGradient cx="0" cy="0" gradientTransform="matrix(0.4982, 0.0, 0.0, -0.4982, 408.2, 408.2)" gradientUnits="userSpaceOnUse" id="gradient0" r="819.2" spreadMethod="pad">
      <stop offset="0.0" stop-color="#ea0404"/>
      <stop offset="1.0" stop-color="#630c2f"/>
    </radialGradient>
  </defs>
</svg>
