<?xml version="1.0" encoding="UTF-8" standalone="no"?>
<svg xmlns:ffdec="https://www.free-decompiler.com/flash" xmlns:xlink="http://www.w3.org/1999/xlink" ffdec:objectType="shape" height="60.6px" width="60.6px" xmlns="http://www.w3.org/2000/svg">
  <g transform="matrix(1.0, 0.0, 0.0, 1.0, 30.3, 30.3)">
    <path d="M0.0 -27.95 Q-11.0 -27.95 -18.85 -20.15 -26.65 -12.3 -26.65 -1.3 -26.65 9.75 -18.85 17.55 -11.05 25.35 0.0 25.35 11.05 25.35 18.85 17.55 26.65 9.75 26.65 -1.3 26.65 -12.3 18.85 -20.15 11.05 -27.95 0.0 -27.95 M21.4 -21.4 Q30.3 -12.5 30.3 0.0 30.3 12.55 21.4 21.4 12.55 30.3 0.0 30.3 -12.5 30.3 -21.4 21.4 -30.3 12.55 -30.3 0.0 -30.3 -12.5 -21.4 -21.4 -12.5 -30.3 0.0 -30.3 12.55 -30.3 21.4 -21.4" fill="#231f20" fill-rule="evenodd" stroke="none"/>
    <path d="M16.25 -17.55 Q9.55 -24.3 0.0 -24.3 -9.55 -24.3 -16.3 -17.55 -23.05 -10.8 -23.05 -1.3 -23.05 8.25 -16.3 15.0 -9.5 21.75 0.0 21.75 9.5 21.75 16.25 15.0 23.0 8.25 23.0 -1.3 23.0 -10.8 16.25 -17.55 M0.0 -27.95 Q11.05 -27.95 18.85 -20.15 26.65 -12.3 26.65 -1.3 26.65 9.75 18.85 17.55 11.05 25.35 0.0 25.35 -11.05 25.35 -18.85 17.55 -26.65 9.75 -26.65 -1.3 -26.65 -12.3 -18.85 -20.15 -11.0 -27.95 0.0 -27.95" fill="#787878" fill-rule="evenodd" stroke="none"/>
    <path d="M11.35 -6.7 L2.85 -6.7 2.85 -15.2 -11.35 -1.05 2.85 13.15 2.85 4.65 11.35 4.65 11.35 -6.7 M16.25 -17.55 Q23.0 -10.8 23.0 -1.3 23.0 8.25 16.25 15.0 9.5 21.75 0.0 21.75 -9.5 21.75 -16.3 15.0 -23.05 8.25 -23.05 -1.3 -23.05 -10.8 -16.3 -17.55 -9.55 -24.3 0.0 -24.3 9.55 -24.3 16.25 -17.55" fill="url(#gradient0)" fill-rule="evenodd" stroke="none"/>
    <path d="M11.35 -6.7 L11.35 4.65 2.85 4.65 2.85 13.15 -11.35 -1.05 2.85 -15.2 2.85 -6.7 11.35 -6.7" fill="#ffffff" fill-rule="evenodd" stroke="none"/>
  </g>
  <defs>
    <linearGradient gradientTransform="matrix(0.0, -0.0132, -0.0132, 0.0, 0.0, 9.65)" gradientUnits="userSpaceOnUse" id="gradient0" spreadMethod="pad" x1="-819.2" x2="819.2">
      <stop offset="0.0" stop-color="#d9d9d9"/>
      <stop offset="1.0" stop-color="#5a5a5a"/>
    </linearGradient>
  </defs>
</svg>
