<?xml version="1.0" encoding="UTF-8" standalone="no"?>
<svg xmlns:ffdec="https://www.free-decompiler.com/flash" xmlns:xlink="http://www.w3.org/1999/xlink" ffdec:objectType="shape" height="66.7px" width="66.7px" xmlns="http://www.w3.org/2000/svg">
  <g transform="matrix(1.0, 0.0, 0.0, 1.0, 33.35, 33.35)">
    <path d="M23.55 -23.55 Q33.35 -13.75 33.35 0.0 33.35 13.8 23.55 23.55 13.8 33.35 0.0 33.35 -13.75 33.35 -23.55 23.55 -33.35 13.8 -33.35 0.0 -33.35 -13.75 -23.55 -23.55 -13.75 -33.35 0.0 -33.35 13.8 -33.35 23.55 -23.55 M0.0 -30.75 Q-12.1 -30.75 -20.75 -22.15 -29.3 -13.55 -29.3 -1.45 -29.3 10.7 -20.75 19.3 -12.15 27.9 0.0 27.9 12.15 27.9 20.75 19.3 29.3 10.7 29.3 -1.45 29.3 -13.55 20.75 -22.15 12.15 -30.75 0.0 -30.75" fill="#231f20" fill-rule="evenodd" stroke="none"/>
    <path d="M0.0 -30.75 Q12.15 -30.75 20.75 -22.15 29.3 -13.55 29.3 -1.45 29.3 10.7 20.75 19.3 12.15 27.9 0.0 27.9 -12.15 27.9 -20.75 19.3 -29.3 10.7 -29.3 -1.45 -29.3 -13.55 -20.75 -22.15 -12.1 -30.75 0.0 -30.75 M17.85 -19.3 Q10.5 -26.75 0.0 -26.75 -10.5 -26.75 -17.95 -19.3 -25.35 -11.9 -25.35 -1.45 -25.35 9.05 -17.95 16.5 -10.45 23.9 0.0 23.9 10.45 23.9 17.85 16.5 25.3 9.05 25.3 -1.45 25.3 -11.9 17.85 -19.3" fill="#787878" fill-rule="evenodd" stroke="none"/>
    <path d="M17.85 -19.3 Q25.3 -11.9 25.3 -1.45 25.3 9.05 17.85 16.5 10.45 23.9 0.0 23.9 -10.45 23.9 -17.95 16.5 -25.35 9.05 -25.35 -1.45 -25.35 -11.9 -17.95 -19.3 -10.5 -26.75 0.0 -26.75 10.5 -26.75 17.85 -19.3 M12.5 -7.35 L3.15 -7.35 3.15 -16.7 -12.5 -1.15 3.15 14.45 3.15 5.1 12.5 5.1 12.5 -7.35" fill="url(#gradient0)" fill-rule="evenodd" stroke="none"/>
    <path d="M12.5 -7.35 L12.5 5.1 3.15 5.1 3.15 14.45 -12.5 -1.15 3.15 -16.7 3.15 -7.35 12.5 -7.35" fill="#ffffff" fill-rule="evenodd" stroke="none"/>
  </g>
  <defs>
    <linearGradient gradientTransform="matrix(0.0, -0.0146, -0.0146, 0.0, 0.0, 10.6)" gradientUnits="userSpaceOnUse" id="gradient0" spreadMethod="pad" x1="-819.2" x2="819.2">
      <stop offset="0.0" stop-color="#d9d9d9"/>
      <stop offset="1.0" stop-color="#5a5a5a"/>
    </linearGradient>
  </defs>
</svg>
