<?xml version="1.0" encoding="UTF-8" standalone="no"?>
<svg xmlns:ffdec="https://www.free-decompiler.com/flash" xmlns:xlink="http://www.w3.org/1999/xlink" ffdec:objectType="shape" height="36.15px" width="58.25px" xmlns="http://www.w3.org/2000/svg">
  <g transform="matrix(1.0, 0.0, 0.0, 1.0, 30.15, 17.65)">
    <path d="M-26.95 -6.2 L-26.8 -6.3 -28.4 -3.4 -28.55 -3.2 -28.5 -3.15 -28.1 -2.65 -27.15 -1.75 -26.8 -1.2 Q-26.65 -0.8 -26.65 -0.4 L-26.6 0.65 Q-26.55 1.7 -26.65 2.25 L-26.7 2.5 -26.95 2.9 -27.3 2.95 -28.65 2.1 -29.8 0.95 -30.15 -1.35 -30.0 -3.75 -28.25 -5.3 -26.95 -6.2 M-17.0 6.1 L-17.1 6.0 Q-16.8 4.95 -17.05 4.2 L-16.85 4.0 -16.5 3.85 Q-14.85 4.8 -10.85 6.55 L-9.75 7.05 -9.35 9.05 -9.3 7.25 -6.3 8.5 -5.55 8.75 Q-6.4 9.3 -6.6 10.9 -7.65 10.55 -11.9 8.6 L-17.0 6.1 M3.25 17.0 Q3.0 16.7 3.05 15.85 L3.15 14.3 3.5 13.95 4.35 13.8 5.6 14.5 7.25 15.05 7.7 15.05 8.55 14.95 7.7 15.1 7.65 15.1 7.7 15.2 Q8.2 15.7 9.05 15.9 L9.7 15.95 Q12.3 16.1 17.3 13.75 24.15 10.55 27.2 7.2 L27.2 5.7 26.95 5.25 26.5 5.15 26.9 4.65 26.95 4.45 Q27.25 4.5 27.75 4.9 L28.0 5.8 Q28.2 6.85 27.95 7.55 27.15 9.75 18.25 14.25 9.45 18.7 6.85 18.5 6.25 18.45 4.7 17.8 L3.35 17.1 3.25 17.0" fill="#222227" fill-rule="evenodd" stroke="none"/>
    <path d="M-28.4 -3.4 L-26.8 -6.3 -26.95 -6.2 -26.5 -6.95 Q-24.35 -10.45 -19.25 -13.3 -14.05 -16.2 -9.85 -16.15 -8.05 -16.2 -4.0 -14.85 1.7 -17.5 3.65 -17.65 4.8 -17.7 10.25 -15.05 15.5 -12.55 16.1 -11.9 17.2 -10.65 19.1 -6.95 L20.75 -3.7 24.95 -1.05 Q25.8 -0.05 26.5 2.8 L26.9 4.65 26.5 5.15 26.3 5.25 26.15 5.4 25.85 3.7 25.4 1.85 Q24.8 -0.25 23.9 -0.75 L23.85 -0.75 22.75 -1.5 20.4 -2.8 Q19.8 -1.95 12.85 1.7 5.55 5.55 2.75 6.1 3.9 7.0 5.6 7.85 L7.6 8.7 7.85 10.9 7.75 10.95 5.65 10.4 Q4.65 10.1 4.65 10.7 L4.65 12.7 Q4.7 14.0 4.9 14.1 L6.0 14.55 7.75 14.9 7.7 15.05 7.25 15.05 5.6 14.5 4.35 13.8 3.5 13.95 3.15 14.3 3.05 15.85 Q3.0 16.7 3.25 17.0 L0.9 16.45 Q0.9 13.25 -0.2 11.3 -1.25 9.5 -2.75 9.6 -4.2 9.6 -5.1 10.85 -5.8 11.8 -5.95 13.1 L-6.05 13.15 -6.7 12.85 -6.6 12.85 Q-6.55 11.2 -5.75 9.9 -4.95 8.6 -3.75 8.3 L-6.3 8.5 -9.3 7.25 Q-9.2 5.2 -8.7 2.4 L-8.55 1.5 -8.5 1.2 -7.5 -3.5 -7.0 -5.25 -6.9 -5.6 -6.85 -5.75 -7.0 -5.65 -7.25 -5.4 -8.0 -3.7 -9.05 0.55 -9.15 1.2 -9.35 2.1 Q-9.85 5.15 -9.75 7.05 L-10.85 6.55 Q-14.85 4.8 -16.5 3.85 L-16.85 4.0 -17.05 4.2 Q-16.8 4.95 -17.1 6.0 L-17.0 6.1 Q-17.3 6.4 -17.7 6.55 L-18.9 6.8 Q-18.85 4.35 -20.1 2.15 -21.35 0.0 -22.8 -0.05 L-22.9 -0.05 Q-24.25 0.0 -24.95 1.25 -25.45 2.15 -25.6 3.5 L-26.7 2.5 -26.65 2.25 Q-26.55 1.7 -26.6 0.65 L-26.65 -0.4 Q-26.65 -0.8 -26.8 -1.2 L-27.15 -1.75 -28.1 -2.65 -28.5 -3.15 -28.4 -3.4 M-21.85 -9.1 Q-23.0 -7.65 -22.35 -7.2 L-20.2 -5.65 -18.25 -4.3 -16.4 -6.15 -21.65 -9.3 -21.85 -9.1 M-15.65 -4.55 L-16.85 -3.3 Q-15.2 -1.75 -10.3 0.65 L-9.5 -2.25 -8.9 -4.05 -8.35 -5.8 -8.25 -5.9 Q-11.05 -7.4 -11.65 -8.45 L-13.15 -7.05 -15.65 -4.55 M-20.6 -10.4 L-16.25 -6.3 -14.65 -7.8 -11.85 -10.3 Q-10.85 -11.25 -8.45 -12.6 L-14.05 -14.55 Q-16.2 -13.7 -18.7 -11.95 L-20.6 -10.4 M-19.9 -0.6 L-22.45 -0.7 Q-21.25 -0.55 -20.1 0.6 -19.1 1.5 -18.7 2.55 -18.2 3.65 -17.7 3.4 -17.2 3.15 -17.8 1.9 -18.55 0.2 -19.9 -0.6 M-2.75 -14.25 Q-8.0 -11.5 -7.9 -9.9 -7.85 -8.65 -5.45 -7.3 -2.95 -5.85 0.75 -5.05 3.3 -5.05 9.0 -8.25 14.45 -11.3 14.3 -12.05 14.15 -12.65 9.5 -14.8 4.95 -16.95 4.05 -16.95 2.15 -16.9 -2.75 -14.25 M-9.65 -15.2 L-12.2 -15.1 -8.35 -12.65 -4.95 -14.4 -5.45 -14.5 -9.65 -15.2 M-0.4 2.35 L-0.9 -3.0 Q-2.6 -3.2 -6.2 -4.9 L-6.25 -4.85 -6.7 -3.1 -7.15 -1.35 -7.8 1.85 Q-2.75 4.15 -0.25 4.45 L-0.4 2.35 M17.75 -7.2 L15.9 -9.95 Q15.1 -9.05 9.8 -6.4 4.45 -3.65 1.65 -2.8 L2.0 1.25 2.35 5.35 3.75 5.0 Q7.25 3.95 12.8 1.15 18.4 -1.7 19.85 -3.2 L17.75 -7.2 M19.85 9.35 L17.5 10.55 14.1 12.1 Q13.6 12.15 13.15 10.3 12.75 8.35 13.35 8.0 L20.2 4.5 Q20.75 4.2 20.95 6.25 21.15 8.25 20.85 8.7 L20.65 8.85 20.6 7.15 Q20.35 5.5 19.95 5.7 L13.7 8.9 Q13.45 9.05 13.65 10.65 13.85 12.1 14.1 12.1 L19.85 9.35 M-2.95 8.3 Q-1.75 8.45 -0.5 9.65 0.55 10.6 1.0 11.6 1.45 12.7 2.0 12.55 2.6 12.4 2.0 11.1 1.25 9.5 -0.3 8.6 -1.9 7.65 -2.95 8.3" fill="#8a2c34" fill-rule="evenodd" stroke="none"/>
    <path d="M7.7 15.05 L7.75 14.9 7.85 14.85 10.75 14.0 12.5 13.1 Q12.6 12.9 11.9 11.35 L11.0 9.7 Q10.9 9.6 7.85 10.9 L7.6 8.7 Q8.0 8.8 16.1 4.5 L24.2 -0.25 23.85 -0.75 23.9 -0.75 Q24.8 -0.25 25.4 1.85 L23.95 2.85 Q22.75 3.75 22.6 4.05 22.35 4.45 22.45 6.2 22.5 7.95 22.85 7.7 L26.1 5.35 25.85 3.7 26.15 5.4 Q22.9 8.35 16.25 11.7 11.15 14.25 8.55 14.95 L7.7 15.05 M-21.85 -9.1 L-21.65 -9.3 -16.4 -6.15 -18.25 -4.3 -20.2 -5.65 -22.35 -7.2 Q-23.0 -7.65 -21.85 -9.1 M-20.6 -10.4 L-18.7 -11.95 Q-16.2 -13.7 -14.05 -14.55 L-8.45 -12.6 Q-10.85 -11.25 -11.85 -10.3 L-14.65 -7.8 -16.25 -6.3 -20.6 -10.4 M-19.9 -0.6 Q-18.55 0.2 -17.8 1.9 -17.2 3.15 -17.7 3.4 -18.2 3.65 -18.7 2.55 -19.1 1.5 -20.1 0.6 -21.25 -0.55 -22.45 -0.7 L-19.9 -0.6 M-9.65 -15.2 L-5.45 -14.5 -4.95 -14.4 -8.35 -12.65 -12.2 -15.1 -9.65 -15.2 M20.65 8.85 L20.85 8.7 Q21.15 8.25 20.95 6.25 20.75 4.2 20.2 4.5 L13.35 8.0 Q12.75 8.35 13.15 10.3 13.6 12.15 14.1 12.1 L17.5 10.55 19.85 9.35 20.5 9.0 20.65 8.85 M-2.95 8.3 Q-1.9 7.65 -0.3 8.6 1.25 9.5 2.0 11.1 2.6 12.4 2.0 12.55 1.45 12.7 1.0 11.6 0.55 10.6 -0.5 9.65 -1.75 8.45 -2.95 8.3" fill="#b6414f" fill-rule="evenodd" stroke="none"/>
    <path d="M-8.9 -4.05 L-9.5 -2.25 -10.3 0.65 Q-15.2 -1.75 -16.85 -3.3 L-15.65 -4.55 Q-12.35 -5.25 -8.9 -4.05 M-0.4 2.35 L-0.25 4.45 Q-2.75 4.15 -7.8 1.85 L-7.15 -1.35 -6.7 -3.1 Q-3.0 -1.2 -0.4 2.35" fill="#6cc4e6" fill-rule="evenodd" stroke="none"/>
    <path d="M7.6 8.7 L5.6 7.85 Q3.9 7.0 2.75 6.1 5.55 5.55 12.85 1.7 19.8 -1.95 20.4 -2.8 L22.75 -1.5 23.85 -0.75 24.2 -0.25 16.1 4.5 Q8.0 8.8 7.6 8.7 M-2.75 -14.25 Q2.15 -16.9 4.05 -16.95 4.95 -16.95 9.5 -14.8 14.15 -12.65 14.3 -12.05 14.45 -11.3 9.0 -8.25 3.3 -5.05 0.75 -5.05 -2.95 -5.85 -5.45 -7.3 -7.85 -8.65 -7.9 -9.9 -8.0 -11.5 -2.75 -14.25 M8.85 -12.4 L9.3 -11.6 Q10.35 -10.65 11.55 -11.45 13.0 -12.35 11.45 -12.8 L9.1 -12.95 Q8.75 -12.8 8.85 -12.4 M22.45 -1.15 Q21.5 -1.7 21.15 -1.4 20.05 -0.4 21.1 -0.05 L22.85 -0.2 Q23.35 -0.65 22.45 -1.15" fill="#cd4f62" fill-rule="evenodd" stroke="none"/>
    <path d="M-8.9 -4.05 Q-12.35 -5.25 -15.65 -4.55 L-13.15 -7.05 -11.65 -8.45 Q-11.05 -7.4 -8.25 -5.9 L-8.35 -5.8 -8.9 -4.05 M-6.7 -3.1 L-6.25 -4.85 -6.2 -4.9 Q-2.6 -3.2 -0.9 -3.0 L-0.4 2.35 Q-3.0 -1.2 -6.7 -3.1 M3.75 5.0 Q3.15 -0.45 7.75 -4.4 12.35 -8.3 17.75 -7.2 L19.85 -3.2 Q18.4 -1.7 12.8 1.15 7.25 3.95 3.75 5.0" fill="#9fe8ff" fill-rule="evenodd" stroke="none"/>
    <path d="M-25.6 3.5 Q-25.45 2.15 -24.95 1.25 -24.25 0.0 -22.9 -0.05 -23.6 0.0 -24.2 0.9 -24.8 1.75 -25.1 3.2 L-25.6 3.5 M-18.9 6.8 L-17.7 6.55 Q-17.3 6.4 -17.0 6.1 L-11.9 8.6 Q-7.65 10.55 -6.6 10.9 -6.4 9.3 -5.55 8.75 L-6.3 8.5 -3.75 8.3 Q-4.95 8.6 -5.75 9.9 -6.55 11.2 -6.6 12.85 L-6.7 12.85 Q-8.05 12.6 -14.4 9.25 L-18.9 6.8 M-9.75 7.05 Q-9.85 5.15 -9.35 2.1 L-9.15 1.2 -9.05 0.55 -8.0 -3.7 -7.25 -5.4 -7.0 -5.65 -6.85 -5.75 -6.9 -5.6 -7.0 -5.25 -7.5 -3.5 -8.5 1.2 -8.55 1.5 -8.7 2.4 Q-9.2 5.2 -9.3 7.25 L-9.35 9.05 -9.75 7.05 M-5.95 13.1 Q-5.8 11.8 -5.1 10.85 -4.2 9.6 -2.75 9.6 -3.75 9.7 -4.4 10.5 -5.15 11.4 -5.35 12.85 L-5.95 13.1" fill="#590c15" fill-rule="evenodd" stroke="none"/>
    <path d="M8.85 -12.4 Q8.75 -12.8 9.1 -12.95 L11.45 -12.8 Q13.0 -12.35 11.55 -11.45 10.35 -10.65 9.3 -11.6 L8.85 -12.4 M3.75 5.0 L2.35 5.35 2.0 1.25 1.65 -2.8 Q4.45 -3.65 9.8 -6.4 15.1 -9.05 15.9 -9.95 L17.75 -7.2 Q12.35 -8.3 7.75 -4.4 3.15 -0.45 3.75 5.0 M22.45 -1.15 Q23.35 -0.65 22.85 -0.2 L21.1 -0.05 Q20.05 -0.4 21.15 -1.4 21.5 -1.7 22.45 -1.15" fill="#fdfdfd" fill-rule="evenodd" stroke="none"/>
    <path d="M26.15 5.4 L26.3 5.25 26.5 5.15 26.95 5.25 27.2 5.7 27.2 7.2 Q24.15 10.55 17.3 13.75 12.3 16.1 9.7 15.95 L9.05 15.9 Q8.2 15.7 7.7 15.2 L7.65 15.1 7.7 15.1 8.55 14.95 Q11.15 14.25 16.25 11.7 22.9 8.35 26.15 5.4" fill="#595863" fill-rule="evenodd" stroke="none"/>
    <path d="M7.75 14.9 L6.0 14.55 4.9 14.1 Q4.7 14.0 4.65 12.7 L4.65 10.7 Q4.65 10.1 5.65 10.4 L7.75 10.95 7.85 10.9 Q10.9 9.6 11.0 9.7 L11.9 11.35 Q12.6 12.9 12.5 13.1 L10.75 14.0 7.85 14.85 7.75 14.9 M25.4 1.85 L25.85 3.7 26.1 5.35 22.85 7.7 Q22.5 7.95 22.45 6.2 22.35 4.45 22.6 4.05 22.75 3.75 23.95 2.85 L25.4 1.85 M25.75 3.85 Q25.55 2.75 25.35 2.6 25.15 2.5 24.3 3.1 L23.25 4.1 23.05 5.45 Q23.0 6.55 23.4 6.6 L24.7 6.0 25.75 5.1 25.75 3.85 M9.5 10.65 Q8.4 11.05 8.1 11.45 7.85 11.75 8.05 12.7 8.2 13.7 8.65 13.95 L10.3 13.8 11.75 13.2 Q12.0 13.0 11.7 12.0 L11.0 10.6 9.5 10.65" fill="#c7411a" fill-rule="evenodd" stroke="none"/>
    <path d="M25.75 3.85 L25.75 5.1 24.7 6.0 23.4 6.6 Q23.0 6.55 23.05 5.45 L23.25 4.1 24.3 3.1 Q25.15 2.5 25.35 2.6 25.55 2.75 25.75 3.85 M9.5 10.65 L11.0 10.6 11.7 12.0 Q12.0 13.0 11.75 13.2 L10.3 13.8 8.65 13.95 Q8.2 13.7 8.05 12.7 7.85 11.75 8.1 11.45 8.4 11.05 9.5 10.65" fill="#f7603b" fill-rule="evenodd" stroke="none"/>
    <path d="M20.65 8.85 L20.5 9.0 19.85 9.35 14.1 12.1 Q13.85 12.1 13.65 10.65 13.45 9.05 13.7 8.9 L19.95 5.7 Q20.35 5.5 20.6 7.15 L20.65 8.85" fill="#d1dfe3" fill-rule="evenodd" stroke="none"/>
  </g>
</svg>
