<?xml version="1.0" encoding="UTF-8" standalone="no"?>
<svg xmlns:ffdec="https://www.free-decompiler.com/flash" xmlns:xlink="http://www.w3.org/1999/xlink" ffdec:objectType="shape" height="54.5px" width="54.5px" xmlns="http://www.w3.org/2000/svg">
  <g transform="matrix(1.0, 0.0, 0.0, 1.0, 27.25, 27.25)">
    <path d="M0.0 -25.15 Q-9.9 -25.15 -16.95 -18.15 -24.0 -11.05 -24.0 -1.15 -24.0 8.75 -16.95 15.8 -9.95 22.8 0.0 22.8 9.95 22.8 16.95 15.8 24.0 8.75 24.0 -1.15 24.0 -11.05 16.95 -18.15 9.95 -25.15 0.0 -25.15 M19.25 -19.25 Q27.25 -11.25 27.25 0.0 27.25 11.3 19.25 19.25 11.3 27.25 0.0 27.25 -11.25 27.25 -19.25 19.25 -27.25 11.3 -27.25 0.0 -27.25 -11.25 -19.25 -19.25 -11.25 -27.25 0.0 -27.25 11.3 -27.25 19.25 -19.25" fill="#231f20" fill-rule="evenodd" stroke="none"/>
    <path d="M14.6 -15.8 Q8.6 -21.85 0.0 -21.85 -8.6 -21.85 -14.65 -15.8 -20.75 -9.7 -20.75 -1.15 -20.75 7.4 -14.65 13.5 -8.55 19.55 0.0 19.55 8.55 19.55 14.6 13.5 20.7 7.4 20.7 -1.15 20.7 -9.7 14.6 -15.8 M0.0 -25.15 Q9.95 -25.15 16.95 -18.15 24.0 -11.05 24.0 -1.15 24.0 8.75 16.95 15.8 9.95 22.8 0.0 22.8 -9.95 22.8 -16.95 15.8 -24.0 8.75 -24.0 -1.15 -24.0 -11.05 -16.95 -18.15 -9.9 -25.15 0.0 -25.15" fill="#787878" fill-rule="evenodd" stroke="none"/>
    <path d="M10.2 -6.05 L2.55 -6.05 2.55 -13.7 -10.2 -0.95 2.55 11.85 2.55 4.2 10.2 4.2 10.2 -6.05 M14.6 -15.8 Q20.7 -9.7 20.7 -1.15 20.7 7.4 14.6 13.5 8.55 19.55 0.0 19.55 -8.55 19.55 -14.65 13.5 -20.75 7.4 -20.75 -1.15 -20.75 -9.7 -14.65 -15.8 -8.6 -21.85 0.0 -21.85 8.6 -21.85 14.6 -15.8" fill="url(#gradient0)" fill-rule="evenodd" stroke="none"/>
    <path d="M10.2 -6.05 L10.2 4.2 2.55 4.2 2.55 11.85 -10.2 -0.95 2.55 -13.7 2.55 -6.05 10.2 -6.05" fill="#ffffff" fill-rule="evenodd" stroke="none"/>
  </g>
  <defs>
    <linearGradient gradientTransform="matrix(0.0, -0.0119, -0.0119, 0.0, 0.0, 8.7)" gradientUnits="userSpaceOnUse" id="gradient0" spreadMethod="pad" x1="-819.2" x2="819.2">
      <stop offset="0.0" stop-color="#d9d9d9"/>
      <stop offset="1.0" stop-color="#5a5a5a"/>
    </linearGradient>
  </defs>
</svg>
