<?xml version="1.0" encoding="UTF-8" standalone="no"?>
<svg xmlns:ffdec="https://www.free-decompiler.com/flash" xmlns:xlink="http://www.w3.org/1999/xlink" ffdec:objectType="shape" height="66.6px" width="66.65px" xmlns="http://www.w3.org/2000/svg">
  <g transform="matrix(1.0, 0.0, 0.0, 1.0, 33.3, 33.3)">
    <path d="M25.3 -1.4 Q25.3 -11.9 17.9 -19.3 10.45 -26.75 0.0 -26.75 -10.45 -26.75 -17.9 -19.3 -25.35 -11.85 -25.35 -1.4 -25.35 9.05 -17.9 16.5 -10.5 23.9 0.0 23.9 10.5 23.9 17.9 16.5 25.3 9.1 25.3 -1.4 M20.75 -22.1 Q29.35 -13.55 29.35 -1.4 29.35 10.75 20.75 19.35 12.15 27.95 0.0 27.95 -12.1 27.95 -20.7 19.35 -29.3 10.75 -29.3 -1.4 -29.3 -13.55 -20.7 -22.1 -12.15 -30.7 0.0 -30.7 12.15 -30.7 20.75 -22.1" fill="#787878" fill-rule="evenodd" stroke="none"/>
    <path d="M25.3 -1.4 Q25.3 9.1 17.9 16.5 10.5 23.9 0.0 23.9 -10.5 23.9 -17.9 16.5 -25.35 9.05 -25.35 -1.4 -25.35 -11.85 -17.9 -19.3 -10.45 -26.75 0.0 -26.75 10.45 -26.75 17.9 -19.3 25.3 -11.9 25.3 -1.4 M-3.1 -1.15 L-3.1 -16.75 -18.7 -1.15 -3.1 14.45 -3.1 -1.15 12.5 14.45 12.5 -16.75 -3.1 -1.15" fill="url(#gradient0)" fill-rule="evenodd" stroke="none"/>
    <path d="M20.75 -22.1 Q12.15 -30.7 0.0 -30.7 -12.15 -30.7 -20.7 -22.1 -29.3 -13.55 -29.3 -1.4 -29.3 10.75 -20.7 19.35 -12.1 27.95 0.0 27.95 12.15 27.95 20.75 19.35 29.35 10.75 29.35 -1.4 29.35 -13.55 20.75 -22.1 M33.35 0.0 Q33.35 13.8 23.55 23.55 13.8 33.3 0.0 33.3 -13.75 33.3 -23.5 23.55 -33.3 13.8 -33.3 0.0 -33.3 -13.75 -23.5 -23.55 -13.8 -33.3 0.0 -33.3 13.8 -33.3 23.55 -23.55 33.35 -13.75 33.35 0.0" fill="#231f20" fill-rule="evenodd" stroke="none"/>
    <path d="M-3.1 -1.15 L12.5 -16.75 12.5 14.45 -3.1 -1.15 -3.1 14.45 -18.7 -1.15 -3.1 -16.75 -3.1 -1.15" fill="#ffffff" fill-rule="evenodd" stroke="none"/>
  </g>
  <defs>
    <linearGradient gradientTransform="matrix(0.0, -0.0146, -0.0146, 0.0, 0.0, 10.6)" gradientUnits="userSpaceOnUse" id="gradient0" spreadMethod="pad" x1="-819.2" x2="819.2">
      <stop offset="0.0" stop-color="#d9d9d9"/>
      <stop offset="1.0" stop-color="#5a5a5a"/>
    </linearGradient>
  </defs>
</svg>
