<?xml version="1.0" encoding="UTF-8" standalone="no"?>
<svg xmlns:ffdec="https://www.free-decompiler.com/flash" xmlns:xlink="http://www.w3.org/1999/xlink" ffdec:objectType="shape" height="60.55px" width="60.6px" xmlns="http://www.w3.org/2000/svg">
  <g transform="matrix(1.0, 0.0, 0.0, 1.0, 30.3, 30.3)">
    <path d="M-21.4 -21.45 Q-12.55 -30.3 0.0 -30.3 12.55 -30.3 21.4 -21.45 30.3 -12.55 30.3 -0.05 30.3 12.5 21.4 21.35 12.55 30.25 0.0 30.25 -12.5 30.25 -21.4 21.35 -30.3 12.5 -30.3 -0.05 -30.3 -12.55 -21.4 -21.45 M0.0 -27.95 Q-11.05 -27.95 -18.85 -20.15 -26.65 -12.35 -26.65 -1.3 -26.65 9.75 -18.85 17.55 -11.0 25.35 0.0 25.35 11.05 25.35 18.85 17.55 26.65 9.75 26.65 -1.3 26.65 -12.35 18.85 -20.15 11.05 -27.95 0.0 -27.95" fill="#231f20" fill-rule="evenodd" stroke="none"/>
    <path d="M0.0 -27.95 Q11.05 -27.95 18.85 -20.15 26.65 -12.35 26.65 -1.3 26.65 9.75 18.85 17.55 11.05 25.35 0.0 25.35 -11.0 25.35 -18.85 17.55 -26.65 9.75 -26.65 -1.3 -26.65 -12.35 -18.85 -20.15 -11.05 -27.95 0.0 -27.95 M16.25 -17.6 Q9.5 -24.35 0.0 -24.35 -9.5 -24.35 -16.25 -17.6 -23.0 -10.85 -23.0 -1.3 -23.0 8.25 -16.25 14.95 -9.5 21.7 0.0 21.7 9.55 21.7 16.25 14.95 23.0 8.25 23.0 -1.3 23.0 -10.85 16.25 -17.6" fill="#787878" fill-rule="evenodd" stroke="none"/>
    <path d="M16.25 -17.6 Q23.0 -10.85 23.0 -1.3 23.0 8.25 16.25 14.95 9.55 21.7 0.0 21.7 -9.5 21.7 -16.25 14.95 -23.0 8.25 -23.0 -1.3 -23.0 -10.85 -16.25 -17.6 -9.5 -24.35 0.0 -24.35 9.5 -24.35 16.25 -17.6 M13.95 -7.65 L5.45 -7.65 5.45 -16.15 -6.3 -4.35 -6.3 -16.15 -13.95 -16.15 -13.95 12.2 -6.3 12.2 -6.3 0.45 5.45 12.2 5.45 3.7 13.95 3.7 13.95 -7.65" fill="url(#gradient0)" fill-rule="evenodd" stroke="none"/>
    <path d="M13.95 -7.65 L13.95 3.7 5.45 3.7 5.45 12.2 -6.3 0.45 -6.3 12.2 -13.95 12.2 -13.95 -16.15 -6.3 -16.15 -6.3 -4.35 5.45 -16.15 5.45 -7.65 13.95 -7.65" fill="#ffffff" fill-rule="evenodd" stroke="none"/>
  </g>
  <defs>
    <linearGradient gradientTransform="matrix(0.0, -0.0132, -0.0132, 0.0, 0.0, 9.6)" gradientUnits="userSpaceOnUse" id="gradient0" spreadMethod="pad" x1="-819.2" x2="819.2">
      <stop offset="0.0" stop-color="#d9d9d9"/>
      <stop offset="1.0" stop-color="#5a5a5a"/>
    </linearGradient>
  </defs>
</svg>
