<?xml version="1.0" encoding="UTF-8" standalone="no"?>
<svg xmlns:ffdec="https://www.free-decompiler.com/flash" xmlns:xlink="http://www.w3.org/1999/xlink" ffdec:objectType="shape" height="42.8px" width="42.8px" xmlns="http://www.w3.org/2000/svg">
  <g transform="matrix(1.0, 0.0, 0.0, 1.0, 21.4, 21.4)">
    <path d="M15.1 -15.1 Q21.4 -8.8 21.4 0.05 21.4 8.9 15.1 15.15 8.85 21.4 0.0 21.4 -8.85 21.4 -15.15 15.15 -21.4 8.9 -21.4 0.05 -21.4 -8.8 -15.15 -15.1 -8.85 -21.4 0.0 -21.4 8.85 -21.4 15.1 -15.1" fill="#6edb87" fill-rule="evenodd" stroke="none"/>
    <path d="M-14.15 -8.65 L-13.4 -7.85 -13.4 -7.0 Q-14.15 -7.5 -14.15 -8.4 L-14.15 -8.65" fill="#000000" fill-rule="evenodd" stroke="none"/>
    <path d="M14.55 -9.1 L14.7 -8.4 Q14.7 -7.45 13.9 -7.0 L13.9 -4.75 13.8 -4.8 13.8 -7.85 Q14.45 -8.3 14.55 -9.1" fill="#000000" fill-rule="evenodd" stroke="none"/>
    <path d="M14.4 10.4 Q14.05 10.85 13.55 11.0 12.75 13.0 10.8 13.75 L10.25 14.6 9.2 14.9 Q8.15 14.9 7.7 14.05 L4.75 14.05 Q4.25 14.9 3.25 14.9 2.25 14.9 1.8 14.05 L-1.2 14.05 Q-1.7 14.9 -2.7 14.9 -3.7 14.9 -4.15 14.05 L-7.15 14.05 Q-7.6 14.9 -8.6 14.9 -9.2 14.9 -9.65 14.55 L-10.25 13.7 Q-12.2 12.95 -12.95 11.05 L-13.8 10.45 -14.15 9.4 -14.15 9.15 Q-13.75 9.9 -13.05 10.1 -12.25 12.05 -10.35 12.8 L-9.75 13.7 -8.75 14.05 Q-7.75 14.05 -7.25 13.15 L-4.3 13.15 Q-3.8 14.05 -2.8 14.05 -1.8 14.05 -1.35 13.15 L1.65 13.15 Q2.15 14.05 3.15 14.05 4.15 14.05 4.6 13.15 L7.6 13.15 Q8.1 14.05 9.05 14.05 9.65 14.05 10.1 13.7 L10.7 12.8 Q12.7 12.05 13.45 10.1 14.4 9.75 14.55 8.75 L14.7 9.4 14.4 10.4" fill="#000000" fill-rule="evenodd" stroke="none"/>
    <path d="M14.55 2.8 L14.7 3.45 Q14.7 4.4 13.9 4.9 L13.9 7.15 13.8 7.05 13.8 4.0 Q14.45 3.6 14.55 2.8" fill="#000000" fill-rule="evenodd" stroke="none"/>
    <path d="M14.55 -3.15 L14.7 -2.45 Q14.7 -1.5 13.9 -1.05 L13.9 1.2 13.8 1.1 13.8 -1.95 Q14.45 -2.35 14.55 -3.15" fill="#000000" fill-rule="evenodd" stroke="none"/>
    <path d="M-14.55 3.25 Q-14.25 4.0 -13.4 4.2 L-13.4 5.1 -14.25 4.45 -14.55 3.45 -14.55 3.25" fill="#000000" fill-rule="evenodd" stroke="none"/>
    <path d="M-14.55 -2.7 Q-14.25 -1.95 -13.4 -1.75 L-13.4 -0.85 -14.25 -1.45 -14.55 -2.45 -14.55 -2.7" fill="#000000" fill-rule="evenodd" stroke="none"/>
    <path d="M10.8 -9.25 Q10.8 -10.05 10.3 -10.55 9.75 -11.1 9.0 -11.1 L-8.6 -11.1 Q-9.35 -11.1 -9.9 -10.55 -10.45 -10.05 -10.45 -9.25 L-10.45 8.35 Q-10.45 9.1 -9.9 9.6 -9.35 10.15 -8.6 10.15 L9.0 10.15 Q9.75 10.15 10.3 9.6 10.8 9.1 10.8 8.35 L10.8 -9.25 M4.35 -11.9 Q4.85 -12.45 4.85 -13.15 L4.55 -14.1 7.65 -14.1 7.4 -13.15 Q7.4 -12.45 7.9 -11.9 8.35 -11.45 9.05 -11.45 9.75 -11.45 10.3 -11.9 10.75 -12.45 10.75 -13.15 L10.65 -13.8 Q11.65 -13.4 12.4 -12.65 L13.5 -10.9 12.9 -11.0 Q12.2 -11.0 11.7 -10.5 11.2 -10.05 11.2 -9.35 11.2 -8.65 11.7 -8.1 12.2 -7.65 12.9 -7.65 L13.8 -7.85 13.8 -4.8 12.9 -5.05 Q12.2 -5.05 11.7 -4.6 11.2 -4.1 11.2 -3.4 11.2 -2.7 11.7 -2.15 12.2 -1.7 12.9 -1.7 L13.8 -1.95 13.8 1.1 12.9 0.9 Q12.2 0.9 11.7 1.35 11.2 1.85 11.2 2.55 11.2 3.25 11.7 3.75 12.2 4.25 12.9 4.25 L13.8 4.0 13.8 7.05 12.9 6.8 Q12.2 6.8 11.7 7.3 11.2 7.8 11.2 8.5 11.2 9.2 11.7 9.7 12.2 10.2 12.9 10.2 L13.45 10.1 Q12.7 12.05 10.7 12.8 L10.75 12.35 Q10.75 11.65 10.3 11.1 9.75 10.65 9.05 10.65 8.35 10.65 7.9 11.1 7.4 11.65 7.4 12.35 L7.6 13.15 4.6 13.15 4.85 12.35 Q4.85 11.65 4.35 11.1 3.85 10.65 3.15 10.65 2.4 10.65 1.95 11.1 1.45 11.65 1.45 12.35 L1.65 13.15 -1.35 13.15 -1.1 12.35 Q-1.1 11.65 -1.6 11.1 -2.1 10.65 -2.8 10.65 -3.5 10.65 -4.0 11.1 -4.5 11.65 -4.5 12.35 L-4.3 13.15 -7.25 13.15 -7.05 12.35 Q-7.05 11.65 -7.55 11.1 -8.05 10.65 -8.75 10.65 -9.45 10.65 -9.95 11.1 -10.45 11.65 -10.45 12.35 L-10.35 12.8 Q-12.25 12.05 -13.05 10.1 L-12.55 10.2 Q-11.85 10.2 -11.35 9.7 -10.85 9.2 -10.85 8.5 -10.85 7.8 -11.35 7.3 -11.85 6.8 -12.55 6.8 L-13.4 7.05 -13.4 4.2 -13.0 4.25 Q-12.3 4.25 -11.8 3.75 -11.3 3.25 -11.3 2.55 -11.3 1.85 -11.8 1.35 -12.3 0.9 -13.0 0.9 L-13.4 0.95 -13.4 -1.75 -13.0 -1.7 Q-12.3 -1.7 -11.8 -2.15 -11.3 -2.7 -11.3 -3.4 -11.3 -4.1 -11.8 -4.6 -12.3 -5.05 -13.0 -5.05 L-13.4 -5.0 -13.4 -7.85 -12.55 -7.65 Q-11.85 -7.65 -11.35 -8.1 -10.85 -8.65 -10.85 -9.35 -10.85 -10.05 -11.35 -10.5 -11.85 -11.0 -12.55 -11.0 L-13.15 -10.9 -12.0 -12.65 -10.3 -13.75 -10.45 -13.15 Q-10.45 -12.45 -9.95 -11.9 -9.45 -11.45 -8.75 -11.45 -8.05 -11.45 -7.55 -11.9 -7.05 -12.45 -7.05 -13.15 L-7.3 -14.1 -4.2 -14.1 -4.5 -13.15 Q-4.5 -12.45 -4.0 -11.9 -3.5 -11.45 -2.8 -11.45 -2.1 -11.45 -1.6 -11.9 -1.1 -12.45 -1.1 -13.15 -1.1 -13.6 -1.4 -14.1 L1.7 -14.1 1.45 -13.15 Q1.45 -12.45 1.95 -11.9 2.4 -11.45 3.15 -11.45 3.85 -11.45 4.35 -11.9" fill="#825428" fill-rule="evenodd" stroke="none"/>
    <path d="M9.0 -11.1 Q9.75 -11.1 10.3 -10.55 10.8 -10.05 10.8 -9.25 L10.8 8.35 Q10.8 9.1 10.3 9.6 9.75 10.15 9.0 10.15 L-8.6 10.15 Q-9.35 10.15 -9.9 9.6 -10.45 9.1 -10.45 8.35 L-10.45 -9.25 Q-10.45 -10.05 -9.9 -10.55 -9.35 -11.1 -8.6 -11.1 L9.0 -11.1 M10.5 -9.25 Q10.5 -9.9 10.05 -10.35 9.65 -10.8 9.0 -10.8 L-8.6 -10.8 Q-9.25 -10.8 -9.65 -10.35 -10.1 -9.9 -10.1 -9.25 L-10.1 8.35 Q-10.1 8.95 -9.65 9.4 -9.25 9.85 -8.6 9.85 L9.0 9.85 Q9.65 9.85 10.05 9.4 L10.5 8.35 10.5 -9.25" fill="#000000" fill-rule="evenodd" stroke="none"/>
    <path d="M10.05 -10.35 Q10.5 -9.9 10.5 -9.25 L10.5 8.35 10.05 9.4 Q9.65 9.85 9.0 9.85 L-8.6 9.85 Q-9.25 9.85 -9.65 9.4 -10.1 8.95 -10.1 8.35 L-10.1 -9.25 Q-10.1 -9.9 -9.65 -10.35 -9.25 -10.8 -8.6 -10.8 L9.0 -10.8 Q9.65 -10.8 10.05 -10.35 M9.35 -8.95 L9.05 -9.85 8.55 -9.8 Q6.85 -9.65 5.55 -9.1 3.75 -8.4 3.35 -7.15 L1.85 -3.7 0.15 -4.55 -1.0 -4.4 -2.15 -3.95 -2.4 -4.2 -3.3 -5.55 -4.65 -7.35 Q-6.4 -9.35 -7.9 -9.55 L-8.3 -9.45 -8.55 -8.95 -8.9 -8.0 Q-9.1 -7.2 -8.9 -6.5 -8.55 -5.55 -7.25 -4.8 L-6.2 -4.35 -5.2 -3.85 -4.75 -3.4 -4.5 -3.05 -4.4 -2.8 -4.55 -2.5 -6.3 -0.45 -7.05 0.55 -7.25 1.0 -7.1 1.4 -5.1 3.0 -2.55 4.7 -2.3 4.95 Q-1.7 5.8 -1.9 6.6 -2.1 7.5 -2.75 8.35 L-3.2 8.85 -3.0 9.15 0.8 9.2 1.0 9.2 1.2 9.15 1.65 8.05 2.05 7.9 2.55 7.9 3.6 8.15 2.3 8.55 1.85 8.75 1.9 9.1 2.5 9.15 6.05 9.2 6.35 9.1 6.75 8.45 6.95 8.35 7.2 8.4 7.9 8.35 Q8.8 8.3 9.15 7.45 9.4 6.9 9.1 6.25 8.85 5.65 8.3 5.3 7.6 4.75 6.75 4.95 5.95 5.1 5.35 5.8 4.35 5.0 4.15 4.05 3.95 3.3 4.15 2.95 L5.4 0.75 5.55 0.4 5.55 0.1 4.5 -1.7 5.35 -2.5 7.2 -3.75 Q8.6 -4.95 9.15 -7.05 9.45 -8.15 9.35 -8.95" fill="#f2f2f2" fill-rule="evenodd" stroke="none"/>
    <path d="M-3.75 1.05 L-4.05 1.0 -3.9 1.05 -3.75 1.05" fill="#f2f2f2" fill-rule="evenodd" stroke="none"/>
    <path d="M-11.35 -10.5 Q-10.85 -10.05 -10.85 -9.35 -10.85 -8.65 -11.35 -8.1 -11.85 -7.65 -12.55 -7.65 L-13.4 -7.85 -14.15 -8.65 -14.25 -9.35 -13.95 -10.3 -13.15 -10.9 -12.55 -11.0 Q-11.85 -11.0 -11.35 -10.5" fill="#ffdb00" fill-rule="evenodd" stroke="none"/>
    <path d="M7.4 -13.15 L7.65 -14.1 Q8.15 -14.85 9.05 -14.85 10.2 -14.85 10.65 -13.8 L10.75 -13.15 Q10.75 -12.45 10.3 -11.9 9.75 -11.45 9.05 -11.45 8.35 -11.45 7.9 -11.9 7.4 -12.45 7.4 -13.15" fill="#ffdb00" fill-rule="evenodd" stroke="none"/>
    <path d="M-4.5 -13.15 L-4.2 -14.1 Q-3.75 -14.85 -2.8 -14.85 -1.85 -14.85 -1.4 -14.1 -1.1 -13.6 -1.1 -13.15 -1.1 -12.45 -1.6 -11.9 -2.1 -11.45 -2.8 -11.45 -3.5 -11.45 -4.0 -11.9 -4.5 -12.45 -4.5 -13.15" fill="#ffdb00" fill-rule="evenodd" stroke="none"/>
    <path d="M-7.3 -14.1 L-7.05 -13.15 Q-7.05 -12.45 -7.55 -11.9 -8.05 -11.45 -8.75 -11.45 -9.45 -11.45 -9.95 -11.9 -10.45 -12.45 -10.45 -13.15 L-10.3 -13.75 -9.7 -14.55 -8.75 -14.85 Q-7.8 -14.85 -7.3 -14.1" fill="#ffffff" fill-rule="evenodd" stroke="none"/>
    <path d="M1.45 -13.15 L1.7 -14.1 Q2.2 -14.85 3.15 -14.85 4.0 -14.85 4.55 -14.1 L4.85 -13.15 Q4.85 -12.45 4.35 -11.9 3.85 -11.45 3.15 -11.45 2.4 -11.45 1.95 -11.9 1.45 -12.45 1.45 -13.15" fill="#ffffff" fill-rule="evenodd" stroke="none"/>
    <path d="M14.6 -9.35 L14.55 -9.1 Q14.45 -8.3 13.8 -7.85 L12.9 -7.65 Q12.2 -7.65 11.7 -8.1 11.2 -8.65 11.2 -9.35 11.2 -10.05 11.7 -10.5 12.2 -11.0 12.9 -11.0 L13.5 -10.9 14.3 -10.25 14.6 -9.35" fill="#ffffff" fill-rule="evenodd" stroke="none"/>
    <path d="M12.9 6.8 L13.8 7.05 13.9 7.15 Q14.6 7.7 14.6 8.5 L14.55 8.75 Q14.4 9.75 13.45 10.1 L12.9 10.2 Q12.2 10.2 11.7 9.7 11.2 9.2 11.2 8.5 11.2 7.8 11.7 7.3 12.2 6.8 12.9 6.8" fill="#ffdb00" fill-rule="evenodd" stroke="none"/>
    <path d="M-7.05 12.35 L-7.25 13.15 Q-7.75 14.05 -8.75 14.05 L-9.75 13.7 -10.35 12.8 -10.45 12.35 Q-10.45 11.65 -9.95 11.1 -9.45 10.65 -8.75 10.65 -8.05 10.65 -7.55 11.1 -7.05 11.65 -7.05 12.35" fill="#ffdb00" fill-rule="evenodd" stroke="none"/>
    <path d="M4.85 12.35 L4.6 13.15 Q4.15 14.05 3.15 14.05 2.15 14.05 1.65 13.15 L1.45 12.35 Q1.45 11.65 1.95 11.1 2.4 10.65 3.15 10.65 3.85 10.65 4.35 11.1 4.85 11.65 4.85 12.35" fill="#ffdb00" fill-rule="evenodd" stroke="none"/>
    <path d="M9.05 10.65 Q9.75 10.65 10.3 11.1 10.75 11.65 10.75 12.35 L10.7 12.8 10.1 13.7 Q9.65 14.05 9.05 14.05 8.1 14.05 7.6 13.15 L7.4 12.35 Q7.4 11.65 7.9 11.1 8.35 10.65 9.05 10.65" fill="#ffffff" fill-rule="evenodd" stroke="none"/>
    <path d="M-1.1 12.35 L-1.35 13.15 Q-1.8 14.05 -2.8 14.05 -3.8 14.05 -4.3 13.15 L-4.5 12.35 Q-4.5 11.65 -4.0 11.1 -3.5 10.65 -2.8 10.65 -2.1 10.65 -1.6 11.1 -1.1 11.65 -1.1 12.35" fill="#ffffff" fill-rule="evenodd" stroke="none"/>
    <path d="M14.6 2.55 L14.55 2.8 Q14.45 3.6 13.8 4.0 L12.9 4.25 Q12.2 4.25 11.7 3.75 11.2 3.25 11.2 2.55 11.2 1.85 11.7 1.35 12.2 0.9 12.9 0.9 L13.8 1.1 13.9 1.2 Q14.6 1.75 14.6 2.55" fill="#ffffff" fill-rule="evenodd" stroke="none"/>
    <path d="M14.6 -3.4 L14.55 -3.15 Q14.45 -2.35 13.8 -1.95 L12.9 -1.7 Q12.2 -1.7 11.7 -2.15 11.2 -2.7 11.2 -3.4 11.2 -4.1 11.7 -4.6 12.2 -5.05 12.9 -5.05 L13.8 -4.8 13.9 -4.75 Q14.6 -4.2 14.6 -3.4" fill="#ffdb00" fill-rule="evenodd" stroke="none"/>
    <path d="M-13.4 4.2 Q-14.25 4.0 -14.55 3.25 L-14.65 2.55 Q-14.65 2.0 -14.3 1.55 -13.95 1.05 -13.4 0.95 L-13.0 0.9 Q-12.3 0.9 -11.8 1.35 -11.3 1.85 -11.3 2.55 -11.3 3.25 -11.8 3.75 -12.3 4.25 -13.0 4.25 L-13.4 4.2" fill="#ffdb00" fill-rule="evenodd" stroke="none"/>
    <path d="M-11.8 -4.6 Q-11.3 -4.1 -11.3 -3.4 -11.3 -2.7 -11.8 -2.15 -12.3 -1.7 -13.0 -1.7 L-13.4 -1.75 Q-14.25 -1.95 -14.55 -2.7 L-14.65 -3.4 -14.3 -4.4 Q-13.95 -4.85 -13.4 -5.0 L-13.0 -5.05 Q-12.3 -5.05 -11.8 -4.6" fill="#ffffff" fill-rule="evenodd" stroke="none"/>
    <path d="M-12.55 6.8 Q-11.85 6.8 -11.35 7.3 -10.85 7.8 -10.85 8.5 -10.85 9.2 -11.35 9.7 -11.85 10.2 -12.55 10.2 L-13.05 10.1 Q-13.75 9.9 -14.15 9.15 L-14.25 8.5 Q-14.25 7.55 -13.4 7.05 L-12.55 6.8" fill="#ffffff" fill-rule="evenodd" stroke="none"/>
    <path d="M8.8 7.3 L8.75 7.35 8.75 7.45 8.65 7.5 8.6 7.6 8.55 7.7 8.45 7.75 8.35 7.8 8.3 7.85 7.8 8.05 7.45 8.1 6.4 8.1 5.85 7.8 6.2 8.55 6.2 8.65 5.95 8.85 5.5 8.9 5.2 8.85 4.55 8.85 Q5.25 8.25 5.35 7.45 L5.7 7.65 5.45 6.8 5.9 7.2 Q6.35 7.4 6.9 7.2 L7.7 6.6 7.7 5.95 7.35 5.25 Q8.05 5.4 8.55 6.0 9.0 6.65 8.8 7.3" fill="#d9cea9" fill-rule="evenodd" stroke="none"/>
    <path d="M0.5 4.2 Q2.05 3.55 3.15 2.1 4.4 0.55 4.3 -1.1 L5.05 0.1 5.05 0.25 3.35 3.6 2.95 4.1 3.75 4.2 3.8 4.25 4.0 4.7 Q1.4 4.0 -1.0 5.4 -1.7 5.9 -1.05 6.85 L-1.6 6.65 -1.15 7.2 Q-1.05 7.55 -1.35 8.0 L-2.0 8.75 -2.5 8.85 Q-1.85 7.7 -1.65 6.6 L-1.65 6.4 -1.6 6.35 -1.6 5.8 -1.65 5.75 -1.65 5.6 -1.55 5.5 -0.85 5.25 Q-2.05 4.8 -2.85 4.25 -0.9 5.05 0.5 4.2" fill="#d9cea9" fill-rule="evenodd" stroke="none"/>
    <path d="M1.45 7.85 L1.35 7.95 0.8 8.85 0.35 8.9 -0.1 8.85 -0.15 8.85 Q0.95 8.2 1.45 7.05 L1.55 7.2 2.15 7.7 1.65 7.8 1.45 7.85" fill="#d9cea9" fill-rule="evenodd" stroke="none"/>
    <path d="M-3.35 1.25 L-3.2 1.25 -3.1 1.25 -3.0 1.3 -3.0 1.4 -2.9 1.45 -2.9 1.55 -2.9 1.6 -2.8 1.7 Q-3.45 1.65 -3.8 1.25 L-3.75 1.25 -3.6 1.25 -3.35 1.3 -3.35 1.25" fill="#d9cea9" fill-rule="evenodd" stroke="none"/>
    <path d="M-2.0 2.8 L-1.9 2.8 -1.95 2.8 -1.9 2.8 0.0 2.45 0.2 2.3 Q0.4 2.55 0.2 2.7 -1.0 3.3 -1.9 3.3 -1.7 3.1 -2.0 2.8" fill="#d9cea9" fill-rule="evenodd" stroke="none"/>
    <path d="M7.9 -9.35 L7.95 -9.4 8.05 -9.4 8.7 -9.5 8.8 -9.45 8.8 -9.35 8.8 -9.25 8.9 -9.05 8.95 -7.85 8.85 -7.4 8.8 -7.2 8.75 -7.0 8.55 -6.4 Q8.05 -5.25 7.2 -4.4 L6.85 -4.05 6.8 -4.05 5.7 -3.35 5.65 -3.3 5.25 -3.05 5.2 -3.0 4.5 -2.45 4.4 -2.35 4.15 -2.05 4.05 -2.0 4.05 -1.95 3.9 -1.8 3.9 -1.75 3.8 -1.75 5.1 -3.7 6.0 -4.3 6.05 -4.35 6.55 -4.65 6.6 -4.7 7.1 -5.1 7.3 -5.35 Q8.05 -6.2 8.35 -7.7 L8.4 -7.9 7.75 -7.75 Q8.6 -8.45 7.9 -9.35" fill="#d9cea9" fill-rule="evenodd" stroke="none"/>
    <path d="M1.65 0.2 Q2.05 -0.15 2.05 -0.7 2.05 -1.25 1.65 -1.65 L0.8 -2.0 -0.1 -1.65 Q-0.5 -1.25 -0.5 -0.7 -0.5 -0.15 -0.1 0.2 L0.8 0.55 1.65 0.2 M-4.1 1.1 L-3.85 1.25 -3.8 1.25 Q-3.45 1.65 -2.8 1.7 L-2.7 1.95 -2.4 2.4 -2.35 2.45 -2.25 2.65 -2.25 2.7 -2.0 2.8 Q-1.7 3.1 -1.9 3.3 -1.0 3.3 0.2 2.7 0.4 2.55 0.2 2.3 L-0.2 1.25 -0.3 1.15 -0.55 0.55 -0.55 0.4 -0.6 0.4 -0.85 0.3 -1.1 0.3 -1.75 0.55 -2.8 0.9 -3.9 1.05 -4.05 1.0 -4.15 0.9 -4.15 1.0 -4.1 1.1 M6.8 -9.1 L7.9 -9.35 Q8.6 -8.45 7.75 -7.75 L6.45 -7.05 6.4 -7.0 5.55 -6.2 Q4.6 -5.15 3.9 -3.0 L3.85 -2.8 4.85 -3.55 4.9 -3.6 5.1 -3.7 3.8 -1.75 3.9 -1.75 3.85 -1.75 3.95 -1.65 4.3 -1.1 Q4.4 0.55 3.15 2.1 2.05 3.55 0.5 4.2 -0.9 5.1 -2.9 4.2 L-5.05 2.65 -6.3 1.55 -6.65 1.1 -6.8 0.9 -5.8 -0.55 -5.05 -1.35 -3.85 -2.45 -1.95 -3.65 -0.55 -4.15 -0.2 -4.2 -0.05 -4.2 1.95 -3.25 Q2.0 -3.2 2.05 -3.3 L2.15 -3.5 2.2 -3.55 2.4 -3.95 3.35 -6.1 3.9 -7.3 3.95 -7.35 4.2 -7.65 4.25 -7.7 4.75 -8.1 4.9 -8.2 5.3 -8.45 5.75 -8.7 6.8 -9.1" fill="#fff4cf" fill-rule="evenodd" stroke="none"/>
    <path d="M5.0 5.95 L5.0 6.0 5.05 6.0 5.2 6.1 5.2 6.2 5.1 6.35 5.05 6.65 5.05 6.7 5.05 7.0 5.2 7.2 5.2 7.25 5.35 7.45 Q5.25 8.25 4.55 8.85 L2.8 8.85 4.3 8.1 4.15 7.95 4.1 7.95 4.0 7.95 3.9 7.9 3.65 7.8 3.35 7.75 2.65 7.5 2.25 7.3 2.15 7.2 2.05 7.15 1.85 6.95 1.8 6.85 1.65 6.6 1.65 6.45 1.65 6.35 1.7 6.1 1.4 6.55 1.35 6.8 1.45 7.05 Q0.95 8.2 -0.15 8.85 L-1.05 8.85 -0.85 8.5 -0.9 8.65 0.15 7.3 -0.65 7.1 -0.75 7.05 -1.05 6.85 Q-1.7 5.9 -1.0 5.4 1.4 4.0 4.0 4.7 L4.05 4.75 4.05 4.8 4.1 4.85 4.55 5.45 5.0 5.95" fill="#fff4cf" fill-rule="evenodd" stroke="none"/>
    <path d="M7.7 6.6 L6.9 7.2 Q6.35 7.4 5.9 7.2 L5.45 6.8 Q5.45 6.3 5.75 5.85 6.25 5.3 6.85 5.2 L7.1 5.2 7.35 5.25 7.7 5.95 7.7 6.6" fill="#fff4cf" fill-rule="evenodd" stroke="none"/>
    <path d="M7.95 -9.4 L6.35 -8.9 5.75 -8.7 5.3 -8.45 5.2 -8.4 4.75 -8.1 4.25 -7.7 4.2 -7.65 3.95 -7.35 3.9 -7.3 3.3 -5.85 2.15 -3.5 2.05 -3.3 Q2.0 -3.2 1.95 -3.25 L1.35 -3.55 -0.05 -4.2 -0.2 -4.2 -0.5 -4.15 -0.55 -4.15 -1.05 -4.0 -1.2 -3.95 -1.95 -3.65 -2.75 -3.15 -4.25 -2.1 -5.95 -0.35 -6.8 0.9 -6.65 1.1 -6.3 1.55 -5.05 2.65 -2.9 4.2 -2.5 4.45 -0.85 5.25 -1.55 5.5 -1.65 5.6 -1.65 5.75 -1.6 5.8 -1.6 6.35 -1.65 6.4 -1.65 6.6 Q-1.8 7.65 -2.5 8.85 L-2.0 8.75 -1.35 8.0 Q-1.05 7.55 -1.15 7.2 L-1.6 6.65 -0.65 7.1 0.15 7.3 -0.9 8.65 -0.85 8.5 -1.05 8.85 -0.1 8.85 0.35 8.9 0.8 8.85 1.35 7.95 1.45 7.85 1.65 7.8 2.15 7.7 1.55 7.2 1.45 7.05 1.35 6.8 1.4 6.55 1.7 6.1 1.65 6.35 1.65 6.45 1.65 6.6 1.8 6.85 1.85 6.95 2.05 7.15 2.15 7.2 2.25 7.3 2.65 7.5 2.85 7.6 2.9 7.6 3.35 7.75 3.65 7.8 3.9 7.9 4.1 7.95 4.15 7.95 4.3 8.1 2.8 8.85 5.2 8.85 5.5 8.9 5.95 8.85 6.2 8.65 6.2 8.55 5.85 7.8 6.4 8.1 7.55 8.1 7.65 8.05 7.8 8.05 8.0 8.0 8.2 7.9 8.25 7.9 8.3 7.85 8.35 7.8 8.45 7.75 8.55 7.7 8.6 7.6 8.65 7.5 8.75 7.45 8.75 7.35 8.8 7.3 Q9.0 6.65 8.55 6.0 7.95 5.2 7.1 5.2 L6.85 5.2 Q6.2 5.3 5.75 5.85 5.45 6.3 5.45 6.8 L5.7 7.65 5.35 7.45 5.2 7.25 5.2 7.2 5.05 7.0 5.05 6.7 5.05 6.65 5.1 6.35 5.2 6.2 5.2 6.1 5.0 6.0 5.0 5.95 4.55 5.45 4.1 4.85 4.05 4.8 4.05 4.75 4.0 4.7 3.8 4.25 3.75 4.2 2.95 4.1 3.35 3.6 4.8 0.8 4.9 0.7 5.05 0.25 5.05 0.1 4.6 -0.65 4.2 -1.3 4.15 -1.35 3.95 -1.65 3.9 -1.8 4.8 -2.7 5.2 -3.0 5.25 -3.05 5.65 -3.3 5.7 -3.35 6.8 -4.05 6.85 -4.05 7.05 -4.25 7.2 -4.35 7.2 -4.4 Q8.05 -5.25 8.55 -6.4 L8.75 -7.0 8.8 -7.2 8.85 -7.4 8.9 -9.05 8.8 -9.25 8.8 -9.35 8.8 -9.45 8.7 -9.5 8.05 -9.4 7.95 -9.4 M5.55 -9.1 Q6.85 -9.65 8.55 -9.8 L9.05 -9.85 9.35 -8.95 Q9.45 -8.15 9.15 -7.05 8.6 -4.95 7.2 -3.75 L5.35 -2.5 4.5 -1.7 5.55 0.1 5.55 0.4 5.4 0.75 4.15 2.95 Q3.95 3.3 4.15 4.05 4.35 5.0 5.35 5.8 5.95 5.1 6.75 4.95 7.6 4.75 8.3 5.3 8.85 5.65 9.1 6.25 9.4 6.9 9.15 7.45 8.8 8.3 7.9 8.35 L7.2 8.4 6.95 8.35 6.75 8.45 6.35 9.1 6.05 9.2 2.5 9.15 1.9 9.1 1.85 8.75 2.3 8.55 3.6 8.15 2.55 7.9 2.05 7.9 1.65 8.05 1.2 9.15 1.0 9.2 0.8 9.2 -3.0 9.15 -3.2 8.85 -2.75 8.35 Q-2.1 7.5 -1.9 6.6 -1.7 5.8 -2.3 4.95 L-2.55 4.7 -5.1 3.0 -7.1 1.4 -7.25 1.0 -7.05 0.55 -6.3 -0.45 -4.55 -2.5 -4.4 -2.8 -4.5 -3.05 -4.75 -3.4 -5.2 -3.85 -6.2 -4.35 -7.25 -4.8 Q-8.55 -5.55 -8.9 -6.5 -9.1 -7.2 -8.9 -8.0 L-8.55 -8.95 -8.3 -9.45 -7.9 -9.55 Q-6.4 -9.35 -4.65 -7.35 L-3.3 -5.55 -2.4 -4.2 -2.15 -3.95 -1.0 -4.4 0.15 -4.55 1.85 -3.7 3.35 -7.15 Q3.75 -8.4 5.55 -9.1" fill="#8b7d4c" fill-rule="evenodd" stroke="none"/>
    <path d="M-1.7 0.85 L-1.65 0.9 -1.3 1.5 -1.3 1.55 -1.25 1.55 -0.95 2.2 -0.95 2.35 -0.3 2.2 -0.4 1.85 -0.8 1.0 -0.95 0.6 -1.1 0.65 -1.7 0.85 M-2.05 1.0 L-2.15 1.0 -2.75 1.2 -2.45 1.55 -1.9 2.45 -1.85 2.55 -1.25 2.4 -1.35 2.3 -1.7 1.65 -1.75 1.55 -1.75 1.5 -2.05 1.05 -2.05 1.0 M-4.15 1.0 L-4.15 0.9 -4.05 1.0 -2.8 0.9 -1.75 0.55 -1.1 0.3 -0.85 0.3 -0.6 0.4 -0.55 0.4 -0.5 0.6 -0.45 0.75 -0.3 1.15 -0.3 1.2 0.2 2.3 0.0 2.45 -1.9 2.8 -1.95 2.8 -2.25 2.65 -2.4 2.4 -2.9 1.45 -3.0 1.4 -3.05 1.25 -3.1 1.25 -3.2 1.25 -3.35 1.25 -3.35 1.3 -3.6 1.25 -3.75 1.25 -3.85 1.25 -4.1 1.1 -4.15 1.0" fill="#8b7d4c" fill-rule="evenodd" stroke="none"/>
    <path d="M-0.95 0.65 L-0.9 0.75 -0.8 1.0 -1.4 1.3 -1.65 0.9 -1.7 0.9 -1.7 0.85 -1.1 0.65 -0.95 0.6 -0.95 0.65" fill="#cfdae5" fill-rule="evenodd" stroke="none"/>
    <path d="M-2.75 1.2 L-2.05 1.0 -2.05 1.05 -1.75 1.5 -2.45 1.55 -2.75 1.2" fill="#cfdae5" fill-rule="evenodd" stroke="none"/>
    <path d="M-1.75 1.5 L-1.75 1.55 -1.7 1.65 -1.35 2.3 -1.25 2.4 -1.85 2.55 -1.9 2.45 -2.45 1.55 -1.75 1.5" fill="#f4f8fb" fill-rule="evenodd" stroke="none"/>
    <path d="M-0.95 2.2 L-1.25 1.55 -1.3 1.55 -1.3 1.5 -1.4 1.3 -0.8 1.0 -0.4 1.85 -0.3 2.2 -0.95 2.35 -0.95 2.2" fill="#f4f8fb" fill-rule="evenodd" stroke="none"/>
    <path d="M4.85 -3.55 L3.9 -2.85 Q5.55 -6.1 7.7 -7.15 L6.4 -5.25 4.85 -3.55" fill="#ffb6b7" fill-rule="evenodd" stroke="none"/>
    <path d="M6.4 -7.0 L6.45 -7.05 Q7.35 -7.7 8.2 -7.85 L8.4 -7.9 8.35 -7.7 Q8.0 -6.2 7.3 -5.35 L7.1 -5.1 6.6 -4.7 6.55 -4.65 6.05 -4.35 6.0 -4.3 4.9 -3.6 4.85 -3.55 6.4 -5.25 7.7 -7.15 Q5.55 -6.1 3.9 -2.85 L3.85 -2.8 3.9 -3.0 Q4.55 -5.1 5.65 -6.35 L6.4 -7.0" fill="#db8e90" fill-rule="evenodd" stroke="none"/>
    <path d="M0.95 -1.1 Q0.95 -0.8 1.25 -0.8 L1.55 -1.1 1.25 -1.45 Q0.95 -1.45 0.95 -1.1 M2.05 -0.7 Q2.05 -0.15 1.65 0.2 L0.8 0.55 -0.1 0.2 Q-0.5 -0.15 -0.5 -0.7 -0.5 -1.25 -0.1 -1.65 L0.8 -2.0 1.65 -1.65 Q2.05 -1.25 2.05 -0.7" fill="#aa192c" fill-rule="evenodd" stroke="none"/>
    <path d="M1.25 -0.8 Q0.95 -0.8 0.95 -1.1 0.95 -1.45 1.25 -1.45 L1.55 -1.1 1.25 -0.8" fill="#ffffff" fill-rule="evenodd" stroke="none"/>
  </g>
</svg>
