<?xml version="1.0" encoding="UTF-8" standalone="no"?>
<svg xmlns:ffdec="https://www.free-decompiler.com/flash" xmlns:xlink="http://www.w3.org/1999/xlink" ffdec:objectType="shape" height="47.1px" width="47.1px" xmlns="http://www.w3.org/2000/svg">
  <g transform="matrix(1.0, 0.0, 0.0, 1.0, 23.55, 23.55)">
    <path d="M16.6 -16.6 Q23.55 -9.7 23.55 0.05 23.55 9.8 16.6 16.65 9.75 23.55 0.0 23.55 -9.75 23.55 -16.65 16.65 -23.55 9.8 -23.55 0.05 -23.55 -9.7 -16.65 -16.6 -9.75 -23.55 0.0 -23.55 9.75 -23.55 16.6 -16.6" fill="#6edb87" fill-rule="evenodd" stroke="none"/>
    <path d="M19.8 0.05 Q19.8 8.2 14.0 14.0 8.2 19.8 0.0 19.8 -8.2 19.8 -14.0 14.0 -19.8 8.2 -19.8 0.05 -19.8 -8.2 -14.0 -14.0 -8.2 -19.8 0.0 -19.8 8.2 -19.8 14.0 -14.0 19.8 -8.2 19.8 0.05" fill="#ffffff" fill-rule="evenodd" stroke="none"/>
  </g>
</svg>
