<?xml version="1.0" encoding="UTF-8" standalone="no"?>
<svg xmlns:ffdec="https://www.free-decompiler.com/flash" xmlns:xlink="http://www.w3.org/1999/xlink" ffdec:objectType="shape" height="58.3px" width="58.3px" xmlns="http://www.w3.org/2000/svg">
  <g transform="matrix(1.0, 0.0, 0.0, 1.0, 29.15, 29.15)">
    <path d="M0.0 -29.15 Q1.8 -29.15 4.7 -25.75 L6.95 -23.2 Q8.2 -21.85 9.1 -21.5 L11.75 -21.1 15.05 -21.3 Q19.25 -21.55 20.45 -20.45 21.6 -19.2 21.3 -15.0 21.0 -10.25 21.5 -9.1 21.9 -8.2 23.2 -6.95 L25.8 -4.7 Q29.15 -1.8 29.15 0.0 29.15 1.8 25.8 4.7 L23.2 6.95 Q21.9 8.2 21.5 9.1 21.0 10.25 21.3 15.05 21.6 19.25 20.45 20.45 19.25 21.6 15.05 21.3 L9.1 21.5 Q8.2 21.9 6.95 23.2 L4.7 25.8 Q1.8 29.15 0.0 29.15 -1.8 29.15 -4.7 25.8 L-6.95 23.2 Q-8.15 21.9 -9.1 21.5 L-15.0 21.3 Q-19.2 21.6 -20.45 20.45 -21.55 19.25 -21.3 15.05 L-21.1 11.75 Q-21.1 10.0 -21.5 9.1 -21.85 8.2 -23.15 6.95 L-25.75 4.7 Q-29.15 1.8 -29.15 0.0 -29.15 -1.8 -25.75 -4.7 L-23.15 -6.95 Q-21.85 -8.2 -21.5 -9.1 -21.1 -10.0 -21.1 -11.7 L-21.3 -15.0 Q-21.55 -19.2 -20.45 -20.45 -19.2 -21.55 -15.0 -21.3 L-11.7 -21.1 -9.1 -21.5 Q-8.15 -21.85 -6.95 -23.2 L-4.7 -25.75 Q-1.8 -29.15 0.0 -29.15" fill="#ffffff" fill-rule="evenodd" stroke="none"/>
  </g>
</svg>
