<?xml version="1.0" encoding="UTF-8" standalone="no"?>
<svg xmlns:ffdec="https://www.free-decompiler.com/flash" xmlns:xlink="http://www.w3.org/1999/xlink" ffdec:objectType="shape" height="38.5px" width="38.5px" xmlns="http://www.w3.org/2000/svg">
  <g transform="matrix(1.0, 0.0, 0.0, 1.0, 19.25, 19.25)">
    <path d="M13.6 -13.6 Q19.25 -7.9 19.25 0.05 19.25 8.0 13.6 13.65 7.95 19.25 0.0 19.25 -7.95 19.25 -13.65 13.65 -19.25 8.0 -19.25 0.05 -19.25 -7.9 -13.65 -13.6 -7.95 -19.25 0.0 -19.25 7.95 -19.25 13.6 -13.6" fill="#6edb87" fill-rule="evenodd" stroke="none"/>
    <path d="M-12.7 -7.8 L-12.05 -7.05 -12.05 -6.3 Q-12.7 -6.75 -12.7 -7.6 L-12.7 -7.8" fill="#000000" fill-rule="evenodd" stroke="none"/>
    <path d="M13.15 -8.2 L13.25 -7.6 Q13.25 -6.75 12.5 -6.3 L12.5 -4.25 12.45 -4.35 12.45 -7.1 Q13.05 -7.5 13.15 -8.2" fill="#000000" fill-rule="evenodd" stroke="none"/>
    <path d="M12.95 9.35 L12.25 9.9 Q11.5 11.65 9.75 12.35 L9.2 13.15 8.3 13.4 Q7.35 13.4 6.95 12.6 L4.3 12.6 Q3.85 13.4 2.95 13.4 2.05 13.4 1.6 12.6 L-1.05 12.6 Q-1.5 13.4 -2.4 13.4 -3.3 13.4 -3.75 12.6 L-6.4 12.6 Q-6.85 13.4 -7.75 13.4 L-8.65 13.1 -9.2 12.3 Q-10.95 11.65 -11.65 9.9 L-12.4 9.4 -12.7 8.45 -12.7 8.25 Q-12.4 8.9 -11.75 9.1 -11.0 10.8 -9.3 11.5 L-8.75 12.3 -7.85 12.6 Q-6.95 12.6 -6.55 11.8 L-3.85 11.8 Q-3.4 12.6 -2.5 12.6 -1.6 12.6 -1.2 11.8 L1.5 11.8 Q1.95 12.6 2.85 12.6 3.75 12.6 4.15 11.8 L6.85 11.8 Q7.3 12.6 8.15 12.6 L9.1 12.3 9.65 11.5 Q11.45 10.85 12.1 9.1 13.0 8.8 13.15 7.85 L13.25 8.45 12.95 9.35" fill="#000000" fill-rule="evenodd" stroke="none"/>
    <path d="M13.15 2.5 L13.25 3.1 Q13.25 3.95 12.5 4.4 L12.5 6.4 12.45 6.35 12.45 3.6 Q13.05 3.2 13.15 2.5" fill="#000000" fill-rule="evenodd" stroke="none"/>
    <path d="M13.15 -2.85 L13.25 -2.25 Q13.25 -1.4 12.5 -0.95 L12.5 1.05 12.45 1.0 12.45 -1.75 Q13.05 -2.15 13.15 -2.85" fill="#000000" fill-rule="evenodd" stroke="none"/>
    <path d="M-13.05 2.9 Q-12.8 3.6 -12.05 3.75 L-12.05 4.55 -12.8 4.0 -13.1 3.1 -13.05 2.9" fill="#000000" fill-rule="evenodd" stroke="none"/>
    <path d="M-13.05 -2.45 Q-12.8 -1.75 -12.05 -1.6 L-12.05 -0.75 -12.8 -1.35 -13.1 -2.25 -13.05 -2.45" fill="#000000" fill-rule="evenodd" stroke="none"/>
    <path d="M9.75 -8.35 Q9.75 -9.05 9.25 -9.5 8.8 -10.0 8.1 -10.0 L-7.75 -10.0 Q-8.4 -10.0 -8.9 -9.5 L-9.35 -8.35 -9.35 7.5 -8.9 8.65 -7.75 9.1 8.1 9.1 Q8.8 9.1 9.25 8.65 9.75 8.15 9.75 7.5 L9.75 -8.35 M3.9 -10.75 Q4.35 -11.2 4.35 -11.85 L4.1 -12.7 6.9 -12.7 6.65 -11.85 Q6.65 -11.2 7.1 -10.75 7.55 -10.3 8.15 -10.3 8.8 -10.3 9.25 -10.75 9.7 -11.2 9.7 -11.85 L9.6 -12.4 11.2 -11.4 12.15 -9.8 11.6 -9.9 Q11.0 -9.9 10.55 -9.45 10.1 -9.05 10.1 -8.4 10.1 -7.75 10.55 -7.3 11.0 -6.85 11.6 -6.85 L12.45 -7.1 12.45 -4.35 11.6 -4.55 Q11.0 -4.55 10.55 -4.15 10.1 -3.7 10.1 -3.05 10.1 -2.45 10.55 -1.95 11.0 -1.55 11.6 -1.55 L12.45 -1.75 12.45 1.0 11.6 0.8 Q11.0 0.8 10.55 1.2 10.1 1.65 10.1 2.3 10.1 2.9 10.55 3.4 11.0 3.8 11.6 3.8 L12.45 3.6 12.45 6.35 11.6 6.15 Q11.0 6.15 10.55 6.55 10.1 7.0 10.1 7.65 10.1 8.25 10.55 8.75 11.0 9.15 11.6 9.15 L12.1 9.1 Q11.45 10.85 9.65 11.5 L9.7 11.1 Q9.7 10.45 9.25 10.0 8.8 9.55 8.15 9.55 7.55 9.55 7.1 10.0 6.65 10.45 6.65 11.1 L6.85 11.8 4.15 11.8 4.35 11.1 Q4.35 10.45 3.9 10.0 3.45 9.55 2.85 9.55 2.2 9.55 1.75 10.0 1.3 10.45 1.3 11.1 L1.5 11.8 -1.2 11.8 -1.0 11.1 Q-1.0 10.45 -1.4 10.0 -1.9 9.55 -2.5 9.55 -3.15 9.55 -3.6 10.0 -4.0 10.45 -4.0 11.1 L-3.85 11.8 -6.55 11.8 -6.35 11.1 Q-6.35 10.45 -6.75 10.0 -7.25 9.55 -7.85 9.55 -8.5 9.55 -8.95 10.0 -9.35 10.45 -9.35 11.1 L-9.3 11.5 Q-11.0 10.8 -11.75 9.1 L-11.3 9.15 Q-10.65 9.15 -10.2 8.75 -9.75 8.25 -9.75 7.65 -9.75 7.0 -10.2 6.55 -10.65 6.15 -11.3 6.15 L-12.05 6.3 -12.05 3.75 -11.7 3.8 Q-11.05 3.8 -10.6 3.4 -10.15 2.9 -10.15 2.3 -10.15 1.65 -10.6 1.2 -11.05 0.8 -11.7 0.8 L-12.05 0.85 -12.05 -1.6 -11.7 -1.55 Q-11.05 -1.55 -10.6 -1.95 -10.15 -2.45 -10.15 -3.05 -10.15 -3.7 -10.6 -4.15 -11.05 -4.55 -11.7 -4.55 L-12.05 -4.5 -12.05 -7.05 -11.3 -6.85 Q-10.65 -6.85 -10.2 -7.3 -9.75 -7.75 -9.75 -8.4 -9.75 -9.05 -10.2 -9.45 L-11.3 -9.9 -11.8 -9.85 -10.8 -11.4 Q-10.15 -12.05 -9.25 -12.4 L-9.35 -11.85 Q-9.35 -11.2 -8.95 -10.75 -8.5 -10.3 -7.85 -10.3 -7.25 -10.3 -6.75 -10.75 -6.35 -11.2 -6.35 -11.85 L-6.6 -12.7 -3.8 -12.7 -4.0 -11.85 Q-4.0 -11.2 -3.6 -10.75 -3.15 -10.3 -2.5 -10.3 -1.9 -10.3 -1.4 -10.75 -1.0 -11.2 -1.0 -11.85 L-1.25 -12.7 1.55 -12.7 1.3 -11.85 Q1.3 -11.2 1.75 -10.75 2.2 -10.3 2.85 -10.3 3.45 -10.3 3.9 -10.75" fill="#825428" fill-rule="evenodd" stroke="none"/>
    <path d="M9.45 -8.35 L9.05 -9.35 8.1 -9.7 -7.75 -9.7 Q-8.3 -9.7 -8.7 -9.35 -9.1 -8.9 -9.1 -8.35 L-9.1 7.5 Q-9.1 8.05 -8.7 8.45 -8.3 8.85 -7.75 8.85 L8.1 8.85 Q8.7 8.85 9.05 8.45 9.45 8.05 9.45 7.5 L9.45 -8.35 M8.1 -10.0 Q8.8 -10.0 9.25 -9.5 9.75 -9.05 9.75 -8.35 L9.75 7.5 Q9.75 8.15 9.25 8.65 8.8 9.1 8.1 9.1 L-7.75 9.1 -8.9 8.65 -9.35 7.5 -9.35 -8.35 -8.9 -9.5 Q-8.4 -10.0 -7.75 -10.0 L8.1 -10.0" fill="#000000" fill-rule="evenodd" stroke="none"/>
    <path d="M8.4 -8.05 L8.15 -8.9 7.7 -8.85 5.0 -8.2 Q3.4 -7.6 3.0 -6.45 L1.7 -3.35 0.15 -4.1 -0.85 -4.0 -1.9 -3.55 -2.15 -3.8 -2.95 -5.05 -4.15 -6.65 Q-5.75 -8.4 -7.1 -8.6 L-7.45 -8.5 -7.7 -8.05 -8.0 -7.2 -8.0 -5.9 Q-7.7 -5.0 -6.5 -4.3 L-5.6 -3.9 -4.7 -3.45 -4.25 -3.05 -4.0 -2.75 -3.95 -2.55 -4.05 -2.3 -5.7 -0.45 -6.35 0.5 -6.55 0.9 -6.35 1.25 -4.6 2.7 -2.3 4.25 -2.05 4.45 Q-1.5 5.2 -1.7 5.9 -1.85 6.75 -2.45 7.5 L-2.85 7.95 -2.65 8.25 0.75 8.25 0.95 8.3 1.1 8.25 1.5 7.25 Q1.5 7.15 1.85 7.1 L2.3 7.1 3.25 7.35 2.05 7.7 1.65 7.85 1.75 8.15 2.25 8.25 5.45 8.25 5.7 8.15 6.1 7.6 6.25 7.5 6.5 7.55 7.1 7.5 Q7.95 7.45 8.25 6.7 L8.2 5.6 7.5 4.75 Q6.85 4.25 6.1 4.45 5.4 4.55 4.85 5.25 3.95 4.5 3.75 3.6 3.6 2.95 3.75 2.65 L4.85 0.65 5.0 0.35 5.0 0.1 4.05 -1.55 4.8 -2.3 6.45 -3.4 Q7.75 -4.45 8.25 -6.35 L8.4 -8.05 M9.05 -9.35 L9.45 -8.35 9.45 7.5 Q9.45 8.05 9.05 8.45 8.7 8.85 8.1 8.85 L-7.75 8.85 Q-8.3 8.85 -8.7 8.45 -9.1 8.05 -9.1 7.5 L-9.1 -8.35 Q-9.1 -8.9 -8.7 -9.35 -8.3 -9.7 -7.75 -9.7 L8.1 -9.7 9.05 -9.35" fill="#f2f2f2" fill-rule="evenodd" stroke="none"/>
    <path d="M-3.35 0.95 L-3.65 0.9 -3.5 0.95 -3.35 0.95" fill="#f2f2f2" fill-rule="evenodd" stroke="none"/>
    <path d="M-10.2 -9.45 Q-9.75 -9.05 -9.75 -8.4 -9.75 -7.75 -10.2 -7.3 -10.65 -6.85 -11.3 -6.85 L-12.05 -7.05 -12.7 -7.8 -12.8 -8.4 -12.55 -9.3 -11.8 -9.85 -11.3 -9.9 -10.2 -9.45" fill="#ffdb00" fill-rule="evenodd" stroke="none"/>
    <path d="M6.65 -11.85 L6.9 -12.7 Q7.35 -13.35 8.15 -13.35 9.2 -13.35 9.6 -12.4 L9.7 -11.85 Q9.7 -11.2 9.25 -10.75 8.8 -10.3 8.15 -10.3 7.55 -10.3 7.1 -10.75 6.65 -11.2 6.65 -11.85" fill="#ffdb00" fill-rule="evenodd" stroke="none"/>
    <path d="M-4.0 -11.85 L-3.8 -12.7 Q-3.35 -13.35 -2.5 -13.35 -1.65 -13.35 -1.25 -12.7 L-1.0 -11.85 Q-1.0 -11.2 -1.4 -10.75 -1.9 -10.3 -2.5 -10.3 -3.15 -10.3 -3.6 -10.75 -4.0 -11.2 -4.0 -11.85" fill="#ffdb00" fill-rule="evenodd" stroke="none"/>
    <path d="M-6.6 -12.7 L-6.35 -11.85 Q-6.35 -11.2 -6.75 -10.75 -7.25 -10.3 -7.85 -10.3 -8.5 -10.3 -8.95 -10.75 -9.35 -11.2 -9.35 -11.85 L-9.25 -12.4 -8.7 -13.1 -7.85 -13.35 Q-7.0 -13.35 -6.6 -12.7" fill="#ffffff" fill-rule="evenodd" stroke="none"/>
    <path d="M1.3 -11.85 L1.55 -12.7 Q2.0 -13.35 2.85 -13.35 3.65 -13.35 4.1 -12.7 L4.35 -11.85 Q4.35 -11.2 3.9 -10.75 3.45 -10.3 2.85 -10.3 2.2 -10.3 1.75 -10.75 1.3 -11.2 1.3 -11.85" fill="#ffffff" fill-rule="evenodd" stroke="none"/>
    <path d="M13.15 -8.4 L13.15 -8.2 Q13.05 -7.5 12.45 -7.1 L11.6 -6.85 Q11.0 -6.85 10.55 -7.3 10.1 -7.75 10.1 -8.4 10.1 -9.05 10.55 -9.45 11.0 -9.9 11.6 -9.9 L12.15 -9.8 12.9 -9.25 13.15 -8.4" fill="#ffffff" fill-rule="evenodd" stroke="none"/>
    <path d="M11.6 6.15 L12.45 6.35 12.5 6.4 Q13.15 6.9 13.15 7.65 L13.15 7.85 Q13.0 8.8 12.1 9.1 L11.6 9.15 Q11.0 9.15 10.55 8.75 10.1 8.25 10.1 7.65 10.1 7.0 10.55 6.55 11.0 6.15 11.6 6.15" fill="#ffdb00" fill-rule="evenodd" stroke="none"/>
    <path d="M-6.35 11.1 L-6.55 11.8 Q-6.95 12.6 -7.85 12.6 L-8.75 12.3 -9.3 11.5 -9.35 11.1 Q-9.35 10.45 -8.95 10.0 -8.5 9.55 -7.85 9.55 -7.25 9.55 -6.75 10.0 -6.35 10.45 -6.35 11.1" fill="#ffdb00" fill-rule="evenodd" stroke="none"/>
    <path d="M4.35 11.1 L4.15 11.8 Q3.75 12.6 2.85 12.6 1.95 12.6 1.5 11.8 L1.3 11.1 Q1.3 10.45 1.75 10.0 2.2 9.55 2.85 9.55 3.45 9.55 3.9 10.0 4.35 10.45 4.35 11.1" fill="#ffdb00" fill-rule="evenodd" stroke="none"/>
    <path d="M8.15 9.55 Q8.8 9.55 9.25 10.0 9.7 10.45 9.7 11.1 L9.65 11.5 9.1 12.3 8.15 12.6 Q7.3 12.6 6.85 11.8 L6.65 11.1 Q6.65 10.45 7.1 10.0 7.55 9.55 8.15 9.55" fill="#ffffff" fill-rule="evenodd" stroke="none"/>
    <path d="M-1.0 11.1 L-1.2 11.8 Q-1.6 12.6 -2.5 12.6 -3.4 12.6 -3.85 11.8 L-4.0 11.1 Q-4.0 10.45 -3.6 10.0 -3.15 9.55 -2.5 9.55 -1.9 9.55 -1.4 10.0 -1.0 10.45 -1.0 11.1" fill="#ffffff" fill-rule="evenodd" stroke="none"/>
    <path d="M13.15 2.3 L13.15 2.5 Q13.05 3.2 12.45 3.6 L11.6 3.8 Q11.0 3.8 10.55 3.4 10.1 2.9 10.1 2.3 10.1 1.65 10.55 1.2 11.0 0.8 11.6 0.8 L12.45 1.0 12.5 1.05 Q13.15 1.55 13.15 2.3" fill="#ffffff" fill-rule="evenodd" stroke="none"/>
    <path d="M13.15 -3.05 L13.15 -2.85 Q13.05 -2.15 12.45 -1.75 L11.6 -1.55 Q11.0 -1.55 10.55 -1.95 10.1 -2.45 10.1 -3.05 10.1 -3.7 10.55 -4.15 11.0 -4.55 11.6 -4.55 L12.45 -4.35 12.5 -4.25 Q13.15 -3.8 13.15 -3.05" fill="#ffdb00" fill-rule="evenodd" stroke="none"/>
    <path d="M-12.05 3.75 Q-12.8 3.6 -13.05 2.9 L-13.2 2.3 -12.85 1.35 Q-12.55 0.95 -12.05 0.85 L-11.7 0.8 Q-11.05 0.8 -10.6 1.2 -10.15 1.65 -10.15 2.3 -10.15 2.9 -10.6 3.4 -11.05 3.8 -11.7 3.8 L-12.05 3.75" fill="#ffdb00" fill-rule="evenodd" stroke="none"/>
    <path d="M-10.6 -4.15 Q-10.15 -3.7 -10.15 -3.05 -10.15 -2.45 -10.6 -1.95 -11.05 -1.55 -11.7 -1.55 L-12.05 -1.6 Q-12.8 -1.75 -13.05 -2.45 L-13.2 -3.05 -12.85 -4.0 Q-12.55 -4.4 -12.05 -4.5 L-11.7 -4.55 Q-11.05 -4.55 -10.6 -4.15" fill="#ffffff" fill-rule="evenodd" stroke="none"/>
    <path d="M-11.3 6.15 Q-10.65 6.15 -10.2 6.55 -9.75 7.0 -9.75 7.65 -9.75 8.25 -10.2 8.75 -10.65 9.15 -11.3 9.15 L-11.75 9.1 Q-12.4 8.9 -12.7 8.25 L-12.8 7.65 Q-12.8 6.8 -12.05 6.3 L-11.3 6.15" fill="#ffffff" fill-rule="evenodd" stroke="none"/>
    <path d="M7.95 6.55 L7.9 6.6 7.9 6.7 7.8 6.75 7.75 6.85 7.7 6.9 7.6 6.95 7.55 7.05 7.45 7.1 7.05 7.2 6.75 7.25 5.8 7.3 5.3 7.0 5.55 7.7 5.55 7.8 5.35 7.95 4.95 8.0 4.65 7.95 4.1 7.95 Q4.75 7.4 4.85 6.7 L5.15 6.85 4.9 6.15 5.35 6.45 6.25 6.5 6.95 5.95 6.95 5.35 6.6 4.7 7.7 5.4 Q8.1 5.95 7.95 6.55" fill="#d9cea9" fill-rule="evenodd" stroke="none"/>
    <path d="M0.45 3.75 Q1.85 3.2 2.85 1.9 3.95 0.45 3.85 -1.0 L4.55 0.1 4.6 0.2 3.0 3.2 2.7 3.65 3.4 3.75 3.45 3.8 3.65 4.2 Q1.25 3.6 -0.85 4.85 -1.5 5.3 -0.95 6.2 L-1.4 5.95 -1.05 6.5 Q-0.9 6.8 -1.2 7.2 L-1.75 7.85 -2.25 7.95 Q-1.65 6.95 -1.45 5.95 L-1.45 5.75 -1.4 5.7 -1.4 5.25 -1.45 5.15 -1.45 5.0 -1.4 4.95 -0.75 4.7 -2.55 3.8 0.45 3.75" fill="#d9cea9" fill-rule="evenodd" stroke="none"/>
    <path d="M1.3 7.05 L1.25 7.1 1.25 7.15 1.2 7.15 0.7 7.95 0.35 8.0 -0.05 7.95 -0.1 7.95 Q0.9 7.4 1.3 6.3 L1.4 6.45 1.95 6.95 1.5 7.05 1.3 7.05" fill="#d9cea9" fill-rule="evenodd" stroke="none"/>
    <path d="M-3.0 1.1 L-2.85 1.1 -2.75 1.1 -2.7 1.15 -2.65 1.25 -2.6 1.3 -2.6 1.35 -2.6 1.4 -2.5 1.5 Q-3.1 1.45 -3.4 1.1 L-3.35 1.1 -3.25 1.1 -3.0 1.15 -3.0 1.1" fill="#d9cea9" fill-rule="evenodd" stroke="none"/>
    <path d="M-1.75 2.55 L-1.7 2.55 -1.75 2.55 -1.7 2.5 0.05 2.2 0.2 2.05 0.2 2.45 -1.7 2.95 Q-1.5 2.8 -1.75 2.55" fill="#d9cea9" fill-rule="evenodd" stroke="none"/>
    <path d="M7.1 -8.45 L7.2 -8.45 7.25 -8.45 7.85 -8.55 7.95 -8.5 7.95 -8.45 7.95 -8.35 8.0 -8.15 8.05 -7.1 8.0 -6.65 7.95 -6.5 7.9 -6.3 7.7 -5.75 6.5 -3.95 6.2 -3.65 6.15 -3.65 5.15 -3.0 5.1 -3.0 4.75 -2.75 4.7 -2.7 4.05 -2.25 4.0 -2.15 3.75 -1.85 3.7 -1.8 3.65 -1.75 3.55 -1.65 3.5 -1.6 3.45 -1.6 4.65 -3.35 5.45 -3.9 5.5 -3.95 5.9 -4.2 5.95 -4.25 6.4 -4.6 6.6 -4.8 Q7.25 -5.6 7.55 -6.9 L7.6 -7.1 7.0 -6.95 Q7.75 -7.65 7.1 -8.45" fill="#d9cea9" fill-rule="evenodd" stroke="none"/>
    <path d="M1.5 0.15 Q1.85 -0.15 1.85 -0.65 1.85 -1.15 1.5 -1.5 1.2 -1.8 0.7 -1.8 L-0.1 -1.5 -0.45 -0.65 -0.1 0.15 Q0.25 0.5 0.7 0.5 1.2 0.5 1.5 0.15 M-3.65 1.0 L-3.45 1.1 -3.4 1.1 Q-3.1 1.45 -2.5 1.5 L-2.4 1.75 -2.15 2.15 -2.1 2.2 -2.0 2.4 -1.75 2.55 Q-1.5 2.8 -1.7 2.95 L0.2 2.45 0.2 2.05 -0.2 1.1 -0.25 1.0 -0.5 0.45 -0.5 0.35 -0.55 0.35 -0.75 0.25 -0.95 0.25 -1.55 0.5 -2.5 0.8 -3.5 0.95 -3.65 0.9 -3.75 0.8 -3.7 0.9 -3.65 1.0 M6.15 -8.2 L7.1 -8.45 Q7.75 -7.65 7.0 -6.95 6.5 -6.85 5.8 -6.35 L5.75 -6.3 5.0 -5.6 Q4.15 -4.65 3.55 -2.7 L3.5 -2.55 4.4 -3.2 4.45 -3.25 4.65 -3.35 3.45 -1.6 3.5 -1.6 3.55 -1.5 3.85 -1.0 Q3.95 0.45 2.85 1.9 1.85 3.2 0.45 3.75 -0.8 4.55 -2.6 3.75 L-4.5 2.35 -5.65 1.35 -5.95 1.0 -6.1 0.8 -5.2 -0.5 -4.55 -1.25 -3.45 -2.2 -1.75 -3.3 -0.5 -3.75 -0.2 -3.8 0.0 -3.8 1.75 -2.9 1.85 -3.0 1.95 -3.15 2.0 -3.2 2.2 -3.55 3.05 -5.5 3.55 -6.55 3.55 -6.6 3.8 -6.85 3.8 -6.9 4.3 -7.3 4.4 -7.4 4.8 -7.6 5.2 -7.8 6.15 -8.2" fill="#fff4cf" fill-rule="evenodd" stroke="none"/>
    <path d="M4.55 5.35 L4.65 5.5 4.7 5.55 4.65 5.7 4.55 6.0 4.55 6.05 4.6 6.25 4.65 6.5 4.85 6.7 Q4.75 7.4 4.1 7.95 L2.5 7.95 3.9 7.3 3.75 7.15 3.7 7.15 3.65 7.1 3.5 7.1 3.3 7.05 3.05 7.0 2.4 6.75 2.05 6.55 1.95 6.45 1.85 6.4 1.7 6.25 1.6 6.15 1.5 5.95 1.5 5.8 1.5 5.7 1.55 5.45 1.55 5.5 1.25 5.9 1.25 6.1 1.25 6.15 1.3 6.3 Q0.9 7.4 -0.1 7.95 L-0.95 7.95 -0.75 7.65 -0.8 7.8 0.15 6.55 -0.55 6.35 -0.65 6.3 -0.95 6.2 Q-1.5 5.3 -0.85 4.85 1.25 3.6 3.65 4.2 L3.65 4.3 3.7 4.3 3.7 4.35 4.1 4.9 4.55 5.35" fill="#fff4cf" fill-rule="evenodd" stroke="none"/>
    <path d="M6.95 5.35 L6.95 5.95 6.25 6.5 5.35 6.45 4.9 6.15 Q4.9 5.65 5.2 5.3 5.65 4.75 6.2 4.65 L6.4 4.65 6.6 4.7 6.95 5.35" fill="#fff4cf" fill-rule="evenodd" stroke="none"/>
    <path d="M5.0 -8.2 L7.7 -8.85 8.15 -8.9 8.4 -8.05 8.25 -6.35 Q7.75 -4.45 6.45 -3.4 L4.8 -2.3 4.05 -1.55 5.0 0.1 5.0 0.35 4.85 0.65 3.75 2.65 Q3.6 2.95 3.75 3.6 3.95 4.5 4.85 5.25 5.4 4.55 6.1 4.45 6.85 4.25 7.5 4.75 L8.2 5.6 8.25 6.7 Q7.95 7.45 7.1 7.5 L6.5 7.55 6.25 7.5 6.1 7.6 5.7 8.15 5.45 8.25 2.25 8.25 1.75 8.15 1.65 7.85 2.05 7.7 3.25 7.35 2.3 7.1 1.85 7.1 Q1.5 7.15 1.5 7.25 L1.1 8.25 0.95 8.3 0.75 8.25 -2.65 8.25 -2.85 7.95 -2.45 7.5 Q-1.85 6.75 -1.7 5.9 -1.5 5.2 -2.05 4.45 L-2.3 4.25 -4.6 2.7 -6.35 1.25 -6.55 0.9 -6.35 0.5 -5.7 -0.45 -4.05 -2.3 -3.95 -2.55 -4.0 -2.75 -4.25 -3.05 -4.7 -3.45 -5.6 -3.9 -6.5 -4.3 Q-7.7 -5.0 -8.0 -5.9 L-8.0 -7.2 -7.7 -8.05 -7.45 -8.5 -7.1 -8.6 Q-5.75 -8.4 -4.15 -6.65 L-2.95 -5.05 -2.15 -3.8 -1.9 -3.55 -0.85 -4.0 0.15 -4.1 1.7 -3.35 3.0 -6.45 Q3.4 -7.6 5.0 -8.2 M7.2 -8.45 L5.75 -8.05 5.2 -7.8 4.8 -7.6 4.7 -7.6 4.3 -7.3 3.8 -6.9 3.8 -6.85 3.55 -6.6 3.55 -6.55 2.95 -5.3 1.95 -3.15 1.85 -3.0 1.75 -2.9 1.25 -3.2 0.0 -3.8 -0.2 -3.8 -0.45 -3.75 -0.5 -3.75 -0.9 -3.6 -1.05 -3.55 -1.75 -3.3 -2.45 -2.85 -3.8 -1.9 -5.35 -0.35 -6.1 0.8 -5.95 1.0 -5.65 1.35 -4.5 2.35 -2.6 3.75 -2.25 4.0 -0.75 4.7 -1.4 4.95 -1.45 5.0 -1.45 5.15 -1.4 5.25 -1.4 5.7 -1.45 5.75 -1.45 5.95 Q-1.6 6.85 -2.25 7.95 L-1.75 7.85 -1.2 7.2 Q-0.9 6.8 -1.05 6.5 L-1.4 5.95 -0.55 6.35 0.15 6.55 -0.8 7.8 -0.75 7.65 -0.95 7.95 -0.05 7.95 0.35 8.0 0.7 7.95 1.25 7.15 1.25 7.1 1.3 7.05 1.5 7.05 1.95 6.95 1.4 6.45 1.3 6.3 1.25 6.15 1.25 6.1 1.25 5.9 1.55 5.5 1.55 5.45 1.5 5.7 1.5 5.8 1.5 5.95 1.6 6.15 1.7 6.25 1.85 6.4 1.95 6.45 2.05 6.55 2.4 6.75 2.6 6.8 2.6 6.85 3.05 7.0 3.3 7.05 3.5 7.1 3.55 7.1 3.7 7.15 3.75 7.15 3.9 7.3 2.5 7.95 4.65 7.95 4.95 8.0 5.35 7.95 5.55 7.8 5.55 7.7 5.3 7.0 5.8 7.3 6.8 7.25 6.9 7.25 7.05 7.2 7.25 7.15 7.4 7.1 7.45 7.1 7.55 7.05 7.6 6.95 7.7 6.9 7.75 6.85 7.8 6.75 7.9 6.7 7.9 6.6 7.95 6.55 Q8.1 5.95 7.7 5.4 7.15 4.65 6.4 4.65 L6.2 4.65 Q5.6 4.75 5.2 5.3 4.9 5.65 4.9 6.15 L5.15 6.85 4.85 6.7 4.65 6.5 4.6 6.25 4.55 6.05 4.55 6.0 4.65 5.7 4.7 5.55 4.65 5.5 4.55 5.35 4.1 4.9 3.7 4.35 3.7 4.3 3.65 4.3 3.65 4.2 3.45 3.8 3.4 3.75 2.7 3.65 3.0 3.2 4.35 0.75 4.4 0.6 4.6 0.2 4.55 0.1 4.15 -0.6 3.8 -1.2 3.75 -1.2 3.6 -1.5 3.55 -1.65 4.35 -2.45 4.7 -2.7 4.75 -2.75 5.1 -3.0 5.15 -3.0 6.15 -3.65 6.2 -3.65 6.35 -3.85 6.45 -3.95 6.5 -3.95 7.7 -5.75 7.9 -6.3 7.95 -6.5 8.0 -6.65 8.0 -8.15 7.95 -8.35 7.95 -8.45 7.95 -8.5 7.85 -8.55 7.25 -8.45 7.2 -8.45" fill="#8b7d4c" fill-rule="evenodd" stroke="none"/>
    <path d="M-1.5 0.75 L-1.45 0.8 -1.15 1.35 -1.15 1.4 -0.85 1.95 -0.85 2.1 -0.25 1.95 -0.35 1.65 -0.7 0.9 -0.85 0.55 -0.95 0.55 -1.5 0.75 M-1.85 0.9 L-1.9 0.9 -2.45 1.05 -2.2 1.35 -1.7 2.2 -1.65 2.25 -1.15 2.15 -1.2 2.05 -1.5 1.45 -1.55 1.4 -1.55 1.35 -1.8 0.95 -1.85 0.9 M-3.65 1.0 L-3.7 0.9 -3.75 0.8 -3.65 0.9 -2.5 0.8 -1.55 0.5 -0.95 0.25 -0.75 0.25 -0.55 0.35 -0.5 0.35 -0.45 0.55 -0.4 0.7 -0.25 1.0 -0.25 1.05 0.2 2.05 0.05 2.2 -1.7 2.5 -1.75 2.55 -2.0 2.4 -2.15 2.15 -2.6 1.3 -2.65 1.25 -2.75 1.1 -2.85 1.1 -3.0 1.1 -3.0 1.15 -3.25 1.1 -3.35 1.1 -3.45 1.1 -3.65 1.0" fill="#8b7d4c" fill-rule="evenodd" stroke="none"/>
    <path d="M-0.85 0.55 L-0.85 0.6 -0.8 0.65 -0.7 0.9 -1.25 1.15 -1.45 0.8 -1.5 0.8 -1.5 0.75 -0.95 0.55 -0.85 0.55" fill="#cfdae5" fill-rule="evenodd" stroke="none"/>
    <path d="M-2.45 1.05 L-1.85 0.9 -1.8 0.95 -1.55 1.35 -2.2 1.35 -2.45 1.05" fill="#cfdae5" fill-rule="evenodd" stroke="none"/>
    <path d="M-1.55 1.35 L-1.55 1.4 -1.5 1.45 -1.2 2.05 -1.15 2.15 -1.65 2.25 -1.7 2.2 -2.2 1.35 -1.55 1.35" fill="#f4f8fb" fill-rule="evenodd" stroke="none"/>
    <path d="M-0.85 2.1 L-0.85 1.95 -1.15 1.4 -1.15 1.35 -1.25 1.15 -0.7 0.9 -0.35 1.65 -0.25 1.95 -0.85 2.1" fill="#f4f8fb" fill-rule="evenodd" stroke="none"/>
    <path d="M4.4 -3.2 L3.5 -2.55 Q5.0 -5.5 6.95 -6.45 L5.75 -4.75 4.4 -3.2" fill="#ffb6b7" fill-rule="evenodd" stroke="none"/>
    <path d="M5.75 -6.3 L5.8 -6.35 Q6.65 -6.95 7.4 -7.05 L7.6 -7.1 7.55 -6.9 Q7.25 -5.6 6.6 -4.8 L6.4 -4.6 5.95 -4.25 5.9 -4.2 5.5 -3.95 5.45 -3.9 4.45 -3.25 4.4 -3.2 5.75 -4.75 6.95 -6.45 Q5.0 -5.5 3.5 -2.55 L3.55 -2.7 Q4.1 -4.6 5.1 -5.7 L5.75 -6.3" fill="#db8e90" fill-rule="evenodd" stroke="none"/>
    <path d="M1.5 -1.5 Q1.85 -1.15 1.85 -0.65 1.85 -0.15 1.5 0.15 1.2 0.5 0.7 0.5 0.25 0.5 -0.1 0.15 L-0.45 -0.65 -0.1 -1.5 0.7 -1.8 Q1.2 -1.8 1.5 -1.5 M0.9 -1.0 Q0.9 -0.75 1.15 -0.75 L1.4 -1.0 1.15 -1.3 Q0.9 -1.3 0.9 -1.0" fill="#aa192c" fill-rule="evenodd" stroke="none"/>
    <path d="M1.15 -0.75 Q0.9 -0.75 0.9 -1.0 0.9 -1.3 1.15 -1.3 L1.4 -1.0 1.15 -0.75" fill="#ffffff" fill-rule="evenodd" stroke="none"/>
  </g>
</svg>
