<?xml version="1.0" encoding="UTF-8" standalone="no"?>
<svg xmlns:ffdec="https://www.free-decompiler.com/flash" xmlns:xlink="http://www.w3.org/1999/xlink" ffdec:objectType="shape" height="42.8px" width="42.8px" xmlns="http://www.w3.org/2000/svg">
  <g transform="matrix(1.0, 0.0, 0.0, 1.0, 21.4, 21.4)">
    <path d="M15.1 -15.1 Q21.4 -8.8 21.4 0.05 21.4 8.9 15.1 15.15 8.85 21.4 0.0 21.4 -8.85 21.4 -15.15 15.15 -21.4 8.9 -21.4 0.05 -21.4 -8.8 -15.15 -15.1 -8.85 -21.4 0.0 -21.4 8.85 -21.4 15.1 -15.1" fill="#6edb87" fill-rule="evenodd" stroke="none"/>
    <path d="M13.7 8.45 Q14.4 8.55 14.7 7.95 L14.7 8.05 Q14.7 8.5 14.35 8.8 L13.55 9.05 6.1 8.6 1.45 18.45 0.85 19.05 0.0 19.0 -9.55 14.5 -10.1 13.85 -10.05 13.05 -10.0 12.95 Q-10.0 13.6 -9.4 13.9 L0.15 18.4 1.0 18.45 1.6 17.9 6.25 8.0 13.7 8.45" fill="#000000" fill-rule="evenodd" stroke="none"/>
    <path d="M2.35 1.95 L2.65 -2.5 -2.9 -1.2 -2.9 -1.75 2.8 -3.1 2.45 1.95 2.35 1.95" fill="#000000" fill-rule="evenodd" stroke="none"/>
    <path d="M-9.35 -15.4 L-7.3 -6.4 -7.55 -6.4 -9.5 -14.8 -9.35 -15.6 -9.35 -15.4" fill="#000000" fill-rule="evenodd" stroke="none"/>
    <path d="M-15.75 8.95 L-15.75 -4.75 -15.6 -5.25 -15.6 8.35 -15.3 9.15 Q-15.0 9.45 -14.55 9.45 L-8.5 9.45 -8.75 10.05 -14.7 10.05 -15.45 9.75 -15.75 8.95" fill="#000000" fill-rule="evenodd" stroke="none"/>
    <path d="M14.7 -7.0 L15.25 -6.75 15.45 -6.15 14.55 7.45 14.25 7.95 13.75 8.15 6.4 7.7 6.9 6.65 13.35 7.05 13.5 7.05 14.35 -5.95 5.75 -6.5 5.5 -7.6 14.7 -7.0" fill="#ffffff" fill-rule="evenodd" stroke="none"/>
    <path d="M4.2 -3.4 L3.85 2.6 2.8 2.1 3.15 -3.15 4.2 -3.4" fill="#ffffff" fill-rule="evenodd" stroke="none"/>
    <path d="M-2.75 -0.15 L-3.35 -0.15 -3.8 0.2 -9.6 12.6 -9.65 13.2 -9.25 13.6 0.3 18.1 0.9 18.15 1.3 17.75 7.15 5.4 7.15 4.8 6.75 4.35 -2.75 -0.15 M2.35 1.95 L2.45 1.95 2.8 -3.1 -2.9 -1.75 -2.9 -0.5 -2.6 -0.45 2.35 1.95 M-3.45 -5.85 L-3.95 -6.1 -14.55 -6.1 -15.05 -5.85 -15.3 -5.3 -15.3 8.35 -15.05 8.9 -14.55 9.1 -8.35 9.1 -4.1 0.1 -3.2 -0.55 -3.2 -5.3 Q-3.2 -5.65 -3.45 -5.85 M2.4 -18.7 L1.8 -18.75 -8.45 -16.4 Q-8.75 -16.35 -8.9 -16.05 L-9.05 -15.5 -6.95 -6.4 -3.95 -6.4 -3.65 -6.35 Q-3.0 -6.2 -2.9 -5.55 L-2.9 -5.3 -2.9 -2.1 5.2 -4.0 5.7 -4.3 5.8 -4.9 2.75 -18.2 2.4 -18.7 M14.75 -7.35 Q15.2 -7.3 15.5 -6.95 L15.75 -6.15 14.85 7.45 14.7 7.95 Q14.4 8.55 13.7 8.45 L6.25 8.0 1.6 17.9 1.0 18.45 0.15 18.4 -9.4 13.9 Q-10.0 13.6 -10.0 12.95 L-9.9 12.45 -8.5 9.45 -14.55 9.45 Q-15.0 9.45 -15.3 9.15 L-15.6 8.35 -15.6 -5.3 -15.3 -6.1 -14.55 -6.4 -7.3 -6.4 -9.35 -15.4 -9.35 -15.6 -9.15 -16.3 -8.55 -16.75 1.75 -19.1 2.55 -18.95 3.05 -18.25 5.4 -7.95 14.75 -7.35 M15.45 -6.15 L15.25 -6.75 14.7 -7.0 5.5 -7.6 6.1 -4.95 Q6.2 -4.5 5.95 -4.15 L5.3 -3.65 3.15 -3.15 2.8 2.1 6.9 4.05 7.4 4.55 7.45 5.55 6.4 7.7 13.75 8.15 14.25 7.95 14.55 7.45 15.45 -6.15" fill="#333333" fill-rule="evenodd" stroke="none"/>
    <path d="M9.25 -4.35 L7.45 -2.05 Q5.55 0.5 5.5 1.55 5.4 2.85 6.35 3.8 L3.85 2.6 4.2 -3.4 5.3 -3.65 5.95 -4.15 Q6.2 -4.5 6.1 -4.95 L5.75 -6.5 14.35 -5.95 13.5 7.05 6.9 6.65 7.45 5.55 7.4 4.55 Q7.95 4.8 8.65 4.85 10.05 4.95 11.1 4.1 12.15 3.3 12.25 2.0 12.3 0.9 10.8 -1.8 L9.25 -4.35" fill="#aedae6" fill-rule="evenodd" stroke="none"/>
    <path d="M12.25 2.0 Q12.15 3.3 11.1 4.1 10.05 4.95 8.65 4.85 7.95 4.8 7.4 4.55 L6.9 4.05 6.35 3.8 Q5.4 2.85 5.5 1.55 5.55 0.5 7.45 -2.05 L9.25 -4.35 10.8 -1.8 Q12.3 0.9 12.25 2.0" fill="#26a9e0" fill-rule="evenodd" stroke="none"/>
    <path d="M1.8 -18.75 L2.4 -18.7 2.75 -18.2 5.8 -4.9 5.7 -4.3 5.2 -4.0 -2.9 -2.1 -2.9 -3.25 -2.6 -3.25 4.65 -4.95 1.75 -17.65 -7.95 -15.45 -5.85 -6.4 -6.95 -6.4 -9.05 -15.5 -8.9 -16.05 Q-8.75 -16.35 -8.45 -16.4 L1.8 -18.75" fill="#ffffff" fill-rule="evenodd" stroke="none"/>
    <path d="M-2.9 -5.3 L-2.9 -5.55 -0.85 -6.85 2.2 -6.5 1.45 -9.45 2.7 -12.25 -0.35 -12.45 -2.6 -14.55 -3.75 -11.65 -6.45 -10.15 -4.05 -8.2 -3.65 -6.35 -3.95 -6.4 -5.85 -6.4 -7.95 -15.45 1.75 -17.65 4.65 -4.95 -2.6 -3.25 -2.9 -3.25 -2.9 -5.3" fill="#fff79e" fill-rule="evenodd" stroke="none"/>
    <path d="M-3.65 -6.35 L-4.05 -8.2 -6.45 -10.15 -3.75 -11.65 -2.6 -14.55 -0.35 -12.45 2.7 -12.25 1.45 -9.45 2.2 -6.5 -0.85 -6.85 -2.9 -5.55 Q-3.0 -6.2 -3.65 -6.35" fill="#ffe134" fill-rule="evenodd" stroke="none"/>
    <path d="M-3.95 -6.1 L-3.45 -5.85 Q-3.2 -5.65 -3.2 -5.3 L-3.2 -0.55 -4.1 0.1 -4.3 0.5 -4.3 -5.0 -14.25 -5.0 -14.25 8.0 -7.85 8.0 -8.35 9.1 -14.55 9.1 -15.05 8.9 -15.3 8.35 -15.3 -5.3 -15.05 -5.85 -14.55 -6.1 -3.95 -6.1" fill="#ffffff" fill-rule="evenodd" stroke="none"/>
    <path d="M-7.85 8.0 L-14.25 8.0 -14.25 -5.0 -4.3 -5.0 -4.3 0.5 -7.85 8.0 M-6.5 -2.65 Q-8.4 -3.0 -9.25 -1.1 -10.15 -3.0 -12.05 -2.65 -13.9 -2.25 -13.95 -0.1 -13.95 1.85 -11.2 3.5 L-9.85 4.7 -9.25 5.75 -8.6 4.7 -7.35 3.5 Q-4.55 1.7 -4.55 -0.1 -4.6 -2.3 -6.5 -2.65" fill="#f59ca8" fill-rule="evenodd" stroke="none"/>
    <path d="M-9.25 -1.1 Q-8.4 -3.0 -6.5 -2.65 -4.6 -2.3 -4.55 -0.1 -4.55 1.7 -7.35 3.5 L-8.6 4.7 -9.25 5.75 -9.85 4.7 -11.2 3.5 Q-13.95 1.85 -13.95 -0.1 -13.9 -2.25 -12.05 -2.65 -10.15 -3.0 -9.25 -1.1" fill="#e33e54" fill-rule="evenodd" stroke="none"/>
    <path d="M6.0 5.2 L-2.95 0.95 -8.5 12.75 0.45 17.0 6.0 5.2 M-3.8 0.2 L-3.35 -0.15 -2.75 -0.15 6.75 4.35 7.15 4.8 7.15 5.4 1.3 17.75 0.9 18.15 0.3 18.1 -9.25 13.6 -9.65 13.2 -9.6 12.6 -3.8 0.2" fill="#ffffff" fill-rule="evenodd" stroke="none"/>
    <path d="M-2.95 0.95 L6.0 5.2 0.45 17.0 -8.5 12.75 -2.95 0.95 M0.85 5.9 Q0.0 6.45 -0.9 8.2 0.1 6.05 -0.3 5.1 -0.6 4.3 -1.8 4.5 L-2.75 4.75 -3.65 5.15 Q-4.7 5.8 -4.45 6.6 -4.15 7.5 -2.0 8.6 -3.8 7.85 -4.8 8.0 -6.3 8.15 -5.45 10.5 -4.65 12.85 -3.35 12.05 -2.5 11.5 -1.6 9.75 -2.4 11.6 -2.25 12.55 -2.05 14.05 0.3 13.2 2.65 12.35 1.8 11.1 1.3 10.25 -0.45 9.35 1.3 10.15 2.35 10.0 3.85 9.8 3.0 7.45 2.15 5.1 0.85 5.9" fill="#bfd241" fill-rule="evenodd" stroke="none"/>
    <path d="M-4.8 8.0 Q-3.8 7.85 -2.0 8.6 -4.15 7.5 -4.45 6.6 -4.7 5.8 -3.65 5.15 L-2.75 4.75 -1.8 4.5 Q-0.6 4.3 -0.3 5.1 0.1 6.05 -0.9 8.2 0.0 6.45 0.85 5.9 2.15 5.1 3.0 7.45 3.85 9.8 2.35 10.0 1.3 10.15 -0.45 9.35 1.3 10.25 1.8 11.1 2.65 12.35 0.3 13.2 -2.05 14.05 -2.25 12.55 -2.4 11.6 -1.6 9.75 -2.5 11.5 -3.35 12.05 -4.65 12.85 -5.45 10.5 -6.3 8.15 -4.8 8.0" fill="#22b473" fill-rule="evenodd" stroke="none"/>
  </g>
</svg>
