<?xml version="1.0" encoding="UTF-8" standalone="no"?>
<svg xmlns:ffdec="https://www.free-decompiler.com/flash" xmlns:xlink="http://www.w3.org/1999/xlink" ffdec:objectType="shape" height="52.6px" width="48.8px" xmlns="http://www.w3.org/2000/svg">
  <g transform="matrix(1.0, 0.0, 0.0, 1.0, 17.3, 21.05)">
    <path d="M15.1 9.3 Q15.9 9.35 16.2 8.7 L16.2 8.85 15.8 9.65 Q15.4 10.05 14.9 9.95 L6.75 9.45 1.6 20.3 0.95 20.95 0.05 20.9 Q-5.2 18.4 -10.5 15.95 L-11.1 15.25 Q-11.3 14.8 -11.05 14.35 L-11.0 14.2 Q-11.0 14.95 -10.35 15.3 L0.2 20.25 1.1 20.3 Q1.6 20.15 1.8 19.65 L6.9 8.8 15.1 9.3" fill="#000000" fill-rule="evenodd" stroke="none"/>
    <path d="M2.6 2.1 L2.9 -2.75 -3.15 -1.35 -3.15 -1.95 3.05 -3.4 2.7 2.15 2.6 2.1" fill="#000000" fill-rule="evenodd" stroke="none"/>
    <path d="M-10.3 -16.95 L-8.0 -7.05 -8.3 -7.05 -10.45 -16.3 -10.3 -17.2 -10.3 -16.95" fill="#000000" fill-rule="evenodd" stroke="none"/>
    <path d="M-17.3 9.85 L-17.3 -5.2 -17.15 -5.8 -17.15 9.15 -16.8 10.05 -15.95 10.35 -9.35 10.35 -9.65 11.0 -16.15 11.0 Q-16.65 11.0 -16.95 10.7 L-17.3 9.85" fill="#000000" fill-rule="evenodd" stroke="none"/>
    <path d="M16.2 -7.7 L16.8 -7.45 17.0 -6.8 16.0 8.2 15.7 8.75 15.1 9.0 7.05 8.45 7.65 7.3 14.7 7.75 14.85 7.75 15.8 -6.55 6.35 -7.15 6.05 -8.4 16.2 -7.7" fill="#ffffff" fill-rule="evenodd" stroke="none"/>
    <path d="M4.65 -3.75 L4.25 2.85 3.05 2.3 3.45 -3.45 4.65 -3.75" fill="#ffffff" fill-rule="evenodd" stroke="none"/>
    <path d="M-3.05 -0.15 L-3.7 -0.2 -4.15 0.25 -10.55 13.85 -10.6 14.5 -10.15 14.95 0.35 19.9 1.0 19.95 1.45 19.5 7.85 5.9 7.9 5.25 7.45 4.8 -3.05 -0.15 M2.6 2.1 L2.7 2.15 3.05 -3.4 -3.15 -1.95 -3.15 -0.55 -2.85 -0.5 2.6 2.1 M-3.75 -6.45 L-4.35 -6.7 -15.95 -6.7 -16.55 -6.45 -16.85 -5.85 -16.85 9.15 -16.55 9.75 -15.95 10.0 -9.15 10.0 -4.5 0.1 Q-4.15 -0.55 -3.55 -0.6 L-3.55 -5.85 -3.75 -6.45 M2.7 -20.55 L2.0 -20.65 -9.3 -18.05 -9.8 -17.7 -9.95 -17.05 -7.65 -7.05 -4.35 -7.05 -4.0 -7.0 Q-3.3 -6.85 -3.2 -6.1 L-3.15 -5.85 -3.15 -2.35 5.75 -4.4 6.25 -4.75 6.35 -5.4 3.05 -20.05 2.7 -20.55 M17.05 -7.65 Q17.4 -7.3 17.35 -6.8 L16.35 8.2 16.2 8.7 Q15.9 9.35 15.1 9.3 L6.9 8.8 1.8 19.65 Q1.6 20.15 1.1 20.3 L0.2 20.25 -10.35 15.3 Q-11.0 14.95 -11.0 14.2 L-10.9 13.7 -9.35 10.35 -15.95 10.35 -16.8 10.05 -17.15 9.15 -17.15 -5.85 Q-17.15 -6.35 -16.8 -6.7 -16.45 -7.05 -15.95 -7.05 L-8.0 -7.05 -10.3 -16.95 -10.3 -17.2 -10.05 -17.95 -9.35 -18.4 1.95 -21.0 2.85 -20.85 3.35 -20.1 6.0 -8.75 16.25 -8.1 17.05 -7.65 M16.8 -7.45 L16.2 -7.7 6.05 -8.4 6.75 -5.5 Q6.85 -5.0 6.55 -4.55 L5.85 -4.05 3.45 -3.45 3.05 2.3 7.65 4.45 8.15 5.0 Q8.4 5.55 8.2 6.05 L7.05 8.45 15.1 9.0 15.7 8.75 16.0 8.2 17.0 -6.8 16.8 -7.45" fill="#333333" fill-rule="evenodd" stroke="none"/>
    <path d="M10.2 -4.8 L8.2 -2.25 Q6.15 0.55 6.05 1.7 6.0 3.15 7.0 4.15 L4.25 2.85 4.65 -3.75 5.85 -4.05 6.55 -4.55 Q6.85 -5.0 6.75 -5.5 L6.35 -7.15 15.8 -6.55 14.85 7.75 7.65 7.3 8.2 6.05 Q8.4 5.55 8.15 5.0 L9.55 5.3 Q11.1 5.4 12.2 4.5 13.35 3.6 13.45 2.2 13.55 1.0 11.9 -2.0 L10.2 -4.8" fill="#aedae6" fill-rule="evenodd" stroke="none"/>
    <path d="M13.45 2.2 Q13.35 3.6 12.2 4.5 11.1 5.4 9.55 5.3 L8.15 5.0 7.65 4.45 7.0 4.15 Q6.0 3.15 6.05 1.7 6.15 0.55 8.2 -2.25 L10.2 -4.8 11.9 -2.0 Q13.55 1.0 13.45 2.2" fill="#26a9e0" fill-rule="evenodd" stroke="none"/>
    <path d="M2.0 -20.65 L2.7 -20.55 3.05 -20.05 6.35 -5.4 6.25 -4.75 5.75 -4.4 -3.15 -2.35 -3.15 -3.55 -2.85 -3.6 5.15 -5.45 1.95 -19.45 -8.7 -17.0 -6.45 -7.05 -7.65 -7.05 -9.95 -17.05 -9.8 -17.7 -9.3 -18.05 2.0 -20.65" fill="#ffffff" fill-rule="evenodd" stroke="none"/>
    <path d="M-3.15 -5.85 L-3.2 -6.1 -0.9 -7.55 2.4 -7.15 1.6 -10.45 3.0 -13.5 -0.4 -13.7 -2.85 -16.0 -4.1 -12.85 -7.05 -11.2 -4.45 -9.05 -4.0 -7.0 -4.35 -7.05 -6.45 -7.05 -8.7 -17.0 1.95 -19.45 5.15 -5.45 -2.85 -3.6 -3.15 -3.55 -3.15 -5.85" fill="#fff79e" fill-rule="evenodd" stroke="none"/>
    <path d="M-4.0 -7.0 L-4.45 -9.05 -7.05 -11.2 -4.1 -12.85 -2.85 -16.0 -0.4 -13.7 3.0 -13.5 1.6 -10.45 2.4 -7.15 -0.9 -7.55 -3.2 -6.1 Q-3.3 -6.85 -4.0 -7.0" fill="#ffe134" fill-rule="evenodd" stroke="none"/>
    <path d="M-4.35 -6.7 L-3.75 -6.45 -3.55 -5.85 -3.55 -0.6 Q-4.15 -0.55 -4.5 0.1 L-4.7 0.55 -4.7 -5.5 -15.65 -5.5 -15.65 8.8 -8.6 8.8 -9.15 10.0 -15.95 10.0 -16.55 9.75 -16.85 9.15 -16.85 -5.85 -16.55 -6.45 -15.95 -6.7 -4.35 -6.7" fill="#ffffff" fill-rule="evenodd" stroke="none"/>
    <path d="M-8.6 8.8 L-15.65 8.8 -15.65 -5.5 -4.7 -5.5 -4.7 0.55 -8.6 8.8 M-7.15 -2.9 Q-9.2 -3.3 -10.15 -1.2 -11.15 -3.35 -13.25 -2.95 -15.3 -2.5 -15.3 -0.1 -15.3 2.0 -12.3 3.85 -11.5 4.3 -10.8 5.2 L-10.15 6.3 -9.45 5.2 Q-8.8 4.3 -8.05 3.85 -5.0 1.9 -5.0 -0.1 -5.05 -2.55 -7.15 -2.9" fill="#f59ca8" fill-rule="evenodd" stroke="none"/>
    <path d="M-10.15 -1.2 Q-9.2 -3.3 -7.15 -2.9 -5.05 -2.55 -5.0 -0.1 -5.0 1.9 -8.05 3.85 -8.8 4.3 -9.45 5.2 L-10.15 6.3 -10.8 5.2 Q-11.5 4.3 -12.3 3.85 -15.3 2.0 -15.3 -0.1 -15.3 -2.5 -13.25 -2.95 -11.15 -3.35 -10.15 -1.2" fill="#e33e54" fill-rule="evenodd" stroke="none"/>
    <path d="M6.65 5.7 Q1.7 3.4 -3.25 1.05 L-9.35 14.0 0.55 18.7 6.65 5.7 M-4.15 0.25 L-3.7 -0.2 -3.05 -0.15 7.45 4.8 7.9 5.25 7.85 5.9 1.45 19.5 1.0 19.95 0.35 19.9 -10.15 14.95 -10.6 14.5 -10.55 13.85 -4.15 0.25" fill="#ffffff" fill-rule="evenodd" stroke="none"/>
    <path d="M-3.25 1.05 Q1.7 3.4 6.65 5.7 L0.55 18.7 -9.35 14.0 -3.25 1.05 M0.95 6.5 Q0.05 7.1 -0.95 9.0 0.1 6.65 -0.35 5.6 -0.65 4.7 -2.0 4.95 L-3.05 5.2 -4.0 5.7 Q-5.15 6.35 -4.9 7.25 -4.55 8.2 -2.2 9.45 -4.2 8.6 -5.3 8.8 -6.95 9.0 -6.0 11.55 -5.1 14.1 -3.65 13.25 -2.75 12.65 -1.75 10.7 -2.6 12.75 -2.45 13.8 -2.25 15.45 0.35 14.5 2.9 13.6 2.0 12.2 1.4 11.25 -0.5 10.25 1.45 11.15 2.6 11.0 4.25 10.8 3.3 8.2 2.4 5.6 0.95 6.5" fill="#bfd241" fill-rule="evenodd" stroke="none"/>
    <path d="M-5.3 8.8 Q-4.2 8.6 -2.2 9.45 -4.55 8.2 -4.9 7.25 -5.15 6.35 -4.0 5.7 L-3.05 5.2 -2.0 4.95 Q-0.65 4.7 -0.35 5.6 0.1 6.65 -0.95 9.0 0.05 7.1 0.95 6.5 2.4 5.6 3.3 8.2 4.25 10.8 2.6 11.0 1.45 11.15 -0.5 10.25 1.4 11.25 2.0 12.2 2.9 13.6 0.35 14.5 -2.25 15.45 -2.45 13.8 -2.6 12.75 -1.75 10.7 -2.75 12.65 -3.65 13.25 -5.1 14.1 -6.0 11.55 -6.95 9.0 -5.3 8.8" fill="#22b473" fill-rule="evenodd" stroke="none"/>
    <path d="M31.5 15.75 Q31.5 22.3 26.9 26.9 22.3 31.55 15.75 31.55 9.25 31.55 4.65 26.9 0.0 22.3 0.0 15.75 0.0 9.25 4.65 4.65 9.25 0.0 15.75 0.0 22.3 0.0 26.9 4.65 31.5 9.25 31.5 15.75 M25.25 24.6 Q29.15 20.65 29.15 15.1 29.15 9.55 25.25 5.65 21.3 1.7 15.75 1.7 10.2 1.7 6.3 5.65 2.4 9.55 2.4 15.1 2.4 20.65 6.3 24.6 10.2 28.5 15.75 28.5 21.3 28.5 25.25 24.6" fill="#008546" fill-rule="evenodd" stroke="none"/>
    <path d="M23.2 7.6 L13.8 17.0 7.8 11.0 3.55 15.25 13.8 25.55 27.45 11.85 23.2 7.6 M25.25 24.6 Q21.3 28.5 15.75 28.5 10.2 28.5 6.3 24.6 2.4 20.65 2.4 15.1 2.4 9.55 6.3 5.65 10.2 1.7 15.75 1.7 21.3 1.7 25.25 5.65 29.15 9.55 29.15 15.1 29.15 20.65 25.25 24.6" fill="#6ee087" fill-rule="evenodd" stroke="none"/>
    <path d="M23.2 7.6 L27.45 11.85 13.8 25.55 3.55 15.25 7.8 11.0 13.8 17.0 23.2 7.6" fill="#ffffff" fill-rule="evenodd" stroke="none"/>
  </g>
</svg>
