<?xml version="1.0" encoding="UTF-8" standalone="no"?>
<svg xmlns:ffdec="https://www.free-decompiler.com/flash" xmlns:xlink="http://www.w3.org/1999/xlink" ffdec:objectType="shape" height="15.75px" width="51.4px" xmlns="http://www.w3.org/2000/svg">
  <g transform="matrix(1.0, 0.0, 0.0, 1.0, 25.7, 7.85)">
    <path d="M9.8 1.6 L10.05 2.15 12.3 2.25 14.0 2.1 16.45 1.75 16.8 1.0 16.7 0.1 13.3 0.25 9.95 0.55 9.7 1.25 9.8 1.6 M18.0 -1.9 L18.1 -1.4 17.85 -0.4 17.85 -0.35 17.9 -0.2 18.55 -0.9 19.8 -1.75 18.05 -2.3 18.0 -1.9 M15.95 -3.0 L15.6 -2.95 12.85 -2.65 10.05 -2.2 9.65 -1.8 9.6 -1.25 Q9.9 -0.95 10.1 -0.95 L13.15 -0.9 16.55 -1.2 16.7 -1.85 16.85 -2.45 Q16.85 -3.0 15.95 -3.0 M20.8 3.25 Q20.6 2.7 20.0 2.7 19.3 2.7 18.9 3.35 18.45 3.8 18.5 4.4 18.8 5.1 19.65 5.1 20.35 5.1 20.75 4.65 L20.95 3.95 20.8 3.25 M20.3 -3.9 Q21.6 -3.3 21.7 -2.15 21.65 -1.35 20.65 -0.8 L19.35 0.05 Q18.6 0.65 18.6 1.35 18.6 2.0 18.9 2.1 L19.85 2.35 20.45 2.15 20.85 1.7 21.05 1.0 Q21.4 0.65 22.45 0.1 L23.75 -0.7 Q24.35 -1.25 24.5 -2.2 24.25 -4.2 22.35 -5.4 20.75 -6.45 18.6 -6.6 L17.8 -6.4 17.95 -4.65 20.3 -3.9 M25.65 -1.7 L25.7 -1.35 25.7 -1.05 Q25.55 0.35 24.6 1.25 L23.0 2.2 22.05 2.75 22.05 2.8 22.0 3.1 22.2 3.95 22.1 4.45 22.2 4.95 Q22.2 5.75 21.75 6.35 L21.65 6.5 Q20.9 7.35 19.65 7.35 18.85 7.35 18.25 6.95 17.65 6.55 17.35 5.85 L17.3 5.55 17.35 4.7 17.3 4.55 Q17.25 4.1 17.35 3.6 L17.3 3.65 Q17.05 3.95 16.55 4.0 L14.2 4.35 12.3 4.5 9.95 4.4 9.5 4.25 Q8.9 3.95 8.6 3.05 L8.45 2.25 8.55 1.8 8.45 1.25 Q8.45 0.9 8.6 0.5 L8.35 -0.1 8.45 -0.9 8.35 -1.15 Q8.3 -1.95 8.65 -2.45 L8.75 -2.6 9.15 -3.05 9.85 -3.4 12.65 -3.85 15.5 -4.2 15.95 -4.2 16.65 -4.1 Q16.55 -4.85 16.6 -5.5 L16.6 -5.55 16.6 -6.5 16.85 -7.2 Q17.4 -7.85 18.4 -7.85 L18.7 -7.8 Q21.15 -7.65 23.05 -6.45 25.4 -4.9 25.7 -2.4 L25.7 -2.05 25.65 -1.7" fill="#231f20" fill-rule="evenodd" stroke="none"/>
    <path d="M-17.35 -3.05 L-17.55 -2.1 Q-18.4 0.3 -20.95 1.85 L-18.4 2.75 -15.9 3.25 Q-15.85 3.75 -16.5 4.65 L-17.35 5.65 Q-20.25 5.0 -23.65 2.8 L-23.7 2.4 -23.6 1.4 -23.35 0.55 Q-22.05 0.25 -21.1 -0.5 -19.8 -1.45 -19.8 -2.45 -19.8 -2.8 -20.35 -3.05 L-21.2 -3.2 -22.35 -2.75 Q-22.9 -2.45 -23.15 -2.45 L-23.95 -3.05 -24.5 -3.9 -24.45 -3.95 Q-22.9 -5.1 -20.85 -5.2 L-20.3 -5.25 Q-17.35 -5.25 -17.35 -3.05" fill="#ffffff" fill-rule="evenodd" stroke="none"/>
    <path d="M-11.45 -1.35 L-10.95 -4.45 -10.0 -4.8 -9.0 -4.7 -9.15 -1.5 -7.1 -1.6 Q-5.85 -1.6 -5.85 -1.05 L-6.0 -0.4 -6.25 0.2 -9.3 0.4 -9.6 3.8 -10.55 4.05 -11.3 3.85 -11.55 3.65 -11.65 1.65 -11.6 0.4 -14.6 0.3 -15.1 -0.05 -15.05 -0.55 -14.6 -0.95 -11.45 -1.35" fill="#ffffff" fill-rule="evenodd" stroke="none"/>
    <path d="M-17.55 -2.1 L-17.35 -3.05 Q-17.35 -5.25 -20.3 -5.25 L-20.85 -5.2 Q-22.9 -5.1 -24.45 -3.95 L-24.5 -3.9 -23.95 -3.05 -23.15 -2.45 Q-22.9 -2.45 -22.35 -2.75 L-21.2 -3.2 -20.35 -3.05 Q-19.8 -2.8 -19.8 -2.45 -19.8 -1.45 -21.1 -0.5 -22.05 0.25 -23.35 0.55 L-23.6 1.4 -23.7 2.4 -23.65 2.8 Q-20.25 5.0 -17.35 5.65 L-16.5 4.65 Q-15.85 3.75 -15.9 3.25 L-18.4 2.75 -20.95 1.85 Q-18.4 0.3 -17.55 -2.1 M-10.0 -4.8 L-10.95 -4.45 -11.45 -1.35 -14.6 -0.95 -15.05 -0.55 -15.1 -0.05 -14.6 0.3 -11.6 0.4 -11.65 1.65 -11.55 3.65 -11.3 3.85 -10.55 4.05 -9.6 3.8 -9.3 0.4 -6.25 0.2 -6.0 -0.4 -5.85 -1.05 Q-5.85 -1.6 -7.1 -1.6 L-9.15 -1.5 -9.0 -4.7 -10.0 -4.8 M-0.95 -5.25 L-1.55 -5.2 Q-3.6 -5.05 -5.05 -3.95 L-5.15 -3.9 -4.6 -3.05 -3.8 -2.45 Q-3.55 -2.45 -3.0 -2.75 -2.3 -3.2 -1.85 -3.2 L-1.0 -3.05 Q-0.5 -2.85 -0.5 -2.45 -0.45 -1.45 -1.7 -0.5 -2.7 0.25 -4.0 0.55 L-4.25 1.4 -4.35 2.4 -4.3 2.8 Q-0.9 5.0 1.95 5.65 L2.85 4.65 3.5 3.25 0.95 2.75 -1.6 1.85 Q0.95 0.3 1.85 -2.1 L2.0 -3.05 Q2.0 -5.25 -0.95 -5.25 M3.25 -3.05 L3.25 -2.05 3.0 -0.65 Q2.55 0.6 1.65 1.65 L3.55 2.0 Q4.0 2.05 4.35 2.4 L4.7 3.2 4.65 3.85 4.7 4.2 Q4.75 5.1 3.85 6.4 L2.45 7.8 1.95 7.9 1.7 7.85 Q-1.5 7.15 -4.95 4.85 L-5.0 4.8 Q-5.55 4.4 -5.55 3.4 L-5.55 2.25 -6.15 2.45 -8.15 2.55 -8.35 4.95 Q-8.45 5.65 -9.05 5.95 L-10.55 6.3 -11.75 6.05 -12.65 5.3 -12.75 4.8 -12.85 2.7 -12.85 2.6 -14.65 2.5 -14.95 2.5 Q-14.65 2.8 -14.65 3.2 L-14.75 3.85 -14.65 4.2 Q-14.6 5.1 -15.5 6.4 -16.3 7.5 -16.9 7.8 L-17.4 7.9 -17.65 7.85 Q-20.85 7.15 -24.3 4.85 L-24.4 4.8 Q-24.95 4.35 -24.95 3.4 L-24.95 2.4 -24.8 1.25 Q-24.65 -0.05 -24.0 -0.45 L-24.85 -1.2 Q-25.7 -2.15 -25.7 -2.85 L-25.6 -3.35 -25.7 -3.9 Q-25.7 -4.45 -25.3 -4.85 L-25.15 -5.0 Q-23.35 -6.3 -20.95 -6.45 L-20.3 -6.45 Q-17.85 -6.45 -16.8 -5.15 -16.15 -4.3 -16.15 -3.05 L-16.15 -2.05 Q-16.15 -1.35 -16.4 -0.65 -16.8 0.6 -17.7 1.65 L-15.85 2.0 -15.75 2.05 -15.95 1.9 Q-16.3 1.55 -16.3 1.0 L-16.25 0.3 -16.3 -0.05 -16.1 -1.15 -15.9 -1.45 -15.5 -1.85 -14.75 -2.2 -12.5 -2.45 -12.15 -4.65 -11.85 -5.3 Q-11.1 -6.05 -10.0 -6.05 L-9.0 -5.95 Q-8.45 -5.95 -8.1 -5.55 -7.75 -5.2 -7.75 -4.65 L-7.75 -3.95 -7.75 -3.65 -7.8 -2.8 -6.35 -2.8 -6.35 -2.85 -6.25 -3.35 -6.35 -3.9 Q-6.35 -4.45 -5.95 -4.85 L-5.8 -5.0 Q-3.95 -6.3 -1.6 -6.45 L-0.95 -6.45 Q1.5 -6.45 2.55 -5.15 3.25 -4.3 3.25 -3.05" fill="#231f20" fill-rule="evenodd" stroke="none"/>
    <path d="M-1.55 -5.2 L-0.95 -5.25 Q2.0 -5.25 2.0 -3.05 L1.85 -2.1 Q0.95 0.3 -1.6 1.85 L0.95 2.75 3.5 3.25 2.85 4.65 1.95 5.65 Q-0.9 5.0 -4.3 2.8 L-4.35 2.4 -4.25 1.4 -4.0 0.55 Q-2.7 0.25 -1.7 -0.5 -0.45 -1.45 -0.5 -2.45 -0.5 -2.85 -1.0 -3.05 L-1.85 -3.2 Q-2.3 -3.2 -3.0 -2.75 -3.55 -2.45 -3.8 -2.45 L-4.6 -3.05 -5.15 -3.9 -5.05 -3.95 Q-3.6 -5.05 -1.55 -5.2" fill="#ffffff" fill-rule="evenodd" stroke="none"/>
    <path d="M12.3 2.25 L10.05 2.15 9.8 1.6 9.7 1.25 9.95 0.55 13.3 0.25 16.7 0.1 16.8 1.0 16.45 1.75 14.0 2.1 12.3 2.25" fill="#ffffff" fill-rule="evenodd" stroke="none"/>
    <path d="M15.6 -2.95 L15.95 -3.0 Q16.85 -3.0 16.85 -2.45 L16.7 -1.85 16.55 -1.2 13.15 -0.9 10.1 -0.95 Q9.9 -0.95 9.6 -1.25 L9.65 -1.8 10.05 -2.2 12.85 -2.65 15.6 -2.95" fill="#ffffff" fill-rule="evenodd" stroke="none"/>
    <path d="M21.7 -2.15 Q21.6 -3.3 20.3 -3.9 L17.95 -4.65 17.8 -6.4 18.6 -6.6 Q20.75 -6.45 22.35 -5.4 24.25 -4.2 24.5 -2.2 24.35 -1.25 23.75 -0.7 L22.45 0.1 Q21.4 0.65 21.05 1.0 L20.85 1.7 20.45 2.15 19.85 2.35 18.9 2.1 Q18.6 2.0 18.6 1.35 18.6 0.65 19.35 0.05 L20.65 -0.8 Q21.65 -1.35 21.7 -2.15" fill="#ffffff" fill-rule="evenodd" stroke="none"/>
    <path d="M18.9 3.35 Q19.3 2.7 20.0 2.7 20.6 2.7 20.8 3.25 L20.95 3.95 20.75 4.65 Q20.35 5.1 19.65 5.1 18.8 5.1 18.5 4.4 18.45 3.8 18.9 3.35" fill="#ffffff" fill-rule="evenodd" stroke="none"/>
  </g>
</svg>
