<?xml version="1.0" encoding="UTF-8" standalone="no"?>
<svg xmlns:ffdec="https://www.free-decompiler.com/flash" xmlns:xlink="http://www.w3.org/1999/xlink" ffdec:objectType="shape" height="38.5px" width="42.05px" xmlns="http://www.w3.org/2000/svg">
  <g transform="matrix(1.0, 0.0, 0.0, 1.0, 21.0, 19.25)">
    <path d="M13.6 -13.65 Q19.25 -7.95 19.25 0.0 19.25 7.95 13.6 13.65 7.95 19.25 0.0 19.25 -7.95 19.25 -13.65 13.65 -19.25 7.95 -19.25 0.0 -19.25 -7.95 -13.65 -13.65 -7.95 -19.25 0.0 -19.25 7.95 -19.25 13.6 -13.65" fill="#ffe86e" fill-rule="evenodd" stroke="none"/>
    <path d="M8.0 1.3 L8.25 1.7 10.05 1.85 11.5 1.7 13.5 1.4 13.8 0.8 13.7 0.05 10.9 0.2 8.15 0.4 7.95 0.95 8.0 1.3 M14.75 -1.55 L14.8 -1.2 14.65 -0.35 14.6 -0.3 14.65 -0.15 15.2 -0.75 16.25 -1.45 14.8 -1.95 14.75 -1.55 M13.1 -2.45 L12.8 -2.45 10.5 -2.2 8.25 -1.8 7.95 -1.5 7.9 -1.05 Q8.15 -0.85 8.3 -0.8 L10.8 -0.8 13.55 -1.05 13.7 -1.5 13.8 -2.0 Q13.8 -2.45 13.1 -2.45 M17.05 2.65 Q16.85 2.2 16.35 2.2 15.8 2.2 15.45 2.7 15.1 3.05 15.2 3.6 15.4 4.15 16.1 4.15 16.7 4.15 17.0 3.75 L17.15 3.2 17.05 2.65 M16.65 -3.2 Q17.7 -2.75 17.8 -1.75 17.7 -1.1 16.9 -0.7 L15.85 0.0 Q15.25 0.5 15.2 1.1 15.2 1.6 15.45 1.7 L16.3 1.9 16.75 1.75 17.05 1.4 Q17.1 0.95 17.25 0.8 17.55 0.5 18.4 0.05 L19.5 -0.6 Q19.95 -1.05 20.05 -1.85 19.85 -3.45 18.35 -4.45 17.0 -5.3 15.25 -5.45 L14.6 -5.3 14.75 -3.85 16.65 -3.2 M21.0 -1.45 L21.05 -1.15 21.05 -0.9 Q20.9 0.3 20.15 0.95 L18.85 1.8 18.1 2.25 18.1 2.3 18.05 2.5 18.15 3.2 18.15 3.6 18.15 4.05 17.85 5.15 17.75 5.25 Q17.15 6.0 16.1 6.0 L14.95 5.7 Q14.45 5.35 14.25 4.8 L14.2 4.55 14.2 3.85 14.2 3.7 Q14.1 3.3 14.25 2.95 L14.2 3.0 13.6 3.25 11.65 3.55 10.05 3.65 8.15 3.55 7.8 3.45 Q7.3 3.2 7.1 2.45 L6.95 1.8 7.0 1.4 6.95 0.95 7.1 0.4 6.9 -0.15 6.9 -0.75 6.9 -0.95 Q6.85 -1.65 7.1 -2.05 L7.2 -2.2 7.5 -2.5 Q7.75 -2.75 8.05 -2.8 L10.35 -3.2 12.7 -3.45 13.1 -3.45 13.65 -3.4 13.6 -4.5 13.6 -4.6 13.6 -5.35 13.8 -5.9 Q14.25 -6.45 15.1 -6.45 L15.3 -6.45 Q17.35 -6.3 18.85 -5.3 20.85 -4.05 21.05 -1.95 L21.05 -1.75 21.0 -1.45" fill="#231f20" fill-rule="evenodd" stroke="none"/>
    <path d="M-14.15 -2.55 Q-14.15 -2.1 -14.3 -1.75 -15.05 0.2 -17.1 1.5 L-15.0 2.25 -12.95 2.65 Q-12.95 3.0 -13.5 3.8 L-14.2 4.55 Q-16.55 4.1 -19.3 2.3 L-19.35 1.9 -19.3 1.15 -19.05 0.45 Q-18.0 0.15 -17.2 -0.45 -16.2 -1.2 -16.2 -2.05 -16.2 -2.35 -16.65 -2.5 L-17.3 -2.65 Q-17.7 -2.65 -18.3 -2.25 -18.7 -2.0 -18.95 -2.0 L-19.55 -2.5 -20.0 -3.2 -19.95 -3.3 Q-18.7 -4.2 -17.05 -4.3 L-16.6 -4.3 Q-14.15 -4.3 -14.15 -2.55" fill="#ffffff" fill-rule="evenodd" stroke="none"/>
    <path d="M-9.3 -1.1 L-8.95 -3.65 -8.2 -3.95 -7.3 -3.9 -7.45 -1.25 -5.75 -1.3 Q-4.8 -1.35 -4.8 -0.85 L-4.9 -0.4 -5.05 0.15 -7.55 0.3 -7.8 3.1 -8.65 3.3 -9.25 3.15 -9.45 3.0 -9.5 1.35 -9.45 0.3 -11.95 0.2 -12.35 -0.05 -12.3 -0.5 -11.95 -0.85 -9.3 -1.1" fill="#ffffff" fill-rule="evenodd" stroke="none"/>
    <path d="M-14.3 -1.75 Q-14.15 -2.1 -14.15 -2.55 -14.15 -4.3 -16.6 -4.3 L-17.05 -4.3 Q-18.7 -4.2 -19.95 -3.3 L-20.0 -3.2 -19.55 -2.5 -18.95 -2.0 Q-18.7 -2.0 -18.3 -2.25 -17.7 -2.65 -17.3 -2.65 L-16.65 -2.5 Q-16.2 -2.35 -16.2 -2.05 -16.2 -1.2 -17.2 -0.45 -18.0 0.15 -19.05 0.45 L-19.3 1.15 -19.35 1.9 -19.3 2.3 Q-16.55 4.1 -14.2 4.55 L-13.5 3.8 Q-12.95 3.0 -12.95 2.65 L-15.0 2.25 -17.1 1.5 Q-15.05 0.2 -14.3 -1.75 M-8.2 -3.95 L-8.95 -3.65 -9.3 -1.1 -11.95 -0.85 -12.3 -0.5 -12.35 -0.05 -11.95 0.2 -9.45 0.3 -9.5 1.35 -9.45 3.0 -9.25 3.15 -8.65 3.3 -7.8 3.1 -7.55 0.3 -5.05 0.15 -4.9 -0.4 -4.8 -0.85 Q-4.8 -1.35 -5.75 -1.3 L-7.45 -1.25 -7.3 -3.9 -8.2 -3.95 M-0.75 -4.3 L-1.2 -4.3 Q-2.9 -4.2 -4.15 -3.3 L-4.15 -3.2 -3.75 -2.5 -3.1 -2.0 Q-2.85 -2.0 -2.45 -2.25 L-1.45 -2.65 -0.8 -2.5 Q-0.35 -2.35 -0.35 -2.05 -0.35 -1.2 -1.4 -0.45 -2.2 0.15 -3.25 0.45 L-3.45 1.15 -3.55 1.9 -3.45 2.3 Q-0.7 4.1 1.65 4.55 L2.35 3.8 2.85 2.65 0.8 2.25 -1.25 1.5 Q0.8 0.2 1.5 -1.75 L1.65 -2.55 Q1.65 -4.3 -0.75 -4.3 M2.65 -2.55 L2.65 -1.7 2.45 -0.55 1.4 1.35 2.9 1.65 Q3.3 1.65 3.55 1.9 L3.85 2.55 3.8 3.15 3.85 3.4 Q3.95 4.1 3.2 5.2 2.55 6.15 2.0 6.35 L1.65 6.4 1.45 6.4 Q-1.2 5.8 -4.0 3.95 L-4.1 3.9 Q-4.55 3.55 -4.55 2.75 L-4.55 1.8 -5.0 1.95 -6.65 2.1 -6.85 4.0 Q-6.9 4.55 -7.4 4.8 L-8.65 5.1 -9.55 4.9 -10.3 4.3 -10.45 3.9 -10.5 2.15 -10.5 2.1 -12.0 2.05 -12.2 2.0 -12.0 2.55 -12.0 3.15 -12.0 3.4 Q-11.9 4.1 -12.65 5.2 -13.3 6.15 -13.8 6.35 L-14.2 6.4 -14.4 6.4 Q-17.05 5.8 -19.85 3.95 L-19.95 3.9 Q-20.35 3.55 -20.35 2.75 L-20.35 1.9 -20.3 0.95 Q-20.15 -0.05 -19.65 -0.4 L-20.35 -1.0 Q-21.0 -1.75 -21.0 -2.4 L-20.95 -2.8 -21.0 -3.2 -20.7 -4.0 -20.55 -4.1 Q-19.1 -5.15 -17.1 -5.3 L-16.6 -5.3 Q-14.6 -5.3 -13.75 -4.2 -13.15 -3.55 -13.15 -2.55 L-13.15 -1.7 -13.35 -0.55 Q-13.75 0.45 -14.45 1.35 L-12.9 1.65 -12.85 1.65 -13.0 1.5 -13.35 0.75 -13.3 0.25 -13.35 -0.05 -13.15 -1.0 -12.95 -1.25 -12.65 -1.5 -12.05 -1.8 -10.2 -2.0 -9.95 -3.8 -9.65 -4.35 Q-9.1 -4.95 -8.2 -4.95 L-7.3 -4.9 Q-6.85 -4.9 -6.6 -4.6 -6.3 -4.3 -6.3 -3.85 L-6.35 -3.25 -6.3 -3.0 -6.35 -2.3 -5.15 -2.3 -5.2 -2.4 -5.1 -2.8 -5.2 -3.2 -4.85 -4.0 -4.75 -4.1 Q-3.25 -5.15 -1.25 -5.3 L-0.75 -5.3 Q1.25 -5.3 2.1 -4.2 2.65 -3.55 2.65 -2.55" fill="#231f20" fill-rule="evenodd" stroke="none"/>
    <path d="M-1.2 -4.3 L-0.75 -4.3 Q1.65 -4.3 1.65 -2.55 L1.5 -1.75 Q0.8 0.2 -1.25 1.5 L0.8 2.25 2.85 2.65 2.35 3.8 1.65 4.55 Q-0.7 4.1 -3.45 2.3 L-3.55 1.9 -3.45 1.15 -3.25 0.45 Q-2.2 0.15 -1.4 -0.45 -0.35 -1.2 -0.35 -2.05 -0.35 -2.35 -0.8 -2.5 L-1.45 -2.65 -2.45 -2.25 Q-2.85 -2.0 -3.1 -2.0 L-3.75 -2.5 -4.15 -3.2 -4.15 -3.3 Q-2.9 -4.2 -1.2 -4.3" fill="#ffffff" fill-rule="evenodd" stroke="none"/>
    <path d="M10.05 1.85 L8.25 1.7 8.0 1.3 7.95 0.95 8.15 0.4 10.9 0.2 13.7 0.05 13.8 0.8 13.5 1.4 11.5 1.7 10.05 1.85" fill="#ffffff" fill-rule="evenodd" stroke="none"/>
    <path d="M12.8 -2.45 L13.1 -2.45 Q13.8 -2.45 13.8 -2.0 L13.7 -1.5 13.55 -1.05 10.8 -0.8 8.3 -0.8 Q8.15 -0.85 7.9 -1.05 L7.95 -1.5 8.25 -1.8 10.5 -2.2 12.8 -2.45" fill="#ffffff" fill-rule="evenodd" stroke="none"/>
    <path d="M17.8 -1.75 Q17.7 -2.75 16.65 -3.2 L14.75 -3.85 14.6 -5.3 15.25 -5.45 Q17.0 -5.3 18.35 -4.45 19.85 -3.45 20.05 -1.85 19.95 -1.05 19.5 -0.6 L18.4 0.05 Q17.55 0.5 17.25 0.8 17.1 0.95 17.05 1.4 L16.75 1.75 16.3 1.9 15.45 1.7 Q15.2 1.6 15.2 1.1 15.25 0.5 15.85 0.0 L16.9 -0.7 Q17.7 -1.1 17.8 -1.75" fill="#ffffff" fill-rule="evenodd" stroke="none"/>
    <path d="M15.45 2.7 Q15.8 2.2 16.35 2.2 16.85 2.2 17.05 2.65 L17.15 3.2 17.0 3.75 Q16.7 4.15 16.1 4.15 15.4 4.15 15.2 3.6 15.1 3.05 15.45 2.7" fill="#ffffff" fill-rule="evenodd" stroke="none"/>
  </g>
</svg>
