<?xml version="1.0" encoding="UTF-8" standalone="no"?>
<svg xmlns:ffdec="https://www.free-decompiler.com/flash" xmlns:xlink="http://www.w3.org/1999/xlink" ffdec:objectType="shape" height="42.8px" width="42.8px" xmlns="http://www.w3.org/2000/svg">
  <g transform="matrix(1.0, 0.0, 0.0, 1.0, 21.4, 21.4)">
    <path d="M15.1 -15.15 Q21.4 -8.85 21.4 0.0 21.4 8.85 15.1 15.15 8.85 21.4 0.0 21.4 -8.85 21.4 -15.15 15.15 -21.4 8.85 -21.4 0.0 -21.4 -8.85 -15.15 -15.15 -8.85 -21.4 0.0 -21.4 8.85 -21.4 15.1 -15.15" fill="#ffe86e" fill-rule="evenodd" stroke="none"/>
    <path d="M6.45 8.2 L6.45 14.45 Q6.45 15.8 5.45 16.8 4.5 17.75 3.15 17.75 L-3.1 17.75 Q-4.45 17.75 -5.4 16.8 -6.4 15.8 -6.4 14.45 L-6.4 8.2 Q-6.4 6.85 -5.4 5.9 -4.45 4.95 -3.1 4.95 L3.15 4.95 Q4.5 4.95 5.45 5.9 6.45 6.85 6.45 8.2" fill="#006837" fill-rule="evenodd" stroke="none"/>
    <path d="M4.8 6.2 Q5.45 6.9 5.45 7.85 L5.45 14.15 Q5.45 15.1 4.8 15.75 4.1 16.45 3.15 16.45 L-3.1 16.45 Q-4.05 16.45 -4.75 15.75 -5.4 15.1 -5.4 14.15 L-5.4 7.85 Q-5.4 6.9 -4.75 6.2 -4.05 5.55 -3.1 5.55 L3.15 5.55 Q4.1 5.55 4.8 6.2" fill="#82d980" fill-rule="evenodd" stroke="none"/>
    <path d="M3.75 9.15 L-1.8 14.7 -3.7 12.8 1.85 7.25 3.75 9.15" fill="#ffffff" fill-rule="evenodd" stroke="none"/>
    <path d="M5.45 -5.9 Q4.5 -4.95 3.15 -4.95 L-3.1 -4.95 Q-4.45 -4.95 -5.4 -5.9 -6.4 -6.85 -6.4 -8.2 L-6.4 -14.5 Q-6.4 -15.85 -5.4 -16.8 -4.45 -17.75 -3.1 -17.75 L3.15 -17.75 Q4.5 -17.75 5.45 -16.8 6.45 -15.85 6.45 -14.5 L6.45 -8.2 Q6.45 -6.85 5.45 -5.9" fill="#9d1e60" fill-rule="evenodd" stroke="none"/>
    <path d="M5.45 -8.55 Q5.45 -7.6 4.8 -6.9 4.1 -6.25 3.15 -6.25 L-3.1 -6.25 Q-4.05 -6.25 -4.75 -6.9 -5.4 -7.6 -5.4 -8.55 L-5.4 -14.8 Q-5.4 -15.75 -4.75 -16.45 -4.05 -17.1 -3.1 -17.1 L3.15 -17.1 Q4.1 -17.1 4.8 -16.45 5.45 -15.75 5.45 -14.8 L5.45 -8.55" fill="#ff8c7d" fill-rule="evenodd" stroke="none"/>
    <path d="M0.85 -15.45 L0.85 -12.5 3.75 -12.5 3.75 -10.9 0.85 -10.9 0.85 -7.9 -0.8 -7.9 -0.8 -10.9 -3.65 -10.9 -3.65 -12.5 -0.8 -12.5 -0.8 -15.45 0.85 -15.45" fill="#ffffff" fill-rule="evenodd" stroke="none"/>
    <path d="M-14.8 -6.4 L-8.5 -6.4 Q-7.15 -6.4 -6.2 -5.45 -5.25 -4.5 -5.25 -3.15 L-5.25 3.15 Q-5.25 4.5 -6.2 5.45 -7.15 6.4 -8.5 6.4 L-14.8 6.4 Q-16.15 6.4 -17.1 5.45 -18.05 4.5 -18.05 3.15 L-18.05 -3.15 Q-18.05 -4.5 -17.1 -5.45 -16.15 -6.4 -14.8 -6.4" fill="#1072b9" fill-rule="evenodd" stroke="none"/>
    <path d="M-6.85 -5.1 Q-6.2 -4.45 -6.2 -3.45 L-6.2 2.8 Q-6.2 3.75 -6.85 4.4 -7.55 5.1 -8.5 5.1 L-14.8 5.1 Q-15.75 5.1 -16.45 4.4 -17.1 3.75 -17.1 2.8 L-17.1 -3.45 Q-17.1 -4.45 -16.45 -5.1 -15.75 -5.8 -14.8 -5.8 L-8.5 -5.8 Q-7.55 -5.8 -6.85 -5.1" fill="#82b6e2" fill-rule="evenodd" stroke="none"/>
    <path d="M-14.75 0.6 L-14.75 -1.2 -8.6 -1.2 -8.6 0.6 -14.75 0.6" fill="#ffffff" fill-rule="evenodd" stroke="none"/>
    <path d="M8.55 -6.4 L14.85 -6.4 Q16.2 -6.4 17.15 -5.45 18.1 -4.5 18.1 -3.15 L18.1 3.15 Q18.1 4.5 17.15 5.45 16.2 6.4 14.85 6.4 L8.55 6.4 Q7.2 6.4 6.3 5.45 5.3 4.5 5.3 3.15 L5.3 -3.15 Q5.3 -4.5 6.3 -5.45 7.2 -6.4 8.55 -6.4" fill="#d6af1c" fill-rule="evenodd" stroke="none"/>
    <path d="M16.5 -5.1 Q17.15 -4.45 17.15 -3.45 L17.15 2.8 Q17.15 3.75 16.5 4.4 15.8 5.1 14.85 5.1 L8.55 5.1 Q7.65 5.1 6.95 4.4 6.25 3.75 6.25 2.8 L6.25 -3.45 Q6.25 -4.45 6.95 -5.1 7.6 -5.8 8.55 -5.8 L14.85 -5.8 Q15.8 -5.8 16.5 -5.1" fill="#ffe07d" fill-rule="evenodd" stroke="none"/>
    <path d="M11.7 0.95 L10.1 2.55 8.8 1.25 10.4 -0.35 8.8 -1.95 10.1 -3.25 11.7 -1.65 13.35 -3.25 14.6 -1.95 13.0 -0.35 14.6 1.25 13.35 2.55 11.7 0.95" fill="#ffffff" fill-rule="evenodd" stroke="none"/>
  </g>
</svg>
