<?xml version="1.0" encoding="UTF-8" standalone="no"?>
<svg xmlns:ffdec="https://www.free-decompiler.com/flash" xmlns:xlink="http://www.w3.org/1999/xlink" ffdec:objectType="shape" height="42.8px" width="42.8px" xmlns="http://www.w3.org/2000/svg">
  <g transform="matrix(1.0, 0.0, 0.0, 1.0, 21.4, 21.4)">
    <path d="M15.1 -15.1 Q21.4 -8.8 21.4 0.05 21.4 8.9 15.1 15.15 8.85 21.4 0.0 21.4 -8.85 21.4 -15.15 15.15 -21.4 8.9 -21.4 0.05 -21.4 -8.8 -15.15 -15.1 -8.85 -21.4 0.0 -21.4 8.85 -21.4 15.1 -15.1" fill="#f5807d" fill-rule="evenodd" stroke="none"/>
    <path d="M0.0 2.2 L9.05 6.75 9.05 17.3 0.0 12.8 0.0 2.2" fill="#c6e8f3" fill-rule="evenodd" stroke="none"/>
    <path d="M9.05 6.75 L18.1 2.2 18.1 12.8 9.05 17.3 9.05 6.75" fill="#9bdaf1" fill-rule="evenodd" stroke="none"/>
    <path d="M18.1 2.2 L9.05 6.75 0.0 2.2 9.05 -2.3 18.1 2.2" fill="#f4fafd" fill-rule="evenodd" stroke="none"/>
    <path d="M-9.05 -12.85 L0.0 -8.35 0.0 2.2 -9.05 -2.3 -9.05 -12.85" fill="#c23b7f" fill-rule="evenodd" stroke="none"/>
    <path d="M9.05 -12.85 L9.05 -2.3 0.0 2.2 0.0 -8.35 9.05 -12.85" fill="#992967" fill-rule="evenodd" stroke="none"/>
    <path d="M0.0 -8.35 L-9.05 -12.85 0.0 -17.4 9.05 -12.85 0.0 -8.35" fill="#ec248c" fill-rule="evenodd" stroke="none"/>
    <path d="M-18.1 2.25 L-17.8 2.35 -9.05 6.75 -9.05 17.35 -18.1 12.8 -18.1 2.25" fill="#d0e186" fill-rule="evenodd" stroke="none"/>
    <path d="M-9.05 6.75 L0.0 2.25 0.0 12.8 -9.05 17.35 -9.05 6.75" fill="#aad287" fill-rule="evenodd" stroke="none"/>
    <path d="M0.0 2.25 L-9.05 6.75 -17.8 2.35 -18.1 2.25 -9.05 -2.3 0.0 2.25" fill="#f4f1bd" fill-rule="evenodd" stroke="none"/>
    <path d="M2.95 -12.7 L-0.05 -11.2 -0.05 -12.7 2.95 -14.2 2.95 -12.7" fill="#992967" fill-rule="evenodd" stroke="none"/>
    <path d="M-3.1 -12.7 L-3.1 -14.2 -0.05 -12.7 -0.05 -11.2 -3.1 -12.7" fill="#c23b7f" fill-rule="evenodd" stroke="none"/>
    <path d="M2.95 -14.2 L-0.05 -12.7 -3.1 -14.2 -0.05 -15.7 2.95 -14.2" fill="#ec248c" fill-rule="evenodd" stroke="none"/>
    <path d="M-6.1 2.4 L-9.15 3.9 -9.15 2.4 -6.1 0.9 -6.1 2.4" fill="#aad287" fill-rule="evenodd" stroke="none"/>
    <path d="M-12.15 2.4 L-12.15 0.9 -9.15 2.4 -9.15 3.9 -12.15 2.4" fill="#d0e186" fill-rule="evenodd" stroke="none"/>
    <path d="M-6.1 0.9 L-9.15 2.4 -12.15 0.9 -9.15 -0.65 -6.1 0.9" fill="#f4f1bd" fill-rule="evenodd" stroke="none"/>
    <path d="M11.95 2.4 L8.95 3.9 8.95 2.4 11.95 0.9 11.95 2.4" fill="#9cdaf1" fill-rule="evenodd" stroke="none"/>
    <path d="M8.95 2.4 L8.95 3.9 5.9 2.4 5.9 0.9 8.95 2.4" fill="#c6e8f3" fill-rule="evenodd" stroke="none"/>
    <path d="M11.95 0.9 L8.95 2.4 5.9 0.9 8.95 -0.65 11.95 0.9" fill="#ffffff" fill-rule="evenodd" stroke="none"/>
  </g>
</svg>
