<?xml version="1.0" encoding="UTF-8" standalone="no"?>
<svg xmlns:ffdec="https://www.free-decompiler.com/flash" xmlns:xlink="http://www.w3.org/1999/xlink" ffdec:objectType="shape" height="38.2px" width="39.85px" xmlns="http://www.w3.org/2000/svg">
  <g transform="matrix(1.0, 0.0, 0.0, 1.0, 19.9, 19.15)">
    <path d="M0.0 2.45 L9.95 7.4 9.95 19.05 0.0 14.1 0.0 2.45" fill="#c6e8f3" fill-rule="evenodd" stroke="none"/>
    <path d="M9.95 7.4 L19.95 2.45 19.95 14.1 9.95 19.05 9.95 7.4" fill="#9bdaf1" fill-rule="evenodd" stroke="none"/>
    <path d="M19.95 2.45 L9.95 7.4 0.0 2.45 9.95 -2.55 19.95 2.45" fill="#f4fafd" fill-rule="evenodd" stroke="none"/>
    <path d="M-9.95 -14.15 L0.05 -9.2 0.05 2.45 0.0 2.45 -9.95 -2.5 -9.95 -14.15" fill="#c23b7f" fill-rule="evenodd" stroke="none"/>
    <path d="M9.95 -14.15 L9.95 -2.5 0.05 2.45 0.05 -9.2 9.95 -14.15" fill="#992967" fill-rule="evenodd" stroke="none"/>
    <path d="M0.05 -9.2 L-9.95 -14.15 0.05 -19.15 9.95 -14.15 0.05 -9.2" fill="#ec248c" fill-rule="evenodd" stroke="none"/>
    <path d="M-19.9 2.45 L-19.55 2.6 -9.95 7.4 -9.95 19.05 -19.9 14.1 -19.9 2.45" fill="#d0e186" fill-rule="evenodd" stroke="none"/>
    <path d="M-9.95 7.4 L0.05 2.45 0.05 14.1 -9.95 19.05 -9.95 7.4" fill="#aad287" fill-rule="evenodd" stroke="none"/>
    <path d="M0.05 2.45 L-9.95 7.4 -19.55 2.6 -19.9 2.45 -9.95 -2.5 0.05 2.45" fill="#f4f1bd" fill-rule="evenodd" stroke="none"/>
    <path d="M3.25 -13.95 L-0.05 -12.3 -0.05 -13.95 3.25 -15.6 3.25 -13.95" fill="#992967" fill-rule="evenodd" stroke="none"/>
    <path d="M-3.4 -13.95 L-3.4 -15.6 -0.05 -13.95 -0.05 -12.3 -3.4 -13.95" fill="#c23b7f" fill-rule="evenodd" stroke="none"/>
    <path d="M3.25 -15.6 L-0.05 -13.95 -3.4 -15.6 -0.05 -17.3 3.25 -15.6" fill="#ec248c" fill-rule="evenodd" stroke="none"/>
    <path d="M-6.7 2.65 L-10.05 4.3 -10.05 2.65 -6.7 1.0 -6.7 2.65" fill="#aad287" fill-rule="evenodd" stroke="none"/>
    <path d="M-13.35 2.65 L-13.35 1.0 -10.05 2.65 -10.05 4.3 -13.35 2.65" fill="#d0e186" fill-rule="evenodd" stroke="none"/>
    <path d="M-6.7 1.0 L-10.05 2.65 -13.35 1.0 -10.05 -0.7 -6.7 1.0" fill="#f4f1bd" fill-rule="evenodd" stroke="none"/>
    <path d="M13.15 2.65 L9.85 4.3 9.85 2.65 13.15 1.0 13.15 2.65" fill="#9cdaf1" fill-rule="evenodd" stroke="none"/>
    <path d="M9.85 2.65 L9.85 4.3 6.5 2.65 6.5 1.0 9.85 2.65" fill="#c6e8f3" fill-rule="evenodd" stroke="none"/>
    <path d="M13.15 1.0 L9.85 2.65 6.5 1.0 9.85 -0.7 13.15 1.0" fill="#ffffff" fill-rule="evenodd" stroke="none"/>
  </g>
</svg>
