<?xml version="1.0" encoding="UTF-8" standalone="no"?>
<svg xmlns:ffdec="https://www.free-decompiler.com/flash" xmlns:xlink="http://www.w3.org/1999/xlink" ffdec:objectType="shape" height="50.65px" width="51.45px" xmlns="http://www.w3.org/2000/svg">
  <g transform="matrix(1.0, 0.0, 0.0, 1.0, 19.9, 19.15)">
    <path d="M0.0 2.45 L9.95 7.4 9.95 19.05 0.0 14.1 0.0 2.45" fill="#c6e8f3" fill-rule="evenodd" stroke="none"/>
    <path d="M9.95 7.4 L19.95 2.45 19.95 14.1 9.95 19.05 9.95 7.4" fill="#9bdaf1" fill-rule="evenodd" stroke="none"/>
    <path d="M19.95 2.45 L9.95 7.4 0.0 2.45 9.95 -2.55 19.95 2.45" fill="#f4fafd" fill-rule="evenodd" stroke="none"/>
    <path d="M-9.95 -14.15 L0.05 -9.2 0.05 2.45 0.0 2.45 -9.95 -2.5 -9.95 -14.15" fill="#c23b7f" fill-rule="evenodd" stroke="none"/>
    <path d="M9.95 -14.15 L9.95 -2.5 0.05 2.45 0.05 -9.2 9.95 -14.15" fill="#992967" fill-rule="evenodd" stroke="none"/>
    <path d="M0.05 -9.2 L-9.95 -14.15 0.05 -19.15 9.95 -14.15 0.05 -9.2" fill="#ec248c" fill-rule="evenodd" stroke="none"/>
    <path d="M-19.9 2.45 L-19.55 2.6 -9.95 7.4 -9.95 19.05 -19.9 14.1 -19.9 2.45" fill="#d0e186" fill-rule="evenodd" stroke="none"/>
    <path d="M-9.95 7.4 L0.05 2.45 0.05 14.1 -9.95 19.05 -9.95 7.4" fill="#aad287" fill-rule="evenodd" stroke="none"/>
    <path d="M0.05 2.45 L-9.95 7.4 -19.55 2.6 -19.9 2.45 -9.95 -2.5 0.05 2.45" fill="#f4f1bd" fill-rule="evenodd" stroke="none"/>
    <path d="M3.25 -13.95 L-0.05 -12.3 -0.05 -13.95 3.25 -15.6 3.25 -13.95" fill="#992967" fill-rule="evenodd" stroke="none"/>
    <path d="M-3.4 -13.95 L-3.4 -15.6 -0.05 -13.95 -0.05 -12.3 -3.4 -13.95" fill="#c23b7f" fill-rule="evenodd" stroke="none"/>
    <path d="M3.25 -15.6 L-0.05 -13.95 -3.4 -15.6 -0.05 -17.3 3.25 -15.6" fill="#ec248c" fill-rule="evenodd" stroke="none"/>
    <path d="M-6.7 2.65 L-10.05 4.3 -10.05 2.65 -6.7 1.0 -6.7 2.65" fill="#aad287" fill-rule="evenodd" stroke="none"/>
    <path d="M-13.35 2.65 L-13.35 1.0 -10.05 2.65 -10.05 4.3 -13.35 2.65" fill="#d0e186" fill-rule="evenodd" stroke="none"/>
    <path d="M-6.7 1.0 L-10.05 2.65 -13.35 1.0 -10.05 -0.7 -6.7 1.0" fill="#f4f1bd" fill-rule="evenodd" stroke="none"/>
    <path d="M13.15 2.65 L9.85 4.3 9.85 2.65 13.15 1.0 13.15 2.65" fill="#9cdaf1" fill-rule="evenodd" stroke="none"/>
    <path d="M9.85 2.65 L9.85 4.3 6.5 2.65 6.5 1.0 9.85 2.65" fill="#c6e8f3" fill-rule="evenodd" stroke="none"/>
    <path d="M13.15 1.0 L9.85 2.65 6.5 1.0 9.85 -0.7 13.15 1.0" fill="#ffffff" fill-rule="evenodd" stroke="none"/>
    <path d="M25.25 5.6 Q21.35 1.7 15.8 1.7 10.25 1.7 6.3 5.6 2.4 9.55 2.4 15.1 2.4 20.65 6.3 24.55 10.25 28.5 15.8 28.5 21.35 28.5 25.25 24.55 29.15 20.65 29.15 15.1 29.15 9.55 25.25 5.6 M26.9 4.6 Q31.55 9.25 31.55 15.75 31.55 22.25 26.9 26.9 22.3 31.5 15.8 31.5 9.25 31.5 4.65 26.9 0.0 22.25 0.0 15.75 0.0 9.25 4.65 4.6 9.25 0.0 15.8 0.0 22.3 0.0 26.9 4.6" fill="#9d1e60" fill-rule="evenodd" stroke="none"/>
    <path d="M25.25 5.6 Q29.15 9.55 29.15 15.1 29.15 20.65 25.25 24.55 21.35 28.5 15.8 28.5 10.25 28.5 6.3 24.55 2.4 20.65 2.4 15.1 2.4 9.55 6.3 5.6 10.25 1.7 15.8 1.7 21.35 1.7 25.25 5.6 M27.45 11.85 L23.2 7.55 13.8 16.95 7.8 10.95 3.55 15.25 13.8 25.5 27.45 11.85" fill="#f5697d" fill-rule="evenodd" stroke="none"/>
    <path d="M27.45 11.85 L13.8 25.5 3.55 15.25 7.8 10.95 13.8 16.95 23.2 7.55 27.45 11.85" fill="#ffffff" fill-rule="evenodd" stroke="none"/>
  </g>
</svg>
