<?xml version="1.0" encoding="UTF-8" standalone="no"?>
<svg xmlns:ffdec="https://www.free-decompiler.com/flash" xmlns:xlink="http://www.w3.org/1999/xlink" ffdec:objectType="shape" height="38.5px" width="38.5px" xmlns="http://www.w3.org/2000/svg">
  <g transform="matrix(1.0, 0.0, 0.0, 1.0, 19.25, 19.25)">
    <path d="M13.6 -13.6 Q19.25 -7.9 19.25 0.05 19.25 8.0 13.6 13.65 7.95 19.25 0.0 19.25 -7.95 19.25 -13.65 13.65 -19.25 8.0 -19.25 0.05 -19.25 -7.9 -13.65 -13.6 -7.95 -19.25 0.0 -19.25 7.95 -19.25 13.6 -13.6" fill="#f5807d" fill-rule="evenodd" stroke="none"/>
    <path d="M-5.15 -2.5 Q-5.15 -1.9 -5.95 -1.5 L-8.05 -1.05 -15.85 -1.05 Q-17.05 -1.05 -17.9 -1.5 -18.75 -1.9 -18.75 -2.5 L-5.15 -2.5" fill="#231f20" fill-rule="evenodd" stroke="none"/>
    <path d="M16.7 -1.5 Q15.85 -1.05 14.6 -1.05 L6.85 -1.05 Q5.6 -1.05 4.75 -1.5 3.9 -1.9 3.9 -2.5 L17.55 -2.5 Q17.55 -1.9 16.7 -1.5" fill="#231f20" fill-rule="evenodd" stroke="none"/>
    <path d="M10.35 -1.2 L11.3 -1.2 11.3 3.55 11.05 4.2 10.35 4.45 -11.4 4.45 -12.1 4.2 -12.35 3.55 -12.35 -1.2 -11.4 -1.2 -11.4 3.55 10.35 3.55 10.35 -1.2" fill="#231f20" fill-rule="evenodd" stroke="none"/>
    <path d="M-3.2 11.65 L-3.6 11.4 -3.7 10.8 -2.7 3.95 Q-2.6 3.15 -2.0 2.65 -1.4 2.15 -0.6 2.15 0.15 2.15 0.8 2.65 1.4 3.15 1.5 3.95 L2.5 10.8 2.4 11.4 1.95 11.65 -3.2 11.65" fill="#231f20" fill-rule="evenodd" stroke="none"/>
    <path d="M0.7 4.15 Q0.7 4.7 0.35 5.1 -0.05 5.45 -0.6 5.45 -1.15 5.45 -1.55 5.1 -1.95 4.7 -1.95 4.15 -1.95 3.6 -1.55 3.2 -1.15 2.8 -0.6 2.8 -0.05 2.8 0.35 3.2 0.7 3.6 0.7 4.15" fill="#ffffff" fill-rule="evenodd" stroke="none"/>
    <path d="M17.5 -6.5 L17.15 -6.75 16.55 -6.8 16.45 -4.3 Q17.4 -4.1 17.65 -5.9 L17.5 -6.5 M16.6 -7.1 L17.25 -7.0 17.7 -6.65 17.95 -5.9 17.75 -5.0 17.2 -4.15 16.65 -4.1 16.15 -3.95 Q16.5 -3.3 17.3 -3.85 18.0 -4.35 18.15 -4.9 18.45 -6.1 18.35 -6.6 18.2 -7.2 17.7 -7.45 16.65 -7.9 16.05 -7.15 L16.25 -7.45 Q16.25 -8.7 14.1 -8.95 11.85 -9.2 11.4 -8.1 11.1 -7.45 11.15 -5.55 11.2 -3.55 11.55 -3.2 12.2 -2.4 14.1 -2.4 16.0 -2.45 16.35 -3.55 16.05 -3.65 15.9 -3.8 15.8 -3.95 15.85 -4.3 L16.05 -4.45 16.35 -4.35 16.25 -6.7 16.05 -6.55 15.9 -6.55 16.05 -7.15 16.05 -6.8 Q16.25 -7.05 16.6 -7.1 M16.55 -7.7 Q17.15 -8.05 17.8 -7.7 18.45 -7.35 18.65 -6.65 18.85 -5.45 18.25 -4.35 17.6 -3.15 16.35 -3.5 16.2 -2.35 14.45 -2.2 L11.85 -2.55 Q11.0 -3.0 10.95 -4.55 L11.05 -6.95 11.15 -8.1 Q11.35 -8.65 12.0 -8.9 L14.3 -9.15 Q15.7 -9.05 16.35 -8.35 L16.55 -7.7" fill="#1b597b" fill-rule="evenodd" stroke="none"/>
    <path d="M16.05 -7.85 L15.3 -7.4 14.8 -7.1 Q14.5 -6.6 14.65 -5.4 14.8 -4.2 14.4 -3.65 13.9 -2.8 12.85 -3.0 11.85 -3.2 11.25 -4.0 L11.15 -6.3 Q11.2 -7.65 11.4 -8.1 11.8 -9.05 13.65 -9.0 15.55 -8.9 16.1 -8.0 L16.05 -7.85 M15.8 -8.05 L15.2 -8.6 13.75 -8.8 13.05 -8.75 Q11.65 -8.55 11.65 -8.05 11.65 -7.75 12.3 -7.5 L13.75 -7.3 13.95 -7.3 15.25 -7.55 Q15.8 -7.75 15.8 -8.05 M17.95 -5.9 L17.7 -6.65 17.25 -7.0 16.6 -7.1 Q16.25 -7.05 16.05 -6.8 L16.05 -7.15 Q16.65 -7.9 17.7 -7.45 L18.0 -7.2 17.95 -7.0 17.6 -7.0 Q18.5 -6.35 17.9 -4.65 17.4 -3.65 16.15 -3.9 L16.15 -3.95 16.65 -4.1 17.2 -4.15 17.75 -5.0 17.95 -5.9" fill="#5ca7ff" fill-rule="evenodd" stroke="none"/>
    <path d="M16.25 -6.7 L16.35 -4.35 16.05 -4.45 15.85 -4.3 Q15.8 -3.95 15.9 -3.8 16.05 -3.65 16.35 -3.55 16.0 -2.45 14.1 -2.4 12.2 -2.4 11.55 -3.2 L11.25 -4.0 Q11.85 -3.2 12.85 -3.0 13.9 -2.8 14.4 -3.65 14.8 -4.2 14.65 -5.4 14.5 -6.6 14.8 -7.1 L15.3 -7.4 16.05 -7.85 16.1 -8.0 16.25 -7.45 16.05 -7.15 15.9 -6.55 16.05 -6.55 16.25 -6.7 M17.6 -7.0 L17.95 -7.0 18.0 -7.2 18.35 -6.6 Q18.45 -6.1 18.15 -4.9 18.0 -4.35 17.3 -3.85 L16.15 -3.9 Q17.4 -3.65 17.9 -4.65 18.5 -6.35 17.6 -7.0" fill="#498ec7" fill-rule="evenodd" stroke="none"/>
    <path d="M13.05 -8.75 Q12.8 -8.35 13.15 -7.9 L13.95 -7.3 13.75 -7.3 12.3 -7.5 Q11.65 -7.75 11.65 -8.05 11.65 -8.55 13.05 -8.75" fill="#d4d1b8" fill-rule="evenodd" stroke="none"/>
    <path d="M13.75 -8.8 L15.2 -8.6 15.8 -8.05 Q15.8 -7.75 15.25 -7.55 L13.95 -7.3 13.15 -7.9 Q12.8 -8.35 13.05 -8.75 L13.75 -8.8" fill="#efeddc" fill-rule="evenodd" stroke="none"/>
    <path d="M-17.05 -5.3 L-17.05 -7.25 Q-15.7 -6.05 -13.6 -6.1 L-9.9 -6.6 -10.05 -5.9 -10.15 -4.55 -13.9 -4.1 Q-16.05 -3.95 -17.05 -5.3 M-15.75 -8.15 L-15.05 -8.25 -15.05 -7.55 -15.7 -7.55 -15.75 -8.15 M-12.2 -8.3 L-12.15 -8.35 -11.55 -8.35 -11.55 -7.75 -12.15 -7.7 -12.2 -8.3" fill="#ffb238" fill-rule="evenodd" stroke="none"/>
    <path d="M-15.8 -2.75 Q-16.7 -2.95 -16.95 -3.7 L-17.05 -5.3 Q-16.05 -3.95 -13.9 -4.1 L-10.15 -4.55 -10.0 -2.8 -11.4 -2.55 -12.85 -2.5 -15.8 -2.75 M-11.5 -9.25 L-11.55 -8.35 -12.15 -8.35 -12.15 -8.5 -11.95 -9.25 Q-11.85 -9.95 -12.3 -10.3 L-13.25 -10.4 -13.9 -10.05 -14.0 -9.95 -14.65 -9.25 -14.9 -8.65 -15.05 -8.25 -15.75 -8.15 -15.8 -7.55 -15.65 -7.4 -14.95 -7.25 Q-14.7 -7.45 -14.7 -7.9 L-14.65 -8.6 -12.45 -8.5 -12.45 -7.4 -11.3 -7.4 -11.35 -8.35 -11.3 -8.55 -9.5 -8.55 -9.9 -6.6 -13.6 -6.1 Q-15.7 -6.05 -17.05 -7.25 L-17.3 -9.15 -15.6 -8.75 -15.75 -8.2 -15.2 -9.25 -14.4 -10.25 -13.75 -10.7 -12.4 -10.85 Q-11.75 -10.75 -11.55 -10.25 -11.4 -9.95 -11.5 -9.25" fill="#ffdf34" fill-rule="evenodd" stroke="none"/>
    <path d="M-14.95 -10.25 L-15.35 -9.95 -15.3 -9.65 -15.3 -9.6 -14.75 -10.25 -14.95 -10.25 M-13.5 -9.7 L-13.55 -9.8 -14.2 -9.25 -13.1 -9.25 -13.5 -9.7 M-12.35 -9.3 Q-12.25 -10.25 -12.95 -10.1 L-12.35 -9.3 M-11.3 -8.55 L-11.35 -8.35 -11.3 -7.4 -12.45 -7.4 -12.45 -8.5 -14.65 -8.6 -14.7 -7.9 Q-14.7 -7.45 -14.95 -7.25 L-15.65 -7.4 -15.8 -7.55 -15.85 -7.8 -15.75 -8.2 -15.7 -7.9 -15.7 -7.55 -15.05 -7.55 Q-15.15 -8.15 -14.9 -8.65 L-14.65 -9.25 -14.0 -9.95 -13.9 -10.05 -13.25 -10.4 -12.3 -10.3 Q-11.85 -9.95 -11.95 -9.25 L-12.2 -8.3 -12.15 -7.7 -11.55 -7.75 -11.55 -8.55 -11.5 -9.25 Q-11.4 -9.95 -11.55 -10.25 -11.75 -10.75 -12.4 -10.85 L-13.75 -10.7 -14.4 -10.25 -15.2 -9.25 -15.75 -8.2 -15.6 -8.75 -17.3 -9.15 Q-17.0 -8.1 -17.0 -6.2 L-17.05 -4.1 Q-16.9 -2.95 -15.8 -2.75 L-12.85 -2.5 -11.4 -2.55 -10.0 -2.8 -10.15 -4.35 -10.05 -5.9 -9.75 -7.25 -9.5 -8.55 -11.3 -8.55 M-15.15 -10.85 L-13.95 -10.8 -12.7 -11.1 Q-12.0 -11.1 -11.65 -10.75 -11.2 -10.3 -11.25 -9.25 L-9.2 -8.8 Q-8.95 -8.5 -9.55 -6.6 L-9.75 -4.7 -9.65 -2.8 Q-9.55 -2.4 -11.25 -2.25 L-13.2 -2.15 -15.45 -2.3 Q-16.55 -2.5 -17.0 -3.0 -17.4 -3.55 -17.4 -4.7 L-17.35 -6.8 Q-17.4 -8.05 -17.6 -8.95 L-17.75 -9.3 -16.0 -9.35 -15.85 -9.3 -15.95 -9.5 -16.0 -9.75 -15.9 -10.2 -15.15 -10.85" fill="#957d23" fill-rule="evenodd" stroke="none"/>
    <path d="M-6.45 -8.75 Q-6.1 -9.35 -6.3 -9.4 L-6.95 -8.9 -8.1 -7.55 -9.05 -5.75 -9.8 -4.65 -10.65 -4.45 Q-11.15 -4.35 -11.1 -4.2 L-10.05 -4.1 -8.85 -4.3 -8.0 -5.65 -7.25 -7.45 -6.45 -8.75 M-11.95 -2.05 L-12.8 -2.25 Q-13.55 -2.45 -13.55 -2.55 L-13.1 -3.2 -12.3 -3.8 -11.5 -4.3 -10.65 -4.6 -9.85 -4.9 -9.6 -5.25 -8.85 -6.45 -7.7 -8.3 -7.05 -9.05 -6.25 -9.65 -5.9 -9.5 Q-5.65 -9.2 -5.55 -8.75 L-5.5 -7.9 Q-5.55 -7.4 -6.15 -6.8 L-7.05 -5.9 Q-7.35 -5.35 -7.45 -3.95 L-7.8 -2.95 Q-8.0 -2.45 -8.45 -2.25 L-8.85 -2.15 -10.35 -2.0 -11.95 -2.05" fill="#d63795" fill-rule="evenodd" stroke="none"/>
    <path d="M-8.45 -5.45 L-7.55 -6.7 Q-8.4 -4.65 -8.85 -4.3 L-9.35 -4.15 -8.45 -5.45 M-13.25 -3.4 L-12.45 -4.0 -11.6 -4.55 -10.75 -4.85 Q-10.15 -5.0 -10.0 -5.1 L-9.65 -5.65 -9.1 -6.55 -7.8 -8.4 -7.25 -9.05 -6.45 -9.55 -6.3 -9.65 -7.05 -9.05 -7.7 -8.3 -8.85 -6.45 -9.6 -5.25 -9.85 -4.9 -10.65 -4.6 -11.5 -4.3 -12.3 -3.8 -13.1 -3.2 -13.55 -2.55 Q-13.55 -2.45 -12.8 -2.25 L-11.95 -2.05 -10.35 -2.0 -8.85 -2.15 -8.45 -2.25 Q-8.0 -2.45 -7.8 -2.95 L-7.5 -3.65 -7.25 -4.45 -7.05 -4.9 Q-6.7 -5.75 -5.25 -6.45 L-5.35 -6.35 -6.35 -5.4 -6.3 -5.2 -6.2 -4.7 -6.2 -3.0 -5.85 -3.05 -5.85 -3.75 Q-5.75 -5.35 -5.35 -6.35 -4.55 -7.35 -4.9 -8.35 -5.2 -9.25 -6.25 -9.65 L-5.9 -9.55 Q-5.2 -9.35 -4.75 -8.4 -4.45 -7.9 -4.6 -7.35 L-4.9 -6.8 -5.1 -6.25 -5.6 -3.75 -5.6 -2.85 -5.65 -2.55 -5.95 -2.35 Q-6.45 -2.3 -6.45 -2.7 L-6.45 -4.7 -6.55 -5.15 Q-6.6 -5.45 -6.6 -5.15 L-7.0 -4.35 -7.3 -3.6 -7.55 -2.85 Q-7.85 -2.2 -8.4 -2.0 L-8.8 -1.9 -10.35 -1.75 -11.95 -1.85 -12.9 -2.0 -13.35 -2.1 -13.8 -2.5 -13.6 -3.05 -13.25 -3.4" fill="#5f0b49" fill-rule="evenodd" stroke="none"/>
    <path d="M-6.3 -9.4 Q-6.1 -9.35 -6.45 -8.75 L-7.25 -7.45 -7.55 -6.7 -8.45 -5.45 -9.35 -4.15 -10.45 -4.1 -11.1 -4.2 Q-11.15 -4.35 -10.65 -4.45 L-9.8 -4.65 -9.05 -5.75 -8.1 -7.55 -6.95 -8.9 -6.3 -9.4 M-5.9 -9.5 Q-5.05 -9.05 -4.85 -8.25 -4.6 -7.4 -5.25 -6.45 -6.7 -5.75 -7.05 -4.9 L-7.45 -3.95 Q-7.35 -5.35 -7.05 -5.9 L-6.15 -6.8 Q-5.55 -7.4 -5.5 -7.9 L-5.55 -8.75 Q-5.65 -9.2 -5.9 -9.5 M-6.35 -5.4 L-5.35 -6.35 Q-5.75 -5.35 -5.85 -3.75 L-5.85 -3.05 -6.2 -3.0 -6.2 -4.7 -6.3 -5.2 -6.35 -5.4" fill="#9f2e7d" fill-rule="evenodd" stroke="none"/>
    <path d="M-11.0 -2.95 L-11.25 -2.6 Q-11.45 -2.45 -11.75 -2.45 L-12.3 -2.6 -12.55 -2.95 -12.3 -3.3 -11.75 -3.45 -11.25 -3.3 -11.0 -2.95" fill="#fde1f0" fill-rule="evenodd" stroke="none"/>
    <path d="M6.5 -2.6 Q5.45 -2.8 5.5 -3.3 L5.35 -4.0 5.2 -4.1 5.6 -4.4 5.65 -4.4 5.65 -4.35 Q5.9 -3.7 6.25 -3.95 L6.9 -3.85 Q7.3 -3.75 7.5 -4.05 L8.0 -3.7 5.6 -3.85 8.65 -3.6 8.8 -3.2 Q8.8 -2.75 8.5 -2.7 L6.5 -2.6" fill="#cd7141" fill-rule="evenodd" stroke="none"/>
    <path d="M5.0 -4.8 L5.05 -4.85 6.05 -4.45 Q6.85 -4.3 7.9 -4.45 L8.9 -4.7 9.35 -5.05 9.65 -4.9 9.55 -4.1 9.4 -4.0 9.15 -2.7 8.8 -2.45 8.55 -2.35 6.45 -2.3 5.9 -2.45 5.35 -2.75 5.2 -3.85 5.0 -4.0 4.85 -4.7 5.0 -4.8 M6.9 -3.85 L6.25 -3.95 Q5.9 -3.7 5.65 -4.35 L5.65 -4.4 5.6 -4.4 5.2 -4.1 5.35 -4.0 5.5 -3.3 Q5.45 -2.8 6.5 -2.6 L8.5 -2.7 Q8.8 -2.75 8.8 -3.2 L8.65 -3.6 5.6 -3.85 8.0 -3.7 7.5 -4.05 Q7.3 -3.75 6.9 -3.85" fill="#893e1a" fill-rule="evenodd" stroke="none"/>
    <path d="M6.35 -10.25 L5.85 -10.55 5.85 -10.3 Q5.85 -10.0 5.95 -10.05 L5.5 -10.0 5.0 -10.1 Q4.45 -10.05 4.25 -9.6 L3.95 -8.85 3.6 -8.35 Q3.4 -8.0 3.55 -7.55 3.9 -6.75 3.95 -6.95 L3.85 -6.65 Q3.3 -6.7 3.5 -6.55 3.7 -6.4 4.15 -6.35 L4.25 -6.0 3.8 -5.75 Q3.5 -5.5 3.95 -5.35 L4.1 -5.6 4.45 -5.9 4.5 -5.65 4.45 -5.3 Q4.5 -4.35 5.4 -4.7 L6.6 -5.4 6.4 -5.2 Q6.5 -4.85 7.65 -4.95 L9.1 -4.8 9.7 -5.4 9.8 -5.6 9.95 -5.6 10.15 -5.4 Q10.45 -5.65 10.3 -5.8 L10.1 -6.05 10.9 -6.5 Q11.25 -6.9 11.25 -7.35 L10.9 -8.1 Q10.4 -8.45 10.35 -8.7 L10.5 -8.8 Q10.7 -9.15 10.25 -9.45 L9.65 -9.75 Q9.35 -10.65 8.25 -10.65 L6.35 -10.25 M7.95 -10.85 L9.05 -10.85 Q9.55 -10.7 9.9 -9.9 L10.7 -9.3 10.75 -8.6 Q11.65 -8.25 11.55 -7.15 11.45 -6.1 10.5 -6.0 10.9 -5.65 10.55 -5.25 10.25 -4.8 9.85 -5.25 9.6 -4.6 8.6 -4.6 L7.9 -4.45 Q6.85 -4.3 6.05 -4.45 L5.6 -4.6 Q4.85 -4.1 4.3 -4.8 L3.55 -5.25 Q3.1 -5.55 3.65 -6.0 3.2 -6.05 3.1 -6.45 2.95 -6.85 3.35 -7.0 3.05 -7.65 3.2 -8.15 L3.75 -9.15 Q3.6 -9.75 4.25 -10.15 4.9 -10.6 5.5 -10.35 L5.8 -10.75 6.5 -10.45 7.95 -10.85" fill="#57721e" fill-rule="evenodd" stroke="none"/>
    <path d="M8.8 -9.5 L9.2 -9.85 9.15 -10.4 9.65 -9.8 Q9.3 -9.45 8.8 -9.5 M6.4 -5.2 L6.6 -5.4 5.35 -4.7 Q4.5 -4.4 4.45 -5.3 5.35 -4.65 6.4 -6.05 L6.45 -5.85 6.5 -5.75 7.35 -5.85 7.65 -5.55 8.15 -5.65 8.2 -5.9 8.15 -6.25 Q8.25 -5.9 8.65 -5.75 9.05 -5.6 9.2 -5.85 9.45 -6.2 9.15 -6.55 L8.6 -7.1 9.35 -6.7 Q9.8 -6.55 10.05 -6.9 L10.0 -7.25 9.6 -7.45 10.0 -7.45 Q10.2 -7.45 10.25 -7.55 10.4 -7.9 10.2 -8.15 L9.75 -8.65 9.4 -8.65 Q9.85 -8.65 10.05 -8.95 10.25 -9.1 10.05 -9.3 L9.75 -9.7 10.35 -9.35 10.5 -8.8 10.35 -8.7 Q10.4 -8.45 10.9 -8.1 L11.25 -7.35 Q11.25 -6.9 10.9 -6.5 L10.1 -6.05 10.3 -5.8 Q10.45 -5.65 10.15 -5.4 L9.95 -5.6 9.8 -5.6 9.7 -5.4 9.3 -4.95 Q8.7 -4.55 7.65 -4.95 6.5 -4.85 6.4 -5.2 M4.55 -7.35 L4.35 -6.85 3.9 -6.7 3.95 -6.95 3.65 -7.3 4.15 -7.1 4.55 -7.35 M4.25 -6.05 L4.15 -6.35 4.0 -6.35 Q4.4 -6.35 4.75 -6.65 L4.25 -6.05 M5.4 -9.95 L5.1 -10.15 5.5 -10.0 5.8 -9.95 5.6 -9.65 5.4 -9.95 M6.3 -10.35 L6.35 -10.25 7.05 -10.45 6.35 -9.95 6.3 -10.35" fill="#80a42f" fill-rule="evenodd" stroke="none"/>
    <path d="M7.5 -6.65 L7.75 -6.75 Q7.95 -7.0 7.6 -7.3 7.3 -7.6 7.05 -7.3 L6.95 -7.05 7.15 -6.8 Q7.3 -6.65 7.5 -6.65 M8.25 -8.25 Q8.7 -7.95 8.9 -7.95 L9.05 -8.2 9.0 -8.45 7.6 -8.6 8.25 -8.25 M4.95 -5.6 Q5.2 -5.4 5.55 -5.75 5.85 -6.1 5.6 -6.3 5.35 -6.5 5.05 -6.15 4.7 -5.75 4.95 -5.6 M5.6 -9.65 L5.6 -9.5 5.4 -9.25 5.1 -9.95 4.6 -10.0 5.0 -10.1 5.1 -10.15 5.4 -9.95 5.6 -9.65 5.8 -9.95 5.95 -10.0 Q5.85 -10.0 5.85 -10.3 L5.85 -10.55 6.3 -10.35 6.35 -9.95 7.05 -10.45 9.15 -10.4 9.2 -9.85 8.8 -9.5 Q9.3 -9.45 9.65 -9.8 L9.65 -9.75 9.75 -9.7 10.05 -9.3 Q10.25 -9.1 10.05 -8.95 9.85 -8.65 9.4 -8.65 L9.75 -8.65 10.2 -8.15 Q10.4 -7.9 10.25 -7.55 10.2 -7.45 10.0 -7.45 L9.6 -7.45 10.0 -7.25 10.05 -6.9 Q9.8 -6.55 9.35 -6.7 L8.6 -7.1 9.15 -6.55 Q9.45 -6.2 9.2 -5.85 9.05 -5.6 8.65 -5.75 8.25 -5.9 8.15 -6.25 L8.2 -5.9 8.15 -5.65 7.65 -5.55 7.35 -5.85 6.5 -5.75 6.45 -5.85 6.4 -6.05 Q5.35 -4.65 4.45 -5.3 L4.5 -5.6 4.45 -5.9 4.1 -5.6 3.95 -5.35 Q3.5 -5.5 3.8 -5.75 L4.25 -6.0 4.25 -6.05 4.75 -6.65 Q4.4 -6.35 4.0 -6.35 L3.5 -6.55 Q3.35 -6.7 3.85 -6.65 L3.9 -6.7 4.35 -6.85 4.55 -7.35 4.15 -7.1 3.65 -7.3 3.55 -7.55 Q3.4 -8.05 3.6 -8.4 L3.65 -7.9 Q3.8 -7.7 4.05 -7.75 4.35 -7.7 4.55 -8.15 4.45 -7.85 4.7 -7.75 L5.2 -7.8 5.15 -7.4 5.15 -7.05 5.45 -7.0 5.7 -7.25 5.8 -6.75 Q6.25 -6.65 6.4 -7.1 6.55 -7.5 6.25 -7.8 L6.75 -7.75 7.25 -7.9 Q7.4 -8.15 7.15 -8.4 L6.55 -8.65 7.35 -8.8 Q7.8 -8.95 7.6 -9.25 L7.35 -9.4 7.0 -9.35 7.4 -9.6 7.35 -9.95 6.65 -9.9 6.0 -9.4 6.0 -9.55 6.0 -9.75 5.6 -9.5 5.6 -9.65" fill="#a3cb56" fill-rule="evenodd" stroke="none"/>
    <path d="M7.6 -7.3 Q7.95 -7.0 7.75 -6.75 L7.5 -6.65 Q7.3 -6.65 7.15 -6.8 L6.95 -7.05 7.05 -7.3 Q7.3 -7.6 7.6 -7.3 M7.6 -8.6 L9.0 -8.45 9.05 -8.2 8.9 -7.95 Q8.7 -7.95 8.25 -8.25 L7.6 -8.6 M4.95 -5.6 Q4.7 -5.75 5.05 -6.15 5.35 -6.5 5.6 -6.3 5.85 -6.1 5.55 -5.75 5.2 -5.4 4.95 -5.6 M6.0 -9.4 L6.65 -9.9 7.35 -9.95 7.4 -9.6 7.0 -9.35 7.35 -9.4 7.6 -9.25 Q7.8 -8.95 7.35 -8.8 L6.55 -8.65 7.15 -8.4 Q7.4 -8.15 7.25 -7.9 L6.75 -7.75 6.25 -7.8 Q6.55 -7.5 6.4 -7.1 6.25 -6.65 5.8 -6.75 L5.7 -7.25 5.45 -7.0 5.15 -7.05 5.15 -7.4 5.2 -7.8 4.7 -7.75 Q4.45 -7.85 4.55 -8.15 4.35 -7.7 4.05 -7.75 3.8 -7.7 3.65 -7.9 L3.6 -8.4 3.95 -8.85 4.2 -9.5 4.6 -10.0 5.1 -9.95 5.4 -9.25 5.6 -9.5 5.6 -9.65 5.6 -9.5 6.0 -9.75 6.0 -9.55 6.0 -9.4" fill="#d4f689" fill-rule="evenodd" stroke="none"/>
  </g>
</svg>
