<?xml version="1.0" encoding="UTF-8" standalone="no"?>
<svg xmlns:ffdec="https://www.free-decompiler.com/flash" xmlns:xlink="http://www.w3.org/1999/xlink" ffdec:objectType="shape" height="47.1px" width="47.1px" xmlns="http://www.w3.org/2000/svg">
  <g transform="matrix(1.0, 0.0, 0.0, 1.0, 23.55, 23.55)">
    <path d="M0.0 -23.55 Q4.8 -23.55 9.15 -21.65 13.35 -19.9 16.6 -16.65 19.9 -13.35 21.65 -9.15 23.55 -4.8 23.55 0.0 23.55 4.8 21.65 9.2 19.9 13.35 16.6 16.65 13.35 19.9 9.15 21.7 4.8 23.55 0.0 23.55 -4.8 23.55 -9.15 21.7 -13.35 19.9 -16.65 16.65 -19.9 13.35 -21.65 9.2 -23.55 4.8 -23.55 0.0 -23.55 -4.8 -21.65 -9.15 -19.9 -13.35 -16.65 -16.65 -13.35 -19.9 -9.15 -21.65 -4.8 -23.55 0.0 -23.55 M19.8 0.0 Q19.8 -8.2 13.95 -14.05 8.2 -19.8 0.0 -19.8 -8.2 -19.8 -14.05 -14.05 -19.8 -8.2 -19.8 0.0 -19.8 8.2 -14.05 14.0 -8.2 19.8 0.0 19.8 8.2 19.8 13.95 14.0 19.8 8.2 19.8 0.0" fill="#82b6e2" fill-rule="evenodd" stroke="none"/>
    <path d="M19.8 0.0 Q19.8 8.2 13.95 14.0 8.2 19.8 0.0 19.8 -8.2 19.8 -14.05 14.0 -19.8 8.2 -19.8 0.0 -19.8 -8.2 -14.05 -14.05 -8.2 -19.8 0.0 -19.8 8.2 -19.8 13.95 -14.05 19.8 -8.2 19.8 0.0" fill="#ffffff" fill-rule="evenodd" stroke="none"/>
  </g>
</svg>
