<?xml version="1.0" encoding="UTF-8" standalone="no"?>
<svg xmlns:ffdec="https://www.free-decompiler.com/flash" xmlns:xlink="http://www.w3.org/1999/xlink" ffdec:objectType="shape" height="38.5px" width="38.5px" xmlns="http://www.w3.org/2000/svg">
  <g transform="matrix(1.0, 0.0, 0.0, 1.0, 19.25, 19.25)">
    <path d="M7.45 -17.75 Q10.95 -16.3 13.6 -13.65 16.3 -10.95 17.75 -7.45 19.25 -3.9 19.25 0.0 19.25 3.9 17.75 7.5 16.3 10.95 13.6 13.65 10.95 16.3 7.45 17.75 3.9 19.25 0.0 19.25 -3.9 19.25 -7.45 17.75 -10.95 16.3 -13.65 13.65 -16.3 10.95 -17.75 7.5 -19.25 3.9 -19.25 0.0 -19.25 -3.9 -17.75 -7.45 -16.3 -10.95 -13.65 -13.65 -10.95 -16.3 -7.45 -17.75 -3.9 -19.25 0.0 -19.25 3.9 -19.25 7.45 -17.75" fill="#82b6e2" fill-rule="evenodd" stroke="none"/>
    <path d="M9.25 -8.45 L9.0 -7.8 8.1 -6.8 6.25 -5.5 5.6 -5.3 4.8 -5.3 2.0 -5.65 Q1.6 -5.75 1.2 -6.35 L0.65 -7.3 0.25 -8.35 0.05 -9.4 -0.1 -10.4 0.0 -11.4 0.55 -12.5 0.55 -11.55 0.7 -10.6 0.9 -9.35 1.3 -8.55 1.8 -7.55 Q2.2 -7.0 2.65 -6.85 L5.45 -6.55 6.5 -6.6 6.75 -6.65 6.85 -6.7 6.9 -6.7 7.35 -6.95 7.45 -7.05 7.7 -7.2 9.25 -8.45" fill="#000000" fill-rule="evenodd" stroke="none"/>
    <path d="M-16.2 -3.05 L-15.5 -4.5 -15.55 -4.25 Q-15.85 -3.55 -15.75 -2.45 L-15.4 -0.6 -15.2 0.8 -15.2 0.85 -15.1 1.35 -15.0 1.6 -14.3 3.1 -13.4 4.85 Q-12.7 5.9 -11.95 6.1 L-6.85 6.7 -5.1 6.65 -5.05 7.65 -7.5 7.9 -12.6 7.3 Q-13.35 7.1 -14.0 6.1 L-14.95 4.35 -15.75 2.45 -16.05 0.6 -16.35 -1.25 Q-16.5 -2.35 -16.2 -3.05" fill="#000000" fill-rule="evenodd" stroke="none"/>
    <path d="M-5.05 7.65 L-5.1 6.65 -5.0 6.6 -4.5 6.5 -4.45 6.45 Q-4.3 10.7 -3.85 11.3 L-2.7 12.2 -1.05 13.2 0.7 14.05 3.05 14.6 5.05 14.4 5.8 14.3 5.9 14.3 6.75 14.25 7.65 14.15 7.7 14.15 8.55 14.05 8.65 14.05 10.35 13.8 10.4 13.8 11.1 13.65 11.15 13.6 11.85 13.45 13.05 12.95 13.2 12.75 12.45 14.15 Q11.6 14.85 7.7 15.3 L2.4 15.8 Q1.05 15.95 -1.6 14.5 -3.95 13.2 -4.45 12.5 -4.85 12.0 -5.05 7.65" fill="#000000" fill-rule="evenodd" stroke="none"/>
    <path d="M3.6 -6.9 L4.85 -6.95 5.2 -7.25 4.8 -7.7 3.75 -8.05 2.7 -8.05 Q2.25 -7.95 2.2 -7.7 2.2 -7.5 2.35 -7.35 2.8 -6.95 3.6 -6.9 M3.85 -14.9 Q3.45 -15.2 2.9 -14.9 2.3 -14.55 2.4 -14.1 L2.45 -13.95 2.9 -13.7 3.55 -13.8 3.95 -14.3 3.95 -14.8 3.85 -14.9 M9.35 -10.8 L8.85 -10.05 8.65 -9.2 Q8.65 -8.8 8.8 -8.75 9.0 -8.7 9.3 -8.95 L9.75 -9.7 Q10.15 -10.55 9.9 -10.9 L9.8 -11.0 Q9.6 -11.05 9.35 -10.8 M8.1 -10.4 L7.6 -10.6 6.95 -10.25 6.6 -9.65 Q6.5 -9.3 6.7 -9.1 L6.95 -8.95 Q7.4 -8.75 7.9 -9.25 8.3 -9.6 8.3 -10.05 L8.1 -10.4 M8.45 -14.6 L9.45 -13.6 10.15 -12.75 9.9 -13.05 9.75 -13.1 9.55 -13.0 Q9.3 -12.8 9.35 -12.25 9.5 -11.65 9.85 -11.65 L10.0 -11.6 10.2 -11.75 10.2 -10.8 10.05 -10.15 9.65 -9.0 9.25 -8.45 7.7 -7.2 Q7.9 -7.65 7.7 -7.95 L7.65 -8.05 7.1 -8.25 6.4 -8.05 5.9 -7.45 Q5.75 -7.1 5.9 -6.85 L5.9 -6.8 Q6.1 -6.6 6.3 -6.55 L5.45 -6.55 2.65 -6.85 Q2.2 -7.0 1.8 -7.55 L1.3 -8.55 1.2 -8.75 Q1.4 -8.5 1.6 -8.55 L1.75 -8.65 Q2.0 -9.0 1.85 -9.65 1.65 -10.45 1.25 -10.5 L1.15 -10.5 Q0.85 -10.45 0.85 -9.8 L0.7 -10.6 0.55 -11.55 0.55 -12.5 0.65 -12.75 Q0.6 -12.45 0.75 -12.4 L0.85 -12.35 1.65 -12.95 Q2.0 -13.45 1.95 -13.8 L1.85 -14.0 1.3 -13.8 1.95 -14.55 Q3.0 -15.45 3.7 -15.8 L4.95 -15.85 5.8 -15.65 5.2 -15.8 Q4.3 -15.85 4.25 -15.55 L4.25 -15.45 Q4.4 -15.0 6.05 -14.7 L7.4 -14.55 Q8.0 -14.55 8.05 -14.8 L8.05 -14.9 8.45 -14.6 M8.85 -13.0 L8.8 -13.45 8.5 -13.95 7.85 -14.0 7.85 -13.95 Q7.65 -13.45 8.15 -12.95 L8.75 -12.85 8.85 -13.0" fill="#e9d884" fill-rule="evenodd" stroke="none"/>
    <path d="M8.75 -12.85 Q8.05 -13.25 7.85 -14.0 L8.5 -13.95 8.8 -13.45 8.85 -13.0 8.75 -12.85" fill="#e1c963" fill-rule="evenodd" stroke="none"/>
    <path d="M7.8 -15.05 L8.05 -14.9 8.05 -14.8 Q8.0 -14.55 7.4 -14.55 5.8 -15.55 4.25 -15.45 L4.25 -15.55 Q4.3 -15.85 5.2 -15.8 L7.8 -15.05" fill="#e1c963" fill-rule="evenodd" stroke="none"/>
    <path d="M9.75 -13.1 L9.9 -13.05 10.15 -12.75 10.15 -12.7 10.2 -11.75 10.0 -11.6 9.85 -11.65 9.55 -13.0 9.75 -13.1" fill="#e1c963" fill-rule="evenodd" stroke="none"/>
    <path d="M8.8 -8.75 Q8.95 -10.2 9.9 -10.9 10.15 -10.55 9.75 -9.7 L9.3 -8.95 Q9.0 -8.7 8.8 -8.75" fill="#e1c963" fill-rule="evenodd" stroke="none"/>
    <path d="M0.65 -12.75 L1.25 -13.75 1.85 -14.0 1.95 -13.8 Q1.2 -13.35 0.85 -12.35 L0.75 -12.4 Q0.6 -12.45 0.65 -12.75" fill="#e1c963" fill-rule="evenodd" stroke="none"/>
    <path d="M2.5 -7.55 Q4.0 -7.9 4.85 -6.95 L3.6 -6.9 Q2.8 -6.95 2.35 -7.35 L2.4 -7.5 2.5 -7.55" fill="#e1c963" fill-rule="evenodd" stroke="none"/>
    <path d="M2.5 -14.05 L2.4 -14.1 Q2.3 -14.55 2.9 -14.9 3.45 -15.2 3.85 -14.9 L3.7 -14.55 Q3.1 -13.85 2.5 -14.05" fill="#e1c963" fill-rule="evenodd" stroke="none"/>
    <path d="M7.6 -10.3 Q8.05 -10.4 8.3 -10.05 8.3 -9.6 7.9 -9.25 7.4 -8.75 6.95 -8.95 6.7 -9.3 6.85 -9.8 7.15 -10.2 7.6 -10.3" fill="#e1c963" fill-rule="evenodd" stroke="none"/>
    <path d="M7.65 -8.05 L7.7 -7.95 Q7.9 -7.65 7.7 -7.2 L7.45 -7.05 7.35 -6.95 6.85 -6.7 6.75 -6.65 6.3 -6.55 Q6.1 -6.6 5.9 -6.8 L5.9 -6.85 Q7.05 -7.0 7.65 -8.05" fill="#e1c963" fill-rule="evenodd" stroke="none"/>
    <path d="M0.9 -9.35 L0.85 -9.8 Q0.85 -10.45 1.15 -10.5 L1.25 -10.5 Q1.1 -9.6 1.75 -8.65 L1.6 -8.55 Q1.4 -8.5 1.2 -8.75 L0.9 -9.35" fill="#e1c963" fill-rule="evenodd" stroke="none"/>
    <path d="M9.55 -13.0 L9.85 -11.65 Q9.5 -11.65 9.35 -12.25 9.3 -12.8 9.55 -13.0" fill="#bfa95b" fill-rule="evenodd" stroke="none"/>
    <path d="M7.4 -14.55 L6.05 -14.7 Q4.4 -15.0 4.25 -15.45 5.8 -15.55 7.4 -14.55" fill="#bfa95b" fill-rule="evenodd" stroke="none"/>
    <path d="M8.85 -10.05 L9.35 -10.8 Q9.6 -11.05 9.8 -11.0 L9.9 -10.9 Q8.95 -10.2 8.8 -8.75 8.65 -8.8 8.65 -9.2 L8.85 -10.05" fill="#bfa95b" fill-rule="evenodd" stroke="none"/>
    <path d="M6.95 -10.25 L7.6 -10.6 8.1 -10.4 8.3 -10.05 Q8.05 -10.4 7.6 -10.3 7.15 -10.2 6.85 -9.8 6.7 -9.3 6.95 -8.95 L6.7 -9.1 Q6.5 -9.3 6.6 -9.65 L6.95 -10.25" fill="#bfa95b" fill-rule="evenodd" stroke="none"/>
    <path d="M3.85 -14.9 L3.95 -14.8 3.95 -14.3 3.55 -13.8 2.9 -13.7 2.45 -13.95 2.4 -14.1 2.5 -14.05 Q3.1 -13.85 3.7 -14.55 L3.85 -14.9" fill="#bfa95b" fill-rule="evenodd" stroke="none"/>
    <path d="M8.15 -12.95 Q7.65 -13.45 7.85 -13.95 L7.85 -14.0 Q8.05 -13.25 8.75 -12.85 L8.15 -12.95" fill="#bfa95b" fill-rule="evenodd" stroke="none"/>
    <path d="M3.75 -8.05 L4.8 -7.7 5.2 -7.25 4.85 -6.95 Q4.0 -7.9 2.5 -7.55 L2.4 -7.5 2.35 -7.35 Q2.2 -7.5 2.2 -7.7 2.25 -7.95 2.7 -8.05 L3.75 -8.05" fill="#bfa95b" fill-rule="evenodd" stroke="none"/>
    <path d="M1.75 -8.65 Q1.1 -9.6 1.25 -10.5 1.65 -10.45 1.85 -9.65 2.0 -9.0 1.75 -8.65" fill="#bfa95b" fill-rule="evenodd" stroke="none"/>
    <path d="M7.65 -8.05 Q7.05 -7.0 5.9 -6.85 5.75 -7.1 5.9 -7.45 L6.4 -8.05 7.1 -8.25 7.65 -8.05" fill="#bfa95b" fill-rule="evenodd" stroke="none"/>
    <path d="M0.85 -12.35 Q1.2 -13.35 1.95 -13.8 2.0 -13.45 1.65 -12.95 L0.85 -12.35" fill="#bfa95b" fill-rule="evenodd" stroke="none"/>
    <path d="M1.6 -4.35 L1.7 -2.95 1.6 -4.35" fill="#f2bb86" fill-rule="evenodd" stroke="none"/>
    <path d="M-12.75 4.65 L-12.45 5.25 Q-11.7 5.85 -10.2 6.1 L-7.95 5.95 -7.35 5.45 Q-7.25 5.0 -8.05 4.55 -8.8 4.15 -9.9 4.0 -11.0 3.8 -11.85 4.0 -12.7 4.2 -12.75 4.65 M-12.25 -6.65 Q-12.05 -6.25 -11.45 -6.15 L-10.35 -6.4 Q-9.8 -6.7 -9.55 -7.2 -9.35 -7.7 -9.55 -8.1 L-9.75 -8.35 -10.5 -8.6 -11.45 -8.35 -12.15 -7.65 -12.3 -6.85 -12.25 -6.65 M-2.15 -8.15 L-2.2 -8.35 -1.45 -7.8 0.3 -6.0 1.55 -4.45 1.1 -5.05 0.8 -5.05 0.5 -4.95 Q0.0 -4.5 0.15 -3.55 0.3 -3.0 0.6 -2.7 L-1.05 -2.2 Q-1.55 -1.95 -2.45 -0.5 L-3.3 -0.5 -4.2 0.0 Q-4.7 0.45 -4.8 1.1 -4.95 1.7 -4.6 2.1 L-4.25 2.35 -3.95 2.4 -4.4 3.7 -5.15 4.0 Q-5.8 4.4 -6.1 5.05 -6.35 5.65 -6.1 6.15 L-6.05 6.2 -5.35 6.7 -6.85 6.7 -11.95 6.1 Q-12.7 5.9 -13.4 4.85 L-14.3 3.1 -14.5 2.8 -13.8 3.05 -13.5 2.85 Q-13.05 2.25 -13.3 1.1 -13.45 0.45 -13.8 0.05 L-14.45 -0.45 -14.6 -0.45 Q-15.2 -0.3 -15.2 0.8 L-15.4 -0.6 -15.75 -2.45 Q-15.85 -3.55 -15.55 -4.25 L-15.5 -4.5 -15.45 -4.5 Q-15.6 -3.95 -15.35 -3.8 L-15.1 -3.75 Q-14.5 -3.75 -13.75 -4.85 -13.1 -5.75 -13.15 -6.35 L-13.3 -6.7 Q-13.7 -6.95 -14.4 -6.3 L-15.35 -4.65 Q-14.6 -6.4 -13.15 -7.7 -11.3 -9.3 -10.05 -9.95 L-7.85 -10.1 -6.45 -9.75 -7.3 -9.95 Q-9.0 -10.0 -9.1 -9.5 L-9.1 -9.35 Q-8.95 -9.0 -8.0 -8.6 -7.1 -8.2 -5.8 -7.95 L-3.35 -7.75 Q-2.25 -7.8 -2.15 -8.15 M-2.55 -6.65 L-2.6 -6.55 -2.55 -5.7 -2.0 -4.85 Q-1.35 -4.2 -0.95 -4.65 L-0.8 -4.85 Q-0.65 -5.2 -0.85 -5.7 -1.0 -6.25 -1.4 -6.6 L-2.05 -6.95 -2.55 -6.65" fill="#f2bb86" fill-rule="evenodd" stroke="none"/>
    <path d="M1.55 -4.45 L1.6 -4.35 1.7 -2.95 1.35 -2.9 1.2 -2.85 1.05 -2.8 Q1.05 -4.1 0.5 -4.95 L0.8 -5.05 1.1 -5.05 1.55 -4.45" fill="#e9a265" fill-rule="evenodd" stroke="none"/>
    <path d="M-9.1 -9.5 Q-9.0 -10.0 -7.3 -9.95 -4.5 -9.4 -2.65 -8.6 L-2.25 -8.4 -2.2 -8.35 -2.15 -8.15 Q-2.25 -7.8 -3.35 -7.75 -6.15 -9.5 -9.1 -9.35 L-9.1 -9.5" fill="#e9a265" fill-rule="evenodd" stroke="none"/>
    <path d="M-14.6 -0.45 L-14.45 -0.45 Q-14.65 1.25 -13.5 2.85 L-13.8 3.05 Q-14.15 3.15 -14.5 2.75 L-15.0 1.6 -15.1 1.35 -15.2 0.85 -15.2 0.8 Q-15.2 -0.3 -14.6 -0.45" fill="#e9a265" fill-rule="evenodd" stroke="none"/>
    <path d="M-12.2 4.85 Q-11.05 4.6 -9.9 4.85 -8.7 5.1 -7.95 5.9 L-7.95 5.95 -10.2 6.1 Q-11.7 5.85 -12.45 5.25 L-12.35 4.95 -12.2 4.85" fill="#e9a265" fill-rule="evenodd" stroke="none"/>
    <path d="M-12.3 -6.85 L-12.15 -7.65 -11.45 -8.35 -10.5 -8.6 -9.75 -8.35 -10.0 -7.7 Q-11.1 -6.45 -12.2 -6.8 L-12.3 -6.85" fill="#e9a265" fill-rule="evenodd" stroke="none"/>
    <path d="M-2.7 -0.15 L-3.95 2.4 -4.25 2.35 Q-4.7 1.65 -4.35 0.8 -3.8 0.1 -3.1 -0.05 L-2.7 -0.15" fill="#e9a265" fill-rule="evenodd" stroke="none"/>
    <path d="M-2.55 -6.65 L-2.05 -6.95 -1.4 -6.6 Q-1.0 -6.25 -0.85 -5.7 -0.65 -5.2 -0.8 -4.85 L-0.95 -4.65 Q-2.15 -5.35 -2.55 -6.65" fill="#e9a265" fill-rule="evenodd" stroke="none"/>
    <path d="M-15.35 -3.8 Q-15.6 -3.95 -15.45 -4.5 L-14.4 -6.3 Q-13.7 -6.95 -13.3 -6.7 L-13.15 -6.35 Q-14.5 -5.5 -15.1 -3.75 L-15.35 -3.8" fill="#e9a265" fill-rule="evenodd" stroke="none"/>
    <path d="M-4.45 5.5 L-4.45 6.45 -4.5 6.5 -5.0 6.6 -5.35 6.7 -6.05 6.2 -6.1 6.15 Q-5.25 6.05 -4.45 5.5" fill="#e9a265" fill-rule="evenodd" stroke="none"/>
    <path d="M-9.1 -9.35 Q-6.15 -9.5 -3.35 -7.75 L-5.8 -7.95 Q-7.1 -8.2 -8.0 -8.6 -8.95 -9.0 -9.1 -9.35" fill="#c7865c" fill-rule="evenodd" stroke="none"/>
    <path d="M-12.2 4.85 L-12.35 4.95 -12.45 5.25 -12.75 4.65 Q-12.7 4.2 -11.85 4.0 -11.0 3.8 -9.9 4.0 -8.8 4.15 -8.05 4.55 -7.25 5.0 -7.35 5.45 L-7.95 5.95 -7.95 5.9 Q-8.7 5.1 -9.9 4.85 -11.05 4.6 -12.2 4.85" fill="#c7865c" fill-rule="evenodd" stroke="none"/>
    <path d="M-2.45 -0.5 L-2.7 -0.15 -3.1 -0.05 Q-3.8 0.1 -4.35 0.8 -4.7 1.65 -4.25 2.35 L-4.6 2.1 Q-4.95 1.7 -4.8 1.1 -4.7 0.45 -4.2 0.0 L-3.3 -0.5 -2.45 -0.5" fill="#c7865c" fill-rule="evenodd" stroke="none"/>
    <path d="M-15.1 -3.75 Q-14.5 -5.5 -13.15 -6.35 -13.1 -5.75 -13.75 -4.85 -14.5 -3.75 -15.1 -3.75" fill="#c7865c" fill-rule="evenodd" stroke="none"/>
    <path d="M-2.55 -6.65 Q-2.15 -5.35 -0.95 -4.65 -1.35 -4.2 -2.0 -4.85 L-2.55 -5.7 -2.6 -6.55 -2.55 -6.65" fill="#c7865c" fill-rule="evenodd" stroke="none"/>
    <path d="M1.05 -2.8 L0.7 -2.7 0.6 -2.7 Q0.3 -3.0 0.15 -3.55 0.0 -4.5 0.5 -4.95 1.05 -4.1 1.05 -2.8" fill="#c7865c" fill-rule="evenodd" stroke="none"/>
    <path d="M-11.45 -6.15 Q-12.05 -6.25 -12.25 -6.65 L-12.3 -6.85 -12.2 -6.8 Q-11.1 -6.45 -10.0 -7.7 L-9.75 -8.35 -9.55 -8.1 Q-9.35 -7.7 -9.55 -7.2 -9.8 -6.7 -10.35 -6.4 L-11.45 -6.15" fill="#c7865c" fill-rule="evenodd" stroke="none"/>
    <path d="M-13.5 2.85 Q-14.65 1.25 -14.45 -0.45 L-13.8 0.05 Q-13.45 0.45 -13.3 1.1 -13.05 2.25 -13.5 2.85" fill="#c7865c" fill-rule="evenodd" stroke="none"/>
    <path d="M-4.45 5.5 Q-5.25 6.05 -6.1 6.15 -6.35 5.65 -6.1 5.05 -5.8 4.4 -5.15 4.0 L-4.4 3.7 -4.45 3.85 -4.45 5.5" fill="#c7865c" fill-rule="evenodd" stroke="none"/>
    <path d="M2.9 10.2 L1.8 10.35 Q1.3 10.6 1.2 11.15 L1.25 12.0 Q1.6 12.65 2.25 12.8 3.25 13.0 3.75 12.25 L3.95 11.85 Q4.1 11.3 3.75 10.8 L2.9 10.2 M-3.7 6.2 L-3.85 6.2 Q-4.3 6.35 -4.15 7.75 L-3.95 9.2 Q-3.7 9.85 -3.45 9.95 L-3.4 9.95 -3.25 9.95 Q-2.9 9.75 -3.0 8.45 -3.1 6.7 -3.65 6.25 L-3.7 6.2 M-2.85 1.85 Q-3.35 2.25 -3.65 2.95 -3.95 3.65 -3.85 4.3 -3.75 4.9 -3.3 5.1 L-3.2 5.15 -2.3 4.9 -1.5 3.85 Q-1.25 3.15 -1.35 2.55 -1.4 2.0 -1.75 1.75 L-1.85 1.7 -2.85 1.85 M1.1 2.1 L2.1 1.25 Q2.65 0.4 2.35 -0.35 L1.85 -1.0 0.7 -1.05 -0.3 -0.25 Q-0.7 0.5 -0.6 1.15 L0.0 2.0 1.1 2.1 M13.6 8.25 Q13.3 8.25 12.9 8.65 L12.3 9.65 Q11.8 10.9 12.1 11.5 L12.35 11.7 Q12.6 11.85 13.05 11.4 L13.75 10.3 14.05 9.0 13.75 8.25 13.6 8.25 M12.3 2.45 Q11.6 2.55 11.15 3.15 10.65 3.8 10.65 4.7 10.65 5.55 11.15 6.2 11.65 6.85 12.35 6.95 L12.5 6.95 Q13.3 6.95 13.8 6.3 14.35 5.6 14.35 4.7 14.35 3.75 13.8 3.1 13.25 2.4 12.5 2.4 L12.3 2.45 M12.0 -2.35 L11.9 -2.35 11.8 -2.0 Q11.8 -1.4 12.15 -0.7 L12.75 0.25 13.3 0.5 13.45 0.15 15.25 4.0 Q15.5 4.7 14.8 8.1 14.05 11.7 13.2 12.75 L13.05 12.95 11.85 13.45 11.9 13.25 Q11.85 12.85 11.15 12.65 L8.2 12.5 Q7.0 12.6 6.1 13.0 L4.9 13.75 4.8 14.05 5.05 14.4 3.05 14.6 0.7 14.05 1.3 13.85 1.35 13.85 Q1.45 13.55 0.95 13.05 0.45 12.6 -0.35 12.2 -1.8 11.5 -2.45 11.7 L-2.75 11.9 -2.7 12.2 -3.85 11.3 Q-4.3 10.7 -4.45 6.45 L-4.45 5.5 -4.45 3.85 -4.4 3.7 -3.95 2.4 -2.7 -0.15 -2.45 -0.5 Q-1.55 -1.95 -1.05 -2.2 L-0.15 -2.5 -0.15 -2.35 0.3 -1.95 2.55 -1.9 4.3 -2.45 Q5.0 -2.8 4.95 -3.15 L4.75 -3.45 4.3 -3.6 Q9.1 -4.7 10.05 -4.4 10.7 -4.25 12.0 -2.35 M8.0 -3.55 Q7.85 -3.15 8.15 -2.75 8.45 -2.3 9.0 -2.1 L9.9 -1.95 Q10.4 -2.0 10.55 -2.3 L10.65 -2.4 10.5 -3.2 9.7 -3.85 Q8.8 -4.2 8.3 -3.85 L8.0 -3.55" fill="#d4e183" fill-rule="evenodd" stroke="none"/>
    <path d="M12.15 -0.7 Q11.8 -1.4 11.8 -2.0 12.85 -0.8 13.3 0.5 L12.75 0.25 12.15 -0.7" fill="#acc160" fill-rule="evenodd" stroke="none"/>
    <path d="M9.0 -2.1 Q8.45 -2.3 8.15 -2.75 7.85 -3.15 8.0 -3.55 L8.3 -3.85 Q8.85 -2.95 10.55 -2.3 10.4 -2.0 9.9 -1.95 L9.0 -2.1" fill="#acc160" fill-rule="evenodd" stroke="none"/>
    <path d="M12.3 9.65 L12.9 8.65 Q13.3 8.25 13.6 8.25 13.05 10.45 12.1 11.5 11.8 10.9 12.3 9.65" fill="#acc160" fill-rule="evenodd" stroke="none"/>
    <path d="M1.8 10.35 L2.9 10.2 3.75 10.8 Q4.1 11.3 3.95 11.85 L3.75 12.25 Q4.05 11.45 3.4 10.9 3.0 10.55 2.2 10.6 1.3 10.95 1.25 12.0 L1.2 11.15 Q1.3 10.6 1.8 10.35" fill="#acc160" fill-rule="evenodd" stroke="none"/>
    <path d="M2.1 1.25 L1.1 2.1 0.0 2.0 -0.6 1.15 0.0 1.75 Q0.85 2.0 1.75 1.1 2.3 0.5 2.35 -0.35 2.65 0.4 2.1 1.25" fill="#acc160" fill-rule="evenodd" stroke="none"/>
    <path d="M-3.65 6.25 Q-3.1 6.7 -3.0 8.45 -2.9 9.75 -3.25 9.95 -4.0 7.8 -3.85 6.2 L-3.7 6.2 -3.65 6.25" fill="#acc160" fill-rule="evenodd" stroke="none"/>
    <path d="M8.2 12.5 L11.15 12.65 Q8.85 13.4 4.9 13.75 L6.1 13.0 Q7.0 12.6 8.2 12.5" fill="#acc160" fill-rule="evenodd" stroke="none"/>
    <path d="M11.2 4.15 Q11.1 5.05 11.45 5.85 11.75 6.55 12.35 6.95 11.65 6.85 11.15 6.2 10.65 5.55 10.65 4.7 10.65 3.8 11.15 3.15 11.6 2.55 12.3 2.45 11.35 2.9 11.2 4.15" fill="#acc160" fill-rule="evenodd" stroke="none"/>
    <path d="M1.35 13.85 L1.3 13.85 Q-1.35 12.75 -2.45 11.7 -1.8 11.5 -0.35 12.2 0.45 12.6 0.95 13.05 1.45 13.55 1.35 13.85" fill="#acc160" fill-rule="evenodd" stroke="none"/>
    <path d="M2.55 -1.9 L0.3 -1.95 Q2.4 -3.15 4.75 -3.45 L4.95 -3.15 Q5.0 -2.8 4.3 -2.45 L2.55 -1.9" fill="#acc160" fill-rule="evenodd" stroke="none"/>
    <path d="M-3.2 5.15 Q-2.05 3.6 -1.75 1.75 -1.4 2.0 -1.35 2.55 -1.25 3.15 -1.5 3.85 L-2.3 4.9 -3.2 5.15" fill="#acc160" fill-rule="evenodd" stroke="none"/>
    <path d="M10.55 -2.3 Q8.85 -2.95 8.3 -3.85 8.8 -4.2 9.7 -3.85 L10.5 -3.2 10.65 -2.4 10.55 -2.3" fill="#c7d763" fill-rule="evenodd" stroke="none"/>
    <path d="M12.7 -1.15 L12.75 -1.15 13.05 -0.55 13.1 -0.45 13.45 0.15 13.3 0.5 Q12.85 -0.8 11.8 -2.0 L11.9 -2.35 12.0 -2.35 12.7 -1.15" fill="#c7d763" fill-rule="evenodd" stroke="none"/>
    <path d="M13.75 8.25 L14.05 9.0 13.75 10.3 13.05 11.4 Q12.6 11.85 12.35 11.7 L12.1 11.5 Q13.05 10.45 13.6 8.25 L13.75 8.25" fill="#c7d763" fill-rule="evenodd" stroke="none"/>
    <path d="M12.5 2.4 Q13.25 2.4 13.8 3.1 14.35 3.75 14.35 4.7 14.35 5.6 13.8 6.3 13.3 6.95 12.5 6.95 L12.35 6.95 Q11.75 6.55 11.45 5.85 11.1 5.05 11.2 4.15 11.35 2.9 12.3 2.45 L12.5 2.4" fill="#c7d763" fill-rule="evenodd" stroke="none"/>
    <path d="M5.05 14.4 L4.8 14.05 4.9 13.75 Q8.85 13.4 11.15 12.65 11.85 12.85 11.9 13.25 L11.85 13.45 11.15 13.6 11.1 13.65 10.4 13.8 10.35 13.8 8.65 14.05 8.55 14.05 7.7 14.15 7.65 14.15 6.75 14.25 5.9 14.3 5.8 14.3 5.05 14.4" fill="#c7d763" fill-rule="evenodd" stroke="none"/>
    <path d="M1.3 13.85 L0.7 14.05 -0.35 13.6 -1.05 13.2 -2.7 12.2 -2.75 11.9 -2.45 11.7 Q-1.35 12.75 1.3 13.85" fill="#c7d763" fill-rule="evenodd" stroke="none"/>
    <path d="M3.4 10.9 Q4.05 11.45 3.75 12.25 3.25 13.0 2.25 12.8 1.6 12.65 1.25 12.0 1.3 10.95 2.2 10.6 3.0 10.55 3.4 10.9" fill="#c7d763" fill-rule="evenodd" stroke="none"/>
    <path d="M-3.85 6.2 Q-4.0 7.8 -3.25 9.95 L-3.4 9.95 -3.45 9.95 Q-3.7 9.85 -3.95 9.2 L-4.15 7.75 Q-4.3 6.35 -3.85 6.2" fill="#c7d763" fill-rule="evenodd" stroke="none"/>
    <path d="M1.35 -2.9 L2.4 -3.15 2.95 -3.3 3.05 -3.3 4.25 -3.6 4.3 -3.6 4.75 -3.45 Q2.4 -3.15 0.3 -1.95 L-0.15 -2.35 -0.15 -2.5 0.35 -2.6 0.7 -2.7 0.75 -2.7 1.2 -2.85 1.35 -2.9" fill="#c7d763" fill-rule="evenodd" stroke="none"/>
    <path d="M-3.3 5.1 Q-3.75 4.9 -3.85 4.3 -3.95 3.65 -3.65 2.95 -3.35 2.25 -2.85 1.85 L-1.85 1.7 -1.75 1.75 Q-2.05 3.6 -3.2 5.15 L-3.3 5.1" fill="#c7d763" fill-rule="evenodd" stroke="none"/>
    <path d="M0.0 1.75 L-0.6 1.15 Q-0.7 0.5 -0.3 -0.25 L0.7 -1.05 1.85 -1.0 2.35 -0.35 Q2.3 0.5 1.75 1.1 0.85 2.0 0.0 1.75" fill="#c7d763" fill-rule="evenodd" stroke="none"/>
  </g>
</svg>
