<?xml version="1.0" encoding="UTF-8" standalone="no"?>
<svg xmlns:ffdec="https://www.free-decompiler.com/flash" xmlns:xlink="http://www.w3.org/1999/xlink" ffdec:objectType="shape" height="48.8px" width="51.8px" xmlns="http://www.w3.org/2000/svg">
  <g transform="matrix(1.0, 0.0, 0.0, 1.0, 20.3, 17.25)">
    <path d="M-3.1 -14.0 L-3.1 -14.35 Q-3.0 -15.05 -2.25 -15.2 L6.7 -17.25 6.9 -17.25 7.5 -17.1 8.0 -16.45 9.5 -9.6 Q10.75 -10.75 12.5 -11.15 L14.05 -11.3 Q16.5 -11.3 18.35 -9.85 20.2 -8.35 20.75 -5.95 21.45 -3.2 19.85 -0.75 L19.4 -0.15 Q17.9 1.7 15.6 2.25 L14.05 2.45 12.2 2.15 12.4 3.0 13.75 8.95 13.6 9.75 13.0 10.25 12.9 10.3 -12.5 16.05 -12.7 16.05 Q-13.6 16.05 -13.8 15.25 L-19.55 -10.15 -19.55 -10.25 -19.35 -11.05 -18.7 -11.5 -9.75 -13.5 -9.55 -13.5 Q-8.9 -13.5 -8.6 -13.1 -8.2 -12.45 -8.65 -11.85 -9.9 -10.1 -9.4 -8.05 -9.05 -6.4 -7.75 -5.4 -6.45 -4.4 -4.85 -4.4 L-3.75 -4.45 Q-2.25 -4.85 -1.3 -5.95 0.3 -7.8 -0.25 -10.1 -0.7 -12.2 -2.55 -13.25 L-3.1 -14.0 M0.8 -10.4 Q1.35 -8.0 0.1 -6.0 -1.2 -3.95 -3.55 -3.45 -5.85 -2.9 -7.9 -4.15 -9.9 -5.5 -10.45 -7.8 -11.05 -10.4 -9.55 -12.45 L-18.5 -10.45 -12.7 14.95 12.7 9.2 10.65 0.25 Q12.8 1.8 15.35 1.2 17.7 0.65 18.95 -1.35 20.2 -3.4 19.75 -5.75 19.2 -8.05 17.15 -9.35 15.1 -10.65 12.8 -10.1 10.2 -9.5 8.95 -7.25 L6.9 -16.2 -2.05 -14.2 Q0.25 -12.9 0.8 -10.4" fill="#4c4c4c" fill-rule="evenodd" stroke="none"/>
    <path d="M0.8 -10.4 Q0.25 -12.9 -2.05 -14.2 L6.9 -16.2 8.95 -7.25 Q10.2 -9.5 12.8 -10.1 15.1 -10.65 17.15 -9.35 19.2 -8.05 19.75 -5.75 20.2 -3.4 18.95 -1.35 17.7 0.65 15.35 1.2 12.8 1.8 10.65 0.25 L12.7 9.2 -12.7 14.95 -18.5 -10.45 -9.55 -12.45 Q-11.05 -10.4 -10.45 -7.8 -9.9 -5.5 -7.9 -4.15 -5.85 -2.9 -3.55 -3.45 -1.2 -3.95 0.1 -6.0 1.35 -8.0 0.8 -10.4" fill="#ffffff" fill-rule="evenodd" stroke="none"/>
    <path d="M-3.1 -14.0 L-2.55 -13.25 Q-0.7 -12.2 -0.25 -10.1 0.3 -7.8 -1.3 -5.95 -0.6 -7.4 -0.95 -8.95 -1.45 -11.05 -3.3 -12.05 -3.95 -12.45 -3.85 -13.15 -3.75 -13.85 -3.1 -14.0 M-19.55 -10.25 L-19.55 -10.15 -13.8 15.25 Q-13.6 16.05 -12.7 16.05 L-12.5 16.05 12.9 10.3 13.0 10.25 12.8 11.0 12.2 11.45 -13.5 17.2 -14.15 16.95 -14.55 16.4 -20.25 -9.05 -20.15 -9.85 Q-20.0 -10.15 -19.55 -10.25 M12.4 3.0 L12.2 2.15 14.05 2.45 15.6 2.25 Q17.9 1.7 19.4 -0.15 L19.1 0.4 Q17.65 2.75 14.85 3.4 L13.3 3.6 12.5 3.55 12.4 3.0" fill="#231f20" fill-rule="evenodd" stroke="none"/>
    <path d="M23.2 7.6 L27.45 11.85 13.8 25.55 3.55 15.25 7.8 11.0 13.8 17.0 23.2 7.6" fill="#ffffff" fill-rule="evenodd" stroke="none"/>
    <path d="M29.15 15.1 Q29.15 20.65 25.25 24.6 21.3 28.5 15.75 28.5 10.2 28.5 6.3 24.6 2.4 20.65 2.4 15.1 2.4 9.55 6.3 5.65 10.2 1.7 15.75 1.7 21.3 1.7 25.25 5.65 29.15 9.55 29.15 15.1 M23.2 7.6 L13.8 17.0 7.8 11.0 3.55 15.25 13.8 25.55 27.45 11.85 23.2 7.6" fill="#59b6f2" fill-rule="evenodd" stroke="none"/>
    <path d="M29.15 15.1 Q29.15 9.55 25.25 5.65 21.3 1.7 15.75 1.7 10.2 1.7 6.3 5.65 2.4 9.55 2.4 15.1 2.4 20.65 6.3 24.6 10.2 28.5 15.75 28.5 21.3 28.5 25.25 24.6 29.15 20.65 29.15 15.1 M31.5 15.75 Q31.5 22.3 26.9 26.9 22.3 31.55 15.75 31.55 9.25 31.55 4.65 26.9 0.0 22.3 0.0 15.75 0.0 9.25 4.65 4.65 9.25 0.0 15.75 0.0 22.3 0.0 26.9 4.65 31.5 9.25 31.5 15.75" fill="#4a4eb0" fill-rule="evenodd" stroke="none"/>
  </g>
</svg>
