<?xml version="1.0" encoding="UTF-8" standalone="no"?>
<svg xmlns:ffdec="https://www.free-decompiler.com/flash" xmlns:xlink="http://www.w3.org/1999/xlink" ffdec:objectType="shape" height="38.5px" width="38.5px" xmlns="http://www.w3.org/2000/svg">
  <g transform="matrix(1.0, 0.0, 0.0, 1.0, 19.25, 19.25)">
    <path d="M7.45 -17.75 Q10.95 -16.3 13.6 -13.65 16.3 -10.95 17.75 -7.45 19.25 -3.9 19.25 0.0 19.25 3.9 17.75 7.5 16.3 10.95 13.6 13.65 10.95 16.3 7.45 17.75 3.9 19.25 0.0 19.25 -3.9 19.25 -7.45 17.75 -10.95 16.3 -13.65 13.65 -16.3 10.95 -17.75 7.5 -19.25 3.9 -19.25 0.0 -19.25 -3.9 -17.75 -7.45 -16.3 -10.95 -13.65 -13.65 -10.95 -16.3 -7.45 -17.75 -3.9 -19.25 0.0 -19.25 3.9 -19.25 7.45 -17.75 M11.45 -11.45 Q6.7 -16.2 0.0 -16.2 -6.7 -16.2 -11.45 -11.45 -16.2 -6.7 -16.2 0.0 -16.2 6.7 -11.45 11.45 -6.7 16.2 0.0 16.2 6.7 16.2 11.45 11.45 16.2 6.7 16.2 0.0 16.2 -6.7 11.45 -11.45 16.2 -6.7 16.2 0.0 16.2 6.7 11.45 11.45 6.7 16.2 0.0 16.2 -6.7 16.2 -11.45 11.45 -16.2 6.7 -16.2 0.0 -16.2 -6.7 -11.45 -11.45 -6.7 -16.2 0.0 -16.2 6.7 -16.2 11.45 -11.45" fill="#82b6e2" fill-rule="evenodd" stroke="none"/>
    <path d="M-2.5 -11.5 L-2.5 -11.75 Q-2.4 -12.35 -1.85 -12.45 L5.5 -14.15 5.7 -14.15 6.2 -14.0 6.6 -13.45 7.8 -7.9 Q8.85 -8.85 10.25 -9.15 L11.55 -9.3 Q13.5 -9.3 15.05 -8.05 16.55 -6.85 17.0 -4.85 17.55 -2.6 16.25 -0.65 L15.9 -0.15 Q14.7 1.4 12.8 1.85 L11.55 1.95 10.0 1.75 10.2 2.4 11.25 7.3 11.15 7.95 10.7 8.35 10.6 8.4 -10.2 13.15 -10.4 13.15 Q-11.1 13.15 -11.3 12.45 L-15.95 -8.35 -15.95 -8.4 -15.8 -9.05 Q-15.65 -9.3 -15.3 -9.4 L-7.95 -11.1 -7.75 -11.1 Q-7.25 -11.1 -7.0 -10.7 -6.7 -10.2 -7.05 -9.75 -8.1 -8.3 -7.7 -6.6 -7.35 -5.25 -6.35 -4.4 -5.25 -3.6 -3.95 -3.6 L-3.05 -3.65 Q-1.85 -3.95 -1.0 -4.85 0.3 -6.4 -0.15 -8.3 -0.55 -10.0 -2.05 -10.85 -2.45 -11.1 -2.5 -11.5 M0.7 -8.5 Q1.15 -6.6 0.1 -4.9 -0.95 -3.25 -2.85 -2.85 -4.75 -2.4 -6.4 -3.45 -8.1 -4.5 -8.55 -6.4 -9.05 -8.5 -7.75 -10.2 L-15.1 -8.55 -10.4 12.25 10.4 7.5 8.75 0.15 Q10.5 1.45 12.55 1.0 14.5 0.55 15.55 -1.15 16.55 -2.8 16.15 -4.75 15.7 -6.6 14.05 -7.65 12.4 -8.75 10.5 -8.3 8.4 -7.8 7.35 -5.95 L5.7 -13.3 -1.65 -11.6 Q0.25 -10.6 0.7 -8.5" fill="#4c4c4c" fill-rule="evenodd" stroke="none"/>
    <path d="M0.7 -8.5 Q0.25 -10.6 -1.65 -11.6 L5.7 -13.3 7.35 -5.95 Q8.4 -7.8 10.5 -8.3 12.4 -8.75 14.05 -7.65 15.7 -6.6 16.15 -4.75 16.55 -2.8 15.55 -1.15 14.5 0.55 12.55 1.0 10.5 1.45 8.75 0.15 L10.4 7.5 -10.4 12.25 -15.1 -8.55 -7.75 -10.2 Q-9.05 -8.5 -8.55 -6.4 -8.1 -4.5 -6.4 -3.45 -4.75 -2.4 -2.85 -2.85 -0.95 -3.25 0.1 -4.9 1.15 -6.6 0.7 -8.5" fill="#ffffff" fill-rule="evenodd" stroke="none"/>
    <path d="M-2.5 -11.5 Q-2.45 -11.1 -2.05 -10.85 -0.55 -10.0 -0.15 -8.3 0.3 -6.4 -1.0 -4.85 -0.5 -6.1 -0.75 -7.35 -1.15 -9.05 -2.7 -9.85 -3.2 -10.2 -3.15 -10.75 -3.05 -11.35 -2.5 -11.5 M-15.95 -8.4 L-15.95 -8.35 -11.3 12.45 Q-11.1 13.15 -10.4 13.15 L-10.2 13.15 10.6 8.4 10.7 8.35 10.5 9.0 10.0 9.35 -11.0 14.05 -11.55 13.85 -11.85 13.4 -16.55 -7.45 -16.45 -8.05 -15.95 -8.4 M10.2 2.4 L10.0 1.75 11.55 1.95 12.8 1.85 Q14.7 1.4 15.9 -0.15 L15.65 0.3 Q14.45 2.25 12.15 2.8 L10.9 2.9 10.25 2.85 10.2 2.4" fill="#231f20" fill-rule="evenodd" stroke="none"/>
  </g>
</svg>
