<?xml version="1.0" encoding="UTF-8" standalone="no"?>
<svg xmlns:ffdec="https://www.free-decompiler.com/flash" xmlns:xlink="http://www.w3.org/1999/xlink" ffdec:objectType="shape" height="42.8px" width="42.8px" xmlns="http://www.w3.org/2000/svg">
  <g transform="matrix(1.0, 0.0, 0.0, 1.0, 21.4, 21.4)">
    <path d="M15.1 -15.15 Q21.4 -8.85 21.4 0.0 21.4 8.85 15.1 15.15 8.85 21.4 0.0 21.4 -8.85 21.4 -15.15 15.15 -21.4 8.85 -21.4 0.0 -21.4 -8.85 -15.15 -15.15 -8.85 -21.4 0.0 -21.4 8.85 -21.4 15.1 -15.15" fill="#ffe86e" fill-rule="evenodd" stroke="none"/>
    <path d="M12.4 -4.25 Q13.3 -4.4 14.05 -3.85 14.75 -3.3 14.9 -2.4 L16.5 8.15 Q16.7 9.25 15.85 10.05 15.8 10.85 15.3 11.45 L13.95 12.2 3.45 13.8 Q2.55 13.9 1.8 13.35 1.05 12.8 0.9 11.9 L-0.65 1.4 Q-0.85 0.3 -0.05 -0.5 0.0 -1.3 0.5 -1.9 1.05 -2.55 1.85 -2.65 L12.4 -4.25" fill="#231f20" fill-rule="evenodd" stroke="none"/>
    <path d="M15.5 8.3 L15.25 9.2 Q14.95 9.6 14.45 9.65 L3.95 11.25 Q3.45 11.35 3.05 11.05 2.65 10.75 2.6 10.25 L1.0 -0.3 Q0.9 -0.8 1.2 -1.2 1.5 -1.6 2.0 -1.65 L12.55 -3.25 13.45 -3.0 13.9 -2.25 15.5 8.3" fill="#ffffff" fill-rule="evenodd" stroke="none"/>
  </g>
</svg>
