<?xml version="1.0" encoding="UTF-8" standalone="no"?>
<svg xmlns:ffdec="https://www.free-decompiler.com/flash" xmlns:xlink="http://www.w3.org/1999/xlink" ffdec:objectType="shape" height="19.9px" width="18.95px" xmlns="http://www.w3.org/2000/svg">
  <g transform="matrix(1.0, 0.0, 0.0, 1.0, 0.7, 4.65)">
    <path d="M13.65 -4.6 Q14.65 -4.75 15.5 -4.15 16.3 -3.55 16.45 -2.55 L18.2 9.0 Q18.4 10.2 17.45 11.1 17.45 12.0 16.85 12.65 16.3 13.35 15.4 13.45 L3.85 15.2 Q2.85 15.35 2.0 14.75 1.2 14.15 1.05 13.15 L-0.7 1.6 Q-0.85 0.4 0.0 -0.5 0.05 -1.4 0.6 -2.05 1.2 -2.75 2.1 -2.9 L13.65 -4.6" fill="#231f20" fill-rule="evenodd" stroke="none"/>
    <path d="M17.1 9.15 L16.85 10.15 15.95 10.7 4.4 12.45 3.4 12.2 Q3.0 11.85 2.9 11.3 L1.15 -0.25 Q1.05 -0.8 1.4 -1.25 1.7 -1.7 2.25 -1.8 L13.85 -3.5 14.85 -3.25 15.35 -2.4 17.1 9.15" fill="#ffffff" fill-rule="evenodd" stroke="none"/>
  </g>
</svg>
