<?xml version="1.0" encoding="UTF-8" standalone="no"?>
<svg xmlns:ffdec="https://www.free-decompiler.com/flash" xmlns:xlink="http://www.w3.org/1999/xlink" ffdec:objectType="shape" height="31.1px" width="26.15px" xmlns="http://www.w3.org/2000/svg">
  <g transform="matrix(1.0, 0.0, 0.0, 1.0, 18.2, 17.15)">
    <path d="M6.55 -14.55 Q6.2 -14.95 5.65 -15.0 L-6.0 -16.05 Q-6.55 -16.1 -7.0 -15.75 -7.4 -15.4 -7.45 -14.85 L-8.5 -3.2 -8.2 -2.2 Q-7.85 -1.8 -7.3 -1.7 L4.4 -0.7 Q4.95 -0.65 5.35 -1.0 5.8 -1.35 5.8 -1.9 L6.85 -13.55 Q6.9 -14.1 6.55 -14.55 M5.75 -16.1 Q6.75 -16.0 7.4 -15.25 8.05 -14.5 7.95 -13.45 L6.95 -1.8 Q6.8 -0.55 5.75 0.05 5.5 0.9 4.8 1.45 4.05 1.95 3.15 1.9 L-8.5 0.85 Q-9.5 0.75 -10.15 -0.05 -10.8 -0.8 -10.7 -1.85 L-9.65 -13.45 Q-9.55 -14.75 -8.5 -15.35 -8.25 -16.2 -7.55 -16.7 -6.8 -17.25 -5.9 -17.15 L5.75 -16.1" fill="#3db44a" fill-rule="evenodd" stroke="none"/>
    <path d="M5.65 -15.0 Q6.2 -14.95 6.55 -14.55 6.9 -14.1 6.85 -13.55 L5.8 -1.9 Q5.8 -1.35 5.35 -1.0 4.95 -0.65 4.4 -0.7 L-7.3 -1.7 Q-7.85 -1.8 -8.2 -2.2 L-8.5 -3.2 -7.45 -14.85 Q-7.4 -15.4 -7.0 -15.75 -6.55 -16.1 -6.0 -16.05 L5.65 -15.0" fill="#ffffff" fill-rule="evenodd" stroke="none"/>
    <path d="M3.3 -13.15 Q3.9 -13.1 5.2 -12.35 1.65 -8.8 -4.6 -3.45 -5.75 -3.55 -6.6 -4.25 L-6.7 -4.5 Q-5.55 -6.05 -2.2 -9.0 L2.8 -13.15 3.3 -13.15" fill="#3db44a" fill-rule="evenodd" stroke="none"/>
    <path d="M-2.65 -4.6 Q-3.15 -4.95 -3.7 -4.85 L-15.25 -3.05 Q-15.8 -3.0 -16.1 -2.55 L-16.35 -1.55 -14.55 10.0 -14.0 10.85 -13.05 11.1 -1.45 9.35 Q-0.95 9.25 -0.6 8.8 -0.25 8.35 -0.35 7.8 L-2.15 -3.75 Q-2.2 -4.3 -2.65 -4.6 M-3.85 -5.95 Q-2.85 -6.1 -2.05 -5.5 -1.2 -4.9 -1.05 -3.9 L0.75 7.65 Q0.9 8.9 0.05 9.75 0.05 10.65 -0.55 11.3 -1.1 11.95 -2.05 12.1 L-13.6 13.9 Q-14.55 14.05 -15.4 13.45 -16.2 12.9 -16.35 11.85 L-18.15 0.3 Q-18.35 -0.9 -17.45 -1.8 -17.45 -2.7 -16.9 -3.35 -16.25 -4.05 -15.4 -4.15 L-3.85 -5.95" fill="#ec1c24" fill-rule="evenodd" stroke="none"/>
    <path d="M-2.65 -4.6 Q-2.2 -4.3 -2.15 -3.75 L-0.35 7.8 Q-0.25 8.35 -0.6 8.8 -0.95 9.25 -1.45 9.35 L-13.05 11.1 -14.0 10.85 -14.55 10.0 -16.35 -1.55 -16.1 -2.55 Q-15.8 -3.0 -15.25 -3.05 L-3.7 -4.85 Q-3.15 -4.95 -2.65 -4.6" fill="#ffffff" fill-rule="evenodd" stroke="none"/>
  </g>
</svg>
