<?xml version="1.0" encoding="UTF-8" standalone="no"?>
<svg xmlns:ffdec="https://www.free-decompiler.com/flash" xmlns:xlink="http://www.w3.org/1999/xlink" ffdec:objectType="shape" height="38.5px" width="38.5px" xmlns="http://www.w3.org/2000/svg">
  <g transform="matrix(1.0, 0.0, 0.0, 1.0, 19.25, 19.25)">
    <path d="M13.6 -13.6 Q19.25 -7.95 19.25 0.0 19.25 8.0 13.6 13.65 7.95 19.25 0.0 19.25 -7.95 19.25 -13.6 13.65 -19.25 8.0 -19.25 0.0 -19.25 -7.95 -13.6 -13.6 -7.95 -19.25 0.0 -19.25 7.95 -19.25 13.6 -13.6" fill="#ffe86e" fill-rule="evenodd" stroke="none"/>
    <path d="M11.15 -3.85 Q11.95 -4.0 12.6 -3.5 13.25 -3.0 13.4 -2.2 L14.8 7.3 Q15.0 8.3 14.25 9.05 14.2 9.75 13.75 10.3 L12.55 10.95 3.05 12.4 Q2.25 12.5 1.6 12.0 0.9 11.5 0.8 10.7 L-0.6 1.2 Q-0.8 0.25 -0.05 -0.5 -0.05 -1.2 0.45 -1.75 0.95 -2.3 1.65 -2.4 L11.15 -3.85" fill="#231f20" fill-rule="evenodd" stroke="none"/>
    <path d="M13.9 7.45 Q14.0 7.9 13.7 8.25 L13.0 8.65 3.55 10.1 Q3.1 10.2 2.75 9.9 2.35 9.65 2.3 9.2 L0.85 -0.3 Q0.8 -0.75 1.05 -1.1 1.35 -1.45 1.8 -1.5 L11.25 -2.95 12.05 -2.75 12.5 -2.05 13.9 7.45" fill="#ffffff" fill-rule="evenodd" stroke="none"/>
  </g>
</svg>
