<?xml version="1.0" encoding="UTF-8" standalone="no"?>
<svg xmlns:ffdec="https://www.free-decompiler.com/flash" xmlns:xlink="http://www.w3.org/1999/xlink" ffdec:objectType="shape" height="25.45px" width="21.4px" xmlns="http://www.w3.org/2000/svg">
  <g transform="matrix(1.0, 0.0, 0.0, 1.0, 14.95, 14.1)">
    <path d="M4.65 -13.25 Q5.5 -13.2 6.0 -12.55 6.55 -11.9 6.45 -11.1 L5.6 -1.55 Q5.5 -0.55 4.65 0.0 4.45 0.7 3.85 1.1 L2.55 1.45 -7.0 0.6 Q-7.85 0.5 -8.35 -0.1 -8.9 -0.75 -8.8 -1.55 L-8.0 -11.1 Q-7.85 -12.1 -7.0 -12.65 -6.85 -13.3 -6.2 -13.75 -5.65 -14.15 -4.9 -14.1 L4.65 -13.25 M5.55 -11.15 Q5.6 -11.6 5.3 -11.95 L4.55 -12.35 -5.0 -13.2 -5.75 -12.95 -6.15 -12.2 -7.0 -2.65 Q-7.05 -2.2 -6.75 -1.85 -6.45 -1.5 -6.0 -1.5 L3.5 -0.65 Q3.95 -0.6 4.3 -0.9 L4.7 -1.65 5.55 -11.15" fill="#3db44a" fill-rule="evenodd" stroke="none"/>
    <path d="M4.55 -12.35 L5.3 -11.95 Q5.6 -11.6 5.55 -11.15 L4.7 -1.65 4.3 -0.9 Q3.95 -0.6 3.5 -0.65 L-6.0 -1.5 Q-6.45 -1.5 -6.75 -1.85 -7.05 -2.2 -7.0 -2.65 L-6.15 -12.2 -5.75 -12.95 -5.0 -13.2 4.55 -12.35" fill="#ffffff" fill-rule="evenodd" stroke="none"/>
    <path d="M2.65 -10.85 L4.15 -10.2 Q1.25 -7.3 -3.85 -2.9 -4.75 -3.0 -5.45 -3.55 L-5.55 -3.75 Q-4.6 -5.0 -1.85 -7.4 L2.25 -10.85 2.65 -10.85" fill="#3db44a" fill-rule="evenodd" stroke="none"/>
    <path d="M-3.2 -4.95 Q-2.35 -5.1 -1.7 -4.6 -1.05 -4.1 -0.9 -3.3 L0.55 6.15 Q0.7 7.2 0.0 7.9 -0.05 8.6 -0.5 9.15 -1.0 9.75 -1.7 9.85 L-11.15 11.3 Q-12.0 11.45 -12.65 10.95 -13.35 10.45 -13.45 9.65 L-14.95 0.2 Q-15.05 -0.85 -14.35 -1.55 -14.35 -2.25 -13.85 -2.8 -13.4 -3.35 -12.65 -3.5 L-3.2 -4.95 M-1.8 -3.15 L-2.25 -3.85 -3.05 -4.05 -12.5 -2.6 -13.25 -2.15 -13.45 -1.35 -11.95 8.15 -11.55 8.85 -10.7 9.05 -1.25 7.55 -0.55 7.15 Q-0.3 6.8 -0.35 6.35 L-1.8 -3.15" fill="#ec1c24" fill-rule="evenodd" stroke="none"/>
    <path d="M-3.05 -4.05 L-2.25 -3.85 -1.8 -3.15 -0.35 6.35 Q-0.3 6.8 -0.55 7.15 L-1.25 7.55 -10.7 9.05 -11.55 8.85 -11.95 8.15 -13.45 -1.35 -13.25 -2.15 -12.5 -2.6 -3.05 -4.05" fill="#ffffff" fill-rule="evenodd" stroke="none"/>
  </g>
</svg>
