<?xml version="1.0" encoding="UTF-8" standalone="no"?>
<svg xmlns:ffdec="https://www.free-decompiler.com/flash" xmlns:xlink="http://www.w3.org/1999/xlink" ffdec:objectType="shape" height="51.25px" width="51.1px" xmlns="http://www.w3.org/2000/svg">
  <g transform="matrix(1.0, 0.0, 0.0, 1.0, 19.6, 19.7)">
    <path d="M0.0 -18.6 L-1.95 -17.55 -3.15 -17.4 -3.1 -16.9 -3.95 -16.45 -4.55 -16.6 -5.0 -17.0 0.0 -19.7 4.4 -17.25 3.65 -17.4 1.8 -17.65 0.0 -18.6" fill="#ffffff" fill-rule="evenodd" stroke="none"/>
    <path d="M7.15 -12.3 L7.25 -14.6 Q8.05 -14.2 8.8 -13.75 L8.8 -6.1 0.0 -1.25 -8.85 -6.1 -8.85 -13.75 -7.05 -14.75 -6.7 -12.2 -6.6 -11.05 -6.3 -9.95 -5.55 -8.8 -5.05 -9.1 -4.6 -8.95 Q-4.45 -8.75 -4.45 -8.45 L-4.55 -8.15 -4.85 -7.95 -2.0 -4.0 -1.85 -3.75 -1.8 -3.8 -1.6 -3.95 3.2 -7.3 6.0 -9.5 6.5 -9.85 7.15 -10.5 7.15 -11.8 6.35 -11.55 Q6.2 -11.5 6.2 -11.7 L6.3 -12.05 Q6.5 -12.4 7.15 -12.3" fill="#ff91d1" fill-rule="evenodd" stroke="none"/>
    <path d="M-3.65 -16.45 L-3.95 -16.45 -3.1 -16.9 Q-3.2 -16.6 -3.65 -16.45" fill="#ff91d1" fill-rule="evenodd" stroke="none"/>
    <path d="M1.8 -17.65 L0.5 -17.65 -1.95 -17.55 0.0 -18.6 1.8 -17.65" fill="#ff91d1" fill-rule="evenodd" stroke="none"/>
    <path d="M2.4 -16.2 L1.15 -16.5 -0.1 -16.15 Q-0.65 -15.85 -0.65 -15.4 -0.65 -14.95 -0.1 -14.65 0.4 -14.35 1.15 -14.35 L2.3 -14.6 2.9 -15.2 2.95 -15.4 2.4 -16.2 M5.6 -16.3 L6.6 -15.7 1.5 -12.45 Q0.95 -12.9 0.4 -12.9 L-0.95 -12.55 Q-1.5 -12.25 -1.5 -11.75 -1.5 -11.0 -1.1 -10.8 L-1.8 -10.35 -4.0 -12.9 Q-3.65 -13.15 -3.65 -13.5 L-3.8 -14.1 Q-4.0 -14.4 -4.4 -14.5 L-5.25 -14.35 -6.45 -15.75 -6.4 -15.75 -5.2 -16.3 -5.15 -16.35 Q-4.75 -15.85 -3.95 -15.85 -3.35 -15.85 -2.95 -16.15 -2.55 -16.45 -2.55 -16.9 L1.45 -17.05 1.5 -17.05 2.05 -17.0 3.55 -16.85 5.6 -16.3" fill="#ffe45a" fill-rule="evenodd" stroke="none"/>
    <path d="M3.2 -9.35 L3.25 -9.55 2.9 -10.1 2.35 -10.15 1.8 -9.9 1.3 -8.95 Q1.15 -8.3 1.85 -8.45 L2.25 -8.6 2.95 -9.0 3.2 -9.35 M-1.05 -10.5 Q-0.75 -9.75 0.25 -10.1 1.35 -10.5 1.5 -12.05 L0.85 -10.95 Q-0.2 -10.15 -1.05 -10.5 M6.7 -15.55 L6.6 -12.7 Q6.15 -13.05 5.75 -12.35 5.35 -11.7 5.55 -11.0 5.6 -10.65 5.95 -10.7 L6.55 -11.1 6.55 -10.5 6.15 -10.35 5.65 -9.95 2.85 -7.75 -1.6 -3.95 -1.8 -3.8 -1.8 -5.35 Q-1.3 -5.2 -0.55 -5.85 -0.2 -6.15 -0.15 -6.8 L-0.4 -7.5 -1.75 -7.6 -1.75 -10.4 -1.1 -10.8 Q-1.5 -11.0 -1.5 -11.75 -1.5 -12.25 -0.95 -12.55 L0.4 -12.9 Q0.95 -12.9 1.5 -12.45 L6.6 -15.7 6.7 -15.55 M4.9 -12.6 L4.85 -13.1 Q4.7 -13.45 4.4 -13.5 L3.8 -13.35 3.45 -12.85 Q3.3 -12.25 3.8 -12.1 L4.6 -12.2 4.9 -12.6" fill="#c8a41b" fill-rule="evenodd" stroke="none"/>
    <path d="M-6.55 -15.65 L-6.45 -15.75 -5.25 -14.35 -5.0 -13.35 -4.55 -12.6 -4.7 -14.2 -4.25 -14.15 -3.8 -14.1 -3.65 -13.5 Q-3.65 -13.15 -4.0 -12.9 L-1.8 -10.35 -1.75 -10.4 -1.75 -7.6 Q-2.4 -7.65 -2.35 -6.65 -2.3 -5.7 -1.85 -5.4 L-1.65 -6.65 Q-1.4 -7.0 -0.95 -7.1 -0.4 -7.15 -0.15 -6.8 -0.2 -6.15 -0.55 -5.85 -1.3 -5.2 -1.8 -5.35 L-1.8 -3.8 -1.85 -3.75 -2.25 -4.45 -2.3 -4.55 -2.8 -5.45 -2.85 -5.5 -4.25 -7.85 -3.95 -8.2 Q-3.75 -8.9 -4.3 -9.35 -4.85 -9.85 -5.3 -9.5 L-5.55 -9.85 -5.8 -10.25 -6.0 -11.1 -6.15 -12.25 -6.55 -15.55 -6.55 -15.65" fill="#dfc140" fill-rule="evenodd" stroke="none"/>
    <path d="M4.4 -17.25 L5.85 -16.85 7.0 -16.1 7.15 -15.95 7.25 -15.7 7.25 -15.6 7.25 -14.6 7.15 -12.3 Q6.5 -12.4 6.3 -12.05 L6.2 -11.7 Q6.2 -11.5 6.35 -11.55 L7.15 -11.8 7.15 -10.5 6.5 -9.85 6.0 -9.5 3.2 -7.3 -1.6 -3.95 2.85 -7.75 5.65 -9.95 6.15 -10.35 6.55 -10.5 6.55 -11.1 5.95 -10.7 Q5.6 -10.65 5.55 -11.0 5.35 -11.7 5.75 -12.35 6.15 -13.05 6.6 -12.7 L6.7 -15.55 6.6 -15.7 5.6 -16.3 3.55 -16.85 2.05 -17.0 1.5 -17.05 1.45 -17.05 -2.55 -16.9 Q-2.55 -16.45 -2.95 -16.15 -3.35 -15.85 -3.95 -15.85 -4.75 -15.85 -5.15 -16.35 L-5.2 -16.3 -6.4 -15.75 -6.55 -15.65 -6.55 -15.55 -6.15 -12.25 -6.0 -11.1 -5.8 -10.25 -5.55 -9.85 -5.3 -9.5 Q-4.85 -9.85 -4.3 -9.35 -3.75 -8.9 -3.95 -8.2 L-4.25 -7.85 -2.85 -5.5 -2.8 -5.45 -2.3 -4.55 -2.25 -4.45 -2.0 -4.0 -4.85 -7.95 -4.55 -8.15 -4.45 -8.45 Q-4.45 -8.75 -4.6 -8.95 L-5.05 -9.1 -5.55 -8.8 -6.3 -9.95 -6.6 -11.05 -6.7 -12.2 -7.05 -14.75 -7.05 -14.8 -7.15 -15.65 -7.15 -15.75 -7.1 -15.8 -7.05 -16.05 -7.0 -16.05 -6.65 -16.25 -5.4 -16.85 -5.35 -16.85 -5.05 -17.05 -5.0 -17.0 -4.55 -16.6 -3.95 -16.45 -3.65 -16.45 Q-3.2 -16.6 -3.1 -16.9 L-3.15 -17.4 -1.95 -17.55 0.5 -17.65 1.8 -17.65 3.65 -17.4 4.4 -17.25" fill="#a08211" fill-rule="evenodd" stroke="none"/>
    <path d="M1.4 -16.15 L0.5 -15.8 Q0.25 -15.3 0.6 -14.95 0.9 -14.7 1.4 -14.7 2.3 -14.5 2.9 -15.2 L2.3 -14.6 1.15 -14.35 Q0.4 -14.35 -0.1 -14.65 -0.65 -14.95 -0.65 -15.4 -0.65 -15.85 -0.1 -16.15 L1.15 -16.5 2.4 -16.2 1.4 -16.15" fill="#c8a41b" fill-rule="evenodd" stroke="none"/>
    <path d="M-5.25 -14.35 L-4.4 -14.5 Q-4.0 -14.4 -3.8 -14.1 L-4.25 -14.15 -4.7 -14.2 -4.55 -12.6 -5.0 -13.35 -5.25 -14.35" fill="#c8a41b" fill-rule="evenodd" stroke="none"/>
    <path d="M1.8 -9.9 L2.35 -10.15 2.9 -10.1 2.35 -9.5 Q2.2 -9.1 2.45 -8.8 2.55 -8.8 2.7 -8.95 L2.95 -9.0 2.25 -8.6 1.85 -8.45 Q1.15 -8.3 1.3 -8.95 L1.8 -9.9" fill="#a08211" fill-rule="evenodd" stroke="none"/>
    <path d="M4.4 -13.5 Q4.7 -13.45 4.85 -13.1 L4.8 -13.1 4.3 -12.95 4.1 -12.55 Q4.1 -12.25 4.6 -12.2 L3.8 -12.1 Q3.3 -12.25 3.45 -12.85 L3.8 -13.35 4.4 -13.5" fill="#a08211" fill-rule="evenodd" stroke="none"/>
    <path d="M-1.75 -7.6 L-0.4 -7.5 -0.15 -6.8 Q-0.4 -7.15 -0.95 -7.1 -1.4 -7.0 -1.65 -6.65 L-1.85 -5.4 Q-2.3 -5.7 -2.35 -6.65 -2.4 -7.65 -1.75 -7.6" fill="#a08211" fill-rule="evenodd" stroke="none"/>
    <path d="M0.5 -15.8 L1.4 -16.15 2.4 -16.2 2.95 -15.4 2.9 -15.2 Q2.3 -14.5 1.4 -14.7 0.9 -14.7 0.6 -14.95 0.25 -15.3 0.5 -15.8" fill="#dfc140" fill-rule="evenodd" stroke="none"/>
    <path d="M2.9 -10.1 L3.25 -9.55 3.2 -9.35 2.95 -9.0 2.7 -8.95 Q2.55 -8.8 2.45 -8.8 2.2 -9.1 2.35 -9.5 L2.9 -10.1" fill="#dfc140" fill-rule="evenodd" stroke="none"/>
    <path d="M1.5 -12.05 Q1.35 -10.5 0.25 -10.1 -0.75 -9.75 -1.05 -10.5 -0.2 -10.15 0.85 -10.95 L1.5 -12.05" fill="#dfc140" fill-rule="evenodd" stroke="none"/>
    <path d="M4.8 -13.1 L4.85 -13.1 4.9 -12.6 4.6 -12.2 Q4.1 -12.25 4.1 -12.55 L4.3 -12.95 4.8 -13.1" fill="#dfc140" fill-rule="evenodd" stroke="none"/>
    <path d="M0.0 10.7 L-9.8 16.15 -19.6 10.7 -19.6 8.75 -9.8 14.1 0.0 8.75 9.8 14.1 19.65 8.75 19.65 10.7 9.8 16.15 0.0 10.7" fill="#231f20" fill-rule="evenodd" stroke="none"/>
    <path d="M-5.8 -3.2 L-5.85 -3.3 -5.55 -3.15 -5.8 -3.2" fill="#ffffff" fill-rule="evenodd" stroke="none"/>
    <path d="M-12.05 9.45 L-12.35 7.8 Q-10.9 8.8 -9.2 8.5 -7.65 8.3 -6.4 7.1 -5.15 5.95 -4.75 4.4 -4.3 2.7 -5.1 1.2 L-3.25 1.25 Q-2.0 1.15 -1.65 0.55 L-1.75 0.25 -1.85 0.1 -2.0 -0.1 -1.0 0.5 -1.0 8.15 -9.8 13.0 -13.35 11.05 -12.3 10.95 Q-11.95 10.7 -12.05 9.45" fill="#fff100" fill-rule="evenodd" stroke="none"/>
    <path d="M-11.05 -2.05 Q-12.6 -1.7 -13.8 -0.45 -15.0 0.75 -15.25 2.3 -15.5 4.0 -14.45 5.45 -15.5 5.05 -17.4 5.45 L-17.5 5.95 -16.4 6.6 Q-16.95 7.35 -16.05 8.4 L-14.55 10.1 -14.05 10.65 -18.65 8.15 -18.65 0.5 -9.8 -4.4 -7.6 -3.15 Q-7.9 -2.35 -7.8 -1.65 -9.3 -2.45 -11.05 -2.05" fill="#fff100" fill-rule="evenodd" stroke="none"/>
    <path d="M-18.65 0.5 L-18.65 8.15 -14.05 10.65 -13.35 11.05 -9.8 13.0 -1.0 8.15 -1.0 0.5 -2.0 -0.1 -3.15 -1.85 Q-3.85 -2.85 -4.3 -3.05 L-4.85 -3.15 -5.55 -3.15 -5.85 -3.3 -6.1 -4.15 Q-6.65 -4.45 -7.1 -4.0 L-7.6 -3.15 -9.8 -4.4 -18.65 0.5 M7.25 -14.6 L7.25 -15.6 7.25 -15.7 9.65 -14.3 9.65 -5.5 6.05 -3.45 9.8 -5.5 13.35 -3.55 12.65 -2.85 Q11.25 -3.6 9.8 -4.4 L0.95 0.5 0.95 8.15 9.8 13.0 18.65 8.15 18.65 0.5 14.5 -1.8 15.0 -2.65 Q17.3 -1.35 19.65 -0.1 L19.65 8.75 9.8 14.1 0.0 8.75 -9.8 14.1 -19.6 8.75 -19.6 -0.1 -9.8 -5.5 -9.8 -14.3 -7.1 -15.8 -7.15 -15.75 -7.15 -15.65 -7.05 -14.8 -7.05 -14.75 -8.85 -13.75 -8.85 -6.1 0.0 -1.25 8.8 -6.1 8.8 -13.75 Q8.05 -14.2 7.25 -14.6" fill="#ffffff" fill-rule="evenodd" stroke="none"/>
    <path d="M15.75 0.6 L14.3 -1.3 14.5 -1.8 18.65 0.5 18.65 8.15 9.8 13.0 0.95 8.15 0.95 0.5 9.8 -4.4 Q11.25 -3.6 12.65 -2.85 L12.15 -2.35 11.55 -2.15 8.6 -1.85 5.75 -1.25 Q4.55 -0.7 3.9 0.4 3.35 1.2 3.3 2.0 3.0 3.75 3.75 5.45 4.2 6.5 4.9 7.2 L4.6 7.2 4.1 7.3 4.05 7.3 4.0 7.35 4.2 7.85 4.1 7.85 4.5 8.15 5.2 8.7 5.65 8.8 5.85 8.95 6.9 10.1 7.15 10.5 7.2 10.65 7.3 10.75 7.45 10.8 7.65 10.7 7.7 10.55 7.7 10.2 7.8 10.2 7.9 10.25 8.55 10.4 9.0 10.85 9.05 10.85 9.45 10.5 9.4 10.5 9.4 10.45 9.4 10.4 9.05 9.65 11.75 9.9 Q13.95 9.85 15.65 8.65 16.85 7.9 17.4 6.25 17.95 4.6 17.3 3.1 16.85 2.0 15.75 0.6" fill="#80cfff" fill-rule="evenodd" stroke="none"/>
    <path d="M-5.8 -2.7 L-4.55 -2.55 -4.45 -2.45 -4.4 -2.4 -4.3 -2.35 -4.15 -2.2 -4.1 -2.15 -3.95 -2.0 -3.55 -1.4 -3.75 -0.65 Q-4.05 0.05 -4.9 0.0 -5.75 -0.05 -6.15 -0.65 -6.4 -0.75 -6.4 -1.35 L-6.35 -2.3 -6.85 -1.45 -6.95 -0.45 -7.25 -1.3 -7.25 -1.55 -7.25 -2.15 -7.2 -2.2 -7.2 -2.4 -7.1 -2.7 -7.05 -2.75 -7.05 -2.85 -6.95 -3.0 -6.95 -3.05 -6.65 -3.55 Q-6.45 -2.7 -5.8 -2.7" fill="#78caff" fill-rule="evenodd" stroke="none"/>
    <path d="M-16.45 5.9 L-14.45 5.8 Q-14.1 6.15 -14.4 6.5 L-15.15 7.0 -14.3 6.85 -13.65 6.45 -13.6 7.55 -14.0 8.35 -14.85 8.65 -14.9 8.6 -15.0 8.45 -15.15 8.3 -15.55 8.05 Q-16.15 7.75 -16.05 7.4 L-15.8 6.75 Q-15.8 6.4 -15.95 6.2 L-16.45 5.9" fill="#78caff" fill-rule="evenodd" stroke="none"/>
    <path d="M-13.4 2.85 L-13.0 2.8 -12.75 2.45 Q-12.7 2.2 -12.8 2.0 L-13.15 1.8 -13.6 1.9 -13.85 2.25 -13.75 2.65 Q-13.65 2.85 -13.4 2.85 M-11.75 -1.05 L-11.4 -1.25 -10.85 -1.4 -10.45 -1.45 -9.65 -1.45 -9.55 -1.45 -8.8 -1.3 -8.65 -1.25 -8.55 -1.2 -8.95 -1.0 Q-7.75 -0.7 -6.95 0.1 -7.55 0.1 -7.9 0.5 -8.3 0.9 -8.05 1.45 -8.05 0.95 -7.45 0.6 -6.9 0.2 -6.75 0.85 -6.25 3.6 -8.35 4.95 -10.25 6.2 -12.9 5.7 -12.5 4.95 -12.5 4.4 L-13.0 4.9 -13.25 5.55 Q-13.65 5.0 -13.65 4.3 L-13.45 2.9 -14.1 4.1 -14.15 5.4 -14.15 5.35 -14.3 5.25 -14.6 4.8 -14.65 4.65 -14.85 4.0 -14.9 3.65 -14.85 2.95 -14.75 2.45 -14.6 1.95 -14.25 1.2 -13.55 0.25 -13.1 -0.15 -12.1 -0.9 -11.75 -1.05 M-10.25 -0.4 Q-10.5 -0.75 -11.05 -0.75 -11.65 -0.75 -12.2 -0.4 L-13.0 0.5 Q-13.25 1.05 -13.0 1.4 -12.75 1.8 -12.15 1.8 L-11.05 1.4 Q-10.45 1.05 -10.25 0.5 -10.0 -0.05 -10.25 -0.4" fill="#78caff" fill-rule="evenodd" stroke="none"/>
    <path d="M-13.25 5.55 L-13.0 4.9 -12.5 4.4 Q-12.5 4.95 -12.9 5.7 -10.25 6.2 -8.35 4.95 -6.25 3.6 -6.75 0.85 -6.9 0.2 -7.45 0.6 -8.05 0.95 -8.05 1.45 -8.3 0.9 -7.9 0.5 -7.55 0.1 -6.95 0.1 -7.75 -0.7 -8.95 -1.0 L-8.55 -1.2 -8.4 -1.1 -8.2 -1.05 -7.4 -0.5 -7.0 -0.15 -7.15 -0.7 -7.25 -1.3 -6.95 -0.45 -6.85 -1.45 -6.35 -2.3 -6.4 -1.35 Q-6.4 -0.75 -6.15 -0.65 -5.75 -0.05 -4.9 0.0 -4.05 0.05 -3.75 -0.65 L-3.55 -1.4 -2.85 -0.3 -2.7 -0.1 -2.65 -0.05 -2.6 0.1 -2.35 0.4 -3.15 0.6 -6.6 0.5 Q-5.0 1.7 -5.05 3.4 -5.15 4.9 -6.5 6.2 -7.85 7.5 -9.6 7.75 -11.6 8.05 -13.15 6.9 -12.75 7.65 -12.65 8.7 L-12.8 10.55 -13.0 10.5 -13.25 10.45 -13.3 10.45 -13.5 10.35 -13.65 10.25 -14.0 9.9 -14.15 9.7 -14.15 9.65 -14.25 9.5 -14.25 9.45 -14.65 8.9 -14.85 8.65 -14.0 8.35 -13.6 7.55 -13.65 6.45 -14.3 6.85 -15.15 7.0 -14.4 6.5 Q-14.1 6.15 -14.45 5.8 L-13.6 5.85 -13.9 5.6 -14.15 5.4 -14.1 4.1 -13.45 2.9 -13.65 4.3 Q-13.65 5.0 -13.25 5.55" fill="#4aafe5" fill-rule="evenodd" stroke="none"/>
    <path d="M-11.0 -1.35 L-11.75 -1.05 -12.1 -0.9 -13.1 -0.15 -13.55 0.25 -14.25 1.2 -14.6 1.95 -14.75 2.45 -14.9 3.3 -14.9 3.65 -14.85 4.0 -14.65 4.65 -14.6 4.8 -14.3 5.25 -14.15 5.35 -14.15 5.4 -13.9 5.6 -13.6 5.85 -15.35 5.85 -16.45 5.9 -15.95 6.2 Q-15.8 6.4 -15.8 6.75 L-16.05 7.4 Q-16.15 7.75 -15.55 8.05 L-15.15 8.3 -14.9 8.6 -14.25 9.45 -14.25 9.5 -14.15 9.65 -14.15 9.7 -14.0 9.9 -13.65 10.25 -13.5 10.35 -13.3 10.45 -13.25 10.45 -13.0 10.5 -12.8 10.55 -12.65 8.7 Q-12.75 7.65 -13.15 6.9 -11.6 8.05 -9.6 7.75 -7.85 7.5 -6.5 6.2 -5.15 4.9 -5.05 3.4 -5.0 1.7 -6.6 0.5 L-3.15 0.6 -2.35 0.4 -2.6 0.1 -2.65 -0.05 -2.7 -0.1 -2.85 -0.3 -3.95 -2.0 -4.1 -2.15 -4.15 -2.2 -4.3 -2.35 -4.4 -2.4 -4.45 -2.45 -4.55 -2.55 -5.8 -2.7 Q-6.45 -2.7 -6.65 -3.55 L-6.95 -3.05 -6.95 -3.0 -7.05 -2.85 -7.05 -2.75 -7.1 -2.7 -7.2 -2.4 -7.2 -2.2 -7.25 -2.15 -7.25 -1.55 -7.15 -0.7 -7.0 -0.15 -7.4 -0.5 -8.2 -1.05 -8.4 -1.1 -8.55 -1.2 -8.65 -1.25 -8.8 -1.3 -9.55 -1.45 -9.65 -1.45 -10.45 -1.45 -11.0 -1.35 M-13.8 -0.45 Q-12.6 -1.7 -11.05 -2.05 -9.3 -2.45 -7.8 -1.65 -7.9 -2.35 -7.6 -3.15 L-7.1 -4.0 Q-6.65 -4.45 -6.1 -4.15 L-5.85 -3.3 -5.8 -3.2 -5.55 -3.15 -4.85 -3.15 -4.3 -3.05 Q-3.85 -2.85 -3.15 -1.85 L-2.0 -0.1 -1.85 0.1 -1.75 0.25 -1.65 0.55 Q-2.0 1.15 -3.25 1.25 L-5.1 1.2 Q-4.3 2.7 -4.75 4.4 -5.15 5.95 -6.4 7.1 -7.65 8.3 -9.2 8.5 -10.9 8.8 -12.35 7.8 L-12.05 9.45 Q-11.95 10.7 -12.3 10.95 L-13.35 11.05 -14.05 10.65 -14.55 10.1 -16.05 8.4 Q-16.95 7.35 -16.4 6.6 L-17.5 5.95 -17.4 5.45 Q-15.5 5.05 -14.45 5.45 -15.5 4.0 -15.25 2.3 -15.0 0.75 -13.8 -0.45" fill="#2f85ab" fill-rule="evenodd" stroke="none"/>
    <path d="M-11.05 1.4 L-12.15 1.8 Q-12.75 1.8 -13.0 1.4 -13.25 1.05 -13.0 0.5 L-12.2 -0.4 Q-11.65 -0.75 -11.05 -0.75 -10.5 -0.75 -10.25 -0.4 -10.0 -0.05 -10.25 0.5 -10.45 1.05 -11.05 1.4" fill="#edf9ff" fill-rule="evenodd" stroke="none"/>
    <path d="M-13.0 2.8 L-13.4 2.85 Q-13.65 2.85 -13.75 2.65 L-13.85 2.25 -13.6 1.9 -13.15 1.8 -12.8 2.0 Q-12.7 2.2 -12.75 2.45 L-13.0 2.8" fill="#edf9ff" fill-rule="evenodd" stroke="none"/>
    <path d="M6.45 0.1 Q5.95 0.5 5.95 1.05 5.95 1.65 6.45 2.05 6.95 2.45 7.7 2.45 8.4 2.45 8.9 2.05 9.4 1.65 9.4 1.05 9.4 0.5 8.9 0.1 8.4 -0.35 7.7 -0.35 6.95 -0.35 6.45 0.1 M15.25 -3.75 L15.2 -3.65 15.1 -3.6 Q13.85 -3.25 13.5 -2.55 L13.5 -2.0 13.55 -1.35 12.4 -1.45 12.45 -1.4 13.0 -0.9 Q13.35 -0.55 13.7 -0.6 L13.75 -0.3 14.15 1.7 14.4 3.65 Q14.45 5.9 12.55 6.9 11.65 7.5 10.4 7.75 L10.45 7.75 10.85 7.5 10.9 7.45 11.25 7.2 11.95 6.5 12.05 6.4 12.3 6.1 12.35 6.0 12.55 5.7 12.85 5.3 13.05 4.85 13.05 4.8 Q13.9 2.85 13.35 0.8 L13.15 0.0 13.2 0.45 13.2 1.0 13.2 1.15 13.2 1.35 13.1 2.0 12.95 2.65 12.7 3.4 12.4 4.0 12.25 4.3 12.15 4.45 11.15 5.7 10.7 6.15 10.25 6.5 9.45 6.95 9.35 7.0 8.85 7.2 8.75 7.25 8.2 7.4 8.15 7.4 7.9 7.45 7.85 7.45 7.55 7.5 11.25 1.9 8.75 4.5 Q7.35 6.05 6.65 7.4 5.3 6.85 4.35 5.9 L4.35 5.85 4.15 5.3 Q3.6 3.6 3.85 2.1 3.95 1.4 4.35 0.7 4.95 -0.25 6.0 -0.7 6.85 -1.15 8.65 -1.3 L11.7 -1.6 12.1 -1.7 12.55 -1.9 13.05 -2.4 13.75 -3.2 14.05 -3.6 15.25 -3.75" fill="#e99337" fill-rule="evenodd" stroke="none"/>
    <path d="M14.85 -3.35 L14.4 -2.85 Q13.9 -2.15 13.75 -1.05 L15.3 0.95 Q16.35 2.3 16.75 3.35 17.3 4.65 16.85 6.1 16.4 7.5 15.3 8.2 13.75 9.25 11.75 9.3 L10.2 9.25 8.95 9.1 7.3 8.7 6.2 8.15 5.7 7.85 5.35 7.5 4.8 6.75 4.8 6.7 4.55 6.3 4.55 6.2 4.35 5.9 Q5.3 6.85 6.65 7.4 7.35 6.05 8.75 4.5 L11.25 1.9 7.6 7.5 7.85 7.45 7.9 7.45 8.15 7.4 8.2 7.4 8.75 7.25 8.85 7.2 9.35 7.0 9.45 6.95 10.7 6.15 11.15 5.7 11.7 5.15 12.4 4.0 12.7 3.4 12.95 2.65 13.2 1.35 13.2 1.15 13.2 1.0 13.2 0.45 13.15 0.0 13.35 0.8 Q13.9 2.85 13.05 4.8 L13.05 4.85 12.85 5.3 12.55 5.7 12.35 6.0 12.3 6.1 12.05 6.4 11.95 6.5 11.25 7.2 10.9 7.45 10.85 7.5 10.45 7.75 10.4 7.75 Q11.65 7.5 12.55 6.9 14.45 5.9 14.4 3.65 L14.15 1.7 13.75 -0.3 13.7 -0.6 Q13.35 -0.55 13.0 -0.9 L12.45 -1.4 12.4 -1.45 13.55 -1.35 13.5 -2.0 13.5 -2.55 Q13.85 -3.25 15.1 -3.6 L14.85 -3.35" fill="#b0701b" fill-rule="evenodd" stroke="none"/>
    <path d="M16.55 -4.5 L16.65 -4.3 16.65 -4.25 16.7 -4.25 16.55 -3.95 16.5 -3.9 16.45 -3.9 16.3 -3.8 15.7 -3.35 15.3 -2.95 15.0 -2.65 14.5 -1.8 14.3 -1.3 15.75 0.6 Q16.85 2.0 17.3 3.1 17.95 4.6 17.4 6.25 16.85 7.9 15.65 8.65 13.95 9.85 11.75 9.9 L9.05 9.65 9.25 10.1 9.4 10.4 9.4 10.45 9.4 10.5 9.45 10.5 9.05 10.85 9.0 10.85 8.55 10.4 7.9 10.25 7.8 10.2 7.7 10.2 7.7 10.55 7.65 10.7 7.45 10.8 7.3 10.75 7.2 10.65 7.15 10.5 6.9 10.1 5.85 8.95 5.65 8.8 5.2 8.7 4.5 8.15 4.1 7.85 4.2 7.85 4.2 7.8 4.0 7.35 4.05 7.3 4.1 7.3 4.6 7.2 4.9 7.2 Q4.2 6.5 3.75 5.45 3.0 3.75 3.3 2.0 3.35 1.2 3.9 0.4 4.55 -0.7 5.75 -1.25 L8.6 -1.85 11.55 -2.15 12.15 -2.35 12.65 -2.85 13.35 -3.55 13.55 -3.85 13.9 -4.4 14.35 -4.65 14.65 -4.75 15.9 -4.8 16.55 -4.5 M15.9 -4.2 L15.85 -4.25 14.8 -4.15 14.4 -4.05 13.75 -3.2 13.05 -2.4 12.55 -1.9 12.1 -1.7 11.7 -1.6 8.65 -1.3 Q6.85 -1.15 6.0 -0.7 4.95 -0.25 4.35 0.7 3.95 1.4 3.85 2.1 3.6 3.6 4.15 5.3 L4.35 5.85 4.55 6.2 4.55 6.3 4.8 6.7 4.8 6.75 5.35 7.5 5.7 7.85 6.2 8.15 7.3 8.7 8.95 9.1 10.2 9.25 11.75 9.3 Q13.75 9.25 15.3 8.2 16.4 7.5 16.85 6.1 17.3 4.65 16.75 3.35 16.35 2.3 15.3 0.95 L13.75 -1.05 Q13.9 -2.15 14.4 -2.85 L14.85 -3.35 15.2 -3.65 15.35 -3.8 15.9 -4.2" fill="#784810" fill-rule="evenodd" stroke="none"/>
    <path d="M15.25 -3.75 L14.05 -3.6 14.4 -4.05 14.8 -4.15 15.85 -4.25 15.9 -4.2 15.35 -3.8 15.25 -3.75" fill="#ffe9cc" fill-rule="evenodd" stroke="none"/>
    <path d="M5.95 1.05 Q5.95 0.5 6.45 0.1 6.95 -0.35 7.7 -0.35 8.4 -0.35 8.9 0.1 9.4 0.5 9.4 1.05 9.4 1.65 8.9 2.05 8.4 2.45 7.7 2.45 6.95 2.45 6.45 2.05 5.95 1.65 5.95 1.05" fill="#ffe9cc" fill-rule="evenodd" stroke="none"/>
    <path d="M23.2 7.6 L27.45 11.85 13.8 25.55 3.55 15.25 7.8 11.0 13.8 17.0 23.2 7.6" fill="#ffffff" fill-rule="evenodd" stroke="none"/>
    <path d="M29.15 15.1 Q29.15 20.65 25.25 24.6 21.3 28.5 15.75 28.5 10.2 28.5 6.3 24.6 2.4 20.65 2.4 15.1 2.4 9.55 6.3 5.65 10.2 1.7 15.75 1.7 21.3 1.7 25.25 5.65 29.15 9.55 29.15 15.1 M23.2 7.6 L13.8 17.0 7.8 11.0 3.55 15.25 13.8 25.55 27.45 11.85 23.2 7.6" fill="#59b6f2" fill-rule="evenodd" stroke="none"/>
    <path d="M29.15 15.1 Q29.15 9.55 25.25 5.65 21.3 1.7 15.75 1.7 10.2 1.7 6.3 5.65 2.4 9.55 2.4 15.1 2.4 20.65 6.3 24.6 10.2 28.5 15.75 28.5 21.3 28.5 25.25 24.6 29.15 20.65 29.15 15.1 M31.5 15.75 Q31.5 22.3 26.9 26.9 22.3 31.55 15.75 31.55 9.25 31.55 4.65 26.9 0.0 22.3 0.0 15.75 0.0 9.25 4.65 4.65 9.25 0.0 15.75 0.0 22.3 0.0 26.9 4.65 31.5 9.25 31.5 15.75" fill="#4a4eb0" fill-rule="evenodd" stroke="none"/>
  </g>
</svg>
