<?xml version="1.0" encoding="UTF-8" standalone="no"?>
<svg xmlns:ffdec="https://www.free-decompiler.com/flash" xmlns:xlink="http://www.w3.org/1999/xlink" ffdec:objectType="shape" height="38.5px" width="38.5px" xmlns="http://www.w3.org/2000/svg">
  <g transform="matrix(1.0, 0.0, 0.0, 1.0, 19.25, 19.25)">
    <path d="M7.45 -17.75 Q10.95 -16.3 13.6 -13.65 16.3 -10.95 17.75 -7.45 19.25 -3.9 19.25 0.0 19.25 3.9 17.75 7.5 16.3 10.95 13.6 13.65 10.95 16.3 7.45 17.75 3.9 19.25 0.0 19.25 -3.9 19.25 -7.45 17.75 -10.95 16.3 -13.65 13.65 -16.3 10.95 -17.75 7.5 -19.25 3.9 -19.25 0.0 -19.25 -3.9 -17.75 -7.45 -16.3 -10.95 -13.65 -13.65 -10.95 -16.3 -7.45 -17.75 -3.9 -19.25 0.0 -19.25 3.9 -19.25 7.45 -17.75 M11.45 -11.45 Q6.7 -16.2 0.0 -16.2 -6.7 -16.2 -11.45 -11.45 -16.2 -6.7 -16.2 0.0 -16.2 6.7 -11.45 11.45 -6.7 16.2 0.0 16.2 6.7 16.2 11.45 11.45 16.2 6.7 16.2 0.0 16.2 -6.7 11.45 -11.45 16.2 -6.7 16.2 0.0 16.2 6.7 11.45 11.45 6.7 16.2 0.0 16.2 -6.7 16.2 -11.45 11.45 -16.2 6.7 -16.2 0.0 -16.2 -6.7 -11.45 -11.45 -6.7 -16.2 0.0 -16.2 6.7 -16.2 11.45 -11.45" fill="#82b6e2" fill-rule="evenodd" stroke="none"/>
    <path d="M2.95 -14.35 L1.45 -14.55 0.0 -15.35 -1.6 -14.45 -2.6 -14.35 -2.55 -13.95 -3.25 -13.55 -3.75 -13.7 -4.1 -14.0 0.0 -16.25 3.55 -14.25 2.95 -14.35" fill="#ffffff" fill-rule="evenodd" stroke="none"/>
    <path d="M5.8 -10.2 L5.9 -12.05 5.9 -12.1 7.2 -11.35 7.2 -5.1 0.0 -1.1 -7.25 -5.1 -7.25 -11.35 -5.75 -12.2 -5.5 -10.1 -5.4 -9.15 -5.2 -8.25 -4.55 -7.3 -4.15 -7.55 -3.8 -7.45 -3.65 -7.05 -3.75 -6.75 -4.0 -6.65 -1.65 -3.4 -1.55 -3.2 -1.5 -3.2 -1.3 -3.35 2.6 -6.1 4.9 -7.9 5.3 -8.2 5.8 -8.7 5.85 -9.8 5.2 -9.55 Q5.05 -9.55 5.05 -9.7 L5.15 -10.0 Q5.3 -10.25 5.8 -10.2" fill="#ff91d1" fill-rule="evenodd" stroke="none"/>
    <path d="M-3.0 -13.6 L-3.25 -13.55 -2.55 -13.95 Q-2.65 -13.7 -3.0 -13.6" fill="#ff91d1" fill-rule="evenodd" stroke="none"/>
    <path d="M1.45 -14.55 L0.4 -14.55 -1.6 -14.45 0.0 -15.35 1.45 -14.55" fill="#ff91d1" fill-rule="evenodd" stroke="none"/>
    <path d="M1.95 -13.35 L0.9 -13.6 -0.1 -13.35 -0.55 -12.75 -0.1 -12.1 Q0.3 -11.85 0.9 -11.85 L1.85 -12.05 2.35 -12.55 2.4 -12.75 1.95 -13.35 M4.6 -13.45 L5.35 -12.95 5.4 -12.95 1.2 -10.3 0.3 -10.65 -0.8 -10.4 -1.25 -9.75 -0.95 -8.95 -1.5 -8.6 -3.3 -10.65 Q-3.0 -10.85 -3.0 -11.15 L-3.1 -11.65 Q-3.3 -11.9 -3.6 -11.95 L-4.3 -11.9 -4.3 -11.85 -5.3 -13.0 -5.25 -13.0 -4.25 -13.45 -4.2 -13.5 Q-3.9 -13.1 -3.25 -13.1 L-2.45 -13.35 Q-2.1 -13.6 -2.1 -13.95 L1.2 -14.05 1.65 -14.05 2.9 -13.9 4.6 -13.45" fill="#ffe45a" fill-rule="evenodd" stroke="none"/>
    <path d="M2.65 -7.9 Q2.7 -8.25 2.35 -8.4 L1.9 -8.4 1.45 -8.25 1.05 -7.45 Q0.95 -6.9 1.5 -7.0 L1.8 -7.15 2.4 -7.5 2.6 -7.75 2.65 -7.9 M-0.9 -8.7 Q-0.65 -8.1 0.2 -8.4 1.1 -8.7 1.2 -10.0 L0.7 -9.05 Q-0.2 -8.4 -0.9 -8.7 M4.0 -10.4 L3.95 -10.85 3.55 -11.15 3.1 -11.05 2.8 -10.6 Q2.7 -10.1 3.1 -10.0 L3.75 -10.1 4.0 -10.4 M5.45 -12.85 L5.4 -10.5 Q5.0 -10.8 4.7 -10.25 4.4 -9.7 4.5 -9.1 4.6 -8.85 4.85 -8.9 5.1 -8.95 5.35 -9.2 L5.35 -8.7 5.05 -8.6 4.6 -8.25 2.3 -6.45 -1.3 -3.35 -1.5 -3.2 -1.5 -4.5 Q-1.1 -4.4 -0.45 -4.9 -0.2 -5.15 -0.15 -5.7 L-0.35 -6.25 -1.45 -6.35 -1.45 -8.6 -0.95 -8.95 -1.25 -9.75 -0.8 -10.4 0.3 -10.65 1.2 -10.3 5.4 -12.95 5.45 -12.85" fill="#c8a41b" fill-rule="evenodd" stroke="none"/>
    <path d="M-5.4 -12.9 L-5.3 -13.0 -4.3 -11.85 -4.1 -11.05 -3.75 -10.4 -3.85 -11.7 -3.5 -11.7 -3.1 -11.65 -3.0 -11.15 Q-3.0 -10.85 -3.3 -10.65 L-1.5 -8.6 -1.45 -8.6 -1.45 -6.35 Q-2.0 -6.4 -1.95 -5.55 -1.9 -4.75 -1.5 -4.55 L-1.35 -5.55 -0.8 -5.9 -0.15 -5.7 Q-0.2 -5.15 -0.45 -4.9 -1.1 -4.4 -1.5 -4.5 L-1.5 -3.2 -1.55 -3.2 -1.85 -3.75 -1.9 -3.85 -2.3 -4.6 -2.35 -4.6 -3.5 -6.55 -3.25 -6.8 Q-3.1 -7.4 -3.55 -7.75 L-4.35 -7.9 -4.55 -8.2 -4.8 -8.5 -4.95 -9.2 -5.05 -10.15 -5.35 -12.85 -5.4 -12.9" fill="#dfc140" fill-rule="evenodd" stroke="none"/>
    <path d="M3.55 -14.25 L4.75 -13.9 5.7 -13.3 5.8 -13.15 5.9 -12.95 5.9 -12.9 5.9 -12.05 5.8 -10.2 Q5.3 -10.25 5.15 -10.0 L5.05 -9.7 Q5.05 -9.55 5.2 -9.55 L5.85 -9.8 5.8 -8.7 5.3 -8.2 4.9 -7.9 2.6 -6.1 -1.3 -3.35 2.3 -6.45 4.6 -8.25 5.05 -8.6 5.35 -8.7 5.35 -9.2 Q5.1 -8.95 4.85 -8.9 4.6 -8.85 4.5 -9.1 4.4 -9.7 4.7 -10.25 5.0 -10.8 5.4 -10.5 L5.45 -12.85 5.4 -12.95 5.35 -12.95 4.6 -13.45 2.9 -13.9 1.65 -14.05 1.2 -14.05 -2.1 -13.95 Q-2.1 -13.6 -2.45 -13.35 L-3.25 -13.1 Q-3.9 -13.1 -4.2 -13.5 L-4.25 -13.45 -5.25 -13.0 -5.4 -12.9 -5.35 -12.85 -5.05 -10.15 -4.95 -9.2 -4.8 -8.5 -4.55 -8.2 -4.35 -7.9 -3.55 -7.75 Q-3.1 -7.4 -3.25 -6.8 L-3.5 -6.55 -2.35 -4.6 -2.3 -4.6 -1.9 -3.85 -1.85 -3.75 -1.65 -3.4 -4.0 -6.65 -3.75 -6.75 -3.65 -7.05 -3.8 -7.45 -4.15 -7.55 -4.55 -7.3 -5.2 -8.25 -5.4 -9.15 -5.5 -10.1 -5.75 -12.2 -5.85 -12.95 -5.85 -13.0 -5.85 -13.05 -5.75 -13.25 -5.45 -13.45 -4.4 -13.9 -4.15 -14.05 -4.1 -14.0 -3.75 -13.7 -3.25 -13.55 -3.0 -13.6 Q-2.65 -13.7 -2.55 -13.95 L-2.6 -14.35 -1.6 -14.45 0.4 -14.55 1.45 -14.55 2.95 -14.35 3.55 -14.25" fill="#a08211" fill-rule="evenodd" stroke="none"/>
    <path d="M1.1 -13.3 L0.4 -13.05 Q0.2 -12.65 0.5 -12.35 L1.1 -12.15 Q1.85 -11.95 2.35 -12.55 L1.85 -12.05 0.9 -11.85 Q0.3 -11.85 -0.1 -12.1 L-0.55 -12.75 -0.1 -13.35 0.9 -13.6 1.95 -13.35 1.1 -13.3" fill="#c8a41b" fill-rule="evenodd" stroke="none"/>
    <path d="M-4.3 -11.9 L-3.6 -11.95 Q-3.3 -11.9 -3.1 -11.65 L-3.5 -11.7 -3.85 -11.7 -3.75 -10.4 -4.1 -11.05 -4.3 -11.85 -4.3 -11.9" fill="#c8a41b" fill-rule="evenodd" stroke="none"/>
    <path d="M1.45 -8.25 L1.9 -8.4 2.35 -8.4 1.9 -7.9 Q1.75 -7.55 2.0 -7.3 L2.2 -7.45 2.4 -7.5 1.8 -7.15 1.5 -7.0 Q0.95 -6.9 1.05 -7.45 L1.45 -8.25" fill="#a08211" fill-rule="evenodd" stroke="none"/>
    <path d="M3.55 -11.15 L3.95 -10.85 3.9 -10.85 3.5 -10.75 3.35 -10.4 3.75 -10.1 3.1 -10.0 Q2.7 -10.1 2.8 -10.6 L3.1 -11.05 3.55 -11.15" fill="#a08211" fill-rule="evenodd" stroke="none"/>
    <path d="M-1.45 -6.35 L-0.35 -6.25 -0.15 -5.7 -0.8 -5.9 -1.35 -5.55 -1.5 -4.55 Q-1.9 -4.75 -1.95 -5.55 -2.0 -6.4 -1.45 -6.35" fill="#a08211" fill-rule="evenodd" stroke="none"/>
    <path d="M0.4 -13.05 L1.1 -13.3 1.95 -13.35 2.4 -12.75 2.35 -12.55 Q1.85 -11.95 1.1 -12.15 L0.5 -12.35 Q0.2 -12.65 0.4 -13.05" fill="#dfc140" fill-rule="evenodd" stroke="none"/>
    <path d="M2.35 -8.4 Q2.7 -8.25 2.65 -7.9 L2.6 -7.75 2.4 -7.5 2.2 -7.45 2.0 -7.3 Q1.75 -7.55 1.9 -7.9 L2.35 -8.4" fill="#dfc140" fill-rule="evenodd" stroke="none"/>
    <path d="M1.2 -10.0 Q1.1 -8.7 0.2 -8.4 -0.65 -8.1 -0.9 -8.7 -0.2 -8.4 0.7 -9.05 L1.2 -10.0" fill="#dfc140" fill-rule="evenodd" stroke="none"/>
    <path d="M3.9 -10.85 L3.95 -10.85 4.0 -10.4 3.75 -10.1 3.35 -10.4 3.5 -10.75 3.9 -10.85" fill="#dfc140" fill-rule="evenodd" stroke="none"/>
    <path d="M0.0 8.65 L-8.05 13.1 -16.05 8.65 -16.05 7.05 -8.05 11.45 0.0 7.05 8.0 11.45 16.05 7.05 16.05 8.65 8.0 13.1 0.0 8.65" fill="#231f20" fill-rule="evenodd" stroke="none"/>
    <path d="M-4.75 -2.75 L-4.8 -2.85 -4.55 -2.7 -4.75 -2.75" fill="#ffffff" fill-rule="evenodd" stroke="none"/>
    <path d="M-9.85 7.65 Q-9.95 6.7 -10.15 6.3 -8.95 7.05 -7.55 6.85 -6.3 6.65 -5.25 5.7 -4.25 4.75 -3.9 3.5 -3.55 2.1 -4.2 0.85 L-2.7 0.9 Q-1.65 0.8 -1.4 0.35 L-1.45 0.05 -1.55 -0.05 -1.65 -0.2 -0.8 0.25 -0.8 6.55 -8.05 10.55 -10.95 8.95 -10.05 8.85 Q-9.8 8.65 -9.85 7.65" fill="#fff100" fill-rule="evenodd" stroke="none"/>
    <path d="M-9.05 -1.8 Q-10.35 -1.5 -11.3 -0.5 -12.3 0.5 -12.5 1.75 -12.7 3.15 -11.8 4.35 L-14.25 4.3 -14.35 4.75 -13.45 5.25 Q-13.9 5.9 -13.15 6.75 L-11.9 8.15 -11.55 8.6 -15.3 6.55 -15.3 0.25 -8.05 -3.7 -6.25 -2.7 -6.4 -1.45 Q-7.65 -2.1 -9.05 -1.8" fill="#fff100" fill-rule="evenodd" stroke="none"/>
    <path d="M-15.3 0.25 L-15.3 6.55 -11.55 8.6 -10.95 8.95 -8.05 10.55 -0.8 6.55 -0.8 0.25 -1.65 -0.2 -2.6 -1.6 -3.55 -2.6 -3.95 -2.7 -4.55 -2.7 -4.8 -2.85 -5.0 -3.55 -5.85 -3.4 -6.25 -2.7 -8.05 -3.7 -15.3 0.25 M5.9 -12.1 L5.9 -12.9 5.9 -12.95 7.9 -11.85 7.9 -4.6 4.95 -2.95 8.0 -4.6 10.9 -3.05 10.35 -2.45 8.0 -3.7 0.8 0.25 0.8 6.55 8.0 10.55 15.25 6.55 15.25 0.25 11.85 -1.6 12.25 -2.25 16.05 -0.2 16.05 7.05 8.0 11.45 0.0 7.05 -8.05 11.45 -16.05 7.05 -16.05 -0.2 -8.05 -4.6 -8.05 -11.85 -5.85 -13.05 -5.85 -13.0 -5.85 -12.95 -5.75 -12.2 -7.25 -11.35 -7.25 -5.1 0.0 -1.1 7.2 -5.1 7.2 -11.35 5.9 -12.1" fill="#ffffff" fill-rule="evenodd" stroke="none"/>
    <path d="M12.85 0.4 L11.7 -1.15 11.85 -1.6 15.25 0.25 15.25 6.55 8.0 10.55 0.8 6.55 0.8 0.25 8.0 -3.7 10.35 -2.45 9.9 -2.05 9.45 -1.9 7.05 -1.65 4.7 -1.15 Q3.7 -0.7 3.15 0.2 2.75 0.85 2.65 1.5 2.45 2.95 3.05 4.35 3.45 5.2 4.0 5.75 L3.75 5.8 3.35 5.85 3.3 5.85 3.25 5.9 3.45 6.3 3.35 6.3 3.65 6.55 4.25 7.0 4.6 7.05 4.75 7.2 5.6 8.15 5.85 8.45 5.9 8.6 5.95 8.7 6.05 8.7 6.2 8.65 6.3 8.5 6.3 8.25 6.4 8.25 6.45 8.25 7.0 8.4 7.35 8.75 7.4 8.75 7.7 8.45 7.65 8.4 7.4 7.8 9.6 7.95 Q11.4 7.9 12.75 6.95 13.8 6.35 14.2 5.0 14.65 3.65 14.15 2.45 13.75 1.5 12.85 0.4" fill="#80cfff" fill-rule="evenodd" stroke="none"/>
    <path d="M-4.75 -2.3 L-3.75 -2.2 -3.65 -2.15 -3.6 -2.1 -3.55 -2.05 -3.45 -1.95 -3.35 -1.9 -3.25 -1.75 -2.9 -1.3 -3.1 -0.65 Q-3.3 -0.1 -4.0 -0.1 -4.7 -0.15 -5.05 -0.65 -5.25 -0.75 -5.25 -1.2 L-5.25 -2.0 -5.65 -1.3 -5.7 -0.45 -5.95 -1.15 -5.95 -1.4 -5.95 -1.9 -5.9 -1.9 -5.9 -2.1 -5.8 -2.35 -5.75 -2.45 -5.7 -2.55 -5.7 -2.6 -5.45 -3.0 Q-5.3 -2.35 -4.75 -2.3" fill="#78caff" fill-rule="evenodd" stroke="none"/>
    <path d="M-13.45 4.7 L-11.85 4.65 Q-11.55 4.9 -11.8 5.2 L-12.4 5.6 -11.7 5.5 -11.15 5.15 -11.15 6.05 -11.5 6.7 -12.15 6.95 -12.2 6.9 -12.3 6.8 -12.4 6.65 -12.75 6.45 Q-13.25 6.2 -13.15 5.95 L-12.95 5.4 -13.05 4.95 -13.45 4.7" fill="#78caff" fill-rule="evenodd" stroke="none"/>
    <path d="M-11.0 2.25 L-10.65 2.15 -10.45 1.85 Q-10.4 1.65 -10.5 1.55 -10.6 1.4 -10.8 1.35 L-11.15 1.45 -11.35 1.7 -11.25 2.05 -11.0 2.25 -11.55 3.25 Q-11.75 3.75 -11.6 4.3 L-11.6 4.25 -11.7 4.15 -11.95 3.8 -12.0 3.65 -12.2 3.15 -12.2 2.9 -12.2 2.3 -12.1 1.85 -11.95 1.45 -11.65 0.9 -11.1 0.1 -10.75 -0.25 -9.95 -0.85 -9.65 -1.0 -9.35 -1.1 -8.9 -1.25 -8.55 -1.3 -7.9 -1.3 -7.85 -1.3 -7.25 -1.2 -7.1 -1.1 -7.0 -1.1 -7.35 -0.95 -5.7 -0.05 Q-6.2 -0.05 -6.5 0.25 -6.8 0.6 -6.6 1.05 -6.6 0.65 -6.1 0.35 -5.65 0.05 -5.55 0.6 -5.1 2.8 -6.85 3.95 -8.4 4.95 -10.55 4.55 -10.25 3.95 -10.25 3.5 L-10.65 3.9 -10.85 4.4 -11.15 3.4 -11.0 2.25 M-8.4 -0.45 Q-8.6 -0.75 -9.05 -0.75 L-10.0 -0.45 -10.65 0.3 Q-10.85 0.75 -10.65 1.05 -10.45 1.35 -9.95 1.35 -9.5 1.35 -9.05 1.0 L-8.4 0.3 Q-8.2 -0.15 -8.4 -0.45" fill="#78caff" fill-rule="evenodd" stroke="none"/>
    <path d="M-10.85 4.4 L-10.65 3.9 -10.25 3.5 Q-10.25 3.95 -10.55 4.55 -8.4 4.95 -6.85 3.95 -5.1 2.8 -5.55 0.6 -5.65 0.05 -6.1 0.35 -6.6 0.65 -6.6 1.05 -6.8 0.6 -6.5 0.25 -6.2 -0.05 -5.7 -0.05 L-7.35 -0.95 -7.0 -1.1 -6.9 -1.05 -6.75 -1.0 -6.05 -0.55 -5.75 -0.25 -5.85 -0.7 -5.95 -1.15 -5.7 -0.45 -5.65 -1.3 -5.25 -2.0 -5.25 -1.2 Q-5.25 -0.75 -5.05 -0.65 -4.7 -0.15 -4.0 -0.1 -3.3 -0.1 -3.1 -0.65 L-2.9 -1.3 -2.35 -0.35 -2.25 -0.2 -2.2 -0.15 -2.15 -0.05 -1.95 0.2 -2.6 0.4 -5.45 0.3 Q-4.1 1.3 -4.15 2.65 -4.25 3.9 -5.35 4.95 -6.45 6.0 -7.9 6.25 -9.5 6.5 -10.75 5.5 -10.45 6.15 -10.4 7.0 -10.3 7.75 -10.5 8.5 L-10.65 8.5 -10.85 8.45 -10.9 8.45 -11.05 8.35 -11.2 8.25 -11.45 8.0 -11.45 7.95 -11.6 7.8 -11.7 7.65 -12.0 7.15 -12.15 6.95 -11.5 6.7 -11.15 6.05 -11.15 5.15 -11.7 5.5 -12.4 5.6 -11.8 5.2 Q-11.55 4.9 -11.85 4.65 L-11.15 4.65 -11.4 4.5 -11.6 4.3 Q-11.75 3.75 -11.55 3.25 L-11.0 2.25 -11.15 3.4 -10.85 4.4" fill="#4aafe5" fill-rule="evenodd" stroke="none"/>
    <path d="M-11.3 -0.5 Q-10.35 -1.5 -9.05 -1.8 -7.65 -2.1 -6.4 -1.45 L-6.25 -2.7 -5.85 -3.4 -5.0 -3.55 -4.8 -2.85 -4.75 -2.75 -4.55 -2.7 -3.95 -2.7 -3.55 -2.6 -2.6 -1.6 -1.65 -0.2 -1.55 -0.05 -1.45 0.05 -1.4 0.35 Q-1.65 0.8 -2.7 0.9 L-4.2 0.85 Q-3.55 2.1 -3.9 3.5 -4.25 4.75 -5.25 5.7 -6.3 6.65 -7.55 6.85 -8.95 7.05 -10.15 6.3 -9.95 6.7 -9.85 7.65 -9.8 8.65 -10.05 8.85 L-10.95 8.95 -11.55 8.6 -11.9 8.15 -13.15 6.75 Q-13.9 5.9 -13.45 5.25 L-14.35 4.75 -14.25 4.3 -11.8 4.35 Q-12.7 3.15 -12.5 1.75 -12.3 0.5 -11.3 -0.5 M-9.0 -1.2 L-9.65 -1.0 -9.95 -0.85 -10.75 -0.25 -11.1 0.1 -11.65 0.9 -11.95 1.45 -12.1 1.85 -12.2 2.6 -12.2 2.9 -12.2 3.15 -12.0 3.65 -11.95 3.8 -11.7 4.15 -11.6 4.25 -11.6 4.3 -11.4 4.5 -11.15 4.65 -12.6 4.65 -13.45 4.7 -13.05 4.95 -12.95 5.4 -13.15 5.95 Q-13.25 6.2 -12.75 6.45 L-12.4 6.65 -12.2 6.9 -11.7 7.65 -11.6 7.8 -11.45 7.95 -11.45 8.0 -11.2 8.25 -11.05 8.35 -10.9 8.45 -10.85 8.45 -10.65 8.5 -10.5 8.5 Q-10.3 7.75 -10.4 7.0 -10.45 6.15 -10.75 5.5 -9.5 6.5 -7.9 6.25 -6.45 6.0 -5.35 4.95 -4.25 3.9 -4.15 2.65 -4.1 1.3 -5.45 0.3 L-2.6 0.4 -1.95 0.2 -2.15 -0.05 -2.2 -0.15 -2.25 -0.2 -2.35 -0.35 -3.25 -1.75 -3.35 -1.9 -3.45 -1.95 -3.55 -2.05 -3.6 -2.1 -3.65 -2.15 -3.75 -2.2 -4.75 -2.3 Q-5.3 -2.35 -5.45 -3.0 L-5.7 -2.6 -5.7 -2.55 -5.75 -2.45 -5.8 -2.35 -5.9 -2.1 -5.9 -1.9 -5.95 -1.9 -5.95 -1.4 -5.85 -0.7 -5.75 -0.25 -6.05 -0.55 -6.75 -1.0 -6.9 -1.05 -7.0 -1.1 -7.1 -1.1 -7.25 -1.2 -7.85 -1.3 -7.9 -1.3 -8.55 -1.3 -9.0 -1.2" fill="#2f85ab" fill-rule="evenodd" stroke="none"/>
    <path d="M-9.05 1.0 Q-9.5 1.35 -9.95 1.35 -10.45 1.35 -10.65 1.05 -10.85 0.75 -10.65 0.3 L-10.0 -0.45 -9.05 -0.75 Q-8.6 -0.75 -8.4 -0.45 -8.2 -0.15 -8.4 0.3 L-9.05 1.0" fill="#edf9ff" fill-rule="evenodd" stroke="none"/>
    <path d="M-10.65 2.15 L-11.0 2.25 -11.25 2.05 -11.35 1.7 -11.15 1.45 -10.8 1.35 Q-10.6 1.4 -10.5 1.55 -10.4 1.65 -10.45 1.85 L-10.65 2.15" fill="#edf9ff" fill-rule="evenodd" stroke="none"/>
    <path d="M5.25 -0.05 Q4.85 0.25 4.85 0.75 4.85 1.25 5.25 1.55 5.65 1.9 6.25 1.9 L7.25 1.55 7.7 0.75 7.25 -0.05 6.25 -0.4 Q5.7 -0.4 5.25 -0.05 M12.45 -3.15 L12.4 -3.1 12.35 -3.05 Q11.3 -2.8 11.0 -2.2 L11.0 -1.75 11.05 -1.2 10.1 -1.3 10.2 -1.3 10.65 -0.85 Q10.9 -0.55 11.15 -0.6 L11.2 -0.35 11.55 1.3 11.8 2.85 Q11.8 4.7 10.25 5.55 9.5 6.05 8.5 6.2 L8.55 6.2 8.85 6.0 8.9 5.95 9.2 5.75 9.8 5.2 9.85 5.1 10.05 4.9 10.1 4.8 10.25 4.55 10.5 4.2 10.65 3.85 10.65 3.8 Q11.35 2.2 10.9 0.55 L10.75 -0.1 10.75 0.25 10.8 0.7 10.75 0.8 10.75 1.0 10.7 1.5 10.6 2.05 10.35 2.7 10.15 3.15 10.0 3.4 9.95 3.5 9.1 4.55 8.75 4.95 8.4 5.2 7.7 5.6 7.6 5.6 7.2 5.8 7.15 5.8 6.7 5.95 6.65 5.95 6.45 6.0 6.4 6.0 6.2 6.0 9.2 1.45 7.15 3.55 Q6.0 4.85 5.45 5.95 4.3 5.5 3.55 4.7 L3.55 4.65 3.35 4.2 Q2.95 2.8 3.15 1.6 L3.55 0.45 4.9 -0.7 7.05 -1.15 9.55 -1.4 9.85 -1.5 Q10.05 -1.55 10.25 -1.7 L10.65 -2.1 11.25 -2.7 11.25 -2.75 11.5 -3.05 12.45 -3.15" fill="#e99337" fill-rule="evenodd" stroke="none"/>
    <path d="M12.15 -2.85 L11.8 -2.45 Q11.35 -1.9 11.25 -0.95 L12.5 0.7 13.7 2.6 Q14.15 3.7 13.75 4.85 13.4 6.0 12.5 6.6 11.25 7.45 9.6 7.5 L8.35 7.45 7.3 7.35 5.95 7.0 5.05 6.55 4.65 6.3 4.35 6.0 3.9 5.4 3.9 5.35 3.7 5.05 3.7 4.95 3.55 4.7 Q4.3 5.5 5.45 5.95 6.0 4.85 7.15 3.55 L9.2 1.45 6.2 6.0 6.4 6.0 6.45 6.0 6.65 5.95 6.7 5.95 7.15 5.8 7.2 5.8 7.6 5.6 7.7 5.6 8.75 4.95 9.1 4.55 9.55 4.1 10.15 3.15 10.35 2.7 10.6 2.05 10.75 1.0 10.75 0.8 10.8 0.7 10.75 0.25 10.75 -0.1 10.9 0.55 Q11.35 2.2 10.65 3.8 L10.65 3.85 10.5 4.2 10.25 4.55 10.1 4.8 10.05 4.9 9.85 5.1 9.8 5.2 9.2 5.75 8.9 5.95 8.85 6.0 8.55 6.2 8.5 6.2 Q9.5 6.05 10.25 5.55 11.8 4.7 11.8 2.85 L11.55 1.3 11.2 -0.35 11.15 -0.6 Q10.9 -0.55 10.65 -0.85 L10.2 -1.3 10.1 -1.3 11.05 -1.2 11.0 -1.75 11.0 -2.2 Q11.3 -2.8 12.35 -3.05 L12.15 -2.85" fill="#b0701b" fill-rule="evenodd" stroke="none"/>
    <path d="M13.0 -3.55 L12.95 -3.6 12.1 -3.55 11.75 -3.45 11.25 -2.75 11.25 -2.7 10.65 -2.1 10.25 -1.7 Q10.05 -1.55 9.85 -1.5 L9.55 -1.4 7.05 -1.15 4.9 -0.7 3.55 0.45 3.15 1.6 Q2.95 2.8 3.35 4.2 L3.55 4.65 3.7 4.95 3.7 5.05 3.9 5.35 3.9 5.4 4.35 6.0 4.65 6.3 5.05 6.55 5.95 7.0 7.3 7.35 8.35 7.45 9.6 7.5 Q11.25 7.45 12.5 6.6 13.4 6.0 13.75 4.85 14.15 3.7 13.7 2.6 L12.5 0.7 11.25 -0.95 Q11.35 -1.9 11.8 -2.45 L12.15 -2.85 12.4 -3.1 12.55 -3.25 13.0 -3.55 M13.5 -3.8 L13.6 -3.65 13.6 -3.6 13.65 -3.6 13.5 -3.35 13.45 -3.3 13.3 -3.2 12.85 -2.9 12.5 -2.55 12.25 -2.25 11.85 -1.6 11.7 -1.15 12.85 0.4 Q13.75 1.5 14.15 2.45 14.65 3.65 14.2 5.0 13.8 6.35 12.75 6.95 11.4 7.9 9.6 7.95 L7.4 7.8 7.55 8.15 7.65 8.4 7.7 8.45 7.4 8.75 7.35 8.75 7.0 8.4 6.45 8.25 6.4 8.25 6.3 8.25 6.3 8.5 6.2 8.65 6.05 8.7 5.95 8.7 5.9 8.6 5.85 8.45 5.6 8.15 4.75 7.2 4.6 7.05 4.25 7.0 3.65 6.55 3.35 6.3 3.45 6.3 3.4 6.3 3.25 5.9 3.3 5.85 3.35 5.85 3.75 5.8 4.0 5.75 Q3.45 5.2 3.05 4.35 2.45 2.95 2.65 1.5 2.75 0.85 3.15 0.2 3.7 -0.7 4.7 -1.15 L7.05 -1.65 9.45 -1.9 9.9 -2.05 10.35 -2.45 10.9 -3.05 11.05 -3.25 11.35 -3.7 11.7 -3.95 12.0 -4.0 13.0 -4.05 13.5 -3.8" fill="#784810" fill-rule="evenodd" stroke="none"/>
    <path d="M12.45 -3.15 L11.5 -3.05 11.75 -3.45 12.1 -3.55 12.95 -3.6 13.0 -3.55 12.55 -3.25 12.45 -3.15" fill="#ffe9cc" fill-rule="evenodd" stroke="none"/>
    <path d="M4.85 0.75 Q4.85 0.25 5.25 -0.05 5.7 -0.4 6.25 -0.4 L7.25 -0.05 7.7 0.75 7.25 1.55 6.25 1.9 Q5.65 1.9 5.25 1.55 4.85 1.25 4.85 0.75" fill="#ffe9cc" fill-rule="evenodd" stroke="none"/>
  </g>
</svg>
