<?xml version="1.0" encoding="UTF-8" standalone="no"?>
<svg xmlns:ffdec="https://www.free-decompiler.com/flash" xmlns:xlink="http://www.w3.org/1999/xlink" ffdec:objectType="shape" height="44.45px" width="42.8px" xmlns="http://www.w3.org/2000/svg">
  <g transform="matrix(1.0, 0.0, 0.0, 1.0, 21.4, 22.25)">
    <path d="M-15.15 -15.1 Q-8.85 -21.4 0.0 -21.4 8.85 -21.4 15.1 -15.1 21.4 -8.8 21.4 0.05 21.4 8.9 15.1 15.15 8.85 21.4 0.0 21.4 -8.85 21.4 -15.15 15.15 -21.4 8.9 -21.4 0.05 -21.4 -8.8 -15.15 -15.1" fill="#6edb87" fill-rule="evenodd" stroke="none"/>
    <path d="M-12.2 -1.8 Q-7.85 -3.55 -5.95 -0.1 -4.35 2.75 -5.85 2.85 L-7.65 2.65 -10.05 2.3 -12.55 2.5 -14.5 3.05 -15.75 3.1 Q-16.25 2.85 -16.25 1.8 -16.25 1.1 -15.05 0.0 -13.8 -1.15 -12.2 -1.8" fill="#e4ae2b" fill-rule="evenodd" stroke="none"/>
    <path d="M-13.4 -0.7 L-12.2 -0.9 Q-11.7 -0.75 -11.6 -0.25 -11.3 1.05 -13.1 1.8 -14.8 2.5 -14.65 1.2 -14.55 -0.05 -13.4 -0.7" fill="#ffcc40" fill-rule="evenodd" stroke="none"/>
    <path d="M11.8 -1.95 Q13.5 -1.5 14.9 -0.5 16.2 0.45 16.3 1.2 16.4 2.2 16.0 2.5 L14.7 2.6 12.7 2.35 10.2 2.4 Q9.45 2.55 7.9 3.05 L6.1 3.55 Q4.6 3.6 5.85 0.55 7.3 -3.15 11.8 -1.95" fill="#e4ae2b" fill-rule="evenodd" stroke="none"/>
    <path d="M13.7 -0.8 Q15.85 0.3 15.3 1.15 L12.9 1.3 Q11.25 0.65 11.75 -0.45 L12.5 -1.0 13.7 -0.8" fill="#ffcc40" fill-rule="evenodd" stroke="none"/>
    <path d="M-7.0 4.95 Q-6.7 0.8 -4.9 -2.3 -2.95 -5.6 -0.4 -5.6 2.55 -5.65 4.95 -2.45 7.2 0.55 7.75 4.6 8.35 8.9 6.6 11.75 4.6 15.05 0.05 15.2 -3.85 15.3 -5.7 12.1 -7.3 9.3 -7.0 4.95" fill="#e4ae2b" fill-rule="evenodd" stroke="none"/>
    <path d="M-5.25 0.75 Q-5.3 -0.6 -4.2 -1.75 -3.1 -2.9 -1.35 -3.15 1.75 -3.55 3.7 -2.4 5.4 -1.35 5.6 0.4 5.8 2.15 4.45 3.35 2.9 4.65 0.2 4.5 -2.5 4.3 -3.95 3.2 -5.25 2.2 -5.25 0.75" fill="#ffcc40" fill-rule="evenodd" stroke="none"/>
    <path d="M9.1 -7.5 Q8.85 -5.15 6.9 -3.65 4.3 -1.65 0.25 -1.5 -4.25 -1.3 -6.9 -3.9 -8.4 -5.45 -8.55 -7.85 -8.65 -10.1 -7.55 -12.35 -6.45 -14.65 -4.5 -16.0 -2.4 -17.5 0.1 -17.4 2.6 -17.3 4.85 -15.75 6.9 -14.25 8.1 -12.0 9.3 -9.7 9.1 -7.5" fill="#e4ae2b" fill-rule="evenodd" stroke="none"/>
    <path d="M7.6 -9.35 Q8.25 -7.6 7.4 -5.75 6.55 -3.8 4.3 -2.4 2.25 -1.1 0.15 -1.15 -2.25 -1.15 -4.4 -2.85 -6.25 -4.25 -7.0 -6.05 -7.75 -7.8 -7.25 -9.4 -6.75 -11.1 -5.0 -12.1 -3.15 -13.2 -0.3 -13.25 2.85 -13.35 4.95 -12.2 6.95 -11.15 7.6 -9.35" fill="#ffcc40" fill-rule="evenodd" stroke="none"/>
    <path d="M-6.35 -8.95 Q-5.3 -9.55 -4.6 -8.55 -3.95 -7.5 -4.95 -7.05 -6.3 -6.45 -6.8 -7.45 L-6.9 -8.25 -6.35 -8.95" fill="#231f20" fill-rule="evenodd" stroke="none"/>
    <path d="M-5.7 -8.85 Q-5.25 -9.05 -5.1 -8.65 -4.95 -8.25 -5.5 -8.15 -6.05 -8.05 -6.1 -8.35 L-5.7 -8.85" fill="#fdfdfd" fill-rule="evenodd" stroke="none"/>
    <path d="M5.35 -8.95 Q6.4 -9.55 7.1 -8.55 L7.3 -7.7 6.75 -7.05 Q5.4 -6.45 4.9 -7.45 4.7 -7.85 4.8 -8.25 4.95 -8.75 5.35 -8.95" fill="#231f20" fill-rule="evenodd" stroke="none"/>
    <path d="M6.0 -8.85 Q6.45 -9.05 6.6 -8.65 6.75 -8.25 6.15 -8.15 5.65 -8.05 5.6 -8.35 5.55 -8.65 6.0 -8.85" fill="#fdfdfd" fill-rule="evenodd" stroke="none"/>
    <path d="M2.2 -7.7 L3.2 -6.05 2.05 -4.5 Q0.75 -2.95 0.05 -2.9 -0.55 -2.95 -2.0 -4.45 L-3.35 -5.85 -1.95 -7.65 Q-0.4 -9.4 0.25 -9.4 1.05 -9.4 2.2 -7.7" fill="#f59122" fill-rule="evenodd" stroke="none"/>
    <path d="M-2.2 -5.9 L-1.35 -6.4 0.05 -6.9 Q0.65 -6.9 1.95 -6.0 L1.25 -5.35 Q0.5 -4.7 0.05 -4.7 L-1.35 -5.3 -2.2 -5.9" fill="#ef5c27" fill-rule="evenodd" stroke="none"/>
    <path d="M0.15 -8.5 Q0.65 -8.6 0.85 -8.15 1.0 -7.65 0.6 -7.55 0.05 -7.35 -0.2 -7.85 -0.4 -8.35 0.15 -8.5" fill="#fdfdfd" fill-rule="evenodd" stroke="none"/>
    <path d="M0.8 -22.25 Q3.6 -22.2 6.45 -19.05 9.5 -15.7 10.75 -10.85 L6.05 -12.85 4.1 -10.35 -0.15 -12.65 -3.65 -9.85 -5.85 -12.85 -10.75 -9.85 Q-9.6 -14.95 -5.85 -18.75 -2.35 -22.3 0.8 -22.25" fill="#e3efc8" fill-rule="evenodd" stroke="none"/>
    <path d="M8.1 -16.7 L9.4 -14.4 10.65 -10.75 8.55 -11.75 Q8.75 -13.75 8.1 -16.7" fill="#bac698" fill-rule="evenodd" stroke="none"/>
    <path d="M0.75 -20.75 L2.2 -20.85 Q3.0 -20.6 3.6 -19.95 4.25 -19.25 4.35 -18.55 4.45 -17.8 3.75 -17.3 2.4 -16.35 1.1 -18.25 0.6 -19.0 0.45 -19.7 0.35 -20.5 0.75 -20.75" fill="#fdfdfd" fill-rule="evenodd" stroke="none"/>
    <path d="M-3.65 -9.85 L-5.85 -12.85 -10.1 -10.25 -5.8 -13.55 -3.6 -10.55 -0.3 -13.25 3.8 -11.25 5.7 -13.65 10.75 -10.85 6.05 -12.85 4.1 -10.35 -0.15 -12.65 -3.65 -9.85" fill="#bac698" fill-rule="evenodd" stroke="none"/>
    <path d="M-10.75 7.4 L-5.85 4.4 -3.65 7.4 -0.15 4.6 4.1 6.9 6.05 4.4 10.75 6.4 Q11.7 10.2 11.3 14.1 10.95 17.75 7.7 20.05 4.75 22.15 0.65 22.2 -3.5 22.35 -6.65 20.25 -10.1 17.95 -10.9 13.75 -11.45 10.6 -10.75 7.4" fill="#e3efc8" fill-rule="evenodd" stroke="none"/>
    <path d="M8.7 5.6 L10.75 6.4 Q11.8 11.75 11.15 14.8 10.3 18.75 6.5 20.65 3.7 22.05 0.6 22.15 -2.35 22.25 -4.9 21.1 -7.5 19.95 -9.05 17.8 -10.7 15.55 -10.9 12.6 -8.7 16.3 -5.4 17.4 -2.4 18.35 0.75 16.95 3.85 15.65 6.0 12.65 8.25 9.45 8.7 5.6" fill="#bac698" fill-rule="evenodd" stroke="none"/>
    <path d="M-9.2 6.5 L-5.85 4.4 -3.65 7.4 -0.15 4.6 4.1 6.9 6.05 4.4 9.0 5.7 6.4 5.4 4.3 7.4 -0.1 5.4 -3.7 7.8 -6.0 5.1 -9.2 6.5" fill="#fdfdfd" fill-rule="evenodd" stroke="none"/>
  </g>
</svg>
