<?xml version="1.0" encoding="UTF-8" standalone="no"?>
<svg xmlns:ffdec="https://www.free-decompiler.com/flash" xmlns:xlink="http://www.w3.org/1999/xlink" ffdec:objectType="shape" height="42.8px" width="45.65px" xmlns="http://www.w3.org/2000/svg">
  <g transform="matrix(1.0, 0.0, 0.0, 1.0, 22.4, 21.4)">
    <path d="M15.1 -15.1 Q21.4 -8.8 21.4 0.05 21.4 8.9 15.1 15.15 8.85 21.4 0.0 21.4 -8.85 21.4 -15.15 15.15 -21.4 8.9 -21.4 0.05 -21.4 -8.8 -15.15 -15.1 -8.85 -21.4 0.0 -21.4 8.85 -21.4 15.1 -15.1" fill="#f5807d" fill-rule="evenodd" stroke="none"/>
    <path d="M5.75 -11.8 Q6.95 -11.45 5.8 -10.7 4.85 -10.05 4.0 -10.85 L3.65 -11.45 Q3.6 -11.8 3.85 -11.9 L5.75 -11.8 M12.1 -6.05 Q10.25 -6.9 8.0 -6.5 5.85 -6.15 4.15 -4.8 2.0 -3.1 0.9 -1.6 -0.6 0.55 -0.15 2.6 L-1.1 2.7 Q-1.15 2.25 -1.95 -0.5 L-2.8 -3.7 Q-0.6 -4.4 4.0 -6.7 8.55 -9.0 9.2 -9.75 L10.55 -8.25 12.1 -6.05 M18.95 -0.5 Q18.95 0.45 17.75 0.05 16.5 -0.4 17.05 -0.9 L18.25 -1.05 18.95 -0.5 M19.2 1.8 Q19.7 1.05 20.15 1.45 20.45 1.7 20.0 2.2 19.5 2.7 19.0 2.65 18.75 2.6 19.2 1.8 M8.15 7.6 Q8.9 7.6 8.5 8.25 8.2 8.75 7.15 8.45 6.1 8.2 6.5 8.0 7.5 7.55 8.15 7.6" fill="#fdfdfd" fill-rule="evenodd" stroke="none"/>
    <path d="M5.75 -11.8 L3.85 -11.9 Q3.6 -11.8 3.65 -11.45 L4.0 -10.85 Q4.85 -10.05 5.8 -10.7 6.95 -11.45 5.75 -11.8 M7.55 -11.2 Q7.7 -10.55 3.7 -8.7 -0.55 -6.65 -3.4 -6.5 -6.3 -6.35 -9.5 -7.6 -12.4 -8.75 -12.15 -9.3 -11.65 -10.5 -6.75 -12.85 -2.1 -15.05 -0.65 -15.1 0.1 -15.1 3.7 -13.4 7.4 -11.7 7.55 -11.2 M4.25 6.9 L2.2 5.1 Q0.7 3.9 -0.45 3.5 2.5 3.25 8.05 0.4 13.55 -2.4 13.7 -3.7 L16.9 -2.2 Q19.7 -0.8 19.95 -0.45 L18.1 1.65 18.4 1.3 12.85 -1.3 17.65 2.05 Q15.6 3.85 13.0 5.05 11.15 5.9 9.2 6.35 L4.75 2.7 7.4 6.7 4.25 6.9 M18.95 -0.5 L18.25 -1.05 17.05 -0.9 Q16.5 -0.4 17.75 0.05 18.95 0.45 18.95 -0.5" fill="#cd4f62" fill-rule="evenodd" stroke="none"/>
    <path d="M-0.15 2.6 Q-0.6 0.55 0.9 -1.6 2.0 -3.1 4.15 -4.8 5.85 -6.15 8.0 -6.5 10.25 -6.9 12.1 -6.05 L13.1 -4.2 Q12.35 -2.45 7.7 -0.15 3.3 2.05 -0.15 2.6 M-15.3 -4.7 L-13.8 -6.8 -12.9 -7.95 Q-12.4 -7.0 -9.85 -5.75 L-10.15 -4.8 Q-12.7 -5.6 -15.3 -4.7 M-8.4 -4.0 L-8.15 -4.95 Q-5.75 -3.95 -4.45 -3.75 L-3.2 1.7 Q-5.2 -2.05 -8.25 -3.9 L-8.4 -4.0" fill="#9fe8ff" fill-rule="evenodd" stroke="none"/>
    <path d="M-0.15 2.6 Q3.3 2.05 7.7 -0.15 12.35 -2.45 13.1 -4.2 L12.1 -6.05 10.55 -8.25 9.2 -9.75 Q8.55 -9.0 4.0 -6.7 -0.6 -4.4 -2.8 -3.7 L-1.95 -0.5 Q-1.15 2.25 -1.1 2.7 L-0.15 2.6 M7.55 -11.2 Q7.4 -11.7 3.7 -13.4 0.1 -15.1 -0.65 -15.1 -2.1 -15.05 -6.75 -12.85 -11.65 -10.5 -12.15 -9.3 -12.4 -8.75 -9.5 -7.6 -6.3 -6.35 -3.4 -6.5 -0.55 -6.65 3.7 -8.7 7.7 -10.55 7.55 -11.2 M-21.15 -4.15 L-20.9 -5.55 Q-20.7 -6.15 -13.5 -9.65 L-13.25 -9.95 Q-12.2 -11.0 -7.3 -13.35 -2.4 -15.65 -0.9 -15.85 0.45 -16.05 8.85 -11.35 9.95 -10.6 12.2 -7.25 L14.15 -4.3 Q20.2 -1.35 20.7 -0.75 21.4 0.05 22.0 2.55 L22.2 3.5 21.9 3.95 21.75 3.95 Q20.35 5.3 18.1 6.7 L18.2 6.6 18.2 6.5 19.1 5.85 Q19.5 5.8 20.3 5.15 L21.5 3.9 21.5 3.25 21.0 1.8 20.95 1.75 20.95 1.7 19.95 -0.45 Q19.7 -0.8 16.9 -2.2 L13.7 -3.7 Q13.55 -2.4 8.05 0.4 2.5 3.25 -0.45 3.5 0.7 3.9 2.2 5.1 L4.25 6.9 4.3 6.95 Q4.8 7.4 5.45 10.0 L6.2 12.1 5.75 12.1 Q5.1 12.1 3.65 11.15 L2.85 11.2 2.65 11.6 2.7 12.95 2.75 13.4 1.2 12.75 Q1.2 10.25 0.3 8.85 -0.5 7.65 -1.6 7.65 L-1.8 7.65 Q-2.95 7.65 -3.65 8.65 L-3.7 8.75 -3.75 8.75 -3.85 9.0 -3.85 9.05 -3.95 9.2 -4.0 9.25 -4.05 9.4 -4.15 9.6 -4.35 10.45 -4.4 10.45 -4.85 10.25 Q-4.8 8.9 -4.15 7.9 -3.5 6.85 -2.55 6.6 L-4.65 6.85 -8.35 5.25 -10.5 4.25 -10.0 0.45 -9.85 -0.55 Q-9.2 -3.85 -8.55 -5.95 L-8.5 -6.1 -8.65 -6.05 Q-9.35 -5.45 -10.25 -1.05 L-10.5 0.2 -10.85 4.05 -12.75 3.05 -13.05 3.2 -13.2 3.35 -13.25 4.8 -13.15 4.85 -13.55 4.95 -14.65 5.0 -14.65 4.15 Q-14.8 2.75 -15.6 1.5 -16.6 -0.05 -17.8 -0.05 L-17.9 -0.05 Q-18.4 -0.05 -18.75 0.25 -19.35 0.8 -19.65 2.15 L-19.7 2.25 -19.8 2.3 -20.05 2.35 -20.45 1.75 -20.15 0.95 -19.55 0.15 Q-18.9 -0.65 -18.05 -0.75 L-19.7 -0.65 -20.9 -1.45 -21.4 -1.85 -21.4 -2.45 -21.3 -2.95 -21.15 -4.15 M2.05 10.0 Q2.5 9.85 2.05 8.85 1.45 7.55 0.2 6.85 -1.1 6.1 -1.95 6.65 -0.95 6.75 0.05 7.65 0.9 8.45 1.2 9.25 1.6 10.15 2.05 10.0 M-10.15 -4.8 L-9.85 -5.75 Q-12.4 -7.0 -12.9 -7.95 L-13.8 -6.8 -15.3 -4.7 -15.95 -3.65 Q-15.05 -2.55 -11.35 -0.65 L-10.6 -3.3 -10.15 -4.8 M-15.5 -0.5 L-17.55 -0.6 Q-16.55 -0.45 -15.65 0.45 -14.85 1.2 -14.5 2.0 -14.15 2.9 -13.75 2.7 -13.35 2.5 -13.8 1.5 -14.4 0.15 -15.5 -0.5 M-16.95 -3.75 L-16.9 -3.75 -14.15 -8.75 Q-20.1 -5.75 -19.95 -5.4 -19.8 -5.0 -16.95 -3.75 M-3.2 1.7 L-4.45 -3.75 Q-5.75 -3.95 -8.15 -4.95 L-8.4 -4.0 -8.75 -2.55 -9.35 0.35 Q-5.15 2.3 -3.1 2.55 L-3.2 1.7" fill="#8a2c34" fill-rule="evenodd" stroke="none"/>
    <path d="M20.95 1.7 L20.95 1.75 21.0 1.8 21.5 3.25 21.3 3.15 Q20.85 2.9 20.4 2.9 19.8 2.9 19.4 3.35 L18.65 4.1 Q18.25 4.55 18.2 5.0 L17.7 3.95 17.65 3.1 18.65 1.65 Q19.5 0.6 19.9 0.55 20.3 0.55 20.8 1.5 L20.95 1.7 M19.2 1.8 Q18.75 2.6 19.0 2.65 19.5 2.7 20.0 2.2 20.45 1.7 20.15 1.45 19.7 1.05 19.2 1.8 M6.0 11.25 L5.3 9.3 Q5.0 8.1 5.2 7.85 L6.9 7.45 8.7 7.45 9.45 8.15 10.1 9.55 7.95 9.2 Q7.2 9.45 6.65 9.95 6.0 10.55 6.0 11.25 M8.15 7.6 Q7.5 7.55 6.5 8.0 6.1 8.2 7.15 8.45 8.2 8.75 8.5 8.25 8.9 7.6 8.15 7.6" fill="#acbdc0" fill-rule="evenodd" stroke="none"/>
    <path d="M6.2 12.1 L5.45 10.0 Q4.8 7.4 4.3 6.95 L4.25 6.9 7.4 6.7 4.75 2.7 9.2 6.35 Q11.15 5.9 13.0 5.05 15.6 3.85 17.65 2.05 L12.85 -1.3 18.4 1.3 18.1 1.65 19.95 -0.45 20.95 1.7 20.8 1.5 Q20.3 0.55 19.9 0.55 19.5 0.6 18.65 1.65 L17.65 3.1 17.7 3.95 18.2 5.0 Q18.65 5.85 18.95 5.85 L19.1 5.85 18.2 6.5 17.6 4.85 17.1 4.0 Q16.95 3.95 13.8 5.65 10.6 7.35 10.55 7.55 10.45 7.75 10.7 9.0 L11.0 10.4 11.2 10.4 7.35 11.9 7.15 11.95 6.2 12.1 M2.05 10.0 Q1.6 10.15 1.2 9.25 0.9 8.45 0.05 7.65 -0.95 6.75 -1.95 6.65 -1.1 6.1 0.2 6.85 1.45 7.55 2.05 8.85 2.5 9.85 2.05 10.0 M10.1 9.55 L9.45 8.15 8.7 7.45 6.9 7.45 5.2 7.85 Q5.0 8.1 5.3 9.3 L6.0 11.25 6.6 11.9 8.6 11.3 Q10.05 10.75 10.2 10.45 10.35 10.25 10.1 9.55 M-15.5 -0.5 Q-14.4 0.15 -13.8 1.5 -13.35 2.5 -13.75 2.7 -14.15 2.9 -14.5 2.0 -14.85 1.2 -15.65 0.45 -16.55 -0.45 -17.55 -0.6 L-15.5 -0.5 M-16.95 -3.75 Q-19.8 -5.0 -19.95 -5.4 -20.1 -5.75 -14.15 -8.75 L-16.9 -3.75 -16.95 -3.75" fill="#b6414f" fill-rule="evenodd" stroke="none"/>
    <path d="M-21.4 -2.45 L-21.4 -1.85 -20.9 -1.45 -19.7 -0.65 -19.6 -0.6 -20.15 0.95 -20.45 1.75 Q-21.05 1.75 -22.2 0.8 -22.45 0.6 -22.4 -0.6 L-22.25 -2.05 -21.75 -2.55 -21.45 -2.75 -21.35 -2.8 -21.4 -2.45 M-13.15 4.85 L-13.25 4.8 -13.2 3.35 -13.05 3.2 -12.75 3.05 -10.85 4.05 -10.5 5.75 -10.5 4.25 -8.35 5.25 -4.65 6.85 -4.25 7.0 Q-4.95 7.45 -5.1 8.6 L-9.2 6.85 -13.15 4.85 M2.75 13.4 L2.7 12.95 2.65 11.6 2.85 11.2 3.65 11.15 Q5.1 12.1 5.75 12.1 L6.2 12.1 7.15 11.95 6.3 12.15 6.35 12.2 Q6.9 12.9 7.95 13.1 10.05 13.45 14.25 11.65 20.0 9.15 22.55 6.4 L22.55 4.75 22.3 4.1 Q22.15 3.85 21.9 3.95 L22.2 3.5 22.25 3.35 22.9 3.65 Q23.45 5.75 23.1 6.65 22.5 8.45 15.1 12.2 7.85 15.9 5.75 15.75 L4.1 15.1 3.1 14.55 2.8 13.95 2.75 13.4 M18.2 6.5 L18.2 6.6 18.1 6.7 14.95 8.75 11.6 10.25 11.25 10.35 11.2 10.4 11.0 10.4 10.7 9.0 Q10.45 7.75 10.55 7.55 10.6 7.35 13.8 5.65 16.95 3.95 17.1 4.0 L17.6 4.85 18.2 6.5 M14.4 7.5 Q12.15 8.65 11.8 9.15 12.6 9.25 14.75 8.1 16.9 6.95 17.0 6.45 16.7 6.35 14.4 7.5 M14.15 6.3 Q11.6 7.55 11.3 8.05 12.1 8.15 14.45 6.9 16.8 5.65 16.95 5.15 16.6 5.05 14.15 6.3" fill="#222227" fill-rule="evenodd" stroke="none"/>
    <path d="M18.1 6.7 Q20.35 5.3 21.75 3.95 L21.9 3.95 Q22.15 3.85 22.3 4.1 L22.55 4.75 22.55 6.4 Q20.0 9.15 14.25 11.65 10.05 13.45 7.95 13.1 6.9 12.9 6.35 12.2 L6.3 12.15 7.15 11.95 7.35 11.9 11.2 10.4 11.25 10.35 11.6 10.25 14.95 8.75 18.1 6.7 M14.15 6.3 Q16.6 5.05 16.95 5.15 16.8 5.65 14.45 6.9 12.1 8.15 11.3 8.05 11.6 7.55 14.15 6.3 M14.4 7.5 Q16.7 6.35 17.0 6.45 16.9 6.95 14.75 8.1 12.6 9.25 11.8 9.15 12.15 8.65 14.4 7.5" fill="#595863" fill-rule="evenodd" stroke="none"/>
    <path d="M21.5 3.25 L21.5 3.9 20.3 5.15 Q19.5 5.8 19.1 5.85 L18.95 5.85 Q18.65 5.85 18.2 5.0 18.25 4.55 18.65 4.1 L19.4 3.35 Q19.8 2.9 20.4 2.9 20.85 2.9 21.3 3.15 L21.5 3.25 M6.0 11.25 Q6.0 10.55 6.65 9.95 7.2 9.45 7.95 9.2 L10.1 9.55 Q10.35 10.25 10.2 10.45 10.05 10.75 8.6 11.3 L6.6 11.9 6.0 11.25" fill="#d1dfe3" fill-rule="evenodd" stroke="none"/>
    <path d="M-19.8 2.3 L-19.7 2.25 Q-19.7 3.75 -19.1 4.85 -18.45 6.05 -17.3 6.5 -16.3 6.9 -15.5 6.25 -14.7 5.55 -14.65 4.15 L-14.65 5.0 -13.45 5.7 -13.2 5.85 -12.95 6.0 -14.15 6.6 Q-15.6 7.3 -16.2 7.3 L-17.0 7.15 Q-18.35 6.6 -19.1 5.25 -19.8 4.0 -19.8 2.3 M-1.6 7.65 Q-0.5 7.65 0.3 8.85 1.2 10.25 1.2 12.75 L2.75 13.4 2.8 13.95 1.55 14.6 Q0.1 15.3 -0.6 15.3 L-1.4 15.15 Q-2.75 14.6 -3.5 13.25 -4.15 12.05 -4.2 10.45 L-4.1 10.4 Q-4.1 11.75 -3.5 12.85 -2.8 14.05 -1.65 14.5 -0.65 14.9 0.15 14.25 1.0 13.5 0.95 11.95 0.9 10.35 0.4 9.4 -0.2 8.25 -1.6 7.65" fill="#181c1c" fill-rule="evenodd" stroke="none"/>
    <path d="M-19.7 2.25 L-19.65 2.15 Q-19.35 0.8 -18.75 0.25 -18.4 -0.05 -17.9 -0.05 L-17.8 -0.05 Q-16.6 -0.05 -15.6 1.5 -14.8 2.75 -14.65 4.15 -14.7 5.55 -15.5 6.25 -16.3 6.9 -17.3 6.5 -18.45 6.05 -19.1 4.85 -19.7 3.75 -19.7 2.25 M-1.8 7.65 L-1.6 7.65 Q-0.2 8.25 0.4 9.4 0.9 10.35 0.95 11.95 1.0 13.5 0.15 14.25 -0.65 14.9 -1.65 14.5 -2.8 14.05 -3.5 12.85 -4.1 11.75 -4.1 10.4 L-3.85 10.25 Q-3.7 9.05 -3.1 8.4 -2.55 7.75 -1.8 7.65 M-2.6 9.7 Q-2.9 10.05 -2.9 10.75 L-2.6 12.0 -1.75 12.8 -0.85 12.65 Q-0.45 12.3 -0.5 11.55 -0.5 10.8 -0.75 10.35 -1.05 9.75 -1.75 9.5 -2.25 9.25 -2.6 9.7 M-18.2 1.7 Q-18.55 2.1 -18.55 2.75 L-18.25 4.0 -17.35 4.8 -16.5 4.65 Q-16.1 4.3 -16.1 3.55 -16.15 2.0 -17.35 1.5 -17.9 1.3 -18.2 1.7" fill="#383d3d" fill-rule="evenodd" stroke="none"/>
    <path d="M-21.15 -4.15 L-21.3 -2.95 -21.4 -2.45 -21.35 -2.8 -21.45 -2.75 -21.15 -4.15" fill="#c7411a" fill-rule="evenodd" stroke="none"/>
    <path d="M-19.7 -0.65 L-18.05 -0.75 Q-18.9 -0.65 -19.55 0.15 L-20.15 0.95 -19.6 -0.6 -19.7 -0.65 M-14.65 5.0 L-13.55 4.95 -13.15 4.85 -9.2 6.85 -5.1 8.6 Q-4.95 7.45 -4.25 7.0 L-4.65 6.85 -2.55 6.6 Q-3.5 6.85 -4.15 7.9 -4.8 8.9 -4.85 10.25 -5.95 10.15 -12.95 6.0 L-13.2 5.85 -13.45 5.7 -14.65 5.0 M-10.85 4.05 L-10.5 0.2 -10.25 -1.05 Q-9.35 -5.45 -8.65 -6.05 L-8.5 -6.1 -8.55 -5.95 Q-9.2 -3.85 -9.85 -0.55 L-10.0 0.45 -10.5 4.25 -10.5 5.75 -10.85 4.05 M-4.35 10.45 L-4.15 9.6 -4.05 9.4 -4.0 9.25 -3.95 9.2 -3.85 9.05 -3.85 9.0 -3.75 8.75 -3.7 8.75 -3.65 8.65 Q-2.95 7.65 -1.8 7.65 -2.55 7.75 -3.1 8.4 -3.7 9.05 -3.85 10.25 L-4.1 10.4 -4.2 10.45 -4.35 10.45" fill="#590c15" fill-rule="evenodd" stroke="none"/>
    <path d="M-15.3 -4.7 Q-12.7 -5.6 -10.15 -4.8 L-10.6 -3.3 -11.35 -0.65 Q-15.05 -2.55 -15.95 -3.65 L-15.3 -4.7 M-3.2 1.7 L-3.1 2.55 Q-5.15 2.3 -9.35 0.35 L-8.75 -2.55 -8.4 -4.0 -8.25 -3.9 Q-5.2 -2.05 -3.2 1.7" fill="#6cc4e6" fill-rule="evenodd" stroke="none"/>
    <path d="M-2.6 9.7 Q-2.25 9.25 -1.75 9.5 -1.05 9.75 -0.75 10.35 -0.5 10.8 -0.5 11.55 -0.45 12.3 -0.85 12.65 L-1.75 12.8 -2.6 12.0 -2.9 10.75 Q-2.9 10.05 -2.6 9.7 M-2.15 10.95 Q-2.15 11.75 -1.55 11.95 L-1.1 11.9 Q-0.9 11.75 -0.95 11.35 -0.95 10.6 -1.55 10.35 L-2.0 10.45 -2.15 10.95 M-17.2 2.35 L-17.6 2.45 -17.75 2.95 Q-17.75 3.75 -17.2 4.0 L-16.75 3.95 -16.55 3.35 Q-16.6 2.6 -17.2 2.35 M-18.2 1.7 Q-17.9 1.3 -17.35 1.5 -16.15 2.0 -16.1 3.55 -16.1 4.3 -16.5 4.65 L-17.35 4.8 -18.25 4.0 -18.55 2.75 Q-18.55 2.1 -18.2 1.7" fill="#919c93" fill-rule="evenodd" stroke="none"/>
    <path d="M-2.15 10.95 L-2.0 10.45 -1.55 10.35 Q-0.95 10.6 -0.95 11.35 -0.9 11.75 -1.1 11.9 L-1.55 11.95 Q-2.15 11.75 -2.15 10.95 M-17.2 2.35 Q-16.6 2.6 -16.55 3.35 L-16.75 3.95 -17.2 4.0 Q-17.75 3.75 -17.75 2.95 L-17.6 2.45 -17.2 2.35" fill="#555b56" fill-rule="evenodd" stroke="none"/>
  </g>
</svg>
