<?xml version="1.0" encoding="UTF-8" standalone="no"?>
<svg xmlns:ffdec="https://www.free-decompiler.com/flash" xmlns:xlink="http://www.w3.org/1999/xlink" ffdec:objectType="shape" height="55.05px" width="56.25px" xmlns="http://www.w3.org/2000/svg">
  <g transform="matrix(1.0, 0.0, 0.0, 1.0, 24.7, 23.55)">
    <path d="M16.6 -16.6 Q23.55 -9.7 23.55 0.05 23.55 9.8 16.6 16.65 9.75 23.55 0.0 23.55 -9.75 23.55 -16.65 16.65 -23.55 9.8 -23.55 0.05 -23.55 -9.7 -16.65 -16.6 -9.75 -23.55 0.0 -23.55 9.75 -23.55 16.6 -16.6" fill="#f5807d" fill-rule="evenodd" stroke="none"/>
    <path d="M19.8 0.05 Q19.8 8.2 14.0 14.0 8.2 19.8 0.0 19.8 -8.2 19.8 -14.0 14.0 -19.8 8.2 -19.8 0.05 -19.8 -8.2 -14.0 -14.0 -8.2 -19.8 0.0 -19.8 8.2 -19.8 14.0 -14.0 19.8 -8.2 19.8 0.05" fill="#ffffff" fill-rule="evenodd" stroke="none"/>
    <path d="M6.25 -12.95 Q7.6 -12.55 6.35 -11.7 5.3 -11.0 4.35 -11.9 4.0 -12.2 3.95 -12.55 3.9 -12.95 4.2 -13.05 L6.25 -12.95 M13.25 -6.6 Q11.2 -7.55 8.75 -7.1 6.4 -6.7 4.5 -5.25 2.15 -3.35 0.95 -1.7 -0.7 0.65 -0.2 2.9 L-1.25 3.0 -2.2 -0.5 -3.15 -4.0 Q-0.7 -4.8 4.35 -7.3 9.35 -9.85 10.05 -10.65 L11.55 -9.0 13.25 -6.6 M20.8 -0.5 Q20.8 0.55 19.45 0.1 18.1 -0.4 18.7 -0.95 L20.0 -1.1 20.8 -0.5 M21.05 2.05 Q21.6 1.2 22.1 1.65 22.45 1.9 21.95 2.45 21.4 3.0 20.85 2.95 20.55 2.9 21.05 2.05 M8.9 8.4 Q9.75 8.4 9.3 9.1 8.95 9.65 7.8 9.35 6.65 9.05 7.1 8.85 8.2 8.35 8.9 8.4" fill="#fdfdfd" fill-rule="evenodd" stroke="none"/>
    <path d="M6.25 -12.95 L4.2 -13.05 Q3.9 -12.95 3.95 -12.55 4.0 -12.2 4.35 -11.9 5.3 -11.0 6.35 -11.7 7.6 -12.55 6.25 -12.95 M8.25 -12.25 Q8.4 -11.55 4.0 -9.5 -0.65 -7.25 -3.8 -7.1 -7.0 -6.95 -10.5 -8.3 -13.7 -9.55 -13.4 -10.2 -12.85 -11.5 -7.45 -14.1 -2.35 -16.5 -0.75 -16.55 0.05 -16.55 4.0 -14.7 8.1 -12.8 8.25 -12.25 M4.6 7.65 L2.35 5.65 Q0.7 4.35 -0.55 3.9 2.7 3.6 8.8 0.5 14.85 -2.6 15.0 -4.0 L18.55 -2.35 Q21.6 -0.85 21.9 -0.45 L19.85 1.85 20.2 1.5 14.1 -1.4 19.35 2.3 Q17.1 4.3 14.25 5.6 12.2 6.55 10.05 7.05 L5.15 3.0 8.1 7.4 4.6 7.65 M20.8 -0.5 L20.0 -1.1 18.7 -0.95 Q18.1 -0.4 19.45 0.1 20.8 0.55 20.8 -0.5" fill="#cd4f62" fill-rule="evenodd" stroke="none"/>
    <path d="M-0.2 2.9 Q-0.7 0.65 0.95 -1.7 2.15 -3.35 4.5 -5.25 6.4 -6.7 8.75 -7.1 11.2 -7.55 13.25 -6.6 L14.35 -4.55 Q13.55 -2.65 8.4 -0.1 3.6 2.3 -0.2 2.9 M-16.9 -5.1 L-15.25 -7.45 -14.25 -8.7 Q-13.7 -7.65 -10.9 -6.25 L-11.2 -5.25 -16.9 -5.1 M-9.3 -4.35 L-9.0 -5.4 Q-6.35 -4.3 -4.95 -4.05 L-3.55 1.9 Q-5.75 -2.2 -9.1 -4.25 L-9.3 -4.35" fill="#9fe8ff" fill-rule="evenodd" stroke="none"/>
    <path d="M-0.2 2.9 Q3.6 2.3 8.4 -0.1 13.55 -2.65 14.35 -4.55 L13.25 -6.6 11.55 -9.0 10.05 -10.65 Q9.35 -9.85 4.35 -7.3 -0.7 -4.8 -3.15 -4.0 L-2.2 -0.5 -1.25 3.0 -0.2 2.9 M8.25 -12.25 Q8.1 -12.8 4.0 -14.7 0.05 -16.55 -0.75 -16.55 -2.35 -16.5 -7.45 -14.1 -12.85 -11.5 -13.4 -10.2 -13.7 -9.55 -10.5 -8.3 -7.0 -6.95 -3.8 -7.1 -0.65 -7.25 4.0 -9.5 8.4 -11.55 8.25 -12.25 M-23.3 -4.5 L-23.05 -6.05 Q-22.8 -6.7 -14.9 -10.55 L-14.6 -10.9 Q-13.45 -12.05 -8.1 -14.65 -2.7 -17.15 -1.05 -17.4 0.45 -17.6 9.7 -12.45 10.9 -11.6 13.35 -7.9 L15.5 -4.7 Q22.15 -1.45 22.7 -0.75 23.5 0.1 24.15 2.85 L24.35 3.9 24.05 4.4 23.85 4.4 Q22.35 5.9 19.85 7.4 L19.95 7.3 19.95 7.2 20.95 6.5 Q21.4 6.45 22.3 5.7 L23.6 4.35 23.6 3.6 23.05 2.05 23.0 1.95 23.0 1.9 21.9 -0.45 Q21.6 -0.85 18.55 -2.35 L15.0 -4.0 Q14.85 -2.6 8.8 0.5 2.7 3.6 -0.55 3.9 0.7 4.35 2.35 5.65 L4.6 7.65 4.7 7.7 Q5.25 8.2 5.95 11.05 L6.75 13.35 6.25 13.35 Q5.55 13.35 3.95 12.3 L3.1 12.35 2.85 12.8 2.9 14.3 2.95 14.8 1.25 14.05 Q1.25 11.3 0.3 9.8 -0.6 8.45 -1.8 8.45 L-2.05 8.45 Q-3.3 8.45 -4.05 9.55 L-4.1 9.65 -4.15 9.65 -4.3 9.95 -4.3 10.0 -4.4 10.15 -4.45 10.2 -4.5 10.4 -4.6 10.6 -4.85 11.55 -4.9 11.55 -5.4 11.3 Q-5.35 9.85 -4.6 8.75 -3.9 7.6 -2.85 7.3 L-5.15 7.6 -9.25 5.8 Q-10.55 5.2 -11.6 4.7 L-11.05 0.55 -10.9 -0.55 -9.45 -6.5 -9.4 -6.65 -9.55 -6.6 Q-10.35 -5.95 -11.3 -1.1 L-11.6 0.25 Q-12.05 2.85 -12.0 4.5 L-14.05 3.4 -14.4 3.55 -14.55 3.75 -14.6 5.35 -14.5 5.4 -14.95 5.5 -16.15 5.55 -16.15 4.6 Q-16.35 3.05 -17.2 1.7 -18.3 0.0 -19.65 0.0 L-19.75 0.0 Q-20.3 0.0 -20.65 0.3 -21.35 0.95 -21.65 2.4 L-21.7 2.5 -21.85 2.6 -22.1 2.65 -22.55 1.95 -22.2 1.1 -21.55 0.2 Q-20.85 -0.65 -19.9 -0.75 L-21.7 -0.65 -23.05 -1.55 -23.6 -2.0 -23.6 -2.65 -23.5 -3.2 -23.3 -4.5 M2.2 11.05 Q2.7 10.9 2.2 9.8 1.55 8.35 0.15 7.6 -1.25 6.75 -2.2 7.35 -1.1 7.45 0.0 8.45 0.95 9.35 1.25 10.2 1.7 11.2 2.2 11.05 M-11.2 -5.25 L-10.9 -6.25 Q-13.7 -7.65 -14.25 -8.7 L-15.25 -7.45 -16.9 -5.1 -17.6 -3.95 Q-16.6 -2.75 -12.55 -0.65 L-11.7 -3.6 -11.2 -5.25 M-17.1 -0.5 L-19.35 -0.6 Q-18.25 -0.45 -17.25 0.55 -16.4 1.35 -16.0 2.25 -15.6 3.25 -15.15 3.0 -14.75 2.8 -15.25 1.7 -15.9 0.2 -17.1 -0.5 M-18.7 -4.05 L-18.65 -4.05 -15.6 -9.55 Q-22.15 -6.25 -22.0 -5.9 -21.85 -5.45 -18.7 -4.05 M-3.55 1.9 L-4.95 -4.05 Q-6.35 -4.3 -9.0 -5.4 L-9.3 -4.35 -9.65 -2.75 -10.35 0.45 Q-5.7 2.6 -3.45 2.85 L-3.55 1.9" fill="#8a2c34" fill-rule="evenodd" stroke="none"/>
    <path d="M23.0 1.9 L23.0 1.95 23.05 2.05 23.6 3.6 23.4 3.5 22.4 3.25 Q21.75 3.25 21.3 3.75 L20.45 4.55 Q20.0 5.05 19.95 5.55 L19.4 4.4 19.35 3.45 20.45 1.85 Q21.4 0.7 21.85 0.65 22.3 0.65 22.85 1.7 L23.0 1.9 M21.05 2.05 Q20.55 2.9 20.85 2.95 21.4 3.0 21.95 2.45 22.45 1.9 22.1 1.65 21.6 1.2 21.05 2.05 M6.55 12.4 Q6.05 11.5 5.8 10.3 5.45 8.95 5.65 8.7 5.95 8.35 7.55 8.25 L9.5 8.25 Q9.85 8.25 10.35 9.0 L11.05 10.55 Q9.85 10.0 8.7 10.15 L7.25 11.0 Q6.55 11.65 6.55 12.4 M8.9 8.4 Q8.2 8.35 7.1 8.85 6.65 9.05 7.8 9.35 8.95 9.65 9.3 9.1 9.75 8.4 8.9 8.4" fill="#acbdc0" fill-rule="evenodd" stroke="none"/>
    <path d="M6.75 13.35 L5.95 11.05 Q5.25 8.2 4.7 7.7 L4.6 7.65 8.1 7.4 5.15 3.0 10.05 7.05 Q12.2 6.55 14.25 5.6 17.1 4.3 19.35 2.3 L14.1 -1.4 20.2 1.5 19.85 1.85 21.9 -0.45 23.0 1.9 22.85 1.7 Q22.3 0.65 21.85 0.65 21.4 0.7 20.45 1.85 L19.35 3.45 19.4 4.4 19.95 5.55 Q20.45 6.5 20.8 6.5 L20.95 6.5 19.95 7.2 19.3 5.4 18.75 4.45 Q18.6 4.4 15.15 6.25 11.6 8.15 11.55 8.35 11.45 8.55 11.7 9.95 L12.05 11.5 12.25 11.5 8.05 13.15 7.8 13.2 6.75 13.35 M2.2 11.05 Q1.7 11.2 1.25 10.2 0.95 9.35 0.0 8.45 -1.1 7.45 -2.2 7.35 -1.25 6.75 0.15 7.6 1.55 8.35 2.2 9.8 2.7 10.9 2.2 11.05 M11.05 10.55 L10.35 9.0 Q9.85 8.25 9.5 8.25 L7.55 8.25 Q5.95 8.35 5.65 8.7 5.45 8.95 5.8 10.3 6.05 11.5 6.55 12.4 7.0 13.15 7.2 13.15 L9.4 12.5 11.15 11.55 Q11.35 11.3 11.05 10.55 M-17.1 -0.5 Q-15.9 0.2 -15.25 1.7 -14.75 2.8 -15.15 3.0 -15.6 3.25 -16.0 2.25 -16.4 1.35 -17.25 0.55 -18.25 -0.45 -19.35 -0.6 L-17.1 -0.5 M-18.7 -4.05 Q-21.85 -5.45 -22.0 -5.9 -22.15 -6.25 -15.6 -9.55 L-18.65 -4.05 -18.7 -4.05" fill="#b6414f" fill-rule="evenodd" stroke="none"/>
    <path d="M-23.6 -2.65 L-23.6 -2.0 -23.05 -1.55 -21.7 -0.65 -21.6 -0.6 -22.2 1.1 -22.55 1.95 Q-23.2 1.95 -24.45 0.95 -24.75 0.7 -24.7 -0.6 L-24.5 -2.2 -23.95 -2.75 -23.65 -2.95 -23.55 -3.05 -23.6 -2.65 M-14.5 5.4 L-14.6 5.35 -14.55 3.75 -14.4 3.55 -14.05 3.4 -12.0 4.5 Q-11.95 5.7 -11.6 6.35 L-11.6 4.7 Q-10.55 5.2 -9.25 5.8 L-5.15 7.6 -4.7 7.75 Q-5.5 8.25 -5.65 9.5 L-10.15 7.6 -14.5 5.4 M2.95 14.8 L2.9 14.3 2.85 12.8 3.1 12.35 3.95 12.3 Q5.55 13.35 6.25 13.35 L6.75 13.35 7.8 13.2 6.9 13.4 6.95 13.45 Q7.55 14.25 8.7 14.45 11.0 14.85 15.6 12.85 21.95 10.1 24.75 7.1 L24.75 5.25 24.5 4.55 Q24.3 4.3 24.05 4.4 L24.35 3.9 24.4 3.75 25.15 4.05 Q25.75 6.35 25.35 7.35 24.7 9.35 16.55 13.45 8.6 17.55 6.25 17.35 L4.45 16.65 3.35 16.05 3.05 15.4 2.95 14.8 M19.95 7.2 L19.95 7.3 19.85 7.4 Q19.0 8.25 16.4 9.65 14.15 10.85 12.7 11.3 L12.3 11.45 12.25 11.5 12.05 11.5 11.7 9.95 Q11.45 8.55 11.55 8.35 11.6 8.15 15.15 6.25 18.6 4.4 18.75 4.45 L19.3 5.4 19.95 7.2 M12.95 10.1 Q13.8 10.2 16.15 8.95 18.55 7.7 18.65 7.15 18.3 7.05 15.8 8.3 13.3 9.55 12.95 10.1 M12.4 8.9 Q13.25 9.0 15.85 7.65 18.45 6.25 18.6 5.7 18.2 5.6 15.5 7.0 12.7 8.35 12.4 8.9" fill="#222227" fill-rule="evenodd" stroke="none"/>
    <path d="M19.85 7.4 Q22.35 5.9 23.85 4.4 L24.05 4.4 Q24.3 4.3 24.5 4.55 L24.75 5.25 24.75 7.1 Q21.95 10.1 15.6 12.85 11.0 14.85 8.7 14.45 7.55 14.25 6.95 13.45 L6.9 13.4 7.8 13.2 8.05 13.15 12.25 11.5 12.3 11.45 12.7 11.3 Q14.15 10.85 16.4 9.65 19.0 8.25 19.85 7.4 M12.4 8.9 Q12.7 8.35 15.5 7.0 18.2 5.6 18.6 5.7 18.45 6.25 15.85 7.65 13.25 9.0 12.4 8.9 M12.95 10.1 Q13.3 9.55 15.8 8.3 18.3 7.05 18.65 7.15 18.55 7.7 16.15 8.95 13.8 10.2 12.95 10.1" fill="#595863" fill-rule="evenodd" stroke="none"/>
    <path d="M23.6 3.6 L23.6 4.35 22.3 5.7 Q21.4 6.45 20.95 6.5 L20.8 6.5 Q20.45 6.5 19.95 5.55 20.0 5.05 20.45 4.55 L21.3 3.75 Q21.75 3.25 22.4 3.25 L23.4 3.5 23.6 3.6 M6.55 12.4 Q6.55 11.65 7.25 11.0 L8.7 10.15 Q9.85 10.0 11.05 10.55 11.35 11.3 11.15 11.55 L9.4 12.5 7.2 13.15 Q7.0 13.15 6.55 12.4" fill="#d1dfe3" fill-rule="evenodd" stroke="none"/>
    <path d="M-21.85 2.6 L-21.7 2.5 Q-21.7 4.15 -21.05 5.4 -20.35 6.7 -19.1 7.2 -18.0 7.65 -17.1 6.9 -16.2 6.15 -16.15 4.6 L-16.15 5.55 -14.85 6.3 -14.55 6.5 Q-14.45 6.6 -14.3 6.65 L-15.6 7.3 Q-17.2 8.1 -17.85 8.1 L-18.75 7.9 Q-20.25 7.3 -21.05 5.8 -21.85 4.45 -21.85 2.6 M-1.8 8.45 Q-0.6 8.45 0.3 9.8 1.25 11.3 1.25 14.05 L2.95 14.8 3.05 15.4 1.65 16.1 Q0.05 16.9 -0.7 16.9 L-1.6 16.7 Q-3.05 16.1 -3.9 14.6 -4.6 13.3 -4.65 11.55 L-4.55 11.5 Q-4.55 12.95 -3.9 14.2 -3.15 15.5 -1.85 16.0 -0.75 16.45 0.1 15.7 1.05 14.9 1.0 13.2 0.95 11.45 0.4 10.4 -0.25 9.1 -1.8 8.45" fill="#181c1c" fill-rule="evenodd" stroke="none"/>
    <path d="M-21.7 2.5 L-21.65 2.4 Q-21.35 0.95 -20.65 0.3 -20.3 0.0 -19.75 0.0 L-19.65 0.0 Q-18.3 0.0 -17.2 1.7 -16.35 3.05 -16.15 4.6 -16.2 6.15 -17.1 6.9 -18.0 7.65 -19.1 7.2 -20.35 6.7 -21.05 5.4 -21.7 4.15 -21.7 2.5 M-2.05 8.45 L-1.8 8.45 Q-0.25 9.1 0.4 10.4 0.95 11.45 1.0 13.2 1.05 14.9 0.1 15.7 -0.75 16.45 -1.85 16.0 -3.15 15.5 -3.9 14.2 -4.55 12.95 -4.55 11.5 L-4.3 11.3 Q-4.1 10.0 -3.45 9.3 -2.85 8.55 -2.05 8.45 M-2.9 10.7 Q-3.25 11.1 -3.25 11.85 -3.25 12.65 -2.9 13.25 L-1.95 14.15 Q-1.4 14.35 -1.0 13.95 -0.55 13.6 -0.6 12.75 -0.6 11.95 -0.85 11.45 -1.2 10.75 -1.95 10.5 -2.5 10.2 -2.9 10.7 M-20.05 1.9 Q-20.45 2.35 -20.45 3.05 -20.45 3.85 -20.1 4.45 L-19.15 5.35 Q-18.65 5.55 -18.2 5.15 -17.75 4.8 -17.75 3.95 -17.8 2.25 -19.15 1.7 -19.75 1.5 -20.05 1.9" fill="#383d3d" fill-rule="evenodd" stroke="none"/>
    <path d="M-23.3 -4.5 L-23.5 -3.2 -23.6 -2.65 -23.55 -3.05 -23.65 -2.95 -23.3 -4.5" fill="#c7411a" fill-rule="evenodd" stroke="none"/>
    <path d="M-21.7 -0.65 L-19.9 -0.75 Q-20.85 -0.65 -21.55 0.2 L-22.2 1.1 -21.6 -0.6 -21.7 -0.65 M-16.15 5.55 L-14.95 5.5 -14.5 5.4 -10.15 7.6 -5.65 9.5 Q-5.5 8.25 -4.7 7.75 L-5.15 7.6 -2.85 7.3 Q-3.9 7.6 -4.6 8.75 -5.35 9.85 -5.4 11.3 -6.6 11.2 -14.3 6.65 -14.45 6.6 -14.55 6.5 L-14.85 6.3 -16.15 5.55 M-12.0 4.5 Q-12.05 2.85 -11.6 0.25 L-11.3 -1.1 Q-10.35 -5.95 -9.55 -6.6 L-9.4 -6.65 -9.45 -6.5 -10.9 -0.55 -11.05 0.55 -11.6 4.7 -11.6 6.35 Q-11.95 5.7 -12.0 4.5 M-4.85 11.55 L-4.6 10.6 -4.5 10.4 -4.45 10.2 -4.4 10.15 -4.3 10.0 -4.3 9.95 -4.15 9.65 -4.1 9.65 -4.05 9.55 Q-3.3 8.45 -2.05 8.45 -2.85 8.55 -3.45 9.3 -4.1 10.0 -4.3 11.3 L-4.55 11.5 -4.65 11.55 -4.85 11.55" fill="#590c15" fill-rule="evenodd" stroke="none"/>
    <path d="M-16.9 -5.1 L-11.2 -5.25 -11.7 -3.6 -12.55 -0.65 Q-16.6 -2.75 -17.6 -3.95 L-16.9 -5.1 M-3.55 1.9 L-3.45 2.85 Q-5.7 2.6 -10.35 0.45 L-9.65 -2.75 -9.3 -4.35 -9.1 -4.25 Q-5.75 -2.2 -3.55 1.9" fill="#6cc4e6" fill-rule="evenodd" stroke="none"/>
    <path d="M-2.9 10.7 Q-2.5 10.2 -1.95 10.5 -1.2 10.75 -0.85 11.45 -0.6 11.95 -0.6 12.75 -0.55 13.6 -1.0 13.95 -1.4 14.35 -1.95 14.15 L-2.9 13.25 Q-3.25 12.65 -3.25 11.85 -3.25 11.1 -2.9 10.7 M-2.4 12.1 Q-2.4 12.95 -1.75 13.2 L-1.25 13.15 Q-1.05 12.95 -1.1 12.55 -1.1 11.7 -1.75 11.45 L-2.25 11.55 -2.4 12.1 M-18.95 2.65 L-19.4 2.75 -19.55 3.3 Q-19.55 4.15 -18.95 4.45 L-18.45 4.4 -18.25 3.75 Q-18.3 2.9 -18.95 2.65 M-20.05 1.9 Q-19.75 1.5 -19.15 1.7 -17.8 2.25 -17.75 3.95 -17.75 4.8 -18.2 5.15 -18.65 5.55 -19.15 5.35 L-20.1 4.45 Q-20.45 3.85 -20.45 3.05 -20.45 2.35 -20.05 1.9" fill="#919c93" fill-rule="evenodd" stroke="none"/>
    <path d="M-2.4 12.1 L-2.25 11.55 -1.75 11.45 Q-1.1 11.7 -1.1 12.55 -1.05 12.95 -1.25 13.15 L-1.75 13.2 Q-2.4 12.95 -2.4 12.1 M-18.95 2.65 Q-18.3 2.9 -18.25 3.75 L-18.45 4.4 -18.95 4.45 Q-19.55 4.15 -19.55 3.3 L-19.4 2.75 -18.95 2.65" fill="#555b56" fill-rule="evenodd" stroke="none"/>
    <path d="M25.25 5.6 Q21.35 1.7 15.8 1.7 10.25 1.7 6.3 5.6 2.4 9.55 2.4 15.1 2.4 20.65 6.3 24.55 10.25 28.5 15.8 28.5 21.35 28.5 25.25 24.55 29.15 20.65 29.15 15.1 29.15 9.55 25.25 5.6 M26.9 4.6 Q31.55 9.25 31.55 15.75 31.55 22.25 26.9 26.9 22.3 31.5 15.8 31.5 9.25 31.5 4.65 26.9 0.0 22.25 0.0 15.75 0.0 9.25 4.65 4.6 9.25 0.0 15.8 0.0 22.3 0.0 26.9 4.6" fill="#9d1e60" fill-rule="evenodd" stroke="none"/>
    <path d="M25.25 5.6 Q29.15 9.55 29.15 15.1 29.15 20.65 25.25 24.55 21.35 28.5 15.8 28.5 10.25 28.5 6.3 24.55 2.4 20.65 2.4 15.1 2.4 9.55 6.3 5.6 10.25 1.7 15.8 1.7 21.35 1.7 25.25 5.6 M27.45 11.85 L23.2 7.55 13.8 16.95 7.8 10.95 3.55 15.25 13.8 25.5 27.45 11.85" fill="#f5697d" fill-rule="evenodd" stroke="none"/>
    <path d="M27.45 11.85 L13.8 25.5 3.55 15.25 7.8 10.95 13.8 16.95 23.2 7.55 27.45 11.85" fill="#ffffff" fill-rule="evenodd" stroke="none"/>
  </g>
</svg>
