<?xml version="1.0" encoding="UTF-8" standalone="no"?>
<svg xmlns:ffdec="https://www.free-decompiler.com/flash" xmlns:xlink="http://www.w3.org/1999/xlink" ffdec:objectType="shape" height="38.5px" width="41.05px" xmlns="http://www.w3.org/2000/svg">
  <g transform="matrix(1.0, 0.0, 0.0, 1.0, 20.1, 19.25)">
    <path d="M13.65 -13.6 Q19.3 -7.9 19.3 0.05 19.3 8.0 13.65 13.65 8.0 19.25 0.05 19.25 -7.9 19.25 -13.6 13.65 -19.2 8.0 -19.2 0.05 -19.2 -7.9 -13.6 -13.6 -7.9 -19.25 0.05 -19.25 8.0 -19.25 13.65 -13.6" fill="#f5807d" fill-rule="evenodd" stroke="none"/>
    <path d="M5.2 -10.6 Q6.3 -10.3 5.25 -9.65 L3.65 -9.75 3.35 -10.3 Q3.3 -10.6 3.5 -10.7 L5.2 -10.6 M10.95 -5.45 L7.25 -5.85 Q5.3 -5.55 3.8 -4.3 L0.85 -1.45 Q-0.5 0.5 -0.1 2.35 L-0.95 2.45 -1.7 -0.45 -2.45 -3.35 Q-0.5 -3.95 3.65 -6.05 L8.35 -8.75 9.55 -7.4 10.95 -5.45 M17.1 -0.45 Q17.1 0.4 16.0 0.05 14.9 -0.35 15.4 -0.8 L16.45 -0.95 17.1 -0.45 M17.35 1.6 Q17.8 0.95 18.2 1.3 18.45 1.55 18.05 2.0 17.6 2.45 17.15 2.4 16.9 2.35 17.35 1.6 M7.4 6.85 Q8.05 6.85 7.7 7.4 7.45 7.85 6.5 7.6 5.55 7.4 5.9 7.2 6.8 6.8 7.4 6.85" fill="#fdfdfd" fill-rule="evenodd" stroke="none"/>
    <path d="M5.2 -10.6 L3.5 -10.7 Q3.3 -10.6 3.35 -10.3 L3.65 -9.75 5.25 -9.65 Q6.3 -10.3 5.2 -10.6 M6.85 -10.1 Q7.0 -9.5 3.4 -7.85 -0.45 -6.0 -3.0 -5.85 -5.6 -5.7 -8.5 -6.85 -11.1 -7.85 -10.9 -8.35 -10.45 -9.45 -6.0 -11.55 -1.85 -13.55 -0.55 -13.6 0.15 -13.6 3.4 -12.05 6.7 -10.55 6.85 -10.1 M17.1 -0.45 L16.45 -0.95 15.4 -0.8 Q14.9 -0.35 16.0 0.05 17.1 0.4 17.1 -0.45 M3.85 6.2 L2.05 4.6 Q0.7 3.5 -0.35 3.15 2.3 2.9 7.3 0.35 12.25 -2.15 12.4 -3.35 L15.25 -2.0 18.0 -0.4 16.35 1.5 16.6 1.15 11.6 -1.15 15.95 1.85 Q14.1 3.45 11.75 4.55 10.1 5.3 8.35 5.7 L4.3 2.45 6.7 6.05 3.85 6.2" fill="#cd4f62" fill-rule="evenodd" stroke="none"/>
    <path d="M-0.1 2.35 Q-0.5 0.5 0.85 -1.45 L3.8 -4.3 Q5.3 -5.55 7.25 -5.85 L10.95 -5.45 11.85 -3.8 Q11.15 -2.2 7.0 -0.15 3.0 1.85 -0.1 2.35 M-13.7 -4.25 L-12.35 -6.1 -11.55 -7.15 Q-11.1 -6.3 -8.8 -5.15 L-9.1 -4.3 Q-11.4 -5.05 -13.7 -4.25 M-7.5 -3.6 L-7.3 -4.45 Q-5.1 -3.55 -3.95 -3.35 -3.35 -1.4 -2.85 1.55 -4.65 -1.85 -7.35 -3.5 L-7.5 -3.6" fill="#9fe8ff" fill-rule="evenodd" stroke="none"/>
    <path d="M-0.1 2.35 Q3.0 1.85 7.0 -0.15 11.15 -2.2 11.85 -3.8 L10.95 -5.45 9.55 -7.4 8.35 -8.75 3.65 -6.05 Q-0.5 -3.95 -2.45 -3.35 L-1.7 -0.45 -0.95 2.45 -0.1 2.35 M6.85 -10.1 Q6.7 -10.55 3.4 -12.05 0.15 -13.6 -0.55 -13.6 -1.85 -13.55 -6.0 -11.55 -10.45 -9.45 -10.9 -8.35 -11.1 -7.85 -8.5 -6.85 -5.6 -5.7 -3.0 -5.85 -0.45 -6.0 3.4 -7.85 7.0 -9.5 6.85 -10.1 M18.0 -0.4 L15.25 -2.0 12.4 -3.35 Q12.25 -2.15 7.3 0.35 2.3 2.9 -0.35 3.15 0.7 3.5 2.05 4.6 L3.85 6.2 3.9 6.25 Q4.35 6.65 4.95 9.0 5.35 10.55 5.65 10.9 L5.2 10.9 Q4.65 10.9 3.35 10.05 L2.6 10.1 2.45 10.45 2.5 11.65 2.5 12.05 1.15 11.45 Q1.15 9.2 0.3 7.95 -0.4 6.9 -1.4 6.9 L-1.55 6.9 Q-2.6 6.9 -3.25 7.8 L-3.3 7.85 -3.4 8.1 -3.4 8.15 -3.5 8.3 -3.55 8.3 -3.6 8.45 -3.7 8.65 -3.85 9.4 -3.9 9.4 -4.3 9.2 Q-4.25 8.0 -3.7 7.1 -3.1 6.15 -2.25 5.95 L-4.15 6.15 -7.45 4.7 -9.4 3.8 -8.95 0.4 -8.8 -0.5 -7.65 -5.35 -7.6 -5.5 -7.75 -5.45 Q-8.35 -4.9 -9.15 -0.95 L-9.4 0.2 Q-9.75 2.3 -9.7 3.65 L-11.4 2.75 -11.7 2.9 -11.85 3.0 -11.85 4.3 -11.8 4.35 -12.15 4.45 -13.15 4.5 -13.15 3.75 Q-13.25 2.45 -14.0 1.35 -14.9 -0.05 -15.95 -0.05 L-16.05 -0.05 -16.8 0.2 Q-17.35 0.7 -17.65 1.95 L-17.7 2.0 -17.75 2.05 -18.0 2.1 -18.35 1.55 -18.1 0.85 -17.55 0.15 Q-16.95 -0.6 -16.2 -0.65 L-17.7 -0.6 -18.75 -1.3 -19.2 -1.65 -19.2 -2.2 -19.1 -2.65 -19.0 -3.75 -18.75 -5.0 Q-18.6 -5.55 -12.1 -8.7 L-11.85 -8.95 Q-10.95 -9.9 -6.5 -12.0 -2.1 -14.1 -0.75 -14.25 0.45 -14.45 8.0 -10.2 9.0 -9.55 11.05 -6.5 L12.8 -3.85 Q18.25 -1.2 18.7 -0.65 19.3 0.05 19.85 2.3 L20.05 3.15 19.75 3.55 19.6 3.55 16.35 6.05 16.45 5.95 16.45 5.85 17.25 5.25 18.3 4.65 19.4 3.5 19.4 2.9 18.95 1.6 18.9 1.55 18.0 -0.4 M1.9 9.0 Q2.3 8.85 1.9 7.95 1.35 6.8 0.25 6.15 -0.95 5.5 -1.7 6.0 -0.8 6.05 0.1 6.9 L1.15 8.3 Q1.5 9.15 1.9 9.0 M-9.1 -4.3 L-8.8 -5.15 Q-11.1 -6.3 -11.55 -7.15 L-12.35 -6.1 -13.7 -4.25 -14.3 -3.3 Q-13.5 -2.3 -10.15 -0.6 L-9.5 -2.95 -9.1 -4.3 M-15.2 -3.35 L-15.15 -3.35 -12.7 -7.85 Q-18.05 -5.15 -17.9 -4.85 L-15.2 -3.35 M-13.9 -0.45 L-15.75 -0.55 Q-14.85 -0.4 -14.05 0.4 -13.3 1.1 -13.0 1.8 -12.7 2.6 -12.3 2.45 -11.95 2.25 -12.35 1.35 -12.9 0.15 -13.9 -0.45 M-2.85 1.55 Q-3.35 -1.4 -3.95 -3.35 -5.1 -3.55 -7.3 -4.45 L-7.5 -3.6 -7.8 -2.3 -8.35 0.3 Q-4.6 2.05 -2.75 2.3 L-2.85 1.55" fill="#8a2c34" fill-rule="evenodd" stroke="none"/>
    <path d="M18.9 1.55 L18.95 1.6 19.4 2.9 19.2 2.85 18.4 2.6 Q17.85 2.6 17.5 3.0 L16.85 3.7 16.45 4.5 16.0 3.55 15.95 2.8 16.85 1.5 17.95 0.5 Q18.3 0.5 18.75 1.35 L18.9 1.55 M17.35 1.6 Q16.9 2.35 17.15 2.4 17.6 2.45 18.05 2.0 18.45 1.55 18.2 1.3 17.8 0.95 17.35 1.6 M7.4 6.85 Q6.8 6.8 5.9 7.2 5.55 7.4 6.5 7.6 7.45 7.85 7.7 7.4 8.05 6.85 7.4 6.85 M5.45 10.1 L4.8 8.35 Q4.55 7.3 4.75 7.05 4.95 6.8 6.25 6.7 L7.9 6.7 8.55 7.35 9.15 8.6 7.2 8.3 Q6.55 8.5 6.05 8.95 5.45 9.5 5.45 10.1" fill="#acbdc0" fill-rule="evenodd" stroke="none"/>
    <path d="M18.0 -0.4 L18.9 1.55 18.75 1.35 Q18.3 0.5 17.95 0.5 L16.85 1.5 15.95 2.8 16.0 3.55 16.45 4.5 Q16.85 5.25 17.1 5.25 L17.25 5.25 16.45 5.85 15.9 4.35 15.45 3.6 12.45 5.1 Q9.6 6.6 9.55 6.8 9.45 6.95 9.7 8.1 L9.95 9.35 10.15 9.35 6.65 10.7 6.5 10.75 5.65 10.9 Q5.35 10.55 4.95 9.0 4.35 6.65 3.9 6.25 L3.85 6.2 6.7 6.05 4.3 2.45 8.35 5.7 Q10.1 5.3 11.75 4.55 14.1 3.45 15.95 1.85 L11.6 -1.15 16.6 1.15 16.35 1.5 18.0 -0.4 M1.9 9.0 Q1.5 9.15 1.15 8.3 L0.1 6.9 Q-0.8 6.05 -1.7 6.0 -0.95 5.5 0.25 6.15 1.35 6.8 1.9 7.95 2.3 8.85 1.9 9.0 M9.15 8.6 L8.55 7.35 7.9 6.7 6.25 6.7 Q4.95 6.8 4.75 7.05 4.55 7.3 4.8 8.35 L5.45 10.1 6.0 10.7 7.8 10.15 Q9.1 9.65 9.25 9.4 L9.15 8.6 M-15.2 -3.35 L-17.9 -4.85 Q-18.05 -5.15 -12.7 -7.85 L-15.15 -3.35 -15.2 -3.35 M-13.9 -0.45 Q-12.9 0.15 -12.35 1.35 -11.95 2.25 -12.3 2.45 -12.7 2.6 -13.0 1.8 -13.3 1.1 -14.05 0.4 -14.85 -0.4 -15.75 -0.55 L-13.9 -0.45" fill="#b6414f" fill-rule="evenodd" stroke="none"/>
    <path d="M16.45 5.85 L16.45 5.95 16.35 6.05 13.5 7.85 Q11.65 8.8 10.5 9.2 L10.15 9.3 10.15 9.35 9.95 9.35 9.7 8.1 Q9.45 6.95 9.55 6.8 9.6 6.6 12.45 5.1 L15.45 3.6 15.9 4.35 16.45 5.85 M19.75 3.55 L20.05 3.15 20.05 3.0 20.65 3.3 Q21.15 5.15 20.85 6.0 20.3 7.6 13.65 11.0 7.1 14.3 5.2 14.15 4.8 14.15 3.75 13.6 L2.85 13.1 2.55 12.55 2.5 12.05 2.5 11.65 2.45 10.45 2.6 10.1 3.35 10.05 Q4.65 10.9 5.2 10.9 L5.65 10.9 6.5 10.75 5.7 10.95 5.75 11.0 Q6.25 11.6 7.2 11.8 9.1 12.1 12.85 10.5 18.05 8.25 20.35 5.75 L20.35 4.25 20.1 3.7 Q20.0 3.45 19.75 3.55 M-19.2 -2.2 L-19.2 -1.65 -18.75 -1.3 -17.7 -0.6 -17.6 -0.55 -18.1 0.85 -18.35 1.55 Q-18.9 1.55 -19.95 0.7 L-20.1 -0.55 -19.95 -1.85 -19.5 -2.3 -19.25 -2.45 -19.15 -2.5 -19.2 -2.2 M-11.8 4.35 L-11.85 4.3 -11.85 3.0 -11.7 2.9 -11.4 2.75 -9.7 3.65 -9.4 5.15 -9.4 3.8 -7.45 4.7 -4.15 6.15 -3.75 6.3 Q-4.4 6.7 -4.55 7.75 L-8.25 6.15 -11.8 4.35 M10.2 7.25 Q10.95 7.35 13.05 6.2 L15.3 4.65 Q15.0 4.55 12.8 5.65 10.5 6.8 10.2 7.25 M13.0 6.75 Q11.0 7.8 10.65 8.25 11.4 8.3 13.3 7.3 L15.35 5.8 Q15.1 5.7 13.0 6.75" fill="#222227" fill-rule="evenodd" stroke="none"/>
    <path d="M16.35 6.05 L19.6 3.55 19.75 3.55 Q20.0 3.45 20.1 3.7 L20.35 4.25 20.35 5.75 Q18.05 8.25 12.85 10.5 9.1 12.1 7.2 11.8 6.25 11.6 5.75 11.0 L5.7 10.95 6.5 10.75 6.65 10.7 10.15 9.35 10.15 9.3 10.5 9.2 Q11.65 8.8 13.5 7.85 L16.35 6.05 M13.0 6.75 Q15.1 5.7 15.35 5.8 L13.3 7.3 Q11.4 8.3 10.65 8.25 11.0 7.8 13.0 6.75 M10.2 7.25 Q10.5 6.8 12.8 5.65 15.0 4.55 15.3 4.65 L13.05 6.2 Q10.95 7.35 10.2 7.25" fill="#595863" fill-rule="evenodd" stroke="none"/>
    <path d="M19.4 2.9 L19.4 3.5 18.3 4.65 17.25 5.25 17.1 5.25 Q16.85 5.25 16.45 4.5 L16.85 3.7 17.5 3.0 Q17.85 2.6 18.4 2.6 L19.2 2.85 19.4 2.9 M5.45 10.1 Q5.45 9.5 6.05 8.95 6.55 8.5 7.2 8.3 L9.15 8.6 9.25 9.4 Q9.1 9.65 7.8 10.15 L6.0 10.7 5.45 10.1" fill="#d1dfe3" fill-rule="evenodd" stroke="none"/>
    <path d="M-17.75 2.05 L-17.7 2.0 Q-17.7 3.35 -17.15 4.35 -16.55 5.45 -15.5 5.85 -14.6 6.2 -13.9 5.6 -13.2 5.0 -13.15 3.75 L-13.15 4.5 -12.05 5.15 -11.85 5.25 -11.6 5.4 -12.7 5.95 -14.55 6.55 -15.25 6.45 Q-16.45 5.95 -17.15 4.7 -17.75 3.6 -17.75 2.05 M-1.4 6.9 Q-0.4 6.9 0.3 7.95 1.15 9.2 1.15 11.45 L2.5 12.05 2.55 12.55 1.45 13.15 Q0.15 13.75 -0.5 13.75 L-1.2 13.65 Q-2.4 13.15 -3.1 11.9 -3.7 10.85 -3.75 9.4 L-3.65 9.35 Q-3.65 10.55 -3.1 11.55 -2.45 12.65 -1.45 13.05 -0.55 13.4 0.2 12.8 0.95 12.15 0.9 10.75 0.85 9.3 0.4 8.45 -0.15 7.4 -1.4 6.9" fill="#181c1c" fill-rule="evenodd" stroke="none"/>
    <path d="M-17.7 2.0 L-17.65 1.95 Q-17.35 0.7 -16.8 0.2 L-16.05 -0.05 -15.95 -0.05 Q-14.9 -0.05 -14.0 1.35 -13.25 2.45 -13.15 3.75 -13.2 5.0 -13.9 5.6 -14.6 6.2 -15.5 5.85 -16.55 5.45 -17.15 4.35 -17.7 3.35 -17.7 2.0 M-1.55 6.9 L-1.4 6.9 Q-0.15 7.4 0.4 8.45 0.85 9.3 0.9 10.75 0.95 12.15 0.2 12.8 -0.55 13.4 -1.45 13.05 -2.45 12.65 -3.1 11.55 -3.65 10.55 -3.65 9.35 L-3.4 9.2 Q-3.3 8.15 -2.75 7.55 -2.25 6.95 -1.55 6.9 M-2.3 8.75 L-2.55 9.65 -2.3 10.8 Q-2.0 11.3 -1.5 11.5 L-0.7 11.4 Q-0.35 11.05 -0.4 10.4 L-0.6 9.3 Q-0.9 8.75 -1.5 8.55 -1.95 8.3 -2.3 8.75 M-16.35 1.55 L-16.65 2.45 -16.35 3.6 -15.55 4.3 -14.8 4.2 Q-14.45 3.85 -14.45 3.2 -14.5 1.8 -15.55 1.35 -16.05 1.15 -16.35 1.55" fill="#383d3d" fill-rule="evenodd" stroke="none"/>
    <path d="M-19.0 -3.75 L-19.1 -2.65 -19.2 -2.2 -19.15 -2.5 -19.25 -2.45 -19.0 -3.75" fill="#c7411a" fill-rule="evenodd" stroke="none"/>
    <path d="M-17.7 -0.6 L-16.2 -0.65 Q-16.95 -0.6 -17.55 0.15 L-18.1 0.85 -17.6 -0.55 -17.7 -0.6 M-13.15 4.5 L-12.15 4.45 -11.8 4.35 -8.25 6.15 -4.55 7.75 Q-4.4 6.7 -3.75 6.3 L-4.15 6.15 -2.25 5.95 Q-3.1 6.15 -3.7 7.1 -4.25 8.0 -4.3 9.2 -5.3 9.15 -11.6 5.4 L-11.85 5.25 -12.05 5.15 -13.15 4.5 M-9.7 3.65 Q-9.75 2.3 -9.4 0.2 L-9.15 -0.95 Q-8.35 -4.9 -7.75 -5.45 L-7.6 -5.5 -7.65 -5.35 -8.8 -0.5 -8.95 0.4 -9.4 3.8 -9.4 5.15 -9.7 3.65 M-3.85 9.4 L-3.7 8.65 -3.6 8.45 -3.55 8.3 -3.5 8.3 -3.4 8.15 -3.4 8.1 -3.3 7.85 -3.25 7.8 Q-2.6 6.9 -1.55 6.9 -2.25 6.95 -2.75 7.55 -3.3 8.15 -3.4 9.2 L-3.65 9.35 -3.75 9.4 -3.85 9.4" fill="#590c15" fill-rule="evenodd" stroke="none"/>
    <path d="M-13.7 -4.25 Q-11.4 -5.05 -9.1 -4.3 L-9.5 -2.95 -10.15 -0.6 Q-13.5 -2.3 -14.3 -3.3 L-13.7 -4.25 M-2.85 1.55 L-2.75 2.3 Q-4.6 2.05 -8.35 0.3 L-7.8 -2.3 -7.5 -3.6 -7.35 -3.5 Q-4.65 -1.85 -2.85 1.55" fill="#6cc4e6" fill-rule="evenodd" stroke="none"/>
    <path d="M-2.3 8.75 Q-1.95 8.3 -1.5 8.55 -0.9 8.75 -0.6 9.3 L-0.4 10.4 Q-0.35 11.05 -0.7 11.4 L-1.5 11.5 Q-2.0 11.3 -2.3 10.8 L-2.55 9.65 -2.3 8.75 M-1.9 9.85 Q-1.9 10.55 -1.35 10.75 L-0.95 10.7 Q-0.75 10.55 -0.8 10.2 -0.8 9.55 -1.35 9.3 L-1.75 9.4 -1.9 9.85 M-15.45 2.1 Q-15.65 2.0 -15.8 2.2 L-15.9 2.65 Q-15.9 3.35 -15.45 3.6 L-15.0 3.55 Q-14.85 3.35 -14.85 3.0 -14.9 2.35 -15.45 2.1 M-16.35 1.55 Q-16.05 1.15 -15.55 1.35 -14.5 1.8 -14.45 3.2 -14.45 3.85 -14.8 4.2 L-15.55 4.3 -16.35 3.6 -16.65 2.45 -16.35 1.55" fill="#919c93" fill-rule="evenodd" stroke="none"/>
    <path d="M-1.9 9.85 L-1.75 9.4 -1.35 9.3 Q-0.8 9.55 -0.8 10.2 -0.75 10.55 -0.95 10.7 L-1.35 10.75 Q-1.9 10.55 -1.9 9.85 M-15.45 2.1 Q-14.9 2.35 -14.85 3.0 -14.85 3.35 -15.0 3.55 L-15.45 3.6 Q-15.9 3.35 -15.9 2.65 L-15.8 2.2 Q-15.65 2.0 -15.45 2.1" fill="#555b56" fill-rule="evenodd" stroke="none"/>
  </g>
</svg>
