<?xml version="1.0" encoding="UTF-8" standalone="no"?>
<svg xmlns:ffdec="https://www.free-decompiler.com/flash" xmlns:xlink="http://www.w3.org/1999/xlink" ffdec:objectType="shape" height="55.55px" width="51.85px" xmlns="http://www.w3.org/2000/svg">
  <g transform="matrix(1.0, 0.0, 0.0, 1.0, 25.95, 27.75)">
    <path d="M12.7 -17.65 L-4.25 -0.7 -12.7 -9.2 -21.15 -0.7 -4.25 16.2 21.15 -9.2 12.7 -17.65 M-25.9 0.05 L-25.95 -1.8 Q-25.95 -12.5 -18.35 -20.15 -10.75 -27.75 0.0 -27.75 10.7 -27.75 18.3 -20.15 25.9 -12.5 25.9 -1.8 L25.85 0.05 Q25.25 9.55 18.3 16.55 10.7 24.15 0.0 24.15 -10.75 24.15 -18.35 16.55 -25.3 9.55 -25.9 0.05" fill="#52c891" fill-rule="evenodd" stroke="none"/>
    <path d="M12.7 -17.65 L21.15 -9.2 -4.25 16.2 -21.15 -0.7 -12.7 -9.2 -4.25 -0.7 12.7 -17.65" fill="#ffffff" fill-rule="evenodd" stroke="none"/>
    <path d="M25.85 0.05 L25.9 1.85 Q25.9 12.6 18.3 20.2 10.7 27.8 0.0 27.8 -10.75 27.8 -18.35 20.2 -25.95 12.6 -25.95 1.85 L-25.9 0.05 Q-25.3 9.55 -18.35 16.55 -10.75 24.15 0.0 24.15 10.7 24.15 18.3 16.55 25.25 9.55 25.85 0.05" fill="#231f20" fill-rule="evenodd" stroke="none"/>
  </g>
</svg>
