<?xml version="1.0" encoding="UTF-8" standalone="no"?>
<svg xmlns:ffdec="https://www.free-decompiler.com/flash" xmlns:xlink="http://www.w3.org/1999/xlink" ffdec:objectType="shape" height="480.0px" width="640.0px" xmlns="http://www.w3.org/2000/svg">
  <g transform="matrix(1.0, 0.0, 0.0, 1.0, 314.0, 184.7)">
    <path d="M326.0 295.3 L-314.0 295.3 -314.0 -184.7 326.0 -184.7 326.0 295.3" fill="url(#gradient0)" fill-rule="evenodd" stroke="none"/>
    <path d="M8.65 -85.75 Q20.0 -68.4 23.9 -58.1 31.15 -38.35 20.35 -29.05 12.9 -22.55 -1.6 -20.2 -18.0 -18.4 -25.2 -16.9 -35.45 -14.7 -39.8 -7.6 -44.65 0.45 -35.85 8.9 -27.7 16.75 -7.55 9.95 L8.45 3.8 Q17.45 0.35 21.9 -0.3 36.8 -2.45 45.1 14.2 52.55 29.15 50.85 50.35 48.95 72.2 38.35 84.2 26.1 98.05 7.05 91.7 -8.65 86.45 -13.0 86.2 -24.45 86.05 -24.95 99.8 -25.3 111.8 -8.3 112.9 L5.45 113.15 Q13.4 113.15 16.4 114.65 26.85 119.5 7.75 142.9 -8.45 162.55 -18.8 168.8 -31.35 176.3 -50.9 176.5 L-84.25 174.1 -174.45 168.25 Q-235.4 164.25 -241.25 161.35 -246.35 158.8 -247.75 146.45 -248.35 140.5 -248.4 121.1 -248.25 104.35 -249.9 97.0 -252.25 86.15 -259.3 85.65 -270.4 84.8 -275.4 119.05 -278.35 138.25 -279.9 144.0 -282.95 156.05 -288.6 157.8 -292.15 158.95 -314.0 157.75 L-314.0 -184.7 -255.8 -184.7 Q-254.35 -166.9 -254.95 -141.0 -255.65 -115.5 -254.6 -106.2 -252.85 -91.3 -246.05 -90.75 -239.25 -90.25 -235.45 -104.75 -233.0 -113.85 -229.75 -139.1 -226.35 -166.7 -221.95 -184.7 L-90.45 -184.7 Q-82.0 -175.15 -80.75 -165.3 -79.55 -155.8 -89.05 -146.25 L-105.35 -132.65 Q-113.8 -124.95 -111.3 -113.3 -108.65 -101.4 -96.05 -103.55 -88.3 -104.9 -78.9 -117.95 -67.8 -133.35 -63.45 -136.2 -45.35 -147.9 -21.6 -124.95 -9.5 -113.3 8.65 -85.75" fill="#ffffff" fill-opacity="0.2" fill-rule="evenodd" stroke="none"/>
  </g>
  <defs>
    <linearGradient color-interpolation="linearRGB" gradientTransform="matrix(0.0, 0.1613, -0.9986, 0.0, 19.95, 151.35)" gradientUnits="userSpaceOnUse" id="gradient0" spreadMethod="pad" x1="-819.2" x2="819.2">
      <stop offset="0.2196078431372549" stop-color="#666666"/>
      <stop offset="1.0" stop-color="#cccccc"/>
    </linearGradient>
  </defs>
</svg>
