<?xml version="1.0" encoding="UTF-8" standalone="no"?>
<svg xmlns:ffdec="https://www.free-decompiler.com/flash" xmlns:xlink="http://www.w3.org/1999/xlink" ffdec:objectType="shape" height="60.0px" width="60.0px" xmlns="http://www.w3.org/2000/svg">
  <g transform="matrix(1.0, 0.0, 0.0, 1.0, 30.0, 30.0)">
    <path d="M21.2 -21.25 Q30.0 -12.45 30.0 0.0 30.0 12.4 21.2 21.2 12.45 30.0 0.0 30.0 -12.45 30.0 -21.25 21.2 -30.0 12.4 -30.0 0.0 -30.0 -12.45 -21.25 -21.25 -12.45 -30.0 0.0 -30.0 12.45 -30.0 21.2 -21.25" fill="#f5d57c" fill-rule="evenodd" stroke="none"/>
    <path d="M-19.75 -1.45 Q-20.8 -0.9 -22.5 -0.35 L-22.5 -4.3 Q-20.0 -5.1 -18.7 -6.15 -17.35 -7.25 -16.6 -8.9 L-12.7 -8.9 -12.7 8.6 -17.5 8.6 -17.5 -2.85 -19.75 -1.45" fill="#ffffff" fill-rule="evenodd" stroke="none"/>
    <path d="M6.45 8.6 L-7.85 8.6 Q-7.6 6.5 -6.35 4.6 -5.1 2.7 -1.65 0.15 L1.0 -2.2 Q1.6 -2.95 1.6 -3.7 1.6 -4.5 1.0 -5.05 0.4 -5.65 -0.45 -5.65 -1.35 -5.65 -1.95 -5.05 -2.5 -4.45 -2.7 -3.05 L-7.5 -3.4 Q-7.2 -5.4 -6.45 -6.6 -5.7 -7.7 -4.35 -8.3 -3.05 -8.9 -0.6 -8.9 L3.35 -8.35 Q4.7 -7.75 5.5 -6.6 6.35 -5.3 6.35 -3.9 6.35 -2.3 5.4 -0.9 4.55 0.5 2.1 2.25 L0.15 3.65 -1.0 4.7 6.45 4.7 6.45 8.6" fill="#ffffff" fill-rule="evenodd" stroke="none"/>
    <path d="M16.45 -5.5 Q16.0 -5.95 15.2 -5.95 14.35 -5.95 13.8 -5.4 13.25 -4.9 13.1 -3.65 L8.6 -4.45 Q9.15 -6.6 10.75 -7.75 12.3 -8.9 15.3 -8.9 18.65 -8.9 20.1 -7.65 21.6 -6.35 21.6 -4.5 21.6 -3.35 21.0 -2.45 20.35 -1.5 19.2 -0.9 L20.7 -0.3 Q21.6 0.25 22.05 1.1 22.5 1.95 22.5 3.1 22.5 4.6 21.7 6.0 20.9 7.4 19.45 8.15 17.95 8.9 15.6 8.9 L11.9 8.35 Q10.5 7.75 9.7 6.75 8.8 5.65 8.35 4.05 L13.1 3.4 Q13.35 4.85 13.95 5.4 14.6 6.0 15.45 6.0 16.45 6.0 17.05 5.25 17.7 4.55 17.7 3.4 17.7 2.25 17.1 1.55 16.5 0.9 15.45 0.9 L13.85 1.2 14.1 -2.25 14.75 -2.2 Q15.65 -2.2 16.3 -2.8 16.95 -3.4 16.95 -4.2 16.95 -5.0 16.45 -5.5" fill="#ffffff" fill-rule="evenodd" stroke="none"/>
  </g>
</svg>
