<?xml version="1.0" encoding="UTF-8" standalone="no"?>
<svg xmlns:ffdec="https://www.free-decompiler.com/flash" xmlns:xlink="http://www.w3.org/1999/xlink" ffdec:objectType="shape" height="218.8px" width="218.75px" xmlns="http://www.w3.org/2000/svg">
  <g transform="matrix(1.0, 0.0, 0.0, 1.0, 109.35, 109.4)">
    <path d="M-42.55 100.8 Q-61.25 92.9 -75.85 78.8 L0.05 2.85 75.95 78.75 Q61.3 92.9 42.6 100.8 22.3 109.4 0.05 109.4 -22.25 109.4 -42.55 100.8 M-100.75 -42.6 Q-92.85 -61.3 -78.7 -75.9 L-2.8 0.0 -78.7 75.95 Q-92.85 61.3 -100.75 42.6 -109.35 22.25 -109.35 0.0 -109.35 -22.3 -100.75 -42.6 M78.8 -75.95 Q92.95 -61.3 100.85 -42.6 109.4 -22.3 109.4 0.0 109.4 22.25 100.85 42.6 92.95 61.3 78.8 75.95 L2.9 0.0 78.8 -75.95 M0.05 -109.4 Q22.3 -109.4 42.6 -100.8 61.3 -92.9 75.95 -78.75 L0.05 -2.8 -75.85 -78.75 Q-61.25 -92.9 -42.55 -100.8 -22.25 -109.4 0.05 -109.4" fill="#ffffff" fill-rule="evenodd" stroke="none"/>
  </g>
</svg>
