<?xml version="1.0" encoding="UTF-8" standalone="no"?>
<svg xmlns:ffdec="https://www.free-decompiler.com/flash" xmlns:xlink="http://www.w3.org/1999/xlink" ffdec:objectType="shape" height="234.8px" width="234.75px" xmlns="http://www.w3.org/2000/svg">
  <g transform="matrix(1.0, 0.0, 0.0, 1.0, 117.35, 117.4)">
    <path d="M0.05 -109.4 Q-22.25 -109.4 -42.55 -100.8 -61.25 -92.9 -75.85 -78.75 L0.05 -2.8 75.95 -78.75 Q61.3 -92.9 42.6 -100.8 22.3 -109.4 0.05 -109.4 M0.05 -117.4 Q23.9 -117.4 45.7 -108.2 66.8 -99.25 83.05 -83.0 99.25 -66.75 108.2 -45.7 117.4 -23.9 117.4 0.0 117.4 23.85 108.2 45.7 99.25 66.75 83.05 83.0 66.8 99.25 45.7 108.15 23.9 117.4 0.05 117.4 -23.85 117.4 -45.65 108.15 -66.7 99.25 -82.95 83.0 -99.2 66.75 -108.15 45.7 -117.35 23.85 -117.35 0.0 -117.35 -23.9 -108.15 -45.7 -99.2 -66.75 -82.95 -83.0 -66.7 -99.25 -45.65 -108.2 -23.85 -117.4 0.05 -117.4 M78.8 -75.95 L2.9 0.0 78.8 75.95 Q92.95 61.3 100.85 42.6 109.4 22.25 109.4 0.0 109.4 -22.3 100.85 -42.6 92.95 -61.3 78.8 -75.95 M-100.75 -42.6 Q-109.35 -22.3 -109.35 0.0 -109.35 22.25 -100.75 42.6 -92.85 61.3 -78.7 75.95 L-2.8 0.0 -78.7 -75.9 Q-92.85 -61.3 -100.75 -42.6 M-42.55 100.8 Q-22.25 109.4 0.05 109.4 22.3 109.4 42.6 100.8 61.3 92.9 75.95 78.75 L0.05 2.85 -75.85 78.8 Q-61.25 92.9 -42.55 100.8" fill="#514229" fill-rule="evenodd" stroke="none"/>
  </g>
</svg>
