<?xml version="1.0" encoding="UTF-8" standalone="no"?>
<svg xmlns:ffdec="https://www.free-decompiler.com/flash" xmlns:xlink="http://www.w3.org/1999/xlink" ffdec:objectType="shape" height="168.55px" width="249.25px" xmlns="http://www.w3.org/2000/svg">
  <g transform="matrix(1.0, 0.0, 0.0, 1.0, 124.65, 84.3)">
    <path d="M70.9 -55.9 Q80.25 -55.9 89.85 -47.65 95.3 -42.95 102.5 -33.5 L105.85 -28.9 Q109.45 -23.7 110.85 -20.5 114.8 -11.55 112.3 -4.0 117.9 -0.55 121.15 6.35 124.55 13.45 124.6 22.4 124.7 29.5 122.6 35.45 120.5 41.4 116.5 45.45 L114.95 46.85 115.15 47.9 Q115.7 52.15 113.85 56.85 111.95 61.6 107.4 67.5 L102.85 73.0 Q99.5 76.65 97.35 78.2 92.25 81.8 85.65 83.2 L74.2 84.25 25.8 84.25 10.0 84.0 Q6.15 83.75 4.1 82.9 1.8 81.95 0.0 80.4 -1.9 82.0 -4.2 82.9 -6.25 83.75 -10.05 84.0 L-25.85 84.25 -74.25 84.25 -85.7 83.2 Q-92.3 81.8 -97.4 78.2 -99.55 76.65 -102.85 73.0 L-107.45 67.5 Q-112.0 61.6 -113.85 56.85 -115.75 52.15 -115.2 47.9 L-115.0 46.85 -116.55 45.45 Q-120.55 41.4 -122.65 35.45 -124.7 29.5 -124.65 22.4 -124.55 13.45 -121.2 6.35 -117.95 -0.55 -112.35 -4.0 -114.85 -11.55 -110.9 -20.5 -109.5 -23.7 -105.9 -28.9 L-102.55 -33.5 Q-95.2 -43.05 -89.85 -47.65 -80.3 -55.9 -70.95 -55.9 L-70.05 -55.9 Q-67.35 -66.15 -55.1 -73.6 -45.75 -79.3 -31.5 -82.95 -26.4 -84.3 -21.6 -84.3 -14.75 -84.3 -9.2 -81.5 -3.65 -78.75 0.0 -73.5 3.6 -78.7 9.15 -81.5 14.7 -84.3 21.55 -84.3 26.35 -84.3 31.45 -82.95 45.7 -79.25 55.05 -73.6 67.3 -66.15 70.0 -55.9 L70.9 -55.9" fill="#5fafa4" fill-rule="evenodd" stroke="none"/>
    <path d="M45.7 -65.05 Q57.1 -59.25 58.5 -52.3 59.2 -48.85 56.0 -45.1 L50.4 -39.65 Q47.5 -36.6 48.75 -32.4 50.05 -28.1 54.6 -29.25 57.4 -29.95 60.5 -35.0 64.15 -40.95 65.65 -42.1 71.95 -46.9 81.3 -39.15 86.05 -35.2 93.45 -25.6 98.1 -19.55 99.8 -15.9 103.0 -8.85 99.3 -5.15 96.75 -2.55 91.5 -1.3 L82.95 0.55 Q79.25 1.65 77.85 4.35 76.3 7.45 79.75 10.3 82.95 12.95 90.15 9.9 L95.85 7.2 Q99.05 5.7 100.65 5.35 106.05 4.15 109.55 10.0 112.7 15.3 112.65 23.1 112.55 31.15 109.0 35.85 104.9 41.25 97.75 39.45 91.85 37.95 90.25 38.0 86.05 38.25 86.25 43.3 86.45 47.7 92.7 47.65 L97.75 47.35 101.8 47.6 Q105.75 49.1 99.4 58.2 94.0 65.85 90.4 68.4 86.0 71.5 78.85 72.1 L66.55 72.15 33.35 72.5 Q10.9 72.7 8.7 71.8 6.75 71.0 5.9 66.5 5.5 64.35 4.95 57.25 4.55 51.1 3.75 48.45 2.6 44.55 0.0 44.55 -4.1 44.55 -5.0 57.25 -5.55 64.35 -5.95 66.5 -6.75 71.0 -8.75 71.8 -10.95 72.7 -33.4 72.5 -59.1 72.15 -66.6 72.15 L-78.9 72.1 Q-86.05 71.5 -90.45 68.4 -94.05 65.85 -99.45 58.2 -105.8 49.1 -101.85 47.6 L-97.8 47.35 -92.75 47.65 Q-86.5 47.7 -86.3 43.3 -86.05 38.25 -90.3 38.0 -91.9 37.95 -97.8 39.45 -104.95 41.25 -109.05 35.85 -112.6 31.15 -112.65 23.1 -112.75 15.3 -109.6 10.0 -106.1 4.15 -100.7 5.35 -98.0 5.95 -90.2 9.9 -83.0 12.95 -79.8 10.3 -76.35 7.45 -77.9 4.35 -79.3 1.65 -83.0 0.55 L-91.55 -1.3 Q-96.8 -2.55 -99.35 -5.15 -103.05 -8.85 -99.85 -15.9 -98.15 -19.55 -93.5 -25.6 -86.1 -35.2 -81.3 -39.15 -72.0 -46.9 -65.7 -42.1 -64.2 -40.95 -60.55 -35.0 -57.45 -29.95 -54.65 -29.25 -50.1 -28.1 -48.8 -32.4 -47.55 -36.6 -50.45 -39.65 L-56.05 -45.1 Q-59.25 -48.85 -58.55 -52.3 -57.15 -59.25 -45.75 -65.05 -38.35 -68.8 -28.5 -71.35 -22.6 -72.85 -18.05 -71.95 -12.45 -70.8 -9.5 -66.05 -5.75 -59.95 -4.65 -38.6 -4.2 -29.25 -3.55 -25.85 -2.5 -20.45 0.0 -20.45 2.5 -20.45 3.5 -25.85 4.15 -29.25 4.65 -38.6 5.65 -59.95 9.45 -66.05 12.4 -70.8 18.0 -71.95 22.55 -72.85 28.45 -71.35 38.3 -68.8 45.7 -65.05" fill="#9cce9e" fill-rule="evenodd" stroke="none"/>
  </g>
</svg>
