<?xml version="1.0" encoding="UTF-8" standalone="no"?>
<svg xmlns:ffdec="https://www.free-decompiler.com/flash" xmlns:xlink="http://www.w3.org/1999/xlink" ffdec:objectType="shape" height="74.75px" width="89.8px" xmlns="http://www.w3.org/2000/svg">
  <g transform="matrix(1.0, 0.0, 0.0, 1.0, 44.9, 37.35)">
    <path d="M35.95 -31.4 L35.95 -27.05 -1.45 -2.05 -38.95 -27.05 -38.95 -31.4 35.95 -31.4 M-38.95 25.45 L-38.95 -19.85 -1.45 5.1 35.95 -19.85 35.95 25.45 -38.95 25.45" fill="#ffffff" fill-rule="evenodd" stroke="none"/>
    <path d="M35.95 -31.4 L-38.95 -31.4 -38.95 -27.05 -1.45 -2.05 35.95 -27.05 35.95 -31.4 M-41.9 31.45 L-44.9 31.45 -44.9 -37.35 41.9 -37.35 41.9 -31.4 41.9 31.45 -41.9 31.45 M-38.95 25.45 L35.95 25.45 35.95 -19.85 -1.45 5.1 -38.95 -19.85 -38.95 25.45" fill="#858789" fill-rule="evenodd" stroke="none"/>
    <path d="M41.9 -31.4 L44.9 -31.4 44.9 37.4 -41.9 37.4 -41.9 31.45 41.9 31.45 41.9 -31.4" fill="#606163" fill-rule="evenodd" stroke="none"/>
  </g>
</svg>
