<?xml version="1.0" encoding="UTF-8" standalone="no"?>
<svg xmlns:ffdec="https://www.free-decompiler.com/flash" xmlns:xlink="http://www.w3.org/1999/xlink" ffdec:objectType="shape" height="415.15px" width="144.95px" xmlns="http://www.w3.org/2000/svg">
  <g transform="matrix(1.0, 0.0, 0.0, 1.0, 72.45, 207.55)">
    <path d="M8.05 -178.7 L8.1 -178.6 Q6.85 -176.7 3.85 -174.75 -2.25 -170.9 -11.25 -170.65 -17.8 -170.45 -23.75 -174.75 -26.75 -176.95 -28.4 -179.15 L-23.3 -183.6 Q-17.3 -188.1 -12.95 -188.15 -3.05 -188.3 3.5 -183.45 6.75 -181.1 8.05 -178.7" fill="#ffffff" fill-rule="evenodd" stroke="none"/>
    <path d="M-28.4 -179.15 L-23.75 -207.55 2.05 -206.25 8.1 -178.7 8.05 -178.7 Q6.75 -181.1 3.5 -183.45 -3.05 -188.3 -12.95 -188.15 -17.3 -188.1 -23.3 -183.6 L-28.4 -179.15" fill="#333333" fill-rule="evenodd" stroke="none"/>
    <path d="M7.4 -179.45 L72.5 207.6 -72.45 207.6 -28.6 -179.45 7.4 -179.45" fill="url(#gradient0)" fill-rule="evenodd" stroke="none"/>
  </g>
  <defs>
    <linearGradient color-interpolation="linearRGB" gradientTransform="matrix(0.0, -0.147, 0.2362, 0.0, 0.0, 14.05)" gradientUnits="userSpaceOnUse" id="gradient0" spreadMethod="pad" x1="-819.2" x2="819.2">
      <stop offset="0.0" stop-color="#ffffff" stop-opacity="0.0"/>
      <stop offset="1.0" stop-color="#ffffff" stop-opacity="0.8"/>
    </linearGradient>
  </defs>
</svg>
