<?xml version="1.0" encoding="UTF-8" standalone="no"?>
<svg xmlns:ffdec="https://www.free-decompiler.com/flash" xmlns:xlink="http://www.w3.org/1999/xlink" ffdec:objectType="shape" height="574.25px" width="884.55px" xmlns="http://www.w3.org/2000/svg">
  <g transform="matrix(1.0, 0.0, 0.0, 1.0, 442.3, 287.1)">
    <path d="M307.4 123.1 L418.6 258.35 -414.9 256.1 -297.65 123.1 307.4 123.1" fill="#cfd5de" fill-rule="evenodd" stroke="none"/>
    <path d="M297.35 110.85 L307.4 123.1 -297.65 123.1 -286.85 110.95 297.35 110.85" fill="#f3ffde" fill-rule="evenodd" stroke="none"/>
    <path d="M418.6 258.35 L442.25 287.15 -442.3 287.15 -414.9 256.1 418.6 258.35" fill="#f3ffde" fill-rule="evenodd" stroke="none"/>
    <path d="M275.25 -260.6 L247.25 85.15 -236.45 83.1 -275.3 -230.15 -172.05 -235.85 Q-138.05 -259.25 -89.3 -273.15 -40.5 -287.1 7.65 -287.1 43.75 -287.1 84.15 -278.1 123.9 -269.3 157.4 -254.1 L275.25 -260.6" fill="#899195" fill-rule="evenodd" stroke="none"/>
    <path d="M262.0 -247.9 L236.0 73.1 -226.0 71.1 -262.0 -218.9 -167.35 -224.1 -167.45 -224.6 Q-136.2 -246.75 -90.2 -260.5 -41.5 -275.1 7.5 -275.1 44.35 -275.1 85.0 -265.6 122.9 -256.75 154.8 -241.95 L262.0 -247.9" fill="#a1acb4" fill-rule="evenodd" stroke="none"/>
    <path d="M-182.85 -203.4 Q-182.85 -198.95 -186.0 -195.85 -189.15 -192.7 -193.6 -192.7 -198.05 -192.7 -201.2 -195.85 -204.35 -198.95 -204.35 -203.4 -204.35 -207.85 -201.2 -211.0 -198.05 -214.15 -193.6 -214.15 -189.15 -214.15 -186.0 -211.0 -182.85 -207.85 -182.85 -203.4" fill="#feffd5" fill-rule="evenodd" stroke="none"/>
    <path d="M183.8 -212.3 Q187.45 -215.95 192.65 -215.95 197.85 -215.95 201.55 -212.3 205.2 -208.6 205.2 -203.4 205.2 -198.2 201.55 -194.55 197.85 -190.9 192.65 -190.9 187.5 -190.9 183.8 -194.55 180.15 -198.2 180.15 -203.4 180.15 -208.6 183.8 -212.3" fill="#feffd5" fill-rule="evenodd" stroke="none"/>
    <path d="M-218.65 -211.45 Q-215.3 -211.45 -212.95 -209.1 -210.6 -206.75 -210.6 -203.4 -210.6 -200.05 -212.95 -197.7 -215.3 -195.35 -218.65 -195.35 -222.0 -195.35 -224.35 -197.7 -226.7 -200.05 -226.7 -203.4 -226.7 -206.75 -224.35 -209.1 -222.0 -211.45 -218.65 -211.45" fill="#feffd5" fill-rule="evenodd" stroke="none"/>
    <path d="M-210.6 -175.95 Q-210.6 -172.6 -212.95 -170.25 -215.3 -167.9 -218.65 -167.9 -222.0 -167.9 -224.35 -170.25 -226.7 -172.6 -226.7 -175.95 -226.7 -179.3 -224.35 -181.65 -222.0 -184.0 -218.65 -184.0 -215.3 -184.0 -212.95 -181.65 -210.6 -179.3 -210.6 -175.95" fill="#feffd5" fill-rule="evenodd" stroke="none"/>
    <path d="M-210.6 -142.0 Q-210.6 -138.65 -212.95 -136.3 -215.3 -133.95 -218.65 -133.95 -222.0 -133.95 -224.35 -136.3 -226.7 -138.65 -226.7 -142.0 -226.7 -145.35 -224.35 -147.7 -222.0 -150.05 -218.65 -150.05 -215.3 -150.05 -212.95 -147.7 -210.6 -145.35 -210.6 -142.0" fill="#feffd5" fill-rule="evenodd" stroke="none"/>
    <path d="M-218.65 -96.0 Q-215.3 -96.0 -212.95 -93.65 -210.6 -91.3 -210.6 -87.95 -210.6 -84.6 -212.95 -82.25 -215.3 -79.9 -218.65 -79.9 -222.0 -79.9 -224.35 -82.25 -226.7 -84.6 -226.7 -87.95 -226.7 -91.3 -224.35 -93.65 -222.0 -96.0 -218.65 -96.0" fill="#feffd5" fill-rule="evenodd" stroke="none"/>
    <path d="M-210.6 -48.9 Q-210.6 -45.55 -212.95 -43.2 -215.3 -40.8 -218.65 -40.8 -222.0 -40.8 -224.35 -43.2 -226.7 -45.55 -226.7 -48.9 -226.7 -52.2 -224.35 -54.55 -222.0 -56.95 -218.65 -56.95 -215.3 -56.95 -212.95 -54.55 -210.6 -52.2 -210.6 -48.9" fill="#feffd5" fill-rule="evenodd" stroke="none"/>
    <path d="M-218.65 -11.95 Q-215.3 -11.95 -212.95 -9.55 -210.6 -7.2 -210.6 -3.9 -210.6 -0.55 -212.95 1.8 -215.3 4.2 -218.65 4.2 -222.0 4.2 -224.35 1.8 -226.7 -0.55 -226.7 -3.9 -226.7 -7.2 -224.35 -9.55 -222.0 -11.95 -218.65 -11.95" fill="#feffd5" fill-rule="evenodd" stroke="none"/>
    <path d="M-210.6 24.1 Q-210.6 27.45 -212.95 29.8 -215.3 32.2 -218.65 32.2 -222.0 32.2 -224.35 29.8 -226.7 27.45 -226.7 24.1 -226.7 20.8 -224.35 18.45 -222.0 16.05 -218.65 16.05 -215.3 16.05 -212.95 18.45 -210.6 20.8 -210.6 24.1" fill="#feffd5" fill-rule="evenodd" stroke="none"/>
    <path d="M226.65 -203.4 Q226.65 -200.05 224.3 -197.7 221.95 -195.35 218.6 -195.35 215.25 -195.35 212.9 -197.7 210.55 -200.05 210.55 -203.4 210.55 -206.75 212.9 -209.1 215.25 -211.45 218.6 -211.45 221.95 -211.45 224.3 -209.1 226.65 -206.75 226.65 -203.4" fill="#feffd5" fill-rule="evenodd" stroke="none"/>
    <path d="M226.65 -169.9 Q226.65 -166.55 224.3 -164.2 221.95 -161.8 218.6 -161.8 215.25 -161.8 212.9 -164.2 210.55 -166.55 210.55 -169.9 210.55 -173.2 212.9 -175.55 215.25 -177.95 218.6 -177.95 221.95 -177.95 224.3 -175.55 226.65 -173.2 226.65 -169.9" fill="#feffd5" fill-rule="evenodd" stroke="none"/>
    <path d="M226.65 -130.9 Q226.65 -127.55 224.3 -125.2 221.95 -122.8 218.6 -122.8 215.25 -122.8 212.9 -125.2 210.55 -127.55 210.55 -130.9 210.55 -134.2 212.9 -136.55 215.25 -138.95 218.6 -138.95 221.95 -138.95 224.3 -136.55 226.65 -134.2 226.65 -130.9" fill="#feffd5" fill-rule="evenodd" stroke="none"/>
    <path d="M226.65 -95.9 Q226.65 -92.55 224.3 -90.2 221.95 -87.8 218.6 -87.8 215.25 -87.8 212.9 -90.2 210.55 -92.55 210.55 -95.9 210.55 -99.2 212.9 -101.55 215.25 -103.95 218.6 -103.95 221.95 -103.95 224.3 -101.55 226.65 -99.2 226.65 -95.9" fill="#feffd5" fill-rule="evenodd" stroke="none"/>
    <path d="M224.3 -44.55 Q226.65 -42.2 226.65 -38.9 226.65 -35.55 224.3 -33.2 221.95 -30.8 218.6 -30.8 215.25 -30.8 212.9 -33.2 210.55 -35.55 210.55 -38.9 210.55 -42.2 212.9 -44.55 215.25 -46.95 218.6 -46.95 221.95 -46.95 224.3 -44.55" fill="#feffd5" fill-rule="evenodd" stroke="none"/>
    <path d="M226.65 -5.9 Q226.65 -2.55 224.3 -0.2 221.95 2.2 218.6 2.2 215.25 2.2 212.9 -0.2 210.55 -2.55 210.55 -5.9 210.55 -9.2 212.9 -11.55 215.25 -13.95 218.6 -13.95 221.95 -13.95 224.3 -11.55 226.65 -9.2 226.65 -5.9" fill="#feffd5" fill-rule="evenodd" stroke="none"/>
    <path d="M226.65 23.1 Q226.65 26.45 224.3 28.8 221.95 31.2 218.6 31.2 215.25 31.2 212.9 28.8 210.55 26.45 210.55 23.1 210.55 19.8 212.9 17.45 215.25 15.05 218.6 15.05 221.95 15.05 224.3 17.45 226.65 19.8 226.65 23.1" fill="#feffd5" fill-rule="evenodd" stroke="none"/>
    <path d="M-158.25 -203.4 Q-158.25 -199.55 -161.0 -196.75 -163.75 -194.0 -167.65 -194.0 -171.55 -194.0 -174.3 -196.75 -177.05 -199.55 -177.05 -203.4 -177.05 -207.3 -174.3 -210.05 -171.55 -212.8 -167.65 -212.8 -163.75 -212.8 -161.0 -210.05 -158.25 -207.3 -158.25 -203.4" fill="#feffd5" fill-rule="evenodd" stroke="none"/>
    <path d="M175.2 -203.4 Q175.2 -199.85 172.45 -197.4 169.7 -194.9 165.8 -194.9 161.95 -194.9 159.15 -197.4 156.4 -199.9 156.4 -203.4 156.4 -206.9 159.15 -209.4 161.95 -211.9 165.8 -211.9 169.7 -211.9 172.45 -209.4 175.2 -206.9 175.2 -203.4" fill="#feffd5" fill-rule="evenodd" stroke="none"/>
    <path d="M-151.1 166.05 Q-138.65 157.25 -115.95 150.45 -67.95 136.1 0.0 136.1 67.9 136.1 115.95 150.45 138.65 157.25 151.1 166.05 164.0 175.15 164.0 185.1 164.0 195.05 151.1 204.15 138.65 212.95 115.95 219.75 67.9 234.1 0.0 234.1 -67.95 234.1 -115.95 219.75 -138.65 212.95 -151.1 204.15 -164.0 195.05 -164.0 185.1 -164.0 175.15 -151.1 166.05" fill="#d0cfcb" fill-rule="evenodd" stroke="none"/>
    <path d="M-144.55 165.1 Q-132.95 156.95 -111.8 150.6 -67.05 137.25 -3.75 137.25 59.55 137.25 104.3 150.6 125.45 156.95 137.05 165.1 149.05 173.6 149.05 182.85 149.05 192.15 137.05 200.6 125.45 208.8 104.3 215.15 59.55 228.5 -3.75 228.5 -67.05 228.5 -111.8 215.15 -132.95 208.8 -144.55 200.6 -156.55 192.15 -156.55 182.85 -156.55 173.6 -144.55 165.1" fill="#f3ffde" fill-rule="evenodd" stroke="none"/>
  </g>
</svg>
