<?xml version="1.0" encoding="UTF-8" standalone="no"?>
<svg xmlns:ffdec="https://www.free-decompiler.com/flash" xmlns:xlink="http://www.w3.org/1999/xlink" ffdec:objectType="shape" height="51.8px" width="161.2px" xmlns="http://www.w3.org/2000/svg">
  <g transform="matrix(1.0, 0.0, 0.0, 1.0, 80.0, 5.85)">
    <path d="M2.6 -4.4 L0.9 -4.55 0.85 -1.15 -1.8 -1.15 -2.15 -4.55 -5.35 -4.45 -4.35 4.2 -3.0 4.25 -2.75 0.95 -0.05 0.8 -0.05 4.25 1.95 4.05 2.6 -4.4 M4.05 -4.9 Q5.0 -5.4 6.35 -5.4 L9.0 -5.45 Q10.8 -5.3 11.9 -4.1 12.85 -2.85 12.85 -1.1 L12.85 -0.8 Q12.75 0.4 12.3 1.2 L11.75 6.1 6.6 5.75 Q4.6 5.75 3.45 4.75 L3.3 4.6 3.2 5.55 -1.45 6.1 -1.45 2.55 -1.75 6.0 -5.6 5.8 -6.25 0.35 -7.4 0.4 -7.55 5.55 -11.75 6.2 -12.05 0.35 -14.1 0.6 -14.95 -5.35 -4.45 -5.85 -4.45 -5.5 -0.95 -5.6 -0.55 -2.2 -0.5 -2.2 -0.45 -5.7 4.05 -5.3 4.05 -4.9 M5.55 -1.2 L8.55 -1.05 Q9.0 -1.1 9.0 -0.5 9.0 0.1 8.4 0.05 L4.85 0.0 Q4.7 -1.15 5.55 -1.2 M8.85 -4.4 L6.45 -4.35 Q3.4 -4.35 3.4 -1.65 L3.65 1.3 Q3.6 4.2 6.75 4.1 L10.6 4.35 10.8 2.25 6.5 2.35 Q5.95 2.2 5.95 1.25 L8.5 1.45 Q11.45 1.45 11.5 -1.2 11.6 -4.15 8.85 -4.4 M15.8 -5.0 L21.3 -4.7 21.4 -4.7 23.3 -4.35 23.3 -5.15 28.55 -4.2 29.9 -4.4 33.9 -4.15 34.1 -4.15 Q35.2 -3.9 36.05 -3.15 L36.55 -2.7 Q37.5 -3.75 39.0 -3.65 L39.55 -3.65 43.1 -3.35 43.15 -3.35 43.25 -3.3 Q44.4 -3.1 45.25 -2.35 L45.8 -1.75 Q46.8 -2.7 48.45 -2.7 L51.55 -2.45 51.8 -2.45 Q53.4 -2.15 54.3 -1.05 L54.75 -0.4 54.9 -0.6 Q56.0 -1.7 57.65 -1.6 L57.9 -1.6 64.15 -1.0 64.15 -0.75 72.5 0.15 70.95 6.05 68.6 5.85 67.65 10.95 63.4 10.9 64.0 5.1 63.35 5.05 63.25 5.55 63.3 6.2 63.25 6.75 63.25 6.9 63.1 7.4 Q62.95 8.7 61.95 9.4 61.05 10.05 59.65 10.05 L52.7 9.4 52.75 9.2 48.4 8.5 Q46.55 8.4 45.55 7.5 L45.25 7.15 45.05 8.15 43.9 8.15 43.15 8.1 41.45 8.1 41.35 7.9 40.75 7.95 38.65 7.7 Q37.15 7.7 36.25 6.5 L36.1 7.3 32.45 7.4 32.4 7.1 31.75 7.2 29.7 7.0 Q28.1 6.95 27.2 5.8 L27.15 5.75 27.1 6.4 23.05 7.0 23.1 5.95 Q22.15 6.5 21.0 6.5 L13.85 6.05 14.45 -5.05 15.8 -5.0 M78.05 19.75 Q76.35 16.95 72.45 16.0 L61.05 14.2 58.55 24.0 71.05 26.35 Q74.4 27.25 73.7 28.95 73.05 30.7 70.45 30.0 L63.25 30.25 Q60.3 31.65 60.3 35.9 L67.2 37.5 67.4 36.0 Q67.95 33.3 70.65 33.45 73.2 33.6 75.4 32.55 77.55 31.45 78.25 28.0 79.75 22.6 78.05 19.75 M69.95 4.3 L70.8 1.05 63.4 0.2 63.35 3.4 65.55 3.55 64.9 9.25 66.55 9.3 67.5 4.1 69.95 4.3 M62.65 -0.05 L57.85 -0.55 Q55.4 -0.6 54.9 2.05 54.5 4.6 57.2 5.0 L59.7 5.35 Q60.4 5.45 60.25 6.05 60.15 6.7 59.65 6.55 L54.9 5.6 54.4 7.9 58.85 8.35 Q61.5 8.75 61.85 6.85 L61.95 6.3 Q62.3 4.25 59.75 4.05 L57.2 3.75 Q56.85 3.75 56.9 3.15 57.0 2.65 57.6 2.65 L62.15 3.65 62.65 -0.05 M51.55 -1.4 L51.45 -1.4 49.1 -1.6 Q46.05 -1.85 45.85 0.85 L45.85 3.8 Q45.5 6.6 48.65 6.9 L52.45 7.5 52.85 5.4 48.55 5.1 Q48.05 4.95 48.1 4.0 L50.65 4.35 Q53.5 4.6 53.85 2.05 54.2 -0.85 51.55 -1.4 M39.45 -2.6 Q36.9 -2.85 37.05 -0.05 L36.75 3.4 Q36.8 6.05 38.75 6.05 L40.4 6.25 Q41.95 6.45 42.1 5.15 L42.5 6.5 43.95 6.5 44.7 1.85 40.5 1.8 40.2 3.35 42.65 3.3 Q42.55 4.45 41.55 4.25 L38.15 3.95 38.3 0.65 42.7 0.95 42.95 1.6 45.1 -0.4 Q44.65 -1.9 43.0 -2.3 L39.45 -2.6 M27.05 -3.4 L24.7 -3.85 24.45 5.1 25.85 4.9 27.05 -3.4 M30.25 -3.35 Q27.7 -3.55 27.95 -0.75 L27.7 2.7 Q27.8 5.25 29.8 5.35 L31.45 5.55 Q32.95 5.65 33.1 4.35 L33.45 5.65 34.9 5.65 35.6 1.05 31.45 1.1 31.2 2.6 33.6 2.55 Q33.55 3.7 32.5 3.5 L29.1 3.2 29.2 -0.1 33.6 0.2 33.85 0.75 35.95 -1.25 Q35.45 -2.7 33.85 -3.1 L30.25 -3.35 M23.6 -1.8 Q23.6 -3.7 21.3 -3.65 L15.75 -3.95 15.3 4.5 20.85 4.85 Q22.8 4.85 23.35 3.05 23.7 1.85 22.65 0.65 23.65 -0.6 23.6 -1.8 M20.45 -0.65 L20.75 -0.55 Q21.1 -0.55 21.0 -0.1 21.0 0.4 20.3 0.4 L16.95 0.2 16.95 -0.7 20.45 -0.65 M80.0 18.6 Q81.3 20.75 81.2 23.45 81.2 25.7 80.4 28.5 79.6 32.9 76.4 34.6 74.05 35.7 71.15 35.7 L70.35 35.7 69.85 35.8 69.65 36.4 69.4 37.85 69.25 38.3 Q69.65 39.15 69.35 39.9 L67.85 44.35 Q67.7 45.1 67.05 45.5 66.45 45.95 65.75 45.95 L65.3 45.9 58.65 44.6 Q57.8 44.45 57.2 43.65 56.7 42.8 56.9 41.95 L57.85 37.15 58.1 36.5 58.05 35.85 Q58.05 33.15 59.05 31.3 60.1 29.25 62.4 28.2 L64.65 27.45 58.1 26.25 Q57.1 26.0 56.65 25.25 56.1 24.35 56.35 23.45 L58.9 13.65 Q59.1 12.8 59.85 12.35 60.55 11.85 61.45 11.95 L72.8 13.75 73.0 13.8 Q77.8 14.95 80.0 18.6 M50.9 1.9 Q51.3 1.9 51.3 2.5 51.3 3.1 50.7 3.0 L47.1 2.65 Q47.05 1.5 47.95 1.5 L50.9 1.9 M21.7 2.25 L21.15 2.6 17.25 2.65 17.0 1.5 21.4 1.75 Q21.8 1.75 21.7 2.25 M60.05 37.6 L59.1 42.35 65.75 43.7 67.2 39.2 60.05 37.6 M-60.8 -1.2 L-64.0 -0.7 -61.95 7.75 -60.6 7.65 -60.75 4.3 -58.1 3.85 -57.65 7.3 -55.7 6.8 -56.05 -1.6 -57.75 -1.55 -57.45 1.85 -60.05 2.15 -60.8 -1.2 M-67.6 -0.35 L-67.6 -0.65 -65.55 -1.15 -65.65 -1.5 -59.7 -2.45 -59.0 0.95 -58.9 0.95 -59.25 -2.6 -54.7 -2.7 -54.7 -2.35 Q-54.05 -2.9 -53.15 -3.05 L-53.05 -3.1 -49.1 -3.35 -48.9 -3.4 Q-47.05 -3.4 -46.1 -2.3 -45.15 -1.25 -45.05 0.55 L-45.0 4.3 Q-44.9 5.75 -45.75 6.8 -46.5 7.8 -47.95 8.0 L-48.05 8.0 -48.15 8.05 -51.55 8.25 -51.95 8.3 -52.05 8.3 Q-53.3 8.3 -54.25 7.45 L-54.25 8.15 -58.8 9.3 -59.2 5.75 -59.3 5.75 -59.15 9.2 -63.0 9.5 -63.3 8.4 -63.95 5.5 -64.8 10.4 -68.9 10.15 -69.5 8.9 -70.0 10.6 -73.5 10.9 -80.0 0.45 -73.6 -0.25 -73.55 -0.1 -73.55 -0.45 -67.8 -1.0 -67.6 -0.35 M-34.8 -3.45 L-36.5 -3.45 -36.3 -0.05 -38.95 0.15 -39.55 -3.2 -42.75 -2.85 -41.1 5.65 -39.7 5.6 -39.7 2.25 -37.05 1.95 -36.8 5.4 -34.8 5.0 -34.8 -3.45 M-52.85 -2.05 Q-53.95 -1.75 -54.4 -0.95 -54.9 -0.1 -54.9 0.9 L-54.45 4.25 Q-53.65 6.8 -51.7 6.6 L-48.25 6.4 Q-46.1 6.0 -46.4 3.55 L-46.5 0.25 Q-46.5 -2.35 -49.05 -2.3 L-52.85 -2.05 M-33.4 -4.25 L-28.9 -4.7 -28.25 -4.7 Q-26.45 -4.8 -25.4 -3.5 L-25.35 -3.45 -25.15 -3.75 Q-24.15 -4.95 -22.45 -5.15 L-16.1 -5.6 -15.95 1.05 -15.7 2.25 -15.7 2.35 -15.75 2.85 Q-15.65 4.5 -16.95 5.35 -18.05 6.1 -19.75 6.1 L-25.65 6.5 -25.65 6.15 -26.1 6.05 -26.7 5.85 Q-27.25 6.45 -28.1 6.55 L-28.2 6.6 -30.6 6.55 Q-32.4 6.55 -33.4 5.8 L-33.4 6.4 -38.0 7.35 -38.25 3.75 -38.3 3.75 -38.3 7.25 -42.15 7.35 -44.35 -3.75 -38.4 -4.45 -37.75 -1.0 -37.9 -4.55 -33.4 -4.5 -33.4 -4.25 M-13.4 -4.4 L-12.95 -1.2 -10.75 -1.4 -10.5 4.35 -8.85 4.1 -8.7 -1.2 -6.3 -1.3 -5.95 -4.7 -13.4 -4.4 M-22.25 -4.15 Q-24.65 -3.8 -24.7 -1.1 -24.7 1.55 -21.95 1.45 L-19.4 1.4 Q-18.7 1.3 -18.8 2.0 -18.8 2.65 -19.3 2.65 L-24.15 2.45 -24.25 4.75 -19.8 4.5 Q-17.1 4.45 -17.1 2.5 L-17.05 2.0 Q-17.1 -0.1 -19.6 0.1 L-22.15 0.2 Q-22.55 0.3 -22.55 -0.25 -22.6 -0.8 -21.95 -0.95 L-17.35 -0.65 -17.45 -4.45 -22.25 -4.15 M-25.85 -0.75 Q-25.85 -4.0 -28.75 -3.65 L-33.3 -3.2 -33.15 0.05 -27.75 -0.55 Q-27.1 -0.45 -26.95 0.8 -27.5 0.2 -28.05 0.2 L-30.75 0.2 Q-33.4 0.35 -33.5 2.35 -33.5 4.9 -30.6 4.95 L-28.35 4.95 -27.05 4.0 -25.25 4.55 -25.6 3.15 -25.85 -0.75 M-26.8 2.1 Q-26.8 2.65 -27.2 2.65 L-30.5 2.7 Q-31.1 2.8 -31.05 2.15 -31.05 1.5 -30.75 1.5 L-27.2 1.5 Q-26.8 1.5 -26.8 2.1 M-49.35 0.7 L-48.7 4.6 -53.3 5.0 -53.45 1.4 -49.35 0.7 M-50.4 2.6 L-52.0 2.85 -51.95 3.8 -50.25 3.65 -50.4 2.6 M-66.9 5.6 L-68.8 0.15 -72.2 0.45 -72.3 6.1 -74.55 0.9 -77.75 1.25 -72.8 9.2 -71.1 9.0 -69.75 4.65 -68.05 8.5 -65.95 8.65 -64.45 -0.25 -66.35 0.2 -66.9 5.6" fill="#281905" fill-rule="evenodd" stroke="none"/>
    <path d="M2.6 -4.4 L1.95 4.05 -0.05 4.25 -0.05 0.8 -2.75 0.95 -3.0 4.25 -4.35 4.2 -5.35 -4.45 -2.15 -4.55 -1.8 -1.15 0.85 -1.15 0.9 -4.55 2.6 -4.4 M8.85 -4.4 Q11.6 -4.15 11.5 -1.2 11.45 1.45 8.5 1.45 L5.95 1.25 Q5.95 2.2 6.5 2.35 L10.8 2.25 10.6 4.35 6.75 4.1 Q3.6 4.2 3.65 1.3 L3.4 -1.65 Q3.4 -4.35 6.45 -4.35 L8.85 -4.4 M5.55 -1.2 Q4.7 -1.15 4.85 0.0 L8.4 0.05 Q9.0 0.1 9.0 -0.5 9.0 -1.1 8.55 -1.05 L5.55 -1.2 M20.45 -0.65 L16.95 -0.7 16.95 0.2 20.3 0.4 Q21.0 0.4 21.0 -0.1 21.1 -0.55 20.75 -0.55 L20.45 -0.65 M23.6 -1.8 Q23.65 -0.6 22.65 0.65 23.7 1.85 23.35 3.05 22.8 4.85 20.85 4.85 L15.3 4.5 15.75 -3.95 21.3 -3.65 Q23.6 -3.7 23.6 -1.8 M30.25 -3.35 L33.85 -3.1 Q35.45 -2.7 35.95 -1.25 L33.85 0.75 33.6 0.2 29.2 -0.1 29.1 3.2 32.5 3.5 Q33.55 3.7 33.6 2.55 L31.2 2.6 31.45 1.1 35.6 1.05 34.9 5.65 33.45 5.65 33.1 4.35 Q32.95 5.65 31.45 5.55 L29.8 5.35 Q27.8 5.25 27.7 2.7 L27.95 -0.75 Q27.7 -3.55 30.25 -3.35 M27.05 -3.4 L25.85 4.9 24.45 5.1 24.7 -3.85 27.05 -3.4 M39.45 -2.6 L43.0 -2.3 Q44.65 -1.9 45.1 -0.4 L42.95 1.6 42.7 0.95 38.3 0.65 38.15 3.95 41.55 4.25 Q42.55 4.45 42.65 3.3 L40.2 3.35 40.5 1.8 44.7 1.85 43.95 6.5 42.5 6.5 42.1 5.15 Q41.95 6.45 40.4 6.25 L38.75 6.05 Q36.8 6.05 36.75 3.4 L37.05 -0.05 Q36.9 -2.85 39.45 -2.6 M51.55 -1.4 Q54.2 -0.85 53.85 2.05 53.5 4.6 50.65 4.35 L48.1 4.0 Q48.05 4.95 48.55 5.1 L52.85 5.4 52.45 7.5 48.65 6.9 Q45.5 6.6 45.85 3.8 L45.85 0.85 Q46.05 -1.85 49.1 -1.6 L51.45 -1.4 51.55 -1.4 M62.65 -0.05 L62.15 3.65 57.6 2.65 Q57.0 2.65 56.9 3.15 56.85 3.75 57.2 3.75 L59.75 4.05 Q62.3 4.25 61.95 6.3 L61.85 6.85 Q61.5 8.75 58.85 8.35 L54.4 7.9 54.9 5.6 59.65 6.55 Q60.15 6.7 60.25 6.05 60.4 5.45 59.7 5.35 L57.2 5.0 Q54.5 4.6 54.9 2.05 55.4 -0.6 57.85 -0.55 L62.65 -0.05 M69.95 4.3 L67.5 4.1 66.55 9.3 64.9 9.25 65.55 3.55 63.35 3.4 63.4 0.2 70.8 1.05 69.95 4.3 M78.05 19.75 Q79.75 22.6 78.25 28.0 77.55 31.45 75.4 32.55 73.2 33.6 70.65 33.45 67.95 33.3 67.4 36.0 L67.2 37.5 60.3 35.9 Q60.3 31.65 63.25 30.25 L70.45 30.0 Q73.05 30.7 73.7 28.95 74.4 27.25 71.05 26.35 L58.55 24.0 61.05 14.2 72.45 16.0 Q76.35 16.95 78.05 19.75 M50.9 1.9 L47.95 1.5 Q47.05 1.5 47.1 2.65 L50.7 3.0 Q51.3 3.1 51.3 2.5 51.3 1.9 50.9 1.9 M60.05 37.6 L67.2 39.2 65.75 43.7 59.1 42.35 60.05 37.6 M21.7 2.25 Q21.8 1.75 21.4 1.75 L17.0 1.5 17.25 2.65 21.15 2.6 21.7 2.25 M-60.8 -1.2 L-60.05 2.15 -57.45 1.85 -57.75 -1.55 -56.05 -1.6 -55.7 6.8 -57.65 7.3 -58.1 3.85 -60.75 4.3 -60.6 7.65 -61.95 7.75 -64.0 -0.7 -60.8 -1.2 M-52.85 -2.05 L-49.05 -2.3 Q-46.5 -2.35 -46.5 0.25 L-46.4 3.55 Q-46.1 6.0 -48.25 6.4 L-51.7 6.6 Q-53.65 6.8 -54.45 4.25 L-54.9 0.9 Q-54.9 -0.1 -54.4 -0.95 -53.95 -1.75 -52.85 -2.05 M-34.8 -3.45 L-34.8 5.0 -36.8 5.4 -37.05 1.95 -39.7 2.25 -39.7 5.6 -41.1 5.65 -42.75 -2.85 -39.55 -3.2 -38.95 0.15 -36.3 -0.05 -36.5 -3.45 -34.8 -3.45 M-25.85 -0.75 L-25.6 3.15 -25.25 4.55 -27.05 4.0 -28.35 4.95 -30.6 4.95 Q-33.5 4.9 -33.5 2.35 -33.4 0.35 -30.75 0.2 L-28.05 0.2 Q-27.5 0.2 -26.95 0.8 -27.1 -0.45 -27.75 -0.55 L-33.15 0.05 -33.3 -3.2 -28.75 -3.65 Q-25.85 -4.0 -25.85 -0.75 M-22.25 -4.15 L-17.45 -4.45 -17.35 -0.65 -21.95 -0.95 Q-22.6 -0.8 -22.55 -0.25 -22.55 0.3 -22.15 0.2 L-19.6 0.1 Q-17.1 -0.1 -17.05 2.0 L-17.1 2.5 Q-17.1 4.45 -19.8 4.5 L-24.25 4.75 -24.15 2.45 -19.3 2.65 Q-18.8 2.65 -18.8 2.0 -18.7 1.3 -19.4 1.4 L-21.95 1.45 Q-24.7 1.55 -24.7 -1.1 -24.65 -3.8 -22.25 -4.15 M-13.4 -4.4 L-5.95 -4.7 -6.3 -1.3 -8.7 -1.2 -8.85 4.1 -10.5 4.35 -10.75 -1.4 -12.95 -1.2 -13.4 -4.4 M-26.8 2.1 Q-26.8 1.5 -27.2 1.5 L-30.75 1.5 Q-31.05 1.5 -31.05 2.15 -31.1 2.8 -30.5 2.7 L-27.2 2.65 Q-26.8 2.65 -26.8 2.1 M-49.35 0.7 L-53.45 1.4 -53.3 5.0 -48.7 4.6 -49.35 0.7 M-66.9 5.6 L-66.35 0.2 -64.45 -0.25 -65.95 8.65 -68.05 8.5 -69.75 4.65 -71.1 9.0 -72.8 9.2 -77.75 1.25 -74.55 0.9 -72.3 6.1 -72.2 0.45 -68.8 0.15 -66.9 5.6" fill="#ffffff" fill-rule="evenodd" stroke="none"/>
    <path d="M45.5 11.15 Q49.8 11.85 52.2 14.35 54.75 17.1 54.7 21.2 L54.55 23.3 54.55 23.45 51.5 40.0 Q51.3 41.35 50.3 42.2 49.3 43.0 47.95 43.0 L42.2 42.2 Q40.65 41.95 39.75 40.75 38.85 39.5 39.15 38.0 L41.05 27.05 37.85 26.65 35.75 38.7 Q35.45 40.25 34.1 41.1 32.8 42.0 31.25 41.55 L26.15 40.3 Q25.25 40.05 24.65 39.5 L23.45 39.9 18.95 40.45 Q17.85 40.45 16.85 39.75 L15.35 39.45 12.65 38.4 12.6 38.35 Q10.65 39.85 8.6 40.05 L1.55 39.45 Q-2.6 39.15 -5.35 37.3 -5.75 38.15 -6.5 38.7 -7.4 39.3 -8.45 39.35 L-16.5 39.7 Q-18.6 39.8 -19.8 38.0 L-20.5 36.85 Q-20.75 37.95 -21.55 38.7 -22.4 39.45 -23.55 39.65 L-29.05 40.4 Q-30.35 40.4 -31.2 39.65 -32.3 38.85 -32.55 37.55 L-33.4 38.45 Q-35.8 40.75 -39.65 41.4 L-39.9 41.45 -55.35 43.1 -55.8 43.15 Q-57.15 43.15 -58.15 42.3 -59.2 41.35 -59.4 40.0 L-62.5 16.7 Q-62.7 15.2 -61.85 14.0 -60.95 12.8 -59.45 12.6 L-43.2 10.6 -40.4 10.35 Q-37.75 10.35 -35.85 11.35 L-35.3 10.45 Q-34.35 9.25 -32.75 9.1 L-15.0 8.0 -14.5 8.0 Q-9.8 8.0 -6.8 10.3 L-6.8 10.2 Q-5.8 9.2 -4.35 9.15 3.1 8.85 9.0 8.85 L9.4 8.85 Q13.55 8.85 16.3 10.7 16.6 9.75 17.4 9.05 18.65 8.0 20.35 8.3 L26.6 9.45 Q27.65 8.8 29.05 9.1 31.7 9.75 33.9 11.65 L34.95 11.05 Q36.5 10.4 37.85 10.4 L38.6 10.4 45.4 11.15 45.5 11.15 M51.55 22.0 Q52.6 15.0 45.55 13.9 L38.75 13.2 Q37.7 13.0 35.8 14.25 L33.9 15.5 32.5 13.9 Q30.75 12.25 28.85 11.85 L27.55 35.9 32.7 37.2 35.45 21.8 45.85 23.1 43.25 37.8 48.55 38.55 51.55 22.0 M27.2 12.3 L20.25 11.0 19.5 35.95 23.55 35.4 Q25.4 23.05 27.2 12.3 M13.8 28.0 Q13.75 29.65 12.55 29.55 L3.2 28.8 Q1.45 28.9 1.6 27.2 1.75 25.45 2.7 25.4 L12.75 26.2 Q13.9 26.35 13.8 28.0 M13.8 24.45 Q12.3 22.6 10.75 22.35 L3.0 21.75 Q-4.9 21.75 -5.35 27.3 -5.85 34.3 2.35 34.95 L8.75 35.55 Q9.85 35.45 11.3 34.3 L12.6 33.15 Q17.25 35.55 17.45 35.2 16.85 33.0 16.95 31.3 L17.35 20.35 Q18.25 11.4 9.65 11.55 L-3.7 11.85 -3.9 20.9 11.7 20.45 Q13.7 20.8 13.8 24.45 M-6.15 22.1 Q-4.4 10.45 -14.45 10.75 L-23.25 11.15 -32.0 11.8 -28.65 35.85 -23.65 35.1 -23.85 27.95 -21.2 27.6 -16.3 35.15 -8.15 34.8 -14.7 28.0 Q-7.0 27.7 -6.15 22.1 M-12.1 20.35 Q-10.3 20.3 -10.15 21.75 -10.1 23.2 -11.95 23.85 -19.2 23.55 -27.1 23.55 L-27.45 21.4 -12.1 20.35 M-39.65 28.1 Q-38.4 28.1 -38.6 29.35 -38.75 30.75 -40.05 30.55 L-50.9 32.4 -52.2 29.45 -39.65 28.1 M-36.65 24.45 L-35.5 22.2 Q-34.4 19.5 -34.8 17.3 -35.55 12.0 -42.3 13.25 L-58.6 15.25 -55.5 38.55 -39.85 36.9 Q-34.4 36.05 -33.6 30.85 -33.3 28.7 -34.9 26.45 L-36.65 24.45 M-43.35 22.0 L-42.5 22.0 Q-41.65 22.0 -41.5 23.25 -41.35 24.45 -43.4 24.9 L-53.05 25.95 -53.5 23.5 -43.35 22.0" fill="#7e1865" fill-rule="evenodd" stroke="none"/>
    <path d="M51.55 22.0 L48.55 38.55 43.25 37.8 45.85 23.1 35.45 21.8 32.7 37.2 27.55 35.9 28.85 11.85 Q30.75 12.25 32.5 13.9 L33.9 15.5 35.8 14.25 Q37.7 13.0 38.75 13.2 L45.55 13.9 Q52.6 15.0 51.55 22.0 M27.2 12.3 Q25.4 23.05 23.55 35.4 L19.5 35.95 20.25 11.0 27.2 12.3 M13.8 24.45 Q13.7 20.8 11.7 20.45 L-3.9 20.9 -3.7 11.85 9.65 11.55 Q18.25 11.4 17.35 20.35 L16.95 31.3 Q16.85 33.0 17.45 35.2 17.25 35.55 12.6 33.15 L11.3 34.3 Q9.85 35.45 8.75 35.55 L2.35 34.95 Q-5.85 34.3 -5.35 27.3 -4.9 21.75 3.0 21.75 L10.75 22.35 Q12.3 22.6 13.8 24.45 M13.8 28.0 Q13.9 26.35 12.75 26.2 L2.7 25.4 Q1.75 25.45 1.6 27.2 1.45 28.9 3.2 28.8 L12.55 29.55 Q13.75 29.65 13.8 28.0 M-12.1 20.35 L-27.45 21.4 -27.1 23.55 Q-19.2 23.55 -11.95 23.85 -10.1 23.2 -10.15 21.75 -10.3 20.3 -12.1 20.35 M-6.15 22.1 Q-7.0 27.7 -14.7 28.0 L-8.15 34.8 -16.3 35.15 -21.2 27.6 -23.85 27.95 -23.65 35.1 -28.65 35.85 -32.0 11.8 -23.25 11.15 -14.45 10.75 Q-4.4 10.45 -6.15 22.1 M-36.65 24.45 L-34.9 26.45 Q-33.3 28.7 -33.6 30.85 -34.4 36.05 -39.85 36.9 L-55.5 38.55 -58.6 15.25 -42.3 13.25 Q-35.55 12.0 -34.8 17.3 -34.4 19.5 -35.5 22.2 L-36.65 24.45 M-39.65 28.1 L-52.2 29.45 -50.9 32.4 -40.05 30.55 Q-38.75 30.75 -38.6 29.35 -38.4 28.1 -39.65 28.1 M-43.35 22.0 L-53.5 23.5 -53.05 25.95 -43.4 24.9 Q-41.35 24.45 -41.5 23.25 -41.65 22.0 -42.5 22.0 L-43.35 22.0" fill="#e86288" fill-rule="evenodd" stroke="none"/>
  </g>
</svg>
