<?xml version="1.0" encoding="UTF-8" standalone="no"?>
<svg xmlns:ffdec="https://www.free-decompiler.com/flash" xmlns:xlink="http://www.w3.org/1999/xlink" ffdec:objectType="shape" height="10.15px" width="109.05px" xmlns="http://www.w3.org/2000/svg">
  <g transform="matrix(1.0, 0.0, 0.0, 1.0, -7.0, -4.45)">
    <path d="M98.1 14.6 Q96.05 14.6 95.1 13.85 L94.5 14.15 92.3 14.6 90.05 14.15 89.3 14.4 84.95 14.4 84.15 14.15 81.7 14.6 Q79.45 14.6 78.5 13.6 77.85 13.0 77.85 12.1 L77.85 7.4 Q77.85 6.55 78.5 5.9 79.45 5.0 81.7 5.0 83.15 5.0 84.1 5.45 84.5 5.15 84.95 5.15 L86.9 5.15 Q87.5 5.15 87.85 5.5 88.25 5.85 88.25 6.3 L88.25 11.15 88.4 11.15 88.4 6.3 Q88.4 5.85 88.8 5.5 89.15 5.15 89.75 5.15 L91.7 5.15 92.25 5.3 92.85 5.15 94.8 5.15 95.6 5.4 98.1 5.0 Q100.35 5.0 101.3 5.95 101.9 6.55 101.9 7.45 L101.9 8.45 101.6 9.5 101.9 10.5 101.9 11.8 Q101.9 12.75 101.3 13.45 100.35 14.6 98.1 14.6 M75.2 5.35 Q76.85 6.05 76.85 7.45 L76.85 8.7 76.55 9.8 76.85 10.8 76.85 13.25 Q76.85 13.7 76.45 14.05 76.1 14.4 75.55 14.4 L73.55 14.4 73.0 14.3 72.45 14.4 70.5 14.4 70.15 14.35 69.8 14.4 65.45 14.4 64.65 14.15 64.2 13.55 63.7 14.15 62.9 14.4 60.9 14.4 Q60.2 14.4 59.8 13.9 59.4 14.4 58.7 14.4 L56.75 14.4 56.15 14.3 55.6 14.4 53.65 14.4 53.45 14.35 53.2 14.4 48.85 14.4 Q48.3 14.4 47.9 14.05 47.55 13.75 47.55 13.25 L47.55 11.75 46.6 11.95 46.6 13.25 Q46.6 13.75 46.2 14.05 45.8 14.4 45.25 14.4 L43.3 14.4 Q42.75 14.4 42.35 14.05 41.95 13.75 41.95 13.25 L41.95 7.45 Q41.95 6.95 42.25 6.45 42.65 5.75 43.6 5.35 44.6 5.0 45.85 5.0 47.1 5.0 48.0 5.35 L48.05 5.4 Q48.4 5.15 48.85 5.15 L50.85 5.15 Q51.4 5.15 51.8 5.5 52.15 5.85 52.15 6.3 L52.15 11.15 52.3 11.15 52.3 7.45 Q52.3 6.9 52.6 6.45 53.0 5.75 53.95 5.35 L56.2 5.0 58.3 5.3 58.95 5.15 60.9 5.15 Q61.6 5.15 62.0 5.65 62.4 5.15 63.05 5.15 L64.9 5.15 65.2 5.2 65.45 5.2 69.8 5.2 70.65 5.45 70.8 5.35 73.0 5.0 75.2 5.35 M69.15 11.15 L69.15 11.05 68.75 11.05 68.75 11.15 69.15 11.15 M40.65 6.45 L40.95 7.45 40.95 12.1 40.65 13.1 Q40.25 13.8 39.3 14.15 L37.1 14.6 34.85 14.15 34.7 14.1 33.85 14.4 31.85 14.4 31.3 14.3 30.75 14.4 28.8 14.4 Q28.25 14.4 27.85 14.05 27.45 13.7 27.45 13.25 L27.45 11.75 26.55 11.95 26.55 13.25 Q26.55 13.75 26.15 14.05 L25.2 14.4 23.25 14.4 22.3 14.05 Q21.9 13.75 21.9 13.25 L21.9 7.45 Q21.9 6.05 23.55 5.35 L25.75 5.0 27.95 5.35 28.55 5.65 29.1 5.35 Q30.05 5.0 31.3 5.0 L33.5 5.35 34.2 5.75 Q34.55 5.5 34.85 5.35 L37.1 5.0 39.3 5.35 Q40.25 5.75 40.65 6.45" fill="url(#gradient0)" fill-rule="evenodd" stroke="none"/>
    <path d="M27.35 5.8 Q28.25 6.2 28.25 6.9 L28.25 8.75 28.0 9.35 Q27.35 10.3 25.6 10.3 L25.2 10.3 25.2 12.7 23.25 12.7 23.25 6.9 Q23.25 6.2 24.15 5.8 L25.75 5.55 27.35 5.8 M26.4 7.25 Q26.4 6.4 25.75 6.4 25.2 6.4 25.2 6.8 L25.2 9.45 25.25 9.45 Q26.4 9.45 26.4 8.85 L26.4 7.25 M32.95 5.8 Q33.85 6.2 33.85 6.9 L33.85 8.15 Q33.85 9.15 32.3 9.2 33.85 9.35 33.85 10.25 L33.85 12.7 31.85 12.7 31.85 10.25 Q31.85 9.65 30.9 9.65 L30.75 9.65 30.75 12.7 28.8 12.7 28.8 6.9 Q28.8 6.2 29.7 5.8 L31.3 5.55 32.95 5.8 M31.95 7.25 Q31.95 6.4 31.35 6.4 30.75 6.4 30.75 6.8 L30.75 8.85 Q31.95 8.85 31.95 8.15 L31.95 7.25 M38.7 5.8 Q39.6 6.2 39.6 6.9 L39.6 11.5 Q39.6 12.2 38.7 12.6 L37.1 12.9 35.45 12.6 Q34.55 12.2 34.55 11.5 L34.55 6.9 Q34.55 6.2 35.45 5.8 L37.1 5.55 38.7 5.8 M37.65 6.8 Q37.65 6.4 37.1 6.4 36.5 6.4 36.5 6.8 L36.5 11.55 Q36.5 12.0 37.1 12.0 37.65 12.0 37.65 11.55 L37.65 6.8 M47.45 5.8 Q48.35 6.2 48.35 6.9 L48.35 8.75 48.1 9.35 Q47.4 10.3 45.65 10.3 L45.25 10.3 45.25 12.7 43.3 12.7 43.3 6.9 Q43.3 6.2 44.2 5.8 L45.85 5.55 47.45 5.8 M46.45 7.25 Q46.45 6.4 45.85 6.4 45.25 6.4 45.25 6.8 L45.25 9.45 45.3 9.45 Q46.45 9.45 46.45 8.85 L46.45 7.25 M48.85 5.75 L50.85 5.75 50.85 11.75 53.2 11.75 53.2 12.7 48.85 12.7 48.85 5.75 M57.8 5.8 Q58.7 6.2 58.7 6.9 L58.7 12.7 56.75 12.7 56.75 9.95 55.6 9.95 55.6 12.7 53.65 12.7 53.65 6.9 Q53.65 6.2 54.55 5.8 L56.2 5.55 57.8 5.8 M56.75 6.85 Q56.75 6.45 56.15 6.45 55.6 6.45 55.6 6.85 L55.6 9.05 56.75 9.05 56.75 6.85 M63.05 5.75 L64.9 5.75 62.9 10.1 62.9 12.7 60.9 12.7 60.9 10.1 58.95 5.75 60.9 5.75 62.0 8.75 63.05 5.75 M69.8 5.75 L69.8 6.7 67.45 6.7 67.45 8.45 69.75 8.45 69.75 9.35 67.45 9.35 67.45 11.75 69.8 11.75 69.8 12.7 65.45 12.7 65.45 5.75 69.8 5.75 M74.65 5.8 Q75.55 6.2 75.55 6.9 L75.55 8.15 Q75.55 9.15 74.05 9.2 75.55 9.35 75.55 10.25 L75.55 12.7 73.55 12.7 73.55 10.25 Q73.55 9.65 72.6 9.65 L72.45 9.65 72.45 12.7 70.5 12.7 70.5 6.9 Q70.5 6.2 71.4 5.8 L73.0 5.55 74.65 5.8 M73.65 7.25 Q73.65 6.4 73.05 6.4 72.45 6.4 72.45 6.8 L72.45 8.85 Q73.65 8.85 73.65 8.15 L73.65 7.25 M81.7 5.55 Q84.25 5.55 84.25 7.25 L84.25 8.3 82.3 8.3 82.3 6.8 Q82.3 6.35 81.7 6.35 81.15 6.35 81.15 6.8 L81.15 11.55 Q81.15 12.0 81.7 12.0 82.3 12.0 82.3 11.55 L82.3 10.0 84.25 10.0 84.25 11.5 Q84.25 12.9 81.7 12.9 79.2 12.9 79.2 11.5 L79.2 6.85 Q79.2 5.55 81.7 5.55 M86.9 11.75 L89.3 11.75 89.3 12.7 84.95 12.7 84.95 5.75 86.9 5.75 86.9 11.75 M92.85 5.75 L94.8 5.75 94.8 11.5 Q94.8 12.2 93.9 12.6 L92.3 12.9 90.65 12.6 Q89.75 12.2 89.75 11.5 L89.75 5.75 91.7 5.75 91.7 11.55 Q91.7 12.0 92.3 12.0 92.85 12.0 92.85 11.55 L92.85 5.75 M97.65 9.4 L97.5 9.4 97.5 11.6 Q97.5 12.05 98.05 12.05 98.6 12.05 98.6 11.6 L98.6 10.0 98.3 9.5 97.65 9.4 M98.1 5.55 Q100.55 5.55 100.55 6.9 L100.55 7.9 Q100.55 8.9 99.05 9.0 100.55 9.1 100.55 9.95 L100.55 11.25 Q100.55 12.9 98.1 12.9 95.5 12.9 95.5 11.55 L95.5 6.9 Q95.5 5.55 98.1 5.55 M98.7 7.25 Q98.7 6.4 98.05 6.4 97.5 6.4 97.5 6.8 L97.5 8.6 97.55 8.6 Q98.7 8.6 98.7 8.0 L98.7 7.25" fill="#ffffa0" fill-rule="evenodd" stroke="none"/>
    <path d="M14.1 7.05 L16.25 7.4 Q16.95 7.45 17.15 8.15 L17.2 8.75 16.85 9.3 15.3 10.85 15.65 13.0 15.6 13.6 15.2 14.1 14.55 14.3 14.05 14.15 12.1 13.15 10.15 14.15 9.65 14.3 9.0 14.1 8.6 13.6 8.55 13.0 8.9 10.85 7.35 9.3 7.0 8.75 Q6.95 8.45 7.05 8.15 7.25 7.45 7.95 7.4 L10.1 7.05 11.1 5.1 11.5 4.65 Q11.75 4.45 12.1 4.45 12.8 4.45 13.1 5.1 L14.1 7.05" fill="url(#gradient1)" fill-rule="evenodd" stroke="none"/>
    <path d="M14.1 9.8 L14.1 9.9 10.1 10.0 10.1 9.8 8.6 8.35 11.45 8.0 14.35 7.65 16.1 7.9 14.1 9.8" fill="#ffffff" fill-rule="evenodd" stroke="none"/>
    <path d="M14.1 9.9 L14.55 12.55 12.1 11.3 9.65 12.55 10.1 10.0 14.1 9.9" fill="#fef498" fill-rule="evenodd" stroke="none"/>
    <path d="M13.35 7.5 L14.35 7.65 11.45 8.0 8.6 8.35 8.15 7.9 10.85 7.5 12.1 5.0 13.35 7.5" fill="#fef498" fill-rule="evenodd" stroke="none"/>
    <path d="M110.35 4.6 L110.95 4.45 Q111.65 4.45 111.95 5.05 L112.9 7.0 115.1 7.35 Q115.4 7.4 115.65 7.6 L116.0 8.1 Q116.2 8.8 115.7 9.25 L114.15 10.8 114.5 12.95 Q114.65 13.65 114.05 14.05 L113.4 14.25 112.85 14.15 110.95 13.1 109.0 14.15 108.5 14.25 107.8 14.05 107.45 13.55 107.35 12.95 107.75 10.8 106.15 9.25 105.85 8.75 Q105.8 8.4 105.9 8.1 106.0 7.8 106.25 7.6 106.5 7.4 106.8 7.35 L108.95 7.0 109.95 5.05 110.35 4.6" fill="url(#gradient2)" fill-rule="evenodd" stroke="none"/>
    <path d="M113.15 9.6 L112.95 9.8 113.4 12.55 110.95 11.3 108.5 12.55 108.95 9.8 108.9 9.8 113.15 9.6" fill="#ffffa0" fill-rule="evenodd" stroke="none"/>
    <path d="M112.15 7.5 L114.95 7.9 113.15 9.6 108.9 9.8 106.95 7.9 109.7 7.5 109.9 7.15 111.9 6.95 112.15 7.5" fill="#ffffff" fill-rule="evenodd" stroke="none"/>
    <path d="M109.9 7.15 L110.95 5.0 111.9 6.95 109.9 7.15" fill="#ffffa0" fill-rule="evenodd" stroke="none"/>
    <path d="M28.25 7.6 L28.25 8.75 28.0 9.35 Q27.35 10.3 25.6 10.3 L25.2 10.3 25.2 11.6 23.25 11.45 23.25 8.25 25.2 8.05 25.2 9.45 25.25 9.45 Q26.4 9.45 26.4 8.85 L26.4 7.85 28.25 7.6 M31.95 7.15 L33.85 7.05 33.85 8.15 Q33.85 9.15 32.3 9.2 33.85 9.35 33.85 10.25 L33.85 11.75 31.85 11.8 31.85 10.25 Q31.85 9.65 30.9 9.65 L30.75 9.65 30.75 11.8 28.8 11.8 28.8 7.55 30.75 7.3 30.75 8.85 Q31.95 8.85 31.95 8.15 L31.95 7.15 M46.45 8.85 L46.45 8.1 48.35 8.35 48.35 8.75 48.1 9.35 Q47.4 10.3 45.65 10.3 L45.25 10.3 45.25 11.15 43.3 11.3 43.3 7.7 45.25 7.95 45.25 9.45 45.3 9.45 Q46.45 9.45 46.45 8.85 M36.5 11.55 L36.5 11.7 34.55 11.75 34.55 11.5 34.55 7.05 34.7 7.05 36.5 7.1 36.5 11.55 M37.65 7.15 L39.6 7.3 39.6 11.55 37.65 11.65 37.65 11.55 37.65 7.15 M48.85 10.95 L48.85 8.4 49.4 8.45 50.85 8.6 50.85 10.85 48.85 10.95 M53.65 10.8 L53.65 8.75 55.6 8.8 55.6 9.05 56.75 9.05 56.75 8.8 58.7 8.75 58.7 10.95 56.75 10.85 56.75 9.95 55.6 9.95 55.6 10.85 53.65 10.8 M62.0 8.75 L62.05 8.65 63.6 8.55 62.9 10.1 62.9 11.2 60.9 11.05 60.9 10.1 60.3 8.75 61.95 8.65 62.0 8.75 M65.45 11.35 L65.45 8.45 67.45 8.3 67.45 8.45 69.75 8.45 69.75 9.35 67.45 9.35 67.45 11.5 65.45 11.35 M79.2 7.9 L81.15 7.85 81.15 11.55 81.25 11.85 79.25 11.85 79.2 11.5 79.2 7.9 M82.3 10.0 L84.25 10.0 84.25 11.5 84.2 11.75 82.2 11.8 82.3 11.55 82.3 10.0 M84.25 8.3 L82.3 8.3 82.3 7.8 84.25 7.7 84.25 8.3 M75.55 10.25 L75.55 11.85 73.55 11.8 73.55 10.25 Q73.55 9.65 72.6 9.65 L72.45 9.65 72.45 11.75 70.5 11.65 70.5 8.15 72.45 8.05 72.45 8.85 Q73.65 8.85 73.65 8.15 L73.65 8.0 75.55 7.9 75.55 8.15 Q75.55 9.15 74.05 9.2 75.55 9.35 75.55 10.25 M91.7 11.05 L89.75 11.35 89.75 7.4 91.7 7.25 91.7 11.05 M86.9 7.55 L86.9 11.6 84.95 11.75 84.95 7.7 86.9 7.55 M92.85 7.2 L94.8 7.05 94.8 10.7 92.85 10.9 92.85 7.2 M98.6 6.8 L100.55 6.65 100.55 7.9 Q100.55 8.9 99.05 9.0 100.55 9.1 100.55 9.95 L100.55 10.45 98.6 10.45 98.6 10.0 98.3 9.5 97.65 9.4 97.5 9.4 97.5 10.45 95.5 10.6 95.5 7.0 97.5 6.85 97.5 8.6 97.55 8.6 Q98.7 8.6 98.7 8.0 L98.7 7.25 98.6 6.8" fill="#ffffff" fill-rule="evenodd" stroke="none"/>
  </g>
  <defs>
    <linearGradient gradientTransform="matrix(0.0, 0.0056, 0.0056, 0.0, 61.9, 10.4)" gradientUnits="userSpaceOnUse" id="gradient0" spreadMethod="pad" x1="-819.2" x2="819.2">
      <stop offset="0.3058823529411765" stop-color="#dcb16a"/>
      <stop offset="0.7137254901960784" stop-color="#6d3e47"/>
      <stop offset="1.0" stop-color="#000000"/>
    </linearGradient>
    <linearGradient gradientTransform="matrix(0.0, 0.0056, 0.0056, 0.0, 12.1, 10.45)" gradientUnits="userSpaceOnUse" id="gradient1" spreadMethod="pad" x1="-819.2" x2="819.2">
      <stop offset="0.3058823529411765" stop-color="#dcb16a"/>
      <stop offset="0.7137254901960784" stop-color="#6d3e47"/>
      <stop offset="1.0" stop-color="#000000"/>
    </linearGradient>
    <linearGradient gradientTransform="matrix(0.0, 0.0056, 0.0056, 0.0, 110.95, 10.4)" gradientUnits="userSpaceOnUse" id="gradient2" spreadMethod="pad" x1="-819.2" x2="819.2">
      <stop offset="0.3058823529411765" stop-color="#dcb16a"/>
      <stop offset="0.7137254901960784" stop-color="#6d3e47"/>
      <stop offset="1.0" stop-color="#000000"/>
    </linearGradient>
  </defs>
</svg>
