<?xml version="1.0" encoding="UTF-8" standalone="no"?>
<svg xmlns:ffdec="https://www.free-decompiler.com/flash" xmlns:xlink="http://www.w3.org/1999/xlink" ffdec:objectType="shape" height="22.85px" width="123.75px" xmlns="http://www.w3.org/2000/svg">
  <g transform="matrix(1.0, 0.0, 0.0, 1.0, 61.85, -40.5)">
    <path d="M58.6 43.85 Q61.9 47.2 61.9 51.9 61.9 56.65 58.6 60.0 55.2 63.35 50.5 63.35 L-50.45 63.35 Q-55.15 63.35 -58.5 60.0 -61.85 56.65 -61.85 51.9 -61.85 47.2 -58.5 43.85 -55.15 40.5 -50.45 40.5 L50.5 40.5 Q55.2 40.5 58.6 43.85" fill="url(#gradient0)" fill-rule="evenodd" stroke="none"/>
    <path d="M50.5 41.4 Q54.2 41.4 56.85 44.05 59.45 46.7 59.45 50.4 59.45 54.1 56.85 56.75 54.2 59.35 50.5 59.35 L-50.45 59.35 Q-54.15 59.35 -56.8 56.75 -59.4 54.1 -59.4 50.4 -59.4 46.7 -56.8 44.05 -54.15 41.4 -50.45 41.4 L50.5 41.4" fill="#ffffa2" fill-rule="evenodd" stroke="none"/>
    <path d="M-55.9 53.9 Q-56.95 52.3 -56.95 50.4 -56.95 47.7 -55.05 45.8 -53.15 43.85 -50.45 43.85 L-39.75 43.85 Q-46.95 49.7 -53.2 56.3 -54.9 55.5 -55.9 53.9" fill="#e5c125" fill-rule="evenodd" stroke="none"/>
    <path d="M-50.45 56.9 Q-51.9 56.9 -53.2 56.3 -46.95 49.7 -39.75 43.85 L-6.7 43.85 -24.2 56.9 -50.45 56.9" fill="#dba511" fill-rule="evenodd" stroke="none"/>
    <path d="M-6.7 43.85 L1.7 43.85 -6.3 50.4 -14.3 56.9 -24.2 56.9 -6.7 43.85" fill="#ffdc4c" fill-rule="evenodd" stroke="none"/>
    <path d="M30.75 43.85 L15.25 56.9 -14.3 56.9 -6.3 50.4 1.7 43.85 30.75 43.85" fill="#ffffa2" fill-rule="evenodd" stroke="none"/>
    <path d="M54.6 45.3 Q55.75 46.25 56.35 47.55 57.0 48.9 57.0 50.4 57.0 53.1 55.1 55.0 53.2 56.9 50.5 56.9 L40.8 56.9 54.6 45.3" fill="#dba511" fill-rule="evenodd" stroke="none"/>
    <path d="M50.5 43.85 Q52.8 43.85 54.6 45.3 L40.8 56.9 34.65 56.9 48.05 43.85 50.5 43.85" fill="#e5c125" fill-rule="evenodd" stroke="none"/>
    <path d="M34.65 56.9 L15.25 56.9 30.75 43.85 48.05 43.85 34.65 56.9" fill="#ffdc4c" fill-rule="evenodd" stroke="none"/>
  </g>
  <defs>
    <linearGradient gradientTransform="matrix(0.0, 0.0139, 0.0139, 0.0, 0.05, 51.75)" gradientUnits="userSpaceOnUse" id="gradient0" spreadMethod="pad" x1="-819.2" x2="819.2">
      <stop offset="0.41568627450980394" stop-color="#e6bb6e"/>
      <stop offset="0.807843137254902" stop-color="#6e3b46"/>
      <stop offset="1.0" stop-color="#000000"/>
    </linearGradient>
  </defs>
</svg>
