<?xml version="1.0" encoding="UTF-8" standalone="no"?>
<svg xmlns:ffdec="https://www.free-decompiler.com/flash" xmlns:xlink="http://www.w3.org/1999/xlink" ffdec:objectType="shape" height="16.05px" width="109.05px" xmlns="http://www.w3.org/2000/svg">
  <g transform="matrix(1.0, 0.0, 0.0, 1.0, 54.85, -42.35)">
    <path d="M-47.75 47.55 L-45.6 47.9 Q-44.9 47.95 -44.7 48.65 L-44.65 49.25 -45.0 49.8 -46.55 51.35 -46.2 53.5 -46.25 54.1 -46.65 54.6 -47.3 54.8 -47.8 54.65 -49.75 53.65 -51.7 54.65 -52.2 54.8 -52.85 54.6 -53.25 54.1 -53.3 53.5 -52.95 51.35 -54.5 49.8 -54.85 49.25 -54.8 48.65 Q-54.6 47.95 -53.9 47.9 L-51.75 47.55 -50.75 45.6 -50.35 45.15 -49.75 44.95 Q-49.05 44.95 -48.75 45.6 L-47.75 47.55" fill="url(#gradient0)" fill-rule="evenodd" stroke="none"/>
    <path d="M-47.75 50.3 L-47.75 50.4 -51.75 50.5 -51.75 50.3 -53.25 48.85 -50.4 48.5 -47.5 48.15 -45.75 48.4 -47.75 50.3" fill="#ffffff" fill-rule="evenodd" stroke="none"/>
    <path d="M-47.75 50.4 L-47.3 53.05 -49.75 51.8 -52.2 53.05 -51.75 50.5 -47.75 50.4" fill="#fef498" fill-rule="evenodd" stroke="none"/>
    <path d="M-48.5 48.0 L-47.5 48.15 -50.4 48.5 -53.25 48.85 -53.7 48.4 -51.0 48.0 -49.75 45.5 -48.5 48.0" fill="#fef498" fill-rule="evenodd" stroke="none"/>
    <path d="M48.5 45.1 L49.1 44.95 Q49.8 44.95 50.1 45.55 L51.05 47.5 53.25 47.85 Q53.55 47.9 53.8 48.1 L54.15 48.6 Q54.35 49.3 53.85 49.75 L52.3 51.3 52.65 53.45 Q52.8 54.15 52.2 54.55 L51.55 54.75 51.0 54.65 49.1 53.6 47.15 54.65 46.65 54.75 Q46.25 54.75 45.95 54.55 L45.6 54.05 45.5 53.45 45.9 51.3 44.3 49.75 44.0 49.25 Q43.95 48.9 44.05 48.6 44.15 48.3 44.4 48.1 44.65 47.9 44.95 47.85 L47.1 47.5 48.1 45.55 48.5 45.1" fill="url(#gradient1)" fill-rule="evenodd" stroke="none"/>
    <path d="M51.3 50.1 L51.1 50.3 51.55 53.05 49.1 51.8 46.65 53.05 47.1 50.3 47.05 50.3 51.3 50.1" fill="#ffffa0" fill-rule="evenodd" stroke="none"/>
    <path d="M50.3 48.0 L53.1 48.4 51.3 50.1 47.05 50.3 45.1 48.4 47.85 48.0 48.05 47.65 50.05 47.45 50.3 48.0" fill="#ffffff" fill-rule="evenodd" stroke="none"/>
    <path d="M48.05 47.65 L49.1 45.5 50.05 47.45 48.05 47.65" fill="#ffffa0" fill-rule="evenodd" stroke="none"/>
    <path d="M26.6 48.95 L26.6 49.15 28.75 49.15 29.5 49.35 29.85 49.0 29.4 48.25 Q28.8 48.8 27.95 48.85 L26.6 48.95 M5.7 52.45 L5.1 52.9 5.95 54.05 5.95 52.6 5.9 52.6 5.7 52.45 M-17.75 52.8 L-17.65 52.75 -17.6 52.75 -17.45 52.7 -17.45 52.35 -18.15 51.95 -18.95 53.8 -18.8 53.8 Q-18.5 53.15 -17.75 52.8 M-29.75 51.6 L-30.05 51.85 Q-29.55 53.1 -30.65 54.25 L-31.1 54.65 -30.85 55.0 Q-30.35 53.95 -29.15 53.8 L-29.05 53.8 -29.1 53.75 -29.75 51.6 M42.25 48.6 L41.8 50.25 Q42.9 51.95 43.05 53.65 43.1 55.55 42.05 56.55 41.15 57.4 39.8 57.45 L39.15 57.4 Q38.6 58.3 37.55 58.35 L37.3 58.35 Q36.5 58.3 35.95 57.75 L35.3 57.85 32.1 57.85 Q30.85 57.75 30.25 57.0 L30.05 57.2 29.9 57.3 29.8 57.4 28.75 57.65 Q27.7 57.65 26.95 56.75 L26.7 56.45 26.65 56.4 26.65 56.35 26.55 56.2 Q26.05 58.2 23.85 58.2 L22.2 57.95 Q21.3 57.6 20.85 57.0 L20.6 57.2 Q20.0 57.7 19.2 57.7 L18.3 57.5 Q17.7 58.3 16.65 58.3 L15.25 57.85 14.7 57.5 13.65 56.95 13.45 56.85 13.3 56.75 13.25 56.7 13.2 56.7 11.05 58.0 9.8 58.35 9.0 58.2 8.2 58.4 8.0 58.4 Q7.0 58.35 6.45 57.6 5.8 58.2 5.0 58.2 4.3 58.2 3.6 57.7 L2.9 57.15 2.65 57.4 Q1.8 58.4 -0.1 58.4 L-1.25 58.35 Q-2.2 58.15 -2.75 57.5 L-3.85 57.85 -4.55 57.95 Q-5.45 57.95 -6.05 57.35 -6.7 58.0 -7.9 58.0 L-8.6 58.0 Q-10.1 58.0 -10.8 57.3 L-11.25 56.6 -13.05 57.85 -14.55 58.3 Q-15.85 58.3 -16.4 57.1 L-16.5 56.9 -16.85 56.9 -17.25 56.85 Q-17.75 57.95 -18.9 58.05 L-29.15 58.05 Q-30.05 58.0 -30.65 57.2 -31.25 58.4 -32.55 58.4 L-33.25 58.3 Q-37.0 57.3 -38.9 57.0 L-40.35 56.15 Q-40.85 55.55 -40.8 54.65 L-40.75 54.5 -40.75 54.35 -40.6 54.0 -40.8 53.8 Q-41.35 53.05 -41.15 52.1 -41.95 52.05 -42.45 51.45 -42.95 50.9 -43.05 50.05 L-43.05 49.85 Q-43.0 48.9 -42.35 48.35 L-42.55 47.55 -42.55 47.3 Q-42.45 46.45 -41.95 45.9 -41.45 45.35 -40.65 45.25 L-38.95 45.25 Q-38.3 44.2 -37.1 44.2 L-36.7 44.25 -36.4 44.35 Q-35.6 44.65 -35.25 45.25 L-31.3 45.25 Q-30.25 45.4 -29.8 46.2 L-29.7 46.2 -29.6 46.15 -28.7 45.95 Q-27.9 45.95 -27.35 46.45 L-27.35 46.3 Q-27.25 44.8 -25.45 44.5 L-25.3 44.45 -25.1 44.45 Q-24.55 44.5 -24.1 44.75 -23.55 44.4 -22.85 44.4 L-22.8 44.4 -22.75 44.45 Q-21.95 44.5 -21.35 45.0 -20.8 45.5 -20.75 46.3 L-20.7 46.35 -20.7 46.45 Q-20.15 45.85 -19.25 45.85 L-18.65 45.9 -18.6 45.95 Q-18.05 45.1 -16.95 45.0 L-13.45 45.0 -12.65 44.8 -7.35 44.8 Q-6.3 44.9 -5.75 45.75 -5.0 45.2 -4.0 45.2 L-1.9 45.2 Q-1.45 44.6 -0.45 44.3 L-0.3 44.3 0.1 44.25 Q1.3 44.25 1.95 45.2 L4.15 45.2 Q5.65 45.2 6.4 46.3 L6.5 45.85 Q6.9 44.15 8.65 44.15 L9.3 44.2 Q9.8 44.35 10.15 44.65 L10.8 44.6 15.8 44.6 Q17.6 44.6 18.1 46.3 18.65 44.8 20.55 44.8 L24.35 44.75 27.55 44.55 27.75 44.55 Q29.35 44.55 29.95 45.85 30.4 45.4 31.15 45.3 L31.65 45.3 32.65 44.45 32.75 44.4 32.8 44.35 33.7 44.2 Q34.95 44.2 35.5 45.3 L35.85 45.3 Q36.45 44.7 37.35 44.7 L40.2 44.7 Q41.4 44.7 42.1 45.5 42.8 46.4 42.55 47.55 L42.25 48.6" fill="#a76100" fill-rule="evenodd" stroke="none"/>
    <path d="M-30.05 50.05 Q-29.55 51.3 -30.65 52.45 L-31.1 52.85 -30.85 53.2 Q-30.35 52.15 -29.15 52.0 L-29.05 52.0 -29.1 51.95 -29.75 49.8 -30.05 50.05 M-18.95 52.0 L-18.8 52.0 Q-18.5 51.35 -17.75 51.0 L-17.65 50.95 -17.6 50.95 -17.45 50.9 -17.45 50.55 -18.15 50.15 -18.95 52.0 M5.7 50.65 L5.1 51.1 5.95 52.25 5.95 50.8 5.9 50.8 5.7 50.65 M26.6 47.15 L26.6 47.35 28.75 47.35 29.5 47.55 29.85 47.2 29.4 46.45 Q28.8 47.0 27.95 47.05 L26.6 47.15 M-0.45 42.5 L-0.3 42.5 0.1 42.45 Q1.3 42.45 1.95 43.4 L4.15 43.4 Q5.65 43.4 6.4 44.5 L6.5 44.05 Q6.9 42.35 8.65 42.35 L9.3 42.4 Q9.8 42.55 10.15 42.85 L10.8 42.8 15.8 42.8 Q17.6 42.8 18.1 44.5 18.65 43.0 20.55 43.0 L24.35 42.95 27.55 42.75 27.75 42.75 Q29.35 42.75 29.95 44.05 30.4 43.6 31.15 43.5 L31.65 43.5 32.65 42.65 32.75 42.6 32.8 42.55 33.7 42.4 Q34.95 42.4 35.5 43.5 L35.85 43.5 Q36.45 42.9 37.35 42.9 L40.2 42.9 Q41.4 42.9 42.1 43.7 42.8 44.6 42.55 45.75 L42.25 46.8 41.8 48.45 Q42.9 50.15 43.05 51.85 43.1 53.75 42.05 54.75 41.15 55.6 39.8 55.65 L39.15 55.6 Q38.6 56.5 37.55 56.55 L37.3 56.55 Q36.5 56.5 35.95 55.95 L35.3 56.05 32.1 56.05 Q30.85 55.95 30.25 55.2 L30.05 55.4 29.9 55.5 29.8 55.6 28.75 55.85 Q27.7 55.85 26.95 54.95 L26.7 54.65 26.65 54.6 26.65 54.55 26.55 54.4 Q26.05 56.4 23.85 56.4 L22.2 56.15 Q21.3 55.8 20.85 55.2 L20.6 55.4 Q20.0 55.9 19.2 55.9 L18.3 55.7 Q17.7 56.5 16.65 56.5 L15.25 56.05 14.7 55.7 13.65 55.15 13.45 55.05 13.3 54.95 13.25 54.9 13.2 54.9 11.05 56.2 9.8 56.55 9.0 56.4 8.2 56.6 8.0 56.6 Q7.0 56.55 6.45 55.8 5.8 56.4 5.0 56.4 4.3 56.4 3.6 55.9 L2.9 55.35 2.65 55.6 Q1.8 56.6 -0.1 56.6 L-1.25 56.55 Q-2.2 56.35 -2.75 55.7 L-3.85 56.05 -4.55 56.15 Q-5.45 56.15 -6.05 55.55 -6.7 56.2 -7.9 56.2 L-8.6 56.2 Q-10.1 56.2 -10.8 55.5 L-11.25 54.8 -13.05 56.05 -14.55 56.5 Q-15.85 56.5 -16.4 55.3 L-16.5 55.1 -16.85 55.1 -17.25 55.05 Q-17.75 56.15 -18.9 56.25 L-29.15 56.25 Q-30.05 56.2 -30.65 55.4 -31.25 56.6 -32.55 56.6 L-33.25 56.5 Q-37.0 55.5 -38.9 55.2 L-40.35 54.35 Q-40.85 53.75 -40.8 52.85 L-40.75 52.7 -40.75 52.55 -40.6 52.2 -40.8 52.0 Q-41.35 51.25 -41.15 50.3 -41.95 50.25 -42.45 49.65 -42.95 49.1 -43.05 48.25 L-43.05 48.05 Q-43.0 47.1 -42.35 46.55 L-42.55 45.75 -42.55 45.5 Q-42.45 44.65 -41.95 44.1 -41.45 43.55 -40.65 43.45 L-38.95 43.45 Q-38.3 42.4 -37.1 42.4 L-36.7 42.45 -36.4 42.55 Q-35.6 42.85 -35.25 43.45 L-31.3 43.45 Q-30.25 43.6 -29.8 44.4 L-29.7 44.4 -29.6 44.35 -28.7 44.15 Q-27.9 44.15 -27.35 44.65 L-27.35 44.5 Q-27.25 43.0 -25.45 42.7 L-25.3 42.65 -25.1 42.65 Q-24.55 42.7 -24.1 42.95 -23.55 42.6 -22.85 42.6 L-22.8 42.6 -22.75 42.65 Q-21.95 42.7 -21.35 43.2 -20.8 43.7 -20.75 44.5 L-20.7 44.55 -20.7 44.65 Q-20.15 44.05 -19.25 44.05 L-18.65 44.1 -18.6 44.15 Q-18.05 43.3 -16.95 43.2 L-13.45 43.2 -12.65 43.0 -7.35 43.0 Q-6.3 43.1 -5.75 43.95 -5.0 43.4 -4.0 43.4 L-1.9 43.4 Q-1.45 42.8 -0.45 42.5" fill="url(#gradient2)" fill-rule="evenodd" stroke="none"/>
    <path d="M3.7 46.3 L-3.65 46.3 -3.8 46.4 -3.8 47.5 Q-3.8 48.15 -4.45 48.25 -5.05 48.2 -5.15 47.5 L-5.15 46.2 Q-5.2 44.85 -3.85 44.9 L-0.7 44.9 -0.75 44.8 Q-0.9 44.15 -0.1 44.0 0.6 43.85 0.85 44.5 L1.0 44.9 4.15 44.9 Q5.3 44.9 5.3 45.9 5.3 47.2 5.0 47.7 4.8 48.15 4.25 48.05 3.7 47.9 3.8 47.35 L3.95 46.55 3.7 46.3 M-0.8 49.15 L-1.15 49.3 Q-3.05 50.15 -4.1 50.45 -4.75 50.6 -4.9 50.05 -5.05 49.55 -4.5 49.3 -3.05 48.9 -1.4 48.1 L-2.85 48.1 Q-3.45 48.05 -3.45 47.45 -3.45 46.8 -2.85 46.8 L2.75 46.8 Q3.25 46.8 3.35 47.45 3.3 48.05 2.75 48.1 L1.05 48.1 0.4 48.5 1.15 49.65 3.9 48.55 Q4.5 48.25 4.8 48.9 4.95 49.5 4.35 49.8 L3.25 50.3 Q3.85 52.7 5.4 53.75 5.9 54.05 5.5 54.65 L4.5 54.7 Q2.75 53.45 2.0 50.75 L1.65 50.85 2.0 53.35 Q2.1 55.45 -1.0 55.05 -1.7 54.9 -1.7 54.25 -1.55 53.65 -0.9 53.7 0.95 53.95 0.7 52.85 L0.6 52.1 Q-1.7 53.9 -4.25 54.6 -4.9 54.8 -5.15 54.25 -5.2 53.65 -4.65 53.45 -1.8 52.6 0.3 50.8 L0.0 50.25 Q-1.75 51.75 -4.3 52.6 -4.85 52.75 -5.0 52.3 -5.2 51.7 -4.75 51.45 -2.55 50.65 -0.65 49.3 L-0.8 49.15 M-7.45 45.8 L-12.5 45.8 Q-13.1 45.8 -13.1 45.15 -13.1 44.6 -12.5 44.5 L-7.5 44.5 Q-6.9 44.55 -6.85 45.15 -6.85 45.8 -7.45 45.8 M-14.6 46.0 L-14.6 47.85 -13.85 47.85 Q-13.6 47.85 -13.6 48.0 -13.6 47.5 -13.1 47.55 L-7.2 47.55 Q-6.65 47.55 -6.55 48.2 -6.6 48.85 -7.2 48.9 L-8.7 48.9 -8.7 53.15 Q-8.8 53.55 -8.5 53.45 L-8.2 53.45 Q-7.9 53.55 -7.9 53.2 L-7.8 51.5 Q-7.8 50.75 -7.15 50.8 -6.55 50.8 -6.55 51.55 L-6.65 53.3 Q-6.7 54.1 -7.0 54.45 L-7.9 54.7 -8.6 54.7 -9.75 54.45 -10.0 53.3 -10.0 48.9 -10.95 48.9 Q-10.8 51.45 -11.4 52.6 -11.9 53.7 -13.75 54.7 L-15.05 54.65 Q-15.45 53.95 -14.7 53.7 -13.05 52.8 -12.7 52.0 -12.25 51.2 -12.25 48.9 L-13.05 48.9 -13.4 48.85 Q-13.45 49.15 -13.8 49.2 L-14.6 49.2 -14.6 51.2 -13.95 50.85 Q-13.45 50.65 -13.15 51.15 -12.75 51.75 -13.9 52.35 -14.9 53.0 -16.2 53.5 -17.2 53.8 -17.4 53.3 -17.7 52.65 -17.1 52.35 L-16.75 52.25 -15.95 51.85 -15.95 49.2 -16.75 49.2 Q-17.35 49.15 -17.35 48.55 -17.35 47.95 -16.75 47.85 L-15.95 47.85 -15.95 46.0 -16.8 46.0 Q-17.4 45.95 -17.45 45.35 -17.35 44.7 -16.8 44.7 L-13.75 44.7 Q-13.35 44.7 -13.25 45.35 -13.3 45.95 -13.75 46.0 L-14.6 46.0 M-18.5 46.35 Q-19.3 49.5 -20.4 51.55 -20.75 52.15 -21.35 52.0 -21.95 51.7 -21.65 50.9 -20.7 48.95 -19.8 46.0 -19.65 45.45 -19.0 45.55 -18.35 45.85 -18.5 46.35 M-22.2 44.65 L-22.2 53.5 -19.0 53.5 Q-18.55 53.55 -18.5 54.1 -18.6 54.75 -19.0 54.75 L-29.0 54.75 Q-29.5 54.75 -29.5 54.1 -29.5 53.6 -29.0 53.5 L-25.85 53.5 -25.85 44.7 Q-25.85 44.3 -25.2 44.15 -24.6 44.2 -24.55 44.65 L-24.55 53.5 -23.55 53.5 -23.55 44.6 Q-23.55 44.1 -22.85 44.1 -22.25 44.15 -22.2 44.65 M-29.0 45.7 Q-28.45 45.45 -28.1 46.05 -27.0 48.45 -26.35 51.05 -26.2 51.75 -26.8 52.05 -27.4 52.2 -27.65 51.5 -28.45 48.7 -29.3 46.65 -29.5 46.05 -29.0 45.7 M-31.45 46.3 L-36.9 46.3 -37.3 47.5 -31.05 47.5 Q-30.55 47.6 -30.5 48.15 -30.6 48.8 -31.05 48.8 L-37.65 48.8 -37.95 49.8 -37.85 50.05 -32.25 50.05 Q-31.65 50.05 -31.5 50.5 -31.3 50.95 -31.75 51.4 L-34.1 53.35 -32.55 53.75 Q-31.8 53.95 -31.9 54.6 -32.1 55.2 -32.9 55.05 -36.8 54.0 -38.65 53.75 -39.35 53.6 -39.25 52.95 -39.2 52.4 -38.45 52.4 L-35.9 52.9 -34.1 51.6 -34.0 51.45 -34.15 51.4 -38.8 51.4 Q-39.9 51.4 -39.6 50.4 L-39.1 48.8 -41.0 48.8 Q-41.5 48.8 -41.5 48.15 -41.5 47.6 -41.0 47.5 L-38.7 47.5 -38.35 46.3 -40.5 46.3 Q-40.95 46.3 -41.05 45.6 -41.0 45.0 -40.5 44.95 L-37.95 44.95 -37.75 44.4 Q-37.4 43.8 -36.95 43.95 -36.3 44.15 -36.45 44.75 L-36.5 44.95 -31.45 44.95 Q-30.95 45.05 -30.95 45.6 -30.95 46.3 -31.45 46.3 M38.0 45.95 L38.0 54.4 Q38.0 55.0 37.4 55.05 36.8 55.0 36.75 54.4 L36.75 49.4 36.4 49.6 31.1 49.6 Q30.55 49.55 30.5 48.95 30.6 48.3 31.1 48.3 L32.2 48.3 31.55 47.15 Q31.35 46.6 31.9 46.3 L31.3 46.3 Q30.85 46.3 30.75 45.65 30.8 45.1 31.3 45.0 L33.0 45.0 32.9 44.75 Q32.75 44.25 33.35 44.0 33.95 43.7 34.2 44.2 L34.5 45.0 36.05 45.0 Q36.6 45.1 36.6 45.65 36.6 46.3 36.05 46.3 L32.45 46.3 33.25 47.65 Q33.4 48.05 33.15 48.3 L34.2 48.3 34.3 47.9 34.7 46.8 Q34.85 46.3 35.5 46.4 36.05 46.65 35.9 47.15 L35.75 47.75 35.5 48.35 36.35 48.35 36.7 48.5 36.7 45.3 Q36.7 44.3 37.4 44.4 L40.25 44.4 Q41.35 44.4 41.05 45.55 L40.3 48.1 40.2 48.7 40.45 49.15 Q41.5 50.75 41.55 51.95 41.55 54.1 39.75 54.15 L38.6 53.95 Q38.15 53.75 38.3 53.2 38.55 52.65 39.1 52.8 40.35 53.1 40.2 51.8 40.1 50.8 38.9 49.45 38.5 49.05 38.75 48.2 L39.5 45.75 38.2 45.75 38.0 45.95 M28.6 44.8 Q28.6 45.5 27.8 45.55 L21.15 45.75 Q20.7 45.75 20.75 46.1 L20.65 48.6 20.85 48.85 23.75 48.85 23.75 47.05 Q23.75 46.55 24.45 46.45 25.05 46.5 25.1 47.05 L25.1 48.85 28.65 48.85 Q29.25 48.95 29.25 49.45 29.25 50.1 28.7 50.1 L25.1 50.1 25.1 53.95 Q24.9 55.35 22.65 54.7 21.85 54.5 21.95 53.8 22.25 53.2 23.0 53.5 23.75 53.75 23.75 53.3 L23.75 50.1 20.45 50.1 19.45 49.9 Q19.25 49.7 19.25 49.0 L19.45 45.25 Q19.55 44.5 20.55 44.5 L24.45 44.45 27.65 44.25 Q28.45 44.25 28.6 44.8 M26.5 50.65 Q27.1 50.3 27.6 50.85 L29.25 53.3 Q29.6 53.9 29.1 54.25 28.55 54.55 28.15 54.0 L27.9 53.75 26.5 51.75 Q26.05 51.1 26.5 50.65 M32.45 53.05 L32.65 53.25 34.8 53.25 35.0 53.05 35.0 51.6 34.8 51.45 32.65 51.45 32.45 51.6 32.45 53.05 M32.1 50.1 L35.4 50.1 Q36.3 50.1 36.3 51.1 L36.3 53.8 Q36.3 54.55 35.3 54.55 L32.1 54.55 Q31.2 54.5 31.2 53.75 L31.2 51.1 Q31.15 50.1 32.1 50.1 M16.75 45.4 L16.75 51.2 17.0 51.2 Q17.55 51.3 17.6 51.85 17.5 52.5 17.0 52.5 L14.95 52.5 Q16.3 53.2 17.0 53.75 17.65 54.15 17.2 54.7 L16.1 54.8 15.5 54.45 Q14.55 53.8 14.2 53.75 13.85 53.45 14.0 52.9 L14.3 52.5 12.0 52.5 12.4 52.8 Q12.7 53.3 12.3 53.75 L10.35 54.9 Q9.6 55.3 9.3 54.75 8.95 54.1 9.6 53.75 L9.9 53.6 11.65 52.5 9.5 52.5 Q9.0 52.5 8.9 51.85 8.95 51.3 9.5 51.2 L9.85 51.2 9.85 45.4 Q9.85 44.3 10.9 44.3 L15.8 44.3 Q16.75 44.3 16.75 45.4 M21.6 50.6 Q22.15 50.95 21.85 51.55 20.65 53.5 19.7 54.2 19.15 54.65 18.7 54.2 18.25 53.75 18.65 53.3 19.85 52.25 20.65 50.85 21.05 50.3 21.6 50.6 M15.4 46.25 L15.4 45.85 15.2 45.65 11.4 45.65 11.2 45.85 11.2 46.25 15.4 46.25 M8.75 46.8 L8.75 54.5 Q8.75 55.0 8.1 55.1 7.55 55.05 7.45 54.55 L7.45 49.45 6.7 49.5 Q6.15 49.2 6.45 48.55 L6.5 48.3 8.0 44.4 Q8.1 43.65 8.95 43.9 9.55 44.05 9.4 44.8 L8.75 46.8 M15.4 47.35 L11.2 47.35 11.2 47.9 15.4 47.9 15.4 47.35 M15.4 49.05 L11.2 49.05 11.2 49.6 15.4 49.6 15.4 49.05 M11.2 51.2 L15.4 51.2 15.4 50.75 11.2 50.75 11.2 51.2" fill="#ffffa0" fill-rule="evenodd" stroke="none"/>
    <path d="M-23.55 50.7 L-23.55 48.1 -22.2 48.15 -22.2 50.65 -23.55 50.7 M-27.25 47.95 L-26.35 50.85 -27.8 50.9 -28.8 47.85 -27.25 47.95 M-30.6 47.75 L-30.5 48.05 Q-30.6 48.7 -31.05 48.7 L-37.6 48.7 -37.95 49.7 -37.85 49.95 -32.25 49.95 Q-31.55 49.95 -31.5 50.4 -31.35 50.8 -31.6 51.15 L-38.8 51.3 Q-39.9 51.3 -39.6 50.3 L-39.05 48.7 -41.0 48.7 Q-41.5 48.7 -41.5 48.05 -41.5 47.5 -41.0 47.4 L-38.7 47.4 -38.6 47.1 -37.25 47.2 -37.3 47.4 -30.6 47.75 M-25.85 50.8 L-25.85 48.0 -24.55 48.05 -24.55 50.75 -25.85 50.8 M-19.05 48.25 L-19.95 50.55 -21.55 50.6 -20.55 48.2 -19.05 48.25 M-8.7 50.25 L-10.0 50.25 -10.0 48.8 -10.95 48.8 -10.95 50.3 -12.3 50.3 -12.25 48.8 -13.05 48.8 -13.4 48.75 Q-13.4 49.0 -13.8 49.1 L-14.6 49.1 -14.6 50.4 -15.9 50.4 -15.9 49.1 -16.7 49.1 Q-17.3 49.05 -17.3 48.45 L-17.3 48.3 -6.6 48.4 Q-6.75 48.8 -7.2 48.8 L-8.7 48.8 -8.7 50.25 M6.55 48.2 L8.8 48.1 8.8 50.05 7.45 50.05 7.45 49.35 6.7 49.4 Q6.2 49.1 6.45 48.45 L6.55 48.2 M4.4 49.7 L3.55 50.1 -2.15 50.15 -0.65 49.2 Q-0.65 49.05 -0.8 49.05 L-3.45 50.15 -4.8 50.15 -4.9 49.95 Q-5.05 49.45 -4.5 49.2 L-2.25 48.4 0.5 48.35 0.4 48.4 0.55 48.55 1.15 49.55 3.9 48.45 Q4.5 48.15 4.8 48.8 5.0 49.4 4.4 49.7 M11.2 48.95 L11.2 49.5 15.4 49.5 15.4 48.95 11.2 48.95 M9.85 50.05 L9.85 48.05 16.75 47.75 16.75 50.1 9.85 50.05 M23.75 48.75 L23.75 47.35 25.1 47.25 25.1 48.75 28.65 48.75 Q29.25 48.85 29.25 49.35 29.25 50.0 28.7 50.0 L25.1 50.0 25.1 50.2 23.75 50.2 23.75 50.0 20.45 50.0 19.45 49.8 Q19.25 49.6 19.3 48.9 L19.35 47.6 20.7 47.5 20.65 48.5 20.9 48.75 23.75 48.75 M31.35 50.35 Q31.55 50.0 32.15 50.0 L35.4 50.0 Q36.0 50.0 36.2 50.45 L31.35 50.35 M36.7 46.3 L38.05 46.2 38.05 50.5 36.75 50.5 36.75 49.3 Q36.7 49.5 36.4 49.5 L31.1 49.5 Q30.55 49.4 30.55 48.85 30.55 48.2 31.1 48.2 L32.2 48.2 31.55 47.05 31.5 46.75 32.85 46.65 33.25 47.55 Q33.4 47.95 33.15 48.2 L34.2 48.2 34.7 46.7 34.85 46.5 35.65 46.4 Q36.05 46.65 35.95 47.05 L35.5 48.25 36.35 48.25 36.7 48.4 36.7 46.3 M40.45 49.05 L41.25 50.6 39.8 50.55 38.95 49.35 Q38.5 48.95 38.8 48.1 L39.4 46.1 40.95 45.95 40.2 48.6 40.45 49.05" fill="#ffffff" fill-rule="evenodd" stroke="none"/>
  </g>
  <defs>
    <linearGradient gradientTransform="matrix(0.0, 0.0056, 0.0056, 0.0, -49.75, 50.95)" gradientUnits="userSpaceOnUse" id="gradient0" spreadMethod="pad" x1="-819.2" x2="819.2">
      <stop offset="0.3058823529411765" stop-color="#dcb16a"/>
      <stop offset="0.7137254901960784" stop-color="#6d3e47"/>
      <stop offset="1.0" stop-color="#000000"/>
    </linearGradient>
    <linearGradient gradientTransform="matrix(0.0, 0.0056, 0.0056, 0.0, 49.1, 50.9)" gradientUnits="userSpaceOnUse" id="gradient1" spreadMethod="pad" x1="-819.2" x2="819.2">
      <stop offset="0.3058823529411765" stop-color="#dcb16a"/>
      <stop offset="0.7137254901960784" stop-color="#6d3e47"/>
      <stop offset="1.0" stop-color="#000000"/>
    </linearGradient>
    <linearGradient gradientTransform="matrix(0.0, 0.0087, -0.0087, 0.0, 0.0, 49.45)" gradientUnits="userSpaceOnUse" id="gradient2" spreadMethod="pad" x1="-819.2" x2="819.2">
      <stop offset="0.3058823529411765" stop-color="#dcb16a"/>
      <stop offset="0.7137254901960784" stop-color="#6d3e47"/>
      <stop offset="1.0" stop-color="#000000"/>
    </linearGradient>
  </defs>
</svg>
