<?xml version="1.0" encoding="UTF-8" standalone="no"?>
<svg xmlns:ffdec="https://www.free-decompiler.com/flash" xmlns:xlink="http://www.w3.org/1999/xlink" ffdec:objectType="shape" height="16.05px" width="109.05px" xmlns="http://www.w3.org/2000/svg">
  <g transform="matrix(1.0, 0.0, 0.0, 1.0, 54.85, -42.05)">
    <path d="M-47.75 47.25 L-45.6 47.6 Q-44.9 47.65 -44.7 48.35 L-44.65 48.95 -45.0 49.5 -46.55 51.05 -46.2 53.2 -46.25 53.8 -46.65 54.3 -47.3 54.5 -47.8 54.35 -49.75 53.35 -51.7 54.35 -52.2 54.5 -52.85 54.3 -53.25 53.8 -53.3 53.2 -52.95 51.05 -54.5 49.5 -54.85 48.95 -54.8 48.35 Q-54.6 47.65 -53.9 47.6 L-51.75 47.25 -50.75 45.3 -50.35 44.85 -49.75 44.65 Q-49.05 44.65 -48.75 45.3 L-47.75 47.25" fill="url(#gradient0)" fill-rule="evenodd" stroke="none"/>
    <path d="M-47.75 50.0 L-47.75 50.1 -51.75 50.2 -51.75 50.0 -53.25 48.55 -50.4 48.2 -47.5 47.85 -45.75 48.1 -47.75 50.0" fill="#ffffff" fill-rule="evenodd" stroke="none"/>
    <path d="M-47.75 50.1 L-47.3 52.75 -49.75 51.5 -52.2 52.75 -51.75 50.2 -47.75 50.1" fill="#fef498" fill-rule="evenodd" stroke="none"/>
    <path d="M-48.5 47.7 L-47.5 47.85 -50.4 48.2 -53.25 48.55 -53.7 48.1 -51.0 47.7 -49.75 45.2 -48.5 47.7" fill="#fef498" fill-rule="evenodd" stroke="none"/>
    <path d="M48.5 44.8 L49.1 44.65 Q49.8 44.65 50.1 45.25 L51.05 47.2 53.25 47.55 Q53.55 47.6 53.8 47.8 L54.15 48.3 Q54.35 49.0 53.85 49.45 L52.3 51.0 52.65 53.15 Q52.8 53.85 52.2 54.25 L51.55 54.45 51.0 54.35 49.1 53.3 47.15 54.35 46.65 54.45 Q46.25 54.45 45.95 54.25 L45.6 53.75 45.5 53.15 45.9 51.0 44.3 49.45 44.0 48.95 Q43.95 48.6 44.05 48.3 44.15 48.0 44.4 47.8 44.65 47.6 44.95 47.55 L47.1 47.2 48.1 45.25 48.5 44.8" fill="url(#gradient1)" fill-rule="evenodd" stroke="none"/>
    <path d="M51.3 49.8 L51.1 50.0 51.55 52.75 49.1 51.5 46.65 52.75 47.1 50.0 47.05 50.0 51.3 49.8" fill="#ffffa0" fill-rule="evenodd" stroke="none"/>
    <path d="M50.3 47.7 L53.1 48.1 51.3 49.8 47.05 50.0 45.1 48.1 47.85 47.7 48.05 47.35 50.05 47.15 50.3 47.7" fill="#ffffff" fill-rule="evenodd" stroke="none"/>
    <path d="M48.05 47.35 L49.1 45.2 50.05 47.15 48.05 47.35" fill="#ffffa0" fill-rule="evenodd" stroke="none"/>
    <path d="M-17.45 52.2 L-17.45 52.05 -17.75 51.9 -17.6 52.25 -17.5 52.2 -17.45 52.2 M4.9 52.6 L5.5 53.15 5.5 52.25 5.3 52.15 4.9 52.6 M23.8 43.7 Q25.05 43.85 25.65 44.8 26.3 43.85 27.3 43.85 L28.15 44.05 Q29.0 44.35 29.35 45.25 L29.55 45.35 Q30.15 44.9 30.85 44.85 L31.4 44.85 Q31.95 43.95 33.1 43.8 L33.4 43.8 Q34.65 43.9 35.2 44.85 L35.55 44.85 Q36.15 44.25 37.25 44.25 L39.75 44.25 Q41.25 44.25 41.85 45.15 42.6 46.0 42.2 47.35 L41.5 49.6 Q42.75 51.45 42.65 53.1 42.75 55.15 41.75 56.2 40.8 57.05 39.6 57.05 L39.3 57.0 38.8 57.0 Q38.25 57.9 37.1 57.95 L36.9 57.95 Q36.05 57.9 35.5 57.35 L35.05 57.4 31.6 57.4 30.3 57.05 Q29.7 57.9 28.55 57.9 L27.95 57.85 27.85 57.8 27.8 57.8 25.7 56.95 Q25.1 58.05 23.8 58.1 L23.6 58.1 Q22.2 58.05 21.65 56.9 L19.4 57.7 18.7 57.8 17.55 57.5 16.4 57.85 Q15.55 57.85 14.6 57.2 L14.25 57.0 14.2 56.95 13.35 56.4 13.3 56.35 13.2 56.3 12.85 56.05 12.7 56.2 12.65 56.2 11.5 57.1 Q10.35 57.95 9.35 57.95 L8.35 57.7 7.8 57.8 7.7 57.85 7.6 57.8 Q6.4 57.75 5.85 56.85 5.2 57.4 4.45 57.4 L3.2 57.0 2.55 56.45 Q1.75 57.55 0.3 57.7 L0.25 57.75 0.15 57.75 -2.3 57.4 -2.4 57.35 -2.45 57.35 -3.2 56.85 -3.85 57.1 -4.8 57.3 Q-5.5 57.3 -6.1 56.8 -6.85 57.5 -7.95 57.5 L-8.65 57.5 Q-10.65 57.5 -11.35 55.9 -12.4 57.05 -13.8 57.6 L-13.95 57.7 -14.1 57.7 -14.5 57.75 Q-15.9 57.75 -16.45 56.4 L-16.9 56.45 -17.5 56.35 -17.55 56.55 Q-18.2 57.85 -19.5 57.85 L-19.9 57.8 -20.0 57.8 -20.05 57.75 -22.25 56.8 Q-22.75 57.9 -24.05 58.0 L-24.3 58.0 Q-25.55 57.95 -26.15 56.85 L-28.05 57.65 -28.85 57.8 Q-30.25 57.8 -30.8 56.5 L-30.85 56.4 -30.9 56.25 -30.95 55.8 -31.35 55.85 -31.65 55.85 Q-32.05 57.95 -34.35 57.95 L-36.85 57.5 -37.0 57.45 -37.85 57.65 Q-38.55 57.65 -39.2 57.15 L-39.25 57.05 -40.1 56.15 -40.25 56.05 -40.3 55.85 -41.45 55.85 Q-43.2 55.7 -43.45 53.95 L-43.5 53.75 -43.5 53.6 Q-43.45 52.8 -42.95 52.25 L-42.95 52.1 Q-42.95 51.05 -42.25 50.5 L-42.25 48.45 -42.3 48.3 Q-43.15 47.75 -43.25 46.6 L-43.25 46.35 Q-43.15 45.5 -42.65 45.0 -42.1 44.45 -41.3 44.35 L-38.0 44.35 Q-37.45 43.7 -36.4 43.7 -35.35 43.7 -34.8 44.35 L-31.5 44.35 Q-30.45 44.4 -29.85 45.35 L-29.25 44.6 -29.05 44.5 -27.9 44.15 Q-27.2 44.15 -26.7 44.5 -26.25 44.05 -25.35 43.95 L-25.15 43.95 -24.2 44.2 -23.4 44.0 -23.15 44.0 Q-22.35 44.05 -21.8 44.55 L-20.75 44.25 -20.0 44.4 -19.8 44.5 Q-18.9 44.95 -18.65 45.85 -18.25 44.6 -17.05 44.5 L-16.95 44.45 -13.5 44.45 Q-13.1 44.2 -12.65 44.2 L-7.35 44.2 Q-6.45 44.3 -5.95 45.15 -5.4 44.75 -4.6 44.75 L-2.25 44.75 Q-1.75 43.85 -0.4 43.7 L-0.25 43.7 Q1.15 43.85 1.75 44.75 L3.65 44.75 Q5.3 44.75 6.05 45.65 6.45 43.85 8.2 43.85 L8.7 43.9 9.7 44.3 10.35 44.25 15.45 44.25 Q17.05 44.25 17.6 45.6 L17.9 45.45 18.3 44.65 Q19.05 43.65 20.1 43.65 L21.15 43.95 21.9 44.6 Q22.4 43.85 23.6 43.7 L23.8 43.7" fill="#a76100" fill-rule="evenodd" stroke="none"/>
    <path d="M4.9 51.0 L5.5 51.55 5.5 50.65 5.3 50.55 4.9 51.0 M-17.5 50.6 L-17.45 50.6 -17.45 50.45 -17.75 50.3 -17.6 50.65 -17.5 50.6 M-36.4 42.1 Q-35.35 42.1 -34.8 42.75 L-31.5 42.75 Q-30.45 42.8 -29.85 43.75 L-29.25 43.0 -29.05 42.9 -27.9 42.55 Q-27.2 42.55 -26.7 42.9 -26.25 42.45 -25.35 42.35 L-25.15 42.35 -24.2 42.6 -23.4 42.4 -23.15 42.4 Q-22.35 42.45 -21.8 42.95 L-20.75 42.65 -20.0 42.8 -19.8 42.9 Q-18.9 43.35 -18.65 44.25 -18.25 43.0 -17.05 42.9 L-16.95 42.85 -13.5 42.85 Q-13.1 42.6 -12.65 42.6 L-7.35 42.6 Q-6.45 42.7 -5.95 43.55 -5.4 43.15 -4.6 43.15 L-2.25 43.15 Q-1.75 42.25 -0.4 42.1 L-0.25 42.1 Q1.15 42.25 1.75 43.15 L3.65 43.15 Q5.3 43.15 6.05 44.05 6.45 42.25 8.2 42.25 L8.7 42.3 9.7 42.7 10.35 42.65 15.45 42.65 Q17.05 42.65 17.6 44.0 L17.9 43.85 18.3 43.05 Q19.05 42.05 20.1 42.05 L21.15 42.35 21.9 43.0 Q22.4 42.25 23.6 42.1 L23.8 42.1 Q25.05 42.25 25.65 43.2 26.3 42.25 27.3 42.25 L28.15 42.45 Q29.0 42.75 29.35 43.65 L29.55 43.75 Q30.15 43.3 30.85 43.25 L31.4 43.25 Q31.95 42.35 33.1 42.2 L33.4 42.2 Q34.65 42.3 35.2 43.25 L35.55 43.25 Q36.15 42.65 37.25 42.65 L39.75 42.65 Q41.25 42.65 41.85 43.55 42.6 44.4 42.2 45.75 L41.5 48.0 Q42.75 49.85 42.65 51.5 42.75 53.55 41.75 54.6 40.8 55.45 39.6 55.45 L39.3 55.4 38.8 55.4 Q38.25 56.3 37.1 56.35 L36.9 56.35 Q36.05 56.3 35.5 55.75 L35.05 55.8 31.6 55.8 30.3 55.45 Q29.7 56.3 28.55 56.3 L27.95 56.25 27.85 56.2 27.8 56.2 25.7 55.35 Q25.1 56.45 23.8 56.5 L23.6 56.5 Q22.2 56.45 21.65 55.3 L19.4 56.1 18.7 56.2 17.55 55.9 16.4 56.25 Q15.55 56.25 14.6 55.6 L14.25 55.4 14.2 55.35 13.35 54.8 13.3 54.75 13.2 54.7 12.85 54.45 12.7 54.6 12.65 54.6 11.5 55.5 Q10.35 56.35 9.35 56.35 L8.35 56.1 7.8 56.2 7.7 56.25 7.6 56.2 Q6.4 56.15 5.85 55.25 5.2 55.8 4.45 55.8 L3.2 55.4 2.55 54.85 Q1.75 55.95 0.3 56.1 L0.25 56.15 0.15 56.15 -2.3 55.8 -2.4 55.75 -2.45 55.75 -3.2 55.25 -3.85 55.5 -4.8 55.7 Q-5.5 55.7 -6.1 55.2 -6.85 55.9 -7.95 55.9 L-8.65 55.9 Q-10.65 55.9 -11.35 54.3 -12.4 55.45 -13.8 56.0 L-13.95 56.1 -14.1 56.1 -14.5 56.15 Q-15.9 56.15 -16.45 54.8 L-16.9 54.85 -17.5 54.75 -17.55 54.95 Q-18.2 56.25 -19.5 56.25 L-19.9 56.2 -20.0 56.2 -20.05 56.15 -22.25 55.2 Q-22.75 56.3 -24.05 56.4 L-24.3 56.4 Q-25.55 56.35 -26.15 55.25 L-28.05 56.05 -28.85 56.2 Q-30.25 56.2 -30.8 54.9 L-30.85 54.8 -30.9 54.65 -30.95 54.2 -31.35 54.25 -31.65 54.25 Q-32.05 56.35 -34.35 56.35 L-36.85 55.9 -37.0 55.85 -37.85 56.05 Q-38.55 56.05 -39.2 55.55 L-39.25 55.45 -40.1 54.55 -40.25 54.45 -40.3 54.25 -41.45 54.25 Q-43.2 54.1 -43.45 52.35 L-43.5 52.15 -43.5 52.0 Q-43.45 51.2 -42.95 50.65 L-42.95 50.5 Q-42.95 49.45 -42.25 48.9 L-42.25 46.85 -42.3 46.7 Q-43.15 46.15 -43.25 45.0 L-43.25 44.75 Q-43.15 43.9 -42.65 43.4 -42.1 42.85 -41.3 42.75 L-38.0 42.75 Q-37.45 42.1 -36.4 42.1" fill="url(#gradient2)" fill-rule="evenodd" stroke="none"/>
    <path d="M-13.3 45.05 Q-13.4 45.75 -13.7 45.75 L-14.6 45.75 -14.6 47.6 -13.7 47.6 -13.55 47.65 Q-13.5 47.15 -13.15 47.15 L-7.3 47.15 Q-6.8 47.15 -6.8 47.85 -6.75 48.55 -7.2 48.65 L-8.75 48.65 -8.75 52.65 Q-8.8 53.05 -8.35 53.05 -7.95 53.05 -7.95 52.45 L-7.95 51.05 Q-7.9 50.45 -7.3 50.4 -6.65 50.5 -6.65 51.05 L-6.65 52.4 Q-6.65 54.5 -8.05 54.4 L-8.7 54.4 Q-10.1 54.4 -10.1 53.05 L-10.1 48.65 -10.95 48.65 Q-11.0 53.25 -14.4 54.65 -14.9 54.75 -15.15 54.1 -15.35 53.55 -14.85 53.25 -12.2 52.05 -12.35 48.65 L-13.0 48.65 -13.35 48.55 Q-13.35 49.0 -13.8 49.0 L-14.6 49.0 -14.6 50.95 -13.8 50.5 Q-13.35 50.35 -13.05 50.85 -12.85 51.35 -13.25 51.7 -13.55 52.05 -14.4 52.4 L-14.7 52.45 -16.45 53.2 -17.35 53.1 Q-17.9 52.35 -17.0 52.0 L-16.0 51.6 -16.0 49.0 -17.0 49.0 Q-17.45 49.0 -17.45 48.3 -17.45 47.7 -17.0 47.6 L-16.0 47.6 -16.0 45.75 -16.9 45.75 Q-17.3 45.75 -17.3 45.05 -17.3 44.45 -16.9 44.35 L-13.7 44.35 Q-13.4 44.4 -13.3 45.05 M-12.55 44.1 L-7.55 44.1 Q-7.15 44.1 -7.1 44.85 -7.15 45.5 -7.6 45.6 L-12.45 45.6 Q-12.95 45.55 -13.05 44.9 -13.05 44.1 -12.55 44.1 M-3.3 46.45 L2.65 46.45 Q3.15 46.45 3.2 47.05 3.2 47.6 2.7 47.65 L0.55 47.65 Q1.9 50.45 5.0 53.2 5.4 53.6 4.95 54.0 4.5 54.55 4.0 54.15 L1.8 51.9 Q1.8 54.45 0.1 54.65 L-1.95 54.35 Q-2.4 54.1 -2.35 53.65 -2.2 53.1 -1.7 53.15 L-0.4 53.3 Q0.15 53.3 0.3 52.9 L0.45 51.45 Q-1.9 53.2 -4.45 54.1 -5.1 54.35 -5.35 53.9 -5.65 53.35 -5.1 53.1 -2.0 51.9 0.2 50.05 L0.0 49.6 Q-2.0 51.3 -4.6 52.15 -5.25 52.3 -5.45 51.75 -5.6 51.25 -5.0 50.95 -2.55 50.15 -0.6 48.6 L-0.8 48.25 -3.95 49.85 Q-5.0 50.3 -5.15 49.85 -5.65 49.2 -4.8 48.8 L-4.65 48.75 Q-3.25 48.2 -2.3 47.65 L-3.3 47.65 Q-3.85 47.55 -3.85 47.05 -3.85 46.45 -3.3 46.45 M-4.05 46.0 L-4.05 47.2 Q-4.1 47.75 -4.7 47.8 -5.4 47.7 -5.4 47.2 L-5.4 45.55 Q-5.45 44.55 -4.55 44.65 L-1.1 44.65 -1.1 44.2 Q-1.1 43.7 -0.35 43.6 0.45 43.7 0.5 44.15 L0.5 44.65 3.5 44.65 Q5.05 44.6 5.15 45.6 L4.8 47.35 Q4.6 47.95 3.9 47.75 3.4 47.6 3.4 47.25 L3.5 46.65 3.6 46.2 3.35 45.85 -3.9 45.85 -4.05 46.0 M-35.8 44.2 L-31.65 44.2 Q-31.2 44.3 -31.1 44.9 -31.15 45.45 -31.65 45.55 L-35.8 45.55 -35.8 45.85 -32.95 45.85 Q-32.15 45.85 -32.05 46.65 L-32.05 49.1 -32.2 49.5 -31.85 49.9 -31.25 50.75 Q-31.0 51.3 -31.3 51.5 -30.9 51.5 -30.8 52.15 -30.8 52.75 -31.4 52.75 L-33.15 52.75 -33.15 53.75 Q-33.15 54.85 -34.4 54.85 L-36.35 54.5 Q-36.85 54.3 -36.75 53.7 -36.5 53.15 -36.0 53.3 L-34.65 53.55 Q-34.5 53.65 -34.5 53.35 L-34.5 52.75 -38.05 52.75 -37.35 53.55 Q-37.05 53.85 -37.45 54.3 -37.8 54.75 -38.25 54.4 L-39.05 53.5 Q-39.35 53.05 -38.9 52.75 L-41.35 52.75 Q-41.9 52.75 -42.05 52.1 -41.95 51.45 -41.4 51.45 L-34.5 51.45 -34.5 51.0 -41.05 51.05 Q-41.5 51.05 -41.5 50.5 -41.5 49.95 -41.1 49.95 L-37.1 49.95 -37.1 49.6 -39.85 49.6 Q-40.8 49.6 -40.8 48.75 L-40.8 46.8 Q-40.85 45.85 -39.9 45.85 L-37.1 45.85 -37.1 45.55 -41.25 45.55 Q-41.75 45.5 -41.8 44.9 -41.7 44.25 -41.25 44.2 L-37.1 44.2 -37.1 44.05 Q-37.1 43.6 -36.45 43.6 -35.85 43.6 -35.8 44.05 L-35.8 44.2 M-37.1 48.15 L-39.5 48.15 -39.5 48.6 -37.1 48.6 -37.1 48.15 M-35.8 49.95 L-33.35 49.95 -33.6 49.6 -35.8 49.6 -35.8 49.95 M-35.8 48.6 L-33.35 48.6 -33.35 48.15 -35.8 48.15 -35.8 48.6 M-35.8 47.3 L-33.35 47.3 -33.35 46.95 -35.8 46.95 -35.8 47.3 M-37.1 46.95 L-39.5 46.95 -39.5 47.3 -37.1 47.3 -37.1 46.95 M-28.35 44.2 L-27.45 44.3 -26.45 45.9 -25.95 45.9 -25.95 44.45 Q-25.85 43.9 -25.3 43.85 -24.65 43.95 -24.65 44.45 L-24.65 45.9 -24.0 45.9 -24.0 44.45 Q-23.95 43.95 -23.3 43.9 -22.7 43.95 -22.65 44.45 L-22.65 45.9 -22.05 45.9 -21.35 44.5 Q-21.05 44.05 -20.5 44.2 -19.9 44.55 -20.15 45.0 L-20.55 45.9 -19.25 45.9 Q-18.75 46.0 -18.75 46.5 -18.75 47.05 -19.25 47.15 L-21.5 47.15 -21.8 47.8 -19.9 47.8 Q-19.4 47.8 -19.4 48.3 -19.4 48.8 -19.9 48.8 L-23.55 48.8 -23.55 49.3 -20.0 49.3 Q-19.55 49.3 -19.55 49.8 -19.55 50.3 -20.0 50.3 L-23.55 50.3 -23.55 50.75 -19.55 50.75 Q-19.1 50.75 -19.0 51.25 -19.1 51.75 -19.55 51.75 L-22.35 51.75 -20.0 53.2 Q-19.55 53.4 -19.15 53.55 -18.7 53.75 -18.95 54.3 -19.2 54.85 -19.65 54.7 -21.3 54.25 -23.55 52.45 L-23.55 54.25 Q-23.65 54.9 -24.2 54.9 -24.9 54.9 -24.9 54.25 L-24.9 52.45 Q-26.85 54.1 -28.55 54.65 -29.25 54.8 -29.45 54.3 -29.6 53.7 -28.95 53.5 L-26.05 51.75 -28.95 51.75 Q-29.4 51.75 -29.4 51.25 -29.4 50.75 -28.95 50.75 L-24.9 50.75 -24.9 50.3 -28.5 50.3 Q-28.8 50.3 -28.9 49.8 -28.8 49.3 -28.5 49.3 L-24.9 49.3 -24.9 48.8 -28.65 48.8 -29.15 48.3 Q-29.05 47.8 -28.65 47.8 L-26.9 47.8 -27.3 47.15 -29.2 47.15 Q-29.65 47.1 -29.65 46.5 -29.65 46.0 -29.2 45.9 L-28.0 45.9 -28.55 45.05 Q-28.75 44.55 -28.35 44.2 M-25.35 47.8 L-23.3 47.8 -23.0 47.15 -25.75 47.15 -25.35 47.8 M-32.4 51.25 L-32.6 51.0 -33.15 51.0 -33.15 51.45 -32.3 51.45 -32.4 51.25 M2.3 49.55 L3.5 48.2 Q3.85 47.75 4.45 48.0 4.9 48.45 4.55 48.95 L3.5 50.25 Q2.95 50.8 2.6 50.5 2.0 50.15 2.3 49.55 M27.5 46.1 L27.95 45.35 Q28.25 44.8 28.85 45.1 29.4 45.4 28.9 46.15 L27.05 48.7 27.85 48.7 27.8 48.3 Q27.7 47.8 28.15 47.75 28.6 47.55 28.85 48.1 L29.15 49.35 29.15 49.1 29.2 49.45 Q29.35 50.0 28.8 50.15 28.2 50.3 28.15 49.8 L26.0 49.9 Q25.45 49.95 25.45 49.5 25.4 48.75 25.75 48.75 L25.8 48.75 26.6 47.45 26.85 47.1 25.85 46.45 Q25.25 46.0 25.6 45.5 25.9 45.15 26.2 45.3 L26.8 44.1 Q27.0 43.65 27.5 43.8 28.1 44.05 27.75 44.55 L27.35 45.45 27.1 45.85 27.5 46.1 M25.4 45.4 L25.4 49.1 Q25.5 49.9 24.7 49.8 L24.3 49.8 24.3 50.45 28.7 50.45 Q29.2 50.55 29.2 51.1 29.2 51.75 28.7 51.75 L25.2 51.75 Q27.05 52.9 28.45 53.25 29.4 53.55 29.2 54.2 29.05 55.0 28.25 54.75 26.1 54.05 24.35 52.9 L24.35 54.5 Q24.3 54.95 23.65 55.0 22.95 54.9 22.95 54.5 L22.95 52.8 Q21.05 54.1 19.0 54.65 18.2 54.8 17.95 54.25 17.8 53.6 18.4 53.35 20.85 52.7 21.95 51.75 L18.4 51.75 Q17.9 51.75 17.9 51.1 17.9 50.55 18.4 50.45 L22.9 50.45 22.9 49.8 22.4 49.8 Q21.8 49.9 21.8 49.1 L21.8 45.4 Q21.8 44.6 22.45 44.6 L22.95 44.6 22.95 44.15 Q22.95 43.7 23.65 43.6 24.3 43.65 24.35 44.15 L24.35 44.6 24.75 44.6 Q25.4 44.7 25.4 45.4 M24.3 45.9 L22.9 45.9 22.9 46.7 24.3 46.7 24.3 45.9 M24.3 47.8 L22.9 47.8 22.9 48.6 24.3 48.6 24.3 47.8 M32.5 44.45 Q32.6 43.8 33.25 43.7 33.95 43.8 34.0 44.4 L34.0 44.75 35.4 44.75 Q36.05 44.75 36.15 45.45 36.15 46.05 35.45 46.15 L35.05 46.15 Q35.65 46.25 35.5 46.85 L35.15 48.0 35.85 48.0 Q36.25 48.0 36.3 48.3 L36.3 45.05 Q36.25 44.05 37.3 44.15 L39.7 44.15 Q41.0 44.15 40.7 45.35 L39.85 47.9 Q39.7 48.15 39.9 48.4 41.15 50.0 41.15 51.5 41.25 54.05 39.4 53.95 L38.1 53.65 Q37.75 53.5 37.85 52.9 37.8 52.3 39.05 52.45 39.75 52.55 39.65 51.4 39.45 50.0 38.45 49.0 38.3 48.85 38.3 48.25 L39.05 45.75 38.9 45.6 37.85 45.6 Q37.6 45.6 37.6 45.8 L37.6 54.25 Q37.6 54.85 36.95 54.85 36.4 54.85 36.3 54.3 L36.3 49.15 35.85 49.4 30.7 49.4 Q30.05 49.3 30.0 48.7 30.1 48.05 30.65 48.0 L31.8 48.0 31.65 47.85 31.25 47.0 Q31.05 46.55 31.45 46.3 32.05 46.05 32.3 46.45 L32.9 47.45 Q33.05 47.9 32.8 48.0 L33.65 48.0 34.2 46.55 Q34.3 46.15 34.6 46.15 L30.9 46.15 Q30.3 46.1 30.3 45.45 30.3 44.75 30.9 44.75 L32.5 44.75 32.5 44.45 M35.15 49.85 Q36.0 49.8 35.9 50.8 L35.9 53.35 Q36.0 54.4 34.9 54.3 L31.55 54.3 Q30.7 54.35 30.7 53.3 L30.7 50.75 Q30.7 49.8 31.55 49.85 L35.15 49.85 M7.4 44.8 L7.45 44.4 Q7.6 43.6 8.35 43.75 9.1 43.85 8.85 44.7 L8.3 46.6 8.3 54.05 Q8.3 54.7 7.65 54.7 7.05 54.7 6.95 54.05 L6.95 49.35 6.1 49.3 Q5.65 49.0 6.25 47.9 L6.95 46.3 7.4 44.8 M10.4 44.15 L15.4 44.15 Q16.3 44.15 16.3 45.05 L16.3 51.0 16.6 51.0 Q17.3 51.1 17.3 51.65 17.3 52.2 16.6 52.3 L14.75 52.3 16.3 53.2 16.45 53.35 Q17.05 53.6 17.05 54.0 L16.75 54.6 Q16.35 55.0 15.35 54.35 L15.25 54.25 14.0 53.45 13.95 53.4 13.55 52.9 Q13.55 52.55 13.9 52.35 L11.55 52.35 Q12.15 52.5 11.95 53.0 L11.65 53.45 11.35 53.7 11.4 53.65 10.55 54.3 Q9.4 55.2 8.9 54.7 8.4 54.05 9.0 53.6 L10.75 52.35 9.05 52.35 Q8.5 52.25 8.5 51.7 8.55 51.1 9.1 51.0 L9.4 51.0 9.4 45.1 Q9.3 44.05 10.4 44.15 M10.7 45.95 L14.95 45.95 14.95 45.55 14.8 45.4 10.85 45.4 Q10.7 45.4 10.7 45.55 L10.7 45.95 M10.75 49.35 L14.95 49.35 14.95 48.75 10.75 48.75 10.75 49.35 M10.7 47.65 L14.95 47.65 14.95 47.1 10.7 47.1 10.7 47.65 M20.4 43.65 Q20.8 43.9 20.55 44.4 L19.9 45.7 19.65 46.1 20.0 46.35 20.6 45.25 Q20.9 44.55 21.4 44.95 21.8 45.25 21.5 45.85 L19.9 48.7 20.7 48.65 20.6 48.2 Q20.5 47.8 20.9 47.7 21.3 47.6 21.45 48.05 L21.65 49.35 Q21.8 49.95 21.35 50.0 L20.9 49.7 18.8 49.9 18.7 49.9 Q17.9 50.0 17.95 49.3 17.95 48.75 18.35 48.75 L18.7 48.7 19.35 47.5 18.1 46.45 Q17.7 46.05 17.95 45.6 18.25 45.15 18.6 45.3 L18.7 45.35 18.75 45.4 19.05 44.9 19.5 43.9 Q19.9 43.35 20.4 43.65 M14.95 50.45 L10.75 50.45 10.75 51.0 14.95 51.0 14.95 50.45 M34.45 52.6 L34.45 51.5 Q34.5 51.15 34.1 51.15 L32.45 51.15 Q32.1 51.15 32.1 51.5 L32.1 52.55 Q32.05 52.95 32.4 52.95 L34.15 52.95 Q34.5 52.95 34.45 52.6" fill="#ffffa0" fill-rule="evenodd" stroke="none"/>
    <path d="M-42.0 52.1 Q-42.0 51.45 -41.4 51.45 L-35.35 51.45 -41.95 52.35 -42.0 52.1 M-35.8 48.15 L-35.8 48.6 -33.35 48.6 -33.35 48.15 -35.8 48.15 M-35.8 49.6 L-35.8 49.95 -33.35 49.95 -33.6 49.6 -35.8 49.6 M-39.5 48.15 L-39.5 48.6 -37.1 48.6 -37.1 48.15 -39.5 48.15 M-25.35 47.8 L-23.3 47.8 -23.0 47.15 -25.75 47.15 -25.35 47.8 M-28.9 49.8 Q-28.8 49.3 -28.45 49.3 L-24.9 49.3 -24.9 48.8 -28.65 48.8 -29.15 48.3 Q-29.05 47.8 -28.65 47.8 L-26.9 47.8 -27.3 47.15 -29.15 47.15 Q-29.65 47.1 -29.65 46.55 L-18.85 46.1 -18.7 46.5 Q-18.75 47.1 -19.25 47.15 L-21.5 47.15 -21.8 47.8 -19.9 47.8 Q-19.4 47.8 -19.4 48.3 -19.4 48.8 -19.9 48.8 L-23.55 48.8 -23.55 49.3 -20.0 49.3 Q-19.6 49.3 -19.5 49.8 L-19.6 50.05 -24.9 50.4 -24.9 50.3 -28.45 50.3 -28.9 49.8 M-32.05 46.7 L-32.05 49.1 -32.15 49.5 -31.25 50.75 -31.15 51.0 -32.5 51.1 -32.6 51.0 -33.15 51.0 -33.15 51.2 -34.45 51.35 -34.45 51.0 -41.05 51.05 Q-41.45 51.05 -41.5 50.5 -41.5 49.95 -41.1 49.95 L-37.1 49.95 -37.1 49.6 -39.85 49.6 Q-40.8 49.6 -40.8 48.75 L-40.8 47.4 -39.5 47.25 -39.5 47.3 -37.1 47.3 -37.1 47.05 -35.8 46.95 -35.8 47.3 -33.35 47.3 -33.35 46.95 -35.7 46.95 -32.05 46.7 M3.5 48.2 Q3.95 47.8 4.45 48.0 4.95 48.45 4.6 48.95 L4.3 49.35 2.5 49.35 3.5 48.2 M3.6 46.2 L3.55 46.05 5.1 46.05 4.8 47.35 Q4.65 47.95 3.9 47.75 3.4 47.6 3.4 47.25 L3.6 46.2 M-4.05 47.2 Q-4.1 47.75 -4.7 47.8 -5.4 47.7 -5.4 47.2 L-5.4 45.95 -4.05 45.95 -4.05 47.2 M-3.85 47.05 Q-3.85 46.45 -3.3 46.45 L2.65 46.45 Q3.2 46.45 3.2 47.05 3.2 47.6 2.7 47.65 L0.55 47.65 1.55 49.35 -1.7 49.4 -0.6 48.6 -0.8 48.25 -3.0 49.4 -5.3 49.45 Q-5.4 49.0 -4.8 48.8 L-4.65 48.75 -2.3 47.65 -3.3 47.65 Q-3.85 47.55 -3.85 47.05 M-8.75 48.65 L-8.75 49.55 -10.1 49.6 -10.1 48.65 -10.95 48.65 -11.0 49.6 -12.35 49.65 -12.35 48.65 -13.0 48.65 -13.35 48.55 Q-13.35 49.0 -13.8 49.0 L-14.6 49.0 -14.6 49.75 -16.0 49.85 -16.0 49.0 -17.0 49.0 Q-17.35 49.0 -17.45 48.3 -17.4 47.7 -17.0 47.6 L-16.0 47.6 -16.0 46.05 -14.6 46.05 -14.6 47.6 -13.7 47.6 -13.55 47.65 Q-13.5 47.15 -13.15 47.15 L-7.3 47.15 Q-6.85 47.15 -6.75 47.85 -6.75 48.6 -7.2 48.65 L-8.75 48.65 M24.3 48.6 L24.3 47.8 22.9 47.8 22.9 48.6 24.3 48.6 M22.0 49.7 Q21.8 49.5 21.85 49.1 L21.85 46.55 22.9 46.6 22.9 46.7 24.3 46.7 24.3 46.65 25.45 46.7 25.45 49.1 Q25.45 49.8 24.8 49.8 L22.0 49.7 M21.15 46.55 L21.1 46.6 19.9 48.7 20.7 48.65 20.6 48.2 Q20.5 47.75 20.95 47.7 21.3 47.65 21.45 48.05 L21.7 49.35 21.7 49.7 17.95 49.55 17.95 49.3 Q17.95 48.75 18.35 48.75 L18.7 48.7 19.35 47.5 18.1 46.45 18.1 46.4 21.15 46.55 M10.7 47.1 L10.7 47.65 15.0 47.65 15.0 47.1 10.7 47.1 M10.75 48.75 L10.75 49.35 14.95 49.35 14.95 48.75 10.75 48.75 M9.4 49.4 L9.4 46.15 16.3 46.35 16.3 49.5 9.4 49.4 M8.35 46.6 L8.35 49.4 6.25 49.35 6.1 49.3 Q5.65 49.0 6.25 47.9 L6.95 46.3 7.05 46.1 8.45 46.15 8.35 46.6 M39.85 47.9 Q39.7 48.15 39.9 48.4 40.9 49.75 41.05 50.75 L39.5 50.65 Q39.2 49.7 38.45 49.0 L38.35 48.25 38.6 47.4 40.0 47.5 39.85 47.9 M30.9 50.1 Q31.1 49.85 31.6 49.85 L35.15 49.85 Q35.75 49.85 35.9 50.4 L30.9 50.1 M30.7 48.0 L31.8 48.0 31.75 47.95 31.65 47.85 31.25 47.0 32.7 47.05 32.9 47.45 Q33.05 47.95 32.8 48.0 L33.7 48.0 34.05 47.15 35.4 47.25 35.15 48.0 35.85 48.0 Q36.3 48.0 36.3 48.3 L36.3 47.3 37.6 47.35 37.6 50.5 36.3 50.4 36.3 49.15 35.85 49.4 30.75 49.4 Q30.05 49.3 30.05 48.7 30.05 48.1 30.7 48.0 M28.85 48.1 L29.15 49.1 29.25 49.45 29.1 50.0 28.2 49.95 28.15 49.8 26.7 49.9 25.6 49.85 25.5 49.5 Q25.35 48.75 25.75 48.75 L25.8 48.75 26.6 47.45 26.85 47.1 26.35 46.75 28.4 46.85 27.1 48.7 27.85 48.7 27.85 48.3 Q27.7 47.85 28.15 47.75 28.7 47.5 28.85 48.1" fill="#ffffff" fill-rule="evenodd" stroke="none"/>
  </g>
  <defs>
    <linearGradient gradientTransform="matrix(0.0, 0.0056, 0.0056, 0.0, -49.75, 50.65)" gradientUnits="userSpaceOnUse" id="gradient0" spreadMethod="pad" x1="-819.2" x2="819.2">
      <stop offset="0.3058823529411765" stop-color="#dcb16a"/>
      <stop offset="0.7137254901960784" stop-color="#6d3e47"/>
      <stop offset="1.0" stop-color="#000000"/>
    </linearGradient>
    <linearGradient gradientTransform="matrix(0.0, 0.0056, 0.0056, 0.0, 49.1, 50.6)" gradientUnits="userSpaceOnUse" id="gradient1" spreadMethod="pad" x1="-819.2" x2="819.2">
      <stop offset="0.3058823529411765" stop-color="#dcb16a"/>
      <stop offset="0.7137254901960784" stop-color="#6d3e47"/>
      <stop offset="1.0" stop-color="#000000"/>
    </linearGradient>
    <linearGradient gradientTransform="matrix(0.0, 0.0083, -0.0088, 0.0, -0.45, 49.25)" gradientUnits="userSpaceOnUse" id="gradient2" spreadMethod="pad" x1="-819.2" x2="819.2">
      <stop offset="0.3058823529411765" stop-color="#dcb16a"/>
      <stop offset="0.7137254901960784" stop-color="#6d3e47"/>
      <stop offset="1.0" stop-color="#000000"/>
    </linearGradient>
  </defs>
</svg>
