<?xml version="1.0" encoding="UTF-8" standalone="no"?>
<svg xmlns:ffdec="https://www.free-decompiler.com/flash" xmlns:xlink="http://www.w3.org/1999/xlink" ffdec:objectType="shape" height="77.9px" width="83.55px" xmlns="http://www.w3.org/2000/svg">
  <g transform="matrix(1.0, 0.0, 0.0, 1.0, 41.75, 39.0)">
    <path d="M10.35 -29.1 Q13.9 -24.75 15.8 -18.95 L19.6 -19.4 Q22.55 -19.15 25.35 -17.5 28.15 -15.8 30.25 -12.95 32.35 -10.15 32.75 -5.5 33.15 -0.65 31.5 4.15 33.45 5.4 36.9 6.75 40.2 8.05 41.8 9.15 41.55 13.15 32.1 25.4 21.8 38.65 15.85 38.9 14.5 37.0 12.7 33.75 L10.4 29.65 Q3.65 31.3 -3.05 28.9 -9.45 26.6 -13.5 21.6 -15.55 19.1 -16.65 15.7 L-19.6 19.35 Q-25.5 18.4 -34.1 3.95 -42.0 -9.3 -41.75 -13.3 -40.0 -14.25 -36.6 -15.1 -33.0 -16.0 -30.95 -17.0 -32.0 -21.95 -31.0 -26.75 -30.05 -31.3 -27.6 -33.85 -25.2 -36.4 -22.25 -37.75 -19.3 -39.1 -16.3 -39.0 -12.25 -38.8 -8.65 -35.3 -2.15 -37.95 3.8 -34.7 7.35 -32.8 10.35 -29.1" fill="#046844" fill-rule="evenodd" stroke="none"/>
  </g>
</svg>
