<?xml version="1.0" encoding="UTF-8" standalone="no"?>
<svg xmlns:ffdec="https://www.free-decompiler.com/flash" xmlns:xlink="http://www.w3.org/1999/xlink" ffdec:objectType="shape" height="72.6px" width="54.15px" xmlns="http://www.w3.org/2000/svg">
  <g transform="matrix(1.0, 0.0, 0.0, 1.0, 27.05, 36.3)">
    <path d="M16.1 -21.85 Q12.35 -27.5 8.15 -30.8 3.75 -34.25 0.0 -34.25 -3.75 -34.25 -8.05 -30.85 -12.3 -27.55 -16.0 -21.95 -19.7 -16.55 -22.15 -9.6 L-23.9 -3.35 -24.7 1.85 -24.9 6.0 -24.85 8.35 Q-24.6 11.3 -23.95 14.1 -22.85 18.6 -20.55 22.2 -18.65 25.2 -16.0 27.35 -9.75 32.45 0.0 32.45 9.7 32.45 15.9 27.4 19.8 24.25 22.2 19.15 23.5 16.35 24.25 12.7 24.9 9.3 24.9 6.45 L24.9 6.0 24.7 1.75 Q24.3 -1.85 23.55 -4.75 22.6 -8.5 21.3 -11.85 19.25 -17.0 16.1 -21.85 M0.0 -36.3 Q9.85 -36.3 18.3 -22.1 25.65 -9.7 26.85 2.85 28.25 16.65 21.15 26.2 13.6 36.3 0.0 36.3 -12.8 36.3 -20.25 27.15 -27.35 18.45 -27.05 5.25 -26.75 -7.6 -18.75 -21.3 -10.0 -36.3 0.0 -36.3" fill="#655756" fill-rule="evenodd" stroke="none"/>
    <path d="M23.55 -4.75 Q24.3 -1.85 24.7 1.75 23.75 1.1 22.6 1.1 21.2 1.1 20.2 2.0 19.2 2.9 19.2 4.15 19.2 5.45 20.2 6.3 21.2 7.2 22.6 7.2 23.9 7.2 24.9 6.45 24.9 9.3 24.25 12.7 -3.35 14.7 -23.95 14.1 -24.6 11.3 -24.85 8.35 -23.45 9.1 -21.75 9.1 -19.65 9.1 -18.15 7.95 -16.65 6.8 -16.65 5.1 -16.65 3.45 -18.15 2.3 -19.65 1.1 -21.75 1.1 -23.3 1.1 -24.7 1.85 L-23.9 -3.35 -0.2 -4.75 Q8.45 -4.95 23.55 -4.75 M3.0 0.0 Q1.35 0.0 0.2 1.3 -1.0 2.55 -1.0 4.35 -1.0 6.2 0.2 7.45 1.35 8.75 3.0 8.75 4.65 8.75 5.85 7.45 7.0 6.2 7.0 4.35 7.0 2.55 5.85 1.3 4.65 0.0 3.0 0.0" fill="#ba89ed" fill-rule="evenodd" stroke="none"/>
    <path d="M-16.0 -21.95 Q-12.3 -27.55 -8.05 -30.85 -3.75 -34.25 0.0 -34.25 3.75 -34.25 8.15 -30.8 12.35 -27.5 16.1 -21.85 9.2 -22.25 -0.05 -22.2 L-16.0 -21.95 M21.3 -11.85 Q22.6 -8.5 23.55 -4.75 8.45 -4.95 -0.2 -4.75 L-23.9 -3.35 -22.15 -9.6 21.3 -11.85 M15.9 27.4 Q9.7 32.45 0.0 32.45 -9.75 32.45 -16.0 27.35 L15.9 27.4" fill="#fcb6d2" fill-rule="evenodd" stroke="none"/>
    <path d="M-16.0 -21.95 L-0.05 -22.2 Q9.2 -22.25 16.1 -21.85 19.25 -17.0 21.3 -11.85 L-22.15 -9.6 Q-19.7 -16.55 -16.0 -21.95 M24.7 1.75 L24.9 6.0 24.9 6.45 Q23.9 7.2 22.6 7.2 21.2 7.2 20.2 6.3 19.2 5.45 19.2 4.15 19.2 2.9 20.2 2.0 21.2 1.1 22.6 1.1 23.75 1.1 24.7 1.75 M22.2 19.15 Q19.8 24.25 15.9 27.4 L-16.0 27.35 Q-18.65 25.2 -20.55 22.2 L0.8 20.6 22.2 19.15 M-24.85 8.35 L-24.9 6.0 -24.7 1.85 Q-23.3 1.1 -21.75 1.1 -19.65 1.1 -18.15 2.3 -16.65 3.45 -16.65 5.1 -16.65 6.8 -18.15 7.95 -19.65 9.1 -21.75 9.1 -23.45 9.1 -24.85 8.35 M12.7 -15.25 Q12.7 -15.9 11.9 -16.35 L10.05 -16.8 Q8.95 -16.8 8.15 -16.35 7.4 -15.9 7.4 -15.25 7.4 -14.6 8.15 -14.2 8.95 -13.75 10.05 -13.75 11.15 -13.75 11.9 -14.2 12.7 -14.6 12.7 -15.25 M3.0 0.0 Q4.65 0.0 5.85 1.3 7.0 2.55 7.0 4.35 7.0 6.2 5.85 7.45 4.65 8.75 3.0 8.75 1.35 8.75 0.2 7.45 -1.0 6.2 -1.0 4.35 -1.0 2.55 0.2 1.3 1.35 0.0 3.0 0.0 M-4.45 -15.05 Q-4.45 -15.95 -5.25 -16.55 -6.1 -17.15 -7.3 -17.15 -8.45 -17.15 -9.3 -16.55 -10.15 -15.95 -10.15 -15.05 -10.15 -14.2 -9.3 -13.6 -8.45 -13.0 -7.3 -13.0 -6.1 -13.0 -5.25 -13.6 -4.45 -14.2 -4.45 -15.05" fill="#f5d75f" fill-rule="evenodd" stroke="none"/>
    <path d="M24.25 12.7 Q23.5 16.35 22.2 19.15 L0.8 20.6 -20.55 22.2 Q-22.85 18.6 -23.95 14.1 -3.35 14.7 24.25 12.7 M12.7 -15.25 Q12.7 -14.6 11.9 -14.2 11.15 -13.75 10.05 -13.75 8.95 -13.75 8.15 -14.2 7.4 -14.6 7.4 -15.25 7.4 -15.9 8.15 -16.35 8.95 -16.8 10.05 -16.8 L11.9 -16.35 Q12.7 -15.9 12.7 -15.25 M-4.45 -15.05 Q-4.45 -14.2 -5.25 -13.6 -6.1 -13.0 -7.3 -13.0 -8.45 -13.0 -9.3 -13.6 -10.15 -14.2 -10.15 -15.05 -10.15 -15.95 -9.3 -16.55 -8.45 -17.15 -7.3 -17.15 -6.1 -17.15 -5.25 -16.55 -4.45 -15.95 -4.45 -15.05" fill="#99bbee" fill-rule="evenodd" stroke="none"/>
  </g>
</svg>
