<?xml version="1.0" encoding="UTF-8" standalone="no"?>
<svg xmlns:ffdec="https://www.free-decompiler.com/flash" xmlns:xlink="http://www.w3.org/1999/xlink" ffdec:objectType="shape" height="75.5px" width="126.35px" xmlns="http://www.w3.org/2000/svg">
  <g transform="matrix(1.0, 0.0, 0.0, 1.0, 65.35, 44.75)">
    <path d="M-37.3 -3.8 L-37.0 -4.0 Q-37.0 -4.15 -37.3 -4.15 L-40.3 -3.15 Q-42.35 -2.35 -43.25 -2.9 L-42.85 -3.45 -42.45 -3.95 -42.25 -4.15 -42.55 -4.1 -43.9 -3.2 -44.15 -2.75 -44.2 -2.4 Q-43.1 -1.2 -40.85 -2.15 -39.6 -2.7 -37.3 -3.8 M-40.55 -11.7 Q-40.7 -12.05 -41.0 -11.9 -41.75 -11.5 -42.1 -10.9 -42.45 -10.2 -42.2 -9.5 L-41.95 -9.25 Q-41.8 -9.25 -41.9 -9.5 -42.05 -9.85 -41.65 -10.35 L-41.3 -10.7 Q-41.35 -10.45 -41.05 -10.35 -40.75 -10.3 -40.7 -10.6 -40.4 -11.3 -40.55 -11.7 M-39.1 -16.2 L-39.9 -16.2 -40.45 -15.65 Q-40.65 -15.25 -40.45 -14.9 L-39.9 -14.35 -39.15 -14.4 Q-38.75 -14.55 -38.55 -14.95 -38.4 -15.35 -38.55 -15.7 L-39.1 -16.2 M-45.55 -10.2 Q-45.75 -9.8 -45.55 -9.25 -45.4 -8.95 -45.15 -9.05 -44.85 -9.15 -44.95 -9.45 L-44.45 -9.4 -43.85 -8.9 -43.65 -8.55 Q-43.5 -8.5 -43.55 -8.75 L-43.85 -9.7 -44.6 -10.4 Q-45.25 -10.65 -45.55 -10.2 M-46.9 -11.45 Q-46.7 -11.8 -46.85 -12.2 L-47.4 -12.7 -48.2 -12.7 -48.75 -12.15 -48.8 -11.4 -48.25 -10.85 -47.45 -10.9 Q-47.05 -11.05 -46.9 -11.45 M-50.1 -14.85 L-49.35 -14.65 -49.1 -14.75 -49.0 -15.05 -49.3 -15.8 -47.6 -16.75 Q-46.6 -16.95 -44.95 -16.2 -43.6 -18.55 -41.15 -19.4 -38.45 -20.3 -36.25 -18.55 -34.3 -17.0 -34.45 -14.9 -34.6 -12.9 -36.45 -11.25 L-36.5 -10.9 Q-34.95 -8.95 -34.35 -6.35 -33.65 -3.45 -34.55 -1.35 -35.4 0.1 -38.1 1.05 L-42.45 1.4 Q-43.2 1.15 -44.0 0.0 L-45.1 -1.85 -46.35 -4.45 Q-46.9 -6.05 -46.45 -7.25 L-46.45 -7.5 -46.65 -7.7 Q-48.85 -8.1 -50.05 -9.75 -51.25 -11.45 -50.65 -13.6 L-50.1 -14.85" fill="#ffffff" fill-rule="evenodd" stroke="none"/>
    <path d="M-27.65 11.5 Q-26.55 9.1 -24.45 7.7 -22.2 6.2 -19.65 6.4 -16.4 6.7 -15.05 9.25 -13.65 11.9 -15.7 14.4 L-17.1 16.4 -18.55 18.1 -20.3 19.1 -25.0 19.55 -25.1 19.5 Q-27.0 18.8 -27.8 16.0 -28.5 13.35 -27.65 11.5" fill="#ffffff" fill-rule="evenodd" stroke="none"/>
    <path d="M-55.65 -10.85 Q-55.7 -12.45 -54.1 -12.85 -54.25 -10.95 -53.8 -9.0 -54.55 -9.05 -55.05 -9.55 -55.6 -10.05 -55.65 -10.85" fill="#ffffff" fill-rule="evenodd" stroke="none"/>
    <path d="M-16.05 19.5 L-16.15 19.9 -15.9 20.35 Q-15.6 20.95 -15.8 21.55 -16.0 22.2 -16.5 22.5 L-16.7 21.9 -16.9 21.3 -17.2 20.75 -17.5 20.25 Q-17.75 20.1 -17.85 20.35 L-17.8 20.85 -17.7 22.2 Q-17.7 23.55 -18.5 22.8 -19.15 22.2 -19.65 21.0 -19.7 20.8 -20.0 20.8 L-20.2 21.0 -19.3 22.45 Q-18.75 23.35 -19.05 23.6 L-20.9 22.65 Q-21.8 21.95 -21.8 20.9 -21.8 20.7 -21.95 20.65 L-22.25 20.65 Q-22.95 21.05 -23.45 21.7 L-24.25 23.1 Q-25.0 24.3 -24.95 23.2 -24.95 22.1 -24.6 21.5 L-23.95 20.5 Q-22.0 19.95 -20.3 19.1 -19.3 18.7 -18.55 18.1 L-16.75 16.7 Q-15.7 16.9 -14.95 18.15 -14.25 19.3 -14.2 20.45 L-14.2 21.4 Q-14.3 21.95 -14.7 22.0 -14.5 22.0 -15.0 20.9 L-15.65 19.6 -16.05 19.5" fill="#ffffff" fill-rule="evenodd" stroke="none"/>
    <path d="M-19.8 -2.9 L-27.85 -3.75 -27.9 -3.7 -28.15 -3.4 Q-28.15 -3.1 -27.85 -3.15 L-27.4 -3.15 Q-27.0 1.5 -25.0 6.6 -28.0 8.4 -28.95 11.6 -29.45 13.35 -29.1 15.5 -28.65 17.85 -27.45 19.3 L-30.9 20.2 Q-32.8 20.35 -34.25 19.3 -34.75 18.95 -34.9 19.15 -35.1 19.35 -34.6 19.65 -32.45 21.25 -30.1 21.1 L-30.0 21.25 Q-29.9 21.45 -30.35 21.85 L-31.45 22.6 -33.15 23.4 -34.55 24.15 -37.0 26.1 Q-37.75 26.9 -37.6 28.85 L-37.75 28.9 -37.75 28.6 -37.9 27.25 -37.4 26.1 -36.4 24.6 -39.0 25.8 Q-40.95 27.05 -40.4 29.1 -40.2 29.9 -40.7 29.35 L-41.15 28.5 -41.15 27.7 -41.0 27.05 -40.1 25.8 -37.35 24.2 -34.25 22.35 Q-33.65 22.05 -33.8 21.8 L-34.6 21.85 -37.65 23.05 -41.55 23.15 Q-43.55 22.7 -44.45 21.05 -45.15 19.7 -44.85 17.9 -44.55 15.9 -43.25 15.25 -42.2 14.75 -40.75 14.9 -39.35 15.05 -38.3 15.7 L-37.75 15.95 Q-37.5 15.95 -37.45 15.6 -36.95 12.8 -40.45 7.8 L-44.05 3.35 -46.65 6.25 -50.15 9.4 Q-54.8 12.75 -58.3 13.15 L-60.0 13.05 Q-60.7 12.8 -61.25 11.95 L-62.6 9.15 Q-63.85 5.45 -64.15 1.45 L-64.3 -2.4 Q-64.25 -4.55 -63.7 -6.2 L-63.1 -7.3 -62.55 -8.4 -62.2 -9.9 -61.7 -11.35 Q-60.95 -13.1 -59.75 -14.5 L-57.05 -17.0 Q-53.8 -19.45 -51.7 -19.55 L-52.65 -19.25 Q-54.65 -18.55 -56.65 -16.9 L-56.75 -16.65 -56.45 -16.75 Q-55.4 -17.55 -52.3 -18.75 L-50.1 -19.1 -49.7 -18.95 Q-52.65 -18.75 -56.05 -15.4 L-56.15 -15.2 Q-56.05 -15.2 -55.85 -15.35 -54.3 -16.6 -52.6 -16.8 -50.55 -17.1 -49.8 -15.35 L-52.5 -15.6 Q-53.85 -15.5 -55.0 -14.6 -55.95 -13.85 -56.8 -12.5 -57.75 -11.05 -57.85 -10.0 L-58.0 -8.6 Q-58.15 -7.9 -58.55 -7.3 L-58.55 -7.1 Q-58.0 -5.4 -57.85 -2.5 L-57.7 3.05 -57.4 6.6 Q-56.15 6.7 -54.1 5.85 L-51.0 4.35 -47.7 2.25 -45.85 0.6 Q-49.95 -2.1 -51.55 -6.15 -52.95 -9.65 -52.35 -13.75 L-52.1 -15.05 -50.75 -14.95 Q-51.4 -13.75 -51.45 -12.4 -51.45 -10.95 -50.85 -9.8 -49.7 -7.85 -47.7 -7.3 -47.15 -7.15 -47.15 -6.95 L-47.25 -6.2 Q-47.25 -5.05 -46.75 -3.9 -45.8 -1.45 -44.85 -0.05 -43.35 2.1 -41.5 2.1 -39.35 2.05 -37.35 1.35 -34.9 0.45 -34.0 -1.1 -33.55 -2.2 -33.55 -3.15 L-33.55 -3.65 Q-33.55 -6.6 -34.85 -9.4 L-35.5 -10.5 Q-35.75 -11.05 -35.3 -11.55 -34.4 -12.55 -34.1 -13.3 -33.5 -15.0 -34.1 -16.65 -34.65 -18.3 -36.2 -19.25 -37.9 -20.3 -39.9 -20.15 -41.9 -20.0 -43.35 -18.6 -45.05 -16.4 -45.2 -16.5 L-47.1 -17.15 -48.45 -17.0 -49.65 -16.35 Q-50.3 -17.2 -51.35 -17.25 L-51.0 -18.1 -48.8 -18.35 -48.35 -18.65 Q-48.05 -19.0 -48.15 -19.1 L-48.9 -19.75 -49.6 -20.25 Q-46.25 -25.3 -40.3 -26.1 -37.55 -26.45 -35.0 -25.6 -32.55 -24.8 -30.6 -22.95 L-31.15 -21.65 Q-31.35 -20.85 -30.9 -20.85 -30.45 -20.8 -30.25 -21.6 -30.05 -22.4 -28.9 -23.0 L-26.8 -23.65 -24.95 -23.35 Q-23.95 -22.9 -23.75 -22.0 -23.4 -20.3 -24.85 -18.65 -26.35 -17.05 -27.95 -17.25 -28.75 -17.3 -28.85 -16.9 -29.0 -16.55 -28.2 -16.45 L-26.65 -16.45 Q-25.8 -13.9 -26.1 -11.0 -26.35 -8.3 -27.5 -5.85 -25.6 -6.15 -19.9 -5.8 -12.95 -5.35 -9.35 -4.05 -8.4 -2.5 -7.15 2.4 -5.75 8.05 -6.65 9.95 L-6.65 10.4 -6.55 10.85 Q-6.3 11.25 -7.5 12.3 -8.65 13.25 -7.9 13.75 L-6.0 15.35 Q-5.3 16.0 -5.8 16.25 -6.3 16.5 -7.05 16.0 L-7.25 15.85 Q-8.9 15.0 -9.35 13.3 L-9.55 12.95 -9.6 13.2 -8.85 15.05 Q-8.25 16.05 -7.45 16.45 L-7.25 16.7 Q-6.25 18.05 -9.2 16.95 -10.3 16.0 -10.7 14.55 L-10.9 14.2 -11.0 14.35 Q-11.1 15.7 -9.95 16.8 L-7.75 18.55 Q-9.1 18.9 -10.4 18.15 -11.75 17.35 -12.15 16.0 L-12.25 15.85 -12.35 16.05 Q-12.6 17.4 -12.25 18.15 -11.8 18.95 -10.5 19.3 -9.65 19.5 -9.4 19.9 -9.1 20.3 -9.9 20.25 L-11.7 20.0 Q-12.85 19.7 -13.25 19.05 L-13.7 17.15 Q-13.85 15.7 -12.95 13.95 -11.8 12.05 -11.35 11.0 L-11.5 10.6 -11.9 10.2 Q-12.55 8.2 -12.5 6.55 L-12.35 2.45 Q-12.45 -0.2 -13.3 -1.45 L-19.8 -2.9" fill="#ffffff" fill-rule="evenodd" stroke="none"/>
    <path d="M-48.8 -11.4 L-48.75 -12.15 -48.2 -12.7 -47.4 -12.7 -46.85 -12.2 Q-46.7 -11.8 -46.9 -11.45 -47.05 -11.05 -47.45 -10.9 L-48.25 -10.85 -48.8 -11.4" fill="#000000" fill-rule="evenodd" stroke="none"/>
    <path d="M-39.9 -16.2 L-39.1 -16.2 -38.55 -15.7 Q-38.4 -15.35 -38.55 -14.95 -38.75 -14.55 -39.15 -14.4 L-39.9 -14.35 -40.45 -14.9 Q-40.65 -15.25 -40.45 -15.65 L-39.9 -16.2" fill="#000000" fill-rule="evenodd" stroke="none"/>
    <path d="M-45.55 -10.2 Q-45.25 -10.65 -44.6 -10.4 L-43.85 -9.7 -43.55 -8.75 Q-43.5 -8.5 -43.65 -8.55 L-43.85 -8.9 -44.45 -9.4 -44.95 -9.45 Q-44.85 -9.15 -45.15 -9.05 -45.4 -8.95 -45.55 -9.25 -45.75 -9.8 -45.55 -10.2" fill="#000000" fill-rule="evenodd" stroke="none"/>
    <path d="M-41.0 -11.9 Q-40.7 -12.05 -40.55 -11.7 -40.4 -11.3 -40.7 -10.6 -40.75 -10.3 -41.05 -10.35 -41.35 -10.45 -41.3 -10.7 L-41.65 -10.35 Q-42.05 -9.85 -41.9 -9.5 -41.8 -9.25 -41.95 -9.25 L-42.2 -9.5 Q-42.45 -10.2 -42.1 -10.9 -41.75 -11.5 -41.0 -11.9" fill="#000000" fill-rule="evenodd" stroke="none"/>
    <path d="M-37.3 -3.8 Q-39.6 -2.7 -40.85 -2.15 -43.1 -1.2 -44.2 -2.4 L-44.15 -2.75 -43.9 -3.2 -42.55 -4.1 -42.25 -4.15 -42.45 -3.95 -42.85 -3.45 -43.25 -2.9 Q-42.35 -2.35 -40.3 -3.15 L-37.3 -4.15 Q-37.0 -4.15 -37.0 -4.0 L-37.3 -3.8" fill="#000000" fill-rule="evenodd" stroke="none"/>
    <path d="M-27.65 11.5 Q-28.5 13.35 -27.8 16.0 -27.0 18.8 -25.1 19.5 L-25.0 19.55 -20.3 19.1 Q-22.0 19.95 -23.95 20.5 L-24.6 21.5 Q-24.95 22.1 -24.95 23.2 -25.0 24.3 -24.25 23.1 L-23.45 21.7 Q-22.95 21.05 -22.25 20.65 L-21.95 20.65 Q-21.8 20.7 -21.8 20.9 -21.8 21.95 -20.9 22.65 L-19.05 23.6 Q-18.75 23.35 -19.3 22.45 L-20.2 21.0 -20.0 20.8 Q-19.7 20.8 -19.65 21.0 -19.15 22.2 -18.5 22.8 -17.7 23.55 -17.7 22.2 L-17.8 20.85 -17.85 20.35 Q-17.75 20.1 -17.5 20.25 L-17.2 20.75 -16.9 21.3 -16.7 21.9 -16.5 22.5 Q-16.0 22.2 -15.8 21.55 -15.6 20.95 -15.9 20.35 L-16.15 19.9 -16.05 19.5 -15.65 19.6 -15.0 20.9 Q-14.5 22.0 -14.7 22.0 -14.3 21.95 -14.2 21.4 L-14.2 20.45 Q-14.25 19.3 -14.95 18.15 -15.7 16.9 -16.75 16.7 L-18.55 18.1 -17.1 16.4 -15.7 14.4 Q-13.65 11.9 -15.05 9.25 -16.4 6.7 -19.65 6.4 -22.2 6.2 -24.45 7.7 -26.55 9.1 -27.65 11.5 M-55.45 -7.75 L-56.9 -9.25 -57.05 -7.65 -56.95 -5.5 -56.55 -0.2 -56.35 5.1 Q-55.5 5.05 -52.0 3.4 L-47.15 0.6 Q-49.35 -0.45 -51.05 -2.65 -52.6 -4.7 -53.4 -7.35 -54.65 -7.3 -55.45 -7.75 M-53.8 -9.0 Q-54.25 -10.95 -54.1 -12.85 -55.7 -12.45 -55.65 -10.85 -55.6 -10.05 -55.05 -9.55 -54.55 -9.05 -53.8 -9.0 M-49.35 -14.65 L-50.1 -14.85 -50.65 -13.6 Q-51.25 -11.45 -50.05 -9.75 -48.85 -8.1 -46.65 -7.7 L-46.45 -7.5 -46.45 -7.25 Q-46.9 -6.05 -46.35 -4.45 L-45.1 -1.85 -44.0 0.0 Q-43.2 1.15 -42.45 1.4 L-38.1 1.05 Q-35.4 0.1 -34.55 -1.35 -33.65 -3.45 -34.35 -6.35 -34.95 -8.95 -36.5 -10.9 L-36.45 -11.25 Q-34.6 -12.9 -34.45 -14.9 -34.3 -17.0 -36.25 -18.55 -38.45 -20.3 -41.15 -19.4 -43.6 -18.55 -44.95 -16.2 -46.6 -16.95 -47.6 -16.75 L-49.3 -15.8 -49.0 -15.05 -49.1 -14.75 -49.35 -14.65 M-7.15 2.4 Q-8.4 -2.5 -9.35 -4.05 -12.95 -5.35 -19.9 -5.8 -25.6 -6.15 -27.5 -5.85 -26.35 -8.3 -26.1 -11.0 -25.8 -13.9 -26.65 -16.45 L-28.2 -16.45 Q-29.0 -16.55 -28.85 -16.9 -28.75 -17.3 -27.95 -17.25 -26.35 -17.05 -24.85 -18.65 -23.4 -20.3 -23.75 -22.0 -23.95 -22.9 -24.95 -23.35 L-26.8 -23.65 -28.9 -23.0 Q-30.05 -22.4 -30.25 -21.6 -30.45 -20.8 -30.9 -20.85 -31.35 -20.85 -31.15 -21.65 L-30.6 -22.95 Q-32.55 -24.8 -35.0 -25.6 -37.55 -26.45 -40.3 -26.1 -46.25 -25.3 -49.6 -20.25 L-48.9 -19.75 -48.15 -19.1 Q-48.05 -19.0 -48.35 -18.65 L-48.8 -18.35 -51.0 -18.1 -51.35 -17.25 Q-50.3 -17.2 -49.65 -16.35 L-48.45 -17.0 -47.1 -17.15 -45.2 -16.5 Q-45.05 -16.4 -43.35 -18.6 -41.9 -20.0 -39.9 -20.15 -37.9 -20.3 -36.2 -19.25 -34.65 -18.3 -34.1 -16.65 -33.5 -15.0 -34.1 -13.3 -34.4 -12.55 -35.3 -11.55 -35.75 -11.05 -35.5 -10.5 L-34.85 -9.4 Q-33.55 -6.6 -33.55 -3.65 L-33.55 -3.15 Q-33.55 -2.2 -34.0 -1.1 -34.9 0.45 -37.35 1.35 -39.35 2.05 -41.5 2.1 -43.35 2.1 -44.85 -0.05 -45.8 -1.45 -46.75 -3.9 -47.25 -5.05 -47.25 -6.2 L-47.15 -6.95 Q-47.15 -7.15 -47.7 -7.3 -49.7 -7.85 -50.85 -9.8 -51.45 -10.95 -51.45 -12.4 -51.4 -13.75 -50.75 -14.95 L-52.1 -15.05 -52.35 -13.75 Q-52.95 -9.65 -51.55 -6.15 -49.95 -2.1 -45.85 0.6 L-47.7 2.25 -51.0 4.35 -54.1 5.85 Q-56.15 6.7 -57.4 6.6 L-57.7 3.05 -57.85 -2.5 Q-58.0 -5.4 -58.55 -7.1 L-58.55 -7.3 Q-58.15 -7.9 -58.0 -8.6 L-57.85 -10.0 Q-57.75 -11.05 -56.8 -12.5 -55.95 -13.85 -55.0 -14.6 -53.85 -15.5 -52.5 -15.6 L-49.8 -15.35 Q-50.55 -17.1 -52.6 -16.8 -54.3 -16.6 -55.85 -15.35 -56.05 -15.2 -56.15 -15.2 L-56.05 -15.4 Q-52.65 -18.75 -49.7 -18.95 L-50.1 -19.1 -52.3 -18.75 Q-55.4 -17.55 -56.45 -16.75 L-56.75 -16.65 -56.65 -16.9 Q-54.65 -18.55 -52.65 -19.25 L-51.7 -19.55 Q-53.8 -19.45 -57.05 -17.0 L-59.75 -14.5 Q-60.95 -13.1 -61.7 -11.35 L-62.2 -9.9 -62.55 -8.4 -63.1 -7.3 -63.7 -6.2 Q-64.25 -4.55 -64.3 -2.4 L-64.15 1.45 Q-63.85 5.45 -62.6 9.15 L-61.25 11.95 Q-60.7 12.8 -60.0 13.05 L-58.3 13.15 Q-54.8 12.75 -50.15 9.4 L-46.65 6.25 -44.05 3.35 -40.45 7.8 Q-36.95 12.8 -37.45 15.6 -37.5 15.95 -37.75 15.95 L-38.3 15.7 Q-39.35 15.05 -40.75 14.9 -42.2 14.75 -43.25 15.25 -44.55 15.9 -44.85 17.9 -45.15 19.7 -44.45 21.05 -43.55 22.7 -41.55 23.15 L-37.65 23.05 -34.6 21.85 -33.8 21.8 Q-33.65 22.05 -34.25 22.35 L-37.35 24.2 -40.1 25.8 -41.0 27.05 -41.15 27.7 -41.15 28.5 -40.7 29.35 Q-40.2 29.9 -40.4 29.1 -40.95 27.05 -39.0 25.8 L-36.4 24.6 -37.4 26.1 -37.9 27.25 -37.75 28.6 -37.75 28.9 -37.6 28.85 Q-37.75 26.9 -37.0 26.1 L-34.55 24.15 -33.15 23.4 -31.45 22.6 -30.35 21.85 Q-29.9 21.45 -30.0 21.25 L-30.1 21.1 Q-32.45 21.25 -34.6 19.65 -35.1 19.35 -34.9 19.15 -34.75 18.95 -34.25 19.3 -32.8 20.35 -30.9 20.2 L-27.45 19.3 Q-28.65 17.85 -29.1 15.5 -29.45 13.35 -28.95 11.6 -28.0 8.4 -25.0 6.6 -27.0 1.5 -27.4 -3.15 L-27.85 -3.15 Q-28.15 -3.1 -28.15 -3.4 L-27.9 -3.7 -27.85 -3.75 -19.8 -2.9 -13.3 -1.45 Q-12.45 -0.2 -12.35 2.45 L-12.5 6.55 Q-12.55 8.2 -11.9 10.2 L-11.5 10.6 -11.35 11.0 Q-11.8 12.05 -12.95 13.95 -13.85 15.7 -13.7 17.15 L-13.25 19.05 Q-12.85 19.7 -11.7 20.0 L-9.9 20.25 Q-9.1 20.3 -9.4 19.9 -9.65 19.5 -10.5 19.3 -11.8 18.95 -12.25 18.15 -12.6 17.4 -12.35 16.05 L-12.25 15.85 -12.15 16.0 Q-11.75 17.35 -10.4 18.15 -9.1 18.9 -7.75 18.55 L-9.95 16.8 Q-11.1 15.7 -11.0 14.35 L-10.9 14.2 -10.7 14.55 Q-10.3 16.0 -9.2 16.95 -6.25 18.05 -7.25 16.7 L-7.45 16.45 Q-8.25 16.05 -8.85 15.05 L-9.6 13.2 -9.55 12.95 -9.35 13.3 Q-8.9 15.0 -7.25 15.85 L-7.05 16.0 Q-6.3 16.5 -5.8 16.25 -5.3 16.0 -6.0 15.35 L-7.9 13.75 Q-8.65 13.25 -7.5 12.3 -6.3 11.25 -6.55 10.85 L-6.65 10.4 -6.65 9.95 Q-5.75 8.05 -7.15 2.4 M-21.75 -2.25 L-23.95 -2.7 -26.2 -3.1 Q-25.8 1.15 -23.9 6.05 -21.65 5.05 -19.15 5.25 -16.4 5.5 -14.75 7.5 -13.05 9.6 -13.8 12.25 L-14.55 14.2 -15.9 15.9 Q-15.45 16.1 -15.25 16.25 L-14.75 16.9 Q-14.45 14.1 -13.45 12.1 L-12.8 10.7 -12.65 10.0 -13.0 9.35 Q-13.5 8.45 -13.5 6.5 L-13.45 2.2 Q-13.55 0.9 -13.85 0.3 -14.25 -0.45 -15.25 -0.75 L-21.75 -2.25 M-22.45 -23.2 Q-21.85 -22.1 -22.1 -20.75 -22.35 -19.6 -23.15 -18.45 -23.8 -17.5 -25.0 -16.9 -23.4 -12.0 -25.5 -7.0 L-24.55 -7.05 Q-20.4 -7.45 -15.6 -6.9 L-11.1 -5.9 -9.6 -5.4 Q-8.6 -5.0 -8.35 -4.6 -7.35 -3.1 -6.6 -0.6 -6.2 0.7 -5.55 3.55 -5.05 5.75 -5.1 7.85 L-5.15 9.25 -5.05 10.55 Q-4.9 11.0 -5.15 11.75 L-5.7 12.75 -6.55 13.25 Q-6.7 13.35 -6.25 13.8 L-5.05 15.2 Q-4.35 16.3 -4.9 16.9 L-5.55 17.4 -5.9 17.85 -5.95 18.1 -6.15 18.25 -6.8 18.25 Q-7.1 18.3 -6.95 18.45 L-6.85 18.75 -7.05 18.95 -8.65 19.5 Q-8.45 19.95 -8.55 20.3 -8.7 21.0 -10.05 21.15 L-11.8 21.05 -12.65 20.95 -13.2 20.65 Q-12.95 21.65 -13.45 22.15 -13.85 22.55 -14.8 22.6 L-15.1 22.4 -16.2 23.05 -16.4 23.05 -16.6 22.95 Q-16.7 22.8 -17.0 23.1 L-17.7 23.6 -18.45 23.6 -18.35 24.1 Q-18.35 24.3 -18.8 24.35 -20.05 24.5 -21.1 23.95 -22.35 23.3 -22.55 22.15 L-23.55 24.0 -24.8 25.2 -25.4 24.95 -25.9 24.5 Q-26.15 23.55 -25.8 22.55 L-24.85 20.7 -26.45 20.2 -27.65 20.75 -28.75 21.0 Q-30.1 22.9 -31.0 23.4 -33.2 24.65 -33.65 25.05 L-36.0 27.25 Q-36.65 28.05 -37.1 29.7 L-37.05 29.75 -37.15 29.8 -37.2 29.8 -38.2 29.75 -38.75 29.05 -38.85 27.75 -38.5 26.5 Q-39.3 27.25 -39.55 28.15 L-39.45 29.5 Q-39.3 30.55 -39.8 30.7 L-40.35 30.75 Q-41.25 30.6 -41.45 29.9 L-41.5 29.4 -42.0 29.8 -42.3 29.8 -42.45 29.55 -42.65 29.15 -42.8 28.2 Q-42.8 27.5 -42.2 26.45 L-40.9 24.85 Q-44.85 24.4 -46.3 21.0 -47.75 17.6 -44.95 15.25 -42.3 13.0 -39.0 14.15 -39.15 10.15 -43.8 4.9 -46.3 9.1 -52.0 12.3 -57.6 15.45 -60.55 14.55 -64.55 8.5 -65.2 1.35 -65.65 -3.4 -64.7 -6.9 L-64.15 -8.05 -63.65 -9.15 -62.4 -13.4 Q-61.3 -15.65 -57.85 -18.1 -54.15 -20.7 -51.35 -20.8 -48.05 -26.15 -41.15 -27.65 L-34.8 -27.35 Q-31.85 -26.4 -29.45 -24.15 -27.75 -25.5 -25.7 -25.3 -23.5 -25.1 -22.45 -23.2" fill="#000000" fill-rule="evenodd" stroke="none"/>
    <path d="M7.0 -0.45 L8.0 -0.5 8.75 -1.0 10.4 4.2 8.8 5.6 7.0 -0.45 M6.45 -4.8 L7.85 -5.0 Q8.55 -4.85 8.95 -4.2 9.35 -3.55 9.2 -2.85 9.0 -2.1 8.4 -1.7 7.75 -1.3 7.0 -1.45 6.25 -1.65 5.85 -2.25 5.45 -2.9 5.65 -3.65 5.8 -4.4 6.45 -4.8 M11.45 -4.2 L12.75 -6.35 13.45 -6.2 12.35 -2.9 10.1 -2.9 10.0 -4.25 11.45 -4.2 M6.75 -8.25 L10.45 -9.4 10.7 -8.85 8.2 -7.55 8.25 -6.85 8.2 -5.9 7.3 -6.1 6.75 -6.1 6.75 -8.25 M20.2 18.25 L17.8 17.35 18.35 16.55 20.9 17.15 20.2 18.25 M17.15 22.0 L20.25 22.7 20.5 24.2 13.85 22.85 17.15 22.0 M17.4 21.45 L17.2 20.8 19.5 21.25 19.7 22.1 17.4 21.45 M17.0 20.1 L17.0 19.35 19.35 20.0 19.35 20.6 17.0 20.1 M19.95 18.6 L19.35 19.45 16.95 18.75 17.4 17.8 19.95 18.6 M23.15 11.7 L22.5 14.35 25.55 15.1 26.2 12.4 23.15 11.7 M26.35 11.6 L26.95 9.1 23.95 8.4 23.9 8.35 23.35 10.9 26.35 11.6 M30.25 13.35 L29.65 16.05 32.3 16.65 32.9 13.95 30.25 13.35 M28.85 15.85 L29.5 13.15 26.95 12.55 26.35 15.25 28.85 15.85 M28.55 5.85 L27.9 8.5 30.45 9.1 31.05 6.45 28.55 5.85 M30.25 9.85 L27.75 9.25 27.15 11.8 29.65 12.4 30.25 9.85 M27.15 8.3 L27.75 5.65 24.7 4.95 24.1 7.6 27.15 8.3 M31.85 6.6 L31.2 9.25 33.85 9.9 34.5 7.2 31.85 6.6 M33.7 10.65 L31.05 10.05 30.45 12.55 33.1 13.2 33.7 10.65 M38.25 21.2 L38.4 22.15 35.85 21.9 35.7 20.6 38.25 21.2 M38.25 24.3 L37.85 25.0 35.55 24.35 35.8 23.8 38.25 24.3 M38.5 22.75 L38.55 23.75 36.05 23.35 35.9 22.35 38.5 22.75 M37.4 25.5 L36.95 26.0 34.6 25.6 35.15 24.9 37.4 25.5 M36.95 26.6 L39.5 28.85 32.95 27.1 33.85 25.9 36.95 26.6 M37.2 10.65 L37.8 8.0 37.75 8.0 35.25 7.4 34.65 10.05 37.2 10.65 M36.4 13.95 L37.0 11.45 34.45 10.85 33.9 13.35 36.4 13.95 M36.25 14.7 L36.2 14.7 33.7 14.15 33.05 16.85 35.6 17.4 36.25 14.7 M50.15 13.55 L49.1 15.45 43.65 9.8 43.75 7.5 Q43.65 6.05 43.35 5.3 44.2 6.05 50.15 13.55 M54.75 9.7 Q54.75 10.1 55.2 10.5 L56.1 11.0 51.75 15.6 50.95 13.6 54.75 9.7 M55.4 9.25 Q54.95 8.6 55.15 7.85 55.35 7.15 55.95 6.75 56.6 6.35 57.35 6.5 L58.5 7.3 Q58.9 7.95 58.7 8.7 58.55 9.45 57.9 9.85 L56.5 10.05 Q55.8 9.9 55.4 9.25 M23.2 -0.55 L42.05 3.85 Q43.15 6.6 42.3 12.8 41.45 19.0 39.8 19.7 L17.85 14.6 Q16.85 12.8 18.75 6.6 20.75 0.15 23.2 -0.55 M52.85 2.95 L53.5 3.1 53.75 5.65 55.1 6.25 54.55 6.95 54.35 7.4 52.3 6.45 52.85 2.95 M38.65 4.35 L36.1 3.75 35.45 6.65 37.95 7.2 38.65 4.35 M49.0 -11.15 L53.55 -10.1 Q54.2 -8.4 53.35 -5.4 52.55 -2.4 51.3 -1.7 L49.55 -2.05 Q50.6 -3.4 51.3 -5.95 52.05 -8.7 51.5 -10.2 51.5 -8.7 50.7 -6.0 49.85 -3.1 49.05 -2.15 L47.0 -2.7 48.05 -6.85 49.0 -11.15 M21.6 -2.35 Q21.75 -5.1 23.0 -11.5 24.7 -19.85 26.55 -22.25 28.3 -23.2 37.3 -21.0 46.15 -18.8 48.15 -17.1 48.3 -14.95 46.65 -7.1 44.95 0.85 43.75 3.15 L21.6 -2.35 M31.9 2.75 L29.4 2.2 28.7 5.05 31.25 5.65 31.9 2.75 M35.35 3.55 L32.7 2.95 32.0 5.85 34.65 6.45 35.35 3.55 M25.55 1.3 L24.9 4.15 27.95 4.9 28.6 2.0 25.55 1.3 M20.95 0.05 Q20.3 0.6 19.6 1.9 18.9 3.1 18.65 4.0 L14.65 5.45 11.3 6.65 11.15 4.5 15.6 2.4 Q20.2 0.25 20.95 0.05 M25.65 -16.9 Q25.1 -16.9 24.0 -11.75 22.95 -6.7 23.1 -5.8 L43.6 -1.05 Q44.4 -1.65 45.6 -6.7 46.8 -11.8 46.15 -12.1 L25.65 -16.9 M16.8 -13.9 Q17.4 -16.95 18.7 -18.2 L23.25 -17.15 22.2 -12.9 21.3 -8.7 19.2 -9.1 Q18.95 -10.3 19.45 -13.25 19.95 -16.05 20.55 -17.4 19.45 -16.3 18.9 -13.5 18.4 -10.9 18.7 -9.2 L17.0 -9.7 Q16.2 -10.85 16.8 -13.9 M38.1 -24.9 Q37.25 -25.1 36.8 -25.85 36.35 -26.55 36.55 -27.4 36.75 -28.25 37.45 -28.7 L39.05 -28.95 Q39.85 -28.75 40.3 -28.05 40.75 -27.3 40.6 -26.45 40.4 -25.65 39.65 -25.2 38.95 -24.75 38.1 -24.9 M57.8 4.7 L58.15 4.1 56.45 1.8 56.95 1.4 59.75 4.1 58.75 6.05 Q58.0 5.55 57.4 5.55 L57.8 4.7" fill="#ffffff" fill-rule="evenodd" stroke="none"/>
    <path d="M10.4 4.2 L8.75 -1.0 8.0 -0.5 7.0 -0.45 8.8 5.6 10.4 4.2 M7.85 -5.0 L6.45 -4.8 Q5.8 -4.4 5.65 -3.65 5.45 -2.9 5.85 -2.25 6.25 -1.65 7.0 -1.45 7.75 -1.3 8.4 -1.7 9.0 -2.1 9.2 -2.85 9.35 -3.55 8.95 -4.2 8.55 -4.85 7.85 -5.0 M12.35 -2.9 L13.45 -6.2 12.75 -6.35 11.45 -4.2 10.0 -4.25 10.1 -2.9 12.35 -2.9 M10.45 -9.4 L6.75 -8.25 6.75 -6.1 7.3 -6.1 8.2 -5.9 8.25 -6.85 8.2 -7.55 10.7 -8.85 10.45 -9.4 M17.8 17.35 L20.2 18.25 20.9 17.15 18.35 16.55 17.8 17.35 M20.25 22.7 L17.15 22.0 13.85 22.85 20.5 24.2 20.25 22.7 M17.2 20.8 L17.4 21.45 19.7 22.1 19.5 21.25 17.2 20.8 M17.0 19.35 L17.0 20.1 19.35 20.6 19.35 20.0 17.0 19.35 M19.35 19.45 L19.95 18.6 17.4 17.8 16.95 18.75 19.35 19.45 M22.5 14.35 L23.15 11.7 26.2 12.4 25.55 15.1 22.5 14.35 M26.95 9.1 L26.35 11.6 23.35 10.9 23.9 8.35 23.95 8.4 26.95 9.1 M29.65 16.05 L30.25 13.35 32.9 13.95 32.3 16.65 29.65 16.05 M26.35 15.25 L26.95 12.55 29.5 13.15 28.85 15.85 26.35 15.25 M27.9 8.5 L28.55 5.85 31.05 6.45 30.45 9.1 27.9 8.5 M27.75 5.65 L27.15 8.3 24.1 7.6 24.7 4.95 27.75 5.65 M27.75 9.25 L30.25 9.85 29.65 12.4 27.15 11.8 27.75 9.25 M34.5 7.2 L33.85 9.9 31.2 9.25 31.85 6.6 34.5 7.2 M31.05 10.05 L33.7 10.65 33.1 13.2 30.45 12.55 31.05 10.05 M36.95 26.0 L37.4 25.5 35.15 24.9 34.6 25.6 36.95 26.0 M39.5 28.85 L36.95 26.6 33.85 25.9 32.95 27.1 39.5 28.85 M37.85 25.0 L38.25 24.3 35.8 23.8 35.55 24.35 37.85 25.0 M36.05 23.35 L38.55 23.75 38.5 22.75 35.9 22.35 36.05 23.35 M38.4 22.15 L38.25 21.2 35.7 20.6 35.85 21.9 38.4 22.15 M37.8 8.0 L37.2 10.65 34.65 10.05 35.25 7.4 37.75 8.0 37.8 8.0 M37.0 11.45 L36.4 13.95 33.9 13.35 34.45 10.85 37.0 11.45 M36.2 14.7 L36.25 14.7 35.6 17.4 33.05 16.85 33.7 14.15 36.2 14.7 M49.1 15.45 L50.15 13.55 Q44.2 6.05 43.35 5.3 43.65 6.05 43.75 7.5 L43.65 9.8 49.1 15.45 M55.15 7.85 Q54.95 8.6 55.4 9.25 55.8 9.9 56.5 10.05 L57.9 9.85 Q58.55 9.45 58.7 8.7 58.9 7.95 58.5 7.3 L57.35 6.5 Q56.6 6.35 55.95 6.75 55.35 7.15 55.15 7.85 M55.2 10.5 Q54.75 10.1 54.75 9.7 L50.95 13.6 51.75 15.6 56.1 11.0 55.2 10.5 M42.05 3.85 L23.2 -0.55 Q20.75 0.15 18.75 6.6 16.85 12.8 17.85 14.6 L39.8 19.7 Q41.45 19.0 42.3 12.8 43.15 6.6 42.05 3.85 M53.5 3.1 L52.85 2.95 52.3 6.45 54.35 7.4 54.55 6.95 55.1 6.25 53.75 5.65 53.5 3.1 M36.1 3.75 L38.65 4.35 37.95 7.2 35.45 6.65 36.1 3.75 M53.55 -10.1 L49.0 -11.15 48.05 -6.85 47.0 -2.7 49.05 -2.15 Q49.85 -3.1 50.7 -6.0 51.5 -8.7 51.5 -10.2 52.05 -8.7 51.3 -5.95 50.6 -3.4 49.55 -2.05 L51.3 -1.7 Q52.55 -2.4 53.35 -5.4 54.2 -8.4 53.55 -10.1 M32.7 2.95 L35.35 3.55 34.65 6.45 32.0 5.85 32.7 2.95 M29.4 2.2 L31.9 2.75 31.25 5.65 28.7 5.05 29.4 2.2 M19.6 1.9 Q20.3 0.6 20.95 0.05 20.2 0.25 15.6 2.4 L11.15 4.5 11.3 6.65 14.65 5.45 18.65 4.0 Q18.9 3.1 19.6 1.9 M24.9 4.15 L25.55 1.3 28.6 2.0 27.95 4.9 24.9 4.15 M21.8 -4.1 L21.6 -2.35 43.75 3.15 44.5 1.2 21.8 -4.1 M24.8 -18.55 Q23.85 -15.7 23.0 -11.35 22.3 -7.95 21.9 -4.75 L44.7 0.55 46.45 -6.15 47.8 -13.2 24.8 -18.55 M24.0 -11.75 Q25.1 -16.9 25.65 -16.9 L46.15 -12.1 Q46.8 -11.8 45.6 -6.7 44.4 -1.65 43.6 -1.05 L23.1 -5.8 Q22.95 -6.7 24.0 -11.75 M18.7 -18.2 Q17.4 -16.95 16.8 -13.9 16.2 -10.85 17.0 -9.7 L18.7 -9.2 Q18.4 -10.9 18.9 -13.5 19.45 -16.3 20.55 -17.4 19.95 -16.05 19.45 -13.25 18.95 -10.3 19.2 -9.1 L21.3 -8.7 22.2 -12.9 23.25 -17.15 18.7 -18.2 M24.95 -18.95 L25.15 -19.15 47.85 -13.85 48.15 -17.1 Q46.15 -18.8 37.3 -21.0 28.3 -23.2 26.55 -22.25 25.8 -21.3 24.95 -18.95 M40.6 -26.45 Q40.75 -27.3 40.3 -28.05 39.85 -28.75 39.05 -28.95 L37.45 -28.7 Q36.75 -28.25 36.55 -27.4 36.35 -26.55 36.8 -25.85 37.25 -25.1 38.1 -24.9 38.95 -24.75 39.65 -25.2 40.4 -25.65 40.6 -26.45 M56.45 1.8 L58.15 4.1 57.8 4.7 57.4 5.55 Q58.0 5.55 58.75 6.05 L59.75 4.1 56.95 1.4 56.45 1.8 M56.95 0.1 L61.0 3.85 59.45 7.1 Q59.95 8.15 59.55 9.25 59.15 10.3 58.15 10.8 L57.95 10.9 51.6 17.5 51.15 16.95 50.25 16.9 49.55 16.65 49.1 17.3 43.55 11.4 Q43.15 15.6 42.4 18.4 41.55 21.6 40.55 21.4 L39.55 21.15 39.8 24.05 38.05 26.3 40.8 28.45 40.65 29.95 30.75 27.6 35.1 23.15 34.55 20.0 22.2 17.1 20.3 19.75 22.2 25.65 12.3 23.35 12.85 21.95 16.25 21.25 15.7 18.45 17.25 15.9 Q16.0 15.25 16.25 12.05 16.5 9.25 17.75 5.55 L10.45 8.3 10.35 7.5 9.6 7.45 8.8 7.1 8.15 7.4 5.35 -1.35 5.2 -1.55 Q4.5 -2.45 4.65 -3.55 4.8 -4.7 5.65 -5.4 L5.7 -9.0 11.05 -10.6 11.5 -8.4 9.3 -6.85 9.3 -5.3 9.4 -5.2 10.9 -5.25 12.55 -7.4 14.75 -6.9 13.05 -1.65 9.7 -1.6 9.55 -1.45 11.15 3.2 20.95 -1.2 20.85 -1.25 Q20.2 -1.4 21.2 -7.45 L16.5 -8.5 Q14.6 -9.75 15.6 -14.5 16.65 -19.3 18.85 -19.45 L23.6 -18.3 Q25.0 -22.9 26.05 -23.45 L29.75 -23.6 36.1 -22.5 36.75 -23.8 Q35.85 -24.35 35.45 -25.35 35.0 -26.35 35.25 -27.45 35.55 -28.8 36.75 -29.55 37.95 -30.3 39.3 -29.95 40.7 -29.65 41.45 -28.45 42.2 -27.25 41.85 -25.9 41.6 -24.85 40.8 -24.15 40.0 -23.45 38.95 -23.3 L38.95 -21.85 45.8 -19.85 Q48.9 -18.75 49.25 -18.05 49.75 -17.05 48.95 -12.4 L53.95 -11.25 Q55.9 -10.15 54.7 -5.4 53.5 -0.7 51.25 -0.45 L46.5 -1.55 45.1 2.6 Q44.45 4.25 44.05 4.15 L43.9 4.1 50.75 12.4 54.2 8.95 54.15 8.75 51.15 7.25 51.95 1.75 54.15 2.3 54.7 4.95 56.05 5.65 56.15 5.6 56.85 4.2 55.55 1.85 56.95 0.1" fill="#000000" fill-rule="evenodd" stroke="none"/>
    <path d="M42.1 -5.4 L41.55 -5.45 Q41.3 -5.55 41.2 -5.8 L41.25 -6.35 41.6 -6.7 42.15 -6.65 42.5 -6.25 42.45 -5.75 42.1 -5.4 M43.25 -9.0 L42.8 -9.0 42.55 -9.3 42.55 -9.75 42.85 -10.0 43.3 -10.0 43.55 -9.7 43.55 -9.25 43.25 -9.0 M40.35 -8.2 L40.75 -8.95 44.65 -7.45 44.55 -6.75 40.35 -8.2 M35.6 -7.0 L35.3 -7.65 36.85 -8.85 35.75 -10.6 36.5 -11.35 37.6 -9.35 39.4 -10.75 40.0 -9.75 38.05 -8.5 38.95 -6.9 38.5 -6.25 37.35 -8.05 35.6 -7.0 M31.0 -10.65 L34.4 -10.0 34.25 -8.95 30.9 -9.65 31.0 -10.65 M28.25 -13.1 L28.05 -11.1 29.55 -10.85 29.4 -9.85 27.95 -10.05 27.8 -8.3 26.75 -8.45 26.9 -10.2 25.1 -10.45 25.2 -11.5 26.95 -11.25 27.1 -13.2 28.25 -13.1" fill="#ffffff" fill-rule="evenodd" stroke="none"/>
    <path d="M-9.75 19.0 Q-10.55 20.4 -10.25 22.2 L-9.95 23.4 -9.65 24.6 -12.35 24.85 Q-12.2 24.4 -12.4 23.85 L-12.85 22.85 -13.9 20.65 -14.9 18.35 -9.75 19.0 M5.1 24.7 L5.35 22.95 5.6 21.2 4.9 19.9 3.9 18.75 4.5 18.35 10.4 17.45 Q10.9 18.9 10.75 19.4 L9.55 21.0 8.4 22.6 7.9 23.45 Q7.75 23.8 7.75 24.45 L6.55 24.7 5.1 24.7 M3.05 0.45 L3.65 0.35 9.2 -0.3 Q10.1 2.25 11.15 8.65 L12.25 15.7 8.0 16.55 3.6 16.95 3.0 8.75 Q2.45 3.15 2.4 0.55 L3.05 0.45 M-0.1 0.45 L1.45 0.45 1.65 0.45 1.85 0.45 2.15 8.85 2.5 17.2 1.9 17.75 1.35 18.35 -8.4 17.7 -17.4 16.15 -16.5 11.55 -13.85 11.7 -13.1 11.8 -12.45 11.75 -7.35 12.55 -6.9 12.7 Q-6.65 12.7 -6.35 12.35 L-5.0 12.55 -3.65 12.7 Q-3.35 12.5 -3.7 11.65 L-4.1 10.15 -4.0 9.7 -3.95 9.3 -3.6 8.9 Q-3.25 8.45 -3.5 8.0 L-4.45 6.2 -3.0 4.8 -2.8 4.25 -3.0 3.75 -4.75 2.4 -4.5 0.2 -0.1 0.45 M2.1 -17.95 L1.7 -16.35 0.0 -16.3 Q-2.8 -17.65 -4.05 -18.75 L-0.05 -18.2 2.1 -17.95 M-11.1 4.7 L-11.35 2.85 -10.9 -1.15 -5.85 0.15 -6.0 2.5 -11.1 4.7 M-13.9 2.5 L-12.6 2.1 Q-12.5 2.65 -12.55 3.95 L-12.5 5.75 Q-12.45 6.15 -12.0 6.05 L-11.15 5.7 -8.15 4.45 -5.1 3.15 -4.0 4.15 -4.95 4.85 -5.85 5.5 -5.65 5.9 -5.15 6.3 -4.9 7.2 -4.65 8.1 -5.4 9.1 -6.15 10.15 -7.35 11.45 Q-9.9 12.05 -13.35 10.45 L-14.05 8.3 -14.6 6.45 -13.9 2.5 M-13.25 -1.9 L-14.35 -1.2 -14.35 -0.9 -17.55 1.85 -20.6 4.8 -21.05 5.25 -20.5 5.45 -17.85 6.3 -15.15 7.1 -14.25 10.3 Q-17.8 10.3 -21.2 9.35 -24.95 8.3 -27.9 6.2 -24.2 1.15 -18.5 -4.05 L-13.25 -1.9 -12.9 -1.75 -12.35 -1.45 -12.9 1.45 -14.5 1.7 -14.35 -0.9 -14.35 -0.95 -14.15 -1.2 -14.0 -1.35 -13.25 -1.9 M-16.75 -7.65 Q-15.7 -8.45 -14.9 -8.4 L-2.9 -7.85 11.6 -8.5 13.8 -7.05 15.65 -5.1 Q12.6 -2.6 7.55 -1.65 L-1.0 -1.1 Q-5.75 -1.35 -9.95 -2.45 -15.05 -3.85 -18.1 -6.25 L-16.75 -7.65 M-10.35 -24.6 Q-10.8 -25.0 -11.45 -25.0 -12.1 -25.0 -12.6 -24.6 L-13.05 -23.6 Q-13.05 -23.0 -12.6 -22.55 -12.1 -22.15 -11.45 -22.15 -10.8 -22.15 -10.35 -22.55 -9.85 -23.0 -9.85 -23.6 -9.85 -24.15 -10.35 -24.6 M-21.2 -22.6 Q-20.0 -22.85 -19.75 -22.6 L-21.4 -17.75 Q-23.8 -18.3 -22.85 -21.3 -22.5 -22.3 -21.2 -22.6 M9.55 -23.6 Q9.55 -23.0 10.05 -22.55 10.5 -22.15 11.15 -22.15 L12.3 -22.55 Q12.75 -23.0 12.75 -23.6 L12.3 -24.6 11.15 -25.0 Q10.5 -25.0 10.05 -24.6 9.55 -24.15 9.55 -23.6 M5.0 -20.95 Q4.65 -21.0 4.4 -20.5 4.15 -20.0 4.5 -20.0 5.75 -19.8 3.9 -19.05 2.55 -18.9 -0.5 -19.0 -4.1 -19.15 -5.2 -19.65 -5.4 -19.75 -5.5 -19.45 L-5.45 -19.0 -2.15 -16.3 -0.6 -15.45 1.1 -14.8 Q1.7 -14.75 2.2 -15.15 L2.7 -16.05 2.7 -17.0 Q2.65 -17.6 2.85 -17.8 L2.95 -17.95 5.15 -18.25 Q6.6 -18.85 6.65 -19.75 6.75 -20.75 5.0 -20.95 M-0.75 -21.6 Q-1.0 -21.35 -0.75 -21.1 L-0.2 -21.05 Q0.45 -21.65 1.15 -21.75 L1.55 -21.75 1.55 -21.45 Q1.4 -21.1 1.8 -21.0 2.15 -20.9 2.3 -21.25 L2.25 -22.1 Q2.05 -22.45 1.55 -22.5 0.4 -22.65 -0.75 -21.6 M15.75 13.4 L16.25 13.95 16.65 14.55 13.75 15.05 Q13.45 14.4 13.25 12.95 L12.9 10.7 14.15 11.65 15.35 12.6 15.5 13.05 15.75 13.4 M16.7 -22.45 Q18.05 -18.3 18.25 -16.1 15.0 -11.65 11.2 -9.3 L-0.35 -8.75 -13.1 -9.15 -14.6 -9.15 -16.95 -12.3 Q-19.0 -15.1 -19.85 -16.85 -18.75 -22.2 -16.6 -25.7 L-11.1 -26.75 Q-8.05 -27.55 -5.9 -28.65 L0.25 -31.85 Q4.6 -33.6 6.55 -31.9 6.75 -31.7 7.05 -31.65 L7.9 -31.75 Q9.9 -32.8 12.25 -30.85 14.15 -29.3 14.65 -27.65 L16.7 -22.45 M16.5 -1.85 L20.5 1.25 Q23.1 3.3 24.15 4.8 L20.1 8.7 15.6 12.05 14.35 10.9 13.15 9.75 18.0 4.55 14.9 1.85 11.15 -0.6 10.9 -0.7 Q13.05 -1.3 14.85 -2.25 L15.7 -2.05 16.5 -1.85 M18.35 -21.55 Q19.1 -21.8 19.95 -21.15 20.75 -20.5 21.0 -19.55 21.2 -18.85 20.7 -17.95 L19.65 -16.85 18.35 -21.55 M18.2 -33.95 Q18.65 -32.15 18.3 -30.0 17.9 -27.95 16.9 -26.5 14.65 -30.4 13.15 -31.7 10.55 -33.95 7.25 -32.6 5.1 -34.7 1.4 -33.85 -0.6 -33.35 -4.4 -31.35 -9.65 -28.65 -13.3 -27.7 -18.7 -26.3 -23.15 -27.65 L-22.15 -28.5 -21.15 -29.4 Q-20.35 -30.45 -19.7 -32.15 L-18.75 -35.05 Q-18.05 -37.15 -15.55 -39.25 -13.4 -40.95 -10.85 -42.05 -6.35 -43.9 0.1 -43.3 7.1 -42.65 9.1 -39.45 9.35 -41.65 12.4 -41.5 L15.4 -40.9 12.6 -37.7 Q17.15 -38.55 18.2 -33.95" fill="#ffffff" fill-rule="evenodd" stroke="none"/>
    <path d="M11.75 2.3 L12.5 8.35 15.95 4.65 11.75 2.3 M-13.9 20.65 L-12.85 22.85 -12.4 23.85 Q-12.2 24.4 -12.35 24.85 L-9.65 24.6 -9.95 23.4 -10.25 22.2 Q-10.55 20.4 -9.75 19.0 L-14.9 18.35 -13.9 20.65 M-18.5 4.85 L-16.6 5.3 -16.2 2.85 -18.5 4.85 M3.9 18.75 L4.9 19.9 5.6 21.2 5.35 22.95 5.1 24.7 6.55 24.7 7.75 24.45 Q7.75 23.8 7.9 23.45 L8.4 22.6 9.55 21.0 10.75 19.4 Q10.9 18.9 10.4 17.45 L4.5 18.35 3.9 18.75 M3.65 0.35 L3.05 0.45 2.4 0.55 Q2.45 3.15 3.0 8.75 L3.6 16.95 8.0 16.55 12.25 15.7 11.15 8.65 Q10.1 2.25 9.2 -0.3 L3.65 0.35 M1.85 0.45 L1.65 0.45 1.45 0.45 -0.1 0.45 -4.5 0.2 -4.75 2.4 -3.0 3.75 -2.8 4.25 -3.0 4.8 -4.45 6.2 -3.5 8.0 Q-3.25 8.45 -3.6 8.9 L-3.95 9.3 -4.0 9.7 -4.1 10.15 -3.7 11.65 Q-3.35 12.5 -3.65 12.7 L-5.0 12.55 -6.35 12.35 Q-6.65 12.7 -6.9 12.7 L-7.35 12.55 -12.45 11.75 -13.1 11.8 -13.85 11.7 -16.5 11.55 -17.4 16.15 -8.4 17.7 1.35 18.35 1.9 17.75 2.5 17.2 2.15 8.85 1.85 0.45 M1.7 -16.35 L2.1 -17.95 -0.05 -18.2 -4.05 -18.75 Q-2.8 -17.65 0.0 -16.3 L1.7 -16.35 M-11.35 2.85 L-11.1 4.7 -6.0 2.5 -5.85 0.15 -10.9 -1.15 -11.35 2.85 M-12.55 3.95 Q-12.5 2.65 -12.6 2.1 L-13.9 2.5 -14.6 6.45 -14.05 8.3 -13.35 10.45 Q-9.9 12.05 -7.35 11.45 L-6.15 10.15 -5.4 9.1 -4.65 8.1 -4.9 7.2 -5.15 6.3 -5.65 5.9 -5.85 5.5 -4.95 4.85 -4.0 4.15 -5.1 3.15 -8.15 4.45 -11.15 5.7 -12.0 6.05 Q-12.45 6.15 -12.5 5.75 L-12.55 3.95 M-12.35 -1.45 L-12.9 -1.75 -13.25 -1.9 -18.5 -4.05 Q-24.2 1.15 -27.9 6.2 -24.95 8.3 -21.2 9.35 -17.8 10.3 -14.25 10.3 L-15.15 7.1 -17.85 6.3 -20.5 5.45 -21.05 5.25 -20.6 4.8 -17.55 1.85 -14.35 -0.9 -14.5 1.7 -12.9 1.45 -12.35 -1.45 M-14.9 -8.4 Q-15.7 -8.45 -16.75 -7.65 L-18.1 -6.25 Q-15.05 -3.85 -9.95 -2.45 -5.75 -1.35 -1.0 -1.1 L7.55 -1.65 Q12.6 -2.6 15.65 -5.1 L13.8 -7.05 11.6 -8.5 -2.9 -7.85 -14.9 -8.4 M-11.45 -25.0 Q-10.8 -25.0 -10.35 -24.6 -9.85 -24.15 -9.85 -23.6 -9.85 -23.0 -10.35 -22.55 -10.8 -22.15 -11.45 -22.15 -12.1 -22.15 -12.6 -22.55 -13.05 -23.0 -13.05 -23.6 L-12.6 -24.6 Q-12.1 -25.0 -11.45 -25.0 M-21.2 -22.6 Q-22.5 -22.3 -22.85 -21.3 -23.8 -18.3 -21.4 -17.75 L-19.75 -22.6 Q-20.0 -22.85 -21.2 -22.6 M9.55 -23.6 Q9.55 -24.15 10.05 -24.6 10.5 -25.0 11.15 -25.0 L12.3 -24.6 12.75 -23.6 Q12.75 -23.0 12.3 -22.55 L11.15 -22.15 Q10.5 -22.15 10.05 -22.55 9.55 -23.0 9.55 -23.6 M4.4 -20.5 Q4.65 -21.0 5.0 -20.95 6.75 -20.75 6.65 -19.75 6.6 -18.85 5.15 -18.25 L2.95 -17.95 2.85 -17.8 Q2.65 -17.6 2.7 -17.0 L2.7 -16.05 2.2 -15.15 Q1.7 -14.75 1.1 -14.8 L-0.6 -15.45 -2.15 -16.3 -5.45 -19.0 -5.5 -19.45 Q-5.4 -19.75 -5.2 -19.65 -4.1 -19.15 -0.5 -19.0 2.55 -18.9 3.9 -19.05 5.75 -19.8 4.5 -20.0 4.15 -20.0 4.4 -20.5 M-0.2 -21.05 L-0.75 -21.1 Q-1.0 -21.35 -0.75 -21.6 0.4 -22.65 1.55 -22.5 2.05 -22.45 2.25 -22.1 L2.3 -21.25 Q2.15 -20.9 1.8 -21.0 1.4 -21.1 1.55 -21.45 L1.55 -21.75 1.15 -21.75 Q0.45 -21.65 -0.2 -21.05 M16.65 14.55 L16.25 13.95 15.75 13.4 15.5 13.05 15.35 12.6 14.15 11.65 12.9 10.7 13.25 12.95 Q13.45 14.4 13.75 15.05 L16.65 14.55 M18.25 -16.1 Q18.05 -18.3 16.7 -22.45 L14.65 -27.65 Q14.15 -29.3 12.25 -30.85 9.9 -32.8 7.9 -31.75 L7.05 -31.65 Q6.75 -31.7 6.55 -31.9 4.6 -33.6 0.25 -31.85 L-5.9 -28.65 Q-8.05 -27.55 -11.1 -26.75 L-16.6 -25.7 Q-18.75 -22.2 -19.85 -16.85 -19.0 -15.1 -16.95 -12.3 L-14.6 -9.15 -13.1 -9.15 -0.35 -8.75 11.2 -9.3 Q15.0 -11.65 18.25 -16.1 M16.5 -1.85 L15.7 -2.05 14.85 -2.25 Q13.05 -1.3 10.9 -0.7 L11.15 -0.6 14.9 1.85 18.0 4.55 13.15 9.75 14.35 10.9 15.6 12.05 20.1 8.7 24.15 4.8 Q23.1 3.3 20.5 1.25 L16.5 -1.85 M19.95 -21.15 Q19.1 -21.8 18.35 -21.55 L19.65 -16.85 20.7 -17.95 Q21.2 -18.85 21.0 -19.55 20.75 -20.5 19.95 -21.15 M16.9 -26.5 Q17.9 -27.95 18.3 -30.0 18.65 -32.15 18.2 -33.95 17.15 -38.55 12.6 -37.7 L15.4 -40.9 12.4 -41.5 Q9.35 -41.65 9.1 -39.45 7.1 -42.65 0.1 -43.3 -6.35 -43.9 -10.85 -42.05 -13.4 -40.95 -15.55 -39.25 -18.05 -37.15 -18.75 -35.05 L-19.7 -32.15 Q-20.35 -30.45 -21.15 -29.4 L-22.15 -28.5 -23.15 -27.65 Q-18.7 -26.3 -13.3 -27.7 -9.65 -28.65 -4.4 -31.35 -0.6 -33.35 1.4 -33.85 5.1 -34.7 7.25 -32.6 10.55 -33.95 13.15 -31.7 14.65 -30.4 16.9 -26.5 M16.65 -41.3 L17.6 -40.7 Q17.85 -40.35 17.0 -40.2 L16.5 -39.65 16.0 -39.1 Q19.45 -37.15 19.85 -32.2 20.25 -27.3 17.35 -24.35 L17.9 -22.75 Q19.15 -22.9 20.35 -22.15 21.55 -21.45 22.15 -20.2 23.05 -18.45 22.2 -16.9 21.35 -15.45 19.45 -14.95 L18.2 -13.1 16.7 -11.5 13.55 -8.4 15.35 -6.75 16.95 -5.15 17.3 -4.35 16.95 -3.65 16.8 -3.5 18.1 -2.45 22.1 0.75 Q24.45 2.8 25.5 4.5 L25.65 5.1 25.5 5.65 Q22.95 9.05 17.25 12.7 L17.55 13.8 17.85 14.9 Q18.0 15.3 17.75 15.75 L17.05 16.3 13.95 16.85 13.65 16.95 11.85 17.25 12.05 18.8 Q12.0 19.55 11.55 20.25 10.9 21.2 10.15 22.8 9.3 24.6 9.1 25.6 L10.9 27.8 4.6 27.8 Q4.15 27.8 3.8 27.5 3.4 27.15 3.45 26.7 L4.0 20.95 2.85 19.9 2.35 20.05 -7.85 19.1 -9.0 21.5 -8.15 26.4 Q-8.05 26.95 -8.35 27.4 -8.65 27.8 -9.25 27.8 L-15.35 27.8 -14.0 25.6 -14.75 23.3 -15.5 20.95 -16.05 19.4 Q-16.25 18.7 -16.05 18.05 L-17.95 17.7 -18.65 17.15 -18.75 16.35 -17.8 11.6 Q-24.9 10.6 -28.95 7.3 L-29.3 6.65 -29.15 5.95 Q-25.75 1.15 -19.5 -4.65 L-19.85 -5.3 -19.7 -6.0 Q-18.95 -7.65 -16.85 -9.0 L-18.6 -11.55 -20.0 -13.3 -21.4 -15.5 Q-23.6 -15.75 -24.6 -17.25 -25.15 -18.0 -25.15 -19.05 L-24.7 -20.95 Q-24.2 -22.15 -23.15 -22.9 -22.1 -23.65 -20.95 -23.65 L-22.45 -25.35 -24.4 -26.95 -25.1 -27.45 -24.5 -28.15 Q-23.15 -28.95 -22.15 -30.15 -21.1 -31.4 -20.65 -32.85 L-19.95 -35.25 -18.9 -37.55 Q-16.6 -41.15 -10.8 -43.25 -6.1 -44.95 -1.0 -44.7 4.65 -44.4 8.3 -41.7 9.8 -42.85 12.4 -42.5 13.8 -42.3 16.65 -41.3" fill="#000000" fill-rule="evenodd" stroke="none"/>
  </g>
</svg>
