<?xml version="1.0" encoding="UTF-8" standalone="no"?>
<svg xmlns:ffdec="https://www.free-decompiler.com/flash" xmlns:xlink="http://www.w3.org/1999/xlink" ffdec:objectType="shape" height="55.85px" width="75.75px" xmlns="http://www.w3.org/2000/svg">
  <g transform="matrix(1.0, 0.0, 0.0, 1.0, 37.85, 51.9)">
    <path d="M27.25 -51.85 L31.1 -51.35 Q33.6 -50.75 34.85 -49.45 38.2 -46.05 37.85 -42.0 L36.3 -23.0 34.75 -4.25 Q34.5 -1.9 32.95 0.2 31.4 2.3 29.2 3.1 26.25 4.1 20.05 3.9 L-5.6 -0.2 -31.35 -4.5 Q-34.15 -5.1 -36.1 -8.0 -37.9 -10.6 -37.85 -13.0 L-36.8 -27.45 -35.55 -42.8 Q-35.35 -46.05 -33.5 -48.25 -31.45 -50.65 -28.15 -50.8 23.25 -52.15 27.25 -51.85" fill="#767a69" fill-rule="evenodd" stroke="none"/>
    <path d="M30.35 -47.1 Q31.95 -45.0 31.9 -41.4 L30.65 -23.95 29.0 -6.55 Q28.25 -3.25 25.55 -0.7 22.4 2.2 18.8 1.6 -25.6 -5.25 -29.55 -6.2 -32.6 -6.85 -34.15 -10.0 -35.35 -12.35 -35.35 -14.95 L-34.35 -27.6 -33.15 -41.05 Q-32.95 -44.1 -31.55 -46.1 -29.95 -48.45 -27.05 -48.55 22.6 -49.65 26.15 -49.4 28.85 -49.2 30.35 -47.1" fill="#fdfee4" fill-rule="evenodd" stroke="none"/>
    <path d="M30.5 -46.5 Q29.25 -48.8 26.6 -49.45 L29.2 -48.9 32.3 -48.1 Q35.15 -46.65 35.15 -42.25 35.15 -39.3 33.65 -22.4 32.2 -5.55 31.8 -3.7 31.4 -1.8 29.95 -0.4 28.4 1.2 26.3 1.35 L20.45 1.9 23.85 0.3 Q27.3 -1.85 28.15 -4.5 29.0 -7.35 30.3 -23.7 31.5 -38.7 31.5 -42.5 31.5 -44.75 30.5 -46.5" fill="#d2dbbe" fill-rule="evenodd" stroke="none"/>
    <path d="M-28.35 -43.5 L-4.85 -43.0 -7.7 -16.6 -29.65 -18.7 -28.35 -43.5" fill="#767a69" fill-rule="evenodd" stroke="none"/>
    <path d="M-11.9 -32.8 Q-12.45 -37.2 -17.05 -37.95 -21.95 -38.75 -23.3 -33.95 -24.65 -29.25 -21.25 -26.6 -23.05 -25.35 -24.2 -23.0 L-25.35 -19.8 -28.9 -20.1 -27.45 -42.2 -6.7 -41.8 -8.75 -18.2 -12.05 -18.5 Q-11.95 -24.0 -14.45 -26.4 -11.35 -28.65 -11.9 -32.8" fill="#2cc3ea" fill-rule="evenodd" stroke="none"/>
    <path d="M-14.45 -26.4 Q-11.95 -24.0 -12.05 -18.5 L-25.35 -19.8 -24.2 -23.0 Q-23.05 -25.35 -21.25 -26.6 -24.65 -29.25 -23.3 -33.95 -21.95 -38.75 -17.05 -37.95 -12.45 -37.2 -11.9 -32.8 -11.35 -28.65 -14.45 -26.4" fill="#fdfdfd" fill-rule="evenodd" stroke="none"/>
    <path d="M-1.15 -40.9 L24.15 -41.45 22.25 -32.1 -0.95 -33.2 -1.15 -40.9" fill="#2ca981" fill-rule="evenodd" stroke="none"/>
    <path d="M-1.35 -29.2 L22.05 -27.85 21.75 -26.0 -1.65 -27.85 -1.35 -29.2" fill="#767a69" fill-rule="evenodd" stroke="none"/>
    <path d="M-1.35 -23.3 L20.65 -22.25 20.65 -19.6 -1.95 -22.0 -1.35 -23.3" fill="#767a69" fill-rule="evenodd" stroke="none"/>
    <path d="M-2.5 -18.0 L20.35 -16.1 19.8 -14.5 -3.05 -16.9 -2.5 -18.0" fill="#767a69" fill-rule="evenodd" stroke="none"/>
    <path d="M20.95 -4.1 L-29.95 -11.05 -29.75 -15.85 21.75 -10.0 20.95 -4.1" fill="#767a69" fill-rule="evenodd" stroke="none"/>
  </g>
</svg>
