<?xml version="1.0" encoding="UTF-8" standalone="no"?>
<svg xmlns:ffdec="https://www.free-decompiler.com/flash" xmlns:xlink="http://www.w3.org/1999/xlink" ffdec:objectType="shape" height="32.3px" width="46.55px" xmlns="http://www.w3.org/2000/svg">
  <g transform="matrix(1.0, 0.0, 0.0, 1.0, 23.25, 16.15)">
    <path d="M-9.6 -4.6 L-3.4 -10.7 -3.4 12.25 -9.6 6.1 -14.15 6.1 -14.15 -4.6 -9.6 -4.6 M22.2 -15.05 L-22.15 -15.05 -22.15 15.05 22.2 15.05 22.2 -15.05 M23.3 -16.15 L23.3 16.15 -23.25 16.15 -23.25 -16.15 23.3 -16.15" fill="#ffffff" fill-rule="evenodd" stroke="none"/>
    <path d="M-9.6 -4.6 L-14.15 -4.6 -14.15 6.1 -9.6 6.1 -3.4 12.25 -3.4 -10.7 -9.6 -4.6 M22.2 -15.05 L22.2 15.05 -22.15 15.05 -22.15 -15.05 22.2 -15.05" fill="#cc0000" fill-rule="evenodd" stroke="none"/>
  </g>
</svg>
