<?xml version="1.0" encoding="UTF-8" standalone="no"?>
<svg xmlns:ffdec="https://www.free-decompiler.com/flash" xmlns:xlink="http://www.w3.org/1999/xlink" ffdec:objectType="shape" height="35.9px" width="51.8px" xmlns="http://www.w3.org/2000/svg">
  <g transform="matrix(1.0, 0.0, 0.0, 1.0, 25.9, 17.95)">
    <path d="M1.7 -2.3 L1.7 -6.2 -2.25 -6.2 -2.25 -2.3 1.7 -2.3 M9.55 -2.3 L5.6 -2.3 5.6 1.65 -6.15 1.65 -6.15 -2.3 -10.1 -2.3 -10.1 -6.2 -6.15 -6.2 -6.15 -10.15 5.6 -10.15 5.6 -6.2 9.55 -6.2 9.55 -2.3" fill="#030303" fill-rule="evenodd" stroke="none"/>
    <path d="M24.65 16.75 L24.65 -16.75 -24.65 -16.75 -24.65 16.75 24.65 16.75 M25.9 17.95 L-25.9 17.95 -25.9 -17.95 25.9 -17.95 25.9 17.95" fill="#ffffff" fill-rule="evenodd" stroke="none"/>
    <path d="M9.55 -2.3 L9.55 -6.2 5.6 -6.2 5.6 -10.15 -6.15 -10.15 -6.15 -6.2 -10.1 -6.2 -10.1 -2.3 -6.15 -2.3 -6.15 1.65 5.6 1.65 5.6 -2.3 9.55 -2.3 M1.7 -2.3 L-2.25 -2.3 -2.25 -6.2 1.7 -6.2 1.7 -2.3 M24.65 16.75 L-24.65 16.75 -24.65 -16.75 24.65 -16.75 24.65 16.75" fill="#000000" fill-rule="evenodd" stroke="none"/>
    <path d="M2.9 -7.0 L-2.8 -7.0 -2.8 -2.35 -8.5 -2.35 -8.5 2.35 -2.8 2.35 -2.8 7.0 2.9 7.0 2.9 2.35 8.65 2.35 8.65 -2.35 2.9 -2.35 2.9 -7.0 M14.35 -2.35 L20.05 -2.35 20.05 2.35 14.35 2.35 14.35 7.0 8.65 7.0 8.65 11.7 -8.5 11.7 -8.5 7.0 -14.3 7.0 -14.3 2.35 -19.95 2.35 -19.95 -2.35 -14.3 -2.35 -14.3 -7.0 -8.5 -7.0 -8.5 -11.7 8.65 -11.7 8.65 -7.0 14.35 -7.0 14.35 -2.35" fill="#ffffff" fill-rule="evenodd" stroke="none"/>
  </g>
</svg>
