<?xml version="1.0" encoding="UTF-8" standalone="no"?>
<svg xmlns:ffdec="https://www.free-decompiler.com/flash" xmlns:xlink="http://www.w3.org/1999/xlink" ffdec:objectType="shape" height="38.1px" width="141.3px" xmlns="http://www.w3.org/2000/svg">
  <g transform="matrix(1.0, 0.0, 0.0, 1.0, 70.65, 19.05)">
    <path d="M70.65 0.0 Q70.65 7.85 65.1 13.45 59.5 19.05 51.65 19.05 L-51.6 19.05 Q-59.45 19.05 -65.05 13.45 -70.65 7.85 -70.65 0.0 -70.65 -7.9 -65.05 -13.45 -59.45 -19.05 -51.6 -19.05 L51.65 -19.05 Q59.5 -19.05 65.1 -13.45 70.65 -7.9 70.65 0.0" fill="url(#gradient0)" fill-rule="evenodd" stroke="none"/>
    <path d="M51.65 -17.5 Q57.85 -17.5 62.2 -13.15 66.6 -8.75 66.6 -2.55 66.6 3.65 62.2 8.05 57.85 12.4 51.65 12.4 L-51.6 12.4 Q-57.8 12.4 -62.15 8.05 -66.55 3.65 -66.55 -2.55 -66.55 -8.75 -62.15 -13.15 -57.75 -17.5 -51.6 -17.5 L51.65 -17.5" fill="#ffffa1" fill-rule="evenodd" stroke="none"/>
    <path d="M-60.7 3.35 Q-62.45 0.65 -62.45 -2.55 -62.45 -7.05 -59.25 -10.25 -56.1 -13.45 -51.6 -13.45 L-33.85 -13.45 Q-45.7 -3.85 -56.2 7.3 -59.05 5.95 -60.7 3.35" fill="#e4c025" fill-rule="evenodd" stroke="none"/>
    <path d="M-51.6 8.35 Q-54.05 8.35 -56.2 7.3 -45.7 -3.85 -33.85 -13.45 L-8.7 -13.45 -37.9 8.35 -51.6 8.35" fill="#daa411" fill-rule="evenodd" stroke="none"/>
    <path d="M-8.7 -13.45 L5.35 -13.45 -8.0 -2.55 -21.4 8.35 -37.9 8.35 -8.7 -13.45" fill="#ffdb4c" fill-rule="evenodd" stroke="none"/>
    <path d="M-8.0 -2.55 L5.35 -13.45 33.7 -13.45 7.85 8.35 -21.4 8.35 -8.0 -2.55" fill="#ffffa1" fill-rule="evenodd" stroke="none"/>
    <path d="M58.5 -11.0 Q60.35 -9.5 61.4 -7.3 62.5 -5.05 62.5 -2.55 62.5 1.95 59.35 5.15 56.15 8.35 51.65 8.35 L35.45 8.35 Q44.35 0.95 58.5 -11.0" fill="#daa411" fill-rule="evenodd" stroke="none"/>
    <path d="M51.65 -13.45 Q55.45 -13.45 58.5 -11.0 44.35 0.95 35.45 8.35 L25.25 8.35 Q37.35 -3.75 47.55 -13.45 L51.65 -13.45" fill="#e4c025" fill-rule="evenodd" stroke="none"/>
    <path d="M33.7 -13.45 L47.55 -13.45 Q37.35 -3.75 25.25 8.35 L7.85 8.35 33.7 -13.45" fill="#ffdb4c" fill-rule="evenodd" stroke="none"/>
    <path d="M-49.45 -9.55 L-48.75 -8.8 -47.15 -5.5 -43.55 -5.0 Q-42.4 -4.85 -42.0 -3.7 -41.65 -2.6 -42.5 -1.8 L-45.1 0.75 -44.5 4.35 Q-44.4 4.9 -44.6 5.4 -44.8 5.9 -45.25 6.2 -45.75 6.55 -46.35 6.55 L-47.2 6.35 -50.45 4.65 -53.65 6.35 -54.55 6.55 Q-55.15 6.55 -55.65 6.2 L-56.3 5.4 -56.4 4.35 -55.8 0.75 -58.4 -1.8 Q-59.2 -2.6 -58.85 -3.7 -58.5 -4.85 -57.35 -5.0 L-53.75 -5.5 -52.15 -8.8 -51.45 -9.55 -50.45 -9.85 Q-49.9 -9.85 -49.45 -9.55 M-8.4 -5.05 L-8.4 3.25 Q-8.4 5.95 -11.4 7.1 -13.05 7.8 -15.15 7.8 -17.3 7.8 -19.0 7.1 L-19.0 7.45 -24.05 7.45 -26.55 7.85 Q-28.55 7.85 -30.2 6.95 -32.5 5.6 -32.5 3.2 L-32.5 -5.05 Q-32.5 -7.75 -29.55 -8.95 L-25.75 -9.6 Q-23.6 -9.6 -22.0 -8.95 L-20.45 -8.1 -18.95 -8.95 -15.15 -9.6 Q-13.05 -9.6 -11.4 -8.95 -8.4 -7.75 -8.4 -5.05 M25.3 -8.95 Q27.0 -8.25 27.75 -7.0 28.3 -6.1 28.3 -5.05 L28.3 3.25 Q28.3 5.95 25.3 7.1 23.65 7.8 21.55 7.8 19.45 7.8 17.7 7.1 L17.7 7.45 4.25 7.45 4.25 2.55 1.95 3.1 1.95 7.45 -5.9 7.45 -5.9 -5.05 Q-5.9 -7.75 -2.95 -8.95 -1.3 -9.65 0.85 -9.65 2.9 -9.65 4.6 -8.95 L5.9 -8.2 7.2 -8.95 Q8.95 -9.65 11.0 -9.65 13.1 -9.65 14.75 -8.95 L16.25 -8.1 17.75 -8.95 Q19.4 -9.6 21.55 -9.6 L25.3 -8.95 M57.7 -3.75 L57.75 -2.75 57.25 -1.85 54.65 0.7 55.25 4.3 55.15 5.3 54.5 6.15 53.4 6.5 52.5 6.3 49.3 4.6 46.05 6.3 45.2 6.5 Q44.6 6.5 44.1 6.15 L43.45 5.3 Q43.25 4.8 43.35 4.3 L43.95 0.7 41.35 -1.85 40.8 -2.75 Q40.7 -3.25 40.85 -3.75 41.25 -4.9 42.4 -5.05 L46.0 -5.6 47.6 -8.85 48.3 -9.6 49.3 -9.9 Q50.45 -9.9 51.0 -8.85 L52.6 -5.6 56.2 -5.05 Q57.35 -4.9 57.7 -3.75" fill="#a66100" fill-rule="evenodd" stroke="none"/>
    <path d="M-48.75 -10.55 L-47.15 -7.25 -43.55 -6.75 Q-42.4 -6.6 -42.0 -5.45 -41.65 -4.35 -42.5 -3.55 L-45.1 -1.0 -44.5 2.6 Q-44.4 3.15 -44.6 3.65 -44.8 4.15 -45.25 4.45 -45.75 4.8 -46.35 4.8 L-47.2 4.6 -50.45 2.9 -53.65 4.6 -54.55 4.8 Q-55.15 4.8 -55.65 4.45 L-56.3 3.65 -56.4 2.6 -55.8 -1.0 -58.4 -3.55 Q-59.2 -4.35 -58.85 -5.45 -58.5 -6.6 -57.35 -6.75 L-53.75 -7.25 -52.15 -10.55 -51.45 -11.3 -50.45 -11.6 Q-49.9 -11.6 -49.45 -11.3 L-48.75 -10.55" fill="url(#gradient1)" fill-rule="evenodd" stroke="none"/>
    <path d="M-47.1 -2.65 L-47.1 -2.55 -53.8 -2.35 -53.75 -2.65 -56.3 -5.15 -51.55 -5.7 -46.7 -6.3 -43.8 -5.9 -47.1 -2.65" fill="#ffffff" fill-rule="evenodd" stroke="none"/>
    <path d="M-47.1 -2.55 L-46.35 1.9 -50.45 -0.25 -54.55 1.9 -53.8 -2.35 -47.1 -2.55" fill="#fdf397" fill-rule="evenodd" stroke="none"/>
    <path d="M-48.4 -6.55 L-46.7 -6.3 -51.55 -5.7 -56.3 -5.15 -57.1 -5.9 -52.5 -6.55 -50.45 -10.7 -48.4 -6.55" fill="#fdf397" fill-rule="evenodd" stroke="none"/>
    <path d="M52.6 -7.35 L56.2 -6.8 Q57.35 -6.65 57.7 -5.5 L57.75 -4.5 57.25 -3.6 54.65 -1.05 55.25 2.55 55.15 3.55 54.5 4.4 53.4 4.75 52.5 4.55 49.3 2.85 46.05 4.55 45.2 4.75 Q44.6 4.75 44.1 4.4 L43.45 3.55 Q43.25 3.05 43.35 2.55 L43.95 -1.05 41.35 -3.6 40.8 -4.5 Q40.7 -5.0 40.85 -5.5 41.25 -6.65 42.4 -6.8 L46.0 -7.35 47.6 -10.6 48.3 -11.35 49.3 -11.65 Q50.45 -11.65 51.0 -10.6 L52.6 -7.35" fill="url(#gradient2)" fill-rule="evenodd" stroke="none"/>
    <path d="M53.0 -3.0 L52.6 -2.65 53.4 1.9 49.3 -0.25 45.2 1.9 45.95 -2.65 45.9 -2.7 53.0 -3.0" fill="#ffff9f" fill-rule="evenodd" stroke="none"/>
    <path d="M51.35 -6.55 L55.95 -5.9 53.0 -3.0 45.9 -2.7 42.65 -5.9 47.25 -6.55 47.55 -7.15 50.9 -7.45 51.35 -6.55" fill="#ffffff" fill-rule="evenodd" stroke="none"/>
    <path d="M47.55 -7.15 L49.3 -10.7 50.9 -7.45 47.55 -7.15" fill="#ffff9f" fill-rule="evenodd" stroke="none"/>
    <path d="M-19.0 -6.8 L-19.0 5.7 -24.05 5.7 -26.55 6.1 Q-28.55 6.1 -30.2 5.2 -32.5 3.85 -32.5 1.45 L-32.5 -6.8 Q-32.5 -9.5 -29.55 -10.7 L-25.75 -11.35 Q-23.6 -11.35 -22.0 -10.7 -19.0 -9.5 -19.0 -6.8" fill="url(#gradient3)" fill-rule="evenodd" stroke="none"/>
    <path d="M-8.4 1.5 Q-8.4 4.2 -11.4 5.35 -13.05 6.05 -15.15 6.05 -17.3 6.05 -19.0 5.35 -20.7 4.65 -21.45 3.4 -21.95 2.5 -21.95 1.5 L-21.95 -6.8 Q-21.95 -9.5 -18.95 -10.7 L-15.15 -11.35 Q-13.05 -11.35 -11.4 -10.7 -8.4 -9.5 -8.4 -6.8 L-8.4 1.5" fill="url(#gradient4)" fill-rule="evenodd" stroke="none"/>
    <path d="M4.6 -10.7 Q7.55 -9.45 7.55 -6.8 L7.55 -3.5 Q7.55 -2.3 6.7 -1.15 5.1 1.05 1.95 1.35 L1.95 5.7 -5.9 5.7 -5.9 -6.8 Q-5.9 -9.5 -2.95 -10.7 -1.3 -11.4 0.85 -11.4 2.9 -11.4 4.6 -10.7" fill="url(#gradient5)" fill-rule="evenodd" stroke="none"/>
    <path d="M14.75 -10.7 Q17.7 -9.45 17.7 -6.8 L17.7 -4.55 Q17.7 -3.5 17.25 -2.65 L17.7 -0.85 17.7 5.7 4.25 5.7 4.25 -6.8 Q4.25 -9.5 7.2 -10.7 8.95 -11.4 11.0 -11.4 13.1 -11.4 14.75 -10.7" fill="url(#gradient6)" fill-rule="evenodd" stroke="none"/>
    <path d="M25.3 -10.7 Q27.0 -10.0 27.75 -8.75 28.3 -7.85 28.3 -6.8 L28.3 1.5 Q28.3 4.2 25.3 5.35 23.65 6.05 21.55 6.05 19.45 6.05 17.7 5.35 16.0 4.65 15.25 3.4 14.75 2.5 14.75 1.5 L14.75 -6.8 Q14.75 -9.5 17.75 -10.7 19.4 -11.35 21.55 -11.35 L25.3 -10.7" fill="url(#gradient7)" fill-rule="evenodd" stroke="none"/>
    <path d="M-26.8 -7.45 L-26.8 1.05 Q-26.8 1.85 -25.75 1.85 -24.7 1.85 -24.7 1.05 L-24.7 -1.65 -26.25 -1.65 -26.25 -3.25 -21.1 -3.25 -21.1 3.1 -23.0 3.1 -23.3 2.3 Q-24.5 3.5 -26.55 3.5 -28.0 3.5 -29.15 2.85 -30.4 2.1 -30.4 0.95 L-30.4 -7.3 Q-30.4 -8.55 -28.7 -9.25 L-25.75 -9.75 -22.75 -9.25 Q-21.1 -8.55 -21.1 -7.3 L-21.1 -4.75 -24.7 -4.75 -24.7 -7.45 Q-24.7 -8.25 -25.75 -8.25 -26.8 -8.25 -26.8 -7.45" fill="#ffffff" fill-rule="evenodd" stroke="none"/>
    <path d="M-16.2 -7.45 L-16.2 1.05 Q-16.2 1.85 -15.2 1.85 -14.15 1.85 -14.15 1.05 L-14.15 -7.45 Q-14.15 -8.25 -15.2 -8.25 -16.2 -8.25 -16.2 -7.45 M-10.55 -7.3 L-10.55 1.0 Q-10.55 2.25 -12.2 2.9 L-15.15 3.45 -18.15 2.9 Q-19.8 2.2 -19.8 1.0 L-19.8 -7.3 Q-19.8 -8.55 -18.15 -9.25 L-15.15 -9.75 -12.2 -9.25 Q-10.55 -8.55 -10.55 -7.3" fill="#ffffff" fill-rule="evenodd" stroke="none"/>
    <path d="M5.4 -7.3 L5.4 -4.0 4.95 -2.85 Q3.75 -1.2 0.55 -1.2 L-0.2 -1.2 -0.2 3.1 -3.8 3.1 -3.8 -7.3 Q-3.8 -8.55 -2.15 -9.25 L0.85 -9.75 3.8 -9.25 Q5.4 -8.55 5.4 -7.3 M-0.1 -2.7 Q2.0 -2.7 2.0 -3.85 L2.0 -6.65 Q2.0 -8.2 0.85 -8.2 -0.2 -8.2 -0.2 -7.45 L-0.2 -2.7 -0.1 -2.7" fill="#ffffff" fill-rule="evenodd" stroke="none"/>
    <path d="M15.6 -7.3 L15.6 -5.05 Q15.6 -3.25 12.85 -3.1 15.6 -2.95 15.6 -1.35 L15.6 3.05 12.0 3.05 12.0 -1.35 Q12.0 -2.4 10.2 -2.4 L9.95 -2.4 9.95 3.05 6.35 3.05 6.35 -7.3 Q6.35 -8.55 8.0 -9.25 L11.0 -9.75 13.95 -9.25 Q15.6 -8.55 15.6 -7.3 M12.15 -6.65 Q12.15 -8.2 11.0 -8.2 9.95 -8.2 9.95 -7.45 L9.95 -3.8 10.0 -3.8 Q12.15 -3.8 12.15 -5.05 L12.15 -6.65" fill="#ffffff" fill-rule="evenodd" stroke="none"/>
    <path d="M20.5 -7.45 L20.5 1.05 Q20.5 1.85 21.5 1.85 22.55 1.85 22.55 1.05 L22.55 -7.45 Q22.55 -8.25 21.5 -8.25 20.5 -8.25 20.5 -7.45 M26.15 -7.3 L26.15 1.0 Q26.15 2.25 24.5 2.9 23.3 3.45 21.55 3.45 19.8 3.45 18.55 2.9 16.9 2.2 16.9 1.0 L16.9 -7.3 Q16.9 -8.55 18.55 -9.25 L21.55 -9.75 24.5 -9.25 Q26.15 -8.55 26.15 -7.3" fill="#ffffff" fill-rule="evenodd" stroke="none"/>
  </g>
  <defs>
    <linearGradient gradientTransform="matrix(0.0, 0.0233, 0.0233, 0.0, 0.0, -0.15)" gradientUnits="userSpaceOnUse" id="gradient0" spreadMethod="pad" x1="-819.2" x2="819.2">
      <stop offset="0.41568627450980394" stop-color="#e5ba6e"/>
      <stop offset="0.807843137254902" stop-color="#6e3b46"/>
      <stop offset="1.0" stop-color="#000000"/>
    </linearGradient>
    <linearGradient gradientTransform="matrix(0.0, 0.0091, 0.0091, 0.0, -50.45, -3.75)" gradientUnits="userSpaceOnUse" id="gradient1" spreadMethod="pad" x1="-819.2" x2="819.2">
      <stop offset="0.41568627450980394" stop-color="#e5ba6e"/>
      <stop offset="0.807843137254902" stop-color="#6e3b46"/>
      <stop offset="1.0" stop-color="#000000"/>
    </linearGradient>
    <linearGradient gradientTransform="matrix(0.0, 0.0091, 0.0091, 0.0, 49.3, -3.75)" gradientUnits="userSpaceOnUse" id="gradient2" spreadMethod="pad" x1="-819.2" x2="819.2">
      <stop offset="0.41568627450980394" stop-color="#e5ba6e"/>
      <stop offset="0.807843137254902" stop-color="#6e3b46"/>
      <stop offset="1.0" stop-color="#000000"/>
    </linearGradient>
    <linearGradient gradientTransform="matrix(0.0, 0.0079, 0.0079, 0.0, -25.75, -1.25)" gradientUnits="userSpaceOnUse" id="gradient3" spreadMethod="pad" x1="-819.2" x2="819.2">
      <stop offset="0.41568627450980394" stop-color="#e5ba6e"/>
      <stop offset="0.807843137254902" stop-color="#6e3b46"/>
      <stop offset="1.0" stop-color="#000000"/>
    </linearGradient>
    <linearGradient gradientTransform="matrix(0.0, 0.0079, 0.0079, 0.0, -15.2, -1.25)" gradientUnits="userSpaceOnUse" id="gradient4" spreadMethod="pad" x1="-819.2" x2="819.2">
      <stop offset="0.41568627450980394" stop-color="#e5ba6e"/>
      <stop offset="0.807843137254902" stop-color="#6e3b46"/>
      <stop offset="1.0" stop-color="#000000"/>
    </linearGradient>
    <linearGradient gradientTransform="matrix(0.0, 0.0079, 0.0079, 0.0, 0.8, -1.25)" gradientUnits="userSpaceOnUse" id="gradient5" spreadMethod="pad" x1="-819.2" x2="819.2">
      <stop offset="0.41568627450980394" stop-color="#e5ba6e"/>
      <stop offset="0.807843137254902" stop-color="#6e3b46"/>
      <stop offset="1.0" stop-color="#000000"/>
    </linearGradient>
    <linearGradient gradientTransform="matrix(0.0, 0.0079, 0.0079, 0.0, 11.0, -1.25)" gradientUnits="userSpaceOnUse" id="gradient6" spreadMethod="pad" x1="-819.2" x2="819.2">
      <stop offset="0.41568627450980394" stop-color="#e5ba6e"/>
      <stop offset="0.807843137254902" stop-color="#6e3b46"/>
      <stop offset="1.0" stop-color="#000000"/>
    </linearGradient>
    <linearGradient gradientTransform="matrix(0.0, 0.0079, 0.0079, 0.0, 21.5, -1.25)" gradientUnits="userSpaceOnUse" id="gradient7" spreadMethod="pad" x1="-819.2" x2="819.2">
      <stop offset="0.41568627450980394" stop-color="#e5ba6e"/>
      <stop offset="0.807843137254902" stop-color="#6e3b46"/>
      <stop offset="1.0" stop-color="#000000"/>
    </linearGradient>
  </defs>
</svg>
