<?xml version="1.0" encoding="UTF-8" standalone="no"?>
<svg xmlns:ffdec="https://www.free-decompiler.com/flash" xmlns:xlink="http://www.w3.org/1999/xlink" ffdec:objectType="shape" height="38.1px" width="141.3px" xmlns="http://www.w3.org/2000/svg">
  <g transform="matrix(1.0, 0.0, 0.0, 1.0, 69.7, 19.5)">
    <path d="M71.6 -0.45 Q71.6 7.4 66.05 13.0 60.45 18.6 52.6 18.6 L-50.65 18.6 Q-58.5 18.6 -64.1 13.0 -69.7 7.4 -69.7 -0.45 -69.7 -8.35 -64.1 -13.9 -58.5 -19.5 -50.65 -19.5 L52.6 -19.5 Q60.45 -19.5 66.05 -13.9 71.6 -8.35 71.6 -0.45" fill="url(#gradient0)" fill-rule="evenodd" stroke="none"/>
    <path d="M52.6 -17.95 Q58.8 -17.95 63.15 -13.6 67.55 -9.2 67.55 -3.0 67.55 3.2 63.15 7.6 58.8 11.95 52.6 11.95 L-50.65 11.95 Q-56.85 11.95 -61.2 7.6 -65.6 3.2 -65.6 -3.0 -65.6 -9.2 -61.2 -13.6 -56.8 -17.95 -50.65 -17.95 L52.6 -17.95" fill="#ffffa1" fill-rule="evenodd" stroke="none"/>
    <path d="M-59.75 2.9 Q-61.5 0.2 -61.5 -3.0 -61.5 -7.5 -58.3 -10.7 -55.15 -13.9 -50.65 -13.9 L-32.9 -13.9 Q-44.75 -4.3 -55.25 6.85 -58.1 5.5 -59.75 2.9" fill="#e4c025" fill-rule="evenodd" stroke="none"/>
    <path d="M-50.65 7.9 Q-53.1 7.9 -55.25 6.85 -44.75 -4.3 -32.9 -13.9 L-7.75 -13.9 -36.95 7.9 -50.65 7.9" fill="#daa411" fill-rule="evenodd" stroke="none"/>
    <path d="M-7.75 -13.9 L6.3 -13.9 -7.05 -3.0 -20.45 7.9 -36.95 7.9 -7.75 -13.9" fill="#ffdb4c" fill-rule="evenodd" stroke="none"/>
    <path d="M-7.05 -3.0 L6.3 -13.9 34.65 -13.9 8.8 7.9 -20.45 7.9 -7.05 -3.0" fill="#ffffa1" fill-rule="evenodd" stroke="none"/>
    <path d="M59.45 -11.45 Q61.3 -9.95 62.35 -7.75 63.45 -5.5 63.45 -3.0 63.45 1.5 60.3 4.7 57.1 7.9 52.6 7.9 L36.4 7.9 59.45 -11.45" fill="#daa411" fill-rule="evenodd" stroke="none"/>
    <path d="M52.6 -13.9 Q56.4 -13.9 59.45 -11.45 L36.4 7.9 26.2 7.9 48.5 -13.9 52.6 -13.9" fill="#e4c025" fill-rule="evenodd" stroke="none"/>
    <path d="M34.65 -13.9 L48.5 -13.9 26.2 7.9 8.8 7.9 34.65 -13.9" fill="#ffdb4c" fill-rule="evenodd" stroke="none"/>
    <path d="M-47.8 -11.0 L-46.2 -7.7 -42.6 -7.2 Q-41.45 -7.05 -41.05 -5.9 -40.7 -4.8 -41.55 -4.0 L-44.15 -1.45 -43.55 2.15 Q-43.45 2.7 -43.65 3.2 L-44.3 4.0 Q-44.8 4.35 -45.4 4.35 L-46.25 4.15 -49.5 2.45 -52.7 4.15 -53.6 4.35 -54.7 4.0 -55.35 3.2 -55.45 2.15 -54.85 -1.45 -57.45 -4.0 Q-58.25 -4.8 -57.9 -5.9 -57.55 -7.05 -56.4 -7.2 L-52.8 -7.7 -51.2 -11.0 -50.5 -11.75 -49.5 -12.05 -48.5 -11.75 -47.8 -11.0" fill="url(#gradient1)" fill-rule="evenodd" stroke="none"/>
    <path d="M-46.15 -3.1 L-46.15 -3.0 -52.85 -2.8 -52.8 -3.1 -55.35 -5.6 -50.6 -6.15 -45.75 -6.75 -42.85 -6.35 -46.15 -3.1" fill="#ffffff" fill-rule="evenodd" stroke="none"/>
    <path d="M-46.15 -3.0 L-45.4 1.45 -49.5 -0.7 -53.6 1.45 -52.85 -2.8 -46.15 -3.0" fill="#fdf397" fill-rule="evenodd" stroke="none"/>
    <path d="M-47.45 -7.0 L-45.75 -6.75 -50.6 -6.15 -55.35 -5.6 -56.15 -6.35 -51.55 -7.0 -49.5 -11.15 -47.45 -7.0" fill="#fdf397" fill-rule="evenodd" stroke="none"/>
    <path d="M53.55 -7.8 L57.15 -7.25 Q58.3 -7.1 58.65 -5.95 L58.7 -4.95 58.2 -4.05 55.6 -1.5 56.2 2.1 56.1 3.1 55.45 3.95 54.35 4.3 53.45 4.1 50.25 2.4 47.0 4.1 46.15 4.3 Q45.55 4.3 45.05 3.95 L44.4 3.1 Q44.2 2.6 44.3 2.1 L44.9 -1.5 42.3 -4.05 41.75 -4.95 Q41.65 -5.45 41.8 -5.95 42.2 -7.1 43.35 -7.25 L46.95 -7.8 48.55 -11.05 49.25 -11.8 50.25 -12.1 Q51.4 -12.1 51.95 -11.05 L53.55 -7.8" fill="url(#gradient2)" fill-rule="evenodd" stroke="none"/>
    <path d="M53.95 -3.45 L53.55 -3.1 54.35 1.45 50.25 -0.7 46.15 1.45 46.9 -3.1 46.85 -3.15 53.95 -3.45" fill="#ffff9f" fill-rule="evenodd" stroke="none"/>
    <path d="M52.3 -7.0 L56.9 -6.35 53.95 -3.45 46.85 -3.15 43.6 -6.35 48.2 -7.0 48.5 -7.6 51.85 -7.9 52.3 -7.0" fill="#ffffff" fill-rule="evenodd" stroke="none"/>
    <path d="M48.5 -7.6 L50.25 -11.15 51.85 -7.9 48.5 -7.6" fill="#ffff9f" fill-rule="evenodd" stroke="none"/>
    <path d="M14.8 -0.75 L14.5 -0.9 14.7 -0.45 14.8 -0.5 14.8 -0.75 M0.4 -2.45 L0.4 -2.2 0.6 -1.9 0.6 -1.95 0.4 -2.45 M-16.05 -9.8 L-15.7 -9.8 Q-13.85 -9.8 -13.4 -7.9 -12.9 -9.1 -11.55 -9.25 L-7.9 -9.25 Q-7.25 -9.9 -6.15 -9.9 -5.0 -9.9 -4.35 -9.25 L-0.65 -9.25 Q0.55 -9.15 1.1 -8.1 L1.8 -8.9 2.0 -9.1 3.3 -9.45 4.6 -9.0 Q5.2 -9.65 6.05 -9.65 L6.2 -9.7 6.35 -9.65 7.35 -9.35 8.3 -9.65 8.5 -9.65 Q9.4 -9.6 10.0 -9.0 L11.15 -9.3 12.05 -9.2 12.15 -9.15 12.2 -9.1 Q13.25 -8.6 13.55 -7.55 14.05 -8.95 15.3 -9.1 L19.15 -9.1 20.15 -9.4 25.95 -9.4 Q27.0 -9.3 27.55 -8.35 L29.0 -8.8 31.6 -8.8 Q32.3 -9.85 33.65 -9.9 L33.85 -9.9 Q35.4 -9.85 36.0 -8.8 L38.15 -8.8 Q39.75 -8.8 40.65 -8.0 41.4 -7.25 41.45 -6.15 L41.0 -3.65 40.9 -3.4 Q41.25 -2.4 40.55 -1.4 L39.55 -0.1 40.75 1.0 Q41.5 1.7 41.5 2.65 41.5 3.6 40.75 4.4 40.05 5.15 39.0 5.15 38.2 5.15 37.6 4.7 L36.95 4.1 Q36.05 5.4 34.45 5.55 L34.3 5.55 31.55 5.15 31.45 5.15 31.35 5.1 30.55 4.6 29.8 4.9 28.8 5.05 Q28.0 5.05 27.35 4.55 26.55 5.3 25.35 5.3 L24.5 5.3 Q22.3 5.3 21.6 3.5 20.6 4.7 18.85 5.45 L18.5 5.55 18.05 5.55 Q16.6 5.55 15.9 4.1 L15.4 4.15 14.75 4.05 14.7 4.25 Q14.1 5.65 12.6 5.65 L12.1 5.6 12.0 5.6 Q11.05 5.35 9.55 4.5 9.05 5.7 7.5 5.9 L7.3 5.9 Q5.75 5.7 5.25 4.55 4.35 5.1 3.1 5.5 L2.25 5.6 Q0.7 5.6 0.1 4.25 L0.0 4.05 0.0 3.9 -0.05 3.45 -0.5 3.5 -0.9 3.5 Q-1.05 4.55 -1.8 5.15 -2.65 5.85 -3.8 5.85 -5.3 5.85 -6.55 5.3 L-6.75 5.2 -7.75 5.45 Q-8.55 5.45 -9.15 4.9 L-10.3 3.65 -10.45 3.5 -11.6 3.5 -11.7 3.45 -11.9 3.45 Q-12.65 5.7 -14.9 5.7 L-15.4 5.7 -17.8 5.35 -18.35 5.0 -19.3 5.45 -19.8 5.45 -20.8 5.3 Q-21.5 5.75 -22.35 5.75 L-23.35 5.6 -23.4 5.55 -23.45 5.55 -23.75 5.4 -24.4 5.5 Q-25.05 5.5 -25.65 5.1 L-26.5 4.3 Q-27.1 5.6 -28.65 5.7 L-28.7 5.7 -31.15 5.5 -31.35 5.4 -32.1 4.95 Q-32.8 4.9 -33.4 4.3 L-33.6 4.05 -33.85 4.1 Q-34.2 5.7 -36.0 5.9 L-36.25 5.9 Q-38.0 5.7 -38.45 4.15 -40.4 3.9 -40.4 1.85 -40.4 0.9 -39.9 0.3 L-40.05 -0.65 -40.05 -4.45 -39.85 -5.15 Q-40.25 -5.7 -40.25 -6.35 L-40.25 -6.65 Q-40.2 -7.6 -39.65 -8.15 -39.05 -8.75 -38.15 -8.85 L-38.1 -8.85 Q-37.55 -9.8 -36.25 -9.9 L-36.0 -9.9 Q-34.8 -9.8 -34.2 -8.95 L-33.45 -9.15 -32.0 -9.15 Q-31.45 -9.75 -30.5 -9.9 L-30.1 -9.9 Q-29.1 -9.85 -28.4 -9.15 L-26.85 -9.15 Q-25.5 -9.0 -24.95 -7.85 L-24.3 -8.6 -24.2 -8.7 -24.0 -8.75 -22.8 -9.1 -21.7 -9.3 -21.55 -9.3 -16.05 -9.8" fill="#a76100" fill-rule="evenodd" stroke="none"/>
    <path d="M14.7 -2.65 L14.45 -2.8 14.6 -2.35 14.7 -2.4 14.7 -2.65 M0.3 -4.35 L0.3 -4.1 0.5 -3.8 0.5 -3.85 0.3 -4.35 M-13.5 -9.8 Q-13.0 -11.0 -11.65 -11.15 L-8.0 -11.15 Q-7.35 -11.8 -6.2 -11.8 -5.1 -11.8 -4.45 -11.15 L-0.75 -11.15 Q0.45 -11.05 1.0 -10.0 L1.75 -10.8 1.9 -11.0 3.2 -11.35 Q3.9 -11.35 4.5 -10.9 5.1 -11.55 6.0 -11.55 L6.1 -11.6 6.25 -11.55 7.25 -11.25 8.2 -11.55 8.4 -11.55 Q9.3 -11.5 9.9 -10.9 L11.05 -11.2 11.95 -11.1 12.05 -11.05 12.1 -11.0 Q13.15 -10.5 13.45 -9.45 13.95 -10.85 15.2 -11.0 L19.05 -11.0 20.05 -11.3 25.85 -11.3 Q26.9 -11.2 27.45 -10.25 L28.9 -10.7 31.5 -10.7 Q32.2 -11.75 33.55 -11.8 L33.75 -11.8 Q35.3 -11.75 35.9 -10.7 L38.05 -10.7 Q39.65 -10.7 40.55 -9.9 41.3 -9.15 41.35 -8.05 41.45 -7.35 40.95 -5.55 L40.8 -5.3 Q41.15 -4.3 40.45 -3.3 L39.45 -2.0 40.65 -0.9 Q41.45 -0.2 41.45 0.75 41.45 1.7 40.65 2.5 39.95 3.25 38.9 3.25 38.1 3.25 37.5 2.8 L36.85 2.2 Q35.95 3.5 34.35 3.65 L34.2 3.65 31.45 3.25 31.4 3.25 31.25 3.2 30.45 2.7 29.7 3.0 28.75 3.15 Q27.9 3.15 27.25 2.65 26.45 3.4 25.25 3.4 L24.4 3.4 Q22.2 3.4 21.5 1.6 20.5 2.8 18.75 3.55 L18.4 3.65 17.95 3.65 Q16.5 3.65 15.8 2.2 L15.3 2.25 14.65 2.15 14.6 2.35 Q14.0 3.75 12.5 3.75 L12.0 3.7 11.9 3.7 Q10.95 3.45 9.45 2.6 8.95 3.8 7.4 4.0 L7.2 4.0 Q5.65 3.8 5.15 2.65 L3.0 3.6 2.15 3.7 Q0.6 3.7 0.0 2.35 L-0.1 2.15 -0.1 2.0 -0.15 1.55 -0.6 1.6 -1.0 1.6 Q-1.15 2.65 -1.9 3.25 -2.75 3.95 -3.9 3.95 L-6.65 3.4 -6.85 3.3 -7.8 3.55 Q-8.65 3.55 -9.25 3.0 L-10.4 1.75 -10.55 1.6 -11.7 1.6 -11.8 1.55 -12.0 1.55 Q-12.75 3.8 -15.0 3.8 L-15.5 3.8 -17.85 3.45 -18.45 3.1 -19.4 3.55 -19.9 3.55 -20.9 3.4 -22.45 3.85 -23.45 3.7 -23.5 3.65 -23.55 3.65 -23.85 3.5 -24.5 3.6 -25.75 3.2 -26.6 2.4 Q-27.2 3.7 -28.75 3.8 L-28.8 3.8 -31.25 3.6 -31.45 3.5 -32.15 3.05 Q-32.9 3.0 -33.5 2.4 L-33.7 2.15 -33.95 2.2 Q-34.25 3.8 -36.1 4.0 L-36.35 4.0 Q-38.1 3.8 -38.5 2.25 -40.5 2.0 -40.5 -0.05 -40.5 -1.0 -40.0 -1.6 L-40.1 -2.55 -40.1 -6.35 -39.95 -7.05 Q-40.35 -7.6 -40.35 -8.25 L-40.35 -8.55 Q-40.3 -9.5 -39.75 -10.05 -39.15 -10.65 -38.25 -10.75 L-38.2 -10.75 Q-37.65 -11.7 -36.35 -11.8 L-36.1 -11.8 Q-34.9 -11.7 -34.25 -10.85 L-33.55 -11.05 -32.1 -11.05 Q-31.55 -11.65 -30.55 -11.8 L-30.2 -11.8 Q-29.2 -11.75 -28.45 -11.05 L-26.95 -11.05 Q-25.6 -10.9 -25.05 -9.75 L-24.4 -10.5 -24.3 -10.6 -24.1 -10.65 -22.9 -11.0 -21.8 -11.2 -21.65 -11.2 -16.15 -11.7 -15.75 -11.7 Q-13.95 -11.7 -13.5 -9.8" fill="url(#gradient3)" fill-rule="evenodd" stroke="none"/>
    <path d="M-36.8 -9.15 L-36.8 -9.65 Q-36.8 -10.15 -36.15 -10.15 -35.55 -10.15 -35.45 -9.65 L-35.45 -9.15 -34.25 -9.15 -33.95 -9.0 Q-33.7 -9.4 -33.3 -9.4 L-30.95 -9.4 -30.95 -9.6 Q-30.95 -10.05 -30.25 -10.15 -29.55 -10.15 -29.5 -9.65 L-29.5 -9.4 -26.95 -9.4 Q-26.4 -9.4 -26.35 -8.7 -26.35 -8.05 -26.9 -8.0 L-29.5 -8.0 -29.5 -7.6 -27.8 -7.6 Q-26.75 -7.7 -26.85 -6.65 L-26.85 -4.9 Q-26.85 -4.2 -27.3 -4.1 L-26.4 -3.05 Q-26.15 -2.6 -26.45 -2.15 L-26.9 -2.0 Q-27.15 -2.0 -27.3 -2.15 L-27.65 -2.5 Q-27.75 -2.4 -27.9 -2.4 L-27.9 -1.75 -27.05 -1.75 Q-26.45 -1.75 -26.35 -1.05 -26.4 -0.4 -26.95 -0.3 L-27.9 -0.3 -27.9 1.15 Q-27.9 2.1 -28.8 2.15 L-30.75 2.0 Q-31.35 1.7 -31.05 1.05 -30.85 0.55 -30.15 0.75 -29.4 0.8 -29.4 0.5 L-29.4 -0.3 -31.7 -0.3 -31.15 0.45 -31.1 1.0 -31.4 1.3 -32.25 1.2 -33.0 0.3 -33.05 -0.3 -33.7 -0.3 -33.65 0.1 Q-33.7 0.6 -34.35 0.6 L-35.45 0.6 -35.45 1.75 Q-35.55 2.25 -36.15 2.35 -36.8 2.25 -36.8 1.75 L-36.8 0.6 -38.3 0.6 Q-38.8 0.55 -38.8 -0.05 -38.8 -0.65 -38.3 -0.75 L-36.8 -0.75 -36.8 -1.6 -37.7 -1.6 Q-38.4 -1.55 -38.4 -2.4 L-38.4 -6.35 Q-38.3 -7.15 -37.55 -7.15 L-36.8 -7.15 -36.8 -7.65 -38.0 -7.65 Q-38.6 -7.8 -38.6 -8.4 -38.6 -9.05 -38.0 -9.15 L-36.8 -9.15 M-35.45 -5.9 L-35.45 -5.0 -35.1 -5.0 -35.1 -5.9 -35.45 -5.9 M-34.75 -7.15 Q-34.05 -7.05 -33.95 -6.45 L-33.95 -2.4 Q-33.95 -1.55 -34.85 -1.55 L-35.45 -1.55 -35.45 -0.75 -34.2 -0.75 -34.2 -0.9 -34.25 -1.1 Q-34.25 -1.75 -33.5 -1.75 L-29.4 -1.75 -29.4 -2.3 -33.4 -2.1 Q-33.8 -2.15 -33.85 -2.65 -33.85 -3.2 -33.45 -3.3 L-30.95 -3.4 -30.95 -3.95 -32.8 -3.95 Q-33.7 -3.85 -33.65 -4.8 L-33.65 -6.8 Q-33.65 -7.6 -32.95 -7.6 L-30.95 -7.6 -30.95 -8.0 -33.25 -8.0 -33.8 -8.2 Q-33.85 -7.7 -34.25 -7.65 L-35.45 -7.65 -35.45 -7.15 -34.75 -7.15 M-37.25 -5.9 L-37.25 -5.0 -36.8 -5.0 -36.8 -5.9 -37.25 -5.9 M-35.45 -2.8 L-35.1 -2.8 -35.1 -3.75 -35.45 -3.75 -35.45 -2.8 M-36.8 -2.8 L-36.8 -3.75 -37.25 -3.75 -37.25 -2.8 -36.8 -2.8 M-2.25 -7.65 Q-1.3 -7.65 -1.25 -6.8 L-1.25 -4.15 Q-1.25 -3.85 -1.4 -3.65 L-0.35 -2.3 Q-0.15 -1.75 -0.4 -1.5 0.05 -1.35 0.1 -0.75 0.1 -0.05 -0.55 -0.05 L-2.5 -0.05 -2.5 1.0 Q-2.5 2.25 -3.85 2.25 L-6.05 1.85 Q-6.6 1.55 -6.45 0.95 -6.25 0.4 -5.6 0.55 L-4.15 0.8 -3.95 0.6 -3.95 -0.05 -7.85 -0.05 -7.1 0.8 Q-6.8 1.2 -7.2 1.6 L-8.1 1.7 -9.05 0.8 Q-9.35 0.25 -8.8 -0.05 L-11.55 -0.05 Q-12.25 -0.15 -12.3 -0.8 -12.25 -1.45 -11.6 -1.55 L-3.95 -1.55 -3.95 -2.0 -11.2 -1.9 Q-11.6 -1.9 -11.75 -2.55 -11.75 -3.1 -11.25 -3.2 L-6.85 -3.2 -6.85 -3.55 -9.9 -3.55 Q-10.95 -3.55 -10.95 -4.45 L-10.95 -6.65 Q-11.0 -7.7 -9.95 -7.65 L-6.85 -7.65 -6.85 -8.05 -11.4 -8.05 Q-12.0 -8.05 -12.0 -8.75 -12.0 -9.4 -11.4 -9.5 L-6.85 -9.5 -6.85 -9.7 Q-6.75 -10.15 -6.1 -10.15 -5.5 -10.15 -5.4 -9.7 L-5.4 -9.5 -0.85 -9.5 Q-0.25 -9.4 -0.25 -8.75 -0.25 -8.05 -0.85 -8.05 L-5.4 -8.05 -5.4 -7.65 -2.25 -7.65 M-6.85 -4.7 L-6.85 -5.15 -9.45 -5.15 -9.45 -4.7 -6.85 -4.7 M-6.85 -6.05 L-6.85 -6.5 -9.45 -6.5 -9.45 -6.05 -6.85 -6.05 M-2.75 -6.5 L-5.4 -6.5 -5.4 -6.05 -2.75 -6.05 -2.75 -6.5 M-2.75 -5.15 L-5.4 -5.15 -5.4 -4.7 -2.75 -4.7 -2.75 -5.15 M-5.4 -3.2 L-2.75 -3.2 -2.95 -3.55 -5.4 -3.55 -5.4 -3.2 M-2.5 -2.0 L-2.5 -1.55 -1.5 -1.55 -1.7 -1.7 -1.9 -2.0 -2.5 -2.0 M6.2 -9.95 Q6.85 -9.9 6.95 -9.2 L6.95 -7.6 7.65 -7.6 7.65 -9.2 Q7.75 -9.8 8.35 -9.9 9.1 -9.75 9.1 -9.2 L9.1 -7.6 9.75 -7.6 10.5 -9.15 Q10.85 -9.75 11.45 -9.5 12.05 -9.15 11.9 -8.6 L11.4 -7.6 12.9 -7.6 Q13.4 -7.6 13.45 -6.95 13.4 -6.35 12.9 -6.3 L10.4 -6.3 10.0 -5.55 12.1 -5.55 12.75 -5.0 Q12.65 -4.45 12.1 -4.4 L8.1 -4.4 8.1 -3.9 12.05 -3.9 Q12.5 -3.8 12.55 -3.35 12.5 -2.8 12.05 -2.75 L8.1 -2.75 8.1 -2.3 12.55 -2.3 Q13.1 -2.2 13.1 -1.7 13.1 -1.25 12.55 -1.15 L9.45 -1.15 Q10.1 -0.55 12.05 0.4 L12.95 0.8 Q13.45 1.1 13.15 1.6 12.9 2.2 12.4 2.1 10.7 1.6 8.1 -0.4 L8.1 1.6 Q8.1 2.2 7.35 2.35 6.65 2.25 6.6 1.6 L6.6 -0.4 Q4.35 1.55 2.6 2.0 1.85 2.25 1.55 1.6 1.4 0.95 2.2 0.8 L5.4 -1.15 2.2 -1.15 Q1.65 -1.2 1.65 -1.7 1.65 -2.25 2.2 -2.3 L6.6 -2.3 6.6 -2.75 2.7 -2.75 Q2.25 -2.8 2.2 -3.35 2.25 -3.8 2.7 -3.9 L6.6 -3.9 6.6 -4.4 2.45 -4.4 Q1.95 -4.5 1.95 -5.0 1.95 -5.45 2.45 -5.55 L4.45 -5.55 3.95 -6.3 1.9 -6.3 Q1.35 -6.4 1.35 -6.95 1.35 -7.6 1.9 -7.6 L3.15 -7.6 2.6 -8.55 Q2.3 -9.15 2.85 -9.55 3.45 -9.9 3.85 -9.4 L4.9 -7.6 5.5 -7.6 5.5 -9.2 Q5.5 -9.8 6.2 -9.95 M6.15 -5.55 L8.35 -5.55 8.75 -6.3 5.65 -6.3 6.15 -5.55 M-23.95 -8.35 L-23.35 -9.15 Q-22.65 -9.5 -22.35 -9.15 -22.2 -9.6 -21.6 -9.55 L-15.8 -10.05 Q-15.2 -10.1 -15.05 -9.4 -15.05 -8.7 -15.65 -8.55 L-15.7 -8.55 -18.6 -8.2 -18.45 -7.65 Q-18.25 -7.4 -18.6 -7.15 L-16.25 -7.15 Q-15.65 -7.1 -15.4 -6.85 L-15.1 -6.25 -15.1 -6.0 -15.2 -5.3 -14.55 -5.3 Q-14.15 -5.3 -14.05 -4.85 L-14.15 -3.55 Q-13.1 -3.55 -13.15 -2.75 L-13.35 -0.05 Q-13.5 2.15 -15.0 2.15 -17.7 2.25 -17.7 1.15 -17.7 0.75 -17.3 0.6 L-16.3 0.55 -15.6 0.6 Q-15.0 0.6 -14.85 0.25 L-14.75 0.05 -14.65 -1.55 -14.65 -2.1 -16.05 -2.1 Q-15.55 -2.05 -15.0 -0.9 -14.75 -0.4 -15.05 -0.1 L-16.1 -0.15 -16.85 -1.25 Q-17.05 -1.75 -16.7 -2.1 L-22.45 -2.1 -22.65 -1.1 -23.5 1.1 Q-24.05 2.25 -24.85 1.75 -25.45 1.5 -25.15 0.8 L-25.1 0.65 Q-23.75 -1.7 -23.75 -4.15 L-23.75 -5.85 Q-24.2 -5.15 -24.8 -5.4 -25.6 -5.9 -25.05 -6.65 L-24.05 -8.1 -23.95 -8.35 M-30.95 -6.6 L-32.25 -6.6 -32.25 -6.25 -30.95 -6.25 -30.95 -6.6 M-29.5 -6.25 L-28.35 -6.25 -28.35 -6.6 -29.5 -6.6 -29.5 -6.25 M-29.5 -5.0 L-28.35 -5.0 -28.35 -5.35 -29.5 -5.35 -29.5 -5.0 M-30.95 -5.35 L-32.25 -5.35 -32.25 -5.0 -30.95 -5.0 -30.95 -5.35 M-29.5 -3.45 L-28.5 -3.6 -28.75 -3.95 -29.5 -3.95 -29.5 -3.45 M-15.7 -8.25 L-14.75 -8.35 -13.1 -6.75 Q-12.8 -6.4 -13.2 -5.9 L-14.0 -5.8 -15.7 -7.4 Q-16.1 -7.8 -15.7 -8.25 M-22.15 -8.1 L-22.8 -7.15 -19.75 -7.15 -20.05 -8.0 -21.8 -8.0 -22.15 -8.1 M-22.2 -5.7 L-22.2 -5.3 -16.7 -5.3 -16.65 -5.75 -16.8 -5.85 -22.05 -5.85 -22.2 -5.7 M-20.9 -1.15 L-21.0 -0.3 Q-21.5 1.6 -21.85 2.05 L-22.7 2.15 -23.15 1.6 -22.7 0.25 -22.35 -1.0 Q-22.15 -1.9 -21.25 -1.6 L-20.9 -1.15 M-19.95 -1.7 Q-19.0 -1.75 -19.15 -0.95 L-19.1 1.1 Q-19.1 1.85 -19.65 1.9 -20.55 2.0 -20.5 1.15 L-20.55 -1.25 Q-20.55 -1.7 -19.95 -1.7 M-18.6 -1.8 L-17.95 -2.0 -17.6 -1.7 -16.85 -0.25 Q-16.7 0.15 -17.15 0.45 L-17.35 0.55 -18.05 0.35 -18.75 -1.0 Q-18.9 -1.55 -18.6 -1.8 M-22.35 -3.55 L-15.7 -3.55 -15.65 -3.95 -15.8 -4.1 -22.35 -4.1 -22.35 -3.55 M32.9 -9.55 Q33.0 -10.15 33.7 -10.15 34.65 -10.15 34.65 -9.6 L34.65 -9.05 37.95 -9.05 Q39.7 -9.05 39.8 -8.0 39.9 -7.4 39.45 -6.0 39.25 -5.35 38.5 -5.6 L38.45 -5.6 Q37.85 -5.8 37.85 -6.1 L38.05 -7.35 Q38.2 -7.65 37.8 -7.65 L29.8 -7.65 29.6 -7.5 29.6 -6.25 Q29.6 -5.55 28.9 -5.55 28.25 -5.55 28.15 -6.2 L28.15 -8.05 Q28.15 -9.05 29.05 -9.05 L32.9 -9.05 32.9 -9.55 M37.05 -5.75 L34.7 -5.75 Q35.4 -4.35 36.45 -2.95 37.75 -1.25 39.6 0.4 40.15 0.85 39.55 1.35 L38.55 1.5 36.15 -1.0 Q36.15 1.85 34.25 2.0 L32.0 1.65 Q31.4 1.5 31.5 0.9 31.75 0.3 32.2 0.35 L33.65 0.55 Q34.3 0.5 34.5 0.05 L34.6 -1.55 32.1 0.1 29.25 1.45 Q28.5 1.65 28.2 1.15 27.85 0.55 28.5 0.3 32.0 -1.1 34.35 -3.1 L34.15 -3.55 34.1 -3.45 Q31.7 -1.65 29.0 -0.75 28.35 -0.5 28.05 -1.15 27.9 -1.8 28.65 -2.05 31.45 -3.1 33.5 -4.65 L33.5 -4.7 33.2 -5.0 Q31.0 -3.8 29.75 -3.3 28.65 -2.75 28.45 -3.3 27.85 -4.1 28.8 -4.4 L28.95 -4.45 Q31.0 -5.3 31.55 -5.75 L30.45 -5.75 Q29.95 -5.75 29.85 -6.4 29.95 -7.0 30.45 -7.05 L37.0 -7.05 Q37.65 -6.95 37.7 -6.4 37.7 -5.75 37.05 -5.75 M36.95 -2.55 L36.6 -2.95 Q36.45 -3.25 36.7 -3.6 L37.95 -5.05 38.5 -5.4 39.0 -5.3 Q39.6 -4.85 39.15 -4.25 L37.95 -2.8 Q37.4 -2.25 36.95 -2.55 M19.45 -8.55 Q19.4 -7.85 18.95 -7.8 L17.95 -7.8 17.95 -5.8 18.95 -5.8 19.15 -5.75 Q19.2 -6.3 19.55 -6.3 L26.1 -6.3 Q26.6 -6.25 26.65 -5.5 26.7 -4.75 26.2 -4.65 L24.5 -4.65 24.5 -0.15 Q24.4 0.3 24.85 0.25 25.35 0.25 25.35 -0.4 L25.35 -1.9 Q25.35 -2.65 26.1 -2.65 26.7 -2.65 26.8 -1.9 L26.8 -0.5 Q26.8 1.85 25.25 1.7 L24.55 1.7 Q22.95 1.7 22.95 0.25 L22.95 -4.65 22.05 -4.65 Q21.9 0.5 18.2 2.0 17.6 2.1 17.35 1.45 17.2 0.75 17.75 0.5 19.0 -0.1 19.7 -1.15 20.55 -2.55 20.45 -4.65 L19.75 -4.65 Q19.4 -4.65 19.4 -4.75 19.4 -4.2 18.85 -4.2 L17.95 -4.2 17.95 -2.05 18.85 -2.55 Q19.45 -2.7 19.7 -2.2 19.95 -1.6 19.5 -1.25 19.0 -0.9 18.2 -0.5 L17.9 -0.4 16.0 0.45 Q15.15 0.8 14.95 0.3 14.45 -0.55 15.4 -0.9 L16.45 -1.35 16.45 -4.2 15.4 -4.2 Q14.95 -4.25 14.8 -5.0 14.95 -5.75 15.4 -5.8 L16.45 -5.8 16.45 -7.8 15.45 -7.8 Q15.05 -7.85 15.0 -8.55 15.1 -9.3 15.45 -9.3 L18.95 -9.3 Q19.3 -9.3 19.45 -8.7 L19.45 -8.55 M20.3 -9.65 L25.75 -9.65 Q26.25 -9.55 26.25 -8.85 26.2 -8.05 25.7 -8.0 L20.4 -8.0 Q19.85 -8.05 19.7 -8.75 19.7 -9.55 20.3 -9.65" fill="#ffffa0" fill-rule="evenodd" stroke="none"/>
    <path d="M-32.45 -4.95 L-31.1 -4.95 -31.1 -5.3 -32.45 -5.3 -32.45 -4.95 M-35.65 -3.7 L-35.65 -2.75 -35.2 -2.75 -35.2 -3.7 -35.65 -3.7 M-37.4 -3.7 L-37.4 -2.75 -36.95 -2.75 -36.95 -3.7 -37.4 -3.7 M-35.65 -5.85 L-35.65 -4.95 -35.2 -4.95 -35.2 -5.85 -35.65 -5.85 M-36.95 -4.95 L-36.95 -5.85 -37.4 -5.85 -37.4 -4.95 -36.95 -4.95 M-8.6 -1.5 L-12.2 -1.25 -11.8 -1.5 -8.6 -1.5 M-22.5 -4.05 L-22.5 -3.5 -15.85 -3.5 -15.8 -3.9 Q-15.75 -4.05 -16.0 -4.05 L-22.5 -4.05 M-20.65 -0.7 L-20.75 -1.2 Q-20.75 -1.65 -20.1 -1.65 -19.2 -1.7 -19.3 -0.9 L-19.25 -0.85 -20.65 -0.7 M-18.85 -0.85 L-18.9 -0.95 Q-19.05 -1.5 -18.75 -1.75 L-17.7 -1.65 -17.35 -0.95 -18.85 -0.85 M-22.6 -0.55 L-22.5 -0.95 Q-22.35 -1.85 -21.4 -1.55 -21.0 -1.4 -21.05 -0.65 L-22.6 -0.55 M-22.4 -5.55 L-22.4 -5.25 -16.8 -5.25 -16.8 -5.45 -15.25 -5.45 -15.3 -5.25 -14.7 -5.25 Q-14.2 -5.25 -14.2 -4.8 L-14.3 -3.5 Q-13.25 -3.5 -13.35 -2.7 L-13.4 -1.2 -14.8 -1.1 -14.8 -2.05 -16.15 -2.05 Q-15.75 -2.0 -15.25 -1.05 L-16.85 -1.0 -16.95 -1.2 Q-17.2 -1.7 -16.8 -2.05 L-22.6 -2.05 -23.0 -0.55 -24.7 -0.4 Q-23.95 -2.25 -23.95 -4.1 L-23.95 -5.65 -22.4 -5.55 M-28.45 -4.95 L-28.45 -5.3 -29.65 -5.3 -29.65 -4.95 -28.45 -4.95 M-28.9 -3.9 L-29.65 -3.9 -29.65 -3.4 -28.7 -3.55 -28.9 -3.9 M-25.0 -5.35 L-25.3 -5.7 -24.05 -5.65 Q-24.5 -5.1 -25.0 -5.35 M-27.0 -5.75 L-27.0 -4.85 Q-27.0 -4.15 -27.45 -4.05 L-26.6 -3.0 Q-26.25 -2.5 -26.65 -2.1 -27.0 -1.75 -27.45 -2.1 L-27.75 -2.45 -28.05 -2.35 -28.05 -1.7 -27.2 -1.7 Q-26.5 -1.7 -26.5 -1.0 -26.5 -0.4 -27.15 -0.25 L-28.05 -0.25 -28.05 -0.15 -29.55 -0.05 -29.55 -0.25 -31.8 -0.25 -31.55 0.1 -33.15 0.3 -33.2 -0.25 -33.85 -0.25 -33.8 0.15 -33.85 0.35 -37.55 0.65 -38.4 0.65 Q-38.95 0.6 -38.95 0.0 -38.95 -0.65 -38.4 -0.7 L-36.95 -0.7 -36.95 -1.55 -37.85 -1.55 Q-38.55 -1.45 -38.5 -2.35 L-38.5 -6.3 -34.1 -6.0 -34.1 -2.35 Q-34.1 -1.5 -35.05 -1.5 L-35.65 -1.5 -35.65 -0.7 -34.3 -0.7 -34.3 -0.85 -34.35 -1.05 Q-34.35 -1.7 -33.65 -1.7 L-29.55 -1.7 -29.55 -2.25 -33.5 -2.05 Q-34.0 -2.1 -34.05 -2.6 -34.05 -3.15 -33.55 -3.25 L-31.1 -3.35 -31.1 -3.9 -33.0 -3.9 Q-33.85 -3.8 -33.8 -4.75 L-33.8 -6.0 -27.0 -5.75 M39.1 -8.7 Q39.6 -8.45 39.6 -7.95 39.75 -7.35 39.3 -5.95 39.05 -5.3 38.3 -5.55 37.75 -5.75 37.75 -6.05 L37.85 -6.75 37.9 -7.3 Q38.0 -7.6 37.7 -7.6 L31.95 -7.6 39.1 -8.7 M1.8 -4.95 Q1.85 -5.4 2.3 -5.5 L4.3 -5.5 4.25 -5.55 5.9 -5.65 6.0 -5.5 8.2 -5.5 8.3 -5.75 10.05 -5.8 9.85 -5.5 12.0 -5.5 12.55 -4.95 Q12.5 -4.4 12.0 -4.35 L8.0 -4.35 8.0 -3.85 11.9 -3.85 Q12.4 -3.75 12.4 -3.3 12.4 -2.8 11.9 -2.7 L8.0 -2.7 8.0 -2.25 10.15 -2.25 1.5 -2.0 2.0 -2.25 6.45 -2.25 6.45 -2.7 2.5 -2.7 Q2.1 -2.8 2.1 -3.3 2.1 -3.75 2.5 -3.85 L6.45 -3.85 6.45 -4.35 2.3 -4.35 Q1.85 -4.4 1.8 -4.95 M-7.0 -3.15 L-7.0 -3.5 -10.05 -3.5 Q-11.05 -3.5 -11.05 -4.4 L-11.05 -5.4 -1.4 -5.45 -1.4 -4.1 -1.55 -3.6 -1.2 -3.2 -0.5 -2.25 -0.4 -1.85 -1.9 -1.8 -2.0 -1.95 -2.65 -1.95 -2.65 -1.75 -4.1 -1.7 -4.1 -1.95 -11.35 -1.85 Q-11.85 -1.85 -11.85 -2.5 -11.85 -3.1 -11.4 -3.15 L-7.0 -3.15 M-5.55 -3.5 L-5.55 -3.15 -2.85 -3.15 -3.1 -3.5 -5.55 -3.5 M-7.0 -4.65 L-7.0 -5.1 -9.65 -5.1 -9.65 -4.65 -7.0 -4.65 M-2.85 -4.65 L-2.85 -5.1 -5.55 -5.1 -5.55 -4.65 -2.85 -4.65 M36.85 -2.5 Q36.2 -2.9 36.55 -3.55 L37.85 -5.0 Q38.25 -5.55 38.85 -5.25 39.45 -4.8 39.0 -4.2 L37.85 -2.75 Q37.3 -2.2 36.85 -2.5 M27.95 -6.15 L27.95 -7.1 29.5 -7.35 29.5 -6.2 Q29.4 -5.5 28.75 -5.5 28.1 -5.5 27.95 -6.15 M28.8 -4.4 Q30.85 -5.25 31.4 -5.7 L30.35 -5.7 Q29.8 -5.7 29.7 -6.35 29.8 -6.9 30.35 -7.0 L36.9 -7.0 Q37.45 -6.9 37.5 -6.35 37.5 -5.7 36.95 -5.7 L34.55 -5.7 Q35.35 -3.95 37.05 -2.05 L33.15 -2.2 34.2 -3.05 34.0 -3.5 32.2 -2.25 29.3 -2.3 Q31.55 -3.2 33.35 -4.65 L33.05 -4.95 29.55 -3.25 Q28.45 -2.65 28.3 -3.25 27.7 -4.05 28.7 -4.35 L28.8 -4.4 M25.4 -2.35 L25.95 -2.6 26.5 -2.35 25.4 -2.35 M18.55 -2.35 L18.75 -2.5 19.35 -2.35 18.55 -2.35 M19.25 -4.7 Q19.25 -4.15 18.75 -4.15 L17.85 -4.15 17.85 -2.35 16.3 -2.35 16.3 -4.15 15.2 -4.15 Q14.8 -4.2 14.65 -4.95 14.8 -5.7 15.2 -5.75 L16.3 -5.75 16.3 -6.15 17.85 -6.25 17.85 -5.75 18.8 -5.75 18.95 -5.7 Q19.05 -6.25 19.45 -6.25 L25.95 -6.25 Q26.5 -6.15 26.5 -5.45 26.55 -4.7 26.05 -4.6 L24.35 -4.6 24.35 -2.35 22.85 -2.45 22.85 -4.6 21.9 -4.6 21.6 -2.45 20.15 -2.45 20.35 -4.6 19.65 -4.6 19.25 -4.7" fill="#ffffff" fill-rule="evenodd" stroke="none"/>
  </g>
  <defs>
    <linearGradient gradientTransform="matrix(0.0, 0.0233, 0.0233, 0.0, 0.95, -0.6)" gradientUnits="userSpaceOnUse" id="gradient0" spreadMethod="pad" x1="-819.2" x2="819.2">
      <stop offset="0.41568627450980394" stop-color="#e5ba6e"/>
      <stop offset="0.807843137254902" stop-color="#6e3b46"/>
      <stop offset="1.0" stop-color="#000000"/>
    </linearGradient>
    <linearGradient gradientTransform="matrix(0.0, 0.0091, 0.0091, 0.0, -49.5, -4.2)" gradientUnits="userSpaceOnUse" id="gradient1" spreadMethod="pad" x1="-819.2" x2="819.2">
      <stop offset="0.41568627450980394" stop-color="#e5ba6e"/>
      <stop offset="0.807843137254902" stop-color="#6e3b46"/>
      <stop offset="1.0" stop-color="#000000"/>
    </linearGradient>
    <linearGradient gradientTransform="matrix(0.0, 0.0091, 0.0091, 0.0, 50.25, -4.2)" gradientUnits="userSpaceOnUse" id="gradient2" spreadMethod="pad" x1="-819.2" x2="819.2">
      <stop offset="0.41568627450980394" stop-color="#e5ba6e"/>
      <stop offset="0.807843137254902" stop-color="#6e3b46"/>
      <stop offset="1.0" stop-color="#000000"/>
    </linearGradient>
    <linearGradient gradientTransform="matrix(0.0, 0.0093, -0.0096, 0.0, 0.45, -3.9)" gradientUnits="userSpaceOnUse" id="gradient3" spreadMethod="pad" x1="-819.2" x2="819.2">
      <stop offset="0.3058823529411765" stop-color="#dcb16a"/>
      <stop offset="0.7137254901960784" stop-color="#6d3e47"/>
      <stop offset="1.0" stop-color="#000000"/>
    </linearGradient>
  </defs>
</svg>
