<?xml version="1.0" encoding="UTF-8" standalone="no"?>
<svg xmlns:ffdec="https://www.free-decompiler.com/flash" xmlns:xlink="http://www.w3.org/1999/xlink" ffdec:objectType="shape" height="287.15px" width="287.2px" xmlns="http://www.w3.org/2000/svg">
  <g transform="matrix(1.0, 0.0, 0.0, 1.0, 143.05, 143.6)">
    <path d="M-83.5 113.35 Q-87.8 106.95 -85.45 102.85 -83.0 98.7 -75.4 99.2 -67.8 99.75 -59.35 104.6 -50.95 109.5 -46.7 115.8 -42.4 122.15 -44.85 126.25 -47.2 130.4 -54.8 129.9 -62.45 129.35 -70.85 124.5 -79.25 119.65 -83.5 113.35 M-123.6 72.15 Q-128.45 63.75 -128.95 56.1 -129.5 48.45 -125.35 46.1 -121.25 43.7 -114.85 47.95 -108.55 52.25 -103.65 60.65 -98.8 69.0 -98.3 76.65 -97.8 84.3 -101.95 86.65 -106.05 89.1 -112.4 84.8 -118.7 80.55 -123.6 72.15 M-54.25 95.45 Q-61.1 91.5 -64.35 85.9 -67.55 80.3 -65.25 76.25 -62.95 72.25 -56.45 72.25 -49.95 72.2 -43.15 76.15 -36.25 80.1 -33.0 85.75 -29.85 91.35 -32.15 95.35 -34.45 99.35 -40.95 99.35 -47.45 99.45 -54.25 95.45 M-71.45 57.45 Q-71.45 63.95 -75.5 66.25 -79.5 68.55 -85.1 65.35 -90.7 62.15 -94.65 55.25 -98.65 48.45 -98.6 41.95 -98.6 35.45 -94.55 33.15 -90.55 30.85 -84.95 34.05 -79.35 37.3 -75.35 44.1 -71.4 50.95 -71.45 57.45 M-65.8 38.45 Q-68.8 33.1 -68.25 27.75 -67.65 22.5 -63.8 20.25 -59.95 18.05 -55.0 20.15 -50.1 22.3 -47.05 27.6 -43.95 32.95 -44.55 38.25 -45.1 43.6 -49.0 45.8 -52.85 48.05 -57.8 45.85 -62.7 43.7 -65.8 38.45 M-37.55 45.25 Q-32.2 44.65 -26.85 47.75 -21.6 50.8 -19.4 55.7 -17.25 60.6 -19.5 64.45 -21.7 68.3 -27.0 68.9 -32.35 69.5 -37.65 66.45 -42.95 63.4 -45.1 58.45 -47.3 53.55 -45.05 49.65 -42.85 45.8 -37.55 45.25 M-72.95 -10.35 Q-69.8 -14.7 -65.3 -14.7 -60.85 -14.7 -57.65 -10.35 -54.5 -6.0 -54.5 0.1 -54.5 6.25 -57.65 10.55 -60.85 14.9 -65.3 14.9 -69.8 14.9 -72.95 10.55 -76.15 6.25 -76.15 0.1 -76.15 -6.0 -72.95 -10.35 M-44.75 -38.05 Q-44.15 -32.75 -47.2 -27.45 -50.25 -22.1 -55.2 -20.0 -60.1 -17.8 -64.0 -20.05 -67.9 -22.25 -68.45 -27.6 -69.0 -32.95 -65.9 -38.25 -62.9 -43.55 -57.95 -45.7 -53.1 -47.9 -49.2 -45.65 -45.3 -43.4 -44.75 -38.05 M-27.3 -68.8 Q-21.9 -68.25 -19.7 -64.4 -17.45 -60.5 -19.65 -55.6 -21.8 -50.65 -27.15 -47.65 -32.4 -44.55 -37.75 -45.15 -43.1 -45.7 -45.35 -49.6 -47.6 -53.55 -45.4 -58.35 -43.25 -63.3 -37.9 -66.35 -32.65 -69.35 -27.3 -68.8 M-32.65 -95.15 Q-30.3 -91.15 -33.55 -85.55 -36.75 -79.95 -43.65 -75.95 -50.5 -72.0 -56.95 -72.0 -63.45 -72.0 -65.75 -76.0 -68.05 -80.05 -64.85 -85.65 -61.6 -91.3 -54.8 -95.25 -47.9 -99.25 -41.45 -99.2 -34.95 -99.2 -32.65 -95.15 M-106.3 -13.25 Q-103.05 -18.9 -98.4 -18.9 -93.8 -18.9 -90.55 -13.25 -87.3 -7.65 -87.3 0.25 -87.3 8.2 -90.55 13.8 -93.8 19.35 -98.4 19.35 -103.05 19.35 -106.3 13.8 -109.6 8.2 -109.6 0.25 -109.6 -7.65 -106.3 -13.25 M-131.5 -23.05 Q-126.8 -23.05 -123.4 -16.2 -120.05 -9.3 -120.05 0.45 -120.05 10.1 -123.4 17.0 -126.8 23.85 -131.5 23.85 -136.3 23.85 -139.65 17.0 -143.05 10.1 -143.05 0.45 -143.05 -9.3 -139.65 -16.2 -136.3 -23.05 -131.5 -23.05 M-112.8 -84.1 Q-106.5 -88.35 -102.35 -86.0 -98.25 -83.6 -98.75 -76.0 -99.3 -68.4 -104.15 -59.95 -108.95 -51.55 -115.3 -47.25 -121.7 -42.95 -125.8 -45.4 -129.95 -47.8 -129.45 -55.4 -128.9 -63.05 -124.05 -71.45 -119.15 -79.85 -112.8 -84.1 M-95.0 -54.85 Q-91.05 -61.65 -85.4 -64.9 -79.75 -68.1 -75.75 -65.8 -71.75 -63.5 -71.75 -57.0 -71.7 -50.5 -75.65 -43.7 -79.6 -36.85 -85.25 -33.6 -90.9 -30.45 -94.9 -32.75 -98.9 -35.05 -98.9 -41.55 -98.95 -48.05 -95.0 -54.85 M-55.55 -129.55 Q-48.0 -130.05 -45.6 -125.9 -43.2 -121.8 -47.5 -115.45 -51.7 -109.1 -60.15 -104.25 -68.55 -99.4 -76.2 -98.85 -83.8 -98.35 -86.2 -102.5 -88.55 -106.6 -84.3 -113.0 -80.05 -119.3 -71.65 -124.15 -63.2 -129.0 -55.55 -129.55 M0.95 120.55 Q10.7 120.55 17.6 123.9 24.4 127.25 24.4 132.05 24.4 136.75 17.55 140.2 10.65 143.55 0.95 143.55 -8.7 143.55 -15.6 140.2 -22.45 136.75 -22.45 132.05 -22.45 127.25 -15.6 123.9 -8.7 120.55 0.95 120.55 M46.7 125.85 Q44.3 121.7 48.55 115.4 52.8 109.05 61.2 104.15 69.6 99.3 77.25 98.75 84.85 98.25 87.25 102.4 89.7 106.5 85.4 112.9 81.1 119.25 72.7 124.05 64.3 128.9 56.65 129.45 49.05 129.95 46.7 125.85 M33.75 95.1 Q31.45 91.05 34.65 85.45 37.9 79.8 44.7 75.9 51.55 71.95 58.0 71.95 64.5 71.95 66.8 75.95 69.1 79.95 65.95 85.55 62.7 91.25 55.85 95.2 49.05 99.15 42.55 99.1 36.05 99.1 33.75 95.1 M14.35 91.05 Q19.95 94.3 19.95 98.95 19.95 103.55 14.35 106.85 8.75 110.1 0.8 110.1 -7.05 110.1 -12.65 106.85 -18.3 103.55 -18.3 98.95 -18.3 94.3 -12.65 91.05 -7.05 87.75 0.8 87.75 8.75 87.75 14.35 91.05 M15.45 65.8 Q15.45 70.3 11.15 73.45 6.8 76.6 0.7 76.6 -5.45 76.6 -9.75 73.45 -14.1 70.3 -14.1 65.8 -14.1 61.3 -9.75 58.2 -5.45 55.0 0.7 55.0 6.8 55.0 11.15 58.2 15.45 61.3 15.45 65.8 M28.2 47.55 Q33.5 44.55 38.8 45.1 44.2 45.7 46.4 49.55 48.65 53.45 46.45 58.35 44.3 63.25 39.0 66.25 33.7 69.35 28.35 68.75 23.05 68.2 20.75 64.3 18.5 60.45 20.7 55.55 22.85 50.6 28.2 47.55 M45.8 38.0 Q45.25 32.65 48.25 27.4 51.3 22.05 56.25 19.9 61.15 17.7 65.05 19.95 68.95 22.2 69.5 27.5 70.05 32.8 66.95 38.15 63.95 43.5 59.05 45.65 54.15 47.85 50.25 45.6 46.4 43.35 45.8 38.0 M103.45 85.9 Q99.3 83.5 99.8 75.9 100.35 68.25 105.2 59.9 110.05 51.45 116.35 47.2 122.75 42.95 126.85 45.3 131.0 47.75 130.5 55.3 129.95 62.95 125.1 71.4 120.25 79.8 113.9 84.05 107.55 88.3 103.45 85.9 M95.95 32.65 Q99.95 34.95 99.95 41.45 100.05 47.95 96.05 54.75 92.1 61.6 86.45 64.85 80.85 68.0 76.8 65.7 72.8 63.4 72.8 56.9 72.8 50.5 76.7 43.6 80.65 36.8 86.35 33.55 91.95 30.35 95.95 32.65 M140.8 -17.05 Q144.15 -10.2 144.15 -0.5 144.15 9.25 140.8 16.1 137.35 23.0 132.6 23.0 127.85 23.0 124.45 16.1 121.1 9.25 121.1 -0.5 121.1 -10.2 124.45 -17.05 127.85 -23.95 132.6 -23.95 137.35 -23.95 140.8 -17.05 M99.5 -19.45 Q104.1 -19.45 107.4 -13.8 110.65 -8.25 110.65 -0.35 110.65 7.6 107.4 13.2 104.1 18.8 99.5 18.8 94.85 18.8 91.6 13.2 88.35 7.6 88.35 -0.35 88.35 -8.25 91.6 -13.8 94.85 -19.45 99.5 -19.45 M124.65 -72.25 Q129.5 -63.8 130.05 -56.15 130.55 -48.6 126.45 -46.15 122.3 -43.75 115.9 -48.05 109.6 -52.3 104.75 -60.75 99.9 -69.1 99.35 -76.75 98.85 -84.4 103.0 -86.75 107.1 -89.1 113.45 -84.9 119.85 -80.65 124.65 -72.25 M55.6 -0.2 Q55.6 -6.35 58.8 -10.65 61.9 -14.95 66.35 -14.95 70.9 -14.95 74.0 -10.65 77.2 -6.35 77.2 -0.2 77.2 5.95 74.0 10.25 70.9 14.6 66.35 14.6 61.9 14.6 58.8 10.25 55.6 5.95 55.6 -0.2 M66.85 -38.5 Q69.95 -33.2 69.35 -27.85 68.8 -22.5 64.9 -20.3 61.05 -18.05 56.15 -20.25 51.25 -22.4 48.15 -27.7 45.1 -33.0 45.65 -38.35 46.2 -43.65 50.1 -45.9 54.0 -48.1 58.9 -45.95 63.85 -43.8 66.85 -38.5 M7.5 -7.75 L8.05 -7.35 8.05 -7.25 8.5 -6.85 8.75 -6.55 9.5 -5.35 9.6 -5.3 10.45 -3.3 10.5 -3.25 10.6 -2.95 10.95 -1.2 10.95 -0.95 11.0 -0.55 11.0 0.5 10.95 0.85 10.95 1.1 10.75 2.1 10.75 2.15 10.5 3.2 9.65 5.1 9.5 5.25 9.35 5.6 8.75 6.5 8.5 6.75 6.75 8.4 6.55 8.5 4.95 9.45 4.7 9.5 4.0 9.85 3.7 9.9 2.85 10.15 2.75 10.15 2.05 10.25 1.85 10.35 1.7 10.35 1.45 10.4 -0.4 10.4 -2.0 10.1 -3.65 9.5 -3.7 9.5 -3.85 9.45 -5.65 8.4 -7.65 6.5 -8.45 5.25 -8.55 5.15 -8.55 5.1 -9.05 4.15 -9.55 2.85 -9.75 1.85 -9.75 1.7 -9.8 1.55 -9.85 1.1 -9.85 0.85 -9.9 0.5 -9.9 -0.55 -9.85 -0.95 -9.85 -1.2 -9.55 -2.95 -9.05 -4.25 -8.55 -5.2 -8.55 -5.3 -8.45 -5.35 -8.25 -5.7 -7.65 -6.55 -6.75 -7.55 -6.25 -8.0 -4.8 -9.05 -3.65 -9.65 -2.95 -9.85 -2.75 -9.95 -2.65 -9.95 -2.55 -10.0 -2.0 -10.2 -1.65 -10.25 -1.55 -10.3 -1.4 -10.3 -0.6 -10.4 -0.5 -10.45 0.4 -10.45 0.55 -10.5 0.65 -10.45 1.45 -10.45 2.75 -10.25 2.85 -10.25 4.0 -9.9 4.7 -9.6 4.8 -9.6 6.75 -8.5 7.0 -8.2 7.45 -7.9 7.5 -7.75 M18.55 -18.1 Q14.9 -17.5 11.7 -19.35 8.45 -21.15 7.15 -24.7 4.2 -22.35 0.55 -22.35 -3.15 -22.35 -6.05 -24.7 -7.4 -21.15 -10.65 -19.35 -13.8 -17.5 -17.5 -18.1 -16.9 -14.4 -18.75 -11.2 -20.65 -8.0 -24.1 -6.65 -21.75 -3.75 -21.75 -0.05 -21.75 3.65 -24.1 6.6 -20.65 7.9 -18.75 11.1 -16.9 14.35 -17.5 18.05 -13.8 17.4 -10.65 19.3 -7.4 21.05 -6.05 24.65 -3.15 22.25 0.55 22.25 4.2 22.25 7.15 24.65 8.45 21.05 11.7 19.3 14.9 17.4 18.55 18.05 17.95 14.35 19.85 11.1 21.7 7.9 25.15 6.6 22.8 3.65 22.8 -0.05 22.8 -3.75 25.15 -6.65 21.7 -8.0 19.85 -11.2 17.95 -14.4 18.55 -18.1 M22.15 -37.45 Q25.0 -35.8 26.4 -32.8 27.7 -29.9 27.2 -26.75 30.4 -27.25 33.3 -25.9 36.35 -24.5 37.95 -21.65 39.6 -18.75 39.3 -15.45 39.05 -12.3 37.0 -9.8 39.95 -8.65 41.85 -6.05 43.7 -3.35 43.7 -0.05 43.7 3.3 41.85 6.0 39.95 8.55 37.0 9.7 39.05 12.2 39.3 15.4 39.6 18.7 37.95 21.55 36.35 24.4 33.3 25.85 30.4 27.15 27.2 26.65 27.7 29.8 26.4 32.7 25.0 35.75 22.15 37.4 19.25 39.05 16.0 38.7 12.8 38.45 10.3 36.4 9.15 39.4 6.55 41.3 3.85 43.15 0.55 43.15 -2.75 43.15 -5.45 41.3 -8.05 39.4 -9.2 36.4 -11.7 38.45 -14.9 38.7 -18.15 39.05 -21.1 37.4 -23.95 35.75 -25.3 32.7 -26.65 29.8 -26.15 26.65 -29.35 27.15 -32.25 25.85 -35.2 24.4 -36.85 21.55 -38.5 18.7 -38.25 15.4 -37.95 12.2 -35.95 9.7 -38.9 8.55 -40.75 6.0 -42.65 3.3 -42.65 -0.05 -42.65 -3.35 -40.75 -6.05 -38.9 -8.65 -35.95 -9.8 -37.95 -12.3 -38.25 -15.45 -38.5 -18.75 -36.85 -21.65 -35.2 -24.5 -32.25 -25.9 -29.35 -27.25 -26.15 -26.75 -26.65 -29.9 -25.3 -32.8 -23.95 -35.8 -21.1 -37.45 -18.15 -39.1 -14.9 -38.8 -11.7 -38.5 -9.2 -36.5 -8.05 -39.5 -5.45 -41.3 -2.75 -43.25 0.55 -43.25 3.85 -43.25 6.55 -41.3 9.15 -39.5 10.3 -36.5 12.8 -38.5 16.0 -38.8 19.25 -39.1 22.15 -37.45 M10.8 -73.5 Q15.15 -70.35 15.15 -65.9 15.15 -61.4 10.8 -58.25 6.55 -55.1 0.35 -55.1 -5.75 -55.1 -10.05 -58.25 -14.35 -61.4 -14.35 -65.9 -14.35 -70.35 -10.05 -73.5 -5.75 -76.7 0.35 -76.7 6.55 -76.7 10.8 -73.5 M55.3 -95.55 Q62.2 -91.6 65.45 -86.0 68.6 -80.35 66.3 -76.35 64.0 -72.35 57.5 -72.35 51.0 -72.3 44.2 -76.25 37.35 -80.2 34.15 -85.8 30.9 -91.4 33.2 -95.45 35.5 -99.45 42.0 -99.45 48.5 -99.5 55.3 -95.55 M72.55 -57.55 Q72.55 -64.05 76.55 -66.35 80.55 -68.65 86.15 -65.4 91.8 -62.2 95.75 -55.35 99.7 -48.5 99.65 -42.05 99.65 -35.55 95.65 -33.25 91.6 -30.9 86.0 -34.1 80.4 -37.35 76.45 -44.25 72.45 -51.05 72.55 -57.55 M46.2 -58.55 Q48.4 -53.65 46.15 -49.75 43.85 -45.9 38.6 -45.35 33.25 -44.8 27.9 -47.8 22.65 -50.9 20.45 -55.75 18.3 -60.7 20.55 -64.55 22.8 -68.4 28.1 -69.0 33.4 -69.55 38.75 -66.5 44.05 -63.45 46.2 -58.55 M16.65 -124.0 Q9.85 -120.65 0.1 -120.65 -9.6 -120.65 -16.45 -124.0 -23.35 -127.35 -23.35 -132.1 -23.35 -136.85 -16.45 -140.25 -9.6 -143.6 0.1 -143.6 9.75 -143.6 16.65 -140.25 23.5 -136.85 23.5 -132.1 23.5 -127.35 16.65 -124.0 M0.25 -110.2 Q8.2 -110.2 13.8 -106.9 19.35 -103.65 19.35 -99.0 19.35 -94.4 13.8 -91.1 8.2 -87.85 0.25 -87.85 -7.65 -87.85 -13.25 -91.1 -18.9 -94.4 -18.9 -99.0 -18.9 -103.65 -13.25 -106.9 -7.65 -110.2 0.25 -110.2 M84.65 -113.4 Q88.9 -107.05 86.5 -102.9 84.1 -98.8 76.5 -99.3 68.85 -99.85 60.45 -104.7 52.0 -109.5 47.8 -115.9 43.55 -122.2 45.9 -126.35 48.25 -130.45 55.9 -130.0 63.55 -129.45 71.9 -124.6 80.35 -119.75 84.65 -113.4" fill="#ffffcc" fill-rule="evenodd" stroke="none"/>
  </g>
</svg>
