<?xml version="1.0" encoding="UTF-8" standalone="no"?>
<svg xmlns:ffdec="https://www.free-decompiler.com/flash" xmlns:xlink="http://www.w3.org/1999/xlink" ffdec:objectType="shape" height="79.1px" width="77.15px" xmlns="http://www.w3.org/2000/svg">
  <g transform="matrix(1.0, 0.0, 0.0, 1.0, 38.55, 39.55)">
    <path d="M30.2 -0.9 L30.2 -1.25 35.6 1.1 35.7 1.3 30.2 -0.9" fill="#e1bc91" fill-rule="evenodd" stroke="none"/>
    <path d="M30.2 -1.25 L30.2 -2.0 34.15 -0.05 35.6 1.1 30.2 -1.25" fill="#fad8bb" fill-rule="evenodd" stroke="none"/>
    <path d="M5.95 -27.1 Q-1.3 -25.05 -3.55 -22.35 -5.5 -20.0 -6.2 -15.6 L-6.55 -11.65 Q4.05 -11.65 14.8 -9.0 L15.1 -18.1 Q15.05 -24.45 13.8 -27.5 13.15 -29.15 5.95 -27.1 M-8.45 -9.95 L-7.95 -14.85 Q-7.05 -20.6 -4.95 -23.1 -2.5 -26.0 4.8 -28.25 11.95 -30.45 14.55 -29.4 15.55 -29.05 16.1 -25.95 16.9 -21.65 16.75 -12.1 L16.4 -0.9 Q16.35 2.0 18.2 3.7 19.85 5.15 22.3 5.25 24.5 5.35 26.1 4.3 27.8 3.15 27.9 1.25 28.25 -7.65 27.1 -18.5 25.5 -34.55 21.35 -37.1 19.6 -38.2 15.95 -37.95 9.65 -37.55 0.45 -33.5 -8.1 -29.75 -10.25 -27.1 -12.25 -24.6 -13.6 -16.75 L-14.55 -9.65 -22.4 -8.85 Q-31.35 -7.7 -34.8 -6.6 -36.25 -6.25 -36.85 -3.85 -37.35 -1.9 -37.1 0.7 -36.9 3.25 -36.1 5.3 -34.9 8.6 -32.95 8.6 L-21.55 7.8 Q-9.55 7.15 0.9 7.75 L3.65 7.95 Q13.55 8.65 23.2 10.7 L31.9 12.75 Q34.2 13.1 35.95 8.7 37.8 4.15 35.7 1.3 L35.6 1.1 34.15 -0.05 30.2 -2.0 30.2 -1.25 30.2 -0.9 Q29.95 2.8 28.6 4.4 27.15 6.05 22.9 6.5 19.3 6.85 16.75 4.7 14.2 2.5 14.4 -0.75 L14.6 -5.25 14.65 -6.15 14.75 -7.4 Q7.55 -9.2 0.55 -9.75 -3.7 -10.1 -8.45 -9.95 M14.9 -39.4 Q21.3 -40.15 24.45 -36.5 27.5 -31.25 29.05 -18.15 29.85 -11.4 30.15 -4.15 33.3 -2.65 36.95 0.35 39.4 2.4 38.25 7.3 37.15 11.65 34.45 14.5 L34.05 22.75 Q33.5 27.35 31.1 31.1 27.65 36.5 17.3 38.4 L1.2 39.55 Q-8.5 39.55 -14.1 38.4 -23.45 36.45 -26.85 31.0 -30.55 25.05 -33.7 11.0 -36.5 10.15 -37.95 3.95 -39.55 -2.7 -36.85 -7.0 -33.4 -9.05 -25.95 -10.3 L-15.85 -11.35 Q-14.1 -24.35 -11.55 -28.0 -9.5 -30.95 2.3 -35.65 10.3 -38.85 14.9 -39.4 M23.3 -2.4 Q24.1 -2.4 24.65 -1.65 25.2 -0.9 25.2 0.15 25.2 1.25 24.65 2.0 24.1 2.75 23.3 2.75 22.5 2.75 21.95 2.0 21.4 1.25 21.4 0.15 21.4 -0.9 21.95 -1.65 22.5 -2.4 23.3 -2.4 M2.1 10.25 Q-5.1 8.65 -14.6 8.95 L-31.3 10.15 Q-29.7 18.4 -27.6 24.1 -24.65 32.1 -21.1 33.55 -17.5 35.0 -12.05 36.0 L0.2 37.25 2.0 37.25 Q2.45 31.65 2.5 23.6 L2.5 22.6 2.5 22.1 2.1 10.25 M-1.05 19.0 Q-0.9 20.55 -2.2 23.45 -3.6 26.45 -5.75 28.85 -3.0 33.65 -1.7 35.15 -3.75 34.2 -6.7 29.8 -8.15 31.25 -9.7 32.0 L-7.25 28.95 Q-9.5 25.45 -11.35 21.6 L-15.8 27.25 -11.05 34.5 Q-13.5 33.25 -16.8 28.3 -19.4 31.0 -20.85 31.65 L-17.4 27.4 Q-19.85 23.7 -21.9 19.5 -23.9 21.75 -25.85 22.65 L-22.5 18.25 Q-25.4 12.1 -25.2 10.35 L-21.65 17.0 Q-19.25 13.5 -17.2 9.65 -17.05 11.05 -18.1 13.5 -19.2 16.0 -20.95 18.3 L-16.45 26.15 -12.0 20.25 Q-15.8 12.25 -15.55 10.0 L-11.05 18.9 -5.7 11.0 Q-5.5 12.9 -10.4 20.15 L-6.4 27.65 Q-3.5 23.65 -1.05 19.0" fill="#854b25" fill-rule="evenodd" stroke="none"/>
    <path d="M2.1 10.25 L2.5 22.1 2.5 22.6 2.5 23.6 Q2.45 31.65 2.0 37.25 L0.2 37.25 -12.05 36.0 Q-17.5 35.0 -21.1 33.55 -24.65 32.1 -27.6 24.1 -29.7 18.4 -31.3 10.15 L-14.6 8.95 Q-5.1 8.65 2.1 10.25 M-1.05 19.0 Q-3.5 23.65 -6.4 27.65 L-10.4 20.15 Q-5.5 12.9 -5.7 11.0 L-11.05 18.9 -15.55 10.0 Q-15.8 12.25 -12.0 20.25 L-16.45 26.15 -20.95 18.3 Q-19.2 16.0 -18.1 13.5 -17.05 11.05 -17.2 9.65 -19.25 13.5 -21.65 17.0 L-25.2 10.35 Q-25.4 12.1 -22.5 18.25 L-25.85 22.65 Q-23.9 21.75 -21.9 19.5 -19.85 23.7 -17.4 27.4 L-20.85 31.65 Q-19.4 31.0 -16.8 28.3 -13.5 33.25 -11.05 34.5 L-15.8 27.25 -11.35 21.6 Q-9.5 25.45 -7.25 28.95 L-9.7 32.0 Q-8.15 31.25 -6.7 29.8 -3.75 34.2 -1.7 35.15 -3.0 33.65 -5.75 28.85 -3.6 26.45 -2.2 23.45 -0.9 20.55 -1.05 19.0" fill="#bf6d37" fill-rule="evenodd" stroke="none"/>
    <path d="M16.1 -25.95 Q15.35 -33.15 14.2 -35.6 11.45 -36.1 3.25 -32.85 -5.25 -29.5 -9.6 -25.9 -11.1 -23.55 -13.25 -9.75 L-13.3 -9.45 -14.6 -9.4 -14.55 -9.65 -13.6 -16.75 Q-12.25 -24.6 -10.25 -27.1 -8.1 -29.75 0.45 -33.5 9.65 -37.55 15.95 -37.95 17.4 -34.35 18.25 -23.55 19.0 -14.65 18.9 -8.75 L18.25 -1.0 Q18.3 3.95 21.2 4.9 L22.3 5.25 Q19.85 5.15 18.2 3.7 16.35 2.0 16.4 -0.9 L16.75 -12.1 Q16.9 -21.65 16.1 -25.95 M14.65 -6.15 L14.6 -5.25 Q7.2 -6.85 5.05 -6.1 3.85 -5.65 3.2 -2.8 2.55 -0.05 2.75 3.3 L1.05 3.7 Q0.7 1.95 0.7 -0.4 0.75 -5.2 2.05 -6.4 -0.1 -5.9 -0.7 -0.7 -1.0 2.1 -0.55 4.0 L-3.45 4.5 -4.15 1.5 Q-4.6 -1.45 -3.8 -3.1 -6.25 -1.25 -4.9 4.7 L-12.1 5.45 Q-13.2 3.6 -13.1 -0.15 -13.0 -3.4 -12.3 -5.75 -13.7 -4.9 -14.15 -0.4 -14.55 3.45 -13.4 5.55 L-16.45 5.7 -28.65 5.65 Q-29.35 4.0 -29.6 1.6 -29.9 -1.6 -29.3 -3.6 -30.65 -2.75 -30.65 1.35 -30.65 3.85 -30.0 5.6 L-32.35 5.5 Q-32.9 4.2 -33.25 2.2 -33.75 -0.85 -33.45 -1.9 -34.3 -0.65 -34.0 2.4 L-33.4 5.45 -36.1 5.3 Q-36.9 3.25 -37.1 0.7 -37.35 -1.9 -36.85 -3.85 -18.35 -9.55 0.0 -8.3 7.4 -7.8 14.65 -6.15" fill="#eec180" fill-rule="evenodd" stroke="none"/>
    <path d="M-13.3 -9.45 L-8.45 -9.6 -8.45 -9.95 Q-3.7 -10.1 0.55 -9.75 7.55 -9.2 14.75 -7.4 L14.65 -6.15 Q7.4 -7.8 0.0 -8.3 -18.35 -9.55 -36.85 -3.85 -36.25 -6.25 -34.8 -6.6 -31.35 -7.7 -22.4 -8.85 L-14.55 -9.65 -14.6 -9.4 -13.3 -9.45" fill="#faedda" fill-rule="evenodd" stroke="none"/>
    <path d="M16.1 -25.95 Q15.55 -29.05 14.55 -29.4 11.95 -30.45 4.8 -28.25 -2.5 -26.0 -4.95 -23.1 -7.05 -20.6 -7.95 -14.85 L-8.45 -9.95 -8.45 -9.6 -13.3 -9.45 -13.25 -9.75 Q-11.1 -23.55 -9.6 -25.9 -5.25 -29.5 3.25 -32.85 11.45 -36.1 14.2 -35.6 15.35 -33.15 16.1 -25.95 M14.6 -5.25 L14.4 -0.75 Q14.2 2.5 16.75 4.7 19.3 6.85 22.9 6.5 27.15 6.05 28.6 4.4 29.95 2.8 30.2 -0.9 L35.7 1.3 Q37.8 4.15 35.95 8.7 34.2 13.1 31.9 12.75 L23.2 10.7 Q13.55 8.65 3.65 7.95 L0.9 7.75 Q-9.55 7.15 -21.55 7.8 L-32.95 8.6 Q-34.9 8.6 -36.1 5.3 L-33.4 5.45 -34.0 2.4 Q-34.3 -0.65 -33.45 -1.9 -33.75 -0.85 -33.25 2.2 -32.9 4.2 -32.35 5.5 L-30.0 5.6 Q-30.65 3.85 -30.65 1.35 -30.65 -2.75 -29.3 -3.6 -29.9 -1.6 -29.6 1.6 -29.35 4.0 -28.65 5.65 L-16.45 5.7 -13.4 5.55 Q-14.55 3.45 -14.15 -0.4 -13.7 -4.9 -12.3 -5.75 -13.0 -3.4 -13.1 -0.15 -13.2 3.6 -12.1 5.45 L-4.9 4.7 Q-6.25 -1.25 -3.8 -3.1 -4.6 -1.45 -4.15 1.5 L-3.45 4.5 -0.55 4.0 Q-1.0 2.1 -0.7 -0.7 -0.1 -5.9 2.05 -6.4 0.75 -5.2 0.7 -0.4 0.7 1.95 1.05 3.7 L2.75 3.3 Q2.55 -0.05 3.2 -2.8 3.85 -5.65 5.05 -6.1 7.2 -6.85 14.6 -5.25 M15.95 -37.95 Q19.6 -38.2 21.35 -37.1 25.5 -34.55 27.1 -18.5 28.25 -7.65 27.9 1.25 27.8 3.15 26.1 4.3 24.5 5.35 22.3 5.25 L21.2 4.9 Q18.3 3.95 18.25 -1.0 L18.9 -8.75 Q19.0 -14.65 18.25 -23.55 17.4 -34.35 15.95 -37.95 M23.3 -2.4 Q22.5 -2.4 21.95 -1.65 21.4 -0.9 21.4 0.15 21.4 1.25 21.95 2.0 22.5 2.75 23.3 2.75 24.1 2.75 24.65 2.0 25.2 1.25 25.2 0.15 25.2 -0.9 24.65 -1.65 24.1 -2.4 23.3 -2.4" fill="#bf8837" fill-rule="evenodd" stroke="none"/>
  </g>
</svg>
