<?xml version="1.0" encoding="UTF-8" standalone="no"?>
<svg xmlns:ffdec="https://www.free-decompiler.com/flash" xmlns:xlink="http://www.w3.org/1999/xlink" ffdec:objectType="shape" height="82.65px" width="61.0px" xmlns="http://www.w3.org/2000/svg">
  <g transform="matrix(1.0, 0.0, 0.0, 1.0, 30.0, 41.35)">
    <path d="M29.25 -34.9 Q30.2 -33.8 30.7 -31.7 31.2 -29.7 30.9 -28.15 28.7 -17.15 19.5 34.1 18.9 37.15 17.1 39.25 15.1 41.6 12.6 41.25 1.3 40.25 -8.3 38.4 -27.1 34.8 -29.55 28.9 -29.05 22.9 -21.7 -8.8 L-14.4 -39.3 5.9 -40.15 Q15.5 -40.7 21.5 -40.55 23.3 -40.15 25.7 -38.3 27.7 -36.75 29.25 -34.9" fill="#181919" fill-rule="evenodd" stroke="none"/>
    <path d="M-26.7 27.45 L-13.7 -37.45 19.55 -37.6 6.9 33.3 -26.7 27.45" fill="#212323" fill-rule="evenodd" stroke="none"/>
    <path d="M8.9 12.0 L-20.85 7.95 -12.4 -35.3 17.9 -35.5 8.9 12.0" fill="#79cbb9" fill-rule="evenodd" stroke="none"/>
    <path d="M-17.7 8.4 L-20.85 7.95 -19.7 2.25 -3.1 -16.55 -17.7 8.4" fill="#afe4c0" fill-rule="evenodd" stroke="none"/>
    <path d="M-17.25 -10.4 L-3.1 -16.55 -18.0 -6.5 -17.25 -10.4" fill="#afe4c0" fill-rule="evenodd" stroke="none"/>
    <path d="M-3.35 10.3 L-9.35 9.5 -3.1 -16.55 -3.35 10.3" fill="#afe4c0" fill-rule="evenodd" stroke="none"/>
    <path d="M10.4 4.3 L8.95 11.9 6.4 11.6 -3.1 -16.55 10.4 4.3" fill="#afe4c0" fill-rule="evenodd" stroke="none"/>
    <path d="M13.05 -9.8 L12.15 -5.1 -3.1 -16.55 13.05 -9.8" fill="#afe4c0" fill-rule="evenodd" stroke="none"/>
    <path d="M7.35 -35.4 L12.55 -35.45 -3.1 -16.55 7.35 -35.4" fill="#afe4c0" fill-rule="evenodd" stroke="none"/>
    <path d="M17.05 -30.9 L15.95 -25.25 -3.1 -16.55 17.05 -30.9" fill="#afe4c0" fill-rule="evenodd" stroke="none"/>
    <path d="M-15.9 -17.35 L-3.1 -16.55 -16.45 -14.65 -15.9 -17.35" fill="#afe4c0" fill-rule="evenodd" stroke="none"/>
    <path d="M1.3 -35.4 L-3.1 -16.55 -2.85 -35.35 1.3 -35.4" fill="#afe4c0" fill-rule="evenodd" stroke="none"/>
    <path d="M-9.35 -35.3 L-3.1 -16.55 -13.1 -31.8 -12.4 -35.3 -9.35 -35.3" fill="#afe4c0" fill-rule="evenodd" stroke="none"/>
    <path d="M-14.45 -24.8 L-3.1 -16.55 -15.1 -21.35 -14.45 -24.8" fill="#afe4c0" fill-rule="evenodd" stroke="none"/>
    <path d="M14.85 -19.2 L14.1 -15.35 -3.1 -16.55 14.85 -19.2" fill="#afe4c0" fill-rule="evenodd" stroke="none"/>
    <path d="M-14.75 -23.3 L-12.3 -35.2 10.1 -35.35 Q-1.35 -33.1 -6.9 -30.1 -10.85 -28.0 -14.75 -23.3" fill="#ffffff" fill-rule="evenodd" stroke="none"/>
    <path d="M8.0 -13.0 Q9.1 -12.0 8.9 -10.0 8.7 -8.4 7.75 -7.6 L7.6 -7.45 7.6 -7.3 Q7.6 -6.4 6.5 -5.3 L5.35 -4.25 Q4.45 -3.7 2.9 -3.9 L-2.0 -4.4 -4.95 -4.75 -5.3 -5.05 -5.8 -4.85 -8.0 -4.9 -10.9 -5.45 Q-12.4 -5.6 -13.1 -6.3 L-13.9 -7.5 Q-14.55 -8.8 -14.3 -9.6 L-14.25 -9.7 -14.35 -9.9 Q-15.0 -10.85 -14.7 -12.3 -14.3 -14.3 -12.95 -14.95 L-13.05 -15.75 Q-13.1 -16.35 -12.8 -16.8 L-11.3 -18.7 Q-9.95 -20.2 -9.1 -20.15 L-9.0 -20.1 Q-8.1 -22.15 -5.6 -22.7 L-4.65 -22.75 Q-3.3 -22.65 -2.7 -21.45 -2.3 -21.9 -1.3 -22.25 L0.3 -22.45 1.25 -22.25 Q4.35 -21.05 4.55 -19.0 L4.7 -19.0 Q6.1 -18.9 7.45 -16.3 L8.1 -14.8 Q8.4 -13.75 8.0 -13.0" fill="#03a89c" fill-rule="evenodd" stroke="none"/>
    <path d="M3.4 -18.7 L3.05 -17.95 2.45 -17.4 Q2.1 -17.1 2.15 -16.65 2.25 -16.2 2.7 -16.25 L3.35 -16.85 3.95 -17.55 Q5.0 -18.3 6.45 -15.5 7.35 -13.75 6.7 -13.25 6.45 -13.0 5.9 -12.9 L5.05 -12.8 Q4.65 -12.7 4.5 -12.4 4.3 -12.1 4.6 -11.75 L5.6 -11.7 6.7 -12.1 Q7.95 -12.25 7.7 -10.05 7.4 -7.9 5.95 -8.45 L5.25 -8.7 Q4.8 -8.7 4.75 -8.1 4.7 -7.7 5.3 -7.6 L6.25 -7.5 Q6.65 -7.3 5.85 -6.4 L4.8 -5.4 3.55 -5.1 2.3 -5.25 -4.3 -5.9 Q-4.55 -6.05 -4.45 -7.5 -4.3 -8.8 -4.7 -8.85 -5.1 -8.9 -5.45 -7.55 -5.75 -6.15 -6.1 -6.1 L-7.55 -6.25 -9.9 -6.6 -11.15 -6.7 Q-11.85 -6.9 -12.25 -7.25 L-12.9 -8.4 Q-13.35 -9.4 -12.95 -9.5 L-12.05 -9.4 Q-11.45 -9.35 -11.3 -9.8 -11.2 -10.35 -11.65 -10.4 L-12.4 -10.3 Q-13.9 -10.1 -13.5 -12.15 -13.15 -14.25 -12.0 -13.9 L-11.1 -13.3 -10.05 -13.2 Q-9.65 -13.45 -9.75 -13.8 L-10.2 -14.25 -11.1 -14.55 -11.95 -15.1 Q-12.3 -15.65 -10.85 -17.45 -9.4 -19.25 -8.8 -18.65 L-8.45 -17.85 -7.95 -17.2 Q-7.55 -17.05 -7.35 -17.5 -7.15 -17.9 -7.4 -18.3 L-7.85 -18.9 -7.9 -19.7 Q-7.5 -21.0 -5.5 -21.4 -4.15 -21.7 -3.75 -20.7 -3.5 -20.05 -3.75 -17.75 -3.95 -15.8 -3.6 -15.75 -3.25 -15.7 -2.85 -17.7 -2.4 -19.9 -1.95 -20.55 -1.6 -21.05 -0.65 -21.1 L0.75 -21.0 Q3.35 -20.05 3.4 -18.7" fill="#93dba2" fill-rule="evenodd" stroke="none"/>
    <path d="M-4.15 21.35 Q-6.3 21.75 -9.05 21.4 -11.9 21.0 -13.75 19.95 -15.7 18.9 -15.05 15.25 -14.4 11.6 -12.25 11.45 L-7.05 11.6 Q-3.9 11.95 -2.55 12.7 -0.85 13.6 -1.5 17.3 -2.1 20.95 -4.15 21.35" fill="#b8bcb3" fill-rule="evenodd" stroke="none"/>
    <path d="M-17.5 18.7 L-20.35 19.0 Q-22.45 18.8 -23.35 17.8 -24.3 16.75 -23.75 14.4 -23.3 12.1 -22.3 11.5 -21.2 10.9 -19.35 11.1 -17.4 11.25 -16.45 12.3 -15.6 13.2 -16.0 15.6 -16.35 18.0 -17.5 18.7" fill="#585e60" fill-rule="evenodd" stroke="none"/>
    <path d="M-10.4 14.6 Q-9.75 14.25 -7.4 14.6 L-5.15 15.05 Q-9.7 17.5 -10.6 17.5 -11.3 17.5 -11.15 16.3 -11.1 15.05 -10.4 14.6" fill="#7f827a" fill-rule="evenodd" stroke="none"/>
    <path d="M-9.5 11.95 Q-6.65 12.0 -7.05 13.1 -7.45 14.25 -9.25 14.0 -10.75 13.8 -10.75 12.9 -10.75 11.9 -9.5 11.95" fill="#ffffff" fill-rule="evenodd" stroke="none"/>
    <path d="M-13.05 14.1 Q-11.7 14.3 -12.1 15.0 -12.5 15.7 -13.6 15.5 -14.55 15.35 -14.3 14.7 -13.95 13.95 -13.05 14.1" fill="#ffffff" fill-rule="evenodd" stroke="none"/>
    <path d="M-9.45 18.45 Q-6.45 19.0 -7.05 19.9 L-10.65 20.1 Q-12.6 19.7 -12.15 18.85 -11.75 17.95 -9.45 18.45" fill="#ffffff" fill-rule="evenodd" stroke="none"/>
    <path d="M-3.0 14.7 Q-1.5 15.05 -2.1 16.0 -2.6 16.9 -3.8 16.65 -4.85 16.35 -4.4 15.45 -3.95 14.5 -3.0 14.7" fill="#ffffff" fill-rule="evenodd" stroke="none"/>
    <path d="M0.9 14.65 Q2.25 14.0 4.5 14.3 7.0 14.5 8.2 15.7 9.2 16.7 8.75 19.2 8.3 21.7 6.9 22.4 L3.45 22.7 Q0.9 22.35 -0.3 21.25 -1.45 20.1 -0.9 17.65 -0.35 15.25 0.9 14.65" fill="#585e60" fill-rule="evenodd" stroke="none"/>
    <path d="M-21.1 21.2 Q-18.85 21.45 -18.85 22.3 -18.9 23.1 -21.85 22.75 -23.6 22.5 -23.2 21.75 -22.8 21.0 -21.1 21.2" fill="#585e60" fill-rule="evenodd" stroke="none"/>
    <path d="M-10.4 22.9 Q-8.1 23.15 -8.15 24.05 -8.2 24.9 -11.1 24.5 -12.9 24.3 -12.5 23.5 -12.1 22.7 -10.4 22.9" fill="#585e60" fill-rule="evenodd" stroke="none"/>
    <path d="M-0.1 26.3 Q-2.2 26.05 -1.75 25.25 -1.3 24.5 0.7 24.7 3.35 25.0 3.35 25.9 3.3 26.75 -0.1 26.3" fill="#585e60" fill-rule="evenodd" stroke="none"/>
    <path d="M-0.9 30.5 Q-2.9 30.2 -2.5 29.4 -2.1 28.65 -0.05 28.9 2.6 29.25 2.6 30.1 2.55 31.0 -0.9 30.5" fill="#585e60" fill-rule="evenodd" stroke="none"/>
    <path d="M-10.95 26.9 Q-8.7 27.15 -8.75 28.0 -8.8 28.85 -11.7 28.45 -13.5 28.2 -13.1 27.45 -12.7 26.7 -10.95 26.9" fill="#585e60" fill-rule="evenodd" stroke="none"/>
    <path d="M-21.5 25.1 Q-19.2 25.4 -19.25 26.25 -19.3 27.1 -22.2 26.7 -23.95 26.4 -23.55 25.7 -23.2 24.9 -21.5 25.1" fill="#585e60" fill-rule="evenodd" stroke="none"/>
    <path d="M19.55 -37.6 L-13.7 -37.45 -27.3 27.35 6.9 33.3 19.55 -37.6 M4.45 -41.15 Q16.8 -41.5 19.6 -41.3 22.8 -40.95 23.55 -39.0 24.1 -37.65 23.5 -34.45 L10.6 31.75 Q10.05 34.75 8.9 35.85 7.55 37.15 4.5 36.65 L-27.45 30.9 Q-28.95 30.65 -29.6 29.3 -30.25 27.9 -29.9 25.75 -29.35 22.1 -23.45 -6.5 L-17.4 -35.9 Q-17.0 -38.15 -15.1 -39.5 -13.25 -40.75 -10.5 -40.75 L4.45 -41.15" fill="#3d3e3f" fill-rule="evenodd" stroke="none"/>
    <path d="M17.05 -21.65 L19.65 -38.1 -13.9 -37.95 -21.5 -2.85 -24.45 -0.5 -16.7 -35.75 Q-16.25 -37.75 -15.35 -38.65 -14.25 -39.8 -11.7 -39.95 L4.3 -40.5 18.7 -40.75 Q23.7 -40.3 23.0 -36.35 L20.75 -23.8 17.05 -21.65" fill="#818182" fill-rule="evenodd" stroke="none"/>
  </g>
</svg>
