<?xml version="1.0" encoding="UTF-8" standalone="no"?>
<svg xmlns:ffdec="https://www.free-decompiler.com/flash" xmlns:xlink="http://www.w3.org/1999/xlink" ffdec:objectType="shape" height="38.35px" width="195.25px" xmlns="http://www.w3.org/2000/svg">
  <g transform="matrix(1.0, 0.0, 0.0, 1.0, 97.6, 19.2)">
    <path d="M-77.4 -14.45 L-76.95 -15.85 Q-76.3 -16.65 -37.4 -16.9 L6.75 -17.05 51.35 -16.9 Q90.75 -16.65 91.55 -15.85 92.8 -14.6 93.2 -2.9 93.3 0.25 92.7 5.65 92.05 10.85 91.55 11.9 90.95 13.15 6.75 13.0 L-36.75 12.95 Q-75.5 12.85 -76.55 12.35 -77.05 12.1 -77.4 11.05 L-74.95 10.25 Q-72.05 9.0 -70.25 6.6 -67.65 3.05 -67.65 -1.65 -67.65 -6.75 -70.5 -10.25 -73.15 -13.45 -77.4 -14.45" fill="#4c4948" fill-rule="evenodd" stroke="none"/>
    <path d="M-77.4 11.05 Q-77.05 12.1 -76.55 12.35 -75.5 12.85 -36.75 12.95 L6.75 13.0 Q90.95 13.15 91.55 11.9 92.05 10.85 92.7 5.65 93.3 0.25 93.2 -2.9 92.8 -14.6 91.55 -15.85 90.75 -16.65 51.35 -16.9 L6.75 -17.05 -37.4 -16.9 Q-76.3 -16.65 -76.95 -15.85 L-77.4 -14.45 -80.15 -14.9 Q-83.15 -15.05 -86.0 -14.0 -89.4 -12.8 -91.3 -10.25 -94.0 -6.6 -94.0 -1.65 -94.0 3.6 -91.15 6.95 -87.5 11.4 -80.85 11.4 L-77.4 11.05 M6.85 -19.2 L53.75 -18.95 95.7 -17.65 Q96.7 -16.65 97.25 -11.55 97.75 -6.8 97.6 -0.85 L96.85 10.5 Q96.25 16.65 95.7 17.75 95.0 19.2 6.85 19.15 L-39.0 19.0 Q-79.5 18.85 -80.7 18.25 -81.35 17.9 -81.85 16.15 -89.6 15.75 -93.95 10.45 -97.6 6.0 -97.6 -0.6 -97.6 -7.05 -94.1 -11.7 -91.7 -14.95 -87.35 -16.55 -84.2 -17.75 -80.95 -17.75 -78.4 -18.55 -39.75 -18.95 L6.85 -19.2" fill="#383332" fill-rule="evenodd" stroke="none"/>
    <path d="M-77.4 -14.45 Q-73.15 -13.45 -70.5 -10.25 -67.65 -6.75 -67.65 -1.65 -67.65 3.05 -70.25 6.6 -72.05 9.0 -74.95 10.25 L-77.4 11.05 -80.85 11.4 Q-87.5 11.4 -91.15 6.95 -94.0 3.6 -94.0 -1.65 -94.0 -6.6 -91.3 -10.25 -89.4 -12.8 -86.0 -14.0 -83.15 -15.05 -80.15 -14.9 L-77.4 -14.45 M-88.0 -10.05 Q-91.0 -7.25 -91.0 -3.05 -91.0 1.8 -87.9 4.3 -85.1 6.6 -81.05 6.6 -76.95 6.6 -74.15 4.3 -71.15 1.8 -71.15 -3.05 -71.15 -7.7 -74.25 -10.25 -77.1 -12.65 -81.05 -12.65 -85.25 -12.65 -88.0 -10.05" fill="#bd7300" fill-rule="evenodd" stroke="none"/>
    <path d="M-88.0 -10.05 Q-85.25 -12.65 -81.05 -12.65 -77.1 -12.65 -74.25 -10.25 -71.15 -7.7 -71.15 -3.05 -71.15 1.8 -74.15 4.3 -76.95 6.6 -81.05 6.6 -85.1 6.6 -87.9 4.3 -91.0 1.8 -91.0 -3.05 -91.0 -7.25 -88.0 -10.05" fill="#f7ae00" fill-rule="evenodd" stroke="none"/>
  </g>
</svg>
