<?xml version="1.0" encoding="UTF-8" standalone="no"?>
<svg xmlns:ffdec="https://www.free-decompiler.com/flash" xmlns:xlink="http://www.w3.org/1999/xlink" ffdec:objectType="shape" height="21.95px" width="23.95px" xmlns="http://www.w3.org/2000/svg">
  <g transform="matrix(1.0, 0.0, 0.0, 1.0, 12.05, 11.05)">
    <path d="M9.85 -8.65 L5.15 -9.35 -2.6 -9.7 -9.6 -9.15 -10.0 -6.1 -10.2 -0.85 -9.9 4.85 Q-9.6 6.95 -9.3 7.5 L-4.65 8.2 3.1 8.55 8.0 8.25 8.85 5.6 Q9.35 3.35 9.65 -0.2 L9.95 -5.5 9.85 -8.65 M0.15 -11.0 L7.5 -10.45 Q10.85 -10.0 11.35 -9.45 12.35 -8.1 11.5 0.6 10.6 9.6 9.0 10.3 L-0.7 10.8 Q-8.6 10.4 -10.35 9.55 -11.95 8.7 -12.05 0.15 -12.1 -8.15 -11.1 -9.85 -10.3 -11.3 0.15 -11.0" fill="#95203c" fill-rule="evenodd" stroke="none"/>
    <path d="M9.85 -8.65 L9.95 -5.5 9.65 -0.2 Q9.35 3.35 8.85 5.6 L8.0 8.25 3.1 8.55 -4.65 8.2 -9.3 7.5 Q-9.6 6.95 -9.9 4.85 L-10.2 -0.85 -10.0 -6.1 -9.6 -9.15 -2.6 -9.7 5.15 -9.35 9.85 -8.65 M0.4 -4.0 L-1.6 -6.0 -3.6 -7.7 -4.3 -7.5 Q-4.75 -7.15 -5.1 -6.9 L-5.9 -6.2 -6.4 -5.45 Q-6.55 -4.45 -3.65 -1.15 L-3.3 -0.75 Q-7.2 2.8 -7.3 3.35 -7.55 4.25 -6.45 5.15 -5.3 6.15 -4.4 6.2 L-2.35 4.45 -0.3 2.65 1.95 5.0 Q3.25 6.55 4.0 6.65 4.7 6.85 5.75 6.05 6.6 5.3 6.8 4.45 6.95 3.45 4.05 0.1 L3.4 -0.7 Q7.25 -4.2 7.35 -4.65 7.55 -5.5 6.45 -6.45 5.2 -7.45 4.45 -7.5 L2.45 -5.75 0.4 -4.0" fill="#e94d63" fill-rule="evenodd" stroke="none"/>
    <path d="M0.4 -4.0 L2.45 -5.75 4.45 -7.5 Q5.2 -7.45 6.45 -6.45 7.55 -5.5 7.35 -4.65 7.25 -4.2 3.4 -0.7 L4.05 0.1 Q6.95 3.45 6.8 4.45 6.6 5.3 5.75 6.05 4.7 6.85 4.0 6.65 3.25 6.55 1.95 5.0 L-0.3 2.65 -2.35 4.45 -4.4 6.2 Q-5.3 6.15 -6.45 5.15 -7.55 4.25 -7.3 3.35 -7.2 2.8 -3.3 -0.75 L-3.65 -1.15 Q-6.55 -4.45 -6.4 -5.45 L-5.9 -6.2 -5.1 -6.9 Q-4.75 -7.15 -4.3 -7.5 L-3.6 -7.7 -1.6 -6.0 0.4 -4.0" fill="#ffffff" fill-rule="evenodd" stroke="none"/>
  </g>
</svg>
