<?xml version="1.0" encoding="UTF-8" standalone="no"?>
<svg xmlns:ffdec="https://www.free-decompiler.com/flash" xmlns:xlink="http://www.w3.org/1999/xlink" ffdec:objectType="shape" height="268.85px" width="243.9px" xmlns="http://www.w3.org/2000/svg">
  <g transform="matrix(1.0, 0.0, 0.0, 1.0, 121.8, 128.85)">
    <path d="M115.75 -103.4 Q119.0 -94.05 120.6 -77.1 121.65 -66.35 122.0 -46.9 122.3 -28.15 121.85 -11.9 120.8 26.1 118.55 62.5 115.2 116.55 111.2 124.6 108.7 129.6 101.45 132.6 94.3 135.65 80.75 137.45 L53.0 139.35 Q36.3 140.0 20.05 140.0 -15.6 140.0 -50.9 137.05 -91.05 133.65 -101.6 128.4 -106.8 125.8 -110.45 119.15 -114.15 112.5 -116.65 101.2 -119.8 86.9 -121.15 38.55 -122.4 -6.35 -121.15 -35.3 -120.05 -60.5 -118.05 -78.35 -114.9 -106.65 -109.9 -112.95 -106.8 -116.8 -100.0 -119.5 -90.45 -123.25 -72.1 -125.6 L-38.55 -128.0 Q-18.75 -128.85 -0.7 -128.85 32.05 -128.85 58.9 -126.4 100.9 -122.55 109.8 -113.65 113.4 -110.05 115.75 -103.4 M112.15 -69.4 Q109.75 -103.9 103.8 -109.85 97.75 -115.9 66.15 -119.4 37.45 -122.55 -1.05 -122.55 -39.55 -122.55 -67.6 -119.35 -98.45 -115.85 -103.25 -109.85 -107.4 -104.65 -110.35 -69.8 -113.25 -35.9 -113.25 5.4 -113.3 50.3 -109.8 80.05 -105.75 114.6 -97.8 118.55 -89.55 122.7 -57.95 125.75 -27.85 128.65 8.25 129.2 46.35 129.75 71.75 127.3 100.6 124.55 103.6 118.55 106.75 112.25 109.6 78.1 112.4 44.45 113.25 4.35 114.2 -39.65 112.15 -69.4" fill="#000000" fill-rule="evenodd" stroke="none"/>
    <path d="M112.15 -69.4 Q114.2 -39.65 113.25 4.35 112.4 44.45 109.6 78.1 106.75 112.25 103.6 118.55 100.6 124.55 71.75 127.3 46.35 129.75 8.25 129.2 -27.85 128.65 -57.95 125.75 -89.55 122.7 -97.8 118.55 -105.75 114.6 -109.8 80.05 -113.3 50.3 -113.25 5.4 -113.25 -35.9 -110.35 -69.8 -107.4 -104.65 -103.25 -109.85 -98.45 -115.85 -67.6 -119.35 -39.55 -122.55 -1.05 -122.55 37.45 -122.55 66.15 -119.4 97.75 -115.9 103.8 -109.85 109.75 -103.9 112.15 -69.4" fill="#ffffff" fill-rule="evenodd" stroke="none"/>
  </g>
</svg>
