<?xml version="1.0" encoding="UTF-8" standalone="no"?>
<svg xmlns:ffdec="https://www.free-decompiler.com/flash" xmlns:xlink="http://www.w3.org/1999/xlink" ffdec:objectType="shape" height="96.3px" width="104.0px" xmlns="http://www.w3.org/2000/svg">
  <g transform="matrix(1.0, 0.0, 0.0, 1.0, 52.0, 48.15)">
    <path d="M22.0 -28.5 L22.45 -23.7 Q25.35 -15.8 22.35 -6.45 18.05 6.8 4.6 14.25 -8.9 21.7 -23.8 19.8 -39.15 17.8 -43.1 7.15 L-43.3 6.6 Q-45.35 4.9 -46.9 2.75 -50.15 -2.75 -51.25 -6.85 -53.85 -16.45 -47.15 -26.75 -40.15 -37.6 -26.4 -43.45 -10.3 -50.25 3.3 -47.25 L8.25 -45.85 Q15.15 -43.3 18.45 -38.55 20.35 -35.9 21.4 -31.4 L22.0 -28.5 M-11.95 -39.95 Q-15.15 -38.6 -15.15 -36.95 -14.0 -35.8 -10.3 -37.0 -6.65 -38.2 -7.0 -38.8 -8.6 -41.4 -11.95 -39.95 M-14.6 -27.6 Q-12.25 -26.05 -16.0 -24.0 -17.45 -23.25 -18.55 -23.3 -19.8 -23.4 -19.7 -24.55 -19.6 -25.85 -17.65 -27.05 -15.7 -28.3 -14.6 -27.6 M-11.7 -16.55 Q-11.4 -20.2 -8.5 -22.15 -5.3 -24.3 -1.0 -24.0 3.0 -23.75 5.9 -21.6 8.9 -19.35 8.85 -16.35 8.75 -12.9 4.45 -9.7 -0.1 -6.3 -4.15 -6.75 -7.7 -7.2 -9.9 -10.25 -11.95 -13.1 -11.7 -16.55 M1.1 -26.6 Q-3.0 -26.65 -5.35 -29.7 -6.7 -31.45 -5.75 -33.55 -4.9 -35.5 -2.45 -37.0 3.4 -40.6 8.95 -37.85 12.45 -36.1 11.9 -33.25 11.35 -30.7 8.05 -28.65 4.75 -26.55 1.1 -26.6 M-17.4 -37.75 Q-16.75 -41.85 -11.6 -42.7 -8.15 -43.3 -6.4 -42.15 -4.8 -41.1 -5.1 -39.25 -5.4 -37.35 -7.3 -35.9 -9.4 -34.3 -12.5 -34.05 -18.05 -33.65 -17.4 -37.75 M-2.55 -30.75 Q-0.5 -27.55 4.7 -29.4 6.7 -30.1 7.8 -31.25 9.0 -32.45 8.3 -33.3 5.8 -36.4 1.5 -34.65 -2.55 -32.95 -2.55 -30.75 M-7.05 -11.15 Q-5.25 -6.8 1.55 -10.7 4.2 -12.25 5.55 -14.15 7.05 -16.25 6.0 -17.5 0.65 -20.4 -4.1 -18.2 -8.95 -16.0 -7.05 -11.15 M17.95 -29.45 Q17.6 -34.85 14.75 -38.25 9.0 -45.15 -4.4 -45.3 -18.35 -45.45 -31.2 -37.85 -40.4 -32.35 -45.35 -24.2 -50.5 -15.75 -48.8 -7.95 -45.75 1.4 -33.2 5.1 -20.1 8.95 -6.35 3.15 10.3 -3.9 15.95 -18.0 18.3 -23.85 17.95 -29.45 M-24.8 -37.8 Q-22.1 -38.3 -20.5 -37.35 -18.9 -36.45 -19.45 -34.6 -20.1 -32.55 -23.25 -30.25 -24.65 -29.25 -27.25 -29.0 -29.75 -28.8 -31.65 -29.45 -36.65 -31.1 -30.85 -35.15 -27.85 -37.25 -24.8 -37.8 M-42.15 -13.55 Q-39.1 -12.65 -35.25 -15.25 -31.3 -17.9 -31.15 -21.25 -34.45 -23.85 -39.2 -20.2 -43.9 -16.55 -42.15 -13.55 M-45.05 -12.25 Q-46.75 -14.3 -45.15 -18.35 -41.85 -26.7 -34.1 -26.6 -31.05 -26.55 -29.4 -24.9 -27.65 -23.1 -28.6 -20.55 -30.2 -16.35 -33.7 -13.6 -36.85 -11.1 -40.25 -10.75 -43.6 -10.35 -45.05 -12.25 M-26.85 -34.15 L-29.15 -32.2 Q-28.0 -31.05 -25.25 -32.4 -22.65 -33.7 -22.65 -34.45 -24.2 -35.85 -26.85 -34.15 M-27.95 -14.5 Q-24.5 -17.3 -21.9 -17.3 -17.15 -17.25 -15.1 -14.3 -13.3 -11.6 -14.3 -7.85 -15.3 -4.1 -18.5 -1.55 -22.05 1.25 -26.8 1.1 -32.55 0.9 -34.0 -2.0 -35.25 -4.5 -33.2 -8.3 -31.35 -11.8 -27.95 -14.5 M-29.2 -5.3 Q-30.25 -3.0 -29.85 -1.9 -24.75 -0.2 -20.4 -3.5 -16.3 -6.65 -16.15 -11.25 -21.15 -14.75 -26.2 -9.6 -28.1 -7.7 -29.2 -5.3 M-29.95 12.55 Q-33.7 11.85 -36.8 10.55 -32.45 14.45 -24.45 15.35 -15.4 16.4 -5.5 13.15 4.95 9.75 11.8 2.95 17.9 -3.05 19.85 -10.55 17.4 -5.0 12.7 -0.3 4.7 7.65 -7.45 11.2 -19.2 14.65 -29.95 12.55" fill="#3d3c36" fill-rule="evenodd" stroke="none"/>
    <path d="M22.0 -28.5 L21.4 -31.4 Q20.35 -35.9 18.45 -38.55 15.15 -43.3 8.25 -45.85 L10.65 -45.55 Q32.3 -42.65 37.95 -32.1 42.8 -23.15 46.95 -12.45 50.9 -2.3 51.75 2.85 52.6 7.95 50.6 13.55 48.5 19.35 44.0 23.6 40.4 27.0 40.3 37.9 40.3 43.35 40.95 48.15 L14.55 23.6 Q14.65 19.45 16.8 14.55 21.0 4.7 31.05 1.0 38.0 -1.55 40.1 -8.8 41.95 -15.05 39.65 -21.0 35.65 -26.25 22.0 -28.5 M20.85 19.15 Q20.7 18.85 19.75 18.1 18.05 16.7 17.45 18.5 17.15 19.25 17.65 19.95 L18.85 21.25 Q19.75 22.15 20.2 21.9 L20.8 20.5 20.85 19.15 M20.05 13.1 Q19.65 13.7 19.85 14.05 L20.95 15.4 Q21.7 16.25 22.0 16.15 L22.55 15.25 22.8 14.2 22.05 13.15 20.05 13.1 M22.8 9.2 Q22.45 9.8 22.6 10.15 L23.65 11.4 Q24.3 12.2 24.6 12.1 L25.15 11.25 Q25.45 10.6 25.35 10.25 L24.65 9.3 Q23.5 8.0 22.8 9.2 M44.15 -9.3 Q44.35 -7.3 43.05 -3.1 41.9 0.6 41.2 1.45 40.95 1.75 43.95 6.0 46.95 10.2 47.25 10.15 48.0 10.1 48.85 6.85 49.7 3.7 49.35 2.7 L46.55 -4.0 44.15 -9.3 M45.85 14.2 L46.4 15.2 47.1 15.9 47.6 15.5 47.9 14.8 Q47.95 14.35 46.45 13.1 L46.15 13.5 Q45.8 13.9 45.85 14.2 M49.3 8.55 L48.5 10.25 Q48.35 10.6 48.75 11.3 49.2 11.95 49.6 11.85 49.95 11.75 50.15 11.05 L50.2 9.95 49.7 9.05 49.3 8.55 M25.85 6.2 L25.25 6.9 Q25.1 7.05 25.9 8.2 L26.85 9.35 27.6 8.75 28.0 7.9 Q26.9 5.85 26.6 5.75 L25.85 6.2 M30.0 3.8 L29.2 4.05 28.5 4.5 28.9 5.55 29.55 6.65 Q29.7 6.8 30.3 6.35 L31.05 5.7 30.7 4.65 30.0 3.8 M32.5 2.45 L32.7 3.45 33.25 4.35 34.2 4.1 35.15 3.55 34.85 2.55 Q34.45 1.75 34.25 1.7 L33.35 2.0 32.5 2.45 M40.15 0.25 Q41.0 -1.05 40.95 -1.75 L40.5 -3.05 Q40.1 -3.8 39.9 -3.75 39.45 -3.6 39.05 -1.8 38.9 -1.05 40.15 0.25 M35.9 0.8 L36.25 1.8 36.8 2.8 38.3 2.25 37.95 1.25 37.25 0.35 36.55 0.45 Q36.0 0.65 35.9 0.8 M41.75 -8.7 Q41.65 -8.35 42.15 -7.45 42.6 -6.55 42.8 -6.8 L43.35 -8.85 42.75 -10.15 42.1 -11.05 41.75 -8.7 M39.3 3.15 Q39.0 3.5 33.95 5.85 29.45 7.9 29.35 9.1 29.3 9.95 34.1 14.95 38.85 19.95 39.45 19.7 40.55 19.2 42.8 16.55 45.1 13.8 45.3 12.55 45.45 11.6 42.5 7.2 39.6 2.85 39.3 3.15 M41.0 20.2 Q40.95 20.55 41.65 21.25 L42.55 21.95 43.05 21.55 43.5 20.95 Q43.65 20.65 42.35 19.2 42.2 19.1 41.6 19.55 L41.0 20.2 M39.7 21.75 Q39.5 21.75 39.05 22.25 38.6 22.7 38.65 22.9 40.55 25.1 40.8 24.9 41.45 24.3 41.35 23.6 L40.6 22.5 39.7 21.75 M37.75 25.75 Q37.55 26.6 37.65 27.0 37.8 27.55 38.55 27.95 L39.75 28.45 Q40.05 28.4 40.1 27.75 40.15 26.85 39.25 25.85 38.05 24.45 37.75 25.75 M39.45 31.85 Q40.05 30.7 38.7 29.9 37.95 29.45 37.6 29.45 37.25 29.5 37.1 30.05 36.75 31.2 37.65 31.7 L38.9 32.3 39.45 31.85 M37.3 37.75 L38.2 38.2 Q38.5 38.25 38.9 37.75 39.65 36.75 38.2 35.55 L37.1 34.8 Q36.65 34.65 36.5 35.4 36.3 36.35 36.4 36.65 36.5 37.2 37.3 37.75 M32.7 16.65 Q28.3 11.2 27.65 11.15 26.55 11.1 24.3 16.25 22.1 21.35 22.05 23.85 22.0 25.35 28.3 30.95 34.55 36.55 34.85 35.2 36.7 26.65 37.05 23.2 37.15 22.2 32.7 16.65 M44.2 16.65 L43.7 17.55 44.35 18.5 45.1 19.0 45.75 18.35 46.15 17.5 45.5 16.6 44.8 16.0 44.2 16.65" fill="#382f29" fill-rule="evenodd" stroke="none"/>
    <path d="M-17.4 -37.75 Q-18.05 -33.65 -12.5 -34.05 -9.4 -34.3 -7.3 -35.9 -5.4 -37.35 -5.1 -39.25 -4.8 -41.1 -6.4 -42.15 -8.15 -43.3 -11.6 -42.7 -16.75 -41.85 -17.4 -37.75 M1.1 -26.6 Q4.75 -26.55 8.05 -28.65 11.35 -30.7 11.9 -33.25 12.45 -36.1 8.95 -37.85 3.4 -40.6 -2.45 -37.0 -4.9 -35.5 -5.75 -33.55 -6.7 -31.45 -5.35 -29.7 -3.0 -26.65 1.1 -26.6 M-11.7 -16.55 Q-11.95 -13.1 -9.9 -10.25 -7.7 -7.2 -4.15 -6.75 -0.1 -6.3 4.45 -9.7 8.75 -12.9 8.85 -16.35 8.9 -19.35 5.9 -21.6 3.0 -23.75 -1.0 -24.0 -5.3 -24.3 -8.5 -22.15 -11.4 -20.2 -11.7 -16.55 M-14.6 -27.6 Q-15.7 -28.3 -17.65 -27.05 -19.6 -25.85 -19.7 -24.55 -19.8 -23.4 -18.55 -23.3 -17.45 -23.25 -16.0 -24.0 -12.25 -26.05 -14.6 -27.6 M17.95 -29.45 Q18.3 -23.85 15.95 -18.0 10.3 -3.9 -6.35 3.15 -20.1 8.95 -33.2 5.1 -45.75 1.4 -48.8 -7.95 -50.5 -15.75 -45.35 -24.2 -40.4 -32.35 -31.2 -37.85 -18.35 -45.45 -4.4 -45.3 9.0 -45.15 14.75 -38.25 17.6 -34.85 17.95 -29.45 M-24.8 -37.8 Q-27.85 -37.25 -30.85 -35.15 -36.65 -31.1 -31.65 -29.45 -29.75 -28.8 -27.25 -29.0 -24.65 -29.25 -23.25 -30.25 -20.1 -32.55 -19.45 -34.6 -18.9 -36.45 -20.5 -37.35 -22.1 -38.3 -24.8 -37.8 M-45.05 -12.25 Q-43.6 -10.35 -40.25 -10.75 -36.85 -11.1 -33.7 -13.6 -30.2 -16.35 -28.6 -20.55 -27.65 -23.1 -29.4 -24.9 -31.05 -26.55 -34.1 -26.6 -41.85 -26.7 -45.15 -18.35 -46.75 -14.3 -45.05 -12.25 M-20.8 -21.6 Q-20.05 -23.9 -21.4 -24.35 -22.8 -24.8 -23.8 -22.55 -24.35 -21.25 -22.9 -20.35 -21.5 -19.45 -20.8 -21.6 M-27.95 -14.5 Q-31.35 -11.8 -33.2 -8.3 -35.25 -4.5 -34.0 -2.0 -32.55 0.9 -26.8 1.1 -22.05 1.25 -18.5 -1.55 -15.3 -4.1 -14.3 -7.85 -13.3 -11.6 -15.1 -14.3 -17.15 -17.25 -21.9 -17.3 -24.5 -17.3 -27.95 -14.5 M-43.6 -6.9 Q-45.25 -5.45 -42.45 -1.95 -40.5 0.5 -37.7 -0.15 -34.9 -0.8 -38.35 -4.5 -41.95 -8.35 -43.6 -6.9" fill="#bebcb9" fill-rule="evenodd" stroke="none"/>
    <path d="M-11.95 -39.95 Q-8.6 -41.4 -7.0 -38.8 -6.65 -38.2 -10.3 -37.0 -14.0 -35.8 -15.15 -36.95 -15.15 -38.6 -11.95 -39.95 M-7.05 -11.15 Q-8.95 -16.0 -4.1 -18.2 0.65 -20.4 6.0 -17.5 7.05 -16.25 5.55 -14.15 4.2 -12.25 1.55 -10.7 -5.25 -6.8 -7.05 -11.15 M-2.55 -30.75 Q-2.55 -32.95 1.5 -34.65 5.8 -36.4 8.3 -33.3 9.0 -32.45 7.8 -31.25 6.7 -30.1 4.7 -29.4 -0.5 -27.55 -2.55 -30.75 M-42.15 -13.55 Q-43.9 -16.55 -39.2 -20.2 -34.45 -23.85 -31.15 -21.25 -31.3 -17.9 -35.25 -15.25 -39.1 -12.65 -42.15 -13.55 M-26.85 -34.15 Q-24.2 -35.85 -22.65 -34.45 -22.65 -33.7 -25.25 -32.4 -28.0 -31.05 -29.15 -32.2 L-26.85 -34.15 M-29.2 -5.3 Q-28.1 -7.7 -26.2 -9.6 -21.15 -14.75 -16.15 -11.25 -16.3 -6.65 -20.4 -3.5 -24.75 -0.2 -29.85 -1.9 -30.25 -3.0 -29.2 -5.3 M-29.95 12.55 Q-19.2 14.65 -7.45 11.2 4.7 7.65 12.7 -0.3 17.4 -5.0 19.85 -10.55 17.9 -3.05 11.8 2.95 4.95 9.75 -5.5 13.15 -15.4 16.4 -24.45 15.35 -32.45 14.45 -36.8 10.55 -33.7 11.85 -29.95 12.55" fill="#4e433d" fill-rule="evenodd" stroke="none"/>
    <path d="M-20.8 -21.6 Q-21.5 -19.45 -22.9 -20.35 -24.35 -21.25 -23.8 -22.55 -22.8 -24.8 -21.4 -24.35 -20.05 -23.9 -20.8 -21.6 M-43.6 -6.9 Q-41.95 -8.35 -38.35 -4.5 -34.9 -0.8 -37.7 -0.15 -40.5 0.5 -42.45 -1.95 -45.25 -5.45 -43.6 -6.9" fill="#fdfdfd" fill-rule="evenodd" stroke="none"/>
    <path d="M22.8 9.2 Q23.5 8.0 24.65 9.3 L25.35 10.25 Q25.45 10.6 25.15 11.25 L24.6 12.1 Q24.3 12.2 23.65 11.4 L22.6 10.15 Q22.45 9.8 22.8 9.2 M20.05 13.1 L22.05 13.15 22.8 14.2 22.55 15.25 22.0 16.15 Q21.7 16.25 20.95 15.4 L19.85 14.05 Q19.65 13.7 20.05 13.1 M20.85 19.15 L20.8 20.5 20.2 21.9 Q19.75 22.15 18.85 21.25 L17.65 19.95 Q17.15 19.25 17.45 18.5 18.05 16.7 19.75 18.1 20.7 18.85 20.85 19.15 M49.3 8.55 L49.7 9.05 50.2 9.95 50.15 11.05 Q49.95 11.75 49.6 11.85 49.2 11.95 48.75 11.3 48.35 10.6 48.5 10.25 L49.3 8.55 M45.85 14.2 Q45.8 13.9 46.15 13.5 L46.45 13.1 Q47.95 14.35 47.9 14.8 L47.6 15.5 47.1 15.9 46.4 15.2 45.85 14.2 M44.15 -9.3 L46.55 -4.0 49.35 2.7 Q49.7 3.7 48.85 6.85 48.0 10.1 47.25 10.15 46.95 10.2 43.95 6.0 40.95 1.75 41.2 1.45 41.9 0.6 43.05 -3.1 44.35 -7.3 44.15 -9.3 M41.75 -8.7 L42.1 -11.05 42.75 -10.15 43.35 -8.85 42.8 -6.8 Q42.6 -6.55 42.15 -7.45 41.65 -8.35 41.75 -8.7 M35.9 0.8 Q36.0 0.65 36.55 0.45 L37.25 0.35 37.95 1.25 38.3 2.25 36.8 2.8 36.25 1.8 35.9 0.8 M40.15 0.25 Q38.9 -1.05 39.05 -1.8 39.45 -3.6 39.9 -3.75 40.1 -3.8 40.5 -3.05 L40.95 -1.75 Q41.0 -1.05 40.15 0.25 M32.5 2.45 L33.35 2.0 34.25 1.7 Q34.45 1.75 34.85 2.55 L35.15 3.55 34.2 4.1 33.25 4.35 32.7 3.45 32.5 2.45 M30.0 3.8 L30.7 4.65 31.05 5.7 30.3 6.35 Q29.7 6.8 29.55 6.65 L28.9 5.55 28.5 4.5 29.2 4.05 30.0 3.8 M25.85 6.2 L26.6 5.75 Q26.9 5.85 28.0 7.9 L27.6 8.75 26.85 9.35 25.9 8.2 Q25.1 7.05 25.25 6.9 L25.85 6.2 M44.2 16.65 L44.8 16.0 45.5 16.6 46.15 17.5 45.75 18.35 45.1 19.0 44.35 18.5 43.7 17.55 44.2 16.65 M32.7 16.65 Q37.15 22.2 37.05 23.2 36.7 26.65 34.85 35.2 34.55 36.55 28.3 30.95 22.0 25.35 22.05 23.85 22.1 21.35 24.3 16.25 26.55 11.1 27.65 11.15 28.3 11.2 32.7 16.65 M37.3 37.75 Q36.5 37.2 36.4 36.65 36.3 36.35 36.5 35.4 36.65 34.65 37.1 34.8 L38.2 35.55 Q39.65 36.75 38.9 37.75 38.5 38.25 38.2 38.2 L37.3 37.75 M39.45 31.85 L38.9 32.3 37.65 31.7 Q36.75 31.2 37.1 30.05 37.25 29.5 37.6 29.45 37.95 29.45 38.7 29.9 40.05 30.7 39.45 31.85 M37.75 25.75 Q38.05 24.45 39.25 25.85 40.15 26.85 40.1 27.75 40.05 28.4 39.75 28.45 L38.55 27.95 Q37.8 27.55 37.65 27.0 37.55 26.6 37.75 25.75 M39.7 21.75 L40.6 22.5 41.35 23.6 Q41.45 24.3 40.8 24.9 40.55 25.1 38.65 22.9 38.6 22.7 39.05 22.25 39.5 21.75 39.7 21.75 M41.0 20.2 L41.6 19.55 Q42.2 19.1 42.35 19.2 43.65 20.65 43.5 20.95 L43.05 21.55 42.55 21.95 41.65 21.25 Q40.95 20.55 41.0 20.2 M39.3 3.15 Q39.6 2.85 42.5 7.2 45.45 11.6 45.3 12.55 45.1 13.8 42.8 16.55 40.55 19.2 39.45 19.7 38.85 19.95 34.1 14.95 29.3 9.95 29.35 9.1 29.45 7.9 33.95 5.85 39.0 3.5 39.3 3.15" fill="#a27762" fill-rule="evenodd" stroke="none"/>
  </g>
</svg>
