<?xml version="1.0" encoding="UTF-8" standalone="no"?>
<svg xmlns:ffdec="https://www.free-decompiler.com/flash" xmlns:xlink="http://www.w3.org/1999/xlink" ffdec:objectType="shape" height="210.5px" width="221.0px" xmlns="http://www.w3.org/2000/svg">
  <g transform="matrix(1.0, 0.0, 0.0, 1.0, 110.5, 105.25)">
    <path d="M104.15 -79.8 Q107.45 -70.45 109.05 -53.5 111.15 -31.3 110.25 1.2 109.5 27.5 107.05 51.65 104.0 81.35 99.8 89.8 97.35 94.8 90.1 97.85 82.9 100.9 69.35 102.7 49.8 105.25 20.05 105.25 -14.25 105.25 -45.2 102.3 -79.45 99.0 -90.2 93.65 -95.4 91.05 -99.05 84.4 -102.75 77.75 -105.25 66.45 -108.6 51.25 -109.85 27.7 -111.05 4.2 -109.95 -22.2 -109.0 -44.1 -106.85 -60.0 -103.8 -82.95 -98.7 -89.35 -95.6 -93.25 -88.8 -95.9 -79.3 -99.7 -60.95 -102.0 L-33.1 -104.4 Q-17.65 -105.25 -0.95 -105.25 29.55 -105.25 52.95 -102.8 89.25 -99.0 98.2 -90.05 101.8 -86.5 104.15 -79.8" fill="#000000" fill-rule="evenodd" stroke="none"/>
    <path d="M100.55 -54.95 Q102.65 -33.05 101.75 -1.25 100.95 27.6 98.2 52.45 95.4 77.45 92.2 83.8 89.2 89.8 63.9 92.55 41.6 95.0 8.25 94.45 -23.3 93.9 -50.1 91.0 -78.1 87.95 -86.4 83.8 -94.35 79.8 -98.45 54.45 -101.95 32.45 -101.95 -0.2 -101.95 -30.15 -99.15 -55.35 -96.25 -81.05 -92.05 -86.3 -87.25 -92.3 -59.95 -95.8 -35.1 -99.0 -1.25 -99.0 32.65 -99.0 58.15 -95.85 86.15 -92.35 92.2 -86.3 98.15 -80.35 100.55 -54.95" fill="#ffffff" fill-rule="evenodd" stroke="none"/>
  </g>
</svg>
