<?xml version="1.0" encoding="UTF-8" standalone="no"?>
<svg xmlns:ffdec="https://www.free-decompiler.com/flash" xmlns:xlink="http://www.w3.org/1999/xlink" ffdec:objectType="shape" height="329.0px" width="343.9px" xmlns="http://www.w3.org/2000/svg">
  <g transform="matrix(1.0, 0.0, 0.0, 1.0, 171.95, 177.95)">
    <path d="M165.55 -125.55 Q168.8 -116.2 170.4 -99.25 171.4 -88.85 171.8 -54.05 172.15 -21.15 171.65 -4.05 170.55 36.3 168.45 71.95 165.2 127.6 161.2 135.65 158.7 140.65 151.45 143.65 144.3 146.7 130.75 148.5 L78.0 150.4 Q42.55 151.05 20.05 151.05 L-75.9 148.1 Q-141.5 144.5 -151.6 139.45 -156.8 136.85 -160.45 130.2 -164.15 123.55 -166.65 112.25 -169.8 97.9 -171.25 48.0 -172.55 1.35 -171.35 -27.45 -169.65 -67.55 -168.25 -85.5 -165.0 -128.95 -160.1 -135.1 -157.0 -138.95 -150.2 -141.65 -140.65 -145.4 -122.3 -147.75 L-63.75 -150.15 Q-24.95 -151.0 -0.9 -151.0 42.1 -151.0 83.7 -148.55 150.85 -144.55 159.6 -135.8 163.2 -132.2 165.55 -125.55" fill="#000000" fill-rule="evenodd" stroke="none"/>
    <path d="M161.95 -86.35 Q164.05 -52.2 163.15 -1.2 162.35 45.35 159.6 83.95 156.75 123.3 153.6 129.6 150.6 135.6 106.1 138.35 67.05 140.8 8.25 140.25 L-92.3 136.8 Q-139.55 133.7 -147.8 129.6 -155.75 125.65 -159.85 85.95 -163.35 51.7 -163.35 -0.15 -163.35 -47.9 -160.55 -86.75 -157.6 -126.8 -153.45 -132.0 -148.65 -138.0 -102.2 -141.5 -60.05 -144.7 -1.25 -144.7 57.6 -144.7 100.35 -141.55 147.55 -138.05 153.6 -132.0 159.55 -126.05 161.95 -86.35" fill="#ffffff" fill-rule="evenodd" stroke="none"/>
    <path d="M-31.15 -172.95 Q-27.85 -175.8 -17.8 -173.9 -5.15 -171.55 -0.2 -172.3 1.8 -172.65 5.05 -175.35 8.1 -177.95 8.9 -177.95 9.95 -177.95 12.75 -175.1 15.9 -171.95 16.95 -171.5 20.55 -169.9 26.0 -169.9 L35.45 -170.45 Q40.9 -170.85 43.55 -170.25 47.3 -169.4 48.7 -166.35 49.95 -163.65 49.3 -160.0 48.85 -157.5 46.85 -152.25 41.8 -138.7 41.0 -129.35 40.6 -121.45 42.9 -104.8 44.45 -93.8 41.35 -92.0 39.05 -90.65 28.1 -93.4 15.75 -96.55 10.0 -95.6 9.0 -95.45 5.95 -92.7 3.15 -90.2 2.45 -90.5 1.85 -90.7 -0.15 -93.5 -2.2 -96.3 -3.15 -96.65 -7.5 -98.2 -21.5 -97.55 -32.95 -97.05 -34.8 -100.45 -36.15 -102.9 -35.6 -105.8 -35.25 -107.45 -33.3 -112.1 -28.55 -123.35 -28.1 -134.5 -28.1 -141.95 -31.8 -158.65 -34.35 -170.15 -31.15 -172.95 M34.15 -162.45 Q38.55 -162.15 38.95 -161.3 39.4 -160.35 38.2 -151.45 L36.55 -138.25 Q36.45 -136.7 37.75 -137.0 39.1 -137.35 39.75 -139.05 41.9 -144.55 43.75 -153.6 45.7 -163.05 44.85 -165.05 43.7 -167.8 37.65 -167.55 31.65 -167.35 30.9 -164.8 30.3 -162.7 34.15 -162.45 M25.8 -162.9 Q28.4 -162.7 28.75 -164.4 29.15 -166.1 26.9 -166.95 25.55 -167.45 24.45 -165.25 23.4 -163.1 25.8 -162.9 M13.45 -170.6 L8.9 -173.9 3.8 -171.1 Q-1.25 -168.3 -4.8 -169.1 -6.5 -169.5 -6.95 -167.6 -7.35 -165.75 -6.1 -165.05 -4.3 -164.05 7.2 -163.5 L19.9 -162.9 Q21.4 -162.7 21.35 -165.1 21.3 -167.45 20.15 -167.45 17.6 -167.45 13.45 -170.6 M37.35 -135.0 Q35.2 -135.6 34.7 -129.3 34.25 -123.0 36.25 -122.4 38.3 -121.8 38.9 -128.1 39.5 -134.45 37.35 -135.0 M-11.2 -169.9 Q-12.55 -169.55 -13.15 -167.7 -13.8 -165.75 -11.5 -165.6 -9.0 -165.4 -9.15 -167.85 -9.25 -170.35 -11.2 -169.9 M-14.95 -166.15 Q-14.2 -169.9 -20.4 -171.3 -26.4 -172.65 -28.65 -170.4 -31.0 -168.05 -28.6 -155.3 -26.2 -142.6 -24.35 -143.05 -23.35 -143.3 -23.0 -154.0 -22.65 -164.85 -21.15 -165.6 L-17.8 -165.25 Q-15.2 -164.85 -14.95 -166.15 M-3.95 -100.15 Q-2.45 -99.85 -0.15 -97.5 2.1 -95.2 3.25 -95.05 4.25 -94.95 7.8 -97.05 11.4 -99.2 12.95 -99.05 15.05 -98.85 15.7 -100.35 16.4 -101.8 14.25 -102.3 L3.5 -103.55 Q-4.75 -104.1 -5.85 -103.35 -7.2 -102.5 -6.85 -101.6 -6.45 -100.6 -3.95 -100.15 M-11.2 -104.15 Q-12.45 -104.05 -12.75 -102.45 -13.05 -100.8 -11.2 -100.4 -9.1 -99.95 -8.9 -102.2 -8.7 -104.35 -11.2 -104.15 M35.75 -119.45 Q35.15 -119.6 35.0 -111.8 34.75 -103.45 33.6 -102.3 32.4 -101.1 30.3 -101.5 L26.6 -101.75 Q25.4 -101.4 24.75 -99.9 23.95 -98.15 26.05 -97.45 30.3 -96.1 32.35 -95.8 36.5 -95.25 38.15 -97.2 39.7 -99.05 39.55 -107.0 39.4 -114.45 38.15 -118.9 37.8 -120.05 36.85 -119.85 35.9 -119.4 35.75 -119.45 M17.95 -101.3 Q16.9 -99.7 19.35 -99.35 22.0 -98.95 22.75 -100.45 23.45 -101.95 20.7 -102.55 18.95 -102.9 17.95 -101.3" fill="#734a2c" fill-rule="evenodd" stroke="none"/>
    <path d="M39.3 -162.8 Q39.4 -164.85 40.55 -165.2 42.75 -165.8 43.25 -164.15 43.75 -162.45 41.35 -161.55 39.2 -160.75 39.3 -162.8 M6.6 -168.7 Q3.8 -167.85 4.05 -169.45 4.25 -171.1 6.2 -171.5 9.25 -172.1 9.45 -170.85 9.65 -169.6 6.6 -168.7 M-26.65 -169.2 Q-24.7 -171.15 -23.55 -169.5 -22.45 -167.9 -25.05 -165.6 -27.6 -163.3 -28.1 -165.3 -28.6 -167.25 -26.65 -169.2" fill="#f5a974" fill-rule="evenodd" stroke="none"/>
    <path d="M39.3 -162.8 Q39.2 -160.75 41.35 -161.55 43.75 -162.45 43.25 -164.15 42.75 -165.8 40.55 -165.2 39.4 -164.85 39.3 -162.8 M-11.2 -169.9 Q-9.25 -170.35 -9.15 -167.85 -9.0 -165.4 -11.5 -165.6 -13.8 -165.75 -13.15 -167.7 -12.55 -169.55 -11.2 -169.9 M37.35 -135.0 Q39.5 -134.45 38.9 -128.1 38.3 -121.8 36.25 -122.4 34.25 -123.0 34.7 -129.3 35.2 -135.6 37.35 -135.0 M13.45 -170.6 Q17.6 -167.45 20.15 -167.45 21.3 -167.45 21.35 -165.1 21.4 -162.7 19.9 -162.9 L7.2 -163.5 Q-4.3 -164.05 -6.1 -165.05 -7.35 -165.75 -6.95 -167.6 -6.5 -169.5 -4.8 -169.1 -1.25 -168.3 3.8 -171.1 L8.9 -173.9 13.45 -170.6 M25.8 -162.9 Q23.4 -163.1 24.45 -165.25 25.55 -167.45 26.9 -166.95 29.15 -166.1 28.75 -164.4 28.4 -162.7 25.8 -162.9 M34.15 -162.45 Q30.3 -162.7 30.9 -164.8 31.65 -167.35 37.65 -167.55 43.7 -167.8 44.85 -165.05 45.7 -163.05 43.75 -153.6 41.9 -144.55 39.75 -139.05 39.1 -137.35 37.75 -137.0 36.45 -136.7 36.55 -138.25 L38.2 -151.45 Q39.4 -160.35 38.95 -161.3 38.55 -162.15 34.15 -162.45 M6.6 -168.7 Q9.65 -169.6 9.45 -170.85 9.25 -172.1 6.2 -171.5 4.25 -171.1 4.05 -169.45 3.8 -167.85 6.6 -168.7 M-14.95 -166.15 Q-15.2 -164.85 -17.8 -165.25 L-21.15 -165.6 Q-22.65 -164.85 -23.0 -154.0 -23.35 -143.3 -24.35 -143.05 -26.2 -142.6 -28.6 -155.3 -31.0 -168.05 -28.65 -170.4 -26.4 -172.65 -20.4 -171.3 -14.2 -169.9 -14.95 -166.15 M-26.65 -169.2 Q-28.6 -167.25 -28.1 -165.3 -27.6 -163.3 -25.05 -165.6 -22.45 -167.9 -23.55 -169.5 -24.7 -171.15 -26.65 -169.2 M17.95 -101.3 Q18.95 -102.9 20.7 -102.55 23.45 -101.95 22.75 -100.45 22.0 -98.95 19.35 -99.35 16.9 -99.7 17.95 -101.3 M35.75 -119.45 Q35.9 -119.4 36.85 -119.85 37.8 -120.05 38.15 -118.9 39.4 -114.45 39.55 -107.0 39.7 -99.05 38.15 -97.2 36.5 -95.25 32.35 -95.8 30.3 -96.1 26.05 -97.45 23.95 -98.15 24.75 -99.9 25.4 -101.4 26.6 -101.75 L30.3 -101.5 Q32.4 -101.1 33.6 -102.3 34.75 -103.45 35.0 -111.8 35.15 -119.6 35.75 -119.45 M-11.2 -104.15 Q-8.7 -104.35 -8.9 -102.2 -9.1 -99.95 -11.2 -100.4 -13.05 -100.8 -12.75 -102.45 -12.45 -104.05 -11.2 -104.15 M-3.95 -100.15 Q-6.45 -100.6 -6.85 -101.6 -7.2 -102.5 -5.85 -103.35 -4.75 -104.1 3.5 -103.55 L14.25 -102.3 Q16.4 -101.8 15.7 -100.35 15.05 -98.85 12.95 -99.05 11.4 -99.2 7.8 -97.05 4.25 -94.95 3.25 -95.05 2.1 -95.2 -0.15 -97.5 -2.45 -99.85 -3.95 -100.15" fill="#ce8b58" fill-rule="evenodd" stroke="none"/>
  </g>
</svg>
