<?xml version="1.0" encoding="UTF-8" standalone="no"?>
<svg xmlns:ffdec="https://www.free-decompiler.com/flash" xmlns:xlink="http://www.w3.org/1999/xlink" ffdec:objectType="shape" height="71.3px" width="99.0px" xmlns="http://www.w3.org/2000/svg">
  <g transform="matrix(1.0, 0.0, 0.0, 1.0, 66.0, 160.4)">
    <path d="M33.0 -157.3 L29.9 -107.4 -20.0 -110.5 -16.9 -160.4 33.0 -157.3" fill="#ffffff" fill-rule="evenodd" stroke="none"/>
    <path d="M20.85 -143.65 L19.85 -138.25 20.85 -137.1 Q21.45 -135.95 21.05 -134.55 20.65 -133.2 19.6 -132.4 19.15 -132.0 18.6 -131.9 17.85 -128.9 14.8 -127.0 L13.95 -126.5 Q15.75 -125.2 17.15 -123.25 21.05 -117.65 20.45 -108.0 L-10.6 -109.9 Q-10.0 -119.55 -5.35 -124.65 -3.75 -126.4 -1.75 -127.5 L-2.6 -128.1 Q-5.4 -130.3 -5.8 -133.4 L-6.75 -134.0 Q-7.7 -134.9 -7.85 -136.35 -8.05 -137.75 -7.4 -138.8 L-6.25 -139.85 Q-6.7 -144.1 -6.6 -145.35 -6.3 -150.0 -2.1 -153.25 2.2 -156.55 7.85 -156.2 13.5 -155.85 17.4 -152.05 21.15 -148.3 20.85 -143.65" fill="#718495" fill-rule="evenodd" stroke="none"/>
    <path d="M15.4 -144.0 Q15.3 -142.3 14.45 -141.0 13.55 -139.65 11.15 -137.75 L9.0 -135.8 Q8.55 -135.3 8.25 -134.4 L7.75 -131.7 4.75 -131.9 4.85 -132.85 Q4.95 -134.7 5.55 -135.95 L6.9 -137.95 Q7.75 -138.8 9.35 -140.05 10.95 -141.35 11.55 -142.2 12.05 -143.0 12.15 -144.0 12.25 -145.8 10.95 -147.25 9.6 -148.7 7.5 -148.85 5.45 -148.95 4.1 -147.8 2.65 -146.65 2.1 -144.0 L-1.15 -144.6 Q-0.45 -148.1 1.8 -149.85 4.05 -151.6 7.55 -151.4 11.35 -151.15 13.45 -149.0 15.55 -146.85 15.4 -144.0 M7.8 -125.4 L4.2 -125.6 4.4 -129.15 8.0 -128.95 7.8 -125.4" fill="#ffffff" fill-rule="evenodd" stroke="none"/>
    <path d="M-1.7 -130.0 Q-2.1 -128.95 -5.2 -128.0 -9.05 -126.75 -10.85 -125.45 L-15.45 -120.85 -19.45 -115.8 Q-17.7 -112.25 -15.15 -105.8 -12.1 -98.0 -11.4 -94.35 L-44.5 -89.1 -44.35 -98.95 Q-44.0 -106.7 -43.15 -110.85 -48.1 -113.3 -53.9 -114.4 -57.15 -113.45 -59.15 -113.05 -62.7 -112.35 -64.4 -113.15 -67.0 -114.4 -65.35 -117.5 -63.65 -120.6 -60.05 -121.4 -60.6 -122.05 -60.35 -123.05 -60.1 -124.1 -59.15 -124.7 -56.5 -126.25 -51.8 -122.65 L-48.8 -122.5 -45.8 -122.1 Q-50.6 -129.8 -47.55 -136.05 -44.85 -141.55 -38.1 -143.15 -31.25 -144.75 -26.25 -141.0 -20.55 -136.65 -20.95 -127.2 -17.6 -130.3 -16.85 -130.7 -16.45 -135.0 -12.85 -136.0 L-10.5 -136.05 Q-9.55 -135.75 -9.8 -135.1 -6.45 -136.5 -3.6 -134.25 -0.9 -132.2 -1.7 -130.0" fill="#665f56" fill-rule="evenodd" stroke="none"/>
    <path d="M-4.35 -131.6 Q-3.85 -130.95 -6.15 -130.45 -9.9 -129.7 -12.8 -127.4 -16.2 -124.65 -22.8 -116.3 -19.7 -109.9 -14.55 -95.95 L-41.25 -91.7 -41.35 -99.1 Q-41.15 -107.65 -39.85 -113.35 -47.4 -116.15 -53.55 -117.2 L-60.75 -115.45 Q-64.0 -114.85 -62.85 -116.85 -61.7 -118.75 -59.15 -119.5 L-55.8 -120.2 Q-58.5 -121.95 -57.2 -122.5 -55.9 -123.05 -52.65 -120.35 L-43.45 -119.45 -39.15 -118.8 Q-40.7 -119.5 -42.1 -120.9 -44.8 -123.6 -45.6 -127.5 -46.5 -131.65 -44.75 -135.05 -42.75 -138.95 -37.75 -140.65 -33.0 -142.25 -29.35 -139.95 -26.1 -137.9 -24.55 -133.55 -23.1 -129.45 -23.85 -125.5 -24.35 -122.55 -25.95 -120.85 -23.95 -122.5 -20.3 -125.45 L-14.9 -129.5 Q-15.1 -132.25 -13.45 -133.45 -11.85 -134.65 -11.75 -131.75 -9.45 -133.45 -7.25 -133.2 -5.45 -132.95 -4.35 -131.6" fill="#fff7e7" fill-rule="evenodd" stroke="none"/>
    <path d="M-28.1 -131.0 Q-27.6 -129.15 -28.35 -127.4 -29.05 -125.7 -30.5 -125.0 -34.15 -123.25 -36.95 -128.85 -33.15 -129.5 -28.1 -131.0" fill="#665f56" fill-rule="evenodd" stroke="none"/>
  </g>
</svg>
