<?xml version="1.0" encoding="UTF-8" standalone="no"?>
<svg xmlns:ffdec="https://www.free-decompiler.com/flash" xmlns:xlink="http://www.w3.org/1999/xlink" ffdec:objectType="shape" height="480.0px" width="640.0px" xmlns="http://www.w3.org/2000/svg">
  <g transform="matrix(1.0, 0.0, 0.0, 1.0, 320.0, 240.0)">
    <path d="M320.0 -240.0 L320.0 240.0 -320.0 240.0 -320.0 -240.0 320.0 -240.0" fill="url(#gradient0)" fill-rule="evenodd" stroke="none"/>
    <path d="M-259.0 -95.0 Q-259.0 -111.85 -247.15 -123.8 -235.25 -135.65 -218.45 -135.65 L-94.0 -135.65 -94.0 -54.45 -218.45 -54.45 Q-235.2 -54.45 -247.15 -66.35 -259.0 -78.2 -259.0 -95.0 M62.0 -54.45 L62.0 -135.65 217.55 -135.65 Q234.4 -135.65 246.35 -123.8 258.2 -111.85 258.2 -95.0 258.2 -78.2 246.35 -66.35 234.4 -54.45 217.55 -54.45 L62.0 -54.45" fill="#ffffff" fill-rule="evenodd" stroke="none"/>
  </g>
  <defs>
    <linearGradient color-interpolation="linearRGB" gradientTransform="matrix(0.0, 0.1159, -0.9987, 0.0, 0.0, 0.0)" gradientUnits="userSpaceOnUse" id="gradient0" spreadMethod="pad" x1="-819.2" x2="819.2">
      <stop offset="0.0" stop-color="#c4c4c4"/>
      <stop offset="1.0" stop-color="#ffffff"/>
    </linearGradient>
  </defs>
</svg>
