<?xml version="1.0" encoding="UTF-8" standalone="no"?>
<svg xmlns:ffdec="https://www.free-decompiler.com/flash" xmlns:xlink="http://www.w3.org/1999/xlink" ffdec:objectType="shape" height="50.2px" width="416.9px" xmlns="http://www.w3.org/2000/svg">
  <g transform="matrix(1.0, 0.0, 0.0, 1.0, 219.8, -74.2)">
    <path d="M196.95 104.65 Q196.4 111.65 194.85 116.3 192.55 123.0 188.45 123.6 185.9 124.0 109.75 124.2 L-30.8 124.4 Q-191.85 124.4 -198.9 123.6 -204.85 122.95 -208.15 115.95 -210.85 110.15 -211.05 102.05 -211.15 96.8 -210.1 93.05 -208.5 87.2 -204.5 86.55 -201.3 86.1 -123.05 85.8 -54.1 85.5 24.9 85.5 96.05 85.5 139.0 85.75 172.2 85.9 183.9 86.2 L191.65 86.7 Q195.3 87.8 196.5 93.55 197.45 97.9 196.95 104.65" fill="#000000" fill-rule="evenodd" stroke="none"/>
    <path d="M193.35 104.25 Q192.8 110.1 191.4 114.3 189.85 118.85 187.9 119.15 183.45 119.8 -3.25 119.9 -190.8 120.0 -198.5 119.15 -202.3 118.7 -204.7 114.0 -206.8 109.9 -207.35 103.8 -207.9 98.15 -206.95 93.7 -205.95 89.1 -203.95 88.8 -198.25 87.95 -6.1 87.8 186.75 87.65 190.6 88.8 192.55 89.35 193.25 94.1 193.9 98.4 193.35 104.25" fill="#ffffff" fill-rule="evenodd" stroke="none"/>
    <path d="M175.45 113.55 L-3.5 113.7 -186.3 113.55 Q-193.35 113.4 -194.6 111.0 -195.05 110.05 -194.2 109.3 -193.25 108.55 -191.4 108.5 -186.05 108.35 -6.15 108.3 174.45 108.3 178.05 108.5 179.85 108.6 180.5 109.35 181.1 110.1 180.6 111.05 180.05 112.05 178.75 112.75 177.3 113.5 175.45 113.55" fill="#d0d0d0" fill-rule="evenodd" stroke="none"/>
    <path d="M-182.5 83.0 Q-180.9 85.75 -180.7 88.85 -180.45 91.8 -181.55 94.65 -182.6 97.55 -184.85 99.9 -186.75 101.9 -189.25 103.35 -191.8 104.8 -194.7 105.6 L-196.1 114.05 -203.35 106.25 Q-210.1 105.55 -214.7 101.45 -219.35 97.4 -219.75 91.75 -220.0 88.45 -218.7 85.35 -217.4 82.3 -214.7 79.8 -212.1 77.4 -208.7 76.0 -205.25 74.55 -201.4 74.25 L-199.6 74.2 Q-196.05 74.2 -192.75 75.25 -189.45 76.3 -186.8 78.25 -184.1 80.25 -182.5 83.0" fill="#000000" fill-rule="evenodd" stroke="none"/>
    <path d="M-184.7 83.35 Q-183.15 85.8 -182.95 88.6 -182.55 93.75 -186.5 97.95 -190.45 102.1 -196.65 103.35 L-197.55 108.75 -202.25 103.65 Q-208.45 103.25 -212.75 99.75 -217.15 96.25 -217.5 91.2 -217.7 88.4 -216.55 85.75 -215.4 83.15 -213.15 81.1 -210.9 79.0 -207.9 77.7 -204.75 76.4 -201.25 76.15 -197.75 75.9 -194.45 76.7 -191.25 77.55 -188.75 79.25 -186.2 81.0 -184.7 83.35" fill="#ffffff" fill-rule="evenodd" stroke="none"/>
    <path d="M-194.75 82.35 L-196.45 82.1 -197.8 82.1 -197.8 95.75 -197.65 97.45 -197.05 98.0 -195.85 98.25 -195.25 98.25 -195.25 98.75 -204.5 98.75 -204.5 98.25 -203.95 98.25 -202.7 98.0 -202.15 97.35 Q-202.0 97.05 -202.0 95.75 L-202.0 82.1 -203.3 82.1 Q-205.1 82.1 -205.9 82.85 -207.0 83.9 -207.3 85.85 L-207.8 85.85 -207.8 81.05 -191.95 81.05 -191.95 85.85 -192.4 85.85 Q-192.85 84.15 -193.35 83.5 -193.85 82.75 -194.75 82.35" fill="#000000" fill-rule="evenodd" stroke="none"/>
  </g>
</svg>
