<?xml version="1.0" encoding="UTF-8" standalone="no"?>
<svg xmlns:ffdec="https://www.free-decompiler.com/flash" xmlns:xlink="http://www.w3.org/1999/xlink" ffdec:objectType="shape" height="47.75px" width="69.4px" xmlns="http://www.w3.org/2000/svg">
  <g transform="matrix(1.0, 0.0, 0.0, 1.0, -114.7, -19.3)">
    <path d="M176.85 28.6 Q175.4 23.6 174.05 22.75 172.7 21.85 164.3 21.95 L146.35 23.1 Q135.8 24.1 128.6 25.45 120.4 26.9 119.45 28.3 118.55 29.6 118.45 34.85 118.35 39.7 119.0 45.75 119.6 52.0 120.65 56.35 121.85 61.15 123.2 61.85 L133.2 62.15 151.9 60.9 170.3 58.7 Q178.75 57.35 179.65 56.2 180.55 55.15 180.35 50.05 180.2 45.35 179.2 39.25 178.15 33.05 176.85 28.6 M180.5 28.9 Q181.95 33.8 183.0 40.45 183.95 46.65 184.05 51.25 184.2 54.6 183.85 56.55 183.5 58.45 182.55 59.65 181.7 60.7 179.95 61.4 177.9 62.2 173.4 63.0 L158.85 65.0 142.05 66.45 128.5 67.05 123.7 66.85 121.5 66.2 Q120.05 65.55 119.1 63.8 118.05 62.1 117.25 59.1 116.4 55.85 115.75 51.2 115.1 46.6 114.85 41.8 114.45 34.5 115.15 30.6 115.55 28.55 116.35 27.3 117.2 26.0 119.15 25.1 121.05 24.25 124.85 23.4 L137.9 21.35 153.25 19.85 166.65 19.3 173.2 19.65 Q175.05 20.0 176.15 20.7 177.25 21.45 178.15 22.95 179.4 25.0 180.5 28.9" fill="#000000" fill-rule="evenodd" stroke="none"/>
    <path d="M176.85 28.6 Q178.15 33.05 179.2 39.25 180.2 45.35 180.35 50.05 180.55 55.15 179.65 56.2 178.75 57.35 170.3 58.7 L151.9 60.9 133.2 62.15 123.2 61.85 Q121.85 61.15 120.65 56.35 119.6 52.0 119.0 45.75 118.35 39.7 118.45 34.85 118.55 29.6 119.45 28.3 120.4 26.9 128.6 25.45 135.8 24.1 146.35 23.1 L164.3 21.95 Q172.7 21.85 174.05 22.75 175.4 23.6 176.85 28.6" fill="#ffffff" fill-rule="evenodd" stroke="none"/>
  </g>
</svg>
