<?xml version="1.0" encoding="UTF-8" standalone="no"?>
<svg xmlns:ffdec="https://www.free-decompiler.com/flash" xmlns:xlink="http://www.w3.org/1999/xlink" ffdec:objectType="shape" height="30.3px" width="114.55px" xmlns="http://www.w3.org/2000/svg">
  <g transform="matrix(1.0, 0.0, 0.0, 1.0, 59.75, 15.0)">
    <path d="M7.6 -13.0 L1.85 -13.05 -8.35 -13.1 -11.05 -13.1 -14.75 -13.1 -18.1 -13.15 -21.1 -13.15 -23.9 -13.15 -28.95 -13.15 -39.4 -13.05 -43.3 -13.0 -44.8 -12.95 -46.6 -12.9 -53.2 -12.35 -53.5 -11.65 -54.3 -8.15 Q-54.85 -4.8 -54.8 -0.95 -54.75 3.15 -54.1 6.2 L-53.95 6.9 -53.5 8.25 -52.6 10.25 -52.4 10.55 -46.6 11.15 -44.8 11.25 -43.3 11.3 -39.4 11.4 -34.75 11.5 -28.95 11.65 -21.1 11.8 -18.1 11.85 -14.75 11.9 -11.05 11.9 -8.35 11.9 1.85 11.95 7.6 12.0 10.9 12.0 14.2 12.0 17.25 12.0 23.5 12.0 24.5 12.0 27.4 12.0 34.0 11.95 37.2 11.95 39.2 11.9 41.15 11.8 43.0 11.7 43.2 11.7 44.5 11.55 44.6 11.45 45.55 10.25 46.5 8.25 46.65 7.9 47.3 6.2 Q48.25 3.45 48.9 -0.1 49.6 -4.0 49.65 -7.35 49.7 -10.25 49.35 -11.65 L49.3 -11.7 44.6 -12.2 43.2 -12.3 43.0 -12.3 41.15 -12.4 39.2 -12.5 37.2 -12.55 34.0 -12.6 31.2 -12.65 27.4 -12.7 24.5 -12.75 23.5 -12.75 14.2 -12.9 10.9 -12.95 7.6 -13.0 M10.9 -14.8 L14.2 -14.75 23.5 -14.65 24.5 -14.6 27.4 -14.6 34.0 -14.45 37.2 -14.4 39.2 -14.3 41.15 -14.25 43.0 -14.2 43.1 -14.2 43.2 -14.2 44.6 -14.1 Q52.35 -13.5 53.35 -12.8 L54.25 -11.65 Q55.55 -8.55 53.75 1.0 L52.55 6.2 51.9 8.25 51.1 10.25 Q49.4 13.85 47.15 14.45 L44.6 14.9 43.2 15.05 43.0 15.05 41.15 15.1 39.2 15.2 37.2 15.25 34.0 15.25 27.4 15.3 24.5 15.3 23.5 15.3 14.2 15.3 10.9 15.25 7.6 15.25 1.85 15.2 -8.35 15.15 -11.05 15.1 -11.25 15.1 -14.75 15.1 -18.1 15.05 -21.1 15.0 -28.95 14.9 -39.4 14.7 -43.3 14.6 -44.8 14.55 -46.6 14.45 -55.15 13.35 Q-57.1 12.85 -58.2 10.25 L-58.85 8.25 -59.3 6.2 Q-59.7 3.75 -59.75 0.45 -59.95 -8.2 -58.4 -11.65 -57.95 -12.75 -57.3 -13.3 -55.9 -14.45 -46.6 -14.8 L-44.8 -14.85 -43.3 -14.9 -39.4 -14.95 -28.95 -15.0 -21.1 -15.0 -18.1 -15.0 -14.75 -15.0 -11.05 -14.95 -8.35 -14.95 -5.1 -14.95 1.85 -14.9 7.6 -14.85 10.9 -14.8" fill="#036b47" fill-rule="evenodd" stroke="none"/>
    <path d="M7.6 -13.0 L10.9 -12.95 14.2 -12.9 23.5 -12.75 24.5 -12.75 27.4 -12.7 31.2 -12.65 34.0 -12.6 37.2 -12.55 39.2 -12.5 41.15 -12.4 43.0 -12.3 43.2 -12.3 44.6 -12.2 49.3 -11.7 49.35 -11.65 Q49.7 -10.25 49.65 -7.35 49.6 -4.0 48.9 -0.1 48.25 3.45 47.3 6.2 L46.65 7.9 46.5 8.25 45.55 10.25 44.6 11.45 44.5 11.55 43.2 11.7 43.0 11.7 41.15 11.8 39.2 11.9 37.2 11.95 34.0 11.95 27.4 12.0 24.5 12.0 23.5 12.0 17.25 12.0 14.2 12.0 10.9 12.0 7.6 12.0 1.85 11.95 -8.35 11.9 -11.05 11.9 -14.75 11.9 -18.1 11.85 -21.1 11.8 -28.95 11.65 -34.75 11.5 -39.4 11.4 -43.3 11.3 -44.8 11.25 -46.6 11.15 -52.4 10.55 -52.6 10.25 -53.5 8.25 -53.95 6.9 -54.1 6.2 Q-54.75 3.15 -54.8 -0.95 -54.85 -4.8 -54.3 -8.15 L-53.5 -11.65 -53.2 -12.35 -46.6 -12.9 -44.8 -12.95 -43.3 -13.0 -39.4 -13.05 -28.95 -13.15 -23.9 -13.15 -21.1 -13.15 -18.1 -13.15 -14.75 -13.1 -11.05 -13.1 -8.35 -13.1 1.85 -13.05 7.6 -13.0" fill="#3db24a" fill-rule="evenodd" stroke="none"/>
  </g>
</svg>
