<?xml version="1.0" encoding="UTF-8" standalone="no"?>
<svg xmlns:ffdec="https://www.free-decompiler.com/flash" xmlns:xlink="http://www.w3.org/1999/xlink" ffdec:objectType="shape" height="83.35px" width="63.5px" xmlns="http://www.w3.org/2000/svg">
  <g transform="matrix(1.0, 0.0, 0.0, 1.0, 31.75, 41.65)">
    <path d="M29.95 -6.7 L11.1 -12.25 0.0 -28.45 -11.1 -12.25 -29.95 -6.7 -17.95 8.9 -18.5 28.5 0.0 21.95 18.5 28.5 18.0 8.9 29.95 -6.7 M31.75 -41.65 L31.75 41.7 -31.75 41.7 -31.75 -41.65 31.75 -41.65" fill="#fffaa5" fill-rule="evenodd" stroke="none"/>
    <path d="M29.95 -6.7 L18.0 8.9 18.5 28.5 0.0 21.95 -18.5 28.5 -17.95 8.9 -29.95 -6.7 -11.1 -12.25 0.0 -28.45 11.1 -12.25 29.95 -6.7" fill="#f6e552" fill-rule="evenodd" stroke="none"/>
  </g>
</svg>
