<?xml version="1.0" encoding="UTF-8" standalone="no"?>
<svg xmlns:ffdec="https://www.free-decompiler.com/flash" xmlns:xlink="http://www.w3.org/1999/xlink" ffdec:objectType="shape" height="83.35px" width="63.5px" xmlns="http://www.w3.org/2000/svg">
  <g transform="matrix(1.0, 0.0, 0.0, 1.0, 31.75, 41.65)">
    <path d="M20.45 20.45 Q23.1 17.8 23.1 14.05 23.1 10.25 20.45 7.6 17.75 4.9 14.0 4.9 10.2 4.9 7.55 7.6 4.9 10.25 4.9 14.05 4.9 17.8 7.55 20.45 10.2 23.15 14.0 23.15 17.75 23.15 20.45 20.45 M14.0 -4.85 Q17.75 -4.85 20.45 -7.55 23.1 -10.2 23.1 -13.95 23.1 -17.75 20.45 -20.4 17.75 -23.1 14.0 -23.1 10.2 -23.1 7.55 -20.4 4.9 -17.75 4.9 -13.95 4.9 -10.2 7.55 -7.55 10.2 -4.85 14.0 -4.85 M31.75 -41.65 L31.75 41.7 -31.75 41.7 -31.75 -41.65 31.75 -41.65 M-7.55 20.45 Q-4.9 17.8 -4.9 14.05 -4.9 10.25 -7.55 7.6 -10.25 4.9 -14.0 4.9 -17.8 4.9 -20.45 7.6 -23.1 10.25 -23.1 14.05 -23.1 17.8 -20.45 20.45 -17.8 23.15 -14.0 23.15 -10.25 23.15 -7.55 20.45 M-14.0 -4.85 Q-10.25 -4.85 -7.55 -7.55 -4.9 -10.2 -4.9 -13.95 -4.9 -17.75 -7.55 -20.4 -10.25 -23.1 -14.0 -23.1 -17.8 -23.1 -20.45 -20.4 -23.1 -17.75 -23.1 -13.95 -23.1 -10.2 -20.45 -7.55 -17.8 -4.85 -14.0 -4.85" fill="#969799" fill-rule="evenodd" stroke="none"/>
    <path d="M14.0 -4.85 Q10.2 -4.85 7.55 -7.55 4.9 -10.2 4.9 -13.95 4.9 -17.75 7.55 -20.4 10.2 -23.1 14.0 -23.1 17.75 -23.1 20.45 -20.4 23.1 -17.75 23.1 -13.95 23.1 -10.2 20.45 -7.55 17.75 -4.85 14.0 -4.85 M20.45 20.45 Q17.75 23.15 14.0 23.15 10.2 23.15 7.55 20.45 4.9 17.8 4.9 14.05 4.9 10.25 7.55 7.6 10.2 4.9 14.0 4.9 17.75 4.9 20.45 7.6 23.1 10.25 23.1 14.05 23.1 17.8 20.45 20.45 M-14.0 -4.85 Q-17.8 -4.85 -20.45 -7.55 -23.1 -10.2 -23.1 -13.95 -23.1 -17.75 -20.45 -20.4 -17.8 -23.1 -14.0 -23.1 -10.25 -23.1 -7.55 -20.4 -4.9 -17.75 -4.9 -13.95 -4.9 -10.2 -7.55 -7.55 -10.25 -4.85 -14.0 -4.85 M-7.55 20.45 Q-10.25 23.15 -14.0 23.15 -17.8 23.15 -20.45 20.45 -23.1 17.8 -23.1 14.05 -23.1 10.25 -20.45 7.6 -17.8 4.9 -14.0 4.9 -10.25 4.9 -7.55 7.6 -4.9 10.25 -4.9 14.05 -4.9 17.8 -7.55 20.45" fill="#ffffff" fill-rule="evenodd" stroke="none"/>
  </g>
</svg>
