<?xml version="1.0" encoding="UTF-8" standalone="no"?>
<svg xmlns:ffdec="https://www.free-decompiler.com/flash" xmlns:xlink="http://www.w3.org/1999/xlink" ffdec:objectType="shape" height="83.35px" width="63.5px" xmlns="http://www.w3.org/2000/svg">
  <g transform="matrix(1.0, 0.0, 0.0, 1.0, 31.75, 41.65)">
    <path d="M26.2 -8.5 L8.1 -11.15 0.0 -27.6 -8.1 -11.15 -26.2 -8.5 -13.1 4.25 -16.2 22.3 0.0 13.8 16.2 22.3 13.1 4.25 26.2 -8.5 M31.75 -41.65 L31.75 41.7 -31.75 41.7 -31.75 -41.65 31.75 -41.65" fill="#969799" fill-rule="evenodd" stroke="none"/>
    <path d="M26.2 -8.5 L13.1 4.25 16.2 22.3 0.0 13.8 -16.2 22.3 -13.1 4.25 -26.2 -8.5 -8.1 -11.15 0.0 -27.6 8.1 -11.15 26.2 -8.5" fill="#ffffff" fill-rule="evenodd" stroke="none"/>
  </g>
</svg>
