<?xml version="1.0" encoding="UTF-8" standalone="no"?>
<svg xmlns:ffdec="https://www.free-decompiler.com/flash" xmlns:xlink="http://www.w3.org/1999/xlink" ffdec:objectType="shape" height="83.35px" width="63.5px" xmlns="http://www.w3.org/2000/svg">
  <g transform="matrix(1.0, 0.0, 0.0, 1.0, 31.75, 41.65)">
    <path d="M16.85 -16.8 Q9.85 -23.8 0.0 -23.8 -9.9 -23.8 -16.85 -16.8 -23.85 -9.85 -23.85 0.05 -23.85 9.85 -16.85 16.85 -9.9 23.85 0.0 23.85 9.85 23.85 16.85 16.85 23.8 9.85 23.8 0.05 23.8 -9.85 16.85 -16.8 M31.75 -41.65 L31.75 41.7 -31.75 41.7 -31.75 -41.65 31.75 -41.65" fill="#969799" fill-rule="evenodd" stroke="none"/>
    <path d="M16.85 -16.8 Q23.8 -9.85 23.8 0.05 23.8 9.85 16.85 16.85 9.85 23.85 0.0 23.85 -9.9 23.85 -16.85 16.85 -23.85 9.85 -23.85 0.05 -23.85 -9.85 -16.85 -16.8 -9.9 -23.8 0.0 -23.8 9.85 -23.8 16.85 -16.8" fill="#ffffff" fill-rule="evenodd" stroke="none"/>
  </g>
</svg>
