<?xml version="1.0" encoding="UTF-8" standalone="no"?>
<svg xmlns:ffdec="https://www.free-decompiler.com/flash" xmlns:xlink="http://www.w3.org/1999/xlink" ffdec:objectType="shape" height="101.3px" width="81.45px" xmlns="http://www.w3.org/2000/svg">
  <g transform="matrix(1.0, 0.0, 0.0, 1.0, 40.7, 50.7)">
    <path d="M33.75 -48.6 Q35.8 -48.55 37.2 -47.15 38.65 -45.75 38.65 -43.7 L38.65 43.6 Q38.65 45.65 37.2 47.1 35.75 48.5 33.75 48.5 L-33.7 48.5 Q-35.75 48.5 -37.15 47.1 -38.6 45.65 -38.6 43.6 L-38.6 -43.7 Q-38.6 -45.75 -37.15 -47.15 -35.75 -48.55 -33.7 -48.6 L33.75 -48.6 M31.8 -38.9 L31.8 -41.7 17.8 -41.7 6.05 -41.7 -6.0 -41.7 -17.75 -41.7 -31.7 -41.7 -31.7 -38.9 -31.7 -22.75 -31.7 -11.0 -31.7 -2.45 -31.7 6.35 -31.7 14.9 -31.7 26.6 -31.7 41.65 -30.85 41.65 -16.15 41.65 -5.45 41.65 5.5 41.65 16.15 41.65 30.85 41.65 31.8 41.65 31.8 26.6 31.8 14.9 31.8 6.35 31.8 -2.45 31.8 -11.0 31.8 -22.7 31.8 -38.9 M19.0 -4.25 Q19.2 0.25 14.75 3.6 16.8 6.9 13.85 9.7 12.6 10.85 11.2 10.9 9.7 11.0 8.7 9.75 10.65 12.85 11.15 15.6 11.5 17.5 11.5 22.05 L8.35 22.05 Q8.1 14.35 1.7 11.3 -0.3 10.3 -2.7 9.9 L-4.7 9.75 Q-11.85 10.7 -15.7 8.4 -19.25 6.3 -19.1 2.2 -19.0 -1.8 -15.45 -6.2 -11.7 -10.85 -5.3 -14.2 -0.05 -16.95 5.85 -16.0 11.15 -15.2 15.0 -11.75 18.8 -8.3 19.0 -4.25 M10.55 -11.3 Q6.15 -14.05 0.45 -12.7 -4.4 -11.5 -8.95 -7.7 -13.15 -4.15 -14.95 -0.35 -16.75 3.7 -14.65 5.45 -12.7 7.1 -7.45 7.15 L-2.6 6.85 Q1.35 6.75 5.1 10.2 6.95 11.9 8.0 13.65 L8.3 13.85 7.15 11.65 Q5.6 9.05 3.8 7.1 8.9 10.15 11.15 7.6 13.15 5.4 11.85 2.3 15.15 0.5 15.6 -3.25 16.15 -7.85 10.55 -11.3" fill="#ffffff" fill-rule="evenodd" stroke="none"/>
    <path d="M33.75 -48.6 L-33.7 -48.6 Q-35.75 -48.55 -37.15 -47.15 -38.6 -45.75 -38.6 -43.7 L-38.6 43.6 Q-38.6 45.65 -37.15 47.1 -35.75 48.5 -33.7 48.5 L33.75 48.5 Q35.75 48.5 37.2 47.1 38.65 45.65 38.65 43.6 L38.65 -43.7 Q38.65 -45.75 37.2 -47.15 35.8 -48.55 33.75 -48.6 M17.8 -41.7 L31.8 -41.7 31.8 -38.9 15.85 -18.4 19.1 -15.85 20.7 -14.15 31.8 -22.7 31.8 -11.0 24.05 -7.85 Q24.9 -4.65 24.4 -1.4 L31.8 -2.45 31.8 6.35 21.55 4.9 21.1 5.5 Q21.3 8.0 20.35 10.25 L31.8 14.9 31.8 26.6 16.75 14.95 Q17.35 18.15 17.35 22.05 L17.0 23.85 30.85 41.65 16.15 41.65 10.55 27.8 8.35 27.8 Q6.55 27.8 5.1 26.8 3.75 25.85 3.1 24.25 L5.5 41.65 -5.45 41.65 -1.9 16.1 -3.8 15.6 -4.65 15.5 -5.55 15.6 -16.15 41.65 -30.85 41.65 -10.55 15.55 Q-13.7 15.2 -15.95 14.35 L-31.7 26.6 -31.7 14.9 -21.75 10.85 Q-23.95 8.45 -24.6 5.35 L-31.7 6.35 -31.7 -2.45 -24.35 -1.4 Q-23.65 -4.15 -22.0 -7.0 L-31.7 -11.0 -31.7 -22.75 -18.0 -12.05 Q-16.15 -14.0 -13.75 -15.75 L-31.7 -38.9 -31.7 -41.7 -17.75 -41.7 -8.5 -19.0 Q-6.0 -20.25 -3.15 -21.0 L-6.0 -41.7 6.05 -41.7 3.35 -21.9 9.4 -21.15 17.8 -41.7 M19.0 -4.25 Q18.8 -8.3 15.0 -11.75 11.15 -15.2 5.85 -16.0 -0.05 -16.95 -5.3 -14.2 -11.7 -10.85 -15.45 -6.2 -19.0 -1.8 -19.1 2.2 -19.25 6.3 -15.7 8.4 -11.85 10.7 -4.7 9.75 L-2.7 9.9 Q-0.3 10.3 1.7 11.3 8.1 14.35 8.35 22.05 L11.5 22.05 Q11.5 17.5 11.15 15.6 10.65 12.85 8.7 9.75 9.7 11.0 11.2 10.9 12.6 10.85 13.85 9.7 16.8 6.9 14.75 3.6 19.2 0.25 19.0 -4.25 M33.75 -50.7 Q36.65 -50.7 38.7 -48.65 40.75 -46.6 40.75 -43.7 L40.75 43.6 Q40.75 46.55 38.7 48.55 36.65 50.6 33.75 50.6 L-33.7 50.6 Q-36.6 50.6 -38.65 48.55 -40.7 46.55 -40.7 43.6 L-40.7 -43.7 Q-40.7 -46.6 -38.65 -48.65 -36.6 -50.7 -33.7 -50.7 L33.75 -50.7" fill="#616163" fill-rule="evenodd" stroke="none"/>
    <path d="M17.8 -41.7 L9.4 -21.15 3.35 -21.9 6.05 -41.7 17.8 -41.7 M-6.0 -41.7 L-3.15 -21.0 Q-6.0 -20.25 -8.5 -19.0 L-17.75 -41.7 -6.0 -41.7 M-31.7 -38.9 L-13.75 -15.75 Q-16.15 -14.0 -18.0 -12.05 L-31.7 -22.75 -31.7 -38.9 M-31.7 -11.0 L-22.0 -7.0 Q-23.65 -4.15 -24.35 -1.4 L-31.7 -2.45 -31.7 -11.0 M-31.7 6.35 L-24.6 5.35 Q-23.95 8.45 -21.75 10.85 L-31.7 14.9 -31.7 6.35 M-31.7 26.6 L-15.95 14.35 Q-13.7 15.2 -10.55 15.55 L-30.85 41.65 -31.7 41.65 -31.7 26.6 M-16.15 41.65 L-5.55 15.6 -4.65 15.5 -3.8 15.6 -1.9 16.1 -5.45 41.65 -16.15 41.65 M5.5 41.65 L3.1 24.25 Q3.75 25.85 5.1 26.8 6.55 27.8 8.35 27.8 L10.55 27.8 16.15 41.65 5.5 41.65 M30.85 41.65 L17.0 23.85 17.35 22.05 Q17.35 18.15 16.75 14.95 L31.8 26.6 31.8 41.65 30.85 41.65 M31.8 14.9 L20.35 10.25 Q21.3 8.0 21.1 5.5 L21.55 4.9 31.8 6.35 31.8 14.9 M31.8 -2.45 L24.4 -1.4 Q24.9 -4.65 24.05 -7.85 L31.8 -11.0 31.8 -2.45 M31.8 -22.7 L20.7 -14.15 19.1 -15.85 15.85 -18.4 31.8 -38.9 31.8 -22.7" fill="#a9aaad" fill-rule="evenodd" stroke="none"/>
    <path d="M10.55 -11.3 Q16.15 -7.85 15.6 -3.25 15.15 0.5 11.85 2.3 13.15 5.4 11.15 7.6 8.9 10.15 3.8 7.1 5.6 9.05 7.15 11.65 L8.3 13.85 8.0 13.65 Q6.95 11.9 5.1 10.2 1.35 6.75 -2.6 6.85 L-7.45 7.15 Q-12.7 7.1 -14.65 5.45 -16.75 3.7 -14.95 -0.35 -13.15 -4.15 -8.95 -7.7 -4.4 -11.5 0.45 -12.7 6.15 -14.05 10.55 -11.3" fill="#969799" fill-rule="evenodd" stroke="none"/>
  </g>
</svg>
