<?xml version="1.0" encoding="UTF-8" standalone="no"?>
<svg xmlns:ffdec="https://www.free-decompiler.com/flash" xmlns:xlink="http://www.w3.org/1999/xlink" ffdec:objectType="shape" height="101.3px" width="81.5px" xmlns="http://www.w3.org/2000/svg">
  <g transform="matrix(1.0, 0.0, 0.0, 1.0, 40.75, 50.65)">
    <path d="M33.75 -48.55 Q35.75 -48.55 37.2 -47.1 38.65 -45.7 38.65 -43.65 L38.65 43.65 Q38.65 45.7 37.2 47.15 35.75 48.55 33.75 48.55 L-33.75 48.55 Q-35.8 48.55 -37.2 47.15 -38.65 45.7 -38.65 43.65 L-38.65 -43.65 Q-38.65 -45.7 -37.2 -47.1 -35.8 -48.55 -33.75 -48.55 L33.75 -48.55" fill="#ffffff" fill-rule="evenodd" stroke="none"/>
    <path d="M33.75 -48.55 L-33.75 -48.55 Q-35.8 -48.55 -37.2 -47.1 -38.65 -45.7 -38.65 -43.65 L-38.65 43.65 Q-38.65 45.7 -37.2 47.15 -35.8 48.55 -33.75 48.55 L33.75 48.55 Q35.75 48.55 37.2 47.15 38.65 45.7 38.65 43.65 L38.65 -43.65 Q38.65 -45.7 37.2 -47.1 35.75 -48.55 33.75 -48.55 M33.75 -50.65 Q36.65 -50.65 38.65 -48.6 40.75 -46.5 40.75 -43.65 L40.75 43.65 Q40.75 46.6 38.65 48.6 36.65 50.65 33.75 50.65 L-33.75 50.65 Q-36.6 50.65 -38.7 48.6 -40.75 46.6 -40.75 43.65 L-40.75 -43.65 Q-40.75 -46.5 -38.7 -48.6 -36.6 -50.65 -33.75 -50.65 L33.75 -50.65" fill="#616163" fill-rule="evenodd" stroke="none"/>
  </g>
</svg>
