<?xml version="1.0" encoding="UTF-8" standalone="no"?>
<svg xmlns:ffdec="https://www.free-decompiler.com/flash" xmlns:xlink="http://www.w3.org/1999/xlink" ffdec:objectType="shape" height="18.3px" width="24.2px" xmlns="http://www.w3.org/2000/svg">
  <g transform="matrix(1.0, 0.0, 0.0, 1.0, 12.1, 9.15)">
    <path d="M-11.1 -2.0 Q-11.1 -1.25 -10.7 -0.4 -9.75 -1.85 -7.85 -3.0 -5.65 -4.3 -3.4 -4.7 -2.05 -7.7 0.1 -8.4 L3.9 -8.65 Q7.5 -8.65 9.55 -6.85 11.6 -5.05 11.6 -1.85 L11.6 -1.7 11.6 -1.65 11.6 -1.55 Q11.5 3.3 7.75 6.1 4.4 8.65 -0.15 8.65 -6.0 8.65 -9.1 6.65 -11.6 5.05 -11.6 2.7 -11.6 1.0 -10.7 -0.4 L-9.15 1.75 Q-8.0 3.0 -6.65 3.6 L-6.75 2.7 Q-6.75 -0.6 -2.7 -3.8 L-1.25 -4.85 -1.6 -4.85 -3.4 -4.7 M1.1 -6.1 L0.25 -5.75 -1.0 -4.85 Q1.95 -4.7 3.9 -3.25 L3.9 -3.4 Q3.9 -6.35 2.25 -6.35 L1.1 -6.1 Q2.75 -6.85 4.3 -6.85 6.5 -6.85 6.5 -3.4 6.5 -1.9 6.1 -0.45 L6.4 0.45 Q10.05 -1.9 11.35 -2.0 11.6 -2.25 11.6 -1.7 M0.25 -5.75 L-1.25 -4.85 -1.0 -4.85 -2.7 -3.0 Q-5.5 0.5 -5.5 4.0 L-4.1 4.15 Q-1.0 4.15 1.4 2.1 3.85 -0.05 3.9 -3.25 L4.7 -2.55 Q5.65 -1.55 6.1 -0.45 L5.6 0.95 6.05 0.65 6.4 0.45 6.5 1.65 6.35 2.95 Q11.5 0.55 11.6 -1.55 M-6.65 3.6 L-5.5 4.0 -5.4 4.95 -2.1 5.4 1.75 4.75 Q2.25 3.2 5.6 0.95 L3.65 4.1 6.0 3.1 6.35 2.95 Q5.6 5.25 2.15 5.9 L2.0 5.8 Q-0.6 8.15 -2.6 8.15 -4.25 8.15 -5.0 6.4 L-5.4 4.95 -6.25 4.4 -6.65 3.6 M2.9 4.9 L3.65 4.1 1.75 4.75 1.65 5.25 Q1.65 5.65 1.8 5.75 L2.0 5.8 2.9 4.9 Z" fill="none" stroke="#000000" stroke-linecap="round" stroke-linejoin="round" stroke-width="1.0"/>
  </g>
</svg>
