<?xml version="1.0" encoding="UTF-8" standalone="no"?>
<svg xmlns:ffdec="https://www.free-decompiler.com/flash" xmlns:xlink="http://www.w3.org/1999/xlink" ffdec:objectType="shape" height="21.6px" width="24.2px" xmlns="http://www.w3.org/2000/svg">
  <g transform="matrix(1.0, 0.0, 0.0, 1.0, 12.1, 10.8)">
    <path d="M4.7 -8.55 L3.45 -8.3 4.85 -7.9 5.7 -8.2 4.7 -8.55 M6.25 -7.5 L6.45 -7.1 8.05 -5.7 Q9.7 -3.9 10.2 -1.6 L10.65 -2.45 Q11.6 -4.3 11.6 -6.2 11.6 -7.25 11.1 -7.8 10.35 -8.55 8.25 -8.55 L5.7 -8.2 6.25 -7.5 M6.45 -7.1 L6.75 -5.45 Q6.75 -0.75 4.85 3.4 L6.25 2.4 Q8.85 0.45 10.2 -1.6 L10.35 0.3 Q10.35 4.7 5.75 7.75 3.25 9.4 0.85 10.0 4.9 9.65 7.4 7.55 11.05 4.4 10.65 -2.45 M4.85 -7.9 L6.45 -7.1 M0.85 10.0 L-1.65 10.3 Q-4.3 10.3 -5.6 9.25 -7.8 8.4 -9.35 6.7 -11.6 4.25 -11.6 1.55 -11.6 -3.65 -6.5 -6.45 -3.9 -7.9 -1.15 -8.35 1.0 -10.3 3.15 -10.3 3.65 -10.2 3.65 -9.55 L3.4 -8.35 3.45 -8.3 3.35 -8.3 2.8 -7.0 Q3.85 -7.55 4.85 -7.9 M-9.85 1.45 L-6.7 1.5 Q-6.3 -1.85 -3.5 -5.7 L-1.15 -8.35 1.25 -8.55 3.4 -8.35 3.35 -8.3 Q2.75 -8.05 2.2 -7.6 L2.8 -7.0 3.15 -6.45 Q3.9 -5.15 3.9 -3.55 3.9 -1.1 2.85 2.0 L1.6 5.2 4.85 3.4 4.2 4.7 Q2.1 8.5 1.0 8.5 -0.2 8.5 -2.0 6.15 L-3.2 6.2 Q-5.0 6.2 -5.75 5.65 L-6.6 6.4 -6.9 6.65 Q-6.75 7.8 -6.25 8.5 L-5.6 9.25 Q-3.45 10.05 -0.65 10.05 L0.85 10.0 M0.9 -8.05 Q-0.55 -8.05 -2.15 -6.5 -4.2 -4.55 -4.4 -1.25 L-1.15 -4.4 0.2 -5.4 Q1.15 -6.85 2.2 -7.6 L0.9 -8.05 M0.2 -5.4 L-1.45 -2.4 -3.7 2.2 -2.9 2.45 Q-1.25 0.3 0.4 -2.55 L2.8 -7.0 0.2 -5.4 M-4.4 -1.25 L-4.45 -0.35 -4.1 2.05 -3.7 2.2 -3.95 2.65 -3.65 3.4 -2.9 2.45 -2.75 2.5 Q0.75 3.75 1.05 5.4 L1.6 5.2 0.9 6.45 1.05 5.4 Q-0.5 5.95 -2.0 6.15 L-2.15 5.95 -3.65 3.4 -5.75 5.65 -5.85 5.6 -6.6 6.4 M-4.1 2.05 L-3.95 2.65 -5.85 5.6 -6.0 5.45 Q-6.65 4.8 -6.7 3.15 L-7.0 5.3 -6.9 6.65 M-6.15 1.6 L-6.7 1.5 -6.75 2.55 -6.7 3.15 -6.15 1.6 Q-5.55 0.15 -4.4 -1.25 M-6.15 1.6 L-4.1 2.05" fill="none" stroke="#000000" stroke-linecap="round" stroke-linejoin="round" stroke-width="1.0"/>
  </g>
</svg>
