<?xml version="1.0" encoding="UTF-8" standalone="no"?>
<svg xmlns:ffdec="https://www.free-decompiler.com/flash" xmlns:xlink="http://www.w3.org/1999/xlink" ffdec:objectType="shape" height="22.4px" width="25.85px" xmlns="http://www.w3.org/2000/svg">
  <g transform="matrix(1.0, 0.0, 0.0, 1.0, 12.95, 11.2)">
    <path d="M-12.35 2.1 Q-12.1 2.6 -10.7 2.6 L-7.55 2.05 -8.0 1.8 Q-6.95 0.75 -2.45 -1.5 L-1.9 -1.75 -0.3 -4.75 Q-4.3 -4.45 -8.25 -2.3 -12.35 0.0 -12.35 1.55 L-12.35 2.1 M-7.4 2.05 L-3.55 1.45 -3.2 0.7 -2.85 0.0 Q-5.45 1.4 -7.55 2.05 L-7.4 2.05 M2.7 -10.15 L-0.3 -4.75 0.9 -4.8 1.7 -4.75 2.05 -5.7 Q3.45 -9.4 3.45 -10.7 L2.7 -10.15 M4.15 -4.45 Q6.1 -6.0 6.25 -6.85 L6.0 -6.85 Q4.1 -6.05 2.4 -4.7 L4.15 -4.45 Q4.95 -4.25 5.6 -3.9 L6.25 -3.55 6.7 -3.25 Q10.85 -2.8 10.85 1.05 L10.75 2.25 Q11.8 2.55 12.4 3.6 11.25 4.4 9.15 5.4 L8.85 5.75 11.4 6.9 M4.15 -4.45 L3.35 -3.8 4.85 -4.05 5.6 -3.9 M-1.9 -1.75 L0.3 -2.75 1.4 -3.85 1.7 -4.75 2.4 -4.7 1.4 -3.85 1.2 -3.1 3.35 -3.8 0.95 -2.2 0.85 -1.7 Q3.2 -3.3 5.5 -3.3 L6.55 -3.25 6.25 -3.55 M-0.75 -1.55 L-1.25 -0.85 -0.3 -1.45 0.95 -2.2 1.2 -3.1 0.3 -2.75 -0.75 -1.55 M-4.5 3.85 L-2.75 1.6 -2.5 1.15 -3.55 1.45 Q-7.5 8.9 -7.5 9.7 L-7.5 10.2 Q-7.3 10.7 -6.15 10.7 L-3.9 10.3 -3.65 9.95 -2.95 9.4 -3.2 9.15 Q-4.0 8.25 -4.0 6.9 -4.0 4.2 -2.75 1.6 L-2.25 1.05 -2.5 1.15 -1.25 -0.85 -2.85 0.0 -1.9 -1.75 M-2.95 9.4 L-0.6 7.25 -0.6 7.15 Q-0.6 5.9 1.05 3.5 L0.85 3.55 -0.1 3.95 -2.9 5.4 -3.4 5.65 Q-2.65 4.95 -0.1 3.95 L1.2 3.25 1.45 2.85 1.8 2.4 Q0.8 1.4 0.7 0.25 L-1.9 0.95 -2.25 1.05 0.85 -1.7 0.65 -0.1 0.7 0.25 5.5 -1.0 5.7 -1.05 7.0 -1.35 7.0 -1.9 6.55 -3.25 6.7 -3.25 Q7.5 -2.55 7.85 -1.55 L9.35 -1.55 8.0 -0.6 8.0 -0.25 7.7 2.1 8.95 2.05 10.7 2.2 10.75 2.25 Q10.4 3.9 9.15 5.4 L8.6 5.7 8.85 5.75 6.5 7.7 Q2.75 10.2 -0.6 10.2 L-2.3 9.85 -2.7 9.95 -4.0 10.45 -3.9 10.3 -2.7 9.95 -2.4 9.8 -2.95 9.4 M1.05 3.5 L2.5 3.05 2.15 2.75 Q1.7 2.95 1.2 3.25 L1.05 3.5 M3.2 3.5 L3.9 2.7 2.5 3.05 3.2 3.5 4.1 4.05 5.35 2.4 3.9 2.7 4.95 1.2 2.15 2.75 1.8 2.4 Q3.6 -0.1 5.0 -0.8 L5.5 -1.0 M2.9 5.4 L-0.15 8.3 Q0.2 8.7 0.9 8.7 4.45 7.1 6.25 4.85 L5.15 4.5 4.1 4.05 2.9 5.4 M4.95 1.2 Q5.75 -0.15 5.75 -1.05 L5.7 -1.05 M7.0 -1.35 L6.5 0.3 8.0 -0.6 7.85 -1.55 7.75 -1.55 7.0 -1.35 M6.5 0.3 L5.35 2.4 7.7 2.1 Q7.25 3.55 6.25 4.85 L8.6 5.7 2.65 8.1 -2.3 9.85 -2.4 9.8 -0.15 8.3 -0.6 7.25 1.15 5.6 3.2 3.5 M6.5 0.3 L4.95 1.2" fill="none" stroke="#000000" stroke-linecap="round" stroke-linejoin="round" stroke-width="1.0"/>
  </g>
</svg>
