<?xml version="1.0" encoding="UTF-8" standalone="no"?>
<svg xmlns:ffdec="https://www.free-decompiler.com/flash" xmlns:xlink="http://www.w3.org/1999/xlink" ffdec:objectType="shape" height="740.45px" width="677.0px" xmlns="http://www.w3.org/2000/svg">
  <g transform="matrix(1.0, 0.0, 0.0, 1.0, 0.0, -33.8)">
    <path d="M105.1 363.65 L44.7 469.65 108.5 370.0 343.75 332.6 105.1 363.65 M595.6 494.8 L519.25 773.35 301.8 589.1 422.7 309.7 595.6 494.8 M299.1 587.8 L0.0 531.0 101.2 360.05 420.15 308.1 299.1 587.8 M283.2 560.45 L23.85 523.95 292.5 577.4 386.95 356.3 283.2 560.45 M151.75 640.65 L1.8 534.4 299.35 590.9 515.65 774.25 151.75 640.65 M219.55 171.6 L185.75 234.6 221.7 174.25 353.85 107.65 219.55 171.6 M485.2 33.8 L538.85 33.8 470.85 190.9 142.25 290.7 215.2 167.45 485.2 33.8 M467.25 184.7 L525.85 36.3 456.5 175.7 160.05 276.55 467.25 184.7 M622.85 384.2 L498.55 386.8 421.8 304.0 207.0 339.6 142.7 293.35 470.0 196.2 622.85 384.2 M542.1 33.8 L576.85 33.8 677.0 197.8 626.4 382.5 473.15 193.1 542.1 33.8" fill="#ffffff" fill-rule="evenodd" stroke="none"/>
  </g>
</svg>
