<?xml version="1.0" encoding="UTF-8" standalone="no"?>
<svg xmlns:ffdec="https://www.free-decompiler.com/flash" xmlns:xlink="http://www.w3.org/1999/xlink" ffdec:objectType="shape" height="56.15px" width="56.15px" xmlns="http://www.w3.org/2000/svg">
  <g transform="matrix(1.0, 0.0, 0.0, 1.0, 28.55, 28.15)">
    <path d="M27.6 16.1 Q27.6 21.0 24.15 24.55 20.6 28.0 15.7 28.0 L-16.65 28.0 Q-21.55 28.0 -25.1 24.55 -28.55 21.0 -28.55 16.1 L-28.55 -16.25 Q-28.55 -21.15 -25.1 -24.7 -21.55 -28.15 -16.65 -28.15 L15.7 -28.15 Q20.6 -28.15 24.15 -24.7 27.6 -21.15 27.6 -16.25 L27.6 16.1" fill="#95ca98" fill-rule="evenodd" stroke="none"/>
    <path d="M-9.95 17.3 L-17.9 9.35 8.95 -17.5 16.9 -9.55 -9.95 17.3" fill="#ffffff" fill-rule="evenodd" stroke="none"/>
    <path d="M-9.95 17.3 L-17.9 9.35 8.95 -17.5 16.9 -9.55 -9.95 17.3 Z" fill="none" stroke="#ffffff" stroke-linecap="butt" stroke-linejoin="miter-clip" stroke-miterlimit="4.0" stroke-width="1.0"/>
  </g>
</svg>
