<?xml version="1.0" encoding="UTF-8" standalone="no"?>
<svg xmlns:ffdec="https://www.free-decompiler.com/flash" xmlns:xlink="http://www.w3.org/1999/xlink" ffdec:objectType="shape" height="40.85px" width="40.85px" xmlns="http://www.w3.org/2000/svg">
  <g transform="matrix(1.0, 0.0, 0.0, 1.0, 20.9, 20.5)">
    <path d="M19.95 11.7 Q19.95 15.25 17.4 17.8 14.85 20.35 11.3 20.35 L-12.25 20.35 Q-15.8 20.35 -18.4 17.8 -20.9 15.25 -20.9 11.7 L-20.9 -11.85 Q-20.9 -15.4 -18.4 -18.0 -15.8 -20.5 -12.25 -20.5 L11.3 -20.5 Q14.85 -20.5 17.4 -18.0 19.95 -15.4 19.95 -11.85 L19.95 11.7" fill="#95ca98" fill-rule="evenodd" stroke="none"/>
    <path d="M-7.35 12.6 L-13.2 6.75 6.35 -12.8 12.2 -6.95 -7.35 12.6" fill="#ffffff" fill-rule="evenodd" stroke="none"/>
    <path d="M-7.35 12.6 L-13.2 6.75 6.35 -12.8 12.2 -6.95 -7.35 12.6 Z" fill="none" stroke="#ffffff" stroke-linecap="butt" stroke-linejoin="miter-clip" stroke-miterlimit="4.0" stroke-width="1.0"/>
  </g>
</svg>
