<?xml version="1.0" encoding="UTF-8" standalone="no"?>
<svg xmlns:ffdec="https://www.free-decompiler.com/flash" xmlns:xlink="http://www.w3.org/1999/xlink" ffdec:objectType="shape" height="51.0px" width="51.0px" xmlns="http://www.w3.org/2000/svg">
  <g transform="matrix(1.0, 0.0, 0.0, 1.0, 25.0, 25.6)">
    <path d="M26.0 14.6 Q26.0 19.05 22.85 22.25 19.65 25.4 15.2 25.4 L-14.2 25.4 Q-18.7 25.4 -21.85 22.25 -25.0 19.05 -25.0 14.6 L-25.0 -14.8 Q-25.0 -19.3 -21.85 -22.45 -18.7 -25.6 -14.2 -25.6 L15.2 -25.6 Q19.65 -25.6 22.85 -22.45 26.0 -19.3 26.0 -14.8 L26.0 14.6" fill="#ecd785" fill-rule="evenodd" stroke="none"/>
    <path d="M8.05 -13.7 L14.05 -7.65 6.55 -0.1 14.1 7.5 8.1 13.5 0.5 5.95 -7.05 13.5 -13.1 7.45 -5.55 -0.1 -13.15 -7.7 -7.1 -13.75 0.5 -6.15 8.05 -13.7" fill="#ffffff" fill-rule="evenodd" stroke="none"/>
    <path d="M8.05 -13.7 L14.05 -7.65 6.55 -0.1 14.1 7.5 8.1 13.5 0.5 5.95 -7.05 13.5 -13.1 7.45 -5.55 -0.1 -13.15 -7.7 -7.1 -13.75 0.5 -6.15 8.05 -13.7 Z" fill="none" stroke="#ffffff" stroke-linecap="butt" stroke-linejoin="miter-clip" stroke-miterlimit="4.0" stroke-width="2.0"/>
  </g>
</svg>
