<?xml version="1.0" encoding="UTF-8" standalone="no"?>
<svg xmlns:ffdec="https://www.free-decompiler.com/flash" xmlns:xlink="http://www.w3.org/1999/xlink" ffdec:objectType="shape" height="40.85px" width="40.85px" xmlns="http://www.w3.org/2000/svg">
  <g transform="matrix(1.0, 0.0, 0.0, 1.0, 19.9, 19.9)">
    <path d="M-11.25 -19.9 L12.3 -19.9 Q15.9 -19.9 18.45 -17.4 20.95 -14.85 20.95 -11.25 L20.95 12.3 Q20.95 15.85 18.45 18.4 15.9 20.95 12.3 20.95 L-11.25 20.95 Q-14.8 20.95 -17.35 18.4 -19.9 15.85 -19.9 12.3 L-19.9 -11.25 Q-19.9 -14.85 -17.35 -17.4 -14.8 -19.9 -11.25 -19.9" fill="#e59a83" fill-rule="evenodd" stroke="none"/>
    <path d="M-13.3 3.5 L-13.3 -2.55 -2.55 -2.55 -2.55 -13.7 3.7 -13.7 3.65 -2.55 14.35 -2.55 14.35 3.5 3.7 3.5 3.7 14.75 -2.55 14.75 -2.55 3.5 -13.3 3.5" fill="#ffffff" fill-rule="evenodd" stroke="none"/>
  </g>
</svg>
