<?xml version="1.0" encoding="UTF-8" standalone="no"?>
<svg xmlns:ffdec="https://www.free-decompiler.com/flash" xmlns:xlink="http://www.w3.org/1999/xlink" ffdec:objectType="shape" height="55.15px" width="55.15px" xmlns="http://www.w3.org/2000/svg">
  <g transform="matrix(1.0, 0.0, 0.0, 1.0, 27.05, 27.05)">
    <path d="M-15.35 -27.05 L16.45 -27.05 Q21.25 -27.05 24.7 -23.65 28.1 -20.2 28.1 -15.35 L28.1 16.45 Q28.1 21.25 24.7 24.7 21.25 28.1 16.45 28.1 L-15.35 28.1 Q-20.2 28.1 -23.65 24.7 -27.05 21.25 -27.05 16.45 L-27.05 -15.35 Q-27.05 -20.2 -23.65 -23.65 -20.2 -27.05 -15.35 -27.05" fill="#e59a83" fill-rule="evenodd" stroke="none"/>
    <path d="M-18.1 4.55 L-18.1 -3.6 -3.65 -3.6 -3.65 -18.65 4.75 -18.65 4.7 -3.6 19.2 -3.6 19.2 4.55 4.75 4.55 4.75 19.75 -3.65 19.75 -3.65 4.55 -18.1 4.55" fill="#ffffff" fill-rule="evenodd" stroke="none"/>
  </g>
</svg>
