<?xml version="1.0" encoding="UTF-8" standalone="no"?>
<svg xmlns:ffdec="https://www.free-decompiler.com/flash" xmlns:xlink="http://www.w3.org/1999/xlink" ffdec:objectType="shape" height="400.0px" width="640.0px" xmlns="http://www.w3.org/2000/svg">
  <g transform="matrix(1.0, 0.0, 0.0, 1.0, 320.0, 200.0)">
    <path d="M320.0 -200.0 L320.0 200.0 -320.0 200.0 -320.0 -200.0 320.0 -200.0" fill="url(#gradient0)" fill-rule="evenodd" stroke="none"/>
    <path d="M-30.2 -23.45 L-70.25 -23.45 -68.65 -12.85 Q-64.85 -2.3 -52.25 -2.3 -39.65 -2.3 -33.55 -12.85 -30.65 -18.05 -30.2 -23.45 M20.2 -39.4 Q20.2 -16.45 8.95 3.55 -1.85 22.7 -20.75 34.6 2.0 71.3 0.65 139.25 -0.05 173.2 -5.2 200.0 L-216.95 200.0 Q-213.55 182.9 -205.9 158.6 -190.6 110.2 -169.45 74.65 L-245.75 2.45 -320.0 -22.3 -295.25 -29.05 -250.25 -26.8 -252.5 -45.95 -248.0 -51.55 -234.5 -13.3 -145.15 41.15 Q-136.85 31.7 -127.4 24.05 -140.2 11.9 -147.4 -4.3 -154.85 -20.95 -154.85 -39.4 -154.85 -75.65 -129.2 -101.3 -103.55 -126.95 -67.3 -126.95 -31.1 -126.95 -5.45 -101.3 20.2 -75.65 20.2 -39.4 M33.5 -39.4 Q33.5 -50.45 30.8 -63.95 L34.4 -64.15 Q61.85 -64.15 81.2 -44.8 100.55 -25.25 100.55 2.0 100.55 15.95 94.9 28.55 89.5 40.9 79.85 49.9 85.45 54.85 89.5 59.15 L143.5 26.3 153.85 -3.2 157.25 1.3 155.65 15.95 190.3 14.35 209.2 19.55 152.05 38.45 106.4 81.85 Q122.35 109.55 130.7 149.35 134.95 169.15 136.1 183.55 L11.0 183.55 Q15.5 148.45 13.9 116.75 11.9 69.7 -3.2 38.65 14.35 24.05 24.05 3.8 33.5 -16.45 33.5 -39.4" fill="#ffffff" fill-opacity="0.3019608" fill-rule="evenodd" stroke="none"/>
  </g>
  <defs>
    <linearGradient color-interpolation="linearRGB" gradientTransform="matrix(0.0, 0.1344, -0.9987, 0.0, 13.95, 80.1)" gradientUnits="userSpaceOnUse" id="gradient0" spreadMethod="pad" x1="-819.2" x2="819.2">
      <stop offset="0.2196078431372549" stop-color="#ffe377"/>
      <stop offset="1.0" stop-color="#ffffff"/>
    </linearGradient>
  </defs>
</svg>
