<?xml version="1.0" encoding="UTF-8" standalone="no"?>
<svg xmlns:ffdec="https://www.free-decompiler.com/flash" xmlns:xlink="http://www.w3.org/1999/xlink" ffdec:objectType="shape" height="300.0px" width="420.0px" xmlns="http://www.w3.org/2000/svg">
  <g transform="matrix(1.0, 0.0, 0.0, 1.0, 0.0, 0.0)">
    <path d="M0.0 140.05 Q4.6 141.95 13.25 145.95 L12.95 146.55 Q12.05 148.45 12.25 149.45 L13.6 152.3 Q15.25 155.3 15.65 159.65 15.9 162.15 15.75 167.5 15.7 170.25 16.25 175.25 16.45 179.65 14.9 182.7 14.4 183.7 12.3 186.1 10.45 188.2 10.0 189.45 9.5 191.05 9.85 193.15 L10.4 196.95 Q10.45 199.45 8.8 203.35 L5.9 209.6 Q2.75 217.15 0.0 227.5 L0.0 140.05" fill="url(#gradient0)" fill-rule="evenodd" stroke="none"/>
    <path d="M24.7 22.2 L25.0 24.1 Q18.35 24.95 12.45 27.05 6.35 29.25 1.9 32.45 L0.0 34.0 0.0 0.0 29.85 0.0 Q27.95 2.75 27.8 7.55 27.7 10.15 28.85 13.05 L28.9 13.9 27.35 13.9 Q24.55 14.2 24.35 17.4 24.25 19.15 24.7 22.2" fill="url(#gradient1)" fill-rule="evenodd" stroke="none"/>
    <path d="M319.85 33.9 L315.8 35.35 Q317.2 34.7 318.45 33.85 L319.85 33.9" fill="url(#gradient2)" fill-rule="evenodd" stroke="none"/>
    <path d="M356.05 236.1 Q357.6 235.0 358.3 232.6 L365.9 227.5 352.8 245.0 Q351.45 243.2 350.55 240.45 L356.05 236.1" fill="url(#gradient3)" fill-rule="evenodd" stroke="none"/>
    <path d="M144.65 21.45 Q146.0 21.15 148.0 22.4 151.4 24.4 155.05 28.75 L153.1 25.75 Q150.65 22.35 148.2 20.35 145.1 17.85 142.45 18.0 140.15 18.1 138.6 20.05 L137.5 21.95 Q136.35 20.6 134.4 19.65 130.55 17.75 126.6 19.85 124.95 20.7 124.5 23.7 124.1 26.5 124.75 30.75 125.05 32.9 125.45 34.45 L125.55 31.45 Q125.9 27.9 127.0 25.45 128.0 23.1 129.55 21.95 132.0 20.05 136.15 23.5 138.25 25.25 139.8 27.35 139.35 26.25 139.75 25.0 140.5 22.4 144.65 21.45 M162.6 45.9 Q164.1 46.4 165.4 47.15 164.95 46.7 164.85 45.9 164.7 44.4 166.7 43.0 167.35 42.5 168.65 42.75 170.85 43.1 173.75 44.6 171.05 42.5 168.35 41.65 166.2 41.0 164.75 41.6 163.55 42.15 163.15 43.55 L163.0 44.8 Q162.1 44.35 160.85 44.25 158.4 44.1 156.75 46.05 156.1 46.85 156.45 48.55 157.05 51.0 159.3 54.0 158.1 51.4 158.15 48.9 158.25 47.4 158.75 46.5 159.65 44.95 162.6 45.9 M162.75 20.5 Q162.85 19.0 163.35 18.1 164.25 16.55 167.2 17.5 168.65 18.0 169.95 18.75 169.5 18.3 169.4 17.5 169.25 16.0 171.25 14.55 L173.25 14.35 Q175.45 14.65 178.35 16.2 175.65 14.05 172.9 13.25 170.8 12.6 169.35 13.2 168.15 13.75 167.75 15.15 L167.6 16.4 Q166.7 15.9 165.45 15.8 163.0 15.65 161.35 17.6 160.65 18.55 161.05 20.1 161.65 22.6 163.9 25.6 162.7 22.95 162.75 20.5 M278.7 0.0 Q278.85 1.15 279.85 2.0 L275.2 3.0 Q269.95 4.35 267.2 6.2 264.15 8.2 263.25 11.0 262.3 13.85 264.0 16.1 248.95 15.45 233.65 20.35 239.4 21.1 243.9 26.2 246.35 29.0 249.5 33.85 236.0 26.25 232.4 25.3 223.85 23.0 216.0 29.4 206.7 37.75 199.55 38.85 L191.95 39.15 Q185.25 38.95 181.85 39.1 186.3 44.8 194.7 48.75 198.9 50.75 202.2 51.55 195.6 57.1 188.2 61.85 173.45 71.4 169.6 67.55 L169.4 67.35 Q168.55 72.0 169.2 75.9 164.65 71.75 160.45 70.2 155.1 68.2 149.75 70.15 151.05 64.7 146.45 59.9 142.55 55.85 135.3 53.15 128.8 50.7 122.85 50.4 116.85 50.1 115.6 52.2 116.9 44.65 110.95 39.2 105.7 34.35 96.25 32.4 87.15 30.55 78.2 32.1 68.8 33.7 63.75 38.5 61.2 32.15 54.2 28.3 47.8 24.75 38.75 23.85 38.75 21.25 37.95 18.75 37.1 16.1 35.65 14.55 L39.85 9.75 Q41.9 6.9 41.35 4.1 41.0 2.45 39.4 0.0 L278.7 0.0" fill="url(#gradient4)" fill-rule="evenodd" stroke="none"/>
    <path d="M231.35 221.35 L235.35 224.4 235.5 224.9 227.45 222.8 231.35 221.35" fill="url(#gradient5)" fill-rule="evenodd" stroke="none"/>
    <path d="M351.05 15.2 Q349.55 11.9 345.8 9.2 342.1 6.45 338.3 5.9 334.1 5.25 331.7 7.7 333.65 3.4 328.8 0.0 L420.0 0.0 420.0 266.85 Q417.75 262.45 412.9 260.2 407.65 257.8 404.9 260.9 406.3 257.55 403.35 254.85 400.7 252.4 396.3 251.7 L401.4 244.85 395.25 231.2 371.6 223.65 374.95 221.4 395.05 202.8 403.2 201.35 Q407.35 200.35 410.6 199.0 410.8 197.15 408.25 196.4 404.9 195.4 404.4 194.9 407.35 193.1 409.2 187.55 411.1 181.65 408.25 179.9 407.7 180.7 406.35 184.75 405.3 187.95 403.65 189.05 407.65 172.4 404.4 173.5 403.15 173.95 402.0 177.3 401.25 179.5 400.3 183.9 400.6 179.55 399.65 176.15 398.6 172.35 396.75 172.85 L396.45 180.35 Q396.3 185.45 394.75 187.3 394.85 184.8 394.25 182.95 393.4 180.25 391.35 179.9 390.6 181.4 390.65 184.15 L390.85 188.75 Q390.85 190.4 390.1 194.45 L371.3 207.6 352.8 212.9 Q351.7 212.3 350.55 212.35 L344.5 213.15 Q342.55 210.6 339.35 209.1 L338.15 208.95 338.4 207.95 341.85 203.5 Q350.3 200.0 354.05 199.7 360.25 199.2 362.8 204.6 386.9 189.55 384.25 165.15 383.4 157.5 380.0 149.85 L376.75 143.7 380.6 141.4 Q385.15 138.1 388.5 132.95 399.1 116.55 393.6 88.3 383.95 95.5 376.8 96.2 L372.85 95.9 371.6 95.4 374.45 95.05 Q377.85 94.3 380.5 92.45 389.0 86.55 386.95 71.75 383.4 81.65 375.3 78.0 369.55 75.4 362.3 66.55 363.1 62.6 365.15 60.1 368.45 55.95 376.1 60.6 379.95 62.95 383.1 66.1 382.05 64.35 382.25 62.0 382.65 57.25 389.0 54.15 390.9 53.15 394.6 54.6 398.3 56.05 403.4 59.85 405.9 61.75 407.7 63.35 L403.65 58.75 Q398.7 53.65 394.25 51.0 388.65 47.7 384.4 48.8 380.8 49.75 378.9 53.7 L377.75 57.45 Q375.5 55.45 372.15 54.45 365.45 52.45 359.8 57.45 358.45 58.7 358.0 60.8 L357.2 59.6 Q355.6 57.1 352.45 50.5 349.45 44.25 347.45 41.25 340.65 31.25 329.25 31.95 330.8 31.3 332.0 31.25 334.6 31.0 340.3 32.05 L348.85 32.5 Q352.6 31.8 356.6 30.35 361.75 28.5 363.4 26.55 L359.65 26.15 Q357.55 25.75 356.2 24.8 L353.7 22.75 Q352.4 21.65 350.9 21.4 352.75 18.8 351.05 15.2 M408.45 43.0 L407.0 39.5 Q405.15 35.55 403.0 33.15 400.4 30.05 397.7 29.9 395.35 29.75 393.5 31.7 L392.1 33.65 Q391.2 32.05 389.4 30.75 385.85 28.25 381.55 30.1 379.7 30.9 378.8 34.05 377.95 37.0 377.9 41.7 L378.0 45.8 Q378.15 44.45 378.65 42.55 379.55 38.75 381.05 36.2 382.35 33.85 384.15 32.7 386.95 30.9 390.5 35.15 392.3 37.3 393.5 39.75 L393.8 37.15 Q395.0 34.45 399.3 33.9 400.65 33.7 402.5 35.3 405.55 37.85 408.45 43.0" fill="url(#gradient6)" fill-rule="evenodd" stroke="none"/>
    <path d="M358.3 290.85 L355.1 285.4 358.3 286.85 358.3 290.85" fill="url(#gradient7)" fill-rule="evenodd" stroke="none"/>
    <path d="M337.5 214.55 L336.85 214.7 336.85 214.05 337.5 214.55" fill="url(#gradient8)" fill-rule="evenodd" stroke="none"/>
    <path d="M169.1 170.1 Q173.1 171.85 178.3 172.8 178.5 187.5 191.45 201.0 L200.35 210.1 Q204.4 214.7 204.5 218.25 L196.15 216.25 165.05 196.35 Q164.95 189.35 164.4 187.25 163.05 181.9 157.7 177.05 153.2 172.95 147.2 174.35 L146.7 169.5 Q153.0 168.35 156.3 161.25 162.0 167.1 169.1 170.1" fill="url(#gradient9)" fill-rule="evenodd" stroke="none"/>
    <path d="M349.1 249.9 L344.85 255.55 342.0 256.05 Q340.9 252.75 340.05 249.35 L345.55 244.65 Q346.9 247.8 349.1 249.9" fill="url(#gradient10)" fill-rule="evenodd" stroke="none"/>
    <path d="M125.75 145.1 L126.05 147.5 Q127.7 158.9 130.9 163.55 134.65 169.15 143.05 169.7 L143.65 175.7 141.9 176.75 Q135.5 181.05 132.8 188.6 129.85 196.75 133.7 203.15 136.0 206.2 139.7 208.1 142.4 209.5 146.9 210.7 147.75 219.4 148.15 221.2 149.0 225.05 150.95 224.8 152.95 224.5 152.55 220.1 L151.65 211.85 154.1 212.5 190.4 240.1 210.6 247.7 Q208.85 248.45 207.35 248.05 L240.65 260.6 Q241.4 274.4 240.45 286.35 L240.2 286.05 238.65 286.5 238.65 274.8 232.9 268.1 227.75 269.55 227.75 287.0 224.4 284.75 224.4 280.55 223.0 278.9 221.75 279.25 221.75 283.0 218.0 280.5 209.0 281.95 209.0 295.6 207.65 294.05 207.65 292.2 206.3 290.6 205.05 290.95 205.05 293.35 201.5 294.35 201.5 300.0 156.9 300.0 156.5 290.3 Q156.85 287.9 156.25 286.3 L155.0 282.85 Q154.25 280.75 153.5 279.5 L153.45 279.4 153.3 278.85 152.6 278.35 Q151.3 277.0 148.95 275.6 L147.1 274.25 142.3 272.1 139.9 270.7 138.2 270.55 136.6 270.45 133.6 262.4 130.0 246.55 129.3 239.9 127.1 229.5 123.8 217.25 123.8 217.2 Q123.75 216.15 123.1 214.05 122.55 212.0 122.5 210.85 L122.75 207.55 122.8 203.9 Q122.8 203.15 124.4 199.5 125.9 196.0 125.7 194.95 L125.15 191.2 124.6 187.4 Q125.0 187.35 125.4 186.0 125.75 184.75 126.3 184.85 126.3 183.85 125.8 183.2 L120.7 170.8 115.35 154.8 Q117.85 152.05 125.75 145.1" fill="url(#gradient11)" fill-rule="evenodd" stroke="none"/>
    <path d="M420.0 282.3 L419.7 282.1 420.0 282.05 420.0 282.3" fill="url(#gradient12)" fill-rule="evenodd" stroke="none"/>
    <path d="M163.35 125.65 Q166.45 131.7 174.1 139.55 170.3 141.85 165.55 147.0 161.1 151.8 158.65 153.05 L158.9 151.25 159.35 146.85 Q159.75 140.1 156.05 115.65 L160.55 113.5 Q160.45 119.95 163.35 125.65" fill="url(#gradient13)" fill-rule="evenodd" stroke="none"/>
    <path d="M0.0 34.0 L1.9 32.45 Q6.35 29.25 12.45 27.05 18.35 24.95 25.0 24.1 25.65 26.3 27.3 28.5 27.0 30.8 24.55 39.85 23.8 43.2 23.8 46.45 L23.75 53.0 Q23.55 55.85 20.35 58.7 L14.9 63.6 Q11.75 67.45 11.9 69.7 12.1 71.95 15.9 74.9 L15.15 78.15 Q14.55 80.2 14.45 81.5 14.4 82.5 14.65 85.1 14.85 87.4 14.65 88.55 16.95 88.95 16.65 91.3 L15.45 95.15 Q14.7 97.55 14.75 98.75 14.85 100.25 16.2 102.1 L18.75 104.5 Q20.6 106.1 20.7 107.05 20.8 108.25 18.9 110.75 L16.15 114.2 Q13.85 117.85 12.8 121.3 11.7 124.8 11.6 129.15 11.5 132.15 11.7 133.1 12.1 134.75 13.75 135.75 L16.85 137.25 Q17.8 138.05 16.7 140.75 L15.05 143.35 13.25 145.95 Q4.6 141.95 0.0 140.05 L0.0 34.0" fill="#fffff0" fill-rule="evenodd" stroke="none"/>
    <path d="M169.2 75.9 Q170.45 83.05 176.8 87.05 179.95 89.05 182.85 89.6 179.1 91.3 175.1 91.4 167.1 91.65 165.95 83.75 L162.35 100.9 Q160.6 109.0 160.55 113.5 L156.05 115.65 Q152.05 89.9 148.6 76.4 147.1 70.65 143.2 67.9 139.75 65.5 135.2 65.85 L135.1 64.65 Q134.9 61.85 133.65 62.1 132.35 62.3 132.75 64.75 L132.9 66.2 Q130.7 66.75 128.75 67.85 126.05 69.45 124.4 71.8 122.65 74.25 122.55 77.05 121.95 89.9 123.5 116.85 L107.6 115.75 Q103.5 118.65 101.8 120.5 L98.3 110.25 95.05 105.2 92.15 103.8 87.9 96.85 85.15 93.65 76.95 90.65 75.85 89.35 74.65 89.25 73.9 86.25 74.05 83.75 73.9 81.85 73.5 80.8 73.05 78.95 72.7 79.25 Q71.85 78.1 69.8 77.5 L69.9 76.25 72.4 76.1 74.9 75.85 75.05 74.05 75.25 72.9 88.1 72.55 82.05 70.5 Q76.0 68.35 75.95 68.1 L75.25 65.9 91.65 62.95 91.3 62.95 91.55 62.9 74.2 63.3 73.55 62.15 73.7 62.15 73.5 60.85 Q75.6 58.55 85.8 51.4 L81.45 53.1 68.1 56.75 65.95 55.55 67.5 42.05 60.15 54.4 55.2 54.55 46.4 45.05 49.95 55.95 44.95 55.75 Q39.85 55.1 39.05 52.8 37.5 48.35 36.85 39.25 L36.65 35.95 36.15 32.2 Q36.05 31.8 36.35 30.85 L36.7 29.55 Q36.8 28.9 37.4 28.35 L38.25 27.3 Q38.75 25.65 38.75 23.85 47.8 24.75 54.2 28.3 61.2 32.15 63.75 38.5 68.8 33.7 78.2 32.1 87.15 30.55 96.25 32.4 105.7 34.35 110.95 39.2 116.9 44.65 115.6 52.2 116.85 50.1 122.85 50.4 128.8 50.7 135.3 53.15 142.55 55.85 146.45 59.9 151.05 64.7 149.75 70.15 155.1 68.2 160.45 70.2 164.65 71.75 169.2 75.9" fill="#fffff0" fill-rule="evenodd" stroke="none"/>
    <path d="M94.35 106.35 L94.25 106.95 93.85 106.4 94.35 106.35" fill="#fffff0" fill-rule="evenodd" stroke="none"/>
    <path d="M412.9 260.2 Q417.75 262.45 420.0 266.85 L420.0 282.05 419.7 282.1 418.5 281.4 415.6 281.8 415.6 270.1 404.45 263.45 394.5 264.9 394.5 282.3 387.95 280.1 387.95 275.85 385.3 274.25 382.9 274.6 382.9 278.35 377.75 276.55 396.3 251.7 Q400.7 252.4 403.35 254.85 406.3 257.55 404.9 260.9 407.65 257.8 412.9 260.2" fill="#fffff0" fill-rule="evenodd" stroke="none"/>
    <path d="M345.8 9.2 Q349.55 11.9 351.05 15.2 352.75 18.8 350.9 21.4 352.4 21.65 353.7 22.75 L356.2 24.8 Q357.55 25.75 359.65 26.15 L363.4 26.55 Q361.75 28.5 356.6 30.35 352.6 31.8 348.85 32.5 L340.3 32.05 Q334.6 31.0 332.0 31.25 330.8 31.3 329.25 31.95 324.9 32.25 319.85 33.9 L318.45 33.85 Q326.5 28.25 315.2 20.8 310.9 18.0 305.05 15.8 299.6 13.75 295.95 13.3 300.4 14.95 295.2 21.45 L286.25 30.65 Q287.35 24.05 280.85 20.2 274.85 16.6 264.0 16.1 262.3 13.85 263.25 11.0 264.15 8.2 267.2 6.2 269.95 4.35 275.2 3.0 L279.85 2.0 Q278.85 1.15 278.7 0.0 L328.8 0.0 Q333.65 3.4 331.7 7.7 334.1 5.25 338.3 5.9 342.1 6.45 345.8 9.2" fill="#fffff0" fill-rule="evenodd" stroke="none"/>
    <path d="M418.5 281.4 L420.0 282.3 420.0 300.0 364.5 300.0 Q361.35 295.85 358.3 290.85 L358.3 286.85 367.1 290.85 377.75 276.55 382.9 278.35 382.9 274.6 385.3 274.25 387.95 275.85 387.95 280.1 394.5 282.3 394.5 264.9 404.45 263.45 415.6 270.1 415.6 281.8 418.5 281.4" fill="#918e9b" fill-rule="evenodd" stroke="none"/>
    <path d="M227.75 269.55 L232.9 268.1 238.65 274.8 238.65 286.5 240.2 286.05 240.45 286.35 Q239.85 293.55 238.65 300.0 L201.5 300.0 201.5 294.35 205.05 293.35 205.05 290.95 206.3 290.6 207.65 292.2 207.65 294.05 209.0 295.6 209.0 281.95 218.0 280.5 221.75 283.0 221.75 279.25 223.0 278.9 224.4 280.55 224.4 284.75 227.75 287.0 227.75 269.55" fill="#918e9b" fill-rule="evenodd" stroke="none"/>
    <path d="M2.45 258.4 L0.0 259.15 1.1 258.35 0.0 258.75 0.0 249.9 27.75 224.4 2.45 258.4" fill="#8eb74e" fill-rule="evenodd" stroke="none"/>
    <path d="M125.3 141.05 L125.75 145.1 Q117.85 152.05 115.35 154.8 L115.35 154.75 115.4 154.2 112.25 147.95 114.1 147.5 116.3 150.05 125.3 141.05" fill="#8eb74e" fill-rule="evenodd" stroke="none"/>
    <path d="M11.75 271.95 L14.05 271.4 11.55 271.95 11.75 271.95 0.0 274.7 0.0 264.05 20.75 263.25 27.3 266.1 49.3 265.1 11.75 271.95" fill="#8eb74e" fill-rule="evenodd" stroke="none"/>
    <path d="M15.1 82.95 L18.3 80.2 18.8 81.45 21.35 79.85 21.25 81.0 29.55 74.45 18.35 79.6 16.0 78.8 15.1 82.95 M27.8 7.55 Q27.95 2.75 29.85 0.0 L39.4 0.0 Q41.0 2.45 41.35 4.1 41.9 6.9 39.85 9.75 L35.65 14.55 Q37.1 16.1 37.95 18.75 38.75 21.25 38.75 23.85 38.75 25.65 38.25 27.3 L37.4 28.35 Q36.8 28.9 36.7 29.55 L36.35 30.85 Q36.05 31.8 36.15 32.2 L36.65 35.95 32.45 36.25 31.85 36.2 29.35 29.4 30.65 28.3 31.25 28.35 34.1 30.35 35.0 26.2 36.7 27.55 36.4 15.5 34.1 15.65 34.0 15.35 32.9 15.7 28.45 15.9 28.6 15.55 27.2 15.9 27.45 14.85 27.15 15.9 26.75 16.0 27.15 16.0 26.6 17.8 26.55 19.0 26.65 18.4 27.15 18.45 28.15 22.4 26.85 22.6 28.35 23.1 28.85 25.05 28.45 25.15 28.85 25.15 29.5 27.6 28.25 28.1 24.75 42.25 24.55 45.25 24.9 45.7 25.15 53.1 25.1 53.7 24.15 58.45 21.0 60.6 21.9 60.35 13.25 67.8 21.85 72.65 28.6 71.35 23.0 73.95 32.2 71.05 32.1 72.25 41.0 65.7 36.15 66.55 43.65 62.9 46.55 66.3 46.35 66.7 44.05 65.35 45.0 68.4 46.8 66.6 49.15 69.3 49.1 69.9 47.3 69.8 47.7 72.2 43.75 68.9 42.5 70.0 42.05 68.2 42.15 66.4 40.1 69.85 36.95 72.0 33.3 72.35 26.75 79.65 24.2 81.85 16.75 84.9 21.65 83.45 18.4 86.8 19.15 92.85 17.1 96.3 17.45 96.05 17.1 97.0 16.4 97.45 17.05 97.15 16.25 99.25 20.5 99.1 16.85 99.3 18.6 100.05 17.3 101.75 19.05 101.85 19.0 103.05 20.1 103.75 22.5 103.95 22.75 108.75 13.8 123.7 13.25 130.85 14.05 128.5 15.7 130.45 14.2 126.7 19.6 126.5 24.7 122.7 23.2 126.8 29.15 119.45 26.25 125.85 26.2 126.4 23.9 133.45 17.75 143.2 14.45 147.15 19.25 145.8 20.55 146.1 18.55 148.65 20.35 148.2 17.85 165.4 18.35 167.25 18.85 176.3 18.25 184.05 19.0 183.1 17.35 186.95 18.1 186.1 13.95 193.35 14.8 190.4 12.0 195.6 12.4 198.0 13.75 197.35 4.45 215.8 0.0 235.65 0.0 227.5 Q2.75 217.15 5.9 209.6 L8.8 203.35 Q10.45 199.45 10.4 196.95 L9.85 193.15 Q9.5 191.05 10.0 189.45 10.45 188.2 12.3 186.1 14.4 183.7 14.9 182.7 16.45 179.65 16.25 175.25 15.7 170.25 15.75 167.5 15.9 162.15 15.65 159.65 15.25 155.3 13.6 152.3 L12.25 149.45 Q12.05 148.45 12.95 146.55 L13.25 145.95 15.05 143.35 16.7 140.75 Q17.8 138.05 16.85 137.25 L13.75 135.75 Q12.1 134.75 11.7 133.1 11.5 132.15 11.6 129.15 11.7 124.8 12.8 121.3 13.85 117.85 16.15 114.2 L18.9 110.75 Q20.8 108.25 20.7 107.05 20.6 106.1 18.75 104.5 L16.2 102.1 Q14.85 100.25 14.75 98.75 14.7 97.55 15.45 95.15 L16.65 91.3 Q16.95 88.95 14.65 88.55 14.85 87.4 14.65 85.1 14.4 82.5 14.45 81.5 14.55 80.2 15.15 78.15 L15.9 74.9 Q12.1 71.95 11.9 69.7 11.75 67.45 14.9 63.6 L20.35 58.7 Q23.55 55.85 23.75 53.0 L23.8 46.45 Q23.8 43.2 24.55 39.85 27.0 30.8 27.3 28.5 25.65 26.3 25.0 24.1 L24.7 22.2 Q24.25 19.15 24.35 17.4 24.55 14.2 27.35 13.9 L28.9 13.9 28.85 13.05 Q27.7 10.15 27.8 7.55 M32.5 8.05 L30.9 9.1 36.3 8.9 32.5 8.05 33.4 7.5 32.15 8.0 32.5 8.05 M39.5 6.15 L36.6 4.75 33.65 4.5 29.8 7.2 34.05 6.95 34.65 7.0 39.5 6.15" fill="#8eb74e" fill-rule="evenodd" stroke="none"/>
    <path d="M101.65 208.35 L101.3 213.15 100.25 211.25 96.85 216.4 93.7 218.6 95.15 215.1 89.0 217.0 90.75 217.75 82.2 227.9 83.55 217.8 81.6 219.45 81.6 227.85 79.55 230.7 79.2 243.3 78.05 242.6 77.0 256.95 79.35 257.7 77.85 261.2 73.15 260.25 74.45 258.55 75.3 255.6 77.6 225.15 78.85 224.05 79.2 227.7 79.1 221.1 77.85 221.6 78.25 216.2 67.85 219.05 66.9 223.75 66.85 224.35 65.45 224.9 64.75 220.6 63.7 220.5 68.0 217.25 91.7 213.05 101.65 208.35" fill="#8eb74e" fill-rule="evenodd" stroke="none"/>
    <path d="M123.85 192.65 L124.4 193.9 123.15 186.6 123.85 192.65 M94.8 196.05 L93.35 191.55 113.45 187.65 124.5 184.3 125.8 183.2 Q126.3 183.85 126.3 184.85 125.75 184.75 125.4 186.0 125.0 187.35 124.6 187.4 L125.15 191.2 125.7 194.95 Q125.9 196.0 124.4 199.5 122.8 203.15 122.8 203.9 L122.75 207.55 122.6 207.55 123.0 197.0 123.5 197.4 123.05 195.6 123.0 197.0 120.1 194.75 122.45 195.55 120.4 191.2 113.05 193.0 121.75 196.7 120.65 203.2 113.8 199.1 115.25 203.4 113.9 205.7 112.8 203.8 112.85 203.2 111.2 193.5 107.55 194.4 106.75 196.75 103.9 194.75 101.25 198.15 101.2 203.2 99.15 194.35 96.15 194.15 94.8 196.05" fill="#8eb74e" fill-rule="evenodd" stroke="none"/>
    <path d="M0.0 275.45 L48.8 267.15 46.15 300.0 0.0 300.0 0.0 275.45" fill="#8eb74e" fill-rule="evenodd" stroke="none"/>
    <path d="M73.15 69.35 L72.85 73.5 72.25 73.45 74.6 74.25 73.15 69.35 M91.55 62.9 L91.3 62.95 74.8 63.45 75.25 65.3 90.25 63.15 75.25 65.9 75.95 68.1 Q76.0 68.35 82.05 70.5 L88.1 72.55 75.25 72.9 75.05 74.05 74.9 75.85 72.4 76.1 69.9 76.25 69.8 77.5 Q71.85 78.1 72.7 79.25 L70.45 81.15 70.65 86.55 67.7 85.75 66.5 85.65 65.6 81.95 65.0 81.95 63.3 80.6 63.45 78.8 64.35 74.65 70.7 70.35 69.0 69.0 70.5 64.95 72.1 67.45 74.05 65.8 73.6 63.35 71.8 63.25 71.3 62.0 73.55 62.15 74.2 63.3 91.55 62.9" fill="#8eb74e" fill-rule="evenodd" stroke="none"/>
    <path d="M123.5 116.85 L123.5 116.95 110.45 116.0 109.7 118.3 102.7 123.2 101.8 120.5 Q103.5 118.65 107.6 115.75 L123.5 116.85" fill="#8eb74e" fill-rule="evenodd" stroke="none"/>
    <path d="M63.9 223.55 L60.65 222.85 63.7 220.5 64.75 220.6 65.45 224.9 64.35 225.35 50.85 253.15 63.9 223.55" fill="#a6ce65" fill-rule="evenodd" stroke="none"/>
    <path d="M112.8 203.8 L113.9 205.7 115.2 265.85 115.35 265.85 115.25 266.05 115.25 267.05 111.05 266.7 109.9 266.05 113.3 260.9 112.8 203.8" fill="#a6ce65" fill-rule="evenodd" stroke="none"/>
    <path d="M79.2 227.7 L78.85 224.05 77.6 225.15 77.85 221.6 79.1 221.1 79.2 227.7" fill="#a6ce65" fill-rule="evenodd" stroke="none"/>
    <path d="M101.3 213.15 L101.6 209.55 102.5 213.25 94.8 219.85 87.6 251.75 93.3 231.75 96.3 223.6 97.4 225.45 99.05 219.0 98.15 230.9 97.0 230.25 95.65 240.35 97.8 251.9 98.5 250.15 98.3 253.15 100.55 238.9 103.5 239.75 103.8 227.75 105.15 265.65 89.7 263.3 81.35 259.8 79.75 260.15 80.15 262.6 72.5 260.8 74.45 258.55 73.15 260.25 77.85 261.2 79.35 257.7 77.0 256.95 78.05 242.6 79.2 243.3 79.55 230.7 81.6 227.85 81.6 219.45 83.55 217.8 82.2 227.9 90.75 217.75 89.0 217.0 95.15 215.1 93.7 218.6 96.85 216.4 100.25 211.25 101.3 213.15" fill="#a6ce65" fill-rule="evenodd" stroke="none"/>
    <path d="M67.85 219.05 L78.25 216.2 77.95 220.4 77.6 216.75 71.95 220.55 70.85 219.25 66.9 223.75 67.85 219.05" fill="#a6ce65" fill-rule="evenodd" stroke="none"/>
    <path d="M65.55 225.45 L65.45 224.9 66.85 224.35 65.55 225.45" fill="#a6ce65" fill-rule="evenodd" stroke="none"/>
    <path d="M123.05 195.6 L123.5 197.4 123.0 197.0 123.05 195.6" fill="#a6ce65" fill-rule="evenodd" stroke="none"/>
    <path d="M20.55 146.1 L22.3 146.55 45.65 115.3 26.95 148.25 26.6 152.85 63.95 104.05 22.95 161.6 23.8 158.05 20.85 165.65 28.25 155.4 26.0 161.25 27.65 163.15 27.55 172.15 18.25 184.05 18.85 176.3 18.35 167.25 17.85 165.4 20.35 148.2 18.55 148.65 20.55 146.1" fill="#a6ce65" fill-rule="evenodd" stroke="none"/>
    <path d="M124.65 133.5 L125.3 141.05 116.3 150.05 114.1 147.5 124.65 133.5" fill="#a6ce65" fill-rule="evenodd" stroke="none"/>
    <path d="M113.05 193.0 L120.4 191.2 122.45 195.55 120.1 194.75 123.0 197.0 122.6 207.55 113.9 205.7 115.25 203.4 113.8 199.1 120.65 203.2 121.75 196.7 113.05 193.0" fill="#a6ce65" fill-rule="evenodd" stroke="none"/>
    <path d="M89.9 197.3 L93.35 191.55 94.8 196.05 94.15 197.0 89.9 197.3" fill="#a6ce65" fill-rule="evenodd" stroke="none"/>
    <path d="M91.5 199.8 L95.8 199.15 96.75 202.2 93.25 200.55 94.85 203.05 92.0 201.05 91.25 203.4 89.85 197.9 91.5 199.8" fill="#a6ce65" fill-rule="evenodd" stroke="none"/>
    <path d="M60.55 220.3 L68.0 217.25 63.7 220.5 60.55 220.3" fill="#a6ce65" fill-rule="evenodd" stroke="none"/>
    <path d="M94.8 196.05 L96.15 194.15 99.15 194.35 101.2 203.2 101.25 198.15 103.9 194.75 106.75 196.75 107.55 194.4 111.2 193.5 112.85 203.2 111.4 198.9 107.85 198.05 101.65 208.35 91.7 213.05 98.7 208.15 96.75 202.2 100.8 204.1 99.4 198.6 95.8 199.15 94.8 196.05" fill="#a6ce65" fill-rule="evenodd" stroke="none"/>
    <path d="M97.7 142.05 L95.45 140.05 96.85 137.15 99.15 138.55 99.55 148.8 98.4 148.7 97.7 142.05" fill="#a6ce65" fill-rule="evenodd" stroke="none"/>
    <path d="M43.6 222.0 L45.4 222.15 48.3 223.55 47.45 226.5 45.65 226.95 43.95 225.6 40.0 230.15 40.15 227.75 37.75 228.15 37.25 226.9 43.6 222.0" fill="#a6ce65" fill-rule="evenodd" stroke="none"/>
    <path d="M86.4 180.2 L88.1 181.55 85.25 187.3 87.45 197.7 86.05 200.6 84.85 184.9 83.65 184.8 84.9 160.3 87.4 174.9 86.4 180.2" fill="#a6ce65" fill-rule="evenodd" stroke="none"/>
    <path d="M55.1 204.85 L53.0 201.1 56.6 200.75 55.1 204.85" fill="#a6ce65" fill-rule="evenodd" stroke="none"/>
    <path d="M13.95 193.35 L20.2 182.4 20.9 182.85 21.45 182.15 20.85 181.25 28.0 174.6 27.7 185.95 33.8 183.5 36.5 182.1 37.15 180.1 67.05 158.35 72.6 154.85 86.3 141.75 87.55 141.25 77.1 152.5 77.05 153.1 68.95 164.5 69.2 161.5 60.75 169.85 42.4 198.5 40.15 197.75 40.0 198.05 39.6 203.7 41.6 208.65 45.6 195.75 46.45 200.6 47.6 192.9 48.6 195.35 48.95 191.2 49.65 189.45 55.4 185.05 53.8 190.35 55.05 197.65 52.5 191.45 47.8 206.1 52.0 206.4 50.45 211.1 47.45 210.9 45.4 206.5 45.6 203.55 41.45 211.05 36.15 225.05 35.65 223.8 32.65 232.0 31.6 234.2 27.3 250.4 42.5 236.9 41.8 238.05 45.0 235.3 43.1 236.35 50.6 230.6 51.4 229.8 54.25 224.0 53.45 226.95 59.15 222.55 60.65 222.85 51.4 230.0 51.4 230.4 47.0 240.85 49.25 234.45 46.65 237.25 43.65 237.6 43.6 246.0 41.75 238.65 35.85 245.45 27.25 251.25 49.45 265.05 51.0 264.75 155.2 286.25 153.45 279.4 153.5 279.5 Q154.25 280.75 155.0 282.85 L156.25 286.3 Q156.85 287.9 156.5 290.3 L156.9 300.0 46.15 300.0 48.8 267.15 0.0 275.45 0.0 274.7 11.75 271.95 49.3 265.1 27.3 266.1 20.75 263.25 0.0 264.05 0.0 259.15 2.45 258.4 27.75 224.4 0.0 249.9 0.0 235.65 4.45 215.8 13.75 197.35 12.4 198.0 12.0 195.6 14.8 190.4 13.95 193.35" fill="#a6ce65" fill-rule="evenodd" stroke="none"/>
    <path d="M84.15 201.65 L82.5 199.7 84.95 199.3 84.15 201.65" fill="#a6ce65" fill-rule="evenodd" stroke="none"/>
    <path d="M39.5 6.15 L34.65 7.0 36.6 4.75 39.5 6.15" fill="#a6ce65" fill-rule="evenodd" stroke="none"/>
    <path d="M99.95 183.65 L100.9 178.9 98.4 179.9 100.35 178.25 99.55 157.2 102.4 159.2 103.55 175.5 105.75 178.05 102.3 184.4 99.95 183.65" fill="#a6ce65" fill-rule="evenodd" stroke="none"/>
    <path d="M0.0 258.75 L1.1 258.35 0.0 259.15 0.0 258.75" fill="#a6ce65" fill-rule="evenodd" stroke="none"/>
    <path d="M88.1 204.95 L84.5 205.3 90.9 208.15 90.55 212.35 86.95 212.65 88.2 212.15 85.95 210.2 85.7 213.15 80.3 213.35 82.4 201.5 88.1 204.95" fill="#a6ce65" fill-rule="evenodd" stroke="none"/>
    <path d="M101.5 154.95 L99.05 155.95 98.2 151.1 101.5 154.95" fill="#a6ce65" fill-rule="evenodd" stroke="none"/>
    <path d="M147.15 275.7 L139.0 270.65 138.2 270.55 139.9 270.7 142.3 272.1 147.1 274.25 147.15 275.7" fill="#a6ce65" fill-rule="evenodd" stroke="none"/>
    <path d="M33.65 4.5 L34.05 6.95 29.8 7.2 33.65 4.5" fill="#a6ce65" fill-rule="evenodd" stroke="none"/>
    <path d="M30.9 9.1 L32.5 8.05 36.3 8.9 30.9 9.1" fill="#a6ce65" fill-rule="evenodd" stroke="none"/>
    <path d="M122.45 211.75 L122.6 207.55 122.75 207.55 122.5 210.85 Q122.55 212.0 123.1 214.05 123.75 216.15 123.8 217.2 L122.45 211.75" fill="#a6ce65" fill-rule="evenodd" stroke="none"/>
    <path d="M41.15 230.8 L43.25 226.75 45.55 228.15 44.8 229.9 42.95 230.95 41.15 230.8" fill="#a6ce65" fill-rule="evenodd" stroke="none"/>
    <path d="M150.9 278.0 L149.0 276.85 147.7 274.9 151.1 277.55 150.9 278.0" fill="#a6ce65" fill-rule="evenodd" stroke="none"/>
    <path d="M39.5 220.5 L39.75 217.5 41.55 217.65 39.5 220.5" fill="#a6ce65" fill-rule="evenodd" stroke="none"/>
    <path d="M133.25 267.2 L132.4 270.15 130.7 269.4 130.9 266.4 133.25 267.2" fill="#a6ce65" fill-rule="evenodd" stroke="none"/>
    <path d="M46.4 216.8 L45.55 220.35 44.35 220.25 46.4 216.8" fill="#a6ce65" fill-rule="evenodd" stroke="none"/>
    <path d="M42.2 248.3 L42.85 255.55 42.25 256.1 42.8 256.75 36.95 254.5 40.7 244.6 39.9 255.35 42.2 248.3" fill="#a6ce65" fill-rule="evenodd" stroke="none"/>
    <path d="M123.15 186.6 L124.4 193.9 123.85 192.65 123.15 186.6" fill="#a6ce65" fill-rule="evenodd" stroke="none"/>
    <path d="M99.0 236.8 L99.6 235.85 101.2 238.35 99.95 238.85 99.0 236.8" fill="#a6ce65" fill-rule="evenodd" stroke="none"/>
    <path d="M85.95 122.55 L87.25 121.45 92.2 119.4 88.8 108.35 92.6 110.85 93.35 119.3 93.4 119.5 93.1 119.45 90.25 121.05 88.2 124.5 85.95 122.55" fill="#a6ce65" fill-rule="evenodd" stroke="none"/>
    <path d="M73.15 69.35 L74.6 74.25 72.25 73.45 72.85 73.5 73.15 69.35" fill="#a6ce65" fill-rule="evenodd" stroke="none"/>
    <path d="M75.25 65.3 L74.8 63.45 91.65 62.95 75.25 65.3" fill="#a6ce65" fill-rule="evenodd" stroke="none"/>
    <path d="M85.15 93.65 L87.9 96.85 87.35 104.05 85.15 93.65" fill="#a6ce65" fill-rule="evenodd" stroke="none"/>
    <path d="M64.25 84.25 L65.6 81.95 66.5 85.65 64.25 84.25" fill="#a6ce65" fill-rule="evenodd" stroke="none"/>
    <path d="M123.5 116.95 L123.55 117.55 111.05 116.05 123.5 116.95" fill="#a6ce65" fill-rule="evenodd" stroke="none"/>
    <path d="M29.2 23.4 L29.8 23.45 30.45 22.9 30.3 24.65 28.85 25.05 28.35 23.1 26.85 22.6 28.15 22.4 27.15 18.45 27.75 19.05 35.5 19.65 28.35 18.5 34.45 17.2 34.1 15.65 36.4 15.5 36.7 27.55 35.0 26.2 34.1 30.35 31.25 28.35 33.75 26.75 30.75 26.5 30.65 28.3 29.35 29.4 29.5 27.6 28.85 25.15 34.45 25.6 34.75 21.4 31.7 21.75 29.2 23.4 M26.75 16.0 L27.15 15.9 27.45 14.85 27.2 15.9 28.6 15.55 28.45 15.9 32.9 15.7 26.8 17.7 27.2 15.95 27.15 16.0 26.75 16.0 M34.1 15.65 L32.9 15.7 34.0 15.35 34.1 15.65" fill="#a6ce65" fill-rule="evenodd" stroke="none"/>
    <path d="M18.8 81.45 L18.3 80.2 15.1 82.95 16.0 78.8 18.35 79.6 29.55 74.45 21.25 81.0 21.35 79.85 18.8 81.45" fill="#a6ce65" fill-rule="evenodd" stroke="none"/>
    <path d="M28.45 25.15 L28.85 25.05 28.85 25.15 28.45 25.15" fill="#a6ce65" fill-rule="evenodd" stroke="none"/>
    <path d="M24.55 45.25 L24.75 42.25 24.9 45.7 24.55 45.25" fill="#a6ce65" fill-rule="evenodd" stroke="none"/>
    <path d="M17.1 96.3 L17.75 95.15 17.45 96.05 17.1 96.3" fill="#a6ce65" fill-rule="evenodd" stroke="none"/>
    <path d="M46.35 66.7 L46.55 66.3 46.8 66.6 45.0 68.4 44.05 65.35 46.35 66.7" fill="#a6ce65" fill-rule="evenodd" stroke="none"/>
    <path d="M124.4 130.3 L124.55 132.3 Q122.55 133.25 120.5 134.15 L124.4 130.3" fill="#a6ce65" fill-rule="evenodd" stroke="none"/>
    <path d="M35.0 73.65 L20.65 88.8 33.3 72.35 36.95 72.0 40.1 69.85 39.4 71.0 34.05 78.4 35.0 73.65" fill="#a6ce65" fill-rule="evenodd" stroke="none"/>
    <path d="M19.15 92.85 L18.4 86.8 21.65 83.45 16.75 84.9 24.2 81.85 26.75 79.65 20.25 86.35 20.6 89.4 33.8 81.95 18.45 94.0 19.15 92.85" fill="#a6ce65" fill-rule="evenodd" stroke="none"/>
    <path d="M19.25 145.8 L21.2 145.25 20.55 146.1 19.25 145.8" fill="#a6ce65" fill-rule="evenodd" stroke="none"/>
    <path d="M52.9 67.2 L51.75 67.85 54.75 74.55 52.9 67.2 M66.15 65.3 L67.05 62.85 57.5 62.15 54.9 64.35 55.65 62.6 51.85 65.3 53.05 65.4 53.6 66.05 59.8 63.5 62.7 64.95 54.15 66.7 56.6 74.1 65.7 72.95 61.05 70.8 65.2 71.15 63.45 70.4 64.7 69.9 62.35 69.1 65.45 68.15 65.65 65.15 66.15 65.3 M81.45 53.1 L85.8 51.4 Q75.6 58.55 73.5 60.85 L73.7 62.15 73.55 62.15 71.3 62.0 71.5 59.6 66.65 59.85 65.05 57.3 64.45 57.25 64.35 59.05 63.65 60.2 70.1 61.9 71.8 63.25 73.6 63.35 74.05 65.8 72.1 67.45 70.5 64.95 69.0 69.0 69.1 67.25 67.3 67.1 66.1 67.6 66.05 68.2 69.0 69.0 70.7 70.35 64.35 74.65 63.45 78.8 63.3 80.6 65.0 81.95 48.25 73.45 50.65 73.05 50.25 70.6 47.7 72.2 47.3 69.8 49.1 69.9 49.15 69.3 46.8 66.6 48.9 64.5 63.75 59.0 62.05 57.7 61.4 58.25 59.55 58.7 55.95 58.45 52.45 57.55 52.5 56.95 51.95 56.3 51.35 56.3 52.95 58.8 53.45 60.05 52.25 59.95 49.05 62.7 46.75 61.35 46.7 61.95 47.75 63.8 46.55 66.3 43.65 62.9 38.05 65.5 41.95 60.95 43.25 59.85 38.35 61.3 41.05 57.3 40.45 57.25 34.95 58.65 35.3 53.85 27.2 49.65 25.15 53.1 24.9 45.7 27.8 49.7 34.8 52.65 35.75 47.9 32.85 46.5 32.45 36.25 36.65 35.95 36.85 39.25 Q37.5 48.35 39.05 52.8 39.85 55.1 44.95 55.75 L49.95 55.95 46.4 45.05 55.2 54.55 60.15 54.4 67.5 42.05 65.95 55.55 68.1 56.75 81.45 53.1" fill="#a6ce65" fill-rule="evenodd" stroke="none"/>
    <path d="M40.4 81.85 L36.35 87.55 24.7 106.5 28.05 94.15 19.0 103.05 19.05 101.85 17.3 101.75 18.6 100.05 16.85 99.3 20.5 99.1 16.25 99.25 17.05 97.15 16.4 97.45 17.1 97.0 17.45 96.05 21.55 93.05 22.15 93.1 44.9 74.75 40.15 82.05 40.4 81.85" fill="#a6ce65" fill-rule="evenodd" stroke="none"/>
    <path d="M21.2 66.0 L21.15 66.6 23.45 67.4 18.55 68.8 21.2 66.0" fill="#a6ce65" fill-rule="evenodd" stroke="none"/>
    <path d="M23.0 73.95 L28.6 71.35 21.85 72.65 25.6 71.15 25.1 69.9 20.95 69.0 40.15 61.45 32.45 68.05 34.25 67.6 36.15 66.55 41.0 65.7 32.1 72.25 32.2 71.05 23.0 73.95" fill="#a6ce65" fill-rule="evenodd" stroke="none"/>
    <path d="M20.1 103.75 L22.8 100.35 22.5 103.95 20.1 103.75" fill="#a6ce65" fill-rule="evenodd" stroke="none"/>
    <path d="M93.5 109.9 L92.4 108.6 90.15 106.65 91.35 106.75 93.85 106.4 94.25 106.95 93.5 109.9" fill="#a6ce65" fill-rule="evenodd" stroke="none"/>
    <path d="M24.65 59.65 L21.0 60.6 24.15 58.45 25.1 53.7 27.2 58.05 23.85 62.6 24.65 59.65" fill="#a6ce65" fill-rule="evenodd" stroke="none"/>
    <path d="M41.0 73.5 L41.45 68.15 42.05 68.2 42.5 70.0 41.0 73.5" fill="#a6ce65" fill-rule="evenodd" stroke="none"/>
    <path d="M73.05 78.95 L73.5 80.8 73.9 81.85 74.05 83.75 73.9 86.25 74.65 89.25 75.85 89.35 76.95 90.65 67.95 98.35 69.4 95.45 61.4 97.85 33.6 116.15 31.1 117.2 32.95 116.75 26.25 125.85 29.15 119.45 23.2 126.8 24.7 122.7 19.6 126.5 14.2 126.7 15.7 130.45 14.05 128.5 13.25 130.85 13.8 123.7 17.25 117.95 26.15 111.4 28.1 112.95 32.45 107.7 29.25 118.25 44.65 105.25 37.05 110.45 45.75 104.0 42.9 104.25 48.85 101.65 67.7 85.75 70.65 86.55 70.45 81.15 73.05 78.95" fill="#a6ce65" fill-rule="evenodd" stroke="none"/>
    <path d="M19.6 142.15 L18.75 145.65 19.25 145.8 14.45 147.15 17.75 143.2 16.95 145.55 19.6 142.15" fill="#a6ce65" fill-rule="evenodd" stroke="none"/>
    <path d="M99.4 198.6 L100.8 204.1 96.75 202.2 95.8 199.15 99.4 198.6" fill="#e0ffbd" fill-rule="evenodd" stroke="none"/>
    <path d="M27.2 15.95 L26.8 17.7 32.9 15.7 34.1 15.65 34.45 17.2 28.35 18.5 35.5 19.65 27.75 19.05 27.15 18.45 26.65 18.4 26.55 19.0 26.6 17.8 27.15 16.0 27.2 15.95" fill="#e0ffbd" fill-rule="evenodd" stroke="none"/>
    <path d="M34.65 7.0 L34.05 6.95 33.65 4.5 36.6 4.75 34.65 7.0" fill="#e0ffbd" fill-rule="evenodd" stroke="none"/>
    <path d="M39.75 217.5 L39.5 220.5 41.55 217.65 39.75 217.5 M42.95 230.95 L44.8 229.9 45.55 228.15 43.25 226.75 41.15 230.8 42.95 230.95 M45.4 222.15 L43.6 222.0 37.25 226.9 37.75 228.15 40.15 227.75 40.0 230.15 43.95 225.6 45.65 226.95 47.45 226.5 48.3 223.55 45.4 222.15 M45.55 220.35 L46.4 216.8 44.35 220.25 45.55 220.35 M56.6 200.75 L53.0 201.1 55.1 204.85 56.6 200.75 M84.95 199.3 L82.5 199.7 84.15 201.65 84.95 199.3 M90.9 208.15 L84.5 205.3 88.1 204.95 82.4 201.5 80.3 213.35 85.7 213.15 85.95 210.2 88.2 212.15 86.95 212.65 90.55 212.35 90.9 208.15 M83.65 184.8 L84.85 184.9 86.05 200.6 87.45 197.7 85.25 187.3 88.1 181.55 86.4 180.2 87.4 174.9 84.9 160.3 83.65 184.8 M98.4 179.9 L100.9 178.9 99.95 183.65 102.3 184.4 105.75 178.05 103.55 175.5 102.4 159.2 99.55 157.2 100.35 178.25 98.4 179.9 M98.2 151.1 L99.05 155.95 101.5 154.95 98.2 151.1 M95.45 140.05 L97.7 142.05 98.4 148.7 99.55 148.8 99.15 138.55 96.85 137.15 95.45 140.05 M87.25 121.45 L85.95 122.55 88.2 124.5 90.25 121.05 93.1 119.45 93.4 119.5 93.35 119.3 92.6 110.85 88.8 108.35 92.2 119.4 87.25 121.45 M92.4 108.6 L93.5 109.9 94.25 106.95 94.35 106.35 91.35 106.75 90.15 106.65 92.4 108.6 M61.4 97.85 L69.4 95.45 67.95 98.35 76.95 90.65 85.15 93.65 87.35 104.05 87.9 96.85 92.15 103.8 95.05 105.2 98.3 110.25 102.7 123.2 109.7 118.3 110.45 116.0 123.55 117.55 124.4 130.3 120.5 134.15 Q122.55 133.25 124.55 132.3 L124.65 133.5 114.1 147.5 112.25 147.95 115.4 154.2 115.35 154.75 115.35 154.8 120.7 170.8 125.8 183.2 124.5 184.3 113.45 187.65 93.35 191.55 89.9 197.3 94.15 197.0 94.8 196.05 95.8 199.15 91.5 199.8 89.85 197.9 91.25 203.4 92.0 201.05 94.85 203.05 93.25 200.55 96.75 202.2 98.7 208.15 91.7 213.05 68.0 217.25 60.55 220.3 63.7 220.5 60.65 222.85 59.15 222.55 53.45 226.95 54.25 224.0 51.4 229.8 50.6 230.6 43.1 236.35 45.0 235.3 41.8 238.05 42.5 236.9 27.3 250.4 31.6 234.2 32.65 232.0 35.65 223.8 36.15 225.05 41.45 211.05 45.6 203.55 45.4 206.5 47.45 210.9 50.45 211.1 52.0 206.4 47.8 206.1 52.5 191.45 55.05 197.65 53.8 190.35 55.4 185.05 49.65 189.45 48.95 191.2 48.6 195.35 47.6 192.9 46.45 200.6 45.6 195.75 41.6 208.65 39.6 203.7 40.0 198.05 40.15 197.75 42.4 198.5 60.75 169.85 69.2 161.5 68.95 164.5 77.05 153.1 77.1 152.5 87.55 141.25 86.3 141.75 72.6 154.85 67.05 158.35 37.15 180.1 36.5 182.1 33.8 183.5 27.7 185.95 28.0 174.6 20.85 181.25 21.45 182.15 20.9 182.85 20.2 182.4 18.1 186.1 17.35 186.95 19.0 183.1 27.55 172.15 27.65 163.15 26.0 161.25 28.25 155.4 20.85 165.65 23.8 158.05 22.95 161.6 63.95 104.05 26.6 152.85 26.95 148.25 45.65 115.3 22.3 146.55 20.55 146.1 21.2 145.25 19.25 145.8 18.75 145.65 19.6 142.15 16.95 145.55 17.75 143.2 23.9 133.45 26.2 126.4 26.25 125.85 32.95 116.75 31.1 117.2 33.6 116.15 61.4 97.85" fill="#e0ffbd" fill-rule="evenodd" stroke="none"/>
    <path d="M42.8 256.75 L42.25 256.1 42.85 255.55 42.2 248.3 39.9 255.35 40.7 244.6 36.95 254.5 42.8 256.75 M151.1 277.55 L147.7 274.9 149.0 276.85 150.9 278.0 151.1 277.55 M133.25 267.2 L130.9 266.4 130.7 269.4 132.4 270.15 133.25 267.2 M99.95 238.85 L101.2 238.35 99.6 235.85 99.0 236.8 99.95 238.85 M122.6 207.55 L122.45 211.75 123.8 217.2 123.8 217.25 127.1 229.5 129.3 239.9 130.0 246.55 133.6 262.4 136.6 270.45 139.0 270.65 147.15 275.7 147.1 274.25 153.3 278.85 155.2 286.25 51.0 264.75 49.45 265.05 27.25 251.25 35.85 245.45 41.75 238.65 43.6 246.0 43.65 237.6 46.65 237.25 49.25 234.45 47.0 240.85 51.4 230.4 51.4 230.0 60.65 222.85 63.9 223.55 50.85 253.15 64.35 225.35 65.45 224.9 65.55 225.45 66.85 224.35 66.9 223.75 70.85 219.25 71.95 220.55 77.6 216.75 77.95 220.4 75.3 255.6 74.45 258.55 72.5 260.8 80.15 262.6 79.75 260.15 81.35 259.8 89.7 263.3 105.15 265.65 103.8 227.75 103.5 239.75 100.55 238.9 98.3 253.15 98.5 250.15 97.8 251.9 95.65 240.35 97.0 230.25 98.15 230.9 99.05 219.0 97.4 225.45 96.3 223.6 93.3 231.75 87.6 251.75 94.8 219.85 102.5 213.25 101.6 209.55 101.65 208.35 107.85 198.05 111.4 198.9 112.85 203.2 112.8 203.8 113.3 260.9 109.9 266.05 111.05 266.7 115.25 267.05 115.25 266.05 115.35 265.85 115.2 265.85 113.9 205.7 122.6 207.55" fill="#e0ffbd" fill-rule="evenodd" stroke="none"/>
    <path d="M23.45 67.4 L21.15 66.6 21.2 66.0 18.55 68.8 23.45 67.4 M35.3 53.85 L34.95 58.65 40.45 57.25 41.05 57.3 38.35 61.3 43.25 59.85 41.95 60.95 38.05 65.5 34.25 67.6 32.45 68.05 40.15 61.45 20.95 69.0 25.1 69.9 25.6 71.15 21.85 72.65 13.25 67.8 21.9 60.35 24.65 59.65 23.85 62.6 27.2 58.05 25.1 53.7 25.15 53.1 27.2 49.65 35.3 53.85" fill="#e0ffbd" fill-rule="evenodd" stroke="none"/>
    <path d="M52.9 67.2 L54.75 74.55 51.75 67.85 52.9 67.2" fill="#e0ffbd" fill-rule="evenodd" stroke="none"/>
    <path d="M67.05 62.85 L66.15 65.3 65.65 65.15 65.45 68.15 62.35 69.1 64.7 69.9 63.45 70.4 65.2 71.15 61.05 70.8 65.7 72.95 56.6 74.1 54.15 66.7 62.7 64.95 59.8 63.5 53.6 66.05 53.05 65.4 51.85 65.3 55.65 62.6 54.9 64.35 57.5 62.15 67.05 62.85" fill="#e0ffbd" fill-rule="evenodd" stroke="none"/>
    <path d="M67.3 67.1 L69.1 67.25 69.0 69.0 66.05 68.2 66.1 67.6 67.3 67.1" fill="#e0ffbd" fill-rule="evenodd" stroke="none"/>
    <path d="M17.45 96.05 L17.75 95.15 18.45 94.0 33.8 81.95 20.6 89.4 20.25 86.35 33.3 72.35 20.65 88.8 35.0 73.65 34.05 78.4 39.4 71.0 42.15 66.4 42.05 68.2 41.45 68.15 41.0 73.5 42.5 70.0 43.75 68.9 47.7 72.2 50.25 70.6 50.65 73.05 48.25 73.45 65.0 81.95 65.6 81.95 64.25 84.25 66.5 85.65 67.7 85.75 48.85 101.65 42.9 104.25 45.75 104.0 37.05 110.45 44.65 105.25 29.25 118.25 32.45 107.7 28.1 112.95 26.15 111.4 17.25 117.95 22.75 108.75 22.5 103.95 22.8 100.35 20.1 103.75 19.0 103.05 28.05 94.15 24.7 106.5 40.4 81.85 40.15 82.05 44.9 74.75 22.15 93.1 21.55 93.05 17.45 96.05" fill="#e0ffbd" fill-rule="evenodd" stroke="none"/>
    <path d="M63.65 60.2 L64.35 59.05 64.45 57.25 65.05 57.3 66.65 59.85 71.5 59.6 71.3 62.0 71.8 63.25 70.1 61.9 63.65 60.2" fill="#e0ffbd" fill-rule="evenodd" stroke="none"/>
    <path d="M62.05 57.7 L63.75 59.0 48.9 64.5 46.8 66.6 46.55 66.3 47.75 63.8 46.7 61.95 46.75 61.35 49.05 62.7 52.25 59.95 53.45 60.05 52.95 58.8 51.35 56.3 51.95 56.3 52.5 56.95 52.45 57.55 55.95 58.45 59.55 58.7 61.4 58.25 62.05 57.7" fill="#e0ffbd" fill-rule="evenodd" stroke="none"/>
    <path d="M24.9 45.7 L24.75 42.25 28.25 28.1 29.5 27.6 29.35 29.4 31.85 36.2 32.45 36.25 32.85 46.5 35.75 47.9 34.8 52.65 27.8 49.7 24.9 45.7" fill="#e0ffbd" fill-rule="evenodd" stroke="none"/>
    <path d="M30.75 26.5 L33.75 26.75 31.25 28.35 30.65 28.3 30.75 26.5" fill="#e0ffbd" fill-rule="evenodd" stroke="none"/>
    <path d="M29.8 23.45 L29.2 23.4 31.7 21.75 34.75 21.4 34.45 25.6 28.85 25.15 28.85 25.05 30.3 24.65 30.45 22.9 29.8 23.45" fill="#e0ffbd" fill-rule="evenodd" stroke="none"/>
    <path d="M362.3 66.55 L358.0 60.8 Q358.45 58.7 359.8 57.45 365.45 52.45 372.15 54.45 375.5 55.45 377.75 57.45 L378.9 53.7 Q380.8 49.75 384.4 48.8 388.65 47.7 394.25 51.0 L394.6 54.6 Q390.9 53.15 389.0 54.15 382.65 57.25 382.25 62.0 382.05 64.35 383.1 66.1 379.95 62.95 376.1 60.6 368.45 55.95 365.15 60.1 363.1 62.6 362.3 66.55" fill="#fffed9" fill-rule="evenodd" stroke="none"/>
    <path d="M403.4 59.85 Q398.3 56.05 394.6 54.6 L394.25 51.0 Q398.7 53.65 403.65 58.75 L407.7 63.35 Q405.9 61.75 403.4 59.85" fill="#534741" fill-rule="evenodd" stroke="none"/>
    <path d="M381.05 36.2 L378.8 34.05 Q379.7 30.9 381.55 30.1 385.85 28.25 389.4 30.75 391.2 32.05 392.1 33.65 L393.5 31.7 Q395.35 29.75 397.7 29.9 400.4 30.05 403.0 33.15 L402.5 35.3 Q400.65 33.7 399.3 33.9 395.0 34.45 393.8 37.15 L393.5 39.75 Q392.3 37.3 390.5 35.15 386.95 30.9 384.15 32.7 382.35 33.85 381.05 36.2" fill="#fffed9" fill-rule="evenodd" stroke="none"/>
    <path d="M407.0 39.5 L408.45 43.0 Q405.55 37.85 402.5 35.3 L403.0 33.15 Q405.15 35.55 407.0 39.5" fill="#5b4f4a" fill-rule="evenodd" stroke="none"/>
    <path d="M381.05 36.2 Q379.55 38.75 378.65 42.55 378.15 44.45 378.0 45.8 L377.9 41.7 Q377.95 37.0 378.8 34.05 L381.05 36.2" fill="#5b4f4a" fill-rule="evenodd" stroke="none"/>
    <path d="M148.0 22.4 Q146.0 21.15 144.65 21.45 140.5 22.4 139.75 25.0 139.35 26.25 139.8 27.35 138.25 25.25 136.15 23.5 132.0 20.05 129.55 21.95 128.0 23.1 127.0 25.45 L124.5 23.7 Q124.95 20.7 126.6 19.85 130.55 17.75 134.4 19.65 136.35 20.6 137.5 21.95 L138.6 20.05 Q140.15 18.1 142.45 18.0 145.1 17.85 148.2 20.35 L148.0 22.4" fill="#fffed9" fill-rule="evenodd" stroke="none"/>
    <path d="M127.0 25.45 Q125.9 27.9 125.55 31.45 L125.45 34.45 Q125.05 32.9 124.75 30.75 124.1 26.5 124.5 23.7 L127.0 25.45" fill="#685b56" fill-rule="evenodd" stroke="none"/>
    <path d="M155.05 28.75 Q151.4 24.4 148.0 22.4 L148.2 20.35 Q150.65 22.35 153.1 25.75 L155.05 28.75" fill="#685b56" fill-rule="evenodd" stroke="none"/>
    <path d="M165.45 15.8 Q166.7 15.9 167.6 16.4 L167.75 15.15 Q168.15 13.75 169.35 13.2 170.8 12.6 172.9 13.25 L173.25 14.35 171.25 14.55 Q169.25 16.0 169.4 17.5 169.5 18.3 169.95 18.75 168.65 18.0 167.2 17.5 164.25 16.55 163.35 18.1 162.85 19.0 162.75 20.5 L161.05 20.1 Q160.65 18.55 161.35 17.6 163.0 15.65 165.45 15.8" fill="#fffed9" fill-rule="evenodd" stroke="none"/>
    <path d="M162.75 20.5 Q162.7 22.95 163.9 25.6 161.65 22.6 161.05 20.1 L162.75 20.5" fill="#7f7a78" fill-rule="evenodd" stroke="none"/>
    <path d="M178.35 16.2 Q175.45 14.65 173.25 14.35 L172.9 13.25 Q175.65 14.05 178.35 16.2" fill="#7f7a78" fill-rule="evenodd" stroke="none"/>
    <path d="M163.0 44.8 L163.15 43.55 Q163.55 42.15 164.75 41.6 166.2 41.0 168.35 41.65 L168.65 42.75 Q167.35 42.5 166.7 43.0 164.7 44.4 164.85 45.9 164.95 46.7 165.4 47.15 164.1 46.4 162.6 45.9 159.65 44.95 158.75 46.5 158.25 47.4 158.15 48.9 L156.45 48.55 Q156.1 46.85 156.75 46.05 158.4 44.1 160.85 44.25 162.1 44.35 163.0 44.8" fill="#fffed9" fill-rule="evenodd" stroke="none"/>
    <path d="M173.75 44.6 Q170.85 43.1 168.65 42.75 L168.35 41.65 Q171.05 42.5 173.75 44.6" fill="#756a66" fill-rule="evenodd" stroke="none"/>
    <path d="M156.45 48.55 L158.15 48.9 Q158.1 51.4 159.3 54.0 157.05 51.0 156.45 48.55" fill="#756a66" fill-rule="evenodd" stroke="none"/>
    <path d="M315.2 20.8 Q326.5 28.25 318.45 33.85 317.2 34.7 315.8 35.35 L319.85 33.9 Q324.9 32.25 329.25 31.95 340.65 31.25 347.45 41.25 349.45 44.25 352.45 50.5 355.6 57.1 357.2 59.6 L358.0 60.8 362.3 66.55 Q369.55 75.4 375.3 78.0 383.4 81.65 386.95 71.75 389.0 86.55 380.5 92.45 377.85 94.3 374.45 95.05 L371.6 95.4 372.85 95.9 376.8 96.2 Q383.95 95.5 393.6 88.3 399.1 116.55 388.5 132.95 385.15 138.1 380.6 141.4 L376.75 143.7 380.0 149.85 Q383.4 157.5 384.25 165.15 386.9 189.55 362.8 204.6 360.25 199.2 354.05 199.7 350.3 200.0 341.85 203.5 L345.35 198.65 Q352.35 188.7 356.35 180.65 L356.45 181.3 Q361.45 177.05 364.35 171.9 367.8 165.8 367.05 160.4 366.35 155.7 362.95 152.1 359.8 148.75 354.8 147.0 353.0 140.25 350.9 134.15 345.45 118.05 336.65 103.65 L339.3 101.1 Q342.15 97.3 343.2 91.05 337.9 92.4 327.15 90.2 314.2 87.5 310.35 87.5 312.2 85.15 313.3 78.35 314.2 72.65 314.15 67.45 313.05 69.9 304.45 71.35 295.15 72.5 293.25 73.15 L293.45 70.75 Q293.5 67.55 292.7 63.6 288.35 69.1 276.85 77.15 L266.2 84.05 Q260.55 83.95 252.8 82.35 237.35 79.2 226.95 71.65 227.9 74.95 232.35 80.15 L239.5 87.85 221.9 91.75 Q212.05 93.2 206.9 89.95 208.2 92.0 209.65 100.65 210.95 108.4 213.45 110.55 211.6 113.1 208.7 115.45 202.9 120.2 197.8 119.5 L204.7 124.2 194.55 119.5 Q188.55 116.95 183.75 117.25 196.4 114.1 201.95 107.85 194.7 106.9 189.45 105.05 182.75 102.65 178.2 98.5 187.45 100.4 194.35 92.85 200.45 86.1 201.35 76.45 L200.85 77.35 Q200.5 78.0 200.8 78.65 194.05 81.2 187.7 80.55 181.1 79.9 175.45 75.85 170.75 72.7 169.6 67.55 173.45 71.4 188.2 61.85 195.6 57.1 202.2 51.55 198.9 50.75 194.7 48.75 186.3 44.8 181.85 39.1 185.25 38.95 191.95 39.15 L199.55 38.85 Q206.7 37.75 216.0 29.4 223.85 23.0 232.4 25.3 236.0 26.25 249.5 33.85 246.35 29.0 243.9 26.2 239.4 21.1 233.65 20.35 248.95 15.45 264.0 16.1 274.85 16.6 280.85 20.2 287.35 24.05 286.25 30.65 L295.2 21.45 Q300.4 14.95 295.95 13.3 299.6 13.75 305.05 15.8 310.9 18.0 315.2 20.8" fill="#58677c" fill-rule="evenodd" stroke="none"/>
    <path d="M169.4 67.35 L169.6 67.55 Q170.75 72.7 175.45 75.85 181.1 79.9 187.7 80.55 194.05 81.2 200.8 78.65 200.5 78.0 200.85 77.35 L201.35 76.45 Q200.45 86.1 194.35 92.85 187.45 100.4 178.2 98.5 182.75 102.65 189.45 105.05 194.7 106.9 201.95 107.85 196.4 114.1 183.75 117.25 188.55 116.95 194.55 119.5 L204.7 124.2 206.65 125.55 205.1 133.05 Q203.3 143.45 203.15 155.35 L203.3 166.1 Q198.35 169.2 195.85 173.6 193.15 178.3 193.9 183.4 194.65 188.75 199.7 193.65 203.95 197.75 209.9 200.5 L209.85 200.0 Q214.1 205.35 219.9 211.1 225.65 216.8 231.35 221.35 L227.45 222.8 214.05 219.4 214.3 220.6 204.5 218.25 Q204.4 214.7 200.35 210.1 L191.45 201.0 Q178.5 187.5 178.3 172.8 173.1 171.85 169.1 170.1 162.0 167.1 156.3 161.25 157.9 157.7 158.65 153.05 161.1 151.8 165.55 147.0 170.3 141.85 174.1 139.55 166.45 131.7 163.35 125.65 160.45 119.95 160.55 113.5 160.6 109.0 162.35 100.9 L165.95 83.75 Q167.1 91.65 175.1 91.4 179.1 91.3 182.85 89.6 179.95 89.05 176.8 87.05 170.45 83.05 169.2 75.9 168.55 72.0 169.4 67.35" fill="#455565" fill-rule="evenodd" stroke="none"/>
    <path d="M193.9 183.4 Q193.15 178.3 195.85 173.6 198.35 169.2 203.3 166.1 203.65 176.25 204.95 190.35 L205.25 193.4 Q206.75 196.05 209.85 200.0 L209.9 200.5 Q203.95 197.75 199.7 193.65 194.65 188.75 193.9 183.4" fill="#e2b78d" fill-rule="evenodd" stroke="none"/>
    <path d="M360.25 170.85 L359.75 168.3 Q357.45 156.9 354.8 147.0 359.8 148.75 362.95 152.1 366.35 155.7 367.05 160.4 367.8 165.8 364.35 171.9 361.45 177.05 356.45 181.3 L356.35 180.65 Q359.1 175.25 360.25 170.85" fill="#e2b78d" fill-rule="evenodd" stroke="none"/>
    <path d="M345.35 198.65 L341.85 203.5 338.4 207.95 338.15 208.95 Q336.3 209.15 335.1 210.8 333.85 212.5 335.35 213.2 333.75 215.75 331.1 218.3 L289.35 244.35 237.35 224.65 234.7 221.95 235.35 224.4 231.35 221.35 Q225.65 216.8 219.9 211.1 214.1 205.35 209.85 200.0 206.75 196.05 205.25 193.4 L204.95 190.35 Q203.65 176.25 203.3 166.1 L203.15 155.35 Q203.3 143.45 205.1 133.05 204.95 138.05 205.2 143.9 204.65 145.4 204.4 147.25 203.85 152.0 206.3 156.4 209.45 178.8 219.55 195.0 228.35 209.9 246.8 216.75 262.15 222.45 281.9 222.0 313.8 221.3 345.35 198.65" fill="#e2b78d" fill-rule="evenodd" stroke="none"/>
    <path d="M273.65 148.35 Q274.35 147.4 275.5 147.25 276.65 147.1 277.55 147.8 278.5 148.5 278.65 149.65 278.8 150.8 278.1 151.7 277.45 152.6 276.3 152.8 275.15 152.95 274.2 152.25 273.3 151.55 273.1 150.4 272.95 149.25 273.65 148.35" fill="#ffd7ab" fill-rule="evenodd" stroke="none"/>
    <path d="M288.75 196.4 Q289.6 196.0 289.5 195.5 289.45 195.05 288.45 194.85 L286.2 194.75 Q284.95 194.85 284.1 195.3 283.25 195.75 283.3 196.2 283.4 196.7 284.4 196.9 L286.65 197.0 288.75 196.4 M280.25 161.55 Q271.55 163.3 266.5 165.25 263.7 166.35 261.65 166.55 259.4 166.7 258.7 165.65 257.95 164.5 259.65 162.8 261.1 161.3 262.4 160.95 263.45 160.65 263.3 160.1 263.2 159.55 262.1 159.85 259.85 160.5 258.35 161.65 256.5 163.0 256.3 164.75 256.05 166.45 257.55 167.45 258.9 168.35 261.0 168.35 262.75 168.4 265.4 167.65 L270.35 176.6 275.25 185.6 Q277.75 189.65 279.4 191.15 282.6 194.2 285.95 192.75 288.35 191.7 290.8 188.0 292.85 184.8 294.8 179.2 296.3 174.7 297.65 167.85 298.95 161.3 298.85 159.2 290.6 159.4 280.25 161.55 M276.25 145.25 Q273.55 145.65 271.85 147.55 270.15 149.5 270.5 151.8 270.85 154.1 273.0 155.5 275.15 156.9 277.85 156.5 280.55 156.15 282.25 154.2 283.95 152.25 283.6 149.95 283.25 147.65 281.1 146.25 278.95 144.9 276.25 145.25 M231.3 120.6 Q229.3 114.9 224.15 114.65 219.35 114.4 216.0 118.55 L216.25 120.5 Q216.4 121.95 216.8 122.4 217.8 121.1 222.8 120.45 227.9 119.8 231.3 120.6 M326.45 106.8 Q326.75 106.3 326.4 104.85 326.05 103.25 326.15 102.85 321.7 99.85 317.2 101.4 312.3 103.05 312.0 109.1 315.1 107.4 320.15 106.6 L326.45 106.8 M327.15 90.2 Q337.9 92.4 343.2 91.05 342.15 97.3 339.3 101.1 L336.65 103.65 Q345.45 118.05 350.9 134.15 353.0 140.25 354.8 147.0 357.45 156.9 359.75 168.3 L360.25 170.85 Q359.1 175.25 356.35 180.65 352.35 188.7 345.35 198.65 313.8 221.3 281.9 222.0 262.15 222.45 246.8 216.75 228.35 209.9 219.55 195.0 209.45 178.8 206.3 156.4 209.65 162.2 217.25 165.45 215.05 167.05 215.25 168.7 215.5 170.55 218.7 171.45 L226.1 171.75 Q229.0 171.35 231.35 170.35 233.6 169.35 234.75 168.1 244.45 167.3 252.4 162.25 260.25 157.25 263.15 150.2 264.5 146.85 264.05 142.55 266.9 140.05 275.7 138.6 283.95 137.5 288.05 139.1 L288.35 139.2 Q289.1 143.3 291.35 146.1 296.25 152.25 305.65 154.7 315.15 157.2 325.0 154.8 326.35 155.9 328.95 156.3 331.65 156.75 334.85 156.3 339.1 155.7 341.9 153.95 344.65 152.2 344.4 150.3 344.1 148.15 339.95 147.3 345.25 142.8 347.1 137.35 349.05 131.7 346.75 126.45 343.5 118.9 333.45 115.2 323.25 111.4 312.15 114.05 302.15 116.35 295.55 122.25 289.0 128.05 288.25 135.25 283.4 134.45 275.75 135.45 268.4 136.25 262.95 138.85 260.15 132.25 252.2 128.55 244.25 124.85 234.05 125.45 223.9 126.05 215.65 131.45 207.7 136.65 205.2 143.9 204.95 138.05 205.1 133.05 L206.65 125.55 197.8 119.5 Q202.9 120.2 208.7 115.45 211.6 113.1 213.45 110.55 210.95 108.4 209.65 100.65 208.2 92.0 206.9 89.95 212.05 93.2 221.9 91.75 L239.5 87.85 232.35 80.15 Q227.9 74.95 226.95 71.65 237.35 79.2 252.8 82.35 260.55 83.95 266.2 84.05 L276.85 77.15 Q288.35 69.1 292.7 63.6 293.5 67.55 293.45 70.75 L293.25 73.15 Q295.15 72.5 304.45 71.35 313.05 69.9 314.15 67.45 314.2 72.65 313.3 78.35 312.2 85.15 310.35 87.5 314.2 87.5 327.15 90.2" fill="#ffd7ab" fill-rule="evenodd" stroke="none"/>
    <path d="M390.1 194.45 L389.6 196.55 389.6 196.65 391.8 202.9 395.05 202.8 374.95 221.4 371.6 223.65 369.35 222.9 365.9 227.5 358.3 232.6 Q359.8 227.85 358.05 221.35 356.25 214.7 352.8 212.9 L371.3 207.6 390.1 194.45" fill="#ffd7ab" fill-rule="evenodd" stroke="none"/>
    <path d="M329.9 222.4 L331.8 217.9 331.1 218.3 Q333.75 215.75 335.35 213.2 L336.85 214.05 336.85 214.7 337.5 214.55 Q340.9 217.3 342.05 224.05 342.5 226.5 342.95 231.45 L343.85 238.85 Q344.55 242.35 345.55 244.65 L340.05 249.35 Q340.9 252.75 342.0 256.05 326.55 258.95 313.0 257.95 319.45 251.7 323.85 241.85 327.4 233.8 329.9 222.4" fill="#fffde9" fill-rule="evenodd" stroke="none"/>
    <path d="M350.55 212.35 Q351.7 212.3 352.8 212.9 356.25 214.7 358.05 221.35 359.8 227.85 358.3 232.6 357.6 235.0 356.05 236.1 L350.55 240.45 Q349.65 237.55 349.05 231.85 L348.0 222.0 Q347.0 216.4 344.5 213.15 L350.55 212.35" fill="#fffde9" fill-rule="evenodd" stroke="none"/>
    <path d="M229.15 168.15 L234.75 168.1 Q233.6 169.35 231.35 170.35 229.0 171.35 226.1 171.75 L218.7 171.45 Q215.5 170.55 215.25 168.7 215.05 167.05 217.25 165.45 222.9 167.8 229.15 168.15" fill="#f797b7" fill-rule="evenodd" stroke="none"/>
    <path d="M325.0 154.8 L329.05 153.55 Q335.4 151.25 339.95 147.3 344.1 148.15 344.4 150.3 344.65 152.2 341.9 153.95 339.1 155.7 334.85 156.3 331.65 156.75 328.95 156.3 326.35 155.9 325.0 154.8" fill="#f797b7" fill-rule="evenodd" stroke="none"/>
    <path d="M271.85 147.55 Q273.55 145.65 276.25 145.25 278.95 144.9 281.1 146.25 283.25 147.65 283.6 149.95 283.95 152.25 282.25 154.2 280.55 156.15 277.85 156.5 275.15 156.9 273.0 155.5 270.85 154.1 270.5 151.8 270.15 149.5 271.85 147.55 M275.5 147.25 Q274.35 147.4 273.65 148.35 272.95 149.25 273.1 150.4 273.3 151.55 274.2 152.25 275.15 152.95 276.3 152.8 277.45 152.6 278.1 151.7 278.8 150.8 278.65 149.65 278.5 148.5 277.55 147.8 276.65 147.1 275.5 147.25" fill="#e2b78d" fill-rule="evenodd" stroke="none"/>
    <path d="M216.0 118.55 Q219.35 114.4 224.15 114.65 229.3 114.9 231.3 120.6 227.9 119.8 222.8 120.45 217.8 121.1 216.8 122.4 216.4 121.95 216.25 120.5 L216.0 118.55" fill="#2c323f" fill-rule="evenodd" stroke="none"/>
    <path d="M326.15 102.85 Q326.05 103.25 326.4 104.85 326.75 106.3 326.45 106.8 L320.15 106.6 Q315.1 107.4 312.0 109.1 312.3 103.05 317.2 101.4 321.7 99.85 326.15 102.85" fill="#2c323f" fill-rule="evenodd" stroke="none"/>
    <path d="M289.35 244.35 L292.15 244.4 298.4 245.2 Q307.6 247.1 308.65 252.65 314.85 248.9 321.45 238.4 325.9 231.4 329.9 222.4 327.4 233.8 323.85 241.85 319.45 251.7 313.0 257.95 305.1 257.45 297.65 255.35 296.4 254.4 295.15 254.0 L291.65 253.4 Q285.65 251.1 279.9 247.5 284.85 245.4 289.35 244.35" fill="#b7b4a3" fill-rule="evenodd" stroke="none"/>
    <path d="M305.05 263.95 Q304.6 264.25 303.9 263.45 L302.4 261.3 308.05 262.0 305.05 263.95" fill="#b7b4a3" fill-rule="evenodd" stroke="none"/>
    <path d="M258.2 257.85 Q259.9 267.55 260.3 278.85 260.6 288.05 260.05 300.0 L238.65 300.0 Q239.85 293.55 240.45 286.35 241.4 274.4 240.65 260.6 L207.35 248.05 Q208.85 248.45 210.6 247.7 212.35 246.9 213.65 244.75 221.25 247.05 224.55 247.3 230.25 247.7 232.25 244.1 234.45 239.15 232.6 233.15 230.95 227.9 226.55 222.6 L235.5 224.9 234.7 221.95 237.35 224.65 240.65 229.65 241.6 233.95 241.05 230.3 Q248.2 240.8 254.0 248.0 262.7 258.7 266.75 259.8 267.3 254.8 274.0 250.55 278.05 253.15 282.15 255.15 278.05 257.05 275.9 260.35 273.5 263.9 274.15 268.35 271.1 266.95 266.2 263.1 261.2 259.25 258.2 257.85" fill="#b7b4a3" fill-rule="evenodd" stroke="none"/>
    <path d="M291.65 253.4 L295.15 254.0 Q296.4 254.4 297.65 255.35 L296.35 255.0 291.65 253.4" fill="#fffde9" fill-rule="evenodd" stroke="none"/>
    <path d="M341.4 260.15 L336.55 266.65 340.05 278.6 355.1 285.4 358.3 290.85 Q361.35 295.85 364.5 300.0 L260.05 300.0 Q260.6 288.05 260.3 278.85 259.9 267.55 258.2 257.85 261.2 259.25 266.2 263.1 271.1 266.95 274.15 268.35 273.5 263.9 275.9 260.35 278.05 257.05 282.15 255.15 287.55 257.8 293.6 259.45 L302.4 261.3 303.9 263.45 Q304.6 264.25 305.05 263.95 L308.05 262.0 Q323.5 263.5 341.4 260.15" fill="#fffde9" fill-rule="evenodd" stroke="none"/>
    <path d="M135.1 64.65 L135.2 65.85 132.9 66.2 132.75 64.75 Q132.35 62.3 133.65 62.1 134.9 61.85 135.1 64.65" fill="#c7b299" fill-rule="evenodd" stroke="none"/>
    <path d="M122.55 77.05 Q122.65 74.25 124.4 71.8 126.05 69.45 128.75 67.85 128.25 76.0 128.25 82.5 126.6 87.5 128.45 92.05 129.05 105.85 131.5 120.15 L131.5 120.3 Q131.45 122.45 132.25 124.25 134.1 133.85 136.65 142.85 136.0 148.95 138.9 154.05 141.95 159.45 146.65 159.15 147.9 159.1 148.55 158.0 149.15 157.0 149.15 155.55 154.45 155.75 158.9 151.25 L158.65 153.05 Q157.9 157.7 156.3 161.25 153.0 168.35 146.7 169.5 L146.55 168.0 Q146.25 163.55 144.25 163.9 142.2 164.25 142.85 168.1 L143.05 169.7 Q134.65 169.15 130.9 163.55 127.7 158.9 126.05 147.5 L123.5 116.95 123.5 116.85 Q121.95 89.9 122.55 77.05" fill="#ba7d1c" fill-rule="evenodd" stroke="none"/>
    <path d="M140.75 133.35 Q138.85 136.0 138.0 137.85 136.9 140.1 136.65 142.85 134.1 133.85 132.25 124.25 133.65 127.35 136.65 127.25 L139.9 126.75 143.0 126.6 Q143.25 126.65 144.35 127.2 L144.45 127.3 144.45 127.35 143.6 129.0 140.75 133.35" fill="#ffc44d" fill-rule="evenodd" stroke="none"/>
    <path d="M132.9 66.2 L135.2 65.85 Q139.75 65.5 143.2 67.9 147.1 70.65 148.6 76.4 152.05 89.9 156.05 115.65 159.75 140.1 159.35 146.85 L158.9 151.25 Q154.45 155.75 149.15 155.55 149.1 153.65 148.2 152.3 147.2 150.8 145.65 150.9 144.1 151.0 143.3 148.7 142.7 146.9 142.75 144.65 142.8 143.0 144.1 140.95 L146.3 137.85 148.7 134.25 150.45 130.1 Q151.2 127.35 150.35 124.75 149.6 122.25 147.65 120.55 147.25 119.95 146.5 119.7 143.65 117.8 139.8 118.3 L138.1 118.6 138.55 117.1 Q139.5 113.6 141.45 110.35 L145.1 104.75 148.65 99.05 Q149.9 96.65 148.55 94.0 146.35 89.65 141.95 88.85 L134.7 88.6 133.9 88.45 Q133.75 87.15 134.3 85.65 135.4 82.5 138.6 80.35 139.5 80.35 139.9 79.6 141.0 79.1 141.85 78.95 144.8 78.5 144.3 74.35 143.8 70.2 140.85 70.7 137.35 71.3 133.7 74.55 129.8 78.05 128.25 82.5 128.25 76.0 128.75 67.85 130.7 66.75 132.9 66.2" fill="#ffc44d" fill-rule="evenodd" stroke="none"/>
    <path d="M128.45 92.05 L129.1 93.45 Q130.35 95.8 132.9 96.5 L137.3 96.8 139.65 96.65 141.85 96.9 135.15 107.45 Q131.65 113.85 131.5 120.15 129.05 105.85 128.45 92.05" fill="#ffc44d" fill-rule="evenodd" stroke="none"/>
    <path d="M143.65 73.55 Q143.6 72.7 143.2 72.05 L141.0 72.85 Q139.75 72.95 139.1 74.0 135.45 76.55 133.55 80.45 130.85 85.85 133.55 90.8 134.15 91.85 135.15 92.3 L137.9 92.75 139.2 92.7 140.15 92.65 142.05 92.55 144.85 93.0 147.9 94.2 143.55 101.0 Q139.9 106.5 138.6 109.3 136.35 114.1 136.25 119.0 L136.45 120.85 137.95 115.0 Q139.0 111.35 141.1 107.6 L144.5 102.5 146.5 99.5 148.3 96.45 Q148.9 95.3 148.15 93.85 147.0 91.55 145.25 90.7 143.75 90.0 140.9 90.0 L136.5 89.95 135.6 89.75 133.5 89.5 133.2 87.45 Q132.95 85.55 133.75 83.35 134.75 80.65 137.1 78.35 L137.05 78.8 Q137.05 79.45 137.5 79.9 137.95 80.35 138.6 80.35 135.4 82.5 134.3 85.65 133.75 87.15 133.9 88.45 L134.7 88.6 141.95 88.85 Q146.35 89.65 148.55 94.0 149.9 96.65 148.65 99.05 L145.1 104.75 141.45 110.35 Q139.5 113.6 138.55 117.1 L138.1 118.6 139.8 118.3 Q143.65 117.8 146.5 119.7 L145.95 119.6 145.1 119.8 143.4 119.55 136.45 120.9 Q136.75 122.0 137.35 122.6 137.9 123.2 138.7 123.2 L140.85 122.85 144.05 122.4 144.1 122.4 Q144.65 123.65 145.95 123.65 L147.2 123.2 147.65 123.45 147.8 123.5 149.7 124.9 149.1 126.85 148.2 128.65 148.0 128.95 145.45 132.95 Q143.35 135.95 142.45 137.7 141.0 140.7 141.35 144.7 141.65 148.8 143.6 151.85 L144.45 153.05 144.4 153.55 Q144.4 154.4 145.0 155.0 145.55 155.6 146.4 155.6 147.15 155.6 147.8 155.05 L148.25 155.1 148.35 155.1 Q148.55 154.6 148.4 153.7 L148.45 153.55 Q148.45 152.75 147.85 152.15 147.25 151.55 146.4 151.55 L145.55 151.75 144.35 150.85 Q142.05 148.55 142.05 143.25 142.1 141.3 143.2 139.2 143.8 138.05 145.35 135.95 L146.4 134.5 148.45 131.4 Q149.45 129.65 149.85 128.05 150.35 126.15 149.85 124.35 149.35 122.55 147.95 121.3 L147.65 120.55 Q149.6 122.25 150.35 124.75 151.2 127.35 150.45 130.1 L148.7 134.25 146.3 137.85 144.1 140.95 Q142.8 143.0 142.75 144.65 142.7 146.9 143.3 148.7 144.1 151.0 145.65 150.9 147.2 150.8 148.2 152.3 149.1 153.65 149.15 155.55 149.15 157.0 148.55 158.0 147.9 159.1 146.65 159.15 141.95 159.45 138.9 154.05 136.0 148.95 136.65 142.85 136.9 140.1 138.0 137.85 138.85 136.0 140.75 133.35 L143.6 129.0 144.45 127.35 144.45 127.3 144.35 127.2 Q143.25 126.65 143.0 126.6 L139.9 126.75 136.65 127.25 Q133.65 127.35 132.25 124.25 131.45 122.45 131.5 120.3 L131.5 120.15 Q131.65 113.85 135.15 107.45 L141.85 96.9 139.65 96.65 137.3 96.8 132.9 96.5 Q130.35 95.8 129.1 93.45 L128.45 92.05 Q126.6 87.5 128.25 82.5 129.8 78.05 133.7 74.55 137.35 71.3 140.85 70.7 143.8 70.2 144.3 74.35 144.8 78.5 141.85 78.95 141.0 79.1 139.9 79.6 L140.15 78.8 Q140.15 78.15 139.7 77.75 139.25 77.3 138.6 77.3 L138.35 77.3 139.3 76.6 Q140.0 77.45 141.1 77.45 142.05 77.45 142.7 76.8 143.4 76.1 143.4 75.15 L143.35 74.95 143.4 74.95 Q143.7 74.5 143.65 73.55" fill="#b21b1b" fill-rule="evenodd" stroke="none"/>
    <path d="M147.8 155.05 Q148.4 154.45 148.4 153.7 148.55 154.6 148.35 155.1 L148.25 155.1 147.8 155.05" fill="#f93a3a" fill-rule="evenodd" stroke="none"/>
    <path d="M147.2 123.2 Q147.95 122.55 147.95 121.6 L147.95 121.3 Q149.35 122.55 149.85 124.35 150.35 126.15 149.85 128.05 149.45 129.65 148.45 131.4 L146.4 134.5 145.35 135.95 Q143.8 138.05 143.2 139.2 142.1 141.3 142.05 143.25 142.05 148.55 144.35 150.85 L145.55 151.75 Q144.7 152.15 144.45 153.05 L143.6 151.85 Q141.65 148.8 141.35 144.7 141.0 140.7 142.45 137.7 143.35 135.95 145.45 132.95 L148.0 128.95 148.2 128.65 149.1 126.85 149.7 124.9 147.8 123.5 147.65 123.45 147.2 123.2" fill="#f93a3a" fill-rule="evenodd" stroke="none"/>
    <path d="M143.4 119.55 L145.1 119.8 Q143.95 120.3 143.95 121.6 143.95 122.05 144.1 122.4 L144.05 122.4 140.85 122.85 138.7 123.2 Q137.9 123.2 137.35 122.6 136.75 122.0 136.45 120.9 L143.4 119.55" fill="#f93a3a" fill-rule="evenodd" stroke="none"/>
    <path d="M143.35 74.95 Q143.3 74.05 142.65 73.45 142.0 72.85 141.1 72.85 L141.0 72.85 143.2 72.05 Q143.6 72.7 143.65 73.55 143.7 74.5 143.4 74.95 L143.35 74.95" fill="#f93a3a" fill-rule="evenodd" stroke="none"/>
    <path d="M138.35 77.3 Q137.45 77.45 137.1 78.35 134.75 80.65 133.75 83.35 132.95 85.55 133.2 87.45 L133.5 89.5 135.6 89.75 136.5 89.95 140.9 90.0 Q143.75 90.0 145.25 90.7 147.0 91.55 148.15 93.85 148.9 95.3 148.3 96.45 L146.5 99.5 144.5 102.5 141.1 107.6 Q139.0 111.35 137.95 115.0 L136.45 120.85 136.25 119.0 Q136.35 114.1 138.6 109.3 139.9 106.5 143.55 101.0 L147.9 94.2 144.85 93.0 142.05 92.55 140.15 92.65 139.2 92.7 137.9 92.75 135.15 92.3 Q134.15 91.85 133.55 90.8 130.85 85.85 133.55 80.45 135.45 76.55 139.1 74.0 138.8 74.55 138.8 75.15 138.8 75.95 139.3 76.6 L138.35 77.3" fill="#f93a3a" fill-rule="evenodd" stroke="none"/>
    <path d="M148.15 221.2 Q147.75 219.4 146.9 210.7 L151.65 211.85 152.55 220.1 Q152.95 224.5 150.95 224.8 149.0 225.05 148.15 221.2" fill="#917f6b" fill-rule="evenodd" stroke="none"/>
    <path d="M146.55 168.0 L147.2 174.35 Q145.35 174.8 143.65 175.7 L143.05 169.7 142.85 168.1 Q142.2 164.25 144.25 163.9 146.25 163.55 146.55 168.0" fill="#917f6b" fill-rule="evenodd" stroke="none"/>
    <path d="M164.4 187.25 Q164.95 189.35 165.05 196.35 L196.15 216.25 214.3 220.6 Q215.1 224.45 215.5 228.55 216.1 234.8 215.45 239.05 L214.7 242.25 Q203.3 238.15 194.2 233.05 177.85 223.75 162.2 209.9 159.25 207.7 162.2 202.7 156.75 204.55 151.4 203.6 145.4 202.55 143.45 198.3 141.2 193.0 140.7 187.6 140.1 181.55 141.9 176.75 L143.65 175.7 Q145.35 174.8 147.2 174.35 153.2 172.95 157.7 177.05 163.05 181.9 164.4 187.25" fill="#ffd7ab" fill-rule="evenodd" stroke="none"/>
    <path d="M241.6 233.95 L240.65 229.65 241.05 230.3 241.6 233.95" fill="#ffd7ab" fill-rule="evenodd" stroke="none"/>
    <path d="M132.8 188.6 Q135.5 181.05 141.9 176.75 140.1 181.55 140.7 187.6 141.2 193.0 143.45 198.3 145.4 202.55 151.4 203.6 156.75 204.55 162.2 202.7 159.25 207.7 162.2 209.9 177.85 223.75 194.2 233.05 203.3 238.15 214.7 242.25 L213.65 244.75 Q212.35 246.9 210.6 247.7 L190.4 240.1 154.1 212.5 146.9 210.7 Q142.4 209.5 139.7 208.1 136.0 206.2 133.7 203.15 129.85 196.75 132.8 188.6" fill="#e2b78d" fill-rule="evenodd" stroke="none"/>
    <path d="M214.3 220.6 L214.05 219.4 226.55 222.6 Q230.95 227.9 232.6 233.15 234.45 239.15 232.25 244.1 230.25 247.7 224.55 247.3 221.25 247.05 213.65 244.75 L214.7 242.25 215.45 239.05 Q216.1 234.8 215.5 228.55 215.1 224.45 214.3 220.6" fill="#fffde9" fill-rule="evenodd" stroke="none"/>
    <path d="M344.85 255.55 L341.4 260.15 Q323.5 263.5 308.05 262.0 L302.4 261.3 293.6 259.45 Q287.55 257.8 282.15 255.15 278.05 253.15 274.0 250.55 276.45 249.0 279.9 247.5 285.65 251.1 291.65 253.4 L296.35 255.0 297.65 255.35 Q305.1 257.45 313.0 257.95 326.55 258.95 342.0 256.05 L344.85 255.55" fill="#4d4d4d" fill-rule="evenodd" stroke="none"/>
    <path d="M344.5 213.15 Q347.0 216.4 348.0 222.0 L349.05 231.85 Q349.65 237.55 350.55 240.45 351.45 243.2 352.8 245.0 L349.1 249.9 Q346.9 247.8 345.55 244.65 344.55 242.35 343.85 238.85 L342.95 231.45 Q342.5 226.5 342.05 224.05 340.9 217.3 337.5 214.55 L336.85 214.05 335.35 213.2 Q333.85 212.5 335.1 210.8 336.3 209.15 338.15 208.95 L339.35 209.1 Q342.55 210.6 344.5 213.15" fill="#4d4d4d" fill-rule="evenodd" stroke="none"/>
    <path d="M369.35 222.9 L395.25 231.2 395.9 232.65 Q392.7 237.35 380.9 256.0 371.75 270.4 365.35 278.9 359.85 276.35 351.85 271.65 L338.6 263.9 369.35 222.9 M380.8 247.35 Q381.55 242.15 378.35 238.5 375.15 234.85 369.95 234.95 364.7 235.0 360.45 238.7 356.2 242.4 355.45 247.6 354.7 252.75 357.9 256.4 361.1 260.05 366.35 260.0 371.55 259.95 375.8 256.25 380.05 252.55 380.8 247.35" fill="#636363" fill-rule="evenodd" stroke="none"/>
    <path d="M395.9 232.65 L401.4 244.85 367.1 290.85 340.05 278.6 336.55 266.65 338.6 263.9 351.85 271.65 Q359.85 276.35 365.35 278.9 371.75 270.4 380.9 256.0 392.7 237.35 395.9 232.65" fill="#3a3a3a" fill-rule="evenodd" stroke="none"/>
    <path d="M369.95 234.95 Q375.15 234.85 378.35 238.5 381.55 242.15 380.8 247.35 380.05 252.55 375.8 256.25 371.55 259.95 366.35 260.0 361.1 260.05 357.9 256.4 354.7 252.75 355.45 247.6 356.2 242.4 360.45 238.7 364.7 235.0 369.95 234.95 M373.45 247.4 Q373.75 245.25 372.4 243.7 371.1 242.15 368.9 242.2 366.65 242.25 364.9 243.8 363.15 245.35 362.8 247.5 362.5 249.7 363.85 251.2 365.15 252.75 367.4 252.7 369.6 252.7 371.35 251.15 373.1 249.55 373.45 247.4" fill="#3a3a3a" fill-rule="evenodd" stroke="none"/>
    <path d="M364.9 243.8 Q366.65 242.25 368.9 242.2 371.1 242.15 372.4 243.7 373.75 245.25 373.45 247.4 373.1 249.55 371.35 251.15 369.6 252.7 367.4 252.7 365.15 252.75 363.85 251.2 362.5 249.7 362.8 247.5 363.15 245.35 364.9 243.8" fill="#eefbff" fill-rule="evenodd" stroke="none"/>
    <path d="M279.9 247.5 Q276.45 249.0 274.0 250.55 267.3 254.8 266.75 259.8 262.7 258.7 254.0 248.0 248.2 240.8 241.05 230.3 L237.35 224.65 289.35 244.35 Q284.85 245.4 279.9 247.5" fill="#d14620" fill-rule="evenodd" stroke="none"/>
    <path d="M331.8 217.9 L329.9 222.4 Q325.9 231.4 321.45 238.4 314.85 248.9 308.65 252.65 307.6 247.1 298.4 245.2 L292.15 244.4 289.35 244.35 331.8 217.9" fill="#d14620" fill-rule="evenodd" stroke="none"/>
    <path d="M268.95 169.3 Q276.45 166.0 281.0 164.9 288.15 163.2 294.1 164.75 294.95 164.95 295.45 165.55 L295.45 165.85 295.1 168.25 293.85 174.1 293.65 174.75 292.9 177.35 Q291.5 182.05 289.5 185.7 287.4 189.5 285.2 190.8 284.05 191.5 282.95 191.1 L281.0 189.7 Q279.65 188.4 278.35 186.4 L276.25 182.85 274.6 179.9 Q279.8 177.7 281.85 177.0 285.25 175.85 288.4 175.5 L281.45 176.1 Q276.75 176.75 273.75 178.3 L270.25 171.7 270.2 171.5 269.0 169.35 268.95 169.3" fill="#f2efe4" fill-rule="evenodd" stroke="none"/>
    <path d="M274.6 179.9 L273.75 178.3 Q276.75 176.75 281.45 176.1 L288.55 175.5 Q285.35 175.8 281.85 177.0 279.8 177.7 274.6 179.9" fill="#c7cebc" fill-rule="evenodd" stroke="none"/>
    <path d="M268.95 169.3 L267.6 166.95 Q273.7 165.0 277.7 163.95 287.85 161.2 295.75 160.6 L295.5 165.35 295.45 165.55 Q294.95 164.95 294.1 164.75 288.15 163.2 281.0 164.9 276.45 166.0 268.95 169.3" fill="#c7cebc" fill-rule="evenodd" stroke="none"/>
    <path d="M266.5 165.25 Q271.55 163.3 280.25 161.55 290.6 159.4 298.85 159.2 298.95 161.3 297.65 167.85 296.3 174.7 294.8 179.2 292.85 184.8 290.8 188.0 288.35 191.7 285.95 192.75 282.6 194.2 279.4 191.15 277.75 189.65 275.25 185.6 L270.35 176.6 265.4 167.65 Q262.75 168.4 261.0 168.35 258.9 168.35 257.55 167.45 256.05 166.45 256.3 164.75 256.5 163.0 258.35 161.65 259.85 160.5 262.1 159.85 263.2 159.55 263.3 160.1 263.45 160.65 262.4 160.95 261.1 161.3 259.65 162.8 257.95 164.5 258.7 165.65 259.4 166.7 261.65 166.55 263.7 166.35 266.5 165.25 M268.95 169.3 L269.0 169.35 270.2 171.5 270.25 171.7 276.25 182.85 278.35 186.4 Q279.65 188.4 281.0 189.7 L282.95 191.1 Q284.05 191.5 285.2 190.8 287.4 189.5 289.5 185.7 291.5 182.05 292.9 177.35 L293.65 174.75 293.85 174.1 295.1 168.25 295.45 165.85 295.45 165.55 295.5 165.35 295.75 160.6 Q287.85 161.2 277.7 163.95 273.7 165.0 267.6 166.95 L268.95 169.3" fill="#c19c7a" fill-rule="evenodd" stroke="none"/>
    <path d="M286.2 194.75 L288.45 194.85 Q289.45 195.05 289.5 195.5 289.6 196.0 288.75 196.4 L286.65 197.0 284.4 196.9 Q283.4 196.7 283.3 196.2 283.25 195.75 284.1 195.3 284.95 194.85 286.2 194.75" fill="#c19c7a" fill-rule="evenodd" stroke="none"/>
    <path d="M141.0 72.85 L141.1 72.85 Q142.0 72.85 142.65 73.45 143.3 74.05 143.35 74.95 L143.4 75.15 Q143.4 76.1 142.7 76.8 142.05 77.45 141.1 77.45 140.0 77.45 139.3 76.6 138.8 75.95 138.8 75.15 138.8 74.55 139.1 74.0 139.75 72.95 141.0 72.85" fill="#ffffff" fill-rule="evenodd" stroke="none"/>
    <path d="M138.35 77.3 L138.6 77.3 Q139.25 77.3 139.7 77.75 140.15 78.15 140.15 78.8 L139.9 79.6 Q139.5 80.35 138.6 80.35 137.95 80.35 137.5 79.9 137.05 79.45 137.05 78.8 L137.1 78.35 Q137.45 77.45 138.35 77.3" fill="#ffffff" fill-rule="evenodd" stroke="none"/>
    <path d="M145.1 119.8 L145.95 119.6 146.5 119.7 Q147.25 119.95 147.65 120.55 L147.95 121.3 147.95 121.6 Q147.95 122.55 147.2 123.2 L145.95 123.65 Q144.65 123.65 144.1 122.4 143.95 122.05 143.95 121.6 143.95 120.3 145.1 119.8" fill="#ffffff" fill-rule="evenodd" stroke="none"/>
    <path d="M148.45 153.55 L148.4 153.7 Q148.4 154.45 147.8 155.05 147.15 155.6 146.4 155.6 145.55 155.6 145.0 155.0 144.4 154.4 144.4 153.55 L144.45 153.05 Q144.7 152.15 145.55 151.75 L146.4 151.55 Q147.25 151.55 147.85 152.15 148.45 152.75 148.45 153.55" fill="#ffffff" fill-rule="evenodd" stroke="none"/>
    <path d="M399.65 176.15 Q400.6 179.55 400.3 183.9 401.25 179.5 402.0 177.3 403.15 173.95 404.4 173.5 407.65 172.4 403.65 189.05 405.3 187.95 406.35 184.75 407.7 180.7 408.25 179.9 411.1 181.65 409.2 187.55 407.35 193.1 404.4 194.9 404.9 195.4 408.25 196.4 410.8 197.15 410.6 199.0 407.35 200.35 403.2 201.35 L395.05 202.8 391.8 202.9 389.6 196.65 389.6 196.55 390.1 194.45 Q390.85 190.4 390.85 188.75 L390.65 184.15 Q390.6 181.4 391.35 179.9 393.4 180.25 394.25 182.95 394.85 184.8 394.75 187.3 396.3 185.45 396.45 180.35 L396.75 172.85 Q398.6 172.35 399.65 176.15" fill="#ffd7ab" fill-rule="evenodd" stroke="none"/>
    <path d="M296.5 136.85 Q295.85 137.5 295.95 138.2 296.05 138.9 296.85 139.3 L298.7 139.55 Q299.75 139.4 300.4 138.8 301.1 138.15 301.0 137.45 300.9 136.75 300.05 136.35 L298.2 136.1 Q297.2 136.25 296.5 136.85 M301.65 125.2 Q298.45 126.15 297.6 130.25 296.85 134.15 298.35 134.7 298.95 134.9 300.65 133.15 302.35 131.4 303.55 129.3 306.85 123.7 301.65 125.2 M333.8 119.55 Q342.1 123.65 343.0 130.85 343.9 138.1 337.4 144.35 330.8 150.75 320.6 152.1 L316.05 152.45 Q309.4 152.4 303.85 150.05 298.35 147.7 295.35 143.65 293.65 141.2 293.1 138.15 292.25 130.9 298.65 124.65 305.25 118.25 315.45 116.9 325.7 115.55 333.8 119.55" fill="#734f37" fill-rule="evenodd" stroke="none"/>
    <path d="M212.7 149.1 Q212.05 149.75 212.15 150.45 212.25 151.15 213.1 151.55 L214.9 151.75 Q215.95 151.6 216.65 151.0 217.3 150.4 217.2 149.7 217.1 149.0 216.25 148.6 215.45 148.2 214.4 148.35 213.4 148.5 212.7 149.1 M214.85 136.95 Q221.5 130.8 231.7 129.15 241.85 127.55 250.0 131.8 257.95 135.95 259.2 143.1 260.05 150.4 253.6 156.55 247.1 162.7 236.8 164.35 226.65 166.0 218.5 161.75 210.5 157.6 209.3 150.4 208.1 143.25 214.85 136.95 M217.85 137.45 Q214.65 138.4 213.8 142.5 213.05 146.4 214.55 146.95 215.15 147.15 216.85 145.4 L219.75 141.55 Q223.05 135.9 217.85 137.45" fill="#734f37" fill-rule="evenodd" stroke="none"/>
    <path d="M231.7 129.15 Q221.5 130.8 214.85 136.95 208.1 143.25 209.3 150.4 210.5 157.6 218.5 161.75 226.65 166.0 236.8 164.35 247.1 162.7 253.6 156.55 260.05 150.4 259.2 143.1 257.95 135.95 250.0 131.8 241.85 127.55 231.7 129.15 M333.45 115.2 Q343.5 118.9 346.75 126.45 349.05 131.7 347.1 137.35 345.25 142.8 339.95 147.3 335.4 151.25 329.05 153.55 L325.0 154.8 Q315.15 157.2 305.65 154.7 296.25 152.25 291.35 146.1 289.1 143.3 288.35 139.2 L288.05 139.1 Q283.95 137.5 275.7 138.6 266.9 140.05 264.05 142.55 264.5 146.85 263.15 150.2 260.25 157.25 252.4 162.25 244.45 167.3 234.75 168.1 L229.15 168.15 Q222.9 167.8 217.25 165.45 209.65 162.2 206.3 156.4 203.85 152.0 204.4 147.25 204.65 145.4 205.2 143.9 207.7 136.65 215.65 131.45 223.9 126.05 234.05 125.45 244.25 124.85 252.2 128.55 260.15 132.25 262.95 138.85 268.4 136.25 275.75 135.45 283.4 134.45 288.25 135.25 289.0 128.05 295.55 122.25 302.15 116.35 312.15 114.05 323.25 111.4 333.45 115.2 M337.4 144.35 Q343.9 138.1 343.0 130.85 342.1 123.65 333.8 119.55 325.7 115.55 315.45 116.9 305.25 118.25 298.65 124.65 292.25 130.9 293.1 138.15 293.65 141.2 295.35 143.65 298.2 147.75 303.7 150.1 309.25 152.5 316.05 152.45 L320.6 152.1 Q330.8 150.75 337.4 144.35" fill="#42424f" fill-rule="evenodd" stroke="none"/>
    <path d="M214.55 146.95 Q213.05 146.4 213.8 142.5 214.65 138.4 217.85 137.45 223.05 135.9 219.75 141.55 L216.85 145.4 Q215.15 147.15 214.55 146.95" fill="#ffffff" fill-rule="evenodd" stroke="none"/>
    <path d="M298.35 134.7 Q296.85 134.15 297.6 130.25 298.45 126.15 301.65 125.2 306.85 123.7 303.55 129.3 302.35 131.4 300.65 133.15 298.95 134.9 298.35 134.7" fill="#ffffff" fill-rule="evenodd" stroke="none"/>
    <path d="M298.7 139.55 L296.85 139.3 Q296.05 138.9 295.95 138.2 295.85 137.5 296.5 136.85 297.2 136.25 298.2 136.1 L300.05 136.35 Q300.9 136.75 301.0 137.45 301.1 138.15 300.4 138.8 299.75 139.4 298.7 139.55" fill="#ffffff" fill-rule="evenodd" stroke="none"/>
    <path d="M214.9 151.75 L213.1 151.55 Q212.25 151.15 212.15 150.45 212.05 149.75 212.7 149.1 213.4 148.5 214.4 148.35 215.45 148.2 216.25 148.6 217.1 149.0 217.2 149.7 217.3 150.4 216.65 151.0 215.95 151.6 214.9 151.75" fill="#ffffff" fill-rule="evenodd" stroke="none"/>
  </g>
  <defs>
    <linearGradient gradientTransform="matrix(0.0, -0.2602, -0.2602, 0.0, 8.1, 162.85)" gradientUnits="userSpaceOnUse" id="gradient0" spreadMethod="pad" x1="-819.2" x2="819.2">
      <stop offset="0.09803921568627451" stop-color="#fffacd"/>
      <stop offset="0.5450980392156862" stop-color="#55aee7"/>
      <stop offset="1.0" stop-color="#0086e0"/>
    </linearGradient>
    <linearGradient gradientTransform="matrix(0.0, -0.2602, -0.2602, 0.0, 14.9, 162.85)" gradientUnits="userSpaceOnUse" id="gradient1" spreadMethod="pad" x1="-819.2" x2="819.2">
      <stop offset="0.09803921568627451" stop-color="#fffacd"/>
      <stop offset="0.5450980392156862" stop-color="#55aee7"/>
      <stop offset="1.0" stop-color="#0086e0"/>
    </linearGradient>
    <linearGradient gradientTransform="matrix(0.0, -0.2602, -0.2602, 0.0, 317.85, 162.85)" gradientUnits="userSpaceOnUse" id="gradient2" spreadMethod="pad" x1="-819.2" x2="819.2">
      <stop offset="0.09803921568627451" stop-color="#fffacd"/>
      <stop offset="0.5450980392156862" stop-color="#55aee7"/>
      <stop offset="1.0" stop-color="#0086e0"/>
    </linearGradient>
    <linearGradient gradientTransform="matrix(0.0, -0.2602, -0.2602, 0.0, 358.2, 162.85)" gradientUnits="userSpaceOnUse" id="gradient3" spreadMethod="pad" x1="-819.2" x2="819.2">
      <stop offset="0.09803921568627451" stop-color="#fffacd"/>
      <stop offset="0.5450980392156862" stop-color="#55aee7"/>
      <stop offset="1.0" stop-color="#0086e0"/>
    </linearGradient>
    <linearGradient gradientTransform="matrix(0.0, -0.2602, -0.2602, 0.0, 157.75, 162.85)" gradientUnits="userSpaceOnUse" id="gradient4" spreadMethod="pad" x1="-819.2" x2="819.2">
      <stop offset="0.09803921568627451" stop-color="#fffacd"/>
      <stop offset="0.5450980392156862" stop-color="#55aee7"/>
      <stop offset="1.0" stop-color="#0086e0"/>
    </linearGradient>
    <linearGradient gradientTransform="matrix(0.0, -0.2602, -0.2602, 0.0, 231.45, 162.85)" gradientUnits="userSpaceOnUse" id="gradient5" spreadMethod="pad" x1="-819.2" x2="819.2">
      <stop offset="0.09803921568627451" stop-color="#fffacd"/>
      <stop offset="0.5450980392156862" stop-color="#55aee7"/>
      <stop offset="1.0" stop-color="#0086e0"/>
    </linearGradient>
    <linearGradient gradientTransform="matrix(0.0, -0.2602, -0.2602, 0.0, 374.4, 162.85)" gradientUnits="userSpaceOnUse" id="gradient6" spreadMethod="pad" x1="-819.2" x2="819.2">
      <stop offset="0.09803921568627451" stop-color="#fffacd"/>
      <stop offset="0.5450980392156862" stop-color="#55aee7"/>
      <stop offset="1.0" stop-color="#0086e0"/>
    </linearGradient>
    <linearGradient gradientTransform="matrix(0.0, -0.2602, -0.2602, 0.0, 356.7, 162.85)" gradientUnits="userSpaceOnUse" id="gradient7" spreadMethod="pad" x1="-819.2" x2="819.2">
      <stop offset="0.09803921568627451" stop-color="#fffacd"/>
      <stop offset="0.5450980392156862" stop-color="#55aee7"/>
      <stop offset="1.0" stop-color="#0086e0"/>
    </linearGradient>
    <linearGradient gradientTransform="matrix(0.0, -0.2602, -0.2602, 0.0, 337.2, 162.85)" gradientUnits="userSpaceOnUse" id="gradient8" spreadMethod="pad" x1="-819.2" x2="819.2">
      <stop offset="0.09803921568627451" stop-color="#fffacd"/>
      <stop offset="0.5450980392156862" stop-color="#55aee7"/>
      <stop offset="1.0" stop-color="#0086e0"/>
    </linearGradient>
    <linearGradient gradientTransform="matrix(0.0, -0.2602, -0.2602, 0.0, 175.6, 162.85)" gradientUnits="userSpaceOnUse" id="gradient9" spreadMethod="pad" x1="-819.2" x2="819.2">
      <stop offset="0.09803921568627451" stop-color="#fffacd"/>
      <stop offset="0.5450980392156862" stop-color="#55aee7"/>
      <stop offset="1.0" stop-color="#0086e0"/>
    </linearGradient>
    <linearGradient gradientTransform="matrix(0.0, -0.2602, -0.2602, 0.0, 344.55, 162.85)" gradientUnits="userSpaceOnUse" id="gradient10" spreadMethod="pad" x1="-819.2" x2="819.2">
      <stop offset="0.09803921568627451" stop-color="#fffacd"/>
      <stop offset="0.5450980392156862" stop-color="#55aee7"/>
      <stop offset="1.0" stop-color="#0086e0"/>
    </linearGradient>
    <linearGradient gradientTransform="matrix(0.0, -0.2602, -0.2602, 0.0, 178.15, 162.85)" gradientUnits="userSpaceOnUse" id="gradient11" spreadMethod="pad" x1="-819.2" x2="819.2">
      <stop offset="0.09803921568627451" stop-color="#fffacd"/>
      <stop offset="0.5450980392156862" stop-color="#55aee7"/>
      <stop offset="1.0" stop-color="#0086e0"/>
    </linearGradient>
    <linearGradient gradientTransform="matrix(0.0, -0.2602, -0.2602, 0.0, 419.85, 162.85)" gradientUnits="userSpaceOnUse" id="gradient12" spreadMethod="pad" x1="-819.2" x2="819.2">
      <stop offset="0.09803921568627451" stop-color="#fffacd"/>
      <stop offset="0.5450980392156862" stop-color="#55aee7"/>
      <stop offset="1.0" stop-color="#0086e0"/>
    </linearGradient>
    <linearGradient gradientTransform="matrix(0.0, -0.2602, -0.2602, 0.0, 165.05, 162.85)" gradientUnits="userSpaceOnUse" id="gradient13" spreadMethod="pad" x1="-819.2" x2="819.2">
      <stop offset="0.09803921568627451" stop-color="#fffacd"/>
      <stop offset="0.5450980392156862" stop-color="#55aee7"/>
      <stop offset="1.0" stop-color="#0086e0"/>
    </linearGradient>
  </defs>
</svg>
