<?xml version="1.0" encoding="UTF-8" standalone="no"?>
<svg xmlns:ffdec="https://www.free-decompiler.com/flash" xmlns:xlink="http://www.w3.org/1999/xlink" ffdec:objectType="shape" height="300.0px" width="420.0px" xmlns="http://www.w3.org/2000/svg">
  <g transform="matrix(1.0, 0.0, 0.0, 1.0, 0.0, 0.0)">
    <path d="M111.8 73.95 Q116.6 21.6 120.8 0.0 L124.4 0.0 Q123.85 21.6 117.4 73.55 110.95 124.9 109.0 125.3 107.0 125.7 111.8 73.95" fill="#fff7f0" fill-rule="evenodd" stroke="none"/>
    <path d="M147.95 0.0 L149.35 0.0 Q150.65 10.15 143.35 71.25 136.15 131.8 134.15 132.2 132.15 132.6 138.25 71.65 144.4 10.1 147.95 0.0" fill="#fff7f0" fill-rule="evenodd" stroke="none"/>
    <path d="M351.9 36.9 L343.9 37.15 345.0 30.65 352.65 28.55 351.9 36.9" fill="url(#gradient0)" fill-rule="evenodd" stroke="none"/>
    <path d="M404.1 19.7 L402.95 33.75 386.05 35.7 383.5 83.45 405.1 85.2 Q395.2 90.05 389.25 99.35 383.15 108.95 383.15 120.35 383.15 130.45 388.1 139.35 386.8 148.6 395.5 157.9 399.35 162.05 403.3 165.15 408.7 169.4 415.7 172.9 L416.85 173.2 417.65 173.05 418.25 172.9 420.0 172.3 420.0 191.5 406.3 203.65 406.25 203.75 403.35 208.75 349.3 190.75 352.45 185.0 362.0 187.85 364.0 186.0 368.25 181.25 Q374.15 174.5 373.7 168.55 373.1 159.95 359.3 153.9 L360.7 153.05 Q358.4 150.1 357.25 144.25 356.4 139.9 356.05 132.5 360.8 125.65 362.8 120.1 368.5 115.3 371.65 110.45 374.55 105.85 372.8 105.35 371.55 104.95 370.5 105.7 368.85 106.8 366.95 107.2 367.45 103.5 366.0 100.05 364.8 97.15 362.6 95.2 365.05 89.8 365.2 81.55 L371.3 82.0 375.05 36.3 361.05 36.65 361.0 26.5 Q384.5 21.05 404.1 19.7" fill="url(#gradient1)" fill-rule="evenodd" stroke="none"/>
    <path d="M413.65 19.25 Q417.2 19.15 420.0 19.3 L420.0 33.55 413.0 33.6 413.65 19.25" fill="url(#gradient2)" fill-rule="evenodd" stroke="none"/>
    <path d="M357.5 102.35 Q356.9 107.4 355.5 114.8 L355.3 115.0 Q354.65 108.05 352.65 105.75 355.3 104.3 357.5 102.35" fill="url(#gradient3)" fill-rule="evenodd" stroke="none"/>
    <path d="M6.0 140.7 Q2.45 142.25 0.0 145.0 L0.0 106.3 2.75 106.6 2.75 107.8 6.0 109.7 6.0 140.7" fill="url(#gradient4)" fill-rule="evenodd" stroke="none"/>
    <path d="M156.65 0.0 L158.4 0.0 163.35 0.8 154.85 99.4 Q150.55 101.5 144.1 99.6 L156.65 0.0" fill="url(#gradient5)" fill-rule="evenodd" stroke="none"/>
    <path d="M156.65 0.0 L158.4 0.0 163.35 0.8 154.85 99.4 Q150.55 101.5 144.1 99.6 L156.65 0.0" fill="url(#gradient6)" fill-rule="evenodd" stroke="none"/>
    <path d="M174.35 39.3 L178.85 3.35 203.45 7.4 Q196.85 9.55 191.05 12.35 185.3 15.15 181.65 17.95 185.7 19.95 188.3 27.9 189.6 31.85 190.05 35.4 182.7 36.65 174.35 39.3" fill="url(#gradient7)" fill-rule="evenodd" stroke="none"/>
    <path d="M174.35 39.3 L178.85 3.35 203.45 7.4 Q196.85 9.55 191.05 12.35 185.3 15.15 181.65 17.95 185.7 19.95 188.3 27.9 189.6 31.85 190.05 35.4 182.7 36.65 174.35 39.3" fill="url(#gradient8)" fill-rule="evenodd" stroke="none"/>
    <path d="M131.65 0.0 L139.15 0.0 129.9 111.55 127.4 131.2 Q122.4 129.9 117.6 129.3 116.2 128.3 115.25 127.8 117.65 110.55 131.65 0.0" fill="url(#gradient9)" fill-rule="evenodd" stroke="none"/>
    <path d="M131.65 0.0 L139.15 0.0 129.9 111.55 127.4 131.2 Q122.4 129.9 117.6 129.3 116.2 128.3 115.25 127.8 117.65 110.55 131.65 0.0" fill="url(#gradient10)" fill-rule="evenodd" stroke="none"/>
    <path d="M129.9 111.55 L128.35 131.45 127.4 131.2 129.9 111.55" fill="#fff7f0" fill-rule="evenodd" stroke="none"/>
    <path d="M129.9 111.55 L128.35 131.45 127.4 131.2 129.9 111.55" fill="url(#gradient11)" fill-rule="evenodd" stroke="none"/>
    <path d="M129.9 111.55 L128.35 131.45 127.4 131.2 129.9 111.55" fill="url(#gradient12)" fill-rule="evenodd" stroke="none"/>
    <path d="M153.7 113.1 L151.3 142.6 Q145.8 138.6 139.45 135.6 L144.05 99.75 Q147.25 102.4 149.7 106.25 L153.7 113.1" fill="url(#gradient13)" fill-rule="evenodd" stroke="none"/>
    <path d="M153.7 113.1 L151.3 142.6 Q145.8 138.6 139.45 135.6 L144.05 99.75 Q147.25 102.4 149.7 106.25 L153.7 113.1" fill="url(#gradient14)" fill-rule="evenodd" stroke="none"/>
    <path d="M163.75 124.2 Q167.3 126.65 172.05 128.95 L172.7 129.8 Q173.3 130.75 173.2 131.6 172.85 134.35 165.5 134.55 170.8 139.05 176.15 142.35 L161.35 142.7 163.75 124.2" fill="url(#gradient15)" fill-rule="evenodd" stroke="none"/>
    <path d="M163.75 124.2 Q167.3 126.65 172.05 128.95 L172.7 129.8 Q173.3 130.75 173.2 131.6 172.85 134.35 165.5 134.55 170.8 139.05 176.15 142.35 L161.35 142.7 163.75 124.2" fill="url(#gradient16)" fill-rule="evenodd" stroke="none"/>
    <path d="M96.6 39.55 Q97.3 28.7 94.2 18.35 91.25 8.4 85.05 0.0 L111.95 0.0 Q103.8 103.15 102.35 124.95 L94.5 124.15 49.5 126.65 44.4 139.6 43.45 139.7 Q36.25 141.0 31.85 144.95 22.9 137.15 11.2 139.2 8.35 139.7 6.0 140.7 L6.0 109.7 Q11.05 112.25 18.6 115.25 25.8 118.05 27.9 118.35 31.6 116.1 36.95 109.75 42.7 102.9 46.95 95.25 67.25 91.6 81.15 76.25 95.25 60.6 96.6 39.55" fill="url(#gradient17)" fill-rule="evenodd" stroke="none"/>
    <path d="M96.6 39.55 Q97.3 28.7 94.2 18.35 91.25 8.4 85.05 0.0 L111.95 0.0 Q103.8 103.15 102.35 124.95 L94.5 124.15 49.5 126.65 44.4 139.6 43.45 139.7 Q36.25 141.0 31.85 144.95 22.9 137.15 11.2 139.2 8.35 139.7 6.0 140.7 L6.0 109.7 Q11.05 112.25 18.6 115.25 25.8 118.05 27.9 118.35 31.6 116.1 36.95 109.75 42.7 102.9 46.95 95.25 67.25 91.6 81.15 76.25 95.25 60.6 96.6 39.55" fill="url(#gradient18)" fill-rule="evenodd" stroke="none"/>
    <path d="M345.0 30.65 L343.9 37.15 341.5 37.2 Q341.3 33.85 340.7 29.95 L345.0 30.65" fill="#abd9e6" fill-rule="evenodd" stroke="none"/>
    <path d="M124.4 0.0 L131.65 0.0 Q117.65 110.55 115.25 127.8 L113.7 127.0 Q111.4 126.1 102.35 124.95 103.8 103.15 111.95 0.0 L120.8 0.0 Q116.6 21.6 111.8 73.95 107.0 125.7 109.0 125.3 110.95 124.9 117.4 73.55 123.85 21.6 124.4 0.0" fill="#92e7ff" fill-rule="evenodd" stroke="none"/>
    <path d="M149.35 0.0 L156.65 0.0 144.1 99.6 143.8 99.5 144.05 99.75 139.45 135.6 Q134.0 133.05 128.35 131.45 L129.9 111.55 139.15 0.0 147.95 0.0 Q144.4 10.1 138.25 71.65 132.15 132.6 134.15 132.2 136.15 131.8 143.35 71.25 150.65 10.15 149.35 0.0" fill="#92e7ff" fill-rule="evenodd" stroke="none"/>
    <path d="M151.85 142.95 L151.3 142.6 153.7 113.1 Q155.6 116.3 157.5 118.55 156.0 138.65 156.8 138.5 157.55 138.35 160.1 121.2 L163.75 124.2 161.35 142.7 151.85 142.95" fill="#92e7ff" fill-rule="evenodd" stroke="none"/>
    <path d="M163.35 0.8 L178.85 3.35 174.35 39.3 169.75 40.9 Q173.25 4.85 171.45 5.05 169.55 5.25 165.05 42.8 164.6 43.05 164.1 43.25 L164.95 43.65 Q162.2 66.65 159.5 95.45 157.45 98.2 154.85 99.4 L163.35 0.8" fill="#92e7ff" fill-rule="evenodd" stroke="none"/>
    <path d="M168.2 81.15 Q166.45 81.75 164.85 85.05 L165.8 77.0 Q166.75 79.15 168.2 81.15" fill="#92e7ff" fill-rule="evenodd" stroke="none"/>
    <path d="M156.8 138.5 Q156.0 138.65 157.5 118.55 L160.1 121.2 Q157.55 138.35 156.8 138.5" fill="#fff7f0" fill-rule="evenodd" stroke="none"/>
    <path d="M171.45 5.05 Q173.25 4.85 169.75 40.9 L165.05 42.8 Q169.55 5.25 171.45 5.05" fill="#fff7f0" fill-rule="evenodd" stroke="none"/>
    <path d="M164.95 43.65 Q167.3 45.0 167.2 48.6 167.15 50.65 165.8 56.6 162.75 69.8 165.8 77.0 L164.85 85.05 162.55 90.15 Q161.0 93.45 159.5 95.45 162.2 66.65 164.95 43.65" fill="#fff7f0" fill-rule="evenodd" stroke="none"/>
    <path d="M405.1 85.2 L414.05 85.9 Q402.25 88.7 394.6 98.25 386.85 107.9 386.85 120.35 386.85 127.0 389.35 133.35 388.55 136.05 388.2 138.7 L388.1 139.35 Q383.15 130.45 383.15 120.35 383.15 108.95 389.25 99.35 395.2 90.05 405.1 85.2" fill="#fff7f0" fill-rule="evenodd" stroke="none"/>
    <path d="M414.05 85.9 L420.0 86.35 420.0 98.9 Q418.2 94.45 413.45 90.55 412.7 89.95 411.75 89.95 411.0 89.95 410.2 90.5 409.5 91.05 409.25 91.9 409.0 92.75 409.35 93.55 411.6 99.05 412.35 101.8 L411.4 101.65 Q410.2 101.65 409.4 102.55 408.55 103.55 408.8 104.9 L408.8 105.1 Q409.1 106.15 408.4 107.85 407.15 111.05 403.5 113.25 397.45 116.9 393.75 123.0 390.95 127.5 389.35 133.35 386.85 127.0 386.85 120.35 386.85 107.9 394.6 98.25 402.25 88.7 414.05 85.9" fill="#fddca7" fill-rule="evenodd" stroke="none"/>
    <path d="M406.35 128.7 Q405.25 127.05 407.95 121.7 409.3 123.9 408.9 126.9 408.65 129.25 407.8 130.1 L407.5 130.4 406.35 128.7" fill="#fddca7" fill-rule="evenodd" stroke="none"/>
    <path d="M413.9 118.85 Q418.05 115.5 420.0 110.35 L420.0 123.3 418.65 126.25 418.55 126.4 Q417.4 123.1 414.6 119.65 L413.9 118.85" fill="#fddca7" fill-rule="evenodd" stroke="none"/>
    <path d="M407.8 130.1 Q408.65 129.25 408.9 126.9 409.3 123.9 407.95 121.7 405.25 127.05 406.35 128.7 L407.5 130.4 407.8 130.1 M415.3 103.5 Q416.05 109.75 411.2 117.6 416.3 114.1 418.05 108.0 420.3 99.6 411.75 92.6 415.1 100.7 415.3 103.5 M413.45 90.55 Q418.2 94.45 420.0 98.9 L420.0 110.35 Q418.05 115.5 413.9 118.85 L414.6 119.65 Q417.4 123.1 418.55 126.4 L418.65 126.25 420.0 123.3 420.0 130.85 Q417.75 132.3 416.3 132.55 417.85 127.9 412.6 121.3 410.55 118.9 409.55 118.35 408.25 117.55 409.65 119.55 412.05 122.8 411.5 127.2 411.1 130.4 409.75 131.85 408.3 133.45 407.75 133.45 406.2 133.6 404.15 130.05 402.15 126.85 406.2 119.45 411.1 112.15 411.85 109.8 412.8 106.8 412.05 105.2 L411.55 104.3 Q411.35 104.2 411.35 104.5 411.8 106.4 410.8 108.8 409.15 112.85 404.8 115.5 399.35 118.8 395.95 124.4 392.1 130.6 390.75 139.15 389.3 147.45 397.4 156.1 401.35 160.3 405.45 163.5 410.45 167.35 416.85 170.6 L420.0 169.55 420.0 172.3 418.25 172.9 417.65 173.05 416.85 173.2 415.7 172.9 Q408.7 169.4 403.3 165.15 399.35 162.05 395.5 157.9 386.8 148.6 388.1 139.35 L388.2 138.7 Q388.55 136.05 389.35 133.35 390.95 127.5 393.75 123.0 397.45 116.9 403.5 113.25 407.15 111.05 408.4 107.85 409.1 106.15 408.8 105.1 L408.8 104.9 Q408.55 103.55 409.4 102.55 410.2 101.65 411.4 101.65 L412.35 101.8 Q411.6 99.05 409.35 93.55 409.0 92.75 409.25 91.9 409.5 91.05 410.2 90.5 411.0 89.95 411.75 89.95 412.7 89.95 413.45 90.55" fill="#f6f0dc" fill-rule="evenodd" stroke="none"/>
    <path d="M390.75 139.15 Q392.1 130.6 395.95 124.4 399.35 118.8 404.8 115.5 409.15 112.85 410.8 108.8 411.8 106.4 411.35 104.5 411.35 104.2 411.55 104.3 L412.05 105.2 Q412.8 106.8 411.85 109.8 411.1 112.15 406.2 119.45 402.15 126.85 404.15 130.05 406.2 133.6 407.75 133.45 408.3 133.45 409.75 131.85 411.1 130.4 411.5 127.2 412.05 122.8 409.65 119.55 408.25 117.55 409.55 118.35 410.55 118.9 412.6 121.3 417.85 127.9 416.3 132.55 417.75 132.3 420.0 130.85 L420.0 169.55 416.85 170.6 Q410.45 167.35 405.45 163.5 401.35 160.3 397.4 156.1 389.3 147.45 390.75 139.15" fill="#b19580" fill-rule="evenodd" stroke="none"/>
    <path d="M418.05 108.0 Q416.3 114.1 411.2 117.6 416.05 109.75 415.3 103.5 415.1 100.7 411.75 92.6 420.3 99.6 418.05 108.0" fill="#b19580" fill-rule="evenodd" stroke="none"/>
    <path d="M118.0 300.0 L130.8 296.65 239.35 296.65 227.9 300.0 118.0 300.0" fill="url(#gradient19)" fill-rule="evenodd" stroke="none"/>
    <path d="M249.9 296.65 L274.15 296.65 281.05 300.0 238.7 300.0 249.9 296.65" fill="url(#gradient20)" fill-rule="evenodd" stroke="none"/>
    <path d="M302.7 296.65 L322.75 296.65 318.85 300.0 310.6 300.0 302.7 296.65" fill="url(#gradient21)" fill-rule="evenodd" stroke="none"/>
    <path d="M0.0 193.0 L6.0 192.8 6.0 244.1 0.0 244.45 0.0 193.0" fill="url(#gradient22)" fill-rule="evenodd" stroke="none"/>
    <path d="M6.0 273.85 L6.0 294.05 0.0 295.2 0.0 274.7 6.0 273.85" fill="url(#gradient23)" fill-rule="evenodd" stroke="none"/>
    <path d="M0.0 300.0 L0.0 298.7 10.35 296.65 116.9 296.65 103.25 300.0 0.0 300.0" fill="url(#gradient24)" fill-rule="evenodd" stroke="none"/>
    <path d="M122.6 283.85 Q133.45 282.4 143.35 277.85 152.9 273.45 160.9 266.55 L197.0 259.3 221.4 271.1 116.9 296.65 10.35 296.65 85.6 281.6 Q103.4 286.5 122.6 283.85" fill="url(#gradient25)" fill-rule="evenodd" stroke="none"/>
    <path d="M122.6 283.85 Q133.45 282.4 143.35 277.85 152.9 273.45 160.9 266.55 L197.0 259.3 221.4 271.1 116.9 296.65 10.35 296.65 85.6 281.6 Q103.4 286.5 122.6 283.85" fill="url(#gradient26)" fill-rule="evenodd" stroke="none"/>
    <path d="M291.9 239.2 L289.0 239.6 292.3 228.2 Q293.65 232.1 291.9 239.2" fill="url(#gradient27)" fill-rule="evenodd" stroke="none"/>
    <path d="M291.9 239.2 L289.0 239.6 292.3 228.2 Q293.65 232.1 291.9 239.2" fill="url(#gradient28)" fill-rule="evenodd" stroke="none"/>
    <path d="M6.0 294.05 L6.0 273.85 56.5 266.95 Q67.1 275.45 80.4 280.0 L6.0 294.05" fill="url(#gradient29)" fill-rule="evenodd" stroke="none"/>
    <path d="M6.0 294.05 L6.0 273.85 56.5 266.95 Q67.1 275.45 80.4 280.0 L6.0 294.05" fill="url(#gradient30)" fill-rule="evenodd" stroke="none"/>
    <path d="M163.35 264.35 Q169.7 258.3 174.65 250.75 L178.2 250.25 195.0 258.35 163.35 264.35" fill="url(#gradient31)" fill-rule="evenodd" stroke="none"/>
    <path d="M163.35 264.35 Q169.7 258.3 174.65 250.75 L178.2 250.25 195.0 258.35 163.35 264.35" fill="url(#gradient32)" fill-rule="evenodd" stroke="none"/>
    <path d="M223.95 272.35 L261.05 290.3 239.35 296.65 130.8 296.65 223.95 272.35 M231.0 278.0 L224.0 288.0 244.0 285.0 231.0 278.0" fill="url(#gradient33)" fill-rule="evenodd" stroke="none"/>
    <path d="M223.95 272.35 L261.05 290.3 239.35 296.65 130.8 296.65 223.95 272.35 M231.0 278.0 L224.0 288.0 244.0 285.0 231.0 278.0" fill="url(#gradient34)" fill-rule="evenodd" stroke="none"/>
    <path d="M274.15 296.65 L249.9 296.65 264.9 292.2 274.15 296.65" fill="url(#gradient35)" fill-rule="evenodd" stroke="none"/>
    <path d="M274.15 296.65 L249.9 296.65 264.9 292.2 274.15 296.65" fill="url(#gradient36)" fill-rule="evenodd" stroke="none"/>
    <path d="M189.9 150.05 Q189.1 155.9 187.55 159.85 182.35 155.35 175.35 153.05 169.2 151.05 164.25 151.5 163.15 151.65 162.3 152.1 L159.7 149.5 189.9 150.05" fill="url(#gradient37)" fill-rule="evenodd" stroke="none"/>
    <path d="M189.9 150.05 Q189.1 155.9 187.55 159.85 182.35 155.35 175.35 153.05 169.2 151.05 164.25 151.5 163.15 151.65 162.3 152.1 L159.7 149.5 189.9 150.05" fill="url(#gradient38)" fill-rule="evenodd" stroke="none"/>
    <path d="M349.4 261.5 Q344.2 269.95 342.65 279.65 L322.75 296.65 302.7 296.65 188.95 248.8 219.0 244.65 214.5 241.9 Q215.65 238.45 214.75 235.85 213.8 233.2 211.25 233.4 L182.4 234.85 Q184.35 229.15 185.4 223.35 199.65 234.2 214.7 227.0 224.55 226.25 232.85 219.8 239.45 214.8 245.7 208.1 250.55 202.85 254.2 197.75 256.25 194.95 257.9 191.5 267.15 199.7 271.6 206.6 L271.55 207.05 Q273.45 209.75 274.5 212.65 L275.7 217.15 275.9 217.9 276.05 219.75 276.6 220.2 276.85 222.25 Q274.15 226.3 273.85 233.8 273.55 241.4 276.1 245.9 277.8 248.95 280.45 249.45 L285.75 249.75 Q277.5 257.7 273.35 263.2 266.9 271.6 272.35 271.65 L273.7 271.7 277.1 271.25 Q319.1 267.55 349.4 261.5" fill="url(#gradient39)" fill-rule="evenodd" stroke="none"/>
    <path d="M349.4 261.5 Q344.2 269.95 342.65 279.65 L322.75 296.65 302.7 296.65 188.95 248.8 219.0 244.65 214.5 241.9 Q215.65 238.45 214.75 235.85 213.8 233.2 211.25 233.4 L182.4 234.85 Q184.35 229.15 185.4 223.35 199.65 234.2 214.7 227.0 224.55 226.25 232.85 219.8 239.45 214.8 245.7 208.1 250.55 202.85 254.2 197.75 256.25 194.95 257.9 191.5 267.15 199.7 271.6 206.6 L271.55 207.05 Q273.45 209.75 274.5 212.65 L275.7 217.15 275.9 217.9 276.05 219.75 276.6 220.2 276.85 222.25 Q274.15 226.3 273.85 233.8 273.55 241.4 276.1 245.9 277.8 248.95 280.45 249.45 L285.75 249.75 Q277.5 257.7 273.35 263.2 266.9 271.6 272.35 271.65 L273.7 271.7 277.1 271.25 Q319.1 267.55 349.4 261.5" fill="url(#gradient40)" fill-rule="evenodd" stroke="none"/>
    <path d="M6.0 192.8 L29.55 192.0 Q26.2 207.05 29.25 221.25 31.6 232.5 36.65 242.5 L6.0 244.1 6.0 192.8" fill="url(#gradient41)" fill-rule="evenodd" stroke="none"/>
    <path d="M6.0 192.8 L29.55 192.0 Q26.2 207.05 29.25 221.25 31.6 232.5 36.65 242.5 L6.0 244.1 6.0 192.8" fill="url(#gradient42)" fill-rule="evenodd" stroke="none"/>
    <path d="M347.65 193.85 L349.3 190.75 403.35 208.75 399.05 216.1 Q382.25 214.45 354.1 222.2 333.9 227.8 309.9 237.55 320.45 221.35 321.75 210.1 L322.55 209.35 343.3 215.0 381.35 203.0 347.65 193.85" fill="url(#gradient43)" fill-rule="evenodd" stroke="none"/>
    <path d="M347.65 193.85 L349.3 190.75 403.35 208.75 399.05 216.1 Q382.25 214.45 354.1 222.2 333.9 227.8 309.9 237.55 320.45 221.35 321.75 210.1 L322.55 209.35 343.3 215.0 381.35 203.0 347.65 193.85" fill="url(#gradient44)" fill-rule="evenodd" stroke="none"/>
    <path d="M176.15 142.35 Q181.4 145.55 186.3 147.4 L190.1 148.55 189.9 150.05 159.7 149.5 157.3 147.3 Q158.85 146.8 159.95 145.7 161.1 144.5 161.35 142.8 L161.35 142.7 176.15 142.35" fill="url(#gradient45)" fill-rule="evenodd" stroke="none"/>
    <path d="M176.15 142.35 Q181.4 145.55 186.3 147.4 L190.1 148.55 189.9 150.05 159.7 149.5 157.3 147.3 Q158.85 146.8 159.95 145.7 161.1 144.5 161.35 142.8 L161.35 142.7 176.15 142.35" fill="url(#gradient46)" fill-rule="evenodd" stroke="none"/>
    <path d="M176.15 142.35 Q181.4 145.55 186.3 147.4 L190.1 148.55 189.9 150.05 159.7 149.5 157.3 147.3 Q158.85 146.8 159.95 145.7 161.1 144.5 161.35 142.8 L161.35 142.7 176.15 142.35" fill="url(#gradient47)" fill-rule="evenodd" stroke="none"/>
    <path d="M161.35 142.8 Q161.1 144.5 159.95 145.7 158.85 146.8 157.3 147.3 L151.85 142.95 161.35 142.7 161.35 142.8" fill="#92e7ff" fill-rule="evenodd" stroke="none"/>
    <path d="M161.35 142.8 Q161.1 144.5 159.95 145.7 158.85 146.8 157.3 147.3 L151.85 142.95 161.35 142.7 161.35 142.8" fill="url(#gradient48)" fill-rule="evenodd" stroke="none"/>
    <path d="M0.0 295.2 L80.4 280.0 85.6 281.6 0.0 298.7 0.0 295.2" fill="#d2b58c" fill-rule="evenodd" stroke="none"/>
    <path d="M163.35 264.35 L195.0 258.35 197.0 259.3 160.9 266.55 163.35 264.35" fill="#d2b58c" fill-rule="evenodd" stroke="none"/>
    <path d="M118.0 300.0 L103.25 300.0 221.4 271.1 223.95 272.35 118.0 300.0" fill="#d2b58c" fill-rule="evenodd" stroke="none"/>
    <path d="M261.05 290.3 L264.9 292.2 238.7 300.0 227.9 300.0 261.05 290.3" fill="#d2b58c" fill-rule="evenodd" stroke="none"/>
    <path d="M178.2 250.25 L188.95 248.8 310.6 300.0 281.05 300.0 178.2 250.25" fill="#947b51" fill-rule="evenodd" stroke="none"/>
    <path d="M0.0 244.45 L36.65 242.5 37.5 244.05 0.7 246.3 0.0 246.6 0.0 244.45" fill="#ffbf2b" fill-rule="evenodd" stroke="none"/>
    <path d="M0.0 264.95 L0.0 252.6 4.7 253.0 41.5 250.65 Q44.9 255.7 48.7 259.7 L0.0 264.95" fill="#ffbf2b" fill-rule="evenodd" stroke="none"/>
    <path d="M211.25 233.4 Q213.8 233.2 214.75 235.85 215.65 238.45 214.5 241.9 L177.55 245.85 180.55 239.6 Q213.85 236.5 212.35 235.65 L212.4 234.7 Q212.25 233.9 210.35 234.0 L182.2 235.45 182.4 234.85 211.25 233.4" fill="#ffbf2b" fill-rule="evenodd" stroke="none"/>
    <path d="M0.0 246.6 L0.7 246.3 37.5 244.05 Q39.25 247.3 41.5 250.65 L4.7 253.0 0.0 252.6 0.0 246.6" fill="#ffef70" fill-rule="evenodd" stroke="none"/>
    <path d="M210.35 234.0 Q212.25 233.9 212.4 234.7 L212.35 235.65 Q213.85 236.5 180.55 239.6 L182.2 235.45 210.35 234.0" fill="#ffef70" fill-rule="evenodd" stroke="none"/>
    <path d="M343.3 215.0 L342.3 204.6 342.25 204.3 347.65 193.85 381.35 203.0 343.3 215.0" fill="#b99961" fill-rule="evenodd" stroke="none"/>
    <path d="M356.85 160.05 Q354.05 158.75 351.1 157.65 355.5 156.05 359.3 153.9 373.1 159.95 373.7 168.55 374.15 174.5 368.25 181.25 370.25 175.1 367.0 169.15 363.8 163.2 356.85 160.05" fill="#e7e0b4" fill-rule="evenodd" stroke="none"/>
    <path d="M364.0 186.0 L362.0 187.85 352.45 185.0 353.1 183.95 Q353.4 176.7 344.9 172.1 337.25 167.95 328.1 168.4 L327.4 162.75 Q340.95 161.35 351.1 157.65 354.05 158.75 356.85 160.05 363.8 163.2 367.0 169.15 370.25 175.1 368.25 181.25 L364.0 186.0" fill="#a6a17d" fill-rule="evenodd" stroke="none"/>
    <path d="M342.25 204.3 L342.3 204.6 341.75 204.5 342.25 204.3" fill="#e7e0b4" fill-rule="evenodd" stroke="none"/>
    <path d="M328.65 182.25 L335.0 184.65 Q332.75 193.05 327.65 195.25 328.5 189.3 328.65 182.25" fill="#e7e0b4" fill-rule="evenodd" stroke="none"/>
    <path d="M335.0 184.65 L328.65 182.25 Q328.75 175.15 328.1 168.4 337.25 167.95 344.9 172.1 353.4 176.7 353.1 183.95 L352.45 185.0 342.25 204.3 341.75 204.5 326.5 201.6 Q327.25 198.5 327.65 195.25 332.75 193.05 335.0 184.65" fill="#c6c39c" fill-rule="evenodd" stroke="none"/>
    <path d="M325.0 206.15 L325.35 205.6 326.5 201.6 341.75 204.5 Q335.2 207.55 325.0 206.15" fill="#fcf4d4" fill-rule="evenodd" stroke="none"/>
    <path d="M325.0 206.15 Q335.2 207.55 341.75 204.5 L342.3 204.6 343.3 215.0 322.55 209.35 325.0 206.15" fill="#c6c39c" fill-rule="evenodd" stroke="none"/>
    <path d="M214.5 241.9 L219.0 244.65 174.65 250.75 177.55 245.85 214.5 241.9" fill="#deb153" fill-rule="evenodd" stroke="none"/>
    <path d="M0.0 274.7 L0.0 264.95 48.7 259.7 Q52.3 263.6 56.5 266.95 L0.0 274.7" fill="#deb153" fill-rule="evenodd" stroke="none"/>
    <path d="M51.0 139.35 L44.4 139.6 48.7 128.7 Q57.85 131.45 68.2 132.05 L87.95 131.45 Q79.9 133.55 71.8 137.7 L71.0 136.15 54.0 132.15 51.0 139.35" fill="#c5d1d4" fill-rule="evenodd" stroke="none"/>
    <path d="M113.7 127.0 L115.25 127.8 Q116.2 128.3 117.6 129.3 L105.0 128.8 113.7 127.0" fill="#c5d1d4" fill-rule="evenodd" stroke="none"/>
    <path d="M32.4 182.25 L0.0 182.15 0.0 164.2 46.65 157.95 Q37.3 169.05 32.4 182.25" fill="#c5d1d4" fill-rule="evenodd" stroke="none"/>
    <path d="M68.2 132.05 Q57.85 131.45 48.7 128.7 L49.5 126.65 94.5 124.15 102.35 124.95 Q111.4 126.1 113.7 127.0 L105.0 128.8 99.1 129.3 Q93.2 130.0 87.95 131.45 L68.2 132.05" fill="#e9fbff" fill-rule="evenodd" stroke="none"/>
    <path d="M29.55 192.0 L0.0 193.0 0.0 182.15 32.4 182.25 Q30.5 187.55 29.55 192.0" fill="#b7c0c2" fill-rule="evenodd" stroke="none"/>
    <path d="M54.0 132.15 L71.0 136.15 71.8 137.7 Q66.45 140.6 61.85 143.85 57.35 140.05 51.0 139.35 L54.0 132.15" fill="#949ba0" fill-rule="evenodd" stroke="none"/>
    <path d="M43.45 139.7 L44.4 139.6 51.0 139.35 Q57.35 140.05 61.85 143.85 53.5 149.85 46.7 157.85 L41.5 158.55 Q40.65 156.35 39.1 153.7 35.95 148.5 31.85 144.95 36.25 141.0 43.45 139.7" fill="#5d8a00" fill-rule="evenodd" stroke="none"/>
    <path d="M0.0 145.0 Q2.45 142.25 6.0 140.7 8.35 139.7 11.2 139.2 22.9 137.15 31.85 144.95 35.95 148.5 39.1 153.7 40.65 156.35 41.5 158.55 L41.5 158.6 0.0 164.2 0.0 145.0" fill="#1d6db9" fill-rule="evenodd" stroke="none"/>
    <path d="M361.0 26.5 L360.85 0.0 405.8 0.0 404.1 19.7 Q384.5 21.05 361.0 26.5" fill="url(#gradient49)" fill-rule="evenodd" stroke="none"/>
    <path d="M361.0 26.5 L360.85 0.0 405.8 0.0 404.1 19.7 Q384.5 21.05 361.0 26.5" fill="url(#gradient50)" fill-rule="evenodd" stroke="none"/>
    <path d="M339.5 22.2 Q335.1 26.05 328.75 27.8 L328.25 0.0 355.2 0.0 352.65 28.55 345.0 30.65 340.7 29.95 339.5 22.2" fill="url(#gradient51)" fill-rule="evenodd" stroke="none"/>
    <path d="M339.5 22.2 Q335.1 26.05 328.75 27.8 L328.25 0.0 355.2 0.0 352.65 28.55 345.0 30.65 340.7 29.95 339.5 22.2" fill="url(#gradient52)" fill-rule="evenodd" stroke="none"/>
    <path d="M276.4 5.1 L275.6 3.55 Q274.35 1.65 272.05 0.0 L292.4 0.0 Q287.65 2.05 281.55 3.75 L276.4 5.1" fill="url(#gradient53)" fill-rule="evenodd" stroke="none"/>
    <path d="M276.4 5.1 L275.6 3.55 Q274.35 1.65 272.05 0.0 L292.4 0.0 Q287.65 2.05 281.55 3.75 L276.4 5.1" fill="url(#gradient54)" fill-rule="evenodd" stroke="none"/>
    <path d="M242.4 0.0 Q243.85 2.7 241.4 6.65 236.25 2.55 225.25 3.05 215.6 3.5 203.85 7.25 L178.85 3.15 178.9 2.95 163.45 0.05 163.4 0.6 159.8 0.0 242.4 0.0" fill="url(#gradient55)" fill-rule="evenodd" stroke="none"/>
    <path d="M242.4 0.0 Q243.85 2.7 241.4 6.65 236.25 2.55 225.25 3.05 215.6 3.5 203.85 7.25 L178.85 3.15 178.9 2.95 163.45 0.05 163.4 0.6 159.8 0.0 242.4 0.0" fill="url(#gradient56)" fill-rule="evenodd" stroke="none"/>
    <path d="M322.25 0.0 L320.8 25.2 Q317.5 9.3 311.85 0.0 L322.25 0.0" fill="url(#gradient57)" fill-rule="evenodd" stroke="none"/>
    <path d="M322.25 0.0 L320.8 25.2 Q317.5 9.3 311.85 0.0 L322.25 0.0" fill="url(#gradient58)" fill-rule="evenodd" stroke="none"/>
    <path d="M414.5 0.0 L420.0 0.0 420.0 19.3 Q417.2 19.15 413.65 19.25 L414.5 0.0" fill="url(#gradient59)" fill-rule="evenodd" stroke="none"/>
    <path d="M414.5 0.0 L420.0 0.0 420.0 19.3 Q417.2 19.15 413.65 19.25 L414.5 0.0" fill="url(#gradient60)" fill-rule="evenodd" stroke="none"/>
    <path d="M203.85 7.25 L203.45 7.4 178.85 3.35 178.85 3.15 203.85 7.25" fill="url(#gradient61)" fill-rule="evenodd" stroke="none"/>
    <path d="M203.85 7.25 L203.45 7.4 178.85 3.35 178.85 3.15 203.85 7.25" fill="url(#gradient62)" fill-rule="evenodd" stroke="none"/>
    <path d="M203.85 7.25 L203.45 7.4 178.85 3.35 178.85 3.15 203.85 7.25" fill="url(#gradient63)" fill-rule="evenodd" stroke="none"/>
    <path d="M163.4 0.6 L163.35 0.8 158.4 0.0 159.8 0.0 163.4 0.6" fill="url(#gradient64)" fill-rule="evenodd" stroke="none"/>
    <path d="M163.4 0.6 L163.35 0.8 158.4 0.0 159.8 0.0 163.4 0.6" fill="url(#gradient65)" fill-rule="evenodd" stroke="none"/>
    <path d="M163.4 0.6 L163.35 0.8 158.4 0.0 159.8 0.0 163.4 0.6" fill="url(#gradient66)" fill-rule="evenodd" stroke="none"/>
    <path d="M178.85 3.15 L178.85 3.35 163.35 0.8 163.4 0.6 163.45 0.05 178.9 2.95 178.85 3.15" fill="#92e7ff" fill-rule="evenodd" stroke="none"/>
    <path d="M178.85 3.15 L178.85 3.35 163.35 0.8 163.4 0.6 163.45 0.05 178.9 2.95 178.85 3.15" fill="url(#gradient67)" fill-rule="evenodd" stroke="none"/>
    <path d="M341.5 37.2 L351.9 36.9 355.2 0.0 360.85 0.0 361.05 36.65 375.05 36.3 371.3 82.0 365.2 81.55 365.2 76.1 365.05 70.85 365.1 65.85 Q360.4 67.2 351.95 62.85 344.7 59.05 337.95 53.05 342.35 49.85 341.5 37.2" fill="#99aeb1" fill-rule="evenodd" stroke="none"/>
    <path d="M328.25 0.0 L328.75 27.8 323.55 28.65 321.5 28.75 320.8 25.2 322.25 0.0 328.25 0.0" fill="#99aeb1" fill-rule="evenodd" stroke="none"/>
    <path d="M414.5 0.0 L413.0 33.6 420.0 33.55 420.0 86.35 383.5 83.45 386.05 35.7 402.95 33.75 405.8 0.0 414.5 0.0" fill="#889ca0" fill-rule="evenodd" stroke="none"/>
    <path d="M90.2 40.3 Q90.9 28.9 87.0 18.3 83.25 8.05 75.8 0.0 L85.05 0.0 Q91.25 8.4 94.2 18.35 97.3 28.7 96.6 39.55 95.25 60.6 81.15 76.25 67.25 91.6 46.95 95.25 42.7 102.9 36.95 109.75 31.6 116.1 27.9 118.35 25.8 118.05 18.6 115.25 11.05 112.25 6.0 109.7 L2.75 107.8 2.75 106.6 0.0 106.3 0.0 99.55 6.2 100.35 6.2 101.4 Q9.55 103.65 18.25 107.2 26.3 110.45 28.7 110.85 32.0 108.8 36.8 103.15 42.0 97.0 45.75 90.2 63.9 86.95 76.35 73.15 89.0 59.15 90.2 40.3" fill="#92e7ff" fill-rule="evenodd" stroke="none"/>
    <path d="M4.95 0.0 Q2.35 2.2 0.0 4.8 L0.0 0.0 4.95 0.0" fill="#fff7f0" fill-rule="evenodd" stroke="none"/>
    <path d="M87.0 18.3 Q90.9 28.9 90.2 40.3 89.0 59.15 76.35 73.15 63.9 86.95 45.75 90.2 L48.95 83.45 Q63.6 79.4 73.35 67.6 83.3 55.6 84.3 39.95 85.05 28.25 80.4 17.6 75.9 7.25 67.3 0.0 L75.8 0.0 Q83.25 8.05 87.0 18.3" fill="#fff7f0" fill-rule="evenodd" stroke="none"/>
    <path d="M67.3 0.0 Q75.9 7.25 80.4 17.6 85.05 28.25 84.3 39.95 83.3 55.6 73.35 67.6 63.6 79.4 48.95 83.45 50.45 79.65 51.05 76.0 L52.05 61.0 Q52.6 51.55 55.1 46.45 56.2 43.8 59.15 40.05 L64.1 33.65 Q69.75 25.6 67.75 18.0 66.5 13.4 62.3 11.0 58.3 8.7 53.45 9.4 48.35 10.15 44.75 13.9 40.7 18.2 39.85 25.2 39.05 31.35 37.45 35.35 35.6 39.85 31.75 44.25 L25.3 51.25 Q23.4 43.3 24.1 38.5 24.35 35.95 25.8 31.9 L28.3 25.05 Q30.95 16.6 27.15 10.65 24.85 7.05 20.6 6.15 16.55 5.3 12.6 7.2 8.45 9.2 6.35 13.4 4.05 18.15 5.2 24.4 6.25 29.9 5.95 33.8 5.6 38.15 3.5 42.95 L0.0 50.4 0.0 4.8 Q2.35 2.2 4.95 0.0 L67.3 0.0" fill="#ffdc45" fill-rule="evenodd" stroke="none"/>
    <path d="M62.3 11.0 Q66.5 13.4 67.75 18.0 69.75 25.6 64.1 33.65 L59.15 40.05 Q56.2 43.8 55.1 46.45 52.6 51.55 52.05 61.0 L51.05 76.0 Q50.45 79.65 48.95 83.45 L45.75 90.2 Q42.0 97.0 36.8 103.15 32.0 108.8 28.7 110.85 26.3 110.45 18.25 107.2 9.55 103.65 6.2 101.4 L6.2 100.35 0.0 99.55 0.0 95.85 6.35 96.6 Q6.7 91.45 7.35 85.95 8.2 78.0 9.25 74.55 11.35 68.0 16.55 61.15 L20.0 57.0 23.05 53.65 21.65 47.4 21.6 46.9 Q21.0 43.75 21.0 41.3 L21.15 38.2 21.55 35.85 21.55 35.75 Q22.3 32.1 23.8 28.45 L24.95 25.4 25.75 22.45 25.85 22.15 26.1 20.65 Q26.6 16.0 24.15 12.55 L23.0 11.25 23.0 11.3 Q21.15 9.45 18.7 9.15 14.9 8.7 12.25 10.5 8.9 12.85 8.1 18.45 7.7 21.35 7.9 23.45 L8.5 27.1 Q9.55 32.15 8.75 36.65 L8.15 39.75 7.8 40.85 7.7 41.3 5.85 45.75 5.9 45.75 3.35 51.1 0.0 58.1 0.0 50.4 3.5 42.95 Q5.6 38.15 5.95 33.8 6.25 29.9 5.2 24.4 4.05 18.15 6.35 13.4 8.45 9.2 12.6 7.2 16.55 5.3 20.6 6.15 24.85 7.05 27.15 10.65 30.95 16.6 28.3 25.05 L25.8 31.9 Q24.35 35.95 24.1 38.5 23.4 43.3 25.3 51.25 L31.75 44.25 Q35.6 39.85 37.45 35.35 39.05 31.35 39.85 25.2 40.7 18.2 44.75 13.9 48.35 10.15 53.45 9.4 58.3 8.7 62.3 11.0 M63.1 17.25 L63.1 17.3 Q61.8 14.7 59.25 13.55 55.35 11.75 51.95 12.8 47.6 14.2 44.9 19.85 43.5 22.6 43.0 25.05 42.75 25.9 42.4 29.15 41.8 34.75 39.45 39.35 L37.75 42.45 36.75 43.9 33.3 48.05 33.35 48.05 28.85 52.85 22.4 59.75 Q19.05 63.6 16.7 67.45 12.45 74.5 10.4 87.35 9.3 94.25 9.25 98.65 L21.1 104.0 21.05 104.05 27.4 106.85 Q31.1 103.65 34.95 99.0 43.1 89.8 45.9 80.75 L46.3 79.25 Q47.4 75.15 48.05 70.65 L48.95 61.3 Q49.15 58.0 49.5 55.1 L49.6 54.5 Q49.95 51.25 50.9 48.4 51.35 46.7 52.05 45.2 L53.3 42.75 Q55.5 38.85 58.15 35.7 L60.4 32.9 62.25 30.05 63.25 28.2 Q65.4 23.5 63.9 19.0 L63.2 17.5 63.1 17.25" fill="#f6f0dc" fill-rule="evenodd" stroke="none"/>
    <path d="M7.35 85.95 Q6.7 91.45 6.35 96.6 L0.0 95.85 0.0 82.35 Q1.3 85.75 3.3 86.6 5.15 87.4 7.35 85.95" fill="#dbd3b2" fill-rule="evenodd" stroke="none"/>
    <path d="M5.9 45.75 L18.9 47.35 Q19.75 53.25 20.0 57.0 L16.55 61.15 Q16.35 58.15 15.15 53.15 14.05 48.9 10.8 47.8 6.9 46.5 3.25 52.75 1.35 55.95 0.0 60.1 L0.0 58.1 3.35 51.1 5.9 45.75" fill="#dbd3b2" fill-rule="evenodd" stroke="none"/>
    <path d="M8.75 36.65 Q9.3 33.4 8.95 29.9 L9.05 30.55 Q9.25 31.85 9.05 34.25 L17.5 35.25 Q17.2 36.5 17.3 37.45 L17.75 40.9 8.15 39.75 8.75 36.65 M18.35 12.3 Q17.15 10.7 15.25 10.45 13.35 10.25 11.85 11.5 10.3 12.75 10.05 14.8 9.85 16.85 11.0 18.45 12.2 20.05 14.1 20.25 16.0 20.5 17.5 19.2 19.05 17.9 19.25 15.9 19.5 13.9 18.35 12.3 M23.0 11.3 Q23.8 14.25 23.95 16.35 24.2 19.7 23.2 22.1 L21.6 25.6 19.95 29.1 8.65 27.7 8.5 27.1 7.9 23.45 Q7.7 21.35 8.1 18.45 8.9 12.85 12.25 10.5 14.9 8.7 18.7 9.15 21.15 9.45 23.0 11.3" fill="#dbd3b2" fill-rule="evenodd" stroke="none"/>
    <path d="M8.6 27.7 L19.95 29.1 Q17.8 33.6 17.5 35.25 L9.05 34.25 Q9.25 31.85 9.05 30.55 L8.6 27.7" fill="#c92d31" fill-rule="evenodd" stroke="none"/>
    <path d="M17.75 40.9 L18.9 47.35 5.9 45.75 5.85 45.75 7.7 41.3 7.8 40.85 8.15 39.75 17.75 40.9" fill="#c92d31" fill-rule="evenodd" stroke="none"/>
    <path d="M21.15 38.2 L21.0 41.3 17.75 40.9 17.3 37.45 Q17.2 36.5 17.5 35.25 L21.55 35.75 21.55 35.85 21.15 38.2" fill="#bbb397" fill-rule="evenodd" stroke="none"/>
    <path d="M18.9 47.35 L21.7 47.65 23.0 53.7 20.0 57.0 Q19.75 53.25 18.9 47.35" fill="#bbb397" fill-rule="evenodd" stroke="none"/>
    <path d="M23.0 11.25 L23.2 11.45 Q24.8 13.1 25.45 15.2 26.45 17.85 26.1 20.65 L25.85 22.15 25.75 22.45 24.95 25.4 23.35 29.5 19.95 29.1 21.6 25.6 23.2 22.1 Q24.2 19.7 23.95 16.35 23.8 14.25 23.0 11.3 L23.0 11.25" fill="#bbb397" fill-rule="evenodd" stroke="none"/>
    <path d="M17.5 35.25 Q17.8 33.6 19.95 29.1 L23.35 29.5 22.6 31.55 22.6 31.6 21.9 33.85 21.9 33.9 21.55 35.7 21.55 35.75 17.5 35.25" fill="#a01922" fill-rule="evenodd" stroke="none"/>
    <path d="M18.9 47.35 L17.75 40.9 21.0 41.3 Q21.0 43.75 21.6 46.9 L21.65 47.4 21.7 47.65 18.9 47.35" fill="#a01922" fill-rule="evenodd" stroke="none"/>
    <path d="M14.1 20.25 Q12.2 20.05 11.0 18.45 9.85 16.85 10.05 14.8 10.3 12.75 11.85 11.5 13.35 10.25 15.25 10.45 17.15 10.7 18.35 12.3 19.5 13.9 19.25 15.9 19.05 17.9 17.5 19.2 16.0 20.5 14.1 20.25" fill="#f1ecce" fill-rule="evenodd" stroke="none"/>
    <path d="M7.35 85.95 Q5.15 87.4 3.3 86.6 1.3 85.75 0.0 82.35 L0.0 60.1 Q1.35 55.95 3.25 52.75 6.9 46.5 10.8 47.8 14.05 48.9 15.15 53.15 16.35 58.15 16.55 61.15 11.35 68.0 9.25 74.55 8.2 78.0 7.35 85.95" fill="#f1ecce" fill-rule="evenodd" stroke="none"/>
    <path d="M42.05 31.6 L41.85 33.0 40.6 36.9 49.15 40.8 Q48.35 42.4 48.25 43.05 L47.55 46.9 37.75 42.45 39.45 39.35 Q41.3 35.75 42.05 31.6 M48.2 16.65 Q47.25 18.7 48.0 20.8 48.7 22.9 50.6 23.8 52.55 24.65 54.6 23.85 56.65 23.0 57.6 20.9 58.55 18.85 57.85 16.75 57.1 14.65 55.2 13.8 53.25 12.9 51.2 13.75 49.15 14.6 48.2 16.65 M63.1 17.3 Q63.05 20.15 62.4 23.0 61.5 26.6 59.65 28.8 L56.8 31.95 53.9 35.1 42.35 29.85 42.4 29.15 Q42.75 25.9 43.0 25.05 43.5 22.6 44.9 19.85 47.6 14.2 51.95 12.8 55.35 11.75 59.25 13.55 61.8 14.7 63.1 17.3" fill="#dbd3b2" fill-rule="evenodd" stroke="none"/>
    <path d="M28.2 54.55 Q23.6 58.7 20.35 64.25 16.15 71.45 15.05 79.9 13.55 91.35 19.45 91.4 24.9 91.5 31.7 83.05 37.1 76.35 39.2 69.1 40.3 65.15 40.65 59.0 40.95 54.1 37.9 51.85 34.15 49.2 28.2 54.55 M22.4 59.75 L28.85 52.85 33.35 48.05 46.6 54.05 Q43.75 72.05 38.9 79.55 L29.8 92.65 21.1 104.0 9.25 98.65 Q9.3 94.25 10.4 87.35 12.45 74.5 16.7 67.45 19.05 63.6 22.4 59.75" fill="#dbd3b2" fill-rule="evenodd" stroke="none"/>
    <path d="M42.3 29.85 L53.9 35.1 Q50.0 39.35 49.15 40.8 L40.6 36.9 41.85 33.0 42.3 29.85" fill="#c92d31" fill-rule="evenodd" stroke="none"/>
    <path d="M36.75 43.9 L37.75 42.45 47.55 46.9 46.6 54.05 33.35 48.05 33.3 48.05 36.75 43.9" fill="#c92d31" fill-rule="evenodd" stroke="none"/>
    <path d="M49.15 40.8 L53.35 42.7 53.3 42.75 52.05 45.2 Q51.35 46.7 50.9 48.4 L47.55 46.9 48.25 43.05 Q48.35 42.4 49.15 40.8" fill="#bbb397" fill-rule="evenodd" stroke="none"/>
    <path d="M29.8 92.65 L38.9 79.55 Q43.75 72.05 46.6 54.05 L49.45 55.4 48.4 67.3 Q47.6 74.45 46.3 79.25 L45.9 80.75 Q43.1 89.8 34.95 99.0 31.1 103.65 27.4 106.85 L21.05 104.05 21.1 104.0 29.8 92.65" fill="#bbb397" fill-rule="evenodd" stroke="none"/>
    <path d="M62.4 23.0 Q63.05 20.15 63.1 17.3 L63.1 17.25 63.2 17.5 Q64.4 19.8 64.4 22.25 64.55 25.3 63.25 28.2 L62.25 30.05 60.4 32.9 57.35 36.7 53.9 35.1 56.8 31.95 59.65 28.8 Q61.5 26.6 62.4 23.0" fill="#bbb397" fill-rule="evenodd" stroke="none"/>
    <path d="M53.9 35.1 L57.35 36.7 55.85 38.6 55.8 38.65 53.35 42.65 53.35 42.7 49.15 40.8 Q50.0 39.35 53.9 35.1" fill="#a01922" fill-rule="evenodd" stroke="none"/>
    <path d="M47.55 46.9 L50.9 48.4 Q49.95 51.25 49.6 54.5 L49.45 55.4 46.6 54.05 47.55 46.9" fill="#a01922" fill-rule="evenodd" stroke="none"/>
    <path d="M50.6 23.8 Q48.7 22.9 48.0 20.8 47.25 18.7 48.2 16.65 49.15 14.6 51.2 13.75 53.25 12.9 55.2 13.8 57.1 14.65 57.85 16.75 58.55 18.85 57.6 20.9 56.65 23.0 54.6 23.85 52.55 24.65 50.6 23.8" fill="#f1ecce" fill-rule="evenodd" stroke="none"/>
    <path d="M31.7 83.05 Q24.9 91.5 19.45 91.4 13.55 91.35 15.05 79.9 16.15 71.45 20.35 64.25 23.6 58.7 28.2 54.55 34.15 49.2 37.9 51.85 40.95 54.1 40.65 59.0 40.3 65.15 39.2 69.1 37.1 76.35 31.7 83.05" fill="#f1ecce" fill-rule="evenodd" stroke="none"/>
    <path d="M399.05 216.1 L386.35 238.0 Q374.75 239.3 364.95 245.65 355.35 251.8 349.4 261.5 319.1 267.55 277.1 271.25 282.45 269.95 285.7 265.55 289.35 262.75 294.05 257.75 298.85 252.65 303.55 246.55 L308.1 245.2 Q308.45 246.3 308.2 249.5 308.05 251.45 309.55 251.35 311.75 251.25 313.8 247.2 316.0 243.0 314.6 240.1 313.9 238.6 309.45 238.25 L309.9 237.55 Q333.9 227.8 354.1 222.2 382.25 214.45 399.05 216.1" fill="#b99961" fill-rule="evenodd" stroke="none"/>
    <path d="M277.4 263.45 Q272.85 264.95 271.0 267.3 269.0 269.95 272.35 271.65 266.9 271.6 273.35 263.2 277.5 257.7 285.75 249.75 L287.9 249.55 Q283.45 258.55 277.4 263.45" fill="#b99961" fill-rule="evenodd" stroke="none"/>
    <path d="M224.0 288.0 L231.0 278.0 244.0 285.0 224.0 288.0" fill="#e47b77" fill-rule="evenodd" stroke="none"/>
    <path d="M406.25 203.75 L406.3 203.65 420.0 191.5 420.0 207.95 406.25 203.75" fill="#fffdf3" fill-rule="evenodd" stroke="none"/>
    <path d="M342.65 279.65 Q342.0 283.9 342.0 287.65 342.0 293.9 343.55 300.0 L318.85 300.0 342.65 279.65" fill="#fffdf3" fill-rule="evenodd" stroke="none"/>
    <path d="M406.25 203.75 L420.0 207.95 420.0 221.9 410.0 218.65 400.7 238.4 392.0 237.65 386.35 238.0 406.25 203.75" fill="#f5edcc" fill-rule="evenodd" stroke="none"/>
    <path d="M410.0 218.65 L420.0 221.9 420.0 246.2 Q411.2 240.25 400.7 238.4 L410.0 218.65" fill="#5f5b3e" fill-rule="evenodd" stroke="none"/>
    <path d="M380.5 283.65 Q388.6 283.65 394.3 277.95 400.0 272.2 400.0 264.15 400.0 256.1 394.3 250.35 388.6 244.65 380.5 244.65 372.45 244.65 366.7 250.35 361.0 256.1 361.0 264.15 361.0 272.2 366.7 277.95 372.45 283.65 380.5 283.65 M392.0 237.65 L400.7 238.4 Q411.2 240.25 420.0 246.2 L420.0 300.0 343.55 300.0 Q342.0 293.9 342.0 287.65 342.0 283.9 342.65 279.65 344.2 269.95 349.4 261.5 355.35 251.8 364.95 245.65 374.75 239.3 386.35 238.0 L392.0 237.65" fill="#006836" fill-rule="evenodd" stroke="none"/>
    <path d="M375.7 260.0 Q377.1 261.35 379.0 261.35 380.95 261.35 382.35 260.0 383.7 258.6 383.7 256.65 383.7 254.7 382.35 253.35 380.95 251.95 379.0 251.95 377.1 251.95 375.7 253.35 374.35 254.7 374.35 256.65 374.35 258.6 375.7 260.0 M394.3 250.35 Q400.0 256.1 400.0 264.15 400.0 272.2 394.3 277.95 388.6 283.65 380.5 283.65 372.45 283.65 366.7 277.95 361.0 272.2 361.0 264.15 361.0 256.1 366.7 250.35 372.45 244.65 380.5 244.65 388.6 244.65 394.3 250.35" fill="#009738" fill-rule="evenodd" stroke="none"/>
    <path d="M379.0 251.95 Q380.95 251.95 382.35 253.35 383.7 254.7 383.7 256.65 383.7 258.6 382.35 260.0 380.95 261.35 379.0 261.35 377.1 261.35 375.7 260.0 374.35 258.6 374.35 256.65 374.35 254.7 375.7 253.35 377.1 251.95 379.0 251.95" fill="#00c557" fill-rule="evenodd" stroke="none"/>
    <path d="M328.75 27.8 Q335.1 26.05 339.5 22.2 L340.7 29.95 Q341.3 33.85 341.5 37.2 342.35 49.85 337.95 53.05 344.7 59.05 351.95 62.85 360.4 67.2 365.1 65.85 L365.05 70.85 Q363.35 79.2 358.0 84.55 349.4 91.7 339.15 93.85 337.45 85.45 329.3 82.25 325.7 80.85 322.6 81.7 319.2 82.7 317.45 86.2 305.45 72.85 297.25 64.45 296.7 59.2 293.2 50.8 290.95 52.4 285.05 52.85 279.25 53.35 277.85 52.2 L277.7 51.6 Q276.7 47.9 276.15 46.75 274.9 44.15 272.0 41.55 271.35 44.5 266.3 46.65 L261.4 48.2 Q260.9 46.9 259.65 45.1 257.25 41.45 253.7 38.75 251.6 45.4 244.75 53.25 236.5 62.0 232.7 66.9 L217.65 68.05 204.5 67.25 Q204.55 70.7 204.75 72.2 205.2 75.25 206.5 77.2 L205.45 78.45 Q204.35 79.0 201.35 79.35 198.15 79.75 197.25 80.1 L200.3 84.2 202.3 86.25 Q201.6 86.95 198.45 91.55 195.5 95.9 193.8 97.4 L198.05 102.85 201.85 107.55 202.25 110.7 Q203.95 122.8 208.5 139.0 202.25 142.8 204.85 152.05 207.35 161.25 215.15 164.2 211.3 165.65 206.8 166.6 204.5 165.0 202.6 164.1 197.9 161.9 192.15 164.95 L191.7 164.3 Q200.15 155.45 198.25 144.9 L191.3 144.3 Q183.4 142.6 178.45 137.4 182.25 136.25 185.65 133.3 188.4 130.9 191.2 126.95 181.8 126.9 173.75 123.2 164.6 119.0 160.75 111.35 170.85 110.3 175.5 97.35 L178.85 86.55 Q180.9 80.35 183.25 77.4 178.4 76.65 176.8 71.8 175.65 68.3 176.0 61.1 L176.5 49.8 Q176.35 44.05 173.9 42.25 L191.6 42.85 Q203.15 42.85 208.5 44.0 205.9 40.7 204.65 30.7 203.1 18.8 202.3 16.6 208.15 17.35 215.1 15.95 L226.0 13.55 Q231.95 12.6 236.6 14.2 242.4 16.25 248.45 22.75 251.85 17.7 253.7 12.35 256.05 5.35 254.3 1.2 262.1 0.45 268.95 5.55 276.15 10.9 276.8 18.9 L290.05 13.6 Q297.0 10.2 300.55 4.25 L302.65 0.0 311.85 0.0 Q317.5 9.3 320.8 25.2 L321.5 28.75 323.55 28.65 328.75 27.8" fill="#324064" fill-rule="evenodd" stroke="none"/>
    <path d="M362.6 95.2 Q360.65 93.45 359.15 93.4 357.55 93.4 357.8 95.35 358.05 97.3 357.5 102.35 355.3 104.3 352.65 105.75 354.65 108.05 355.3 115.0 350.55 120.8 343.55 126.1 338.5 130.0 331.45 134.2 L326.75 137.0 Q330.35 124.1 330.9 111.1 332.5 110.15 334.5 108.0 340.7 101.25 339.15 93.85 349.4 91.7 358.0 84.55 363.35 79.2 365.05 70.85 L365.2 76.1 365.2 81.55 Q365.05 89.8 362.6 95.2" fill="#1a243e" fill-rule="evenodd" stroke="none"/>
    <path d="M356.05 132.5 Q356.4 139.9 357.25 144.25 358.4 150.1 360.7 153.05 L359.3 153.9 Q355.5 156.05 351.1 157.65 340.95 161.35 327.4 162.75 L327.0 160.2 328.55 159.55 Q332.5 157.55 338.25 152.4 348.5 143.35 356.05 132.5" fill="#1a243e" fill-rule="evenodd" stroke="none"/>
    <path d="M218.5 165.0 Q220.95 165.2 222.4 164.0 228.05 168.15 234.55 171.55 240.7 174.8 245.0 176.0 L251.65 177.2 Q250.05 178.2 249.2 178.85 248.05 179.75 246.55 180.65 238.75 185.65 229.35 186.95 L225.7 187.3 Q224.25 185.35 223.6 183.75 221.55 178.85 221.25 168.95 L213.15 172.7 213.1 172.7 Q210.3 169.1 206.8 166.6 211.3 165.65 215.15 164.2 L218.5 165.0" fill="#1a243e" fill-rule="evenodd" stroke="none"/>
    <path d="M213.1 172.7 L213.15 172.7 217.8 170.8 Q219.55 169.9 221.25 168.95 221.55 178.85 223.6 183.75 224.25 185.35 225.7 187.3 L220.8 187.4 Q219.75 184.2 218.3 181.1 215.95 176.25 213.1 172.7" fill="#547dd0" fill-rule="evenodd" stroke="none"/>
    <path d="M292.4 0.0 L302.65 0.0 300.55 4.25 Q297.0 10.2 290.05 13.6 L276.8 18.9 Q276.15 10.9 268.95 5.55 262.1 0.45 254.3 1.2 256.05 5.35 253.7 12.35 251.85 17.7 248.45 22.75 242.4 16.25 236.6 14.2 231.95 12.6 226.0 13.55 L215.1 15.95 Q208.15 17.35 202.3 16.6 203.1 18.8 204.65 30.7 205.9 40.7 208.5 44.0 203.15 42.85 191.6 42.85 L173.9 42.25 Q176.35 44.05 176.5 49.8 L176.0 61.1 Q175.65 68.3 176.8 71.8 178.4 76.65 183.25 77.4 180.9 80.35 178.85 86.55 L175.5 97.35 Q170.85 110.3 160.75 111.35 164.6 119.0 173.75 123.2 181.8 126.9 191.2 126.95 188.4 130.9 185.65 133.3 182.25 136.25 178.45 137.4 183.4 142.6 191.3 144.3 L198.25 144.9 Q200.15 155.45 191.7 164.3 189.8 161.8 187.55 159.85 189.1 155.9 189.9 150.05 L190.1 148.55 186.3 147.4 Q181.4 145.55 176.15 142.35 170.8 139.05 165.5 134.55 172.85 134.35 173.2 131.6 173.3 130.75 172.7 129.8 L172.05 128.95 Q167.3 126.65 163.75 124.2 L160.1 121.2 157.5 118.55 Q155.6 116.3 153.7 113.1 L149.7 106.25 Q147.25 102.4 144.05 99.75 L143.8 99.5 144.1 99.6 Q150.55 101.5 154.85 99.4 157.45 98.2 159.5 95.45 161.0 93.45 162.55 90.15 L164.85 85.05 Q166.45 81.75 168.2 81.15 166.75 79.15 165.8 77.0 162.75 69.8 165.8 56.6 167.15 50.65 167.2 48.6 167.3 45.0 164.95 43.65 L164.1 43.25 Q164.6 43.05 165.05 42.8 L169.75 40.9 174.35 39.3 Q182.7 36.65 190.05 35.4 189.6 31.85 188.3 27.9 185.7 19.95 181.65 17.95 185.3 15.15 191.05 12.35 196.85 9.55 203.45 7.4 L203.85 7.25 Q215.6 3.5 225.25 3.05 236.25 2.55 241.4 6.65 243.85 2.7 242.4 0.0 L272.05 0.0 Q274.35 1.65 275.6 3.55 L276.4 5.1 281.55 3.75 Q287.65 2.05 292.4 0.0" fill="#547dd0" fill-rule="evenodd" stroke="none"/>
    <path d="M308.1 245.2 L303.55 246.55 309.45 238.25 Q313.9 238.6 314.6 240.1 316.0 243.0 313.8 247.2 311.75 251.25 309.55 251.35 308.05 251.45 308.2 249.5 308.45 246.3 308.1 245.2" fill="#2e2132" fill-rule="evenodd" stroke="none"/>
    <path d="M284.65 240.35 Q285.6 238.0 288.25 234.15 290.95 230.2 291.8 228.25 L292.3 228.2 289.0 239.6 291.9 239.2 Q290.45 244.6 287.9 249.55 L285.75 249.75 280.45 249.45 Q277.8 248.95 276.1 245.9 278.55 245.95 281.05 244.3 283.45 242.7 284.65 240.35" fill="#2e2132" fill-rule="evenodd" stroke="none"/>
    <path d="M312.5 216.55 Q318.15 213.6 321.75 210.1 320.45 221.35 309.9 237.55 L309.45 238.25 303.55 246.55 Q298.85 252.65 294.05 257.75 289.35 262.75 285.7 265.55 282.45 269.95 277.1 271.25 L273.7 271.7 272.35 271.65 Q269.0 269.95 271.0 267.3 272.85 264.95 277.4 263.45 283.45 258.55 287.9 249.55 290.45 244.6 291.9 239.2 293.65 232.1 292.3 228.2 L291.8 228.25 Q290.95 230.2 288.25 234.15 285.6 238.0 284.65 240.35 283.45 242.7 281.05 244.3 278.55 245.95 276.1 245.9 273.55 241.4 273.85 233.8 274.15 226.3 276.85 222.25 L276.6 220.2 Q281.7 224.1 292.65 222.75 L292.95 223.0 Q296.05 222.8 301.0 221.05 307.15 219.3 312.5 216.55" fill="#604c5e" fill-rule="evenodd" stroke="none"/>
    <path d="M324.15 144.7 L326.75 137.0 331.45 134.2 Q333.75 134.8 334.9 136.7 339.75 143.65 338.25 152.4 332.5 157.55 328.55 159.55 L327.0 160.2 328.1 168.4 Q328.75 175.15 328.65 182.25 328.5 189.3 327.65 195.25 327.25 198.5 326.5 201.6 L325.35 205.6 325.0 206.15 322.55 209.35 321.75 210.1 Q318.15 213.6 312.5 216.55 307.15 219.3 301.0 221.05 L305.2 219.45 305.3 219.1 307.55 218.2 Q316.95 213.15 319.1 201.25 321.4 188.3 313.35 174.2 L309.95 178.05 Q306.85 180.7 301.8 182.15 298.75 180.9 296.5 180.3 295.85 178.95 295.95 178.85 294.1 177.55 288.15 175.05 L288.25 175.0 Q291.95 173.65 300.95 166.45 308.9 160.05 316.4 152.9 L305.7 165.95 Q298.05 174.85 294.9 176.9 296.85 177.55 298.4 178.75 L300.95 180.85 Q306.6 177.6 312.3 165.6 315.45 158.85 317.75 151.6 322.45 147.05 324.15 144.7" fill="#00688f" fill-rule="evenodd" stroke="none"/>
    <path d="M292.4 222.5 L292.65 222.75 Q281.7 224.1 276.6 220.2 L276.05 219.75 275.9 217.9 Q277.0 220.95 281.45 222.2 L292.4 222.5" fill="#00688f" fill-rule="evenodd" stroke="none"/>
    <path d="M302.9 195.3 Q300.95 189.8 296.9 181.2 L296.5 180.3 Q298.75 180.9 301.8 182.15 306.85 180.7 309.95 178.05 L313.35 174.2 Q321.4 188.3 319.1 201.25 316.95 213.15 307.55 218.2 L305.3 219.1 Q306.35 216.75 306.5 213.4 306.8 206.25 302.9 195.3" fill="#009bc7" fill-rule="evenodd" stroke="none"/>
    <path d="M267.5 195.55 Q264.3 189.8 260.55 184.85 L260.7 184.2 Q269.45 190.45 277.35 190.45 278.75 187.6 281.35 184.95 L281.35 185.15 Q282.0 192.15 284.05 201.2 286.55 212.35 289.6 218.3 291.1 221.2 292.4 222.5 L281.45 222.2 Q277.0 220.95 275.9 217.9 L275.7 217.15 274.5 212.65 Q273.45 209.75 271.55 207.05 L271.6 206.6 Q271.6 203.0 267.5 195.55" fill="#009bc7" fill-rule="evenodd" stroke="none"/>
    <path d="M357.8 95.35 Q357.55 93.4 359.15 93.4 360.65 93.45 362.6 95.2 364.8 97.15 366.0 100.05 367.45 103.5 366.95 107.2 368.85 106.8 370.5 105.7 371.55 104.95 372.8 105.35 374.55 105.85 371.65 110.45 368.5 115.3 362.8 120.1 360.8 125.65 356.05 132.5 348.5 143.35 338.25 152.4 339.75 143.65 334.9 136.7 333.75 134.8 331.45 134.2 338.5 130.0 343.55 126.1 350.55 120.8 355.3 115.0 L355.5 114.8 Q356.9 107.4 357.5 102.35 358.05 97.3 357.8 95.35" fill="#dea28d" fill-rule="evenodd" stroke="none"/>
    <path d="M229.35 186.95 L232.2 188.05 233.95 189.0 234.95 189.65 235.9 190.4 237.15 191.65 237.7 192.4 Q231.5 198.0 223.45 201.15 223.15 194.55 220.8 187.4 L225.7 187.3 229.35 186.95" fill="#ffd2a2" fill-rule="evenodd" stroke="none"/>
    <path d="M232.2 188.05 L229.35 186.95 Q238.75 185.65 246.55 180.65 246.95 184.35 244.45 187.0 L237.35 191.9 237.15 191.65 235.9 190.4 234.95 189.65 232.2 188.05" fill="#009bc7" fill-rule="evenodd" stroke="none"/>
    <path d="M280.2 180.9 Q274.6 181.85 265.5 180.05 L257.55 178.05 264.3 183.2 Q271.75 188.6 275.35 189.95 275.85 187.1 276.75 185.35 277.8 183.2 280.2 180.9 M237.7 192.4 L237.35 191.9 244.45 187.0 Q246.95 184.35 246.55 180.65 248.05 179.75 249.2 178.85 250.05 178.2 251.65 177.2 L268.7 177.85 Q277.25 177.5 283.55 176.25 L281.2 182.5 281.35 184.95 Q278.75 187.6 277.35 190.45 269.45 190.45 260.7 184.2 L260.55 184.85 Q264.3 189.8 267.5 195.55 271.6 203.0 271.6 206.6 267.15 199.7 257.9 191.5 256.25 194.95 254.2 197.75 250.55 202.85 245.7 208.1 239.45 214.8 232.85 219.8 241.3 210.15 240.1 198.75 L239.75 196.85 239.3 195.35 239.25 195.15 237.85 192.55 237.8 192.45 237.7 192.4" fill="#00688f" fill-rule="evenodd" stroke="none"/>
    <path d="M220.85 222.05 Q218.95 224.8 215.6 226.55 L214.7 227.0 Q199.65 234.2 185.4 223.35 186.05 219.65 186.35 215.2 192.55 221.0 199.75 223.8 210.9 227.7 220.85 222.05" fill="#ffac8b" fill-rule="evenodd" stroke="none"/>
    <path d="M174.2 167.65 Q178.85 168.2 184.5 171.75 179.5 178.75 182.55 183.1 186.2 188.25 200.1 185.2 209.05 207.6 215.85 212.6 221.6 216.85 223.15 207.9 224.55 216.65 220.85 222.05 210.9 227.7 199.75 223.8 192.55 221.0 186.35 215.2 186.75 207.75 185.8 200.65 183.4 183.15 174.2 167.65" fill="#9c5b4b" fill-rule="evenodd" stroke="none"/>
    <path d="M184.85 171.25 Q187.35 167.9 190.85 165.7 179.95 157.5 165.55 155.65 L162.3 152.1 Q163.15 151.65 164.25 151.5 169.2 151.05 175.35 153.05 182.35 155.35 187.55 159.85 189.8 161.8 191.7 164.3 L192.15 164.95 Q197.9 161.9 202.6 164.1 204.5 165.0 206.8 166.6 210.3 169.1 213.1 172.7 215.95 176.25 218.3 181.1 212.7 173.9 206.6 172.3 199.2 170.3 190.25 176.25 188.45 177.45 186.8 175.8 185.25 174.2 184.85 171.25" fill="#ffd2a2" fill-rule="evenodd" stroke="none"/>
    <path d="M200.1 185.2 Q186.2 188.25 182.55 183.1 179.5 178.75 184.5 171.75 178.85 168.2 174.2 167.65 170.45 161.35 165.55 155.65 179.95 157.5 190.85 165.7 187.35 167.9 184.85 171.25 185.25 174.2 186.8 175.8 188.45 177.45 190.25 176.25 199.2 170.3 206.6 172.3 212.7 173.9 218.3 181.1 219.75 184.2 220.8 187.4 223.15 194.55 223.45 201.15 231.5 198.0 237.7 192.4 L237.8 192.45 237.85 192.6 238.65 193.85 239.25 195.15 239.3 195.35 239.75 196.85 240.1 198.75 Q241.3 210.15 232.85 219.8 224.55 226.25 214.7 227.0 L215.6 226.55 Q218.95 224.8 220.85 222.05 224.55 216.65 223.15 207.9 221.6 216.85 215.85 212.6 209.05 207.6 200.1 185.2" fill="#e8876e" fill-rule="evenodd" stroke="none"/>
    <path d="M329.3 82.25 Q337.45 85.45 339.15 93.85 340.7 101.25 334.5 108.0 332.5 110.15 330.9 111.1 330.35 124.1 326.75 137.0 L324.15 144.7 Q322.45 147.05 317.75 151.6 L317.9 151.1 316.4 152.9 Q308.9 160.05 300.95 166.45 291.95 173.65 288.25 175.0 L288.15 175.05 286.6 174.4 283.65 176.0 283.55 176.25 Q277.25 177.5 268.7 177.85 L251.65 177.2 245.0 176.0 Q240.7 174.8 234.55 171.55 228.05 168.15 222.4 164.0 220.95 165.2 218.5 165.0 L215.15 164.2 Q207.35 161.25 204.85 152.05 202.25 142.8 208.5 139.0 205.15 127.15 203.45 117.5 205.6 127.55 209.65 137.0 215.25 149.95 222.15 156.1 233.5 165.9 249.5 167.65 264.45 169.3 279.75 163.7 294.9 158.15 305.55 147.3 316.85 135.8 319.75 121.55 321.75 111.0 312.55 92.5 304.1 75.55 293.15 64.4 L292.75 59.4 Q292.6 58.1 291.8 56.3 289.3 56.95 284.1 55.15 279.65 53.6 277.9 52.25 279.35 53.35 285.05 52.85 290.95 52.4 293.2 50.8 296.7 59.2 297.25 64.45 305.45 72.85 317.45 86.2 319.2 82.7 322.6 81.7 325.7 80.85 329.3 82.25" fill="#e8a38e" fill-rule="evenodd" stroke="none"/>
    <path d="M206.5 68.6 L206.4 73.0 206.5 77.2 Q205.2 75.25 204.75 72.2 204.55 70.7 204.5 67.25 L217.65 68.05 232.7 66.9 219.45 69.1 206.5 68.6" fill="#e8a38e" fill-rule="evenodd" stroke="none"/>
    <path d="M201.0 81.5 Q201.6 82.55 201.6 84.3 201.6 85.7 202.3 86.25 L200.3 84.2 197.25 80.1 Q198.15 79.75 201.35 79.35 204.35 79.0 205.45 78.45 203.65 80.45 201.0 81.5" fill="#e8a38e" fill-rule="evenodd" stroke="none"/>
    <path d="M202.3 86.25 Q201.45 89.25 199.5 92.4 197.5 95.65 195.25 97.65 196.5 99.1 198.8 103.0 200.8 106.4 201.75 107.45 L198.05 102.85 193.8 97.4 Q195.5 95.9 198.45 91.55 201.6 86.95 202.3 86.25" fill="#e8a38e" fill-rule="evenodd" stroke="none"/>
    <path d="M253.7 38.75 Q257.25 41.45 259.65 45.1 260.9 46.9 261.4 48.2 259.9 47.2 256.8 42.5 254.65 49.15 246.95 55.55 237.4 62.55 232.7 66.9 236.5 62.0 244.75 53.25 251.6 45.4 253.7 38.75" fill="#e8a38e" fill-rule="evenodd" stroke="none"/>
    <path d="M205.7 78.95 L206.15 77.9 206.5 77.2 Q206.35 78.2 205.7 78.95" fill="#e8a38e" fill-rule="evenodd" stroke="none"/>
    <path d="M274.15 46.15 Q271.6 47.95 266.25 48.25 L261.4 48.2 266.3 46.65 Q271.35 44.5 272.0 41.55 274.9 44.15 276.15 46.75 276.7 47.9 277.7 51.6 L276.2 49.25 274.15 46.15" fill="#e8a38e" fill-rule="evenodd" stroke="none"/>
    <path d="M270.1 151.05 Q270.9 153.5 275.15 152.3 279.35 151.1 278.1 148.5 276.8 145.85 273.0 147.05 269.2 148.25 270.1 151.05 M261.0 126.5 Q255.75 128.5 256.6 132.5 257.6 137.25 261.5 142.05 266.15 147.8 270.2 145.75 274.7 143.45 274.45 137.2 274.25 131.0 269.55 127.2 266.2 124.55 261.0 126.5 M250.55 120.55 Q251.3 122.3 253.25 123.1 L257.85 123.45 Q261.75 122.55 263.15 120.25 264.35 118.25 263.35 116.0 262.35 113.85 260.0 112.95 257.45 111.95 254.75 113.3 248.65 116.4 250.55 120.55 M213.25 142.2 Q213.75 146.55 220.55 143.4 224.05 141.8 225.5 139.5 226.8 137.5 226.05 135.85 225.3 134.15 223.0 133.95 220.45 133.7 217.15 135.5 215.25 136.5 214.1 138.55 213.0 140.5 213.25 142.2 M222.65 119.5 Q220.8 119.6 219.55 121.0 218.3 122.4 218.4 124.25 218.5 126.05 219.9 127.3 221.3 128.55 223.15 128.45 224.95 128.35 226.2 126.95 227.45 125.55 227.35 123.75 227.25 121.9 225.85 120.65 224.5 119.4 222.65 119.5 M210.3 99.8 Q207.05 100.95 205.65 105.4 209.65 103.55 211.7 102.95 L217.0 101.85 Q213.65 98.65 210.3 99.8 M314.5 97.5 Q314.1 95.55 311.9 94.65 L305.9 94.5 Q303.7 95.05 301.9 96.85 300.15 98.65 299.9 100.5 299.15 105.2 307.5 103.75 311.3 103.1 313.2 101.2 314.9 99.45 314.5 97.5 M294.25 87.85 Q292.4 87.95 291.15 89.3 289.9 90.7 290.0 92.55 290.1 94.35 291.45 95.6 292.85 96.85 294.7 96.75 296.5 96.65 297.75 95.3 299.0 93.9 298.9 92.05 298.8 90.2 297.45 89.0 296.05 87.75 294.25 87.85 M282.45 67.3 Q279.55 69.25 280.0 73.85 L284.1 70.3 289.7 67.0 Q285.3 65.4 282.45 67.3 M256.8 42.5 Q259.9 47.2 261.4 48.2 L266.25 48.25 Q271.6 47.95 274.15 46.15 L276.2 49.25 277.7 51.6 277.85 52.2 Q279.6 53.6 284.1 55.15 289.3 56.95 291.8 56.3 292.6 58.1 292.75 59.4 L293.15 64.4 Q304.1 75.55 312.55 92.5 321.75 111.0 319.75 121.55 316.85 135.8 305.55 147.3 294.9 158.15 279.75 163.7 264.45 169.3 249.5 167.65 233.5 165.9 222.15 156.1 215.25 149.95 209.65 137.0 204.25 124.4 202.25 110.7 L201.85 107.55 Q200.95 106.65 198.8 103.0 196.5 99.1 195.25 97.65 197.5 95.65 199.5 92.4 201.45 89.25 202.3 86.25 L205.7 78.95 Q206.35 78.2 206.5 77.2 L206.4 73.0 206.5 68.6 219.45 69.1 232.7 66.9 Q237.4 62.55 246.95 55.55 254.65 49.15 256.8 42.5" fill="#ffcba6" fill-rule="evenodd" stroke="none"/>
    <path d="M202.3 86.25 Q201.6 85.7 201.6 84.3 201.6 82.55 201.0 81.5 203.65 80.45 205.45 78.45 L206.5 77.2 202.3 86.25" fill="#ffd2a2" fill-rule="evenodd" stroke="none"/>
    <path d="M205.65 105.4 Q207.05 100.95 210.3 99.8 213.65 98.65 217.0 101.85 L211.7 102.95 Q209.65 103.55 205.65 105.4" fill="#312c2b" fill-rule="evenodd" stroke="none"/>
    <path d="M280.0 73.85 Q279.55 69.25 282.45 67.3 285.3 65.4 289.7 67.0 L284.1 70.3 280.0 73.85" fill="#312c2b" fill-rule="evenodd" stroke="none"/>
    <path d="M263.15 120.25 Q261.75 122.55 257.85 123.45 L253.25 123.1 Q251.3 122.3 250.55 120.55 248.65 116.4 254.75 113.3 257.45 111.95 260.0 112.95 262.35 113.85 263.35 116.0 264.35 118.25 263.15 120.25 M254.9 114.95 Q252.95 115.95 253.15 117.4 253.3 118.85 255.55 118.2 257.95 117.55 257.75 115.55 257.6 113.55 254.9 114.95" fill="#f1b78c" fill-rule="evenodd" stroke="none"/>
    <path d="M255.55 118.2 Q253.3 118.85 253.15 117.4 252.95 115.95 254.9 114.95 257.6 113.55 257.75 115.55 257.95 117.55 255.55 118.2" fill="#ffe3c2" fill-rule="evenodd" stroke="none"/>
    <path d="M219.55 121.0 Q220.8 119.6 222.65 119.5 224.5 119.4 225.85 120.65 227.25 121.9 227.35 123.75 227.45 125.55 226.2 126.95 224.95 128.35 223.15 128.45 221.3 128.55 219.9 127.3 218.5 126.05 218.4 124.25 218.3 122.4 219.55 121.0 M221.8 123.0 Q221.3 122.6 220.75 122.55 220.2 122.5 219.9 122.85 219.55 123.2 219.65 123.8 219.75 124.35 220.2 124.75 220.65 125.15 221.2 125.2 221.75 125.25 222.1 124.85 222.45 124.5 222.35 123.95 222.25 123.4 221.8 123.0" fill="#312c2b" fill-rule="evenodd" stroke="none"/>
    <path d="M222.1 124.85 Q221.75 125.25 221.2 125.2 220.65 125.15 220.2 124.75 219.75 124.35 219.65 123.8 219.55 123.2 219.9 122.85 220.2 122.5 220.75 122.55 221.3 122.6 221.8 123.0 222.25 123.4 222.35 123.95 222.45 124.5 222.1 124.85" fill="#ffffff" fill-rule="evenodd" stroke="none"/>
    <path d="M291.45 95.6 Q290.1 94.35 290.0 92.55 289.9 90.7 291.15 89.3 292.4 87.95 294.25 87.85 296.05 87.75 297.45 89.0 298.8 90.2 298.9 92.05 299.0 93.9 297.75 95.3 296.5 96.65 294.7 96.75 292.85 96.85 291.45 95.6 M291.6 91.2 Q291.25 91.55 291.35 92.1 291.45 92.65 291.9 93.05 292.35 93.45 292.9 93.5 293.45 93.55 293.8 93.2 294.15 92.85 294.05 92.25 293.95 91.7 293.5 91.3 293.0 90.9 292.45 90.85 291.9 90.85 291.6 91.2" fill="#312c2b" fill-rule="evenodd" stroke="none"/>
    <path d="M293.8 93.2 Q293.45 93.55 292.9 93.5 292.35 93.45 291.9 93.05 291.45 92.65 291.35 92.1 291.25 91.55 291.6 91.2 291.9 90.85 292.45 90.85 293.0 90.9 293.5 91.3 293.95 91.7 294.05 92.25 294.15 92.85 293.8 93.2" fill="#ffffff" fill-rule="evenodd" stroke="none"/>
    <path d="M217.15 135.5 Q220.45 133.7 223.0 133.95 225.3 134.15 226.05 135.85 226.8 137.5 225.5 139.5 224.05 141.8 220.55 143.4 213.75 146.55 213.25 142.2 213.0 140.5 214.1 138.55 215.25 136.5 217.15 135.5" fill="#ffa0ad" fill-rule="evenodd" stroke="none"/>
    <path d="M301.9 96.85 Q303.7 95.05 305.9 94.5 L311.9 94.65 Q314.1 95.55 314.5 97.5 314.9 99.45 313.2 101.2 311.3 103.1 307.5 103.75 299.15 105.2 299.9 100.5 300.15 98.65 301.9 96.85" fill="#ffa0ad" fill-rule="evenodd" stroke="none"/>
    <path d="M256.6 132.5 Q255.75 128.5 261.0 126.5 266.2 124.55 269.55 127.2 274.25 131.0 274.45 137.2 274.7 143.45 270.2 145.75 266.15 147.8 261.5 142.05 257.6 137.25 256.6 132.5 M263.1 129.05 Q259.95 130.2 259.5 132.45 259.9 134.25 261.05 136.65 262.4 139.5 264.0 141.25 266.75 144.25 269.05 143.05 270.95 142.05 271.75 139.9 272.45 137.85 272.0 135.4 271.35 131.8 268.6 129.65 266.35 127.85 263.1 129.05" fill="#dc976d" fill-rule="evenodd" stroke="none"/>
    <path d="M264.0 141.25 Q264.6 138.65 267.05 137.0 269.25 135.5 272.0 135.4 272.45 137.85 271.75 139.9 270.95 142.05 269.05 143.05 266.75 144.25 264.0 141.25" fill="#ffafb4" fill-rule="evenodd" stroke="none"/>
    <path d="M272.0 135.4 Q269.25 135.5 267.05 137.0 264.6 138.65 264.0 141.25 262.4 139.5 261.05 136.65 259.9 134.25 259.5 132.45 259.95 130.2 263.1 129.05 266.35 127.85 268.6 129.65 271.35 131.8 272.0 135.4" fill="#eea47c" fill-rule="evenodd" stroke="none"/>
    <path d="M278.1 148.5 Q279.35 151.1 275.15 152.3 270.9 153.5 270.1 151.05 269.2 148.25 273.0 147.05 276.8 145.85 278.1 148.5" fill="#dc976d" fill-rule="evenodd" stroke="none"/>
    <path d="M280.2 180.9 Q277.8 183.2 276.75 185.35 275.85 187.1 275.35 189.95 271.75 188.6 264.3 183.2 L257.55 178.05 265.5 180.05 Q274.6 181.85 280.2 180.9" fill="#009bc7" fill-rule="evenodd" stroke="none"/>
    <path d="M294.9 176.9 Q298.05 174.85 305.7 165.95 L316.4 152.9 317.9 151.1 317.75 151.6 Q315.45 158.85 312.3 165.6 306.6 177.6 300.95 180.85 L298.4 178.75 Q296.85 177.55 294.9 176.9" fill="#009bc7" fill-rule="evenodd" stroke="none"/>
    <path d="M281.35 185.15 L283.75 185.45 Q284.8 194.45 287.85 202.55 291.15 211.2 296.3 217.55 L289.6 218.3 Q286.55 212.35 284.05 201.2 282.0 192.15 281.35 185.15" fill="#e5d6c4" fill-rule="evenodd" stroke="none"/>
    <path d="M294.1 183.05 L295.4 182.25 295.6 182.1 296.9 181.2 Q300.95 189.8 302.9 195.3 306.8 206.25 306.5 213.4 L304.9 214.4 301.0 216.2 298.8 216.95 296.65 217.45 296.35 217.55 296.3 217.55 Q291.15 211.2 287.85 202.55 284.8 194.45 283.75 185.45 L287.3 185.3 287.35 185.3 289.0 185.0 289.15 184.95 290.75 184.5 292.35 183.9 294.1 183.05" fill="#fef7e4" fill-rule="evenodd" stroke="none"/>
    <path d="M281.35 185.15 L281.2 182.5 283.65 176.0 286.6 174.4 288.15 175.05 Q294.1 177.55 295.95 178.85 295.85 178.95 296.5 180.3 L296.9 181.2 295.6 182.1 295.4 182.25 294.1 183.05 292.35 183.9 290.75 184.5 289.15 184.95 289.0 185.0 287.35 185.3 287.3 185.3 283.75 185.45 281.35 185.15" fill="#f5ab8a" fill-rule="evenodd" stroke="none"/>
    <path d="M304.9 214.4 L306.5 213.4 Q306.35 216.75 305.3 219.1 L305.2 219.45 301.0 221.05 Q296.05 222.8 292.95 223.0 L292.4 222.5 Q291.1 221.2 289.6 218.3 L294.4 217.9 296.3 217.55 296.35 217.55 296.65 217.45 298.8 216.95 302.85 215.45 304.9 214.4" fill="#463b49" fill-rule="evenodd" stroke="none"/>
    <path d="M69.35 139.75 Q58.05 146.55 50.1 157.25 42.2 167.85 39.15 180.15 35.95 192.9 38.55 205.15 44.45 232.8 67.05 246.6 87.8 259.2 113.85 255.65 138.3 252.3 153.25 232.65 168.2 213.0 164.85 188.5 162.7 173.0 154.15 159.75 156.7 157.85 155.3 154.45 153.65 150.5 147.1 146.7 143.8 144.8 141.05 144.8 131.65 136.85 120.25 133.25 108.05 129.4 94.9 130.95 81.25 132.6 69.35 139.75 M162.3 152.1 L165.55 155.65 Q170.45 161.35 174.2 167.65 183.4 183.15 185.8 200.65 186.75 207.75 186.35 215.2 186.05 219.65 185.4 223.35 184.35 229.15 182.4 234.85 L182.2 235.45 180.55 239.6 177.55 245.85 174.65 250.75 Q169.7 258.3 163.35 264.35 L160.9 266.55 Q152.9 273.45 143.35 277.85 133.45 282.4 122.6 283.85 103.4 286.5 85.6 281.6 L80.4 280.0 Q67.1 275.45 56.5 266.95 52.3 263.6 48.7 259.7 44.9 255.7 41.5 250.65 39.25 247.3 37.5 244.05 L36.65 242.5 Q31.6 232.5 29.25 221.25 26.2 207.05 29.55 192.0 30.5 187.55 32.4 182.25 37.3 169.05 46.65 157.95 L46.7 157.85 Q53.5 149.85 61.85 143.85 66.45 140.6 71.8 137.7 79.9 133.55 87.95 131.45 93.2 130.0 99.1 129.3 L105.0 128.8 117.6 129.3 Q122.4 129.9 127.4 131.2 L128.35 131.45 Q134.0 133.05 139.45 135.6 145.8 138.6 151.3 142.6 L151.85 142.95 157.3 147.3 162.3 152.1" fill="#8f0400" fill-rule="evenodd" stroke="none"/>
    <path d="M121.4 165.75 Q118.8 167.85 118.2 171.3 117.55 174.75 119.2 178.0 121.05 181.55 125.0 183.55 126.55 185.0 129.1 185.35 L131.45 185.4 Q136.3 185.9 139.7 182.8 142.85 179.9 143.05 175.6 143.25 171.05 139.85 167.85 135.95 164.2 128.45 163.75 124.25 163.5 121.4 165.75 M129.1 146.0 Q129.0 143.05 125.4 141.35 121.25 139.35 113.8 139.8 109.6 140.05 106.9 141.8 104.45 143.4 104.05 145.7 103.65 148.0 105.5 149.95 107.5 152.05 111.6 152.95 113.25 153.75 115.8 153.7 L118.15 153.5 Q123.05 153.35 126.2 151.0 129.2 148.8 129.1 146.0 M39.15 180.15 Q42.2 167.85 50.1 157.25 58.05 146.55 69.35 139.75 81.25 132.6 94.9 130.95 108.05 129.4 120.25 133.25 131.65 136.85 141.05 144.8 137.05 144.8 136.25 147.95 135.35 151.25 139.15 155.2 140.05 156.6 141.85 157.75 L143.65 158.75 Q146.65 160.65 149.65 160.85 152.4 161.0 154.15 159.75 162.7 173.0 164.85 188.5 168.2 213.0 153.25 232.65 138.3 252.3 113.85 255.65 87.8 259.2 67.05 246.6 44.45 232.8 38.55 205.15 35.95 192.9 39.15 180.15 M58.05 151.1 Q51.45 159.9 53.55 169.75 55.85 180.55 64.65 185.9 72.75 190.85 82.9 189.45 92.45 188.2 98.3 180.5 104.1 172.85 102.8 163.3 101.4 153.25 93.95 146.65 86.0 139.6 75.5 140.85 64.7 142.1 58.05 151.1" fill="#d41111" fill-rule="evenodd" stroke="none"/>
    <path d="M64.65 185.9 Q55.85 180.55 53.55 169.75 51.45 159.9 58.05 151.1 64.7 142.1 75.5 140.85 86.0 139.6 93.95 146.65 101.4 153.25 102.8 163.3 104.1 172.85 98.3 180.5 92.45 188.2 82.9 189.45 72.75 190.85 64.65 185.9 M75.05 147.15 Q71.75 145.85 68.6 147.55 63.65 150.3 62.1 154.95 60.7 159.1 62.5 162.85 64.3 166.6 68.1 167.35 72.4 168.15 77.2 164.45 80.6 161.85 81.15 158.0 81.65 154.6 79.8 151.45 78.05 148.3 75.05 147.15" fill="#ff5446" fill-rule="evenodd" stroke="none"/>
    <path d="M68.6 147.55 Q71.75 145.85 75.05 147.15 78.05 148.3 79.8 151.45 81.65 154.6 81.15 158.0 80.6 161.85 77.2 164.45 72.4 168.15 68.1 167.35 64.3 166.6 62.5 162.85 60.7 159.1 62.1 154.95 63.65 150.3 68.6 147.55" fill="#ffffff" fill-rule="evenodd" stroke="none"/>
    <path d="M119.2 178.0 Q117.55 174.75 118.2 171.3 118.8 167.85 121.4 165.75 124.25 163.5 128.45 163.75 135.95 164.2 139.85 167.85 143.25 171.05 143.05 175.6 142.85 179.9 139.7 182.8 136.3 185.9 131.45 185.4 134.1 185.1 135.95 183.4 137.65 181.8 137.8 179.75 138.05 174.65 129.75 173.9 125.65 173.55 123.95 177.25 122.3 180.9 125.0 183.55 121.05 181.55 119.2 178.0" fill="#a61212" fill-rule="evenodd" stroke="none"/>
    <path d="M129.75 173.9 Q138.05 174.65 137.8 179.75 137.65 181.8 135.95 183.4 134.1 185.1 131.45 185.4 L129.1 185.35 Q126.55 185.0 125.0 183.55 122.3 180.9 123.95 177.25 125.65 173.55 129.75 173.9" fill="#780200" fill-rule="evenodd" stroke="none"/>
    <path d="M125.4 141.35 Q129.0 143.05 129.1 146.0 129.2 148.8 126.2 151.0 123.05 153.35 118.15 153.5 120.8 153.05 122.45 151.8 124.1 150.55 124.05 149.25 124.0 145.95 115.7 146.25 111.6 146.45 110.15 149.0 108.75 151.55 111.6 152.95 107.5 152.05 105.5 149.95 103.65 148.0 104.05 145.7 104.45 143.4 106.9 141.8 109.6 140.05 113.8 139.8 121.25 139.35 125.4 141.35" fill="#a61212" fill-rule="evenodd" stroke="none"/>
    <path d="M118.15 153.5 L115.8 153.7 Q113.25 153.75 111.6 152.95 108.75 151.55 110.15 149.0 111.6 146.45 115.7 146.25 124.0 145.95 124.05 149.25 124.1 150.55 122.45 151.8 120.8 153.05 118.15 153.5" fill="#780200" fill-rule="evenodd" stroke="none"/>
    <path d="M136.25 147.95 Q137.05 144.8 141.05 144.8 143.8 144.8 147.1 146.7 153.65 150.5 155.3 154.45 156.7 157.85 154.15 159.75 152.4 161.0 149.65 160.85 146.65 160.65 143.65 158.75 148.45 160.9 150.0 158.55 151.55 156.1 145.35 152.3 142.3 150.4 140.0 151.6 137.75 152.75 139.15 155.2 135.35 151.25 136.25 147.95" fill="#a61212" fill-rule="evenodd" stroke="none"/>
    <path d="M145.35 152.3 Q151.55 156.1 150.0 158.55 148.45 160.9 143.65 158.75 L141.85 157.75 Q140.05 156.6 139.15 155.2 137.75 152.75 140.0 151.6 142.3 150.4 145.35 152.3" fill="#780200" fill-rule="evenodd" stroke="none"/>
  </g>
  <defs>
    <linearGradient gradientTransform="matrix(0.0888, -0.244, -0.244, -0.0888, 296.7, 176.0)" gradientUnits="userSpaceOnUse" id="gradient0" spreadMethod="pad" x1="-819.2" x2="819.2">
      <stop offset="0.2196078431372549" stop-color="#af8ec9"/>
      <stop offset="0.8235294117647058" stop-color="#fde4b1"/>
    </linearGradient>
    <linearGradient gradientTransform="matrix(0.0888, -0.244, -0.244, -0.0888, 358.0, 198.35)" gradientUnits="userSpaceOnUse" id="gradient1" spreadMethod="pad" x1="-819.2" x2="819.2">
      <stop offset="0.2196078431372549" stop-color="#af8ec9"/>
      <stop offset="0.8235294117647058" stop-color="#fde4b1"/>
    </linearGradient>
    <linearGradient gradientTransform="matrix(0.0888, -0.244, -0.244, -0.0888, 354.7, 197.1)" gradientUnits="userSpaceOnUse" id="gradient2" spreadMethod="pad" x1="-819.2" x2="819.2">
      <stop offset="0.2196078431372549" stop-color="#af8ec9"/>
      <stop offset="0.8235294117647058" stop-color="#fde4b1"/>
    </linearGradient>
    <linearGradient gradientTransform="matrix(0.0888, -0.244, -0.244, -0.0888, 326.2, 186.75)" gradientUnits="userSpaceOnUse" id="gradient3" spreadMethod="pad" x1="-819.2" x2="819.2">
      <stop offset="0.2196078431372549" stop-color="#af8ec9"/>
      <stop offset="0.8235294117647058" stop-color="#fde4b1"/>
    </linearGradient>
    <linearGradient gradientTransform="matrix(-0.0109, -0.1251, -0.1251, 0.0109, -1.75, 72.6)" gradientUnits="userSpaceOnUse" id="gradient4" spreadMethod="pad" x1="-819.2" x2="819.2">
      <stop offset="0.0" stop-color="#92e7ff"/>
      <stop offset="0.9921568627450981" stop-color="#009fcc"/>
    </linearGradient>
    <linearGradient gradientTransform="matrix(0.0888, -0.244, -0.244, -0.0888, 131.65, 115.95)" gradientUnits="userSpaceOnUse" id="gradient5" spreadMethod="pad" x1="-819.2" x2="819.2">
      <stop offset="0.2196078431372549" stop-color="#af8ec9"/>
      <stop offset="0.8235294117647058" stop-color="#fde4b1"/>
    </linearGradient>
    <linearGradient gradientTransform="matrix(-0.0109, -0.1251, -0.1251, 0.0109, 154.5, 58.9)" gradientUnits="userSpaceOnUse" id="gradient6" spreadMethod="pad" x1="-819.2" x2="819.2">
      <stop offset="0.0" stop-color="#92e7ff"/>
      <stop offset="0.9921568627450981" stop-color="#009fcc"/>
    </linearGradient>
    <linearGradient gradientTransform="matrix(0.0888, -0.244, -0.244, -0.0888, 148.65, 122.15)" gradientUnits="userSpaceOnUse" id="gradient7" spreadMethod="pad" x1="-819.2" x2="819.2">
      <stop offset="0.2196078431372549" stop-color="#af8ec9"/>
      <stop offset="0.8235294117647058" stop-color="#fde4b1"/>
    </linearGradient>
    <linearGradient gradientTransform="matrix(-0.0109, -0.1251, -0.1251, 0.0109, 191.75, 55.65)" gradientUnits="userSpaceOnUse" id="gradient8" spreadMethod="pad" x1="-819.2" x2="819.2">
      <stop offset="0.0" stop-color="#92e7ff"/>
      <stop offset="0.9921568627450981" stop-color="#009fcc"/>
    </linearGradient>
    <linearGradient gradientTransform="matrix(0.0888, -0.244, -0.244, -0.0888, 113.6, 109.35)" gradientUnits="userSpaceOnUse" id="gradient9" spreadMethod="pad" x1="-819.2" x2="819.2">
      <stop offset="0.2196078431372549" stop-color="#af8ec9"/>
      <stop offset="0.8235294117647058" stop-color="#fde4b1"/>
    </linearGradient>
    <linearGradient gradientTransform="matrix(-0.0109, -0.1251, -0.1251, 0.0109, 127.0, 61.3)" gradientUnits="userSpaceOnUse" id="gradient10" spreadMethod="pad" x1="-819.2" x2="819.2">
      <stop offset="0.0" stop-color="#92e7ff"/>
      <stop offset="0.9921568627450981" stop-color="#009fcc"/>
    </linearGradient>
    <linearGradient gradientTransform="matrix(0.0888, -0.244, -0.244, -0.0888, 131.2, 115.8)" gradientUnits="userSpaceOnUse" id="gradient11" spreadMethod="pad" x1="-819.2" x2="819.2">
      <stop offset="0.2196078431372549" stop-color="#af8ec9"/>
      <stop offset="0.8235294117647058" stop-color="#fde4b1"/>
    </linearGradient>
    <linearGradient gradientTransform="matrix(-0.0109, -0.1251, -0.1251, 0.0109, 123.4, 61.65)" gradientUnits="userSpaceOnUse" id="gradient12" spreadMethod="pad" x1="-819.2" x2="819.2">
      <stop offset="0.0" stop-color="#92e7ff"/>
      <stop offset="0.9921568627450981" stop-color="#009fcc"/>
    </linearGradient>
    <linearGradient gradientTransform="matrix(0.0888, -0.244, -0.244, -0.0888, 147.5, 121.7)" gradientUnits="userSpaceOnUse" id="gradient13" spreadMethod="pad" x1="-819.2" x2="819.2">
      <stop offset="0.2196078431372549" stop-color="#af8ec9"/>
      <stop offset="0.8235294117647058" stop-color="#fde4b1"/>
    </linearGradient>
    <linearGradient gradientTransform="matrix(-0.0109, -0.1251, -0.1251, 0.0109, 140.95, 60.1)" gradientUnits="userSpaceOnUse" id="gradient14" spreadMethod="pad" x1="-819.2" x2="819.2">
      <stop offset="0.0" stop-color="#92e7ff"/>
      <stop offset="0.9921568627450981" stop-color="#009fcc"/>
    </linearGradient>
    <linearGradient gradientTransform="matrix(0.0888, -0.244, -0.244, -0.0888, 171.05, 130.3)" gradientUnits="userSpaceOnUse" id="gradient15" spreadMethod="pad" x1="-819.2" x2="819.2">
      <stop offset="0.2196078431372549" stop-color="#af8ec9"/>
      <stop offset="0.8235294117647058" stop-color="#fde4b1"/>
    </linearGradient>
    <linearGradient gradientTransform="matrix(-0.0109, -0.1251, -0.1251, 0.0109, 161.4, 58.3)" gradientUnits="userSpaceOnUse" id="gradient16" spreadMethod="pad" x1="-819.2" x2="819.2">
      <stop offset="0.0" stop-color="#92e7ff"/>
      <stop offset="0.9921568627450981" stop-color="#009fcc"/>
    </linearGradient>
    <linearGradient gradientTransform="matrix(0.0888, -0.244, -0.244, -0.0888, 63.7, 91.2)" gradientUnits="userSpaceOnUse" id="gradient17" spreadMethod="pad" x1="-819.2" x2="819.2">
      <stop offset="0.2196078431372549" stop-color="#af8ec9"/>
      <stop offset="0.8235294117647058" stop-color="#fde4b1"/>
    </linearGradient>
    <linearGradient gradientTransform="matrix(-0.0109, -0.1251, -0.1251, 0.0109, 58.7, 67.3)" gradientUnits="userSpaceOnUse" id="gradient18" spreadMethod="pad" x1="-819.2" x2="819.2">
      <stop offset="0.0" stop-color="#92e7ff"/>
      <stop offset="0.9921568627450981" stop-color="#009fcc"/>
    </linearGradient>
    <linearGradient gradientTransform="matrix(0.0957, -0.1658, -0.1658, -0.0957, 197.15, 266.3)" gradientUnits="userSpaceOnUse" id="gradient19" spreadMethod="pad" x1="-819.2" x2="819.2">
      <stop offset="0.3254901960784314" stop-color="#ffefc6"/>
      <stop offset="0.7176470588235294" stop-color="#deb153"/>
    </linearGradient>
    <linearGradient gradientTransform="matrix(0.0957, -0.1658, -0.1658, -0.0957, 258.8, 301.9)" gradientUnits="userSpaceOnUse" id="gradient20" spreadMethod="pad" x1="-819.2" x2="819.2">
      <stop offset="0.3254901960784314" stop-color="#ffefc6"/>
      <stop offset="0.7176470588235294" stop-color="#deb153"/>
    </linearGradient>
    <linearGradient gradientTransform="matrix(0.0957, -0.1658, -0.1658, -0.0957, 296.95, 323.95)" gradientUnits="userSpaceOnUse" id="gradient21" spreadMethod="pad" x1="-819.2" x2="819.2">
      <stop offset="0.3254901960784314" stop-color="#ffefc6"/>
      <stop offset="0.7176470588235294" stop-color="#deb153"/>
    </linearGradient>
    <linearGradient gradientTransform="matrix(0.0957, -0.1658, -0.1658, -0.0957, 30.85, 170.3)" gradientUnits="userSpaceOnUse" id="gradient22" spreadMethod="pad" x1="-819.2" x2="819.2">
      <stop offset="0.3254901960784314" stop-color="#ffefc6"/>
      <stop offset="0.7176470588235294" stop-color="#deb153"/>
    </linearGradient>
    <linearGradient gradientTransform="matrix(0.0957, -0.1658, -0.1658, -0.0957, 59.35, 186.75)" gradientUnits="userSpaceOnUse" id="gradient23" spreadMethod="pad" x1="-819.2" x2="819.2">
      <stop offset="0.3254901960784314" stop-color="#ffefc6"/>
      <stop offset="0.7176470588235294" stop-color="#deb153"/>
    </linearGradient>
    <linearGradient gradientTransform="matrix(0.0957, -0.1658, -0.1658, -0.0957, 106.7, 214.1)" gradientUnits="userSpaceOnUse" id="gradient24" spreadMethod="pad" x1="-819.2" x2="819.2">
      <stop offset="0.3254901960784314" stop-color="#ffefc6"/>
      <stop offset="0.7176470588235294" stop-color="#deb153"/>
    </linearGradient>
    <linearGradient gradientTransform="matrix(0.0888, -0.244, -0.244, -0.0888, 171.7, 130.5)" gradientUnits="userSpaceOnUse" id="gradient25" spreadMethod="pad" x1="-819.2" x2="819.2">
      <stop offset="0.2196078431372549" stop-color="#af8ec9"/>
      <stop offset="0.8235294117647058" stop-color="#fde4b1"/>
    </linearGradient>
    <linearGradient gradientTransform="matrix(0.0957, -0.1658, -0.1658, -0.0957, 143.8, 235.5)" gradientUnits="userSpaceOnUse" id="gradient26" spreadMethod="pad" x1="-819.2" x2="819.2">
      <stop offset="0.3254901960784314" stop-color="#ffefc6"/>
      <stop offset="0.7176470588235294" stop-color="#deb153"/>
    </linearGradient>
    <linearGradient gradientTransform="matrix(0.0888, -0.244, -0.244, -0.0888, 311.15, 181.3)" gradientUnits="userSpaceOnUse" id="gradient27" spreadMethod="pad" x1="-819.2" x2="819.2">
      <stop offset="0.2196078431372549" stop-color="#af8ec9"/>
      <stop offset="0.8235294117647058" stop-color="#fde4b1"/>
    </linearGradient>
    <linearGradient gradientTransform="matrix(0.0957, -0.1658, -0.1658, -0.0957, 254.25, 299.25)" gradientUnits="userSpaceOnUse" id="gradient28" spreadMethod="pad" x1="-819.2" x2="819.2">
      <stop offset="0.3254901960784314" stop-color="#ffefc6"/>
      <stop offset="0.7176470588235294" stop-color="#deb153"/>
    </linearGradient>
    <linearGradient gradientTransform="matrix(0.0888, -0.244, -0.244, -0.0888, 105.3, 106.35)" gradientUnits="userSpaceOnUse" id="gradient29" spreadMethod="pad" x1="-819.2" x2="819.2">
      <stop offset="0.2196078431372549" stop-color="#af8ec9"/>
      <stop offset="0.8235294117647058" stop-color="#fde4b1"/>
    </linearGradient>
    <linearGradient gradientTransform="matrix(0.0957, -0.1658, -0.1658, -0.0957, 86.3, 202.3)" gradientUnits="userSpaceOnUse" id="gradient30" spreadMethod="pad" x1="-819.2" x2="819.2">
      <stop offset="0.3254901960784314" stop-color="#ffefc6"/>
      <stop offset="0.7176470588235294" stop-color="#deb153"/>
    </linearGradient>
    <linearGradient gradientTransform="matrix(0.0888, -0.244, -0.244, -0.0888, 220.35, 148.2)" gradientUnits="userSpaceOnUse" id="gradient31" spreadMethod="pad" x1="-819.2" x2="819.2">
      <stop offset="0.2196078431372549" stop-color="#af8ec9"/>
      <stop offset="0.8235294117647058" stop-color="#fde4b1"/>
    </linearGradient>
    <linearGradient gradientTransform="matrix(0.0957, -0.1658, -0.1658, -0.0957, 181.5, 257.3)" gradientUnits="userSpaceOnUse" id="gradient32" spreadMethod="pad" x1="-819.2" x2="819.2">
      <stop offset="0.3254901960784314" stop-color="#ffefc6"/>
      <stop offset="0.7176470588235294" stop-color="#deb153"/>
    </linearGradient>
    <linearGradient gradientTransform="matrix(0.0888, -0.244, -0.244, -0.0888, 245.45, 157.35)" gradientUnits="userSpaceOnUse" id="gradient33" spreadMethod="pad" x1="-819.2" x2="819.2">
      <stop offset="0.2196078431372549" stop-color="#af8ec9"/>
      <stop offset="0.8235294117647058" stop-color="#fde4b1"/>
    </linearGradient>
    <linearGradient gradientTransform="matrix(0.0957, -0.1658, -0.1658, -0.0957, 208.0, 272.6)" gradientUnits="userSpaceOnUse" id="gradient34" spreadMethod="pad" x1="-819.2" x2="819.2">
      <stop offset="0.3254901960784314" stop-color="#ffefc6"/>
      <stop offset="0.7176470588235294" stop-color="#deb153"/>
    </linearGradient>
    <linearGradient gradientTransform="matrix(0.0888, -0.244, -0.244, -0.0888, 304.85, 179.0)" gradientUnits="userSpaceOnUse" id="gradient35" spreadMethod="pad" x1="-819.2" x2="819.2">
      <stop offset="0.2196078431372549" stop-color="#af8ec9"/>
      <stop offset="0.8235294117647058" stop-color="#fde4b1"/>
    </linearGradient>
    <linearGradient gradientTransform="matrix(0.0957, -0.1658, -0.1658, -0.0957, 258.95, 302.0)" gradientUnits="userSpaceOnUse" id="gradient36" spreadMethod="pad" x1="-819.2" x2="819.2">
      <stop offset="0.3254901960784314" stop-color="#ffefc6"/>
      <stop offset="0.7176470588235294" stop-color="#deb153"/>
    </linearGradient>
    <linearGradient gradientTransform="matrix(0.0888, -0.244, -0.244, -0.0888, 181.15, 133.95)" gradientUnits="userSpaceOnUse" id="gradient37" spreadMethod="pad" x1="-819.2" x2="819.2">
      <stop offset="0.2196078431372549" stop-color="#af8ec9"/>
      <stop offset="0.8235294117647058" stop-color="#fde4b1"/>
    </linearGradient>
    <linearGradient gradientTransform="matrix(0.0957, -0.1658, -0.1658, -0.0957, 131.15, 228.2)" gradientUnits="userSpaceOnUse" id="gradient38" spreadMethod="pad" x1="-819.2" x2="819.2">
      <stop offset="0.3254901960784314" stop-color="#ffefc6"/>
      <stop offset="0.7176470588235294" stop-color="#deb153"/>
    </linearGradient>
    <linearGradient gradientTransform="matrix(0.0888, -0.244, -0.244, -0.0888, 292.15, 174.35)" gradientUnits="userSpaceOnUse" id="gradient39" spreadMethod="pad" x1="-819.2" x2="819.2">
      <stop offset="0.2196078431372549" stop-color="#af8ec9"/>
      <stop offset="0.8235294117647058" stop-color="#fde4b1"/>
    </linearGradient>
    <linearGradient gradientTransform="matrix(0.0957, -0.1658, -0.1658, -0.0957, 240.9, 291.55)" gradientUnits="userSpaceOnUse" id="gradient40" spreadMethod="pad" x1="-819.2" x2="819.2">
      <stop offset="0.3254901960784314" stop-color="#ffefc6"/>
      <stop offset="0.7176470588235294" stop-color="#deb153"/>
    </linearGradient>
    <linearGradient gradientTransform="matrix(0.0888, -0.244, -0.244, -0.0888, 66.95, 92.4)" gradientUnits="userSpaceOnUse" id="gradient41" spreadMethod="pad" x1="-819.2" x2="819.2">
      <stop offset="0.2196078431372549" stop-color="#af8ec9"/>
      <stop offset="0.8235294117647058" stop-color="#fde4b1"/>
    </linearGradient>
    <linearGradient gradientTransform="matrix(0.0957, -0.1658, -0.1658, -0.0957, 44.2, 178.0)" gradientUnits="userSpaceOnUse" id="gradient42" spreadMethod="pad" x1="-819.2" x2="819.2">
      <stop offset="0.3254901960784314" stop-color="#ffefc6"/>
      <stop offset="0.7176470588235294" stop-color="#deb153"/>
    </linearGradient>
    <linearGradient gradientTransform="matrix(0.0888, -0.244, -0.244, -0.0888, 364.75, 200.8)" gradientUnits="userSpaceOnUse" id="gradient43" spreadMethod="pad" x1="-819.2" x2="819.2">
      <stop offset="0.2196078431372549" stop-color="#af8ec9"/>
      <stop offset="0.8235294117647058" stop-color="#fde4b1"/>
    </linearGradient>
    <linearGradient gradientTransform="matrix(0.0957, -0.1658, -0.1658, -0.0957, 296.55, 323.7)" gradientUnits="userSpaceOnUse" id="gradient44" spreadMethod="pad" x1="-819.2" x2="819.2">
      <stop offset="0.3254901960784314" stop-color="#ffefc6"/>
      <stop offset="0.7176470588235294" stop-color="#deb153"/>
    </linearGradient>
    <linearGradient gradientTransform="matrix(0.0888, -0.244, -0.244, -0.0888, 179.2, 133.25)" gradientUnits="userSpaceOnUse" id="gradient45" spreadMethod="pad" x1="-819.2" x2="819.2">
      <stop offset="0.2196078431372549" stop-color="#af8ec9"/>
      <stop offset="0.8235294117647058" stop-color="#fde4b1"/>
    </linearGradient>
    <linearGradient gradientTransform="matrix(-0.0109, -0.1251, -0.1251, 0.0109, 165.8, 57.95)" gradientUnits="userSpaceOnUse" id="gradient46" spreadMethod="pad" x1="-819.2" x2="819.2">
      <stop offset="0.0" stop-color="#92e7ff"/>
      <stop offset="0.9921568627450981" stop-color="#009fcc"/>
    </linearGradient>
    <linearGradient gradientTransform="matrix(0.0957, -0.1658, -0.1658, -0.0957, 128.55, 226.7)" gradientUnits="userSpaceOnUse" id="gradient47" spreadMethod="pad" x1="-819.2" x2="819.2">
      <stop offset="0.3254901960784314" stop-color="#ffefc6"/>
      <stop offset="0.7176470588235294" stop-color="#deb153"/>
    </linearGradient>
    <linearGradient gradientTransform="matrix(0.0957, -0.1658, -0.1658, -0.0957, 113.45, 218.0)" gradientUnits="userSpaceOnUse" id="gradient48" spreadMethod="pad" x1="-819.2" x2="819.2">
      <stop offset="0.3254901960784314" stop-color="#ffefc6"/>
      <stop offset="0.7176470588235294" stop-color="#deb153"/>
    </linearGradient>
    <linearGradient gradientTransform="matrix(0.0888, -0.244, -0.244, -0.0888, 319.05, 184.15)" gradientUnits="userSpaceOnUse" id="gradient49" spreadMethod="pad" x1="-819.2" x2="819.2">
      <stop offset="0.2196078431372549" stop-color="#af8ec9"/>
      <stop offset="0.8235294117647058" stop-color="#fde4b1"/>
    </linearGradient>
    <linearGradient gradientTransform="matrix(0.1921, 0.0, 0.0, -0.1921, 289.45, 13.25)" gradientUnits="userSpaceOnUse" id="gradient50" spreadMethod="pad" x1="-819.2" x2="819.2">
      <stop offset="0.3254901960784314" stop-color="#abd9e6"/>
      <stop offset="1.0" stop-color="#f8d78c"/>
    </linearGradient>
    <linearGradient gradientTransform="matrix(0.0888, -0.244, -0.244, -0.0888, 283.35, 171.15)" gradientUnits="userSpaceOnUse" id="gradient51" spreadMethod="pad" x1="-819.2" x2="819.2">
      <stop offset="0.2196078431372549" stop-color="#af8ec9"/>
      <stop offset="0.8235294117647058" stop-color="#fde4b1"/>
    </linearGradient>
    <linearGradient gradientTransform="matrix(0.1921, 0.0, 0.0, -0.1921, 289.45, 15.3)" gradientUnits="userSpaceOnUse" id="gradient52" spreadMethod="pad" x1="-819.2" x2="819.2">
      <stop offset="0.3254901960784314" stop-color="#abd9e6"/>
      <stop offset="1.0" stop-color="#f8d78c"/>
    </linearGradient>
    <linearGradient gradientTransform="matrix(0.0888, -0.244, -0.244, -0.0888, 227.35, 150.8)" gradientUnits="userSpaceOnUse" id="gradient53" spreadMethod="pad" x1="-819.2" x2="819.2">
      <stop offset="0.2196078431372549" stop-color="#af8ec9"/>
      <stop offset="0.8235294117647058" stop-color="#fde4b1"/>
    </linearGradient>
    <linearGradient gradientTransform="matrix(0.1921, 0.0, 0.0, -0.1921, 289.45, 2.55)" gradientUnits="userSpaceOnUse" id="gradient54" spreadMethod="pad" x1="-819.2" x2="819.2">
      <stop offset="0.3254901960784314" stop-color="#abd9e6"/>
      <stop offset="1.0" stop-color="#f8d78c"/>
    </linearGradient>
    <linearGradient gradientTransform="matrix(0.0888, -0.244, -0.244, -0.0888, 156.45, 125.0)" gradientUnits="userSpaceOnUse" id="gradient55" spreadMethod="pad" x1="-819.2" x2="819.2">
      <stop offset="0.2196078431372549" stop-color="#af8ec9"/>
      <stop offset="0.8235294117647058" stop-color="#fde4b1"/>
    </linearGradient>
    <linearGradient gradientTransform="matrix(0.1921, 0.0, 0.0, -0.1921, 289.45, 3.65)" gradientUnits="userSpaceOnUse" id="gradient56" spreadMethod="pad" x1="-819.2" x2="819.2">
      <stop offset="0.3254901960784314" stop-color="#abd9e6"/>
      <stop offset="1.0" stop-color="#f8d78c"/>
    </linearGradient>
    <linearGradient gradientTransform="matrix(0.0888, -0.244, -0.244, -0.0888, 261.5, 163.2)" gradientUnits="userSpaceOnUse" id="gradient57" spreadMethod="pad" x1="-819.2" x2="819.2">
      <stop offset="0.2196078431372549" stop-color="#af8ec9"/>
      <stop offset="0.8235294117647058" stop-color="#fde4b1"/>
    </linearGradient>
    <linearGradient gradientTransform="matrix(0.1921, 0.0, 0.0, -0.1921, 289.45, 12.6)" gradientUnits="userSpaceOnUse" id="gradient58" spreadMethod="pad" x1="-819.2" x2="819.2">
      <stop offset="0.3254901960784314" stop-color="#abd9e6"/>
      <stop offset="1.0" stop-color="#f8d78c"/>
    </linearGradient>
    <linearGradient gradientTransform="matrix(0.0888, -0.244, -0.244, -0.0888, 349.7, 195.3)" gradientUnits="userSpaceOnUse" id="gradient59" spreadMethod="pad" x1="-819.2" x2="819.2">
      <stop offset="0.2196078431372549" stop-color="#af8ec9"/>
      <stop offset="0.8235294117647058" stop-color="#fde4b1"/>
    </linearGradient>
    <linearGradient gradientTransform="matrix(0.1921, 0.0, 0.0, -0.1921, 289.45, 9.65)" gradientUnits="userSpaceOnUse" id="gradient60" spreadMethod="pad" x1="-819.2" x2="819.2">
      <stop offset="0.3254901960784314" stop-color="#abd9e6"/>
      <stop offset="1.0" stop-color="#f8d78c"/>
    </linearGradient>
    <linearGradient gradientTransform="matrix(0.0888, -0.244, -0.244, -0.0888, 148.8, 122.15)" gradientUnits="userSpaceOnUse" id="gradient61" spreadMethod="pad" x1="-819.2" x2="819.2">
      <stop offset="0.2196078431372549" stop-color="#af8ec9"/>
      <stop offset="0.8235294117647058" stop-color="#fde4b1"/>
    </linearGradient>
    <linearGradient gradientTransform="matrix(-0.0109, -0.1251, -0.1251, 0.0109, 195.7, 55.3)" gradientUnits="userSpaceOnUse" id="gradient62" spreadMethod="pad" x1="-819.2" x2="819.2">
      <stop offset="0.0" stop-color="#92e7ff"/>
      <stop offset="0.9921568627450981" stop-color="#009fcc"/>
    </linearGradient>
    <linearGradient gradientTransform="matrix(0.1921, 0.0, 0.0, -0.1921, 289.45, 5.25)" gradientUnits="userSpaceOnUse" id="gradient63" spreadMethod="pad" x1="-819.2" x2="819.2">
      <stop offset="0.3254901960784314" stop-color="#abd9e6"/>
      <stop offset="1.0" stop-color="#f8d78c"/>
    </linearGradient>
    <linearGradient gradientTransform="matrix(0.0888, -0.244, -0.244, -0.0888, 120.3, 111.8)" gradientUnits="userSpaceOnUse" id="gradient64" spreadMethod="pad" x1="-819.2" x2="819.2">
      <stop offset="0.2196078431372549" stop-color="#af8ec9"/>
      <stop offset="0.8235294117647058" stop-color="#fde4b1"/>
    </linearGradient>
    <linearGradient gradientTransform="matrix(-0.0109, -0.1251, -0.1251, 0.0109, 165.95, 57.9)" gradientUnits="userSpaceOnUse" id="gradient65" spreadMethod="pad" x1="-819.2" x2="819.2">
      <stop offset="0.0" stop-color="#92e7ff"/>
      <stop offset="0.9921568627450981" stop-color="#009fcc"/>
    </linearGradient>
    <linearGradient gradientTransform="matrix(0.1921, 0.0, 0.0, -0.1921, 289.45, 0.4)" gradientUnits="userSpaceOnUse" id="gradient66" spreadMethod="pad" x1="-819.2" x2="819.2">
      <stop offset="0.3254901960784314" stop-color="#abd9e6"/>
      <stop offset="1.0" stop-color="#f8d78c"/>
    </linearGradient>
    <linearGradient gradientTransform="matrix(0.1921, 0.0, 0.0, -0.1921, 289.45, 1.7)" gradientUnits="userSpaceOnUse" id="gradient67" spreadMethod="pad" x1="-819.2" x2="819.2">
      <stop offset="0.3254901960784314" stop-color="#abd9e6"/>
      <stop offset="1.0" stop-color="#f8d78c"/>
    </linearGradient>
  </defs>
</svg>
