<?xml version="1.0" encoding="UTF-8" standalone="no"?>
<svg xmlns:ffdec="https://www.free-decompiler.com/flash" xmlns:xlink="http://www.w3.org/1999/xlink" ffdec:objectType="shape" height="80.7px" width="60.75px" xmlns="http://www.w3.org/2000/svg">
  <g transform="matrix(1.0, 0.0, 0.0, 1.0, -48.5, 137.75)">
    <path d="M63.5 -72.1 L57.3 -82.75 Q51.3 -80.8 52.85 -74.1 53.4 -71.65 55.05 -70.2 56.0 -69.4 57.75 -68.35 60.4 -66.4 57.15 -60.1 57.65 -60.05 57.5 -57.9 57.4 -56.25 60.5 -57.75 63.95 -59.45 64.25 -64.1 L63.5 -72.1" fill="#f6dec0" fill-rule="evenodd" stroke="none"/>
    <path d="M53.6 -137.75 L48.5 -107.1 Q54.0 -106.75 60.5 -105.35 73.45 -102.55 78.2 -97.2 69.15 -89.95 62.35 -85.6 L57.3 -82.75 63.5 -72.1 109.25 -98.45 53.6 -137.75" fill="#efeedf" fill-rule="evenodd" stroke="none"/>
  </g>
</svg>
