<?xml version="1.0" encoding="UTF-8" standalone="no"?>
<svg xmlns:ffdec="https://www.free-decompiler.com/flash" xmlns:xlink="http://www.w3.org/1999/xlink" ffdec:objectType="shape" height="300.0px" width="420.0px" xmlns="http://www.w3.org/2000/svg">
  <g transform="matrix(1.0, 0.0, 0.0, 1.0, 0.0, 0.0)">
    <path d="M28.75 138.95 L35.7 132.05 37.3 131.5 63.75 151.65 64.5 153.7 59.3 232.85 57.4 233.3 53.85 234.35 50.45 234.2 Q49.55 233.9 47.5 231.85 45.75 230.1 43.25 230.0 42.7 232.85 39.7 234.8 41.0 238.0 27.1 238.9 L27.15 239.7 27.15 240.5 Q25.6 241.7 22.6 241.05 19.75 240.4 17.85 242.0 16.65 241.2 15.2 238.9 13.8 236.65 12.9 236.1 15.05 239.8 13.8 242.85 L12.2 241.05 10.7 242.85 Q9.0 242.85 6.5 243.6 L2.7 244.7 0.0 244.8 0.0 170.6 28.75 138.95" fill="url(#gradient0)" fill-rule="evenodd" stroke="none"/>
    <path d="M66.15 108.9 L64.2 110.45 63.35 108.25 66.15 108.9" fill="url(#gradient1)" fill-rule="evenodd" stroke="none"/>
    <path d="M58.8 96.75 L55.25 87.85 Q57.7 80.1 59.6 78.05 60.95 76.7 64.65 78.35 L68.1 80.3 Q63.5 63.05 58.15 47.85 53.5 34.45 34.7 0.0 L148.35 0.0 61.05 97.15 60.15 95.3 58.8 96.75" fill="url(#gradient2)" fill-rule="evenodd" stroke="none"/>
    <path d="M40.85 130.3 L56.35 125.15 57.3 127.55 54.75 129.55 Q57.3 134.65 61.55 145.9 L40.85 130.3" fill="url(#gradient3)" fill-rule="evenodd" stroke="none"/>
    <path d="M0.0 0.0 L29.75 0.0 27.45 4.05 Q26.2 5.65 22.9 6.05 L20.7 7.8 55.85 99.9 54.2 101.65 55.1 103.75 50.35 109.05 50.35 107.2 Q47.25 112.25 31.0 127.75 17.05 141.05 0.0 155.95 L0.0 0.0" fill="url(#gradient4)" fill-rule="evenodd" stroke="none"/>
    <path d="M411.95 93.55 Q409.9 88.35 405.35 83.5 401.3 79.25 396.4 76.35 394.55 75.25 392.5 74.4 385.55 71.5 378.25 71.75 372.25 71.9 370.8 73.4 369.85 74.3 370.55 78.65 371.15 82.1 372.25 85.35 372.85 87.0 373.45 91.25 L374.35 99.3 Q374.75 104.25 374.55 105.9 L373.25 111.15 Q372.15 115.4 371.95 118.0 358.9 109.6 350.55 102.7 343.25 92.45 334.65 82.45 309.0 52.85 280.85 36.25 242.75 26.65 222.95 22.2 187.4 14.15 179.75 18.6 176.25 20.65 176.95 24.3 177.45 26.75 180.6 31.7 L186.5 41.3 Q193.9 54.95 190.3 67.3 187.05 78.55 187.65 100.25 188.1 115.95 190.5 135.75 L190.3 139.2 Q190.25 139.95 190.2 138.5 190.2 137.75 179.8 147.7 L177.7 149.75 174.2 143.45 Q173.5 141.55 172.7 137.05 L171.45 129.05 Q170.95 124.75 171.05 123.05 171.35 119.65 170.95 116.15 170.6 111.8 169.35 111.1 167.5 110.05 161.75 111.45 154.65 113.15 148.7 117.75 L145.45 120.65 Q142.4 123.75 140.1 127.45 L139.35 118.2 140.75 117.05 140.6 113.45 138.8 113.55 138.3 109.25 135.8 110.05 135.6 113.65 132.6 114.35 132.3 112.65 132.85 111.05 131.95 110.65 130.4 101.5 131.7 100.25 131.25 96.7 129.45 96.95 128.55 92.7 126.15 93.75 126.25 97.35 113.85 101.85 94.95 92.7 Q107.6 79.15 133.3 49.1 158.1 20.05 164.0 12.05 162.4 10.85 158.55 0.0 L420.0 0.0 420.0 128.25 417.65 126.3 416.95 125.75 Q415.6 124.8 414.7 122.55 413.1 118.55 413.45 112.25 L414.2 104.35 Q414.2 99.35 411.95 93.55" fill="url(#gradient5)" fill-rule="evenodd" stroke="none"/>
    <path d="M417.4 163.7 Q417.75 162.3 417.75 160.75 L420.0 157.7 420.0 210.0 Q419.15 210.7 418.55 211.9 416.8 211.5 414.1 209.95 411.15 208.25 409.75 207.8 408.65 207.45 405.05 207.85 L400.35 208.15 396.85 207.25 393.05 207.35 Q392.35 207.55 391.75 209.25 391.15 210.85 390.0 211.1 389.35 211.25 388.3 210.3 L386.75 209.15 377.1 208.4 383.6 204.25 404.35 175.3 411.85 170.6 Q416.0 167.55 417.4 163.7" fill="url(#gradient6)" fill-rule="evenodd" stroke="none"/>
    <path d="M417.75 217.75 L420.0 217.6 420.0 217.65 417.75 217.75" fill="url(#gradient7)" fill-rule="evenodd" stroke="none"/>
    <path d="M73.45 103.05 L64.9 99.25 74.65 88.5 Q79.4 91.3 83.9 94.65 L73.45 103.05" fill="url(#gradient8)" fill-rule="evenodd" stroke="none"/>
    <path d="M137.55 117.55 L138.55 130.15 Q137.15 132.7 136.2 135.55 L133.3 118.4 137.55 117.55" fill="url(#gradient9)" fill-rule="evenodd" stroke="none"/>
    <path d="M60.85 113.1 L53.75 118.8 55.5 123.1 39.15 129.05 38.9 128.85 51.1 116.75 50.85 114.7 56.9 108.0 57.7 109.85 59.15 108.6 60.85 113.1" fill="url(#gradient10)" fill-rule="evenodd" stroke="none"/>
    <path d="M129.35 121.65 L130.25 119.0 131.55 118.7 135.15 139.7 134.9 141.35 Q134.25 147.55 135.6 152.35 136.35 155.1 138.35 159.75 L138.85 161.55 139.9 167.65 139.85 170.0 Q139.6 172.35 138.5 173.7 L137.2 175.5 122.6 126.85 122.8 126.8 129.35 121.65" fill="url(#gradient11)" fill-rule="evenodd" stroke="none"/>
    <path d="M128.55 101.05 L130.05 109.7 118.85 104.25 128.55 101.05" fill="url(#gradient12)" fill-rule="evenodd" stroke="none"/>
    <path d="M365.25 142.4 Q371.2 142.2 370.35 133.9 L382.65 134.45 Q384.7 138.45 386.8 144.05 388.9 149.55 390.25 154.5 L390.95 156.85 Q390.7 159.1 391.25 161.55 L392.5 165.8 374.35 190.15 357.75 200.1 358.0 198.45 Q366.35 187.0 364.95 174.5 364.5 170.6 363.15 167.05 L361.9 164.3 365.15 159.3 372.75 147.45 Q366.35 146.9 362.1 143.85 L359.15 140.9 361.1 141.7 Q363.4 142.45 365.25 142.4" fill="url(#gradient13)" fill-rule="evenodd" stroke="none"/>
    <path d="M171.8 194.5 Q171.9 183.0 173.8 173.6 L174.15 171.9 Q177.25 177.5 183.25 178.25 188.8 178.95 193.4 175.5 191.85 177.3 190.8 180.05 L189.3 184.3 Q187.55 188.6 182.45 188.1 188.55 195.5 194.45 196.9 L202.3 197.1 Q203.35 206.15 208.65 211.85 211.0 214.4 217.85 218.7 L214.95 219.2 211.45 218.7 208.05 218.5 Q207.15 218.65 205.45 219.8 203.75 220.9 202.5 221.1 L198.75 220.65 195.1 219.75 192.05 219.8 189.15 220.0 183.75 219.35 173.35 213.5 172.65 209.0 Q172.05 206.4 170.75 204.4 171.8 200.25 171.8 194.5" fill="url(#gradient14)" fill-rule="evenodd" stroke="none"/>
    <path d="M155.85 236.7 L158.45 242.5 157.4 242.7 155.65 236.8 155.85 236.7" fill="#96c889" fill-rule="evenodd" stroke="none"/>
    <path d="M151.5 222.7 L151.4 222.7 151.25 222.3 151.45 222.45 151.5 222.7" fill="#96c889" fill-rule="evenodd" stroke="none"/>
    <path d="M160.0 226.2 L161.95 226.2 162.55 226.15 165.95 226.55 Q166.2 230.7 165.35 234.2 L160.15 230.75 Q160.45 228.9 160.0 226.2" fill="#96c889" fill-rule="evenodd" stroke="none"/>
    <path d="M246.8 225.55 L245.45 224.8 244.35 224.4 243.7 223.85 243.95 223.75 246.8 225.55" fill="#96c889" fill-rule="evenodd" stroke="none"/>
    <path d="M161.75 245.4 L160.5 243.3 161.95 242.45 Q164.8 240.35 166.15 236.35 167.85 237.25 168.75 237.35 169.45 237.45 169.45 236.7 169.5 236.0 168.8 235.9 168.1 235.8 166.6 234.95 L166.95 233.45 Q167.55 230.5 167.45 227.1 L194.05 242.5 176.3 243.8 161.75 245.4" fill="#96c889" fill-rule="evenodd" stroke="none"/>
    <path d="M159.85 242.05 L157.8 237.75 157.05 235.9 Q158.8 234.5 159.65 232.6 L159.8 232.25 161.25 233.25 Q163.3 234.7 164.9 235.6 L164.25 237.35 Q162.7 240.65 159.85 242.05" fill="#96c889" fill-rule="evenodd" stroke="none"/>
    <path d="M159.15 243.8 L160.15 245.55 158.35 245.75 157.85 244.1 159.15 243.8" fill="#96c889" fill-rule="evenodd" stroke="none"/>
    <path d="M158.55 231.35 Q158.25 232.9 156.45 234.5 L154.2 229.1 154.75 228.35 158.55 231.35" fill="#96c889" fill-rule="evenodd" stroke="none"/>
    <path d="M158.8 229.75 L154.9 226.6 154.6 225.55 158.55 226.2 158.8 229.75" fill="#96c889" fill-rule="evenodd" stroke="none"/>
    <path d="M214.95 219.2 L217.85 218.7 Q221.25 220.85 222.0 222.45 223.05 224.65 220.9 228.0 L219.3 229.0 219.1 229.15 200.95 229.0 183.75 219.35 189.15 220.0 192.05 219.8 195.1 219.75 198.75 220.65 202.5 221.1 Q203.75 220.9 205.45 219.8 207.15 218.65 208.05 218.5 L211.45 218.7 214.95 219.2" fill="#96c889" fill-rule="evenodd" stroke="none"/>
    <path d="M418.55 211.9 Q419.15 210.7 420.0 210.0 L420.0 217.6 417.0 217.8 387.35 219.65 355.7 224.05 Q362.0 220.15 367.35 216.4 L365.85 215.6 377.1 208.4 386.75 209.15 388.3 210.3 Q389.35 211.25 390.0 211.1 391.15 210.85 391.75 209.25 392.35 207.55 393.05 207.35 L396.85 207.25 400.35 208.15 405.05 207.85 Q408.65 207.45 409.75 207.8 411.15 208.25 414.1 209.95 416.8 211.5 418.55 211.9" fill="#96c889" fill-rule="evenodd" stroke="none"/>
    <path d="M43.25 230.0 Q45.75 230.1 47.5 231.85 49.55 233.9 50.45 234.2 L53.85 234.35 57.4 233.3 59.3 232.85 57.6 258.8 Q44.8 259.95 0.0 267.15 L0.0 244.8 2.7 244.7 6.5 243.6 Q9.0 242.85 10.7 242.85 L12.2 241.05 13.8 242.85 Q15.05 239.8 12.9 236.1 13.8 236.65 15.2 238.9 16.65 241.2 17.85 242.0 19.75 240.4 22.6 241.05 25.6 241.7 27.15 240.5 L27.15 239.7 27.1 238.9 Q41.0 238.0 39.7 234.8 42.7 232.85 43.25 230.0" fill="#96c889" fill-rule="evenodd" stroke="none"/>
    <path d="M40.85 130.3 L61.55 145.9 63.75 151.65 37.3 131.5 35.7 132.05 38.9 128.85 39.15 129.05 55.5 123.1 56.35 125.15 40.85 130.3" fill="#788086" fill-rule="evenodd" stroke="none"/>
    <path d="M126.25 97.35 L126.15 93.75 128.55 92.7 129.45 96.95 131.25 96.7 131.7 100.25 130.4 101.5 131.95 110.65 130.05 109.7 128.55 101.05 118.85 104.25 113.85 101.85 126.25 97.35" fill="#788086" fill-rule="evenodd" stroke="none"/>
    <path d="M70.5 126.3 L67.85 119.65 Q73.1 116.6 79.35 115.0 L81.25 114.55 81.3 114.55 87.35 113.25 Q93.15 112.15 97.95 111.9 L99.5 111.85 100.35 111.8 105.85 111.9 106.0 111.95 106.9 112.0 107.7 112.1 107.75 112.1 109.5 112.3 109.65 112.3 110.35 112.45 110.55 112.45 111.2 112.6 111.45 112.6 114.0 113.2 114.05 113.2 115.6 113.65 115.85 113.7 116.45 113.9 116.7 113.95 117.3 114.15 117.5 114.25 120.65 115.55 120.95 115.65 123.25 116.85 126.2 118.8 126.45 118.95 127.15 119.5 129.55 121.15 129.35 121.65 122.8 126.8 122.6 126.85 121.25 122.2 Q119.35 120.85 114.75 120.35 110.45 119.85 104.4 120.1 95.45 120.45 85.95 122.15 76.15 123.9 70.5 126.3" fill="#a5a37a" fill-rule="evenodd" stroke="none"/>
    <path d="M83.9 94.65 L84.1 94.8 Q81.65 98.55 81.2 102.2 80.7 106.35 82.8 110.05 83.9 112.05 87.35 113.25 L81.3 114.55 81.25 114.55 79.35 115.0 Q73.1 116.6 67.85 119.65 L64.2 110.45 66.15 108.9 73.9 110.75 75.7 107.55 74.35 103.45 73.45 103.05 83.9 94.65" fill="#86a5ba" fill-rule="evenodd" stroke="none"/>
    <path d="M57.3 127.55 L53.75 118.8 60.85 113.1 63.65 120.4 Q60.25 124.8 57.3 127.55" fill="#86a5ba" fill-rule="evenodd" stroke="none"/>
    <path d="M84.1 94.8 Q87.25 97.2 88.85 98.85 L94.95 92.7 132.85 111.05 129.55 121.15 127.15 119.5 126.45 118.95 126.2 118.8 123.25 116.85 120.95 115.65 120.65 115.55 119.1 114.85 117.5 114.25 117.3 114.15 116.7 113.95 116.45 113.9 115.85 113.7 115.6 113.65 114.05 113.2 114.0 113.2 111.45 112.6 111.2 112.6 110.55 112.45 110.35 112.45 109.65 112.3 109.5 112.3 107.75 112.1 107.7 112.1 106.9 112.0 106.0 111.95 105.85 111.9 100.35 111.8 99.5 111.85 97.95 111.9 Q93.15 112.15 87.35 113.25 83.9 112.05 82.8 110.05 80.7 106.35 81.2 102.2 81.65 98.55 84.1 94.8" fill="#bdd4e8" fill-rule="evenodd" stroke="none"/>
    <path d="M135.8 110.05 L138.3 109.25 138.8 113.55 140.6 113.45 140.75 117.05 139.35 118.2 140.1 127.45 138.55 130.15 137.55 117.55 133.3 118.4 136.2 135.55 Q135.55 137.55 135.15 139.7 L131.55 118.7 130.25 119.0 132.3 112.65 132.6 114.35 135.6 113.65 135.8 110.05" fill="#788086" fill-rule="evenodd" stroke="none"/>
    <path d="M148.9 209.1 Q148.5 210.25 148.2 212.1 L146.85 207.65 148.9 209.1" fill="#788086" fill-rule="evenodd" stroke="none"/>
    <path d="M138.85 161.55 Q139.85 164.8 139.9 167.65 L138.85 161.55" fill="#788086" fill-rule="evenodd" stroke="none"/>
    <path d="M159.8 232.25 L159.65 232.6 Q158.8 234.5 157.05 235.9 L157.8 237.75 159.85 242.05 Q162.7 240.65 164.25 237.35 L164.9 235.6 Q163.3 234.7 161.25 233.25 L159.8 232.25 M154.2 229.1 L156.45 234.5 Q158.25 232.9 158.55 231.35 L154.75 228.35 154.2 229.1 M154.6 225.55 L154.9 226.6 158.8 229.75 158.55 226.2 154.6 225.55 M151.4 222.7 L151.5 222.7 151.45 222.45 Q153.6 224.2 156.7 225.1 L162.55 226.15 161.95 226.2 160.0 226.2 Q160.45 228.9 160.15 230.75 L165.35 234.2 Q166.2 230.7 165.95 226.55 L166.65 226.65 167.45 227.1 Q167.55 230.5 166.95 233.45 L166.6 234.95 Q168.1 235.8 168.8 235.9 169.5 236.0 169.45 236.7 169.45 237.45 168.75 237.35 167.85 237.25 166.15 236.35 164.8 240.35 161.95 242.45 L160.5 243.3 161.75 245.4 160.15 245.55 159.15 243.8 157.85 244.1 157.4 242.7 158.45 242.5 155.85 236.7 155.65 236.8 155.2 235.4 155.25 235.4 151.4 222.7" fill="#788086" fill-rule="evenodd" stroke="none"/>
    <path d="M94.05 252.25 L95.35 252.3 94.25 252.55 75.15 256.55 Q64.7 258.6 60.95 258.6 L57.6 258.8 64.5 153.7 Q74.9 181.65 82.85 207.55 L88.55 248.6 89.25 248.55 89.35 249.35 89.45 249.95 90.05 249.85 90.85 249.75 90.95 250.5 91.65 250.4 91.75 251.1 Q92.2 250.8 92.85 251.35 93.55 251.85 93.95 251.55 L94.05 252.25" fill="#bebe8b" fill-rule="evenodd" stroke="none"/>
    <path d="M80.55 130.3 L80.65 131.0 Q79.95 130.85 79.25 131.4 78.4 132.05 77.9 132.1 L78.0 132.8 77.3 132.9 Q77.0 133.65 77.45 134.3 L78.15 134.2 Q78.9 137.15 79.0 140.6 L78.3 140.7 78.75 143.65 Q79.1 145.45 78.8 146.45 78.65 146.6 78.65 146.9 L70.5 126.3 Q76.15 123.9 85.95 122.15 95.45 120.45 104.4 120.1 103.0 120.9 101.8 121.05 101.55 121.1 101.2 121.85 L99.05 122.15 98.45 122.95 96.3 123.2 95.65 124.0 94.6 124.05 93.55 124.3 93.65 125.0 92.65 125.15 Q92.05 125.25 91.55 125.75 L90.6 126.15 89.45 126.25 88.85 127.05 87.3 127.3 Q86.35 127.35 86.0 127.65 85.6 128.0 85.0 128.15 L83.95 128.4 83.3 129.2 82.6 129.2 81.9 129.4 82.0 130.1 81.3 130.2 80.55 130.3" fill="#bebe8b" fill-rule="evenodd" stroke="none"/>
    <path d="M130.95 184.6 Q130.65 182.25 128.55 182.0 126.5 181.8 126.9 185.1 127.5 189.85 128.95 193.3 L133.0 193.25 Q131.3 187.45 130.95 184.6 M94.5 157.95 L100.2 157.45 99.7 151.5 Q99.5 150.0 98.55 149.0 97.55 147.9 96.35 148.05 94.75 148.25 94.25 148.7 93.4 149.4 93.65 151.3 L94.5 157.95 M78.15 134.2 L77.45 134.3 Q77.0 133.65 77.3 132.9 L78.0 132.8 77.9 132.1 Q78.4 132.05 79.25 131.4 79.95 130.85 80.65 131.0 L80.55 130.3 81.3 130.2 82.0 130.1 81.9 129.4 82.6 129.2 83.3 129.2 83.95 128.4 85.0 128.15 Q85.6 128.0 86.0 127.65 86.35 127.35 87.3 127.3 L88.85 127.05 89.45 126.25 90.6 126.15 91.55 125.75 Q92.05 125.25 92.65 125.15 L93.65 125.0 93.55 124.3 94.6 124.05 95.65 124.0 96.3 123.2 98.45 122.95 99.05 122.15 101.2 121.85 Q101.55 121.1 101.8 121.05 103.0 120.9 104.4 120.1 110.45 119.85 114.75 120.35 119.35 120.85 121.25 122.2 L137.2 175.5 135.25 178.65 Q134.8 182.4 135.3 188.05 135.9 194.6 137.45 197.85 138.3 199.65 140.8 202.35 143.5 205.2 146.85 207.65 L148.2 212.1 Q147.45 217.7 150.5 221.6 L151.25 222.3 151.4 222.7 155.1 234.95 155.2 235.4 158.35 245.75 Q118.55 249.9 111.85 249.65 109.25 249.6 102.15 250.95 L95.35 252.3 94.05 252.25 93.95 251.55 Q93.55 251.85 92.85 251.35 92.2 250.8 91.75 251.1 L91.65 250.4 90.95 250.5 90.85 249.75 90.05 249.85 89.45 249.95 89.35 249.35 89.25 248.55 88.55 248.6 82.85 207.55 Q87.3 222.0 87.85 226.3 92.8 217.55 99.0 213.15 L99.95 215.6 104.3 211.65 78.65 146.9 Q78.65 146.6 78.8 146.45 79.1 145.45 78.75 143.65 L78.3 140.7 79.0 140.6 Q78.9 137.15 78.15 134.2" fill="#e1e1ab" fill-rule="evenodd" stroke="none"/>
    <path d="M22.9 6.05 Q26.2 5.65 27.45 4.05 L29.75 0.0 34.7 0.0 Q53.5 34.45 58.15 47.85 63.5 63.05 68.1 80.3 L64.65 78.35 Q60.95 76.7 59.6 78.05 57.7 80.1 55.25 87.85 L22.9 6.05" fill="#dbc3b8" fill-rule="evenodd" stroke="none"/>
    <path d="M155.2 0.0 L158.55 0.0 Q162.4 10.85 164.0 12.05 158.1 20.05 133.3 49.1 107.6 79.15 94.95 92.7 L88.85 98.85 Q87.25 97.2 84.1 94.8 L83.9 94.65 Q79.4 91.3 74.65 88.5 L155.2 0.0" fill="#dbc3b8" fill-rule="evenodd" stroke="none"/>
    <path d="M50.35 107.2 L50.35 109.05 0.0 165.1 0.0 155.95 Q17.05 141.05 31.0 127.75 47.25 112.25 50.35 107.2" fill="#8d6e62" fill-rule="evenodd" stroke="none"/>
    <path d="M50.85 114.7 L51.1 116.75 28.75 138.95 50.85 114.7" fill="#8d6e62" fill-rule="evenodd" stroke="none"/>
    <path d="M61.55 145.9 Q57.3 134.65 54.75 129.55 L57.3 127.55 Q60.25 124.8 63.65 120.4 L99.0 213.15 Q92.8 217.55 87.85 226.3 87.3 222.0 82.85 207.55 74.9 181.65 64.5 153.7 L61.55 145.9" fill="#8d6e62" fill-rule="evenodd" stroke="none"/>
    <path d="M148.35 0.0 L155.2 0.0 70.85 92.7 68.9 88.4 148.35 0.0" fill="#453f2f" fill-rule="evenodd" stroke="none"/>
    <path d="M48.7 110.85 L50.4 115.15 0.0 170.6 0.0 165.1 48.7 110.85" fill="#453f2f" fill-rule="evenodd" stroke="none"/>
    <path d="M48.7 110.85 L55.1 103.75 56.9 108.0 50.4 115.15 48.7 110.85" fill="#c5beb3" fill-rule="evenodd" stroke="none"/>
    <path d="M61.05 97.15 L68.9 88.4 70.85 92.7 64.9 99.25 74.35 103.45 75.7 107.55 73.9 110.75 63.35 108.25 62.35 105.75 64.4 103.95 61.05 97.15" fill="#c5beb3" fill-rule="evenodd" stroke="none"/>
    <path d="M20.7 7.8 L22.9 6.05 56.6 91.25 Q55.15 92.85 53.85 94.75 L20.7 7.8" fill="#453f2f" fill-rule="evenodd" stroke="none"/>
    <path d="M56.6 91.25 L58.8 96.75 55.85 99.9 53.85 94.75 Q55.15 92.85 56.6 91.25" fill="#d8d2c8" fill-rule="evenodd" stroke="none"/>
    <path d="M62.35 105.75 L65.1 112.65 Q63.4 114.85 62.3 116.9 L59.15 108.6 62.35 105.75" fill="#d8d2c8" fill-rule="evenodd" stroke="none"/>
    <path d="M62.3 116.9 Q63.4 114.85 65.1 112.65 L104.3 211.65 99.95 215.6 62.3 116.9" fill="#453f2f" fill-rule="evenodd" stroke="none"/>
    <path d="M98.55 149.0 Q99.5 150.0 99.7 151.5 L100.2 157.45 94.5 157.95 93.65 151.3 Q93.4 149.4 94.25 148.7 94.75 148.25 96.35 148.05 97.55 147.9 98.55 149.0" fill="#bebe8b" fill-rule="evenodd" stroke="none"/>
    <path d="M128.95 193.3 Q127.5 189.85 126.9 185.1 126.5 181.8 128.55 182.0 130.65 182.25 130.95 184.6 131.3 187.45 133.0 193.25 L128.95 193.3" fill="#bebe8b" fill-rule="evenodd" stroke="none"/>
    <path d="M57.7 109.85 L54.2 101.65 60.15 95.3 64.4 103.95 57.7 109.85 M57.35 101.4 Q56.95 102.1 57.05 102.95 57.15 103.85 57.7 104.4 58.25 105.0 58.95 104.9 59.65 104.8 60.05 104.1 60.45 103.4 60.35 102.55 60.25 101.65 59.7 101.1 59.15 100.55 58.45 100.6 57.75 100.7 57.35 101.4" fill="#966061" fill-rule="evenodd" stroke="none"/>
    <path d="M58.95 104.9 Q58.25 105.0 57.7 104.4 57.15 103.85 57.05 102.95 56.95 102.1 57.35 101.4 57.75 100.7 58.45 100.6 59.15 100.55 59.7 101.1 60.25 101.65 60.35 102.55 60.45 103.4 60.05 104.1 59.65 104.8 58.95 104.9" fill="#794647" fill-rule="evenodd" stroke="none"/>
    <path d="M94.25 252.55 L93.8 253.05 92.75 253.3 Q92.05 253.4 91.7 253.7 91.45 254.0 90.75 254.0 L89.6 254.1 89.65 254.8 88.6 254.9 87.55 255.0 87.6 255.7 86.2 255.8 84.75 255.9 84.8 256.6 83.05 256.75 81.3 256.9 Q81.15 256.9 80.95 257.2 L80.65 257.65 78.5 257.8 77.85 258.6 Q76.25 258.95 75.8 259.2 L73.35 259.95 Q71.9 260.45 70.95 261.25 L69.9 261.4 68.85 261.4 68.5 261.9 68.2 262.2 66.9 262.5 66.1 262.8 63.0 264.1 42.25 265.7 20.95 267.55 0.0 270.6 0.0 267.15 Q44.8 259.95 57.6 258.8 L60.95 258.6 Q64.7 258.6 75.15 256.55 L94.25 252.55" fill="#95a903" fill-rule="evenodd" stroke="none"/>
    <path d="M102.15 250.95 Q109.25 249.6 111.85 249.65 118.55 249.9 158.35 245.75 L176.3 243.8 194.05 242.5 196.45 243.9 219.85 249.45 219.8 249.6 207.5 250.5 177.35 252.2 147.3 253.5 Q111.45 255.3 87.85 260.0 74.55 262.7 63.0 264.1 L66.1 262.8 66.9 262.5 68.2 262.2 68.5 261.9 68.85 261.4 69.9 261.4 70.95 261.25 Q71.9 260.45 73.35 259.95 L75.8 259.2 Q76.25 258.95 77.85 258.6 L78.5 257.8 80.65 257.65 80.95 257.2 Q81.15 256.9 81.3 256.9 L83.05 256.75 84.8 256.6 84.75 255.9 86.2 255.8 87.6 255.7 87.55 255.0 88.6 254.9 89.65 254.8 89.6 254.1 90.75 254.0 Q91.45 254.0 91.7 253.7 92.05 253.4 92.75 253.3 L93.8 253.05 94.25 252.55 102.15 250.95" fill="#b6dc11" fill-rule="evenodd" stroke="none"/>
    <path d="M417.0 217.8 L420.0 217.65 420.0 224.55 Q415.45 225.45 409.65 227.7 399.05 231.6 380.55 232.7 358.4 234.0 351.2 235.5 L334.55 238.7 333.0 234.25 Q338.3 233.25 342.35 231.5 347.1 229.45 355.7 224.05 L387.35 219.65 417.0 217.8" fill="#b6dc11" fill-rule="evenodd" stroke="none"/>
    <path d="M40.3 296.35 L40.3 295.3 40.1 294.3 40.25 296.35 40.3 296.35 M0.0 276.1 Q3.25 279.9 10.05 280.25 10.6 280.25 11.35 279.25 12.15 278.2 12.45 278.1 13.9 278.0 15.05 279.65 L16.9 282.6 Q17.15 283.1 18.0 282.45 18.85 281.85 19.05 282.15 L20.45 283.8 Q21.2 284.65 22.3 284.0 L24.25 282.85 Q24.6 284.4 25.85 284.95 27.1 285.5 28.75 284.95 L29.2 285.45 29.45 286.15 33.15 286.65 Q35.0 287.2 35.6 289.45 35.75 290.05 37.6 289.8 L40.3 289.95 Q42.3 291.8 47.25 292.2 52.1 292.55 54.0 294.45 54.45 294.7 54.3 295.55 L54.0 297.05 Q56.95 296.6 58.75 297.95 59.4 298.5 59.6 300.0 L0.0 300.0 0.0 276.1" fill="#c74545" fill-rule="evenodd" stroke="none"/>
    <path d="M87.9 280.65 Q89.65 283.85 85.5 283.65 81.4 283.4 77.25 280.2 75.85 281.0 75.1 281.85 L72.4 282.0 Q71.95 282.2 71.0 283.75 66.4 284.05 67.0 280.2 L67.6 277.1 Q67.75 275.5 66.9 274.95 64.1 276.1 61.55 279.8 L60.3 278.7 59.05 277.3 Q56.75 280.6 51.9 281.5 L51.55 280.35 Q51.25 279.7 51.5 279.0 L49.0 278.25 47.0 277.15 Q44.5 277.95 39.2 277.9 L30.75 277.85 34.65 278.45 Q37.7 279.1 39.3 279.9 L37.45 279.55 39.45 283.85 Q40.1 284.0 43.3 282.1 46.3 280.3 46.85 280.9 44.4 284.4 46.65 285.65 48.25 286.55 53.35 286.55 L61.75 286.7 Q66.0 287.1 66.6 289.05 67.65 292.4 70.2 292.7 71.8 292.9 76.8 292.6 L83.25 291.7 Q87.25 290.95 89.65 292.15 L88.45 293.25 87.15 294.4 Q90.6 295.5 97.1 296.3 L107.6 297.15 108.0 296.15 108.4 295.1 Q112.85 293.95 114.7 300.0 L59.6 300.0 Q59.4 298.5 58.75 297.95 56.95 296.6 54.0 297.05 L54.3 295.55 Q54.45 294.7 54.0 294.45 52.1 292.55 47.25 292.2 42.3 291.8 40.3 289.95 L37.6 289.8 Q35.75 290.05 35.6 289.45 35.0 287.2 33.15 286.65 L29.45 286.15 29.2 285.45 28.75 284.95 Q27.1 285.5 25.85 284.95 24.6 284.4 24.25 282.85 L22.3 284.0 Q21.2 284.65 20.45 283.8 L19.05 282.15 Q18.85 281.85 18.0 282.45 17.15 283.1 16.9 282.6 L15.05 279.65 Q13.9 278.0 12.45 278.1 12.15 278.2 11.35 279.25 10.6 280.25 10.05 280.25 3.25 279.9 0.0 276.1 L0.0 270.6 20.95 267.55 42.25 265.7 63.0 264.1 Q74.55 262.7 87.85 260.0 111.45 255.3 147.3 253.5 L177.35 252.2 207.5 250.5 219.8 249.6 219.6 249.95 224.6 251.1 235.65 253.2 239.6 254.15 239.5 253.7 245.15 254.15 Q249.05 254.2 253.6 253.25 255.35 262.1 256.0 269.95 237.8 268.85 223.9 271.35 216.9 272.6 205.4 272.55 191.15 272.55 187.0 272.85 L170.7 274.5 154.4 276.15 Q135.85 272.8 132.9 272.55 120.35 271.4 112.5 275.25 111.4 275.05 110.35 274.5 L107.8 278.25 Q110.1 276.4 112.5 275.25 L121.55 274.8 Q128.45 273.5 130.9 273.6 133.7 273.75 140.1 275.25 145.85 276.6 149.65 276.45 L154.4 276.15 163.9 277.45 180.75 276.85 197.9 275.5 Q202.6 275.4 216.5 277.45 L234.9 278.15 Q236.25 277.95 238.1 276.7 239.65 275.7 241.3 275.85 242.0 275.9 244.45 277.15 247.1 278.55 247.9 278.75 252.05 279.85 256.45 280.2 L256.2 286.75 Q252.25 287.85 243.95 291.45 234.95 295.4 226.3 300.0 L183.0 300.0 204.4 297.8 225.5 296.7 Q224.05 295.9 220.15 295.2 L213.3 293.9 Q205.05 292.0 206.45 288.0 202.05 286.7 190.65 288.15 178.95 289.6 184.85 290.15 187.6 290.4 184.4 291.85 181.3 293.3 176.6 294.25 L168.95 294.45 Q166.1 293.45 169.0 289.8 166.0 288.15 161.05 287.7 L152.45 287.25 Q151.65 287.2 149.85 289.7 148.05 292.2 147.3 292.25 146.6 292.3 145.5 289.75 144.35 287.2 143.8 287.25 142.35 287.35 137.8 290.2 133.75 292.7 131.6 292.05 L125.85 288.7 Q122.4 286.6 119.2 288.05 117.15 289.5 116.9 289.1 116.0 287.65 111.3 285.65 110.45 287.7 108.0 288.05 105.7 288.4 103.5 287.15 105.2 285.85 105.75 283.95 106.3 282.2 105.75 280.25 103.8 283.65 99.3 284.85 94.5 286.15 94.3 281.55 90.6 282.4 87.9 280.65 87.3 279.55 85.75 278.05 86.35 279.65 87.9 280.65" fill="#e55756" fill-rule="evenodd" stroke="none"/>
    <path d="M409.65 227.7 Q415.45 225.45 420.0 224.55 L420.0 286.6 414.9 285.3 Q410.7 282.5 404.65 280.3 404.1 279.95 402.3 279.45 L401.9 279.35 Q384.7 273.9 355.55 273.75 349.0 265.9 343.35 256.45 337.75 247.05 334.55 238.7 L351.2 235.5 Q358.4 234.0 380.55 232.7 399.05 231.6 409.65 227.7" fill="#e55756" fill-rule="evenodd" stroke="none"/>
    <path d="M87.9 280.65 Q86.35 279.65 85.75 278.05 87.3 279.55 87.9 280.65" fill="#faef8a" fill-rule="evenodd" stroke="none"/>
    <path d="M97.1 296.3 Q90.6 295.5 87.15 294.4 L88.45 293.25 89.65 292.15 Q87.25 290.95 83.25 291.7 L76.8 292.6 Q71.8 292.9 70.2 292.7 67.65 292.4 66.6 289.05 66.0 287.1 61.75 286.7 L53.35 286.55 Q48.25 286.55 46.65 285.65 44.4 284.4 46.85 280.9 46.3 280.3 43.3 282.1 40.1 284.0 39.45 283.85 L37.45 279.55 39.3 279.9 Q37.7 279.1 34.65 278.45 L30.75 277.85 39.2 277.9 Q44.5 277.95 47.0 277.15 L49.0 278.25 51.5 279.0 Q51.25 279.7 51.55 280.35 L51.9 281.5 Q56.75 280.6 59.05 277.3 L60.3 278.7 61.55 279.8 Q64.1 276.1 66.9 274.95 67.75 275.5 67.6 277.1 L67.0 280.2 Q66.4 284.05 71.0 283.75 71.95 282.2 72.4 282.0 L75.1 281.85 Q75.85 281.0 77.25 280.2 81.4 283.4 85.5 283.65 89.65 283.85 87.9 280.65 90.6 282.4 94.3 281.55 94.5 286.15 99.3 284.85 103.8 283.65 105.75 280.25 106.3 282.2 105.75 283.95 105.2 285.85 103.5 287.15 105.7 288.4 108.0 288.05 110.45 287.7 111.3 285.65 116.0 287.65 116.9 289.1 117.15 289.5 119.2 288.05 122.4 286.6 125.85 288.7 L131.6 292.05 Q133.75 292.7 137.8 290.2 142.35 287.35 143.8 287.25 144.35 287.2 145.5 289.75 146.6 292.3 147.3 292.25 148.05 292.2 149.85 289.7 151.65 287.2 152.45 287.25 L161.05 287.7 Q166.0 288.15 169.0 289.8 166.1 293.45 168.95 294.45 L176.6 294.25 Q181.3 293.3 184.4 291.85 187.6 290.4 184.85 290.15 178.95 289.6 190.65 288.15 202.05 286.7 206.45 288.0 205.05 292.0 213.3 293.9 L220.15 295.2 Q224.05 295.9 225.5 296.7 L204.4 297.8 183.0 300.0 114.7 300.0 Q112.85 293.95 108.4 295.1 L108.0 296.15 107.6 297.15 97.1 296.3" fill="#faef8a" fill-rule="evenodd" stroke="none"/>
    <path d="M420.0 289.3 Q417.65 287.1 414.9 285.3 L420.0 286.6 420.0 289.3" fill="#c74545" fill-rule="evenodd" stroke="none"/>
    <path d="M256.0 269.95 L256.45 280.2 Q252.05 279.85 247.9 278.75 247.1 278.55 244.45 277.15 242.0 275.9 241.3 275.85 239.65 275.7 238.1 276.7 236.25 277.95 234.9 278.15 L216.5 277.45 Q202.6 275.4 197.9 275.5 L180.75 276.85 163.9 277.45 154.4 276.15 170.7 274.5 187.0 272.85 Q191.15 272.55 205.4 272.55 216.9 272.6 223.9 271.35 237.8 268.85 256.0 269.95" fill="#c74545" fill-rule="evenodd" stroke="none"/>
    <path d="M132.9 272.55 Q135.85 272.8 154.4 276.15 L149.65 276.45 Q145.85 276.6 140.1 275.25 133.7 273.75 130.9 273.6 128.45 273.5 121.55 274.8 L112.5 275.25 Q120.35 271.4 132.9 272.55" fill="#c74545" fill-rule="evenodd" stroke="none"/>
    <path d="M107.8 278.25 L110.35 274.5 Q111.4 275.05 112.5 275.25 110.1 276.4 107.8 278.25" fill="#c74545" fill-rule="evenodd" stroke="none"/>
    <path d="M370.35 133.9 Q371.2 142.2 365.25 142.4 363.4 142.45 361.1 141.7 L359.15 140.9 362.1 143.85 Q366.35 146.9 372.75 147.45 L365.15 159.3 361.9 164.3 363.15 167.05 Q364.5 170.6 364.95 174.5 366.35 187.0 358.0 198.45 L358.05 198.15 352.75 196.9 Q346.75 195.7 343.3 196.0 340.0 196.3 334.5 200.55 L331.75 202.85 Q331.6 201.75 330.95 201.85 L334.35 196.1 Q339.15 187.6 341.75 180.7 L341.9 181.2 Q345.6 177.35 347.55 172.95 349.85 167.7 348.8 163.45 347.85 159.65 344.8 157.05 341.95 154.55 337.8 153.55 335.7 148.1 333.6 143.5 329.45 134.4 324.4 126.75 L319.55 119.95 321.5 117.7 Q323.55 114.4 323.85 109.25 319.7 110.75 310.8 109.85 L297.0 109.05 Q298.15 107.25 298.55 102.55 298.85 98.7 298.6 94.4 310.1 98.65 323.05 107.2 328.3 110.65 344.5 122.6 L349.05 125.65 Q359.3 132.05 370.35 133.9" fill="#363e48" fill-rule="evenodd" stroke="none"/>
    <path d="M281.95 98.8 Q282.3 96.15 280.75 91.1 277.7 95.9 269.0 103.35 L260.95 109.8 Q256.35 110.2 250.0 109.55 237.2 108.2 228.2 103.0 229.25 105.6 233.3 109.4 L239.7 115.05 225.75 119.65 Q217.9 121.6 213.5 119.4 214.7 120.95 216.55 127.8 218.2 133.95 220.45 135.55 219.15 137.75 217.0 139.9 212.7 144.2 208.5 144.05 L216.15 148.25 Q215.65 152.2 215.5 154.4 214.9 162.65 215.75 172.65 L216.75 181.3 Q213.0 184.25 211.35 188.0 209.55 192.0 210.55 196.1 211.6 200.35 216.05 203.9 219.85 206.9 224.9 208.6 L224.8 208.25 Q228.65 212.2 233.85 216.4 238.95 220.55 243.95 223.75 L243.7 223.85 Q242.6 223.15 241.8 223.65 236.8 222.25 233.2 222.45 L231.0 222.85 Q226.95 224.15 220.9 228.0 223.05 224.65 222.0 222.45 221.25 220.85 217.85 218.7 211.0 214.4 208.65 211.85 203.35 206.15 202.3 197.1 L194.45 196.9 Q188.55 195.5 182.45 188.1 187.55 188.6 189.3 184.3 L190.8 180.05 Q191.85 177.3 193.4 175.5 188.8 178.95 183.25 178.25 177.25 177.5 174.15 171.9 174.8 169.35 175.4 168.1 L176.1 166.65 191.4 164.15 Q198.7 162.4 200.05 158.35 L204.75 140.4 Q208.1 127.65 212.85 119.25 224.35 98.85 249.2 92.25 273.85 85.65 297.25 93.9 295.25 95.35 289.25 96.85 L281.95 98.8" fill="#363e48" fill-rule="evenodd" stroke="none"/>
    <path d="M210.55 196.1 Q209.55 192.0 211.35 188.0 213.0 184.25 216.75 181.3 217.8 189.3 220.05 200.8 L220.5 203.3 Q222.4 205.8 224.8 208.25 L224.9 208.6 Q219.85 206.9 216.05 203.9 211.6 200.35 210.55 196.1" fill="#e5be97" fill-rule="evenodd" stroke="none"/>
    <path d="M344.1 172.4 L343.5 170.4 Q340.75 161.45 337.8 153.55 341.95 154.55 344.8 157.05 347.85 159.65 348.8 163.45 349.85 167.7 347.55 172.95 345.6 177.35 341.9 181.2 L341.75 180.7 Q343.6 175.75 344.1 172.4" fill="#e5be97" fill-rule="evenodd" stroke="none"/>
    <path d="M330.95 201.85 Q330.4 201.95 329.9 202.85 329.3 203.85 329.05 205.35 L328.6 206.2 328.1 207.1 Q327.2 210.0 324.05 213.6 319.85 218.6 311.3 225.15 309.15 226.55 306.35 228.75 L296.8 235.15 292.7 237.65 Q283.8 236.6 273.85 234.65 L273.2 233.9 263.9 231.95 258.9 230.7 259.4 231.2 Q255.5 230.0 252.8 228.8 L249.85 227.25 248.85 226.55 246.95 225.6 246.9 225.6 243.95 223.75 Q238.95 220.55 233.85 216.4 228.65 212.2 224.8 208.25 222.4 205.8 220.5 203.3 L220.05 200.8 Q217.8 189.3 216.75 181.3 L215.75 172.65 Q214.9 162.65 215.5 154.4 L216.85 165.5 217.65 169.9 217.65 170.0 218.6 174.1 218.6 174.15 220.05 179.25 220.05 179.3 221.15 182.6 223.1 187.65 228.7 198.35 232.25 203.4 Q240.55 214.75 256.05 218.8 268.95 222.15 284.9 220.2 310.6 217.05 334.35 196.1 L330.95 201.85" fill="#e5be97" fill-rule="evenodd" stroke="none"/>
    <path d="M288.0 197.65 L286.15 197.75 Q285.1 197.95 284.45 198.4 283.85 198.8 283.95 199.2 284.05 199.6 284.85 199.7 L286.7 199.55 288.35 198.9 Q289.0 198.5 288.9 198.1 288.8 197.75 288.0 197.65 M264.15 172.35 Q265.0 172.0 264.8 171.6 L263.8 171.5 Q259.55 173.25 259.5 175.95 259.45 177.35 260.75 178.0 261.9 178.6 263.6 178.45 265.15 178.35 267.15 177.55 L271.85 184.4 276.55 191.25 Q278.8 194.25 280.35 195.45 283.2 197.6 285.8 196.15 287.8 195.05 289.3 191.9 290.75 189.05 291.85 184.5 292.7 180.75 293.25 175.05 293.75 169.7 293.5 168.0 286.85 168.8 278.65 171.4 271.7 173.55 267.8 175.5 262.85 178.05 261.5 176.45 260.85 175.6 262.1 174.05 263.15 172.75 264.15 172.35 M278.1 158.95 Q276.25 158.0 274.1 158.55 271.95 159.1 270.7 160.75 269.5 162.45 269.95 164.3 270.45 166.15 272.3 167.1 274.1 168.05 276.3 167.5 278.45 167.0 279.65 165.3 280.85 163.6 280.4 161.75 279.95 159.9 278.1 158.95 M315.25 147.9 Q314.85 146.3 313.35 145.45 311.9 144.65 310.15 145.05 308.45 145.45 307.55 146.9 306.6 148.35 307.0 149.95 307.4 151.55 308.85 152.35 310.35 153.2 312.05 152.8 313.75 152.4 314.7 150.95 315.65 149.5 315.25 147.9 M242.9 178.45 Q242.55 176.95 239.9 176.5 L233.85 176.85 Q230.5 177.7 228.4 179.3 226.3 180.95 226.65 182.45 227.0 183.95 229.65 184.4 L235.65 184.05 Q239.05 183.25 241.15 181.6 243.3 179.95 242.9 178.45 M237.15 163.05 Q235.45 163.45 234.5 164.9 233.55 166.3 233.95 167.9 234.35 169.5 235.85 170.35 237.35 171.2 239.05 170.8 240.75 170.35 241.7 168.95 242.6 167.5 242.2 165.9 241.85 164.3 240.35 163.45 238.85 162.65 237.15 163.05 M329.65 157.1 Q329.3 155.6 326.65 155.1 L320.6 155.45 Q317.25 156.25 315.1 157.95 313.0 159.6 313.35 161.1 313.75 162.6 316.4 163.05 L322.4 162.7 Q325.75 161.9 327.9 160.2 330.05 158.55 329.65 157.1 M324.4 126.75 Q329.45 134.4 333.6 143.5 335.7 148.1 337.8 153.55 340.75 161.45 343.5 170.4 L344.1 172.4 Q343.6 175.75 341.75 180.7 339.15 187.6 334.35 196.1 310.6 217.05 284.9 220.2 268.95 222.15 256.05 218.8 240.55 214.75 232.25 203.4 L228.7 198.35 225.05 191.9 223.1 187.65 221.15 182.6 220.05 179.3 220.05 179.25 218.6 174.15 218.6 174.1 217.65 170.0 217.65 169.9 216.85 165.5 215.95 159.25 Q217.65 155.15 221.15 152.05 L231.95 142.3 Q234.3 142.05 235.7 142.25 235.2 141.05 234.4 140.2 242.1 133.7 248.6 130.0 256.7 125.4 265.1 123.7 287.05 119.35 302.15 120.7 299.9 122.7 300.05 126.4 302.4 124.75 306.45 123.7 310.4 122.65 311.55 123.3 L311.5 122.2 Q318.25 123.7 324.4 126.75" fill="#ffdbb3" fill-rule="evenodd" stroke="none"/>
    <path d="M274.7 164.65 Q273.8 164.9 273.0 164.4 272.2 163.9 271.95 162.95 271.75 162.05 272.2 161.25 272.7 160.45 273.65 160.2 L275.35 160.45 Q276.2 160.95 276.4 161.85 276.65 162.8 276.15 163.6 275.65 164.45 274.7 164.65" fill="#ffdbb3" fill-rule="evenodd" stroke="none"/>
    <path d="M280.75 91.1 Q282.3 96.15 281.95 98.8 L289.25 96.85 Q295.25 95.35 297.25 93.9 L298.6 94.4 Q298.85 98.7 298.55 102.55 298.15 107.25 297.0 109.05 L310.8 109.85 Q319.7 110.75 323.85 109.25 323.55 114.4 321.5 117.7 L319.55 119.95 324.4 126.75 Q318.25 123.7 311.5 122.2 310.95 120.65 311.0 120.15 308.75 118.95 306.3 119.1 303.8 119.2 302.15 120.7 287.05 119.35 265.1 123.7 256.7 125.4 248.6 130.0 242.1 133.7 234.4 140.2 232.05 137.45 228.5 138.1 225.15 138.75 223.15 141.8 L223.55 143.35 Q223.75 144.55 224.1 144.85 224.6 144.1 227.0 143.3 229.3 142.55 231.95 142.3 L221.15 152.05 Q217.65 155.15 215.95 159.25 L215.5 154.4 Q215.65 152.2 216.15 148.25 L208.5 144.05 Q212.7 144.2 217.0 139.9 219.15 137.75 220.45 135.55 218.2 133.95 216.55 127.8 214.7 120.95 213.5 119.4 217.9 121.6 225.75 119.65 L239.7 115.05 233.3 109.4 Q229.25 105.6 228.2 103.0 237.2 108.2 250.0 109.55 256.35 110.2 260.95 109.8 L269.0 103.35 Q277.7 95.9 280.75 91.1" fill="#e5be97" fill-rule="evenodd" stroke="none"/>
    <path d="M326.65 155.1 Q329.3 155.6 329.65 157.1 330.05 158.55 327.9 160.2 325.75 161.9 322.4 162.7 L316.4 163.05 Q313.75 162.6 313.35 161.1 313.0 159.6 315.1 157.95 317.25 156.25 320.6 155.45 L326.65 155.1" fill="#f8a1be" fill-rule="evenodd" stroke="none"/>
    <path d="M233.85 176.85 L239.9 176.5 Q242.55 176.95 242.9 178.45 243.3 179.95 241.15 181.6 239.05 183.25 235.65 184.05 L229.65 184.4 Q227.0 183.95 226.65 182.45 226.3 180.95 228.4 179.3 230.5 177.7 233.85 176.85" fill="#f8a1be" fill-rule="evenodd" stroke="none"/>
    <path d="M275.35 160.45 L273.65 160.2 Q272.7 160.45 272.2 161.25 271.75 162.05 271.95 162.95 272.2 163.9 273.0 164.4 273.8 164.9 274.7 164.65 275.65 164.45 276.15 163.6 276.65 162.8 276.4 161.85 276.2 160.95 275.35 160.45 M274.1 158.55 Q276.25 158.0 278.1 158.95 279.95 159.9 280.4 161.75 280.85 163.6 279.65 165.3 278.45 167.0 276.3 167.5 274.1 168.05 272.3 167.1 270.45 166.15 269.95 164.3 269.5 162.45 270.7 160.75 271.95 159.1 274.1 158.55" fill="#e5be97" fill-rule="evenodd" stroke="none"/>
    <path d="M238.05 165.8 L239.0 165.9 239.75 165.35 239.9 164.4 239.35 163.65 238.4 163.5 237.65 164.1 Q237.4 164.5 237.5 165.0 237.6 165.5 238.05 165.8 M240.35 163.45 Q241.85 164.3 242.2 165.9 242.6 167.5 241.7 168.95 240.75 170.35 239.05 170.8 237.35 171.2 235.85 170.35 234.35 169.5 233.95 167.9 233.55 166.3 234.5 164.9 235.45 163.45 237.15 163.05 238.85 162.65 240.35 163.45" fill="#403c38" fill-rule="evenodd" stroke="none"/>
    <path d="M239.0 165.9 L238.05 165.8 Q237.6 165.5 237.5 165.0 237.4 164.5 237.65 164.1 L238.4 163.5 239.35 163.65 239.9 164.4 239.75 165.35 239.0 165.9" fill="#ffffff" fill-rule="evenodd" stroke="none"/>
    <path d="M310.15 145.05 Q311.9 144.65 313.35 145.45 314.85 146.3 315.25 147.9 315.65 149.5 314.7 150.95 313.75 152.4 312.05 152.8 310.35 153.2 308.85 152.35 307.4 151.55 307.0 149.95 306.6 148.35 307.55 146.9 308.45 145.45 310.15 145.05 M310.75 146.05 Q310.5 146.5 310.6 147.0 310.7 147.5 311.15 147.75 L312.1 147.9 Q312.6 147.8 312.85 147.35 L313.0 146.4 Q312.9 145.9 312.45 145.65 L311.5 145.5 Q311.0 145.6 310.75 146.05" fill="#403c38" fill-rule="evenodd" stroke="none"/>
    <path d="M310.6 147.0 Q310.5 146.5 310.75 146.05 311.0 145.6 311.5 145.5 L312.45 145.65 Q312.9 145.9 313.0 146.4 L312.85 147.35 Q312.6 147.8 312.1 147.9 L311.15 147.75 Q310.7 147.5 310.6 147.0" fill="#ffffff" fill-rule="evenodd" stroke="none"/>
    <path d="M300.05 126.4 Q299.9 122.7 302.15 120.7 303.8 119.2 306.3 119.1 308.75 118.95 311.0 120.15 310.95 120.65 311.5 122.2 L311.55 123.3 Q310.4 122.65 306.45 123.7 302.4 124.75 300.05 126.4" fill="#363d4b" fill-rule="evenodd" stroke="none"/>
    <path d="M235.7 142.25 Q234.3 142.05 231.95 142.3 229.3 142.55 227.0 143.3 224.6 144.1 224.1 144.85 223.75 144.55 223.55 143.35 L223.15 141.8 Q225.15 138.75 228.5 138.1 232.05 137.45 234.4 140.2 235.2 141.05 235.7 142.25" fill="#363d4b" fill-rule="evenodd" stroke="none"/>
    <path d="M307.35 253.2 L300.1 254.55 Q302.35 249.95 306.1 244.8 L307.35 253.2" fill="#822903" fill-rule="evenodd" stroke="none"/>
    <path d="M303.95 230.9 L305.2 237.4 304.1 238.85 Q297.75 247.2 294.65 254.55 L285.85 253.0 Q283.9 248.8 281.0 244.05 278.35 239.75 273.85 234.65 283.8 236.6 292.7 237.65 L296.8 235.15 306.35 228.75 303.95 230.9" fill="#822903" fill-rule="evenodd" stroke="none"/>
    <path d="M276.45 258.95 L274.5 253.8 Q280.55 255.95 286.55 257.15 L283.7 257.7 279.35 267.3 281.4 272.55 278.95 272.75 278.65 268.7 277.9 264.25 277.55 262.75 277.4 262.3 277.3 261.8 277.0 260.85 276.9 260.35 276.45 258.95" fill="#faf8e8" fill-rule="evenodd" stroke="none"/>
    <path d="M306.1 244.8 L312.65 236.45 315.75 232.8 Q316.7 242.1 319.15 250.95 L307.35 253.2 306.1 244.8" fill="#faf8e8" fill-rule="evenodd" stroke="none"/>
    <path d="M270.35 245.7 L270.3 245.6 269.9 244.95 269.85 244.9 269.1 243.6 275.05 243.75 281.0 244.05 Q283.9 248.8 285.85 253.0 278.4 251.3 272.05 248.8 L271.65 248.05 271.55 247.8 270.35 245.7" fill="#faf8e8" fill-rule="evenodd" stroke="none"/>
    <path d="M315.35 222.5 L315.3 225.0 305.2 237.4 303.95 230.9 306.35 228.75 Q309.15 226.55 311.3 225.15 313.55 223.6 315.35 222.5" fill="#c3c0af" fill-rule="evenodd" stroke="none"/>
    <path d="M269.1 243.6 Q264.15 235.8 259.4 231.2 L258.9 230.7 263.9 231.95 273.2 233.9 273.85 234.65 Q278.35 239.75 281.0 244.05 L275.05 243.75 269.1 243.6" fill="#c3c0af" fill-rule="evenodd" stroke="none"/>
    <path d="M271.1 58.0 Q262.45 57.05 251.9 59.0 248.35 59.65 233.3 63.45 226.8 65.1 221.05 68.1 215.0 71.25 210.55 75.4 L210.4 74.95 Q210.0 73.2 209.85 70.9 L209.75 67.0 209.75 59.2 Q209.4 54.85 207.7 52.05 206.25 49.55 200.55 46.4 194.6 43.05 192.9 40.75 191.75 39.2 189.05 36.75 L185.05 32.8 183.35 31.45 181.45 30.1 180.05 28.35 178.3 26.75 Q178.2 26.7 178.25 26.25 L178.15 25.55 176.95 24.3 Q176.25 20.65 179.75 18.6 187.4 14.15 222.95 22.2 242.75 26.65 280.85 36.25 309.0 52.85 334.65 82.45 328.95 79.25 320.5 75.0 312.45 69.45 301.8 66.1 L299.75 65.15 Q293.05 62.05 285.75 60.3 279.25 58.75 271.1 58.0" fill="#faf8e8" fill-rule="evenodd" stroke="none"/>
    <path d="M251.9 59.0 Q262.45 57.05 271.1 58.0 279.25 58.75 285.75 60.3 293.05 62.05 299.75 65.15 L301.8 66.1 Q286.1 61.1 267.85 61.35 248.5 61.6 230.45 67.85 214.5 73.4 204.5 87.25 196.55 98.3 192.85 113.95 191.35 120.5 190.5 135.75 188.1 115.95 187.65 100.25 187.05 78.55 190.3 67.3 193.9 54.95 186.5 41.3 L180.6 31.7 Q177.45 26.75 176.95 24.3 L178.15 25.55 178.25 26.25 Q178.2 26.7 178.3 26.75 L180.05 28.35 181.45 30.1 183.35 31.45 185.05 32.8 189.05 36.75 Q191.75 39.2 192.9 40.75 194.6 43.05 200.55 46.4 206.25 49.55 207.7 52.05 209.4 54.85 209.75 59.2 L209.75 67.0 209.85 70.9 Q210.0 73.2 210.4 74.95 L210.55 75.4 Q215.0 71.25 221.05 68.1 226.8 65.1 233.3 63.45 248.35 59.65 251.9 59.0" fill="#e1decb" fill-rule="evenodd" stroke="none"/>
    <path d="M339.1 92.3 L326.75 80.1 Q324.05 77.45 320.5 75.0 328.95 79.25 334.65 82.45 343.25 92.45 350.55 102.7 345.3 98.35 339.1 92.3" fill="#e1decb" fill-rule="evenodd" stroke="none"/>
    <path d="M326.75 80.1 L339.1 92.3 Q345.3 98.35 350.55 102.7 358.9 109.6 371.95 118.0 371.8 119.9 372.1 121.45 L372.4 122.5 376.65 126.5 379.9 130.0 381.55 132.45 372.4 131.0 Q367.55 129.85 363.8 127.6 357.3 123.85 355.55 122.65 351.0 119.7 348.2 116.75 L344.55 109.5 Q342.3 105.6 339.85 102.65 330.15 90.4 324.4 85.0 314.9 76.0 304.0 71.85 289.4 66.45 278.0 64.65 263.75 62.5 251.05 65.25 230.6 69.8 216.4 80.85 200.0 93.55 192.85 113.95 196.55 98.3 204.5 87.25 214.5 73.4 230.45 67.85 248.5 61.6 267.85 61.35 286.1 61.1 301.8 66.1 312.45 69.45 320.5 75.0 324.05 77.45 326.75 80.1" fill="#fffef4" fill-rule="evenodd" stroke="none"/>
    <path d="M204.9 130.15 Q209.2 123.7 212.85 119.25 208.1 127.65 204.75 140.4 L200.05 158.35 Q198.7 162.4 191.4 164.15 L176.1 166.65 Q178.8 161.45 180.65 158.9 L180.65 157.85 Q180.45 154.8 177.7 149.75 L179.8 147.7 Q185.55 149.65 188.85 154.55 190.5 157.1 192.5 153.95 L195.0 148.55 196.1 145.0 Q196.65 142.8 197.45 141.55 L204.9 130.15" fill="#faf8e8" fill-rule="evenodd" stroke="none"/>
    <path d="M372.4 131.0 L381.55 132.45 382.65 134.45 370.35 133.9 Q359.3 132.05 349.05 125.65 L344.5 122.6 Q328.3 110.65 323.05 107.2 310.1 98.65 298.6 94.4 L297.25 93.9 Q273.85 85.65 249.2 92.25 224.35 98.85 212.85 119.25 209.2 123.7 204.9 130.15 L197.45 141.55 Q196.65 142.8 196.1 145.0 L195.0 148.55 192.5 153.95 Q190.5 157.1 188.85 154.55 185.55 149.65 179.8 147.7 190.2 137.75 190.2 138.5 190.25 139.95 190.3 139.2 L190.5 135.75 Q191.35 120.5 192.85 113.95 200.0 93.55 216.4 80.85 230.6 69.8 251.05 65.25 263.75 62.5 278.0 64.65 289.4 66.45 304.0 71.85 314.9 76.0 324.4 85.0 330.15 90.4 339.85 102.65 342.3 105.6 344.55 109.5 L348.2 116.75 Q351.0 119.7 355.55 122.65 357.3 123.85 363.8 127.6 367.55 129.85 372.4 131.0" fill="#c3c0af" fill-rule="evenodd" stroke="none"/>
    <path d="M384.05 118.2 Q378.25 117.8 375.55 120.85 374.55 122.05 377.75 124.8 382.3 128.65 382.85 129.45 383.7 130.7 386.05 136.4 390.0 146.45 391.9 153.0 391.1 155.05 390.95 156.85 L390.25 154.5 Q388.9 149.55 386.8 144.05 384.7 138.45 382.65 134.45 L381.55 132.45 379.9 130.0 376.65 126.5 372.4 122.5 372.1 121.45 Q372.1 119.45 372.65 117.8 381.55 113.25 391.6 117.15 401.5 121.0 405.15 130.0 408.65 138.65 409.1 147.6 407.3 146.5 405.25 145.85 L405.2 145.85 Q403.65 136.25 400.4 128.7 398.85 125.05 397.45 123.35 390.45 118.65 384.05 118.2" fill="#dfb903" fill-rule="evenodd" stroke="none"/>
    <path d="M372.25 85.35 Q371.15 82.1 370.55 78.65 372.55 77.3 374.9 77.15 381.5 77.0 385.65 80.65 389.95 84.7 391.8 89.0 394.1 94.3 391.95 98.8 391.05 100.35 389.55 101.35 387.8 102.45 385.9 102.25 L379.95 101.4 Q376.5 100.65 374.35 99.3 L373.45 91.25 Q372.85 87.0 372.25 85.35 M377.5 84.45 Q378.6 84.15 379.1 83.15 379.65 82.1 379.3 80.95 379.0 79.8 378.05 79.15 377.05 78.55 376.0 78.85 374.9 79.15 374.4 80.15 373.85 81.2 374.2 82.35 374.5 83.5 375.5 84.15 L377.5 84.45" fill="#ffe435" fill-rule="evenodd" stroke="none"/>
    <path d="M370.8 73.4 Q372.25 71.9 378.25 71.75 385.55 71.5 392.5 74.4 394.55 75.25 396.4 76.35 400.05 79.95 402.9 84.15 409.8 94.9 408.4 109.75 L408.2 112.0 408.25 113.75 Q408.45 118.0 411.3 122.25 413.75 125.9 417.75 128.9 L417.85 130.5 418.45 141.2 Q418.6 147.25 417.45 151.8 L416.0 154.5 Q413.6 150.25 409.1 147.6 408.65 138.65 405.15 130.0 401.5 121.0 391.6 117.15 381.55 113.25 372.65 117.8 372.1 119.45 372.1 121.45 371.8 119.9 371.95 118.0 372.15 115.4 373.25 111.15 L374.55 105.9 Q374.75 104.25 374.35 99.3 376.5 100.65 379.95 101.4 L385.9 102.25 Q387.8 102.45 389.55 101.35 391.05 100.35 391.95 98.8 394.1 94.3 391.8 89.0 389.95 84.7 385.65 80.65 381.5 77.0 374.9 77.15 372.55 77.3 370.55 78.65 369.85 74.3 370.8 73.4" fill="#f4cf03" fill-rule="evenodd" stroke="none"/>
    <path d="M405.35 83.5 Q409.9 88.35 411.95 93.55 414.2 99.35 414.2 104.35 L413.45 112.25 Q413.1 118.55 414.7 122.55 415.6 124.8 416.95 125.75 L417.65 126.3 420.0 128.25 420.0 157.7 417.75 160.75 Q417.7 157.6 416.0 154.5 L417.45 151.8 Q418.6 147.25 418.45 141.2 L417.85 130.5 417.75 128.9 Q413.75 125.9 411.3 122.25 408.45 118.0 408.25 113.75 L408.2 112.0 408.4 109.75 Q409.8 94.9 402.9 84.15 400.05 79.95 396.4 76.35 401.3 79.25 405.35 83.5" fill="#ffe435" fill-rule="evenodd" stroke="none"/>
    <path d="M375.55 120.85 Q378.25 117.8 384.05 118.2 390.45 118.65 397.45 123.35 398.85 125.05 400.4 128.7 398.9 127.9 397.4 128.0 393.9 128.35 390.85 130.95 389.0 132.55 386.05 136.4 383.7 130.7 382.85 129.45 382.3 128.65 377.75 124.8 374.55 122.05 375.55 120.85" fill="#826c03" fill-rule="evenodd" stroke="none"/>
    <path d="M397.4 128.0 Q398.9 127.9 400.4 128.7 403.65 136.25 405.2 145.85 L398.65 145.65 Q395.35 146.6 393.5 149.7 L391.9 153.0 Q390.0 146.45 386.05 136.4 389.0 132.55 390.85 130.95 393.9 128.35 397.4 128.0" fill="#be9e03" fill-rule="evenodd" stroke="none"/>
    <path d="M376.0 78.85 Q377.05 78.55 378.05 79.15 379.0 79.8 379.3 80.95 379.65 82.1 379.1 83.15 378.6 84.15 377.5 84.45 L375.5 84.15 Q374.5 83.5 374.2 82.35 373.85 81.2 374.4 80.15 374.9 79.15 376.0 78.85" fill="#ffece6" fill-rule="evenodd" stroke="none"/>
    <path d="M151.15 189.45 L151.15 189.15 150.8 186.35 150.6 179.6 154.7 178.9 Q154.55 184.1 155.0 189.05 155.45 194.1 156.35 196.9 L157.15 199.0 Q155.75 199.7 154.3 200.9 L154.25 200.75 153.95 200.1 153.0 197.35 151.15 189.45" fill="#ffe435" fill-rule="evenodd" stroke="none"/>
    <path d="M169.8 195.7 Q169.7 193.6 170.1 187.45 170.5 181.25 171.15 175.9 L171.3 174.4 173.8 173.6 Q171.9 183.0 171.8 194.5 171.8 200.25 170.75 204.4 L168.85 202.15 Q170.05 199.4 169.8 195.7" fill="#ffe435" fill-rule="evenodd" stroke="none"/>
    <path d="M166.4 115.8 L170.95 116.15 Q171.35 119.65 171.05 123.05 170.95 124.75 171.45 129.05 L172.7 137.05 Q170.95 138.9 167.85 140.5 L162.3 142.9 Q160.55 143.6 158.6 142.95 156.85 142.4 155.6 141.15 152.35 137.35 153.2 131.65 153.85 127.0 156.9 122.0 159.85 117.45 166.4 115.8 M163.9 118.55 Q163.1 119.4 163.1 120.6 163.1 121.8 163.9 122.65 164.65 123.5 165.75 123.5 166.85 123.55 167.6 122.7 168.4 121.85 168.4 120.65 168.4 119.45 167.65 118.6 166.85 117.7 165.75 117.7 164.65 117.7 163.9 118.55" fill="#ffe435" fill-rule="evenodd" stroke="none"/>
    <path d="M169.35 111.1 Q170.6 111.8 170.95 116.15 L166.4 115.8 Q159.85 117.45 156.9 122.0 153.85 127.0 153.2 131.65 152.35 137.35 155.6 141.15 156.85 142.4 158.6 142.95 160.55 143.6 162.3 142.9 L167.85 140.5 Q170.95 138.9 172.7 137.05 173.5 141.55 174.2 143.45 L177.7 149.75 Q180.45 154.8 180.65 157.85 180.15 155.9 179.2 154.45 173.4 153.2 167.55 155.2 162.0 157.1 157.75 161.35 L156.35 161.2 Q150.75 160.25 146.1 155.75 141.65 151.4 139.9 145.6 138.8 137.45 141.2 129.9 142.8 125.15 145.45 120.65 L148.7 117.75 Q154.65 113.15 161.75 111.45 167.5 110.05 169.35 111.1" fill="#f4cf03" fill-rule="evenodd" stroke="none"/>
    <path d="M180.65 157.85 L180.65 158.9 Q178.8 161.45 176.1 166.65 L175.4 168.1 Q174.8 169.35 174.15 171.9 L173.8 173.6 171.3 174.4 Q171.9 169.75 172.4 168.35 172.75 167.4 176.1 162.5 178.45 159.0 177.15 158.15 173.8 155.9 168.3 157.85 162.2 159.95 156.7 166.3 155.85 168.15 155.25 172.25 154.9 174.75 154.7 178.9 L150.6 179.6 150.8 186.35 151.15 189.15 151.15 189.45 153.3 198.3 153.95 200.1 154.25 200.75 154.3 200.9 154.15 201.05 Q150.45 204.2 148.9 209.1 L146.85 207.65 Q143.5 205.2 140.8 202.35 138.3 199.65 137.45 197.85 135.9 194.6 135.3 188.05 134.8 182.4 135.25 178.65 L137.2 175.5 138.5 173.7 Q139.6 172.35 139.85 170.0 L139.9 167.65 Q139.85 164.8 138.85 161.55 L138.35 159.75 Q136.35 155.1 135.6 152.35 134.25 147.55 134.9 141.35 L135.15 139.7 Q135.55 137.55 136.2 135.55 137.15 132.7 138.55 130.15 L140.1 127.45 Q142.4 123.75 145.45 120.65 142.8 125.15 141.2 129.9 138.8 137.45 139.9 145.6 141.65 151.4 146.1 155.75 150.75 160.25 156.35 161.2 L157.75 161.35 Q162.0 157.1 167.55 155.2 173.4 153.2 179.2 154.45 180.15 155.9 180.65 157.85" fill="#dfb903" fill-rule="evenodd" stroke="none"/>
    <path d="M171.15 175.9 Q167.2 172.9 165.1 171.9 161.45 170.15 158.0 170.8 156.45 171.15 155.25 172.25 155.85 168.15 156.7 166.3 162.2 159.95 168.3 157.85 173.8 155.9 177.15 158.15 178.45 159.0 176.1 162.5 172.75 167.4 172.4 168.35 171.9 169.75 171.3 174.4 L171.15 175.9" fill="#826c03" fill-rule="evenodd" stroke="none"/>
    <path d="M165.1 171.9 Q167.2 172.9 171.15 175.9 170.5 181.25 170.1 187.45 169.7 193.6 169.8 195.7 170.05 199.4 168.85 202.15 L166.0 199.75 Q161.9 196.85 157.15 199.0 L156.35 196.9 Q155.45 194.1 155.0 189.05 154.55 184.1 154.7 178.9 154.9 174.75 155.25 172.25 156.45 171.15 158.0 170.8 161.45 170.15 165.1 171.9" fill="#be9e03" fill-rule="evenodd" stroke="none"/>
    <path d="M163.1 120.6 Q163.1 119.4 163.9 118.55 164.65 117.7 165.75 117.7 166.85 117.7 167.65 118.6 168.4 119.45 168.4 120.65 168.4 121.85 167.6 122.7 166.85 123.55 165.75 123.5 164.65 123.5 163.9 122.65 163.1 121.8 163.1 120.6" fill="#ffece6" fill-rule="evenodd" stroke="none"/>
    <path d="M157.35 217.0 Q155.15 213.25 154.25 209.25 153.25 204.8 154.15 201.05 L154.3 200.9 Q155.75 199.7 157.15 199.0 161.9 196.85 166.0 199.75 L168.85 202.15 170.75 204.4 Q172.05 206.4 172.65 209.0 L173.35 213.5 200.95 229.0 219.1 229.15 218.5 229.55 220.25 233.6 Q222.0 238.25 222.1 240.95 222.15 242.45 221.7 244.55 208.25 242.25 198.65 238.25 185.25 232.7 172.5 223.9 170.05 222.55 171.8 218.55 167.85 220.45 163.8 220.25 159.2 220.0 157.35 217.0" fill="#ffdbb3" fill-rule="evenodd" stroke="none"/>
    <path d="M156.7 225.1 Q153.6 224.2 151.45 222.45 L151.25 222.3 150.5 221.6 Q147.45 217.7 148.2 212.1 148.5 210.25 148.9 209.1 150.45 204.2 154.15 201.05 153.25 204.8 154.25 209.25 155.15 213.25 157.35 217.0 159.2 220.0 163.8 220.25 167.85 220.45 171.8 218.55 170.05 222.55 172.5 223.9 185.25 232.7 198.65 238.25 208.25 242.25 221.7 244.55 221.0 247.25 219.85 249.45 L196.45 243.9 166.65 226.65 162.55 226.15 156.7 225.1" fill="#e5be97" fill-rule="evenodd" stroke="none"/>
    <path d="M235.65 253.2 L239.5 253.7 239.6 254.15 235.65 253.2" fill="#e5be97" fill-rule="evenodd" stroke="none"/>
    <path d="M374.35 190.15 L392.5 165.8 391.25 161.55 Q390.7 159.1 390.95 156.85 391.1 155.05 391.9 153.0 L393.5 149.7 Q395.35 146.6 398.65 145.65 L405.2 145.85 405.25 145.85 Q407.7 149.05 408.65 153.7 409.5 157.85 409.0 162.3 408.55 165.9 404.35 168.1 400.55 170.05 396.05 169.9 399.35 172.95 397.7 175.25 389.35 188.95 379.15 199.85 372.45 206.95 362.85 213.65 361.25 212.45 360.15 211.2 356.95 207.25 357.75 200.1 L374.35 190.15" fill="#ffdbb3" fill-rule="evenodd" stroke="none"/>
    <path d="M397.7 175.25 Q399.35 172.95 396.05 169.9 400.55 170.05 404.35 168.1 408.55 165.9 409.0 162.3 409.5 157.85 408.65 153.7 407.7 149.05 405.25 145.85 407.3 146.5 409.1 147.6 413.6 150.25 416.0 154.5 417.7 157.6 417.75 160.75 417.75 162.3 417.4 163.7 416.0 167.55 411.85 170.6 L404.35 175.3 383.6 204.25 365.85 215.6 365.35 215.3 Q363.75 214.35 362.85 213.65 372.45 206.95 379.15 199.85 389.35 188.95 397.7 175.25" fill="#e5be97" fill-rule="evenodd" stroke="none"/>
    <path d="M245.45 224.8 Q245.75 225.1 246.95 225.6 L248.85 226.55 249.85 227.25 Q250.95 227.95 252.8 228.8 255.5 230.0 259.4 231.2 264.15 235.8 269.1 243.6 L269.45 244.2 259.3 241.95 Q253.95 238.3 250.8 234.1 L244.6 224.7 244.35 224.4 245.45 224.8" fill="#515158" fill-rule="evenodd" stroke="none"/>
    <path d="M245.95 232.15 L249.85 238.2 249.6 238.05 Q242.8 233.2 240.4 231.1 235.7 227.0 233.2 222.45 236.8 222.25 241.8 223.65 240.95 224.1 241.75 225.2 L245.95 232.15" fill="#515158" fill-rule="evenodd" stroke="none"/>
    <path d="M244.3 247.2 Q252.25 247.4 257.75 245.5 L258.9 246.2 Q260.8 268.2 269.5 287.65 L269.1 287.65 256.65 286.65 256.2 286.75 256.45 280.2 256.0 269.95 Q255.35 262.1 253.6 253.25 249.05 254.2 245.15 254.15 L239.5 253.7 235.65 253.2 224.6 251.1 219.6 249.95 219.8 249.6 219.85 249.45 Q221.0 247.25 221.7 244.55 222.15 242.45 222.1 240.95 222.0 238.25 220.25 233.6 L218.5 229.55 219.3 229.0 Q222.05 231.25 223.65 235.7 L225.85 243.85 Q226.05 244.7 227.4 245.35 228.65 245.95 230.25 246.1 L244.3 247.2" fill="#515158" fill-rule="evenodd" stroke="none"/>
    <path d="M258.9 246.2 L259.25 246.45 Q266.65 251.0 274.5 253.8 L276.45 258.95 276.9 260.35 277.0 260.85 277.3 261.8 277.4 262.3 277.55 262.75 277.9 264.25 278.75 269.7 278.9 271.4 278.95 272.75 281.4 272.55 287.05 287.15 269.5 287.65 Q260.8 268.2 258.9 246.2" fill="#6c6c72" fill-rule="evenodd" stroke="none"/>
    <path d="M249.85 238.2 Q253.15 242.45 257.75 245.5 252.25 247.4 244.3 247.2 L230.25 246.1 Q228.65 245.95 227.4 245.35 226.05 244.7 225.85 243.85 L223.65 235.7 Q222.05 231.25 219.3 229.0 L220.9 228.0 Q226.95 224.15 231.0 222.85 L233.2 222.45 Q235.7 227.0 240.4 231.1 242.8 233.2 249.6 238.05 L249.85 238.2" fill="#6c6c72" fill-rule="evenodd" stroke="none"/>
    <path d="M260.7 242.9 L259.3 241.95 269.45 244.2 269.85 244.9 269.9 244.95 270.3 245.6 270.35 245.7 270.8 246.45 271.55 247.8 271.65 248.05 272.05 248.8 Q265.75 246.2 260.7 242.9" fill="#6c6c72" fill-rule="evenodd" stroke="none"/>
    <path d="M343.3 196.0 Q346.75 195.7 352.75 196.9 L358.05 198.15 357.75 200.1 Q356.95 207.25 360.15 211.2 361.25 212.45 362.85 213.65 363.75 214.35 365.35 215.3 355.5 224.15 347.45 227.45 336.45 232.0 327.0 227.25 328.95 235.8 333.0 243.15 337.2 250.75 343.35 256.45 349.0 265.9 355.55 273.75 L355.2 273.75 Q353.6 277.9 333.35 281.7 L336.8 270.3 326.15 249.6 319.15 250.95 Q316.7 242.1 315.75 232.8 L323.45 223.5 Q327.25 218.3 329.25 213.25 332.75 207.2 334.5 200.55 340.0 196.3 343.3 196.0" fill="#6c6c72" fill-rule="evenodd" stroke="none"/>
    <path d="M365.35 215.3 L367.35 216.4 Q362.0 220.15 355.7 224.05 347.1 229.45 342.35 231.5 338.3 233.25 333.0 234.25 L334.55 238.7 Q337.75 247.05 343.35 256.45 337.2 250.75 333.0 243.15 328.95 235.8 327.0 227.25 336.45 232.0 347.45 227.45 355.5 224.15 365.35 215.3" fill="#515158" fill-rule="evenodd" stroke="none"/>
    <path d="M331.65 204.4 L331.75 202.85 334.5 200.55 Q332.75 207.2 329.25 213.25 330.95 208.9 331.65 204.4" fill="#45456c" fill-rule="evenodd" stroke="none"/>
    <path d="M324.05 213.6 Q327.2 210.0 328.1 207.1 L328.6 206.2 329.05 205.35 Q328.3 209.8 325.35 213.25 321.45 217.15 319.3 219.95 L315.3 225.0 315.35 222.5 Q313.55 223.6 311.3 225.15 319.85 218.6 324.05 213.6" fill="#45456c" fill-rule="evenodd" stroke="none"/>
    <path d="M332.25 289.25 L335.5 291.3 338.55 293.3 Q343.0 295.6 348.3 300.0 L340.5 300.0 Q337.75 292.8 332.25 289.25" fill="#c3c0af" fill-rule="evenodd" stroke="none"/>
    <path d="M269.1 287.65 L264.85 293.7 Q262.3 297.3 260.85 300.0 L226.3 300.0 Q234.95 295.4 243.95 291.45 252.25 287.85 256.2 286.75 L256.65 286.65 269.1 287.65" fill="#c3c0af" fill-rule="evenodd" stroke="none"/>
    <path d="M280.4 300.0 L276.65 300.0 281.95 294.15 Q280.85 297.3 280.4 300.0" fill="#c3c0af" fill-rule="evenodd" stroke="none"/>
    <path d="M367.85 287.5 L367.35 287.2 Q367.0 286.85 367.15 286.4 L362.95 284.3 Q366.9 285.45 371.8 287.95 L380.35 292.65 Q386.7 296.25 391.6 300.0 L373.45 300.0 Q373.35 292.05 367.85 287.5" fill="#c3c0af" fill-rule="evenodd" stroke="none"/>
    <path d="M414.9 285.3 Q417.65 287.1 420.0 289.3 L420.0 300.0 391.6 300.0 Q386.7 296.25 380.35 292.65 L371.8 287.95 Q366.9 285.45 362.95 284.3 L367.15 286.4 Q367.0 286.85 367.35 287.2 L367.85 287.5 Q373.35 292.05 373.45 300.0 L348.3 300.0 Q343.0 295.6 338.55 293.3 L335.5 291.3 332.25 289.25 Q337.75 292.8 340.5 300.0 L280.4 300.0 Q280.85 297.3 281.95 294.15 L276.65 300.0 260.85 300.0 Q262.3 297.3 264.85 293.7 L269.1 287.65 269.5 287.65 287.05 287.15 288.6 291.15 333.1 282.55 333.35 281.7 Q353.6 277.9 355.2 273.75 L355.55 273.75 Q384.7 273.9 401.9 279.35 L404.65 280.3 Q410.7 282.5 414.9 285.3" fill="#faf8e8" fill-rule="evenodd" stroke="none"/>
    <path d="M331.65 204.4 Q330.95 208.9 329.25 213.25 327.25 218.3 323.45 223.5 L315.75 232.8 312.65 236.45 306.1 244.8 Q302.35 249.95 300.1 254.55 L299.95 254.6 286.55 257.15 Q280.55 255.95 274.5 253.8 266.65 251.0 259.25 246.45 L257.75 245.5 Q253.15 242.45 249.85 238.2 L245.95 232.15 241.75 225.2 Q240.95 224.1 241.8 223.65 242.6 223.15 243.7 223.85 L244.35 224.4 244.6 224.7 250.8 234.1 Q253.95 238.3 259.3 241.95 L260.7 242.9 Q265.75 246.2 272.05 248.8 278.4 251.3 285.85 253.0 L294.65 254.55 Q297.75 247.2 304.1 238.85 L305.2 237.4 315.3 225.0 319.3 219.95 Q321.45 217.15 325.35 213.25 328.3 209.8 329.05 205.35 329.3 203.85 329.9 202.85 330.4 201.95 330.95 201.85 331.6 201.75 331.75 202.85 L331.65 204.4" fill="#454545" fill-rule="evenodd" stroke="none"/>
    <path d="M319.8 271.85 Q323.0 269.0 323.05 264.85 323.15 260.65 320.05 257.55 317.0 254.5 312.55 254.3 308.1 254.1 304.9 256.95 301.7 259.8 301.6 263.95 301.55 268.15 304.6 271.25 307.7 274.3 312.15 274.5 316.55 274.7 319.8 271.85 M326.15 249.6 L336.8 270.3 336.4 271.6 Q332.15 272.65 315.25 277.4 302.25 281.05 293.95 282.6 292.15 277.75 289.95 269.95 L286.35 257.2 299.95 254.6 300.1 254.55 326.15 249.6" fill="#7f7f7f" fill-rule="evenodd" stroke="none"/>
    <path d="M336.4 271.6 L333.1 282.55 288.6 291.15 279.35 267.3 283.7 257.7 286.35 257.2 289.95 269.95 Q292.15 277.75 293.95 282.6 302.25 281.05 315.25 277.4 332.15 272.65 336.4 271.6" fill="#454545" fill-rule="evenodd" stroke="none"/>
    <path d="M312.4 260.15 Q310.55 260.1 309.25 261.25 307.9 262.45 307.85 264.2 307.8 265.95 309.1 267.25 310.4 268.6 312.25 268.65 314.1 268.75 315.45 267.55 316.8 266.35 316.85 264.6 316.9 262.85 315.6 261.55 314.3 260.25 312.4 260.15 M304.9 256.95 Q308.1 254.1 312.55 254.3 317.0 254.5 320.05 257.55 323.15 260.65 323.05 264.85 323.0 269.0 319.8 271.85 316.55 274.7 312.15 274.5 307.7 274.3 304.6 271.25 301.55 268.15 301.6 263.95 301.7 259.8 304.9 256.95" fill="#454545" fill-rule="evenodd" stroke="none"/>
    <path d="M312.25 268.65 Q310.4 268.6 309.1 267.25 307.8 265.95 307.85 264.2 307.9 262.45 309.25 261.25 310.55 260.1 312.4 260.15 314.3 260.25 315.6 261.55 316.9 262.85 316.85 264.6 316.8 266.35 315.45 267.55 314.1 268.75 312.25 268.65" fill="#f0fbff" fill-rule="evenodd" stroke="none"/>
    <path d="M280.8 183.05 Q277.05 184.0 274.75 185.5 L273.7 183.95 270.15 178.6 Q275.95 175.3 279.5 174.05 285.15 172.1 290.1 172.85 290.8 172.9 291.3 173.4 L290.95 178.25 290.95 178.35 290.8 179.45 290.8 179.55 290.6 180.7 290.6 180.8 290.15 183.15 Q289.4 187.1 288.1 190.15 286.65 193.5 285.05 194.65 284.15 195.3 283.2 195.05 L281.55 194.1 Q279.8 192.7 277.1 188.95 L276.35 187.85 276.3 187.8 275.55 186.7 Q279.45 184.55 281.15 183.75 283.8 182.55 286.25 182.05 L280.8 183.05" fill="#f4f1e7" fill-rule="evenodd" stroke="none"/>
    <path d="M274.75 185.5 Q277.05 184.0 280.8 183.05 L286.25 182.05 Q283.8 182.55 281.15 183.75 279.45 184.55 275.55 186.7 L274.75 185.5" fill="#cdd3c3" fill-rule="evenodd" stroke="none"/>
    <path d="M279.5 174.05 Q275.95 175.3 270.15 178.6 L268.85 176.8 Q273.0 174.95 276.75 173.55 284.95 170.45 291.1 169.35 L291.3 173.4 Q290.8 172.9 290.1 172.85 285.15 172.1 279.5 174.05" fill="#cdd3c3" fill-rule="evenodd" stroke="none"/>
    <path d="M268.85 176.8 L270.15 178.6 273.7 183.95 276.3 187.8 276.35 187.85 277.1 188.95 Q279.8 192.7 281.55 194.1 L283.2 195.05 Q284.15 195.3 285.05 194.65 286.65 193.5 288.1 190.15 289.4 187.1 290.15 183.15 L290.6 180.8 290.6 180.7 290.8 179.55 290.8 179.45 290.95 178.35 290.95 178.25 291.2 175.9 291.2 170.3 291.1 169.35 Q284.95 170.45 276.75 173.55 273.0 174.95 268.85 176.8 M263.8 171.5 L264.8 171.6 Q265.0 172.0 264.15 172.35 263.15 172.75 262.1 174.05 260.85 175.6 261.5 176.45 262.85 178.05 267.8 175.5 271.7 173.55 278.65 171.4 286.85 168.8 293.5 168.0 293.75 169.7 293.25 175.05 292.7 180.75 291.85 184.5 290.75 189.05 289.3 191.9 287.8 195.05 285.8 196.15 283.2 197.6 280.35 195.45 278.8 194.25 276.55 191.25 L271.85 184.4 267.15 177.55 Q265.15 178.35 263.6 178.45 261.9 178.6 260.75 178.0 259.45 177.35 259.5 175.95 259.55 173.25 263.8 171.5" fill="#c8a585" fill-rule="evenodd" stroke="none"/>
    <path d="M286.15 197.75 L288.0 197.65 Q288.8 197.75 288.9 198.1 289.0 198.5 288.35 198.9 L286.7 199.55 284.85 199.7 Q284.05 199.6 283.95 199.2 283.85 198.8 284.45 198.4 285.1 197.95 286.15 197.75" fill="#c8a585" fill-rule="evenodd" stroke="none"/>
  </g>
  <defs>
    <linearGradient gradientTransform="matrix(0.0056, -0.2434, -0.2434, -0.0056, 34.05, 82.3)" gradientUnits="userSpaceOnUse" id="gradient0" spreadMethod="pad" x1="-819.2" x2="819.2">
      <stop offset="0.09803921568627451" stop-color="#fffbd2"/>
      <stop offset="0.4666666666666667" stop-color="#61b6ea"/>
      <stop offset="0.8392156862745098" stop-color="#0391e4"/>
    </linearGradient>
    <linearGradient gradientTransform="matrix(0.0056, -0.2433, -0.2433, -0.0056, 65.3, 83.0)" gradientUnits="userSpaceOnUse" id="gradient1" spreadMethod="pad" x1="-819.2" x2="819.2">
      <stop offset="0.09803921568627451" stop-color="#fffbd2"/>
      <stop offset="0.4666666666666667" stop-color="#61b6ea"/>
      <stop offset="0.8392156862745098" stop-color="#0391e4"/>
    </linearGradient>
    <linearGradient gradientTransform="matrix(0.0056, -0.2434, -0.2434, -0.0056, 89.6, 83.55)" gradientUnits="userSpaceOnUse" id="gradient2" spreadMethod="pad" x1="-819.2" x2="819.2">
      <stop offset="0.09803921568627451" stop-color="#fffbd2"/>
      <stop offset="0.4666666666666667" stop-color="#61b6ea"/>
      <stop offset="0.8392156862745098" stop-color="#0391e4"/>
    </linearGradient>
    <linearGradient gradientTransform="matrix(0.0056, -0.2434, -0.2434, -0.0056, 52.45, 82.7)" gradientUnits="userSpaceOnUse" id="gradient3" spreadMethod="pad" x1="-819.2" x2="819.2">
      <stop offset="0.09803921568627451" stop-color="#fffbd2"/>
      <stop offset="0.4666666666666667" stop-color="#61b6ea"/>
      <stop offset="0.8392156862745098" stop-color="#0391e4"/>
    </linearGradient>
    <linearGradient gradientTransform="matrix(0.0056, -0.2434, -0.2434, -0.0056, 27.15, 82.15)" gradientUnits="userSpaceOnUse" id="gradient4" spreadMethod="pad" x1="-819.2" x2="819.2">
      <stop offset="0.09803921568627451" stop-color="#fffbd2"/>
      <stop offset="0.4666666666666667" stop-color="#61b6ea"/>
      <stop offset="0.8392156862745098" stop-color="#0391e4"/>
    </linearGradient>
    <linearGradient gradientTransform="matrix(0.0056, -0.2434, -0.2434, -0.0056, 258.0, 87.45)" gradientUnits="userSpaceOnUse" id="gradient5" spreadMethod="pad" x1="-819.2" x2="819.2">
      <stop offset="0.09803921568627451" stop-color="#fffbd2"/>
      <stop offset="0.4666666666666667" stop-color="#61b6ea"/>
      <stop offset="0.8392156862745098" stop-color="#0391e4"/>
    </linearGradient>
    <linearGradient gradientTransform="matrix(0.0056, -0.2434, -0.2434, -0.0056, 401.25, 90.7)" gradientUnits="userSpaceOnUse" id="gradient6" spreadMethod="pad" x1="-819.2" x2="819.2">
      <stop offset="0.09803921568627451" stop-color="#fffbd2"/>
      <stop offset="0.4666666666666667" stop-color="#61b6ea"/>
      <stop offset="0.8392156862745098" stop-color="#0391e4"/>
    </linearGradient>
    <linearGradient gradientTransform="matrix(0.0056, -0.2438, -0.2438, -0.0056, 421.4, 90.95)" gradientUnits="userSpaceOnUse" id="gradient7" spreadMethod="pad" x1="-819.2" x2="819.2">
      <stop offset="0.09803921568627451" stop-color="#fffbd2"/>
      <stop offset="0.4666666666666667" stop-color="#61b6ea"/>
      <stop offset="0.8392156862745098" stop-color="#0391e4"/>
    </linearGradient>
    <linearGradient gradientTransform="matrix(0.0056, -0.2434, -0.2434, -0.0056, 74.7, 83.25)" gradientUnits="userSpaceOnUse" id="gradient8" spreadMethod="pad" x1="-819.2" x2="819.2">
      <stop offset="0.09803921568627451" stop-color="#fffbd2"/>
      <stop offset="0.4666666666666667" stop-color="#61b6ea"/>
      <stop offset="0.8392156862745098" stop-color="#0391e4"/>
    </linearGradient>
    <linearGradient gradientTransform="matrix(0.0056, -0.2434, -0.2434, -0.0056, 136.8, 84.65)" gradientUnits="userSpaceOnUse" id="gradient9" spreadMethod="pad" x1="-819.2" x2="819.2">
      <stop offset="0.09803921568627451" stop-color="#fffbd2"/>
      <stop offset="0.4666666666666667" stop-color="#61b6ea"/>
      <stop offset="0.8392156862745098" stop-color="#0391e4"/>
    </linearGradient>
    <linearGradient gradientTransform="matrix(0.0056, -0.2434, -0.2434, -0.0056, 50.75, 82.7)" gradientUnits="userSpaceOnUse" id="gradient10" spreadMethod="pad" x1="-819.2" x2="819.2">
      <stop offset="0.09803921568627451" stop-color="#fffbd2"/>
      <stop offset="0.4666666666666667" stop-color="#61b6ea"/>
      <stop offset="0.8392156862745098" stop-color="#0391e4"/>
    </linearGradient>
    <linearGradient gradientTransform="matrix(0.0056, -0.2434, -0.2434, -0.0056, 132.7, 84.55)" gradientUnits="userSpaceOnUse" id="gradient11" spreadMethod="pad" x1="-819.2" x2="819.2">
      <stop offset="0.09803921568627451" stop-color="#fffbd2"/>
      <stop offset="0.4666666666666667" stop-color="#61b6ea"/>
      <stop offset="0.8392156862745098" stop-color="#0391e4"/>
    </linearGradient>
    <linearGradient gradientTransform="matrix(0.0056, -0.2434, -0.2434, -0.0056, 124.95, 84.4)" gradientUnits="userSpaceOnUse" id="gradient12" spreadMethod="pad" x1="-819.2" x2="819.2">
      <stop offset="0.09803921568627451" stop-color="#fffbd2"/>
      <stop offset="0.4666666666666667" stop-color="#61b6ea"/>
      <stop offset="0.8392156862745098" stop-color="#0391e4"/>
    </linearGradient>
    <linearGradient gradientTransform="matrix(0.0056, -0.2434, -0.2434, -0.0056, 377.25, 90.15)" gradientUnits="userSpaceOnUse" id="gradient13" spreadMethod="pad" x1="-819.2" x2="819.2">
      <stop offset="0.09803921568627451" stop-color="#fffbd2"/>
      <stop offset="0.4666666666666667" stop-color="#61b6ea"/>
      <stop offset="0.8392156862745098" stop-color="#0391e4"/>
    </linearGradient>
    <linearGradient gradientTransform="matrix(0.0056, -0.2434, -0.2434, -0.0056, 197.15, 86.05)" gradientUnits="userSpaceOnUse" id="gradient14" spreadMethod="pad" x1="-819.2" x2="819.2">
      <stop offset="0.09803921568627451" stop-color="#fffbd2"/>
      <stop offset="0.4666666666666667" stop-color="#61b6ea"/>
      <stop offset="0.8392156862745098" stop-color="#0391e4"/>
    </linearGradient>
  </defs>
</svg>
