<?xml version="1.0" encoding="UTF-8" standalone="no"?>
<svg xmlns:ffdec="https://www.free-decompiler.com/flash" xmlns:xlink="http://www.w3.org/1999/xlink" ffdec:objectType="shape" height="56.7px" width="200.05px" xmlns="http://www.w3.org/2000/svg">
  <g transform="matrix(1.0, 0.0, 0.0, 1.0, 100.05, 56.7)">
    <path d="M-78.35 -20.0 L-78.35 -13.3 -71.7 -13.3 -71.7 -20.0 -78.35 -20.0 M-100.05 0.0 L-100.05 -33.35 -56.7 -46.7 -40.0 -40.0 -8.35 -56.7 14.95 -56.7 36.6 -36.7 59.95 -45.0 86.65 -43.35 100.0 -33.35 100.0 0.0 -100.05 0.0 M50.75 -18.95 L54.4 -20.75 52.55 -24.4 48.9 -22.6 50.75 -18.95 M69.5 -28.0 L63.65 -31.2 60.45 -25.35 66.3 -22.15 69.5 -28.0 M11.65 -23.2 L13.5 -19.55 17.15 -21.35 15.3 -25.0 11.65 -23.2 M-16.85 -27.0 L-20.5 -25.15 -18.7 -21.5 Q-16.85 -22.4 -15.05 -23.35 L-16.85 -27.0 M-10.6 -40.8 L-12.45 -44.4 -16.1 -42.6 -14.25 -38.95 -10.6 -40.8 M-32.05 -30.4 L-25.4 -29.65 -24.7 -36.3 -31.3 -37.05 -32.05 -30.4" fill="#fbb81e" fill-rule="evenodd" stroke="none"/>
    <path d="M-78.35 -20.0 L-71.7 -20.0 -71.7 -13.3 -78.35 -13.3 -78.35 -20.0 M-32.05 -30.4 L-31.3 -37.05 -24.7 -36.3 -25.4 -29.65 -32.05 -30.4 M-10.6 -40.8 L-14.25 -38.95 -16.1 -42.6 -12.45 -44.4 -10.6 -40.8 M-16.85 -27.0 L-15.05 -23.35 Q-16.85 -22.4 -18.7 -21.5 L-20.5 -25.15 -16.85 -27.0 M11.65 -23.2 L15.3 -25.0 17.15 -21.35 13.5 -19.55 11.65 -23.2 M69.5 -28.0 L66.3 -22.15 60.45 -25.35 63.65 -31.2 69.5 -28.0 M50.75 -18.95 L48.9 -22.6 52.55 -24.4 54.4 -20.75 50.75 -18.95" fill="#ffffff" fill-rule="evenodd" stroke="none"/>
  </g>
</svg>
