<?xml version="1.0" encoding="UTF-8" standalone="no"?>
<svg xmlns:ffdec="https://www.free-decompiler.com/flash" xmlns:xlink="http://www.w3.org/1999/xlink" ffdec:objectType="shape" height="80.7px" width="60.75px" xmlns="http://www.w3.org/2000/svg">
  <g transform="matrix(1.0, 0.0, 0.0, 1.0, 109.45, 137.7)">
    <path d="M-53.05 -74.05 Q-53.6 -71.6 -55.25 -70.15 -56.2 -69.35 -57.95 -68.3 -60.6 -66.35 -57.35 -60.05 -57.85 -60.0 -57.7 -57.85 -57.6 -56.2 -60.7 -57.7 -64.15 -59.4 -64.45 -64.05 L-63.7 -72.05 -57.5 -82.7 Q-51.5 -80.75 -53.05 -74.05" fill="#f6dec0" fill-rule="evenodd" stroke="none"/>
    <path d="M-53.8 -137.7 L-48.7 -107.05 Q-54.2 -106.7 -60.7 -105.3 -73.65 -102.5 -78.4 -97.15 -69.35 -89.9 -62.55 -85.55 L-57.5 -82.7 -63.7 -72.05 -109.45 -98.4 -53.8 -137.7" fill="#efeedf" fill-rule="evenodd" stroke="none"/>
  </g>
</svg>
