<?xml version="1.0" encoding="UTF-8" standalone="no"?>
<svg xmlns:ffdec="https://www.free-decompiler.com/flash" xmlns:xlink="http://www.w3.org/1999/xlink" ffdec:objectType="shape" height="105.0px" width="200.0px" xmlns="http://www.w3.org/2000/svg">
  <g transform="matrix(1.0, 0.0, 0.0, 1.0, 100.0, 105.0)">
    <path d="M66.65 -55.1 L68.6 -60.0 Q80.3 -88.8 93.4 -98.65 82.3 -84.3 74.5 -56.05 72.8 -49.9 71.55 -44.3 L72.0 -45.55 Q76.7 -57.7 85.0 -61.9 78.8 -55.8 76.9 -43.95 76.2 -39.4 76.2 -35.5 81.25 -34.75 85.15 -33.35 L100.0 -33.35 100.0 0.0 -100.0 0.0 -100.0 -33.35 -91.55 -33.35 Q-91.05 -35.9 -87.25 -37.8 -85.05 -38.95 -82.3 -39.5 L-82.3 -47.7 Q-82.7 -71.45 -90.0 -85.0 -79.55 -74.6 -75.45 -49.55 -74.6 -44.55 -74.1 -39.9 L-72.15 -39.7 Q-70.9 -48.95 -68.55 -59.2 -61.15 -91.65 -48.1 -104.4 -57.9 -87.25 -60.85 -56.1 L-61.7 -44.5 -60.75 -48.9 Q-54.25 -77.55 -42.75 -88.8 -51.35 -73.7 -53.95 -46.15 L-54.7 -36.85 -51.05 -37.2 Q-48.3 -44.05 -44.8 -51.45 -32.25 -77.95 -20.0 -86.65 -30.85 -73.65 -39.9 -47.55 L-42.45 -39.75 Q-41.4 -40.5 -39.85 -41.15 -34.75 -43.35 -27.5 -43.35 -20.25 -43.35 -15.1 -41.15 -11.95 -39.8 -10.75 -38.05 L0.0 -37.4 Q-5.5 -47.75 -12.45 -51.75 -4.3 -49.9 3.65 -39.8 L5.8 -36.9 6.45 -36.85 Q1.4 -58.85 -6.65 -70.45 3.4 -62.0 11.65 -38.45 L12.4 -36.2 15.05 -35.85 Q15.35 -41.8 15.25 -48.6 14.9 -72.15 9.2 -85.55 17.35 -75.25 20.65 -50.45 L22.0 -36.65 Q28.35 -61.75 38.9 -72.15 31.0 -58.3 28.15 -34.0 L31.65 -33.35 41.4 -35.0 46.15 -35.65 Q46.4 -41.45 46.3 -48.05 45.95 -71.6 40.25 -85.0 48.45 -74.7 51.7 -49.9 52.65 -42.8 53.05 -36.35 L53.25 -36.35 Q56.6 -45.5 59.65 -56.9 67.5 -86.3 65.1 -105.0 71.65 -89.3 67.0 -57.35 L66.65 -55.1 M-76.2 -35.4 Q-77.8 -34.75 -77.8 -33.75 -77.8 -32.75 -76.2 -32.05 -74.65 -31.4 -72.5 -31.4 -70.3 -31.4 -68.75 -32.05 -67.2 -32.75 -67.2 -33.75 -67.2 -34.75 -68.75 -35.4 -70.3 -36.1 -72.5 -36.1 -74.7 -36.1 -76.2 -35.4 M-53.7 -31.15 Q-55.4 -30.4 -55.4 -29.3 -55.4 -28.2 -53.7 -27.45 -51.95 -26.65 -49.55 -26.65 -47.1 -26.65 -45.35 -27.45 -43.65 -28.2 -43.65 -29.3 -43.65 -30.4 -45.35 -31.15 -47.1 -31.9 -49.55 -31.9 -51.95 -31.9 -53.7 -31.15 M-17.5 -34.1 Q-15.1 -35.15 -15.1 -36.65 -15.1 -38.2 -17.5 -39.25 -19.95 -40.35 -23.35 -40.35 -26.75 -40.35 -29.15 -39.25 -31.55 -38.2 -31.55 -36.65 -31.55 -35.15 -29.15 -34.1 -26.75 -33.0 -23.35 -33.0 -19.9 -33.0 -17.5 -34.1 M25.95 -28.15 Q25.95 -29.15 24.35 -29.9 L20.5 -30.6 Q18.2 -30.6 16.6 -29.9 15.0 -29.15 15.0 -28.15 15.0 -27.15 16.6 -26.45 18.2 -25.75 20.5 -25.75 22.75 -25.75 24.35 -26.45 25.95 -27.15 25.95 -28.15 M39.85 -24.2 Q41.8 -25.1 41.8 -26.3 41.8 -27.55 39.85 -28.4 37.9 -29.25 35.1 -29.25 32.35 -29.25 30.4 -28.4 28.5 -27.55 28.5 -26.3 28.5 -25.1 30.4 -24.2 32.35 -23.35 35.1 -23.35 37.9 -23.35 39.85 -24.2 M61.75 -30.3 Q61.75 -31.3 60.2 -31.95 L56.45 -32.65 Q54.25 -32.65 52.65 -31.95 51.1 -31.3 51.1 -30.3 51.1 -29.3 52.65 -28.6 54.25 -27.95 56.45 -27.95 58.65 -27.95 60.2 -28.6 61.75 -29.3 61.75 -30.3" fill="#fbb81e" fill-rule="evenodd" stroke="none"/>
    <path d="M61.75 -30.3 Q61.75 -29.3 60.2 -28.6 58.65 -27.95 56.45 -27.95 54.25 -27.95 52.65 -28.6 51.1 -29.3 51.1 -30.3 51.1 -31.3 52.65 -31.95 54.25 -32.65 56.45 -32.65 L60.2 -31.95 Q61.75 -31.3 61.75 -30.3 M39.85 -24.2 Q37.9 -23.35 35.1 -23.35 32.35 -23.35 30.4 -24.2 28.5 -25.1 28.5 -26.3 28.5 -27.55 30.4 -28.4 32.35 -29.25 35.1 -29.25 37.9 -29.25 39.85 -28.4 41.8 -27.55 41.8 -26.3 41.8 -25.1 39.85 -24.2 M25.95 -28.15 Q25.95 -27.15 24.35 -26.45 22.75 -25.75 20.5 -25.75 18.2 -25.75 16.6 -26.45 15.0 -27.15 15.0 -28.15 15.0 -29.15 16.6 -29.9 18.2 -30.6 20.5 -30.6 L24.35 -29.9 Q25.95 -29.15 25.95 -28.15 M-17.5 -34.1 Q-19.9 -33.0 -23.35 -33.0 -26.75 -33.0 -29.15 -34.1 -31.55 -35.15 -31.55 -36.65 -31.55 -38.2 -29.15 -39.25 -26.75 -40.35 -23.35 -40.35 -19.95 -40.35 -17.5 -39.25 -15.1 -38.2 -15.1 -36.65 -15.1 -35.15 -17.5 -34.1 M-53.7 -31.15 Q-51.95 -31.9 -49.55 -31.9 -47.1 -31.9 -45.35 -31.15 -43.65 -30.4 -43.65 -29.3 -43.65 -28.2 -45.35 -27.45 -47.1 -26.65 -49.55 -26.65 -51.95 -26.65 -53.7 -27.45 -55.4 -28.2 -55.4 -29.3 -55.4 -30.4 -53.7 -31.15 M-76.2 -35.4 Q-74.7 -36.1 -72.5 -36.1 -70.3 -36.1 -68.75 -35.4 -67.2 -34.75 -67.2 -33.75 -67.2 -32.75 -68.75 -32.05 -70.3 -31.4 -72.5 -31.4 -74.65 -31.4 -76.2 -32.05 -77.8 -32.75 -77.8 -33.75 -77.8 -34.75 -76.2 -35.4" fill="#ffffff" fill-rule="evenodd" stroke="none"/>
  </g>
</svg>
