<?xml version="1.0" encoding="UTF-8" standalone="no"?>
<svg xmlns:ffdec="https://www.free-decompiler.com/flash" xmlns:xlink="http://www.w3.org/1999/xlink" ffdec:objectType="shape" height="135.0px" width="200.05px" xmlns="http://www.w3.org/2000/svg">
  <g transform="matrix(1.0, 0.0, 0.0, 1.0, 100.05, 135.0)">
    <path d="M-48.45 -76.25 L-37.3 -101.5 -43.75 -103.3 -24.35 -135.0 -10.25 -102.7 -17.3 -101.5 -5.55 -74.45 -16.1 -72.7 -0.25 -48.0 -22.6 -48.0 -24.25 -33.35 21.5 -33.35 23.15 -52.3 5.2 -55.05 14.15 -60.65 -0.55 -61.35 16.7 -77.3 9.7 -80.1 34.65 -99.55 50.05 -81.5 44.25 -78.0 60.9 -64.8 50.05 -60.65 55.15 -53.0 32.75 -51.6 36.1 -33.35 69.35 -33.35 72.0 -38.75 56.65 -38.05 65.7 -49.45 62.55 -49.65 70.05 -59.85 65.7 -60.55 78.7 -73.35 88.15 -60.3 83.4 -59.85 91.3 -48.95 84.2 -48.25 94.85 -38.3 79.9 -38.3 78.95 -33.35 100.0 -33.35 100.0 0.0 -100.05 0.0 -100.05 -33.35 -67.7 -33.35 -68.75 -41.15 -80.85 -41.15 -72.25 -52.65 -77.95 -53.45 -71.6 -66.05 -75.4 -66.6 -67.8 -81.65 -57.3 -66.9 -60.8 -66.05 -54.8 -54.3 -57.3 -54.0 -55.6 -50.95 -43.75 -75.65 -48.45 -76.25 M-53.8 -47.7 L-50.0 -40.9 -62.4 -41.7 -59.55 -33.35 -39.0 -33.35 -34.35 -49.2 -53.8 -47.7" fill="#fbb81e" fill-rule="evenodd" stroke="none"/>
  </g>
</svg>
