<?xml version="1.0" encoding="UTF-8" standalone="no"?>
<svg xmlns:ffdec="https://www.free-decompiler.com/flash" xmlns:xlink="http://www.w3.org/1999/xlink" ffdec:objectType="shape" height="165.4px" width="200.0px" xmlns="http://www.w3.org/2000/svg">
  <g transform="matrix(1.0, 0.0, 0.0, 1.0, 100.0, 165.4)">
    <path d="M32.6 -127.15 L31.4 -135.05 42.95 -140.75 42.95 -131.9 32.6 -127.15 M83.15 -109.05 L92.0 -107.9 89.9 -88.3 93.2 -88.2 89.95 -33.35 100.0 -33.35 100.0 0.0 -100.0 0.0 -100.0 -33.35 -89.6 -33.35 -98.7 -90.55 -80.7 -90.55 -79.5 -49.35 -74.0 -48.2 -75.55 -73.3 -62.25 -74.45 -61.15 -33.35 -46.05 -33.35 -50.35 -86.15 -36.3 -96.6 -33.95 -33.35 -31.15 -33.35 -35.1 -106.4 -12.2 -137.85 -15.65 -62.7 10.45 -63.05 11.5 -33.35 26.75 -33.35 20.0 -99.6 55.1 -116.75 59.8 -33.35 66.2 -33.35 66.7 -89.35 72.0 -89.1 72.0 -96.1 82.6 -95.85 83.15 -109.05 M36.35 -138.65 L37.2 -165.4 39.25 -140.25 36.35 -138.65 M25.55 -120.65 L26.2 -113.6 29.1 -113.9 28.45 -120.95 25.55 -120.65 M33.2 -114.5 L32.55 -121.55 29.65 -121.25 30.3 -114.2 33.2 -114.5 M26.25 -104.55 L22.35 -122.45 51.2 -133.4 48.9 -116.25 26.25 -104.55 M1.9 -51.4 L1.55 -58.45 -1.35 -58.3 -1.0 -51.25 1.9 -51.4 M3.7 -51.65 L6.6 -51.8 6.25 -58.85 3.35 -58.7 3.7 -51.65 M30.2 -78.0 L27.3 -77.7 27.95 -70.7 30.85 -71.0 30.2 -78.0 M29.35 -87.4 L26.4 -87.15 27.05 -80.1 29.95 -80.4 29.35 -87.4 M25.9 -89.2 L28.8 -89.5 28.15 -96.55 25.25 -96.25 25.9 -89.2 M33.75 -88.0 L30.85 -87.7 31.45 -80.7 34.4 -81.0 33.75 -88.0 M33.2 -90.1 L32.55 -97.1 29.65 -96.85 30.3 -89.8 33.2 -90.1 M71.75 -65.3 L74.7 -65.2 74.85 -72.25 71.95 -72.35 71.75 -65.3 M46.1 -53.3 L43.15 -53.0 43.8 -46.0 46.75 -46.3 46.1 -53.3 M47.35 -54.8 L50.25 -55.1 49.6 -62.15 46.7 -61.85 47.35 -54.8 M50.5 -53.9 L47.6 -53.6 48.25 -46.6 51.15 -46.85 50.5 -53.9 M75.3 -80.2 L72.35 -80.25 72.2 -73.2 75.15 -73.15 75.3 -80.2 M46.7 -109.2 L47.35 -102.15 50.25 -102.45 49.6 -109.45 46.7 -109.2 M50.8 -100.65 L47.9 -100.35 48.5 -93.35 51.45 -93.6 50.8 -100.65 M7.4 -70.25 Q9.1 -67.45 9.7 -64.65 L-13.45 -63.85 Q-13.65 -66.7 -12.25 -69.6 -9.55 -75.4 -1.7 -75.65 3.95 -75.8 7.4 -70.25 M-29.1 -105.3 L-32.05 -105.15 -31.7 -98.1 -28.75 -98.25 -29.1 -105.3 M81.9 -39.1 L84.85 -39.0 85.0 -46.1 82.05 -46.15 81.9 -39.1 M85.0 -37.55 L82.05 -37.65 81.9 -30.6 84.85 -30.5 85.0 -37.55 M85.3 -54.3 L82.35 -54.4 82.2 -47.35 85.15 -47.25 85.3 -54.3 M77.5 -30.6 L80.4 -30.5 80.6 -37.55 77.65 -37.65 77.5 -30.6 M7.5 -30.4 L7.15 -37.45 4.2 -37.3 4.55 -30.25 7.5 -30.4 M28.45 -68.6 L29.1 -61.55 32.05 -61.85 31.4 -68.9 28.45 -68.6 M-31.45 -113.25 L-31.1 -140.7 -29.1 -117.2 -31.45 -113.25 M-83.05 -97.0 L-84.2 -92.3 -95.2 -91.9 -95.95 -97.0 -83.05 -97.0 M-20.6 -49.15 L-23.55 -49.0 -23.2 -41.95 -20.25 -42.1 -20.6 -49.15 M-65.7 -53.75 L-66.05 -60.8 -69.0 -60.65 -68.65 -53.6 -65.7 -53.75 M-45.0 -77.05 L-47.95 -76.9 -47.6 -69.85 -44.65 -70.0 -45.0 -77.05 M-44.95 -78.25 L-45.3 -85.3 -48.25 -85.15 -47.9 -78.1 -44.95 -78.25 M-40.25 -54.85 L-37.3 -55.0 -37.65 -62.05 -40.6 -61.95 -40.25 -54.85 M-20.85 -50.6 L-21.2 -57.65 -24.1 -57.5 -23.75 -50.45 -20.85 -50.6 M-30.8 -81.35 L-27.9 -81.5 -28.25 -88.55 -31.2 -88.4 -30.8 -81.35 M-28.45 -90.0 L-28.8 -97.05 -31.75 -96.9 -31.4 -89.85 -28.45 -90.0 M-27.0 -89.85 L-24.05 -90.0 -24.4 -97.05 -27.35 -96.9 -27.0 -89.85 M-89.75 -78.25 L-92.7 -78.1 -92.35 -71.05 -89.4 -71.2 -89.75 -78.25 M-93.1 -87.15 L-92.75 -80.05 -89.85 -80.2 -90.2 -87.25 -93.1 -87.15" fill="#fbb81e" fill-rule="evenodd" stroke="none"/>
    <path d="M33.2 -114.5 L30.3 -114.2 29.65 -121.25 32.55 -121.55 33.2 -114.5 M25.55 -120.65 L28.45 -120.95 29.1 -113.9 26.2 -113.6 25.55 -120.65 M50.8 -100.65 L51.45 -93.6 48.5 -93.35 47.9 -100.35 50.8 -100.65 M46.7 -109.2 L49.6 -109.45 50.25 -102.45 47.35 -102.15 46.7 -109.2 M75.3 -80.2 L75.15 -73.15 72.2 -73.2 72.35 -80.25 75.3 -80.2 M50.5 -53.9 L51.15 -46.85 48.25 -46.6 47.6 -53.6 50.5 -53.9 M47.35 -54.8 L46.7 -61.85 49.6 -62.15 50.25 -55.1 47.35 -54.8 M46.1 -53.3 L46.75 -46.3 43.8 -46.0 43.15 -53.0 46.1 -53.3 M71.75 -65.3 L71.95 -72.35 74.85 -72.25 74.7 -65.2 71.75 -65.3 M33.2 -90.1 L30.3 -89.8 29.65 -96.85 32.55 -97.1 33.2 -90.1 M33.75 -88.0 L34.4 -81.0 31.45 -80.7 30.85 -87.7 33.75 -88.0 M25.9 -89.2 L25.25 -96.25 28.15 -96.55 28.8 -89.5 25.9 -89.2 M29.35 -87.4 L29.95 -80.4 27.05 -80.1 26.4 -87.15 29.35 -87.4 M30.2 -78.0 L30.85 -71.0 27.95 -70.7 27.3 -77.7 30.2 -78.0 M3.7 -51.65 L3.35 -58.7 6.25 -58.85 6.6 -51.8 3.7 -51.65 M1.9 -51.4 L-1.0 -51.25 -1.35 -58.3 1.55 -58.45 1.9 -51.4 M28.45 -68.6 L31.4 -68.9 32.05 -61.85 29.1 -61.55 28.45 -68.6 M7.5 -30.4 L4.55 -30.25 4.2 -37.3 7.15 -37.45 7.5 -30.4 M77.5 -30.6 L77.65 -37.65 80.6 -37.55 80.4 -30.5 77.5 -30.6 M85.3 -54.3 L85.15 -47.25 82.2 -47.35 82.35 -54.4 85.3 -54.3 M85.0 -37.55 L84.85 -30.5 81.9 -30.6 82.05 -37.65 85.0 -37.55 M81.9 -39.1 L82.05 -46.15 85.0 -46.1 84.85 -39.0 81.9 -39.1 M-29.1 -105.3 L-28.75 -98.25 -31.7 -98.1 -32.05 -105.15 -29.1 -105.3 M-93.1 -87.15 L-90.2 -87.25 -89.85 -80.2 -92.75 -80.05 -93.1 -87.15 M-89.75 -78.25 L-89.4 -71.2 -92.35 -71.05 -92.7 -78.1 -89.75 -78.25 M-27.0 -89.85 L-27.35 -96.9 -24.4 -97.05 -24.05 -90.0 -27.0 -89.85 M-28.45 -90.0 L-31.4 -89.85 -31.75 -96.9 -28.8 -97.05 -28.45 -90.0 M-30.8 -81.35 L-31.2 -88.4 -28.25 -88.55 -27.9 -81.5 -30.8 -81.35 M-20.85 -50.6 L-23.75 -50.45 -24.1 -57.5 -21.2 -57.65 -20.85 -50.6 M-40.25 -54.85 L-40.6 -61.95 -37.65 -62.05 -37.3 -55.0 -40.25 -54.85 M-44.95 -78.25 L-47.9 -78.1 -48.25 -85.15 -45.3 -85.3 -44.95 -78.25 M-45.0 -77.05 L-44.65 -70.0 -47.6 -69.85 -47.95 -76.9 -45.0 -77.05 M-65.7 -53.75 L-68.65 -53.6 -69.0 -60.65 -66.05 -60.8 -65.7 -53.75 M-20.6 -49.15 L-20.25 -42.1 -23.2 -41.95 -23.55 -49.0 -20.6 -49.15" fill="#ffffff" fill-rule="evenodd" stroke="none"/>
  </g>
</svg>
