<?xml version="1.0" encoding="UTF-8" standalone="no"?>
<svg xmlns:ffdec="https://www.free-decompiler.com/flash" xmlns:xlink="http://www.w3.org/1999/xlink" ffdec:objectType="shape" height="142.6px" width="200.0px" xmlns="http://www.w3.org/2000/svg">
  <g transform="matrix(1.0, 0.0, 0.0, 1.0, 100.0, 142.6)">
    <path d="M-87.65 -58.15 Q-86.65 -59.6 -86.65 -61.7 -86.65 -63.75 -87.65 -65.2 -88.6 -66.7 -90.0 -66.7 L-90.0 -71.7 -81.5 -71.7 -80.8 -78.35 -86.65 -78.35 -80.55 -81.4 -80.3 -83.35 Q-81.5 -83.45 -82.35 -84.3 -83.3 -85.3 -83.3 -86.7 -83.3 -88.1 -82.35 -89.05 -81.4 -90.0 -80.0 -90.0 -78.6 -90.0 -77.65 -89.05 -76.7 -88.1 -76.7 -86.7 -76.7 -85.3 -77.65 -84.3 -78.5 -83.45 -79.65 -83.35 L-79.45 -81.4 -73.3 -78.35 -79.15 -78.35 -78.45 -71.7 -70.0 -71.7 -70.0 -66.7 Q-71.4 -66.7 -72.35 -65.2 -73.3 -63.75 -73.3 -61.7 -73.3 -59.65 -72.35 -58.15 -71.4 -56.7 -70.0 -56.7 L-70.0 -50.0 -90.0 -50.0 -90.0 -56.7 Q-88.6 -56.7 -87.65 -58.15 M-28.35 -95.6 L-68.6 -92.5 Q-68.9 -96.5 -66.7 -100.75 -62.6 -108.55 -51.5 -110.0 L-51.4 -114.05 -58.1 -113.55 -51.35 -117.6 -51.35 -118.15 -58.4 -117.6 -51.25 -121.9 -51.2 -124.25 Q-52.6 -124.25 -53.7 -125.25 -55.0 -126.35 -55.1 -128.0 -55.25 -129.7 -54.15 -130.95 -53.05 -132.2 -51.4 -132.35 -49.75 -132.45 -48.5 -131.35 -47.2 -130.25 -47.05 -128.6 -46.9 -126.95 -48.05 -125.7 -49.0 -124.55 -50.4 -124.3 L-50.0 -122.0 -42.25 -118.85 -49.3 -118.25 -49.2 -117.75 -41.95 -114.8 -48.6 -114.3 -47.9 -110.25 Q-36.7 -110.55 -31.5 -103.45 -28.65 -99.6 -28.35 -95.6 M-31.9 -89.25 L-64.15 -86.75 -68.45 -90.45 -28.2 -93.55 -31.9 -89.25 M7.25 -91.8 Q8.95 -94.1 9.05 -97.45 9.2 -100.8 7.75 -103.2 6.3 -105.6 4.1 -105.7 L4.45 -113.8 18.1 -113.2 19.6 -123.9 10.2 -124.3 20.3 -128.85 20.75 -131.9 Q18.9 -132.2 17.55 -133.6 16.05 -135.25 16.15 -137.45 16.25 -139.7 17.9 -141.2 19.55 -142.75 21.75 -142.6 24.0 -142.55 25.5 -140.9 27.0 -139.25 26.9 -137.05 26.8 -134.8 25.15 -133.3 23.75 -131.95 21.85 -131.9 L22.05 -128.75 31.7 -123.4 22.3 -123.75 22.9 -113.0 36.65 -112.4 36.3 -104.35 36.25 -104.35 Q34.05 -104.45 32.35 -102.15 30.7 -99.85 30.55 -96.55 30.4 -93.2 31.9 -90.75 33.35 -88.35 35.6 -88.25 L35.65 -88.25 35.15 -77.55 2.95 -78.9 3.4 -89.65 Q5.6 -89.55 7.25 -91.8 M-49.4 -79.75 L-45.35 -80.1 -35.85 -33.35 -20.35 -33.35 -18.05 -44.3 -15.25 -44.1 -14.8 -33.35 10.1 -33.35 15.85 -67.6 21.25 -67.35 24.05 -33.35 29.65 -33.35 Q30.05 -35.85 31.6 -38.35 35.45 -44.5 44.65 -45.0 L45.7 -55.05 Q44.6 -55.2 43.8 -56.0 42.85 -57.0 42.85 -58.35 42.85 -59.75 43.8 -60.7 44.8 -61.7 46.15 -61.7 47.55 -61.7 48.5 -60.7 49.5 -59.75 49.5 -58.35 49.5 -57.0 48.5 -56.0 47.75 -55.2 46.65 -55.05 L47.65 -45.0 Q56.85 -44.5 60.75 -38.35 62.3 -35.85 62.7 -33.35 L76.25 -33.35 78.35 -50.0 81.65 -50.0 83.75 -33.35 100.0 -33.35 100.0 0.0 -100.0 0.0 -100.0 -33.35 -82.9 -33.35 -81.65 -43.35 -78.3 -43.35 -77.05 -33.35 -51.6 -33.35 -49.4 -79.75 M-51.55 -81.6 L-55.9 -85.35 -39.8 -86.6 -43.5 -82.25 -51.55 -81.6 M-83.55 -58.15 Q-82.05 -56.7 -80.0 -56.7 -77.9 -56.7 -76.45 -58.15 -75.0 -59.6 -75.0 -61.7 -75.0 -63.75 -76.45 -65.2 -77.9 -66.7 -80.0 -66.7 -82.05 -66.7 -83.55 -65.2 -85.0 -63.75 -85.0 -61.7 -85.0 -59.6 -83.55 -58.15 M-73.3 -48.35 L-76.7 -45.0 -83.3 -45.0 -86.65 -48.35 -73.3 -48.35 M-15.75 -80.05 Q-14.85 -80.8 -13.7 -80.7 -12.5 -80.6 -11.8 -79.75 -11.0 -78.85 -11.1 -77.7 -11.2 -76.5 -12.1 -75.75 -12.85 -75.1 -13.85 -75.05 L-13.85 -73.4 -8.85 -70.4 -13.8 -70.8 -13.75 -70.45 -9.1 -67.6 -13.7 -68.0 -13.65 -65.15 Q-5.95 -64.15 -3.1 -58.65 -1.6 -55.7 -1.8 -52.9 L-29.9 -55.15 Q-29.65 -57.95 -27.7 -60.65 -24.0 -65.55 -16.2 -65.35 L-15.7 -68.15 -20.35 -68.55 -15.25 -70.55 -15.2 -70.9 -20.1 -71.35 -14.7 -73.45 -14.45 -75.1 Q-15.4 -75.3 -16.05 -76.05 -16.8 -76.95 -16.7 -78.1 -16.65 -79.3 -15.75 -80.05 M-21.95 -48.85 L-10.7 -47.95 -13.7 -45.35 -19.35 -45.8 -21.95 -48.85 M-30.0 -53.75 L-1.9 -51.5 -4.95 -48.9 -27.45 -50.7 -30.0 -53.75 M80.0 -120.0 Q81.4 -120.0 82.35 -119.05 83.35 -118.05 83.35 -116.7 83.35 -115.3 82.35 -114.35 81.5 -113.5 80.35 -113.35 L80.55 -111.4 86.65 -108.35 80.85 -108.35 81.5 -101.7 90.0 -101.7 90.0 -96.7 Q88.65 -96.7 87.65 -95.25 86.65 -93.75 86.65 -91.7 86.65 -89.6 87.65 -88.15 88.65 -86.7 90.0 -86.7 L90.0 -80.05 70.0 -80.05 70.0 -86.7 Q71.35 -86.7 72.35 -88.15 73.35 -89.6 73.35 -91.7 73.35 -93.75 72.35 -95.25 71.35 -96.7 70.0 -96.7 L70.0 -101.7 78.5 -101.7 79.2 -108.35 73.35 -108.35 79.5 -111.4 79.7 -113.35 Q78.5 -113.5 77.65 -114.35 76.65 -115.3 76.65 -116.7 76.65 -118.05 77.65 -119.05 78.65 -120.0 80.0 -120.0 M75.0 -91.7 Q75.0 -89.6 76.5 -88.15 77.95 -86.7 80.0 -86.7 82.1 -86.7 83.55 -88.15 85.0 -89.6 85.0 -91.7 85.0 -93.75 83.55 -95.25 82.1 -96.7 80.0 -96.7 77.95 -96.7 76.5 -95.25 75.0 -93.75 75.0 -91.7 M19.45 -88.95 Q22.8 -88.8 25.25 -91.05 27.75 -93.3 27.85 -96.65 28.0 -100.0 25.75 -102.45 23.45 -104.9 20.15 -105.05 16.85 -105.15 14.35 -102.95 11.9 -100.65 11.75 -97.35 11.6 -94.0 13.9 -91.55 16.15 -89.1 19.45 -88.95 M13.3 -70.4 L8.15 -75.95 29.65 -75.05 24.05 -69.9 13.3 -70.4 M90.0 -78.35 L90.0 -73.35 Q88.65 -73.35 87.65 -71.9 86.65 -70.4 86.65 -68.35 86.65 -66.25 87.65 -64.85 88.65 -63.35 90.0 -63.35 L90.0 -56.7 70.0 -56.7 70.0 -63.35 Q71.35 -63.35 72.35 -64.85 73.35 -66.25 73.35 -68.35 73.35 -70.4 72.35 -71.9 71.35 -73.35 70.0 -73.35 L70.0 -78.35 90.0 -78.35 M80.0 -73.35 Q77.95 -73.35 76.5 -71.9 75.0 -70.4 75.0 -68.35 75.0 -66.25 76.5 -64.85 77.95 -63.35 80.0 -63.35 82.1 -63.35 83.55 -64.85 85.0 -66.25 85.0 -68.35 85.0 -70.4 83.55 -71.9 82.1 -73.35 80.0 -73.35 M86.65 -55.0 L83.35 -51.7 76.65 -51.7 73.35 -55.0 86.65 -55.0" fill="#fbb81e" fill-rule="evenodd" stroke="none"/>
  </g>
</svg>
