<?xml version="1.0" encoding="UTF-8" standalone="no"?>
<svg xmlns:ffdec="https://www.free-decompiler.com/flash" xmlns:xlink="http://www.w3.org/1999/xlink" ffdec:objectType="shape" height="134.4px" width="200.0px" xmlns="http://www.w3.org/2000/svg">
  <g transform="matrix(1.0, 0.0, 0.0, 1.0, 100.0, 134.4)">
    <path d="M27.5 -128.95 L30.0 -130.6 30.05 -132.45 31.9 -131.0 34.2 -131.75 32.9 -129.8 35.45 -128.05 32.75 -128.15 30.35 -126.35 30.0 -128.25 27.5 -128.95 M7.95 -126.65 Q-3.25 -124.7 -19.2 -118.1 -36.85 -110.35 -45.55 -107.1 -44.35 -107.25 -42.55 -107.95 L-39.7 -109.2 -26.85 -113.8 Q-16.45 -117.25 -2.3 -119.5 -6.55 -117.85 -23.3 -112.25 -36.75 -107.75 -44.0 -104.25 -48.0 -102.3 -56.8 -96.15 -65.4 -90.25 -67.1 -89.45 -69.45 -88.4 -71.8 -88.9 -74.1 -89.4 -75.6 -91.0 -77.1 -92.65 -77.15 -94.9 -77.25 -97.35 -75.45 -99.75 -72.95 -103.05 -68.3 -106.0 -65.05 -108.05 -59.7 -110.45 -55.85 -112.25 -49.9 -113.95 L-39.9 -117.15 Q-34.35 -119.25 -25.8 -121.95 L-11.5 -126.45 -22.35 -122.25 Q-27.85 -119.85 -30.3 -118.8 L-38.0 -115.3 -45.55 -111.65 Q-32.15 -117.0 -23.4 -119.75 -13.25 -123.0 -4.35 -124.7 L1.75 -126.0 7.95 -126.65 M-77.1 -131.95 L-71.95 -131.8 -70.15 -134.4 -68.9 -130.55 -64.9 -129.35 -68.65 -127.9 -66.8 -122.95 -70.5 -125.7 -75.6 -125.5 -74.3 -128.5 -77.1 -131.95 M90.85 -77.05 L89.25 -74.7 92.35 -72.55 89.1 -72.6 86.25 -70.4 85.7 -72.7 82.65 -73.55 85.7 -75.55 85.7 -77.8 88.0 -76.1 90.85 -77.05 M7.5 -91.55 L8.3 -96.3 12.5 -91.8 18.9 -92.9 14.65 -88.35 20.45 -82.8 13.6 -84.1 6.7 -80.4 6.45 -85.45 0.35 -88.35 7.5 -91.55 M48.15 -78.0 Q52.75 -88.95 57.5 -97.9 68.5 -118.65 74.1 -116.85 79.7 -115.05 76.6 -91.8 75.2 -81.2 72.4 -68.95 75.25 -66.25 77.55 -62.7 85.25 -50.95 82.45 -37.2 L81.45 -33.35 100.0 -33.35 100.0 0.0 -100.0 0.0 -100.0 -33.35 17.05 -33.35 Q14.15 -41.7 16.1 -50.95 18.95 -64.7 30.65 -72.4 38.9 -77.8 48.15 -78.0 M66.7 -83.1 L64.8 -74.3 66.65 -73.25 Q68.4 -80.6 69.6 -87.2 73.3 -107.45 69.8 -108.55 66.35 -109.65 57.6 -91.05 54.75 -84.9 51.9 -77.9 L53.25 -77.75 56.9 -86.2 Q64.5 -102.9 67.35 -101.95 70.2 -101.05 66.7 -83.1 M61.75 -75.6 L62.55 -79.0 Q66.2 -94.7 64.4 -95.3 62.6 -95.9 56.4 -80.95 L55.0 -77.45 56.1 -77.25 61.75 -75.6 M45.1 -101.95 L47.1 -100.4 49.65 -101.25 48.2 -99.1 50.9 -97.25 48.0 -97.3 45.45 -95.4 45.05 -97.4 42.35 -98.2 45.05 -99.95 45.1 -101.95 M54.35 -112.9 L50.65 -115.6 45.55 -115.4 46.8 -118.45 44.05 -121.9 49.2 -121.7 51.0 -124.3 52.2 -120.45 56.25 -119.25 52.5 -117.8 54.35 -112.9 M-47.05 -107.8 Q-47.05 -107.35 -46.6 -107.35 -46.15 -107.35 -46.15 -107.8 L-46.25 -108.15 -46.6 -108.3 -46.9 -108.15 -47.05 -107.8 M-49.85 -110.3 L-50.2 -110.45 -50.5 -110.3 -50.65 -109.95 -50.5 -109.65 Q-50.35 -109.5 -50.2 -109.5 L-49.85 -109.65 -49.7 -109.95 -49.85 -110.3 M-43.65 -109.9 Q-43.5 -110.05 -43.5 -110.25 -43.5 -110.7 -44.0 -110.7 L-44.45 -110.25 -44.3 -109.9 Q-44.2 -109.75 -44.0 -109.75 -43.75 -109.75 -43.65 -109.9 M-51.35 -104.25 Q-51.35 -104.75 -51.85 -104.75 L-52.2 -104.6 -52.35 -104.25 -52.2 -103.95 -51.85 -103.8 Q-51.35 -103.8 -51.35 -104.25 M-58.85 -103.65 Q-59.2 -104.05 -59.7 -104.05 -60.2 -104.05 -60.55 -103.65 L-60.9 -102.8 Q-60.9 -102.35 -60.55 -102.0 -60.2 -101.65 -59.7 -101.65 -59.2 -101.65 -58.85 -102.0 -58.5 -102.35 -58.5 -102.8 -58.5 -103.3 -58.85 -103.65 M-56.1 -102.35 L-56.45 -102.2 -56.6 -101.9 -56.45 -101.55 Q-56.35 -101.4 -56.1 -101.4 -55.9 -101.4 -55.8 -101.55 -55.65 -101.65 -55.65 -101.9 -55.65 -102.35 -56.1 -102.35 M-57.1 -105.95 L-57.35 -105.45 -57.1 -104.95 -56.6 -104.75 Q-56.35 -104.75 -56.1 -104.95 L-55.9 -105.45 -56.1 -105.95 Q-56.3 -106.15 -56.6 -106.15 L-57.1 -105.95 M-51.6 -106.4 Q-51.1 -106.4 -51.1 -106.9 -51.1 -107.35 -51.6 -107.35 L-52.05 -106.9 Q-52.05 -106.4 -51.6 -106.4 M-54.55 -109.15 L-54.2 -109.05 Q-53.75 -109.05 -53.75 -109.5 -53.75 -109.95 -54.2 -109.95 L-54.55 -109.8 -54.7 -109.5 -54.55 -109.15 M-63.55 -102.6 Q-63.3 -102.9 -63.3 -103.3 -63.3 -103.7 -63.55 -103.95 -63.85 -104.25 -64.25 -104.25 L-64.9 -103.95 -65.2 -103.3 -64.9 -102.6 Q-64.65 -102.35 -64.25 -102.35 -63.8 -102.35 -63.55 -102.6 M-66.45 -103.25 Q-67.05 -103.8 -67.8 -103.8 -68.6 -103.8 -69.2 -103.25 -69.75 -102.65 -69.75 -101.9 L-69.6 -101.1 -70.2 -101.15 Q-72.55 -101.15 -74.25 -99.45 -75.95 -97.8 -75.95 -95.45 -75.95 -93.05 -74.25 -91.4 -72.55 -89.7 -70.2 -89.7 -67.8 -89.7 -66.15 -91.4 -64.95 -92.55 -64.6 -94.05 -63.9 -94.2 -63.3 -94.75 -62.55 -95.55 -62.55 -96.6 L-62.6 -97.15 -62.1 -97.1 Q-61.3 -97.1 -60.75 -97.65 -60.2 -98.2 -60.2 -99.0 -60.2 -99.8 -60.75 -100.35 -61.3 -100.9 -62.1 -100.9 -62.9 -100.9 -63.45 -100.35 -64.0 -99.8 -64.0 -99.0 L-64.0 -98.95 -65.2 -99.25 -65.85 -99.15 -66.15 -99.45 -66.95 -100.15 -66.45 -100.55 Q-65.9 -101.1 -65.9 -101.9 -65.9 -102.65 -66.45 -103.25 M-62.45 -107.25 Q-62.8 -106.9 -62.8 -106.4 -62.8 -105.9 -62.45 -105.55 -62.1 -105.2 -61.6 -105.2 -61.1 -105.2 -60.75 -105.55 -60.4 -105.9 -60.4 -106.4 -60.4 -106.9 -60.75 -107.25 -61.1 -107.6 -61.6 -107.6 -62.1 -107.6 -62.45 -107.25 M-9.5 -89.95 L-9.5 -87.6 -7.55 -86.2 -9.9 -86.1 -9.75 -83.05 -11.25 -85.2 -14.15 -86.0 -12.9 -87.45 -13.8 -89.85 -11.0 -88.85 -9.5 -89.95 M-87.2 -45.6 L-90.25 -46.45 -87.15 -48.45 -87.2 -50.75 -84.85 -49.0 -82.05 -50.0 -83.65 -47.6 -80.5 -45.45 -83.8 -45.55 -86.65 -43.3 -87.2 -45.6 M-91.45 -105.9 L-88.65 -110.75 -85.3 -105.2 -80.55 -104.65 -84.95 -101.2 -83.8 -96.2 -88.35 -99.45 -93.8 -94.7 -92.6 -100.15 -96.45 -105.55 -91.45 -105.9 M-23.7 -63.2 L-55.75 -62.6 Q-55.85 -67.8 -51.2 -71.55 -46.6 -75.3 -40.0 -75.4 -33.35 -75.55 -28.6 -71.95 -23.8 -68.4 -23.7 -63.2 M-25.8 -59.45 Q-26.1 -58.3 -25.45 -57.25 -24.85 -56.15 -23.7 -55.8 L-21.6 -55.95 Q-20.65 -56.55 -20.35 -57.7 -20.15 -58.85 -20.75 -59.95 -21.35 -61.05 -22.5 -61.4 L-24.6 -61.2 Q-25.6 -60.6 -25.8 -59.45 M-37.65 -60.8 Q-39.1 -60.8 -40.15 -59.95 -41.15 -59.05 -41.15 -57.8 -41.15 -56.6 -40.15 -55.7 -39.1 -54.8 -37.65 -54.8 -36.2 -54.8 -35.2 -55.7 -34.15 -56.6 -34.15 -57.8 -34.15 -59.05 -35.2 -59.95 -36.2 -60.8 -37.65 -60.8 M-16.2 -60.35 L-16.3 -60.2 Q-16.6 -59.55 -16.0 -58.7 -15.45 -57.9 -14.3 -57.4 -13.15 -56.9 -12.15 -56.95 -11.15 -57.1 -10.85 -57.75 L-10.75 -58.25 0.3 -54.05 -76.8 -54.05 -67.05 -57.55 -66.95 -56.9 Q-66.65 -56.2 -65.7 -56.05 L-63.6 -56.3 Q-62.5 -56.8 -61.95 -57.65 -61.4 -58.45 -61.75 -59.2 L-61.9 -59.45 -57.75 -60.95 -20.75 -62.1 -16.2 -60.35 M-57.8 -98.05 Q-57.8 -98.55 -58.25 -98.55 L-58.6 -98.4 -58.75 -98.05 -58.6 -97.75 Q-58.45 -97.6 -58.25 -97.6 -57.8 -97.6 -57.8 -98.05 M-54.35 -55.15 L-52.4 -55.3 Q-51.4 -55.8 -51.0 -56.95 -50.55 -58.05 -51.0 -59.1 -51.4 -60.15 -52.4 -60.5 L-54.35 -60.35 Q-55.35 -59.8 -55.75 -58.7 -56.2 -57.6 -55.75 -56.55 -55.35 -55.55 -54.35 -55.15 M-53.85 -48.55 L-25.25 -48.55 -28.45 -45.35 -51.4 -45.7 -53.85 -48.55 M-62.75 -49.4 L-76.8 -52.95 -0.7 -52.95 -16.75 -49.4 -62.75 -49.4" fill="#fbb81e" fill-rule="evenodd" stroke="none"/>
    <path d="M-62.45 -107.25 Q-62.1 -107.6 -61.6 -107.6 -61.1 -107.6 -60.75 -107.25 -60.4 -106.9 -60.4 -106.4 -60.4 -105.9 -60.75 -105.55 -61.1 -105.2 -61.6 -105.2 -62.1 -105.2 -62.45 -105.55 -62.8 -105.9 -62.8 -106.4 -62.8 -106.9 -62.45 -107.25 M-66.45 -103.25 Q-65.9 -102.65 -65.9 -101.9 -65.9 -101.1 -66.45 -100.55 L-66.95 -100.15 -66.15 -99.45 -65.85 -99.15 -65.2 -99.25 -64.0 -98.95 -64.0 -99.0 Q-64.0 -99.8 -63.45 -100.35 -62.9 -100.9 -62.1 -100.9 -61.3 -100.9 -60.75 -100.35 -60.2 -99.8 -60.2 -99.0 -60.2 -98.2 -60.75 -97.65 -61.3 -97.1 -62.1 -97.1 L-62.6 -97.15 -62.55 -96.6 Q-62.55 -95.55 -63.3 -94.75 -63.9 -94.2 -64.6 -94.05 -64.95 -92.55 -66.15 -91.4 -67.8 -89.7 -70.2 -89.7 -72.55 -89.7 -74.25 -91.4 -75.95 -93.05 -75.95 -95.45 -75.95 -97.8 -74.25 -99.45 -72.55 -101.15 -70.2 -101.15 L-69.6 -101.1 -69.75 -101.9 Q-69.75 -102.65 -69.2 -103.25 -68.6 -103.8 -67.8 -103.8 -67.05 -103.8 -66.45 -103.25 M-63.55 -102.6 Q-63.8 -102.35 -64.25 -102.35 -64.65 -102.35 -64.9 -102.6 L-65.2 -103.3 -64.9 -103.95 -64.25 -104.25 Q-63.85 -104.25 -63.55 -103.95 -63.3 -103.7 -63.3 -103.3 -63.3 -102.9 -63.55 -102.6 M-54.55 -109.15 L-54.7 -109.5 -54.55 -109.8 -54.2 -109.95 Q-53.75 -109.95 -53.75 -109.5 -53.75 -109.05 -54.2 -109.05 L-54.55 -109.15 M-51.6 -106.4 Q-52.05 -106.4 -52.05 -106.9 L-51.6 -107.35 Q-51.1 -107.35 -51.1 -106.9 -51.1 -106.4 -51.6 -106.4 M-57.1 -105.95 L-56.6 -106.15 Q-56.3 -106.15 -56.1 -105.95 L-55.9 -105.45 -56.1 -104.95 Q-56.35 -104.75 -56.6 -104.75 L-57.1 -104.95 -57.35 -105.45 -57.1 -105.95 M-56.1 -102.35 Q-55.65 -102.35 -55.65 -101.9 -55.65 -101.65 -55.8 -101.55 -55.9 -101.4 -56.1 -101.4 -56.35 -101.4 -56.45 -101.55 L-56.6 -101.9 -56.45 -102.2 -56.1 -102.35 M-58.85 -103.65 Q-58.5 -103.3 -58.5 -102.8 -58.5 -102.35 -58.85 -102.0 -59.2 -101.65 -59.7 -101.65 -60.2 -101.65 -60.55 -102.0 -60.9 -102.35 -60.9 -102.8 L-60.55 -103.65 Q-60.2 -104.05 -59.7 -104.05 -59.2 -104.05 -58.85 -103.65 M-51.35 -104.25 Q-51.35 -103.8 -51.85 -103.8 L-52.2 -103.95 -52.35 -104.25 -52.2 -104.6 -51.85 -104.75 Q-51.35 -104.75 -51.35 -104.25 M-43.65 -109.9 Q-43.75 -109.75 -44.0 -109.75 -44.2 -109.75 -44.3 -109.9 L-44.45 -110.25 -44.0 -110.7 Q-43.5 -110.7 -43.5 -110.25 -43.5 -110.05 -43.65 -109.9 M-49.85 -110.3 L-49.7 -109.95 -49.85 -109.65 -50.2 -109.5 Q-50.35 -109.5 -50.5 -109.65 L-50.65 -109.95 -50.5 -110.3 -50.2 -110.45 -49.85 -110.3 M-47.05 -107.8 L-46.9 -108.15 -46.6 -108.3 -46.25 -108.15 -46.15 -107.8 Q-46.15 -107.35 -46.6 -107.35 -47.05 -107.35 -47.05 -107.8 M-37.65 -60.8 Q-36.2 -60.8 -35.2 -59.95 -34.15 -59.05 -34.15 -57.8 -34.15 -56.6 -35.2 -55.7 -36.2 -54.8 -37.65 -54.8 -39.1 -54.8 -40.15 -55.7 -41.15 -56.6 -41.15 -57.8 -41.15 -59.05 -40.15 -59.95 -39.1 -60.8 -37.65 -60.8 M-25.8 -59.45 Q-25.6 -60.6 -24.6 -61.2 L-22.5 -61.4 Q-21.35 -61.05 -20.75 -59.95 -20.15 -58.85 -20.35 -57.7 -20.65 -56.55 -21.6 -55.95 L-23.7 -55.8 Q-24.85 -56.15 -25.45 -57.25 -26.1 -58.3 -25.8 -59.45 M-16.2 -60.35 Q-15.85 -60.8 -15.0 -60.9 L-12.9 -60.55 Q-11.75 -60.05 -11.15 -59.2 -10.8 -58.7 -10.75 -58.25 L-10.85 -57.75 Q-11.15 -57.1 -12.15 -56.95 -13.15 -56.9 -14.3 -57.4 -15.45 -57.9 -16.0 -58.7 -16.6 -59.55 -16.3 -60.2 L-16.2 -60.35 M-67.05 -57.55 L-66.75 -58.45 Q-66.2 -59.25 -65.1 -59.75 L-63.05 -60.05 Q-62.25 -59.9 -61.9 -59.45 L-61.75 -59.2 Q-61.4 -58.45 -61.95 -57.65 -62.5 -56.8 -63.6 -56.3 L-65.7 -56.05 Q-66.65 -56.2 -66.95 -56.9 L-67.05 -57.55 M-57.8 -98.05 Q-57.8 -97.6 -58.25 -97.6 -58.45 -97.6 -58.6 -97.75 L-58.75 -98.05 -58.6 -98.4 -58.25 -98.55 Q-57.8 -98.55 -57.8 -98.05 M-54.35 -55.15 Q-55.35 -55.55 -55.75 -56.55 -56.2 -57.6 -55.75 -58.7 -55.35 -59.8 -54.35 -60.35 L-52.4 -60.5 Q-51.4 -60.15 -51.0 -59.1 -50.55 -58.05 -51.0 -56.95 -51.4 -55.8 -52.4 -55.3 L-54.35 -55.15" fill="#ffffff" fill-rule="evenodd" stroke="none"/>
  </g>
</svg>
