<?xml version="1.0" encoding="UTF-8" standalone="no"?>
<svg xmlns:ffdec="https://www.free-decompiler.com/flash" xmlns:xlink="http://www.w3.org/1999/xlink" ffdec:objectType="shape" height="137.6px" width="140.0px" xmlns="http://www.w3.org/2000/svg">
  <g transform="matrix(1.0, 0.0, 0.0, 1.0, 69.85, 142.05)">
    <path d="M32.6 -4.45 Q31.15 -12.6 30.85 -28.15 L30.85 -42.1 44.45 -42.1 41.95 -30.9 Q39.55 -18.2 40.3 -11.0 42.9 -7.8 46.9 -5.8 48.9 -4.8 50.35 -4.45 L32.6 -4.45 M-42.6 -5.8 Q-38.6 -7.8 -36.0 -11.0 -35.3 -18.2 -37.65 -30.9 L-40.15 -42.1 -26.55 -42.1 -26.55 -28.15 Q-26.85 -12.6 -28.35 -4.45 L-46.05 -4.45 Q-44.55 -4.8 -42.6 -5.8" fill="#738c94" fill-rule="evenodd" stroke="none"/>
    <path d="M-52.15 -138.75 Q-29.5 -125.35 1.2 -125.8 29.55 -126.25 54.65 -137.95 46.5 -124.55 22.65 -113.05 10.75 -107.3 0.45 -104.2 -8.85 -107.95 -20.05 -114.2 -42.5 -126.6 -52.15 -138.75" fill="#a8d296" fill-rule="evenodd" stroke="none"/>
    <path d="M-54.55 -142.05 L-52.15 -138.75 Q-45.95 -130.9 -34.05 -122.75 -25.1 -116.6 -13.75 -110.85 -5.55 -106.65 0.45 -104.2 L3.7 -105.25 12.1 -108.4 Q25.15 -113.65 35.1 -119.85 48.9 -128.55 54.65 -137.95 L55.8 -140.05 54.55 -133.75 Q52.45 -121.5 52.25 -106.95 52.0 -85.85 55.95 -68.9 60.6 -48.95 70.15 -39.4 L-69.85 -40.05 Q-55.25 -52.9 -52.45 -87.3 -50.45 -111.95 -54.55 -142.05" fill="#efeedf" fill-rule="evenodd" stroke="none"/>
    <path d="M-6.55 -121.05 L-2.05 -124.7 4.05 -120.0 Q10.5 -114.15 12.1 -108.4 L3.7 -105.25 0.45 -104.2 Q-5.55 -106.65 -13.75 -110.85 -11.5 -116.3 -6.55 -121.05" fill="#83a177" fill-rule="evenodd" stroke="none"/>
    <path d="M-16.55 -93.4 L0.8 -102.05 19.45 -95.4 48.8 -123.4 19.45 -89.4 3.45 -97.4 2.15 -46.05 0.15 -97.4 -17.85 -89.4 -49.2 -126.05 -16.55 -93.4" fill="#d1cfb8" fill-rule="evenodd" stroke="none"/>
    <path d="M-2.05 -124.7 Q2.45 -121.7 6.45 -117.7 L4.2 -113.45 8.65 -97.05 -1.05 -86.05 -10.05 -98.05 -6.05 -113.45 -8.55 -116.7 Q-11.65 -116.1 -7.55 -119.95 L-2.05 -124.7" fill="#4c6042" fill-rule="evenodd" stroke="none"/>
  </g>
</svg>
