<?xml version="1.0" encoding="UTF-8" standalone="no"?>
<svg xmlns:ffdec="https://www.free-decompiler.com/flash" xmlns:xlink="http://www.w3.org/1999/xlink" ffdec:objectType="shape" height="86.65px" width="90.8px" xmlns="http://www.w3.org/2000/svg">
  <g transform="matrix(1.0, 0.0, 0.0, 1.0, 45.4, 43.35)">
    <path d="M23.75 -34.2 Q26.45 -38.75 36.05 -42.0 45.85 -45.3 45.4 -40.55 45.2 -38.4 39.0 -32.7 L22.95 -17.7 15.85 -26.35 Q17.15 -32.3 18.4 -35.55 20.45 -40.85 22.7 -40.35 25.0 -39.9 23.75 -34.2" fill="#f6dec0" fill-rule="evenodd" stroke="none"/>
    <path d="M15.85 -26.35 L23.25 -17.35 Q20.45 -13.6 15.6 -8.1 5.8 2.9 -4.65 11.65 -17.15 20.55 -32.5 32.8 L-45.4 43.3 -42.0 9.45 -31.05 4.65 Q-18.4 -1.2 -9.65 -6.35 -1.4 -12.1 15.85 -26.35" fill="#efeedf" fill-rule="evenodd" stroke="none"/>
  </g>
</svg>
