<?xml version="1.0" encoding="UTF-8" standalone="no"?>
<svg xmlns:ffdec="https://www.free-decompiler.com/flash" xmlns:xlink="http://www.w3.org/1999/xlink" ffdec:objectType="shape" height="9.3px" width="145.95px" xmlns="http://www.w3.org/2000/svg">
  <g transform="matrix(1.0, 0.0, 0.0, 1.0, 69.45, 283.05)">
    <path d="M-58.05 -282.8 Q-51.4 -281.55 -49.9 -273.75 -54.2 -275.4 -60.9 -275.5 -67.55 -275.6 -69.1 -274.1 -69.55 -274.75 -69.4 -276.65 -69.25 -278.75 -69.4 -279.25 -64.25 -283.95 -58.05 -282.8 M76.45 -279.25 Q76.3 -278.8 76.45 -276.65 76.6 -274.75 76.1 -274.1 74.6 -275.6 67.95 -275.5 61.25 -275.4 56.95 -273.75 58.45 -281.55 65.15 -282.8 71.3 -283.95 76.45 -279.25" fill="#2c323f" fill-rule="evenodd" stroke="none"/>
  </g>
</svg>
