<?xml version="1.0" encoding="UTF-8" standalone="no"?>
<svg xmlns:ffdec="https://www.free-decompiler.com/flash" xmlns:xlink="http://www.w3.org/1999/xlink" ffdec:objectType="shape" height="136.0px" width="140.65px" xmlns="http://www.w3.org/2000/svg">
  <g transform="matrix(1.0, 0.0, 0.0, 1.0, 70.3, 68.0)">
    <path d="M69.4 -20.95 Q70.45 -18.75 70.35 -14.3 L70.0 -7.4 Q70.2 -19.15 69.4 -20.95 M-65.15 24.2 L-65.25 23.75 -65.3 23.4 -65.15 24.2" fill="#d4e488" fill-rule="evenodd" stroke="none"/>
    <path d="M38.75 -53.2 Q42.0 -51.2 44.55 -48.85 50.8 -43.1 58.7 -34.15 L64.45 -27.9 Q67.8 -24.05 69.35 -21.05 L65.2 -26.55 62.8 -26.7 Q61.55 -26.4 60.55 -25.65 58.6 -24.15 57.8 -21.15 57.0 -18.15 57.65 -14.7 58.3 -11.15 60.3 -8.65 62.3 -6.15 64.75 -5.6 L66.9 -5.55 Q68.7 -5.9 70.0 -7.4 L69.45 6.5 Q69.35 8.5 68.75 10.95 L67.45 15.3 Q64.25 25.65 61.6 32.05 59.85 36.3 56.05 39.85 L48.5 46.15 Q40.2 53.05 35.7 56.4 L33.3 58.2 Q34.9 55.3 35.05 52.5 35.2 49.55 33.75 47.25 L33.05 46.3 Q30.25 43.05 25.05 43.0 19.8 42.95 14.75 46.15 9.6 49.5 7.45 54.45 5.35 59.45 7.45 63.3 L7.75 63.85 Q9.6 66.65 13.2 67.65 L16.8 67.2 11.85 67.9 Q9.15 68.1 1.25 67.9 L-19.45 66.9 Q-31.05 65.8 -39.8 63.15 -45.9 61.3 -51.3 53.0 L-58.75 39.0 -62.6 31.6 -64.45 26.9 Q-63.35 29.95 -60.25 36.1 -57.3 39.35 -54.55 38.7 -53.3 38.45 -52.25 37.2 -50.55 35.2 -50.1 31.35 -49.65 27.4 -50.75 22.9 -51.95 17.85 -54.45 14.35 -56.95 10.85 -59.65 10.4 L-61.2 10.45 Q-63.4 10.95 -64.6 13.85 -65.75 16.55 -65.75 20.55 L-67.55 8.95 Q-69.45 -0.65 -70.0 -5.7 -71.0 -14.6 -68.8 -20.3 L-68.05 -22.15 Q-65.15 -28.95 -60.65 -35.3 -55.55 -42.45 -49.25 -48.0 -35.4 -60.2 -24.5 -65.8 -17.9 -69.15 -6.6 -67.35 L11.35 -62.9 Q24.35 -59.5 28.9 -57.8 32.45 -56.5 35.45 -55.0 29.95 -57.45 20.8 -60.2 8.7 -63.9 -2.4 -66.0 L-12.45 -65.25 Q-16.4 -64.3 -16.75 -62.4 L-16.6 -61.15 Q-15.45 -58.25 -8.05 -55.05 -0.6 -51.8 9.7 -49.85 20.7 -47.75 29.45 -48.15 33.65 -48.4 36.1 -49.3 38.65 -50.2 38.95 -51.7 39.1 -52.4 38.75 -53.2 M35.95 -39.6 L35.6 -38.8 Q34.6 -35.85 35.95 -31.8 37.35 -27.75 40.3 -24.95 42.65 -22.65 45.1 -22.25 47.45 -21.85 48.9 -23.4 49.55 -24.15 49.9 -25.15 50.9 -28.05 49.55 -32.15 48.15 -36.2 45.2 -39.0 42.5 -41.6 39.85 -41.75 37.2 -41.9 35.95 -39.6 M-42.8 -41.15 Q-42.55 -40.1 -42.1 -39.4 -40.3 -36.1 -35.85 -35.5 -31.4 -34.9 -26.9 -37.4 -22.4 -39.85 -20.5 -43.95 -18.6 -48.05 -20.4 -51.35 L-22.0 -53.25 Q-24.35 -55.25 -28.1 -55.3 -31.95 -55.35 -35.6 -53.3 -39.5 -51.15 -41.5 -47.7 -43.5 -44.3 -42.8 -41.15 M-49.6 -37.2 Q-49.75 -39.1 -50.85 -39.9 -52.2 -40.8 -54.6 -39.85 -56.9 -38.95 -59.45 -36.5 -65.9 -26.85 -68.05 -22.15 -68.95 -17.9 -67.0 -16.55 -66.25 -16.0 -65.2 -16.1 -62.95 -16.15 -59.9 -18.6 -56.85 -21.05 -54.15 -24.9 -51.8 -28.3 -50.6 -31.65 -49.4 -34.9 -49.6 -37.2 M-7.5 62.05 Q-3.0 60.45 -2.65 57.65 -2.1 54.1 -8.15 50.65 -14.15 47.2 -23.15 45.9 -32.15 44.6 -38.95 46.2 -45.65 47.75 -46.2 51.3 -46.5 53.8 -43.55 56.3 -40.9 58.6 -36.2 60.35 -31.4 62.2 -25.65 63.05 -14.45 64.65 -7.5 62.05 M49.85 35.8 Q52.5 36.8 56.35 32.9 60.2 29.0 63.1 22.4 65.55 16.8 66.1 11.85 66.65 6.95 65.15 4.7 64.5 3.8 63.8 3.55 61.2 2.4 57.25 6.3 53.35 10.2 50.4 16.85 47.5 23.5 47.3 29.05 47.05 34.6 49.7 35.75 L49.85 35.8 M22.25 32.65 L29.2 32.95 Q33.15 31.95 36.45 28.95 39.2 26.4 40.65 23.2 42.05 20.1 41.8 17.15 41.55 14.1 39.75 12.15 36.9 9.05 31.9 9.55 26.9 10.1 22.7 13.95 18.5 17.75 17.55 22.7 16.6 27.65 19.45 30.75 20.55 31.9 22.25 32.65" fill="#cdda58" fill-rule="evenodd" stroke="none"/>
    <path d="M-16.6 -61.15 Q-4.75 -61.9 7.45 -58.3 18.9 -54.9 29.45 -48.15 20.7 -47.75 9.7 -49.85 -0.6 -51.8 -8.05 -55.05 -15.45 -58.25 -16.6 -61.15 M48.9 -23.4 Q47.45 -21.85 45.1 -22.25 42.65 -22.65 40.3 -24.95 37.35 -27.75 35.95 -31.8 34.6 -35.85 35.6 -38.8 L35.95 -39.6 Q37.5 -34.15 41.2 -29.7 44.5 -25.8 48.9 -23.4 M64.75 -5.6 Q62.3 -6.15 60.3 -8.65 58.3 -11.15 57.65 -14.7 57.0 -18.15 57.8 -21.15 58.6 -24.15 60.55 -25.65 65.35 -18.05 64.75 -5.6 M-22.0 -53.25 L-20.4 -51.35 Q-18.6 -48.05 -20.5 -43.95 -22.4 -39.85 -26.9 -37.4 -31.4 -34.9 -35.85 -35.5 -40.3 -36.1 -42.1 -39.4 -42.55 -40.1 -42.8 -41.15 L-41.55 -40.75 Q-37.0 -39.4 -32.0 -41.65 -27.7 -43.65 -23.95 -47.95 -22.25 -50.35 -22.0 -53.25 M-49.6 -37.2 Q-49.4 -34.9 -50.6 -31.65 -51.8 -28.3 -54.15 -24.9 -56.85 -21.05 -59.9 -18.6 -62.95 -16.15 -65.2 -16.1 -62.9 -22.75 -59.1 -28.05 -55.0 -33.75 -49.6 -37.2 M-43.55 56.3 Q-46.5 53.8 -46.2 51.3 -45.65 47.75 -38.95 46.2 -32.15 44.6 -23.15 45.9 -14.15 47.2 -8.15 50.65 -2.1 54.1 -2.65 57.65 -3.0 60.45 -7.5 62.05 L-7.65 61.65 Q-13.7 55.1 -23.35 53.0 -32.15 51.05 -41.55 53.15 -42.25 53.15 -43.0 54.0 -43.9 55.05 -43.55 56.3 M-52.25 37.2 Q-56.5 31.15 -58.5 24.5 -60.6 17.25 -59.65 10.4 -56.95 10.85 -54.45 14.35 -51.95 17.85 -50.75 22.9 -49.65 27.4 -50.1 31.35 -50.55 35.2 -52.25 37.2 M49.85 35.8 L49.7 35.75 Q47.05 34.6 47.3 29.05 47.5 23.5 50.4 16.85 53.35 10.2 57.25 6.3 61.2 2.4 63.8 3.55 64.5 3.8 65.15 4.7 58.6 9.95 54.45 18.6 50.55 26.85 49.85 35.8 M41.8 17.15 Q40.4 14.7 37.85 13.7 35.1 12.55 31.65 13.35 25.45 14.9 21.6 20.6 20.3 23.6 20.4 26.7 20.5 30.0 22.25 32.65 20.55 31.9 19.45 30.75 16.6 27.65 17.55 22.7 18.5 17.75 22.7 13.95 26.9 10.1 31.9 9.55 36.9 9.05 39.75 12.15 41.55 14.1 41.8 17.15 M7.45 63.3 Q5.35 59.45 7.45 54.45 9.6 49.5 14.75 46.15 19.8 42.95 25.05 43.0 30.25 43.05 33.05 46.3 28.85 52.9 22.05 57.5 15.0 62.25 7.45 63.3" fill="#85ac28" fill-rule="evenodd" stroke="none"/>
    <path d="M35.45 -55.0 Q37.2 -54.25 38.55 -53.5 L38.75 -53.2 Q39.1 -52.4 38.95 -51.7 38.65 -50.2 36.1 -49.3 33.65 -48.4 29.45 -48.15 18.9 -54.9 7.45 -58.3 -4.75 -61.9 -16.6 -61.15 L-16.75 -62.4 Q-16.4 -64.3 -12.45 -65.25 L-2.4 -66.0 Q8.7 -63.9 20.8 -60.2 29.95 -57.45 35.45 -55.0 M69.35 -21.05 L69.4 -20.95 Q70.2 -19.15 70.0 -7.4 68.7 -5.9 66.9 -5.55 L64.75 -5.6 Q65.35 -18.05 60.55 -25.65 61.55 -26.4 62.8 -26.7 L65.2 -26.55 69.35 -21.05 M33.3 58.2 L33.25 58.25 31.35 59.55 25.75 63.2 21.95 65.3 21.6 65.5 20.2 66.2 Q19.1 66.75 16.8 67.2 L13.2 67.65 Q9.6 66.65 7.75 63.85 L7.45 63.3 Q15.0 62.25 22.05 57.5 28.85 52.9 33.05 46.3 L33.75 47.25 Q35.2 49.55 35.05 52.5 34.9 55.3 33.3 58.2 M-64.45 26.9 L-65.05 24.9 -65.15 24.2 -65.3 23.4 -65.75 20.7 -65.75 20.55 Q-65.75 16.55 -64.6 13.85 -63.4 10.95 -61.2 10.45 L-59.65 10.4 Q-60.6 17.25 -58.5 24.5 -56.5 31.15 -52.25 37.2 -53.3 38.45 -54.55 38.7 -57.3 39.35 -60.25 36.1 -63.35 29.95 -64.45 26.9 M35.95 -39.6 Q37.2 -41.9 39.85 -41.75 42.5 -41.6 45.2 -39.0 48.15 -36.2 49.55 -32.15 50.9 -28.05 49.9 -25.15 49.55 -24.15 48.9 -23.4 44.5 -25.8 41.2 -29.7 37.5 -34.15 35.95 -39.6 M-42.8 -41.15 Q-43.5 -44.3 -41.5 -47.7 -39.5 -51.15 -35.6 -53.3 -31.95 -55.35 -28.1 -55.3 -24.35 -55.25 -22.0 -53.25 -22.25 -50.35 -23.95 -47.95 -27.7 -43.65 -32.0 -41.65 -37.0 -39.4 -41.55 -40.75 L-42.8 -41.15 M-68.05 -22.15 Q-65.9 -26.85 -59.45 -36.5 -56.9 -38.95 -54.6 -39.85 -52.2 -40.8 -50.85 -39.9 -49.75 -39.1 -49.6 -37.2 -55.0 -33.75 -59.1 -28.05 -62.9 -22.75 -65.2 -16.1 -66.25 -16.0 -67.0 -16.55 -68.95 -17.9 -68.05 -22.15 M-43.55 56.3 Q-43.9 55.05 -43.0 54.0 -42.25 53.15 -41.55 53.15 -32.15 51.05 -23.35 53.0 -13.7 55.1 -7.65 61.65 L-7.5 62.05 Q-14.45 64.65 -25.65 63.05 -31.4 62.2 -36.2 60.35 -40.9 58.6 -43.55 56.3 M65.15 4.7 Q66.65 6.95 66.1 11.85 65.55 16.8 63.1 22.4 60.2 29.0 56.35 32.9 52.5 36.8 49.85 35.8 50.55 26.85 54.45 18.6 58.6 9.95 65.15 4.7 M41.8 17.15 Q42.05 20.1 40.65 23.2 39.2 26.4 36.45 28.95 33.15 31.95 29.2 32.95 L22.25 32.65 Q20.5 30.0 20.4 26.7 20.3 23.6 21.6 20.6 25.45 14.9 31.65 13.35 35.1 12.55 37.85 13.7 40.4 14.7 41.8 17.15" fill="#b5cf49" fill-rule="evenodd" stroke="none"/>
  </g>
</svg>
