<?xml version="1.0" encoding="UTF-8" standalone="no"?>
<svg xmlns:ffdec="https://www.free-decompiler.com/flash" xmlns:xlink="http://www.w3.org/1999/xlink" ffdec:objectType="shape" height="135.7px" width="140.85px" xmlns="http://www.w3.org/2000/svg">
  <g transform="matrix(1.0, 0.0, 0.0, 1.0, 70.45, 67.85)">
    <path d="M45.25 -50.2 Q52.6 -41.65 56.05 -32.4 L56.0 -32.35 Q54.6 -31.7 52.2 -34.2 49.8 -36.7 47.8 -40.9 45.1 -46.5 45.25 -50.2 M-56.15 47.35 L-49.9 47.65 Q-45.8 48.6 -41.25 50.8 -35.25 53.7 -31.7 57.15 -28.15 60.6 -29.1 62.6 L-29.15 62.6 Q-38.15 58.9 -43.4 56.1 -51.0 52.1 -56.15 47.35 M-3.65 61.85 Q-1.85 58.9 4.6 56.35 11.2 53.8 19.9 52.8 L31.7 52.4 Q37.1 52.7 40.8 53.95 31.0 57.15 18.85 59.15 L-3.65 61.85 M36.6 -52.25 Q35.15 -50.25 31.9 -49.8 28.65 -49.4 25.2 -50.8 21.35 -52.4 19.35 -55.4 17.3 -58.35 18.4 -60.95 18.9 -62.2 20.2 -63.1 22.75 -59.2 27.5 -56.35 31.1 -54.2 36.6 -52.25 M49.35 13.45 Q44.25 12.95 40.75 8.35 37.2 3.7 37.2 -2.6 37.2 -8.8 40.6 -13.35 43.95 -17.9 48.9 -18.6 45.8 -17.1 43.75 -13.95 41.7 -10.75 41.3 -6.55 40.55 -0.05 42.8 5.45 45.0 10.75 49.35 13.45 M58.1 22.7 Q56.3 30.25 54.35 34.95 51.7 41.35 47.6 45.9 46.6 44.0 46.9 40.5 47.25 36.95 48.9 32.95 50.75 28.5 53.4 25.6 56.0 22.75 58.1 22.7 M-4.75 -60.35 Q-3.4 -59.45 -3.25 -58.4 -2.85 -55.9 -7.85 -53.25 -12.9 -50.65 -20.45 -49.4 L-29.65 -48.75 Q-33.85 -48.9 -36.5 -49.85 -21.25 -58.1 -4.75 -60.35 M-42.65 -27.85 Q-41.65 -24.7 -38.7 -23.65 L-32.45 -23.9 Q-29.1 -25.1 -26.25 -27.9 -24.35 -30.0 -23.2 -32.9 -22.0 -35.8 -21.95 -38.55 -20.95 -35.95 -21.35 -32.9 -21.7 -29.8 -23.45 -26.95 -26.2 -22.5 -30.65 -20.95 -35.05 -19.4 -38.6 -21.6 -41.85 -23.6 -42.65 -27.85 M-61.45 0.6 Q-57.6 -4.4 -54.9 -10.6 -52.05 -17.15 -51.15 -23.55 -48.5 -21.85 -48.0 -17.6 -47.45 -13.3 -49.4 -8.65 -51.4 -3.8 -54.9 -1.15 -58.35 1.5 -61.45 0.6 M-11.9 51.35 Q-9.7 45.5 -14.4 41.6 -17.45 39.0 -22.85 39.55 -26.15 40.9 -27.9 43.6 -29.45 46.05 -29.55 49.4 -30.9 46.55 -30.15 43.45 -29.25 39.65 -25.7 37.65 -22.15 35.6 -18.05 36.6 -13.95 37.6 -11.75 41.0 -9.5 44.4 -10.45 48.25 -10.8 49.95 -11.9 51.35 M-66.1 8.25 L-64.95 8.35 -64.5 8.7 Q-62.85 10.15 -61.5 14.5 -60.15 18.9 -59.8 24.0 -59.5 28.2 -60.05 31.15 -60.55 34.1 -61.65 34.85 -66.95 19.8 -66.1 8.25" fill="#666666" fill-rule="evenodd" stroke="none"/>
    <path d="M45.25 -50.2 Q45.35 -52.2 46.3 -52.65 L46.55 -52.75 47.2 -51.8 54.65 -39.15 55.85 -36.95 56.7 -35.35 57.05 -34.7 Q56.95 -32.85 56.05 -32.4 52.6 -41.65 45.25 -50.2 M-52.25 54.4 L-57.9 50.65 Q-58.35 49.4 -58.0 48.6 -57.55 47.75 -56.15 47.35 -51.0 52.1 -43.4 56.1 -38.15 58.9 -29.15 62.6 -29.95 64.2 -33.65 64.05 L-36.2 63.0 -43.7 59.25 -48.0 56.9 -52.25 54.4 M-2.8 66.35 Q-4.05 65.35 -4.2 64.05 -4.35 62.95 -3.65 61.85 L18.85 59.15 Q31.0 57.15 40.8 53.95 45.65 55.55 45.95 58.2 L45.7 59.8 24.45 63.7 22.6 63.95 -2.7 66.45 -2.8 66.35 M36.6 -52.25 Q31.1 -54.2 27.5 -56.35 22.75 -59.2 20.2 -63.1 22.05 -64.3 24.75 -64.4 27.5 -64.5 30.35 -63.35 34.25 -61.75 36.25 -58.75 38.25 -55.8 37.15 -53.2 L36.6 -52.25 M49.35 13.45 Q45.0 10.75 42.8 5.45 40.55 -0.05 41.3 -6.55 41.7 -10.75 43.75 -13.95 45.8 -17.1 48.9 -18.6 L50.4 -18.7 Q55.9 -18.7 59.75 -14.0 63.6 -9.25 63.6 -2.6 63.6 4.1 59.75 8.8 55.9 13.5 50.4 13.5 L49.35 13.45 M58.1 22.7 L59.1 22.9 Q61.25 23.75 61.25 27.95 61.3 32.2 59.2 37.2 57.15 42.25 54.15 45.2 51.15 48.15 49.0 47.25 48.1 46.85 47.6 45.9 51.7 41.35 54.35 34.95 56.3 30.25 58.1 22.7 M-4.75 -60.35 Q-21.25 -58.1 -36.5 -49.85 -39.35 -50.8 -39.6 -52.5 L-39.55 -53.5 Q-24.3 -57.85 -8.15 -61.6 -5.95 -61.15 -4.75 -60.35 M-42.65 -27.85 Q-43.55 -32.8 -40.6 -37.55 -37.9 -41.95 -33.45 -43.5 -29.0 -45.05 -25.45 -42.9 -23.05 -41.35 -21.95 -38.55 -22.0 -35.8 -23.2 -32.9 -24.35 -30.0 -26.25 -27.9 -29.1 -25.1 -32.45 -23.9 L-38.7 -23.65 Q-41.65 -24.7 -42.65 -27.85 M-61.45 0.6 L-62.0 0.45 Q-65.15 -0.85 -65.85 -5.35 -66.6 -9.85 -64.5 -14.9 -62.45 -19.9 -58.75 -22.55 -55.05 -25.2 -51.95 -23.95 L-51.15 -23.55 Q-52.05 -17.15 -54.9 -10.6 -57.6 -4.4 -61.45 0.6 M-29.55 49.4 Q-29.45 46.05 -27.9 43.6 -26.15 40.9 -22.85 39.55 -17.45 39.0 -14.4 41.6 -9.7 45.5 -11.9 51.35 -13.6 53.75 -16.5 54.8 L-22.55 55.1 Q-24.95 54.5 -26.8 52.95 -28.6 51.5 -29.55 49.4 M-61.65 34.85 L-62.8 35.0 -63.1 34.9 Q-64.85 33.9 -66.35 29.3 -67.9 24.75 -68.3 19.25 -68.6 14.75 -67.95 11.7 -67.35 8.7 -66.1 8.25 -66.95 19.8 -61.65 34.85" fill="#797582" fill-rule="evenodd" stroke="none"/>
    <path d="M47.2 -51.8 L46.55 -52.75 46.3 -52.65 Q45.35 -52.2 45.25 -50.2 45.1 -46.5 47.8 -40.9 49.8 -36.7 52.2 -34.2 54.6 -31.7 56.0 -32.35 L56.05 -32.4 Q56.95 -32.85 57.05 -34.7 L56.7 -35.35 Q67.05 -16.3 70.1 -7.4 70.85 -5.25 69.75 3.8 68.65 12.9 66.35 23.55 60.5 50.8 54.3 56.05 51.9 58.05 45.7 59.8 L45.95 58.2 Q45.65 55.55 40.8 53.95 37.1 52.7 31.7 52.4 L19.9 52.8 Q11.2 53.8 4.6 56.35 -1.85 58.9 -3.65 61.85 -4.35 62.95 -4.2 64.05 -4.05 65.35 -2.8 66.35 L-16.85 67.75 Q-23.95 68.55 -36.2 63.0 L-33.65 64.05 Q-29.95 64.2 -29.15 62.6 L-29.1 62.6 Q-28.15 60.6 -31.7 57.15 -35.25 53.7 -41.25 50.8 -45.8 48.6 -49.9 47.65 L-56.15 47.35 Q-57.55 47.75 -58.0 48.6 -58.35 49.4 -57.9 50.65 L-52.25 54.4 Q-62.75 48.1 -65.85 44.3 -68.25 41.3 -69.65 18.9 -70.9 -1.6 -70.2 -8.6 -69.5 -14.75 -60.45 -31.65 -50.95 -49.35 -46.05 -51.45 -39.25 -54.35 -9.1 -61.4 25.6 -69.5 32.95 -67.4 38.2 -65.95 47.2 -51.8 M20.2 -63.1 Q18.9 -62.2 18.4 -60.95 17.3 -58.35 19.35 -55.4 21.35 -52.4 25.2 -50.8 28.65 -49.4 31.9 -49.8 35.15 -50.25 36.6 -52.25 L37.15 -53.2 Q38.25 -55.8 36.25 -58.75 34.25 -61.75 30.35 -63.35 27.5 -64.5 24.75 -64.4 22.05 -64.3 20.2 -63.1 M48.9 -18.6 Q43.95 -17.9 40.6 -13.35 37.2 -8.8 37.2 -2.6 37.2 3.7 40.75 8.35 44.25 12.95 49.35 13.45 L50.4 13.5 Q55.9 13.5 59.75 8.8 63.6 4.1 63.6 -2.6 63.6 -9.25 59.75 -14.0 55.9 -18.7 50.4 -18.7 L48.9 -18.6 M47.6 45.9 Q48.1 46.85 49.0 47.25 51.15 48.15 54.15 45.2 57.15 42.25 59.2 37.2 61.3 32.2 61.25 27.95 61.25 23.75 59.1 22.9 L58.1 22.7 Q56.0 22.75 53.4 25.6 50.75 28.5 48.9 32.95 47.25 36.95 46.9 40.5 46.6 44.0 47.6 45.9 M-36.5 -49.85 Q-33.85 -48.9 -29.65 -48.75 L-20.45 -49.4 Q-12.9 -50.65 -7.85 -53.25 -2.85 -55.9 -3.25 -58.4 -3.4 -59.45 -4.75 -60.35 -5.95 -61.15 -8.15 -61.6 -24.3 -57.85 -39.55 -53.5 L-39.6 -52.5 Q-39.35 -50.8 -36.5 -49.85 M-21.95 -38.55 Q-23.05 -41.35 -25.45 -42.9 -29.0 -45.05 -33.45 -43.5 -37.9 -41.95 -40.6 -37.55 -43.55 -32.8 -42.65 -27.85 -41.85 -23.6 -38.6 -21.6 -35.05 -19.4 -30.65 -20.95 -26.2 -22.5 -23.45 -26.95 -21.7 -29.8 -21.35 -32.9 -20.95 -35.95 -21.95 -38.55 M-51.15 -23.55 L-51.95 -23.95 Q-55.05 -25.2 -58.75 -22.55 -62.45 -19.9 -64.5 -14.9 -66.6 -9.85 -65.85 -5.35 -65.15 -0.85 -62.0 0.45 L-61.45 0.6 Q-58.35 1.5 -54.9 -1.15 -51.4 -3.8 -49.4 -8.65 -47.45 -13.3 -48.0 -17.6 -48.5 -21.85 -51.15 -23.55 M-11.9 51.35 Q-10.8 49.95 -10.45 48.25 -9.5 44.4 -11.75 41.0 -13.95 37.6 -18.05 36.6 -22.15 35.6 -25.7 37.65 -29.25 39.65 -30.15 43.45 -30.9 46.55 -29.55 49.4 -28.6 51.5 -26.8 52.95 -24.95 54.5 -22.55 55.1 L-16.5 54.8 Q-13.6 53.75 -11.9 51.35 M-61.65 34.85 Q-60.55 34.1 -60.05 31.15 -59.5 28.2 -59.8 24.0 -60.15 18.9 -61.5 14.5 -62.85 10.15 -64.5 8.7 L-64.95 8.35 -66.1 8.25 Q-67.35 8.7 -67.95 11.7 -68.6 14.75 -68.3 19.25 -67.9 24.75 -66.35 29.3 -64.85 33.9 -63.1 34.9 L-62.8 35.0 -61.65 34.85" fill="#a5a2aa" fill-rule="evenodd" stroke="none"/>
  </g>
</svg>
