<?xml version="1.0" encoding="UTF-8" standalone="no"?>
<svg xmlns:ffdec="https://www.free-decompiler.com/flash" xmlns:xlink="http://www.w3.org/1999/xlink" ffdec:objectType="shape" height="400.0px" width="640.0px" xmlns="http://www.w3.org/2000/svg">
  <g transform="matrix(1.0, 0.0, 0.0, 1.0, 320.0, 200.0)">
    <path d="M320.0 200.0 L-320.0 200.0 -320.0 -200.0 320.0 -200.0 320.0 200.0" fill="url(#gradient0)" fill-rule="evenodd" stroke="none"/>
    <path d="M-263.85 -82.2 Q-263.85 -55.8 -245.1 -37.05 -226.4 -18.35 -200.0 -18.35 -173.6 -18.35 -154.85 -37.05 -136.15 -55.8 -136.15 -82.2 -136.15 -108.6 -154.85 -127.3 -173.6 -146.0 -200.0 -146.0 -226.4 -146.0 -245.1 -127.3 -263.85 -108.6 -263.85 -82.2 M39.05 -193.55 L1.15 -164.75 16.0 -109.55 63.05 -103.8 Q64.95 -86.0 63.05 -59.15 L16.0 -52.9 1.6 1.8 39.05 30.6 Q27.55 53.65 16.5 69.0 L-26.7 51.25 -67.05 91.1 -48.8 134.3 Q-68.45 148.2 -87.65 156.85 L-116.0 119.4 -171.2 134.3 -176.95 180.85 Q-199.05 183.25 -221.6 180.85 L-227.85 134.3 -282.55 119.9 -311.35 157.35 -320.0 153.15 -320.0 -200.0 36.0 -200.0 39.05 -193.55" fill="#ffffff" fill-opacity="0.5019608" fill-rule="evenodd" stroke="none"/>
  </g>
  <defs>
    <linearGradient color-interpolation="linearRGB" gradientTransform="matrix(0.0, 0.1344, -0.9987, 0.0, 13.95, 80.1)" gradientUnits="userSpaceOnUse" id="gradient0" spreadMethod="pad" x1="-819.2" x2="819.2">
      <stop offset="0.2196078431372549" stop-color="#f5957d"/>
      <stop offset="1.0" stop-color="#fbd1c8"/>
    </linearGradient>
  </defs>
</svg>
