<?xml version="1.0" encoding="UTF-8" standalone="no"?>
<svg xmlns:ffdec="https://www.free-decompiler.com/flash" xmlns:xlink="http://www.w3.org/1999/xlink" ffdec:objectType="shape" height="400.0px" width="640.0px" xmlns="http://www.w3.org/2000/svg">
  <g transform="matrix(1.0, 0.0, 0.0, 1.0, 320.0, 200.0)">
    <path d="M320.0 -200.0 L320.0 200.0 -320.0 200.0 -320.0 -200.0 320.0 -200.0" fill="url(#gradient0)" fill-rule="evenodd" stroke="none"/>
    <path d="M-81.25 -121.95 Q-88.45 -114.75 -90.85 -96.35 L-152.05 -101.15 Q-148.45 -126.35 -138.85 -141.55 -129.25 -155.95 -112.05 -163.55 -95.25 -171.15 -63.65 -171.15 -31.65 -171.15 -13.65 -163.95 3.95 -156.75 14.35 -141.55 24.75 -125.55 24.75 -107.15 24.75 -87.15 12.75 -69.15 1.95 -51.55 -29.65 -29.15 L-54.45 -11.15 -68.85 2.05 26.35 2.05 26.35 51.65 -156.45 51.65 Q-153.65 25.25 -137.65 0.85 -121.25 -23.15 -77.65 -55.55 -50.45 -75.95 -43.65 -85.55 -36.05 -95.55 -36.05 -105.15 -36.05 -115.15 -43.25 -122.35 -50.85 -129.55 -62.05 -129.55 -73.65 -129.55 -81.25 -121.95 M120.35 -126.75 Q113.55 -119.95 111.15 -103.95 L53.55 -114.35 Q60.75 -141.95 81.15 -156.35 101.15 -171.15 139.15 -171.15 182.35 -171.15 201.15 -155.15 220.3 -138.75 220.3 -115.15 220.3 -100.75 212.35 -89.15 204.35 -77.15 189.15 -69.15 200.75 -66.35 208.35 -61.55 219.9 -54.35 225.5 -43.95 231.5 -33.15 231.5 -17.95 231.5 0.85 221.5 18.85 211.15 36.45 192.75 46.05 173.55 55.65 143.15 55.65 113.55 55.65 95.95 48.45 78.35 41.25 67.55 28.05 56.35 14.45 50.35 -5.95 L111.15 -14.35 Q114.75 4.05 122.35 11.25 130.35 18.45 141.55 18.45 153.95 18.45 161.95 9.25 170.35 0.45 170.35 -14.35 170.35 -29.15 162.35 -37.95 154.75 -46.35 141.15 -46.35 133.95 -46.35 121.15 -42.75 L124.35 -86.35 132.35 -85.55 Q143.95 -85.55 152.35 -93.15 160.35 -101.15 160.35 -111.55 160.35 -121.55 154.35 -127.55 148.35 -133.55 137.95 -133.55 127.15 -133.55 120.35 -126.75 M-189.45 -171.15 L-189.45 51.65 -251.05 51.65 -251.05 -94.35 Q-263.45 -84.35 -279.85 -75.95 -293.05 -69.15 -315.05 -62.35 L-315.05 -112.35 Q-283.05 -122.75 -266.65 -136.35 -249.45 -150.35 -239.85 -171.15 L-189.45 -171.15" fill="#ffffff" fill-opacity="0.5019608" fill-rule="evenodd" stroke="none"/>
  </g>
  <defs>
    <linearGradient color-interpolation="linearRGB" gradientTransform="matrix(0.0, 0.1344, -0.9987, 0.0, 13.95, 80.1)" gradientUnits="userSpaceOnUse" id="gradient0" spreadMethod="pad" x1="-819.2" x2="819.2">
      <stop offset="0.2196078431372549" stop-color="#f0d077"/>
      <stop offset="1.0" stop-color="#fff6de"/>
    </linearGradient>
  </defs>
</svg>
