<?xml version="1.0" encoding="UTF-8" standalone="no"?>
<svg xmlns:ffdec="https://www.free-decompiler.com/flash" xmlns:xlink="http://www.w3.org/1999/xlink" ffdec:objectType="shape" height="400.0px" width="640.0px" xmlns="http://www.w3.org/2000/svg">
  <g transform="matrix(1.0, 0.0, 0.0, 1.0, 320.0, 200.0)">
    <path d="M320.0 200.0 L-320.0 200.0 -320.0 -200.0 320.0 -200.0 320.0 200.0" fill="url(#gradient0)" fill-rule="evenodd" stroke="none"/>
    <path d="M29.65 -199.95 L44.55 -189.7 Q64.8 -175.0 84.0 -157.3 141.15 -104.7 167.2 -52.15 141.15 0.45 84.0 53.05 29.3 103.45 -34.35 129.65 -103.65 158.2 -183.5 158.2 -256.1 158.2 -320.0 134.65 L-320.0 -19.2 Q-308.0 32.05 -264.2 62.5 -216.6 96.1 -159.45 86.05 -101.85 76.05 -68.8 28.0 -35.7 -19.6 -45.7 -76.7 -55.25 -133.85 -103.35 -167.3 -127.3 -184.0 -153.6 -189.7 -179.65 -195.4 -208.05 -190.4 L-211.8 -189.7 Q-266.3 -178.8 -298.7 -132.8 -313.9 -111.05 -320.0 -87.2 L-320.0 -199.95 29.65 -199.95" fill="#ffffff" fill-opacity="0.3019608" fill-rule="evenodd" stroke="none"/>
  </g>
  <defs>
    <linearGradient color-interpolation="linearRGB" gradientTransform="matrix(0.0, 0.1344, -0.9986, 0.0, 13.95, 80.05)" gradientUnits="userSpaceOnUse" id="gradient0" spreadMethod="pad" x1="-819.2" x2="819.2">
      <stop offset="0.2196078431372549" stop-color="#82b6e2"/>
      <stop offset="1.0" stop-color="#cfe6f3"/>
    </linearGradient>
  </defs>
</svg>
