<?xml version="1.0" encoding="UTF-8" standalone="no"?>
<svg xmlns:ffdec="https://www.free-decompiler.com/flash" xmlns:xlink="http://www.w3.org/1999/xlink" ffdec:objectType="shape" height="534.75px" width="658.0px" xmlns="http://www.w3.org/2000/svg">
  <g transform="matrix(1.0, 0.0, 0.0, 1.0, -8.35, -91.65)">
    <path d="M348.35 369.9 L171.2 300.8 335.75 371.2 298.75 425.05 348.35 369.9 M269.6 626.4 L269.6 478.9 362.45 370.0 358.05 493.6 269.6 626.4 M19.25 485.5 L8.35 406.9 8.35 350.85 264.5 479.2 264.1 625.75 19.25 485.5 M167.25 243.65 Q173.55 237.35 183.5 230.05 203.4 215.4 221.6 210.4 200.9 213.3 173.75 230.75 160.15 239.45 150.7 247.6 L346.75 320.05 167.25 243.65 M102.7 282.85 L16.15 341.3 257.0 462.25 38.9 339.3 102.7 282.85 M8.35 347.15 L8.35 337.2 Q65.9 297.2 112.25 265.2 L359.85 367.45 266.85 475.55 8.35 347.15 M135.35 272.2 L135.0 250.95 377.85 346.65 372.35 465.6 362.9 460.95 366.85 365.25 135.35 272.2 M241.35 91.65 L243.25 151.25 96.4 106.05 94.8 91.65 241.35 91.65 M382.1 346.95 L405.05 320.05 399.5 431.35 377.1 465.05 382.1 346.95 M584.0 138.05 Q601.65 156.1 599.0 172.7 596.1 190.4 570.35 204.4 562.85 184.3 525.9 163.3 490.3 143.1 441.8 130.0 387.0 115.15 334.3 120.85 283.55 126.3 246.4 149.25 L245.55 111.0 245.0 91.65 504.25 91.65 Q519.75 97.7 533.45 104.35 566.95 120.65 584.0 138.05 M666.35 329.3 L666.35 428.45 Q640.85 435.35 610.55 438.55 565.6 443.3 506.4 440.4 466.75 438.45 403.85 431.7 403.6 427.8 405.9 373.85 408.15 322.55 408.55 317.05 457.8 328.35 513.3 333.25 576.45 338.75 629.85 334.0 649.15 332.3 666.35 329.3 M648.4 91.65 Q657.7 95.95 666.35 100.35 L666.35 303.5 Q626.6 314.1 575.9 319.4 L621.25 317.5 Q645.15 315.4 666.35 311.3 L666.35 324.7 645.8 327.75 Q594.8 334.05 531.9 330.0 470.9 326.1 406.2 313.05 L380.1 343.8 136.0 248.85 167.65 227.35 Q205.2 202.55 273.6 201.1 300.6 200.5 336.65 203.4 L401.25 209.95 463.5 216.05 Q496.5 218.5 519.55 217.25 576.3 214.2 597.55 186.5 608.25 172.55 601.0 156.05 594.25 140.7 572.9 124.7 552.55 109.45 521.95 95.85 L512.2 91.65 648.4 91.65 M666.35 91.65 L666.35 97.2 654.15 91.65 666.35 91.65" fill="#ffffff" fill-rule="evenodd" stroke="none"/>
  </g>
</svg>
