<?xml version="1.0" encoding="UTF-8" standalone="no"?>
<svg xmlns:ffdec="https://www.free-decompiler.com/flash" xmlns:xlink="http://www.w3.org/1999/xlink" ffdec:objectType="shape" height="734.1px" width="762.95px" xmlns="http://www.w3.org/2000/svg">
  <g transform="matrix(1.0, 0.0, 0.0, 1.0, 0.0, 0.0)">
    <path d="M363.45 3.9 L313.6 20.25 365.95 6.9 727.9 105.4 390.6 288.7 748.15 105.75 363.45 3.9 M0.45 110.9 L366.8 311.45 366.85 734.1 91.4 448.8 0.45 110.9 M9.05 109.45 L279.55 252.5 24.15 109.95 181.6 56.9 9.05 109.45 M566.1 207.05 Q370.9 307.95 368.95 309.3 368.65 307.9 185.5 208.85 92.95 158.75 0.0 108.75 L361.75 0.0 Q759.0 103.85 762.65 104.2 764.75 104.35 566.1 207.05 M762.95 106.9 L670.95 436.4 369.95 734.1 370.75 312.05 762.95 106.9" fill="#ffffff" fill-rule="evenodd" stroke="none"/>
  </g>
</svg>
