<?xml version="1.0" encoding="UTF-8" standalone="no"?>
<svg xmlns:ffdec="https://www.free-decompiler.com/flash" xmlns:xlink="http://www.w3.org/1999/xlink" ffdec:objectType="shape" height="75.3px" width="71.6px" xmlns="http://www.w3.org/2000/svg">
  <g transform="matrix(1.0, 0.0, 0.0, 1.0, 35.8, 37.65)">
    <path d="M-31.05 -26.7 Q-28.9 -29.3 -25.6 -29.9 L17.45 -37.5 Q21.15 -38.15 24.3 -35.95 27.4 -33.85 28.05 -30.1 L35.65 12.95 Q36.05 15.15 35.35 17.3 34.7 19.4 33.2 20.9 33.25 24.2 31.1 26.75 28.95 29.3 25.65 29.9 L-17.35 37.5 Q-21.1 38.15 -24.25 35.95 -27.4 33.85 -28.05 30.1 L-35.65 -12.95 Q-36.05 -15.15 -35.35 -17.3 -34.65 -19.35 -33.2 -20.95 -33.2 -24.2 -31.05 -26.7 M-28.05 -23.8 Q-29.25 -22.05 -28.9 -20.05 L-21.3 23.0 Q-20.95 25.05 -19.25 26.25 -17.6 27.4 -15.55 27.05 L27.5 19.45 Q29.55 19.1 30.7 17.45 31.95 15.75 31.6 13.7 L24.0 -29.35 Q23.65 -31.35 21.9 -32.6 20.25 -33.8 18.2 -33.45 L-24.85 -25.85 Q-26.9 -25.5 -28.05 -23.8" fill="#000000" fill-rule="evenodd" stroke="none"/>
    <path d="M-28.05 -23.8 Q-26.9 -25.5 -24.85 -25.85 L18.2 -33.45 Q20.25 -33.8 21.9 -32.6 23.65 -31.35 24.0 -29.35 L31.6 13.7 Q31.95 15.75 30.7 17.45 29.55 19.1 27.5 19.45 L-15.55 27.05 Q-17.6 27.4 -19.25 26.25 -20.95 25.05 -21.3 23.0 L-28.9 -20.05 Q-29.25 -22.05 -28.05 -23.8" fill="#ffffff" fill-rule="evenodd" stroke="none"/>
    <path d="M-13.7 -13.15 Q-9.5 -17.5 -3.1 -19.05 L-1.35 -19.4 Q8.0 -21.05 9.2 -14.2 9.5 -12.6 9.2 -11.05 7.8 -2.95 0.6 3.35 2.5 4.3 9.15 4.8 15.2 5.25 17.4 5.0 17.75 6.45 16.2 9.8 14.75 12.85 13.95 13.35 4.3 12.9 -7.35 7.9 -7.65 7.75 -7.85 6.6 L-8.1 3.5 Q-8.15 1.0 -7.7 0.65 -3.9 -1.05 -1.1 -4.05 2.35 -7.75 1.75 -10.9 1.55 -12.05 -0.25 -12.4 L-2.95 -12.45 Q-4.55 -12.2 -6.5 -10.35 -7.8 -9.2 -8.8 -9.0 -9.65 -8.85 -11.6 -10.4 -13.65 -11.95 -13.8 -12.8 L-13.7 -13.15" fill="#000000" fill-rule="evenodd" stroke="none"/>
  </g>
</svg>
