<?xml version="1.0" encoding="UTF-8" standalone="no"?>
<svg xmlns:ffdec="https://www.free-decompiler.com/flash" xmlns:xlink="http://www.w3.org/1999/xlink" ffdec:objectType="shape" height="35.2px" width="140.85px" xmlns="http://www.w3.org/2000/svg">
  <g transform="matrix(1.0, 0.0, 0.0, 1.0, 70.45, 17.6)">
    <path d="M0.95 -1.7 L0.95 2.3 -8.6 2.3 -8.6 11.95 -12.7 11.95 -12.7 2.3 -22.2 2.3 -22.2 -1.7 -12.7 -1.7 -12.7 -11.25 -8.6 -11.25 -8.6 -1.7 0.95 -1.7 M4.25 5.25 L20.3 -17.5 23.8 -17.5 23.8 5.25 28.55 5.25 28.55 9.2 23.8 9.2 23.8 17.6 19.5 17.6 19.5 9.2 4.25 9.2 4.25 5.25 M47.25 -7.05 L70.4 -7.05 70.4 -3.0 47.25 -3.0 47.25 -7.05 M47.25 3.6 L70.4 3.6 70.4 7.6 47.25 7.6 47.25 3.6 M19.5 -10.55 L8.5 5.25 19.5 5.25 19.5 -10.55 M-70.45 -8.8 Q-66.85 -10.5 -64.15 -12.95 -61.45 -15.35 -60.3 -17.6 L-57.55 -17.6 -57.55 17.6 -61.85 17.6 -61.85 -9.85 Q-63.4 -8.35 -65.9 -6.9 -68.45 -5.4 -70.45 -4.65 L-70.45 -8.8 M-42.3 -6.9 Q-44.85 -5.4 -46.85 -4.65 L-46.85 -8.8 Q-43.25 -10.5 -40.55 -12.95 -37.85 -15.35 -36.7 -17.6 L-33.95 -17.6 -33.95 17.6 -38.25 17.6 -38.25 -9.85 Q-39.8 -8.35 -42.3 -6.9" fill="#000000" fill-rule="evenodd" stroke="none"/>
  </g>
</svg>
