<?xml version="1.0" encoding="UTF-8" standalone="no"?>
<svg xmlns:ffdec="https://www.free-decompiler.com/flash" xmlns:xlink="http://www.w3.org/1999/xlink" ffdec:objectType="shape" height="50.85px" width="72.0px" xmlns="http://www.w3.org/2000/svg">
  <g transform="matrix(1.0, 0.0, 0.0, 1.0, 36.0, 25.4)">
    <path d="M36.0 16.5 Q36.0 20.2 33.4 22.85 30.75 25.45 27.05 25.45 L-27.05 25.45 Q-30.75 25.45 -33.4 22.85 -36.0 20.2 -36.0 16.5 L-36.0 -16.4 Q-36.0 -20.1 -33.4 -22.75 -30.75 -25.4 -27.05 -25.4 L27.05 -25.4 Q30.75 -25.4 33.4 -22.75 36.0 -20.1 36.0 -16.4 L36.0 16.5" fill="#4d73b8" fill-rule="evenodd" stroke="none"/>
    <path d="M30.15 12.85 Q30.15 16.35 27.7 18.85 25.15 21.35 21.65 21.35 L-21.65 21.35 Q-25.2 21.35 -27.7 18.85 -30.15 16.35 -30.15 12.85 L-30.15 -10.4 Q-30.15 -13.9 -27.7 -16.4 -25.2 -18.9 -21.65 -18.9 L21.65 -18.9 Q25.15 -18.9 27.7 -16.4 30.15 -13.9 30.15 -10.4 L30.15 12.85" fill="#474190" fill-rule="evenodd" stroke="none"/>
    <path d="M30.15 11.6 Q30.15 15.15 27.7 17.65 25.15 20.1 21.65 20.1 L-21.65 20.1 Q-25.2 20.1 -27.7 17.65 -30.15 15.15 -30.15 11.6 L-30.15 -11.6 Q-30.15 -15.15 -27.7 -17.65 -25.2 -20.1 -21.65 -20.1 L21.65 -20.1 Q25.15 -20.1 27.7 -17.65 30.15 -15.15 30.15 -11.6 L30.15 11.6" fill="#d53d3e" fill-rule="evenodd" stroke="none"/>
    <path d="M21.65 18.25 L-21.65 18.25 Q-24.3 18.25 -26.15 16.4 -28.05 14.5 -28.05 11.85 L-28.05 -11.35 Q-28.05 -14.0 -26.15 -15.85 -24.25 -17.75 -21.65 -17.75 L21.65 -17.75 Q24.3 -17.75 26.15 -15.85 28.05 -13.95 28.05 -11.35 L28.05 11.85 Q28.05 14.5 26.15 16.4 24.3 18.25 21.65 18.25" fill="url(#gradient0)" fill-rule="evenodd" stroke="none"/>
    <path d="M13.75 0.65 Q19.4 -1.05 28.1 0.5 L28.1 11.85 Q28.1 14.5 26.2 16.4 24.35 18.25 21.7 18.25 L-21.65 18.25 Q-24.3 18.25 -26.15 16.4 -28.0 14.5 -28.0 11.85 L-28.0 -0.75 Q-27.3 1.65 -24.75 4.3 -19.75 9.45 -10.75 10.35 -4.55 11.0 1.2 7.15 9.05 1.95 13.75 0.65" fill="url(#gradient1)" fill-rule="evenodd" stroke="none"/>
    <path d="M6.45 -12.45 Q8.5 -10.5 8.5 -7.65 8.5 -3.25 3.85 -1.0 L3.85 -0.9 Q9.55 1.4 9.55 6.4 9.55 10.05 6.75 12.4 4.05 14.6 -0.05 14.6 -4.35 14.6 -7.0 12.35 -9.55 10.2 -9.55 6.95 -9.55 1.8 -3.95 -0.6 L-4.0 -0.75 Q-8.45 -2.8 -8.45 -7.1 -8.45 -10.4 -5.95 -12.5 -3.5 -14.6 0.3 -14.6 4.2 -14.6 6.45 -12.45 M3.75 -10.4 Q2.5 -11.85 0.05 -11.85 -2.2 -11.85 -3.6 -10.5 -4.85 -9.25 -4.85 -7.35 -4.85 -3.65 0.55 -2.1 4.85 -3.6 4.85 -7.25 4.85 -9.15 3.75 -10.4 M5.65 6.8 Q5.65 4.35 4.0 2.85 2.55 1.45 -0.55 0.6 -3.0 1.35 -4.3 2.9 -5.65 4.4 -5.65 6.45 -5.75 8.7 -4.2 10.25 -2.6 11.85 0.0 11.85 2.6 11.85 4.15 10.45 5.65 9.0 5.65 6.8" fill="#f1f1f2" fill-rule="evenodd" stroke="none"/>
  </g>
  <defs>
    <linearGradient gradientTransform="matrix(0.0, 0.0078, 0.0078, 0.0, 0.0, -11.1)" gradientUnits="userSpaceOnUse" id="gradient0" spreadMethod="pad" x1="-819.2" x2="819.2">
      <stop offset="0.0" stop-color="#ffffff"/>
      <stop offset="1.0" stop-color="#d63f3e"/>
    </linearGradient>
    <linearGradient gradientTransform="matrix(0.0, 0.0085, 0.0085, 0.0, 0.0, 7.65)" gradientUnits="userSpaceOnUse" id="gradient1" spreadMethod="pad" x1="-819.2" x2="819.2">
      <stop offset="0.0" stop-color="#823130"/>
      <stop offset="1.0" stop-color="#bd374e"/>
    </linearGradient>
  </defs>
</svg>
