<?xml version="1.0" encoding="UTF-8" standalone="no"?>
<svg xmlns:ffdec="https://www.free-decompiler.com/flash" xmlns:xlink="http://www.w3.org/1999/xlink" ffdec:objectType="shape" height="86.65px" width="94.2px" xmlns="http://www.w3.org/2000/svg">
  <g transform="matrix(1.0, 0.0, 0.0, 1.0, 88.6, 68.45)">
    <path d="M-66.95 -59.3 Q-68.15 -65.0 -65.9 -65.45 -63.6 -65.95 -61.6 -60.65 -60.55 -57.9 -59.0 -51.45 L-66.15 -42.8 -82.2 -57.8 Q-88.4 -63.5 -88.6 -65.65 -89.05 -70.4 -79.25 -67.1 -69.6 -63.85 -66.95 -59.3" fill="#f6dec0" fill-rule="evenodd" stroke="none"/>
    <path d="M-66.45 -42.45 L-59.0 -51.45 -49.35 -43.6 Q-38.65 -35.05 -33.5 -31.45 -24.75 -26.3 -8.7 -18.75 -0.65 -15.0 5.6 -12.25 L2.25 18.2 -10.6 7.7 Q-26.0 -4.55 -38.5 -13.45 -48.95 -22.2 -58.75 -33.2 L-66.45 -42.45" fill="#efeedf" fill-rule="evenodd" stroke="none"/>
  </g>
</svg>
