<?xml version="1.0" encoding="UTF-8" standalone="no"?>
<svg xmlns:ffdec="https://www.free-decompiler.com/flash" xmlns:xlink="http://www.w3.org/1999/xlink" ffdec:objectType="shape" height="50.85px" width="72.0px" xmlns="http://www.w3.org/2000/svg">
  <g transform="matrix(1.0, 0.0, 0.0, 1.0, 36.0, 25.45)">
    <path d="M36.0 16.4 Q36.0 20.1 33.4 22.75 30.75 25.4 27.05 25.4 L-27.05 25.4 Q-30.75 25.4 -33.4 22.75 -36.0 20.1 -36.0 16.4 L-36.0 -16.5 Q-36.0 -20.2 -33.4 -22.85 -30.75 -25.45 -27.05 -25.45 L27.05 -25.45 Q30.75 -25.45 33.4 -22.85 36.0 -20.2 36.0 -16.5 L36.0 16.4" fill="#4d73b8" fill-rule="evenodd" stroke="none"/>
    <path d="M33.35 15.7 Q33.35 19.55 30.6 22.35 27.8 25.1 23.95 25.1 L-23.95 25.1 Q-27.85 25.1 -30.6 22.35 -33.35 19.55 -33.35 15.7 L-33.35 -10.0 Q-33.35 -13.85 -30.6 -16.65 -27.85 -19.4 -23.95 -19.4 L23.95 -19.4 Q27.8 -19.4 30.6 -16.65 33.35 -13.85 33.35 -10.0 L33.35 15.7" fill="#474190" fill-rule="evenodd" stroke="none"/>
    <path d="M33.35 -12.9 L33.35 12.8 Q33.35 16.65 30.6 19.45 27.8 22.2 23.95 22.2 L-23.95 22.2 Q-27.85 22.2 -30.6 19.45 -33.35 16.65 -33.35 12.8 L-33.35 -12.9 Q-33.35 -16.8 -30.6 -19.55 -27.85 -22.3 -23.95 -22.3 L23.95 -22.3 Q27.8 -22.3 30.6 -19.55 33.35 -16.8 33.35 -12.9" fill="#323232" fill-rule="evenodd" stroke="none"/>
    <path d="M31.05 -12.9 L31.05 12.75 Q31.05 15.65 28.95 17.75 26.9 19.8 23.95 19.8 L-23.95 19.8 Q-26.9 19.8 -28.95 17.75 -31.05 15.65 -31.05 12.75 L-31.05 -12.9 Q-31.05 -15.8 -28.95 -17.9 -26.9 -19.95 -23.95 -19.95 L23.95 -19.95 Q26.9 -19.95 28.95 -17.9 31.05 -15.8 31.05 -12.9" fill="url(#gradient0)" fill-rule="evenodd" stroke="none"/>
    <path d="M15.15 0.25 Q21.4 -1.55 31.0 0.1 L31.0 12.65 Q31.0 15.6 28.9 17.7 26.85 19.75 23.9 19.75 L-23.95 19.75 Q-26.9 19.75 -28.95 17.7 -31.05 15.6 -31.05 12.65 L-31.05 -1.25 Q-30.25 1.45 -27.5 4.3 -21.9 10.05 -12.0 11.05 -5.1 11.7 1.3 7.45 9.95 1.75 15.15 0.25" fill="url(#gradient1)" fill-rule="evenodd" stroke="none"/>
    <path d="M9.85 -15.65 L9.85 -12.9 -3.8 15.55 -8.15 15.55 5.4 -12.05 5.4 -12.15 -9.85 -12.15 -9.85 -15.65 9.85 -15.65" fill="#f1f1f2" fill-rule="evenodd" stroke="none"/>
  </g>
  <defs>
    <linearGradient gradientTransform="matrix(0.0, 0.0086, 0.0086, 0.0, 0.0, -12.65)" gradientUnits="userSpaceOnUse" id="gradient0" spreadMethod="pad" x1="-819.2" x2="819.2">
      <stop offset="0.0" stop-color="#ffffff"/>
      <stop offset="1.0" stop-color="#323232"/>
    </linearGradient>
    <linearGradient gradientTransform="matrix(0.0, 0.0094, 0.0094, 0.0, 0.0, 8.05)" gradientUnits="userSpaceOnUse" id="gradient1" spreadMethod="pad" x1="-819.2" x2="819.2">
      <stop offset="0.0" stop-color="#1e1e1e"/>
      <stop offset="1.0" stop-color="#3d3d3d"/>
    </linearGradient>
  </defs>
</svg>
