<?xml version="1.0" encoding="UTF-8" standalone="no"?>
<svg xmlns:ffdec="https://www.free-decompiler.com/flash" xmlns:xlink="http://www.w3.org/1999/xlink" ffdec:objectType="shape" height="88.0px" width="88.0px" xmlns="http://www.w3.org/2000/svg">
  <g transform="matrix(1.0, 0.0, 0.0, 1.0, 44.0, 44.0)">
    <path d="M28.25 -38.0 Q32.3 -38.0 35.15 -35.15 38.0 -32.3 38.05 -28.25 L38.0 28.25 38.05 28.25 Q38.0 32.3 35.15 35.15 32.3 38.0 28.25 38.0 L-28.25 38.0 Q-32.3 38.0 -35.15 35.15 -38.0 32.3 -38.0 28.25 L-38.0 -28.25 Q-38.0 -32.3 -35.15 -35.15 -32.3 -38.0 -28.25 -38.0 L28.25 -38.0" fill="#ffffff" fill-rule="evenodd" stroke="none"/>
    <path d="M28.25 -44.0 Q34.75 -44.0 39.4 -39.35 44.0 -34.75 44.0 -28.25 L44.0 28.25 Q44.0 34.75 39.4 39.4 34.75 44.0 28.25 44.0 L-28.25 44.0 Q-34.75 44.0 -39.35 39.4 -44.0 34.75 -44.0 28.25 L-44.0 -28.25 Q-44.0 -34.75 -39.35 -39.35 -34.75 -44.0 -28.25 -44.0 L28.25 -44.0 M38.05 28.25 L38.0 28.25 38.05 -28.25 Q38.0 -32.3 35.15 -35.15 32.3 -38.0 28.25 -38.0 L-28.25 -38.0 Q-32.3 -38.0 -35.15 -35.15 -38.0 -32.3 -38.0 -28.25 L-38.0 28.25 Q-38.0 32.3 -35.15 35.15 -32.3 38.0 -28.25 38.0 L28.25 38.0 Q32.3 38.0 35.15 35.15 38.0 32.3 38.05 28.25" fill="#393838" fill-rule="evenodd" stroke="none"/>
  </g>
</svg>
