<?xml version="1.0" encoding="UTF-8" standalone="no"?>
<svg xmlns:ffdec="https://www.free-decompiler.com/flash" xmlns:xlink="http://www.w3.org/1999/xlink" ffdec:objectType="shape" height="110.65px" width="72.05px" xmlns="http://www.w3.org/2000/svg">
  <g transform="matrix(1.0, 0.0, 0.0, 1.0, 36.0, 55.3)">
    <path d="M27.05 -55.3 Q30.75 -55.3 33.4 -52.65 36.05 -50.0 36.05 -46.3 L36.05 46.35 Q36.05 50.05 33.4 52.7 30.75 55.35 27.05 55.35 L-27.0 55.35 Q-30.7 55.35 -33.35 52.7 -36.0 50.05 -36.0 46.35 L-36.0 -46.3 Q-36.0 -50.0 -33.35 -52.65 -30.7 -55.3 -27.0 -55.3 L27.05 -55.3" fill="#4d73b8" fill-rule="evenodd" stroke="none"/>
    <path d="M-22.8 11.1 L22.85 11.1 Q26.55 11.1 29.2 13.7 31.8 16.35 31.8 20.05 L31.8 44.45 Q31.8 48.15 29.2 50.8 26.55 53.45 22.85 53.45 L-22.8 53.45 Q-26.5 53.45 -29.15 50.8 -31.75 48.15 -31.75 44.45 L-31.75 20.05 Q-31.75 16.35 -29.15 13.7 -26.5 11.1 -22.8 11.1" fill="#474190" fill-rule="evenodd" stroke="none"/>
    <path d="M22.85 -51.05 Q26.55 -51.05 29.2 -48.45 31.8 -45.8 31.8 -42.1 L31.8 42.15 Q31.8 45.85 29.2 48.5 26.55 51.1 22.85 51.1 L-22.8 51.1 Q-26.5 51.1 -29.15 48.5 -31.75 45.85 -31.75 42.15 L-31.75 -42.1 Q-31.75 -45.8 -29.15 -48.45 -26.5 -51.05 -22.8 -51.05 L22.85 -51.05" fill="#dc6f3f" fill-rule="evenodd" stroke="none"/>
    <path d="M22.85 -48.8 Q25.65 -48.8 27.6 -46.85 29.55 -44.85 29.55 -42.05 L29.55 42.15 Q29.55 44.95 27.6 46.9 25.65 48.85 22.85 48.85 L-22.8 48.85 Q-25.55 48.85 -27.55 46.9 -29.5 44.95 -29.5 42.15 L-29.5 -42.05 Q-29.5 -44.85 -27.55 -46.85 -25.6 -48.8 -22.8 -48.8 L22.85 -48.8" fill="url(#gradient0)" fill-rule="evenodd" stroke="none"/>
    <path d="M14.45 0.3 Q20.5 -1.45 29.55 0.15 L29.55 42.15 Q29.55 44.95 27.6 46.9 25.65 48.85 22.85 48.85 L-22.8 48.85 Q-25.55 48.85 -27.55 46.9 -29.5 44.95 -29.5 42.15 L-29.5 -1.15 Q-28.75 1.4 -26.1 4.15 -20.8 9.6 -11.35 10.55 -4.8 11.2 1.25 7.2 9.55 1.7 14.45 0.3" fill="url(#gradient1)" fill-rule="evenodd" stroke="none"/>
    <path d="M19.0 -8.45 L8.2 -6.5 Q7.65 -9.75 5.75 -11.4 3.8 -13.05 0.7 -13.05 -3.4 -13.05 -5.85 -10.2 -8.3 -7.35 -8.3 -0.75 -8.3 6.65 -5.8 9.7 -3.35 12.75 0.85 12.75 4.0 12.75 5.95 11.0 7.95 9.2 8.8 4.85 L19.55 6.7 Q17.9 14.1 13.1 17.9 8.35 21.7 0.35 21.7 -8.75 21.7 -14.15 15.95 -19.6 10.2 -19.6 0.05 -19.6 -10.25 -14.15 -15.95 -8.7 -21.65 0.55 -21.65 8.1 -21.65 12.6 -18.4 17.05 -15.15 19.0 -8.45" fill="#ffffff" fill-rule="evenodd" stroke="none"/>
  </g>
  <defs>
    <linearGradient gradientTransform="matrix(0.0, 0.0089, 0.0089, 0.0, 0.0, -41.45)" gradientUnits="userSpaceOnUse" id="gradient0" spreadMethod="pad" x1="-819.2" x2="819.2">
      <stop offset="0.0" stop-color="#ffffff"/>
      <stop offset="0.996078431372549" stop-color="#dc6e3f"/>
    </linearGradient>
    <linearGradient gradientTransform="matrix(0.0, 0.0224, 0.0224, 0.0, 0.0, 21.05)" gradientUnits="userSpaceOnUse" id="gradient1" spreadMethod="pad" x1="-819.2" x2="819.2">
      <stop offset="0.0" stop-color="#823130"/>
      <stop offset="1.0" stop-color="#d8543e"/>
    </linearGradient>
  </defs>
</svg>
