<?xml version="1.0" encoding="UTF-8" standalone="no"?>
<svg xmlns:ffdec="https://www.free-decompiler.com/flash" xmlns:xlink="http://www.w3.org/1999/xlink" ffdec:objectType="shape" height="110.65px" width="72.05px" xmlns="http://www.w3.org/2000/svg">
  <g transform="matrix(1.0, 0.0, 0.0, 1.0, 36.0, 55.3)">
    <path d="M27.05 -55.3 Q30.75 -55.3 33.4 -52.65 36.05 -50.0 36.05 -46.3 L36.05 46.35 Q36.05 50.05 33.4 52.7 30.75 55.35 27.05 55.35 L-27.0 55.35 Q-30.7 55.35 -33.35 52.7 -36.0 50.05 -36.0 46.35 L-36.0 -46.3 Q-36.0 -50.0 -33.35 -52.65 -30.7 -55.3 -27.0 -55.3 L27.05 -55.3" fill="#4d73b8" fill-rule="evenodd" stroke="none"/>
    <path d="M-23.95 10.75 L24.0 10.75 Q27.9 10.75 30.65 13.5 33.4 16.3 33.4 20.15 L33.4 45.8 Q33.4 49.65 30.65 52.45 27.9 55.25 24.0 55.25 L-23.95 55.25 Q-27.85 55.25 -30.6 52.45 -33.35 49.65 -33.35 45.8 L-33.35 20.15 Q-33.35 16.3 -30.6 13.5 -27.85 10.75 -23.95 10.75" fill="#474190" fill-rule="evenodd" stroke="none"/>
    <path d="M24.0 -53.6 Q27.9 -53.6 30.65 -50.85 33.4 -48.1 33.4 -44.2 L33.4 44.25 Q33.4 48.15 30.65 50.95 27.9 53.65 24.0 53.65 L-23.95 53.65 Q-27.85 53.65 -30.6 50.95 -33.35 48.15 -33.35 44.25 L-33.35 -44.2 Q-33.35 -48.1 -30.6 -50.85 -27.85 -53.6 -23.95 -53.6 L24.0 -53.6" fill="#dc6f3f" fill-rule="evenodd" stroke="none"/>
    <path d="M24.0 -51.25 Q26.95 -51.25 29.0 -49.2 31.05 -47.1 31.05 -44.15 L31.05 44.25 Q31.05 47.2 29.0 49.25 26.95 51.3 24.0 51.3 L-23.95 51.3 Q-26.85 51.3 -28.95 49.25 -31.0 47.2 -31.0 44.25 L-31.0 -44.15 Q-31.0 -47.1 -28.95 -49.2 -26.9 -51.25 -23.95 -51.25 L24.0 -51.25" fill="url(#gradient0)" fill-rule="evenodd" stroke="none"/>
    <path d="M15.2 0.3 Q21.55 -1.5 31.05 0.15 L31.05 44.25 Q31.05 47.2 29.0 49.25 26.95 51.3 24.0 51.3 L-23.9 51.3 Q-26.8 51.3 -28.9 49.25 -30.95 47.2 -30.95 44.25 L-30.95 -1.2 Q-30.15 1.5 -27.4 4.35 -21.8 10.1 -11.9 11.1 -5.0 11.75 1.35 7.55 10.05 1.8 15.2 0.3" fill="url(#gradient1)" fill-rule="evenodd" stroke="none"/>
    <path d="M20.0 -8.9 L8.65 -6.85 Q8.1 -10.25 6.1 -12.0 4.05 -13.75 0.8 -13.75 -3.5 -13.75 -6.1 -10.75 -8.65 -7.75 -8.65 -0.8 -8.65 6.95 -6.05 10.15 -3.45 13.35 0.95 13.35 4.25 13.35 6.3 11.5 8.4 9.65 9.3 5.05 L20.55 7.0 Q18.85 14.75 13.8 18.75 8.8 22.75 0.4 22.75 -9.15 22.75 -14.8 16.7 -20.55 10.7 -20.55 0.0 -20.55 -10.8 -14.8 -16.8 -9.1 -22.75 0.6 -22.75 8.55 -22.75 13.25 -19.35 17.95 -15.95 20.0 -8.9" fill="#ffffff" fill-rule="evenodd" stroke="none"/>
  </g>
  <defs>
    <linearGradient gradientTransform="matrix(0.0, 0.0094, 0.0094, 0.0, 0.0, -43.5)" gradientUnits="userSpaceOnUse" id="gradient0" spreadMethod="pad" x1="-819.2" x2="819.2">
      <stop offset="0.0" stop-color="#ffffff"/>
      <stop offset="0.996078431372549" stop-color="#dc6e3f"/>
    </linearGradient>
    <linearGradient gradientTransform="matrix(0.0, 0.0235, 0.0235, 0.0, 0.0, 22.1)" gradientUnits="userSpaceOnUse" id="gradient1" spreadMethod="pad" x1="-819.2" x2="819.2">
      <stop offset="0.0" stop-color="#823130"/>
      <stop offset="1.0" stop-color="#d8543e"/>
    </linearGradient>
  </defs>
</svg>
