<?xml version="1.0" encoding="UTF-8" standalone="no"?>
<svg xmlns:ffdec="https://www.free-decompiler.com/flash" xmlns:xlink="http://www.w3.org/1999/xlink" ffdec:objectType="shape" height="51.0px" width="51.0px" xmlns="http://www.w3.org/2000/svg">
  <g transform="matrix(1.0, 0.0, 0.0, 1.0, 27.0, 25.55)">
    <path d="M24.0 14.65 Q24.0 19.1 20.85 22.3 17.7 25.45 13.2 25.45 L-16.2 25.45 Q-20.65 25.45 -23.85 22.3 -27.0 19.1 -27.0 14.65 L-27.0 -14.75 Q-27.0 -19.25 -23.85 -22.4 -20.65 -25.55 -16.2 -25.55 L13.2 -25.55 Q17.7 -25.55 20.85 -22.4 24.0 -19.25 24.0 -14.75 L24.0 14.65" fill="#393838" fill-rule="evenodd" stroke="none"/>
    <path d="M-8.75 -11.05 Q-3.5 -13.6 -0.5 -17.2 L1.7 -15.8 1.7 18.3 -3.3 17.85 Q-2.55 1.35 -2.55 -9.7 -4.4 -7.35 -6.6 -6.55 L-8.75 -11.05" fill="#ffffff" fill-rule="evenodd" stroke="none"/>
  </g>
</svg>
