<?xml version="1.0" encoding="UTF-8" standalone="no"?>
<svg xmlns:ffdec="https://www.free-decompiler.com/flash" xmlns:xlink="http://www.w3.org/1999/xlink" ffdec:objectType="shape" height="56.1px" width="56.1px" xmlns="http://www.w3.org/2000/svg">
  <g transform="matrix(1.0, 0.0, 0.0, 1.0, 29.55, 28.1)">
    <path d="M26.55 16.1 Q26.55 21.0 23.1 24.55 19.6 28.0 14.65 28.0 L-17.65 28.0 Q-22.55 28.0 -26.1 24.55 -29.55 21.0 -29.55 16.1 L-29.55 -16.2 Q-29.55 -21.15 -26.1 -24.65 -22.55 -28.1 -17.65 -28.1 L14.65 -28.1 Q19.6 -28.1 23.1 -24.65 26.55 -21.15 26.55 -16.2 L26.55 16.1" fill="#393838" fill-rule="evenodd" stroke="none"/>
    <path d="M-9.5 -12.15 Q-3.7 -14.95 -0.4 -18.9 L2.0 -17.4 2.0 20.15 -3.5 19.65 Q-2.65 1.5 -2.65 -10.65 -4.7 -8.1 -7.1 -7.2 L-9.5 -12.15" fill="#ffffff" fill-rule="evenodd" stroke="none"/>
  </g>
</svg>
