<?xml version="1.0" encoding="UTF-8" standalone="no"?>
<svg xmlns:ffdec="https://www.free-decompiler.com/flash" xmlns:xlink="http://www.w3.org/1999/xlink" ffdec:objectType="shape" height="40.8px" width="40.8px" xmlns="http://www.w3.org/2000/svg">
  <g transform="matrix(1.0, 0.0, 0.0, 1.0, 21.9, 20.45)">
    <path d="M18.9 11.7 Q18.9 15.25 16.4 17.85 13.85 20.35 10.25 20.35 L-13.25 20.35 Q-16.8 20.35 -19.4 17.85 -21.9 15.25 -21.9 11.7 L-21.9 -11.8 Q-21.9 -15.4 -19.4 -17.95 -16.8 -20.45 -13.25 -20.45 L10.25 -20.45 Q13.85 -20.45 16.4 -17.95 18.9 -15.4 18.9 -11.8 L18.9 11.7" fill="#393838" fill-rule="evenodd" stroke="none"/>
    <path d="M-7.3 -8.85 Q-3.1 -10.9 -0.7 -13.75 L1.05 -12.65 1.05 14.65 -2.95 14.25 Q-2.35 1.05 -2.35 -7.75 -3.8 -5.9 -5.6 -5.25 L-7.3 -8.85" fill="#ffffff" fill-rule="evenodd" stroke="none"/>
  </g>
</svg>
