<?xml version="1.0" encoding="UTF-8" standalone="no"?>
<svg xmlns:ffdec="https://www.free-decompiler.com/flash" xmlns:xlink="http://www.w3.org/1999/xlink" ffdec:objectType="shape" height="56.1px" width="56.1px" xmlns="http://www.w3.org/2000/svg">
  <g transform="matrix(1.0, 0.0, 0.0, 1.0, 27.55, 28.1)">
    <path d="M28.55 16.1 Q28.55 21.05 25.1 24.55 21.6 28.0 16.65 28.0 L-15.65 28.0 Q-20.55 28.0 -24.1 24.55 -27.55 21.05 -27.55 16.1 L-27.55 -16.2 Q-27.55 -21.1 -24.1 -24.65 -20.55 -28.1 -15.65 -28.1 L16.65 -28.1 Q21.6 -28.1 25.1 -24.65 28.55 -21.1 28.55 -16.2 L28.55 16.1" fill="#393838" fill-rule="evenodd" stroke="none"/>
    <path d="M11.55 -17.15 L10.75 1.1 13.9 0.7 13.9 6.25 10.75 6.15 10.25 20.3 4.7 19.95 5.1 13.25 5.4 6.35 -6.15 6.8 -14.35 7.3 -15.9 4.55 Q-12.0 -0.75 -8.75 -5.9 -5.95 -10.25 -2.95 -15.55 L1.85 -12.9 Q-2.2 -5.35 -7.9 1.85 L-0.05 1.6 6.0 1.1 6.0 -17.45 11.55 -17.15" fill="#ffffff" fill-rule="evenodd" stroke="none"/>
  </g>
</svg>
