<?xml version="1.0" encoding="UTF-8" standalone="no"?>
<svg xmlns:ffdec="https://www.free-decompiler.com/flash" xmlns:xlink="http://www.w3.org/1999/xlink" ffdec:objectType="shape" height="55.0px" width="55.0px" xmlns="http://www.w3.org/2000/svg">
  <g transform="matrix(1.0, 0.0, 0.0, 1.0, 27.0, 27.55)">
    <path d="M2.85 -12.65 L13.1 -12.9 12.75 -18.5 1.45 -17.95 -9.45 -17.75 Q-9.95 -7.9 -13.55 -2.05 L-10.05 0.75 Q-6.65 -1.2 -2.55 -1.2 3.45 -1.2 7.0 1.05 10.4 3.35 10.55 7.05 10.55 8.7 9.75 10.05 8.95 11.4 7.35 12.55 5.95 13.6 3.45 14.3 L-1.8 14.95 Q-6.85 14.95 -13.0 12.65 L-14.7 17.95 Q-8.65 20.25 -2.4 20.25 L4.5 19.35 Q8.25 18.35 10.6 16.9 13.3 15.35 15.0 13.05 16.65 10.75 16.65 7.85 16.65 5.05 15.15 2.55 13.6 0.05 10.85 -1.75 8.25 -3.55 4.55 -4.65 0.85 -5.7 -3.0 -5.7 L-7.05 -5.3 Q-5.9 -8.75 -5.15 -12.8 -1.6 -12.65 2.85 -12.65 M16.65 -27.55 Q21.4 -27.55 24.7 -24.25 28.0 -20.9 28.0 -16.2 L28.0 16.1 Q28.0 20.85 24.7 24.15 21.4 27.45 16.65 27.45 L-15.65 27.45 Q-20.35 27.45 -23.7 24.15 -27.0 20.85 -27.0 16.1 L-27.0 -16.2 Q-27.0 -20.9 -23.7 -24.25 -20.35 -27.55 -15.65 -27.55 L16.65 -27.55" fill="#393838" fill-rule="evenodd" stroke="none"/>
    <path d="M13.1 -12.9 L2.85 -12.65 Q-1.6 -12.65 -5.15 -12.8 -5.9 -8.75 -7.05 -5.3 L-3.0 -5.7 Q0.85 -5.7 4.55 -4.65 8.25 -3.55 10.85 -1.75 13.6 0.05 15.15 2.55 16.65 5.05 16.65 7.85 16.65 10.75 15.0 13.05 13.3 15.35 10.6 16.9 8.25 18.35 4.5 19.35 L-2.4 20.25 Q-8.65 20.25 -14.7 17.95 L-13.0 12.65 Q-6.85 14.95 -1.8 14.95 L3.45 14.3 Q5.95 13.6 7.35 12.55 8.95 11.4 9.75 10.05 10.55 8.7 10.55 7.05 10.4 3.35 7.0 1.05 3.45 -1.2 -2.55 -1.2 -6.65 -1.2 -10.05 0.75 L-13.55 -2.05 Q-9.95 -7.9 -9.45 -17.75 L1.45 -17.95 12.75 -18.5 13.1 -12.9" fill="#ffffff" fill-rule="evenodd" stroke="none"/>
  </g>
</svg>
