<?xml version="1.0" encoding="UTF-8" standalone="no"?>
<svg xmlns:ffdec="https://www.free-decompiler.com/flash" xmlns:xlink="http://www.w3.org/1999/xlink" ffdec:objectType="shape" height="40.0px" width="40.0px" xmlns="http://www.w3.org/2000/svg">
  <g transform="matrix(1.0, 0.0, 0.0, 1.0, 19.5, 20.05)">
    <path d="M2.2 -9.2 L9.65 -9.4 9.4 -13.45 1.2 -13.05 -6.75 -12.95 Q-7.1 -5.75 -9.7 -1.5 L-7.2 0.55 Q-4.7 -0.9 -1.7 -0.9 2.65 -0.9 5.2 0.75 7.7 2.45 7.8 5.1 7.8 6.3 7.2 7.3 6.65 8.25 5.5 9.1 4.45 9.85 2.65 10.4 L-1.2 10.85 Q-4.85 10.85 -9.3 9.2 L-10.55 13.05 Q-6.15 14.7 -1.6 14.7 L3.4 14.05 Q6.15 13.35 7.85 12.25 9.8 11.15 11.05 9.45 12.25 7.8 12.25 5.7 12.25 3.65 11.15 1.85 10.0 0.05 8.0 -1.3 6.15 -2.6 3.45 -3.4 L-2.05 -4.15 -5.0 -3.85 Q-4.15 -6.35 -3.6 -9.35 L2.2 -9.2 M12.25 -20.05 Q15.7 -20.05 18.1 -17.65 20.5 -15.2 20.5 -11.8 L20.5 11.7 Q20.5 15.15 18.1 17.55 15.7 19.95 12.25 19.95 L-11.25 19.95 Q-14.65 19.95 -17.1 17.55 -19.5 15.15 -19.5 11.7 L-19.5 -11.8 Q-19.5 -15.2 -17.1 -17.65 -14.65 -20.05 -11.25 -20.05 L12.25 -20.05" fill="#393838" fill-rule="evenodd" stroke="none"/>
    <path d="M9.65 -9.4 L2.2 -9.2 -3.6 -9.35 Q-4.15 -6.35 -5.0 -3.85 L-2.05 -4.15 3.45 -3.4 Q6.15 -2.6 8.0 -1.3 10.0 0.05 11.15 1.85 12.25 3.65 12.25 5.7 12.25 7.8 11.05 9.45 9.8 11.15 7.85 12.25 6.15 13.35 3.4 14.05 L-1.6 14.7 Q-6.15 14.7 -10.55 13.05 L-9.3 9.2 Q-4.85 10.85 -1.2 10.85 L2.65 10.4 Q4.45 9.85 5.5 9.1 6.65 8.25 7.2 7.3 7.8 6.3 7.8 5.1 7.7 2.45 5.2 0.75 2.65 -0.9 -1.7 -0.9 -4.7 -0.9 -7.2 0.55 L-9.7 -1.5 Q-7.1 -5.75 -6.75 -12.95 L1.2 -13.05 9.4 -13.45 9.65 -9.4" fill="#ffffff" fill-rule="evenodd" stroke="none"/>
  </g>
</svg>
