<?xml version="1.0" encoding="UTF-8" standalone="no"?>
<svg xmlns:ffdec="https://www.free-decompiler.com/flash" xmlns:xlink="http://www.w3.org/1999/xlink" ffdec:objectType="shape" height="50.0px" width="50.0px" xmlns="http://www.w3.org/2000/svg">
  <g transform="matrix(1.0, 0.0, 0.0, 1.0, 23.5, 25.05)">
    <path d="M7.1 -2.85 Q4.65 -3.6 1.9 -3.6 -1.7 -3.6 -5.6 -1.05 -2.8 -10.2 8.55 -11.2 L7.95 -16.2 Q3.95 -15.95 0.4 -14.0 -3.15 -12.0 -5.8 -8.9 -8.4 -5.75 -10.0 -1.85 -11.55 2.0 -11.55 6.1 -11.55 12.0 -8.35 15.25 -5.05 18.45 0.6 18.45 3.85 18.45 6.7 17.45 9.5 16.5 11.35 14.9 13.3 13.25 14.35 11.25 15.45 9.05 15.45 7.1 15.45 4.85 14.35 2.8 13.3 0.8 11.45 -0.6 9.6 -2.0 7.1 -2.85 M16.2 -25.05 Q20.5 -25.05 23.5 -22.05 26.5 -19.0 26.5 -14.75 L26.5 14.65 Q26.5 18.95 23.5 21.95 20.5 24.95 16.2 24.95 L-13.2 24.95 Q-17.45 24.95 -20.5 21.95 -23.5 18.95 -23.5 14.65 L-23.5 -14.75 Q-23.5 -19.0 -20.5 -22.05 -17.45 -25.05 -13.2 -25.05 L16.2 -25.05" fill="#393838" fill-rule="evenodd" stroke="none"/>
    <path d="M-6.5 5.9 L-6.45 4.45 Q-2.6 1.75 2.65 1.75 5.95 1.75 8.1 2.95 10.25 4.2 10.25 6.4 10.25 7.95 9.45 9.25 8.55 10.65 7.35 11.5 5.95 12.5 4.4 13.0 2.75 13.6 1.05 13.6 -2.5 13.6 -4.5 11.55 -6.5 9.55 -6.5 5.9" fill="#393838" fill-rule="evenodd" stroke="none"/>
    <path d="M-6.45 4.45 L-6.5 5.9 Q-6.5 9.55 -4.5 11.55 -2.5 13.6 1.05 13.6 2.75 13.6 4.4 13.0 5.95 12.5 7.35 11.5 8.55 10.65 9.45 9.25 10.25 7.95 10.25 6.4 10.25 4.2 8.1 2.95 5.95 1.75 2.65 1.75 -2.6 1.75 -6.45 4.45 M0.4 -14.0 Q3.95 -15.95 7.95 -16.2 L8.55 -11.2 Q-2.8 -10.2 -5.6 -1.05 -1.7 -3.6 1.9 -3.6 4.65 -3.6 7.1 -2.85 9.6 -2.0 11.45 -0.6 13.3 0.8 14.35 2.8 15.45 4.85 15.45 7.1 15.45 9.05 14.35 11.25 13.3 13.25 11.35 14.9 9.5 16.5 6.7 17.45 3.85 18.45 0.6 18.45 -5.05 18.45 -8.35 15.25 -11.55 12.0 -11.55 6.1 -11.55 2.0 -10.0 -1.85 -8.4 -5.75 -5.8 -8.9 -3.15 -12.0 0.4 -14.0" fill="#ffffff" fill-rule="evenodd" stroke="none"/>
  </g>
</svg>
