<?xml version="1.0" encoding="UTF-8" standalone="no"?>
<svg xmlns:ffdec="https://www.free-decompiler.com/flash" xmlns:xlink="http://www.w3.org/1999/xlink" ffdec:objectType="shape" height="55.0px" width="55.0px" xmlns="http://www.w3.org/2000/svg">
  <g transform="matrix(1.0, 0.0, 0.0, 1.0, 26.0, 27.55)">
    <path d="M7.65 -3.15 Q4.95 -3.95 1.95 -3.95 -2.0 -3.95 -6.3 -1.15 -3.25 -11.2 9.25 -12.3 L8.6 -17.8 Q4.2 -17.55 0.3 -15.4 -3.6 -13.2 -6.55 -9.8 -9.4 -6.3 -11.15 -2.05 -12.85 2.2 -12.85 6.7 -12.85 13.2 -9.35 16.8 -5.7 20.3 0.5 20.3 4.1 20.3 7.2 19.2 10.3 18.15 12.35 16.4 14.5 14.6 15.65 12.4 16.85 9.95 16.85 7.8 16.85 5.35 15.65 3.1 14.5 0.9 12.45 -0.65 10.4 -2.2 7.65 -3.15 M17.65 -27.55 Q22.4 -27.55 25.7 -24.25 29.0 -20.9 29.0 -16.2 L29.0 16.1 Q29.0 20.85 25.7 24.15 22.4 27.45 17.65 27.45 L-14.65 27.45 Q-19.35 27.45 -22.7 24.15 -26.0 20.85 -26.0 16.1 L-26.0 -16.2 Q-26.0 -20.9 -22.7 -24.25 -19.35 -27.55 -14.65 -27.55 L17.65 -27.55" fill="#393838" fill-rule="evenodd" stroke="none"/>
    <path d="M-7.3 6.5 L-7.25 4.9 Q-3.0 1.95 2.75 1.95 6.4 1.95 8.75 3.25 11.1 4.6 11.1 7.05 11.1 8.75 10.25 10.2 9.25 11.7 7.95 12.65 6.4 13.75 4.7 14.3 L1.0 14.95 Q-2.9 14.95 -5.1 12.7 -7.3 10.5 -7.3 6.5" fill="#393838" fill-rule="evenodd" stroke="none"/>
    <path d="M-7.25 4.9 L-7.3 6.5 Q-7.3 10.5 -5.1 12.7 -2.9 14.95 1.0 14.95 L4.7 14.3 Q6.4 13.75 7.95 12.65 9.25 11.7 10.25 10.2 11.1 8.75 11.1 7.05 11.1 4.6 8.75 3.25 6.4 1.95 2.75 1.95 -3.0 1.95 -7.25 4.9 M0.3 -15.4 Q4.2 -17.55 8.6 -17.8 L9.25 -12.3 Q-3.25 -11.2 -6.3 -1.15 -2.0 -3.95 1.95 -3.95 4.95 -3.95 7.65 -3.15 10.4 -2.2 12.45 -0.65 14.5 0.9 15.65 3.1 16.85 5.35 16.85 7.8 16.85 9.95 15.65 12.4 14.5 14.6 12.35 16.4 10.3 18.15 7.2 19.2 4.1 20.3 0.5 20.3 -5.7 20.3 -9.35 16.8 -12.85 13.2 -12.85 6.7 -12.85 2.2 -11.15 -2.05 -9.4 -6.3 -6.55 -9.8 -3.6 -13.2 0.3 -15.4" fill="#ffffff" fill-rule="evenodd" stroke="none"/>
  </g>
</svg>
