<?xml version="1.0" encoding="UTF-8" standalone="no"?>
<svg xmlns:ffdec="https://www.free-decompiler.com/flash" xmlns:xlink="http://www.w3.org/1999/xlink" ffdec:objectType="shape" height="51.05px" width="51.0px" xmlns="http://www.w3.org/2000/svg">
  <g transform="matrix(1.0, 0.0, 0.0, 1.0, 27.0, 25.55)">
    <path d="M24.0 14.7 Q24.0 19.15 20.85 22.35 17.7 25.5 13.2 25.5 L-16.2 25.5 Q-20.65 25.5 -23.85 22.35 -27.0 19.15 -27.0 14.7 L-27.0 -14.75 Q-27.0 -19.2 -23.85 -22.4 -20.65 -25.55 -16.2 -25.55 L13.2 -25.55 Q17.7 -25.55 20.85 -22.4 24.0 -19.2 24.0 -14.75 L24.0 14.7" fill="#393838" fill-rule="evenodd" stroke="none"/>
    <path d="M12.15 -14.95 Q-2.0 1.3 -4.8 18.45 L-9.85 17.85 Q-6.4 0.9 4.35 -12.35 L-7.85 -11.6 -13.25 -11.65 -13.25 -16.7 -3.9 -16.45 10.8 -17.0 12.15 -14.95" fill="#ffffff" fill-rule="evenodd" stroke="none"/>
  </g>
</svg>
