<?xml version="1.0" encoding="UTF-8" standalone="no"?>
<svg xmlns:ffdec="https://www.free-decompiler.com/flash" xmlns:xlink="http://www.w3.org/1999/xlink" ffdec:objectType="shape" height="55.05px" width="55.0px" xmlns="http://www.w3.org/2000/svg">
  <g transform="matrix(1.0, 0.0, 0.0, 1.0, 27.0, 27.55)">
    <path d="M-8.8 7.55 Q-7.85 6.05 -6.25 5.05 -4.5 4.0 -2.3 3.4 L2.85 2.75 Q7.45 2.75 9.55 4.25 11.75 5.7 11.75 9.1 11.55 11.75 8.4 13.8 5.35 15.75 0.3 15.75 -4.0 15.75 -6.8 14.3 -9.45 12.85 -9.75 10.5 -9.75 8.95 -8.8 7.55" fill="#393838" fill-rule="evenodd" stroke="none"/>
    <path d="M-5.1 -11.5 Q-3.9 -12.3 -2.2 -12.8 L1.6 -13.3 Q4.75 -13.3 6.7 -12.15 9.0 -10.5 9.0 -8.5 9.0 -7.25 8.2 -6.1 7.45 -4.9 6.15 -4.05 5.05 -3.25 3.3 -2.65 1.8 -2.1 0.1 -2.1 L-2.85 -2.6 Q-4.4 -3.2 -5.3 -3.9 -6.45 -4.6 -7.0 -5.6 -7.65 -6.6 -7.65 -7.4 -7.65 -8.5 -7.0 -9.6 L-5.1 -11.5" fill="#393838" fill-rule="evenodd" stroke="none"/>
    <path d="M14.7 -8.45 Q14.7 -10.5 13.65 -12.35 12.6 -14.25 10.8 -15.8 L6.6 -18.15 Q4.15 -19.1 1.65 -19.1 -1.1 -19.1 -3.9 -18.15 -6.75 -17.15 -8.7 -15.6 -10.65 -14.2 -12.1 -11.75 -13.35 -9.6 -13.35 -6.85 -13.35 -1.85 -7.9 0.3 -15.5 3.5 -15.5 9.65 -15.5 11.9 -14.4 13.95 -13.3 15.9 -11.15 17.55 -9.05 19.15 -6.2 20.0 -3.25 20.95 0.1 20.95 L5.85 20.3 Q8.65 19.7 11.3 18.1 13.75 16.6 15.4 14.1 17.0 11.65 17.0 8.0 17.0 1.0 9.15 -0.45 14.7 -3.65 14.7 -8.45 M16.65 -27.55 Q21.4 -27.5 24.7 -24.2 28.0 -20.9 28.0 -16.2 L28.0 16.15 Q28.0 20.9 24.7 24.2 21.4 27.5 16.65 27.5 L-15.65 27.5 Q-20.35 27.5 -23.7 24.2 -27.0 20.9 -27.0 16.15 L-27.0 -16.2 Q-27.0 -20.9 -23.7 -24.2 -20.35 -27.5 -15.65 -27.55 L16.65 -27.55" fill="#393838" fill-rule="evenodd" stroke="none"/>
    <path d="M-9.75 10.5 Q-9.45 12.85 -6.8 14.3 -4.0 15.75 0.3 15.75 5.35 15.75 8.4 13.8 11.55 11.75 11.75 9.1 11.75 5.7 9.55 4.25 7.45 2.75 2.85 2.75 L-2.3 3.4 Q-4.5 4.0 -6.25 5.05 -7.85 6.05 -8.8 7.55 -9.75 8.95 -9.75 10.5 M-5.3 -3.9 Q-4.4 -3.2 -2.85 -2.6 L0.1 -2.1 Q1.8 -2.1 3.3 -2.65 5.05 -3.25 6.15 -4.05 7.45 -4.9 8.2 -6.1 9.0 -7.25 9.0 -8.5 9.0 -10.5 6.7 -12.15 4.75 -13.3 1.6 -13.3 L-2.2 -12.8 Q-3.9 -12.3 -5.1 -11.5 L-7.0 -9.6 Q-7.65 -8.5 -7.65 -7.4 -7.65 -6.6 -7.0 -5.6 -6.45 -4.6 -5.3 -3.9 M6.6 -18.15 L10.8 -15.8 Q12.6 -14.25 13.65 -12.35 14.7 -10.5 14.7 -8.45 14.7 -3.65 9.15 -0.45 17.0 1.0 17.0 8.0 17.0 11.65 15.4 14.1 13.75 16.6 11.3 18.1 8.65 19.7 5.85 20.3 L0.1 20.95 Q-3.25 20.95 -6.2 20.0 -9.05 19.15 -11.15 17.55 -13.3 15.9 -14.4 13.95 -15.5 11.9 -15.5 9.65 -15.5 3.5 -7.9 0.3 -13.35 -1.85 -13.35 -6.85 -13.35 -9.6 -12.1 -11.75 -10.65 -14.2 -8.7 -15.6 -6.75 -17.15 -3.9 -18.15 -1.1 -19.1 1.65 -19.1 4.15 -19.1 6.6 -18.15" fill="#ffffff" fill-rule="evenodd" stroke="none"/>
  </g>
</svg>
