<?xml version="1.0" encoding="UTF-8" standalone="no"?>
<svg xmlns:ffdec="https://www.free-decompiler.com/flash" xmlns:xlink="http://www.w3.org/1999/xlink" ffdec:objectType="shape" height="181.5px" width="280.1px" xmlns="http://www.w3.org/2000/svg">
  <g transform="matrix(1.0, 0.0, 0.0, 1.0, 140.1, 96.3)">
    <path d="M65.7 -61.8 Q66.5 -58.1 62.85 -54.05 L56.6 -48.2 Q53.3 -44.9 54.7 -40.35 56.2 -35.75 61.3 -37.0 64.45 -37.75 68.0 -43.2 72.05 -49.6 73.75 -50.85 80.85 -56.05 91.35 -47.65 96.7 -43.4 105.0 -33.1 110.2 -26.6 112.1 -22.65 115.75 -15.05 111.55 -11.1 108.65 -8.3 102.8 -6.9 L93.15 -4.9 Q89.0 -3.75 87.45 -0.85 85.7 2.55 89.6 5.6 93.15 8.45 101.3 5.15 L107.65 2.3 Q111.3 0.65 113.1 0.2 119.15 -1.0 123.1 5.25 126.65 10.95 126.55 19.35 126.45 28.0 122.45 33.05 117.9 38.9 109.8 36.95 103.2 35.35 101.4 35.45 96.7 35.7 96.85 41.15 97.1 45.85 104.1 45.75 L109.8 45.5 114.35 45.75 Q118.8 47.3 111.7 57.15 105.6 65.4 101.55 68.1 96.6 71.5 88.6 72.15 L74.75 72.15 37.45 72.55 Q12.25 72.75 9.75 71.85 7.5 70.9 6.6 66.15 6.1 63.75 5.55 56.15 5.05 49.55 4.15 46.65 2.9 42.45 -0.05 42.45 -4.7 42.45 -5.65 56.15 -6.25 63.75 -6.75 66.15 -7.65 70.9 -9.9 71.85 -12.35 72.75 -37.6 72.55 L-74.9 72.15 -88.75 72.15 Q-96.75 71.5 -101.7 68.1 -105.75 65.4 -111.85 57.15 -118.95 47.3 -114.45 45.75 L-109.95 45.5 -104.25 45.75 Q-97.25 45.85 -97.05 41.15 -96.75 35.7 -101.5 35.45 -103.35 35.35 -109.95 36.95 -118.0 38.9 -122.65 33.05 -126.6 28.0 -126.7 19.35 -126.75 10.95 -123.2 5.25 -119.25 -1.0 -113.25 0.2 -110.2 0.9 -101.45 5.15 -93.35 8.45 -89.75 5.6 -85.85 2.55 -87.6 -0.85 -89.15 -3.75 -93.35 -4.9 L-102.9 -6.9 Q-108.85 -8.3 -111.65 -11.1 -115.85 -15.05 -112.25 -22.65 -110.35 -26.6 -105.15 -33.1 -96.8 -43.4 -91.4 -47.65 -81.0 -56.05 -73.9 -50.85 -72.15 -49.6 -68.1 -43.2 -64.55 -37.75 -61.45 -37.0 -56.3 -35.75 -54.9 -40.35 -53.5 -44.9 -56.75 -48.2 -61.0 -51.85 -63.0 -54.05 -66.65 -58.1 -65.8 -61.8 -64.25 -69.35 -51.45 -75.6 -43.1 -79.55 -32.05 -82.35 -25.45 -83.95 -20.35 -83.0 -14.0 -81.8 -10.7 -76.65 -6.5 -70.05 -5.25 -47.05 -4.75 -37.0 -4.0 -33.35 -2.85 -27.5 -0.05 -27.5 2.75 -27.5 3.9 -33.35 4.65 -37.0 5.2 -47.05 6.3 -70.05 10.6 -76.65 13.9 -81.8 20.25 -83.0 25.35 -83.95 31.95 -82.35 43.0 -79.55 51.3 -75.6 64.1 -69.35 65.7 -61.8" fill="#95ca98" fill-rule="evenodd" stroke="none"/>
    <path d="M79.6 -65.7 Q90.15 -65.7 100.9 -56.8 107.1 -51.75 115.15 -41.6 L118.9 -36.65 Q123.0 -31.05 124.55 -27.6 128.95 -17.95 126.15 -9.85 131.1 -6.95 134.4 -1.75 L136.1 1.3 Q139.9 8.95 140.0 18.6 140.1 26.3 137.75 32.65 136.45 36.25 134.4 39.3 132.8 41.55 130.9 43.45 L129.1 44.95 129.35 46.1 Q130.0 50.6 127.85 55.75 125.8 60.85 120.7 67.2 L115.6 73.05 Q111.8 77.0 109.4 78.65 103.6 82.55 96.2 84.1 90.85 85.2 83.35 85.2 L28.95 85.2 11.25 84.95 Q6.85 84.7 4.55 83.8 2.0 82.7 -0.05 81.05 -2.2 82.8 -4.75 83.8 -7.1 84.7 -11.35 84.95 L-29.1 85.2 -83.45 85.2 -96.3 84.1 Q-103.75 82.55 -109.5 78.65 -111.9 77.0 -115.65 73.05 L-120.8 67.2 Q-125.95 60.85 -128.0 55.75 -130.15 50.6 -129.5 46.1 L-129.3 44.95 -131.05 43.45 Q-135.5 39.05 -137.9 32.65 -138.9 29.85 -139.45 26.85 -140.2 22.9 -140.1 18.6 -140.1 14.75 -139.45 11.2 -138.55 5.9 -136.25 1.3 -132.6 -6.15 -126.25 -9.85 -129.15 -17.95 -124.7 -27.6 -123.15 -31.05 -119.1 -36.65 L-115.3 -41.6 Q-107.05 -51.85 -101.05 -56.8 -90.3 -65.7 -79.75 -65.7 L-78.75 -65.7 Q-75.7 -76.75 -61.95 -84.75 -51.45 -90.95 -35.45 -94.8 -29.7 -96.3 -24.3 -96.3 -16.65 -96.3 -10.35 -93.25 -4.1 -90.3 -0.05 -84.65 4.0 -90.3 10.25 -93.25 16.5 -96.3 24.2 -96.3 29.55 -96.3 35.3 -94.8 51.3 -90.85 61.8 -84.75 75.55 -76.75 78.65 -65.7 L79.6 -65.7 M65.7 -61.8 Q64.1 -69.35 51.3 -75.6 43.0 -79.55 31.95 -82.35 25.35 -83.95 20.25 -83.0 13.9 -81.8 10.6 -76.65 6.3 -70.05 5.2 -47.05 4.65 -37.0 3.9 -33.35 2.75 -27.5 -0.05 -27.5 -2.85 -27.5 -4.0 -33.35 -4.75 -37.0 -5.25 -47.05 -6.5 -70.05 -10.7 -76.65 -14.0 -81.8 -20.35 -83.0 -25.45 -83.95 -32.05 -82.35 -43.1 -79.55 -51.45 -75.6 -64.25 -69.35 -65.8 -61.8 -66.65 -58.1 -63.0 -54.05 -61.0 -51.85 -56.75 -48.2 -53.5 -44.9 -54.9 -40.35 -56.3 -35.75 -61.45 -37.0 -64.55 -37.75 -68.1 -43.2 -72.15 -49.6 -73.9 -50.85 -81.0 -56.05 -91.4 -47.65 -96.8 -43.4 -105.15 -33.1 -110.35 -26.6 -112.25 -22.65 -115.85 -15.05 -111.65 -11.1 -108.85 -8.3 -102.9 -6.9 L-93.35 -4.9 Q-89.15 -3.75 -87.6 -0.85 -85.85 2.55 -89.75 5.6 -93.35 8.45 -101.45 5.15 -110.2 0.9 -113.25 0.2 -119.25 -1.0 -123.2 5.25 -126.75 10.95 -126.7 19.35 -126.6 28.0 -122.65 33.05 -118.0 38.9 -109.95 36.95 -103.35 35.35 -101.5 35.45 -96.75 35.7 -97.05 41.15 -97.25 45.85 -104.25 45.75 L-109.95 45.5 -114.45 45.75 Q-118.95 47.3 -111.85 57.15 -105.75 65.4 -101.7 68.1 -96.75 71.5 -88.75 72.15 L-74.9 72.15 -37.6 72.55 Q-12.35 72.75 -9.9 71.85 -7.65 70.9 -6.75 66.15 -6.25 63.75 -5.65 56.15 -4.7 42.45 -0.05 42.45 2.9 42.45 4.15 46.65 5.05 49.55 5.55 56.15 6.1 63.75 6.6 66.15 7.5 70.9 9.75 71.85 12.25 72.75 37.45 72.55 L74.75 72.15 88.6 72.15 Q96.6 71.5 101.55 68.1 105.6 65.4 111.7 57.15 118.8 47.3 114.35 45.75 L109.8 45.5 104.1 45.75 Q97.1 45.85 96.85 41.15 96.7 35.7 101.4 35.45 103.2 35.35 109.8 36.95 117.9 38.9 122.45 33.05 126.45 28.0 126.55 19.35 126.65 10.95 123.1 5.25 119.15 -1.0 113.1 0.2 111.3 0.65 107.65 2.3 L101.3 5.15 Q93.15 8.45 89.6 5.6 85.7 2.55 87.45 -0.85 89.0 -3.75 93.15 -4.9 L102.8 -6.9 Q108.65 -8.3 111.55 -11.1 115.75 -15.05 112.1 -22.65 110.2 -26.6 105.0 -33.1 96.7 -43.4 91.35 -47.65 80.85 -56.05 73.75 -50.85 72.05 -49.6 68.0 -43.2 64.45 -37.75 61.3 -37.0 56.2 -35.75 54.7 -40.35 53.3 -44.9 56.6 -48.2 L62.85 -54.05 Q66.5 -58.1 65.7 -61.8" fill="#5baa9e" fill-rule="evenodd" stroke="none"/>
  </g>
</svg>
