<?xml version="1.0" encoding="UTF-8" standalone="no"?>
<svg xmlns:ffdec="https://www.free-decompiler.com/flash" xmlns:xlink="http://www.w3.org/1999/xlink" ffdec:objectType="shape" height="80.75px" width="218.7px" xmlns="http://www.w3.org/2000/svg">
  <g transform="matrix(1.0, 0.0, 0.0, 1.0, 109.45, 137.75)">
    <path d="M63.5 -72.1 L57.3 -82.75 Q51.3 -80.8 52.85 -74.1 53.4 -71.65 55.05 -70.2 56.0 -69.4 57.75 -68.35 60.4 -66.4 57.15 -60.1 57.65 -60.05 57.5 -57.9 57.4 -56.25 60.5 -57.75 63.95 -59.45 64.25 -64.1 L63.5 -72.1" fill="#f6dec0" fill-rule="evenodd" stroke="none"/>
    <path d="M53.6 -137.75 L48.5 -107.1 Q54.0 -106.75 60.5 -105.35 73.45 -102.55 78.2 -97.2 69.15 -89.95 62.35 -85.6 L57.3 -82.75 63.5 -72.1 109.25 -98.45 53.6 -137.75" fill="#efeedf" fill-rule="evenodd" stroke="none"/>
    <path d="M-64.45 -64.05 L-63.7 -72.05 -57.5 -82.7 Q-51.5 -80.75 -53.05 -74.05 -53.6 -71.6 -55.25 -70.15 -56.2 -69.35 -57.95 -68.3 -60.6 -66.35 -57.35 -60.05 -57.85 -60.0 -57.7 -57.85 -57.6 -56.2 -60.7 -57.7 -64.15 -59.4 -64.45 -64.05" fill="#f6dec0" fill-rule="evenodd" stroke="none"/>
    <path d="M-53.8 -137.7 L-48.7 -107.05 Q-54.2 -106.7 -60.7 -105.3 -73.65 -102.5 -78.4 -97.15 -69.35 -89.9 -62.55 -85.55 L-57.5 -82.7 -63.7 -72.05 -109.45 -98.4 -53.8 -137.7" fill="#efeedf" fill-rule="evenodd" stroke="none"/>
  </g>
</svg>
