<?xml version="1.0" encoding="UTF-8" standalone="no"?>
<svg xmlns:ffdec="https://www.free-decompiler.com/flash" xmlns:xlink="http://www.w3.org/1999/xlink" ffdec:objectType="shape" height="78.7px" width="78.7px" xmlns="http://www.w3.org/2000/svg">
  <g transform="matrix(1.0, 0.0, 0.0, 1.0, 39.35, 39.35)">
    <path d="M7.2 -29.1 Q5.0 -27.85 3.7 -25.6 1.7 -22.1 2.65 -18.25 3.75 -14.45 7.2 -12.5 10.65 -10.5 14.4 -11.45 18.3 -12.5 20.3 -16.0 21.5 -18.15 21.55 -20.8 L39.35 -10.55 29.1 7.2 Q31.65 7.15 33.9 8.45 37.35 10.45 38.3 14.35 39.35 18.2 37.4 21.6 35.4 25.05 31.5 26.1 27.75 27.1 24.3 25.1 21.95 23.75 20.75 21.65 L10.55 39.35 -7.25 29.1 Q-5.05 27.85 -3.7 25.55 -1.75 22.2 -2.8 18.35 -3.75 14.45 -7.2 12.45 -10.65 10.5 -14.55 11.55 -18.35 12.55 -20.3 15.95 -21.65 18.3 -21.6 20.8 L-39.35 10.55 -10.55 -39.35 7.2 -29.1" fill="#2f2f2f" fill-rule="evenodd" stroke="none"/>
  </g>
</svg>
