<?xml version="1.0" encoding="UTF-8" standalone="no"?>
<svg xmlns:ffdec="https://www.free-decompiler.com/flash" xmlns:xlink="http://www.w3.org/1999/xlink" ffdec:objectType="shape" height="65.05px" width="65.0px" xmlns="http://www.w3.org/2000/svg">
  <g transform="matrix(1.0, 0.0, 0.0, 1.0, 32.5, 32.5)">
    <path d="M7.75 -25.75 Q7.55 -28.35 6.0 -30.6 L27.3 -32.5 29.15 -11.2 Q26.6 -12.3 24.0 -12.1 19.85 -11.75 17.25 -8.5 14.6 -5.4 14.95 -1.25 15.3 2.9 18.45 5.55 21.6 8.15 25.75 7.8 28.45 7.55 30.65 6.05 L32.5 27.3 11.2 29.2 Q12.35 26.75 12.1 24.05 11.75 19.95 8.55 17.3 5.45 14.6 1.3 15.0 -2.85 15.35 -5.55 18.55 -8.15 21.65 -7.8 25.8 -7.55 28.6 -6.05 30.7 L-27.3 32.55 -29.15 11.3 Q-26.85 12.4 -24.05 12.15 -19.95 11.8 -17.3 8.65 -14.6 5.5 -14.95 1.35 -15.3 -2.75 -18.5 -5.4 -21.7 -8.1 -25.8 -7.75 -28.5 -7.5 -30.65 -5.95 L-32.5 -27.25 -11.25 -29.1 Q-12.35 -26.7 -12.15 -24.0 -11.75 -19.85 -8.65 -17.2 -5.45 -14.55 -1.3 -14.9 2.85 -15.3 5.45 -18.45 8.15 -21.6 7.75 -25.75" fill="#2f2f2f" fill-rule="evenodd" stroke="none"/>
  </g>
</svg>
