<?xml version="1.0" encoding="UTF-8" standalone="no"?>
<svg xmlns:ffdec="https://www.free-decompiler.com/flash" xmlns:xlink="http://www.w3.org/1999/xlink" ffdec:objectType="shape" height="83.35px" width="63.5px" xmlns="http://www.w3.org/2000/svg">
  <g transform="matrix(1.0, 0.0, 0.0, 1.0, 31.75, 41.65)">
    <path d="M20.35 -20.3 Q31.6 -9.05 23.4 -3.85 18.0 -0.4 5.5 0.0 18.05 0.45 23.4 3.9 31.6 9.1 20.35 20.35 9.1 31.6 3.9 23.4 0.45 18.05 0.0 5.5 -0.45 18.0 -3.85 23.4 -9.05 31.6 -20.3 20.35 -31.6 9.1 -23.4 3.9 -18.05 0.45 -5.5 0.0 -20.65 -0.55 -25.15 -5.25 -28.8 -9.15 -24.45 -15.5 -22.85 -17.8 -20.35 -20.3 -17.8 -22.85 -15.5 -24.45 -9.15 -28.75 -5.25 -25.15 -0.55 -20.65 0.0 -5.45 0.45 -18.05 3.9 -23.4 9.1 -31.55 20.35 -20.3" fill="#62b67a" fill-rule="evenodd" stroke="none"/>
    <path d="M20.35 -20.3 Q9.1 -31.55 3.9 -23.4 0.45 -18.05 0.0 -5.45 -0.55 -20.65 -5.25 -25.15 -9.15 -28.75 -15.5 -24.45 -17.8 -22.85 -20.35 -20.3 -22.85 -17.8 -24.45 -15.5 -28.8 -9.15 -25.15 -5.25 -20.65 -0.55 -5.5 0.0 -18.05 0.45 -23.4 3.9 -31.6 9.1 -20.3 20.35 -9.05 31.6 -3.85 23.4 -0.45 18.0 0.0 5.5 0.45 18.05 3.9 23.4 9.1 31.6 20.35 20.35 31.6 9.1 23.4 3.9 18.05 0.45 5.5 0.0 18.0 -0.4 23.4 -3.85 31.6 -9.05 20.35 -20.3 M31.75 -41.65 L31.75 41.7 -31.75 41.7 -31.75 -41.65 31.75 -41.65" fill="#c2d657" fill-rule="evenodd" stroke="none"/>
  </g>
</svg>
