<?xml version="1.0" encoding="UTF-8" standalone="no"?>
<svg xmlns:ffdec="https://www.free-decompiler.com/flash" xmlns:xlink="http://www.w3.org/1999/xlink" ffdec:objectType="shape" height="83.4px" width="63.5px" xmlns="http://www.w3.org/2000/svg">
  <g transform="matrix(1.0, 0.0, 0.0, 1.0, 31.75, 41.7)">
    <path d="M10.8 -13.95 Q5.4 -22.4 0.0 -29.55 -5.4 -22.4 -10.8 -13.95 -21.6 3.05 -21.6 9.8 -21.6 18.0 -15.25 23.75 -8.95 29.55 0.0 29.55 8.95 29.55 15.25 23.75 21.6 18.0 21.6 9.8 21.6 3.05 10.8 -13.95 M31.75 41.7 L-31.75 41.7 -31.75 -41.7 31.75 -41.7 31.75 41.7" fill="#bad9e6" fill-rule="evenodd" stroke="none"/>
    <path d="M10.8 -13.95 Q21.6 3.05 21.6 9.8 21.6 18.0 15.25 23.75 8.95 29.55 0.0 29.55 -8.95 29.55 -15.25 23.75 -21.6 18.0 -21.6 9.8 -21.6 3.05 -10.8 -13.95 -5.4 -22.4 0.0 -29.55 5.4 -22.4 10.8 -13.95" fill="#67a8df" fill-rule="evenodd" stroke="none"/>
  </g>
</svg>
