<?xml version="1.0" encoding="UTF-8" standalone="no"?>
<svg xmlns:ffdec="https://www.free-decompiler.com/flash" xmlns:xlink="http://www.w3.org/1999/xlink" ffdec:objectType="shape" height="176.55px" width="179.5px" xmlns="http://www.w3.org/2000/svg">
  <g transform="matrix(1.0, 0.0, 0.0, 1.0, 87.2, 88.3)">
    <path d="M78.9 -80.0 Q86.85 -72.55 88.25 -62.1 88.25 -60.6 88.4 -59.15 L92.3 55.05 Q92.2 56.75 92.25 58.6 L91.4 64.2 Q89.45 71.85 83.75 78.2 74.45 87.8 61.5 88.25 L-56.15 88.25 Q-69.6 87.8 -78.55 78.2 -84.55 71.85 -86.3 64.2 L-87.05 59.55 -87.1 58.75 -87.2 57.7 -87.15 56.7 -87.15 56.35 -87.1 55.05 -83.25 -59.15 -83.3 -60.55 -83.15 -62.1 Q-82.0 -72.55 -73.75 -80.0 -64.9 -88.65 -52.3 -88.3 L57.6 -88.3 Q69.7 -88.65 78.9 -80.0" fill="#514229" fill-rule="evenodd" stroke="none"/>
  </g>
</svg>
