<?xml version="1.0" encoding="UTF-8" standalone="no"?>
<svg xmlns:ffdec="https://www.free-decompiler.com/flash" xmlns:xlink="http://www.w3.org/1999/xlink" ffdec:objectType="shape" height="414.35px" width="326.8px" xmlns="http://www.w3.org/2000/svg">
  <g transform="matrix(1.0, 0.0, 0.0, 1.0, 159.9, 413.9)">
    <path d="M142.5 -3.55 Q142.5 -1.9 101.8 -0.7 61.05 0.45 3.5 0.45 -54.0 0.45 -94.8 -0.7 -135.5 -1.9 -135.5 -3.55 -135.5 -5.2 -94.8 -6.35 -54.0 -7.55 3.5 -7.55 61.05 -7.55 101.8 -6.35 142.5 -5.2 142.5 -3.55" fill="#c1c1c1" fill-rule="evenodd" stroke="none"/>
    <path d="M110.15 -355.7 L116.35 -340.8 Q123.65 -324.65 131.15 -315.15 145.15 -297.4 153.35 -312.95 151.65 -298.6 142.4 -292.45 139.55 -290.55 136.2 -289.7 L133.5 -289.2 135.65 -287.65 Q138.55 -285.9 142.05 -284.8 153.35 -281.3 166.9 -285.9 166.25 -252.75 148.7 -235.85 143.2 -230.55 136.65 -227.5 L131.25 -225.55 134.35 -217.0 Q137.35 -206.4 137.0 -196.35 136.0 -164.15 101.95 -149.1 99.35 -157.55 89.05 -157.1 85.35 -156.9 79.45 -155.55 L69.4 -153.05 Q85.7 -168.5 90.05 -173.1 101.4 -185.1 104.8 -193.4 L104.65 -196.8 Q111.55 -201.2 116.05 -207.05 121.4 -214.0 121.4 -220.75 121.4 -228.9 115.0 -235.0 108.9 -240.85 99.5 -242.7 97.25 -254.7 93.9 -265.4 90.95 -274.95 86.6 -284.95 L90.55 -287.75 Q94.95 -292.15 97.45 -300.05 90.3 -299.3 76.8 -304.15 60.5 -310.0 55.45 -310.75 58.3 -313.45 61.0 -322.1 63.2 -329.2 64.15 -336.05 62.25 -333.05 50.8 -332.8 38.55 -333.05 35.95 -332.55 L36.65 -335.6 Q37.3 -339.75 37.0 -345.05 30.35 -338.7 13.9 -330.4 L-1.2 -323.4 Q-8.55 -324.55 -18.3 -328.05 -37.8 -335.05 -49.85 -346.75 -49.2 -342.3 -44.35 -334.7 L-36.55 -323.4 -60.1 -321.55 Q-73.1 -321.6 -79.2 -326.75 -77.9 -323.85 -77.65 -312.35 -77.4 -302.05 -74.55 -298.75 -77.45 -295.8 -81.65 -293.25 -90.0 -288.15 -96.55 -290.05 L-86.1 -280.55 Q-89.55 -271.9 -91.9 -263.15 -94.45 -253.75 -96.15 -242.5 -105.25 -240.45 -111.0 -234.75 -117.1 -228.7 -117.1 -220.75 -117.1 -214.0 -111.75 -207.05 -107.25 -201.2 -100.35 -196.8 L-100.55 -192.75 Q-97.15 -184.5 -86.4 -172.7 -82.0 -167.85 -66.75 -153.0 -92.0 -145.55 -112.8 -151.15 -104.65 -157.2 -106.3 -164.4 -107.4 -169.0 -115.15 -179.2 -124.2 -191.05 -127.55 -198.3 -133.4 -211.05 -131.65 -224.5 L-137.25 -226.05 Q-141.15 -227.2 -144.2 -229.1 -153.2 -234.55 -159.9 -248.6 -154.85 -246.8 -150.55 -248.75 -147.3 -250.25 -143.15 -254.75 L-135.75 -262.9 Q-131.05 -267.55 -126.4 -269.55 -137.75 -279.8 -142.0 -287.7 -145.95 -295.05 -145.05 -302.95 -144.4 -308.8 -140.0 -319.7 -133.2 -336.6 -131.25 -342.35 -131.25 -331.85 -120.8 -330.7 -115.55 -330.1 -110.35 -331.65 -115.75 -333.5 -120.1 -338.3 -128.8 -348.0 -123.7 -362.95 -119.75 -356.8 -98.6 -366.5 -88.05 -371.3 -78.25 -377.4 -82.4 -379.1 -87.5 -382.4 -97.65 -389.1 -102.3 -397.3 L-89.25 -395.4 Q-82.7 -394.3 -79.3 -394.35 -69.85 -394.45 -56.25 -403.6 -44.9 -410.45 -34.25 -405.9 -30.0 -404.1 -24.3 -399.9 L-13.6 -391.65 Q-16.75 -398.5 -19.4 -402.6 -24.3 -410.05 -31.65 -412.1 -4.7 -416.6 16.7 -409.95 26.95 -406.75 31.75 -401.55 36.9 -395.95 34.7 -389.0 L47.55 -397.6 Q54.95 -403.45 49.55 -406.4 54.5 -405.05 60.15 -401.4 66.3 -397.45 69.6 -393.1 78.25 -381.65 61.7 -376.5 88.9 -383.1 101.65 -369.5 106.2 -364.6 110.15 -355.7" fill="#2c323f" fill-rule="evenodd" stroke="none"/>
    <path d="M-117.1 -220.75 Q-117.1 -228.7 -111.0 -234.75 -105.25 -240.45 -96.15 -242.5 -98.95 -224.55 -100.35 -196.8 -107.25 -201.2 -111.75 -207.05 -117.1 -214.0 -117.1 -220.75" fill="#ddbc9b" fill-rule="evenodd" stroke="none"/>
    <path d="M99.5 -242.7 Q108.9 -240.85 115.0 -235.0 121.4 -228.9 121.4 -220.75 121.4 -214.0 116.05 -207.05 111.55 -201.2 104.65 -196.8 103.15 -223.65 99.5 -242.7" fill="#ddbc9b" fill-rule="evenodd" stroke="none"/>
    <path d="M13.9 -330.4 Q30.35 -338.7 37.0 -345.05 37.3 -339.75 36.65 -335.6 L35.95 -332.55 Q38.55 -333.05 50.8 -332.8 62.25 -333.05 64.15 -336.05 63.2 -329.2 61.0 -322.1 58.3 -313.45 55.45 -310.75 60.5 -310.0 76.8 -304.15 90.3 -299.3 97.45 -300.05 94.95 -292.15 90.55 -287.75 L86.6 -284.95 Q90.95 -274.95 93.9 -265.4 97.25 -254.7 99.5 -242.7 103.15 -223.65 104.65 -196.8 L104.8 -193.4 Q101.4 -185.1 90.05 -173.1 85.7 -168.5 69.4 -153.05 58.0 -142.25 54.9 -137.45 29.3 -125.35 0.4 -125.05 -31.0 -124.75 -53.75 -139.05 -56.85 -143.25 -66.75 -153.0 -82.0 -167.85 -86.4 -172.7 -97.15 -184.5 -100.55 -192.75 L-100.35 -196.8 Q-98.95 -224.55 -96.15 -242.5 -94.45 -253.75 -91.9 -263.15 -89.55 -271.9 -86.1 -280.55 L-96.55 -290.05 Q-90.0 -288.15 -81.65 -293.25 -77.45 -295.8 -74.55 -298.75 -77.4 -302.05 -77.65 -312.35 -77.9 -323.85 -79.2 -326.75 -73.1 -321.6 -60.1 -321.55 L-36.55 -323.4 -44.35 -334.7 Q-49.2 -342.3 -49.85 -346.75 -37.8 -335.05 -18.3 -328.05 -8.55 -324.55 -1.2 -323.4 L13.9 -330.4" fill="#f6dec0" fill-rule="evenodd" stroke="none"/>
    <path d="M-69.45 -228.95 Q-63.85 -228.95 -59.9 -227.2 -55.95 -225.45 -55.95 -222.95 -55.95 -220.45 -59.9 -218.7 -63.85 -216.95 -69.45 -216.95 -75.05 -216.95 -79.0 -218.7 -82.95 -220.45 -82.95 -222.95 -82.95 -225.45 -79.0 -227.2 -75.05 -228.95 -69.45 -228.95 M84.1 -227.2 Q88.05 -225.45 88.05 -222.95 88.05 -220.45 84.1 -218.7 80.15 -216.95 74.55 -216.95 68.95 -216.95 65.0 -218.7 61.05 -220.45 61.05 -222.95 61.05 -225.45 65.0 -227.2 68.95 -228.95 74.55 -228.95 80.15 -228.95 84.1 -227.2" fill="#e1a4b6" fill-rule="evenodd" stroke="none"/>
    <path d="M7.3 -234.0 Q9.8 -231.85 9.8 -228.75 9.8 -225.65 7.3 -223.45 4.75 -221.3 1.15 -221.3 -2.4 -221.3 -4.95 -223.45 -7.5 -225.65 -7.5 -228.75 -7.5 -231.8 -4.95 -234.0 -2.4 -236.2 1.15 -236.2 4.75 -236.2 7.3 -234.0 M2.4 -227.45 Q3.5 -228.55 3.5 -230.05 3.5 -231.6 2.4 -232.65 1.35 -233.75 -0.2 -233.75 -1.7 -233.75 -2.75 -232.65 -3.85 -231.6 -3.85 -230.05 -3.85 -228.55 -2.75 -227.45 -1.7 -226.4 -0.2 -226.4 1.35 -226.4 2.4 -227.45" fill="#ddbc9b" fill-rule="evenodd" stroke="none"/>
    <path d="M2.4 -232.65 Q3.5 -231.6 3.5 -230.05 3.5 -228.55 2.4 -227.45 1.35 -226.4 -0.2 -226.4 -1.7 -226.4 -2.75 -227.45 -3.85 -228.55 -3.85 -230.05 -3.85 -231.6 -2.75 -232.65 -1.7 -233.75 -0.2 -233.75 1.35 -233.75 2.4 -232.65" fill="#f6dec0" fill-rule="evenodd" stroke="none"/>
    <path d="M32.6 -4.45 Q31.15 -12.6 30.85 -28.15 L30.85 -42.1 44.45 -42.1 41.95 -30.9 Q39.55 -18.2 40.3 -11.0 42.9 -7.8 46.9 -5.8 48.9 -4.8 50.35 -4.45 L32.6 -4.45 M-42.6 -5.8 Q-38.6 -7.8 -36.0 -11.0 -35.3 -18.2 -37.65 -30.9 L-40.15 -42.1 -26.55 -42.1 -26.55 -28.15 Q-26.85 -12.6 -28.35 -4.45 L-46.05 -4.45 Q-44.55 -4.8 -42.6 -5.8" fill="#738c94" fill-rule="evenodd" stroke="none"/>
    <path d="M-52.15 -138.75 Q-29.5 -125.35 1.2 -125.8 29.55 -126.25 54.65 -137.95 46.5 -124.55 22.65 -113.05 10.75 -107.3 0.45 -104.2 -8.85 -107.95 -20.05 -114.2 -42.5 -126.6 -52.15 -138.75" fill="#a8d296" fill-rule="evenodd" stroke="none"/>
    <path d="M-54.55 -142.05 L-52.15 -138.75 Q-45.95 -130.9 -34.05 -122.75 -25.1 -116.6 -13.75 -110.85 -5.55 -106.65 0.45 -104.2 L3.7 -105.25 12.1 -108.4 Q25.15 -113.65 35.1 -119.85 48.9 -128.55 54.65 -137.95 L55.8 -140.05 54.55 -133.75 Q52.45 -121.5 52.25 -106.95 52.0 -85.85 55.95 -68.9 60.6 -48.95 70.15 -39.4 L-69.85 -40.05 Q-55.25 -52.9 -52.45 -87.3 -50.45 -111.95 -54.55 -142.05" fill="#efeedf" fill-rule="evenodd" stroke="none"/>
    <path d="M-6.55 -121.05 L-2.05 -124.7 4.05 -120.0 Q10.5 -114.15 12.1 -108.4 L3.7 -105.25 0.45 -104.2 Q-5.55 -106.65 -13.75 -110.85 -11.5 -116.3 -6.55 -121.05" fill="#83a177" fill-rule="evenodd" stroke="none"/>
    <path d="M-16.55 -93.4 L0.8 -102.05 19.45 -95.4 48.8 -123.4 19.45 -89.4 3.45 -97.4 2.15 -46.05 0.15 -97.4 -17.85 -89.4 -49.2 -126.05 -16.55 -93.4" fill="#d1cfb8" fill-rule="evenodd" stroke="none"/>
    <path d="M-2.05 -124.7 Q2.45 -121.7 6.45 -117.7 L4.2 -113.45 8.65 -97.05 -1.05 -86.05 -10.05 -98.05 -6.05 -113.45 -8.55 -116.7 Q-11.65 -116.1 -7.55 -119.95 L-2.05 -124.7" fill="#4c6042" fill-rule="evenodd" stroke="none"/>
  </g>
</svg>
