<?xml version="1.0" encoding="UTF-8" standalone="no"?>
<svg xmlns:ffdec="https://www.free-decompiler.com/flash" xmlns:xlink="http://www.w3.org/1999/xlink" ffdec:objectType="shape" height="84.15px" width="77.35px" xmlns="http://www.w3.org/2000/svg">
  <g transform="matrix(1.0, 0.0, 0.0, 1.0, 38.65, 42.1)">
    <path d="M25.85 -36.15 L25.1 -35.45 Q18.4 -33.65 16.45 -29.8 L16.45 -30.3 Q16.3 -27.25 16.8 -23.45 14.0 -23.15 10.55 -24.05 11.5 -23.75 13.75 -21.2 15.6 -19.0 17.45 -19.25 L19.95 -7.7 Q21.35 -0.9 21.4 3.4 21.6 15.45 11.55 20.95 6.5 24.2 0.05 25.4 9.65 19.65 14.1 9.75 18.85 -0.75 15.65 -11.8 L14.55 -16.05 Q16.65 -2.1 7.6 10.2 -1.55 22.75 -15.3 23.95 -8.15 13.95 4.55 -6.05 L-8.85 8.05 Q-16.45 16.25 -20.2 23.5 -27.5 20.7 -32.4 15.35 L-33.6 12.2 Q-36.45 3.1 -35.2 -5.0 -34.7 -8.7 -32.45 -12.35 -29.25 -17.5 -23.7 -19.95 -19.0 -22.3 -9.45 -23.0 L6.9 -24.7 8.9 -25.2 Q10.05 -25.5 11.3 -26.45 L14.15 -29.15 16.55 -31.6 19.3 -35.05 19.55 -35.4 22.5 -35.9 25.85 -36.15" fill="#e58b2e" fill-rule="evenodd" stroke="none"/>
    <path d="M25.1 -35.45 L23.8 -34.2 21.5 -31.5 Q18.75 -27.75 18.0 -21.7 19.3 -19.45 26.05 -10.95 31.75 -3.85 33.9 1.65 36.9 8.7 34.4 16.5 32.0 23.95 26.1 27.75 17.7 33.5 7.0 33.65 -4.35 33.65 -10.7 32.25 -18.3 30.6 -25.3 25.8 -29.75 21.85 -32.4 15.35 -27.5 20.7 -20.2 23.5 -16.45 16.25 -8.85 8.05 L4.55 -6.05 Q-8.15 13.95 -15.3 23.95 L-16.1 24.05 Q-2.35 23.3 7.15 10.9 16.7 -1.65 14.55 -16.05 L15.65 -11.75 15.65 -11.8 Q18.85 -0.75 14.1 9.75 9.65 19.65 0.05 25.4 6.5 24.2 11.55 20.95 21.6 15.45 21.4 3.4 21.35 -0.9 19.95 -7.7 L17.45 -19.25 Q15.6 -19.0 13.75 -21.2 11.5 -23.75 10.55 -24.05 14.0 -23.15 16.8 -23.45 16.3 -26.95 16.45 -29.8 18.4 -33.65 25.1 -35.45" fill="#a66516" fill-rule="evenodd" stroke="none"/>
    <path d="M29.35 -38.8 L28.95 -38.85 23.45 -38.5 22.15 -38.15 21.25 -37.95 19.3 -35.05 Q16.95 -31.75 14.15 -29.15 L11.3 -26.45 Q10.05 -25.5 8.9 -25.2 L6.9 -24.7 -9.45 -23.0 Q-19.0 -22.3 -23.7 -19.95 -29.25 -17.5 -32.45 -12.35 -34.7 -8.7 -35.2 -5.0 -36.45 3.1 -33.6 12.2 -31.45 18.4 -28.55 22.25 -27.2 24.1 -25.3 25.8 -17.05 31.35 -7.9 32.75 L7.0 33.65 Q17.7 33.5 26.1 27.75 32.0 23.95 34.4 16.5 36.9 8.7 33.9 1.65 31.75 -3.85 26.05 -10.95 19.3 -19.45 18.0 -21.7 18.75 -27.75 21.5 -31.5 L23.8 -34.2 24.45 -34.85 26.4 -36.65 29.35 -38.8 M32.85 -40.25 L33.4 -39.15 33.45 -39.0 33.5 -38.95 33.5 -38.9 Q34.3 -40.5 32.75 -37.25 L32.6 -37.2 32.4 -37.0 31.45 -36.4 28.45 -34.25 26.7 -32.65 26.1 -32.05 Q22.25 -27.75 20.8 -23.1 21.7 -21.45 28.5 -12.95 34.35 -5.6 36.85 0.55 40.25 8.4 37.35 17.4 34.6 26.1 27.9 30.3 18.7 36.6 7.1 36.75 -1.0 36.85 -7.2 35.5 L-6.3 38.05 -5.85 38.95 -5.4 39.8 -5.35 39.85 -5.25 40.05 -7.35 42.05 -7.4 42.05 -7.4 42.0 -7.5 41.9 -9.95 39.7 Q-10.65 39.2 -11.45 38.95 L-13.55 38.65 -13.9 38.55 -14.6 38.55 -14.6 40.2 -14.6 40.3 -14.65 40.5 -15.0 41.15 Q-15.35 41.6 -16.0 41.65 -16.55 41.65 -16.7 41.45 L-17.2 40.8 -17.5 40.1 -18.95 38.1 -24.6 31.85 -25.45 30.95 Q-26.4 31.3 -28.0 30.5 L-30.1 29.05 -31.8 27.6 -33.25 26.35 -33.75 26.0 -33.3 26.0 -34.3 23.05 -34.2 23.05 -34.05 23.0 -34.05 22.95 -33.9 22.95 -33.7 22.9 -31.1 22.5 -29.55 22.35 Q-33.15 18.65 -35.75 13.0 -39.65 3.75 -38.3 -5.5 -37.8 -9.65 -35.1 -14.0 -31.4 -20.0 -25.05 -22.8 -19.65 -25.45 -9.65 -26.15 L6.2 -27.75 Q9.25 -28.55 9.15 -28.7 L12.0 -31.4 Q14.7 -33.95 16.75 -36.85 L18.7 -39.75 Q20.05 -40.9 21.1 -41.15 L22.8 -41.6 29.5 -41.95 Q31.85 -41.45 32.85 -40.25" fill="#6b400f" fill-rule="evenodd" stroke="none"/>
    <path d="M-14.7 -18.05 Q-10.9 -18.05 -8.15 -15.85 -5.45 -13.6 -5.45 -10.5 -5.45 -7.4 -8.15 -5.2 -10.85 -3.0 -14.7 -3.0 -18.55 -3.0 -21.25 -5.2 -23.95 -7.4 -23.95 -10.5 -23.95 -13.6 -21.25 -15.85 -18.5 -18.05 -14.7 -18.05 M28.95 -38.85 L29.35 -38.8 26.4 -36.65 25.85 -36.15 22.5 -35.9 19.55 -35.4 21.25 -37.95 22.15 -38.15 23.45 -38.5 28.95 -38.85" fill="#ffe7c6" fill-rule="evenodd" stroke="none"/>
  </g>
</svg>
