<?xml version="1.0" encoding="UTF-8" standalone="no"?>
<svg xmlns:ffdec="https://www.free-decompiler.com/flash" xmlns:xlink="http://www.w3.org/1999/xlink" ffdec:objectType="shape" height="55.55px" width="51.85px" xmlns="http://www.w3.org/2000/svg">
  <g transform="matrix(1.0, 0.0, 0.0, 1.0, -62.95, -42.7)">
    <path d="M107.2 90.65 Q99.6 98.25 88.9 98.25 78.15 98.25 70.55 90.65 62.95 83.0 62.95 72.3 62.95 61.6 70.55 54.0 78.15 46.35 88.9 46.35 99.6 46.35 107.2 54.0 114.8 61.6 114.8 72.3 114.8 83.0 107.2 90.65" fill="#231f20" fill-rule="evenodd" stroke="none"/>
    <path d="M114.8 68.65 Q114.8 79.35 107.2 86.95 99.6 94.55 88.9 94.55 78.15 94.55 70.55 86.95 62.95 79.35 62.95 68.65 62.95 57.9 70.55 50.3 78.15 42.7 88.9 42.7 99.6 42.7 107.2 50.3 114.8 57.9 114.8 68.65" fill="#26a9e0" fill-rule="evenodd" stroke="none"/>
    <path d="M109.8 68.65 Q109.8 77.3 103.7 83.45 97.55 89.55 88.9 89.55 80.2 89.55 74.1 83.45 67.95 77.3 67.95 68.65 67.95 59.95 74.1 53.85 80.2 47.7 88.9 47.7 97.55 47.7 103.7 53.85 109.8 60.0 109.8 68.65" fill="#ffffff" fill-rule="evenodd" stroke="none"/>
    <path d="M92.3 80.7 L87.1 80.9 87.45 65.0 85.35 66.45 82.8 60.75 86.75 56.5 93.15 57.15 92.3 80.7" fill="#26a9e0" fill-rule="evenodd" stroke="none"/>
  </g>
</svg>
