<?xml version="1.0" encoding="UTF-8" standalone="no"?>
<svg xmlns:ffdec="https://www.free-decompiler.com/flash" xmlns:xlink="http://www.w3.org/1999/xlink" ffdec:objectType="shape" height="55.55px" width="51.85px" xmlns="http://www.w3.org/2000/svg">
  <g transform="matrix(1.0, 0.0, 0.0, 1.0, 25.9, 27.75)">
    <path d="M18.35 20.2 Q10.75 27.8 0.05 27.8 -10.7 27.8 -18.3 20.2 -25.9 12.55 -25.9 1.85 -25.9 -8.85 -18.3 -16.45 -10.7 -24.1 0.05 -24.1 10.75 -24.1 18.35 -16.45 25.95 -8.85 25.95 1.85 25.95 12.55 18.35 20.2" fill="#231f20" fill-rule="evenodd" stroke="none"/>
    <path d="M25.95 -1.8 Q25.95 8.9 18.35 16.5 10.75 24.1 0.05 24.1 -10.7 24.1 -18.3 16.5 -25.9 8.9 -25.9 -1.8 -25.9 -12.55 -18.3 -20.15 -10.7 -27.75 0.05 -27.75 10.75 -27.75 18.35 -20.15 25.95 -12.55 25.95 -1.8" fill="#26a9e0" fill-rule="evenodd" stroke="none"/>
    <path d="M20.95 -1.8 Q20.95 6.85 14.85 13.0 8.7 19.1 0.05 19.1 -8.65 19.1 -14.75 13.0 -20.9 6.85 -20.9 -1.8 -20.9 -10.5 -14.75 -16.6 -8.65 -22.75 0.05 -22.75 8.7 -22.75 14.85 -16.6 20.95 -10.45 20.95 -1.8" fill="#ffffff" fill-rule="evenodd" stroke="none"/>
    <path d="M-6.05 4.15 L10.55 3.5 9.35 9.45 -9.9 10.2 -9.35 2.95 Q-9.5 -2.5 -2.05 -2.55 L6.15 -2.35 Q7.5 -2.3 7.55 -3.95 7.6 -5.65 6.15 -5.55 L-7.45 -4.75 -8.25 -14.2 2.75 -14.15 Q10.5 -13.9 10.55 -6.85 L10.55 -6.55 Q9.95 0.75 3.35 0.8 L-3.75 0.75 Q-6.05 1.0 -6.05 4.15" fill="#26a9e0" fill-rule="evenodd" stroke="none"/>
  </g>
</svg>
