<?xml version="1.0" encoding="UTF-8" standalone="no"?>
<svg xmlns:ffdec="https://www.free-decompiler.com/flash" xmlns:xlink="http://www.w3.org/1999/xlink" ffdec:objectType="shape" height="2.55px" width="134.9px" xmlns="http://www.w3.org/2000/svg">
  <g transform="matrix(1.0, 0.0, 0.0, 1.0, 64.8, 241.0)">
    <path d="M-54.75 -240.65 L-56.15 -240.75 -57.55 -240.65 -58.15 -240.35 -57.55 -240.1 -56.15 -239.95 -54.75 -240.1 -54.15 -240.35 -54.75 -240.65 M-57.95 -241.0 L-53.1 -240.65 Q-51.1 -240.25 -51.1 -239.7 -51.1 -239.2 -53.1 -238.8 L-57.95 -238.45 -62.8 -238.8 Q-64.8 -239.2 -64.8 -239.7 -64.8 -240.25 -62.8 -240.65 L-57.95 -241.0" fill="#35312e" fill-rule="evenodd" stroke="none"/>
    <path d="M-56.15 -240.75 L-54.75 -240.65 -54.15 -240.35 -54.75 -240.1 -56.15 -239.95 -57.55 -240.1 -58.15 -240.35 -57.55 -240.65 -56.15 -240.75" fill="#ffffff" fill-rule="evenodd" stroke="none"/>
    <path d="M66.6 -240.65 L65.2 -240.75 63.8 -240.65 Q63.2 -240.5 63.2 -240.35 63.2 -240.2 63.8 -240.1 L65.2 -239.95 66.6 -240.1 Q67.2 -240.2 67.2 -240.35 67.2 -240.5 66.6 -240.65 M63.25 -241.0 L68.1 -240.65 Q70.1 -240.25 70.1 -239.7 70.1 -239.2 68.1 -238.8 L63.25 -238.45 58.4 -238.8 Q56.4 -239.2 56.4 -239.7 56.4 -240.25 58.4 -240.65 L63.25 -241.0" fill="#35312e" fill-rule="evenodd" stroke="none"/>
    <path d="M65.2 -240.75 L66.6 -240.65 Q67.2 -240.5 67.2 -240.35 67.2 -240.2 66.6 -240.1 L65.2 -239.95 63.8 -240.1 Q63.2 -240.2 63.2 -240.35 63.2 -240.5 63.8 -240.65 L65.2 -240.75" fill="#ffffff" fill-rule="evenodd" stroke="none"/>
  </g>
</svg>
