<?xml version="1.0" encoding="UTF-8" standalone="no"?>
<svg xmlns:ffdec="https://www.free-decompiler.com/flash" xmlns:xlink="http://www.w3.org/1999/xlink" ffdec:objectType="shape" height="71.35px" width="78.75px" xmlns="http://www.w3.org/2000/svg">
  <g transform="matrix(1.0, 0.0, 0.0, 1.0, 39.35, 35.7)">
    <path d="M3.65 0.6 L-38.05 -8.35 -37.05 -15.0 -26.4 -24.1 -8.45 -31.55 -3.65 -33.9 7.6 -33.5 22.1 -29.55 32.65 -24.8 36.75 -20.55 37.95 -14.5 20.5 -7.85 3.65 0.6" fill="#ab7339" fill-rule="evenodd" stroke="none"/>
    <path d="M-36.0 -2.85 L-36.4 -6.75 Q-28.65 -4.0 -17.05 -1.65 L2.65 2.25 Q3.8 21.05 3.2 33.85 L-8.65 29.25 Q-19.05 25.05 -23.25 23.5 L-29.3 21.3 -29.45 21.05 Q-31.5 17.45 -33.35 10.6 -35.15 3.75 -36.0 -2.85" fill="#eadf92" fill-rule="evenodd" stroke="none"/>
    <path d="M1.3 -2.9 Q1.5 -2.7 2.3 -3.2 L2.65 2.25 -17.05 -1.65 Q-28.65 -4.0 -36.4 -6.75 L-36.55 -10.0 -36.55 -11.0 Q-35.8 -10.5 -34.55 -10.3 L-32.75 -10.05 -15.6 -7.4 Q-5.3 -5.9 1.3 -2.9" fill="#7f4f27" fill-rule="evenodd" stroke="none"/>
    <path d="M36.5 -11.7 Q21.6 -8.5 3.8 2.5 L2.65 2.25 2.3 -3.2 Q5.0 -4.8 5.6 -5.05 10.4 -7.65 20.9 -11.4 31.3 -15.05 36.15 -17.75 L36.5 -12.45 36.5 -11.7" fill="#633d19" fill-rule="evenodd" stroke="none"/>
    <path d="M3.8 2.5 Q21.6 -8.5 36.5 -11.7 L36.55 1.35 36.0 12.8 35.75 15.05 35.7 15.3 35.05 16.0 32.75 18.1 Q26.45 22.95 16.45 28.9 7.15 34.4 5.75 34.55 L3.2 33.85 Q3.8 21.05 2.65 2.25 L3.8 2.5" fill="#c1b064" fill-rule="evenodd" stroke="none"/>
    <path d="M36.5 -12.45 L35.95 -19.6 Q35.85 -20.85 34.65 -22.05 L32.0 -24.1 Q23.05 -29.25 8.0 -32.0 L0.05 -32.85 -2.85 -32.8 -5.5 -32.05 -13.0 -28.9 -23.5 -23.6 Q-30.25 -19.85 -34.6 -15.75 -35.85 -14.55 -36.25 -13.2 -36.6 -12.15 -36.55 -10.0 -36.55 -7.15 -36.0 -2.85 -35.15 3.75 -33.35 10.6 -31.5 17.45 -29.45 21.05 L-29.3 21.3 -23.25 23.5 -5.25 30.6 Q4.7 34.6 5.75 34.55 7.15 34.4 16.45 28.9 26.45 22.95 32.75 18.1 L35.05 16.0 35.7 15.3 35.75 15.05 36.0 12.8 36.55 1.35 Q36.7 -5.65 36.5 -12.45 M36.7 -24.0 Q38.4 -22.2 38.7 -20.05 39.1 -17.45 39.3 -12.55 39.5 -5.65 39.35 1.4 L38.8 13.05 38.5 15.5 38.4 16.1 38.35 16.25 38.35 16.3 38.05 16.9 37.05 17.95 34.55 20.25 Q27.9 25.3 16.15 31.0 10.3 33.85 5.75 35.65 L-6.0 32.3 -24.25 26.15 -30.65 23.8 -30.7 23.75 -31.4 23.2 -31.45 23.15 -31.5 23.0 -31.9 22.45 Q-34.05 18.6 -36.05 11.3 -37.95 4.3 -38.8 -2.5 -39.35 -7.0 -39.35 -10.0 L-39.3 -11.9 -38.95 -14.1 Q-38.4 -15.8 -36.65 -17.65 -31.8 -22.2 -24.85 -26.05 L-14.15 -31.45 Q-10.2 -33.25 -6.45 -34.65 -4.65 -35.45 -3.2 -35.55 L0.05 -35.65 8.45 -34.75 Q22.1 -32.55 33.5 -26.45 35.7 -25.05 36.7 -24.0" fill="#633d19" fill-rule="evenodd" stroke="none"/>
  </g>
</svg>
