<?xml version="1.0" encoding="UTF-8" standalone="no"?>
<svg xmlns:ffdec="https://www.free-decompiler.com/flash" xmlns:xlink="http://www.w3.org/1999/xlink" ffdec:objectType="shape" height="36.4px" width="22.55px" xmlns="http://www.w3.org/2000/svg">
  <g transform="matrix(1.0, 0.0, 0.0, 1.0, 11.3, 18.2)">
    <path d="M11.05 -9.5 Q11.5 -4.8 11.0 -4.2 L6.45 -4.0 Q2.4 -4.35 1.65 -4.9 0.9 -5.45 0.75 -11.55 0.55 -17.6 1.15 -17.9 L5.3 -18.05 Q8.8 -17.6 9.7 -16.05 10.6 -14.35 11.05 -9.5" fill="#cccccc" fill-rule="evenodd" stroke="none"/>
    <path d="M-10.85 -2.5 Q-10.55 -2.95 -5.75 -3.4 L0.0 -3.8 5.6 -3.4 Q10.35 -2.9 10.65 -2.5 10.95 -2.1 10.65 3.3 L10.3 10.45 Q10.3 12.75 7.5 15.25 4.2 18.2 -0.35 18.2 -5.15 18.2 -8.15 15.5 -10.85 13.05 -11.0 9.5 L-11.3 2.35 Q-11.35 -1.65 -10.85 -2.5" fill="#cccccc" fill-rule="evenodd" stroke="none"/>
    <path d="M0.25 -14.3 Q1.9 -14.5 1.9 -9.2 1.9 -8.0 1.4 -6.75 0.8 -5.25 -0.1 -5.25 -1.0 -5.25 -1.35 -6.85 L-1.55 -10.35 Q-1.55 -14.05 0.25 -14.3" fill="#7f7f7f" fill-rule="evenodd" stroke="none"/>
  </g>
</svg>
