<?xml version="1.0" encoding="UTF-8" standalone="no"?>
<svg xmlns:ffdec="https://www.free-decompiler.com/flash" xmlns:xlink="http://www.w3.org/1999/xlink" ffdec:objectType="shape" height="96.75px" width="74.1px" xmlns="http://www.w3.org/2000/svg">
  <g transform="matrix(1.0, 0.0, 0.0, 1.0, 37.05, 48.4)">
    <path d="M-13.9 31.85 Q-17.7 25.3 -16.95 15.15 -16.25 5.45 -12.05 -1.75 -7.55 -9.45 -1.5 -9.5 5.35 -9.6 10.9 -2.1 16.15 4.9 17.45 14.35 18.85 24.35 14.8 31.0 10.1 38.7 -0.55 39.05 -9.55 39.3 -13.9 31.85" fill="#e4ae2b" fill-rule="evenodd" stroke="none"/>
    <path d="M-12.95 5.3 Q-12.95 2.1 -10.5 -0.5 -7.85 -3.15 -3.75 -3.75 3.4 -4.7 7.95 -2.0 11.95 0.45 12.45 4.55 12.95 8.6 9.75 11.4 6.2 14.5 -0.15 14.1 -6.5 13.65 -9.9 11.0 -12.85 8.7 -12.95 5.3" fill="#ffcc40" fill-rule="evenodd" stroke="none"/>
    <path d="M20.6 -13.95 Q20.0 -8.4 15.5 -4.9 9.4 -0.25 -0.05 0.15 -10.6 0.55 -16.7 -5.55 -20.25 -9.1 -20.55 -14.7 -20.85 -19.95 -18.25 -25.2 -15.65 -30.6 -11.1 -33.75 -6.2 -37.25 -0.4 -37.0 5.4 -36.75 10.65 -33.1 15.5 -29.65 18.3 -24.4 21.1 -19.05 20.6 -13.95" fill="#e4ae2b" fill-rule="evenodd" stroke="none"/>
    <path d="M16.7 -9.85 Q14.65 -5.3 9.35 -2.0 4.65 1.0 -0.3 0.95 -5.9 0.9 -10.95 -3.05 -15.25 -6.4 -17.0 -10.6 -18.7 -14.65 -17.5 -18.4 -16.35 -22.25 -12.35 -24.6 -8.05 -27.15 -1.3 -27.35 5.95 -27.55 10.95 -24.9 15.55 -22.45 17.1 -18.3 18.6 -14.2 16.7 -9.85" fill="#ffcc40" fill-rule="evenodd" stroke="none"/>
    <path d="M-15.45 -17.3 Q-12.95 -18.7 -11.4 -16.35 -9.85 -13.95 -12.15 -12.85 -15.3 -11.4 -16.5 -13.75 -16.95 -14.7 -16.7 -15.7 -16.45 -16.8 -15.45 -17.3" fill="#231f20" fill-rule="evenodd" stroke="none"/>
    <path d="M-13.95 -17.05 Q-12.9 -17.5 -12.55 -16.55 -12.2 -15.6 -13.5 -15.4 -14.8 -15.2 -14.85 -15.9 -14.95 -16.6 -13.95 -17.05" fill="#fdfdfd" fill-rule="evenodd" stroke="none"/>
    <path d="M11.8 -17.3 Q14.35 -18.7 15.85 -16.35 16.5 -15.35 16.35 -14.4 16.2 -13.35 15.1 -12.85 11.95 -11.4 10.8 -13.75 10.3 -14.7 10.6 -15.7 10.85 -16.8 11.8 -17.3" fill="#231f20" fill-rule="evenodd" stroke="none"/>
    <path d="M13.3 -17.05 Q14.35 -17.5 14.7 -16.55 15.05 -15.6 13.75 -15.4 12.5 -15.2 12.4 -15.9 12.35 -16.6 13.3 -17.05" fill="#fdfdfd" fill-rule="evenodd" stroke="none"/>
    <path d="M-8.5 -10.1 L-5.2 -14.2 Q-1.6 -18.3 -0.05 -18.3 1.85 -18.3 4.55 -14.4 L6.9 -10.5 4.2 -6.95 Q1.15 -3.35 -0.55 -3.2 -1.9 -3.35 -5.35 -6.75 L-8.5 -10.1" fill="#f59122" fill-rule="evenodd" stroke="none"/>
    <path d="M-5.75 -10.15 L-3.75 -11.35 Q-1.5 -12.5 -0.55 -12.5 0.95 -12.5 3.9 -10.35 L2.35 -8.85 Q0.55 -7.35 -0.55 -7.35 -1.65 -7.35 -3.8 -8.75 L-5.75 -10.15" fill="#ef5c27" fill-rule="evenodd" stroke="none"/>
    <path d="M-0.25 -16.25 Q0.95 -16.5 1.3 -15.4 1.65 -14.3 0.8 -14.0 -0.55 -13.55 -1.05 -14.7 -1.6 -15.9 -0.25 -16.25" fill="#fdfdfd" fill-rule="evenodd" stroke="none"/>
    <path d="M-25.4 13.8 L-13.95 6.75 -8.85 13.75 -0.7 7.2 Q4.25 9.9 9.2 12.55 L13.85 6.75 24.75 11.5 Q27.05 20.35 26.1 29.4 25.2 38.0 17.65 43.25 10.75 48.15 1.2 48.35 -8.5 48.6 -15.8 43.8 -23.9 38.45 -25.7 28.55 -27.05 21.2 -25.4 13.8" fill="#e3efc8" fill-rule="evenodd" stroke="none"/>
    <path d="M19.95 9.55 L24.75 11.5 Q27.2 23.85 25.65 31.0 23.7 40.25 14.85 44.65 8.3 47.95 1.1 48.15 -5.75 48.35 -11.75 45.75 -17.75 43.05 -21.45 38.1 -25.3 32.75 -25.75 25.9 -20.65 34.55 -12.95 37.05 -5.95 39.35 1.45 36.1 8.65 33.05 13.7 26.0 19.0 18.6 19.95 9.55" fill="#bac698" fill-rule="evenodd" stroke="none"/>
    <path d="M-21.8 11.65 L-13.95 6.75 -8.85 13.75 -0.7 7.2 Q4.25 9.9 9.2 12.55 L13.85 6.75 20.7 9.8 14.6 9.1 9.7 13.75 -0.55 9.1 -8.95 14.7 -14.3 8.4 -21.8 11.65" fill="#fdfdfd" fill-rule="evenodd" stroke="none"/>
    <path d="M-26.6 -4.6 Q-30.55 -3.55 -33.7 -1.25 -36.85 0.95 -37.0 2.65 -37.25 5.0 -36.3 5.7 L-33.35 6.0 -28.7 5.35 -22.8 5.55 Q-21.0 5.9 -17.4 7.05 L-13.2 8.15 Q-9.75 8.35 -12.6 1.2 -16.05 -7.4 -26.6 -4.6" fill="#e4ae2b" fill-rule="evenodd" stroke="none"/>
    <path d="M-31.0 -2.0 Q-36.0 0.5 -34.7 2.55 -33.4 4.55 -29.15 2.9 -25.2 1.35 -26.5 -1.15 -26.95 -2.1 -28.2 -2.4 -29.5 -2.75 -31.0 -2.0" fill="#ffcc40" fill-rule="evenodd" stroke="none"/>
    <path d="M26.6 -4.6 Q30.55 -3.55 33.7 -1.25 36.85 0.95 37.0 2.65 37.25 5.0 36.3 5.7 L33.35 6.0 28.7 5.35 22.8 5.55 Q21.0 5.9 17.4 7.05 L13.2 8.15 Q9.75 8.35 12.6 1.2 16.05 -7.4 26.6 -4.6" fill="#e4ae2b" fill-rule="evenodd" stroke="none"/>
    <path d="M31.0 -2.0 Q36.0 0.5 34.7 2.55 33.4 4.55 29.15 2.9 25.2 1.35 26.5 -1.15 26.95 -2.1 28.2 -2.4 29.5 -2.75 31.0 -2.0" fill="#ffcc40" fill-rule="evenodd" stroke="none"/>
    <path d="M13.85 -40.9 Q20.9 -33.1 23.8 -21.75 L12.9 -26.5 8.25 -20.7 -1.65 -26.05 -9.8 -19.5 -14.9 -26.5 -26.35 -19.45 Q-23.7 -31.3 -14.95 -40.2 -6.7 -48.5 0.65 -48.4 7.1 -48.3 13.85 -40.9" fill="#e3efc8" fill-rule="evenodd" stroke="none"/>
    <path d="M17.65 -35.5 Q19.1 -33.55 20.65 -30.1 22.55 -25.9 23.65 -21.55 22.6 -22.2 21.15 -22.85 L18.65 -23.95 Q19.1 -28.55 17.65 -35.5" fill="#bac698" fill-rule="evenodd" stroke="none"/>
    <path d="M3.85 -45.15 Q5.7 -44.55 7.15 -43.0 8.65 -41.45 8.85 -39.85 9.1 -38.0 7.5 -36.9 4.3 -34.7 1.25 -39.05 0.1 -40.8 -0.2 -42.5 -0.5 -44.3 0.5 -44.95 L3.85 -45.15" fill="#fdfdfd" fill-rule="evenodd" stroke="none"/>
    <path d="M8.25 -20.7 L-1.65 -26.05 -9.8 -19.5 -14.9 -26.5 -24.85 -20.45 -14.8 -28.15 -9.65 -21.15 -1.95 -27.45 7.6 -22.75 12.05 -28.35 23.8 -21.75 12.9 -26.5 8.25 -20.7" fill="#bac698" fill-rule="evenodd" stroke="none"/>
  </g>
</svg>
