<?xml version="1.0" encoding="UTF-8" standalone="no"?>
<svg xmlns:ffdec="https://www.free-decompiler.com/flash" xmlns:xlink="http://www.w3.org/1999/xlink" ffdec:objectType="shape" height="248.55px" width="257.6px" xmlns="http://www.w3.org/2000/svg">
  <g transform="matrix(1.0, 0.0, 0.0, 1.0, 128.8, 124.3)">
    <path d="M100.5 -42.65 Q108.8 -39.15 115.25 -32.75 121.65 -26.35 125.15 -18.0 128.8 -9.4 128.8 0.0 128.8 9.4 125.15 18.0 121.65 26.3 115.25 32.7 108.8 39.1 100.5 42.6 91.9 46.25 82.5 46.25 73.1 46.25 64.5 42.6 56.2 39.1 49.8 32.7 43.4 26.3 39.9 18.0 36.25 9.4 36.25 0.0 36.25 -9.4 39.9 -18.0 43.4 -26.35 49.8 -32.75 56.2 -39.15 64.5 -42.65 73.15 -46.3 82.5 -46.3 91.9 -46.3 100.5 -42.65 M97.3 -35.05 Q90.2 -38.05 82.5 -38.05 74.8 -38.05 67.75 -35.05 60.9 -32.2 55.65 -26.9 50.35 -21.65 47.5 -14.8 44.5 -7.75 44.5 0.0 44.5 7.7 47.5 14.75 50.35 21.6 55.65 26.85 60.9 32.1 67.75 35.0 74.8 38.0 82.5 38.0 90.2 38.0 97.3 35.0 104.15 32.1 109.4 26.85 114.65 21.6 117.55 14.75 120.55 7.7 120.55 0.0 120.55 -7.75 117.55 -14.8 114.65 -21.65 109.4 -26.9 104.15 -32.2 97.3 -35.05" fill="#3db44a" fill-rule="evenodd" stroke="none"/>
    <path d="M97.3 -35.05 Q104.15 -32.2 109.4 -26.9 114.65 -21.65 117.55 -14.8 120.55 -7.75 120.55 0.0 120.55 7.7 117.55 14.75 114.65 21.6 109.4 26.85 104.15 32.1 97.3 35.0 90.2 38.0 82.5 38.0 74.8 38.0 67.75 35.0 60.9 32.1 55.65 26.85 50.35 21.6 47.5 14.75 44.5 7.7 44.5 0.0 44.5 -7.75 47.5 -14.8 50.35 -21.65 55.65 -26.9 60.9 -32.2 67.75 -35.05 74.8 -38.05 82.5 -38.05 90.2 -38.05 97.3 -35.05" fill="#ffffff" fill-rule="evenodd" stroke="none"/>
    <path d="M18.0 -120.65 Q26.3 -117.15 32.75 -110.75 39.15 -104.35 42.65 -96.0 46.3 -87.4 46.3 -78.0 46.3 -68.6 42.65 -60.0 39.15 -51.7 32.75 -45.3 26.3 -38.9 18.0 -35.4 9.4 -31.75 0.0 -31.75 -9.4 -31.75 -18.0 -35.4 -26.3 -38.9 -32.7 -45.3 -39.1 -51.7 -42.6 -60.0 -46.25 -68.6 -46.25 -78.0 -46.25 -87.4 -42.6 -96.0 -39.1 -104.35 -32.7 -110.75 -26.3 -117.15 -18.0 -120.65 -9.35 -124.3 0.0 -124.3 9.4 -124.3 18.0 -120.65 M14.8 -113.05 Q7.7 -116.05 0.0 -116.05 -7.7 -116.05 -14.75 -113.05 -21.6 -110.2 -26.85 -104.9 -32.15 -99.65 -35.0 -92.8 -38.0 -85.75 -38.0 -78.0 -38.0 -70.3 -35.0 -63.25 -32.15 -56.4 -26.85 -51.15 -21.6 -45.9 -14.75 -43.0 -7.7 -40.0 0.0 -40.0 7.7 -40.0 14.8 -43.0 21.65 -45.9 26.9 -51.15 32.15 -56.4 35.05 -63.25 38.05 -70.3 38.05 -78.0 38.05 -85.75 35.05 -92.8 32.15 -99.65 26.9 -104.9 21.65 -110.2 14.8 -113.05" fill="#3db44a" fill-rule="evenodd" stroke="none"/>
    <path d="M14.8 -113.05 Q21.65 -110.2 26.9 -104.9 32.15 -99.65 35.05 -92.8 38.05 -85.75 38.05 -78.0 38.05 -70.3 35.05 -63.25 32.15 -56.4 26.9 -51.15 21.65 -45.9 14.8 -43.0 7.7 -40.0 0.0 -40.0 -7.7 -40.0 -14.75 -43.0 -21.6 -45.9 -26.85 -51.15 -32.15 -56.4 -35.0 -63.25 -38.0 -70.3 -38.0 -78.0 -38.0 -85.75 -35.0 -92.8 -32.15 -99.65 -26.85 -104.9 -21.6 -110.2 -14.75 -113.05 -7.7 -116.05 0.0 -116.05 7.7 -116.05 14.8 -113.05" fill="#ffffff" fill-rule="evenodd" stroke="none"/>
    <path d="M-64.55 -42.65 Q-56.25 -39.15 -49.8 -32.75 -43.4 -26.35 -39.9 -18.0 -36.25 -9.4 -36.25 0.0 -36.25 9.4 -39.9 18.0 -43.4 26.3 -49.8 32.7 -56.25 39.1 -64.55 42.6 -73.15 46.25 -82.55 46.25 -91.95 46.25 -100.55 42.6 -108.85 39.1 -115.25 32.7 -121.65 26.3 -125.15 18.0 -128.8 9.4 -128.8 0.0 -128.8 -9.4 -125.15 -18.0 -121.65 -26.35 -115.25 -32.75 -108.85 -39.15 -100.55 -42.65 -91.9 -46.3 -82.55 -46.3 -73.15 -46.3 -64.55 -42.65 M-67.75 -35.05 Q-74.85 -38.05 -82.55 -38.05 -90.25 -38.05 -97.3 -35.05 -104.15 -32.2 -109.4 -26.9 -114.7 -21.65 -117.55 -14.8 -120.55 -7.75 -120.55 0.0 -120.55 7.7 -117.55 14.75 -114.7 21.6 -109.4 26.85 -104.15 32.1 -97.3 35.0 -90.25 38.0 -82.55 38.0 -74.85 38.0 -67.75 35.0 -60.9 32.1 -55.65 26.85 -50.4 21.6 -47.5 14.75 -44.5 7.7 -44.5 0.0 -44.5 -7.75 -47.5 -14.8 -50.4 -21.65 -55.65 -26.9 -60.9 -32.2 -67.75 -35.05" fill="#3db44a" fill-rule="evenodd" stroke="none"/>
    <path d="M-67.75 -35.05 Q-60.9 -32.2 -55.65 -26.9 -50.4 -21.65 -47.5 -14.8 -44.5 -7.75 -44.5 0.0 -44.5 7.7 -47.5 14.75 -50.4 21.6 -55.65 26.85 -60.9 32.1 -67.75 35.0 -74.85 38.0 -82.55 38.0 -90.25 38.0 -97.3 35.0 -104.15 32.1 -109.4 26.85 -114.7 21.6 -117.55 14.75 -120.55 7.7 -120.55 0.0 -120.55 -7.75 -117.55 -14.8 -114.7 -21.65 -109.4 -26.9 -104.15 -32.2 -97.3 -35.05 -90.25 -38.05 -82.55 -38.05 -74.85 -38.05 -67.75 -35.05" fill="#ffffff" fill-rule="evenodd" stroke="none"/>
    <path d="M18.0 35.35 Q26.3 38.85 32.75 45.25 39.15 51.65 42.65 60.0 46.3 68.6 46.3 78.0 46.3 87.4 42.65 96.0 39.15 104.3 32.75 110.7 26.3 117.1 18.0 120.6 9.4 124.25 0.0 124.25 -9.4 124.25 -18.0 120.6 -26.3 117.1 -32.7 110.7 -39.1 104.3 -42.6 96.0 -46.25 87.4 -46.25 78.0 -46.25 68.6 -42.6 60.0 -39.1 51.65 -32.7 45.25 -26.3 38.85 -18.0 35.35 -9.35 31.7 0.0 31.7 9.4 31.7 18.0 35.35 M14.8 42.95 Q7.7 39.95 0.0 39.95 -7.7 39.95 -14.75 42.95 -21.6 45.8 -26.85 51.1 -32.15 56.35 -35.0 63.2 -38.0 70.25 -38.0 78.0 -38.0 85.7 -35.0 92.75 -32.15 99.6 -26.85 104.85 -21.6 110.1 -14.75 113.0 -7.7 116.0 0.0 116.0 7.7 116.0 14.8 113.0 21.65 110.1 26.9 104.85 32.15 99.6 35.05 92.75 38.05 85.7 38.05 78.0 38.05 70.25 35.05 63.2 32.15 56.35 26.9 51.1 21.65 45.8 14.8 42.95" fill="#3db44a" fill-rule="evenodd" stroke="none"/>
    <path d="M14.8 42.95 Q21.65 45.8 26.9 51.1 32.15 56.35 35.05 63.2 38.05 70.25 38.05 78.0 38.05 85.7 35.05 92.75 32.15 99.6 26.9 104.85 21.65 110.1 14.8 113.0 7.7 116.0 0.0 116.0 -7.7 116.0 -14.75 113.0 -21.6 110.1 -26.85 104.85 -32.15 99.6 -35.0 92.75 -38.0 85.7 -38.0 78.0 -38.0 70.25 -35.0 63.2 -32.15 56.35 -26.85 51.1 -21.6 45.8 -14.75 42.95 -7.7 39.95 0.0 39.95 7.7 39.95 14.8 42.95" fill="#ffffff" fill-rule="evenodd" stroke="none"/>
  </g>
</svg>
