<?xml version="1.0" encoding="UTF-8" standalone="no"?>
<svg xmlns:ffdec="https://www.free-decompiler.com/flash" xmlns:xlink="http://www.w3.org/1999/xlink" ffdec:objectType="shape" height="96.75px" width="74.1px" xmlns="http://www.w3.org/2000/svg">
  <g transform="matrix(1.0, 0.0, 0.0, 1.0, 225.05, 92.1)">
    <path d="M-201.9 -11.85 Q-205.7 -18.4 -204.95 -28.55 -204.25 -38.25 -200.05 -45.45 -195.55 -53.15 -189.5 -53.2 -182.65 -53.3 -177.1 -45.8 -171.85 -38.8 -170.55 -29.35 -169.15 -19.35 -173.2 -12.7 -177.9 -5.0 -188.55 -4.65 -197.55 -4.4 -201.9 -11.85" fill="#e4ae2b" fill-rule="evenodd" stroke="none"/>
    <path d="M-200.95 -38.4 Q-200.95 -41.6 -198.5 -44.2 -195.85 -46.85 -191.75 -47.45 -184.6 -48.4 -180.05 -45.7 -176.05 -43.25 -175.55 -39.15 -175.05 -35.1 -178.25 -32.3 -181.8 -29.2 -188.15 -29.6 -194.5 -30.05 -197.9 -32.7 -200.85 -35.0 -200.95 -38.4" fill="#ffcc40" fill-rule="evenodd" stroke="none"/>
    <path d="M-167.4 -57.65 Q-168.0 -52.1 -172.5 -48.6 -178.6 -43.95 -188.05 -43.55 -198.6 -43.15 -204.7 -49.25 -208.25 -52.8 -208.55 -58.4 -208.85 -63.65 -206.25 -68.9 -203.65 -74.3 -199.1 -77.45 -194.2 -80.95 -188.4 -80.7 -182.6 -80.45 -177.35 -76.8 -172.5 -73.35 -169.7 -68.1 -166.9 -62.75 -167.4 -57.65" fill="#e4ae2b" fill-rule="evenodd" stroke="none"/>
    <path d="M-171.3 -53.55 Q-173.35 -49.0 -178.65 -45.7 -183.35 -42.7 -188.3 -42.75 -193.9 -42.8 -198.95 -46.75 -203.25 -50.1 -205.0 -54.3 -206.7 -58.35 -205.5 -62.1 -204.35 -65.95 -200.35 -68.3 -196.05 -70.85 -189.3 -71.05 -182.05 -71.25 -177.05 -68.6 -172.45 -66.15 -170.9 -62.0 -169.4 -57.9 -171.3 -53.55" fill="#ffcc40" fill-rule="evenodd" stroke="none"/>
    <path d="M-203.45 -61.0 Q-200.95 -62.4 -199.4 -60.05 -197.85 -57.65 -200.15 -56.55 -203.3 -55.1 -204.5 -57.45 -204.95 -58.4 -204.7 -59.4 -204.45 -60.5 -203.45 -61.0" fill="#231f20" fill-rule="evenodd" stroke="none"/>
    <path d="M-201.95 -60.75 Q-200.9 -61.2 -200.55 -60.25 -200.2 -59.3 -201.5 -59.1 -202.8 -58.9 -202.85 -59.6 -202.95 -60.3 -201.95 -60.75" fill="#fdfdfd" fill-rule="evenodd" stroke="none"/>
    <path d="M-176.2 -61.0 Q-173.65 -62.4 -172.15 -60.05 -171.5 -59.05 -171.65 -58.1 -171.8 -57.05 -172.9 -56.55 -176.05 -55.1 -177.2 -57.45 -177.7 -58.4 -177.4 -59.4 -177.15 -60.5 -176.2 -61.0" fill="#231f20" fill-rule="evenodd" stroke="none"/>
    <path d="M-174.7 -60.75 Q-173.65 -61.2 -173.3 -60.25 -172.95 -59.3 -174.25 -59.1 -175.5 -58.9 -175.6 -59.6 -175.65 -60.3 -174.7 -60.75" fill="#fdfdfd" fill-rule="evenodd" stroke="none"/>
    <path d="M-196.5 -53.8 L-193.2 -57.9 Q-189.6 -62.0 -188.05 -62.0 -186.15 -62.0 -183.45 -58.1 -182.1 -56.15 -181.1 -54.2 L-183.8 -50.65 Q-186.85 -47.05 -188.55 -46.9 -189.9 -47.05 -193.35 -50.45 L-196.5 -53.8" fill="#f59122" fill-rule="evenodd" stroke="none"/>
    <path d="M-193.75 -53.85 L-191.75 -55.05 Q-189.5 -56.2 -188.55 -56.2 -187.05 -56.2 -184.1 -54.05 L-185.65 -52.55 Q-187.45 -51.05 -188.55 -51.05 -189.65 -51.05 -191.8 -52.45 L-193.75 -53.85" fill="#ef5c27" fill-rule="evenodd" stroke="none"/>
    <path d="M-188.25 -59.95 Q-187.05 -60.2 -186.7 -59.1 -186.35 -58.0 -187.2 -57.7 -188.55 -57.25 -189.05 -58.4 -189.6 -59.6 -188.25 -59.95" fill="#fdfdfd" fill-rule="evenodd" stroke="none"/>
    <path d="M-213.4 -29.9 L-201.95 -36.95 -196.85 -29.95 -188.7 -36.5 -178.8 -31.15 -174.15 -36.95 -163.25 -32.2 Q-160.95 -23.35 -161.9 -14.3 -162.8 -5.7 -170.35 -0.45 -177.25 4.45 -186.8 4.65 -196.5 4.9 -203.8 0.1 -211.9 -5.25 -213.7 -15.15 -215.05 -22.5 -213.4 -29.9" fill="#e3efc8" fill-rule="evenodd" stroke="none"/>
    <path d="M-168.05 -34.15 L-163.25 -32.2 Q-160.8 -19.85 -162.35 -12.7 -164.3 -3.45 -173.15 0.95 -179.7 4.25 -186.9 4.45 -193.75 4.65 -199.75 2.05 -205.75 -0.65 -209.45 -5.6 -213.3 -10.95 -213.75 -17.8 -208.65 -9.15 -200.95 -6.65 -193.95 -4.35 -186.55 -7.6 -179.35 -10.65 -174.3 -17.7 -169.0 -25.1 -168.05 -34.15" fill="#bac698" fill-rule="evenodd" stroke="none"/>
    <path d="M-209.8 -32.05 L-201.95 -36.95 -196.85 -29.95 -188.7 -36.5 -178.8 -31.15 -174.15 -36.95 -167.3 -33.9 -173.4 -34.6 -178.3 -29.95 -188.55 -34.6 -196.95 -29.0 -202.3 -35.3 -209.8 -32.05" fill="#fdfdfd" fill-rule="evenodd" stroke="none"/>
    <path d="M-214.6 -48.3 Q-218.55 -47.25 -221.7 -44.95 -224.85 -42.75 -225.0 -41.05 -225.25 -38.7 -224.3 -38.0 -223.5 -37.45 -221.35 -37.7 L-216.7 -38.35 -210.8 -38.15 -205.4 -36.65 -201.2 -35.55 Q-197.75 -35.35 -200.6 -42.5 -204.05 -51.1 -214.6 -48.3" fill="#e4ae2b" fill-rule="evenodd" stroke="none"/>
    <path d="M-219.0 -45.7 Q-224.0 -43.2 -222.7 -41.15 -221.4 -39.15 -217.15 -40.8 -213.2 -42.35 -214.5 -44.85 -214.95 -45.8 -216.2 -46.1 -217.5 -46.45 -219.0 -45.7" fill="#ffcc40" fill-rule="evenodd" stroke="none"/>
    <path d="M-161.4 -48.3 Q-157.45 -47.25 -154.3 -44.95 -151.15 -42.75 -151.0 -41.05 -150.75 -38.7 -151.7 -38.0 -152.5 -37.45 -154.65 -37.7 L-159.3 -38.35 -165.2 -38.15 -170.6 -36.65 Q-173.65 -35.65 -174.8 -35.55 -178.25 -35.35 -175.4 -42.5 -171.95 -51.1 -161.4 -48.3" fill="#e4ae2b" fill-rule="evenodd" stroke="none"/>
    <path d="M-157.0 -45.7 Q-152.0 -43.2 -153.3 -41.15 -154.6 -39.15 -158.85 -40.8 -162.8 -42.35 -161.5 -44.85 -161.05 -45.8 -159.8 -46.1 -158.5 -46.45 -157.0 -45.7" fill="#ffcc40" fill-rule="evenodd" stroke="none"/>
    <path d="M-174.15 -84.6 Q-167.1 -76.8 -164.2 -65.45 L-175.1 -70.2 -179.75 -64.4 -189.65 -69.75 -197.8 -63.2 -202.9 -70.2 -214.35 -63.15 Q-211.7 -75.0 -202.95 -83.9 -194.7 -92.2 -187.35 -92.1 -180.9 -92.0 -174.15 -84.6" fill="#e3efc8" fill-rule="evenodd" stroke="none"/>
    <path d="M-170.35 -79.2 Q-168.9 -77.25 -167.35 -73.8 -165.45 -69.6 -164.35 -65.25 L-166.85 -66.55 -169.35 -67.65 Q-168.9 -72.25 -170.35 -79.2" fill="#bac698" fill-rule="evenodd" stroke="none"/>
    <path d="M-184.15 -88.85 Q-182.3 -88.25 -180.85 -86.7 -179.35 -85.15 -179.15 -83.55 -178.9 -81.7 -180.5 -80.6 -183.7 -78.4 -186.75 -82.75 -187.9 -84.5 -188.2 -86.2 -188.5 -88.0 -187.5 -88.65 L-184.15 -88.85" fill="#fdfdfd" fill-rule="evenodd" stroke="none"/>
    <path d="M-179.75 -64.4 L-189.65 -69.75 -197.8 -63.2 -202.9 -70.2 -212.85 -64.15 -202.8 -71.85 -197.65 -64.85 -189.95 -71.15 -180.4 -66.45 -175.95 -72.05 -164.2 -65.45 -175.1 -70.2 -179.75 -64.4" fill="#bac698" fill-rule="evenodd" stroke="none"/>
  </g>
</svg>
