<?xml version="1.0" encoding="UTF-8" standalone="no"?>
<svg xmlns:ffdec="https://www.free-decompiler.com/flash" xmlns:xlink="http://www.w3.org/1999/xlink" ffdec:objectType="shape" height="44.2px" width="28.95px" xmlns="http://www.w3.org/2000/svg">
  <g transform="matrix(1.0, 0.0, 0.0, 1.0, 13.95, 12.35)">
    <path d="M0.5 -12.35 Q4.2 -12.35 7.0 -10.05 9.85 -7.65 10.3 -4.0 L14.95 28.1 Q15.15 29.6 14.5 30.7 13.8 31.85 12.55 31.85 L-11.5 31.85 Q-12.75 31.85 -13.45 30.7 -14.1 29.6 -13.9 28.1 L-9.25 -4.0 Q-8.8 -7.65 -5.95 -10.05 -3.15 -12.35 0.5 -12.35" fill="#312e2f" fill-rule="evenodd" stroke="none"/>
    <path d="M6.7 -3.05 Q6.7 -0.5 4.9 1.35 3.1 3.15 0.5 3.15 -2.05 3.15 -3.85 1.35 -5.7 -0.5 -5.7 -3.05 -5.7 -5.65 -3.85 -7.45 -2.05 -9.25 0.5 -9.25 3.1 -9.25 4.9 -7.45 6.7 -5.65 6.7 -3.05" fill="#ffffff" fill-rule="evenodd" stroke="none"/>
  </g>
</svg>
