<?xml version="1.0" encoding="UTF-8" standalone="no"?>
<svg xmlns:ffdec="https://www.free-decompiler.com/flash" xmlns:xlink="http://www.w3.org/1999/xlink" ffdec:objectType="shape" height="81.95px" width="78.75px" xmlns="http://www.w3.org/2000/svg">
  <g transform="matrix(1.0, 0.0, 0.0, 1.0, 39.35, 41.0)">
    <path d="M-15.6 -9.2 L-18.6 -9.5 -21.55 -9.7 Q-21.15 -10.35 -21.2 -12.35 L-21.4 -15.35 -15.1 -15.7 Q-15.75 -12.7 -15.6 -9.2 M31.6 1.4 L29.7 8.0 Q28.45 13.0 28.45 20.1 L11.25 21.3 -6.2 22.9 Q-26.1 23.3 -34.9 10.55 -34.25 4.4 -34.15 2.3 L-33.9 -7.55 Q-22.1 4.25 -2.65 4.35 L14.45 3.1 31.6 1.4 M16.85 -9.65 L11.5 -9.45 11.3 -12.55 Q11.2 -14.4 11.35 -15.1 L11.4 -15.35 16.9 -15.35 Q16.55 -11.75 16.85 -9.65" fill="#ffac2e" fill-rule="evenodd" stroke="none"/>
    <path d="M-34.9 10.55 Q-26.1 23.3 -6.2 22.9 L11.25 21.3 28.45 20.1 28.85 28.2 29.1 36.6 Q24.85 37.95 15.8 37.95 6.0 37.65 2.6 37.75 -12.2 38.25 -24.3 34.8 -32.75 32.4 -34.75 25.3 -36.0 20.85 -34.9 10.55 M10.5 -38.5 Q16.1 -37.15 17.7 -32.85 18.9 -29.65 18.1 -23.65 L16.9 -15.35 11.4 -15.35 11.85 -17.0 12.85 -20.35 13.7 -23.9 Q14.9 -30.3 11.15 -33.35 7.9 -35.9 2.3 -34.5 -1.1 -33.6 -3.75 -31.75 L-4.85 -31.0 Q-8.6 -28.0 -11.05 -24.65 -12.85 -22.2 -13.95 -19.45 L-15.1 -15.7 -21.4 -15.35 -21.4 -15.85 -19.05 -20.35 -16.15 -25.05 Q-12.45 -30.45 -8.25 -33.9 -5.2 -36.4 -2.05 -37.65 3.9 -40.05 10.5 -38.5 M31.15 -16.7 L35.75 -16.3 Q35.55 -12.35 34.25 -7.35 L31.6 1.4 14.45 3.1 -2.65 4.35 Q-22.1 4.25 -33.9 -7.55 -33.9 -17.6 -35.55 -25.1 -29.15 -22.5 -20.2 -20.6 L-21.4 -15.85 -21.55 -15.35 -22.6 -11.75 Q-22.95 -10.45 -22.5 -9.6 L-22.6 -9.6 -22.4 -9.5 -21.05 -8.1 -17.55 -7.4 Q-14.6 -6.7 -14.7 -6.6 -12.5 -8.35 -12.45 -12.35 -12.35 -17.1 -11.25 -19.05 L-0.1 -17.75 9.0 -17.15 Q8.65 -13.15 8.5 -6.85 L18.7 -6.3 Q18.35 -8.25 18.45 -11.45 L18.65 -15.35 19.15 -16.8 31.15 -16.7" fill="#ffdf2b" fill-rule="evenodd" stroke="none"/>
    <path d="M-0.9 -29.4 Q-3.9 -27.55 -6.9 -24.55 L3.25 -24.45 -0.05 -28.55 -0.9 -29.4 M-13.35 -33.95 Q-16.25 -33.05 -16.95 -31.7 -17.4 -30.8 -16.95 -28.85 L-16.85 -28.25 Q-14.6 -31.75 -11.65 -34.25 L-13.35 -33.95 M9.25 -30.8 Q7.8 -32.45 4.85 -31.95 7.35 -29.15 10.3 -24.4 10.85 -28.9 9.25 -30.8 M17.2 -37.25 Q19.05 -35.3 19.8 -31.25 20.45 -27.8 20.2 -23.5 35.75 -22.25 38.95 -18.2 40.25 -16.55 37.95 -8.25 L34.8 1.65 Q32.3 9.05 32.35 19.2 L32.25 36.65 Q32.7 40.25 17.4 40.9 L-0.85 40.95 Q-12.6 40.95 -21.45 38.85 -31.55 36.5 -35.15 31.45 -38.7 26.55 -38.05 16.1 -37.05 0.3 -37.0 -3.65 -36.8 -14.95 -38.35 -23.35 L-38.7 -25.4 Q-39.05 -27.05 -39.35 -26.75 -36.1 -29.95 -23.55 -26.15 L-22.2 -25.9 -22.75 -27.9 -23.05 -30.05 Q-23.15 -32.1 -22.25 -34.3 -21.15 -36.45 -19.0 -37.85 -17.15 -39.1 -14.8 -39.65 -11.45 -40.55 -7.75 -39.8 -5.6 -39.4 -4.15 -38.65 1.85 -41.05 7.3 -41.0 13.75 -40.95 17.2 -37.25 M35.75 -16.3 L31.15 -16.7 19.15 -16.8 18.65 -15.35 18.45 -11.45 Q18.35 -8.25 18.7 -6.3 L8.5 -6.85 Q8.65 -13.15 9.0 -17.15 L-0.1 -17.75 -11.25 -19.05 Q-12.35 -17.1 -12.45 -12.35 -12.5 -8.35 -14.7 -6.6 -14.6 -6.7 -17.55 -7.4 L-21.05 -8.1 -22.4 -9.5 -22.6 -9.6 -22.5 -9.6 Q-22.95 -10.5 -22.6 -11.9 L-21.4 -15.85 -21.25 -12.85 Q-21.1 -10.4 -21.55 -9.7 L-18.6 -9.5 -15.6 -9.2 Q-15.8 -14.8 -13.95 -19.45 -12.85 -22.2 -11.05 -24.65 -8.6 -28.0 -4.85 -31.0 L-3.75 -31.75 Q-1.1 -33.6 2.3 -34.5 7.9 -35.9 11.15 -33.35 14.9 -30.3 13.7 -23.9 L12.85 -20.35 11.85 -17.0 11.35 -15.1 Q11.2 -14.4 11.3 -12.55 L11.5 -9.45 16.85 -9.65 Q16.5 -12.35 17.1 -16.85 L18.1 -23.65 Q18.9 -29.65 17.7 -32.85 16.1 -37.15 10.5 -38.5 3.9 -40.05 -2.05 -37.65 -5.2 -36.4 -8.25 -33.9 -12.45 -30.45 -16.15 -25.05 L-19.05 -20.35 -21.4 -15.85 -20.2 -20.6 Q-29.15 -22.5 -35.55 -25.1 -34.25 -19.1 -34.0 -11.45 -33.8 -6.25 -34.15 2.3 L-35.05 12.25 Q-35.7 18.35 -35.35 21.8 -34.45 31.9 -24.3 34.8 -12.2 38.25 2.6 37.75 6.0 37.65 15.8 37.95 24.85 37.95 29.1 36.6 L28.5 22.3 Q28.2 14.1 29.7 8.0 L33.3 -4.05 Q35.5 -11.3 35.75 -16.3" fill="#88731e" fill-rule="evenodd" stroke="none"/>
  </g>
</svg>
