<?xml version="1.0" encoding="UTF-8" standalone="no"?>
<svg xmlns:ffdec="https://www.free-decompiler.com/flash" xmlns:xlink="http://www.w3.org/1999/xlink" ffdec:objectType="shape" height="110.0px" width="169.8px" xmlns="http://www.w3.org/2000/svg">
  <g transform="matrix(1.0, 0.0, 0.0, 1.0, 0.1, 2.75)">
    <path d="M70.1 -2.75 Q74.75 -2.75 78.55 -0.9 82.35 0.9 84.8 4.3 87.25 0.9 91.05 -0.9 94.85 -2.75 99.5 -2.75 102.75 -2.75 106.25 -1.85 115.95 0.55 122.3 4.25 130.65 9.1 132.5 15.8 L133.1 15.8 Q139.5 15.8 146.0 21.2 149.75 24.25 154.65 30.4 L156.9 33.4 Q159.4 36.8 160.35 38.9 163.0 44.75 161.3 49.65 165.15 51.9 167.35 56.4 169.65 61.05 169.7 66.9 169.75 71.55 168.35 75.4 166.9 79.3 164.2 81.95 L163.1 82.85 163.25 83.55 Q163.65 86.3 162.35 89.4 161.1 92.5 158.0 96.35 L154.9 99.9 Q152.6 102.3 151.15 103.3 147.65 105.65 143.15 106.6 L135.35 107.25 102.4 107.25 91.65 107.1 Q89.0 106.95 87.6 106.4 86.05 105.75 84.8 104.75 83.5 105.8 81.95 106.4 80.55 106.95 77.95 107.1 L67.2 107.25 34.25 107.25 26.45 106.6 Q21.95 105.65 18.45 103.3 17.0 102.3 14.75 99.9 L11.6 96.35 Q8.5 92.5 7.25 89.4 5.95 86.3 6.35 83.55 L6.45 82.85 5.4 81.95 Q2.7 79.3 1.25 75.4 -0.15 71.55 -0.1 66.9 -0.05 61.05 2.25 56.4 4.45 51.9 8.3 49.65 6.55 44.75 9.25 38.9 10.2 36.8 12.65 33.4 L14.95 30.4 Q19.95 24.2 23.6 21.2 30.1 15.8 36.5 15.8 L37.1 15.8 Q38.95 9.1 47.3 4.25 53.65 0.5 63.35 -1.85 L70.1 -2.75 M124.65 18.15 Q123.7 13.6 115.95 9.8 110.9 7.4 104.2 5.7 L97.1 5.3 Q93.25 6.05 91.25 9.15 88.65 13.15 88.0 27.1 87.65 33.2 87.2 35.4 86.5 38.95 84.8 38.95 83.1 38.95 82.4 35.4 81.95 33.2 81.65 27.1 80.9 13.15 78.35 9.15 76.35 6.05 72.5 5.3 L65.4 5.7 Q58.7 7.4 53.65 9.8 45.9 13.6 44.95 18.15 44.45 20.4 46.65 22.85 L50.45 26.4 Q52.4 28.4 51.55 31.15 50.7 33.95 47.6 33.2 45.7 32.75 43.55 29.45 41.1 25.55 40.05 24.8 35.75 21.65 29.45 26.75 26.15 29.3 21.1 35.55 17.95 39.5 16.8 41.9 14.6 46.5 17.15 48.9 18.85 50.6 22.45 51.45 L28.25 52.65 Q30.8 53.35 31.75 55.1 32.8 57.15 30.45 59.0 28.25 60.75 23.35 58.75 18.05 56.15 16.2 55.75 12.55 55.0 10.15 58.8 8.0 62.25 8.05 67.35 8.1 72.6 10.5 75.65 13.3 79.2 18.2 78.0 L23.3 77.1 Q26.2 77.25 26.0 80.55 25.9 83.4 21.65 83.35 L18.2 83.2 15.45 83.35 Q12.75 84.3 17.05 90.25 20.75 95.25 23.2 96.9 26.2 98.95 31.05 99.35 L39.45 99.35 62.05 99.6 Q77.35 99.7 78.85 99.15 80.2 98.6 80.75 95.7 L81.4 89.65 Q82.0 81.35 84.8 81.35 86.6 81.35 87.35 83.9 87.9 85.65 88.2 89.65 88.55 94.25 88.85 95.7 89.4 98.6 90.75 99.15 92.25 99.7 107.55 99.6 L130.15 99.35 138.55 99.35 Q143.4 98.95 146.4 96.9 148.85 95.25 152.55 90.25 156.85 84.3 154.15 83.35 L151.4 83.2 147.95 83.35 Q143.7 83.4 143.55 80.55 143.45 77.25 146.3 77.1 L151.4 78.0 Q156.3 79.2 159.05 75.65 161.5 72.6 161.55 67.35 161.6 62.25 159.45 58.8 157.05 55.0 153.4 55.75 152.3 56.0 150.1 57.0 L146.25 58.75 Q141.3 60.75 139.15 59.0 136.8 57.15 137.85 55.1 138.8 53.35 141.3 52.65 L147.15 51.45 Q150.7 50.6 152.45 48.9 155.0 46.5 152.8 41.9 151.65 39.5 148.5 35.55 143.45 29.3 140.2 26.75 133.85 21.65 129.55 24.8 128.5 25.55 126.05 29.45 123.9 32.75 122.0 33.2 118.9 33.95 118.0 31.15 117.15 28.4 119.15 26.4 L122.95 22.85 Q125.15 20.4 124.65 18.15" fill="#911147" fill-rule="evenodd" stroke="none"/>
    <path d="M124.65 18.15 Q125.15 20.4 122.95 22.85 L119.15 26.4 Q117.15 28.4 118.0 31.15 118.9 33.95 122.0 33.2 123.9 32.75 126.05 29.45 128.5 25.55 129.55 24.8 133.85 21.65 140.2 26.75 143.45 29.3 148.5 35.55 151.65 39.5 152.8 41.9 155.0 46.5 152.45 48.9 150.7 50.6 147.15 51.45 L141.3 52.65 Q138.8 53.35 137.85 55.1 136.8 57.15 139.15 59.0 141.3 60.75 146.25 58.75 L150.1 57.0 Q152.3 56.0 153.4 55.75 157.05 55.0 159.45 58.8 161.6 62.25 161.55 67.35 161.5 72.6 159.05 75.65 156.3 79.2 151.4 78.0 L146.3 77.1 Q143.45 77.25 143.55 80.55 143.7 83.4 147.95 83.35 L151.4 83.2 154.15 83.35 Q156.85 84.3 152.55 90.25 148.85 95.25 146.4 96.9 143.4 98.95 138.55 99.35 L130.15 99.35 107.55 99.6 Q92.25 99.7 90.75 99.15 89.4 98.6 88.85 95.7 88.55 94.25 88.2 89.65 87.9 85.65 87.35 83.9 86.6 81.35 84.8 81.35 82.0 81.35 81.4 89.65 L80.75 95.7 Q80.2 98.6 78.85 99.15 77.35 99.7 62.05 99.6 L39.45 99.35 31.05 99.35 Q26.2 98.95 23.2 96.9 20.75 95.25 17.05 90.25 12.75 84.3 15.45 83.35 L18.2 83.2 21.65 83.35 Q25.9 83.4 26.0 80.55 26.2 77.25 23.3 77.1 L18.2 78.0 Q13.3 79.2 10.5 75.65 8.1 72.6 8.05 67.35 8.0 62.25 10.15 58.8 12.55 55.0 16.2 55.75 18.05 56.15 23.35 58.75 28.25 60.75 30.45 59.0 32.8 57.15 31.75 55.1 30.8 53.35 28.25 52.65 L22.45 51.45 Q18.85 50.6 17.15 48.9 14.6 46.5 16.8 41.9 17.95 39.5 21.1 35.55 26.15 29.3 29.45 26.75 35.75 21.65 40.05 24.8 41.1 25.55 43.55 29.45 45.7 32.75 47.6 33.2 50.7 33.95 51.55 31.15 52.4 28.4 50.45 26.4 L46.65 22.85 Q44.45 20.4 44.95 18.15 45.9 13.6 53.65 9.8 58.7 7.4 65.4 5.7 L72.5 5.3 Q76.35 6.05 78.35 9.15 80.9 13.15 81.65 27.1 81.95 33.2 82.4 35.4 83.1 38.95 84.8 38.95 86.5 38.95 87.2 35.4 87.65 33.2 88.0 27.1 88.65 13.15 91.25 9.15 93.25 6.05 97.1 5.3 L104.2 5.7 Q110.9 7.4 115.95 9.8 123.7 13.6 124.65 18.15" fill="#cc2d37" fill-rule="evenodd" stroke="none"/>
  </g>
</svg>
