<?xml version="1.0" encoding="UTF-8" standalone="no"?>
<svg xmlns:ffdec="https://www.free-decompiler.com/flash" xmlns:xlink="http://www.w3.org/1999/xlink" ffdec:objectType="shape" height="375.15px" width="326.8px" xmlns="http://www.w3.org/2000/svg">
  <g transform="matrix(1.0, 0.0, 0.0, 1.0, 163.4, 187.6)">
    <path d="M-55.65 88.2 Q-33.0 101.6 -2.3 101.15 26.05 100.7 51.15 89.0 43.0 102.4 19.15 113.9 7.25 119.65 -3.05 122.75 -12.35 119.0 -23.55 112.75 -46.0 100.35 -55.65 88.2" fill="#9ecc8b" fill-rule="evenodd" stroke="none"/>
    <path d="M-58.05 84.9 L-55.65 88.2 Q-49.45 96.05 -37.55 104.2 -28.6 110.35 -17.25 116.1 -9.05 120.3 -3.05 122.75 L0.2 121.7 8.6 118.55 Q21.65 113.3 31.6 107.1 45.4 98.4 51.15 89.0 L52.3 86.9 51.05 93.2 Q48.95 105.45 48.75 120.0 48.5 141.1 52.45 158.05 57.1 178.0 66.65 187.55 L-73.35 186.9 Q-58.75 174.05 -55.95 139.65 -53.95 115.0 -58.05 84.9" fill="#edecdb" fill-rule="evenodd" stroke="none"/>
    <path d="M-10.05 105.9 L-5.55 102.25 0.55 106.95 Q7.0 112.8 8.6 118.55 L0.2 121.7 -3.05 122.75 Q-9.05 120.3 -17.25 116.1 -15.0 110.65 -10.05 105.9" fill="#78976b" fill-rule="evenodd" stroke="none"/>
    <path d="M-20.05 133.55 L-2.7 124.9 15.95 131.55 45.3 103.55 15.95 137.55 -0.05 129.55 -1.35 180.9 -3.35 129.55 -21.35 137.55 -52.7 100.9 -20.05 133.55" fill="#cbc9b0" fill-rule="evenodd" stroke="none"/>
    <path d="M-5.55 102.25 Q-1.05 105.25 2.95 109.25 L0.7 113.5 5.15 129.9 -4.55 140.9 -13.55 128.9 -9.55 113.5 -12.05 110.25 Q-15.15 110.85 -11.05 107.0 L-5.55 102.25" fill="#415437" fill-rule="evenodd" stroke="none"/>
    <path d="M106.65 -129.4 L112.85 -114.5 Q120.15 -98.35 127.65 -88.85 141.65 -71.1 149.85 -86.65 148.15 -72.3 138.9 -66.15 136.05 -64.25 132.7 -63.4 L130.0 -62.9 132.15 -61.35 Q135.05 -59.6 138.55 -58.5 149.85 -55.0 163.4 -59.6 162.75 -26.45 145.2 -9.55 139.7 -4.25 133.15 -1.2 L127.75 0.75 130.85 9.3 Q133.85 19.9 133.5 29.95 132.5 62.15 98.45 77.2 95.85 68.75 85.55 69.2 81.85 69.4 75.95 70.75 L65.9 73.25 Q82.2 57.8 86.55 53.2 97.9 41.2 101.3 32.9 L101.15 29.5 Q108.05 25.1 112.55 19.25 117.9 12.3 117.9 5.55 117.9 -2.6 111.5 -8.7 105.4 -14.55 96.0 -16.4 93.75 -28.4 90.4 -39.1 87.45 -48.65 83.1 -58.65 L87.05 -61.45 Q91.45 -65.85 93.95 -73.75 86.8 -73.0 73.3 -77.85 57.0 -83.7 51.95 -84.45 54.8 -87.15 57.5 -95.8 59.7 -102.9 60.65 -109.75 58.75 -106.75 47.3 -106.5 35.05 -106.75 32.45 -106.25 L33.15 -109.3 Q33.8 -113.45 33.5 -118.75 26.85 -112.4 10.4 -104.1 L-4.7 -97.1 Q-12.05 -98.25 -21.8 -101.75 -41.3 -108.75 -53.35 -120.45 -52.7 -116.0 -47.85 -108.4 L-40.05 -97.1 -63.6 -95.25 Q-76.6 -95.3 -82.7 -100.45 -81.4 -97.55 -81.15 -86.05 -80.9 -75.75 -78.05 -72.45 -80.95 -69.5 -85.15 -66.95 -93.5 -61.85 -100.05 -63.75 L-89.6 -54.25 Q-93.05 -45.6 -95.4 -36.85 -97.95 -27.45 -99.65 -16.2 -108.75 -14.15 -114.5 -8.45 -120.6 -2.4 -120.6 5.55 -120.6 12.3 -115.25 19.25 -110.75 25.1 -103.85 29.5 L-104.05 33.55 Q-100.65 41.8 -89.9 53.6 -85.5 58.45 -70.25 73.3 -95.5 80.75 -116.3 75.15 -108.15 69.1 -109.8 61.9 -110.9 57.3 -118.65 47.1 -127.7 35.25 -131.05 28.0 -136.9 15.25 -135.15 1.8 L-140.75 0.25 Q-144.65 -0.9 -147.7 -2.8 -156.7 -8.25 -163.4 -22.3 -158.35 -20.5 -154.05 -22.45 -150.8 -23.95 -146.65 -28.45 L-139.25 -36.6 Q-134.55 -41.25 -129.9 -43.25 -141.25 -53.5 -145.5 -61.4 -149.45 -68.75 -148.55 -76.65 -147.9 -82.5 -143.5 -93.4 -136.7 -110.3 -134.75 -116.05 -134.75 -105.55 -124.3 -104.4 -119.05 -103.8 -113.85 -105.35 -119.25 -107.2 -123.6 -112.0 -132.3 -121.7 -127.2 -136.65 -123.25 -130.5 -102.1 -140.2 -91.55 -145.0 -81.75 -151.1 -85.9 -152.8 -91.0 -156.1 -101.15 -162.8 -105.8 -171.0 L-92.75 -169.1 -82.8 -168.05 Q-73.35 -168.15 -59.75 -177.3 -48.4 -184.15 -37.75 -179.6 -33.5 -177.8 -27.8 -173.6 -24.45 -171.15 -17.1 -165.35 -20.25 -172.2 -22.9 -176.3 -27.8 -183.75 -35.15 -185.8 -8.2 -190.3 13.2 -183.65 23.45 -180.45 28.25 -175.25 33.4 -169.65 31.2 -162.7 34.1 -164.95 44.05 -171.3 51.45 -177.15 46.05 -180.1 51.0 -178.75 56.65 -175.1 62.8 -171.15 66.1 -166.8 74.75 -155.35 58.2 -150.2 85.4 -156.8 98.15 -143.2 102.7 -138.3 106.65 -129.4" fill="#232834" fill-rule="evenodd" stroke="none"/>
    <path d="M-120.6 5.55 Q-120.6 -2.4 -114.5 -8.45 -108.75 -14.15 -99.65 -16.2 -102.45 1.75 -103.85 29.5 -110.75 25.1 -115.25 19.25 -120.6 12.3 -120.6 5.55" fill="#d8b591" fill-rule="evenodd" stroke="none"/>
    <path d="M96.0 -16.4 Q105.4 -14.55 111.5 -8.7 117.9 -2.6 117.9 5.55 117.9 12.3 112.55 19.25 108.05 25.1 101.15 29.5 99.65 2.65 96.0 -16.4" fill="#d8b591" fill-rule="evenodd" stroke="none"/>
    <path d="M10.4 -104.1 Q26.85 -112.4 33.5 -118.75 33.8 -113.45 33.15 -109.3 L32.45 -106.25 Q35.05 -106.75 47.3 -106.5 58.75 -106.75 60.65 -109.75 59.7 -102.9 57.5 -95.8 54.8 -87.15 51.95 -84.45 57.0 -83.7 73.3 -77.85 86.8 -73.0 93.95 -73.75 91.45 -65.85 87.05 -61.45 L83.1 -58.65 Q87.45 -48.65 90.4 -39.1 93.75 -28.4 96.0 -16.4 99.65 2.65 101.15 29.5 L101.3 32.9 Q97.9 41.2 86.55 53.2 82.2 57.8 65.9 73.25 54.5 84.05 51.4 88.85 25.8 100.95 -3.1 101.25 -34.5 101.55 -57.25 87.25 -60.35 83.05 -70.25 73.3 -85.5 58.45 -89.9 53.6 -100.65 41.8 -104.05 33.55 L-103.85 29.5 Q-102.45 1.75 -99.65 -16.2 -97.95 -27.45 -95.4 -36.85 -93.05 -45.6 -89.6 -54.25 L-100.05 -63.75 Q-93.5 -61.85 -85.15 -66.95 -80.95 -69.5 -78.05 -72.45 -80.9 -75.75 -81.15 -86.05 -81.4 -97.55 -82.7 -100.45 -76.6 -95.3 -63.6 -95.25 L-40.05 -97.1 -47.85 -108.4 Q-52.7 -116.0 -53.35 -120.45 -41.3 -108.75 -21.8 -101.75 -12.05 -98.25 -4.7 -97.1 L10.4 -104.1" fill="#f5dab8" fill-rule="evenodd" stroke="none"/>
    <path d="M-113.25 53.75 L-120.4 62.4 -136.45 47.4 Q-142.65 41.7 -142.85 39.55 -143.3 34.8 -133.5 38.1 -123.85 41.35 -121.2 45.9 -122.4 40.2 -120.15 39.75 -117.85 39.25 -115.85 44.55 -114.8 47.3 -113.25 53.75" fill="#f5dab8" fill-rule="evenodd" stroke="none"/>
    <path d="M-55.45 89.55 L-52.0 123.4 -64.85 112.9 Q-80.25 100.65 -92.75 91.75 -103.2 83.0 -113.0 72.0 L-120.7 62.75 -113.25 53.75 -103.6 61.6 -87.75 73.75 Q-79.0 78.9 -66.35 84.75 -60.0 87.65 -55.45 89.55" fill="#edecdb" fill-rule="evenodd" stroke="none"/>
    <path d="M128.95 38.1 Q138.75 34.8 138.3 39.55 138.1 41.7 131.9 47.4 L115.85 62.4 108.75 53.75 Q110.05 47.8 111.3 44.55 113.35 39.25 115.6 39.75 117.9 40.2 116.65 45.9 119.35 41.35 128.95 38.1" fill="#f5dab8" fill-rule="evenodd" stroke="none"/>
    <path d="M116.15 62.75 L108.5 72.0 Q98.7 83.0 88.25 91.75 75.75 100.65 60.4 112.9 L47.5 123.4 50.9 89.55 61.85 84.75 Q74.5 78.9 83.25 73.75 91.5 68.0 108.75 53.75 L116.15 62.75" fill="#edecdb" fill-rule="evenodd" stroke="none"/>
    <path d="M-29.4 19.45 Q-34.65 19.3 -36.7 16.95 -39.0 14.3 -34.6 10.65 -33.9 10.8 -33.3 11.4 -32.6 12.05 -32.45 12.8 -35.55 15.3 -32.2 16.15 L-26.6 16.3 -21.75 15.35 -16.9 14.35 Q-5.65 12.65 2.35 13.1 L11.6 14.15 20.8 15.25 Q26.2 15.65 29.3 15.3 32.05 15.0 32.8 14.4 33.9 13.45 31.9 11.55 32.2 10.05 34.05 9.4 37.3 12.55 36.2 15.05 35.1 17.45 30.7 18.15 L16.45 17.75 2.35 16.1 Q-7.55 15.8 -16.1 17.25 L-22.7 18.65 -29.4 19.45 M-10.75 23.1 Q-10.75 22.15 -7.75 21.45 L-0.5 20.75 6.75 21.45 Q9.75 22.15 9.75 23.1 9.75 24.1 6.75 24.8 L-0.5 25.5 -7.75 24.8 Q-10.75 24.1 -10.75 23.1" fill="#ba926e" fill-rule="evenodd" stroke="none"/>
  </g>
</svg>
