<?xml version="1.0" encoding="UTF-8" standalone="no"?>
<svg xmlns:ffdec="https://www.free-decompiler.com/flash" xmlns:xlink="http://www.w3.org/1999/xlink" ffdec:objectType="shape" height="480.0px" width="640.0px" xmlns="http://www.w3.org/2000/svg">
  <g transform="matrix(1.0, 0.0, 0.0, 1.0, 320.0, 240.0)">
    <path d="M114.7 -202.55 Q107.85 -206.7 103.05 -212.75 97.95 -219.25 96.8 -226.0 95.55 -233.55 99.45 -240.0 L105.9 -240.0 Q101.3 -228.45 109.45 -215.25 116.55 -203.8 128.3 -197.55 121.65 -198.35 114.7 -202.55" fill="url(#gradient0)" fill-rule="evenodd" stroke="none"/>
    <path d="M320.0 -173.0 L320.0 -169.85 Q175.45 -206.8 165.0 -212.65 175.25 -220.0 178.7 -227.95 181.35 -234.0 179.95 -240.0 L182.5 -240.0 Q185.4 -234.5 184.5 -228.7 183.25 -221.15 175.65 -213.65 L320.0 -173.0" fill="url(#gradient1)" fill-rule="evenodd" stroke="none"/>
    <path d="M320.0 -240.0 L320.0 -178.9 188.0 -216.05 Q189.55 -218.95 190.45 -223.45 192.35 -232.35 189.4 -240.0 L320.0 -240.0" fill="url(#gradient2)" fill-rule="evenodd" stroke="none"/>
    <path d="M-262.0 23.45 Q-267.05 10.4 -260.6 2.95 -253.9 -4.75 -234.0 -7.5 -246.75 -3.9 -250.9 3.4 -255.55 11.55 -250.0 24.95 -244.8 37.65 -215.9 57.7 -187.25 77.55 -143.55 98.95 -97.55 121.55 -46.6 139.95 9.3 160.2 61.5 171.85 -1.05 160.55 -62.4 139.15 -115.65 120.6 -162.7 96.4 -203.9 75.15 -231.75 54.25 -257.65 34.8 -262.0 23.45" fill="url(#gradient3)" fill-rule="evenodd" stroke="none"/>
    <path d="M-192.35 91.8 Q-256.35 56.05 -269.0 28.0 -268.25 45.75 -257.1 64.45 -245.45 84.05 -223.55 102.8 -174.5 144.7 -86.0 173.75 3.9 203.25 73.0 203.65 139.55 204.05 190.0 177.5 155.6 193.05 73.0 180.7 3.5 170.3 -67.0 146.55 -135.8 123.4 -192.35 91.8 M176.3 126.4 L175.65 119.6 Q151.2 96.85 105.6 72.85 58.65 48.15 -0.95 27.35 -41.9 13.1 -79.7 3.8 L-168.0 81.1 -173.7 77.8 -97.7 -0.45 Q-125.35 -6.8 -147.2 -10.05 -169.3 -13.4 -190.0 -14.3 L-222.35 5.35 -227.7 0.8 -205.35 -14.3 Q-256.25 -14.7 -267.4 3.5 -274.5 15.1 -262.75 32.0 -251.45 48.35 -224.2 67.45 -196.95 86.5 -158.05 105.3 -117.75 124.8 -70.65 141.25 25.25 174.75 103.3 181.75 140.2 185.05 164.05 180.95 188.7 176.75 195.8 165.15 200.3 157.8 197.45 148.7 194.75 139.85 185.3 129.7 L186.0 136.5 Q193.95 147.05 192.15 155.8 190.6 163.6 181.65 169.05 173.5 174.0 161.05 176.05 149.1 178.05 137.0 176.75 159.25 175.9 172.1 170.75 186.65 164.95 185.8 154.7 185.05 145.45 178.35 136.95 176.85 135.1 167.0 125.4 135.75 94.7 37.25 52.25 6.5 39.0 -27.35 26.1 L-55.0 15.9 -29.4 23.5 Q2.25 33.45 32.35 45.2 128.7 82.7 174.0 123.9 L176.3 126.4 M91.65 -240.0 Q86.7 -229.65 89.8 -219.35 93.15 -208.25 105.15 -200.35 L-222.0 0.4 104.2 -188.25 -91.9 0.85 -153.0 62.2 128.05 -182.1 180.8 130.7 182.2 132.3 144.75 -186.85 320.0 -145.3 320.0 240.0 -320.0 240.0 -320.0 -240.0 91.65 -240.0" fill="url(#gradient4)" fill-rule="evenodd" stroke="none"/>
  </g>
  <defs>
    <linearGradient gradientTransform="matrix(0.0, -0.2929, -0.2929, 0.0, 112.4, 0.0)" gradientUnits="userSpaceOnUse" id="gradient0" spreadMethod="pad" x1="-819.2" x2="819.2">
      <stop offset="0.0" stop-color="#ffffff"/>
      <stop offset="1.0" stop-color="#f0ada2"/>
    </linearGradient>
    <linearGradient gradientTransform="matrix(0.0, -0.2929, -0.2929, 0.0, 242.5, 0.05)" gradientUnits="userSpaceOnUse" id="gradient1" spreadMethod="pad" x1="-819.2" x2="819.2">
      <stop offset="0.0" stop-color="#ffffff"/>
      <stop offset="1.0" stop-color="#f0ada2"/>
    </linearGradient>
    <linearGradient gradientTransform="matrix(0.0, -0.2929, -0.2929, 0.0, 254.0, 0.05)" gradientUnits="userSpaceOnUse" id="gradient2" spreadMethod="pad" x1="-819.2" x2="819.2">
      <stop offset="0.0" stop-color="#ffffff"/>
      <stop offset="1.0" stop-color="#f0ada2"/>
    </linearGradient>
    <linearGradient gradientTransform="matrix(0.0, -0.293, -0.293, 0.0, -101.4, 0.0)" gradientUnits="userSpaceOnUse" id="gradient3" spreadMethod="pad" x1="-819.2" x2="819.2">
      <stop offset="0.0" stop-color="#ffffff"/>
      <stop offset="1.0" stop-color="#f0ada2"/>
    </linearGradient>
    <linearGradient gradientTransform="matrix(0.0, -0.2929, -0.2929, 0.0, 0.0, 0.05)" gradientUnits="userSpaceOnUse" id="gradient4" spreadMethod="pad" x1="-819.2" x2="819.2">
      <stop offset="0.0" stop-color="#ffffff"/>
      <stop offset="1.0" stop-color="#f0ada2"/>
    </linearGradient>
  </defs>
</svg>
