<?xml version="1.0" encoding="UTF-8" standalone="no"?>
<svg xmlns:ffdec="https://www.free-decompiler.com/flash" xmlns:xlink="http://www.w3.org/1999/xlink" ffdec:objectType="shape" height="197.5px" width="468.6px" xmlns="http://www.w3.org/2000/svg">
  <g transform="matrix(1.0, 0.0, 0.0, 1.0, 270.05, 14.3)">
    <path d="M-250.0 24.95 Q-255.55 11.55 -250.9 3.4 -246.75 -3.9 -234.0 -7.5 -253.9 -4.75 -260.6 2.95 -267.05 10.4 -262.0 23.45 -257.65 34.8 -231.75 54.25 -203.9 75.15 -162.7 96.4 -115.65 120.6 -62.4 139.15 -1.05 160.55 61.5 171.85 9.3 160.2 -46.6 139.95 -97.55 121.55 -143.55 98.95 -187.25 77.55 -215.9 57.7 -244.8 37.65 -250.0 24.95 M192.15 155.8 Q193.95 147.05 186.0 136.5 L185.3 129.7 Q194.75 139.85 197.45 148.7 200.3 157.8 195.8 165.15 188.7 176.75 164.05 180.95 140.2 185.05 103.3 181.75 25.25 174.75 -70.65 141.25 -117.75 124.8 -158.05 105.3 -196.95 86.5 -224.2 67.45 -251.45 48.35 -262.75 32.0 -274.5 15.1 -267.4 3.5 -256.25 -14.7 -205.35 -14.3 L-227.7 0.8 -222.35 5.35 -190.0 -14.3 Q-169.3 -13.4 -147.2 -10.05 -125.35 -6.8 -97.7 -0.45 L-173.7 77.8 -168.0 81.1 -79.7 3.8 Q-41.9 13.1 -0.95 27.35 58.65 48.15 105.6 72.85 151.2 96.85 175.65 119.6 L176.3 126.4 174.0 123.9 Q128.7 82.7 32.35 45.2 2.25 33.45 -29.4 23.5 L-55.0 15.9 -27.35 26.1 Q6.5 39.0 37.25 52.25 135.75 94.7 167.0 125.4 176.85 135.1 178.35 136.95 185.05 145.45 185.8 154.7 186.65 164.95 172.1 170.75 159.25 175.9 137.0 176.75 149.1 178.05 161.05 176.05 173.5 174.0 181.65 169.05 190.6 163.6 192.15 155.8" fill="url(#gradient0)" fill-rule="evenodd" stroke="none"/>
  </g>
  <defs>
    <linearGradient gradientTransform="matrix(0.0, -0.2929, -0.2929, 0.0, -35.75, 0.05)" gradientUnits="userSpaceOnUse" id="gradient0" spreadMethod="pad" x1="-819.2" x2="819.2">
      <stop offset="0.0" stop-color="#ffffff"/>
      <stop offset="1.0" stop-color="#f0ada2"/>
    </linearGradient>
  </defs>
</svg>
