<?xml version="1.0" encoding="UTF-8" standalone="no"?>
<svg xmlns:ffdec="https://www.free-decompiler.com/flash" xmlns:xlink="http://www.w3.org/1999/xlink" ffdec:objectType="shape" height="197.5px" width="468.6px" xmlns="http://www.w3.org/2000/svg">
  <g transform="matrix(1.0, 0.0, 0.0, 1.0, 0.0, 0.0)">
    <path d="M20.05 39.25 Q14.5 25.85 19.15 17.7 23.3 10.4 36.05 6.8 16.15 9.55 9.45 17.25 3.0 24.7 8.05 37.75 12.4 49.1 38.3 68.55 66.15 89.45 107.35 110.7 154.4 134.9 207.65 153.45 269.0 174.85 331.55 186.15 279.35 174.5 223.45 154.25 172.5 135.85 126.5 113.25 82.8 91.85 54.15 72.0 25.3 51.95 20.05 39.25 M445.7 133.9 L446.35 140.7 444.05 138.2 Q398.75 97.0 302.4 59.5 254.2 40.75 215.05 30.2 258.05 45.3 307.3 66.55 405.8 109.0 437.05 139.7 446.9 149.4 448.4 151.25 455.1 159.75 455.85 169.0 456.7 179.25 442.15 185.05 429.3 190.2 407.05 191.05 419.15 192.35 431.1 190.35 443.55 188.3 451.7 183.35 460.65 177.9 462.2 170.1 464.0 161.35 456.05 150.8 L455.35 144.0 Q464.8 154.15 467.5 163.0 470.35 172.1 465.85 179.45 458.75 191.05 434.1 195.25 410.25 199.35 373.35 196.05 295.3 189.05 199.4 155.55 152.3 139.1 112.0 119.6 73.1 100.8 45.85 81.75 18.6 62.65 7.3 46.3 -4.45 29.4 2.65 17.8 13.8 -0.4 64.7 0.0 L42.35 15.1 47.7 19.65 80.05 0.0 Q100.75 0.9 122.85 4.25 144.7 7.5 172.35 13.85 L96.35 92.1 102.05 95.4 190.35 18.1 Q228.15 27.4 269.1 41.65 328.7 62.45 375.65 87.15 421.25 111.15 445.7 133.9" fill="#ffffff" fill-rule="evenodd" stroke="none"/>
  </g>
</svg>
