<?xml version="1.0" encoding="UTF-8" standalone="no"?>
<svg xmlns:ffdec="https://www.free-decompiler.com/flash" xmlns:xlink="http://www.w3.org/1999/xlink" ffdec:objectType="shape" height="372.3px" width="542.0px" xmlns="http://www.w3.org/2000/svg">
  <g transform="matrix(1.0, 0.0, 0.0, 1.0, 222.0, 240.0)">
    <path d="M320.0 -169.85 L320.0 -145.3 144.75 -186.85 182.2 132.3 180.8 130.7 128.05 -182.1 -153.0 62.2 -91.9 0.85 104.2 -188.25 -222.0 0.4 105.15 -200.35 Q93.15 -208.25 89.8 -219.35 86.7 -229.65 91.65 -240.0 L99.45 -240.0 Q95.55 -233.55 96.8 -226.0 97.95 -219.25 103.05 -212.75 107.85 -206.7 114.7 -202.55 121.65 -198.35 128.3 -197.55 116.55 -203.8 109.45 -215.25 101.3 -228.45 105.9 -240.0 L179.95 -240.0 Q181.35 -234.0 178.7 -227.95 175.25 -220.0 165.0 -212.65 175.45 -206.8 320.0 -169.85" fill="url(#gradient0)" fill-rule="evenodd" stroke="none"/>
  </g>
  <defs>
    <linearGradient gradientTransform="matrix(0.0, -0.2929, -0.2929, 0.0, 49.0, 0.05)" gradientUnits="userSpaceOnUse" id="gradient0" spreadMethod="pad" x1="-819.2" x2="819.2">
      <stop offset="0.0" stop-color="#ffffff"/>
      <stop offset="1.0" stop-color="#f0ada2"/>
    </linearGradient>
  </defs>
</svg>
