<?xml version="1.0" encoding="UTF-8" standalone="no"?>
<svg xmlns:ffdec="https://www.free-decompiler.com/flash" xmlns:xlink="http://www.w3.org/1999/xlink" ffdec:objectType="shape" height="86.5px" width="80.1px" xmlns="http://www.w3.org/2000/svg">
  <g transform="matrix(1.0, 0.0, 0.0, 1.0, 40.05, 43.25)">
    <path d="M-28.35 28.2 Q-27.25 30.1 -24.55 31.4 -24.1 36.5 -22.9 41.1 L-24.5 41.2 Q-26.65 37.6 -28.35 28.2 M-10.3 30.85 L-6.25 28.2 Q-8.3 37.2 -10.1 40.9 L-11.15 40.85 Q-10.1 35.6 -10.3 30.85 M3.6 36.15 Q6.9 38.2 4.8 41.2 L-7.25 41.25 -7.75 41.2 Q-6.85 39.4 -6.1 36.7 -4.45 35.2 -3.25 35.25 L3.6 36.15 M16.65 5.25 Q18.3 7.2 20.45 7.9 19.05 5.15 19.05 -1.75 19.75 0.3 22.5 3.05 25.25 5.8 25.95 7.9 28.65 5.2 28.0 1.7 L26.1 -4.25 Q26.7 -2.5 28.85 -0.6 29.3 0.3 30.3 1.6 41.4 17.45 36.15 26.8 32.85 32.45 24.1 35.2 L25.95 32.45 Q27.8 28.45 26.35 23.35 25.0 18.25 20.75 14.05 15.1 8.15 13.95 1.2 15.6 4.05 16.65 5.25" fill="#44351d" fill-rule="evenodd" stroke="none"/>
    <path d="M-12.3 19.45 L-12.65 14.25 Q-12.6 11.0 -8.1 6.5 -4.05 2.4 0.15 0.65 L0.25 0.65 Q0.65 3.5 1.95 5.7 3.25 8.05 6.15 10.7 L12.55 20.0 Q15.65 25.6 14.9 31.35 12.9 37.25 7.6 41.1 L4.8 41.2 Q6.9 38.2 3.6 36.15 L7.9 36.75 Q4.45 34.0 2.1 30.1 -0.65 25.4 0.15 21.8 0.6 20.3 1.7 18.7 2.95 17.05 4.6 16.0 1.8 17.35 0.1 19.8 -0.05 16.6 -1.15 11.9 L-3.0 4.05 -3.0 3.05 -3.15 3.25 Q-3.2 14.85 -6.25 28.2 L-10.3 30.85 Q-10.5 25.2 -12.3 19.45 M-1.55 -19.45 L-0.4 -18.0 Q0.6 -15.0 0.1 -11.7 -0.45 -8.35 -2.15 -5.9 -6.35 -8.65 -10.9 -8.35 -15.55 -8.1 -15.75 -4.65 -16.35 -5.75 -18.7 -6.05 -21.1 -6.3 -21.95 -5.35 -22.7 -10.6 -29.2 -8.95 -35.45 -7.4 -37.5 -3.05 L-38.0 -3.05 Q-36.7 -11.2 -35.8 -15.2 -35.25 -17.95 -31.25 -21.8 -25.65 -27.1 -19.25 -30.7 -16.65 -32.2 -15.95 -32.2 -15.45 -32.2 -13.25 -30.55 -6.7 -25.6 -1.55 -19.45" fill="#dcaa55" fill-rule="evenodd" stroke="none"/>
    <path d="M11.45 15.2 L12.3 15.6 13.95 16.65 Q18.3 20.0 18.15 27.35 18.0 33.3 16.0 36.35 14.15 39.05 12.55 40.0 10.85 41.05 7.6 41.1 12.9 37.25 14.9 31.35 15.65 25.6 12.55 20.0 L6.15 10.7 11.45 15.2 M-1.15 11.9 Q-0.05 16.6 0.1 19.8 L-0.85 21.55 Q-2.3 25.05 -0.6 29.2 L-4.15 28.35 Q-2.25 16.85 -3.0 4.05 L-1.15 11.9 M-30.95 5.0 L-30.1 8.35 Q-29.6 16.8 -24.65 22.1 -25.1 26.35 -24.55 31.4 -27.25 30.1 -28.35 28.2 -30.35 17.2 -30.95 5.0 M0.1 -11.7 Q0.6 -15.0 -0.4 -18.0 2.3 -14.5 2.6 -12.5 3.4 -7.6 3.75 0.1 L2.4 -0.5 Q1.2 -3.7 -2.15 -5.9 -0.45 -8.35 0.1 -11.7" fill="#bd8c42" fill-rule="evenodd" stroke="none"/>
    <path d="M2.4 -0.5 L2.6 -0.05 0.15 0.65 Q-3.95 2.4 -8.05 6.45 -12.45 10.85 -12.65 14.1 -12.45 6.8 -9.7 1.85 -6.35 -4.05 -0.4 -4.5 1.6 -2.65 2.4 -0.5 M-37.25 -3.6 Q-35.4 -5.2 -33.4 -5.0 -31.45 -4.8 -30.55 -3.15 -29.4 -0.15 -29.25 4.1 -29.1 6.45 -29.1 11.25 -25.05 16.6 -21.8 18.7 -16.85 21.95 -12.3 19.55 L-11.6 23.95 Q-11.4 26.0 -11.75 26.85 -24.5 24.7 -29.25 11.05 L-30.1 8.35 -30.95 5.0 -31.85 1.2 -32.75 -1.15 Q-34.35 -2.95 -36.0 -2.7 -37.45 -2.15 -37.8 -2.3 L-37.5 -3.05 -37.25 -3.6 M-25.05 -30.7 Q-24.45 -28.8 -24.35 -27.45 L-29.75 -23.25 Q-31.85 -26.25 -32.7 -30.2 -33.3 -33.3 -33.3 -37.85 -30.7 -38.55 -28.1 -35.55 -26.75 -33.95 -25.05 -30.7 M-6.8 -35.8 Q-3.7 -38.5 -0.05 -39.65 1.35 -35.25 -0.45 -31.2 -2.4 -26.7 -7.25 -25.45 L-12.3 -29.8 Q-9.35 -33.65 -6.8 -35.8" fill="#ddcdb5" fill-rule="evenodd" stroke="none"/>
    <path d="M-18.7 -6.05 Q-16.35 -5.75 -15.75 -4.65 -15.55 -8.6 -9.95 -8.45 -4.45 -8.3 -0.4 -4.5 -6.35 -4.05 -9.7 1.85 -12.45 6.8 -12.65 14.1 L-12.65 14.7 -12.3 19.45 -12.3 19.55 Q-16.85 21.95 -21.8 18.7 -25.05 16.6 -29.1 11.25 -29.1 6.45 -29.25 4.1 -29.4 -0.15 -30.55 -3.15 -31.45 -4.8 -33.4 -5.0 -35.4 -5.2 -37.25 -3.6 -34.7 -7.75 -28.85 -9.0 -22.65 -10.35 -21.95 -5.35 -21.1 -6.3 -18.7 -6.05 M-24.35 -27.45 Q-24.45 -28.8 -25.05 -30.7 -26.75 -33.95 -28.1 -35.55 -30.7 -38.55 -33.3 -37.85 -33.3 -33.3 -32.7 -30.2 -31.85 -26.25 -29.75 -23.25 L-31.25 -21.8 -31.95 -23.95 Q-34.7 -32.55 -34.55 -37.4 -34.55 -38.9 -34.2 -39.6 -33.4 -41.6 -29.1 -39.4 -24.75 -37.1 -20.65 -32.35 L-19.25 -30.7 Q-21.9 -29.2 -24.35 -27.45 M2.85 -39.65 Q3.6 -37.65 2.6 -32.35 1.55 -27.4 -0.65 -21.6 L-1.55 -19.45 -7.25 -25.45 Q-2.4 -26.7 -0.45 -31.2 1.35 -35.25 -0.05 -39.65 -3.7 -38.5 -6.8 -35.8 -9.35 -33.65 -12.3 -29.8 L-13.25 -30.55 -11.9 -32.2 Q-9.05 -35.4 -5.75 -37.65 -2.65 -39.8 -0.25 -40.4 2.25 -41.05 2.85 -39.65 M20.45 7.9 Q18.3 7.2 16.65 5.25 15.6 4.05 13.95 1.2 13.25 -2.45 14.0 -6.5 16.15 -16.45 25.95 -23.35 21.6 -12.25 28.85 -0.6 26.7 -2.5 26.1 -4.25 L28.0 1.7 Q28.65 5.2 25.95 7.9 25.25 5.8 22.5 3.05 19.75 0.3 19.05 -1.75 19.05 5.15 20.45 7.9" fill="#faebd4" fill-rule="evenodd" stroke="none"/>
    <path d="M-22.9 -6.15 Q-22.2 -8.6 -19.05 -8.35 -15.9 -8.25 -14.7 -5.9 -14.3 -5.15 -16.35 -3.95 -17.45 -3.35 -19.75 -2.25 L-22.0 -4.4 Q-23.1 -5.4 -22.9 -6.15 M2.6 -32.35 Q3.6 -37.65 2.85 -39.65 2.05 -41.85 -2.7 -39.55 -7.55 -37.1 -11.9 -32.2 L-13.25 -30.55 Q-15.45 -32.2 -15.95 -32.2 -16.65 -32.2 -19.25 -30.7 L-20.65 -32.35 Q-24.75 -37.1 -29.1 -39.4 -33.4 -41.6 -34.2 -39.6 -34.95 -37.85 -34.3 -33.45 -33.6 -29.35 -31.95 -23.95 L-31.25 -21.8 Q-35.25 -17.95 -35.8 -15.2 -36.7 -11.2 -38.0 -3.05 L-32.4 -2.6 Q-31.1 -1.95 -30.65 0.4 L-31.05 0.05 Q-31.2 8.95 -29.4 21.75 -27.3 36.35 -24.5 41.2 L-22.9 41.1 Q-25.55 30.75 -24.65 22.1 -30.85 15.4 -30.1 4.4 L-29.95 5.7 -29.85 5.8 -29.85 5.95 -29.6 7.6 -29.6 7.7 -29.25 9.35 -27.95 13.25 -26.0 16.9 -25.55 17.6 -24.45 19.0 Q-19.4 24.55 -11.75 26.85 -11.75 22.9 -12.3 19.35 -8.9 30.0 -11.15 40.85 L-10.1 40.9 Q-8.05 36.55 -5.9 26.65 -3.2 14.3 -3.15 3.25 L-3.0 3.05 Q-2.15 15.95 -4.15 28.35 L-0.6 29.2 Q-2.3 25.05 -0.85 21.55 0.6 17.8 4.6 16.0 2.95 17.05 1.7 18.7 0.6 20.3 0.15 21.8 -0.65 25.4 2.1 30.1 4.45 34.0 7.9 36.75 L-3.25 35.25 Q-4.45 35.2 -6.1 36.7 -6.85 39.4 -7.75 41.2 L-7.25 41.25 7.55 41.1 Q10.85 41.05 12.55 40.0 14.15 39.05 16.0 36.35 18.0 33.3 18.15 27.35 18.3 20.0 13.95 16.65 L12.3 15.6 11.45 15.2 Q5.5 10.6 3.15 7.5 0.8 4.4 0.25 0.65 L-2.05 0.3 Q-3.7 0.3 -5.55 1.15 -4.15 -1.05 -1.95 -1.35 0.3 -1.55 3.75 0.1 3.4 -7.6 2.6 -12.5 2.15 -15.15 -1.55 -19.45 L-0.65 -21.6 Q1.55 -27.4 2.6 -32.35 M24.1 24.85 Q24.3 20.7 19.2 15.45 8.3 4.4 12.45 -9.15 16.45 -22.15 31.45 -28.8 26.2 -21.35 26.55 -13.9 26.9 -7.0 32.15 0.5 45.05 18.9 36.9 29.55 30.9 37.25 16.85 38.75 15.1 41.0 13.2 41.95 11.15 42.95 7.6 43.1 L-7.25 43.25 -19.0 43.05 Q-19.45 41.4 -18.8 39.1 -18.25 37.25 -17.45 36.45 -16.7 35.45 -14.85 35.4 L-12.25 35.45 -11.75 29.05 Q-19.0 27.2 -23.4 23.25 -23.45 27.9 -22.15 34.3 L-20.15 43.1 -25.65 43.25 Q-29.1 38.9 -31.5 22.7 -33.5 8.65 -33.25 -0.8 L-36.2 -1.05 -38.0 -1.0 Q-38.9 -1.0 -39.5 -1.7 -40.15 -2.3 -40.0 -3.4 L-37.85 -15.6 Q-37.15 -18.8 -33.25 -22.7 -35.2 -28.65 -35.85 -33.8 -36.5 -38.65 -35.45 -41.1 -34.65 -43.1 -32.65 -43.1 -30.2 -43.1 -26.3 -40.35 -22.2 -37.55 -18.8 -33.3 -16.85 -34.3 -15.95 -34.3 -15.2 -34.3 -13.6 -33.3 -10.1 -37.6 -5.8 -40.4 -1.7 -43.25 1.05 -43.25 3.25 -43.25 4.1 -41.05 5.15 -38.65 4.35 -33.75 3.35 -27.45 0.5 -20.15 4.15 -15.6 4.65 -12.85 5.5 -7.7 5.8 0.05 5.95 1.2 4.8 1.9 L3.75 2.15 2.65 1.85 2.05 1.5 Q2.6 4.5 5.55 7.55 7.8 9.9 14.9 15.15 18.9 18.85 19.95 23.4 20.7 26.8 19.95 31.95 23.85 28.1 24.1 24.85 M30.3 1.6 Q21.25 -11.25 25.95 -23.35 16.15 -16.45 14.0 -6.5 12.9 -1.05 14.65 4.25 16.45 9.55 20.75 14.05 25.0 18.25 26.35 23.35 27.8 28.45 25.95 32.45 L24.1 35.2 Q32.85 32.45 36.15 26.8 41.4 17.45 30.3 1.6" fill="#855e29" fill-rule="evenodd" stroke="none"/>
    <path d="M-5.75 -16.25 Q-4.85 -16.25 -4.7 -15.25 -4.7 -14.3 -5.7 -14.3 -6.1 -14.25 -6.35 -14.5 -6.7 -14.8 -6.7 -15.2 -6.7 -16.25 -5.75 -16.25" fill="#ffffff" fill-rule="evenodd" stroke="none"/>
    <path d="M-26.0 -16.15 Q-25.05 -16.15 -25.05 -15.2 -25.05 -14.15 -26.0 -14.15 -26.45 -14.15 -26.7 -14.45 L-27.05 -15.2 Q-27.05 -16.15 -26.0 -16.15" fill="#ffffff" fill-rule="evenodd" stroke="none"/>
    <path d="M-27.3 -10.9 Q-28.85 -10.6 -30.15 -11.5 -31.45 -12.35 -31.75 -13.95 -32.1 -15.55 -31.2 -16.7 L-24.7 -16.6 -24.3 -15.35 Q-23.95 -13.75 -24.85 -12.5 -25.75 -11.2 -27.3 -10.9 M-27.05 -15.2 L-26.7 -14.45 Q-26.45 -14.15 -26.0 -14.15 -25.05 -14.15 -25.05 -15.2 -25.05 -16.15 -26.0 -16.15 -27.05 -16.15 -27.05 -15.2" fill="#3f3c3d" fill-rule="evenodd" stroke="none"/>
    <path d="M-11.4 -13.8 Q-11.7 -15.25 -10.9 -16.6 L-4.5 -16.7 -3.95 -15.45 Q-3.6 -13.9 -4.45 -12.6 -5.35 -11.25 -6.85 -10.9 -8.35 -10.6 -9.75 -11.5 -11.05 -12.3 -11.4 -13.8 M-6.35 -14.5 Q-6.1 -14.25 -5.7 -14.3 -4.7 -14.3 -4.7 -15.25 -4.85 -16.25 -5.75 -16.25 -6.7 -16.25 -6.7 -15.2 -6.7 -14.8 -6.35 -14.5" fill="#3f3c3d" fill-rule="evenodd" stroke="none"/>
  </g>
</svg>
