<?xml version="1.0" encoding="UTF-8" standalone="no"?>
<svg xmlns:ffdec="https://www.free-decompiler.com/flash" xmlns:xlink="http://www.w3.org/1999/xlink" ffdec:objectType="shape" height="896.1px" width="964.2px" xmlns="http://www.w3.org/2000/svg">
  <g transform="matrix(1.0, 0.0, 0.0, 1.0, 320.0, 656.1)">
    <path d="M-320.0 -240.0 L320.0 -240.0 320.0 240.0 -320.0 240.0 -320.0 -240.0" fill="url(#gradient0)" fill-rule="evenodd" stroke="none"/>
    <path d="M-117.8 -114.0 Q-128.25 -104.1 -150.5 -79.5 -178.8 -48.25 -202.3 -18.85 -270.9 66.9 -265.8 95.0 -261.2 120.25 -221.0 111.85 -186.5 104.65 -128.0 73.35 -79.05 47.15 -19.7 7.65 30.4 -25.65 71.2 -57.0 27.1 -26.25 -27.85 4.9 -81.65 35.4 -130.8 57.7 -181.95 81.0 -213.95 88.95 -248.85 97.6 -253.8 86.0 -262.55 65.4 -191.05 -26.35 -168.7 -55.05 -141.0 -87.4 L-117.8 -114.0 M138.45 -51.95 Q202.8 -96.4 252.2 -138.0 302.6 -180.35 346.8 -221.05 389.2 -260.05 428.95 -300.3 436.5 -238.25 426.2 -178.0 419.75 -140.2 404.2 -102.25 388.65 -64.4 366.15 -31.55 342.95 2.3 315.35 26.45 286.25 51.95 255.2 64.0 270.0 62.6 293.65 50.2 323.0 34.8 349.2 9.75 381.8 -21.4 404.0 -62.55 430.45 -111.7 440.2 -172.0 451.55 -241.75 439.25 -310.75 L447.2 -319.0 Q456.45 -281.55 456.1 -235.55 455.75 -187.25 444.7 -140.1 432.75 -88.85 409.8 -46.85 384.5 -0.55 348.15 30.05 311.5 60.9 265.4 74.5 222.8 87.05 177.35 83.55 134.1 80.25 96.0 63.1 58.0 46.05 33.2 19.0 101.9 -26.7 138.45 -51.95 M366.65 -494.8 Q384.45 -472.9 399.0 -448.1 L401.2 -444.25 394.4 -437.5 Q378.25 -466.85 358.65 -491.25 340.95 -513.3 323.2 -528.0 363.6 -486.7 390.0 -433.15 349.95 -393.85 300.25 -349.05 248.95 -302.75 192.45 -255.2 129.65 -202.35 70.55 -156.4 13.3 -111.95 -33.35 -79.45 -48.05 -109.35 -58.6 -149.75 -68.25 -186.55 -73.3 -227.35 -78.05 -265.65 -77.85 -299.85 -77.7 -333.7 -72.8 -355.0 -52.3 -443.5 -3.9 -504.75 14.55 -528.1 35.35 -545.1 52.25 -558.95 67.2 -566.0 50.85 -561.9 31.1 -548.1 8.7 -532.5 -11.65 -508.5 -62.95 -448.1 -83.8 -358.0 -99.55 -289.85 -80.6 -202.5 -72.8 -166.55 -60.0 -132.5 -48.35 -101.45 -35.05 -78.3 L-43.55 -72.4 -44.85 -74.55 Q-59.05 -98.9 -69.75 -125.1 -77.5 -144.05 -83.25 -163.4 -98.8 -215.8 -100.45 -270.7 -102.05 -324.85 -89.95 -375.9 -77.75 -427.5 -52.8 -470.55 -27.0 -515.1 10.1 -546.3 47.15 -577.5 90.85 -591.5 133.1 -605.0 177.7 -601.3 221.85 -597.6 263.75 -577.45 306.25 -557.0 342.1 -521.75 354.85 -509.2 366.65 -494.8 M504.6 -609.25 Q603.95 -658.6 615.2 -642.0 622.25 -631.6 596.05 -586.1 570.2 -541.25 521.35 -478.5 469.4 -411.8 407.8 -346.1 356.3 -291.25 305.95 -245.35 358.0 -291.0 410.3 -343.9 476.4 -410.75 528.85 -474.25 581.55 -538.15 607.05 -582.45 634.05 -629.45 624.2 -644.0 609.15 -666.3 511.4 -616.45 479.15 -599.95 438.0 -575.65 L406.3 -556.3 Q457.9 -586.05 504.6 -609.25 M600.8 -655.7 Q625.7 -658.15 633.2 -645.35 648.2 -619.75 595.35 -542.85 544.05 -468.1 443.2 -365.55 L421.45 -343.7 Q334.35 -257.2 231.75 -170.95 114.4 -72.1 4.75 3.1 -109.05 81.05 -184.4 113.05 -221.95 129.0 -245.3 131.1 -269.4 133.25 -276.85 120.55 -291.8 95.05 -239.25 18.45 -188.2 -56.0 -87.8 -158.25 -81.9 -138.3 -74.0 -119.0 -117.35 -75.05 -138.95 -47.05 -161.3 -18.15 -156.9 -10.7 -152.6 -3.4 -123.3 -18.1 -94.9 -32.35 -47.15 -65.1 -43.35 -67.65 -33.05 -74.85 L-31.6 -75.9 Q15.7 -109.1 72.85 -153.55 132.0 -199.65 194.5 -252.25 250.55 -299.45 301.7 -345.5 351.25 -390.1 391.7 -429.55 L408.2 -445.8 Q457.35 -494.75 482.25 -526.05 508.05 -558.45 503.35 -566.4 498.55 -574.55 461.9 -555.25 426.0 -536.3 369.8 -496.55 358.0 -511.1 344.7 -524.15 459.8 -603.45 537.95 -636.8 576.65 -653.3 600.8 -655.7 M643.2 -605.25 L644.2 -596.0 Q643.35 -586.2 629.7 -561.25 615.0 -534.35 590.05 -498.65 528.1 -410.05 438.3 -315.75 L428.35 -305.3 Q351.7 -226.0 267.2 -156.0 188.35 -90.55 98.65 -27.9 15.8 29.95 -61.45 75.2 -136.15 118.95 -186.7 139.95 -238.6 161.5 -250.8 153.0 L-261.8 139.75 -266.8 134.0 Q-251.15 139.5 -221.55 131.0 -193.2 122.85 -154.5 102.6 -50.2 47.9 64.45 -35.4 154.5 -100.85 260.2 -191.0 349.15 -266.75 422.5 -339.0 L430.95 -347.35 Q534.7 -450.55 591.35 -530.95 616.05 -566.05 628.4 -592.35 640.1 -617.25 639.2 -631.0 641.7 -617.25 643.2 -605.25" fill="#ffffff" fill-opacity="0.5019608" fill-rule="evenodd" stroke="none"/>
  </g>
  <defs>
    <linearGradient gradientTransform="matrix(0.0, -0.293, -0.293, 0.0, 0.0, 0.0)" gradientUnits="userSpaceOnUse" id="gradient0" spreadMethod="pad" x1="-819.2" x2="819.2">
      <stop offset="0.0" stop-color="#ffffff"/>
      <stop offset="1.0" stop-color="#9abae2"/>
    </linearGradient>
  </defs>
</svg>
