<?xml version="1.0" encoding="UTF-8" standalone="no"?>
<svg xmlns:ffdec="https://www.free-decompiler.com/flash" xmlns:xlink="http://www.w3.org/1999/xlink" ffdec:objectType="shape" height="58.9px" width="64.1px" xmlns="http://www.w3.org/2000/svg">
  <g transform="matrix(1.0, 0.0, 0.0, 1.0, 32.05, 29.45)">
    <path d="M26.6 -23.0 Q23.0 -24.05 14.1 -24.85 L-6.7 -25.8 Q-20.6 -25.8 -25.5 -24.3 -26.15 -21.8 -26.6 -16.1 -27.15 -9.55 -27.1 -2.05 -27.05 6.8 -26.25 13.2 -25.6 18.4 -24.7 20.25 -21.6 21.3 -12.2 22.15 L8.6 23.15 21.75 22.25 Q22.8 20.45 23.95 15.15 25.35 8.6 26.15 -0.4 26.85 -8.0 26.9 -14.6 27.0 -20.25 26.6 -23.0 M20.4 -27.8 Q29.55 -26.6 30.65 -25.1 33.25 -21.6 31.05 1.75 28.75 25.65 24.4 27.85 19.9 30.1 -1.55 29.15 -22.65 28.15 -27.5 25.75 -31.8 23.6 -32.05 0.6 -32.25 -21.65 -29.55 -26.15 -27.15 -30.2 0.65 -29.3 L20.4 -27.8" fill="#036b47" fill-rule="evenodd" stroke="none"/>
    <path d="M26.6 -23.0 Q27.0 -20.25 26.9 -14.6 26.85 -8.0 26.15 -0.4 25.35 8.6 23.95 15.15 22.8 20.45 21.75 22.25 L8.6 23.15 -12.2 22.15 Q-21.6 21.3 -24.7 20.25 -25.6 18.4 -26.25 13.2 -27.05 6.8 -27.1 -2.05 -27.15 -9.55 -26.6 -16.1 -26.15 -21.8 -25.5 -24.3 -20.6 -25.8 -6.7 -25.8 L14.1 -24.85 Q23.0 -24.05 26.6 -23.0" fill="#3db24a" fill-rule="evenodd" stroke="none"/>
    <path d="M17.25 -15.95 Q20.55 -13.85 20.55 -11.65 20.55 -9.2 11.05 4.7 1.4 18.75 -0.75 18.75 -3.25 18.75 -12.5 11.7 -22.0 4.45 -22.0 1.75 -22.0 -0.65 -20.1 -3.05 -18.1 -5.55 -15.9 -5.55 -14.4 -5.55 -10.45 -1.9 -6.5 1.75 -5.0 1.75 -3.45 1.75 3.2 -7.85 9.95 -17.55 11.4 -17.7 14.05 -18.0 17.25 -15.95" fill="#ffffff" fill-rule="evenodd" stroke="none"/>
  </g>
</svg>
