<?xml version="1.0" encoding="UTF-8" standalone="no"?>
<svg xmlns:ffdec="https://www.free-decompiler.com/flash" xmlns:xlink="http://www.w3.org/1999/xlink" ffdec:objectType="shape" height="46.0px" width="158.0px" xmlns="http://www.w3.org/2000/svg">
  <g transform="matrix(1.0, 0.0, 0.0, 1.0, 75.5, 22.5)">
    <path d="M72.0 -22.0 Q78.3 -22.0 80.65 -18.0 82.0 -15.7 82.0 -12.0 L82.0 13.0 Q82.0 23.0 72.0 23.0 L-65.0 23.0 Q-75.0 23.0 -75.0 13.0 L-75.0 -12.0 Q-75.0 -15.7 -73.65 -18.0 -71.3 -22.0 -65.0 -22.0 L72.0 -22.0" fill="#c9c9d7" fill-rule="evenodd" stroke="none"/>
    <path d="M72.0 -22.0 L-65.0 -22.0 Q-71.3 -22.0 -73.65 -18.0 -75.0 -15.7 -75.0 -12.0 L-75.0 13.0 Q-75.0 23.0 -65.0 23.0 L72.0 23.0 Q82.0 23.0 82.0 13.0 L82.0 -12.0 Q82.0 -15.7 80.65 -18.0 78.3 -22.0 72.0 -22.0 Z" fill="none" stroke="#000000" stroke-linecap="round" stroke-linejoin="round" stroke-opacity="0.49803922" stroke-width="1.0"/>
  </g>
</svg>
