<?xml version="1.0" encoding="UTF-8" standalone="no"?>
<svg xmlns:ffdec="https://www.free-decompiler.com/flash" xmlns:xlink="http://www.w3.org/1999/xlink" ffdec:objectType="shape" height="58.9px" width="64.1px" xmlns="http://www.w3.org/2000/svg">
  <g transform="matrix(1.0, 0.0, 0.0, 1.0, 32.05, 29.45)">
    <path d="M-26.65 -16.1 Q-26.2 -21.8 -25.55 -24.25 -20.8 -25.8 -6.75 -25.8 L14.05 -24.85 Q23.0 -24.05 26.55 -23.0 26.95 -20.3 26.9 -14.55 26.85 -8.0 26.15 -0.4 25.3 8.65 23.9 15.15 22.8 20.45 21.75 22.3 L8.55 23.15 -12.2 22.2 Q-21.6 21.3 -24.75 20.3 -25.65 18.4 -26.3 13.2 -27.1 6.8 -27.15 -2.05 -27.2 -9.55 -26.65 -16.1" fill="#ffff4d" fill-rule="evenodd" stroke="none"/>
    <path d="M-26.65 -16.1 Q-27.2 -9.55 -27.15 -2.05 -27.1 6.8 -26.3 13.2 -25.65 18.4 -24.75 20.3 -21.6 21.3 -12.2 22.2 L8.55 23.15 21.75 22.3 Q22.8 20.45 23.9 15.15 25.3 8.65 26.15 -0.4 26.85 -8.0 26.9 -14.55 26.95 -20.3 26.55 -23.0 23.0 -24.05 14.05 -24.85 L-6.75 -25.8 Q-20.8 -25.8 -25.55 -24.25 -26.2 -21.8 -26.65 -16.1 M0.6 -29.3 L20.35 -27.8 Q29.5 -26.6 30.6 -25.1 33.25 -21.65 31.0 1.75 28.75 25.7 24.4 27.85 19.85 30.1 -1.55 29.15 -22.7 28.2 -27.5 25.75 -31.8 23.6 -32.05 0.6 -32.3 -21.6 -29.6 -26.15 -27.2 -30.2 0.6 -29.3" fill="#e6b700" fill-rule="evenodd" stroke="none"/>
  </g>
</svg>
