<?xml version="1.0" encoding="UTF-8" standalone="no"?>
<svg xmlns:ffdec="https://www.free-decompiler.com/flash" xmlns:xlink="http://www.w3.org/1999/xlink" ffdec:objectType="shape" height="34.0px" width="202.05px" xmlns="http://www.w3.org/2000/svg">
  <g transform="matrix(1.0, 0.0, 0.0, 1.0, 101.05, 17.0)">
    <path d="M101.0 0.0 Q101.0 7.05 96.0 12.05 91.05 17.0 84.0 17.0 76.95 17.0 71.95 12.05 67.0 7.05 67.0 0.0 67.0 -7.05 71.95 -12.0 76.95 -17.0 84.0 -17.0 91.05 -17.0 96.0 -12.0 101.0 -7.05 101.0 0.0" fill="#ffffff" fill-rule="evenodd" stroke="none"/>
    <path d="M-67.05 0.0 Q-67.05 7.05 -72.0 12.05 -77.0 17.0 -84.05 17.0 -91.1 17.0 -96.05 12.05 -101.05 7.05 -101.05 0.0 -101.05 -7.05 -96.05 -12.0 -91.1 -17.0 -84.05 -17.0 -77.0 -17.0 -72.0 -12.0 -67.05 -7.05 -67.05 0.0" fill="#ffffff" fill-rule="evenodd" stroke="none"/>
    <path d="M84.0 -17.0 L84.0 17.0 -84.05 17.0 -84.05 -17.0 84.0 -17.0" fill="#ffffff" fill-rule="evenodd" stroke="none"/>
    <path d="M-50.05 9.1 L-55.75 8.9 -55.45 -3.55 -60.0 -2.95 -60.6 8.85 -63.25 8.9 -63.75 -3.4 -67.55 -3.1 -67.45 8.8 -69.9 8.9 -70.95 -8.85 Q-67.9 -9.1 -66.95 -7.0 -66.5 -9.25 -63.6 -9.55 L-54.8 -9.75 Q-50.3 -9.3 -50.25 -3.75 L-50.05 9.1" fill="#281905" fill-rule="evenodd" stroke="none"/>
    <path d="M-50.05 9.1 L-55.75 8.9 -55.45 -3.55 -60.0 -2.95 -60.6 8.85 -63.25 8.9 -63.75 -3.4 -67.55 -3.1 -67.45 8.8 -69.9 8.9 -70.95 -8.85 Q-67.9 -9.1 -66.95 -7.0 -66.5 -9.25 -63.6 -9.55 L-54.8 -9.75 Q-50.3 -9.3 -50.25 -3.75 L-50.05 9.1 Z" fill="none" stroke="#281905" stroke-linecap="round" stroke-linejoin="round" stroke-width="7.0"/>
    <path d="M-45.65 8.55 L-48.25 9.1 -48.4 -9.45 -44.0 -9.15 -45.65 8.55" fill="#281905" fill-rule="evenodd" stroke="none"/>
    <path d="M-45.65 8.55 L-48.25 9.1 -48.4 -9.45 -44.0 -9.15 -45.65 8.55 Z" fill="none" stroke="#281905" stroke-linecap="round" stroke-linejoin="round" stroke-width="7.0"/>
    <path d="M-27.05 8.6 L-30.65 8.7 -30.05 -2.7 -37.7 -2.7 -38.45 9.0 -42.25 8.7 -43.3 -10.05 Q-39.8 -9.1 -39.15 -7.15 -37.75 -9.35 -36.0 -9.25 L-31.25 -9.3 Q-26.3 -9.15 -26.35 -4.05 L-27.05 8.6" fill="#281905" fill-rule="evenodd" stroke="none"/>
    <path d="M-27.05 8.6 L-30.65 8.7 -30.05 -2.7 -37.7 -2.7 -38.45 9.0 -42.25 8.7 -43.3 -10.05 Q-39.8 -9.1 -39.15 -7.15 -37.75 -9.35 -36.0 -9.25 L-31.25 -9.3 Q-26.3 -9.15 -26.35 -4.05 L-27.05 8.6 Z" fill="none" stroke="#281905" stroke-linecap="round" stroke-linejoin="round" stroke-width="7.0"/>
    <path d="M-21.9 8.55 L-24.45 9.1 -24.6 -9.45 -20.2 -9.15 -21.9 8.55" fill="#281905" fill-rule="evenodd" stroke="none"/>
    <path d="M-21.9 8.55 L-24.45 9.1 -24.6 -9.45 -20.2 -9.15 -21.9 8.55 Z" fill="none" stroke="#281905" stroke-linecap="round" stroke-linejoin="round" stroke-width="7.0"/>
    <path d="M-2.8 8.7 L-5.6 9.0 -6.6 6.35 Q-6.7 9.0 -9.95 9.0 L-13.4 8.85 Q-17.5 9.1 -18.15 3.65 L-18.0 -3.65 Q-18.65 -9.55 -13.7 -9.25 L-6.45 -9.45 Q-2.8 -8.95 -1.6 -5.95 L-5.55 -1.5 -6.25 -2.55 -15.5 -2.4 -15.05 4.55 -7.85 4.7 Q-5.85 4.8 -5.85 2.4 L-10.85 2.9 -10.65 -0.3 -1.85 -1.1 -2.8 8.7" fill="#281905" fill-rule="evenodd" stroke="none"/>
    <path d="M-2.8 8.7 L-5.6 9.0 -6.6 6.35 Q-6.7 9.0 -9.95 9.0 L-13.4 8.85 Q-17.5 9.1 -18.15 3.65 L-18.0 -3.65 Q-18.65 -9.55 -13.7 -9.25 L-6.45 -9.45 Q-2.8 -8.95 -1.6 -5.95 L-5.55 -1.5 -6.25 -2.55 -15.5 -2.4 -15.05 4.55 -7.85 4.7 Q-5.85 4.8 -5.85 2.4 L-10.85 2.9 -10.65 -0.3 -1.85 -1.1 -2.8 8.7 Z" fill="none" stroke="#281905" stroke-linecap="round" stroke-linejoin="round" stroke-width="7.0"/>
    <path d="M16.75 -2.35 L16.45 6.3 Q16.3 8.15 17.1 8.5 14.25 8.85 13.4 7.3 12.65 8.9 10.7 9.15 L5.9 8.8 Q0.0 8.35 0.2 3.05 0.55 -0.9 6.3 -1.05 L11.9 -0.85 Q13.2 -0.8 13.8 0.45 14.55 -2.35 12.25 -2.5 L1.25 -1.9 1.35 -8.4 10.5 -8.85 Q16.55 -9.05 16.75 -2.35 M5.25 3.0 Q5.25 4.35 6.45 4.25 L12.9 4.4 Q13.7 4.45 13.65 3.25 13.65 2.05 12.85 1.9 L6.2 1.7 Q5.35 1.7 5.25 3.0" fill="#281905" fill-rule="evenodd" stroke="none"/>
    <path d="M16.75 -2.35 L16.45 6.3 Q16.3 8.15 17.1 8.5 14.25 8.85 13.4 7.3 12.65 8.9 10.7 9.15 L5.9 8.8 Q0.0 8.35 0.2 3.05 0.55 -0.9 6.3 -1.05 L11.9 -0.85 Q13.2 -0.8 13.8 0.45 14.55 -2.35 12.25 -2.5 L1.25 -1.9 1.35 -8.4 10.5 -8.85 Q16.55 -9.05 16.75 -2.35 M5.25 3.0 Q5.25 4.35 6.45 4.25 L12.9 4.4 Q13.7 4.45 13.65 3.25 13.65 2.05 12.85 1.9 L6.2 1.7 Q5.35 1.7 5.25 3.0 Z" fill="none" stroke="#281905" stroke-linecap="round" stroke-linejoin="round" stroke-width="7.0"/>
    <path d="M38.7 -3.75 L38.95 9.1 33.2 8.9 33.5 -3.55 29.0 -2.95 28.35 8.85 25.75 8.9 25.25 -3.4 21.4 -3.1 21.5 8.8 19.05 8.9 18.0 -8.85 Q21.05 -9.1 22.05 -7.0 22.45 -9.25 25.35 -9.55 L34.2 -9.75 Q38.65 -9.3 38.7 -3.75" fill="#281905" fill-rule="evenodd" stroke="none"/>
    <path d="M38.7 -3.75 L38.95 9.1 33.2 8.9 33.5 -3.55 29.0 -2.95 28.35 8.85 25.75 8.9 25.25 -3.4 21.4 -3.1 21.5 8.8 19.05 8.9 18.0 -8.85 Q21.05 -9.1 22.05 -7.0 22.45 -9.25 25.35 -9.55 L34.2 -9.75 Q38.65 -9.3 38.7 -3.75 Z" fill="none" stroke="#281905" stroke-linecap="round" stroke-linejoin="round" stroke-width="7.0"/>
    <path d="M51.7 -9.45 Q57.35 -8.95 57.35 -2.8 57.3 2.55 51.1 2.9 L45.8 2.6 Q45.9 4.65 47.05 4.8 L56.05 4.3 55.65 8.75 47.4 8.6 Q40.95 8.75 41.25 2.7 L40.65 -3.45 Q40.6 -9.3 46.65 -9.3 L51.7 -9.45 M45.05 -2.5 Q43.2 -2.4 43.55 0.05 L51.15 -0.1 Q52.15 0.0 52.1 -1.2 52.1 -2.4 51.2 -2.4 L45.05 -2.5" fill="#281905" fill-rule="evenodd" stroke="none"/>
    <path d="M51.7 -9.45 Q57.35 -8.95 57.35 -2.8 57.3 2.55 51.1 2.9 L45.8 2.6 Q45.9 4.65 47.05 4.8 L56.05 4.3 55.65 8.75 47.4 8.6 Q40.95 8.75 41.25 2.7 L40.65 -3.45 Q40.6 -9.3 46.65 -9.3 L51.7 -9.45 M45.05 -2.5 Q43.2 -2.4 43.55 0.05 L51.15 -0.1 Q52.15 0.0 52.1 -1.2 52.1 -2.4 51.2 -2.4 L45.05 -2.5 Z" fill="none" stroke="#281905" stroke-linecap="round" stroke-linejoin="round" stroke-width="7.0"/>
    <path d="M74.8 5.0 Q74.65 9.05 69.15 9.0 L59.7 9.0 60.1 4.4 70.05 5.1 Q71.25 5.15 71.3 3.85 71.35 2.5 70.0 2.55 L64.8 2.35 Q58.95 2.45 59.25 -3.15 59.75 -8.75 64.65 -9.25 L74.7 -9.85 74.45 -1.75 64.75 -2.55 Q63.75 -2.4 63.7 -1.2 63.7 0.0 64.5 -0.1 L69.9 -0.25 Q74.85 -0.4 74.85 3.9 L74.8 5.0" fill="#281905" fill-rule="evenodd" stroke="none"/>
    <path d="M74.8 5.0 Q74.65 9.05 69.15 9.0 L59.7 9.0 60.1 4.4 70.05 5.1 Q71.25 5.15 71.3 3.85 71.35 2.5 70.0 2.55 L64.8 2.35 Q58.95 2.45 59.25 -3.15 59.75 -8.75 64.65 -9.25 L74.7 -9.85 74.45 -1.75 64.75 -2.55 Q63.75 -2.4 63.7 -1.2 63.7 0.0 64.5 -0.1 L69.9 -0.25 Q74.85 -0.4 74.85 3.9 L74.8 5.0 Z" fill="none" stroke="#281905" stroke-linecap="round" stroke-linejoin="round" stroke-width="7.0"/>
    <path d="M69.9 -0.9 Q74.8 -1.0 74.85 3.25 L74.75 4.35 Q74.6 8.45 69.1 8.35 L59.7 8.35 60.1 3.75 70.0 4.45 Q71.25 4.55 71.3 3.2 71.35 1.85 69.95 1.9 L64.8 1.7 Q58.9 1.8 59.2 -3.8 59.7 -9.4 64.6 -9.9 L74.7 -10.45 74.4 -2.35 64.7 -3.2 Q63.7 -3.05 63.65 -1.85 63.65 -0.65 64.5 -0.75 L69.9 -0.9 M51.7 -10.05 Q57.4 -9.6 57.35 -3.4 57.35 1.95 51.1 2.3 L45.85 1.95 Q45.9 4.0 47.05 4.2 L56.05 3.65 55.7 8.15 47.45 8.0 Q40.95 8.1 41.3 2.1 L40.7 -4.05 Q40.6 -9.95 46.7 -9.9 L51.7 -10.05 M52.1 -1.85 Q52.1 -3.1 51.2 -3.0 L45.05 -3.15 Q43.25 -3.05 43.55 -0.6 L51.2 -0.7 Q52.15 -0.6 52.1 -1.85 M28.95 -3.6 L28.35 8.25 25.7 8.3 25.25 -4.0 21.4 -3.7 21.5 8.2 19.05 8.3 18.0 -9.5 Q21.05 -9.7 22.0 -7.65 22.4 -9.9 25.35 -10.15 L34.15 -10.4 Q38.6 -9.9 38.7 -4.4 L38.9 8.45 33.2 8.3 33.5 -4.2 28.95 -3.6 M13.8 -0.2 Q14.55 -3.0 12.25 -3.15 L1.25 -2.5 1.35 -9.0 10.5 -9.5 Q16.5 -9.7 16.8 -3.0 L16.5 5.65 Q16.3 7.5 17.1 7.85 14.25 8.2 13.45 6.7 12.65 8.3 10.7 8.5 L5.9 8.2 Q0.05 7.7 0.2 2.45 0.5 -1.6 6.3 -1.7 L11.9 -1.5 Q13.2 -1.45 13.8 -0.2 M5.3 2.4 Q5.2 3.7 6.45 3.6 L12.9 3.75 Q13.7 3.8 13.65 2.6 13.65 1.4 12.85 1.25 L6.2 1.05 Q5.4 1.05 5.3 2.4 M-1.85 -1.75 L-2.75 8.1 -5.6 8.35 -6.55 5.7 Q-6.7 8.35 -9.95 8.35 L-13.4 8.25 Q-17.45 8.5 -18.15 3.05 L-18.0 -4.3 Q-18.65 -10.15 -13.7 -9.9 L-6.45 -10.05 Q-2.8 -9.6 -1.55 -6.55 L-5.55 -2.1 -6.2 -3.2 -15.5 -3.05 -15.0 3.95 -7.85 4.05 Q-5.85 4.15 -5.85 1.75 L-10.8 2.3 -10.6 -0.9 -1.85 -1.75 M-31.25 -9.95 Q-26.3 -9.8 -26.35 -4.65 L-27.05 7.95 -30.65 8.1 -30.0 -3.35 -37.65 -3.3 -38.4 8.35 -42.2 8.05 -43.25 -10.7 Q-39.75 -9.7 -39.15 -7.75 -37.75 -9.95 -35.95 -9.9 L-31.25 -9.95 M-20.15 -9.8 L-21.85 7.9 -24.4 8.45 -24.55 -10.05 -20.15 -9.8 M-43.95 -9.8 L-45.65 7.9 -48.2 8.45 -48.35 -10.05 -43.95 -9.8 M-50.2 -4.4 L-50.0 8.45 -55.7 8.3 -55.4 -4.2 -59.95 -3.6 -60.55 8.25 -63.2 8.3 -63.65 -4.0 -67.5 -3.7 -67.4 8.2 -69.85 8.3 -70.9 -9.5 Q-67.85 -9.7 -66.9 -7.65 -66.5 -9.9 -63.55 -10.15 L-54.75 -10.4 Q-50.3 -9.9 -50.2 -4.4" fill="#ffcc00" fill-rule="evenodd" stroke="none"/>
  </g>
</svg>
