<?xml version="1.0" encoding="UTF-8" standalone="no"?>
<svg xmlns:ffdec="https://www.free-decompiler.com/flash" xmlns:xlink="http://www.w3.org/1999/xlink" ffdec:objectType="shape" height="70.95px" width="83.35px" xmlns="http://www.w3.org/2000/svg">
  <g transform="matrix(1.0, 0.0, 0.0, 1.0, 41.65, 35.5)">
    <path d="M33.35 -1.3 Q37.85 -5.95 38.85 -12.25 39.65 -17.45 37.8 -21.9 36.5 -25.0 34.2 -27.2 28.35 -33.05 22.15 -33.5 16.95 -33.9 9.3 -30.45 14.95 -34.55 20.7 -35.35 29.8 -36.5 36.75 -29.2 42.25 -23.5 41.65 -14.25 41.05 -4.55 33.9 0.65 L14.1 16.35 -5.1 30.95 Q-15.75 38.1 -26.45 33.95 -35.5 30.45 -39.35 22.0 -42.95 15.35 -40.95 6.85 -39.05 -1.3 -33.5 -5.7 -28.2 -9.85 -3.9 -23.25 L9.3 -30.45 Q4.6 -26.6 -2.65 -22.3 L-16.25 -13.85 Q-16.5 -13.65 -22.5 -9.7 L-31.45 -3.35 Q-36.15 0.4 -37.6 7.2 -39.1 14.25 -36.0 20.0 -33.35 25.75 -27.3 28.8 -21.95 31.5 -17.0 30.85 -13.2 30.5 -9.9 29.0 L-7.45 27.7 Q30.25 1.55 33.35 -1.3" fill="#507c27" fill-rule="evenodd" stroke="none"/>
    <path d="M-18.0 22.45 L-2.85 14.4 Q5.95 9.55 11.95 5.4 13.15 10.65 11.7 14.3 L-7.45 27.7 -9.9 29.0 Q-13.2 30.5 -17.0 30.85 -21.95 31.5 -27.3 28.8 -33.35 25.75 -36.0 20.0 -37.1 17.95 -37.65 15.5 -34.05 20.9 -28.65 22.95 -23.05 25.1 -18.0 22.45" fill="#68b22a" fill-rule="evenodd" stroke="none"/>
    <path d="M7.05 -5.75 Q10.8 -0.15 11.95 5.4 5.95 9.55 -2.85 14.4 L-18.0 22.45 Q-23.05 25.1 -28.65 22.95 -34.05 20.9 -37.65 15.5 -38.4 11.7 -37.7 7.85 -37.1 4.45 -35.45 1.5 -33.85 -1.45 -31.45 -3.35 L-22.5 -9.7 Q-16.5 -13.65 -16.25 -13.85 L-10.25 -17.7 Q-6.35 -17.95 -1.6 -14.7 3.2 -11.4 7.05 -5.75" fill="#86dc44" fill-rule="evenodd" stroke="none"/>
    <path d="M34.8 -26.6 Q35.8 -21.4 32.95 -16.45 26.15 -4.55 11.95 5.4 10.8 -0.15 7.05 -5.75 3.2 -11.4 -1.6 -14.7 -6.35 -17.95 -10.25 -17.7 L-0.15 -23.75 Q5.15 -27.05 9.3 -30.45 16.95 -33.9 22.15 -33.5 28.35 -33.05 34.2 -27.2 L34.8 -26.6" fill="#eff0c0" fill-rule="evenodd" stroke="none"/>
    <path d="M32.95 -16.45 Q35.8 -21.4 34.8 -26.6 36.95 -24.25 38.05 -21.2 39.6 -17.05 38.85 -12.25 37.85 -5.95 33.35 -1.3 31.2 0.65 11.7 14.3 13.15 10.65 11.95 5.4 26.15 -4.55 32.95 -16.45" fill="#c6c68c" fill-rule="evenodd" stroke="none"/>
    <path d="M-16.7 -7.3 Q-15.65 -8.0 -14.45 -7.75 -13.2 -7.5 -12.5 -6.5 -11.8 -5.45 -12.05 -4.25 -12.3 -3.0 -13.35 -2.3 -14.35 -1.6 -15.6 -1.85 -16.85 -2.1 -17.5 -3.15 -18.2 -4.15 -17.95 -5.4 -17.7 -6.6 -16.7 -7.3 M-28.85 0.85 Q-26.35 -0.85 -23.35 -0.25 -20.4 0.35 -18.7 2.85 -17.0 5.4 -17.6 8.4 -18.2 11.35 -20.7 13.05 -23.25 14.75 -26.25 14.15 -29.2 13.55 -30.9 11.0 -32.6 8.5 -32.0 5.5 -31.4 2.55 -28.85 0.85" fill="#eeffdd" fill-rule="evenodd" stroke="none"/>
  </g>
</svg>
