<?xml version="1.0" encoding="UTF-8" standalone="no"?>
<svg xmlns:ffdec="https://www.free-decompiler.com/flash" xmlns:xlink="http://www.w3.org/1999/xlink" ffdec:objectType="shape" height="78.15px" width="76.65px" xmlns="http://www.w3.org/2000/svg">
  <g transform="matrix(1.0, 0.0, 0.0, 1.0, 38.3, 39.1)">
    <path d="M-35.0 -3.0 Q-34.7 -6.85 -33.5 -10.8 -31.2 -18.25 -25.5 -24.45 -16.35 -18.2 -12.55 -11.15 -9.65 -6.4 -9.25 -0.4 -9.1 2.55 -9.45 4.5 L-10.7 9.4 Q-12.7 15.2 -16.3 19.65 L-16.55 20.0 Q-24.2 18.3 -30.25 14.5 L-32.85 12.6 -33.5 10.75 Q-34.7 6.8 -35.0 2.95 L-35.15 0.0 -35.0 -3.0 M8.05 -35.2 L11.05 -34.45 Q9.4 -27.1 9.65 -20.7 9.6 -13.3 11.55 -6.5 11.3 -6.5 13.0 -2.35 14.95 2.6 17.55 6.55 L19.55 9.5 Q15.7 14.55 9.75 17.5 0.85 21.65 -9.9 20.9 -6.75 16.25 -4.85 10.3 L-3.65 5.4 Q-3.2 2.95 -3.4 -0.8 -3.9 -8.3 -7.4 -14.1 -11.8 -21.9 -21.05 -28.5 L-18.5 -30.3 Q-12.75 -34.1 -5.3 -35.35 1.65 -36.55 8.05 -35.2 M15.5 -20.75 Q15.35 -26.2 16.6 -32.25 20.0 -30.55 22.85 -28.35 26.45 -18.75 25.75 -7.5 25.2 -1.2 22.9 3.95 L22.5 3.4 Q20.2 -0.2 18.4 -4.55 L17.15 -8.15 Q15.5 -13.85 15.5 -20.75" fill="#b4dc10" fill-rule="evenodd" stroke="none"/>
    <path d="M-5.15 35.35 Q-12.5 34.15 -18.25 30.45 -14.3 26.8 -11.6 23.2 L-9.9 20.9 Q0.85 21.65 9.75 17.5 15.7 14.55 19.55 9.5 22.15 13.1 25.6 16.25 28.55 18.95 30.45 19.9 L30.7 20.05 Q28.1 23.5 24.55 26.9 17.55 33.2 8.05 35.15 1.75 36.5 -5.15 35.35 M-30.25 14.5 Q-24.2 18.3 -16.55 20.0 -19.1 23.35 -23.05 26.85 -29.75 20.85 -32.85 12.6 L-30.25 14.5 M24.55 -26.9 Q31.15 -20.6 34.25 -14.25 37.1 -8.45 38.25 0.0 37.1 8.9 33.8 15.1 L33.55 14.95 Q31.75 14.0 28.85 11.15 25.25 7.7 22.9 3.95 25.2 -1.2 25.75 -7.5 26.45 -18.75 22.85 -28.35 L24.55 -26.9" fill="#abc325" fill-rule="evenodd" stroke="none"/>
    <path d="M-25.5 -24.45 Q-23.6 -26.55 -21.05 -28.5 -11.8 -21.9 -7.4 -14.1 -3.9 -8.3 -3.4 -0.8 -3.2 2.95 -3.65 5.4 L-4.85 10.3 Q-6.75 16.25 -9.9 20.9 L-16.55 20.0 -16.3 19.65 Q-12.7 15.2 -10.7 9.4 L-9.45 4.5 Q-9.1 2.55 -9.25 -0.4 -9.65 -6.4 -12.55 -11.15 -16.35 -18.2 -25.5 -24.45 M16.6 -32.25 Q15.35 -26.2 15.5 -20.75 15.5 -13.85 17.15 -8.15 L18.4 -4.55 Q20.2 -0.2 22.5 3.4 L22.9 3.95 Q21.6 6.8 19.55 9.5 L17.55 6.55 Q14.95 2.6 13.0 -2.35 11.3 -6.5 11.55 -6.5 9.6 -13.3 9.65 -20.7 9.4 -27.1 11.05 -34.45 14.0 -33.5 16.6 -32.25" fill="#f8f7e7" fill-rule="evenodd" stroke="none"/>
    <path d="M-23.05 26.85 Q-19.1 23.35 -16.55 20.0 L-9.9 20.9 -11.6 23.2 Q-14.3 26.8 -18.25 30.45 L-18.5 30.25 Q-21.05 28.7 -23.05 26.85 M19.55 9.5 Q21.6 6.8 22.9 3.95 25.25 7.7 28.85 11.15 31.75 14.0 33.55 14.95 L33.8 15.1 Q32.7 17.3 30.7 20.05 L30.45 19.9 Q28.55 18.95 25.6 16.25 22.15 13.1 19.55 9.5" fill="#c8c7c1" fill-rule="evenodd" stroke="none"/>
    <path d="M8.7 -38.3 Q14.65 -37.05 20.0 -34.0 23.7 -31.85 26.6 -29.25 33.7 -22.45 36.4 -15.15 38.75 -8.75 38.25 0.0 37.1 -8.45 34.25 -14.25 31.15 -20.6 24.55 -26.9 21.95 -29.25 18.45 -31.25 13.5 -34.05 8.05 -35.2 1.65 -36.55 -5.3 -35.35 -12.75 -34.1 -18.5 -30.3 -24.15 -26.75 -28.3 -21.0 -31.85 -16.1 -33.5 -10.8 -34.7 -6.85 -35.0 -3.0 L-35.15 0.0 -35.0 2.95 Q-34.7 6.8 -33.5 10.75 -31.85 16.05 -28.3 21.0 -24.15 26.75 -18.5 30.25 -12.7 34.05 -5.3 35.35 1.7 36.55 8.05 35.15 17.55 33.2 24.55 26.9 31.15 20.55 34.25 14.25 37.1 8.45 38.25 0.0 38.75 8.7 36.4 15.15 33.7 22.5 26.6 29.25 23.75 31.85 20.0 33.95 14.65 37.0 8.7 38.25 1.75 39.75 -5.85 38.45 -13.9 37.05 -20.2 32.9 -26.35 29.1 -30.85 22.85 -34.75 17.45 -36.5 11.7 -37.8 7.45 -38.15 3.25 L-38.3 0.0 -38.15 -3.25 Q-37.8 -7.45 -36.5 -11.75 -34.75 -17.5 -30.85 -22.85 -26.35 -29.1 -20.2 -32.95 -13.9 -37.1 -5.85 -38.45 1.75 -39.8 8.7 -38.3" fill="#6b6b09" fill-rule="evenodd" stroke="none"/>
  </g>
</svg>
