<?xml version="1.0" encoding="UTF-8" standalone="no"?>
<svg xmlns:ffdec="https://www.free-decompiler.com/flash" xmlns:xlink="http://www.w3.org/1999/xlink" ffdec:objectType="shape" height="78.1px" width="76.65px" xmlns="http://www.w3.org/2000/svg">
  <g transform="matrix(1.0, 0.0, 0.0, 1.0, 38.3, 39.05)">
    <path d="M8.7 -38.25 Q14.65 -37.0 20.0 -33.95 23.75 -31.85 26.6 -29.25 33.7 -22.45 36.4 -15.15 38.75 -8.75 38.3 0.0 37.15 -8.45 34.3 -14.25 31.15 -20.6 24.55 -26.9 17.55 -33.2 8.05 -35.2 1.7 -36.55 -5.3 -35.35 -12.7 -34.1 -18.5 -30.3 -24.15 -26.75 -28.3 -21.0 -31.85 -16.1 -33.5 -10.8 -34.65 -6.85 -35.0 -3.0 L-35.15 0.0 -35.0 3.0 Q-34.65 6.85 -33.5 10.8 -31.85 16.1 -28.3 21.0 -24.15 26.8 -18.5 30.3 -12.7 34.1 -5.3 35.35 1.7 36.55 8.05 35.2 17.55 33.2 24.55 26.9 31.15 20.6 34.3 14.25 37.15 8.45 38.3 0.0 38.75 8.75 36.4 15.15 33.7 22.5 26.6 29.25 23.7 31.9 20.0 34.0 14.65 37.05 8.7 38.25 1.8 39.75 -5.85 38.45 -13.9 37.1 -20.2 32.95 -26.35 29.1 -30.85 22.85 -34.7 17.5 -36.5 11.75 -37.75 7.45 -38.1 3.25 L-38.3 0.0 -38.1 -3.2 Q-37.75 -7.45 -36.5 -11.7 -34.7 -17.5 -30.85 -22.85 -26.35 -29.1 -20.2 -32.95 -13.9 -37.05 -5.85 -38.45 1.8 -39.75 8.7 -38.25" fill="#25587e" fill-rule="evenodd" stroke="none"/>
    <path d="M-2.65 29.7 Q-8.9 26.35 -13.55 21.0 L-13.9 20.5 -9.9 20.95 Q0.75 21.65 9.8 17.5 14.1 15.35 17.5 11.95 20.8 20.7 21.45 29.35 16.65 32.75 10.8 34.5 3.1 32.8 -2.65 29.7 M24.55 -26.9 Q31.15 -20.6 34.3 -14.25 37.15 -8.45 38.3 0.0 37.05 8.9 33.85 15.15 32.45 17.7 30.7 20.05 L30.1 20.8 Q31.85 16.25 32.45 12.0 33.6 -0.85 25.85 -11.3 25.75 -20.45 22.85 -28.3 L24.55 -26.9" fill="#1e6fba" fill-rule="evenodd" stroke="none"/>
    <path d="M-13.55 21.0 Q-8.9 26.35 -2.65 29.7 3.1 32.8 10.8 34.5 L8.05 35.2 Q1.75 36.55 -5.15 35.4 -12.45 34.15 -18.25 30.45 L-18.5 30.3 Q-20.9 28.8 -23.05 26.85 -29.7 21.0 -32.85 12.65 L-30.2 14.5 Q-24.1 18.4 -16.55 20.0 L-13.9 20.5 -13.55 21.0 M19.55 9.55 Q21.55 6.95 22.9 3.95 25.2 -1.15 25.8 -7.5 L25.85 -11.3 Q33.6 -0.85 32.45 12.0 31.85 16.25 30.1 20.8 27.7 23.9 24.55 26.9 L21.45 29.35 Q20.8 20.7 17.5 11.95 L19.55 9.55" fill="#c8c7c1" fill-rule="evenodd" stroke="none"/>
    <path d="M-20.9 -13.4 Q-22.7 -4.8 -20.85 4.1 -19.0 12.95 -13.9 20.5 L-16.55 20.0 Q-24.1 18.4 -30.2 14.5 L-32.85 12.65 -33.5 10.8 Q-34.65 6.85 -35.0 3.0 L-35.15 0.0 -35.1 -1.15 Q-33.15 -10.85 -26.5 -16.05 -24.4 -13.95 -20.9 -13.4 M8.05 -35.2 L10.2 -34.65 2.05 -35.6 Q-2.3 -35.45 -5.4 -33.0 -7.05 -34.05 -9.15 -34.5 -0.2 -36.95 8.05 -35.2 M13.8 -21.9 Q21.05 -17.8 25.85 -11.3 L25.8 -7.5 Q25.2 -1.15 22.9 3.95 21.55 6.95 19.55 9.55 L17.5 11.95 Q11.25 -4.35 -4.1 -20.4 -1.75 -23.6 -1.85 -26.8 6.5 -26.0 13.8 -21.9" fill="#f8f7e7" fill-rule="evenodd" stroke="none"/>
    <path d="M-28.6 -20.55 Q-28.55 -19.4 -28.0 -18.25 -27.55 -17.2 -26.5 -16.05 -33.15 -10.85 -35.1 -1.15 -34.95 -6.0 -33.5 -10.8 -31.85 -15.95 -28.6 -20.55 M-11.15 -14.85 Q-6.65 -16.85 -4.1 -20.4 11.25 -4.35 17.5 11.95 14.1 15.35 9.8 17.5 0.75 21.65 -9.9 20.95 L-13.9 20.5 Q-19.0 12.95 -20.85 4.1 -22.7 -4.8 -20.9 -13.4 -16.2 -12.6 -11.15 -14.85 M22.85 -28.3 Q25.75 -20.45 25.85 -11.3 21.05 -17.8 13.8 -21.9 6.5 -26.0 -1.85 -26.8 -1.85 -28.25 -2.45 -29.7 -3.4 -31.8 -5.4 -33.0 -2.3 -35.45 2.05 -35.6 L10.2 -34.65 11.05 -34.4 Q14.0 -33.55 16.6 -32.2 19.8 -30.65 22.85 -28.3" fill="#3488f9" fill-rule="evenodd" stroke="none"/>
    <path d="M-3.3 -21.55 Q-5.85 -17.2 -11.15 -14.85 -16.45 -12.5 -21.35 -13.45 -26.3 -14.45 -28.0 -18.25 -28.55 -19.4 -28.6 -20.55 L-25.5 -24.45 Q-23.35 -26.75 -21.05 -28.5 L-18.5 -30.3 Q-14.2 -33.05 -9.15 -34.5 -4.15 -33.45 -2.45 -29.7 -0.75 -25.9 -3.3 -21.55" fill="#116ad4" fill-rule="evenodd" stroke="none"/>
  </g>
</svg>
