<?xml version="1.0" encoding="UTF-8" standalone="no"?>
<svg xmlns:ffdec="https://www.free-decompiler.com/flash" xmlns:xlink="http://www.w3.org/1999/xlink" ffdec:objectType="shape" height="83.75px" width="82.15px" xmlns="http://www.w3.org/2000/svg">
  <g transform="matrix(1.0, 0.0, 0.0, 1.0, 41.05, 41.9)">
    <path d="M-4.85 27.75 L-16.15 26.15 Q-1.45 32.3 13.25 28.4 14.9 28.4 14.65 32.45 14.45 36.6 11.4 37.25 L4.0 38.7 -7.5 38.15 Q-12.45 37.15 -14.45 36.2 -17.8 34.5 -17.55 31.5 L-18.8 24.5 -20.3 23.65 Q-17.05 22.4 -16.3 20.8 L-15.9 20.85 -15.9 20.95 Q-13.45 27.35 -10.15 25.15 -9.1 24.9 -3.75 26.15 0.1 27.05 1.85 24.15 3.85 26.15 6.7 27.25 L-4.85 27.75" fill="#c56836" fill-rule="evenodd" stroke="none"/>
    <path d="M-19.9 30.0 L-20.4 26.25 Q-21.65 25.65 -22.3 24.75 L-23.8 17.95 -22.35 16.85 -21.65 16.35 -21.6 16.35 -17.5 18.05 Q-13.15 19.85 -11.85 20.05 -5.0 21.3 6.1 20.3 9.85 19.85 15.25 17.85 L19.85 14.55 19.9 14.5 19.9 14.45 22.8 15.8 Q22.25 18.25 21.7 23.25 L20.2 24.4 18.2 37.35 14.4 39.35 12.3 40.25 Q12.3 40.7 6.15 41.45 -1.25 42.35 -7.95 41.25 -10.4 40.9 -13.45 39.65 -17.2 38.15 -18.8 36.4 L-19.9 30.0 M-16.3 20.8 Q-17.05 22.4 -20.3 23.65 L-18.8 24.5 -17.55 31.5 Q-17.8 34.5 -14.45 36.2 -12.45 37.15 -7.5 38.15 L4.0 38.7 11.4 37.25 Q14.45 36.6 14.65 32.45 14.9 28.4 13.25 28.4 -1.45 32.3 -16.15 26.15 L-4.85 27.75 6.7 27.25 Q3.85 26.15 1.85 24.15 0.1 27.05 -3.75 26.15 -9.1 24.9 -10.15 25.15 -13.45 27.35 -15.9 20.95 L-15.9 20.85 -16.3 20.8" fill="#7e3716" fill-rule="evenodd" stroke="none"/>
    <path d="M30.75 -22.0 Q32.8 -25.1 28.35 -27.95 23.25 -30.45 22.95 -31.25 19.6 -39.8 9.05 -39.8 2.65 -39.75 -9.2 -35.9 -8.5 -36.15 -11.1 -37.6 -13.9 -38.9 -13.7 -38.9 -14.0 -39.25 -13.9 -36.25 -13.8 -33.45 -13.1 -33.75 -15.9 -32.45 -17.25 -33.5 -19.1 -34.9 -22.25 -34.5 -27.7 -33.8 -29.35 -29.75 L-30.5 -26.05 Q-31.2 -23.65 -32.3 -22.2 L-35.8 -17.45 Q-37.45 -14.25 -36.45 -9.9 L-34.7 -6.7 Q-32.65 -2.75 -32.25 -3.95 L-33.1 -1.05 Q-38.55 -1.45 -36.7 -0.15 -34.95 1.05 -30.35 1.95 L-29.75 3.15 -29.15 5.15 -33.45 7.7 Q-36.85 10.15 -32.4 11.65 -33.25 11.35 -30.85 8.9 -28.5 6.5 -27.2 6.15 -26.5 8.15 -26.95 8.9 -27.65 9.95 -27.5 12.1 -26.95 20.85 -18.35 17.7 -15.65 16.7 -11.85 14.35 L-6.85 11.15 -8.65 12.65 Q-7.25 16.5 3.55 15.3 11.8 18.5 17.2 16.6 20.1 15.6 21.9 13.3 22.8 12.1 23.15 11.15 L24.05 9.0 25.75 9.15 Q27.3 9.7 27.85 10.95 L29.45 9.15 Q30.2 7.9 29.35 7.05 L27.15 4.9 Q31.55 4.3 34.9 0.3 38.15 -3.55 38.45 -7.9 38.75 -11.85 34.6 -15.05 30.0 -18.6 29.55 -20.9 29.65 -20.4 30.75 -22.0 M32.85 -26.6 Q35.1 -22.8 33.2 -20.1 37.4 -18.3 39.5 -14.2 41.4 -10.5 41.05 -6.1 40.65 -1.7 38.15 1.4 35.45 4.75 31.15 5.35 32.8 6.7 32.9 8.85 33.0 10.85 31.8 12.45 30.55 14.1 28.8 14.25 26.85 14.4 25.0 12.4 23.6 15.8 19.95 17.45 16.8 18.9 12.5 18.8 L6.1 20.3 Q-5.0 21.3 -11.85 20.05 L-16.1 18.65 Q-19.75 20.95 -22.55 20.8 -26.05 20.6 -28.8 16.6 -29.3 15.85 -31.8 14.65 L-35.95 12.45 Q-40.55 9.35 -35.35 5.05 -39.35 4.95 -40.7 0.9 -42.05 -3.25 -37.9 -4.6 -41.3 -10.6 -39.45 -15.75 L-37.1 -20.3 -34.15 -25.15 Q-35.45 -31.05 -29.1 -35.1 -22.9 -39.1 -17.2 -36.8 -17.5 -39.3 -14.7 -40.4 -11.5 -41.75 -7.75 -37.75 -1.95 -40.55 6.4 -41.5 13.65 -42.35 17.05 -41.4 19.0 -40.85 21.3 -38.4 23.75 -35.75 25.35 -32.2 30.45 -30.6 32.85 -26.6" fill="#49661b" fill-rule="evenodd" stroke="none"/>
    <path d="M-24.5 -1.15 Q-25.25 3.0 -29.2 4.75 -29.35 4.05 -29.85 2.9 L-30.35 1.95 -31.9 1.6 Q-27.85 1.9 -24.5 -1.15 M-30.6 -5.6 Q-27.9 -5.5 -26.45 -7.75 -26.5 -4.8 -28.5 -3.0 -30.35 -1.4 -33.0 -1.45 L-32.25 -3.95 Q-32.7 -2.65 -35.1 -7.4 -32.95 -5.7 -30.6 -5.6 M-16.15 -30.05 Q-16.4 -31.5 -18.05 -32.65 L-21.0 -34.6 Q-18.8 -34.7 -17.3 -33.55 -16.1 -32.65 -14.55 -33.15 L-15.4 -31.6 -16.15 -30.05 M-9.25 -35.9 L-2.15 -38.05 -5.25 -35.15 Q-7.15 -33.55 -9.15 -32.85 -9.15 -35.3 -9.4 -36.55 -8.8 -36.05 -9.25 -35.9 M18.6 -32.15 Q19.6 -34.95 18.2 -37.4 21.2 -35.45 22.7 -31.75 21.2 -30.05 19.2 -29.3 17.1 -28.45 14.8 -28.8 17.5 -29.3 18.6 -32.15 M20.0 -20.35 Q21.85 -20.35 23.95 -21.35 25.65 -22.1 26.75 -23.05 28.25 -24.95 26.95 -26.9 24.85 -29.1 23.9 -30.4 L29.4 -27.25 Q32.55 -24.75 30.75 -22.0 29.65 -20.4 29.55 -20.9 30.0 -18.6 34.6 -15.05 38.75 -11.85 38.45 -7.9 38.15 -3.55 34.9 0.3 31.55 4.3 27.15 4.9 L29.35 7.05 Q30.2 7.9 29.45 9.15 L27.85 10.95 Q27.3 9.7 25.75 9.15 L24.05 9.0 23.15 11.15 Q22.25 13.75 19.35 15.55 13.55 19.2 3.55 15.3 -7.25 16.5 -8.65 12.65 L-6.85 11.15 -11.95 14.45 Q-15.9 16.85 -18.65 17.85 -26.95 20.8 -27.5 12.1 L-27.5 12.05 Q-18.6 18.25 -8.8 4.9 -9.25 5.9 -7.6 7.45 L-4.0 7.75 0.4 6.6 Q1.05 9.3 3.6 9.7 5.9 10.1 8.35 8.6 8.95 8.6 8.75 6.5 L8.45 2.95 Q9.15 6.35 13.0 7.7 16.8 9.0 18.4 6.85 20.9 3.35 18.1 0.05 14.05 -3.5 12.55 -5.4 15.05 -4.45 19.85 -1.6 24.0 0.1 26.5 -3.4 27.3 -4.8 26.05 -6.55 24.8 -8.35 22.55 -9.05 L25.95 -8.8 Q27.95 -8.75 28.6 -9.9 29.95 -12.95 28.05 -15.8 L23.7 -20.3 20.0 -20.35" fill="#719b29" fill-rule="evenodd" stroke="none"/>
    <path d="M-21.9 3.8 Q-23.2 5.25 -23.4 6.85 -23.6 8.45 -22.6 9.25 -21.55 10.05 -19.9 9.6 -18.25 9.15 -16.95 7.7 -15.65 6.3 -15.45 4.7 -15.25 3.1 -16.25 2.25 -17.25 1.45 -18.9 1.9 -20.6 2.35 -21.9 3.8 M-18.05 -32.65 Q-16.4 -31.5 -16.15 -30.05 L-16.3 -28.55 -17.2 -27.25 Q-17.7 -26.65 -18.25 -26.4 -17.55 -28.25 -18.55 -30.0 L-21.15 -32.95 Q-23.65 -34.15 -26.15 -33.4 -24.6 -34.2 -22.25 -34.5 L-21.0 -34.6 -18.05 -32.65 M3.2 -7.3 Q1.8 -8.45 0.15 -8.5 -1.5 -8.55 -2.45 -7.5 -3.4 -6.45 -3.05 -4.95 -2.7 -3.4 -1.3 -2.3 0.1 -1.2 1.75 -1.15 3.4 -1.1 4.35 -2.15 5.3 -3.15 4.95 -4.7 4.6 -6.2 3.2 -7.3 M16.7 -18.5 Q11.05 -22.6 2.8 -19.6 5.15 -19.3 9.4 -16.45 13.4 -13.8 15.6 -13.8 16.45 -14.6 16.9 -16.15 17.35 -17.85 16.7 -18.5 M23.95 -21.35 Q21.85 -20.35 20.0 -20.35 L23.7 -20.3 28.05 -15.8 Q29.95 -12.95 28.6 -9.9 27.95 -8.75 25.95 -8.8 L22.55 -9.05 Q24.8 -8.35 26.05 -6.55 27.3 -4.8 26.5 -3.4 24.0 0.1 19.85 -1.6 15.05 -4.45 12.55 -5.4 14.05 -3.5 18.1 0.05 20.9 3.35 18.4 6.85 16.8 9.0 13.0 7.7 9.15 6.35 8.45 2.95 L8.75 6.5 Q8.95 8.6 8.35 8.6 5.9 10.1 3.6 9.7 1.05 9.3 0.4 6.6 L-4.0 7.75 -7.6 7.45 Q-9.25 5.9 -8.8 4.9 -18.6 18.25 -27.5 12.05 -27.6 9.95 -26.95 8.9 -26.5 8.15 -27.2 6.15 -28.5 6.5 -30.85 8.9 -33.25 11.35 -32.4 11.65 -36.85 10.15 -33.45 7.7 L-29.15 5.15 -29.2 4.75 Q-25.25 3.0 -24.5 -1.15 -27.85 1.9 -31.9 1.6 -35.95 0.6 -36.9 -0.35 -38.0 -1.45 -33.1 -1.05 L-33.0 -1.45 Q-30.35 -1.4 -28.5 -3.0 -26.5 -4.8 -26.45 -7.75 -27.9 -5.5 -30.6 -5.6 -32.95 -5.7 -35.1 -7.4 L-36.15 -9.55 -36.45 -9.95 Q-37.5 -14.5 -35.6 -17.85 -36.25 -15.45 -35.0 -13.3 -33.65 -11.05 -31.4 -11.55 -30.0 -11.5 -28.5 -12.65 -27.2 -13.7 -26.35 -15.25 -27.1 -12.55 -24.9 -11.7 -22.8 -10.85 -20.4 -12.35 -19.95 -11.1 -20.8 -8.25 -21.55 -5.85 -20.5 -4.85 L-18.0 -4.7 Q-16.1 -4.9 -15.45 -6.65 -15.55 -2.95 -14.5 -2.0 -10.15 -1.25 -8.75 -5.3 -7.35 -9.3 -10.4 -12.25 L-5.0 -11.6 Q-1.65 -11.3 -0.4 -13.05 1.1 -15.8 -1.2 -18.25 -3.4 -20.55 -7.05 -20.65 -2.6 -20.65 0.35 -21.6 4.7 -23.05 2.75 -26.15 2.75 -27.0 0.65 -27.5 -1.65 -28.05 -3.6 -26.7 L0.95 -29.75 Q3.15 -31.6 0.85 -32.7 -2.2 -34.45 -6.15 -32.3 L-12.6 -27.7 Q-12.15 -28.2 -12.4 -29.4 -12.6 -30.6 -12.2 -31.0 -14.6 -31.0 -16.15 -28.8 L-16.15 -30.05 -15.4 -31.6 -14.55 -33.15 -13.15 -33.7 Q-13.8 -33.5 -13.9 -36.25 -14.0 -39.25 -13.7 -38.9 L-12.1 -38.1 Q-10.1 -37.1 -9.4 -36.55 -9.15 -35.3 -9.15 -32.85 -7.15 -33.55 -5.25 -35.15 L-2.15 -38.05 Q11.8 -41.75 18.2 -37.4 19.6 -34.95 18.6 -32.15 17.5 -29.3 14.8 -28.8 17.1 -28.45 19.2 -29.3 21.2 -30.05 22.7 -31.75 L22.95 -31.25 Q23.1 -30.9 23.9 -30.4 24.85 -29.1 26.95 -26.9 28.25 -24.95 26.75 -23.05 25.65 -22.1 23.95 -21.35" fill="#94c64b" fill-rule="evenodd" stroke="none"/>
    <path d="M-23.4 6.85 Q-23.2 5.25 -21.9 3.8 -20.6 2.35 -18.9 1.9 -17.25 1.45 -16.25 2.25 -15.25 3.1 -15.45 4.7 -15.65 6.3 -16.95 7.7 -18.25 9.15 -19.9 9.6 -21.55 10.05 -22.6 9.25 -23.6 8.45 -23.4 6.85 M0.15 -8.5 Q1.8 -8.45 3.2 -7.3 4.6 -6.2 4.95 -4.7 5.3 -3.15 4.35 -2.15 3.4 -1.1 1.75 -1.15 0.1 -1.2 -1.3 -2.3 -2.7 -3.4 -3.05 -4.95 -3.4 -6.45 -2.45 -7.5 -1.5 -8.55 0.15 -8.5 M2.8 -19.6 Q11.05 -22.6 16.7 -18.5 17.35 -17.85 16.9 -16.15 16.45 -14.6 15.6 -13.8 13.4 -13.8 9.4 -16.45 5.15 -19.3 2.8 -19.6 M0.65 -27.5 Q2.75 -27.0 2.75 -26.15 4.7 -23.05 0.35 -21.6 -2.6 -20.65 -7.05 -20.65 -3.4 -20.55 -1.2 -18.25 1.1 -15.8 -0.4 -13.05 -1.65 -11.3 -5.0 -11.6 L-10.4 -12.25 Q-7.35 -9.3 -8.75 -5.3 -10.15 -1.25 -14.5 -2.0 -15.55 -2.95 -15.45 -6.65 -16.1 -4.9 -18.0 -4.7 L-20.5 -4.85 Q-21.55 -5.85 -20.8 -8.25 -19.95 -11.1 -20.4 -12.35 -22.8 -10.85 -24.9 -11.7 -27.1 -12.55 -26.35 -15.25 -27.2 -13.7 -28.5 -12.65 -30.0 -11.5 -31.4 -11.55 -33.65 -11.05 -35.0 -13.3 -36.25 -15.45 -35.6 -17.85 L-33.95 -20.1 -32.3 -22.2 Q-31.25 -23.65 -29.75 -28.45 -28.65 -32.1 -26.15 -33.4 -23.65 -34.15 -21.15 -32.95 L-18.55 -30.0 Q-17.55 -28.25 -18.25 -26.4 -17.7 -26.65 -17.2 -27.25 L-16.3 -28.55 -16.15 -30.05 -16.15 -28.8 Q-14.6 -31.0 -12.2 -31.0 -12.6 -30.6 -12.4 -29.4 -12.15 -28.2 -12.6 -27.7 L-6.15 -32.3 Q-2.2 -34.45 0.85 -32.7 3.15 -31.6 0.95 -29.75 L-3.6 -26.7 Q-1.65 -28.05 0.65 -27.5" fill="#cbf87e" fill-rule="evenodd" stroke="none"/>
  </g>
</svg>
