<?xml version="1.0" encoding="UTF-8" standalone="no"?>
<svg xmlns:ffdec="https://www.free-decompiler.com/flash" xmlns:xlink="http://www.w3.org/1999/xlink" ffdec:objectType="shape" height="75.95px" width="84.2px" xmlns="http://www.w3.org/2000/svg">
  <g transform="matrix(1.0, 0.0, 0.0, 1.0, 42.1, 38.0)">
    <path d="M31.45 -19.45 L34.25 -15.2 Q39.05 -6.3 38.95 3.4 39.2 9.95 35.8 16.7 32.35 23.4 26.5 27.9 21.1 32.15 13.9 33.8 7.85 35.25 2.0 34.6 L-6.15 33.15 -9.1 32.2 -12.0 31.05 Q-15.8 29.5 -19.6 27.4 -33.55 19.8 -37.35 9.25 -39.95 1.95 -38.25 -7.55 -36.85 -3.95 -32.2 -0.15 L-24.1 5.7 -16.1 12.55 Q-11.45 16.45 -8.1 18.45 1.2 23.95 10.9 20.7 19.45 17.85 25.15 9.1 30.3 1.2 31.9 -9.3 32.4 -14.15 31.45 -19.45 M19.55 -28.85 Q20.25 -27.35 18.9 -26.3 17.65 -25.45 11.55 -23.3 7.85 -22.0 4.9 -17.3 4.9 -18.05 6.3 -20.8 7.45 -23.15 6.9 -24.3 5.1 -26.5 2.5 -27.45 0.4 -28.2 -2.7 -28.35 L-1.1 -29.3 Q0.6 -29.85 -0.5 -31.8 -2.25 -34.3 -2.9 -35.7 L-1.45 -35.65 3.05 -33.55 Q5.55 -32.7 7.65 -34.15 L6.9 -34.55 Q6.55 -34.8 6.75 -35.1 L9.9 -34.8 Q14.0 -33.15 16.85 -31.7 18.95 -30.25 19.55 -28.85" fill="#d06a12" fill-rule="evenodd" stroke="none"/>
    <path d="M7.65 -34.15 Q5.55 -32.7 3.05 -33.55 L-1.45 -35.65 6.75 -35.1 Q6.55 -34.8 6.9 -34.55 L7.65 -34.15 M24.7 -26.75 Q28.35 -23.75 31.45 -19.45 32.4 -14.15 31.9 -9.3 30.3 1.2 25.15 9.1 19.45 17.85 10.9 20.7 1.2 23.95 -8.1 18.45 -11.45 16.45 -16.1 12.55 L-24.1 5.7 -32.2 -0.15 Q-36.85 -3.95 -38.25 -7.55 -37.15 -13.35 -34.8 -18.65 -32.3 -23.9 -28.0 -27.75 -24.9 -30.5 -21.65 -31.95 -16.55 -34.0 -11.8 -34.9 L-2.9 -35.7 Q-2.25 -34.3 -0.5 -31.8 0.6 -29.85 -1.1 -29.3 L-2.7 -28.35 Q0.4 -28.2 2.5 -27.45 5.1 -26.5 6.9 -24.3 7.45 -23.15 6.3 -20.8 4.9 -18.05 4.9 -17.3 7.85 -22.0 11.55 -23.3 17.65 -25.45 18.9 -26.3 20.25 -27.35 19.55 -28.85 18.95 -30.25 16.85 -31.7 21.3 -29.5 24.7 -26.75" fill="#f58b28" fill-rule="evenodd" stroke="none"/>
    <path d="M34.25 -15.2 Q29.55 -23.1 23.5 -27.7 18.55 -31.4 9.9 -34.8 19.15 -33.0 24.8 -29.55 31.85 -25.25 36.95 -16.7 42.2 -7.3 42.05 3.4 42.4 10.55 38.6 18.05 34.8 25.55 28.4 30.4 22.5 35.05 14.6 36.85 8.05 38.4 1.75 37.75 -2.9 37.3 -7.0 36.15 L-10.15 35.1 Q-14.65 33.65 -21.1 30.15 -36.05 22.0 -40.3 10.3 -42.85 3.05 -41.75 -5.6 -40.85 -12.8 -37.65 -20.0 -34.95 -25.8 -30.1 -30.1 -26.55 -33.25 -23.0 -34.8 -13.95 -38.4 -5.55 -37.95 -0.3 -37.65 9.9 -34.8 L-5.55 -35.65 Q-13.55 -35.3 -21.65 -31.95 -24.9 -30.5 -28.0 -27.75 -32.3 -23.9 -34.8 -18.65 -37.75 -12.1 -38.6 -5.2 -39.6 2.85 -37.35 9.25 -33.55 19.8 -19.6 27.4 -15.8 29.5 -12.0 31.05 L-9.1 32.2 -6.15 33.15 2.0 34.6 Q7.85 35.25 13.9 33.8 21.1 32.15 26.5 27.9 32.35 23.4 35.8 16.7 39.2 9.95 38.95 3.4 39.05 -6.3 34.25 -15.2" fill="#8e470b" fill-rule="evenodd" stroke="none"/>
    <path d="M13.3 -27.0 Q12.9 -25.9 11.45 -25.6 L8.3 -25.85 Q6.6 -26.45 5.7 -27.65 4.8 -28.85 5.2 -29.95 5.6 -31.05 7.05 -31.35 L10.2 -31.1 Q11.85 -30.5 12.75 -29.3 13.7 -28.1 13.3 -27.0" fill="#52701b" fill-rule="evenodd" stroke="none"/>
    <path d="M-29.25 -8.35 Q-30.3 -8.35 -31.05 -9.1 -31.85 -9.85 -31.85 -10.9 -31.85 -12.0 -31.05 -12.75 -30.3 -13.5 -29.25 -13.5 -28.15 -13.5 -27.4 -12.75 -26.65 -12.0 -26.65 -10.9 -26.65 -9.85 -27.4 -9.1 -28.15 -8.35 -29.25 -8.35 M-27.3 -4.15 Q-27.3 -6.15 -25.9 -7.6 -24.45 -9.0 -22.45 -9.0 -20.45 -9.0 -19.05 -7.6 -17.65 -6.15 -17.65 -4.15 -17.65 -2.15 -19.05 -0.75 -20.45 0.7 -22.45 0.7 -24.45 0.7 -25.9 -0.75 -27.3 -2.15 -27.3 -4.15 M-25.65 -17.25 Q-26.95 -17.25 -27.85 -18.15 -28.8 -19.1 -28.8 -20.4 -28.8 -21.7 -27.85 -22.65 -26.95 -23.55 -25.65 -23.55 -24.35 -23.55 -23.4 -22.65 -22.45 -21.7 -22.45 -20.4 -22.45 -19.1 -23.4 -18.15 -24.35 -17.25 -25.65 -17.25 M-20.3 -15.5 Q-19.15 -16.65 -17.5 -16.65 -15.9 -16.65 -14.75 -15.5 -13.6 -14.35 -13.6 -12.75 -13.6 -11.1 -14.75 -9.95 -15.9 -8.8 -17.5 -8.8 -19.15 -8.8 -20.3 -9.95 -21.45 -11.1 -21.45 -12.75 -21.45 -14.35 -20.3 -15.5 M-15.7 -24.45 Q-14.95 -23.7 -14.95 -22.65 -14.95 -21.55 -15.7 -20.8 -16.45 -20.05 -17.5 -20.05 -18.6 -20.05 -19.35 -20.8 -20.1 -21.55 -20.1 -22.65 -20.1 -23.7 -19.35 -24.45 -18.6 -25.25 -17.5 -25.25 -16.45 -25.25 -15.7 -24.45" fill="#ffc99a" fill-rule="evenodd" stroke="none"/>
  </g>
</svg>
