<?xml version="1.0" encoding="UTF-8" standalone="no"?>
<svg xmlns:ffdec="https://www.free-decompiler.com/flash" xmlns:xlink="http://www.w3.org/1999/xlink" ffdec:objectType="shape" height="80.15px" width="79.55px" xmlns="http://www.w3.org/2000/svg">
  <g transform="matrix(1.0, 0.0, 0.0, 1.0, 39.75, 40.1)">
    <path d="M9.55 -36.4 L10.4 -35.4 10.1 -35.5 8.75 -35.6 7.45 -35.1 Q4.75 -32.7 3.25 -28.7 2.45 -26.6 1.8 -23.95 L1.3 -21.35 -0.25 -22.6 0.2 -25.0 1.4 -29.55 Q2.5 -33.2 3.8 -36.15 L4.55 -37.75 5.2 -37.9 7.55 -37.7 Q8.85 -37.2 9.55 -36.4" fill="#d7d98e" fill-rule="evenodd" stroke="none"/>
    <path d="M10.1 -35.5 L10.4 -35.4 9.55 -36.4 Q8.85 -37.2 7.55 -37.7 L5.2 -37.9 4.55 -37.75 3.8 -36.15 Q2.5 -33.2 1.4 -29.55 L0.2 -25.0 -0.25 -22.6 1.3 -21.35 1.8 -23.95 Q2.45 -26.6 3.25 -28.7 4.75 -32.7 7.45 -35.1 L8.75 -35.6 10.1 -35.5 M13.7 -34.1 L13.7 -34.05 12.65 -32.5 11.95 -32.65 11.0 -32.9 9.5 -33.45 8.7 -33.4 Q6.7 -31.65 5.25 -27.95 4.5 -26.0 3.85 -23.45 2.95 -19.9 1.3 -16.0 L-0.85 -17.4 Q-1.95 -19.15 -2.15 -21.1 -2.3 -22.75 -1.85 -25.4 L-0.65 -30.15 Q0.5 -33.95 1.9 -37.0 L2.85 -39.05 3.4 -39.55 3.85 -39.75 4.8 -40.0 8.3 -39.7 Q10.2 -38.9 11.0 -37.9 L11.6 -37.25 12.9 -35.45 13.65 -34.15 13.7 -34.1" fill="#8f8d4a" fill-rule="evenodd" stroke="none"/>
    <path d="M36.3 -7.6 Q37.2 -6.2 36.95 -2.4 36.35 3.85 34.0 10.65 31.55 17.6 27.85 23.5 23.7 30.05 18.75 33.15 12.75 37.0 8.55 37.2 4.85 37.3 1.0 36.15 L-2.05 35.2 -5.5 35.0 Q-7.35 35.25 -9.25 35.95 L-13.4 36.75 Q-17.95 37.65 -23.0 33.05 -27.7 28.7 -30.4 22.0 L-30.7 21.25 Q-18.2 29.15 -3.95 26.95 10.45 24.75 20.0 13.1 22.65 9.8 24.15 4.5 L26.0 -4.9 Q26.35 -8.45 25.55 -12.45 24.8 -16.55 23.0 -20.05 L27.75 -16.6 Q30.6 -14.4 33.25 -11.55 L36.3 -7.6" fill="#ac2f36" fill-rule="evenodd" stroke="none"/>
    <path d="M21.8 -23.65 Q25.55 -22.0 29.5 -18.8 33.1 -15.85 35.3 -13.45 37.65 -10.9 38.75 -8.95 40.05 -6.8 39.75 -2.2 39.05 4.55 36.65 11.55 34.15 18.75 30.2 25.05 25.7 32.1 20.25 35.5 13.55 39.75 8.75 40.0 4.5 40.25 0.2 38.75 L-2.6 37.95 -5.2 37.8 Q-6.8 38.0 -8.3 38.55 -11.3 39.45 -13.2 39.55 -16.05 39.95 -19.25 38.75 -22.55 37.55 -24.95 35.1 L-29.5 29.7 Q-31.1 27.45 -33.0 23.1 -36.15 15.1 -37.7 9.1 -39.75 1.35 -39.75 -5.0 -39.05 -10.8 -34.35 -15.9 -32.45 -18.0 -28.4 -21.15 L-24.5 -23.8 -20.4 -25.65 Q-15.95 -27.05 -12.5 -26.85 -10.55 -26.85 -8.7 -26.0 -6.9 -25.15 -5.65 -23.7 L-3.1 -20.95 Q-1.55 -19.4 0.05 -18.8 L-0.95 -19.1 -6.8 -23.0 Q-9.95 -25.35 -12.55 -24.8 -15.6 -24.65 -19.5 -23.2 -21.7 -22.35 -23.0 -21.5 L-26.7 -18.9 Q-31.0 -15.45 -32.3 -14.0 -36.2 -9.75 -36.95 -4.75 -37.0 5.55 -30.4 22.0 -27.7 28.7 -23.0 33.05 -17.95 37.65 -13.4 36.75 L-9.25 35.95 Q-7.35 35.25 -5.5 35.0 L-2.05 35.2 1.0 36.15 Q4.85 37.3 8.55 37.2 12.75 37.0 18.75 33.15 23.7 30.05 27.85 23.5 31.55 17.6 34.0 10.65 36.35 3.85 36.95 -2.4 37.2 -6.2 36.3 -7.6 L33.25 -11.55 Q30.6 -14.4 27.75 -16.6 23.35 -20.05 20.7 -21.3 17.1 -23.05 14.1 -22.35 12.9 -22.2 7.6 -19.95 3.35 -18.15 0.05 -18.8 3.2 -18.7 7.05 -21.0 11.85 -23.85 13.65 -24.35 18.0 -25.55 21.8 -23.65" fill="#781d25" fill-rule="evenodd" stroke="none"/>
    <path d="M-31.2 -1.2 Q-29.75 3.7 -26.15 5.8 -22.6 7.9 -17.6 6.75 -14.4 6.0 -10.05 2.4 -5.4 -1.5 -4.65 -4.7 -3.7 -8.65 -4.65 -12.15 -5.8 -16.3 -9.45 -17.8 -17.3 -20.95 -25.35 -15.3 -33.65 -9.5 -31.2 -1.2 M23.0 -20.05 Q24.8 -16.55 25.55 -12.45 26.35 -8.45 26.0 -4.9 L24.15 4.5 Q22.65 9.8 20.0 13.1 10.45 24.75 -3.95 26.95 -18.2 29.15 -30.7 21.25 -37.0 5.15 -36.95 -4.75 -36.2 -9.75 -32.3 -14.0 -31.0 -15.45 -26.7 -18.9 L-23.0 -21.5 Q-21.7 -22.35 -19.5 -23.2 -15.6 -24.65 -12.55 -24.8 -9.95 -25.35 -6.8 -23.0 L-0.95 -19.1 0.05 -18.8 Q3.35 -18.15 7.6 -19.95 12.9 -22.2 14.1 -22.35 17.8 -23.25 23.0 -20.05" fill="#cd4246" fill-rule="evenodd" stroke="none"/>
    <path d="M-25.15 -9.6 Q-24.45 -7.3 -22.8 -6.3 -21.1 -5.3 -18.8 -5.85 -17.25 -6.2 -15.2 -7.9 -13.05 -9.7 -12.7 -11.2 -12.25 -13.05 -12.7 -14.7 -13.25 -16.65 -14.95 -17.35 -18.6 -18.85 -22.4 -16.2 -26.3 -13.5 -25.15 -9.6 M-26.15 5.8 Q-29.75 3.7 -31.2 -1.2 -33.65 -9.5 -25.35 -15.3 -17.3 -20.95 -9.45 -17.8 -5.8 -16.3 -4.65 -12.15 -3.7 -8.65 -4.65 -4.7 -5.4 -1.5 -10.05 2.4 -14.4 6.0 -17.6 6.75 -22.6 7.9 -26.15 5.8" fill="#f26f77" fill-rule="evenodd" stroke="none"/>
    <path d="M-14.95 -17.35 Q-13.25 -16.65 -12.7 -14.7 -12.25 -13.05 -12.7 -11.2 -13.05 -9.7 -15.2 -7.9 -17.25 -6.2 -18.8 -5.85 -21.1 -5.3 -22.8 -6.3 -24.45 -7.3 -25.15 -9.6 -26.3 -13.5 -22.4 -16.2 -18.6 -18.85 -14.95 -17.35" fill="#ffcfd4" fill-rule="evenodd" stroke="none"/>
  </g>
</svg>
