<?xml version="1.0" encoding="UTF-8" standalone="no"?>
<svg xmlns:ffdec="https://www.free-decompiler.com/flash" xmlns:xlink="http://www.w3.org/1999/xlink" ffdec:objectType="shape" height="80.4px" width="80.75px" xmlns="http://www.w3.org/2000/svg">
  <g transform="matrix(1.0, 0.0, 0.0, 1.0, 40.35, 40.2)">
    <path d="M-33.95 1.15 L-35.05 0.5 -16.15 -7.3 -16.0 -7.4 -7.35 16.35 -33.95 1.15 M-38.7 -19.25 L-33.7 -21.95 -36.6 -6.55 -38.65 -19.05 -38.7 -19.25 M30.0 -12.55 L28.35 7.55 16.7 -5.4 30.0 -12.55 M32.85 -15.5 L32.85 -15.55 32.8 -15.7 33.2 -15.8 33.7 -14.25 33.0 -15.3 32.95 -15.4 32.85 -15.5" fill="#f071bc" fill-rule="evenodd" stroke="none"/>
    <path d="M-37.1 2.55 L-36.25 3.0 Q-35.75 3.2 -35.3 3.55 L-6.65 19.9 -5.95 20.35 Q-6.5 20.9 -6.7 21.75 L-8.4 28.9 -10.1 35.95 -29.35 10.85 Q-32.95 6.25 -37.1 2.55 M14.5 -3.45 L14.6 -3.6 26.9 10.05 -1.3 17.1 -1.2 17.0 14.5 -3.45" fill="#d04b8b" fill-rule="evenodd" stroke="none"/>
    <path d="M-4.35 16.55 L-13.55 -8.7 Q-0.7 -6.45 12.2 -4.95 L-4.35 16.55 M-17.7 -9.65 L-34.55 -2.7 -30.9 -22.05 -17.7 -9.65 M26.1 -28.1 L30.4 -15.85 14.1 -7.1 10.85 -7.55 10.4 -7.65 -13.75 -11.25 -15.7 -11.55 -29.3 -24.05 -30.25 -24.9 -29.4 -26.4 -26.55 -30.85 Q-24.55 -33.85 -23.65 -35.6 L-23.6 -35.65 -6.5 -37.7 8.5 -35.9 26.1 -28.1" fill="#ffdaf7" fill-rule="evenodd" stroke="none"/>
    <path d="M-4.35 16.55 L12.2 -4.95 Q-0.7 -6.45 -13.55 -8.7 L-4.35 16.55 M-30.9 -22.05 L-34.55 -2.7 -17.7 -9.65 -30.9 -22.05 M-36.25 3.0 L-37.1 2.55 Q-32.95 6.25 -29.35 10.85 L-10.1 35.95 -8.4 28.9 -6.7 21.75 Q-6.5 20.9 -5.95 20.35 L-6.65 19.9 -35.3 3.55 Q-35.75 3.2 -36.25 3.0 M-35.05 0.5 L-33.95 1.15 -7.35 16.35 -16.0 -7.4 -16.15 -7.3 -35.05 0.5 M-38.7 -19.25 L-38.65 -19.05 -36.6 -6.55 -33.7 -21.95 -38.7 -19.25 M-32.7 -25.7 L-32.55 -25.75 -32.5 -25.8 -32.4 -25.75 -31.15 -27.45 -32.85 -25.6 -32.7 -25.7 M28.35 7.55 L30.0 -12.55 16.7 -5.4 28.35 7.55 M14.6 -3.6 L14.5 -3.45 -1.2 17.0 -1.3 17.1 26.9 10.05 14.6 -3.6 M32.85 -15.55 L32.85 -15.5 32.95 -15.4 33.0 -15.3 33.7 -14.25 30.45 -24.55 32.8 -15.7 32.85 -15.55 M26.15 -30.5 L28.7 -29.05 28.85 -28.95 28.85 -29.0 29.55 -28.1 29.55 -28.0 29.65 -27.75 29.95 -26.6 35.95 -13.85 39.85 -4.7 40.35 -4.9 39.5 -4.5 Q34.8 4.65 31.95 9.35 31.65 9.55 31.5 10.0 L31.2 10.8 Q30.75 11.7 28.9 12.35 L28.75 12.5 30.05 11.95 25.6 16.25 20.25 20.35 -8.45 40.05 -8.5 40.1 -8.6 40.15 -8.65 40.2 -10.5 39.9 -10.55 39.85 -31.55 12.5 -35.35 6.95 -38.3 1.5 -37.65 2.05 -38.55 1.05 -39.2 -5.2 -40.1 -13.55 Q-40.5 -17.85 -40.3 -21.2 L-34.65 -26.65 -26.35 -33.4 -23.35 -35.9 -23.6 -35.65 -23.65 -35.6 Q-24.55 -33.85 -26.55 -30.85 L-29.4 -26.4 -30.25 -24.9 -29.3 -24.05 -15.7 -11.55 14.1 -7.1 30.4 -15.85 26.1 -28.1 8.5 -35.9 -6.5 -37.7 -23.6 -35.65 -19.95 -36.75 -6.45 -40.2 8.85 -38.6 15.25 -35.55 26.15 -30.5" fill="#883362" fill-rule="evenodd" stroke="none"/>
    <path d="M-7.8 -32.7 Q-4.8 -32.4 -2.75 -31.35 -0.75 -30.3 -0.85 -29.05 -1.0 -27.85 -3.2 -27.2 L-8.35 -26.8 Q-11.35 -27.1 -13.4 -28.15 -15.4 -29.2 -15.3 -30.45 -15.15 -31.65 -12.95 -32.3 L-7.8 -32.7 M3.85 -31.75 Q4.9 -31.65 5.6 -31.1 6.3 -30.6 6.2 -29.9 6.15 -29.2 5.35 -28.8 4.55 -28.4 3.5 -28.5 2.45 -28.55 1.75 -29.1 1.1 -29.65 1.15 -30.35 1.2 -31.05 2.0 -31.45 L3.85 -31.75" fill="#ffffff" fill-rule="evenodd" stroke="none"/>
  </g>
</svg>
