<?xml version="1.0" encoding="UTF-8" standalone="no"?>
<svg xmlns:ffdec="https://www.free-decompiler.com/flash" xmlns:xlink="http://www.w3.org/1999/xlink" ffdec:objectType="shape" height="80.8px" width="80.05px" xmlns="http://www.w3.org/2000/svg">
  <g transform="matrix(1.0, 0.0, 0.0, 1.0, 40.0, 40.4)">
    <path d="M37.4 6.7 Q34.25 10.95 27.9 14.8 15.2 22.5 -0.6 20.4 -16.6 18.2 -27.35 10.45 -32.95 6.4 -36.55 1.1 -37.7 -0.55 -38.9 -8.75 L-39.95 -16.6 Q-40.4 -22.8 -32.8 -30.15 -28.35 -34.45 -17.3 -35.45 -6.9 -36.4 5.45 -34.25 18.05 -32.05 27.25 -27.55 37.35 -22.55 40.0 -16.4 38.75 0.45 37.4 6.7" fill="#242d20" fill-rule="evenodd" stroke="none"/>
    <path d="M-1.9 -37.0 L-1.2 -35.5 Q0.0 -32.1 -1.35 -28.65 -2.75 -25.15 -6.0 -24.0 -8.85 -22.9 -11.85 -24.6 -14.3 -26.0 -16.2 -28.8 L-16.95 -30.25 Q-16.2 -33.75 -13.45 -36.0 -10.6 -38.35 -6.95 -38.35 -4.15 -38.35 -1.9 -37.0" fill="#f68042" fill-rule="evenodd" stroke="none"/>
    <path d="M-1.45 -28.35 Q-0.1 -31.55 -1.05 -34.85 -2.8 -36.45 -5.15 -36.9 -8.8 -37.7 -11.8 -35.7 -14.15 -34.25 -15.2 -31.65 -15.95 -29.9 -15.95 -28.4 -13.95 -25.75 -11.6 -24.5 -8.75 -22.95 -6.0 -24.0 -2.9 -25.15 -1.45 -28.35 M0.65 -36.75 Q4.75 -33.2 4.3 -27.6 3.85 -22.65 0.65 -19.55 -1.55 -17.55 -4.65 -16.9 -6.7 -16.45 -8.9 -16.85 -11.3 -17.2 -13.1 -18.45 -16.6 -20.65 -17.95 -24.7 L-18.4 -27.2 -18.45 -28.15 Q-18.55 -29.55 -17.95 -31.6 -16.6 -35.6 -13.1 -37.85 -11.3 -39.05 -8.9 -39.45 -6.7 -39.85 -4.65 -39.4 -2.05 -38.85 0.65 -36.75" fill="#cb602d" fill-rule="evenodd" stroke="none"/>
    <path d="M-6.95 -33.1 Q-6.95 -31.85 -7.85 -30.95 -8.75 -30.1 -10.0 -30.1 -11.3 -30.1 -12.15 -30.95 -13.05 -31.85 -13.05 -33.1 -13.05 -34.35 -12.15 -35.25 -11.3 -36.15 -10.0 -36.15 -8.75 -36.15 -7.85 -35.25 -6.95 -34.35 -6.95 -33.1" fill="#febfa9" fill-rule="evenodd" stroke="none"/>
    <path d="M-14.7 -36.3 Q-13.5 -32.85 -14.85 -29.4 -16.2 -25.95 -19.55 -24.75 -22.45 -23.7 -25.35 -25.35 -27.8 -26.75 -29.75 -29.6 -30.2 -30.2 -30.45 -31.1 -29.75 -34.6 -27.0 -36.85 -24.15 -39.2 -20.5 -39.2 -17.85 -39.2 -15.45 -37.85 L-14.7 -36.3" fill="#f68042" fill-rule="evenodd" stroke="none"/>
    <path d="M-14.55 -35.65 L-14.55 -35.7 Q-16.2 -37.25 -18.65 -37.75 -20.2 -38.05 -22.0 -37.8 -23.85 -37.45 -25.3 -36.5 -27.7 -35.1 -28.75 -32.4 -29.45 -30.7 -29.45 -29.2 -27.5 -26.55 -25.15 -25.25 -22.25 -23.7 -19.55 -24.75 -16.45 -25.95 -15.0 -29.15 -13.6 -32.3 -14.55 -35.65 M-12.9 -37.5 Q-8.8 -34.0 -9.25 -28.35 -9.6 -23.35 -12.9 -20.3 -15.0 -18.4 -18.15 -17.7 -20.15 -17.25 -22.45 -17.65 -24.75 -18.05 -26.65 -19.25 -30.2 -21.45 -31.4 -25.5 L-31.9 -28.0 -31.95 -28.9 Q-32.0 -30.35 -31.4 -32.35 -30.2 -36.4 -26.65 -38.65 -24.8 -39.85 -22.45 -40.25 -20.2 -40.6 -18.15 -40.2 -15.3 -39.55 -12.9 -37.5" fill="#cb602d" fill-rule="evenodd" stroke="none"/>
    <path d="M-20.5 -33.9 Q-20.5 -32.65 -21.4 -31.75 -22.25 -30.85 -23.55 -30.85 -24.8 -30.85 -25.65 -31.75 -26.55 -32.65 -26.55 -33.9 -26.55 -35.15 -25.65 -36.0 -24.75 -36.9 -23.55 -36.9 -22.25 -36.9 -21.4 -36.0 -20.5 -35.2 -20.5 -33.9" fill="#febfa9" fill-rule="evenodd" stroke="none"/>
    <path d="M-27.75 -26.9 Q-25.05 -26.9 -22.7 -25.55 L-22.05 -24.05 Q-20.8 -20.6 -22.15 -17.15 -23.55 -13.65 -26.8 -12.5 -29.7 -11.45 -32.65 -13.1 -35.05 -14.5 -37.0 -17.35 -37.55 -18.05 -37.8 -18.85 -37.0 -22.3 -34.25 -24.6 -31.4 -26.9 -27.75 -26.9" fill="#f68042" fill-rule="evenodd" stroke="none"/>
    <path d="M-38.75 -20.1 Q-38.25 -21.8 -37.05 -23.35 -35.75 -25.25 -33.9 -26.35 -32.1 -27.6 -29.7 -28.0 L-25.4 -27.9 Q-22.5 -27.3 -20.15 -25.25 -16.05 -21.75 -16.5 -16.1 -16.95 -11.1 -20.15 -8.05 -22.45 -6.05 -25.4 -5.45 -27.4 -4.95 -29.7 -5.4 -32.1 -5.8 -33.9 -7.0 -35.75 -8.1 -37.05 -9.95 -38.25 -11.55 -38.75 -13.25 L-39.25 -15.7 -39.25 -16.65 Q-39.35 -18.05 -38.75 -20.1 M-29.25 -25.55 Q-31.15 -25.2 -32.6 -24.25 -34.95 -22.8 -36.0 -20.15 -36.75 -18.45 -36.75 -16.95 -34.8 -14.3 -32.4 -13.0 -29.6 -11.45 -26.8 -12.5 -23.7 -13.65 -22.25 -16.9 -20.9 -20.05 -21.8 -23.35 L-21.8 -23.45 Q-23.7 -25.0 -25.9 -25.5 -27.5 -25.8 -29.25 -25.55" fill="#cb602d" fill-rule="evenodd" stroke="none"/>
    <path d="M-27.75 -21.65 Q-27.75 -20.4 -28.65 -19.5 -29.55 -18.6 -30.8 -18.6 -32.1 -18.6 -32.95 -19.5 -33.85 -20.4 -33.85 -21.65 -33.85 -22.9 -32.95 -23.75 -32.1 -24.65 -30.8 -24.65 -29.55 -24.65 -28.65 -23.75 -27.75 -22.9 -27.75 -21.65" fill="#febfa9" fill-rule="evenodd" stroke="none"/>
    <path d="M8.8 -34.95 Q11.5 -34.95 13.9 -33.65 L14.55 -32.1 Q15.75 -28.7 14.45 -25.25 13.05 -21.75 9.8 -20.6 6.95 -19.5 3.9 -21.2 1.45 -22.6 -0.5 -25.35 L-1.2 -26.85 Q-0.4 -30.35 2.35 -32.65 5.2 -34.95 8.8 -34.95" fill="#f68042" fill-rule="evenodd" stroke="none"/>
    <path d="M14.75 -31.45 L14.7 -31.45 Q13.05 -33.0 10.6 -33.5 L7.3 -33.6 Q5.4 -33.25 3.95 -32.3 1.65 -30.85 0.6 -28.2 -0.1 -26.6 -0.2 -25.0 1.8 -22.3 4.1 -21.05 7.05 -19.55 9.8 -20.6 12.9 -21.7 14.25 -24.95 15.65 -28.1 14.75 -31.45 M6.85 -36.0 Q9.1 -36.4 11.1 -35.95 13.85 -35.4 16.4 -33.35 20.5 -29.8 20.05 -24.15 19.65 -19.15 16.4 -16.15 14.4 -14.15 11.1 -13.5 9.05 -13.05 6.85 -13.45 4.45 -13.85 2.65 -15.05 -0.9 -17.25 -2.15 -21.3 L-2.65 -23.75 -2.7 -24.75 Q-2.75 -26.15 -2.15 -28.2 -0.9 -32.25 2.65 -34.4 4.5 -35.65 6.85 -36.0" fill="#cb602d" fill-rule="evenodd" stroke="none"/>
    <path d="M8.8 -29.7 Q8.8 -28.4 7.9 -27.55 7.0 -26.65 5.8 -26.65 4.5 -26.65 3.65 -27.55 2.75 -28.4 2.75 -29.7 2.75 -30.95 3.65 -31.85 4.5 -32.75 5.8 -32.75 7.0 -32.75 7.9 -31.85 8.8 -30.95 8.8 -29.7" fill="#febfa9" fill-rule="evenodd" stroke="none"/>
    <path d="M-3.05 -31.75 L-2.3 -30.2 Q-1.1 -26.75 -2.45 -23.3 -3.85 -19.85 -7.15 -18.65 -10.0 -17.6 -12.95 -19.25 -15.4 -20.65 -17.35 -23.5 L-18.1 -25.0 Q-17.35 -28.5 -14.55 -30.75 -11.75 -33.1 -8.05 -33.1 -5.4 -33.1 -3.05 -31.75" fill="#f68042" fill-rule="evenodd" stroke="none"/>
    <path d="M-2.15 -29.55 L-2.15 -29.6 Q-3.8 -31.15 -6.25 -31.65 -7.8 -31.95 -9.55 -31.7 -11.45 -31.35 -12.9 -30.4 -15.3 -29.0 -16.35 -26.3 -17.05 -24.6 -17.05 -23.1 -15.05 -20.45 -12.75 -19.15 -9.85 -17.6 -7.15 -18.65 -4.05 -19.85 -2.6 -23.05 -1.2 -26.2 -2.15 -29.55 M-5.75 -34.1 Q-2.85 -33.45 -0.5 -31.4 3.65 -27.9 3.2 -22.25 2.75 -17.25 -0.5 -14.2 -2.6 -12.3 -5.75 -11.6 -7.75 -11.15 -10.0 -11.55 -12.35 -11.95 -14.25 -13.15 -17.65 -15.35 -19.05 -19.4 L-19.5 -21.9 -19.55 -22.8 Q-19.65 -24.2 -19.05 -26.25 -17.7 -30.35 -14.25 -32.55 -12.4 -33.75 -10.0 -34.15 -7.8 -34.5 -5.75 -34.1" fill="#cb602d" fill-rule="evenodd" stroke="none"/>
    <path d="M-8.05 -27.8 Q-8.05 -26.55 -8.95 -25.65 -9.85 -24.75 -11.1 -24.75 -12.4 -24.75 -13.3 -25.65 -14.15 -26.55 -14.15 -27.8 -14.15 -29.05 -13.3 -29.9 -12.4 -30.8 -11.1 -30.8 -9.85 -30.8 -8.95 -29.9 -8.05 -29.05 -8.05 -27.8" fill="#febfa9" fill-rule="evenodd" stroke="none"/>
    <path d="M-10.5 -16.85 Q-10.1 -16.1 -9.85 -15.2 -8.65 -11.65 -9.95 -8.1 -11.3 -4.5 -14.45 -3.3 -17.15 -2.15 -20.0 -3.9 -22.25 -5.35 -24.2 -8.25 L-24.85 -9.8 Q-24.2 -13.45 -21.55 -15.85 -18.85 -18.2 -15.35 -18.2 -12.8 -18.2 -10.5 -16.85" fill="#f68042" fill-rule="evenodd" stroke="none"/>
    <path d="M-13.6 -16.7 L-16.8 -16.8 Q-18.55 -16.45 -19.95 -15.45 -22.2 -13.95 -23.25 -11.15 -23.95 -9.4 -23.95 -7.85 -22.05 -5.05 -19.75 -3.8 -17.05 -2.2 -14.45 -3.3 -11.45 -4.4 -10.05 -7.85 -8.75 -11.05 -9.6 -14.55 L-9.7 -14.6 Q-11.45 -16.2 -13.6 -16.7 M-17.15 -19.35 L-13.1 -19.25 Q-10.35 -18.65 -8.05 -16.55 -4.15 -12.85 -4.6 -7.0 -4.95 -1.85 -8.05 1.35 -10.35 3.45 -13.1 4.1 -15.05 4.6 -17.15 4.15 -19.45 3.75 -21.2 2.45 -24.6 0.2 -25.8 -4.0 L-26.25 -6.65 -26.3 -7.65 Q-26.35 -9.05 -25.8 -11.15 -24.6 -15.4 -21.2 -17.65 -19.45 -18.95 -17.15 -19.35" fill="#cb602d" fill-rule="evenodd" stroke="none"/>
    <path d="M-15.35 -12.75 Q-15.35 -11.45 -16.15 -10.5 -17.0 -9.55 -18.2 -9.55 -19.45 -9.55 -20.25 -10.5 -21.15 -11.45 -21.15 -12.75 -21.15 -14.05 -20.25 -14.95 -19.45 -15.9 -18.2 -15.9 -17.0 -15.9 -16.15 -14.95 -15.35 -14.05 -15.35 -12.75" fill="#febfa9" fill-rule="evenodd" stroke="none"/>
    <path d="M27.65 -25.1 Q28.85 -21.65 27.45 -18.2 26.1 -14.7 22.8 -13.55 19.9 -12.5 17.0 -14.15 14.55 -15.55 12.6 -18.4 12.2 -18.9 11.85 -19.9 12.6 -23.35 15.4 -25.65 18.2 -28.0 21.85 -28.0 24.55 -28.0 26.9 -26.65 L27.65 -25.1" fill="#f68042" fill-rule="evenodd" stroke="none"/>
    <path d="M27.8 -24.45 L27.8 -24.5 Q26.15 -26.05 23.7 -26.55 22.15 -26.85 20.35 -26.6 18.5 -26.25 17.05 -25.3 14.65 -23.85 13.6 -21.2 12.9 -19.5 12.9 -18.0 14.9 -15.35 17.2 -14.05 20.1 -12.5 22.8 -13.55 25.9 -14.7 27.35 -17.95 28.75 -21.1 27.8 -24.45 M29.45 -26.3 Q33.55 -22.8 33.1 -17.15 32.7 -12.15 29.45 -9.1 27.35 -7.2 24.2 -6.5 22.2 -6.05 19.9 -6.45 17.6 -6.85 15.7 -8.05 12.25 -10.25 10.9 -14.3 10.5 -15.55 10.45 -16.8 L10.4 -17.7 Q10.3 -19.15 10.9 -21.15 12.2 -25.25 15.7 -27.4 17.55 -28.65 19.9 -29.05 22.15 -29.4 24.2 -29.0 27.1 -28.35 29.45 -26.3" fill="#cb602d" fill-rule="evenodd" stroke="none"/>
    <path d="M21.85 -22.7 Q21.85 -21.45 21.0 -20.55 20.1 -19.65 18.8 -19.65 17.55 -19.65 16.65 -20.55 15.75 -21.45 15.75 -22.7 15.75 -23.95 16.65 -24.8 17.55 -25.7 18.8 -25.7 20.1 -25.7 21.0 -24.8 21.85 -23.95 21.85 -22.7" fill="#febfa9" fill-rule="evenodd" stroke="none"/>
    <path d="M7.1 -23.6 Q9.8 -23.6 12.15 -22.25 L12.85 -20.7 Q14.05 -17.25 12.7 -13.9 11.35 -10.4 8.05 -9.25 5.25 -8.1 2.25 -9.85 -0.2 -11.15 -2.15 -14.0 L-2.9 -15.5 Q-2.15 -19.0 0.65 -21.25 3.45 -23.6 7.1 -23.6" fill="#f68042" fill-rule="evenodd" stroke="none"/>
    <path d="M9.45 -24.65 Q12.1 -24.1 14.7 -22.0 18.8 -18.45 18.35 -12.85 17.95 -7.9 14.7 -4.8 12.4 -2.75 9.45 -2.15 7.4 -1.7 5.2 -2.1 2.8 -2.45 0.95 -3.7 -2.55 -5.85 -3.85 -9.95 L-4.3 -12.45 -4.35 -13.4 Q-4.45 -14.8 -3.85 -16.85 -2.45 -20.9 0.95 -23.05 2.8 -24.25 5.2 -24.7 7.4 -25.1 9.45 -24.65 M8.95 -22.15 Q7.35 -22.5 5.6 -22.2 3.75 -21.9 2.3 -20.95 -0.1 -19.5 -1.15 -16.9 -1.85 -15.15 -1.85 -13.65 0.1 -10.95 2.45 -9.7 5.3 -8.2 8.05 -9.25 11.15 -10.35 12.6 -13.6 14.0 -16.8 13.05 -20.1 11.15 -21.65 8.95 -22.15" fill="#cb602d" fill-rule="evenodd" stroke="none"/>
    <path d="M7.1 -18.35 Q7.1 -17.05 6.25 -16.15 5.35 -15.3 4.05 -15.3 2.85 -15.3 1.9 -16.15 1.0 -17.05 1.0 -18.35 1.0 -19.55 1.9 -20.5 2.85 -21.4 4.05 -21.4 5.35 -21.4 6.25 -20.5 7.1 -19.55 7.1 -18.35" fill="#febfa9" fill-rule="evenodd" stroke="none"/>
    <path d="M5.5 -14.55 L6.2 -13.0 Q7.4 -9.55 6.05 -6.15 4.7 -2.65 1.4 -1.45 -1.45 -0.4 -4.4 -2.1 -6.85 -3.45 -8.8 -6.3 -9.35 -7.0 -9.55 -7.8 -8.8 -11.3 -6.0 -13.55 -3.2 -15.9 0.45 -15.9 3.15 -15.9 5.5 -14.55" fill="#f68042" fill-rule="evenodd" stroke="none"/>
    <path d="M5.95 -5.85 Q7.35 -9.0 6.4 -12.35 L6.4 -12.4 Q4.5 -13.95 2.25 -14.45 0.7 -14.8 -1.05 -14.5 -2.9 -14.15 -4.35 -13.25 -6.7 -11.8 -7.8 -9.1 -8.45 -7.5 -8.55 -5.9 -6.6 -3.25 -4.25 -1.95 -1.35 -0.4 1.4 -1.45 4.5 -2.65 5.95 -5.85 M8.0 -14.2 Q12.15 -10.75 11.7 -5.05 11.3 -0.15 8.05 2.95 5.8 4.95 2.8 5.55 L-1.45 5.65 Q-3.85 5.25 -5.7 4.0 -7.5 2.9 -8.85 1.1 -10.0 -0.55 -10.5 -2.2 L-11.0 -4.7 -11.0 -5.65 Q-11.1 -7.05 -10.5 -9.05 -9.3 -13.1 -5.7 -15.35 -3.85 -16.55 -1.45 -16.95 0.75 -17.35 2.8 -16.9 5.85 -16.2 8.0 -14.2" fill="#cb602d" fill-rule="evenodd" stroke="none"/>
    <path d="M0.45 -10.6 Q0.45 -9.35 -0.4 -8.45 -1.3 -7.55 -2.6 -7.55 -3.85 -7.55 -4.75 -8.45 -5.65 -9.35 -5.65 -10.6 -5.65 -11.85 -4.75 -12.75 -3.85 -13.6 -2.6 -13.6 -1.3 -13.6 -0.4 -12.75 0.45 -11.85 0.45 -10.6" fill="#febfa9" fill-rule="evenodd" stroke="none"/>
    <path d="M32.2 -16.5 L32.85 -15.0 Q34.05 -11.55 32.75 -8.1 31.35 -4.65 28.0 -3.45 25.2 -2.35 22.2 -4.1 19.75 -5.45 17.8 -8.3 L17.1 -9.8 Q17.8 -13.3 20.6 -15.55 23.4 -17.9 27.1 -17.9 29.85 -17.9 32.2 -16.5" fill="#f68042" fill-rule="evenodd" stroke="none"/>
    <path d="M33.0 -14.35 Q31.45 -15.9 28.9 -16.45 27.35 -16.8 25.6 -16.5 23.7 -16.15 22.25 -15.2 19.9 -13.8 18.85 -11.1 18.2 -9.5 18.1 -7.9 20.1 -5.25 22.4 -3.95 25.3 -2.4 28.0 -3.45 31.1 -4.6 32.55 -7.85 33.95 -11.0 33.05 -14.35 L33.0 -14.35 M29.4 -18.9 Q32.3 -18.25 34.65 -16.2 38.75 -12.75 38.35 -7.05 37.95 -2.1 34.65 0.95 32.5 2.95 29.4 3.65 27.4 4.1 25.15 3.7 22.8 3.25 20.9 2.0 17.35 -0.15 16.15 -4.2 15.75 -5.4 15.65 -6.7 L15.6 -7.65 Q15.55 -9.0 16.15 -11.05 17.35 -15.1 20.9 -17.35 22.75 -18.55 25.15 -18.95 27.35 -19.35 29.4 -18.9" fill="#cb602d" fill-rule="evenodd" stroke="none"/>
    <path d="M27.1 -12.6 Q27.1 -11.35 26.2 -10.45 25.3 -9.55 24.05 -9.55 22.75 -9.55 21.9 -10.45 21.05 -11.35 21.05 -12.6 21.05 -13.85 21.9 -14.7 22.8 -15.6 24.05 -15.6 25.3 -15.6 26.2 -14.7 27.1 -13.9 27.1 -12.6" fill="#febfa9" fill-rule="evenodd" stroke="none"/>
    <path d="M15.7 6.05 Q12.9 7.2 9.9 5.45 7.45 4.1 5.5 1.25 L4.75 -0.2 Q5.5 -3.7 8.3 -5.95 11.1 -8.3 14.75 -8.3 17.6 -8.3 19.8 -6.95 L20.55 -5.45 Q21.75 -2.0 20.35 1.4 19.0 4.9 15.7 6.05" fill="#f68042" fill-rule="evenodd" stroke="none"/>
    <path d="M20.7 -4.8 Q18.95 -6.4 16.6 -6.9 15.0 -7.25 13.25 -6.9 11.4 -6.55 9.95 -5.65 7.55 -4.2 6.5 -1.6 5.8 0.15 5.8 1.65 7.8 4.3 10.1 5.55 13.0 7.15 15.7 6.05 18.8 4.9 20.25 1.7 21.65 -1.45 20.7 -4.8 M17.1 -9.35 Q20.0 -8.75 22.35 -6.7 26.45 -3.15 26.0 2.45 25.6 7.4 22.35 10.5 20.2 12.5 17.1 13.15 L12.85 13.25 Q10.45 12.8 8.6 11.55 5.2 9.4 3.8 5.35 3.4 4.1 3.35 2.85 L3.3 1.9 Q3.2 0.55 3.8 -1.5 5.1 -5.65 8.6 -7.8 10.45 -9.0 12.85 -9.4 15.05 -9.8 17.1 -9.35" fill="#cb602d" fill-rule="evenodd" stroke="none"/>
    <path d="M14.75 -3.0 Q14.75 -1.8 13.9 -0.9 13.0 -0.05 11.7 -0.05 10.45 -0.05 9.55 -0.9 8.65 -1.8 8.65 -3.0 8.65 -4.3 9.55 -5.2 10.45 -6.05 11.7 -6.05 13.0 -6.05 13.9 -5.2 14.75 -4.3 14.75 -3.0" fill="#febfa9" fill-rule="evenodd" stroke="none"/>
    <path d="M36.9 -1.5 L34.0 1.75 Q25.85 9.4 13.15 9.4 3.7 9.4 -6.75 5.0 -14.85 1.7 -37.45 -11.75 -36.8 -5.05 -34.45 4.45 -32.35 13.0 -30.8 16.7 -23.75 23.85 -16.65 28.2 -9.6 32.6 0.8 36.2 6.25 38.0 11.05 38.0 20.8 38.0 27.65 30.75 33.4 24.65 34.4 17.0 L34.4 16.95 Q36.05 6.45 36.9 -1.5 M27.15 3.85 Q39.25 -2.6 40.0 -16.4 40.4 -6.7 36.6 17.35 35.15 28.0 26.45 35.0 15.6 43.75 0.15 38.35 -10.85 34.5 -18.35 29.85 -25.55 25.35 -32.7 18.05 -34.7 13.6 -37.2 2.8 -40.0 -9.4 -39.85 -15.85 -15.3 -1.05 -5.85 2.9 13.65 11.0 27.15 3.85" fill="#242d20" fill-rule="evenodd" stroke="none"/>
    <path d="M13.15 9.4 L16.5 9.25 Q16.45 13.5 17.55 22.15 18.0 29.7 14.95 33.9 12.75 36.55 9.45 37.95 5.4 37.75 0.8 36.2 -9.6 32.6 -16.65 28.2 -23.75 23.85 -30.8 16.7 -32.35 13.0 -34.45 4.45 -36.8 -5.05 -37.45 -11.75 -14.85 1.7 -6.75 5.0 3.7 9.4 13.15 9.4" fill="#4c5947" fill-rule="evenodd" stroke="none"/>
    <path d="M34.0 1.75 L36.9 -1.5 Q36.05 6.45 34.4 16.95 L34.4 17.0 Q33.4 24.65 27.65 30.75 20.8 38.0 11.05 38.0 L9.45 37.95 Q12.75 36.55 14.95 33.9 18.0 29.7 17.55 22.15 16.45 13.5 16.5 9.25 27.0 8.3 34.0 1.75" fill="#242d20" fill-rule="evenodd" stroke="none"/>
  </g>
</svg>
