<?xml version="1.0" encoding="UTF-8" standalone="no"?>
<svg xmlns:ffdec="https://www.free-decompiler.com/flash" xmlns:xlink="http://www.w3.org/1999/xlink" ffdec:objectType="shape" height="220.0px" width="640.0px" xmlns="http://www.w3.org/2000/svg">
  <g transform="matrix(1.0, 0.0, 0.0, 1.0, 320.0, 110.0)">
    <path d="M320.0 -110.0 L320.0 110.0 -320.0 110.0 -320.0 -110.0 320.0 -110.0" fill="#d0d0d0" fill-rule="evenodd" stroke="none"/>
    <path d="M-319.0 -96.0 L319.0 -96.0 319.0 109.0 -319.0 109.0 -319.0 -96.0" fill="#ffffff" fill-rule="evenodd" stroke="none"/>
    <path d="M155.05 94.55 L152.05 94.55 M142.05 94.55 L137.55 94.55 Q135.55 94.55 135.55 96.55 L135.55 101.0 M152.05 105.55 L155.05 105.55 M135.55 102.0 L135.55 103.55 Q135.55 105.55 137.55 105.55 L142.05 105.55 M165.05 94.55 L158.05 94.55 M158.05 105.55 L165.05 105.55" fill="none" stroke="#ffffff" stroke-linecap="round" stroke-linejoin="round" stroke-width="1.0"/>
    <path d="M242.15 81.15 L243.2 81.4 243.75 82.3 242.8 82.45 242.6 82.05 242.15 81.9 Q241.8 81.9 241.6 82.15 241.35 82.4 241.35 82.95 241.35 83.65 241.6 83.85 241.8 84.15 242.15 84.15 L242.6 84.0 242.85 83.45 243.8 83.65 243.25 84.6 242.1 84.9 Q241.3 84.9 240.85 84.45 240.35 83.95 240.35 83.05 240.35 82.15 240.85 81.65 241.3 81.15 242.15 81.15 M251.2 79.4 Q251.65 79.4 251.9 79.65 L252.1 80.15 251.65 80.8 252.1 81.05 252.25 81.5 251.95 82.15 251.25 82.45 Q250.8 82.45 250.55 82.25 L250.25 81.6 250.8 81.55 250.95 81.9 251.25 82.0 251.5 81.85 251.65 81.5 251.5 81.15 251.25 81.0 251.0 81.05 251.05 80.6 251.4 80.5 251.5 80.2 251.45 79.95 251.2 79.85 250.95 79.95 250.8 80.25 250.3 80.15 250.45 79.75 250.75 79.45 251.2 79.4 M249.2 81.3 L249.65 81.75 249.75 82.55 249.75 84.85 248.75 84.85 248.75 82.8 248.7 82.1 248.25 81.9 247.9 82.0 Q247.7 82.1 247.65 82.35 L247.55 83.1 247.55 84.85 246.6 84.85 246.6 82.85 246.55 82.2 246.4 81.95 246.1 81.9 245.7 82.0 Q245.5 82.1 245.45 82.35 L245.35 83.1 245.35 84.85 244.4 84.85 244.4 81.2 245.3 81.2 245.3 81.7 Q245.75 81.15 246.4 81.15 L247.0 81.3 247.45 81.7 Q247.65 81.4 247.95 81.3 L248.55 81.15 249.2 81.3" fill="#ffffff" fill-rule="evenodd" stroke="none"/>
    <path d="M320.0 -73.0 L-320.0 -73.0 -320.0 -110.0 320.0 -110.0 320.0 -73.0" fill="#d0d0d0" fill-rule="evenodd" stroke="none"/>
  </g>
</svg>
