<?xml version="1.0" encoding="UTF-8" standalone="no"?>
<svg xmlns:ffdec="https://www.free-decompiler.com/flash" xmlns:xlink="http://www.w3.org/1999/xlink" ffdec:objectType="shape" height="76.55px" width="79.6px" xmlns="http://www.w3.org/2000/svg">
  <g transform="matrix(1.0, 0.0, 0.0, 1.0, 39.8, 38.3)">
    <path d="M-21.05 8.4 L-23.55 8.95 -26.4 10.05 Q-27.55 11.7 -28.25 13.75 -29.75 18.15 -29.25 23.05 -28.8 27.7 -26.9 29.4 L-26.65 29.65 Q-22.75 32.5 -17.35 33.95 -13.65 34.95 -9.9 34.95 L-3.35 34.05 Q-6.6 29.35 -9.0 20.35 -10.9 13.55 -11.55 7.6 L-21.05 8.4 M-32.75 6.7 L-32.8 6.75 Q-36.25 5.0 -37.0 5.8 -37.75 6.55 -37.2 9.6 -36.7 12.6 -35.65 13.2 L-35.4 13.3 -35.75 16.25 Q-34.35 19.55 -32.5 21.55 -32.45 17.25 -31.5 14.0 -30.35 10.0 -28.0 8.7 -29.6 8.3 -32.75 6.7 M17.85 -1.3 Q8.2 -5.8 4.9 -4.8 L3.75 -4.6 Q2.35 -4.1 0.75 -3.2 -4.35 -0.35 -7.1 2.9 -8.3 4.35 -8.6 5.35 -9.7 8.7 -5.0 20.85 -0.15 33.4 3.8 34.85 8.1 35.45 15.8 32.45 24.65 29.05 28.1 23.8 L27.7 23.25 Q30.7 21.35 32.85 17.7 L32.0 16.85 Q34.85 13.9 34.85 12.75 34.7 10.9 32.4 8.35 27.7 3.3 17.85 -1.3 M35.85 -14.65 L34.2 -18.8 33.05 -20.35 Q32.3 -23.5 29.5 -24.75 27.6 -25.55 24.3 -25.55 17.05 -25.55 13.8 -20.65 L13.2 -19.6 11.6 -15.9 8.75 -8.25 8.2 -6.65 Q11.9 -5.8 21.5 -0.9 30.9 3.85 35.1 6.9 36.65 3.35 37.15 -1.05 37.6 -5.45 36.9 -9.9 L35.85 -14.65 M25.4 -27.35 Q25.1 -29.3 22.8 -31.45 20.15 -33.9 16.85 -35.25 13.5 -36.65 13.0 -35.45 12.8 -34.85 13.3 -32.6 L14.3 -28.15 Q14.75 -25.9 14.6 -24.55 17.45 -26.1 19.5 -26.7 22.55 -27.7 25.4 -27.35 M25.9 -31.5 Q28.45 -29.2 30.8 -25.75 L33.5 -24.05 Q35.0 -22.7 35.85 -21.05 39.05 -14.65 39.7 -5.65 40.35 3.85 37.55 9.6 38.1 10.05 38.2 10.6 L38.25 11.4 Q38.85 14.4 36.3 19.0 33.8 23.5 29.2 27.75 18.1 38.1 6.25 38.25 -0.1 38.25 -1.65 36.65 -7.15 38.6 -14.55 37.35 -22.3 36.1 -28.0 31.9 -29.35 30.9 -30.5 29.3 -31.75 27.5 -32.05 25.85 -40.1 18.6 -39.8 6.55 -39.7 3.1 -38.55 2.35 -37.25 1.5 -34.25 3.75 -33.15 4.6 -30.7 5.5 L-26.4 6.9 Q-25.25 6.05 -18.5 5.05 L-12.0 4.2 Q-10.65 1.05 -4.15 -3.45 2.3 -7.85 4.9 -7.5 L8.2 -15.1 Q10.95 -21.85 12.35 -23.3 12.65 -25.05 12.3 -27.85 12.0 -30.65 11.35 -31.8 9.35 -35.25 10.85 -37.3 12.55 -39.55 18.0 -36.8 22.7 -34.45 25.9 -31.5" fill="#84590b" fill-rule="evenodd" stroke="none"/>
    <path d="M-31.6 7.35 L-32.8 6.75 -32.75 6.7 Q-29.6 8.3 -28.0 8.7 -30.35 10.0 -31.5 14.0 -32.45 17.25 -32.5 21.55 -34.35 19.55 -35.75 16.25 L-35.4 13.3 Q-34.6 13.45 -33.65 11.45 L-31.6 7.35" fill="#a57413" fill-rule="evenodd" stroke="none"/>
    <path d="M-37.2 9.6 Q-37.75 6.55 -37.0 5.8 -36.25 5.0 -32.8 6.75 L-31.6 7.35 -33.65 11.45 Q-34.6 13.45 -35.4 13.3 L-35.65 13.2 Q-36.7 12.6 -37.2 9.6" fill="#e5a61a" fill-rule="evenodd" stroke="none"/>
    <path d="M14.6 -24.55 Q14.75 -25.9 14.3 -28.15 18.35 -30.4 22.8 -31.45 25.1 -29.3 25.4 -27.35 22.55 -27.7 19.5 -26.7 17.45 -26.1 14.6 -24.55" fill="#f4c34a" fill-rule="evenodd" stroke="none"/>
    <path d="M22.8 -31.45 Q18.35 -30.4 14.3 -28.15 L13.3 -32.6 Q12.8 -34.85 13.0 -35.45 13.5 -36.65 16.85 -35.25 20.15 -33.9 22.8 -31.45" fill="#ffe4a9" fill-rule="evenodd" stroke="none"/>
    <path d="M36.9 -9.9 Q32.75 -4.9 24.6 -4.85 17.8 -4.85 8.75 -8.25 L11.6 -15.9 Q25.25 -17.45 35.85 -14.65 L36.9 -9.9" fill="#f4c34a" fill-rule="evenodd" stroke="none"/>
    <path d="M8.75 -8.25 Q17.8 -4.85 24.6 -4.85 32.75 -4.9 36.9 -9.9 37.6 -5.45 37.15 -1.05 36.65 3.35 35.1 6.9 30.9 3.85 21.5 -0.9 11.9 -5.8 8.2 -6.65 L8.75 -8.25" fill="#e5a61a" fill-rule="evenodd" stroke="none"/>
    <path d="M33.05 -20.35 Q23.0 -22.25 13.2 -19.6 L13.8 -20.65 Q17.05 -25.55 24.3 -25.55 27.6 -25.55 29.5 -24.75 32.3 -23.5 33.05 -20.35" fill="#f4c34a" fill-rule="evenodd" stroke="none"/>
    <path d="M35.85 -14.65 Q25.25 -17.45 11.6 -15.9 L13.2 -19.6 Q23.0 -22.25 33.05 -20.35 L34.2 -18.8 35.85 -14.65" fill="#ffe4a9" fill-rule="evenodd" stroke="none"/>
    <path d="M-26.4 10.05 L-23.55 8.95 -25.2 13.2 -25.8 15.2 -25.95 15.95 -26.4 17.95 -27.3 15.8 -28.25 13.75 Q-27.55 11.7 -26.4 10.05" fill="#f4c34a" fill-rule="evenodd" stroke="none"/>
    <path d="M-29.25 23.05 Q-29.75 18.15 -28.25 13.75 L-27.3 15.8 -26.4 17.95 -26.8 20.75 -26.85 20.95 -27.1 26.35 -27.05 26.85 -26.9 29.4 Q-28.8 27.7 -29.25 23.05" fill="#e5a61a" fill-rule="evenodd" stroke="none"/>
    <path d="M-23.55 8.95 L-21.05 8.4 -21.25 17.15 -21.05 19.35 -21.05 19.65 Q-25.0 17.75 -25.6 14.55 L-25.2 13.2 -23.55 8.95" fill="#e5a61a" fill-rule="evenodd" stroke="none"/>
    <path d="M-25.95 15.95 L-25.6 14.55 Q-25.0 17.75 -21.05 19.65 L-19.9 26.0 -17.35 33.95 Q-22.75 32.5 -26.65 29.65 L-26.9 29.4 -27.05 26.85 -27.1 26.35 -26.85 20.95 -26.8 20.75 -26.4 17.95 -25.95 15.95" fill="#ba8211" fill-rule="evenodd" stroke="none"/>
    <path d="M-21.05 8.4 L-11.55 7.6 Q-10.9 13.55 -9.0 20.35 -12.15 20.6 -15.5 19.65 -18.7 18.7 -21.25 16.85 L-21.05 8.4" fill="#ba8211" fill-rule="evenodd" stroke="none"/>
    <path d="M-17.35 33.95 L-18.1 32.05 -19.9 26.0 -20.9 20.8 -21.25 17.15 -21.25 16.85 Q-18.7 18.7 -15.5 19.65 -12.15 20.6 -9.0 20.35 -6.6 29.35 -3.35 34.05 L-9.9 34.95 Q-13.65 34.95 -17.35 33.95" fill="#a57413" fill-rule="evenodd" stroke="none"/>
    <path d="M34.85 12.75 Q34.85 13.9 32.0 16.85 L29.55 14.65 Q31.75 10.5 32.4 8.35 34.7 10.9 34.85 12.75" fill="#f4c34a" fill-rule="evenodd" stroke="none"/>
    <path d="M3.75 -4.6 L4.9 -4.8 Q8.2 -5.8 17.85 -1.3 27.7 3.3 32.4 8.35 31.75 10.5 29.55 14.65 L24.1 9.6 13.75 2.0 3.75 -4.6" fill="#ffe4a9" fill-rule="evenodd" stroke="none"/>
    <path d="M0.75 -3.2 Q2.35 -4.1 3.75 -4.6 L20.2 6.55 26.25 11.5 28.65 13.8 26.1 16.1 Q24.5 17.3 22.8 17.8 L17.55 12.05 3.65 -0.75 0.75 -3.2" fill="#f4c34a" fill-rule="evenodd" stroke="none"/>
    <path d="M28.65 13.8 L32.85 17.7 Q30.7 21.35 27.7 23.25 L22.8 17.8 Q24.5 17.3 26.1 16.1 L28.65 13.8" fill="#e5a61a" fill-rule="evenodd" stroke="none"/>
    <path d="M0.75 -3.2 L3.65 -0.75 17.55 12.05 22.1 17.05 Q15.1 20.6 8.65 20.5 1.05 20.4 -4.25 15.15 -6.9 7.7 -7.1 2.9 -4.35 -0.35 0.75 -3.2" fill="#e5a61a" fill-rule="evenodd" stroke="none"/>
    <path d="M-8.6 5.35 Q-8.3 4.35 -7.1 2.9 -6.9 7.7 -4.25 15.15 1.05 20.4 8.65 20.5 15.1 20.6 22.1 17.05 L22.8 17.8 27.7 23.25 28.1 23.8 Q24.65 29.05 15.8 32.45 8.1 35.45 3.8 34.85 -0.15 33.4 -5.0 20.85 -9.7 8.7 -8.6 5.35" fill="#ba8211" fill-rule="evenodd" stroke="none"/>
  </g>
</svg>
